DBRep_DrawableShape

CASCADE Topology V1, (c) Matra-Datavision
Locations 1
1
0.791816015543363 -0.513366961445572 -0.330880281106586 40.2387708934311 
0.543615795583892 0.839333116673704 -0.00133643050673649 41.1609447153909 
0.278404856855489 -0.178813540177884 0.943671793330884 18.5303729263765 
Curve2ds 4
1 0 1.5707963267948966 1 0 
1 6.2831853071795862 -6.2831853071795862 0 1 
1 0 -6.2831853071795862 0 1 
1 0 -1.5707963267948966 1 0 
Curves 1
2 0 0 0 -2.4492935982947064e-16 -1 0 1 -2.4492935982947064e-16 0 0 0 1 117.75364811869579
Polygon3D 0
PolygonOnTriangulations 0
Surfaces 1
4 0 0 0 0 0 1 1 0 -0 -0 1 0 117.75364811869579
Triangulations 0

TShapes 9
Ve
1e-07
7.21033141282423e-15 -1.76602185710136e-30 117.753648118696
0 0

0101101
*
Ed
 1e-07 1 1 1
2  1 1 0 0 6.28318530717959
0

0101000
+9 0 -9 0 *
Ve
1e-07
7.21033141282423e-15 -1.76602185710136e-30 -117.753648118696
0 0

0101101
*
Ed
 1e-07 1 1 0
1  1 0 4.71238898038469 7.85398163397448
3  2 3CN 1 0 4.71238898038469 7.85398163397448
0

0101000
-9 0 +7 0 *
Ed
 1e-07 1 1 1
2  4 1 0 0 6.28318530717959
0

0101000
+7 0 -7 0 *
Wi

0101100
-8 0 +6 0 +5 0 -6 0 *
Fa
0  1e-07 1 0

0111000
+4 0 *
Sh

0101100
+3 0 *
So

1100000
+2 0 *

+1 1 