DBRep_DrawableShape

CASCADE Topology V1, (c) Matra-Datavision
Locations 1
1
0.831554603201695 0.277787880884051 0.480989433488948 27.8360372189206 
-0.552889842656335 0.331031226225044 0.764677153543505 33.0418855033503 
0.0531955240741624 -0.901804979193335 0.428856637724757 -49.2819129500227 
Curve2ds 12
1 0 93.10739478714541 1 0 
2 0 0 1 0 -0 1 49.477868201287315
1 6.2831853071795862 -0 0 1 
1 0 -0 0 1 
1 0 0 1 0 
2 0 0 1 0 -0 1 49.477868201287315
1 0 93.10739478714541 1 0 
2 0 0 1 0 -0 1 37.255521700063682
1 0 0 1 0 
2 0 0 1 0 -0 1 37.255521700063682
1 6.2831853071795862 -0 0 1 
1 0 -0 0 1 
Curves 6
2 0 93.10739478714541 0 0 1 0 0 -0 1 1 0 -0 49.477868201287315
1 -1.2118582584268224e-14 0 49.477868201287315 0 1 0 
2 0 0 0 0 1 0 0 -0 1 1 0 -0 49.477868201287315
2 0 93.10739478714541 0 0 1 0 0 -0 1 1 0 -0 37.255521700063682
2 0 0 0 0 1 0 0 -0 1 1 0 -0 37.255521700063682
1 -9.1249710801095486e-15 0 37.255521700063682 0 1 0 
Polygon3D 0
PolygonOnTriangulations 0
Surfaces 6
2 0 0 0 0 1 0 0 -0 1 1 0 -0 49.477868201287315
1 0 93.10739478714541 0 0 1 0 0 -0 1 1 0 -0 
1 0 0 0 0 1 0 0 -0 1 1 0 -0 
2 0 0 0 0 1 0 0 -0 1 1 0 -0 37.255521700063682
1 0 93.10739478714541 0 0 1 0 0 -0 1 1 0 -0 
1 0 0 0 0 1 0 0 -0 1 1 0 -0 
Triangulations 0

TShapes 23
Ve
1e-07
-1.21185825842682e-14 93.1073947871454 49.4778682012873
0 0

0101101
*
Ed
 1e-07 1 1 0
1  1 0 0 6.28318530717959
2  1 1 0 0 6.28318530717959
2  2 2 0 0 6.28318530717959
0

0101000
+23 0 -23 0 *
Ve
1e-07
-1.21185825842682e-14 0 49.4778682012873
0 0

0101101
*
Ed
 1e-07 1 1 0
1  2 0 0 93.1073947871454
3  3 4CN 1 0 0 93.1073947871454
0

0101000
-23 0 +21 0 *
Ed
 1e-07 1 1 0
1  3 0 0 6.28318530717959
2  5 1 0 0 6.28318530717959
2  6 3 0 0 6.28318530717959
0

0101000
+21 0 -21 0 *
Wi

0101100
-22 0 +20 0 +19 0 -20 0 *
Fa
0  1e-07 1 0

0111000
+18 0 *
Wi

0101100
+22 0 *
Ve
1e-07
-9.12497108010955e-15 93.1073947871454 37.2555217000637
0 0

0101101
*
Ed
 1e-07 1 1 0
1  4 0 0 6.28318530717959
2  7 4 0 0 6.28318530717959
2  8 5 0 0 6.28318530717959
0

0101000
+15 0 -15 0 *
Wi

0101100
-14 0 *
Fa
0  1e-07 2 0

0101000
+16 0 +13 0 *
Wi

0101100
+19 0 *
Ve
1e-07
-9.12497108010955e-15 0 37.2555217000637
0 0

0101101
*
Ed
 1e-07 1 1 0
1  5 0 0 6.28318530717959
2  9 4 0 0 6.28318530717959
2  10 6 0 0 6.28318530717959
0

0101000
+10 0 -10 0 *
Wi

0101100
-9 0 *
Fa
0  1e-07 3 0

0101000
+11 0 +8 0 *
Ed
 1e-07 1 1 0
1  6 0 0 93.1073947871454
3  11 12CN 4 0 0 93.1073947871454
0

0101000
+10 0 -15 0 *
Wi

0101100
-14 0 +6 0 +9 0 -6 0 *
Fa
0  1e-07 4 0

0101000
+5 0 *
Sh

0101100
+17 0 +12 0 -7 0 -4 0 *
So

0100000
+3 0 *
Co

1100000
+2 0 *

+1 1 