DBRep_DrawableShape

CASCADE Topology V1, (c) Matra-Datavision
Locations 1
1
0.0051530103923727 0.174324998115393 0.984674688166587 43.8835789849479 
-0.918084245201386 0.391112703879952 -0.0644373461333943 30.9113688745531 
-0.396351819974247 -0.903682271540048 0.162060442142186 43.4861526032153 
Curve2ds 12
1 0 487.30588586565358 1 0 
2 0 0 1 0 -0 1 71.54823888163358
1 6.2831853071795862 -0 0 1 
1 0 -0 0 1 
1 0 0 1 0 
2 0 0 1 0 -0 1 71.54823888163358
1 0 487.30588586565358 1 0 
2 0 0 1 0 -0 1 58.521900843256617
1 0 0 1 0 
2 0 0 1 0 -0 1 58.521900843256617
1 6.2831853071795862 -0 0 1 
1 0 -0 0 1 
Curves 6
2 0 487.30588586565358 0 0 1 0 0 -0 1 1 0 -0 71.54823888163358
1 -1.7524264346204552e-14 0 71.54823888163358 0 1 0 
2 0 0 0 0 1 0 0 -0 1 1 0 -0 71.54823888163358
2 0 487.30588586565358 0 0 1 0 0 -0 1 1 0 -0 58.521900843256617
2 0 0 0 0 1 0 0 -0 1 1 0 -0 58.521900843256617
1 -1.4333731709542602e-14 0 58.521900843256617 0 1 0 
Polygon3D 0
PolygonOnTriangulations 0
Surfaces 6
2 0 0 0 0 1 0 0 -0 1 1 0 -0 71.54823888163358
1 0 487.30588586565358 0 0 1 0 0 -0 1 1 0 -0 
1 0 0 0 0 1 0 0 -0 1 1 0 -0 
2 0 0 0 0 1 0 0 -0 1 1 0 -0 58.521900843256617
1 0 487.30588586565358 0 0 1 0 0 -0 1 1 0 -0 
1 0 0 0 0 1 0 0 -0 1 1 0 -0 
Triangulations 0

TShapes 23
Ve
1e-07
-1.75242643462046e-14 487.305885865654 71.5482388816336
0 0

0101101
*
Ed
 1e-07 1 1 0
1  1 0 0 6.28318530717959
2  1 1 0 0 6.28318530717959
2  2 2 0 0 6.28318530717959
0

0101000
+23 0 -23 0 *
Ve
1e-07
-1.75242643462046e-14 0 71.5482388816336
0 0

0101101
*
Ed
 1e-07 1 1 0
1  2 0 0 487.305885865654
3  3 4CN 1 0 0 487.305885865654
0

0101000
-23 0 +21 0 *
Ed
 1e-07 1 1 0
1  3 0 0 6.28318530717959
2  5 1 0 0 6.28318530717959
2  6 3 0 0 6.28318530717959
0

0101000
+21 0 -21 0 *
Wi

0101100
-22 0 +20 0 +19 0 -20 0 *
Fa
0  1e-07 1 0

0111000
+18 0 *
Wi

0101100
+22 0 *
Ve
1e-07
-1.43337317095426e-14 487.305885865654 58.5219008432566
0 0

0101101
*
Ed
 1e-07 1 1 0
1  4 0 0 6.28318530717959
2  7 4 0 0 6.28318530717959
2  8 5 0 0 6.28318530717959
0

0101000
+15 0 -15 0 *
Wi

0101100
-14 0 *
Fa
0  1e-07 2 0

0101000
+16 0 +13 0 *
Wi

0101100
+19 0 *
Ve
1e-07
-1.43337317095426e-14 0 58.5219008432566
0 0

0101101
*
Ed
 1e-07 1 1 0
1  5 0 0 6.28318530717959
2  9 4 0 0 6.28318530717959
2  10 6 0 0 6.28318530717959
0

0101000
+10 0 -10 0 *
Wi

0101100
-9 0 *
Fa
0  1e-07 3 0

0101000
+11 0 +8 0 *
Ed
 1e-07 1 1 0
1  6 0 0 487.305885865654
3  11 12CN 4 0 0 487.305885865654
0

0101000
+10 0 -15 0 *
Wi

0101100
-14 0 +6 0 +9 0 -6 0 *
Fa
0  1e-07 4 0

0101000
+5 0 *
Sh

0101100
+17 0 +12 0 -7 0 -4 0 *
So

0100000
+3 0 *
Co

1100000
+2 0 *

+1 1 