DBRep_DrawableShape

CASCADE Topology V1, (c) Matra-Datavision
Locations 1
1
0.491260246682701 0.569169695175397 -0.65932482747368 -14.3017082568704 
-0.772679746935448 0.634166269993962 -0.0282692532217695 4.7563990026414 
0.402031564314325 0.523334501151883 0.751326574266534 36.7596508930522 
Curve2ds 12
1 0 214.02864326159434 1 0 
2 0 0 1 0 -0 1 60.303584767161901
1 6.2831853071795862 -0 0 1 
1 0 -0 0 1 
1 0 0 1 0 
2 0 0 1 0 -0 1 60.303584767161901
1 0 214.02864326159434 1 0 
2 0 0 1 0 -0 1 56.895128985559495
1 0 0 1 0 
2 0 0 1 0 -0 1 56.895128985559495
1 6.2831853071795862 -0 0 1 
1 0 -0 0 1 
Curves 6
2 0 214.02864326159434 0 0 1 0 0 -0 1 1 0 -0 60.303584767161901
1 -1.4770118412443183e-14 0 60.303584767161901 0 1 0 
2 0 0 0 0 1 0 0 -0 1 1 0 -0 60.303584767161901
2 0 214.02864326159434 0 0 1 0 0 -0 1 1 0 -0 56.895128985559495
2 0 0 0 0 1 0 0 -0 1 1 0 -0 56.895128985559495
1 -1.3935287519848247e-14 0 56.895128985559495 0 1 0 
Polygon3D 0
PolygonOnTriangulations 0
Surfaces 6
2 0 0 0 0 1 0 0 -0 1 1 0 -0 60.303584767161901
1 0 214.02864326159434 0 0 1 0 0 -0 1 1 0 -0 
1 0 0 0 0 1 0 0 -0 1 1 0 -0 
2 0 0 0 0 1 0 0 -0 1 1 0 -0 56.895128985559495
1 0 214.02864326159434 0 0 1 0 0 -0 1 1 0 -0 
1 0 0 0 0 1 0 0 -0 1 1 0 -0 
Triangulations 0

TShapes 23
Ve
1e-07
-1.47701184124432e-14 214.028643261594 60.3035847671619
0 0

0101101
*
Ed
 1e-07 1 1 0
1  1 0 0 6.28318530717959
2  1 1 0 0 6.28318530717959
2  2 2 0 0 6.28318530717959
0

0101000
+23 0 -23 0 *
Ve
1e-07
-1.47701184124432e-14 0 60.3035847671619
0 0

0101101
*
Ed
 1e-07 1 1 0
1  2 0 0 214.028643261594
3  3 4CN 1 0 0 214.028643261594
0

0101000
-23 0 +21 0 *
Ed
 1e-07 1 1 0
1  3 0 0 6.28318530717959
2  5 1 0 0 6.28318530717959
2  6 3 0 0 6.28318530717959
0

0101000
+21 0 -21 0 *
Wi

0101100
-22 0 +20 0 +19 0 -20 0 *
Fa
0  1e-07 1 0

0111000
+18 0 *
Wi

0101100
+22 0 *
Ve
1e-07
-1.39352875198482e-14 214.028643261594 56.8951289855595
0 0

0101101
*
Ed
 1e-07 1 1 0
1  4 0 0 6.28318530717959
2  7 4 0 0 6.28318530717959
2  8 5 0 0 6.28318530717959
0

0101000
+15 0 -15 0 *
Wi

0101100
-14 0 *
Fa
0  1e-07 2 0

0101000
+16 0 +13 0 *
Wi

0101100
+19 0 *
Ve
1e-07
-1.39352875198482e-14 0 56.8951289855595
0 0

0101101
*
Ed
 1e-07 1 1 0
1  5 0 0 6.28318530717959
2  9 4 0 0 6.28318530717959
2  10 6 0 0 6.28318530717959
0

0101000
+10 0 -10 0 *
Wi

0101100
-9 0 *
Fa
0  1e-07 3 0

0101000
+11 0 +8 0 *
Ed
 1e-07 1 1 0
1  6 0 0 214.028643261594
3  11 12CN 4 0 0 214.028643261594
0

0101000
+10 0 -15 0 *
Wi

0101100
-14 0 +6 0 +9 0 -6 0 *
Fa
0  1e-07 4 0

0101000
+5 0 *
Sh

0101100
+17 0 +12 0 -7 0 -4 0 *
So

0100000
+3 0 *
Co

1100000
+2 0 *

+1 1 