DBRep_DrawableShape

CASCADE Topology V1, (c) Matra-Datavision
Locations 1
1
0.0272734805222389 -0.247552976995731 0.968490413396413 -37.8053910279326 
0.642128909273027 0.746862476921588 0.172820439885977 27.9667721258658 
-0.766111363403543 0.617182277894546 0.179330462322671 -21.0837292506285 
Curve2ds 12
1 0 106.35865414462222 1 0 
2 0 0 1 0 -0 1 93.191853969092165
1 6.2831853071795862 -0 0 1 
1 0 -0 0 1 
1 0 0 1 0 
2 0 0 1 0 -0 1 93.191853969092165
1 0 106.35865414462222 1 0 
2 0 0 1 0 -0 1 90.949357367184632
1 0 0 1 0 
2 0 0 1 0 -0 1 90.949357367184632
1 6.2831853071795862 -0 0 1 
1 0 -0 0 1 
Curves 6
2 0 106.35865414462222 0 0 1 0 0 -0 1 1 0 -0 93.191853969092165
1 -2.2825421133971257e-14 0 93.191853969092165 0 1 0 
2 0 0 0 0 1 0 0 -0 1 1 0 -0 93.191853969092165
2 0 106.35865414462222 0 0 1 0 0 -0 1 1 0 -0 90.949357367184632
2 0 0 0 0 1 0 0 -0 1 1 0 -0 90.949357367184632
1 -2.2276167876846282e-14 0 90.949357367184632 0 1 0 
Polygon3D 0
PolygonOnTriangulations 0
Surfaces 6
2 0 0 0 0 1 0 0 -0 1 1 0 -0 93.191853969092165
1 0 106.35865414462222 0 0 1 0 0 -0 1 1 0 -0 
1 0 0 0 0 1 0 0 -0 1 1 0 -0 
2 0 0 0 0 1 0 0 -0 1 1 0 -0 90.949357367184632
1 0 106.35865414462222 0 0 1 0 0 -0 1 1 0 -0 
1 0 0 0 0 1 0 0 -0 1 1 0 -0 
Triangulations 0

TShapes 23
Ve
1e-07
-2.28254211339713e-14 106.358654144622 93.1918539690922
0 0

0101101
*
Ed
 1e-07 1 1 0
1  1 0 0 6.28318530717959
2  1 1 0 0 6.28318530717959
2  2 2 0 0 6.28318530717959
0

0101000
+23 0 -23 0 *
Ve
1e-07
-2.28254211339713e-14 0 93.1918539690922
0 0

0101101
*
Ed
 1e-07 1 1 0
1  2 0 0 106.358654144622
3  3 4CN 1 0 0 106.358654144622
0

0101000
-23 0 +21 0 *
Ed
 1e-07 1 1 0
1  3 0 0 6.28318530717959
2  5 1 0 0 6.28318530717959
2  6 3 0 0 6.28318530717959
0

0101000
+21 0 -21 0 *
Wi

0101100
-22 0 +20 0 +19 0 -20 0 *
Fa
0  1e-07 1 0

0111000
+18 0 *
Wi

0101100
+22 0 *
Ve
1e-07
-2.22761678768463e-14 106.358654144622 90.9493573671846
0 0

0101101
*
Ed
 1e-07 1 1 0
1  4 0 0 6.28318530717959
2  7 4 0 0 6.28318530717959
2  8 5 0 0 6.28318530717959
0

0101000
+15 0 -15 0 *
Wi

0101100
-14 0 *
Fa
0  1e-07 2 0

0101000
+16 0 +13 0 *
Wi

0101100
+19 0 *
Ve
1e-07
-2.22761678768463e-14 0 90.9493573671846
0 0

0101101
*
Ed
 1e-07 1 1 0
1  5 0 0 6.28318530717959
2  9 4 0 0 6.28318530717959
2  10 6 0 0 6.28318530717959
0

0101000
+10 0 -10 0 *
Wi

0101100
-9 0 *
Fa
0  1e-07 3 0

0101000
+11 0 +8 0 *
Ed
 1e-07 1 1 0
1  6 0 0 106.358654144622
3  11 12CN 4 0 0 106.358654144622
0

0101000
+10 0 -15 0 *
Wi

0101100
-14 0 +6 0 +9 0 -6 0 *
Fa
0  1e-07 4 0

0101000
+5 0 *
Sh

0101100
+17 0 +12 0 -7 0 -4 0 *
So

0100000
+3 0 *
Co

1100000
+2 0 *

+1 1 