DBRep_DrawableShape

CASCADE Topology V1, (c) Matra-Datavision
Locations 1
1
0.379557600326137 0.305966060753116 0.873109842861644 -2.77702737547992 
-0.683064777864605 -0.543828984563962 0.487516712317546 47.9896115409609 
0.623986007275358 -0.781431254311824 0.00258021495353856 19.3948414971895 
Curve2ds 12
1 0 405.70897423819804 1 0 
2 0 0 1 0 -0 1 91.0115646933683
1 6.2831853071795862 -0 0 1 
1 0 -0 0 1 
1 0 0 1 0 
2 0 0 1 0 -0 1 91.0115646933683
1 0 405.70897423819804 1 0 
2 0 0 1 0 -0 1 83.50518857840845
1 0 0 1 0 
2 0 0 1 0 -0 1 83.50518857840845
1 6.2831853071795862 -0 0 1 
1 0 -0 0 1 
Curves 6
2 0 405.70897423819804 0 0 1 0 0 -0 1 1 0 -0 91.0115646933683
1 -2.229140427742515e-14 0 91.0115646933683 0 1 0 
2 0 0 0 0 1 0 0 -0 1 1 0 -0 91.0115646933683
2 0 405.70897423819804 0 0 1 0 0 -0 1 1 0 -0 83.50518857840845
2 0 0 0 0 1 0 0 -0 1 1 0 -0 83.50518857840845
1 -2.0452872380948805e-14 0 83.50518857840845 0 1 0 
Polygon3D 0
PolygonOnTriangulations 0
Surfaces 6
2 0 0 0 0 1 0 0 -0 1 1 0 -0 91.0115646933683
1 0 405.70897423819804 0 0 1 0 0 -0 1 1 0 -0 
1 0 0 0 0 1 0 0 -0 1 1 0 -0 
2 0 0 0 0 1 0 0 -0 1 1 0 -0 83.50518857840845
1 0 405.70897423819804 0 0 1 0 0 -0 1 1 0 -0 
1 0 0 0 0 1 0 0 -0 1 1 0 -0 
Triangulations 0

TShapes 23
Ve
1e-07
-2.22914042774252e-14 405.708974238198 91.0115646933683
0 0

0101101
*
Ed
 1e-07 1 1 0
1  1 0 0 6.28318530717959
2  1 1 0 0 6.28318530717959
2  2 2 0 0 6.28318530717959
0

0101000
+23 0 -23 0 *
Ve
1e-07
-2.22914042774252e-14 0 91.0115646933683
0 0

0101101
*
Ed
 1e-07 1 1 0
1  2 0 0 405.708974238198
3  3 4CN 1 0 0 405.708974238198
0

0101000
-23 0 +21 0 *
Ed
 1e-07 1 1 0
1  3 0 0 6.28318530717959
2  5 1 0 0 6.28318530717959
2  6 3 0 0 6.28318530717959
0

0101000
+21 0 -21 0 *
Wi

0101100
-22 0 +20 0 +19 0 -20 0 *
Fa
0  1e-07 1 0

0111000
+18 0 *
Wi

0101100
+22 0 *
Ve
1e-07
-2.04528723809488e-14 405.708974238198 83.5051885784085
0 0

0101101
*
Ed
 1e-07 1 1 0
1  4 0 0 6.28318530717959
2  7 4 0 0 6.28318530717959
2  8 5 0 0 6.28318530717959
0

0101000
+15 0 -15 0 *
Wi

0101100
-14 0 *
Fa
0  1e-07 2 0

0101000
+16 0 +13 0 *
Wi

0101100
+19 0 *
Ve
1e-07
-2.04528723809488e-14 0 83.5051885784085
0 0

0101101
*
Ed
 1e-07 1 1 0
1  5 0 0 6.28318530717959
2  9 4 0 0 6.28318530717959
2  10 6 0 0 6.28318530717959
0

0101000
+10 0 -10 0 *
Wi

0101100
-9 0 *
Fa
0  1e-07 3 0

0101000
+11 0 +8 0 *
Ed
 1e-07 1 1 0
1  6 0 0 405.708974238198
3  11 12CN 4 0 0 405.708974238198
0

0101000
+10 0 -15 0 *
Wi

0101100
-14 0 +6 0 +9 0 -6 0 *
Fa
0  1e-07 4 0

0101000
+5 0 *
Sh

0101100
+17 0 +12 0 -7 0 -4 0 *
So

0100000
+3 0 *
Co

1100000
+2 0 *

+1 1 