DBRep_DrawableShape

CASCADE Topology V1, (c) Matra-Datavision
Locations 1
1
0.962903158558639 0.0325220783071184 -0.267880237532339 48.0712603180676 
-0.195743675502913 0.767504490543285 -0.610427121363806 37.1475399547864 
0.18574692659209 0.64021806552024 0.745398489294897 47.2432308718552 
Curve2ds 12
1 0 454.18579925542463 1 0 
2 0 0 1 0 -0 1 81.787191311762825
1 6.2831853071795862 -0 0 1 
1 0 -0 0 1 
1 0 0 1 0 
2 0 0 1 0 -0 1 81.787191311762825
1 0 454.18579925542463 1 0 
2 0 0 1 0 -0 1 66.868718388276562
1 0 0 1 0 
2 0 0 1 0 -0 1 66.868718388276562
1 6.2831853071795862 -0 0 1 
1 0 -0 0 1 
Curves 6
2 0 454.18579925542463 0 0 1 0 0 -0 1 1 0 -0 81.787191311762825
1 -2.0032084410240511e-14 0 81.787191311762825 0 1 0 
2 0 0 0 0 1 0 0 -0 1 1 0 -0 81.787191311762825
2 0 454.18579925542463 0 0 1 0 0 -0 1 1 0 -0 66.868718388276562
2 0 0 0 0 1 0 0 -0 1 1 0 -0 66.868718388276562
1 -1.6378112387457731e-14 0 66.868718388276562 0 1 0 
Polygon3D 0
PolygonOnTriangulations 0
Surfaces 6
2 0 0 0 0 1 0 0 -0 1 1 0 -0 81.787191311762825
1 0 454.18579925542463 0 0 1 0 0 -0 1 1 0 -0 
1 0 0 0 0 1 0 0 -0 1 1 0 -0 
2 0 0 0 0 1 0 0 -0 1 1 0 -0 66.868718388276562
1 0 454.18579925542463 0 0 1 0 0 -0 1 1 0 -0 
1 0 0 0 0 1 0 0 -0 1 1 0 -0 
Triangulations 0

TShapes 23
Ve
1e-07
-2.00320844102405e-14 454.185799255425 81.7871913117628
0 0

0101101
*
Ed
 1e-07 1 1 0
1  1 0 0 6.28318530717959
2  1 1 0 0 6.28318530717959
2  2 2 0 0 6.28318530717959
0

0101000
+23 0 -23 0 *
Ve
1e-07
-2.00320844102405e-14 0 81.7871913117628
0 0

0101101
*
Ed
 1e-07 1 1 0
1  2 0 0 454.185799255425
3  3 4CN 1 0 0 454.185799255425
0

0101000
-23 0 +21 0 *
Ed
 1e-07 1 1 0
1  3 0 0 6.28318530717959
2  5 1 0 0 6.28318530717959
2  6 3 0 0 6.28318530717959
0

0101000
+21 0 -21 0 *
Wi

0101100
-22 0 +20 0 +19 0 -20 0 *
Fa
0  1e-07 1 0

0111000
+18 0 *
Wi

0101100
+22 0 *
Ve
1e-07
-1.63781123874577e-14 454.185799255425 66.8687183882766
0 0

0101101
*
Ed
 1e-07 1 1 0
1  4 0 0 6.28318530717959
2  7 4 0 0 6.28318530717959
2  8 5 0 0 6.28318530717959
0

0101000
+15 0 -15 0 *
Wi

0101100
-14 0 *
Fa
0  1e-07 2 0

0101000
+16 0 +13 0 *
Wi

0101100
+19 0 *
Ve
1e-07
-1.63781123874577e-14 0 66.8687183882766
0 0

0101101
*
Ed
 1e-07 1 1 0
1  5 0 0 6.28318530717959
2  9 4 0 0 6.28318530717959
2  10 6 0 0 6.28318530717959
0

0101000
+10 0 -10 0 *
Wi

0101100
-9 0 *
Fa
0  1e-07 3 0

0101000
+11 0 +8 0 *
Ed
 1e-07 1 1 0
1  6 0 0 454.185799255425
3  11 12CN 4 0 0 454.185799255425
0

0101000
+10 0 -15 0 *
Wi

0101100
-14 0 +6 0 +9 0 -6 0 *
Fa
0  1e-07 4 0

0101000
+5 0 *
Sh

0101100
+17 0 +12 0 -7 0 -4 0 *
So

0100000
+3 0 *
Co

1100000
+2 0 *

+1 1 