DBRep_DrawableShape

CASCADE Topology V1, (c) Matra-Datavision
Locations 1
1
0.0564316815092698 0.994381271442329 -0.0895620026951963 -21.7327079987559 
-0.107675459578021 0.0952432130057033 0.989613422393316 48.4736639415587 
0.992583226095776 -0.0462019196688649 0.112445195060587 27.8757105683254 
Curve2ds 12
1 0 265.70120784022271 1 0 
2 0 0 1 0 -0 1 62.359558735362739
1 6.2831853071795862 -0 0 1 
1 0 -0 0 1 
1 0 0 1 0 
2 0 0 1 0 -0 1 62.359558735362739
1 0 265.70120784022271 1 0 
2 0 0 1 0 -0 1 59.56974890984506
1 0 0 1 0 
2 0 0 1 0 -0 1 59.56974890984506
1 6.2831853071795862 -0 0 1 
1 0 -0 0 1 
Curves 6
2 0 265.70120784022271 0 0 1 0 0 -0 1 1 0 -0 62.359558735362739
1 -1.5273686800300669e-14 0 62.359558735362739 0 1 0 
2 0 0 0 0 1 0 0 -0 1 1 0 -0 62.359558735362739
2 0 265.70120784022271 0 0 1 0 0 -0 1 1 0 -0 59.56974890984506
2 0 0 0 0 1 0 0 -0 1 1 0 -0 59.56974890984506
1 -1.4590380465690658e-14 0 59.56974890984506 0 1 0 
Polygon3D 0
PolygonOnTriangulations 0
Surfaces 6
2 0 0 0 0 1 0 0 -0 1 1 0 -0 62.359558735362739
1 0 265.70120784022271 0 0 1 0 0 -0 1 1 0 -0 
1 0 0 0 0 1 0 0 -0 1 1 0 -0 
2 0 0 0 0 1 0 0 -0 1 1 0 -0 59.56974890984506
1 0 265.70120784022271 0 0 1 0 0 -0 1 1 0 -0 
1 0 0 0 0 1 0 0 -0 1 1 0 -0 
Triangulations 0

TShapes 23
Ve
1e-07
-1.52736868003007e-14 265.701207840223 62.3595587353627
0 0

0101101
*
Ed
 1e-07 1 1 0
1  1 0 0 6.28318530717959
2  1 1 0 0 6.28318530717959
2  2 2 0 0 6.28318530717959
0

0101000
+23 0 -23 0 *
Ve
1e-07
-1.52736868003007e-14 0 62.3595587353627
0 0

0101101
*
Ed
 1e-07 1 1 0
1  2 0 0 265.701207840223
3  3 4CN 1 0 0 265.701207840223
0

0101000
-23 0 +21 0 *
Ed
 1e-07 1 1 0
1  3 0 0 6.28318530717959
2  5 1 0 0 6.28318530717959
2  6 3 0 0 6.28318530717959
0

0101000
+21 0 -21 0 *
Wi

0101100
-22 0 +20 0 +19 0 -20 0 *
Fa
0  1e-07 1 0

0111000
+18 0 *
Wi

0101100
+22 0 *
Ve
1e-07
-1.45903804656907e-14 265.701207840223 59.5697489098451
0 0

0101101
*
Ed
 1e-07 1 1 0
1  4 0 0 6.28318530717959
2  7 4 0 0 6.28318530717959
2  8 5 0 0 6.28318530717959
0

0101000
+15 0 -15 0 *
Wi

0101100
-14 0 *
Fa
0  1e-07 2 0

0101000
+16 0 +13 0 *
Wi

0101100
+19 0 *
Ve
1e-07
-1.45903804656907e-14 0 59.5697489098451
0 0

0101101
*
Ed
 1e-07 1 1 0
1  5 0 0 6.28318530717959
2  9 4 0 0 6.28318530717959
2  10 6 0 0 6.28318530717959
0

0101000
+10 0 -10 0 *
Wi

0101100
-9 0 *
Fa
0  1e-07 3 0

0101000
+11 0 +8 0 *
Ed
 1e-07 1 1 0
1  6 0 0 265.701207840223
3  11 12CN 4 0 0 265.701207840223
0

0101000
+10 0 -15 0 *
Wi

0101100
-14 0 +6 0 +9 0 -6 0 *
Fa
0  1e-07 4 0

0101000
+5 0 *
Sh

0101100
+17 0 +12 0 -7 0 -4 0 *
So

0100000
+3 0 *
Co

1100000
+2 0 *

+1 1 