DBRep_DrawableShape

CASCADE Topology V1, (c) Matra-Datavision
Locations 1
1
0.0522578827194894 0.346737352670473 0.93650537743077 31.4329378623276 
-0.792202805646399 -0.556575961211386 0.250275676260392 -15.5678033672508 
0.608016306047503 -0.754981064441152 0.245600822302482 -24.4297904314077 
Curve2ds 12
1 0 197.23646361625129 1 0 
2 0 0 1 0 -0 1 68.012497216741579
1 6.2831853071795862 -0 0 1 
1 0 -0 0 1 
1 0 0 1 0 
2 0 0 1 0 -0 1 68.012497216741579
1 0 197.23646361625129 1 0 
2 0 0 1 0 -0 1 61.69144249660657
1 0 0 1 0 
2 0 0 1 0 -0 1 61.69144249660657
1 6.2831853071795862 -0 0 1 
1 0 -0 0 1 
Curves 6
2 0 197.23646361625129 0 0 1 0 0 -0 1 1 0 -0 68.012497216741579
1 -1.6658257403700168e-14 0 68.012497216741579 0 1 0 
2 0 0 0 0 1 0 0 -0 1 1 0 -0 68.012497216741579
2 0 197.23646361625129 0 0 1 0 0 -0 1 1 0 -0 61.69144249660657
2 0 0 0 0 1 0 0 -0 1 1 0 -0 61.69144249660657
1 -1.5110045517650447e-14 0 61.69144249660657 0 1 0 
Polygon3D 0
PolygonOnTriangulations 0
Surfaces 6
2 0 0 0 0 1 0 0 -0 1 1 0 -0 68.012497216741579
1 0 197.23646361625129 0 0 1 0 0 -0 1 1 0 -0 
1 0 0 0 0 1 0 0 -0 1 1 0 -0 
2 0 0 0 0 1 0 0 -0 1 1 0 -0 61.69144249660657
1 0 197.23646361625129 0 0 1 0 0 -0 1 1 0 -0 
1 0 0 0 0 1 0 0 -0 1 1 0 -0 
Triangulations 0

TShapes 23
Ve
1e-07
-1.66582574037002e-14 197.236463616251 68.0124972167416
0 0

0101101
*
Ed
 1e-07 1 1 0
1  1 0 0 6.28318530717959
2  1 1 0 0 6.28318530717959
2  2 2 0 0 6.28318530717959
0

0101000
+23 0 -23 0 *
Ve
1e-07
-1.66582574037002e-14 0 68.0124972167416
0 0

0101101
*
Ed
 1e-07 1 1 0
1  2 0 0 197.236463616251
3  3 4CN 1 0 0 197.236463616251
0

0101000
-23 0 +21 0 *
Ed
 1e-07 1 1 0
1  3 0 0 6.28318530717959
2  5 1 0 0 6.28318530717959
2  6 3 0 0 6.28318530717959
0

0101000
+21 0 -21 0 *
Wi

0101100
-22 0 +20 0 +19 0 -20 0 *
Fa
0  1e-07 1 0

0111000
+18 0 *
Wi

0101100
+22 0 *
Ve
1e-07
-1.51100455176504e-14 197.236463616251 61.6914424966066
0 0

0101101
*
Ed
 1e-07 1 1 0
1  4 0 0 6.28318530717959
2  7 4 0 0 6.28318530717959
2  8 5 0 0 6.28318530717959
0

0101000
+15 0 -15 0 *
Wi

0101100
-14 0 *
Fa
0  1e-07 2 0

0101000
+16 0 +13 0 *
Wi

0101100
+19 0 *
Ve
1e-07
-1.51100455176504e-14 0 61.6914424966066
0 0

0101101
*
Ed
 1e-07 1 1 0
1  5 0 0 6.28318530717959
2  9 4 0 0 6.28318530717959
2  10 6 0 0 6.28318530717959
0

0101000
+10 0 -10 0 *
Wi

0101100
-9 0 *
Fa
0  1e-07 3 0

0101000
+11 0 +8 0 *
Ed
 1e-07 1 1 0
1  6 0 0 197.236463616251
3  11 12CN 4 0 0 197.236463616251
0

0101000
+10 0 -15 0 *
Wi

0101100
-14 0 +6 0 +9 0 -6 0 *
Fa
0  1e-07 4 0

0101000
+5 0 *
Sh

0101100
+17 0 +12 0 -7 0 -4 0 *
So

0100000
+3 0 *
Co

1100000
+2 0 *

+1 1 