DBRep_DrawableShape

CASCADE Topology V1, (c) Matra-Datavision
Locations 1
1
0.181376854651249 -0.914460346513729 -0.361752278846743 16.238861199622 
0.516294909463479 0.401627050643116 -0.75639624447363 -2.61189065071298 
0.836983872639682 -0.0495780883627426 0.544977072999753 -33.7543434377267 
Curve2ds 12
1 0 347.96546344743456 1 0 
2 0 0 1 0 -0 1 51.66725465143719
1 6.2831853071795862 -0 0 1 
1 0 -0 0 1 
1 0 0 1 0 
2 0 0 1 0 -0 1 51.66725465143719
1 0 347.96546344743456 1 0 
2 0 0 1 0 -0 1 35.795416591136977
1 0 0 1 0 
2 0 0 1 0 -0 1 35.795416591136977
1 6.2831853071795862 -0 0 1 
1 0 -0 0 1 
Curves 6
2 0 347.96546344743456 0 0 1 0 0 -0 1 1 0 -0 51.66725465143719
1 -1.2654827605922751e-14 0 51.66725465143719 0 1 0 
2 0 0 0 0 1 0 0 -0 1 1 0 -0 51.66725465143719
2 0 347.96546344743456 0 0 1 0 0 -0 1 1 0 -0 35.795416591136977
2 0 0 0 0 1 0 0 -0 1 1 0 -0 35.795416591136977
1 -8.7673484704963918e-15 0 35.795416591136977 0 1 0 
Polygon3D 0
PolygonOnTriangulations 0
Surfaces 6
2 0 0 0 0 1 0 0 -0 1 1 0 -0 51.66725465143719
1 0 347.96546344743456 0 0 1 0 0 -0 1 1 0 -0 
1 0 0 0 0 1 0 0 -0 1 1 0 -0 
2 0 0 0 0 1 0 0 -0 1 1 0 -0 35.795416591136977
1 0 347.96546344743456 0 0 1 0 0 -0 1 1 0 -0 
1 0 0 0 0 1 0 0 -0 1 1 0 -0 
Triangulations 0

TShapes 23
Ve
1e-07
-1.26548276059228e-14 347.965463447435 51.6672546514372
0 0

0101101
*
Ed
 1e-07 1 1 0
1  1 0 0 6.28318530717959
2  1 1 0 0 6.28318530717959
2  2 2 0 0 6.28318530717959
0

0101000
+23 0 -23 0 *
Ve
1e-07
-1.26548276059228e-14 0 51.6672546514372
0 0

0101101
*
Ed
 1e-07 1 1 0
1  2 0 0 347.965463447435
3  3 4CN 1 0 0 347.965463447435
0

0101000
-23 0 +21 0 *
Ed
 1e-07 1 1 0
1  3 0 0 6.28318530717959
2  5 1 0 0 6.28318530717959
2  6 3 0 0 6.28318530717959
0

0101000
+21 0 -21 0 *
Wi

0101100
-22 0 +20 0 +19 0 -20 0 *
Fa
0  1e-07 1 0

0111000
+18 0 *
Wi

0101100
+22 0 *
Ve
1e-07
-8.76734847049639e-15 347.965463447435 35.795416591137
0 0

0101101
*
Ed
 1e-07 1 1 0
1  4 0 0 6.28318530717959
2  7 4 0 0 6.28318530717959
2  8 5 0 0 6.28318530717959
0

0101000
+15 0 -15 0 *
Wi

0101100
-14 0 *
Fa
0  1e-07 2 0

0101000
+16 0 +13 0 *
Wi

0101100
+19 0 *
Ve
1e-07
-8.76734847049639e-15 0 35.795416591137
0 0

0101101
*
Ed
 1e-07 1 1 0
1  5 0 0 6.28318530717959
2  9 4 0 0 6.28318530717959
2  10 6 0 0 6.28318530717959
0

0101000
+10 0 -10 0 *
Wi

0101100
-9 0 *
Fa
0  1e-07 3 0

0101000
+11 0 +8 0 *
Ed
 1e-07 1 1 0
1  6 0 0 347.965463447435
3  11 12CN 4 0 0 347.965463447435
0

0101000
+10 0 -15 0 *
Wi

0101100
-14 0 +6 0 +9 0 -6 0 *
Fa
0  1e-07 4 0

0101000
+5 0 *
Sh

0101100
+17 0 +12 0 -7 0 -4 0 *
So

0100000
+3 0 *
Co

1100000
+2 0 *

+1 1 