DBRep_DrawableShape

CASCADE Topology V1, (c) Matra-Datavision
Locations 1
1
0.569640569245621 -0.749384947374914 -0.337537883084882 -22.8964515688251 
0.307672355195699 0.575251755385169 -0.757907078588539 -36.1552994935269 
0.762133415956719 0.327883544225964 0.558251769104195 -35.6228468819522 
Curve2ds 12
1 0 261.12825221667606 1 0 
2 0 0 1 0 -0 1 72.915089242885188
1 6.2831853071795862 -0 0 1 
1 0 -0 0 1 
1 0 0 1 0 
2 0 0 1 0 -0 1 72.915089242885188
1 0 261.12825221667606 1 0 
2 0 0 1 0 -0 1 68.916011281032311
1 0 0 1 0 
2 0 0 1 0 -0 1 68.916011281032311
1 6.2831853071795862 -0 0 1 
1 0 -0 0 1 
Curves 6
2 0 261.12825221667606 0 0 1 0 0 -0 1 1 0 -0 72.915089242885188
1 -1.7859046130168591e-14 0 72.915089242885188 0 1 0 
2 0 0 0 0 1 0 0 -0 1 1 0 -0 72.915089242885188
2 0 261.12825221667606 0 0 1 0 0 -0 1 1 0 -0 68.916011281032311
2 0 0 0 0 1 0 0 -0 1 1 0 -0 68.916011281032311
1 -1.6879554525063822e-14 0 68.916011281032311 0 1 0 
Polygon3D 0
PolygonOnTriangulations 0
Surfaces 6
2 0 0 0 0 1 0 0 -0 1 1 0 -0 72.915089242885188
1 0 261.12825221667606 0 0 1 0 0 -0 1 1 0 -0 
1 0 0 0 0 1 0 0 -0 1 1 0 -0 
2 0 0 0 0 1 0 0 -0 1 1 0 -0 68.916011281032311
1 0 261.12825221667606 0 0 1 0 0 -0 1 1 0 -0 
1 0 0 0 0 1 0 0 -0 1 1 0 -0 
Triangulations 0

TShapes 23
Ve
1e-07
-1.78590461301686e-14 261.128252216676 72.9150892428852
0 0

0101101
*
Ed
 1e-07 1 1 0
1  1 0 0 6.28318530717959
2  1 1 0 0 6.28318530717959
2  2 2 0 0 6.28318530717959
0

0101000
+23 0 -23 0 *
Ve
1e-07
-1.78590461301686e-14 0 72.9150892428852
0 0

0101101
*
Ed
 1e-07 1 1 0
1  2 0 0 261.128252216676
3  3 4CN 1 0 0 261.128252216676
0

0101000
-23 0 +21 0 *
Ed
 1e-07 1 1 0
1  3 0 0 6.28318530717959
2  5 1 0 0 6.28318530717959
2  6 3 0 0 6.28318530717959
0

0101000
+21 0 -21 0 *
Wi

0101100
-22 0 +20 0 +19 0 -20 0 *
Fa
0  1e-07 1 0

0111000
+18 0 *
Wi

0101100
+22 0 *
Ve
1e-07
-1.68795545250638e-14 261.128252216676 68.9160112810323
0 0

0101101
*
Ed
 1e-07 1 1 0
1  4 0 0 6.28318530717959
2  7 4 0 0 6.28318530717959
2  8 5 0 0 6.28318530717959
0

0101000
+15 0 -15 0 *
Wi

0101100
-14 0 *
Fa
0  1e-07 2 0

0101000
+16 0 +13 0 *
Wi

0101100
+19 0 *
Ve
1e-07
-1.68795545250638e-14 0 68.9160112810323
0 0

0101101
*
Ed
 1e-07 1 1 0
1  5 0 0 6.28318530717959
2  9 4 0 0 6.28318530717959
2  10 6 0 0 6.28318530717959
0

0101000
+10 0 -10 0 *
Wi

0101100
-9 0 *
Fa
0  1e-07 3 0

0101000
+11 0 +8 0 *
Ed
 1e-07 1 1 0
1  6 0 0 261.128252216676
3  11 12CN 4 0 0 261.128252216676
0

0101000
+10 0 -15 0 *
Wi

0101100
-14 0 +6 0 +9 0 -6 0 *
Fa
0  1e-07 4 0

0101000
+5 0 *
Sh

0101100
+17 0 +12 0 -7 0 -4 0 *
So

0100000
+3 0 *
Co

1100000
+2 0 *

+1 1 