DBRep_DrawableShape

CASCADE Topology V1, (c) Matra-Datavision
Locations 1
1
0.0396388788035045 0.694572930241285 -0.718329453567954 16.8849216389318 
-0.319359848823647 -0.672381115679581 -0.667767116768128 8.38178011682569 
-0.946804122427938 0.255875125507572 0.195166272444666 41.2138019878927 
Curve2ds 12
1 0 174.59574025770092 1 0 
2 0 0 1 0 -0 1 80.030633371307275
1 6.2831853071795862 -0 0 1 
1 0 -0 0 1 
1 0 0 1 0 
2 0 0 1 0 -0 1 80.030633371307275
1 0 174.59574025770092 1 0 
2 0 0 1 0 -0 1 65.771569385413031
1 0 0 1 0 
2 0 0 1 0 -0 1 65.771569385413031
1 6.2831853071795862 -0 0 1 
1 0 -0 0 1 
Curves 6
2 0 174.59574025770092 0 0 1 0 0 -0 1 1 0 -0 80.030633371307275
1 -1.9601851798381359e-14 0 80.030633371307275 0 1 0 
2 0 0 0 0 1 0 0 -0 1 1 0 -0 80.030633371307275
2 0 174.59574025770092 0 0 1 0 0 -0 1 1 0 -0 65.771569385413031
2 0 0 0 0 1 0 0 -0 1 1 0 -0 65.771569385413031
1 -1.6109388384548824e-14 0 65.771569385413031 0 1 0 
Polygon3D 0
PolygonOnTriangulations 0
Surfaces 6
2 0 0 0 0 1 0 0 -0 1 1 0 -0 80.030633371307275
1 0 174.59574025770092 0 0 1 0 0 -0 1 1 0 -0 
1 0 0 0 0 1 0 0 -0 1 1 0 -0 
2 0 0 0 0 1 0 0 -0 1 1 0 -0 65.771569385413031
1 0 174.59574025770092 0 0 1 0 0 -0 1 1 0 -0 
1 0 0 0 0 1 0 0 -0 1 1 0 -0 
Triangulations 0

TShapes 23
Ve
1e-07
-1.96018517983814e-14 174.595740257701 80.0306333713073
0 0

0101101
*
Ed
 1e-07 1 1 0
1  1 0 0 6.28318530717959
2  1 1 0 0 6.28318530717959
2  2 2 0 0 6.28318530717959
0

0101000
+23 0 -23 0 *
Ve
1e-07
-1.96018517983814e-14 0 80.0306333713073
0 0

0101101
*
Ed
 1e-07 1 1 0
1  2 0 0 174.595740257701
3  3 4CN 1 0 0 174.595740257701
0

0101000
-23 0 +21 0 *
Ed
 1e-07 1 1 0
1  3 0 0 6.28318530717959
2  5 1 0 0 6.28318530717959
2  6 3 0 0 6.28318530717959
0

0101000
+21 0 -21 0 *
Wi

0101100
-22 0 +20 0 +19 0 -20 0 *
Fa
0  1e-07 1 0

0111000
+18 0 *
Wi

0101100
+22 0 *
Ve
1e-07
-1.61093883845488e-14 174.595740257701 65.771569385413
0 0

0101101
*
Ed
 1e-07 1 1 0
1  4 0 0 6.28318530717959
2  7 4 0 0 6.28318530717959
2  8 5 0 0 6.28318530717959
0

0101000
+15 0 -15 0 *
Wi

0101100
-14 0 *
Fa
0  1e-07 2 0

0101000
+16 0 +13 0 *
Wi

0101100
+19 0 *
Ve
1e-07
-1.61093883845488e-14 0 65.771569385413
0 0

0101101
*
Ed
 1e-07 1 1 0
1  5 0 0 6.28318530717959
2  9 4 0 0 6.28318530717959
2  10 6 0 0 6.28318530717959
0

0101000
+10 0 -10 0 *
Wi

0101100
-9 0 *
Fa
0  1e-07 3 0

0101000
+11 0 +8 0 *
Ed
 1e-07 1 1 0
1  6 0 0 174.595740257701
3  11 12CN 4 0 0 174.595740257701
0

0101000
+10 0 -15 0 *
Wi

0101100
-14 0 +6 0 +9 0 -6 0 *
Fa
0  1e-07 4 0

0101000
+5 0 *
Sh

0101100
+17 0 +12 0 -7 0 -4 0 *
So

0100000
+3 0 *
Co

1100000
+2 0 *

+1 1 