DBRep_DrawableShape

CASCADE Topology V1, (c) Matra-Datavision
Locations 1
1
0.570736607235289 -0.0454445208863297 -0.819874698160007 -23.4650411336855 
0.00876779003311948 0.998747716197012 -0.0492557128583982 14.7713923969077 
0.821086384626786 0.0209235492368236 0.570420331043563 30.2072929443317 
Curve2ds 12
1 0 120.19763427609 1 0 
2 0 0 1 0 -0 1 72.586023338326527
1 6.2831853071795862 -0 0 1 
1 0 -0 0 1 
1 0 0 1 0 
2 0 0 1 0 -0 1 72.586023338326527
1 0 120.19763427609 1 0 
2 0 0 1 0 -0 1 62.804145325381697
1 0 0 1 0 
2 0 0 1 0 -0 1 62.804145325381697
1 6.2831853071795862 -0 0 1 
1 0 -0 0 1 
Curves 6
2 0 120.19763427609 0 0 1 0 0 -0 1 1 0 -0 72.586023338326527
1 -1.7778448228823333e-14 0 72.586023338326527 0 1 0 
2 0 0 0 0 1 0 0 -0 1 1 0 -0 72.586023338326527
2 0 120.19763427609 0 0 1 0 0 -0 1 1 0 -0 62.804145325381697
2 0 0 0 0 1 0 0 -0 1 1 0 -0 62.804145325381697
1 -1.5382579109182779e-14 0 62.804145325381697 0 1 0 
Polygon3D 0
PolygonOnTriangulations 0
Surfaces 6
2 0 0 0 0 1 0 0 -0 1 1 0 -0 72.586023338326527
1 0 120.19763427609 0 0 1 0 0 -0 1 1 0 -0 
1 0 0 0 0 1 0 0 -0 1 1 0 -0 
2 0 0 0 0 1 0 0 -0 1 1 0 -0 62.804145325381697
1 0 120.19763427609 0 0 1 0 0 -0 1 1 0 -0 
1 0 0 0 0 1 0 0 -0 1 1 0 -0 
Triangulations 0

TShapes 23
Ve
1e-07
-1.77784482288233e-14 120.19763427609 72.5860233383265
0 0

0101101
*
Ed
 1e-07 1 1 0
1  1 0 0 6.28318530717959
2  1 1 0 0 6.28318530717959
2  2 2 0 0 6.28318530717959
0

0101000
+23 0 -23 0 *
Ve
1e-07
-1.77784482288233e-14 0 72.5860233383265
0 0

0101101
*
Ed
 1e-07 1 1 0
1  2 0 0 120.19763427609
3  3 4CN 1 0 0 120.19763427609
0

0101000
-23 0 +21 0 *
Ed
 1e-07 1 1 0
1  3 0 0 6.28318530717959
2  5 1 0 0 6.28318530717959
2  6 3 0 0 6.28318530717959
0

0101000
+21 0 -21 0 *
Wi

0101100
-22 0 +20 0 +19 0 -20 0 *
Fa
0  1e-07 1 0

0111000
+18 0 *
Wi

0101100
+22 0 *
Ve
1e-07
-1.53825791091828e-14 120.19763427609 62.8041453253817
0 0

0101101
*
Ed
 1e-07 1 1 0
1  4 0 0 6.28318530717959
2  7 4 0 0 6.28318530717959
2  8 5 0 0 6.28318530717959
0

0101000
+15 0 -15 0 *
Wi

0101100
-14 0 *
Fa
0  1e-07 2 0

0101000
+16 0 +13 0 *
Wi

0101100
+19 0 *
Ve
1e-07
-1.53825791091828e-14 0 62.8041453253817
0 0

0101101
*
Ed
 1e-07 1 1 0
1  5 0 0 6.28318530717959
2  9 4 0 0 6.28318530717959
2  10 6 0 0 6.28318530717959
0

0101000
+10 0 -10 0 *
Wi

0101100
-9 0 *
Fa
0  1e-07 3 0

0101000
+11 0 +8 0 *
Ed
 1e-07 1 1 0
1  6 0 0 120.19763427609
3  11 12CN 4 0 0 120.19763427609
0

0101000
+10 0 -15 0 *
Wi

0101100
-14 0 +6 0 +9 0 -6 0 *
Fa
0  1e-07 4 0

0101000
+5 0 *
Sh

0101100
+17 0 +12 0 -7 0 -4 0 *
So

0100000
+3 0 *
Co

1100000
+2 0 *

+1 1 