DBRep_DrawableShape

CASCADE Topology V1, (c) Matra-Datavision
Locations 1
1
0.482157615955818 -0.406684756093486 -0.775971354198713 42.8980229440616 
0.466327484281346 0.868961619826243 -0.165663456057102 29.1706173426951 
0.741662127103463 -0.281980872454381 0.608624742177175 -17.7234939530851 
Curve2ds 12
1 0 323.92069271803882 1 0 
2 0 0 1 0 -0 1 83.55193332723583
1 6.2831853071795862 -0 0 1 
1 0 -0 0 1 
1 0 0 1 0 
2 0 0 1 0 -0 1 83.55193332723583
1 0 323.92069271803882 1 0 
2 0 0 1 0 -0 1 72.115611639297938
1 0 0 1 0 
2 0 0 1 0 -0 1 72.115611639297938
1 6.2831853071795862 -0 0 1 
1 0 -0 0 1 
Curves 6
2 0 323.92069271803882 0 0 1 0 0 -0 1 1 0 -0 83.55193332723583
1 -2.0464321542354485e-14 0 83.55193332723583 0 1 0 
2 0 0 0 0 1 0 0 -0 1 1 0 -0 83.55193332723583
2 0 323.92069271803882 0 0 1 0 0 -0 1 1 0 -0 72.115611639297938
2 0 0 0 0 1 0 0 -0 1 1 0 -0 72.115611639297938
1 -1.7663230592523965e-14 0 72.115611639297938 0 1 0 
Polygon3D 0
PolygonOnTriangulations 0
Surfaces 6
2 0 0 0 0 1 0 0 -0 1 1 0 -0 83.55193332723583
1 0 323.92069271803882 0 0 1 0 0 -0 1 1 0 -0 
1 0 0 0 0 1 0 0 -0 1 1 0 -0 
2 0 0 0 0 1 0 0 -0 1 1 0 -0 72.115611639297938
1 0 323.92069271803882 0 0 1 0 0 -0 1 1 0 -0 
1 0 0 0 0 1 0 0 -0 1 1 0 -0 
Triangulations 0

TShapes 23
Ve
1e-07
-2.04643215423545e-14 323.920692718039 83.5519333272358
0 0

0101101
*
Ed
 1e-07 1 1 0
1  1 0 0 6.28318530717959
2  1 1 0 0 6.28318530717959
2  2 2 0 0 6.28318530717959
0

0101000
+23 0 -23 0 *
Ve
1e-07
-2.04643215423545e-14 0 83.5519333272358
0 0

0101101
*
Ed
 1e-07 1 1 0
1  2 0 0 323.920692718039
3  3 4CN 1 0 0 323.920692718039
0

0101000
-23 0 +21 0 *
Ed
 1e-07 1 1 0
1  3 0 0 6.28318530717959
2  5 1 0 0 6.28318530717959
2  6 3 0 0 6.28318530717959
0

0101000
+21 0 -21 0 *
Wi

0101100
-22 0 +20 0 +19 0 -20 0 *
Fa
0  1e-07 1 0

0111000
+18 0 *
Wi

0101100
+22 0 *
Ve
1e-07
-1.7663230592524e-14 323.920692718039 72.1156116392979
0 0

0101101
*
Ed
 1e-07 1 1 0
1  4 0 0 6.28318530717959
2  7 4 0 0 6.28318530717959
2  8 5 0 0 6.28318530717959
0

0101000
+15 0 -15 0 *
Wi

0101100
-14 0 *
Fa
0  1e-07 2 0

0101000
+16 0 +13 0 *
Wi

0101100
+19 0 *
Ve
1e-07
-1.7663230592524e-14 0 72.1156116392979
0 0

0101101
*
Ed
 1e-07 1 1 0
1  5 0 0 6.28318530717959
2  9 4 0 0 6.28318530717959
2  10 6 0 0 6.28318530717959
0

0101000
+10 0 -10 0 *
Wi

0101100
-9 0 *
Fa
0  1e-07 3 0

0101000
+11 0 +8 0 *
Ed
 1e-07 1 1 0
1  6 0 0 323.920692718039
3  11 12CN 4 0 0 323.920692718039
0

0101000
+10 0 -15 0 *
Wi

0101100
-14 0 +6 0 +9 0 -6 0 *
Fa
0  1e-07 4 0

0101000
+5 0 *
Sh

0101100
+17 0 +12 0 -7 0 -4 0 *
So

0100000
+3 0 *
Co

1100000
+2 0 *

+1 1 