DBRep_DrawableShape

CASCADE Topology V1, (c) Matra-Datavision
Locations 1
1
0.132798280611067 0.0702785715626123 -0.988648339424015 25.1048048979063 
-0.92447813993694 0.368426842009014 -0.0979889323648342 -34.1294523831627 
0.3573580633559 0.926996539619422 0.113897454265391 -21.2462332238379 
Curve2ds 12
1 0 355.58548423647034 1 0 
2 0 0 1 0 -0 1 17.590637255598715
1 6.2831853071795862 -0 0 1 
1 0 -0 0 1 
1 0 0 1 0 
2 0 0 1 0 -0 1 17.590637255598715
1 0 355.58548423647034 1 0 
2 0 0 1 0 -0 1 3.6124781117016607
1 0 0 1 0 
2 0 0 1 0 -0 1 3.6124781117016607
1 6.2831853071795862 -0 0 1 
1 0 -0 0 1 
Curves 6
2 0 355.58548423647034 0 0 1 0 0 -0 1 1 0 -0 17.590637255598715
1 -4.3084635220062294e-15 0 17.590637255598715 0 1 0 
2 0 0 0 0 1 0 0 -0 1 1 0 -0 17.590637255598715
2 0 355.58548423647034 0 0 1 0 0 -0 1 1 0 -0 3.6124781117016607
2 0 0 0 0 1 0 0 -0 1 1 0 -0 3.6124781117016607
1 -8.848019512970627e-16 0 3.6124781117016607 0 1 0 
Polygon3D 0
PolygonOnTriangulations 0
Surfaces 6
2 0 0 0 0 1 0 0 -0 1 1 0 -0 17.590637255598715
1 0 355.58548423647034 0 0 1 0 0 -0 1 1 0 -0 
1 0 0 0 0 1 0 0 -0 1 1 0 -0 
2 0 0 0 0 1 0 0 -0 1 1 0 -0 3.6124781117016607
1 0 355.58548423647034 0 0 1 0 0 -0 1 1 0 -0 
1 0 0 0 0 1 0 0 -0 1 1 0 -0 
Triangulations 0

TShapes 23
Ve
1e-07
-4.30846352200623e-15 355.58548423647 17.5906372555987
0 0

0101101
*
Ed
 1e-07 1 1 0
1  1 0 0 6.28318530717959
2  1 1 0 0 6.28318530717959
2  2 2 0 0 6.28318530717959
0

0101000
+23 0 -23 0 *
Ve
1e-07
-4.30846352200623e-15 0 17.5906372555987
0 0

0101101
*
Ed
 1e-07 1 1 0
1  2 0 0 355.58548423647
3  3 4CN 1 0 0 355.58548423647
0

0101000
-23 0 +21 0 *
Ed
 1e-07 1 1 0
1  3 0 0 6.28318530717959
2  5 1 0 0 6.28318530717959
2  6 3 0 0 6.28318530717959
0

0101000
+21 0 -21 0 *
Wi

0101100
-22 0 +20 0 +19 0 -20 0 *
Fa
0  1e-07 1 0

0111000
+18 0 *
Wi

0101100
+22 0 *
Ve
1e-07
-8.84801951297063e-16 355.58548423647 3.61247811170166
0 0

0101101
*
Ed
 1e-07 1 1 0
1  4 0 0 6.28318530717959
2  7 4 0 0 6.28318530717959
2  8 5 0 0 6.28318530717959
0

0101000
+15 0 -15 0 *
Wi

0101100
-14 0 *
Fa
0  1e-07 2 0

0101000
+16 0 +13 0 *
Wi

0101100
+19 0 *
Ve
1e-07
-8.84801951297063e-16 0 3.61247811170166
0 0

0101101
*
Ed
 1e-07 1 1 0
1  5 0 0 6.28318530717959
2  9 4 0 0 6.28318530717959
2  10 6 0 0 6.28318530717959
0

0101000
+10 0 -10 0 *
Wi

0101100
-9 0 *
Fa
0  1e-07 3 0

0101000
+11 0 +8 0 *
Ed
 1e-07 1 1 0
1  6 0 0 355.58548423647
3  11 12CN 4 0 0 355.58548423647
0

0101000
+10 0 -15 0 *
Wi

0101100
-14 0 +6 0 +9 0 -6 0 *
Fa
0  1e-07 4 0

0101000
+5 0 *
Sh

0101100
+17 0 +12 0 -7 0 -4 0 *
So

0100000
+3 0 *
Co

1100000
+2 0 *

+1 1 