DBRep_DrawableShape

CASCADE Topology V1, (c) Matra-Datavision
Locations 1
1
0.853832030280371 -0.48250152593193 0.195353887958902 -17.9516596382964 
0.473832888998301 0.875784506949527 0.0921080381437922 -7.22890914673992 
-0.215530177401736 0.0139203038951612 0.976397955635223 -1.78942858706126 
Curve2ds 12
1 0 161.45685819750997 1 0 
2 0 0 1 0 -0 1 32.623309883904994
1 6.2831853071795862 -0 0 1 
1 0 -0 0 1 
1 0 0 1 0 
2 0 0 1 0 -0 1 32.623309883904994
1 0 161.45685819750997 1 0 
2 0 0 1 0 -0 1 22.987019117634624
1 0 0 1 0 
2 0 0 1 0 -0 1 22.987019117634624
1 6.2831853071795862 -0 0 1 
1 0 -0 0 1 
Curves 6
2 0 161.45685819750997 0 0 1 0 0 -0 1 1 0 -0 32.623309883904994
1 -7.9904064053832928e-15 0 32.623309883904994 0 1 0 
2 0 0 0 0 1 0 0 -0 1 1 0 -0 32.623309883904994
2 0 161.45685819750997 0 0 1 0 0 -0 1 1 0 -0 22.987019117634624
2 0 0 0 0 1 0 0 -0 1 1 0 -0 22.987019117634624
1 -5.6301958768700514e-15 0 22.987019117634624 0 1 0 
Polygon3D 0
PolygonOnTriangulations 0
Surfaces 6
2 0 0 0 0 1 0 0 -0 1 1 0 -0 32.623309883904994
1 0 161.45685819750997 0 0 1 0 0 -0 1 1 0 -0 
1 0 0 0 0 1 0 0 -0 1 1 0 -0 
2 0 0 0 0 1 0 0 -0 1 1 0 -0 22.987019117634624
1 0 161.45685819750997 0 0 1 0 0 -0 1 1 0 -0 
1 0 0 0 0 1 0 0 -0 1 1 0 -0 
Triangulations 0

TShapes 23
Ve
1e-07
-7.99040640538329e-15 161.45685819751 32.623309883905
0 0

0101101
*
Ed
 1e-07 1 1 0
1  1 0 0 6.28318530717959
2  1 1 0 0 6.28318530717959
2  2 2 0 0 6.28318530717959
0

0101000
+23 0 -23 0 *
Ve
1e-07
-7.99040640538329e-15 0 32.623309883905
0 0

0101101
*
Ed
 1e-07 1 1 0
1  2 0 0 161.45685819751
3  3 4CN 1 0 0 161.45685819751
0

0101000
-23 0 +21 0 *
Ed
 1e-07 1 1 0
1  3 0 0 6.28318530717959
2  5 1 0 0 6.28318530717959
2  6 3 0 0 6.28318530717959
0

0101000
+21 0 -21 0 *
Wi

0101100
-22 0 +20 0 +19 0 -20 0 *
Fa
0  1e-07 1 0

0111000
+18 0 *
Wi

0101100
+22 0 *
Ve
1e-07
-5.63019587687005e-15 161.45685819751 22.9870191176346
0 0

0101101
*
Ed
 1e-07 1 1 0
1  4 0 0 6.28318530717959
2  7 4 0 0 6.28318530717959
2  8 5 0 0 6.28318530717959
0

0101000
+15 0 -15 0 *
Wi

0101100
-14 0 *
Fa
0  1e-07 2 0

0101000
+16 0 +13 0 *
Wi

0101100
+19 0 *
Ve
1e-07
-5.63019587687005e-15 0 22.9870191176346
0 0

0101101
*
Ed
 1e-07 1 1 0
1  5 0 0 6.28318530717959
2  9 4 0 0 6.28318530717959
2  10 6 0 0 6.28318530717959
0

0101000
+10 0 -10 0 *
Wi

0101100
-9 0 *
Fa
0  1e-07 3 0

0101000
+11 0 +8 0 *
Ed
 1e-07 1 1 0
1  6 0 0 161.45685819751
3  11 12CN 4 0 0 161.45685819751
0

0101000
+10 0 -15 0 *
Wi

0101100
-14 0 +6 0 +9 0 -6 0 *
Fa
0  1e-07 4 0

0101000
+5 0 *
Sh

0101100
+17 0 +12 0 -7 0 -4 0 *
So

0100000
+3 0 *
Co

1100000
+2 0 *

+1 1 