DBRep_DrawableShape

CASCADE Topology V1, (c) Matra-Datavision
Locations 1
1
0.937687095674918 -0.19799756199271 -0.285551879786634 -12.1930359937686 
0.345268813934451  0.623477986775 0.701473197015603 -16.2337118142809 
0.0391453283168658 -0.756354523654044 0.652989646027431 -6.77666083815451 
Curve2ds 12
1 0 397.9518481401679 1 0 
2 0 0 1 0 -0 1 42.069051341213097
1 6.2831853071795862 -0 0 1 
1 0 -0 0 1 
1 0 0 1 0 
2 0 0 1 0 -0 1 42.069051341213097
1 0 397.9518481401679 1 0 
2 0 0 1 0 -0 1 27.605668827923203
1 0 0 1 0 
2 0 0 1 0 -0 1 27.605668827923203
1 6.2831853071795862 -0 0 1 
1 0 -0 0 1 
Curves 6
2 0 397.9518481401679 0 0 1 0 0 -0 1 1 0 -0 42.069051341213097
1 -1.0303945813636457e-14 0 42.069051341213097 0 1 0 
2 0 0 0 0 1 0 0 -0 1 1 0 -0 42.069051341213097
2 0 397.9518481401679 0 0 1 0 0 -0 1 1 0 -0 27.605668827923203
2 0 0 0 0 1 0 0 -0 1 1 0 -0 27.605668827923203
1 -6.7614387936876036e-15 0 27.605668827923203 0 1 0 
Polygon3D 0
PolygonOnTriangulations 0
Surfaces 6
2 0 0 0 0 1 0 0 -0 1 1 0 -0 42.069051341213097
1 0 397.9518481401679 0 0 1 0 0 -0 1 1 0 -0 
1 0 0 0 0 1 0 0 -0 1 1 0 -0 
2 0 0 0 0 1 0 0 -0 1 1 0 -0 27.605668827923203
1 0 397.9518481401679 0 0 1 0 0 -0 1 1 0 -0 
1 0 0 0 0 1 0 0 -0 1 1 0 -0 
Triangulations 0

TShapes 23
Ve
1e-07
-1.03039458136365e-14 397.951848140168 42.0690513412131
0 0

0101101
*
Ed
 1e-07 1 1 0
1  1 0 0 6.28318530717959
2  1 1 0 0 6.28318530717959
2  2 2 0 0 6.28318530717959
0

0101000
+23 0 -23 0 *
Ve
1e-07
-1.03039458136365e-14 0 42.0690513412131
0 0

0101101
*
Ed
 1e-07 1 1 0
1  2 0 0 397.951848140168
3  3 4CN 1 0 0 397.951848140168
0

0101000
-23 0 +21 0 *
Ed
 1e-07 1 1 0
1  3 0 0 6.28318530717959
2  5 1 0 0 6.28318530717959
2  6 3 0 0 6.28318530717959
0

0101000
+21 0 -21 0 *
Wi

0101100
-22 0 +20 0 +19 0 -20 0 *
Fa
0  1e-07 1 0

0111000
+18 0 *
Wi

0101100
+22 0 *
Ve
1e-07
-6.7614387936876e-15 397.951848140168 27.6056688279232
0 0

0101101
*
Ed
 1e-07 1 1 0
1  4 0 0 6.28318530717959
2  7 4 0 0 6.28318530717959
2  8 5 0 0 6.28318530717959
0

0101000
+15 0 -15 0 *
Wi

0101100
-14 0 *
Fa
0  1e-07 2 0

0101000
+16 0 +13 0 *
Wi

0101100
+19 0 *
Ve
1e-07
-6.7614387936876e-15 0 27.6056688279232
0 0

0101101
*
Ed
 1e-07 1 1 0
1  5 0 0 6.28318530717959
2  9 4 0 0 6.28318530717959
2  10 6 0 0 6.28318530717959
0

0101000
+10 0 -10 0 *
Wi

0101100
-9 0 *
Fa
0  1e-07 3 0

0101000
+11 0 +8 0 *
Ed
 1e-07 1 1 0
1  6 0 0 397.951848140168
3  11 12CN 4 0 0 397.951848140168
0

0101000
+10 0 -15 0 *
Wi

0101100
-14 0 +6 0 +9 0 -6 0 *
Fa
0  1e-07 4 0

0101000
+5 0 *
Sh

0101100
+17 0 +12 0 -7 0 -4 0 *
So

0100000
+3 0 *
Co

1100000
+2 0 *

+1 1 