DBRep_DrawableShape

CASCADE Topology V1, (c) Matra-Datavision
Locations 1
1
0.602480678450309 0.202485218001364 0.772021222885093 40.1640659124804 
0.0966422299392003 0.941658496669261 -0.322396580383487 -44.946565025937 
-0.792260886000586 0.268847563019507 0.547762426944418 40.2742953340241 
Curve2ds 12
1 0 129.01405194524077 1 0 
2 0 0 1 0 -0 1 68.683674997910686
1 6.2831853071795862 -0 0 1 
1 0 -0 0 1 
1 0 0 1 0 
2 0 0 1 0 -0 1 68.683674997910686
1 0 129.01405194524077 1 0 
2 0 0 1 0 -0 1 63.073627983929235
1 0 0 1 0 
2 0 0 1 0 -0 1 63.073627983929235
1 6.2831853071795862 -0 0 1 
1 0 -0 0 1 
Curves 6
2 0 129.01405194524077 0 0 1 0 0 -0 1 1 0 -0 68.683674997910686
1 -1.6822648547973684e-14 0 68.683674997910686 0 1 0 
2 0 0 0 0 1 0 0 -0 1 1 0 -0 68.683674997910686
2 0 129.01405194524077 0 0 1 0 0 -0 1 1 0 -0 63.073627983929235
2 0 0 0 0 1 0 0 -0 1 1 0 -0 63.073627983929235
1 -1.5448583324225971e-14 0 63.073627983929235 0 1 0 
Polygon3D 0
PolygonOnTriangulations 0
Surfaces 6
2 0 0 0 0 1 0 0 -0 1 1 0 -0 68.683674997910686
1 0 129.01405194524077 0 0 1 0 0 -0 1 1 0 -0 
1 0 0 0 0 1 0 0 -0 1 1 0 -0 
2 0 0 0 0 1 0 0 -0 1 1 0 -0 63.073627983929235
1 0 129.01405194524077 0 0 1 0 0 -0 1 1 0 -0 
1 0 0 0 0 1 0 0 -0 1 1 0 -0 
Triangulations 0

TShapes 23
Ve
1e-07
-1.68226485479737e-14 129.014051945241 68.6836749979107
0 0

0101101
*
Ed
 1e-07 1 1 0
1  1 0 0 6.28318530717959
2  1 1 0 0 6.28318530717959
2  2 2 0 0 6.28318530717959
0

0101000
+23 0 -23 0 *
Ve
1e-07
-1.68226485479737e-14 0 68.6836749979107
0 0

0101101
*
Ed
 1e-07 1 1 0
1  2 0 0 129.014051945241
3  3 4CN 1 0 0 129.014051945241
0

0101000
-23 0 +21 0 *
Ed
 1e-07 1 1 0
1  3 0 0 6.28318530717959
2  5 1 0 0 6.28318530717959
2  6 3 0 0 6.28318530717959
0

0101000
+21 0 -21 0 *
Wi

0101100
-22 0 +20 0 +19 0 -20 0 *
Fa
0  1e-07 1 0

0111000
+18 0 *
Wi

0101100
+22 0 *
Ve
1e-07
-1.5448583324226e-14 129.014051945241 63.0736279839292
0 0

0101101
*
Ed
 1e-07 1 1 0
1  4 0 0 6.28318530717959
2  7 4 0 0 6.28318530717959
2  8 5 0 0 6.28318530717959
0

0101000
+15 0 -15 0 *
Wi

0101100
-14 0 *
Fa
0  1e-07 2 0

0101000
+16 0 +13 0 *
Wi

0101100
+19 0 *
Ve
1e-07
-1.5448583324226e-14 0 63.0736279839292
0 0

0101101
*
Ed
 1e-07 1 1 0
1  5 0 0 6.28318530717959
2  9 4 0 0 6.28318530717959
2  10 6 0 0 6.28318530717959
0

0101000
+10 0 -10 0 *
Wi

0101100
-9 0 *
Fa
0  1e-07 3 0

0101000
+11 0 +8 0 *
Ed
 1e-07 1 1 0
1  6 0 0 129.014051945241
3  11 12CN 4 0 0 129.014051945241
0

0101000
+10 0 -15 0 *
Wi

0101100
-14 0 +6 0 +9 0 -6 0 *
Fa
0  1e-07 4 0

0101000
+5 0 *
Sh

0101100
+17 0 +12 0 -7 0 -4 0 *
So

0100000
+3 0 *
Co

1100000
+2 0 *

+1 1 