DBRep_DrawableShape

CASCADE Topology V1, (c) Matra-Datavision
Locations 1
1
0.131454968038754 -0.956362671320597 0.260940668126804 11.2711264248255 
0.638374282500258 -0.119715292880242 -0.760359470311825 -14.4790894404992 
0.758418002700497 0.266530841658391 0.594780164114994 -7.81236140086755 
Curve2ds 12
1 0 57.408767936401887 1 0 
2 0 0 1 0 -0 1 29.71659203094822
1 6.2831853071795862 -0 0 1 
1 0 -0 0 1 
1 0 0 1 0 
2 0 0 1 0 -0 1 29.71659203094822
1 0 57.408767936401887 1 0 
2 0 0 1 0 -0 1 18.033197289534193
1 0 0 1 0 
2 0 0 1 0 -0 1 18.033197289534193
1 6.2831853071795862 -0 0 1 
1 0 -0 0 1 
Curves 6
2 0 57.408767936401887 0 0 1 0 0 -0 1 1 0 -0 29.71659203094822
1 -7.2784658624536967e-15 0 29.71659203094822 0 1 0 
2 0 0 0 0 1 0 0 -0 1 1 0 -0 29.71659203094822
2 0 57.408767936401887 0 0 1 0 0 -0 1 1 0 -0 18.033197289534193
2 0 0 0 0 1 0 0 -0 1 1 0 -0 18.033197289534193
1 -4.416859467804155e-15 0 18.033197289534193 0 1 0 
Polygon3D 0
PolygonOnTriangulations 0
Surfaces 6
2 0 0 0 0 1 0 0 -0 1 1 0 -0 29.71659203094822
1 0 57.408767936401887 0 0 1 0 0 -0 1 1 0 -0 
1 0 0 0 0 1 0 0 -0 1 1 0 -0 
2 0 0 0 0 1 0 0 -0 1 1 0 -0 18.033197289534193
1 0 57.408767936401887 0 0 1 0 0 -0 1 1 0 -0 
1 0 0 0 0 1 0 0 -0 1 1 0 -0 
Triangulations 0

TShapes 23
Ve
1e-07
-7.2784658624537e-15 57.4087679364019 29.7165920309482
0 0

0101101
*
Ed
 1e-07 1 1 0
1  1 0 0 6.28318530717959
2  1 1 0 0 6.28318530717959
2  2 2 0 0 6.28318530717959
0

0101000
+23 0 -23 0 *
Ve
1e-07
-7.2784658624537e-15 0 29.7165920309482
0 0

0101101
*
Ed
 1e-07 1 1 0
1  2 0 0 57.4087679364019
3  3 4CN 1 0 0 57.4087679364019
0

0101000
-23 0 +21 0 *
Ed
 1e-07 1 1 0
1  3 0 0 6.28318530717959
2  5 1 0 0 6.28318530717959
2  6 3 0 0 6.28318530717959
0

0101000
+21 0 -21 0 *
Wi

0101100
-22 0 +20 0 +19 0 -20 0 *
Fa
0  1e-07 1 0

0111000
+18 0 *
Wi

0101100
+22 0 *
Ve
1e-07
-4.41685946780416e-15 57.4087679364019 18.0331972895342
0 0

0101101
*
Ed
 1e-07 1 1 0
1  4 0 0 6.28318530717959
2  7 4 0 0 6.28318530717959
2  8 5 0 0 6.28318530717959
0

0101000
+15 0 -15 0 *
Wi

0101100
-14 0 *
Fa
0  1e-07 2 0

0101000
+16 0 +13 0 *
Wi

0101100
+19 0 *
Ve
1e-07
-4.41685946780416e-15 0 18.0331972895342
0 0

0101101
*
Ed
 1e-07 1 1 0
1  5 0 0 6.28318530717959
2  9 4 0 0 6.28318530717959
2  10 6 0 0 6.28318530717959
0

0101000
+10 0 -10 0 *
Wi

0101100
-9 0 *
Fa
0  1e-07 3 0

0101000
+11 0 +8 0 *
Ed
 1e-07 1 1 0
1  6 0 0 57.4087679364019
3  11 12CN 4 0 0 57.4087679364019
0

0101000
+10 0 -15 0 *
Wi

0101100
-14 0 +6 0 +9 0 -6 0 *
Fa
0  1e-07 4 0

0101000
+5 0 *
Sh

0101100
+17 0 +12 0 -7 0 -4 0 *
So

0100000
+3 0 *
Co

1100000
+2 0 *

+1 1 