DBRep_DrawableShape

CASCADE Topology V1, (c) Matra-Datavision
Locations 1
1
0.41968374377422 -0.625526119451485 -0.657710140636148 -0.446443576491419 
0.527074056708644 -0.421975208747827 0.737651585741481 19.3368738771546 
-0.738957707826604 -0.656242331068482 0.152602453969314 -12.9417334105961 
Curve2ds 12
1 0 161.81758619777133 1 0 
2 0 0 1 0 -0 1 24.441584491077254
1 6.2831853071795862 -0 0 1 
1 0 -0 0 1 
1 0 0 1 0 
2 0 0 1 0 -0 1 24.441584491077254
1 0 161.81758619777133 1 0 
2 0 0 1 0 -0 1 18.539043143884236
1 0 0 1 0 
2 0 0 1 0 -0 1 18.539043143884236
1 6.2831853071795862 -0 0 1 
1 0 -0 0 1 
Curves 6
2 0 161.81758619777133 0 0 1 0 0 -0 1 1 0 -0 24.441584491077254
1 -5.98646164261747e-15 0 24.441584491077254 0 1 0 
2 0 0 0 0 1 0 0 -0 1 1 0 -0 24.441584491077254
2 0 161.81758619777133 0 0 1 0 0 -0 1 1 0 -0 18.539043143884236
2 0 0 0 0 1 0 0 -0 1 1 0 -0 18.539043143884236
1 -4.5407559690825027e-15 0 18.539043143884236 0 1 0 
Polygon3D 0
PolygonOnTriangulations 0
Surfaces 6
2 0 0 0 0 1 0 0 -0 1 1 0 -0 24.441584491077254
1 0 161.81758619777133 0 0 1 0 0 -0 1 1 0 -0 
1 0 0 0 0 1 0 0 -0 1 1 0 -0 
2 0 0 0 0 1 0 0 -0 1 1 0 -0 18.539043143884236
1 0 161.81758619777133 0 0 1 0 0 -0 1 1 0 -0 
1 0 0 0 0 1 0 0 -0 1 1 0 -0 
Triangulations 0

TShapes 23
Ve
1e-07
-5.98646164261747e-15 161.817586197771 24.4415844910773
0 0

0101101
*
Ed
 1e-07 1 1 0
1  1 0 0 6.28318530717959
2  1 1 0 0 6.28318530717959
2  2 2 0 0 6.28318530717959
0

0101000
+23 0 -23 0 *
Ve
1e-07
-5.98646164261747e-15 0 24.4415844910773
0 0

0101101
*
Ed
 1e-07 1 1 0
1  2 0 0 161.817586197771
3  3 4CN 1 0 0 161.817586197771
0

0101000
-23 0 +21 0 *
Ed
 1e-07 1 1 0
1  3 0 0 6.28318530717959
2  5 1 0 0 6.28318530717959
2  6 3 0 0 6.28318530717959
0

0101000
+21 0 -21 0 *
Wi

0101100
-22 0 +20 0 +19 0 -20 0 *
Fa
0  1e-07 1 0

0111000
+18 0 *
Wi

0101100
+22 0 *
Ve
1e-07
-4.5407559690825e-15 161.817586197771 18.5390431438842
0 0

0101101
*
Ed
 1e-07 1 1 0
1  4 0 0 6.28318530717959
2  7 4 0 0 6.28318530717959
2  8 5 0 0 6.28318530717959
0

0101000
+15 0 -15 0 *
Wi

0101100
-14 0 *
Fa
0  1e-07 2 0

0101000
+16 0 +13 0 *
Wi

0101100
+19 0 *
Ve
1e-07
-4.5407559690825e-15 0 18.5390431438842
0 0

0101101
*
Ed
 1e-07 1 1 0
1  5 0 0 6.28318530717959
2  9 4 0 0 6.28318530717959
2  10 6 0 0 6.28318530717959
0

0101000
+10 0 -10 0 *
Wi

0101100
-9 0 *
Fa
0  1e-07 3 0

0101000
+11 0 +8 0 *
Ed
 1e-07 1 1 0
1  6 0 0 161.817586197771
3  11 12CN 4 0 0 161.817586197771
0

0101000
+10 0 -15 0 *
Wi

0101100
-14 0 +6 0 +9 0 -6 0 *
Fa
0  1e-07 4 0

0101000
+5 0 *
Sh

0101100
+17 0 +12 0 -7 0 -4 0 *
So

0100000
+3 0 *
Co

1100000
+2 0 *

+1 1 