DBRep_DrawableShape

CASCADE Topology V1, (c) Matra-Datavision
Locations 1
1
0.0699003707492454 -0.8358287359958 0.544522049372457 -1.87417657692927 
0.996112158896483 0.0291457715129603 -0.0831329712057847 -34.700057490723 
0.0536144110077278 0.548216059675906 0.834616466915024 -20.9840168548295 
Curve2ds 12
1 0 139.86234860716468 1 0 
2 0 0 1 0 -0 1 34.020747154054682
1 6.2831853071795862 -0 0 1 
1 0 -0 0 1 
1 0 0 1 0 
2 0 0 1 0 -0 1 34.020747154054682
1 0 139.86234860716468 1 0 
2 0 0 1 0 -0 1 23.269304015660374
1 0 0 1 0 
2 0 0 1 0 -0 1 23.269304015660374
1 6.2831853071795862 -0 0 1 
1 0 -0 0 1 
Curves 6
2 0 139.86234860716468 0 0 1 0 0 -0 1 1 0 -0 34.020747154054682
1 -8.3326798213628988e-15 0 34.020747154054682 0 1 0 
2 0 0 0 0 1 0 0 -0 1 1 0 -0 34.020747154054682
2 0 139.86234860716468 0 0 1 0 0 -0 1 1 0 -0 23.269304015660374
2 0 0 0 0 1 0 0 -0 1 1 0 -0 23.269304015660374
1 -5.6993357362330259e-15 0 23.269304015660374 0 1 0 
Polygon3D 0
PolygonOnTriangulations 0
Surfaces 6
2 0 0 0 0 1 0 0 -0 1 1 0 -0 34.020747154054682
1 0 139.86234860716468 0 0 1 0 0 -0 1 1 0 -0 
1 0 0 0 0 1 0 0 -0 1 1 0 -0 
2 0 0 0 0 1 0 0 -0 1 1 0 -0 23.269304015660374
1 0 139.86234860716468 0 0 1 0 0 -0 1 1 0 -0 
1 0 0 0 0 1 0 0 -0 1 1 0 -0 
Triangulations 0

TShapes 23
Ve
1e-07
-8.3326798213629e-15 139.862348607165 34.0207471540547
0 0

0101101
*
Ed
 1e-07 1 1 0
1  1 0 0 6.28318530717959
2  1 1 0 0 6.28318530717959
2  2 2 0 0 6.28318530717959
0

0101000
+23 0 -23 0 *
Ve
1e-07
-8.3326798213629e-15 0 34.0207471540547
0 0

0101101
*
Ed
 1e-07 1 1 0
1  2 0 0 139.862348607165
3  3 4CN 1 0 0 139.862348607165
0

0101000
-23 0 +21 0 *
Ed
 1e-07 1 1 0
1  3 0 0 6.28318530717959
2  5 1 0 0 6.28318530717959
2  6 3 0 0 6.28318530717959
0

0101000
+21 0 -21 0 *
Wi

0101100
-22 0 +20 0 +19 0 -20 0 *
Fa
0  1e-07 1 0

0111000
+18 0 *
Wi

0101100
+22 0 *
Ve
1e-07
-5.69933573623303e-15 139.862348607165 23.2693040156604
0 0

0101101
*
Ed
 1e-07 1 1 0
1  4 0 0 6.28318530717959
2  7 4 0 0 6.28318530717959
2  8 5 0 0 6.28318530717959
0

0101000
+15 0 -15 0 *
Wi

0101100
-14 0 *
Fa
0  1e-07 2 0

0101000
+16 0 +13 0 *
Wi

0101100
+19 0 *
Ve
1e-07
-5.69933573623303e-15 0 23.2693040156604
0 0

0101101
*
Ed
 1e-07 1 1 0
1  5 0 0 6.28318530717959
2  9 4 0 0 6.28318530717959
2  10 6 0 0 6.28318530717959
0

0101000
+10 0 -10 0 *
Wi

0101100
-9 0 *
Fa
0  1e-07 3 0

0101000
+11 0 +8 0 *
Ed
 1e-07 1 1 0
1  6 0 0 139.862348607165
3  11 12CN 4 0 0 139.862348607165
0

0101000
+10 0 -15 0 *
Wi

0101100
-14 0 +6 0 +9 0 -6 0 *
Fa
0  1e-07 4 0

0101000
+5 0 *
Sh

0101100
+17 0 +12 0 -7 0 -4 0 *
So

0100000
+3 0 *
Co

1100000
+2 0 *

+1 1 