DBRep_DrawableShape

CASCADE Topology V1, (c) Matra-Datavision
Locations 1
1
0.432860081295891 -0.835265645683807 0.339062606550659 7.71049987814387 
0.309101301639232 -0.215799149782832 -0.926221956270709 24.7411258677059 
0.846810802567756 0.505729204311378 0.164770860776818 15.9273731329785 
Curve2ds 12
1 0 304.93658170682824 1 0 
2 0 0 1 0 -0 1 52.776890489106819
1 6.2831853071795862 -0 0 1 
1 0 -0 0 1 
1 0 0 1 0 
2 0 0 1 0 -0 1 52.776890489106819
1 0 304.93658170682824 1 0 
2 0 0 1 0 -0 1 48.918564368253016
1 0 0 1 0 
2 0 0 1 0 -0 1 48.918564368253016
1 6.2831853071795862 -0 0 1 
1 0 -0 0 1 
Curves 6
2 0 304.93658170682824 0 0 1 0 0 -0 1 1 0 -0 52.776890489106819
1 -1.292661000128701e-14 0 52.776890489106819 0 1 0 
2 0 0 0 0 1 0 0 -0 1 1 0 -0 52.776890489106819
2 0 304.93658170682824 0 0 1 0 0 -0 1 1 0 -0 48.918564368253016
2 0 0 0 0 1 0 0 -0 1 1 0 -0 48.918564368253016
1 -1.1981592654492964e-14 0 48.918564368253016 0 1 0 
Polygon3D 0
PolygonOnTriangulations 0
Surfaces 6
2 0 0 0 0 1 0 0 -0 1 1 0 -0 52.776890489106819
1 0 304.93658170682824 0 0 1 0 0 -0 1 1 0 -0 
1 0 0 0 0 1 0 0 -0 1 1 0 -0 
2 0 0 0 0 1 0 0 -0 1 1 0 -0 48.918564368253016
1 0 304.93658170682824 0 0 1 0 0 -0 1 1 0 -0 
1 0 0 0 0 1 0 0 -0 1 1 0 -0 
Triangulations 0

TShapes 23
Ve
1e-07
-1.2926610001287e-14 304.936581706828 52.7768904891068
0 0

0101101
*
Ed
 1e-07 1 1 0
1  1 0 0 6.28318530717959
2  1 1 0 0 6.28318530717959
2  2 2 0 0 6.28318530717959
0

0101000
+23 0 -23 0 *
Ve
1e-07
-1.2926610001287e-14 0 52.7768904891068
0 0

0101101
*
Ed
 1e-07 1 1 0
1  2 0 0 304.936581706828
3  3 4CN 1 0 0 304.936581706828
0

0101000
-23 0 +21 0 *
Ed
 1e-07 1 1 0
1  3 0 0 6.28318530717959
2  5 1 0 0 6.28318530717959
2  6 3 0 0 6.28318530717959
0

0101000
+21 0 -21 0 *
Wi

0101100
-22 0 +20 0 +19 0 -20 0 *
Fa
0  1e-07 1 0

0111000
+18 0 *
Wi

0101100
+22 0 *
Ve
1e-07
-1.1981592654493e-14 304.936581706828 48.918564368253
0 0

0101101
*
Ed
 1e-07 1 1 0
1  4 0 0 6.28318530717959
2  7 4 0 0 6.28318530717959
2  8 5 0 0 6.28318530717959
0

0101000
+15 0 -15 0 *
Wi

0101100
-14 0 *
Fa
0  1e-07 2 0

0101000
+16 0 +13 0 *
Wi

0101100
+19 0 *
Ve
1e-07
-1.1981592654493e-14 0 48.918564368253
0 0

0101101
*
Ed
 1e-07 1 1 0
1  5 0 0 6.28318530717959
2  9 4 0 0 6.28318530717959
2  10 6 0 0 6.28318530717959
0

0101000
+10 0 -10 0 *
Wi

0101100
-9 0 *
Fa
0  1e-07 3 0

0101000
+11 0 +8 0 *
Ed
 1e-07 1 1 0
1  6 0 0 304.936581706828
3  11 12CN 4 0 0 304.936581706828
0

0101000
+10 0 -15 0 *
Wi

0101100
-14 0 +6 0 +9 0 -6 0 *
Fa
0  1e-07 4 0

0101000
+5 0 *
Sh

0101100
+17 0 +12 0 -7 0 -4 0 *
So

0100000
+3 0 *
Co

1100000
+2 0 *

+1 1 