DBRep_DrawableShape

CASCADE Topology V1, (c) Matra-Datavision
Locations 1
1
0.179140774419553 -0.650170926266137 -0.738367354085076 45.2389191447561 
0.980892778536936 0.060148804654706 0.185017508124773 20.2244524272855 
-0.075881090888661 -0.757403385216124 0.648523069835378 -23.3308009157633 
Curve2ds 12
1 0 463.99076782713684 1 0 
2 0 0 1 0 -0 1 75.73663208015536
1 6.2831853071795862 -0 0 1 
1 0 -0 0 1 
1 0 0 1 0 
2 0 0 1 0 -0 1 75.73663208015536
1 0 463.99076782713684 1 0 
2 0 0 1 0 -0 1 64.180366386094988
1 0 0 1 0 
2 0 0 1 0 -0 1 64.180366386094988
1 6.2831853071795862 -0 0 1 
1 0 -0 0 1 
Curves 6
2 0 463.99076782713684 0 0 1 0 0 -0 1 1 0 -0 75.73663208015536
1 -1.8550124811032602e-14 0 75.73663208015536 0 1 0 
2 0 0 0 0 1 0 0 -0 1 1 0 -0 75.73663208015536
2 0 463.99076782713684 0 0 1 0 0 -0 1 1 0 -0 64.180366386094988
2 0 0 0 0 1 0 0 -0 1 1 0 -0 64.180366386094988
1 -1.5719656052567122e-14 0 64.180366386094988 0 1 0 
Polygon3D 0
PolygonOnTriangulations 0
Surfaces 6
2 0 0 0 0 1 0 0 -0 1 1 0 -0 75.73663208015536
1 0 463.99076782713684 0 0 1 0 0 -0 1 1 0 -0 
1 0 0 0 0 1 0 0 -0 1 1 0 -0 
2 0 0 0 0 1 0 0 -0 1 1 0 -0 64.180366386094988
1 0 463.99076782713684 0 0 1 0 0 -0 1 1 0 -0 
1 0 0 0 0 1 0 0 -0 1 1 0 -0 
Triangulations 0

TShapes 23
Ve
1e-07
-1.85501248110326e-14 463.990767827137 75.7366320801554
0 0

0101101
*
Ed
 1e-07 1 1 0
1  1 0 0 6.28318530717959
2  1 1 0 0 6.28318530717959
2  2 2 0 0 6.28318530717959
0

0101000
+23 0 -23 0 *
Ve
1e-07
-1.85501248110326e-14 0 75.7366320801554
0 0

0101101
*
Ed
 1e-07 1 1 0
1  2 0 0 463.990767827137
3  3 4CN 1 0 0 463.990767827137
0

0101000
-23 0 +21 0 *
Ed
 1e-07 1 1 0
1  3 0 0 6.28318530717959
2  5 1 0 0 6.28318530717959
2  6 3 0 0 6.28318530717959
0

0101000
+21 0 -21 0 *
Wi

0101100
-22 0 +20 0 +19 0 -20 0 *
Fa
0  1e-07 1 0

0111000
+18 0 *
Wi

0101100
+22 0 *
Ve
1e-07
-1.57196560525671e-14 463.990767827137 64.180366386095
0 0

0101101
*
Ed
 1e-07 1 1 0
1  4 0 0 6.28318530717959
2  7 4 0 0 6.28318530717959
2  8 5 0 0 6.28318530717959
0

0101000
+15 0 -15 0 *
Wi

0101100
-14 0 *
Fa
0  1e-07 2 0

0101000
+16 0 +13 0 *
Wi

0101100
+19 0 *
Ve
1e-07
-1.57196560525671e-14 0 64.180366386095
0 0

0101101
*
Ed
 1e-07 1 1 0
1  5 0 0 6.28318530717959
2  9 4 0 0 6.28318530717959
2  10 6 0 0 6.28318530717959
0

0101000
+10 0 -10 0 *
Wi

0101100
-9 0 *
Fa
0  1e-07 3 0

0101000
+11 0 +8 0 *
Ed
 1e-07 1 1 0
1  6 0 0 463.990767827137
3  11 12CN 4 0 0 463.990767827137
0

0101000
+10 0 -15 0 *
Wi

0101100
-14 0 +6 0 +9 0 -6 0 *
Fa
0  1e-07 4 0

0101000
+5 0 *
Sh

0101100
+17 0 +12 0 -7 0 -4 0 *
So

0100000
+3 0 *
Co

1100000
+2 0 *

+1 1 