DBRep_DrawableShape

CASCADE Topology V1, (c) Matra-Datavision
Locations 1
1
0.156694647810349 0.457353044715334 -0.875371338254346 -38.7135691795625 
-0.859546928397675 -0.373386015434875 -0.348944066233815 17.7220663079693 
-0.486442047144069 0.807100412567904 0.334608814592512 16.2307201842062 
Curve2ds 12
1 0 69.847885397147223 1 0 
2 0 0 1 0 -0 1 59.346297155018462
1 6.2831853071795862 -0 0 1 
1 0 -0 0 1 
1 0 0 1 0 
2 0 0 1 0 -0 1 59.346297155018462
1 0 69.847885397147223 1 0 
2 0 0 1 0 -0 1 51.012480272219378
1 0 0 1 0 
2 0 0 1 0 -0 1 51.012480272219378
1 6.2831853071795862 -0 0 1 
1 0 -0 0 1 
Curves 6
2 0 69.847885397147223 0 0 1 0 0 -0 1 1 0 -0 59.346297155018462
1 -1.4535650570428206e-14 0 59.346297155018462 0 1 0 
2 0 0 0 0 1 0 0 -0 1 1 0 -0 59.346297155018462
2 0 69.847885397147223 0 0 1 0 0 -0 1 1 0 -0 51.012480272219378
2 0 0 0 0 1 0 0 -0 1 1 0 -0 51.012480272219378
1 -1.2494454136388193e-14 0 51.012480272219378 0 1 0 
Polygon3D 0
PolygonOnTriangulations 0
Surfaces 6
2 0 0 0 0 1 0 0 -0 1 1 0 -0 59.346297155018462
1 0 69.847885397147223 0 0 1 0 0 -0 1 1 0 -0 
1 0 0 0 0 1 0 0 -0 1 1 0 -0 
2 0 0 0 0 1 0 0 -0 1 1 0 -0 51.012480272219378
1 0 69.847885397147223 0 0 1 0 0 -0 1 1 0 -0 
1 0 0 0 0 1 0 0 -0 1 1 0 -0 
Triangulations 0

TShapes 23
Ve
1e-07
-1.45356505704282e-14 69.8478853971472 59.3462971550185
0 0

0101101
*
Ed
 1e-07 1 1 0
1  1 0 0 6.28318530717959
2  1 1 0 0 6.28318530717959
2  2 2 0 0 6.28318530717959
0

0101000
+23 0 -23 0 *
Ve
1e-07
-1.45356505704282e-14 0 59.3462971550185
0 0

0101101
*
Ed
 1e-07 1 1 0
1  2 0 0 69.8478853971472
3  3 4CN 1 0 0 69.8478853971472
0

0101000
-23 0 +21 0 *
Ed
 1e-07 1 1 0
1  3 0 0 6.28318530717959
2  5 1 0 0 6.28318530717959
2  6 3 0 0 6.28318530717959
0

0101000
+21 0 -21 0 *
Wi

0101100
-22 0 +20 0 +19 0 -20 0 *
Fa
0  1e-07 1 0

0111000
+18 0 *
Wi

0101100
+22 0 *
Ve
1e-07
-1.24944541363882e-14 69.8478853971472 51.0124802722194
0 0

0101101
*
Ed
 1e-07 1 1 0
1  4 0 0 6.28318530717959
2  7 4 0 0 6.28318530717959
2  8 5 0 0 6.28318530717959
0

0101000
+15 0 -15 0 *
Wi

0101100
-14 0 *
Fa
0  1e-07 2 0

0101000
+16 0 +13 0 *
Wi

0101100
+19 0 *
Ve
1e-07
-1.24944541363882e-14 0 51.0124802722194
0 0

0101101
*
Ed
 1e-07 1 1 0
1  5 0 0 6.28318530717959
2  9 4 0 0 6.28318530717959
2  10 6 0 0 6.28318530717959
0

0101000
+10 0 -10 0 *
Wi

0101100
-9 0 *
Fa
0  1e-07 3 0

0101000
+11 0 +8 0 *
Ed
 1e-07 1 1 0
1  6 0 0 69.8478853971472
3  11 12CN 4 0 0 69.8478853971472
0

0101000
+10 0 -15 0 *
Wi

0101100
-14 0 +6 0 +9 0 -6 0 *
Fa
0  1e-07 4 0

0101000
+5 0 *
Sh

0101100
+17 0 +12 0 -7 0 -4 0 *
So

0100000
+3 0 *
Co

1100000
+2 0 *

+1 1 