DBRep_DrawableShape

CASCADE Topology V1, (c) Matra-Datavision
Locations 1
1
0.357802909142413 -0.932959867410815 -0.0395343396305154 19.3427522805106 
0.236258144420504 0.049486122244234 0.970429396143897 7.78731154894429 
-0.903415279594167 -0.356562770779598 0.238125645594442 -3.46254671370351 
Curve2ds 12
1 0 78.777034789179609 1 0 
2 0 0 1 0 -0 1 58.908749489839131
1 6.2831853071795862 -0 0 1 
1 0 -0 0 1 
1 0 0 1 0 
2 0 0 1 0 -0 1 58.908749489839131
1 0 78.777034789179609 1 0 
2 0 0 1 0 -0 1 55.831833735977632
1 0 0 1 0 
2 0 0 1 0 -0 1 55.831833735977632
1 6.2831853071795862 -0 0 1 
1 0 -0 0 1 
Curves 6
2 0 78.777034789179609 0 0 1 0 0 -0 1 1 0 -0 58.908749489839131
1 -1.4428482300900955e-14 0 58.908749489839131 0 1 0 
2 0 0 0 0 1 0 0 -0 1 1 0 -0 58.908749489839131
2 0 78.777034789179609 0 0 1 0 0 -0 1 1 0 -0 55.831833735977632
2 0 0 0 0 1 0 0 -0 1 1 0 -0 55.831833735977632
1 -1.3674855295058444e-14 0 55.831833735977632 0 1 0 
Polygon3D 0
PolygonOnTriangulations 0
Surfaces 6
2 0 0 0 0 1 0 0 -0 1 1 0 -0 58.908749489839131
1 0 78.777034789179609 0 0 1 0 0 -0 1 1 0 -0 
1 0 0 0 0 1 0 0 -0 1 1 0 -0 
2 0 0 0 0 1 0 0 -0 1 1 0 -0 55.831833735977632
1 0 78.777034789179609 0 0 1 0 0 -0 1 1 0 -0 
1 0 0 0 0 1 0 0 -0 1 1 0 -0 
Triangulations 0

TShapes 23
Ve
1e-07
-1.4428482300901e-14 78.7770347891796 58.9087494898391
0 0

0101101
*
Ed
 1e-07 1 1 0
1  1 0 0 6.28318530717959
2  1 1 0 0 6.28318530717959
2  2 2 0 0 6.28318530717959
0

0101000
+23 0 -23 0 *
Ve
1e-07
-1.4428482300901e-14 0 58.9087494898391
0 0

0101101
*
Ed
 1e-07 1 1 0
1  2 0 0 78.7770347891796
3  3 4CN 1 0 0 78.7770347891796
0

0101000
-23 0 +21 0 *
Ed
 1e-07 1 1 0
1  3 0 0 6.28318530717959
2  5 1 0 0 6.28318530717959
2  6 3 0 0 6.28318530717959
0

0101000
+21 0 -21 0 *
Wi

0101100
-22 0 +20 0 +19 0 -20 0 *
Fa
0  1e-07 1 0

0111000
+18 0 *
Wi

0101100
+22 0 *
Ve
1e-07
-1.36748552950584e-14 78.7770347891796 55.8318337359776
0 0

0101101
*
Ed
 1e-07 1 1 0
1  4 0 0 6.28318530717959
2  7 4 0 0 6.28318530717959
2  8 5 0 0 6.28318530717959
0

0101000
+15 0 -15 0 *
Wi

0101100
-14 0 *
Fa
0  1e-07 2 0

0101000
+16 0 +13 0 *
Wi

0101100
+19 0 *
Ve
1e-07
-1.36748552950584e-14 0 55.8318337359776
0 0

0101101
*
Ed
 1e-07 1 1 0
1  5 0 0 6.28318530717959
2  9 4 0 0 6.28318530717959
2  10 6 0 0 6.28318530717959
0

0101000
+10 0 -10 0 *
Wi

0101100
-9 0 *
Fa
0  1e-07 3 0

0101000
+11 0 +8 0 *
Ed
 1e-07 1 1 0
1  6 0 0 78.7770347891796
3  11 12CN 4 0 0 78.7770347891796
0

0101000
+10 0 -15 0 *
Wi

0101100
-14 0 +6 0 +9 0 -6 0 *
Fa
0  1e-07 4 0

0101000
+5 0 *
Sh

0101100
+17 0 +12 0 -7 0 -4 0 *
So

0100000
+3 0 *
Co

1100000
+2 0 *

+1 1 