DBRep_DrawableShape

CASCADE Topology V1, (c) Matra-Datavision
Locations 1
1
0.953531448573798 0.0462381721493997 -0.297724382637763 -20.5364944011751 
-0.208156387859077 0.815507903694072 -0.540016460125024 14.1541873478248 
0.217827213116763 0.576895909544159 0.787237203628615 -45.651390456098 
Curve2ds 12
1 0 179.1300523513346 1 0 
2 0 0 1 0 -0 1 98.663949398299934
1 6.2831853071795862 -0 0 1 
1 0 -0 0 1 
1 0 0 1 0 
2 0 0 1 0 -0 1 98.663949398299934
1 0 179.1300523513346 1 0 
2 0 0 1 0 -0 1 86.073044472691976
1 0 0 1 0 
2 0 0 1 0 -0 1 86.073044472691976
1 6.2831853071795862 -0 0 1 
1 0 -0 0 1 
Curves 6
2 0 179.1300523513346 0 0 1 0 0 -0 1 1 0 -0 98.663949398299934
1 -2.4165697964372887e-14 0 98.663949398299934 0 1 0 
2 0 0 0 0 1 0 0 -0 1 1 0 -0 98.663949398299934
2 0 179.1300523513346 0 0 1 0 0 -0 1 1 0 -0 86.073044472691976
2 0 0 0 0 1 0 0 -0 1 1 0 -0 86.073044472691976
1 -2.1081815681270001e-14 0 86.073044472691976 0 1 0 
Polygon3D 0
PolygonOnTriangulations 0
Surfaces 6
2 0 0 0 0 1 0 0 -0 1 1 0 -0 98.663949398299934
1 0 179.1300523513346 0 0 1 0 0 -0 1 1 0 -0 
1 0 0 0 0 1 0 0 -0 1 1 0 -0 
2 0 0 0 0 1 0 0 -0 1 1 0 -0 86.073044472691976
1 0 179.1300523513346 0 0 1 0 0 -0 1 1 0 -0 
1 0 0 0 0 1 0 0 -0 1 1 0 -0 
Triangulations 0

TShapes 23
Ve
1e-07
-2.41656979643729e-14 179.130052351335 98.6639493982999
0 0

0101101
*
Ed
 1e-07 1 1 0
1  1 0 0 6.28318530717959
2  1 1 0 0 6.28318530717959
2  2 2 0 0 6.28318530717959
0

0101000
+23 0 -23 0 *
Ve
1e-07
-2.41656979643729e-14 0 98.6639493982999
0 0

0101101
*
Ed
 1e-07 1 1 0
1  2 0 0 179.130052351335
3  3 4CN 1 0 0 179.130052351335
0

0101000
-23 0 +21 0 *
Ed
 1e-07 1 1 0
1  3 0 0 6.28318530717959
2  5 1 0 0 6.28318530717959
2  6 3 0 0 6.28318530717959
0

0101000
+21 0 -21 0 *
Wi

0101100
-22 0 +20 0 +19 0 -20 0 *
Fa
0  1e-07 1 0

0111000
+18 0 *
Wi

0101100
+22 0 *
Ve
1e-07
-2.108181568127e-14 179.130052351335 86.073044472692
0 0

0101101
*
Ed
 1e-07 1 1 0
1  4 0 0 6.28318530717959
2  7 4 0 0 6.28318530717959
2  8 5 0 0 6.28318530717959
0

0101000
+15 0 -15 0 *
Wi

0101100
-14 0 *
Fa
0  1e-07 2 0

0101000
+16 0 +13 0 *
Wi

0101100
+19 0 *
Ve
1e-07
-2.108181568127e-14 0 86.073044472692
0 0

0101101
*
Ed
 1e-07 1 1 0
1  5 0 0 6.28318530717959
2  9 4 0 0 6.28318530717959
2  10 6 0 0 6.28318530717959
0

0101000
+10 0 -10 0 *
Wi

0101100
-9 0 *
Fa
0  1e-07 3 0

0101000
+11 0 +8 0 *
Ed
 1e-07 1 1 0
1  6 0 0 179.130052351335
3  11 12CN 4 0 0 179.130052351335
0

0101000
+10 0 -15 0 *
Wi

0101100
-14 0 +6 0 +9 0 -6 0 *
Fa
0  1e-07 4 0

0101000
+5 0 *
Sh

0101100
+17 0 +12 0 -7 0 -4 0 *
So

0100000
+3 0 *
Co

1100000
+2 0 *

+1 1 