DBRep_DrawableShape

CASCADE Topology V1, (c) Matra-Datavision
Locations 1
1
0.114437062407689 0.184531779959087 -0.976141475879716 3.10616462540023 
-0.95896088442616 0.277109195100966 -0.0600376226302464 37.7742286698155 
0.259418929317226 0.942952022202416 0.208670321167813 -43.0105695567884 
Curve2ds 12
1 0 458.53918939935357 1 0 
2 0 0 1 0 -0 1 82.319438413884541
1 6.2831853071795862 -0 0 1 
1 0 -0 0 1 
1 0 0 1 0 
2 0 0 1 0 -0 1 82.319438413884541
1 0 458.53918939935357 1 0 
2 0 0 1 0 -0 1 73.921038891416828
1 0 0 1 0 
2 0 0 1 0 -0 1 73.921038891416828
1 6.2831853071795862 -0 0 1 
1 0 -0 0 1 
Curves 6
2 0 458.53918939935357 0 0 1 0 0 -0 1 1 0 -0 82.319438413884541
1 -2.0162447352234274e-14 0 82.319438413884541 0 1 0 
2 0 0 0 0 1 0 0 -0 1 1 0 -0 82.319438413884541
2 0 458.53918939935357 0 0 1 0 0 -0 1 1 0 -0 73.921038891416828
2 0 0 0 0 1 0 0 -0 1 1 0 -0 73.921038891416828
1 -1.8105432733604127e-14 0 73.921038891416828 0 1 0 
Polygon3D 0
PolygonOnTriangulations 0
Surfaces 6
2 0 0 0 0 1 0 0 -0 1 1 0 -0 82.319438413884541
1 0 458.53918939935357 0 0 1 0 0 -0 1 1 0 -0 
1 0 0 0 0 1 0 0 -0 1 1 0 -0 
2 0 0 0 0 1 0 0 -0 1 1 0 -0 73.921038891416828
1 0 458.53918939935357 0 0 1 0 0 -0 1 1 0 -0 
1 0 0 0 0 1 0 0 -0 1 1 0 -0 
Triangulations 0

TShapes 23
Ve
1e-07
-2.01624473522343e-14 458.539189399354 82.3194384138845
0 0

0101101
*
Ed
 1e-07 1 1 0
1  1 0 0 6.28318530717959
2  1 1 0 0 6.28318530717959
2  2 2 0 0 6.28318530717959
0

0101000
+23 0 -23 0 *
Ve
1e-07
-2.01624473522343e-14 0 82.3194384138845
0 0

0101101
*
Ed
 1e-07 1 1 0
1  2 0 0 458.539189399354
3  3 4CN 1 0 0 458.539189399354
0

0101000
-23 0 +21 0 *
Ed
 1e-07 1 1 0
1  3 0 0 6.28318530717959
2  5 1 0 0 6.28318530717959
2  6 3 0 0 6.28318530717959
0

0101000
+21 0 -21 0 *
Wi

0101100
-22 0 +20 0 +19 0 -20 0 *
Fa
0  1e-07 1 0

0111000
+18 0 *
Wi

0101100
+22 0 *
Ve
1e-07
-1.81054327336041e-14 458.539189399354 73.9210388914168
0 0

0101101
*
Ed
 1e-07 1 1 0
1  4 0 0 6.28318530717959
2  7 4 0 0 6.28318530717959
2  8 5 0 0 6.28318530717959
0

0101000
+15 0 -15 0 *
Wi

0101100
-14 0 *
Fa
0  1e-07 2 0

0101000
+16 0 +13 0 *
Wi

0101100
+19 0 *
Ve
1e-07
-1.81054327336041e-14 0 73.9210388914168
0 0

0101101
*
Ed
 1e-07 1 1 0
1  5 0 0 6.28318530717959
2  9 4 0 0 6.28318530717959
2  10 6 0 0 6.28318530717959
0

0101000
+10 0 -10 0 *
Wi

0101100
-9 0 *
Fa
0  1e-07 3 0

0101000
+11 0 +8 0 *
Ed
 1e-07 1 1 0
1  6 0 0 458.539189399354
3  11 12CN 4 0 0 458.539189399354
0

0101000
+10 0 -15 0 *
Wi

0101100
-14 0 +6 0 +9 0 -6 0 *
Fa
0  1e-07 4 0

0101000
+5 0 *
Sh

0101100
+17 0 +12 0 -7 0 -4 0 *
So

0100000
+3 0 *
Co

1100000
+2 0 *

+1 1 