DBRep_DrawableShape

CASCADE Topology V1, (c) Matra-Datavision
Locations 1
1
0.0129771390257352 0.531936015676789 -0.84668510621636 -42.8165026215076 
-0.387808850650074 -0.777799965563 -0.494602374567353 45.6376816705676 
-0.921648462929427 0.334770501681522 0.196195876571673 -39.1887753512225 
Curve2ds 12
1 0 228.67194304240587 1 0 
2 0 0 1 0 -0 1 57.717174938532906
1 6.2831853071795862 -0 0 1 
1 0 -0 0 1 
1 0 0 1 0 
2 0 0 1 0 -0 1 57.717174938532906
1 0 228.67194304240587 1 0 
2 0 0 1 0 -0 1 41.164242072118725
1 0 0 1 0 
2 0 0 1 0 -0 1 41.164242072118725
1 6.2831853071795862 -0 0 1 
1 0 -0 0 1 
Curves 6
2 0 228.67194304240587 0 0 1 0 0 -0 1 1 0 -0 57.717174938532906
1 -1.4136630708860431e-14 0 57.717174938532906 0 1 0 
2 0 0 0 0 1 0 0 -0 1 1 0 -0 57.717174938532906
2 0 228.67194304240587 0 0 1 0 0 -0 1 1 0 -0 41.164242072118725
2 0 0 0 0 1 0 0 -0 1 1 0 -0 41.164242072118725
1 -1.0082331458589401e-14 0 41.164242072118725 0 1 0 
Polygon3D 0
PolygonOnTriangulations 0
Surfaces 6
2 0 0 0 0 1 0 0 -0 1 1 0 -0 57.717174938532906
1 0 228.67194304240587 0 0 1 0 0 -0 1 1 0 -0 
1 0 0 0 0 1 0 0 -0 1 1 0 -0 
2 0 0 0 0 1 0 0 -0 1 1 0 -0 41.164242072118725
1 0 228.67194304240587 0 0 1 0 0 -0 1 1 0 -0 
1 0 0 0 0 1 0 0 -0 1 1 0 -0 
Triangulations 0

TShapes 23
Ve
1e-07
-1.41366307088604e-14 228.671943042406 57.7171749385329
0 0

0101101
*
Ed
 1e-07 1 1 0
1  1 0 0 6.28318530717959
2  1 1 0 0 6.28318530717959
2  2 2 0 0 6.28318530717959
0

0101000
+23 0 -23 0 *
Ve
1e-07
-1.41366307088604e-14 0 57.7171749385329
0 0

0101101
*
Ed
 1e-07 1 1 0
1  2 0 0 228.671943042406
3  3 4CN 1 0 0 228.671943042406
0

0101000
-23 0 +21 0 *
Ed
 1e-07 1 1 0
1  3 0 0 6.28318530717959
2  5 1 0 0 6.28318530717959
2  6 3 0 0 6.28318530717959
0

0101000
+21 0 -21 0 *
Wi

0101100
-22 0 +20 0 +19 0 -20 0 *
Fa
0  1e-07 1 0

0111000
+18 0 *
Wi

0101100
+22 0 *
Ve
1e-07
-1.00823314585894e-14 228.671943042406 41.1642420721187
0 0

0101101
*
Ed
 1e-07 1 1 0
1  4 0 0 6.28318530717959
2  7 4 0 0 6.28318530717959
2  8 5 0 0 6.28318530717959
0

0101000
+15 0 -15 0 *
Wi

0101100
-14 0 *
Fa
0  1e-07 2 0

0101000
+16 0 +13 0 *
Wi

0101100
+19 0 *
Ve
1e-07
-1.00823314585894e-14 0 41.1642420721187
0 0

0101101
*
Ed
 1e-07 1 1 0
1  5 0 0 6.28318530717959
2  9 4 0 0 6.28318530717959
2  10 6 0 0 6.28318530717959
0

0101000
+10 0 -10 0 *
Wi

0101100
-9 0 *
Fa
0  1e-07 3 0

0101000
+11 0 +8 0 *
Ed
 1e-07 1 1 0
1  6 0 0 228.671943042406
3  11 12CN 4 0 0 228.671943042406
0

0101000
+10 0 -15 0 *
Wi

0101100
-14 0 +6 0 +9 0 -6 0 *
Fa
0  1e-07 4 0

0101000
+5 0 *
Sh

0101100
+17 0 +12 0 -7 0 -4 0 *
So

0100000
+3 0 *
Co

1100000
+2 0 *

+1 1 