DBRep_DrawableShape

CASCADE Topology V1, (c) Matra-Datavision
Locations 1
1
0.679896509048119 -0.602338614554087 -0.418245060223363 -0.132625867644457 
0.683242753921209 0.31320833489886 0.659605850613869 42.6089232635245 
-0.266308235318295 -0.734226621941037 0.624492747303529 -11.635274876552 
Curve2ds 12
1 0 404.05633242833846 1 0 
2 0 0 1 0 -0 1 44.948744605472903
1 6.2831853071795862 -0 0 1 
1 0 -0 0 1 
1 0 0 1 0 
2 0 0 1 0 -0 1 44.948744605472903
1 0 404.05633242833846 1 0 
2 0 0 1 0 -0 1 30.270883691118939
1 0 0 1 0 
2 0 0 1 0 -0 1 30.270883691118939
1 6.2831853071795862 -0 0 1 
1 0 -0 0 1 
Curves 6
2 0 404.05633242833846 0 0 1 0 0 -0 1 1 0 -0 44.948744605472903
1 -1.100926724135685e-14 0 44.948744605472903 0 1 0 
2 0 0 0 0 1 0 0 -0 1 1 0 -0 44.948744605472903
2 0 404.05633242833846 0 0 1 0 0 -0 1 1 0 -0 30.270883691118939
2 0 0 0 0 1 0 0 -0 1 1 0 -0 30.270883691118939
1 -7.4142281639381255e-15 0 30.270883691118939 0 1 0 
Polygon3D 0
PolygonOnTriangulations 0
Surfaces 6
2 0 0 0 0 1 0 0 -0 1 1 0 -0 44.948744605472903
1 0 404.05633242833846 0 0 1 0 0 -0 1 1 0 -0 
1 0 0 0 0 1 0 0 -0 1 1 0 -0 
2 0 0 0 0 1 0 0 -0 1 1 0 -0 30.270883691118939
1 0 404.05633242833846 0 0 1 0 0 -0 1 1 0 -0 
1 0 0 0 0 1 0 0 -0 1 1 0 -0 
Triangulations 0

TShapes 23
Ve
1e-07
-1.10092672413568e-14 404.056332428338 44.9487446054729
0 0

0101101
*
Ed
 1e-07 1 1 0
1  1 0 0 6.28318530717959
2  1 1 0 0 6.28318530717959
2  2 2 0 0 6.28318530717959
0

0101000
+23 0 -23 0 *
Ve
1e-07
-1.10092672413568e-14 0 44.9487446054729
0 0

0101101
*
Ed
 1e-07 1 1 0
1  2 0 0 404.056332428338
3  3 4CN 1 0 0 404.056332428338
0

0101000
-23 0 +21 0 *
Ed
 1e-07 1 1 0
1  3 0 0 6.28318530717959
2  5 1 0 0 6.28318530717959
2  6 3 0 0 6.28318530717959
0

0101000
+21 0 -21 0 *
Wi

0101100
-22 0 +20 0 +19 0 -20 0 *
Fa
0  1e-07 1 0

0111000
+18 0 *
Wi

0101100
+22 0 *
Ve
1e-07
-7.41422816393813e-15 404.056332428338 30.2708836911189
0 0

0101101
*
Ed
 1e-07 1 1 0
1  4 0 0 6.28318530717959
2  7 4 0 0 6.28318530717959
2  8 5 0 0 6.28318530717959
0

0101000
+15 0 -15 0 *
Wi

0101100
-14 0 *
Fa
0  1e-07 2 0

0101000
+16 0 +13 0 *
Wi

0101100
+19 0 *
Ve
1e-07
-7.41422816393813e-15 0 30.2708836911189
0 0

0101101
*
Ed
 1e-07 1 1 0
1  5 0 0 6.28318530717959
2  9 4 0 0 6.28318530717959
2  10 6 0 0 6.28318530717959
0

0101000
+10 0 -10 0 *
Wi

0101100
-9 0 *
Fa
0  1e-07 3 0

0101000
+11 0 +8 0 *
Ed
 1e-07 1 1 0
1  6 0 0 404.056332428338
3  11 12CN 4 0 0 404.056332428338
0

0101000
+10 0 -15 0 *
Wi

0101100
-14 0 +6 0 +9 0 -6 0 *
Fa
0  1e-07 4 0

0101000
+5 0 *
Sh

0101100
+17 0 +12 0 -7 0 -4 0 *
So

0100000
+3 0 *
Co

1100000
+2 0 *

+1 1 