DBRep_DrawableShape

CASCADE Topology V1, (c) Matra-Datavision
Locations 1
1
0.926109516242131 0.369888283544808 -0.0741877457673554 -16.2398805614753 
-0.372314089243258 0.927856003935111 -0.0215744041060315 -1.20846026256722 
0.0608554260253703 0.0476014039482324 0.99701089435644 3.24314141535014 
Curve2ds 12
1 0 175.91568258505544 1 0 
2 0 0 1 0 -0 1 80.551833842520395
1 6.2831853071795862 -0 0 1 
1 0 -0 0 1 
1 0 0 1 0 
2 0 0 1 0 -0 1 80.551833842520395
1 0 175.91568258505544 1 0 
2 0 0 1 0 -0 1 67.369953556515782
1 0 0 1 0 
2 0 0 1 0 -0 1 67.369953556515782
1 6.2831853071795862 -0 0 1 
1 0 -0 0 1 
Curves 6
2 0 175.91568258505544 0 0 1 0 0 -0 1 1 0 -0 80.551833842520395
1 -1.9729509096138407e-14 0 80.551833842520395 0 1 0 
2 0 0 0 0 1 0 0 -0 1 1 0 -0 80.551833842520395
2 0 175.91568258505544 0 0 1 0 0 -0 1 1 0 -0 67.369953556515782
2 0 0 0 0 1 0 0 -0 1 1 0 -0 67.369953556515782
1 -1.650087959633858e-14 0 67.369953556515782 0 1 0 
Polygon3D 0
PolygonOnTriangulations 0
Surfaces 6
2 0 0 0 0 1 0 0 -0 1 1 0 -0 80.551833842520395
1 0 175.91568258505544 0 0 1 0 0 -0 1 1 0 -0 
1 0 0 0 0 1 0 0 -0 1 1 0 -0 
2 0 0 0 0 1 0 0 -0 1 1 0 -0 67.369953556515782
1 0 175.91568258505544 0 0 1 0 0 -0 1 1 0 -0 
1 0 0 0 0 1 0 0 -0 1 1 0 -0 
Triangulations 0

TShapes 23
Ve
1e-07
-1.97295090961384e-14 175.915682585055 80.5518338425204
0 0

0101101
*
Ed
 1e-07 1 1 0
1  1 0 0 6.28318530717959
2  1 1 0 0 6.28318530717959
2  2 2 0 0 6.28318530717959
0

0101000
+23 0 -23 0 *
Ve
1e-07
-1.97295090961384e-14 0 80.5518338425204
0 0

0101101
*
Ed
 1e-07 1 1 0
1  2 0 0 175.915682585055
3  3 4CN 1 0 0 175.915682585055
0

0101000
-23 0 +21 0 *
Ed
 1e-07 1 1 0
1  3 0 0 6.28318530717959
2  5 1 0 0 6.28318530717959
2  6 3 0 0 6.28318530717959
0

0101000
+21 0 -21 0 *
Wi

0101100
-22 0 +20 0 +19 0 -20 0 *
Fa
0  1e-07 1 0

0111000
+18 0 *
Wi

0101100
+22 0 *
Ve
1e-07
-1.65008795963386e-14 175.915682585055 67.3699535565158
0 0

0101101
*
Ed
 1e-07 1 1 0
1  4 0 0 6.28318530717959
2  7 4 0 0 6.28318530717959
2  8 5 0 0 6.28318530717959
0

0101000
+15 0 -15 0 *
Wi

0101100
-14 0 *
Fa
0  1e-07 2 0

0101000
+16 0 +13 0 *
Wi

0101100
+19 0 *
Ve
1e-07
-1.65008795963386e-14 0 67.3699535565158
0 0

0101101
*
Ed
 1e-07 1 1 0
1  5 0 0 6.28318530717959
2  9 4 0 0 6.28318530717959
2  10 6 0 0 6.28318530717959
0

0101000
+10 0 -10 0 *
Wi

0101100
-9 0 *
Fa
0  1e-07 3 0

0101000
+11 0 +8 0 *
Ed
 1e-07 1 1 0
1  6 0 0 175.915682585055
3  11 12CN 4 0 0 175.915682585055
0

0101000
+10 0 -15 0 *
Wi

0101100
-14 0 +6 0 +9 0 -6 0 *
Fa
0  1e-07 4 0

0101000
+5 0 *
Sh

0101100
+17 0 +12 0 -7 0 -4 0 *
So

0100000
+3 0 *
Co

1100000
+2 0 *

+1 1 