DBRep_DrawableShape

CASCADE Topology V1, (c) Matra-Datavision
Locations 1
1
0.807468139088695 0.188703143599222 0.558915313757292 7.46581507036921 
-0.137718653389875 0.981576793724673 -0.132440818970853 -47.6100249503269 
-0.573610300522158 0.0299686772641438 0.81857992982843 14.4530654390164 
Curve2ds 12
1 0 392.61210330335183 1 0 
2 0 0 1 0 -0 1 83.927420894102227
1 6.2831853071795862 -0 0 1 
1 0 -0 0 1 
1 0 0 1 0 
2 0 0 1 0 -0 1 83.927420894102227
1 0 392.61210330335183 1 0 
2 0 0 1 0 -0 1 74.971065778357726
1 0 0 1 0 
2 0 0 1 0 -0 1 74.971065778357726
1 6.2831853071795862 -0 0 1 
1 0 -0 0 1 
Curves 6
2 0 392.61210330335183 0 0 1 0 0 -0 1 1 0 -0 83.927420894102227
1 -2.0556289471730998e-14 0 83.927420894102227 0 1 0 
2 0 0 0 0 1 0 0 -0 1 1 0 -0 83.927420894102227
2 0 392.61210330335183 0 0 1 0 0 -0 1 1 0 -0 74.971065778357726
2 0 0 0 0 1 0 0 -0 1 1 0 -0 74.971065778357726
1 -1.8362615146826291e-14 0 74.971065778357726 0 1 0 
Polygon3D 0
PolygonOnTriangulations 0
Surfaces 6
2 0 0 0 0 1 0 0 -0 1 1 0 -0 83.927420894102227
1 0 392.61210330335183 0 0 1 0 0 -0 1 1 0 -0 
1 0 0 0 0 1 0 0 -0 1 1 0 -0 
2 0 0 0 0 1 0 0 -0 1 1 0 -0 74.971065778357726
1 0 392.61210330335183 0 0 1 0 0 -0 1 1 0 -0 
1 0 0 0 0 1 0 0 -0 1 1 0 -0 
Triangulations 0

TShapes 23
Ve
1e-07
-2.0556289471731e-14 392.612103303352 83.9274208941022
0 0

0101101
*
Ed
 1e-07 1 1 0
1  1 0 0 6.28318530717959
2  1 1 0 0 6.28318530717959
2  2 2 0 0 6.28318530717959
0

0101000
+23 0 -23 0 *
Ve
1e-07
-2.0556289471731e-14 0 83.9274208941022
0 0

0101101
*
Ed
 1e-07 1 1 0
1  2 0 0 392.612103303352
3  3 4CN 1 0 0 392.612103303352
0

0101000
-23 0 +21 0 *
Ed
 1e-07 1 1 0
1  3 0 0 6.28318530717959
2  5 1 0 0 6.28318530717959
2  6 3 0 0 6.28318530717959
0

0101000
+21 0 -21 0 *
Wi

0101100
-22 0 +20 0 +19 0 -20 0 *
Fa
0  1e-07 1 0

0111000
+18 0 *
Wi

0101100
+22 0 *
Ve
1e-07
-1.83626151468263e-14 392.612103303352 74.9710657783577
0 0

0101101
*
Ed
 1e-07 1 1 0
1  4 0 0 6.28318530717959
2  7 4 0 0 6.28318530717959
2  8 5 0 0 6.28318530717959
0

0101000
+15 0 -15 0 *
Wi

0101100
-14 0 *
Fa
0  1e-07 2 0

0101000
+16 0 +13 0 *
Wi

0101100
+19 0 *
Ve
1e-07
-1.83626151468263e-14 0 74.9710657783577
0 0

0101101
*
Ed
 1e-07 1 1 0
1  5 0 0 6.28318530717959
2  9 4 0 0 6.28318530717959
2  10 6 0 0 6.28318530717959
0

0101000
+10 0 -10 0 *
Wi

0101100
-9 0 *
Fa
0  1e-07 3 0

0101000
+11 0 +8 0 *
Ed
 1e-07 1 1 0
1  6 0 0 392.612103303352
3  11 12CN 4 0 0 392.612103303352
0

0101000
+10 0 -15 0 *
Wi

0101100
-14 0 +6 0 +9 0 -6 0 *
Fa
0  1e-07 4 0

0101000
+5 0 *
Sh

0101100
+17 0 +12 0 -7 0 -4 0 *
So

0100000
+3 0 *
Co

1100000
+2 0 *

+1 1 