DBRep_DrawableShape

CASCADE Topology V1, (c) Matra-Datavision
Locations 1
1
0.429479004782687 -0.363497235299427 -0.826690718697474 -26.6059621867593 
0.902939196588914 0.156860923438201 0.400119304659849 5.18819285783644 
-0.0157667915011086 -0.918294294127862 0.395584374891088 18.0503916890079 
Curve2ds 12
1 0 251.22200227471848 1 0 
2 0 0 1 0 -0 1 90.411835802671121
1 6.2831853071795862 -0 0 1 
1 0 -0 0 1 
1 0 0 1 0 
2 0 0 1 0 -0 1 90.411835802671121
1 0 251.22200227471848 1 0 
2 0 0 1 0 -0 1 83.189610774682265
1 0 0 1 0 
2 0 0 1 0 -0 1 83.189610774682265
1 6.2831853071795862 -0 0 1 
1 0 -0 0 1 
Curves 6
2 0 251.22200227471848 0 0 1 0 0 -0 1 1 0 -0 90.411835802671121
1 -2.214451306415545e-14 0 90.411835802671121 0 1 0 
2 0 0 0 0 1 0 0 -0 1 1 0 -0 90.411835802671121
2 0 251.22200227471848 0 0 1 0 0 -0 1 1 0 -0 83.189610774682265
2 0 0 0 0 1 0 0 -0 1 1 0 -0 83.189610774682265
1 -2.0375578111505762e-14 0 83.189610774682265 0 1 0 
Polygon3D 0
PolygonOnTriangulations 0
Surfaces 6
2 0 0 0 0 1 0 0 -0 1 1 0 -0 90.411835802671121
1 0 251.22200227471848 0 0 1 0 0 -0 1 1 0 -0 
1 0 0 0 0 1 0 0 -0 1 1 0 -0 
2 0 0 0 0 1 0 0 -0 1 1 0 -0 83.189610774682265
1 0 251.22200227471848 0 0 1 0 0 -0 1 1 0 -0 
1 0 0 0 0 1 0 0 -0 1 1 0 -0 
Triangulations 0

TShapes 23
Ve
1e-07
-2.21445130641555e-14 251.222002274718 90.4118358026711
0 0

0101101
*
Ed
 1e-07 1 1 0
1  1 0 0 6.28318530717959
2  1 1 0 0 6.28318530717959
2  2 2 0 0 6.28318530717959
0

0101000
+23 0 -23 0 *
Ve
1e-07
-2.21445130641555e-14 0 90.4118358026711
0 0

0101101
*
Ed
 1e-07 1 1 0
1  2 0 0 251.222002274718
3  3 4CN 1 0 0 251.222002274718
0

0101000
-23 0 +21 0 *
Ed
 1e-07 1 1 0
1  3 0 0 6.28318530717959
2  5 1 0 0 6.28318530717959
2  6 3 0 0 6.28318530717959
0

0101000
+21 0 -21 0 *
Wi

0101100
-22 0 +20 0 +19 0 -20 0 *
Fa
0  1e-07 1 0

0111000
+18 0 *
Wi

0101100
+22 0 *
Ve
1e-07
-2.03755781115058e-14 251.222002274718 83.1896107746823
0 0

0101101
*
Ed
 1e-07 1 1 0
1  4 0 0 6.28318530717959
2  7 4 0 0 6.28318530717959
2  8 5 0 0 6.28318530717959
0

0101000
+15 0 -15 0 *
Wi

0101100
-14 0 *
Fa
0  1e-07 2 0

0101000
+16 0 +13 0 *
Wi

0101100
+19 0 *
Ve
1e-07
-2.03755781115058e-14 0 83.1896107746823
0 0

0101101
*
Ed
 1e-07 1 1 0
1  5 0 0 6.28318530717959
2  9 4 0 0 6.28318530717959
2  10 6 0 0 6.28318530717959
0

0101000
+10 0 -10 0 *
Wi

0101100
-9 0 *
Fa
0  1e-07 3 0

0101000
+11 0 +8 0 *
Ed
 1e-07 1 1 0
1  6 0 0 251.222002274718
3  11 12CN 4 0 0 251.222002274718
0

0101000
+10 0 -15 0 *
Wi

0101100
-14 0 +6 0 +9 0 -6 0 *
Fa
0  1e-07 4 0

0101000
+5 0 *
Sh

0101100
+17 0 +12 0 -7 0 -4 0 *
So

0100000
+3 0 *
Co

1100000
+2 0 *

+1 1 