DBRep_DrawableShape

CASCADE Topology V1, (c) Matra-Datavision
Locations 1
1
0.00956358917709721 -0.352823539516699 0.935641003657365 -21.5682637942179 
0.539849324360932 0.78942969422665 0.292170266899737 25.0237568732037 
-0.841707339132253 0.50231096726642 0.198021330706507 -3.66318065807882 
Curve2ds 12
1 0 451.13019264310049 1 0 
2 0 0 1 0 -0 1 57.551803146239216
1 6.2831853071795862 -0 0 1 
1 0 -0 0 1 
1 0 0 1 0 
2 0 0 1 0 -0 1 57.551803146239216
1 0 451.13019264310049 1 0 
2 0 0 1 0 -0 1 49.917367145732683
1 0 0 1 0 
2 0 0 1 0 -0 1 49.917367145732683
1 6.2831853071795862 -0 0 1 
1 0 -0 0 1 
Curves 6
2 0 451.13019264310049 0 0 1 0 0 -0 1 1 0 -0 57.551803146239216
1 -1.4096126301640086e-14 0 57.551803146239216 0 1 0 
2 0 0 0 0 1 0 0 -0 1 1 0 -0 57.551803146239216
2 0 451.13019264310049 0 0 1 0 0 -0 1 1 0 -0 49.917367145732683
2 0 0 0 0 1 0 0 -0 1 1 0 -0 49.917367145732683
1 -1.2226228779376957e-14 0 49.917367145732683 0 1 0 
Polygon3D 0
PolygonOnTriangulations 0
Surfaces 6
2 0 0 0 0 1 0 0 -0 1 1 0 -0 57.551803146239216
1 0 451.13019264310049 0 0 1 0 0 -0 1 1 0 -0 
1 0 0 0 0 1 0 0 -0 1 1 0 -0 
2 0 0 0 0 1 0 0 -0 1 1 0 -0 49.917367145732683
1 0 451.13019264310049 0 0 1 0 0 -0 1 1 0 -0 
1 0 0 0 0 1 0 0 -0 1 1 0 -0 
Triangulations 0

TShapes 23
Ve
1e-07
-1.40961263016401e-14 451.1301926431 57.5518031462392
0 0

0101101
*
Ed
 1e-07 1 1 0
1  1 0 0 6.28318530717959
2  1 1 0 0 6.28318530717959
2  2 2 0 0 6.28318530717959
0

0101000
+23 0 -23 0 *
Ve
1e-07
-1.40961263016401e-14 0 57.5518031462392
0 0

0101101
*
Ed
 1e-07 1 1 0
1  2 0 0 451.1301926431
3  3 4CN 1 0 0 451.1301926431
0

0101000
-23 0 +21 0 *
Ed
 1e-07 1 1 0
1  3 0 0 6.28318530717959
2  5 1 0 0 6.28318530717959
2  6 3 0 0 6.28318530717959
0

0101000
+21 0 -21 0 *
Wi

0101100
-22 0 +20 0 +19 0 -20 0 *
Fa
0  1e-07 1 0

0111000
+18 0 *
Wi

0101100
+22 0 *
Ve
1e-07
-1.2226228779377e-14 451.1301926431 49.9173671457327
0 0

0101101
*
Ed
 1e-07 1 1 0
1  4 0 0 6.28318530717959
2  7 4 0 0 6.28318530717959
2  8 5 0 0 6.28318530717959
0

0101000
+15 0 -15 0 *
Wi

0101100
-14 0 *
Fa
0  1e-07 2 0

0101000
+16 0 +13 0 *
Wi

0101100
+19 0 *
Ve
1e-07
-1.2226228779377e-14 0 49.9173671457327
0 0

0101101
*
Ed
 1e-07 1 1 0
1  5 0 0 6.28318530717959
2  9 4 0 0 6.28318530717959
2  10 6 0 0 6.28318530717959
0

0101000
+10 0 -10 0 *
Wi

0101100
-9 0 *
Fa
0  1e-07 3 0

0101000
+11 0 +8 0 *
Ed
 1e-07 1 1 0
1  6 0 0 451.1301926431
3  11 12CN 4 0 0 451.1301926431
0

0101000
+10 0 -15 0 *
Wi

0101100
-14 0 +6 0 +9 0 -6 0 *
Fa
0  1e-07 4 0

0101000
+5 0 *
Sh

0101100
+17 0 +12 0 -7 0 -4 0 *
So

0100000
+3 0 *
Co

1100000
+2 0 *

+1 1 