DBRep_DrawableShape

CASCADE Topology V1, (c) Matra-Datavision
Locations 1
1
0.0169299980927639 -0.395514076488683 0.918303866083489 -27.498761873682 
0.914976776016521 0.376449920350645 0.145268567895491 33.8441626957637 
-0.403151180718838 0.837767314215169 0.368259491008325 -39.0560692292698 
Curve2ds 12
1 0 457.29668086082819 1 0 
2 0 0 1 0 -0 1 77.255347410666616
1 6.2831853071795862 -0 0 1 
1 0 -0 0 1 
1 0 0 1 0 
2 0 0 1 0 -0 1 77.255347410666616
1 0 457.29668086082819 1 0 
2 0 0 1 0 -0 1 67.747452927577683
1 0 0 1 0 
2 0 0 1 0 -0 1 67.747452927577683
1 6.2831853071795862 -0 0 1 
1 0 -0 0 1 
Curves 6
2 0 457.29668086082819 0 0 1 0 0 -0 1 1 0 -0 77.255347410666616
1 -1.8922102784697925e-14 0 77.255347410666616 0 1 0 
2 0 0 0 0 1 0 0 -0 1 1 0 -0 77.255347410666616
2 0 457.29668086082819 0 0 1 0 0 -0 1 1 0 -0 67.747452927577683
2 0 0 0 0 1 0 0 -0 1 1 0 -0 67.747452927577683
1 -1.6593340275628799e-14 0 67.747452927577683 0 1 0 
Polygon3D 0
PolygonOnTriangulations 0
Surfaces 6
2 0 0 0 0 1 0 0 -0 1 1 0 -0 77.255347410666616
1 0 457.29668086082819 0 0 1 0 0 -0 1 1 0 -0 
1 0 0 0 0 1 0 0 -0 1 1 0 -0 
2 0 0 0 0 1 0 0 -0 1 1 0 -0 67.747452927577683
1 0 457.29668086082819 0 0 1 0 0 -0 1 1 0 -0 
1 0 0 0 0 1 0 0 -0 1 1 0 -0 
Triangulations 0

TShapes 23
Ve
1e-07
-1.89221027846979e-14 457.296680860828 77.2553474106666
0 0

0101101
*
Ed
 1e-07 1 1 0
1  1 0 0 6.28318530717959
2  1 1 0 0 6.28318530717959
2  2 2 0 0 6.28318530717959
0

0101000
+23 0 -23 0 *
Ve
1e-07
-1.89221027846979e-14 0 77.2553474106666
0 0

0101101
*
Ed
 1e-07 1 1 0
1  2 0 0 457.296680860828
3  3 4CN 1 0 0 457.296680860828
0

0101000
-23 0 +21 0 *
Ed
 1e-07 1 1 0
1  3 0 0 6.28318530717959
2  5 1 0 0 6.28318530717959
2  6 3 0 0 6.28318530717959
0

0101000
+21 0 -21 0 *
Wi

0101100
-22 0 +20 0 +19 0 -20 0 *
Fa
0  1e-07 1 0

0111000
+18 0 *
Wi

0101100
+22 0 *
Ve
1e-07
-1.65933402756288e-14 457.296680860828 67.7474529275777
0 0

0101101
*
Ed
 1e-07 1 1 0
1  4 0 0 6.28318530717959
2  7 4 0 0 6.28318530717959
2  8 5 0 0 6.28318530717959
0

0101000
+15 0 -15 0 *
Wi

0101100
-14 0 *
Fa
0  1e-07 2 0

0101000
+16 0 +13 0 *
Wi

0101100
+19 0 *
Ve
1e-07
-1.65933402756288e-14 0 67.7474529275777
0 0

0101101
*
Ed
 1e-07 1 1 0
1  5 0 0 6.28318530717959
2  9 4 0 0 6.28318530717959
2  10 6 0 0 6.28318530717959
0

0101000
+10 0 -10 0 *
Wi

0101100
-9 0 *
Fa
0  1e-07 3 0

0101000
+11 0 +8 0 *
Ed
 1e-07 1 1 0
1  6 0 0 457.296680860828
3  11 12CN 4 0 0 457.296680860828
0

0101000
+10 0 -15 0 *
Wi

0101100
-14 0 +6 0 +9 0 -6 0 *
Fa
0  1e-07 4 0

0101000
+5 0 *
Sh

0101100
+17 0 +12 0 -7 0 -4 0 *
So

0100000
+3 0 *
Co

1100000
+2 0 *

+1 1 