DBRep_DrawableShape

CASCADE Topology V1, (c) Matra-Datavision
Locations 1
1
0.381083899238646 0.921010191257423 -0.0807173422570028 -43.5352312382558 
-0.322016487419437 0.214062916303676 0.922216053695452 33.9627186539053 
0.86664897367453 -0.325449374655307 0.37815639749362 -21.910454447199 
Curve2ds 12
1 0 233.66016974306137 1 0 
2 0 0 1 0 -0 1 92.447224105740418
1 6.2831853071795862 -0 0 1 
1 0 -0 0 1 
1 0 0 1 0 
2 0 0 1 0 -0 1 92.447224105740418
1 0 233.66016974306137 1 0 
2 0 0 1 0 -0 1 83.106098675310193
1 0 0 1 0 
2 0 0 1 0 -0 1 83.106098675310193
1 6.2831853071795862 -0 0 1 
1 0 -0 0 1 
Curves 6
2 0 233.66016974306137 0 0 1 0 0 -0 1 1 0 -0 92.447224105740418
1 -2.2643039418230608e-14 0 92.447224105740418 0 1 0 
2 0 0 0 0 1 0 0 -0 1 1 0 -0 92.447224105740418
2 0 233.66016974306137 0 0 1 0 0 -0 1 1 0 -0 83.106098675310193
2 0 0 0 0 1 0 0 -0 1 1 0 -0 83.106098675310193
1 -2.0355123546468545e-14 0 83.106098675310193 0 1 0 
Polygon3D 0
PolygonOnTriangulations 0
Surfaces 6
2 0 0 0 0 1 0 0 -0 1 1 0 -0 92.447224105740418
1 0 233.66016974306137 0 0 1 0 0 -0 1 1 0 -0 
1 0 0 0 0 1 0 0 -0 1 1 0 -0 
2 0 0 0 0 1 0 0 -0 1 1 0 -0 83.106098675310193
1 0 233.66016974306137 0 0 1 0 0 -0 1 1 0 -0 
1 0 0 0 0 1 0 0 -0 1 1 0 -0 
Triangulations 0

TShapes 23
Ve
1e-07
-2.26430394182306e-14 233.660169743061 92.4472241057404
0 0

0101101
*
Ed
 1e-07 1 1 0
1  1 0 0 6.28318530717959
2  1 1 0 0 6.28318530717959
2  2 2 0 0 6.28318530717959
0

0101000
+23 0 -23 0 *
Ve
1e-07
-2.26430394182306e-14 0 92.4472241057404
0 0

0101101
*
Ed
 1e-07 1 1 0
1  2 0 0 233.660169743061
3  3 4CN 1 0 0 233.660169743061
0

0101000
-23 0 +21 0 *
Ed
 1e-07 1 1 0
1  3 0 0 6.28318530717959
2  5 1 0 0 6.28318530717959
2  6 3 0 0 6.28318530717959
0

0101000
+21 0 -21 0 *
Wi

0101100
-22 0 +20 0 +19 0 -20 0 *
Fa
0  1e-07 1 0

0111000
+18 0 *
Wi

0101100
+22 0 *
Ve
1e-07
-2.03551235464685e-14 233.660169743061 83.1060986753102
0 0

0101101
*
Ed
 1e-07 1 1 0
1  4 0 0 6.28318530717959
2  7 4 0 0 6.28318530717959
2  8 5 0 0 6.28318530717959
0

0101000
+15 0 -15 0 *
Wi

0101100
-14 0 *
Fa
0  1e-07 2 0

0101000
+16 0 +13 0 *
Wi

0101100
+19 0 *
Ve
1e-07
-2.03551235464685e-14 0 83.1060986753102
0 0

0101101
*
Ed
 1e-07 1 1 0
1  5 0 0 6.28318530717959
2  9 4 0 0 6.28318530717959
2  10 6 0 0 6.28318530717959
0

0101000
+10 0 -10 0 *
Wi

0101100
-9 0 *
Fa
0  1e-07 3 0

0101000
+11 0 +8 0 *
Ed
 1e-07 1 1 0
1  6 0 0 233.660169743061
3  11 12CN 4 0 0 233.660169743061
0

0101000
+10 0 -15 0 *
Wi

0101100
-14 0 +6 0 +9 0 -6 0 *
Fa
0  1e-07 4 0

0101000
+5 0 *
Sh

0101100
+17 0 +12 0 -7 0 -4 0 *
So

0100000
+3 0 *
Co

1100000
+2 0 *

+1 1 