DBRep_DrawableShape

CASCADE Topology V1, (c) Matra-Datavision
Locations 1
1
0.572947149410405 -0.010118279845116 0.819529855707202 44.5949875460763 
0.0582471588107218 0.997898114673159 -0.0284010778357748 -2.26863937439082 
-0.817519927875137 0.0640076022416955 0.572332241257034 9.28388166772094 
Curve2ds 12
1 0 339.50742552783242 1 0 
2 0 0 1 0 -0 1 39.64881889071134
1 6.2831853071795862 -0 0 1 
1 0 -0 0 1 
1 0 0 1 0 
2 0 0 1 0 -0 1 39.64881889071134
1 0 339.50742552783242 1 0 
2 0 0 1 0 -0 1 36.519599918441706
1 0 0 1 0 
2 0 0 1 0 -0 1 36.519599918441706
1 6.2831853071795862 -0 0 1 
1 0 -0 0 1 
Curves 6
2 0 339.50742552783242 0 0 1 0 0 -0 1 1 0 -0 39.64881889071134
1 -9.7111598288965507e-15 0 39.64881889071134 0 1 0 
2 0 0 0 0 1 0 0 -0 1 1 0 -0 39.64881889071134
2 0 339.50742552783242 0 0 1 0 0 -0 1 1 0 -0 36.519599918441706
2 0 0 0 0 1 0 0 -0 1 1 0 -0 36.519599918441706
1 -8.9447222292523156e-15 0 36.519599918441706 0 1 0 
Polygon3D 0
PolygonOnTriangulations 0
Surfaces 6
2 0 0 0 0 1 0 0 -0 1 1 0 -0 39.64881889071134
1 0 339.50742552783242 0 0 1 0 0 -0 1 1 0 -0 
1 0 0 0 0 1 0 0 -0 1 1 0 -0 
2 0 0 0 0 1 0 0 -0 1 1 0 -0 36.519599918441706
1 0 339.50742552783242 0 0 1 0 0 -0 1 1 0 -0 
1 0 0 0 0 1 0 0 -0 1 1 0 -0 
Triangulations 0

TShapes 23
Ve
1e-07
-9.71115982889655e-15 339.507425527832 39.6488188907113
0 0

0101101
*
Ed
 1e-07 1 1 0
1  1 0 0 6.28318530717959
2  1 1 0 0 6.28318530717959
2  2 2 0 0 6.28318530717959
0

0101000
+23 0 -23 0 *
Ve
1e-07
-9.71115982889655e-15 0 39.6488188907113
0 0

0101101
*
Ed
 1e-07 1 1 0
1  2 0 0 339.507425527832
3  3 4CN 1 0 0 339.507425527832
0

0101000
-23 0 +21 0 *
Ed
 1e-07 1 1 0
1  3 0 0 6.28318530717959
2  5 1 0 0 6.28318530717959
2  6 3 0 0 6.28318530717959
0

0101000
+21 0 -21 0 *
Wi

0101100
-22 0 +20 0 +19 0 -20 0 *
Fa
0  1e-07 1 0

0111000
+18 0 *
Wi

0101100
+22 0 *
Ve
1e-07
-8.94472222925232e-15 339.507425527832 36.5195999184417
0 0

0101101
*
Ed
 1e-07 1 1 0
1  4 0 0 6.28318530717959
2  7 4 0 0 6.28318530717959
2  8 5 0 0 6.28318530717959
0

0101000
+15 0 -15 0 *
Wi

0101100
-14 0 *
Fa
0  1e-07 2 0

0101000
+16 0 +13 0 *
Wi

0101100
+19 0 *
Ve
1e-07
-8.94472222925232e-15 0 36.5195999184417
0 0

0101101
*
Ed
 1e-07 1 1 0
1  5 0 0 6.28318530717959
2  9 4 0 0 6.28318530717959
2  10 6 0 0 6.28318530717959
0

0101000
+10 0 -10 0 *
Wi

0101100
-9 0 *
Fa
0  1e-07 3 0

0101000
+11 0 +8 0 *
Ed
 1e-07 1 1 0
1  6 0 0 339.507425527832
3  11 12CN 4 0 0 339.507425527832
0

0101000
+10 0 -15 0 *
Wi

0101100
-14 0 +6 0 +9 0 -6 0 *
Fa
0  1e-07 4 0

0101000
+5 0 *
Sh

0101100
+17 0 +12 0 -7 0 -4 0 *
So

0100000
+3 0 *
Co

1100000
+2 0 *

+1 1 