DBRep_DrawableShape

CASCADE Topology V1, (c) Matra-Datavision
Locations 1
1
0.314080708309622 -0.686309157822261 0.655997750420705 27.1546256906473 
-0.220471098771539 0.619348859494858 0.75352470752384 31.1534960793573 
-0.923442365973208 -0.381296118694799 0.0432141943588581 -35.6976134529651 
Curve2ds 12
1 0 474.65469576320675 1 0 
2 0 0 1 0 -0 1 54.585658618973355
1 6.2831853071795862 -0 0 1 
1 0 -0 0 1 
1 0 0 1 0 
2 0 0 1 0 -0 1 54.585658618973355
1 0 474.65469576320675 1 0 
2 0 0 1 0 -0 1 44.806936134436356
1 0 0 1 0 
2 0 0 1 0 -0 1 44.806936134436356
1 6.2831853071795862 -0 0 1 
1 0 -0 0 1 
Curves 6
2 0 474.65469576320675 0 0 1 0 0 -0 1 1 0 -0 54.585658618973355
1 -1.336963042141517e-14 0 54.585658618973355 0 1 0 
2 0 0 0 0 1 0 0 -0 1 1 0 -0 54.585658618973355
2 0 474.65469576320675 0 0 1 0 0 -0 1 1 0 -0 44.806936134436356
2 0 0 0 0 1 0 0 -0 1 1 0 -0 44.806936134436356
1 -1.0974534183327473e-14 0 44.806936134436356 0 1 0 
Polygon3D 0
PolygonOnTriangulations 0
Surfaces 6
2 0 0 0 0 1 0 0 -0 1 1 0 -0 54.585658618973355
1 0 474.65469576320675 0 0 1 0 0 -0 1 1 0 -0 
1 0 0 0 0 1 0 0 -0 1 1 0 -0 
2 0 0 0 0 1 0 0 -0 1 1 0 -0 44.806936134436356
1 0 474.65469576320675 0 0 1 0 0 -0 1 1 0 -0 
1 0 0 0 0 1 0 0 -0 1 1 0 -0 
Triangulations 0

TShapes 23
Ve
1e-07
-1.33696304214152e-14 474.654695763207 54.5856586189734
0 0

0101101
*
Ed
 1e-07 1 1 0
1  1 0 0 6.28318530717959
2  1 1 0 0 6.28318530717959
2  2 2 0 0 6.28318530717959
0

0101000
+23 0 -23 0 *
Ve
1e-07
-1.33696304214152e-14 0 54.5856586189734
0 0

0101101
*
Ed
 1e-07 1 1 0
1  2 0 0 474.654695763207
3  3 4CN 1 0 0 474.654695763207
0

0101000
-23 0 +21 0 *
Ed
 1e-07 1 1 0
1  3 0 0 6.28318530717959
2  5 1 0 0 6.28318530717959
2  6 3 0 0 6.28318530717959
0

0101000
+21 0 -21 0 *
Wi

0101100
-22 0 +20 0 +19 0 -20 0 *
Fa
0  1e-07 1 0

0111000
+18 0 *
Wi

0101100
+22 0 *
Ve
1e-07
-1.09745341833275e-14 474.654695763207 44.8069361344364
0 0

0101101
*
Ed
 1e-07 1 1 0
1  4 0 0 6.28318530717959
2  7 4 0 0 6.28318530717959
2  8 5 0 0 6.28318530717959
0

0101000
+15 0 -15 0 *
Wi

0101100
-14 0 *
Fa
0  1e-07 2 0

0101000
+16 0 +13 0 *
Wi

0101100
+19 0 *
Ve
1e-07
-1.09745341833275e-14 0 44.8069361344364
0 0

0101101
*
Ed
 1e-07 1 1 0
1  5 0 0 6.28318530717959
2  9 4 0 0 6.28318530717959
2  10 6 0 0 6.28318530717959
0

0101000
+10 0 -10 0 *
Wi

0101100
-9 0 *
Fa
0  1e-07 3 0

0101000
+11 0 +8 0 *
Ed
 1e-07 1 1 0
1  6 0 0 474.654695763207
3  11 12CN 4 0 0 474.654695763207
0

0101000
+10 0 -15 0 *
Wi

0101100
-14 0 +6 0 +9 0 -6 0 *
Fa
0  1e-07 4 0

0101000
+5 0 *
Sh

0101100
+17 0 +12 0 -7 0 -4 0 *
So

0100000
+3 0 *
Co

1100000
+2 0 *

+1 1 