DBRep_DrawableShape

CASCADE Topology V1, (c) Matra-Datavision
Locations 1
1
0.476893996258082 0.600597302894089 -0.641759297625942 -7.94207555722758 
-0.00250920221925144 0.731061417314827 0.682307048195941 -45.008390008661 
0.878957234589499 -0.32377783103539 0.350145820898664 47.6869405864579 
Curve2ds 12
1 0 252.24017234196947 1 0 
2 0 0 1 0 -0 1 99.147170761326478
1 6.2831853071795862 -0 0 1 
1 0 -0 0 1 
1 0 0 1 0 
2 0 0 1 0 -0 1 99.147170761326478
1 0 252.24017234196947 1 0 
2 0 0 1 0 -0 1 88.174014865894762
1 0 0 1 0 
2 0 0 1 0 -0 1 88.174014865894762
1 6.2831853071795862 -0 0 1 
1 0 -0 0 1 
Curves 6
2 0 252.24017234196947 0 0 1 0 0 -0 1 1 0 -0 99.147170761326478
1 -2.4284053063474905e-14 0 99.147170761326478 0 1 0 
2 0 0 0 0 1 0 0 -0 1 1 0 -0 99.147170761326478
2 0 252.24017234196947 0 0 1 0 0 -0 1 1 0 -0 88.174014865894762
2 0 0 0 0 1 0 0 -0 1 1 0 -0 88.174014865894762
1 -2.159640501469783e-14 0 88.174014865894762 0 1 0 
Polygon3D 0
PolygonOnTriangulations 0
Surfaces 6
2 0 0 0 0 1 0 0 -0 1 1 0 -0 99.147170761326478
1 0 252.24017234196947 0 0 1 0 0 -0 1 1 0 -0 
1 0 0 0 0 1 0 0 -0 1 1 0 -0 
2 0 0 0 0 1 0 0 -0 1 1 0 -0 88.174014865894762
1 0 252.24017234196947 0 0 1 0 0 -0 1 1 0 -0 
1 0 0 0 0 1 0 0 -0 1 1 0 -0 
Triangulations 0

TShapes 23
Ve
1e-07
-2.42840530634749e-14 252.240172341969 99.1471707613265
0 0

0101101
*
Ed
 1e-07 1 1 0
1  1 0 0 6.28318530717959
2  1 1 0 0 6.28318530717959
2  2 2 0 0 6.28318530717959
0

0101000
+23 0 -23 0 *
Ve
1e-07
-2.42840530634749e-14 0 99.1471707613265
0 0

0101101
*
Ed
 1e-07 1 1 0
1  2 0 0 252.240172341969
3  3 4CN 1 0 0 252.240172341969
0

0101000
-23 0 +21 0 *
Ed
 1e-07 1 1 0
1  3 0 0 6.28318530717959
2  5 1 0 0 6.28318530717959
2  6 3 0 0 6.28318530717959
0

0101000
+21 0 -21 0 *
Wi

0101100
-22 0 +20 0 +19 0 -20 0 *
Fa
0  1e-07 1 0

0111000
+18 0 *
Wi

0101100
+22 0 *
Ve
1e-07
-2.15964050146978e-14 252.240172341969 88.1740148658948
0 0

0101101
*
Ed
 1e-07 1 1 0
1  4 0 0 6.28318530717959
2  7 4 0 0 6.28318530717959
2  8 5 0 0 6.28318530717959
0

0101000
+15 0 -15 0 *
Wi

0101100
-14 0 *
Fa
0  1e-07 2 0

0101000
+16 0 +13 0 *
Wi

0101100
+19 0 *
Ve
1e-07
-2.15964050146978e-14 0 88.1740148658948
0 0

0101101
*
Ed
 1e-07 1 1 0
1  5 0 0 6.28318530717959
2  9 4 0 0 6.28318530717959
2  10 6 0 0 6.28318530717959
0

0101000
+10 0 -10 0 *
Wi

0101100
-9 0 *
Fa
0  1e-07 3 0

0101000
+11 0 +8 0 *
Ed
 1e-07 1 1 0
1  6 0 0 252.240172341969
3  11 12CN 4 0 0 252.240172341969
0

0101000
+10 0 -15 0 *
Wi

0101100
-14 0 +6 0 +9 0 -6 0 *
Fa
0  1e-07 4 0

0101000
+5 0 *
Sh

0101100
+17 0 +12 0 -7 0 -4 0 *
So

0100000
+3 0 *
Co

1100000
+2 0 *

+1 1 