DBRep_DrawableShape

CASCADE Topology V1, (c) Matra-Datavision
Locations 1
1
0.0301856572174892 0.787030996397947 0.616174518141739 -20.745274749647 
-0.573909204442083 0.518360775324332 -0.633979756507897 9.25678544718457 
-0.818362420419586 -0.334491131891434 0.467331393692938 14.8215688171226 
Curve2ds 12
1 0 132.90362749115724 1 0 
2 0 0 1 0 -0 1 66.202844803516427
1 6.2831853071795862 -0 0 1 
1 0 -0 0 1 
1 0 0 1 0 
2 0 0 1 0 -0 1 66.202844803516427
1 0 132.90362749115724 1 0 
2 0 0 1 0 -0 1 63.801921405221506
1 0 0 1 0 
2 0 0 1 0 -0 1 63.801921405221506
1 6.2831853071795862 -0 0 1 
1 0 -0 0 1 
Curves 6
2 0 132.90362749115724 0 0 1 0 0 -0 1 1 0 -0 66.202844803516427
1 -1.6215020396615076e-14 0 66.202844803516427 0 1 0 
2 0 0 0 0 1 0 0 -0 1 1 0 -0 66.202844803516427
2 0 132.90362749115724 0 0 1 0 0 -0 1 1 0 -0 63.801921405221506
2 0 0 0 0 1 0 0 -0 1 1 0 -0 63.801921405221506
1 -1.5626963765671105e-14 0 63.801921405221506 0 1 0 
Polygon3D 0
PolygonOnTriangulations 0
Surfaces 6
2 0 0 0 0 1 0 0 -0 1 1 0 -0 66.202844803516427
1 0 132.90362749115724 0 0 1 0 0 -0 1 1 0 -0 
1 0 0 0 0 1 0 0 -0 1 1 0 -0 
2 0 0 0 0 1 0 0 -0 1 1 0 -0 63.801921405221506
1 0 132.90362749115724 0 0 1 0 0 -0 1 1 0 -0 
1 0 0 0 0 1 0 0 -0 1 1 0 -0 
Triangulations 0

TShapes 23
Ve
1e-07
-1.62150203966151e-14 132.903627491157 66.2028448035164
0 0

0101101
*
Ed
 1e-07 1 1 0
1  1 0 0 6.28318530717959
2  1 1 0 0 6.28318530717959
2  2 2 0 0 6.28318530717959
0

0101000
+23 0 -23 0 *
Ve
1e-07
-1.62150203966151e-14 0 66.2028448035164
0 0

0101101
*
Ed
 1e-07 1 1 0
1  2 0 0 132.903627491157
3  3 4CN 1 0 0 132.903627491157
0

0101000
-23 0 +21 0 *
Ed
 1e-07 1 1 0
1  3 0 0 6.28318530717959
2  5 1 0 0 6.28318530717959
2  6 3 0 0 6.28318530717959
0

0101000
+21 0 -21 0 *
Wi

0101100
-22 0 +20 0 +19 0 -20 0 *
Fa
0  1e-07 1 0

0111000
+18 0 *
Wi

0101100
+22 0 *
Ve
1e-07
-1.56269637656711e-14 132.903627491157 63.8019214052215
0 0

0101101
*
Ed
 1e-07 1 1 0
1  4 0 0 6.28318530717959
2  7 4 0 0 6.28318530717959
2  8 5 0 0 6.28318530717959
0

0101000
+15 0 -15 0 *
Wi

0101100
-14 0 *
Fa
0  1e-07 2 0

0101000
+16 0 +13 0 *
Wi

0101100
+19 0 *
Ve
1e-07
-1.56269637656711e-14 0 63.8019214052215
0 0

0101101
*
Ed
 1e-07 1 1 0
1  5 0 0 6.28318530717959
2  9 4 0 0 6.28318530717959
2  10 6 0 0 6.28318530717959
0

0101000
+10 0 -10 0 *
Wi

0101100
-9 0 *
Fa
0  1e-07 3 0

0101000
+11 0 +8 0 *
Ed
 1e-07 1 1 0
1  6 0 0 132.903627491157
3  11 12CN 4 0 0 132.903627491157
0

0101000
+10 0 -15 0 *
Wi

0101100
-14 0 +6 0 +9 0 -6 0 *
Fa
0  1e-07 4 0

0101000
+5 0 *
Sh

0101100
+17 0 +12 0 -7 0 -4 0 *
So

0100000
+3 0 *
Co

1100000
+2 0 *

+1 1 