DBRep_DrawableShape

CASCADE Topology V1, (c) Matra-Datavision
Locations 1
1
0.238737853524269 -0.921562255418881 0.306149059580281 21.8048626733041 
0.848031829669386 0.351454890639302 0.396637713427897 -5.72744716679298 
-0.473123930024913 0.164931710816877 0.865419711818953 46.3138214908423 
Curve2ds 12
1 0 417.30391281929997 1 0 
2 0 0 1 0 -0 1 46.362535496826581
1 6.2831853071795862 -0 0 1 
1 0 -0 0 1 
1 0 0 1 0 
2 0 0 1 0 -0 1 46.362535496826581
1 0 417.30391281929997 1 0 
2 0 0 1 0 -0 1 43.576227705912743
1 0 0 1 0 
2 0 0 1 0 -0 1 43.576227705912743
1 6.2831853071795862 -0 0 1 
1 0 -0 0 1 
Curves 6
2 0 417.30391281929997 0 0 1 0 0 -0 1 1 0 -0 46.362535496826581
1 -1.1355546139308843e-14 0 46.362535496826581 0 1 0 
2 0 0 0 0 1 0 0 -0 1 1 0 -0 46.362535496826581
2 0 417.30391281929997 0 0 1 0 0 -0 1 1 0 -0 43.576227705912743
2 0 0 0 0 1 0 0 -0 1 1 0 -0 43.576227705912743
1 -1.067309755579245e-14 0 43.576227705912743 0 1 0 
Polygon3D 0
PolygonOnTriangulations 0
Surfaces 6
2 0 0 0 0 1 0 0 -0 1 1 0 -0 46.362535496826581
1 0 417.30391281929997 0 0 1 0 0 -0 1 1 0 -0 
1 0 0 0 0 1 0 0 -0 1 1 0 -0 
2 0 0 0 0 1 0 0 -0 1 1 0 -0 43.576227705912743
1 0 417.30391281929997 0 0 1 0 0 -0 1 1 0 -0 
1 0 0 0 0 1 0 0 -0 1 1 0 -0 
Triangulations 0

TShapes 23
Ve
1e-07
-1.13555461393088e-14 417.3039128193 46.3625354968266
0 0

0101101
*
Ed
 1e-07 1 1 0
1  1 0 0 6.28318530717959
2  1 1 0 0 6.28318530717959
2  2 2 0 0 6.28318530717959
0

0101000
+23 0 -23 0 *
Ve
1e-07
-1.13555461393088e-14 0 46.3625354968266
0 0

0101101
*
Ed
 1e-07 1 1 0
1  2 0 0 417.3039128193
3  3 4CN 1 0 0 417.3039128193
0

0101000
-23 0 +21 0 *
Ed
 1e-07 1 1 0
1  3 0 0 6.28318530717959
2  5 1 0 0 6.28318530717959
2  6 3 0 0 6.28318530717959
0

0101000
+21 0 -21 0 *
Wi

0101100
-22 0 +20 0 +19 0 -20 0 *
Fa
0  1e-07 1 0

0111000
+18 0 *
Wi

0101100
+22 0 *
Ve
1e-07
-1.06730975557925e-14 417.3039128193 43.5762277059127
0 0

0101101
*
Ed
 1e-07 1 1 0
1  4 0 0 6.28318530717959
2  7 4 0 0 6.28318530717959
2  8 5 0 0 6.28318530717959
0

0101000
+15 0 -15 0 *
Wi

0101100
-14 0 *
Fa
0  1e-07 2 0

0101000
+16 0 +13 0 *
Wi

0101100
+19 0 *
Ve
1e-07
-1.06730975557925e-14 0 43.5762277059127
0 0

0101101
*
Ed
 1e-07 1 1 0
1  5 0 0 6.28318530717959
2  9 4 0 0 6.28318530717959
2  10 6 0 0 6.28318530717959
0

0101000
+10 0 -10 0 *
Wi

0101100
-9 0 *
Fa
0  1e-07 3 0

0101000
+11 0 +8 0 *
Ed
 1e-07 1 1 0
1  6 0 0 417.3039128193
3  11 12CN 4 0 0 417.3039128193
0

0101000
+10 0 -15 0 *
Wi

0101100
-14 0 +6 0 +9 0 -6 0 *
Fa
0  1e-07 4 0

0101000
+5 0 *
Sh

0101100
+17 0 +12 0 -7 0 -4 0 *
So

0100000
+3 0 *
Co

1100000
+2 0 *

+1 1 