DBRep_DrawableShape

CASCADE Topology V1, (c) Matra-Datavision
Locations 1
1
0.906846353179214 0.409259959214845 -0.100677591891264 26.3344280353294 
0.0104254208791192 0.21702162732519 0.976111122707153 -8.06506889999056 
0.42133241309571 -0.886232418193213 0.192538563977081 -31.7974688895322 
Curve2ds 12
1 0 111.69984550195218 1 0 
2 0 0 1 0 -0 1 47.57358740697137
1 6.2831853071795862 -0 0 1 
1 0 -0 0 1 
1 0 0 1 0 
2 0 0 1 0 -0 1 47.57358740697137
1 0 111.69984550195218 1 0 
2 0 0 1 0 -0 1 36.077178440249043
1 0 0 1 0 
2 0 0 1 0 -0 1 36.077178440249043
1 6.2831853071795862 -0 0 1 
1 0 -0 0 1 
Curves 6
2 0 111.69984550195218 0 0 1 0 0 -0 1 1 0 -0 47.57358740697137
1 -1.1652168308380863e-14 0 47.57358740697137 0 1 0 
2 0 0 0 0 1 0 0 -0 1 1 0 -0 47.57358740697137
2 0 111.69984550195218 0 0 1 0 0 -0 1 1 0 -0 36.077178440249043
2 0 0 0 0 1 0 0 -0 1 1 0 -0 36.077178440249043
1 -8.8363602198237786e-15 0 36.077178440249043 0 1 0 
Polygon3D 0
PolygonOnTriangulations 0
Surfaces 6
2 0 0 0 0 1 0 0 -0 1 1 0 -0 47.57358740697137
1 0 111.69984550195218 0 0 1 0 0 -0 1 1 0 -0 
1 0 0 0 0 1 0 0 -0 1 1 0 -0 
2 0 0 0 0 1 0 0 -0 1 1 0 -0 36.077178440249043
1 0 111.69984550195218 0 0 1 0 0 -0 1 1 0 -0 
1 0 0 0 0 1 0 0 -0 1 1 0 -0 
Triangulations 0

TShapes 23
Ve
1e-07
-1.16521683083809e-14 111.699845501952 47.5735874069714
0 0

0101101
*
Ed
 1e-07 1 1 0
1  1 0 0 6.28318530717959
2  1 1 0 0 6.28318530717959
2  2 2 0 0 6.28318530717959
0

0101000
+23 0 -23 0 *
Ve
1e-07
-1.16521683083809e-14 0 47.5735874069714
0 0

0101101
*
Ed
 1e-07 1 1 0
1  2 0 0 111.699845501952
3  3 4CN 1 0 0 111.699845501952
0

0101000
-23 0 +21 0 *
Ed
 1e-07 1 1 0
1  3 0 0 6.28318530717959
2  5 1 0 0 6.28318530717959
2  6 3 0 0 6.28318530717959
0

0101000
+21 0 -21 0 *
Wi

0101100
-22 0 +20 0 +19 0 -20 0 *
Fa
0  1e-07 1 0

0111000
+18 0 *
Wi

0101100
+22 0 *
Ve
1e-07
-8.83636021982378e-15 111.699845501952 36.077178440249
0 0

0101101
*
Ed
 1e-07 1 1 0
1  4 0 0 6.28318530717959
2  7 4 0 0 6.28318530717959
2  8 5 0 0 6.28318530717959
0

0101000
+15 0 -15 0 *
Wi

0101100
-14 0 *
Fa
0  1e-07 2 0

0101000
+16 0 +13 0 *
Wi

0101100
+19 0 *
Ve
1e-07
-8.83636021982378e-15 0 36.077178440249
0 0

0101101
*
Ed
 1e-07 1 1 0
1  5 0 0 6.28318530717959
2  9 4 0 0 6.28318530717959
2  10 6 0 0 6.28318530717959
0

0101000
+10 0 -10 0 *
Wi

0101100
-9 0 *
Fa
0  1e-07 3 0

0101000
+11 0 +8 0 *
Ed
 1e-07 1 1 0
1  6 0 0 111.699845501952
3  11 12CN 4 0 0 111.699845501952
0

0101000
+10 0 -15 0 *
Wi

0101100
-14 0 +6 0 +9 0 -6 0 *
Fa
0  1e-07 4 0

0101000
+5 0 *
Sh

0101100
+17 0 +12 0 -7 0 -4 0 *
So

0100000
+3 0 *
Co

1100000
+2 0 *

+1 1 