DBRep_DrawableShape

CASCADE Topology V1, (c) Matra-Datavision
Locations 1
1
0.00537874081676015 -0.124691750021275 0.992180949536857 44.6739158811968 
0.547914197624997 -0.829632998824234 -0.107233946597447 -5.80695364167162 
0.836517245003462 0.544206812469801 0.0638579992896564 27.0966504380468 
Curve2ds 12
1 0 387.1292685053412 1 0 
2 0 0 1 0 -0 1 65.166683908071562
1 6.2831853071795862 -0 0 1 
1 0 -0 0 1 
1 0 0 1 0 
2 0 0 1 0 -0 1 65.166683908071562
1 0 387.1292685053412 1 0 
2 0 0 1 0 -0 1 56.938543017297505
1 0 0 1 0 
2 0 0 1 0 -0 1 56.938543017297505
1 6.2831853071795862 -0 0 1 
1 0 -0 0 1 
Curves 6
2 0 387.1292685053412 0 0 1 0 0 -0 1 1 0 -0 65.166683908071562
1 -1.5961234171813433e-14 0 65.166683908071562 0 1 0 
2 0 0 0 0 1 0 0 -0 1 1 0 -0 65.166683908071562
2 0 387.1292685053412 0 0 1 0 0 -0 1 1 0 -0 56.938543017297505
2 0 0 0 0 1 0 0 -0 1 1 0 -0 56.938543017297505
1 -1.3945920890849454e-14 0 56.938543017297505 0 1 0 
Polygon3D 0
PolygonOnTriangulations 0
Surfaces 6
2 0 0 0 0 1 0 0 -0 1 1 0 -0 65.166683908071562
1 0 387.1292685053412 0 0 1 0 0 -0 1 1 0 -0 
1 0 0 0 0 1 0 0 -0 1 1 0 -0 
2 0 0 0 0 1 0 0 -0 1 1 0 -0 56.938543017297505
1 0 387.1292685053412 0 0 1 0 0 -0 1 1 0 -0 
1 0 0 0 0 1 0 0 -0 1 1 0 -0 
Triangulations 0

TShapes 23
Ve
1e-07
-1.59612341718134e-14 387.129268505341 65.1666839080716
0 0

0101101
*
Ed
 1e-07 1 1 0
1  1 0 0 6.28318530717959
2  1 1 0 0 6.28318530717959
2  2 2 0 0 6.28318530717959
0

0101000
+23 0 -23 0 *
Ve
1e-07
-1.59612341718134e-14 0 65.1666839080716
0 0

0101101
*
Ed
 1e-07 1 1 0
1  2 0 0 387.129268505341
3  3 4CN 1 0 0 387.129268505341
0

0101000
-23 0 +21 0 *
Ed
 1e-07 1 1 0
1  3 0 0 6.28318530717959
2  5 1 0 0 6.28318530717959
2  6 3 0 0 6.28318530717959
0

0101000
+21 0 -21 0 *
Wi

0101100
-22 0 +20 0 +19 0 -20 0 *
Fa
0  1e-07 1 0

0111000
+18 0 *
Wi

0101100
+22 0 *
Ve
1e-07
-1.39459208908495e-14 387.129268505341 56.9385430172975
0 0

0101101
*
Ed
 1e-07 1 1 0
1  4 0 0 6.28318530717959
2  7 4 0 0 6.28318530717959
2  8 5 0 0 6.28318530717959
0

0101000
+15 0 -15 0 *
Wi

0101100
-14 0 *
Fa
0  1e-07 2 0

0101000
+16 0 +13 0 *
Wi

0101100
+19 0 *
Ve
1e-07
-1.39459208908495e-14 0 56.9385430172975
0 0

0101101
*
Ed
 1e-07 1 1 0
1  5 0 0 6.28318530717959
2  9 4 0 0 6.28318530717959
2  10 6 0 0 6.28318530717959
0

0101000
+10 0 -10 0 *
Wi

0101100
-9 0 *
Fa
0  1e-07 3 0

0101000
+11 0 +8 0 *
Ed
 1e-07 1 1 0
1  6 0 0 387.129268505341
3  11 12CN 4 0 0 387.129268505341
0

0101000
+10 0 -15 0 *
Wi

0101100
-14 0 +6 0 +9 0 -6 0 *
Fa
0  1e-07 4 0

0101000
+5 0 *
Sh

0101100
+17 0 +12 0 -7 0 -4 0 *
So

0100000
+3 0 *
Co

1100000
+2 0 *

+1 1 