DBRep_DrawableShape

CASCADE Topology V1, (c) Matra-Datavision
Locations 1
1
0.413780805459106 -0.0859405835987981 -0.906311017876486 -27.3686652970637 
-0.815504613411556 0.407505375218182 -0.410964225538863 28.2699624833583 
0.404645116785168 0.909149924522346 0.0985329599825935 38.2109663314706 
Curve2ds 12
1 0 379.74341688547213 1 0 
2 0 0 1 0 -0 1 19.605289560541692
1 6.2831853071795862 -0 0 1 
1 0 -0 0 1 
1 0 0 1 0 
2 0 0 1 0 -0 1 19.605289560541692
1 0 379.74341688547213 1 0 
2 0 0 1 0 -0 1 4.4985377926875767
1 0 0 1 0 
2 0 0 1 0 -0 1 4.4985377926875767
1 6.2831853071795862 -0 0 1 
1 0 -0 0 1 
Curves 6
2 0 379.74341688547213 0 0 1 0 0 -0 1 1 0 -0 19.605289560541692
1 -4.8019110213348802e-15 0 19.605289560541692 0 1 0 
2 0 0 0 0 1 0 0 -0 1 1 0 -0 19.605289560541692
2 0 379.74341688547213 0 0 1 0 0 -0 1 1 0 -0 4.4985377926875767
2 0 0 0 0 1 0 0 -0 1 1 0 -0 4.4985377926875767
1 -1.101823981731648e-15 0 4.4985377926875767 0 1 0 
Polygon3D 0
PolygonOnTriangulations 0
Surfaces 6
2 0 0 0 0 1 0 0 -0 1 1 0 -0 19.605289560541692
1 0 379.74341688547213 0 0 1 0 0 -0 1 1 0 -0 
1 0 0 0 0 1 0 0 -0 1 1 0 -0 
2 0 0 0 0 1 0 0 -0 1 1 0 -0 4.4985377926875767
1 0 379.74341688547213 0 0 1 0 0 -0 1 1 0 -0 
1 0 0 0 0 1 0 0 -0 1 1 0 -0 
Triangulations 0

TShapes 23
Ve
1e-07
-4.80191102133488e-15 379.743416885472 19.6052895605417
0 0

0101101
*
Ed
 1e-07 1 1 0
1  1 0 0 6.28318530717959
2  1 1 0 0 6.28318530717959
2  2 2 0 0 6.28318530717959
0

0101000
+23 0 -23 0 *
Ve
1e-07
-4.80191102133488e-15 0 19.6052895605417
0 0

0101101
*
Ed
 1e-07 1 1 0
1  2 0 0 379.743416885472
3  3 4CN 1 0 0 379.743416885472
0

0101000
-23 0 +21 0 *
Ed
 1e-07 1 1 0
1  3 0 0 6.28318530717959
2  5 1 0 0 6.28318530717959
2  6 3 0 0 6.28318530717959
0

0101000
+21 0 -21 0 *
Wi

0101100
-22 0 +20 0 +19 0 -20 0 *
Fa
0  1e-07 1 0

0111000
+18 0 *
Wi

0101100
+22 0 *
Ve
1e-07
-1.10182398173165e-15 379.743416885472 4.49853779268758
0 0

0101101
*
Ed
 1e-07 1 1 0
1  4 0 0 6.28318530717959
2  7 4 0 0 6.28318530717959
2  8 5 0 0 6.28318530717959
0

0101000
+15 0 -15 0 *
Wi

0101100
-14 0 *
Fa
0  1e-07 2 0

0101000
+16 0 +13 0 *
Wi

0101100
+19 0 *
Ve
1e-07
-1.10182398173165e-15 0 4.49853779268758
0 0

0101101
*
Ed
 1e-07 1 1 0
1  5 0 0 6.28318530717959
2  9 4 0 0 6.28318530717959
2  10 6 0 0 6.28318530717959
0

0101000
+10 0 -10 0 *
Wi

0101100
-9 0 *
Fa
0  1e-07 3 0

0101000
+11 0 +8 0 *
Ed
 1e-07 1 1 0
1  6 0 0 379.743416885472
3  11 12CN 4 0 0 379.743416885472
0

0101000
+10 0 -15 0 *
Wi

0101100
-14 0 +6 0 +9 0 -6 0 *
Fa
0  1e-07 4 0

0101000
+5 0 *
Sh

0101100
+17 0 +12 0 -7 0 -4 0 *
So

0100000
+3 0 *
Co

1100000
+2 0 *

+1 1 