DBRep_DrawableShape

CASCADE Topology V1, (c) Matra-Datavision
Locations 1
1
0.468727021029616 0.254548780413818 -0.845872270586133 17.1826086915148 
-0.562106207927479 0.824637309565407 -0.0633239187204693 -26.2019078224014 
0.681418807170811 0.505151686191945 0.529613239233446 -39.6056931573256 
Curve2ds 12
1 0 425.05905282529432 1 0 
2 0 0 1 0 -0 1 45.331173784569089
1 6.2831853071795862 -0 0 1 
1 0 -0 0 1 
1 0 0 1 0 
2 0 0 1 0 -0 1 45.331173784569089
1 0 425.05905282529432 1 0 
2 0 0 1 0 -0 1 39.545531363404962
1 0 0 1 0 
2 0 0 1 0 -0 1 39.545531363404962
1 6.2831853071795862 -0 0 1 
1 0 -0 0 1 
Curves 6
2 0 425.05905282529432 0 0 1 0 0 -0 1 1 0 -0 45.331173784569089
1 -1.1102935375372988e-14 0 45.331173784569089 0 1 0 
2 0 0 0 0 1 0 0 -0 1 1 0 -0 45.331173784569089
2 0 425.05905282529432 0 0 1 0 0 -0 1 1 0 -0 39.545531363404962
2 0 0 0 0 1 0 0 -0 1 1 0 -0 39.545531363404962
1 -9.685861680955031e-15 0 39.545531363404962 0 1 0 
Polygon3D 0
PolygonOnTriangulations 0
Surfaces 6
2 0 0 0 0 1 0 0 -0 1 1 0 -0 45.331173784569089
1 0 425.05905282529432 0 0 1 0 0 -0 1 1 0 -0 
1 0 0 0 0 1 0 0 -0 1 1 0 -0 
2 0 0 0 0 1 0 0 -0 1 1 0 -0 39.545531363404962
1 0 425.05905282529432 0 0 1 0 0 -0 1 1 0 -0 
1 0 0 0 0 1 0 0 -0 1 1 0 -0 
Triangulations 0

TShapes 23
Ve
1e-07
-1.1102935375373e-14 425.059052825294 45.3311737845691
0 0

0101101
*
Ed
 1e-07 1 1 0
1  1 0 0 6.28318530717959
2  1 1 0 0 6.28318530717959
2  2 2 0 0 6.28318530717959
0

0101000
+23 0 -23 0 *
Ve
1e-07
-1.1102935375373e-14 0 45.3311737845691
0 0

0101101
*
Ed
 1e-07 1 1 0
1  2 0 0 425.059052825294
3  3 4CN 1 0 0 425.059052825294
0

0101000
-23 0 +21 0 *
Ed
 1e-07 1 1 0
1  3 0 0 6.28318530717959
2  5 1 0 0 6.28318530717959
2  6 3 0 0 6.28318530717959
0

0101000
+21 0 -21 0 *
Wi

0101100
-22 0 +20 0 +19 0 -20 0 *
Fa
0  1e-07 1 0

0111000
+18 0 *
Wi

0101100
+22 0 *
Ve
1e-07
-9.68586168095503e-15 425.059052825294 39.545531363405
0 0

0101101
*
Ed
 1e-07 1 1 0
1  4 0 0 6.28318530717959
2  7 4 0 0 6.28318530717959
2  8 5 0 0 6.28318530717959
0

0101000
+15 0 -15 0 *
Wi

0101100
-14 0 *
Fa
0  1e-07 2 0

0101000
+16 0 +13 0 *
Wi

0101100
+19 0 *
Ve
1e-07
-9.68586168095503e-15 0 39.545531363405
0 0

0101101
*
Ed
 1e-07 1 1 0
1  5 0 0 6.28318530717959
2  9 4 0 0 6.28318530717959
2  10 6 0 0 6.28318530717959
0

0101000
+10 0 -10 0 *
Wi

0101100
-9 0 *
Fa
0  1e-07 3 0

0101000
+11 0 +8 0 *
Ed
 1e-07 1 1 0
1  6 0 0 425.059052825294
3  11 12CN 4 0 0 425.059052825294
0

0101000
+10 0 -15 0 *
Wi

0101100
-14 0 +6 0 +9 0 -6 0 *
Fa
0  1e-07 4 0

0101000
+5 0 *
Sh

0101100
+17 0 +12 0 -7 0 -4 0 *
So

0100000
+3 0 *
Co

1100000
+2 0 *

+1 1 