DBRep_DrawableShape

CASCADE Topology V1, (c) Matra-Datavision
Locations 1
1
0.676968473145517 -0.346955841901585 0.649103481840445 3.79321245790543 
0.690124102058638 -0.00730406834515444 -0.723654181459189 6.55240999419902 
0.255817141968216 0.937853023856069 0.23449796485096 20.6171088130415 
Curve2ds 12
1 0 337.6615727222723 1 0 
2 0 0 1 0 -0 1 14.824174572072874
1 6.2831853071795862 -0 0 1 
1 0 -0 0 1 
1 0 0 1 0 
2 0 0 1 0 -0 1 14.824174572072874
1 0 337.6615727222723 1 0 
2 0 0 1 0 -0 1 11.594254174584455
1 0 0 1 0 
2 0 0 1 0 -0 1 11.594254174584455
1 6.2831853071795862 -0 0 1 
1 0 -0 0 1 
Curves 6
2 0 337.6615727222723 0 0 1 0 0 -0 1 1 0 -0 14.824174572072874
1 -3.6308755879381262e-15 0 14.824174572072874 0 1 0 
2 0 0 0 0 1 0 0 -0 1 1 0 -0 14.824174572072874
2 0 337.6615727222723 0 0 1 0 0 -0 1 1 0 -0 11.594254174584455
2 0 0 0 0 1 0 0 -0 1 1 0 -0 11.594254174584455
1 -2.839773252681138e-15 0 11.594254174584455 0 1 0 
Polygon3D 0
PolygonOnTriangulations 0
Surfaces 6
2 0 0 0 0 1 0 0 -0 1 1 0 -0 14.824174572072874
1 0 337.6615727222723 0 0 1 0 0 -0 1 1 0 -0 
1 0 0 0 0 1 0 0 -0 1 1 0 -0 
2 0 0 0 0 1 0 0 -0 1 1 0 -0 11.594254174584455
1 0 337.6615727222723 0 0 1 0 0 -0 1 1 0 -0 
1 0 0 0 0 1 0 0 -0 1 1 0 -0 
Triangulations 0

TShapes 23
Ve
1e-07
-3.63087558793813e-15 337.661572722272 14.8241745720729
0 0

0101101
*
Ed
 1e-07 1 1 0
1  1 0 0 6.28318530717959
2  1 1 0 0 6.28318530717959
2  2 2 0 0 6.28318530717959
0

0101000
+23 0 -23 0 *
Ve
1e-07
-3.63087558793813e-15 0 14.8241745720729
0 0

0101101
*
Ed
 1e-07 1 1 0
1  2 0 0 337.661572722272
3  3 4CN 1 0 0 337.661572722272
0

0101000
-23 0 +21 0 *
Ed
 1e-07 1 1 0
1  3 0 0 6.28318530717959
2  5 1 0 0 6.28318530717959
2  6 3 0 0 6.28318530717959
0

0101000
+21 0 -21 0 *
Wi

0101100
-22 0 +20 0 +19 0 -20 0 *
Fa
0  1e-07 1 0

0111000
+18 0 *
Wi

0101100
+22 0 *
Ve
1e-07
-2.83977325268114e-15 337.661572722272 11.5942541745845
0 0

0101101
*
Ed
 1e-07 1 1 0
1  4 0 0 6.28318530717959
2  7 4 0 0 6.28318530717959
2  8 5 0 0 6.28318530717959
0

0101000
+15 0 -15 0 *
Wi

0101100
-14 0 *
Fa
0  1e-07 2 0

0101000
+16 0 +13 0 *
Wi

0101100
+19 0 *
Ve
1e-07
-2.83977325268114e-15 0 11.5942541745845
0 0

0101101
*
Ed
 1e-07 1 1 0
1  5 0 0 6.28318530717959
2  9 4 0 0 6.28318530717959
2  10 6 0 0 6.28318530717959
0

0101000
+10 0 -10 0 *
Wi

0101100
-9 0 *
Fa
0  1e-07 3 0

0101000
+11 0 +8 0 *
Ed
 1e-07 1 1 0
1  6 0 0 337.661572722272
3  11 12CN 4 0 0 337.661572722272
0

0101000
+10 0 -15 0 *
Wi

0101100
-14 0 +6 0 +9 0 -6 0 *
Fa
0  1e-07 4 0

0101000
+5 0 *
Sh

0101100
+17 0 +12 0 -7 0 -4 0 *
So

0100000
+3 0 *
Co

1100000
+2 0 *

+1 1 