DBRep_DrawableShape

CASCADE Topology V1, (c) Matra-Datavision
Locations 1
1
0.0883887549016618 -0.942893753329902 -0.321152297108995 -30.9627760129943 
0.978231297336998 0.142940819135293 -0.150437532335867 22.2046280795006 
0.187752381921795 -0.300864242070043 0.935002540598854 23.5846993758521 
Curve2ds 12
1 0 365.71498959316835 1 0 
2 0 0 1 0 -0 1 32.419675189773642
1 6.2831853071795862 -0 0 1 
1 0 -0 0 1 
1 0 0 1 0 
2 0 0 1 0 -0 1 32.419675189773642
1 0 365.71498959316835 1 0 
2 0 0 1 0 -0 1 29.72863936210668
1 0 0 1 0 
2 0 0 1 0 -0 1 29.72863936210668
1 6.2831853071795862 -0 0 1 
1 0 -0 0 1 
Curves 6
2 0 365.71498959316835 0 0 1 0 0 -0 1 1 0 -0 32.419675189773642
1 -7.9405302901106295e-15 0 32.419675189773642 0 1 0 
2 0 0 0 0 1 0 0 -0 1 1 0 -0 32.419675189773642
2 0 365.71498959316835 0 0 1 0 0 -0 1 1 0 -0 29.72863936210668
2 0 0 0 0 1 0 0 -0 1 1 0 -0 29.72863936210668
1 -7.2814166075619912e-15 0 29.72863936210668 0 1 0 
Polygon3D 0
PolygonOnTriangulations 0
Surfaces 6
2 0 0 0 0 1 0 0 -0 1 1 0 -0 32.419675189773642
1 0 365.71498959316835 0 0 1 0 0 -0 1 1 0 -0 
1 0 0 0 0 1 0 0 -0 1 1 0 -0 
2 0 0 0 0 1 0 0 -0 1 1 0 -0 29.72863936210668
1 0 365.71498959316835 0 0 1 0 0 -0 1 1 0 -0 
1 0 0 0 0 1 0 0 -0 1 1 0 -0 
Triangulations 0

TShapes 23
Ve
1e-07
-7.94053029011063e-15 365.714989593168 32.4196751897736
0 0

0101101
*
Ed
 1e-07 1 1 0
1  1 0 0 6.28318530717959
2  1 1 0 0 6.28318530717959
2  2 2 0 0 6.28318530717959
0

0101000
+23 0 -23 0 *
Ve
1e-07
-7.94053029011063e-15 0 32.4196751897736
0 0

0101101
*
Ed
 1e-07 1 1 0
1  2 0 0 365.714989593168
3  3 4CN 1 0 0 365.714989593168
0

0101000
-23 0 +21 0 *
Ed
 1e-07 1 1 0
1  3 0 0 6.28318530717959
2  5 1 0 0 6.28318530717959
2  6 3 0 0 6.28318530717959
0

0101000
+21 0 -21 0 *
Wi

0101100
-22 0 +20 0 +19 0 -20 0 *
Fa
0  1e-07 1 0

0111000
+18 0 *
Wi

0101100
+22 0 *
Ve
1e-07
-7.28141660756199e-15 365.714989593168 29.7286393621067
0 0

0101101
*
Ed
 1e-07 1 1 0
1  4 0 0 6.28318530717959
2  7 4 0 0 6.28318530717959
2  8 5 0 0 6.28318530717959
0

0101000
+15 0 -15 0 *
Wi

0101100
-14 0 *
Fa
0  1e-07 2 0

0101000
+16 0 +13 0 *
Wi

0101100
+19 0 *
Ve
1e-07
-7.28141660756199e-15 0 29.7286393621067
0 0

0101101
*
Ed
 1e-07 1 1 0
1  5 0 0 6.28318530717959
2  9 4 0 0 6.28318530717959
2  10 6 0 0 6.28318530717959
0

0101000
+10 0 -10 0 *
Wi

0101100
-9 0 *
Fa
0  1e-07 3 0

0101000
+11 0 +8 0 *
Ed
 1e-07 1 1 0
1  6 0 0 365.714989593168
3  11 12CN 4 0 0 365.714989593168
0

0101000
+10 0 -15 0 *
Wi

0101100
-14 0 +6 0 +9 0 -6 0 *
Fa
0  1e-07 4 0

0101000
+5 0 *
Sh

0101100
+17 0 +12 0 -7 0 -4 0 *
So

0100000
+3 0 *
Co

1100000
+2 0 *

+1 1 