DBRep_DrawableShape

CASCADE Topology V1, (c) Matra-Datavision
Locations 1
1
0.495529318697896 0.86447912846677 0.0844187820104848 10.6167134899326 
-0.183807923442295 0.00937618962358155 0.982917460597773 -6.55388536937228 
0.848920103184411 -0.502581260607155 0.163544290318838 2.83300796121604 
Curve2ds 12
1 0 242.61185313787433 1 0 
2 0 0 1 0 -0 1 59.576660852157936
1 6.2831853071795862 -0 0 1 
1 0 -0 0 1 
1 0 0 1 0 
2 0 0 1 0 -0 1 59.576660852157936
1 0 242.61185313787433 1 0 
2 0 0 1 0 -0 1 47.363956554442517
1 0 0 1 0 
2 0 0 1 0 -0 1 47.363956554442517
1 6.2831853071795862 -0 0 1 
1 0 -0 0 1 
Curves 6
2 0 242.61185313787433 0 0 1 0 0 -0 1 1 0 -0 59.576660852157936
1 -1.4592073403296527e-14 0 59.576660852157936 0 1 0 
2 0 0 0 0 1 0 0 -0 1 1 0 -0 59.576660852157936
2 0 242.61185313787433 0 0 1 0 0 -0 1 1 0 -0 47.363956554442517
2 0 0 0 0 1 0 0 -0 1 1 0 -0 47.363956554442517
1 -1.1600823557870466e-14 0 47.363956554442517 0 1 0 
Polygon3D 0
PolygonOnTriangulations 0
Surfaces 6
2 0 0 0 0 1 0 0 -0 1 1 0 -0 59.576660852157936
1 0 242.61185313787433 0 0 1 0 0 -0 1 1 0 -0 
1 0 0 0 0 1 0 0 -0 1 1 0 -0 
2 0 0 0 0 1 0 0 -0 1 1 0 -0 47.363956554442517
1 0 242.61185313787433 0 0 1 0 0 -0 1 1 0 -0 
1 0 0 0 0 1 0 0 -0 1 1 0 -0 
Triangulations 0

TShapes 23
Ve
1e-07
-1.45920734032965e-14 242.611853137874 59.5766608521579
0 0

0101101
*
Ed
 1e-07 1 1 0
1  1 0 0 6.28318530717959
2  1 1 0 0 6.28318530717959
2  2 2 0 0 6.28318530717959
0

0101000
+23 0 -23 0 *
Ve
1e-07
-1.45920734032965e-14 0 59.5766608521579
0 0

0101101
*
Ed
 1e-07 1 1 0
1  2 0 0 242.611853137874
3  3 4CN 1 0 0 242.611853137874
0

0101000
-23 0 +21 0 *
Ed
 1e-07 1 1 0
1  3 0 0 6.28318530717959
2  5 1 0 0 6.28318530717959
2  6 3 0 0 6.28318530717959
0

0101000
+21 0 -21 0 *
Wi

0101100
-22 0 +20 0 +19 0 -20 0 *
Fa
0  1e-07 1 0

0111000
+18 0 *
Wi

0101100
+22 0 *
Ve
1e-07
-1.16008235578705e-14 242.611853137874 47.3639565544425
0 0

0101101
*
Ed
 1e-07 1 1 0
1  4 0 0 6.28318530717959
2  7 4 0 0 6.28318530717959
2  8 5 0 0 6.28318530717959
0

0101000
+15 0 -15 0 *
Wi

0101100
-14 0 *
Fa
0  1e-07 2 0

0101000
+16 0 +13 0 *
Wi

0101100
+19 0 *
Ve
1e-07
-1.16008235578705e-14 0 47.3639565544425
0 0

0101101
*
Ed
 1e-07 1 1 0
1  5 0 0 6.28318530717959
2  9 4 0 0 6.28318530717959
2  10 6 0 0 6.28318530717959
0

0101000
+10 0 -10 0 *
Wi

0101100
-9 0 *
Fa
0  1e-07 3 0

0101000
+11 0 +8 0 *
Ed
 1e-07 1 1 0
1  6 0 0 242.611853137874
3  11 12CN 4 0 0 242.611853137874
0

0101000
+10 0 -15 0 *
Wi

0101100
-14 0 +6 0 +9 0 -6 0 *
Fa
0  1e-07 4 0

0101000
+5 0 *
Sh

0101100
+17 0 +12 0 -7 0 -4 0 *
So

0100000
+3 0 *
Co

1100000
+2 0 *

+1 1 