DBRep_DrawableShape

CASCADE Topology V1, (c) Matra-Datavision
Locations 1
1
0.485072641879128 0.265205825811398 0.833288906716091 -43.9457461696949 
0.179519569772715 0.902407652634272 -0.391705441034104 18.4645737059464 
-0.855848851240114 0.33959725915089 0.390123628364369 0.451755403521268 
Curve2ds 12
1 0 241.96789633011176 1 0 
2 0 0 1 0 -0 1 43.106401871983124
1 6.2831853071795862 -0 0 1 
1 0 -0 0 1 
1 0 0 1 0 
2 0 0 1 0 -0 1 43.106401871983124
1 0 241.96789633011176 1 0 
2 0 0 1 0 -0 1 31.453128060058663
1 0 0 1 0 
2 0 0 1 0 -0 1 31.453128060058663
1 6.2831853071795862 -0 0 1 
1 0 -0 0 1 
Curves 6
2 0 241.96789633011176 0 0 1 0 0 -0 1 1 0 -0 43.106401871983124
1 -1.0558023415056722e-14 0 43.106401871983124 0 1 0 
2 0 0 0 0 1 0 0 -0 1 1 0 -0 43.106401871983124
2 0 241.96789633011176 0 0 1 0 0 -0 1 1 0 -0 31.453128060058663
2 0 0 0 0 1 0 0 -0 1 1 0 -0 31.453128060058663
1 -7.7037945203845283e-15 0 31.453128060058663 0 1 0 
Polygon3D 0
PolygonOnTriangulations 0
Surfaces 6
2 0 0 0 0 1 0 0 -0 1 1 0 -0 43.106401871983124
1 0 241.96789633011176 0 0 1 0 0 -0 1 1 0 -0 
1 0 0 0 0 1 0 0 -0 1 1 0 -0 
2 0 0 0 0 1 0 0 -0 1 1 0 -0 31.453128060058663
1 0 241.96789633011176 0 0 1 0 0 -0 1 1 0 -0 
1 0 0 0 0 1 0 0 -0 1 1 0 -0 
Triangulations 0

TShapes 23
Ve
1e-07
-1.05580234150567e-14 241.967896330112 43.1064018719831
0 0

0101101
*
Ed
 1e-07 1 1 0
1  1 0 0 6.28318530717959
2  1 1 0 0 6.28318530717959
2  2 2 0 0 6.28318530717959
0

0101000
+23 0 -23 0 *
Ve
1e-07
-1.05580234150567e-14 0 43.1064018719831
0 0

0101101
*
Ed
 1e-07 1 1 0
1  2 0 0 241.967896330112
3  3 4CN 1 0 0 241.967896330112
0

0101000
-23 0 +21 0 *
Ed
 1e-07 1 1 0
1  3 0 0 6.28318530717959
2  5 1 0 0 6.28318530717959
2  6 3 0 0 6.28318530717959
0

0101000
+21 0 -21 0 *
Wi

0101100
-22 0 +20 0 +19 0 -20 0 *
Fa
0  1e-07 1 0

0111000
+18 0 *
Wi

0101100
+22 0 *
Ve
1e-07
-7.70379452038453e-15 241.967896330112 31.4531280600587
0 0

0101101
*
Ed
 1e-07 1 1 0
1  4 0 0 6.28318530717959
2  7 4 0 0 6.28318530717959
2  8 5 0 0 6.28318530717959
0

0101000
+15 0 -15 0 *
Wi

0101100
-14 0 *
Fa
0  1e-07 2 0

0101000
+16 0 +13 0 *
Wi

0101100
+19 0 *
Ve
1e-07
-7.70379452038453e-15 0 31.4531280600587
0 0

0101101
*
Ed
 1e-07 1 1 0
1  5 0 0 6.28318530717959
2  9 4 0 0 6.28318530717959
2  10 6 0 0 6.28318530717959
0

0101000
+10 0 -10 0 *
Wi

0101100
-9 0 *
Fa
0  1e-07 3 0

0101000
+11 0 +8 0 *
Ed
 1e-07 1 1 0
1  6 0 0 241.967896330112
3  11 12CN 4 0 0 241.967896330112
0

0101000
+10 0 -15 0 *
Wi

0101100
-14 0 +6 0 +9 0 -6 0 *
Fa
0  1e-07 4 0

0101000
+5 0 *
Sh

0101100
+17 0 +12 0 -7 0 -4 0 *
So

0100000
+3 0 *
Co

1100000
+2 0 *

+1 1 