DBRep_DrawableShape

CASCADE Topology V1, (c) Matra-Datavision
Locations 1
1
0.00215211541643867 -0.858872309011621 0.512185245016178 -49.9044880800503 
0.479849512683598 0.450253823608681 0.753004607889671 -22.5867717483093 
-0.877348171239074 0.244151287399454 0.413098457131762 -27.4440048543337 
Curve2ds 12
1 0 319.0457908123214 1 0 
2 0 0 1 0 -0 1 77.214819147804405
1 6.2831853071795862 -0 0 1 
1 0 -0 0 1 
1 0 0 1 0 
2 0 0 1 0 -0 1 77.214819147804405
1 0 319.0457908123214 1 0 
2 0 0 1 0 -0 1 64.9136390528421
1 0 0 1 0 
2 0 0 1 0 -0 1 64.9136390528421
1 6.2831853071795862 -0 0 1 
1 0 -0 0 1 
Curves 6
2 0 319.0457908123214 0 0 1 0 0 -0 1 1 0 -0 77.214819147804405
1 -1.8912176223220084e-14 0 77.214819147804405 0 1 0 
2 0 0 0 0 1 0 0 -0 1 1 0 -0 77.214819147804405
2 0 319.0457908123214 0 0 1 0 0 -0 1 1 0 -0 64.9136390528421
2 0 0 0 0 1 0 0 -0 1 1 0 -0 64.9136390528421
1 -1.5899256057413939e-14 0 64.9136390528421 0 1 0 
Polygon3D 0
PolygonOnTriangulations 0
Surfaces 6
2 0 0 0 0 1 0 0 -0 1 1 0 -0 77.214819147804405
1 0 319.0457908123214 0 0 1 0 0 -0 1 1 0 -0 
1 0 0 0 0 1 0 0 -0 1 1 0 -0 
2 0 0 0 0 1 0 0 -0 1 1 0 -0 64.9136390528421
1 0 319.0457908123214 0 0 1 0 0 -0 1 1 0 -0 
1 0 0 0 0 1 0 0 -0 1 1 0 -0 
Triangulations 0

TShapes 23
Ve
1e-07
-1.89121762232201e-14 319.045790812321 77.2148191478044
0 0

0101101
*
Ed
 1e-07 1 1 0
1  1 0 0 6.28318530717959
2  1 1 0 0 6.28318530717959
2  2 2 0 0 6.28318530717959
0

0101000
+23 0 -23 0 *
Ve
1e-07
-1.89121762232201e-14 0 77.2148191478044
0 0

0101101
*
Ed
 1e-07 1 1 0
1  2 0 0 319.045790812321
3  3 4CN 1 0 0 319.045790812321
0

0101000
-23 0 +21 0 *
Ed
 1e-07 1 1 0
1  3 0 0 6.28318530717959
2  5 1 0 0 6.28318530717959
2  6 3 0 0 6.28318530717959
0

0101000
+21 0 -21 0 *
Wi

0101100
-22 0 +20 0 +19 0 -20 0 *
Fa
0  1e-07 1 0

0111000
+18 0 *
Wi

0101100
+22 0 *
Ve
1e-07
-1.58992560574139e-14 319.045790812321 64.9136390528421
0 0

0101101
*
Ed
 1e-07 1 1 0
1  4 0 0 6.28318530717959
2  7 4 0 0 6.28318530717959
2  8 5 0 0 6.28318530717959
0

0101000
+15 0 -15 0 *
Wi

0101100
-14 0 *
Fa
0  1e-07 2 0

0101000
+16 0 +13 0 *
Wi

0101100
+19 0 *
Ve
1e-07
-1.58992560574139e-14 0 64.9136390528421
0 0

0101101
*
Ed
 1e-07 1 1 0
1  5 0 0 6.28318530717959
2  9 4 0 0 6.28318530717959
2  10 6 0 0 6.28318530717959
0

0101000
+10 0 -10 0 *
Wi

0101100
-9 0 *
Fa
0  1e-07 3 0

0101000
+11 0 +8 0 *
Ed
 1e-07 1 1 0
1  6 0 0 319.045790812321
3  11 12CN 4 0 0 319.045790812321
0

0101000
+10 0 -15 0 *
Wi

0101100
-14 0 +6 0 +9 0 -6 0 *
Fa
0  1e-07 4 0

0101000
+5 0 *
Sh

0101100
+17 0 +12 0 -7 0 -4 0 *
So

0100000
+3 0 *
Co

1100000
+2 0 *

+1 1 