DBRep_DrawableShape

CASCADE Topology V1, (c) Matra-Datavision
Locations 1
1
0.750987154894565 0.183342746907248 0.634353001364281 25.1647638176368 
-0.658043346437159 0.128149904148476 0.741994983996874 27.3489496847547 
0.0547471222362558 -0.974660473818058 0.216886406636302 -6.81073453981107 
Curve2ds 12
1 0 126.45229167454477 1 0 
2 0 0 1 0 -0 1 54.258238107571017
1 6.2831853071795862 -0 0 1 
1 0 -0 0 1 
1 0 0 1 0 
2 0 0 1 0 -0 1 54.258238107571017
1 0 126.45229167454477 1 0 
2 0 0 1 0 -0 1 41.677532529765486
1 0 0 1 0 
2 0 0 1 0 -0 1 41.677532529765486
1 6.2831853071795862 -0 0 1 
1 0 -0 0 1 
Curves 6
2 0 126.45229167454477 0 0 1 0 0 -0 1 1 0 -0 54.258238107571017
1 -1.3289435525162358e-14 0 54.258238107571017 0 1 0 
2 0 0 0 0 1 0 0 -0 1 1 0 -0 54.258238107571017
2 0 126.45229167454477 0 0 1 0 0 -0 1 1 0 -0 41.677532529765486
2 0 0 0 0 1 0 0 -0 1 1 0 -0 41.677532529765486
1 -1.0208051361787398e-14 0 41.677532529765486 0 1 0 
Polygon3D 0
PolygonOnTriangulations 0
Surfaces 6
2 0 0 0 0 1 0 0 -0 1 1 0 -0 54.258238107571017
1 0 126.45229167454477 0 0 1 0 0 -0 1 1 0 -0 
1 0 0 0 0 1 0 0 -0 1 1 0 -0 
2 0 0 0 0 1 0 0 -0 1 1 0 -0 41.677532529765486
1 0 126.45229167454477 0 0 1 0 0 -0 1 1 0 -0 
1 0 0 0 0 1 0 0 -0 1 1 0 -0 
Triangulations 0

TShapes 23
Ve
1e-07
-1.32894355251624e-14 126.452291674545 54.258238107571
0 0

0101101
*
Ed
 1e-07 1 1 0
1  1 0 0 6.28318530717959
2  1 1 0 0 6.28318530717959
2  2 2 0 0 6.28318530717959
0

0101000
+23 0 -23 0 *
Ve
1e-07
-1.32894355251624e-14 0 54.258238107571
0 0

0101101
*
Ed
 1e-07 1 1 0
1  2 0 0 126.452291674545
3  3 4CN 1 0 0 126.452291674545
0

0101000
-23 0 +21 0 *
Ed
 1e-07 1 1 0
1  3 0 0 6.28318530717959
2  5 1 0 0 6.28318530717959
2  6 3 0 0 6.28318530717959
0

0101000
+21 0 -21 0 *
Wi

0101100
-22 0 +20 0 +19 0 -20 0 *
Fa
0  1e-07 1 0

0111000
+18 0 *
Wi

0101100
+22 0 *
Ve
1e-07
-1.02080513617874e-14 126.452291674545 41.6775325297655
0 0

0101101
*
Ed
 1e-07 1 1 0
1  4 0 0 6.28318530717959
2  7 4 0 0 6.28318530717959
2  8 5 0 0 6.28318530717959
0

0101000
+15 0 -15 0 *
Wi

0101100
-14 0 *
Fa
0  1e-07 2 0

0101000
+16 0 +13 0 *
Wi

0101100
+19 0 *
Ve
1e-07
-1.02080513617874e-14 0 41.6775325297655
0 0

0101101
*
Ed
 1e-07 1 1 0
1  5 0 0 6.28318530717959
2  9 4 0 0 6.28318530717959
2  10 6 0 0 6.28318530717959
0

0101000
+10 0 -10 0 *
Wi

0101100
-9 0 *
Fa
0  1e-07 3 0

0101000
+11 0 +8 0 *
Ed
 1e-07 1 1 0
1  6 0 0 126.452291674545
3  11 12CN 4 0 0 126.452291674545
0

0101000
+10 0 -15 0 *
Wi

0101100
-14 0 +6 0 +9 0 -6 0 *
Fa
0  1e-07 4 0

0101000
+5 0 *
Sh

0101100
+17 0 +12 0 -7 0 -4 0 *
So

0100000
+3 0 *
Co

1100000
+2 0 *

+1 1 