DBRep_DrawableShape

CASCADE Topology V1, (c) Matra-Datavision
Locations 1
1
0.0994797624285521 -0.577694275351702 0.810168563382356 -14.5968708940471 
0.990127051433875 0.138276674831419 -0.0229778853776128 -41.4427869045776 
-0.0987532221551257 0.804455645404666 0.585746460245849 -17.4454106616905 
Curve2ds 12
1 0 311.18958646866463 1 0 
2 0 0 1 0 -0 1 14.587629789588716
1 6.2831853071795862 -0 0 1 
1 0 -0 0 1 
1 0 0 1 0 
2 0 0 1 0 -0 1 14.587629789588716
1 0 311.18958646866463 1 0 
2 0 0 1 0 -0 1 3.756793933155036
1 0 0 1 0 
2 0 0 1 0 -0 1 3.756793933155036
1 6.2831853071795862 -0 0 1 
1 0 -0 0 1 
Curves 6
2 0 311.18958646866463 0 0 1 0 0 -0 1 1 0 -0 14.587629789588716
1 -3.5729388257932796e-15 0 14.587629789588716 0 1 0 
2 0 0 0 0 1 0 0 -0 1 1 0 -0 14.587629789588716
2 0 311.18958646866463 0 0 1 0 0 -0 1 1 0 -0 3.756793933155036
2 0 0 0 0 1 0 0 -0 1 1 0 -0 3.756793933155036
1 -9.2014913305890216e-16 0 3.756793933155036 0 1 0 
Polygon3D 0
PolygonOnTriangulations 0
Surfaces 6
2 0 0 0 0 1 0 0 -0 1 1 0 -0 14.587629789588716
1 0 311.18958646866463 0 0 1 0 0 -0 1 1 0 -0 
1 0 0 0 0 1 0 0 -0 1 1 0 -0 
2 0 0 0 0 1 0 0 -0 1 1 0 -0 3.756793933155036
1 0 311.18958646866463 0 0 1 0 0 -0 1 1 0 -0 
1 0 0 0 0 1 0 0 -0 1 1 0 -0 
Triangulations 0

TShapes 23
Ve
1e-07
-3.57293882579328e-15 311.189586468665 14.5876297895887
0 0

0101101
*
Ed
 1e-07 1 1 0
1  1 0 0 6.28318530717959
2  1 1 0 0 6.28318530717959
2  2 2 0 0 6.28318530717959
0

0101000
+23 0 -23 0 *
Ve
1e-07
-3.57293882579328e-15 0 14.5876297895887
0 0

0101101
*
Ed
 1e-07 1 1 0
1  2 0 0 311.189586468665
3  3 4CN 1 0 0 311.189586468665
0

0101000
-23 0 +21 0 *
Ed
 1e-07 1 1 0
1  3 0 0 6.28318530717959
2  5 1 0 0 6.28318530717959
2  6 3 0 0 6.28318530717959
0

0101000
+21 0 -21 0 *
Wi

0101100
-22 0 +20 0 +19 0 -20 0 *
Fa
0  1e-07 1 0

0111000
+18 0 *
Wi

0101100
+22 0 *
Ve
1e-07
-9.20149133058902e-16 311.189586468665 3.75679393315504
0 0

0101101
*
Ed
 1e-07 1 1 0
1  4 0 0 6.28318530717959
2  7 4 0 0 6.28318530717959
2  8 5 0 0 6.28318530717959
0

0101000
+15 0 -15 0 *
Wi

0101100
-14 0 *
Fa
0  1e-07 2 0

0101000
+16 0 +13 0 *
Wi

0101100
+19 0 *
Ve
1e-07
-9.20149133058902e-16 0 3.75679393315504
0 0

0101101
*
Ed
 1e-07 1 1 0
1  5 0 0 6.28318530717959
2  9 4 0 0 6.28318530717959
2  10 6 0 0 6.28318530717959
0

0101000
+10 0 -10 0 *
Wi

0101100
-9 0 *
Fa
0  1e-07 3 0

0101000
+11 0 +8 0 *
Ed
 1e-07 1 1 0
1  6 0 0 311.189586468665
3  11 12CN 4 0 0 311.189586468665
0

0101000
+10 0 -15 0 *
Wi

0101100
-14 0 +6 0 +9 0 -6 0 *
Fa
0  1e-07 4 0

0101000
+5 0 *
Sh

0101100
+17 0 +12 0 -7 0 -4 0 *
So

0100000
+3 0 *
Co

1100000
+2 0 *

+1 1 