DBRep_DrawableShape

CASCADE Topology V1, (c) Matra-Datavision
Locations 1
1
0.145863739797816 -0.347556936442683 -0.926243998816064 -34.785355792228 
0.262411364212081 0.916313342868795 -0.302506419126882 -4.84757611193396 
0.953867939153293 -0.198932233715884 0.224859780850777 6.17470966446839 
Curve2ds 12
1 0 288.21895922537874 1 0 
2 0 0 1 0 -0 1 72.394683691993265
1 6.2831853071795862 -0 0 1 
1 0 -0 0 1 
1 0 0 1 0 
2 0 0 1 0 -0 1 72.394683691993265
1 0 288.21895922537874 1 0 
2 0 0 1 0 -0 1 57.960246775145301
1 0 0 1 0 
2 0 0 1 0 -0 1 57.960246775145301
1 6.2831853071795862 -0 0 1 
1 0 -0 0 1 
Curves 6
2 0 288.21895922537874 0 0 1 0 0 -0 1 1 0 -0 72.394683691993265
1 -1.7731583531736928e-14 0 72.394683691993265 0 1 0 
2 0 0 0 0 1 0 0 -0 1 1 0 -0 72.394683691993265
2 0 288.21895922537874 0 0 1 0 0 -0 1 1 0 -0 57.960246775145301
2 0 0 0 0 1 0 0 -0 1 1 0 -0 57.960246775145301
1 -1.4196166138194478e-14 0 57.960246775145301 0 1 0 
Polygon3D 0
PolygonOnTriangulations 0
Surfaces 6
2 0 0 0 0 1 0 0 -0 1 1 0 -0 72.394683691993265
1 0 288.21895922537874 0 0 1 0 0 -0 1 1 0 -0 
1 0 0 0 0 1 0 0 -0 1 1 0 -0 
2 0 0 0 0 1 0 0 -0 1 1 0 -0 57.960246775145301
1 0 288.21895922537874 0 0 1 0 0 -0 1 1 0 -0 
1 0 0 0 0 1 0 0 -0 1 1 0 -0 
Triangulations 0

TShapes 23
Ve
1e-07
-1.77315835317369e-14 288.218959225379 72.3946836919933
0 0

0101101
*
Ed
 1e-07 1 1 0
1  1 0 0 6.28318530717959
2  1 1 0 0 6.28318530717959
2  2 2 0 0 6.28318530717959
0

0101000
+23 0 -23 0 *
Ve
1e-07
-1.77315835317369e-14 0 72.3946836919933
0 0

0101101
*
Ed
 1e-07 1 1 0
1  2 0 0 288.218959225379
3  3 4CN 1 0 0 288.218959225379
0

0101000
-23 0 +21 0 *
Ed
 1e-07 1 1 0
1  3 0 0 6.28318530717959
2  5 1 0 0 6.28318530717959
2  6 3 0 0 6.28318530717959
0

0101000
+21 0 -21 0 *
Wi

0101100
-22 0 +20 0 +19 0 -20 0 *
Fa
0  1e-07 1 0

0111000
+18 0 *
Wi

0101100
+22 0 *
Ve
1e-07
-1.41961661381945e-14 288.218959225379 57.9602467751453
0 0

0101101
*
Ed
 1e-07 1 1 0
1  4 0 0 6.28318530717959
2  7 4 0 0 6.28318530717959
2  8 5 0 0 6.28318530717959
0

0101000
+15 0 -15 0 *
Wi

0101100
-14 0 *
Fa
0  1e-07 2 0

0101000
+16 0 +13 0 *
Wi

0101100
+19 0 *
Ve
1e-07
-1.41961661381945e-14 0 57.9602467751453
0 0

0101101
*
Ed
 1e-07 1 1 0
1  5 0 0 6.28318530717959
2  9 4 0 0 6.28318530717959
2  10 6 0 0 6.28318530717959
0

0101000
+10 0 -10 0 *
Wi

0101100
-9 0 *
Fa
0  1e-07 3 0

0101000
+11 0 +8 0 *
Ed
 1e-07 1 1 0
1  6 0 0 288.218959225379
3  11 12CN 4 0 0 288.218959225379
0

0101000
+10 0 -15 0 *
Wi

0101100
-14 0 +6 0 +9 0 -6 0 *
Fa
0  1e-07 4 0

0101000
+5 0 *
Sh

0101100
+17 0 +12 0 -7 0 -4 0 *
So

0100000
+3 0 *
Co

1100000
+2 0 *

+1 1 