DBRep_DrawableShape

CASCADE Topology V1, (c) Matra-Datavision
Locations 1
1
0.726489819831857 -0.140430988469258 0.672675017492268 -8.78746051137426 
0.0772070491442048 0.989378457554687 0.123163871687897 10.697724865208 
-0.682826195486905 -0.0375420458187296 0.72961563960254 -30.5286824321741 
Curve2ds 12
1 0 240.31202645124293 1 0 
2 0 0 1 0 -0 1 38.762468390559256
1 6.2831853071795862 -0 0 1 
1 0 -0 0 1 
1 0 0 1 0 
2 0 0 1 0 -0 1 38.762468390559256
1 0 240.31202645124293 1 0 
2 0 0 1 0 -0 1 31.707350606733833
1 0 0 1 0 
2 0 0 1 0 -0 1 31.707350606733833
1 6.2831853071795862 -0 0 1 
1 0 -0 0 1 
Curves 6
2 0 240.31202645124293 0 0 1 0 0 -0 1 1 0 -0 38.762468390559256
1 -9.49406656830977e-15 0 38.762468390559256 0 1 0 
2 0 0 0 0 1 0 0 -0 1 1 0 -0 38.762468390559256
2 0 240.31202645124293 0 0 1 0 0 -0 1 1 0 -0 31.707350606733833
2 0 0 0 0 1 0 0 -0 1 1 0 -0 31.707350606733833
1 -7.7660610859958955e-15 0 31.707350606733833 0 1 0 
Polygon3D 0
PolygonOnTriangulations 0
Surfaces 6
2 0 0 0 0 1 0 0 -0 1 1 0 -0 38.762468390559256
1 0 240.31202645124293 0 0 1 0 0 -0 1 1 0 -0 
1 0 0 0 0 1 0 0 -0 1 1 0 -0 
2 0 0 0 0 1 0 0 -0 1 1 0 -0 31.707350606733833
1 0 240.31202645124293 0 0 1 0 0 -0 1 1 0 -0 
1 0 0 0 0 1 0 0 -0 1 1 0 -0 
Triangulations 0

TShapes 23
Ve
1e-07
-9.49406656830977e-15 240.312026451243 38.7624683905593
0 0

0101101
*
Ed
 1e-07 1 1 0
1  1 0 0 6.28318530717959
2  1 1 0 0 6.28318530717959
2  2 2 0 0 6.28318530717959
0

0101000
+23 0 -23 0 *
Ve
1e-07
-9.49406656830977e-15 0 38.7624683905593
0 0

0101101
*
Ed
 1e-07 1 1 0
1  2 0 0 240.312026451243
3  3 4CN 1 0 0 240.312026451243
0

0101000
-23 0 +21 0 *
Ed
 1e-07 1 1 0
1  3 0 0 6.28318530717959
2  5 1 0 0 6.28318530717959
2  6 3 0 0 6.28318530717959
0

0101000
+21 0 -21 0 *
Wi

0101100
-22 0 +20 0 +19 0 -20 0 *
Fa
0  1e-07 1 0

0111000
+18 0 *
Wi

0101100
+22 0 *
Ve
1e-07
-7.7660610859959e-15 240.312026451243 31.7073506067338
0 0

0101101
*
Ed
 1e-07 1 1 0
1  4 0 0 6.28318530717959
2  7 4 0 0 6.28318530717959
2  8 5 0 0 6.28318530717959
0

0101000
+15 0 -15 0 *
Wi

0101100
-14 0 *
Fa
0  1e-07 2 0

0101000
+16 0 +13 0 *
Wi

0101100
+19 0 *
Ve
1e-07
-7.7660610859959e-15 0 31.7073506067338
0 0

0101101
*
Ed
 1e-07 1 1 0
1  5 0 0 6.28318530717959
2  9 4 0 0 6.28318530717959
2  10 6 0 0 6.28318530717959
0

0101000
+10 0 -10 0 *
Wi

0101100
-9 0 *
Fa
0  1e-07 3 0

0101000
+11 0 +8 0 *
Ed
 1e-07 1 1 0
1  6 0 0 240.312026451243
3  11 12CN 4 0 0 240.312026451243
0

0101000
+10 0 -15 0 *
Wi

0101100
-14 0 +6 0 +9 0 -6 0 *
Fa
0  1e-07 4 0

0101000
+5 0 *
Sh

0101100
+17 0 +12 0 -7 0 -4 0 *
So

0100000
+3 0 *
Co

1100000
+2 0 *

+1 1 