DBRep_DrawableShape

CASCADE Topology V1, (c) Matra-Datavision
Locations 1
1
0.0591979899337295 0.0725735081810785 0.995604682541267 -31.2043239294737 
-0.839176224639241 -0.536526910101509 0.0890063971698591 -22.3917899948625 
0.540628210499634 -0.840756778531829 0.0291406479808584 -9.76039320052357 
Curve2ds 12
1 0 434.56705815089708 1 0 
2 0 0 1 0 -0 1 27.931373554339629
1 6.2831853071795862 -0 0 1 
1 0 -0 0 1 
1 0 0 1 0 
2 0 0 1 0 -0 1 27.931373554339629
1 0 434.56705815089708 1 0 
2 0 0 1 0 -0 1 18.28606414781963
1 0 0 1 0 
2 0 0 1 0 -0 1 18.28606414781963
1 6.2831853071795862 -0 0 1 
1 0 -0 0 1 
Curves 6
2 0 434.56705815089708 0 0 1 0 0 -0 1 1 0 -0 27.931373554339629
1 -6.8412134438222117e-15 0 27.931373554339629 0 1 0 
2 0 0 0 0 1 0 0 -0 1 1 0 -0 27.931373554339629
2 0 434.56705815089708 0 0 1 0 0 -0 1 1 0 -0 18.28606414781963
2 0 0 0 0 1 0 0 -0 1 1 0 -0 18.28606414781963
1 -4.4787939855260965e-15 0 18.28606414781963 0 1 0 
Polygon3D 0
PolygonOnTriangulations 0
Surfaces 6
2 0 0 0 0 1 0 0 -0 1 1 0 -0 27.931373554339629
1 0 434.56705815089708 0 0 1 0 0 -0 1 1 0 -0 
1 0 0 0 0 1 0 0 -0 1 1 0 -0 
2 0 0 0 0 1 0 0 -0 1 1 0 -0 18.28606414781963
1 0 434.56705815089708 0 0 1 0 0 -0 1 1 0 -0 
1 0 0 0 0 1 0 0 -0 1 1 0 -0 
Triangulations 0

TShapes 23
Ve
1e-07
-6.84121344382221e-15 434.567058150897 27.9313735543396
0 0

0101101
*
Ed
 1e-07 1 1 0
1  1 0 0 6.28318530717959
2  1 1 0 0 6.28318530717959
2  2 2 0 0 6.28318530717959
0

0101000
+23 0 -23 0 *
Ve
1e-07
-6.84121344382221e-15 0 27.9313735543396
0 0

0101101
*
Ed
 1e-07 1 1 0
1  2 0 0 434.567058150897
3  3 4CN 1 0 0 434.567058150897
0

0101000
-23 0 +21 0 *
Ed
 1e-07 1 1 0
1  3 0 0 6.28318530717959
2  5 1 0 0 6.28318530717959
2  6 3 0 0 6.28318530717959
0

0101000
+21 0 -21 0 *
Wi

0101100
-22 0 +20 0 +19 0 -20 0 *
Fa
0  1e-07 1 0

0111000
+18 0 *
Wi

0101100
+22 0 *
Ve
1e-07
-4.4787939855261e-15 434.567058150897 18.2860641478196
0 0

0101101
*
Ed
 1e-07 1 1 0
1  4 0 0 6.28318530717959
2  7 4 0 0 6.28318530717959
2  8 5 0 0 6.28318530717959
0

0101000
+15 0 -15 0 *
Wi

0101100
-14 0 *
Fa
0  1e-07 2 0

0101000
+16 0 +13 0 *
Wi

0101100
+19 0 *
Ve
1e-07
-4.4787939855261e-15 0 18.2860641478196
0 0

0101101
*
Ed
 1e-07 1 1 0
1  5 0 0 6.28318530717959
2  9 4 0 0 6.28318530717959
2  10 6 0 0 6.28318530717959
0

0101000
+10 0 -10 0 *
Wi

0101100
-9 0 *
Fa
0  1e-07 3 0

0101000
+11 0 +8 0 *
Ed
 1e-07 1 1 0
1  6 0 0 434.567058150897
3  11 12CN 4 0 0 434.567058150897
0

0101000
+10 0 -15 0 *
Wi

0101100
-14 0 +6 0 +9 0 -6 0 *
Fa
0  1e-07 4 0

0101000
+5 0 *
Sh

0101100
+17 0 +12 0 -7 0 -4 0 *
So

0100000
+3 0 *
Co

1100000
+2 0 *

+1 1 