DBRep_DrawableShape

CASCADE Topology V1, (c) Matra-Datavision
Locations 1
1
0.0831478436992591 0.0996815984905454 0.991539215064404 -47.7937398544963 
0.498106666123394 0.857618091555636 -0.127988117416839 35.9201711134043 
-0.863120029458013 0.504534228728675 0.0216570263323485 40.4452710409753 
Curve2ds 12
1 0 203.69015634403803 1 0 
2 0 0 1 0 -0 1 22.571649184133836
1 6.2831853071795862 -0 0 1 
1 0 -0 0 1 
1 0 0 1 0 
2 0 0 1 0 -0 1 22.571649184133836
1 0 203.69015634403803 1 0 
2 0 0 1 0 -0 1 12.329462424531297
1 0 0 1 0 
2 0 0 1 0 -0 1 12.329462424531297
1 6.2831853071795862 -0 0 1 
1 0 -0 0 1 
Curves 6
2 0 203.69015634403803 0 0 1 0 0 -0 1 1 0 -0 22.571649184133836
1 -5.528459584965294e-15 0 22.571649184133836 0 1 0 
2 0 0 0 0 1 0 0 -0 1 1 0 -0 22.571649184133836
2 0 203.69015634403803 0 0 1 0 0 -0 1 1 0 -0 12.329462424531297
2 0 0 0 0 1 0 0 -0 1 1 0 -0 12.329462424531297
1 -3.0198473386819633e-15 0 12.329462424531297 0 1 0 
Polygon3D 0
PolygonOnTriangulations 0
Surfaces 6
2 0 0 0 0 1 0 0 -0 1 1 0 -0 22.571649184133836
1 0 203.69015634403803 0 0 1 0 0 -0 1 1 0 -0 
1 0 0 0 0 1 0 0 -0 1 1 0 -0 
2 0 0 0 0 1 0 0 -0 1 1 0 -0 12.329462424531297
1 0 203.69015634403803 0 0 1 0 0 -0 1 1 0 -0 
1 0 0 0 0 1 0 0 -0 1 1 0 -0 
Triangulations 0

TShapes 23
Ve
1e-07
-5.52845958496529e-15 203.690156344038 22.5716491841338
0 0

0101101
*
Ed
 1e-07 1 1 0
1  1 0 0 6.28318530717959
2  1 1 0 0 6.28318530717959
2  2 2 0 0 6.28318530717959
0

0101000
+23 0 -23 0 *
Ve
1e-07
-5.52845958496529e-15 0 22.5716491841338
0 0

0101101
*
Ed
 1e-07 1 1 0
1  2 0 0 203.690156344038
3  3 4CN 1 0 0 203.690156344038
0

0101000
-23 0 +21 0 *
Ed
 1e-07 1 1 0
1  3 0 0 6.28318530717959
2  5 1 0 0 6.28318530717959
2  6 3 0 0 6.28318530717959
0

0101000
+21 0 -21 0 *
Wi

0101100
-22 0 +20 0 +19 0 -20 0 *
Fa
0  1e-07 1 0

0111000
+18 0 *
Wi

0101100
+22 0 *
Ve
1e-07
-3.01984733868196e-15 203.690156344038 12.3294624245313
0 0

0101101
*
Ed
 1e-07 1 1 0
1  4 0 0 6.28318530717959
2  7 4 0 0 6.28318530717959
2  8 5 0 0 6.28318530717959
0

0101000
+15 0 -15 0 *
Wi

0101100
-14 0 *
Fa
0  1e-07 2 0

0101000
+16 0 +13 0 *
Wi

0101100
+19 0 *
Ve
1e-07
-3.01984733868196e-15 0 12.3294624245313
0 0

0101101
*
Ed
 1e-07 1 1 0
1  5 0 0 6.28318530717959
2  9 4 0 0 6.28318530717959
2  10 6 0 0 6.28318530717959
0

0101000
+10 0 -10 0 *
Wi

0101100
-9 0 *
Fa
0  1e-07 3 0

0101000
+11 0 +8 0 *
Ed
 1e-07 1 1 0
1  6 0 0 203.690156344038
3  11 12CN 4 0 0 203.690156344038
0

0101000
+10 0 -15 0 *
Wi

0101100
-14 0 +6 0 +9 0 -6 0 *
Fa
0  1e-07 4 0

0101000
+5 0 *
Sh

0101100
+17 0 +12 0 -7 0 -4 0 *
So

0100000
+3 0 *
Co

1100000
+2 0 *

+1 1 