DBRep_DrawableShape

CASCADE Topology V1, (c) Matra-Datavision
Locations 1
1
0.131280655948121 0.945295165414779 0.298634290759244 -0.494135656704032 
-0.822306482578295 0.272088853265106 -0.499779656087152 -13.7891336391816 
-0.553694354390167 -0.17995751213085 0.81304234560331 10.2821909040083 
Curve2ds 5
1 0 10.779726341609976 1 0 
2 0 0 1 0 -0 1 9.5500000000000007
1 6.2831853071795862 -0 0 1 
1 0 -0 0 1 
1 0 0 1 0 
Curves 2
2 0 0 8.8817841970012523e-16 0 0 -1 -1 0 -0 0 1 0 9.5500000000000007
1 0 0 5 -0.88592230427379171 -2.1698838284442931e-16 -0.46383366715905305 
Polygon3D 0
PolygonOnTriangulations 0
Surfaces 2
3 0 0 5 0 0 -1 -1 0 -0 0 1 0 0
1.0884786881972368
1 0 0 8.8817841970012523e-16 0 0 -1 -1 0 -0 0 1 0 
Triangulations 0

TShapes 11
Ve
1e-07
-9.55 -2.33907538637144e-15 8.88178419700125e-16
0 0

0101101
*
Ed
 1e-07 1 1 0
1  1 0 0 6.28318530717959
2  1 1 0 0 6.28318530717959
2  2 2 0 0 6.28318530717959
0

0101000
+11 0 -11 0 *
Ve
1e-07
0 0 5
0 0

0101101
*
Ed
 1e-07 1 1 0
1  2 0 0 10.77972634161
3  3 4CN 1 0 0 10.77972634161
0

0101000
-11 0 +9 0 *
Ed
 1e-07 1 1 1
2  5 1 0 0 6.28318530717959
0

0101000
+9 0 -9 0 *
Wi

0101100
-10 0 +8 0 +7 0 -8 0 *
Fa
0  1e-07 1 0

0111000
+6 0 *
Wi

0101100
+10 0 *
Fa
0  1e-07 2 0

0111000
+4 0 *
Sh

0101100
+5 0 +3 0 *
So

1100000
+2 0 *

+1 1 