DBRep_DrawableShape

CASCADE Topology V1, (c) Matra-Datavision
Locations 1
1
0.236857617979552 -0.112522644837061 0.965006281432367 16.5272158654794 
-0.0826393893694802 0.98733724958429 0.135410069448208 14.9254078080932 
-0.96802334689288 -0.111820436335232 0.224559546419443 17.6590236813958 
Curve2ds 5
1 0 8.2402973247328895 1 0 
2 0 0 1 0 -0 1 6.5500000000000007
1 6.2831853071795862 -0 0 1 
1 0 -0 0 1 
1 0 0 1 0 
Curves 2
2 0 0 -8.8817841970012523e-16 0 0 -1 -1 0 -0 0 1 0 6.5500000000000007
1 0 0 5 -0.79487423109606303 -1.9468803656730142e-16 -0.60677422221073518 
Polygon3D 0
PolygonOnTriangulations 0
Surfaces 2
3 0 0 5 0 0 -1 -1 0 -0 0 1 0 0
0.91880027671950137
1 0 0 -8.8817841970012523e-16 0 0 -1 -1 0 -0 0 1 0 
Triangulations 0

TShapes 11
Ve
1e-07
-6.55 -1.60428730688303e-15 -8.88178419700125e-16
0 0

0101101
*
Ed
 1e-07 1 1 0
1  1 0 0 6.28318530717959
2  1 1 0 0 6.28318530717959
2  2 2 0 0 6.28318530717959
0

0101000
+11 0 -11 0 *
Ve
1e-07
0 0 5
0 0

0101101
*
Ed
 1e-07 1 1 0
1  2 0 0 8.24029732473289
3  3 4CN 1 0 0 8.24029732473289
0

0101000
-11 0 +9 0 *
Ed
 1e-07 1 1 1
2  5 1 0 0 6.28318530717959
0

0101000
+9 0 -9 0 *
Wi

0101100
-10 0 +8 0 +7 0 -8 0 *
Fa
0  1e-07 1 0

0111000
+6 0 *
Wi

0101100
+10 0 *
Fa
0  1e-07 2 0

0111000
+4 0 *
Sh

0101100
+5 0 +3 0 *
So

1100000
+2 0 *

+1 1 