DBRep_DrawableShape

CASCADE Topology V1, (c) Matra-Datavision
Locations 1
1
0.572311311138064 0.653439164496795 -0.4954563769346 -19.0959074867827 
-0.553878109091567 0.753566961851203 0.354056315118793 8.22941751648346 
0.604713819432449 0.0717920072715468 0.793200544805248 -15.0540550954657 
Curve2ds 5
1 0 9.2229333728483578 1 0 
2 0 0 1 0 -0 1 7.75
1 6.2831853071795862 -0 0 1 
1 0 -0 0 1 
1 0 0 1 0 
Curves 2
2 0 0 8.8817841970012523e-16 0 0 -1 -1 0 -0 0 1 0 7.75
1 0 0 5 -0.84029664822424432 -2.0581332011641406e-16 -0.54212686982209302 
Polygon3D 0
PolygonOnTriangulations 0
Surfaces 2
3 0 0 5 0 0 -1 -1 0 -0 0 1 0 0
0.99783018390619049
1 0 0 8.8817841970012523e-16 0 0 -1 -1 0 -0 0 1 0 
Triangulations 0

TShapes 11
Ve
1e-07
-7.75 -1.8982025386784e-15 8.88178419700125e-16
0 0

0101101
*
Ed
 1e-07 1 1 0
1  1 0 0 6.28318530717959
2  1 1 0 0 6.28318530717959
2  2 2 0 0 6.28318530717959
0

0101000
+11 0 -11 0 *
Ve
1e-07
0 0 5
0 0

0101101
*
Ed
 1e-07 1 1 0
1  2 0 0 9.22293337284836
3  3 4CN 1 0 0 9.22293337284836
0

0101000
-11 0 +9 0 *
Ed
 1e-07 1 1 1
2  5 1 0 0 6.28318530717959
0

0101000
+9 0 -9 0 *
Wi

0101100
-10 0 +8 0 +7 0 -8 0 *
Fa
0  1e-07 1 0

0111000
+6 0 *
Wi

0101100
+10 0 *
Fa
0  1e-07 2 0

0111000
+4 0 *
Sh

0101100
+5 0 +3 0 *
So

1100000
+2 0 *

+1 1 