DBRep_DrawableShape

CASCADE Topology V1, (c) Matra-Datavision
Locations 1
1
0.844182423882221 -0.130724668952207 -0.519872192116172 0.386348001706693 
0.303405285234366 0.916037994222818 0.262334950077357 -9.93343737541345 
0.441929030614861 -0.379190524759747 0.812965729801839 12.8303172849993 
Curve2ds 5
1 0 9.9911210582196439 1 0 
2 0 0 1 0 -0 1 8.6500000000000021
1 6.2831853071795862 -0 0 1 
1 0 -0 0 1 
1 0 0 1 0 
Curves 2
2 0 0 -8.8817841970012523e-16 0 0 -1 -1 0 -0 0 1 0 8.6500000000000021
1 0 0 5 -0.86576871099802066 -2.1205217614513119e-16 -0.50044434161735296 
Polygon3D 0
PolygonOnTriangulations 0
Surfaces 2
3 0 0 5 0 0 -1 -1 0 -0 0 1 0 0
1.0466843936522807
1 0 0 -8.8817841970012523e-16 0 0 -1 -1 0 -0 0 1 0 
Triangulations 0

TShapes 11
Ve
1e-07
-8.65 -2.11863896252492e-15 -8.88178419700125e-16
0 0

0101101
*
Ed
 1e-07 1 1 0
1  1 0 0 6.28318530717959
2  1 1 0 0 6.28318530717959
2  2 2 0 0 6.28318530717959
0

0101000
+11 0 -11 0 *
Ve
1e-07
0 0 5
0 0

0101101
*
Ed
 1e-07 1 1 0
1  2 0 0 9.99112105821964
3  3 4CN 1 0 0 9.99112105821964
0

0101000
-11 0 +9 0 *
Ed
 1e-07 1 1 1
2  5 1 0 0 6.28318530717959
0

0101000
+9 0 -9 0 *
Wi

0101100
-10 0 +8 0 +7 0 -8 0 *
Fa
0  1e-07 1 0

0111000
+6 0 *
Wi

0101100
+10 0 *
Fa
0  1e-07 2 0

0111000
+4 0 *
Sh

0101100
+5 0 +3 0 *
So

1100000
+2 0 *

+1 1 