DBRep_DrawableShape

CASCADE Topology V1, (c) Matra-Datavision
Locations 1
1
0.126115445615278 -0.435911640602784 0.891109384960258 -12.8202744978235 
0.654656408919786 0.711478394158302 0.255388881719962 17.7613056983416 
-0.745332060653176 0.551161987289501 0.375100763968268 4.29971550813327 
Curve2ds 5
1 0 9.2649878575203761 1 0 
2 0 0 1 0 -0 1 7.7999999999999998
1 6.2831853071795862 -0 0 1 
1 0 -0 0 1 
1 0 0 1 0 
Curves 2
2 0 0 -8.8817841970012523e-16 0 0 -1 -1 0 -0 0 1 0 7.7999999999999998
1 0 0 5 -0.84187913896387379 -2.0620091856020757e-16 -0.53966611472043202 
Polygon3D 0
PolygonOnTriangulations 0
Surfaces 2
3 0 0 5 0 0 -1 -1 0 -0 0 1 0 0
1.0007558630951863
1 0 0 -8.8817841970012523e-16 0 0 -1 -1 0 -0 0 1 0 
Triangulations 0

TShapes 11
Ve
1e-07
-7.8 -1.91044900666987e-15 -8.88178419700125e-16
0 0

0101101
*
Ed
 1e-07 1 1 0
1  1 0 0 6.28318530717959
2  1 1 0 0 6.28318530717959
2  2 2 0 0 6.28318530717959
0

0101000
+11 0 -11 0 *
Ve
1e-07
0 0 5
0 0

0101101
*
Ed
 1e-07 1 1 0
1  2 0 0 9.26498785752038
3  3 4CN 1 0 0 9.26498785752038
0

0101000
-11 0 +9 0 *
Ed
 1e-07 1 1 1
2  5 1 0 0 6.28318530717959
0

0101000
+9 0 -9 0 *
Wi

0101100
-10 0 +8 0 +7 0 -8 0 *
Fa
0  1e-07 1 0

0111000
+6 0 *
Wi

0101100
+10 0 *
Fa
0  1e-07 2 0

0111000
+4 0 *
Sh

0101100
+5 0 +3 0 *
So

1100000
+2 0 *

+1 1 