DBRep_DrawableShape

CASCADE Topology V1, (c) Matra-Datavision
Locations 1
1
0.123150498414532 0.985792362549485 0.114225096539057 1.33009844101758 
-0.563541860361017 -0.0252743794971015 0.825700779557511 17.2094909201473 
0.816856490676971 -0.166056085947312 0.552422709488633 -16.3420411072099 
Curve2ds 5
1 0 7.810249675906654 1 0 
2 0 0 1 0 -0 1 6
1 6.2831853071795862 -0 0 1 
1 0 -0 0 1 
1 0 0 1 0 
Curves 2
2 0 0 8.8817841970012523e-16 0 0 -1 -1 0 -0 0 1 0 6
1 0 0 5 -0.76822127959737585 -1.8815994621916204e-16 -0.64018439966447982 
Polygon3D 0
PolygonOnTriangulations 0
Surfaces 2
3 0 0 5 0 0 -1 -1 0 -0 0 1 0 0
0.87605805059819342
1 0 0 8.8817841970012523e-16 0 0 -1 -1 0 -0 0 1 0 
Triangulations 0

TShapes 11
Ve
1e-07
-6 -1.46957615897682e-15 8.88178419700125e-16
0 0

0101101
*
Ed
 1e-07 1 1 0
1  1 0 0 6.28318530717959
2  1 1 0 0 6.28318530717959
2  2 2 0 0 6.28318530717959
0

0101000
+11 0 -11 0 *
Ve
1e-07
0 0 5
0 0

0101101
*
Ed
 1e-07 1 1 0
1  2 0 0 7.81024967590665
3  3 4CN 1 0 0 7.81024967590665
0

0101000
-11 0 +9 0 *
Ed
 1e-07 1 1 1
2  5 1 0 0 6.28318530717959
0

0101000
+9 0 -9 0 *
Wi

0101100
-10 0 +8 0 +7 0 -8 0 *
Fa
0  1e-07 1 0

0111000
+6 0 *
Wi

0101100
+10 0 *
Fa
0  1e-07 2 0

0111000
+4 0 *
Sh

0101100
+5 0 +3 0 *
So

1100000
+2 0 *

+1 1 