DBRep_DrawableShape

CASCADE Topology V1, (c) Matra-Datavision
Locations 1
1
0.166166370581464 0.826601936582804 -0.537696918091729 -2.09613098984872 
-0.890386535901161 -0.108572383564215 -0.44206770320067 -18.2301164899029 
-0.423793055598737 0.552214882056564 0.71795415596091 3.79988222169221 
Curve2ds 5
1 0 11.090987332063815 1 0 
2 0 0 1 0 -0 1 9.9000000000000004
1 6.2831853071795862 -0 0 1 
1 0 -0 0 1 
1 0 0 1 0 
Curves 2
2 0 0 -1.7763568394002505e-15 0 0 -1 -1 0 -0 0 1 0 9.9000000000000004
1 0 0 5 -0.89261665382840227 -2.1862802559531477e-16 -0.45081649183252642 
Polygon3D 0
PolygonOnTriangulations 0
Surfaces 2
3 0 0 5 0 0 -1 -1 0 -0 0 1 0 0
1.103116481582997
1 0 0 -1.7763568394002505e-15 0 0 -1 -1 0 -0 0 1 0 
Triangulations 0

TShapes 11
Ve
1e-07
-9.9 -2.42480066231176e-15 -1.77635683940025e-15
0 0

0101101
*
Ed
 1e-07 1 1 0
1  1 0 0 6.28318530717959
2  1 1 0 0 6.28318530717959
2  2 2 0 0 6.28318530717959
0

0101000
+11 0 -11 0 *
Ve
1e-07
0 0 5
0 0

0101101
*
Ed
 1e-07 1 1 0
1  2 0 0 11.0909873320638
3  3 4CN 1 0 0 11.0909873320638
0

0101000
-11 0 +9 0 *
Ed
 1e-07 1 1 1
2  5 1 0 0 6.28318530717959
0

0101000
+9 0 -9 0 *
Wi

0101100
-10 0 +8 0 +7 0 -8 0 *
Fa
0  1e-07 1 0

0111000
+6 0 *
Wi

0101100
+10 0 *
Fa
0  1e-07 2 0

0111000
+4 0 *
Sh

0101100
+5 0 +3 0 *
So

1100000
+2 0 *

+1 1 