DBRep_DrawableShape

CASCADE Topology V1, (c) Matra-Datavision
Locations 1
1
0.947876061909144 0.177143091599698 -0.264860900017562 9.05582407331724 
-0.256106881469723 0.918093459317812 -0.30251225631651 -6.14319979394613 
0.189579103604446 0.354576825323306 0.915606377446215  1.585550826584 
Curve2ds 5
1 0 10.735455276791944 1 0 
2 0 0 1 0 -0 1 9.5
1 6.2831853071795862 -0 0 1 
1 0 -0 0 1 
1 0 0 1 0 
Curves 2
2 0 0 0 0 0 -1 -1 0 -0 0 1 0 9.5
1 0 0 5 -0.88491822238198237 -2.1674245370945208e-16 -0.46574643283262229 
Polygon3D 0
PolygonOnTriangulations 0
Surfaces 2
3 0 0 5 0 0 -1 -1 0 -0 0 1 0 0
1.0863183977578734
1 0 0 0 0 0 -1 -1 0 -0 0 1 0 
Triangulations 0

TShapes 11
Ve
1e-07
-9.5 -2.32682891837997e-15 0
0 0

0101101
*
Ed
 1e-07 1 1 0
1  1 0 0 6.28318530717959
2  1 1 0 0 6.28318530717959
2  2 2 0 0 6.28318530717959
0

0101000
+11 0 -11 0 *
Ve
1e-07
0 0 5
0 0

0101101
*
Ed
 1e-07 1 1 0
1  2 0 0 10.7354552767919
3  3 4CN 1 0 0 10.7354552767919
0

0101000
-11 0 +9 0 *
Ed
 1e-07 1 1 1
2  5 1 0 0 6.28318530717959
0

0101000
+9 0 -9 0 *
Wi

0101100
-10 0 +8 0 +7 0 -8 0 *
Fa
0  1e-07 1 0

0111000
+6 0 *
Wi

0101100
+10 0 *
Fa
0  1e-07 2 0

0111000
+4 0 *
Sh

0101100
+5 0 +3 0 *
So

1100000
+2 0 *

+1 1 