DBRep_DrawableShape

CASCADE Topology V1, (c) Matra-Datavision
Locations 1
1
0.00388929348590417 0.222549239662963 0.974913693268085 12.5071466916635 
-0.809863957473991 -0.571196750578481 0.133621265198135  16.48370186306 
0.586604844661844 -0.79006715414199 0.17801305616508 15.5321543953008 
Curve2ds 5
1 0 10.427008199862509 1 0 
2 0 0 1 0 -0 1 9.1500000000000004
1 6.2831853071795862 -0 0 1 
1 0 -0 0 1 
1 0 0 1 0 
Curves 2
2 0 0 8.8817841970012523e-16 0 0 -1 -1 0 -0 0 1 0 9.1500000000000004
1 0 0 5 -0.8775288006506653 -2.1493256737529061e-16 -0.47952393478178423 
Polygon3D 0
PolygonOnTriangulations 0
Surfaces 2
3 0 0 5 0 0 -1 -1 0 -0 0 1 0 0
1.070684201513757
1 0 0 8.8817841970012523e-16 0 0 -1 -1 0 -0 0 1 0 
Triangulations 0

TShapes 11
Ve
1e-07
-9.15 -2.24110364243966e-15 8.88178419700125e-16
0 0

0101101
*
Ed
 1e-07 1 1 0
1  1 0 0 6.28318530717959
2  1 1 0 0 6.28318530717959
2  2 2 0 0 6.28318530717959
0

0101000
+11 0 -11 0 *
Ve
1e-07
0 0 5
0 0

0101101
*
Ed
 1e-07 1 1 0
1  2 0 0 10.4270081998625
3  3 4CN 1 0 0 10.4270081998625
0

0101000
-11 0 +9 0 *
Ed
 1e-07 1 1 1
2  5 1 0 0 6.28318530717959
0

0101000
+9 0 -9 0 *
Wi

0101100
-10 0 +8 0 +7 0 -8 0 *
Fa
0  1e-07 1 0

0111000
+6 0 *
Wi

0101100
+10 0 *
Fa
0  1e-07 2 0

0111000
+4 0 *
Sh

0101100
+5 0 +3 0 *
So

1100000
+2 0 *

+1 1 