DBRep_DrawableShape

CASCADE Topology V1, (c) Matra-Datavision
Locations 1
1
0.286168926659716 0.338138089183842 0.896532195772983 -5.22559705155404 
-0.957605552311183 0.0685561402382807 0.279806472081014 3.5800851858169 
0.0331504388691999 -0.93859612628581 0.343421548718263 15.0672382964102 
Curve2ds 5
1 0 7.9649231006959509 1 0 
2 0 0 1 0 -0 1 6.2000000000000002
1 6.2831853071795862 -0 0 1 
1 0 -0 0 1 
1 0 0 1 0 
Curves 2
2 0 0 0 0 0 -1 -1 0 -0 0 1 0 6.2000000000000002
1 0 0 5 -0.77841303947532936 -1.9065620744160489e-16 -0.62775245118978173 
Polygon3D 0
PolygonOnTriangulations 0
Surfaces 2
3 0 0 5 0 0 -1 -1 0 -0 0 1 0 0
0.89213383604658392
1 0 0 0 0 0 -1 -1 0 -0 0 1 0 
Triangulations 0

TShapes 11
Ve
1e-07
-6.2 -1.51856203094272e-15 0
0 0

0101101
*
Ed
 1e-07 1 1 0
1  1 0 0 6.28318530717959
2  1 1 0 0 6.28318530717959
2  2 2 0 0 6.28318530717959
0

0101000
+11 0 -11 0 *
Ve
1e-07
0 0 5
0 0

0101101
*
Ed
 1e-07 1 1 0
1  2 0 0 7.96492310069595
3  3 4CN 1 0 0 7.96492310069595
0

0101000
-11 0 +9 0 *
Ed
 1e-07 1 1 1
2  5 1 0 0 6.28318530717959
0

0101000
+9 0 -9 0 *
Wi

0101100
-10 0 +8 0 +7 0 -8 0 *
Fa
0  1e-07 1 0

0111000
+6 0 *
Wi

0101100
+10 0 *
Fa
0  1e-07 2 0

0111000
+4 0 *
Sh

0101100
+5 0 +3 0 *
So

1100000
+2 0 *

+1 1 