DBRep_DrawableShape

CASCADE Topology V1, (c) Matra-Datavision
Locations 1
1
0.857944339340166 0.427831528294969 0.284414651505434 19.8655492468775 
-0.380287795680857 0.156651270395213 0.911505113501708 -0.467928388295022 
0.345416709280777 -0.890180073288746 0.297097179504084 -4.96395124611615 
Curve2ds 5
1 0 11.046379497373788 1 0 
2 0 0 1 0 -0 1 9.8499999999999996
1 6.2831853071795862 -0 0 1 
1 0 -0 0 1 
1 0 0 1 0 
Curves 2
2 0 0 8.8817841970012523e-16 0 0 -1 -1 0 -0 0 1 0 9.8499999999999996
1 0 0 5 -0.89169487634765576 -2.1840225522705031e-16 -0.45263699306987593 
Polygon3D 0
PolygonOnTriangulations 0
Surfaces 2
3 0 0 5 0 0 -1 -1 0 -0 0 1 0 0
1.1010759179539864
1 0 0 8.8817841970012523e-16 0 0 -1 -1 0 -0 0 1 0 
Triangulations 0

TShapes 11
Ve
1e-07
-9.85 -2.41255419432029e-15 8.88178419700125e-16
0 0

0101101
*
Ed
 1e-07 1 1 0
1  1 0 0 6.28318530717959
2  1 1 0 0 6.28318530717959
2  2 2 0 0 6.28318530717959
0

0101000
+11 0 -11 0 *
Ve
1e-07
0 0 5
0 0

0101101
*
Ed
 1e-07 1 1 0
1  2 0 0 11.0463794973738
3  3 4CN 1 0 0 11.0463794973738
0

0101000
-11 0 +9 0 *
Ed
 1e-07 1 1 1
2  5 1 0 0 6.28318530717959
0

0101000
+9 0 -9 0 *
Wi

0101100
-10 0 +8 0 +7 0 -8 0 *
Fa
0  1e-07 1 0

0111000
+6 0 *
Wi

0101100
+10 0 *
Fa
0  1e-07 2 0

0111000
+4 0 *
Sh

0101100
+5 0 +3 0 *
So

1100000
+2 0 *

+1 1 