DBRep_DrawableShape

CASCADE Topology V1, (c) Matra-Datavision
Locations 1
1
0.731307757012949 0.631961957770533 -0.256540539610263 -2.64771625511591 
-0.315393268088641 0.646840897326556 0.694351452788963 14.3645612854024 
0.604744616327468 -0.426873444332874 0.67235631293707 -19.0702681150066 
Curve2ds 5
1 0 9.5189285111298112 1 0 
2 0 0 1 0 -0 1 8.0999999999999996
1 6.2831853071795862 -0 0 1 
1 0 -0 0 1 
1 0 0 1 0 
Curves 2
2 0 0 0 0 0 -1 -1 0 -0 0 1 0 8.0999999999999996
1 0 0 5 -0.85093611014404003 -2.0841923671335965e-16 -0.52526920379261732 
Polygon3D 0
PolygonOnTriangulations 0
Surfaces 2
3 0 0 5 0 0 -1 -1 0 -0 0 1 0 0
1.017764882644256
1 0 0 0 0 0 -1 -1 0 -0 0 1 0 
Triangulations 0

TShapes 11
Ve
1e-07
-8.1 -1.98392781461871e-15 0
0 0

0101101
*
Ed
 1e-07 1 1 0
1  1 0 0 6.28318530717959
2  1 1 0 0 6.28318530717959
2  2 2 0 0 6.28318530717959
0

0101000
+11 0 -11 0 *
Ve
1e-07
0 0 5
0 0

0101101
*
Ed
 1e-07 1 1 0
1  2 0 0 9.51892851112981
3  3 4CN 1 0 0 9.51892851112981
0

0101000
-11 0 +9 0 *
Ed
 1e-07 1 1 1
2  5 1 0 0 6.28318530717959
0

0101000
+9 0 -9 0 *
Wi

0101100
-10 0 +8 0 +7 0 -8 0 *
Fa
0  1e-07 1 0

0111000
+6 0 *
Wi

0101100
+10 0 *
Fa
0  1e-07 2 0

0111000
+4 0 *
Sh

0101100
+5 0 +3 0 *
So

1100000
+2 0 *

+1 1 