DBRep_DrawableShape

CASCADE Topology V1, (c) Matra-Datavision
Locations 1
1
0.302736624415824 0.951644940314819 0.0521770429453153 -14.0915144248739 
-0.808585526256246 0.285436096256967 -0.514505278575928 -0.908191385533563 
-0.504519556574591 0.113569989551767 0.855898285140816 -13.9421636842237 
Curve2ds 5
1 0 8.2800966177937809 1 0 
2 0 0 1 0 -0 1 6.5999999999999996
1 6.2831853071795862 -0 0 1 
1 0 -0 0 1 
1 0 0 1 0 
Curves 2
2 0 0 -8.8817841970012523e-16 0 0 -1 -1 0 -0 0 1 0 6.5999999999999996
1 0 0 5 -0.7970921481540103 -1.9523126957245932e-16 -0.60385768799546247 
Polygon3D 0
PolygonOnTriangulations 0
Surfaces 2
3 0 0 5 0 0 -1 -1 0 -0 0 1 0 0
0.92246433770763592
1 0 0 -8.8817841970012523e-16 0 0 -1 -1 0 -0 0 1 0 
Triangulations 0

TShapes 11
Ve
1e-07
-6.6 -1.61653377487451e-15 -8.88178419700125e-16
0 0

0101101
*
Ed
 1e-07 1 1 0
1  1 0 0 6.28318530717959
2  1 1 0 0 6.28318530717959
2  2 2 0 0 6.28318530717959
0

0101000
+11 0 -11 0 *
Ve
1e-07
0 0 5
0 0

0101101
*
Ed
 1e-07 1 1 0
1  2 0 0 8.28009661779378
3  3 4CN 1 0 0 8.28009661779378
0

0101000
-11 0 +9 0 *
Ed
 1e-07 1 1 1
2  5 1 0 0 6.28318530717959
0

0101000
+9 0 -9 0 *
Wi

0101100
-10 0 +8 0 +7 0 -8 0 *
Fa
0  1e-07 1 0

0111000
+6 0 *
Wi

0101100
+10 0 *
Fa
0  1e-07 2 0

0111000
+4 0 *
Sh

0101100
+5 0 +3 0 *
So

1100000
+2 0 *

+1 1 