DBRep_DrawableShape

CASCADE Topology V1, (c) Matra-Datavision
Locations 1
1
0.256295848688773 0.0531815769798541 0.965134269319475 14.1183088981969 
-0.949161197772219 -0.174954176644026 0.261694586719746 -19.9384778036431 
0.18277160224857 -0.983139235278883 0.0056378601209876 -8.75934689695078 
Curve2ds 5
1 0 7.4701070942791707 1 0 
2 0 0 1 0 -0 1 5.5499999999999998
1 6.2831853071795862 -0 0 1 
1 0 -0 0 1 
1 0 0 1 0 
Curves 2
2 0 0 0 0 0 -1 -1 0 -0 0 1 0 5.5499999999999998
1 0 0 5 -0.74296123602436093 -1.8197301991755896e-16 -0.66933444686879362 
Polygon3D 0
PolygonOnTriangulations 0
Surfaces 2
3 0 0 5 0 0 -1 -1 0 -0 0 1 0 0
0.83748371261162691
1 0 0 0 0 0 -1 -1 0 -0 0 1 0 
Triangulations 0

TShapes 11
Ve
1e-07
-5.55 -1.35935794705356e-15 0
0 0

0101101
*
Ed
 1e-07 1 1 0
1  1 0 0 6.28318530717959
2  1 1 0 0 6.28318530717959
2  2 2 0 0 6.28318530717959
0

0101000
+11 0 -11 0 *
Ve
1e-07
0 0 5
0 0

0101101
*
Ed
 1e-07 1 1 0
1  2 0 0 7.47010709427917
3  3 4CN 1 0 0 7.47010709427917
0

0101000
-11 0 +9 0 *
Ed
 1e-07 1 1 1
2  5 1 0 0 6.28318530717959
0

0101000
+9 0 -9 0 *
Wi

0101100
-10 0 +8 0 +7 0 -8 0 *
Fa
0  1e-07 1 0

0111000
+6 0 *
Wi

0101100
+10 0 *
Fa
0  1e-07 2 0

0111000
+4 0 *
Sh

0101100
+5 0 +3 0 *
So

1100000
+2 0 *

+1 1 