DBRep_DrawableShape

CASCADE Topology V1, (c) Matra-Datavision
Locations 1
1
0.998583998457971 -0.0423353794969245 0.0322135633940364 7.47600141879539 
0.04632583797767 0.989713180526634 -0.13535781110642 -19.082550326198 
-0.0261517639817448 0.136658464555644 0.99027296706814 -2.95665120324644 
Curve2ds 5
1 0 8.5211501571090746 1 0 
2 0 0 1 0 -0 1 6.9000000000000012
1 6.2831853071795862 -0 0 1 
1 0 -0 0 1 
1 0 0 1 0 
Curves 2
2 0 0 -8.8817841970012523e-16 0 0 -1 -1 0 -0 0 1 0 6.9000000000000012
1 0 0 5 -0.80974984277720174 -1.9833151061343452e-16 -0.58677524838927664 
Polygon3D 0
PolygonOnTriangulations 0
Surfaces 2
3 0 0 5 0 0 -1 -1 0 -0 0 1 0 0
0.94372566420587833
1 0 0 -8.8817841970012523e-16 0 0 -1 -1 0 -0 0 1 0 
Triangulations 0

TShapes 11
Ve
1e-07
-6.9 -1.69001258282335e-15 -8.88178419700125e-16
0 0

0101101
*
Ed
 1e-07 1 1 0
1  1 0 0 6.28318530717959
2  1 1 0 0 6.28318530717959
2  2 2 0 0 6.28318530717959
0

0101000
+11 0 -11 0 *
Ve
1e-07
0 0 5
0 0

0101101
*
Ed
 1e-07 1 1 0
1  2 0 0 8.52115015710907
3  3 4CN 1 0 0 8.52115015710907
0

0101000
-11 0 +9 0 *
Ed
 1e-07 1 1 1
2  5 1 0 0 6.28318530717959
0

0101000
+9 0 -9 0 *
Wi

0101100
-10 0 +8 0 +7 0 -8 0 *
Fa
0  1e-07 1 0

0111000
+6 0 *
Wi

0101100
+10 0 *
Fa
0  1e-07 2 0

0111000
+4 0 *
Sh

0101100
+5 0 +3 0 *
So

1100000
+2 0 *

+1 1 