DBRep_DrawableShape

CASCADE Topology V1, (c) Matra-Datavision
Locations 1
1
0.33361660274324 0.324700415643749 -0.885025198768282 -0.780922913435703 
-0.826471436124987 -0.350865475342141 -0.440270806984105 -19.0802334520067 
-0.453480901079153 0.878329697945886 0.151301070923932 -42.3225097801614 
Curve2ds 5
1 0 156.52907125570698 1 0 
2 0 0 1 0 -0 1 96.400467473541994
1 6.2831853071795862 -0 0 1 
1 0 -0 0 1 
1 0 0 1 0 
Curves 2
2 0 0 0 0 0 -1 -1 0 -0 0 1 0 96.400467473541994
1 0 0 123.32193648762075 -0.61586302595548859 -1.5084293668991848e-16 -0.78785324347936092 
Polygon3D 0
PolygonOnTriangulations 0
Surfaces 2
3 0 0 123.32193648762075 0 0 -1 -1 0 -0 0 1 0 0
0.66348091274172705
1 0 0 0 0 0 -1 -1 0 -0 0 1 0 
Triangulations 0

TShapes 11
Ve
1e-07
-96.400467473542 -2.36113047855563e-14 0
0 0

0101101
*
Ed
 1e-07 1 1 0
1  1 0 0 6.28318530717959
2  1 1 0 0 6.28318530717959
2  2 2 0 0 6.28318530717959
0

0101000
+11 0 -11 0 *
Ve
1e-07
0 0 123.321936487621
0 0

0101101
*
Ed
 1e-07 1 1 0
1  2 0 0 156.529071255707
3  3 4CN 1 0 0 156.529071255707
0

0101000
-11 0 +9 0 *
Ed
 1e-07 1 1 1
2  5 1 0 0 6.28318530717959
0

0101000
+9 0 -9 0 *
Wi

0101100
-10 0 +8 0 +7 0 -8 0 *
Fa
0  1e-07 1 0

0111000
+6 0 *
Wi

0101100
+10 0 *
Fa
0  1e-07 2 0

0111000
+4 0 *
Sh

0101100
+5 0 +3 0 *
So

1100000
+2 0 *

+1 1 