DBRep_DrawableShape

CASCADE Topology V1, (c) Matra-Datavision
Locations 1
1
0.167786489288182 0.0701854734986027 0.983321764898003 9.15987265499889 
-0.964103802805071 -0.196542293984814 0.17853566616222 -22.3969538917626 
0.205794925664233 -0.977980125557245 0.0346889403973197 3.7146745550511 
Curve2ds 5
1 0 133.50267560662078 1 0 
2 0 0 1 0 -0 1 37.886318080688625
1 6.2831853071795862 -0 0 1 
1 0 -0 0 1 
1 0 0 1 0 
Curves 2
2 0 0 0 0 0 -1 -1 0 -0 0 1 0 37.886318080688625
1 0 0 128.01402773296178 -0.28378695714177682 -6.9507757740688812e-17 -0.95888735676105941 
Polygon3D 0
PolygonOnTriangulations 0
Surfaces 2
3 0 0 128.01402773296178 0 0 -1 -1 0 -0 0 1 0 0
0.28774113841981636
1 0 0 0 0 0 -1 -1 0 -0 0 1 0 
Triangulations 0

TShapes 11
Ve
1e-07
-37.8863180806886 -9.27947163379876e-15 0
0 0

0101101
*
Ed
 1e-07 1 1 0
1  1 0 0 6.28318530717959
2  1 1 0 0 6.28318530717959
2  2 2 0 0 6.28318530717959
0

0101000
+11 0 -11 0 *
Ve
1e-07
0 0 128.014027732962
0 0

0101101
*
Ed
 1e-07 1 1 0
1  2 0 0 133.502675606621
3  3 4CN 1 0 0 133.502675606621
0

0101000
-11 0 +9 0 *
Ed
 1e-07 1 1 1
2  5 1 0 0 6.28318530717959
0

0101000
+9 0 -9 0 *
Wi

0101100
-10 0 +8 0 +7 0 -8 0 *
Fa
0  1e-07 1 0

0111000
+6 0 *
Wi

0101100
+10 0 *
Fa
0  1e-07 2 0

0111000
+4 0 *
Sh

0101100
+5 0 +3 0 *
So

1100000
+2 0 *

+1 1 