DBRep_DrawableShape

CASCADE Topology V1, (c) Matra-Datavision
Locations 1
1
0.174201958995484 0.04467090697631 0.983696186610505 -10.308405261895 
-0.982899513004966 -0.0526606635685863 0.176452265066554 27.5790995750455 
0.0596843766553443 -0.997612833008091 0.0347334219568554 38.068189823811 
Curve2ds 5
1 0 111.9274998463457 1 0 
2 0 0 1 0 -0 1 66.74584914642513
1 6.2831853071795862 -0 0 1 
1 0 -0 0 1 
1 0 0 1 0 
Curves 2
2 0 0 0 0 0 -1 -1 0 -0 0 1 0 66.74584914642513
1 0 0 89.848521654929726 -0.59633110038242587 -1.4605899466307135e-16 -0.80273857432957907 
Polygon3D 0
PolygonOnTriangulations 0
Surfaces 2
3 0 0 89.848521654929726 0 0 -1 -1 0 -0 0 1 0 0
0.63892282850753901
1 0 0 0 0 0 -1 -1 0 -0 0 1 0 
Triangulations 0

TShapes 11
Ve
1e-07
-66.7458491464251 -1.63480181027083e-14 0
0 0

0101101
*
Ed
 1e-07 1 1 0
1  1 0 0 6.28318530717959
2  1 1 0 0 6.28318530717959
2  2 2 0 0 6.28318530717959
0

0101000
+11 0 -11 0 *
Ve
1e-07
0 0 89.8485216549297
0 0

0101101
*
Ed
 1e-07 1 1 0
1  2 0 0 111.927499846346
3  3 4CN 1 0 0 111.927499846346
0

0101000
-11 0 +9 0 *
Ed
 1e-07 1 1 1
2  5 1 0 0 6.28318530717959
0

0101000
+9 0 -9 0 *
Wi

0101100
-10 0 +8 0 +7 0 -8 0 *
Fa
0  1e-07 1 0

0111000
+6 0 *
Wi

0101100
+10 0 *
Fa
0  1e-07 2 0

0111000
+4 0 *
Sh

0101100
+5 0 +3 0 *
So

1100000
+2 0 *

+1 1 