DBRep_DrawableShape

CASCADE Topology V1, (c) Matra-Datavision
Locations 1
1
0.268433205644474 -0.720649110749828 -0.63922490039337 37.9328119498549 
0.712383374150119 -0.298165611753887 0.635300870613225 16.2160524395971 
-0.648423890940119 -0.625909040630436 0.433340894118204 -46.7182982062739 
Curve2ds 5
1 0 223.56099058379542 1 0 
2 0 0 1 0 -0 1 28.5029869133941
1 6.2831853071795862 -0 0 1 
1 0 -0 0 1 
1 0 0 1 0 
Curves 2
2 0 0 0 0 0 -1 -1 0 -0 0 1 0 28.5029869133941
1 0 0 221.73654693762765 -0.12749535077189852 -3.1227354645794914e-17 -0.99183916817775986 
Polygon3D 0
PolygonOnTriangulations 0
Surfaces 2
3 0 0 221.73654693762765 0 0 -1 -1 0 -0 0 1 0 0
0.12784330959595283
1 0 0 0 0 0 -1 -1 0 -0 0 1 0 
Triangulations 0

TShapes 11
Ve
1e-07
-28.5029869133941 -6.9812183379254e-15 0
0 0

0101101
*
Ed
 1e-07 1 1 0
1  1 0 0 6.28318530717959
2  1 1 0 0 6.28318530717959
2  2 2 0 0 6.28318530717959
0

0101000
+11 0 -11 0 *
Ve
1e-07
0 0 221.736546937628
0 0

0101101
*
Ed
 1e-07 1 1 0
1  2 0 0 223.560990583795
3  3 4CN 1 0 0 223.560990583795
0

0101000
-11 0 +9 0 *
Ed
 1e-07 1 1 1
2  5 1 0 0 6.28318530717959
0

0101000
+9 0 -9 0 *
Wi

0101100
-10 0 +8 0 +7 0 -8 0 *
Fa
0  1e-07 1 0

0111000
+6 0 *
Wi

0101100
+10 0 *
Fa
0  1e-07 2 0

0111000
+4 0 *
Sh

0101100
+5 0 +3 0 *
So

1100000
+2 0 *

+1 1 