DBRep_DrawableShape

CASCADE Topology V1, (c) Matra-Datavision
Locations 1
1
0.240336391680481 0.454088018729805 -0.857929187101154 -37.2499793997834 
-0.760162319702651 -0.461590514735625 -0.457260805679194 5.27541049706631 
-0.603648628374398 0.76206185310127 0.234243602921334 14.5851307312198 
Curve2ds 5
1 0 223.99935034740358 1 0 
2 0 0 1 0 -0 1 81.399778973758004
1 6.2831853071795862 -0 0 1 
1 0 -0 0 1 
1 0 0 1 0 
Curves 2
2 0 0 0 0 0 -1 -1 0 -0 0 1 0 81.399778973758004
1 0 0 208.68585227341646 -0.36339292434336973 -8.9005596325980809e-17 -0.9316359710408213 
Polygon3D 0
PolygonOnTriangulations 0
Surfaces 2
3 0 0 208.68585227341646 0 0 -1 -1 0 -0 0 1 0 0
0.3719072176192888
1 0 0 0 0 0 -1 -1 0 -0 0 1 0 
Triangulations 0

TShapes 11
Ve
1e-07
-81.399778973758 -1.9937195754303e-14 0
0 0

0101101
*
Ed
 1e-07 1 1 0
1  1 0 0 6.28318530717959
2  1 1 0 0 6.28318530717959
2  2 2 0 0 6.28318530717959
0

0101000
+11 0 -11 0 *
Ve
1e-07
0 0 208.685852273416
0 0

0101101
*
Ed
 1e-07 1 1 0
1  2 0 0 223.999350347404
3  3 4CN 1 0 0 223.999350347404
0

0101000
-11 0 +9 0 *
Ed
 1e-07 1 1 1
2  5 1 0 0 6.28318530717959
0

0101000
+9 0 -9 0 *
Wi

0101100
-10 0 +8 0 +7 0 -8 0 *
Fa
0  1e-07 1 0

0111000
+6 0 *
Wi

0101100
+10 0 *
Fa
0  1e-07 2 0

0111000
+4 0 *
Sh

0101100
+5 0 +3 0 *
So

1100000
+2 0 *

+1 1 