DBRep_DrawableShape

CASCADE Topology V1, (c) Matra-Datavision
Locations 1
1
0.173785927396865 -0.18350096847864 0.967535966259763 -19.264625259259 
0.185994189218413 0.970919728964516 0.150735004177718 -35.4251087193239 
-0.967059777374593 0.153760445091944 0.202862299378989 25.0203396883116 
Curve2ds 5
1 0 60.544413477197359 1 0 
2 0 0 1 0 -0 1 31.790348174561501
1 6.2831853071795862 -0 0 1 
1 0 -0 0 1 
1 0 0 1 0 
Curves 2
2 0 0 0 0 0 -1 -1 0 -0 0 1 0 31.790348174561501
1 0 0 51.526689843594568 -0.52507483925886234 -1.2860624424223534e-16 -0.85105605759977987 
Polygon3D 0
PolygonOnTriangulations 0
Surfaces 2
3 0 0 51.526689843594568 0 0 -1 -1 0 -0 0 1 0 0
0.55280304764377797
1 0 0 0 0 0 -1 -1 0 -0 0 1 0 
Triangulations 0

TShapes 11
Ve
1e-07
-31.7903481745615 -7.78638962715133e-15 0
0 0

0101101
*
Ed
 1e-07 1 1 0
1  1 0 0 6.28318530717959
2  1 1 0 0 6.28318530717959
2  2 2 0 0 6.28318530717959
0

0101000
+11 0 -11 0 *
Ve
1e-07
0 0 51.5266898435946
0 0

0101101
*
Ed
 1e-07 1 1 0
1  2 0 0 60.5444134771974
3  3 4CN 1 0 0 60.5444134771974
0

0101000
-11 0 +9 0 *
Ed
 1e-07 1 1 1
2  5 1 0 0 6.28318530717959
0

0101000
+9 0 -9 0 *
Wi

0101100
-10 0 +8 0 +7 0 -8 0 *
Fa
0  1e-07 1 0

0111000
+6 0 *
Wi

0101100
+10 0 *
Fa
0  1e-07 2 0

0111000
+4 0 *
Sh

0101100
+5 0 +3 0 *
So

1100000
+2 0 *

+1 1 