DBRep_DrawableShape

CASCADE Topology V1, (c) Matra-Datavision
Locations 1
1
0.173293225368972 -0.368683690713232 -0.913258886758453 49.9358591825849 
-0.0645269406214131 0.921045820888708 -0.384071438351627 -47.7810434940384 
0.982754156427364 0.125486780281894 0.13582097039568 -38.4018869053474 
Curve2ds 5
1 0 90.335634514473526 1 0 
2 0 0 1 0 -0 1 21.605833685301032
1 6.2831853071795862 -0 0 1 
1 0 -0 0 1 
1 0 0 1 0 
Curves 2
2 0 0 -1.4210854715202004e-14 0 0 -1 -1 0 -0 0 1 0 21.605833685301032
1 0 0 87.713823391160247 -0.23917287791717851 -5.8580459876826665e-17 -0.97097699996900777 
Polygon3D 0
PolygonOnTriangulations 0
Surfaces 2
3 0 0 87.713823391160247 0 0 -1 -1 0 -0 0 1 0 0
0.2415139163609325
1 0 0 -1.4210854715202004e-14 0 0 -1 -1 0 -0 0 1 0 
Triangulations 0

TShapes 11
Ve
1e-07
-21.605833685301 -5.29190301312279e-15 -1.4210854715202e-14
0 0

0101101
*
Ed
 1e-07 1 1 0
1  1 0 0 6.28318530717959
2  1 1 0 0 6.28318530717959
2  2 2 0 0 6.28318530717959
0

0101000
+11 0 -11 0 *
Ve
1e-07
0 0 87.7138233911602
0 0

0101101
*
Ed
 1e-07 1 1 0
1  2 0 0 90.3356345144735
3  3 4CN 1 0 0 90.3356345144735
0

0101000
-11 0 +9 0 *
Ed
 1e-07 1 1 1
2  5 1 0 0 6.28318530717959
0

0101000
+9 0 -9 0 *
Wi

0101100
-10 0 +8 0 +7 0 -8 0 *
Fa
0  1e-07 1 0

0111000
+6 0 *
Wi

0101100
+10 0 *
Fa
0  1e-07 2 0

0111000
+4 0 *
Sh

0101100
+5 0 +3 0 *
So

1100000
+2 0 *

+1 1 