DBRep_DrawableShape

CASCADE Topology V1, (c) Matra-Datavision
Locations 1
1
0.0755775213810939 0.178168989299563 0.981093191044491 -18.5369981074138 
0.292035179604212 0.936809276442763 -0.192623553711179 -37.8699891194435 
-0.953416746305322 0.301071737004257 0.0187701103303611 26.9484466880393 
Curve2ds 5
1 0 129.12822329769742 1 0 
2 0 0 1 0 -0 1 80.912321028908593
1 6.2831853071795862 -0 0 1 
1 0 -0 0 1 
1 0 0 1 0 
Curves 2
2 0 0 0 0 0 -1 -1 0 -0 0 1 0 80.912321028908593
1 0 0 100.63445909694573 -0.62660446308759365 -1.5347383001033347e-16 -0.77933744093217316 
Polygon3D 0
PolygonOnTriangulations 0
Surfaces 2
3 0 0 100.63445909694573 0 0 -1 -1 0 -0 0 1 0 0
0.67718858602633925
1 0 0 0 0 0 -1 -1 0 -0 0 1 0 
Triangulations 0

TShapes 11
Ve
1e-07
-80.9123210289086 -1.98178029919272e-14 0
0 0

0101101
*
Ed
 1e-07 1 1 0
1  1 0 0 6.28318530717959
2  1 1 0 0 6.28318530717959
2  2 2 0 0 6.28318530717959
0

0101000
+11 0 -11 0 *
Ve
1e-07
0 0 100.634459096946
0 0

0101101
*
Ed
 1e-07 1 1 0
1  2 0 0 129.128223297697
3  3 4CN 1 0 0 129.128223297697
0

0101000
-11 0 +9 0 *
Ed
 1e-07 1 1 1
2  5 1 0 0 6.28318530717959
0

0101000
+9 0 -9 0 *
Wi

0101100
-10 0 +8 0 +7 0 -8 0 *
Fa
0  1e-07 1 0

0111000
+6 0 *
Wi

0101100
+10 0 *
Fa
0  1e-07 2 0

0111000
+4 0 *
Sh

0101100
+5 0 +3 0 *
So

1100000
+2 0 *

+1 1 