DBRep_DrawableShape

CASCADE Topology V1, (c) Matra-Datavision
Locations 1
1
0.762585672315499 0.270924290657582 -0.587420736023853 6.09618147215627 
0.194091475711173 0.770408563042339 0.607288354117957 32.2125291003698 
0.617083131705427 -0.577122755332628 0.534918436625527 25.6414403714691 
Curve2ds 5
1 0 70.228764230750471 1 0 
2 0 0 1 0 -0 1 23.905394270610241
1 6.2831853071795862 -0 0 1 
1 0 -0 0 1 
1 0 0 1 0 
Curves 2
2 0 0 0 0 0 -1 -1 0 -0 0 1 0 23.905394270610241
1 0 0 66.03492598727594 -0.3403932068641326 -8.3372290247532565e-17 -0.94028318325957094 
Polygon3D 0
PolygonOnTriangulations 0
Surfaces 2
3 0 0 66.03492598727594 0 0 -1 -1 0 -0 0 1 0 0
0.34733504508542967
1 0 0 0 0 0 -1 -1 0 -0 0 1 0 
Triangulations 0

TShapes 11
Ve
1e-07
-23.9053942706102 -5.85513291517166e-15 0
0 0

0101101
*
Ed
 1e-07 1 1 0
1  1 0 0 6.28318530717959
2  1 1 0 0 6.28318530717959
2  2 2 0 0 6.28318530717959
0

0101000
+11 0 -11 0 *
Ve
1e-07
0 0 66.0349259872759
0 0

0101101
*
Ed
 1e-07 1 1 0
1  2 0 0 70.2287642307505
3  3 4CN 1 0 0 70.2287642307505
0

0101000
-11 0 +9 0 *
Ed
 1e-07 1 1 1
2  5 1 0 0 6.28318530717959
0

0101000
+9 0 -9 0 *
Wi

0101100
-10 0 +8 0 +7 0 -8 0 *
Fa
0  1e-07 1 0

0111000
+6 0 *
Wi

0101100
+10 0 *
Fa
0  1e-07 2 0

0111000
+4 0 *
Sh

0101100
+5 0 +3 0 *
So

1100000
+2 0 *

+1 1 