DBRep_DrawableShape

CASCADE Topology V1, (c) Matra-Datavision
Locations 1
1
0.710218624384369 -0.111774893036342 0.695050990118199 -49.8276703582966 
0.506530998447172 0.766795828918359 -0.394272119690853 -19.3738521206184 
-0.488892476102554 0.632084274476214 0.601210126969093 -23.1494357859453 
Curve2ds 5
1 0 123.87848103719159 1 0 
2 0 0 1 0 -0 1 23.553824873743693
1 6.2831853071795862 -0 0 1 
1 0 -0 0 1 
1 0 0 1 0 
Curves 2
2 0 0 -1.4210854715202004e-14 0 0 -1 -1 0 -0 0 1 0 23.553824873743693
1 0 0 121.61864741025057 -0.19013653280647033 -4.6570019260483923e-17 -0.98175765792395742 
Polygon3D 0
PolygonOnTriangulations 0
Surfaces 2
3 0 0 121.61864741025057 0 0 -1 -1 0 -0 0 1 0 0
0.1913012144234256
1 0 0 -1.4210854715202004e-14 0 0 -1 -1 0 -0 0 1 0 
Triangulations 0

TShapes 11
Ve
1e-07
-23.5538248737437 -5.7690232478615e-15 -1.4210854715202e-14
0 0

0101101
*
Ed
 1e-07 1 1 0
1  1 0 0 6.28318530717959
2  1 1 0 0 6.28318530717959
2  2 2 0 0 6.28318530717959
0

0101000
+11 0 -11 0 *
Ve
1e-07
0 0 121.618647410251
0 0

0101101
*
Ed
 1e-07 1 1 0
1  2 0 0 123.878481037192
3  3 4CN 1 0 0 123.878481037192
0

0101000
-11 0 +9 0 *
Ed
 1e-07 1 1 1
2  5 1 0 0 6.28318530717959
0

0101000
+9 0 -9 0 *
Wi

0101100
-10 0 +8 0 +7 0 -8 0 *
Fa
0  1e-07 1 0

0111000
+6 0 *
Wi

0101100
+10 0 *
Fa
0  1e-07 2 0

0111000
+4 0 *
Sh

0101100
+5 0 +3 0 *
So

1100000
+2 0 *

+1 1 