DBRep_DrawableShape

CASCADE Topology V1, (c) Matra-Datavision
Locations 1
1
0.410623143436274 0.735697659047241 -0.538644213323528 -32.9117515215265 
-0.240613091868082 0.657234661459128 0.714246413920565 -40.8832255840702 
0.879485061894854 -0.163681258087524 0.446894251087089 -27.8314464702349 
Curve2ds 5
1 0 121.92294205193204 1 0 
2 0 0 1 0 -0 1 52.139820895822162
1 6.2831853071795862 -0 0 1 
1 0 -0 0 1 
1 0 0 1 0 
Curves 2
2 0 0 1.4210854715202004e-14 0 0 -1 -1 0 -0 0 1 0 52.139820895822162
1 0 0 110.21180914743377 -0.42764569176499734 -1.0474298551783192e-16 -0.90394643774663819 
Polygon3D 0
PolygonOnTriangulations 0
Surfaces 2
3 0 0 110.21180914743377 0 0 -1 -1 0 -0 0 1 0 0
0.44188668987042373
1 0 0 1.4210854715202004e-14 0 0 -1 -1 0 -0 0 1 0 
Triangulations 0

TShapes 11
Ve
1e-07
-52.1398208958222 -1.2770572953637e-14 1.4210854715202e-14
0 0

0101101
*
Ed
 1e-07 1 1 0
1  1 0 0 6.28318530717959
2  1 1 0 0 6.28318530717959
2  2 2 0 0 6.28318530717959
0

0101000
+11 0 -11 0 *
Ve
1e-07
0 0 110.211809147434
0 0

0101101
*
Ed
 1e-07 1 1 0
1  2 0 0 121.922942051932
3  3 4CN 1 0 0 121.922942051932
0

0101000
-11 0 +9 0 *
Ed
 1e-07 1 1 1
2  5 1 0 0 6.28318530717959
0

0101000
+9 0 -9 0 *
Wi

0101100
-10 0 +8 0 +7 0 -8 0 *
Fa
0  1e-07 1 0

0111000
+6 0 *
Wi

0101100
+10 0 *
Fa
0  1e-07 2 0

0111000
+4 0 *
Sh

0101100
+5 0 +3 0 *
So

1100000
+2 0 *

+1 1 