DBRep_DrawableShape

CASCADE Topology V1, (c) Matra-Datavision
Locations 1
1
0.560875471540419 -0.465453991023979 -0.684668743016769 -20.9667053992389 
0.60901948237236 -0.328238978274239 0.722048781753966 25.1021750531368 
-0.560815455845517 -0.821956054410048 0.0993693569640635 0.109233388316277 
Curve2ds 5
1 0 249.88355763553903 1 0 
2 0 0 1 0 -0 1 83.77896374188002
1 6.2831853071795862 -0 0 1 
1 0 -0 0 1 
1 0 0 1 0 
Curves 2
2 0 0 0 0 0 -1 -1 0 -0 0 1 0 83.77896374188002
1 0 0 235.42063973010207 -0.33527201443191224 -8.2117959863545307e-17 -0.94212137028026688 
Polygon3D 0
PolygonOnTriangulations 0
Surfaces 2
3 0 0 235.42063973010207 0 0 -1 -1 0 -0 0 1 0 0
0.34189394074055096
1 0 0 0 0 0 -1 -1 0 -0 0 1 0 
Triangulations 0

TShapes 11
Ve
1e-07
-83.77896374188 -2.05199279564751e-14 0
0 0

0101101
*
Ed
 1e-07 1 1 0
1  1 0 0 6.28318530717959
2  1 1 0 0 6.28318530717959
2  2 2 0 0 6.28318530717959
0

0101000
+11 0 -11 0 *
Ve
1e-07
0 0 235.420639730102
0 0

0101101
*
Ed
 1e-07 1 1 0
1  2 0 0 249.883557635539
3  3 4CN 1 0 0 249.883557635539
0

0101000
-11 0 +9 0 *
Ed
 1e-07 1 1 1
2  5 1 0 0 6.28318530717959
0

0101000
+9 0 -9 0 *
Wi

0101100
-10 0 +8 0 +7 0 -8 0 *
Fa
0  1e-07 1 0

0111000
+6 0 *
Wi

0101100
+10 0 *
Fa
0  1e-07 2 0

0111000
+4 0 *
Sh

0101100
+5 0 +3 0 *
So

1100000
+2 0 *

+1 1 