DBRep_DrawableShape

CASCADE Topology V1, (c) Matra-Datavision
Locations 1
1
0.0272976120572458 -0.0883630561624485 0.995714221391662 37.2558018510658 
0.0812384726544364 0.992986685776022 0.0858938439722304 14.9462269514279 
-0.996320807238686 0.0785456057153004 0.0342846450480396 46.2975305342732 
Curve2ds 5
1 0 162.58173778790325 1 0 
2 0 0 1 0 -0 1 49.898246931951498
1 6.2831853071795862 -0 0 1 
1 0 -0 0 1 
1 0 0 1 0 
Curves 2
2 0 0 0 0 0 -1 -1 0 -0 0 1 0 49.898246931951498
1 0 0 154.73521388246607 -0.30691175780791863 -7.5171700364031043e-17 -0.95173797492758139 
Polygon3D 0
PolygonOnTriangulations 0
Surfaces 2
3 0 0 154.73521388246607 0 0 -1 -1 0 -0 0 1 0 0
0.3119464822993987
1 0 0 0 0 0 -1 -1 0 -0 0 1 0 
Triangulations 0

TShapes 11
Ve
1e-07
-49.8982469319515 -1.22215456776557e-14 0
0 0

0101101
*
Ed
 1e-07 1 1 0
1  1 0 0 6.28318530717959
2  1 1 0 0 6.28318530717959
2  2 2 0 0 6.28318530717959
0

0101000
+11 0 -11 0 *
Ve
1e-07
0 0 154.735213882466
0 0

0101101
*
Ed
 1e-07 1 1 0
1  2 0 0 162.581737787903
3  3 4CN 1 0 0 162.581737787903
0

0101000
-11 0 +9 0 *
Ed
 1e-07 1 1 1
2  5 1 0 0 6.28318530717959
0

0101000
+9 0 -9 0 *
Wi

0101100
-10 0 +8 0 +7 0 -8 0 *
Fa
0  1e-07 1 0

0111000
+6 0 *
Wi

0101100
+10 0 *
Fa
0  1e-07 2 0

0111000
+4 0 *
Sh

0101100
+5 0 +3 0 *
So

1100000
+2 0 *

+1 1 