DBRep_DrawableShape

CASCADE Topology V1, (c) Matra-Datavision
Locations 1
1
0.428744673460412 -0.455752203047031 0.780043546474877 7.84734168155378 
0.897114600550322 0.112898576121325 -0.427129143221595 -11.6693639221945 
0.106599242299191 0.882917799643634 0.457266618739749 -9.11653341551538 
Curve2ds 5
1 0 243.87690724184719 1 0 
2 0 0 1 0 -0 1 43.469176899279475
1 6.2831853071795862 -0 0 1 
1 0 -0 0 1 
1 0 0 1 0 
Curves 2
2 0 0 0 0 0 -1 -1 0 -0 0 1 0 43.469176899279475
1 0 0 239.9716161247986 -0.17824228374428283 -4.3656768452030053e-17 -0.98398663013560439 
Polygon3D 0
PolygonOnTriangulations 0
Surfaces 2
3 0 0 239.9716161247986 0 0 -1 -1 0 -0 0 1 0 0
0.1791998399146873
1 0 0 0 0 0 -1 -1 0 -0 0 1 0 
Triangulations 0

TShapes 11
Ve
1e-07
-43.4691768992795 -1.06468776702545e-14 0
0 0

0101101
*
Ed
 1e-07 1 1 0
1  1 0 0 6.28318530717959
2  1 1 0 0 6.28318530717959
2  2 2 0 0 6.28318530717959
0

0101000
+11 0 -11 0 *
Ve
1e-07
0 0 239.971616124799
0 0

0101101
*
Ed
 1e-07 1 1 0
1  2 0 0 243.876907241847
3  3 4CN 1 0 0 243.876907241847
0

0101000
-11 0 +9 0 *
Ed
 1e-07 1 1 1
2  5 1 0 0 6.28318530717959
0

0101000
+9 0 -9 0 *
Wi

0101100
-10 0 +8 0 +7 0 -8 0 *
Fa
0  1e-07 1 0

0111000
+6 0 *
Wi

0101100
+10 0 *
Fa
0  1e-07 2 0

0111000
+4 0 *
Sh

0101100
+5 0 +3 0 *
So

1100000
+2 0 *

+1 1 