DBRep_DrawableShape

CASCADE Topology V1, (c) Matra-Datavision
Locations 1
1
0.259607650535194 -0.33724468175143 -0.904914301143469 35.299510946609 
0.507671819247624 0.844775021245668 -0.169187728341002 -33.5194436902382 
0.821506659574592 -0.415477060870703 0.390519679612741 46.1473556799592 
Curve2ds 5
1 0 247.42678920703065 1 0 
2 0 0 1 0 -0 1 58.231178080834162
1 6.2831853071795862 -0 0 1 
1 0 -0 0 1 
1 0 0 1 0 
Curves 2
2 0 0 0 0 0 -1 -1 0 -0 0 1 0 58.231178080834162
1 0 0 240.47691347948259 -0.2353471031469842 -5.7643415311511237e-17 -0.97191138538465671 
Polygon3D 0
PolygonOnTriangulations 0
Surfaces 2
3 0 0 240.47691347948259 0 0 -1 -1 0 -0 0 1 0 0
0.23757568722298364
1 0 0 0 0 0 -1 -1 0 -0 0 1 0 
Triangulations 0

TShapes 11
Ve
1e-07
-58.2311780808342 -1.42625251694546e-14 0
0 0

0101101
*
Ed
 1e-07 1 1 0
1  1 0 0 6.28318530717959
2  1 1 0 0 6.28318530717959
2  2 2 0 0 6.28318530717959
0

0101000
+11 0 -11 0 *
Ve
1e-07
0 0 240.476913479483
0 0

0101101
*
Ed
 1e-07 1 1 0
1  2 0 0 247.426789207031
3  3 4CN 1 0 0 247.426789207031
0

0101000
-11 0 +9 0 *
Ed
 1e-07 1 1 1
2  5 1 0 0 6.28318530717959
0

0101000
+9 0 -9 0 *
Wi

0101100
-10 0 +8 0 +7 0 -8 0 *
Fa
0  1e-07 1 0

0111000
+6 0 *
Wi

0101100
+10 0 *
Fa
0  1e-07 2 0

0111000
+4 0 *
Sh

0101100
+5 0 +3 0 *
So

1100000
+2 0 *

+1 1 