DBRep_DrawableShape

CASCADE Topology V1, (c) Matra-Datavision
Locations 1
1
0.650615282589373 0.474586160577129 0.592847139024733 20.4078752283563 
-0.360034857615673 0.880125625828445 -0.309441083345037 -49.8919426993719 
-0.668636414924294 -0.0121185374013363 0.743490743512278 37.5248075790958 
Curve2ds 5
1 0 190.53695851481152 1 0 
2 0 0 1 0 -0 1 78.627145267785579
1 6.2831853071795862 -0 0 1 
1 0 -0 0 1 
1 0 0 1 0 
Curves 2
2 0 0 0 0 0 -1 -1 0 -0 0 1 0 78.627145267785579
1 0 0 173.55720839859561 -0.4126608605525392 -1.0107276040181188e-16 -0.91088474252675777 
Polygon3D 0
PolygonOnTriangulations 0
Surfaces 2
3 0 0 173.55720839859561 0 0 -1 -1 0 -0 0 1 0 0
0.42537331842938692
1 0 0 0 0 0 -1 -1 0 -0 0 1 0 
Triangulations 0

TShapes 11
Ve
1e-07
-78.6271452677856 -1.92580963556575e-14 0
0 0

0101101
*
Ed
 1e-07 1 1 0
1  1 0 0 6.28318530717959
2  1 1 0 0 6.28318530717959
2  2 2 0 0 6.28318530717959
0

0101000
+11 0 -11 0 *
Ve
1e-07
0 0 173.557208398596
0 0

0101101
*
Ed
 1e-07 1 1 0
1  2 0 0 190.536958514812
3  3 4CN 1 0 0 190.536958514812
0

0101000
-11 0 +9 0 *
Ed
 1e-07 1 1 1
2  5 1 0 0 6.28318530717959
0

0101000
+9 0 -9 0 *
Wi

0101100
-10 0 +8 0 +7 0 -8 0 *
Fa
0  1e-07 1 0

0111000
+6 0 *
Wi

0101100
+10 0 *
Fa
0  1e-07 2 0

0111000
+4 0 *
Sh

0101100
+5 0 +3 0 *
So

1100000
+2 0 *

+1 1 