DBRep_DrawableShape

CASCADE Topology V1, (c) Matra-Datavision
Locations 1
1
0.203459658785255 -0.961581576356 0.184296064145979 11.7181596265264 
0.979052961106782 0.201299049933333 -0.0305612801430133 -38.7513888917936 
-0.00771145868366221 0.186653594952385 0.9823955256903 -28.1080078350399 
Curve2ds 5
1 0 151.83425541092993 1 0 
2 0 0 1 0 -0 1 64.894116427403546
1 6.2831853071795862 -0 0 1 
1 0 -0 0 1 
1 0 0 1 0 
Curves 2
2 0 0 0 0 0 -1 -1 0 -0 0 1 0 64.894116427403546
1 0 0 137.26760276663282 -0.42740102522827716 -1.0468305949962136e-16 -0.9040621458914303 
Polygon3D 0
PolygonOnTriangulations 0
Surfaces 2
3 0 0 137.26760276663282 0 0 -1 -1 0 -0 0 1 0 0
0.44161604233319313
1 0 0 0 0 0 -1 -1 0 -0 0 1 0 
Triangulations 0

TShapes 11
Ve
1e-07
-64.8941164274035 -1.58944743932631e-14 0
0 0

0101101
*
Ed
 1e-07 1 1 0
1  1 0 0 6.28318530717959
2  1 1 0 0 6.28318530717959
2  2 2 0 0 6.28318530717959
0

0101000
+11 0 -11 0 *
Ve
1e-07
0 0 137.267602766633
0 0

0101101
*
Ed
 1e-07 1 1 0
1  2 0 0 151.83425541093
3  3 4CN 1 0 0 151.83425541093
0

0101000
-11 0 +9 0 *
Ed
 1e-07 1 1 1
2  5 1 0 0 6.28318530717959
0

0101000
+9 0 -9 0 *
Wi

0101100
-10 0 +8 0 +7 0 -8 0 *
Fa
0  1e-07 1 0

0111000
+6 0 *
Wi

0101100
+10 0 *
Fa
0  1e-07 2 0

0111000
+4 0 *
Sh

0101100
+5 0 +3 0 *
So

1100000
+2 0 *

+1 1 