DBRep_DrawableShape

CASCADE Topology V1, (c) Matra-Datavision
Locations 1
1
0.139042583357872 -0.34189703287096 -0.929394199964258 -33.788570637981 
0.892274965309862 -0.363837391345135 0.267334507575156 -27.3338110096824 
-0.429549236170259 -0.86644605808625 0.254477272329664 -35.2314390792781 
Curve2ds 5
1 0 194.50969914585772 1 0 
2 0 0 1 0 -0 1 88.993356854889328
1 6.2831853071795862 -0 0 1 
1 0 -0 0 1 
1 0 0 1 0 
Curves 2
2 0 0 0 0 0 -1 -1 0 -0 0 1 0 88.993356854889328
1 0 0 172.95723603686088 -0.45752657705853295 -1.1206169162391544e-16 -0.88919594650735012 
Polygon3D 0
PolygonOnTriangulations 0
Surfaces 2
3 0 0 172.95723603686088 0 0 -1 -1 0 -0 0 1 0 0
0.47521156151540006
1 0 0 0 0 0 -1 -1 0 -0 0 1 0 
Triangulations 0

TShapes 11
Ve
1e-07
-88.9933568548893 -2.17970859235437e-14 0
0 0

0101101
*
Ed
 1e-07 1 1 0
1  1 0 0 6.28318530717959
2  1 1 0 0 6.28318530717959
2  2 2 0 0 6.28318530717959
0

0101000
+11 0 -11 0 *
Ve
1e-07
0 0 172.957236036861
0 0

0101101
*
Ed
 1e-07 1 1 0
1  2 0 0 194.509699145858
3  3 4CN 1 0 0 194.509699145858
0

0101000
-11 0 +9 0 *
Ed
 1e-07 1 1 1
2  5 1 0 0 6.28318530717959
0

0101000
+9 0 -9 0 *
Wi

0101100
-10 0 +8 0 +7 0 -8 0 *
Fa
0  1e-07 1 0

0111000
+6 0 *
Wi

0101100
+10 0 *
Fa
0  1e-07 2 0

0111000
+4 0 *
Sh

0101100
+5 0 +3 0 *
So

1100000
+2 0 *

+1 1 