DBRep_DrawableShape

CASCADE Topology V1, (c) Matra-Datavision
Locations 1
1
0.0169546784248171 0.068213676934903 -0.997526657868616 -26.154733250938 
-0.289932331673213 0.955140105415992 0.0603872675028529 48.4472137138442 
0.956896954708314 0.288191383120571 0.0359714437437138 -13.6494785187207 
Curve2ds 5
1 0 125.07060769715923 1 0 
2 0 0 1 0 -0 1 61.730503855008557
1 6.2831853071795862 -0 0 1 
1 0 -0 0 1 
1 0 0 1 0 
Curves 2
2 0 0 0 0 0 -1 -1 0 -0 0 1 0 61.730503855008557
1 0 0 108.77500541734521 -0.49356523480305003 -1.2088861699439341e-16 -0.86970877826650117 
Polygon3D 0
PolygonOnTriangulations 0
Surfaces 2
3 0 0 108.77500541734521 0 0 -1 -1 0 -0 0 1 0 0
0.51618435029643917
1 0 0 0 0 0 -1 -1 0 -0 0 1 0 
Triangulations 0

TShapes 11
Ve
1e-07
-61.7305038550086 -1.51196127911579e-14 0
0 0

0101101
*
Ed
 1e-07 1 1 0
1  1 0 0 6.28318530717959
2  1 1 0 0 6.28318530717959
2  2 2 0 0 6.28318530717959
0

0101000
+11 0 -11 0 *
Ve
1e-07
0 0 108.775005417345
0 0

0101101
*
Ed
 1e-07 1 1 0
1  2 0 0 125.070607697159
3  3 4CN 1 0 0 125.070607697159
0

0101000
-11 0 +9 0 *
Ed
 1e-07 1 1 1
2  5 1 0 0 6.28318530717959
0

0101000
+9 0 -9 0 *
Wi

0101100
-10 0 +8 0 +7 0 -8 0 *
Fa
0  1e-07 1 0

0111000
+6 0 *
Wi

0101100
+10 0 *
Fa
0  1e-07 2 0

0111000
+4 0 *
Sh

0101100
+5 0 +3 0 *
So

1100000
+2 0 *

+1 1 