DBRep_DrawableShape

CASCADE Topology V1, (c) Matra-Datavision
Locations 1
1
0.161891770840236 0.128809426144893 -0.978365568829175 39.8208539951741 
-0.840636979884439 0.537266714893731 -0.0683662571600015 -10.194260176159 
0.516837036777534 0.833518211440831 0.195261026862753 0.237729916301419 
Curve2ds 5
1 0 110.00179707160642 1 0 
2 0 0 1 0 -0 1 55.099359542959455
1 6.2831853071795862 -0 0 1 
1 0 -0 0 1 
1 0 0 1 0 
Curves 2
2 0 0 -1.4210854715202004e-14 0 0 -1 -1 0 -0 0 1 0 55.099359542959455
1 0 0 95.207436353147131 -0.50089508544203287 -1.2268391261904512e-16 -0.86550800884799373 
Polygon3D 0
PolygonOnTriangulations 0
Surfaces 2
3 0 0 95.207436353147131 0 0 -1 -1 0 -0 0 1 0 0
0.52463263998205811
1 0 0 -1.4210854715202004e-14 0 0 -1 -1 0 -0 0 1 0 
Triangulations 0

TShapes 11
Ve
1e-07
-55.0993595429595 -1.34954508598709e-14 -1.4210854715202e-14
0 0

0101101
*
Ed
 1e-07 1 1 0
1  1 0 0 6.28318530717959
2  1 1 0 0 6.28318530717959
2  2 2 0 0 6.28318530717959
0

0101000
+11 0 -11 0 *
Ve
1e-07
0 0 95.2074363531471
0 0

0101101
*
Ed
 1e-07 1 1 0
1  2 0 0 110.001797071606
3  3 4CN 1 0 0 110.001797071606
0

0101000
-11 0 +9 0 *
Ed
 1e-07 1 1 1
2  5 1 0 0 6.28318530717959
0

0101000
+9 0 -9 0 *
Wi

0101100
-10 0 +8 0 +7 0 -8 0 *
Fa
0  1e-07 1 0

0111000
+6 0 *
Wi

0101100
+10 0 *
Fa
0  1e-07 2 0

0111000
+4 0 *
Sh

0101100
+5 0 +3 0 *
So

1100000
+2 0 *

+1 1 