DBRep_DrawableShape

CASCADE Topology V1, (c) Matra-Datavision
Locations 1
1
0.484843683295598 0.743208274235187 -0.461051042593674 1.75011554591435 
-0.415826435963178 -0.267875913356534 -0.869097733398013 6.44757184074376 
-0.769425095719212 0.613093758043383 0.179167703355608 -48.8560718764373 
Curve2ds 5
1 0 138.96182777872167 1 0 
2 0 0 1 0 -0 1 98.937379486822394
1 6.2831853071795862 -0 0 1 
1 0 -0 0 1 
1 0 0 1 0 
Curves 2
2 0 0 0 0 0 -1 -1 0 -0 0 1 0 98.937379486822394
1 0 0 97.57963168552952 -0.71197523138776708 -1.7438363763824504e-16 -0.7022045783746611 
Polygon3D 0
PolygonOnTriangulations 0
Surfaces 2
3 0 0 97.57963168552952 0 0 -1 -1 0 -0 0 1 0 0
0.79230711336433557
1 0 0 0 0 0 -1 -1 0 -0 0 1 0 
Triangulations 0

TShapes 11
Ve
1e-07
-98.9373794868224 -2.42326690209128e-14 0
0 0

0101101
*
Ed
 1e-07 1 1 0
1  1 0 0 6.28318530717959
2  1 1 0 0 6.28318530717959
2  2 2 0 0 6.28318530717959
0

0101000
+11 0 -11 0 *
Ve
1e-07
0 0 97.5796316855295
0 0

0101101
*
Ed
 1e-07 1 1 0
1  2 0 0 138.961827778722
3  3 4CN 1 0 0 138.961827778722
0

0101000
-11 0 +9 0 *
Ed
 1e-07 1 1 1
2  5 1 0 0 6.28318530717959
0

0101000
+9 0 -9 0 *
Wi

0101100
-10 0 +8 0 +7 0 -8 0 *
Fa
0  1e-07 1 0

0111000
+6 0 *
Wi

0101100
+10 0 *
Fa
0  1e-07 2 0

0111000
+4 0 *
Sh

0101100
+5 0 +3 0 *
So

1100000
+2 0 *

+1 1 