DBRep_DrawableShape

CASCADE Topology V1, (c) Matra-Datavision
Locations 1
1
0.794321824178448 0.565005516135595 0.223207541024431 19.1726087714675 
0.0568621176496719 0.296659830422937 -0.953288856847613 -1.22375250773846 
-0.604830173858925 0.769910197198208 0.203515967530801 15.9462979667937 
Curve2ds 5
1 0 127.40303272257016 1 0 
2 0 0 1 0 -0 1 95.358664966850213
1 6.2831853071795862 -0 0 1 
1 0 -0 0 1 
1 0 0 1 0 
Curves 2
2 0 0 -1.4210854715202004e-14 0 0 -1 -1 0 -0 0 1 0 95.358664966850213
1 0 0 84.488210790904418 -0.74848033778364598 -1.8332480997829435e-16 -0.66315698288661595 
Polygon3D 0
PolygonOnTriangulations 0
Surfaces 2
3 0 0 84.488210790904418 0 0 -1 -1 0 -0 0 1 0 0
0.8457675485524061
1 0 0 -1.4210854715202004e-14 0 0 -1 -1 0 -0 0 1 0 
Triangulations 0

TShapes 11
Ve
1e-07
-95.3586649668502 -2.33561367645236e-14 -1.4210854715202e-14
0 0

0101101
*
Ed
 1e-07 1 1 0
1  1 0 0 6.28318530717959
2  1 1 0 0 6.28318530717959
2  2 2 0 0 6.28318530717959
0

0101000
+11 0 -11 0 *
Ve
1e-07
0 0 84.4882107909044
0 0

0101101
*
Ed
 1e-07 1 1 0
1  2 0 0 127.40303272257
3  3 4CN 1 0 0 127.40303272257
0

0101000
-11 0 +9 0 *
Ed
 1e-07 1 1 1
2  5 1 0 0 6.28318530717959
0

0101000
+9 0 -9 0 *
Wi

0101100
-10 0 +8 0 +7 0 -8 0 *
Fa
0  1e-07 1 0

0111000
+6 0 *
Wi

0101100
+10 0 *
Fa
0  1e-07 2 0

0111000
+4 0 *
Sh

0101100
+5 0 +3 0 *
So

1100000
+2 0 *

+1 1 