DBRep_DrawableShape

CASCADE Topology V1, (c) Matra-Datavision
Locations 1
1
0.184399428203165 -0.975893609307071 0.11674122747326 -40.8713339471094 
0.127853272648295 -0.0939512361369723 -0.987333128129233 30.593309784339 
0.974500072627738 0.196989412258508 0.107446637483827 -39.99189828816 
Curve2ds 5
1 0 93.006830297176492 1 0 
2 0 0 1 0 -0 1 22.410872960069742
1 6.2831853071795862 -0 0 1 
1 0 -0 0 1 
1 0 0 1 0 
Curves 2
2 0 0 -1.4210854715202004e-14 0 0 -1 -1 0 -0 0 1 0 22.410872960069742
1 0 0 90.266401584949648 -0.2409594315649965 -5.9018039318087732e-17 -0.97053518861495891 
Polygon3D 0
PolygonOnTriangulations 0
Surfaces 2
3 0 0 90.266401584949648 0 0 -1 -1 0 -0 0 1 0 0
0.2433542891941006
1 0 0 -1.4210854715202004e-14 0 0 -1 -1 0 -0 0 1 0 
Triangulations 0

TShapes 11
Ve
1e-07
-22.4108729600697 -5.48908076732948e-15 -1.4210854715202e-14
0 0

0101101
*
Ed
 1e-07 1 1 0
1  1 0 0 6.28318530717959
2  1 1 0 0 6.28318530717959
2  2 2 0 0 6.28318530717959
0

0101000
+11 0 -11 0 *
Ve
1e-07
0 0 90.2664015849496
0 0

0101101
*
Ed
 1e-07 1 1 0
1  2 0 0 93.0068302971765
3  3 4CN 1 0 0 93.0068302971765
0

0101000
-11 0 +9 0 *
Ed
 1e-07 1 1 1
2  5 1 0 0 6.28318530717959
0

0101000
+9 0 -9 0 *
Wi

0101100
-10 0 +8 0 +7 0 -8 0 *
Fa
0  1e-07 1 0

0111000
+6 0 *
Wi

0101100
+10 0 *
Fa
0  1e-07 2 0

0111000
+4 0 *
Sh

0101100
+5 0 +3 0 *
So

1100000
+2 0 *

+1 1 