DBRep_DrawableShape

CASCADE Topology V1, (c) Matra-Datavision
Locations 1
1
0.658215026669815 -0.00174118185857947 -0.752827966371993 -14.8492870888545 
0.361190214980694 0.878118722090161 0.31376605698664 -28.4752125774128 
0.660526008018045 -0.478439628584923 0.57861983592966 4.94584199350759 
Curve2ds 5
1 0 244.27949387064442 1 0 
2 0 0 1 0 -0 1 43.516472046861395
1 6.2831853071795862 -0 0 1 
1 0 -0 0 1 
1 0 0 1 0 
Curves 2
2 0 0 0 0 0 -1 -1 0 -0 0 1 0 43.516472046861395
1 0 0 240.3721859664569 -0.17814214102598835 -4.3632240560146608e-17 -0.98400476502437573 
Polygon3D 0
PolygonOnTriangulations 0
Surfaces 2
3 0 0 240.3721859664569 0 0 -1 -1 0 -0 0 1 0 0
0.17909806841461437
1 0 0 0 0 0 -1 -1 0 -0 0 1 0 
Triangulations 0

TShapes 11
Ve
1e-07
-43.5164720468614 -1.06584616404748e-14 0
0 0

0101101
*
Ed
 1e-07 1 1 0
1  1 0 0 6.28318530717959
2  1 1 0 0 6.28318530717959
2  2 2 0 0 6.28318530717959
0

0101000
+11 0 -11 0 *
Ve
1e-07
0 0 240.372185966457
0 0

0101101
*
Ed
 1e-07 1 1 0
1  2 0 0 244.279493870644
3  3 4CN 1 0 0 244.279493870644
0

0101000
-11 0 +9 0 *
Ed
 1e-07 1 1 1
2  5 1 0 0 6.28318530717959
0

0101000
+9 0 -9 0 *
Wi

0101100
-10 0 +8 0 +7 0 -8 0 *
Fa
0  1e-07 1 0

0111000
+6 0 *
Wi

0101100
+10 0 *
Fa
0  1e-07 2 0

0111000
+4 0 *
Sh

0101100
+5 0 +3 0 *
So

1100000
+2 0 *

+1 1 