DBRep_DrawableShape

CASCADE Topology V1, (c) Matra-Datavision
Locations 1
1
0.314703220192547 -0.664042527517915 -0.678239931623065 27.0098894297889 
0.419436966345099 0.738284987615931 -0.528211991840554 7.79691062604798 
0.851489585646038 -0.118248884597544 0.510864646288794 1.23122562827693 
Curve2ds 5
1 0 159.02043008129829 1 0 
2 0 0 1 0 -0 1 70.855521347067508
1 6.2831853071795862 -0 0 1 
1 0 -0 0 1 
1 0 0 1 0 
Curves 2
2 0 0 0 0 0 -1 -1 0 -0 0 1 0 70.855521347067508
1 0 0 142.36218696647063 -0.44557495732367869 -1.0913438905333232e-16 -0.89524463550808386 
Polygon3D 0
PolygonOnTriangulations 0
Surfaces 2
3 0 0 142.36218696647063 0 0 -1 -1 0 -0 0 1 0 0
0.46181639313866035
1 0 0 0 0 0 -1 -1 0 -0 0 1 0 
Triangulations 0

TShapes 11
Ve
1e-07
-70.8555213470675 -1.73545974839206e-14 0
0 0

0101101
*
Ed
 1e-07 1 1 0
1  1 0 0 6.28318530717959
2  1 1 0 0 6.28318530717959
2  2 2 0 0 6.28318530717959
0

0101000
+11 0 -11 0 *
Ve
1e-07
0 0 142.362186966471
0 0

0101101
*
Ed
 1e-07 1 1 0
1  2 0 0 159.020430081298
3  3 4CN 1 0 0 159.020430081298
0

0101000
-11 0 +9 0 *
Ed
 1e-07 1 1 1
2  5 1 0 0 6.28318530717959
0

0101000
+9 0 -9 0 *
Wi

0101100
-10 0 +8 0 +7 0 -8 0 *
Fa
0  1e-07 1 0

0111000
+6 0 *
Wi

0101100
+10 0 *
Fa
0  1e-07 2 0

0111000
+4 0 *
Sh

0101100
+5 0 +3 0 *
So

1100000
+2 0 *

+1 1 