DBRep_DrawableShape

CASCADE Topology V1, (c) Matra-Datavision
Locations 1
1
0.178178615203479 0.0646090402898918 -0.981874764416007 -38.4698420746636 
0.844308444951573 0.502438526027359 0.186276078300224 -9.91228068055814 
0.505366828024582 -0.86219556915834 0.0349738424554602 17.605574518016 
Curve2ds 5
1 0 111.31904870425369 1 0 
2 0 0 1 0 -0 1 35.592917657180706
1 6.2831853071795862 -0 0 1 
1 0 -0 0 1 
1 0 0 1 0 
Curves 2
2 0 0 -1.4210854715202004e-14 0 0 -1 -1 0 -0 0 1 0 35.592917657180706
1 0 0 105.47547021497064 -0.31973788917063067 -7.8313196507788799e-17 -0.94750603281916346 
Polygon3D 0
PolygonOnTriangulations 0
Surfaces 2
3 0 0 105.47547021497064 0 0 -1 -1 0 -0 0 1 0 0
0.32545284201869429
1 0 0 -1.4210854715202004e-14 0 0 -1 -1 0 -0 0 1 0 
Triangulations 0

TShapes 11
Ve
1e-07
-35.5929176571807 -8.71775053623633e-15 -1.4210854715202e-14
0 0

0101101
*
Ed
 1e-07 1 1 0
1  1 0 0 6.28318530717959
2  1 1 0 0 6.28318530717959
2  2 2 0 0 6.28318530717959
0

0101000
+11 0 -11 0 *
Ve
1e-07
0 0 105.475470214971
0 0

0101101
*
Ed
 1e-07 1 1 0
1  2 0 0 111.319048704254
3  3 4CN 1 0 0 111.319048704254
0

0101000
-11 0 +9 0 *
Ed
 1e-07 1 1 1
2  5 1 0 0 6.28318530717959
0

0101000
+9 0 -9 0 *
Wi

0101100
-10 0 +8 0 +7 0 -8 0 *
Fa
0  1e-07 1 0

0111000
+6 0 *
Wi

0101100
+10 0 *
Fa
0  1e-07 2 0

0111000
+4 0 *
Sh

0101100
+5 0 +3 0 *
So

1100000
+2 0 *

+1 1 