DBRep_DrawableShape

CASCADE Topology V1, (c) Matra-Datavision
Locations 1
1
0.124751263446524 -0.984551278221133 -0.122865384961058 48.2223479037189 
0.465066184315772 0.167411077360867 -0.86930257987817 -14.2423228642079 
0.876441992646669 0.0513060593887972 0.47876624964123 -23.2587834567697 
Curve2ds 5
1 0 243.79462599664393 1 0 
2 0 0 1 0 -0 1 54.742539136662856
1 6.2831853071795862 -0 0 1 
1 0 -0 0 1 
1 0 0 1 0 
Curves 2
2 0 0 -2.8421709430404007e-14 0 0 -1 -1 0 -0 0 1 0 54.742539136662856
1 0 0 237.56909326281149 -0.22454366626365441 -5.4997336431719174e-17 -0.97446402803842724 
Polygon3D 0
PolygonOnTriangulations 0
Surfaces 2
3 0 0 237.56909326281149 0 0 -1 -1 0 -0 0 1 0 0
0.22647471886410042
1 0 0 -2.8421709430404007e-14 0 0 -1 -1 0 -0 0 1 0 
Triangulations 0

TShapes 11
Ve
1e-07
-54.7425391366629 -1.34080550661826e-14 -2.8421709430404e-14
0 0

0101101
*
Ed
 1e-07 1 1 0
1  1 0 0 6.28318530717959
2  1 1 0 0 6.28318530717959
2  2 2 0 0 6.28318530717959
0

0101000
+11 0 -11 0 *
Ve
1e-07
0 0 237.569093262811
0 0

0101101
*
Ed
 1e-07 1 1 0
1  2 0 0 243.794625996644
3  3 4CN 1 0 0 243.794625996644
0

0101000
-11 0 +9 0 *
Ed
 1e-07 1 1 1
2  5 1 0 0 6.28318530717959
0

0101000
+9 0 -9 0 *
Wi

0101100
-10 0 +8 0 +7 0 -8 0 *
Fa
0  1e-07 1 0

0111000
+6 0 *
Wi

0101100
+10 0 *
Fa
0  1e-07 2 0

0111000
+4 0 *
Sh

0101100
+5 0 +3 0 *
So

1100000
+2 0 *

+1 1 