DBRep_DrawableShape

CASCADE Topology V1, (c) Matra-Datavision
Locations 1
1
0.215799254859556 -0.970430979722048 -0.108140626952904 -22.5017223842162 
0.588978381101247 0.0410334228482831 0.80710639001603 -19.1337732865635 
-0.778803664730344 -0.237865448951841 0.580417849482185 -1.596084006582 
Curve2ds 5
1 0 156.02829346846897 1 0 
2 0 0 1 0 -0 1 54.908778504750778
1 6.2831853071795862 -0 0 1 
1 0 -0 0 1 
1 0 0 1 0 
Curves 2
2 0 0 0 0 0 -1 -1 0 -0 0 1 0 54.908778504750778
1 0 0 146.04743888818763 -0.35191552303843554 -8.6194443771857341e-17 -0.93603176476259842 
Polygon3D 0
PolygonOnTriangulations 0
Surfaces 2
3 0 0 146.04743888818763 0 0 -1 -1 0 -0 0 1 0 0
0.35961674795237503
1 0 0 0 0 0 -1 -1 0 -0 0 1 0 
Triangulations 0

TShapes 11
Ve
1e-07
-54.9087785047508 -1.34487719681868e-14 0
0 0

0101101
*
Ed
 1e-07 1 1 0
1  1 0 0 6.28318530717959
2  1 1 0 0 6.28318530717959
2  2 2 0 0 6.28318530717959
0

0101000
+11 0 -11 0 *
Ve
1e-07
0 0 146.047438888188
0 0

0101101
*
Ed
 1e-07 1 1 0
1  2 0 0 156.028293468469
3  3 4CN 1 0 0 156.028293468469
0

0101000
-11 0 +9 0 *
Ed
 1e-07 1 1 1
2  5 1 0 0 6.28318530717959
0

0101000
+9 0 -9 0 *
Wi

0101100
-10 0 +8 0 +7 0 -8 0 *
Fa
0  1e-07 1 0

0111000
+6 0 *
Wi

0101100
+10 0 *
Fa
0  1e-07 2 0

0111000
+4 0 *
Sh

0101100
+5 0 +3 0 *
So

1100000
+2 0 *

+1 1 