DBRep_DrawableShape

CASCADE Topology V1, (c) Matra-Datavision
Locations 1
1
0.414985019372022 -0.891083698327038 -0.183731533147171 23.3289830979477 
0.32527000738908 -0.0432912027456638 0.944629712669437 46.2892644438293 
-0.849698096967335 -0.451769536755901 0.271877600529077 -28.9309461869174 
Curve2ds 5
1 0 241.20022014052432 1 0 
2 0 0 1 0 -0 1 68.586194823461412
1 6.2831853071795862 -0 0 1 
1 0 -0 0 1 
1 0 0 1 0 
Curves 2
2 0 0 0 0 0 -1 -1 0 -0 0 1 0 68.586194823461412
1 0 0 231.24333520228339 -0.28435378203014405 -6.9646589797732014e-17 -0.95871942018775935 
Polygon3D 0
PolygonOnTriangulations 0
Surfaces 2
3 0 0 231.24333520228339 0 0 -1 -1 0 -0 0 1 0 0
0.28833231788233432
1 0 0 0 0 0 -1 -1 0 -0 0 1 0 
Triangulations 0

TShapes 11
Ve
1e-07
-68.5861948234614 -1.67987727912498e-14 0
0 0

0101101
*
Ed
 1e-07 1 1 0
1  1 0 0 6.28318530717959
2  1 1 0 0 6.28318530717959
2  2 2 0 0 6.28318530717959
0

0101000
+11 0 -11 0 *
Ve
1e-07
0 0 231.243335202283
0 0

0101101
*
Ed
 1e-07 1 1 0
1  2 0 0 241.200220140524
3  3 4CN 1 0 0 241.200220140524
0

0101000
-11 0 +9 0 *
Ed
 1e-07 1 1 1
2  5 1 0 0 6.28318530717959
0

0101000
+9 0 -9 0 *
Wi

0101100
-10 0 +8 0 +7 0 -8 0 *
Fa
0  1e-07 1 0

0111000
+6 0 *
Wi

0101100
+10 0 *
Fa
0  1e-07 2 0

0111000
+4 0 *
Sh

0101100
+5 0 +3 0 *
So

1100000
+2 0 *

+1 1 