DBRep_DrawableShape

CASCADE Topology V1, (c) Matra-Datavision
Locations 1
1
0.634045139430363 0.688704825638951 -0.351670903411632 -4.98235403302627 
0.0063480997769592 0.450117871700963 0.892946584743241 42.9320536396668 
0.773269980533289 -0.568400883810905 0.281023081772706 26.0153560320703 
Curve2ds 5
1 0 222.02468116480071 1 0 
2 0 0 1 0 -0 1 78.686133214986555
1 6.2831853071795862 -0 0 1 
1 0 -0 0 1 
1 0 0 1 0 
Curves 2
2 0 0 -2.8421709430404007e-14 0 0 -1 -1 0 -0 0 1 0 78.686133214986555
1 0 0 207.61370736539723 -0.35440264029286339 -8.6803611808805193e-17 -0.93509291974297792 
Polygon3D 0
PolygonOnTriangulations 0
Surfaces 2
3 0 0 207.61370736539723 0 0 -1 -1 0 -0 0 1 0 0
0.36227516597259529
1 0 0 -2.8421709430404007e-14 0 0 -1 -1 0 -0 0 1 0 
Triangulations 0

TShapes 11
Ve
1e-07
-78.6861332149866 -1.92725442358031e-14 -2.8421709430404e-14
0 0

0101101
*
Ed
 1e-07 1 1 0
1  1 0 0 6.28318530717959
2  1 1 0 0 6.28318530717959
2  2 2 0 0 6.28318530717959
0

0101000
+11 0 -11 0 *
Ve
1e-07
0 0 207.613707365397
0 0

0101101
*
Ed
 1e-07 1 1 0
1  2 0 0 222.024681164801
3  3 4CN 1 0 0 222.024681164801
0

0101000
-11 0 +9 0 *
Ed
 1e-07 1 1 1
2  5 1 0 0 6.28318530717959
0

0101000
+9 0 -9 0 *
Wi

0101100
-10 0 +8 0 +7 0 -8 0 *
Fa
0  1e-07 1 0

0111000
+6 0 *
Wi

0101100
+10 0 *
Fa
0  1e-07 2 0

0111000
+4 0 *
Sh

0101100
+5 0 +3 0 *
So

1100000
+2 0 *

+1 1 