DBRep_DrawableShape

CASCADE Topology V1, (c) Matra-Datavision
Locations 1
1
0.271588271100809 0.535733258420651 -0.799518409308045 41.9595393173709 
0.290985299063828 0.746152357427163  0.598819017095 44.7198090182052 
0.917369809144169 -0.395280324994655 0.0467557263114639 28.4243106132369 
Curve2ds 5
1 0 103.60051426343553 1 0 
2 0 0 1 0 -0 1 42.470586013777954
1 6.2831853071795862 -0 0 1 
1 0 -0 0 1 
1 0 0 1 0 
Curves 2
2 0 0 0 0 0 -1 -1 0 -0 0 1 0 42.470586013777954
1 0 0 94.495057433151473 -0.40994570650280454 -1.0040773945857197e-16 -0.91210992633559052 
Polygon3D 0
PolygonOnTriangulations 0
Surfaces 2
3 0 0 94.495057433151473 0 0 -1 -1 0 -0 0 1 0 0
0.42239453622179418
1 0 0 0 0 0 -1 -1 0 -0 0 1 0 
Triangulations 0

TShapes 11
Ve
1e-07
-42.470586013778 -1.04022934439371e-14 0
0 0

0101101
*
Ed
 1e-07 1 1 0
1  1 0 0 6.28318530717959
2  1 1 0 0 6.28318530717959
2  2 2 0 0 6.28318530717959
0

0101000
+11 0 -11 0 *
Ve
1e-07
0 0 94.4950574331515
0 0

0101101
*
Ed
 1e-07 1 1 0
1  2 0 0 103.600514263436
3  3 4CN 1 0 0 103.600514263436
0

0101000
-11 0 +9 0 *
Ed
 1e-07 1 1 1
2  5 1 0 0 6.28318530717959
0

0101000
+9 0 -9 0 *
Wi

0101100
-10 0 +8 0 +7 0 -8 0 *
Fa
0  1e-07 1 0

0111000
+6 0 *
Wi

0101100
+10 0 *
Fa
0  1e-07 2 0

0111000
+4 0 *
Sh

0101100
+5 0 +3 0 *
So

1100000
+2 0 *

+1 1 