DBRep_DrawableShape

CASCADE Topology V1, (c) Matra-Datavision
Locations 1
1
0.184813434367628 -0.2523304798132 0.949828049403935 -12.5752331405252 
0.771592587923918 0.63583964980294 0.0187834501449014 -43.8570064822748 
-0.608677971293617 0.729408848791757 0.312208037318342 -42.8605341839798 
Curve2ds 5
1 0 146.91492921737969 1 0 
2 0 0 1 0 -0 1 89.873998675849933
1 6.2831853071795862 -0 0 1 
1 0 -0 0 1 
1 0 0 1 0 
Curves 2
2 0 0 -1.4210854715202004e-14 0 0 -1 -1 0 -0 0 1 0 89.873998675849933
1 0 0 116.21816032342367 -0.61174176889041476 -1.4983351983527726e-16 -0.79105752521218486 
Polygon3D 0
PolygonOnTriangulations 0
Surfaces 2
3 0 0 116.21816032342367 0 0 -1 -1 0 -0 0 1 0 0
0.65826054464071448
1 0 0 -1.4210854715202004e-14 0 0 -1 -1 0 -0 0 1 0 
Triangulations 0

TShapes 11
Ve
1e-07
-89.8739986758499 -2.20127809609906e-14 -1.4210854715202e-14
0 0

0101101
*
Ed
 1e-07 1 1 0
1  1 0 0 6.28318530717959
2  1 1 0 0 6.28318530717959
2  2 2 0 0 6.28318530717959
0

0101000
+11 0 -11 0 *
Ve
1e-07
0 0 116.218160323424
0 0

0101101
*
Ed
 1e-07 1 1 0
1  2 0 0 146.91492921738
3  3 4CN 1 0 0 146.91492921738
0

0101000
-11 0 +9 0 *
Ed
 1e-07 1 1 1
2  5 1 0 0 6.28318530717959
0

0101000
+9 0 -9 0 *
Wi

0101100
-10 0 +8 0 +7 0 -8 0 *
Fa
0  1e-07 1 0

0111000
+6 0 *
Wi

0101100
+10 0 *
Fa
0  1e-07 2 0

0111000
+4 0 *
Sh

0101100
+5 0 +3 0 *
So

1100000
+2 0 *

+1 1 