DBRep_DrawableShape

CASCADE Topology V1, (c) Matra-Datavision
Locations 1
1
0.643576215976337 0.0449617079138172 -0.76406027187065 49.4126807339706 
0.665575058942375 0.460030507718881 0.587691903025525 -37.0501585840971 
0.37791466648363 -0.886763991594935 0.266139301996502 -6.86201279650789 
Curve2ds 5
1 0 233.54995034863211 1 0 
2 0 0 1 0 -0 1 40.678908733922356
1 6.2831853071795862 -0 0 1 
1 0 -0 0 1 
1 0 0 1 0 
Curves 2
2 0 0 0 0 0 -1 -1 0 -0 0 1 0 40.678908733922356
1 0 0 229.98001150549092 -0.17417648204676919 -4.2660934245064462e-17 -0.98471445257080059 
Polygon3D 0
PolygonOnTriangulations 0
Surfaces 2
3 0 0 229.98001150549092 0 0 -1 -1 0 -0 0 1 0 0
0.17506940492600856
1 0 0 0 0 0 -1 -1 0 -0 0 1 0 
Triangulations 0

TShapes 11
Ve
1e-07
-40.6789087339224 -9.96345907476106e-15 0
0 0

0101101
*
Ed
 1e-07 1 1 0
1  1 0 0 6.28318530717959
2  1 1 0 0 6.28318530717959
2  2 2 0 0 6.28318530717959
0

0101000
+11 0 -11 0 *
Ve
1e-07
0 0 229.980011505491
0 0

0101101
*
Ed
 1e-07 1 1 0
1  2 0 0 233.549950348632
3  3 4CN 1 0 0 233.549950348632
0

0101000
-11 0 +9 0 *
Ed
 1e-07 1 1 1
2  5 1 0 0 6.28318530717959
0

0101000
+9 0 -9 0 *
Wi

0101100
-10 0 +8 0 +7 0 -8 0 *
Fa
0  1e-07 1 0

0111000
+6 0 *
Wi

0101100
+10 0 *
Fa
0  1e-07 2 0

0111000
+4 0 *
Sh

0101100
+5 0 +3 0 *
So

1100000
+2 0 *

+1 1 