DBRep_DrawableShape

CASCADE Topology V1, (c) Matra-Datavision
Locations 1
1
0.615181488346684 0.106881663403755 -0.781106936612143 14.9310522968699 
0.293885038700728 0.888268659418132 0.353001944362049 34.8412223735567 
0.731562246444847 -0.446715903817585 0.515035514166749 -35.9153823326085 
Curve2ds 5
1 0 196.61603684912708 1 0 
2 0 0 1 0 -0 1 82.927099817490927
1 6.2831853071795862 -0 0 1 
1 0 -0 0 1 
1 0 0 1 0 
Curves 2
2 0 0 0 0 0 -1 -1 0 -0 0 1 0 82.927099817490927
1 0 0 178.27215728239 -0.42177180023786598 -1.0330429702638389e-16 -0.90670201749202572 
Polygon3D 0
PolygonOnTriangulations 0
Surfaces 2
3 0 0 178.27215728239 0 0 -1 -1 0 -0 0 1 0 0
0.43539854922166782
1 0 0 0 0 0 -1 -1 0 -0 0 1 0 
Triangulations 0

TShapes 11
Ve
1e-07
-82.9270998174909 -2.03112814708127e-14 0
0 0

0101101
*
Ed
 1e-07 1 1 0
1  1 0 0 6.28318530717959
2  1 1 0 0 6.28318530717959
2  2 2 0 0 6.28318530717959
0

0101000
+11 0 -11 0 *
Ve
1e-07
0 0 178.27215728239
0 0

0101101
*
Ed
 1e-07 1 1 0
1  2 0 0 196.616036849127
3  3 4CN 1 0 0 196.616036849127
0

0101000
-11 0 +9 0 *
Ed
 1e-07 1 1 1
2  5 1 0 0 6.28318530717959
0

0101000
+9 0 -9 0 *
Wi

0101100
-10 0 +8 0 +7 0 -8 0 *
Fa
0  1e-07 1 0

0111000
+6 0 *
Wi

0101100
+10 0 *
Fa
0  1e-07 2 0

0111000
+4 0 *
Sh

0101100
+5 0 +3 0 *
So

1100000
+2 0 *

+1 1 