DBRep_DrawableShape

CASCADE Topology V1, (c) Matra-Datavision
Locations 1
1
0.186377836018385 0.577987895287574 0.794476742983798 9.52989984312502 
-0.973811739061093 0.00150857955727371 0.227350876520255  7.942479694754 
0.130207523238533 -0.816043943111374 0.5631325632596 36.9190523046131 
Curve2ds 5
1 0 166.11977550594645 1 0 
2 0 0 1 0 -0 1 59.157885754264129
1 6.2831853071795862 -0 0 1 
1 0 -0 0 1 
1 0 0 1 0 
Curves 2
2 0 0 0 0 0 -1 -1 0 -0 0 1 0 59.157885754264129
1 0 0 155.22926388806809 -0.35611585420271957 -8.7223228194997207e-17 -0.93444181112869051 
Polygon3D 0
PolygonOnTriangulations 0
Surfaces 2
3 0 0 155.22926388806809 0 0 -1 -1 0 -0 0 1 0 0
0.36410793580778711
1 0 0 0 0 0 -1 -1 0 -0 0 1 0 
Triangulations 0

TShapes 11
Ve
1e-07
-59.1578857542641 -1.44895030866569e-14 0
0 0

0101101
*
Ed
 1e-07 1 1 0
1  1 0 0 6.28318530717959
2  1 1 0 0 6.28318530717959
2  2 2 0 0 6.28318530717959
0

0101000
+11 0 -11 0 *
Ve
1e-07
0 0 155.229263888068
0 0

0101101
*
Ed
 1e-07 1 1 0
1  2 0 0 166.119775505946
3  3 4CN 1 0 0 166.119775505946
0

0101000
-11 0 +9 0 *
Ed
 1e-07 1 1 1
2  5 1 0 0 6.28318530717959
0

0101000
+9 0 -9 0 *
Wi

0101100
-10 0 +8 0 +7 0 -8 0 *
Fa
0  1e-07 1 0

0111000
+6 0 *
Wi

0101100
+10 0 *
Fa
0  1e-07 2 0

0111000
+4 0 *
Sh

0101100
+5 0 +3 0 *
So

1100000
+2 0 *

+1 1 