DBRep_DrawableShape

CASCADE Topology V1, (c) Matra-Datavision
Locations 1
1
0.103530441175965 -0.580703518682983 -0.807505338148988 27.9012388721911 
0.613345004810437 0.676401509765246 -0.407785363471252 -10.7903111298143 
0.783000225302647 -0.453061166926165 0.426199749178137 -9.7524123120123 
Curve2ds 5
1 0 181.68240509640592 1 0 
2 0 0 1 0 -0 1 75.853196698416227
1 6.2831853071795862 -0 0 1 
1 0 -0 0 1 
1 0 0 1 0 
Curves 2
2 0 0 -2.8421709430404007e-14 0 0 -1 -1 0 -0 0 1 0 75.853196698416227
1 0 0 165.09024463076526 -0.4175043623963825 -1.0225907620775728e-16 -0.9086749184279217 
Polygon3D 0
PolygonOnTriangulations 0
Surfaces 2
3 0 0 165.09024463076526 0 0 -1 -1 0 -0 0 1 0 0
0.43069712342228217
1 0 0 -2.8421709430404007e-14 0 0 -1 -1 0 -0 0 1 0 
Triangulations 0

TShapes 11
Ve
1e-07
-75.8531966984162 -1.8578674908362e-14 -2.8421709430404e-14
0 0

0101101
*
Ed
 1e-07 1 1 0
1  1 0 0 6.28318530717959
2  1 1 0 0 6.28318530717959
2  2 2 0 0 6.28318530717959
0

0101000
+11 0 -11 0 *
Ve
1e-07
0 0 165.090244630765
0 0

0101101
*
Ed
 1e-07 1 1 0
1  2 0 0 181.682405096406
3  3 4CN 1 0 0 181.682405096406
0

0101000
-11 0 +9 0 *
Ed
 1e-07 1 1 1
2  5 1 0 0 6.28318530717959
0

0101000
+9 0 -9 0 *
Wi

0101100
-10 0 +8 0 +7 0 -8 0 *
Fa
0  1e-07 1 0

0111000
+6 0 *
Wi

0101100
+10 0 *
Fa
0  1e-07 2 0

0111000
+4 0 *
Sh

0101100
+5 0 +3 0 *
So

1100000
+2 0 *

+1 1 