DBRep_DrawableShape

CASCADE Topology V1, (c) Matra-Datavision
Locations 1
1
0.539113301610163 0.779631150036011 -0.31864104870609 9.51717357824661 
-0.811228983285057 0.582376594410257 0.0523931194089797 -8.36745791387953 
0.226416396723562 0.230245026388495 0.946426353774069 -12.1612604351785 
Curve2ds 5
1 0 129.39921780349584 1 0 
2 0 0 1 0 -0 1 95.969632625119601
1 6.2831853071795862 -0 0 1 
1 0 -0 0 1 
1 0 0 1 0 
Curves 2
2 0 0 1.4210854715202004e-14 0 0 -1 -1 0 -0 0 1 0 95.969632625119601
1 0 0 86.798543662645272 -0.74165543079911023 -1.8165318987967632e-16 -0.67078105367264684 
Polygon3D 0
PolygonOnTriangulations 0
Surfaces 2
3 0 0 86.798543662645272 0 0 -1 -1 0 -0 0 1 0 0
0.83553491818091175
1 0 0 1.4210854715202004e-14 0 0 -1 -1 0 -0 0 1 0 
Triangulations 0

TShapes 11
Ve
1e-07
-95.9696326251196 -2.350578068194e-14 1.4210854715202e-14
0 0

0101101
*
Ed
 1e-07 1 1 0
1  1 0 0 6.28318530717959
2  1 1 0 0 6.28318530717959
2  2 2 0 0 6.28318530717959
0

0101000
+11 0 -11 0 *
Ve
1e-07
0 0 86.7985436626453
0 0

0101101
*
Ed
 1e-07 1 1 0
1  2 0 0 129.399217803496
3  3 4CN 1 0 0 129.399217803496
0

0101000
-11 0 +9 0 *
Ed
 1e-07 1 1 1
2  5 1 0 0 6.28318530717959
0

0101000
+9 0 -9 0 *
Wi

0101100
-10 0 +8 0 +7 0 -8 0 *
Fa
0  1e-07 1 0

0111000
+6 0 *
Wi

0101100
+10 0 *
Fa
0  1e-07 2 0

0111000
+4 0 *
Sh

0101100
+5 0 +3 0 *
So

1100000
+2 0 *

+1 1 