DBRep_DrawableShape

CASCADE Topology V1, (c) Matra-Datavision
Locations 1
1
0.239668890477254 -0.376083322701567 -0.895053158937028 8.62306165398178 
0.770680783544474 -0.486974758019401 0.410982621198539 -29.799357559464 
-0.590432005240806 -0.788300018671632 0.173127489872713 -15.2518857033022 
Curve2ds 5
1 0 228.91214804560914 1 0 
2 0 0 1 0 -0 1 47.24335480233173
1 6.2831853071795862 -0 0 1 
1 0 -0 0 1 
1 0 0 1 0 
Curves 2
2 0 0 0 0 0 -1 -1 0 -0 0 1 0 47.24335480233173
1 0 0 223.98401047814971 -0.20638203435546296 -5.0549019554987362e-17 -0.97847148956691654 
Polygon3D 0
PolygonOnTriangulations 0
Surfaces 2
3 0 0 223.98401047814971 0 0 -1 -1 0 -0 0 1 0 0
0.20787593952875758
1 0 0 0 0 0 -1 -1 0 -0 0 1 0 
Triangulations 0

TShapes 11
Ve
1e-07
-47.2433548023317 -1.15712846479317e-14 0
0 0

0101101
*
Ed
 1e-07 1 1 0
1  1 0 0 6.28318530717959
2  1 1 0 0 6.28318530717959
2  2 2 0 0 6.28318530717959
0

0101000
+11 0 -11 0 *
Ve
1e-07
0 0 223.98401047815
0 0

0101101
*
Ed
 1e-07 1 1 0
1  2 0 0 228.912148045609
3  3 4CN 1 0 0 228.912148045609
0

0101000
-11 0 +9 0 *
Ed
 1e-07 1 1 1
2  5 1 0 0 6.28318530717959
0

0101000
+9 0 -9 0 *
Wi

0101100
-10 0 +8 0 +7 0 -8 0 *
Fa
0  1e-07 1 0

0111000
+6 0 *
Wi

0101100
+10 0 *
Fa
0  1e-07 2 0

0111000
+4 0 *
Sh

0101100
+5 0 +3 0 *
So

1100000
+2 0 *

+1 1 