DBRep_DrawableShape

CASCADE Topology V1, (c) Matra-Datavision
Locations 1
1
0.147329744924771 -0.199179517527597 -0.968824786046412 6.55877479336054 
0.803753690548223 -0.546743122877845 0.234631546293103 -46.9113634239121 
-0.57643208723189 -0.813264703146064 0.0795397474614546 -17.0269186066525 
Curve2ds 5
1 0 257.17803444181811 1 0 
2 0 0 1 0 -0 1 81.97252696866228
1 6.2831853071795862 -0 0 1 
1 0 -0 0 1 
1 0 0 1 0 
Curves 2
2 0 0 0 0 0 -1 -1 0 -0 0 1 0 81.97252696866228
1 0 0 243.76432516208953 -0.31873844570970578 -7.8068403460718724e-17 -0.94784271017218935 
Polygon3D 0
PolygonOnTriangulations 0
Surfaces 2
3 0 0 243.76432516208953 0 0 -1 -1 0 -0 0 1 0 0
0.32439821460831864
1 0 0 0 0 0 -1 -1 0 -0 0 1 0 
Triangulations 0

TShapes 11
Ve
1e-07
-81.9725269686623 -2.00774785540385e-14 0
0 0

0101101
*
Ed
 1e-07 1 1 0
1  1 0 0 6.28318530717959
2  1 1 0 0 6.28318530717959
2  2 2 0 0 6.28318530717959
0

0101000
+11 0 -11 0 *
Ve
1e-07
0 0 243.76432516209
0 0

0101101
*
Ed
 1e-07 1 1 0
1  2 0 0 257.178034441818
3  3 4CN 1 0 0 257.178034441818
0

0101000
-11 0 +9 0 *
Ed
 1e-07 1 1 1
2  5 1 0 0 6.28318530717959
0

0101000
+9 0 -9 0 *
Wi

0101100
-10 0 +8 0 +7 0 -8 0 *
Fa
0  1e-07 1 0

0111000
+6 0 *
Wi

0101100
+10 0 *
Fa
0  1e-07 2 0

0111000
+4 0 *
Sh

0101100
+5 0 +3 0 *
So

1100000
+2 0 *

+1 1 