DBRep_DrawableShape

CASCADE Topology V1, (c) Matra-Datavision
Locations 1
1
0.222122329789775 -0.818042533305344 0.530535657908248 -16.9138129533646 
-0.136361821178633 0.512717266915828 0.847659399718549 -16.8662457808132 
-0.965436235249957 -0.260628889246259 0.00233618420769051 21.5363829576864 
Curve2ds 5
1 0 172.72484882410313 1 0 
2 0 0 1 0 -0 1 92.607927673646671
1 6.2831853071795862 -0 0 1 
1 0 -0 0 1 
1 0 0 1 0 
Curves 2
2 0 0 0 0 0 -1 -1 0 -0 0 1 0 92.607927673646671
1 0 0 145.80001760391494 -0.5361586841969409 -1.3132100328736806e-16 -0.84411721067645873 
Polygon3D 0
PolygonOnTriangulations 0
Surfaces 2
3 0 0 145.80001760391494 0 0 -1 -1 0 -0 0 1 0 0
0.56587980764080503
1 0 0 0 0 0 -1 -1 0 -0 0 1 0 
Triangulations 0

TShapes 11
Ve
1e-07
-92.6079276736467 -2.26824004402402e-14 0
0 0

0101101
*
Ed
 1e-07 1 1 0
1  1 0 0 6.28318530717959
2  1 1 0 0 6.28318530717959
2  2 2 0 0 6.28318530717959
0

0101000
+11 0 -11 0 *
Ve
1e-07
0 0 145.800017603915
0 0

0101101
*
Ed
 1e-07 1 1 0
1  2 0 0 172.724848824103
3  3 4CN 1 0 0 172.724848824103
0

0101000
-11 0 +9 0 *
Ed
 1e-07 1 1 1
2  5 1 0 0 6.28318530717959
0

0101000
+9 0 -9 0 *
Wi

0101100
-10 0 +8 0 +7 0 -8 0 *
Fa
0  1e-07 1 0

0111000
+6 0 *
Wi

0101100
+10 0 *
Fa
0  1e-07 2 0

0111000
+4 0 *
Sh

0101100
+5 0 +3 0 *
So

1100000
+2 0 *

+1 1 