DBRep_DrawableShape

CASCADE Topology V1, (c) Matra-Datavision
Locations 1
1
0.133987254759809 -0.410404013039657 -0.902006630598066 -30.5940036081856 
0.613697997315306 0.74903495390213 -0.249642556316061 -33.8976429652749 
0.778088801907027 -0.52011074197115 0.352225258085088 14.4858473147859 
Curve2ds 5
1 0 237.84330594838693 1 0 
2 0 0 1 0 -0 1 89.971726537929754
1 6.2831853071795862 -0 0 1 
1 0 -0 0 1 
1 0 0 1 0 
Curves 2
2 0 0 0 0 0 -1 -1 0 -0 0 1 0 89.971726537929754
1 0 0 220.16931350268132 -0.37828151681281302 -9.2652249748283435e-17 -0.92569060384007218 
Polygon3D 0
PolygonOnTriangulations 0
Surfaces 2
3 0 0 220.16931350268132 0 0 -1 -1 0 -0 0 1 0 0
0.38793915704961957
1 0 0 0 0 0 -1 -1 0 -0 0 1 0 
Triangulations 0

TShapes 11
Ve
1e-07
-89.9717265379298 -2.20367173836873e-14 0
0 0

0101101
*
Ed
 1e-07 1 1 0
1  1 0 0 6.28318530717959
2  1 1 0 0 6.28318530717959
2  2 2 0 0 6.28318530717959
0

0101000
+11 0 -11 0 *
Ve
1e-07
0 0 220.169313502681
0 0

0101101
*
Ed
 1e-07 1 1 0
1  2 0 0 237.843305948387
3  3 4CN 1 0 0 237.843305948387
0

0101000
-11 0 +9 0 *
Ed
 1e-07 1 1 1
2  5 1 0 0 6.28318530717959
0

0101000
+9 0 -9 0 *
Wi

0101100
-10 0 +8 0 +7 0 -8 0 *
Fa
0  1e-07 1 0

0111000
+6 0 *
Wi

0101100
+10 0 *
Fa
0  1e-07 2 0

0111000
+4 0 *
Sh

0101100
+5 0 +3 0 *
So

1100000
+2 0 *

+1 1 