DBRep_DrawableShape

CASCADE Topology V1, (c) Matra-Datavision
Locations 1
1
0.608804015971668 0.712305890495407 0.349253473142807 -42.7143612821885 
-0.678270623286264 0.695696879042536 -0.236547699370208 45.8809723016552 
-0.411468870904753 -0.0928771815680229 0.906679214176849 -23.1832287380341 
Curve2ds 5
1 0 141.10405743510282 1 0 
2 0 0 1 0 -0 1 61.888611664189924
1 6.2831853071795862 -0 0 1 
1 0 -0 0 1 
1 0 0 1 0 
Curves 2
2 0 0 0 0 0 -1 -1 0 -0 0 1 0 61.888611664189924
1 0 0 126.80755013376724 -0.43860263687069379 -1.074266630682568e-16 -0.89868110413542934 
Polygon3D 0
PolygonOnTriangulations 0
Surfaces 2
3 0 0 126.80755013376724 0 0 -1 -1 0 -0 0 1 0 0
0.45404317801434635
1 0 0 0 0 0 -1 -1 0 -0 0 1 0 
Triangulations 0

TShapes 11
Ve
1e-07
-61.8886116641899 -1.51583380356447e-14 0
0 0

0101101
*
Ed
 1e-07 1 1 0
1  1 0 0 6.28318530717959
2  1 1 0 0 6.28318530717959
2  2 2 0 0 6.28318530717959
0

0101000
+11 0 -11 0 *
Ve
1e-07
0 0 126.807550133767
0 0

0101101
*
Ed
 1e-07 1 1 0
1  2 0 0 141.104057435103
3  3 4CN 1 0 0 141.104057435103
0

0101000
-11 0 +9 0 *
Ed
 1e-07 1 1 1
2  5 1 0 0 6.28318530717959
0

0101000
+9 0 -9 0 *
Wi

0101100
-10 0 +8 0 +7 0 -8 0 *
Fa
0  1e-07 1 0

0111000
+6 0 *
Wi

0101100
+10 0 *
Fa
0  1e-07 2 0

0111000
+4 0 *
Sh

0101100
+5 0 +3 0 *
So

1100000
+2 0 *

+1 1 