DBRep_DrawableShape

CASCADE Topology V1, (c) Matra-Datavision
Locations 1
1
0.594565253819211 -0.201611698998475 -0.778360380400908 -42.6689335718312 
0.489306497292691 0.858888055397856 0.151295935180185 26.7573132226231 
0.638021402978031 -0.470812097467596 0.609314908910087 -40.9824428097766 
Curve2ds 5
1 0 70.364961932145746 1 0 
2 0 0 1 0 -0 1 33.679714914124503
1 6.2831853071795862 -0 0 1 
1 0 -0 0 1 
1 0 0 1 0 
Curves 2
2 0 0 -7.1054273576010019e-15 0 0 -1 -1 0 -0 0 1 0 33.679714914124503
1 0 0 61.781102863380632 -0.47864326206276481 -1.1723378776372253e-16 -0.87800946901608956 
Polygon3D 0
PolygonOnTriangulations 0
Surfaces 2
3 0 0 61.781102863380632 0 0 -1 -1 0 -0 0 1 0 0
0.49910881745201335
1 0 0 -7.1054273576010019e-15 0 0 -1 -1 0 -0 0 1 0 
Triangulations 0

TShapes 11
Ve
1e-07
-33.6797149141245 -8.24915101315559e-15 -7.105427357601e-15
0 0

0101101
*
Ed
 1e-07 1 1 0
1  1 0 0 6.28318530717959
2  1 1 0 0 6.28318530717959
2  2 2 0 0 6.28318530717959
0

0101000
+11 0 -11 0 *
Ve
1e-07
0 0 61.7811028633806
0 0

0101101
*
Ed
 1e-07 1 1 0
1  2 0 0 70.3649619321457
3  3 4CN 1 0 0 70.3649619321457
0

0101000
-11 0 +9 0 *
Ed
 1e-07 1 1 1
2  5 1 0 0 6.28318530717959
0

0101000
+9 0 -9 0 *
Wi

0101100
-10 0 +8 0 +7 0 -8 0 *
Fa
0  1e-07 1 0

0111000
+6 0 *
Wi

0101100
+10 0 *
Fa
0  1e-07 2 0

0111000
+4 0 *
Sh

0101100
+5 0 +3 0 *
So

1100000
+2 0 *

+1 1 