DBRep_DrawableShape

CASCADE Topology V1, (c) Matra-Datavision
Locations 1
1
0.312007883718378 -0.397643187816941 0.862862083811984 36.6954351747201 
0.843431129227753 0.533999663710572 -0.0588921845968827 -27.4811506663626 
-0.437349986563595 0.746139567600979 0.501996747910827 -19.8326305082229 
Curve2ds 5
1 0 115.93011509896162 1 0 
2 0 0 1 0 -0 1 48.18832501077808
1 6.2831853071795862 -0 0 1 
1 0 -0 0 1 
1 0 0 1 0 
Curves 2
2 0 0 -1.4210854715202004e-14 0 0 -1 -1 0 -0 0 1 0 48.18832501077808
1 0 0 105.44039510317717 -0.41566701602636208 -1.0180905613756318e-16 -0.90951686723652359 
Polygon3D 0
PolygonOnTriangulations 0
Surfaces 2
3 0 0 105.44039510317717 0 0 -1 -1 0 -0 0 1 0 0
0.42867605418295729
1 0 0 -1.4210854715202004e-14 0 0 -1 -1 0 -0 0 1 0 
Triangulations 0

TShapes 11
Ve
1e-07
-48.1883250107781 -1.18027355961443e-14 -1.4210854715202e-14
0 0

0101101
*
Ed
 1e-07 1 1 0
1  1 0 0 6.28318530717959
2  1 1 0 0 6.28318530717959
2  2 2 0 0 6.28318530717959
0

0101000
+11 0 -11 0 *
Ve
1e-07
0 0 105.440395103177
0 0

0101101
*
Ed
 1e-07 1 1 0
1  2 0 0 115.930115098962
3  3 4CN 1 0 0 115.930115098962
0

0101000
-11 0 +9 0 *
Ed
 1e-07 1 1 1
2  5 1 0 0 6.28318530717959
0

0101000
+9 0 -9 0 *
Wi

0101100
-10 0 +8 0 +7 0 -8 0 *
Fa
0  1e-07 1 0

0111000
+6 0 *
Wi

0101100
+10 0 *
Fa
0  1e-07 2 0

0111000
+4 0 *
Sh

0101100
+5 0 +3 0 *
So

1100000
+2 0 *

+1 1 