DBRep_DrawableShape

CASCADE Topology V1, (c) Matra-Datavision
Locations 1
1
0.0253523442918639 -0.0480981539554747 -0.99852081912446 8.8483613157652 
-0.105504940833917 0.99313478064093 -0.0505174716402492 -7.83516039838513 
0.994095551794966 0.106629616276939 0.0201037019997406 10.334628685768 
Curve2ds 5
1 0 206.809120888894 1 0 
2 0 0 1 0 -0 1 90.437474090097979
1 6.2831853071795862 -0 0 1 
1 0 -0 0 1 
1 0 0 1 0 
Curves 2
2 0 0 0 0 0 -1 -1 0 -0 0 1 0 90.437474090097979
1 0 0 185.98676233280699 -0.43729925305704748 -1.0710742610516832e-16 -0.89931605305128881 
Polygon3D 0
PolygonOnTriangulations 0
Surfaces 2
3 0 0 185.98676233280699 0 0 -1 -1 0 -0 0 1 0 0
0.4525933608329003
1 0 0 0 0 0 -1 -1 0 -0 0 1 0 
Triangulations 0

TShapes 11
Ve
1e-07
-90.437474090098 -2.2150792633482e-14 0
0 0

0101101
*
Ed
 1e-07 1 1 0
1  1 0 0 6.28318530717959
2  1 1 0 0 6.28318530717959
2  2 2 0 0 6.28318530717959
0

0101000
+11 0 -11 0 *
Ve
1e-07
0 0 185.986762332807
0 0

0101101
*
Ed
 1e-07 1 1 0
1  2 0 0 206.809120888894
3  3 4CN 1 0 0 206.809120888894
0

0101000
-11 0 +9 0 *
Ed
 1e-07 1 1 1
2  5 1 0 0 6.28318530717959
0

0101000
+9 0 -9 0 *
Wi

0101100
-10 0 +8 0 +7 0 -8 0 *
Fa
0  1e-07 1 0

0111000
+6 0 *
Wi

0101100
+10 0 *
Fa
0  1e-07 2 0

0111000
+4 0 *
Sh

0101100
+5 0 +3 0 *
So

1100000
+2 0 *

+1 1 