DBRep_DrawableShape

CASCADE Topology V1, (c) Matra-Datavision
Locations 1
1
0.291102004843975 -0.928951172926492 -0.228712354485527 11.2190577932489 
0.869932068576562 0.157548644289296 0.467329242338534 -8.55854282806807 
-0.398092726431822 -0.335004691013574 0.853987141683631 -44.6507566843301 
Curve2ds 5
1 0 245.26840299903691 1 0 
2 0 0 1 0 -0 1 58.182996916077293
1 6.2831853071795862 -0 0 1 
1 0 -0 0 1 
1 0 0 1 0 
Curves 2
2 0 0 0 0 0 -1 -1 0 -0 0 1 0 58.182996916077293
1 0 0 238.26734644000572 -0.23722173832683111 -5.8102568506024948e-17 -0.97145553005024188 
Polygon3D 0
PolygonOnTriangulations 0
Surfaces 2
3 0 0 238.26734644000572 0 0 -1 -1 0 -0 0 1 0 0
0.23950495192693511
1 0 0 0 0 0 -1 -1 0 -0 0 1 0 
Triangulations 0

TShapes 11
Ve
1e-07
-58.1829969160773 -1.42507241876149e-14 0
0 0

0101101
*
Ed
 1e-07 1 1 0
1  1 0 0 6.28318530717959
2  1 1 0 0 6.28318530717959
2  2 2 0 0 6.28318530717959
0

0101000
+11 0 -11 0 *
Ve
1e-07
0 0 238.267346440006
0 0

0101101
*
Ed
 1e-07 1 1 0
1  2 0 0 245.268402999037
3  3 4CN 1 0 0 245.268402999037
0

0101000
-11 0 +9 0 *
Ed
 1e-07 1 1 1
2  5 1 0 0 6.28318530717959
0

0101000
+9 0 -9 0 *
Wi

0101100
-10 0 +8 0 +7 0 -8 0 *
Fa
0  1e-07 1 0

0111000
+6 0 *
Wi

0101100
+10 0 *
Fa
0  1e-07 2 0

0111000
+4 0 *
Sh

0101100
+5 0 +3 0 *
So

1100000
+2 0 *

+1 1 