DBRep_DrawableShape

CASCADE Topology V1, (c) Matra-Datavision
Locations 1
1
0.0721705971168118 -0.39399599852829 -0.916274281018243 -44.9516998132659 
0.00546321288510096 0.918812272197923 -0.394657017881935 -34.0613440673992 
0.997377339935481 0.023476831178534 0.0684637143386167 11.7909715292258 
Curve2ds 5
1 0 95.292640275426649 1 0 
2 0 0 1 0 -0 1 40.365959852090697
1 6.2831853071795862 -0 0 1 
1 0 -0 0 1 
1 0 0 1 0 
Curves 2
2 0 0 -1.4210854715202004e-14 0 0 -1 -1 0 -0 0 1 0 40.365959852090697
1 0 0 86.320777196925576 -0.42359997304534724 -1.0375207022177792e-16 -0.90584935990261717 
Polygon3D 0
PolygonOnTriangulations 0
Surfaces 2
3 0 0 86.320777196925576 0 0 -1 -1 0 -0 0 1 0 0
0.43741578548910998
1 0 0 -1.4210854715202004e-14 0 0 -1 -1 0 -0 0 1 0 
Triangulations 0

TShapes 11
Ve
1e-07
-40.3659598520907 -9.88680870547469e-15 -1.4210854715202e-14
0 0

0101101
*
Ed
 1e-07 1 1 0
1  1 0 0 6.28318530717959
2  1 1 0 0 6.28318530717959
2  2 2 0 0 6.28318530717959
0

0101000
+11 0 -11 0 *
Ve
1e-07
0 0 86.3207771969256
0 0

0101101
*
Ed
 1e-07 1 1 0
1  2 0 0 95.2926402754266
3  3 4CN 1 0 0 95.2926402754266
0

0101000
-11 0 +9 0 *
Ed
 1e-07 1 1 1
2  5 1 0 0 6.28318530717959
0

0101000
+9 0 -9 0 *
Wi

0101100
-10 0 +8 0 +7 0 -8 0 *
Fa
0  1e-07 1 0

0111000
+6 0 *
Wi

0101100
+10 0 *
Fa
0  1e-07 2 0

0111000
+4 0 *
Sh

0101100
+5 0 +3 0 *
So

1100000
+2 0 *

+1 1 