DBRep_DrawableShape

CASCADE Topology V1, (c) Matra-Datavision
Locations 1
1
0.897494393890418 0.172224645577716 0.406007985624546 -19.1052187500638 
-0.349486576885507 0.839253393443224 0.416548765657616 -12.286493846093 
-0.26900361616923 -0.515744523043786 0.813415417507079 39.1954267098426 
Curve2ds 5
1 0 113.19374370163074 1 0 
2 0 0 1 0 -0 1 78.935693978066055
1 6.2831853071795862 -0 0 1 
1 0 -0 0 1 
1 0 0 1 0 
Curves 2
2 0 0 0 0 0 -1 -1 0 -0 0 1 0 78.935693978066055
1 0 0 81.129401756647837 -0.69735032517463125 -1.7080156872189562e-16 -0.71673044024851917 
Polygon3D 0
PolygonOnTriangulations 0
Surfaces 2
3 0 0 81.129401756647837 0 0 -1 -1 0 -0 0 1 0 0
0.77169392365571954
1 0 0 0 0 0 -1 -1 0 -0 0 1 0 
Triangulations 0

TShapes 11
Ve
1e-07
-78.9356939780661 -1.93336689937427e-14 0
0 0

0101101
*
Ed
 1e-07 1 1 0
1  1 0 0 6.28318530717959
2  1 1 0 0 6.28318530717959
2  2 2 0 0 6.28318530717959
0

0101000
+11 0 -11 0 *
Ve
1e-07
0 0 81.1294017566478
0 0

0101101
*
Ed
 1e-07 1 1 0
1  2 0 0 113.193743701631
3  3 4CN 1 0 0 113.193743701631
0

0101000
-11 0 +9 0 *
Ed
 1e-07 1 1 1
2  5 1 0 0 6.28318530717959
0

0101000
+9 0 -9 0 *
Wi

0101100
-10 0 +8 0 +7 0 -8 0 *
Fa
0  1e-07 1 0

0111000
+6 0 *
Wi

0101100
+10 0 *
Fa
0  1e-07 2 0

0111000
+4 0 *
Sh

0101100
+5 0 +3 0 *
So

1100000
+2 0 *

+1 1 