DBRep_DrawableShape

CASCADE Topology V1, (c) Matra-Datavision
Locations 1
1
0.865667008107143 0.0100494375296568 -0.500519370134828 -14.3797101038801 
-0.489057475242568 0.230615699581444 -0.841212924898284 27.0175365787281 
0.106973907959802 0.972993015345896 0.204551155225066 18.2900291701574 
Curve2ds 5
1 0 153.02783863454124 1 0 
2 0 0 1 0 -0 1 28.06097106249198
1 6.2831853071795862 -0 0 1 
1 0 -0 0 1 
1 0 0 1 0 
Curves 2
2 0 0 0 0 0 -1 -1 0 -0 0 1 0 28.06097106249198
1 0 0 150.43304590477845 -0.18337167480687461 -4.4913106921305667e-17 -0.9830436556320995 
Polygon3D 0
PolygonOnTriangulations 0
Surfaces 2
3 0 0 150.43304590477845 0 0 -1 -1 0 -0 0 1 0 0
0.18441519371286341
1 0 0 0 0 0 -1 -1 0 -0 0 1 0 
Triangulations 0

TShapes 11
Ve
1e-07
-28.060971062492 -6.87295567852946e-15 0
0 0

0101101
*
Ed
 1e-07 1 1 0
1  1 0 0 6.28318530717959
2  1 1 0 0 6.28318530717959
2  2 2 0 0 6.28318530717959
0

0101000
+11 0 -11 0 *
Ve
1e-07
0 0 150.433045904778
0 0

0101101
*
Ed
 1e-07 1 1 0
1  2 0 0 153.027838634541
3  3 4CN 1 0 0 153.027838634541
0

0101000
-11 0 +9 0 *
Ed
 1e-07 1 1 1
2  5 1 0 0 6.28318530717959
0

0101000
+9 0 -9 0 *
Wi

0101100
-10 0 +8 0 +7 0 -8 0 *
Fa
0  1e-07 1 0

0111000
+6 0 *
Wi

0101100
+10 0 *
Fa
0  1e-07 2 0

0111000
+4 0 *
Sh

0101100
+5 0 +3 0 *
So

1100000
+2 0 *

+1 1 