DBRep_DrawableShape

CASCADE Topology V1, (c) Matra-Datavision
Locations 0
Curve2ds 5
1 0 21.44906757880165 1 0 
2 0 0 1 0 -0 1 7.7500000000000009
1 6.2831853071795862 -0 0 1 
1 0 -0 0 1 
1 0 0 1 0 
Curves 2
2 0 0 0 0 0 -1 -1 0 -0 0 1 0 7.7500000000000009
1 0 0 20 -0.36132106775864753 -8.8498137819026319e-17 -0.93244146518360649 
Polygon3D 0
PolygonOnTriangulations 0
Surfaces 2
3 0 0 20 0 0 -1 -1 0 -0 0 1 0 0
0.36968428879530135
1 0 0 0 0 0 -1 -1 0 -0 0 1 0 
Triangulations 0

TShapes 11
Ve
1e-07
-7.75 -1.8982025386784e-15 0
0 0

0101101
*
Ed
 1e-07 1 1 0
1  1 0 0 6.28318530717959
2  1 1 0 0 6.28318530717959
2  2 2 0 0 6.28318530717959
0

0101000
+11 0 -11 0 *
Ve
1e-07
0 0 20
0 0

0101101
*
Ed
 1e-07 1 1 0
1  2 0 0 21.4490675788016
3  3 4CN 1 0 0 21.4490675788016
0

0101000
-11 0 +9 0 *
Ed
 1e-07 1 1 1
2  5 1 0 0 6.28318530717959
0

0101000
+9 0 -9 0 *
Wi

0101100
-10 0 +8 0 +7 0 -8 0 *
Fa
0  1e-07 1 0

0101000
+6 0 *
Wi

0101100
+10 0 *
Fa
0  1e-07 2 0

0101000
+4 0 *
Sh

0101100
+5 0 +3 0 *
So

1100000
+2 0 *

+1 0 