DBRep_DrawableShape

CASCADE Topology V1, (c) Matra-Datavision
Locations 1
1
0.439144371960197 -0.891070507681621 0.114654136060165 -12.1720439738312 
0.339072003222485 0.046202456980255 -0.939625196341434 17.3745014902774 
0.831974997945476 0.451507124316999 0.322426611005696 9.79409451204073 
Curve2ds 12
1 0 227.19999999999999 1 0 
2 0 0 1 0 -0 1 8.4000000000000004
1 6.2831853071795862 -0 0 1 
1 0 -0 0 1 
1 0 0 1 0 
2 0 0 1 0 -0 1 8.4000000000000004
1 0 227.19999999999999 1 0 
2 0 0 1 0 -0 1 7.4000000000000004
1 0 0 1 0 
2 0 0 1 0 -0 1 7.4000000000000004
1 6.2831853071795862 -0 0 1 
1 0 -0 0 1 
Curves 6
2 0 227.19999999999999 0 0 1 0 0 -0 1 1 0 -0 8.4000000000000004
1 -2.0574066225675536e-15 0 8.4000000000000004 0 1 0 
2 0 0 0 0 1 0 0 -0 1 1 0 -0 8.4000000000000004
2 0 227.19999999999999 0 0 1 0 0 -0 1 1 0 -0 7.4000000000000004
2 0 0 0 0 1 0 0 -0 1 1 0 -0 7.4000000000000004
1 -1.8124772627380829e-15 0 7.4000000000000004 0 1 0 
Polygon3D 0
PolygonOnTriangulations 0
Surfaces 6
2 0 0 0 0 1 0 0 -0 1 1 0 -0 8.4000000000000004
1 0 227.19999999999999 0 0 1 0 0 -0 1 1 0 -0 
1 0 0 0 0 1 0 0 -0 1 1 0 -0 
2 0 0 0 0 1 0 0 -0 1 1 0 -0 7.4000000000000004
1 0 227.19999999999999 0 0 1 0 0 -0 1 1 0 -0 
1 0 0 0 0 1 0 0 -0 1 1 0 -0 
Triangulations 0

TShapes 23
Ve
1e-07
-2.05740662256755e-15 227.2 8.4
0 0

0101101
*
Ed
 1e-07 1 1 0
1  1 0 0 6.28318530717959
2  1 1 0 0 6.28318530717959
2  2 2 0 0 6.28318530717959
0

0101000
+23 0 -23 0 *
Ve
1e-07
-2.05740662256755e-15 0 8.4
0 0

0101101
*
Ed
 1e-07 1 1 0
1  2 0 0 227.2
3  3 4CN 1 0 0 227.2
0

0101000
-23 0 +21 0 *
Ed
 1e-07 1 1 0
1  3 0 0 6.28318530717959
2  5 1 0 0 6.28318530717959
2  6 3 0 0 6.28318530717959
0

0101000
+21 0 -21 0 *
Wi

0101100
-22 0 +20 0 +19 0 -20 0 *
Fa
0  1e-07 1 0

0111000
+18 0 *
Wi

0101100
+22 0 *
Ve
1e-07
-1.81247726273808e-15 227.2 7.4
0 0

0101101
*
Ed
 1e-07 1 1 0
1  4 0 0 6.28318530717959
2  7 4 0 0 6.28318530717959
2  8 5 0 0 6.28318530717959
0

0101000
+15 0 -15 0 *
Wi

0101100
-14 0 *
Fa
0  1e-07 2 0

0101000
+16 0 +13 0 *
Wi

0101100
+19 0 *
Ve
1e-07
-1.81247726273808e-15 0 7.4
0 0

0101101
*
Ed
 1e-07 1 1 0
1  5 0 0 6.28318530717959
2  9 4 0 0 6.28318530717959
2  10 6 0 0 6.28318530717959
0

0101000
+10 0 -10 0 *
Wi

0101100
-9 0 *
Fa
0  1e-07 3 0

0101000
+11 0 +8 0 *
Ed
 1e-07 1 1 0
1  6 0 0 227.2
3  11 12CN 4 0 0 227.2
0

0101000
+10 0 -15 0 *
Wi

0101100
-14 0 +6 0 +9 0 -6 0 *
Fa
0  1e-07 4 0

0101000
+5 0 *
Sh

0101100
+17 0 +12 0 -7 0 -4 0 *
So

0100000
+3 0 *
Co

1100000
+2 0 *

+1 1 