DBRep_DrawableShape

CASCADE Topology V1, (c) Matra-Datavision
Locations 1
1
0.801461329647507 0.587626985599785 -0.11114973177907 6.65805584458673 
-0.371686182879555 0.635031189934697 0.67718887266888 -0.546391004635574 
0.468518002360716 -0.501427874778648 0.727365773087305 8.30291852267115 
Curve2ds 12
1 0 224.40000000000001 1 0 
2 0 0 1 0 -0 1 8.0500000000000007
1 6.2831853071795862 -0 0 1 
1 0 -0 0 1 
1 0 0 1 0 
2 0 0 1 0 -0 1 8.0500000000000007
1 0 224.40000000000001 1 0 
2 0 0 1 0 -0 1 7.0500000000000007
1 0 0 1 0 
2 0 0 1 0 -0 1 7.0500000000000007
1 6.2831853071795862 -0 0 1 
1 0 -0 0 1 
Curves 6
2 0 224.40000000000001 0 0 1 0 0 -0 1 1 0 -0 8.0500000000000007
1 -1.9716813466272389e-15 0 8.0500000000000007 0 1 0 
2 0 0 0 0 1 0 0 -0 1 1 0 -0 8.0500000000000007
2 0 224.40000000000001 0 0 1 0 0 -0 1 1 0 -0 7.0500000000000007
2 0 0 0 0 1 0 0 -0 1 1 0 -0 7.0500000000000007
1 -1.7267519867977682e-15 0 7.0500000000000007 0 1 0 
Polygon3D 0
PolygonOnTriangulations 0
Surfaces 6
2 0 0 0 0 1 0 0 -0 1 1 0 -0 8.0500000000000007
1 0 224.40000000000001 0 0 1 0 0 -0 1 1 0 -0 
1 0 0 0 0 1 0 0 -0 1 1 0 -0 
2 0 0 0 0 1 0 0 -0 1 1 0 -0 7.0500000000000007
1 0 224.40000000000001 0 0 1 0 0 -0 1 1 0 -0 
1 0 0 0 0 1 0 0 -0 1 1 0 -0 
Triangulations 0

TShapes 23
Ve
1e-07
-1.97168134662724e-15 224.4 8.05
0 0

0101101
*
Ed
 1e-07 1 1 0
1  1 0 0 6.28318530717959
2  1 1 0 0 6.28318530717959
2  2 2 0 0 6.28318530717959
0

0101000
+23 0 -23 0 *
Ve
1e-07
-1.97168134662724e-15 0 8.05
0 0

0101101
*
Ed
 1e-07 1 1 0
1  2 0 0 224.4
3  3 4CN 1 0 0 224.4
0

0101000
-23 0 +21 0 *
Ed
 1e-07 1 1 0
1  3 0 0 6.28318530717959
2  5 1 0 0 6.28318530717959
2  6 3 0 0 6.28318530717959
0

0101000
+21 0 -21 0 *
Wi

0101100
-22 0 +20 0 +19 0 -20 0 *
Fa
0  1e-07 1 0

0111000
+18 0 *
Wi

0101100
+22 0 *
Ve
1e-07
-1.72675198679777e-15 224.4 7.05
0 0

0101101
*
Ed
 1e-07 1 1 0
1  4 0 0 6.28318530717959
2  7 4 0 0 6.28318530717959
2  8 5 0 0 6.28318530717959
0

0101000
+15 0 -15 0 *
Wi

0101100
-14 0 *
Fa
0  1e-07 2 0

0101000
+16 0 +13 0 *
Wi

0101100
+19 0 *
Ve
1e-07
-1.72675198679777e-15 0 7.05
0 0

0101101
*
Ed
 1e-07 1 1 0
1  5 0 0 6.28318530717959
2  9 4 0 0 6.28318530717959
2  10 6 0 0 6.28318530717959
0

0101000
+10 0 -10 0 *
Wi

0101100
-9 0 *
Fa
0  1e-07 3 0

0101000
+11 0 +8 0 *
Ed
 1e-07 1 1 0
1  6 0 0 224.4
3  11 12CN 4 0 0 224.4
0

0101000
+10 0 -15 0 *
Wi

0101100
-14 0 +6 0 +9 0 -6 0 *
Fa
0  1e-07 4 0

0101000
+5 0 *
Sh

0101100
+17 0 +12 0 -7 0 -4 0 *
So

0100000
+3 0 *
Co

1100000
+2 0 *

+1 1 