DBRep_DrawableShape

CASCADE Topology V1, (c) Matra-Datavision
Locations 1
1
0.00971121972819966 -0.648110304260096 0.761484553831052 -14.9625712636994 
0.0531991427336889 -0.76010712603956 -0.647616405101263 -18.3630796478203 
0.998536701090046 0.0467994706782827 0.0270973452655669 -17.8627087667018 
Curve2ds 12
1 0 224.80000000000001 1 0 
2 0 0 1 0 -0 1 8.0999999999999996
1 6.2831853071795862 -0 0 1 
1 0 -0 0 1 
1 0 0 1 0 
2 0 0 1 0 -0 1 8.0999999999999996
1 0 224.80000000000001 1 0 
2 0 0 1 0 -0 1 7.0999999999999996
1 0 0 1 0 
2 0 0 1 0 -0 1 7.0999999999999996
1 6.2831853071795862 -0 0 1 
1 0 -0 0 1 
Curves 6
2 0 224.80000000000001 0 0 1 0 0 -0 1 1 0 -0 8.0999999999999996
1 -1.9839278146187122e-15 0 8.0999999999999996 0 1 0 
2 0 0 0 0 1 0 0 -0 1 1 0 -0 8.0999999999999996
2 0 224.80000000000001 0 0 1 0 0 -0 1 1 0 -0 7.0999999999999996
2 0 0 0 0 1 0 0 -0 1 1 0 -0 7.0999999999999996
1 -1.7389984547892415e-15 0 7.0999999999999996 0 1 0 
Polygon3D 0
PolygonOnTriangulations 0
Surfaces 6
2 0 0 0 0 1 0 0 -0 1 1 0 -0 8.0999999999999996
1 0 224.80000000000001 0 0 1 0 0 -0 1 1 0 -0 
1 0 0 0 0 1 0 0 -0 1 1 0 -0 
2 0 0 0 0 1 0 0 -0 1 1 0 -0 7.0999999999999996
1 0 224.80000000000001 0 0 1 0 0 -0 1 1 0 -0 
1 0 0 0 0 1 0 0 -0 1 1 0 -0 
Triangulations 0

TShapes 23
Ve
1e-07
-1.98392781461871e-15 224.8 8.1
0 0

0101101
*
Ed
 1e-07 1 1 0
1  1 0 0 6.28318530717959
2  1 1 0 0 6.28318530717959
2  2 2 0 0 6.28318530717959
0

0101000
+23 0 -23 0 *
Ve
1e-07
-1.98392781461871e-15 0 8.1
0 0

0101101
*
Ed
 1e-07 1 1 0
1  2 0 0 224.8
3  3 4CN 1 0 0 224.8
0

0101000
-23 0 +21 0 *
Ed
 1e-07 1 1 0
1  3 0 0 6.28318530717959
2  5 1 0 0 6.28318530717959
2  6 3 0 0 6.28318530717959
0

0101000
+21 0 -21 0 *
Wi

0101100
-22 0 +20 0 +19 0 -20 0 *
Fa
0  1e-07 1 0

0111000
+18 0 *
Wi

0101100
+22 0 *
Ve
1e-07
-1.73899845478924e-15 224.8 7.1
0 0

0101101
*
Ed
 1e-07 1 1 0
1  4 0 0 6.28318530717959
2  7 4 0 0 6.28318530717959
2  8 5 0 0 6.28318530717959
0

0101000
+15 0 -15 0 *
Wi

0101100
-14 0 *
Fa
0  1e-07 2 0

0101000
+16 0 +13 0 *
Wi

0101100
+19 0 *
Ve
1e-07
-1.73899845478924e-15 0 7.1
0 0

0101101
*
Ed
 1e-07 1 1 0
1  5 0 0 6.28318530717959
2  9 4 0 0 6.28318530717959
2  10 6 0 0 6.28318530717959
0

0101000
+10 0 -10 0 *
Wi

0101100
-9 0 *
Fa
0  1e-07 3 0

0101000
+11 0 +8 0 *
Ed
 1e-07 1 1 0
1  6 0 0 224.8
3  11 12CN 4 0 0 224.8
0

0101000
+10 0 -15 0 *
Wi

0101100
-14 0 +6 0 +9 0 -6 0 *
Fa
0  1e-07 4 0

0101000
+5 0 *
Sh

0101100
+17 0 +12 0 -7 0 -4 0 *
So

0100000
+3 0 *
Co

1100000
+2 0 *

+1 1 