DBRep_DrawableShape

CASCADE Topology V1, (c) Matra-Datavision
Locations 1
1
0.223358213760074 0.374113119032773 0.900083597513853 -6.77488473176578 
0.312696296196303 0.847105568340951 -0.429689635005162 10.5568048479655 
-0.923218356994174 0.377427516555597 0.0722241999308523 11.8220984462839 
Curve2ds 12
1 0 239.59999999999999 1 0 
2 0 0 1 0 -0 1 9.9499999999999993
1 6.2831853071795862 -0 0 1 
1 0 -0 0 1 
1 0 0 1 0 
2 0 0 1 0 -0 1 9.9499999999999993
1 0 239.59999999999999 1 0 
2 0 0 1 0 -0 1 8.9499999999999993
1 0 0 1 0 
2 0 0 1 0 -0 1 8.9499999999999993
1 6.2831853071795862 -0 0 1 
1 0 -0 0 1 
Curves 6
2 0 239.59999999999999 0 0 1 0 0 -0 1 1 0 -0 9.9499999999999993
1 -2.4370471303032328e-15 0 9.9499999999999993 0 1 0 
2 0 0 0 0 1 0 0 -0 1 1 0 -0 9.9499999999999993
2 0 239.59999999999999 0 0 1 0 0 -0 1 1 0 -0 8.9499999999999993
2 0 0 0 0 1 0 0 -0 1 1 0 -0 8.9499999999999993
1 -2.1921177704737621e-15 0 8.9499999999999993 0 1 0 
Polygon3D 0
PolygonOnTriangulations 0
Surfaces 6
2 0 0 0 0 1 0 0 -0 1 1 0 -0 9.9499999999999993
1 0 239.59999999999999 0 0 1 0 0 -0 1 1 0 -0 
1 0 0 0 0 1 0 0 -0 1 1 0 -0 
2 0 0 0 0 1 0 0 -0 1 1 0 -0 8.9499999999999993
1 0 239.59999999999999 0 0 1 0 0 -0 1 1 0 -0 
1 0 0 0 0 1 0 0 -0 1 1 0 -0 
Triangulations 0

TShapes 23
Ve
1e-07
-2.43704713030323e-15 239.6 9.95
0 0

0101101
*
Ed
 1e-07 1 1 0
1  1 0 0 6.28318530717959
2  1 1 0 0 6.28318530717959
2  2 2 0 0 6.28318530717959
0

0101000
+23 0 -23 0 *
Ve
1e-07
-2.43704713030323e-15 0 9.95
0 0

0101101
*
Ed
 1e-07 1 1 0
1  2 0 0 239.6
3  3 4CN 1 0 0 239.6
0

0101000
-23 0 +21 0 *
Ed
 1e-07 1 1 0
1  3 0 0 6.28318530717959
2  5 1 0 0 6.28318530717959
2  6 3 0 0 6.28318530717959
0

0101000
+21 0 -21 0 *
Wi

0101100
-22 0 +20 0 +19 0 -20 0 *
Fa
0  1e-07 1 0

0111000
+18 0 *
Wi

0101100
+22 0 *
Ve
1e-07
-2.19211777047376e-15 239.6 8.95
0 0

0101101
*
Ed
 1e-07 1 1 0
1  4 0 0 6.28318530717959
2  7 4 0 0 6.28318530717959
2  8 5 0 0 6.28318530717959
0

0101000
+15 0 -15 0 *
Wi

0101100
-14 0 *
Fa
0  1e-07 2 0

0101000
+16 0 +13 0 *
Wi

0101100
+19 0 *
Ve
1e-07
-2.19211777047376e-15 0 8.95
0 0

0101101
*
Ed
 1e-07 1 1 0
1  5 0 0 6.28318530717959
2  9 4 0 0 6.28318530717959
2  10 6 0 0 6.28318530717959
0

0101000
+10 0 -10 0 *
Wi

0101100
-9 0 *
Fa
0  1e-07 3 0

0101000
+11 0 +8 0 *
Ed
 1e-07 1 1 0
1  6 0 0 239.6
3  11 12CN 4 0 0 239.6
0

0101000
+10 0 -15 0 *
Wi

0101100
-14 0 +6 0 +9 0 -6 0 *
Fa
0  1e-07 4 0

0101000
+5 0 *
Sh

0101100
+17 0 +12 0 -7 0 -4 0 *
So

0100000
+3 0 *
Co

1100000
+2 0 *

+1 1 