DBRep_DrawableShape

CASCADE Topology V1, (c) Matra-Datavision
Locations 1
1
0.00908229768688406 -0.0604710004978845 0.998128633978362 -11.2431350005585 
0.998544705219692 0.0536133377249223 -0.00583795304116727 3.59323697105277 
-0.0531599806851383 0.99672908461466 0.0608699296597051 4.03286956421126 
Curve2ds 12
1 0 205.59999999999999 1 0 
2 0 0 1 0 -0 1 5.7000000000000002
1 6.2831853071795862 -0 0 1 
1 0 -0 0 1 
1 0 0 1 0 
2 0 0 1 0 -0 1 5.7000000000000002
1 0 205.59999999999999 1 0 
2 0 0 1 0 -0 1 4.7000000000000002
1 0 0 1 0 
2 0 0 1 0 -0 1 4.7000000000000002
1 6.2831853071795862 -0 0 1 
1 0 -0 0 1 
Curves 6
2 0 205.59999999999999 0 0 1 0 0 -0 1 1 0 -0 5.7000000000000002
1 -1.3960973510279826e-15 0 5.7000000000000002 0 1 0 
2 0 0 0 0 1 0 0 -0 1 1 0 -0 5.7000000000000002
2 0 205.59999999999999 0 0 1 0 0 -0 1 1 0 -0 4.7000000000000002
2 0 0 0 0 1 0 0 -0 1 1 0 -0 4.7000000000000002
1 -1.1511679911985121e-15 0 4.7000000000000002 0 1 0 
Polygon3D 0
PolygonOnTriangulations 0
Surfaces 6
2 0 0 0 0 1 0 0 -0 1 1 0 -0 5.7000000000000002
1 0 205.59999999999999 0 0 1 0 0 -0 1 1 0 -0 
1 0 0 0 0 1 0 0 -0 1 1 0 -0 
2 0 0 0 0 1 0 0 -0 1 1 0 -0 4.7000000000000002
1 0 205.59999999999999 0 0 1 0 0 -0 1 1 0 -0 
1 0 0 0 0 1 0 0 -0 1 1 0 -0 
Triangulations 0

TShapes 23
Ve
1e-07
-1.39609735102798e-15 205.6 5.7
0 0

0101101
*
Ed
 1e-07 1 1 0
1  1 0 0 6.28318530717959
2  1 1 0 0 6.28318530717959
2  2 2 0 0 6.28318530717959
0

0101000
+23 0 -23 0 *
Ve
1e-07
-1.39609735102798e-15 0 5.7
0 0

0101101
*
Ed
 1e-07 1 1 0
1  2 0 0 205.6
3  3 4CN 1 0 0 205.6
0

0101000
-23 0 +21 0 *
Ed
 1e-07 1 1 0
1  3 0 0 6.28318530717959
2  5 1 0 0 6.28318530717959
2  6 3 0 0 6.28318530717959
0

0101000
+21 0 -21 0 *
Wi

0101100
-22 0 +20 0 +19 0 -20 0 *
Fa
0  1e-07 1 0

0111000
+18 0 *
Wi

0101100
+22 0 *
Ve
1e-07
-1.15116799119851e-15 205.6 4.7
0 0

0101101
*
Ed
 1e-07 1 1 0
1  4 0 0 6.28318530717959
2  7 4 0 0 6.28318530717959
2  8 5 0 0 6.28318530717959
0

0101000
+15 0 -15 0 *
Wi

0101100
-14 0 *
Fa
0  1e-07 2 0

0101000
+16 0 +13 0 *
Wi

0101100
+19 0 *
Ve
1e-07
-1.15116799119851e-15 0 4.7
0 0

0101101
*
Ed
 1e-07 1 1 0
1  5 0 0 6.28318530717959
2  9 4 0 0 6.28318530717959
2  10 6 0 0 6.28318530717959
0

0101000
+10 0 -10 0 *
Wi

0101100
-9 0 *
Fa
0  1e-07 3 0

0101000
+11 0 +8 0 *
Ed
 1e-07 1 1 0
1  6 0 0 205.6
3  11 12CN 4 0 0 205.6
0

0101000
+10 0 -15 0 *
Wi

0101100
-14 0 +6 0 +9 0 -6 0 *
Fa
0  1e-07 4 0

0101000
+5 0 *
Sh

0101100
+17 0 +12 0 -7 0 -4 0 *
So

0100000
+3 0 *
Co

1100000
+2 0 *

+1 1 