DBRep_DrawableShape

CASCADE Topology V1, (c) Matra-Datavision
Locations 1
1
0.968567910279024 0.127018152946036 -0.213875178550254 13.9708624408042 
-0.216601276373722 0.00788901716830237 -0.976228277853798 12.9337620671266 
-0.122311447751222 0.991869019694786 0.0351533429236019 -19.9876868582418 
Curve2ds 12
1 0 210.40000000000001 1 0 
2 0 0 1 0 -0 1 6.2999999999999998
1 6.2831853071795862 -0 0 1 
1 0 -0 0 1 
1 0 0 1 0 
2 0 0 1 0 -0 1 6.2999999999999998
1 0 210.40000000000001 1 0 
2 0 0 1 0 -0 1 5.2999999999999998
1 0 0 1 0 
2 0 0 1 0 -0 1 5.2999999999999998
1 6.2831853071795862 -0 0 1 
1 0 -0 0 1 
Curves 6
2 0 210.40000000000001 0 0 1 0 0 -0 1 1 0 -0 6.2999999999999998
1 -1.5430549669256651e-15 0 6.2999999999999998 0 1 0 
2 0 0 0 0 1 0 0 -0 1 1 0 -0 6.2999999999999998
2 0 210.40000000000001 0 0 1 0 0 -0 1 1 0 -0 5.2999999999999998
2 0 0 0 0 1 0 0 -0 1 1 0 -0 5.2999999999999998
1 -1.2981256070961944e-15 0 5.2999999999999998 0 1 0 
Polygon3D 0
PolygonOnTriangulations 0
Surfaces 6
2 0 0 0 0 1 0 0 -0 1 1 0 -0 6.2999999999999998
1 0 210.40000000000001 0 0 1 0 0 -0 1 1 0 -0 
1 0 0 0 0 1 0 0 -0 1 1 0 -0 
2 0 0 0 0 1 0 0 -0 1 1 0 -0 5.2999999999999998
1 0 210.40000000000001 0 0 1 0 0 -0 1 1 0 -0 
1 0 0 0 0 1 0 0 -0 1 1 0 -0 
Triangulations 0

TShapes 23
Ve
1e-07
-1.54305496692567e-15 210.4 6.3
0 0

0101101
*
Ed
 1e-07 1 1 0
1  1 0 0 6.28318530717959
2  1 1 0 0 6.28318530717959
2  2 2 0 0 6.28318530717959
0

0101000
+23 0 -23 0 *
Ve
1e-07
-1.54305496692567e-15 0 6.3
0 0

0101101
*
Ed
 1e-07 1 1 0
1  2 0 0 210.4
3  3 4CN 1 0 0 210.4
0

0101000
-23 0 +21 0 *
Ed
 1e-07 1 1 0
1  3 0 0 6.28318530717959
2  5 1 0 0 6.28318530717959
2  6 3 0 0 6.28318530717959
0

0101000
+21 0 -21 0 *
Wi

0101100
-22 0 +20 0 +19 0 -20 0 *
Fa
0  1e-07 1 0

0111000
+18 0 *
Wi

0101100
+22 0 *
Ve
1e-07
-1.29812560709619e-15 210.4 5.3
0 0

0101101
*
Ed
 1e-07 1 1 0
1  4 0 0 6.28318530717959
2  7 4 0 0 6.28318530717959
2  8 5 0 0 6.28318530717959
0

0101000
+15 0 -15 0 *
Wi

0101100
-14 0 *
Fa
0  1e-07 2 0

0101000
+16 0 +13 0 *
Wi

0101100
+19 0 *
Ve
1e-07
-1.29812560709619e-15 0 5.3
0 0

0101101
*
Ed
 1e-07 1 1 0
1  5 0 0 6.28318530717959
2  9 4 0 0 6.28318530717959
2  10 6 0 0 6.28318530717959
0

0101000
+10 0 -10 0 *
Wi

0101100
-9 0 *
Fa
0  1e-07 3 0

0101000
+11 0 +8 0 *
Ed
 1e-07 1 1 0
1  6 0 0 210.4
3  11 12CN 4 0 0 210.4
0

0101000
+10 0 -15 0 *
Wi

0101100
-14 0 +6 0 +9 0 -6 0 *
Fa
0  1e-07 4 0

0101000
+5 0 *
Sh

0101100
+17 0 +12 0 -7 0 -4 0 *
So

0100000
+3 0 *
Co

1100000
+2 0 *

+1 1 