DBRep_DrawableShape

CASCADE Topology V1, (c) Matra-Datavision
Locations 1
1
0.311526608474946 0.361807078453996 -0.878661943066093 12.1018650894573 
0.172923448756487 0.887650830196476 0.426817858719232 -10.1391176967572 
0.934370725719862 -0.284906373449406 0.213961924850304 4.82987720299331 
Curve2ds 12
1 0 214 1 0 
2 0 0 1 0 -0 1 6.75
1 6.2831853071795862 -0 0 1 
1 0 -0 0 1 
1 0 0 1 0 
2 0 0 1 0 -0 1 6.75
1 0 214 1 0 
2 0 0 1 0 -0 1 5.75
1 0 0 1 0 
2 0 0 1 0 -0 1 5.75
1 6.2831853071795862 -0 0 1 
1 0 -0 0 1 
Curves 6
2 0 214 0 0 1 0 0 -0 1 1 0 -0 6.75
1 -1.6532731788489269e-15 0 6.75 0 1 0 
2 0 0 0 0 1 0 0 -0 1 1 0 -0 6.75
2 0 214 0 0 1 0 0 -0 1 1 0 -0 5.75
2 0 0 0 0 1 0 0 -0 1 1 0 -0 5.75
1 -1.4083438190194562e-15 0 5.75 0 1 0 
Polygon3D 0
PolygonOnTriangulations 0
Surfaces 6
2 0 0 0 0 1 0 0 -0 1 1 0 -0 6.75
1 0 214 0 0 1 0 0 -0 1 1 0 -0 
1 0 0 0 0 1 0 0 -0 1 1 0 -0 
2 0 0 0 0 1 0 0 -0 1 1 0 -0 5.75
1 0 214 0 0 1 0 0 -0 1 1 0 -0 
1 0 0 0 0 1 0 0 -0 1 1 0 -0 
Triangulations 0

TShapes 23
Ve
1e-07
-1.65327317884893e-15 214 6.75
0 0

0101101
*
Ed
 1e-07 1 1 0
1  1 0 0 6.28318530717959
2  1 1 0 0 6.28318530717959
2  2 2 0 0 6.28318530717959
0

0101000
+23 0 -23 0 *
Ve
1e-07
-1.65327317884893e-15 0 6.75
0 0

0101101
*
Ed
 1e-07 1 1 0
1  2 0 0 214
3  3 4CN 1 0 0 214
0

0101000
-23 0 +21 0 *
Ed
 1e-07 1 1 0
1  3 0 0 6.28318530717959
2  5 1 0 0 6.28318530717959
2  6 3 0 0 6.28318530717959
0

0101000
+21 0 -21 0 *
Wi

0101100
-22 0 +20 0 +19 0 -20 0 *
Fa
0  1e-07 1 0

0111000
+18 0 *
Wi

0101100
+22 0 *
Ve
1e-07
-1.40834381901946e-15 214 5.75
0 0

0101101
*
Ed
 1e-07 1 1 0
1  4 0 0 6.28318530717959
2  7 4 0 0 6.28318530717959
2  8 5 0 0 6.28318530717959
0

0101000
+15 0 -15 0 *
Wi

0101100
-14 0 *
Fa
0  1e-07 2 0

0101000
+16 0 +13 0 *
Wi

0101100
+19 0 *
Ve
1e-07
-1.40834381901946e-15 0 5.75
0 0

0101101
*
Ed
 1e-07 1 1 0
1  5 0 0 6.28318530717959
2  9 4 0 0 6.28318530717959
2  10 6 0 0 6.28318530717959
0

0101000
+10 0 -10 0 *
Wi

0101100
-9 0 *
Fa
0  1e-07 3 0

0101000
+11 0 +8 0 *
Ed
 1e-07 1 1 0
1  6 0 0 214
3  11 12CN 4 0 0 214
0

0101000
+10 0 -15 0 *
Wi

0101100
-14 0 +6 0 +9 0 -6 0 *
Fa
0  1e-07 4 0

0101000
+5 0 *
Sh

0101100
+17 0 +12 0 -7 0 -4 0 *
So

0100000
+3 0 *
Co

1100000
+2 0 *

+1 1 