DBRep_DrawableShape

CASCADE Topology V1, (c) Matra-Datavision
Locations 1
1
0.113820078548655 -0.165242991213499 -0.979663076559484 13.4253698384365 
0.974652232205745 -0.172596143790299 0.142350263101538 10.6139231902605 
-0.192608452502835 -0.971033122505887 0.141409543599185 4.48036301310084 
Curve2ds 12
1 0 204 1 0 
2 0 0 1 0 -0 1 5.5
1 6.2831853071795862 -0 0 1 
1 0 -0 0 1 
1 0 0 1 0 
2 0 0 1 0 -0 1 5.5
1 0 204 1 0 
2 0 0 1 0 -0 1 4.5
1 0 0 1 0 
2 0 0 1 0 -0 1 4.5
1 6.2831853071795862 -0 0 1 
1 0 -0 0 1 
Curves 6
2 0 204 0 0 1 0 0 -0 1 1 0 -0 5.5
1 -1.3471114790620886e-15 0 5.5 0 1 0 
2 0 0 0 0 1 0 0 -0 1 1 0 -0 5.5
2 0 204 0 0 1 0 0 -0 1 1 0 -0 4.5
2 0 0 0 0 1 0 0 -0 1 1 0 -0 4.5
1 -1.1021821192326179e-15 0 4.5 0 1 0 
Polygon3D 0
PolygonOnTriangulations 0
Surfaces 6
2 0 0 0 0 1 0 0 -0 1 1 0 -0 5.5
1 0 204 0 0 1 0 0 -0 1 1 0 -0 
1 0 0 0 0 1 0 0 -0 1 1 0 -0 
2 0 0 0 0 1 0 0 -0 1 1 0 -0 4.5
1 0 204 0 0 1 0 0 -0 1 1 0 -0 
1 0 0 0 0 1 0 0 -0 1 1 0 -0 
Triangulations 0

TShapes 23
Ve
1e-07
-1.34711147906209e-15 204 5.5
0 0

0101101
*
Ed
 1e-07 1 1 0
1  1 0 0 6.28318530717959
2  1 1 0 0 6.28318530717959
2  2 2 0 0 6.28318530717959
0

0101000
+23 0 -23 0 *
Ve
1e-07
-1.34711147906209e-15 0 5.5
0 0

0101101
*
Ed
 1e-07 1 1 0
1  2 0 0 204
3  3 4CN 1 0 0 204
0

0101000
-23 0 +21 0 *
Ed
 1e-07 1 1 0
1  3 0 0 6.28318530717959
2  5 1 0 0 6.28318530717959
2  6 3 0 0 6.28318530717959
0

0101000
+21 0 -21 0 *
Wi

0101100
-22 0 +20 0 +19 0 -20 0 *
Fa
0  1e-07 1 0

0111000
+18 0 *
Wi

0101100
+22 0 *
Ve
1e-07
-1.10218211923262e-15 204 4.5
0 0

0101101
*
Ed
 1e-07 1 1 0
1  4 0 0 6.28318530717959
2  7 4 0 0 6.28318530717959
2  8 5 0 0 6.28318530717959
0

0101000
+15 0 -15 0 *
Wi

0101100
-14 0 *
Fa
0  1e-07 2 0

0101000
+16 0 +13 0 *
Wi

0101100
+19 0 *
Ve
1e-07
-1.10218211923262e-15 0 4.5
0 0

0101101
*
Ed
 1e-07 1 1 0
1  5 0 0 6.28318530717959
2  9 4 0 0 6.28318530717959
2  10 6 0 0 6.28318530717959
0

0101000
+10 0 -10 0 *
Wi

0101100
-9 0 *
Fa
0  1e-07 3 0

0101000
+11 0 +8 0 *
Ed
 1e-07 1 1 0
1  6 0 0 204
3  11 12CN 4 0 0 204
0

0101000
+10 0 -15 0 *
Wi

0101100
-14 0 +6 0 +9 0 -6 0 *
Fa
0  1e-07 4 0

0101000
+5 0 *
Sh

0101100
+17 0 +12 0 -7 0 -4 0 *
So

0100000
+3 0 *
Co

1100000
+2 0 *

+1 1 