DBRep_DrawableShape

CASCADE Topology V1, (c) Matra-Datavision
Locations 1
1
0.0993496728546421 0.399983465549666 0.911121764524674 -10.1069553478398 
-0.948351675653205 -0.239161079839449 0.208401240821131 -14.9916711216356 
0.301261915597431 -0.88476844720916 0.355564414745989 15.6286373539767 
Curve2ds 12
1 0 211.59999999999999 1 0 
2 0 0 1 0 -0 1 6.4500000000000002
1 6.2831853071795862 -0 0 1 
1 0 -0 0 1 
1 0 0 1 0 
2 0 0 1 0 -0 1 6.4500000000000002
1 0 211.59999999999999 1 0 
2 0 0 1 0 -0 1 5.4500000000000002
1 0 0 1 0 
2 0 0 1 0 -0 1 5.4500000000000002
1 6.2831853071795862 -0 0 1 
1 0 -0 0 1 
Curves 6
2 0 211.59999999999999 0 0 1 0 0 -0 1 1 0 -0 6.4500000000000002
1 -1.5797943709000857e-15 0 6.4500000000000002 0 1 0 
2 0 0 0 0 1 0 0 -0 1 1 0 -0 6.4500000000000002
2 0 211.59999999999999 0 0 1 0 0 -0 1 1 0 -0 5.4500000000000002
2 0 0 0 0 1 0 0 -0 1 1 0 -0 5.4500000000000002
1 -1.334865011070615e-15 0 5.4500000000000002 0 1 0 
Polygon3D 0
PolygonOnTriangulations 0
Surfaces 6
2 0 0 0 0 1 0 0 -0 1 1 0 -0 6.4500000000000002
1 0 211.59999999999999 0 0 1 0 0 -0 1 1 0 -0 
1 0 0 0 0 1 0 0 -0 1 1 0 -0 
2 0 0 0 0 1 0 0 -0 1 1 0 -0 5.4500000000000002
1 0 211.59999999999999 0 0 1 0 0 -0 1 1 0 -0 
1 0 0 0 0 1 0 0 -0 1 1 0 -0 
Triangulations 0

TShapes 23
Ve
1e-07
-1.57979437090009e-15 211.6 6.45
0 0

0101101
*
Ed
 1e-07 1 1 0
1  1 0 0 6.28318530717959
2  1 1 0 0 6.28318530717959
2  2 2 0 0 6.28318530717959
0

0101000
+23 0 -23 0 *
Ve
1e-07
-1.57979437090009e-15 0 6.45
0 0

0101101
*
Ed
 1e-07 1 1 0
1  2 0 0 211.6
3  3 4CN 1 0 0 211.6
0

0101000
-23 0 +21 0 *
Ed
 1e-07 1 1 0
1  3 0 0 6.28318530717959
2  5 1 0 0 6.28318530717959
2  6 3 0 0 6.28318530717959
0

0101000
+21 0 -21 0 *
Wi

0101100
-22 0 +20 0 +19 0 -20 0 *
Fa
0  1e-07 1 0

0111000
+18 0 *
Wi

0101100
+22 0 *
Ve
1e-07
-1.33486501107062e-15 211.6 5.45
0 0

0101101
*
Ed
 1e-07 1 1 0
1  4 0 0 6.28318530717959
2  7 4 0 0 6.28318530717959
2  8 5 0 0 6.28318530717959
0

0101000
+15 0 -15 0 *
Wi

0101100
-14 0 *
Fa
0  1e-07 2 0

0101000
+16 0 +13 0 *
Wi

0101100
+19 0 *
Ve
1e-07
-1.33486501107062e-15 0 5.45
0 0

0101101
*
Ed
 1e-07 1 1 0
1  5 0 0 6.28318530717959
2  9 4 0 0 6.28318530717959
2  10 6 0 0 6.28318530717959
0

0101000
+10 0 -10 0 *
Wi

0101100
-9 0 *
Fa
0  1e-07 3 0

0101000
+11 0 +8 0 *
Ed
 1e-07 1 1 0
1  6 0 0 211.6
3  11 12CN 4 0 0 211.6
0

0101000
+10 0 -15 0 *
Wi

0101100
-14 0 +6 0 +9 0 -6 0 *
Fa
0  1e-07 4 0

0101000
+5 0 *
Sh

0101100
+17 0 +12 0 -7 0 -4 0 *
So

0100000
+3 0 *
Co

1100000
+2 0 *

+1 1 