DBRep_DrawableShape

CASCADE Topology V1, (c) Matra-Datavision
Locations 1
1
0.411974801459373 0.815877082451735 -0.405735565722991 17.4047776733181 
-0.886560678378501 0.461745235476208 0.0283107941971486 -11.3295213986281 
0.210444592507296 0.348045864571132 0.913551941402004 12.8344764746493 
Curve2ds 12
1 0 232 1 0 
2 0 0 1 0 -0 1 9
1 6.2831853071795862 -0 0 1 
1 0 -0 0 1 
1 0 0 1 0 
2 0 0 1 0 -0 1 9
1 0 232 1 0 
2 0 0 1 0 -0 1 8
1 0 0 1 0 
2 0 0 1 0 -0 1 8
1 6.2831853071795862 -0 0 1 
1 0 -0 0 1 
Curves 6
2 0 232 0 0 1 0 0 -0 1 1 0 -0 9
1 -2.2043642384652358e-15 0 9 0 1 0 
2 0 0 0 0 1 0 0 -0 1 1 0 -0 9
2 0 232 0 0 1 0 0 -0 1 1 0 -0 8
2 0 0 0 0 1 0 0 -0 1 1 0 -0 8
1 -1.9594348786357651e-15 0 8 0 1 0 
Polygon3D 0
PolygonOnTriangulations 0
Surfaces 6
2 0 0 0 0 1 0 0 -0 1 1 0 -0 9
1 0 232 0 0 1 0 0 -0 1 1 0 -0 
1 0 0 0 0 1 0 0 -0 1 1 0 -0 
2 0 0 0 0 1 0 0 -0 1 1 0 -0 8
1 0 232 0 0 1 0 0 -0 1 1 0 -0 
1 0 0 0 0 1 0 0 -0 1 1 0 -0 
Triangulations 0

TShapes 23
Ve
1e-07
-2.20436423846524e-15 232 9
0 0

0101101
*
Ed
 1e-07 1 1 0
1  1 0 0 6.28318530717959
2  1 1 0 0 6.28318530717959
2  2 2 0 0 6.28318530717959
0

0101000
+23 0 -23 0 *
Ve
1e-07
-2.20436423846524e-15 0 9
0 0

0101101
*
Ed
 1e-07 1 1 0
1  2 0 0 232
3  3 4CN 1 0 0 232
0

0101000
-23 0 +21 0 *
Ed
 1e-07 1 1 0
1  3 0 0 6.28318530717959
2  5 1 0 0 6.28318530717959
2  6 3 0 0 6.28318530717959
0

0101000
+21 0 -21 0 *
Wi

0101100
-22 0 +20 0 +19 0 -20 0 *
Fa
0  1e-07 1 0

0111000
+18 0 *
Wi

0101100
+22 0 *
Ve
1e-07
-1.95943487863577e-15 232 8
0 0

0101101
*
Ed
 1e-07 1 1 0
1  4 0 0 6.28318530717959
2  7 4 0 0 6.28318530717959
2  8 5 0 0 6.28318530717959
0

0101000
+15 0 -15 0 *
Wi

0101100
-14 0 *
Fa
0  1e-07 2 0

0101000
+16 0 +13 0 *
Wi

0101100
+19 0 *
Ve
1e-07
-1.95943487863577e-15 0 8
0 0

0101101
*
Ed
 1e-07 1 1 0
1  5 0 0 6.28318530717959
2  9 4 0 0 6.28318530717959
2  10 6 0 0 6.28318530717959
0

0101000
+10 0 -10 0 *
Wi

0101100
-9 0 *
Fa
0  1e-07 3 0

0101000
+11 0 +8 0 *
Ed
 1e-07 1 1 0
1  6 0 0 232
3  11 12CN 4 0 0 232
0

0101000
+10 0 -15 0 *
Wi

0101100
-14 0 +6 0 +9 0 -6 0 *
Fa
0  1e-07 4 0

0101000
+5 0 *
Sh

0101100
+17 0 +12 0 -7 0 -4 0 *
So

0100000
+3 0 *
Co

1100000
+2 0 *

+1 1 