DBRep_DrawableShape

CASCADE Topology V1, (c) Matra-Datavision
Locations 1
1
0.0290279246695234 -0.955157794665744 -0.294670946784124 -5.50654476425898 
0.426935722167532 -0.254705595459536 0.867669838578529 -15.8369907447403 
-0.903815948479926 -0.150992208179346 0.400397408011661 -14.855579225894 
Curve2ds 12
1 0 227.59999999999999 1 0 
2 0 0 1 0 -0 1 8.4499999999999993
1 6.2831853071795862 -0 0 1 
1 0 -0 0 1 
1 0 0 1 0 
2 0 0 1 0 -0 1 8.4499999999999993
1 0 227.59999999999999 1 0 
2 0 0 1 0 -0 1 7.4499999999999993
1 0 0 1 0 
2 0 0 1 0 -0 1 7.4499999999999993
1 6.2831853071795862 -0 0 1 
1 0 -0 0 1 
Curves 6
2 0 227.59999999999999 0 0 1 0 0 -0 1 1 0 -0 8.4499999999999993
1 -2.0696530905590269e-15 0 8.4499999999999993 0 1 0 
2 0 0 0 0 1 0 0 -0 1 1 0 -0 8.4499999999999993
2 0 227.59999999999999 0 0 1 0 0 -0 1 1 0 -0 7.4499999999999993
2 0 0 0 0 1 0 0 -0 1 1 0 -0 7.4499999999999993
1 -1.8247237307295562e-15 0 7.4499999999999993 0 1 0 
Polygon3D 0
PolygonOnTriangulations 0
Surfaces 6
2 0 0 0 0 1 0 0 -0 1 1 0 -0 8.4499999999999993
1 0 227.59999999999999 0 0 1 0 0 -0 1 1 0 -0 
1 0 0 0 0 1 0 0 -0 1 1 0 -0 
2 0 0 0 0 1 0 0 -0 1 1 0 -0 7.4499999999999993
1 0 227.59999999999999 0 0 1 0 0 -0 1 1 0 -0 
1 0 0 0 0 1 0 0 -0 1 1 0 -0 
Triangulations 0

TShapes 23
Ve
1e-07
-2.06965309055903e-15 227.6 8.45
0 0

0101101
*
Ed
 1e-07 1 1 0
1  1 0 0 6.28318530717959
2  1 1 0 0 6.28318530717959
2  2 2 0 0 6.28318530717959
0

0101000
+23 0 -23 0 *
Ve
1e-07
-2.06965309055903e-15 0 8.45
0 0

0101101
*
Ed
 1e-07 1 1 0
1  2 0 0 227.6
3  3 4CN 1 0 0 227.6
0

0101000
-23 0 +21 0 *
Ed
 1e-07 1 1 0
1  3 0 0 6.28318530717959
2  5 1 0 0 6.28318530717959
2  6 3 0 0 6.28318530717959
0

0101000
+21 0 -21 0 *
Wi

0101100
-22 0 +20 0 +19 0 -20 0 *
Fa
0  1e-07 1 0

0111000
+18 0 *
Wi

0101100
+22 0 *
Ve
1e-07
-1.82472373072956e-15 227.6 7.45
0 0

0101101
*
Ed
 1e-07 1 1 0
1  4 0 0 6.28318530717959
2  7 4 0 0 6.28318530717959
2  8 5 0 0 6.28318530717959
0

0101000
+15 0 -15 0 *
Wi

0101100
-14 0 *
Fa
0  1e-07 2 0

0101000
+16 0 +13 0 *
Wi

0101100
+19 0 *
Ve
1e-07
-1.82472373072956e-15 0 7.45
0 0

0101101
*
Ed
 1e-07 1 1 0
1  5 0 0 6.28318530717959
2  9 4 0 0 6.28318530717959
2  10 6 0 0 6.28318530717959
0

0101000
+10 0 -10 0 *
Wi

0101100
-9 0 *
Fa
0  1e-07 3 0

0101000
+11 0 +8 0 *
Ed
 1e-07 1 1 0
1  6 0 0 227.6
3  11 12CN 4 0 0 227.6
0

0101000
+10 0 -15 0 *
Wi

0101100
-14 0 +6 0 +9 0 -6 0 *
Fa
0  1e-07 4 0

0101000
+5 0 *
Sh

0101100
+17 0 +12 0 -7 0 -4 0 *
So

0100000
+3 0 *
Co

1100000
+2 0 *

+1 1 