DBRep_DrawableShape

CASCADE Topology V1, (c) Matra-Datavision
Locations 1
1
0.108937723927271 0.65765103885701 0.745404375755764 9.04072446175404 
-0.416632016316382 0.711032552613237 -0.56643664438704 9.17680777336187 
-0.902524423650513 -0.248853009253653 0.351456746271443 13.6013040058681 
Curve2ds 12
1 0 225.59999999999999 1 0 
2 0 0 1 0 -0 1 8.1999999999999993
1 6.2831853071795862 -0 0 1 
1 0 -0 0 1 
1 0 0 1 0 
2 0 0 1 0 -0 1 8.1999999999999993
1 0 225.59999999999999 1 0 
2 0 0 1 0 -0 1 7.1999999999999993
1 0 0 1 0 
2 0 0 1 0 -0 1 7.1999999999999993
1 6.2831853071795862 -0 0 1 
1 0 -0 0 1 
Curves 6
2 0 225.59999999999999 0 0 1 0 0 -0 1 1 0 -0 8.1999999999999993
1 -2.008420750601659e-15 0 8.1999999999999993 0 1 0 
2 0 0 0 0 1 0 0 -0 1 1 0 -0 8.1999999999999993
2 0 225.59999999999999 0 0 1 0 0 -0 1 1 0 -0 7.1999999999999993
2 0 0 0 0 1 0 0 -0 1 1 0 -0 7.1999999999999993
1 -1.7634913907721885e-15 0 7.1999999999999993 0 1 0 
Polygon3D 0
PolygonOnTriangulations 0
Surfaces 6
2 0 0 0 0 1 0 0 -0 1 1 0 -0 8.1999999999999993
1 0 225.59999999999999 0 0 1 0 0 -0 1 1 0 -0 
1 0 0 0 0 1 0 0 -0 1 1 0 -0 
2 0 0 0 0 1 0 0 -0 1 1 0 -0 7.1999999999999993
1 0 225.59999999999999 0 0 1 0 0 -0 1 1 0 -0 
1 0 0 0 0 1 0 0 -0 1 1 0 -0 
Triangulations 0

TShapes 23
Ve
1e-07
-2.00842075060166e-15 225.6 8.2
0 0

0101101
*
Ed
 1e-07 1 1 0
1  1 0 0 6.28318530717959
2  1 1 0 0 6.28318530717959
2  2 2 0 0 6.28318530717959
0

0101000
+23 0 -23 0 *
Ve
1e-07
-2.00842075060166e-15 0 8.2
0 0

0101101
*
Ed
 1e-07 1 1 0
1  2 0 0 225.6
3  3 4CN 1 0 0 225.6
0

0101000
-23 0 +21 0 *
Ed
 1e-07 1 1 0
1  3 0 0 6.28318530717959
2  5 1 0 0 6.28318530717959
2  6 3 0 0 6.28318530717959
0

0101000
+21 0 -21 0 *
Wi

0101100
-22 0 +20 0 +19 0 -20 0 *
Fa
0  1e-07 1 0

0111000
+18 0 *
Wi

0101100
+22 0 *
Ve
1e-07
-1.76349139077219e-15 225.6 7.2
0 0

0101101
*
Ed
 1e-07 1 1 0
1  4 0 0 6.28318530717959
2  7 4 0 0 6.28318530717959
2  8 5 0 0 6.28318530717959
0

0101000
+15 0 -15 0 *
Wi

0101100
-14 0 *
Fa
0  1e-07 2 0

0101000
+16 0 +13 0 *
Wi

0101100
+19 0 *
Ve
1e-07
-1.76349139077219e-15 0 7.2
0 0

0101101
*
Ed
 1e-07 1 1 0
1  5 0 0 6.28318530717959
2  9 4 0 0 6.28318530717959
2  10 6 0 0 6.28318530717959
0

0101000
+10 0 -10 0 *
Wi

0101100
-9 0 *
Fa
0  1e-07 3 0

0101000
+11 0 +8 0 *
Ed
 1e-07 1 1 0
1  6 0 0 225.6
3  11 12CN 4 0 0 225.6
0

0101000
+10 0 -15 0 *
Wi

0101100
-14 0 +6 0 +9 0 -6 0 *
Fa
0  1e-07 4 0

0101000
+5 0 *
Sh

0101100
+17 0 +12 0 -7 0 -4 0 *
So

0100000
+3 0 *
Co

1100000
+2 0 *

+1 1 