DBRep_DrawableShape

CASCADE Topology V1, (c) Matra-Datavision
Locations 1
1
0.655489614213506 -0.394702048999621 0.643850648965837 10.4360384088576 
-0.490417354970288 0.425861815971746 0.760350269047886 14.8819710882759 
-0.574303215733793 -0.814157236787064 0.0855792625878358 12.7277627522736 
Curve2ds 12
1 0 205.19999999999999 1 0 
2 0 0 1 0 -0 1 5.6500000000000004
1 6.2831853071795862 -0 0 1 
1 0 -0 0 1 
1 0 0 1 0 
2 0 0 1 0 -0 1 5.6500000000000004
1 0 205.19999999999999 1 0 
2 0 0 1 0 -0 1 4.6500000000000004
1 0 0 1 0 
2 0 0 1 0 -0 1 4.6500000000000004
1 6.2831853071795862 -0 0 1 
1 0 -0 0 1 
Curves 6
2 0 205.19999999999999 0 0 1 0 0 -0 1 1 0 -0 5.6500000000000004
1 -1.3838508830365093e-15 0 5.6500000000000004 0 1 0 
2 0 0 0 0 1 0 0 -0 1 1 0 -0 5.6500000000000004
2 0 205.19999999999999 0 0 1 0 0 -0 1 1 0 -0 4.6500000000000004
2 0 0 0 0 1 0 0 -0 1 1 0 -0 4.6500000000000004
1 -1.1389215232070386e-15 0 4.6500000000000004 0 1 0 
Polygon3D 0
PolygonOnTriangulations 0
Surfaces 6
2 0 0 0 0 1 0 0 -0 1 1 0 -0 5.6500000000000004
1 0 205.19999999999999 0 0 1 0 0 -0 1 1 0 -0 
1 0 0 0 0 1 0 0 -0 1 1 0 -0 
2 0 0 0 0 1 0 0 -0 1 1 0 -0 4.6500000000000004
1 0 205.19999999999999 0 0 1 0 0 -0 1 1 0 -0 
1 0 0 0 0 1 0 0 -0 1 1 0 -0 
Triangulations 0

TShapes 23
Ve
1e-07
-1.38385088303651e-15 205.2 5.65
0 0

0101101
*
Ed
 1e-07 1 1 0
1  1 0 0 6.28318530717959
2  1 1 0 0 6.28318530717959
2  2 2 0 0 6.28318530717959
0

0101000
+23 0 -23 0 *
Ve
1e-07
-1.38385088303651e-15 0 5.65
0 0

0101101
*
Ed
 1e-07 1 1 0
1  2 0 0 205.2
3  3 4CN 1 0 0 205.2
0

0101000
-23 0 +21 0 *
Ed
 1e-07 1 1 0
1  3 0 0 6.28318530717959
2  5 1 0 0 6.28318530717959
2  6 3 0 0 6.28318530717959
0

0101000
+21 0 -21 0 *
Wi

0101100
-22 0 +20 0 +19 0 -20 0 *
Fa
0  1e-07 1 0

0111000
+18 0 *
Wi

0101100
+22 0 *
Ve
1e-07
-1.13892152320704e-15 205.2 4.65
0 0

0101101
*
Ed
 1e-07 1 1 0
1  4 0 0 6.28318530717959
2  7 4 0 0 6.28318530717959
2  8 5 0 0 6.28318530717959
0

0101000
+15 0 -15 0 *
Wi

0101100
-14 0 *
Fa
0  1e-07 2 0

0101000
+16 0 +13 0 *
Wi

0101100
+19 0 *
Ve
1e-07
-1.13892152320704e-15 0 4.65
0 0

0101101
*
Ed
 1e-07 1 1 0
1  5 0 0 6.28318530717959
2  9 4 0 0 6.28318530717959
2  10 6 0 0 6.28318530717959
0

0101000
+10 0 -10 0 *
Wi

0101100
-9 0 *
Fa
0  1e-07 3 0

0101000
+11 0 +8 0 *
Ed
 1e-07 1 1 0
1  6 0 0 205.2
3  11 12CN 4 0 0 205.2
0

0101000
+10 0 -15 0 *
Wi

0101100
-14 0 +6 0 +9 0 -6 0 *
Fa
0  1e-07 4 0

0101000
+5 0 *
Sh

0101100
+17 0 +12 0 -7 0 -4 0 *
So

0100000
+3 0 *
Co

1100000
+2 0 *

+1 1 