DBRep_DrawableShape

CASCADE Topology V1, (c) Matra-Datavision
Locations 1
1
0.215072313983702 -0.249952861644475 0.944069630225141 -15.9594334186413 
0.79400431314493 -0.518073960535643 -0.318051131301495 -11.2858739187396 
0.56859568277023 0.817999351082048 0.087040284721529 -4.84623799135864 
Curve2ds 12
1 0 217.19999999999999 1 0 
2 0 0 1 0 -0 1 7.1500000000000004
1 6.2831853071795862 -0 0 1 
1 0 -0 0 1 
1 0 0 1 0 
2 0 0 1 0 -0 1 7.1500000000000004
1 0 217.19999999999999 1 0 
2 0 0 1 0 -0 1 6.1500000000000004
1 0 0 1 0 
2 0 0 1 0 -0 1 6.1500000000000004
1 6.2831853071795862 -0 0 1 
1 0 -0 0 1 
Curves 6
2 0 217.19999999999999 0 0 1 0 0 -0 1 1 0 -0 7.1500000000000004
1 -1.7512449227807151e-15 0 7.1500000000000004 0 1 0 
2 0 0 0 0 1 0 0 -0 1 1 0 -0 7.1500000000000004
2 0 217.19999999999999 0 0 1 0 0 -0 1 1 0 -0 6.1500000000000004
2 0 0 0 0 1 0 0 -0 1 1 0 -0 6.1500000000000004
1 -1.5063155629512446e-15 0 6.1500000000000004 0 1 0 
Polygon3D 0
PolygonOnTriangulations 0
Surfaces 6
2 0 0 0 0 1 0 0 -0 1 1 0 -0 7.1500000000000004
1 0 217.19999999999999 0 0 1 0 0 -0 1 1 0 -0 
1 0 0 0 0 1 0 0 -0 1 1 0 -0 
2 0 0 0 0 1 0 0 -0 1 1 0 -0 6.1500000000000004
1 0 217.19999999999999 0 0 1 0 0 -0 1 1 0 -0 
1 0 0 0 0 1 0 0 -0 1 1 0 -0 
Triangulations 0

TShapes 23
Ve
1e-07
-1.75124492278072e-15 217.2 7.15
0 0

0101101
*
Ed
 1e-07 1 1 0
1  1 0 0 6.28318530717959
2  1 1 0 0 6.28318530717959
2  2 2 0 0 6.28318530717959
0

0101000
+23 0 -23 0 *
Ve
1e-07
-1.75124492278072e-15 0 7.15
0 0

0101101
*
Ed
 1e-07 1 1 0
1  2 0 0 217.2
3  3 4CN 1 0 0 217.2
0

0101000
-23 0 +21 0 *
Ed
 1e-07 1 1 0
1  3 0 0 6.28318530717959
2  5 1 0 0 6.28318530717959
2  6 3 0 0 6.28318530717959
0

0101000
+21 0 -21 0 *
Wi

0101100
-22 0 +20 0 +19 0 -20 0 *
Fa
0  1e-07 1 0

0111000
+18 0 *
Wi

0101100
+22 0 *
Ve
1e-07
-1.50631556295124e-15 217.2 6.15
0 0

0101101
*
Ed
 1e-07 1 1 0
1  4 0 0 6.28318530717959
2  7 4 0 0 6.28318530717959
2  8 5 0 0 6.28318530717959
0

0101000
+15 0 -15 0 *
Wi

0101100
-14 0 *
Fa
0  1e-07 2 0

0101000
+16 0 +13 0 *
Wi

0101100
+19 0 *
Ve
1e-07
-1.50631556295124e-15 0 6.15
0 0

0101101
*
Ed
 1e-07 1 1 0
1  5 0 0 6.28318530717959
2  9 4 0 0 6.28318530717959
2  10 6 0 0 6.28318530717959
0

0101000
+10 0 -10 0 *
Wi

0101100
-9 0 *
Fa
0  1e-07 3 0

0101000
+11 0 +8 0 *
Ed
 1e-07 1 1 0
1  6 0 0 217.2
3  11 12CN 4 0 0 217.2
0

0101000
+10 0 -15 0 *
Wi

0101100
-14 0 +6 0 +9 0 -6 0 *
Fa
0  1e-07 4 0

0101000
+5 0 *
Sh

0101100
+17 0 +12 0 -7 0 -4 0 *
So

0100000
+3 0 *
Co

1100000
+2 0 *

+1 1 