DBRep_DrawableShape

CASCADE Topology V1, (c) Matra-Datavision
Locations 1
1
0.0615090413367784 0.00746897653747305 0.998078580184603 10.6299405084402 
-0.204547500736275 0.978842394861512 0.00528071626989817 -1.41992325514737 
-0.976922186141954 -0.204479290910504 0.0617354178115259 -6.00296996781161 
Curve2ds 12
1 0 202 1 0 
2 0 0 1 0 -0 1 5.25
1 6.2831853071795862 -0 0 1 
1 0 -0 0 1 
1 0 0 1 0 
2 0 0 1 0 -0 1 5.25
1 0 202 1 0 
2 0 0 1 0 -0 1 4.25
1 0 0 1 0 
2 0 0 1 0 -0 1 4.25
1 6.2831853071795862 -0 0 1 
1 0 -0 0 1 
Curves 6
2 0 202 0 0 1 0 0 -0 1 1 0 -0 5.25
1 -1.2858791391047208e-15 0 5.25 0 1 0 
2 0 0 0 0 1 0 0 -0 1 1 0 -0 5.25
2 0 202 0 0 1 0 0 -0 1 1 0 -0 4.25
2 0 0 0 0 1 0 0 -0 1 1 0 -0 4.25
1 -1.0409497792752501e-15 0 4.25 0 1 0 
Polygon3D 0
PolygonOnTriangulations 0
Surfaces 6
2 0 0 0 0 1 0 0 -0 1 1 0 -0 5.25
1 0 202 0 0 1 0 0 -0 1 1 0 -0 
1 0 0 0 0 1 0 0 -0 1 1 0 -0 
2 0 0 0 0 1 0 0 -0 1 1 0 -0 4.25
1 0 202 0 0 1 0 0 -0 1 1 0 -0 
1 0 0 0 0 1 0 0 -0 1 1 0 -0 
Triangulations 0

TShapes 23
Ve
1e-07
-1.28587913910472e-15 202 5.25
0 0

0101101
*
Ed
 1e-07 1 1 0
1  1 0 0 6.28318530717959
2  1 1 0 0 6.28318530717959
2  2 2 0 0 6.28318530717959
0

0101000
+23 0 -23 0 *
Ve
1e-07
-1.28587913910472e-15 0 5.25
0 0

0101101
*
Ed
 1e-07 1 1 0
1  2 0 0 202
3  3 4CN 1 0 0 202
0

0101000
-23 0 +21 0 *
Ed
 1e-07 1 1 0
1  3 0 0 6.28318530717959
2  5 1 0 0 6.28318530717959
2  6 3 0 0 6.28318530717959
0

0101000
+21 0 -21 0 *
Wi

0101100
-22 0 +20 0 +19 0 -20 0 *
Fa
0  1e-07 1 0

0111000
+18 0 *
Wi

0101100
+22 0 *
Ve
1e-07
-1.04094977927525e-15 202 4.25
0 0

0101101
*
Ed
 1e-07 1 1 0
1  4 0 0 6.28318530717959
2  7 4 0 0 6.28318530717959
2  8 5 0 0 6.28318530717959
0

0101000
+15 0 -15 0 *
Wi

0101100
-14 0 *
Fa
0  1e-07 2 0

0101000
+16 0 +13 0 *
Wi

0101100
+19 0 *
Ve
1e-07
-1.04094977927525e-15 0 4.25
0 0

0101101
*
Ed
 1e-07 1 1 0
1  5 0 0 6.28318530717959
2  9 4 0 0 6.28318530717959
2  10 6 0 0 6.28318530717959
0

0101000
+10 0 -10 0 *
Wi

0101100
-9 0 *
Fa
0  1e-07 3 0

0101000
+11 0 +8 0 *
Ed
 1e-07 1 1 0
1  6 0 0 202
3  11 12CN 4 0 0 202
0

0101000
+10 0 -15 0 *
Wi

0101100
-14 0 +6 0 +9 0 -6 0 *
Fa
0  1e-07 4 0

0101000
+5 0 *
Sh

0101100
+17 0 +12 0 -7 0 -4 0 *
So

0100000
+3 0 *
Co

1100000
+2 0 *

+1 1 