DBRep_DrawableShape

CASCADE Topology V1, (c) Matra-Datavision
Locations 1
1
0.523270927101797 -0.533995514062696 -0.664105660125664 18.735130616399 
0.34354168175504 0.845369740512319 -0.409058815725873 -15.8113426048268 
0.779850402158609 -0.0140993895985707 0.625807124812432 -15.4867898997849 
Curve2ds 12
1 0 207.59999999999999 1 0 
2 0 0 1 0 -0 1 5.9500000000000002
1 6.2831853071795862 -0 0 1 
1 0 -0 0 1 
1 0 0 1 0 
2 0 0 1 0 -0 1 5.9500000000000002
1 0 207.59999999999999 1 0 
2 0 0 1 0 -0 1 4.9500000000000002
1 0 0 1 0 
2 0 0 1 0 -0 1 4.9500000000000002
1 6.2831853071795862 -0 0 1 
1 0 -0 0 1 
Curves 6
2 0 207.59999999999999 0 0 1 0 0 -0 1 1 0 -0 5.9500000000000002
1 -1.4573296909853504e-15 0 5.9500000000000002 0 1 0 
2 0 0 0 0 1 0 0 -0 1 1 0 -0 5.9500000000000002
2 0 207.59999999999999 0 0 1 0 0 -0 1 1 0 -0 4.9500000000000002
2 0 0 0 0 1 0 0 -0 1 1 0 -0 4.9500000000000002
1 -1.2124003311558797e-15 0 4.9500000000000002 0 1 0 
Polygon3D 0
PolygonOnTriangulations 0
Surfaces 6
2 0 0 0 0 1 0 0 -0 1 1 0 -0 5.9500000000000002
1 0 207.59999999999999 0 0 1 0 0 -0 1 1 0 -0 
1 0 0 0 0 1 0 0 -0 1 1 0 -0 
2 0 0 0 0 1 0 0 -0 1 1 0 -0 4.9500000000000002
1 0 207.59999999999999 0 0 1 0 0 -0 1 1 0 -0 
1 0 0 0 0 1 0 0 -0 1 1 0 -0 
Triangulations 0

TShapes 23
Ve
1e-07
-1.45732969098535e-15 207.6 5.95
0 0

0101101
*
Ed
 1e-07 1 1 0
1  1 0 0 6.28318530717959
2  1 1 0 0 6.28318530717959
2  2 2 0 0 6.28318530717959
0

0101000
+23 0 -23 0 *
Ve
1e-07
-1.45732969098535e-15 0 5.95
0 0

0101101
*
Ed
 1e-07 1 1 0
1  2 0 0 207.6
3  3 4CN 1 0 0 207.6
0

0101000
-23 0 +21 0 *
Ed
 1e-07 1 1 0
1  3 0 0 6.28318530717959
2  5 1 0 0 6.28318530717959
2  6 3 0 0 6.28318530717959
0

0101000
+21 0 -21 0 *
Wi

0101100
-22 0 +20 0 +19 0 -20 0 *
Fa
0  1e-07 1 0

0111000
+18 0 *
Wi

0101100
+22 0 *
Ve
1e-07
-1.21240033115588e-15 207.6 4.95
0 0

0101101
*
Ed
 1e-07 1 1 0
1  4 0 0 6.28318530717959
2  7 4 0 0 6.28318530717959
2  8 5 0 0 6.28318530717959
0

0101000
+15 0 -15 0 *
Wi

0101100
-14 0 *
Fa
0  1e-07 2 0

0101000
+16 0 +13 0 *
Wi

0101100
+19 0 *
Ve
1e-07
-1.21240033115588e-15 0 4.95
0 0

0101101
*
Ed
 1e-07 1 1 0
1  5 0 0 6.28318530717959
2  9 4 0 0 6.28318530717959
2  10 6 0 0 6.28318530717959
0

0101000
+10 0 -10 0 *
Wi

0101100
-9 0 *
Fa
0  1e-07 3 0

0101000
+11 0 +8 0 *
Ed
 1e-07 1 1 0
1  6 0 0 207.6
3  11 12CN 4 0 0 207.6
0

0101000
+10 0 -15 0 *
Wi

0101100
-14 0 +6 0 +9 0 -6 0 *
Fa
0  1e-07 4 0

0101000
+5 0 *
Sh

0101100
+17 0 +12 0 -7 0 -4 0 *
So

0100000
+3 0 *
Co

1100000
+2 0 *

+1 1 