DBRep_DrawableShape

CASCADE Topology V1, (c) Matra-Datavision
Locations 1
1
0.22178752618467 0.341830930101347 -0.913215149050284 1.6847217126753 
0.254716921213073 0.883711541291322 0.392648954966456 7.93343750668349 
0.941238324377316 -0.319695991552232 0.108926074513027 3.27355534848195 
Curve2ds 12
1 0 210.80000000000001 1 0 
2 0 0 1 0 -0 1 6.3499999999999996
1 6.2831853071795862 -0 0 1 
1 0 -0 0 1 
1 0 0 1 0 
2 0 0 1 0 -0 1 6.3499999999999996
1 0 210.80000000000001 1 0 
2 0 0 1 0 -0 1 5.3499999999999996
1 0 0 1 0 
2 0 0 1 0 -0 1 5.3499999999999996
1 6.2831853071795862 -0 0 1 
1 0 -0 0 1 
Curves 6
2 0 210.80000000000001 0 0 1 0 0 -0 1 1 0 -0 6.3499999999999996
1 -1.5553014349171384e-15 0 6.3499999999999996 0 1 0 
2 0 0 0 0 1 0 0 -0 1 1 0 -0 6.3499999999999996
2 0 210.80000000000001 0 0 1 0 0 -0 1 1 0 -0 5.3499999999999996
2 0 0 0 0 1 0 0 -0 1 1 0 -0 5.3499999999999996
1 -1.3103720750876679e-15 0 5.3499999999999996 0 1 0 
Polygon3D 0
PolygonOnTriangulations 0
Surfaces 6
2 0 0 0 0 1 0 0 -0 1 1 0 -0 6.3499999999999996
1 0 210.80000000000001 0 0 1 0 0 -0 1 1 0 -0 
1 0 0 0 0 1 0 0 -0 1 1 0 -0 
2 0 0 0 0 1 0 0 -0 1 1 0 -0 5.3499999999999996
1 0 210.80000000000001 0 0 1 0 0 -0 1 1 0 -0 
1 0 0 0 0 1 0 0 -0 1 1 0 -0 
Triangulations 0

TShapes 23
Ve
1e-07
-1.55530143491714e-15 210.8 6.35
0 0

0101101
*
Ed
 1e-07 1 1 0
1  1 0 0 6.28318530717959
2  1 1 0 0 6.28318530717959
2  2 2 0 0 6.28318530717959
0

0101000
+23 0 -23 0 *
Ve
1e-07
-1.55530143491714e-15 0 6.35
0 0

0101101
*
Ed
 1e-07 1 1 0
1  2 0 0 210.8
3  3 4CN 1 0 0 210.8
0

0101000
-23 0 +21 0 *
Ed
 1e-07 1 1 0
1  3 0 0 6.28318530717959
2  5 1 0 0 6.28318530717959
2  6 3 0 0 6.28318530717959
0

0101000
+21 0 -21 0 *
Wi

0101100
-22 0 +20 0 +19 0 -20 0 *
Fa
0  1e-07 1 0

0111000
+18 0 *
Wi

0101100
+22 0 *
Ve
1e-07
-1.31037207508767e-15 210.8 5.35
0 0

0101101
*
Ed
 1e-07 1 1 0
1  4 0 0 6.28318530717959
2  7 4 0 0 6.28318530717959
2  8 5 0 0 6.28318530717959
0

0101000
+15 0 -15 0 *
Wi

0101100
-14 0 *
Fa
0  1e-07 2 0

0101000
+16 0 +13 0 *
Wi

0101100
+19 0 *
Ve
1e-07
-1.31037207508767e-15 0 5.35
0 0

0101101
*
Ed
 1e-07 1 1 0
1  5 0 0 6.28318530717959
2  9 4 0 0 6.28318530717959
2  10 6 0 0 6.28318530717959
0

0101000
+10 0 -10 0 *
Wi

0101100
-9 0 *
Fa
0  1e-07 3 0

0101000
+11 0 +8 0 *
Ed
 1e-07 1 1 0
1  6 0 0 210.8
3  11 12CN 4 0 0 210.8
0

0101000
+10 0 -15 0 *
Wi

0101100
-14 0 +6 0 +9 0 -6 0 *
Fa
0  1e-07 4 0

0101000
+5 0 *
Sh

0101100
+17 0 +12 0 -7 0 -4 0 *
So

0100000
+3 0 *
Co

1100000
+2 0 *

+1 1 