DBRep_DrawableShape

CASCADE Topology V1, (c) Matra-Datavision
Locations 1
1
0.197921490284845 -0.201760754127092 -0.959228691072933 6.79278730448218 
0.850762351720672 -0.450689464667537 0.270337617309172 -0.656439961252197 
-0.486857786810623 -0.869581281153036 0.082449323163423 6.29611747566727 
Curve2ds 12
1 0 232.40000000000001 1 0 
2 0 0 1 0 -0 1 9.0500000000000007
1 6.2831853071795862 -0 0 1 
1 0 -0 0 1 
1 0 0 1 0 
2 0 0 1 0 -0 1 9.0500000000000007
1 0 232.40000000000001 1 0 
2 0 0 1 0 -0 1 8.0500000000000007
1 0 0 1 0 
2 0 0 1 0 -0 1 8.0500000000000007
1 6.2831853071795862 -0 0 1 
1 0 -0 0 1 
Curves 6
2 0 232.40000000000001 0 0 1 0 0 -0 1 1 0 -0 9.0500000000000007
1 -2.2166107064567096e-15 0 9.0500000000000007 0 1 0 
2 0 0 0 0 1 0 0 -0 1 1 0 -0 9.0500000000000007
2 0 232.40000000000001 0 0 1 0 0 -0 1 1 0 -0 8.0500000000000007
2 0 0 0 0 1 0 0 -0 1 1 0 -0 8.0500000000000007
1 -1.9716813466272389e-15 0 8.0500000000000007 0 1 0 
Polygon3D 0
PolygonOnTriangulations 0
Surfaces 6
2 0 0 0 0 1 0 0 -0 1 1 0 -0 9.0500000000000007
1 0 232.40000000000001 0 0 1 0 0 -0 1 1 0 -0 
1 0 0 0 0 1 0 0 -0 1 1 0 -0 
2 0 0 0 0 1 0 0 -0 1 1 0 -0 8.0500000000000007
1 0 232.40000000000001 0 0 1 0 0 -0 1 1 0 -0 
1 0 0 0 0 1 0 0 -0 1 1 0 -0 
Triangulations 0

TShapes 23
Ve
1e-07
-2.21661070645671e-15 232.4 9.05
0 0

0101101
*
Ed
 1e-07 1 1 0
1  1 0 0 6.28318530717959
2  1 1 0 0 6.28318530717959
2  2 2 0 0 6.28318530717959
0

0101000
+23 0 -23 0 *
Ve
1e-07
-2.21661070645671e-15 0 9.05
0 0

0101101
*
Ed
 1e-07 1 1 0
1  2 0 0 232.4
3  3 4CN 1 0 0 232.4
0

0101000
-23 0 +21 0 *
Ed
 1e-07 1 1 0
1  3 0 0 6.28318530717959
2  5 1 0 0 6.28318530717959
2  6 3 0 0 6.28318530717959
0

0101000
+21 0 -21 0 *
Wi

0101100
-22 0 +20 0 +19 0 -20 0 *
Fa
0  1e-07 1 0

0111000
+18 0 *
Wi

0101100
+22 0 *
Ve
1e-07
-1.97168134662724e-15 232.4 8.05
0 0

0101101
*
Ed
 1e-07 1 1 0
1  4 0 0 6.28318530717959
2  7 4 0 0 6.28318530717959
2  8 5 0 0 6.28318530717959
0

0101000
+15 0 -15 0 *
Wi

0101100
-14 0 *
Fa
0  1e-07 2 0

0101000
+16 0 +13 0 *
Wi

0101100
+19 0 *
Ve
1e-07
-1.97168134662724e-15 0 8.05
0 0

0101101
*
Ed
 1e-07 1 1 0
1  5 0 0 6.28318530717959
2  9 4 0 0 6.28318530717959
2  10 6 0 0 6.28318530717959
0

0101000
+10 0 -10 0 *
Wi

0101100
-9 0 *
Fa
0  1e-07 3 0

0101000
+11 0 +8 0 *
Ed
 1e-07 1 1 0
1  6 0 0 232.4
3  11 12CN 4 0 0 232.4
0

0101000
+10 0 -15 0 *
Wi

0101100
-14 0 +6 0 +9 0 -6 0 *
Fa
0  1e-07 4 0

0101000
+5 0 *
Sh

0101100
+17 0 +12 0 -7 0 -4 0 *
So

0100000
+3 0 *
Co

1100000
+2 0 *

+1 1 