DBRep_DrawableShape

CASCADE Topology V1, (c) Matra-Datavision
Locations 1
1
0.605635292647918 -0.390825185599235 0.693153349988727 -2.00324999846283 
0.738709107286806 -0.0477004180443062 -0.672334384759495 19.3797966244199 
0.295828915271651 0.919228124254106 0.25981706731752 -18.6638267693232 
Curve2ds 12
1 0 223.59999999999999 1 0 
2 0 0 1 0 -0 1 7.9500000000000002
1 6.2831853071795862 -0 0 1 
1 0 -0 0 1 
1 0 0 1 0 
2 0 0 1 0 -0 1 7.9500000000000002
1 0 223.59999999999999 1 0 
2 0 0 1 0 -0 1 6.9500000000000002
1 0 0 1 0 
2 0 0 1 0 -0 1 6.9500000000000002
1 6.2831853071795862 -0 0 1 
1 0 -0 0 1 
Curves 6
2 0 223.59999999999999 0 0 1 0 0 -0 1 1 0 -0 7.9500000000000002
1 -1.9471884106442918e-15 0 7.9500000000000002 0 1 0 
2 0 0 0 0 1 0 0 -0 1 1 0 -0 7.9500000000000002
2 0 223.59999999999999 0 0 1 0 0 -0 1 1 0 -0 6.9500000000000002
2 0 0 0 0 1 0 0 -0 1 1 0 -0 6.9500000000000002
1 -1.7022590508148211e-15 0 6.9500000000000002 0 1 0 
Polygon3D 0
PolygonOnTriangulations 0
Surfaces 6
2 0 0 0 0 1 0 0 -0 1 1 0 -0 7.9500000000000002
1 0 223.59999999999999 0 0 1 0 0 -0 1 1 0 -0 
1 0 0 0 0 1 0 0 -0 1 1 0 -0 
2 0 0 0 0 1 0 0 -0 1 1 0 -0 6.9500000000000002
1 0 223.59999999999999 0 0 1 0 0 -0 1 1 0 -0 
1 0 0 0 0 1 0 0 -0 1 1 0 -0 
Triangulations 0

TShapes 23
Ve
1e-07
-1.94718841064429e-15 223.6 7.95
0 0

0101101
*
Ed
 1e-07 1 1 0
1  1 0 0 6.28318530717959
2  1 1 0 0 6.28318530717959
2  2 2 0 0 6.28318530717959
0

0101000
+23 0 -23 0 *
Ve
1e-07
-1.94718841064429e-15 0 7.95
0 0

0101101
*
Ed
 1e-07 1 1 0
1  2 0 0 223.6
3  3 4CN 1 0 0 223.6
0

0101000
-23 0 +21 0 *
Ed
 1e-07 1 1 0
1  3 0 0 6.28318530717959
2  5 1 0 0 6.28318530717959
2  6 3 0 0 6.28318530717959
0

0101000
+21 0 -21 0 *
Wi

0101100
-22 0 +20 0 +19 0 -20 0 *
Fa
0  1e-07 1 0

0111000
+18 0 *
Wi

0101100
+22 0 *
Ve
1e-07
-1.70225905081482e-15 223.6 6.95
0 0

0101101
*
Ed
 1e-07 1 1 0
1  4 0 0 6.28318530717959
2  7 4 0 0 6.28318530717959
2  8 5 0 0 6.28318530717959
0

0101000
+15 0 -15 0 *
Wi

0101100
-14 0 *
Fa
0  1e-07 2 0

0101000
+16 0 +13 0 *
Wi

0101100
+19 0 *
Ve
1e-07
-1.70225905081482e-15 0 6.95
0 0

0101101
*
Ed
 1e-07 1 1 0
1  5 0 0 6.28318530717959
2  9 4 0 0 6.28318530717959
2  10 6 0 0 6.28318530717959
0

0101000
+10 0 -10 0 *
Wi

0101100
-9 0 *
Fa
0  1e-07 3 0

0101000
+11 0 +8 0 *
Ed
 1e-07 1 1 0
1  6 0 0 223.6
3  11 12CN 4 0 0 223.6
0

0101000
+10 0 -15 0 *
Wi

0101100
-14 0 +6 0 +9 0 -6 0 *
Fa
0  1e-07 4 0

0101000
+5 0 *
Sh

0101100
+17 0 +12 0 -7 0 -4 0 *
So

0100000
+3 0 *
Co

1100000
+2 0 *

+1 1 