DBRep_DrawableShape

CASCADE Topology V1, (c) Matra-Datavision
Locations 1
1
0.391616655480041 -0.883478349246003 0.257103873102263 -12.0792663231705 
0.582433826571013 0.454332993256906 0.674056651108843 11.8480314088268 
-0.712325229664424 -0.114225818674143 0.692492042937497 -19.9561748537222 
Curve2ds 12
1 0 215.19999999999999 1 0 
2 0 0 1 0 -0 1 6.9000000000000004
1 6.2831853071795862 -0 0 1 
1 0 -0 0 1 
1 0 0 1 0 
2 0 0 1 0 -0 1 6.9000000000000004
1 0 215.19999999999999 1 0 
2 0 0 1 0 -0 1 5.9000000000000004
1 0 0 1 0 
2 0 0 1 0 -0 1 5.9000000000000004
1 6.2831853071795862 -0 0 1 
1 0 -0 0 1 
Curves 6
2 0 215.19999999999999 0 0 1 0 0 -0 1 1 0 -0 6.9000000000000004
1 -1.6900125828233475e-15 0 6.9000000000000004 0 1 0 
2 0 0 0 0 1 0 0 -0 1 1 0 -0 6.9000000000000004
2 0 215.19999999999999 0 0 1 0 0 -0 1 1 0 -0 5.9000000000000004
2 0 0 0 0 1 0 0 -0 1 1 0 -0 5.9000000000000004
1 -1.4450832229938768e-15 0 5.9000000000000004 0 1 0 
Polygon3D 0
PolygonOnTriangulations 0
Surfaces 6
2 0 0 0 0 1 0 0 -0 1 1 0 -0 6.9000000000000004
1 0 215.19999999999999 0 0 1 0 0 -0 1 1 0 -0 
1 0 0 0 0 1 0 0 -0 1 1 0 -0 
2 0 0 0 0 1 0 0 -0 1 1 0 -0 5.9000000000000004
1 0 215.19999999999999 0 0 1 0 0 -0 1 1 0 -0 
1 0 0 0 0 1 0 0 -0 1 1 0 -0 
Triangulations 0

TShapes 23
Ve
1e-07
-1.69001258282335e-15 215.2 6.9
0 0

0101101
*
Ed
 1e-07 1 1 0
1  1 0 0 6.28318530717959
2  1 1 0 0 6.28318530717959
2  2 2 0 0 6.28318530717959
0

0101000
+23 0 -23 0 *
Ve
1e-07
-1.69001258282335e-15 0 6.9
0 0

0101101
*
Ed
 1e-07 1 1 0
1  2 0 0 215.2
3  3 4CN 1 0 0 215.2
0

0101000
-23 0 +21 0 *
Ed
 1e-07 1 1 0
1  3 0 0 6.28318530717959
2  5 1 0 0 6.28318530717959
2  6 3 0 0 6.28318530717959
0

0101000
+21 0 -21 0 *
Wi

0101100
-22 0 +20 0 +19 0 -20 0 *
Fa
0  1e-07 1 0

0111000
+18 0 *
Wi

0101100
+22 0 *
Ve
1e-07
-1.44508322299388e-15 215.2 5.9
0 0

0101101
*
Ed
 1e-07 1 1 0
1  4 0 0 6.28318530717959
2  7 4 0 0 6.28318530717959
2  8 5 0 0 6.28318530717959
0

0101000
+15 0 -15 0 *
Wi

0101100
-14 0 *
Fa
0  1e-07 2 0

0101000
+16 0 +13 0 *
Wi

0101100
+19 0 *
Ve
1e-07
-1.44508322299388e-15 0 5.9
0 0

0101101
*
Ed
 1e-07 1 1 0
1  5 0 0 6.28318530717959
2  9 4 0 0 6.28318530717959
2  10 6 0 0 6.28318530717959
0

0101000
+10 0 -10 0 *
Wi

0101100
-9 0 *
Fa
0  1e-07 3 0

0101000
+11 0 +8 0 *
Ed
 1e-07 1 1 0
1  6 0 0 215.2
3  11 12CN 4 0 0 215.2
0

0101000
+10 0 -15 0 *
Wi

0101100
-14 0 +6 0 +9 0 -6 0 *
Fa
0  1e-07 4 0

0101000
+5 0 *
Sh

0101100
+17 0 +12 0 -7 0 -4 0 *
So

0100000
+3 0 *
Co

1100000
+2 0 *

+1 1 