DBRep_DrawableShape

CASCADE Topology V1, (c) Matra-Datavision
Locations 1
1
0.280073955544933 -0.124752619039326 -0.951837887178402 -2.82028018925481 
-0.564319731734528 0.780717029765229 -0.268373172671243 -14.8139005330913 
0.776596304266563 0.612305237179454 0.148258142178187 -10.3355870816148 
Curve2ds 12
1 0 229.59999999999999 1 0 
2 0 0 1 0 -0 1 8.6999999999999993
1 6.2831853071795862 -0 0 1 
1 0 -0 0 1 
1 0 0 1 0 
2 0 0 1 0 -0 1 8.6999999999999993
1 0 229.59999999999999 1 0 
2 0 0 1 0 -0 1 7.6999999999999993
1 0 0 1 0 
2 0 0 1 0 -0 1 7.6999999999999993
1 6.2831853071795862 -0 0 1 
1 0 -0 0 1 
Curves 6
2 0 229.59999999999999 0 0 1 0 0 -0 1 1 0 -0 8.6999999999999993
1 -2.1308854305163945e-15 0 8.6999999999999993 0 1 0 
2 0 0 0 0 1 0 0 -0 1 1 0 -0 8.6999999999999993
2 0 229.59999999999999 0 0 1 0 0 -0 1 1 0 -0 7.6999999999999993
2 0 0 0 0 1 0 0 -0 1 1 0 -0 7.6999999999999993
1 -1.8859560706869238e-15 0 7.6999999999999993 0 1 0 
Polygon3D 0
PolygonOnTriangulations 0
Surfaces 6
2 0 0 0 0 1 0 0 -0 1 1 0 -0 8.6999999999999993
1 0 229.59999999999999 0 0 1 0 0 -0 1 1 0 -0 
1 0 0 0 0 1 0 0 -0 1 1 0 -0 
2 0 0 0 0 1 0 0 -0 1 1 0 -0 7.6999999999999993
1 0 229.59999999999999 0 0 1 0 0 -0 1 1 0 -0 
1 0 0 0 0 1 0 0 -0 1 1 0 -0 
Triangulations 0

TShapes 23
Ve
1e-07
-2.13088543051639e-15 229.6 8.7
0 0

0101101
*
Ed
 1e-07 1 1 0
1  1 0 0 6.28318530717959
2  1 1 0 0 6.28318530717959
2  2 2 0 0 6.28318530717959
0

0101000
+23 0 -23 0 *
Ve
1e-07
-2.13088543051639e-15 0 8.7
0 0

0101101
*
Ed
 1e-07 1 1 0
1  2 0 0 229.6
3  3 4CN 1 0 0 229.6
0

0101000
-23 0 +21 0 *
Ed
 1e-07 1 1 0
1  3 0 0 6.28318530717959
2  5 1 0 0 6.28318530717959
2  6 3 0 0 6.28318530717959
0

0101000
+21 0 -21 0 *
Wi

0101100
-22 0 +20 0 +19 0 -20 0 *
Fa
0  1e-07 1 0

0111000
+18 0 *
Wi

0101100
+22 0 *
Ve
1e-07
-1.88595607068692e-15 229.6 7.7
0 0

0101101
*
Ed
 1e-07 1 1 0
1  4 0 0 6.28318530717959
2  7 4 0 0 6.28318530717959
2  8 5 0 0 6.28318530717959
0

0101000
+15 0 -15 0 *
Wi

0101100
-14 0 *
Fa
0  1e-07 2 0

0101000
+16 0 +13 0 *
Wi

0101100
+19 0 *
Ve
1e-07
-1.88595607068692e-15 0 7.7
0 0

0101101
*
Ed
 1e-07 1 1 0
1  5 0 0 6.28318530717959
2  9 4 0 0 6.28318530717959
2  10 6 0 0 6.28318530717959
0

0101000
+10 0 -10 0 *
Wi

0101100
-9 0 *
Fa
0  1e-07 3 0

0101000
+11 0 +8 0 *
Ed
 1e-07 1 1 0
1  6 0 0 229.6
3  11 12CN 4 0 0 229.6
0

0101000
+10 0 -15 0 *
Wi

0101100
-14 0 +6 0 +9 0 -6 0 *
Fa
0  1e-07 4 0

0101000
+5 0 *
Sh

0101100
+17 0 +12 0 -7 0 -4 0 *
So

0100000
+3 0 *
Co

1100000
+2 0 *

+1 1 