DBRep_DrawableShape

CASCADE Topology V1, (c) Matra-Datavision
Locations 1
1
0.355775825494648 0.475762445139543 0.804408887188876 -16.1428220798036 
-0.363322173642085 0.863430113250404 -0.349979196056544 2.23633672590386 
-0.861057814628955 -0.167745448007503 0.480042607003971 18.6824286290842 
Curve2ds 12
1 0 208 1 0 
2 0 0 1 0 -0 1 6
1 6.2831853071795862 -0 0 1 
1 0 -0 0 1 
1 0 0 1 0 
2 0 0 1 0 -0 1 6
1 0 208 1 0 
2 0 0 1 0 -0 1 5
1 0 0 1 0 
2 0 0 1 0 -0 1 5
1 6.2831853071795862 -0 0 1 
1 0 -0 0 1 
Curves 6
2 0 208 0 0 1 0 0 -0 1 1 0 -0 6
1 -1.4695761589768238e-15 0 6 0 1 0 
2 0 0 0 0 1 0 0 -0 1 1 0 -0 6
2 0 208 0 0 1 0 0 -0 1 1 0 -0 5
2 0 0 0 0 1 0 0 -0 1 1 0 -0 5
1 -1.2246467991473533e-15 0 5 0 1 0 
Polygon3D 0
PolygonOnTriangulations 0
Surfaces 6
2 0 0 0 0 1 0 0 -0 1 1 0 -0 6
1 0 208 0 0 1 0 0 -0 1 1 0 -0 
1 0 0 0 0 1 0 0 -0 1 1 0 -0 
2 0 0 0 0 1 0 0 -0 1 1 0 -0 5
1 0 208 0 0 1 0 0 -0 1 1 0 -0 
1 0 0 0 0 1 0 0 -0 1 1 0 -0 
Triangulations 0

TShapes 23
Ve
1e-07
-1.46957615897682e-15 208 6
0 0

0101101
*
Ed
 1e-07 1 1 0
1  1 0 0 6.28318530717959
2  1 1 0 0 6.28318530717959
2  2 2 0 0 6.28318530717959
0

0101000
+23 0 -23 0 *
Ve
1e-07
-1.46957615897682e-15 0 6
0 0

0101101
*
Ed
 1e-07 1 1 0
1  2 0 0 208
3  3 4CN 1 0 0 208
0

0101000
-23 0 +21 0 *
Ed
 1e-07 1 1 0
1  3 0 0 6.28318530717959
2  5 1 0 0 6.28318530717959
2  6 3 0 0 6.28318530717959
0

0101000
+21 0 -21 0 *
Wi

0101100
-22 0 +20 0 +19 0 -20 0 *
Fa
0  1e-07 1 0

0111000
+18 0 *
Wi

0101100
+22 0 *
Ve
1e-07
-1.22464679914735e-15 208 5
0 0

0101101
*
Ed
 1e-07 1 1 0
1  4 0 0 6.28318530717959
2  7 4 0 0 6.28318530717959
2  8 5 0 0 6.28318530717959
0

0101000
+15 0 -15 0 *
Wi

0101100
-14 0 *
Fa
0  1e-07 2 0

0101000
+16 0 +13 0 *
Wi

0101100
+19 0 *
Ve
1e-07
-1.22464679914735e-15 0 5
0 0

0101101
*
Ed
 1e-07 1 1 0
1  5 0 0 6.28318530717959
2  9 4 0 0 6.28318530717959
2  10 6 0 0 6.28318530717959
0

0101000
+10 0 -10 0 *
Wi

0101100
-9 0 *
Fa
0  1e-07 3 0

0101000
+11 0 +8 0 *
Ed
 1e-07 1 1 0
1  6 0 0 208
3  11 12CN 4 0 0 208
0

0101000
+10 0 -15 0 *
Wi

0101100
-14 0 +6 0 +9 0 -6 0 *
Fa
0  1e-07 4 0

0101000
+5 0 *
Sh

0101100
+17 0 +12 0 -7 0 -4 0 *
So

0100000
+3 0 *
Co

1100000
+2 0 *

+1 1 