DBRep_DrawableShape

CASCADE Topology V1, (c) Matra-Datavision
Locations 1
1
0.227266439149956 0.220085448048245 -0.948637107219353 4.08511165056748 
-0.963423172142597 0.192862212919487 -0.186064392634631 9.1962733636399 
0.142006186537047 0.956225163016118 0.255866528877857 19.8965654499926 
Curve2ds 12
1 0 220 1 0 
2 0 0 1 0 -0 1 7.5
1 6.2831853071795862 -0 0 1 
1 0 -0 0 1 
1 0 0 1 0 
2 0 0 1 0 -0 1 7.5
1 0 220 1 0 
2 0 0 1 0 -0 1 6.5
1 0 0 1 0 
2 0 0 1 0 -0 1 6.5
1 6.2831853071795862 -0 0 1 
1 0 -0 0 1 
Curves 6
2 0 220 0 0 1 0 0 -0 1 1 0 -0 7.5
1 -1.83697019872103e-15 0 7.5 0 1 0 
2 0 0 0 0 1 0 0 -0 1 1 0 -0 7.5
2 0 220 0 0 1 0 0 -0 1 1 0 -0 6.5
2 0 0 0 0 1 0 0 -0 1 1 0 -0 6.5
1 -1.5920408388915591e-15 0 6.5 0 1 0 
Polygon3D 0
PolygonOnTriangulations 0
Surfaces 6
2 0 0 0 0 1 0 0 -0 1 1 0 -0 7.5
1 0 220 0 0 1 0 0 -0 1 1 0 -0 
1 0 0 0 0 1 0 0 -0 1 1 0 -0 
2 0 0 0 0 1 0 0 -0 1 1 0 -0 6.5
1 0 220 0 0 1 0 0 -0 1 1 0 -0 
1 0 0 0 0 1 0 0 -0 1 1 0 -0 
Triangulations 0

TShapes 23
Ve
1e-07
-1.83697019872103e-15 220 7.5
0 0

0101101
*
Ed
 1e-07 1 1 0
1  1 0 0 6.28318530717959
2  1 1 0 0 6.28318530717959
2  2 2 0 0 6.28318530717959
0

0101000
+23 0 -23 0 *
Ve
1e-07
-1.83697019872103e-15 0 7.5
0 0

0101101
*
Ed
 1e-07 1 1 0
1  2 0 0 220
3  3 4CN 1 0 0 220
0

0101000
-23 0 +21 0 *
Ed
 1e-07 1 1 0
1  3 0 0 6.28318530717959
2  5 1 0 0 6.28318530717959
2  6 3 0 0 6.28318530717959
0

0101000
+21 0 -21 0 *
Wi

0101100
-22 0 +20 0 +19 0 -20 0 *
Fa
0  1e-07 1 0

0111000
+18 0 *
Wi

0101100
+22 0 *
Ve
1e-07
-1.59204083889156e-15 220 6.5
0 0

0101101
*
Ed
 1e-07 1 1 0
1  4 0 0 6.28318530717959
2  7 4 0 0 6.28318530717959
2  8 5 0 0 6.28318530717959
0

0101000
+15 0 -15 0 *
Wi

0101100
-14 0 *
Fa
0  1e-07 2 0

0101000
+16 0 +13 0 *
Wi

0101100
+19 0 *
Ve
1e-07
-1.59204083889156e-15 0 6.5
0 0

0101101
*
Ed
 1e-07 1 1 0
1  5 0 0 6.28318530717959
2  9 4 0 0 6.28318530717959
2  10 6 0 0 6.28318530717959
0

0101000
+10 0 -10 0 *
Wi

0101100
-9 0 *
Fa
0  1e-07 3 0

0101000
+11 0 +8 0 *
Ed
 1e-07 1 1 0
1  6 0 0 220
3  11 12CN 4 0 0 220
0

0101000
+10 0 -15 0 *
Wi

0101100
-14 0 +6 0 +9 0 -6 0 *
Fa
0  1e-07 4 0

0101000
+5 0 *
Sh

0101100
+17 0 +12 0 -7 0 -4 0 *
So

0100000
+3 0 *
Co

1100000
+2 0 *

+1 1 