DBRep_DrawableShape

CASCADE Topology V1, (c) Matra-Datavision
Locations 1
1
0.52465338492443 0.825206789841094 -0.209218975447961 -6.0141838966978 
-0.614986808001398 0.537321213674426 0.577128356017701 10.2441448853353 
0.588668031807053 -0.174125435636494 0.789398683171445 -11.4693144052591 
Curve2ds 12
1 0 216.40000000000001 1 0 
2 0 0 1 0 -0 1 7.0499999999999998
1 6.2831853071795862 -0 0 1 
1 0 -0 0 1 
1 0 0 1 0 
2 0 0 1 0 -0 1 7.0499999999999998
1 0 216.40000000000001 1 0 
2 0 0 1 0 -0 1 6.0499999999999998
1 0 0 1 0 
2 0 0 1 0 -0 1 6.0499999999999998
1 6.2831853071795862 -0 0 1 
1 0 -0 0 1 
Curves 6
2 0 216.40000000000001 0 0 1 0 0 -0 1 1 0 -0 7.0499999999999998
1 -1.726751986797768e-15 0 7.0499999999999998 0 1 0 
2 0 0 0 0 1 0 0 -0 1 1 0 -0 7.0499999999999998
2 0 216.40000000000001 0 0 1 0 0 -0 1 1 0 -0 6.0499999999999998
2 0 0 0 0 1 0 0 -0 1 1 0 -0 6.0499999999999998
1 -1.4818226269682973e-15 0 6.0499999999999998 0 1 0 
Polygon3D 0
PolygonOnTriangulations 0
Surfaces 6
2 0 0 0 0 1 0 0 -0 1 1 0 -0 7.0499999999999998
1 0 216.40000000000001 0 0 1 0 0 -0 1 1 0 -0 
1 0 0 0 0 1 0 0 -0 1 1 0 -0 
2 0 0 0 0 1 0 0 -0 1 1 0 -0 6.0499999999999998
1 0 216.40000000000001 0 0 1 0 0 -0 1 1 0 -0 
1 0 0 0 0 1 0 0 -0 1 1 0 -0 
Triangulations 0

TShapes 23
Ve
1e-07
-1.72675198679777e-15 216.4 7.05
0 0

0101101
*
Ed
 1e-07 1 1 0
1  1 0 0 6.28318530717959
2  1 1 0 0 6.28318530717959
2  2 2 0 0 6.28318530717959
0

0101000
+23 0 -23 0 *
Ve
1e-07
-1.72675198679777e-15 0 7.05
0 0

0101101
*
Ed
 1e-07 1 1 0
1  2 0 0 216.4
3  3 4CN 1 0 0 216.4
0

0101000
-23 0 +21 0 *
Ed
 1e-07 1 1 0
1  3 0 0 6.28318530717959
2  5 1 0 0 6.28318530717959
2  6 3 0 0 6.28318530717959
0

0101000
+21 0 -21 0 *
Wi

0101100
-22 0 +20 0 +19 0 -20 0 *
Fa
0  1e-07 1 0

0111000
+18 0 *
Wi

0101100
+22 0 *
Ve
1e-07
-1.4818226269683e-15 216.4 6.05
0 0

0101101
*
Ed
 1e-07 1 1 0
1  4 0 0 6.28318530717959
2  7 4 0 0 6.28318530717959
2  8 5 0 0 6.28318530717959
0

0101000
+15 0 -15 0 *
Wi

0101100
-14 0 *
Fa
0  1e-07 2 0

0101000
+16 0 +13 0 *
Wi

0101100
+19 0 *
Ve
1e-07
-1.4818226269683e-15 0 6.05
0 0

0101101
*
Ed
 1e-07 1 1 0
1  5 0 0 6.28318530717959
2  9 4 0 0 6.28318530717959
2  10 6 0 0 6.28318530717959
0

0101000
+10 0 -10 0 *
Wi

0101100
-9 0 *
Fa
0  1e-07 3 0

0101000
+11 0 +8 0 *
Ed
 1e-07 1 1 0
1  6 0 0 216.4
3  11 12CN 4 0 0 216.4
0

0101000
+10 0 -15 0 *
Wi

0101100
-14 0 +6 0 +9 0 -6 0 *
Fa
0  1e-07 4 0

0101000
+5 0 *
Sh

0101100
+17 0 +12 0 -7 0 -4 0 *
So

0100000
+3 0 *
Co

1100000
+2 0 *

+1 1 