DBRep_DrawableShape

CASCADE Topology V1, (c) Matra-Datavision
Locations 1
1
0.91902370304091 -0.391154438049544 -0.048924828493505 17.8773494109739 
0.251299002224261 0.485713727100362 0.837216212687838 3.5873741256113 
-0.303717376404552 -0.781716304614673 0.544679148095018 -14.4387139584709 
Curve2ds 12
1 0 212.40000000000001 1 0 
2 0 0 1 0 -0 1 6.5499999999999998
1 6.2831853071795862 -0 0 1 
1 0 -0 0 1 
1 0 0 1 0 
2 0 0 1 0 -0 1 6.5499999999999998
1 0 212.40000000000001 1 0 
2 0 0 1 0 -0 1 5.5499999999999998
1 0 0 1 0 
2 0 0 1 0 -0 1 5.5499999999999998
1 6.2831853071795862 -0 0 1 
1 0 -0 0 1 
Curves 6
2 0 212.40000000000001 0 0 1 0 0 -0 1 1 0 -0 6.5499999999999998
1 -1.6042873068830326e-15 0 6.5499999999999998 0 1 0 
2 0 0 0 0 1 0 0 -0 1 1 0 -0 6.5499999999999998
2 0 212.40000000000001 0 0 1 0 0 -0 1 1 0 -0 5.5499999999999998
2 0 0 0 0 1 0 0 -0 1 1 0 -0 5.5499999999999998
1 -1.359357947053562e-15 0 5.5499999999999998 0 1 0 
Polygon3D 0
PolygonOnTriangulations 0
Surfaces 6
2 0 0 0 0 1 0 0 -0 1 1 0 -0 6.5499999999999998
1 0 212.40000000000001 0 0 1 0 0 -0 1 1 0 -0 
1 0 0 0 0 1 0 0 -0 1 1 0 -0 
2 0 0 0 0 1 0 0 -0 1 1 0 -0 5.5499999999999998
1 0 212.40000000000001 0 0 1 0 0 -0 1 1 0 -0 
1 0 0 0 0 1 0 0 -0 1 1 0 -0 
Triangulations 0

TShapes 23
Ve
1e-07
-1.60428730688303e-15 212.4 6.55
0 0

0101101
*
Ed
 1e-07 1 1 0
1  1 0 0 6.28318530717959
2  1 1 0 0 6.28318530717959
2  2 2 0 0 6.28318530717959
0

0101000
+23 0 -23 0 *
Ve
1e-07
-1.60428730688303e-15 0 6.55
0 0

0101101
*
Ed
 1e-07 1 1 0
1  2 0 0 212.4
3  3 4CN 1 0 0 212.4
0

0101000
-23 0 +21 0 *
Ed
 1e-07 1 1 0
1  3 0 0 6.28318530717959
2  5 1 0 0 6.28318530717959
2  6 3 0 0 6.28318530717959
0

0101000
+21 0 -21 0 *
Wi

0101100
-22 0 +20 0 +19 0 -20 0 *
Fa
0  1e-07 1 0

0111000
+18 0 *
Wi

0101100
+22 0 *
Ve
1e-07
-1.35935794705356e-15 212.4 5.55
0 0

0101101
*
Ed
 1e-07 1 1 0
1  4 0 0 6.28318530717959
2  7 4 0 0 6.28318530717959
2  8 5 0 0 6.28318530717959
0

0101000
+15 0 -15 0 *
Wi

0101100
-14 0 *
Fa
0  1e-07 2 0

0101000
+16 0 +13 0 *
Wi

0101100
+19 0 *
Ve
1e-07
-1.35935794705356e-15 0 5.55
0 0

0101101
*
Ed
 1e-07 1 1 0
1  5 0 0 6.28318530717959
2  9 4 0 0 6.28318530717959
2  10 6 0 0 6.28318530717959
0

0101000
+10 0 -10 0 *
Wi

0101100
-9 0 *
Fa
0  1e-07 3 0

0101000
+11 0 +8 0 *
Ed
 1e-07 1 1 0
1  6 0 0 212.4
3  11 12CN 4 0 0 212.4
0

0101000
+10 0 -15 0 *
Wi

0101100
-14 0 +6 0 +9 0 -6 0 *
Fa
0  1e-07 4 0

0101000
+5 0 *
Sh

0101100
+17 0 +12 0 -7 0 -4 0 *
So

0100000
+3 0 *
Co

1100000
+2 0 *

+1 1 