DBRep_DrawableShape

CASCADE Topology V1, (c) Matra-Datavision
Locations 1
1
0.884477400256216 0.194469795581103 -0.424124070341038 -13.6853757697158 
0.260199220280452 0.548944481746274 0.794327590938248 -4.00516466171886 
0.387293292223672 -0.812921554989754 0.434928098921638 11.4765546092185 
Curve2ds 12
1 0 203.19999999999999 1 0 
2 0 0 1 0 -0 1 5.4000000000000004
1 6.2831853071795862 -0 0 1 
1 0 -0 0 1 
1 0 0 1 0 
2 0 0 1 0 -0 1 5.4000000000000004
1 0 203.19999999999999 1 0 
2 0 0 1 0 -0 1 4.4000000000000004
1 0 0 1 0 
2 0 0 1 0 -0 1 4.4000000000000004
1 6.2831853071795862 -0 0 1 
1 0 -0 0 1 
Curves 6
2 0 203.19999999999999 0 0 1 0 0 -0 1 1 0 -0 5.4000000000000004
1 -1.3226185430791415e-15 0 5.4000000000000004 0 1 0 
2 0 0 0 0 1 0 0 -0 1 1 0 -0 5.4000000000000004
2 0 203.19999999999999 0 0 1 0 0 -0 1 1 0 -0 4.4000000000000004
2 0 0 0 0 1 0 0 -0 1 1 0 -0 4.4000000000000004
1 -1.077689183249671e-15 0 4.4000000000000004 0 1 0 
Polygon3D 0
PolygonOnTriangulations 0
Surfaces 6
2 0 0 0 0 1 0 0 -0 1 1 0 -0 5.4000000000000004
1 0 203.19999999999999 0 0 1 0 0 -0 1 1 0 -0 
1 0 0 0 0 1 0 0 -0 1 1 0 -0 
2 0 0 0 0 1 0 0 -0 1 1 0 -0 4.4000000000000004
1 0 203.19999999999999 0 0 1 0 0 -0 1 1 0 -0 
1 0 0 0 0 1 0 0 -0 1 1 0 -0 
Triangulations 0

TShapes 23
Ve
1e-07
-1.32261854307914e-15 203.2 5.4
0 0

0101101
*
Ed
 1e-07 1 1 0
1  1 0 0 6.28318530717959
2  1 1 0 0 6.28318530717959
2  2 2 0 0 6.28318530717959
0

0101000
+23 0 -23 0 *
Ve
1e-07
-1.32261854307914e-15 0 5.4
0 0

0101101
*
Ed
 1e-07 1 1 0
1  2 0 0 203.2
3  3 4CN 1 0 0 203.2
0

0101000
-23 0 +21 0 *
Ed
 1e-07 1 1 0
1  3 0 0 6.28318530717959
2  5 1 0 0 6.28318530717959
2  6 3 0 0 6.28318530717959
0

0101000
+21 0 -21 0 *
Wi

0101100
-22 0 +20 0 +19 0 -20 0 *
Fa
0  1e-07 1 0

0111000
+18 0 *
Wi

0101100
+22 0 *
Ve
1e-07
-1.07768918324967e-15 203.2 4.4
0 0

0101101
*
Ed
 1e-07 1 1 0
1  4 0 0 6.28318530717959
2  7 4 0 0 6.28318530717959
2  8 5 0 0 6.28318530717959
0

0101000
+15 0 -15 0 *
Wi

0101100
-14 0 *
Fa
0  1e-07 2 0

0101000
+16 0 +13 0 *
Wi

0101100
+19 0 *
Ve
1e-07
-1.07768918324967e-15 0 4.4
0 0

0101101
*
Ed
 1e-07 1 1 0
1  5 0 0 6.28318530717959
2  9 4 0 0 6.28318530717959
2  10 6 0 0 6.28318530717959
0

0101000
+10 0 -10 0 *
Wi

0101100
-9 0 *
Fa
0  1e-07 3 0

0101000
+11 0 +8 0 *
Ed
 1e-07 1 1 0
1  6 0 0 203.2
3  11 12CN 4 0 0 203.2
0

0101000
+10 0 -15 0 *
Wi

0101100
-14 0 +6 0 +9 0 -6 0 *
Fa
0  1e-07 4 0

0101000
+5 0 *
Sh

0101100
+17 0 +12 0 -7 0 -4 0 *
So

0100000
+3 0 *
Co

1100000
+2 0 *

+1 1 