DBRep_DrawableShape

CASCADE Topology V1, (c) Matra-Datavision
Locations 1
1
0.463736350864864 0.106973410088986 0.87949149309159 -8.43683244158309 
-0.885213149090265 0.01483304288758 0.464949095618426 6.3633845897054 
0.0366916552398038 -0.994151231137712 0.101572890394704 13.5139206972034 
Curve2ds 12
1 0 235.59999999999999 1 0 
2 0 0 1 0 -0 1 9.4499999999999993
1 6.2831853071795862 -0 0 1 
1 0 -0 0 1 
1 0 0 1 0 
2 0 0 1 0 -0 1 9.4499999999999993
1 0 235.59999999999999 1 0 
2 0 0 1 0 -0 1 8.4499999999999993
1 0 0 1 0 
2 0 0 1 0 -0 1 8.4499999999999993
1 6.2831853071795862 -0 0 1 
1 0 -0 0 1 
Curves 6
2 0 235.59999999999999 0 0 1 0 0 -0 1 1 0 -0 9.4499999999999993
1 -2.3145824503884972e-15 0 9.4499999999999993 0 1 0 
2 0 0 0 0 1 0 0 -0 1 1 0 -0 9.4499999999999993
2 0 235.59999999999999 0 0 1 0 0 -0 1 1 0 -0 8.4499999999999993
2 0 0 0 0 1 0 0 -0 1 1 0 -0 8.4499999999999993
1 -2.0696530905590269e-15 0 8.4499999999999993 0 1 0 
Polygon3D 0
PolygonOnTriangulations 0
Surfaces 6
2 0 0 0 0 1 0 0 -0 1 1 0 -0 9.4499999999999993
1 0 235.59999999999999 0 0 1 0 0 -0 1 1 0 -0 
1 0 0 0 0 1 0 0 -0 1 1 0 -0 
2 0 0 0 0 1 0 0 -0 1 1 0 -0 8.4499999999999993
1 0 235.59999999999999 0 0 1 0 0 -0 1 1 0 -0 
1 0 0 0 0 1 0 0 -0 1 1 0 -0 
Triangulations 0

TShapes 23
Ve
1e-07
-2.3145824503885e-15 235.6 9.45
0 0

0101101
*
Ed
 1e-07 1 1 0
1  1 0 0 6.28318530717959
2  1 1 0 0 6.28318530717959
2  2 2 0 0 6.28318530717959
0

0101000
+23 0 -23 0 *
Ve
1e-07
-2.3145824503885e-15 0 9.45
0 0

0101101
*
Ed
 1e-07 1 1 0
1  2 0 0 235.6
3  3 4CN 1 0 0 235.6
0

0101000
-23 0 +21 0 *
Ed
 1e-07 1 1 0
1  3 0 0 6.28318530717959
2  5 1 0 0 6.28318530717959
2  6 3 0 0 6.28318530717959
0

0101000
+21 0 -21 0 *
Wi

0101100
-22 0 +20 0 +19 0 -20 0 *
Fa
0  1e-07 1 0

0111000
+18 0 *
Wi

0101100
+22 0 *
Ve
1e-07
-2.06965309055903e-15 235.6 8.45
0 0

0101101
*
Ed
 1e-07 1 1 0
1  4 0 0 6.28318530717959
2  7 4 0 0 6.28318530717959
2  8 5 0 0 6.28318530717959
0

0101000
+15 0 -15 0 *
Wi

0101100
-14 0 *
Fa
0  1e-07 2 0

0101000
+16 0 +13 0 *
Wi

0101100
+19 0 *
Ve
1e-07
-2.06965309055903e-15 0 8.45
0 0

0101101
*
Ed
 1e-07 1 1 0
1  5 0 0 6.28318530717959
2  9 4 0 0 6.28318530717959
2  10 6 0 0 6.28318530717959
0

0101000
+10 0 -10 0 *
Wi

0101100
-9 0 *
Fa
0  1e-07 3 0

0101000
+11 0 +8 0 *
Ed
 1e-07 1 1 0
1  6 0 0 235.6
3  11 12CN 4 0 0 235.6
0

0101000
+10 0 -15 0 *
Wi

0101100
-14 0 +6 0 +9 0 -6 0 *
Fa
0  1e-07 4 0

0101000
+5 0 *
Sh

0101100
+17 0 +12 0 -7 0 -4 0 *
So

0100000
+3 0 *
Co

1100000
+2 0 *

+1 1 