DBRep_DrawableShape

CASCADE Topology V1, (c) Matra-Datavision
Locations 1
1
0.0801901560348842 -0.679745018525848 -0.729051609054116 -6.18401385684516 
0.191443487819757 0.728293191954677 -0.657980560141312 -19.0205400036962 
0.978222331500619 -0.0868086190522735 0.188534701876683 12.3468043309597 
Curve2ds 12
1 0 230 1 0 
2 0 0 1 0 -0 1 8.75
1 6.2831853071795862 -0 0 1 
1 0 -0 0 1 
1 0 0 1 0 
2 0 0 1 0 -0 1 8.75
1 0 230 1 0 
2 0 0 1 0 -0 1 7.75
1 0 0 1 0 
2 0 0 1 0 -0 1 7.75
1 6.2831853071795862 -0 0 1 
1 0 -0 0 1 
Curves 6
2 0 230 0 0 1 0 0 -0 1 1 0 -0 8.75
1 -2.1431318985078682e-15 0 8.75 0 1 0 
2 0 0 0 0 1 0 0 -0 1 1 0 -0 8.75
2 0 230 0 0 1 0 0 -0 1 1 0 -0 7.75
2 0 0 0 0 1 0 0 -0 1 1 0 -0 7.75
1 -1.8982025386783976e-15 0 7.75 0 1 0 
Polygon3D 0
PolygonOnTriangulations 0
Surfaces 6
2 0 0 0 0 1 0 0 -0 1 1 0 -0 8.75
1 0 230 0 0 1 0 0 -0 1 1 0 -0 
1 0 0 0 0 1 0 0 -0 1 1 0 -0 
2 0 0 0 0 1 0 0 -0 1 1 0 -0 7.75
1 0 230 0 0 1 0 0 -0 1 1 0 -0 
1 0 0 0 0 1 0 0 -0 1 1 0 -0 
Triangulations 0

TShapes 23
Ve
1e-07
-2.14313189850787e-15 230 8.75
0 0

0101101
*
Ed
 1e-07 1 1 0
1  1 0 0 6.28318530717959
2  1 1 0 0 6.28318530717959
2  2 2 0 0 6.28318530717959
0

0101000
+23 0 -23 0 *
Ve
1e-07
-2.14313189850787e-15 0 8.75
0 0

0101101
*
Ed
 1e-07 1 1 0
1  2 0 0 230
3  3 4CN 1 0 0 230
0

0101000
-23 0 +21 0 *
Ed
 1e-07 1 1 0
1  3 0 0 6.28318530717959
2  5 1 0 0 6.28318530717959
2  6 3 0 0 6.28318530717959
0

0101000
+21 0 -21 0 *
Wi

0101100
-22 0 +20 0 +19 0 -20 0 *
Fa
0  1e-07 1 0

0111000
+18 0 *
Wi

0101100
+22 0 *
Ve
1e-07
-1.8982025386784e-15 230 7.75
0 0

0101101
*
Ed
 1e-07 1 1 0
1  4 0 0 6.28318530717959
2  7 4 0 0 6.28318530717959
2  8 5 0 0 6.28318530717959
0

0101000
+15 0 -15 0 *
Wi

0101100
-14 0 *
Fa
0  1e-07 2 0

0101000
+16 0 +13 0 *
Wi

0101100
+19 0 *
Ve
1e-07
-1.8982025386784e-15 0 7.75
0 0

0101101
*
Ed
 1e-07 1 1 0
1  5 0 0 6.28318530717959
2  9 4 0 0 6.28318530717959
2  10 6 0 0 6.28318530717959
0

0101000
+10 0 -10 0 *
Wi

0101100
-9 0 *
Fa
0  1e-07 3 0

0101000
+11 0 +8 0 *
Ed
 1e-07 1 1 0
1  6 0 0 230
3  11 12CN 4 0 0 230
0

0101000
+10 0 -15 0 *
Wi

0101100
-14 0 +6 0 +9 0 -6 0 *
Fa
0  1e-07 4 0

0101000
+5 0 *
Sh

0101100
+17 0 +12 0 -7 0 -4 0 *
So

0100000
+3 0 *
Co

1100000
+2 0 *

+1 1 