DBRep_DrawableShape

CASCADE Topology V1, (c) Matra-Datavision
Locations 1
1
0.0924480300101779 0.199134927098845 -0.975601682325618 -1.99611277874019 
-0.0927884027152325 0.977257069056586 0.190680185914758 -1.09354785737865 
0.991384725557537 0.0728965142394939 0.108822902658118 -19.7071783111775 
Curve2ds 12
1 0 200.80000000000001 1 0 
2 0 0 1 0 -0 1 5.0999999999999996
1 6.2831853071795862 -0 0 1 
1 0 -0 0 1 
1 0 0 1 0 
2 0 0 1 0 -0 1 5.0999999999999996
1 0 200.80000000000001 1 0 
2 0 0 1 0 -0 1 4.0999999999999996
1 0 0 1 0 
2 0 0 1 0 -0 1 4.0999999999999996
1 6.2831853071795862 -0 0 1 
1 0 -0 0 1 
Curves 6
2 0 200.80000000000001 0 0 1 0 0 -0 1 1 0 -0 5.0999999999999996
1 -1.2491397351303002e-15 0 5.0999999999999996 0 1 0 
2 0 0 0 0 1 0 0 -0 1 1 0 -0 5.0999999999999996
2 0 200.80000000000001 0 0 1 0 0 -0 1 1 0 -0 4.0999999999999996
2 0 0 0 0 1 0 0 -0 1 1 0 -0 4.0999999999999996
1 -1.0042103753008295e-15 0 4.0999999999999996 0 1 0 
Polygon3D 0
PolygonOnTriangulations 0
Surfaces 6
2 0 0 0 0 1 0 0 -0 1 1 0 -0 5.0999999999999996
1 0 200.80000000000001 0 0 1 0 0 -0 1 1 0 -0 
1 0 0 0 0 1 0 0 -0 1 1 0 -0 
2 0 0 0 0 1 0 0 -0 1 1 0 -0 4.0999999999999996
1 0 200.80000000000001 0 0 1 0 0 -0 1 1 0 -0 
1 0 0 0 0 1 0 0 -0 1 1 0 -0 
Triangulations 0

TShapes 23
Ve
1e-07
-1.2491397351303e-15 200.8 5.1
0 0

0101101
*
Ed
 1e-07 1 1 0
1  1 0 0 6.28318530717959
2  1 1 0 0 6.28318530717959
2  2 2 0 0 6.28318530717959
0

0101000
+23 0 -23 0 *
Ve
1e-07
-1.2491397351303e-15 0 5.1
0 0

0101101
*
Ed
 1e-07 1 1 0
1  2 0 0 200.8
3  3 4CN 1 0 0 200.8
0

0101000
-23 0 +21 0 *
Ed
 1e-07 1 1 0
1  3 0 0 6.28318530717959
2  5 1 0 0 6.28318530717959
2  6 3 0 0 6.28318530717959
0

0101000
+21 0 -21 0 *
Wi

0101100
-22 0 +20 0 +19 0 -20 0 *
Fa
0  1e-07 1 0

0111000
+18 0 *
Wi

0101100
+22 0 *
Ve
1e-07
-1.00421037530083e-15 200.8 4.1
0 0

0101101
*
Ed
 1e-07 1 1 0
1  4 0 0 6.28318530717959
2  7 4 0 0 6.28318530717959
2  8 5 0 0 6.28318530717959
0

0101000
+15 0 -15 0 *
Wi

0101100
-14 0 *
Fa
0  1e-07 2 0

0101000
+16 0 +13 0 *
Wi

0101100
+19 0 *
Ve
1e-07
-1.00421037530083e-15 0 4.1
0 0

0101101
*
Ed
 1e-07 1 1 0
1  5 0 0 6.28318530717959
2  9 4 0 0 6.28318530717959
2  10 6 0 0 6.28318530717959
0

0101000
+10 0 -10 0 *
Wi

0101100
-9 0 *
Fa
0  1e-07 3 0

0101000
+11 0 +8 0 *
Ed
 1e-07 1 1 0
1  6 0 0 200.8
3  11 12CN 4 0 0 200.8
0

0101000
+10 0 -15 0 *
Wi

0101100
-14 0 +6 0 +9 0 -6 0 *
Fa
0  1e-07 4 0

0101000
+5 0 *
Sh

0101100
+17 0 +12 0 -7 0 -4 0 *
So

0100000
+3 0 *
Co

1100000
+2 0 *

+1 1 