DBRep_DrawableShape

CASCADE Topology V1, (c) Matra-Datavision
Locations 1
1
0.0313634082336065 0.0256835878342369 -0.999178007133831 4.04205268508185 
-0.990144215649693 -0.135718292171673 -0.0345684449384031 13.1639721887418 
-0.136494574395567 0.990414508418554 0.0211738677290524 4.02035272102518 
Curve2ds 12
1 0 217.59999999999999 1 0 
2 0 0 1 0 -0 1 7.2000000000000002
1 6.2831853071795862 -0 0 1 
1 0 -0 0 1 
1 0 0 1 0 
2 0 0 1 0 -0 1 7.2000000000000002
1 0 217.59999999999999 1 0 
2 0 0 1 0 -0 1 6.2000000000000002
1 0 0 1 0 
2 0 0 1 0 -0 1 6.2000000000000002
1 6.2831853071795862 -0 0 1 
1 0 -0 0 1 
Curves 6
2 0 217.59999999999999 0 0 1 0 0 -0 1 1 0 -0 7.2000000000000002
1 -1.7634913907721887e-15 0 7.2000000000000002 0 1 0 
2 0 0 0 0 1 0 0 -0 1 1 0 -0 7.2000000000000002
2 0 217.59999999999999 0 0 1 0 0 -0 1 1 0 -0 6.2000000000000002
2 0 0 0 0 1 0 0 -0 1 1 0 -0 6.2000000000000002
1 -1.518562030942718e-15 0 6.2000000000000002 0 1 0 
Polygon3D 0
PolygonOnTriangulations 0
Surfaces 6
2 0 0 0 0 1 0 0 -0 1 1 0 -0 7.2000000000000002
1 0 217.59999999999999 0 0 1 0 0 -0 1 1 0 -0 
1 0 0 0 0 1 0 0 -0 1 1 0 -0 
2 0 0 0 0 1 0 0 -0 1 1 0 -0 6.2000000000000002
1 0 217.59999999999999 0 0 1 0 0 -0 1 1 0 -0 
1 0 0 0 0 1 0 0 -0 1 1 0 -0 
Triangulations 0

TShapes 23
Ve
1e-07
-1.76349139077219e-15 217.6 7.2
0 0

0101101
*
Ed
 1e-07 1 1 0
1  1 0 0 6.28318530717959
2  1 1 0 0 6.28318530717959
2  2 2 0 0 6.28318530717959
0

0101000
+23 0 -23 0 *
Ve
1e-07
-1.76349139077219e-15 0 7.2
0 0

0101101
*
Ed
 1e-07 1 1 0
1  2 0 0 217.6
3  3 4CN 1 0 0 217.6
0

0101000
-23 0 +21 0 *
Ed
 1e-07 1 1 0
1  3 0 0 6.28318530717959
2  5 1 0 0 6.28318530717959
2  6 3 0 0 6.28318530717959
0

0101000
+21 0 -21 0 *
Wi

0101100
-22 0 +20 0 +19 0 -20 0 *
Fa
0  1e-07 1 0

0111000
+18 0 *
Wi

0101100
+22 0 *
Ve
1e-07
-1.51856203094272e-15 217.6 6.2
0 0

0101101
*
Ed
 1e-07 1 1 0
1  4 0 0 6.28318530717959
2  7 4 0 0 6.28318530717959
2  8 5 0 0 6.28318530717959
0

0101000
+15 0 -15 0 *
Wi

0101100
-14 0 *
Fa
0  1e-07 2 0

0101000
+16 0 +13 0 *
Wi

0101100
+19 0 *
Ve
1e-07
-1.51856203094272e-15 0 6.2
0 0

0101101
*
Ed
 1e-07 1 1 0
1  5 0 0 6.28318530717959
2  9 4 0 0 6.28318530717959
2  10 6 0 0 6.28318530717959
0

0101000
+10 0 -10 0 *
Wi

0101100
-9 0 *
Fa
0  1e-07 3 0

0101000
+11 0 +8 0 *
Ed
 1e-07 1 1 0
1  6 0 0 217.6
3  11 12CN 4 0 0 217.6
0

0101000
+10 0 -15 0 *
Wi

0101100
-14 0 +6 0 +9 0 -6 0 *
Fa
0  1e-07 4 0

0101000
+5 0 *
Sh

0101100
+17 0 +12 0 -7 0 -4 0 *
So

0100000
+3 0 *
Co

1100000
+2 0 *

+1 1 