DBRep_DrawableShape

CASCADE Topology V1, (c) Matra-Datavision
Locations 1
1
0.916035669039194 0.342765873132842 0.208303166714758 3.17896919839104 
-0.387041090270705 0.89166325527806 0.234810207676324 1.2662896825406 
-0.105251353862931 -0.295716410438134 0.949459823851228 -1.13694856388865 
Curve2ds 12
1 0 226.40000000000001 1 0 
2 0 0 1 0 -0 1 8.3000000000000007
1 6.2831853071795862 -0 0 1 
1 0 -0 0 1 
1 0 0 1 0 
2 0 0 1 0 -0 1 8.3000000000000007
1 0 226.40000000000001 1 0 
2 0 0 1 0 -0 1 7.3000000000000007
1 0 0 1 0 
2 0 0 1 0 -0 1 7.3000000000000007
1 6.2831853071795862 -0 0 1 
1 0 -0 0 1 
Curves 6
2 0 226.40000000000001 0 0 1 0 0 -0 1 1 0 -0 8.3000000000000007
1 -2.0329136865846065e-15 0 8.3000000000000007 0 1 0 
2 0 0 0 0 1 0 0 -0 1 1 0 -0 8.3000000000000007
2 0 226.40000000000001 0 0 1 0 0 -0 1 1 0 -0 7.3000000000000007
2 0 0 0 0 1 0 0 -0 1 1 0 -0 7.3000000000000007
1 -1.7879843267551358e-15 0 7.3000000000000007 0 1 0 
Polygon3D 0
PolygonOnTriangulations 0
Surfaces 6
2 0 0 0 0 1 0 0 -0 1 1 0 -0 8.3000000000000007
1 0 226.40000000000001 0 0 1 0 0 -0 1 1 0 -0 
1 0 0 0 0 1 0 0 -0 1 1 0 -0 
2 0 0 0 0 1 0 0 -0 1 1 0 -0 7.3000000000000007
1 0 226.40000000000001 0 0 1 0 0 -0 1 1 0 -0 
1 0 0 0 0 1 0 0 -0 1 1 0 -0 
Triangulations 0

TShapes 23
Ve
1e-07
-2.03291368658461e-15 226.4 8.3
0 0

0101101
*
Ed
 1e-07 1 1 0
1  1 0 0 6.28318530717959
2  1 1 0 0 6.28318530717959
2  2 2 0 0 6.28318530717959
0

0101000
+23 0 -23 0 *
Ve
1e-07
-2.03291368658461e-15 0 8.3
0 0

0101101
*
Ed
 1e-07 1 1 0
1  2 0 0 226.4
3  3 4CN 1 0 0 226.4
0

0101000
-23 0 +21 0 *
Ed
 1e-07 1 1 0
1  3 0 0 6.28318530717959
2  5 1 0 0 6.28318530717959
2  6 3 0 0 6.28318530717959
0

0101000
+21 0 -21 0 *
Wi

0101100
-22 0 +20 0 +19 0 -20 0 *
Fa
0  1e-07 1 0

0111000
+18 0 *
Wi

0101100
+22 0 *
Ve
1e-07
-1.78798432675514e-15 226.4 7.3
0 0

0101101
*
Ed
 1e-07 1 1 0
1  4 0 0 6.28318530717959
2  7 4 0 0 6.28318530717959
2  8 5 0 0 6.28318530717959
0

0101000
+15 0 -15 0 *
Wi

0101100
-14 0 *
Fa
0  1e-07 2 0

0101000
+16 0 +13 0 *
Wi

0101100
+19 0 *
Ve
1e-07
-1.78798432675514e-15 0 7.3
0 0

0101101
*
Ed
 1e-07 1 1 0
1  5 0 0 6.28318530717959
2  9 4 0 0 6.28318530717959
2  10 6 0 0 6.28318530717959
0

0101000
+10 0 -10 0 *
Wi

0101100
-9 0 *
Fa
0  1e-07 3 0

0101000
+11 0 +8 0 *
Ed
 1e-07 1 1 0
1  6 0 0 226.4
3  11 12CN 4 0 0 226.4
0

0101000
+10 0 -15 0 *
Wi

0101100
-14 0 +6 0 +9 0 -6 0 *
Fa
0  1e-07 4 0

0101000
+5 0 *
Sh

0101100
+17 0 +12 0 -7 0 -4 0 *
So

0100000
+3 0 *
Co

1100000
+2 0 *

+1 1 