DBRep_DrawableShape

CASCADE Topology V1, (c) Matra-Datavision
Locations 1
1
0.0140098832172935 0.0760846875868377 -0.997002930530824 -10.749485956339 
-0.531011997807499 0.845441180369361 0.0570567149435542 -16.4373982207998 
0.847248476750904 0.528621160047983 0.0522464141621116 -17.1131513322163 
Curve2ds 12
1 0 222.80000000000001 1 0 
2 0 0 1 0 -0 1 7.8499999999999996
1 6.2831853071795862 -0 0 1 
1 0 -0 0 1 
1 0 0 1 0 
2 0 0 1 0 -0 1 7.8499999999999996
1 0 222.80000000000001 1 0 
2 0 0 1 0 -0 1 6.8499999999999996
1 0 0 1 0 
2 0 0 1 0 -0 1 6.8499999999999996
1 6.2831853071795862 -0 0 1 
1 0 -0 0 1 
Curves 6
2 0 222.80000000000001 0 0 1 0 0 -0 1 1 0 -0 7.8499999999999996
1 -1.9226954746613443e-15 0 7.8499999999999996 0 1 0 
2 0 0 0 0 1 0 0 -0 1 1 0 -0 7.8499999999999996
2 0 222.80000000000001 0 0 1 0 0 -0 1 1 0 -0 6.8499999999999996
2 0 0 0 0 1 0 0 -0 1 1 0 -0 6.8499999999999996
1 -1.6777661148318738e-15 0 6.8499999999999996 0 1 0 
Polygon3D 0
PolygonOnTriangulations 0
Surfaces 6
2 0 0 0 0 1 0 0 -0 1 1 0 -0 7.8499999999999996
1 0 222.80000000000001 0 0 1 0 0 -0 1 1 0 -0 
1 0 0 0 0 1 0 0 -0 1 1 0 -0 
2 0 0 0 0 1 0 0 -0 1 1 0 -0 6.8499999999999996
1 0 222.80000000000001 0 0 1 0 0 -0 1 1 0 -0 
1 0 0 0 0 1 0 0 -0 1 1 0 -0 
Triangulations 0

TShapes 23
Ve
1e-07
-1.92269547466134e-15 222.8 7.85
0 0

0101101
*
Ed
 1e-07 1 1 0
1  1 0 0 6.28318530717959
2  1 1 0 0 6.28318530717959
2  2 2 0 0 6.28318530717959
0

0101000
+23 0 -23 0 *
Ve
1e-07
-1.92269547466134e-15 0 7.85
0 0

0101101
*
Ed
 1e-07 1 1 0
1  2 0 0 222.8
3  3 4CN 1 0 0 222.8
0

0101000
-23 0 +21 0 *
Ed
 1e-07 1 1 0
1  3 0 0 6.28318530717959
2  5 1 0 0 6.28318530717959
2  6 3 0 0 6.28318530717959
0

0101000
+21 0 -21 0 *
Wi

0101100
-22 0 +20 0 +19 0 -20 0 *
Fa
0  1e-07 1 0

0111000
+18 0 *
Wi

0101100
+22 0 *
Ve
1e-07
-1.67776611483187e-15 222.8 6.85
0 0

0101101
*
Ed
 1e-07 1 1 0
1  4 0 0 6.28318530717959
2  7 4 0 0 6.28318530717959
2  8 5 0 0 6.28318530717959
0

0101000
+15 0 -15 0 *
Wi

0101100
-14 0 *
Fa
0  1e-07 2 0

0101000
+16 0 +13 0 *
Wi

0101100
+19 0 *
Ve
1e-07
-1.67776611483187e-15 0 6.85
0 0

0101101
*
Ed
 1e-07 1 1 0
1  5 0 0 6.28318530717959
2  9 4 0 0 6.28318530717959
2  10 6 0 0 6.28318530717959
0

0101000
+10 0 -10 0 *
Wi

0101100
-9 0 *
Fa
0  1e-07 3 0

0101000
+11 0 +8 0 *
Ed
 1e-07 1 1 0
1  6 0 0 222.8
3  11 12CN 4 0 0 222.8
0

0101000
+10 0 -15 0 *
Wi

0101100
-14 0 +6 0 +9 0 -6 0 *
Fa
0  1e-07 4 0

0101000
+5 0 *
Sh

0101100
+17 0 +12 0 -7 0 -4 0 *
So

0100000
+3 0 *
Co

1100000
+2 0 *

+1 1 