DBRep_DrawableShape

CASCADE Topology V1, (c) Matra-Datavision
Locations 1
1
0.194652843430366 -0.807450859097848 0.556896202794221 -18.0869599693918 
0.450009730498541 -0.430963446293908 -0.782151999559619 -12.4823886190407 
0.871551210773701 0.402856820844114 0.279472483257779 0.714840799755081 
Curve2ds 12
1 0 223.19999999999999 1 0 
2 0 0 1 0 -0 1 7.9000000000000004
1 6.2831853071795862 -0 0 1 
1 0 -0 0 1 
1 0 0 1 0 
2 0 0 1 0 -0 1 7.9000000000000004
1 0 223.19999999999999 1 0 
2 0 0 1 0 -0 1 6.9000000000000004
1 0 0 1 0 
2 0 0 1 0 -0 1 6.9000000000000004
1 6.2831853071795862 -0 0 1 
1 0 -0 0 1 
Curves 6
2 0 223.19999999999999 0 0 1 0 0 -0 1 1 0 -0 7.9000000000000004
1 -1.934941942652818e-15 0 7.9000000000000004 0 1 0 
2 0 0 0 0 1 0 0 -0 1 1 0 -0 7.9000000000000004
2 0 223.19999999999999 0 0 1 0 0 -0 1 1 0 -0 6.9000000000000004
2 0 0 0 0 1 0 0 -0 1 1 0 -0 6.9000000000000004
1 -1.6900125828233475e-15 0 6.9000000000000004 0 1 0 
Polygon3D 0
PolygonOnTriangulations 0
Surfaces 6
2 0 0 0 0 1 0 0 -0 1 1 0 -0 7.9000000000000004
1 0 223.19999999999999 0 0 1 0 0 -0 1 1 0 -0 
1 0 0 0 0 1 0 0 -0 1 1 0 -0 
2 0 0 0 0 1 0 0 -0 1 1 0 -0 6.9000000000000004
1 0 223.19999999999999 0 0 1 0 0 -0 1 1 0 -0 
1 0 0 0 0 1 0 0 -0 1 1 0 -0 
Triangulations 0

TShapes 23
Ve
1e-07
-1.93494194265282e-15 223.2 7.9
0 0

0101101
*
Ed
 1e-07 1 1 0
1  1 0 0 6.28318530717959
2  1 1 0 0 6.28318530717959
2  2 2 0 0 6.28318530717959
0

0101000
+23 0 -23 0 *
Ve
1e-07
-1.93494194265282e-15 0 7.9
0 0

0101101
*
Ed
 1e-07 1 1 0
1  2 0 0 223.2
3  3 4CN 1 0 0 223.2
0

0101000
-23 0 +21 0 *
Ed
 1e-07 1 1 0
1  3 0 0 6.28318530717959
2  5 1 0 0 6.28318530717959
2  6 3 0 0 6.28318530717959
0

0101000
+21 0 -21 0 *
Wi

0101100
-22 0 +20 0 +19 0 -20 0 *
Fa
0  1e-07 1 0

0111000
+18 0 *
Wi

0101100
+22 0 *
Ve
1e-07
-1.69001258282335e-15 223.2 6.9
0 0

0101101
*
Ed
 1e-07 1 1 0
1  4 0 0 6.28318530717959
2  7 4 0 0 6.28318530717959
2  8 5 0 0 6.28318530717959
0

0101000
+15 0 -15 0 *
Wi

0101100
-14 0 *
Fa
0  1e-07 2 0

0101000
+16 0 +13 0 *
Wi

0101100
+19 0 *
Ve
1e-07
-1.69001258282335e-15 0 6.9
0 0

0101101
*
Ed
 1e-07 1 1 0
1  5 0 0 6.28318530717959
2  9 4 0 0 6.28318530717959
2  10 6 0 0 6.28318530717959
0

0101000
+10 0 -10 0 *
Wi

0101100
-9 0 *
Fa
0  1e-07 3 0

0101000
+11 0 +8 0 *
Ed
 1e-07 1 1 0
1  6 0 0 223.2
3  11 12CN 4 0 0 223.2
0

0101000
+10 0 -15 0 *
Wi

0101100
-14 0 +6 0 +9 0 -6 0 *
Fa
0  1e-07 4 0

0101000
+5 0 *
Sh

0101100
+17 0 +12 0 -7 0 -4 0 *
So

0100000
+3 0 *
Co

1100000
+2 0 *

+1 1 