DBRep_DrawableShape

CASCADE Topology V1, (c) Matra-Datavision
Locations 1
1
0.227149944097193 -0.964974138523891 -0.13125477087221 1.60328488973099 
0.183720536209893 0.174819108099734 -0.967308143260442 -10.9865355252872 
0.956373184207604 0.19560979378162 0.216995716790265 12.8832624377085 
Curve2ds 12
1 0 226 1 0 
2 0 0 1 0 -0 1 8.25
1 6.2831853071795862 -0 0 1 
1 0 -0 0 1 
1 0 0 1 0 
2 0 0 1 0 -0 1 8.25
1 0 226 1 0 
2 0 0 1 0 -0 1 7.25
1 0 0 1 0 
2 0 0 1 0 -0 1 7.25
1 6.2831853071795862 -0 0 1 
1 0 -0 0 1 
Curves 6
2 0 226 0 0 1 0 0 -0 1 1 0 -0 8.25
1 -2.0206672185931327e-15 0 8.25 0 1 0 
2 0 0 0 0 1 0 0 -0 1 1 0 -0 8.25
2 0 226 0 0 1 0 0 -0 1 1 0 -0 7.25
2 0 0 0 0 1 0 0 -0 1 1 0 -0 7.25
1 -1.7757378587636622e-15 0 7.25 0 1 0 
Polygon3D 0
PolygonOnTriangulations 0
Surfaces 6
2 0 0 0 0 1 0 0 -0 1 1 0 -0 8.25
1 0 226 0 0 1 0 0 -0 1 1 0 -0 
1 0 0 0 0 1 0 0 -0 1 1 0 -0 
2 0 0 0 0 1 0 0 -0 1 1 0 -0 7.25
1 0 226 0 0 1 0 0 -0 1 1 0 -0 
1 0 0 0 0 1 0 0 -0 1 1 0 -0 
Triangulations 0

TShapes 23
Ve
1e-07
-2.02066721859313e-15 226 8.25
0 0

0101101
*
Ed
 1e-07 1 1 0
1  1 0 0 6.28318530717959
2  1 1 0 0 6.28318530717959
2  2 2 0 0 6.28318530717959
0

0101000
+23 0 -23 0 *
Ve
1e-07
-2.02066721859313e-15 0 8.25
0 0

0101101
*
Ed
 1e-07 1 1 0
1  2 0 0 226
3  3 4CN 1 0 0 226
0

0101000
-23 0 +21 0 *
Ed
 1e-07 1 1 0
1  3 0 0 6.28318530717959
2  5 1 0 0 6.28318530717959
2  6 3 0 0 6.28318530717959
0

0101000
+21 0 -21 0 *
Wi

0101100
-22 0 +20 0 +19 0 -20 0 *
Fa
0  1e-07 1 0

0111000
+18 0 *
Wi

0101100
+22 0 *
Ve
1e-07
-1.77573785876366e-15 226 7.25
0 0

0101101
*
Ed
 1e-07 1 1 0
1  4 0 0 6.28318530717959
2  7 4 0 0 6.28318530717959
2  8 5 0 0 6.28318530717959
0

0101000
+15 0 -15 0 *
Wi

0101100
-14 0 *
Fa
0  1e-07 2 0

0101000
+16 0 +13 0 *
Wi

0101100
+19 0 *
Ve
1e-07
-1.77573785876366e-15 0 7.25
0 0

0101101
*
Ed
 1e-07 1 1 0
1  5 0 0 6.28318530717959
2  9 4 0 0 6.28318530717959
2  10 6 0 0 6.28318530717959
0

0101000
+10 0 -10 0 *
Wi

0101100
-9 0 *
Fa
0  1e-07 3 0

0101000
+11 0 +8 0 *
Ed
 1e-07 1 1 0
1  6 0 0 226
3  11 12CN 4 0 0 226
0

0101000
+10 0 -15 0 *
Wi

0101100
-14 0 +6 0 +9 0 -6 0 *
Fa
0  1e-07 4 0

0101000
+5 0 *
Sh

0101100
+17 0 +12 0 -7 0 -4 0 *
So

0100000
+3 0 *
Co

1100000
+2 0 *

+1 1 