DBRep_DrawableShape

CASCADE Topology V1, (c) Matra-Datavision
Locations 1
1
0.33749057307019 0.15987771968617 0.927652536156025 -13.7989501283238 
-0.0256713795544571 0.98666788261204 -0.160709270714681 -6.64048851693572 
-0.940978795383045 0.0304237435208739 0.337095390757053 -6.72180175500059 
Curve2ds 12
1 0 228.80000000000001 1 0 
2 0 0 1 0 -0 1 8.5999999999999996
1 6.2831853071795862 -0 0 1 
1 0 -0 0 1 
1 0 0 1 0 
2 0 0 1 0 -0 1 8.5999999999999996
1 0 228.80000000000001 1 0 
2 0 0 1 0 -0 1 7.5999999999999996
1 0 0 1 0 
2 0 0 1 0 -0 1 7.5999999999999996
1 6.2831853071795862 -0 0 1 
1 0 -0 0 1 
Curves 6
2 0 228.80000000000001 0 0 1 0 0 -0 1 1 0 -0 8.5999999999999996
1 -2.1063924945334474e-15 0 8.5999999999999996 0 1 0 
2 0 0 0 0 1 0 0 -0 1 1 0 -0 8.5999999999999996
2 0 228.80000000000001 0 0 1 0 0 -0 1 1 0 -0 7.5999999999999996
2 0 0 0 0 1 0 0 -0 1 1 0 -0 7.5999999999999996
1 -1.8614631347039767e-15 0 7.5999999999999996 0 1 0 
Polygon3D 0
PolygonOnTriangulations 0
Surfaces 6
2 0 0 0 0 1 0 0 -0 1 1 0 -0 8.5999999999999996
1 0 228.80000000000001 0 0 1 0 0 -0 1 1 0 -0 
1 0 0 0 0 1 0 0 -0 1 1 0 -0 
2 0 0 0 0 1 0 0 -0 1 1 0 -0 7.5999999999999996
1 0 228.80000000000001 0 0 1 0 0 -0 1 1 0 -0 
1 0 0 0 0 1 0 0 -0 1 1 0 -0 
Triangulations 0

TShapes 23
Ve
1e-07
-2.10639249453345e-15 228.8 8.6
0 0

0101101
*
Ed
 1e-07 1 1 0
1  1 0 0 6.28318530717959
2  1 1 0 0 6.28318530717959
2  2 2 0 0 6.28318530717959
0

0101000
+23 0 -23 0 *
Ve
1e-07
-2.10639249453345e-15 0 8.6
0 0

0101101
*
Ed
 1e-07 1 1 0
1  2 0 0 228.8
3  3 4CN 1 0 0 228.8
0

0101000
-23 0 +21 0 *
Ed
 1e-07 1 1 0
1  3 0 0 6.28318530717959
2  5 1 0 0 6.28318530717959
2  6 3 0 0 6.28318530717959
0

0101000
+21 0 -21 0 *
Wi

0101100
-22 0 +20 0 +19 0 -20 0 *
Fa
0  1e-07 1 0

0111000
+18 0 *
Wi

0101100
+22 0 *
Ve
1e-07
-1.86146313470398e-15 228.8 7.6
0 0

0101101
*
Ed
 1e-07 1 1 0
1  4 0 0 6.28318530717959
2  7 4 0 0 6.28318530717959
2  8 5 0 0 6.28318530717959
0

0101000
+15 0 -15 0 *
Wi

0101100
-14 0 *
Fa
0  1e-07 2 0

0101000
+16 0 +13 0 *
Wi

0101100
+19 0 *
Ve
1e-07
-1.86146313470398e-15 0 7.6
0 0

0101101
*
Ed
 1e-07 1 1 0
1  5 0 0 6.28318530717959
2  9 4 0 0 6.28318530717959
2  10 6 0 0 6.28318530717959
0

0101000
+10 0 -10 0 *
Wi

0101100
-9 0 *
Fa
0  1e-07 3 0

0101000
+11 0 +8 0 *
Ed
 1e-07 1 1 0
1  6 0 0 228.8
3  11 12CN 4 0 0 228.8
0

0101000
+10 0 -15 0 *
Wi

0101100
-14 0 +6 0 +9 0 -6 0 *
Fa
0  1e-07 4 0

0101000
+5 0 *
Sh

0101100
+17 0 +12 0 -7 0 -4 0 *
So

0100000
+3 0 *
Co

1100000
+2 0 *

+1 1 