DBRep_DrawableShape

CASCADE Topology V1, (c) Matra-Datavision
Locations 1
1
0.974857921470767 0.222141669198318 0.0174674483391588 17.2305432293707 
-0.182392469901693 0.750470458997379 0.635237811449715 -0.590401151189667 
0.128003983800725 -0.622452543554968 0.772119039496563 7.09962608072221 
Curve2ds 12
1 0 226.80000000000001 1 0 
2 0 0 1 0 -0 1 8.3499999999999996
1 6.2831853071795862 -0 0 1 
1 0 -0 0 1 
1 0 0 1 0 
2 0 0 1 0 -0 1 8.3499999999999996
1 0 226.80000000000001 1 0 
2 0 0 1 0 -0 1 7.3499999999999996
1 0 0 1 0 
2 0 0 1 0 -0 1 7.3499999999999996
1 6.2831853071795862 -0 0 1 
1 0 -0 0 1 
Curves 6
2 0 226.80000000000001 0 0 1 0 0 -0 1 1 0 -0 8.3499999999999996
1 -2.0451601545760798e-15 0 8.3499999999999996 0 1 0 
2 0 0 0 0 1 0 0 -0 1 1 0 -0 8.3499999999999996
2 0 226.80000000000001 0 0 1 0 0 -0 1 1 0 -0 7.3499999999999996
2 0 0 0 0 1 0 0 -0 1 1 0 -0 7.3499999999999996
1 -1.8002307947466091e-15 0 7.3499999999999996 0 1 0 
Polygon3D 0
PolygonOnTriangulations 0
Surfaces 6
2 0 0 0 0 1 0 0 -0 1 1 0 -0 8.3499999999999996
1 0 226.80000000000001 0 0 1 0 0 -0 1 1 0 -0 
1 0 0 0 0 1 0 0 -0 1 1 0 -0 
2 0 0 0 0 1 0 0 -0 1 1 0 -0 7.3499999999999996
1 0 226.80000000000001 0 0 1 0 0 -0 1 1 0 -0 
1 0 0 0 0 1 0 0 -0 1 1 0 -0 
Triangulations 0

TShapes 23
Ve
1e-07
-2.04516015457608e-15 226.8 8.35
0 0

0101101
*
Ed
 1e-07 1 1 0
1  1 0 0 6.28318530717959
2  1 1 0 0 6.28318530717959
2  2 2 0 0 6.28318530717959
0

0101000
+23 0 -23 0 *
Ve
1e-07
-2.04516015457608e-15 0 8.35
0 0

0101101
*
Ed
 1e-07 1 1 0
1  2 0 0 226.8
3  3 4CN 1 0 0 226.8
0

0101000
-23 0 +21 0 *
Ed
 1e-07 1 1 0
1  3 0 0 6.28318530717959
2  5 1 0 0 6.28318530717959
2  6 3 0 0 6.28318530717959
0

0101000
+21 0 -21 0 *
Wi

0101100
-22 0 +20 0 +19 0 -20 0 *
Fa
0  1e-07 1 0

0111000
+18 0 *
Wi

0101100
+22 0 *
Ve
1e-07
-1.80023079474661e-15 226.8 7.35
0 0

0101101
*
Ed
 1e-07 1 1 0
1  4 0 0 6.28318530717959
2  7 4 0 0 6.28318530717959
2  8 5 0 0 6.28318530717959
0

0101000
+15 0 -15 0 *
Wi

0101100
-14 0 *
Fa
0  1e-07 2 0

0101000
+16 0 +13 0 *
Wi

0101100
+19 0 *
Ve
1e-07
-1.80023079474661e-15 0 7.35
0 0

0101101
*
Ed
 1e-07 1 1 0
1  5 0 0 6.28318530717959
2  9 4 0 0 6.28318530717959
2  10 6 0 0 6.28318530717959
0

0101000
+10 0 -10 0 *
Wi

0101100
-9 0 *
Fa
0  1e-07 3 0

0101000
+11 0 +8 0 *
Ed
 1e-07 1 1 0
1  6 0 0 226.8
3  11 12CN 4 0 0 226.8
0

0101000
+10 0 -15 0 *
Wi

0101100
-14 0 +6 0 +9 0 -6 0 *
Fa
0  1e-07 4 0

0101000
+5 0 *
Sh

0101100
+17 0 +12 0 -7 0 -4 0 *
So

0100000
+3 0 *
Co

1100000
+2 0 *

+1 1 