DBRep_DrawableShape

CASCADE Topology V1, (c) Matra-Datavision
Locations 1
1
0.223054773301665 0.794769022127807 0.564436683405103 -5.01558965872072 
-0.973468173011355 0.211933454822555 0.0862781945853667 -17.4234224711372 
-0.0510517800010634 -0.56870591010907 0.820955116657262 3.15850745697115 
Curve2ds 12
1 0 206.40000000000001 1 0 
2 0 0 1 0 -0 1 5.7999999999999998
1 6.2831853071795862 -0 0 1 
1 0 -0 0 1 
1 0 0 1 0 
2 0 0 1 0 -0 1 5.7999999999999998
1 0 206.40000000000001 1 0 
2 0 0 1 0 -0 1 4.7999999999999998
1 0 0 1 0 
2 0 0 1 0 -0 1 4.7999999999999998
1 6.2831853071795862 -0 0 1 
1 0 -0 0 1 
Curves 6
2 0 206.40000000000001 0 0 1 0 0 -0 1 1 0 -0 5.7999999999999998
1 -1.4205902870109297e-15 0 5.7999999999999998 0 1 0 
2 0 0 0 0 1 0 0 -0 1 1 0 -0 5.7999999999999998
2 0 206.40000000000001 0 0 1 0 0 -0 1 1 0 -0 4.7999999999999998
2 0 0 0 0 1 0 0 -0 1 1 0 -0 4.7999999999999998
1 -1.175660927181459e-15 0 4.7999999999999998 0 1 0 
Polygon3D 0
PolygonOnTriangulations 0
Surfaces 6
2 0 0 0 0 1 0 0 -0 1 1 0 -0 5.7999999999999998
1 0 206.40000000000001 0 0 1 0 0 -0 1 1 0 -0 
1 0 0 0 0 1 0 0 -0 1 1 0 -0 
2 0 0 0 0 1 0 0 -0 1 1 0 -0 4.7999999999999998
1 0 206.40000000000001 0 0 1 0 0 -0 1 1 0 -0 
1 0 0 0 0 1 0 0 -0 1 1 0 -0 
Triangulations 0

TShapes 23
Ve
1e-07
-1.42059028701093e-15 206.4 5.8
0 0

0101101
*
Ed
 1e-07 1 1 0
1  1 0 0 6.28318530717959
2  1 1 0 0 6.28318530717959
2  2 2 0 0 6.28318530717959
0

0101000
+23 0 -23 0 *
Ve
1e-07
-1.42059028701093e-15 0 5.8
0 0

0101101
*
Ed
 1e-07 1 1 0
1  2 0 0 206.4
3  3 4CN 1 0 0 206.4
0

0101000
-23 0 +21 0 *
Ed
 1e-07 1 1 0
1  3 0 0 6.28318530717959
2  5 1 0 0 6.28318530717959
2  6 3 0 0 6.28318530717959
0

0101000
+21 0 -21 0 *
Wi

0101100
-22 0 +20 0 +19 0 -20 0 *
Fa
0  1e-07 1 0

0111000
+18 0 *
Wi

0101100
+22 0 *
Ve
1e-07
-1.17566092718146e-15 206.4 4.8
0 0

0101101
*
Ed
 1e-07 1 1 0
1  4 0 0 6.28318530717959
2  7 4 0 0 6.28318530717959
2  8 5 0 0 6.28318530717959
0

0101000
+15 0 -15 0 *
Wi

0101100
-14 0 *
Fa
0  1e-07 2 0

0101000
+16 0 +13 0 *
Wi

0101100
+19 0 *
Ve
1e-07
-1.17566092718146e-15 0 4.8
0 0

0101101
*
Ed
 1e-07 1 1 0
1  5 0 0 6.28318530717959
2  9 4 0 0 6.28318530717959
2  10 6 0 0 6.28318530717959
0

0101000
+10 0 -10 0 *
Wi

0101100
-9 0 *
Fa
0  1e-07 3 0

0101000
+11 0 +8 0 *
Ed
 1e-07 1 1 0
1  6 0 0 206.4
3  11 12CN 4 0 0 206.4
0

0101000
+10 0 -15 0 *
Wi

0101100
-14 0 +6 0 +9 0 -6 0 *
Fa
0  1e-07 4 0

0101000
+5 0 *
Sh

0101100
+17 0 +12 0 -7 0 -4 0 *
So

0100000
+3 0 *
Co

1100000
+2 0 *

+1 1 