DBRep_DrawableShape

CASCADE Topology V1, (c) Matra-Datavision
Locations 1
1
0.0836926636006958 -0.0416864591847901 -0.995619293294408 -1.33727681260752 
0.591927552936209 0.805831992149232 0.0160178807509613 -2.92600412248586 
0.801634149805491 -0.590675071041123 0.0921175896134522 -6.39985629000204 
Curve2ds 12
1 0 228.40000000000001 1 0 
2 0 0 1 0 -0 1 8.5500000000000007
1 6.2831853071795862 -0 0 1 
1 0 -0 0 1 
1 0 0 1 0 
2 0 0 1 0 -0 1 8.5500000000000007
1 0 228.40000000000001 1 0 
2 0 0 1 0 -0 1 7.5500000000000007
1 0 0 1 0 
2 0 0 1 0 -0 1 7.5500000000000007
1 6.2831853071795862 -0 0 1 
1 0 -0 0 1 
Curves 6
2 0 228.40000000000001 0 0 1 0 0 -0 1 1 0 -0 8.5500000000000007
1 -2.094146026541974e-15 0 8.5500000000000007 0 1 0 
2 0 0 0 0 1 0 0 -0 1 1 0 -0 8.5500000000000007
2 0 228.40000000000001 0 0 1 0 0 -0 1 1 0 -0 7.5500000000000007
2 0 0 0 0 1 0 0 -0 1 1 0 -0 7.5500000000000007
1 -1.8492166667125033e-15 0 7.5500000000000007 0 1 0 
Polygon3D 0
PolygonOnTriangulations 0
Surfaces 6
2 0 0 0 0 1 0 0 -0 1 1 0 -0 8.5500000000000007
1 0 228.40000000000001 0 0 1 0 0 -0 1 1 0 -0 
1 0 0 0 0 1 0 0 -0 1 1 0 -0 
2 0 0 0 0 1 0 0 -0 1 1 0 -0 7.5500000000000007
1 0 228.40000000000001 0 0 1 0 0 -0 1 1 0 -0 
1 0 0 0 0 1 0 0 -0 1 1 0 -0 
Triangulations 0

TShapes 23
Ve
1e-07
-2.09414602654197e-15 228.4 8.55
0 0

0101101
*
Ed
 1e-07 1 1 0
1  1 0 0 6.28318530717959
2  1 1 0 0 6.28318530717959
2  2 2 0 0 6.28318530717959
0

0101000
+23 0 -23 0 *
Ve
1e-07
-2.09414602654197e-15 0 8.55
0 0

0101101
*
Ed
 1e-07 1 1 0
1  2 0 0 228.4
3  3 4CN 1 0 0 228.4
0

0101000
-23 0 +21 0 *
Ed
 1e-07 1 1 0
1  3 0 0 6.28318530717959
2  5 1 0 0 6.28318530717959
2  6 3 0 0 6.28318530717959
0

0101000
+21 0 -21 0 *
Wi

0101100
-22 0 +20 0 +19 0 -20 0 *
Fa
0  1e-07 1 0

0111000
+18 0 *
Wi

0101100
+22 0 *
Ve
1e-07
-1.8492166667125e-15 228.4 7.55
0 0

0101101
*
Ed
 1e-07 1 1 0
1  4 0 0 6.28318530717959
2  7 4 0 0 6.28318530717959
2  8 5 0 0 6.28318530717959
0

0101000
+15 0 -15 0 *
Wi

0101100
-14 0 *
Fa
0  1e-07 2 0

0101000
+16 0 +13 0 *
Wi

0101100
+19 0 *
Ve
1e-07
-1.8492166667125e-15 0 7.55
0 0

0101101
*
Ed
 1e-07 1 1 0
1  5 0 0 6.28318530717959
2  9 4 0 0 6.28318530717959
2  10 6 0 0 6.28318530717959
0

0101000
+10 0 -10 0 *
Wi

0101100
-9 0 *
Fa
0  1e-07 3 0

0101000
+11 0 +8 0 *
Ed
 1e-07 1 1 0
1  6 0 0 228.4
3  11 12CN 4 0 0 228.4
0

0101000
+10 0 -15 0 *
Wi

0101100
-14 0 +6 0 +9 0 -6 0 *
Fa
0  1e-07 4 0

0101000
+5 0 *
Sh

0101100
+17 0 +12 0 -7 0 -4 0 *
So

0100000
+3 0 *
Co

1100000
+2 0 *

+1 1 