DBRep_DrawableShape

CASCADE Topology V1, (c) Matra-Datavision
Locations 0
Curve2ds 5
1 0 20.983862847435883 1 0 
2 0 0 1 0 -0 1 6.3499999999999996
1 6.2831853071795862 -0 0 1 
1 0 -0 0 1 
1 0 0 1 0 
Curves 2
2 0 0 0 0 0 -1 -1 0 -0 0 1 0 6.3499999999999996
1 0 0 20 -0.30261349143234301 -7.4118928732284777e-17 -0.9531133588420253 
Polygon3D 0
PolygonOnTriangulations 0
Surfaces 2
3 0 0 20 0 0 -1 -1 0 -0 0 1 0 0
0.30743352214948216
1 0 0 0 0 0 -1 -1 0 -0 0 1 0 
Triangulations 0

TShapes 11
Ve
1e-07
-6.35 -1.55530143491714e-15 0
0 0

0101101
*
Ed
 1e-07 1 1 0
1  1 0 0 6.28318530717959
2  1 1 0 0 6.28318530717959
2  2 2 0 0 6.28318530717959
0

0101000
+11 0 -11 0 *
Ve
1e-07
0 0 20
0 0

0101101
*
Ed
 1e-07 1 1 0
1  2 0 0 20.9838628474359
3  3 4CN 1 0 0 20.9838628474359
0

0101000
-11 0 +9 0 *
Ed
 1e-07 1 1 1
2  5 1 0 0 6.28318530717959
0

0101000
+9 0 -9 0 *
Wi

0101100
-10 0 +8 0 +7 0 -8 0 *
Fa
0  1e-07 1 0

0101000
+6 0 *
Wi

0101100
+10 0 *
Fa
0  1e-07 2 0

0101000
+4 0 *
Sh

0101100
+5 0 +3 0 *
So

1100000
+2 0 *

+1 0 