DBRep_DrawableShape

CASCADE Topology V1, (c) Matra-Datavision
Locations 0
Curve2ds 5
1 0 21.124393482417432 1 0 
2 0 0 1 0 -0 1 6.8000000000000007
1 6.2831853071795862 -0 0 1 
1 0 -0 0 1 
1 0 0 1 0 
Curves 2
2 0 0 -3.5527136788005009e-15 0 0 -1 -1 0 -0 0 1 0 6.8000000000000007
1 0 0 20 -0.32190273323870233 -7.8843430379512219e-17 -0.94677274481971274 
Polygon3D 0
PolygonOnTriangulations 0
Surfaces 2
3 0 0 20 0 0 -1 -1 0 -0 0 1 0 0
0.32773850678055544
1 0 0 -3.5527136788005009e-15 0 0 -1 -1 0 -0 0 1 0 
Triangulations 0

TShapes 11
Ve
1e-07
-6.8 -1.6655196468404e-15 -3.5527136788005e-15
0 0

0101101
*
Ed
 1e-07 1 1 0
1  1 0 0 6.28318530717959
2  1 1 0 0 6.28318530717959
2  2 2 0 0 6.28318530717959
0

0101000
+11 0 -11 0 *
Ve
1e-07
0 0 20
0 0

0101101
*
Ed
 1e-07 1 1 0
1  2 0 0 21.1243934824174
3  3 4CN 1 0 0 21.1243934824174
0

0101000
-11 0 +9 0 *
Ed
 1e-07 1 1 1
2  5 1 0 0 6.28318530717959
0

0101000
+9 0 -9 0 *
Wi

0101100
-10 0 +8 0 +7 0 -8 0 *
Fa
0  1e-07 1 0

0101000
+6 0 *
Wi

0101100
+10 0 *
Fa
0  1e-07 2 0

0101000
+4 0 *
Sh

0101100
+5 0 +3 0 *
So

1100000
+2 0 *

+1 0 