DBRep_DrawableShape

CASCADE Topology V1, (c) Matra-Datavision
Locations 0
Curve2ds 232
1 0 -0.375 1 0 
1 6.2831853071795862 -1.9445436482630054 -1 0 
1 3.1415926535897931 0 0 1 
1 3.1415926535897931 0 0 1 
1 6.2831853071795862 0.37499999999999734 -1 5.6543194337129189e-16 
1 0 0 0 -1 
1 6.2831853071795862 0 0 -1 
1 6.2831853071795862 1.9445436482630054 -1 1.4135798584282297e-16 
1 3.1415926535897931 -4.4408920985006262e-16 0 -1 
1 3.1415926535897931 -4.4408920985006262e-16 0 -1 
1 6.2831853071795862 2.2204460492503131e-16 0 1 
1 0 2.2204460492503131e-16 0 1 
1 0 -0.375 1 0 
1 6.2831853071795862 -1.9445436482630054 -1 0 
1 3.1415926535897931 0 0 1 
1 3.1415926535897931 0 0 1 
1 6.2831853071795862 0.37499999999999734 -1 5.6543194337129189e-16 
1 0 0 0 -1 
1 6.2831853071795862 0 0 -1 
1 6.2831853071795862 1.9445436482630054 -1 1.4135798584282297e-16 
1 3.1415926535897931 -4.4408920985006262e-16 0 -1 
1 3.1415926535897931 -4.4408920985006262e-16 0 -1 
1 6.2831853071795862 2.2204460492503131e-16 0 1 
1 0 2.2204460492503131e-16 0 1 
1 0 -0.375 1 0 
1 6.2831853071795862 -1.9445436482630054 -1 0 
1 3.1415926535897931 0 0 1 
1 3.1415926535897931 0 0 1 
1 6.2831853071795862 0.37499999999999734 -1 5.6543194337129189e-16 
1 0 0 0 -1 
1 6.2831853071795862 0 0 -1 
1 6.2831853071795862 1.9445436482630054 -1 1.4135798584282297e-16 
1 3.1415926535897931 -4.4408920985006262e-16 0 -1 
1 3.1415926535897931 -4.4408920985006262e-16 0 -1 
1 6.2831853071795862 2.2204460492503131e-16 0 1 
1 0 2.2204460492503131e-16 0 1 
1 6.2831853071795862 -15.5 -1 0 
1 3.1415926535897931 0 0 1 
1 3.1415926535897931 0 0 1 
1 6.2831853071795862 0 -1 0 
1 0 0 0 -1 
1 6.2831853071795862 0 0 -1 
1 6.2831853071795862 17.5 -1 0 
1 3.1415926535897931 25.25 0 1 
1 3.1415926535897931 25.25 0 1 
1 6.2831853071795862 33 -1 0 
1 0 25.25 0 -1 
1 6.2831853071795862 25.25 0 -1 
1 3.1415926535897931 25.25 0 -1 
1 3.1415926535897931 25.25 0 -1 
1 0 17.5 1 0 
1 3.4462853076051903 0 0 1 
1 6.2831853071795862 33 -1 0 
1 0 25.25 0 1 
1 6.2831853071795862 25.25 0 1 
1 0 17.5 1 0 
1 6.2831853071795862 33 -1 0 
1 3.1415926535897931 58.25 0 -1 
1 3.1415926535897931 58.25 0 -1 
1 0 50.5 1 0 
1 3.4462853076051903 0 0 1 
1 6.2831853071795862 66 -1 0 
1 0 58.25 0 1 
1 6.2831853071795862 58.25 0 1 
1 0 50.5 1 0 
1 6.2831853071795862 66 -1 0 
1 6.2831853071795862 17.5 -1 0 
1 0 50.5 1 0 
1 6.2831853071795862 66 -1 0 
1 4.7123889803846897 0 0 1 
1 6.2831853071795862 -15.5 -1 0 
1 0 17.5 1 0 
1 6.2831853071795862 33 -1 0 
1 4.7123889803846897 0 0 1 
1 6.2831853071795862 33 -1 0 
1 6.2831853071795862 0 -1 0 
1 6.2831853071795862 1.9445436482630063 -1 -1.4135798584282297e-16 
1 6.2831853071795862 1.9445436482630063 -1 -1.4135798584282297e-16 
1 6.2831853071795862 1.9445436482630063 -1 -1.4135798584282297e-16 
1 6.2831853071795862 -1.9445436482630054 -1 0 
1 0 -0.375 1 0 
1 6.2831853071795862 0.37500000000000089 -1 -5.6543194337129189e-16 
1 6.2831853071795862 -1.9445436482630054 -1 0 
1 0 -0.375 1 0 
1 6.2831853071795862 0.37500000000000089 -1 -5.6543194337129189e-16 
1 6.2831853071795862 -1.9445436482630054 -1 0 
1 0 -0.375 1 0 
1 6.2831853071795862 0.37500000000000089 -1 -5.6543194337129189e-16 
1 0 -0.375 1 0 
1 6.2831853071795862 -1.9445436482630047 -1 -2.1203697876423444e-16 
1 3.1415926535897931 0 0 1 
1 3.1415926535897931 0 0 1 
1 6.2831853071795862 0.37499999999999734 -1 5.6543194337129189e-16 
1 0 0 0 -1 
1 6.2831853071795862 0 0 -1 
1 6.2831853071795862 1.9445436482630061 -1 -7.0678992921411498e-17 
1 3.1415926535897931 -4.4408920985006262e-16 -1.1418854244972913e-16 -1 
1 3.1415926535897931 -4.4408920985006262e-16 -1.1418854244972913e-16 -1 
1 6.2831853071795862 8.8817841970012523e-16 0 1 
1 0 8.8817841970012523e-16 0 1 
1 0 -0.375 1 0 
1 6.2831853071795862 -1.9445436482630054 -1 0 
1 3.1415926535897931 0 0 1 
1 3.1415926535897931 0 0 1 
1 6.2831853071795862 0.37499999999999734 -1 5.6543194337129189e-16 
1 0 0 0 -1 
1 6.2831853071795862 0 0 -1 
1 6.2831853071795862 1.9445436482630054 -1 1.4135798584282297e-16 
1 3.1415926535897931 -4.4408920985006262e-16 0 -1 
1 3.1415926535897931 -4.4408920985006262e-16 0 -1 
1 6.2831853071795862 2.2204460492503131e-16 0 1 
1 0 2.2204460492503131e-16 0 1 
1 0 -0.375 1 0 
1 6.2831853071795862 -1.9445436482630059 -1 1.4135798584282297e-16 
1 3.1415926535897931 0 0 1 
1 3.1415926535897931 0 0 1 
1 6.2831853071795862 0.37499999999999734 -1 5.6543194337129189e-16 
1 0 0 0 -1 
1 6.2831853071795862 0 0 -1 
1 6.2831853071795862 1.944543648263005 -1 2.8271597168564599e-16 
1 3.1415926535897931 -4.4408920985006262e-16 -1.1418854244972913e-16 -1 
1 3.1415926535897931 -4.4408920985006262e-16 -1.1418854244972913e-16 -1 
1 6.2831853071795862 -2.2204460492503131e-16 0 1 
1 0 -2.2204460492503131e-16 0 1 
1 3.1415926535897931 57.75 0 -1 
1 3.1415926535897931 57.75 0 -1 
1 0 49.5 1 0 
1 3.4462853076051907 0 0 1 
1 6.2831853071795862 66 -1 0 
1 0 57.75 0 1 
1 6.2831853071795862 57.75 0 1 
1 0 49.5 1 0 
1 6.2831853071795862 66 -1 0 
1 0 -16.5 1 0 
1 3.1415926535897931 -8.75 0 1 
1 3.1415926535897931 -8.75 0 1 
1 0 -1.0000000000000002 1 1.7669748230352872e-16 
1 0 -8.75 0 -1 
1 6.2831853071795862 -8.75 0 -1 
1 0 16.5 1 0 
1 3.1415926535897931 24.75 0 1 
1 3.1415926535897931 24.75 0 1 
1 6.2831853071795862 33 -1 0 
1 0 24.75 0 -1 
1 6.2831853071795862 24.75 0 -1 
1 3.1415926535897931 24.25 0 -1 
1 3.1415926535897931 24.25 0 -1 
1 0 16.5 1 0 
1 3.4462853076051907 0 0 1 
1 6.2831853071795862 32 -1 0 
1 0 24.25 0 1 
1 6.2831853071795862 24.25 0 1 
1 0 16.5 1 0 
1 6.2831853071795862 32 -1 0 
1 6.2831853071795862 32 -1 0 
1 0 -0.99999999999999911 1 -1.7669748230352872e-16 
1 4.7123889803846897 0 0 1 
1 0 16.5 1 0 
1 6.2831853071795862 33 -1 0 
1 0 16.5 1 0 
1 0 -16.5 1 0 
1 0 49.5 1 0 
1 6.2831853071795862 1.9445436482630056 -1 7.0678992921411473e-17 
1 6.2831853071795862 1.9445436482630063 -1 -1.4135798584282297e-16 
1 6.2831853071795862 1.9445436482630067 -1 -2.8271597168564589e-16 
1 6.2831853071795862 66 -1 0 
1 4.7123889803846897 0 0 1 
1 6.2831853071795862 -1.944543648263005 -1 -1.4135798584282297e-16 
1 0 -0.375 1 0 
1 6.2831853071795862 0.37500000000000089 -1 -5.6543194337129189e-16 
1 6.2831853071795862 -1.9445436482630054 -1 0 
1 0 -0.375 1 0 
1 6.2831853071795862 0.37500000000000089 -1 -5.6543194337129189e-16 
1 6.2831853071795862 -1.9445436482630061 -1 2.1203697876423444e-16 
1 0 -0.375 1 0 
1 6.2831853071795862 0.37500000000000089 -1 -5.6543194337129189e-16 
1 0 0 0 1 
1 6.2831853071795862 0 0 1 
1 0 -33.420000000000002 1 0 
1 1.5707963267948966 0.28379410920832893 -1 0 
1 0 -33.420000000000002 1 0 
1 7.8539816339744828 0.28379410920832893 -1 0 
1 3.1415926535897931 0 0 -1 
1 3.1415926535897931 0 0 -1 
1 6.2831853071795862 33.420000000000002 -1 0 
1 7.8539816339744828 0.28379410920832893 -1 0 
1 6.2831853071795862 33.420000000000002 -1 0 
1 7.8539816339744828 0.28379410920832893 -1 0 
1 3.1415926535897931 1.6653345369377348e-16 0 1 
1 3.1415926535897931 1.6653345369377348e-16 0 1 
1 7.8539816339744828 0.28379410920832893 -1 0 
1 6.2831853071795862 33.420000000000002 -1 0 
1 6.2831853071795862 6.2831853071795862 0 -1 
1 0 6.2831853071795862 0 -1 
1 1.5707963267948966 1.5707963267948966 1 0 
1 0 -0.625 1 0 
1 1.5707963267948966 1.5707963267948966 1 0 
1 0 -0.625 1 0 
1 6.2831853071795862 0 0 -1 
1 0 0 0 -1 
1 0 0.034999999999996589 1 0 
1 3.1415926535897931 0 0 1 
1 3.1415926535897931 0 0 1 
1 0 -0.625 1 0 
1 -4.7123889803846897 1.5707963267948966 1 0 
1 3.1415926535897931 1.1102230246251565e-16 0 1 
1 3.1415926535897931 1.1102230246251565e-16 0 1 
1 7.8539816339744828 0.28379410920832893 -1 0 
1 0 -33.420000000000002 1 0 
1 6.2831853071795862 6.2831853071795862 0 -1 
1 0 6.2831853071795862 0 -1 
1 1.5707963267948966 1.5707963267948966 1 0 
1 0 -0.625 1 0 
1 1.5707963267948966 1.5707963267948966 1 0 
1 0 -0.625 1 0 
1 6.2831853071795862 0 0 -1 
1 0 0 0 -1 
1 0 0.034999999999996589 1 0 
1 3.1415926535897931 0 0 1 
1 3.1415926535897931 0 0 1 
1 0 -0.625 1 0 
1 -4.7123889803846897 1.5707963267948966 1 0 
1 0 -0.625 1 0 
1 1.5707963267948966 1.5707963267948966 1 0 
1 0 0.034999999999996589 1 0 
1 7.8539816339744828 0.28379410920832893 -1 0 
1 0 -33.420000000000002 1 0 
1 0 -0.625 1 0 
1 1.5707963267948966 1.5707963267948966 1 0 
1 0 0.034999999999996589 1 0 
1 1.5707963267948966 0.28379410920832893 -1 0 
1 6.2831853071795862 33.420000000000002 -1 0 
Curves 201
2 -10.5 -4.25 -25 6.12303176911189e-17 -1 0 1 6.12303176911189e-17 0 -0 0 1 2.75
1 -13.25 -4.625 -25 6.12303176911189e-17 -1 0 
2 -10.5 -5 -25 3.4540271877227098e-16 1 0 1 -3.4540271877227098e-16 0 0 0 -1 2.75
1 -7.75 -4.625 -25 -6.12303176911189e-17 1 -0 
2 -10.5 -1.5 -25 0 -1 0 1 0 0 -0 0 1 5.5
1 -14.625 -2.875 -25 0.70710678118654802 -0.70710678118654702 -0 
1 -6.375 -2.875 -25 0.70710678118654802 0.70710678118654702 0 
2 -10.5 -4.25 0 6.12303176911189e-17 -1 0 1 6.12303176911189e-17 0 -0 0 1 2.75
1 -13.25 -4.625 3.3676674730115399e-16 6.12303176911189e-17 -1 0 
2 -10.5 -5 0 3.4540271877227098e-16 1 0 1 -3.4540271877227098e-16 0 0 0 -1 2.75
1 -7.75 -4.625 -3.3676674730115399e-16 -6.12303176911189e-17 1 0 
2 -10.5 -1.5 0 0 -1 0 1 0 0 -0 0 1 5.5
1 -14.625 -2.875 5.0515012095173101e-16 0.70710678118654802 -0.70710678118654702 -8.6592745707193603e-17 
1 -6.375 -2.875 -5.0515012095173101e-16 0.70710678118654802 0.70710678118654702 -8.6592745707193603e-17 
2 -10.5 -4.25 25 6.12303176911189e-17 -1 0 1 6.12303176911189e-17 0 -0 0 1 2.75
1 -13.25 -4.625 25 6.12303176911189e-17 -1 0 
2 -10.5 -5 25 3.4540271877227098e-16 1 0 1 -3.4540271877227098e-16 0 0 0 -1 2.75
1 -7.75 -4.625 25 -6.12303176911189e-17 1 -0 
2 -10.5 -1.5 25 0 -1 0 1 0 0 -0 0 1 5.5
1 -14.625 -2.875 25 0.70710678118654802 -0.70710678118654702 -0 
1 -6.375 -2.875 25 0.70710678118654802 0.70710678118654702 0 
2 0 0 -15.5 0 0 -1 1 0 0 0 -1 0 2.5
1 -2.5 3.0615158845559402e-16 0 -0 0 1 
2 0 0 0 0 0 -1 1 0 0 0 -1 0 2.5
1 2.5 -3.0615158845559402e-16 0 -0 0 -1 
2 0 0 17.5 0 0 -1 1 0 0 0 -1 0 2.5
1 -2.5 3.0615158845559402e-16 25.25 -0 0 1 
2 0 0 33 0 0 -1 1 0 0 0 -1 0 2.5
1 2.5 -3.0615158845559402e-16 25.25 -0 0 -1 
1 -5 7.22517748755203e-16 -7.75 -0 -0 -1 
2 0 1.10214571844014e-16 -15.5 0 0 1 1 0 -0 -0 1 0 5
1 -4.7696960070847298 -1.5 -33 0 0 1 
2 0 1.10214571844014e-16 0 0 0 -1 1 0 0 0 -1 0 5
1 5 -5.0208860506717495e-16 -7.75 0 0 1 
2 0 1.10214571844014e-16 -15.5 0 0 1 1 0 -0 -0 1 0 5
2 0 1.10214571844014e-16 0 0 0 -1 1 0 0 0 -1 0 5
1 -5 7.22517748755203e-16 25.25 -0 -0 -1 
2 0 1.10214571844014e-16 17.5 0 0 1 1 0 -0 -0 1 0 5
1 -4.7696960070847298 -1.5 -33 0 0 1 
2 0 1.10214571844014e-16 33 0 0 -1 1 0 0 0 -1 0 5
1 5 -5.0208860506717495e-16 25.25 0 0 1 
2 0 1.10214571844014e-16 17.5 0 0 1 1 0 -0 -0 1 0 5
2 0 1.10214571844014e-16 33 0 0 -1 1 0 0 0 -1 0 5
2 0 0 17.5 0 0 -1 1 0 0 0 -1 0 2.5
1 -5.6924240017711796 -1.5 17.5 -1 0 0 
2 0 1.10214571844014e-16 17.5 0 0 1 1 0 -0 -0 1 0 5
1 -4.5 -5 17.5 1 -3.4540271877227098e-16 0 
1 -5 0 17.5 0 -1 0 
2 0 1.10214571844014e-16 33 0 0 -1 1 0 0 0 -1 0 5
1 9.7725075405400601e-16 -5 -33 0 0 1 
2 0 0 -15.5 0 0 -1 1 0 0 0 -1 0 2.5
1 -5.6924240017711796 -1.5 -15.5 -1 0 0 
2 0 1.10214571844014e-16 -15.5 0 0 1 1 0 -0 -0 1 0 5
1 -4.5 -5 -15.5 1 -3.4540271877227098e-16 0 
1 -5 0 -15.5 0 -1 0 
2 0 1.10214571844014e-16 0 0 0 -1 1 0 0 0 -1 0 5
1 9.7725075405400601e-16 -5 -33 0 0 1 
2 0 0 33 0 0 -1 1 0 0 0 -1 0 2.5
2 0 0 0 0 0 -1 1 0 0 0 -1 0 2.5
1 -5 -1.5 -8 0 0 -1 
1 -5 -5 -8 -0 0 1 
1 -5 0 0 0 1 0 
1 -5.6924240017711796 -1.5 0 1 0 0 
1 -4.5 -5 0 -1 3.4540271877227098e-16 0 
2 -10.5 -1.5 0 0 -1 0 1 0 0 -0 0 1 5.5
2 -10.5 -1.5 -25 0 -1 0 1 0 0 -0 0 1 5.5
1 -5 -1.5 -24.5 0 0 -1 
1 -5 -1.5 -28.875 0 0 -1 
1 -18 -1.5 -33 1 0 0 
1 -18 -1.5 -33 0 0 1 
1 -18 -1.5 33 1 0 0 
2 -10.5 -1.5 25 0 -1 0 1 0 0 -0 0 1 5.5
1 -5 -5 -24.5 -0 0 1 
1 -5 -0.89782684254364697 -33 0 -1 0 
2 -10.5 -4.25 25 6.12303176911189e-17 -1 0 1 6.12303176911189e-17 0 -0 0 1 2.75
2 -10.5 -5 25 3.4540271877227098e-16 1 0 1 -3.4540271877227098e-16 0 0 0 -1 2.75
2 -10.5 -4.25 0 6.12303176911189e-17 -1 0 1 6.12303176911189e-17 0 -0 0 1 2.75
2 -10.5 -5 0 3.4540271877227098e-16 1 0 1 -3.4540271877227098e-16 0 0 0 -1 2.75
2 -10.5 -4.25 -25 6.12303176911189e-17 -1 0 1 6.12303176911189e-17 0 -0 0 1 2.75
2 -10.5 -5 -25 3.4540271877227098e-16 1 0 1 -3.4540271877227098e-16 0 0 0 -1 2.75
1 -18 -5 33 0 1 0 
1 -18 -5 -33 0 1 0 
1 -18 -5 -33 0 0 1 
1 9.7725075405400601e-16 -5 33 -1 3.4540271877227098e-16 0 
1 9.7725075405400601e-16 -5 -33 -1 3.4540271877227098e-16 0 
2 10.5 -4.25 25 -6.12303176911189e-17 -1 -7.4983036091106899e-33 -1 6.12303176911189e-17 -1.22460635382238e-16 1.22460635382238e-16 -1.7789921910373654e-47 -1 2.75
1 13.25 -4.625 25 -6.12303176911189e-17 -1 -7.4983036091106899e-33 
2 10.5 -5 25 -3.4540271877227098e-16 1 -4.22982364036047e-32 -1 -3.4540271877227098e-16 -1.22460635382238e-16 -1.22460635382238e-16 -6.56858655152258e-47 1 2.75
1 7.75 -4.625 25 6.12303176911189e-17 1 7.4983036091106899e-33 
2 10.5 -1.5 25 0 -1 -0 -1 0 -1.22460635382238e-16 1.22460635382238e-16 0 -1 5.5
1 14.625 -2.875 25 -0.70710678118654802 -0.70710678118654702 -5.3021013293977297e-33 
1 6.375 -2.875 25 -0.70710678118654802 0.70710678118654702 5.3021013293977297e-33 
2 10.5 -4.25 1.2858366715135001e-15 -6.12303176911189e-17 -1 -7.4983036091106899e-33 -1 6.12303176911189e-17 -1.22460635382238e-16 1.22460635382238e-16 -1.7789921910373654e-47 -1 2.75
1 13.25 -4.625 1.2858366715135001e-15 -6.12303176911189e-17 -1 -7.4983036091106899e-33 
2 10.5 -5 1.2858366715135001e-15 -3.4540271877227098e-16 1 -4.22982364036047e-32 -1 -3.4540271877227098e-16 -1.22460635382238e-16 -1.22460635382238e-16 -6.56858655152258e-47 1 2.75
1 7.75 -4.625 1.2858366715135001e-15 6.12303176911189e-17 1 7.4983036091106899e-33 
2 10.5 -1.5 1.2858366715135001e-15 0 -1 -0 -1 0 -1.22460635382238e-16 1.22460635382238e-16 0 -1 5.5
1 14.625 -2.875 1.2858366715135001e-15 -0.70710678118654802 -0.70710678118654702 -5.3021013293977297e-33 
1 6.375 -2.875 1.2858366715135001e-15 -0.70710678118654802 0.70710678118654702 5.3021013293977297e-33 
2 10.5 -4.25 -25 -6.12303176911189e-17 -1 -7.4983036091106899e-33 -1 6.12303176911189e-17 -1.22460635382238e-16 1.22460635382238e-16 -1.7789921910373654e-47 -1 2.75
1 13.25 -4.625 -25 -6.12303176911189e-17 -1 -7.4983036091106899e-33 
2 10.5 -5 -25 -3.4540271877227098e-16 1 -4.22982364036047e-32 -1 -3.4540271877227098e-16 -1.22460635382238e-16 -1.22460635382238e-16 -6.56858655152258e-47 1 2.75
1 7.75 -4.625 -25 6.12303176911189e-17 1 7.4983036091106899e-33 
2 10.5 -1.5 -25 0 -1 -0 -1 0 -1.22460635382238e-16 1.22460635382238e-16 0 -1 5.5
1 14.625 -2.875 -25 -0.70710678118654802 -0.70710678118654702 -5.3021013293977297e-33 
1 6.375 -2.875 -25 -0.70710678118654802 0.70710678118654702 5.3021013293977297e-33 
1 5 7.22517748755203e-16 -24.75 -1.22460635382238e-16 -0 1 
2 2.0206004838069201e-15 1.10214571844014e-16 -16.5 1.22460635382238e-16 0 -1 -1 0 -1.22460635382238e-16 0 1 0 5
1 4.7696960070847201 -1.5 33 1.22460635382238e-16 0 -1 
2 4.0412009676138402e-15 1.10214571844014e-16 -33 -1.22460635382238e-16 -0 1 -1 0 -1.22460635382238e-16 0 -1 -0 5
1 -5 -5.0208860506717495e-16 -24.75 1.22460635382238e-16 0 -1 
2 2.0206004838069201e-15 1.10214571844014e-16 -16.5 1.22460635382238e-16 0 -1 -1 0 -1.22460635382238e-16 0 1 0 5
2 4.0412009676138402e-15 1.10214571844014e-16 -33 -1.22460635382238e-16 -0 1 -1 0 -1.22460635382238e-16 0 -1 -0 5
2 -2.0206004838069201e-15 0 16.5 1.22460635382238e-16 0 -1 -1 0 -1.22460635382238e-16 0 1 0 2.5
1 2.5 3.0615158845559402e-16 8.75 1.22460635382238e-16 0 -1 
2 -1.22460635382238e-16 0 1 -0 0 -1 -1 0 0 0 1 0 2.5
1 -2.5 -3.0615158845559402e-16 8.75 -1.22460635382238e-16 0 1 
2 2.0206004838069201e-15 0 -16.5 1.22460635382238e-16 0 -1 -1 0 -1.22460635382238e-16 0 1 0 2.5
1 2.5 3.0615158845559402e-16 -24.75 1.22460635382238e-16 0 -1 
2 4.0412009676138402e-15 0 -33 -1.22460635382238e-16 -0 1 -1 0 -1.22460635382238e-16 0 -1 -0 2.5
1 -2.5 -3.0615158845559402e-16 -24.75 -1.22460635382238e-16 0 1 
1 5 7.22517748755203e-16 8.75 -1.22460635382238e-16 -0 1 
2 -2.0206004838069201e-15 1.10214571844014e-16 16.5 1.22460635382238e-16 0 -1 -1 0 -1.22460635382238e-16 0 1 0 5
1 4.7696960070847201 -1.5 33 1.22460635382238e-16 0 -1 
2 -1.22460635382238e-16 1.10214571844014e-16 1 0 0 1 -1 0 0 0 -1 0 5
1 -5 -5.0208860506717495e-16 8.75 1.22460635382238e-16 0 -1 
2 -2.0206004838069201e-15 1.10214571844014e-16 16.5 1.22460635382238e-16 0 -1 -1 0 -1.22460635382238e-16 0 1 0 5
2 -1.22460635382238e-16 1.10214571844014e-16 1 0 0 1 -1 0 0 0 -1 0 5
1 5.6924240017711796 -1.5 1 -1 0 0 
1 5 0 1 0 1 0 
1 4.5 -5 1 1 3.4540271877227098e-16 -0 
2 -1.22460635382238e-16 1.10214571844014e-16 1 0 0 1 -1 0 0 0 -1 0 5
2 -1.22460635382238e-16 0 1 -0 0 -1 -1 0 0 0 1 0 2.5
1 -5.0184517216678498e-15 -5 33 1.22460635382238e-16 0 -1 
2 -2.0206004838069201e-15 1.10214571844014e-16 16.5 1.22460635382238e-16 0 -1 -1 0 -1.22460635382238e-16 0 1 0 5
2 4.0412009676138402e-15 0 -33 -1.22460635382238e-16 -0 1 -1 0 -1.22460635382238e-16 0 -1 -0 2.5
2 2.0206004838069201e-15 0 -16.5 1.22460635382238e-16 0 -1 -1 0 -1.22460635382238e-16 0 1 0 2.5
2 -2.0206004838069201e-15 0 16.5 1.22460635382238e-16 0 -1 -1 0 -1.22460635382238e-16 0 1 0 2.5
2 2.0206004838069201e-15 1.10214571844014e-16 -16.5 1.22460635382238e-16 0 -1 -1 0 -1.22460635382238e-16 0 1 0 5
1 4.5 -5 -16.5 -1 -3.4540271877227098e-16 -1.22460635382238e-16 
1 5 0 -16.5 0 -1 -0 
1 5.6924240017711796 -1.5 -16.5 1 0 1.22460635382238e-16 
1 5 -1.5 12.375 -1.22460635382238e-16 0 1 
1 5 -5 16.75 -0 -4.22982364036047e-32 -1 
1 5 -1.5 16.75 0 -0 1 
2 10.5 -1.5 25 0 -1 -0 -1 0 -1.22460635382238e-16 1.22460635382238e-16 0 -1 5.5
2 10.5 -1.5 1.2858366715135001e-15 0 -1 -0 -1 0 -1.22460635382238e-16 1.22460635382238e-16 0 -1 5.5
1 5 -1.5 28.875 -1.22460635382238e-16 0 1 
1 5 -1.5 28.875 -1.22460635382238e-16 0 1 
1 18 -1.5 33 -1 0 -1.22460635382238e-16 
1 18 -1.5 33 1.22460635382238e-16 0 -1 
1 18 -1.5 -33 -1 0 -1.22460635382238e-16 
1 5.6924240017711796 -1.5 16.5 1 0 1.22460635382238e-16 
2 10.5 -1.5 -25 0 -1 -0 -1 0 -1.22460635382238e-16 1.22460635382238e-16 0 -1 5.5
2 4.0412009676138402e-15 1.10214571844014e-16 -33 -1.22460635382238e-16 -0 1 -1 0 -1.22460635382238e-16 0 -1 -0 5
1 -5.0184517216678498e-15 -5 33 1.22460635382238e-16 0 -1 
1 5 0 16.5 0 -1 -0 
1 5 -5 28.875 1.22460635382238e-16 0 -1 
1 5 -0.89782684254364697 33 0 -1 -0 
1 4.5 -5 16.5 -1 -3.4540271877227098e-16 -1.22460635382238e-16 
2 10.5 -4.25 -25 -6.12303176911189e-17 -1 -7.4983036091106899e-33 -1 6.12303176911189e-17 -1.22460635382238e-16 1.22460635382238e-16 -1.7789921910373654e-47 -1 2.75
2 10.5 -5 -25 -3.4540271877227098e-16 1 -4.22982364036047e-32 -1 -3.4540271877227098e-16 -1.22460635382238e-16 -1.22460635382238e-16 -6.56858655152258e-47 1 2.75
2 10.5 -4.25 1.2858366715135001e-15 -6.12303176911189e-17 -1 -7.4983036091106899e-33 -1 6.12303176911189e-17 -1.22460635382238e-16 1.22460635382238e-16 -1.7789921910373654e-47 -1 2.75
2 10.5 -5 1.2858366715135001e-15 -3.4540271877227098e-16 1 -4.22982364036047e-32 -1 -3.4540271877227098e-16 -1.22460635382238e-16 -1.22460635382238e-16 -6.56858655152258e-47 1 2.75
2 10.5 -4.25 25 -6.12303176911189e-17 -1 -7.4983036091106899e-33 -1 6.12303176911189e-17 -1.22460635382238e-16 1.22460635382238e-16 -1.7789921910373654e-47 -1 2.75
2 10.5 -5 25 -3.4540271877227098e-16 1 -4.22982364036047e-32 -1 -3.4540271877227098e-16 -1.22460635382238e-16 -1.22460635382238e-16 -6.56858655152258e-47 1 2.75
1 18 -5 -33 0 1 0 
1 18 -5 33 0 1 0 
1 18 -5 33 1.22460635382238e-16 0 -1 
1 3.0639502135598401e-15 -5 -33 1 3.4540271877227098e-16 1.22460635382238e-16 
1 -5.0184517216678498e-15 -5 33 1 3.4540271877227098e-16 1.22460635382238e-16 
1 2.4500000000000002 3.0002855668648199e-16 0 0 0 -1 
2 0 -7.6537897113898603e-17 33.420000000000002 0 0 -1 1 0 0 0 -1 0 2.4500000000000002
2 0 -7.6537897113898603e-17 33.420000000000002 0 0 -1 1 0 0 0 -1 0 2.4500000000000002
1 -2.4500000000000002 -3.0002855668648199e-16 0 -0 -0 1 
2 0 -7.6537897113898603e-17 -33.420000000000002 -0 0 1 1 0 0 0 1 -0 2.4500000000000002
2 0 -7.6537897113898603e-17 -33.420000000000002 -0 0 1 1 0 0 0 1 -0 2.4500000000000002
2 1.5307579422779701e-16 -1.25 -33.07 1 1.22460635382238e-16 7.4983036091106899e-33 1.22460635382238e-16 -1 -6.12303176911189e-17 -1.7789921910373654e-47 6.12303176911189e-17 -1 1.25
2 0 -7.6537897113898603e-17 -33.420000000000002 -0 0 1 1 0 0 0 1 -0 2.4500000000000002
2 -1.5307579422779701e-16 1.25 -33.07 1 1.22460635382238e-16 7.4983036091106899e-33 -1.22460635382238e-16 1 6.12303176911189e-17 1.7789921910373654e-47 -6.12303176911189e-17 1 1.25
2 0 0 -34.32 0 6.12303176911189e-17 -1 1 0 0 0 -1 -6.12303176911189e-17 1.25
2 0 0 -34.32 0 6.12303176911189e-17 -1 1 0 0 0 -1 -6.12303176911189e-17 1.25
1 1.25 1.91344742784746e-16 -34.945 -0 -6.12303176911189e-17 1 
2 0 4.0412009676138698e-17 -34.979999999999997 0 0 -1 1 0 0 0 -1 0 1.25
1 -1.25 -1.1480684567084799e-16 -34.945 0 6.12303176911189e-17 -1 
2 0 0 -34.32 0 6.12303176911189e-17 -1 1 0 0 0 -1 -6.12303176911189e-17 1.25
2 1.5307579422779701e-16 1.25 33.07 1 -1.22460635382238e-16 7.4983036091106899e-33 1.22460635382238e-16 1 -6.12303176911189e-17 1.7789921910373654e-47 6.12303176911189e-17 1 1.25
2 0 -7.6537897113898603e-17 33.420000000000002 0 0 -1 1 0 0 0 -1 0 2.4500000000000002
2 -1.5307579422779701e-16 -1.25 33.07 1 -1.22460635382238e-16 7.4983036091106899e-33 -1.22460635382238e-16 -1 6.12303176911189e-17 -1.7789921910373654e-47 -6.12303176911189e-17 -1 1.25
2 0 0 34.32 -0 6.12303176911189e-17 1 1 0 0 0 1 -6.12303176911189e-17 1.25
2 0 0 34.32 -0 6.12303176911189e-17 1 1 0 0 0 1 -6.12303176911189e-17 1.25
1 1.25 -1.1480684567084799e-16 34.945 -0 -6.12303176911189e-17 -1 
2 0 4.0412009676138698e-17 34.979999999999997 0 0 1 1 0 -0 -0 1 0 1.25
1 -1.25 1.91344742784746e-16 34.945 0 6.12303176911189e-17 1 
2 0 0 34.32 -0 6.12303176911189e-17 1 1 0 0 0 1 -6.12303176911189e-17 1.25
2 0 0 34.32 -0 6.12303176911189e-17 1 1 0 0 0 1 -6.12303176911189e-17 1.25
2 0 4.0412009676138698e-17 34.979999999999997 0 0 1 1 0 -0 -0 1 0 1.25
2 0 -7.6537897113898603e-17 33.420000000000002 0 0 -1 1 0 0 0 -1 0 2.4500000000000002
2 0 0 -34.32 0 6.12303176911189e-17 -1 1 0 0 0 -1 -6.12303176911189e-17 1.25
2 0 4.0412009676138698e-17 -34.979999999999997 0 0 -1 1 0 0 0 -1 0 1.25
2 0 -7.6537897113898603e-17 -33.420000000000002 -0 0 1 1 0 0 0 1 -0 2.4500000000000002
Polygon3D 0
PolygonOnTriangulations 0
Surfaces 76
2 -10.5 -4.625 -25 6.12303176911189e-17 -1 0 1 6.12303176911189e-17 0 -0 0 1 2.75
3 -10.5 -2.875 -25 -6.12303176911189e-17 1 -0 1 6.12303176911189e-17 0 0 0 -1 4.125
0.78539816339744795
2 -10.5 -4.625 -25 6.12303176911189e-17 -1 0 1 6.12303176911189e-17 0 -0 0 1 2.75
1 -9 -5 -33 -3.4540271877227098e-16 -1 0 1 -3.4540271877227098e-16 0 0 0 1 
1 -11.3848480035424 -1.5 -33 0 1 0 -1 0 0 0 -0 1 
3 -10.5 -2.875 -25 -6.12303176911189e-17 1 -0 1 6.12303176911189e-17 0 0 0 -1 4.125
0.78539816339744795
2 -10.5 -4.625 0 6.12303176911189e-17 -1 0 1 6.12303176911189e-17 0 -0 0 1 2.75
3 -10.5 -2.875 0 -6.12303176911189e-17 1 -0 1 6.12303176911189e-17 0 0 0 -1 4.125
0.78539816339744795
2 -10.5 -4.625 0 6.12303176911189e-17 -1 0 1 6.12303176911189e-17 0 -0 0 1 2.75
3 -10.5 -2.875 0 -6.12303176911189e-17 1 -0 1 6.12303176911189e-17 0 0 0 -1 4.125
0.78539816339744795
2 -10.5 -4.625 25 6.12303176911189e-17 -1 0 1 6.12303176911189e-17 0 -0 0 1 2.75
3 -10.5 -2.875 25 -6.12303176911189e-17 1 -0 1 6.12303176911189e-17 0 0 0 -1 4.125
0.78539816339744795
2 -10.5 -4.625 25 6.12303176911189e-17 -1 0 1 6.12303176911189e-17 0 -0 0 1 2.75
3 -10.5 -2.875 25 -6.12303176911189e-17 1 -0 1 6.12303176911189e-17 0 0 0 -1 4.125
0.78539816339744795
2 0 0 0 0 0 1 1 0 -0 -0 1 0 2.5
1 0 0 -15.5 0 0 1 1 0 -0 -0 1 0 
2 0 0 0 0 0 1 1 0 -0 -0 1 0 2.5
1 0 0 0 0 0 1 1 0 -0 -0 1 0 
2 0 0 0 0 0 1 1 0 -0 -0 1 0 2.5
1 0 0 17.5 0 0 1 1 0 -0 -0 1 0 
2 0 0 0 0 0 1 1 0 -0 -0 1 0 2.5
1 -6.1102616370920098 -1.79565368508729 33 0 0 1 1 0 -0 -0 1 0 
2 0 1.10214571844014e-16 -33 0 0 1 1 0 -0 -0 1 0 5
2 0 1.10214571844014e-16 -33 0 0 1 1 0 -0 -0 1 0 5
2 0 1.10214571844014e-16 -33 0 0 1 1 0 -0 -0 1 0 5
2 0 1.10214571844014e-16 -33 0 0 1 1 0 -0 -0 1 0 5
2 0 1.10214571844014e-16 -33 0 0 1 1 0 -0 -0 1 0 5
2 0 1.10214571844014e-16 -33 0 0 1 1 0 -0 -0 1 0 5
1 -5 0 8.25 1 0 0 0 0 -1 -0 1 0 
1 -5 0 -24.75 1 0 0 0 0 -1 -0 1 0 
1 -6.1102616370920098 -1.79565368508729 -33 0 0 1 1 0 -0 -0 1 0 
1 -18 -3.25 -33 -1 -0 0 0 -1 -0 0 0 1 
2 10.5 -4.625 25 -6.12303176911189e-17 -1 -7.4983036091106899e-33 -1 6.12303176911189e-17 -1.22460635382238e-16 1.22460635382238e-16 -1.7789921910373654e-47 -1 2.75
3 10.5 -2.875 25 6.12303176911189e-17 1 7.4983036091106899e-33 -1 6.12303176911189e-17 -1.22460635382238e-16 -1.22460635382238e-16 1.7789921910373654e-47 1 4.125
0.78539816339744795
2 10.5 -4.625 25 -6.12303176911189e-17 -1 -7.4983036091106899e-33 -1 6.12303176911189e-17 -1.22460635382238e-16 1.22460635382238e-16 -1.7789921910373654e-47 -1 2.75
1 9 -5 33 3.4540271877227098e-16 -1 4.22982364036047e-32 -1 -3.4540271877227098e-16 -1.22460635382238e-16 1.22460635382238e-16 6.56858655152258e-47 -1 
1 11.3848480035424 -1.5 33 0 1 0 1 -0 1.22460635382238e-16 1.22460635382238e-16 0 -1 
3 10.5 -2.875 25 6.12303176911189e-17 1 7.4983036091106899e-33 -1 6.12303176911189e-17 -1.22460635382238e-16 -1.22460635382238e-16 1.7789921910373654e-47 1 4.125
0.78539816339744795
2 10.5 -4.625 1.2858366715135001e-15 -6.12303176911189e-17 -1 -7.4983036091106899e-33 -1 6.12303176911189e-17 -1.22460635382238e-16 1.22460635382238e-16 -1.7789921910373654e-47 -1 2.75
3 10.5 -2.875 1.2858366715135001e-15 6.12303176911189e-17 1 7.4983036091106899e-33 -1 6.12303176911189e-17 -1.22460635382238e-16 -1.22460635382238e-16 1.7789921910373654e-47 1 4.125
0.78539816339744795
2 10.5 -4.625 1.2858366715135001e-15 -6.12303176911189e-17 -1 -7.4983036091106899e-33 -1 6.12303176911189e-17 -1.22460635382238e-16 1.22460635382238e-16 -1.7789921910373654e-47 -1 2.75
3 10.5 -2.875 1.2858366715135001e-15 6.12303176911189e-17 1 7.4983036091106899e-33 -1 6.12303176911189e-17 -1.22460635382238e-16 -1.22460635382238e-16 1.7789921910373654e-47 1 4.125
0.78539816339744795
2 10.5 -4.625 -25 -6.12303176911189e-17 -1 -7.4983036091106899e-33 -1 6.12303176911189e-17 -1.22460635382238e-16 1.22460635382238e-16 -1.7789921910373654e-47 -1 2.75
3 10.5 -2.875 -25 6.12303176911189e-17 1 7.4983036091106899e-33 -1 6.12303176911189e-17 -1.22460635382238e-16 -1.22460635382238e-16 1.7789921910373654e-47 1 4.125
0.78539816339744795
2 10.5 -4.625 -25 -6.12303176911189e-17 -1 -7.4983036091106899e-33 -1 6.12303176911189e-17 -1.22460635382238e-16 1.22460635382238e-16 -1.7789921910373654e-47 -1 2.75
3 10.5 -2.875 -25 6.12303176911189e-17 1 7.4983036091106899e-33 -1 6.12303176911189e-17 -1.22460635382238e-16 -1.22460635382238e-16 1.7789921910373654e-47 1 4.125
0.78539816339744795
2 -4.0412009676138402e-15 1.10214571844014e-16 33 1.22460635382238e-16 0 -1 -1 0 -1.22460635382238e-16 0 1 0 5
2 -4.0412009676138402e-15 1.10214571844014e-16 33 1.22460635382238e-16 0 -1 -1 0 -1.22460635382238e-16 0 1 0 5
1 2.0206004838069201e-15 0 -16.5 1.22460635382238e-16 0 -1 -1 0 -1.22460635382238e-16 0 1 0 
1 6.1102616370920204 -1.79565368508729 -33 1.22460635382238e-16 0 -1 -1 0 -1.22460635382238e-16 0 1 0 
2 -4.0412009676138402e-15 1.10214571844014e-16 33 1.22460635382238e-16 0 -1 -1 0 -1.22460635382238e-16 0 1 0 5
2 0 0 0 1.22460635382238e-16 0 -1 -1 0 -1.22460635382238e-16 0 1 0 2.5
1 -2.0206004838069201e-15 0 16.5 1.22460635382238e-16 0 -1 -1 0 -1.22460635382238e-16 0 1 0 
2 0 0 0 1.22460635382238e-16 0 -1 -1 0 -1.22460635382238e-16 0 1 0 2.5
1 0 0 1 0 0 1 1 0 -0 -0 1 0 
2 0 0 0 1.22460635382238e-16 0 -1 -1 0 -1.22460635382238e-16 0 1 0 2.5
2 0 0 0 1.22460635382238e-16 0 -1 -1 0 -1.22460635382238e-16 0 1 0 2.5
2 -4.0412009676138402e-15 1.10214571844014e-16 33 1.22460635382238e-16 0 -1 -1 0 -1.22460635382238e-16 0 1 0 5
2 -4.0412009676138402e-15 1.10214571844014e-16 33 1.22460635382238e-16 0 -1 -1 0 -1.22460635382238e-16 0 1 0 5
2 -4.0412009676138402e-15 1.10214571844014e-16 33 1.22460635382238e-16 0 -1 -1 0 -1.22460635382238e-16 0 1 0 5
1 5 0 -8.25 -1 0 -1.22460635382238e-16 -1.22460635382238e-16 0 1 0 1 0 
1 5 0 24.75 -1 0 -1.22460635382238e-16 -1.22460635382238e-16 0 1 0 1 0 
1 6.1102616370920098 -1.79565368508729 33 1.22460635382238e-16 0 -1 -1 0 -1.22460635382238e-16 0 1 0 
1 18 -3.25 33 1 0 1.22460635382238e-16 0 -1 0 1.22460635382238e-16 0 -1 
2 0 0 0 0 0 -1 1 0 0 0 -1 0 2.4500000000000002
2 0 0 0 0 0 -1 1 0 0 0 -1 0 2.4500000000000002
5 0 -7.6537897113898603e-17 33.07 0 6.12303176911189e-17 1 0 -1 6.12303176911189e-17 1 0 -0 1.25 1.25
5 0 -7.6537897113898603e-17 33.07 0 6.12303176911189e-17 1 0 -1 6.12303176911189e-17 1 0 -0 1.25 1.25
5 0 -7.6537897113898603e-17 -33.07 0 6.12303176911189e-17 -1 0 1 6.12303176911189e-17 1 -0 0 1.25 1.25
5 0 -7.6537897113898603e-17 -33.07 0 6.12303176911189e-17 -1 0 1 6.12303176911189e-17 1 -0 0 1.25 1.25
2 0 3.8268948556949302e-17 -34.945 0 6.12303176911189e-17 -1 1 0 0 0 -1 -6.12303176911189e-17 1.25
2 0 3.8268948556949302e-17 -34.945 0 6.12303176911189e-17 -1 1 0 0 0 -1 -6.12303176911189e-17 1.25
1 0 0 -34.979999999999997 0 0 -1 1 0 0 0 -1 0 
2 0 3.8268948556949302e-17 34.945 -0 6.12303176911189e-17 1 1 0 0 0 1 -6.12303176911189e-17 1.25
2 0 3.8268948556949302e-17 34.945 -0 6.12303176911189e-17 1 1 0 0 0 1 -6.12303176911189e-17 1.25
1 0 0 34.979999999999997 0 0 1 -1 0 0 0 -1 0 
Triangulations 0

TShapes 507
Ve
1e-07
-7.75 -4.25 -25
0 0

0101101
*
Ve
1e-07
-13.25 -4.25 -25
0 0

0101101
*
Ed
 1e-07 1 1 0
1  1 0 0 3.14159265358979
2  1 1 0 0 3.14159265358979
2  2 2 0 0 3.14159265358979
4 C0 1 0 2 0
0

0101000
+507 0 -506 0 *
Ve
1e-07
-13.25 -5 -25
0 0

0101101
*
Ed
 1e-07 1 1 0
1  2 0 -0.375 0.375
2  3 1 0 -0.375 0.375
2  4 3 0 -0.375 0.375
4 CN 1 0 3 0
0

0101000
+506 0 -504 0 *
Ve
1e-07
-7.75 -5 -25
0 0

0101101
*
Ed
 1e-07 1 1 0
1  3 0 3.14159265358979 6.28318530717959
2  5 1 0 3.14159265358979 6.28318530717959
4 C0 1 0 4 0
0

0101000
+504 0 -502 0 *
Ed
 1e-07 1 1 0
1  4 0 -0.375 0.375
2  6 1 0 -0.375 0.375
2  7 3 0 -0.375 0.375
4 CN 1 0 3 0
0

0101000
+502 0 -507 0 *
Wi

0101100
+505 0 +503 0 +501 0 +500 0 *
Fa
0  1e-07 1 0

0111000
+499 0 *
Ve
1e-07
-5 -1.5 -25
0 0

0101101
*
Ve
1e-07
-16 -1.5 -25
0 0

0101101
*
Ed
 1e-07 1 1 0
1  5 0 0 3.14159265358979
2  8 2 0 0 3.14159265358979
4 C0 2 0 5 0
0

0101000
+497 0 -496 0 *
Ed
 1e-07 1 1 0
1  6 0 -1.94454364826301 1.94454364826301
2  9 2 0 -1.94454364826301 1.94454364826301
2  10 6 0 -1.94454364826301 1.94454364826301
4 CN 2 0 6 0
0

0101000
+496 0 -506 0 *
Ed
 1e-07 1 1 0
1  7 0 -1.94454364826301 1.94454364826301
2  11 2 0 -1.94454364826301 1.94454364826301
2  12 6 0 -1.94454364826301 1.94454364826301
4 CN 2 0 6 0
0

0101000
+507 0 -497 0 *
Wi

0101100
+495 0 +494 0 -505 0 +493 0 *
Fa
0  1e-07 2 0

0111000
+492 0 *
Ve
1e-07
-7.75 -4.25 0
0 0

0101101
*
Ve
1e-07
-13.25 -4.25 3.36766747301154e-16
0 0

0101101
*
Ed
 1e-07 1 1 0
1  8 0 0 3.14159265358979
2  13 7 0 0 3.14159265358979
2  14 8 0 0 3.14159265358979
4 C0 7 0 8 0
0

0101000
+490 0 -489 0 *
Ve
1e-07
-13.25 -5 3.36766747301154e-16
0 0

0101101
*
Ed
 1e-07 1 1 0
1  9 0 -0.375 0.375
2  15 7 0 -0.375 0.375
2  16 9 0 -0.375 0.375
4 CN 7 0 9 0
0

0101000
+489 0 -487 0 *
Ve
1e-07
-7.75 -5 0
0 0

0101101
*
Ed
 1e-07 1 1 0
1  10 0 3.14159265358979 6.28318530717959
2  17 7 0 3.14159265358979 6.28318530717959
4 C0 7 0 4 0
0

0101000
+487 0 -485 0 *
Ed
 1e-07 1 1 0
1  11 0 -0.375 0.375
2  18 7 0 -0.375 0.375
2  19 9 0 -0.375 0.375
4 CN 7 0 9 0
0

0101000
+485 0 -490 0 *
Wi

0101100
+488 0 +486 0 +484 0 +483 0 *
Fa
0  1e-07 7 0

0111000
+482 0 *
Ve
1e-07
-5 -1.5 0
0 0

0101101
*
Ve
1e-07
-16 -1.5 6.73533494602308e-16
0 0

0101101
*
Ed
 1e-07 1 1 0
1  12 0 0 3.14159265358979
2  20 8 0 0 3.14159265358979
4 C0 8 0 5 0
0

0101000
+480 0 -479 0 *
Ed
 1e-07 1 1 0
1  13 0 -1.94454364826301 1.94454364826301
2  21 8 0 -1.94454364826301 1.94454364826301
2  22 10 0 -1.94454364826301 1.94454364826301
4 CN 8 0 10 0
0

0101000
+479 0 -489 0 *
Ed
 1e-07 1 1 0
1  14 0 -1.94454364826301 1.94454364826301
2  23 8 0 -1.94454364826301 1.94454364826301
2  24 10 0 -1.94454364826301 1.94454364826301
4 CN 8 0 10 0
0

0101000
+490 0 -480 0 *
Wi

0101100
+478 0 +477 0 -488 0 +476 0 *
Fa
0  1e-07 8 0

0111000
+475 0 *
Ve
1e-07
-7.75 -4.25 25
0 0

0101101
*
Ve
1e-07
-13.25 -4.25 25
0 0

0101101
*
Ed
 1e-07 1 1 0
1  15 0 0 3.14159265358979
2  25 11 0 0 3.14159265358979
2  26 12 0 0 3.14159265358979
4 C0 11 0 12 0
0

0101000
+473 0 -472 0 *
Ve
1e-07
-13.25 -5 25
0 0

0101101
*
Ed
 1e-07 1 1 0
1  16 0 -0.375 0.375
2  27 11 0 -0.375 0.375
2  28 13 0 -0.375 0.375
4 CN 11 0 13 0
0

0101000
+472 0 -470 0 *
Ve
1e-07
-7.75 -5 25
0 0

0101101
*
Ed
 1e-07 1 1 0
1  17 0 3.14159265358979 6.28318530717959
2  29 11 0 3.14159265358979 6.28318530717959
4 C0 11 0 4 0
0

0101000
+470 0 -468 0 *
Ed
 1e-07 1 1 0
1  18 0 -0.375 0.375
2  30 11 0 -0.375 0.375
2  31 13 0 -0.375 0.375
4 CN 11 0 13 0
0

0101000
+468 0 -473 0 *
Wi

0101100
+471 0 +469 0 +467 0 +466 0 *
Fa
0  1e-07 11 0

0111000
+465 0 *
Ve
1e-07
-5 -1.5 25
0 0

0101101
*
Ve
1e-07
-16 -1.5 25
0 0

0101101
*
Ed
 1e-07 1 1 0
1  19 0 0 3.14159265358979
2  32 12 0 0 3.14159265358979
4 C0 12 0 5 0
0

0101000
+463 0 -462 0 *
Ed
 1e-07 1 1 0
1  20 0 -1.94454364826301 1.94454364826301
2  33 12 0 -1.94454364826301 1.94454364826301
2  34 14 0 -1.94454364826301 1.94454364826301
4 CN 12 0 14 0
0

0101000
+462 0 -472 0 *
Ed
 1e-07 1 1 0
1  21 0 -1.94454364826301 1.94454364826301
2  35 12 0 -1.94454364826301 1.94454364826301
2  36 14 0 -1.94454364826301 1.94454364826301
4 CN 12 0 14 0
0

0101000
+473 0 -463 0 *
Wi

0101100
+461 0 +460 0 -471 0 +459 0 *
Fa
0  1e-07 12 0

0111000
+458 0 *
Ve
1e-07
-2.5 3.06151588455594e-16 -15.5
0 0

0101101
*
Ve
1e-07
2.5 -3.06151588455594e-16 -15.5
0 0

0101101
*
Ed
 1e-07 1 1 0
1  22 0 3.14159265358979 6.28318530717959
2  37 15 0 3.14159265358979 6.28318530717959
4 C0 15 0 16 0
0

0101000
+456 0 -455 0 *
Ve
1e-07
-2.5 3.06151588455594e-16 0
0 0

0101101
*
Ed
 1e-07 1 1 0
1  23 0 -15.5 0
2  38 15 0 -15.5 0
2  39 17 0 -15.5 0
4 CN 15 0 17 0
0

0101000
+456 0 -453 0 *
Ve
1e-07
2.5 -3.06151588455594e-16 0
0 0

0101101
*
Ed
 1e-07 1 1 0
1  24 0 3.14159265358979 6.28318530717959
2  40 15 0 3.14159265358979 6.28318530717959
4 C0 15 0 18 0
0

0101000
+453 0 -451 0 *
Ed
 1e-07 1 1 0
1  25 0 0 15.5
2  41 15 0 0 15.5
2  42 17 0 0 15.5
4 CN 15 0 17 0
0

0101000
+451 0 -455 0 *
Wi

0101100
-454 0 +452 0 +450 0 +449 0 *
Fa
0  1e-07 15 0

0111000
+448 0 *
Ve
1e-07
-2.5 3.06151588455594e-16 17.5
0 0

0101101
*
Ve
1e-07
2.5 -3.06151588455594e-16 17.5
0 0

0101101
*
Ed
 1e-07 1 1 0
1  26 0 3.14159265358979 6.28318530717959
2  43 19 0 3.14159265358979 6.28318530717959
4 C0 19 0 20 0
0

0101000
+446 0 -445 0 *
Ve
1e-07
-2.5 3.06151588455594e-16 33
0 0

0101101
*
Ed
 1e-07 1 1 0
1  27 0 -7.75 7.75
2  44 19 0 -7.75 7.75
2  45 21 0 -7.75 7.75
4 CN 19 0 21 0
0

0101000
+446 0 -443 0 *
Ve
1e-07
2.5 -3.06151588455594e-16 33
0 0

0101101
*
Ed
 1e-07 1 1 0
1  28 0 3.14159265358979 6.28318530717959
2  46 19 0 3.14159265358979 6.28318530717959
4 C0 19 0 22 0
0

0101000
+443 0 -441 0 *
Ed
 1e-07 1 1 0
1  29 0 -7.75 7.75
2  47 19 0 -7.75 7.75
2  48 21 0 -7.75 7.75
4 CN 19 0 21 0
0

0101000
+441 0 -445 0 *
Wi

0101100
-444 0 +442 0 +440 0 +439 0 *
Fa
0  1e-07 19 0

0111000
+438 0 *
Ve
1e-07
-5 7.22517748755203e-16 0
0 0

0101101
*
Ve
1e-07
-5 7.22517748755203e-16 -15.5
0 0

0101101
*
Ed
 1e-07 1 1 0
1  30 0 -7.75 7.75
2  49 23 0 -7.75 7.75
2  50 24 0 -7.75 7.75
4 CN 23 0 24 0
0

0101000
+436 0 -435 0 *
Ve
1e-07
-4.76969600708473 -1.5 -15.5
0 0

0101101
*
Ed
 1e-07 1 1 0
1  31 0 3.14159265358979 3.44628530760519
2  51 23 0 3.14159265358979 3.44628530760519
4 C0 23 0 16 0
0

0101000
+435 0 -433 0 *
Ve
1e-07
-4.76969600708473 -1.5 0
0 0

0101101
*
Ed
 1e-07 1 1 0
1  32 0 17.5 33
2  52 23 0 17.5 33
4 C0 23 0 5 0
0

0101000
+433 0 -431 0 *
Ed
 1e-07 1 1 0
1  33 0 2.8368999995744 3.14159265358979
2  53 23 0 2.8368999995744 3.14159265358979
4 C0 23 0 18 0
0

0101000
+431 0 -436 0 *
Wi

0101100
+434 0 +432 0 +430 0 +429 0 *
Fa
0  1e-07 23 0

0111000
+428 0 *
Ve
1e-07
5 -5.02088605067175e-16 -15.5
0 0

0101101
*
Ve
1e-07
5 -5.02088605067175e-16 0
0 0

0101101
*
Ed
 1e-07 1 1 0
1  34 0 -7.75 7.75
2  54 24 0 -7.75 7.75
2  55 25 0 -7.75 7.75
4 CN 24 0 25 0
0

0101000
+426 0 -425 0 *
Ed
 1e-07 1 1 0
1  35 0 0 3.14159265358979
2  56 24 0 0 3.14159265358979
4 C0 24 0 16 0
0

0101000
+426 0 -435 0 *
Ed
 1e-07 1 1 0
1  36 0 3.14159265358979 6.28318530717959
2  57 24 0 3.14159265358979 6.28318530717959
4 C0 24 0 18 0
0

0101000
+436 0 -425 0 *
Wi

0101100
-424 0 +423 0 -434 0 +422 0 *
Fa
0  1e-07 24 0

0111000
+421 0 *
Ve
1e-07
-5 7.22517748755203e-16 33
0 0

0101101
*
Ve
1e-07
-5 7.22517748755203e-16 17.5
0 0

0101101
*
Ed
 1e-07 1 1 0
1  37 0 -7.75 7.75
2  58 26 0 -7.75 7.75
2  59 27 0 -7.75 7.75
4 CN 26 0 27 0
0

0101000
+419 0 -418 0 *
Ve
1e-07
-4.76969600708473 -1.5 17.5
0 0

0101101
*
Ed
 1e-07 1 1 0
1  38 0 3.14159265358979 3.44628530760519
2  60 26 0 3.14159265358979 3.44628530760519
4 C0 26 0 20 0
0

0101000
+418 0 -416 0 *
Ve
1e-07
-4.76969600708473 -1.5 33
0 0

0101101
*
Ed
 1e-07 1 1 0
1  39 0 50.5 66
2  61 26 0 50.5 66
4 C0 26 0 5 0
0

0101000
+416 0 -414 0 *
Ed
 1e-07 1 1 0
1  40 0 2.8368999995744 3.14159265358979
2  62 26 0 2.8368999995744 3.14159265358979
4 C0 26 0 22 0
0

0101000
+414 0 -419 0 *
Wi

0101100
+417 0 +415 0 +413 0 +412 0 *
Fa
0  1e-07 26 0

0111000
+411 0 *
Ve
1e-07
5 -5.02088605067175e-16 17.5
0 0

0101101
*
Ve
1e-07
5 -5.02088605067175e-16 33
0 0

0101101
*
Ed
 1e-07 1 1 0
1  41 0 -7.75 7.75
2  63 27 0 -7.75 7.75
2  64 28 0 -7.75 7.75
4 CN 27 0 28 0
0

0101000
+409 0 -408 0 *
Ed
 1e-07 1 1 0
1  42 0 0 3.14159265358979
2  65 27 0 0 3.14159265358979
4 C0 27 0 20 0
0

0101000
+409 0 -418 0 *
Ed
 1e-07 1 1 0
1  43 0 3.14159265358979 6.28318530717959
2  66 27 0 3.14159265358979 6.28318530717959
4 C0 27 0 22 0
0

0101000
+419 0 -408 0 *
Wi

0101100
-407 0 +406 0 -417 0 +405 0 *
Fa
0  1e-07 27 0

0111000
+404 0 *
Ed
 1e-07 1 1 0
1  44 0 0 3.14159265358979
2  67 21 0 0 3.14159265358979
4 C0 20 0 21 0
0

0101000
+445 0 -446 0 *
Wi

0101100
-444 0 -402 0 *
Ve
1e-07
-5 -1.5 17.5
0 0

0101101
*
Ed
 1e-07 1 1 0
1  45 0 -0.92272799468645 -0.69242400177118
4 C0 20 0 5 0
0

0101000
+416 0 -400 0 *
Ve
1e-07
0 -5 17.5
0 0

0101101
*
Ed
 1e-07 1 1 0
1  46 0 4.71238898038469 6.28318530717959
2  68 28 0 4.71238898038469 6.28318530717959
4 C0 20 0 28 0
0

0101000
+398 0 -409 0 *
Ve
1e-07
-5 -5 17.5
0 0

0101101
*
Ed
 1e-07 1 1 0
1  47 0 -0.5 4.5
4 C0 20 0 4 0
0

0101000
+396 0 -398 0 *
Ed
 1e-07 1 1 0
1  48 0 1.5 5
4 C0 20 0 29 0
0

0101000
+400 0 -396 0 *
Wi

0101100
-399 0 -415 0 -406 0 -397 0 -395 0 -394 0 *
Fa
0  1e-07 20 0

0111000
-401 0 -393 0 *
Ve
1e-07
9.77250754054006e-16 -5 33
0 0

0101101
*
Ed
 1e-07 1 1 0
1  49 0 0 1.5707963267949
2  69 28 0 0 1.5707963267949
4 C0 28 0 22 0
0

0101000
+408 0 -391 0 *
Ed
 1e-07 1 1 0
1  50 0 50.5 66
2  70 28 0 50.5 66
4 G1 28 0 4 0
0

0101000
+398 0 -391 0 *
Wi

0101100
+407 0 +390 0 -389 0 +397 0 *
Fa
0  1e-07 28 0

0111000
+388 0 *
Ed
 1e-07 1 1 0
1  51 0 0 3.14159265358979
2  71 17 0 0 3.14159265358979
4 C0 16 0 17 0
0

0101000
+455 0 -456 0 *
Wi

0101100
-454 0 -386 0 *
Ve
1e-07
-5 -1.5 -15.5
0 0

0101101
*
Ed
 1e-07 1 1 0
1  52 0 -0.92272799468645 -0.69242400177118
4 C0 16 0 5 0
0

0101000
+433 0 -384 0 *
Ve
1e-07
0 -5 -15.5
0 0

0101101
*
Ed
 1e-07 1 1 0
1  53 0 4.71238898038469 6.28318530717959
2  72 25 0 4.71238898038469 6.28318530717959
4 C0 16 0 25 0
0

0101000
+382 0 -426 0 *
Ve
1e-07
-5 -5 -15.5
0 0

0101101
*
Ed
 1e-07 1 1 0
1  54 0 -0.5 4.5
4 C0 16 0 4 0
0

0101000
+380 0 -382 0 *
Ed
 1e-07 1 1 0
1  55 0 1.5 5
4 C0 16 0 30 0
0

0101000
+384 0 -380 0 *
Wi

0101100
-383 0 -432 0 -423 0 -381 0 -379 0 -378 0 *
Fa
0  1e-07 16 0

0111000
-385 0 -377 0 *
Ve
1e-07
0 -5 0
0 0

0101101
*
Ed
 1e-07 1 1 0
1  56 0 0 1.5707963267949
2  73 25 0 0 1.5707963267949
4 C0 25 0 18 0
0

0101000
+425 0 -375 0 *
Ed
 1e-07 1 1 0
1  57 0 17.5 33
2  74 25 0 17.5 33
4 G1 25 0 4 0
0

0101000
+382 0 -375 0 *
Wi

0101100
+424 0 +374 0 -373 0 +381 0 *
Fa
0  1e-07 25 0

0111000
+372 0 *
Ed
 1e-07 1 1 0
1  58 0 0 3.14159265358979
2  75 21 0 0 3.14159265358979
4 C0 21 0 22 0
0

0101000
+441 0 -443 0 *
Wi

0101100
+370 0 -442 0 -402 0 -439 0 *
Fa
0  1e-07 21 0

0111000
+369 0 *
Ed
 1e-07 1 1 0
1  59 0 0 3.14159265358979
2  76 17 0 0 3.14159265358979
4 C0 17 0 18 0
0

0101000
+451 0 -453 0 *
Wi

0101100
+367 0 -452 0 -386 0 -449 0 *
Fa
0  1e-07 17 0

0111000
+366 0 *
Ed
 1e-07 1 1 0
1  60 0 -25.5 -8
4 C0 29 0 5 0
0

0101000
+400 0 -480 0 *
Ve
1e-07
-5 -5 0
0 0

0101101
*
Ed
 1e-07 1 1 0
1  61 0 8 25.5
4 C0 29 0 4 0
0

0101000
+363 0 -396 0 *
Ed
 1e-07 1 1 0
1  62 0 -5 -1.5
4 C0 29 0 18 0
0

0101000
+363 0 -480 0 *
Wi

0101100
-364 0 +394 0 -362 0 +361 0 *
Fa
0  1e-07 29 0

0111000
+360 0 *
Wi

0101100
+450 0 +367 0 *
Ed
 1e-07 1 1 0
1  63 0 0.69242400177118 0.92272799468645
4 C0 18 0 5 0
0

0101000
+480 0 -431 0 *
Ed
 1e-07 1 1 0
1  64 0 -4.5 0.5
4 C0 18 0 4 0
0

0101000
+375 0 -363 0 *
Wi

0101100
-429 0 -357 0 -361 0 -356 0 -374 0 -422 0 *
Fa
0  1e-07 18 0

0111000
+358 0 +355 0 *
Ed
 1e-07 1 1 0
1  65 0 3.14159265358979 6.28318530717959
2  77 10 0 3.14159265358979 6.28318530717959
4 C0 5 0 10 0
0

0101000
+479 0 -480 0 *
Wi

0101100
+478 0 +353 0 *
Ed
 1e-07 1 1 0
1  66 0 3.14159265358979 6.28318530717959
2  78 6 0 3.14159265358979 6.28318530717959
4 C0 5 0 6 0
0

0101000
+496 0 -497 0 *
Wi

0101100
+495 0 +351 0 *
Ed
 1e-07 1 1 0
1  67 0 -9 0.5
4 C0 5 0 30 0
0

0101000
+384 0 -497 0 *
Ve
1e-07
-5 -1.5 -33
0 0

0101101
*
Ed
 1e-07 1 1 0
1  68 0 -3.875 4.125
4 C0 5 0 30 0
0

0101000
+497 0 -348 0 *
Ve
1e-07
-18 -1.5 -33
0 0

0101101
*
Ed
 1e-07 1 1 0
1  69 0 0 13
4 C0 5 0 31 0
0

0101000
+346 0 -348 0 *
Ve
1e-07
-18 -1.5 33
0 0

0101101
*
Ed
 1e-07 1 1 0
1  70 0 0 66
4 C0 5 0 32 0
0

0101000
+346 0 -344 0 *
Ed
 1e-07 1 1 0
1  71 0 0 13.2303039929153
4 C0 5 0 22 0
0

0101000
+344 0 -414 0 *
Wi

0101100
+364 0 +357 0 -430 0 +383 0 +349 0 +347 0 -345 0 +343 0 +342 0 -413 0 
+399 0 *
Ed
 1e-07 1 1 0
1  72 0 3.14159265358979 6.28318530717959
2  79 14 0 3.14159265358979 6.28318530717959
4 C0 5 0 14 0
0

0101000
+462 0 -463 0 *
Wi

0101100
+461 0 +340 0 *
Fa
0  1e-07 5 0

0111000
+352 0 +350 0 +341 0 +339 0 *
Ve
1e-07
-5 -5 -33
0 0

0101101
*
Ed
 1e-07 1 1 0
1  73 0 -8.5 9
4 C0 30 0 4 0
0

0101000
+337 0 -380 0 *
Ed
 1e-07 1 1 0
1  74 0 0.602173157456353 4.10217315745635
4 C0 30 0 31 0
0

0101000
+348 0 -337 0 *
Wi

0101100
-349 0 +378 0 -336 0 -335 0 -347 0 *
Fa
0  1e-07 30 0

0111000
+334 0 *
Ed
 1e-07 1 1 0
1  75 0 3.14159265358979 6.28318530717959
2  80 14 0 3.14159265358979 6.28318530717959
2  81 13 0 3.14159265358979 6.28318530717959
4 C0 14 0 13 0
0

0101000
+472 0 -473 0 *
Wi

0101100
-332 0 -460 0 +340 0 -459 0 *
Fa
0  1e-07 14 0

0111000
+331 0 *
Ed
 1e-07 1 1 0
1  76 0 0 3.14159265358979
2  82 13 0 0 3.14159265358979
4 C0 13 0 4 0
0

0101000
+468 0 -470 0 *
Wi

0101100
+329 0 -469 0 +332 0 -466 0 *
Fa
0  1e-07 13 0

0111000
+328 0 *
Ed
 1e-07 1 1 0
1  77 0 3.14159265358979 6.28318530717959
2  83 10 0 3.14159265358979 6.28318530717959
2  84 9 0 3.14159265358979 6.28318530717959
4 C0 10 0 9 0
0

0101000
+489 0 -490 0 *
Wi

0101100
-326 0 -477 0 +353 0 -476 0 *
Fa
0  1e-07 10 0

0111000
+325 0 *
Ed
 1e-07 1 1 0
1  78 0 0 3.14159265358979
2  85 9 0 0 3.14159265358979
4 C0 9 0 4 0
0

0101000
+485 0 -487 0 *
Wi

0101100
+323 0 -486 0 +326 0 -483 0 *
Fa
0  1e-07 9 0

0111000
+322 0 *
Ed
 1e-07 1 1 0
1  79 0 3.14159265358979 6.28318530717959
2  86 6 0 3.14159265358979 6.28318530717959
2  87 3 0 3.14159265358979 6.28318530717959
4 C0 6 0 3 0
0

0101000
+506 0 -507 0 *
Wi

0101100
-320 0 -494 0 +351 0 -493 0 *
Fa
0  1e-07 6 0

0111000
+319 0 *
Ed
 1e-07 1 1 0
1  80 0 0 3.14159265358979
2  88 3 0 0 3.14159265358979
4 C0 3 0 4 0
0

0101000
+502 0 -504 0 *
Wi

0101100
+317 0 -503 0 +320 0 -500 0 *
Fa
0  1e-07 3 0

0111000
+316 0 *
Ve
1e-07
-18 -5 33
0 0

0101101
*
Ed
 1e-07 1 1 0
1  81 0 0 3.5
4 C0 32 0 22 0
0

0101000
+314 0 -344 0 *
Ve
1e-07
-18 -5 -33
0 0

0101101
*
Ed
 1e-07 1 1 0
1  82 0 0 3.5
4 C0 32 0 31 0
0

0101000
+312 0 -346 0 *
Ed
 1e-07 1 1 0
1  83 0 0 66
4 C0 32 0 4 0
0

0101000
+312 0 -314 0 *
Wi

0101100
+313 0 -343 0 -311 0 +310 0 *
Fa
0  1e-07 32 0

0111000
+309 0 *
Ed
 1e-07 1 1 0
1  84 0 0 18
4 C0 4 0 22 0
0

0101000
+391 0 -314 0 *
Ed
 1e-07 1 1 0
1  85 0 5 18
4 C0 4 0 31 0
0

0101000
+337 0 -312 0 *
Wi

0101100
+395 0 +389 0 +307 0 -310 0 -306 0 +336 0 +379 0 +373 0 +356 0 +362 0 
*
Wi

0101100
+329 0 +467 0 *
Wi

0101100
+323 0 +484 0 *
Wi

0101100
+317 0 +501 0 *
Fa
0  1e-07 4 0

0111000
+305 0 +304 0 +303 0 +302 0 *
Wi

0101100
+440 0 +370 0 *
Wi

0101100
-313 0 -307 0 -390 0 -405 0 -412 0 -342 0 *
Fa
0  1e-07 22 0

0111000
+300 0 +299 0 *
Wi

0101100
+335 0 +306 0 +311 0 +345 0 *
Fa
0  1e-07 31 0

0111000
-297 0 *
Sh

0101100
-498 0 -491 0 -481 0 -474 0 -464 0 -457 0 -447 0 -437 0 +427 0 +420 0 
+410 0 +403 0 -392 0 +387 0 -376 0 +371 0 -368 0 -365 0 +359 0 +354 0 
+338 0 +333 0 -330 0 -327 0 -324 0 -321 0 -318 0 -315 0 +308 0 +301 0 
+298 0 -296 0 *
So

0100000
+295 0 *
Ve
1e-07
7.75 -4.25 25
0 0

0101101
*
Ve
1e-07
13.25 -4.25 25
0 0

0101101
*
Ed
 1e-07 1 1 0
1  86 0 0 3.14159265358979
2  89 33 0 0 3.14159265358979
2  90 34 0 0 3.14159265358979
4 C0 33 0 34 0
0

0101000
+293 0 -292 0 *
Ve
1e-07
13.25 -5 25
0 0

0101101
*
Ed
 1e-07 1 1 0
1  87 0 -0.375 0.375
2  91 33 0 -0.375 0.375
2  92 35 0 -0.375 0.375
4 CN 33 0 35 0
0

0101000
+292 0 -290 0 *
Ve
1e-07
7.75 -5 25
0 0

0101101
*
Ed
 1e-07 1 1 0
1  88 0 3.14159265358979 6.28318530717959
2  93 33 0 3.14159265358979 6.28318530717959
4 C0 33 0 36 0
0

0101000
+290 0 -288 0 *
Ed
 1e-07 1 1 0
1  89 0 -0.375 0.375
2  94 33 0 -0.375 0.375
2  95 35 0 -0.375 0.375
4 CN 33 0 35 0
0

0101000
+288 0 -293 0 *
Wi

0101100
+291 0 +289 0 +287 0 +286 0 *
Fa
0  1e-07 33 0

0111000
+285 0 *
Ve
1e-07
5 -1.5 25
0 0

0101101
*
Ve
1e-07
16 -1.5 25
0 0

0101101
*
Ed
 1e-07 1 1 0
1  90 0 0 3.14159265358979
2  96 34 0 0 3.14159265358979
4 C0 34 0 37 0
0

0101000
+283 0 -282 0 *
Ed
 1e-07 1 1 0
1  91 0 -1.94454364826301 1.94454364826301
2  97 34 0 -1.94454364826301 1.94454364826301
2  98 38 0 -1.94454364826301 1.94454364826301
4 CN 34 0 38 0
0

0101000
+282 0 -292 0 *
Ed
 1e-07 1 1 0
1  92 0 -1.94454364826301 1.94454364826301
2  99 34 0 -1.94454364826301 1.94454364826301
2  100 38 0 -1.94454364826301 1.94454364826301
4 CN 34 0 38 0
0

0101000
+293 0 -283 0 *
Wi

0101100
+281 0 +280 0 -291 0 +279 0 *
Fa
0  1e-07 34 0

0111000
+278 0 *
Ve
1e-07
7.75 -4.25 9.49069924212342e-16
0 0

0101101
*
Ve
1e-07
13.25 -4.25 1.2858366715135e-15
0 0

0101101
*
Ed
 1e-07 1 1 0
1  93 0 0 3.14159265358979
2  101 39 0 0 3.14159265358979
2  102 40 0 0 3.14159265358979
4 C0 39 0 40 0
0

0101000
+276 0 -275 0 *
Ve
1e-07
13.25 -5 1.2858366715135e-15
0 0

0101101
*
Ed
 1e-07 1 1 0
1  94 0 -0.375 0.375
2  103 39 0 -0.375 0.375
2  104 41 0 -0.375 0.375
4 CN 39 0 41 0
0

0101000
+275 0 -273 0 *
Ve
1e-07
7.75 -5 9.49069924212342e-16
0 0

0101101
*
Ed
 1e-07 1 1 0
1  95 0 3.14159265358979 6.28318530717959
2  105 39 0 3.14159265358979 6.28318530717959
4 C0 39 0 36 0
0

0101000
+273 0 -271 0 *
Ed
 1e-07 1 1 0
1  96 0 -0.375 0.375
2  106 39 0 -0.375 0.375
2  107 41 0 -0.375 0.375
4 CN 39 0 41 0
0

0101000
+271 0 -276 0 *
Wi

0101100
+274 0 +272 0 +270 0 +269 0 *
Fa
0  1e-07 39 0

0111000
+268 0 *
Ve
1e-07
5 -1.5 6.12303176911189e-16
0 0

0101101
*
Ve
1e-07
16 -1.5 1.2858366715135e-15
0 0

0101101
*
Ed
 1e-07 1 1 0
1  97 0 0 3.14159265358979
2  108 40 0 0 3.14159265358979
4 C0 40 0 37 0
0

0101000
+266 0 -265 0 *
Ed
 1e-07 1 1 0
1  98 0 -1.94454364826301 1.94454364826301
2  109 40 0 -1.94454364826301 1.94454364826301
2  110 42 0 -1.94454364826301 1.94454364826301
4 CN 40 0 42 0
0

0101000
+265 0 -275 0 *
Ed
 1e-07 1 1 0
1  99 0 -1.94454364826301 1.94454364826301
2  111 40 0 -1.94454364826301 1.94454364826301
2  112 42 0 -1.94454364826301 1.94454364826301
4 CN 40 0 42 0
0

0101000
+276 0 -266 0 *
Wi

0101100
+264 0 +263 0 -274 0 +262 0 *
Fa
0  1e-07 40 0

0111000
+261 0 *
Ve
1e-07
7.75 -4.25 -25
0 0

0101101
*
Ve
1e-07
13.25 -4.25 -25
0 0

0101101
*
Ed
 1e-07 1 1 0
1  100 0 0 3.14159265358979
2  113 43 0 0 3.14159265358979
2  114 44 0 0 3.14159265358979
4 C0 43 0 44 0
0

0101000
+259 0 -258 0 *
Ve
1e-07
13.25 -5 -25
0 0

0101101
*
Ed
 1e-07 1 1 0
1  101 0 -0.375 0.375
2  115 43 0 -0.375 0.375
2  116 45 0 -0.375 0.375
4 CN 43 0 45 0
0

0101000
+258 0 -256 0 *
Ve
1e-07
7.75 -5 -25
0 0

0101101
*
Ed
 1e-07 1 1 0
1  102 0 3.14159265358979 6.28318530717959
2  117 43 0 3.14159265358979 6.28318530717959
4 C0 43 0 36 0
0

0101000
+256 0 -254 0 *
Ed
 1e-07 1 1 0
1  103 0 -0.375 0.375
2  118 43 0 -0.375 0.375
2  119 45 0 -0.375 0.375
4 CN 43 0 45 0
0

0101000
+254 0 -259 0 *
Wi

0101100
+257 0 +255 0 +253 0 +252 0 *
Fa
0  1e-07 43 0

0111000
+251 0 *
Ve
1e-07
5 -1.5 -25
0 0

0101101
*
Ve
1e-07
16 -1.5 -25
0 0

0101101
*
Ed
 1e-07 1 1 0
1  104 0 0 3.14159265358979
2  120 44 0 0 3.14159265358979
4 C0 44 0 37 0
0

0101000
+249 0 -248 0 *
Ed
 1e-07 1 1 0
1  105 0 -1.94454364826301 1.94454364826301
2  121 44 0 -1.94454364826301 1.94454364826301
2  122 46 0 -1.94454364826301 1.94454364826301
4 CN 44 0 46 0
0

0101000
+248 0 -258 0 *
Ed
 1e-07 1 1 0
1  106 0 -1.94454364826301 1.94454364826301
2  123 44 0 -1.94454364826301 1.94454364826301
2  124 46 0 -1.94454364826301 1.94454364826301
4 CN 44 0 46 0
0

0101000
+259 0 -249 0 *
Wi

0101100
+247 0 +246 0 -257 0 +245 0 *
Fa
0  1e-07 44 0

0111000
+244 0 *
Ve
1e-07
5 7.22517748755203e-16 -33
0 0

0101101
*
Ve
1e-07
5 7.22517748755203e-16 -16.5
0 0

0101101
*
Ed
 1e-07 1 1 0
1  107 0 -8.25 8.25
2  125 47 0 -8.25 8.25
2  126 48 0 -8.25 8.25
4 CN 47 0 48 0
0

0101000
+242 0 -241 0 *
Ve
1e-07
4.76969600708473 -1.5 -16.5
0 0

0101101
*
Ed
 1e-07 1 1 0
1  108 0 3.14159265358979 3.44628530760519
2  127 47 0 3.14159265358979 3.44628530760519
4 C0 47 0 49 0
0

0101000
+241 0 -239 0 *
Ve
1e-07
4.76969600708473 -1.5 -33
0 0

0101101
*
Ed
 1e-07 1 1 0
1  109 0 49.5 66
2  128 47 0 49.5 66
4 C0 47 0 37 0
0

0101000
+239 0 -237 0 *
Ed
 1e-07 1 1 0
1  110 0 2.8368999995744 3.14159265358979
2  129 47 0 2.8368999995744 3.14159265358979
4 C0 47 0 50 0
0

0101000
+237 0 -242 0 *
Wi

0101100
+240 0 +238 0 +236 0 +235 0 *
Fa
0  1e-07 47 0

0111000
+234 0 *
Ve
1e-07
-5 -5.02088605067175e-16 -16.5
0 0

0101101
*
Ve
1e-07
-5 -5.02088605067175e-16 -33
0 0

0101101
*
Ed
 1e-07 1 1 0
1  111 0 -8.25 8.25
2  130 48 0 -8.25 8.25
2  131 51 0 -8.25 8.25
4 CN 48 0 51 0
0

0101000
+232 0 -231 0 *
Ed
 1e-07 1 1 0
1  112 0 0 3.14159265358979
2  132 48 0 0 3.14159265358979
4 C0 48 0 49 0
0

0101000
+232 0 -241 0 *
Ed
 1e-07 1 1 0
1  113 0 3.14159265358979 6.28318530717959
2  133 48 0 3.14159265358979 6.28318530717959
4 C0 48 0 50 0
0

0101000
+242 0 -231 0 *
Wi

0101100
-230 0 +229 0 -240 0 +228 0 *
Fa
0  1e-07 48 0

0111000
+227 0 *
Ve
1e-07
-2.5 -3.06151588455594e-16 16.5
0 0

0101101
*
Ve
1e-07
2.5 -3.06151588455594e-16 16.5
0 0

0101101
*
Ed
 1e-07 1 1 0
1  114 0 0 3.14159265358979
2  134 52 0 0 3.14159265358979
4 C0 52 0 53 0
0

0101000
+225 0 -224 0 *
Ve
1e-07
2.5 -3.06151588455594e-16 1
0 0

0101101
*
Ed
 1e-07 1 1 0
1  115 0 -7.75 7.75
2  135 52 0 -7.75 7.75
2  136 54 0 -7.75 7.75
4 CN 52 0 54 0
0

0101000
+224 0 -222 0 *
Ve
1e-07
-2.5 -3.06151588455594e-16 1
0 0

0101101
*
Ed
 1e-07 1 1 0
1  116 0 0 3.14159265358979
2  137 52 0 0 3.14159265358979
4 C0 52 0 55 0
0

0101000
+220 0 -222 0 *
Ed
 1e-07 1 1 0
1  117 0 -7.75 7.75
2  138 52 0 -7.75 7.75
2  139 54 0 -7.75 7.75
4 CN 52 0 54 0
0

0101000
+220 0 -225 0 *
Wi

0101100
+223 0 +221 0 -219 0 +218 0 *
Fa
0  1e-07 52 0

0111000
+217 0 *
Ve
1e-07
-2.5 -3.06151588455594e-16 -16.5
0 0

0101101
*
Ve
1e-07
2.5 -3.06151588455594e-16 -16.5
0 0

0101101
*
Ed
 1e-07 1 1 0
1  118 0 0 3.14159265358979
2  140 56 0 0 3.14159265358979
4 C0 56 0 49 0
0

0101000
+215 0 -214 0 *
Ve
1e-07
2.5 3.06151588455594e-16 -33
0 0

0101101
*
Ed
 1e-07 1 1 0
1  119 0 -8.25 8.25
2  141 56 0 -8.25 8.25
2  142 57 0 -8.25 8.25
4 CN 56 0 57 0
0

0101000
+214 0 -212 0 *
Ve
1e-07
-2.5 -3.06151588455594e-16 -33
0 0

0101101
*
Ed
 1e-07 1 1 0
1  120 0 3.14159265358979 6.28318530717959
2  143 56 0 3.14159265358979 6.28318530717959
4 C0 56 0 50 0
0

0101000
+212 0 -210 0 *
Ed
 1e-07 1 1 0
1  121 0 -8.25 8.25
2  144 56 0 -8.25 8.25
2  145 57 0 -8.25 8.25
4 CN 56 0 57 0
0

0101000
+210 0 -215 0 *
Wi

0101100
+213 0 +211 0 +209 0 +208 0 *
Fa
0  1e-07 56 0

0111000
+207 0 *
Ve
1e-07
5 7.22517748755203e-16 1
0 0

0101101
*
Ve
1e-07
5 7.22517748755203e-16 16.5
0 0

0101101
*
Ed
 1e-07 1 1 0
1  122 0 -7.75 7.75
2  146 58 0 -7.75 7.75
2  147 59 0 -7.75 7.75
4 CN 58 0 59 0
0

0101000
+205 0 -204 0 *
Ve
1e-07
4.76969600708473 -1.5 16.5
0 0

0101101
*
Ed
 1e-07 1 1 0
1  123 0 3.14159265358979 3.44628530760519
2  148 58 0 3.14159265358979 3.44628530760519
4 C0 58 0 53 0
0

0101000
+204 0 -202 0 *
Ve
1e-07
4.76969600708473 -1.5 1
0 0

0101101
*
Ed
 1e-07 1 1 0
1  124 0 16.5 32
2  149 58 0 16.5 32
4 C0 58 0 37 0
0

0101000
+202 0 -200 0 *
Ed
 1e-07 1 1 0
1  125 0 2.8368999995744 3.14159265358979
2  150 58 0 2.8368999995744 3.14159265358979
4 C0 58 0 55 0
0

0101000
+200 0 -205 0 *
Wi

0101100
+203 0 +201 0 +199 0 +198 0 *
Fa
0  1e-07 58 0

0111000
+197 0 *
Ve
1e-07
-5 -5.02088605067175e-16 16.5
0 0

0101101
*
Ve
1e-07
-5 -5.02088605067175e-16 1
0 0

0101101
*
Ed
 1e-07 1 1 0
1  126 0 -7.75 7.75
2  151 59 0 -7.75 7.75
2  152 60 0 -7.75 7.75
4 CN 59 0 60 0
0

0101000
+195 0 -194 0 *
Ed
 1e-07 1 1 0
1  127 0 0 3.14159265358979
2  153 59 0 0 3.14159265358979
4 C0 59 0 53 0
0

0101000
+195 0 -204 0 *
Ed
 1e-07 1 1 0
1  128 0 3.14159265358979 6.28318530717959
2  154 59 0 3.14159265358979 6.28318530717959
4 C0 59 0 55 0
0

0101000
+205 0 -194 0 *
Wi

0101100
-193 0 +192 0 -203 0 +191 0 *
Fa
0  1e-07 59 0

0111000
+190 0 *
Ve
1e-07
5 -1.5 1
0 0

0101101
*
Ed
 1e-07 1 1 0
1  129 0 0.69242400177118 0.92272799468645
4 C0 55 0 37 0
0

0101000
+188 0 -200 0 *
Ve
1e-07
5 -5 1
0 0

0101101
*
Ed
 1e-07 1 1 0
1  130 0 -5 -1.5
4 C0 55 0 61 0
0

0101000
+186 0 -188 0 *
Ve
1e-07
-1.22460635382238e-16 -5 1
0 0

0101101
*
Ed
 1e-07 1 1 0
1  131 0 -4.5 0.5
4 C0 55 0 36 0
0

0101000
+184 0 -186 0 *
Ed
 1e-07 1 1 0
1  132 0 0 1.5707963267949
2  155 60 0 0 1.5707963267949
4 C0 55 0 60 0
0

0101000
+194 0 -184 0 *
Wi

0101100
-187 0 -185 0 -183 0 -182 0 -191 0 -198 0 *
Ed
 1e-07 1 1 0
1  133 0 3.14159265358979 6.28318530717959
2  156 54 0 3.14159265358979 6.28318530717959
4 C0 55 0 54 0
0

0101000
+222 0 -220 0 *
Wi

0101100
-180 0 -219 0 *
Fa
0  1e-07 55 0

0111000
-181 0 -179 0 *
Ve
1e-07
-2.02060048380692e-15 -5 16.5
0 0

0101101
*
Ed
 1e-07 1 1 0
1  134 0 16.5 32
2  157 60 0 16.5 32
4 G1 60 0 36 0
0

0101000
+177 0 -184 0 *
Ed
 1e-07 1 1 0
1  135 0 4.71238898038469 6.28318530717959
2  158 60 0 4.71238898038469 6.28318530717959
4 C0 60 0 53 0
0

0101000
+177 0 -195 0 *
Wi

0101100
+193 0 +182 0 -176 0 +175 0 *
Fa
0  1e-07 60 0

0111000
+174 0 *
Ed
 1e-07 1 1 0
1  136 0 0 3.14159265358979
2  159 57 0 0 3.14159265358979
4 C0 57 0 50 0
0

0101000
+210 0 -212 0 *
Ed
 1e-07 1 1 0
1  137 0 3.14159265358979 6.28318530717959
2  160 57 0 3.14159265358979 6.28318530717959
4 C0 57 0 49 0
0

0101000
+214 0 -215 0 *
Wi

0101100
+172 0 -211 0 +171 0 -208 0 *
Fa
0  1e-07 57 0

0111000
+170 0 *
Ed
 1e-07 1 1 0
1  138 0 3.14159265358979 6.28318530717959
2  161 54 0 3.14159265358979 6.28318530717959
4 C0 54 0 53 0
0

0101000
+224 0 -225 0 *
Wi

0101100
-180 0 -221 0 +168 0 -218 0 *
Fa
0  1e-07 54 0

0111000
+167 0 *
Wi

0101100
+171 0 +213 0 *
Ve
1e-07
2.02060048380692e-15 -5 -16.5
0 0

0101101
*
Ed
 1e-07 1 1 0
1  139 0 4.71238898038469 6.28318530717959
2  162 51 0 4.71238898038469 6.28318530717959
4 C0 49 0 51 0
0

0101000
+164 0 -232 0 *
Ve
1e-07
5 -5 -16.5
0 0

0101101
*
Ed
 1e-07 1 1 0
1  140 0 -0.5 4.5
4 C0 49 0 36 0
0

0101000
+162 0 -164 0 *
Ve
1e-07
5 -1.5 -16.5
0 0

0101101
*
Ed
 1e-07 1 1 0
1  141 0 1.5 5
4 C0 49 0 61 0
0

0101000
+160 0 -162 0 *
Ed
 1e-07 1 1 0
1  142 0 -0.92272799468645 -0.69242400177118
4 C0 49 0 37 0
0

0101000
+239 0 -160 0 *
Wi

0101100
-163 0 -161 0 -159 0 -158 0 -238 0 -229 0 *
Fa
0  1e-07 49 0

0111000
-165 0 -157 0 *
Ed
 1e-07 1 1 0
1  143 0 -28.875 -12.375
4 C0 61 0 37 0
0

0101000
+160 0 -266 0 *
Ed
 1e-07 1 1 0
1  144 0 15.75 33.25
4 C0 61 0 36 0
0

0101000
+186 0 -162 0 *
Ed
 1e-07 1 1 0
1  145 0 -16.75 -15.75
4 C0 61 0 37 0
0

0101000
+266 0 -188 0 *
Wi

0101100
-155 0 +159 0 -154 0 +185 0 -153 0 *
Fa
0  1e-07 61 0

0111000
+152 0 *
Ed
 1e-07 1 1 0
1  146 0 3.14159265358979 6.28318530717959
2  163 38 0 3.14159265358979 6.28318530717959
4 C0 37 0 38 0
0

0101000
+282 0 -283 0 *
Wi

0101100
+281 0 +150 0 *
Ed
 1e-07 1 1 0
1  147 0 3.14159265358979 6.28318530717959
2  164 42 0 3.14159265358979 6.28318530717959
4 C0 37 0 42 0
0

0101000
+265 0 -266 0 *
Wi

0101100
+264 0 +148 0 *
Ve
1e-07
5 -1.5 16.5
0 0

0101101
*
Ed
 1e-07 1 1 0
1  148 0 -12.375 -3.875
4 C0 37 0 62 0
0

0101000
+146 0 -283 0 *
Ve
1e-07
5 -1.5 33
0 0

0101101
*
Ed
 1e-07 1 1 0
1  149 0 -3.875 4.125
4 C0 37 0 62 0
0

0101000
+283 0 -144 0 *
Ve
1e-07
18 -1.5 33
0 0

0101101
*
Ed
 1e-07 1 1 0
1  150 0 0 13
4 C0 37 0 63 0
0

0101000
+142 0 -144 0 *
Ve
1e-07
18 -1.5 -33
0 0

0101101
*
Ed
 1e-07 1 1 0
1  151 0 0 66
4 C0 37 0 64 0
0

0101000
+142 0 -140 0 *
Ed
 1e-07 1 1 0
1  152 0 0 13.2303039929153
4 C0 37 0 50 0
0

0101000
+140 0 -237 0 *
Ed
 1e-07 1 1 0
1  153 0 -0.92272799468645 -0.69242400177118
4 C0 37 0 53 0
0

0101000
+202 0 -146 0 *
Wi

0101100
+145 0 +143 0 -141 0 +139 0 +138 0 -236 0 +158 0 +155 0 +153 0 +187 0 
-199 0 +137 0 *
Ed
 1e-07 1 1 0
1  154 0 3.14159265358979 6.28318530717959
2  165 46 0 3.14159265358979 6.28318530717959
4 C0 37 0 46 0
0

0101000
+248 0 -249 0 *
Wi

0101100
+247 0 +135 0 *
Fa
0  1e-07 37 0

0111000
+149 0 +147 0 +136 0 +134 0 *
Ve
1e-07
3.06395021355984e-15 -5 -33
0 0

0101101
*
Ed
 1e-07 1 1 0
1  155 0 0 1.5707963267949
2  166 51 0 0 1.5707963267949
4 C0 51 0 50 0
0

0101000
+231 0 -132 0 *
Ed
 1e-07 1 1 0
1  156 0 49.5 66
2  167 51 0 49.5 66
4 G1 51 0 36 0
0

0101000
+164 0 -132 0 *
Wi

0101100
+230 0 +131 0 -130 0 +163 0 *
Fa
0  1e-07 51 0

0111000
+129 0 *
Ve
1e-07
5 -5 16.5
0 0

0101101
*
Ed
 1e-07 1 1 0
1  157 0 1.5 5
4 C0 62 0 53 0
0

0101000
+146 0 -127 0 *
Ve
1e-07
5 -5 33
0 0

0101101
*
Ed
 1e-07 1 1 0
1  158 0 -4.125 12.375
4 C0 62 0 36 0
0

0101000
+125 0 -127 0 *
Ed
 1e-07 1 1 0
1  159 0 0.602173157456353 4.10217315745635
4 C0 62 0 63 0
0

0101000
+144 0 -125 0 *
Wi

0101100
-145 0 +126 0 -124 0 -123 0 -143 0 *
Fa
0  1e-07 62 0

0111000
+122 0 *
Wi

0101100
+168 0 +223 0 *
Ed
 1e-07 1 1 0
1  160 0 -0.5 4.5
4 C0 53 0 36 0
0

0101000
+127 0 -177 0 *
Wi

0101100
-137 0 -201 0 -192 0 -175 0 -119 0 -126 0 *
Fa
0  1e-07 53 0

0111000
-120 0 -118 0 *
Ed
 1e-07 1 1 0
1  161 0 3.14159265358979 6.28318530717959
2  168 46 0 3.14159265358979 6.28318530717959
2  169 45 0 3.14159265358979 6.28318530717959
4 C0 46 0 45 0
0

0101000
+258 0 -259 0 *
Wi

0101100
-116 0 -246 0 +135 0 -245 0 *
Fa
0  1e-07 46 0

0111000
+115 0 *
Ed
 1e-07 1 1 0
1  162 0 0 3.14159265358979
2  170 45 0 0 3.14159265358979
4 C0 45 0 36 0
0

0101000
+254 0 -256 0 *
Wi

0101100
+113 0 -255 0 +116 0 -252 0 *
Fa
0  1e-07 45 0

0111000
+112 0 *
Ed
 1e-07 1 1 0
1  163 0 3.14159265358979 6.28318530717959
2  171 42 0 3.14159265358979 6.28318530717959
2  172 41 0 3.14159265358979 6.28318530717959
4 C0 42 0 41 0
0

0101000
+275 0 -276 0 *
Wi

0101100
-110 0 -263 0 +148 0 -262 0 *
Fa
0  1e-07 42 0

0111000
+109 0 *
Ed
 1e-07 1 1 0
1  164 0 0 3.14159265358979
2  173 41 0 0 3.14159265358979
4 C0 41 0 36 0
0

0101000
+271 0 -273 0 *
Wi

0101100
+107 0 -272 0 +110 0 -269 0 *
Fa
0  1e-07 41 0

0111000
+106 0 *
Ed
 1e-07 1 1 0
1  165 0 3.14159265358979 6.28318530717959
2  174 38 0 3.14159265358979 6.28318530717959
2  175 35 0 3.14159265358979 6.28318530717959
4 C0 38 0 35 0
0

0101000
+292 0 -293 0 *
Wi

0101100
-104 0 -280 0 +150 0 -279 0 *
Fa
0  1e-07 38 0

0111000
+103 0 *
Ed
 1e-07 1 1 0
1  166 0 0 3.14159265358979
2  176 35 0 0 3.14159265358979
4 C0 35 0 36 0
0

0101000
+288 0 -290 0 *
Wi

0101100
+101 0 -289 0 +104 0 -286 0 *
Fa
0  1e-07 35 0

0111000
+100 0 *
Ve
1e-07
18 -5 -33
0 0

0101101
*
Ed
 1e-07 1 1 0
1  167 0 0 3.5
4 C0 64 0 50 0
0

0101000
+98 0 -140 0 *
Ve
1e-07
18 -5 33
0 0

0101101
*
Ed
 1e-07 1 1 0
1  168 0 0 3.5
4 C0 64 0 63 0
0

0101000
+96 0 -142 0 *
Ed
 1e-07 1 1 0
1  169 0 0 66
4 C0 64 0 36 0
0

0101000
+96 0 -98 0 *
Wi

0101100
+97 0 -139 0 -95 0 +94 0 *
Fa
0  1e-07 64 0

0111000
+93 0 *
Ed
 1e-07 1 1 0
1  170 0 0 18
4 C0 36 0 50 0
0

0101000
+132 0 -98 0 *
Ed
 1e-07 1 1 0
1  171 0 5.00000000000001 18
4 C0 36 0 63 0
0

0101000
+125 0 -96 0 *
Wi

0101100
+154 0 +161 0 +130 0 +91 0 -94 0 -90 0 +124 0 +119 0 +176 0 +183 0 
*
Wi

0101100
+113 0 +253 0 *
Wi

0101100
+107 0 +270 0 *
Wi

0101100
+101 0 +287 0 *
Fa
0  1e-07 36 0

0111000
+89 0 +88 0 +87 0 +86 0 *
Wi

0101100
+209 0 +172 0 *
Wi

0101100
-97 0 -91 0 -131 0 -228 0 -235 0 -138 0 *
Fa
0  1e-07 50 0

0111000
+84 0 +83 0 *
Wi

0101100
+123 0 +90 0 +95 0 +141 0 *
Fa
0  1e-07 63 0

0111000
-81 0 *
Sh

0101100
-284 0 -277 0 -267 0 -260 0 -250 0 -243 0 +233 0 +226 0 -216 0 -206 0 
+196 0 +189 0 -178 0 +173 0 -169 0 -166 0 -156 0 +151 0 +133 0 +128 0 
+121 0 -117 0 -114 0 -111 0 -108 0 -105 0 -102 0 -99 0 +92 0 +85 0 
+82 0 -80 0 *
So

0100000
+79 0 *
Ve
1e-07
2.45 3.00028556686482e-16 33.42
0 0

0101101
*
Ve
1e-07
2.45 3.00028556686482e-16 -33.42
0 0

0101101
*
Ed
 1e-07 1 1 0
1  172 0 -33.42 33.42
2  177 65 0 -33.42 33.42
2  178 66 0 -33.42 33.42
4 CN 65 0 66 0
0

0101000
+77 0 -76 0 *
Ve
1e-07
-3.00028556686482e-16 -2.45 33.42
0 0

0101101
*
Ed
 1e-07 1 1 0
1  173 0 0 1.5707963267949
2  179 65 0 0 1.5707963267949
2  180 67 0 0 1.5707963267949
4 C0 65 0 67 0
0

0101000
+77 0 -74 0 *
Ve
1e-07
-2.45 2.23490659572584e-16 33.42
0 0

0101101
*
Ed
 1e-07 1 1 0
1  174 0 1.5707963267949 3.14159265358979
2  181 65 0 1.5707963267949 3.14159265358979
2  182 68 0 1.5707963267949 3.14159265358979
4 C0 65 0 68 0
0

0101000
+74 0 -72 0 *
Ve
1e-07
-2.45 -3.76566453800381e-16 -33.42
0 0

0101101
*
Ed
 1e-07 1 1 0
1  175 0 -33.42 33.42
2  183 65 0 -33.42 33.42
2  184 66 0 -33.42 33.42
4 CN 65 0 66 0
0

0101000
+70 0 -72 0 *
Ve
1e-07
3.00028556686482e-16 -2.45 -33.42
0 0

0101101
*
Ed
 1e-07 1 1 0
1  176 0 3.14159265358979 4.71238898038469
2  185 65 0 3.14159265358979 4.71238898038469
2  186 69 0 3.14159265358979 4.71238898038469
4 C0 65 0 69 0
0

0101000
+70 0 -68 0 *
Ed
 1e-07 1 1 0
1  177 0 4.71238898038469 6.28318530717959
2  187 65 0 4.71238898038469 6.28318530717959
2  188 70 0 4.71238898038469 6.28318530717959
4 C0 65 0 70 0
0

0101000
+68 0 -76 0 *
Wi

0101100
-75 0 +73 0 +71 0 -69 0 +67 0 +66 0 *
Fa
0  1e-07 65 0

0111000
+65 0 *
Ve
1e-07
1.53075794227797e-16 -1.25 -34.32
0 0

0101101
*
Ed
 1e-07 1 1 0
1  178 0 0.283794109208329 1.5707963267949
2  189 69 0 0.283794109208329 1.5707963267949
2  190 70 0 0.283794109208329 1.5707963267949
4 CN 69 0 70 0
0

0101000
+68 0 -63 0 *
Ve
1e-07
-3.00028556686482e-16 2.45 -33.42
0 0

0101101
*
Ed
 1e-07 1 1 0
1  179 0 1.5707963267949 3.14159265358979
2  191 69 0 1.5707963267949 3.14159265358979
2  192 66 0 1.5707963267949 3.14159265358979
4 C0 69 0 66 0
0

0101000
+61 0 -70 0 *
Ve
1e-07
-1.53075794227797e-16 1.25 -34.32
0 0

0101101
*
Ed
 1e-07 1 1 0
1  180 0 4.71238898038469 5.99939119797126
2  193 69 0 4.71238898038469 5.99939119797126
2  194 70 0 4.71238898038469 5.99939119797126
4 CN 69 0 70 0
0

0101000
+59 0 -61 0 *
Ve
1e-07
-1.25 -1.53075794227798e-16 -34.32
0 0

0101101
*
Ed
 1e-07 1 1 0
1  181 0 3.14159265358979 4.71238898038469
2  195 69 0 3.14159265358979 4.71238898038469
2  196 71 0 3.14159265358979 4.71238898038469
4 C0 69 0 71 0
0

0101000
+57 0 -59 0 *
Ed
 1e-07 1 1 0
1  182 0 1.5707963267949 3.14159265358979
2  197 69 0 1.5707963267949 3.14159265358979
2  198 72 0 1.5707963267949 3.14159265358979
4 C0 69 0 72 0
0

0101000
+63 0 -57 0 *
Wi

0101100
-62 0 -67 0 -60 0 -58 0 -56 0 -55 0 *
Fa
0  1e-07 69 0

0111000
+54 0 *
Ve
1e-07
1.25 1.93487803903936e-16 -34.98
0 0

0101101
*
Ve
1e-07
1.25 0 -34.32
0 0

0101101
*
Ed
 1e-07 1 1 0
1  183 0 -0.0349999999999966 0.625
2  199 71 0 -0.0349999999999966 0.625
2  200 72 0 -0.0349999999999966 0.625
4 CN 71 0 72 0
0

0101000
+52 0 -51 0 *
Ve
1e-07
-1.25 1.93487803903936e-16 -34.98
0 0

0101101
*
Ed
 1e-07 1 1 0
1  184 0 3.14159265358979 6.28318530717959
2  201 71 0 3.14159265358979 6.28318530717959
4 C0 71 0 73 0
0

0101000
+49 0 -52 0 *
Ed
 1e-07 1 1 0
1  185 0 -0.625 0.0349999999999966
2  202 71 0 -0.625 0.0349999999999966
2  203 72 0 -0.625 0.0349999999999966
4 CN 71 0 72 0
0

0101000
+57 0 -49 0 *
Ed
 1e-07 1 1 0
1  186 0 4.71238898038469 6.28318530717959
2  204 71 0 4.71238898038469 6.28318530717959
2  205 70 0 4.71238898038469 6.28318530717959
4 C0 71 0 70 0
0

0101000
+59 0 -51 0 *
Wi

0101100
-50 0 -48 0 -47 0 +56 0 +46 0 *
Fa
0  1e-07 71 0

0111000
+45 0 *
Ve
1e-07
3.00028556686482e-16 2.45 33.42
0 0

0101101
*
Ve
1e-07
1.53075794227797e-16 1.25 34.32
0 0

0101101
*
Ed
 1e-07 1 1 0
1  187 0 0.283794109208329 1.5707963267949
2  206 68 0 0.283794109208329 1.5707963267949
2  207 67 0 0.283794109208329 1.5707963267949
4 CN 68 0 67 0
0

0101000
+43 0 -42 0 *
Ed
 1e-07 1 1 0
1  188 0 3.14159265358979 4.71238898038469
2  208 68 0 3.14159265358979 4.71238898038469
2  209 66 0 3.14159265358979 4.71238898038469
4 C0 68 0 66 0
0

0101000
+72 0 -43 0 *
Ve
1e-07
-1.53075794227797e-16 -1.25 34.32
0 0

0101101
*
Ed
 1e-07 1 1 0
1  189 0 4.71238898038469 5.99939119797126
2  210 68 0 4.71238898038469 5.99939119797126
2  211 67 0 4.71238898038469 5.99939119797126
4 CN 68 0 67 0
0

0101000
+39 0 -74 0 *
Ve
1e-07
-1.25 1.53075794227797e-16 34.32
0 0

0101101
*
Ed
 1e-07 1 1 0
1  190 0 3.14159265358979 4.71238898038469
2  212 68 0 3.14159265358979 4.71238898038469
2  213 74 0 3.14159265358979 4.71238898038469
4 C0 68 0 74 0
0

0101000
+37 0 -39 0 *
Ed
 1e-07 1 1 0
1  191 0 1.5707963267949 3.14159265358979
2  214 68 0 1.5707963267949 3.14159265358979
2  215 75 0 1.5707963267949 3.14159265358979
4 C0 68 0 75 0
0

0101000
+42 0 -37 0 *
Wi

0101100
-41 0 -40 0 -71 0 -38 0 -36 0 -35 0 *
Fa
0  1e-07 68 0

0111000
+34 0 *
Ve
1e-07
1.25 -1.12663784551658e-16 34.98
0 0

0101101
*
Ve
1e-07
1.25 0 34.32
0 0

0101101
*
Ed
 1e-07 1 1 0
1  192 0 -0.0349999999999966 0.625
2  216 74 0 -0.0349999999999966 0.625
2  217 75 0 -0.0349999999999966 0.625
4 CN 74 0 75 0
0

0101000
+32 0 -31 0 *
Ve
1e-07
-1.25 -1.12663784551658e-16 34.98
0 0

0101101
*
Ed
 1e-07 1 1 0
1  193 0 3.14159265358979 6.28318530717959
2  218 74 0 3.14159265358979 6.28318530717959
4 C0 74 0 76 0
0

0101000
+29 0 -32 0 *
Ed
 1e-07 1 1 0
1  194 0 -0.625 0.0349999999999966
2  219 74 0 -0.625 0.0349999999999966
2  220 75 0 -0.625 0.0349999999999966
4 CN 74 0 75 0
0

0101000
+37 0 -29 0 *
Ed
 1e-07 1 1 0
1  195 0 4.71238898038469 6.28318530717959
2  221 74 0 4.71238898038469 6.28318530717959
2  222 67 0 4.71238898038469 6.28318530717959
4 C0 74 0 67 0
0

0101000
+39 0 -31 0 *
Wi

0101100
-30 0 -28 0 -27 0 +36 0 +26 0 *
Fa
0  1e-07 74 0

0111000
+25 0 *
Ed
 1e-07 1 1 0
1  196 0 0 1.5707963267949
2  223 75 0 0 1.5707963267949
2  224 67 0 0 1.5707963267949
4 C0 75 0 67 0
0

0101000
+31 0 -42 0 *
Ed
 1e-07 1 1 0
1  197 0 0 3.14159265358979
2  225 75 0 0 3.14159265358979
4 C0 75 0 76 0
0

0101000
+32 0 -29 0 *
Wi

0101100
+30 0 +23 0 +35 0 +27 0 -22 0 *
Fa
0  1e-07 75 0

0111000
+21 0 *
Ed
 1e-07 1 1 0
1  198 0 4.71238898038469 6.28318530717959
2  226 67 0 4.71238898038469 6.28318530717959
2  227 66 0 4.71238898038469 6.28318530717959
4 C0 67 0 66 0
0

0101000
+43 0 -77 0 *
Wi

0101100
+41 0 -23 0 -26 0 +38 0 -73 0 -19 0 *
Fa
0  1e-07 67 0

0111000
+18 0 *
Ed
 1e-07 1 1 0
1  199 0 0 1.5707963267949
2  228 72 0 0 1.5707963267949
2  229 70 0 0 1.5707963267949
4 C0 72 0 70 0
0

0101000
+51 0 -63 0 *
Ed
 1e-07 1 1 0
1  200 0 0 3.14159265358979
2  230 72 0 0 3.14159265358979
4 C0 72 0 73 0
0

0101000
+52 0 -49 0 *
Wi

0101100
+50 0 +16 0 +55 0 +47 0 -15 0 *
Fa
0  1e-07 72 0

0111000
+14 0 *
Ed
 1e-07 1 1 0
1  201 0 0 1.5707963267949
2  231 70 0 0 1.5707963267949
2  232 66 0 0 1.5707963267949
4 C0 70 0 66 0
0

0101000
+76 0 -61 0 *
Wi

0101100
+62 0 -16 0 -46 0 +58 0 -12 0 -66 0 *
Fa
0  1e-07 70 0

0111000
+11 0 *
Wi

0101100
+75 0 +12 0 +60 0 +69 0 +40 0 +19 0 *
Fa
0  1e-07 66 0

0111000
+9 0 *
Wi

0101100
+28 0 +22 0 *
Fa
0  1e-07 76 0

0111000
+7 0 *
Wi

0101100
+48 0 +15 0 *
Fa
0  1e-07 73 0

0111000
+5 0 *
Sh

0101100
+64 0 +53 0 +44 0 +33 0 +24 0 +20 0 +17 0 +13 0 +10 0 +8 0 
+6 0 +4 0 *
So

0100000
+3 0 *
Co

1100000
+294 0 +78 0 +2 0 *

+1 0 