DBRep_DrawableShape

CASCADE Topology V1, (c) Matra-Datavision
Locations 0
Curve2ds 164
1 0 -1.4500000000000002 1 0 
1 6.2831853071795862 -1.4849242404917518 -1 4.2407395752846889e-16 
1 3.1415926535897931 0 0 1 
1 3.1415926535897931 0 0 1 
1 6.2831853071795862 1.3499999999999996 -1 0 
1 0 0 0 -1 
1 6.2831853071795862 0 0 -1 
1 6.2831853071795862 1.4849242404917491 -1 3.5339496460705749e-16 
1 0 0.49999999999999978 1 1.41357985842823e-16 
1 3.1415926535897936 4.4408920985006262e-16 -1.4953261511274039e-16 -1 
1 3.1415926535897936 4.4408920985006262e-16 -1.4953261511274039e-16 -1 
1 6.2831853071795862 -1.3322676295501878e-15 0 1 
1 0 -1.3322676295501878e-15 0 1 
1 0 0.40000000000000013 1 -1.41357985842823e-16 
1 3.1415926535897927 0.44999999999999951 0 1 
1 3.1415926535897927 0.44999999999999951 0 1 
1 0 0.44999999999999996 0 -1 
1 6.2831853071795862 0.44999999999999996 0 -1 
1 0 -1.4500000000000002 1 0 
1 6.2831853071795862 -1.4849242404917504 -1 0 
1 3.1415926535897931 0 0 1 
1 3.1415926535897931 0 0 1 
1 6.2831853071795862 1.3499999999999996 -1 0 
1 0 0 0 -1 
1 6.2831853071795862 0 0 -1 
1 6.2831853071795862 1.4849242404917504 -1 -7.0678992921411486e-17 
1 0 0.49999999999999978 1 1.4135798584282297e-16 
1 3.1415926535897931 4.4408920985006262e-16 0 -1 
1 3.1415926535897931 4.4408920985006262e-16 0 -1 
1 6.2831853071795862 0 0 1 
1 0 0 0 1 
1 0 0.40000000000000013 1 -1.4135798584282297e-16 
1 3.1415926535897931 0.44999999999999951 0 1 
1 3.1415926535897931 0.44999999999999951 0 1 
1 0 0.44999999999999996 0 -1 
1 6.2831853071795862 0.44999999999999996 0 -1 
1 0 -10 1 0 
1 3.1415926535897931 0 0 1 
1 3.1415926535897931 0 0 1 
1 0 9 1 0 
1 0 0 0 -1 
1 6.2831853071795862 0 0 -1 
1 3.1415926535897931 24.5 0 -1 
1 3.1415926535897931 24.5 0 -1 
1 0 15 1 0 
1 3.4313443550258391 0 0 1 
1 6.2831853071795862 34 -1 0 
1 0 24.5 0 1 
1 6.2831853071795862 24.5 0 1 
1 0 15 1 0 
1 6.2831853071795862 34 -1 0 
1 6.2831853071795862 34 -1 0 
1 0 9 1 0 
1 4.7123889803846897 0 0 1 
1 0 15 1 0 
1 0 -10 1 0 
1 -4.4408920985006262e-16 0.39999999999999925 1 1.4135798584282295e-16 
1 0 0.39999999999999925 1 1.4135798584282297e-16 
1 0 0.50000000000000067 1 -1.4135798584282297e-16 
1 6.2831853071795862 1.48492424049175 -1 7.0678992921411486e-17 
1 6.2831853071795862 -1.4849242404917504 -1 0 
1 0 -1.4500000000000002 1 0 
1 6.2831853071795862 1.3499999999999996 -1 0 
1 -4.4408920985006262e-16 0.50000000000000067 1 -1.4135798584282295e-16 
1 6.2831853071795862 1.4849242404917513 -1 -3.5339496460705739e-16 
1 6.2831853071795862 -1.4849242404917491 -1 -4.2407395752846889e-16 
1 0 -1.4500000000000002 1 0 
1 6.2831853071795862 1.3499999999999996 -1 0 
1 0 -1.4500000000000002 1 0 
1 6.2831853071795862 -1.4849242404917504 -1 0 
1 3.1415926535897931 0 0 1 
1 3.1415926535897931 0 0 1 
1 6.2831853071795862 1.3499999999999996 -1 0 
1 0 0 0 -1 
1 6.2831853071795862 0 0 -1 
1 6.2831853071795862 1.4849242404917504 -1 -7.0678992921411486e-17 
1 0 0.49999999999999978 1 1.4135798584282297e-16 
1 3.1415926535897931 4.4408920985006262e-16 0 -1 
1 3.1415926535897931 4.4408920985006262e-16 0 -1 
1 6.2831853071795862 0 0 1 
1 0 0 0 1 
1 0 0.40000000000000013 1 -1.4135798584282297e-16 
1 3.1415926535897931 0.44999999999999951 0 1 
1 3.1415926535897931 0.44999999999999951 0 1 
1 0 0.44999999999999996 0 -1 
1 6.2831853071795862 0.44999999999999996 0 -1 
1 0 -1.4500000000000002 1 0 
1 6.2831853071795862 -1.4849242404917504 -1 0 
1 3.1415926535897931 0 0 1 
1 3.1415926535897931 0 0 1 
1 6.2831853071795862 1.3499999999999996 -1 0 
1 0 0 0 -1 
1 6.2831853071795862 0 0 -1 
1 6.2831853071795862 1.4849242404917504 -1 -7.0678992921411486e-17 
1 0 0.49999999999999978 1 1.4135798584282297e-16 
1 3.1415926535897931 4.4408920985006262e-16 0 -1 
1 3.1415926535897931 4.4408920985006262e-16 0 -1 
1 6.2831853071795862 0 0 1 
1 0 0 0 1 
1 0 0.40000000000000013 1 -1.4135798584282297e-16 
1 3.1415926535897931 0.44999999999999951 0 1 
1 3.1415926535897931 0.44999999999999951 0 1 
1 0 0.44999999999999996 0 -1 
1 6.2831853071795862 0.44999999999999996 0 -1 
1 3.1415926535897931 0 0 -1 
1 3.1415926535897931 0 0 -1 
1 0 0 1 0 
1 3.4313443550258391 0 0 1 
1 6.2831853071795862 15 -1 0 
1 0 0 0 1 
1 6.2831853071795862 0 0 1 
1 0 0 1 0 
1 6.2831853071795862 15 -1 0 
1 6.2831853071795862 -23 -1 0 
1 3.1415926535897931 -17 0 1 
1 3.1415926535897931 -17 0 1 
1 0 -11 1 0 
1 0 -17 0 -1 
1 6.2831853071795862 -17 0 -1 
1 0 10 1 0 
1 3.1415926535897931 16.5 0 1 
1 3.1415926535897931 16.5 0 1 
1 0 23 1 0 
1 0 16.5 0 -1 
1 6.2831853071795862 16.5 0 -1 
1 3.1415926535897931 43 0 -1 
1 3.1415926535897931 43 0 -1 
1 0 36 1 0 
1 3.4313443550258391 0 0 1 
1 6.2831853071795862 50 -1 0 
1 0 43 0 1 
1 6.2831853071795862 43 0 1 
1 0 36 1 0 
1 6.2831853071795862 50 -1 0 
1 0 -11 1 0 
1 0 36 1 0 
1 6.2831853071795862 50 -1 0 
1 4.7123889803846897 0 0 1 
1 0 23 1 0 
1 0 10 1 0 
1 6.2831853071795862 -23 -1 0 
1 6.2831853071795862 15 -1 0 
1 0 0.39999999999999925 1 1.4135798584282297e-16 
1 0 0.39999999999999925 1 1.4135798584282297e-16 
1 4.7123889803846897 0 0 1 
1 0 0 1 0 
1 0 0.50000000000000067 1 -1.4135798584282297e-16 
1 6.2831853071795862 1.48492424049175 -1 7.0678992921411486e-17 
1 6.2831853071795862 -1.4849242404917504 -1 0 
1 0 -1.4500000000000002 1 0 
1 6.2831853071795862 1.3499999999999996 -1 0 
1 0 0.50000000000000067 1 -1.4135798584282297e-16 
1 6.2831853071795862 1.48492424049175 -1 7.0678992921411486e-17 
1 6.2831853071795862 -1.4849242404917504 -1 0 
1 0 -1.4500000000000002 1 0 
1 6.2831853071795862 1.3499999999999996 -1 0 
1 0 0 0 1 
1 6.2831853071795862 0 0 1 
1 6.2831853071795862 -24.5 -1 0 
1 3.1415926535897931 0 0 -1 
1 3.1415926535897931 0 0 -1 
1 0 24.5 1 0 
1 0 24.5 1 0 
1 6.2831853071795862 -24.5 -1 0 
Curves 146
2 17.5 -4.2000000000000002 -15 -6.12303176911189e-17 -1 -7.4983036091106899e-33 -1 6.12303176911189e-17 -1.22460635382238e-16 1.22460635382238e-16 -1.7789921910373654e-47 -1 2.2000000000000002
1 19.699999999999999 -5.6500000000000004 -15 -6.12303176911189e-17 -1 -7.4983036091106899e-33 
2 17.5 -7 -15 -1.06581410364015e-16 1 -1.3052027233112299e-32 -1 -1.06581410364015e-16 -1.22460635382238e-16 -1.22460635382238e-16 -2.4632199568209675e-47 1 2.2000000000000002
1 15.300000000000001 -5.6500000000000004 -15 6.12303176911189e-17 1 7.4983036091106899e-33 
2 17.5 -2.1000000000000001 -15 -6.12303176911189e-17 -1 -7.4983036091106899e-33 -1 6.12303176911189e-17 -1.22460635382238e-16 1.22460635382238e-16 -1.7789921910373654e-47 -1 4.2999999999999998
1 20.75 -3.1499999999999999 -15 -0.70710678118654757 -0.70710678118654757 -5.3021013293977263e-33 
1 14.25 -3.1499999999999999 -15 -0.70710678118654757 0.70710678118654757 5.3021013293977263e-33 
2 17.5 -2 -15 -1.21390269225416e-17 -1 -1.4865529498565399e-33 -1 1.21390269225416e-17 -1.22460635382238e-16 1.22460635382238e-16 2.3947971802426073e-48 -1 4.2999999999999998
1 21.800000000000001 -2.0499999999999998 -15 -6.12303176911189e-17 -1 -7.4983036091106899e-33 
1 13.199999999999999 -2.0499999999999998 -15 6.12303176911189e-17 1 7.4983036091106899e-33 
2 17.5 -4.2000000000000002 -35 -6.12303176911189e-17 -1 -7.4983036091106899e-33 -1 6.12303176911189e-17 -1.22460635382238e-16 1.22460635382238e-16 -1.7789921910373654e-47 -1 2.2000000000000002
1 19.699999999999999 -5.6500000000000004 -35 -6.12303176911189e-17 -1 -7.4983036091106899e-33 
2 17.5 -7 -35 -1.06581410364015e-16 1 -1.3052027233112299e-32 -1 -1.06581410364015e-16 -1.22460635382238e-16 -1.22460635382238e-16 -2.4632199568209675e-47 1 2.2000000000000002
1 15.300000000000001 -5.6500000000000004 -35 6.12303176911189e-17 1 7.4983036091106899e-33 
2 17.5 -2.1000000000000001 -35 -6.12303176911189e-17 -1 -7.4983036091106899e-33 -1 6.12303176911189e-17 -1.22460635382238e-16 1.22460635382238e-16 -1.7789921910373654e-47 -1 4.2999999999999998
1 20.75 -3.1499999999999999 -35 -0.70710678118654757 -0.70710678118654757 -5.3021013293977263e-33 
1 14.25 -3.1499999999999999 -35 -0.70710678118654757 0.70710678118654757 5.3021013293977263e-33 
2 17.5 -2 -35 -1.21390269225416e-17 -1 -1.4865529498565399e-33 -1 1.21390269225416e-17 -1.22460635382238e-16 1.22460635382238e-16 2.3947971802426073e-48 -1 4.2999999999999998
1 21.800000000000001 -2.0499999999999998 -35 -6.12303176911189e-17 -1 -7.4983036091106899e-33 
1 13.199999999999999 -2.0499999999999998 -35 6.12303176911189e-17 1 7.4983036091106899e-33 
2 1.8369095307335698e-15 0 -15 1.22460635382238e-16 0 -1 -1 0 -1.22460635382238e-16 0 1 0 3
1 3 3.6738190614671298e-16 -25 1.22460635382238e-16 0 -1 
2 4.1636616029960803e-15 0 -34 -0 0 -1 -1 0 0 0 1 0 3
1 -3 -3.6738190614671298e-16 -25 -1.22460635382238e-16 0 1 
1 7 1.0103002419034601e-15 -24.5 -1.22460635382238e-16 -0 1 
2 1.8369095307335698e-15 1.5307579422779701e-16 -15 1.22460635382238e-16 0 -1 -1 0 -1.22460635382238e-16 0 1 0 7
1 6.7082039324993703 -1.99999999999999 8.21490915847499e-16 1.22460635382238e-16 0 -1 
2 4.1636616029960803e-15 1.5307579422779701e-16 -34 0 0 1 -1 0 0 0 -1 0 7
1 -7 -7.0414865344786702e-16 -24.5 1.22460635382238e-16 0 -1 
2 1.8369095307335698e-15 1.5307579422779701e-16 -15 1.22460635382238e-16 0 -1 -1 0 -1.22460635382238e-16 0 1 0 7
2 4.1636616029960803e-15 1.5307579422779701e-16 -34 0 0 1 -1 0 0 0 -1 0 7
1 7.9270509831248397 -2 -34 -1 1.21390269225416e-17 0 
1 7 0 -34 0 1 0 
1 6.25 -7 -34 1 1.06581410364015e-16 -0 
2 4.1636616029960803e-15 1.5307579422779701e-16 -34 0 0 1 -1 0 0 0 -1 0 7
2 4.1636616029960803e-15 0 -34 -0 0 -1 -1 0 0 0 1 0 3
1 1.68674833414861e-15 -7 2.0656027272976901e-31 1.22460635382238e-16 0 -1 
2 1.8369095307335698e-15 1.5307579422779701e-16 -15 1.22460635382238e-16 0 -1 -1 0 -1.22460635382238e-16 0 1 0 7
2 1.8369095307335698e-15 0 -15 1.22460635382238e-16 0 -1 -1 0 -1.22460635382238e-16 0 1 0 3
1 7 -2 -17.25 0 -1.4865529498565399e-33 1 
1 7.0000000000000098 -1.24007417304861 -50 0 1 0 
1 7 -7 -17.25 -0 -1.3052027233112299e-32 -1 
1 25 -2 -50 -1 1.21390269225416e-17 -1.22460635382238e-16 
1 25 -7 -50 0 1 0 
1 7.8097801032604904e-15 -7 -50 1 1.06581410364015e-16 1.22460635382238e-16 
1 7.9270509831248503 -2 -15 1 -1.21390269225416e-17 1.22460635382238e-16 
1 7 -2 -3.75 -1.22460635382238e-16 0 1 
1 25 -2 3.06151588455594e-15 -1 1.21390269225416e-17 -1.22460635382238e-16 
1 25 -2 3.06151588455594e-15 1.22460635382238e-16 0 -1 
2 17.5 -2 -15 -1.21390269225416e-17 -1 -1.4865529498565399e-33 -1 1.21390269225416e-17 -1.22460635382238e-16 1.22460635382238e-16 2.3947971802426073e-48 -1 4.2999999999999998
2 17.5 -2 -35 -1.21390269225416e-17 -1 -1.4865529498565399e-33 -1 1.21390269225416e-17 -1.22460635382238e-16 1.22460635382238e-16 2.3947971802426073e-48 -1 4.2999999999999998
1 7 0 -15 0 -1 -0 
1 7 -7 -3.75 1.22460635382238e-16 0 -1 
1 7 -1.24007417304861 8.5722444767566398e-16 0 -1 -0 
1 6.25 -7 -15 -1 -1.06581410364015e-16 -1.22460635382238e-16 
2 17.5 -2.1000000000000001 -35 -6.12303176911189e-17 -1 -7.4983036091106899e-33 -1 6.12303176911189e-17 -1.22460635382238e-16 1.22460635382238e-16 -1.7789921910373654e-47 -1 4.2999999999999998
2 17.5 -4.2000000000000002 -35 -6.12303176911189e-17 -1 -7.4983036091106899e-33 -1 6.12303176911189e-17 -1.22460635382238e-16 1.22460635382238e-16 -1.7789921910373654e-47 -1 2.2000000000000002
2 17.5 -7 -35 -1.06581410364015e-16 1 -1.3052027233112299e-32 -1 -1.06581410364015e-16 -1.22460635382238e-16 -1.22460635382238e-16 -2.4632199568209675e-47 1 2.2000000000000002
2 17.5 -2.1000000000000001 -15 -6.12303176911189e-17 -1 -7.4983036091106899e-33 -1 6.12303176911189e-17 -1.22460635382238e-16 1.22460635382238e-16 -1.7789921910373654e-47 -1 4.2999999999999998
2 17.5 -4.2000000000000002 -15 -6.12303176911189e-17 -1 -7.4983036091106899e-33 -1 6.12303176911189e-17 -1.22460635382238e-16 1.22460635382238e-16 -1.7789921910373654e-47 -1 2.2000000000000002
2 17.5 -7 -15 -1.06581410364015e-16 1 -1.3052027233112299e-32 -1 -1.06581410364015e-16 -1.22460635382238e-16 -1.22460635382238e-16 -2.4632199568209675e-47 1 2.2000000000000002
1 25 -7 3.06151588455594e-15 0 1 0 
1 25 -7 3.06151588455594e-15 1.22460635382238e-16 0 -1 
1 1.68674833414861e-15 -7 2.0656027272976901e-31 1 1.06581410364015e-16 1.22460635382238e-16 
2 -17.5 -4.2000000000000002 -35 6.12303176911189e-17 -1 0 1 6.12303176911189e-17 0 -0 0 1 2.2000000000000002
1 -19.699999999999999 -5.6500000000000004 -35 6.12303176911189e-17 -1 0 
2 -17.5 -7 -35 1.06581410364015e-16 1 0 1 -1.06581410364015e-16 0 0 0 -1 2.2000000000000002
1 -15.300000000000001 -5.6500000000000004 -35 -6.12303176911189e-17 1 -0 
2 -17.5 -2.1000000000000001 -35 6.12303176911189e-17 -1 0 1 6.12303176911189e-17 0 -0 0 1 4.2999999999999998
1 -20.75 -3.1499999999999999 -35 0.70710678118654757 -0.70710678118654757 -0 
1 -14.25 -3.1499999999999999 -35 0.70710678118654757 0.70710678118654757 0 
2 -17.5 -2 -35 1.21390269225416e-17 -1 0 1 1.21390269225416e-17 0 -0 0 1 4.2999999999999998
1 -21.800000000000001 -2.0499999999999998 -35 6.12303176911189e-17 -1 0 
1 -13.199999999999999 -2.0499999999999998 -35 -6.12303176911189e-17 1 -0 
2 -17.5 -4.2000000000000002 -15 6.12303176911189e-17 -1 0 1 6.12303176911189e-17 0 -0 0 1 2.2000000000000002
1 -19.699999999999999 -5.6500000000000004 -15 6.12303176911189e-17 -1 0 
2 -17.5 -7 -15 1.06581410364015e-16 1 0 1 -1.06581410364015e-16 0 0 0 -1 2.2000000000000002
1 -15.300000000000001 -5.6500000000000004 -15 -6.12303176911189e-17 1 -0 
2 -17.5 -2.1000000000000001 -15 6.12303176911189e-17 -1 0 1 6.12303176911189e-17 0 -0 0 1 4.2999999999999998
1 -20.75 -3.1499999999999999 -15 0.70710678118654757 -0.70710678118654757 -0 
1 -14.25 -3.1499999999999999 -15 0.70710678118654757 0.70710678118654757 0 
2 -17.5 -2 -15 1.21390269225416e-17 -1 0 1 1.21390269225416e-17 0 -0 0 1 4.2999999999999998
1 -21.800000000000001 -2.0499999999999998 -15 6.12303176911189e-17 -1 0 
1 -13.199999999999999 -2.0499999999999998 -15 -6.12303176911189e-17 1 -0 
1 -7 1.0103002419034601e-15 -50 -0 -0 -1 
2 0 1.5307579422779701e-16 -50 0 0 1 1 0 -0 -0 1 0 7
1 -6.7082039324993703 -1.99999999999999 -50 0 0 1 
2 0 1.5307579422779701e-16 -35 0 0 -1 1 0 0 0 -1 0 7
1 7 -7.0414865344786702e-16 -50 0 0 1 
2 0 1.5307579422779701e-16 -50 0 0 1 1 0 -0 -0 1 0 7
2 0 1.5307579422779701e-16 -35 0 0 -1 1 0 0 0 -1 0 7
2 0 0 -2 0 0 1 1 0 -0 -0 1 0 3
1 -3 -3.6738190614671298e-16 -8 -0 -0 -1 
2 0 0 -14 0 0 -1 1 0 0 0 -1 0 3
1 3 3.6738190614671298e-16 -8 -0 -0 1 
2 0 0 -35 0 0 -1 1 0 0 0 -1 0 3
1 -3 -3.6738190614671298e-16 -41.5 -0 -0 -1 
2 0 0 -48 0 0 -1 1 0 0 0 -1 0 3
1 3 3.6738190614671298e-16 -41.5 -0 -0 1 
1 -7 1.0103002419034601e-15 -7 -0 -0 -1 
2 0 1.5307579422779701e-16 -14 0 0 1 1 0 -0 -0 1 0 7
1 -6.7082039324993703 -1.99999999999999 -50 0 0 1 
2 0 1.5307579422779701e-16 0 0 0 -1 1 0 0 0 -1 0 7
1 7 -7.0414865344786702e-16 -7 0 0 1 
2 0 1.5307579422779701e-16 -14 0 0 1 1 0 -0 -0 1 0 7
2 0 1.5307579422779701e-16 0 0 0 -1 1 0 0 0 -1 0 7
2 0 0 -14 0 0 -1 1 0 0 0 -1 0 3
1 -7.9270509831248397 -2 -14 -1 -1.21390269225416e-17 0 
2 0 1.5307579422779701e-16 -14 0 0 1 1 0 -0 -0 1 0 7
1 -6.25 -7 -14 1 -1.06581410364015e-16 0 
1 -7 0 -14 0 -1 0 
2 0 1.5307579422779701e-16 0 0 0 -1 1 0 0 0 -1 0 7
1 -1.68674833414861e-15 -7 -50 0 0 1 
2 0 0 -48 0 0 -1 1 0 0 0 -1 0 3
2 0 0 -35 0 0 -1 1 0 0 0 -1 0 3
2 0 0 -2 0 0 1 1 0 -0 -0 1 0 3
1 -7 -2 -32.25 0 0 -1 
1 -7 -7 -32.25 -0 0 1 
1 -7 0 -35 0 1 0 
1 -7.9270509831248397 -2 -35 1 1.21390269225416e-17 -0 
1 -6.25 -7 -35 -1 1.06581410364015e-16 0 
2 0 1.5307579422779701e-16 -35 0 0 -1 1 0 0 0 -1 0 7
1 -25 -2 -50 1 1.21390269225416e-17 0 
1 -25 -2 -50 0 0 1 
1 -25 -2 0 1 1.21390269225416e-17 0 
2 -17.5 -2 -35 1.21390269225416e-17 -1 0 1 1.21390269225416e-17 0 -0 0 1 4.2999999999999998
2 -17.5 -2 -15 1.21390269225416e-17 -1 0 1 1.21390269225416e-17 0 -0 0 1 4.2999999999999998
1 -1.68674833414861e-15 -7 -50 0 0 1 
2 0 1.5307579422779701e-16 -50 0 0 1 1 0 -0 -0 1 0 7
2 -17.5 -2.1000000000000001 -15 6.12303176911189e-17 -1 0 1 6.12303176911189e-17 0 -0 0 1 4.2999999999999998
2 -17.5 -4.2000000000000002 -15 6.12303176911189e-17 -1 0 1 6.12303176911189e-17 0 -0 0 1 2.2000000000000002
2 -17.5 -7 -15 1.06581410364015e-16 1 0 1 -1.06581410364015e-16 0 0 0 -1 2.2000000000000002
2 -17.5 -2.1000000000000001 -35 6.12303176911189e-17 -1 0 1 6.12303176911189e-17 0 -0 0 1 4.2999999999999998
2 -17.5 -4.2000000000000002 -35 6.12303176911189e-17 -1 0 1 6.12303176911189e-17 0 -0 0 1 2.2000000000000002
2 -17.5 -7 -35 1.06581410364015e-16 1 0 1 -1.06581410364015e-16 0 0 0 -1 2.2000000000000002
1 -25 -7 0 0 1 0 
1 -25 -7 -50 0 1 0 
1 -25 -7 -50 0 0 1 
1 -1.68674833414861e-15 -7 0 -1 1.06581410364015e-16 0 
1 -1.68674833414861e-15 -7 -50 -1 1.06581410364015e-16 0 
1 3 3.6738190614671298e-16 -25 0 0 -1 
2 0 0 -0.5 0 0 1 1 0 -0 -0 1 0 3
1 -3 -3.6738190614671298e-16 -25 -0 -0 1 
2 0 0 -49.5 0 0 -1 1 0 0 0 -1 0 3
2 0 0 -49.5 0 0 -1 1 0 0 0 -1 0 3
2 0 0 -0.5 0 0 1 1 0 -0 -0 1 0 3
Polygon3D 0
PolygonOnTriangulations 0
Surfaces 62
2 17.5 -5.6500000000000004 -15 -6.12303176911189e-17 -1 -7.4983036091106899e-33 -1 6.12303176911189e-17 -1.22460635382238e-16 1.22460635382238e-16 -1.7789921910373654e-47 -1 2.2000000000000002
3 17.5 -3.1499999999999999 -15 6.12303176911189e-17 1 7.4983036091106899e-33 -1 6.12303176911189e-17 -1.22460635382238e-16 -1.22460635382238e-16 1.7789921910373654e-47 1 3.25
0.78539816339744795
2 17.5 -5.6500000000000004 -15 -6.12303176911189e-17 -1 -7.4983036091106899e-33 -1 6.12303176911189e-17 -1.22460635382238e-16 1.22460635382238e-16 -1.7789921910373654e-47 -1 2.2000000000000002
1 12.5 -7 1.53075794227797e-15 1.06581410364015e-16 -1 1.3052027233112299e-32 -1 -1.06581410364015e-16 -1.22460635382238e-16 1.22460635382238e-16 2.4632199568209675e-47 -1 
2 17.5 -1.6000000000000001 -15 -6.12303176911189e-17 -1 -7.4983036091106899e-33 -1 6.12303176911189e-17 -1.22460635382238e-16 1.22460635382238e-16 -1.7789921910373654e-47 -1 4.2999999999999998
3 17.5 -3.1499999999999999 -15 6.12303176911189e-17 1 7.4983036091106899e-33 -1 6.12303176911189e-17 -1.22460635382238e-16 -1.22460635382238e-16 1.7789921910373654e-47 1 3.25
0.78539816339744795
1 15.854101966249701 -2 1.9415034002017199e-15 1.21390269225416e-17 1 1.4865529498565399e-33 1 -1.21390269225416e-17 1.22460635382238e-16 1.22460635382238e-16 2.3947971802426073e-48 -1 
2 17.5 -1.6000000000000001 -15 -6.12303176911189e-17 -1 -7.4983036091106899e-33 -1 6.12303176911189e-17 -1.22460635382238e-16 1.22460635382238e-16 -1.7789921910373654e-47 -1 4.2999999999999998
2 17.5 -5.6500000000000004 -35 -6.12303176911189e-17 -1 -7.4983036091106899e-33 -1 6.12303176911189e-17 -1.22460635382238e-16 1.22460635382238e-16 -1.7789921910373654e-47 -1 2.2000000000000002
3 17.5 -3.1499999999999999 -35 6.12303176911189e-17 1 7.4983036091106899e-33 -1 6.12303176911189e-17 -1.22460635382238e-16 -1.22460635382238e-16 1.7789921910373654e-47 1 3.25
0.78539816339744795
2 17.5 -5.6500000000000004 -35 -6.12303176911189e-17 -1 -7.4983036091106899e-33 -1 6.12303176911189e-17 -1.22460635382238e-16 1.22460635382238e-16 -1.7789921910373654e-47 -1 2.2000000000000002
2 17.5 -1.6000000000000001 -35 -6.12303176911189e-17 -1 -7.4983036091106899e-33 -1 6.12303176911189e-17 -1.22460635382238e-16 1.22460635382238e-16 -1.7789921910373654e-47 -1 4.2999999999999998
3 17.5 -3.1499999999999999 -35 6.12303176911189e-17 1 7.4983036091106899e-33 -1 6.12303176911189e-17 -1.22460635382238e-16 -1.22460635382238e-16 1.7789921910373654e-47 1 3.25
0.78539816339744795
2 17.5 -1.6000000000000001 -35 -6.12303176911189e-17 -1 -7.4983036091106899e-33 -1 6.12303176911189e-17 -1.22460635382238e-16 1.22460635382238e-16 -1.7789921910373654e-47 -1 4.2999999999999998
2 3.06151588455594e-15 0 -25 1.22460635382238e-16 0 -1 -1 0 -1.22460635382238e-16 0 1 0 3
1 1.8369095307335698e-15 0 -15 1.22460635382238e-16 0 -1 -1 0 -1.22460635382238e-16 0 1 0 
2 3.06151588455594e-15 0 -25 1.22460635382238e-16 0 -1 -1 0 -1.22460635382238e-16 0 1 0 3
1 0 0 -34 0 0 1 1 0 -0 -0 1 0 
2 0 1.5307579422779701e-16 0 1.22460635382238e-16 0 -1 -1 0 -1.22460635382238e-16 0 1 0 7
2 0 1.5307579422779701e-16 0 1.22460635382238e-16 0 -1 -1 0 -1.22460635382238e-16 0 1 0 7
2 0 1.5307579422779701e-16 0 1.22460635382238e-16 0 -1 -1 0 -1.22460635382238e-16 0 1 0 7
1 7.0000000000000098 0 -42.5 -1 0 -1.22460635382238e-16 -1.22460635382238e-16 0 1 0 1 0 
1 8.4870013296853397 -2.48014834609722 -50 1.22460635382238e-16 0 -1 -1 0 -1.22460635382238e-16 0 1 0 
1 25 -4.5 3.06151588455594e-15 1 0 1.22460635382238e-16 0 -1 0 1.22460635382238e-16 0 -1 
1 7 0 -7.5 -1 0 -1.22460635382238e-16 -1.22460635382238e-16 0 1 0 1 0 
1 8.4870013296853308 -2.48014834609722 1.0393235753231601e-15 1.22460635382238e-16 0 -1 -1 0 -1.22460635382238e-16 0 1 0 
2 -17.5 -5.6500000000000004 -35 6.12303176911189e-17 -1 0 1 6.12303176911189e-17 0 -0 0 1 2.2000000000000002
3 -17.5 -3.1499999999999999 -35 -6.12303176911189e-17 1 -0 1 6.12303176911189e-17 0 0 0 -1 3.25
0.78539816339744795
2 -17.5 -5.6500000000000004 -35 6.12303176911189e-17 -1 0 1 6.12303176911189e-17 0 -0 0 1 2.2000000000000002
1 -12.5 -7 -50 -1.06581410364015e-16 -1 0 1 -1.06581410364015e-16 0 0 0 1 
2 -17.5 -1.6000000000000001 -35 6.12303176911189e-17 -1 0 1 6.12303176911189e-17 0 -0 0 1 4.2999999999999998
3 -17.5 -3.1499999999999999 -35 -6.12303176911189e-17 1 -0 1 6.12303176911189e-17 0 0 0 -1 3.25
0.78539816339744795
1 -15.854101966249701 -2 -50 -1.21390269225416e-17 1 0 -1 -1.21390269225416e-17 -0 0 -0 1 
2 -17.5 -1.6000000000000001 -35 6.12303176911189e-17 -1 0 1 6.12303176911189e-17 0 -0 0 1 4.2999999999999998
2 -17.5 -5.6500000000000004 -15 6.12303176911189e-17 -1 0 1 6.12303176911189e-17 0 -0 0 1 2.2000000000000002
3 -17.5 -3.1499999999999999 -15 -6.12303176911189e-17 1 -0 1 6.12303176911189e-17 0 0 0 -1 3.25
0.78539816339744795
2 -17.5 -5.6500000000000004 -15 6.12303176911189e-17 -1 0 1 6.12303176911189e-17 0 -0 0 1 2.2000000000000002
2 -17.5 -1.6000000000000001 -15 6.12303176911189e-17 -1 0 1 6.12303176911189e-17 0 -0 0 1 4.2999999999999998
3 -17.5 -3.1499999999999999 -15 -6.12303176911189e-17 1 -0 1 6.12303176911189e-17 0 0 0 -1 3.25
0.78539816339744795
2 -17.5 -1.6000000000000001 -15 6.12303176911189e-17 -1 0 1 6.12303176911189e-17 0 -0 0 1 4.2999999999999998
2 0 1.5307579422779701e-16 -50 0 0 1 1 0 -0 -0 1 0 7
2 0 1.5307579422779701e-16 -50 0 0 1 1 0 -0 -0 1 0 7
1 -8.4870013296853308 -2.48014834609722 -50 0 0 1 1 0 -0 -0 1 0 
1 0 0 -35 0 0 1 1 0 -0 -0 1 0 
2 0 1.5307579422779701e-16 -50 0 0 1 1 0 -0 -0 1 0 7
2 0 0 -25 0 0 -1 1 0 0 0 -1 0 3
1 0 0 -2 0 0 1 -1 0 0 0 -1 0 
2 0 0 -25 0 0 -1 1 0 0 0 -1 0 3
1 0 0 -14 0 0 1 1 0 -0 -0 1 0 
2 0 0 -25 0 0 -1 1 0 0 0 -1 0 3
2 0 0 -25 0 0 -1 1 0 0 0 -1 0 3
1 0 0 -48 0 0 -1 1 0 0 0 -1 0 
2 0 1.5307579422779701e-16 -50 0 0 1 1 0 -0 -0 1 0 7
2 0 1.5307579422779701e-16 -50 0 0 1 1 0 -0 -0 1 0 7
1 -8.4870013296853308 -2.48014834609722 0 0 0 1 1 0 -0 -0 1 0 
2 0 1.5307579422779701e-16 -50 0 0 1 1 0 -0 -0 1 0 7
1 -7 0 -25 1 0 0 0 0 -1 -0 1 0 
1 -25 -4.5 -50 -1 -0 0 0 -1 -0 0 0 1 
2 0 0 -25 0 0 -1 1 0 0 0 -1 0 3
2 0 0 -25 0 0 -1 1 0 0 0 -1 0 3
1 0 0 -0.5 0 0 1 -1 0 0 0 -1 0 
1 0 0 -49.5 0 0 -1 1 0 0 0 -1 0 
Triangulations 0

TShapes 381
Ve
1e-07
15.3 -4.2 -15
0 0

0101101
*
Ve
1e-07
19.7 -4.2 -15
0 0

0101101
*
Ed
 1e-07 1 1 0
1  1 0 0 3.14159265358979
2  1 1 0 0 3.14159265358979
2  2 2 0 0 3.14159265358979
4 C0 1 0 2 0
0

0101000
+381 0 -380 0 *
Ve
1e-07
19.7 -7 -15
0 0

0101101
*
Ed
 1e-07 1 1 0
1  2 0 -1.45 1.35
2  3 1 0 -1.45 1.35
2  4 3 0 -1.45 1.35
4 CN 1 0 3 0
0

0101000
+380 0 -378 0 *
Ve
1e-07
15.3 -7 -15
0 0

0101101
*
Ed
 1e-07 1 1 0
1  3 0 3.14159265358979 6.28318530717959
2  5 1 0 3.14159265358979 6.28318530717959
4 C0 1 0 4 0
0

0101000
+378 0 -376 0 *
Ed
 1e-07 1 1 0
1  4 0 -1.35 1.45
2  6 1 0 -1.35 1.45
2  7 3 0 -1.35 1.45
4 CN 1 0 3 0
0

0101000
+376 0 -381 0 *
Wi

0101100
+379 0 +377 0 +375 0 +374 0 *
Fa
0  1e-07 1 0

0111000
+373 0 *
Ve
1e-07
13.2 -2.1 -15
0 0

0101101
*
Ve
1e-07
21.8 -2.1 -15
0 0

0101101
*
Ed
 1e-07 1 1 0
1  5 0 0 3.14159265358979
2  8 2 0 0 3.14159265358979
2  9 5 0 0 3.14159265358979
4 C0 2 0 5 0
0

0101000
+371 0 -370 0 *
Ed
 1e-07 1 1 0
1  6 0 -1.48492424049175 1.48492424049175
2  10 2 0 -1.48492424049175 1.48492424049175
2  11 6 0 -1.48492424049175 1.48492424049175
4 CN 2 0 6 0
0

0101000
+370 0 -380 0 *
Ed
 1e-07 1 1 0
1  7 0 -1.48492424049175 1.48492424049175
2  12 2 0 -1.48492424049175 1.48492424049175
2  13 6 0 -1.48492424049175 1.48492424049175
4 CN 2 0 6 0
0

0101000
+381 0 -371 0 *
Wi

0101100
+369 0 +368 0 -379 0 +367 0 *
Fa
0  1e-07 2 0

0111000
+366 0 *
Ve
1e-07
13.2 -2 -15
0 0

0101101
*
Ve
1e-07
21.8 -2 -15
0 0

0101101
*
Ed
 1e-07 1 1 0
1  8 0 0 3.14159265358979
2  14 5 0 0 3.14159265358979
4 C0 5 0 7 0
0

0101000
+364 0 -363 0 *
Ed
 1e-07 1 1 0
1  9 0 -0.0499999999999998 0.0500000000000003
2  15 5 0 -0.0499999999999998 0.0500000000000003
2  16 8 0 -0.0499999999999998 0.0500000000000003
4 CN 5 0 8 0
0

0101000
+363 0 -370 0 *
Ed
 1e-07 1 1 0
1  10 0 -0.0500000000000003 0.0499999999999998
2  17 5 0 -0.0500000000000003 0.0499999999999998
2  18 8 0 -0.0500000000000003 0.0499999999999998
4 CN 5 0 8 0
0

0101000
+371 0 -364 0 *
Wi

0101100
+362 0 +361 0 -369 0 +360 0 *
Fa
0  1e-07 5 0

0111000
+359 0 *
Ve
1e-07
15.3 -4.2 -35
0 0

0101101
*
Ve
1e-07
19.7 -4.2 -35
0 0

0101101
*
Ed
 1e-07 1 1 0
1  11 0 0 3.14159265358979
2  19 9 0 0 3.14159265358979
2  20 10 0 0 3.14159265358979
4 C0 9 0 10 0
0

0101000
+357 0 -356 0 *
Ve
1e-07
19.7 -7 -35
0 0

0101101
*
Ed
 1e-07 1 1 0
1  12 0 -1.45 1.35
2  21 9 0 -1.45 1.35
2  22 11 0 -1.45 1.35
4 CN 9 0 11 0
0

0101000
+356 0 -354 0 *
Ve
1e-07
15.3 -7 -35
0 0

0101101
*
Ed
 1e-07 1 1 0
1  13 0 3.14159265358979 6.28318530717959
2  23 9 0 3.14159265358979 6.28318530717959
4 C0 9 0 4 0
0

0101000
+354 0 -352 0 *
Ed
 1e-07 1 1 0
1  14 0 -1.35 1.45
2  24 9 0 -1.35 1.45
2  25 11 0 -1.35 1.45
4 CN 9 0 11 0
0

0101000
+352 0 -357 0 *
Wi

0101100
+355 0 +353 0 +351 0 +350 0 *
Fa
0  1e-07 9 0

0111000
+349 0 *
Ve
1e-07
13.2 -2.1 -35
0 0

0101101
*
Ve
1e-07
21.8 -2.1 -35
0 0

0101101
*
Ed
 1e-07 1 1 0
1  15 0 0 3.14159265358979
2  26 10 0 0 3.14159265358979
2  27 12 0 0 3.14159265358979
4 C0 10 0 12 0
0

0101000
+347 0 -346 0 *
Ed
 1e-07 1 1 0
1  16 0 -1.48492424049175 1.48492424049175
2  28 10 0 -1.48492424049175 1.48492424049175
2  29 13 0 -1.48492424049175 1.48492424049175
4 CN 10 0 13 0
0

0101000
+346 0 -356 0 *
Ed
 1e-07 1 1 0
1  17 0 -1.48492424049175 1.48492424049175
2  30 10 0 -1.48492424049175 1.48492424049175
2  31 13 0 -1.48492424049175 1.48492424049175
4 CN 10 0 13 0
0

0101000
+357 0 -347 0 *
Wi

0101100
+345 0 +344 0 -355 0 +343 0 *
Fa
0  1e-07 10 0

0111000
+342 0 *
Ve
1e-07
13.2 -2 -35
0 0

0101101
*
Ve
1e-07
21.8 -2 -35
0 0

0101101
*
Ed
 1e-07 1 1 0
1  18 0 0 3.14159265358979
2  32 12 0 0 3.14159265358979
4 C0 12 0 7 0
0

0101000
+340 0 -339 0 *
Ed
 1e-07 1 1 0
1  19 0 -0.0499999999999998 0.0500000000000003
2  33 12 0 -0.0499999999999998 0.0500000000000003
2  34 14 0 -0.0499999999999998 0.0500000000000003
4 CN 12 0 14 0
0

0101000
+339 0 -346 0 *
Ed
 1e-07 1 1 0
1  20 0 -0.0500000000000003 0.0499999999999998
2  35 12 0 -0.0500000000000003 0.0499999999999998
2  36 14 0 -0.0500000000000003 0.0499999999999998
4 CN 12 0 14 0
0

0101000
+347 0 -340 0 *
Wi

0101100
+338 0 +337 0 -345 0 +336 0 *
Fa
0  1e-07 12 0

0111000
+335 0 *
Ve
1e-07
-3 -3.67381906146713e-16 -15
0 0

0101101
*
Ve
1e-07
3 -3.67381906146713e-16 -15
0 0

0101101
*
Ed
 1e-07 1 1 0
1  21 0 0 3.14159265358979
2  37 15 0 0 3.14159265358979
4 C0 15 0 16 0
0

0101000
+333 0 -332 0 *
Ve
1e-07
3 -3.67381906146713e-16 -34
0 0

0101101
*
Ed
 1e-07 1 1 0
1  22 0 -10 9
2  38 15 0 -10 9
2  39 17 0 -10 9
4 CN 15 0 17 0
0

0101000
+332 0 -330 0 *
Ve
1e-07
-3 -3.67381906146713e-16 -34
0 0

0101101
*
Ed
 1e-07 1 1 0
1  23 0 0 3.14159265358979
2  40 15 0 0 3.14159265358979
4 C0 15 0 18 0
0

0101000
+328 0 -330 0 *
Ed
 1e-07 1 1 0
1  24 0 -9 10
2  41 15 0 -9 10
2  42 17 0 -9 10
4 CN 15 0 17 0
0

0101000
+328 0 -333 0 *
Wi

0101100
+331 0 +329 0 -327 0 +326 0 *
Fa
0  1e-07 15 0

0111000
+325 0 *
Ve
1e-07
7 1.01030024190346e-15 -34
0 0

0101101
*
Ve
1e-07
7 1.01030024190346e-15 -15
0 0

0101101
*
Ed
 1e-07 1 1 0
1  25 0 -9.5 9.5
2  43 19 0 -9.5 9.5
2  44 20 0 -9.5 9.5
4 CN 19 0 20 0
0

0101000
+323 0 -322 0 *
Ve
1e-07
6.70820393249937 -1.99999999999999 -15
0 0

0101101
*
Ed
 1e-07 1 1 0
1  26 0 3.14159265358979 3.43134435502584
2  45 19 0 3.14159265358979 3.43134435502584
4 C0 19 0 16 0
0

0101000
+322 0 -320 0 *
Ve
1e-07
6.70820393249937 -1.99999999999999 -34
0 0

0101101
*
Ed
 1e-07 1 1 0
1  27 0 15 34
2  46 19 0 15 34
4 C0 19 0 7 0
0

0101000
+320 0 -318 0 *
Ed
 1e-07 1 1 0
1  28 0 2.85184095215375 3.14159265358979
2  47 19 0 2.85184095215375 3.14159265358979
4 C0 19 0 18 0
0

0101000
+318 0 -323 0 *
Wi

0101100
+321 0 +319 0 +317 0 +316 0 *
Fa
0  1e-07 19 0

0111000
+315 0 *
Ve
1e-07
-7 -7.04148653447867e-16 -15
0 0

0101101
*
Ve
1e-07
-7 -7.04148653447867e-16 -34
0 0

0101101
*
Ed
 1e-07 1 1 0
1  29 0 -9.5 9.5
2  48 20 0 -9.5 9.5
2  49 21 0 -9.5 9.5
4 CN 20 0 21 0
0

0101000
+313 0 -312 0 *
Ed
 1e-07 1 1 0
1  30 0 0 3.14159265358979
2  50 20 0 0 3.14159265358979
4 C0 20 0 16 0
0

0101000
+313 0 -322 0 *
Ed
 1e-07 1 1 0
1  31 0 3.14159265358979 6.28318530717959
2  51 20 0 3.14159265358979 6.28318530717959
4 C0 20 0 18 0
0

0101000
+323 0 -312 0 *
Wi

0101100
-311 0 +310 0 -321 0 +309 0 *
Fa
0  1e-07 20 0

0111000
+308 0 *
Ve
1e-07
7 -2 -34
0 0

0101101
*
Ed
 1e-07 1 1 0
1  32 0 0.92705098312484 1.21884705062547
4 C0 18 0 7 0
0

0101000
+306 0 -318 0 *
Ve
1e-07
7 -7 -34
0 0

0101101
*
Ed
 1e-07 1 1 0
1  33 0 -7 -2
4 C0 18 0 22 0
0

0101000
+304 0 -306 0 *
Ve
1e-07
5.76607978314078e-15 -7 -34
0 0

0101101
*
Ed
 1e-07 1 1 0
1  34 0 -6.24999999999999 0.75
4 C0 18 0 4 0
0

0101000
+302 0 -304 0 *
Ed
 1e-07 1 1 0
1  35 0 0 1.5707963267949
2  52 21 0 0 1.5707963267949
4 C0 18 0 21 0
0

0101000
+312 0 -302 0 *
Wi

0101100
-305 0 -303 0 -301 0 -300 0 -309 0 -316 0 *
Ed
 1e-07 1 1 0
1  36 0 3.14159265358979 6.28318530717959
2  53 17 0 3.14159265358979 6.28318530717959
4 C0 18 0 17 0
0

0101000
+330 0 -328 0 *
Wi

0101100
-298 0 -327 0 *
Fa
0  1e-07 18 0

0111000
-299 0 -297 0 *
Ve
1e-07
3.60618642522379e-15 -7 -15
0 0

0101101
*
Ed
 1e-07 1 1 0
1  37 0 15 34
2  54 21 0 15 34
4 G1 21 0 4 0
0

0101000
+295 0 -302 0 *
Ed
 1e-07 1 1 0
1  38 0 4.71238898038469 6.28318530717959
2  55 21 0 4.71238898038469 6.28318530717959
4 C0 21 0 16 0
0

0101000
+295 0 -313 0 *
Wi

0101100
+311 0 +300 0 -294 0 +293 0 *
Fa
0  1e-07 21 0

0111000
+292 0 *
Ed
 1e-07 1 1 0
1  39 0 3.14159265358979 6.28318530717959
2  56 17 0 3.14159265358979 6.28318530717959
4 C0 17 0 16 0
0

0101000
+332 0 -333 0 *
Wi

0101100
-298 0 -329 0 +290 0 -326 0 *
Fa
0  1e-07 17 0

0111000
+289 0 *
Ve
1e-07
7.00000000000001 -2 -50
0 0

0101101
*
Ed
 1e-07 1 1 0
1  40 0 -32.75 -16.75
4 C0 22 0 7 0
0

0101000
+287 0 -306 0 *
Ve
1e-07
7.00000000000001 -7 -50
0 0

0101101
*
Ed
 1e-07 1 1 0
1  41 0 -5.75992582695139 -0.75992582695139
4 C0 22 0 23 0
0

0101000
+285 0 -287 0 *
Ed
 1e-07 1 1 0
1  42 0 16.75 32.75
4 C0 22 0 4 0
0

0101000
+304 0 -285 0 *
Wi

0101100
-286 0 -284 0 -283 0 +303 0 *
Fa
0  1e-07 22 0

0111000
+282 0 *
Ve
1e-07
25 -2 -50
0 0

0101101
*
Ed
 1e-07 1 1 0
1  43 0 0 18
4 C0 23 0 7 0
0

0101000
+280 0 -287 0 *
Ve
1e-07
25 -7 -50
0 0

0101101
*
Ed
 1e-07 1 1 0
1  44 0 0 5
4 C0 23 0 24 0
0

0101000
+278 0 -280 0 *
Ed
 1e-07 1 1 0
1  45 0 7 25
4 C0 23 0 4 0
0

0101000
+285 0 -278 0 *
Wi

0101100
+284 0 -279 0 -277 0 -276 0 *
Fa
0  1e-07 23 0

0111000
+275 0 *
Ve
1e-07
7 -2 -15
0 0

0101101
*
Ed
 1e-07 1 1 0
1  46 0 -1.21884705062548 -0.92705098312485
4 C0 7 0 16 0
0

0101000
+320 0 -273 0 *
Ve
1e-07
7 -2 8.57224447675664e-16
0 0

0101101
*
Ed
 1e-07 1 1 0
1  47 0 -11.25 3.75
4 C0 7 0 25 0
0

0101000
+273 0 -271 0 *
Ve
1e-07
25 -2 3.06151588455594e-15
0 0

0101101
*
Ed
 1e-07 1 1 0
1  48 0 0 18
4 C0 7 0 26 0
0

0101000
+269 0 -271 0 *
Ed
 1e-07 1 1 0
1  49 0 0 50
4 C0 7 0 24 0
0

0101000
+269 0 -280 0 *
Wi

0101100
+305 0 -317 0 +272 0 +270 0 -268 0 +267 0 +279 0 +286 0 *
Ed
 1e-07 1 1 0
1  50 0 3.14159265358979 6.28318530717959
2  57 8 0 3.14159265358979 6.28318530717959
4 C0 7 0 8 0
0

0101000
+363 0 -364 0 *
Wi

0101100
+265 0 +362 0 *
Ed
 1e-07 1 1 0
1  51 0 3.14159265358979 6.28318530717959
2  58 14 0 3.14159265358979 6.28318530717959
4 C0 7 0 14 0
0

0101000
+339 0 -340 0 *
Wi

0101100
+263 0 +338 0 *
Fa
0  1e-07 7 0

0111000
+266 0 +264 0 +262 0 *
Ve
1e-07
7 -7 -15
0 0

0101101
*
Ed
 1e-07 1 1 0
1  52 0 2 7
4 C0 25 0 16 0
0

0101000
+273 0 -260 0 *
Ve
1e-07
7 -7 8.57224447675664e-16
0 0

0101101
*
Ed
 1e-07 1 1 0
1  53 0 -3.75 11.25
4 C0 25 0 4 0
0

0101000
+258 0 -260 0 *
Ed
 1e-07 1 1 0
1  54 0 0.75992582695139 5.75992582695139
4 C0 25 0 26 0
0

0101000
+271 0 -258 0 *
Wi

0101100
-270 0 +259 0 -257 0 -256 0 *
Fa
0  1e-07 25 0

0111000
+255 0 *
Wi

0101100
+290 0 +331 0 *
Ed
 1e-07 1 1 0
1  55 0 -0.75 6.25
4 C0 16 0 4 0
0

0101000
+260 0 -295 0 *
Wi

0101100
-272 0 -319 0 -310 0 -293 0 -252 0 -259 0 *
Fa
0  1e-07 16 0

0111000
-253 0 -251 0 *
Ed
 1e-07 1 1 0
1  56 0 3.14159265358979 6.28318530717959
2  59 14 0 3.14159265358979 6.28318530717959
2  60 13 0 3.14159265358979 6.28318530717959
4 C0 14 0 13 0
0

0101000
+346 0 -347 0 *
Wi

0101100
-249 0 -337 0 +263 0 -336 0 *
Fa
0  1e-07 14 0

0111000
+248 0 *
Ed
 1e-07 1 1 0
1  57 0 3.14159265358979 6.28318530717959
2  61 13 0 3.14159265358979 6.28318530717959
2  62 11 0 3.14159265358979 6.28318530717959
4 C0 13 0 11 0
0

0101000
+356 0 -357 0 *
Wi

0101100
-246 0 -344 0 +249 0 -343 0 *
Fa
0  1e-07 13 0

0111000
+245 0 *
Ed
 1e-07 1 1 0
1  58 0 0 3.14159265358979
2  63 11 0 0 3.14159265358979
4 C0 11 0 4 0
0

0101000
+352 0 -354 0 *
Wi

0101100
+243 0 -353 0 +246 0 -350 0 *
Fa
0  1e-07 11 0

0111000
+242 0 *
Ed
 1e-07 1 1 0
1  59 0 3.14159265358979 6.28318530717959
2  64 8 0 3.14159265358979 6.28318530717959
2  65 6 0 3.14159265358979 6.28318530717959
4 C0 8 0 6 0
0

0101000
+370 0 -371 0 *
Wi

0101100
-240 0 -361 0 +265 0 -360 0 *
Fa
0  1e-07 8 0

0111000
+239 0 *
Ed
 1e-07 1 1 0
1  60 0 3.14159265358979 6.28318530717959
2  66 6 0 3.14159265358979 6.28318530717959
2  67 3 0 3.14159265358979 6.28318530717959
4 C0 6 0 3 0
0

0101000
+380 0 -381 0 *
Wi

0101100
-237 0 -368 0 +240 0 -367 0 *
Fa
0  1e-07 6 0

0111000
+236 0 *
Ed
 1e-07 1 1 0
1  61 0 0 3.14159265358979
2  68 3 0 0 3.14159265358979
4 C0 3 0 4 0
0

0101000
+376 0 -378 0 *
Wi

0101100
+234 0 -377 0 +237 0 -374 0 *
Fa
0  1e-07 3 0

0111000
+233 0 *
Ve
1e-07
25 -7 3.06151588455594e-15
0 0

0101101
*
Ed
 1e-07 1 1 0
1  62 0 0 5
4 C0 24 0 26 0
0

0101000
+231 0 -269 0 *
Ed
 1e-07 1 1 0
1  63 0 0 50
4 C0 24 0 4 0
0

0101000
+231 0 -278 0 *
Wi

0101100
+277 0 -267 0 -230 0 +229 0 *
Fa
0  1e-07 24 0

0111000
+228 0 *
Ed
 1e-07 1 1 0
1  64 0 7 25
4 C0 4 0 26 0
0

0101000
+258 0 -231 0 *
Wi

0101100
+283 0 +276 0 -229 0 -226 0 +257 0 +252 0 +294 0 +301 0 *
Wi

0101100
+351 0 +243 0 *
Wi

0101100
+375 0 +234 0 *
Fa
0  1e-07 4 0

0111000
+225 0 +224 0 +223 0 *
Wi

0101100
+256 0 +226 0 +230 0 +268 0 *
Fa
0  1e-07 26 0

0111000
-221 0 *
Sh

0101100
-372 0 -365 0 -358 0 -348 0 -341 0 -334 0 -324 0 +314 0 +307 0 -296 0 
+291 0 -288 0 +281 0 +274 0 +261 0 +254 0 -250 0 -247 0 -244 0 -241 0 
-238 0 -235 0 -232 0 +227 0 +222 0 -220 0 *
So

0100000
+219 0 *
Ve
1e-07
-15.3 -4.2 -35
0 0

0101101
*
Ve
1e-07
-19.7 -4.2 -35
0 0

0101101
*
Ed
 1e-07 1 1 0
1  65 0 0 3.14159265358979
2  69 27 0 0 3.14159265358979
2  70 28 0 0 3.14159265358979
4 C0 27 0 28 0
0

0101000
+217 0 -216 0 *
Ve
1e-07
-19.7 -7 -35
0 0

0101101
*
Ed
 1e-07 1 1 0
1  66 0 -1.45 1.35
2  71 27 0 -1.45 1.35
2  72 29 0 -1.45 1.35
4 CN 27 0 29 0
0

0101000
+216 0 -214 0 *
Ve
1e-07
-15.3 -7 -35
0 0

0101101
*
Ed
 1e-07 1 1 0
1  67 0 3.14159265358979 6.28318530717959
2  73 27 0 3.14159265358979 6.28318530717959
4 C0 27 0 30 0
0

0101000
+214 0 -212 0 *
Ed
 1e-07 1 1 0
1  68 0 -1.35 1.45
2  74 27 0 -1.35 1.45
2  75 29 0 -1.35 1.45
4 CN 27 0 29 0
0

0101000
+212 0 -217 0 *
Wi

0101100
+215 0 +213 0 +211 0 +210 0 *
Fa
0  1e-07 27 0

0111000
+209 0 *
Ve
1e-07
-13.2 -2.1 -35
0 0

0101101
*
Ve
1e-07
-21.8 -2.1 -35
0 0

0101101
*
Ed
 1e-07 1 1 0
1  69 0 0 3.14159265358979
2  76 28 0 0 3.14159265358979
2  77 31 0 0 3.14159265358979
4 C0 28 0 31 0
0

0101000
+207 0 -206 0 *
Ed
 1e-07 1 1 0
1  70 0 -1.48492424049175 1.48492424049175
2  78 28 0 -1.48492424049175 1.48492424049175
2  79 32 0 -1.48492424049175 1.48492424049175
4 CN 28 0 32 0
0

0101000
+206 0 -216 0 *
Ed
 1e-07 1 1 0
1  71 0 -1.48492424049175 1.48492424049175
2  80 28 0 -1.48492424049175 1.48492424049175
2  81 32 0 -1.48492424049175 1.48492424049175
4 CN 28 0 32 0
0

0101000
+217 0 -207 0 *
Wi

0101100
+205 0 +204 0 -215 0 +203 0 *
Fa
0  1e-07 28 0

0111000
+202 0 *
Ve
1e-07
-13.2 -2 -35
0 0

0101101
*
Ve
1e-07
-21.8 -2 -35
0 0

0101101
*
Ed
 1e-07 1 1 0
1  72 0 0 3.14159265358979
2  82 31 0 0 3.14159265358979
4 C0 31 0 33 0
0

0101000
+200 0 -199 0 *
Ed
 1e-07 1 1 0
1  73 0 -0.0499999999999998 0.0500000000000003
2  83 31 0 -0.0499999999999998 0.0500000000000003
2  84 34 0 -0.0499999999999998 0.0500000000000003
4 CN 31 0 34 0
0

0101000
+199 0 -206 0 *
Ed
 1e-07 1 1 0
1  74 0 -0.0500000000000003 0.0499999999999998
2  85 31 0 -0.0500000000000003 0.0499999999999998
2  86 34 0 -0.0500000000000003 0.0499999999999998
4 CN 31 0 34 0
0

0101000
+207 0 -200 0 *
Wi

0101100
+198 0 +197 0 -205 0 +196 0 *
Fa
0  1e-07 31 0

0111000
+195 0 *
Ve
1e-07
-15.3 -4.2 -15
0 0

0101101
*
Ve
1e-07
-19.7 -4.2 -15
0 0

0101101
*
Ed
 1e-07 1 1 0
1  75 0 0 3.14159265358979
2  87 35 0 0 3.14159265358979
2  88 36 0 0 3.14159265358979
4 C0 35 0 36 0
0

0101000
+193 0 -192 0 *
Ve
1e-07
-19.7 -7 -15
0 0

0101101
*
Ed
 1e-07 1 1 0
1  76 0 -1.45 1.35
2  89 35 0 -1.45 1.35
2  90 37 0 -1.45 1.35
4 CN 35 0 37 0
0

0101000
+192 0 -190 0 *
Ve
1e-07
-15.3 -7 -15
0 0

0101101
*
Ed
 1e-07 1 1 0
1  77 0 3.14159265358979 6.28318530717959
2  91 35 0 3.14159265358979 6.28318530717959
4 C0 35 0 30 0
0

0101000
+190 0 -188 0 *
Ed
 1e-07 1 1 0
1  78 0 -1.35 1.45
2  92 35 0 -1.35 1.45
2  93 37 0 -1.35 1.45
4 CN 35 0 37 0
0

0101000
+188 0 -193 0 *
Wi

0101100
+191 0 +189 0 +187 0 +186 0 *
Fa
0  1e-07 35 0

0111000
+185 0 *
Ve
1e-07
-13.2 -2.1 -15
0 0

0101101
*
Ve
1e-07
-21.8 -2.1 -15
0 0

0101101
*
Ed
 1e-07 1 1 0
1  79 0 0 3.14159265358979
2  94 36 0 0 3.14159265358979
2  95 38 0 0 3.14159265358979
4 C0 36 0 38 0
0

0101000
+183 0 -182 0 *
Ed
 1e-07 1 1 0
1  80 0 -1.48492424049175 1.48492424049175
2  96 36 0 -1.48492424049175 1.48492424049175
2  97 39 0 -1.48492424049175 1.48492424049175
4 CN 36 0 39 0
0

0101000
+182 0 -192 0 *
Ed
 1e-07 1 1 0
1  81 0 -1.48492424049175 1.48492424049175
2  98 36 0 -1.48492424049175 1.48492424049175
2  99 39 0 -1.48492424049175 1.48492424049175
4 CN 36 0 39 0
0

0101000
+193 0 -183 0 *
Wi

0101100
+181 0 +180 0 -191 0 +179 0 *
Fa
0  1e-07 36 0

0111000
+178 0 *
Ve
1e-07
-13.2 -2 -15
0 0

0101101
*
Ve
1e-07
-21.8 -2 -15
0 0

0101101
*
Ed
 1e-07 1 1 0
1  82 0 0 3.14159265358979
2  100 38 0 0 3.14159265358979
4 C0 38 0 33 0
0

0101000
+176 0 -175 0 *
Ed
 1e-07 1 1 0
1  83 0 -0.0499999999999998 0.0500000000000003
2  101 38 0 -0.0499999999999998 0.0500000000000003
2  102 40 0 -0.0499999999999998 0.0500000000000003
4 CN 38 0 40 0
0

0101000
+175 0 -182 0 *
Ed
 1e-07 1 1 0
1  84 0 -0.0500000000000003 0.0499999999999998
2  103 38 0 -0.0500000000000003 0.0499999999999998
2  104 40 0 -0.0500000000000003 0.0499999999999998
4 CN 38 0 40 0
0

0101000
+183 0 -176 0 *
Wi

0101100
+174 0 +173 0 -181 0 +172 0 *
Fa
0  1e-07 38 0

0111000
+171 0 *
Ve
1e-07
-7 1.01030024190346e-15 -35
0 0

0101101
*
Ve
1e-07
-7 1.01030024190346e-15 -50
0 0

0101101
*
Ed
 1e-07 1 1 0
1  85 0 -15 -0
2  105 41 0 -15 -0
2  106 42 0 -15 -0
4 CN 41 0 42 0
0

0101000
+169 0 -168 0 *
Ve
1e-07
-6.70820393249937 -1.99999999999999 -50
0 0

0101101
*
Ed
 1e-07 1 1 0
1  86 0 3.14159265358979 3.43134435502584
2  107 41 0 3.14159265358979 3.43134435502584
4 C0 41 0 43 0
0

0101000
+168 0 -166 0 *
Ve
1e-07
-6.70820393249937 -1.99999999999999 -35
0 0

0101101
*
Ed
 1e-07 1 1 0
1  87 0 0 15
2  108 41 0 0 15
4 C0 41 0 33 0
0

0101000
+166 0 -164 0 *
Ed
 1e-07 1 1 0
1  88 0 2.85184095215375 3.14159265358979
2  109 41 0 2.85184095215375 3.14159265358979
4 C0 41 0 44 0
0

0101000
+164 0 -169 0 *
Wi

0101100
+167 0 +165 0 +163 0 +162 0 *
Fa
0  1e-07 41 0

0111000
+161 0 *
Ve
1e-07
7 -7.04148653447867e-16 -50
0 0

0101101
*
Ve
1e-07
7 -7.04148653447867e-16 -35
0 0

0101101
*
Ed
 1e-07 1 1 0
1  89 0 0 15
2  110 42 0 0 15
2  111 45 0 0 15
4 CN 42 0 45 0
0

0101000
+159 0 -158 0 *
Ed
 1e-07 1 1 0
1  90 0 0 3.14159265358979
2  112 42 0 0 3.14159265358979
4 C0 42 0 43 0
0

0101000
+159 0 -168 0 *
Ed
 1e-07 1 1 0
1  91 0 3.14159265358979 6.28318530717959
2  113 42 0 3.14159265358979 6.28318530717959
4 C0 42 0 44 0
0

0101000
+169 0 -158 0 *
Wi

0101100
-157 0 +156 0 -167 0 +155 0 *
Fa
0  1e-07 42 0

0111000
+154 0 *
Ve
1e-07
-3 -3.67381906146713e-16 -2
0 0

0101101
*
Ve
1e-07
3 0 -2
0 0

0101101
*
Ed
 1e-07 1 1 0
1  92 0 3.14159265358979 6.28318530717959
2  114 46 0 3.14159265358979 6.28318530717959
4 C0 46 0 47 0
0

0101000
+152 0 -151 0 *
Ve
1e-07
-3 3.67381906146713e-16 -14
0 0

0101101
*
Ed
 1e-07 1 1 0
1  93 0 -6 6
2  115 46 0 -6 6
2  116 48 0 -6 6
4 CN 46 0 48 0
0

0101000
+152 0 -149 0 *
Ve
1e-07
3 3.67381906146713e-16 -14
0 0

0101101
*
Ed
 1e-07 1 1 0
1  94 0 0 3.14159265358979
2  117 46 0 0 3.14159265358979
4 C0 46 0 49 0
0

0101000
+147 0 -149 0 *
Ed
 1e-07 1 1 0
1  95 0 -6 6
2  118 46 0 -6 6
2  119 48 0 -6 6
4 CN 46 0 48 0
0

0101000
+147 0 -151 0 *
Wi

0101100
-150 0 +148 0 -146 0 +145 0 *
Fa
0  1e-07 46 0

0111000
+144 0 *
Ve
1e-07
3 3.67381906146713e-16 -35
0 0

0101101
*
Ve
1e-07
-3 3.67381906146713e-16 -35
0 0

0101101
*
Ed
 1e-07 1 1 0
1  96 0 0 3.14159265358979
2  120 50 0 0 3.14159265358979
4 C0 50 0 44 0
0

0101000
+142 0 -141 0 *
Ve
1e-07
-3 -3.67381906146713e-16 -48
0 0

0101101
*
Ed
 1e-07 1 1 0
1  97 0 -6.5 6.5
2  121 50 0 -6.5 6.5
2  122 51 0 -6.5 6.5
4 CN 50 0 51 0
0

0101000
+141 0 -139 0 *
Ve
1e-07
3 0 -48
0 0

0101101
*
Ed
 1e-07 1 1 0
1  98 0 0 3.14159265358979
2  123 50 0 0 3.14159265358979
4 C0 50 0 52 0
0

0101000
+137 0 -139 0 *
Ed
 1e-07 1 1 0
1  99 0 -6.5 6.5
2  124 50 0 -6.5 6.5
2  125 51 0 -6.5 6.5
4 CN 50 0 51 0
0

0101000
+137 0 -142 0 *
Wi

0101100
+140 0 +138 0 -136 0 +135 0 *
Fa
0  1e-07 50 0

0111000
+134 0 *
Ve
1e-07
-7 1.01030024190346e-15 0
0 0

0101101
*
Ve
1e-07
-7 1.01030024190346e-15 -14
0 0

0101101
*
Ed
 1e-07 1 1 0
1  100 0 -7 7
2  126 53 0 -7 7
2  127 54 0 -7 7
4 CN 53 0 54 0
0

0101000
+132 0 -131 0 *
Ve
1e-07
-6.70820393249937 -1.99999999999999 -14
0 0

0101101
*
Ed
 1e-07 1 1 0
1  101 0 3.14159265358979 3.43134435502584
2  128 53 0 3.14159265358979 3.43134435502584
4 C0 53 0 49 0
0

0101000
+131 0 -129 0 *
Ve
1e-07
-6.70820393249937 -1.99999999999999 0
0 0

0101101
*
Ed
 1e-07 1 1 0
1  102 0 36 50
2  129 53 0 36 50
4 C0 53 0 33 0
0

0101000
+129 0 -127 0 *
Ed
 1e-07 1 1 0
1  103 0 2.85184095215375 3.14159265358979
2  130 53 0 2.85184095215375 3.14159265358979
4 C0 53 0 55 0
0

0101000
+127 0 -132 0 *
Wi

0101100
+130 0 +128 0 +126 0 +125 0 *
Fa
0  1e-07 53 0

0111000
+124 0 *
Ve
1e-07
7 -7.04148653447867e-16 -14
0 0

0101101
*
Ve
1e-07
7 -7.04148653447867e-16 0
0 0

0101101
*
Ed
 1e-07 1 1 0
1  104 0 -7 7
2  131 54 0 -7 7
2  132 56 0 -7 7
4 CN 54 0 56 0
0

0101000
+122 0 -121 0 *
Ed
 1e-07 1 1 0
1  105 0 0 3.14159265358979
2  133 54 0 0 3.14159265358979
4 C0 54 0 49 0
0

0101000
+122 0 -131 0 *
Ed
 1e-07 1 1 0
1  106 0 3.14159265358979 6.28318530717959
2  134 54 0 3.14159265358979 6.28318530717959
4 C0 54 0 55 0
0

0101000
+132 0 -121 0 *
Wi

0101100
-120 0 +119 0 -130 0 +118 0 *
Fa
0  1e-07 54 0

0111000
+117 0 *
Ed
 1e-07 1 1 0
1  107 0 3.14159265358979 6.28318530717959
2  135 48 0 3.14159265358979 6.28318530717959
4 C0 49 0 48 0
0

0101000
+149 0 -147 0 *
Wi

0101100
-115 0 -146 0 *
Ve
1e-07
-7 -2 -14
0 0

0101101
*
Ed
 1e-07 1 1 0
1  108 0 -1.21884705062547 -0.92705098312484
4 C0 49 0 33 0
0

0101000
+129 0 -113 0 *
Ve
1e-07
-1.76927689449022e-15 -7 -14
0 0

0101101
*
Ed
 1e-07 1 1 0
1  109 0 4.71238898038469 6.28318530717959
2  136 56 0 4.71238898038469 6.28318530717959
4 C0 49 0 56 0
0

0101000
+111 0 -122 0 *
Ve
1e-07
-7 -7 -14
0 0

0101101
*
Ed
 1e-07 1 1 0
1  110 0 -0.75 6.25
4 C0 49 0 30 0
0

0101000
+109 0 -111 0 *
Ed
 1e-07 1 1 0
1  111 0 2 7
4 C0 49 0 57 0
0

0101000
+113 0 -109 0 *
Wi

0101100
-112 0 -128 0 -119 0 -110 0 -108 0 -107 0 *
Fa
0  1e-07 49 0

0111000
-114 0 -106 0 *
Ve
1e-07
-1.68674833414861e-15 -7 0
0 0

0101101
*
Ed
 1e-07 1 1 0
1  112 0 0 1.5707963267949
2  137 56 0 0 1.5707963267949
4 C0 56 0 55 0
0

0101000
+121 0 -104 0 *
Ed
 1e-07 1 1 0
1  113 0 36 50
2  138 56 0 36 50
4 G1 56 0 30 0
0

0101000
+111 0 -104 0 *
Wi

0101100
+120 0 +103 0 -102 0 +110 0 *
Fa
0  1e-07 56 0

0111000
+101 0 *
Ed
 1e-07 1 1 0
1  114 0 3.14159265358979 6.28318530717959
2  139 51 0 3.14159265358979 6.28318530717959
4 C0 51 0 52 0
0

0101000
+139 0 -137 0 *
Ed
 1e-07 1 1 0
1  115 0 3.14159265358979 6.28318530717959
2  140 51 0 3.14159265358979 6.28318530717959
4 C0 51 0 44 0
0

0101000
+141 0 -142 0 *
Wi

0101100
-99 0 -138 0 +98 0 -135 0 *
Fa
0  1e-07 51 0

0111000
+97 0 *
Ed
 1e-07 1 1 0
1  116 0 0 3.14159265358979
2  141 48 0 0 3.14159265358979
4 C0 48 0 47 0
0

0101000
+151 0 -152 0 *
Wi

0101100
-115 0 -148 0 -95 0 -145 0 *
Fa
0  1e-07 48 0

0111000
+94 0 *
Wi

0101100
-95 0 -150 0 *
Fa
0  1e-07 47 0

0111000
-92 0 *
Wi

0101100
-136 0 -99 0 *
Fa
0  1e-07 52 0

0111000
-90 0 *
Ve
1e-07
-7 -2 -35
0 0

0101101
*
Ed
 1e-07 1 1 0
1  117 0 -18.25 2.75
4 C0 57 0 33 0
0

0101000
+113 0 -88 0 *
Ve
1e-07
-7 -7 -35
0 0

0101101
*
Ed
 1e-07 1 1 0
1  118 0 -2.75 18.25
4 C0 57 0 30 0
0

0101000
+86 0 -109 0 *
Ed
 1e-07 1 1 0
1  119 0 -7 -2
4 C0 57 0 44 0
0

0101000
+86 0 -88 0 *
Wi

0101100
-87 0 +107 0 -85 0 +84 0 *
Fa
0  1e-07 57 0

0111000
+83 0 *
Wi

0101100
+98 0 +140 0 *
Ed
 1e-07 1 1 0
1  120 0 0.92705098312484 1.21884705062547
4 C0 44 0 33 0
0

0101000
+88 0 -164 0 *
Ve
1e-07
-1.76927689449022e-15 -7 -35
0 0

0101101
*
Ed
 1e-07 1 1 0
1  121 0 -6.25 0.75
4 C0 44 0 30 0
0

0101000
+79 0 -86 0 *
Ed
 1e-07 1 1 0
1  122 0 0 1.5707963267949
2  142 45 0 0 1.5707963267949
4 C0 44 0 45 0
0

0101000
+158 0 -79 0 *
Wi

0101100
-162 0 -80 0 -84 0 -78 0 -77 0 -155 0 *
Fa
0  1e-07 44 0

0111000
+81 0 +76 0 *
Ve
1e-07
-25 -2 -50
0 0

0101101
*
Ed
 1e-07 1 1 0
1  123 0 0 18.2917960675006
4 C0 33 0 43 0
0

0101000
+74 0 -166 0 *
Ve
1e-07
-25 -2 0
0 0

0101101
*
Ed
 1e-07 1 1 0
1  124 0 0 50
4 C0 33 0 58 0
0

0101000
+74 0 -72 0 *
Ed
 1e-07 1 1 0
1  125 0 0 18.2917960675006
4 C0 33 0 55 0
0

0101000
+72 0 -127 0 *
Wi

0101100
+87 0 +80 0 -163 0 -73 0 +71 0 +70 0 -126 0 +112 0 *
Ed
 1e-07 1 1 0
1  126 0 3.14159265358979 6.28318530717959
2  143 34 0 3.14159265358979 6.28318530717959
4 C0 33 0 34 0
0

0101000
+199 0 -200 0 *
Wi

0101100
+68 0 +198 0 *
Ed
 1e-07 1 1 0
1  127 0 3.14159265358979 6.28318530717959
2  144 40 0 3.14159265358979 6.28318530717959
4 C0 33 0 40 0
0

0101000
+175 0 -176 0 *
Wi

0101100
+66 0 +174 0 *
Fa
0  1e-07 33 0

0111000
+69 0 +67 0 +65 0 *
Ve
1e-07
-1.68674833414861e-15 -7 -50
0 0

0101101
*
Ed
 1e-07 1 1 0
1  128 0 0 15
2  145 45 0 0 15
4 G1 45 0 30 0
0

0101000
+63 0 -79 0 *
Ed
 1e-07 1 1 0
1  129 0 4.71238898038469 6.28318530717959
2  146 45 0 4.71238898038469 6.28318530717959
4 C0 45 0 43 0
0

0101000
+63 0 -159 0 *
Wi

0101100
+157 0 +77 0 -62 0 +61 0 *
Fa
0  1e-07 45 0

0111000
+60 0 *
Ed
 1e-07 1 1 0
1  130 0 3.14159265358979 6.28318530717959
2  147 40 0 3.14159265358979 6.28318530717959
2  148 39 0 3.14159265358979 6.28318530717959
4 C0 40 0 39 0
0

0101000
+182 0 -183 0 *
Wi

0101100
-58 0 -173 0 +66 0 -172 0 *
Fa
0  1e-07 40 0

0111000
+57 0 *
Ed
 1e-07 1 1 0
1  131 0 3.14159265358979 6.28318530717959
2  149 39 0 3.14159265358979 6.28318530717959
2  150 37 0 3.14159265358979 6.28318530717959
4 C0 39 0 37 0
0

0101000
+192 0 -193 0 *
Wi

0101100
-55 0 -180 0 +58 0 -179 0 *
Fa
0  1e-07 39 0

0111000
+54 0 *
Ed
 1e-07 1 1 0
1  132 0 0 3.14159265358979
2  151 37 0 0 3.14159265358979
4 C0 37 0 30 0
0

0101000
+188 0 -190 0 *
Wi

0101100
+52 0 -189 0 +55 0 -186 0 *
Fa
0  1e-07 37 0

0111000
+51 0 *
Ed
 1e-07 1 1 0
1  133 0 3.14159265358979 6.28318530717959
2  152 34 0 3.14159265358979 6.28318530717959
2  153 32 0 3.14159265358979 6.28318530717959
4 C0 34 0 32 0
0

0101000
+206 0 -207 0 *
Wi

0101100
-49 0 -197 0 +68 0 -196 0 *
Fa
0  1e-07 34 0

0111000
+48 0 *
Ed
 1e-07 1 1 0
1  134 0 3.14159265358979 6.28318530717959
2  154 32 0 3.14159265358979 6.28318530717959
2  155 29 0 3.14159265358979 6.28318530717959
4 C0 32 0 29 0
0

0101000
+216 0 -217 0 *
Wi

0101100
-46 0 -204 0 +49 0 -203 0 *
Fa
0  1e-07 32 0

0111000
+45 0 *
Ed
 1e-07 1 1 0
1  135 0 0 3.14159265358979
2  156 29 0 0 3.14159265358979
4 C0 29 0 30 0
0

0101000
+212 0 -214 0 *
Wi

0101100
+43 0 -213 0 +46 0 -210 0 *
Fa
0  1e-07 29 0

0111000
+42 0 *
Ve
1e-07
-25 -7 0
0 0

0101101
*
Ed
 1e-07 1 1 0
1  136 0 0 5
4 C0 58 0 55 0
0

0101000
+40 0 -72 0 *
Ve
1e-07
-25 -7 -50
0 0

0101101
*
Ed
 1e-07 1 1 0
1  137 0 0 5
4 C0 58 0 43 0
0

0101000
+38 0 -74 0 *
Ed
 1e-07 1 1 0
1  138 0 0 50
4 C0 58 0 30 0
0

0101000
+38 0 -40 0 *
Wi

0101100
+39 0 -71 0 -37 0 +36 0 *
Fa
0  1e-07 58 0

0111000
+35 0 *
Ed
 1e-07 1 1 0
1  139 0 0 25
4 C0 30 0 55 0
0

0101000
+104 0 -40 0 *
Ed
 1e-07 1 1 0
1  140 0 0 25
4 C0 30 0 43 0
0

0101000
+63 0 -38 0 *
Wi

0101100
+108 0 +102 0 +33 0 -36 0 -32 0 +62 0 +78 0 +85 0 *
Wi

0101100
+187 0 +52 0 *
Wi

0101100
+211 0 +43 0 *
Fa
0  1e-07 30 0

0111000
+31 0 +30 0 +29 0 *
Wi

0101100
-39 0 -33 0 -103 0 -118 0 -125 0 -70 0 *
Fa
0  1e-07 55 0

0111000
+27 0 *
Wi

0101100
+32 0 +37 0 +73 0 -165 0 -156 0 -61 0 *
Fa
0  1e-07 43 0

0111000
-25 0 *
Sh

0101100
-208 0 -201 0 -194 0 -184 0 -177 0 -170 0 +160 0 +153 0 -143 0 -133 0 
+123 0 +116 0 -105 0 +100 0 -96 0 -93 0 -91 0 -89 0 +82 0 +75 0 
+64 0 +59 0 -56 0 -53 0 -50 0 -47 0 -44 0 -41 0 +34 0 +28 0 
+26 0 -24 0 *
So

0100000
+23 0 *
Ve
1e-07
3 0 -0.5
0 0

0101101
*
Ve
1e-07
3 0 -49.5
0 0

0101101
*
Ed
 1e-07 1 1 0
1  141 0 -24.5 24.5
2  157 59 0 -24.5 24.5
2  158 60 0 -24.5 24.5
4 CN 59 0 60 0
0

0101000
+21 0 -20 0 *
Ve
1e-07
-3 -3.67381906146713e-16 -0.5
0 0

0101101
*
Ed
 1e-07 1 1 0
1  142 0 3.14159265358979 6.28318530717959
2  159 59 0 3.14159265358979 6.28318530717959
4 C0 59 0 61 0
0

0101000
+18 0 -21 0 *
Ve
1e-07
-3 -3.67381906146713e-16 -49.5
0 0

0101101
*
Ed
 1e-07 1 1 0
1  143 0 -24.5 24.5
2  160 59 0 -24.5 24.5
2  161 60 0 -24.5 24.5
4 CN 59 0 60 0
0

0101000
+16 0 -18 0 *
Ed
 1e-07 1 1 0
1  144 0 0 3.14159265358979
2  162 59 0 0 3.14159265358979
4 C0 59 0 62 0
0

0101000
+20 0 -16 0 *
Wi

0101100
-19 0 -17 0 -15 0 -14 0 *
Fa
0  1e-07 59 0

0111000
+13 0 *
Ed
 1e-07 1 1 0
1  145 0 3.14159265358979 6.28318530717959
2  163 60 0 3.14159265358979 6.28318530717959
4 C0 60 0 62 0
0

0101000
+16 0 -20 0 *
Ed
 1e-07 1 1 0
1  146 0 0 3.14159265358979
2  164 60 0 0 3.14159265358979
4 C0 60 0 61 0
0

0101000
+21 0 -18 0 *
Wi

0101100
+19 0 -11 0 +15 0 -10 0 *
Fa
0  1e-07 60 0

0111000
+9 0 *
Wi

0101100
+10 0 +17 0 *
Fa
0  1e-07 61 0

0111000
+7 0 *
Wi

0101100
+14 0 +11 0 *
Fa
0  1e-07 62 0

0111000
+5 0 *
Sh

0101100
+12 0 +8 0 +6 0 +4 0 *
So

0100000
+3 0 *
Co

1100000
+218 0 +22 0 +2 0 *

+1 0 