DBRep_DrawableShape

CASCADE Topology V1, (c) Matra-Datavision
Locations 0
Curve2ds 120
1 3.1415926535897931 22 0 -1 
1 3.1415926535897931 22 0 -1 
1 0 19 1 0 
1 3.7590297572051479 0 0 1 
1 6.2831853071795862 25 -1 0 
1 0 22 0 1 
1 6.2831853071795862 22 0 1 
1 0 19 1 0 
1 6.2831853071795862 25 -1 0 
1 3.1415926535897931 9.5 0 -1 
1 3.1415926535897931 9.5 0 -1 
1 0 6.5 1 0 
1 3.7590297572051479 0 0 1 
1 6.2831853071795862 12.5 -1 0 
1 0 9.5 0 1 
1 6.2831853071795862 9.5 0 1 
1 0 6.5 1 0 
1 6.2831853071795862 12.5 -1 0 
1 0 -0.39999999999999991 1 0 
1 3.1415926535897927 0 0 1 
1 3.1415926535897927 0 0 1 
1 6.2831853071795862 0.39999999999999858 -1 2.8271597168564599e-16 
1 0 0 0 -1 
1 6.2831853071795862 0 0 -1 
1 0 -0.39999999999999991 1 0 
1 3.1415926535897931 0 0 1 
1 3.1415926535897931 0 0 1 
1 6.2831853071795862 0.39999999999999858 -1 2.8271597168564594e-16 
1 0 0 0 -1 
1 6.2831853071795862 0 0 -1 
1 6.2831853071795862 -2.875 -1 0 
1 3.1415926535897931 0 0 1 
1 3.1415926535897931 0 0 1 
1 6.2831853071795862 3.125 -1 0 
1 0 0 0 -1 
1 6.2831853071795862 0 0 -1 
1 6.2831853071795862 -2.875 -1 0 
1 3.1415926535897931 0 0 1 
1 3.1415926535897931 0 0 1 
1 6.2831853071795862 3.125 -1 0 
1 0 0 0 -1 
1 6.2831853071795862 0 0 -1 
1 6.2831853071795862 -2.875 -1 0 
1 0 19 1 0 
1 6.2831853071795862 0.40000000000000036 -1 -2.8271597168564594e-16 
1 6.2831853071795862 0.40000000000000036 -1 -2.8271597168564589e-16 
1 4.7123889803846897 0 0 1 
1 4.7123889803846897 0 0 1 
1 0 6.5 1 0 
1 6.2831853071795862 -2.875 -1 0 
1 0 -0.39999999999999991 1 0 
1 0 -0.39999999999999991 1 0 
1 6.2831853071795862 3.125 -1 0 
1 6.2831853071795862 3.125 -1 0 
1 6.2831853071795862 12.5 -1 0 
1 6.2831853071795862 25 -1 0 
1 3.1415926535897931 21.875 0 -1 
1 3.1415926535897931 21.875 0 -1 
1 0 18.75 1 0 
1 3.7590297572051474 0 0 1 
1 6.2831853071795862 25 -1 0 
1 0 21.875 0 1 
1 6.2831853071795862 21.875 0 1 
1 0 18.75 1 0 
1 6.2831853071795862 25 -1 0 
1 3.1415926535897931 9.25 0 -1 
1 3.1415926535897931 9.25 0 -1 
1 0 6.25 1 0 
1 3.7590297572051474 0 0 1 
1 6.2831853071795862 12.25 -1 0 
1 0 9.25 0 1 
1 6.2831853071795862 9.25 0 1 
1 0 6.25 1 0 
1 6.2831853071795862 12.25 -1 0 
1 0 -0.39999999999999991 1 0 
1 3.1415926535897927 0 0 1 
1 3.1415926535897927 0 0 1 
1 6.2831853071795862 0.39999999999999858 -1 2.8271597168564599e-16 
1 0 0 0 -1 
1 6.2831853071795862 0 0 -1 
1 0 -0.39999999999999991 1 0 
1 3.1415926535897931 0 0 1 
1 3.1415926535897931 0 0 1 
1 6.2831853071795862 0.39999999999999858 -1 2.8271597168564594e-16 
1 0 0 0 -1 
1 6.2831853071795862 0 0 -1 
1 6.2831853071795862 -2.875 -1 0 
1 3.1415926535897931 0 0 1 
1 3.1415926535897931 0 0 1 
1 6.2831853071795862 3.125 -1 0 
1 0 0 0 -1 
1 6.2831853071795862 0 0 -1 
1 0 -3.125 1 0 
1 3.1415926535897931 0 0 1 
1 3.1415926535897931 0 0 1 
1 6.2831853071795862 3.125 -1 0 
1 0 0 0 -1 
1 6.2831853071795862 0 0 -1 
1 6.2831853071795862 -2.875 -1 0 
1 6.2831853071795862 12.25 -1 0 
1 0 -0.39999999999999991 1 0 
1 0 -0.39999999999999991 1 0 
1 6.2831853071795862 3.125 -1 0 
1 0 -3.125 1 0 
1 6.2831853071795862 3.125 -1 0 
1 6.2831853071795862 0.40000000000000036 -1 -2.8271597168564599e-16 
1 6.2831853071795862 0.40000000000000036 -1 -2.8271597168564589e-16 
1 0 18.75 1 0 
1 4.7123889803846897 0 0 1 
1 0 6.25 1 0 
1 6.2831853071795862 25 -1 0 
1 4.7123889803846897 0 0 1 
1 0 0 0 1 
1 6.2831853071795862 0 0 1 
1 6.2831853071795862 -12.5 -1 0 
1 3.1415926535897931 0 0 -1 
1 3.1415926535897931 0 0 -1 
1 0 12.5 1 0 
1 0 12.5 1 0 
1 6.2831853071795862 -12.5 -1 0 
Curves 138
1 9.5 2.9390552491737002e-16 1.8999999999999999 -1 -0 -6.12303176911189e-17 
2 6.5 6.12303176911189e-17 3.97997064992273e-16 1 -0 0 0 0 -1 0 1 0 1.8999999999999999
1 -12.5 -1.1000000000000001 1.5491933384829699 1 0 6.12303176911189e-17 
2 12.5 6.12303176911189e-17 7.6537897113898598e-16 -1 -0 -6.12303176911189e-17 6.12303176911189e-17 0 -1 0 -1 0 1.8999999999999999
1 9.5 -1.7144488953513301e-16 -1.8999999999999999 1 0 6.12303176911189e-17 
2 6.5 6.12303176911189e-17 3.97997064992273e-16 1 -0 0 0 0 -1 0 1 0 1.8999999999999999
2 12.5 6.12303176911189e-17 7.6537897113898598e-16 -1 -0 -6.12303176911189e-17 6.12303176911189e-17 0 -1 0 -1 0 1.8999999999999999
1 -3 2.9390552491737002e-16 1.8999999999999999 -1 -0 -6.12303176911189e-17 
2 -6 6.12303176911189e-17 -3.6738190614671298e-16 1 -0 0 0 0 -1 0 1 0 1.8999999999999999
1 -12.5 -1.1000000000000001 1.5491933384829699 1 0 6.12303176911189e-17 
2 0 6.12303176911189e-17 0 -1 -0 -6.12303176911189e-17 6.12303176911189e-17 0 -1 0 -1 0 1.8999999999999999
1 -3 -1.7144488953513301e-16 -1.8999999999999999 1 0 6.12303176911189e-17 
2 -6 6.12303176911189e-17 -3.6738190614671298e-16 1 -0 0 0 0 -1 0 1 0 1.8999999999999999
2 0 6.12303176911189e-17 0 -1 -0 -6.12303176911189e-17 6.12303176911189e-17 0 -1 0 -1 0 1.8999999999999999
2 -8 -1.1000000000000001 6 0 -1 0 6.12303176911189e-17 0 -1 1 0 6.12303176911189e-17 1.7
1 -8 -1.5 7.7000000000000002 0 -1 0 
2 -8 -1.8999999999999999 6 1.49554478712745e-32 1 -2.44249065417535e-16 6.12303176911189e-17 -2.44249065417535e-16 -1 -1 -5.2001310199553758e-47 -6.12303176911189e-17 1.7
1 -8 -1.5 4.2999999999999998 -0 1 0 
2 8 -1.1000000000000001 6 0 -1 0 6.12303176911189e-17 0 -1 1 0 6.12303176911189e-17 1.7
1 8 -1.5 7.7000000000000002 0 -1 0 
2 8 -1.8999999999999999 6 1.49554478712745e-32 1 -2.44249065417535e-16 6.12303176911189e-17 -2.44249065417535e-16 -1 -1 -5.2001310199553758e-47 -6.12303176911189e-17 1.7
1 8 -1.5 4.2999999999999998 -0 1 0 
2 6.5 0 0 -1 0 0 0 0 -1 -0 -1 -0 1.02
1 9.375 1.24909848089882e-16 1.02 1 0 0 
2 12.5 0 0 -1 -0 -6.12303176911189e-17 6.12303176911189e-17 0 -1 0 -1 0 1.02
1 9.375 -1.24909848089882e-16 -1.02 -1 0 0 
2 -6 0 0 -1 0 0 0 0 -1 -0 -1 -0 1.02
1 -3.125 1.24909848089882e-16 1.02 1 0 0 
2 0 0 0 -1 -0 -6.12303176911189e-17 6.12303176911189e-17 0 -1 0 -1 0 1.02
1 -3.125 -1.24909848089882e-16 -1.02 -1 0 0 
2 6.5 0 0 -1 0 0 0 0 -1 -0 -1 -0 1.02
1 6.5 -1.1000000000000001 2.8872983346207399 0 -0 1 
2 6.5 6.12303176911189e-17 3.97997064992273e-16 1 -0 0 0 0 -1 0 1 0 1.8999999999999999
1 6.5 -1.8999999999999999 2.5 -0 -2.4424906541753401e-16 -1 
1 6.5 0 1.8999999999999999 0 1 0 
2 8 -1.8999999999999999 6 1.49554478712745e-32 1 -2.44249065417535e-16 6.12303176911189e-17 -2.44249065417535e-16 -1 -1 -5.2001310199553758e-47 -6.12303176911189e-17 1.7
2 -8 -1.8999999999999999 6 1.49554478712745e-32 1 -2.44249065417535e-16 6.12303176911189e-17 -2.44249065417535e-16 -1 -1 -5.2001310199553758e-47 -6.12303176911189e-17 1.7
1 -3.0625 -1.8999999999999999 1.8999999999999999 1 -1.49554478712745e-32 0 
1 -12.5 -1.8999999999999999 -9.7111473093826194e-16 1 0 6.12303176911189e-17 
1 12.5 -1.8999999999999999 5.5964321133971002e-16 -6.12303176911189e-17 2.4424906541753401e-16 1 
1 -12.5 -1.8999999999999999 10 1 0 6.12303176911189e-17 
1 -12.5 -1.8999999999999999 -9.7111473093826194e-16 -6.12303176911189e-17 2.4424906541753401e-16 1 
1 -9.3125 -1.8999999999999999 1.8999999999999999 1 -1.49554478712745e-32 0 
1 -6 -1.8999999999999999 2.5 -0 -2.4424906541753401e-16 -1 
1 -12.5 -1.8999999999999999 -9.7111473093826194e-16 1 0 6.12303176911189e-17 
1 -1.5307579422779701e-16 -1.8999999999999999 2.5 -6.12303176911189e-17 2.4424906541753401e-16 1 
1 -6 -1.1000000000000001 2.8872983346207399 0 -0 1 
2 -6 6.12303176911189e-17 -3.6738190614671298e-16 1 -0 0 0 0 -1 0 1 0 1.8999999999999999
1 -6 0 1.8999999999999999 0 1 0 
2 -6 0 0 -1 0 0 0 0 -1 -0 -1 -0 1.02
1 -3.0625 -1.1000000000000001 1.8999999999999999 -1 0 0 
1 -1.7679019429786599e-16 -1.1000000000000001 2.8872983346207399 6.12303176911189e-17 0 -1 
1 -9.3125 -1.1000000000000001 1.8999999999999999 -1 0 0 
1 -12.5 -1.1000000000000001 10 6.12303176911189e-17 0 -1 
1 -12.5 -1.1000000000000001 10 1 0 6.12303176911189e-17 
1 12.5 -1.1000000000000001 10 6.12303176911189e-17 0 -1 
2 -8 -1.1000000000000001 6 0 -1 0 6.12303176911189e-17 0 -1 1 0 6.12303176911189e-17 1.7
2 8 -1.1000000000000001 6 0 -1 0 6.12303176911189e-17 0 -1 1 0 6.12303176911189e-17 1.7
2 0 0 0 -1 -0 -6.12303176911189e-17 6.12303176911189e-17 0 -1 0 -1 0 1.02
2 12.5 0 0 -1 -0 -6.12303176911189e-17 6.12303176911189e-17 0 -1 0 -1 0 1.02
1 -1.16337603613126e-16 0 1.8999999999999999 0 1 0 
2 0 6.12303176911189e-17 0 -1 -0 -6.12303176911189e-17 6.12303176911189e-17 0 -1 0 -1 0 1.8999999999999999
2 12.5 6.12303176911189e-17 7.6537897113898598e-16 -1 -0 -6.12303176911189e-17 6.12303176911189e-17 0 -1 0 -1 0 1.8999999999999999
1 -12.5 -0.48105841368220098 1.8999999999999999 0 -1 0 
1 12.5 -1.8999999999999999 10 0 1 0 
1 -12.5 -1.8999999999999999 10 0 1 0 
1 -9.375 2.9390552491737002e-16 -1.8999999999999999 1 -0 1.8369095307335701e-16 
2 -6.25 6.12303176911189e-17 -1.1480684567084801e-15 -1 0 -1.8369095307335701e-16 -1.8369095307335701e-16 0 1 0 1 0 1.8999999999999999
1 12.5 -1.1000000000000001 -1.5491933384829699 -1 0 -1.8369095307335701e-16 
2 -12.5 6.12303176911189e-17 -2.2961369134169601e-15 1 0 1.8369095307335701e-16 -1.8369095307335701e-16 0 1 0 -1 0 1.8999999999999999
1 -9.375 -1.7144488953513301e-16 1.8999999999999999 -1 0 -1.8369095307335701e-16 
2 -6.25 6.12303176911189e-17 -1.1480684567084801e-15 -1 0 -1.8369095307335701e-16 -1.8369095307335701e-16 0 1 0 1 0 1.8999999999999999
2 -12.5 6.12303176911189e-17 -2.2961369134169601e-15 1 0 1.8369095307335701e-16 -1.8369095307335701e-16 0 1 0 -1 0 1.8999999999999999
1 3.25 2.9390552491737002e-16 -1.8999999999999999 1 -0 1.8369095307335701e-16 
2 6.25 6.12303176911189e-17 1.1480684567084801e-15 -1 0 -1.8369095307335701e-16 -1.8369095307335701e-16 0 1 0 1 0 1.8999999999999999
1 12.5 -1.1000000000000001 -1.5491933384829699 -1 0 -1.8369095307335701e-16 
2 0.25 6.12303176911189e-17 4.5922738268339098e-17 1 0 -0 0 0 1 0 -1 0 1.8999999999999999
1 3.25 -1.7144488953513301e-16 1.8999999999999999 -1 0 -1.8369095307335701e-16 
2 6.25 6.12303176911189e-17 1.1480684567084801e-15 -1 0 -1.8369095307335701e-16 -1.8369095307335701e-16 0 1 0 1 0 1.8999999999999999
2 0.25 6.12303176911189e-17 4.5922738268339098e-17 1 0 -0 0 0 1 0 -1 0 1.8999999999999999
2 8 -1.1000000000000001 -6 0 -1 0 -1.8369095307335701e-16 0 1 -1 -0 -1.8369095307335701e-16 1.7
1 8 -1.5 -7.7000000000000002 0 -1 -0 
2 8 -1.8999999999999999 -6 -4.4866343613823499e-32 1 2.44249065417535e-16 -1.8369095307335701e-16 -2.44249065417535e-16 1 1 -2.299005293032903e-46 1.8369095307335701e-16 1.7
1 8 -1.5 -4.2999999999999998 -0 1 0 
2 -8 -1.1000000000000001 -6 0 -1 0 -1.8369095307335701e-16 0 1 -1 -0 -1.8369095307335701e-16 1.7
1 -8 -1.5 -7.7000000000000002 0 -1 -0 
2 -8 -1.8999999999999999 -6 -4.4866343613823499e-32 1 2.44249065417535e-16 -1.8369095307335701e-16 -2.44249065417535e-16 1 1 -2.299005293032903e-46 1.8369095307335701e-16 1.7
1 -8 -1.5 -4.2999999999999998 -0 1 0 
2 0.25 0 0 -1 0 0 0 0 -1 -0 -1 -0 1.02
1 3.125 1.24909848089882e-16 1.02 1 0 0 
2 6.25 0 0 -1 0 -1.8369095307335701e-16 1.8369095307335701e-16 0 -1 0 -1 -0 1.02
1 3.125 -1.24909848089882e-16 -1.02 -1 0 0 
2 -12.5 0 0 1 -0 1.8369095307335701e-16 1.8369095307335701e-16 0 -1 0 1 0 1.02
1 -9.375 1.24909848089882e-16 1.02 1 0 0 
2 -6.25 0 0 -1 0 -1.8369095307335701e-16 1.8369095307335701e-16 0 -1 0 -1 -0 1.02
1 -9.375 -1.24909848089882e-16 -1.02 -1 0 0 
2 0.25 0 0 -1 0 0 0 0 -1 -0 -1 -0 1.02
1 0.25 -1.1000000000000001 -2.8872983346207399 0 -0 1 
1 0.25 0 -1.8999999999999999 0 -1 0 
1 0.25 -1.8999999999999999 -2.5 0 2.4424906541753401e-16 -1 
2 0.25 6.12303176911189e-17 4.5922738268339098e-17 1 0 -0 0 0 1 0 -1 0 1.8999999999999999
1 6.3125 -1.1000000000000001 -1.8999999999999999 1 0 0 
1 6.25 -1.1000000000000001 -2.8872983346207399 1.8369095307335701e-16 0 -1 
1 10.9375 -1.1000000000000001 -1.8999999999999999 1 0 1.8369095307335701e-16 
1 12.5 -1.1000000000000001 -10 -1.8369095307335701e-16 0 1 
1 12.5 -1.1000000000000001 -10 -1 0 -1.8369095307335701e-16 
1 -12.5 -1.1000000000000001 -10 -1.8369095307335701e-16 0 1 
1 -6.25 -1.1000000000000001 -2.8872983346207399 1.8369095307335701e-16 0 -1 
2 8 -1.1000000000000001 -6 0 -1 0 -1.8369095307335701e-16 0 1 -1 -0 -1.8369095307335701e-16 1.7
2 -8 -1.1000000000000001 -6 0 -1 0 -1.8369095307335701e-16 0 1 -1 -0 -1.8369095307335701e-16 1.7
2 -6.25 0 0 -1 0 -1.8369095307335701e-16 1.8369095307335701e-16 0 -1 0 -1 -0 1.02
2 -12.5 0 0 1 -0 1.8369095307335701e-16 1.8369095307335701e-16 0 -1 0 1 0 1.02
2 6.25 0 0 -1 0 -1.8369095307335701e-16 1.8369095307335701e-16 0 -1 0 -1 -0 1.02
2 -8 -1.8999999999999999 -6 -4.4866343613823499e-32 1 2.44249065417535e-16 -1.8369095307335701e-16 -2.44249065417535e-16 1 1 -2.299005293032903e-46 1.8369095307335701e-16 1.7
2 8 -1.8999999999999999 -6 -4.4866343613823499e-32 1 2.44249065417535e-16 -1.8369095307335701e-16 -2.44249065417535e-16 1 1 -2.299005293032903e-46 1.8369095307335701e-16 1.7
2 -6.25 6.12303176911189e-17 -1.1480684567084801e-15 -1 0 -1.8369095307335701e-16 -1.8369095307335701e-16 0 1 0 1 0 1.8999999999999999
1 -6.25 -1.8999999999999999 -2.5 -1.8369095307335701e-16 -2.4424906541753401e-16 1 
1 -6.25 0 -1.8999999999999999 0 -1 -0 
1 6.3125 -1.8999999999999999 -1.8999999999999999 -1 -4.4866343613823499e-32 0 
1 12.5 -1.8999999999999999 2.5018726732162302e-15 -1 0 -1.8369095307335701e-16 
2 6.25 6.12303176911189e-17 1.1480684567084801e-15 -1 0 -1.8369095307335701e-16 -1.8369095307335701e-16 0 1 0 1 0 1.8999999999999999
2 -12.5 6.12303176911189e-17 -2.2961369134169601e-15 1 0 1.8369095307335701e-16 -1.8369095307335701e-16 0 1 0 -1 0 1.8999999999999999
1 12.5 -1.8999999999999999 2.5018726732162302e-15 -1 0 -1.8369095307335701e-16 
1 6.25 0 -1.8999999999999999 0 -1 -0 
1 10.9375 -1.8999999999999999 -1.8999999999999999 -1 0 -1.8369095307335701e-16 
1 12.5 -0.48105841368220098 -1.8999999999999999 0 -1 -0 
1 6.25 -1.8999999999999999 -2.5 -1.8369095307335701e-16 -2.4424906541753401e-16 1 
1 -12.5 -1.8999999999999999 -10 0 1 0 
1 12.5 -1.8999999999999999 -10 0 1 0 
1 12.5 -1.8999999999999999 -10 -1 0 -1.8369095307335701e-16 
1 -12.5 -1.8999999999999999 -2.0904011536176798e-15 1.8369095307335701e-16 2.4424906541753401e-16 -1 
1 12.5 -1.8999999999999999 2.5018726732162302e-15 1.8369095307335701e-16 2.4424906541753401e-16 -1 
1 0 -1.22460635382238e-16 1 -1 0 0 
2 12.5 0 0 1 0 -0 0 0 1 0 -1 0 1
1 0 1.22460635382238e-16 -1 1 -0 -0 
2 -12.5 0 0 -1 0 0 0 0 1 0 1 -0 1
2 -12.5 0 0 -1 0 0 0 0 1 0 1 -0 1
2 12.5 0 0 1 0 -0 0 0 1 0 -1 0 1
Polygon3D 0
PolygonOnTriangulations 0
Surfaces 52
2 -12.5 6.12303176911189e-17 -7.6537897113898598e-16 1 0 6.12303176911189e-17 6.12303176911189e-17 0 -1 -0 1 0 1.8999999999999999
2 -12.5 6.12303176911189e-17 -7.6537897113898598e-16 1 0 6.12303176911189e-17 6.12303176911189e-17 0 -1 -0 1 0 1.8999999999999999
1 6.5 0 0 -1 0 0 0 0 1 0 1 -0 
1 -12.5 -1.1000000000000001 5.7745966692414799 0 1 0 -6.12303176911189e-17 0 1 1 -0 6.12303176911189e-17 
1 12.5 -0.96211682736440196 3.6137940060327098 1 0 6.12303176911189e-17 6.12303176911189e-17 0 -1 -0 1 0 
2 -12.5 6.12303176911189e-17 -7.6537897113898598e-16 1 0 6.12303176911189e-17 6.12303176911189e-17 0 -1 -0 1 0 1.8999999999999999
2 -12.5 6.12303176911189e-17 -7.6537897113898598e-16 1 0 6.12303176911189e-17 6.12303176911189e-17 0 -1 -0 1 0 1.8999999999999999
2 -12.5 6.12303176911189e-17 -7.6537897113898598e-16 1 0 6.12303176911189e-17 6.12303176911189e-17 0 -1 -0 1 0 1.8999999999999999
1 -6 0 0 -1 0 0 0 0 1 0 1 -0 
1 0 0 0 1 0 6.12303176911189e-17 6.12303176911189e-17 0 -1 -0 1 0 
2 -12.5 6.12303176911189e-17 -7.6537897113898598e-16 1 0 6.12303176911189e-17 6.12303176911189e-17 0 -1 -0 1 0 1.8999999999999999
2 -8 -1.5 6 0 -1 0 6.12303176911189e-17 0 -1 1 0 6.12303176911189e-17 1.7
2 -8 -1.5 6 0 -1 0 6.12303176911189e-17 0 -1 1 0 6.12303176911189e-17 1.7
1 -12.5 -1.8999999999999999 5 -1.49554478712745e-32 -1 2.4424906541753401e-16 6.12303176911189e-17 -2.4424906541753401e-16 -1 1 -8.210733189403225e-48 6.12303176911189e-17 
2 8 -1.5 6 0 -1 0 6.12303176911189e-17 0 -1 1 0 6.12303176911189e-17 1.7
2 8 -1.5 6 0 -1 0 6.12303176911189e-17 0 -1 1 0 6.12303176911189e-17 1.7
2 9.375 0 0 1 0 0 0 0 -1 -0 1 0 1.02
2 9.375 0 0 1 0 0 0 0 -1 -0 1 0 1.02
2 -3.125 0 0 1 0 0 0 0 -1 -0 1 0 1.02
2 -3.125 0 0 1 0 0 0 0 -1 -0 1 0 1.02
1 3.125 0 1.8999999999999999 6.12303176911189e-17 0 -1 -1 0 -6.12303176911189e-17 0 1 0 
1 -12.5 -1.5 10 -6.12303176911189e-17 0 1 0 -1 0 1 0 6.12303176911189e-17 
1 -12.5 -0.96211682736440196 3.6137940060327098 1 0 6.12303176911189e-17 6.12303176911189e-17 0 -1 -0 1 0 
1 -9.375 0 1.8999999999999999 6.12303176911189e-17 0 -1 -1 0 -6.12303176911189e-17 0 1 0 
2 12.5 6.12303176911189e-17 2.2961369134169601e-15 -1 0 -1.8369095307335701e-16 -1.8369095307335701e-16 0 1 0 1 0 1.8999999999999999
2 12.5 6.12303176911189e-17 2.2961369134169601e-15 -1 0 -1.8369095307335701e-16 -1.8369095307335701e-16 0 1 0 1 0 1.8999999999999999
1 -6.25 0 -1.1480684567084801e-15 -1 0 -1.8369095307335701e-16 -1.8369095307335701e-16 0 1 0 1 0 
1 12.5 -1.1000000000000001 -5.7745966692414799 0 1 0 1.8369095307335701e-16 0 -1 -1 0 -1.8369095307335701e-16 
1 -12.5 -0.96211682736440196 -3.6137940060327098 -1 0 -1.8369095307335701e-16 -1.8369095307335701e-16 0 1 0 1 0 
2 12.5 6.12303176911189e-17 2.2961369134169601e-15 -1 0 -1.8369095307335701e-16 -1.8369095307335701e-16 0 1 0 1 0 1.8999999999999999
2 12.5 6.12303176911189e-17 2.2961369134169601e-15 -1 0 -1.8369095307335701e-16 -1.8369095307335701e-16 0 1 0 1 0 1.8999999999999999
2 12.5 6.12303176911189e-17 2.2961369134169601e-15 -1 0 -1.8369095307335701e-16 -1.8369095307335701e-16 0 1 0 1 0 1.8999999999999999
1 6.25 0 1.1480684567084801e-15 -1 0 -1.8369095307335701e-16 -1.8369095307335701e-16 0 1 0 1 0 
1 0.25 0 0 -1 0 0 0 0 1 0 1 -0 
2 12.5 6.12303176911189e-17 2.2961369134169601e-15 -1 0 -1.8369095307335701e-16 -1.8369095307335701e-16 0 1 0 1 0 1.8999999999999999
2 8 -1.5 -6 -0 -1 0 -1.8369095307335701e-16 0 1 -1 0 -1.8369095307335701e-16 1.7
2 8 -1.5 -6 -0 -1 0 -1.8369095307335701e-16 0 1 -1 0 -1.8369095307335701e-16 1.7
1 12.5 -1.8999999999999999 -5 4.4866343613823499e-32 -1 -2.4424906541753401e-16 -1.8369095307335701e-16 -2.4424906541753401e-16 1 -1 4.926439913641935e-47 -1.8369095307335701e-16 
2 -8 -1.5 -6 -0 -1 0 -1.8369095307335701e-16 0 1 -1 0 -1.8369095307335701e-16 1.7
2 -8 -1.5 -6 -0 -1 0 -1.8369095307335701e-16 0 1 -1 0 -1.8369095307335701e-16 1.7
2 3.125 0 0 1 0 0 0 0 -1 -0 1 0 1.02
2 3.125 0 0 1 0 0 0 0 -1 -0 1 0 1.02
2 -9.375 0 0 1 0 0 0 0 -1 -0 1 0 1.02
2 -9.375 0 0 1 0 0 0 0 -1 -0 1 0 1.02
1 -3.125 0 -1.8999999999999999 -1.8369095307335701e-16 0 1 1 0 1.8369095307335701e-16 0 1 -0 
1 9.375 0 -1.8999999999999999 -1.8369095307335701e-16 0 1 1 0 1.8369095307335701e-16 0 1 -0 
1 12.5 -0.96211682736440196 -3.6137940060327098 -1 0 -1.8369095307335701e-16 -1.8369095307335701e-16 0 1 0 1 0 
1 12.5 -1.5 -10 1.8369095307335701e-16 0 -1 0 -1 0 -1 -0 -1.8369095307335701e-16 
2 0 0 0 -1 0 0 0 0 1 0 1 -0 1
2 0 0 0 -1 0 0 0 0 1 0 1 -0 1
1 12.5 0 0 1 0 0 0 0 -1 -0 1 0 
1 -12.5 0 0 -1 0 0 0 0 1 0 1 -0 
Triangulations 0

TShapes 357
Ve
1e-07
12.5 2.9390552491737e-16 1.9
0 0

0101101
*
Ve
1e-07
6.5 2.9390552491737e-16 1.9
0 0

0101101
*
Ed
 1e-07 1 1 0
1  1 0 -3 3
2  1 1 0 -3 3
2  2 2 0 -3 3
4 CN 1 0 2 0
0

0101000
+357 0 -356 0 *
Ve
1e-07
6.5 -1.1 1.54919333848297
0 0

0101101
*
Ed
 1e-07 1 1 0
1  2 0 3.14159265358979 3.75902975720515
2  3 1 0 3.14159265358979 3.75902975720515
4 C0 1 0 3 0
0

0101000
+356 0 -354 0 *
Ve
1e-07
12.5 -1.1 1.54919333848297
0 0

0101101
*
Ed
 1e-07 1 1 0
1  3 0 19 25
2  4 1 0 19 25
4 C0 1 0 4 0
0

0101000
+354 0 -352 0 *
Ed
 1e-07 1 1 0
1  4 0 2.52415554997444 3.14159265358979
2  5 1 0 2.52415554997444 3.14159265358979
4 C0 1 0 5 0
0

0101000
+352 0 -357 0 *
Wi

0101100
+355 0 +353 0 +351 0 +350 0 *
Fa
0  1e-07 1 0

0111000
+349 0 *
Ve
1e-07
6.5 -1.71444889535133e-16 -1.9
0 0

0101101
*
Ve
1e-07
12.5 -1.71444889535133e-16 -1.9
0 0

0101101
*
Ed
 1e-07 1 1 0
1  5 0 -3 3
2  6 2 0 -3 3
2  7 6 0 -3 3
4 CN 2 0 6 0
0

0101000
+347 0 -346 0 *
Ed
 1e-07 1 1 0
1  6 0 0 3.14159265358979
2  8 2 0 0 3.14159265358979
4 C0 2 0 3 0
0

0101000
+347 0 -356 0 *
Ed
 1e-07 1 1 0
1  7 0 3.14159265358979 6.28318530717959
2  9 2 0 3.14159265358979 6.28318530717959
4 C0 2 0 5 0
0

0101000
+357 0 -346 0 *
Wi

0101100
-345 0 +344 0 -355 0 +343 0 *
Fa
0  1e-07 2 0

0111000
+342 0 *
Ve
1e-07
-1.16337603613126e-16 2.9390552491737e-16 1.9
0 0

0101101
*
Ve
1e-07
-6 2.9390552491737e-16 1.9
0 0

0101101
*
Ed
 1e-07 1 1 0
1  8 0 -3 3
2  10 7 0 -3 3
2  11 8 0 -3 3
4 CN 7 0 8 0
0

0101000
+340 0 -339 0 *
Ve
1e-07
-6 -1.1 1.54919333848297
0 0

0101101
*
Ed
 1e-07 1 1 0
1  9 0 3.14159265358979 3.75902975720515
2  12 7 0 3.14159265358979 3.75902975720515
4 C0 7 0 9 0
0

0101000
+339 0 -337 0 *
Ve
1e-07
-9.48576002802772e-17 -1.1 1.54919333848297
0 0

0101101
*
Ed
 1e-07 1 1 0
1  10 0 6.5 12.5
2  13 7 0 6.5 12.5
4 C0 7 0 4 0
0

0101000
+337 0 -335 0 *
Ed
 1e-07 1 1 0
1  11 0 2.52415554997444 3.14159265358979
2  14 7 0 2.52415554997444 3.14159265358979
4 C0 7 0 10 0
0

0101000
+335 0 -340 0 *
Wi

0101100
+338 0 +336 0 +334 0 +333 0 *
Fa
0  1e-07 7 0

0111000
+332 0 *
Ve
1e-07
-6 -1.71444889535133e-16 -1.9
0 0

0101101
*
Ve
1e-07
1.16337603613126e-16 -1.71444889535133e-16 -1.9
0 0

0101101
*
Ed
 1e-07 1 1 0
1  12 0 -3 3
2  15 8 0 -3 3
2  16 11 0 -3 3
4 CN 8 0 11 0
0

0101000
+330 0 -329 0 *
Ed
 1e-07 1 1 0
1  13 0 0 3.14159265358979
2  17 8 0 0 3.14159265358979
4 C0 8 0 9 0
0

0101000
+330 0 -339 0 *
Ed
 1e-07 1 1 0
1  14 0 3.14159265358979 6.28318530717959
2  18 8 0 3.14159265358979 6.28318530717959
4 C0 8 0 10 0
0

0101000
+340 0 -329 0 *
Wi

0101100
-328 0 +327 0 -338 0 +326 0 *
Fa
0  1e-07 8 0

0111000
+325 0 *
Ve
1e-07
-8 -1.1 4.3
0 0

0101101
*
Ve
1e-07
-8 -1.1 7.7
0 0

0101101
*
Ed
 1e-07 1 1 0
1  15 0 0 3.14159265358979
2  19 12 0 0 3.14159265358979
4 C0 12 0 4 0
0

0101000
+323 0 -322 0 *
Ve
1e-07
-8 -1.9 7.7
0 0

0101101
*
Ed
 1e-07 1 1 0
1  16 0 -0.4 0.4
2  20 12 0 -0.4 0.4
2  21 13 0 -0.4 0.4
4 CN 12 0 13 0
0

0101000
+322 0 -320 0 *
Ve
1e-07
-8 -1.9 4.3
0 0

0101101
*
Ed
 1e-07 1 1 0
1  17 0 3.14159265358979 6.28318530717959
2  22 12 0 3.14159265358979 6.28318530717959
4 C0 12 0 14 0
0

0101000
+320 0 -318 0 *
Ed
 1e-07 1 1 0
1  18 0 -0.4 0.4
2  23 12 0 -0.4 0.4
2  24 13 0 -0.4 0.4
4 CN 12 0 13 0
0

0101000
+318 0 -323 0 *
Wi

0101100
+321 0 +319 0 +317 0 +316 0 *
Fa
0  1e-07 12 0

0111000
+315 0 *
Ve
1e-07
8 -1.1 4.3
0 0

0101101
*
Ve
1e-07
8 -1.1 7.7
0 0

0101101
*
Ed
 1e-07 1 1 0
1  19 0 0 3.14159265358979
2  25 15 0 0 3.14159265358979
4 C0 15 0 4 0
0

0101000
+313 0 -312 0 *
Ve
1e-07
8 -1.9 7.7
0 0

0101101
*
Ed
 1e-07 1 1 0
1  20 0 -0.4 0.4
2  26 15 0 -0.4 0.4
2  27 16 0 -0.4 0.4
4 CN 15 0 16 0
0

0101000
+312 0 -310 0 *
Ve
1e-07
8 -1.9 4.3
0 0

0101101
*
Ed
 1e-07 1 1 0
1  21 0 3.14159265358979 6.28318530717959
2  28 15 0 3.14159265358979 6.28318530717959
4 C0 15 0 14 0
0

0101000
+310 0 -308 0 *
Ed
 1e-07 1 1 0
1  22 0 -0.4 0.4
2  29 15 0 -0.4 0.4
2  30 16 0 -0.4 0.4
4 CN 15 0 16 0
0

0101000
+308 0 -313 0 *
Wi

0101100
+311 0 +309 0 +307 0 +306 0 *
Fa
0  1e-07 15 0

0111000
+305 0 *
Ve
1e-07
6.5 1.24909848089882e-16 1.02
0 0

0101101
*
Ve
1e-07
6.5 -1.24909848089882e-16 -1.02
0 0

0101101
*
Ed
 1e-07 1 1 0
1  23 0 3.14159265358979 6.28318530717959
2  31 17 0 3.14159265358979 6.28318530717959
4 C0 17 0 3 0
0

0101000
+303 0 -302 0 *
Ve
1e-07
12.5 1.24909848089882e-16 1.02
0 0

0101101
*
Ed
 1e-07 1 1 0
1  24 0 -2.875 3.125
2  32 17 0 -2.875 3.125
2  33 18 0 -2.875 3.125
4 CN 17 0 18 0
0

0101000
+303 0 -300 0 *
Ve
1e-07
12.5 0 -1.02
0 0

0101101
*
Ed
 1e-07 1 1 0
1  25 0 3.14159265358979 6.28318530717959
2  34 17 0 3.14159265358979 6.28318530717959
4 C0 17 0 5 0
0

0101000
+300 0 -298 0 *
Ed
 1e-07 1 1 0
1  26 0 -3.125 2.875
2  35 17 0 -3.125 2.875
2  36 18 0 -3.125 2.875
4 CN 17 0 18 0
0

0101000
+298 0 -302 0 *
Wi

0101100
-301 0 +299 0 +297 0 +296 0 *
Fa
0  1e-07 17 0

0111000
+295 0 *
Ve
1e-07
-6 1.24909848089882e-16 1.02
0 0

0101101
*
Ve
1e-07
-6 -1.24909848089882e-16 -1.02
0 0

0101101
*
Ed
 1e-07 1 1 0
1  27 0 3.14159265358979 6.28318530717959
2  37 19 0 3.14159265358979 6.28318530717959
4 C0 19 0 9 0
0

0101000
+293 0 -292 0 *
Ve
1e-07
-6.24549240449412e-17 1.24909848089882e-16 1.02
0 0

0101101
*
Ed
 1e-07 1 1 0
1  28 0 -2.875 3.125
2  38 19 0 -2.875 3.125
2  39 20 0 -2.875 3.125
4 CN 19 0 20 0
0

0101000
+293 0 -290 0 *
Ve
1e-07
0 0 -1.02
0 0

0101101
*
Ed
 1e-07 1 1 0
1  29 0 3.14159265358979 6.28318530717959
2  40 19 0 3.14159265358979 6.28318530717959
4 C0 19 0 10 0
0

0101000
+290 0 -288 0 *
Ed
 1e-07 1 1 0
1  30 0 -3.125 2.875
2  41 19 0 -3.125 2.875
2  42 20 0 -3.125 2.875
4 CN 19 0 20 0
0

0101000
+288 0 -292 0 *
Wi

0101100
-291 0 +289 0 +287 0 +286 0 *
Fa
0  1e-07 19 0

0111000
+285 0 *
Ed
 1e-07 1 1 0
1  31 0 0 3.14159265358979
2  43 18 0 0 3.14159265358979
4 C0 3 0 18 0
0

0101000
+302 0 -303 0 *
Wi

0101100
-301 0 -283 0 *
Ve
1e-07
6.5 -1.1 1.9
0 0

0101101
*
Ed
 1e-07 1 1 0
1  32 0 -1.33810499613777 -0.98729833462074
4 C0 3 0 4 0
0

0101000
+354 0 -281 0 *
Ve
1e-07
6.5 -1.9 6.18217184307457e-16
0 0

0101101
*
Ed
 1e-07 1 1 0
1  33 0 4.71238898038469 6.28318530717959
2  44 6 0 4.71238898038469 6.28318530717959
4 C0 3 0 6 0
0

0101000
+279 0 -347 0 *
Ve
1e-07
6.5 -1.9 1.9
0 0

0101101
*
Ed
 1e-07 1 1 0
1  34 0 0.6 2.5
4 C0 3 0 14 0
0

0101000
+277 0 -279 0 *
Ed
 1e-07 1 1 0
1  35 0 -1.9 -1.1
4 C0 3 0 21 0
0

0101000
+277 0 -281 0 *
Wi

0101100
-280 0 -353 0 -344 0 -278 0 -276 0 +275 0 *
Fa
0  1e-07 3 0

0111000
+282 0 +274 0 *
Ed
 1e-07 1 1 0
1  36 0 0 3.14159265358979
2  45 16 0 0 3.14159265358979
4 C0 14 0 16 0
0

0101000
+308 0 -310 0 *
Wi

0101100
+272 0 +307 0 *
Ed
 1e-07 1 1 0
1  37 0 0 3.14159265358979
2  46 13 0 0 3.14159265358979
4 C0 14 0 13 0
0

0101000
+318 0 -320 0 *
Wi

0101100
+270 0 +317 0 *
Ve
1e-07
-1.16337603613126e-16 -1.9 1.9
0 0

0101101
*
Ed
 1e-07 1 1 0
1  38 0 3.0625 9.5625
4 C0 14 0 21 0
0

0101000
+268 0 -277 0 *
Ve
1e-07
12.5 -1.9 5.5964321133971e-16
0 0

0101101
*
Ed
 1e-07 1 1 0
1  39 0 19 25
2  47 6 0 19 25
4 G1 14 0 6 0
0

0101000
+279 0 -266 0 *
Ve
1e-07
12.5 -1.9 10
0 0

0101101
*
Ed
 1e-07 1 1 0
1  40 0 0 10
4 C0 14 0 5 0
0

0101000
+266 0 -264 0 *
Ve
1e-07
-12.5 -1.9 10
0 0

0101101
*
Ed
 1e-07 1 1 0
1  41 0 0 25
4 C0 14 0 22 0
0

0101000
+262 0 -264 0 *
Ve
1e-07
-12.5 -1.9 1.9
0 0

0101101
*
Ed
 1e-07 1 1 0
1  42 0 1.9 10
4 C0 14 0 23 0
0

0101000
+260 0 -262 0 *
Ve
1e-07
-6 -1.9 1.9
0 0

0101101
*
Ed
 1e-07 1 1 0
1  43 0 -3.1875 3.3125
4 C0 14 0 24 0
0

0101000
+260 0 -258 0 *
Ve
1e-07
-6 -1.9 -2.14450084161411e-16
0 0

0101101
*
Ed
 1e-07 1 1 0
1  44 0 0.6 2.5
4 C0 14 0 9 0
0

0101000
+258 0 -256 0 *
Ve
1e-07
-1.40608766202269e-32 -1.9 2.29639125688652e-16
0 0

0101101
*
Ed
 1e-07 1 1 0
1  45 0 6.5 12.5
2  48 11 0 6.5 12.5
4 G1 14 0 11 0
0

0101000
+256 0 -254 0 *
Ed
 1e-07 1 1 0
1  46 0 -2.5 -0.6
4 C0 14 0 10 0
0

0101000
+254 0 -268 0 *
Wi

0101100
+267 0 +276 0 +265 0 +263 0 -261 0 -259 0 +257 0 +255 0 +253 0 +252 0 
*
Fa
0  1e-07 14 0

0111000
+271 0 +269 0 +251 0 *
Ve
1e-07
-6 -1.1 1.9
0 0

0101101
*
Ed
 1e-07 1 1 0
1  47 0 -1.33810499613777 -0.98729833462074
4 C0 9 0 4 0
0

0101000
+337 0 -249 0 *
Ed
 1e-07 1 1 0
1  48 0 4.71238898038469 6.28318530717959
2  49 11 0 4.71238898038469 6.28318530717959
4 C0 9 0 11 0
0

0101000
+256 0 -330 0 *
Ed
 1e-07 1 1 0
1  49 0 -1.9 -1.1
4 C0 9 0 24 0
0

0101000
+258 0 -249 0 *
Wi

0101100
-248 0 -336 0 -327 0 -247 0 -255 0 +246 0 *
Ed
 1e-07 1 1 0
1  50 0 0 3.14159265358979
2  50 20 0 0 3.14159265358979
4 C0 9 0 20 0
0

0101000
+292 0 -293 0 *
Wi

0101100
-291 0 -244 0 *
Fa
0  1e-07 9 0

0111000
+245 0 +243 0 *
Ve
1e-07
-1.16337603613126e-16 -1.1 1.9
0 0

0101101
*
Ed
 1e-07 1 1 0
1  51 0 -9.5625 -3.0625
4 C0 4 0 21 0
0

0101000
+281 0 -241 0 *
Ed
 1e-07 1 1 0
1  52 0 0.98729833462074 1.33810499613777
4 C0 4 0 10 0
0

0101000
+241 0 -335 0 *
Ve
1e-07
-12.5 -1.1 1.9
0 0

0101101
*
Ed
 1e-07 1 1 0
1  53 0 -3.3125 3.1875
4 C0 4 0 24 0
0

0101000
+249 0 -238 0 *
Ve
1e-07
-12.5 -1.1 10
0 0

0101101
*
Ed
 1e-07 1 1 0
1  54 0 0 8.1
4 C0 4 0 23 0
0

0101000
+236 0 -238 0 *
Ve
1e-07
12.5 -1.1 10
0 0

0101101
*
Ed
 1e-07 1 1 0
1  55 0 0 25
4 C0 4 0 22 0
0

0101000
+236 0 -234 0 *
Ed
 1e-07 1 1 0
1  56 0 0 8.45080666151703
4 C0 4 0 5 0
0

0101000
+234 0 -352 0 *
Wi

0101100
+240 0 +239 0 -334 0 +248 0 +237 0 -235 0 +233 0 +232 0 -351 0 +280 0 
*
Ed
 1e-07 1 1 0
1  57 0 3.14159265358979 6.28318530717959
2  51 13 0 3.14159265358979 6.28318530717959
4 C0 4 0 13 0
0

0101000
+322 0 -323 0 *
Wi

0101100
+321 0 +230 0 *
Ed
 1e-07 1 1 0
1  58 0 3.14159265358979 6.28318530717959
2  52 16 0 3.14159265358979 6.28318530717959
4 C0 4 0 16 0
0

0101000
+312 0 -313 0 *
Wi

0101100
+311 0 +228 0 *
Fa
0  1e-07 4 0

0111000
+231 0 +229 0 +227 0 *
Ed
 1e-07 1 1 0
1  59 0 0 3.14159265358979
2  53 20 0 0 3.14159265358979
4 C0 20 0 10 0
0

0101000
+288 0 -290 0 *
Wi

0101100
+225 0 -289 0 -244 0 -286 0 *
Fa
0  1e-07 20 0

0111000
+224 0 *
Ed
 1e-07 1 1 0
1  60 0 0 3.14159265358979
2  54 18 0 0 3.14159265358979
4 C0 18 0 5 0
0

0101000
+298 0 -300 0 *
Wi

0101100
+222 0 -299 0 -283 0 -296 0 *
Fa
0  1e-07 18 0

0111000
+221 0 *
Wi

0101100
+272 0 -309 0 +228 0 -306 0 *
Fa
0  1e-07 16 0

0111000
+219 0 *
Wi

0101100
+270 0 -319 0 +230 0 -316 0 *
Fa
0  1e-07 13 0

0111000
+217 0 *
Ed
 1e-07 1 1 0
1  61 0 -1.9 -1.1
4 C0 21 0 10 0
0

0101000
+268 0 -241 0 *
Wi

0101100
-240 0 -275 0 -267 0 +215 0 *
Fa
0  1e-07 21 0

0111000
+214 0 *
Wi

0101100
+225 0 +287 0 *
Ed
 1e-07 1 1 0
1  62 0 0 1.5707963267949
2  55 11 0 0 1.5707963267949
4 C0 10 0 11 0
0

0101000
+329 0 -254 0 *
Wi

0101100
-333 0 -239 0 -215 0 -252 0 -211 0 -326 0 *
Fa
0  1e-07 10 0

0111000
+212 0 +210 0 *
Wi

0101100
+328 0 +211 0 -253 0 +247 0 *
Fa
0  1e-07 11 0

0111000
+208 0 *
Ed
 1e-07 1 1 0
1  63 0 0 1.5707963267949
2  56 6 0 0 1.5707963267949
4 C0 6 0 5 0
0

0101000
+346 0 -266 0 *
Wi

0101100
+345 0 +206 0 -265 0 +278 0 *
Fa
0  1e-07 6 0

0111000
+205 0 *
Ed
 1e-07 1 1 0
1  64 0 0.618941586317799 1.4189415863178
4 C0 24 0 23 0
0

0101000
+238 0 -260 0 *
Wi

0101100
-237 0 -246 0 -257 0 -203 0 *
Fa
0  1e-07 24 0

0111000
+202 0 *
Ed
 1e-07 1 1 0
1  65 0 0 0.8
4 C0 22 0 5 0
0

0101000
+264 0 -234 0 *
Ed
 1e-07 1 1 0
1  66 0 0 0.8
4 C0 22 0 23 0
0

0101000
+262 0 -236 0 *
Wi

0101100
+200 0 -233 0 -199 0 +261 0 *
Fa
0  1e-07 22 0

0111000
+198 0 *
Wi

0101100
+222 0 +297 0 *
Wi

0101100
-200 0 -263 0 -206 0 -343 0 -350 0 -232 0 *
Fa
0  1e-07 5 0

0111000
+196 0 +195 0 *
Wi

0101100
+203 0 +259 0 +199 0 +235 0 *
Fa
0  1e-07 23 0

0111000
-193 0 *
Sh

0101100
+348 0 +341 0 +331 0 +324 0 -314 0 -304 0 -294 0 -284 0 +273 0 +250 0 
+242 0 +226 0 -223 0 -220 0 -218 0 -216 0 +213 0 +209 0 +207 0 +204 0 
+201 0 +197 0 +194 0 -192 0 *
So

0100000
+191 0 *
Ve
1e-07
-12.5 2.9390552491737e-16 -1.9
0 0

0101101
*
Ve
1e-07
-6.25 2.9390552491737e-16 -1.9
0 0

0101101
*
Ed
 1e-07 1 1 0
1  67 0 -3.125 3.125
2  57 25 0 -3.125 3.125
2  58 26 0 -3.125 3.125
4 CN 25 0 26 0
0

0101000
+189 0 -188 0 *
Ve
1e-07
-6.25 -1.1 -1.54919333848297
0 0

0101101
*
Ed
 1e-07 1 1 0
1  68 0 3.14159265358979 3.75902975720515
2  59 25 0 3.14159265358979 3.75902975720515
4 C0 25 0 27 0
0

0101000
+188 0 -186 0 *
Ve
1e-07
-12.5 -1.1 -1.54919333848297
0 0

0101101
*
Ed
 1e-07 1 1 0
1  69 0 18.75 25
2  60 25 0 18.75 25
4 C0 25 0 28 0
0

0101000
+186 0 -184 0 *
Ed
 1e-07 1 1 0
1  70 0 2.52415554997444 3.14159265358979
2  61 25 0 2.52415554997444 3.14159265358979
4 C0 25 0 29 0
0

0101000
+184 0 -189 0 *
Wi

0101100
+187 0 +185 0 +183 0 +182 0 *
Fa
0  1e-07 25 0

0111000
+181 0 *
Ve
1e-07
-6.25 -1.71444889535133e-16 1.9
0 0

0101101
*
Ve
1e-07
-12.5 -1.71444889535133e-16 1.9
0 0

0101101
*
Ed
 1e-07 1 1 0
1  71 0 -3.125 3.125
2  62 26 0 -3.125 3.125
2  63 30 0 -3.125 3.125
4 CN 26 0 30 0
0

0101000
+179 0 -178 0 *
Ed
 1e-07 1 1 0
1  72 0 0 3.14159265358979
2  64 26 0 0 3.14159265358979
4 C0 26 0 27 0
0

0101000
+179 0 -188 0 *
Ed
 1e-07 1 1 0
1  73 0 3.14159265358979 6.28318530717959
2  65 26 0 3.14159265358979 6.28318530717959
4 C0 26 0 29 0
0

0101000
+189 0 -178 0 *
Wi

0101100
-177 0 +176 0 -187 0 +175 0 *
Fa
0  1e-07 26 0

0111000
+174 0 *
Ve
1e-07
0.25 2.9390552491737e-16 -1.9
0 0

0101101
*
Ve
1e-07
6.25 2.9390552491737e-16 -1.9
0 0

0101101
*
Ed
 1e-07 1 1 0
1  74 0 -3 3
2  66 31 0 -3 3
2  67 32 0 -3 3
4 CN 31 0 32 0
0

0101000
+172 0 -171 0 *
Ve
1e-07
6.25 -1.1 -1.54919333848297
0 0

0101101
*
Ed
 1e-07 1 1 0
1  75 0 3.14159265358979 3.75902975720515
2  68 31 0 3.14159265358979 3.75902975720515
4 C0 31 0 33 0
0

0101000
+171 0 -169 0 *
Ve
1e-07
0.25 -1.1 -1.54919333848297
0 0

0101101
*
Ed
 1e-07 1 1 0
1  76 0 6.25 12.25
2  69 31 0 6.25 12.25
4 C0 31 0 28 0
0

0101000
+169 0 -167 0 *
Ed
 1e-07 1 1 0
1  77 0 2.52415554997444 3.14159265358979
2  70 31 0 2.52415554997444 3.14159265358979
4 C0 31 0 34 0
0

0101000
+167 0 -172 0 *
Wi

0101100
+170 0 +168 0 +166 0 +165 0 *
Fa
0  1e-07 31 0

0111000
+164 0 *
Ve
1e-07
6.25 -1.71444889535133e-16 1.9
0 0

0101101
*
Ve
1e-07
0.25 -1.71444889535133e-16 1.9
0 0

0101101
*
Ed
 1e-07 1 1 0
1  78 0 -3 3
2  71 32 0 -3 3
2  72 35 0 -3 3
4 CN 32 0 35 0
0

0101000
+162 0 -161 0 *
Ed
 1e-07 1 1 0
1  79 0 0 3.14159265358979
2  73 32 0 0 3.14159265358979
4 C0 32 0 33 0
0

0101000
+162 0 -171 0 *
Ed
 1e-07 1 1 0
1  80 0 3.14159265358979 6.28318530717959
2  74 32 0 3.14159265358979 6.28318530717959
4 C0 32 0 34 0
0

0101000
+172 0 -161 0 *
Wi

0101100
-160 0 +159 0 -170 0 +158 0 *
Fa
0  1e-07 32 0

0111000
+157 0 *
Ve
1e-07
8 -1.1 -4.3
0 0

0101101
*
Ve
1e-07
8 -1.1 -7.7
0 0

0101101
*
Ed
 1e-07 1 1 0
1  81 0 0 3.14159265358979
2  75 36 0 0 3.14159265358979
4 C0 36 0 28 0
0

0101000
+155 0 -154 0 *
Ve
1e-07
8 -1.9 -7.7
0 0

0101101
*
Ed
 1e-07 1 1 0
1  82 0 -0.4 0.4
2  76 36 0 -0.4 0.4
2  77 37 0 -0.4 0.4
4 CN 36 0 37 0
0

0101000
+154 0 -152 0 *
Ve
1e-07
8 -1.9 -4.3
0 0

0101101
*
Ed
 1e-07 1 1 0
1  83 0 3.14159265358979 6.28318530717959
2  78 36 0 3.14159265358979 6.28318530717959
4 C0 36 0 38 0
0

0101000
+152 0 -150 0 *
Ed
 1e-07 1 1 0
1  84 0 -0.4 0.4
2  79 36 0 -0.4 0.4
2  80 37 0 -0.4 0.4
4 CN 36 0 37 0
0

0101000
+150 0 -155 0 *
Wi

0101100
+153 0 +151 0 +149 0 +148 0 *
Fa
0  1e-07 36 0

0111000
+147 0 *
Ve
1e-07
-8 -1.1 -4.3
0 0

0101101
*
Ve
1e-07
-8 -1.1 -7.7
0 0

0101101
*
Ed
 1e-07 1 1 0
1  85 0 0 3.14159265358979
2  81 39 0 0 3.14159265358979
4 C0 39 0 28 0
0

0101000
+145 0 -144 0 *
Ve
1e-07
-8 -1.9 -7.7
0 0

0101101
*
Ed
 1e-07 1 1 0
1  86 0 -0.4 0.4
2  82 39 0 -0.4 0.4
2  83 40 0 -0.4 0.4
4 CN 39 0 40 0
0

0101000
+144 0 -142 0 *
Ve
1e-07
-8 -1.9 -4.3
0 0

0101101
*
Ed
 1e-07 1 1 0
1  87 0 3.14159265358979 6.28318530717959
2  84 39 0 3.14159265358979 6.28318530717959
4 C0 39 0 38 0
0

0101000
+142 0 -140 0 *
Ed
 1e-07 1 1 0
1  88 0 -0.4 0.4
2  85 39 0 -0.4 0.4
2  86 40 0 -0.4 0.4
4 CN 39 0 40 0
0

0101000
+140 0 -145 0 *
Wi

0101100
+143 0 +141 0 +139 0 +138 0 *
Fa
0  1e-07 39 0

0111000
+137 0 *
Ve
1e-07
0.25 1.24909848089882e-16 1.02
0 0

0101101
*
Ve
1e-07
0.25 -1.24909848089882e-16 -1.02
0 0

0101101
*
Ed
 1e-07 1 1 0
1  89 0 3.14159265358979 6.28318530717959
2  87 41 0 3.14159265358979 6.28318530717959
4 C0 41 0 34 0
0

0101000
+135 0 -134 0 *
Ve
1e-07
6.25 1.24909848089882e-16 1.02
0 0

0101101
*
Ed
 1e-07 1 1 0
1  90 0 -2.875 3.125
2  88 41 0 -2.875 3.125
2  89 42 0 -2.875 3.125
4 CN 41 0 42 0
0

0101000
+135 0 -132 0 *
Ve
1e-07
6.25 0 -1.02
0 0

0101101
*
Ed
 1e-07 1 1 0
1  91 0 3.14159265358979 6.28318530717959
2  90 41 0 3.14159265358979 6.28318530717959
4 C0 41 0 33 0
0

0101000
+132 0 -130 0 *
Ed
 1e-07 1 1 0
1  92 0 -3.125 2.875
2  91 41 0 -3.125 2.875
2  92 42 0 -3.125 2.875
4 CN 41 0 42 0
0

0101000
+130 0 -134 0 *
Wi

0101100
-133 0 +131 0 +129 0 +128 0 *
Fa
0  1e-07 41 0

0111000
+127 0 *
Ve
1e-07
-12.5 0 -1.02
0 0

0101101
*
Ve
1e-07
-12.5 1.24909848089882e-16 1.02
0 0

0101101
*
Ed
 1e-07 1 1 0
1  93 0 0 3.14159265358979
2  93 43 0 0 3.14159265358979
4 C0 43 0 29 0
0

0101000
+125 0 -124 0 *
Ve
1e-07
-6.25 1.24909848089882e-16 1.02
0 0

0101101
*
Ed
 1e-07 1 1 0
1  94 0 -3.125 3.125
2  94 43 0 -3.125 3.125
2  95 44 0 -3.125 3.125
4 CN 43 0 44 0
0

0101000
+124 0 -122 0 *
Ve
1e-07
-6.25 0 -1.02
0 0

0101101
*
Ed
 1e-07 1 1 0
1  95 0 3.14159265358979 6.28318530717959
2  96 43 0 3.14159265358979 6.28318530717959
4 C0 43 0 27 0
0

0101000
+122 0 -120 0 *
Ed
 1e-07 1 1 0
1  96 0 -3.125 3.125
2  97 43 0 -3.125 3.125
2  98 44 0 -3.125 3.125
4 CN 43 0 44 0
0

0101000
+120 0 -125 0 *
Wi

0101100
+123 0 +121 0 +119 0 +118 0 *
Fa
0  1e-07 43 0

0111000
+117 0 *
Ed
 1e-07 1 1 0
1  97 0 0 3.14159265358979
2  99 42 0 0 3.14159265358979
4 C0 34 0 42 0
0

0101000
+134 0 -135 0 *
Wi

0101100
-133 0 -115 0 *
Ve
1e-07
0.25 -1.1 -1.9
0 0

0101101
*
Ed
 1e-07 1 1 0
1  98 0 0.98729833462074 1.33810499613777
4 C0 34 0 28 0
0

0101000
+113 0 -167 0 *
Ve
1e-07
0.25 -1.9 -1.9
0 0

0101101
*
Ed
 1e-07 1 1 0
1  99 0 1.1 1.9
4 C0 34 0 45 0
0

0101000
+113 0 -111 0 *
Ve
1e-07
0.25 -1.9 -3.88578058618805e-16
0 0

0101101
*
Ed
 1e-07 1 1 0
1  100 0 -2.5 -0.6
4 C0 34 0 38 0
0

0101000
+109 0 -111 0 *
Ed
 1e-07 1 1 0
1  101 0 0 1.5707963267949
2  100 35 0 0 1.5707963267949
4 C0 34 0 35 0
0

0101000
+161 0 -109 0 *
Wi

0101100
-165 0 -112 0 +110 0 -108 0 -107 0 -158 0 *
Fa
0  1e-07 34 0

0111000
+114 0 +106 0 *
Ve
1e-07
-6.25 -1.1 -1.9
0 0

0101101
*
Ed
 1e-07 1 1 0
1  102 0 -12.5625 -6.0625
4 C0 28 0 45 0
0

0101000
+104 0 -113 0 *
Ve
1e-07
6.25 -1.1 -1.9
0 0

0101101
*
Ed
 1e-07 1 1 0
1  103 0 -1.33810499613777 -0.98729833462074
4 C0 28 0 33 0
0

0101000
+169 0 -102 0 *
Ve
1e-07
12.5 -1.1 -1.9
0 0

0101101
*
Ed
 1e-07 1 1 0
1  104 0 -4.6875 1.5625
4 C0 28 0 46 0
0

0101000
+102 0 -100 0 *
Ve
1e-07
12.5 -1.1 -10
0 0

0101101
*
Ed
 1e-07 1 1 0
1  105 0 0 8.1
4 C0 28 0 47 0
0

0101000
+98 0 -100 0 *
Ve
1e-07
-12.5 -1.1 -10
0 0

0101101
*
Ed
 1e-07 1 1 0
1  106 0 0 25
4 C0 28 0 48 0
0

0101000
+98 0 -96 0 *
Ed
 1e-07 1 1 0
1  107 0 0 8.45080666151703
4 C0 28 0 29 0
0

0101000
+96 0 -184 0 *
Ed
 1e-07 1 1 0
1  108 0 -1.33810499613777 -0.98729833462074
4 C0 28 0 27 0
0

0101000
+186 0 -104 0 *
Wi

0101100
+103 0 +112 0 -166 0 +101 0 +99 0 -97 0 +95 0 +94 0 -183 0 +93 0 
*
Ed
 1e-07 1 1 0
1  109 0 3.14159265358979 6.28318530717959
2  101 37 0 3.14159265358979 6.28318530717959
4 C0 28 0 37 0
0

0101000
+154 0 -155 0 *
Wi

0101100
+153 0 +91 0 *
Ed
 1e-07 1 1 0
1  110 0 3.14159265358979 6.28318530717959
2  102 40 0 3.14159265358979 6.28318530717959
4 C0 28 0 40 0
0

0101000
+144 0 -145 0 *
Wi

0101100
+143 0 +89 0 *
Fa
0  1e-07 28 0

0111000
+92 0 +90 0 +88 0 *
Ed
 1e-07 1 1 0
1  111 0 0 3.14159265358979
2  103 44 0 0 3.14159265358979
4 C0 44 0 27 0
0

0101000
+120 0 -122 0 *
Ed
 1e-07 1 1 0
1  112 0 3.14159265358979 6.28318530717959
2  104 44 0 3.14159265358979 6.28318530717959
4 C0 44 0 29 0
0

0101000
+124 0 -125 0 *
Wi

0101100
+86 0 -121 0 +85 0 -118 0 *
Fa
0  1e-07 44 0

0111000
+84 0 *
Ed
 1e-07 1 1 0
1  113 0 0 3.14159265358979
2  105 42 0 0 3.14159265358979
4 C0 42 0 33 0
0

0101000
+130 0 -132 0 *
Wi

0101100
+82 0 -131 0 -115 0 -128 0 *
Fa
0  1e-07 42 0

0111000
+81 0 *
Ed
 1e-07 1 1 0
1  114 0 0 3.14159265358979
2  106 40 0 0 3.14159265358979
4 C0 40 0 38 0
0

0101000
+140 0 -142 0 *
Wi

0101100
+79 0 -141 0 +89 0 -138 0 *
Fa
0  1e-07 40 0

0111000
+78 0 *
Ed
 1e-07 1 1 0
1  115 0 0 3.14159265358979
2  107 37 0 0 3.14159265358979
4 C0 37 0 38 0
0

0101000
+150 0 -152 0 *
Wi

0101100
+76 0 -151 0 +91 0 -148 0 *
Fa
0  1e-07 37 0

0111000
+75 0 *
Wi

0101100
+86 0 +119 0 *
Ve
1e-07
-6.25 -1.9 -1.37770758239713e-15
0 0

0101101
*
Ed
 1e-07 1 1 0
1  116 0 4.71238898038469 6.28318530717959
2  108 30 0 4.71238898038469 6.28318530717959
4 C0 27 0 30 0
0

0101000
+72 0 -179 0 *
Ve
1e-07
-6.25 -1.9 -1.9
0 0

0101101
*
Ed
 1e-07 1 1 0
1  117 0 0.6 2.5
4 C0 27 0 38 0
0

0101000
+70 0 -72 0 *
Ed
 1e-07 1 1 0
1  118 0 1.1 1.9
4 C0 27 0 45 0
0

0101000
+104 0 -70 0 *
Wi

0101100
-71 0 -69 0 -68 0 -93 0 -185 0 -176 0 *
Fa
0  1e-07 27 0

0111000
-73 0 -67 0 *
Ed
 1e-07 1 1 0
1  119 0 6.0625 12.5625
4 C0 45 0 38 0
0

0101000
+111 0 -70 0 *
Wi

0101100
-103 0 +68 0 -65 0 -110 0 *
Fa
0  1e-07 45 0

0111000
+64 0 *
Ve
1e-07
6.25 -1.9 9.18429331019827e-16
0 0

0101101
*
Ed
 1e-07 1 1 0
1  120 0 6.25 12.25
2  109 35 0 6.25 12.25
4 G1 35 0 38 0
0

0101000
+62 0 -109 0 *
Ed
 1e-07 1 1 0
1  121 0 4.71238898038469 6.28318530717959
2  110 35 0 4.71238898038469 6.28318530717959
4 C0 35 0 33 0
0

0101000
+62 0 -162 0 *
Wi

0101100
+160 0 +107 0 -61 0 +60 0 *
Fa
0  1e-07 35 0

0111000
+59 0 *
Ve
1e-07
-12.5 -1.9 -2.09040115361768e-15
0 0

0101101
*
Ed
 1e-07 1 1 0
1  122 0 0 1.5707963267949
2  111 30 0 0 1.5707963267949
4 C0 30 0 29 0
0

0101000
+178 0 -57 0 *
Ed
 1e-07 1 1 0
1  123 0 18.75 25
2  112 30 0 18.75 25
4 G1 30 0 38 0
0

0101000
+72 0 -57 0 *
Wi

0101100
+177 0 +56 0 -55 0 +71 0 *
Fa
0  1e-07 30 0

0111000
+54 0 *
Ve
1e-07
6.25 -1.9 -1.9
0 0

0101101
*
Ed
 1e-07 1 1 0
1  124 0 1.1 1.9
4 C0 46 0 33 0
0

0101000
+102 0 -52 0 *
Ve
1e-07
12.5 -1.9 -1.9
0 0

0101101
*
Ed
 1e-07 1 1 0
1  125 0 -1.5625 4.6875
4 C0 46 0 38 0
0

0101000
+50 0 -52 0 *
Ed
 1e-07 1 1 0
1  126 0 0.618941586317799 1.4189415863178
4 C0 46 0 47 0
0

0101000
+100 0 -50 0 *
Wi

0101100
-99 0 +51 0 -49 0 -48 0 *
Fa
0  1e-07 46 0

0111000
+47 0 *
Wi

0101100
+82 0 +129 0 *
Ed
 1e-07 1 1 0
1  127 0 0.6 2.5
4 C0 33 0 38 0
0

0101000
+52 0 -62 0 *
Wi

0101100
-101 0 -168 0 -159 0 -60 0 -44 0 -51 0 *
Fa
0  1e-07 33 0

0111000
-45 0 -43 0 *
Ve
1e-07
-12.5 -1.9 -10
0 0

0101101
*
Ed
 1e-07 1 1 0
1  128 0 0 0.8
4 C0 48 0 29 0
0

0101000
+41 0 -96 0 *
Ve
1e-07
12.5 -1.9 -10
0 0

0101101
*
Ed
 1e-07 1 1 0
1  129 0 0 0.8
4 C0 48 0 47 0
0

0101000
+39 0 -98 0 *
Ed
 1e-07 1 1 0
1  130 0 0 25
4 C0 48 0 38 0
0

0101000
+39 0 -41 0 *
Wi

0101100
+40 0 -95 0 -38 0 +37 0 *
Fa
0  1e-07 48 0

0111000
+36 0 *
Ed
 1e-07 1 1 0
1  131 0 0 10
4 C0 38 0 29 0
0

0101000
+57 0 -41 0 *
Ed
 1e-07 1 1 0
1  132 0 1.9 10
4 C0 38 0 47 0
0

0101000
+50 0 -39 0 *
Wi

0101100
+65 0 +69 0 +55 0 +34 0 -37 0 -33 0 +49 0 +44 0 +61 0 +108 0 
*
Wi

0101100
+79 0 +139 0 *
Wi

0101100
+76 0 +149 0 *
Fa
0  1e-07 38 0

0111000
+32 0 +31 0 +30 0 *
Wi

0101100
+123 0 +85 0 *
Wi

0101100
-40 0 -34 0 -56 0 -175 0 -182 0 -94 0 *
Fa
0  1e-07 29 0

0111000
+28 0 +27 0 *
Wi

0101100
+48 0 +33 0 +38 0 +97 0 *
Fa
0  1e-07 47 0

0111000
-25 0 *
Sh

0101100
+180 0 +173 0 +163 0 +156 0 -146 0 -136 0 -126 0 -116 0 +105 0 +87 0 
-83 0 -80 0 -77 0 -74 0 -66 0 +63 0 +58 0 +53 0 +46 0 -42 0 
+35 0 +29 0 +26 0 -24 0 *
So

0100000
+23 0 *
Ve
1e-07
12.5 0 1
0 0

0101101
*
Ve
1e-07
-12.5 0 1
0 0

0101101
*
Ed
 1e-07 1 1 0
1  133 0 -12.5 12.5
2  113 49 0 -12.5 12.5
2  114 50 0 -12.5 12.5
4 CN 49 0 50 0
0

0101000
+21 0 -20 0 *
Ve
1e-07
12.5 1.22460635382238e-16 -1
0 0

0101101
*
Ed
 1e-07 1 1 0
1  134 0 3.14159265358979 6.28318530717959
2  115 49 0 3.14159265358979 6.28318530717959
4 C0 49 0 51 0
0

0101000
+18 0 -21 0 *
Ve
1e-07
-12.5 1.22460635382238e-16 -1
0 0

0101101
*
Ed
 1e-07 1 1 0
1  135 0 -12.5 12.5
2  116 49 0 -12.5 12.5
2  117 50 0 -12.5 12.5
4 CN 49 0 50 0
0

0101000
+16 0 -18 0 *
Ed
 1e-07 1 1 0
1  136 0 0 3.14159265358979
2  118 49 0 0 3.14159265358979
4 C0 49 0 52 0
0

0101000
+20 0 -16 0 *
Wi

0101100
-19 0 -17 0 -15 0 -14 0 *
Fa
0  1e-07 49 0

0111000
+13 0 *
Ed
 1e-07 1 1 0
1  137 0 3.14159265358979 6.28318530717959
2  119 50 0 3.14159265358979 6.28318530717959
4 C0 50 0 52 0
0

0101000
+16 0 -20 0 *
Ed
 1e-07 1 1 0
1  138 0 0 3.14159265358979
2  120 50 0 0 3.14159265358979
4 C0 50 0 51 0
0

0101000
+21 0 -18 0 *
Wi

0101100
+19 0 -11 0 +15 0 -10 0 *
Fa
0  1e-07 50 0

0111000
+9 0 *
Wi

0101100
+10 0 +17 0 *
Fa
0  1e-07 51 0

0111000
+7 0 *
Wi

0101100
+14 0 +11 0 *
Fa
0  1e-07 52 0

0111000
+5 0 *
Sh

0101100
+12 0 +8 0 +6 0 +4 0 *
So

0100000
+3 0 *
Co

1100000
+190 0 +22 0 +2 0 *

+1 0 