DBRep_DrawableShape

CASCADE Topology V1, (c) Matra-Datavision
Locations 0
Curve2ds 100
1 0 -10 1 0 
1 3.1415926535897931 0 0 1 
1 3.1415926535897931 0 0 1 
1 0 9.5 1 0 
1 0 0 0 -1 
1 6.2831853071795862 0 0 -1 
1 3.1415926535897931 19.75 0 -1 
1 3.1415926535897931 19.75 0 -1 
1 0 10 1 0 
1 3.6929096227216753 0 0 1 
1 6.2831853071795862 29.5 -1 0 
1 0 19.75 0 1 
1 6.2831853071795862 19.75 0 1 
1 0 10 1 0 
1 6.2831853071795862 29.5 -1 0 
1 0 -0.75 1 0 
1 3.1415926535897931 0 0 1 
1 3.1415926535897931 0 0 1 
1 6.2831853071795862 0.75000000000000133 -1 -2.8271597168564594e-16 
1 0 0 0 -1 
1 6.2831853071795862 0 0 -1 
1 0 -0.75 1 0 
1 3.1415926535897931 0 0 1 
1 3.1415926535897931 0 0 1 
1 6.2831853071795862 0.75000000000000133 -1 -2.8271597168564594e-16 
1 0 0 0 -1 
1 6.2831853071795862 0 0 -1 
1 6.2831853071795862 0.74999999999999956 -1 2.8271597168564594e-16 
1 0 -0.75 1 0 
1 6.2831853071795862 0.74999999999999956 -1 2.8271597168564594e-16 
1 0 -0.75 1 0 
1 6.2831853071795862 29.5 -1 0 
1 0 9.5 1 0 
1 4.7123889803846897 0 0 1 
1 0 10 1 0 
1 0 -10 1 0 
1 3.1415926535897931 0 0 -1 
1 3.1415926535897931 0 0 -1 
1 0 0 1 0 
1 3.6929096227216753 0 0 1 
1 6.2831853071795862 10 -1 0 
1 0 0 0 1 
1 6.2831853071795862 0 0 1 
1 0 0 1 0 
1 6.2831853071795862 10 -1 0 
1 0 -20 1 0 
1 3.1415926535897931 -15.25 0 1 
1 3.1415926535897931 -15.25 0 1 
1 0 -10.5 1 0 
1 0 -15.25 0 -1 
1 6.2831853071795862 -15.25 0 -1 
1 0 10 1 0 
1 3.1415926535897931 15 0 1 
1 3.1415926535897931 15 0 1 
1 6.2831853071795862 20 -1 0 
1 0 15 0 -1 
1 6.2831853071795862 15 0 -1 
1 3.1415926535897931 35.25 0 -1 
1 3.1415926535897931 35.25 0 -1 
1 0 30.5 1 0 
1 3.6929096227216753 0 0 1 
1 6.2831853071795862 40 -1 0 
1 0 35.25 0 1 
1 6.2831853071795862 35.25 0 1 
1 0 30.5 1 0 
1 6.2831853071795862 40 -1 0 
1 0 -0.75 1 0 
1 3.1415926535897931 0 0 1 
1 3.1415926535897931 0 0 1 
1 6.2831853071795862 0.74999999999999867 -1 2.8271597168564594e-16 
1 0 0 0 -1 
1 6.2831853071795862 0 0 -1 
1 0 -0.75 1 0 
1 3.1415926535897931 0 0 1 
1 3.1415926535897931 0 0 1 
1 6.2831853071795862 0.74999999999999867 -1 2.8271597168564594e-16 
1 0 0 0 -1 
1 6.2831853071795862 0 0 -1 
1 6.2831853071795862 0.75000000000000044 -1 -2.8271597168564594e-16 
1 0 -0.75 1 0 
1 6.2831853071795862 0.75000000000000044 -1 -2.8271597168564594e-16 
1 0 -0.75 1 0 
1 0 -10.5 1 0 
1 0 30.5 1 0 
1 6.2831853071795862 40 -1 0 
1 4.7123889803846897 0 0 1 
1 6.2831853071795862 20 -1 0 
1 0 10 1 0 
1 0 -20 1 0 
1 6.2831853071795862 10 -1 0 
1 4.7123889803846897 0 0 1 
1 0 0 1 0 
1 0 0 0 1 
1 6.2831853071795862 0 0 1 
1 6.2831853071795862 -20 -1 0 
1 3.1415926535897931 0 0 -1 
1 3.1415926535897931 0 0 -1 
1 0 20 1 0 
1 0 20 1 0 
1 6.2831853071795862 -20 -1 0 
Curves 114
2 1.22460635382238e-15 0 -10 1.22460635382238e-16 0 -1 -1 0 -1.22460635382238e-16 0 1 0 1.575
1 1.575 1.9287550072702401e-16 -20 1.22460635382238e-16 0 -1 
2 3.6125887437760098e-15 0 -29.5 -0 0 -1 -1 0 0 0 1 0 1.575
1 -1.575 -1.9287550072702401e-16 -20 -1.22460635382238e-16 0 1 
1 3.1499999999999999 4.9290405741350696e-16 -19.75 -1.22460635382238e-16 -0 1 
2 1.22460635382238e-15 1.07153055959458e-16 -10 1.22460635382238e-16 0 -1 -1 0 -1.22460635382238e-16 0 1 0 3.1499999999999999
1 2.6832815729997499 -1.6499999999999999 3.28596366339e-16 1.22460635382238e-16 0 -1 
2 3.6125887437760098e-15 1.07153055959458e-16 -29.5 0 0 1 -1 0 0 0 -1 0 3.1499999999999999
1 -3.1499999999999999 -2.7859794549459099e-16 -19.75 1.22460635382238e-16 0 -1 
2 1.22460635382238e-15 1.07153055959458e-16 -10 1.22460635382238e-16 0 -1 -1 0 -1.22460635382238e-16 0 1 0 3.1499999999999999
2 3.6125887437760098e-15 1.07153055959458e-16 -29.5 0 0 1 -1 0 0 0 -1 0 3.1499999999999999
2 11.5 -1.6499999999999999 -15 1.4986085213066e-17 -1 1.8352055170844199e-33 1 1.4986085213066e-17 -2.7502546262516002e-50 3.3234487110159296e-65 1.8352055170844199e-33 1 2.1000000000000001
1 9.4000000000000004 -2.3999999999999999 -15 -0 -1 0 
2 11.5 -3.1499999999999999 -15 -1.7763568394002501e-16 1 -2.1753378721853799e-32 1 1.7763568394002501e-16 -3.8641763072628897e-48 -3.0385816786431356e-63 -2.1753378721853799e-32 -1 2.1000000000000001
1 13.6 -2.3999999999999999 -15 -0 1 -0 
2 11.5 -1.6499999999999999 -35 1.4986085213066e-17 -1 1.8352055170844199e-33 1 1.4986085213066e-17 -2.7502546262516002e-50 3.3234487110159296e-65 1.8352055170844199e-33 1 2.1000000000000001
1 9.4000000000000004 -2.3999999999999999 -35 -0 -1 0 
2 11.5 -3.1499999999999999 -35 -1.7763568394002501e-16 1 -2.1753378721853799e-32 1 1.7763568394002501e-16 -3.8641763072628897e-48 -3.0385816786431356e-63 -2.1753378721853799e-32 -1 2.1000000000000001
1 13.6 -2.3999999999999999 -35 -0 1 -0 
2 11.5 -3.1499999999999999 -35 -1.7763568394002501e-16 1 -2.1753378721853799e-32 1 1.7763568394002501e-16 -3.8641763072628897e-48 -3.0385816786431356e-63 -2.1753378721853799e-32 -1 2.1000000000000001
2 11.5 -1.6499999999999999 -35 1.4986085213066e-17 -1 1.8352055170844199e-33 1 1.4986085213066e-17 -2.7502546262516002e-50 3.3234487110159296e-65 1.8352055170844199e-33 1 2.1000000000000001
2 11.5 -3.1499999999999999 -15 -1.7763568394002501e-16 1 -2.1753378721853799e-32 1 1.7763568394002501e-16 -3.8641763072628897e-48 -3.0385816786431356e-63 -2.1753378721853799e-32 -1 2.1000000000000001
2 11.5 -1.6499999999999999 -15 1.4986085213066e-17 -1 1.8352055170844199e-33 1 1.4986085213066e-17 -2.7502546262516002e-50 3.3234487110159296e-65 1.8352055170844199e-33 1 2.1000000000000001
1 5.0458203932499401 -1.6499999999999999 -29.5 -1 -1.4986085213066e-17 0 
1 3.1499999999999999 0 -29.5 0 1 0 
1 4.375 -3.1499999999999999 -29.5 1 1.7763568394002501e-16 -0 
2 3.6125887437760098e-15 1.07153055959458e-16 -29.5 0 0 1 -1 0 0 0 -1 0 3.1499999999999999
2 3.6125887437760098e-15 0 -29.5 -0 0 -1 -1 0 0 0 1 0 1.575
1 9.8882351796707204e-16 -3.1499999999999999 1.21091956291147e-31 1.22460635382238e-16 0 -1 
2 1.22460635382238e-15 1.07153055959458e-16 -10 1.22460635382238e-16 0 -1 -1 0 -1.22460635382238e-16 0 1 0 3.1499999999999999
2 1.22460635382238e-15 0 -10 1.22460635382238e-16 0 -1 -1 0 -1.22460635382238e-16 0 1 0 1.575
1 3.1499999999999999 -1.6499999999999999 -14.875 0 1.8352055170844199e-33 1 
1 3.1499999999999999 -0.78659310353621703 -40 0 1 0 
1 3.1499999999999999 -3.1499999999999999 -14.875 -0 -2.1753378721853799e-32 -1 
1 17.5 -1.6499999999999999 -40 -1 -1.4986085213066e-17 -1.22460635382238e-16 
1 17.5 -3.1499999999999999 -40 0 1 0 
1 5.8872489332565801e-15 -3.1499999999999999 -40 1 1.7763568394002501e-16 1.22460635382238e-16 
1 5.0458203932499401 -1.6499999999999999 -10 1 1.4986085213066e-17 1.22460635382238e-16 
1 3.1499999999999999 -1.6499999999999999 -2.5 -1.22460635382238e-16 0 1 
1 17.5 -1.6499999999999999 2.1430611191891598e-15 -1 -1.4986085213066e-17 -1.22460635382238e-16 
1 17.5 -1.6499999999999999 2.1430611191891598e-15 1.22460635382238e-16 0 -1 
1 3.1499999999999999 0 -10 0 -1 -0 
1 3.1499999999999999 -3.1499999999999999 -2.5 1.22460635382238e-16 0 -1 
1 3.1499999999999999 -0.78659310353621703 3.85751001454049e-16 0 -1 -0 
1 4.375 -3.1499999999999999 -10 -1 -1.7763568394002501e-16 -1.22460635382238e-16 
1 17.5 -3.1499999999999999 2.1430611191891598e-15 0 1 0 
1 17.5 -3.1499999999999999 2.1430611191891598e-15 1.22460635382238e-16 0 -1 
1 9.8882351796707204e-16 -3.1499999999999999 1.21091956291147e-31 1 1.7763568394002501e-16 1.22460635382238e-16 
1 -3.1499999999999999 4.9290405741350696e-16 -40 -0 -0 -1 
2 0 1.07153055959458e-16 -40 0 0 1 1 0 -0 -0 1 0 3.1499999999999999
1 -2.6832815729997499 -1.6499999999999999 -40 0 0 1 
2 0 1.07153055959458e-16 -30 0 0 -1 1 0 0 0 -1 0 3.1499999999999999
1 3.1499999999999999 -2.7859794549459099e-16 -40 0 0 1 
2 0 1.07153055959458e-16 -40 0 0 1 1 0 -0 -0 1 0 3.1499999999999999
2 0 1.07153055959458e-16 -30 0 0 -1 1 0 0 0 -1 0 3.1499999999999999
2 0 0 0 0 0 -1 1 0 0 0 -1 0 1.575
1 -1.575 -1.9287550072702401e-16 -4.75 -0 -0 -1 
2 0 0 -9.5 0 0 -1 1 0 0 0 -1 0 1.575
1 1.575 1.9287550072702401e-16 -4.75 -0 -0 1 
2 0 0 -30 0 0 -1 1 0 0 0 -1 0 1.575
1 -1.575 -1.9287550072702401e-16 -35 -0 -0 -1 
2 0 0 -40 0 0 1 1 0 -0 -0 1 0 1.575
1 1.575 1.9287550072702401e-16 -35 -0 -0 1 
1 -3.1499999999999999 4.9290405741350696e-16 -4.75 -0 -0 -1 
2 0 1.07153055959458e-16 -9.5 0 0 1 1 0 -0 -0 1 0 3.1499999999999999
1 -2.6832815729997499 -1.6499999999999999 -40 0 0 1 
2 0 1.07153055959458e-16 0 0 0 -1 1 0 0 0 -1 0 3.1499999999999999
1 3.1499999999999999 -2.7859794549459099e-16 -4.75 0 0 1 
2 0 1.07153055959458e-16 -9.5 0 0 1 1 0 -0 -0 1 0 3.1499999999999999
2 0 1.07153055959458e-16 0 0 0 -1 1 0 0 0 -1 0 3.1499999999999999
2 -11.5 -1.6499999999999999 -5 -1.4986085213066e-17 -1 0 1 -1.4986085213066e-17 0 0 0 1 2.1000000000000001
1 -13.6 -2.3999999999999999 -5 -0 -1 0 
2 -11.5 -3.1499999999999999 -5 1.7763568394002501e-16 1 0 1 -1.7763568394002501e-16 0 0 0 -1 2.1000000000000001
1 -9.4000000000000004 -2.3999999999999999 -5 -0 1 -0 
2 -11.5 -1.6499999999999999 -25 -1.4986085213066e-17 -1 0 1 -1.4986085213066e-17 0 0 0 1 2.1000000000000001
1 -13.6 -2.3999999999999999 -25 -0 -1 0 
2 -11.5 -3.1499999999999999 -25 1.7763568394002501e-16 1 0 1 -1.7763568394002501e-16 0 0 0 -1 2.1000000000000001
1 -9.4000000000000004 -2.3999999999999999 -25 -0 1 -0 
2 -11.5 -3.1499999999999999 -25 1.7763568394002501e-16 1 0 1 -1.7763568394002501e-16 0 0 0 -1 2.1000000000000001
2 -11.5 -1.6499999999999999 -25 -1.4986085213066e-17 -1 0 1 -1.4986085213066e-17 0 0 0 1 2.1000000000000001
2 -11.5 -3.1499999999999999 -5 1.7763568394002501e-16 1 0 1 -1.7763568394002501e-16 0 0 0 -1 2.1000000000000001
2 -11.5 -1.6499999999999999 -5 -1.4986085213066e-17 -1 0 1 -1.4986085213066e-17 0 0 0 1 2.1000000000000001
2 0 0 -9.5 0 0 -1 1 0 0 0 -1 0 1.575
1 -5.0458203932499401 -1.6499999999999999 -9.5 -1 1.4986085213066e-17 0 
2 0 1.07153055959458e-16 -9.5 0 0 1 1 0 -0 -0 1 0 3.1499999999999999
1 -4.375 -3.1499999999999999 -9.5 1 -1.7763568394002501e-16 0 
1 -3.1499999999999999 0 -9.5 0 -1 0 
2 0 1.07153055959458e-16 0 0 0 -1 1 0 0 0 -1 0 3.1499999999999999
1 -9.8882351796707204e-16 -3.1499999999999999 -40 0 0 1 
2 0 0 -40 0 0 1 1 0 -0 -0 1 0 1.575
2 0 0 -30 0 0 -1 1 0 0 0 -1 0 1.575
2 0 0 0 0 0 -1 1 0 0 0 -1 0 1.575
1 -3.1499999999999999 -1.6499999999999999 -24.875 0 0 -1 
1 -3.1499999999999999 -3.1499999999999999 -24.875 -0 0 1 
1 -3.1499999999999999 0 -30 0 1 0 
1 -5.0458203932499401 -1.6499999999999999 -30 1 -1.4986085213066e-17 0 
1 -4.375 -3.1499999999999999 -30 -1 1.7763568394002501e-16 0 
2 0 1.07153055959458e-16 -30 0 0 -1 1 0 0 0 -1 0 3.1499999999999999
1 -17.5 -1.6499999999999999 -40 1 -1.4986085213066e-17 0 
1 -17.5 -1.6499999999999999 -40 0 0 1 
1 -17.5 -1.6499999999999999 0 1 -1.4986085213066e-17 0 
1 -9.8882351796707204e-16 -3.1499999999999999 -40 0 0 1 
2 0 1.07153055959458e-16 -40 0 0 1 1 0 -0 -0 1 0 3.1499999999999999
1 -17.5 -3.1499999999999999 0 0 1 0 
1 -17.5 -3.1499999999999999 -40 0 1 0 
1 -17.5 -3.1499999999999999 -40 0 0 1 
1 -9.8882351796707204e-16 -3.1499999999999999 0 -1 1.7763568394002501e-16 0 
1 -9.8882351796707204e-16 -3.1499999999999999 -40 -1 1.7763568394002501e-16 0 
1 1.512 1.8516048069794301e-16 -20 0 0 -1 
2 0 0 0 0 0 1 1 0 -0 -0 1 0 1.512
1 -1.512 -1.8516048069794301e-16 -20 -0 -0 1 
2 0 0 -40 0 0 -1 1 0 0 0 -1 0 1.512
2 0 0 -40 0 0 -1 1 0 0 0 -1 0 1.512
2 0 0 0 0 0 1 1 0 -0 -0 1 0 1.512
Polygon3D 0
PolygonOnTriangulations 0
Surfaces 44
2 2.4492127076447502e-15 0 -20 1.22460635382238e-16 0 -1 -1 0 -1.22460635382238e-16 0 1 0 1.575
1 1.22460635382238e-15 0 -10 1.22460635382238e-16 0 -1 -1 0 -1.22460635382238e-16 0 1 0 
2 2.4492127076447502e-15 0 -20 1.22460635382238e-16 0 -1 -1 0 -1.22460635382238e-16 0 1 0 1.575
1 0 0 -29.5 0 0 1 1 0 -0 -0 1 0 
2 0 1.07153055959458e-16 0 1.22460635382238e-16 0 -1 -1 0 -1.22460635382238e-16 0 1 0 3.1499999999999999
2 0 1.07153055959458e-16 0 1.22460635382238e-16 0 -1 -1 0 -1.22460635382238e-16 0 1 0 3.1499999999999999
1 10.0916407864999 -1.6499999999999999 1.2358287427640799e-15 -1.4986085213066e-17 1 -1.8352055170844199e-33 1 1.4986085213066e-17 1.22460635382238e-16 1.22460635382238e-16 4.1053665947016125e-48 -1 
2 0 1.07153055959458e-16 0 1.22460635382238e-16 0 -1 -1 0 -1.22460635382238e-16 0 1 0 3.1499999999999999
2 11.5 -2.3999999999999999 -15 0 -1 0 1 0 0 -0 0 1 2.1000000000000001
2 11.5 -2.3999999999999999 -15 0 -1 0 1 0 0 -0 0 1 2.1000000000000001
1 8.75 -3.1499999999999999 1.0715305595945799e-15 1.7763568394002501e-16 -1 2.1753378721853799e-32 -1 -1.7763568394002501e-16 -1.22460635382238e-16 1.22460635382238e-16 7.3896598704629025e-47 -1 
2 11.5 -2.3999999999999999 -35 0 -1 0 1 0 0 -0 0 1 2.1000000000000001
2 11.5 -2.3999999999999999 -35 0 -1 0 1 0 0 -0 0 1 2.1000000000000001
1 3.1499999999999999 0 -35 -1 0 -1.22460635382238e-16 -1.22460635382238e-16 0 1 0 1 0 
1 6.4830037864092303 -1.5731862070724301 -40 1.22460635382238e-16 0 -1 -1 0 -1.22460635382238e-16 0 1 0 
1 17.5 -2.3999999999999999 2.1430611191891598e-15 1 0 1.22460635382238e-16 0 -1 0 1.22460635382238e-16 0 -1 
1 3.1499999999999999 0 -5 -1 0 -1.22460635382238e-16 -1.22460635382238e-16 0 1 0 1 0 
1 6.4830037864092196 -1.5731862070724301 7.9391276286912598e-16 1.22460635382238e-16 0 -1 -1 0 -1.22460635382238e-16 0 1 0 
2 0 1.07153055959458e-16 -40 0 0 1 1 0 -0 -0 1 0 3.1499999999999999
2 0 1.07153055959458e-16 -40 0 0 1 1 0 -0 -0 1 0 3.1499999999999999
1 -6.4830037864092196 -1.5731862070724301 -40 0 0 1 1 0 -0 -0 1 0 
1 -10.0916407864999 -1.6499999999999999 -40 1.4986085213066e-17 1 0 -1 1.4986085213066e-17 0 0 -0 1 
1 0 0 -30 0 0 1 1 0 -0 -0 1 0 
2 0 1.07153055959458e-16 -40 0 0 1 1 0 -0 -0 1 0 3.1499999999999999
2 0 0 -20 0 0 -1 1 0 0 0 -1 0 1.575
1 -6.4830037864092196 -1.5731862070724301 0 0 0 1 1 0 -0 -0 1 0 
2 0 0 -20 0 0 -1 1 0 0 0 -1 0 1.575
1 0 0 -9.5 0 0 1 1 0 -0 -0 1 0 
2 0 0 -20 0 0 -1 1 0 0 0 -1 0 1.575
2 0 0 -20 0 0 -1 1 0 0 0 -1 0 1.575
2 0 1.07153055959458e-16 -40 0 0 1 1 0 -0 -0 1 0 3.1499999999999999
2 0 1.07153055959458e-16 -40 0 0 1 1 0 -0 -0 1 0 3.1499999999999999
2 0 1.07153055959458e-16 -40 0 0 1 1 0 -0 -0 1 0 3.1499999999999999
2 -11.5 -2.3999999999999999 -5 0 -1 0 1 0 0 -0 0 1 2.1000000000000001
2 -11.5 -2.3999999999999999 -5 0 -1 0 1 0 0 -0 0 1 2.1000000000000001
1 -8.75 -3.1499999999999999 -40 -1.7763568394002501e-16 -1 0 1 -1.7763568394002501e-16 0 0 0 1 
2 -11.5 -2.3999999999999999 -25 0 -1 0 1 0 0 -0 0 1 2.1000000000000001
2 -11.5 -2.3999999999999999 -25 0 -1 0 1 0 0 -0 0 1 2.1000000000000001
1 -3.1499999999999999 0 -20 1 0 0 0 0 -1 -0 1 0 
1 -17.5 -2.3999999999999999 -40 -1 -0 0 0 -1 -0 0 0 1 
2 0 0 -20 0 0 -1 1 0 0 0 -1 0 1.512
2 0 0 -20 0 0 -1 1 0 0 0 -1 0 1.512
1 0 0 0 0 0 1 -1 0 0 0 -1 0 
1 0 0 -40 0 0 -1 1 0 0 0 -1 0 
Triangulations 0

TShapes 299
Ve
1e-07
-1.575 -1.92875500727024e-16 -10
0 0

0101101
*
Ve
1e-07
1.575 -1.92875500727024e-16 -10
0 0

0101101
*
Ed
 1e-07 1 1 0
1  1 0 0 3.14159265358979
2  1 1 0 0 3.14159265358979
4 C0 1 0 2 0
0

0101000
+299 0 -298 0 *
Ve
1e-07
1.575 -1.92875500727024e-16 -29.5
0 0

0101101
*
Ed
 1e-07 1 1 0
1  2 0 -10 9.5
2  2 1 0 -10 9.5
2  3 3 0 -10 9.5
4 CN 1 0 3 0
0

0101000
+298 0 -296 0 *
Ve
1e-07
-1.575 -1.92875500727024e-16 -29.5
0 0

0101101
*
Ed
 1e-07 1 1 0
1  3 0 0 3.14159265358979
2  4 1 0 0 3.14159265358979
4 C0 1 0 4 0
0

0101000
+294 0 -296 0 *
Ed
 1e-07 1 1 0
1  4 0 -9.5 10
2  5 1 0 -9.5 10
2  6 3 0 -9.5 10
4 CN 1 0 3 0
0

0101000
+294 0 -299 0 *
Wi

0101100
+297 0 +295 0 -293 0 +292 0 *
Fa
0  1e-07 1 0

0111000
+291 0 *
Ve
1e-07
3.15 4.92904057413507e-16 -29.5
0 0

0101101
*
Ve
1e-07
3.15 4.92904057413507e-16 -10
0 0

0101101
*
Ed
 1e-07 1 1 0
1  5 0 -9.75 9.75
2  7 5 0 -9.75 9.75
2  8 6 0 -9.75 9.75
4 CN 5 0 6 0
0

0101000
+289 0 -288 0 *
Ve
1e-07
2.68328157299975 -1.65 -10
0 0

0101101
*
Ed
 1e-07 1 1 0
1  6 0 3.14159265358979 3.69290962272168
2  9 5 0 3.14159265358979 3.69290962272168
4 C0 5 0 2 0
0

0101000
+288 0 -286 0 *
Ve
1e-07
2.68328157299975 -1.65 -29.5
0 0

0101101
*
Ed
 1e-07 1 1 0
1  7 0 10 29.5
2  10 5 0 10 29.5
4 C0 5 0 7 0
0

0101000
+286 0 -284 0 *
Ed
 1e-07 1 1 0
1  8 0 2.59027568445791 3.14159265358979
2  11 5 0 2.59027568445791 3.14159265358979
4 C0 5 0 4 0
0

0101000
+284 0 -289 0 *
Wi

0101100
+287 0 +285 0 +283 0 +282 0 *
Fa
0  1e-07 5 0

0111000
+281 0 *
Ve
1e-07
-3.15 -2.78597945494591e-16 -10
0 0

0101101
*
Ve
1e-07
-3.15 -2.78597945494591e-16 -29.5
0 0

0101101
*
Ed
 1e-07 1 1 0
1  9 0 -9.75 9.75
2  12 6 0 -9.75 9.75
2  13 8 0 -9.75 9.75
4 CN 6 0 8 0
0

0101000
+279 0 -278 0 *
Ed
 1e-07 1 1 0
1  10 0 0 3.14159265358979
2  14 6 0 0 3.14159265358979
4 C0 6 0 2 0
0

0101000
+279 0 -288 0 *
Ed
 1e-07 1 1 0
1  11 0 3.14159265358979 6.28318530717959
2  15 6 0 3.14159265358979 6.28318530717959
4 C0 6 0 4 0
0

0101000
+289 0 -278 0 *
Wi

0101100
-277 0 +276 0 -287 0 +275 0 *
Fa
0  1e-07 6 0

0111000
+274 0 *
Ve
1e-07
13.6 -1.65 -15
0 0

0101101
*
Ve
1e-07
9.4 -1.65 -15
0 0

0101101
*
Ed
 1e-07 1 1 0
1  12 0 0 3.14159265358979
2  16 9 0 0 3.14159265358979
4 C0 9 0 7 0
0

0101000
+272 0 -271 0 *
Ve
1e-07
9.4 -3.15 -15
0 0

0101101
*
Ed
 1e-07 1 1 0
1  13 0 -0.75 0.75
2  17 9 0 -0.75 0.75
2  18 10 0 -0.75 0.75
4 CN 9 0 10 0
0

0101000
+271 0 -269 0 *
Ve
1e-07
13.6 -3.15 -15
0 0

0101101
*
Ed
 1e-07 1 1 0
1  14 0 3.14159265358979 6.28318530717959
2  19 9 0 3.14159265358979 6.28318530717959
4 C0 9 0 11 0
0

0101000
+269 0 -267 0 *
Ed
 1e-07 1 1 0
1  15 0 -0.75 0.75
2  20 9 0 -0.75 0.75
2  21 10 0 -0.75 0.75
4 CN 9 0 10 0
0

0101000
+267 0 -272 0 *
Wi

0101100
+270 0 +268 0 +266 0 +265 0 *
Fa
0  1e-07 9 0

0111000
+264 0 *
Ve
1e-07
13.6 -1.65 -35
0 0

0101101
*
Ve
1e-07
9.4 -1.65 -35
0 0

0101101
*
Ed
 1e-07 1 1 0
1  16 0 0 3.14159265358979
2  22 12 0 0 3.14159265358979
4 C0 12 0 7 0
0

0101000
+262 0 -261 0 *
Ve
1e-07
9.4 -3.15 -35
0 0

0101101
*
Ed
 1e-07 1 1 0
1  17 0 -0.75 0.75
2  23 12 0 -0.75 0.75
2  24 13 0 -0.75 0.75
4 CN 12 0 13 0
0

0101000
+261 0 -259 0 *
Ve
1e-07
13.6 -3.15 -35
0 0

0101101
*
Ed
 1e-07 1 1 0
1  18 0 3.14159265358979 6.28318530717959
2  25 12 0 3.14159265358979 6.28318530717959
4 C0 12 0 11 0
0

0101000
+259 0 -257 0 *
Ed
 1e-07 1 1 0
1  19 0 -0.75 0.75
2  26 12 0 -0.75 0.75
2  27 13 0 -0.75 0.75
4 CN 12 0 13 0
0

0101000
+257 0 -262 0 *
Wi

0101100
+260 0 +258 0 +256 0 +255 0 *
Fa
0  1e-07 12 0

0111000
+254 0 *
Ed
 1e-07 1 1 0
1  20 0 0 3.14159265358979
2  28 13 0 0 3.14159265358979
4 C0 13 0 11 0
0

0101000
+257 0 -259 0 *
Ed
 1e-07 1 1 0
1  21 0 3.14159265358979 6.28318530717959
2  29 13 0 3.14159265358979 6.28318530717959
4 C0 13 0 7 0
0

0101000
+261 0 -262 0 *
Wi

0101100
+252 0 -258 0 +251 0 -255 0 *
Fa
0  1e-07 13 0

0111000
+250 0 *
Ed
 1e-07 1 1 0
1  22 0 0 3.14159265358979
2  30 10 0 0 3.14159265358979
4 C0 10 0 11 0
0

0101000
+267 0 -269 0 *
Ed
 1e-07 1 1 0
1  23 0 3.14159265358979 6.28318530717959
2  31 10 0 3.14159265358979 6.28318530717959
4 C0 10 0 7 0
0

0101000
+271 0 -272 0 *
Wi

0101100
+248 0 -268 0 +247 0 -265 0 *
Fa
0  1e-07 10 0

0111000
+246 0 *
Ve
1e-07
3.15 -1.65 -29.5
0 0

0101101
*
Ed
 1e-07 1 1 0
1  24 0 1.89582039324994 2.36253882025019
4 C0 4 0 7 0
0

0101000
+244 0 -284 0 *
Ve
1e-07
3.15 -3.15 -29.5
0 0

0101101
*
Ed
 1e-07 1 1 0
1  25 0 -3.15 -1.65
4 C0 4 0 14 0
0

0101000
+242 0 -244 0 *
Ve
1e-07
4.32986979603811e-15 -3.15 -29.5
0 0

0101101
*
Ed
 1e-07 1 1 0
1  26 0 -4.375 -1.225
4 C0 4 0 11 0
0

0101000
+240 0 -242 0 *
Ed
 1e-07 1 1 0
1  27 0 0 1.5707963267949
2  32 8 0 0 1.5707963267949
4 C0 4 0 8 0
0

0101000
+278 0 -240 0 *
Wi

0101100
-243 0 -241 0 -239 0 -238 0 -275 0 -282 0 *
Ed
 1e-07 1 1 0
1  28 0 3.14159265358979 6.28318530717959
2  33 3 0 3.14159265358979 6.28318530717959
4 C0 4 0 3 0
0

0101000
+296 0 -294 0 *
Wi

0101100
-236 0 -293 0 *
Fa
0  1e-07 4 0

0111000
-237 0 -235 0 *
Ve
1e-07
1.89074016859747e-15 -3.15 -10
0 0

0101101
*
Ed
 1e-07 1 1 0
1  29 0 10 29.5
2  34 8 0 10 29.5
4 G1 8 0 11 0
0

0101000
+233 0 -240 0 *
Ed
 1e-07 1 1 0
1  30 0 4.71238898038469 6.28318530717959
2  35 8 0 4.71238898038469 6.28318530717959
4 C0 8 0 2 0
0

0101000
+233 0 -279 0 *
Wi

0101100
+277 0 +238 0 -232 0 +231 0 *
Fa
0  1e-07 8 0

0111000
+230 0 *
Ed
 1e-07 1 1 0
1  31 0 3.14159265358979 6.28318530717959
2  36 3 0 3.14159265358979 6.28318530717959
4 C0 3 0 2 0
0

0101000
+298 0 -299 0 *
Wi

0101100
-236 0 -295 0 +228 0 -292 0 *
Fa
0  1e-07 3 0

0111000
+227 0 *
Ve
1e-07
3.15 -1.65 -40
0 0

0101101
*
Ed
 1e-07 1 1 0
1  32 0 -25.125 -14.625
4 C0 14 0 7 0
0

0101000
+225 0 -244 0 *
Ve
1e-07
3.15 -3.15 -40
0 0

0101101
*
Ed
 1e-07 1 1 0
1  33 0 -2.36340689646378 -0.863406896463783
4 C0 14 0 15 0
0

0101000
+223 0 -225 0 *
Ed
 1e-07 1 1 0
1  34 0 14.625 25.125
4 C0 14 0 11 0
0

0101000
+242 0 -223 0 *
Wi

0101100
-224 0 -222 0 -221 0 +241 0 *
Fa
0  1e-07 14 0

0111000
+220 0 *
Ve
1e-07
17.5 -1.65 -40
0 0

0101101
*
Ed
 1e-07 1 1 0
1  35 0 -0 14.35
4 C0 15 0 7 0
0

0101000
+218 0 -225 0 *
Ve
1e-07
17.5 -3.15 -40
0 0

0101101
*
Ed
 1e-07 1 1 0
1  36 0 0 1.5
4 C0 15 0 16 0
0

0101000
+216 0 -218 0 *
Ed
 1e-07 1 1 0
1  37 0 3.14999999999999 17.5
4 C0 15 0 11 0
0

0101000
+223 0 -216 0 *
Wi

0101100
+222 0 -217 0 -215 0 -214 0 *
Fa
0  1e-07 15 0

0111000
+213 0 *
Wi

0101100
+260 0 +251 0 *
Wi

0101100
+270 0 +247 0 *
Ve
1e-07
3.15 -1.65 -10
0 0

0101101
*
Ed
 1e-07 1 1 0
1  38 0 -2.36253882025019 -1.89582039324994
4 C0 7 0 2 0
0

0101000
+286 0 -209 0 *
Ve
1e-07
3.15 -1.65 3.85751001454049e-16
0 0

0101101
*
Ed
 1e-07 1 1 0
1  39 0 -7.5 2.5
4 C0 7 0 17 0
0

0101000
+209 0 -207 0 *
Ve
1e-07
17.5 -1.65 2.14306111918916e-15
0 0

0101101
*
Ed
 1e-07 1 1 0
1  40 0 -0 14.35
4 C0 7 0 18 0
0

0101000
+205 0 -207 0 *
Ed
 1e-07 1 1 0
1  41 0 0 40
4 C0 7 0 16 0
0

0101000
+205 0 -218 0 *
Wi

0101100
+243 0 -283 0 +208 0 +206 0 -204 0 +203 0 +217 0 +224 0 *
Fa
0  1e-07 7 0

0111000
+211 0 +210 0 +202 0 *
Ve
1e-07
3.15 -3.15 -10
0 0

0101101
*
Ed
 1e-07 1 1 0
1  42 0 1.65 3.15
4 C0 17 0 2 0
0

0101000
+209 0 -200 0 *
Ve
1e-07
3.15 -3.15 3.85751001454049e-16
0 0

0101101
*
Ed
 1e-07 1 1 0
1  43 0 -2.5 7.5
4 C0 17 0 11 0
0

0101000
+198 0 -200 0 *
Ed
 1e-07 1 1 0
1  44 0 0.863406896463783 2.36340689646378
4 C0 17 0 18 0
0

0101000
+207 0 -198 0 *
Wi

0101100
-206 0 +199 0 -197 0 -196 0 *
Fa
0  1e-07 17 0

0111000
+195 0 *
Wi

0101100
+228 0 +297 0 *
Ed
 1e-07 1 1 0
1  45 0 1.225 4.375
4 C0 2 0 11 0
0

0101000
+200 0 -233 0 *
Wi

0101100
-208 0 -285 0 -276 0 -231 0 -192 0 -199 0 *
Fa
0  1e-07 2 0

0111000
-193 0 -191 0 *
Ve
1e-07
17.5 -3.15 2.14306111918916e-15
0 0

0101101
*
Ed
 1e-07 1 1 0
1  46 0 0 1.5
4 C0 16 0 18 0
0

0101000
+189 0 -205 0 *
Ed
 1e-07 1 1 0
1  47 0 0 40
4 C0 16 0 11 0
0

0101000
+189 0 -216 0 *
Wi

0101100
+215 0 -203 0 -188 0 +187 0 *
Fa
0  1e-07 16 0

0111000
+186 0 *
Wi

0101100
+252 0 +256 0 *
Wi

0101100
+248 0 +266 0 *
Ed
 1e-07 1 1 0
1  48 0 3.15 17.5
4 C0 11 0 18 0
0

0101000
+198 0 -189 0 *
Wi

0101100
+221 0 +214 0 -187 0 -182 0 +197 0 +192 0 +232 0 +239 0 *
Fa
0  1e-07 11 0

0111000
+184 0 +183 0 +181 0 *
Wi

0101100
+196 0 +182 0 +188 0 +204 0 *
Fa
0  1e-07 18 0

0111000
-179 0 *
Sh

0101100
-290 0 +280 0 +273 0 -263 0 -253 0 -249 0 -245 0 -234 0 +229 0 -226 0 
+219 0 +212 0 +201 0 +194 0 -190 0 +185 0 +180 0 -178 0 *
So

0100000
+177 0 *
Ve
1e-07
-3.15 4.92904057413507e-16 -30
0 0

0101101
*
Ve
1e-07
-3.15 4.92904057413507e-16 -40
0 0

0101101
*
Ed
 1e-07 1 1 0
1  49 0 -10 -0
2  37 19 0 -10 -0
2  38 20 0 -10 -0
4 CN 19 0 20 0
0

0101000
+175 0 -174 0 *
Ve
1e-07
-2.68328157299975 -1.65 -40
0 0

0101101
*
Ed
 1e-07 1 1 0
1  50 0 3.14159265358979 3.69290962272168
2  39 19 0 3.14159265358979 3.69290962272168
4 C0 19 0 21 0
0

0101000
+174 0 -172 0 *
Ve
1e-07
-2.68328157299975 -1.65 -30
0 0

0101101
*
Ed
 1e-07 1 1 0
1  51 0 0 10
2  40 19 0 0 10
4 C0 19 0 22 0
0

0101000
+172 0 -170 0 *
Ed
 1e-07 1 1 0
1  52 0 2.59027568445791 3.14159265358979
2  41 19 0 2.59027568445791 3.14159265358979
4 C0 19 0 23 0
0

0101000
+170 0 -175 0 *
Wi

0101100
+173 0 +171 0 +169 0 +168 0 *
Fa
0  1e-07 19 0

0111000
+167 0 *
Ve
1e-07
3.15 -2.78597945494591e-16 -40
0 0

0101101
*
Ve
1e-07
3.15 -2.78597945494591e-16 -30
0 0

0101101
*
Ed
 1e-07 1 1 0
1  53 0 0 10
2  42 20 0 0 10
2  43 24 0 0 10
4 CN 20 0 24 0
0

0101000
+165 0 -164 0 *
Ed
 1e-07 1 1 0
1  54 0 0 3.14159265358979
2  44 20 0 0 3.14159265358979
4 C0 20 0 21 0
0

0101000
+165 0 -174 0 *
Ed
 1e-07 1 1 0
1  55 0 3.14159265358979 6.28318530717959
2  45 20 0 3.14159265358979 6.28318530717959
4 C0 20 0 23 0
0

0101000
+175 0 -164 0 *
Wi

0101100
-163 0 +162 0 -173 0 +161 0 *
Fa
0  1e-07 20 0

0111000
+160 0 *
Ve
1e-07
1.575 0 0
0 0

0101101
*
Ve
1e-07
-1.575 -1.92875500727024e-16 0
0 0

0101101
*
Ed
 1e-07 1 1 0
1  56 0 0 3.14159265358979
2  46 25 0 0 3.14159265358979
4 C0 25 0 26 0
0

0101000
+158 0 -157 0 *
Ve
1e-07
-1.575 1.92875500727024e-16 -9.5
0 0

0101101
*
Ed
 1e-07 1 1 0
1  57 0 -4.75 4.75
2  47 25 0 -4.75 4.75
2  48 27 0 -4.75 4.75
4 CN 25 0 27 0
0

0101000
+157 0 -155 0 *
Ve
1e-07
1.575 1.92875500727024e-16 -9.5
0 0

0101101
*
Ed
 1e-07 1 1 0
1  58 0 0 3.14159265358979
2  49 25 0 0 3.14159265358979
4 C0 25 0 28 0
0

0101000
+153 0 -155 0 *
Ed
 1e-07 1 1 0
1  59 0 -4.75 4.75
2  50 25 0 -4.75 4.75
2  51 27 0 -4.75 4.75
4 CN 25 0 27 0
0

0101000
+153 0 -158 0 *
Wi

0101100
+156 0 +154 0 -152 0 +151 0 *
Fa
0  1e-07 25 0

0111000
+150 0 *
Ve
1e-07
1.575 1.92875500727024e-16 -30
0 0

0101101
*
Ve
1e-07
-1.575 1.92875500727024e-16 -30
0 0

0101101
*
Ed
 1e-07 1 1 0
1  60 0 0 3.14159265358979
2  52 29 0 0 3.14159265358979
4 C0 29 0 23 0
0

0101000
+148 0 -147 0 *
Ve
1e-07
-1.575 -1.92875500727024e-16 -40
0 0

0101101
*
Ed
 1e-07 1 1 0
1  61 0 -5 5
2  53 29 0 -5 5
2  54 30 0 -5 5
4 CN 29 0 30 0
0

0101000
+147 0 -145 0 *
Ve
1e-07
1.575 0 -40
0 0

0101101
*
Ed
 1e-07 1 1 0
1  62 0 3.14159265358979 6.28318530717959
2  55 29 0 3.14159265358979 6.28318530717959
4 C0 29 0 21 0
0

0101000
+145 0 -143 0 *
Ed
 1e-07 1 1 0
1  63 0 -5 5
2  56 29 0 -5 5
2  57 30 0 -5 5
4 CN 29 0 30 0
0

0101000
+143 0 -148 0 *
Wi

0101100
+146 0 +144 0 +142 0 +141 0 *
Fa
0  1e-07 29 0

0111000
+140 0 *
Ve
1e-07
-3.15 4.92904057413507e-16 0
0 0

0101101
*
Ve
1e-07
-3.15 4.92904057413507e-16 -9.5
0 0

0101101
*
Ed
 1e-07 1 1 0
1  64 0 -4.75 4.75
2  58 31 0 -4.75 4.75
2  59 32 0 -4.75 4.75
4 CN 31 0 32 0
0

0101000
+138 0 -137 0 *
Ve
1e-07
-2.68328157299975 -1.65 -9.5
0 0

0101101
*
Ed
 1e-07 1 1 0
1  65 0 3.14159265358979 3.69290962272168
2  60 31 0 3.14159265358979 3.69290962272168
4 C0 31 0 28 0
0

0101000
+137 0 -135 0 *
Ve
1e-07
-2.68328157299975 -1.65 0
0 0

0101101
*
Ed
 1e-07 1 1 0
1  66 0 30.5 40
2  61 31 0 30.5 40
4 C0 31 0 22 0
0

0101000
+135 0 -133 0 *
Ed
 1e-07 1 1 0
1  67 0 2.59027568445791 3.14159265358979
2  62 31 0 2.59027568445791 3.14159265358979
4 C0 31 0 26 0
0

0101000
+133 0 -138 0 *
Wi

0101100
+136 0 +134 0 +132 0 +131 0 *
Fa
0  1e-07 31 0

0111000
+130 0 *
Ve
1e-07
3.15 -2.78597945494591e-16 -9.5
0 0

0101101
*
Ve
1e-07
3.15 -2.78597945494591e-16 0
0 0

0101101
*
Ed
 1e-07 1 1 0
1  68 0 -4.75 4.75
2  63 32 0 -4.75 4.75
2  64 33 0 -4.75 4.75
4 CN 32 0 33 0
0

0101000
+128 0 -127 0 *
Ed
 1e-07 1 1 0
1  69 0 0 3.14159265358979
2  65 32 0 0 3.14159265358979
4 C0 32 0 28 0
0

0101000
+128 0 -137 0 *
Ed
 1e-07 1 1 0
1  70 0 3.14159265358979 6.28318530717959
2  66 32 0 3.14159265358979 6.28318530717959
4 C0 32 0 26 0
0

0101000
+138 0 -127 0 *
Wi

0101100
-126 0 +125 0 -136 0 +124 0 *
Fa
0  1e-07 32 0

0111000
+123 0 *
Ve
1e-07
-9.4 -1.65 -5
0 0

0101101
*
Ve
1e-07
-13.6 -1.65 -5
0 0

0101101
*
Ed
 1e-07 1 1 0
1  71 0 0 3.14159265358979
2  67 34 0 0 3.14159265358979
4 C0 34 0 22 0
0

0101000
+121 0 -120 0 *
Ve
1e-07
-13.6 -3.15 -5
0 0

0101101
*
Ed
 1e-07 1 1 0
1  72 0 -0.75 0.75
2  68 34 0 -0.75 0.75
2  69 35 0 -0.75 0.75
4 CN 34 0 35 0
0

0101000
+120 0 -118 0 *
Ve
1e-07
-9.4 -3.15 -5
0 0

0101101
*
Ed
 1e-07 1 1 0
1  73 0 3.14159265358979 6.28318530717959
2  70 34 0 3.14159265358979 6.28318530717959
4 C0 34 0 36 0
0

0101000
+118 0 -116 0 *
Ed
 1e-07 1 1 0
1  74 0 -0.75 0.75
2  71 34 0 -0.75 0.75
2  72 35 0 -0.75 0.75
4 CN 34 0 35 0
0

0101000
+116 0 -121 0 *
Wi

0101100
+119 0 +117 0 +115 0 +114 0 *
Fa
0  1e-07 34 0

0111000
+113 0 *
Ve
1e-07
-9.4 -1.65 -25
0 0

0101101
*
Ve
1e-07
-13.6 -1.65 -25
0 0

0101101
*
Ed
 1e-07 1 1 0
1  75 0 0 3.14159265358979
2  73 37 0 0 3.14159265358979
4 C0 37 0 22 0
0

0101000
+111 0 -110 0 *
Ve
1e-07
-13.6 -3.15 -25
0 0

0101101
*
Ed
 1e-07 1 1 0
1  76 0 -0.75 0.75
2  74 37 0 -0.75 0.75
2  75 38 0 -0.75 0.75
4 CN 37 0 38 0
0

0101000
+110 0 -108 0 *
Ve
1e-07
-9.4 -3.15 -25
0 0

0101101
*
Ed
 1e-07 1 1 0
1  77 0 3.14159265358979 6.28318530717959
2  76 37 0 3.14159265358979 6.28318530717959
4 C0 37 0 36 0
0

0101000
+108 0 -106 0 *
Ed
 1e-07 1 1 0
1  78 0 -0.75 0.75
2  77 37 0 -0.75 0.75
2  78 38 0 -0.75 0.75
4 CN 37 0 38 0
0

0101000
+106 0 -111 0 *
Wi

0101100
+109 0 +107 0 +105 0 +104 0 *
Fa
0  1e-07 37 0

0111000
+103 0 *
Ed
 1e-07 1 1 0
1  79 0 0 3.14159265358979
2  79 38 0 0 3.14159265358979
4 C0 38 0 36 0
0

0101000
+106 0 -108 0 *
Ed
 1e-07 1 1 0
1  80 0 3.14159265358979 6.28318530717959
2  80 38 0 3.14159265358979 6.28318530717959
4 C0 38 0 22 0
0

0101000
+110 0 -111 0 *
Wi

0101100
+101 0 -107 0 +100 0 -104 0 *
Fa
0  1e-07 38 0

0111000
+99 0 *
Ed
 1e-07 1 1 0
1  81 0 0 3.14159265358979
2  81 35 0 0 3.14159265358979
4 C0 35 0 36 0
0

0101000
+116 0 -118 0 *
Ed
 1e-07 1 1 0
1  82 0 3.14159265358979 6.28318530717959
2  82 35 0 3.14159265358979 6.28318530717959
4 C0 35 0 22 0
0

0101000
+120 0 -121 0 *
Wi

0101100
+97 0 -117 0 +96 0 -114 0 *
Fa
0  1e-07 35 0

0111000
+95 0 *
Ed
 1e-07 1 1 0
1  83 0 3.14159265358979 6.28318530717959
2  83 27 0 3.14159265358979 6.28318530717959
4 C0 28 0 27 0
0

0101000
+155 0 -153 0 *
Wi

0101100
-93 0 -152 0 *
Ve
1e-07
-3.15 -1.65 -9.5
0 0

0101101
*
Ed
 1e-07 1 1 0
1  84 0 -2.36253882025019 -1.89582039324994
4 C0 28 0 22 0
0

0101000
+135 0 -91 0 *
Ve
1e-07
-6.66133814775094e-16 -3.15 -9.5
0 0

0101101
*
Ed
 1e-07 1 1 0
1  85 0 4.71238898038469 6.28318530717959
2  84 33 0 4.71238898038469 6.28318530717959
4 C0 28 0 33 0
0

0101000
+89 0 -128 0 *
Ve
1e-07
-3.15 -3.15 -9.5
0 0

0101101
*
Ed
 1e-07 1 1 0
1  86 0 1.225 4.375
4 C0 28 0 36 0
0

0101000
+87 0 -89 0 *
Ed
 1e-07 1 1 0
1  87 0 1.65 3.15
4 C0 28 0 39 0
0

0101000
+91 0 -87 0 *
Wi

0101100
-90 0 -134 0 -125 0 -88 0 -86 0 -85 0 *
Fa
0  1e-07 28 0

0111000
-92 0 -84 0 *
Ve
1e-07
-9.88823517967072e-16 -3.15 0
0 0

0101101
*
Ed
 1e-07 1 1 0
1  88 0 0 1.5707963267949
2  85 33 0 0 1.5707963267949
4 C0 33 0 26 0
0

0101000
+127 0 -82 0 *
Ed
 1e-07 1 1 0
1  89 0 30.5 40
2  86 33 0 30.5 40
4 G1 33 0 36 0
0

0101000
+89 0 -82 0 *
Wi

0101100
+126 0 +81 0 -80 0 +88 0 *
Fa
0  1e-07 33 0

0111000
+79 0 *
Ed
 1e-07 1 1 0
1  90 0 0 3.14159265358979
2  87 30 0 0 3.14159265358979
4 C0 30 0 21 0
0

0101000
+143 0 -145 0 *
Ed
 1e-07 1 1 0
1  91 0 3.14159265358979 6.28318530717959
2  88 30 0 3.14159265358979 6.28318530717959
4 C0 30 0 23 0
0

0101000
+147 0 -148 0 *
Wi

0101100
+77 0 -144 0 +76 0 -141 0 *
Fa
0  1e-07 30 0

0111000
+75 0 *
Ed
 1e-07 1 1 0
1  92 0 3.14159265358979 6.28318530717959
2  89 27 0 3.14159265358979 6.28318530717959
4 C0 27 0 26 0
0

0101000
+157 0 -158 0 *
Wi

0101100
-93 0 -154 0 +73 0 -151 0 *
Fa
0  1e-07 27 0

0111000
+72 0 *
Ve
1e-07
-3.15 -1.65 -30
0 0

0101101
*
Ed
 1e-07 1 1 0
1  93 0 -15.375 5.125
4 C0 39 0 22 0
0

0101000
+91 0 -70 0 *
Ve
1e-07
-3.15 -3.15 -30
0 0

0101101
*
Ed
 1e-07 1 1 0
1  94 0 -5.125 15.375
4 C0 39 0 36 0
0

0101000
+68 0 -87 0 *
Ed
 1e-07 1 1 0
1  95 0 -3.15 -1.65
4 C0 39 0 23 0
0

0101000
+68 0 -70 0 *
Wi

0101100
-69 0 +85 0 -67 0 +66 0 *
Fa
0  1e-07 39 0

0111000
+65 0 *
Wi

0101100
+76 0 +146 0 *
Ed
 1e-07 1 1 0
1  96 0 1.89582039324994 2.36253882025019
4 C0 23 0 22 0
0

0101000
+70 0 -170 0 *
Ve
1e-07
-6.66133814775094e-16 -3.15 -30
0 0

0101101
*
Ed
 1e-07 1 1 0
1  97 0 -4.375 -1.225
4 C0 23 0 36 0
0

0101000
+61 0 -68 0 *
Ed
 1e-07 1 1 0
1  98 0 0 1.5707963267949
2  90 24 0 0 1.5707963267949
4 C0 23 0 24 0
0

0101000
+164 0 -61 0 *
Wi

0101100
-168 0 -62 0 -66 0 -60 0 -59 0 -161 0 *
Fa
0  1e-07 23 0

0111000
+63 0 +58 0 *
Wi

0101100
+109 0 +100 0 *
Wi

0101100
+119 0 +96 0 *
Ve
1e-07
-17.5 -1.65 -40
0 0

0101101
*
Ed
 1e-07 1 1 0
1  99 0 0 14.8167184270003
4 C0 22 0 21 0
0

0101000
+54 0 -172 0 *
Ve
1e-07
-17.5 -1.65 0
0 0

0101101
*
Ed
 1e-07 1 1 0
1  100 0 0 40
4 C0 22 0 40 0
0

0101000
+54 0 -52 0 *
Ed
 1e-07 1 1 0
1  101 0 0 14.8167184270003
4 C0 22 0 26 0
0

0101000
+52 0 -133 0 *
Wi

0101100
+69 0 +62 0 -169 0 -53 0 +51 0 +50 0 -132 0 +90 0 *
Fa
0  1e-07 22 0

0111000
+56 0 +55 0 +49 0 *
Ve
1e-07
-9.88823517967072e-16 -3.15 -40
0 0

0101101
*
Ed
 1e-07 1 1 0
1  102 0 0 10
2  91 24 0 0 10
4 G1 24 0 36 0
0

0101000
+47 0 -61 0 *
Ed
 1e-07 1 1 0
1  103 0 4.71238898038469 6.28318530717959
2  92 24 0 4.71238898038469 6.28318530717959
4 C0 24 0 21 0
0

0101000
+47 0 -165 0 *
Wi

0101100
+163 0 +59 0 -46 0 +45 0 *
Fa
0  1e-07 24 0

0111000
+44 0 *
Ve
1e-07
-17.5 -3.15 0
0 0

0101101
*
Ed
 1e-07 1 1 0
1  104 0 0 1.5
4 C0 40 0 26 0
0

0101000
+42 0 -52 0 *
Ve
1e-07
-17.5 -3.15 -40
0 0

0101101
*
Ed
 1e-07 1 1 0
1  105 0 0 1.5
4 C0 40 0 21 0
0

0101000
+40 0 -54 0 *
Ed
 1e-07 1 1 0
1  106 0 0 40
4 C0 40 0 36 0
0

0101000
+40 0 -42 0 *
Wi

0101100
+41 0 -51 0 -39 0 +38 0 *
Fa
0  1e-07 40 0

0111000
+37 0 *
Wi

0101100
+101 0 +105 0 *
Wi

0101100
+97 0 +115 0 *
Ed
 1e-07 1 1 0
1  107 0 0 17.5
4 C0 36 0 26 0
0

0101000
+82 0 -42 0 *
Ed
 1e-07 1 1 0
1  108 0 0 17.5
4 C0 36 0 21 0
0

0101000
+47 0 -40 0 *
Wi

0101100
+86 0 +80 0 +33 0 -38 0 -32 0 +46 0 +60 0 +67 0 *
Fa
0  1e-07 36 0

0111000
+35 0 +34 0 +31 0 *
Wi

0101100
+156 0 +73 0 *
Wi

0101100
-41 0 -33 0 -81 0 -124 0 -131 0 -50 0 *
Fa
0  1e-07 26 0

0111000
+29 0 +28 0 *
Wi

0101100
+77 0 +142 0 *
Wi

0101100
+32 0 +39 0 +53 0 -171 0 -162 0 -45 0 *
Fa
0  1e-07 21 0

0111000
-26 0 -25 0 *
Sh

0101100
+166 0 +159 0 -149 0 -139 0 +129 0 +122 0 -112 0 -102 0 -98 0 -94 0 
-83 0 +78 0 -74 0 -71 0 +64 0 +57 0 +48 0 +43 0 +36 0 +30 0 
+27 0 -24 0 *
So

0100000
+23 0 *
Ve
1e-07
1.512 0 0
0 0

0101101
*
Ve
1e-07
1.512 0 -40
0 0

0101101
*
Ed
 1e-07 1 1 0
1  109 0 -20 20
2  93 41 0 -20 20
2  94 42 0 -20 20
4 CN 41 0 42 0
0

0101000
+21 0 -20 0 *
Ve
1e-07
-1.512 -1.85160480697943e-16 0
0 0

0101101
*
Ed
 1e-07 1 1 0
1  110 0 3.14159265358979 6.28318530717959
2  95 41 0 3.14159265358979 6.28318530717959
4 C0 41 0 43 0
0

0101000
+18 0 -21 0 *
Ve
1e-07
-1.512 -1.85160480697943e-16 -40
0 0

0101101
*
Ed
 1e-07 1 1 0
1  111 0 -20 20
2  96 41 0 -20 20
2  97 42 0 -20 20
4 CN 41 0 42 0
0

0101000
+16 0 -18 0 *
Ed
 1e-07 1 1 0
1  112 0 0 3.14159265358979
2  98 41 0 0 3.14159265358979
4 C0 41 0 44 0
0

0101000
+20 0 -16 0 *
Wi

0101100
-19 0 -17 0 -15 0 -14 0 *
Fa
0  1e-07 41 0

0111000
+13 0 *
Ed
 1e-07 1 1 0
1  113 0 3.14159265358979 6.28318530717959
2  99 42 0 3.14159265358979 6.28318530717959
4 C0 42 0 44 0
0

0101000
+16 0 -20 0 *
Ed
 1e-07 1 1 0
1  114 0 0 3.14159265358979
2  100 42 0 0 3.14159265358979
4 C0 42 0 43 0
0

0101000
+21 0 -18 0 *
Wi

0101100
+19 0 -11 0 +15 0 -10 0 *
Fa
0  1e-07 42 0

0111000
+9 0 *
Wi

0101100
+10 0 +17 0 *
Fa
0  1e-07 43 0

0111000
+7 0 *
Wi

0101100
+14 0 +11 0 *
Fa
0  1e-07 44 0

0111000
+5 0 *
Sh

0101100
+12 0 +8 0 +6 0 +4 0 *
So

0100000
+3 0 *
Co

1100000
+176 0 +22 0 +2 0 *

+1 0 