DBRep_DrawableShape

CASCADE Topology V1, (c) Matra-Datavision
Locations 0
Curve2ds 180
1 0 -0.74999999999999956 1 -1.4135798584282297e-16 
1 6.2831853071795862 -1.4142135623730949 -1 7.0678992921411486e-17 
1 3.1415926535897931 0 0 1 
1 3.1415926535897931 0 0 1 
1 6.2831853071795862 0.74999999999999734 -1 5.6543194337129189e-16 
1 0 0 0 -1 
1 6.2831853071795862 0 0 -1 
1 6.2831853071795862 1.4142135623730949 -1 1.4135798584282297e-16 
1 3.1415926535897931 -2.2204460492503131e-16 0 -1 
1 3.1415926535897931 -2.2204460492503131e-16 0 -1 
1 6.2831853071795862 0 0 1 
1 0 0 0 1 
1 0 -0.74999999999999956 1 -1.4135798584282297e-16 
1 6.2831853071795862 -1.4142135623730949 -1 7.0678992921411486e-17 
1 3.1415926535897931 0 0 1 
1 3.1415926535897931 0 0 1 
1 6.2831853071795862 0.74999999999999734 -1 5.6543194337129189e-16 
1 0 0 0 -1 
1 6.2831853071795862 0 0 -1 
1 6.2831853071795862 1.4142135623730949 -1 1.4135798584282297e-16 
1 3.1415926535897931 -2.2204460492503131e-16 0 -1 
1 3.1415926535897931 -2.2204460492503131e-16 0 -1 
1 6.2831853071795862 0 0 1 
1 0 0 0 1 
1 6.2831853071795862 -3.4199999999999999 -1 0 
1 3.1415926535897931 0 0 1 
1 3.1415926535897931 0 0 1 
1 0 4.4200000000000017 1 0 
1 0 0 0 -1 
1 6.2831853071795862 0 0 -1 
1 3.1415926535897931 13.5 0 -1 
1 3.1415926535897931 13.5 0 -1 
1 0 9.5800000000000001 1 0 
1 3.4462853076051903 0 0 1 
1 6.2831853071795862 17.420000000000002 -1 0 
1 0 13.5 0 1 
1 6.2831853071795862 13.5 0 1 
1 0 9.5800000000000001 1 0 
1 6.2831853071795862 17.420000000000002 -1 0 
1 6.2831853071795862 -3.4199999999999999 -1 0 
1 0 9.5800000000000001 1 0 
1 6.2831853071795862 17.420000000000002 -1 0 
1 4.7123889803846897 0 0 1 
1 0 4.4200000000000017 1 0 
1 6.2831853071795862 1.4142135623730958 -1 -1.4135798584282297e-16 
1 6.2831853071795862 1.4142135623730958 -1 -1.4135798584282297e-16 
1 6.2831853071795862 -1.4142135623730945 -1 -7.0678992921411486e-17 
1 0 -0.75000000000000044 1 1.4135798584282297e-16 
1 6.2831853071795862 0.75000000000000089 -1 -5.6543194337129189e-16 
1 6.2831853071795862 -1.4142135623730945 -1 -7.0678992921411486e-17 
1 0 -0.75000000000000044 1 1.4135798584282297e-16 
1 6.2831853071795862 0.75000000000000089 -1 -5.6543194337129189e-16 
1 0 -0.74999999999999956 1 -1.4135798584282297e-16 
1 6.2831853071795862 -1.4142135623730958 -1 3.5339496460705744e-16 
1 3.1415926535897931 0 0 1 
1 3.1415926535897931 0 0 1 
1 6.2831853071795862 0.74999999999999734 -1 5.6543194337129189e-16 
1 0 0 0 -1 
1 6.2831853071795862 0 0 -1 
1 6.2831853071795862 1.4142135623730945 -1 2.8271597168564599e-16 
1 3.1415926535897936 8.8817841970012523e-16 -1.5700924586837744e-16 -1 
1 3.1415926535897936 8.8817841970012523e-16 -1.5700924586837744e-16 -1 
1 6.2831853071795862 -8.8817841970012523e-16 0 1 
1 0 -8.8817841970012523e-16 0 1 
1 0 -0.74999999999999956 1 -1.4135798584282297e-16 
1 6.2831853071795862 -1.4142135623730945 -1 -7.0678992921411486e-17 
1 3.1415926535897931 0 0 1 
1 3.1415926535897931 0 0 1 
1 6.2831853071795862 0.74999999999999734 -1 5.6543194337129189e-16 
1 0 0 0 -1 
1 6.2831853071795862 0 0 -1 
1 6.2831853071795862 1.4142135623730958 -1 -1.4135798584282297e-16 
1 3.1415926535897931 -2.2204460492503131e-16 0 -1 
1 3.1415926535897931 -2.2204460492503131e-16 0 -1 
1 6.2831853071795862 4.4408920985006262e-16 0 1 
1 0 4.4408920985006262e-16 0 1 
1 6.2831853071795862 4.4199999999999999 -1 0 
1 3.1415926535897931 8.7100000000000009 0 1 
1 3.1415926535897931 8.7100000000000009 0 1 
1 6.2831853071795862 13 -1 0 
1 0 8.7100000000000009 0 -1 
1 6.2831853071795862 8.7100000000000009 0 -1 
1 0 -13 1 0 
1 3.1415926535897931 -9.0799999999999983 0 1 
1 3.1415926535897931 -9.0799999999999983 0 1 
1 0 -5.1600000000000001 1 0 
1 0 -9.0799999999999983 0 -1 
1 6.2831853071795862 -9.0799999999999983 0 -1 
1 3.1415926535897931 21.710000000000001 0 -1 
1 3.1415926535897931 21.710000000000001 0 -1 
1 0 17.420000000000002 1 0 
1 3.4462853076051903 0 0 1 
1 6.2831853071795862 26 -1 0 
1 0 21.710000000000001 0 1 
1 6.2831853071795862 21.710000000000001 0 1 
1 0 17.420000000000002 1 0 
1 6.2831853071795862 26 -1 0 
1 3.1415926535897931 0 0 -1 
1 3.1415926535897931 0 0 -1 
1 0 0 1 0 
1 3.4462853076051903 0 0 1 
1 6.2831853071795862 7.8399999999999999 -1 0 
1 0 0 0 1 
1 6.2831853071795862 0 0 1 
1 0 0 1 0 
1 6.2831853071795862 7.8399999999999999 -1 0 
1 6.2831853071795862 7.8399999999999999 -1 0 
1 0 -5.1600000000000001 1 0 
1 4.7123889803846897 0 0 1 
1 0 0 1 0 
1 0 17.420000000000002 1 0 
1 6.2831853071795862 4.4199999999999999 -1 0 
1 6.2831853071795862 1.4142135623730963 -1 -2.8271597168564589e-16 
1 6.2831853071795862 1.4142135623730949 -1 1.4135798584282297e-16 
1 6.2831853071795862 26 -1 0 
1 4.7123889803846897 0 0 1 
1 0 -13 1 0 
1 6.2831853071795862 13 -1 0 
1 6.2831853071795862 -1.4142135623730949 -1 7.0678992921411486e-17 
1 0 -0.75000000000000044 1 1.4135798584282297e-16 
1 6.2831853071795862 0.75000000000000089 -1 -5.6543194337129189e-16 
1 6.2831853071795862 -1.4142135623730936 -1 -3.5339496460705744e-16 
1 0 -0.75000000000000044 1 1.4135798584282297e-16 
1 6.2831853071795862 0.75000000000000089 -1 -5.6543194337129189e-16 
1 0 0 0 1 
1 6.2831853071795862 0 0 1 
1 0 -12.75 1 0 
1 1.5707963267948966 0 -1 0 
1 0 -12.75 1 0 
1 7.8539816339744828 0 -1 0 
1 3.1415926535897931 0 0 -1 
1 3.1415926535897931 0 0 -1 
1 0 12.75 1 0 
1 1.5707963267948966 0 1 0 
1 0 12.75 1 0 
1 1.5707963267948966 0 1 0 
1 3.1415926535897931 0 0 1 
1 3.1415926535897931 0 0 1 
1 1.5707963267948966 0 1 0 
1 0 12.75 1 0 
1 6.2831853071795862 6.2831853071795862 0 -1 
1 0 6.2831853071795862 0 -1 
1 1.5707963267948966 1.5707963267948966 1 0 
1 0 -0.625 1 0 
1 1.5707963267948966 1.5707963267948966 1 0 
1 0 -0.625 1 0 
1 6.2831853071795862 0 0 -1 
1 0 0 0 -1 
1 0 0.375 1 0 
1 3.1415926535897931 0 0 1 
1 3.1415926535897931 0 0 1 
1 0 -0.625 1 0 
1 -4.7123889803846897 1.5707963267948966 1 0 
1 3.1415926535897931 0 0 1 
1 3.1415926535897931 0 0 1 
1 7.8539816339744828 0 -1 0 
1 0 -12.75 1 0 
1 6.2831853071795862 6.2831853071795862 0 -1 
1 0 6.2831853071795862 0 -1 
1 1.5707963267948966 1.5707963267948966 1 0 
1 0 -0.625 1 0 
1 1.5707963267948966 1.5707963267948966 1 0 
1 0 -0.625 1 0 
1 6.2831853071795862 0 0 -1 
1 0 0 0 -1 
1 0 0.375 1 0 
1 3.1415926535897931 0 0 1 
1 3.1415926535897931 0 0 1 
1 0 -0.625 1 0 
1 -4.7123889803846897 1.5707963267948966 1 0 
1 0 -0.625 1 0 
1 1.5707963267948966 1.5707963267948966 1 0 
1 0 0.375 1 0 
1 7.8539816339744828 0 -1 0 
1 0 -12.75 1 0 
1 0 -0.625 1 0 
1 1.5707963267948966 1.5707963267948966 1 0 
1 0 0.375 1 0 
1 -4.7123889803846897 0 1 0 
1 0 12.75 1 0 
Curves 154
2 -10.5 -3.5 7.5 6.12303176911189e-17 -1 0 1 6.12303176911189e-17 0 -0 0 1 2.75
1 -13.25 -4.25 7.5 6.12303176911189e-17 -1 0 
2 -10.5 -5 7.5 3.4540271877227098e-16 1 0 1 -3.4540271877227098e-16 0 0 0 -1 2.75
1 -7.75 -4.25 7.5 -6.12303176911189e-17 1 -0 
2 -10.5 -1.5 7.5 0 -1 0 1 0 0 -0 0 1 4.75
1 -14.25 -2.5 7.5 0.70710678118654802 -0.70710678118654702 -1.6747652892626899e-16 
1 -6.75 -2.5 7.5 0.70710678118654702 0.70710678118654802 -1.6747652892626899e-16 
2 -10.5 -3.5 20.5 6.12303176911189e-17 -1 0 1 6.12303176911189e-17 0 -0 0 1 2.75
1 -13.25 -4.25 20.5 6.12303176911189e-17 -1 0 
2 -10.5 -5 20.5 3.4540271877227098e-16 1 0 1 -3.4540271877227098e-16 0 0 0 -1 2.75
1 -7.75 -4.25 20.5 -6.12303176911189e-17 1 -0 
2 -10.5 -1.5 20.5 0 -1 0 1 0 0 -0 0 1 4.75
1 -14.25 -2.5 20.5 0.70710678118654802 -0.70710678118654702 -0 
1 -6.75 -2.5 20.5 0.70710678118654702 0.70710678118654802 0 
2 0 0 10.58 0 0 -1 1 0 0 0 -1 0 2.5499999999999998
1 -2.5499999999999998 3.1227462022470599e-16 14 -0 0 1 
2 0 0 18.420000000000002 0 0 1 1 0 -0 -0 1 0 2.5499999999999998
1 2.5499999999999998 -3.1227462022470599e-16 14 -0 0 -1 
1 -5 7.22517748755203e-16 14.5 -0 -0 -1 
2 0 1.10214571844014e-16 10.58 0 0 1 1 0 -0 -0 1 0 5
1 -4.7696960070847298 -1.5 1 0 0 1 
2 0 1.10214571844014e-16 18.420000000000002 0 0 -1 1 0 0 0 -1 0 5
1 5 -5.0208860506717495e-16 14.5 0 0 1 
2 0 1.10214571844014e-16 10.58 0 0 1 1 0 -0 -0 1 0 5
2 0 1.10214571844014e-16 18.420000000000002 0 0 -1 1 0 0 0 -1 0 5
2 0 0 10.58 0 0 -1 1 0 0 0 -1 0 2.5499999999999998
1 -5.6924240017711796 -1.5 10.58 -1 0 0 
2 0 1.10214571844014e-16 10.58 0 0 1 1 0 -0 -0 1 0 5
1 -4.5 -5 10.58 1 -3.4540271877227098e-16 0 
1 -5 0 10.58 0 -1 0 
2 0 1.10214571844014e-16 18.420000000000002 0 0 -1 1 0 0 0 -1 0 5
1 9.7725075405400601e-16 -5 1 0 0 1 
1 -5 -1.5 11.855 0 0 -1 
1 -5 -0.89782684254364697 27 0 1 0 
1 -5 -5 11.855 0 0 1 
1 -5 0 18.420000000000002 0 1 0 
2 0 0 18.420000000000002 0 0 1 1 0 -0 -0 1 0 2.5499999999999998
1 -5.6924240017711796 -1.5 18.420000000000002 1 0 0 
1 -4.5 -5 18.420000000000002 -1 3.4540271877227098e-16 0 
1 -18 -1.5 27 1 0 0 
1 -18 -5 27 0 1 0 
1 9.7725075405400601e-16 -5 27 -1 3.4540271877227098e-16 0 
1 -5 -1.5 5.54 0 0 -1 
1 -18 -1.5 1 1 0 0 
1 -18 -1.5 1 0 0 1 
2 -10.5 -1.5 7.5 0 -1 0 1 0 0 -0 0 1 4.75
2 -10.5 -1.5 20.5 0 -1 0 1 0 0 -0 0 1 4.75
1 -5 -5 5.54 0 0 1 
1 -5 -0.89782684254364697 1 0 -1 0 
2 -10.5 -3.5 20.5 6.12303176911189e-17 -1 0 1 6.12303176911189e-17 0 -0 0 1 2.75
2 -10.5 -5 20.5 3.4540271877227098e-16 1 0 1 -3.4540271877227098e-16 0 0 0 -1 2.75
2 -10.5 -3.5 7.5 6.12303176911189e-17 -1 0 1 6.12303176911189e-17 0 -0 0 1 2.75
2 -10.5 -5 7.5 3.4540271877227098e-16 1 0 1 -3.4540271877227098e-16 0 0 0 -1 2.75
1 -18 -5 1 0 1 0 
1 -18 -5 1 0 0 1 
1 9.7725075405400601e-16 -5 1 -1 3.4540271877227098e-16 0 
2 10.5 -3.5 20.5 -6.12303176911189e-17 -1 -7.4983036091106899e-33 -1 6.12303176911189e-17 -1.22460635382238e-16 1.22460635382238e-16 -1.7789921910373654e-47 -1 2.75
1 13.25 -4.25 20.5 -6.12303176911189e-17 -1 -7.4983036091106899e-33 
2 10.5 -5 20.5 -3.4540271877227098e-16 1 -4.22982364036047e-32 -1 -3.4540271877227098e-16 -1.22460635382238e-16 -1.22460635382238e-16 -6.56858655152258e-47 1 2.75
1 7.75 -4.25 20.5 6.12303176911189e-17 1 7.4983036091106899e-33 
2 10.5 -1.5 20.5 0 -1 -0 -1 0 -1.22460635382238e-16 1.22460635382238e-16 0 -1 4.75
1 14.25 -2.5 20.5 -0.70710678118654702 -0.70710678118654802 -5.3021013293977297e-33 
1 6.75 -2.5 20.5 -0.70710678118654702 0.70710678118654802 5.3021013293977297e-33 
2 10.5 -3.5 7.5 -6.12303176911189e-17 -1 -7.4983036091106899e-33 -1 6.12303176911189e-17 -1.22460635382238e-16 1.22460635382238e-16 -1.7789921910373654e-47 -1 2.75
1 13.25 -4.25 7.5 -6.12303176911189e-17 -1 -7.4983036091106899e-33 
2 10.5 -5 7.5 -3.4540271877227098e-16 1 -4.22982364036047e-32 -1 -3.4540271877227098e-16 -1.22460635382238e-16 -1.22460635382238e-16 -6.56858655152258e-47 1 2.75
1 7.75 -4.25 7.5 6.12303176911189e-17 1 7.4983036091106899e-33 
2 10.5 -1.5 7.5 0 -1 -0 -1 0 -1.22460635382238e-16 1.22460635382238e-16 0 -1 4.75
1 14.25 -2.5 7.5 -0.70710678118654802 -0.70710678118654702 -5.3021013293977297e-33 
1 6.75 -2.5 7.5 -0.70710678118654702 0.70710678118654802 5.3021013293977297e-33 
2 -1.0507122515795999e-15 0 9.5800000000000001 -1.22460635382238e-16 0 1 -1 0 -1.22460635382238e-16 -0 -1 0 2.5499999999999998
1 2.5499999999999998 3.1227462022470599e-16 5.29 1.22460635382238e-16 0 -1 
2 0 0 1 -1.22460635382238e-16 0 1 -1 0 -1.22460635382238e-16 -0 -1 0 2.5499999999999998
1 -2.5499999999999998 -3.1227462022470599e-16 5.29 -1.22460635382238e-16 0 1 
2 -3.1839765199381801e-15 0 27 1.22460635382238e-16 0 -1 -1 0 -1.22460635382238e-16 0 1 0 2.5499999999999998
1 2.5499999999999998 3.1227462022470599e-16 23.079999999999998 1.22460635382238e-16 0 -1 
2 -2.22388513854144e-15 0 19.16 -0 0 -1 -1 0 0 0 1 0 2.5499999999999998
1 -2.5499999999999998 -3.1227462022470599e-16 23.079999999999998 -1.22460635382238e-16 0 1 
1 5 7.22517748755203e-16 5.29 -1.22460635382238e-16 -0 1 
2 -1.0507122515795999e-15 1.10214571844014e-16 9.5800000000000001 1.22460635382238e-16 0 -1 -1 0 -1.22460635382238e-16 0 1 0 5
1 4.7696960070847298 -1.5 27 1.22460635382238e-16 0 -1 
2 0 1.10214571844014e-16 1 -1.22460635382238e-16 0 1 -1 0 -1.22460635382238e-16 -0 -1 0 5
1 -5 -5.0208860506717495e-16 5.29 1.22460635382238e-16 0 -1 
2 -1.0507122515795999e-15 1.10214571844014e-16 9.5800000000000001 1.22460635382238e-16 0 -1 -1 0 -1.22460635382238e-16 0 1 0 5
2 0 1.10214571844014e-16 1 -1.22460635382238e-16 0 1 -1 0 -1.22460635382238e-16 -0 -1 0 5
1 5 7.22517748755203e-16 27 -1.22460635382238e-16 -0 1 
2 -3.1839765199381801e-15 1.10214571844014e-16 27 1.22460635382238e-16 0 -1 -1 0 -1.22460635382238e-16 0 1 0 5
1 4.7696960070847298 -1.5 27 1.22460635382238e-16 0 -1 
2 -2.22388513854144e-15 1.10214571844014e-16 19.16 0 0 1 -1 0 0 0 -1 0 5
1 -5 -5.0208860506717495e-16 27 1.22460635382238e-16 0 -1 
2 -3.1839765199381801e-15 1.10214571844014e-16 27 1.22460635382238e-16 0 -1 -1 0 -1.22460635382238e-16 0 1 0 5
2 -2.22388513854144e-15 1.10214571844014e-16 19.16 0 0 1 -1 0 0 0 -1 0 5
1 5.6924240017711796 -1.5 19.16 -1 0 0 
1 5 0 19.16 0 1 0 
1 4.5 -5 19.16 1 3.4540271877227098e-16 0 
2 -2.22388513854144e-15 1.10214571844014e-16 19.16 0 0 1 -1 0 0 0 -1 0 5
2 -2.22388513854144e-15 0 19.16 -0 0 -1 -1 0 0 0 1 0 2.5499999999999998
1 -4.1612272739921896e-15 -5 27 1.22460635382238e-16 0 -1 
2 -3.1839765199381801e-15 1.10214571844014e-16 27 1.22460635382238e-16 0 -1 -1 0 -1.22460635382238e-16 0 1 0 5
1 5 -1.5 22.829999999999998 0 0 1 
1 5 0 9.5800000000000001 0 -1 0 
1 5 -5 22.829999999999998 -0 -4.22982364036047e-32 -1 
2 -1.0507122515795999e-15 1.10214571844014e-16 9.5800000000000001 1.22460635382238e-16 0 -1 -1 0 -1.22460635382238e-16 0 1 0 5
1 4.5 -5 9.5800000000000001 -1 -3.4540271877227098e-16 -1.22460635382238e-16 
1 5.6924240017711796 -1.5 9.5800000000000001 1 0 1.22460635382238e-16 
2 -1.0507122515795999e-15 0 9.5800000000000001 -1.22460635382238e-16 0 1 -1 0 -1.22460635382238e-16 -0 -1 0 2.5499999999999998
1 18 -1.5 27 -1 0 -1.22460635382238e-16 
1 18 -1.5 27 1.22460635382238e-16 0 -1 
1 18 -1.5 1 -1 0 -1.22460635382238e-16 
2 10.5 -1.5 20.5 0 -1 -0 -1 0 -1.22460635382238e-16 1.22460635382238e-16 0 -1 4.75
2 10.5 -1.5 7.5 0 -1 -0 -1 0 -1.22460635382238e-16 1.22460635382238e-16 0 -1 4.75
2 0 1.10214571844014e-16 1 -1.22460635382238e-16 0 1 -1 0 -1.22460635382238e-16 -0 -1 0 5
1 -4.1612272739921896e-15 -5 27 1.22460635382238e-16 0 -1 
2 -3.1839765199381801e-15 0 27 1.22460635382238e-16 0 -1 -1 0 -1.22460635382238e-16 0 1 0 2.5499999999999998
2 0 0 1 -1.22460635382238e-16 0 1 -1 0 -1.22460635382238e-16 -0 -1 0 2.5499999999999998
2 10.5 -3.5 7.5 -6.12303176911189e-17 -1 -7.4983036091106899e-33 -1 6.12303176911189e-17 -1.22460635382238e-16 1.22460635382238e-16 -1.7789921910373654e-47 -1 2.75
2 10.5 -5 7.5 -3.4540271877227098e-16 1 -4.22982364036047e-32 -1 -3.4540271877227098e-16 -1.22460635382238e-16 -1.22460635382238e-16 -6.56858655152258e-47 1 2.75
2 10.5 -3.5 20.5 -6.12303176911189e-17 -1 -7.4983036091106899e-33 -1 6.12303176911189e-17 -1.22460635382238e-16 1.22460635382238e-16 -1.7789921910373654e-47 -1 2.75
2 10.5 -5 20.5 -3.4540271877227098e-16 1 -4.22982364036047e-32 -1 -3.4540271877227098e-16 -1.22460635382238e-16 -1.22460635382238e-16 -6.56858655152258e-47 1 2.75
1 18 -5 1 0 1 0 
1 18 -5 27 0 1 0 
1 18 -5 27 1.22460635382238e-16 0 -1 
1 -9.7725075405400601e-16 -5 1 1 3.4540271877227098e-16 1.22460635382238e-16 
1 -4.1612272739921896e-15 -5 27 1 3.4540271877227098e-16 1.22460635382238e-16 
1 2.5 -3.0615158845559402e-16 14 0 0 1 
2 0 -7.6537897113898603e-17 1.25 0 0 1 1 0 -0 -0 1 0 2.5
2 0 -7.6537897113898603e-17 1.25 0 0 1 1 0 -0 -0 1 0 2.5
1 -2.5 3.0615158845559402e-16 14 -0 -0 -1 
2 0 -7.6537897113898603e-17 26.75 0 0 1 1 0 -0 -0 1 0 2.5
2 0 -7.6537897113898603e-17 26.75 0 0 1 1 0 -0 -0 1 0 2.5
2 1.5307579422779701e-16 1.25 26.75 1 -1.22460635382238e-16 7.4983036091106899e-33 1.22460635382238e-16 1 -6.12303176911189e-17 1.7789921910373654e-47 6.12303176911189e-17 1 1.25
2 0 -7.6537897113898603e-17 26.75 0 0 1 1 0 -0 -0 1 0 2.5
2 -1.5307579422779701e-16 -1.25 26.75 1 -1.22460635382238e-16 7.4983036091106899e-33 -1.22460635382238e-16 -1 6.12303176911189e-17 -1.7789921910373654e-47 -6.12303176911189e-17 -1 1.25
2 0 0 28 -0 6.12303176911189e-17 1 1 0 0 0 1 -6.12303176911189e-17 1.25
2 0 0 28 -0 6.12303176911189e-17 1 1 0 0 0 1 -6.12303176911189e-17 1.25
1 1.25 -1.1480684567084799e-16 28.625 -0 -6.12303176911189e-17 -1 
2 0 6.12303176911189e-17 29 0 0 1 1 0 -0 -0 1 0 1.25
1 -1.25 1.91344742784746e-16 28.625 0 6.12303176911189e-17 1 
2 0 0 28 -0 6.12303176911189e-17 1 1 0 0 0 1 -6.12303176911189e-17 1.25
2 1.5307579422779701e-16 -1.25 1.25 1 1.22460635382238e-16 7.4983036091106899e-33 1.22460635382238e-16 -1 -6.12303176911189e-17 -1.7789921910373654e-47 6.12303176911189e-17 -1 1.25
2 0 -7.6537897113898603e-17 1.25 0 0 1 1 0 -0 -0 1 0 2.5
2 -1.5307579422779701e-16 1.25 1.25 1 1.22460635382238e-16 7.4983036091106899e-33 -1.22460635382238e-16 1 6.12303176911189e-17 1.7789921910373654e-47 -6.12303176911189e-17 1 1.25
2 0 0 0 0 6.12303176911189e-17 -1 1 0 0 0 -1 -6.12303176911189e-17 1.25
2 0 0 0 0 6.12303176911189e-17 -1 1 0 0 0 -1 -6.12303176911189e-17 1.25
1 1.25 1.91344742784746e-16 -0.625 -0 -6.12303176911189e-17 1 
2 0 6.12303176911189e-17 -1 0 0 -1 1 0 0 0 -1 0 1.25
1 -1.25 -1.1480684567084799e-16 -0.625 0 6.12303176911189e-17 -1 
2 0 0 0 0 6.12303176911189e-17 -1 1 0 0 0 -1 -6.12303176911189e-17 1.25
2 0 0 0 0 6.12303176911189e-17 -1 1 0 0 0 -1 -6.12303176911189e-17 1.25
2 0 6.12303176911189e-17 -1 0 0 -1 1 0 0 0 -1 0 1.25
2 0 -7.6537897113898603e-17 1.25 0 0 1 1 0 -0 -0 1 0 2.5
2 0 0 28 -0 6.12303176911189e-17 1 1 0 0 0 1 -6.12303176911189e-17 1.25
2 0 6.12303176911189e-17 29 0 0 1 1 0 -0 -0 1 0 1.25
2 0 -7.6537897113898603e-17 26.75 0 0 1 1 0 -0 -0 1 0 2.5
Polygon3D 0
PolygonOnTriangulations 0
Surfaces 60
2 -10.5 -4.25 7.5 6.12303176911189e-17 -1 0 1 6.12303176911189e-17 0 -0 0 1 2.75
3 -10.5 -2.5 7.5 -6.12303176911189e-17 1 -0 1 6.12303176911189e-17 0 0 0 -1 3.75
0.78539816339744795
2 -10.5 -4.25 7.5 6.12303176911189e-17 -1 0 1 6.12303176911189e-17 0 -0 0 1 2.75
1 -9 -5 1 -3.4540271877227098e-16 -1 0 1 -3.4540271877227098e-16 0 0 0 1 
1 -11.3848480035424 -1.5 1 0 1 0 -1 0 0 0 -0 1 
3 -10.5 -2.5 7.5 -6.12303176911189e-17 1 -0 1 6.12303176911189e-17 0 0 0 -1 3.75
0.78539816339744795
2 -10.5 -4.25 20.5 6.12303176911189e-17 -1 0 1 6.12303176911189e-17 0 -0 0 1 2.75
3 -10.5 -2.5 20.5 -6.12303176911189e-17 1 -0 1 6.12303176911189e-17 0 0 0 -1 3.75
0.78539816339744795
2 -10.5 -4.25 20.5 6.12303176911189e-17 -1 0 1 6.12303176911189e-17 0 -0 0 1 2.75
3 -10.5 -2.5 20.5 -6.12303176911189e-17 1 -0 1 6.12303176911189e-17 0 0 0 -1 3.75
0.78539816339744795
2 0 0 14 0 0 1 1 0 -0 -0 1 0 2.5499999999999998
1 0 0 10.58 0 0 1 1 0 -0 -0 1 0 
2 0 0 14 0 0 1 1 0 -0 -0 1 0 2.5499999999999998
1 0 0 18.420000000000002 0 0 1 1 0 -0 -0 1 0 
2 0 1.10214571844014e-16 1 0 0 1 1 0 -0 -0 1 0 5
2 0 1.10214571844014e-16 1 0 0 1 1 0 -0 -0 1 0 5
2 0 1.10214571844014e-16 1 0 0 1 1 0 -0 -0 1 0 5
1 -5 0 5.29 1 0 0 0 0 -1 -0 1 0 
1 -5 0 22.710000000000001 1 0 0 0 0 -1 -0 1 0 
1 -6.1102616370920098 -1.79565368508729 27 0 0 1 1 0 -0 -0 1 0 
1 -18 -3.25 1 -1 -0 0 0 -1 -0 0 0 1 
1 -6.1102616370920098 -1.79565368508729 1 0 0 1 1 0 -0 -0 1 0 
2 10.5 -4.25 20.5 -6.12303176911189e-17 -1 -7.4983036091106899e-33 -1 6.12303176911189e-17 -1.22460635382238e-16 1.22460635382238e-16 -1.7789921910373654e-47 -1 2.75
3 10.5 -2.5 20.5 6.12303176911189e-17 1 7.4983036091106899e-33 -1 6.12303176911189e-17 -1.22460635382238e-16 -1.22460635382238e-16 1.7789921910373654e-47 1 3.75
0.78539816339744795
2 10.5 -4.25 20.5 -6.12303176911189e-17 -1 -7.4983036091106899e-33 -1 6.12303176911189e-17 -1.22460635382238e-16 1.22460635382238e-16 -1.7789921910373654e-47 -1 2.75
1 9 -5 27 3.4540271877227098e-16 -1 4.22982364036047e-32 -1 -3.4540271877227098e-16 -1.22460635382238e-16 1.22460635382238e-16 6.56858655152258e-47 -1 
1 11.3848480035424 -1.5 27 -0 1 0 1 0 1.22460635382238e-16 1.22460635382238e-16 0 -1 
3 10.5 -2.5 20.5 6.12303176911189e-17 1 7.4983036091106899e-33 -1 6.12303176911189e-17 -1.22460635382238e-16 -1.22460635382238e-16 1.7789921910373654e-47 1 3.75
0.78539816339744795
2 10.5 -4.25 7.5 -6.12303176911189e-17 -1 -7.4983036091106899e-33 -1 6.12303176911189e-17 -1.22460635382238e-16 1.22460635382238e-16 -1.7789921910373654e-47 -1 2.75
3 10.5 -2.5 7.5 6.12303176911189e-17 1 7.4983036091106899e-33 -1 6.12303176911189e-17 -1.22460635382238e-16 -1.22460635382238e-16 1.7789921910373654e-47 1 3.75
0.78539816339744795
2 10.5 -4.25 7.5 -6.12303176911189e-17 -1 -7.4983036091106899e-33 -1 6.12303176911189e-17 -1.22460635382238e-16 1.22460635382238e-16 -1.7789921910373654e-47 -1 2.75
3 10.5 -2.5 7.5 6.12303176911189e-17 1 7.4983036091106899e-33 -1 6.12303176911189e-17 -1.22460635382238e-16 -1.22460635382238e-16 1.7789921910373654e-47 1 3.75
0.78539816339744795
2 -1.59198825996909e-15 0 14 1.22460635382238e-16 0 -1 -1 0 -1.22460635382238e-16 0 1 0 2.5499999999999998
1 -1.0507122515795999e-15 0 9.5800000000000001 1.22460635382238e-16 0 -1 -1 0 -1.22460635382238e-16 0 1 0 
2 -1.59198825996909e-15 0 14 1.22460635382238e-16 0 -1 -1 0 -1.22460635382238e-16 0 1 0 2.5499999999999998
1 6.1102616370920098 -1.79565368508729 1 1.22460635382238e-16 0 -1 -1 0 -1.22460635382238e-16 0 1 0 
2 -1.59198825996909e-15 0 14 1.22460635382238e-16 0 -1 -1 0 -1.22460635382238e-16 0 1 0 2.5499999999999998
1 6.1102616370920098 -1.79565368508729 27 1.22460635382238e-16 0 -1 -1 0 -1.22460635382238e-16 0 1 0 
2 -1.59198825996909e-15 0 14 1.22460635382238e-16 0 -1 -1 0 -1.22460635382238e-16 0 1 0 2.5499999999999998
1 0 0 19.16 0 0 1 1 0 -0 -0 1 0 
2 -3.1839765199381801e-15 1.10214571844014e-16 27 1.22460635382238e-16 0 -1 -1 0 -1.22460635382238e-16 0 1 0 5
2 -3.1839765199381801e-15 1.10214571844014e-16 27 1.22460635382238e-16 0 -1 -1 0 -1.22460635382238e-16 0 1 0 5
2 -3.1839765199381801e-15 1.10214571844014e-16 27 1.22460635382238e-16 0 -1 -1 0 -1.22460635382238e-16 0 1 0 5
2 -3.1839765199381801e-15 1.10214571844014e-16 27 1.22460635382238e-16 0 -1 -1 0 -1.22460635382238e-16 0 1 0 5
2 -3.1839765199381801e-15 1.10214571844014e-16 27 1.22460635382238e-16 0 -1 -1 0 -1.22460635382238e-16 0 1 0 5
2 -3.1839765199381801e-15 1.10214571844014e-16 27 1.22460635382238e-16 0 -1 -1 0 -1.22460635382238e-16 0 1 0 5
1 5 0 13.869999999999999 -1 0 -1.22460635382238e-16 -1.22460635382238e-16 0 1 0 1 0 
1 18 -3.25 27 1 0 1.22460635382238e-16 0 -1 0 1.22460635382238e-16 0 -1 
2 0 0 14 0 0 1 1 0 -0 -0 1 0 2.5
2 0 0 14 0 0 1 1 0 -0 -0 1 0 2.5
5 0 -7.6537897113898603e-17 1.25 0 6.12303176911189e-17 -1 0 1 6.12303176911189e-17 1 -0 0 1.25 1.25
5 0 -7.6537897113898603e-17 1.25 0 6.12303176911189e-17 -1 0 1 6.12303176911189e-17 1 -0 0 1.25 1.25
5 0 -7.6537897113898603e-17 26.75 0 6.12303176911189e-17 1 0 -1 6.12303176911189e-17 1 0 -0 1.25 1.25
5 0 -7.6537897113898603e-17 26.75 0 6.12303176911189e-17 1 0 -1 6.12303176911189e-17 1 0 -0 1.25 1.25
2 0 3.8268948556949302e-17 28.625 -0 6.12303176911189e-17 1 1 0 0 0 1 -6.12303176911189e-17 1.25
2 0 3.8268948556949302e-17 28.625 -0 6.12303176911189e-17 1 1 0 0 0 1 -6.12303176911189e-17 1.25
1 0 0 29 0 0 1 1 0 -0 -0 1 0 
2 0 3.8268948556949302e-17 -0.625 0 6.12303176911189e-17 -1 1 0 0 0 -1 -6.12303176911189e-17 1.25
2 0 3.8268948556949302e-17 -0.625 0 6.12303176911189e-17 -1 1 0 0 0 -1 -6.12303176911189e-17 1.25
1 0 0 -1 0 0 -1 -1 0 0 0 1 0 
Triangulations 0

TShapes 395
Ve
1e-07
-7.75 -3.5 7.5
0 0

0101101
*
Ve
1e-07
-13.25 -3.5 7.5
0 0

0101101
*
Ed
 1e-07 1 1 0
1  1 0 0 3.14159265358979
2  1 1 0 0 3.14159265358979
2  2 2 0 0 3.14159265358979
4 C0 1 0 2 0
0

0101000
+395 0 -394 0 *
Ve
1e-07
-13.25 -5 7.5
0 0

0101101
*
Ed
 1e-07 1 1 0
1  2 0 -0.75 0.75
2  3 1 0 -0.75 0.75
2  4 3 0 -0.75 0.75
4 CN 1 0 3 0
0

0101000
+394 0 -392 0 *
Ve
1e-07
-7.75 -5 7.5
0 0

0101101
*
Ed
 1e-07 1 1 0
1  3 0 3.14159265358979 6.28318530717959
2  5 1 0 3.14159265358979 6.28318530717959
4 C0 1 0 4 0
0

0101000
+392 0 -390 0 *
Ed
 1e-07 1 1 0
1  4 0 -0.75 0.75
2  6 1 0 -0.75 0.75
2  7 3 0 -0.75 0.75
4 CN 1 0 3 0
0

0101000
+390 0 -395 0 *
Wi

0101100
+393 0 +391 0 +389 0 +388 0 *
Fa
0  1e-07 1 0

0111000
+387 0 *
Ve
1e-07
-5.75 -1.5 7.5
0 0

0101101
*
Ve
1e-07
-15.25 -1.5 7.5
0 0

0101101
*
Ed
 1e-07 1 1 0
1  5 0 0 3.14159265358979
2  8 2 0 0 3.14159265358979
4 C0 2 0 5 0
0

0101000
+385 0 -384 0 *
Ed
 1e-07 1 1 0
1  6 0 -1.41421356237309 1.41421356237309
2  9 2 0 -1.41421356237309 1.41421356237309
2  10 6 0 -1.41421356237309 1.41421356237309
4 CN 2 0 6 0
0

0101000
+384 0 -394 0 *
Ed
 1e-07 1 1 0
1  7 0 -1.41421356237309 1.41421356237309
2  11 2 0 -1.41421356237309 1.41421356237309
2  12 6 0 -1.41421356237309 1.41421356237309
4 CN 2 0 6 0
0

0101000
+395 0 -385 0 *
Wi

0101100
+383 0 +382 0 -393 0 +381 0 *
Fa
0  1e-07 2 0

0111000
+380 0 *
Ve
1e-07
-7.75 -3.5 20.5
0 0

0101101
*
Ve
1e-07
-13.25 -3.5 20.5
0 0

0101101
*
Ed
 1e-07 1 1 0
1  8 0 0 3.14159265358979
2  13 7 0 0 3.14159265358979
2  14 8 0 0 3.14159265358979
4 C0 7 0 8 0
0

0101000
+378 0 -377 0 *
Ve
1e-07
-13.25 -5 20.5
0 0

0101101
*
Ed
 1e-07 1 1 0
1  9 0 -0.75 0.75
2  15 7 0 -0.75 0.75
2  16 9 0 -0.75 0.75
4 CN 7 0 9 0
0

0101000
+377 0 -375 0 *
Ve
1e-07
-7.75 -5 20.5
0 0

0101101
*
Ed
 1e-07 1 1 0
1  10 0 3.14159265358979 6.28318530717959
2  17 7 0 3.14159265358979 6.28318530717959
4 C0 7 0 4 0
0

0101000
+375 0 -373 0 *
Ed
 1e-07 1 1 0
1  11 0 -0.75 0.75
2  18 7 0 -0.75 0.75
2  19 9 0 -0.75 0.75
4 CN 7 0 9 0
0

0101000
+373 0 -378 0 *
Wi

0101100
+376 0 +374 0 +372 0 +371 0 *
Fa
0  1e-07 7 0

0111000
+370 0 *
Ve
1e-07
-5.75 -1.5 20.5
0 0

0101101
*
Ve
1e-07
-15.25 -1.5 20.5
0 0

0101101
*
Ed
 1e-07 1 1 0
1  12 0 0 3.14159265358979
2  20 8 0 0 3.14159265358979
4 C0 8 0 5 0
0

0101000
+368 0 -367 0 *
Ed
 1e-07 1 1 0
1  13 0 -1.41421356237309 1.41421356237309
2  21 8 0 -1.41421356237309 1.41421356237309
2  22 10 0 -1.41421356237309 1.41421356237309
4 CN 8 0 10 0
0

0101000
+367 0 -377 0 *
Ed
 1e-07 1 1 0
1  14 0 -1.41421356237309 1.41421356237309
2  23 8 0 -1.41421356237309 1.41421356237309
2  24 10 0 -1.41421356237309 1.41421356237309
4 CN 8 0 10 0
0

0101000
+378 0 -368 0 *
Wi

0101100
+366 0 +365 0 -376 0 +364 0 *
Fa
0  1e-07 8 0

0111000
+363 0 *
Ve
1e-07
-2.55 3.12274620224706e-16 10.58
0 0

0101101
*
Ve
1e-07
2.55 -3.12274620224706e-16 10.58
0 0

0101101
*
Ed
 1e-07 1 1 0
1  15 0 3.14159265358979 6.28318530717959
2  25 11 0 3.14159265358979 6.28318530717959
4 C0 11 0 12 0
0

0101000
+361 0 -360 0 *
Ve
1e-07
-2.55 -3.12274620224706e-16 18.42
0 0

0101101
*
Ed
 1e-07 1 1 0
1  16 0 -3.42 4.42
2  26 11 0 -3.42 4.42
2  27 13 0 -3.42 4.42
4 CN 11 0 13 0
0

0101000
+361 0 -358 0 *
Ve
1e-07
2.55 -3.12274620224706e-16 18.42
0 0

0101101
*
Ed
 1e-07 1 1 0
1  17 0 0 3.14159265358979
2  28 11 0 0 3.14159265358979
4 C0 11 0 14 0
0

0101000
+356 0 -358 0 *
Ed
 1e-07 1 1 0
1  18 0 -4.42 3.42
2  29 11 0 -4.42 3.42
2  30 13 0 -4.42 3.42
4 CN 11 0 13 0
0

0101000
+356 0 -360 0 *
Wi

0101100
-359 0 +357 0 -355 0 +354 0 *
Fa
0  1e-07 11 0

0111000
+353 0 *
Ve
1e-07
-5 7.22517748755203e-16 18.42
0 0

0101101
*
Ve
1e-07
-5 7.22517748755203e-16 10.58
0 0

0101101
*
Ed
 1e-07 1 1 0
1  19 0 -3.92 3.92
2  31 15 0 -3.92 3.92
2  32 16 0 -3.92 3.92
4 CN 15 0 16 0
0

0101000
+351 0 -350 0 *
Ve
1e-07
-4.76969600708473 -1.5 10.58
0 0

0101101
*
Ed
 1e-07 1 1 0
1  20 0 3.14159265358979 3.44628530760519
2  33 15 0 3.14159265358979 3.44628530760519
4 C0 15 0 12 0
0

0101000
+350 0 -348 0 *
Ve
1e-07
-4.76969600708473 -1.5 18.42
0 0

0101101
*
Ed
 1e-07 1 1 0
1  21 0 9.58 17.42
2  34 15 0 9.58 17.42
4 C0 15 0 5 0
0

0101000
+348 0 -346 0 *
Ed
 1e-07 1 1 0
1  22 0 2.8368999995744 3.14159265358979
2  35 15 0 2.8368999995744 3.14159265358979
4 C0 15 0 14 0
0

0101000
+346 0 -351 0 *
Wi

0101100
+349 0 +347 0 +345 0 +344 0 *
Fa
0  1e-07 15 0

0111000
+343 0 *
Ve
1e-07
5 -5.02088605067175e-16 10.58
0 0

0101101
*
Ve
1e-07
5 -5.02088605067175e-16 18.42
0 0

0101101
*
Ed
 1e-07 1 1 0
1  23 0 -3.92 3.92
2  36 16 0 -3.92 3.92
2  37 17 0 -3.92 3.92
4 CN 16 0 17 0
0

0101000
+341 0 -340 0 *
Ed
 1e-07 1 1 0
1  24 0 0 3.14159265358979
2  38 16 0 0 3.14159265358979
4 C0 16 0 12 0
0

0101000
+341 0 -350 0 *
Ed
 1e-07 1 1 0
1  25 0 3.14159265358979 6.28318530717959
2  39 16 0 3.14159265358979 6.28318530717959
4 C0 16 0 14 0
0

0101000
+351 0 -340 0 *
Wi

0101100
-339 0 +338 0 -349 0 +337 0 *
Fa
0  1e-07 16 0

0111000
+336 0 *
Ed
 1e-07 1 1 0
1  26 0 0 3.14159265358979
2  40 13 0 0 3.14159265358979
4 C0 12 0 13 0
0

0101000
+360 0 -361 0 *
Wi

0101100
-359 0 -334 0 *
Ve
1e-07
-5 -1.5 10.58
0 0

0101101
*
Ed
 1e-07 1 1 0
1  27 0 -0.92272799468645 -0.69242400177118
4 C0 12 0 5 0
0

0101000
+348 0 -332 0 *
Ve
1e-07
-3.1214948387574e-16 -5 10.58
0 0

0101101
*
Ed
 1e-07 1 1 0
1  28 0 4.71238898038469 6.28318530717959
2  41 17 0 4.71238898038469 6.28318530717959
4 C0 12 0 17 0
0

0101000
+330 0 -341 0 *
Ve
1e-07
-5 -5 10.58
0 0

0101101
*
Ed
 1e-07 1 1 0
1  29 0 -0.5 4.5
4 C0 12 0 4 0
0

0101000
+328 0 -330 0 *
Ed
 1e-07 1 1 0
1  30 0 1.5 5
4 C0 12 0 18 0
0

0101000
+332 0 -328 0 *
Wi

0101100
-331 0 -347 0 -338 0 -329 0 -327 0 -326 0 *
Fa
0  1e-07 12 0

0111000
-333 0 -325 0 *
Ve
1e-07
-3.1214948387574e-16 -5 18.42
0 0

0101101
*
Ed
 1e-07 1 1 0
1  31 0 0 1.5707963267949
2  42 17 0 0 1.5707963267949
4 C0 17 0 14 0
0

0101000
+340 0 -323 0 *
Ed
 1e-07 1 1 0
1  32 0 9.58 17.42
2  43 17 0 9.58 17.42
4 G1 17 0 4 0
0

0101000
+330 0 -323 0 *
Wi

0101100
+339 0 +322 0 -321 0 +329 0 *
Fa
0  1e-07 17 0

0111000
+320 0 *
Ve
1e-07
-5 -1.5 27
0 0

0101101
*
Ve
1e-07
-5 -1.5 18.42
0 0

0101101
*
Ed
 1e-07 1 1 0
1  33 0 -15.145 -6.565
4 C0 19 0 5 0
0

0101000
+318 0 -317 0 *
Ve
1e-07
-5 -5 27
0 0

0101101
*
Ed
 1e-07 1 1 0
1  34 0 -4.10217315745635 -0.602173157456353
4 C0 19 0 20 0
0

0101000
+315 0 -318 0 *
Ve
1e-07
-5 -5 18.42
0 0

0101101
*
Ed
 1e-07 1 1 0
1  35 0 6.565 15.145
4 C0 19 0 4 0
0

0101000
+313 0 -315 0 *
Ed
 1e-07 1 1 0
1  36 0 -5 -1.5
4 C0 19 0 14 0
0

0101000
+313 0 -317 0 *
Wi

0101100
-316 0 -314 0 -312 0 +311 0 *
Fa
0  1e-07 19 0

0111000
+310 0 *
Ed
 1e-07 1 1 0
1  37 0 3.14159265358979 6.28318530717959
2  44 13 0 3.14159265358979 6.28318530717959
4 C0 14 0 13 0
0

0101000
+358 0 -356 0 *
Wi

0101100
-308 0 -355 0 *
Ed
 1e-07 1 1 0
1  38 0 0.69242400177118 0.92272799468645
4 C0 14 0 5 0
0

0101000
+317 0 -346 0 *
Ed
 1e-07 1 1 0
1  39 0 -4.5 0.5
4 C0 14 0 4 0
0

0101000
+323 0 -313 0 *
Wi

0101100
-344 0 -306 0 -311 0 -305 0 -322 0 -337 0 *
Fa
0  1e-07 14 0

0111000
+307 0 +304 0 *
Ve
1e-07
-18 -1.5 27
0 0

0101101
*
Ed
 1e-07 1 1 0
1  40 0 0 13
4 C0 20 0 5 0
0

0101000
+302 0 -318 0 *
Ve
1e-07
-18 -5 27
0 0

0101101
*
Ed
 1e-07 1 1 0
1  41 0 0 3.5
4 C0 20 0 21 0
0

0101000
+300 0 -302 0 *
Ed
 1e-07 1 1 0
1  42 0 5 18
4 C0 20 0 4 0
0

0101000
+315 0 -300 0 *
Wi

0101100
+314 0 -301 0 -299 0 -298 0 *
Fa
0  1e-07 20 0

0111000
+297 0 *
Ve
1e-07
-5 -1.5 1
0 0

0101101
*
Ed
 1e-07 1 1 0
1  43 0 -5.04 4.54
4 C0 5 0 18 0
0

0101000
+332 0 -295 0 *
Ve
1e-07
-18 -1.5 1
0 0

0101101
*
Ed
 1e-07 1 1 0
1  44 0 0 13
4 C0 5 0 22 0
0

0101000
+293 0 -295 0 *
Ed
 1e-07 1 1 0
1  45 0 0 26
4 C0 5 0 21 0
0

0101000
+293 0 -302 0 *
Wi

0101100
+294 0 -292 0 +291 0 +301 0 +316 0 +306 0 -345 0 +331 0 *
Ed
 1e-07 1 1 0
1  46 0 3.14159265358979 6.28318530717959
2  45 6 0 3.14159265358979 6.28318530717959
4 C0 5 0 6 0
0

0101000
+384 0 -385 0 *
Wi

0101100
+383 0 +289 0 *
Ed
 1e-07 1 1 0
1  47 0 3.14159265358979 6.28318530717959
2  46 10 0 3.14159265358979 6.28318530717959
4 C0 5 0 10 0
0

0101000
+367 0 -368 0 *
Wi

0101100
+366 0 +287 0 *
Fa
0  1e-07 5 0

0111000
+290 0 +288 0 +286 0 *
Ve
1e-07
-5 -5 1
0 0

0101101
*
Ed
 1e-07 1 1 0
1  48 0 -4.54 5.04
4 C0 18 0 4 0
0

0101000
+284 0 -328 0 *
Ed
 1e-07 1 1 0
1  49 0 0.602173157456353 4.10217315745635
4 C0 18 0 22 0
0

0101000
+295 0 -284 0 *
Wi

0101100
-294 0 +326 0 -283 0 -282 0 *
Fa
0  1e-07 18 0

0111000
+281 0 *
Wi

0101100
-308 0 -357 0 -334 0 -354 0 *
Fa
0  1e-07 13 0

0111000
+279 0 *
Ed
 1e-07 1 1 0
1  50 0 3.14159265358979 6.28318530717959
2  47 10 0 3.14159265358979 6.28318530717959
2  48 9 0 3.14159265358979 6.28318530717959
4 C0 10 0 9 0
0

0101000
+377 0 -378 0 *
Wi

0101100
-277 0 -365 0 +287 0 -364 0 *
Fa
0  1e-07 10 0

0111000
+276 0 *
Ed
 1e-07 1 1 0
1  51 0 0 3.14159265358979
2  49 9 0 0 3.14159265358979
4 C0 9 0 4 0
0

0101000
+373 0 -375 0 *
Wi

0101100
+274 0 -374 0 +277 0 -371 0 *
Fa
0  1e-07 9 0

0111000
+273 0 *
Ed
 1e-07 1 1 0
1  52 0 3.14159265358979 6.28318530717959
2  50 6 0 3.14159265358979 6.28318530717959
2  51 3 0 3.14159265358979 6.28318530717959
4 C0 6 0 3 0
0

0101000
+394 0 -395 0 *
Wi

0101100
-271 0 -382 0 +289 0 -381 0 *
Fa
0  1e-07 6 0

0111000
+270 0 *
Ed
 1e-07 1 1 0
1  53 0 0 3.14159265358979
2  52 3 0 0 3.14159265358979
4 C0 3 0 4 0
0

0101000
+390 0 -392 0 *
Wi

0101100
+268 0 -391 0 +271 0 -388 0 *
Fa
0  1e-07 3 0

0111000
+267 0 *
Ve
1e-07
-18 -5 1
0 0

0101101
*
Ed
 1e-07 1 1 0
1  54 0 0 3.5
4 C0 21 0 22 0
0

0101000
+265 0 -293 0 *
Ed
 1e-07 1 1 0
1  55 0 0 26
4 C0 21 0 4 0
0

0101000
+265 0 -300 0 *
Wi

0101100
+299 0 -291 0 -264 0 +263 0 *
Fa
0  1e-07 21 0

0111000
+262 0 *
Ed
 1e-07 1 1 0
1  56 0 5 18
4 C0 4 0 22 0
0

0101000
+284 0 -265 0 *
Wi

0101100
+327 0 +321 0 +305 0 +312 0 +298 0 -263 0 -260 0 +283 0 *
Wi

0101100
+274 0 +372 0 *
Wi

0101100
+268 0 +389 0 *
Fa
0  1e-07 4 0

0111000
+259 0 +258 0 +257 0 *
Wi

0101100
+282 0 +260 0 +264 0 +292 0 *
Fa
0  1e-07 22 0

0111000
-255 0 *
Sh

0101100
-386 0 -379 0 -369 0 -362 0 -352 0 +342 0 +335 0 -324 0 +319 0 +309 0 
+303 0 +296 0 +285 0 +280 0 -278 0 -275 0 -272 0 -269 0 -266 0 +261 0 
+256 0 -254 0 *
So

0100000
+253 0 *
Ve
1e-07
7.75 -3.5 20.5
0 0

0101101
*
Ve
1e-07
13.25 -3.5 20.5
0 0

0101101
*
Ed
 1e-07 1 1 0
1  57 0 0 3.14159265358979
2  53 23 0 0 3.14159265358979
2  54 24 0 0 3.14159265358979
4 C0 23 0 24 0
0

0101000
+251 0 -250 0 *
Ve
1e-07
13.25 -5 20.5
0 0

0101101
*
Ed
 1e-07 1 1 0
1  58 0 -0.75 0.75
2  55 23 0 -0.75 0.75
2  56 25 0 -0.75 0.75
4 CN 23 0 25 0
0

0101000
+250 0 -248 0 *
Ve
1e-07
7.75 -5 20.5
0 0

0101101
*
Ed
 1e-07 1 1 0
1  59 0 3.14159265358979 6.28318530717959
2  57 23 0 3.14159265358979 6.28318530717959
4 C0 23 0 26 0
0

0101000
+248 0 -246 0 *
Ed
 1e-07 1 1 0
1  60 0 -0.75 0.75
2  58 23 0 -0.75 0.75
2  59 25 0 -0.75 0.75
4 CN 23 0 25 0
0

0101000
+246 0 -251 0 *
Wi

0101100
+249 0 +247 0 +245 0 +244 0 *
Fa
0  1e-07 23 0

0111000
+243 0 *
Ve
1e-07
5.75 -1.5 20.5
0 0

0101101
*
Ve
1e-07
15.25 -1.5 20.5
0 0

0101101
*
Ed
 1e-07 1 1 0
1  61 0 0 3.14159265358979
2  60 24 0 0 3.14159265358979
4 C0 24 0 27 0
0

0101000
+241 0 -240 0 *
Ed
 1e-07 1 1 0
1  62 0 -1.41421356237309 1.41421356237309
2  61 24 0 -1.41421356237309 1.41421356237309
2  62 28 0 -1.41421356237309 1.41421356237309
4 CN 24 0 28 0
0

0101000
+240 0 -250 0 *
Ed
 1e-07 1 1 0
1  63 0 -1.41421356237309 1.41421356237309
2  63 24 0 -1.41421356237309 1.41421356237309
2  64 28 0 -1.41421356237309 1.41421356237309
4 CN 24 0 28 0
0

0101000
+251 0 -241 0 *
Wi

0101100
+239 0 +238 0 -249 0 +237 0 *
Fa
0  1e-07 24 0

0111000
+236 0 *
Ve
1e-07
7.75 -3.5 7.5
0 0

0101101
*
Ve
1e-07
13.25 -3.5 7.5
0 0

0101101
*
Ed
 1e-07 1 1 0
1  64 0 0 3.14159265358979
2  65 29 0 0 3.14159265358979
2  66 30 0 0 3.14159265358979
4 C0 29 0 30 0
0

0101000
+234 0 -233 0 *
Ve
1e-07
13.25 -5 7.5
0 0

0101101
*
Ed
 1e-07 1 1 0
1  65 0 -0.75 0.75
2  67 29 0 -0.75 0.75
2  68 31 0 -0.75 0.75
4 CN 29 0 31 0
0

0101000
+233 0 -231 0 *
Ve
1e-07
7.75 -5 7.5
0 0

0101101
*
Ed
 1e-07 1 1 0
1  66 0 3.14159265358979 6.28318530717959
2  69 29 0 3.14159265358979 6.28318530717959
4 C0 29 0 26 0
0

0101000
+231 0 -229 0 *
Ed
 1e-07 1 1 0
1  67 0 -0.75 0.75
2  70 29 0 -0.75 0.75
2  71 31 0 -0.75 0.75
4 CN 29 0 31 0
0

0101000
+229 0 -234 0 *
Wi

0101100
+232 0 +230 0 +228 0 +227 0 *
Fa
0  1e-07 29 0

0111000
+226 0 *
Ve
1e-07
5.75 -1.5 7.5
0 0

0101101
*
Ve
1e-07
15.25 -1.5 7.5
0 0

0101101
*
Ed
 1e-07 1 1 0
1  68 0 0 3.14159265358979
2  72 30 0 0 3.14159265358979
4 C0 30 0 27 0
0

0101000
+224 0 -223 0 *
Ed
 1e-07 1 1 0
1  69 0 -1.41421356237309 1.41421356237309
2  73 30 0 -1.41421356237309 1.41421356237309
2  74 32 0 -1.41421356237309 1.41421356237309
4 CN 30 0 32 0
0

0101000
+223 0 -233 0 *
Ed
 1e-07 1 1 0
1  70 0 -1.41421356237309 1.41421356237309
2  75 30 0 -1.41421356237309 1.41421356237309
2  76 32 0 -1.41421356237309 1.41421356237309
4 CN 30 0 32 0
0

0101000
+234 0 -224 0 *
Wi

0101100
+222 0 +221 0 -232 0 +220 0 *
Fa
0  1e-07 30 0

0111000
+219 0 *
Ve
1e-07
2.55 3.12274620224706e-16 9.58
0 0

0101101
*
Ve
1e-07
-2.55 -3.12274620224706e-16 9.58
0 0

0101101
*
Ed
 1e-07 1 1 0
1  71 0 3.14159265358979 6.28318530717959
2  77 33 0 3.14159265358979 6.28318530717959
4 C0 33 0 34 0
0

0101000
+217 0 -216 0 *
Ve
1e-07
2.55 3.12274620224706e-16 1
0 0

0101101
*
Ed
 1e-07 1 1 0
1  72 0 -4.29 4.29
2  78 33 0 -4.29 4.29
2  79 35 0 -4.29 4.29
4 CN 33 0 35 0
0

0101000
+217 0 -214 0 *
Ve
1e-07
-2.55 0 1
0 0

0101101
*
Ed
 1e-07 1 1 0
1  73 0 3.14159265358979 6.28318530717959
2  80 33 0 3.14159265358979 6.28318530717959
4 C0 33 0 36 0
0

0101000
+214 0 -212 0 *
Ed
 1e-07 1 1 0
1  74 0 -4.29 4.29
2  81 33 0 -4.29 4.29
2  82 35 0 -4.29 4.29
4 CN 33 0 35 0
0

0101000
+212 0 -216 0 *
Wi

0101100
-215 0 +213 0 +211 0 +210 0 *
Fa
0  1e-07 33 0

0111000
+209 0 *
Ve
1e-07
-2.55 0 27
0 0

0101101
*
Ve
1e-07
2.55 3.12274620224706e-16 27
0 0

0101101
*
Ed
 1e-07 1 1 0
1  75 0 0 3.14159265358979
2  83 37 0 0 3.14159265358979
4 C0 37 0 38 0
0

0101000
+207 0 -206 0 *
Ve
1e-07
2.55 -3.12274620224706e-16 19.16
0 0

0101101
*
Ed
 1e-07 1 1 0
1  76 0 -3.92 3.92
2  84 37 0 -3.92 3.92
2  85 39 0 -3.92 3.92
4 CN 37 0 39 0
0

0101000
+206 0 -204 0 *
Ve
1e-07
-2.55 -3.12274620224706e-16 19.16
0 0

0101101
*
Ed
 1e-07 1 1 0
1  77 0 0 3.14159265358979
2  86 37 0 0 3.14159265358979
4 C0 37 0 40 0
0

0101000
+202 0 -204 0 *
Ed
 1e-07 1 1 0
1  78 0 -3.92 3.92
2  87 37 0 -3.92 3.92
2  88 39 0 -3.92 3.92
4 CN 37 0 39 0
0

0101000
+202 0 -207 0 *
Wi

0101100
+205 0 +203 0 -201 0 +200 0 *
Fa
0  1e-07 37 0

0111000
+199 0 *
Ve
1e-07
5 7.22517748755203e-16 1
0 0

0101101
*
Ve
1e-07
5 7.22517748755203e-16 9.58
0 0

0101101
*
Ed
 1e-07 1 1 0
1  79 0 -4.29 4.29
2  89 41 0 -4.29 4.29
2  90 42 0 -4.29 4.29
4 CN 41 0 42 0
0

0101000
+197 0 -196 0 *
Ve
1e-07
4.76969600708473 -1.5 9.58
0 0

0101101
*
Ed
 1e-07 1 1 0
1  80 0 3.14159265358979 3.44628530760519
2  91 41 0 3.14159265358979 3.44628530760519
4 C0 41 0 34 0
0

0101000
+196 0 -194 0 *
Ve
1e-07
4.76969600708473 -1.5 1
0 0

0101101
*
Ed
 1e-07 1 1 0
1  81 0 17.42 26
2  92 41 0 17.42 26
4 C0 41 0 27 0
0

0101000
+194 0 -192 0 *
Ed
 1e-07 1 1 0
1  82 0 2.8368999995744 3.14159265358979
2  93 41 0 2.8368999995744 3.14159265358979
4 C0 41 0 36 0
0

0101000
+192 0 -197 0 *
Wi

0101100
+195 0 +193 0 +191 0 +190 0 *
Fa
0  1e-07 41 0

0111000
+189 0 *
Ve
1e-07
-5 -5.02088605067175e-16 9.58
0 0

0101101
*
Ve
1e-07
-5 -5.02088605067175e-16 0.999999999999999
0 0

0101101
*
Ed
 1e-07 1 1 0
1  83 0 -4.29 4.29
2  94 42 0 -4.29 4.29
2  95 43 0 -4.29 4.29
4 CN 42 0 43 0
0

0101000
+187 0 -186 0 *
Ed
 1e-07 1 1 0
1  84 0 0 3.14159265358979
2  96 42 0 0 3.14159265358979
4 C0 42 0 34 0
0

0101000
+187 0 -196 0 *
Ed
 1e-07 1 1 0
1  85 0 3.14159265358979 6.28318530717959
2  97 42 0 3.14159265358979 6.28318530717959
4 C0 42 0 36 0
0

0101000
+197 0 -186 0 *
Wi

0101100
-185 0 +184 0 -195 0 +183 0 *
Fa
0  1e-07 42 0

0111000
+182 0 *
Ve
1e-07
5 7.22517748755203e-16 19.16
0 0

0101101
*
Ve
1e-07
5 7.22517748755203e-16 27
0 0

0101101
*
Ed
 1e-07 1 1 0
1  86 0 -7.84 0
2  98 44 0 -7.84 0
2  99 45 0 -7.84 0
4 CN 44 0 45 0
0

0101000
+180 0 -179 0 *
Ve
1e-07
4.76969600708473 -1.5 27
0 0

0101101
*
Ed
 1e-07 1 1 0
1  87 0 3.14159265358979 3.44628530760519
2  100 44 0 3.14159265358979 3.44628530760519
4 C0 44 0 38 0
0

0101000
+179 0 -177 0 *
Ve
1e-07
4.76969600708473 -1.5 19.16
0 0

0101101
*
Ed
 1e-07 1 1 0
1  88 0 0 7.84
2  101 44 0 0 7.84
4 C0 44 0 27 0
0

0101000
+177 0 -175 0 *
Ed
 1e-07 1 1 0
1  89 0 2.8368999995744 3.14159265358979
2  102 44 0 2.8368999995744 3.14159265358979
4 C0 44 0 40 0
0

0101000
+175 0 -180 0 *
Wi

0101100
+178 0 +176 0 +174 0 +173 0 *
Fa
0  1e-07 44 0

0111000
+172 0 *
Ve
1e-07
-5 -5.02088605067175e-16 27
0 0

0101101
*
Ve
1e-07
-5 -5.02088605067175e-16 19.16
0 0

0101101
*
Ed
 1e-07 1 1 0
1  90 0 0 7.84
2  103 45 0 0 7.84
2  104 46 0 0 7.84
4 CN 45 0 46 0
0

0101000
+170 0 -169 0 *
Ed
 1e-07 1 1 0
1  91 0 0 3.14159265358979
2  105 45 0 0 3.14159265358979
4 C0 45 0 38 0
0

0101000
+170 0 -179 0 *
Ed
 1e-07 1 1 0
1  92 0 3.14159265358979 6.28318530717959
2  106 45 0 3.14159265358979 6.28318530717959
4 C0 45 0 40 0
0

0101000
+180 0 -169 0 *
Wi

0101100
-168 0 +167 0 -178 0 +166 0 *
Fa
0  1e-07 45 0

0111000
+165 0 *
Ve
1e-07
5 -1.5 19.16
0 0

0101101
*
Ed
 1e-07 1 1 0
1  93 0 0.69242400177118 0.92272799468645
4 C0 40 0 27 0
0

0101000
+163 0 -175 0 *
Ve
1e-07
5 -5 19.16
0 0

0101101
*
Ed
 1e-07 1 1 0
1  94 0 -5 -1.5
4 C0 40 0 47 0
0

0101000
+161 0 -163 0 *
Ve
1e-07
-1.79727426291206e-15 -5 19.16
0 0

0101101
*
Ed
 1e-07 1 1 0
1  95 0 -4.5 0.5
4 C0 40 0 26 0
0

0101000
+159 0 -161 0 *
Ed
 1e-07 1 1 0
1  96 0 0 1.5707963267949
2  107 46 0 0 1.5707963267949
4 C0 40 0 46 0
0

0101000
+169 0 -159 0 *
Wi

0101100
-162 0 -160 0 -158 0 -157 0 -166 0 -173 0 *
Ed
 1e-07 1 1 0
1  97 0 3.14159265358979 6.28318530717959
2  108 39 0 3.14159265358979 6.28318530717959
4 C0 40 0 39 0
0

0101000
+204 0 -202 0 *
Wi

0101100
-155 0 -201 0 *
Fa
0  1e-07 40 0

0111000
-156 0 -154 0 *
Ve
1e-07
-4.16122727399219e-15 -5 27
0 0

0101101
*
Ed
 1e-07 1 1 0
1  98 0 0 7.84
2  109 46 0 0 7.84
4 G1 46 0 26 0
0

0101000
+152 0 -159 0 *
Ed
 1e-07 1 1 0
1  99 0 4.71238898038469 6.28318530717959
2  110 46 0 4.71238898038469 6.28318530717959
4 C0 46 0 38 0
0

0101000
+152 0 -170 0 *
Wi

0101100
+168 0 +157 0 -151 0 +150 0 *
Fa
0  1e-07 46 0

0111000
+149 0 *
Ve
1e-07
5 -1.5 9.58
0 0

0101101
*
Ed
 1e-07 1 1 0
1  100 0 -13.25 -3.67
4 C0 47 0 27 0
0

0101000
+147 0 -163 0 *
Ve
1e-07
5 -5 9.58
0 0

0101101
*
Ed
 1e-07 1 1 0
1  101 0 1.5 5
4 C0 47 0 34 0
0

0101000
+147 0 -145 0 *
Ed
 1e-07 1 1 0
1  102 0 3.67 13.25
4 C0 47 0 26 0
0

0101000
+161 0 -145 0 *
Wi

0101100
-146 0 +144 0 -143 0 +160 0 *
Fa
0  1e-07 47 0

0111000
+142 0 *
Ve
1e-07
-7.38562767703859e-16 -5 9.58
0 0

0101101
*
Ed
 1e-07 1 1 0
1  103 0 4.71238898038469 6.28318530717959
2  111 43 0 4.71238898038469 6.28318530717959
4 C0 34 0 43 0
0

0101000
+140 0 -187 0 *
Ed
 1e-07 1 1 0
1  104 0 -0.5 4.5
4 C0 34 0 26 0
0

0101000
+145 0 -140 0 *
Ed
 1e-07 1 1 0
1  105 0 -0.92272799468645 -0.69242400177118
4 C0 34 0 27 0
0

0101000
+194 0 -147 0 *
Wi

0101100
-139 0 -138 0 -144 0 -137 0 -193 0 -184 0 *
Ed
 1e-07 1 1 0
1  106 0 0 3.14159265358979
2  112 35 0 0 3.14159265358979
4 C0 34 0 35 0
0

0101000
+216 0 -217 0 *
Wi

0101100
-215 0 -135 0 *
Fa
0  1e-07 34 0

0111000
-136 0 -134 0 *
Ve
1e-07
18 -1.5 27
0 0

0101101
*
Ed
 1e-07 1 1 0
1  107 0 0 13.2303039929153
4 C0 27 0 38 0
0

0101000
+132 0 -177 0 *
Ve
1e-07
18 -1.5 1
0 0

0101101
*
Ed
 1e-07 1 1 0
1  108 0 0 26
4 C0 27 0 48 0
0

0101000
+132 0 -130 0 *
Ed
 1e-07 1 1 0
1  109 0 0 13.2303039929153
4 C0 27 0 36 0
0

0101000
+130 0 -192 0 *
Wi

0101100
+162 0 -174 0 -131 0 +129 0 +128 0 -191 0 +137 0 +146 0 *
Ed
 1e-07 1 1 0
1  110 0 3.14159265358979 6.28318530717959
2  113 28 0 3.14159265358979 6.28318530717959
4 C0 27 0 28 0
0

0101000
+240 0 -241 0 *
Wi

0101100
+239 0 +126 0 *
Ed
 1e-07 1 1 0
1  111 0 3.14159265358979 6.28318530717959
2  114 32 0 3.14159265358979 6.28318530717959
4 C0 27 0 32 0
0

0101000
+223 0 -224 0 *
Wi

0101100
+222 0 +124 0 *
Fa
0  1e-07 27 0

0111000
+127 0 +125 0 +123 0 *
Ve
1e-07
-9.77250754054006e-16 -5 1
0 0

0101101
*
Ed
 1e-07 1 1 0
1  112 0 0 1.5707963267949
2  115 43 0 0 1.5707963267949
4 C0 43 0 36 0
0

0101000
+186 0 -121 0 *
Ed
 1e-07 1 1 0
1  113 0 17.42 26
2  116 43 0 17.42 26
4 G1 43 0 26 0
0

0101000
+140 0 -121 0 *
Wi

0101100
+185 0 +120 0 -119 0 +139 0 *
Fa
0  1e-07 43 0

0111000
+118 0 *
Ed
 1e-07 1 1 0
1  114 0 3.14159265358979 6.28318530717959
2  117 39 0 3.14159265358979 6.28318530717959
4 C0 39 0 38 0
0

0101000
+206 0 -207 0 *
Wi

0101100
-155 0 -203 0 +116 0 -200 0 *
Fa
0  1e-07 39 0

0111000
+115 0 *
Ed
 1e-07 1 1 0
1  115 0 0 3.14159265358979
2  118 35 0 0 3.14159265358979
4 C0 35 0 36 0
0

0101000
+212 0 -214 0 *
Wi

0101100
+113 0 -213 0 -135 0 -210 0 *
Fa
0  1e-07 35 0

0111000
+112 0 *
Ed
 1e-07 1 1 0
1  116 0 3.14159265358979 6.28318530717959
2  119 32 0 3.14159265358979 6.28318530717959
2  120 31 0 3.14159265358979 6.28318530717959
4 C0 32 0 31 0
0

0101000
+233 0 -234 0 *
Wi

0101100
-110 0 -221 0 +124 0 -220 0 *
Fa
0  1e-07 32 0

0111000
+109 0 *
Ed
 1e-07 1 1 0
1  117 0 0 3.14159265358979
2  121 31 0 0 3.14159265358979
4 C0 31 0 26 0
0

0101000
+229 0 -231 0 *
Wi

0101100
+107 0 -230 0 +110 0 -227 0 *
Fa
0  1e-07 31 0

0111000
+106 0 *
Ed
 1e-07 1 1 0
1  118 0 3.14159265358979 6.28318530717959
2  122 28 0 3.14159265358979 6.28318530717959
2  123 25 0 3.14159265358979 6.28318530717959
4 C0 28 0 25 0
0

0101000
+250 0 -251 0 *
Wi

0101100
-104 0 -238 0 +126 0 -237 0 *
Fa
0  1e-07 28 0

0111000
+103 0 *
Ed
 1e-07 1 1 0
1  119 0 0 3.14159265358979
2  124 25 0 0 3.14159265358979
4 C0 25 0 26 0
0

0101000
+246 0 -248 0 *
Wi

0101100
+101 0 -247 0 +104 0 -244 0 *
Fa
0  1e-07 25 0

0111000
+100 0 *
Ve
1e-07
18 -5 1
0 0

0101101
*
Ed
 1e-07 1 1 0
1  120 0 0 3.5
4 C0 48 0 36 0
0

0101000
+98 0 -130 0 *
Ve
1e-07
18 -5 27
0 0

0101101
*
Ed
 1e-07 1 1 0
1  121 0 0 3.5
4 C0 48 0 38 0
0

0101000
+96 0 -132 0 *
Ed
 1e-07 1 1 0
1  122 0 0 26
4 C0 48 0 26 0
0

0101000
+96 0 -98 0 *
Wi

0101100
+97 0 -129 0 -95 0 +94 0 *
Fa
0  1e-07 48 0

0111000
+93 0 *
Ed
 1e-07 1 1 0
1  123 0 0 18
4 C0 26 0 36 0
0

0101000
+121 0 -98 0 *
Ed
 1e-07 1 1 0
1  124 0 0 18
4 C0 26 0 38 0
0

0101000
+152 0 -96 0 *
Wi

0101100
+143 0 +138 0 +119 0 +91 0 -94 0 -90 0 +151 0 +158 0 *
Wi

0101100
+107 0 +228 0 *
Wi

0101100
+101 0 +245 0 *
Fa
0  1e-07 26 0

0111000
+89 0 +88 0 +87 0 *
Wi

0101100
+113 0 +211 0 *
Wi

0101100
-97 0 -91 0 -120 0 -183 0 -190 0 -128 0 *
Fa
0  1e-07 36 0

0111000
+85 0 +84 0 *
Wi

0101100
+205 0 +116 0 *
Wi

0101100
+90 0 +95 0 +131 0 -176 0 -167 0 -150 0 *
Fa
0  1e-07 38 0

0111000
-82 0 -81 0 *
Sh

0101100
-242 0 -235 0 -225 0 -218 0 -208 0 -198 0 +188 0 +181 0 +171 0 +164 0 
-153 0 +148 0 +141 0 -133 0 +122 0 +117 0 -114 0 -111 0 -108 0 -105 0 
-102 0 -99 0 +92 0 +86 0 +83 0 -80 0 *
So

0100000
+79 0 *
Ve
1e-07
2.5 -7.65378971138986e-17 1.25
0 0

0101101
*
Ve
1e-07
2.5 -7.65378971138986e-17 26.75
0 0

0101101
*
Ed
 1e-07 1 1 0
1  125 0 -12.75 12.75
2  125 49 0 -12.75 12.75
2  126 50 0 -12.75 12.75
4 CN 49 0 50 0
0

0101000
+77 0 -76 0 *
Ve
1e-07
-3.06151588455594e-16 2.5 1.25
0 0

0101101
*
Ed
 1e-07 1 1 0
1  126 0 0 1.5707963267949
2  127 49 0 0 1.5707963267949
2  128 51 0 0 1.5707963267949
4 G1 49 0 51 0
0

0101000
+77 0 -74 0 *
Ve
1e-07
-2.5 3.06151588455594e-16 1.25
0 0

0101101
*
Ed
 1e-07 1 1 0
1  127 0 1.5707963267949 3.14159265358979
2  129 49 0 1.5707963267949 3.14159265358979
2  130 52 0 1.5707963267949 3.14159265358979
4 G1 49 0 52 0
0

0101000
+74 0 -72 0 *
Ve
1e-07
-2.5 3.06151588455594e-16 26.75
0 0

0101101
*
Ed
 1e-07 1 1 0
1  128 0 -12.75 12.75
2  131 49 0 -12.75 12.75
2  132 50 0 -12.75 12.75
4 CN 49 0 50 0
0

0101000
+70 0 -72 0 *
Ve
1e-07
3.06151588455594e-16 2.5 26.75
0 0

0101101
*
Ed
 1e-07 1 1 0
1  129 0 1.5707963267949 3.14159265358979
2  133 49 0 1.5707963267949 3.14159265358979
2  134 53 0 1.5707963267949 3.14159265358979
4 G1 49 0 53 0
0

0101000
+68 0 -70 0 *
Ed
 1e-07 1 1 0
1  130 0 0 1.5707963267949
2  135 49 0 0 1.5707963267949
2  136 54 0 0 1.5707963267949
4 G1 49 0 54 0
0

0101000
+76 0 -68 0 *
Wi

0101100
-75 0 +73 0 +71 0 -69 0 -67 0 -66 0 *
Fa
0  1e-07 49 0

0111000
+65 0 *
Ve
1e-07
1.53075794227797e-16 1.25 28
0 0

0101101
*
Ed
 1e-07 1 1 0
1  131 0 0 1.5707963267949
2  137 53 0 0 1.5707963267949
2  138 54 0 0 1.5707963267949
4 CN 53 0 54 0
0

0101000
+68 0 -63 0 *
Ve
1e-07
-3.06151588455594e-16 -2.5 26.75
0 0

0101101
*
Ed
 1e-07 1 1 0
1  132 0 3.14159265358979 4.71238898038469
2  139 53 0 3.14159265358979 4.71238898038469
2  140 50 0 3.14159265358979 4.71238898038469
4 G1 53 0 50 0
0

0101000
+70 0 -61 0 *
Ve
1e-07
-1.53075794227797e-16 -1.25 28
0 0

0101101
*
Ed
 1e-07 1 1 0
1  133 0 4.71238898038469 6.28318530717959
2  141 53 0 4.71238898038469 6.28318530717959
2  142 54 0 4.71238898038469 6.28318530717959
4 CN 53 0 54 0
0

0101000
+59 0 -61 0 *
Ve
1e-07
-1.25 1.53075794227797e-16 28
0 0

0101101
*
Ed
 1e-07 1 1 0
1  134 0 3.14159265358979 4.71238898038469
2  143 53 0 3.14159265358979 4.71238898038469
2  144 55 0 3.14159265358979 4.71238898038469
4 C0 53 0 55 0
0

0101000
+57 0 -59 0 *
Ed
 1e-07 1 1 0
1  135 0 1.5707963267949 3.14159265358979
2  145 53 0 1.5707963267949 3.14159265358979
2  146 56 0 1.5707963267949 3.14159265358979
4 C0 53 0 56 0
0

0101000
+63 0 -57 0 *
Wi

0101100
-62 0 +67 0 +60 0 -58 0 -56 0 -55 0 *
Fa
0  1e-07 53 0

0111000
+54 0 *
Ve
1e-07
1.25 -9.18454765366783e-17 29
0 0

0101101
*
Ve
1e-07
1.25 0 28
0 0

0101101
*
Ed
 1e-07 1 1 0
1  136 0 -0.375 0.625
2  147 55 0 -0.375 0.625
2  148 56 0 -0.375 0.625
4 CN 55 0 56 0
0

0101000
+52 0 -51 0 *
Ve
1e-07
-1.25 -9.18454765366783e-17 29
0 0

0101101
*
Ed
 1e-07 1 1 0
1  137 0 3.14159265358979 6.28318530717959
2  149 55 0 3.14159265358979 6.28318530717959
4 C0 55 0 57 0
0

0101000
+49 0 -52 0 *
Ed
 1e-07 1 1 0
1  138 0 -0.625 0.375
2  150 55 0 -0.625 0.375
2  151 56 0 -0.625 0.375
4 CN 55 0 56 0
0

0101000
+57 0 -49 0 *
Ed
 1e-07 1 1 0
1  139 0 4.71238898038469 6.28318530717959
2  152 55 0 4.71238898038469 6.28318530717959
2  153 54 0 4.71238898038469 6.28318530717959
4 C0 55 0 54 0
0

0101000
+59 0 -51 0 *
Wi

0101100
-50 0 -48 0 -47 0 +56 0 +46 0 *
Fa
0  1e-07 55 0

0111000
+45 0 *
Ve
1e-07
3.06151588455594e-16 -2.5 1.25
0 0

0101101
*
Ve
1e-07
1.53075794227797e-16 -1.25 -7.65378971138986e-17
0 0

0101101
*
Ed
 1e-07 1 1 0
1  140 0 0 1.5707963267949
2  154 52 0 0 1.5707963267949
2  155 51 0 0 1.5707963267949
4 CN 52 0 51 0
0

0101000
+43 0 -42 0 *
Ed
 1e-07 1 1 0
1  141 0 3.14159265358979 4.71238898038469
2  156 52 0 3.14159265358979 4.71238898038469
2  157 50 0 3.14159265358979 4.71238898038469
4 G1 52 0 50 0
0

0101000
+72 0 -43 0 *
Ve
1e-07
-1.53075794227797e-16 1.25 7.65378971138986e-17
0 0

0101101
*
Ed
 1e-07 1 1 0
1  142 0 4.71238898038469 6.28318530717959
2  158 52 0 4.71238898038469 6.28318530717959
2  159 51 0 4.71238898038469 6.28318530717959
4 CN 52 0 51 0
0

0101000
+39 0 -74 0 *
Ve
1e-07
-1.25 -1.53075794227797e-16 -9.37287951138836e-33
0 0

0101101
*
Ed
 1e-07 1 1 0
1  143 0 3.14159265358979 4.71238898038469
2  160 52 0 3.14159265358979 4.71238898038469
2  161 58 0 3.14159265358979 4.71238898038469
4 C0 52 0 58 0
0

0101000
+37 0 -39 0 *
Ed
 1e-07 1 1 0
1  144 0 1.5707963267949 3.14159265358979
2  162 52 0 1.5707963267949 3.14159265358979
2  163 59 0 1.5707963267949 3.14159265358979
4 C0 52 0 59 0
0

0101000
+42 0 -37 0 *
Wi

0101100
-41 0 -40 0 -71 0 -38 0 -36 0 -35 0 *
Fa
0  1e-07 52 0

0111000
+34 0 *
Ve
1e-07
1.25 2.14306111918916e-16 -1
0 0

0101101
*
Ve
1e-07
1.25 0 0
0 0

0101101
*
Ed
 1e-07 1 1 0
1  145 0 -0.375 0.625
2  164 58 0 -0.375 0.625
2  165 59 0 -0.375 0.625
4 CN 58 0 59 0
0

0101000
+32 0 -31 0 *
Ve
1e-07
-1.25 2.14306111918916e-16 -1
0 0

0101101
*
Ed
 1e-07 1 1 0
1  146 0 3.14159265358979 6.28318530717959
2  166 58 0 3.14159265358979 6.28318530717959
4 C0 58 0 60 0
0

0101000
+29 0 -32 0 *
Ed
 1e-07 1 1 0
1  147 0 -0.625 0.375
2  167 58 0 -0.625 0.375
2  168 59 0 -0.625 0.375
4 CN 58 0 59 0
0

0101000
+37 0 -29 0 *
Ed
 1e-07 1 1 0
1  148 0 4.71238898038469 6.28318530717959
2  169 58 0 4.71238898038469 6.28318530717959
2  170 51 0 4.71238898038469 6.28318530717959
4 C0 58 0 51 0
0

0101000
+39 0 -31 0 *
Wi

0101100
-30 0 -28 0 -27 0 +36 0 +26 0 *
Fa
0  1e-07 58 0

0111000
+25 0 *
Ed
 1e-07 1 1 0
1  149 0 0 1.5707963267949
2  171 59 0 0 1.5707963267949
2  172 51 0 0 1.5707963267949
4 C0 59 0 51 0
0

0101000
+31 0 -42 0 *
Ed
 1e-07 1 1 0
1  150 0 0 3.14159265358979
2  173 59 0 0 3.14159265358979
4 C0 59 0 60 0
0

0101000
+32 0 -29 0 *
Wi

0101100
+30 0 +23 0 +35 0 +27 0 -22 0 *
Fa
0  1e-07 59 0

0111000
+21 0 *
Ed
 1e-07 1 1 0
1  151 0 4.71238898038469 6.28318530717959
2  174 51 0 4.71238898038469 6.28318530717959
2  175 50 0 4.71238898038469 6.28318530717959
4 G1 51 0 50 0
0

0101000
+43 0 -77 0 *
Wi

0101100
+41 0 -23 0 -26 0 +38 0 -73 0 -19 0 *
Fa
0  1e-07 51 0

0111000
+18 0 *
Ed
 1e-07 1 1 0
1  152 0 0 1.5707963267949
2  176 56 0 0 1.5707963267949
2  177 54 0 0 1.5707963267949
4 C0 56 0 54 0
0

0101000
+51 0 -63 0 *
Ed
 1e-07 1 1 0
1  153 0 0 3.14159265358979
2  178 56 0 0 3.14159265358979
4 C0 56 0 57 0
0

0101000
+52 0 -49 0 *
Wi

0101100
+50 0 +16 0 +55 0 +47 0 -15 0 *
Fa
0  1e-07 56 0

0111000
+14 0 *
Ed
 1e-07 1 1 0
1  154 0 4.71238898038469 6.28318530717959
2  179 54 0 4.71238898038469 6.28318530717959
2  180 50 0 4.71238898038469 6.28318530717959
4 G1 54 0 50 0
0

0101000
+61 0 -76 0 *
Wi

0101100
+62 0 -16 0 -46 0 +58 0 +12 0 +66 0 *
Fa
0  1e-07 54 0

0111000
+11 0 *
Wi

0101100
+75 0 -12 0 -60 0 +69 0 +40 0 +19 0 *
Fa
0  1e-07 50 0

0111000
+9 0 *
Wi

0101100
+28 0 +22 0 *
Fa
0  1e-07 60 0

0111000
+7 0 *
Wi

0101100
+48 0 +15 0 *
Fa
0  1e-07 57 0

0111000
+5 0 *
Sh

0101100
+64 0 +53 0 +44 0 +33 0 +24 0 +20 0 +17 0 +13 0 +10 0 +8 0 
+6 0 +4 0 *
So

0100000
+3 0 *
Co

1100000
+252 0 +78 0 +2 0 *

+1 0 