DBRep_DrawableShape

CASCADE Topology V1, (c) Matra-Datavision
Locations 0
Curve2ds 200
7 0 0  3 25 23  4.4022976670181855 0.14134290447698139  4.4014018262996952 0.13932555802894511  4.3996498004539779 0.13527394406954113  4.397141169112107 0.12914805553561792  4.3947523982849344 0.12297599381575453  4.3924838975376792 0.11676005747087782  4.3903360496959873 0.11050254724801976  4.3883092080697805 0.1042057661230011  4.3864036988456192 0.097872018854032308  4.3846198220181654 0.091503611713094027  4.3829578526337816 0.085102852213949226  4.381418041868157 0.078672048882805934  4.3800006180633408 0.072213511056729171  4.3787057876880846 0.065729548711180127  4.3775337362290232 0.059222472313662053  4.3764846290083925 0.052694592701597036  4.3755586119287644 0.046148220982223979  4.3747558121388668 0.039585668452374087  4.3740763386366135 0.033009246535942338  4.373520282744539 0.026421266736870442  4.3730877186950838 0.019824040605429177  4.3727787034363486 0.013219879715644098  4.3725932789744038 0.0066110956514586136  4.3725520695742492 0.0022036985505774383  4.3725520709305679 4.0821559971578444e-17 
 2.7052603405912063 4 2.7250936275456876 1 2.7449269145001689 1 2.7647602014546502 1 2.784593488409131 1 2.8044267753636123 1 2.8242600623180936 1 2.8440933492725748 1 2.8639266362270561 1 2.8837599231815374 1 2.9035932101360187 1 2.9234264970905 1 2.9432597840449808 1 2.9630930709994621 1 2.9829263579539433 1 3.0027596449084246 1 3.0225929318629059 1 3.0424262188173872 1 3.0622595057718685 1 3.0820927927263497 1 3.1019260796808306 1 3.1217593666353118 1 3.1415926535897931 4
1 0 5.6605702329737095e-16 1 -1.2012103110621433e-16 
1 0 5.6605702329737095e-16 1 -1.2012103110621433e-16 
1 7.8539816339744828 0 -1 0 
1 7.8539816339744828 0 -1 0 
7 0 0  3 25 23  5.0522258898388115 0  5.0522268799363639 0.011183327257265847  5.0511639072096273 0.033549958101779687  5.0463930111368427 0.066797812197782122  5.038458990019465 0.099441470934262782  5.0273930402522744 0.13117911822060424  5.0132418982010645 0.1617097918841679  4.9960737229831915 0.19073456116583015  4.9759829194941396 0.21795841437086558  4.9530959494091054 0.2430930015105561  4.927576969119583 0.26586030082366291  4.8996328198433119 0.28599720385035571  4.8695165740545914 0.30326090724932386  4.8375288783128623 0.31743487689037592  4.804016413545102 0.32833502353380384  4.7693670389845142 0.33581562477738841  4.7340015702608751 0.33977446750890028  4.6983625945532372 0.34015670921696717  4.6629012537937706 0.33695701445476328  4.6280630460694887 0.33021983788895076  4.5942747156213537 0.32003740609015541  4.5619309499860545 0.3065471771111366  4.5313914341907608 0.28992326075362412  4.5124324967870244 0.27689729557540987  4.5033556813501692 0.26993279583340318 
 0 4 0.10064988343582647 1 0.20129976687165294 1 0.30194965030747939 1 0.40259953374330587 1 0.5032494171791323 1 0.60389930061495878 1 0.70454918405078526 1 0.80519906748661174 1 0.90584895092243822 1 1.0064988343582646 1 1.1071487177940911 1 1.2077986012299176 1 1.308448484665744 1 1.4090983681015705 1 1.509748251537397 1 1.6103981349732235 1 1.71104801840905 1 1.8116979018448764 1 1.9123477852807029 1 2.0129976687165292 1 2.1136475521523557 1 2.2142974355881822 4
7 0 0  3 25 23  4.5033556813501692 0.26993279583340352  4.5013422563846319 0.26838913557802285  4.497354300719655 0.26525784539056768  4.4914914835927373 0.26043179377940018  4.4857502597529448 0.2554794002709353  4.4801329544117232 0.25040350323379362  4.474641795502551 0.24520697918054368  4.4692789015472787 0.23989274601731084  4.464046287617367 0.2344637586237989  4.4589458666802377 0.22892300660724813  4.4539794523895244 0.22327351159861503  4.44914876166981 0.21751832480106462  4.4444554175122777 0.21166052460453949  4.4399009518446109 0.20570321431947886  4.4354868084877337 0.19964952001776806  4.4312143461714157 0.19350258848579435  4.4270848415975825 0.18726558528857093  4.4230994925173901 0.18094169294723877  4.4192594208673501 0.17453410922147383  4.41556567571988 0.16804604552498009  4.412019236889253 0.16148072536354191  4.4086210159864363 0.15484138320056576  4.4053718668255177 0.14813126222946627  4.4033056627420901 0.14361283188767615  4.4022976670181846 0.14134290447698156 
 5.3558900891779739 4 5.3782065848599299 1 5.4005230805418849 1 5.4228395762238408 1 5.4451560719057968 1 5.4674725675877527 1 5.4897890632697077 1 5.5121055589516637 1 5.5344220546336196 1 5.5567385503155755 1 5.5790550459975305 1 5.6013715416794865 1 5.6236880373614424 1 5.6460045330433974 1 5.6683210287253534 1 5.6906375244073093 1 5.7129540200892652 1 5.7352705157712203 1 5.7575870114531762 1 5.7799035071351321 1 5.8022200028170872 1 5.8245364984990431 1 5.846852994180999 4
1 1.5707963267948966 0 -1 0 
1 1.5707963267948966 0 -1 0 
1 0 -1.8868567443245701e-16 1 1.2012103110621435e-16 
1 0 -1.8868567443245701e-16 1 1.2012103110621435e-16 
7 0 0  3 25 23  1.8808876401614012 0.141342904476981  1.8817834808798923 0.13932555802894472  1.883535506725609 0.13527394406954077  1.8860441380674795 0.12914805553561767  1.8884329088946519 0.12297599381575421  1.8907014096419084 0.11676005747087746  1.8928492574835989 0.11050254724801938  1.8948760991098055 0.10420576612300073  1.8967816083339673 0.097872018854032045  1.8985654851614213 0.091503611713093735  1.9002274545458042 0.085102852213948976  1.9017672653114284 0.078672048882805726  1.9031846891162458 0.072213511056729032  1.9044795194915032 0.06572954871117985  1.9056515709505628 0.059222472313661831  1.9067006781711924 0.052694592701596848  1.9076266952508216 0.04614822098222382  1.9084294950407183 0.039585668452374004  1.9091089685429732 0.033009246535942297  1.9096650244350466 0.026421266736870435  1.9100975884845028 0.01982404060542918  1.9104066037432375 0.013219879715644098  1.9105920282051814 0.0066110956514586136  1.9106332376053383 0.0022036985505774383  1.9106332362490186 4.0821559971578444e-17 
 2.7052603405912077 4 2.725093627545689 1 2.7449269145001698 1 2.7647602014546511 1 2.7845934884091323 1 2.8044267753636136 1 2.8242600623180945 1 2.8440933492725757 1 2.863926636227057 1 2.8837599231815383 1 2.9035932101360191 1 2.9234264970905004 1 2.9432597840449817 1 2.963093070999463 1 2.9829263579539438 1 3.0027596449084251 1 3.0225929318629063 1 3.0424262188173872 1 3.0622595057718685 1 3.0820927927263497 1 3.1019260796808306 1 3.1217593666353118 1 3.1415926535897931 4
7 0 0  3 25 23  1.7798296258294164 0.26993279583340424  1.7818430507949534 0.26838913557802352  1.7858310064599301 0.26525784539056835  1.791693823586848 0.26043179377940084  1.7974350474266414 0.25547940027093596  1.8030523527678615 0.25040350323379418  1.8085435116770341 0.24520697918054427  1.8139064056323075 0.23989274601731128  1.8191390195622188 0.23446375862379923  1.8242394404993478 0.22892300660724865  1.8292058547900611 0.22327351159861536  1.8340365455097758 0.21751832480106498  1.8387298896673083 0.21166052460453982  1.8432843553349763 0.20570321431947911  1.847698498691851 0.19964952001776839  1.8519709610081705 0.19350258848579452  1.8561004655820039 0.18726558528857118  1.8600858146621952 0.18094169294723891  1.8639258863122361 0.17453410922147394  1.8676196314597053 0.16804604552498009  1.8711660702903332 0.16148072536354183  1.8745642911931497 0.15484138320056548  1.8778134403540701 0.14813126222946602  1.8798796444374977 0.14361283188767587  1.8808876401614019 0.14134290447698125 
 5.3558900891779704 4 5.3782065848599263 1 5.4005230805418822 1 5.4228395762238382 1 5.4451560719057941 1 5.46747256758775 1 5.4897890632697059 1 5.5121055589516619 1 5.5344220546336178 1 5.5567385503155737 1 5.5790550459975297 1 5.6013715416794856 1 5.6236880373614406 1 5.6460045330433966 1 5.6683210287253525 1 5.6906375244073084 1 5.7129540200892643 1 5.7352705157712203 1 5.7575870114531762 1 5.7799035071351321 1 5.8022200028170881 1 5.824536498499044 1 5.8468529941809999 4
7 0 0  3 25 23  1.2309594173407747 0  1.2309584272432224 0.011183327257265832  1.2320213999699603 0.033549958101779624  1.236792296042742 0.066797812197782011  1.2447263171601233 0.099441470934262616  1.2557922669273114 0.13117911822060399  1.269943408978522 0.16170979188416768  1.2871115841963947 0.1907345611658299  1.3072023876854464 0.21795841437086527  1.3300893577704829 0.24309300151055577  1.3556083380600032 0.26586030082366258  1.3835524873362728 0.28599720385035549  1.4136687331249946 0.30326090724932347  1.4456564288667215 0.31743487689037581  1.4791688936344844 0.32833502353380367  1.5138182681950707 0.33581562477738841  1.5491837369187109 0.33977446750890017  1.584822712626347 0.34015670921696711  1.620284053385814 0.3369570144547635  1.6551222611100969 0.33021983788895115  1.6889105915582321 0.32003740609015568  1.721254357193531 0.3065471771111371  1.7517938729888234 0.28992326075362473  1.7707528103925607 0.27689729557541065  1.7798296258294162 0.26993279583340402 
 0 4 0.1006498834358263 1 0.2012997668716526 1 0.30194965030747889 1 0.4025995337433052 1 0.50324941717913152 1 0.60389930061495778 1 0.70454918405078415 1 0.80519906748661041 1 0.90584895092243667 1 1.006498834358263 1 1.1071487177940893 1 1.2077986012299156 1 1.3084484846657418 1 1.4090983681015683 1 1.5097482515373946 1 1.6103981349732208 1 1.7110480184090471 1 1.8116979018448733 1 1.9123477852806998 1 2.0129976687165261 1 2.1136475521523521 1 2.2142974355881786 4
1 6.2831853071795862 45 -1 0 
1 3.1415926535897931 0 0 -1 
1 3.1415926535897931 0 0 -1 
1 6.2831853071795862 15 -1 0 
1 6.2831853071795862 0 0 -1 
1 0 0 0 -1 
1 6.2831853071795862 4.4408920985006262e-16 0 1 
1 0 4.4408920985006262e-16 0 1 
1 0 -1.2560739669470223e-15 1 1.9991038072866457e-16 
1 3.1415926535897931 -2.2204460492503131e-16 0 1 
1 3.1415926535897931 -2.2204460492503131e-16 0 1 
1 0 -1.697056274847714 1 0 
1 6.2831853071795862 1.1999999999999997 -1 0 
1 0 0 0 -1 
1 6.2831853071795862 0 0 -1 
1 3.1415926535897931 0 0 -1 
1 3.1415926535897931 0 0 -1 
1 6.2831853071795862 1.5 -1 0 
1 6.2831853071795862 -2.2204460492503131e-16 0 1 
1 0 -2.2204460492503131e-16 0 1 
1 0 6.2803698347351115e-16 1 -1.9991038072866457e-16 
1 3.1415926535897931 4.4408920985006262e-16 0 1 
1 3.1415926535897931 4.4408920985006262e-16 0 1 
1 0 -1.697056274847714 1 0 
1 6.2831853071795862 1.1999999999999997 -1 0 
1 0 0 0 -1 
1 6.2831853071795862 0 0 -1 
1 3.1415926535897931 0 0 -1 
1 3.1415926535897931 0 0 -1 
1 6.2831853071795862 1.5 -1 0 
1 1.5707963267948966 0 0 -1 
1 3.1415926535897931 -7.4000000000000004 -1 0 
1 3.1415926535897931 0 0 -1 
1 3.1415926535897931 0 0 -1 
1 3.1415926535897931 0 -1 0 
1 9.4247779607693793 -7.4000000000000004 -1 0 
1 6.2831853071795862 0 0 -1 
1 0 0 0 -1 
1 9.4247779607693793 0 -1 0 
1 3.1415926535897931 0 1 0 
1 3.1415926535897931 0 0 -1 
1 3.1415926535897931 0 0 -1 
1 3.1415926535897931 -7.4000000000000004 1 0 
1 6.2831853071795862 0 0 -1 
1 0 0 0 -1 
1 -3.1415926535897931 0 1 0 
1 -3.1415926535897931 -7.4000000000000004 1 0 
1 0.43633231299858632 0 0 -1 
1 1.5707963267948966 0 0 -1 
1 3.1415926535897931 -30 -1 0 
1 3.1415926535897931 0 0 -1 
1 3.1415926535897931 0 0 -1 
1 0 -22.600000000000001 1 0 
1 9.4247779607693793 -30 -1 0 
1 6.2831853071795862 0 0 -1 
1 0 0 0 -1 
1 0 -22.600000000000001 1 0 
1 6.2831853071795862 -22.600000000000001 -1 0 
1 3.1415926535897931 0 0 -1 
1 3.1415926535897931 0 0 -1 
1 3.1415926535897931 -30 1 0 
1 6.2831853071795862 0 0 -1 
1 0 0 0 -1 
1 6.2831853071795862 -22.600000000000001 -1 0 
1 -3.1415926535897931 -30 1 0 
1 0.43633231299858649 0 0 -1 
7 0 0  3 25 23  1.9106332362490186 4.0821559971578444e-17  1.9106376281606519 -0.015866708932177648  1.908493829185383 -0.047599853563098538  1.8989000347659426 -0.094336988576787781  1.8829835222057014 -0.13934883322181518  1.8608846305020463 -0.18177599077474427  1.83282909665372 -0.22076885300164958  1.799166265676672 -0.25550081830696175  1.7603999235134165 -0.28518871847934724  1.7172152008666439 -0.309120655626408  1.6704899338772119 -0.32668946936696314  1.6212831699028143 -0.33742808937241547  1.5707963267948966 -0.34104131949497524  1.5203094836869782 -0.33742808937241542  1.4711027197125817 -0.32668946936696319  1.4243774527231494 -0.30912065562640795  1.3811927300763762 -0.28518871847934724  1.342426387913122 -0.25550081830696197  1.3087635569360732 -0.22076885300164958  1.280708023087747 -0.18177599077474435  1.2586091313840915 -0.13934883322181529  1.2426926188238507 -0.094336988576787836  1.2330988244044101 -0.04759985356309869  1.2309550254291417 -0.015866708932177769  1.2309594173407747 -8.1643119943156889e-17 
 3.1415926535897931 4 3.2843923196620564 1 3.4271919857343196 1 3.5699916518065828 1 3.7127913178788465 1 3.8555909839511098 1 3.998390650023373 1 4.1411903160956367 1 4.2839899821678999 1 4.4267896482401632 1 4.5695893143124264 1 4.7123889803846897 1 4.8551886464569529 1 4.9979883125292162 1 5.1407879786014794 1 5.2835876446737426 1 5.4263873107460068 1 5.5691869768182691 1 5.7119866428905333 1 5.8547863089627965 1 5.9975859750350597 1 6.140385641107323 1 6.2831853071795862 4
1 0 3.1000000000000001 0 1 
1 -3.1415926535897931 0 1 0 
1 -3.1415926535897931 -30 1 0 
1 0 1.6000000000000001 0 1 
7 0 0  3 25 23  4.3725520709305679 4.0821559971578444e-17  4.3725476790189353 -0.015866708932177648  4.3746914779942019 -0.047599853563098538  4.3842852724136447 -0.094336988576787781  4.4002017849738841 -0.13934883322181518  4.4223006766775388 -0.18177599077474427  4.4503562105258672 -0.22076885300164958  4.4840190415029131 -0.25550081830696175  4.5227853836661689 -0.28518871847934724  4.5659701063129425 -0.309120655626408  4.6126953733023734 -0.32668946936696314  4.6619021372767699 -0.33742808937241547  4.7123889803846897 -0.34104131949497524  4.7628758234926059 -0.33742808937241542  4.812082587467005 -0.32668946936696319  4.8588078544564368 -0.30912065562640795  4.9019925771032078 -0.28518871847934724  4.9407589192664663 -0.25550081830696197  4.9744217502435131 -0.22076885300164958  5.0024772840918388 -0.18177599077474435  5.0245761757954961 -0.13934883322181529  5.0404926883557346 -0.094336988576787836  5.0500864827751766 -0.04759985356309869  5.052230281750445 -0.015866708932177769  5.0522258898388115 -8.1643119943156889e-17 
 3.1415926535897931 4 3.2843923196620564 1 3.4271919857343196 1 3.5699916518065828 1 3.7127913178788465 1 3.8555909839511098 1 3.998390650023373 1 4.1411903160956367 1 4.2839899821678999 1 4.4267896482401632 1 4.5695893143124264 1 4.7123889803846897 1 4.8551886464569529 1 4.9979883125292162 1 5.1407879786014794 1 5.2835876446737426 1 5.4263873107460068 1 5.5691869768182691 1 5.7119866428905333 1 5.8547863089627965 1 5.9975859750350597 1 6.140385641107323 1 6.2831853071795862 4
1 3.1415926535897931 1.6000000000000001 -1 0 
1 0 0 1 0 
1 0 -6.2803698347351115e-16 1 1.9991038072866457e-16 
1 0 0 1 -1.9991038072866457e-16 
1 6.2831853071795862 -22.600000000000001 -1 0 
1 1.5707963267948963 0 0 -1 
1 0.43633231299858627 0 0 -1 
1 3.1415926535897931 -30 -1 0 
1 0 -22.600000000000001 1 0 
1 1.5707963267948966 1.6000000000000001 0 -1 
1 1.5707963267948966 0 0 -1 
1 0 3.1000000000000001 1 0 
1 3.1415926535897931 -1.5 -1 0 
1 1.5707963267948963 0 0 -1 
1 6.2831853071795862 1.5 -1 0 
1 6.2831853071795862 1.5 -1 0 
1 -3.1415926535897931 -7.4000000000000004 1 0 
1 0.43633231299858627 0 0 -1 
1 3.1415926535897931 -7.4000000000000004 -1 0 
1 3.1415926535897931 0 -1 0 
1 6.2831853071795862 1.1999999999999997 -1 0 
1 0 -1.697056274847714 1 0 
1 6.2831853071795862 1.1999999999999997 -1 0 
1 0 -1.697056274847714 1 0 
1 6.2831853071795862 15 -1 0 
1 6.2831853071795862 45 -1 0 
1 6.2831853071795862 -4.4408920985006262e-16 0 1 
1 0 -4.4408920985006262e-16 0 1 
1 0 0 1 0 
1 3.1415926535897931 6.6613381477509392e-16 0 1 
1 3.1415926535897931 6.6613381477509392e-16 0 1 
1 0 -1.6970562748477143 1 0 
1 6.2831853071795862 1.1999999999999997 -1 0 
1 0 0 0 -1 
1 6.2831853071795862 0 0 -1 
1 3.1415926535897931 0 0 -1 
1 3.1415926535897931 0 0 -1 
1 6.2831853071795862 1.5 -1 0 
1 6.2831853071795862 0 0 1 
1 0 0 0 1 
1 0 -6.2803698347351174e-16 1 0 
1 3.1415926535897931 0 0 1 
1 3.1415926535897931 0 0 1 
1 0 -1.6970562748477156 1 2.8271597168564594e-16 
1 6.2831853071795862 1.1999999999999997 -1 0 
1 0 0 0 -1 
1 6.2831853071795862 0 0 -1 
1 3.1415926535897931 0 0 -1 
1 3.1415926535897931 0 0 -1 
1 6.2831853071795862 1.5 -1 0 
1 6.2831853071795862 1.1102230246251565e-15 0 1 
1 0 1.1102230246251565e-15 0 1 
1 0 -1.884110950420535e-15 1 3.9982076145732953e-16 
1 3.1415926535897931 0 0 1 
1 3.1415926535897931 0 0 1 
1 0 -1.6970562748477143 1 1.4135798584282297e-16 
1 6.2831853071795862 1.1999999999999997 -1 0 
1 0 0 0 -1 
1 6.2831853071795862 0 0 -1 
1 3.1415926535897931 0 0 -1 
1 3.1415926535897931 0 0 -1 
1 6.2831853071795862 1.5 -1 0 
1 1.5707963267948966 0 0 -1 
1 3.1415926535897931 -22.5 -1 0 
1 3.1415926535897931 0 0 -1 
1 3.1415926535897931 0 0 -1 
1 0 -7.5 1 0 
1 9.4247779607693793 -22.5 -1 0 
1 6.2831853071795862 0 0 -1 
1 0 0 0 -1 
1 0 -7.5 1 0 
1 6.2831853071795862 -7.4999999999999991 -1 -5.6543194337129189e-16 
1 3.1415926535897931 0 0 -1 
1 3.1415926535897931 0 0 -1 
1 3.1415926535897931 -22.5 1 0 
1 6.2831853071795862 0 0 -1 
1 0 0 0 -1 
1 6.2831853071795862 -7.4999999999999991 -1 0 
1 -3.1415926535897931 -22.5 1 0 
1 0.43633231299858644 0 7.4014868308343768e-18 -1 
1 3.1415926535897931 1.6000000000000001 -1 0 
1 -3.1415926535897931 -10 1 0 
1 -3.1415926535897931 -10 1 0 
1 0 0 1 0 
1 0 6.2803698347351174e-16 1 -3.9982076145732953e-16 
1 0 -6.2803698347351174e-16 1 0 
1 0 0 1 0 
1 1.5707963267948966 1.6000000000000001 0 -1 
1 1.5707963267948966 0 0 -1 
1 0 3.1000000000000001 1 0 
1 3.1415926535897931 -1.5 -1 0 
1 6.2831853071795862 -8.5 -1 0 
1 1.5707963267948963 0 0 -1 
1 6.2831853071795862 -8.5 -1 0 
1 6.2831853071795862 1.5 -1 0 
1 6.2831853071795862 1.5 -1 0 
1 6.2831853071795862 1.5 -1 0 
1 6.2831853071795862 -7.5000000000000027 -1 5.6543194337129198e-16 
1 -3.1415926535897931 -22.5 1 0 
1 0.43633231299858638 0 0 -1 
1 3.1415926535897931 -22.5 -1 0 
1 0 -7.5 1 0 
1 0 3.1000000000000001 0 1 
1 0 1.6000000000000001 0 1 
1 0 0 0 -1 
1 1.5707963267948966 0 0 -1 
1 1.5707963267948966 0 0 -1 
1 3.1415926535897931 0 0 -1 
1 6.2831853071795862 1.1999999999999997 -1 0 
1 0 -1.6970562748477134 1 -1.4135798584282297e-16 
1 6.2831853071795862 1.1999999999999997 -1 0 
1 0 -1.6970562748477138 1 -2.8271597168564594e-16 
1 6.2831853071795862 1.1999999999999997 -1 0 
1 0 -1.6970562748477143 1 0 
Curves 192
2 2.5554810603477398e-15 0 -15 0 0 -1 1 0 0 0 -1 0 2
2 2.5554810603477398e-15 0 -9.3431457505076203 1.22464679914735e-16 -1 0 1 1.22464679914735e-16 0 -0 0 1 6
2 2.5554810603477398e-15 0 -9.3431457505076203 0 1 -0 0 0 1 1 -0 0 6
2 2.5554810603477398e-15 0 -15 0 0 -1 1 0 0 0 -1 0 2
2 0 0 -15 0 0 -1 -1 0 0 0 1 0 2
2 4.7704895589362203e-15 0 9.3431457505076203 0 1 -0 0 0 1 1 -0 0 6
2 4.7704895589362203e-15 0 9.3431457505076203 1.22464679914735e-16 -1 0 1 1.22464679914735e-16 0 -0 0 1 6
2 4.7704895589362203e-15 0 15 0 0 -1 1 0 0 0 -1 0 2
2 0 0 15 0 0 -1 -1 0 0 0 1 0 2
2 4.7704895589362203e-15 0 15 0 0 -1 1 0 0 0 -1 0 2
2 0 0 15 0 0 -1 -1 0 0 0 1 0 1.50000000000001
1 1.5 1.8369701987210299e-16 -30 -0 -0 -1 
2 0 0 -15 0 0 -1 -1 0 0 0 1 0 1.5
1 -1.5 0 -30 -0 -0 -1 
1 -9 -1.6000000000000001 -5.7999999999999998 0 0.70710678118654602 0.70710678118654891 
2 -9 -1.6000000000000001 -9 -0 1 0 0 0 1 1 0 -0 3.2000000000000002
1 -9 -1.6000000000000001 -12.199999999999999 8.6595605623549501e-17 0.70710678118654602 -0.70710678118654891 
2 -9 -2.7999999999999998 -9 -0 1 0 0 0 1 1 0 -0 2
1 -9 -1.6000000000000001 -7 -0 1 -0 
1 -9 -1.6000000000000001 -11 -0 1 -0 
2 -9 -3.1000000000000001 -9 0 1 0 0 -0 1 1 0 -0 2
1 -9 -1.6000000000000001 12.199999999999999 0 0.70710678118654602 0.70710678118654891 
2 -9 -1.6000000000000001 9 -0 1 0 0 0 1 1 0 -0 3.2000000000000002
1 -9 -1.6000000000000001 5.7999999999999998 8.6595605623549501e-17 0.70710678118654602 -0.70710678118654891 
2 -9 -2.7999999999999998 9 -0 1 0 0 0 1 1 0 -0 2
1 -9 -1.6000000000000001 11 -0 1 -0 
1 -9 -1.6000000000000001 7 -0 1 -0 
2 -9 -3.1000000000000001 9 0 1 0 0 -0 1 1 0 -0 2
1 0 -1.6000000000000001 15 -0 -0 -1 
2 0 0 7.5999999999999996 0 0 -1 1 0 0 0 -1 0 1.6000000000000001
1 1.6000000000000001 1.9594348786357601e-16 15 -0 -0 -1 
2 0 0 15 0 0 -1 1 0 0 0 -1 0 1.6000000000000001
2 0 0 7.5999999999999996 0 0 -1 1 0 0 0 -1 0 1.6000000000000001
1 -1.6000000000000001 0 15 -0 -0 -1 
2 0 0 15 0 0 -1 1 0 0 0 -1 0 1.6000000000000001
2 0 0 15 0 0 1 1 0 -0 -0 1 0 3.1000000000000001
1 3.1000000000000001 3.79640507735679e-16 15 -0 -0 -1 
2 0 0 7.5999999999999996 -0 0 1 1 0 0 0 1 -0 3.1000000000000001
1 -3.1000000000000001 0 15 -0 -0 -1 
2 0 0 15 0 0 1 1 0 -0 -0 1 0 3.1000000000000001
2 0 0 7.5999999999999996 -0 0 1 1 0 0 0 1 -0 3.1000000000000001
1 -2.8095541398136099 -1.31011661139618 15 -0 -0 -1 
1 0 -1.6000000000000001 15 -0 -0 -1 
2 0 0 -15 0 0 -1 1 0 0 0 -1 0 1.6000000000000001
1 1.6000000000000001 1.9594348786357601e-16 15 -0 -0 -1 
2 0 0 -7.5999999999999996 0 0 1 -1 0 0 0 -1 0 1.6000000000000001
2 0 0 -15 0 0 -1 1 0 0 0 -1 0 1.6000000000000001
1 -1.6000000000000001 0 15 -0 -0 -1 
2 0 0 -7.5999999999999996 0 0 1 -1 0 0 0 -1 0 1.6000000000000001
2 0 0 -7.5999999999999996 0 0 -1 -1 0 0 0 1 0 3.1000000000000001
1 3.1000000000000001 3.79640507735679e-16 15 -0 -0 -1 
2 0 0 -15 0 0 1 1 0 -0 -0 1 0 3.1000000000000001
1 -3.1000000000000001 0 15 -0 -0 -1 
2 0 0 -7.5999999999999996 0 0 -1 -1 0 0 0 1 0 3.1000000000000001
2 0 0 -15 0 0 1 1 0 -0 -0 1 0 3.1000000000000001
1 -2.8095541398136099 -1.31011661139618 15 -0 -0 -1 
1 -2.8095541398136099 -1.31011661139618 15 0.90630778703664783 0.42261826174070388 0 
2 4.7704895589362203e-15 0 15 0 0 -1 1 0 0 0 -1 0 2
1 -15 -1.6000000000000001 15 -1 -0 -0 
1 -13.4 -3.1000000000000001 15 0 -1 0 
1 -15 -3.1000000000000001 15 1 0 0 
2 0 0 15 0 0 1 1 0 -0 -0 1 0 3.1000000000000001
1 -2.8095541398136099 -1.31011661139618 -15 0.90630778703664783 0.42261826174070388 0 
2 0 0 -15 0 0 1 1 0 -0 -0 1 0 3.1000000000000001
1 -15 -3.1000000000000001 -15 1 0 0 
1 -13.4 0 -15 -0 1 -0 
1 -15 -1.6000000000000001 -15 -1 -0 -0 
2 2.5554810603477398e-15 0 -15 0 0 -1 1 0 0 0 -1 0 2
1 -15 -1.6000000000000001 15 -0 -0 -1 
2 -13.4 -1.6000000000000001 13.4 0 1 0 0 0 -1 -1 0 0 1.6000000000000001
1 -15 -1.6000000000000001 15 -1 -0 -0 
1 -15 -1.6000000000000001 7.5999999999999996 -1 0 0 
1 -4.5 -1.6000000000000001 15 0 0 -1 
1 -15 -1.6000000000000001 -7.5999999999999996 1 0 0 
1 -15 -1.6000000000000001 -15 -1 -0 -0 
2 -13.4 -1.6000000000000001 -13.4 0 1 0 0 0 -1 -1 0 0 1.6000000000000001
2 -9 -1.6000000000000001 9 -0 1 0 0 0 1 1 0 -0 3.2000000000000002
2 -9 -1.6000000000000001 -9 -0 1 0 0 0 1 1 0 -0 3.2000000000000002
2 0 0 -7.5999999999999996 0 0 -1 -1 0 0 0 1 0 3.1000000000000001
1 -5.6946076160351899e-16 -3.1000000000000001 15 -0 -0 -1 
1 -1.4500924592586399 -0.67618921878512595 15 -0 -0 -1 
1 -2.8095541398136099 -1.31011661139618 -7.5999999999999996 -0.90630778703664783 -0.42261826174070388 0 
1 -2.8095541398136099 -1.31011661139618 -15 0.90630778703664783 0.42261826174070388 0 
2 0 0 -15 0 0 -1 1 0 0 0 -1 0 1.6000000000000001
2 0 0 -7.5999999999999996 0 0 1 -1 0 0 0 -1 0 1.6000000000000001
1 -15 -3.1000000000000001 15 -0 -0 -1 
1 -15 -1.6000000000000001 13.4 -0 1 -0 
1 -15 -1.6000000000000001 -13.4 0 -1 0 
2 -13.4 -3.1000000000000001 13.4 0 -1 0 0 0 1 -1 0 0 1.6000000000000001
2 -13.4 -3.1000000000000001 -13.4 0 -1 0 0 0 1 -1 0 0 1.6000000000000001
1 -15 -3.1000000000000001 -7.5999999999999996 -1 0 0 
1 -4.5 -3.1000000000000001 15 0 -0 1 
1 -15 -3.1000000000000001 7.5999999999999996 1 -0 0 
1 -5.6946076160351899e-16 -3.1000000000000001 15 -0 -0 -1 
2 -9 -3.1000000000000001 -9 0 1 0 0 -0 1 1 0 -0 2
2 -9 -3.1000000000000001 9 0 1 0 0 -0 1 1 0 -0 2
2 0 0 7.5999999999999996 -0 0 1 1 0 0 0 1 -0 3.1000000000000001
1 -2.8095541398136099 -1.31011661139618 7.5999999999999996 0.90630778703664783 0.42261826174070388 0 
1 -1.4500924592586399 -0.67618921878512595 15 -0 -0 -1 
1 -2.8095541398136099 -1.31011661139618 15 0.90630778703664783 0.42261826174070388 0 
2 0 0 7.5999999999999996 0 0 -1 1 0 0 0 -1 0 1.6000000000000001
2 0 0 15 0 0 -1 1 0 0 0 -1 0 1.6000000000000001
1 -4.5 -10 -7.5999999999999996 -0 1 -0 
1 -4.5 -10 7.5999999999999996 -0 1 -0 
2 -9 -2.7999999999999998 9 -0 1 0 0 0 1 1 0 -0 2
2 -9 -2.7999999999999998 -9 -0 1 0 0 0 1 1 0 -0 2
2 0 0 -15 0 0 -1 -1 0 0 0 1 0 1.5
2 0 0 15 0 0 -1 -1 0 0 0 1 0 1.50000000000001
1 9 -1.6000000000000001 -3.2000000000000002 1.5366744651812901e-17 0.70710678118654702 -0.70710678118654802 
2 9 -1.6000000000000001 -9.1488275995370795e-16 -1.12562457356044e-34 1 5.17960561634569e-18 2.17318586961181e-17 5.17960561634569e-18 -1 -1 2.3520329448811322e-49 -2.17318586961181e-17 3.2000000000000002
1 9 -1.6000000000000001 3.2000000000000002 -1.01962350275362e-16 0.70710678118654702 0.70710678118654802 
2 9 -2.7999999999999998 -9.210982866933231e-16 -1.12562457356044e-34 1 5.17960561634569e-18 2.17318586961181e-17 5.17960561634569e-18 -1 -1 2.3520329448811322e-49 -2.17318586961181e-17 2
1 9 -1.6000000000000001 -2 -1.12562457356044e-34 1 5.17960561634569e-18 
1 9 -1.6000000000000001 2 -1.12562457356044e-34 1 5.17960561634569e-18 
2 9 -3.1000000000000001 -9.2265216837822693e-16 -1.12562457356044e-34 1 5.17960561634569e-18 2.17318586961181e-17 5.17960561634569e-18 -1 -1 2.3520329448811322e-49 -2.17318586961181e-17 2
1 24 -1.6000000000000001 -12.199999999999999 1.5366744651813e-17 0.70710678118654502 -0.70710678118655002 
2 24 -1.6000000000000001 -9 -1.12562457356044e-34 1 5.17960561634569e-18 2.17318586961181e-17 5.17960561634569e-18 -1 -1 2.3520329448811322e-49 -2.17318586961181e-17 3.2000000000000002
1 24 -1.6000000000000001 -5.7999999999999998 -1.01962350275363e-16 0.70710678118654502 0.70710678118655002 
2 24 -2.7999999999999998 -9 -1.12562457356044e-34 1 5.17960561634569e-18 2.17318586961181e-17 5.17960561634569e-18 -1 -1 2.3520329448811322e-49 -2.17318586961181e-17 2
1 24 -1.6000000000000001 -11 -1.12562457356044e-34 1 5.17960561634569e-18 
1 24 -1.6000000000000001 -7 -1.12562457356044e-34 1 5.17960561634569e-18 
2 24 -3.1000000000000001 -9 -1.12562457356044e-34 1 5.17960561634569e-18 2.17318586961181e-17 5.17960561634569e-18 -1 -1 2.3520329448811322e-49 -2.17318586961181e-17 2
1 24 -1.6000000000000001 5.7999999999999998 1.5366744651813e-17 0.70710678118654502 -0.70710678118655002 
2 24 -1.6000000000000001 9 -1.12562457356044e-34 1 5.17960561634569e-18 2.17318586961181e-17 5.17960561634569e-18 -1 -1 2.3520329448811322e-49 -2.17318586961181e-17 3.2000000000000002
1 24 -1.6000000000000001 12.199999999999999 -1.01962350275363e-16 0.70710678118654502 0.70710678118655002 
2 24 -2.7999999999999998 9 -1.12562457356044e-34 1 5.17960561634569e-18 2.17318586961181e-17 5.17960561634569e-18 -1 -1 2.3520329448811322e-49 -2.17318586961181e-17 2
1 24 -1.6000000000000001 7 -1.12562457356044e-34 1 5.17960561634569e-18 
1 24 -1.6000000000000001 11 -1.12562457356044e-34 1 5.17960561634569e-18 
2 24 -3.1000000000000001 9 -1.12562457356044e-34 1 5.17960561634569e-18 2.17318586961181e-17 5.17960561634569e-18 -1 -1 2.3520329448811322e-49 -2.17318586961181e-17 2
1 3.2597788044177099e-16 -1.6000000000000001 -15 -2.17318586961181e-17 -5.17960561634569e-18 1 
2 -1.6298894022088599e-16 -3.8847042122592699e-17 7.5 -2.17318586961181e-17 -5.17960561634569e-18 1 -1 0 -2.17318586961181e-17 1.1256245735604424e-34 -1 -5.17960561634569e-18 1.6000000000000001
1 -1.6000000000000001 2.7363757210876201e-16 -15 -2.17318586961181e-17 -5.17960561634569e-18 1 
2 1.6298894022088599e-16 3.8847042122592699e-17 -7.5 2.17318586961181e-17 5.17960561634569e-18 -1 1 0 2.17318586961181e-17 1.1256245735604424e-34 -1 -5.17960561634569e-18 1.6000000000000001
2 -1.6298894022088599e-16 -3.8847042122592699e-17 7.5 -2.17318586961181e-17 -5.17960561634569e-18 1 -1 0 -2.17318586961181e-17 1.1256245735604424e-34 -1 -5.17960561634569e-18 1.6000000000000001
1 1.6000000000000001 7.7694084245185398e-17 -15 -2.17318586961181e-17 -5.17960561634569e-18 1 
2 1.6298894022088599e-16 3.8847042122592699e-17 -7.5 2.17318586961181e-17 5.17960561634569e-18 -1 1 0 2.17318586961181e-17 1.1256245735604424e-34 -1 -5.17960561634569e-18 1.6000000000000001
2 1.6298894022088599e-16 3.8847042122592699e-17 -7.5 2.58062250332399e-16 -5.17960561634569e-18 1 1 1.44922313854455e-33 -2.58062250332399e-16 -1.1256245735604862e-34 1 5.17960561634569e-18 3.1000000000000001
1 -3.1000000000000001 4.5733459198086498e-16 -15 -2.17318586961181e-17 -5.17960561634569e-18 1 
2 -1.6298894022088599e-16 -3.8847042122592699e-17 7.5 -2.58062250332399e-16 5.17960561634569e-18 -1 -1 -1.44922313854455e-33 2.58062250332399e-16 -1.1256245735604862e-34 1 5.17960561634569e-18 3.1000000000000001
1 3.1000000000000001 7.7694084245185398e-17 -15 -2.17318586961181e-17 -5.17960561634569e-18 1 
2 1.6298894022088599e-16 3.8847042122592699e-17 -7.5 2.58062250332399e-16 -5.17960561634569e-18 1 1 1.44922313854455e-33 -2.58062250332399e-16 -1.1256245735604862e-34 1 5.17960561634569e-18 3.1000000000000001
2 -1.6298894022088599e-16 -3.8847042122592699e-17 7.5 -2.58062250332399e-16 5.17960561634569e-18 -1 -1 -1.44922313854455e-33 2.58062250332399e-16 -1.1256245735604862e-34 1 5.17960561634569e-18 3.1000000000000001
1 2.8095541398136099 -1.31011661139618 -15 -2.17318586961181e-17 -5.17960561634569e-18 1 
1 30 -1.6000000000000001 -15 -2.17318586961181e-17 -5.17960561634569e-18 1 
2 28 -1.6000000000000001 -13 -1.12562457356044e-34 1 5.17960561634569e-18 -2.17318586961181e-17 -5.17960561634569e-18 1 1 -2.3520329448811322e-49 2.17318586961181e-17 2
1 30 -1.6000000000000001 -15 1 -0 2.17318586961181e-17 
1 4.5 -1.6000000000000001 -15 2.75649308614192e-16 -5.17960561634569e-18 1 
2 3.5 -1.6000000000000001 -8.5 1.12562457356044e-34 -1 -5.17960561634569e-18 -2.17318586961181e-17 -5.17960561634569e-18 1 -1 2.3520329448811322e-49 -2.17318586961181e-17 0.999999999999999
1 30 -1.6000000000000001 -7.5 -1 -7.4876528824801601e-34 1.22828430968616e-16 
1 30 -1.6000000000000001 7.5 1 7.4876528824801601e-34 -1.22828430968616e-16 
2 3.5 -1.6000000000000001 8.5 1.12562457356044e-34 -1 -5.17960561634569e-18 -2.17318586961181e-17 -5.17960561634569e-18 1 -1 2.3520329448811322e-49 -2.17318586961181e-17 1
1 4.5 -1.6000000000000001 -15 7.7395197073985196e-17 -5.17960561634569e-18 1 
1 30 -1.6000000000000001 15 1 -0 2.17318586961181e-17 
2 28 -1.6000000000000001 13 -1.12562457356044e-34 1 5.17960561634569e-18 -2.17318586961181e-17 -5.17960561634569e-18 1 1 -2.3520329448811322e-49 2.17318586961181e-17 2
2 24 -1.6000000000000001 9 -1.12562457356044e-34 1 5.17960561634569e-18 2.17318586961181e-17 5.17960561634569e-18 -1 -1 2.3520329448811322e-49 -2.17318586961181e-17 3.2000000000000002
2 24 -1.6000000000000001 -9 -1.12562457356044e-34 1 5.17960561634569e-18 2.17318586961181e-17 5.17960561634569e-18 -1 -1 2.3520329448811322e-49 -2.17318586961181e-17 3.2000000000000002
2 9 -1.6000000000000001 -9.1488275995370795e-16 -1.12562457356044e-34 1 5.17960561634569e-18 2.17318586961181e-17 5.17960561634569e-18 -1 -1 2.3520329448811322e-49 -2.17318586961181e-17 3.2000000000000002
1 30 -3.1000000000000001 -15 -2.17318586961181e-17 -5.17960561634569e-18 1 
1 30 -1.6000000000000001 -13 -1.12562457356044e-34 1 5.17960561634569e-18 
1 30 -1.6000000000000001 13 1.12562457356044e-34 -1 -5.17960561634569e-18 
1 30 -3.1000000000000001 -15 -1 0 -2.17318586961181e-17 
2 28 -3.1000000000000001 -13 1.12562457356044e-34 -1 -5.17960561634569e-18 2.17318586961181e-17 5.17960561634569e-18 -1 1 -2.3520329448811322e-49 2.17318586961181e-17 2
2 28 -3.1000000000000001 13 1.12562457356044e-34 -1 -5.17960561634569e-18 2.17318586961181e-17 5.17960561634569e-18 -1 1 -2.3520329448811322e-49 2.17318586961181e-17 2
1 30 -3.1000000000000001 15 -1 0 -2.17318586961181e-17 
1 4.5 -3.1000000000000001 -15 -7.7395197073985196e-17 5.17960561634569e-18 -1 
2 3.5 -3.1000000000000001 8.5 -1.12562457356044e-34 1 5.17960561634569e-18 2.17318586961181e-17 5.17960561634569e-18 -1 -1 2.3520329448811322e-49 -2.17318586961181e-17 1
1 30 -3.1000000000000001 7.5 -1 -7.4876528824801601e-34 1.22828430968616e-16 
1 8.9543864204528998e-16 -3.1000000000000001 -15 -2.17318586961181e-17 -5.17960561634569e-18 1 
1 30 -3.1000000000000001 -7.5 1 7.4876528824801601e-34 -1.22828430968616e-16 
2 3.5 -3.1000000000000001 -8.5 -1.12562457356044e-34 1 5.17960561634569e-18 2.17318586961181e-17 5.17960561634569e-18 -1 -1 2.3520329448811322e-49 -2.17318586961181e-17 0.999999999999999
1 4.5 -3.1000000000000001 -15 -2.75649308614192e-16 5.17960561634569e-18 -1 
2 9 -3.1000000000000001 -9.2265216837822693e-16 -1.12562457356044e-34 1 5.17960561634569e-18 2.17318586961181e-17 5.17960561634569e-18 -1 -1 2.3520329448811322e-49 -2.17318586961181e-17 2
2 24 -3.1000000000000001 -9 -1.12562457356044e-34 1 5.17960561634569e-18 2.17318586961181e-17 5.17960561634569e-18 -1 -1 2.3520329448811322e-49 -2.17318586961181e-17 2
2 24 -3.1000000000000001 9 -1.12562457356044e-34 1 5.17960561634569e-18 2.17318586961181e-17 5.17960561634569e-18 -1 -1 2.3520329448811322e-49 -2.17318586961181e-17 2
2 1.6298894022088599e-16 3.8847042122592699e-17 -7.5 2.58062250332399e-16 -5.17960561634569e-18 1 1 1.44922313854455e-33 -2.58062250332399e-16 -1.1256245735604862e-34 1 5.17960561634569e-18 3.1000000000000001
2 -1.6298894022088599e-16 -3.8847042122592699e-17 7.5 -2.58062250332399e-16 5.17960561634569e-18 -1 -1 -1.44922313854455e-33 2.58062250332399e-16 -1.1256245735604862e-34 1 5.17960561634569e-18 3.1000000000000001
1 1.4500924592586399 -0.67618921878512595 -15 -2.17318586961181e-17 -5.17960561634569e-18 1 
1 2.8095541398136099 -1.31011661139618 -7.5 0.90630778703664783 -0.42261826174070388 -1.1350935937843198e-16 
1 2.8095541398136099 -1.31011661139618 7.5 -0.90630778703664783 0.42261826174070388 1.1350935937843198e-16 
2 -1.6298894022088599e-16 -3.8847042122592699e-17 7.5 -2.17318586961181e-17 -5.17960561634569e-18 1 -1 0 -2.17318586961181e-17 1.1256245735604424e-34 -1 -5.17960561634569e-18 1.6000000000000001
2 1.6298894022088599e-16 3.8847042122592699e-17 -7.5 2.17318586961181e-17 5.17960561634569e-18 -1 1 0 2.17318586961181e-17 1.1256245735604424e-34 -1 -5.17960561634569e-18 1.6000000000000001
1 28 -3.1000000000000001 -15 1.12562457356044e-34 -1 -5.17960561634569e-18 
1 4.5 7.7694084245185398e-17 -15 1.12562457356044e-34 -1 -5.17960561634569e-18 
1 28 -7.7694084245185398e-17 15 -1.12562457356044e-34 1 5.17960561634569e-18 
1 4.5 -7.7694084245185398e-17 15 1.12562457356044e-34 -1 -5.17960561634569e-18 
1 3.5 -11.6 7.5 -1.12562457356044e-34 1 5.17960561634569e-18 
1 4.5 -11.6 8.5 -1.12562457356044e-34 1 5.17960561634569e-18 
1 4.5 -11.6 -8.5 -1.12562457356044e-34 1 5.17960561634569e-18 
1 3.5 -11.6 -7.5 -1.12562457356044e-34 1 5.17960561634569e-18 
2 24 -2.7999999999999998 9 -1.12562457356044e-34 1 5.17960561634569e-18 2.17318586961181e-17 5.17960561634569e-18 -1 -1 2.3520329448811322e-49 -2.17318586961181e-17 2
2 24 -2.7999999999999998 -9 -1.12562457356044e-34 1 5.17960561634569e-18 2.17318586961181e-17 5.17960561634569e-18 -1 -1 2.3520329448811322e-49 -2.17318586961181e-17 2
2 9 -2.7999999999999998 -9.210982866933231e-16 -1.12562457356044e-34 1 5.17960561634569e-18 2.17318586961181e-17 5.17960561634569e-18 -1 -1 2.3520329448811322e-49 -2.17318586961181e-17 2
Polygon3D 0
PolygonOnTriangulations 0
Surfaces 72
4 2.5554810603477398e-15 0 -9.3431457505076203 0 -1 -0 1 0 0 0 -0 1 6
1 0 0 -15 0 0 1 1 0 -0 -0 1 0 
4 2.5554810603477398e-15 0 -9.3431457505076203 0 -1 -0 1 0 0 0 -0 1 6
1 1.5 0 -15 -0 -0 -1 0 -1 0 -1 0 0 
4 4.7704895589362203e-15 0 9.3431457505076203 0 -1 -0 1 0 0 0 -0 1 6
4 4.7704895589362203e-15 0 9.3431457505076203 0 -1 -0 1 0 0 0 -0 1 6
1 0 0 15 0 0 1 1 0 -0 -0 1 0 
1 1.50000000000001 0 15 0 0 1 1 0 -0 -0 1 0 
2 0 0 -30 0 0 1 -1 0 0 0 -1 0 1.5
2 0 0 -30 0 0 1 -1 0 0 0 -1 0 1.5
3 -9 -1.6000000000000001 -9 -0 1 -0 0 0 1 1 0 -0 3.2000000000000002
0.78539816339745006
3 -9 -1.6000000000000001 -9 -0 1 -0 0 0 1 1 0 -0 3.2000000000000002
0.78539816339745006
1 -15 -1.6000000000000001 15 0 -1 0 0 0 -1 1 0 0 
2 -9 -1.6000000000000001 -9 0 -1 0 0 0 1 -1 0 0 2
2 -9 -1.6000000000000001 -9 0 -1 0 0 0 1 -1 0 0 2
1 -15 -3.1000000000000001 15 -0 1 0 1 0 0 0 0 -1 
3 -9 -1.6000000000000001 9 -0 1 -0 0 0 1 1 0 -0 3.2000000000000002
0.78539816339745006
3 -9 -1.6000000000000001 9 -0 1 -0 0 0 1 1 0 -0 3.2000000000000002
0.78539816339745006
2 -9 -1.6000000000000001 9 0 -1 0 0 0 1 -1 0 0 2
2 -9 -1.6000000000000001 9 0 -1 0 0 0 1 -1 0 0 2
2 0 0 15 0 0 1 -1 0 0 0 -1 0 1.6000000000000001
1 -4.5 -10 7.5999999999999996 -0 0 1 1 0 0 0 1 -0 
2 0 0 15 0 0 1 -1 0 0 0 -1 0 1.6000000000000001
2 0 0 15 0 0 1 -1 0 0 0 -1 0 1.6000000000000001
2 0 0 15 0 0 1 -1 0 0 0 -1 0 3.1000000000000001
2 0 0 15 0 0 1 -1 0 0 0 -1 0 3.1000000000000001
2 0 0 15 0 0 1 -1 0 0 0 -1 0 3.1000000000000001
1 -2.8095541398136099 -1.31011661139618 15 -0.42261826174070394 0.90630778703664794 0 0 0 1 0.90630778703664794 0.42261826174070394 -0 
2 0 0 15 0 0 1 -1 0 0 0 -1 0 1.6000000000000001
2 0 0 15 0 0 1 -1 0 0 0 -1 0 1.6000000000000001
1 -4.5 -10 -7.5999999999999996 0 0 -1 0 -1 0 -1 -0 -0 
2 0 0 15 0 0 1 -1 0 0 0 -1 0 1.6000000000000001
2 0 0 15 0 0 1 -1 0 0 0 -1 0 3.1000000000000001
2 0 0 15 0 0 1 -1 0 0 0 -1 0 3.1000000000000001
2 0 0 15 0 0 1 -1 0 0 0 -1 0 3.1000000000000001
1 -2.8095541398136099 -1.31011661139618 15 -0.42261826174070394 0.90630778703664794 0 0 0 1 0.90630778703664794 0.42261826174070394 -0 
2 -13.4 0 13.4 0 -1 0 0 0 1 -1 0 0 1.6000000000000001
2 -13.4 -1.6000000000000001 -13.4 0 1 0 0 0 -1 -1 0 0 1.6000000000000001
1 -15 -1.6000000000000001 15 1 0 -0 0 1 0 0 -0 1 
1 -4.5 -10 -7.5999999999999996 -1 0 0 0 0 1 0 1 -0 
3 9 -1.6000000000000001 -9.1488275995370795e-16 -1.12562457356044e-34 1 5.17960561634569e-18 2.17318586961181e-17 5.17960561634569e-18 -1 -1 2.3520329448811322e-49 -2.17318586961181e-17 3.2000000000000002
0.78539816339744895
3 9 -1.6000000000000001 -9.1488275995370795e-16 -1.12562457356044e-34 1 5.17960561634569e-18 2.17318586961181e-17 5.17960561634569e-18 -1 -1 2.3520329448811322e-49 -2.17318586961181e-17 3.2000000000000002
0.78539816339744895
1 30 -1.6000000000000001 -15 1.12562457356044e-34 -1 -5.17960561634569e-18 -2.17318586961181e-17 -5.17960561634569e-18 1 -1 2.3520329448811322e-49 -2.17318586961181e-17 
2 9 -1.6000000000000001 -9.1488275995370795e-16 1.12562457356044e-34 -1 -5.17960561634569e-18 2.17318586961181e-17 5.17960561634569e-18 -1 1 -2.3520329448811322e-49 2.17318586961181e-17 2
2 9 -1.6000000000000001 -9.1488275995370795e-16 1.12562457356044e-34 -1 -5.17960561634569e-18 2.17318586961181e-17 5.17960561634569e-18 -1 1 -2.3520329448811322e-49 2.17318586961181e-17 2
1 30 -3.1000000000000001 -15 -1.12562457356044e-34 1 5.17960561634569e-18 -1 2.3520329448811322e-49 -2.17318586961181e-17 -2.17318586961181e-17 -5.17960561634569e-18 1 
3 24 -1.6000000000000001 -9 -1.12562457356044e-34 1 5.17960561634569e-18 2.17318586961181e-17 5.17960561634569e-18 -1 -1 2.3520329448811322e-49 -2.17318586961181e-17 3.2000000000000002
0.78539816339745105
3 24 -1.6000000000000001 -9 -1.12562457356044e-34 1 5.17960561634569e-18 2.17318586961181e-17 5.17960561634569e-18 -1 -1 2.3520329448811322e-49 -2.17318586961181e-17 3.2000000000000002
0.78539816339745105
2 24 -1.6000000000000001 -9 1.12562457356044e-34 -1 -5.17960561634569e-18 2.17318586961181e-17 5.17960561634569e-18 -1 1 -2.3520329448811322e-49 2.17318586961181e-17 2
2 24 -1.6000000000000001 -9 1.12562457356044e-34 -1 -5.17960561634569e-18 2.17318586961181e-17 5.17960561634569e-18 -1 1 -2.3520329448811322e-49 2.17318586961181e-17 2
3 24 -1.6000000000000001 9 -1.12562457356044e-34 1 5.17960561634569e-18 2.17318586961181e-17 5.17960561634569e-18 -1 -1 2.3520329448811322e-49 -2.17318586961181e-17 3.2000000000000002
0.78539816339745105
3 24 -1.6000000000000001 9 -1.12562457356044e-34 1 5.17960561634569e-18 2.17318586961181e-17 5.17960561634569e-18 -1 -1 2.3520329448811322e-49 -2.17318586961181e-17 3.2000000000000002
0.78539816339745105
2 24 -1.6000000000000001 9 1.12562457356044e-34 -1 -5.17960561634569e-18 2.17318586961181e-17 5.17960561634569e-18 -1 1 -2.3520329448811322e-49 2.17318586961181e-17 2
2 24 -1.6000000000000001 9 1.12562457356044e-34 -1 -5.17960561634569e-18 2.17318586961181e-17 5.17960561634569e-18 -1 1 -2.3520329448811322e-49 2.17318586961181e-17 2
2 3.2597788044177099e-16 7.7694084245185398e-17 -15 2.17318586961181e-17 5.17960561634569e-18 -1 1 0 2.17318586961181e-17 1.1256245735604424e-34 -1 -5.17960561634569e-18 1.6000000000000001
1 3.5 -11.6 7.5 -1.22828430968616e-16 5.17960561634569e-18 -1 -1 -7.4876528824801601e-34 1.22828430968616e-16 -1.1256245735604366e-34 1 5.17960561634569e-18 
2 3.2597788044177099e-16 7.7694084245185398e-17 -15 2.17318586961181e-17 5.17960561634569e-18 -1 1 0 2.17318586961181e-17 1.1256245735604424e-34 -1 -5.17960561634569e-18 1.6000000000000001
1 3.5 -11.6 -7.5 1.22828430968616e-16 -5.17960561634569e-18 1 1 7.4876528824801601e-34 -1.22828430968616e-16 -1.1256245735604366e-34 1 5.17960561634569e-18 
2 3.2597788044177099e-16 7.7694084245185398e-17 -15 2.17318586961181e-17 5.17960561634569e-18 -1 1 0 2.17318586961181e-17 1.1256245735604424e-34 -1 -5.17960561634569e-18 1.6000000000000001
2 3.2597788044177099e-16 7.7694084245185398e-17 -15 2.17318586961181e-17 5.17960561634569e-18 -1 1 0 2.17318586961181e-17 1.1256245735604424e-34 -1 -5.17960561634569e-18 3.1000000000000001
2 3.2597788044177099e-16 7.7694084245185398e-17 -15 2.17318586961181e-17 5.17960561634569e-18 -1 1 0 2.17318586961181e-17 1.1256245735604424e-34 -1 -5.17960561634569e-18 3.1000000000000001
2 3.2597788044177099e-16 7.7694084245185398e-17 -15 2.17318586961181e-17 5.17960561634569e-18 -1 1 0 2.17318586961181e-17 1.1256245735604424e-34 -1 -5.17960561634569e-18 3.1000000000000001
1 2.8095541398136099 -1.31011661139618 -15 0.42261826174070394 0.90630778703664794 1.3878597250420899e-17 2.1731858696118109e-17 5.1796056163457001e-18 -1 -0.90630778703664794 0.42261826174070394 -1.750675684098953e-17 
1 30 -1.6000000000000001 -15 -1 0 -2.17318586961181e-17 -1.1256245735604424e-34 1 5.17960561634569e-18 2.17318586961181e-17 5.17960561634569e-18 -1 
2 28 6.7334873012494001e-17 -13 1.12562457356044e-34 -1 -5.17960561634569e-18 2.17318586961181e-17 5.17960561634569e-18 -1 1 -2.3520329448811322e-49 2.17318586961181e-17 2
1 3.2597788044177099e-16 7.7694084245185398e-17 -15 2.17318586961181e-17 5.17960561634569e-18 -1 -1 0 -2.17318586961181e-17 -1.1256245735604424e-34 1 5.17960561634569e-18 
1 4.5 -11.6 -26 1 1.5403171643959201e-33 -2.75649308614192e-16 -1.1256245735604486e-34 1 5.17960561634569e-18 2.75649308614192e-16 -5.17960561634569e-18 1 
2 3.5 -11.6 -8.5 1.12562457356044e-34 -1 -5.17960561634569e-18 2.17318586961181e-17 5.17960561634569e-18 -1 1 -2.3520329448811322e-49 2.17318586961181e-17 0.999999999999999
2 3.5 -11.6 8.5 1.12562457356044e-34 -1 -5.17960561634569e-18 2.17318586961181e-17 5.17960561634569e-18 -1 1 -2.3520329448811322e-49 2.17318586961181e-17 1
1 4.5 -11.6 26 1 5.1343905479863997e-34 -7.7395197073985196e-17 -1.1256245735604469e-34 1 5.17960561634569e-18 7.7395197073985196e-17 -5.17960561634569e-18 1 
1 -3.2597788044177099e-16 -7.7694084245185398e-17 15 2.17318586961181e-17 5.17960561634569e-18 -1 -1 0 -2.17318586961181e-17 -1.1256245735604424e-34 1 5.17960561634569e-18 
2 28 -1.6000000000000001 13 -1.12562457356044e-34 1 5.17960561634569e-18 -2.17318586961181e-17 -5.17960561634569e-18 1 1 -2.3520329448811322e-49 2.17318586961181e-17 2
Triangulations 0

TShapes 477
Ve
1e-07
-1.81261557407329 -0.845236523481405 -15
0 0

0101101
*
Ve
1e-07
-1.99999999999999 -2.4492935982947e-16 -15
0 0

0101101
*
Ed
 1e-07 1 1 0
1  1 0 2.70526034059121 3.14159265358979
2  1 1 0 2.70526034059121 3.14159265358979
4 C0 1 0 2 0
0

0101000
+477 0 -476 0 *
Ve
1e-07
2.92287510009195e-15 0 -15.3431457505076
0 0

0101101
*
Ed
 1e-07 1 1 0
1  2 0 4.37255207093057 4.71238898038469
2  2 1 0 4.37255207093057 4.71238898038469
2  3 3 0 4.37255207093057 4.71238898038469
4 CN 1 0 3 0
0

0101000
+476 0 -474 0 *
Ve
1e-07
2 0 -15
0 0

0101101
*
Ed
 1e-07 1 1 0
1  3 0 2.80175574413567 3.14159265358979
2  4 1 0 2.80175574413567 3.14159265358979
2  5 3 0 2.80175574413567 3.14159265358979
4 CN 1 0 3 0
0

0101000
+472 0 -474 0 *
Ve
1e-07
-1.2 -1.6 -15
0 0

0101101
*
Ed
 1e-07 1 1 0
1  4 0 0 2.21429743558818
2  6 1 0 0 2.21429743558818
4 C0 1 0 2 0
0

0101000
+472 0 -470 0 *
Ed
 1e-07 1 1 0
1  5 0 5.35589008917797 5.846852994181
2  7 1 0 5.35589008917797 5.846852994181
4 C0 1 0 4 0
0

0101000
+470 0 -477 0 *
Wi

0101100
+475 0 +473 0 -471 0 +469 0 +468 0 *
Fa
0  1e-07 1 0

0111000
+467 0 *
Ve
1e-07
5.13788359868043e-15 0 15.3431457505076
0 0

0101101
*
Ve
1e-07
2 0 15
0 0

0101101
*
Ed
 1e-07 1 1 0
1  6 0 0 0.339836909454121
2  8 5 0 0 0.339836909454121
2  9 6 0 0 0.339836909454121
4 CN 5 0 6 0
0

0101000
+465 0 -464 0 *
Ve
1e-07
-1.99999999999999 -2.4492935982947e-16 15
0 0

0101101
*
Ed
 1e-07 1 1 0
1  7 0 1.5707963267949 1.91063323624902
2  10 5 0 1.5707963267949 1.91063323624902
2  11 6 0 1.5707963267949 1.91063323624902
4 CN 5 0 6 0
0

0101000
+465 0 -462 0 *
Ve
1e-07
-1.8126155740733 -0.845236523481408 15
0 0

0101101
*
Ed
 1e-07 1 1 0
1  8 0 2.70526034059121 3.14159265358979
2  12 5 0 2.70526034059121 3.14159265358979
4 C0 5 0 7 0
0

0101000
+460 0 -462 0 *
Ve
1e-07
-1.19999999999999 -1.6 15
0 0

0101101
*
Ed
 1e-07 1 1 0
1  9 0 5.35589008917797 5.846852994181
2  13 5 0 5.35589008917797 5.846852994181
4 C0 5 0 8 0
0

0101000
+458 0 -460 0 *
Ed
 1e-07 1 1 0
1  10 0 0 2.21429743558818
2  14 5 0 0 2.21429743558818
4 C0 5 0 7 0
0

0101000
+464 0 -458 0 *
Wi

0101100
-463 0 +461 0 -459 0 -457 0 -456 0 *
Fa
0  1e-07 5 0

0111000
+455 0 *
Ve
1e-07
-1.50000000000001 0 15
0 0

0101101
*
Ve
1e-07
1.50000000000001 1.83697019872104e-16 15
0 0

0101101
*
Ed
 1e-07 1 1 0
1  11 0 0 3.14159265358979
2  15 9 0 0 3.14159265358979
4 C0 9 0 8 0
0

0101000
+453 0 -452 0 *
Ve
1e-07
1.5 1.83697019872103e-16 -15
0 0

0101101
*
Ed
 1e-07 1 1 0
1  12 0 -45 -15
2  16 9 0 -45 -15
2  17 10 0 -45 -15
4 CN 9 0 10 0
0

0101000
+452 0 -450 0 *
Ve
1e-07
-1.5 0 -15
0 0

0101101
*
Ed
 1e-07 1 1 0
1  13 0 0 3.14159265358979
2  18 9 0 0 3.14159265358979
4 C0 9 0 4 0
0

0101000
+448 0 -450 0 *
Ed
 1e-07 1 1 0
1  14 0 -45 -15
2  19 9 0 -45 -15
2  20 10 0 -45 -15
4 CN 9 0 10 0
0

0101000
+453 0 -448 0 *
Wi

0101100
+451 0 +449 0 -447 0 -446 0 *
Fa
0  1e-07 9 0

0111000
+445 0 *
Ve
1e-07
-9 -2.8 -7
0 0

0101101
*
Ve
1e-07
-9 -1.6 -5.8
0 0

0101101
*
Ed
 1e-07 1 1 0
1  15 0 -1.69705627484771 0
2  21 11 0 -1.69705627484771 0
2  22 12 0 -1.69705627484771 0
4 CN 11 0 12 0
0

0101000
+443 0 -442 0 *
Ve
1e-07
-9 -1.6 -12.2
0 0

0101101
*
Ed
 1e-07 1 1 0
1  16 0 3.14159265358979 6.28318530717959
2  23 11 0 3.14159265358979 6.28318530717959
4 C0 11 0 13 0
0

0101000
+440 0 -442 0 *
Ve
1e-07
-9 -2.8 -11
0 0

0101101
*
Ed
 1e-07 1 1 0
1  17 0 -1.69705627484771 0
2  24 11 0 -1.69705627484771 0
2  25 12 0 -1.69705627484771 0
4 CN 11 0 12 0
0

0101000
+438 0 -440 0 *
Ed
 1e-07 1 1 0
1  18 0 3.14159265358979 6.28318530717959
2  26 11 0 3.14159265358979 6.28318530717959
2  27 14 0 3.14159265358979 6.28318530717959
4 C0 11 0 14 0
0

0101000
+438 0 -443 0 *
Wi

0101100
+441 0 -439 0 -437 0 +436 0 *
Fa
0  1e-07 11 0

0111000
+435 0 *
Ve
1e-07
-9 -3.1 -7
0 0

0101101
*
Ed
 1e-07 1 1 0
1  19 0 -1.5 -1.2
2  28 14 0 -1.5 -1.2
2  29 15 0 -1.5 -1.2
4 CN 14 0 15 0
0

0101000
+433 0 -443 0 *
Ve
1e-07
-9 -3.1 -11
0 0

0101101
*
Ed
 1e-07 1 1 0
1  20 0 -1.5 -1.2
2  30 14 0 -1.5 -1.2
2  31 15 0 -1.5 -1.2
4 CN 14 0 15 0
0

0101000
+431 0 -438 0 *
Ed
 1e-07 1 1 0
1  21 0 3.14159265358979 6.28318530717959
2  32 14 0 3.14159265358979 6.28318530717959
4 C0 14 0 16 0
0

0101000
+431 0 -433 0 *
Wi

0101100
+432 0 -436 0 -430 0 +429 0 *
Fa
0  1e-07 14 0

0111000
+428 0 *
Ve
1e-07
-9 -2.8 11
0 0

0101101
*
Ve
1e-07
-9 -1.6 12.2
0 0

0101101
*
Ed
 1e-07 1 1 0
1  22 0 -1.69705627484771 0
2  33 17 0 -1.69705627484771 0
2  34 18 0 -1.69705627484771 0
4 CN 17 0 18 0
0

0101000
+426 0 -425 0 *
Ve
1e-07
-9 -1.6 5.8
0 0

0101101
*
Ed
 1e-07 1 1 0
1  23 0 3.14159265358979 6.28318530717959
2  35 17 0 3.14159265358979 6.28318530717959
4 C0 17 0 13 0
0

0101000
+423 0 -425 0 *
Ve
1e-07
-9 -2.8 7
0 0

0101101
*
Ed
 1e-07 1 1 0
1  24 0 -1.69705627484771 0
2  36 17 0 -1.69705627484771 0
2  37 18 0 -1.69705627484771 0
4 CN 17 0 18 0
0

0101000
+421 0 -423 0 *
Ed
 1e-07 1 1 0
1  25 0 3.14159265358979 6.28318530717959
2  38 17 0 3.14159265358979 6.28318530717959
2  39 19 0 3.14159265358979 6.28318530717959
4 C0 17 0 19 0
0

0101000
+421 0 -426 0 *
Wi

0101100
+424 0 -422 0 -420 0 +419 0 *
Fa
0  1e-07 17 0

0111000
+418 0 *
Ve
1e-07
-9 -3.1 11
0 0

0101101
*
Ed
 1e-07 1 1 0
1  26 0 -1.5 -1.2
2  40 19 0 -1.5 -1.2
2  41 20 0 -1.5 -1.2
4 CN 19 0 20 0
0

0101000
+416 0 -426 0 *
Ve
1e-07
-9 -3.1 7
0 0

0101101
*
Ed
 1e-07 1 1 0
1  27 0 -1.5 -1.2
2  42 19 0 -1.5 -1.2
2  43 20 0 -1.5 -1.2
4 CN 19 0 20 0
0

0101000
+414 0 -421 0 *
Ed
 1e-07 1 1 0
1  28 0 3.14159265358979 6.28318530717959
2  44 19 0 3.14159265358979 6.28318530717959
4 C0 19 0 16 0
0

0101000
+414 0 -416 0 *
Wi

0101100
+415 0 -419 0 -413 0 +412 0 *
Fa
0  1e-07 19 0

0111000
+411 0 *
Ve
1e-07
0 -1.6 15
0 0

0101101
*
Ve
1e-07
0 -1.6 7.6
0 0

0101101
*
Ed
 1e-07 1 1 0
1  29 0 -0 7.4
2  45 21 0 -0 7.4
4 G1 21 0 13 0
0

0101000
+409 0 -408 0 *
Ve
1e-07
1.6 1.95943487863576e-16 7.6
0 0

0101101
*
Ed
 1e-07 1 1 0
1  30 0 0 1.5707963267949
2  46 21 0 0 1.5707963267949
4 C0 21 0 22 0
0

0101000
+406 0 -408 0 *
Ve
1e-07
1.6 1.95943487863576e-16 15
0 0

0101101
*
Ed
 1e-07 1 1 0
1  31 0 -0 7.4
2  47 21 0 -0 7.4
2  48 23 0 -0 7.4
4 CN 21 0 23 0
0

0101000
+404 0 -406 0 *
Ed
 1e-07 1 1 0
1  32 0 0 1.5707963267949
2  49 21 0 0 1.5707963267949
4 C0 21 0 8 0
0

0101000
+404 0 -409 0 *
Wi

0101100
+407 0 -405 0 -403 0 +402 0 *
Fa
0  1e-07 21 0

0111000
+401 0 *
Ve
1e-07
-1.6 0 7.6
0 0

0101101
*
Ed
 1e-07 1 1 0
1  33 0 3.14159265358979 6.28318530717959
2  50 23 0 3.14159265358979 6.28318530717959
4 C0 23 0 22 0
0

0101000
+399 0 -406 0 *
Ve
1e-07
-1.6 0 15
0 0

0101101
*
Ed
 1e-07 1 1 0
1  34 0 -0 7.4
2  51 23 0 -0 7.4
2  52 24 0 -0 7.4
4 CN 23 0 24 0
0

0101000
+397 0 -399 0 *
Ed
 1e-07 1 1 0
1  35 0 3.14159265358979 6.28318530717959
2  53 23 0 3.14159265358979 6.28318530717959
4 C0 23 0 8 0
0

0101000
+397 0 -404 0 *
Wi

0101100
-398 0 -396 0 +395 0 +403 0 *
Fa
0  1e-07 23 0

0111000
+394 0 *
Ve
1e-07
3.1 3.79640507735679e-16 15
0 0

0101101
*
Ve
1e-07
-3.1 0 15
0 0

0101101
*
Ed
 1e-07 1 1 0
1  36 0 0 3.14159265358979
2  54 25 0 0 3.14159265358979
4 C0 25 0 7 0
0

0101000
+392 0 -391 0 *
Ve
1e-07
3.1 3.79640507735679e-16 7.6
0 0

0101101
*
Ed
 1e-07 1 1 0
1  37 0 -0 7.4
2  55 25 0 -0 7.4
2  56 26 0 -0 7.4
4 CN 25 0 26 0
0

0101000
+392 0 -389 0 *
Ve
1e-07
-3.1 0 7.6
0 0

0101101
*
Ed
 1e-07 1 1 0
1  38 0 0 3.14159265358979
2  57 25 0 0 3.14159265358979
4 C0 25 0 22 0
0

0101000
+389 0 -387 0 *
Ed
 1e-07 1 1 0
1  39 0 -0 7.4
2  58 25 0 -0 7.4
2  59 27 0 -0 7.4
4 CN 25 0 27 0
0

0101000
+391 0 -387 0 *
Wi

0101100
-390 0 +388 0 +386 0 -385 0 *
Fa
0  1e-07 25 0

0111000
+384 0 *
Ve
1e-07
-2.80955413981361 -1.31011661139618 15
0 0

0101101
*
Ed
 1e-07 1 1 0
1  40 0 3.14159265358979 3.57792496658838
2  60 27 0 3.14159265358979 3.57792496658838
4 C0 27 0 7 0
0

0101000
+391 0 -382 0 *
Ve
1e-07
-2.80955413981361 -1.31011661139618 7.6
0 0

0101101
*
Ed
 1e-07 1 1 0
1  41 0 3.14159265358979 3.57792496658838
2  61 27 0 3.14159265358979 3.57792496658838
4 C0 27 0 22 0
0

0101000
+387 0 -380 0 *
Ed
 1e-07 1 1 0
1  42 0 -0 7.4
2  62 27 0 -0 7.4
4 C0 27 0 28 0
0

0101000
+382 0 -380 0 *
Wi

0101100
-381 0 +385 0 +379 0 -378 0 *
Fa
0  1e-07 27 0

0111000
+377 0 *
Ve
1e-07
0 -1.6 -7.6
0 0

0101101
*
Ve
1e-07
0 -1.6 -15
0 0

0101101
*
Ed
 1e-07 1 1 0
1  43 0 22.6 30
2  63 29 0 22.6 30
4 G1 29 0 13 0
0

0101000
+375 0 -374 0 *
Ve
1e-07
1.6 1.95943487863576e-16 -15
0 0

0101101
*
Ed
 1e-07 1 1 0
1  44 0 0 1.5707963267949
2  64 29 0 0 1.5707963267949
4 C0 29 0 4 0
0

0101000
+372 0 -374 0 *
Ve
1e-07
1.6 1.95943487863576e-16 -7.6
0 0

0101101
*
Ed
 1e-07 1 1 0
1  45 0 22.6 30
2  65 29 0 22.6 30
2  66 30 0 22.6 30
4 CN 29 0 30 0
0

0101000
+370 0 -372 0 *
Ed
 1e-07 1 1 0
1  46 0 1.5707963267949 3.14159265358979
2  67 29 0 1.5707963267949 3.14159265358979
4 C0 29 0 31 0
0

0101000
+375 0 -370 0 *
Wi

0101100
+373 0 -371 0 -369 0 -368 0 *
Fa
0  1e-07 29 0

0111000
+367 0 *
Ve
1e-07
-1.6 0 -15
0 0

0101101
*
Ed
 1e-07 1 1 0
1  47 0 3.14159265358979 6.28318530717959
2  68 30 0 3.14159265358979 6.28318530717959
4 C0 30 0 4 0
0

0101000
+365 0 -372 0 *
Ve
1e-07
-1.6 0 -7.6
0 0

0101101
*
Ed
 1e-07 1 1 0
1  48 0 22.6 30
2  69 30 0 22.6 30
2  70 32 0 22.6 30
4 CN 30 0 32 0
0

0101000
+363 0 -365 0 *
Ed
 1e-07 1 1 0
1  49 0 3.14159265358979 6.28318530717959
2  71 30 0 3.14159265358979 6.28318530717959
4 C0 30 0 31 0
0

0101000
+370 0 -363 0 *
Wi

0101100
-364 0 -362 0 -361 0 +369 0 *
Fa
0  1e-07 30 0

0111000
+360 0 *
Ve
1e-07
-3.1 0 -7.6
0 0

0101101
*
Ve
1e-07
3.1 3.79640507735679e-16 -7.6
0 0

0101101
*
Ed
 1e-07 1 1 0
1  50 0 0 3.14159265358979
2  72 33 0 0 3.14159265358979
4 C0 33 0 31 0
0

0101000
+358 0 -357 0 *
Ve
1e-07
3.1 3.79640507735679e-16 -15
0 0

0101101
*
Ed
 1e-07 1 1 0
1  51 0 22.6 30
2  73 33 0 22.6 30
2  74 34 0 22.6 30
4 CN 33 0 34 0
0

0101000
+357 0 -355 0 *
Ve
1e-07
-3.1 0 -15
0 0

0101101
*
Ed
 1e-07 1 1 0
1  52 0 0 3.14159265358979
2  75 33 0 0 3.14159265358979
4 C0 33 0 2 0
0

0101000
+355 0 -353 0 *
Ed
 1e-07 1 1 0
1  53 0 22.6 30
2  76 33 0 22.6 30
2  77 35 0 22.6 30
4 CN 33 0 35 0
0

0101000
+358 0 -353 0 *
Wi

0101100
+356 0 +354 0 +352 0 -351 0 *
Fa
0  1e-07 33 0

0111000
+350 0 *
Ve
1e-07
-2.80955413981361 -1.31011661139618 -7.6
0 0

0101101
*
Ed
 1e-07 1 1 0
1  54 0 5.846852994181 6.28318530717959
2  78 35 0 5.846852994181 6.28318530717959
4 C0 35 0 31 0
0

0101000
+348 0 -358 0 *
Ve
1e-07
-2.80955413981361 -1.31011661139618 -15
0 0

0101101
*
Ed
 1e-07 1 1 0
1  55 0 3.14159265358979 3.57792496658838
2  79 35 0 3.14159265358979 3.57792496658838
4 C0 35 0 2 0
0

0101000
+353 0 -346 0 *
Ed
 1e-07 1 1 0
1  56 0 22.6 30
2  80 35 0 22.6 30
4 C0 35 0 36 0
0

0101000
+348 0 -346 0 *
Wi

0101100
+347 0 +351 0 +345 0 -344 0 *
Fa
0  1e-07 35 0

0111000
+343 0 *
Ed
 1e-07 1 1 0
1  57 0 0 1.1
4 C0 7 0 28 0
0

0101000
+382 0 -460 0 *
Ed
 1e-07 1 1 0
1  58 0 3.14159265358979 6.28318530717959
2  81 6 0 3.14159265358979 6.28318530717959
4 C0 7 0 6 0
0

0101000
+462 0 -464 0 *
Ve
1e-07
-13.4 -1.6 15
0 0

0101101
*
Ed
 1e-07 1 1 0
1  59 0 -13.8 -1.6
4 C0 7 0 13 0
0

0101000
+458 0 -339 0 *
Ve
1e-07
-13.4 -3.1 15
0 0

0101101
*
Ed
 1e-07 1 1 0
1  60 0 -1.5 0
2  82 37 0 -1.5 0
4 G1 7 0 37 0
0

0101000
+339 0 -337 0 *
Ve
1e-07
-5.69460761603519e-16 -3.1 15
0 0

0101101
*
Ed
 1e-07 1 1 0
1  61 0 1.6 15
4 C0 7 0 16 0
0

0101000
+337 0 -335 0 *
Ed
 1e-07 1 1 0
1  62 0 4.71238898038469 6.28318530717959
2  83 26 0 4.71238898038469 6.28318530717959
4 C0 7 0 26 0
0

0101000
+335 0 -392 0 *
Wi

0101100
+341 0 +459 0 +340 0 +456 0 +338 0 +336 0 +334 0 +333 0 +390 0 +381 0 
*
Fa
0  1e-07 7 0

0111000
+332 0 *
Ed
 1e-07 1 1 0
1  63 0 0 1.10000000000001
4 C0 2 0 36 0
0

0101000
+346 0 -477 0 *
Ve
1e-07
-5.69460761603519e-16 -3.1 -15
0 0

0101101
*
Ed
 1e-07 1 1 0
1  64 0 4.71238898038469 6.28318530717959
2  84 34 0 4.71238898038469 6.28318530717959
4 C0 2 0 34 0
0

0101000
+329 0 -355 0 *
Ve
1e-07
-13.4 -3.1 -15
0 0

0101101
*
Ed
 1e-07 1 1 0
1  65 0 1.6 15
4 C0 2 0 16 0
0

0101000
+327 0 -329 0 *
Ve
1e-07
-13.4 -1.6 -15
0 0

0101101
*
Ed
 1e-07 1 1 0
1  66 0 -3.1 -1.6
2  85 38 0 -3.1 -1.6
4 G1 2 0 38 0
0

0101000
+327 0 -325 0 *
Ed
 1e-07 1 1 0
1  67 0 -13.8 -1.6
4 C0 2 0 13 0
0

0101000
+470 0 -325 0 *
Ed
 1e-07 1 1 0
1  68 0 3.14159265358979 6.28318530717959
2  86 3 0 3.14159265358979 6.28318530717959
4 C0 2 0 3 0
0

0101000
+476 0 -472 0 *
Wi

0101100
-475 0 -330 0 -345 0 -352 0 -328 0 -326 0 +324 0 -323 0 -469 0 -322 0 
*
Fa
0  1e-07 2 0

0111000
-321 0 *
Ve
1e-07
-15 -1.6 13.4
0 0

0101101
*
Ve
1e-07
-15 -1.6 -13.4
0 0

0101101
*
Ed
 1e-07 1 1 0
1  69 0 1.6 28.4
4 C0 13 0 39 0
0

0101000
+319 0 -318 0 *
Ed
 1e-07 1 1 0
1  70 0 1.5707963267949 3.14159265358979
2  87 37 0 1.5707963267949 3.14159265358979
4 C0 13 0 37 0
0

0101000
+319 0 -339 0 *
Ed
 1e-07 1 1 0
1  71 0 -15 -13.8
4 C0 13 0 8 0
0

0101000
+409 0 -458 0 *
Ve
1e-07
-4.5 -1.6 7.6
0 0

0101101
*
Ed
 1e-07 1 1 0
1  72 0 -15 -10.5
4 C0 13 0 22 0
0

0101000
+408 0 -314 0 *
Ve
1e-07
-4.5 -1.6 -7.6
0 0

0101101
*
Ed
 1e-07 1 1 0
1  73 0 7.4 22.6
4 C0 13 0 40 0
0

0101000
+314 0 -312 0 *
Ed
 1e-07 1 1 0
1  74 0 10.5 15
4 C0 13 0 31 0
0

0101000
+312 0 -375 0 *
Ed
 1e-07 1 1 0
1  75 0 -15 -13.8
4 C0 13 0 4 0
0

0101000
+374 0 -470 0 *
Ed
 1e-07 1 1 0
1  76 0 0 1.5707963267949
2  88 38 0 0 1.5707963267949
4 C0 13 0 38 0
0

0101000
+325 0 -318 0 *
Wi

0101100
-317 0 +316 0 -338 0 -315 0 +407 0 +313 0 +311 0 +310 0 +373 0 +309 0 
+323 0 +308 0 *
Ed
 1e-07 1 1 0
1  77 0 0 3.14159265358979
2  89 18 0 0 3.14159265358979
4 C0 13 0 18 0
0

0101000
+425 0 -423 0 *
Wi

0101100
-306 0 -422 0 *
Ed
 1e-07 1 1 0
1  78 0 0 3.14159265358979
2  90 12 0 0 3.14159265358979
4 C0 13 0 12 0
0

0101000
+442 0 -440 0 *
Wi

0101100
-304 0 -439 0 *
Fa
0  1e-07 13 0

0111000
-307 0 -305 0 -303 0 *
Ve
1e-07
-5.69460761603519e-16 -3.1 -7.6
0 0

0101101
*
Ed
 1e-07 1 1 0
1  79 0 3.14159265358979 4.71238898038469
2  91 34 0 3.14159265358979 4.71238898038469
4 C0 34 0 31 0
0

0101000
+357 0 -301 0 *
Ed
 1e-07 1 1 0
1  80 0 22.6 30
2  92 34 0 22.6 30
4 G1 34 0 16 0
0

0101000
+301 0 -329 0 *
Wi

0101100
-354 0 +300 0 +299 0 +328 0 *
Fa
0  1e-07 34 0

0111000
+298 0 *
Ve
1e-07
-1.45009245925864 -0.676189218785126 -7.6
0 0

0101101
*
Ve
1e-07
-1.45009245925864 -0.676189218785126 -15
0 0

0101101
*
Ed
 1e-07 1 1 0
1  81 0 22.6 30
2  93 32 0 22.6 30
4 C0 36 0 32 0
0

0101000
+296 0 -295 0 *
Ed
 1e-07 1 1 0
1  82 0 -1.5 0
4 C0 36 0 31 0
0

0101000
+296 0 -348 0 *
Ed
 1e-07 1 1 0
1  83 0 1.10000000000001 1.5
4 C0 36 0 4 0
0

0101000
+477 0 -295 0 *
Wi

0101100
-294 0 +293 0 +344 0 +330 0 +292 0 *
Fa
0  1e-07 36 0

0111000
-291 0 *
Ed
 1e-07 1 1 0
1  84 0 2.70526034059121 3.14159265358979
2  94 32 0 2.70526034059121 3.14159265358979
4 C0 32 0 4 0
0

0101000
+295 0 -365 0 *
Ed
 1e-07 1 1 0
1  85 0 0 0.436332312998586
2  95 32 0 0 0.436332312998586
4 C0 32 0 31 0
0

0101000
+363 0 -296 0 *
Wi

0101100
-289 0 -294 0 -288 0 +362 0 *
Fa
0  1e-07 32 0

0111000
+287 0 *
Ve
1e-07
-15 -3.1 13.4
0 0

0101101
*
Ve
1e-07
-15 -3.1 -13.4
0 0

0101101
*
Ed
 1e-07 1 1 0
1  86 0 1.6 28.4
4 C0 39 0 16 0
0

0101000
+285 0 -284 0 *
Ed
 1e-07 1 1 0
1  87 0 -1.5 0
2  96 37 0 -1.5 0
4 G1 39 0 37 0
0

0101000
+285 0 -319 0 *
Ed
 1e-07 1 1 0
1  88 0 0 1.5
2  97 38 0 0 1.5
4 G1 39 0 38 0
0

0101000
+318 0 -284 0 *
Wi

0101100
-283 0 +282 0 +317 0 +281 0 *
Fa
0  1e-07 39 0

0111000
-280 0 *
Ed
 1e-07 1 1 0
1  89 0 0 1.5707963267949
2  98 37 0 0 1.5707963267949
4 C0 16 0 37 0
0

0101000
+337 0 -285 0 *
Ed
 1e-07 1 1 0
1  90 0 1.5707963267949 3.14159265358979
2  99 38 0 1.5707963267949 3.14159265358979
4 C0 16 0 38 0
0

0101000
+284 0 -327 0 *
Ve
1e-07
-4.5 -3.1 -7.6
0 0

0101101
*
Ed
 1e-07 1 1 0
1  91 0 -15 -10.5
4 C0 16 0 31 0
0

0101000
+301 0 -276 0 *
Ve
1e-07
-4.5 -3.1 7.6
0 0

0101101
*
Ed
 1e-07 1 1 0
1  92 0 -22.6 -7.4
4 C0 16 0 40 0
0

0101000
+276 0 -274 0 *
Ve
1e-07
-5.69460761603519e-16 -3.1 7.6
0 0

0101101
*
Ed
 1e-07 1 1 0
1  93 0 10.5 15
4 C0 16 0 22 0
0

0101000
+274 0 -272 0 *
Ed
 1e-07 1 1 0
1  94 0 -0 7.4
2  100 26 0 -0 7.4
4 G1 16 0 26 0
0

0101000
+335 0 -272 0 *
Wi

0101100
-334 0 +278 0 +283 0 +277 0 +326 0 -299 0 +275 0 +273 0 +271 0 -270 0 
*
Ed
 1e-07 1 1 0
1  95 0 0 3.14159265358979
2  101 15 0 0 3.14159265358979
4 C0 16 0 15 0
0

0101000
+433 0 -431 0 *
Wi

0101100
+268 0 +429 0 *
Ed
 1e-07 1 1 0
1  96 0 0 3.14159265358979
2  102 20 0 0 3.14159265358979
4 C0 16 0 20 0
0

0101000
+416 0 -414 0 *
Wi

0101100
+266 0 +412 0 *
Fa
0  1e-07 16 0

0111000
-269 0 -267 0 -265 0 *
Ed
 1e-07 1 1 0
1  97 0 4.71238898038469 6.28318530717959
2  103 26 0 4.71238898038469 6.28318530717959
4 C0 26 0 22 0
0

0101000
+272 0 -389 0 *
Wi

0101100
-388 0 -333 0 +270 0 +263 0 *
Fa
0  1e-07 26 0

0111000
+262 0 *
Ve
1e-07
-1.45009245925864 -0.676189218785126 7.6
0 0

0101101
*
Ed
 1e-07 1 1 0
1  98 0 0 1.5
4 C0 28 0 22 0
0

0101000
+380 0 -260 0 *
Ve
1e-07
-1.45009245925864 -0.676189218785126 15
0 0

0101101
*
Ed
 1e-07 1 1 0
1  99 0 -0 7.4
2  104 24 0 -0 7.4
4 C0 28 0 24 0
0

0101000
+258 0 -260 0 *
Ed
 1e-07 1 1 0
1  100 0 1.1 1.5
4 C0 28 0 8 0
0

0101000
+460 0 -258 0 *
Wi

0101100
+378 0 +259 0 -257 0 -256 0 -341 0 *
Fa
0  1e-07 28 0

0111000
-255 0 *
Ed
 1e-07 1 1 0
1  101 0 2.70526034059121 3.14159265358979
2  105 24 0 2.70526034059121 3.14159265358979
4 C0 24 0 22 0
0

0101000
+260 0 -399 0 *
Ed
 1e-07 1 1 0
1  102 0 2.70526034059121 3.14159265358979
2  106 24 0 2.70526034059121 3.14159265358979
4 C0 24 0 8 0
0

0101000
+258 0 -397 0 *
Wi

0101100
-253 0 -257 0 +252 0 +396 0 *
Fa
0  1e-07 24 0

0111000
+251 0 *
Ed
 1e-07 1 1 0
1  103 0 6.9 8.4
4 C0 31 0 40 0
0

0101000
+276 0 -312 0 *
Wi

0101100
-347 0 -293 0 -288 0 -361 0 -368 0 -310 0 -249 0 -275 0 -300 0 -356 0 
*
Fa
0  1e-07 31 0

0111000
-248 0 *
Ed
 1e-07 1 1 0
1  104 0 6.9 8.4
4 C0 22 0 40 0
0

0101000
+274 0 -314 0 *
Wi

0101100
+246 0 -313 0 -405 0 -398 0 -253 0 -259 0 -379 0 -386 0 -263 0 -271 0 
*
Fa
0  1e-07 22 0

0111000
-245 0 *
Wi

0101100
+249 0 -311 0 -246 0 -273 0 *
Fa
0  1e-07 40 0

0111000
-243 0 *
Wi

0101100
-316 0 -282 0 -278 0 -336 0 *
Fa
0  1e-07 37 0

0111000
+241 0 *
Wi

0101100
-308 0 -324 0 -277 0 -281 0 *
Fa
0  1e-07 38 0

0111000
+239 0 *
Ed
 1e-07 1 1 0
1  105 0 0 3.14159265358979
2  107 20 0 0 3.14159265358979
2  108 18 0 0 3.14159265358979
4 C0 20 0 18 0
0

0101000
+426 0 -421 0 *
Wi

0101100
-237 0 -415 0 +266 0 +413 0 *
Fa
0  1e-07 20 0

0111000
+236 0 *
Wi

0101100
-306 0 -424 0 +237 0 +420 0 *
Fa
0  1e-07 18 0

0111000
+234 0 *
Ed
 1e-07 1 1 0
1  106 0 0 3.14159265358979
2  109 15 0 0 3.14159265358979
2  110 12 0 0 3.14159265358979
4 C0 15 0 12 0
0

0101000
+443 0 -438 0 *
Wi

0101100
-232 0 -432 0 +268 0 +430 0 *
Fa
0  1e-07 15 0

0111000
+231 0 *
Wi

0101100
-304 0 -441 0 +232 0 +437 0 *
Fa
0  1e-07 12 0

0111000
+229 0 *
Wi

0101100
-468 0 -309 0 -371 0 -364 0 -289 0 -292 0 *
Ed
 1e-07 1 1 0
1  107 0 3.14159265358979 6.28318530717959
2  111 10 0 3.14159265358979 6.28318530717959
4 C0 4 0 10 0
0

0101000
+450 0 -448 0 *
Wi

0101100
+447 0 +226 0 *
Fa
0  1e-07 4 0

0111000
-227 0 -225 0 *
Wi

0101100
+252 0 +395 0 +402 0 +315 0 +457 0 +256 0 *
Ed
 1e-07 1 1 0
1  108 0 3.14159265358979 6.28318530717959
2  112 10 0 3.14159265358979 6.28318530717959
4 C0 8 0 10 0
0

0101000
+452 0 -453 0 *
Wi

0101100
-451 0 -222 0 *
Fa
0  1e-07 8 0

0111000
-223 0 -221 0 *
Wi

0101100
-449 0 +222 0 +446 0 -226 0 *
Fa
0  1e-07 10 0

0111000
+219 0 *
Wi

0101100
-461 0 +463 0 -340 0 *
Fa
0  1e-07 6 0

0111000
+217 0 *
Wi

0101100
-473 0 +322 0 +471 0 *
Fa
0  1e-07 3 0

0111000
+215 0 *
Sh

0101100
+466 0 +454 0 +444 0 -434 0 -427 0 -417 0 -410 0 -400 0 -393 0 +383 0 
+376 0 -366 0 -359 0 +349 0 +342 0 +331 0 -320 0 -302 0 +297 0 -290 0 
-286 0 -279 0 -264 0 +261 0 -254 0 -250 0 -247 0 -244 0 -242 0 +240 0 
+238 0 -235 0 -233 0 -230 0 -228 0 -224 0 -220 0 +218 0 +216 0 +214 0 
*
So

0100000
+213 0 *
Ve
1e-07
9 -2.8 -2
0 0

0101101
*
Ve
1e-07
9 -1.6 -3.2
0 0

0101101
*
Ed
 1e-07 1 1 0
1  109 0 -1.69705627484771 0
2  113 41 0 -1.69705627484771 0
2  114 42 0 -1.69705627484771 0
4 CN 41 0 42 0
0

0101000
+211 0 -210 0 *
Ve
1e-07
9 -1.6 3.2
0 0

0101101
*
Ed
 1e-07 1 1 0
1  110 0 3.14159265358979 6.28318530717959
2  115 41 0 3.14159265358979 6.28318530717959
4 C0 41 0 43 0
0

0101000
+208 0 -210 0 *
Ve
1e-07
9 -2.8 2
0 0

0101101
*
Ed
 1e-07 1 1 0
1  111 0 -1.69705627484771 0
2  116 41 0 -1.69705627484771 0
2  117 42 0 -1.69705627484771 0
4 CN 41 0 42 0
0

0101000
+206 0 -208 0 *
Ed
 1e-07 1 1 0
1  112 0 3.14159265358979 6.28318530717959
2  118 41 0 3.14159265358979 6.28318530717959
2  119 44 0 3.14159265358979 6.28318530717959
4 C0 41 0 44 0
0

0101000
+206 0 -211 0 *
Wi

0101100
+209 0 -207 0 -205 0 +204 0 *
Fa
0  1e-07 41 0

0111000
+203 0 *
Ve
1e-07
9 -3.1 -2
0 0

0101101
*
Ed
 1e-07 1 1 0
1  113 0 -1.5 -1.2
2  120 44 0 -1.5 -1.2
2  121 45 0 -1.5 -1.2
4 CN 44 0 45 0
0

0101000
+201 0 -211 0 *
Ve
1e-07
9 -3.1 2
0 0

0101101
*
Ed
 1e-07 1 1 0
1  114 0 -1.5 -1.2
2  122 44 0 -1.5 -1.2
2  123 45 0 -1.5 -1.2
4 CN 44 0 45 0
0

0101000
+199 0 -206 0 *
Ed
 1e-07 1 1 0
1  115 0 3.14159265358979 6.28318530717959
2  124 44 0 3.14159265358979 6.28318530717959
4 C0 44 0 46 0
0

0101000
+199 0 -201 0 *
Wi

0101100
+200 0 -204 0 -198 0 +197 0 *
Fa
0  1e-07 44 0

0111000
+196 0 *
Ve
1e-07
24 -2.8 -11
0 0

0101101
*
Ve
1e-07
24 -1.6 -12.2
0 0

0101101
*
Ed
 1e-07 1 1 0
1  116 0 -1.69705627484771 0
2  125 47 0 -1.69705627484771 0
2  126 48 0 -1.69705627484771 0
4 CN 47 0 48 0
0

0101000
+194 0 -193 0 *
Ve
1e-07
24 -1.6 -5.8
0 0

0101101
*
Ed
 1e-07 1 1 0
1  117 0 3.14159265358979 6.28318530717959
2  127 47 0 3.14159265358979 6.28318530717959
4 C0 47 0 43 0
0

0101000
+191 0 -193 0 *
Ve
1e-07
24 -2.8 -7
0 0

0101101
*
Ed
 1e-07 1 1 0
1  118 0 -1.69705627484771 0
2  128 47 0 -1.69705627484771 0
2  129 48 0 -1.69705627484771 0
4 CN 47 0 48 0
0

0101000
+189 0 -191 0 *
Ed
 1e-07 1 1 0
1  119 0 3.14159265358979 6.28318530717959
2  130 47 0 3.14159265358979 6.28318530717959
2  131 49 0 3.14159265358979 6.28318530717959
4 C0 47 0 49 0
0

0101000
+189 0 -194 0 *
Wi

0101100
+192 0 -190 0 -188 0 +187 0 *
Fa
0  1e-07 47 0

0111000
+186 0 *
Ve
1e-07
24 -3.1 -11
0 0

0101101
*
Ed
 1e-07 1 1 0
1  120 0 -1.5 -1.2
2  132 49 0 -1.5 -1.2
2  133 50 0 -1.5 -1.2
4 CN 49 0 50 0
0

0101000
+184 0 -194 0 *
Ve
1e-07
24 -3.1 -7
0 0

0101101
*
Ed
 1e-07 1 1 0
1  121 0 -1.5 -1.2
2  134 49 0 -1.5 -1.2
2  135 50 0 -1.5 -1.2
4 CN 49 0 50 0
0

0101000
+182 0 -189 0 *
Ed
 1e-07 1 1 0
1  122 0 3.14159265358979 6.28318530717959
2  136 49 0 3.14159265358979 6.28318530717959
4 C0 49 0 46 0
0

0101000
+182 0 -184 0 *
Wi

0101100
+183 0 -187 0 -181 0 +180 0 *
Fa
0  1e-07 49 0

0111000
+179 0 *
Ve
1e-07
24 -2.8 7
0 0

0101101
*
Ve
1e-07
24 -1.6 5.8
0 0

0101101
*
Ed
 1e-07 1 1 0
1  123 0 -1.69705627484771 0
2  137 51 0 -1.69705627484771 0
2  138 52 0 -1.69705627484771 0
4 CN 51 0 52 0
0

0101000
+177 0 -176 0 *
Ve
1e-07
24 -1.6 12.2
0 0

0101101
*
Ed
 1e-07 1 1 0
1  124 0 3.14159265358979 6.28318530717959
2  139 51 0 3.14159265358979 6.28318530717959
4 C0 51 0 43 0
0

0101000
+174 0 -176 0 *
Ve
1e-07
24 -2.8 11
0 0

0101101
*
Ed
 1e-07 1 1 0
1  125 0 -1.69705627484771 0
2  140 51 0 -1.69705627484771 0
2  141 52 0 -1.69705627484771 0
4 CN 51 0 52 0
0

0101000
+172 0 -174 0 *
Ed
 1e-07 1 1 0
1  126 0 3.14159265358979 6.28318530717959
2  142 51 0 3.14159265358979 6.28318530717959
2  143 53 0 3.14159265358979 6.28318530717959
4 C0 51 0 53 0
0

0101000
+172 0 -177 0 *
Wi

0101100
+175 0 -173 0 -171 0 +170 0 *
Fa
0  1e-07 51 0

0111000
+169 0 *
Ve
1e-07
24 -3.1 7
0 0

0101101
*
Ed
 1e-07 1 1 0
1  127 0 -1.5 -1.2
2  144 53 0 -1.5 -1.2
2  145 54 0 -1.5 -1.2
4 CN 53 0 54 0
0

0101000
+167 0 -177 0 *
Ve
1e-07
24 -3.1 11
0 0

0101101
*
Ed
 1e-07 1 1 0
1  128 0 -1.5 -1.2
2  146 53 0 -1.5 -1.2
2  147 54 0 -1.5 -1.2
4 CN 53 0 54 0
0

0101000
+165 0 -172 0 *
Ed
 1e-07 1 1 0
1  129 0 3.14159265358979 6.28318530717959
2  148 53 0 3.14159265358979 6.28318530717959
4 C0 53 0 46 0
0

0101000
+165 0 -167 0 *
Wi

0101100
+166 0 -170 0 -164 0 +163 0 *
Fa
0  1e-07 53 0

0111000
+162 0 *
Ve
1e-07
1.62988940220886e-16 -1.6 -7.5
0 0

0101101
*
Ve
1e-07
-1.62988940220886e-16 -1.6 7.5
0 0

0101101
*
Ed
 1e-07 1 1 0
1  130 0 7.5 22.5
2  149 55 0 7.5 22.5
4 G1 55 0 43 0
0

0101000
+160 0 -159 0 *
Ve
1e-07
-1.6 1.57096445740984e-16 7.5
0 0

0101101
*
Ed
 1e-07 1 1 0
1  131 0 0 1.5707963267949
2  150 55 0 0 1.5707963267949
4 C0 55 0 56 0
0

0101000
+157 0 -159 0 *
Ve
1e-07
-1.6 2.34790529986169e-16 -7.5
0 0

0101101
*
Ed
 1e-07 1 1 0
1  132 0 7.5 22.5
2  151 55 0 7.5 22.5
2  152 57 0 7.5 22.5
4 CN 55 0 57 0
0

0101000
+155 0 -157 0 *
Ed
 1e-07 1 1 0
1  133 0 1.5707963267949 3.14159265358979
2  153 55 0 1.5707963267949 3.14159265358979
4 C0 55 0 58 0
0

0101000
+160 0 -155 0 *
Wi

0101100
+158 0 -156 0 -154 0 -153 0 *
Fa
0  1e-07 55 0

0111000
+152 0 *
Ve
1e-07
1.6 -3.88470421225927e-17 7.5
0 0

0101101
*
Ed
 1e-07 1 1 0
1  134 0 3.14159265358979 6.28318530717959
2  154 57 0 3.14159265358979 6.28318530717959
4 C0 57 0 56 0
0

0101000
+150 0 -157 0 *
Ve
1e-07
1.6 3.88470421225927e-17 -7.5
0 0

0101101
*
Ed
 1e-07 1 1 0
1  135 0 7.5 22.5
2  155 57 0 7.5 22.5
2  156 59 0 7.5 22.5
4 CN 57 0 59 0
0

0101000
+148 0 -150 0 *
Ed
 1e-07 1 1 0
1  136 0 3.14159265358979 6.28318530717959
2  157 57 0 3.14159265358979 6.28318530717959
4 C0 57 0 58 0
0

0101000
+155 0 -148 0 *
Wi

0101100
-149 0 -147 0 -146 0 +154 0 *
Fa
0  1e-07 57 0

0111000
+145 0 *
Ve
1e-07
3.1 3.88470421225927e-17 -7.5
0 0

0101101
*
Ve
1e-07
-3.1 4.18487549858272e-16 -7.5
0 0

0101101
*
Ed
 1e-07 1 1 0
1  137 0 0 3.14159265358979
2  158 60 0 0 3.14159265358979
4 C0 60 0 58 0
0

0101000
+143 0 -142 0 *
Ve
1e-07
-3.1 3.40793465613087e-16 7.5
0 0

0101101
*
Ed
 1e-07 1 1 0
1  138 0 7.5 22.5
2  159 60 0 7.5 22.5
2  160 61 0 7.5 22.5
4 CN 60 0 61 0
0

0101000
+142 0 -140 0 *
Ve
1e-07
3.1 -3.88470421225927e-17 7.5
0 0

0101101
*
Ed
 1e-07 1 1 0
1  139 0 0 3.14159265358979
2  161 60 0 0 3.14159265358979
4 C0 60 0 56 0
0

0101000
+140 0 -138 0 *
Ed
 1e-07 1 1 0
1  140 0 7.5 22.5
2  162 60 0 7.5 22.5
2  163 62 0 7.5 22.5
4 CN 60 0 62 0
0

0101000
+143 0 -138 0 *
Wi

0101100
+141 0 +139 0 +137 0 -136 0 *
Fa
0  1e-07 60 0

0111000
+135 0 *
Ve
1e-07
2.80955413981361 -1.31011661139618 -7.5
0 0

0101101
*
Ed
 1e-07 1 1 0
1  141 0 5.846852994181 6.28318530717959
2  164 62 0 5.846852994181 6.28318530717959
4 C0 62 0 58 0
0

0101000
+133 0 -143 0 *
Ve
1e-07
2.80955413981361 -1.31011661139618 7.5
0 0

0101101
*
Ed
 1e-07 1 1 0
1  142 0 3.14159265358979 3.57792496658838
2  165 62 0 3.14159265358979 3.57792496658838
4 C0 62 0 56 0
0

0101000
+138 0 -131 0 *
Ed
 1e-07 1 1 0
1  143 0 7.5 22.5
2  166 62 0 7.5 22.5
4 C0 62 0 63 0
0

0101000
+133 0 -131 0 *
Wi

0101100
+132 0 +136 0 +130 0 -129 0 *
Fa
0  1e-07 62 0

0111000
+128 0 *
Ve
1e-07
30 -1.6 -13
0 0

0101101
*
Ve
1e-07
30 -1.6 13
0 0

0101101
*
Ed
 1e-07 1 1 0
1  144 0 2 28
4 C0 43 0 64 0
0

0101000
+126 0 -125 0 *
Ve
1e-07
28 -1.6 -15
0 0

0101101
*
Ed
 1e-07 1 1 0
1  145 0 1.5707963267949 3.14159265358979
2  167 65 0 1.5707963267949 3.14159265358979
4 C0 43 0 65 0
0

0101000
+126 0 -123 0 *
Ve
1e-07
4.5 -1.6 -15
0 0

0101101
*
Ed
 1e-07 1 1 0
1  146 0 -25.5 -2
4 C0 43 0 66 0
0

0101000
+121 0 -123 0 *
Ve
1e-07
4.5 -1.6 -8.5
0 0

0101101
*
Ed
 1e-07 1 1 0
1  147 0 0 6.5
4 C0 43 0 67 0
0

0101000
+121 0 -119 0 *
Ve
1e-07
3.5 -1.6 -7.5
0 0

0101101
*
Ed
 1e-07 1 1 0
1  148 0 4.71238898038469 6.28318530717959
2  168 68 0 4.71238898038469 6.28318530717959
4 C0 43 0 68 0
0

0101000
+119 0 -117 0 *
Ed
 1e-07 1 1 0
1  149 0 26.5 30
4 C0 43 0 58 0
0

0101000
+117 0 -160 0 *
Ve
1e-07
3.5 -1.6 7.5
0 0

0101101
*
Ed
 1e-07 1 1 0
1  150 0 -30 -26.5
4 C0 43 0 56 0
0

0101000
+159 0 -114 0 *
Ve
1e-07
4.5 -1.6 8.5
0 0

0101101
*
Ed
 1e-07 1 1 0
1  151 0 3.14159265358979 4.71238898038469
2  169 69 0 3.14159265358979 4.71238898038469
4 C0 43 0 69 0
0

0101000
+114 0 -112 0 *
Ve
1e-07
4.5 -1.6 15
0 0

0101101
*
Ed
 1e-07 1 1 0
1  152 0 23.5 30
4 C0 43 0 70 0
0

0101000
+112 0 -110 0 *
Ve
1e-07
28 -1.6 15
0 0

0101101
*
Ed
 1e-07 1 1 0
1  153 0 -25.5 -2
4 C0 43 0 71 0
0

0101000
+110 0 -108 0 *
Ed
 1e-07 1 1 0
1  154 0 0 1.5707963267949
2  170 72 0 0 1.5707963267949
4 C0 43 0 72 0
0

0101000
+108 0 -125 0 *
Wi

0101100
-124 0 +122 0 -120 0 +118 0 +116 0 +115 0 +158 0 +113 0 +111 0 +109 0 
+107 0 +106 0 *
Ed
 1e-07 1 1 0
1  155 0 0 3.14159265358979
2  171 52 0 0 3.14159265358979
4 C0 43 0 52 0
0

0101000
+176 0 -174 0 *
Wi

0101100
-104 0 -173 0 *
Ed
 1e-07 1 1 0
1  156 0 0 3.14159265358979
2  172 48 0 0 3.14159265358979
4 C0 43 0 48 0
0

0101000
+193 0 -191 0 *
Wi

0101100
-102 0 -190 0 *
Ed
 1e-07 1 1 0
1  157 0 0 3.14159265358979
2  173 42 0 0 3.14159265358979
4 C0 43 0 42 0
0

0101000
+210 0 -208 0 *
Wi

0101100
-100 0 -207 0 *
Fa
0  1e-07 43 0

0111000
-105 0 -103 0 -101 0 -99 0 *
Ve
1e-07
30 -3.1 -13
0 0

0101101
*
Ve
1e-07
30 -3.1 13
0 0

0101101
*
Ed
 1e-07 1 1 0
1  158 0 2 28
4 C0 64 0 46 0
0

0101000
+97 0 -96 0 *
Ed
 1e-07 1 1 0
1  159 0 -1.5 0
2  174 65 0 -1.5 0
4 G1 64 0 65 0
0

0101000
+97 0 -126 0 *
Ed
 1e-07 1 1 0
1  160 0 0 1.5
2  175 72 0 0 1.5
4 G1 64 0 72 0
0

0101000
+125 0 -96 0 *
Wi

0101100
-95 0 +94 0 +124 0 +93 0 *
Fa
0  1e-07 64 0

0111000
-92 0 *
Ve
1e-07
28 -3.1 -15
0 0

0101101
*
Ve
1e-07
4.5 -3.1 -15
0 0

0101101
*
Ed
 1e-07 1 1 0
1  161 0 2 25.5
4 C0 46 0 66 0
0

0101000
+90 0 -89 0 *
Ed
 1e-07 1 1 0
1  162 0 0 1.5707963267949
2  176 65 0 0 1.5707963267949
4 C0 46 0 65 0
0

0101000
+90 0 -97 0 *
Ve
1e-07
28 -3.1 15
0 0

0101101
*
Ed
 1e-07 1 1 0
1  163 0 1.5707963267949 3.14159265358979
2  177 72 0 1.5707963267949 3.14159265358979
4 C0 46 0 72 0
0

0101000
+96 0 -86 0 *
Ve
1e-07
4.5 -3.1 15
0 0

0101101
*
Ed
 1e-07 1 1 0
1  164 0 2 25.5
4 C0 46 0 71 0
0

0101000
+86 0 -84 0 *
Ve
1e-07
4.5 -3.1 8.5
0 0

0101101
*
Ed
 1e-07 1 1 0
1  165 0 -30 -23.5
4 C0 46 0 70 0
0

0101000
+84 0 -82 0 *
Ve
1e-07
3.5 -3.1 7.5
0 0

0101101
*
Ed
 1e-07 1 1 0
1  166 0 4.71238898038469 6.28318530717959
2  178 69 0 4.71238898038469 6.28318530717959
4 C0 46 0 69 0
0

0101000
+82 0 -80 0 *
Ve
1e-07
4.06471821382634e-16 -3.1 7.5
0 0

0101101
*
Ed
 1e-07 1 1 0
1  167 0 26.5 30
4 C0 46 0 56 0
0

0101000
+80 0 -78 0 *
Ve
1e-07
7.32449701824405e-16 -3.1 -7.5
0 0

0101101
*
Ed
 1e-07 1 1 0
1  168 0 7.5 22.5
2  179 61 0 7.5 22.5
4 G1 46 0 61 0
0

0101000
+76 0 -78 0 *
Ve
1e-07
3.5 -3.1 -7.5
0 0

0101101
*
Ed
 1e-07 1 1 0
1  169 0 -30 -26.5
4 C0 46 0 58 0
0

0101000
+76 0 -74 0 *
Ve
1e-07
4.5 -3.1 -8.5
0 0

0101101
*
Ed
 1e-07 1 1 0
1  170 0 3.14159265358979 4.71238898038469
2  180 68 0 3.14159265358979 4.71238898038469
4 C0 46 0 68 0
0

0101000
+74 0 -72 0 *
Ed
 1e-07 1 1 0
1  171 0 -6.5 0
4 C0 46 0 67 0
0

0101000
+72 0 -89 0 *
Wi

0101100
-88 0 +87 0 +95 0 +85 0 +83 0 +81 0 +79 0 +77 0 -75 0 +73 0 
+71 0 +70 0 *
Ed
 1e-07 1 1 0
1  172 0 0 3.14159265358979
2  181 45 0 0 3.14159265358979
4 C0 46 0 45 0
0

0101000
+201 0 -199 0 *
Wi

0101100
+68 0 +197 0 *
Ed
 1e-07 1 1 0
1  173 0 0 3.14159265358979
2  182 50 0 0 3.14159265358979
4 C0 46 0 50 0
0

0101000
+184 0 -182 0 *
Wi

0101100
+66 0 +180 0 *
Ed
 1e-07 1 1 0
1  174 0 0 3.14159265358979
2  183 54 0 0 3.14159265358979
4 C0 46 0 54 0
0

0101000
+167 0 -165 0 *
Wi

0101100
+64 0 +163 0 *
Fa
0  1e-07 46 0

0111000
-69 0 -67 0 -65 0 -63 0 *
Ed
 1e-07 1 1 0
1  175 0 3.14159265358979 4.71238898038469
2  184 61 0 3.14159265358979 4.71238898038469
4 C0 61 0 58 0
0

0101000
+142 0 -76 0 *
Ed
 1e-07 1 1 0
1  176 0 4.71238898038469 6.28318530717959
2  185 61 0 4.71238898038469 6.28318530717959
4 C0 61 0 56 0
0

0101000
+78 0 -140 0 *
Wi

0101100
-139 0 +61 0 +75 0 +60 0 *
Fa
0  1e-07 61 0

0111000
+59 0 *
Ve
1e-07
1.45009245925864 -0.676189218785126 -7.5
0 0

0101101
*
Ve
1e-07
1.45009245925864 -0.676189218785126 7.5
0 0

0101101
*
Ed
 1e-07 1 1 0
1  177 0 7.5 22.5
2  186 59 0 7.5 22.5
4 C0 63 0 59 0
0

0101000
+57 0 -56 0 *
Ed
 1e-07 1 1 0
1  178 0 -1.5 0
4 C0 63 0 58 0
0

0101000
+57 0 -133 0 *
Ed
 1e-07 1 1 0
1  179 0 0 1.5
4 C0 63 0 56 0
0

0101000
+131 0 -56 0 *
Wi

0101100
-55 0 +54 0 +129 0 +53 0 *
Fa
0  1e-07 63 0

0111000
-52 0 *
Ed
 1e-07 1 1 0
1  180 0 2.70526034059121 3.14159265358979
2  187 59 0 2.70526034059121 3.14159265358979
4 C0 59 0 56 0
0

0101000
+56 0 -150 0 *
Ed
 1e-07 1 1 0
1  181 0 0 0.436332312998586
2  188 59 0 0 0.436332312998586
4 C0 59 0 58 0
0

0101000
+148 0 -57 0 *
Wi

0101100
-50 0 -55 0 -49 0 +147 0 *
Fa
0  1e-07 59 0

0111000
+48 0 *
Ed
 1e-07 1 1 0
1  182 0 -1.5 0
2  189 65 0 -1.5 0
4 G1 66 0 65 0
0

0101000
+123 0 -90 0 *
Ed
 1e-07 1 1 0
1  183 0 1.6 3.1
4 C0 66 0 67 0
0

0101000
+121 0 -89 0 *
Wi

0101100
+120 0 +46 0 +88 0 -45 0 *
Fa
0  1e-07 66 0

0111000
+44 0 *
Ed
 1e-07 1 1 0
1  184 0 -3.1 -1.6
2  190 72 0 -3.1 -1.6
4 G1 71 0 72 0
0

0101000
+86 0 -108 0 *
Ed
 1e-07 1 1 0
1  185 0 1.6 3.1
4 C0 71 0 70 0
0

0101000
+110 0 -84 0 *
Wi

0101100
-83 0 +42 0 -107 0 +41 0 *
Fa
0  1e-07 71 0

0111000
-40 0 *
Ed
 1e-07 1 1 0
1  186 0 8.5 10
2  191 69 0 8.5 10
4 C1 56 0 69 0
0

0101000
+80 0 -114 0 *
Wi

0101100
+38 0 -113 0 -156 0 -149 0 -50 0 -53 0 -130 0 -137 0 -60 0 -77 0 
*
Fa
0  1e-07 56 0

0111000
-37 0 *
Ed
 1e-07 1 1 0
1  187 0 8.5 10
2  192 69 0 8.5 10
4 C1 69 0 70 0
0

0101000
+82 0 -112 0 *
Wi

0101100
+79 0 +38 0 +111 0 -35 0 *
Fa
0  1e-07 69 0

0111000
+34 0 *
Wi

0101100
-41 0 -109 0 -35 0 -81 0 *
Fa
0  1e-07 70 0

0111000
-32 0 *
Ed
 1e-07 1 1 0
1  188 0 8.5 10
2  193 68 0 8.5 10
4 C1 68 0 67 0
0

0101000
+72 0 -119 0 *
Ed
 1e-07 1 1 0
1  189 0 8.5 10
2  194 68 0 8.5 10
4 C1 68 0 58 0
0

0101000
+74 0 -117 0 *
Wi

0101100
+71 0 +30 0 +116 0 -29 0 *
Fa
0  1e-07 68 0

0111000
+28 0 *
Wi

0101100
-132 0 -54 0 -49 0 -146 0 -153 0 -115 0 -29 0 -73 0 -61 0 -141 0 
*
Fa
0  1e-07 58 0

0111000
-26 0 *
Wi

0101100
+30 0 -118 0 +45 0 -70 0 *
Fa
0  1e-07 67 0

0111000
-24 0 *
Wi

0101100
-122 0 -94 0 -87 0 -46 0 *
Fa
0  1e-07 65 0

0111000
+22 0 *
Wi

0101100
-106 0 -42 0 -85 0 -93 0 *
Fa
0  1e-07 72 0

0111000
+20 0 *
Ed
 1e-07 1 1 0
1  190 0 0 3.14159265358979
2  195 54 0 0 3.14159265358979
2  196 52 0 0 3.14159265358979
4 C0 54 0 52 0
0

0101000
+177 0 -172 0 *
Wi

0101100
-18 0 -166 0 +64 0 +164 0 *
Fa
0  1e-07 54 0

0111000
+17 0 *
Wi

0101100
-104 0 -175 0 +18 0 +171 0 *
Fa
0  1e-07 52 0

0111000
+15 0 *
Ed
 1e-07 1 1 0
1  191 0 0 3.14159265358979
2  197 50 0 0 3.14159265358979
2  198 48 0 0 3.14159265358979
4 C0 50 0 48 0
0

0101000
+194 0 -189 0 *
Wi

0101100
-13 0 -183 0 +66 0 +181 0 *
Fa
0  1e-07 50 0

0111000
+12 0 *
Wi

0101100
-102 0 -192 0 +13 0 +188 0 *
Fa
0  1e-07 48 0

0111000
+10 0 *
Ed
 1e-07 1 1 0
1  192 0 0 3.14159265358979
2  199 45 0 0 3.14159265358979
2  200 42 0 0 3.14159265358979
4 C0 45 0 42 0
0

0101000
+211 0 -206 0 *
Wi

0101100
-8 0 -200 0 +68 0 +198 0 *
Fa
0  1e-07 45 0

0111000
+7 0 *
Wi

0101100
-100 0 -209 0 +8 0 +205 0 *
Fa
0  1e-07 42 0

0111000
+5 0 *
Sh

0101100
-202 0 -195 0 -185 0 -178 0 -168 0 -161 0 -151 0 -144 0 +134 0 +127 0 
-98 0 -91 0 -62 0 +58 0 -51 0 -47 0 +43 0 -39 0 -36 0 -33 0 
-31 0 -27 0 -25 0 -23 0 +21 0 +19 0 -16 0 -14 0 -11 0 -9 0 
-6 0 -4 0 *
So

0100000
+3 0 *
Co

1100000
+212 0 +2 0 *

+1 0 