DBRep_DrawableShape

CASCADE Topology V1, (c) Matra-Datavision
Locations 0
Curve2ds 140
1 3.1415926535897931 -26.300000000000001 0 1 
1 3.1415926535897931 -26.300000000000001 0 1 
1 6.2831853071795862 -22.600000000000001 -1 0 
1 1.5707963267948963 0 0 -1 
1 -3.1415926535897931 -30 1 0 
1 6.2831853071795862 -26.300000000000004 0 -1 
1 0 -26.300000000000004 0 -1 
1 6.2831853071795862 -22.600000000000001 -1 0 
1 3.1415926535897931 -30 1 0 
1 0 -22.600000000000001 1 0 
1 1.5707963267948966 0 0 -1 
1 3.1415926535897931 -30 -1 0 
1 3.1415926535897931 -26.300000000000004 0 -1 
1 3.1415926535897931 -26.300000000000004 0 -1 
1 0 -22.600000000000001 1 0 
1 9.4247779607693793 -30 -1 0 
1 6.2831853071795862 -26.300000000000001 0 1 
1 0 -26.300000000000001 0 1 
1 3.1415926535897931 0 0 1 
1 3.1415926535897931 0 0 1 
1 -3.1415926535897931 0 1 0 
1 1.5707963267948963 0 0 -1 
1 -3.1415926535897931 -7.4000000000000004 1 0 
1 6.2831853071795862 0 0 -1 
1 0 0 0 -1 
1 3.1415926535897931 0 1 0 
1 3.1415926535897931 -7.4000000000000004 1 0 
1 3.1415926535897931 0 -1 0 
1 1.5707963267948966 0 0 -1 
1 3.1415926535897931 -7.4000000000000004 -1 0 
1 3.1415926535897931 0 0 -1 
1 3.1415926535897931 0 0 -1 
1 9.4247779607693793 0 -1 0 
1 9.4247779607693793 -7.4000000000000004 -1 0 
1 6.2831853071795862 0 0 1 
1 0 0 0 1 
1 6.2831853071795862 -15.000000000000002 -1 0 
1 3.1415926535897931 -15.750000000000002 0 -1 
1 3.1415926535897931 -15.750000000000002 0 -1 
1 6.2831853071795862 -16.5 -1 0 
1 6.2831853071795862 -15.75 0 1 
1 0 -15.75 0 1 
1 6.2831853071795862 -15.000000000000002 -1 0 
1 3.1415926535897931 -15.750000000000002 0 -1 
1 3.1415926535897931 -15.750000000000002 0 -1 
1 9.4247779607693793 -16.5 -1 0 
1 6.2831853071795862 -15.75 0 1 
1 0 -15.75 0 1 
1 6.2831853071795862 30 0 -1 
1 0 30 0 -1 
1 6.2831853071795862 45 -1 0 
1 3.1415926535897931 30 0 1 
1 3.1415926535897931 30 0 1 
1 6.2831853071795862 15 -1 0 
7 0 0  3 25 23  4.4022976670181855 0.14134290447698153  4.3903558645957306 0.11456388448105619  4.3736560304092347 0.058019427118255557  4.370192216779988 -0.030350313367954525  4.3885621930530707 -0.11686720905464285  4.4282675184622917 -0.19612431619769422  4.4879852451154338 -0.26277987099884415  4.5648417059696227 -0.31182364270324042  4.653836853409147 -0.33912892572876474  4.7478791850215547 -0.34219073397137523  4.8388454642979895 -0.32071761601727883  4.9192533270979881 -0.27670801285143987  4.9835446672321311 -0.21395828065683387  5.0283643850262276 -0.13732250205992455  5.0520648441488056 -0.052096034504595899  5.0540233885685852 0.036319127169701121  5.0341965243353615 0.12251540563741319  4.9930807364851635 0.20108733841788687  4.9320932590377708 0.26670327635730146  4.8542308944770891 0.31439502456117785  4.7646574070752887 0.34011106754981679  4.6705424289929169 0.34152099926940921  4.580154395853679 0.31834571795252325  4.5269679198863946 0.28829863194692812  4.5033556813501692 0.26993279583340318 
 2.7052603405912059 4 2.9685431770537769 1 3.2318260135163479 1 3.4951088499789194 1 3.7583916864414899 1 4.0216745229040614 1 4.2849573593666328 1 4.5482401958292034 1 4.8115230322917739 1 5.0748058687543454 1 5.3380887052169168 1 5.6013715416794874 1 5.8646543781420588 1 6.1279372146046303 1 6.3912200510672008 1 6.6545028875297714 1 6.9177857239923428 1 7.1810685604549143 1 7.4443513969174848 1 7.7076342333800563 1 7.9709170698426268 1 8.2341999063051983 1 8.4974827427677688 4
7 0 0  3 25 23  4.5033556813501692 0.26993279583340352  4.5013422563846319 0.26838913557802285  4.497354300719655 0.26525784539056768  4.4914914835927382 0.26043179377940023  4.4857502597529439 0.25547940027093524  4.4801329544117232 0.25040350323379373  4.4746417955025519 0.24520697918054371  4.4692789015472778 0.23989274601731092  4.4640462876173661 0.23446375862379892  4.4589458666802386 0.22892300660724829  4.4539794523895244 0.22327351159861517  4.44914876166981 0.2175183248010647  4.4444554175122768 0.2116605246045396  4.43990095184461 0.20570321431947888  4.4354868084877346 0.19964952001776817  4.4312143461714157 0.19350258848579444  4.4270848415975825 0.18726558528857104  4.4230994925173901 0.18094169294723891  4.4192594208673501 0.17453410922147403  4.41556567571988 0.1680460455249802  4.412019236889253 0.16148072536354216  4.4086210159864363 0.1548413832005659  4.4053718668255177 0.14813126222946646  4.4033056627420892 0.14361283188767643  4.4022976670181846 0.14134290447698181 
 5.3558900891779739 4 5.3782065848599299 1 5.4005230805418849 1 5.4228395762238408 1 5.4451560719057968 1 5.4674725675877518 1 5.4897890632697077 1 5.5121055589516637 1 5.5344220546336187 1 5.5567385503155746 1 5.5790550459975305 1 5.6013715416794865 1 5.6236880373614415 1 5.6460045330433974 1 5.6683210287253534 1 5.6906375244073084 1 5.7129540200892643 1 5.7352705157712203 1 5.7575870114531753 1 5.7799035071351312 1 5.8022200028170872 1 5.8245364984990422 1 5.8468529941809981 4
7 0 0  3 25 23  1.8808876401613999 0.14134290447698047  1.8928294425838543 0.11456388448105526  1.9095292767703491 0.058019427118254918  1.9129930903995964 -0.03035031336795466  1.8946231141265137 -0.11686720905464242  1.8549177887172927 -0.19612431619769344  1.7952000620641528 -0.26277987099884276  1.7183436012099622 -0.31182364270323898  1.6293484537704392 -0.33912892572876308  1.5353061221580324 -0.34219073397137362  1.4443398428815977 -0.32071761601727727  1.363931980081599 -0.27670801285143903  1.299640639947456 -0.21395828065683345  1.2548209221533608 -0.13732250205992474  1.231120463030781 -0.052096034504596642  1.2291619186110034 0.03631912716970008  1.248988782844225 0.12251540563741185  1.2901045706944234 0.20108733841788512  1.3510920481418154 0.26670327635729962  1.4289544127024962 0.3143950245611758  1.5185279001042955 0.3401110675498149  1.6126428781866671 0.34152099926940788  1.7030309113259054 0.31834571795252231  1.7562173872931894 0.28829863194692751  1.7798296258294151 0.26993279583340268 
 2.7052603405912108 4 2.9685431770537818 1 3.2318260135163523 1 3.4951088499789229 1 3.7583916864414939 1 4.0216745229040649 1 4.2849573593666355 1 4.548240195829206 1 4.8115230322917775 1 5.074805868754348 1 5.3380887052169186 1 5.6013715416794891 1 5.8646543781420597 1 6.1279372146046303 1 6.3912200510672017 1 6.6545028875297731 1 6.9177857239923437 1 7.1810685604549143 1 7.4443513969174848 1 7.7076342333800554 1 7.9709170698426259 1 8.2341999063051965 1 8.4974827427677688 4
7 0 0  3 25 23  1.7798296258294164 0.26993279583340424  1.7818430507949534 0.26838913557802352  1.7858310064599301 0.26525784539056835  1.791693823586848 0.26043179377940084  1.7974350474266418 0.25547940027093596  1.8030523527678612 0.25040350323379418  1.8085435116770343 0.24520697918054438  1.8139064056323075 0.23989274601731136  1.819139019562219 0.23446375862379953  1.8242394404993472 0.22892300660724879  1.8292058547900611 0.22327351159861561  1.8340365455097756 0.21751832480106517  1.8387298896673081 0.21166052460453993  1.843284355334976 0.20570321431947919  1.8476984986918512 0.19964952001776845  1.8519709610081705 0.19350258848579449  1.8561004655820037 0.18726558528857118  1.8600858146621955 0.180941692947239  1.8639258863122361 0.17453410922147411  1.8676196314597049 0.16804604552498034  1.8711660702903326 0.16148072536354205  1.8745642911931497 0.15484138320056581  1.8778134403540692 0.14813126222946627  1.8798796444374974 0.14361283188767612  1.8808876401614019 0.14134290447698153 
 5.3558900891779704 4 5.3782065848599263 1 5.4005230805418822 1 5.4228395762238382 1 5.4451560719057941 1 5.46747256758775 1 5.4897890632697051 1 5.512105558951661 1 5.5344220546336169 1 5.5567385503155728 1 5.5790550459975288 1 5.6013715416794847 1 5.6236880373614406 1 5.6460045330433966 1 5.6683210287253525 1 5.6906375244073084 1 5.7129540200892643 1 5.7352705157712194 1 5.7575870114531753 1 5.7799035071351312 1 5.8022200028170872 1 5.8245364984990431 1 5.846852994180999 4
1 6.2831853071795862 15 -1 0 
1 6.2831853071795862 45 -1 0 
1 3.1415926535897931 -16.5 -1 0 
1 6.2831853071795862 -15.000000000000002 -1 0 
1 6.2831853071795862 -16.5 -1 0 
1 6.2831853071795862 -15.000000000000002 -1 0 
1 3.1415926535897931 -7.4000000000000004 -1 0 
1 0.43633231299858627 0 0 -1 
1 3.1415926535897931 0 -1 0 
1 -3.1415926535897931 -7.4000000000000004 1 0 
1 0.43633231299858632 0 0 -1 
1 -3.1415926535897931 0 1 0 
1 3.1415926535897931 -30 -1 0 
1 0.43633231299858627 0 0 -1 
1 0 -22.600000000000001 1 0 
1 -3.1415926535897931 -30 1 0 
1 0.43633231299858632 0 0 -1 
1 6.2831853071795862 -22.600000000000001 -1 0 
1 1.5707963267948966 1.6000000000000001 0 -1 
1 1.5707963267948966 0 0 -1 
1 0 3.1000000000000001 1 0 
1 3.1415926535897931 -1.5 -1 0 
1 3.1415926535897931 1.6000000000000001 -1 0 
1 0 0 1 0 
1 0 3.1000000000000001 0 1 
1 0 1.6000000000000001 0 1 
1 3.1415926535897931 -15 0 1 
1 3.1415926535897931 -15 0 1 
1 6.2831853071795862 -7.5 -1 0 
1 1.5707963267948963 0 0 -1 
1 -3.1415926535897931 -22.5 1 0 
1 6.2831853071795862 -15 0 -1 
1 0 -15 0 -1 
1 6.2831853071795862 -7.5 -1 0 
1 3.1415926535897931 -22.5 1 0 
1 0 -7.5 1 0 
1 1.5707963267948966 0 0 -1 
1 3.1415926535897931 -22.5 -1 0 
1 3.1415926535897931 -15 0 -1 
1 3.1415926535897931 -15 0 -1 
1 0 -7.5 1 0 
1 9.4247779607693793 -22.5 -1 0 
1 6.2831853071795862 -15 0 1 
1 0 -15 0 1 
1 6.2831853071795862 -8.5 -1 0 
1 3.1415926535897931 -9.25 0 -1 
1 3.1415926535897931 -9.25 0 -1 
1 6.2831853071795862 -10 -1 0 
1 6.2831853071795862 -9.25 0 1 
1 0 -9.25 0 1 
1 6.2831853071795862 -8.5 -1 0 
1 3.1415926535897931 -9.25 0 -1 
1 3.1415926535897931 -9.25 0 -1 
1 9.4247779607693793 -10 -1 0 
1 6.2831853071795862 -9.25 0 1 
1 0 -9.25 0 1 
1 3.1415926535897931 -10 -1 0 
1 6.2831853071795862 -8.5 -1 0 
1 6.2831853071795862 -10 -1 0 
1 6.2831853071795862 -8.5 -1 0 
1 3.1415926535897931 -22.5 -1 0 
1 0.43633231299858638 0 0 -1 
1 0 -7.5 1 0 
1 -3.1415926535897931 -22.5 1 0 
1 0.43633231299858632 0 0 -1 
1 6.2831853071795862 -7.5 -1 0 
1 1.5707963267948966 1.6000000000000001 0 -1 
1 1.5707963267948966 0 0 -1 
1 0 3.1000000000000001 1 0 
1 3.1415926535897931 -1.5 -1 0 
1 6.2831853071795862 -8.5 -1 0 
1 6.2831853071795862 -8.5 -1 0 
1 3.1415926535897931 1.6000000000000001 -1 0 
1 -3.1415926535897931 -10 1 0 
1 -3.1415926535897931 -10 1 0 
1 0 0 1 0 
1 0 3.1000000000000001 0 1 
1 0 1.6000000000000001 0 1 
1 0 0 0 -1 
1 1.5707963267948966 0 0 -1 
1 1.5707963267948966 0 0 -1 
1 3.1415926535897931 0 0 -1 
Curves 158
1 3.1000000000000001 -3.7962796968493698e-16 -11.300000000000001 0 0 1 
2 0 0 -7.5999999999999996 0 0 -1 -1 0 0 0 1 0 3.1000000000000001
1 -5.6946076160351899e-16 -3.1000000000000001 15 -0 -0 -1 
2 0 0 -15 0 0 1 1 0 -0 -0 1 0 3.1000000000000001
1 -3.1000000000000001 3.7962796968493698e-16 -11.300000000000001 -0 -0 -1 
2 0 0 -7.5999999999999996 0 0 -1 -1 0 0 0 1 0 3.1000000000000001
2 0 0 -15 0 0 1 1 0 -0 -0 1 0 3.1000000000000001
2 0 0 -7.5999999999999996 0 0 1 -1 0 0 0 -1 0 1.6000000000000001
1 0 -1.6000000000000001 15 -0 -0 -1 
2 0 0 -15 0 0 -1 1 0 0 0 -1 0 1.6000000000000001
1 1.6000000000000001 -1.9593701661158e-16 -11.300000000000001 0 -0 -1 
2 0 0 -7.5999999999999996 0 0 1 -1 0 0 0 -1 0 1.6000000000000001
2 0 0 -15 0 0 -1 1 0 0 0 -1 0 1.6000000000000001
1 -1.6000000000000001 1.9593701661158e-16 -11.300000000000001 0 -0 1 
1 3.1000000000000001 -3.7962796968493698e-16 15 0 0 1 
2 0 0 15 0 0 1 1 0 -0 -0 1 0 3.1000000000000001
1 -5.6946076160351899e-16 -3.1000000000000001 15 -0 -0 -1 
2 0 0 7.5999999999999996 -0 0 1 1 0 0 0 1 -0 3.1000000000000001
1 -3.1000000000000001 3.7962796968493698e-16 15 -0 -0 -1 
2 0 0 15 0 0 1 1 0 -0 -0 1 0 3.1000000000000001
2 0 0 7.5999999999999996 -0 0 1 1 0 0 0 1 -0 3.1000000000000001
2 0 0 15 0 0 -1 1 0 0 0 -1 0 1.6000000000000001
1 0 -1.6000000000000001 15 -0 -0 -1 
2 0 0 7.5999999999999996 0 0 -1 1 0 0 0 -1 0 1.6000000000000001
1 1.6000000000000001 -1.9593701661158e-16 15 0 -0 -1 
2 0 0 15 0 0 -1 1 0 0 0 -1 0 1.6000000000000001
2 0 0 7.5999999999999996 0 0 -1 1 0 0 0 -1 0 1.6000000000000001
1 -1.6000000000000001 1.9593701661158e-16 15 0 -0 1 
2 -9 -3.1000000000000001 -9 0 1 0 0 -0 1 1 0 -0 1.6000000000000001
1 -9 -2.3500000000000001 -10.6 0 1 -0 
2 -9 -1.6000000000000001 -9 0 1 0 0 -0 1 1 0 -0 1.6000000000000001
1 -9 -2.3500000000000001 -7.4000000000000004 -0 -1 -0 
2 -9 -3.1000000000000001 9 0 1 0 0 -0 1 1 0 -0 1.6000000000000001
1 -9 -2.3500000000000001 7.4000000000000004 0 1 -0 
2 -9 -1.6000000000000001 9 0 1 0 0 0 -1 -1 0 0 1.6000000000000001
1 -9 -2.3500000000000001 10.6 -0 -1 -0 
1 -1.5 1.8369095307335701e-16 0 -0 -0 -1 
2 0 0 15 0 0 -1 -1 0 0 0 1 0 1.50000000000001
1 1.5 -1.8369095307335701e-16 0 0 0 1 
2 0 0 -15 0 0 -1 -1 0 0 0 1 0 1.5
2 2.6038980963491599e-15 0 -15 0 0 -1 1 0 0 0 -1 0 2
2 0 0 -15 0 0 -1 -1 0 0 0 1 0 2
2 4.7704895589362203e-15 0 15 0 0 -1 1 3.5527136788005001e-15 0 3.5527136788005001e-15 -1 0 1.99999999999999
2 0 0 15 0 0 -1 -1 0 0 0 1 0 2
2 0 0 -15 0 0 -1 -1 0 0 0 1 0 1.5
2 0 0 15 0 0 -1 -1 0 0 0 1 0 1.50000000000001
2 -9 -1.6000000000000001 9 0 1 0 0 0 -1 -1 0 0 1.6000000000000001
2 -9 -3.1000000000000001 9 0 1 0 0 -0 1 1 0 -0 1.6000000000000001
2 -9 -1.6000000000000001 -9 0 1 0 0 -0 1 1 0 -0 1.6000000000000001
2 -9 -3.1000000000000001 -9 0 1 0 0 -0 1 1 0 -0 1.6000000000000001
2 0 0 7.5999999999999996 0 0 -1 1 0 0 0 -1 0 1.6000000000000001
1 -1.4500924592586399 -0.67618921878512595 15 -0 -0 -1 
2 0 0 15 0 0 -1 1 0 0 0 -1 0 1.6000000000000001
2 0 0 7.5999999999999996 -0 0 1 1 0 0 0 1 -0 3.1000000000000001
1 -2.8095541398136099 -1.31011661139618 15 -0 -0 -1 
2 0 0 15 0 0 1 1 0 -0 -0 1 0 3.1000000000000001
2 0 0 -15 0 0 -1 1 0 0 0 -1 0 1.6000000000000001
1 -1.4500924592586399 -0.67618921878512595 15 -0 -0 -1 
2 0 0 -7.5999999999999996 0 0 1 -1 0 0 0 -1 0 1.6000000000000001
2 0 0 -15 0 0 1 1 0 -0 -0 1 0 3.1000000000000001
1 -2.8095541398136099 -1.31011661139618 15 -0 -0 -1 
2 0 0 -7.5999999999999996 0 0 -1 -1 0 0 0 1 0 3.1000000000000001
1 -2.8095541398136099 -1.31011661139618 -7.5999999999999996 -0.90630778703664783 -0.42261826174070388 0 
1 -2.8095541398136099 -1.31011661139618 -15 0.90630778703664783 0.42261826174070388 0 
1 -2.8095541398136099 -1.31011661139618 -15 0.90630778703664783 0.42261826174070388 0 
1 -15 -3.1000000000000001 15 -0 -0 -1 
1 -15 -1.6000000000000001 13.4 -0 1 -0 
1 -15 -1.6000000000000001 15 -0 -0 -1 
1 -15 -1.6000000000000001 -13.4 0 -1 0 
1 -15 -3.1000000000000001 15 1 0 0 
2 -13.4 -3.1000000000000001 13.4 0 -1 0 0 0 1 -1 0 0 1.6000000000000001
2 -13.4 -3.1000000000000001 -13.4 0 -1 0 0 0 1 -1 0 0 1.6000000000000001
1 -15 -3.1000000000000001 -15 1 0 0 
1 -15 -3.1000000000000001 -7.5999999999999996 -1 0 0 
1 -4.5 -3.1000000000000001 15 0 -0 1 
1 -15 -3.1000000000000001 7.5999999999999996 1 -0 0 
1 -2.8095541398136099 -1.31011661139618 7.5999999999999996 0.90630778703664783 0.42261826174070388 0 
1 -2.8095541398136099 -1.31011661139618 15 0.90630778703664783 0.42261826174070388 0 
1 -2.8095541398136099 -1.31011661139618 15 0.90630778703664783 0.42261826174070388 0 
2 -13.4 -1.6000000000000001 13.4 0 1 0 0 0 -1 -1 0 0 1.6000000000000001
1 -15 -1.6000000000000001 15 -1 -0 -0 
1 -15 -1.6000000000000001 15 -1 -0 -0 
1 -15 -1.6000000000000001 7.5999999999999996 -1 0 0 
1 -4.5 -1.6000000000000001 15 0 0 -1 
1 -15 -1.6000000000000001 -7.5999999999999996 1 0 0 
1 -15 -1.6000000000000001 -15 -1 -0 -0 
1 -15 -1.6000000000000001 -15 -1 -0 -0 
2 -13.4 -1.6000000000000001 -13.4 0 1 0 0 0 -1 -1 0 0 1.6000000000000001
1 -13.4 -3.1000000000000001 15 0 -1 0 
1 -13.4 0 -15 -0 1 -0 
1 -4.5 -10 -7.5999999999999996 -0 1 -0 
1 -4.5 -10 7.5999999999999996 -0 1 -0 
1 -3.1000000000000001 -3.7962796968493698e-16 -6.7368761957966004e-17 2.17318586961181e-17 5.17960561634569e-18 -1 
2 1.6298894022088599e-16 3.8847042122592699e-17 -7.5 -2.17318586961181e-17 -5.17960561634569e-18 1 1 0 2.17318586961181e-17 -1.1256245735604424e-34 1 5.17960561634569e-18 3.1000000000000001
1 8.9543864204528998e-16 -3.1000000000000001 -15 -2.17318586961181e-17 -5.17960561634569e-18 1 
2 -1.6298894022088599e-16 -3.8847042122592699e-17 7.5 -2.58062250332399e-16 5.17960561634569e-18 -1 -1 -1.44922313854455e-33 2.58062250332399e-16 -1.1256245735604862e-34 1 5.17960561634569e-18 3.1000000000000001
1 3.1000000000000001 3.7962796968493698e-16 6.7368761957966004e-17 -2.17318586961181e-17 -5.17960561634569e-18 1 
2 1.6298894022088599e-16 3.8847042122592699e-17 -7.5 -2.17318586961181e-17 -5.17960561634569e-18 1 1 0 2.17318586961181e-17 -1.1256245735604424e-34 1 5.17960561634569e-18 3.1000000000000001
2 -1.6298894022088599e-16 -3.8847042122592699e-17 7.5 -2.58062250332399e-16 5.17960561634569e-18 -1 -1 -1.44922313854455e-33 2.58062250332399e-16 -1.1256245735604862e-34 1 5.17960561634569e-18 3.1000000000000001
2 1.6298894022088599e-16 3.8847042122592699e-17 -7.5 2.17318586961181e-17 5.17960561634569e-18 -1 1 0 2.17318586961181e-17 1.1256245735604424e-34 -1 -5.17960561634569e-18 1.6000000000000001
1 3.2597788044177099e-16 -1.6000000000000001 -15 -2.17318586961181e-17 -5.17960561634569e-18 1 
2 -1.6298894022088599e-16 -3.8847042122592699e-17 7.5 -2.17318586961181e-17 -5.17960561634569e-18 1 -1 0 -2.17318586961181e-17 1.1256245735604424e-34 -1 -5.17960561634569e-18 1.6000000000000001
1 -1.6000000000000001 -1.9593701661158e-16 -3.4770973913788903e-17 -2.17318586961181e-17 -5.17960561634569e-18 1 
2 1.6298894022088599e-16 3.8847042122592699e-17 -7.5 2.17318586961181e-17 5.17960561634569e-18 -1 1 0 2.17318586961181e-17 1.1256245735604424e-34 -1 -5.17960561634569e-18 1.6000000000000001
2 -1.6298894022088599e-16 -3.8847042122592699e-17 7.5 -2.17318586961181e-17 -5.17960561634569e-18 1 -1 0 -2.17318586961181e-17 1.1256245735604424e-34 -1 -5.17960561634569e-18 1.6000000000000001
1 1.6000000000000001 1.9593701661158e-16 3.4770973913788903e-17 2.17318586961181e-17 5.17960561634569e-18 -1 
2 9 -3.1000000000000001 9 -1.12562457356044e-34 1 5.17960561634569e-18 2.17318586961181e-17 5.17960561634569e-18 -1 -1 2.3520329448811322e-49 -2.17318586961181e-17 1.6000000000000001
1 9 -2.3500000000000001 10.6 -1.12562457356044e-34 1 5.17960561634569e-18 
2 9 -1.6000000000000001 9 -1.12562457356044e-34 1 5.17960561634569e-18 2.17318586961181e-17 5.17960561634569e-18 -1 -1 2.3520329448811322e-49 -2.17318586961181e-17 1.6000000000000001
1 9 -2.3500000000000001 7.4000000000000004 1.12562457356044e-34 -1 -5.17960561634569e-18 
2 9 -3.1000000000000001 -9 -1.12562457356044e-34 1 5.17960561634569e-18 2.17318586961181e-17 5.17960561634569e-18 -1 -1 2.3520329448811322e-49 -2.17318586961181e-17 1.6000000000000001
1 9 -2.3500000000000001 -7.4000000000000004 -1.12562457356044e-34 1 5.17960561634569e-18 
2 9 -1.6000000000000001 -9 -1.12562457356044e-34 1 5.17960561634569e-18 -2.17318586961181e-17 -5.17960561634569e-18 1 1 -2.3520329448811322e-49 2.17318586961181e-17 1.6000000000000001
1 9 -2.3500000000000001 -10.6 1.12562457356044e-34 -1 -5.17960561634569e-18 
2 9 -1.6000000000000001 -9 -1.12562457356044e-34 1 5.17960561634569e-18 -2.17318586961181e-17 -5.17960561634569e-18 1 1 -2.3520329448811322e-49 2.17318586961181e-17 1.6000000000000001
2 9 -3.1000000000000001 -9 -1.12562457356044e-34 1 5.17960561634569e-18 2.17318586961181e-17 5.17960561634569e-18 -1 -1 2.3520329448811322e-49 -2.17318586961181e-17 1.6000000000000001
2 9 -1.6000000000000001 9 -1.12562457356044e-34 1 5.17960561634569e-18 2.17318586961181e-17 5.17960561634569e-18 -1 -1 2.3520329448811322e-49 -2.17318586961181e-17 1.6000000000000001
2 9 -3.1000000000000001 9 -1.12562457356044e-34 1 5.17960561634569e-18 2.17318586961181e-17 5.17960561634569e-18 -1 -1 2.3520329448811322e-49 -2.17318586961181e-17 1.6000000000000001
2 -1.6298894022088599e-16 -3.8847042122592699e-17 7.5 -2.17318586961181e-17 -5.17960561634569e-18 1 -1 0 -2.17318586961181e-17 1.1256245735604424e-34 -1 -5.17960561634569e-18 1.6000000000000001
1 1.4500924592586399 -0.67618921878512595 -15 -2.17318586961181e-17 -5.17960561634569e-18 1 
2 1.6298894022088599e-16 3.8847042122592699e-17 -7.5 2.17318586961181e-17 5.17960561634569e-18 -1 1 0 2.17318586961181e-17 1.1256245735604424e-34 -1 -5.17960561634569e-18 1.6000000000000001
2 -1.6298894022088599e-16 -3.8847042122592699e-17 7.5 -2.58062250332399e-16 5.17960561634569e-18 -1 -1 -1.44922313854455e-33 2.58062250332399e-16 -1.1256245735604862e-34 1 5.17960561634569e-18 3.1000000000000001
1 2.8095541398136099 -1.31011661139618 -15 -2.17318586961181e-17 -5.17960561634569e-18 1 
2 1.6298894022088599e-16 3.8847042122592699e-17 -7.5 -2.17318586961181e-17 -5.17960561634569e-18 1 1 0 2.17318586961181e-17 -1.1256245735604424e-34 1 5.17960561634569e-18 3.1000000000000001
1 15 -3.1000000000000001 -15 -2.17318586961181e-17 -5.17960561634569e-18 1 
1 15 -1.6000000000000001 -13 -1.12562457356044e-34 1 5.17960561634569e-18 
1 15 -1.6000000000000001 -15 -2.17318586961181e-17 -5.17960561634569e-18 1 
1 15 -1.6000000000000001 13 1.12562457356044e-34 -1 -5.17960561634569e-18 
1 15 -3.1000000000000001 -15 -1 0 -2.17318586961181e-17 
2 13 -3.1000000000000001 -13 1.12562457356044e-34 -1 -5.17960561634569e-18 2.17318586961181e-17 5.17960561634569e-18 -1 1 -2.3520329448811322e-49 2.17318586961181e-17 2
2 13 -3.1000000000000001 13 1.12562457356044e-34 -1 -5.17960561634569e-18 2.17318586961181e-17 5.17960561634569e-18 -1 1 -2.3520329448811322e-49 2.17318586961181e-17 2
1 15 -3.1000000000000001 15 -1 0 -2.17318586961181e-17 
1 4.5 -3.1000000000000001 -15 1.2085891446622099e-16 5.17960561634569e-18 -1 
2 3.5 -3.1000000000000001 8.5 -1.12562457356044e-34 1 5.17960561634569e-18 2.17318586961181e-17 5.17960561634569e-18 -1 -1 2.3520329448811322e-49 -2.17318586961181e-17 1
1 15 -3.1000000000000001 7.5 -1 -7.4876528824801601e-34 1.22828430968616e-16 
1 15 -3.1000000000000001 -7.5 1 0 2.17318586961181e-17 
2 3.5 -3.1000000000000001 -8.5 -1.12562457356044e-34 1 5.17960561634569e-18 2.17318586961181e-17 5.17960561634569e-18 -1 -1 2.3520329448811322e-49 -2.17318586961181e-17 1
1 4.5 -3.1000000000000001 -15 -3.2521283649924301e-16 5.17960561634569e-18 -1 
1 2.8095541398136099 -1.31011661139618 -7.5 0.90630778703664783 -0.42261826174070388 1.7506756840989496e-17 
1 2.8095541398136099 -1.31011661139618 7.5 -0.90630778703664783 0.42261826174070388 1.1350935937843198e-16 
2 13 -1.6000000000000001 -13 -1.12562457356044e-34 1 5.17960561634569e-18 -2.17318586961181e-17 -5.17960561634569e-18 1 1 -2.3520329448811322e-49 2.17318586961181e-17 2
1 15 -1.6000000000000001 -15 1 -0 2.17318586961181e-17 
1 4.5 -1.6000000000000001 -15 3.2521283649924301e-16 -5.17960561634569e-18 1 
2 3.5 -1.6000000000000001 -8.5 1.12562457356044e-34 -1 -5.17960561634569e-18 -2.17318586961181e-17 -5.17960561634569e-18 1 -1 2.3520329448811322e-49 -2.17318586961181e-17 1
1 15 -1.6000000000000001 -7.5 -1 0 -2.17318586961181e-17 
1 15 -1.6000000000000001 7.5 1 7.4876528824801601e-34 -1.22828430968616e-16 
2 3.5 -1.6000000000000001 8.5 1.12562457356044e-34 -1 -5.17960561634569e-18 -2.17318586961181e-17 -5.17960561634569e-18 1 -1 2.3520329448811322e-49 -2.17318586961181e-17 1
1 4.5 -1.6000000000000001 -15 -1.2085891446622099e-16 -5.17960561634569e-18 1 
1 15 -1.6000000000000001 15 1 -0 2.17318586961181e-17 
2 13 -1.6000000000000001 13 -1.12562457356044e-34 1 5.17960561634569e-18 -2.17318586961181e-17 -5.17960561634569e-18 1 1 -2.3520329448811322e-49 2.17318586961181e-17 2
1 13 -3.1000000000000001 -15 1.12562457356044e-34 -1 -5.17960561634569e-18 
1 4.5 7.7694084245185398e-17 -15 1.12562457356044e-34 -1 -5.17960561634569e-18 
1 13 -7.7694084245185398e-17 15 -1.12562457356044e-34 1 5.17960561634569e-18 
1 4.5 -7.7694084245185398e-17 15 1.12562457356044e-34 -1 -5.17960561634569e-18 
1 3.5 -11.6 7.5 -1.12562457356044e-34 1 5.17960561634569e-18 
1 4.5 -11.6 8.5 -1.12562457356044e-34 1 5.17960561634569e-18 
1 4.5 -11.6 -8.5 -1.12562457356044e-34 1 5.17960561634569e-18 
1 3.5 -11.6 -7.5 -1.12562457356044e-34 1 5.17960561634569e-18 
Polygon3D 0
PolygonOnTriangulations 0
Surfaces 58
2 0 0 15 0 0 1 -1 0 0 0 -1 0 3.1000000000000001
2 0 0 15 0 0 1 -1 0 0 0 -1 0 3.1000000000000001
1 -4.5 -10 -7.5999999999999996 0 0 -1 0 -1 0 -1 -0 -0 
1 -15 -3.1000000000000001 15 0 1 0 1 0 -0 -0 0 -1 
1 0 0 -15 0 0 1 1 -0 0 0 1 -0 
2 0 0 15 0 0 1 -1 0 0 0 -1 0 3.1000000000000001
2 0 0 15 0 0 1 -1 0 0 0 -1 0 1.6000000000000001
1 -15 -1.6000000000000001 15 0 -1 0 0 0 -1 1 0 0 
1 1.5 0 -15 -0 -0 -1 0 -1 0 -1 0 0 
2 0 0 15 0 0 1 -1 0 0 0 -1 0 1.6000000000000001
2 0 0 15 0 0 1 -1 0 0 0 -1 0 1.6000000000000001
2 0 0 15 0 0 1 -1 0 0 0 -1 0 3.1000000000000001
2 0 0 15 0 0 1 -1 0 0 0 -1 0 3.1000000000000001
1 0 0 15 0 0 1 1 -0 0 0 1 -0 
1 -4.5 -10 7.5999999999999996 -0 0 1 1 0 0 0 1 -0 
2 0 0 15 0 0 1 -1 0 0 0 -1 0 3.1000000000000001
2 0 0 15 0 0 1 -1 0 0 0 -1 0 1.6000000000000001
1 1.50000000000001 0 15 0 0 1 1 -0 0 0 1 -0 
2 0 0 15 0 0 1 -1 0 0 0 -1 0 1.6000000000000001
2 0 0 15 0 0 1 -1 0 0 0 -1 0 1.6000000000000001
2 -9 -18.100000000000001 -9 0 -1 0 0 0 1 -1 0 0 1.6000000000000001
2 -9 -18.100000000000001 -9 0 -1 0 0 0 1 -1 0 0 1.6000000000000001
2 -9 -18.100000000000001 9 0 -1 0 0 0 1 -1 0 0 1.6000000000000001
2 -9 -18.100000000000001 9 0 -1 0 0 0 1 -1 0 0 1.6000000000000001
2 0 0 -30 0 0 1 -1 0 0 0 -1 0 1.5
2 0 0 -30 0 0 1 -1 0 0 0 -1 0 1.5
4 2.6038980963491599e-15 0 -9.3431457505076203 0 -1 -0 1 0 0 0 -0 1 6
4 4.7704895589362203e-15 0 9.3431457505076203 0 -1 -0 1 0 0 0 -0 1 6
1 -2.8095541398136099 -1.31011661139618 15 -0.42261826174070394 0.90630778703664794 0 0 0 1 0.90630778703664794 0.42261826174070394 -0 
1 -2.8095541398136099 -1.31011661139618 15 -0.42261826174070394 0.90630778703664794 0 0 0 1 0.90630778703664794 0.42261826174070394 -0 
1 -15 -1.6000000000000001 15 1 -0 0 0 1 0 -0 0 1 
2 -13.4 0 13.4 0 -1 0 0 0 1 -1 0 0 1.6000000000000001
2 -13.4 -1.6000000000000001 -13.4 0 1 0 0 0 -1 -1 0 0 1.6000000000000001
1 -4.5 -10 -7.5999999999999996 -1 0 0 0 0 1 0 1 -0 
2 3.2597788044177099e-16 7.7694084245185398e-17 -15 2.17318586961181e-17 5.17960561634569e-18 -1 1 0 2.17318586961181e-17 1.1256245735604424e-34 -1 -5.17960561634569e-18 3.1000000000000001
2 3.2597788044177099e-16 7.7694084245185398e-17 -15 2.17318586961181e-17 5.17960561634569e-18 -1 1 0 2.17318586961181e-17 1.1256245735604424e-34 -1 -5.17960561634569e-18 3.1000000000000001
1 3.5 -11.6 -7.5 -2.17318586961181e-17 -5.17960561634569e-18 1 1.12562457356044e-34 -1 -5.17960561634569e-18 1 -2.3520329448811322e-49 2.17318586961181e-17 
1 15 -3.1000000000000001 -15 -1.12562457356044e-34 1 5.17960561634569e-18 -1 2.3520329448811322e-49 -2.17318586961181e-17 -2.17318586961181e-17 -5.17960561634569e-18 1 
1 3.5 -11.6 7.5 2.17318586961181e-17 5.1796056163457101e-18 -1 -1 -1.4456028966473399e-16 -2.17318586961181e-17 -1.4456028966473399e-16 1 5.179605616345707e-18 
2 3.2597788044177099e-16 7.7694084245185398e-17 -15 2.17318586961181e-17 5.17960561634569e-18 -1 1 0 2.17318586961181e-17 1.1256245735604424e-34 -1 -5.17960561634569e-18 3.1000000000000001
2 3.2597788044177099e-16 7.7694084245185398e-17 -15 2.17318586961181e-17 5.17960561634569e-18 -1 1 0 2.17318586961181e-17 1.1256245735604424e-34 -1 -5.17960561634569e-18 1.6000000000000001
1 15 -1.6000000000000001 -15 1.12562457356044e-34 -1 -5.17960561634569e-18 -2.17318586961181e-17 -5.17960561634569e-18 1 -1 2.3520329448811322e-49 -2.17318586961181e-17 
2 3.2597788044177099e-16 7.7694084245185398e-17 -15 2.17318586961181e-17 5.17960561634569e-18 -1 1 0 2.17318586961181e-17 1.1256245735604424e-34 -1 -5.17960561634569e-18 1.6000000000000001
2 3.2597788044177099e-16 7.7694084245185398e-17 -15 2.17318586961181e-17 5.17960561634569e-18 -1 1 0 2.17318586961181e-17 1.1256245735604424e-34 -1 -5.17960561634569e-18 1.6000000000000001
2 9 -11.6 9 1.12562457356044e-34 -1 -5.17960561634569e-18 2.17318586961181e-17 5.17960561634569e-18 -1 1 -2.3520329448811322e-49 2.17318586961181e-17 1.6000000000000001
2 9 -11.6 9 1.12562457356044e-34 -1 -5.17960561634569e-18 2.17318586961181e-17 5.17960561634569e-18 -1 1 -2.3520329448811322e-49 2.17318586961181e-17 1.6000000000000001
2 9 -11.6 -9 1.12562457356044e-34 -1 -5.17960561634569e-18 2.17318586961181e-17 5.17960561634569e-18 -1 1 -2.3520329448811322e-49 2.17318586961181e-17 1.6000000000000001
2 9 -11.6 -9 1.12562457356044e-34 -1 -5.17960561634569e-18 2.17318586961181e-17 5.17960561634569e-18 -1 1 -2.3520329448811322e-49 2.17318586961181e-17 1.6000000000000001
1 2.8095541398136099 -1.31011661139618 -15 0.42261826174070394 0.90630778703664794 1.3878597250420899e-17 2.1731858696118109e-17 5.1796056163457001e-18 -1 -0.90630778703664794 0.42261826174070394 -1.750675684098953e-17 
1 15 -1.6000000000000001 -15 -1 0 -2.17318586961181e-17 -1.1256245735604424e-34 1 5.17960561634569e-18 2.17318586961181e-17 5.17960561634569e-18 -1 
2 13 6.7334873012494001e-17 -13 1.12562457356044e-34 -1 -5.17960561634569e-18 2.17318586961181e-17 5.17960561634569e-18 -1 1 -2.3520329448811322e-49 2.17318586961181e-17 2
2 13 -1.6000000000000001 13 -1.12562457356044e-34 1 5.17960561634569e-18 -2.17318586961181e-17 -5.17960561634569e-18 1 1 -2.3520329448811322e-49 2.17318586961181e-17 2
1 3.2597788044177099e-16 7.7694084245185398e-17 -15 2.17318586961181e-17 5.17960561634569e-18 -1 -1 0 -2.17318586961181e-17 -1.1256245735604424e-34 1 5.17960561634569e-18 
1 -3.2597788044177099e-16 -7.7694084245185398e-17 15 2.17318586961181e-17 5.17960561634569e-18 -1 -1 0 -2.17318586961181e-17 -1.1256245735604424e-34 1 5.17960561634569e-18 
1 4.5 -11.6 26 1 -5.1343905479863997e-34 1.2085891446622099e-16 1.2085891446622099e-16 5.17960561634569e-18 -1 -1.125624573560417e-34 1 5.17960561634569e-18 
2 3.5 -11.6 8.5 1.12562457356044e-34 -1 -5.17960561634569e-18 2.17318586961181e-17 5.17960561634569e-18 -1 1 -2.3520329448811322e-49 2.17318586961181e-17 1
2 3.5 -11.6 -8.5 1.12562457356044e-34 -1 -5.17960561634569e-18 2.17318586961181e-17 5.17960561634569e-18 -1 1 -2.3520329448811322e-49 2.17318586961181e-17 1
1 4.4999999999999902 -11.6 -26 1 1.7970366917952401e-33 -3.2521283649924301e-16 -1.1256245735604828e-34 1 5.17960561634569e-18 3.2521283649924301e-16 -5.17960561634569e-18 1 
Triangulations 0

TShapes 393
Ve
1e-07
3.1 -3.79627969684937e-16 -15
0 0

0101101
*
Ve
1e-07
3.1 -3.79627969684937e-16 -7.6
0 0

0101101
*
Ed
 1e-07 1 1 0
1  1 0 -3.7 3.7
2  1 1 0 -3.7 3.7
2  2 2 0 -3.7 3.7
4 CN 1 0 2 0
0

0101000
+393 0 -392 0 *
Ve
1e-07
-5.69460761603519e-16 -3.1 -7.6
0 0

0101101
*
Ed
 1e-07 1 1 0
1  2 0 3.14159265358979 4.71238898038469
2  3 1 0 3.14159265358979 4.71238898038469
4 C0 1 0 3 0
0

0101000
+392 0 -390 0 *
Ve
1e-07
-5.69460761603519e-16 -3.1 -15
0 0

0101101
*
Ed
 1e-07 1 1 0
1  3 0 22.6 30
2  4 1 0 22.6 30
4 G1 1 0 4 0
0

0101000
+390 0 -388 0 *
Ed
 1e-07 1 1 0
1  4 0 4.71238898038469 6.28318530717959
2  5 1 0 4.71238898038469 6.28318530717959
4 C0 1 0 5 0
0

0101000
+388 0 -393 0 *
Wi

0101100
+391 0 +389 0 +387 0 +386 0 *
Fa
0  1e-07 1 0

0111000
+385 0 *
Ve
1e-07
-3.1 3.79627969684937e-16 -7.6
0 0

0101101
*
Ve
1e-07
-3.1 3.79627969684937e-16 -15
0 0

0101101
*
Ed
 1e-07 1 1 0
1  5 0 -3.7 3.7
2  6 2 0 -3.7 3.7
2  7 6 0 -3.7 3.7
4 CN 2 0 6 0
0

0101000
+383 0 -382 0 *
Ed
 1e-07 1 1 0
1  6 0 0 3.14159265358979
2  8 2 0 0 3.14159265358979
4 C0 2 0 3 0
0

0101000
+383 0 -392 0 *
Ed
 1e-07 1 1 0
1  7 0 0 3.14159265358979
2  9 2 0 0 3.14159265358979
4 C0 2 0 5 0
0

0101000
+393 0 -382 0 *
Wi

0101100
-381 0 +380 0 -391 0 +379 0 *
Fa
0  1e-07 2 0

0111000
+378 0 *
Ve
1e-07
0 -1.6 -7.6
0 0

0101101
*
Ve
1e-07
1.6 -1.9593701661158e-16 -7.6
0 0

0101101
*
Ed
 1e-07 1 1 0
1  8 0 1.5707963267949 3.14159265358979
2  10 7 0 1.5707963267949 3.14159265358979
4 C0 7 0 3 0
0

0101000
+376 0 -375 0 *
Ve
1e-07
0 -1.6 -15
0 0

0101101
*
Ed
 1e-07 1 1 0
1  9 0 22.6 30
2  11 7 0 22.6 30
4 G1 7 0 8 0
0

0101000
+376 0 -373 0 *
Ve
1e-07
1.6 -1.9593701661158e-16 -15
0 0

0101101
*
Ed
 1e-07 1 1 0
1  10 0 0 1.5707963267949
2  12 7 0 0 1.5707963267949
4 C0 7 0 9 0
0

0101000
+371 0 -373 0 *
Ed
 1e-07 1 1 0
1  11 0 -3.7 3.7
2  13 7 0 -3.7 3.7
2  14 10 0 -3.7 3.7
4 CN 7 0 10 0
0

0101000
+375 0 -371 0 *
Wi

0101100
-374 0 +372 0 -370 0 -369 0 *
Fa
0  1e-07 7 0

0111000
+368 0 *
Ve
1e-07
-1.6 1.9593701661158e-16 -7.6
0 0

0101101
*
Ed
 1e-07 1 1 0
1  12 0 3.14159265358979 6.28318530717959
2  15 10 0 3.14159265358979 6.28318530717959
4 C0 10 0 3 0
0

0101000
+375 0 -366 0 *
Ve
1e-07
-1.6 1.9593701661158e-16 -15
0 0

0101101
*
Ed
 1e-07 1 1 0
1  13 0 3.14159265358979 6.28318530717959
2  16 10 0 3.14159265358979 6.28318530717959
4 C0 10 0 9 0
0

0101000
+364 0 -371 0 *
Ed
 1e-07 1 1 0
1  14 0 -3.7 3.7
2  17 10 0 -3.7 3.7
2  18 11 0 -3.7 3.7
4 CN 10 0 11 0
0

0101000
+364 0 -366 0 *
Wi

0101100
-365 0 +369 0 -363 0 +362 0 *
Fa
0  1e-07 10 0

0111000
+361 0 *
Ve
1e-07
3.1 -3.79627969684937e-16 7.6
0 0

0101101
*
Ve
1e-07
3.1 -3.79627969684937e-16 15
0 0

0101101
*
Ed
 1e-07 1 1 0
1  15 0 -7.4 0
2  19 12 0 -7.4 0
2  20 13 0 -7.4 0
4 CN 12 0 13 0
0

0101000
+359 0 -358 0 *
Ve
1e-07
-5.69460761603519e-16 -3.1 15
0 0

0101101
*
Ed
 1e-07 1 1 0
1  16 0 4.71238898038469 6.28318530717959
2  21 12 0 4.71238898038469 6.28318530717959
4 C0 12 0 14 0
0

0101000
+356 0 -358 0 *
Ve
1e-07
-5.69460761603519e-16 -3.1 7.6
0 0

0101101
*
Ed
 1e-07 1 1 0
1  17 0 -0 7.4
2  22 12 0 -0 7.4
4 G1 12 0 4 0
0

0101000
+356 0 -354 0 *
Ed
 1e-07 1 1 0
1  18 0 4.71238898038469 6.28318530717959
2  23 12 0 4.71238898038469 6.28318530717959
4 C0 12 0 15 0
0

0101000
+354 0 -359 0 *
Wi

0101100
+357 0 -355 0 +353 0 +352 0 *
Fa
0  1e-07 12 0

0111000
+351 0 *
Ve
1e-07
-3.1 3.79627969684937e-16 15
0 0

0101101
*
Ve
1e-07
-3.1 3.79627969684937e-16 7.6
0 0

0101101
*
Ed
 1e-07 1 1 0
1  19 0 -0 7.4
2  24 13 0 -0 7.4
2  25 16 0 -0 7.4
4 CN 13 0 16 0
0

0101000
+349 0 -348 0 *
Ed
 1e-07 1 1 0
1  20 0 0 3.14159265358979
2  26 13 0 0 3.14159265358979
4 C0 13 0 14 0
0

0101000
+358 0 -349 0 *
Ed
 1e-07 1 1 0
1  21 0 0 3.14159265358979
2  27 13 0 0 3.14159265358979
4 C0 13 0 15 0
0

0101000
+359 0 -348 0 *
Wi

0101100
-347 0 -346 0 -357 0 +345 0 *
Fa
0  1e-07 13 0

0111000
+344 0 *
Ve
1e-07
1.6 -1.9593701661158e-16 15
0 0

0101101
*
Ve
1e-07
0 -1.6 15
0 0

0101101
*
Ed
 1e-07 1 1 0
1  22 0 0 1.5707963267949
2  28 17 0 0 1.5707963267949
4 C0 17 0 18 0
0

0101000
+342 0 -341 0 *
Ve
1e-07
0 -1.6 7.6
0 0

0101101
*
Ed
 1e-07 1 1 0
1  23 0 -0 7.4
2  29 17 0 -0 7.4
4 G1 17 0 8 0
0

0101000
+341 0 -339 0 *
Ve
1e-07
1.6 -1.9593701661158e-16 7.6
0 0

0101101
*
Ed
 1e-07 1 1 0
1  24 0 0 1.5707963267949
2  30 17 0 0 1.5707963267949
4 C0 17 0 15 0
0

0101000
+337 0 -339 0 *
Ed
 1e-07 1 1 0
1  25 0 0 7.4
2  31 17 0 0 7.4
2  32 19 0 0 7.4
4 CN 17 0 19 0
0

0101000
+342 0 -337 0 *
Wi

0101100
+340 0 +338 0 -336 0 -335 0 *
Fa
0  1e-07 17 0

0111000
+334 0 *
Ve
1e-07
-1.6 1.9593701661158e-16 15
0 0

0101101
*
Ed
 1e-07 1 1 0
1  26 0 3.14159265358979 6.28318530717959
2  33 19 0 3.14159265358979 6.28318530717959
4 C0 19 0 18 0
0

0101000
+332 0 -342 0 *
Ve
1e-07
-1.6 1.9593701661158e-16 7.6
0 0

0101101
*
Ed
 1e-07 1 1 0
1  27 0 3.14159265358979 6.28318530717959
2  34 19 0 3.14159265358979 6.28318530717959
4 C0 19 0 15 0
0

0101000
+330 0 -337 0 *
Ed
 1e-07 1 1 0
1  28 0 -7.4 0
2  35 19 0 -7.4 0
2  36 20 0 -7.4 0
4 CN 19 0 20 0
0

0101000
+330 0 -332 0 *
Wi

0101100
+331 0 +335 0 -329 0 +328 0 *
Fa
0  1e-07 19 0

0111000
+327 0 *
Ve
1e-07
-9 -3.1 -7.4
0 0

0101101
*
Ve
1e-07
-9 -3.1 -10.6
0 0

0101101
*
Ed
 1e-07 1 1 0
1  29 0 0 3.14159265358979
2  37 21 0 0 3.14159265358979
4 C0 21 0 4 0
0

0101000
+325 0 -324 0 *
Ve
1e-07
-9 -1.6 -10.6
0 0

0101101
*
Ed
 1e-07 1 1 0
1  30 0 -0.75 0.75
2  38 21 0 -0.75 0.75
2  39 22 0 -0.75 0.75
4 CN 21 0 22 0
0

0101000
+324 0 -322 0 *
Ve
1e-07
-9 -1.6 -7.4
0 0

0101101
*
Ed
 1e-07 1 1 0
1  31 0 0 3.14159265358979
2  40 21 0 0 3.14159265358979
4 C0 21 0 8 0
0

0101000
+320 0 -322 0 *
Ed
 1e-07 1 1 0
1  32 0 -0.75 0.75
2  41 21 0 -0.75 0.75
2  42 22 0 -0.75 0.75
4 CN 21 0 22 0
0

0101000
+320 0 -325 0 *
Wi

0101100
+323 0 +321 0 -319 0 +318 0 *
Fa
0  1e-07 21 0

0111000
+317 0 *
Ve
1e-07
-9 -3.1 10.6
0 0

0101101
*
Ve
1e-07
-9 -3.1 7.4
0 0

0101101
*
Ed
 1e-07 1 1 0
1  33 0 0 3.14159265358979
2  43 23 0 0 3.14159265358979
4 C0 23 0 4 0
0

0101000
+315 0 -314 0 *
Ve
1e-07
-9 -1.6 7.4
0 0

0101101
*
Ed
 1e-07 1 1 0
1  34 0 -0.75 0.75
2  44 23 0 -0.75 0.75
2  45 24 0 -0.75 0.75
4 CN 23 0 24 0
0

0101000
+314 0 -312 0 *
Ve
1e-07
-9 -1.6 10.6
0 0

0101101
*
Ed
 1e-07 1 1 0
1  35 0 3.14159265358979 6.28318530717959
2  46 23 0 3.14159265358979 6.28318530717959
4 C0 23 0 8 0
0

0101000
+310 0 -312 0 *
Ed
 1e-07 1 1 0
1  36 0 -0.75 0.75
2  47 23 0 -0.75 0.75
2  48 24 0 -0.75 0.75
4 CN 23 0 24 0
0

0101000
+310 0 -315 0 *
Wi

0101100
+313 0 +311 0 -309 0 +308 0 *
Fa
0  1e-07 23 0

0111000
+307 0 *
Ve
1e-07
-1.50000000000001 1.83690953073357e-16 15
0 0

0101101
*
Ve
1e-07
-1.5 0 -15
0 0

0101101
*
Ed
 1e-07 1 1 0
1  37 0 -15 15
2  49 25 0 -15 15
2  50 26 0 -15 15
4 CN 25 0 26 0
0

0101000
+305 0 -304 0 *
Ve
1e-07
1.50000000000001 1.83697019872104e-16 15
0 0

0101101
*
Ed
 1e-07 1 1 0
1  38 0 0 3.14159265358979
2  51 25 0 0 3.14159265358979
4 C0 25 0 18 0
0

0101000
+305 0 -302 0 *
Ve
1e-07
1.5 -1.83690953073357e-16 -15
0 0

0101101
*
Ed
 1e-07 1 1 0
1  39 0 -15 15
2  52 25 0 -15 15
2  53 26 0 -15 15
4 CN 25 0 26 0
0

0101000
+300 0 -302 0 *
Ed
 1e-07 1 1 0
1  40 0 0 3.14159265358979
2  54 25 0 0 3.14159265358979
4 C0 25 0 9 0
0

0101000
+304 0 -300 0 *
Wi

0101100
-303 0 +301 0 -299 0 -298 0 *
Fa
0  1e-07 25 0

0111000
+297 0 *
Ve
1e-07
-1.81261557407329 -0.845236523481406 -15
0 0

0101101
*
Ve
1e-07
-1.2 -1.6 -15
0 0

0101101
*
Ed
 1e-07 1 1 0
1  41 0 2.70526034059121 8.49748274276777
2  55 27 0 2.70526034059121 8.49748274276777
4 C0 27 0 5 0
0

0101000
+295 0 -294 0 *
Ed
 1e-07 1 1 0
1  42 0 5.35589008917797 5.846852994181
2  56 27 0 5.35589008917797 5.846852994181
4 C0 27 0 9 0
0

0101000
+294 0 -295 0 *
Wi

0101100
+293 0 +292 0 *
Fa
0  1e-07 27 0

0111000
+291 0 *
Ve
1e-07
-1.8126155740733 -0.845236523481409 15
0 0

0101101
*
Ve
1e-07
-1.19999999999999 -1.6 15
0 0

0101101
*
Ed
 1e-07 1 1 0
1  43 0 2.70526034059121 8.49748274276777
2  57 28 0 2.70526034059121 8.49748274276777
4 C0 28 0 14 0
0

0101000
+289 0 -288 0 *
Ed
 1e-07 1 1 0
1  44 0 5.35589008917797 5.846852994181
2  58 28 0 5.35589008917797 5.846852994181
4 C0 28 0 18 0
0

0101000
+288 0 -289 0 *
Wi

0101100
-287 0 -286 0 *
Fa
0  1e-07 28 0

0111000
+285 0 *
Ed
 1e-07 1 1 0
1  45 0 3.14159265358979 6.28318530717959
2  59 26 0 3.14159265358979 6.28318530717959
4 C0 26 0 9 0
0

0101000
+300 0 -304 0 *
Ed
 1e-07 1 1 0
1  46 0 3.14159265358979 6.28318530717959
2  60 26 0 3.14159265358979 6.28318530717959
4 C0 26 0 18 0
0

0101000
+302 0 -305 0 *
Wi

0101100
+303 0 -283 0 +299 0 +282 0 *
Fa
0  1e-07 26 0

0111000
+281 0 *
Ed
 1e-07 1 1 0
1  47 0 0 3.14159265358979
2  61 24 0 0 3.14159265358979
4 C0 24 0 8 0
0

0101000
+312 0 -310 0 *
Ed
 1e-07 1 1 0
1  48 0 3.14159265358979 6.28318530717959
2  62 24 0 3.14159265358979 6.28318530717959
4 C0 24 0 4 0
0

0101000
+314 0 -315 0 *
Wi

0101100
-279 0 -311 0 +278 0 -308 0 *
Fa
0  1e-07 24 0

0111000
+277 0 *
Ed
 1e-07 1 1 0
1  49 0 3.14159265358979 6.28318530717959
2  63 22 0 3.14159265358979 6.28318530717959
4 C0 22 0 8 0
0

0101000
+322 0 -320 0 *
Ed
 1e-07 1 1 0
1  50 0 3.14159265358979 6.28318530717959
2  64 22 0 3.14159265358979 6.28318530717959
4 C0 22 0 4 0
0

0101000
+324 0 -325 0 *
Wi

0101100
-275 0 -321 0 +274 0 -318 0 *
Fa
0  1e-07 22 0

0111000
+273 0 *
Ve
1e-07
-1.45009245925864 -0.676189218785126 7.6
0 0

0101101
*
Ed
 1e-07 1 1 0
1  51 0 2.70526034059121 3.14159265358979
2  65 20 0 2.70526034059121 3.14159265358979
4 C0 20 0 15 0
0

0101000
+271 0 -330 0 *
Ve
1e-07
-1.45009245925864 -0.676189218785126 15
0 0

0101101
*
Ed
 1e-07 1 1 0
1  52 0 -0 7.4
2  66 20 0 -0 7.4
4 C0 20 0 29 0
0

0101000
+269 0 -271 0 *
Ed
 1e-07 1 1 0
1  53 0 2.70526034059121 3.14159265358979
2  67 20 0 2.70526034059121 3.14159265358979
4 C0 20 0 18 0
0

0101000
+269 0 -332 0 *
Wi

0101100
-270 0 -268 0 +267 0 -328 0 *
Fa
0  1e-07 20 0

0111000
+266 0 *
Ve
1e-07
-2.80955413981361 -1.31011661139618 7.6
0 0

0101101
*
Ed
 1e-07 1 1 0
1  54 0 3.14159265358979 3.57792496658838
2  68 16 0 3.14159265358979 3.57792496658838
4 C0 16 0 15 0
0

0101000
+348 0 -264 0 *
Ve
1e-07
-2.80955413981361 -1.31011661139618 15
0 0

0101101
*
Ed
 1e-07 1 1 0
1  55 0 -0 7.4
2  69 16 0 -0 7.4
4 C0 16 0 29 0
0

0101000
+262 0 -264 0 *
Ed
 1e-07 1 1 0
1  56 0 3.14159265358979 3.57792496658838
2  70 16 0 3.14159265358979 3.57792496658838
4 C0 16 0 14 0
0

0101000
+349 0 -262 0 *
Wi

0101100
+347 0 +263 0 -261 0 -260 0 *
Fa
0  1e-07 16 0

0111000
+259 0 *
Ve
1e-07
-1.45009245925864 -0.676189218785126 -15
0 0

0101101
*
Ed
 1e-07 1 1 0
1  57 0 2.70526034059121 3.14159265358979
2  71 11 0 2.70526034059121 3.14159265358979
4 C0 11 0 9 0
0

0101000
+257 0 -364 0 *
Ve
1e-07
-1.45009245925864 -0.676189218785126 -7.6
0 0

0101101
*
Ed
 1e-07 1 1 0
1  58 0 22.6 30
2  72 11 0 22.6 30
4 C0 11 0 30 0
0

0101000
+255 0 -257 0 *
Ed
 1e-07 1 1 0
1  59 0 0 0.436332312998586
2  73 11 0 0 0.436332312998586
4 C0 11 0 3 0
0

0101000
+366 0 -255 0 *
Wi

0101100
-256 0 -254 0 -253 0 -362 0 *
Fa
0  1e-07 11 0

0111000
+252 0 *
Ve
1e-07
-2.80955413981361 -1.31011661139618 -15
0 0

0101101
*
Ed
 1e-07 1 1 0
1  60 0 3.14159265358979 3.57792496658838
2  74 6 0 3.14159265358979 3.57792496658838
4 C0 6 0 5 0
0

0101000
+382 0 -250 0 *
Ve
1e-07
-2.80955413981361 -1.31011661139618 -7.6
0 0

0101101
*
Ed
 1e-07 1 1 0
1  61 0 22.6 30
2  75 6 0 22.6 30
4 C0 6 0 30 0
0

0101000
+248 0 -250 0 *
Ed
 1e-07 1 1 0
1  62 0 5.846852994181 6.28318530717959
2  76 6 0 5.846852994181 6.28318530717959
4 C0 6 0 3 0
0

0101000
+248 0 -383 0 *
Wi

0101100
+381 0 +249 0 -247 0 +246 0 *
Fa
0  1e-07 6 0

0111000
+245 0 *
Ed
 1e-07 1 1 0
1  63 0 -1.5 0
4 C0 30 0 3 0
0

0101000
+255 0 -248 0 *
Ed
 1e-07 1 1 0
1  64 0 0 1.10000000000001
4 C0 30 0 5 0
0

0101000
+250 0 -295 0 *
Ed
 1e-07 1 1 0
1  65 0 1.10000000000001 1.5
4 C0 30 0 9 0
0

0101000
+295 0 -257 0 *
Wi

0101100
-254 0 +243 0 +247 0 +242 0 +241 0 *
Fa
0  1e-07 30 0

0111000
-240 0 *
Ve
1e-07
-15 -3.1 13.4
0 0

0101101
*
Ve
1e-07
-15 -3.1 -13.4
0 0

0101101
*
Ed
 1e-07 1 1 0
1  66 0 1.6 28.4
4 C0 31 0 4 0
0

0101000
+238 0 -237 0 *
Ve
1e-07
-15 -1.6 13.4
0 0

0101101
*
Ed
 1e-07 1 1 0
1  67 0 -1.5 0
2  77 32 0 -1.5 0
4 G1 31 0 32 0
0

0101000
+238 0 -235 0 *
Ve
1e-07
-15 -1.6 -13.4
0 0

0101101
*
Ed
 1e-07 1 1 0
1  68 0 1.6 28.4
4 C0 31 0 8 0
0

0101000
+235 0 -233 0 *
Ed
 1e-07 1 1 0
1  69 0 0 1.5
2  78 33 0 0 1.5
4 G1 31 0 33 0
0

0101000
+233 0 -237 0 *
Wi

0101100
-236 0 +234 0 +232 0 +231 0 *
Fa
0  1e-07 31 0

0111000
-230 0 *
Ve
1e-07
-13.4 -3.1 15
0 0

0101101
*
Ed
 1e-07 1 1 0
1  70 0 1.6 15
4 C0 4 0 14 0
0

0101000
+228 0 -356 0 *
Ed
 1e-07 1 1 0
1  71 0 0 1.5707963267949
2  79 32 0 0 1.5707963267949
4 C0 4 0 32 0
0

0101000
+228 0 -238 0 *
Ve
1e-07
-13.4 -3.1 -15
0 0

0101101
*
Ed
 1e-07 1 1 0
1  72 0 1.5707963267949 3.14159265358979
2  80 33 0 1.5707963267949 3.14159265358979
4 C0 4 0 33 0
0

0101000
+237 0 -225 0 *
Ed
 1e-07 1 1 0
1  73 0 1.6 15
4 C0 4 0 5 0
0

0101000
+225 0 -388 0 *
Ve
1e-07
-4.5 -3.1 -7.6
0 0

0101101
*
Ed
 1e-07 1 1 0
1  74 0 -15 -10.5
4 C0 4 0 3 0
0

0101000
+390 0 -222 0 *
Ve
1e-07
-4.5 -3.1 7.6
0 0

0101101
*
Ed
 1e-07 1 1 0
1  75 0 -22.6 -7.4
4 C0 4 0 34 0
0

0101000
+222 0 -220 0 *
Ed
 1e-07 1 1 0
1  76 0 10.5 15
4 C0 4 0 15 0
0

0101000
+220 0 -354 0 *
Wi

0101100
-227 0 +226 0 +236 0 +224 0 +223 0 -387 0 +221 0 +219 0 +218 0 -353 0 
*
Wi

0101100
+313 0 +278 0 *
Wi

0101100
+323 0 +274 0 *
Fa
0  1e-07 4 0

0111000
-217 0 -216 0 -215 0 *
Ed
 1e-07 1 1 0
1  77 0 0 1.5
4 C0 29 0 15 0
0

0101000
+264 0 -271 0 *
Ed
 1e-07 1 1 0
1  78 0 1.1 1.5
4 C0 29 0 18 0
0

0101000
+289 0 -269 0 *
Ed
 1e-07 1 1 0
1  79 0 0 1.1
4 C0 29 0 14 0
0

0101000
+262 0 -289 0 *
Wi

0101100
+261 0 +213 0 -268 0 -212 0 -211 0 *
Fa
0  1e-07 29 0

0111000
-210 0 *
Ve
1e-07
-13.4 -1.6 15
0 0

0101101
*
Ed
 1e-07 1 1 0
1  80 0 1.5707963267949 3.14159265358979
2  81 32 0 1.5707963267949 3.14159265358979
4 C0 8 0 32 0
0

0101000
+235 0 -208 0 *
Ed
 1e-07 1 1 0
1  81 0 -13.8 -1.6
4 C0 8 0 14 0
0

0101000
+288 0 -208 0 *
Ed
 1e-07 1 1 0
1  82 0 -15 -13.8
4 C0 8 0 18 0
0

0101000
+341 0 -288 0 *
Ve
1e-07
-4.5 -1.6 7.6
0 0

0101101
*
Ed
 1e-07 1 1 0
1  83 0 -15 -10.5
4 C0 8 0 15 0
0

0101000
+339 0 -204 0 *
Ve
1e-07
-4.5 -1.6 -7.6
0 0

0101101
*
Ed
 1e-07 1 1 0
1  84 0 7.4 22.6
4 C0 8 0 34 0
0

0101000
+204 0 -202 0 *
Ed
 1e-07 1 1 0
1  85 0 10.5 15
4 C0 8 0 3 0
0

0101000
+202 0 -376 0 *
Ed
 1e-07 1 1 0
1  86 0 -15 -13.8
4 C0 8 0 9 0
0

0101000
+373 0 -294 0 *
Ve
1e-07
-13.4 -1.6 -15
0 0

0101101
*
Ed
 1e-07 1 1 0
1  87 0 -13.8 -1.6
4 C0 8 0 5 0
0

0101000
+294 0 -198 0 *
Ed
 1e-07 1 1 0
1  88 0 0 1.5707963267949
2  82 33 0 0 1.5707963267949
4 C0 8 0 33 0
0

0101000
+198 0 -233 0 *
Wi

0101100
-232 0 +207 0 -206 0 -205 0 +338 0 +203 0 +201 0 +200 0 +372 0 +199 0 
+197 0 +196 0 *
Wi

0101100
-309 0 -279 0 *
Wi

0101100
-319 0 -275 0 *
Fa
0  1e-07 8 0

0111000
-195 0 -194 0 -193 0 *
Ed
 1e-07 1 1 0
1  89 0 -1.5 0
2  83 32 0 -1.5 0
4 G1 14 0 32 0
0

0101000
+208 0 -228 0 *
Wi

0101100
+211 0 +287 0 +206 0 +191 0 +227 0 +355 0 +346 0 +260 0 *
Fa
0  1e-07 14 0

0111000
+190 0 *
Ed
 1e-07 1 1 0
1  90 0 -3.1 -1.6
2  84 33 0 -3.1 -1.6
4 G1 5 0 33 0
0

0101000
+225 0 -198 0 *
Wi

0101100
-293 0 -242 0 -249 0 -379 0 -386 0 -223 0 +188 0 -197 0 *
Fa
0  1e-07 5 0

0111000
-187 0 *
Ed
 1e-07 1 1 0
1  91 0 6.9 8.4
4 C0 3 0 34 0
0

0101000
+222 0 -202 0 *
Wi

0101100
-246 0 -243 0 -253 0 -365 0 -374 0 -200 0 -185 0 -221 0 -389 0 -380 0 
*
Fa
0  1e-07 3 0

0111000
-184 0 *
Ed
 1e-07 1 1 0
1  92 0 6.9 8.4
4 C0 15 0 34 0
0

0101000
+220 0 -204 0 *
Wi

0101100
+182 0 -203 0 -336 0 -329 0 -270 0 -213 0 -263 0 -345 0 -352 0 -218 0 
*
Fa
0  1e-07 15 0

0111000
-181 0 *
Wi

0101100
+185 0 -201 0 -182 0 -219 0 *
Fa
0  1e-07 34 0

0111000
-179 0 *
Wi

0101100
-207 0 -234 0 -226 0 -191 0 *
Fa
0  1e-07 32 0

0111000
+177 0 *
Wi

0101100
-196 0 -188 0 -224 0 -231 0 *
Fa
0  1e-07 33 0

0111000
+175 0 *
Wi

0101100
+286 0 +212 0 +267 0 +331 0 +340 0 +205 0 *
Wi

0101100
-282 0 -301 0 *
Fa
0  1e-07 18 0

0111000
-173 0 -172 0 *
Wi

0101100
-256 0 -241 0 -292 0 -199 0 -370 0 -363 0 *
Wi

0101100
+298 0 +283 0 *
Fa
0  1e-07 9 0

0111000
-170 0 -169 0 *
Sh

0101100
+384 0 +377 0 -367 0 -360 0 +350 0 +343 0 -333 0 -326 0 -316 0 -306 0 
+296 0 +290 0 +284 0 +280 0 -276 0 -272 0 -265 0 +258 0 -251 0 +244 0 
-239 0 -229 0 -214 0 -209 0 -192 0 +189 0 -186 0 -183 0 -180 0 -178 0 
+176 0 +174 0 -171 0 -168 0 *
So

0100000
+167 0 *
Ve
1e-07
-3.1 -4.1847501180753e-16 7.5
0 0

0101101
*
Ve
1e-07
-3.1 -3.40780927562344e-16 -7.5
0 0

0101101
*
Ed
 1e-07 1 1 0
1  93 0 -7.5 7.5
2  85 35 0 -7.5 7.5
2  86 36 0 -7.5 7.5
4 CN 35 0 36 0
0

0101000
+165 0 -164 0 *
Ve
1e-07
7.32449701824405e-16 -3.1 -7.5
0 0

0101101
*
Ed
 1e-07 1 1 0
1  94 0 3.14159265358979 4.71238898038469
2  87 35 0 3.14159265358979 4.71238898038469
4 C0 35 0 37 0
0

0101000
+164 0 -162 0 *
Ve
1e-07
4.06471821382634e-16 -3.1 7.5
0 0

0101101
*
Ed
 1e-07 1 1 0
1  95 0 7.5 22.5
2  88 35 0 7.5 22.5
4 G1 35 0 38 0
0

0101000
+162 0 -160 0 *
Ed
 1e-07 1 1 0
1  96 0 4.71238898038469 6.28318530717959
2  89 35 0 4.71238898038469 6.28318530717959
4 C0 35 0 39 0
0

0101000
+160 0 -165 0 *
Wi

0101100
+163 0 +161 0 +159 0 +158 0 *
Fa
0  1e-07 35 0

0111000
+157 0 *
Ve
1e-07
3.1 4.1847501180753e-16 -7.5
0 0

0101101
*
Ve
1e-07
3.1 3.40780927562344e-16 7.5
0 0

0101101
*
Ed
 1e-07 1 1 0
1  97 0 -7.5 7.5
2  90 36 0 -7.5 7.5
2  91 40 0 -7.5 7.5
4 CN 36 0 40 0
0

0101000
+155 0 -154 0 *
Ed
 1e-07 1 1 0
1  98 0 0 3.14159265358979
2  92 36 0 0 3.14159265358979
4 C0 36 0 37 0
0

0101000
+155 0 -164 0 *
Ed
 1e-07 1 1 0
1  99 0 0 3.14159265358979
2  93 36 0 0 3.14159265358979
4 C0 36 0 39 0
0

0101000
+165 0 -154 0 *
Wi

0101100
-153 0 +152 0 -163 0 +151 0 *
Fa
0  1e-07 36 0

0111000
+150 0 *
Ve
1e-07
1.62988940220886e-16 -1.6 -7.5
0 0

0101101
*
Ve
1e-07
-1.6 -1.57089974488988e-16 -7.5
0 0

0101101
*
Ed
 1e-07 1 1 0
1  100 0 1.5707963267949 3.14159265358979
2  94 41 0 1.5707963267949 3.14159265358979
4 C0 41 0 37 0
0

0101000
+148 0 -147 0 *
Ve
1e-07
-1.62988940220886e-16 -1.6 7.5
0 0

0101101
*
Ed
 1e-07 1 1 0
1  101 0 7.5 22.5
2  95 41 0 7.5 22.5
4 G1 41 0 42 0
0

0101000
+148 0 -145 0 *
Ve
1e-07
-1.6 -2.34784058734173e-16 7.5
0 0

0101101
*
Ed
 1e-07 1 1 0
1  102 0 0 1.5707963267949
2  96 41 0 0 1.5707963267949
4 C0 41 0 39 0
0

0101000
+143 0 -145 0 *
Ed
 1e-07 1 1 0
1  103 0 -7.5 7.5
2  97 41 0 -7.5 7.5
2  98 43 0 -7.5 7.5
4 CN 41 0 43 0
0

0101000
+147 0 -143 0 *
Wi

0101100
-146 0 +144 0 -142 0 -141 0 *
Fa
0  1e-07 41 0

0111000
+140 0 *
Ve
1e-07
1.6 2.34784058734173e-16 -7.5
0 0

0101101
*
Ed
 1e-07 1 1 0
1  104 0 3.14159265358979 6.28318530717959
2  99 43 0 3.14159265358979 6.28318530717959
4 C0 43 0 37 0
0

0101000
+147 0 -138 0 *
Ve
1e-07
1.6 1.57089974488988e-16 7.5
0 0

0101101
*
Ed
 1e-07 1 1 0
1  105 0 3.14159265358979 6.28318530717959
2  100 43 0 3.14159265358979 6.28318530717959
4 C0 43 0 39 0
0

0101000
+136 0 -143 0 *
Ed
 1e-07 1 1 0
1  106 0 -7.5 7.5
2  101 43 0 -7.5 7.5
2  102 44 0 -7.5 7.5
4 CN 43 0 44 0
0

0101000
+136 0 -138 0 *
Wi

0101100
-137 0 +141 0 -135 0 +134 0 *
Fa
0  1e-07 43 0

0111000
+133 0 *
Ve
1e-07
9 -3.1 7.4
0 0

0101101
*
Ve
1e-07
9 -3.1 10.6
0 0

0101101
*
Ed
 1e-07 1 1 0
1  107 0 0 3.14159265358979
2  103 45 0 0 3.14159265358979
4 C0 45 0 38 0
0

0101000
+131 0 -130 0 *
Ve
1e-07
9 -1.6 10.6
0 0

0101101
*
Ed
 1e-07 1 1 0
1  108 0 -0.75 0.75
2  104 45 0 -0.75 0.75
2  105 46 0 -0.75 0.75
4 CN 45 0 46 0
0

0101000
+130 0 -128 0 *
Ve
1e-07
9 -1.6 7.4
0 0

0101101
*
Ed
 1e-07 1 1 0
1  109 0 0 3.14159265358979
2  106 45 0 0 3.14159265358979
4 C0 45 0 42 0
0

0101000
+126 0 -128 0 *
Ed
 1e-07 1 1 0
1  110 0 -0.75 0.75
2  107 45 0 -0.75 0.75
2  108 46 0 -0.75 0.75
4 CN 45 0 46 0
0

0101000
+126 0 -131 0 *
Wi

0101100
+129 0 +127 0 -125 0 +124 0 *
Fa
0  1e-07 45 0

0111000
+123 0 *
Ve
1e-07
9 -3.1 -10.6
0 0

0101101
*
Ve
1e-07
9 -3.1 -7.4
0 0

0101101
*
Ed
 1e-07 1 1 0
1  111 0 0 3.14159265358979
2  109 47 0 0 3.14159265358979
4 C0 47 0 38 0
0

0101000
+121 0 -120 0 *
Ve
1e-07
9 -1.6 -7.4
0 0

0101101
*
Ed
 1e-07 1 1 0
1  112 0 -0.75 0.75
2  110 47 0 -0.75 0.75
2  111 48 0 -0.75 0.75
4 CN 47 0 48 0
0

0101000
+120 0 -118 0 *
Ve
1e-07
9 -1.6 -10.6
0 0

0101101
*
Ed
 1e-07 1 1 0
1  113 0 3.14159265358979 6.28318530717959
2  112 47 0 3.14159265358979 6.28318530717959
4 C0 47 0 42 0
0

0101000
+116 0 -118 0 *
Ed
 1e-07 1 1 0
1  114 0 -0.75 0.75
2  113 47 0 -0.75 0.75
2  114 48 0 -0.75 0.75
4 CN 47 0 48 0
0

0101000
+116 0 -121 0 *
Wi

0101100
+119 0 +117 0 -115 0 +114 0 *
Fa
0  1e-07 47 0

0111000
+113 0 *
Ed
 1e-07 1 1 0
1  115 0 0 3.14159265358979
2  115 48 0 0 3.14159265358979
4 C0 48 0 42 0
0

0101000
+118 0 -116 0 *
Ed
 1e-07 1 1 0
1  116 0 3.14159265358979 6.28318530717959
2  116 48 0 3.14159265358979 6.28318530717959
4 C0 48 0 38 0
0

0101000
+120 0 -121 0 *
Wi

0101100
-111 0 -117 0 +110 0 -114 0 *
Fa
0  1e-07 48 0

0111000
+109 0 *
Ed
 1e-07 1 1 0
1  117 0 3.14159265358979 6.28318530717959
2  117 46 0 3.14159265358979 6.28318530717959
4 C0 46 0 42 0
0

0101000
+128 0 -126 0 *
Ed
 1e-07 1 1 0
1  118 0 3.14159265358979 6.28318530717959
2  118 46 0 3.14159265358979 6.28318530717959
4 C0 46 0 38 0
0

0101000
+130 0 -131 0 *
Wi

0101100
-107 0 -127 0 +106 0 -124 0 *
Fa
0  1e-07 46 0

0111000
+105 0 *
Ve
1e-07
1.45009245925864 -0.676189218785126 7.5
0 0

0101101
*
Ed
 1e-07 1 1 0
1  119 0 2.70526034059121 3.14159265358979
2  119 44 0 2.70526034059121 3.14159265358979
4 C0 44 0 39 0
0

0101000
+103 0 -136 0 *
Ve
1e-07
1.45009245925864 -0.676189218785126 -7.5
0 0

0101101
*
Ed
 1e-07 1 1 0
1  120 0 7.5 22.5
2  120 44 0 7.5 22.5
4 C0 44 0 49 0
0

0101000
+101 0 -103 0 *
Ed
 1e-07 1 1 0
1  121 0 0 0.436332312998586
2  121 44 0 0 0.436332312998586
4 C0 44 0 37 0
0

0101000
+138 0 -101 0 *
Wi

0101100
-102 0 -100 0 -99 0 -134 0 *
Fa
0  1e-07 44 0

0111000
+98 0 *
Ve
1e-07
2.80955413981361 -1.31011661139618 7.5
0 0

0101101
*
Ed
 1e-07 1 1 0
1  122 0 3.14159265358979 3.57792496658838
2  122 40 0 3.14159265358979 3.57792496658838
4 C0 40 0 39 0
0

0101000
+154 0 -96 0 *
Ve
1e-07
2.80955413981361 -1.31011661139618 -7.5
0 0

0101101
*
Ed
 1e-07 1 1 0
1  123 0 7.5 22.5
2  123 40 0 7.5 22.5
4 C0 40 0 49 0
0

0101000
+94 0 -96 0 *
Ed
 1e-07 1 1 0
1  124 0 5.846852994181 6.28318530717959
2  124 40 0 5.846852994181 6.28318530717959
4 C0 40 0 37 0
0

0101000
+94 0 -155 0 *
Wi

0101100
+153 0 +95 0 -93 0 +92 0 *
Fa
0  1e-07 40 0

0111000
+91 0 *
Ve
1e-07
15 -3.1 -13
0 0

0101101
*
Ve
1e-07
15 -3.1 13
0 0

0101101
*
Ed
 1e-07 1 1 0
1  125 0 2 28
4 C0 50 0 38 0
0

0101000
+89 0 -88 0 *
Ve
1e-07
15 -1.6 -13
0 0

0101101
*
Ed
 1e-07 1 1 0
1  126 0 -1.5 0
2  125 51 0 -1.5 0
4 G1 50 0 51 0
0

0101000
+89 0 -86 0 *
Ve
1e-07
15 -1.6 13
0 0

0101101
*
Ed
 1e-07 1 1 0
1  127 0 2 28
4 C0 50 0 42 0
0

0101000
+86 0 -84 0 *
Ed
 1e-07 1 1 0
1  128 0 0 1.5
2  126 52 0 0 1.5
4 G1 50 0 52 0
0

0101000
+84 0 -88 0 *
Wi

0101100
-87 0 +85 0 +83 0 +82 0 *
Fa
0  1e-07 50 0

0111000
-81 0 *
Ve
1e-07
13 -3.1 -15
0 0

0101101
*
Ve
1e-07
4.5 -3.1 -15
0 0

0101101
*
Ed
 1e-07 1 1 0
1  129 0 2 10.5
4 C0 38 0 53 0
0

0101000
+79 0 -78 0 *
Ed
 1e-07 1 1 0
1  130 0 0 1.5707963267949
2  127 51 0 0 1.5707963267949
4 C0 38 0 51 0
0

0101000
+79 0 -89 0 *
Ve
1e-07
13 -3.1 15
0 0

0101101
*
Ed
 1e-07 1 1 0
1  131 0 1.5707963267949 3.14159265358979
2  128 52 0 1.5707963267949 3.14159265358979
4 C0 38 0 52 0
0

0101000
+88 0 -75 0 *
Ve
1e-07
4.5 -3.1 15
0 0

0101101
*
Ed
 1e-07 1 1 0
1  132 0 2 10.5
4 C0 38 0 54 0
0

0101000
+75 0 -73 0 *
Ve
1e-07
4.5 -3.1 8.5
0 0

0101101
*
Ed
 1e-07 1 1 0
1  133 0 -30 -23.5
4 C0 38 0 55 0
0

0101000
+73 0 -71 0 *
Ve
1e-07
3.5 -3.1 7.5
0 0

0101101
*
Ed
 1e-07 1 1 0
1  134 0 4.71238898038469 6.28318530717959
2  129 56 0 4.71238898038469 6.28318530717959
4 C0 38 0 56 0
0

0101000
+71 0 -69 0 *
Ed
 1e-07 1 1 0
1  135 0 11.5 15
4 C0 38 0 39 0
0

0101000
+69 0 -160 0 *
Ve
1e-07
3.5 -3.1 -7.5
0 0

0101101
*
Ed
 1e-07 1 1 0
1  136 0 -15 -11.5
4 C0 38 0 37 0
0

0101000
+162 0 -66 0 *
Ve
1e-07
4.5 -3.1 -8.5
0 0

0101101
*
Ed
 1e-07 1 1 0
1  137 0 3.14159265358979 4.71238898038469
2  130 57 0 3.14159265358979 4.71238898038469
4 C0 38 0 57 0
0

0101000
+66 0 -64 0 *
Ed
 1e-07 1 1 0
1  138 0 -6.5 0
4 C0 38 0 58 0
0

0101000
+64 0 -78 0 *
Wi

0101100
-77 0 +76 0 +87 0 +74 0 +72 0 +70 0 +68 0 +67 0 -159 0 +65 0 
+63 0 +62 0 *
Wi

0101100
+119 0 +110 0 *
Wi

0101100
+129 0 +106 0 *
Fa
0  1e-07 38 0

0111000
-61 0 -60 0 -59 0 *
Ed
 1e-07 1 1 0
1  139 0 -1.5 0
4 C0 49 0 37 0
0

0101000
+101 0 -94 0 *
Ed
 1e-07 1 1 0
1  140 0 0 1.5
4 C0 49 0 39 0
0

0101000
+96 0 -103 0 *
Wi

0101100
-100 0 +57 0 +93 0 +56 0 *
Fa
0  1e-07 49 0

0111000
-55 0 *
Ve
1e-07
13 -1.6 -15
0 0

0101101
*
Ed
 1e-07 1 1 0
1  141 0 1.5707963267949 3.14159265358979
2  131 51 0 1.5707963267949 3.14159265358979
4 C0 42 0 51 0
0

0101000
+86 0 -53 0 *
Ve
1e-07
4.5 -1.6 -15
0 0

0101101
*
Ed
 1e-07 1 1 0
1  142 0 -10.5 -2
4 C0 42 0 53 0
0

0101000
+51 0 -53 0 *
Ve
1e-07
4.5 -1.6 -8.5
0 0

0101101
*
Ed
 1e-07 1 1 0
1  143 0 0 6.5
4 C0 42 0 58 0
0

0101000
+51 0 -49 0 *
Ve
1e-07
3.5 -1.6 -7.5
0 0

0101101
*
Ed
 1e-07 1 1 0
1  144 0 4.71238898038469 6.28318530717959
2  132 57 0 4.71238898038469 6.28318530717959
4 C0 42 0 57 0
0

0101000
+49 0 -47 0 *
Ed
 1e-07 1 1 0
1  145 0 11.5 15
4 C0 42 0 37 0
0

0101000
+47 0 -148 0 *
Ve
1e-07
3.5 -1.6 7.5
0 0

0101101
*
Ed
 1e-07 1 1 0
1  146 0 -15 -11.5
4 C0 42 0 39 0
0

0101000
+145 0 -44 0 *
Ve
1e-07
4.5 -1.6 8.5
0 0

0101101
*
Ed
 1e-07 1 1 0
1  147 0 3.14159265358979 4.71238898038469
2  133 56 0 3.14159265358979 4.71238898038469
4 C0 42 0 56 0
0

0101000
+44 0 -42 0 *
Ve
1e-07
4.5 -1.6 15
0 0

0101101
*
Ed
 1e-07 1 1 0
1  148 0 23.5 30
4 C0 42 0 55 0
0

0101000
+42 0 -40 0 *
Ve
1e-07
13 -1.6 15
0 0

0101101
*
Ed
 1e-07 1 1 0
1  149 0 -10.5 -2
4 C0 42 0 54 0
0

0101000
+40 0 -38 0 *
Ed
 1e-07 1 1 0
1  150 0 0 1.5707963267949
2  134 52 0 0 1.5707963267949
4 C0 42 0 52 0
0

0101000
+38 0 -84 0 *
Wi

0101100
-83 0 +52 0 -50 0 +48 0 +46 0 +45 0 +144 0 +43 0 +41 0 +39 0 
+37 0 +36 0 *
Wi

0101100
-115 0 -111 0 *
Wi

0101100
-125 0 -107 0 *
Fa
0  1e-07 42 0

0111000
-35 0 -34 0 -33 0 *
Ed
 1e-07 1 1 0
1  151 0 -1.5 0
2  135 51 0 -1.5 0
4 G1 53 0 51 0
0

0101000
+53 0 -79 0 *
Ed
 1e-07 1 1 0
1  152 0 1.6 3.1
4 C0 53 0 58 0
0

0101000
+51 0 -78 0 *
Wi

0101100
+50 0 +31 0 +77 0 -30 0 *
Fa
0  1e-07 53 0

0111000
+29 0 *
Ed
 1e-07 1 1 0
1  153 0 -3.1 -1.6
2  136 52 0 -3.1 -1.6
4 G1 54 0 52 0
0

0101000
+75 0 -38 0 *
Ed
 1e-07 1 1 0
1  154 0 1.6 3.1
4 C0 54 0 55 0
0

0101000
+40 0 -73 0 *
Wi

0101100
-72 0 +27 0 -37 0 +26 0 *
Fa
0  1e-07 54 0

0111000
-25 0 *
Ed
 1e-07 1 1 0
1  155 0 8.5 10
2  137 56 0 8.5 10
4 C1 39 0 56 0
0

0101000
+69 0 -44 0 *
Wi

0101100
+23 0 -43 0 -142 0 -135 0 -102 0 -56 0 -95 0 -151 0 -158 0 -67 0 
*
Fa
0  1e-07 39 0

0111000
-22 0 *
Ed
 1e-07 1 1 0
1  156 0 8.5 10
2  138 56 0 8.5 10
4 C1 56 0 55 0
0

0101000
+71 0 -42 0 *
Wi

0101100
+68 0 +23 0 +41 0 -20 0 *
Fa
0  1e-07 56 0

0111000
+19 0 *
Wi

0101100
-26 0 -39 0 -20 0 -70 0 *
Fa
0  1e-07 55 0

0111000
-17 0 *
Ed
 1e-07 1 1 0
1  157 0 8.5 10
2  139 57 0 8.5 10
4 C1 57 0 58 0
0

0101000
+64 0 -49 0 *
Ed
 1e-07 1 1 0
1  158 0 8.5 10
2  140 57 0 8.5 10
4 C1 57 0 37 0
0

0101000
+66 0 -47 0 *
Wi

0101100
+63 0 +15 0 +46 0 -14 0 *
Fa
0  1e-07 57 0

0111000
+13 0 *
Wi

0101100
-92 0 -57 0 -99 0 -137 0 -146 0 -45 0 -14 0 -65 0 -161 0 -152 0 
*
Fa
0  1e-07 37 0

0111000
-11 0 *
Wi

0101100
+15 0 -48 0 +30 0 -62 0 *
Fa
0  1e-07 58 0

0111000
-9 0 *
Wi

0101100
-52 0 -85 0 -76 0 -31 0 *
Fa
0  1e-07 51 0

0111000
+7 0 *
Wi

0101100
-36 0 -27 0 -74 0 -82 0 *
Fa
0  1e-07 52 0

0111000
+5 0 *
Sh

0101100
+156 0 +149 0 -139 0 -132 0 -122 0 -112 0 -108 0 -104 0 -97 0 +90 0 
-80 0 -58 0 -54 0 -32 0 +28 0 -24 0 -21 0 -18 0 -16 0 -12 0 
-10 0 -8 0 +6 0 +4 0 *
So

0100000
+3 0 *
Co

1100000
+166 0 +2 0 *

+1 0 