DBRep_DrawableShape

CASCADE Topology V1, (c) Matra-Datavision
Locations 0
Curve2ds 160
7 0 0  3 25 23  4.4022976670181855 0.14134290447698139  4.4014018262996952 0.13932555802894511  4.3996498004539779 0.13527394406954113  4.397141169112107 0.12914805553561792  4.3947523982849344 0.12297599381575453  4.3924838975376792 0.11676005747087782  4.3903360496959873 0.11050254724801976  4.3883092080697805 0.1042057661230011  4.3864036988456192 0.097872018854032308  4.3846198220181654 0.091503611713094027  4.3829578526337816 0.085102852213949226  4.381418041868157 0.078672048882805934  4.3800006180633408 0.072213511056729171  4.3787057876880846 0.065729548711180127  4.3775337362290232 0.059222472313662053  4.3764846290083925 0.052694592701597036  4.3755586119287644 0.046148220982223979  4.3747558121388668 0.039585668452374087  4.3740763386366135 0.033009246535942338  4.373520282744539 0.026421266736870442  4.3730877186950838 0.019824040605429177  4.3727787034363486 0.013219879715644098  4.3725932789744038 0.0066110956514586136  4.3725520695742492 0.0022036985505774383  4.3725520709305679 4.0821559971578444e-17 
 2.7052603405912063 4 2.7250936275456876 1 2.7449269145001689 1 2.7647602014546502 1 2.784593488409131 1 2.8044267753636123 1 2.8242600623180936 1 2.8440933492725748 1 2.8639266362270561 1 2.8837599231815374 1 2.9035932101360187 1 2.9234264970905 1 2.9432597840449808 1 2.9630930709994621 1 2.9829263579539433 1 3.0027596449084246 1 3.0225929318629059 1 3.0424262188173872 1 3.0622595057718685 1 3.0820927927263497 1 3.1019260796808306 1 3.1217593666353118 1 3.1415926535897931 4
1 0 5.6605702329737095e-16 1 -1.2012103110621433e-16 
1 0 5.6605702329737095e-16 1 -1.2012103110621433e-16 
1 7.8539816339744828 0 -1 0 
1 7.8539816339744828 0 -1 0 
7 0 0  3 25 23  5.0522258898388115 0  5.0522268799363639 0.011183327257265847  5.0511639072096273 0.033549958101779687  5.0463930111368427 0.066797812197782122  5.038458990019465 0.099441470934262782  5.0273930402522744 0.13117911822060424  5.0132418982010645 0.1617097918841679  4.9960737229831915 0.19073456116583015  4.9759829194941396 0.21795841437086558  4.9530959494091054 0.2430930015105561  4.927576969119583 0.26586030082366291  4.8996328198433119 0.28599720385035571  4.8695165740545914 0.30326090724932386  4.8375288783128623 0.31743487689037592  4.804016413545102 0.32833502353380384  4.7693670389845142 0.33581562477738841  4.7340015702608751 0.33977446750890028  4.6983625945532372 0.34015670921696717  4.6629012537937706 0.33695701445476328  4.6280630460694887 0.33021983788895076  4.5942747156213537 0.32003740609015541  4.5619309499860545 0.3065471771111366  4.5313914341907608 0.28992326075362412  4.5124324967870244 0.27689729557540987  4.5033556813501692 0.26993279583340318 
 0 4 0.10064988343582647 1 0.20129976687165294 1 0.30194965030747939 1 0.40259953374330587 1 0.5032494171791323 1 0.60389930061495878 1 0.70454918405078526 1 0.80519906748661174 1 0.90584895092243822 1 1.0064988343582646 1 1.1071487177940911 1 1.2077986012299176 1 1.308448484665744 1 1.4090983681015705 1 1.509748251537397 1 1.6103981349732235 1 1.71104801840905 1 1.8116979018448764 1 1.9123477852807029 1 2.0129976687165292 1 2.1136475521523557 1 2.2142974355881822 4
7 0 0  3 25 23  4.5033556813501692 0.26993279583340352  4.5013422563846319 0.26838913557802285  4.497354300719655 0.26525784539056768  4.4914914835927373 0.26043179377940018  4.4857502597529448 0.2554794002709353  4.4801329544117232 0.25040350323379362  4.474641795502551 0.24520697918054368  4.4692789015472787 0.23989274601731084  4.464046287617367 0.2344637586237989  4.4589458666802377 0.22892300660724813  4.4539794523895244 0.22327351159861503  4.44914876166981 0.21751832480106462  4.4444554175122777 0.21166052460453949  4.4399009518446109 0.20570321431947886  4.4354868084877337 0.19964952001776806  4.4312143461714157 0.19350258848579435  4.4270848415975825 0.18726558528857093  4.4230994925173901 0.18094169294723877  4.4192594208673501 0.17453410922147383  4.41556567571988 0.16804604552498009  4.412019236889253 0.16148072536354191  4.4086210159864363 0.15484138320056576  4.4053718668255177 0.14813126222946627  4.4033056627420901 0.14361283188767615  4.4022976670181846 0.14134290447698156 
 5.3558900891779739 4 5.3782065848599299 1 5.4005230805418849 1 5.4228395762238408 1 5.4451560719057968 1 5.4674725675877527 1 5.4897890632697077 1 5.5121055589516637 1 5.5344220546336196 1 5.5567385503155755 1 5.5790550459975305 1 5.6013715416794865 1 5.6236880373614424 1 5.6460045330433974 1 5.6683210287253534 1 5.6906375244073093 1 5.7129540200892652 1 5.7352705157712203 1 5.7575870114531762 1 5.7799035071351321 1 5.8022200028170872 1 5.8245364984990431 1 5.846852994180999 4
1 1.5707963267948966 0 -1 0 
1 1.5707963267948966 0 -1 0 
1 0 -1.8868567443245701e-16 1 1.2012103110621435e-16 
1 0 -1.8868567443245701e-16 1 1.2012103110621435e-16 
7 0 0  3 25 23  1.8808876401614012 0.141342904476981  1.8817834808798923 0.13932555802894472  1.883535506725609 0.13527394406954077  1.8860441380674795 0.12914805553561767  1.8884329088946519 0.12297599381575421  1.8907014096419084 0.11676005747087746  1.8928492574835989 0.11050254724801938  1.8948760991098055 0.10420576612300073  1.8967816083339673 0.097872018854032045  1.8985654851614213 0.091503611713093735  1.9002274545458042 0.085102852213948976  1.9017672653114284 0.078672048882805726  1.9031846891162458 0.072213511056729032  1.9044795194915032 0.06572954871117985  1.9056515709505628 0.059222472313661831  1.9067006781711924 0.052694592701596848  1.9076266952508216 0.04614822098222382  1.9084294950407183 0.039585668452374004  1.9091089685429732 0.033009246535942297  1.9096650244350466 0.026421266736870435  1.9100975884845028 0.01982404060542918  1.9104066037432375 0.013219879715644098  1.9105920282051814 0.0066110956514586136  1.9106332376053383 0.0022036985505774383  1.9106332362490186 4.0821559971578444e-17 
 2.7052603405912077 4 2.725093627545689 1 2.7449269145001698 1 2.7647602014546511 1 2.7845934884091323 1 2.8044267753636136 1 2.8242600623180945 1 2.8440933492725757 1 2.863926636227057 1 2.8837599231815383 1 2.9035932101360191 1 2.9234264970905004 1 2.9432597840449817 1 2.963093070999463 1 2.9829263579539438 1 3.0027596449084251 1 3.0225929318629063 1 3.0424262188173872 1 3.0622595057718685 1 3.0820927927263497 1 3.1019260796808306 1 3.1217593666353118 1 3.1415926535897931 4
7 0 0  3 25 23  1.7798296258294164 0.26993279583340424  1.7818430507949534 0.26838913557802352  1.7858310064599301 0.26525784539056835  1.791693823586848 0.26043179377940084  1.7974350474266414 0.25547940027093596  1.8030523527678615 0.25040350323379418  1.8085435116770341 0.24520697918054427  1.8139064056323075 0.23989274601731128  1.8191390195622188 0.23446375862379923  1.8242394404993478 0.22892300660724865  1.8292058547900611 0.22327351159861536  1.8340365455097758 0.21751832480106498  1.8387298896673083 0.21166052460453982  1.8432843553349763 0.20570321431947911  1.847698498691851 0.19964952001776839  1.8519709610081705 0.19350258848579452  1.8561004655820039 0.18726558528857118  1.8600858146621952 0.18094169294723891  1.8639258863122361 0.17453410922147394  1.8676196314597053 0.16804604552498009  1.8711660702903332 0.16148072536354183  1.8745642911931497 0.15484138320056548  1.8778134403540701 0.14813126222946602  1.8798796444374977 0.14361283188767587  1.8808876401614019 0.14134290447698125 
 5.3558900891779704 4 5.3782065848599263 1 5.4005230805418822 1 5.4228395762238382 1 5.4451560719057941 1 5.46747256758775 1 5.4897890632697059 1 5.5121055589516619 1 5.5344220546336178 1 5.5567385503155737 1 5.5790550459975297 1 5.6013715416794856 1 5.6236880373614406 1 5.6460045330433966 1 5.6683210287253525 1 5.6906375244073084 1 5.7129540200892643 1 5.7352705157712203 1 5.7575870114531762 1 5.7799035071351321 1 5.8022200028170881 1 5.824536498499044 1 5.8468529941809999 4
7 0 0  3 25 23  1.2309594173407747 0  1.2309584272432224 0.011183327257265832  1.2320213999699603 0.033549958101779624  1.236792296042742 0.066797812197782011  1.2447263171601233 0.099441470934262616  1.2557922669273114 0.13117911822060399  1.269943408978522 0.16170979188416768  1.2871115841963947 0.1907345611658299  1.3072023876854464 0.21795841437086527  1.3300893577704829 0.24309300151055577  1.3556083380600032 0.26586030082366258  1.3835524873362728 0.28599720385035549  1.4136687331249946 0.30326090724932347  1.4456564288667215 0.31743487689037581  1.4791688936344844 0.32833502353380367  1.5138182681950707 0.33581562477738841  1.5491837369187109 0.33977446750890017  1.584822712626347 0.34015670921696711  1.620284053385814 0.3369570144547635  1.6551222611100969 0.33021983788895115  1.6889105915582321 0.32003740609015568  1.721254357193531 0.3065471771111371  1.7517938729888234 0.28992326075362473  1.7707528103925607 0.27689729557541065  1.7798296258294162 0.26993279583340402 
 0 4 0.1006498834358263 1 0.2012997668716526 1 0.30194965030747889 1 0.4025995337433052 1 0.50324941717913152 1 0.60389930061495778 1 0.70454918405078415 1 0.80519906748661041 1 0.90584895092243667 1 1.006498834358263 1 1.1071487177940893 1 1.2077986012299156 1 1.3084484846657418 1 1.4090983681015683 1 1.5097482515373946 1 1.6103981349732208 1 1.7110480184090471 1 1.8116979018448733 1 1.9123477852806998 1 2.0129976687165261 1 2.1136475521523521 1 2.2142974355881786 4
1 6.2831853071795862 45 -1 0 
1 3.1415926535897931 0 0 -1 
1 3.1415926535897931 0 0 -1 
1 6.2831853071795862 15 -1 0 
1 6.2831853071795862 0 0 -1 
1 0 0 0 -1 
1 0 0 0 -1 
1 6.2831853071795862 0 0 -1 
1 3.1415926535897931 -16.5 -1 0 
1 3.1415926535897931 0 0 -1 
1 3.1415926535897931 0 0 -1 
1 6.2831853071795862 -15.000000000000002 -1 0 
1 0 0 0 -1 
1 6.2831853071795862 0 0 -1 
1 6.2831853071795862 -16.5 -1 0 
1 3.1415926535897931 0 0 -1 
1 3.1415926535897931 0 0 -1 
1 6.2831853071795862 -15.000000000000002 -1 0 
1 1.5707963267948966 0 0 -1 
1 3.1415926535897931 -7.4000000000000004 -1 0 
1 3.1415926535897931 0 0 -1 
1 3.1415926535897931 0 0 -1 
1 3.1415926535897931 0 -1 0 
1 9.4247779607693793 -7.4000000000000004 -1 0 
1 6.2831853071795862 0 0 -1 
1 0 0 0 -1 
1 9.4247779607693793 0 -1 0 
1 3.1415926535897931 0 1 0 
1 3.1415926535897931 0 0 -1 
1 3.1415926535897931 0 0 -1 
1 3.1415926535897931 -7.4000000000000004 1 0 
1 6.2831853071795862 0 0 -1 
1 0 0 0 -1 
1 -3.1415926535897931 0 1 0 
1 -3.1415926535897931 -7.4000000000000004 1 0 
1 0.43633231299858632 0 0 -1 
1 1.5707963267948966 0 0 -1 
1 3.1415926535897931 -30 -1 0 
1 3.1415926535897931 0 0 -1 
1 3.1415926535897931 0 0 -1 
1 0 -22.600000000000001 1 0 
1 9.4247779607693793 -30 -1 0 
1 6.2831853071795862 0 0 -1 
1 0 0 0 -1 
1 0 -22.600000000000001 1 0 
1 6.2831853071795862 -22.600000000000001 -1 0 
1 3.1415926535897931 0 0 -1 
1 3.1415926535897931 0 0 -1 
1 3.1415926535897931 -30 1 0 
1 6.2831853071795862 0 0 -1 
1 0 0 0 -1 
1 6.2831853071795862 -22.600000000000001 -1 0 
1 -3.1415926535897931 -30 1 0 
1 0.43633231299858649 0 0 -1 
7 0 0  3 25 23  1.9106332362490186 4.0821559971578444e-17  1.9106376281606519 -0.015866708932177648  1.908493829185383 -0.047599853563098538  1.8989000347659426 -0.094336988576787781  1.8829835222057014 -0.13934883322181518  1.8608846305020463 -0.18177599077474427  1.83282909665372 -0.22076885300164958  1.799166265676672 -0.25550081830696175  1.7603999235134165 -0.28518871847934724  1.7172152008666439 -0.309120655626408  1.6704899338772119 -0.32668946936696314  1.6212831699028143 -0.33742808937241547  1.5707963267948966 -0.34104131949497524  1.5203094836869782 -0.33742808937241542  1.4711027197125817 -0.32668946936696319  1.4243774527231494 -0.30912065562640795  1.3811927300763762 -0.28518871847934724  1.342426387913122 -0.25550081830696197  1.3087635569360732 -0.22076885300164958  1.280708023087747 -0.18177599077474435  1.2586091313840915 -0.13934883322181529  1.2426926188238507 -0.094336988576787836  1.2330988244044101 -0.04759985356309869  1.2309550254291417 -0.015866708932177769  1.2309594173407747 -8.1643119943156889e-17 
 3.1415926535897931 4 3.2843923196620564 1 3.4271919857343196 1 3.5699916518065828 1 3.7127913178788465 1 3.8555909839511098 1 3.998390650023373 1 4.1411903160956367 1 4.2839899821678999 1 4.4267896482401632 1 4.5695893143124264 1 4.7123889803846897 1 4.8551886464569529 1 4.9979883125292162 1 5.1407879786014794 1 5.2835876446737426 1 5.4263873107460068 1 5.5691869768182691 1 5.7119866428905333 1 5.8547863089627965 1 5.9975859750350597 1 6.140385641107323 1 6.2831853071795862 4
1 0 3.1000000000000001 0 1 
1 -3.1415926535897931 0 1 0 
1 -3.1415926535897931 -30 1 0 
1 0 1.6000000000000001 0 1 
7 0 0  3 25 23  4.3725520709305679 4.0821559971578444e-17  4.3725476790189353 -0.015866708932177648  4.3746914779942019 -0.047599853563098538  4.3842852724136447 -0.094336988576787781  4.4002017849738841 -0.13934883322181518  4.4223006766775388 -0.18177599077474427  4.4503562105258672 -0.22076885300164958  4.4840190415029131 -0.25550081830696175  4.5227853836661689 -0.28518871847934724  4.5659701063129425 -0.309120655626408  4.6126953733023734 -0.32668946936696314  4.6619021372767699 -0.33742808937241547  4.7123889803846897 -0.34104131949497524  4.7628758234926059 -0.33742808937241542  4.812082587467005 -0.32668946936696319  4.8588078544564368 -0.30912065562640795  4.9019925771032078 -0.28518871847934724  4.9407589192664663 -0.25550081830696197  4.9744217502435131 -0.22076885300164958  5.0024772840918388 -0.18177599077474435  5.0245761757954961 -0.13934883322181529  5.0404926883557346 -0.094336988576787836  5.0500864827751766 -0.04759985356309869  5.052230281750445 -0.015866708932177769  5.0522258898388115 -8.1643119943156889e-17 
 3.1415926535897931 4 3.2843923196620564 1 3.4271919857343196 1 3.5699916518065828 1 3.7127913178788465 1 3.8555909839511098 1 3.998390650023373 1 4.1411903160956367 1 4.2839899821678999 1 4.4267896482401632 1 4.5695893143124264 1 4.7123889803846897 1 4.8551886464569529 1 4.9979883125292162 1 5.1407879786014794 1 5.2835876446737426 1 5.4263873107460068 1 5.5691869768182691 1 5.7119866428905333 1 5.8547863089627965 1 5.9975859750350597 1 6.140385641107323 1 6.2831853071795862 4
1 6.2831853071795862 -22.600000000000001 -1 0 
1 1.5707963267948963 0 0 -1 
1 0.43633231299858627 0 0 -1 
1 3.1415926535897931 -30 -1 0 
1 0 -22.600000000000001 1 0 
1 1.5707963267948966 1.6000000000000001 0 -1 
1 1.5707963267948966 0 0 -1 
1 0 3.1000000000000001 1 0 
1 3.1415926535897931 -1.5 -1 0 
1 1.5707963267948963 0 0 -1 
1 6.2831853071795862 -15.000000000000002 -1 0 
1 6.2831853071795862 -15.000000000000002 -1 0 
1 -3.1415926535897931 -7.4000000000000004 1 0 
1 0.43633231299858627 0 0 -1 
1 3.1415926535897931 -7.4000000000000004 -1 0 
1 3.1415926535897931 0 -1 0 
1 3.1415926535897931 1.6000000000000001 -1 0 
1 0 0 1 0 
1 9.4247779607693793 -16.5 -1 0 
1 6.2831853071795862 -16.5 -1 0 
1 6.2831853071795862 45 -1 0 
1 6.2831853071795862 15 -1 0 
1 0 0 0 -1 
1 6.2831853071795862 0 0 -1 
1 6.2831853071795862 -1.5 -1 0 
1 3.1415926535897931 0 0 -1 
1 3.1415926535897931 0 0 -1 
1 6.2831853071795862 0 -1 0 
1 0 0 0 -1 
1 6.2831853071795862 0 0 -1 
1 3.1415926535897931 -10 -1 0 
1 3.1415926535897931 0 0 -1 
1 3.1415926535897931 0 0 -1 
1 6.2831853071795862 -8.5 -1 0 
1 0 0 0 -1 
1 6.2831853071795862 0 0 -1 
1 6.2831853071795862 -10 -1 0 
1 3.1415926535897931 0 0 -1 
1 3.1415926535897931 0 0 -1 
1 6.2831853071795862 -8.5 -1 0 
1 1.5707963267948966 0 0 -1 
1 3.1415926535897931 -22.5 -1 0 
1 3.1415926535897931 0 0 -1 
1 3.1415926535897931 0 0 -1 
1 0 -7.5 1 0 
1 9.4247779607693793 -22.5 -1 0 
1 6.2831853071795862 0 0 -1 
1 0 0 0 -1 
1 0 -7.5 1 0 
1 6.2831853071795862 -7.4999999999999991 -1 -5.6543194337129189e-16 
1 3.1415926535897931 0 0 -1 
1 3.1415926535897931 0 0 -1 
1 3.1415926535897931 -22.5 1 0 
1 6.2831853071795862 0 0 -1 
1 0 0 0 -1 
1 6.2831853071795862 -7.4999999999999991 -1 0 
1 -3.1415926535897931 -22.5 1 0 
1 0.43633231299858644 0 7.4014868308343768e-18 -1 
1 1.5707963267948966 1.6000000000000001 0 -1 
1 1.5707963267948966 0 0 -1 
1 0 3.1000000000000001 1 0 
1 3.1415926535897931 -1.5 -1 0 
1 6.2831853071795862 -8.5 -1 0 
1 1.5707963267948963 0 0 -1 
1 6.2831853071795862 -8.5 -1 0 
1 6.2831853071795862 0 -1 0 
1 6.2831853071795862 -8.5 -1 0 
1 6.2831853071795862 -8.5 -1 0 
1 6.2831853071795862 -7.5000000000000027 -1 5.6543194337129198e-16 
1 -3.1415926535897931 -22.5 1 0 
1 0.43633231299858638 0 0 -1 
1 3.1415926535897931 -22.5 -1 0 
1 0 -7.5 1 0 
1 3.1415926535897931 1.6000000000000001 -1 0 
1 -3.1415926535897931 -10 1 0 
1 -3.1415926535897931 -10 1 0 
1 0 0 1 0 
1 6.2831853071795862 -1.5 -1 0 
1 9.4247779607693793 -10 -1 0 
1 6.2831853071795862 -10 -1 0 
1 0 3.1000000000000001 0 1 
1 0 1.6000000000000001 0 1 
1 0 0 0 -1 
1 1.5707963267948966 0 0 -1 
1 1.5707963267948966 0 0 -1 
1 3.1415926535897931 0 0 -1 
Curves 172
2 2.5554810603477398e-15 0 -15 0 0 -1 1 0 0 0 -1 0 2
2 2.5554810603477398e-15 0 -9.3431457505076203 1.22464679914735e-16 -1 0 1 1.22464679914735e-16 0 -0 0 1 6
2 2.5554810603477398e-15 0 -9.3431457505076203 0 1 -0 0 0 1 1 -0 0 6
2 2.5554810603477398e-15 0 -15 0 0 -1 1 0 0 0 -1 0 2
2 0 0 -15 0 0 -1 -1 0 0 0 1 0 2
2 4.7704895589362203e-15 0 9.3431457505076203 0 1 -0 0 0 1 1 -0 0 6
2 4.7704895589362203e-15 0 9.3431457505076203 1.22464679914735e-16 -1 0 1 1.22464679914735e-16 0 -0 0 1 6
2 4.7704895589362203e-15 0 15 0 0 -1 1 0 0 0 -1 0 2
2 0 0 15 0 0 -1 -1 0 0 0 1 0 2
2 4.7704895589362203e-15 0 15 0 0 -1 1 0 0 0 -1 0 2
2 0 0 15 0 0 -1 -1 0 0 0 1 0 1.50000000000001
1 1.5 1.8369701987210299e-16 -30 -0 -0 -1 
2 0 0 -15 0 0 -1 -1 0 0 0 1 0 1.5
1 -1.5 0 -30 -0 -0 -1 
1 -9 -18.100000000000001 10.6 -0 1 -0 
2 -9 -1.6000000000000001 9 0 1 0 0 0 -1 -1 0 0 1.6000000000000001
1 -9 -18.100000000000001 7.4000000000000004 -0 1 -0 
2 -9 -3.1000000000000001 9 0 1 0 0 -0 1 1 0 -0 1.6000000000000001
1 -9 -18.100000000000001 -7.4000000000000004 -0 1 -0 
2 -9 -1.6000000000000001 -9 0 1 0 0 -0 1 1 0 -0 1.6000000000000001
1 -9 -18.100000000000001 -10.6 -0 1 -0 
2 -9 -3.1000000000000001 -9 0 1 0 0 -0 1 1 0 -0 1.6000000000000001
1 0 -1.6000000000000001 15 -0 -0 -1 
2 0 0 7.5999999999999996 0 0 -1 1 0 0 0 -1 0 1.6000000000000001
1 1.6000000000000001 1.9594348786357601e-16 15 -0 -0 -1 
2 0 0 15 0 0 -1 1 0 0 0 -1 0 1.6000000000000001
2 0 0 7.5999999999999996 0 0 -1 1 0 0 0 -1 0 1.6000000000000001
1 -1.6000000000000001 0 15 -0 -0 -1 
2 0 0 15 0 0 -1 1 0 0 0 -1 0 1.6000000000000001
2 0 0 15 0 0 1 1 0 -0 -0 1 0 3.1000000000000001
1 3.1000000000000001 3.79640507735679e-16 15 -0 -0 -1 
2 0 0 7.5999999999999996 -0 0 1 1 0 0 0 1 -0 3.1000000000000001
1 -3.1000000000000001 0 15 -0 -0 -1 
2 0 0 15 0 0 1 1 0 -0 -0 1 0 3.1000000000000001
2 0 0 7.5999999999999996 -0 0 1 1 0 0 0 1 -0 3.1000000000000001
1 -2.8095541398136099 -1.31011661139618 15 -0 -0 -1 
1 0 -1.6000000000000001 15 -0 -0 -1 
2 0 0 -15 0 0 -1 1 0 0 0 -1 0 1.6000000000000001
1 1.6000000000000001 1.9594348786357601e-16 15 -0 -0 -1 
2 0 0 -7.5999999999999996 0 0 1 -1 0 0 0 -1 0 1.6000000000000001
2 0 0 -15 0 0 -1 1 0 0 0 -1 0 1.6000000000000001
1 -1.6000000000000001 0 15 -0 -0 -1 
2 0 0 -7.5999999999999996 0 0 1 -1 0 0 0 -1 0 1.6000000000000001
2 0 0 -7.5999999999999996 0 0 -1 -1 0 0 0 1 0 3.1000000000000001
1 3.1000000000000001 3.79640507735679e-16 15 -0 -0 -1 
2 0 0 -15 0 0 1 1 0 -0 -0 1 0 3.1000000000000001
1 -3.1000000000000001 0 15 -0 -0 -1 
2 0 0 -7.5999999999999996 0 0 -1 -1 0 0 0 1 0 3.1000000000000001
2 0 0 -15 0 0 1 1 0 -0 -0 1 0 3.1000000000000001
1 -2.8095541398136099 -1.31011661139618 15 -0 -0 -1 
1 -2.8095541398136099 -1.31011661139618 15 0.90630778703664783 0.42261826174070388 0 
2 4.7704895589362203e-15 0 15 0 0 -1 1 0 0 0 -1 0 2
1 -15 -1.6000000000000001 15 -1 -0 -0 
1 -13.4 -3.1000000000000001 15 0 -1 0 
1 -15 -3.1000000000000001 15 1 0 0 
2 0 0 15 0 0 1 1 0 -0 -0 1 0 3.1000000000000001
1 -2.8095541398136099 -1.31011661139618 -15 0.90630778703664783 0.42261826174070388 0 
2 0 0 -15 0 0 1 1 0 -0 -0 1 0 3.1000000000000001
1 -15 -3.1000000000000001 -15 1 0 0 
1 -13.4 0 -15 -0 1 -0 
1 -15 -1.6000000000000001 -15 -1 -0 -0 
2 2.5554810603477398e-15 0 -15 0 0 -1 1 0 0 0 -1 0 2
2 0 0 -7.5999999999999996 0 0 -1 -1 0 0 0 1 0 3.1000000000000001
1 -5.6946076160351899e-16 -3.1000000000000001 15 -0 -0 -1 
1 -1.4500924592586399 -0.67618921878512595 15 -0 -0 -1 
1 -2.8095541398136099 -1.31011661139618 -7.5999999999999996 -0.90630778703664783 -0.42261826174070388 0 
1 -2.8095541398136099 -1.31011661139618 -15 0.90630778703664783 0.42261826174070388 0 
2 0 0 -15 0 0 -1 1 0 0 0 -1 0 1.6000000000000001
2 0 0 -7.5999999999999996 0 0 1 -1 0 0 0 -1 0 1.6000000000000001
1 -15 -3.1000000000000001 15 -0 -0 -1 
1 -15 -1.6000000000000001 13.4 -0 1 -0 
1 -15 -1.6000000000000001 15 -0 -0 -1 
1 -15 -1.6000000000000001 -13.4 0 -1 0 
2 -13.4 -3.1000000000000001 13.4 0 -1 0 0 0 1 -1 0 0 1.6000000000000001
2 -13.4 -3.1000000000000001 -13.4 0 -1 0 0 0 1 -1 0 0 1.6000000000000001
1 -15 -3.1000000000000001 -7.5999999999999996 -1 0 0 
1 -4.5 -3.1000000000000001 15 0 -0 1 
1 -15 -3.1000000000000001 7.5999999999999996 1 -0 0 
1 -5.6946076160351899e-16 -3.1000000000000001 15 -0 -0 -1 
2 -9 -3.1000000000000001 9 0 1 0 0 -0 1 1 0 -0 1.6000000000000001
2 -9 -3.1000000000000001 -9 0 1 0 0 -0 1 1 0 -0 1.6000000000000001
2 0 0 7.5999999999999996 -0 0 1 1 0 0 0 1 -0 3.1000000000000001
1 -2.8095541398136099 -1.31011661139618 7.5999999999999996 0.90630778703664783 0.42261826174070388 0 
1 -1.4500924592586399 -0.67618921878512595 15 -0 -0 -1 
1 -2.8095541398136099 -1.31011661139618 15 0.90630778703664783 0.42261826174070388 0 
2 0 0 7.5999999999999996 0 0 -1 1 0 0 0 -1 0 1.6000000000000001
2 0 0 15 0 0 -1 1 0 0 0 -1 0 1.6000000000000001
2 -13.4 -1.6000000000000001 13.4 0 1 0 0 0 -1 -1 0 0 1.6000000000000001
1 -15 -1.6000000000000001 15 -1 -0 -0 
1 -15 -1.6000000000000001 7.5999999999999996 -1 0 0 
1 -4.5 -1.6000000000000001 15 0 0 -1 
1 -15 -1.6000000000000001 -7.5999999999999996 1 0 0 
1 -15 -1.6000000000000001 -15 -1 -0 -0 
2 -13.4 -1.6000000000000001 -13.4 0 1 0 0 0 -1 -1 0 0 1.6000000000000001
2 -9 -1.6000000000000001 9 0 1 0 0 0 -1 -1 0 0 1.6000000000000001
2 -9 -1.6000000000000001 -9 0 1 0 0 -0 1 1 0 -0 1.6000000000000001
1 -4.5 -10 -7.5999999999999996 -0 1 -0 
1 -4.5 -10 7.5999999999999996 -0 1 -0 
2 0 0 15 0 0 -1 -1 0 0 0 1 0 1.50000000000001
2 0 0 -15 0 0 -1 -1 0 0 0 1 0 1.5
1 9 -3.1000000000000001 -1.6000000000000001 -1.12562457356044e-34 1 5.17960561634569e-18 
2 9 -1.6000000000000001 -9.1488275995370795e-16 -1.12562457356044e-34 1 5.17960561634569e-18 2.17318586961181e-17 5.17960561634569e-18 -1 -1 2.3520329448811322e-49 -2.17318586961181e-17 1.6000000000000001
1 9 -3.1000000000000001 1.6000000000000001 -1.12562457356044e-34 1 5.17960561634569e-18 
2 9 -3.1000000000000001 -9.2265216837822693e-16 -1.12562457356044e-34 1 5.17960561634569e-18 2.17318586961181e-17 5.17960561634569e-18 -1 -1 2.3520329448811322e-49 -2.17318586961181e-17 1.6000000000000001
1 24 -11.6 -10.6 -1.12562457356044e-34 1 5.17960561634569e-18 
2 24 -1.6000000000000001 -9 -1.12562457356044e-34 1 5.17960561634569e-18 -2.17318586961181e-17 -5.17960561634569e-18 1 1 -2.3520329448811322e-49 2.17318586961181e-17 1.6000000000000001
1 24 -11.6 -7.4000000000000004 -1.12562457356044e-34 1 5.17960561634569e-18 
2 24 -3.1000000000000001 -9 -1.12562457356044e-34 1 5.17960561634569e-18 2.17318586961181e-17 5.17960561634569e-18 -1 -1 2.3520329448811322e-49 -2.17318586961181e-17 1.6000000000000001
1 24 -11.6 7.3999999999999897 -1.12562457356044e-34 1 5.17960561634569e-18 
2 24 -1.6000000000000001 9 -1.12562457356044e-34 1 5.17960561634569e-18 2.17318586961181e-17 5.17960561634569e-18 -1 -1 2.3520329448811322e-49 -2.17318586961181e-17 1.6000000000000001
1 24 -11.6 10.6 -1.12562457356044e-34 1 5.17960561634569e-18 
2 24 -3.1000000000000001 9 -1.12562457356044e-34 1 5.17960561634569e-18 2.17318586961181e-17 5.17960561634569e-18 -1 -1 2.3520329448811322e-49 -2.17318586961181e-17 1.6000000000000001
1 3.2597788044177099e-16 -1.6000000000000001 -15 -2.17318586961181e-17 -5.17960561634569e-18 1 
2 -1.6298894022088599e-16 -3.8847042122592699e-17 7.5 -2.17318586961181e-17 -5.17960561634569e-18 1 -1 0 -2.17318586961181e-17 1.1256245735604424e-34 -1 -5.17960561634569e-18 1.6000000000000001
1 -1.6000000000000001 2.7363757210876201e-16 -15 -2.17318586961181e-17 -5.17960561634569e-18 1 
2 1.6298894022088599e-16 3.8847042122592699e-17 -7.5 2.17318586961181e-17 5.17960561634569e-18 -1 1 0 2.17318586961181e-17 1.1256245735604424e-34 -1 -5.17960561634569e-18 1.6000000000000001
2 -1.6298894022088599e-16 -3.8847042122592699e-17 7.5 -2.17318586961181e-17 -5.17960561634569e-18 1 -1 0 -2.17318586961181e-17 1.1256245735604424e-34 -1 -5.17960561634569e-18 1.6000000000000001
1 1.6000000000000001 7.7694084245185398e-17 -15 -2.17318586961181e-17 -5.17960561634569e-18 1 
2 1.6298894022088599e-16 3.8847042122592699e-17 -7.5 2.17318586961181e-17 5.17960561634569e-18 -1 1 0 2.17318586961181e-17 1.1256245735604424e-34 -1 -5.17960561634569e-18 1.6000000000000001
2 1.6298894022088599e-16 3.8847042122592699e-17 -7.5 2.58062250332399e-16 -5.17960561634569e-18 1 1 1.44922313854455e-33 -2.58062250332399e-16 -1.1256245735604862e-34 1 5.17960561634569e-18 3.1000000000000001
1 -3.1000000000000001 4.5733459198086498e-16 -15 -2.17318586961181e-17 -5.17960561634569e-18 1 
2 -1.6298894022088599e-16 -3.8847042122592699e-17 7.5 -2.58062250332399e-16 5.17960561634569e-18 -1 -1 -1.44922313854455e-33 2.58062250332399e-16 -1.1256245735604862e-34 1 5.17960561634569e-18 3.1000000000000001
1 3.1000000000000001 7.7694084245185398e-17 -15 -2.17318586961181e-17 -5.17960561634569e-18 1 
2 1.6298894022088599e-16 3.8847042122592699e-17 -7.5 2.58062250332399e-16 -5.17960561634569e-18 1 1 1.44922313854455e-33 -2.58062250332399e-16 -1.1256245735604862e-34 1 5.17960561634569e-18 3.1000000000000001
2 -1.6298894022088599e-16 -3.8847042122592699e-17 7.5 -2.58062250332399e-16 5.17960561634569e-18 -1 -1 -1.44922313854455e-33 2.58062250332399e-16 -1.1256245735604862e-34 1 5.17960561634569e-18 3.1000000000000001
1 2.8095541398136099 -1.31011661139618 -15 -2.17318586961181e-17 -5.17960561634569e-18 1 
1 30 -3.1000000000000001 -15 -2.17318586961181e-17 -5.17960561634569e-18 1 
1 30 -1.6000000000000001 -13 -1.12562457356044e-34 1 5.17960561634569e-18 
1 30 -1.6000000000000001 -15 -2.17318586961181e-17 -5.17960561634569e-18 1 
1 30 -1.6000000000000001 13 1.12562457356044e-34 -1 -5.17960561634569e-18 
1 30 -3.1000000000000001 -15 -1 0 -2.17318586961181e-17 
2 28 -3.1000000000000001 -13 1.12562457356044e-34 -1 -5.17960561634569e-18 2.17318586961181e-17 5.17960561634569e-18 -1 1 -2.3520329448811322e-49 2.17318586961181e-17 2
2 28 -3.1000000000000001 13 1.12562457356044e-34 -1 -5.17960561634569e-18 2.17318586961181e-17 5.17960561634569e-18 -1 1 -2.3520329448811322e-49 2.17318586961181e-17 2
1 30 -3.1000000000000001 15 -1 0 -2.17318586961181e-17 
1 4.5 -3.1000000000000001 -15 -7.7395197073985196e-17 5.17960561634569e-18 -1 
2 3.5 -3.1000000000000001 8.5 -1.12562457356044e-34 1 5.17960561634569e-18 2.17318586961181e-17 5.17960561634569e-18 -1 -1 2.3520329448811322e-49 -2.17318586961181e-17 1
1 30 -3.1000000000000001 7.5 -1 -7.4876528824801601e-34 1.22828430968616e-16 
1 8.9543864204528998e-16 -3.1000000000000001 -15 -2.17318586961181e-17 -5.17960561634569e-18 1 
1 30 -3.1000000000000001 -7.5 1 7.4876528824801601e-34 -1.22828430968616e-16 
2 3.5 -3.1000000000000001 -8.5 -1.12562457356044e-34 1 5.17960561634569e-18 2.17318586961181e-17 5.17960561634569e-18 -1 -1 2.3520329448811322e-49 -2.17318586961181e-17 0.999999999999999
1 4.5 -3.1000000000000001 -15 -2.75649308614192e-16 5.17960561634569e-18 -1 
2 9 -3.1000000000000001 -9.2265216837822693e-16 -1.12562457356044e-34 1 5.17960561634569e-18 2.17318586961181e-17 5.17960561634569e-18 -1 -1 2.3520329448811322e-49 -2.17318586961181e-17 1.6000000000000001
2 24 -3.1000000000000001 -9 -1.12562457356044e-34 1 5.17960561634569e-18 2.17318586961181e-17 5.17960561634569e-18 -1 -1 2.3520329448811322e-49 -2.17318586961181e-17 1.6000000000000001
2 24 -3.1000000000000001 9 -1.12562457356044e-34 1 5.17960561634569e-18 2.17318586961181e-17 5.17960561634569e-18 -1 -1 2.3520329448811322e-49 -2.17318586961181e-17 1.6000000000000001
2 1.6298894022088599e-16 3.8847042122592699e-17 -7.5 2.58062250332399e-16 -5.17960561634569e-18 1 1 1.44922313854455e-33 -2.58062250332399e-16 -1.1256245735604862e-34 1 5.17960561634569e-18 3.1000000000000001
2 -1.6298894022088599e-16 -3.8847042122592699e-17 7.5 -2.58062250332399e-16 5.17960561634569e-18 -1 -1 -1.44922313854455e-33 2.58062250332399e-16 -1.1256245735604862e-34 1 5.17960561634569e-18 3.1000000000000001
1 1.4500924592586399 -0.67618921878512595 -15 -2.17318586961181e-17 -5.17960561634569e-18 1 
1 2.8095541398136099 -1.31011661139618 -7.5 0.90630778703664783 -0.42261826174070388 -1.1350935937843198e-16 
1 2.8095541398136099 -1.31011661139618 7.5 -0.90630778703664783 0.42261826174070388 1.1350935937843198e-16 
2 -1.6298894022088599e-16 -3.8847042122592699e-17 7.5 -2.17318586961181e-17 -5.17960561634569e-18 1 -1 0 -2.17318586961181e-17 1.1256245735604424e-34 -1 -5.17960561634569e-18 1.6000000000000001
2 1.6298894022088599e-16 3.8847042122592699e-17 -7.5 2.17318586961181e-17 5.17960561634569e-18 -1 1 0 2.17318586961181e-17 1.1256245735604424e-34 -1 -5.17960561634569e-18 1.6000000000000001
2 28 -1.6000000000000001 -13 -1.12562457356044e-34 1 5.17960561634569e-18 -2.17318586961181e-17 -5.17960561634569e-18 1 1 -2.3520329448811322e-49 2.17318586961181e-17 2
1 30 -1.6000000000000001 -15 1 -0 2.17318586961181e-17 
1 4.5 -1.6000000000000001 -15 2.75649308614192e-16 -5.17960561634569e-18 1 
2 3.5 -1.6000000000000001 -8.5 1.12562457356044e-34 -1 -5.17960561634569e-18 -2.17318586961181e-17 -5.17960561634569e-18 1 -1 2.3520329448811322e-49 -2.17318586961181e-17 0.999999999999999
1 30 -1.6000000000000001 -7.5 -1 -7.4876528824801601e-34 1.22828430968616e-16 
1 30 -1.6000000000000001 7.5 1 7.4876528824801601e-34 -1.22828430968616e-16 
2 3.5 -1.6000000000000001 8.5 1.12562457356044e-34 -1 -5.17960561634569e-18 -2.17318586961181e-17 -5.17960561634569e-18 1 -1 2.3520329448811322e-49 -2.17318586961181e-17 1
1 4.5 -1.6000000000000001 -15 7.7395197073985196e-17 -5.17960561634569e-18 1 
1 30 -1.6000000000000001 15 1 -0 2.17318586961181e-17 
2 28 -1.6000000000000001 13 -1.12562457356044e-34 1 5.17960561634569e-18 -2.17318586961181e-17 -5.17960561634569e-18 1 1 -2.3520329448811322e-49 2.17318586961181e-17 2
2 9 -1.6000000000000001 -9.1488275995370795e-16 -1.12562457356044e-34 1 5.17960561634569e-18 2.17318586961181e-17 5.17960561634569e-18 -1 -1 2.3520329448811322e-49 -2.17318586961181e-17 1.6000000000000001
2 24 -1.6000000000000001 -9 -1.12562457356044e-34 1 5.17960561634569e-18 -2.17318586961181e-17 -5.17960561634569e-18 1 1 -2.3520329448811322e-49 2.17318586961181e-17 1.6000000000000001
2 24 -1.6000000000000001 9 -1.12562457356044e-34 1 5.17960561634569e-18 2.17318586961181e-17 5.17960561634569e-18 -1 -1 2.3520329448811322e-49 -2.17318586961181e-17 1.6000000000000001
1 28 -3.1000000000000001 -15 1.12562457356044e-34 -1 -5.17960561634569e-18 
1 4.5 7.7694084245185398e-17 -15 1.12562457356044e-34 -1 -5.17960561634569e-18 
1 28 -7.7694084245185398e-17 15 -1.12562457356044e-34 1 5.17960561634569e-18 
1 4.5 -7.7694084245185398e-17 15 1.12562457356044e-34 -1 -5.17960561634569e-18 
1 3.5 -11.6 7.5 -1.12562457356044e-34 1 5.17960561634569e-18 
1 4.5 -11.6 8.5 -1.12562457356044e-34 1 5.17960561634569e-18 
1 4.5 -11.6 -8.5 -1.12562457356044e-34 1 5.17960561634569e-18 
1 3.5 -11.6 -7.5 -1.12562457356044e-34 1 5.17960561634569e-18 
Polygon3D 0
PolygonOnTriangulations 0
Surfaces 62
4 2.5554810603477398e-15 0 -9.3431457505076203 0 -1 -0 1 0 0 0 -0 1 6
1 0 0 -15 0 0 1 1 0 -0 -0 1 0 
4 2.5554810603477398e-15 0 -9.3431457505076203 0 -1 -0 1 0 0 0 -0 1 6
1 1.5 0 -15 -0 -0 -1 0 -1 0 -1 0 0 
4 4.7704895589362203e-15 0 9.3431457505076203 0 -1 -0 1 0 0 0 -0 1 6
4 4.7704895589362203e-15 0 9.3431457505076203 0 -1 -0 1 0 0 0 -0 1 6
1 0 0 15 0 0 1 1 0 -0 -0 1 0 
1 1.50000000000001 0 15 0 0 1 1 0 -0 -0 1 0 
2 0 0 -30 0 0 1 -1 0 0 0 -1 0 1.5
2 0 0 -30 0 0 1 -1 0 0 0 -1 0 1.5
2 -9 -18.100000000000001 9 0 -1 0 0 0 1 -1 0 0 1.6000000000000001
2 -9 -18.100000000000001 9 0 -1 0 0 0 1 -1 0 0 1.6000000000000001
1 -15 -1.6000000000000001 15 0 -1 0 0 0 -1 1 0 0 
1 -15 -3.1000000000000001 15 -0 1 0 1 0 0 0 0 -1 
2 -9 -18.100000000000001 -9 0 -1 0 0 0 1 -1 0 0 1.6000000000000001
2 -9 -18.100000000000001 -9 0 -1 0 0 0 1 -1 0 0 1.6000000000000001
2 0 0 15 0 0 1 -1 0 0 0 -1 0 1.6000000000000001
1 -4.5 -10 7.5999999999999996 -0 0 1 1 0 0 0 1 -0 
2 0 0 15 0 0 1 -1 0 0 0 -1 0 1.6000000000000001
2 0 0 15 0 0 1 -1 0 0 0 -1 0 1.6000000000000001
2 0 0 15 0 0 1 -1 0 0 0 -1 0 3.1000000000000001
2 0 0 15 0 0 1 -1 0 0 0 -1 0 3.1000000000000001
2 0 0 15 0 0 1 -1 0 0 0 -1 0 3.1000000000000001
1 -2.8095541398136099 -1.31011661139618 15 -0.42261826174070394 0.90630778703664794 0 0 0 1 0.90630778703664794 0.42261826174070394 -0 
2 0 0 15 0 0 1 -1 0 0 0 -1 0 1.6000000000000001
2 0 0 15 0 0 1 -1 0 0 0 -1 0 1.6000000000000001
1 -4.5 -10 -7.5999999999999996 0 0 -1 0 -1 0 -1 -0 -0 
2 0 0 15 0 0 1 -1 0 0 0 -1 0 1.6000000000000001
2 0 0 15 0 0 1 -1 0 0 0 -1 0 3.1000000000000001
2 0 0 15 0 0 1 -1 0 0 0 -1 0 3.1000000000000001
2 0 0 15 0 0 1 -1 0 0 0 -1 0 3.1000000000000001
1 -2.8095541398136099 -1.31011661139618 15 -0.42261826174070394 0.90630778703664794 0 0 0 1 0.90630778703664794 0.42261826174070394 -0 
2 -13.4 0 13.4 0 -1 0 0 0 1 -1 0 0 1.6000000000000001
2 -13.4 -1.6000000000000001 -13.4 0 1 0 0 0 -1 -1 0 0 1.6000000000000001
1 -15 -1.6000000000000001 15 1 0 -0 0 1 0 0 -0 1 
1 -4.5 -10 -7.5999999999999996 -1 0 0 0 0 1 0 1 -0 
2 9 -3.1000000000000001 -9.2265216837822693e-16 1.12562457356044e-34 -1 -5.17960561634569e-18 2.17318586961181e-17 5.17960561634569e-18 -1 1 -2.3520329448811322e-49 2.17318586961181e-17 1.6000000000000001
2 9 -3.1000000000000001 -9.2265216837822693e-16 1.12562457356044e-34 -1 -5.17960561634569e-18 2.17318586961181e-17 5.17960561634569e-18 -1 1 -2.3520329448811322e-49 2.17318586961181e-17 1.6000000000000001
1 30 -1.6000000000000001 -15 1.12562457356044e-34 -1 -5.17960561634569e-18 -2.17318586961181e-17 -5.17960561634569e-18 1 -1 2.3520329448811322e-49 -2.17318586961181e-17 
1 30 -3.1000000000000001 -15 -1.12562457356044e-34 1 5.17960561634569e-18 -1 2.3520329448811322e-49 -2.17318586961181e-17 -2.17318586961181e-17 -5.17960561634569e-18 1 
2 24 -11.6 -9 1.12562457356044e-34 -1 -5.17960561634569e-18 2.17318586961181e-17 5.17960561634569e-18 -1 1 -2.3520329448811322e-49 2.17318586961181e-17 1.6000000000000001
2 24 -11.6 -9 1.12562457356044e-34 -1 -5.17960561634569e-18 2.17318586961181e-17 5.17960561634569e-18 -1 1 -2.3520329448811322e-49 2.17318586961181e-17 1.6000000000000001
2 24 -11.6 9 1.12562457356044e-34 -1 -5.17960561634569e-18 2.17318586961181e-17 5.17960561634569e-18 -1 1 -2.3520329448811322e-49 2.17318586961181e-17 1.6000000000000001
2 24 -11.6 9 1.12562457356044e-34 -1 -5.17960561634569e-18 2.17318586961181e-17 5.17960561634569e-18 -1 1 -2.3520329448811322e-49 2.17318586961181e-17 1.6000000000000001
2 3.2597788044177099e-16 7.7694084245185398e-17 -15 2.17318586961181e-17 5.17960561634569e-18 -1 1 0 2.17318586961181e-17 1.1256245735604424e-34 -1 -5.17960561634569e-18 1.6000000000000001
1 3.5 -11.6 7.5 -1.22828430968616e-16 5.17960561634569e-18 -1 -1 -7.4876528824801601e-34 1.22828430968616e-16 -1.1256245735604366e-34 1 5.17960561634569e-18 
2 3.2597788044177099e-16 7.7694084245185398e-17 -15 2.17318586961181e-17 5.17960561634569e-18 -1 1 0 2.17318586961181e-17 1.1256245735604424e-34 -1 -5.17960561634569e-18 1.6000000000000001
1 3.5 -11.6 -7.5 1.22828430968616e-16 -5.17960561634569e-18 1 1 7.4876528824801601e-34 -1.22828430968616e-16 -1.1256245735604366e-34 1 5.17960561634569e-18 
2 3.2597788044177099e-16 7.7694084245185398e-17 -15 2.17318586961181e-17 5.17960561634569e-18 -1 1 0 2.17318586961181e-17 1.1256245735604424e-34 -1 -5.17960561634569e-18 1.6000000000000001
2 3.2597788044177099e-16 7.7694084245185398e-17 -15 2.17318586961181e-17 5.17960561634569e-18 -1 1 0 2.17318586961181e-17 1.1256245735604424e-34 -1 -5.17960561634569e-18 3.1000000000000001
2 3.2597788044177099e-16 7.7694084245185398e-17 -15 2.17318586961181e-17 5.17960561634569e-18 -1 1 0 2.17318586961181e-17 1.1256245735604424e-34 -1 -5.17960561634569e-18 3.1000000000000001
2 3.2597788044177099e-16 7.7694084245185398e-17 -15 2.17318586961181e-17 5.17960561634569e-18 -1 1 0 2.17318586961181e-17 1.1256245735604424e-34 -1 -5.17960561634569e-18 3.1000000000000001
1 2.8095541398136099 -1.31011661139618 -15 0.42261826174070394 0.90630778703664794 1.3878597250420899e-17 2.1731858696118109e-17 5.1796056163457001e-18 -1 -0.90630778703664794 0.42261826174070394 -1.750675684098953e-17 
1 30 -1.6000000000000001 -15 -1 0 -2.17318586961181e-17 -1.1256245735604424e-34 1 5.17960561634569e-18 2.17318586961181e-17 5.17960561634569e-18 -1 
2 28 6.7334873012494001e-17 -13 1.12562457356044e-34 -1 -5.17960561634569e-18 2.17318586961181e-17 5.17960561634569e-18 -1 1 -2.3520329448811322e-49 2.17318586961181e-17 2
2 28 -1.6000000000000001 13 -1.12562457356044e-34 1 5.17960561634569e-18 -2.17318586961181e-17 -5.17960561634569e-18 1 1 -2.3520329448811322e-49 2.17318586961181e-17 2
1 3.2597788044177099e-16 7.7694084245185398e-17 -15 2.17318586961181e-17 5.17960561634569e-18 -1 -1 0 -2.17318586961181e-17 -1.1256245735604424e-34 1 5.17960561634569e-18 
1 -3.2597788044177099e-16 -7.7694084245185398e-17 15 2.17318586961181e-17 5.17960561634569e-18 -1 -1 0 -2.17318586961181e-17 -1.1256245735604424e-34 1 5.17960561634569e-18 
1 4.5 -11.6 26 1 5.1343905479863997e-34 -7.7395197073985196e-17 -1.1256245735604469e-34 1 5.17960561634569e-18 7.7395197073985196e-17 -5.17960561634569e-18 1 
2 3.5 -11.6 8.5 1.12562457356044e-34 -1 -5.17960561634569e-18 2.17318586961181e-17 5.17960561634569e-18 -1 1 -2.3520329448811322e-49 2.17318586961181e-17 1
2 3.5 -11.6 -8.5 1.12562457356044e-34 -1 -5.17960561634569e-18 2.17318586961181e-17 5.17960561634569e-18 -1 1 -2.3520329448811322e-49 2.17318586961181e-17 0.999999999999999
1 4.5 -11.6 -26 1 1.5403171643959201e-33 -2.75649308614192e-16 -1.1256245735604486e-34 1 5.17960561634569e-18 2.75649308614192e-16 -5.17960561634569e-18 1 
Triangulations 0

TShapes 427
Ve
1e-07
-1.81261557407329 -0.845236523481405 -15
0 0

0101101
*
Ve
1e-07
-1.99999999999999 -2.4492935982947e-16 -15
0 0

0101101
*
Ed
 1e-07 1 1 0
1  1 0 2.70526034059121 3.14159265358979
2  1 1 0 2.70526034059121 3.14159265358979
4 C0 1 0 2 0
0

0101000
+427 0 -426 0 *
Ve
1e-07
2.92287510009195e-15 0 -15.3431457505076
0 0

0101101
*
Ed
 1e-07 1 1 0
1  2 0 4.37255207093057 4.71238898038469
2  2 1 0 4.37255207093057 4.71238898038469
2  3 3 0 4.37255207093057 4.71238898038469
4 CN 1 0 3 0
0

0101000
+426 0 -424 0 *
Ve
1e-07
2 0 -15
0 0

0101101
*
Ed
 1e-07 1 1 0
1  3 0 2.80175574413567 3.14159265358979
2  4 1 0 2.80175574413567 3.14159265358979
2  5 3 0 2.80175574413567 3.14159265358979
4 CN 1 0 3 0
0

0101000
+422 0 -424 0 *
Ve
1e-07
-1.2 -1.6 -15
0 0

0101101
*
Ed
 1e-07 1 1 0
1  4 0 0 2.21429743558818
2  6 1 0 0 2.21429743558818
4 C0 1 0 2 0
0

0101000
+422 0 -420 0 *
Ed
 1e-07 1 1 0
1  5 0 5.35589008917797 5.846852994181
2  7 1 0 5.35589008917797 5.846852994181
4 C0 1 0 4 0
0

0101000
+420 0 -427 0 *
Wi

0101100
+425 0 +423 0 -421 0 +419 0 +418 0 *
Fa
0  1e-07 1 0

0111000
+417 0 *
Ve
1e-07
5.13788359868043e-15 0 15.3431457505076
0 0

0101101
*
Ve
1e-07
2 0 15
0 0

0101101
*
Ed
 1e-07 1 1 0
1  6 0 0 0.339836909454121
2  8 5 0 0 0.339836909454121
2  9 6 0 0 0.339836909454121
4 CN 5 0 6 0
0

0101000
+415 0 -414 0 *
Ve
1e-07
-1.99999999999999 -2.4492935982947e-16 15
0 0

0101101
*
Ed
 1e-07 1 1 0
1  7 0 1.5707963267949 1.91063323624902
2  10 5 0 1.5707963267949 1.91063323624902
2  11 6 0 1.5707963267949 1.91063323624902
4 CN 5 0 6 0
0

0101000
+415 0 -412 0 *
Ve
1e-07
-1.8126155740733 -0.845236523481408 15
0 0

0101101
*
Ed
 1e-07 1 1 0
1  8 0 2.70526034059121 3.14159265358979
2  12 5 0 2.70526034059121 3.14159265358979
4 C0 5 0 7 0
0

0101000
+410 0 -412 0 *
Ve
1e-07
-1.19999999999999 -1.6 15
0 0

0101101
*
Ed
 1e-07 1 1 0
1  9 0 5.35589008917797 5.846852994181
2  13 5 0 5.35589008917797 5.846852994181
4 C0 5 0 8 0
0

0101000
+408 0 -410 0 *
Ed
 1e-07 1 1 0
1  10 0 0 2.21429743558818
2  14 5 0 0 2.21429743558818
4 C0 5 0 7 0
0

0101000
+414 0 -408 0 *
Wi

0101100
-413 0 +411 0 -409 0 -407 0 -406 0 *
Fa
0  1e-07 5 0

0111000
+405 0 *
Ve
1e-07
-1.50000000000001 0 15
0 0

0101101
*
Ve
1e-07
1.50000000000001 1.83697019872104e-16 15
0 0

0101101
*
Ed
 1e-07 1 1 0
1  11 0 0 3.14159265358979
2  15 9 0 0 3.14159265358979
4 C0 9 0 8 0
0

0101000
+403 0 -402 0 *
Ve
1e-07
1.5 1.83697019872103e-16 -15
0 0

0101101
*
Ed
 1e-07 1 1 0
1  12 0 -45 -15
2  16 9 0 -45 -15
2  17 10 0 -45 -15
4 CN 9 0 10 0
0

0101000
+402 0 -400 0 *
Ve
1e-07
-1.5 0 -15
0 0

0101101
*
Ed
 1e-07 1 1 0
1  13 0 0 3.14159265358979
2  18 9 0 0 3.14159265358979
4 C0 9 0 4 0
0

0101000
+398 0 -400 0 *
Ed
 1e-07 1 1 0
1  14 0 -45 -15
2  19 9 0 -45 -15
2  20 10 0 -45 -15
4 CN 9 0 10 0
0

0101000
+403 0 -398 0 *
Wi

0101100
+401 0 +399 0 -397 0 -396 0 *
Fa
0  1e-07 9 0

0111000
+395 0 *
Ve
1e-07
-9 -3.1 10.6
0 0

0101101
*
Ve
1e-07
-9 -1.6 10.6
0 0

0101101
*
Ed
 1e-07 1 1 0
1  15 0 15 16.5
2  21 11 0 15 16.5
2  22 12 0 15 16.5
4 CN 11 0 12 0
0

0101000
+393 0 -392 0 *
Ve
1e-07
-9 -1.6 7.4
0 0

0101101
*
Ed
 1e-07 1 1 0
1  16 0 0 3.14159265358979
2  23 11 0 0 3.14159265358979
4 C0 11 0 13 0
0

0101000
+390 0 -392 0 *
Ve
1e-07
-9 -3.1 7.4
0 0

0101101
*
Ed
 1e-07 1 1 0
1  17 0 15 16.5
2  24 11 0 15 16.5
2  25 12 0 15 16.5
4 CN 11 0 12 0
0

0101000
+388 0 -390 0 *
Ed
 1e-07 1 1 0
1  18 0 3.14159265358979 6.28318530717959
2  26 11 0 3.14159265358979 6.28318530717959
4 C0 11 0 14 0
0

0101000
+388 0 -393 0 *
Wi

0101100
+391 0 -389 0 -387 0 +386 0 *
Fa
0  1e-07 11 0

0111000
+385 0 *
Ve
1e-07
-9 -3.1 -7.4
0 0

0101101
*
Ve
1e-07
-9 -1.6 -7.4
0 0

0101101
*
Ed
 1e-07 1 1 0
1  19 0 15 16.5
2  27 15 0 15 16.5
2  28 16 0 15 16.5
4 CN 15 0 16 0
0

0101000
+383 0 -382 0 *
Ve
1e-07
-9 -1.6 -10.6
0 0

0101101
*
Ed
 1e-07 1 1 0
1  20 0 3.14159265358979 6.28318530717959
2  29 15 0 3.14159265358979 6.28318530717959
4 C0 15 0 13 0
0

0101000
+380 0 -382 0 *
Ve
1e-07
-9 -3.1 -10.6
0 0

0101101
*
Ed
 1e-07 1 1 0
1  21 0 15 16.5
2  30 15 0 15 16.5
2  31 16 0 15 16.5
4 CN 15 0 16 0
0

0101000
+378 0 -380 0 *
Ed
 1e-07 1 1 0
1  22 0 3.14159265358979 6.28318530717959
2  32 15 0 3.14159265358979 6.28318530717959
4 C0 15 0 14 0
0

0101000
+378 0 -383 0 *
Wi

0101100
+381 0 -379 0 -377 0 +376 0 *
Fa
0  1e-07 15 0

0111000
+375 0 *
Ve
1e-07
0 -1.6 15
0 0

0101101
*
Ve
1e-07
0 -1.6 7.6
0 0

0101101
*
Ed
 1e-07 1 1 0
1  23 0 -0 7.4
2  33 17 0 -0 7.4
4 G1 17 0 13 0
0

0101000
+373 0 -372 0 *
Ve
1e-07
1.6 1.95943487863576e-16 7.6
0 0

0101101
*
Ed
 1e-07 1 1 0
1  24 0 0 1.5707963267949
2  34 17 0 0 1.5707963267949
4 C0 17 0 18 0
0

0101000
+370 0 -372 0 *
Ve
1e-07
1.6 1.95943487863576e-16 15
0 0

0101101
*
Ed
 1e-07 1 1 0
1  25 0 -0 7.4
2  35 17 0 -0 7.4
2  36 19 0 -0 7.4
4 CN 17 0 19 0
0

0101000
+368 0 -370 0 *
Ed
 1e-07 1 1 0
1  26 0 0 1.5707963267949
2  37 17 0 0 1.5707963267949
4 C0 17 0 8 0
0

0101000
+368 0 -373 0 *
Wi

0101100
+371 0 -369 0 -367 0 +366 0 *
Fa
0  1e-07 17 0

0111000
+365 0 *
Ve
1e-07
-1.6 0 7.6
0 0

0101101
*
Ed
 1e-07 1 1 0
1  27 0 3.14159265358979 6.28318530717959
2  38 19 0 3.14159265358979 6.28318530717959
4 C0 19 0 18 0
0

0101000
+363 0 -370 0 *
Ve
1e-07
-1.6 0 15
0 0

0101101
*
Ed
 1e-07 1 1 0
1  28 0 -0 7.4
2  39 19 0 -0 7.4
2  40 20 0 -0 7.4
4 CN 19 0 20 0
0

0101000
+361 0 -363 0 *
Ed
 1e-07 1 1 0
1  29 0 3.14159265358979 6.28318530717959
2  41 19 0 3.14159265358979 6.28318530717959
4 C0 19 0 8 0
0

0101000
+361 0 -368 0 *
Wi

0101100
-362 0 -360 0 +359 0 +367 0 *
Fa
0  1e-07 19 0

0111000
+358 0 *
Ve
1e-07
3.1 3.79640507735679e-16 15
0 0

0101101
*
Ve
1e-07
-3.1 0 15
0 0

0101101
*
Ed
 1e-07 1 1 0
1  30 0 0 3.14159265358979
2  42 21 0 0 3.14159265358979
4 C0 21 0 7 0
0

0101000
+356 0 -355 0 *
Ve
1e-07
3.1 3.79640507735679e-16 7.6
0 0

0101101
*
Ed
 1e-07 1 1 0
1  31 0 -0 7.4
2  43 21 0 -0 7.4
2  44 22 0 -0 7.4
4 CN 21 0 22 0
0

0101000
+356 0 -353 0 *
Ve
1e-07
-3.1 0 7.6
0 0

0101101
*
Ed
 1e-07 1 1 0
1  32 0 0 3.14159265358979
2  45 21 0 0 3.14159265358979
4 C0 21 0 18 0
0

0101000
+353 0 -351 0 *
Ed
 1e-07 1 1 0
1  33 0 -0 7.4
2  46 21 0 -0 7.4
2  47 23 0 -0 7.4
4 CN 21 0 23 0
0

0101000
+355 0 -351 0 *
Wi

0101100
-354 0 +352 0 +350 0 -349 0 *
Fa
0  1e-07 21 0

0111000
+348 0 *
Ve
1e-07
-2.80955413981361 -1.31011661139618 15
0 0

0101101
*
Ed
 1e-07 1 1 0
1  34 0 3.14159265358979 3.57792496658838
2  48 23 0 3.14159265358979 3.57792496658838
4 C0 23 0 7 0
0

0101000
+355 0 -346 0 *
Ve
1e-07
-2.80955413981361 -1.31011661139618 7.6
0 0

0101101
*
Ed
 1e-07 1 1 0
1  35 0 3.14159265358979 3.57792496658838
2  49 23 0 3.14159265358979 3.57792496658838
4 C0 23 0 18 0
0

0101000
+351 0 -344 0 *
Ed
 1e-07 1 1 0
1  36 0 -0 7.4
2  50 23 0 -0 7.4
4 C0 23 0 24 0
0

0101000
+346 0 -344 0 *
Wi

0101100
-345 0 +349 0 +343 0 -342 0 *
Fa
0  1e-07 23 0

0111000
+341 0 *
Ve
1e-07
0 -1.6 -7.6
0 0

0101101
*
Ve
1e-07
0 -1.6 -15
0 0

0101101
*
Ed
 1e-07 1 1 0
1  37 0 22.6 30
2  51 25 0 22.6 30
4 G1 25 0 13 0
0

0101000
+339 0 -338 0 *
Ve
1e-07
1.6 1.95943487863576e-16 -15
0 0

0101101
*
Ed
 1e-07 1 1 0
1  38 0 0 1.5707963267949
2  52 25 0 0 1.5707963267949
4 C0 25 0 4 0
0

0101000
+336 0 -338 0 *
Ve
1e-07
1.6 1.95943487863576e-16 -7.6
0 0

0101101
*
Ed
 1e-07 1 1 0
1  39 0 22.6 30
2  53 25 0 22.6 30
2  54 26 0 22.6 30
4 CN 25 0 26 0
0

0101000
+334 0 -336 0 *
Ed
 1e-07 1 1 0
1  40 0 1.5707963267949 3.14159265358979
2  55 25 0 1.5707963267949 3.14159265358979
4 C0 25 0 27 0
0

0101000
+339 0 -334 0 *
Wi

0101100
+337 0 -335 0 -333 0 -332 0 *
Fa
0  1e-07 25 0

0111000
+331 0 *
Ve
1e-07
-1.6 0 -15
0 0

0101101
*
Ed
 1e-07 1 1 0
1  41 0 3.14159265358979 6.28318530717959
2  56 26 0 3.14159265358979 6.28318530717959
4 C0 26 0 4 0
0

0101000
+329 0 -336 0 *
Ve
1e-07
-1.6 0 -7.6
0 0

0101101
*
Ed
 1e-07 1 1 0
1  42 0 22.6 30
2  57 26 0 22.6 30
2  58 28 0 22.6 30
4 CN 26 0 28 0
0

0101000
+327 0 -329 0 *
Ed
 1e-07 1 1 0
1  43 0 3.14159265358979 6.28318530717959
2  59 26 0 3.14159265358979 6.28318530717959
4 C0 26 0 27 0
0

0101000
+334 0 -327 0 *
Wi

0101100
-328 0 -326 0 -325 0 +333 0 *
Fa
0  1e-07 26 0

0111000
+324 0 *
Ve
1e-07
-3.1 0 -7.6
0 0

0101101
*
Ve
1e-07
3.1 3.79640507735679e-16 -7.6
0 0

0101101
*
Ed
 1e-07 1 1 0
1  44 0 0 3.14159265358979
2  60 29 0 0 3.14159265358979
4 C0 29 0 27 0
0

0101000
+322 0 -321 0 *
Ve
1e-07
3.1 3.79640507735679e-16 -15
0 0

0101101
*
Ed
 1e-07 1 1 0
1  45 0 22.6 30
2  61 29 0 22.6 30
2  62 30 0 22.6 30
4 CN 29 0 30 0
0

0101000
+321 0 -319 0 *
Ve
1e-07
-3.1 0 -15
0 0

0101101
*
Ed
 1e-07 1 1 0
1  46 0 0 3.14159265358979
2  63 29 0 0 3.14159265358979
4 C0 29 0 2 0
0

0101000
+319 0 -317 0 *
Ed
 1e-07 1 1 0
1  47 0 22.6 30
2  64 29 0 22.6 30
2  65 31 0 22.6 30
4 CN 29 0 31 0
0

0101000
+322 0 -317 0 *
Wi

0101100
+320 0 +318 0 +316 0 -315 0 *
Fa
0  1e-07 29 0

0111000
+314 0 *
Ve
1e-07
-2.80955413981361 -1.31011661139618 -7.6
0 0

0101101
*
Ed
 1e-07 1 1 0
1  48 0 5.846852994181 6.28318530717959
2  66 31 0 5.846852994181 6.28318530717959
4 C0 31 0 27 0
0

0101000
+312 0 -322 0 *
Ve
1e-07
-2.80955413981361 -1.31011661139618 -15
0 0

0101101
*
Ed
 1e-07 1 1 0
1  49 0 3.14159265358979 3.57792496658838
2  67 31 0 3.14159265358979 3.57792496658838
4 C0 31 0 2 0
0

0101000
+317 0 -310 0 *
Ed
 1e-07 1 1 0
1  50 0 22.6 30
2  68 31 0 22.6 30
4 C0 31 0 32 0
0

0101000
+312 0 -310 0 *
Wi

0101100
+311 0 +315 0 +309 0 -308 0 *
Fa
0  1e-07 31 0

0111000
+307 0 *
Ed
 1e-07 1 1 0
1  51 0 0 1.1
4 C0 7 0 24 0
0

0101000
+346 0 -410 0 *
Ed
 1e-07 1 1 0
1  52 0 3.14159265358979 6.28318530717959
2  69 6 0 3.14159265358979 6.28318530717959
4 C0 7 0 6 0
0

0101000
+412 0 -414 0 *
Ve
1e-07
-13.4 -1.6 15
0 0

0101101
*
Ed
 1e-07 1 1 0
1  53 0 -13.8 -1.6
4 C0 7 0 13 0
0

0101000
+408 0 -303 0 *
Ve
1e-07
-13.4 -3.1 15
0 0

0101101
*
Ed
 1e-07 1 1 0
1  54 0 -1.5 0
2  70 33 0 -1.5 0
4 G1 7 0 33 0
0

0101000
+303 0 -301 0 *
Ve
1e-07
-5.69460761603519e-16 -3.1 15
0 0

0101101
*
Ed
 1e-07 1 1 0
1  55 0 1.6 15
4 C0 7 0 14 0
0

0101000
+301 0 -299 0 *
Ed
 1e-07 1 1 0
1  56 0 4.71238898038469 6.28318530717959
2  71 22 0 4.71238898038469 6.28318530717959
4 C0 7 0 22 0
0

0101000
+299 0 -356 0 *
Wi

0101100
+305 0 +409 0 +304 0 +406 0 +302 0 +300 0 +298 0 +297 0 +354 0 +345 0 
*
Fa
0  1e-07 7 0

0111000
+296 0 *
Ed
 1e-07 1 1 0
1  57 0 0 1.10000000000001
4 C0 2 0 32 0
0

0101000
+310 0 -427 0 *
Ve
1e-07
-5.69460761603519e-16 -3.1 -15
0 0

0101101
*
Ed
 1e-07 1 1 0
1  58 0 4.71238898038469 6.28318530717959
2  72 30 0 4.71238898038469 6.28318530717959
4 C0 2 0 30 0
0

0101000
+293 0 -319 0 *
Ve
1e-07
-13.4 -3.1 -15
0 0

0101101
*
Ed
 1e-07 1 1 0
1  59 0 1.6 15
4 C0 2 0 14 0
0

0101000
+291 0 -293 0 *
Ve
1e-07
-13.4 -1.6 -15
0 0

0101101
*
Ed
 1e-07 1 1 0
1  60 0 -3.1 -1.6
2  73 34 0 -3.1 -1.6
4 G1 2 0 34 0
0

0101000
+291 0 -289 0 *
Ed
 1e-07 1 1 0
1  61 0 -13.8 -1.6
4 C0 2 0 13 0
0

0101000
+420 0 -289 0 *
Ed
 1e-07 1 1 0
1  62 0 3.14159265358979 6.28318530717959
2  74 3 0 3.14159265358979 6.28318530717959
4 C0 2 0 3 0
0

0101000
+426 0 -422 0 *
Wi

0101100
-425 0 -294 0 -309 0 -316 0 -292 0 -290 0 +288 0 -287 0 -419 0 -286 0 
*
Fa
0  1e-07 2 0

0111000
-285 0 *
Ve
1e-07
-5.69460761603519e-16 -3.1 -7.6
0 0

0101101
*
Ed
 1e-07 1 1 0
1  63 0 3.14159265358979 4.71238898038469
2  75 30 0 3.14159265358979 4.71238898038469
4 C0 30 0 27 0
0

0101000
+321 0 -283 0 *
Ed
 1e-07 1 1 0
1  64 0 22.6 30
2  76 30 0 22.6 30
4 G1 30 0 14 0
0

0101000
+283 0 -293 0 *
Wi

0101100
-318 0 +282 0 +281 0 +292 0 *
Fa
0  1e-07 30 0

0111000
+280 0 *
Ve
1e-07
-1.45009245925864 -0.676189218785126 -7.6
0 0

0101101
*
Ve
1e-07
-1.45009245925864 -0.676189218785126 -15
0 0

0101101
*
Ed
 1e-07 1 1 0
1  65 0 22.6 30
2  77 28 0 22.6 30
4 C0 32 0 28 0
0

0101000
+278 0 -277 0 *
Ed
 1e-07 1 1 0
1  66 0 -1.5 0
4 C0 32 0 27 0
0

0101000
+278 0 -312 0 *
Ed
 1e-07 1 1 0
1  67 0 1.10000000000001 1.5
4 C0 32 0 4 0
0

0101000
+427 0 -277 0 *
Wi

0101100
-276 0 +275 0 +308 0 +294 0 +274 0 *
Fa
0  1e-07 32 0

0111000
-273 0 *
Ed
 1e-07 1 1 0
1  68 0 2.70526034059121 3.14159265358979
2  78 28 0 2.70526034059121 3.14159265358979
4 C0 28 0 4 0
0

0101000
+277 0 -329 0 *
Ed
 1e-07 1 1 0
1  69 0 0 0.436332312998586
2  79 28 0 0 0.436332312998586
4 C0 28 0 27 0
0

0101000
+327 0 -278 0 *
Wi

0101100
-271 0 -276 0 -270 0 +326 0 *
Fa
0  1e-07 28 0

0111000
+269 0 *
Ve
1e-07
-15 -3.1 13.4
0 0

0101101
*
Ve
1e-07
-15 -3.1 -13.4
0 0

0101101
*
Ed
 1e-07 1 1 0
1  70 0 1.6 28.4
4 C0 35 0 14 0
0

0101000
+267 0 -266 0 *
Ve
1e-07
-15 -1.6 13.4
0 0

0101101
*
Ed
 1e-07 1 1 0
1  71 0 -1.5 0
2  80 33 0 -1.5 0
4 G1 35 0 33 0
0

0101000
+267 0 -264 0 *
Ve
1e-07
-15 -1.6 -13.4
0 0

0101101
*
Ed
 1e-07 1 1 0
1  72 0 1.6 28.4
4 C0 35 0 13 0
0

0101000
+264 0 -262 0 *
Ed
 1e-07 1 1 0
1  73 0 0 1.5
2  81 34 0 0 1.5
4 G1 35 0 34 0
0

0101000
+262 0 -266 0 *
Wi

0101100
-265 0 +263 0 +261 0 +260 0 *
Fa
0  1e-07 35 0

0111000
-259 0 *
Ed
 1e-07 1 1 0
1  74 0 0 1.5707963267949
2  82 33 0 0 1.5707963267949
4 C0 14 0 33 0
0

0101000
+301 0 -267 0 *
Ed
 1e-07 1 1 0
1  75 0 1.5707963267949 3.14159265358979
2  83 34 0 1.5707963267949 3.14159265358979
4 C0 14 0 34 0
0

0101000
+266 0 -291 0 *
Ve
1e-07
-4.5 -3.1 -7.6
0 0

0101101
*
Ed
 1e-07 1 1 0
1  76 0 -15 -10.5
4 C0 14 0 27 0
0

0101000
+283 0 -255 0 *
Ve
1e-07
-4.5 -3.1 7.6
0 0

0101101
*
Ed
 1e-07 1 1 0
1  77 0 -22.6 -7.4
4 C0 14 0 36 0
0

0101000
+255 0 -253 0 *
Ve
1e-07
-5.69460761603519e-16 -3.1 7.6
0 0

0101101
*
Ed
 1e-07 1 1 0
1  78 0 10.5 15
4 C0 14 0 18 0
0

0101000
+253 0 -251 0 *
Ed
 1e-07 1 1 0
1  79 0 -0 7.4
2  84 22 0 -0 7.4
4 G1 14 0 22 0
0

0101000
+299 0 -251 0 *
Wi

0101100
-298 0 +257 0 +265 0 +256 0 +290 0 -281 0 +254 0 +252 0 +250 0 -249 0 
*
Ed
 1e-07 1 1 0
1  80 0 0 3.14159265358979
2  85 12 0 0 3.14159265358979
4 C0 14 0 12 0
0

0101000
+393 0 -388 0 *
Wi

0101100
+247 0 +386 0 *
Ed
 1e-07 1 1 0
1  81 0 0 3.14159265358979
2  86 16 0 0 3.14159265358979
4 C0 14 0 16 0
0

0101000
+383 0 -378 0 *
Wi

0101100
+245 0 +376 0 *
Fa
0  1e-07 14 0

0111000
-248 0 -246 0 -244 0 *
Ed
 1e-07 1 1 0
1  82 0 4.71238898038469 6.28318530717959
2  87 22 0 4.71238898038469 6.28318530717959
4 C0 22 0 18 0
0

0101000
+251 0 -353 0 *
Wi

0101100
-352 0 -297 0 +249 0 +242 0 *
Fa
0  1e-07 22 0

0111000
+241 0 *
Ve
1e-07
-1.45009245925864 -0.676189218785126 7.6
0 0

0101101
*
Ed
 1e-07 1 1 0
1  83 0 0 1.5
4 C0 24 0 18 0
0

0101000
+344 0 -239 0 *
Ve
1e-07
-1.45009245925864 -0.676189218785126 15
0 0

0101101
*
Ed
 1e-07 1 1 0
1  84 0 -0 7.4
2  88 20 0 -0 7.4
4 C0 24 0 20 0
0

0101000
+237 0 -239 0 *
Ed
 1e-07 1 1 0
1  85 0 1.1 1.5
4 C0 24 0 8 0
0

0101000
+410 0 -237 0 *
Wi

0101100
+342 0 +238 0 -236 0 -235 0 -305 0 *
Fa
0  1e-07 24 0

0111000
-234 0 *
Ed
 1e-07 1 1 0
1  86 0 2.70526034059121 3.14159265358979
2  89 20 0 2.70526034059121 3.14159265358979
4 C0 20 0 18 0
0

0101000
+239 0 -363 0 *
Ed
 1e-07 1 1 0
1  87 0 2.70526034059121 3.14159265358979
2  90 20 0 2.70526034059121 3.14159265358979
4 C0 20 0 8 0
0

0101000
+237 0 -361 0 *
Wi

0101100
-232 0 -236 0 +231 0 +360 0 *
Fa
0  1e-07 20 0

0111000
+230 0 *
Ed
 1e-07 1 1 0
1  88 0 1.5707963267949 3.14159265358979
2  91 33 0 1.5707963267949 3.14159265358979
4 C0 13 0 33 0
0

0101000
+264 0 -303 0 *
Ed
 1e-07 1 1 0
1  89 0 -15 -13.8
4 C0 13 0 8 0
0

0101000
+373 0 -408 0 *
Ve
1e-07
-4.5 -1.6 7.6
0 0

0101101
*
Ed
 1e-07 1 1 0
1  90 0 -15 -10.5
4 C0 13 0 18 0
0

0101000
+372 0 -226 0 *
Ve
1e-07
-4.5 -1.6 -7.6
0 0

0101101
*
Ed
 1e-07 1 1 0
1  91 0 7.4 22.6
4 C0 13 0 36 0
0

0101000
+226 0 -224 0 *
Ed
 1e-07 1 1 0
1  92 0 10.5 15
4 C0 13 0 27 0
0

0101000
+224 0 -339 0 *
Ed
 1e-07 1 1 0
1  93 0 -15 -13.8
4 C0 13 0 4 0
0

0101000
+338 0 -420 0 *
Ed
 1e-07 1 1 0
1  94 0 0 1.5707963267949
2  92 34 0 0 1.5707963267949
4 C0 13 0 34 0
0

0101000
+289 0 -262 0 *
Wi

0101100
-261 0 +228 0 -302 0 -227 0 +371 0 +225 0 +223 0 +222 0 +337 0 +221 0 
+287 0 +220 0 *
Ed
 1e-07 1 1 0
1  95 0 3.14159265358979 6.28318530717959
2  93 12 0 3.14159265358979 6.28318530717959
4 C0 13 0 12 0
0

0101000
+392 0 -390 0 *
Wi

0101100
-218 0 -389 0 *
Ed
 1e-07 1 1 0
1  96 0 0 3.14159265358979
2  94 16 0 0 3.14159265358979
4 C0 13 0 16 0
0

0101000
+382 0 -380 0 *
Wi

0101100
-216 0 -379 0 *
Fa
0  1e-07 13 0

0111000
-219 0 -217 0 -215 0 *
Ed
 1e-07 1 1 0
1  97 0 6.9 8.4
4 C0 27 0 36 0
0

0101000
+255 0 -224 0 *
Wi

0101100
-311 0 -275 0 -270 0 -325 0 -332 0 -222 0 -213 0 -254 0 -282 0 -320 0 
*
Fa
0  1e-07 27 0

0111000
-212 0 *
Ed
 1e-07 1 1 0
1  98 0 6.9 8.4
4 C0 18 0 36 0
0

0101000
+253 0 -226 0 *
Wi

0101100
+210 0 -225 0 -369 0 -362 0 -232 0 -238 0 -343 0 -350 0 -242 0 -250 0 
*
Fa
0  1e-07 18 0

0111000
-209 0 *
Wi

0101100
+213 0 -223 0 -210 0 -252 0 *
Fa
0  1e-07 36 0

0111000
-207 0 *
Wi

0101100
-228 0 -263 0 -257 0 -300 0 *
Fa
0  1e-07 33 0

0111000
+205 0 *
Wi

0101100
-220 0 -288 0 -256 0 -260 0 *
Fa
0  1e-07 34 0

0111000
+203 0 *
Wi

0101100
-216 0 -381 0 +245 0 +377 0 *
Fa
0  1e-07 16 0

0111000
+201 0 *
Wi

0101100
-218 0 -391 0 +247 0 +387 0 *
Fa
0  1e-07 12 0

0111000
+199 0 *
Wi

0101100
+407 0 +235 0 +231 0 +359 0 +366 0 +227 0 *
Ed
 1e-07 1 1 0
1  99 0 3.14159265358979 6.28318530717959
2  95 10 0 3.14159265358979 6.28318530717959
4 C0 8 0 10 0
0

0101000
+402 0 -403 0 *
Wi

0101100
-401 0 -196 0 *
Fa
0  1e-07 8 0

0111000
-197 0 -195 0 *
Wi

0101100
-271 0 -274 0 -418 0 -221 0 -335 0 -328 0 *
Ed
 1e-07 1 1 0
1  100 0 3.14159265358979 6.28318530717959
2  96 10 0 3.14159265358979 6.28318530717959
4 C0 4 0 10 0
0

0101000
+400 0 -398 0 *
Wi

0101100
+397 0 +192 0 *
Fa
0  1e-07 4 0

0111000
-193 0 -191 0 *
Wi

0101100
-399 0 +196 0 +396 0 -192 0 *
Fa
0  1e-07 10 0

0111000
+189 0 *
Wi

0101100
-411 0 +413 0 -304 0 *
Fa
0  1e-07 6 0

0111000
+187 0 *
Wi

0101100
-423 0 +286 0 +421 0 *
Fa
0  1e-07 3 0

0111000
+185 0 *
Sh

0101100
+416 0 +404 0 +394 0 -384 0 -374 0 -364 0 -357 0 +347 0 +340 0 -330 0 
-323 0 +313 0 +306 0 +295 0 -284 0 +279 0 -272 0 -268 0 -258 0 -243 0 
+240 0 -233 0 -229 0 -214 0 -211 0 -208 0 -206 0 +204 0 +202 0 -200 0 
-198 0 -194 0 -190 0 +188 0 +186 0 +184 0 *
So

0100000
+183 0 *
Ve
1e-07
9 -3.1 -1.6
0 0

0101101
*
Ve
1e-07
9 -1.6 -1.6
0 0

0101101
*
Ed
 1e-07 1 1 0
1  101 0 0 1.5
2  97 37 0 0 1.5
2  98 38 0 0 1.5
4 CN 37 0 38 0
0

0101000
+181 0 -180 0 *
Ve
1e-07
9 -1.6 1.6
0 0

0101101
*
Ed
 1e-07 1 1 0
1  102 0 3.14159265358979 6.28318530717959
2  99 37 0 3.14159265358979 6.28318530717959
4 C0 37 0 39 0
0

0101000
+178 0 -180 0 *
Ve
1e-07
9 -3.1 1.6
0 0

0101101
*
Ed
 1e-07 1 1 0
1  103 0 0 1.5
2  100 37 0 0 1.5
2  101 38 0 0 1.5
4 CN 37 0 38 0
0

0101000
+176 0 -178 0 *
Ed
 1e-07 1 1 0
1  104 0 3.14159265358979 6.28318530717959
2  102 37 0 3.14159265358979 6.28318530717959
4 C0 37 0 40 0
0

0101000
+176 0 -181 0 *
Wi

0101100
+179 0 -177 0 -175 0 +174 0 *
Fa
0  1e-07 37 0

0111000
+173 0 *
Ve
1e-07
24 -3.1 -10.6
0 0

0101101
*
Ve
1e-07
24 -1.6 -10.6
0 0

0101101
*
Ed
 1e-07 1 1 0
1  105 0 8.5 10
2  103 41 0 8.5 10
2  104 42 0 8.5 10
4 CN 41 0 42 0
0

0101000
+171 0 -170 0 *
Ve
1e-07
24 -1.6 -7.4
0 0

0101101
*
Ed
 1e-07 1 1 0
1  106 0 0 3.14159265358979
2  105 41 0 0 3.14159265358979
4 C0 41 0 39 0
0

0101000
+168 0 -170 0 *
Ve
1e-07
24 -3.1 -7.4
0 0

0101101
*
Ed
 1e-07 1 1 0
1  107 0 8.5 10
2  106 41 0 8.5 10
2  107 42 0 8.5 10
4 CN 41 0 42 0
0

0101000
+166 0 -168 0 *
Ed
 1e-07 1 1 0
1  108 0 3.14159265358979 6.28318530717959
2  108 41 0 3.14159265358979 6.28318530717959
4 C0 41 0 40 0
0

0101000
+166 0 -171 0 *
Wi

0101100
+169 0 -167 0 -165 0 +164 0 *
Fa
0  1e-07 41 0

0111000
+163 0 *
Ve
1e-07
24 -3.1 7.39999999999999
0 0

0101101
*
Ve
1e-07
24 -1.6 7.39999999999999
0 0

0101101
*
Ed
 1e-07 1 1 0
1  109 0 8.5 10
2  109 43 0 8.5 10
2  110 44 0 8.5 10
4 CN 43 0 44 0
0

0101000
+161 0 -160 0 *
Ve
1e-07
24 -1.6 10.6
0 0

0101101
*
Ed
 1e-07 1 1 0
1  110 0 3.14159265358979 6.28318530717959
2  111 43 0 3.14159265358979 6.28318530717959
4 C0 43 0 39 0
0

0101000
+158 0 -160 0 *
Ve
1e-07
24 -3.1 10.6
0 0

0101101
*
Ed
 1e-07 1 1 0
1  111 0 8.5 10
2  112 43 0 8.5 10
2  113 44 0 8.5 10
4 CN 43 0 44 0
0

0101000
+156 0 -158 0 *
Ed
 1e-07 1 1 0
1  112 0 3.14159265358979 6.28318530717959
2  114 43 0 3.14159265358979 6.28318530717959
4 C0 43 0 40 0
0

0101000
+156 0 -161 0 *
Wi

0101100
+159 0 -157 0 -155 0 +154 0 *
Fa
0  1e-07 43 0

0111000
+153 0 *
Ve
1e-07
1.62988940220886e-16 -1.6 -7.5
0 0

0101101
*
Ve
1e-07
-1.62988940220886e-16 -1.6 7.5
0 0

0101101
*
Ed
 1e-07 1 1 0
1  113 0 7.5 22.5
2  115 45 0 7.5 22.5
4 G1 45 0 39 0
0

0101000
+151 0 -150 0 *
Ve
1e-07
-1.6 1.57096445740984e-16 7.5
0 0

0101101
*
Ed
 1e-07 1 1 0
1  114 0 0 1.5707963267949
2  116 45 0 0 1.5707963267949
4 C0 45 0 46 0
0

0101000
+148 0 -150 0 *
Ve
1e-07
-1.6 2.34790529986169e-16 -7.5
0 0

0101101
*
Ed
 1e-07 1 1 0
1  115 0 7.5 22.5
2  117 45 0 7.5 22.5
2  118 47 0 7.5 22.5
4 CN 45 0 47 0
0

0101000
+146 0 -148 0 *
Ed
 1e-07 1 1 0
1  116 0 1.5707963267949 3.14159265358979
2  119 45 0 1.5707963267949 3.14159265358979
4 C0 45 0 48 0
0

0101000
+151 0 -146 0 *
Wi

0101100
+149 0 -147 0 -145 0 -144 0 *
Fa
0  1e-07 45 0

0111000
+143 0 *
Ve
1e-07
1.6 -3.88470421225927e-17 7.5
0 0

0101101
*
Ed
 1e-07 1 1 0
1  117 0 3.14159265358979 6.28318530717959
2  120 47 0 3.14159265358979 6.28318530717959
4 C0 47 0 46 0
0

0101000
+141 0 -148 0 *
Ve
1e-07
1.6 3.88470421225927e-17 -7.5
0 0

0101101
*
Ed
 1e-07 1 1 0
1  118 0 7.5 22.5
2  121 47 0 7.5 22.5
2  122 49 0 7.5 22.5
4 CN 47 0 49 0
0

0101000
+139 0 -141 0 *
Ed
 1e-07 1 1 0
1  119 0 3.14159265358979 6.28318530717959
2  123 47 0 3.14159265358979 6.28318530717959
4 C0 47 0 48 0
0

0101000
+146 0 -139 0 *
Wi

0101100
-140 0 -138 0 -137 0 +145 0 *
Fa
0  1e-07 47 0

0111000
+136 0 *
Ve
1e-07
3.1 3.88470421225927e-17 -7.5
0 0

0101101
*
Ve
1e-07
-3.1 4.18487549858272e-16 -7.5
0 0

0101101
*
Ed
 1e-07 1 1 0
1  120 0 0 3.14159265358979
2  124 50 0 0 3.14159265358979
4 C0 50 0 48 0
0

0101000
+134 0 -133 0 *
Ve
1e-07
-3.1 3.40793465613087e-16 7.5
0 0

0101101
*
Ed
 1e-07 1 1 0
1  121 0 7.5 22.5
2  125 50 0 7.5 22.5
2  126 51 0 7.5 22.5
4 CN 50 0 51 0
0

0101000
+133 0 -131 0 *
Ve
1e-07
3.1 -3.88470421225927e-17 7.5
0 0

0101101
*
Ed
 1e-07 1 1 0
1  122 0 0 3.14159265358979
2  127 50 0 0 3.14159265358979
4 C0 50 0 46 0
0

0101000
+131 0 -129 0 *
Ed
 1e-07 1 1 0
1  123 0 7.5 22.5
2  128 50 0 7.5 22.5
2  129 52 0 7.5 22.5
4 CN 50 0 52 0
0

0101000
+134 0 -129 0 *
Wi

0101100
+132 0 +130 0 +128 0 -127 0 *
Fa
0  1e-07 50 0

0111000
+126 0 *
Ve
1e-07
2.80955413981361 -1.31011661139618 -7.5
0 0

0101101
*
Ed
 1e-07 1 1 0
1  124 0 5.846852994181 6.28318530717959
2  130 52 0 5.846852994181 6.28318530717959
4 C0 52 0 48 0
0

0101000
+124 0 -134 0 *
Ve
1e-07
2.80955413981361 -1.31011661139618 7.5
0 0

0101101
*
Ed
 1e-07 1 1 0
1  125 0 3.14159265358979 3.57792496658838
2  131 52 0 3.14159265358979 3.57792496658838
4 C0 52 0 46 0
0

0101000
+129 0 -122 0 *
Ed
 1e-07 1 1 0
1  126 0 7.5 22.5
2  132 52 0 7.5 22.5
4 C0 52 0 53 0
0

0101000
+124 0 -122 0 *
Wi

0101100
+123 0 +127 0 +121 0 -120 0 *
Fa
0  1e-07 52 0

0111000
+119 0 *
Ve
1e-07
30 -3.1 -13
0 0

0101101
*
Ve
1e-07
30 -3.1 13
0 0

0101101
*
Ed
 1e-07 1 1 0
1  127 0 2 28
4 C0 54 0 40 0
0

0101000
+117 0 -116 0 *
Ve
1e-07
30 -1.6 -13
0 0

0101101
*
Ed
 1e-07 1 1 0
1  128 0 -1.5 0
2  133 55 0 -1.5 0
4 G1 54 0 55 0
0

0101000
+117 0 -114 0 *
Ve
1e-07
30 -1.6 13
0 0

0101101
*
Ed
 1e-07 1 1 0
1  129 0 2 28
4 C0 54 0 39 0
0

0101000
+114 0 -112 0 *
Ed
 1e-07 1 1 0
1  130 0 0 1.5
2  134 56 0 0 1.5
4 G1 54 0 56 0
0

0101000
+112 0 -116 0 *
Wi

0101100
-115 0 +113 0 +111 0 +110 0 *
Fa
0  1e-07 54 0

0111000
-109 0 *
Ve
1e-07
28 -3.1 -15
0 0

0101101
*
Ve
1e-07
4.5 -3.1 -15
0 0

0101101
*
Ed
 1e-07 1 1 0
1  131 0 2 25.5
4 C0 40 0 57 0
0

0101000
+107 0 -106 0 *
Ed
 1e-07 1 1 0
1  132 0 0 1.5707963267949
2  135 55 0 0 1.5707963267949
4 C0 40 0 55 0
0

0101000
+107 0 -117 0 *
Ve
1e-07
28 -3.1 15
0 0

0101101
*
Ed
 1e-07 1 1 0
1  133 0 1.5707963267949 3.14159265358979
2  136 56 0 1.5707963267949 3.14159265358979
4 C0 40 0 56 0
0

0101000
+116 0 -103 0 *
Ve
1e-07
4.5 -3.1 15
0 0

0101101
*
Ed
 1e-07 1 1 0
1  134 0 2 25.5
4 C0 40 0 58 0
0

0101000
+103 0 -101 0 *
Ve
1e-07
4.5 -3.1 8.5
0 0

0101101
*
Ed
 1e-07 1 1 0
1  135 0 -30 -23.5
4 C0 40 0 59 0
0

0101000
+101 0 -99 0 *
Ve
1e-07
3.5 -3.1 7.5
0 0

0101101
*
Ed
 1e-07 1 1 0
1  136 0 4.71238898038469 6.28318530717959
2  137 60 0 4.71238898038469 6.28318530717959
4 C0 40 0 60 0
0

0101000
+99 0 -97 0 *
Ve
1e-07
4.06471821382634e-16 -3.1 7.5
0 0

0101101
*
Ed
 1e-07 1 1 0
1  137 0 26.5 30
4 C0 40 0 46 0
0

0101000
+97 0 -95 0 *
Ve
1e-07
7.32449701824405e-16 -3.1 -7.5
0 0

0101101
*
Ed
 1e-07 1 1 0
1  138 0 7.5 22.5
2  138 51 0 7.5 22.5
4 G1 40 0 51 0
0

0101000
+93 0 -95 0 *
Ve
1e-07
3.5 -3.1 -7.5
0 0

0101101
*
Ed
 1e-07 1 1 0
1  139 0 -30 -26.5
4 C0 40 0 48 0
0

0101000
+93 0 -91 0 *
Ve
1e-07
4.5 -3.1 -8.5
0 0

0101101
*
Ed
 1e-07 1 1 0
1  140 0 3.14159265358979 4.71238898038469
2  139 61 0 3.14159265358979 4.71238898038469
4 C0 40 0 61 0
0

0101000
+91 0 -89 0 *
Ed
 1e-07 1 1 0
1  141 0 -6.5 0
4 C0 40 0 62 0
0

0101000
+89 0 -106 0 *
Wi

0101100
-105 0 +104 0 +115 0 +102 0 +100 0 +98 0 +96 0 +94 0 -92 0 +90 0 
+88 0 +87 0 *
Ed
 1e-07 1 1 0
1  142 0 0 3.14159265358979
2  140 38 0 0 3.14159265358979
4 C0 40 0 38 0
0

0101000
+181 0 -176 0 *
Wi

0101100
+85 0 +174 0 *
Ed
 1e-07 1 1 0
1  143 0 0 3.14159265358979
2  141 42 0 0 3.14159265358979
4 C0 40 0 42 0
0

0101000
+171 0 -166 0 *
Wi

0101100
+83 0 +164 0 *
Ed
 1e-07 1 1 0
1  144 0 0 3.14159265358979
2  142 44 0 0 3.14159265358979
4 C0 40 0 44 0
0

0101000
+161 0 -156 0 *
Wi

0101100
+81 0 +154 0 *
Fa
0  1e-07 40 0

0111000
-86 0 -84 0 -82 0 -80 0 *
Ed
 1e-07 1 1 0
1  145 0 3.14159265358979 4.71238898038469
2  143 51 0 3.14159265358979 4.71238898038469
4 C0 51 0 48 0
0

0101000
+133 0 -93 0 *
Ed
 1e-07 1 1 0
1  146 0 4.71238898038469 6.28318530717959
2  144 51 0 4.71238898038469 6.28318530717959
4 C0 51 0 46 0
0

0101000
+95 0 -131 0 *
Wi

0101100
-130 0 +78 0 +92 0 +77 0 *
Fa
0  1e-07 51 0

0111000
+76 0 *
Ve
1e-07
1.45009245925864 -0.676189218785126 -7.5
0 0

0101101
*
Ve
1e-07
1.45009245925864 -0.676189218785126 7.5
0 0

0101101
*
Ed
 1e-07 1 1 0
1  147 0 7.5 22.5
2  145 49 0 7.5 22.5
4 C0 53 0 49 0
0

0101000
+74 0 -73 0 *
Ed
 1e-07 1 1 0
1  148 0 -1.5 0
4 C0 53 0 48 0
0

0101000
+74 0 -124 0 *
Ed
 1e-07 1 1 0
1  149 0 0 1.5
4 C0 53 0 46 0
0

0101000
+122 0 -73 0 *
Wi

0101100
-72 0 +71 0 +120 0 +70 0 *
Fa
0  1e-07 53 0

0111000
-69 0 *
Ed
 1e-07 1 1 0
1  150 0 2.70526034059121 3.14159265358979
2  146 49 0 2.70526034059121 3.14159265358979
4 C0 49 0 46 0
0

0101000
+73 0 -141 0 *
Ed
 1e-07 1 1 0
1  151 0 0 0.436332312998586
2  147 49 0 0 0.436332312998586
4 C0 49 0 48 0
0

0101000
+139 0 -74 0 *
Wi

0101100
-67 0 -72 0 -66 0 +138 0 *
Fa
0  1e-07 49 0

0111000
+65 0 *
Ve
1e-07
28 -1.6 -15
0 0

0101101
*
Ed
 1e-07 1 1 0
1  152 0 1.5707963267949 3.14159265358979
2  148 55 0 1.5707963267949 3.14159265358979
4 C0 39 0 55 0
0

0101000
+114 0 -63 0 *
Ve
1e-07
4.5 -1.6 -15
0 0

0101101
*
Ed
 1e-07 1 1 0
1  153 0 -25.5 -2
4 C0 39 0 57 0
0

0101000
+61 0 -63 0 *
Ve
1e-07
4.5 -1.6 -8.5
0 0

0101101
*
Ed
 1e-07 1 1 0
1  154 0 0 6.5
4 C0 39 0 62 0
0

0101000
+61 0 -59 0 *
Ve
1e-07
3.5 -1.6 -7.5
0 0

0101101
*
Ed
 1e-07 1 1 0
1  155 0 4.71238898038469 6.28318530717959
2  149 61 0 4.71238898038469 6.28318530717959
4 C0 39 0 61 0
0

0101000
+59 0 -57 0 *
Ed
 1e-07 1 1 0
1  156 0 26.5 30
4 C0 39 0 48 0
0

0101000
+57 0 -151 0 *
Ve
1e-07
3.5 -1.6 7.5
0 0

0101101
*
Ed
 1e-07 1 1 0
1  157 0 -30 -26.5
4 C0 39 0 46 0
0

0101000
+150 0 -54 0 *
Ve
1e-07
4.5 -1.6 8.5
0 0

0101101
*
Ed
 1e-07 1 1 0
1  158 0 3.14159265358979 4.71238898038469
2  150 60 0 3.14159265358979 4.71238898038469
4 C0 39 0 60 0
0

0101000
+54 0 -52 0 *
Ve
1e-07
4.5 -1.6 15
0 0

0101101
*
Ed
 1e-07 1 1 0
1  159 0 23.5 30
4 C0 39 0 59 0
0

0101000
+52 0 -50 0 *
Ve
1e-07
28 -1.6 15
0 0

0101101
*
Ed
 1e-07 1 1 0
1  160 0 -25.5 -2
4 C0 39 0 58 0
0

0101000
+50 0 -48 0 *
Ed
 1e-07 1 1 0
1  161 0 0 1.5707963267949
2  151 56 0 0 1.5707963267949
4 C0 39 0 56 0
0

0101000
+48 0 -112 0 *
Wi

0101100
-111 0 +62 0 -60 0 +58 0 +56 0 +55 0 +149 0 +53 0 +51 0 +49 0 
+47 0 +46 0 *
Ed
 1e-07 1 1 0
1  162 0 0 3.14159265358979
2  152 38 0 0 3.14159265358979
4 C0 39 0 38 0
0

0101000
+180 0 -178 0 *
Wi

0101100
-44 0 -177 0 *
Ed
 1e-07 1 1 0
1  163 0 3.14159265358979 6.28318530717959
2  153 42 0 3.14159265358979 6.28318530717959
4 C0 39 0 42 0
0

0101000
+170 0 -168 0 *
Wi

0101100
-42 0 -167 0 *
Ed
 1e-07 1 1 0
1  164 0 0 3.14159265358979
2  154 44 0 0 3.14159265358979
4 C0 39 0 44 0
0

0101000
+160 0 -158 0 *
Wi

0101100
-40 0 -157 0 *
Fa
0  1e-07 39 0

0111000
-45 0 -43 0 -41 0 -39 0 *
Ed
 1e-07 1 1 0
1  165 0 -1.5 0
2  155 55 0 -1.5 0
4 G1 57 0 55 0
0

0101000
+63 0 -107 0 *
Ed
 1e-07 1 1 0
1  166 0 1.6 3.1
4 C0 57 0 62 0
0

0101000
+61 0 -106 0 *
Wi

0101100
+60 0 +37 0 +105 0 -36 0 *
Fa
0  1e-07 57 0

0111000
+35 0 *
Ed
 1e-07 1 1 0
1  167 0 -3.1 -1.6
2  156 56 0 -3.1 -1.6
4 G1 58 0 56 0
0

0101000
+103 0 -48 0 *
Ed
 1e-07 1 1 0
1  168 0 1.6 3.1
4 C0 58 0 59 0
0

0101000
+50 0 -101 0 *
Wi

0101100
-100 0 +33 0 -47 0 +32 0 *
Fa
0  1e-07 58 0

0111000
-31 0 *
Wi

0101100
-40 0 -159 0 +81 0 +155 0 *
Fa
0  1e-07 44 0

0111000
+29 0 *
Wi

0101100
-42 0 -169 0 +83 0 +165 0 *
Fa
0  1e-07 42 0

0111000
+27 0 *
Ed
 1e-07 1 1 0
1  169 0 8.5 10
2  157 60 0 8.5 10
4 C1 46 0 60 0
0

0101000
+97 0 -54 0 *
Wi

0101100
+25 0 -53 0 -147 0 -140 0 -67 0 -70 0 -121 0 -128 0 -77 0 -94 0 
*
Fa
0  1e-07 46 0

0111000
-24 0 *
Ed
 1e-07 1 1 0
1  170 0 8.5 10
2  158 60 0 8.5 10
4 C1 60 0 59 0
0

0101000
+99 0 -52 0 *
Wi

0101100
+96 0 +25 0 +51 0 -22 0 *
Fa
0  1e-07 60 0

0111000
+21 0 *
Wi

0101100
-32 0 -49 0 -22 0 -98 0 *
Fa
0  1e-07 59 0

0111000
-19 0 *
Ed
 1e-07 1 1 0
1  171 0 8.5 10
2  159 61 0 8.5 10
4 C1 61 0 62 0
0

0101000
+89 0 -59 0 *
Ed
 1e-07 1 1 0
1  172 0 8.5 10
2  160 61 0 8.5 10
4 C1 61 0 48 0
0

0101000
+91 0 -57 0 *
Wi

0101100
+88 0 +17 0 +56 0 -16 0 *
Fa
0  1e-07 61 0

0111000
+15 0 *
Wi

0101100
-123 0 -71 0 -66 0 -137 0 -144 0 -55 0 -16 0 -90 0 -78 0 -132 0 
*
Fa
0  1e-07 48 0

0111000
-13 0 *
Wi

0101100
+17 0 -58 0 +36 0 -87 0 *
Fa
0  1e-07 62 0

0111000
-11 0 *
Wi

0101100
-62 0 -113 0 -104 0 -37 0 *
Fa
0  1e-07 55 0

0111000
+9 0 *
Wi

0101100
-46 0 -33 0 -102 0 -110 0 *
Fa
0  1e-07 56 0

0111000
+7 0 *
Wi

0101100
-44 0 -179 0 +85 0 +175 0 *
Fa
0  1e-07 38 0

0111000
+5 0 *
Sh

0101100
-172 0 -162 0 -152 0 -142 0 -135 0 +125 0 +118 0 -108 0 -79 0 +75 0 
-68 0 -64 0 -38 0 +34 0 -30 0 -28 0 -26 0 -23 0 -20 0 -18 0 
-14 0 -12 0 -10 0 +8 0 +6 0 -4 0 *
So

0100000
+3 0 *
Co

1100000
+182 0 +2 0 *

+1 0 