DBRep_DrawableShape

CASCADE Topology V1, (c) Matra-Datavision
Locations 0
Curve2ds 114
7 0 0  3 25 23  6.0838480021972643 0  6.0838091652940252 0.046655350264450376  6.0825572251470899 0.1399729654480488  6.0764530597381272 0.27983049427619616  6.0656351955172942 0.41944426773692323  6.0488601449577724 0.55863770669095625  6.0239613121574829 0.69714881690170694  5.9871831381033598 0.83455520183065379  5.931034629433773 0.97005281186048242  5.8421756342253506 1.1021496207906196  5.6835633605604485 1.2268049565035883  5.3901633089703456 1.3351017597044135  4.7123889803846986 1.3896376528666539  4.0346146517990453 1.3351017597044161  3.7412146002089353 1.2268049565035903  3.5826023265440305 1.102149620790623  3.4937433313356121 0.97005281186048442  3.4375948226660213 0.83455520183065635  3.4008166486118974 0.69714881690170927  3.3759178158116092 0.55863770669095825  3.3591427652520851 0.41944426773692473  3.3483249010312517 0.27983049427619716  3.3422207356222926 0.13997296544804913  3.3409687954753555 0.046655350264450543  3.3409299585721159 1.2003963674810713e-16 
 0 4 0.14279966607226333 1 0.28559933214452665 1 0.42839899821678995 1 0.5711986642890533 1 0.71399833036131666 1 0.8567979964335799 1 0.99959766250584325 1 1.1423973285781066 1 1.2851969946503699 1 1.4279966607226333 1 1.5707963267948966 1 1.7135959928671598 1 1.8563956589394233 1 1.9991953250116865 1 2.14199499108395 1 2.2847946571562132 1 2.4275943232284765 1 2.5703939893007397 1 2.7131936553730034 1 2.8559933214452666 1 2.9987929875175299 1 3.1415926535897931 4
1 -8.8817841970012523e-16 4.1246107424598249e-16 1 -8.7526958398988459e-17 
1 -8.8817841970012523e-16 4.1246107424598249e-16 1 -8.7526958398988459e-17 
1 7.8539816339744819 0 -1 0 
1 7.8539816339744819 0 -1 0 
1 6.2831853071795862 31.5 -1 0 
1 0 -9.4205547521026673e-16 1 3.9982076145732913e-16 
1 3.1415926535897931 0 0 -1 
1 3.1415926535897931 0 0 -1 
1 -1.5707963267948966 30 1 0 
1 6.2831853071795862 0 0 -1 
1 0 0 0 -1 
1 0 -2.1213203435596428 1 0 
1 3.1415926535897931 6.6613381477509392e-15 0 1 
1 3.1415926535897931 6.6613381477509392e-15 0 1 
1 0 4.4408920985006262e-16 0 1 
1 6.2831853071795862 4.4408920985006262e-16 0 1 
1 10.995574287564276 24.000000000000011 -1 0 
1 3.1415926535897931 0 0 -1 
1 3.1415926535897931 0 0 -1 
1 1.5707963267948966 18 1 0 
1 6.2831853071795862 0 0 -1 
1 0 0 0 -1 
1 10.995574287564276 12 -1 0 
1 3.1415926535897931 0 0 -1 
1 3.1415926535897931 0 0 -1 
1 1.5707963267948966 6 1 0 
1 6.2831853071795862 0 0 -1 
1 0 0 0 -1 
1 -3.1415926535897931 0 1 0 
1 0 0 0 -1 
1 6.2831853071795862 0 0 -1 
1 -3.1415926535897931 -6 1 0 
1 1.5707963267948966 0 0 -1 
1 6.2831853071795862 -24.000000000000021 -1 2.2617277734851671e-15 
1 0 0 0 -1 
1 6.2831853071795862 0 0 -1 
1 -3.1415926535897931 -30 1 0 
1 1.5707963267948966 0 0 -1 
1 6.2831853071795862 -12 -1 0 
1 0 0 0 -1 
1 6.2831853071795862 0 0 -1 
1 -3.1415926535897931 -18 1 0 
1 1.5707963267948966 0 0 -1 
1 3.1415926535897931 -18 -1 0 
1 1.5707963267948966 0 0 -1 
1 -5.5511151231257827e-17 -12 1 0 
1 0.22409309230137159 0 0 -1 
1 3.3656857458911635 0 0 -1 
1 6.2831853071795862 -30 -1 0 
1 1.5707963267948966 0 0 -1 
1 -5.5511151231257827e-17 -24.000000000000011 1 0 
1 0.22409309230137159 0 0 -1 
1 3.3656857458911635 0 0 -1 
1 6.2831853071795862 -12 -1 0 
1 3.1415926535897931 -18 1 0 
1 6.2831853071795862 -24.000000000000007 -1 -1.2177255228897294e-15 
1 3.1415926535897931 -30 1 0 
1 1.5707963267948966 0 0 -1 
1 6.2831853071795862 0 -1 0 
1 0.22409309230137159 0 0 -1 
1 3.3656857458911635 0 0 -1 
1 3.1415926535897931 -6 -1 0 
1 3.1415926535897931 0 1 0 
1 3.1415926535897931 -6 1 0 
7 0 0  3 25 23  3.3409299585721159 1.2003963674810713e-16  3.3409687954753555 -0.0466553502644503  3.3422207356222917 -0.13997296544804885  3.3483249010312517 -0.27983049427619694  3.3591427652520851 -0.41944426773692439  3.3759178158116088 -0.5586377066909578  3.4008166486118978 -0.69714881690170916  3.4375948226660209 -0.83455520183065612  3.4937433313356112 -0.97005281186048409  3.5826023265440319 -1.1021496207906234  3.7412146002089357 -1.2268049565035903  4.0346146517990427 -1.3351017597044155  4.7123889803846986 -1.3896376528666539  5.3901633089703429 -1.3351017597044132  5.6835633605604476 -1.226804956503589  5.8421756342253506 -1.1021496207906201  5.9310346294337704 -0.97005281186048198  5.9871831381033598 -0.83455520183065446  6.0239613121574855 -0.69714881690170694  6.0488601449577715 -0.55863770669095658  6.065635195517296 -0.41944426773692328  6.0764530597381254 -0.27983049427619627  6.082557225147089 -0.13997296544804894  6.083809165294026 -0.046655350264450585  6.0838480021972643 -2.4007927349621347e-16 
 3.1415926535897931 4 3.2843923196620564 1 3.4271919857343196 1 3.5699916518065828 1 3.7127913178788465 1 3.8555909839511098 1 3.998390650023373 1 4.1411903160956367 1 4.2839899821678999 1 4.4267896482401632 1 4.5695893143124264 1 4.7123889803846897 1 4.8551886464569529 1 4.9979883125292162 1 5.1407879786014794 1 5.2835876446737426 1 5.4263873107460068 1 5.5691869768182691 1 5.7119866428905333 1 5.8547863089627965 1 5.9975859750350597 1 6.140385641107323 1 6.2831853071795862 4
1 -1.5707963267948966 30 1 0 
1 4.7123889803846897 24.000000000000011 -1 0 
1 -4.7123889803846897 18 1 0 
1 4.7123889803846897 12 -1 0 
1 -4.7123889803846897 6 1 0 
1 0 -2.1213203435596428 1 0 
1 0 1.5700924586837779e-15 1 -3.9982076145732913e-16 
1 6.2831853071795862 31.5 -1 0 
1 0 0 0 -1 
1 6.2831853071795862 0 0 -1 
1 3.1415926535897931 -12 -1 0 
1 3.1415926535897931 0 0 -1 
1 3.1415926535897931 0 0 -1 
1 0 -6 1 0 
1 0 0 0 -1 
1 6.2831853071795862 0 0 -1 
1 3.1415926535897931 -24 -1 0 
1 3.1415926535897931 0 0 -1 
1 3.1415926535897931 0 0 -1 
1 0 -18 1 0 
1 6.2831853071795862 -6 -1 0 
1 0 -8.8817841970012523e-16 0 -1 
1 6.2831853071795862 -8.8817841970012523e-16 0 -1 
1 -3.1415926535897931 -12 1 0 
1 1.5707963267948966 0 0 -1 
1 6.2831853071795862 -18 -1 0 
1 0 0 0 -1 
1 6.2831853071795862 0 0 -1 
1 -3.1415926535897931 -24 1 0 
1 1.5707963267948966 0 0 -1 
1 -4.7184478546569153e-16 -18 1 0 
1 0.22409309230137223 0 0 -1 
1 3.3656857458911631 0 0 -1 
1 3.1415926535897905 -24 -1 0 
1 1.5707963267948966 0 0 -1 
1 6.2831853071795862 -18 -1 0 
1 3.1415926535897931 -24 1 0 
1 1.5707963267948966 0 0 -1 
1 3.1415926535897905 -12 -1 0 
1 -3.6082248300317588e-16 -6.0000000000000009 1 6.5952052163456666e-16 
1 0.22409309230137223 -8.8817841970012523e-16 0 -1 
1 3.3656857458911631 0 0 -1 
1 6.2831853071795862 -6 -1 -3.0443138072243235e-16 
1 3.1415926535897931 -12 1 0 
1 0 -18 1 0 
1 9.4247779607693793 -12 -1 0 
1 9.4247779607693793 -24 -1 0 
1 0 -6 1 0 
Curves 140
2 0 6 -30 -0 6.3080853671884001e-16 -1 0 1 6.3080853671884001e-16 1 0 -0 5.4999999999999902
2 0 5.9999999999999902 -28.8888888888889 1 1.22464679914735e-16 5.3110588806519195e-32 -1.22464679914735e-16 1 0 -5.3110588806519195e-32 -6.504171258273481e-48 1 5.6111111111111098
2 0 5.9999999999999902 -28.8888888888889 -1 0 0 0 0 1 0 1 -0 5.6111111111111098
2 0 5.9999999999999902 1.5 -0 4.336808689942e-16 -1 0 1 4.336808689942e-16 1 0 -0 3.0000000000000102
1 3.6739403974420801e-16 2.9999999999999898 -30 -0 4.3368086899420202e-16 -1 
2 0 6 0 -0 0 1 1 0 0 0 1 -0 3
1 0 9.0000000000000107 -30 -0 4.3368086899420202e-16 -1 
2 0 5.9999999999999902 3 -0 5.7824115865893202e-16 -1 0 1 5.7824115865893202e-16 1 0 -0 1.50000000000001
1 3.6739403974420801e-16 2.9999999999999698 1.5 8.6595605623549501e-17 -0.70710678118654802 -0.70710678118654702 
1 0 9 1.5 0 0.70710678118654891 -0.70710678118654602 
2 0 6 -5.9999999999999902 0 4.1649719134918503e-33 -1 1 0 0 0 -1 -4.1649719134918503e-33 3
1 3.6739403974420801e-16 2.9999999999999898 -30 -0 4.3368086899420202e-16 -1 
2 0 6 -12 0 8.3299438269836897e-33 1 -1 0 0 0 -1 8.3299438269836897e-33 3
1 0 9.0000000000000107 -30 -0 4.3368086899420202e-16 -1 
2 0 6 -18 0 0 -1 1 0 0 0 -1 0 3
1 3.6739403974420801e-16 2.9999999999999898 -30 -0 4.3368086899420202e-16 -1 
2 0 6 -24 0 0 1 -1 0 0 0 -1 0 3
1 0 9.0000000000000107 -30 -0 4.3368086899420202e-16 -1 
2 0 6 -30 0 0 -1 -1 0 0 0 1 0 6
1 6 6 -30 0 0 1 
2 0 6 -24 0 0 -1 -1 0 0 0 1 0 6
1 0 0 -30 0 0 1 
2 0 6 -5.9999999999999902 1.4456028966473399e-16 -4.1649719134918503e-33 1 1 0 -1.4456028966473399e-16 6.0208954625986327e-49 1 4.1649719134918503e-33 6
1 6 6 -30 0 0 1 
2 0 6 0 0 0 -1 -1 0 0 0 1 0 6
1 0 0 -30 0 0 1 
2 0 6 -18 0 0 1 1 0 -0 -0 1 0 6
1 6 6 -30 0 0 1 
2 0 6 -12 2.8912057932946798e-16 -8.3299438269836897e-33 -1 -1 0 -2.8912057932946798e-16 2.4083581850394501e-48 1 -8.3299438269836897e-33 6
1 0 0 -30 0 0 1 
2 -8.7749643873921208 8 -12 0 8.3299438269836897e-33 1 -1 0 0 0 -1 8.3299438269836897e-33 3
1 -8.7749643873921208 5 -30 0 0 1 
2 -8.7749643873921208 8 -18 0 0 -1 1 0 0 0 -1 0 3
1 -5.8499762582614103 7.3333333333333304 -30 0 0 1 
2 -8.7749643873921208 8 0 0 0 1 1 0 -0 -0 1 0 3
1 -8.7749643873921208 5 -30 0 0 1 
2 -8.7749643873921208 8 -5.9999999999999902 0 4.1649719134918503e-33 -1 1 0 0 0 -1 -4.1649719134918503e-33 3
1 -5.8499762582614103 7.3333333333333304 -30 0 0 1 
2 0 6 -18 0 0 1 1 0 -0 -0 1 0 6
2 0 6 -12 2.8912057932946798e-16 -8.3299438269836897e-33 -1 -1 0 -2.8912057932946798e-16 2.4083581850394501e-48 1 -8.3299438269836897e-33 6
2 0 6 -5.9999999999999902 1.4456028966473399e-16 -4.1649719134918503e-33 1 1 0 -1.4456028966473399e-16 6.0208954625986327e-49 1 4.1649719134918503e-33 6
2 0 6 0 0 0 -1 -1 0 0 0 1 0 6
1 -30 0 0 0 1 0 
1 -30 5 -30 0 0 1 
1 -30 0 -30 0 1 0 
1 -30 0 -30 0 0 1 
1 -30 5 -18 -1 -4.0865030986010798e-17 0 
1 -9 5 -30 0 0 -1 
1 -30 5 -24 1 4.0865030986010798e-17 0 
1 -8.7749643873921208 5 -30 0 0 1 
1 -30 5 -30 1 4.0865030986010798e-17 0 
1 -30 5 0 1 4.0865030986010798e-17 0 
1 -30 5 -5.9999999999999902 -1 -4.0865030986010798e-17 1.15648231731787e-16 
1 -9 5 -30 0 0 -1 
1 -30 5 -12 1 4.0865030986010798e-17 2.31296463463574e-16 
2 -8.7749643873921208 8 -30 0 0 1 1 0 -0 -0 1 0 3
1 -5.8499762582614103 7.3333333333333304 -30 0 0 1 
2 -8.7749643873921208 8 -24 0 0 1 -1 0 0 0 -1 0 3
2 0 6 -30 0 0 -1 -1 0 0 0 1 0 6
2 0 6 -24 0 0 -1 -1 0 0 0 1 0 6
1 6 -8.6736173798840296e-16 -18 1 -0 -0 
1 6 -8.6736173798840296e-16 -12 -1 0 -2.31296463463574e-16 
1 -9 -8.6736173798840296e-16 -12 0 0 1 
1 6 -8.6736173798840296e-16 -5.9999999999999902 1 -0 -1.15648231731787e-16 
1 -30 0 0 1 0 0 
1 -30 0 -30 1 0 0 
1 6 -8.6736173798840296e-16 -24 -1 0 0 
1 -9 -8.6736173798840296e-16 -24 0 0 1 
2 0 6 -30 -0 6.3080853671884001e-16 -1 0 1 6.3080853671884001e-16 1 0 -0 5.4999999999999902
2 0 6 0 -0 0 1 1 0 0 0 1 -0 3
1 -9 -8.6736173798840296e-16 -5.9999999999999902 3.6014142638612098e-17 1 -0 
1 -9 -8.6736173798840296e-16 -12 3.6014142638612098e-17 1 -0 
2 0 6 -5.9999999999999902 0 4.1649719134918503e-33 -1 1 0 0 0 -1 -4.1649719134918503e-33 3
2 0 6 -12 0 8.3299438269836897e-33 1 -1 0 0 0 -1 8.3299438269836897e-33 3
1 -9 -8.6736173798840296e-16 -18 3.6014142638612098e-17 1 -0 
1 -9 -8.6736173798840296e-16 -24 3.6014142638612098e-17 1 -0 
2 0 6 -18 0 0 -1 1 0 0 0 -1 0 3
2 0 6 -24 0 0 1 -1 0 0 0 -1 0 3
2 0 5.9999999999999902 3 -0 5.7824115865893202e-16 -1 0 1 5.7824115865893202e-16 1 0 -0 1.50000000000001
2 0 5.9999999999999902 1.5 -0 4.336808689942e-16 -1 0 1 4.336808689942e-16 1 0 -0 3.0000000000000102
1 -3 5.9999999999999902 0 -9.9672616010539199e-17 1.9846618789266399e-17 -1 
2 -5.2993757735137696e-16 5.9999999999999902 -12 -9.9672616010539199e-17 1.9846618789266399e-17 -1 1 -2.2204460492503101e-16 -9.9672616010539199e-17 -2.2204460492503101e-16 -1 -1.9846618789266377e-17 3
1 3 5.9999999999999902 0 -9.9672616010539199e-17 1.9846618789266399e-17 -1 
2 6.8098118711858002e-17 5.9999999999999902 -6 9.9672616010539199e-17 -1.9846618789266399e-17 1 -1 2.2204460492503101e-16 9.9672616010539199e-17 -2.2204460492503101e-16 -1 -1.9846618789266377e-17 3
1 -3 5.9999999999999902 0 -9.9672616010539199e-17 1.9846618789266399e-17 -1 
2 -1.72600896947785e-15 5.9999999999999902 -24 -9.9672616010539199e-17 1.9846618789266399e-17 -1 1 -2.2204460492503101e-16 -9.9672616010539199e-17 -2.2204460492503101e-16 -1 -1.9846618789266377e-17 3
1 3 5.9999999999999902 0 -9.9672616010539199e-17 1.9846618789266399e-17 -1 
2 -1.1279732734146099e-15 5.9999999999999902 -18 9.9672616010539199e-17 -1.9846618789266399e-17 1 -1 2.2204460492503101e-16 9.9672616010539199e-17 -2.2204460492503101e-16 -1 -1.9846618789266377e-17 3
2 6.8098118711858002e-17 5.9999999999999902 -6 -9.9672616010539199e-17 1.9846618789266399e-17 -1 -1 2.2204460492503101e-16 9.9672616010539199e-17 2.2204460492503101e-16 1 1.9846618789266377e-17 6
1 -6 5.9999999999999902 0 -9.9672616010539199e-17 1.9846618789266399e-17 -1 
2 -5.2993757735137696e-16 5.9999999999999902 -12 9.9672616010539199e-17 -1.9846618789266399e-17 1 1 -2.2204460492503101e-16 -9.9672616010539199e-17 2.2204460492503101e-16 1 1.9846618789266377e-17 6
1 -6.6613381477509402e-16 -9.2690159435620305e-15 0 -9.9672616010539199e-17 1.9846618789266399e-17 -1 
2 -1.1279732734146099e-15 5.9999999999999902 -18 -9.9672616010539199e-17 1.9846618789266399e-17 -1 -1 2.2204460492503101e-16 9.9672616010539199e-17 2.2204460492503101e-16 1 1.9846618789266377e-17 6
1 -6 5.9999999999999902 0 -9.9672616010539199e-17 1.9846618789266399e-17 -1 
2 -1.72600896947785e-15 5.9999999999999902 -24 2.4423290567527302e-16 -1.9846618789266501e-17 1 1 -2.2204460492503101e-16 -2.4423290567527302e-16 2.2204460492503101e-16 1 1.9846618789266445e-17 6
1 -6.6613381477509402e-16 -9.2690159435620305e-15 0 -9.9672616010539199e-17 1.9846618789266399e-17 -1 
2 8.7749643873921208 7.9999999999999902 -18 9.9672616010539199e-17 -1.9846618789266399e-17 1 -1 2.2204460492503101e-16 9.9672616010539199e-17 -2.2204460492503101e-16 -1 -1.9846618789266377e-17 3
1 5.8499762582614201 7.3333333333333197 0 -9.9672616010539199e-17 1.9846618789266399e-17 -1 
2 8.7749643873921208 7.9999999999999902 -24 -9.9672616010539199e-17 1.9846618789266399e-17 -1 1 -2.2204460492503101e-16 -9.9672616010539199e-17 -2.2204460492503101e-16 -1 -1.9846618789266377e-17 3
1 8.7749643873921297 4.9999999999999902 0 -9.9672616010539199e-17 1.9846618789266399e-17 -1 
2 -1.1279732734146099e-15 5.9999999999999902 -18 -9.9672616010539199e-17 1.9846618789266399e-17 -1 -1 2.2204460492503101e-16 9.9672616010539199e-17 2.2204460492503101e-16 1 1.9846618789266377e-17 6
2 -1.72600896947785e-15 5.9999999999999902 -24 2.4423290567527302e-16 -1.9846618789266501e-17 1 1 -2.2204460492503101e-16 -2.4423290567527302e-16 2.2204460492503101e-16 1 1.9846618789266445e-17 6
1 30 -1.5334955527635e-14 -30 2.2204460492503101e-16 1 1.9846618789266399e-17 
1 30 4.9999999999999796 -3.5527136788005001e-15 -9.9672616010539199e-17 1.9846618789266399e-17 -1 
1 30 -1.5930354091313001e-14 -3.5527136788005001e-15 2.2204460492503101e-16 1 1.9846618789266399e-17 
1 30 -1.5930354091313001e-14 -3.5527136788005001e-15 -9.9672616010539199e-17 1.9846618789266399e-17 -1 
1 8.7749643873921297 4.9999999999999902 0 -9.9672616010539199e-17 1.9846618789266399e-17 -1 
1 30 4.9999999999999796 -6 1 -2.6290963591104198e-16 -9.9672616010539199e-17 
1 9 4.9999999999999902 0 9.9672616010539199e-17 -1.9846618789266399e-17 1 
1 30 4.9999999999999796 -3.5527136788005001e-15 -1 2.6290963591104198e-16 9.9672616010539199e-17 
1 30 4.9999999999999796 -30 -1 2.6290963591104198e-16 9.9672616010539199e-17 
1 9 4.9999999999999902 0 9.9672616010539199e-17 -1.9846618789266399e-17 1 
1 30 4.9999999999999796 -24 -1 2.6290963591104198e-16 2.15320847742326e-16 
1 30 4.9999999999999796 -18 1 -2.6290963591104198e-16 -9.9672616010539199e-17 
1 9 4.9999999999999902 0 9.9672616010539199e-17 -1.9846618789266399e-17 1 
1 30 4.9999999999999796 -12 -1 2.6290963591104198e-16 9.9672616010539199e-17 
2 8.7749643873921208 7.9999999999999902 -12 -9.9672616010539199e-17 1.9846618789266399e-17 -1 1 -2.2204460492503101e-16 -9.9672616010539199e-17 -2.2204460492503101e-16 -1 -1.9846618789266377e-17 3
2 8.7749643873921208 7.9999999999999902 -6 9.9672616010539199e-17 -1.9846618789266399e-17 1 -1 2.2204460492503101e-16 9.9672616010539199e-17 -2.2204460492503101e-16 -1 -1.9846618789266377e-17 3
1 5.8499762582614201 7.3333333333333197 0 -9.9672616010539199e-17 1.9846618789266399e-17 -1 
2 6.8098118711858002e-17 5.9999999999999902 -6 -9.9672616010539199e-17 1.9846618789266399e-17 -1 -1 2.2204460492503101e-16 9.9672616010539199e-17 2.2204460492503101e-16 1 1.9846618789266377e-17 6
2 -5.2993757735137696e-16 5.9999999999999902 -12 9.9672616010539199e-17 -1.9846618789266399e-17 1 1 -2.2204460492503101e-16 -9.9672616010539199e-17 2.2204460492503101e-16 1 1.9846618789266377e-17 6
1 -6 -8.6850303392646497e-15 -6 -1 2.2204460492503101e-16 9.9672616010539199e-17 
1 -6 -8.5659506265290501e-15 -12 1 -2.2204460492503101e-16 -9.9672616010539199e-17 
1 9 -1.1896619700404501e-14 -12 -9.9672616010539199e-17 1.9846618789266399e-17 -1 
1 -6 -8.4468709137934504e-15 -18 -1 2.2204460492503101e-16 9.9672616010539199e-17 
1 -6 -8.3277912010578492e-15 -24 1 -2.2204460492503101e-16 -2.15320847742326e-16 
1 9 -1.16584602749333e-14 -24 -9.9672616010539199e-17 1.9846618789266399e-17 -1 
1 30 -1.5334955527635e-14 -30 -1 2.2204460492503101e-16 9.9672616010539199e-17 
1 30 -1.5930354091313001e-14 -3.5527136788005001e-15 -1 2.2204460492503101e-16 9.9672616010539199e-17 
1 9 -1.21347791258757e-14 1.06581410364015e-14 -9.9672616010539199e-17 1.9846618789266399e-17 -1 
1 9 -1.21347791258757e-14 1.06581410364015e-14 1.8603046228641899e-16 1 1.9846618789266399e-17 
1 9 -1.15393805621977e-14 -30 1.8603046228641899e-16 1 1.9846618789266399e-17 
1 9 -1.17775399876689e-14 -18 1.8603046228641899e-16 1 1.9846618789266399e-17 
1 9 -1.1896619700404501e-14 -12 1.8603046228641899e-16 1 1.9846618789266399e-17 
2 -1.1279732734146099e-15 5.9999999999999902 -18 9.9672616010539199e-17 -1.9846618789266399e-17 1 -1 2.2204460492503101e-16 9.9672616010539199e-17 -2.2204460492503101e-16 -1 -1.9846618789266377e-17 3
2 -5.2993757735137696e-16 5.9999999999999902 -12 -9.9672616010539199e-17 1.9846618789266399e-17 -1 1 -2.2204460492503101e-16 -9.9672616010539199e-17 -2.2204460492503101e-16 -1 -1.9846618789266377e-17 3
2 -1.72600896947785e-15 5.9999999999999902 -24 -9.9672616010539199e-17 1.9846618789266399e-17 -1 1 -2.2204460492503101e-16 -9.9672616010539199e-17 -2.2204460492503101e-16 -1 -1.9846618789266377e-17 3
1 9 -1.16584602749333e-14 -24 1.8603046228641899e-16 1 1.9846618789266399e-17 
1 9 -1.20156994131401e-14 -6 1.8603046228641899e-16 1 1.9846618789266399e-17 
2 6.8098118711858002e-17 5.9999999999999902 -6 9.9672616010539199e-17 -1.9846618789266399e-17 1 -1 2.2204460492503101e-16 9.9672616010539199e-17 -2.2204460492503101e-16 -1 -1.9846618789266377e-17 3
Polygon3D 0
PolygonOnTriangulations 0
Surfaces 53
4 0 5.9999999999999902 -28.8888888888889 1 0 -0 0 1 6.1831727856599105e-16 0 -6.1831727856599105e-16 1 5.6111111111111098
1 -8.7749643873921208 8 -30 0 0 1 1 0 -0 -0 1 0 
4 0 5.9999999999999902 -28.8888888888889 1 0 -0 0 1 6.1831727856599105e-16 0 -6.1831727856599105e-16 1 5.6111111111111098
2 0 6 -30 0 -0 1 0 1 0 -1 0 0 3.0000000000000102
3 0 5.9999999999999902 1.5 -0 4.336808689942e-16 -1 0 1 4.336808689942e-16 1 0 -0 3.0000000000000102
0.78539816339745006
2 0 6 -30 0 -0 1 0 1 0 -1 0 0 3.0000000000000102
1 -8.7749643873921208 8 0 0 0 1 1 0 -0 -0 1 0 
1 0 7.4999999999999902 3 0 -4.3368086899420202e-16 1 0 -1 -4.3368086899420202e-16 1 0 0 
3 0 5.9999999999999902 1.5 -0 4.336808689942e-16 -1 0 1 4.336808689942e-16 1 0 -0 3.0000000000000102
0.78539816339745006
2 0 6 -30 0 -0 1 0 1 0 -1 0 0 3.0000000000000102
1 6 -8.6736173798840296e-16 -5.9999999999999902 1.15648231731787e-16 -4.1649719134918503e-33 1 1 0 -1.15648231731787e-16 4.8167163700788981e-49 1 4.1649719134918503e-33 
2 0 6 -30 0 -0 1 0 1 0 -1 0 0 3.0000000000000102
1 6 -8.6736173798840296e-16 -12 2.31296463463574e-16 -8.3299438269836897e-33 -1 0 -1 8.3299438269836897e-33 -1 -1.9266865480315568e-48 -2.31296463463574e-16 
2 0 6 -30 0 -0 1 0 1 0 -1 0 0 3.0000000000000102
1 6 -8.6736173798840296e-16 -18 0 0 1 1 0 -0 -0 1 0 
2 0 6 -30 0 -0 1 0 1 0 -1 0 0 3.0000000000000102
1 6 -8.6736173798840296e-16 -24 0 0 -1 0 -1 0 -1 -0 -0 
2 0 6 -30 0 0 -1 1 0 0 0 -1 0 6
2 0 6 -30 0 0 -1 1 0 0 0 -1 0 6
1 -30 0 -30 0 -1 0 0 0 -1 1 0 0 
2 0 6 -30 0 0 -1 1 0 0 0 -1 0 6
2 0 6 -30 0 0 -1 1 0 0 0 -1 0 6
2 0 6 -30 0 0 -1 1 0 0 0 -1 0 6
2 0 6 -30 0 0 -1 1 0 0 0 -1 0 6
2 -8.7749643873921208 8 -30 0 0 -1 1 0 0 0 -1 0 3
1 -30 5 -30 4.0865030986010798e-17 -1 0 0 0 -1 1 4.0865030986010798e-17 0 
2 -8.7749643873921208 8 -30 0 0 -1 1 0 0 0 -1 0 3
1 -30 0 -30 1 0 0 -0 1 0 0 -0 1 
1 -9 -8.6736173798840296e-16 -24 -1 3.6014142638612098e-17 0 0 0 1 3.6014142638612098e-17 1 -0 
2 -8.7749643873921208 8 -30 0 0 -1 1 0 0 0 -1 0 3
1 -9 -8.6736173798840296e-16 -12 -1 3.6014142638612098e-17 0 0 0 1 3.6014142638612098e-17 1 -0 
2 6.6613381477509304e-16 5.9999999999999902 0 9.9672616010539199e-17 -1.9846618789266399e-17 1 -1 2.2204460492503101e-16 9.9672616010539199e-17 -2.2204460492503101e-16 -1 -1.9846618789266377e-17 3
2 6.6613381477509304e-16 5.9999999999999902 0 9.9672616010539199e-17 -1.9846618789266399e-17 1 -1 2.2204460492503101e-16 9.9672616010539199e-17 -2.2204460492503101e-16 -1 -1.9846618789266377e-17 3
1 -6 -8.5659506265290501e-15 -12 9.9672616010539199e-17 -1.9846618789266399e-17 1 -2.2204460492503101e-16 -1 -1.9846618789266377e-17 1 -2.2204460492503101e-16 -9.9672616010539199e-17 
1 -6 -8.6850303392646497e-15 -6 -9.9672616010539199e-17 1.9846618789266399e-17 -1 -1 2.2204460492503101e-16 9.9672616010539199e-17 2.2204460492503101e-16 1 1.9846618789266377e-17 
2 6.6613381477509304e-16 5.9999999999999902 0 9.9672616010539199e-17 -1.9846618789266399e-17 1 -1 2.2204460492503101e-16 9.9672616010539199e-17 -2.2204460492503101e-16 -1 -1.9846618789266377e-17 3
2 6.6613381477509304e-16 5.9999999999999902 0 9.9672616010539199e-17 -1.9846618789266399e-17 1 -1 2.2204460492503101e-16 9.9672616010539199e-17 -2.2204460492503101e-16 -1 -1.9846618789266377e-17 3
1 -6 -8.3277912010578492e-15 -24 2.15320847742326e-16 -1.9846618789266501e-17 1 1 -2.2204460492503101e-16 -2.15320847742326e-16 2.2204460492503101e-16 1 1.9846618789266451e-17 
1 -6 -8.4468709137934504e-15 -18 -9.9672616010539199e-17 1.9846618789266399e-17 -1 -1 2.2204460492503101e-16 9.9672616010539199e-17 2.2204460492503101e-16 1 1.9846618789266377e-17 
2 6.6613381477509304e-16 5.9999999999999902 0 9.9672616010539199e-17 -1.9846618789266399e-17 1 -1 2.2204460492503101e-16 9.9672616010539199e-17 -2.2204460492503101e-16 -1 -1.9846618789266377e-17 6
2 6.6613381477509304e-16 5.9999999999999902 0 9.9672616010539199e-17 -1.9846618789266399e-17 1 -1 2.2204460492503101e-16 9.9672616010539199e-17 -2.2204460492503101e-16 -1 -1.9846618789266377e-17 6
1 30 -1.5930354091313001e-14 -3.5527136788005001e-15 -2.2204460492503101e-16 -1 -1.9846618789266399e-17 9.9672616010539199e-17 -1.9846618789266421e-17 1 -1 2.2204460492503101e-16 9.9672616010539199e-17 
2 6.6613381477509304e-16 5.9999999999999902 0 9.9672616010539199e-17 -1.9846618789266399e-17 1 -1 2.2204460492503101e-16 9.9672616010539199e-17 -2.2204460492503101e-16 -1 -1.9846618789266377e-17 6
2 6.6613381477509304e-16 5.9999999999999902 0 9.9672616010539199e-17 -1.9846618789266399e-17 1 -1 2.2204460492503101e-16 9.9672616010539199e-17 -2.2204460492503101e-16 -1 -1.9846618789266377e-17 6
2 8.7749643873921297 7.9999999999999902 0 9.9672616010539199e-17 -1.9846618789266399e-17 1 -1 2.2204460492503101e-16 9.9672616010539199e-17 -2.2204460492503101e-16 -1 -1.9846618789266377e-17 3
1 30 4.9999999999999796 -3.5527136788005001e-15 -2.6290963591104198e-16 -1 -1.9846618789266399e-17 9.9672616010539199e-17 -1.9846618789266427e-17 1 -1 2.6290963591104198e-16 9.9672616010539199e-17 
1 30 -1.5930354091313001e-14 -3.5527136788005001e-15 -1 2.2204460492503101e-16 9.9672616010539199e-17 2.2204460492503101e-16 1 1.9846618789266399e-17 -9.9672616010539199e-17 1.9846618789266421e-17 -1 
1 8.7749643873921208 7.9999999999999902 -30 -9.9672616010539199e-17 1.9846618789266399e-17 -1 -1 2.2204460492503101e-16 9.9672616010539199e-17 2.2204460492503101e-16 1 1.9846618789266377e-17 
1 8.7749643873921297 7.9999999999999902 0 -9.9672616010539199e-17 1.9846618789266399e-17 -1 -1 2.2204460492503101e-16 9.9672616010539199e-17 2.2204460492503101e-16 1 1.9846618789266377e-17 
2 8.7749643873921297 7.9999999999999902 0 9.9672616010539199e-17 -1.9846618789266399e-17 1 -1 2.2204460492503101e-16 9.9672616010539199e-17 -2.2204460492503101e-16 -1 -1.9846618789266377e-17 3
1 9 -1.21347791258757e-14 1.06581410364015e-14 1 -1.8603046228641899e-16 -9.9672616010539199e-17 -9.9672616010539199e-17 1.9846618789266399e-17 -1 1.8603046228641899e-16 1 1.9846618789266381e-17 
1 9 -1.16584602749333e-14 -24 1 -1.8603046228641899e-16 -9.9672616010539199e-17 -9.9672616010539199e-17 1.9846618789266399e-17 -1 1.8603046228641899e-16 1 1.9846618789266381e-17 
1 9 -1.1896619700404501e-14 -12 1 -1.8603046228641899e-16 -9.9672616010539199e-17 -9.9672616010539199e-17 1.9846618789266399e-17 -1 1.8603046228641899e-16 1 1.9846618789266381e-17 
Triangulations 0

TShapes 354
Ve
1e-07
0 11.5 -30
0 0

0101101
*
Ve
1e-07
6.73555739531043e-16 0.500000000000002 -30
0 0

0101101
*
Ed
 1e-07 1 1 0
1  1 0 0 3.14159265358979
2  1 1 0 0 3.14159265358979
4 C0 1 0 2 0
0

0101000
+354 0 -353 0 *
Ve
1e-07
0 5.99999999999999 -34.5
0 0

0101101
*
Ed
 1e-07 1 1 0
1  2 0 3.34092995857212 4.71238898038469
2  2 1 0 3.34092995857212 4.71238898038469
2  3 3 0 3.34092995857212 4.71238898038469
4 CN 1 0 3 0
0

0101000
+353 0 -351 0 *
Ed
 1e-07 1 1 0
1  3 0 1.77013363177722 3.14159265358979
2  4 1 0 1.77013363177722 3.14159265358979
2  5 3 0 1.77013363177722 3.14159265358979
4 CN 1 0 3 0
0

0101000
+354 0 -351 0 *
Wi

0101100
+352 0 +350 0 -349 0 *
Fa
0  1e-07 1 0

0111000
+348 0 *
Ve
1e-07
0 9 1.5
0 0

0101101
*
Ve
1e-07
3.67394039744208e-16 2.99999999999997 1.5
0 0

0101101
*
Ed
 1e-07 1 1 0
1  4 0 0 3.14159265358979
2  6 4 0 0 3.14159265358979
2  7 5 0 0 3.14159265358979
4 C0 4 0 5 0
0

0101000
+346 0 -345 0 *
Ve
1e-07
3.67394039744206e-16 3 0
0 0

0101101
*
Ed
 1e-07 1 1 0
1  5 0 -31.5 -30
2  8 4 0 -31.5 -30
2  9 6 0 -31.5 -30
4 CN 4 0 6 0
0

0101000
+345 0 -343 0 *
Ve
1e-07
0 9 0
0 0

0101101
*
Ed
 1e-07 1 1 0
1  6 0 4.71238898038469 7.85398163397448
2  10 4 0 4.71238898038469 7.85398163397448
4 C0 4 0 7 0
0

0101000
+343 0 -341 0 *
Ed
 1e-07 1 1 0
1  7 0 -31.5 -30
2  11 4 0 -31.5 -30
2  12 6 0 -31.5 -30
4 CN 4 0 6 0
0

0101000
+346 0 -341 0 *
Wi

0101100
+344 0 +342 0 +340 0 -339 0 *
Fa
0  1e-07 4 0

0111000
+338 0 *
Ve
1e-07
0 7.49999999999999 3
0 0

0101101
*
Ve
1e-07
2.75545529808156e-16 4.49999999999998 3
0 0

0101101
*
Ed
 1e-07 1 1 0
1  8 0 0 3.14159265358979
2  13 5 0 0 3.14159265358979
4 C0 5 0 8 0
0

0101000
+336 0 -335 0 *
Ed
 1e-07 1 1 0
1  9 0 -2.12132034355965 0
2  14 5 0 -2.12132034355965 0
2  15 9 0 -2.12132034355965 0
4 CN 5 0 9 0
0

0101000
+335 0 -345 0 *
Ed
 1e-07 1 1 0
1  10 0 -2.12132034355965 0
2  16 5 0 -2.12132034355965 0
2  17 9 0 -2.12132034355965 0
4 CN 5 0 9 0
0

0101000
+336 0 -346 0 *
Wi

0101100
+334 0 +333 0 -344 0 -332 0 *
Fa
0  1e-07 5 0

0111000
+331 0 *
Ve
1e-07
1.44501491102367e-48 9 -5.99999999999999
0 0

0101101
*
Ve
1e-07
3.67394039744206e-16 3 -5.99999999999999
0 0

0101101
*
Ed
 1e-07 1 1 0
1  11 0 4.71238898038469 7.85398163397448
2  18 10 0 4.71238898038469 7.85398163397448
4 C0 10 0 11 0
0

0101000
+329 0 -328 0 *
Ve
1e-07
3.67394039744206e-16 3 -12
0 0

0101101
*
Ed
 1e-07 1 1 0
1  12 0 -24 -18
2  19 10 0 -24 -18
2  20 12 0 -24 -18
4 CN 10 0 12 0
0

0101000
+328 0 -326 0 *
Ve
1e-07
5.78005964409468e-48 9 -12
0 0

0101101
*
Ed
 1e-07 1 1 0
1  13 0 1.5707963267949 4.71238898038469
2  21 10 0 1.5707963267949 4.71238898038469
4 C0 10 0 13 0
0

0101000
+326 0 -324 0 *
Ed
 1e-07 1 1 0
1  14 0 -24 -18
2  22 10 0 -24 -18
2  23 12 0 -24 -18
4 CN 10 0 12 0
0

0101000
+329 0 -324 0 *
Wi

0101100
+327 0 +325 0 +323 0 -322 0 *
Fa
0  1e-07 10 0

0111000
+321 0 *
Ve
1e-07
0 9 -18
0 0

0101101
*
Ve
1e-07
3.67394039744207e-16 3 -18
0 0

0101101
*
Ed
 1e-07 1 1 0
1  15 0 4.71238898038469 7.85398163397448
2  24 14 0 4.71238898038469 7.85398163397448
4 C0 14 0 15 0
0

0101000
+319 0 -318 0 *
Ve
1e-07
3.67394039744207e-16 3 -24
0 0

0101101
*
Ed
 1e-07 1 1 0
1  16 0 -12 -6
2  25 14 0 -12 -6
2  26 16 0 -12 -6
4 CN 14 0 16 0
0

0101000
+318 0 -316 0 *
Ve
1e-07
0 9 -24
0 0

0101101
*
Ed
 1e-07 1 1 0
1  17 0 1.5707963267949 4.71238898038469
2  27 14 0 1.5707963267949 4.71238898038469
4 C0 14 0 17 0
0

0101000
+316 0 -314 0 *
Ed
 1e-07 1 1 0
1  18 0 -12 -6
2  28 14 0 -12 -6
2  29 16 0 -12 -6
4 CN 14 0 16 0
0

0101000
+319 0 -314 0 *
Wi

0101100
+317 0 +315 0 +313 0 -312 0 *
Fa
0  1e-07 14 0

0111000
+311 0 *
Ve
1e-07
6 6 -30
0 0

0101101
*
Ve
1e-07
0 0 -30
0 0

0101101
*
Ed
 1e-07 1 1 0
1  19 0 3.14159265358979 4.71238898038469
2  30 18 0 3.14159265358979 4.71238898038469
4 C0 18 0 2 0
0

0101000
+309 0 -308 0 *
Ve
1e-07
6 6 -24
0 0

0101101
*
Ed
 1e-07 1 1 0
1  20 0 0 6
2  31 18 0 0 6
2  32 19 0 0 6
4 CN 18 0 19 0
0

0101000
+309 0 -306 0 *
Ve
1e-07
0 -8.67361737988403e-16 -24
0 0

0101101
*
Ed
 1e-07 1 1 0
1  21 0 3.14159265358979 4.71238898038469
2  33 18 0 3.14159265358979 4.71238898038469
4 C0 18 0 17 0
0

0101000
+306 0 -304 0 *
Ed
 1e-07 1 1 0
1  22 0 0 6
2  34 18 0 0 6
4 G1 18 0 20 0
0

0101000
+308 0 -304 0 *
Wi

0101100
-307 0 +305 0 +303 0 -302 0 *
Fa
0  1e-07 18 0

0111000
+301 0 *
Ve
1e-07
0 -8.67361737988403e-16 -5.99999999999999
0 0

0101101
*
Ve
1e-07
6 6 -5.99999999999999
0 0

0101101
*
Ed
 1e-07 1 1 0
1  23 0 4.71238898038469 6.28318530717959
2  35 21 0 4.71238898038469 6.28318530717959
4 C0 21 0 11 0
0

0101000
+299 0 -298 0 *
Ve
1e-07
6 6 0
0 0

0101101
*
Ed
 1e-07 1 1 0
1  24 0 24 30
2  36 21 0 24 30
2  37 22 0 24 30
4 CN 21 0 22 0
0

0101000
+298 0 -296 0 *
Ve
1e-07
0 0 0
0 0

0101101
*
Ed
 1e-07 1 1 0
1  25 0 3.14159265358979 4.71238898038469
2  38 21 0 3.14159265358979 4.71238898038469
4 C0 21 0 7 0
0

0101000
+296 0 -294 0 *
Ed
 1e-07 1 1 0
1  26 0 24 30
2  39 21 0 24 30
4 G1 21 0 20 0
0

0101000
+299 0 -294 0 *
Wi

0101100
+297 0 +295 0 +293 0 -292 0 *
Fa
0  1e-07 21 0

0111000
+291 0 *
Ve
1e-07
1.73472347597681e-15 -8.67361737988403e-16 -18
0 0

0101101
*
Ve
1e-07
6 6 -18
0 0

0101101
*
Ed
 1e-07 1 1 0
1  27 0 4.71238898038469 6.28318530717959
2  40 23 0 4.71238898038469 6.28318530717959
4 C0 23 0 15 0
0

0101000
+289 0 -288 0 *
Ve
1e-07
6 6 -12
0 0

0101101
*
Ed
 1e-07 1 1 0
1  28 0 12 18
2  41 23 0 12 18
2  42 24 0 12 18
4 CN 23 0 24 0
0

0101000
+288 0 -286 0 *
Ve
1e-07
1.73472347597681e-15 -8.67361737988403e-16 -12
0 0

0101101
*
Ed
 1e-07 1 1 0
1  29 0 3.14159265358979 4.71238898038469
2  43 23 0 3.14159265358979 4.71238898038469
4 C0 23 0 13 0
0

0101000
+286 0 -284 0 *
Ed
 1e-07 1 1 0
1  30 0 12 18
2  44 23 0 12 18
4 G1 23 0 20 0
0

0101000
+289 0 -284 0 *
Wi

0101100
+287 0 +285 0 +283 0 -282 0 *
Fa
0  1e-07 23 0

0111000
+281 0 *
Ve
1e-07
-8.77496438739212 5 -12
0 0

0101101
*
Ve
1e-07
-5.84997625826141 7.33333333333333 -12
0 0

0101101
*
Ed
 1e-07 1 1 0
1  31 0 1.5707963267949 2.91749956128842
2  45 25 0 1.5707963267949 2.91749956128842
4 C0 25 0 13 0
0

0101000
+279 0 -278 0 *
Ve
1e-07
-8.77496438739212 5 -18
0 0

0101101
*
Ed
 1e-07 1 1 0
1  32 0 12 18
2  46 25 0 12 18
4 G1 25 0 26 0
0

0101000
+276 0 -279 0 *
Ve
1e-07
-5.84997625826141 7.33333333333333 -18
0 0

0101101
*
Ed
 1e-07 1 1 0
1  33 0 0.224093092301372 1.5707963267949
2  47 25 0 0.224093092301372 1.5707963267949
4 C0 25 0 15 0
0

0101000
+274 0 -276 0 *
Ed
 1e-07 1 1 0
1  34 0 12 18
2  48 25 0 12 18
2  49 24 0 12 18
4 G1 25 0 24 0
0

0101000
+274 0 -278 0 *
Wi

0101100
-277 0 -275 0 -273 0 +272 0 *
Fa
0  1e-07 25 0

0111000
+271 0 *
Ve
1e-07
-8.77496438739212 5 0
0 0

0101101
*
Ve
1e-07
-5.84997625826141 7.33333333333333 0
0 0

0101101
*
Ed
 1e-07 1 1 0
1  35 0 4.71238898038469 6.05909221487821
2  50 27 0 4.71238898038469 6.05909221487821
4 C0 27 0 7 0
0

0101000
+269 0 -268 0 *
Ve
1e-07
-8.77496438739212 5 -5.99999999999999
0 0

0101101
*
Ed
 1e-07 1 1 0
1  36 0 24 30
2  51 27 0 24 30
4 G1 27 0 26 0
0

0101000
+266 0 -269 0 *
Ve
1e-07
-5.84997625826141 7.33333333333333 -5.99999999999999
0 0

0101101
*
Ed
 1e-07 1 1 0
1  37 0 0.224093092301372 1.5707963267949
2  52 27 0 0.224093092301372 1.5707963267949
4 C0 27 0 11 0
0

0101000
+264 0 -266 0 *
Ed
 1e-07 1 1 0
1  38 0 24 30
2  53 27 0 24 30
2  54 22 0 24 30
4 G1 27 0 22 0
0

0101000
+264 0 -268 0 *
Wi

0101100
-267 0 -265 0 -263 0 +262 0 *
Fa
0  1e-07 27 0

0111000
+261 0 *
Ed
 1e-07 1 1 0
1  39 0 0 2.91749956128842
2  55 24 0 0 2.91749956128842
4 C0 24 0 15 0
0

0101000
+288 0 -274 0 *
Ed
 1e-07 1 1 0
1  40 0 0.224093092301371 3.14159265358979
2  56 24 0 0.224093092301371 3.14159265358979
4 C0 24 0 13 0
0

0101000
+278 0 -286 0 *
Wi

0101100
-285 0 +259 0 +272 0 +258 0 *
Fa
0  1e-07 24 0

0111000
+257 0 *
Ed
 1e-07 1 1 0
1  41 0 0 2.91749956128842
2  57 22 0 0 2.91749956128842
4 C0 22 0 11 0
0

0101000
+298 0 -264 0 *
Ed
 1e-07 1 1 0
1  42 0 0.224093092301371 3.14159265358979
2  58 22 0 0.224093092301371 3.14159265358979
4 C0 22 0 7 0
0

0101000
+268 0 -296 0 *
Wi

0101100
-295 0 +255 0 +262 0 +254 0 *
Fa
0  1e-07 22 0

0111000
+253 0 *
Ve
1e-07
-30 0 0
0 0

0101101
*
Ve
1e-07
-30 5 0
0 0

0101101
*
Ed
 1e-07 1 1 0
1  43 0 0 5
4 C0 28 0 7 0
0

0101000
+251 0 -250 0 *
Ve
1e-07
-30 5 -30
0 0

0101101
*
Ed
 1e-07 1 1 0
1  44 0 0 30
4 C0 28 0 26 0
0

0101000
+248 0 -250 0 *
Ve
1e-07
-30 0 -30
0 0

0101101
*
Ed
 1e-07 1 1 0
1  45 0 0 5
4 C0 28 0 2 0
0

0101000
+246 0 -248 0 *
Ed
 1e-07 1 1 0
1  46 0 0 30
4 C0 28 0 20 0
0

0101000
+246 0 -251 0 *
Wi

0101100
+249 0 -247 0 -245 0 +244 0 *
Fa
0  1e-07 28 0

0111000
-243 0 *
Ve
1e-07
-9 5 -18
0 0

0101101
*
Ed
 1e-07 1 1 0
1  47 0 -21.2250356126079 -21
4 C0 26 0 15 0
0

0101000
+276 0 -241 0 *
Ve
1e-07
-9 5 -24
0 0

0101101
*
Ed
 1e-07 1 1 0
1  48 0 -12 -6
4 C0 26 0 29 0
0

0101000
+241 0 -239 0 *
Ve
1e-07
-8.77496438739212 5 -24
0 0

0101101
*
Ed
 1e-07 1 1 0
1  49 0 21 21.2250356126079
4 C0 26 0 17 0
0

0101000
+239 0 -237 0 *
Ve
1e-07
-8.77496438739212 5 -30
0 0

0101101
*
Ed
 1e-07 1 1 0
1  50 0 0 6
2  59 30 0 0 6
4 G1 26 0 30 0
0

0101000
+235 0 -237 0 *
Ed
 1e-07 1 1 0
1  51 0 0 21.2250356126079
4 C0 26 0 2 0
0

0101000
+248 0 -235 0 *
Ed
 1e-07 1 1 0
1  52 0 0 21.2250356126079
4 C0 26 0 7 0
0

0101000
+250 0 -269 0 *
Ve
1e-07
-9 5 -5.99999999999999
0 0

0101101
*
Ed
 1e-07 1 1 0
1  53 0 -21.2250356126079 -21
4 C0 26 0 11 0
0

0101000
+266 0 -231 0 *
Ve
1e-07
-9 5 -12
0 0

0101101
*
Ed
 1e-07 1 1 0
1  54 0 -24 -18
4 C0 26 0 31 0
0

0101000
+231 0 -229 0 *
Ed
 1e-07 1 1 0
1  55 0 21 21.2250356126079
4 C0 26 0 13 0
0

0101000
+229 0 -279 0 *
Wi

0101100
-275 0 +240 0 +238 0 +236 0 -234 0 -233 0 +247 0 +232 0 -265 0 +230 0 
+228 0 +227 0 *
Fa
0  1e-07 26 0

0111000
-226 0 *
Ve
1e-07
-5.84997625826141 7.33333333333333 -30
0 0

0101101
*
Ed
 1e-07 1 1 0
1  56 0 4.71238898038469 6.05909221487821
2  60 30 0 4.71238898038469 6.05909221487821
4 C0 30 0 2 0
0

0101000
+235 0 -224 0 *
Ve
1e-07
-5.84997625826141 7.33333333333333 -24
0 0

0101101
*
Ed
 1e-07 1 1 0
1  57 0 0 6
2  61 30 0 0 6
2  62 19 0 0 6
4 G1 30 0 19 0
0

0101000
+224 0 -222 0 *
Ed
 1e-07 1 1 0
1  58 0 1.5707963267949 2.91749956128842
2  63 30 0 1.5707963267949 2.91749956128842
4 C0 30 0 17 0
0

0101000
+237 0 -222 0 *
Wi

0101100
+223 0 +221 0 -220 0 -234 0 *
Fa
0  1e-07 30 0

0111000
+219 0 *
Ed
 1e-07 1 1 0
1  59 0 0.224093092301371 3.14159265358979
2  64 19 0 0.224093092301371 3.14159265358979
4 C0 19 0 2 0
0

0101000
+224 0 -309 0 *
Ed
 1e-07 1 1 0
1  60 0 0.224093092301371 3.14159265358979
2  65 19 0 0.224093092301371 3.14159265358979
4 C0 19 0 17 0
0

0101000
+222 0 -306 0 *
Wi

0101100
-305 0 -217 0 +221 0 +216 0 *
Fa
0  1e-07 19 0

0111000
+215 0 *
Ve
1e-07
-9 -8.67361737988403e-16 -18
0 0

0101101
*
Ed
 1e-07 1 1 0
1  61 0 -15 -6
4 C0 20 0 15 0
0

0101000
+213 0 -289 0 *
Ve
1e-07
-9 0 -12
0 0

0101101
*
Ed
 1e-07 1 1 0
1  62 0 6 15
4 C0 20 0 13 0
0

0101000
+284 0 -211 0 *
Ve
1e-07
-9 -8.67361737988403e-16 -5.99999999999999
0 0

0101101
*
Ed
 1e-07 1 1 0
1  63 0 0 6.00000000000001
4 C0 20 0 31 0
0

0101000
+211 0 -209 0 *
Ed
 1e-07 1 1 0
1  64 0 -15 -6
4 C0 20 0 11 0
0

0101000
+209 0 -299 0 *
Ed
 1e-07 1 1 0
1  65 0 0 30
4 C0 20 0 7 0
0

0101000
+251 0 -294 0 *
Ed
 1e-07 1 1 0
1  66 0 0 30
4 C0 20 0 2 0
0

0101000
+246 0 -308 0 *
Ve
1e-07
-9 0 -24
0 0

0101101
*
Ed
 1e-07 1 1 0
1  67 0 6 15
4 C0 20 0 17 0
0

0101000
+304 0 -204 0 *
Ed
 1e-07 1 1 0
1  68 0 0 6
4 C0 20 0 29 0
0

0101000
+204 0 -213 0 *
Wi

0101100
+212 0 +282 0 +210 0 +208 0 +207 0 +292 0 -206 0 -244 0 +205 0 +302 0 
+203 0 +202 0 *
Fa
0  1e-07 20 0

0111000
+201 0 *
Wi

0101100
+245 0 +233 0 +223 0 +217 0 +307 0 -205 0 *
Ed
 1e-07 1 1 0
1  69 0 3.14159265358979 6.28318530717959
2  66 3 0 3.14159265358979 6.28318530717959
4 C0 2 0 3 0
0

0101000
+353 0 -354 0 *
Wi

0101100
-352 0 -198 0 *
Fa
0  1e-07 2 0

0111000
-199 0 -197 0 *
Wi

0101100
-249 0 +206 0 -293 0 -254 0 -267 0 -232 0 *
Ed
 1e-07 1 1 0
1  70 0 1.5707963267949 4.71238898038469
2  67 6 0 1.5707963267949 4.71238898038469
4 C0 7 0 6 0
0

0101000
+341 0 -343 0 *
Wi

0101100
-194 0 -340 0 *
Fa
0  1e-07 7 0

0111000
+195 0 +193 0 *
Ed
 1e-07 1 1 0
1  71 0 0 5
4 C0 31 0 11 0
0

0101000
+209 0 -231 0 *
Ed
 1e-07 1 1 0
1  72 0 8.67361737988403e-16 5
4 C0 31 0 13 0
0

0101000
+211 0 -229 0 *
Wi

0101100
-191 0 -208 0 +190 0 -228 0 *
Fa
0  1e-07 31 0

0111000
-189 0 *
Wi

0101100
-263 0 -255 0 -297 0 -207 0 +191 0 -230 0 *
Ed
 1e-07 1 1 0
1  73 0 1.5707963267949 4.71238898038469
2  68 12 0 1.5707963267949 4.71238898038469
4 C0 11 0 12 0
0

0101000
+328 0 -329 0 *
Wi

0101100
-327 0 -186 0 *
Fa
0  1e-07 11 0

0111000
-187 0 -185 0 *
Wi

0101100
-258 0 -277 0 -227 0 -190 0 -210 0 -283 0 *
Ed
 1e-07 1 1 0
1  74 0 4.71238898038469 7.85398163397448
2  69 12 0 4.71238898038469 7.85398163397448
4 C0 13 0 12 0
0

0101000
+324 0 -326 0 *
Wi

0101100
-182 0 -323 0 *
Fa
0  1e-07 13 0

0111000
-183 0 -181 0 *
Ed
 1e-07 1 1 0
1  75 0 0 5
4 C0 29 0 15 0
0

0101000
+213 0 -241 0 *
Ed
 1e-07 1 1 0
1  76 0 8.67361737988403e-16 5
4 C0 29 0 17 0
0

0101000
+204 0 -239 0 *
Wi

0101100
-179 0 -202 0 +178 0 -238 0 *
Fa
0  1e-07 29 0

0111000
-177 0 *
Wi

0101100
-273 0 -259 0 -287 0 -212 0 +179 0 -240 0 *
Ed
 1e-07 1 1 0
1  77 0 1.5707963267949 4.71238898038469
2  70 16 0 1.5707963267949 4.71238898038469
4 C0 15 0 16 0
0

0101000
+318 0 -319 0 *
Wi

0101100
-317 0 -174 0 *
Fa
0  1e-07 15 0

0111000
-175 0 -173 0 *
Wi

0101100
-216 0 -220 0 -236 0 -178 0 -203 0 -303 0 *
Ed
 1e-07 1 1 0
1  78 0 4.71238898038469 7.85398163397448
2  71 16 0 4.71238898038469 7.85398163397448
4 C0 17 0 16 0
0

0101000
+314 0 -316 0 *
Wi

0101100
-170 0 -313 0 *
Fa
0  1e-07 17 0

0111000
-171 0 -169 0 *
Wi

0101100
-315 0 +174 0 +312 0 +170 0 *
Fa
0  1e-07 16 0

0111000
+167 0 *
Wi

0101100
-325 0 +186 0 +322 0 +182 0 *
Fa
0  1e-07 12 0

0111000
+165 0 *
Ed
 1e-07 1 1 0
1  79 0 3.14159265358979 6.28318530717959
2  72 9 0 3.14159265358979 6.28318530717959
4 C0 9 0 8 0
0

0101000
+335 0 -336 0 *
Ed
 1e-07 1 1 0
1  80 0 3.14159265358979 6.28318530717959
2  73 9 0 3.14159265358979 6.28318530717959
2  74 6 0 3.14159265358979 6.28318530717959
4 C0 9 0 6 0
0

0101000
+345 0 -346 0 *
Wi

0101100
-333 0 +163 0 +332 0 -162 0 *
Fa
0  1e-07 9 0

0111000
+161 0 *
Wi

0101100
-334 0 -163 0 *
Fa
0  1e-07 8 0

0111000
+159 0 *
Wi

0101100
-342 0 +162 0 +339 0 +194 0 *
Fa
0  1e-07 6 0

0111000
+157 0 *
Wi

0101100
-350 0 +198 0 +349 0 *
Fa
0  1e-07 3 0

0111000
+155 0 *
Sh

0101100
+347 0 +337 0 +330 0 +320 0 +310 0 +300 0 +290 0 +280 0 -270 0 -260 0 
+256 0 +252 0 -242 0 -225 0 -218 0 +214 0 +200 0 -196 0 +192 0 -188 0 
-184 0 -180 0 -176 0 -172 0 -168 0 +166 0 +164 0 +160 0 +158 0 +156 0 
+154 0 *
So

0100000
+153 0 *
Ve
1e-07
-3 5.99999999999999 -6
0 0

0101101
*
Ve
1e-07
-3 5.99999999999999 -12
0 0

0101101
*
Ed
 1e-07 1 1 0
1  81 0 6 12
2  75 32 0 6 12
2  76 33 0 6 12
4 CN 32 0 33 0
0

0101000
+151 0 -150 0 *
Ve
1e-07
3 5.99999999999999 -12
0 0

0101101
*
Ed
 1e-07 1 1 0
1  82 0 0 3.14159265358979
2  77 32 0 0 3.14159265358979
4 C0 32 0 34 0
0

0101000
+148 0 -150 0 *
Ve
1e-07
3 5.99999999999999 -6
0 0

0101101
*
Ed
 1e-07 1 1 0
1  83 0 6 12
2  78 32 0 6 12
2  79 33 0 6 12
4 CN 32 0 33 0
0

0101000
+146 0 -148 0 *
Ed
 1e-07 1 1 0
1  84 0 0 3.14159265358979
2  80 32 0 0 3.14159265358979
4 C0 32 0 35 0
0

0101000
+151 0 -146 0 *
Wi

0101100
+149 0 -147 0 -145 0 -144 0 *
Fa
0  1e-07 32 0

0111000
+143 0 *
Ve
1e-07
-3 5.99999999999999 -18
0 0

0101101
*
Ve
1e-07
-3 5.99999999999999 -24
0 0

0101101
*
Ed
 1e-07 1 1 0
1  85 0 18 24
2  81 36 0 18 24
2  82 37 0 18 24
4 CN 36 0 37 0
0

0101000
+141 0 -140 0 *
Ve
1e-07
3 5.99999999999999 -24
0 0

0101101
*
Ed
 1e-07 1 1 0
1  86 0 0 3.14159265358979
2  83 36 0 0 3.14159265358979
4 C0 36 0 38 0
0

0101000
+138 0 -140 0 *
Ve
1e-07
3 5.99999999999999 -18
0 0

0101101
*
Ed
 1e-07 1 1 0
1  87 0 18 24
2  84 36 0 18 24
2  85 37 0 18 24
4 CN 36 0 37 0
0

0101000
+136 0 -138 0 *
Ed
 1e-07 1 1 0
1  88 0 0 3.14159265358979
2  86 36 0 0 3.14159265358979
4 C0 36 0 39 0
0

0101000
+141 0 -136 0 *
Wi

0101100
+139 0 -137 0 -135 0 -134 0 *
Fa
0  1e-07 36 0

0111000
+133 0 *
Ve
1e-07
-1.26416951083833e-15 -1.00172979688148e-14 -6
0 0

0101101
*
Ve
1e-07
-6 5.99999999999999 -6
0 0

0101101
*
Ed
 1e-07 1 1 0
1  89 0 4.71238898038469 6.28318530717959
2  87 40 0 4.71238898038469 6.28318530717959
4 C0 40 0 35 0
0

0101000
+131 0 -130 0 *
Ve
1e-07
-6 5.99999999999999 -12
0 0

0101101
*
Ed
 1e-07 1 1 0
1  90 0 6 12
2  88 40 0 6 12
2  89 41 0 6 12
4 CN 40 0 41 0
0

0101000
+130 0 -128 0 *
Ve
1e-07
-1.86220520690156e-15 -9.89821825607923e-15 -12
0 0

0101101
*
Ed
 1e-07 1 1 0
1  91 0 3.14159265358979 4.71238898038469
2  90 40 0 3.14159265358979 4.71238898038469
4 C0 40 0 34 0
0

0101000
+128 0 -126 0 *
Ed
 1e-07 1 1 0
1  92 0 6 12
2  91 40 0 6 12
4 G1 40 0 42 0
0

0101000
+131 0 -126 0 *
Wi

0101100
+129 0 +127 0 +125 0 -124 0 *
Fa
0  1e-07 40 0

0111000
+123 0 *
Ve
1e-07
-2.4602409029648e-15 -9.77913854334364e-15 -18
0 0

0101101
*
Ve
1e-07
-6 5.99999999999999 -18
0 0

0101101
*
Ed
 1e-07 1 1 0
1  93 0 4.71238898038469 6.28318530717959
2  92 43 0 4.71238898038469 6.28318530717959
4 C0 43 0 39 0
0

0101000
+121 0 -120 0 *
Ve
1e-07
-6 5.99999999999999 -24
0 0

0101101
*
Ed
 1e-07 1 1 0
1  94 0 18 24
2  93 43 0 18 24
2  94 44 0 18 24
4 CN 43 0 44 0
0

0101000
+120 0 -118 0 *
Ve
1e-07
-4.79300007500484e-15 -9.66005883060804e-15 -24
0 0

0101101
*
Ed
 1e-07 1 1 0
1  95 0 3.14159265358979 4.71238898038469
2  95 43 0 3.14159265358979 4.71238898038469
4 C0 43 0 38 0
0

0101000
+118 0 -116 0 *
Ed
 1e-07 1 1 0
1  96 0 18 24
2  96 43 0 18 24
4 G1 43 0 42 0
0

0101000
+121 0 -116 0 *
Wi

0101100
+119 0 +117 0 +115 0 -114 0 *
Fa
0  1e-07 43 0

0111000
+113 0 *
Ve
1e-07
5.84997625826141 7.33333333333332 -18
0 0

0101101
*
Ve
1e-07
8.77496438739212 4.99999999999999 -18
0 0

0101101
*
Ed
 1e-07 1 1 0
1  97 0 0.224093092301372 1.5707963267949
2  97 45 0 0.224093092301372 1.5707963267949
4 C0 45 0 39 0
0

0101000
+111 0 -110 0 *
Ve
1e-07
5.84997625826141 7.33333333333332 -24
0 0

0101101
*
Ed
 1e-07 1 1 0
1  98 0 18 24
2  98 45 0 18 24
2  99 44 0 18 24
4 G1 45 0 44 0
0

0101000
+111 0 -108 0 *
Ve
1e-07
8.77496438739212 4.99999999999999 -24
0 0

0101101
*
Ed
 1e-07 1 1 0
1  99 0 1.5707963267949 2.91749956128842
2  100 45 0 1.5707963267949 2.91749956128842
4 C0 45 0 38 0
0

0101000
+106 0 -108 0 *
Ed
 1e-07 1 1 0
1  100 0 18 24
2  101 45 0 18 24
4 G1 45 0 46 0
0

0101000
+110 0 -106 0 *
Wi

0101100
-109 0 +107 0 -105 0 -104 0 *
Fa
0  1e-07 45 0

0111000
+103 0 *
Ed
 1e-07 1 1 0
1  101 0 0 2.91749956128842
2  102 44 0 0 2.91749956128842
4 C0 44 0 39 0
0

0101000
+120 0 -111 0 *
Ed
 1e-07 1 1 0
1  102 0 0.224093092301371 3.14159265358979
2  103 44 0 0.224093092301371 3.14159265358979
4 C0 44 0 38 0
0

0101000
+108 0 -118 0 *
Wi

0101100
-117 0 +101 0 +107 0 +100 0 *
Fa
0  1e-07 44 0

0111000
+99 0 *
Ve
1e-07
30 -1.5334955527635e-14 -30
0 0

0101101
*
Ve
1e-07
30 4.99999999999998 -30
0 0

0101101
*
Ed
 1e-07 1 1 0
1  103 0 0 4.99999999999999
4 C0 47 0 48 0
0

0101000
+97 0 -96 0 *
Ve
1e-07
30 4.99999999999998 -3.5527136788005e-15
0 0

0101101
*
Ed
 1e-07 1 1 0
1  104 0 0 30
4 C0 47 0 46 0
0

0101000
+94 0 -96 0 *
Ve
1e-07
30 -1.5930354091313e-14 -3.5527136788005e-15
0 0

0101101
*
Ed
 1e-07 1 1 0
1  105 0 0 5
4 C0 47 0 49 0
0

0101000
+92 0 -94 0 *
Ed
 1e-07 1 1 0
1  106 0 0 30
4 C0 47 0 42 0
0

0101000
+92 0 -97 0 *
Wi

0101100
+95 0 -93 0 -91 0 +90 0 *
Fa
0  1e-07 47 0

0111000
-89 0 *
Ve
1e-07
8.77496438739212 4.99999999999999 -6
0 0

0101101
*
Ve
1e-07
8.77496438739212 4.99999999999999 -12
0 0

0101101
*
Ed
 1e-07 1 1 0
1  107 0 6 12
2  104 50 0 6 12
4 G1 46 0 50 0
0

0101000
+87 0 -86 0 *
Ve
1e-07
9 4.99999999999999 -6
0 0

0101101
*
Ed
 1e-07 1 1 0
1  108 0 -21.2250356126079 -21
4 C0 46 0 35 0
0

0101000
+87 0 -84 0 *
Ve
1e-07
9 4.99999999999998 1.06581410364015e-14
0 0

0101101
*
Ed
 1e-07 1 1 0
1  109 0 -6 1.06581410364015e-14
4 C0 46 0 51 0
0

0101000
+84 0 -82 0 *
Ed
 1e-07 1 1 0
1  110 0 0 21
4 C0 46 0 49 0
0

0101000
+94 0 -82 0 *
Ve
1e-07
9 4.99999999999999 -30
0 0

0101101
*
Ed
 1e-07 1 1 0
1  111 0 0 21
4 C0 46 0 48 0
0

0101000
+96 0 -79 0 *
Ve
1e-07
9 4.99999999999999 -24
0 0

0101101
*
Ed
 1e-07 1 1 0
1  112 0 -30 -24
4 C0 46 0 52 0
0

0101000
+79 0 -77 0 *
Ed
 1e-07 1 1 0
1  113 0 21 21.2250356126079
4 C0 46 0 38 0
0

0101000
+77 0 -106 0 *
Ve
1e-07
9 4.99999999999999 -18
0 0

0101101
*
Ed
 1e-07 1 1 0
1  114 0 -21.2250356126079 -21
4 C0 46 0 39 0
0

0101000
+110 0 -74 0 *
Ve
1e-07
9 4.99999999999999 -12
0 0

0101101
*
Ed
 1e-07 1 1 0
1  115 0 -18 -12
4 C0 46 0 53 0
0

0101000
+74 0 -72 0 *
Ed
 1e-07 1 1 0
1  116 0 21 21.2250356126079
4 C0 46 0 34 0
0

0101000
+72 0 -86 0 *
Wi

0101100
-85 0 +83 0 +81 0 -80 0 +93 0 +78 0 +76 0 +75 0 -104 0 +73 0 
+71 0 +70 0 *
Fa
0  1e-07 46 0

0111000
-69 0 *
Ve
1e-07
5.84997625826141 7.33333333333332 -12
0 0

0101101
*
Ed
 1e-07 1 1 0
1  117 0 1.5707963267949 2.91749956128842
2  105 50 0 1.5707963267949 2.91749956128842
4 C0 50 0 34 0
0

0101000
+86 0 -67 0 *
Ve
1e-07
5.84997625826142 7.33333333333332 -6
0 0

0101101
*
Ed
 1e-07 1 1 0
1  118 0 0.224093092301373 1.5707963267949
2  106 50 0 0.224093092301373 1.5707963267949
4 C0 50 0 35 0
0

0101000
+65 0 -87 0 *
Ed
 1e-07 1 1 0
1  119 0 6 12
2  107 50 0 6 12
2  108 41 0 6 12
4 G1 50 0 41 0
0

0101000
+65 0 -67 0 *
Wi

0101100
-66 0 -85 0 -64 0 +63 0 *
Fa
0  1e-07 50 0

0111000
+62 0 *
Ed
 1e-07 1 1 0
1  120 0 0 2.91749956128842
2  109 41 0 0 2.91749956128842
4 C0 41 0 35 0
0

0101000
+130 0 -65 0 *
Ed
 1e-07 1 1 0
1  121 0 0.224093092301371 3.14159265358979
2  110 41 0 0.224093092301371 3.14159265358979
4 C0 41 0 34 0
0

0101000
+67 0 -128 0 *
Wi

0101100
-127 0 +60 0 +63 0 +59 0 *
Fa
0  1e-07 41 0

0111000
+58 0 *
Ve
1e-07
9 -1.20156994131401e-14 -6
0 0

0101101
*
Ed
 1e-07 1 1 0
1  122 0 -15 -6
4 C0 42 0 35 0
0

0101000
+56 0 -131 0 *
Ve
1e-07
9 -1.10292579624161e-14 -12
0 0

0101101
*
Ed
 1e-07 1 1 0
1  123 0 6 15
4 C0 42 0 34 0
0

0101000
+126 0 -54 0 *
Ve
1e-07
9 -1.17775399876689e-14 -18
0 0

0101101
*
Ed
 1e-07 1 1 0
1  124 0 1.72141977662513e-32 6
4 C0 42 0 53 0
0

0101000
+54 0 -52 0 *
Ed
 1e-07 1 1 0
1  125 0 -15 -6
4 C0 42 0 39 0
0

0101000
+52 0 -121 0 *
Ve
1e-07
9 -1.16584602749333e-14 -24
0 0

0101101
*
Ed
 1e-07 1 1 0
1  126 0 6 15
4 C0 42 0 38 0
0

0101000
+116 0 -49 0 *
Ve
1e-07
9 -1.15393805621977e-14 -30
0 0

0101101
*
Ed
 1e-07 1 1 0
1  127 0 0 6
4 C0 42 0 52 0
0

0101000
+49 0 -47 0 *
Ed
 1e-07 1 1 0
1  128 0 0 21
4 C0 42 0 48 0
0

0101000
+97 0 -47 0 *
Ve
1e-07
9 -1.12674173878873e-14 0
0 0

0101101
*
Ed
 1e-07 1 1 0
1  129 0 0 21
4 C0 42 0 49 0
0

0101000
+92 0 -44 0 *
Ed
 1e-07 1 1 0
1  130 0 1.06581410364015e-14 6.00000000000001
4 C0 42 0 51 0
0

0101000
+44 0 -56 0 *
Wi

0101100
+55 0 +124 0 +53 0 +51 0 +50 0 +114 0 +48 0 +46 0 -45 0 -90 0 
+43 0 +42 0 *
Fa
0  1e-07 42 0

0111000
+41 0 *
Ed
 1e-07 1 1 0
1  131 0 8.673617379884e-16 4.99999999999999
4 C0 49 0 51 0
0

0101000
+44 0 -82 0 *
Wi

0101100
+80 0 -39 0 -43 0 +91 0 *
Fa
0  1e-07 49 0

0111000
-38 0 *
Ed
 1e-07 1 1 0
1  132 0 0 5
4 C0 48 0 52 0
0

0101000
+47 0 -79 0 *
Wi

0101100
+36 0 -78 0 -95 0 +45 0 *
Fa
0  1e-07 48 0

0111000
+35 0 *
Ed
 1e-07 1 1 0
1  133 0 0 5
4 C0 53 0 39 0
0

0101000
+52 0 -74 0 *
Ed
 1e-07 1 1 0
1  134 0 8.673617379884e-16 5
4 C0 53 0 34 0
0

0101000
+54 0 -72 0 *
Wi

0101100
-33 0 -51 0 +32 0 -71 0 *
Fa
0  1e-07 53 0

0111000
-31 0 *
Wi

0101100
-109 0 -101 0 -119 0 -50 0 +33 0 -73 0 *
Ed
 1e-07 1 1 0
1  135 0 3.14159265358979 6.28318530717959
2  111 37 0 3.14159265358979 6.28318530717959
4 C0 39 0 37 0
0

0101000
+136 0 -141 0 *
Wi

0101100
-134 0 -28 0 *
Fa
0  1e-07 39 0

0111000
-29 0 -27 0 *
Wi

0101100
-59 0 -66 0 -70 0 -32 0 -53 0 -125 0 *
Ed
 1e-07 1 1 0
1  136 0 3.14159265358979 6.28318530717959
2  112 33 0 3.14159265358979 6.28318530717959
4 C0 34 0 33 0
0

0101000
+150 0 -148 0 *
Wi

0101100
-24 0 -147 0 *
Fa
0  1e-07 34 0

0111000
-25 0 -23 0 *
Ed
 1e-07 1 1 0
1  137 0 3.14159265358979 6.28318530717959
2  113 37 0 3.14159265358979 6.28318530717959
4 C0 37 0 38 0
0

0101000
+140 0 -138 0 *
Wi

0101100
-21 0 -139 0 -28 0 +135 0 *
Fa
0  1e-07 37 0

0111000
+20 0 *
Ed
 1e-07 1 1 0
1  138 0 0 5
4 C0 52 0 38 0
0

0101000
+49 0 -77 0 *
Wi

0101100
-36 0 -46 0 +18 0 -76 0 *
Fa
0  1e-07 52 0

0111000
-17 0 *
Wi

0101100
-100 0 -105 0 -75 0 -18 0 -48 0 -115 0 *
Wi

0101100
-21 0 -137 0 *
Fa
0  1e-07 38 0

0111000
-15 0 -14 0 *
Ed
 1e-07 1 1 0
1  139 0 0 5
4 C0 51 0 35 0
0

0101000
+56 0 -84 0 *
Wi

0101100
-12 0 -42 0 +39 0 -81 0 *
Fa
0  1e-07 51 0

0111000
-11 0 *
Wi

0101100
-64 0 -60 0 -129 0 -55 0 +12 0 -83 0 *
Ed
 1e-07 1 1 0
1  140 0 3.14159265358979 6.28318530717959
2  114 33 0 3.14159265358979 6.28318530717959
4 C0 35 0 33 0
0

0101000
+146 0 -151 0 *
Wi

0101100
-144 0 -8 0 *
Fa
0  1e-07 35 0

0111000
-9 0 -7 0 *
Wi

0101100
-24 0 -149 0 -8 0 +145 0 *
Fa
0  1e-07 33 0

0111000
+5 0 *
Sh

0101100
-142 0 -132 0 +122 0 +112 0 -102 0 +98 0 -88 0 -68 0 -61 0 +57 0 
+40 0 -37 0 +34 0 -30 0 -26 0 -22 0 -19 0 -16 0 -13 0 -10 0 
-6 0 -4 0 *
So

0100000
+3 0 *
Co

1100000
+152 0 +2 0 *

+1 0 