DBRep_DrawableShape

CASCADE Topology V1, (c) Matra-Datavision
Locations 0
Curve2ds 168
1 3.1415926535897931 0 -1 0 
1 3.1415926535897931 -1.5700924586837572e-16 -1.5700924586838153e-15 1 
1 3.1415926535897931 -1.5700924586837572e-16 -1.5700924586838153e-15 1 
1 -3.1415926535897931 0.28284271247460874 1 5.3009244691058611e-17 
1 9.4247779607693793 -0.19999999999999599 -1 0 
1 0 -1.5700924586837572e-16 0 1 
1 6.2831853071795862 -1.5700924586837572e-16 0 1 
1 6.2831853071795862 -0.2828427124746189 -1 7.0678992921411486e-17 
1 3.1415926535897936 1.1102230246251565e-15 0 1 
1 3.1415926535897936 1.1102230246251565e-15 0 1 
1 0 -1.570092458683784e-16 1 4.9977595182166339e-17 
1 3.1415926535897931 -29.800000000000001 1 0 
1 0 1.1102230246251565e-15 0 1 
1 6.2831853071795862 1.1102230246251565e-15 0 1 
1 3.1415926535897936 0 0 -1 
1 3.1415926535897936 0 0 -1 
1 6.2831853071795862 0 0 -1 
1 0 0 0 -1 
1 3.1415926535897931 -0.19999999999999599 -1 0 
1 3.1415926535897931 0.2828427124746089 1 0 
1 -3.1415926535897931 -29.800000000000001 1 0 
1 0 1.570092458683784e-16 1 -4.9977595182166339e-17 
1 9.4247779607693793 0 -1 0 
1 6.2831853071795862 -0.28284271247461867 -1 0 
1 0 1.7763568394002505e-15 0 -1 
1 6.2831853071795862 1.7763568394002505e-15 0 -1 
1 0 -1.4500000000000006 1 0 
1 6.2831853071795862 -2.8991378028648445 -1 1.1308638867425838e-15 
1 3.1415926535897918 7.1054273576010019e-15 0 -1 
1 3.1415926535897918 7.1054273576010019e-15 0 -1 
1 3.141592653589794 -8.8817841970012523e-16 -1 2.8271597168564584e-16 
1 0 -7.1054273576010019e-15 0 -1 
1 6.2831853071795862 -7.1054273576010019e-15 0 -1 
1 0 -1.4500000000000091 1 0 
1 6.2831853071795862 -2.8991378028648418 -1 0 
1 3.1415926535897949 -1.7763568394002505e-15 0 -1 
1 3.1415926535897944 -1.7763568394002505e-15 0 -1 
1 6.2831853071795862 -8.8817841970012523e-16 -1 2.8271597168564594e-16 
1 6.2831853071795862 -1.5099033134902129e-14 0 1 
1 0 -1.5099033134902129e-14 0 1 
1 0 -6.2803698347351046e-16 1 1.9991038072866434e-16 
1 6.2831853071795862 0 -1 0 
1 3.1415926535897927 7.5495165674510645e-15 1.5317975206670935e-16 1 
1 3.1415926535897927 7.5495165674510645e-15 1.5317975206670935e-16 1 
1 6.2831853071795862 4.4408920985006262e-16 0 1 
1 0 4.4408920985006262e-16 0 1 
1 0 -6.2803698347351046e-16 1 0 
1 6.2831853071795862 0 -1 0 
1 3.1415926535897931 -2.6645352591003757e-15 -3.0635950413341998e-16 1 
1 3.1415926535897931 -2.6645352591003757e-15 -3.0635950413341998e-16 1 
1 0 -8.8817841970012523e-16 0 -1 
1 6.2831853071795862 -8.8817841970012523e-16 0 -1 
1 3.1415926535897931 -0.5 -1 0 
1 3.1415926535897936 -1.1102230246251565e-16 0 -1 
1 3.1415926535897936 -1.1102230246251565e-16 0 -1 
1 0 1.1102230246251565e-16 0 -1 
1 6.2831853071795862 1.1102230246251565e-16 0 -1 
1 6.2831853071795862 -0.5 -1 0 
1 3.1415926535897931 -1.1102230246251565e-16 0 -1 
1 3.1415926535897931 -1.1102230246251565e-16 0 -1 
1 0 0 0 -1 
1 6.2831853071795862 0 0 -1 
1 6.2831853071795862 -30.000000000000004 -1 0 
1 3.1415926535897931 0 0 -1 
1 3.1415926535897931 0 0 -1 
1 0 -22.550000000000004 1 0 
1 0 0 0 -1 
1 6.2831853071795862 0 0 -1 
1 3.1415926535897931 -15.000000000000004 -1 0 
1 3.1415926535897931 0 0 -1 
1 3.1415926535897931 0 0 -1 
1 0 -7.5500000000000034 1 0 
1 1.5707963267948966 0 0 -1 
1 0 -7.5500000000000034 1 0 
1 3.1415926535897931 -15.000000000000004 -1 0 
1 3.1415926535897931 -1.7763568394002505e-15 0 -1 
1 9.4247779607693793 -15.000000000000004 -1 0 
1 0 -7.5500000000000034 1 0 
1 9.4247779607693793 -0.5 -1 0 
1 6.2831853071795862 -0.5 -1 0 
1 9.4247779607693793 8.8817841970012543e-16 -1 -2.8271597168564599e-16 
1 6.2831853071795862 8.8817841970012523e-16 -1 -2.8271597168564594e-16 
1 1.5707963267948966 0 0 -1 
1 0 -22.550000000000004 1 0 
1 6.2831853071795862 -30.000000000000004 -1 0 
1 3.1415926535897931 0 0 -1 
1 6.2831853071795862 -30.000000000000004 -1 0 
1 0 -22.550000000000004 1 0 
1 6.2831853071795862 0 -1 0 
1 0 -6.2803698347351046e-16 1 0 
1 6.2831853071795862 0 -1 0 
1 0 6.2803698347351046e-16 1 -1.9991038072866434e-16 
1 6.2831853071795871 -2.8991378028648418 -1 0 
1 -8.8817841970012523e-16 -1.4500000000000091 1 0 
1 6.2831853071795862 -2.8991378028648374 -1 -1.1308638867425838e-15 
1 0 -1.4500000000000006 1 0 
1 0 0 0 -1 
1 6.2831853071795862 0 0 -1 
1 0 -1.4500000000000002 1 0 
1 6.2831853071795862 -2.8991378028648462 -1 0 
1 3.1415926535897931 0 0 -1 
1 3.1415926535897931 0 0 -1 
1 3.1415926535897931 0 -1 0 
1 0 0 0 -1 
1 6.2831853071795862 0 0 -1 
1 0 -1.4500000000000002 1 0 
1 6.2831853071795862 -2.8991378028648453 -1 1.4135798584282297e-16 
1 3.1415926535897931 0 0 -1 
1 3.1415926535897931 0 0 -1 
1 6.2831853071795862 0 -1 0 
1 6.2831853071795862 0 0 1 
1 0 0 0 1 
1 0 -6.2803698347351046e-16 1 0 
1 6.2831853071795862 0 -1 0 
1 3.1415926535897931 0 0 1 
1 3.1415926535897931 0 0 1 
1 6.2831853071795862 -4.4408920985006262e-16 0 1 
1 0 -4.4408920985006262e-16 0 1 
1 0 -1.2560739669470209e-15 1 1.9991038072866434e-16 
1 6.2831853071795862 0 -1 0 
1 3.1415926535897931 -8.8817841970012523e-16 0 1 
1 3.1415926535897931 -8.8817841970012523e-16 0 1 
1 0 0 0 -1 
1 6.2831853071795862 0 0 -1 
1 3.1415926535897931 -0.5 -1 0 
1 3.1415926535897931 0 0 -1 
1 3.1415926535897931 0 0 -1 
1 0 0 0 -1 
1 6.2831853071795862 0 0 -1 
1 6.2831853071795862 -0.5 -1 0 
1 3.1415926535897931 0 0 -1 
1 3.1415926535897931 0 0 -1 
1 0 0 0 -1 
1 6.2831853071795862 0 0 -1 
1 6.2831853071795862 -30 -1 0 
1 3.1415926535897931 0 0 -1 
1 3.1415926535897931 0 0 -1 
1 0 -22.550000000000001 1 0 
1 0 0 0 -1 
1 6.2831853071795862 0 0 -1 
1 3.1415926535897931 -15 -1 0 
1 3.1415926535897931 0 0 -1 
1 3.1415926535897931 0 0 -1 
1 0 -7.5500000000000007 1 0 
1 1.5707963267948966 0 0 -1 
1 0 -7.5500000000000007 1 0 
1 3.1415926535897931 -15 -1 0 
1 3.1415926535897931 0 0 -1 
1 9.4247779607693793 -15 -1 0 
1 0 -7.5500000000000007 1 0 
1 9.4247779607693793 -0.5 -1 0 
1 6.2831853071795862 -0.5 -1 0 
1 9.4247779607693793 0 -1 0 
1 6.2831853071795862 0 -1 0 
1 1.5707963267948966 0 0 -1 
1 0 -22.550000000000001 1 0 
1 6.2831853071795862 -30 -1 0 
1 3.1415926535897931 0 0 -1 
1 6.2831853071795862 -30 -1 0 
1 0 -22.550000000000001 1 0 
1 6.2831853071795862 0 -1 0 
1 0 0 1 -1.9991038072866434e-16 
1 6.2831853071795862 0 -1 0 
1 0 -6.2803698347351046e-16 1 0 
1 6.2831853071795862 -2.8991378028648445 -1 -1.4135798584282297e-16 
1 0 -1.4500000000000002 1 0 
1 6.2831853071795862 -2.8991378028648462 -1 0 
1 0 -1.4500000000000002 1 0 
Curves 244
2 0 0 0 0 0 1 0.87498231764667778 -0.48415487584619887 0 0.48415487584619887 0.87498231764667778 -0 1.30000000000001
1 1.1374770129406899 -0.62940133860006298 0 0.61870593022628073 -0.34234919585537382 -0.70710678118655568 
2 0 0 -0.19999999999999599 0 0 -1 0.87498231764667778 -0.48415487584619887 0 -0.48415487584619887 -0.87498231764667778 -0 1.5
1 -1.1374770129406899 0.62940133860006298 0 -0.61870593022628007 0.34234919585537404 -0.70710678118655612 
2 0 0 -30 0 0 -1 0.87498231764667778 -0.48415487584619887 0 -0.48415487584619887 -0.87498231764667778 -0 1.3
1 -1.3124734764700201 0.72623231376929898 -29.800000000000001 -0.61870593022629083 0.34234919585537993 0.7071067811865438 
2 0 0 -29.800000000000001 0 0 1 0.87498231764667778 -0.48415487584619887 0 0.48415487584619887 0.87498231764667778 -0 1.5
1 1.3124734764700201 -0.72623231376929898 -29.800000000000001 0.61870593022629083 -0.34234919585537993 0.7071067811865438 
1 1.3124734764700201 -0.72623231376929898 0 -0 0 -1 
1 -1.3124734764700201 0.72623231376929898 0 -0 0 -1 
2 0 0 -0.19999999999999599 0 0 -1 0.87498231764667778 -0.48415487584619887 0 -0.48415487584619887 -0.87498231764667778 -0 1.5
2 0 0 -29.800000000000001 0 0 1 0.87498231764667778 -0.48415487584619887 0 0.48415487584619887 0.87498231764667778 -0 1.5
2 0 0 0 0 0 1 0.87498231764667778 -0.48415487584619887 0 0.48415487584619887 0.87498231764667778 -0 1.30000000000001
2 0 0 -30 0 0 -1 0.87498231764667778 -0.48415487584619887 0 -0.48415487584619887 -0.87498231764667778 -0 1.3
1 -8.9999999999999805 -4.4999999999999902 -8.1500000000000199 -2.0920442784627401e-30 1 9.7962628641060595e-16 
2 -8.9999999999999893 -3.0499999999999901 -6.0000000000000204 2.0920442784627401e-30 -1 -9.7962628641060595e-16 2.1355534324503301e-15 9.7962628641060595e-16 -1 1 3.5032461608120427e-46 2.1355534324503301e-15 2.1499999999999999
1 -8.9999999999999893 -4.5 -3.8500000000000201 -2.0920442784627401e-30 1 9.7962628641060595e-16 
2 -8.9999999999999893 -4.4999999999999902 -6.0000000000000204 -2.0920442784627401e-30 1 9.7962628641060595e-16 -2.1355534324503301e-15 -9.7962628641060595e-16 1 1 3.5032461608120427e-46 2.1355534324503301e-15 2.1499999999999999
1 -8.9999999999999503 -4.4999999999999698 -26.149999999999999 -2.0920442784627401e-30 1 9.7962628641060595e-16 
2 -8.9999999999999503 -3.0499999999999701 -24 2.0920442784627401e-30 -1 -9.7962628641060595e-16 2.1355534324503301e-15 9.7962628641060595e-16 -1 1 3.5032461608120427e-46 2.1355534324503301e-15 2.1499999999999999
1 -8.9999999999999591 -4.4999999999999796 -21.850000000000001 -2.0920442784627401e-30 1 9.7962628641060595e-16 
2 -8.9999999999999503 -4.4999999999999796 -24 -2.0920442784627401e-30 1 9.7962628641060595e-16 2.1355534324503301e-15 9.7962628641060595e-16 -1 -1 -3.5032461608120427e-46 -2.1355534324503301e-15 2.1499999999999999
1 -8.9999999999999805 -0.99999999999998901 -10.199999999999999 1.5100643136718299e-15 0.70710678118654702 -0.70710678118654802 
2 -8.9999999999999893 -0.999999999999994 -6.0000000000000204 -2.0920442784627401e-30 1 9.7962628641060694e-16 2.1355534324503301e-15 9.7962628641060694e-16 -1 -1 1.7516230804060213e-45 -2.1355534324503301e-15 4.2000000000000002
1 -9 -0.999999999999998 -1.80000000000001 -1.5966599192953898e-15 0.70710678118654602 0.70710678118654891 
1 -8.9999999999999396 -0.99999999999997202 -28.199999999999999 1.5100643136718299e-15 0.70710678118654702 -0.70710678118654802 
2 -8.9999999999999503 -0.99999999999997602 -24 -2.0920442784627401e-30 1 9.7962628641060694e-16 2.1355534324503301e-15 9.7962628641060694e-16 -1 -1 1.7516230804060213e-45 -2.1355534324503301e-15 4.2000000000000002
1 -8.9999999999999591 -0.99999999999998002 -19.800000000000001 -1.5966599192953898e-15 0.70710678118654602 0.70710678118654891 
1 -8.9999999999999805 -0.99999999999998901 -10.199999999999999 -2.0920442784627401e-30 1 9.7962628641060595e-16 
2 -8.9999999999999893 -0.499999999999994 -6.0000000000000204 -2.0920442784627401e-30 1 9.7962628641060694e-16 -2.1355534324503301e-15 -9.7962628641060694e-16 1 1 -1.7516230804060213e-45 2.1355534324503301e-15 4.2000000000000002
1 -9 -0.999999999999998 -1.80000000000001 -2.0920442784627401e-30 1 9.7962628641060595e-16 
1 -8.9999999999999396 -0.99999999999997202 -28.199999999999999 -2.0920442784627401e-30 1 9.7962628641060595e-16 
2 -8.9999999999999503 -0.49999999999997602 -24 -2.0920442784627401e-30 1 9.7962628641060694e-16 2.1355534324503301e-15 9.7962628641060694e-16 -1 -1 1.7516230804060213e-45 -2.1355534324503301e-15 4.2000000000000002
1 -8.9999999999999591 -0.99999999999998002 -19.800000000000001 -2.0920442784627401e-30 1 9.7962628641060595e-16 
1 -1.5 0 0 2.1355534324503301e-15 9.7962628641060595e-16 -1 
2 6.4066602973509796e-14 2.9388788592318197e-14 -30 2.1355534324503301e-15 9.7962628641060595e-16 -1 -1 3.5032461608120427e-46 -2.1355534324503301e-15 -2.0920442784627394e-30 1 9.7962628641060595e-16 1.5
1 1.5 1.8369701987210299e-16 7.1054273576010003e-15 2.1355534324503301e-15 9.7962628641060595e-16 -1 
2 4.8156729901754899e-14 2.2090572758559201e-14 -22.550000000000001 -2.1355534324503301e-15 -9.7962628641060595e-16 1 -1 3.5032461608120427e-46 -2.1355534324503301e-15 2.0920442784627394e-30 -1 -9.7962628641060595e-16 1.5
1 -1.5 0 0 2.1355534324503301e-15 9.7962628641060595e-16 -1 
2 3.2033301486754898e-14 1.4694394296159099e-14 -15 2.1355534324503301e-15 9.7962628641060595e-16 -1 1 -3.5032461608120427e-46 2.1355534324503301e-15 2.0920442784627394e-30 -1 -9.7962628641060595e-16 1.5
1 1.5 1.8369701987210299e-16 7.1054273576010003e-15 2.1355534324503301e-15 9.7962628641060595e-16 -1 
2 1.6123428415e-14 7.3961784624000798e-15 -7.5499999999999998 -2.1355534324503301e-15 -9.7962628641060595e-16 1 -1 3.5032461608120427e-46 -2.1355534324503301e-15 2.0920442784627394e-30 -1 -9.7962628641060595e-16 1.5
1 4.0000000000000204 1 -7.5499999999999901 -0.70710678118654602 0.70710678118654891 -6.9470045018762391e-16 
1 4 0.99999999999999301 1.4210854715202001e-14 2.1355534324503301e-15 9.7962628641060595e-16 -1 
1 4.0000000000000302 1.00000000000001 -15 0.70710678118654602 -0.70710678118654891 8.786956601896289e-16 
1 2 3 1.06581410364015e-14 2.1355534324503301e-15 9.7962628641060595e-16 -1 
1 2.00000000000002 3.0000000000000102 -7.5499999999999901 -1 -1.6993807167204599e-31 -1.9620810848526502e-15 
1 2.0000000000000302 3.0000000000000102 -15 1 -8.4969035836022899e-32 2.2222896062491701e-15 
1 -2 3 3.5527136788005001e-15 2.1355534324503301e-15 9.7962628641060595e-16 -1 
1 -3.99999999999998 1 -7.5499999999999998 -0.70710678118654602 -0.70710678118654891 -2.0801012304867002e-15 
1 -3.9999999999999698 1.00000000000001 -15 0.70710678118654602 0.70710678118654891 2.2640964404886994e-15 
1 -4 0.99999999999999301 -3.5527136788005001e-15 2.1355534324503301e-15 9.7962628641060595e-16 -1 
1 -3.99999999999998 1 -7.5499999999999998 2.0920442784627401e-30 -1 -9.7962628641060595e-16 
1 -3.9999999999999698 1.00000000000001 -15 -2.0920442784627401e-30 1 9.7962628641060595e-16 
1 -4 -0.5 -7.1054273576010003e-15 2.1355534324503301e-15 9.7962628641060595e-16 -1 
1 -4.2999999999999803 -4.4999999999999902 -7.5500000000000096 -2.0920442784627401e-30 1 9.7962628641060595e-16 
1 -4.2999999999999998 -4.5 -1.06581410364015e-14 2.1355534324503301e-15 9.7962628641060595e-16 -1 
1 -4.2999999999999599 -4.4999999999999902 -15 2.0920442784627401e-30 -1 -9.7962628641060595e-16 
1 -4.2999999999999998 -4 -1.06581410364015e-14 2.1355534324503301e-15 9.7962628641060595e-16 -1 
1 1.4813712190637498e-14 -3.9999999999999898 -7.5499999999999998 1 1.6993807167204599e-31 1.9620810848526502e-15 
1 3.3334344093737497e-14 -3.9999999999999898 -15 -1 8.4969035836022899e-32 -2.2222896062491701e-15 
1 1.26217744835362e-29 -4 0 2.1355534324503301e-15 9.7962628641060595e-16 -1 
2 1.6123428415e-14 7.3961784624000798e-15 -7.5499999999999998 -2.1355534324503301e-15 -9.7962628641060595e-16 1 -1 3.5032461608120427e-46 -2.1355534324503301e-15 2.0920442784627394e-30 -1 -9.7962628641060595e-16 4
2 3.2033301486754898e-14 1.4694394296159099e-14 -15 2.1355534324503301e-15 9.7962628641060595e-16 -1 1 -3.5032461608120427e-46 2.1355534324503301e-15 2.0920442784627394e-30 -1 -9.7962628641060595e-16 4
1 4 4.8985871965894099e-16 1.06581410364015e-14 2.1355534324503301e-15 9.7962628641060595e-16 -1 
1 4.0000000000000204 7.3961784624000798e-15 -7.5499999999999901 -2.0920442784627401e-30 1 9.7962628641060595e-16 
1 4.0000000000000302 1.4694394296159099e-14 -15 2.0920442784627401e-30 -1 -9.7962628641060595e-16 
2 3.2033301486754898e-14 1.4694394296159099e-14 -15 2.1355534324503301e-15 9.7962628641060595e-16 -1 1 -3.5032461608120427e-46 2.1355534324503301e-15 2.0920442784627394e-30 -1 -9.7962628641060595e-16 1.5
2 1.6123428415e-14 7.3961784624000798e-15 -7.5499999999999998 -2.1355534324503301e-15 -9.7962628641060595e-16 1 -1 3.5032461608120427e-46 -2.1355534324503301e-15 2.0920442784627394e-30 -1 -9.7962628641060595e-16 1.5
1 4.0000000000000497 1.00000000000002 -22.550000000000001 -0.70710678118654602 0.70710678118654891 -6.9470045018762391e-16 
1 4 0.99999999999999301 1.4210854715202001e-14 2.1355534324503301e-15 9.7962628641060595e-16 -1 
1 4.0000000000000604 1.00000000000002 -30 0.70710678118654602 -0.70710678118654891 8.1736392352229394e-16 
1 2 3 1.06581410364015e-14 2.1355534324503301e-15 9.7962628641060595e-16 -1 
1 2.00000000000004 3.00000000000002 -22.550000000000001 -1 -1.6993807167204599e-31 -1.9620810848526502e-15 
1 2.00000000000006 3.0000000000000302 -30 1 -0 2.1355534324503301e-15 
1 -2 3 3.5527136788005001e-15 2.1355534324503301e-15 9.7962628641060595e-16 -1 
1 -3.9999999999999498 1.00000000000001 -22.550000000000001 -0.70710678118654602 -0.70710678118654891 -2.0801012304867002e-15 
1 -3.99999999999994 1.00000000000002 -30 0.70710678118654602 0.70710678118654891 2.2027647038213695e-15 
1 -4 0.99999999999999301 -3.5527136788005001e-15 2.1355534324503301e-15 9.7962628641060595e-16 -1 
1 -3.9999999999999498 1.00000000000002 -22.550000000000001 2.0920442784627401e-30 -1 -9.7962628641060595e-16 
1 -3.99999999999994 1.00000000000002 -30 -2.0920442784627401e-30 1 9.7962628641060595e-16 
1 -4 -0.5 -7.1054273576010003e-15 2.1355534324503301e-15 9.7962628641060595e-16 -1 
1 -4.4999999999999902 -0.5 -7.1054273576010003e-15 -2.00544917175207e-15 -9.7962628641060595e-16 1 
1 -3.9999999999999898 -0.49999999999999201 -7.5500000000000096 -1 -1.6993807167204599e-31 -1.9620810848526502e-15 
1 -3.9999999999999698 -0.49999999999998501 -15 1 -8.4969035836022899e-32 2.2222896062491701e-15 
1 -4.4999999999999902 -0.5 -7.1054273576010003e-15 -1.9057887336454501e-15 -9.7962628641060595e-16 1 
1 -3.99999999999996 -0.49999999999997802 -22.550000000000001 -1 -1.6993807167204599e-31 -1.9620810848526502e-15 
1 -3.99999999999994 -0.49999999999997002 -30 1 -0 2.1355534324503301e-15 
1 -14.199999999999999 -0.5 -2.8421709430404001e-14 2.1355534324503301e-15 9.7962628641060595e-16 -1 
1 -4 -0.5 -7.1054273576010003e-15 1 -0 2.1355534324503301e-15 
2 -8.9999999999999893 -0.499999999999994 -6.0000000000000204 -2.0920442784627401e-30 1 9.7962628641060694e-16 -2.1355534324503301e-15 -9.7962628641060694e-16 1 1 -1.7516230804060213e-45 2.1355534324503301e-15 4.2000000000000002
2 -8.9999999999999503 -0.49999999999997602 -24 -2.0920442784627401e-30 1 9.7962628641060694e-16 2.1355534324503301e-15 9.7962628641060694e-16 -1 -1 1.7516230804060213e-45 -2.1355534324503301e-15 4.2000000000000002
1 -14.1999999999999 -0.49999999999997002 -30 0.70710678118654602 0.70710678118654891 2.2027647038213695e-15 
1 -15 -1.3 -2.8421709430404001e-14 2.1355534324503301e-15 9.7962628641060595e-16 -1 
1 -14.199999999999999 -0.5 -2.8421709430404001e-14 0.70710678118654602 0.70710678118654891 2.2027647038213695e-15 
1 -14.999999999999901 -4.4999999999999698 -30 -5.4210108624275498e-16 1 9.7962628641060496e-16 
1 -15 -4.5 -3.1974423109204502e-14 2.1355534324503301e-15 9.7962628641060595e-16 -1 
1 -15 -4.5 -3.1974423109204502e-14 -5.4210108624275498e-16 1 9.7962628641060496e-16 
1 -4.4999999999999902 -4.5 -1.06581410364015e-14 2.00544917175207e-15 9.7962628641060595e-16 -1 
1 -4.2999999999999998 -4.5 -1.06581410364015e-14 -1 0 -2.1355534324503301e-15 
1 -4.2999999999999297 -4.4999999999999698 -30 -1 0 -2.1355534324503301e-15 
1 -4.2999999999999998 -4.5 -1.06581410364015e-14 2.1355534324503301e-15 9.7962628641060595e-16 -1 
1 -4.2999999999999501 -4.4999999999999796 -22.550000000000001 1 1.6993807167204599e-31 1.9620810848526502e-15 
1 -4.4999999999999902 -4.5 -1.06581410364015e-14 1.9057887336454501e-15 9.7962628641060595e-16 -1 
1 -4.2999999999999599 -4.4999999999999902 -15 -1 8.4969035836022899e-32 -2.2222896062491701e-15 
1 -4.2999999999999803 -4.4999999999999902 -7.5500000000000096 1 1.6993807167204599e-31 1.9620810848526502e-15 
2 -8.9999999999999893 -4.4999999999999902 -6.0000000000000204 -2.0920442784627401e-30 1 9.7962628641060595e-16 -2.1355534324503301e-15 -9.7962628641060595e-16 1 1 3.5032461608120427e-46 2.1355534324503301e-15 2.1499999999999999
2 -8.9999999999999503 -4.4999999999999796 -24 -2.0920442784627401e-30 1 9.7962628641060595e-16 2.1355534324503301e-15 9.7962628641060595e-16 -1 -1 -3.5032461608120427e-46 -2.1355534324503301e-15 2.1499999999999999
1 -4.2999999999999501 -4.4999999999999796 -22.550000000000001 -2.0920442784627401e-30 1 9.7962628641060595e-16 
1 -4.2999999999999297 -4.4999999999999698 -30 2.0920442784627401e-30 -1 -9.7962628641060595e-16 
1 -4.2999999999999998 -4 -1.06581410364015e-14 2.1355534324503301e-15 9.7962628641060595e-16 -1 
1 4.4244928463427199e-14 -3.99999999999998 -22.550000000000001 1 1.6993807167204599e-31 1.9620810848526502e-15 
1 6.4066602973509796e-14 -3.9999999999999698 -30 -1 0 -2.1355534324503301e-15 
1 1.26217744835362e-29 -4 0 2.1355534324503301e-15 9.7962628641060595e-16 -1 
2 4.8156729901754899e-14 2.2090572758559201e-14 -22.550000000000001 -1.91871299795323e-15 -9.7962628641060595e-16 1 -1 -2.1242258959005707e-31 -1.91871299795323e-15 2.0920442784627405e-30 -1 -9.7962628641060595e-16 4
2 6.4066602973509796e-14 2.9388788592318197e-14 -30 2.1355534324503301e-15 9.7962628641060595e-16 -1 -1 3.5032461608120427e-46 -2.1355534324503301e-15 -2.0920442784627394e-30 1 9.7962628641060595e-16 4
1 4 4.8985871965894099e-16 1.06581410364015e-14 2.1355534324503301e-15 9.7962628641060595e-16 -1 
1 4.0000000000000497 2.2090572758559201e-14 -22.550000000000001 -2.0920442784627401e-30 1 9.7962628641060595e-16 
1 4.0000000000000604 2.9388788592318197e-14 -30 2.0920442784627401e-30 -1 -9.7962628641060595e-16 
1 -4.4999999999999902 0 -7.1054273576010003e-15 -2.0920442784627401e-30 1 9.7962628641060595e-16 
2 6.4066602973509796e-14 2.9388788592318197e-14 -30 2.1355534324503301e-15 9.7962628641060595e-16 -1 -1 3.5032461608120427e-46 -2.1355534324503301e-15 -2.0920442784627394e-30 1 9.7962628641060595e-16 1.5
2 4.8156729901754899e-14 2.2090572758559201e-14 -22.550000000000001 -2.1355534324503301e-15 -9.7962628641060595e-16 1 -1 3.5032461608120427e-46 -2.1355534324503301e-15 2.0920442784627394e-30 -1 -9.7962628641060595e-16 1.5
1 -4.49999999999996 -10.5 -15 -2.0920442784627401e-30 1 9.7962628641060595e-16 
1 -4.4999999999999503 -10.5 -22.550000000000001 -2.0920442784627401e-30 1 9.7962628641060595e-16 
1 -4.4999999999999796 -10.5 -7.5500000000000203 -2.0920442784627401e-30 1 9.7962628641060595e-16 
2 -8.9999999999999503 -0.99999999999997602 -24 -2.0920442784627401e-30 1 9.7962628641060694e-16 2.1355534324503301e-15 9.7962628641060694e-16 -1 -1 1.7516230804060213e-45 -2.1355534324503301e-15 4.2000000000000002
2 -8.9999999999999893 -0.999999999999994 -6.0000000000000204 -2.0920442784627401e-30 1 9.7962628641060694e-16 2.1355534324503301e-15 9.7962628641060694e-16 -1 -1 1.7516230804060213e-45 -2.1355534324503301e-15 4.2000000000000002
2 -8.9999999999999503 -3.0499999999999701 -24 2.0920442784627401e-30 -1 -9.7962628641060595e-16 2.1355534324503301e-15 9.7962628641060595e-16 -1 1 3.5032461608120427e-46 2.1355534324503301e-15 2.1499999999999999
2 -8.9999999999999893 -3.0499999999999901 -6.0000000000000204 2.0920442784627401e-30 -1 -9.7962628641060595e-16 2.1355534324503301e-15 9.7962628641060595e-16 -1 1 3.5032461608120427e-46 2.1355534324503301e-15 2.1499999999999999
1 9 -4.5 -21.850000000000001 -0 1 -0 
2 9 -3.0499999999999998 -24 0 -1 0 0 0 1 -1 0 0 2.1499999999999999
1 9 -4.5 -26.149999999999999 -0 1 -0 
2 9 -4.5 -24 0 1 0 0 0 -1 -1 0 0 2.1499999999999999
1 9 -4.5 -3.8500000000000001 -0 1 -0 
2 9 -3.0499999999999998 -6 0 -1 0 0 0 1 -1 0 0 2.1499999999999999
1 9 -4.5 -8.1500000000000004 -0 1 -0 
2 9 -4.5 -6 0 1 0 0 -0 1 1 0 -0 2.1499999999999999
1 9 -1 -19.800000000000001 0 0.70710678118654702 0.70710678118654802 
2 9 -1 -24 0 1 0 0 -0 1 1 0 -0 4.2000000000000002
1 9 -1 -28.199999999999999 8.6595605623549403e-17 0.70710678118654702 -0.70710678118654802 
1 9 -1 -1.8 0 0.70710678118654702 0.70710678118654802 
2 9 -1 -6 0 1 0 0 -0 1 1 0 -0 4.2000000000000002
1 9 -1 -10.199999999999999 8.6595605623549403e-17 0.70710678118654702 -0.70710678118654802 
1 9 -1 -19.800000000000001 -0 1 -0 
2 9 -0.5 -24 0 1 0 0 0 -1 -1 0 0 4.2000000000000002
1 9 -1 -28.199999999999999 -0 1 -0 
1 9 -1 -1.8 -0 1 -0 
2 9 -0.5 -6 0 1 0 0 -0 1 1 0 -0 4.2000000000000002
1 9 -1 -10.199999999999999 -0 1 -0 
1 1.5 0 -30 0 0 1 
2 0 0 0 0 0 1 1 0 -0 -0 1 0 1.5
1 -1.5 1.8369701987210299e-16 -30 0 0 1 
2 0 0 -7.4500000000000002 0 0 -1 1 0 0 0 -1 0 1.5
1 1.5 0 -30 0 0 1 
2 0 0 -15 0 0 1 -1 0 0 0 -1 0 1.5
1 -1.5 1.8369701987210299e-16 -30 0 0 1 
2 0 0 -22.449999999999999 0 0 -1 1 0 0 0 -1 0 1.5
1 -4 0.999999999999994 -22.449999999999999 0.70710678118654602 0.70710678118654891 -1.2266347333467001e-16 
1 -4 0.99999999999999301 -30 0 0 1 
1 -4 0.99999999999999201 -15 -0.70710678118654602 -0.70710678118654891 -6.1331736667334904e-17 
1 -2 3 -30 0 0 1 
1 -2 3 -22.449999999999999 1 0 -1.7347234759768101e-16 
1 -2 3 -15 -1 0 -8.6736173798840305e-17 
1 2 3 -30 0 0 1 
1 4 0.99999999999999201 -22.449999999999999 0.70710678118654602 -0.70710678118654891 -1.2266347333467001e-16 
1 4 0.999999999999994 -15 -0.70710678118654602 0.70710678118654891 -6.1331736667334904e-17 
1 4 0.99999999999999301 -30 0 0 1 
1 4 0.99999999999999301 -22.449999999999999 0 -1 0 
1 4 0.99999999999999301 -15 0 1 0 
1 4 -0.5 -30 0 0 1 
1 4.2999999999999998 -4.5 -22.449999999999999 0 1 0 
1 4.2999999999999998 -4.5 -30 0 0 1 
1 4.2999999999999998 -4.5 -15 0 -1 0 
1 4.2999999999999998 -4 -30 0 0 1 
1 1.3097162243624899e-15 -4 -22.449999999999999 -1 0 1.7347234759768101e-16 
1 -1.3010426069826101e-15 -4 -15 1 0 8.6736173798840305e-17 
1 0 -4 -30 0 0 1 
2 0 0 -22.449999999999999 0 0 -1 1 0 0 0 -1 0 4
2 0 0 -15 0 0 1 -1 0 0 0 -1 0 4
1 -4 4.8985871965894099e-16 -30 0 0 1 
1 -4 0 -22.449999999999999 0 1 0 
1 -4 0 -15 0 -1 0 
2 0 0 -15 0 0 1 -1 0 0 0 -1 0 1.5
2 0 0 -22.449999999999999 0 0 -1 1 0 0 0 -1 0 1.5
1 -4 0.999999999999995 -7.4500000000000002 0.70710678118654602 0.70710678118654891 -1.2266347333467001e-16 
1 -4 0.99999999999999301 -30 0 0 1 
1 -4 0.99999999999999301 0 -0.70710678118654602 -0.70710678118654891 -0 
1 -2 3 -30 0 0 1 
1 -2 3 -7.4500000000000002 1 0 -1.7347234759768101e-16 
1 -2 3 0 -1 -0 -0 
1 2 3 -30 0 0 1 
1 4 0.99999999999999101 -7.4500000000000002 0.70710678118654602 -0.70710678118654891 -1.2266347333467001e-16 
1 4 0.99999999999999301 0 -0.70710678118654602 0.70710678118654891 0 
1 4 0.99999999999999301 -30 0 0 1 
1 4 0.99999999999999301 -7.4500000000000002 0 -1 0 
1 4 0.99999999999999301 0 -0 1 -0 
1 4 -0.5 -30 0 0 1 
1 4.4999999999999902 -0.5 -30 -1.30104260698261e-16 0 -1 
1 4 -0.5 -22.449999999999999 1 0 -1.7347234759768101e-16 
1 4 -0.5 -15 -1 0 -8.6736173798840305e-17 
1 4.4999999999999902 -0.5 -30 -2.2976469880487499e-16 0 -1 
1 4 -0.5 -7.4500000000000002 1 0 -1.7347234759768101e-16 
1 4 -0.5 0 -1 -0 -0 
1 14.199999999999999 -0.5 -30 0 0 1 
1 4 -0.5 -30 -1 -0 -0 
2 9 -0.5 -24 0 1 0 0 0 -1 -1 0 0 4.2000000000000002
2 9 -0.5 -6 0 1 0 0 -0 1 1 0 -0 4.2000000000000002
1 14.199999999999999 -0.5 0 -0.70710678118654602 0.70710678118654891 -0 
1 15 -1.3 -30 0 0 1 
1 14.199999999999999 -0.5 -30 -0.70710678118654602 0.70710678118654891 -0 
1 15 -4.5 0 5.4210108624275202e-16 1 0 
1 15 -4.5 -30 0 0 1 
1 15 -4.5 -30 5.4210108624275202e-16 1 0 
1 4.4999999999999902 -4.5 -30 1.30104260698261e-16 0 1 
1 4.2999999999999998 -4.5 -30 1 0 0 
1 4.2999999999999998 -4.5 0 1 0 0 
1 4.2999999999999998 -4.5 -30 0 0 1 
1 4.2999999999999998 -4.5 -7.4500000000000002 -1 0 1.7347234759768101e-16 
1 4.4999999999999902 -4.5 -30 2.2976469880487499e-16 0 1 
1 4.2999999999999901 -4.5 -15 1 0 8.6736173798840305e-17 
1 4.2999999999999998 -4.5 -22.449999999999999 -1 0 1.7347234759768101e-16 
2 9 -4.5 -24 0 1 0 0 0 -1 -1 0 0 2.1499999999999999
2 9 -4.5 -6 0 1 0 0 -0 1 1 0 -0 2.1499999999999999
1 4.2999999999999998 -4.5 -7.4500000000000002 0 1 0 
1 4.2999999999999998 -4.5 0 -0 -1 -0 
1 4.2999999999999998 -4 -30 0 0 1 
1 3.9118014383277e-15 -4 -7.4500000000000002 -1 0 1.7347234759768101e-16 
1 0 -4 0 1 0 0 
1 0 -4 -30 0 0 1 
2 0 0 -7.4500000000000002 -2.1684043449710101e-16 -0 -1 1 0 -2.1684043449710101e-16 0 -1 0 4
2 0 0 0 0 0 1 1 0 -0 -0 1 0 4
1 -4 4.8985871965894099e-16 -30 0 0 1 
1 -4 0 -7.4500000000000002 0 1 0 
1 -4 0 0 -0 -1 -0 
1 4.4999999999999902 0 -30 0 1 0 
2 0 0 0 0 0 1 1 0 -0 -0 1 0 1.5
2 0 0 -7.4500000000000002 0 0 -1 1 0 0 0 -1 0 1.5
1 4.4999999999999902 -10.5 -15 -0 1 -0 
1 4.5 -10.5 -7.4500000000000002 -0 1 -0 
1 4.4999999999999902 -10.5 -22.449999999999999 -0 1 -0 
2 9 -1 -6 0 1 0 0 -0 1 1 0 -0 4.2000000000000002
2 9 -1 -24 0 1 0 0 -0 1 1 0 -0 4.2000000000000002
2 9 -3.0499999999999998 -6 0 -1 0 0 0 1 -1 0 0 2.1499999999999999
2 9 -3.0499999999999998 -24 0 -1 0 0 0 1 -1 0 0 2.1499999999999999
Polygon3D 0
PolygonOnTriangulations 0
Surfaces 94
3 0 0 0 -0 -0 -1 -0.87498231764667778 0.48415487584619887 0 0.48415487584619887 0.87498231764667778 -0 1.30000000000001
0.78539816339743695
1 0 0 0 0 0 1 0.87498231764667778 -0.48415487584619887 0 0.48415487584619887 0.87498231764667778 -0 
3 0 0 0 -0 -0 -1 -0.87498231764667778 0.48415487584619887 0 0.48415487584619887 0.87498231764667778 -0 1.30000000000001
0.78539816339743695
2 0 0 0 0 0 1 -0.87498231764667778 0.48415487584619887 0 -0.48415487584619887 -0.87498231764667778 0 1.5
3 0 0 -29.800000000000001 -0 -0 1 0.87498231764667778 -0.48415487584619887 0 0.48415487584619887 0.87498231764667778 0 1.5
0.78539816339745405
1 0 0 -30 0 0 1 0.87498231764667778 -0.48415487584619887 0 0.48415487584619887 0.87498231764667778 -0 
3 0 0 -29.800000000000001 -0 -0 1 0.87498231764667778 -0.48415487584619887 0 0.48415487584619887 0.87498231764667778 0 1.5
0.78539816339745405
2 0 0 0 0 0 1 -0.87498231764667778 0.48415487584619887 0 -0.48415487584619887 -0.87498231764667778 0 1.5
2 -8.9999999999999893 -4.4999999999999902 -6.0000000000000204 2.0920442784627401e-30 -1 -9.7962628641060595e-16 2.1355534324503301e-15 9.7962628641060595e-16 -1 1 3.5032461608120427e-46 2.1355534324503301e-15 2.1499999999999999
2 -8.9999999999999893 -4.4999999999999902 -6.0000000000000204 2.0920442784627401e-30 -1 -9.7962628641060595e-16 2.1355534324503301e-15 9.7962628641060595e-16 -1 1 3.5032461608120427e-46 2.1355534324503301e-15 2.1499999999999999
3 -8.9999999999999893 -0.999999999999994 -6.0000000000000204 -2.0920442784627401e-30 1 9.7962628641060694e-16 2.1355534324503301e-15 9.7962628641060694e-16 -1 -1 1.7516230804060213e-45 -2.1355534324503301e-15 4.2000000000000002
0.78539816339744895
1 -4.2999999999999998 -4.5 -1.06581410364015e-14 2.0920442784627401e-30 -1 -9.7962628641060595e-16 -2.1355534324503301e-15 -9.7962628641060595e-16 1 -1 -3.5032461608120427e-46 -2.1355534324503301e-15 
2 -8.9999999999999503 -4.4999999999999796 -24 2.0920442784627401e-30 -1 -9.7962628641060595e-16 2.1355534324503301e-15 9.7962628641060595e-16 -1 1 3.5032461608120427e-46 2.1355534324503301e-15 2.1499999999999999
2 -8.9999999999999503 -4.4999999999999796 -24 2.0920442784627401e-30 -1 -9.7962628641060595e-16 2.1355534324503301e-15 9.7962628641060595e-16 -1 1 3.5032461608120427e-46 2.1355534324503301e-15 2.1499999999999999
3 -8.9999999999999503 -0.99999999999997602 -24 -2.0920442784627401e-30 1 9.7962628641060694e-16 2.1355534324503301e-15 9.7962628641060694e-16 -1 -1 1.7516230804060213e-45 -2.1355534324503301e-15 4.2000000000000002
0.78539816339744895
3 -8.9999999999999893 -0.999999999999994 -6.0000000000000204 -2.0920442784627401e-30 1 9.7962628641060694e-16 2.1355534324503301e-15 9.7962628641060694e-16 -1 -1 1.7516230804060213e-45 -2.1355534324503301e-15 4.2000000000000002
0.78539816339744895
2 -8.9999999999999893 -0.999999999999994 -6.0000000000000204 2.0920442784627401e-30 -1 -9.7962628641060694e-16 2.1355534324503301e-15 9.7962628641060694e-16 -1 1 -1.7516230804060213e-45 2.1355534324503301e-15 4.2000000000000002
3 -8.9999999999999503 -0.99999999999997602 -24 -2.0920442784627401e-30 1 9.7962628641060694e-16 2.1355534324503301e-15 9.7962628641060694e-16 -1 -1 1.7516230804060213e-45 -2.1355534324503301e-15 4.2000000000000002
0.78539816339744895
2 -8.9999999999999503 -0.99999999999997602 -24 2.0920442784627401e-30 -1 -9.7962628641060694e-16 2.1355534324503301e-15 9.7962628641060694e-16 -1 1 -1.7516230804060213e-45 2.1355534324503301e-15 4.2000000000000002
2 -8.9999999999999893 -0.999999999999994 -6.0000000000000204 2.0920442784627401e-30 -1 -9.7962628641060694e-16 2.1355534324503301e-15 9.7962628641060694e-16 -1 1 -1.7516230804060213e-45 2.1355534324503301e-15 4.2000000000000002
1 -4 -0.5 -7.1054273576010003e-15 -2.0920442784627401e-30 1 9.7962628641060595e-16 -1 -3.5032461608120427e-46 -2.1355534324503301e-15 -2.1355534324503301e-15 -9.7962628641060595e-16 1 
2 -8.9999999999999503 -0.99999999999997602 -24 2.0920442784627401e-30 -1 -9.7962628641060694e-16 2.1355534324503301e-15 9.7962628641060694e-16 -1 1 -1.7516230804060213e-45 2.1355534324503301e-15 4.2000000000000002
2 0 0 3.5527136788005001e-15 -2.1355534324503301e-15 -9.7962628641060595e-16 1 -1 3.5032461608120427e-46 -2.1355534324503301e-15 2.0920442784627394e-30 -1 -9.7962628641060595e-16 1.5
2 0 0 3.5527136788005001e-15 -2.1355534324503301e-15 -9.7962628641060595e-16 1 -1 3.5032461608120427e-46 -2.1355534324503301e-15 2.0920442784627394e-30 -1 -9.7962628641060595e-16 1.5
1 6.4066602973509796e-14 2.9388788592318197e-14 -30 2.1355534324503301e-15 9.7962628641060595e-16 -1 -1 3.5032461608120427e-46 -2.1355534324503301e-15 -2.0920442784627394e-30 1 9.7962628641060595e-16 
1 15.500000000000099 -10.5 -22.550000000000001 2.1355534324503301e-15 9.7962628641060595e-16 -1 -1 -1.7347234759768101e-16 -2.1355534324503301e-15 -1.734723475976831e-16 1 9.7962628641060556e-16 
2 0 0 3.5527136788005001e-15 -2.1355534324503301e-15 -9.7962628641060595e-16 1 -1 3.5032461608120427e-46 -2.1355534324503301e-15 2.0920442784627394e-30 -1 -9.7962628641060595e-16 1.5
2 0 0 3.5527136788005001e-15 -2.1355534324503301e-15 -9.7962628641060595e-16 1 -1 3.5032461608120427e-46 -2.1355534324503301e-15 2.0920442784627394e-30 -1 -9.7962628641060595e-16 1.5
1 -4.49999999999996 -10.5 -15 -2.2222896062491701e-15 -9.7962628641060595e-16 1 2.0920442784627401e-30 -1 -9.7962628641060595e-16 1 -8.4969035836022056e-32 2.2222896062491701e-15 
1 15.5 -10.5 -7.5499999999999803 2.1355534324503301e-15 9.7962628641060595e-16 -1 -1 -1.7347234759768101e-16 -2.1355534324503301e-15 -1.734723475976831e-16 1 9.7962628641060556e-16 
1 4 0.99999999999999301 1.4210854715202001e-14 0.70710678118654902 0.70710678118654602 2.2027647038213699e-15 2.1355534324503281e-15 9.7962628641060437e-16 -1 -0.70710678118654602 0.70710678118654902 -8.173639235222967e-16 
1 4 0 1.06581410364015e-14 1 0 2.1355534324503301e-15 2.1355534324503301e-15 9.7962628641060595e-16 -1 -2.0920442784627398e-30 1 9.7962628641060595e-16 
1 2 3 1.06581410364015e-14 -2.0920442784627401e-30 1 9.7962628641060595e-16 -1 -3.5032461608120427e-46 -2.1355534324503301e-15 -2.1355534324503301e-15 -9.7962628641060595e-16 1 
1 -4 0.99999999999999301 -3.5527136788005001e-15 -0.70710678118654902 0.70710678118654602 -8.1736392352230301e-16 -2.1355534324503281e-15 -9.7962628641060871e-16 1 0.70710678118654602 0.70710678118654902 2.2027647038213695e-15 
1 -4 0.99999999999999301 -3.5527136788005001e-15 -1 0 -2.1355534324503301e-15 -2.0920442784627398e-30 1 9.7962628641060595e-16 2.1355534324503301e-15 9.7962628641060595e-16 -1 
1 -4.2999999999999998 -4.5 -1.06581410364015e-14 1 0 2.1355534324503301e-15 2.1355534324503301e-15 9.7962628641060595e-16 -1 -2.0920442784627398e-30 1 9.7962628641060595e-16 
1 1.26217744835362e-29 -4 0 2.0920442784627401e-30 -1 -9.7962628641060595e-16 -2.1355534324503301e-15 -9.7962628641060595e-16 1 -1 -3.5032461608120427e-46 -2.1355534324503301e-15 
2 0 0 3.5527136788005001e-15 -2.1355534324503301e-15 -9.7962628641060595e-16 1 -1 3.5032461608120427e-46 -2.1355534324503301e-15 2.0920442784627394e-30 -1 -9.7962628641060595e-16 4
1 4 0.99999999999999301 1.4210854715202001e-14 0.70710678118654902 0.70710678118654602 2.2027647038213699e-15 2.1355534324503281e-15 9.7962628641060437e-16 -1 -0.70710678118654602 0.70710678118654902 -8.173639235222967e-16 
1 4 0 1.06581410364015e-14 1 0 2.1355534324503301e-15 2.1355534324503301e-15 9.7962628641060595e-16 -1 -2.0920442784627398e-30 1 9.7962628641060595e-16 
1 2 3 1.06581410364015e-14 -2.0920442784627401e-30 1 9.7962628641060595e-16 -1 -3.5032461608120427e-46 -2.1355534324503301e-15 -2.1355534324503301e-15 -9.7962628641060595e-16 1 
1 -4 0.99999999999999301 -3.5527136788005001e-15 -0.70710678118654902 0.70710678118654602 -8.1736392352230301e-16 -2.1355534324503281e-15 -9.7962628641060871e-16 1 0.70710678118654602 0.70710678118654902 2.2027647038213695e-15 
1 -4 0.99999999999999301 -3.5527136788005001e-15 -1 0 -2.1355534324503301e-15 -2.0920442784627398e-30 1 9.7962628641060595e-16 2.1355534324503301e-15 9.7962628641060595e-16 -1 
1 -4.4999999999999796 -10.5 -7.5500000000000203 -1 -1.27453553754034e-31 -2.00544917175207e-15 -2.0920442784627398e-30 1 9.7962628641060595e-16 2.00544917175207e-15 9.7962628641060595e-16 -1 
1 -4.4999999999999503 -10.5 -22.550000000000001 -1 -2.25083538638471e-31 -1.9057887336454501e-15 -2.0920442784627345e-30 1 9.7962628641060595e-16 1.9057887336454501e-15 9.7962628641060595e-16 -1 
1 -14.199999999999999 -0.5 -2.8421709430404001e-14 -0.70710678118654902 0.70710678118654602 -8.1736392352230202e-16 -2.1355534324503273e-15 -9.796262864106095e-16 1 0.70710678118654602 0.70710678118654902 2.2027647038213695e-15 
1 0 0 3.5527136788005001e-15 2.1355534324503301e-15 9.7962628641060595e-16 -1 -1 3.5032461608120427e-46 -2.1355534324503301e-15 -2.0920442784627394e-30 1 9.7962628641060595e-16 
1 -15 -4.5 -3.1974423109204502e-14 -1 -5.4210108624275202e-16 -2.1355534324503301e-15 2.1355534324503297e-15 9.7962628641060595e-16 -1 5.4210108624275409e-16 -1 -9.7962628641060477e-16 
1 -4.2999999999999998 -4.5 -1.06581410364015e-14 1 0 2.1355534324503301e-15 2.1355534324503301e-15 9.7962628641060595e-16 -1 -2.0920442784627398e-30 1 9.7962628641060595e-16 
1 1.26217744835362e-29 -4 0 2.0920442784627401e-30 -1 -9.7962628641060595e-16 -2.1355534324503301e-15 -9.7962628641060595e-16 1 -1 -3.5032461608120427e-46 -2.1355534324503301e-15 
2 0 0 3.5527136788005001e-15 -2.1355534324503301e-15 -9.7962628641060595e-16 1 -1 3.5032461608120427e-46 -2.1355534324503301e-15 2.0920442784627394e-30 -1 -9.7962628641060595e-16 4
2 9 -4.5 -24 0 -1 0 0 0 1 -1 0 0 2.1499999999999999
2 9 -4.5 -24 0 -1 0 0 0 1 -1 0 0 2.1499999999999999
3 9 -1 -24 -0 1 -0 0 0 1 1 0 -0 4.2000000000000002
0.78539816339744895
1 4.2999999999999998 -4.5 -30 0 -1 0 0 0 -1 1 0 0 
2 9 -4.5 -6 0 -1 0 0 0 1 -1 0 0 2.1499999999999999
2 9 -4.5 -6 0 -1 0 0 0 1 -1 0 0 2.1499999999999999
3 9 -1 -6 -0 1 -0 0 0 1 1 0 -0 4.2000000000000002
0.78539816339744895
3 9 -1 -24 -0 1 -0 0 0 1 1 0 -0 4.2000000000000002
0.78539816339744895
2 9 -1 -24 0 -1 0 0 0 1 -1 0 0 4.2000000000000002
3 9 -1 -6 -0 1 -0 0 0 1 1 0 -0 4.2000000000000002
0.78539816339744895
2 9 -1 -6 0 -1 0 0 0 1 -1 0 0 4.2000000000000002
2 9 -1 -24 0 -1 0 0 0 1 -1 0 0 4.2000000000000002
1 4 -0.5 -30 0 1 0 1 0 -0 -0 0 -1 
2 9 -1 -6 0 -1 0 0 0 1 -1 0 0 4.2000000000000002
2 0 0 -30 0 0 -1 1 0 0 0 -1 0 1.5
2 0 0 -30 0 0 -1 1 0 0 0 -1 0 1.5
1 0 0 0 0 0 1 1 -0 0 0 1 -0 
1 -15.5 -10.5 -7.4500000000000002 5.2202435743988202e-48 3.0092655381050599e-32 1 1 -1.7347234759768101e-16 1.5192908393215678e-62 1.7347234759768101e-16 1 -3.0092655381050599e-32 
2 0 0 -30 0 0 -1 1 0 0 0 -1 0 1.5
2 0 0 -30 0 0 -1 1 0 0 0 -1 0 1.5
1 4.4999999999999902 -10.5 -15 8.6736173798840305e-17 0 -1 0 -1 0 -1 -0 -8.6736173798840305e-17 
1 -15.5 -10.5 -22.449999999999999 5.2202435743988202e-48 3.0092655381050599e-32 1 1 -1.7347234759768101e-16 1.5192908393215678e-62 1.7347234759768101e-16 1 -3.0092655381050599e-32 
1 -4 0.99999999999999301 -30 -0.70710678118654902 0.70710678118654602 0 0 0 1 0.70710678118654602 0.70710678118654902 -0 
1 -4 0 -30 -1 0 0 0 0 1 0 1 -0 
1 -2 3 -30 0 1 0 1 0 -0 -0 0 -1 
1 4 0.99999999999999301 -30 0.70710678118654902 0.70710678118654602 0 0 0 -1 -0.70710678118654602 0.70710678118654902 0 
1 4 0.99999999999999301 -30 1 -0 0 0 1 0 -0 0 1 
1 4.2999999999999998 -4.5 -30 -1 0 0 0 0 1 0 1 -0 
1 0 -4 -30 0 -1 0 0 0 -1 1 0 0 
2 0 0 -30 0 0 -1 1 0 0 0 -1 0 4
1 -4 0.99999999999999301 -30 -0.70710678118654902 0.70710678118654602 0 0 0 1 0.70710678118654602 0.70710678118654902 -0 
1 -4 0 -30 -1 0 0 0 0 1 0 1 -0 
1 -2 3 -30 0 1 0 1 0 -0 -0 0 -1 
1 4 0.99999999999999301 -30 0.70710678118654902 0.70710678118654602 0 0 0 -1 -0.70710678118654602 0.70710678118654902 0 
1 4 0.99999999999999301 -30 1 -0 0 0 1 0 -0 0 1 
1 4.4999999999999902 -10.5 -22.449999999999999 1 0 -1.30104260698261e-16 0 1 0 1.30104260698261e-16 -0 1 
1 4.5 -10.5 -7.4500000000000002 1 0 -2.2976469880487499e-16 0 1 0 2.2976469880487499e-16 -0 1 
1 14.199999999999999 -0.5 -30 0.70710678118654902 0.70710678118654602 0 0 0 -1 -0.70710678118654602 0.70710678118654902 0 
1 0 0 -30 0 0 1 1 -0 0 0 1 -0 
1 15 -4.5 -30 1 -5.4210108624275202e-16 0 0 0 1 -5.4210108624275202e-16 -1 0 
1 4.2999999999999998 -4.5 -30 -1 0 0 0 0 1 0 1 -0 
1 0 -4 -30 0 -1 0 0 0 -1 1 0 0 
2 0 0 -30 0 0 -1 1 0 0 0 -1 0 4
Triangulations 0

TShapes 611
Ve
1e-07
1.13747701294069 -0.629401338600063 0
0 0

0101101
*
Ve
1e-07
-1.13747701294069 0.629401338600063 0
0 0

0101101
*
Ed
 1e-07 1 1 0
1  1 0 0 3.14159265358979
2  1 1 0 0 3.14159265358979
4 C0 1 0 2 0
0

0101000
+611 0 -610 0 *
Ve
1e-07
1.31247347647002 -0.726232313769299 -0.199999999999996
0 0

0101101
*
Ed
 1e-07 1 1 0
1  2 0 0 0.282842712474612
2  2 1 0 0 0.282842712474612
2  3 3 0 0 0.282842712474612
4 CN 1 0 3 0
0

0101000
+611 0 -608 0 *
Ve
1e-07
-1.31247347647002 0.726232313769299 -0.199999999999996
0 0

0101101
*
Ed
 1e-07 1 1 0
1  3 0 3.14159265358979 6.28318530717959
2  4 1 0 3.14159265358979 6.28318530717959
2  5 4 0 3.14159265358979 6.28318530717959
4 C0 1 0 4 0
0

0101000
+606 0 -608 0 *
Ed
 1e-07 1 1 0
1  4 0 0 0.282842712474612
2  6 1 0 0 0.282842712474612
2  7 3 0 0 0.282842712474612
4 CN 1 0 3 0
0

0101000
+610 0 -606 0 *
Wi

0101100
-609 0 +607 0 -605 0 -604 0 *
Fa
0  1e-07 1 0

0111000
+603 0 *
Ve
1e-07
-1.13747701294068 0.629401338600057 -30
0 0

0101101
*
Ve
1e-07
1.13747701294068 -0.629401338600057 -30
0 0

0101101
*
Ed
 1e-07 1 1 0
1  5 0 3.14159265358979 6.28318530717959
2  8 5 0 3.14159265358979 6.28318530717959
4 C0 5 0 6 0
0

0101000
+601 0 -600 0 *
Ve
1e-07
-1.31247347647002 0.726232313769299 -29.8
0 0

0101101
*
Ed
 1e-07 1 1 0
1  6 0 -0.282842712474622 0
2  9 5 0 -0.282842712474622 0
2  10 7 0 -0.282842712474622 0
4 CN 5 0 7 0
0

0101000
+601 0 -598 0 *
Ve
1e-07
1.31247347647002 -0.726232313769299 -29.8
0 0

0101101
*
Ed
 1e-07 1 1 0
1  7 0 0 3.14159265358979
2  11 5 0 0 3.14159265358979
2  12 4 0 0 3.14159265358979
4 C0 5 0 4 0
0

0101000
+596 0 -598 0 *
Ed
 1e-07 1 1 0
1  8 0 -0.282842712474622 0
2  13 5 0 -0.282842712474622 0
2  14 7 0 -0.282842712474622 0
4 CN 5 0 7 0
0

0101000
+600 0 -596 0 *
Wi

0101100
-599 0 +597 0 -595 0 -594 0 *
Fa
0  1e-07 5 0

0111000
+593 0 *
Ed
 1e-07 1 1 0
1  9 0 0.199999999999996 29.8
2  15 4 0 0.199999999999996 29.8
2  16 8 0 0.199999999999996 29.8
4 CN 4 0 8 0
0

0101000
+608 0 -596 0 *
Ed
 1e-07 1 1 0
1  10 0 0.199999999999996 29.8
2  17 4 0 0.199999999999996 29.8
2  18 8 0 0.199999999999996 29.8
4 CN 4 0 8 0
0

0101000
+606 0 -598 0 *
Wi

0101100
+605 0 +591 0 +595 0 -590 0 *
Fa
0  1e-07 4 0

0111000
+589 0 *
Ed
 1e-07 1 1 0
1  11 0 0 3.14159265358979
2  19 8 0 0 3.14159265358979
2  20 3 0 0 3.14159265358979
4 C0 8 0 3 0
0

0101000
+608 0 -606 0 *
Ed
 1e-07 1 1 0
1  12 0 3.14159265358979 6.28318530717959
2  21 8 0 3.14159265358979 6.28318530717959
2  22 7 0 3.14159265358979 6.28318530717959
4 C0 8 0 7 0
0

0101000
+598 0 -596 0 *
Wi

0101100
-591 0 +587 0 +590 0 +586 0 *
Fa
0  1e-07 8 0

0111000
+585 0 *
Ed
 1e-07 1 1 0
1  13 0 3.14159265358979 6.28318530717959
2  23 3 0 3.14159265358979 6.28318530717959
4 C0 2 0 3 0
0

0101000
+610 0 -611 0 *
Wi

0101100
+583 0 +609 0 *
Fa
0  1e-07 2 0

0111000
+582 0 *
Ed
 1e-07 1 1 0
1  14 0 0 3.14159265358979
2  24 7 0 0 3.14159265358979
4 C0 6 0 7 0
0

0101000
+600 0 -601 0 *
Wi

0101100
+580 0 +599 0 *
Fa
0  1e-07 6 0

0111000
-579 0 *
Wi

0101100
-597 0 -580 0 +594 0 -586 0 *
Fa
0  1e-07 7 0

0111000
+577 0 *
Wi

0101100
-607 0 -583 0 +604 0 -587 0 *
Fa
0  1e-07 3 0

0111000
+575 0 *
Sh

0101100
+602 0 +592 0 +588 0 +584 0 +581 0 -578 0 +576 0 +574 0 *
So

0100000
+573 0 *
Ve
1e-07
-8.99999999999998 -4.49999999999999 -8.15000000000002
0 0

0101101
*
Ve
1e-07
-8.99999999999998 -3.04999999999999 -8.15000000000002
0 0

0101101
*
Ed
 1e-07 1 1 0
1  15 0 0 1.45
2  25 9 0 0 1.45
2  26 10 0 0 1.45
4 CN 9 0 10 0
0

0101000
+571 0 -570 0 *
Ve
1e-07
-8.99999999999999 -3.05 -3.85000000000002
0 0

0101101
*
Ed
 1e-07 1 1 0
1  16 0 0 3.14159265358979
2  27 9 0 0 3.14159265358979
2  28 11 0 0 3.14159265358979
4 C0 9 0 11 0
0

0101000
+570 0 -568 0 *
Ve
1e-07
-8.99999999999999 -4.5 -3.85000000000002
0 0

0101101
*
Ed
 1e-07 1 1 0
1  17 0 0 1.45
2  29 9 0 0 1.45
2  30 10 0 0 1.45
4 CN 9 0 10 0
0

0101000
+566 0 -568 0 *
Ed
 1e-07 1 1 0
1  18 0 0 3.14159265358979
2  31 9 0 0 3.14159265358979
4 C0 9 0 12 0
0

0101000
+566 0 -571 0 *
Wi

0101100
+569 0 +567 0 -565 0 +564 0 *
Fa
0  1e-07 9 0

0111000
+563 0 *
Ve
1e-07
-8.99999999999995 -4.49999999999997 -26.15
0 0

0101101
*
Ve
1e-07
-8.99999999999995 -3.04999999999997 -26.15
0 0

0101101
*
Ed
 1e-07 1 1 0
1  19 0 0 1.45
2  32 13 0 0 1.45
2  33 14 0 0 1.45
4 CN 13 0 14 0
0

0101000
+561 0 -560 0 *
Ve
1e-07
-8.99999999999996 -3.04999999999997 -21.85
0 0

0101101
*
Ed
 1e-07 1 1 0
1  20 0 0 3.14159265358979
2  34 13 0 0 3.14159265358979
2  35 15 0 0 3.14159265358979
4 C0 13 0 15 0
0

0101000
+560 0 -558 0 *
Ve
1e-07
-8.99999999999996 -4.49999999999998 -21.85
0 0

0101101
*
Ed
 1e-07 1 1 0
1  21 0 0 1.45000000000001
2  36 13 0 0 1.45000000000001
2  37 14 0 0 1.45000000000001
4 CN 13 0 14 0
0

0101000
+556 0 -558 0 *
Ed
 1e-07 1 1 0
1  22 0 3.14159265358979 6.28318530717959
2  38 13 0 3.14159265358979 6.28318530717959
4 C0 13 0 12 0
0

0101000
+556 0 -561 0 *
Wi

0101100
+559 0 +557 0 -555 0 +554 0 *
Fa
0  1e-07 13 0

0111000
+553 0 *
Ve
1e-07
-8.99999999999998 -0.999999999999989 -10.2
0 0

0101101
*
Ed
 1e-07 1 1 0
1  23 0 -2.89913780286483 0
2  39 11 0 -2.89913780286483 0
2  40 16 0 -2.89913780286483 0
4 CN 11 0 16 0
0

0101000
+570 0 -551 0 *
Ve
1e-07
-9 -0.999999999999998 -1.80000000000001
0 0

0101101
*
Ed
 1e-07 1 1 0
1  24 0 3.14159265358979 6.28318530717959
2  41 11 0 3.14159265358979 6.28318530717959
2  42 17 0 3.14159265358979 6.28318530717959
4 C0 11 0 17 0
0

0101000
+549 0 -551 0 *
Ed
 1e-07 1 1 0
1  25 0 -2.89913780286485 0
2  43 11 0 -2.89913780286485 0
2  44 16 0 -2.89913780286485 0
4 CN 11 0 16 0
0

0101000
+568 0 -549 0 *
Wi

0101100
+550 0 -548 0 -547 0 -567 0 *
Fa
0  1e-07 11 0

0111000
+546 0 *
Ve
1e-07
-8.99999999999994 -0.999999999999972 -28.2
0 0

0101101
*
Ed
 1e-07 1 1 0
1  26 0 -2.89913780286484 0
2  45 15 0 -2.89913780286484 0
2  46 18 0 -2.89913780286484 0
4 CN 15 0 18 0
0

0101000
+560 0 -544 0 *
Ve
1e-07
-8.99999999999996 -0.99999999999998 -19.8
0 0

0101101
*
Ed
 1e-07 1 1 0
1  27 0 3.14159265358979 6.28318530717959
2  47 15 0 3.14159265358979 6.28318530717959
2  48 19 0 3.14159265358979 6.28318530717959
4 C0 15 0 19 0
0

0101000
+542 0 -544 0 *
Ed
 1e-07 1 1 0
1  28 0 -2.89913780286484 0
2  49 15 0 -2.89913780286484 0
2  50 18 0 -2.89913780286484 0
4 CN 15 0 18 0
0

0101000
+558 0 -542 0 *
Wi

0101100
+543 0 -541 0 -540 0 -557 0 *
Fa
0  1e-07 15 0

0111000
+539 0 *
Ve
1e-07
-8.99999999999998 -0.49999999999999 -10.2
0 0

0101101
*
Ed
 1e-07 1 1 0
1  29 0 0 0.499999999999999
2  51 17 0 0 0.499999999999999
2  52 20 0 0 0.499999999999999
4 CN 17 0 20 0
0

0101000
+551 0 -537 0 *
Ve
1e-07
-9 -0.499999999999998 -1.80000000000001
0 0

0101101
*
Ed
 1e-07 1 1 0
1  30 0 0 3.14159265358979
2  53 17 0 0 3.14159265358979
4 C0 17 0 21 0
0

0101000
+535 0 -537 0 *
Ed
 1e-07 1 1 0
1  31 0 0 0.5
2  54 17 0 0 0.5
2  55 20 0 0 0.5
4 CN 17 0 20 0
0

0101000
+549 0 -535 0 *
Wi

0101100
+536 0 -534 0 -533 0 +548 0 *
Fa
0  1e-07 17 0

0111000
+532 0 *
Ve
1e-07
-8.99999999999994 -0.499999999999972 -28.2
0 0

0101101
*
Ed
 1e-07 1 1 0
1  32 0 0 0.5
2  56 19 0 0 0.5
2  57 22 0 0 0.5
4 CN 19 0 22 0
0

0101000
+544 0 -530 0 *
Ve
1e-07
-8.99999999999996 -0.49999999999998 -19.8
0 0

0101101
*
Ed
 1e-07 1 1 0
1  33 0 3.14159265358979 6.28318530717959
2  58 19 0 3.14159265358979 6.28318530717959
4 C0 19 0 21 0
0

0101000
+528 0 -530 0 *
Ed
 1e-07 1 1 0
1  34 0 0 0.5
2  59 19 0 0 0.5
2  60 22 0 0 0.5
4 CN 19 0 22 0
0

0101000
+542 0 -528 0 *
Wi

0101100
+529 0 -527 0 -526 0 +541 0 *
Fa
0  1e-07 19 0

0111000
+525 0 *
Ve
1e-07
-1.49999999999995 2.20905727585592e-14 -22.55
0 0

0101101
*
Ve
1e-07
-1.49999999999994 2.93887885923182e-14 -30
0 0

0101101
*
Ed
 1e-07 1 1 0
1  35 0 22.55 30
2  61 23 0 22.55 30
2  62 24 0 22.55 30
4 CN 23 0 24 0
0

0101000
+523 0 -522 0 *
Ve
1e-07
1.50000000000006 2.95724856121903e-14 -30
0 0

0101101
*
Ed
 1e-07 1 1 0
1  36 0 3.14159265358979 6.28318530717959
2  63 23 0 3.14159265358979 6.28318530717959
4 C0 23 0 25 0
0

0101000
+520 0 -522 0 *
Ve
1e-07
1.50000000000005 2.22742697784313e-14 -22.55
0 0

0101101
*
Ed
 1e-07 1 1 0
1  37 0 22.55 30
2  64 23 0 22.55 30
2  65 24 0 22.55 30
4 CN 23 0 24 0
0

0101000
+518 0 -520 0 *
Ed
 1e-07 1 1 0
1  38 0 0 3.14159265358979
2  66 23 0 0 3.14159265358979
4 C0 23 0 26 0
0

0101000
+523 0 -518 0 *
Wi

0101100
+521 0 -519 0 -517 0 -516 0 *
Fa
0  1e-07 23 0

0111000
+515 0 *
Ve
1e-07
-1.49999999999998 7.39617846240008e-15 -7.55
0 0

0101101
*
Ve
1e-07
-1.49999999999997 1.46943942961591e-14 -15
0 0

0101101
*
Ed
 1e-07 1 1 0
1  39 0 7.55 15
2  67 27 0 7.55 15
2  68 28 0 7.55 15
4 CN 27 0 28 0
0

0101000
+513 0 -512 0 *
Ve
1e-07
1.50000000000003 1.48780913160312e-14 -15
0 0

0101101
*
Ed
 1e-07 1 1 0
1  40 0 0 3.14159265358979
2  69 27 0 0 3.14159265358979
4 C0 27 0 29 0
0

0101000
+510 0 -512 0 *
Ve
1e-07
1.50000000000002 7.57987548227218e-15 -7.54999999999999
0 0

0101101
*
Ed
 1e-07 1 1 0
1  41 0 7.55 15
2  70 27 0 7.55 15
2  71 28 0 7.55 15
4 CN 27 0 28 0
0

0101000
+508 0 -510 0 *
Ed
 1e-07 1 1 0
1  42 0 0 3.14159265358979
2  72 27 0 0 3.14159265358979
4 C0 27 0 30 0
0

0101000
+513 0 -508 0 *
Wi

0101100
+511 0 -509 0 -507 0 -506 0 *
Fa
0  1e-07 27 0

0111000
+505 0 *
Ve
1e-07
4.00000000000002 1 -7.54999999999999
0 0

0101101
*
Ve
1e-07
2.00000000000002 3.00000000000001 -7.54999999999999
0 0

0101101
*
Ed
 1e-07 1 1 0
1  43 0 0 2.8284271247462
4 C0 31 0 30 0
0

0101000
+503 0 -502 0 *
Ve
1e-07
4.00000000000003 1.00000000000001 -15
0 0

0101101
*
Ed
 1e-07 1 1 0
1  44 0 7.55 15
4 C0 31 0 32 0
0

0101000
+503 0 -500 0 *
Ve
1e-07
2.00000000000003 3.00000000000001 -15
0 0

0101101
*
Ed
 1e-07 1 1 0
1  45 0 -2.82842712474619 0
4 C0 31 0 29 0
0

0101000
+498 0 -500 0 *
Ed
 1e-07 1 1 0
1  46 0 7.55 15
4 C0 31 0 33 0
0

0101000
+502 0 -498 0 *
Wi

0101100
-501 0 +499 0 -497 0 -496 0 *
Fa
0  1e-07 31 0

0111000
+495 0 *
Ve
1e-07
-1.99999999999998 3.00000000000001 -7.55
0 0

0101101
*
Ed
 1e-07 1 1 0
1  47 0 -0 4
4 C0 33 0 30 0
0

0101000
+502 0 -493 0 *
Ve
1e-07
-1.99999999999997 3.00000000000001 -15
0 0

0101101
*
Ed
 1e-07 1 1 0
1  48 0 -4 0
4 C0 33 0 29 0
0

0101000
+491 0 -498 0 *
Ed
 1e-07 1 1 0
1  49 0 7.55 15
4 C0 33 0 34 0
0

0101000
+493 0 -491 0 *
Wi

0101100
-492 0 +496 0 -490 0 -489 0 *
Fa
0  1e-07 33 0

0111000
+488 0 *
Ve
1e-07
-3.99999999999998 1 -7.55
0 0

0101101
*
Ed
 1e-07 1 1 0
1  50 0 -2.8284271247462 -0
4 C0 34 0 30 0
0

0101000
+493 0 -486 0 *
Ve
1e-07
-3.99999999999997 1.00000000000001 -15
0 0

0101101
*
Ed
 1e-07 1 1 0
1  51 0 0 2.82842712474619
4 C0 34 0 29 0
0

0101000
+484 0 -491 0 *
Ed
 1e-07 1 1 0
1  52 0 7.55 15
4 C0 34 0 35 0
0

0101000
+486 0 -484 0 *
Wi

0101100
-485 0 +489 0 -483 0 -482 0 *
Fa
0  1e-07 34 0

0111000
+481 0 *
Ve
1e-07
-3.99999999999998 -0.499999999999992 -7.55000000000001
0 0

0101101
*
Ed
 1e-07 1 1 0
1  53 0 0 1.49999999999999
4 C0 35 0 30 0
0

0101000
+486 0 -479 0 *
Ve
1e-07
-3.99999999999997 -0.499999999999985 -15
0 0

0101101
*
Ed
 1e-07 1 1 0
1  54 0 -1.5 0
4 C0 35 0 29 0
0

0101000
+477 0 -484 0 *
Ed
 1e-07 1 1 0
1  55 0 7.55 15
4 C0 35 0 21 0
0

0101000
+479 0 -477 0 *
Wi

0101100
-478 0 +482 0 -476 0 -475 0 *
Fa
0  1e-07 35 0

0111000
+474 0 *
Ve
1e-07
-4.29999999999998 -4.49999999999999 -7.55000000000001
0 0

0101101
*
Ve
1e-07
-4.29999999999998 -3.99999999999999 -7.55000000000001
0 0

0101101
*
Ed
 1e-07 1 1 0
1  56 0 0 0.5
4 C0 36 0 30 0
0

0101000
+472 0 -471 0 *
Ve
1e-07
-4.29999999999996 -4.49999999999999 -15
0 0

0101101
*
Ed
 1e-07 1 1 0
1  57 0 7.55 15
4 C0 36 0 12 0
0

0101000
+472 0 -469 0 *
Ve
1e-07
-4.29999999999996 -3.99999999999999 -15
0 0

0101101
*
Ed
 1e-07 1 1 0
1  58 0 -0.5 0
4 C0 36 0 29 0
0

0101000
+467 0 -469 0 *
Ed
 1e-07 1 1 0
1  59 0 7.55 15
4 C0 36 0 37 0
0

0101000
+471 0 -467 0 *
Wi

0101100
-470 0 +468 0 -466 0 -465 0 *
Fa
0  1e-07 36 0

0111000
+464 0 *
Ve
1e-07
1.61234302678845e-14 -3.99999999999999 -7.55
0 0

0101101
*
Ed
 1e-07 1 1 0
1  60 0 -4.3 1.309718077247e-15
4 C0 37 0 30 0
0

0101000
+471 0 -462 0 *
Ve
1e-07
3.20333014867549e-14 -3.99999999999999 -15
0 0

0101101
*
Ed
 1e-07 1 1 0
1  61 0 1.3010426069826e-15 4.29999999999999
4 C0 37 0 29 0
0

0101000
+460 0 -467 0 *
Ed
 1e-07 1 1 0
1  62 0 7.55 15
2  73 38 0 7.55 15
4 G1 37 0 38 0
0

0101000
+462 0 -460 0 *
Wi

0101100
-461 0 +465 0 -459 0 -458 0 *
Fa
0  1e-07 37 0

0111000
+457 0 *
Ve
1e-07
4.00000000000002 7.88603718205902e-15 -7.54999999999999
0 0

0101101
*
Ed
 1e-07 1 1 0
1  63 0 1.5707963267949 3.14159265358979
2  74 38 0 1.5707963267949 3.14159265358979
4 C0 38 0 30 0
0

0101000
+462 0 -455 0 *
Ve
1e-07
4.00000000000003 1.5184250654913e-14 -15
0 0

0101101
*
Ed
 1e-07 1 1 0
1  64 0 0 1.5707963267949
2  75 38 0 0 1.5707963267949
4 C0 38 0 29 0
0

0101000
+453 0 -460 0 *
Ed
 1e-07 1 1 0
1  65 0 7.55 15
2  76 38 0 7.55 15
4 G1 38 0 32 0
0

0101000
+455 0 -453 0 *
Wi

0101100
-454 0 +458 0 -452 0 -451 0 *
Fa
0  1e-07 38 0

0111000
+450 0 *
Ed
 1e-07 1 1 0
1  66 0 4.89858719658941e-16 0.999999999999993
4 C0 32 0 30 0
0

0101000
+455 0 -503 0 *
Ed
 1e-07 1 1 0
1  67 0 -0.999999999999995 -4.898563587539e-16
4 C0 32 0 29 0
0

0101000
+500 0 -453 0 *
Wi

0101100
-448 0 +451 0 -447 0 -499 0 *
Fa
0  1e-07 32 0

0111000
+446 0 *
Ed
 1e-07 1 1 0
1  68 0 3.14159265358979 6.28318530717959
2  77 28 0 3.14159265358979 6.28318530717959
4 C0 28 0 29 0
0

0101000
+512 0 -510 0 *
Ed
 1e-07 1 1 0
1  69 0 3.14159265358979 6.28318530717959
2  78 28 0 3.14159265358979 6.28318530717959
4 C0 28 0 30 0
0

0101000
+508 0 -513 0 *
Wi

0101100
-444 0 -511 0 -443 0 +507 0 *
Fa
0  1e-07 28 0

0111000
+442 0 *
Ve
1e-07
4.00000000000005 1.00000000000002 -22.55
0 0

0101101
*
Ve
1e-07
2.00000000000005 3.00000000000002 -22.55
0 0

0101101
*
Ed
 1e-07 1 1 0
1  70 0 0 2.82842712474619
4 C0 39 0 26 0
0

0101000
+440 0 -439 0 *
Ve
1e-07
4.00000000000006 1.00000000000002 -30
0 0

0101101
*
Ed
 1e-07 1 1 0
1  71 0 22.55 30
4 C0 39 0 40 0
0

0101000
+440 0 -437 0 *
Ve
1e-07
2.00000000000006 3.00000000000003 -30
0 0

0101101
*
Ed
 1e-07 1 1 0
1  72 0 -2.8284271247462 0
4 C0 39 0 25 0
0

0101000
+435 0 -437 0 *
Ed
 1e-07 1 1 0
1  73 0 22.55 30
4 C0 39 0 41 0
0

0101000
+439 0 -435 0 *
Wi

0101100
-438 0 +436 0 -434 0 -433 0 *
Fa
0  1e-07 39 0

0111000
+432 0 *
Ve
1e-07
-1.99999999999995 3.00000000000002 -22.55
0 0

0101101
*
Ed
 1e-07 1 1 0
1  74 0 -1.02140518265514e-14 3.99999999999999
4 C0 41 0 26 0
0

0101000
+439 0 -430 0 *
Ve
1e-07
-1.99999999999994 3.00000000000003 -30
0 0

0101101
*
Ed
 1e-07 1 1 0
1  75 0 -4 0
4 C0 41 0 25 0
0

0101000
+428 0 -435 0 *
Ed
 1e-07 1 1 0
1  76 0 22.55 30
4 C0 41 0 42 0
0

0101000
+430 0 -428 0 *
Wi

0101100
-429 0 +433 0 -427 0 -426 0 *
Fa
0  1e-07 41 0

0111000
+425 0 *
Ve
1e-07
-3.99999999999995 1.00000000000002 -22.55
0 0

0101101
*
Ed
 1e-07 1 1 0
1  77 0 -2.8284271247462 -7.065416064077e-15
4 C0 42 0 26 0
0

0101000
+430 0 -423 0 *
Ve
1e-07
-3.99999999999994 1.00000000000002 -30
0 0

0101101
*
Ed
 1e-07 1 1 0
1  78 0 0 2.8284271247462
4 C0 42 0 25 0
0

0101000
+421 0 -428 0 *
Ed
 1e-07 1 1 0
1  79 0 22.55 30
4 C0 42 0 43 0
0

0101000
+423 0 -421 0 *
Wi

0101100
-422 0 +426 0 -420 0 -419 0 *
Fa
0  1e-07 42 0

0111000
+418 0 *
Ve
1e-07
-3.99999999999995 -0.499999999999978 -22.55
0 0

0101101
*
Ed
 1e-07 1 1 0
1  80 0 0 1.5
4 C0 43 0 26 0
0

0101000
+423 0 -416 0 *
Ve
1e-07
-3.99999999999994 -0.49999999999997 -30
0 0

0101101
*
Ed
 1e-07 1 1 0
1  81 0 -1.49999999999999 0
4 C0 43 0 25 0
0

0101000
+414 0 -421 0 *
Ed
 1e-07 1 1 0
1  82 0 22.55 30
4 C0 43 0 21 0
0

0101000
+416 0 -414 0 *
Wi

0101100
-415 0 +419 0 -413 0 -412 0 *
Fa
0  1e-07 43 0

0111000
+411 0 *
Ve
1e-07
-4.49999999999998 -0.499999999999993 -7.55000000000001
0 0

0101101
*
Ve
1e-07
-4.49999999999999 -0.5 -7.105427357601e-15
0 0

0101101
*
Ed
 1e-07 1 1 0
1  83 0 -7.55 0
4 C0 21 0 44 0
0

0101000
+409 0 -408 0 *
Ed
 1e-07 1 1 0
1  84 0 -9.76996261670138e-15 0.49999999999999
4 C0 21 0 30 0
0

0101000
+479 0 -409 0 *
Ve
1e-07
-4.49999999999996 -0.499999999999986 -15
0 0

0101101
*
Ed
 1e-07 1 1 0
1  85 0 -0.49999999999999 0
4 C0 21 0 29 0
0

0101000
+405 0 -477 0 *
Ve
1e-07
-4.49999999999995 -0.499999999999978 -22.55
0 0

0101101
*
Ed
 1e-07 1 1 0
1  86 0 -22.55 -15
4 C0 21 0 45 0
0

0101000
+403 0 -405 0 *
Ed
 1e-07 1 1 0
1  87 0 -1.02140518265514e-14 0.49999999999999
4 C0 21 0 26 0
0

0101000
+416 0 -403 0 *
Ve
1e-07
-14.1999999999999 -0.49999999999997 -30
0 0

0101101
*
Ed
 1e-07 1 1 0
1  88 0 -10.2 0
4 C0 21 0 25 0
0

0101000
+400 0 -414 0 *
Ve
1e-07
-14.2 -0.5 -2.8421709430404e-14
0 0

0101101
*
Ed
 1e-07 1 1 0
1  89 0 0 30
4 C0 21 0 46 0
0

0101000
+398 0 -400 0 *
Ed
 1e-07 1 1 0
1  90 0 -10.2 -0.49999999999999
4 C0 21 0 47 0
0

0101000
+398 0 -408 0 *
Wi

0101100
-407 0 -406 0 +475 0 -404 0 -402 0 -401 0 +412 0 -399 0 -397 0 +396 0 
*
Ed
 1e-07 1 1 0
1  91 0 3.14159265358979 6.28318530717959
2  79 20 0 3.14159265358979 6.28318530717959
4 C0 21 0 20 0
0

0101000
+537 0 -535 0 *
Wi

0101100
-394 0 -534 0 *
Ed
 1e-07 1 1 0
1  92 0 0 3.14159265358979
2  80 22 0 0 3.14159265358979
4 C0 21 0 22 0
0

0101000
+530 0 -528 0 *
Wi

0101100
-392 0 -527 0 *
Fa
0  1e-07 21 0

0111000
+395 0 +393 0 +391 0 *
Ve
1e-07
-14.9999999999999 -1.29999999999997 -30
0 0

0101101
*
Ed
 1e-07 1 1 0
1  93 0 -1.13137084989848 0
4 C0 46 0 25 0
0

0101000
+389 0 -400 0 *
Ve
1e-07
-15 -1.3 -2.8421709430404e-14
0 0

0101101
*
Ed
 1e-07 1 1 0
1  94 0 0 30
4 C0 46 0 48 0
0

0101000
+387 0 -389 0 *
Ed
 1e-07 1 1 0
1  95 0 -1.13137084989848 0
4 C0 46 0 47 0
0

0101000
+387 0 -398 0 *
Wi

0101100
-388 0 -386 0 +385 0 +397 0 *
Fa
0  1e-07 46 0

0111000
+384 0 *
Ve
1e-07
-14.9999999999999 -4.49999999999997 -30
0 0

0101101
*
Ed
 1e-07 1 1 0
1  96 0 0 3.2
4 C0 48 0 25 0
0

0101000
+382 0 -389 0 *
Ve
1e-07
-15 -4.5 -3.19744231092045e-14
0 0

0101101
*
Ed
 1e-07 1 1 0
1  97 0 0 30
4 C0 48 0 12 0
0

0101000
+380 0 -382 0 *
Ed
 1e-07 1 1 0
1  98 0 0 3.2
4 C0 48 0 47 0
0

0101000
+380 0 -387 0 *
Wi

0101100
-381 0 -379 0 +378 0 +386 0 *
Fa
0  1e-07 48 0

0111000
+377 0 *
Ve
1e-07
-4.49999999999999 -4.5 -1.06581410364015e-14
0 0

0101101
*
Ve
1e-07
-4.49999999999998 -4.49999999999999 -7.55000000000001
0 0

0101101
*
Ed
 1e-07 1 1 0
1  99 0 0 7.55
4 C0 12 0 44 0
0

0101000
+375 0 -374 0 *
Ed
 1e-07 1 1 0
1  100 0 0.19999999999999 10.7
4 C0 12 0 47 0
0

0101000
+375 0 -380 0 *
Ve
1e-07
-4.29999999999993 -4.49999999999997 -30
0 0

0101101
*
Ed
 1e-07 1 1 0
1  101 0 0 10.7
4 C0 12 0 25 0
0

0101000
+371 0 -382 0 *
Ve
1e-07
-4.29999999999995 -4.49999999999998 -22.55
0 0

0101101
*
Ed
 1e-07 1 1 0
1  102 0 22.55 30
4 C0 12 0 49 0
0

0101000
+369 0 -371 0 *
Ve
1e-07
-4.49999999999995 -4.49999999999998 -22.55
0 0

0101101
*
Ed
 1e-07 1 1 0
1  103 0 -0.2 0
4 C0 12 0 26 0
0

0101000
+367 0 -369 0 *
Ve
1e-07
-4.49999999999996 -4.49999999999999 -15
0 0

0101101
*
Ed
 1e-07 1 1 0
1  104 0 15 22.55
4 C0 12 0 45 0
0

0101000
+365 0 -367 0 *
Ed
 1e-07 1 1 0
1  105 0 0 0.2
4 C0 12 0 29 0
0

0101000
+469 0 -365 0 *
Ed
 1e-07 1 1 0
1  106 0 -0.199999999999999 0
4 C0 12 0 30 0
0

0101000
+374 0 -472 0 *
Wi

0101100
-373 0 +372 0 +379 0 -370 0 -368 0 -366 0 -364 0 -363 0 -468 0 -362 0 
*
Ed
 1e-07 1 1 0
1  107 0 3.14159265358979 6.28318530717959
2  81 10 0 3.14159265358979 6.28318530717959
4 C0 12 0 10 0
0

0101000
+571 0 -566 0 *
Wi

0101100
+360 0 +564 0 *
Ed
 1e-07 1 1 0
1  108 0 0 3.14159265358979
2  82 14 0 0 3.14159265358979
4 C0 12 0 14 0
0

0101000
+561 0 -556 0 *
Wi

0101100
+358 0 +554 0 *
Fa
0  1e-07 12 0

0111000
+361 0 +359 0 +357 0 *
Ve
1e-07
-4.29999999999995 -3.99999999999998 -22.55
0 0

0101101
*
Ed
 1e-07 1 1 0
1  109 0 0 0.5
4 C0 49 0 26 0
0

0101000
+369 0 -355 0 *
Ve
1e-07
-4.29999999999993 -3.99999999999997 -30
0 0

0101101
*
Ed
 1e-07 1 1 0
1  110 0 -0.5 0
4 C0 49 0 25 0
0

0101000
+353 0 -371 0 *
Ed
 1e-07 1 1 0
1  111 0 22.55 30
4 C0 49 0 50 0
0

0101000
+355 0 -353 0 *
Wi

0101100
-354 0 +368 0 -352 0 -351 0 *
Fa
0  1e-07 49 0

0111000
+350 0 *
Ve
1e-07
4.81567299017549e-14 -3.99999999999998 -22.55
0 0

0101101
*
Ed
 1e-07 1 1 0
1  112 0 -4.29999999999999 3.9118014383277e-15
4 C0 50 0 26 0
0

0101000
+355 0 -348 0 *
Ve
1e-07
6.40666029735098e-14 -3.99999999999997 -30
0 0

0101101
*
Ed
 1e-07 1 1 0
1  113 0 0 4.29999999999999
4 C0 50 0 25 0
0

0101000
+346 0 -353 0 *
Ed
 1e-07 1 1 0
1  114 0 22.55 30
2  83 51 0 22.55 30
4 G1 50 0 51 0
0

0101000
+348 0 -346 0 *
Wi

0101100
-347 0 +351 0 -345 0 -344 0 *
Fa
0  1e-07 50 0

0111000
+343 0 *
Ve
1e-07
4.00000000000005 2.25804314782181e-14 -22.55
0 0

0101101
*
Ed
 1e-07 1 1 0
1  115 0 1.5707963267949 3.14159265358979
2  84 51 0 1.5707963267949 3.14159265358979
4 C0 51 0 26 0
0

0101000
+348 0 -341 0 *
Ve
1e-07
4.00000000000006 2.98786473119771e-14 -30
0 0

0101101
*
Ed
 1e-07 1 1 0
1  116 0 3.14159265358979 4.71238898038469
2  85 51 0 3.14159265358979 4.71238898038469
4 C0 51 0 25 0
0

0101000
+339 0 -346 0 *
Ed
 1e-07 1 1 0
1  117 0 22.55 30
2  86 51 0 22.55 30
4 G1 51 0 40 0
0

0101000
+341 0 -339 0 *
Wi

0101100
-340 0 +344 0 -338 0 -337 0 *
Fa
0  1e-07 51 0

0111000
+336 0 *
Ed
 1e-07 1 1 0
1  118 0 4.898587196589e-16 0.999999999999998
4 C0 40 0 26 0
0

0101000
+341 0 -440 0 *
Ed
 1e-07 1 1 0
1  119 0 -0.999999999999991 -4.89858719658903e-16
4 C0 40 0 25 0
0

0101000
+437 0 -339 0 *
Wi

0101100
-334 0 +337 0 -333 0 -436 0 *
Fa
0  1e-07 40 0

0111000
+332 0 *
Ed
 1e-07 1 1 0
1  120 0 -4.5 -0.5
4 C0 47 0 44 0
0

0101000
+375 0 -408 0 *
Wi

0101100
-372 0 +330 0 -396 0 -385 0 -378 0 *
Fa
0  1e-07 47 0

0111000
-329 0 *
Wi

0101100
+434 0 +333 0 +338 0 +345 0 +352 0 +370 0 +381 0 +388 0 +399 0 +413 0 
+420 0 +427 0 *
Ed
 1e-07 1 1 0
1  121 0 0 3.14159265358979
2  87 24 0 0 3.14159265358979
4 C0 25 0 24 0
0

0101000
+522 0 -520 0 *
Wi

0101100
-326 0 -519 0 *
Fa
0  1e-07 25 0

0111000
+327 0 +325 0 *
Ed
 1e-07 1 1 0
1  122 0 3.14159265358979 6.28318530717959
2  88 24 0 3.14159265358979 6.28318530717959
4 C0 24 0 26 0
0

0101000
+518 0 -523 0 *
Wi

0101100
-326 0 -521 0 -323 0 +517 0 *
Fa
0  1e-07 24 0

0111000
+322 0 *
Ed
 1e-07 1 1 0
1  123 0 6.00000000000001 10
4 C0 29 0 45 0
0

0101000
+365 0 -405 0 *
Wi

0101100
+404 0 +476 0 +483 0 +490 0 +497 0 +447 0 +452 0 +459 0 +466 0 +363 0 
+320 0 *
Wi

0101100
-444 0 -509 0 *
Fa
0  1e-07 29 0

0111000
-319 0 -318 0 *
Ed
 1e-07 1 1 0
1  124 0 6.00000000000002 10
4 C0 26 0 45 0
0

0101000
+367 0 -403 0 *
Wi

0101100
+401 0 -316 0 +366 0 +354 0 +347 0 +340 0 +334 0 +438 0 +429 0 +422 0 
+415 0 *
Wi

0101100
-516 0 -323 0 *
Fa
0  1e-07 26 0

0111000
-315 0 -314 0 *
Wi

0101100
+402 0 -320 0 +364 0 +316 0 *
Fa
0  1e-07 45 0

0111000
-312 0 *
Ed
 1e-07 1 1 0
1  125 0 6.00000000000001 10
4 C0 30 0 44 0
0

0101000
+374 0 -409 0 *
Wi

0101100
+406 0 -310 0 +362 0 +470 0 +461 0 +454 0 +448 0 +501 0 +492 0 +485 0 
+478 0 *
Wi

0101100
-506 0 -443 0 *
Fa
0  1e-07 30 0

0111000
-309 0 -308 0 *
Wi

0101100
+407 0 -330 0 +373 0 +310 0 *
Fa
0  1e-07 44 0

0111000
-306 0 *
Ed
 1e-07 1 1 0
1  126 0 0 3.14159265358979
2  89 22 0 0 3.14159265358979
2  90 18 0 0 3.14159265358979
4 C0 22 0 18 0
0

0101000
+544 0 -542 0 *
Wi

0101100
-392 0 -529 0 +304 0 +526 0 *
Fa
0  1e-07 22 0

0111000
+303 0 *
Ed
 1e-07 1 1 0
1  127 0 0 3.14159265358979
2  91 20 0 0 3.14159265358979
2  92 16 0 0 3.14159265358979
4 C0 20 0 16 0
0

0101000
+551 0 -549 0 *
Wi

0101100
-394 0 -536 0 +301 0 +533 0 *
Fa
0  1e-07 20 0

0111000
+300 0 *
Ed
 1e-07 1 1 0
1  128 0 3.14159265358979 6.28318530717959
2  93 18 0 3.14159265358979 6.28318530717959
2  94 14 0 3.14159265358979 6.28318530717959
4 C0 18 0 14 0
0

0101000
+558 0 -560 0 *
Wi

0101100
-304 0 -543 0 -298 0 +540 0 *
Fa
0  1e-07 18 0

0111000
+297 0 *
Ed
 1e-07 1 1 0
1  129 0 3.14159265358979 6.28318530717959
2  95 16 0 3.14159265358979 6.28318530717959
2  96 10 0 3.14159265358979 6.28318530717959
4 C0 16 0 10 0
0

0101000
+568 0 -570 0 *
Wi

0101100
-301 0 -550 0 -295 0 +547 0 *
Fa
0  1e-07 16 0

0111000
+294 0 *
Wi

0101100
+298 0 -559 0 +358 0 +555 0 *
Fa
0  1e-07 14 0

0111000
+292 0 *
Wi

0101100
+295 0 -569 0 +360 0 +565 0 *
Fa
0  1e-07 10 0

0111000
+290 0 *
Sh

0101100
-562 0 -552 0 -545 0 -538 0 -531 0 -524 0 -514 0 -504 0 +494 0 +487 0 
+480 0 +473 0 +463 0 +456 0 +449 0 +445 0 -441 0 +431 0 +424 0 +417 0 
+410 0 +390 0 +383 0 +376 0 +356 0 +349 0 +342 0 +335 0 +331 0 -328 0 
+324 0 -321 0 -317 0 -313 0 -311 0 -307 0 -305 0 -302 0 -299 0 -296 0 
-293 0 -291 0 -289 0 *
So

0100000
+288 0 *
Ve
1e-07
9 -4.5 -21.85
0 0

0101101
*
Ve
1e-07
9 -3.05 -21.85
0 0

0101101
*
Ed
 1e-07 1 1 0
1  130 0 0 1.45
2  97 52 0 0 1.45
2  98 53 0 0 1.45
4 CN 52 0 53 0
0

0101000
+286 0 -285 0 *
Ve
1e-07
9 -3.05 -26.15
0 0

0101101
*
Ed
 1e-07 1 1 0
1  131 0 0 3.14159265358979
2  99 52 0 0 3.14159265358979
2  100 54 0 0 3.14159265358979
4 C0 52 0 54 0
0

0101000
+285 0 -283 0 *
Ve
1e-07
9 -4.5 -26.15
0 0

0101101
*
Ed
 1e-07 1 1 0
1  132 0 0 1.45
2  101 52 0 0 1.45
2  102 53 0 0 1.45
4 CN 52 0 53 0
0

0101000
+281 0 -283 0 *
Ed
 1e-07 1 1 0
1  133 0 0 3.14159265358979
2  103 52 0 0 3.14159265358979
4 C0 52 0 55 0
0

0101000
+281 0 -286 0 *
Wi

0101100
+284 0 +282 0 -280 0 +279 0 *
Fa
0  1e-07 52 0

0111000
+278 0 *
Ve
1e-07
9 -4.5 -3.85
0 0

0101101
*
Ve
1e-07
9 -3.05 -3.85
0 0

0101101
*
Ed
 1e-07 1 1 0
1  134 0 0 1.45
2  104 56 0 0 1.45
2  105 57 0 0 1.45
4 CN 56 0 57 0
0

0101000
+276 0 -275 0 *
Ve
1e-07
9 -3.05 -8.15
0 0

0101101
*
Ed
 1e-07 1 1 0
1  135 0 0 3.14159265358979
2  106 56 0 0 3.14159265358979
2  107 58 0 0 3.14159265358979
4 C0 56 0 58 0
0

0101000
+275 0 -273 0 *
Ve
1e-07
9 -4.5 -8.15
0 0

0101101
*
Ed
 1e-07 1 1 0
1  136 0 0 1.45
2  108 56 0 0 1.45
2  109 57 0 0 1.45
4 CN 56 0 57 0
0

0101000
+271 0 -273 0 *
Ed
 1e-07 1 1 0
1  137 0 3.14159265358979 6.28318530717959
2  110 56 0 3.14159265358979 6.28318530717959
4 C0 56 0 55 0
0

0101000
+271 0 -276 0 *
Wi

0101100
+274 0 +272 0 -270 0 +269 0 *
Fa
0  1e-07 56 0

0111000
+268 0 *
Ve
1e-07
9 -1 -19.8
0 0

0101101
*
Ed
 1e-07 1 1 0
1  138 0 -2.89913780286485 0
2  111 54 0 -2.89913780286485 0
2  112 59 0 -2.89913780286485 0
4 CN 54 0 59 0
0

0101000
+285 0 -266 0 *
Ve
1e-07
9 -1 -28.2
0 0

0101101
*
Ed
 1e-07 1 1 0
1  139 0 3.14159265358979 6.28318530717959
2  113 54 0 3.14159265358979 6.28318530717959
2  114 60 0 3.14159265358979 6.28318530717959
4 C0 54 0 60 0
0

0101000
+264 0 -266 0 *
Ed
 1e-07 1 1 0
1  140 0 -2.89913780286485 0
2  115 54 0 -2.89913780286485 0
2  116 59 0 -2.89913780286485 0
4 CN 54 0 59 0
0

0101000
+283 0 -264 0 *
Wi

0101100
+265 0 -263 0 -262 0 -282 0 *
Fa
0  1e-07 54 0

0111000
+261 0 *
Ve
1e-07
9 -1 -1.8
0 0

0101101
*
Ed
 1e-07 1 1 0
1  141 0 -2.89913780286484 0
2  117 58 0 -2.89913780286484 0
2  118 61 0 -2.89913780286484 0
4 CN 58 0 61 0
0

0101000
+275 0 -259 0 *
Ve
1e-07
9 -1 -10.2
0 0

0101101
*
Ed
 1e-07 1 1 0
1  142 0 3.14159265358979 6.28318530717959
2  119 58 0 3.14159265358979 6.28318530717959
2  120 62 0 3.14159265358979 6.28318530717959
4 C0 58 0 62 0
0

0101000
+257 0 -259 0 *
Ed
 1e-07 1 1 0
1  143 0 -2.89913780286484 0
2  121 58 0 -2.89913780286484 0
2  122 61 0 -2.89913780286484 0
4 CN 58 0 61 0
0

0101000
+273 0 -257 0 *
Wi

0101100
+258 0 -256 0 -255 0 -272 0 *
Fa
0  1e-07 58 0

0111000
+254 0 *
Ve
1e-07
9 -0.5 -19.8
0 0

0101101
*
Ed
 1e-07 1 1 0
1  144 0 0 0.5
2  123 60 0 0 0.5
2  124 63 0 0 0.5
4 CN 60 0 63 0
0

0101000
+266 0 -252 0 *
Ve
1e-07
9 -0.5 -28.2
0 0

0101101
*
Ed
 1e-07 1 1 0
1  145 0 0 3.14159265358979
2  125 60 0 0 3.14159265358979
4 C0 60 0 64 0
0

0101000
+250 0 -252 0 *
Ed
 1e-07 1 1 0
1  146 0 0 0.5
2  126 60 0 0 0.5
2  127 63 0 0 0.5
4 CN 60 0 63 0
0

0101000
+264 0 -250 0 *
Wi

0101100
+251 0 -249 0 -248 0 +263 0 *
Fa
0  1e-07 60 0

0111000
+247 0 *
Ve
1e-07
9 -0.5 -1.8
0 0

0101101
*
Ed
 1e-07 1 1 0
1  147 0 0 0.5
2  128 62 0 0 0.5
2  129 65 0 0 0.5
4 CN 62 0 65 0
0

0101000
+259 0 -245 0 *
Ve
1e-07
9 -0.5 -10.2
0 0

0101101
*
Ed
 1e-07 1 1 0
1  148 0 3.14159265358979 6.28318530717959
2  130 62 0 3.14159265358979 6.28318530717959
4 C0 62 0 64 0
0

0101000
+243 0 -245 0 *
Ed
 1e-07 1 1 0
1  149 0 0 0.5
2  131 62 0 0 0.5
2  132 65 0 0 0.5
4 CN 62 0 65 0
0

0101000
+257 0 -243 0 *
Wi

0101100
+244 0 -242 0 -241 0 +256 0 *
Fa
0  1e-07 62 0

0111000
+240 0 *
Ve
1e-07
1.5 0 -7.45
0 0

0101101
*
Ve
1e-07
1.5 0 0
0 0

0101101
*
Ed
 1e-07 1 1 0
1  150 0 22.55 30
2  133 66 0 22.55 30
2  134 67 0 22.55 30
4 CN 66 0 67 0
0

0101000
+238 0 -237 0 *
Ve
1e-07
-1.5 1.83697019872103e-16 0
0 0

0101101
*
Ed
 1e-07 1 1 0
1  151 0 3.14159265358979 6.28318530717959
2  135 66 0 3.14159265358979 6.28318530717959
4 C0 66 0 68 0
0

0101000
+235 0 -237 0 *
Ve
1e-07
-1.5 1.83697019872103e-16 -7.45
0 0

0101101
*
Ed
 1e-07 1 1 0
1  152 0 22.55 30
2  136 66 0 22.55 30
2  137 67 0 22.55 30
4 CN 66 0 67 0
0

0101000
+233 0 -235 0 *
Ed
 1e-07 1 1 0
1  153 0 0 3.14159265358979
2  138 66 0 0 3.14159265358979
4 C0 66 0 69 0
0

0101000
+238 0 -233 0 *
Wi

0101100
+236 0 -234 0 -232 0 -231 0 *
Fa
0  1e-07 66 0

0111000
+230 0 *
Ve
1e-07
1.5 0 -22.45
0 0

0101101
*
Ve
1e-07
1.5 0 -15
0 0

0101101
*
Ed
 1e-07 1 1 0
1  154 0 7.55 15
2  139 70 0 7.55 15
2  140 71 0 7.55 15
4 CN 70 0 71 0
0

0101000
+228 0 -227 0 *
Ve
1e-07
-1.5 1.83697019872103e-16 -15
0 0

0101101
*
Ed
 1e-07 1 1 0
1  155 0 0 3.14159265358979
2  141 70 0 0 3.14159265358979
4 C0 70 0 72 0
0

0101000
+225 0 -227 0 *
Ve
1e-07
-1.5 1.83697019872103e-16 -22.45
0 0

0101101
*
Ed
 1e-07 1 1 0
1  156 0 7.55 15
2  142 70 0 7.55 15
2  143 71 0 7.55 15
4 CN 70 0 71 0
0

0101000
+223 0 -225 0 *
Ed
 1e-07 1 1 0
1  157 0 0 3.14159265358979
2  144 70 0 0 3.14159265358979
4 C0 70 0 73 0
0

0101000
+228 0 -223 0 *
Wi

0101100
+226 0 -224 0 -222 0 -221 0 *
Fa
0  1e-07 70 0

0111000
+220 0 *
Ve
1e-07
-4 0.999999999999993 -22.45
0 0

0101101
*
Ve
1e-07
-2 3 -22.45
0 0

0101101
*
Ed
 1e-07 1 1 0
1  158 0 -7.065416064077e-16 2.82842712474619
4 C0 74 0 73 0
0

0101000
+218 0 -217 0 *
Ve
1e-07
-4 0.999999999999993 -15
0 0

0101101
*
Ed
 1e-07 1 1 0
1  159 0 7.55 15
4 C0 74 0 75 0
0

0101000
+218 0 -215 0 *
Ve
1e-07
-2 3 -15
0 0

0101101
*
Ed
 1e-07 1 1 0
1  160 0 -2.8284271247462 -7.065416064077e-16
4 C0 74 0 72 0
0

0101000
+213 0 -215 0 *
Ed
 1e-07 1 1 0
1  161 0 7.55 15
4 C0 74 0 76 0
0

0101000
+217 0 -213 0 *
Wi

0101100
-216 0 +214 0 -212 0 -211 0 *
Fa
0  1e-07 74 0

0111000
+210 0 *
Ve
1e-07
2 3 -22.45
0 0

0101101
*
Ed
 1e-07 1 1 0
1  162 0 0 4
4 C0 76 0 73 0
0

0101000
+217 0 -208 0 *
Ve
1e-07
2 3 -15
0 0

0101101
*
Ed
 1e-07 1 1 0
1  163 0 -4 0
4 C0 76 0 72 0
0

0101000
+206 0 -213 0 *
Ed
 1e-07 1 1 0
1  164 0 7.55 15
4 C0 76 0 77 0
0

0101000
+208 0 -206 0 *
Wi

0101100
-207 0 +211 0 -205 0 -204 0 *
Fa
0  1e-07 76 0

0111000
+203 0 *
Ve
1e-07
4 0.999999999999994 -22.45
0 0

0101101
*
Ed
 1e-07 1 1 0
1  165 0 -2.8284271247462 -1.4130832128154e-15
4 C0 77 0 73 0
0

0101000
+208 0 -201 0 *
Ve
1e-07
4 0.999999999999993 -15
0 0

0101101
*
Ed
 1e-07 1 1 0
1  166 0 -7.065416064077e-16 2.82842712474619
4 C0 77 0 72 0
0

0101000
+199 0 -206 0 *
Ed
 1e-07 1 1 0
1  167 0 7.55 15
4 C0 77 0 78 0
0

0101000
+201 0 -199 0 *
Wi

0101100
-200 0 +204 0 -198 0 -197 0 *
Fa
0  1e-07 77 0

0111000
+196 0 *
Ve
1e-07
4 -0.5 -22.45
0 0

0101101
*
Ed
 1e-07 1 1 0
1  168 0 -9.99200722162641e-16 1.49999999999999
4 C0 78 0 73 0
0

0101000
+201 0 -194 0 *
Ve
1e-07
4 -0.5 -15
0 0

0101101
*
Ed
 1e-07 1 1 0
1  169 0 -1.49999999999999 0
4 C0 78 0 72 0
0

0101000
+192 0 -199 0 *
Ed
 1e-07 1 1 0
1  170 0 7.55 15
4 C0 78 0 64 0
0

0101000
+194 0 -192 0 *
Wi

0101100
-193 0 +197 0 -191 0 -190 0 *
Fa
0  1e-07 78 0

0111000
+189 0 *
Ve
1e-07
4.3 -4.5 -22.45
0 0

0101101
*
Ve
1e-07
4.3 -4 -22.45
0 0

0101101
*
Ed
 1e-07 1 1 0
1  171 0 0 0.5
4 C0 79 0 73 0
0

0101000
+187 0 -186 0 *
Ve
1e-07
4.3 -4.5 -15
0 0

0101101
*
Ed
 1e-07 1 1 0
1  172 0 7.55 15
4 C0 79 0 55 0
0

0101000
+187 0 -184 0 *
Ve
1e-07
4.3 -4 -15
0 0

0101101
*
Ed
 1e-07 1 1 0
1  173 0 -0.5 0
4 C0 79 0 72 0
0

0101000
+182 0 -184 0 *
Ed
 1e-07 1 1 0
1  174 0 7.55 15
4 C0 79 0 80 0
0

0101000
+186 0 -182 0 *
Wi

0101100
-185 0 +183 0 -181 0 -180 0 *
Fa
0  1e-07 79 0

0111000
+179 0 *
Ve
1e-07
-1.85288457134071e-21 -4 -22.45
0 0

0101101
*
Ed
 1e-07 1 1 0
1  175 0 -4.3 1.30971807724706e-15
4 C0 80 0 73 0
0

0101000
+186 0 -177 0 *
Ve
1e-07
0 -4 -15
0 0

0101101
*
Ed
 1e-07 1 1 0
1  176 0 1.30104260698261e-15 4.3
4 C0 80 0 72 0
0

0101000
+175 0 -182 0 *
Ed
 1e-07 1 1 0
1  177 0 7.55 15
2  145 81 0 7.55 15
4 G1 80 0 81 0
0

0101000
+177 0 -175 0 *
Wi

0101100
-176 0 +180 0 -174 0 -173 0 *
Fa
0  1e-07 80 0

0111000
+172 0 *
Ve
1e-07
-4 4.89858719658941e-16 -22.45
0 0

0101101
*
Ed
 1e-07 1 1 0
1  178 0 1.5707963267949 3.14159265358979
2  146 81 0 1.5707963267949 3.14159265358979
4 C0 81 0 73 0
0

0101000
+177 0 -170 0 *
Ve
1e-07
-4 4.89856358753903e-16 -15
0 0

0101101
*
Ed
 1e-07 1 1 0
1  179 0 0 1.5707963267949
2  147 81 0 0 1.5707963267949
4 C0 81 0 72 0
0

0101000
+168 0 -175 0 *
Ed
 1e-07 1 1 0
1  180 0 7.55 15
2  148 81 0 7.55 15
4 G1 81 0 75 0
0

0101000
+170 0 -168 0 *
Wi

0101100
-169 0 +173 0 -167 0 -166 0 *
Fa
0  1e-07 81 0

0111000
+165 0 *
Ed
 1e-07 1 1 0
1  181 0 4.89858719658941e-16 0.999999999999993
4 C0 75 0 73 0
0

0101000
+170 0 -218 0 *
Ed
 1e-07 1 1 0
1  182 0 -0.999999999999993 -4.89856358753903e-16
4 C0 75 0 72 0
0

0101000
+215 0 -168 0 *
Wi

0101100
-163 0 +166 0 -162 0 -214 0 *
Fa
0  1e-07 75 0

0111000
+161 0 *
Ed
 1e-07 1 1 0
1  183 0 3.14159265358979 6.28318530717959
2  149 71 0 3.14159265358979 6.28318530717959
4 C0 71 0 72 0
0

0101000
+227 0 -225 0 *
Ed
 1e-07 1 1 0
1  184 0 3.14159265358979 6.28318530717959
2  150 71 0 3.14159265358979 6.28318530717959
4 C0 71 0 73 0
0

0101000
+223 0 -228 0 *
Wi

0101100
-159 0 -226 0 -158 0 +222 0 *
Fa
0  1e-07 71 0

0111000
+157 0 *
Ve
1e-07
-4 0.999999999999993 -7.45
0 0

0101101
*
Ve
1e-07
-2 3 -7.45
0 0

0101101
*
Ed
 1e-07 1 1 0
1  185 0 -1.4130832128154e-15 2.82842712474619
4 C0 82 0 69 0
0

0101000
+155 0 -154 0 *
Ve
1e-07
-4 0.999999999999993 0
0 0

0101101
*
Ed
 1e-07 1 1 0
1  186 0 22.55 30
4 C0 82 0 83 0
0

0101000
+155 0 -152 0 *
Ve
1e-07
-2 3 0
0 0

0101101
*
Ed
 1e-07 1 1 0
1  187 0 -2.8284271247462 -0
4 C0 82 0 68 0
0

0101000
+150 0 -152 0 *
Ed
 1e-07 1 1 0
1  188 0 22.55 30
4 C0 82 0 84 0
0

0101000
+154 0 -150 0 *
Wi

0101100
-153 0 +151 0 -149 0 -148 0 *
Fa
0  1e-07 82 0

0111000
+147 0 *
Ve
1e-07
2 3 -7.45
0 0

0101101
*
Ed
 1e-07 1 1 0
1  189 0 0 4
4 C0 84 0 69 0
0

0101000
+154 0 -145 0 *
Ve
1e-07
2 3 0
0 0

0101101
*
Ed
 1e-07 1 1 0
1  190 0 -4 -0
4 C0 84 0 68 0
0

0101000
+143 0 -150 0 *
Ed
 1e-07 1 1 0
1  191 0 22.55 30
4 C0 84 0 85 0
0

0101000
+145 0 -143 0 *
Wi

0101100
-144 0 +148 0 -142 0 -141 0 *
Fa
0  1e-07 84 0

0111000
+140 0 *
Ve
1e-07
4 0.999999999999993 -7.45
0 0

0101101
*
Ed
 1e-07 1 1 0
1  192 0 -2.8284271247462 -1.4130832128154e-15
4 C0 85 0 69 0
0

0101000
+145 0 -138 0 *
Ve
1e-07
4 0.999999999999993 0
0 0

0101101
*
Ed
 1e-07 1 1 0
1  193 0 0 2.8284271247462
4 C0 85 0 68 0
0

0101000
+136 0 -143 0 *
Ed
 1e-07 1 1 0
1  194 0 22.55 30
4 C0 85 0 86 0
0

0101000
+138 0 -136 0 *
Wi

0101100
-137 0 +141 0 -135 0 -134 0 *
Fa
0  1e-07 85 0

0111000
+133 0 *
Ve
1e-07
4 -0.5 -7.45
0 0

0101101
*
Ed
 1e-07 1 1 0
1  195 0 0 1.49999999999999
4 C0 86 0 69 0
0

0101000
+138 0 -131 0 *
Ve
1e-07
4 -0.5 0
0 0

0101101
*
Ed
 1e-07 1 1 0
1  196 0 -1.49999999999999 0
4 C0 86 0 68 0
0

0101000
+129 0 -136 0 *
Ed
 1e-07 1 1 0
1  197 0 22.55 30
4 C0 86 0 64 0
0

0101000
+131 0 -129 0 *
Wi

0101100
-130 0 +134 0 -128 0 -127 0 *
Fa
0  1e-07 86 0

0111000
+126 0 *
Ve
1e-07
4.49999999999999 -0.5 -22.45
0 0

0101101
*
Ve
1e-07
4.49999999999999 -0.5 -30
0 0

0101101
*
Ed
 1e-07 1 1 0
1  198 0 -7.55 0
4 C0 64 0 87 0
0

0101000
+124 0 -123 0 *
Ed
 1e-07 1 1 0
1  199 0 0 0.49999999999999
4 C0 64 0 73 0
0

0101000
+194 0 -124 0 *
Ve
1e-07
4.49999999999999 -0.5 -15
0 0

0101101
*
Ed
 1e-07 1 1 0
1  200 0 -0.49999999999999 0
4 C0 64 0 72 0
0

0101000
+120 0 -192 0 *
Ve
1e-07
4.5 -0.5 -7.45
0 0

0101101
*
Ed
 1e-07 1 1 0
1  201 0 -22.55 -15
4 C0 64 0 88 0
0

0101000
+118 0 -120 0 *
Ed
 1e-07 1 1 0
1  202 0 0 0.5
4 C0 64 0 69 0
0

0101000
+131 0 -118 0 *
Ve
1e-07
14.2 -0.5 0
0 0

0101101
*
Ed
 1e-07 1 1 0
1  203 0 -10.2 -0
4 C0 64 0 68 0
0

0101000
+115 0 -129 0 *
Ve
1e-07
14.2 -0.5 -30
0 0

0101101
*
Ed
 1e-07 1 1 0
1  204 0 0 30
4 C0 64 0 89 0
0

0101000
+113 0 -115 0 *
Ed
 1e-07 1 1 0
1  205 0 -10.2 -0.49999999999999
4 C0 64 0 90 0
0

0101000
+113 0 -123 0 *
Wi

0101100
-122 0 -121 0 +190 0 -119 0 -117 0 -116 0 +127 0 -114 0 -112 0 +111 0 
*
Ed
 1e-07 1 1 0
1  206 0 3.14159265358979 6.28318530717959
2  151 63 0 3.14159265358979 6.28318530717959
4 C0 64 0 63 0
0

0101000
+252 0 -250 0 *
Wi

0101100
-109 0 -249 0 *
Ed
 1e-07 1 1 0
1  207 0 0 3.14159265358979
2  152 65 0 0 3.14159265358979
4 C0 64 0 65 0
0

0101000
+245 0 -243 0 *
Wi

0101100
-107 0 -242 0 *
Fa
0  1e-07 64 0

0111000
+110 0 +108 0 +106 0 *
Ve
1e-07
15 -1.3 0
0 0

0101101
*
Ed
 1e-07 1 1 0
1  208 0 -1.13137084989848 0
4 C0 89 0 68 0
0

0101000
+104 0 -115 0 *
Ve
1e-07
15 -1.3 -30
0 0

0101101
*
Ed
 1e-07 1 1 0
1  209 0 0 30
4 C0 89 0 91 0
0

0101000
+102 0 -104 0 *
Ed
 1e-07 1 1 0
1  210 0 -1.13137084989848 0
4 C0 89 0 90 0
0

0101000
+102 0 -113 0 *
Wi

0101100
-103 0 -101 0 +100 0 +112 0 *
Fa
0  1e-07 89 0

0111000
+99 0 *
Ve
1e-07
15 -4.5 0
0 0

0101101
*
Ed
 1e-07 1 1 0
1  211 0 0 3.2
4 C0 91 0 68 0
0

0101000
+97 0 -104 0 *
Ve
1e-07
15 -4.5 -30
0 0

0101101
*
Ed
 1e-07 1 1 0
1  212 0 0 30
4 C0 91 0 55 0
0

0101000
+95 0 -97 0 *
Ed
 1e-07 1 1 0
1  213 0 0 3.2
4 C0 91 0 90 0
0

0101000
+95 0 -102 0 *
Wi

0101100
-96 0 -94 0 +93 0 +101 0 *
Fa
0  1e-07 91 0

0111000
+92 0 *
Ve
1e-07
4.49999999999999 -4.5 -30
0 0

0101101
*
Ve
1e-07
4.49999999999999 -4.5 -22.45
0 0

0101101
*
Ed
 1e-07 1 1 0
1  214 0 0 7.55
4 C0 55 0 87 0
0

0101000
+90 0 -89 0 *
Ed
 1e-07 1 1 0
1  215 0 0.19999999999999 10.7
4 C0 55 0 90 0
0

0101000
+90 0 -95 0 *
Ve
1e-07
4.3 -4.5 0
0 0

0101101
*
Ed
 1e-07 1 1 0
1  216 0 0 10.7
4 C0 55 0 68 0
0

0101000
+86 0 -97 0 *
Ve
1e-07
4.3 -4.5 -7.45
0 0

0101101
*
Ed
 1e-07 1 1 0
1  217 0 22.55 30
4 C0 55 0 92 0
0

0101000
+84 0 -86 0 *
Ve
1e-07
4.5 -4.5 -7.45
0 0

0101101
*
Ed
 1e-07 1 1 0
1  218 0 -0.2 0
4 C0 55 0 69 0
0

0101000
+82 0 -84 0 *
Ve
1e-07
4.49999999999999 -4.5 -15
0 0

0101101
*
Ed
 1e-07 1 1 0
1  219 0 15 22.55
4 C0 55 0 88 0
0

0101000
+80 0 -82 0 *
Ed
 1e-07 1 1 0
1  220 0 9.76996261670138e-15 0.2
4 C0 55 0 72 0
0

0101000
+184 0 -80 0 *
Ed
 1e-07 1 1 0
1  221 0 -0.19999999999999 0
4 C0 55 0 73 0
0

0101000
+89 0 -187 0 *
Wi

0101100
-88 0 +87 0 +94 0 -85 0 -83 0 -81 0 -79 0 -78 0 -183 0 -77 0 
*
Ed
 1e-07 1 1 0
1  222 0 3.14159265358979 6.28318530717959
2  153 53 0 3.14159265358979 6.28318530717959
4 C0 55 0 53 0
0

0101000
+286 0 -281 0 *
Wi

0101100
+75 0 +279 0 *
Ed
 1e-07 1 1 0
1  223 0 0 3.14159265358979
2  154 57 0 0 3.14159265358979
4 C0 55 0 57 0
0

0101000
+276 0 -271 0 *
Wi

0101100
+73 0 +269 0 *
Fa
0  1e-07 55 0

0111000
+76 0 +74 0 +72 0 *
Ve
1e-07
4.3 -4 -7.45
0 0

0101101
*
Ed
 1e-07 1 1 0
1  224 0 0 0.5
4 C0 92 0 69 0
0

0101000
+84 0 -70 0 *
Ve
1e-07
4.3 -4 0
0 0

0101101
*
Ed
 1e-07 1 1 0
1  225 0 -0.5 -0
4 C0 92 0 68 0
0

0101000
+68 0 -86 0 *
Ed
 1e-07 1 1 0
1  226 0 22.55 30
4 C0 92 0 93 0
0

0101000
+70 0 -68 0 *
Wi

0101100
-69 0 +83 0 -67 0 -66 0 *
Fa
0  1e-07 92 0

0111000
+65 0 *
Ve
1e-07
1.50463276905253e-31 -4 -7.45
0 0

0101101
*
Ed
 1e-07 1 1 0
1  227 0 -4.3 3.9118014383277e-15
4 C0 93 0 69 0
0

0101000
+70 0 -63 0 *
Ve
1e-07
0 -4 0
0 0

0101101
*
Ed
 1e-07 1 1 0
1  228 0 0 4.3
4 C0 93 0 68 0
0

0101000
+61 0 -68 0 *
Ed
 1e-07 1 1 0
1  229 0 22.55 30
2  155 94 0 22.55 30
4 G1 93 0 94 0
0

0101000
+63 0 -61 0 *
Wi

0101100
-62 0 +66 0 -60 0 -59 0 *
Fa
0  1e-07 93 0

0111000
+58 0 *
Ve
1e-07
-4 4.89858719658941e-16 -7.45
0 0

0101101
*
Ed
 1e-07 1 1 0
1  230 0 1.5707963267949 3.14159265358979
2  156 94 0 1.5707963267949 3.14159265358979
4 C0 94 0 69 0
0

0101000
+63 0 -56 0 *
Ve
1e-07
-4 4.89858719658941e-16 0
0 0

0101101
*
Ed
 1e-07 1 1 0
1  231 0 3.14159265358979 4.71238898038469
2  157 94 0 3.14159265358979 4.71238898038469
4 C0 94 0 68 0
0

0101000
+54 0 -61 0 *
Ed
 1e-07 1 1 0
1  232 0 22.55 30
2  158 94 0 22.55 30
4 G1 94 0 83 0
0

0101000
+56 0 -54 0 *
Wi

0101100
-55 0 +59 0 -53 0 -52 0 *
Fa
0  1e-07 94 0

0111000
+51 0 *
Ed
 1e-07 1 1 0
1  233 0 4.89858719658941e-16 0.999999999999993
4 C0 83 0 69 0
0

0101000
+56 0 -155 0 *
Ed
 1e-07 1 1 0
1  234 0 -0.999999999999993 -4.89858719658941e-16
4 C0 83 0 68 0
0

0101000
+152 0 -54 0 *
Wi

0101100
-49 0 +52 0 -48 0 -151 0 *
Fa
0  1e-07 83 0

0111000
+47 0 *
Ed
 1e-07 1 1 0
1  235 0 -4.5 -0.5
4 C0 90 0 87 0
0

0101000
+90 0 -123 0 *
Wi

0101100
-87 0 +45 0 -111 0 -100 0 -93 0 *
Fa
0  1e-07 90 0

0111000
-44 0 *
Wi

0101100
+149 0 +48 0 +53 0 +60 0 +67 0 +85 0 +96 0 +103 0 +114 0 +128 0 
+135 0 +142 0 *
Ed
 1e-07 1 1 0
1  236 0 0 3.14159265358979
2  159 67 0 0 3.14159265358979
4 C0 68 0 67 0
0

0101000
+237 0 -235 0 *
Wi

0101100
-41 0 -234 0 *
Fa
0  1e-07 68 0

0111000
+42 0 +40 0 *
Ed
 1e-07 1 1 0
1  237 0 3.14159265358979 6.28318530717959
2  160 67 0 3.14159265358979 6.28318530717959
4 C0 67 0 69 0
0

0101000
+233 0 -238 0 *
Wi

0101100
-41 0 -236 0 -38 0 +232 0 *
Fa
0  1e-07 67 0

0111000
+37 0 *
Ed
 1e-07 1 1 0
1  238 0 6 10
4 C0 72 0 88 0
0

0101000
+80 0 -120 0 *
Wi

0101100
+119 0 +191 0 +198 0 +205 0 +212 0 +162 0 +167 0 +174 0 +181 0 +78 0 
+35 0 *
Wi

0101100
-159 0 -224 0 *
Fa
0  1e-07 72 0

0111000
-34 0 -33 0 *
Ed
 1e-07 1 1 0
1  239 0 6 10
4 C0 69 0 88 0
0

0101000
+82 0 -118 0 *
Wi

0101100
+116 0 -31 0 +81 0 +69 0 +62 0 +55 0 +49 0 +153 0 +144 0 +137 0 
+130 0 *
Wi

0101100
-231 0 -38 0 *
Fa
0  1e-07 69 0

0111000
-30 0 -29 0 *
Wi

0101100
+117 0 -35 0 +79 0 +31 0 *
Fa
0  1e-07 88 0

0111000
-27 0 *
Ed
 1e-07 1 1 0
1  240 0 6 10
4 C0 73 0 87 0
0

0101000
+89 0 -124 0 *
Wi

0101100
+121 0 -25 0 +77 0 +185 0 +176 0 +169 0 +163 0 +216 0 +207 0 +200 0 
+193 0 *
Wi

0101100
-221 0 -158 0 *
Fa
0  1e-07 73 0

0111000
-24 0 -23 0 *
Wi

0101100
+122 0 -45 0 +88 0 +25 0 *
Fa
0  1e-07 87 0

0111000
-21 0 *
Ed
 1e-07 1 1 0
1  241 0 0 3.14159265358979
2  161 65 0 0 3.14159265358979
2  162 61 0 0 3.14159265358979
4 C0 65 0 61 0
0

0101000
+259 0 -257 0 *
Wi

0101100
-107 0 -244 0 +19 0 +241 0 *
Fa
0  1e-07 65 0

0111000
+18 0 *
Ed
 1e-07 1 1 0
1  242 0 0 3.14159265358979
2  163 63 0 0 3.14159265358979
2  164 59 0 0 3.14159265358979
4 C0 63 0 59 0
0

0101000
+266 0 -264 0 *
Wi

0101100
-109 0 -251 0 +16 0 +248 0 *
Fa
0  1e-07 63 0

0111000
+15 0 *
Ed
 1e-07 1 1 0
1  243 0 3.14159265358979 6.28318530717959
2  165 61 0 3.14159265358979 6.28318530717959
2  166 57 0 3.14159265358979 6.28318530717959
4 C0 61 0 57 0
0

0101000
+273 0 -275 0 *
Wi

0101100
-19 0 -258 0 -13 0 +255 0 *
Fa
0  1e-07 61 0

0111000
+12 0 *
Ed
 1e-07 1 1 0
1  244 0 3.14159265358979 6.28318530717959
2  167 59 0 3.14159265358979 6.28318530717959
2  168 53 0 3.14159265358979 6.28318530717959
4 C0 59 0 53 0
0

0101000
+283 0 -285 0 *
Wi

0101100
-16 0 -265 0 -10 0 +262 0 *
Fa
0  1e-07 59 0

0111000
+9 0 *
Wi

0101100
+13 0 -274 0 +73 0 +270 0 *
Fa
0  1e-07 57 0

0111000
+7 0 *
Wi

0101100
+10 0 -284 0 +75 0 +280 0 *
Fa
0  1e-07 53 0

0111000
+5 0 *
Sh

0101100
-277 0 -267 0 -260 0 -253 0 -246 0 -239 0 -229 0 -219 0 +209 0 +202 0 
+195 0 +188 0 +178 0 +171 0 +164 0 +160 0 -156 0 +146 0 +139 0 +132 0 
+125 0 +105 0 +98 0 +91 0 +71 0 +64 0 +57 0 +50 0 +46 0 -43 0 
+39 0 -36 0 -32 0 -28 0 -26 0 -22 0 -20 0 -17 0 -14 0 -11 0 
-8 0 -6 0 -4 0 *
So

0100000
+3 0 *
Co

1100000
+572 0 +287 0 +2 0 *

+1 0 