DBRep_DrawableShape

CASCADE Topology V1, (c) Matra-Datavision
Locations 0
Curve2ds 128
1 3.1415926535897931 -0.62116570824605033 -1 0 
1 3.1415926535897931 1.1102230246251565e-16 0 1 
1 3.1415926535897931 1.1102230246251565e-16 0 1 
1 -3.1415926535897931 -1.1493874523372428e-16 1 3.6586138913454487e-17 
1 -3.1415926535897931 6.3275649276110002 1 0 
1 0 -1.1102230246251565e-16 0 1 
1 6.2831853071795862 -1.1102230246251565e-16 0 1 
1 3.1415926535897931 -1.5700924586837779e-16 -1 0 
1 3.1415926535897931 1.5700924586837779e-16 0 1 
1 3.1415926535897931 1.5700924586837779e-16 0 1 
1 0 0.69484599093024846 1 0 
1 3.1415926535897931 -0.56733937586587957 -1 0 
1 0 -1.5700924586837779e-16 0 1 
1 6.2831853071795862 -1.5700924586837779e-16 0 1 
1 -3.1415926535897931 28.227564927610999 1 0 
1 3.1415926535897931 0 0 1 
1 3.1415926535897931 0 0 1 
1 6.2831853071795862 39.477564927610999 -1 0 
1 0 0 0 1 
1 6.2831853071795862 0 0 1 
1 3.1415926535897931 0 0 1 
1 3.1415926535897931 0 0 1 
1 6.2831853071795862 16.977564927610999 -1 0 
1 0 0 0 1 
1 6.2831853071795862 0 0 1 
1 6.2831853071795862 0 0 1 
1 0 0 0 1 
1 0 0 1 0 
1 3.1415926535897931 -1.1102230246251565e-16 0 1 
1 3.1415926535897931 -1.1102230246251565e-16 0 1 
1 9.4247779607693793 -0.56733937586587957 -1 0 
1 0 0.69484599093024846 1 0 
1 6.2831853071795862 8.8817841970012523e-16 0 1 
1 0 8.8817841970012523e-16 0 1 
1 6.2831853071795862 0 -1 0 
1 3.1415926535897962 -8.8817841970012523e-16 0 1 
1 3.1415926535897962 -8.8817841970012523e-16 0 1 
1 6.2831853071795862 -5.0000000000000062 -1 -2.8271597168564594e-16 
1 6.2831853071795862 8.8817841970012523e-16 0 1 
1 0 8.8817841970012523e-16 0 1 
1 0 0 1 0 
1 3.1415926535897931 -8.8817841970012523e-16 0 1 
1 3.1415926535897931 -8.8817841970012523e-16 0 1 
1 0 -5.000000000000008 1 2.8271597168564594e-16 
1 4.7123889803846897 0 0 1 
1 6.2831853071795871 31.25 -1 0 
1 0 42.5 1 0 
1 3.1415926535897931 0 0 1 
1 3.1415926535897922 -42.5 1 0 
1 6.2831853071795862 0 0 1 
1 3.1415926535897922 -31.25 1 0 
1 4.7123889803846986 0 7.8949192862233357e-17 1 
1 4.7123889803846897 0 0 1 
1 6.2831853071795871 8.75 -1 0 
1 3.1415926535897931 20 1 0 
1 3.1415926535897931 0 0 1 
1 4.7123889803846994 0 7.8949192862233357e-17 1 
1 6.2831853071795862 0 -1 0 
1 0 0 1 0 
1 6.2831853071795862 -5.000000000000008 -1 2.8271597168564594e-16 
1 0 -5.0000000000000062 1 -2.8271597168564594e-16 
1 0 0 1 0 
1 6.2831853071795862 -20 -1 0 
1 6.2831853071795862 0 0 1 
1 3.1415926535897922 -8.75 1 0 
1 6.2831853071795862 39.477564927610999 -1 0 
1 3.1415926535897931 28.227564927610999 1 0 
1 6.2831853071795862 16.977564927610999 -1 0 
1 9.4247779607693793 -1.5700924586837779e-16 -1 0 
1 9.4247779607693793 -0.62116570824605033 -1 0 
1 3.1415926535897931 6.3275649276110002 1 0 
1 3.1415926535897931 1.1493874523372428e-16 1 -3.6586138913454487e-17 
1 6.2831853071795862 1.7763568394002505e-15 0 1 
1 0 1.7763568394002505e-15 0 1 
1 0 0 1 0 
1 3.1415926535897931 2.1094237467877974e-15 0 1 
1 3.1415926535897931 2.1094237467877974e-15 0 1 
1 0 -0.54999999999996452 1 1.4135798584282297e-16 
1 0 42.023686027918608 1 0 
1 6.2831853071795862 0 0 1 
1 0 0 0 1 
1 3.1415926535897931 20.000000000000007 1 0 
1 3.1415926535897931 0 0 1 
1 3.1415926535897931 0 0 1 
1 6.2831853071795862 8.7499999999999964 -1 0 
1 6.2831853071795862 8.8817841970012523e-16 0 1 
1 0 8.8817841970012523e-16 0 1 
1 6.2831853071795862 0 -1 0 
1 3.1415926535897918 -8.8817841970012523e-16 0 1 
1 3.1415926535897918 -8.8817841970012523e-16 0 1 
1 6.2831853071795862 -5.0000000000000044 -1 -2.8271597168564594e-16 
1 6.2831853071795862 8.8817841970012523e-16 0 1 
1 0 8.8817841970012523e-16 0 1 
1 0 0 1 0 
1 3.1415926535897931 -8.8817841970012523e-16 0 1 
1 3.1415926535897931 -8.8817841970012523e-16 0 1 
1 0 -5.0000000000000062 1 2.8271597168564594e-16 
1 6.2831853071795862 0 0 1 
1 0 0 0 1 
1 3.1415926535897931 0 0 1 
1 3.1415926535897931 0 0 1 
1 6.2831853071795862 31.250000000000007 -1 0 
1 4.7123889803846915 0 0 1 
1 6.2831853071795871 31.250000000000007 -1 0 
1 0 42.500000000000007 1 0 
1 3.1415926535897931 0 0 1 
1 3.1415926535897922 -42.500000000000007 1 0 
1 6.2831853071795862 0 0 1 
1 3.1415926535897922 -31.250000000000007 1 0 
1 4.7123889803846915 0 1.5789838572446671e-16 1 
1 0 42.023686027918608 1 0 
1 0 -0.54999999999996363 1 -1.4135798584282297e-16 
1 6.2831853071795862 31.250000000000007 -1 0 
1 4.7123889803846915 0 0 1 
1 6.2831853071795871 8.7499999999999964 -1 0 
1 3.1415926535897931 20.000000000000007 1 0 
1 3.1415926535897931 0 0 1 
1 4.7123889803846879 0 0 1 
1 6.2831853071795862 0 -1 0 
1 0 0 1 0 
1 6.2831853071795862 -5.0000000000000062 -1 2.8271597168564594e-16 
1 0 -5.0000000000000044 1 -2.8271597168564594e-16 
1 0 0 1 0 
1 6.2831853071795862 -20.000000000000007 -1 0 
1 6.2831853071795862 0 0 1 
1 3.1415926535897922 -8.7499999999999964 1 0 
1 -3.1415926535897931 20.000000000000007 1 0 
1 6.2831853071795862 8.7499999999999964 -1 0 
Curves 234
2 -4 9.5 -42.5 -0 -1.14638687165907e-31 -1 -1 0 0 0 1 -1.14638687165907e-31 1.86423048454133
1 -6.0250000000000004 9.5 -41.899999999999999 -0.25881904510251597 3.1696191514317089e-17 0.96592582628906953 
2 -4 9.5 -41.899999999999999 0 0 1 -1 0 0 0 -1 0 2.0249999999999999
1 -1.9750000000000001 9.5 -41.899999999999999 0.25881904510251597 0 0.96592582628906953 
2 -4 9.5 2.5 0 0 1 1 0 -0 -0 1 0 1.5249999999999899
1 -2.4750000000000099 9.5 2.5 0.70710678118654891 8.6595605623549501e-17 -0.70710678118654602 
2 -4 9.5 2.0086696879329402 0 0 -1 -1 0 0 0 1 0 2.0163303120670601
1 -5.5249999999999897 9.5 2.5 -0.70710678118654891 0 -0.70710678118654602 
2 -4 9.5 -20 0 0 1 -1 0 0 0 -1 0 2.0249999999999999
1 -6.0250000000000004 9.5 -48.227564927610999 0 0 1 
2 -4 9.5 -8.75 0 0 -1 1 0 0 0 -1 0 2.0249999999999999
1 -1.9750000000000001 9.5 -48.227564927610999 0 0 1 
1 -6.0250000000000004 9.5 -48.227564927610999 0 0 1 
2 -4 9.5 -31.25 0 0 -1 1 0 0 0 -1 0 2.0249999999999999
1 -1.9750000000000001 9.5 -48.227564927610999 0 0 1 
1 -1.7 9.5 2.5 0.50000000000000222 0 0.86602540378443738 
2 -4 9.5 2.5 0 -0 1 1 0 0 -0 1 0 2.2999999999999998
1 -6.2999999999999998 9.5 2.5 -0.50000000000000222 6.1232339957367919e-17 0.86602540378443738 
2 -4 9.5 2.0086696879329402 0 0 -1 -1 0 0 0 1 0 2.0163303120670601
1 8.4999999999999893 5 -35.149999999999999 -8.0247081016134699e-32 1 -1.7347234759768101e-16 
2 8.4999999999999893 5 -32.5 1.8094874017664599e-31 -1 3.2730631622203898e-16 -6.5461263244407797e-16 -3.2730631622203898e-16 -1 1 -3.3310109101036774e-32 -6.5461263244407797e-16 2.6499999999999999
1 8.5 5 -29.850000000000001 -8.0247081016134699e-32 1 -1.7347234759768101e-16 
2 8.4999999999999893 -6.93889390390723e-15 -32.5 8.0247081016134699e-32 -1 1.7347234759768101e-16 -6.5461263244407797e-16 -1.7347234759768101e-16 -1 1 -3.3310109101037398e-32 -6.5461263244407797e-16 2.6499999999999999
1 8.5 5 -4.8499999999999996 -0 1 1.7347234759767999e-16 
2 8.5 5 -7.5 -0 1 3.2730631622203898e-16 0 -3.2730631622203898e-16 1 1 0 0 2.6499999999999999
1 8.5 5 -10.15 -0 1 1.7347234759767999e-16 
2 8.5 -6.93889390390723e-15 -7.5 -0 1 1.7347234759768101e-16 0 -1.7347234759768101e-16 1 1 0 0 2.6499999999999999
1 0 0 -8.75 -0.70710678118654802 0.70710678118654702 -0 
1 0 0 -40 0 0 1 
1 -0.5 0.5 2.5 0.70710678118654502 -0.70710678118655002 0 
1 -0.5 0.5 -40 0 0 1 
1 -4 0.5 -8.75 -1 1.2390881971262901e-16 -0 
1 -4 0.499999999999999 2.5 1 3.7172645913788702e-16 0 
1 -4 0.499999999999999 -40 0 0 1 
2 -4 5.5 -8.75 0 0 -1 1 8.6736173798840296e-16 0 8.6736173798840296e-16 -1 0 5
2 -4 5.5 2.5 -0 0 1 1 0 0 0 1 -0 5
1 -9 5.5 -40 0 0 1 
1 -9 6 -42.5 -0 -0 1 
1 -8.9999999999999893 -15.7341189775596 -8.75 -3.4694469519536102e-16 1 -0 
1 -9 10.5 2.5 0 -1 0 
1 -8.8371704024444995 10.662829597555501 -40 0 0 -1 
1 -6.5 13 2.5 -0.70710678118654802 -0.70710678118654702 0 
1 -6.5 13 -40 0 0 1 
1 -6.5 13 -8.75 0.70710678118654802 0.70710678118654702 0 
1 -9 13 -8.75 1 3.1540426835942001e-16 0 
1 -1.5 13 2.5 -1 -3.4694469519536102e-16 0 
1 -1.5 13 -40 0 0 1 
1 0.83717040244449903 10.662829597555501 -40 0 0 1 
1 1 10.5 -8.75 0.70710678118654802 -0.70710678118654702 0 
1 1 10.5 2.5 -0.70710678118654802 0.70710678118654702 -0 
2 2 6 2.5 0 0 -1 1 8.6736173798840296e-16 0 8.6736173798840296e-16 -1 0 1
1 1 6 -40 -0 -0 -1 
2 2 6 -8.75 0 0 -1 1 8.6736173798840296e-16 0 8.6736173798840296e-16 -1 0 1
1 1.99999999999999 5 -40 -1.1513651389226601e-16 -1.4525819170257701e-32 -1 
1 0 0 -31.25 -0.70710678118654802 0.70710678118654702 -0 
1 0 0 -40 0 0 1 
1 0 0 -20 0.70710678118654802 -0.70710678118654702 0 
1 -0.5 0.5 -40 0 0 1 
1 -4 0.5 -31.25 -1 1.2390881971262901e-16 -0 
1 -4 0.5 -20 1 -1.2390881971262901e-16 0 
1 -4 0.499999999999999 -40 0 0 1 
2 -4 5.5 -31.25 0 0 -1 1 8.6736173798840296e-16 0 8.6736173798840296e-16 -1 0 5
2 -4 5.5 -20 0 0 1 -1 0 0 0 -1 0 5
1 -9 5.5 -40 0 0 1 
1 -9 6 -42.5 -0 -0 1 
1 -8.9999999999999893 -15.7341189775596 -31.25 -3.4694469519536102e-16 1 -0 
1 -8.9999999999999893 -15.7341189775596 -20 -3.4694469519536102e-16 1 -0 
1 -8.8371704024444995 10.662829597555501 -40 0 0 -1 
1 -6.5 13 -20 -0.70710678118654802 -0.70710678118654702 0 
1 -6.5 13 -40 0 0 1 
1 -6.5 13 -31.25 0.70710678118654802 0.70710678118654702 0 
1 -9 13 -31.25 1 3.1540426835942001e-16 0 
1 -9 13 -20 -1 -3.1540426835942001e-16 -0 
1 -1.5 13 -40 0 0 1 
1 0.83717040244449903 10.662829597555501 -40 0 0 1 
1 1 10.5 -31.25 0.70710678118654802 -0.70710678118654702 0 
1 1 10.5 -20 -0.70710678118654802 0.70710678118654702 0 
1 1.99999999999999 5 -42.5 -1 1.3605674321386701e-16 4.62592926927148e-16 
1 1.99999999999999 5 -40 -1.1513651389226601e-16 -1.4525819170257701e-32 -1 
1 1.99999999999999 5 -40 -1.1513651389226601e-16 -1.4525819170257701e-32 -1 
1 1.99999999999999 5 -40 -1.1513651389226601e-16 -1.4525819170257701e-32 -1 
1 2 5 2.5 -1 1.3605674321386701e-16 -0 
1 14.75 5 -40 0 0 1 
2 8.4999999999999893 5 -32.5 1.8094874017664599e-31 -1 3.2730631622203898e-16 -6.5461263244407797e-16 -3.2730631622203898e-16 -1 1 -3.3310109101036774e-32 -6.5461263244407797e-16 2.6499999999999999
2 8.5 5 -7.5 -0 1 3.2730631622203898e-16 0 -3.2730631622203898e-16 1 1 0 0 2.6499999999999999
1 14.75 5 2.5 -0.70710678118654702 0.70710678118654802 -0 
1 16 3.75 -40 0 0 1 
1 14.75 5 -42.5 -0.70710678118654702 0.70710678118654802 3.2710259555911898e-16 
1 16 3.75 2.5 -0 1 -0 
1 16 0 -40 0 0 1 
1 16 3.75 -42.5 -2.6515522917581301e-47 1 -1.14638687165907e-31 
1 -8.9999999999999893 0 -31.25 1 0 0 
1 2 0 -31.25 0 0 -1 
1 1.99999999999999 -2.5793704612329101e-30 -42.5 1 -2.6515522917581301e-47 -4.62592926927148e-16 
1 2 0 2.5 1 0 0 
1 -8.9999999999999893 0 -8.75 1 0 0 
1 2 0 -8.75 0 0 -1 
1 -8.9999999999999893 0 -20 -1 0 0 
2 8.4999999999999893 -6.93889390390723e-15 -32.5 8.0247081016134699e-32 -1 1.7347234759768101e-16 -6.5461263244407797e-16 -1.7347234759768101e-16 -1 1 -3.3310109101037398e-32 -6.5461263244407797e-16 2.6499999999999999
2 8.5 -6.93889390390723e-15 -7.5 -0 1 1.7347234759768101e-16 0 -1.7347234759768101e-16 1 1 0 0 2.6499999999999999
1 -9 6 2.5 0.034899496702494003 0.99939082701909587 0 
1 1 6 2.5 0.034899496702494003 -0.99939082701909587 -0 
2 -4 9.5 2.5 0 -0 1 1 0 0 -0 1 0 2.2999999999999998
1 2 -15.7341189775596 -42.5 -3.4694469519536102e-16 1 -0 
2 2 6 -20 0 0 1 -1 0 0 0 -1 0 1
1 1 6 -40 -0 -0 -1 
2 2 6 -31.25 0 0 -1 1 8.6736173798840296e-16 0 8.6736173798840296e-16 -1 0 1
1 2 -15.7341189775596 -20 -3.4694469519536102e-16 1 -0 
1 2 -15.7341189775596 -8.75 -3.4694469519536102e-16 1 -0 
1 -9.75804774990476 -15.7076473668214 -8.75 0.034899496702494003 0.99939082701909587 0 
1 1.7458680012038901 -15.358864998100801 -8.75 0.034899496702494003 -0.99939082701909587 0 
2 -4 9.5 -8.75 0 0 -1 1 0 0 0 -1 0 2.0249999999999999
1 -9.75804774990476 -15.7076473668214 -20 -0.034899496702494003 -0.99939082701909587 0 
1 1.7458680012038901 -15.358864998100801 -20 -0.034899496702494003 0.99939082701909587 0 
2 -4 9.5 -20 0 0 1 -1 0 0 0 -1 0 2.0249999999999999
1 2 -15.7341189775596 -31.25 -3.4694469519536102e-16 1 -0 
1 -9.75804774990476 -15.7076473668214 -31.25 0.034899496702494003 0.99939082701909587 0 
1 1.7458680012038901 -15.358864998100801 -31.25 0.034899496702494003 -0.99939082701909587 0 
2 -4 9.5 -31.25 0 0 -1 1 0 0 0 -1 0 2.0249999999999999
2 -4 9.5 2.5 0 0 1 1 0 -0 -0 1 0 1.5249999999999899
2 -4 9.5 -42.5 -0 -1.14638687165907e-31 -1 -1 0 0 0 1 -1.14638687165907e-31 1.86423048454133
2 -4 9.5 -41.899999999999999 0 0 1 -1 0 0 0 -1 0 2.0249999999999999
1 -6.2999999999999998 9.5 -42.5 -0.50000000000000222 1.1102230246251605e-16 -0.86602540378443738 
2 -4 9.5 -42.5 0 0 -1 -1 2.2204460492503101e-16 0 2.2204460492503101e-16 1 0 2.2999999999999998
1 -1.7 9.5 -42.5 0.50000000000000222 -4.9789962505148222e-17 -0.86602540378443738 
2 -4 9.5 -42.0236860279186 0 0 -1 -1 2.2204460492503101e-16 0 2.2204460492503101e-16 1 0 2.0249999999999999
1 -6.0250000000000004 9.5 7.1054273576010003e-15 0 0 -1 
2 -4 9.5 -20 0 0 -1 1 -2.2204460492503101e-16 0 -2.2204460492503101e-16 -1 -0 2.0249999999999999
1 -1.9750000000000001 9.5 7.1054273576010003e-15 0 0 -1 
2 -4 9.5 -8.7499999999999893 0 0 1 -1 2.2204460492503101e-16 0 -2.2204460492503101e-16 -1 0 2.0249999999999999
1 -16.5 5 -4.8499999999999899 2.2204460492503101e-16 1 1.7347234759768101e-16 
2 -16.5 5 -7.4999999999999902 -2.2204460492503101e-16 -1 -3.2730631622203898e-16 6.5461263244407797e-16 -3.2730631622203913e-16 1 -1 2.2204460492503079e-16 6.5461263244407807e-16 2.6499999999999999
1 -16.5 5 -10.15 2.2204460492503101e-16 1 1.7347234759768101e-16 
2 -16.5 -4.6720440016745397e-15 -7.4999999999999902 -2.2204460492503101e-16 -1 -1.7347234759768101e-16 6.5461263244407797e-16 -1.7347234759768115e-16 1 -1 2.2204460492503089e-16 6.5461263244407797e-16 2.6499999999999999
1 -16.5 5 -35.149999999999999 2.2204460492503101e-16 1 -1.7347234759767999e-16 
2 -16.5 5 -32.5 2.2204460492503101e-16 1 -3.2730631622203898e-16 -7.2676601674990001e-32 -3.2730631622203898e-16 -1 -1 2.2204460492503101e-16 8.7581154020301067e-47 2.6499999999999999
1 -16.5 5 -29.850000000000001 2.2204460492503101e-16 1 -1.7347234759767999e-16 
2 -16.5 -4.6720440016745397e-15 -32.5 2.2204460492503101e-16 1 -1.7347234759768101e-16 -3.8518598887744701e-32 -1.7347234759768101e-16 -1 -1 2.2204460492503101e-16 -3.28429327576129e-47 2.6499999999999999
1 -6.0250000000000004 9.5 7.1054273576010003e-15 0 0 -1 
1 -1.9750000000000001 9.5 7.1054273576010003e-15 0 0 -1 
2 -4 9.5 -31.25 0 0 1 -1 2.2204460492503101e-16 0 -2.2204460492503101e-16 -1 0 2.0249999999999999
1 -8 3.79470760369927e-16 -31.25 0.70710678118654702 0.70710678118654802 0 
1 -8 3.79470760369927e-16 7.1054273576010003e-15 0 0 -1 
1 -7.5 0.5 -42.5 -0.70710678118654502 -0.70710678118655002 0 
1 -7.5 0.5 7.1054273576010003e-15 0 0 -1 
1 -4 0.5 -31.25 1 -9.8135785212402202e-17 0 
1 -4 0.499999999999998 -42.5 -1 5.9377106406291804e-16 0 
1 -4.0000000000000098 0.499999999999998 7.1054273576010003e-15 0 0 -1 
2 -4 5.5 -31.25 0 0 1 -1 1.0894063429134299e-15 0 -1.0894063429134299e-15 -1 0 5
2 -4 5.5 -42.5 0 0 -1 -1 2.2204460492503101e-16 0 2.2204460492503101e-16 1 0 5
1 1 5.5 7.1054273576010003e-15 0 0 -1 
1 1 5.9999999999999902 2.5000000000000102 0 0 -1 
1 0.99999999999998601 -15.7341189775596 -31.25 5.6898930012039302e-16 1 0 
1 1 10.5 -42.5 -2.2204460492503101e-16 -1 0 
1 0.83717040244449803 10.662829597555501 7.1054273576010003e-15 0 0 1 
1 -1.5 13 -42.5 0.70710678118654702 -0.70710678118654802 -0 
1 -1.5 13 7.1054273576010003e-15 0 0 -1 
1 -1.5 13 -31.25 -0.70710678118654802 0.70710678118654702 0 
1 1 13 -31.25 -1 5.3744887328445097e-16 0 
1 -6.5 13 -42.5 1 -5.6898930012039302e-16 -0 
1 -6.5 13 7.1054273576010003e-15 0 0 -1 
1 -8.8371704024444995 10.662829597555501 7.1054273576010003e-15 0 0 -1 
1 -9 10.5 -31.25 -0.70710678118654702 -0.70710678118654802 0 
1 -9 10.5 -42.5 0.70710678118654702 0.70710678118654802 0 
2 -10 6 -42.5 0 0 1 -1 1.0894063429134299e-15 0 -1.0894063429134299e-15 -1 0 1
1 -9 6 7.1054273576010003e-15 0 -0 1 
2 -10 6 -31.25 0 0 1 -1 1.0894063429134299e-15 0 -1.0894063429134299e-15 -1 0 1
1 -10 5 7.1054273576010003e-15 1.1513651389226601e-16 -4.7354170495040199e-32 1 
2 -4 9.5 -42.0236860279186 0 0 -1 -1 2.2204460492503101e-16 0 2.2204460492503101e-16 1 0 2.0249999999999999
2 -4 9.5 -31.25 0 0 1 -1 2.2204460492503101e-16 0 -2.2204460492503101e-16 -1 0 2.0249999999999999
1 -8 3.79470760369927e-16 -8.7499999999999893 0.70710678118654702 0.70710678118654802 0 
1 -8 3.79470760369927e-16 7.1054273576010003e-15 0 0 -1 
1 -8 3.79470760369927e-16 -20 -0.70710678118654702 -0.70710678118654802 0 
1 -7.5 0.5 7.1054273576010003e-15 0 0 -1 
1 -4 0.5 -8.7499999999999893 1 -9.8135785212402202e-17 0 
1 -4 0.5 -20 -1 9.8135785212402202e-17 0 
1 -4.0000000000000098 0.499999999999998 7.1054273576010003e-15 0 0 -1 
2 -4 5.5 -8.7499999999999893 0 0 1 -1 1.0894063429134299e-15 0 -1.0894063429134299e-15 -1 0 5
2 -4 5.5 -20 0 0 -1 1 -2.2204460492503101e-16 0 -2.2204460492503101e-16 -1 -0 5
1 1 5.5 7.1054273576010003e-15 0 0 -1 
1 1 5.9999999999999902 2.5000000000000102 0 0 -1 
1 0.99999999999998601 -15.7341189775596 -8.7499999999999893 5.6898930012039302e-16 1 0 
1 0.99999999999998601 -15.7341189775596 -20 5.6898930012039302e-16 1 0 
1 0.83717040244449803 10.662829597555501 7.1054273576010003e-15 0 0 1 
1 -1.5 13 -20 0.70710678118654802 -0.70710678118654702 -0 
1 -1.5 13 7.1054273576010003e-15 0 0 -1 
1 -1.5 13 -8.7499999999999893 -0.70710678118654802 0.70710678118654702 0 
1 1 13 -8.7499999999999893 -1 5.3744887328445097e-16 0 
1 1 13 -20 1 -5.3744887328445097e-16 0 
1 -6.5 13 7.1054273576010003e-15 0 0 -1 
1 -8.8371704024444995 10.662829597555501 7.1054273576010003e-15 0 0 -1 
1 -9 10.5 -8.7499999999999893 -0.70710678118654702 -0.70710678118654802 0 
1 -9 10.5 -20 0.70710678118654702 0.70710678118654802 0 
1 -9.9999999999999893 5 2.5 1 -8.59878617111641e-17 -4.62592926927148e-16 
1 -10 5 7.1054273576010003e-15 1.1513651389226601e-16 -4.7354170495040199e-32 1 
1 -10 5 7.1054273576010003e-15 1.1513651389226601e-16 -4.7354170495040199e-32 1 
1 -10 5 7.1054273576010003e-15 1.1513651389226601e-16 -4.7354170495040199e-32 1 
1 -10 5 -42.5 1 -8.59878617111641e-17 0 
1 -22.75 5 7.1054273576010003e-15 0 0 -1 
2 -16.5 5 -7.4999999999999902 -2.2204460492503101e-16 -1 -3.2730631622203898e-16 6.5461263244407797e-16 -3.2730631622203913e-16 1 -1 2.2204460492503079e-16 6.5461263244407807e-16 2.6499999999999999
2 -16.5 5 -32.5 2.2204460492503101e-16 1 -3.2730631622203898e-16 -7.2676601674990001e-32 -3.2730631622203898e-16 -1 -1 2.2204460492503101e-16 8.7581154020301067e-47 2.6499999999999999
1 -22.75 5 -42.5 0.70710678118654702 0.70710678118654802 0 
1 -24 3.75 7.1054273576010003e-15 0 0 -1 
1 -22.75 5 2.5000000000000102 0.70710678118654702 0.70710678118654802 -3.2710259555911898e-16 
1 -24 3.75 -42.5 2.2204460492503101e-16 1 0 
1 -24 3.9321844391704298e-15 7.1054273576010003e-15 0 0 -1 
1 -24 3.75 2.5000000000000102 2.2204460492503101e-16 1 1.14638687165907e-31 
1 0.99999999999998901 -1.6189306839553501e-15 -8.7499999999999893 -1 2.2204460492503101e-16 0 
1 -10 8.2355997021998897e-16 -8.7499999999999893 0 0 1 
1 -10 8.2355997021998503e-16 2.5 -1 2.2204460492503101e-16 4.62592926927148e-16 
1 -10 8.2355997021998996e-16 -42.5 -1 2.2204460492503101e-16 0 
1 0.99999999999998901 -1.6189306839553501e-15 -31.25 -1 2.2204460492503101e-16 0 
1 -10 8.2355997021998897e-16 -31.25 0 0 1 
1 0.99999999999998901 -1.6189306839553501e-15 -20 1 -2.2204460492503101e-16 0 
2 -16.5 -4.6720440016745397e-15 -7.4999999999999902 -2.2204460492503101e-16 -1 -1.7347234759768101e-16 6.5461263244407797e-16 -1.7347234759768115e-16 1 -1 2.2204460492503089e-16 6.5461263244407797e-16 2.6499999999999999
2 -16.5 -4.6720440016745397e-15 -32.5 2.2204460492503101e-16 1 -1.7347234759768101e-16 -3.8518598887744701e-32 -1.7347234759768101e-16 -1 -1 2.2204460492503101e-16 -3.28429327576129e-47 2.6499999999999999
1 1 5.9999999999999902 -42.5 -0.034899496702493496 0.99939082701909587 0 
1 -9 6 -42.5 -0.03489949670249419 -0.99939082701909587 0 
2 -4 9.5 -42.5 0 0 -1 -1 2.2204460492503101e-16 0 2.2204460492503101e-16 1 0 2.2999999999999998
1 -10 -15.7341189775596 2.5000000000000102 5.6898930012039302e-16 1 0 
2 -10 6 -20 0 0 -1 1 -2.2204460492503101e-16 0 -2.2204460492503101e-16 -1 -0 1
1 -9 6 7.1054273576010003e-15 0 -0 1 
2 -10 6 -8.7499999999999893 0 0 1 -1 1.0894063429134299e-15 0 -1.0894063429134299e-15 -1 0 1
2 -4 9.5 -20 0 0 -1 1 -2.2204460492503101e-16 0 -2.2204460492503101e-16 -1 -0 2.0249999999999999
2 -4 9.5 -8.7499999999999893 0 0 1 -1 2.2204460492503101e-16 0 -2.2204460492503101e-16 -1 0 2.0249999999999999
1 -10 -15.7341189775596 -20 5.6898930012039302e-16 1 0 
1 -10 -15.7341189775596 -31.25 5.6898930012039302e-16 1 0 
1 1.75804774990475 -15.7076473668214 -31.25 -0.034899496702493496 0.99939082701909587 0 
1 -9.7458680012039007 -15.3588649981009 -31.25 -0.03489949670249419 -0.99939082701909587 0 
1 1.75804774990475 -15.7076473668214 -20 0.034899496702493496 -0.99939082701909587 -0 
1 -9.7458680012039007 -15.3588649981009 -20 0.03489949670249419 0.99939082701909587 0 
1 -10 -15.7341189775596 -8.7499999999999893 5.6898930012039302e-16 1 0 
1 1.75804774990475 -15.7076473668214 -8.7499999999999893 -0.034899496702493496 0.99939082701909587 0 
1 -9.7458680012039007 -15.3588649981009 -8.7499999999999893 -0.03489949670249419 -0.99939082701909587 0 
Polygon3D 0
PolygonOnTriangulations 0
Surfaces 88
3 -4 9.5 -41.899999999999999 -0 -0 1 1 0 0 -0 1 0 2.0249999999999999
0.26179938779914502
1 -1.04083408558608e-14 -2.5793704612329101e-30 -42.5 -4.62592926927148e-16 -1.14638687165907e-31 -1 -1 0 4.62592926927148e-16 -5.3031045835162592e-47 1 -1.14638687165907e-31 
3 -4 9.5 -41.899999999999999 -0 -0 1 1 0 0 -0 1 0 2.0249999999999999
0.26179938779914502
2 -4 9.5 -48.227564927610999 -0 0 1 1 0 0 0 1 -0 2.0249999999999999
3 -4 9.5 2.5 -0 -0 -1 -1 0 0 0 1 -0 1.5249999999999899
0.78539816339745006
1 -4 9.5 2.5 0 0 1 1 0 -0 -0 1 0 
3 -4 9.5 2.5 -0 -0 -1 -1 0 0 0 1 -0 1.5249999999999899
0.78539816339745006
3 -4 9.5 2.5 -0 -0 1 1 0 0 -0 1 0 2.2999999999999998
0.52359877559830104
2 -4 9.5 -48.227564927610999 -0 0 1 1 0 0 0 1 -0 2.0249999999999999
1 -8.9999999999999893 -15.7341189775596 -20 0 0 -1 0 -1 0 -1 -0 -0 
2 -4 9.5 -48.227564927610999 -0 0 1 1 0 0 0 1 -0 2.0249999999999999
1 -8.9999999999999893 -15.7341189775596 -8.75 -0 0 1 1 0 0 0 1 -0 
2 -4 9.5 -48.227564927610999 -0 0 1 1 0 0 0 1 -0 2.0249999999999999
1 -8.9999999999999893 -15.7341189775596 -31.25 -0 0 1 1 0 0 0 1 -0 
3 -4 9.5 2.5 -0 -0 1 1 0 0 -0 1 0 2.2999999999999998
0.52359877559830104
1 0 0 2.5 -0 0 1 1 0 0 0 1 -0 
2 8.4999999999999893 5 -32.5 -1.8094874017664599e-31 1 -3.2730631622203898e-16 -6.5461263244407797e-16 -3.2730631622203898e-16 -1 -1 3.3310109101036774e-32 6.5461263244407797e-16 2.6499999999999999
2 8.4999999999999893 5 -32.5 -1.8094874017664599e-31 1 -3.2730631622203898e-16 -6.5461263244407797e-16 -3.2730631622203898e-16 -1 -1 3.3310109101036774e-32 6.5461263244407797e-16 2.6499999999999999
1 14.75 5 -40 -2.00808768601969e-48 1 1.5916776399894501e-32 0 1.5916776399894501e-32 -1 -1 -2.00808768601969e-48 -3.1962282689756961e-80 
1 0 0 -40 0 -1 0 0 0 -1 1 0 0 
2 8.5 5 -7.5 0 1 3.2730631622203898e-16 0 -3.2730631622203898e-16 1 1 0 -0 2.6499999999999999
2 8.5 5 -7.5 0 1 3.2730631622203898e-16 0 -3.2730631622203898e-16 1 1 0 -0 2.6499999999999999
1 0 0 -40 -0.70710678118654702 -0.70710678118654802 0 -0.70710678118654802 0.70710678118654702 0 -0 0 -1 
1 -4 0.5 -40 -1.2390881971262901e-16 -1 0 -1 1.2390881971262901e-16 0 -0 0 -1 
2 -4 5.5 -40 -0 0 1 1 0 0 0 1 -0 5
1 -9 10.5 -40 -1 0 0 0 0 1 0 1 -0 
1 -9 6 -42.5 0.99939082701909598 -0.034899496702494003 0 0 0 -1 0.034899496702494003 0.99939082701909598 0 
1 -6.5 13 -40 -0.70710678118654702 0.70710678118654802 0 0 0 1 0.70710678118654802 0.70710678118654702 -0 
1 -1.5 13 -40 -4.1761948595190499e-47 1 1.20370621524202e-31 0 1.20370621524202e-31 -1 -1 -4.1761948595190499e-47 -5.0269117084648547e-78 
1 1 10.5 -40 0.70710678118654702 0.70710678118654802 0 0 0 -1 -0.70710678118654802 0.70710678118654702 0 
1 1 6 -42.5 -0.99939082701909598 -0.034899496702494003 0 -0.034899496702494003 0.99939082701909598 0 -0 0 -1 
2 2 6 -40 -0 0 -1 -1 0 0 0 1 0 1
1 0 0 -40 -0.70710678118654702 -0.70710678118654802 0 -0.70710678118654802 0.70710678118654702 0 -0 0 -1 
1 -4 0.5 -40 -1.2390881971262901e-16 -1 0 -1 1.2390881971262901e-16 0 -0 0 -1 
2 -4 5.5 -40 -0 0 1 1 0 0 0 1 -0 5
1 -9 10.5 -40 -1 0 0 0 0 1 0 1 -0 
1 -9 6 -42.5 0.99939082701909598 -0.034899496702494003 0 0 0 -1 0.034899496702494003 0.99939082701909598 0 
1 -6.5 13 -40 -0.70710678118654702 0.70710678118654802 0 0 0 1 0.70710678118654802 0.70710678118654702 -0 
1 -1.5 13 -40 -4.1761948595190499e-47 1 1.20370621524202e-31 0 1.20370621524202e-31 -1 -1 -4.1761948595190499e-47 -5.0269117084648547e-78 
1 1 10.5 -40 0.70710678118654702 0.70710678118654802 0 0 0 -1 -0.70710678118654802 0.70710678118654702 0 
1 1 6 -42.5 -0.99939082701909598 -0.034899496702494003 0 -0.034899496702494003 0.99939082701909598 0 -0 0 -1 
1 -1.04083408558608e-14 -2.5793704612329101e-30 -42.5 -4.62592926927148e-16 -1.14638687165907e-31 -1 -1 0 4.62592926927148e-16 -5.3031045835162592e-47 1 -1.14638687165907e-31 
1 2 -15.7341189775596 -31.25 1 4.1761948595190499e-47 1.20370621524202e-31 -1.20370621524202e-31 0 1 4.1761948595190499e-47 -1 5.0269117084648547e-78 
2 2 6 -40 -0 0 -1 -1 0 0 0 1 0 1
1 2 -15.7341189775596 -8.75 1 4.1761948595190499e-47 1.20370621524202e-31 -1.20370621524202e-31 0 1 4.1761948595190499e-47 -1 5.0269117084648547e-78 
1 16 3.75 -40 0.70710678118654557 0.70710678118654957 0 0 0 -1 -0.70710678118654957 0.70710678118654557 0 
1 16 0 -40 1 0 0 -0 1 0 0 -0 1 
3 -4 9.5 -42.5 -0 -0 -1 -1 2.2204460492503101e-16 0 2.2204460492503101e-16 1 -0 2.2999999999999998
0.52359877559830104
3 -4 9.5 -42.5 -0 -0 -1 -1 2.2204460492503101e-16 0 2.2204460492503101e-16 1 -0 2.2999999999999998
0.52359877559830104
1 -8 3.79470760369927e-16 -42.5 0 0 -1 0 -1 0 -1 -0 -0 
2 -4 9.5 7.1054273576010003e-15 0 0 -1 -1 2.2204460492503101e-16 0 2.2204460492503101e-16 1 0 2.0249999999999999
2 -4 9.5 7.1054273576010003e-15 0 0 -1 -1 2.2204460492503101e-16 0 2.2204460492503101e-16 1 0 2.0249999999999999
2 -4 9.5 7.1054273576010003e-15 0 0 -1 -1 2.2204460492503101e-16 0 2.2204460492503101e-16 1 0 2.0249999999999999
1 0.99999999999998601 -15.7341189775596 -20 0 0 1 1 0 -0 -0 1 0 
1 0.99999999999998601 -15.7341189775596 -8.7499999999999893 0 0 -1 0 -1 0 -1 -0 -0 
2 -16.5 5 -7.4999999999999902 2.2204460492503101e-16 1 3.2730631622203898e-16 6.5461263244407797e-16 -3.2730631622203913e-16 1 1 -2.2204460492503079e-16 -6.5461263244407807e-16 2.6499999999999999
2 -16.5 5 -7.4999999999999902 2.2204460492503101e-16 1 3.2730631622203898e-16 6.5461263244407797e-16 -3.2730631622203913e-16 1 1 -2.2204460492503079e-16 -6.5461263244407807e-16 2.6499999999999999
1 -22.75 5 7.1054273576010003e-15 2.2204460492503101e-16 1 -3.5812746899762698e-32 1 -2.2204460492503101e-16 0 -7.9520272366379371e-48 -3.5812746899762698e-32 -1 
1 -8 3.79470760369927e-16 7.1054273576010003e-15 -2.2204460492503101e-16 -1 0 -1 2.2204460492503101e-16 0 -0 0 -1 
2 -16.5 5 -32.5 2.2204460492503101e-16 1 -3.2730631622203898e-16 -7.2676601674990001e-32 -3.2730631622203898e-16 -1 -1 2.2204460492503101e-16 8.7581154020301067e-47 2.6499999999999999
2 -16.5 5 -32.5 2.2204460492503101e-16 1 -3.2730631622203898e-16 -7.2676601674990001e-32 -3.2730631622203898e-16 -1 -1 2.2204460492503101e-16 8.7581154020301067e-47 2.6499999999999999
2 -4 9.5 7.1054273576010003e-15 0 0 -1 -1 2.2204460492503101e-16 0 2.2204460492503101e-16 1 0 2.0249999999999999
1 0.99999999999998601 -15.7341189775596 -31.25 0 0 -1 0 -1 0 -1 -0 -0 
1 -8 3.79470760369927e-16 7.1054273576010003e-15 0.70710678118654802 -0.70710678118654702 0 0 0 -1 0.70710678118654702 0.70710678118654802 0 
1 -4 0.5 7.1054273576010003e-15 -9.8135785212402202e-17 -1 0 -1 9.8135785212402202e-17 0 -0 0 -1 
2 -4 5.5 7.1054273576010003e-15 0 0 -1 -1 2.2204460492503101e-16 0 2.2204460492503101e-16 1 0 5
1 1 10.5 7.1054273576010003e-15 1 -2.2204460492503101e-16 0 -2.2204460492503101e-16 -1 0 0 -0 -1 
1 1 5.9999999999999902 2.5000000000000102 -0.99939082701909598 -0.034899496702493503 0 -0.034899496702493503 0.99939082701909598 0 -0 0 -1 
1 -1.5 13 7.1054273576010003e-15 0.70710678118654702 0.70710678118654802 0 0 0 -1 -0.70710678118654802 0.70710678118654702 0 
1 -6.5 13 7.1054273576010003e-15 2.2204460492503101e-16 1 -1.08333559371782e-30 1 -2.2204460492503101e-16 0 -2.4054882390829726e-46 -1.08333559371782e-30 -1 
1 -9 10.5 7.1054273576010003e-15 -0.70710678118654802 0.70710678118654702 0 0 0 1 0.70710678118654702 0.70710678118654802 -0 
1 -9 6 2.5000000000000102 0.99939082701909598 -0.034899496702494197 0 0 0 -1 0.034899496702494197 0.99939082701909598 0 
2 -10 6 7.1054273576010003e-15 -0 0 1 1 -2.2204460492503101e-16 0 2.2204460492503101e-16 1 0 1
1 -8 3.79470760369927e-16 7.1054273576010003e-15 0.70710678118654802 -0.70710678118654702 0 0 0 -1 0.70710678118654702 0.70710678118654802 0 
1 -4 0.5 7.1054273576010003e-15 -9.8135785212402202e-17 -1 0 -1 9.8135785212402202e-17 0 -0 0 -1 
2 -4 5.5 7.1054273576010003e-15 0 0 -1 -1 2.2204460492503101e-16 0 2.2204460492503101e-16 1 0 5
1 1 10.5 7.1054273576010003e-15 1 -2.2204460492503101e-16 0 -2.2204460492503101e-16 -1 0 0 -0 -1 
1 1 5.9999999999999902 2.5000000000000102 -0.99939082701909598 -0.034899496702493503 0 -0.034899496702493503 0.99939082701909598 0 -0 0 -1 
1 -1.5 13 7.1054273576010003e-15 0.70710678118654702 0.70710678118654802 0 0 0 -1 -0.70710678118654802 0.70710678118654702 0 
1 -6.5 13 7.1054273576010003e-15 2.2204460492503101e-16 1 -1.08333559371782e-30 1 -2.2204460492503101e-16 0 -2.4054882390829726e-46 -1.08333559371782e-30 -1 
1 -9 10.5 7.1054273576010003e-15 -0.70710678118654802 0.70710678118654702 0 0 0 1 0.70710678118654702 0.70710678118654802 -0 
1 -9 6 2.5000000000000102 0.99939082701909598 -0.034899496702494197 0 0 0 -1 0.034899496702494197 0.99939082701909598 0 
1 -7.9999999999999902 3.7947076036992202e-16 2.5 4.62592926927148e-16 -2.1735495086655901e-31 1 1 0 -4.62592926927148e-16 1.0054686290346798e-46 1 2.1735495086655901e-31 
1 -10 -15.7341189775596 -8.7499999999999893 -1 2.2204460492503101e-16 -1.20370621524202e-31 -1.20370621524202e-31 0 1 2.2204460492503101e-16 1 2.6727647100921869e-47 
2 -10 6 7.1054273576010003e-15 -0 0 1 1 -2.2204460492503101e-16 0 2.2204460492503101e-16 1 0 1
1 -10 -15.7341189775596 -31.25 -1 2.2204460492503101e-16 -1.20370621524202e-31 -1.20370621524202e-31 0 1 2.2204460492503101e-16 1 2.6727647100921869e-47 
1 -24 3.75 7.1054273576010003e-15 -0.70710678118654702 0.70710678118654802 0 0 0 1 0.70710678118654802 0.70710678118654702 -0 
1 -24 3.9321844391704298e-15 7.1054273576010003e-15 -1 2.2204460492503101e-16 0 0 0 1 2.2204460492503101e-16 1 -0 
Triangulations 0

TShapes 583
Ve
1e-07
-5.86423048454133 9.5 -42.5
0 0

0101101
*
Ve
1e-07
-2.13576951545867 9.5 -42.5
0 0

0101101
*
Ed
 1e-07 1 1 0
1  1 0 0 3.14159265358979
2  1 1 0 0 3.14159265358979
4 C0 1 0 2 0
0

0101000
+583 0 -582 0 *
Ve
1e-07
-6.025 9.5 -41.9
0 0

0101101
*
Ed
 1e-07 1 1 0
1  2 0 -0.62116570824605 0
2  2 1 0 -0.62116570824605 0
2  3 3 0 -0.62116570824605 0
4 CN 1 0 3 0
0

0101000
+583 0 -580 0 *
Ve
1e-07
-1.975 9.5 -41.9
0 0

0101101
*
Ed
 1e-07 1 1 0
1  3 0 3.14159265358979 6.28318530717959
2  4 1 0 3.14159265358979 6.28318530717959
2  5 4 0 3.14159265358979 6.28318530717959
4 C0 1 0 4 0
0

0101000
+578 0 -580 0 *
Ed
 1e-07 1 1 0
1  4 0 -0.62116570824605 0
2  6 1 0 -0.62116570824605 0
2  7 3 0 -0.62116570824605 0
4 CN 1 0 3 0
0

0101000
+582 0 -578 0 *
Wi

0101100
-581 0 +579 0 -577 0 -576 0 *
Fa
0  1e-07 1 0

0111000
+575 0 *
Ve
1e-07
-2.47500000000001 9.5 2.5
0 0

0101101
*
Ve
1e-07
-5.52499999999999 9.5 2.5
0 0

0101101
*
Ed
 1e-07 1 1 0
1  5 0 0 3.14159265358979
2  8 5 0 0 3.14159265358979
4 C0 5 0 6 0
0

0101000
+573 0 -572 0 *
Ve
1e-07
-1.98366968793294 9.5 2.00866968793294
0 0

0101101
*
Ed
 1e-07 1 1 0
1  6 0 0 0.694845990930248
2  9 5 0 0 0.694845990930248
2  10 7 0 0 0.694845990930248
4 CN 5 0 7 0
0

0101000
+573 0 -570 0 *
Ve
1e-07
-6.01633031206706 9.5 2.00866968793294
0 0

0101101
*
Ed
 1e-07 1 1 0
1  7 0 0 3.14159265358979
2  11 5 0 0 3.14159265358979
2  12 8 0 0 3.14159265358979
4 C0 5 0 8 0
0

0101000
+568 0 -570 0 *
Ed
 1e-07 1 1 0
1  8 0 0 0.694845990930249
2  13 5 0 0 0.694845990930249
2  14 7 0 0 0.694845990930249
4 CN 5 0 7 0
0

0101000
+572 0 -568 0 *
Wi

0101100
-571 0 +569 0 -567 0 -566 0 *
Fa
0  1e-07 5 0

0111000
+565 0 *
Ve
1e-07
-1.975 9.5 -20
0 0

0101101
*
Ve
1e-07
-6.025 9.5 -20
0 0

0101101
*
Ed
 1e-07 1 1 0
1  9 0 3.14159265358979 6.28318530717959
2  15 9 0 3.14159265358979 6.28318530717959
4 C0 9 0 10 0
0

0101000
+563 0 -562 0 *
Ve
1e-07
-6.025 9.5 -8.75
0 0

0101101
*
Ed
 1e-07 1 1 0
1  10 0 28.227564927611 39.477564927611
2  16 9 0 28.227564927611 39.477564927611
2  17 11 0 28.227564927611 39.477564927611
4 CN 9 0 11 0
0

0101000
+562 0 -560 0 *
Ve
1e-07
-1.975 9.5 -8.75
0 0

0101101
*
Ed
 1e-07 1 1 0
1  11 0 3.14159265358979 6.28318530717959
2  18 9 0 3.14159265358979 6.28318530717959
4 C0 9 0 12 0
0

0101000
+560 0 -558 0 *
Ed
 1e-07 1 1 0
1  12 0 28.227564927611 39.477564927611
2  19 9 0 28.227564927611 39.477564927611
2  20 11 0 28.227564927611 39.477564927611
4 CN 9 0 11 0
0

0101000
+563 0 -558 0 *
Wi

0101100
+561 0 +559 0 +557 0 -556 0 *
Fa
0  1e-07 9 0

0111000
+555 0 *
Ve
1e-07
-6.025 9.5 -31.25
0 0

0101101
*
Ed
 1e-07 1 1 0
1  13 0 6.327564927611 16.977564927611
2  21 4 0 6.327564927611 16.977564927611
2  22 13 0 6.327564927611 16.977564927611
4 CN 4 0 13 0
0

0101000
+580 0 -553 0 *
Ve
1e-07
-1.975 9.5 -31.25
0 0

0101101
*
Ed
 1e-07 1 1 0
1  14 0 3.14159265358979 6.28318530717959
2  23 4 0 3.14159265358979 6.28318530717959
4 C0 4 0 14 0
0

0101000
+553 0 -551 0 *
Ed
 1e-07 1 1 0
1  15 0 6.327564927611 16.977564927611
2  24 4 0 6.327564927611 16.977564927611
2  25 13 0 6.327564927611 16.977564927611
4 CN 4 0 13 0
0

0101000
+578 0 -551 0 *
Wi

0101100
+577 0 +552 0 +550 0 -549 0 *
Fa
0  1e-07 4 0

0111000
+548 0 *
Ve
1e-07
-1.7 9.5 2.5
0 0

0101101
*
Ed
 1e-07 1 1 0
1  16 0 -0.56733937586588 0
2  26 15 0 -0.56733937586588 0
2  27 8 0 -0.56733937586588 0
4 CN 15 0 8 0
0

0101000
+570 0 -546 0 *
Ve
1e-07
-6.3 9.5 2.5
0 0

0101101
*
Ed
 1e-07 1 1 0
1  17 0 3.14159265358979 6.28318530717959
2  28 15 0 3.14159265358979 6.28318530717959
4 C0 15 0 16 0
0

0101000
+544 0 -546 0 *
Ed
 1e-07 1 1 0
1  18 0 -0.56733937586588 0
2  29 15 0 -0.56733937586588 0
2  30 8 0 -0.56733937586588 0
4 CN 15 0 8 0
0

0101000
+568 0 -544 0 *
Ed
 1e-07 1 1 0
1  19 0 3.14159265358979 6.28318530717959
2  31 15 0 3.14159265358979 6.28318530717959
2  32 7 0 3.14159265358979 6.28318530717959
4 C0 15 0 7 0
0

0101000
+570 0 -568 0 *
Wi

0101100
+545 0 -543 0 -542 0 -541 0 *
Fa
0  1e-07 15 0

0111000
+540 0 *
Ve
1e-07
8.49999999999999 -7.39859562504108e-15 -35.15
0 0

0101101
*
Ve
1e-07
8.49999999999999 5 -35.15
0 0

0101101
*
Ed
 1e-07 1 1 0
1  20 0 -5.00000000000001 0
2  33 17 0 -5.00000000000001 0
2  34 18 0 -5.00000000000001 0
4 CN 17 0 18 0
0

0101000
+538 0 -537 0 *
Ve
1e-07
8.5 5 -29.85
0 0

0101101
*
Ed
 1e-07 1 1 0
1  21 0 0 3.14159265358979
2  35 17 0 0 3.14159265358979
4 C0 17 0 19 0
0

0101000
+537 0 -535 0 *
Ve
1e-07
8.5 -6.47919218277338e-15 -29.85
0 0

0101101
*
Ed
 1e-07 1 1 0
1  22 0 -5.00000000000001 0
2  36 17 0 -5.00000000000001 0
2  37 18 0 -5.00000000000001 0
4 CN 17 0 18 0
0

0101000
+533 0 -535 0 *
Ed
 1e-07 1 1 0
1  23 0 0 3.14159265358979
2  38 17 0 0 3.14159265358979
4 C0 17 0 20 0
0

0101000
+538 0 -533 0 *
Wi

0101100
+536 0 +534 0 -532 0 -531 0 *
Fa
0  1e-07 17 0

0111000
+530 0 *
Ve
1e-07
8.5 -7.39859562504108e-15 -4.85
0 0

0101101
*
Ve
1e-07
8.5 5 -4.85
0 0

0101101
*
Ed
 1e-07 1 1 0
1  24 0 -5.00000000000001 0
2  39 21 0 -5.00000000000001 0
2  40 22 0 -5.00000000000001 0
4 CN 21 0 22 0
0

0101000
+528 0 -527 0 *
Ve
1e-07
8.5 5 -10.15
0 0

0101101
*
Ed
 1e-07 1 1 0
1  25 0 3.14159265358979 6.28318530717959
2  41 21 0 3.14159265358979 6.28318530717959
4 C0 21 0 19 0
0

0101000
+525 0 -527 0 *
Ve
1e-07
8.5 -6.47919218277338e-15 -10.15
0 0

0101101
*
Ed
 1e-07 1 1 0
1  26 0 -5.00000000000001 0
2  42 21 0 -5.00000000000001 0
2  43 22 0 -5.00000000000001 0
4 CN 21 0 22 0
0

0101000
+523 0 -525 0 *
Ed
 1e-07 1 1 0
1  27 0 3.14159265358979 6.28318530717959
2  44 21 0 3.14159265358979 6.28318530717959
4 C0 21 0 20 0
0

0101000
+523 0 -528 0 *
Wi

0101100
+526 0 -524 0 -522 0 +521 0 *
Fa
0  1e-07 21 0

0111000
+520 0 *
Ve
1e-07
0 0 -8.75
0 0

0101101
*
Ve
1e-07
-0.5 0.5 -8.75
0 0

0101101
*
Ed
 1e-07 1 1 0
1  28 0 0 0.707106781186547
4 C0 23 0 12 0
0

0101000
+518 0 -517 0 *
Ve
1e-07
0 -3.93203987888076e-15 2.5
0 0

0101101
*
Ed
 1e-07 1 1 0
1  29 0 31.25 42.5
4 C0 23 0 20 0
0

0101000
+518 0 -515 0 *
Ve
1e-07
-0.5 0.5 2.5
0 0

0101101
*
Ed
 1e-07 1 1 0
1  30 0 0 0.70710678118655
4 C0 23 0 16 0
0

0101000
+513 0 -515 0 *
Ed
 1e-07 1 1 0
1  31 0 31.25 42.5
4 C0 23 0 24 0
0

0101000
+517 0 -513 0 *
Wi

0101100
-516 0 +514 0 -512 0 -511 0 *
Fa
0  1e-07 23 0

0111000
+510 0 *
Ve
1e-07
-4 0.499999999999999 -8.75
0 0

0101101
*
Ed
 1e-07 1 1 0
1  32 0 -3.5 -1.23809782139179e-31
4 C0 24 0 12 0
0

0101000
+517 0 -508 0 *
Ve
1e-07
-4 0.499999999999999 2.5
0 0

0101101
*
Ed
 1e-07 1 1 0
1  33 0 0 3.5
4 C0 24 0 16 0
0

0101000
+506 0 -513 0 *
Ed
 1e-07 1 1 0
1  34 0 31.25 42.5
2  45 25 0 31.25 42.5
4 G1 24 0 25 0
0

0101000
+508 0 -506 0 *
Wi

0101100
-507 0 +511 0 -505 0 -504 0 *
Fa
0  1e-07 24 0

0111000
+503 0 *
Ve
1e-07
-9 5.5 -8.75
0 0

0101101
*
Ed
 1e-07 1 1 0
1  35 0 1.5707963267949 3.14159265358979
2  46 25 0 1.5707963267949 3.14159265358979
4 C0 25 0 12 0
0

0101000
+508 0 -501 0 *
Ve
1e-07
-9 5.5 2.5
0 0

0101101
*
Ed
 1e-07 1 1 0
1  36 0 3.14159265358979 4.71238898038469
2  47 25 0 3.14159265358979 4.71238898038469
4 C0 25 0 16 0
0

0101000
+499 0 -506 0 *
Ed
 1e-07 1 1 0
1  37 0 31.25 42.5
2  48 25 0 31.25 42.5
4 G1 25 0 26 0
0

0101000
+501 0 -499 0 *
Wi

0101100
-500 0 +504 0 -498 0 -497 0 *
Fa
0  1e-07 25 0

0111000
+496 0 *
Ve
1e-07
-9 6 -8.75000000000001
0 0

0101101
*
Ve
1e-07
-9 6 2.5
0 0

0101101
*
Ed
 1e-07 1 1 0
1  38 0 33.75 45
4 C0 26 0 27 0
0

0101000
+494 0 -493 0 *
Ed
 1e-07 1 1 0
1  39 0 21.2341189775596 21.7341189775596
4 C0 26 0 12 0
0

0101000
+501 0 -494 0 *
Ed
 1e-07 1 1 0
1  40 0 4.5 5
4 C0 26 0 16 0
0

0101000
+493 0 -499 0 *
Wi

0101100
-492 0 -491 0 +497 0 -490 0 *
Fa
0  1e-07 26 0

0111000
+489 0 *
Ve
1e-07
-8.8371704024445 10.6628295975555 2.5
0 0

0101101
*
Ve
1e-07
-8.8371704024445 10.6628295975555 -8.75
0 0

0101101
*
Ed
 1e-07 1 1 0
1  41 0 -42.5 -31.25
4 C0 28 0 27 0
0

0101000
+487 0 -486 0 *
Ve
1e-07
-6.5 13 2.5
0 0

0101101
*
Ed
 1e-07 1 1 0
1  42 0 0 3.305258080714
4 C0 28 0 16 0
0

0101000
+484 0 -487 0 *
Ve
1e-07
-6.5 13 -8.75
0 0

0101101
*
Ed
 1e-07 1 1 0
1  43 0 31.25 42.5
4 C0 28 0 29 0
0

0101000
+482 0 -484 0 *
Ed
 1e-07 1 1 0
1  44 0 -3.305258080714 0
4 C0 28 0 12 0
0

0101000
+486 0 -482 0 *
Wi

0101100
-485 0 -483 0 -481 0 -480 0 *
Fa
0  1e-07 28 0

0111000
+479 0 *
Ve
1e-07
-1.5 13 -8.75
0 0

0101101
*
Ed
 1e-07 1 1 0
1  45 0 2.5 7.5
4 C0 29 0 12 0
0

0101000
+482 0 -477 0 *
Ve
1e-07
-1.5 13 2.5
0 0

0101101
*
Ed
 1e-07 1 1 0
1  46 0 0 5
4 C0 29 0 16 0
0

0101000
+475 0 -484 0 *
Ed
 1e-07 1 1 0
1  47 0 31.25 42.5
4 C0 29 0 30 0
0

0101000
+477 0 -475 0 *
Wi

0101100
-476 0 +481 0 -474 0 -473 0 *
Fa
0  1e-07 29 0

0111000
+472 0 *
Ve
1e-07
0.837170402444495 10.6628295975555 -8.75
0 0

0101101
*
Ve
1e-07
0.837170402444499 10.6628295975555 2.5
0 0

0101101
*
Ed
 1e-07 1 1 0
1  48 0 31.25 42.5
4 C0 30 0 31 0
0

0101000
+470 0 -469 0 *
Ed
 1e-07 1 1 0
1  49 0 -3.53553390593274 -0.230275825218745
4 C0 30 0 12 0
0

0101000
+477 0 -470 0 *
Ed
 1e-07 1 1 0
1  50 0 0.230275825218742 3.53553390593274
4 C0 30 0 16 0
0

0101000
+469 0 -475 0 *
Wi

0101100
-468 0 -467 0 +473 0 -466 0 *
Fa
0  1e-07 30 0

0111000
+465 0 *
Ve
1e-07
2 5 2.5
0 0

0101101
*
Ve
1e-07
1 6 2.5
0 0

0101101
*
Ed
 1e-07 1 1 0
1  51 0 1.5707963267949 3.14159265358979
2  49 32 0 1.5707963267949 3.14159265358979
4 C0 32 0 16 0
0

0101000
+463 0 -462 0 *
Ve
1e-07
1 6 -8.75
0 0

0101101
*
Ed
 1e-07 1 1 0
1  52 0 -42.5 -31.25
2  50 32 0 -42.5 -31.25
4 C0 32 0 31 0
0

0101000
+462 0 -460 0 *
Ve
1e-07
2 5 -8.75
0 0

0101101
*
Ed
 1e-07 1 1 0
1  53 0 1.5707963267949 3.14159265358979
2  51 32 0 1.5707963267949 3.14159265358979
4 C0 32 0 12 0
0

0101000
+458 0 -460 0 *
Ed
 1e-07 1 1 0
1  54 0 -42.5 -31.25
2  52 32 0 -42.5 -31.25
4 C1 32 0 19 0
0

0101000
+463 0 -458 0 *
Wi

0101100
+461 0 +459 0 -457 0 -456 0 *
Fa
0  1e-07 32 0

0111000
+455 0 *
Ve
1e-07
0 0 -31.25
0 0

0101101
*
Ve
1e-07
-0.5 0.5 -31.25
0 0

0101101
*
Ed
 1e-07 1 1 0
1  55 0 0 0.707106781186547
4 C0 33 0 14 0
0

0101000
+453 0 -452 0 *
Ve
1e-07
0 0 -20
0 0

0101101
*
Ed
 1e-07 1 1 0
1  56 0 8.75 20
4 C0 33 0 20 0
0

0101000
+453 0 -450 0 *
Ve
1e-07
-0.5 0.5 -20
0 0

0101101
*
Ed
 1e-07 1 1 0
1  57 0 -0.707106781186547 0
4 C0 33 0 10 0
0

0101000
+448 0 -450 0 *
Ed
 1e-07 1 1 0
1  58 0 8.75 20
4 C0 33 0 34 0
0

0101000
+452 0 -448 0 *
Wi

0101100
-451 0 +449 0 -447 0 -446 0 *
Fa
0  1e-07 33 0

0111000
+445 0 *
Ve
1e-07
-4 0.499999999999999 -31.25
0 0

0101101
*
Ed
 1e-07 1 1 0
1  59 0 -3.5 -1.23809782139179e-31
4 C0 34 0 14 0
0

0101000
+452 0 -443 0 *
Ve
1e-07
-4 0.499999999999999 -20
0 0

0101101
*
Ed
 1e-07 1 1 0
1  60 0 1.23809782139179e-31 3.5
4 C0 34 0 10 0
0

0101000
+441 0 -448 0 *
Ed
 1e-07 1 1 0
1  61 0 8.75 20
2  53 35 0 8.75 20
4 G1 34 0 35 0
0

0101000
+443 0 -441 0 *
Wi

0101100
-442 0 +446 0 -440 0 -439 0 *
Fa
0  1e-07 34 0

0111000
+438 0 *
Ve
1e-07
-9 5.5 -31.25
0 0

0101101
*
Ed
 1e-07 1 1 0
1  62 0 1.5707963267949 3.14159265358979
2  54 35 0 1.5707963267949 3.14159265358979
4 C0 35 0 14 0
0

0101000
+443 0 -436 0 *
Ve
1e-07
-9 5.5 -20
0 0

0101101
*
Ed
 1e-07 1 1 0
1  63 0 0 1.5707963267949
2  55 35 0 0 1.5707963267949
4 C0 35 0 10 0
0

0101000
+434 0 -441 0 *
Ed
 1e-07 1 1 0
1  64 0 8.75 20
2  56 35 0 8.75 20
4 G1 35 0 36 0
0

0101000
+436 0 -434 0 *
Wi

0101100
-435 0 +439 0 -433 0 -432 0 *
Fa
0  1e-07 35 0

0111000
+431 0 *
Ve
1e-07
-9 6 -31.25
0 0

0101101
*
Ve
1e-07
-9 6 -20
0 0

0101101
*
Ed
 1e-07 1 1 0
1  65 0 11.25 22.5
4 C0 36 0 37 0
0

0101000
+429 0 -428 0 *
Ed
 1e-07 1 1 0
1  66 0 21.2341189775596 21.7341189775596
4 C0 36 0 14 0
0

0101000
+436 0 -429 0 *
Ed
 1e-07 1 1 0
1  67 0 21.2341189775596 21.7341189775596
4 C0 36 0 10 0
0

0101000
+434 0 -428 0 *
Wi

0101100
-427 0 -426 0 +432 0 +425 0 *
Fa
0  1e-07 36 0

0111000
+424 0 *
Ve
1e-07
-8.8371704024445 10.6628295975555 -20
0 0

0101101
*
Ve
1e-07
-8.8371704024445 10.6628295975555 -31.25
0 0

0101101
*
Ed
 1e-07 1 1 0
1  68 0 -20 -8.75
4 C0 38 0 37 0
0

0101000
+422 0 -421 0 *
Ve
1e-07
-6.5 13 -20
0 0

0101101
*
Ed
 1e-07 1 1 0
1  69 0 0 3.305258080714
4 C0 38 0 10 0
0

0101000
+419 0 -422 0 *
Ve
1e-07
-6.5 13 -31.25
0 0

0101101
*
Ed
 1e-07 1 1 0
1  70 0 8.75 20
4 C0 38 0 39 0
0

0101000
+417 0 -419 0 *
Ed
 1e-07 1 1 0
1  71 0 -3.305258080714 0
4 C0 38 0 14 0
0

0101000
+421 0 -417 0 *
Wi

0101100
-420 0 -418 0 -416 0 -415 0 *
Fa
0  1e-07 38 0

0111000
+414 0 *
Ve
1e-07
-1.5 13 -31.25
0 0

0101101
*
Ed
 1e-07 1 1 0
1  72 0 2.5 7.5
4 C0 39 0 14 0
0

0101000
+417 0 -412 0 *
Ve
1e-07
-1.5 13 -20
0 0

0101101
*
Ed
 1e-07 1 1 0
1  73 0 -7.5 -2.5
4 C0 39 0 10 0
0

0101000
+410 0 -419 0 *
Ed
 1e-07 1 1 0
1  74 0 8.75 20
4 C0 39 0 40 0
0

0101000
+412 0 -410 0 *
Wi

0101100
-411 0 +416 0 -409 0 -408 0 *
Fa
0  1e-07 39 0

0111000
+407 0 *
Ve
1e-07
0.837170402444495 10.6628295975555 -31.25
0 0

0101101
*
Ve
1e-07
0.837170402444499 10.6628295975555 -20
0 0

0101101
*
Ed
 1e-07 1 1 0
1  75 0 8.75 20
4 C0 40 0 41 0
0

0101000
+405 0 -404 0 *
Ed
 1e-07 1 1 0
1  76 0 -3.53553390593274 -0.230275825218745
4 C0 40 0 14 0
0

0101000
+412 0 -405 0 *
Ed
 1e-07 1 1 0
1  77 0 0.230275825218742 3.53553390593274
4 C0 40 0 10 0
0

0101000
+404 0 -410 0 *
Wi

0101100
-403 0 -402 0 +408 0 -401 0 *
Fa
0  1e-07 40 0

0111000
+400 0 *
Ve
1e-07
14.75 5 -42.5
0 0

0101101
*
Ve
1e-07
2 5 -42.5
0 0

0101101
*
Ed
 1e-07 1 1 0
1  78 0 -12.75 -9.99200722162641e-15
4 C0 19 0 42 0
0

0101000
+398 0 -397 0 *
Ve
1e-07
2 5 -31.25
0 0

0101101
*
Ed
 1e-07 1 1 0
1  79 0 -8.75 2.5
4 C0 19 0 43 0
0

0101000
+395 0 -397 0 *
Ve
1e-07
2 5 -20
0 0

0101101
*
Ed
 1e-07 1 1 0
1  80 0 -20 -8.75
2  57 44 0 -20 -8.75
4 C1 19 0 44 0
0

0101000
+393 0 -395 0 *
Ed
 1e-07 1 1 0
1  81 0 -31.25 -20
4 C0 19 0 45 0
0

0101000
+458 0 -393 0 *
Ve
1e-07
14.75 5 2.5
0 0

0101101
*
Ed
 1e-07 1 1 0
1  82 0 -12.75 0
4 C0 19 0 16 0
0

0101000
+390 0 -463 0 *
Ed
 1e-07 1 1 0
1  83 0 -2.5 42.5
4 C0 19 0 46 0
0

0101000
+398 0 -390 0 *
Wi

0101100
+396 0 -394 0 -392 0 -391 0 -456 0 -389 0 -388 0 *
Ed
 1e-07 1 1 0
1  84 0 3.14159265358979 6.28318530717959
2  58 18 0 3.14159265358979 6.28318530717959
4 C0 19 0 18 0
0

0101000
+535 0 -537 0 *
Wi

0101100
+534 0 +386 0 *
Ed
 1e-07 1 1 0
1  85 0 0 3.14159265358979
2  59 22 0 0 3.14159265358979
4 C0 19 0 22 0
0

0101000
+527 0 -525 0 *
Wi

0101100
-384 0 -524 0 *
Fa
0  1e-07 19 0

0111000
+387 0 +385 0 +383 0 *
Ve
1e-07
16 3.75 2.5
0 0

0101101
*
Ed
 1e-07 1 1 0
1  86 0 -1.76776695296637 0
4 C0 46 0 16 0
0

0101000
+381 0 -390 0 *
Ve
1e-07
16 3.75 -42.5
0 0

0101101
*
Ed
 1e-07 1 1 0
1  87 0 -2.5 42.5
4 C0 46 0 47 0
0

0101000
+379 0 -381 0 *
Ed
 1e-07 1 1 0
1  88 0 -1.76776695296637 0
4 C0 46 0 42 0
0

0101000
+379 0 -398 0 *
Wi

0101100
+388 0 -380 0 -378 0 +377 0 *
Fa
0  1e-07 46 0

0111000
+376 0 *
Ve
1e-07
16 0 2.5
0 0

0101101
*
Ed
 1e-07 1 1 0
1  89 0 -3.75 0
4 C0 47 0 16 0
0

0101000
+374 0 -381 0 *
Ve
1e-07
16 -2.57937046123291e-30 -42.5
0 0

0101101
*
Ed
 1e-07 1 1 0
1  90 0 -2.5 42.5
4 C0 47 0 20 0
0

0101000
+372 0 -374 0 *
Ed
 1e-07 1 1 0
1  91 0 -3.75 0
4 C0 47 0 42 0
0

0101000
+372 0 -379 0 *
Wi

0101100
+378 0 -373 0 -371 0 +370 0 *
Fa
0  1e-07 47 0

0111000
+369 0 *
Ve
1e-07
2 0 -31.25
0 0

0101101
*
Ed
 1e-07 1 1 0
1  92 0 8.99999999999999 11
4 C0 20 0 14 0
0

0101000
+453 0 -367 0 *
Ve
1e-07
2 0 -42.5
0 0

0101101
*
Ed
 1e-07 1 1 0
1  93 0 0 11.25
4 C0 20 0 43 0
0

0101000
+367 0 -365 0 *
Ed
 1e-07 1 1 0
1  94 0 9.99200722162641e-15 14
4 C0 20 0 42 0
0

0101000
+365 0 -372 0 *
Ed
 1e-07 1 1 0
1  95 0 -2 14
4 C0 20 0 16 0
0

0101000
+515 0 -374 0 *
Ve
1e-07
2 0 -8.75
0 0

0101101
*
Ed
 1e-07 1 1 0
1  96 0 8.99999999999999 11
4 C0 20 0 12 0
0

0101000
+518 0 -361 0 *
Ve
1e-07
2 0 -20
0 0

0101101
*
Ed
 1e-07 1 1 0
1  97 0 0 11.25
4 C0 20 0 45 0
0

0101000
+361 0 -359 0 *
Ed
 1e-07 1 1 0
1  98 0 -11 -8.99999999999999
4 C0 20 0 10 0
0

0101000
+359 0 -450 0 *
Wi

0101100
+366 0 +364 0 +363 0 +371 0 -362 0 -514 0 +360 0 +358 0 +357 0 -449 0 
*
Ed
 1e-07 1 1 0
1  99 0 3.14159265358979 6.28318530717959
2  60 18 0 3.14159265358979 6.28318530717959
4 C0 20 0 18 0
0

0101000
+533 0 -538 0 *
Wi

0101100
-531 0 -355 0 *
Ed
 1e-07 1 1 0
1  100 0 0 3.14159265358979
2  61 22 0 0 3.14159265358979
4 C0 20 0 22 0
0

0101000
+528 0 -523 0 *
Wi

0101100
+353 0 +521 0 *
Fa
0  1e-07 20 0

0111000
+356 0 +354 0 +352 0 *
Wi

0101100
-384 0 -526 0 +353 0 +522 0 *
Fa
0  1e-07 22 0

0111000
+350 0 *
Wi

0101100
+386 0 -536 0 -355 0 +532 0 *
Fa
0  1e-07 18 0

0111000
+348 0 *
Ed
 1e-07 1 1 0
1  101 0 0 4.66567179875307
4 C0 16 0 27 0
0

0101000
+493 0 -487 0 *
Ed
 1e-07 1 1 0
1  102 0 -4.66567179875307 0
4 C0 16 0 31 0
0

0101000
+469 0 -462 0 *
Wi

0101100
-346 0 +490 0 +498 0 +505 0 +512 0 +362 0 +373 0 +380 0 +389 0 +461 0 
-345 0 +466 0 +474 0 +483 0 *
Ed
 1e-07 1 1 0
1  103 0 0 3.14159265358979
2  62 8 0 0 3.14159265358979
4 C0 16 0 8 0
0

0101000
+546 0 -544 0 *
Wi

0101100
-343 0 -543 0 *
Fa
0  1e-07 16 0

0111000
+344 0 +342 0 *
Ed
 1e-07 1 1 0
1  104 0 15.7341189775596 20.7341189775596
4 C0 42 0 43 0
0

0101000
+365 0 -397 0 *
Wi

0101100
+340 0 -396 0 -377 0 -370 0 -363 0 *
Fa
0  1e-07 42 0

0111000
+339 0 *
Ve
1e-07
1 6 -20
0 0

0101101
*
Ed
 1e-07 1 1 0
1  105 0 0 1.5707963267949
2  63 44 0 0 1.5707963267949
4 C0 44 0 10 0
0

0101000
+337 0 -393 0 *
Ve
1e-07
1 6 -31.25
0 0

0101101
*
Ed
 1e-07 1 1 0
1  106 0 -20 -8.75
2  64 44 0 -20 -8.75
4 C0 44 0 41 0
0

0101000
+337 0 -335 0 *
Ed
 1e-07 1 1 0
1  107 0 1.5707963267949 3.14159265358979
2  65 44 0 1.5707963267949 3.14159265358979
4 C0 44 0 14 0
0

0101000
+395 0 -335 0 *
Wi

0101100
-336 0 +334 0 -333 0 -392 0 *
Fa
0  1e-07 44 0

0111000
+332 0 *
Ed
 1e-07 1 1 0
1  108 0 15.7341189775596 20.7341189775596
4 C0 45 0 10 0
0

0101000
+359 0 -393 0 *
Ed
 1e-07 1 1 0
1  109 0 15.7341189775596 20.7341189775596
4 C0 45 0 12 0
0

0101000
+361 0 -458 0 *
Wi

0101100
-330 0 -358 0 +329 0 +391 0 *
Fa
0  1e-07 45 0

0111000
-328 0 *
Ed
 1e-07 1 1 0
1  110 0 21.7208791395147 26.3865509382677
4 C0 12 0 27 0
0

0101000
+494 0 -486 0 *
Ed
 1e-07 1 1 0
1  111 0 -26.0375559712428 -21.3718841724897
4 C0 12 0 31 0
0

0101000
+470 0 -460 0 *
Wi

0101100
+491 0 +326 0 +480 0 +476 0 +467 0 +325 0 -457 0 -329 0 -360 0 +516 0 
+507 0 +500 0 *
Ed
 1e-07 1 1 0
1  112 0 0 3.14159265358979
2  66 11 0 0 3.14159265358979
4 C0 12 0 11 0
0

0101000
+558 0 -560 0 *
Wi

0101100
-323 0 -557 0 *
Fa
0  1e-07 12 0

0111000
-324 0 -322 0 *
Ed
 1e-07 1 1 0
1  113 0 -26.3865509382677 -21.7208791395147
4 C0 10 0 37 0
0

0101000
+422 0 -428 0 *
Ed
 1e-07 1 1 0
1  114 0 21.3718841724897 26.0375559712428
4 C0 10 0 41 0
0

0101000
+337 0 -404 0 *
Wi

0101100
+418 0 +320 0 -425 0 +433 0 +440 0 +447 0 -357 0 +330 0 -336 0 +319 0 
+401 0 +409 0 *
Ed
 1e-07 1 1 0
1  115 0 0 3.14159265358979
2  67 11 0 0 3.14159265358979
4 C0 10 0 11 0
0

0101000
+562 0 -563 0 *
Wi

0101100
-561 0 -317 0 *
Fa
0  1e-07 10 0

0111000
-318 0 -316 0 *
Ed
 1e-07 1 1 0
1  116 0 15.7341189775596 20.7341189775596
4 C0 43 0 14 0
0

0101000
+367 0 -395 0 *
Wi

0101100
-340 0 -364 0 +314 0 +394 0 *
Fa
0  1e-07 43 0

0111000
-313 0 *
Ed
 1e-07 1 1 0
1  117 0 21.7208791395147 26.3865509382677
4 C0 14 0 37 0
0

0101000
+429 0 -421 0 *
Ed
 1e-07 1 1 0
1  118 0 -26.0375559712428 -21.3718841724897
4 C0 14 0 41 0
0

0101000
+405 0 -335 0 *
Wi

0101100
+426 0 +311 0 +415 0 +411 0 +402 0 +310 0 -333 0 -314 0 -366 0 +451 0 
+442 0 +435 0 *
Ed
 1e-07 1 1 0
1  119 0 0 3.14159265358979
2  68 13 0 0 3.14159265358979
4 C0 14 0 13 0
0

0101000
+551 0 -553 0 *
Wi

0101100
-308 0 -550 0 *
Fa
0  1e-07 14 0

0111000
-309 0 -307 0 *
Wi

0101100
-343 0 -545 0 -567 0 +542 0 *
Fa
0  1e-07 8 0

0111000
+305 0 *
Wi

0101100
+334 0 -310 0 +403 0 -319 0 *
Fa
0  1e-07 41 0

0111000
-303 0 *
Wi

0101100
+468 0 +345 0 +459 0 -325 0 *
Fa
0  1e-07 31 0

0111000
-301 0 *
Wi

0101100
+420 0 -311 0 +427 0 -320 0 *
Fa
0  1e-07 37 0

0111000
-299 0 *
Wi

0101100
+485 0 -326 0 +492 0 +346 0 *
Fa
0  1e-07 27 0

0111000
-297 0 *
Ed
 1e-07 1 1 0
1  120 0 3.14159265358979 6.28318530717959
2  69 7 0 3.14159265358979 6.28318530717959
4 C0 6 0 7 0
0

0101000
+572 0 -573 0 *
Wi

0101100
+295 0 +571 0 *
Fa
0  1e-07 6 0

0111000
+294 0 *
Ed
 1e-07 1 1 0
1  121 0 3.14159265358979 6.28318530717959
2  70 3 0 3.14159265358979 6.28318530717959
4 C0 2 0 3 0
0

0101000
+582 0 -583 0 *
Wi

0101100
+292 0 +581 0 *
Fa
0  1e-07 2 0

0111000
+291 0 *
Ed
 1e-07 1 1 0
1  122 0 0 3.14159265358979
2  71 13 0 0 3.14159265358979
2  72 3 0 0 3.14159265358979
4 C0 13 0 3 0
0

0101000
+580 0 -578 0 *
Wi

0101100
-552 0 +289 0 +549 0 +308 0 *
Fa
0  1e-07 13 0

0111000
+288 0 *
Wi

0101100
-559 0 +317 0 +556 0 +323 0 *
Fa
0  1e-07 11 0

0111000
+286 0 *
Wi

0101100
-569 0 -295 0 +566 0 -541 0 *
Fa
0  1e-07 7 0

0111000
+284 0 *
Wi

0101100
-579 0 -292 0 +576 0 -289 0 *
Fa
0  1e-07 3 0

0111000
+282 0 *
Sh

0101100
+574 0 +564 0 +554 0 +547 0 -539 0 -529 0 -519 0 +509 0 +502 0 +495 0 
+488 0 +478 0 +471 0 +464 0 -454 0 +444 0 +437 0 +430 0 +423 0 +413 0 
+406 0 +399 0 +382 0 +375 0 +368 0 +351 0 -349 0 -347 0 +341 0 +338 0 
-331 0 -327 0 -321 0 -315 0 -312 0 -306 0 -304 0 -302 0 -300 0 -298 0 
-296 0 +293 0 +290 0 +287 0 +285 0 +283 0 +281 0 *
So

0100000
+280 0 *
Ve
1e-07
-6.025 9.5 -42.0236860279186
0 0

0101101
*
Ve
1e-07
-6.3 9.5 -42.5
0 0

0101101
*
Ed
 1e-07 1 1 0
1  123 0 -0.549999999999964 0
2  73 48 0 -0.549999999999964 0
2  74 49 0 -0.549999999999964 0
4 CN 48 0 49 0
0

0101000
+278 0 -277 0 *
Ve
1e-07
-1.7 9.5 -42.5
0 0

0101101
*
Ed
 1e-07 1 1 0
1  124 0 3.14159265358979 6.28318530717959
2  75 48 0 3.14159265358979 6.28318530717959
4 C0 48 0 50 0
0

0101000
+275 0 -277 0 *
Ve
1e-07
-1.975 9.5 -42.0236860279186
0 0

0101101
*
Ed
 1e-07 1 1 0
1  125 0 -0.549999999999964 0
2  76 48 0 -0.549999999999964 0
2  77 49 0 -0.549999999999964 0
4 CN 48 0 49 0
0

0101000
+273 0 -275 0 *
Ed
 1e-07 1 1 0
1  126 0 3.14159265358979 6.28318530717959
2  78 48 0 3.14159265358979 6.28318530717959
2  79 51 0 3.14159265358979 6.28318530717959
4 C0 48 0 51 0
0

0101000
+273 0 -278 0 *
Wi

0101100
+276 0 -274 0 -272 0 +271 0 *
Fa
0  1e-07 48 0

0111000
+270 0 *
Ve
1e-07
-6.025 9.5 -8.74999999999999
0 0

0101101
*
Ve
1e-07
-6.025 9.5 -20
0 0

0101101
*
Ed
 1e-07 1 1 0
1  127 0 8.75 20
2  80 52 0 8.75 20
2  81 53 0 8.75 20
4 CN 52 0 53 0
0

0101000
+268 0 -267 0 *
Ve
1e-07
-1.975 9.5 -20
0 0

0101101
*
Ed
 1e-07 1 1 0
1  128 0 0 3.14159265358979
2  82 52 0 0 3.14159265358979
4 C0 52 0 54 0
0

0101000
+265 0 -267 0 *
Ve
1e-07
-1.975 9.5 -8.74999999999999
0 0

0101101
*
Ed
 1e-07 1 1 0
1  129 0 8.75 20
2  83 52 0 8.75 20
2  84 53 0 8.75 20
4 CN 52 0 53 0
0

0101000
+263 0 -265 0 *
Ed
 1e-07 1 1 0
1  130 0 0 3.14159265358979
2  85 52 0 0 3.14159265358979
4 C0 52 0 55 0
0

0101000
+268 0 -263 0 *
Wi

0101100
+266 0 -264 0 -262 0 -261 0 *
Fa
0  1e-07 52 0

0111000
+260 0 *
Ve
1e-07
-16.5 -5.13174572280839e-15 -4.84999999999999
0 0

0101101
*
Ve
1e-07
-16.5 5 -4.84999999999999
0 0

0101101
*
Ed
 1e-07 1 1 0
1  131 0 -5.00000000000001 0
2  86 56 0 -5.00000000000001 0
2  87 57 0 -5.00000000000001 0
4 CN 56 0 57 0
0

0101000
+258 0 -257 0 *
Ve
1e-07
-16.5 5.00000000000001 -10.15
0 0

0101101
*
Ed
 1e-07 1 1 0
1  132 0 0 3.14159265358979
2  88 56 0 0 3.14159265358979
4 C0 56 0 58 0
0

0101000
+257 0 -255 0 *
Ve
1e-07
-16.5 -4.21234228054068e-15 -10.15
0 0

0101101
*
Ed
 1e-07 1 1 0
1  133 0 -5 9.76996261670138e-15
2  89 56 0 -5 9.76996261670138e-15
2  90 57 0 -5 9.76996261670138e-15
4 CN 56 0 57 0
0

0101000
+253 0 -255 0 *
Ed
 1e-07 1 1 0
1  134 0 0 3.14159265358979
2  91 56 0 0 3.14159265358979
4 C0 56 0 59 0
0

0101000
+258 0 -253 0 *
Wi

0101100
+256 0 +254 0 -252 0 -251 0 *
Fa
0  1e-07 56 0

0111000
+250 0 *
Ve
1e-07
-16.5 -5.13174572280839e-15 -35.15
0 0

0101101
*
Ve
1e-07
-16.5 5 -35.15
0 0

0101101
*
Ed
 1e-07 1 1 0
1  135 0 -5.00000000000001 0
2  92 60 0 -5.00000000000001 0
2  93 61 0 -5.00000000000001 0
4 CN 60 0 61 0
0

0101000
+248 0 -247 0 *
Ve
1e-07
-16.5 5.00000000000001 -29.85
0 0

0101101
*
Ed
 1e-07 1 1 0
1  136 0 3.14159265358979 6.28318530717959
2  94 60 0 3.14159265358979 6.28318530717959
4 C0 60 0 58 0
0

0101000
+245 0 -247 0 *
Ve
1e-07
-16.5 -4.21234228054068e-15 -29.85
0 0

0101101
*
Ed
 1e-07 1 1 0
1  137 0 -5 9.76996261670138e-15
2  95 60 0 -5 9.76996261670138e-15
2  96 61 0 -5 9.76996261670138e-15
4 CN 60 0 61 0
0

0101000
+243 0 -245 0 *
Ed
 1e-07 1 1 0
1  138 0 3.14159265358979 6.28318530717959
2  97 60 0 3.14159265358979 6.28318530717959
4 C0 60 0 59 0
0

0101000
+243 0 -248 0 *
Wi

0101100
+246 0 -244 0 -242 0 +241 0 *
Fa
0  1e-07 60 0

0111000
+240 0 *
Ve
1e-07
-6.025 9.5 -31.25
0 0

0101101
*
Ed
 1e-07 1 1 0
1  139 0 31.25 42.0236860279186
2  98 51 0 31.25 42.0236860279186
2  99 62 0 31.25 42.0236860279186
4 CN 51 0 62 0
0

0101000
+238 0 -278 0 *
Ve
1e-07
-1.975 9.5 -31.25
0 0

0101101
*
Ed
 1e-07 1 1 0
1  140 0 31.25 42.0236860279186
2  100 51 0 31.25 42.0236860279186
2  101 62 0 31.25 42.0236860279186
4 CN 51 0 62 0
0

0101000
+236 0 -273 0 *
Ed
 1e-07 1 1 0
1  141 0 0 3.14159265358979
2  102 51 0 0 3.14159265358979
4 C0 51 0 63 0
0

0101000
+238 0 -236 0 *
Wi

0101100
+237 0 -271 0 -235 0 -234 0 *
Fa
0  1e-07 51 0

0111000
+233 0 *
Ve
1e-07
-8 3.79470760369927e-16 -31.25
0 0

0101101
*
Ve
1e-07
-7.5 0.5 -31.25
0 0

0101101
*
Ed
 1e-07 1 1 0
1  142 0 0 0.707106781186547
4 C0 64 0 63 0
0

0101000
+231 0 -230 0 *
Ve
1e-07
-8 -3.55256911851084e-15 -42.5
0 0

0101101
*
Ed
 1e-07 1 1 0
1  143 0 31.25 42.5
4 C0 64 0 59 0
0

0101000
+231 0 -228 0 *
Ve
1e-07
-7.5 0.5 -42.5
0 0

0101101
*
Ed
 1e-07 1 1 0
1  144 0 0 0.70710678118655
4 C0 64 0 50 0
0

0101000
+226 0 -228 0 *
Ed
 1e-07 1 1 0
1  145 0 31.25 42.5
4 C0 64 0 65 0
0

0101000
+230 0 -226 0 *
Wi

0101100
-229 0 +227 0 -225 0 -224 0 *
Fa
0  1e-07 64 0

0111000
+223 0 *
Ve
1e-07
-4 0.499999999999998 -31.25
0 0

0101101
*
Ed
 1e-07 1 1 0
1  146 0 -3.5 1.9611469490846e-31
4 C0 65 0 63 0
0

0101000
+230 0 -221 0 *
Ve
1e-07
-4 0.499999999999998 -42.5
0 0

0101101
*
Ed
 1e-07 1 1 0
1  147 0 0 3.5
4 C0 65 0 50 0
0

0101000
+219 0 -226 0 *
Ed
 1e-07 1 1 0
1  148 0 31.25 42.5
2  103 66 0 31.25 42.5
4 G1 65 0 66 0
0

0101000
+221 0 -219 0 *
Wi

0101100
-220 0 +224 0 -218 0 -217 0 *
Fa
0  1e-07 65 0

0111000
+216 0 *
Ve
1e-07
0.999999999999998 5.5 -31.25
0 0

0101101
*
Ed
 1e-07 1 1 0
1  149 0 1.5707963267949 3.14159265358979
2  104 66 0 1.5707963267949 3.14159265358979
4 C0 66 0 63 0
0

0101000
+221 0 -214 0 *
Ve
1e-07
1 5.5 -42.5
0 0

0101101
*
Ed
 1e-07 1 1 0
1  150 0 3.14159265358979 4.71238898038469
2  105 66 0 3.14159265358979 4.71238898038469
4 C0 66 0 50 0
0

0101000
+212 0 -219 0 *
Ed
 1e-07 1 1 0
1  151 0 31.25 42.5
2  106 66 0 31.25 42.5
4 G1 66 0 67 0
0

0101000
+214 0 -212 0 *
Wi

0101100
-213 0 +217 0 -211 0 -210 0 *
Fa
0  1e-07 66 0

0111000
+209 0 *
Ve
1e-07
1 5.99999999999999 -31.25
0 0

0101101
*
Ve
1e-07
1 5.99999999999999 -42.5
0 0

0101101
*
Ed
 1e-07 1 1 0
1  152 0 33.75 45
4 C0 67 0 68 0
0

0101000
+207 0 -206 0 *
Ed
 1e-07 1 1 0
1  153 0 21.2341189775596 21.7341189775596
4 C0 67 0 63 0
0

0101000
+214 0 -207 0 *
Ed
 1e-07 1 1 0
1  154 0 4.50000000000001 5
4 C0 67 0 50 0
0

0101000
+206 0 -212 0 *
Wi

0101100
-205 0 -204 0 +210 0 -203 0 *
Fa
0  1e-07 67 0

0111000
+202 0 *
Ve
1e-07
0.837170402444498 10.6628295975555 -42.5
0 0

0101101
*
Ve
1e-07
0.837170402444496 10.6628295975555 -31.25
0 0

0101101
*
Ed
 1e-07 1 1 0
1  155 0 -42.5 -31.25
4 C0 69 0 68 0
0

0101000
+200 0 -199 0 *
Ve
1e-07
-1.5 13 -42.5
0 0

0101101
*
Ed
 1e-07 1 1 0
1  156 0 0 3.30525808071399
4 C0 69 0 50 0
0

0101000
+197 0 -200 0 *
Ve
1e-07
-1.5 13 -31.25
0 0

0101101
*
Ed
 1e-07 1 1 0
1  157 0 31.25 42.5
4 C0 69 0 70 0
0

0101000
+195 0 -197 0 *
Ed
 1e-07 1 1 0
1  158 0 -3.30525808071399 0
4 C0 69 0 63 0
0

0101000
+199 0 -195 0 *
Wi

0101100
-198 0 -196 0 -194 0 -193 0 *
Fa
0  1e-07 69 0

0111000
+192 0 *
Ve
1e-07
-6.5 13 -31.25
0 0

0101101
*
Ed
 1e-07 1 1 0
1  159 0 2.5 7.5
4 C0 70 0 63 0
0

0101000
+195 0 -190 0 *
Ve
1e-07
-6.5 13 -42.5
0 0

0101101
*
Ed
 1e-07 1 1 0
1  160 0 0 5
4 C0 70 0 50 0
0

0101000
+188 0 -197 0 *
Ed
 1e-07 1 1 0
1  161 0 31.25 42.5
4 C0 70 0 71 0
0

0101000
+190 0 -188 0 *
Wi

0101100
-189 0 +194 0 -187 0 -186 0 *
Fa
0  1e-07 70 0

0111000
+185 0 *
Ve
1e-07
-8.8371704024445 10.6628295975555 -31.25
0 0

0101101
*
Ve
1e-07
-8.8371704024445 10.6628295975555 -42.5
0 0

0101101
*
Ed
 1e-07 1 1 0
1  162 0 31.25 42.5
4 C0 71 0 72 0
0

0101000
+183 0 -182 0 *
Ed
 1e-07 1 1 0
1  163 0 -3.53553390593274 -0.230275825218742
4 C0 71 0 63 0
0

0101000
+190 0 -183 0 *
Ed
 1e-07 1 1 0
1  164 0 0.230275825218742 3.53553390593274
4 C0 71 0 50 0
0

0101000
+182 0 -188 0 *
Wi

0101100
-181 0 -180 0 +186 0 -179 0 *
Fa
0  1e-07 71 0

0111000
+178 0 *
Ve
1e-07
-10 5 -42.5
0 0

0101101
*
Ve
1e-07
-9 6 -42.5
0 0

0101101
*
Ed
 1e-07 1 1 0
1  165 0 1.5707963267949 3.14159265358979
2  107 73 0 1.5707963267949 3.14159265358979
4 C0 73 0 50 0
0

0101000
+176 0 -175 0 *
Ve
1e-07
-9 6 -31.25
0 0

0101101
*
Ed
 1e-07 1 1 0
1  166 0 -42.5 -31.25
2  108 73 0 -42.5 -31.25
4 C0 73 0 72 0
0

0101000
+175 0 -173 0 *
Ve
1e-07
-10 5 -31.25
0 0

0101101
*
Ed
 1e-07 1 1 0
1  167 0 1.5707963267949 3.14159265358979
2  109 73 0 1.5707963267949 3.14159265358979
4 C0 73 0 63 0
0

0101000
+171 0 -173 0 *
Ed
 1e-07 1 1 0
1  168 0 -42.5 -31.25
2  110 73 0 -42.5 -31.25
4 C1 73 0 58 0
0

0101000
+176 0 -171 0 *
Wi

0101100
+174 0 +172 0 -170 0 -169 0 *
Fa
0  1e-07 73 0

0111000
+168 0 *
Ed
 1e-07 1 1 0
1  169 0 0 3.14159265358979
2  111 62 0 0 3.14159265358979
2  112 49 0 0 3.14159265358979
4 C0 62 0 49 0
0

0101000
+278 0 -273 0 *
Ed
 1e-07 1 1 0
1  170 0 3.14159265358979 6.28318530717959
2  113 62 0 3.14159265358979 6.28318530717959
4 C0 62 0 63 0
0

0101000
+236 0 -238 0 *
Wi

0101100
-166 0 -237 0 -165 0 +235 0 *
Fa
0  1e-07 62 0

0111000
+164 0 *
Ve
1e-07
-8 3.79470760369927e-16 -8.74999999999999
0 0

0101101
*
Ve
1e-07
-7.5 0.5 -8.74999999999999
0 0

0101101
*
Ed
 1e-07 1 1 0
1  171 0 0 0.707106781186547
4 C0 74 0 55 0
0

0101000
+162 0 -161 0 *
Ve
1e-07
-8 3.79470760369927e-16 -20
0 0

0101101
*
Ed
 1e-07 1 1 0
1  172 0 8.75 20
4 C0 74 0 59 0
0

0101000
+162 0 -159 0 *
Ve
1e-07
-7.5 0.5 -20
0 0

0101101
*
Ed
 1e-07 1 1 0
1  173 0 -0.707106781186547 0
4 C0 74 0 54 0
0

0101000
+157 0 -159 0 *
Ed
 1e-07 1 1 0
1  174 0 8.75 20
4 C0 74 0 75 0
0

0101000
+161 0 -157 0 *
Wi

0101100
-160 0 +158 0 -156 0 -155 0 *
Fa
0  1e-07 74 0

0111000
+154 0 *
Ve
1e-07
-4.00000000000001 0.499999999999998 -8.74999999999999
0 0

0101101
*
Ed
 1e-07 1 1 0
1  175 0 -3.5 -9.76996261670138e-15
4 C0 75 0 55 0
0

0101000
+161 0 -152 0 *
Ve
1e-07
-4 0.499999999999998 -20
0 0

0101101
*
Ed
 1e-07 1 1 0
1  176 0 -1.9611469490846e-31 3.5
4 C0 75 0 54 0
0

0101000
+150 0 -157 0 *
Ed
 1e-07 1 1 0
1  177 0 8.75 20
2  114 76 0 8.75 20
4 G1 75 0 76 0
0

0101000
+152 0 -150 0 *
Wi

0101100
-151 0 +155 0 -149 0 -148 0 *
Fa
0  1e-07 75 0

0111000
+147 0 *
Ve
1e-07
0.999999999999998 5.5 -8.74999999999999
0 0

0101101
*
Ed
 1e-07 1 1 0
1  178 0 1.5707963267949 3.14159265358979
2  115 76 0 1.5707963267949 3.14159265358979
4 C0 76 0 55 0
0

0101000
+152 0 -145 0 *
Ve
1e-07
0.999999999999998 5.5 -20
0 0

0101101
*
Ed
 1e-07 1 1 0
1  179 0 0 1.5707963267949
2  116 76 0 0 1.5707963267949
4 C0 76 0 54 0
0

0101000
+143 0 -150 0 *
Ed
 1e-07 1 1 0
1  180 0 8.75 20
2  117 76 0 8.75 20
4 G1 76 0 77 0
0

0101000
+145 0 -143 0 *
Wi

0101100
-144 0 +148 0 -142 0 -141 0 *
Fa
0  1e-07 76 0

0111000
+140 0 *
Ve
1e-07
1 5.99999999999999 -8.74999999999999
0 0

0101101
*
Ve
1e-07
1 5.99999999999999 -20
0 0

0101101
*
Ed
 1e-07 1 1 0
1  181 0 11.25 22.5
4 C0 77 0 78 0
0

0101000
+138 0 -137 0 *
Ed
 1e-07 1 1 0
1  182 0 21.2341189775596 21.7341189775596
4 C0 77 0 55 0
0

0101000
+145 0 -138 0 *
Ed
 1e-07 1 1 0
1  183 0 21.2341189775596 21.7341189775596
4 C0 77 0 54 0
0

0101000
+143 0 -137 0 *
Wi

0101100
-136 0 -135 0 +141 0 +134 0 *
Fa
0  1e-07 77 0

0111000
+133 0 *
Ve
1e-07
0.837170402444498 10.6628295975555 -20
0 0

0101101
*
Ve
1e-07
0.837170402444496 10.6628295975555 -8.74999999999999
0 0

0101101
*
Ed
 1e-07 1 1 0
1  184 0 -20 -8.75
4 C0 79 0 78 0
0

0101000
+131 0 -130 0 *
Ve
1e-07
-1.5 13 -20
0 0

0101101
*
Ed
 1e-07 1 1 0
1  185 0 0 3.30525808071399
4 C0 79 0 54 0
0

0101000
+128 0 -131 0 *
Ve
1e-07
-1.5 13 -8.74999999999999
0 0

0101101
*
Ed
 1e-07 1 1 0
1  186 0 8.75 20
4 C0 79 0 80 0
0

0101000
+126 0 -128 0 *
Ed
 1e-07 1 1 0
1  187 0 -3.30525808071399 0
4 C0 79 0 55 0
0

0101000
+130 0 -126 0 *
Wi

0101100
-129 0 -127 0 -125 0 -124 0 *
Fa
0  1e-07 79 0

0111000
+123 0 *
Ve
1e-07
-6.5 13 -8.74999999999999
0 0

0101101
*
Ed
 1e-07 1 1 0
1  188 0 2.5 7.5
4 C0 80 0 55 0
0

0101000
+126 0 -121 0 *
Ve
1e-07
-6.5 13 -20
0 0

0101101
*
Ed
 1e-07 1 1 0
1  189 0 -7.5 -2.5
4 C0 80 0 54 0
0

0101000
+119 0 -128 0 *
Ed
 1e-07 1 1 0
1  190 0 8.75 20
4 C0 80 0 81 0
0

0101000
+121 0 -119 0 *
Wi

0101100
-120 0 +125 0 -118 0 -117 0 *
Fa
0  1e-07 80 0

0111000
+116 0 *
Ve
1e-07
-8.8371704024445 10.6628295975555 -8.74999999999999
0 0

0101101
*
Ve
1e-07
-8.8371704024445 10.6628295975555 -20
0 0

0101101
*
Ed
 1e-07 1 1 0
1  191 0 8.75 20
4 C0 81 0 82 0
0

0101000
+114 0 -113 0 *
Ed
 1e-07 1 1 0
1  192 0 -3.53553390593274 -0.230275825218742
4 C0 81 0 55 0
0

0101000
+121 0 -114 0 *
Ed
 1e-07 1 1 0
1  193 0 0.230275825218742 3.53553390593274
4 C0 81 0 54 0
0

0101000
+113 0 -119 0 *
Wi

0101100
-112 0 -111 0 +117 0 -110 0 *
Fa
0  1e-07 81 0

0111000
+109 0 *
Ve
1e-07
-22.75 5 2.50000000000001
0 0

0101101
*
Ve
1e-07
-10 5 2.50000000000001
0 0

0101101
*
Ed
 1e-07 1 1 0
1  194 0 -12.75 -1.06581410364015e-14
4 C0 58 0 83 0
0

0101000
+107 0 -106 0 *
Ve
1e-07
-10 5 -8.74999999999999
0 0

0101101
*
Ed
 1e-07 1 1 0
1  195 0 -8.75 2.5
4 C0 58 0 84 0
0

0101000
+104 0 -106 0 *
Ve
1e-07
-10 5 -20
0 0

0101101
*
Ed
 1e-07 1 1 0
1  196 0 -20 -8.75
2  118 85 0 -20 -8.75
4 C1 58 0 85 0
0

0101000
+102 0 -104 0 *
Ed
 1e-07 1 1 0
1  197 0 -31.25 -20
4 C0 58 0 86 0
0

0101000
+171 0 -102 0 *
Ve
1e-07
-22.75 5 -42.5
0 0

0101101
*
Ed
 1e-07 1 1 0
1  198 0 -12.75 0
4 C0 58 0 50 0
0

0101000
+99 0 -176 0 *
Ed
 1e-07 1 1 0
1  199 0 -2.5 42.5
4 C0 58 0 87 0
0

0101000
+107 0 -99 0 *
Wi

0101100
+105 0 -103 0 -101 0 -100 0 -169 0 -98 0 -97 0 *
Ed
 1e-07 1 1 0
1  200 0 3.14159265358979 6.28318530717959
2  119 57 0 3.14159265358979 6.28318530717959
4 C0 58 0 57 0
0

0101000
+255 0 -257 0 *
Wi

0101100
+254 0 +95 0 *
Ed
 1e-07 1 1 0
1  201 0 0 3.14159265358979
2  120 61 0 0 3.14159265358979
4 C0 58 0 61 0
0

0101000
+247 0 -245 0 *
Wi

0101100
-93 0 -244 0 *
Fa
0  1e-07 58 0

0111000
+96 0 +94 0 +92 0 *
Ve
1e-07
-24 3.75 -42.5
0 0

0101101
*
Ed
 1e-07 1 1 0
1  202 0 -1.76776695296637 0
4 C0 87 0 50 0
0

0101000
+90 0 -99 0 *
Ve
1e-07
-24 3.75 2.50000000000001
0 0

0101101
*
Ed
 1e-07 1 1 0
1  203 0 -2.5 42.5
4 C0 87 0 88 0
0

0101000
+88 0 -90 0 *
Ed
 1e-07 1 1 0
1  204 0 -1.76776695296637 0
4 C0 87 0 83 0
0

0101000
+88 0 -107 0 *
Wi

0101100
+97 0 -89 0 -87 0 +86 0 *
Fa
0  1e-07 87 0

0111000
+85 0 *
Ve
1e-07
-24 3.93218443917043e-15 -42.5
0 0

0101101
*
Ed
 1e-07 1 1 0
1  205 0 -3.75 0
4 C0 88 0 50 0
0

0101000
+83 0 -90 0 *
Ve
1e-07
-24 3.93218443917042e-15 2.50000000000001
0 0

0101101
*
Ed
 1e-07 1 1 0
1  206 0 -2.5 42.5
4 C0 88 0 59 0
0

0101000
+81 0 -83 0 *
Ed
 1e-07 1 1 0
1  207 0 -3.75 0
4 C0 88 0 83 0
0

0101000
+81 0 -88 0 *
Wi

0101100
+87 0 -82 0 -80 0 +79 0 *
Fa
0  1e-07 88 0

0111000
+78 0 *
Ve
1e-07
-10 8.23559970219989e-16 -8.74999999999999
0 0

0101101
*
Ed
 1e-07 1 1 0
1  208 0 8.99999999999999 11
4 C0 59 0 55 0
0

0101000
+162 0 -76 0 *
Ve
1e-07
-10 8.23559970219989e-16 2.50000000000001
0 0

0101101
*
Ed
 1e-07 1 1 0
1  209 0 0 11.25
4 C0 59 0 84 0
0

0101000
+76 0 -74 0 *
Ed
 1e-07 1 1 0
1  210 0 4.72494813023001e-30 14
4 C0 59 0 83 0
0

0101000
+74 0 -81 0 *
Ed
 1e-07 1 1 0
1  211 0 -2 14
4 C0 59 0 50 0
0

0101000
+228 0 -83 0 *
Ve
1e-07
-10 8.23559970219989e-16 -31.25
0 0

0101101
*
Ed
 1e-07 1 1 0
1  212 0 8.99999999999999 11
4 C0 59 0 63 0
0

0101000
+231 0 -70 0 *
Ve
1e-07
-10 8.23559970219989e-16 -20
0 0

0101101
*
Ed
 1e-07 1 1 0
1  213 0 0 11.25
4 C0 59 0 86 0
0

0101000
+70 0 -68 0 *
Ed
 1e-07 1 1 0
1  214 0 -11 -8.99999999999999
4 C0 59 0 54 0
0

0101000
+68 0 -159 0 *
Wi

0101100
+75 0 +73 0 +72 0 +80 0 -71 0 -227 0 +69 0 +67 0 +66 0 -158 0 
*
Ed
 1e-07 1 1 0
1  215 0 3.14159265358979 6.28318530717959
2  121 57 0 3.14159265358979 6.28318530717959
4 C0 59 0 57 0
0

0101000
+253 0 -258 0 *
Wi

0101100
-251 0 -64 0 *
Ed
 1e-07 1 1 0
1  216 0 0 3.14159265358979
2  122 61 0 0 3.14159265358979
4 C0 59 0 61 0
0

0101000
+248 0 -243 0 *
Wi

0101100
+62 0 +241 0 *
Fa
0  1e-07 59 0

0111000
+65 0 +63 0 +61 0 *
Wi

0101100
-93 0 -246 0 +62 0 +242 0 *
Fa
0  1e-07 61 0

0111000
+59 0 *
Wi

0101100
+95 0 -256 0 -64 0 +252 0 *
Fa
0  1e-07 57 0

0111000
+57 0 *
Ed
 1e-07 1 1 0
1  217 0 0 4.66567179875308
4 C0 50 0 68 0
0

0101000
+206 0 -200 0 *
Ed
 1e-07 1 1 0
1  218 0 -4.66567179875307 0
4 C0 50 0 72 0
0

0101000
+182 0 -175 0 *
Wi

0101100
-55 0 +203 0 +211 0 +218 0 +225 0 +71 0 +82 0 +89 0 +98 0 +174 0 
-54 0 +179 0 +187 0 +196 0 *
Ed
 1e-07 1 1 0
1  219 0 0 3.14159265358979
2  123 49 0 0 3.14159265358979
4 C0 50 0 49 0
0

0101000
+277 0 -275 0 *
Wi

0101100
-52 0 -274 0 *
Fa
0  1e-07 50 0

0111000
+53 0 +51 0 *
Ed
 1e-07 1 1 0
1  220 0 15.7341189775596 20.7341189775596
4 C0 83 0 84 0
0

0101000
+74 0 -106 0 *
Wi

0101100
+49 0 -105 0 -86 0 -79 0 -72 0 *
Fa
0  1e-07 83 0

0111000
+48 0 *
Ve
1e-07
-9 6 -20
0 0

0101101
*
Ed
 1e-07 1 1 0
1  221 0 0 1.5707963267949
2  124 85 0 0 1.5707963267949
4 C0 85 0 54 0
0

0101000
+46 0 -102 0 *
Ve
1e-07
-9 6 -8.74999999999999
0 0

0101101
*
Ed
 1e-07 1 1 0
1  222 0 -20 -8.75
2  125 85 0 -20 -8.75
4 C0 85 0 82 0
0

0101000
+46 0 -44 0 *
Ed
 1e-07 1 1 0
1  223 0 1.5707963267949 3.14159265358979
2  126 85 0 1.5707963267949 3.14159265358979
4 C0 85 0 55 0
0

0101000
+104 0 -44 0 *
Wi

0101100
-45 0 +43 0 -42 0 -101 0 *
Fa
0  1e-07 85 0

0111000
+41 0 *
Ed
 1e-07 1 1 0
1  224 0 3.14159265358979 6.28318530717959
2  127 53 0 3.14159265358979 6.28318530717959
4 C0 53 0 54 0
0

0101000
+267 0 -265 0 *
Ed
 1e-07 1 1 0
1  225 0 3.14159265358979 6.28318530717959
2  128 53 0 3.14159265358979 6.28318530717959
4 C0 53 0 55 0
0

0101000
+263 0 -268 0 *
Wi

0101100
-39 0 -266 0 -38 0 +262 0 *
Fa
0  1e-07 53 0

0111000
+37 0 *
Ed
 1e-07 1 1 0
1  226 0 15.7341189775596 20.7341189775596
4 C0 86 0 54 0
0

0101000
+68 0 -102 0 *
Ed
 1e-07 1 1 0
1  227 0 15.7341189775596 20.7341189775596
4 C0 86 0 63 0
0

0101000
+70 0 -171 0 *
Wi

0101100
-35 0 -67 0 +34 0 +100 0 *
Fa
0  1e-07 86 0

0111000
-33 0 *
Ed
 1e-07 1 1 0
1  228 0 21.7208791395147 26.3865509382677
4 C0 63 0 68 0
0

0101000
+207 0 -199 0 *
Ed
 1e-07 1 1 0
1  229 0 -26.0375559712429 -21.3718841724898
4 C0 63 0 72 0
0

0101000
+183 0 -173 0 *
Wi

0101100
+204 0 +31 0 +193 0 +189 0 +180 0 +30 0 -170 0 -34 0 -69 0 +229 0 
+220 0 +213 0 *
Wi

0101100
-234 0 -165 0 *
Fa
0  1e-07 63 0

0111000
-29 0 -28 0 *
Ed
 1e-07 1 1 0
1  230 0 -26.3865509382677 -21.7208791395147
4 C0 54 0 78 0
0

0101000
+131 0 -137 0 *
Ed
 1e-07 1 1 0
1  231 0 21.3718841724898 26.0375559712429
4 C0 54 0 82 0
0

0101000
+46 0 -113 0 *
Wi

0101100
+127 0 +26 0 -134 0 +142 0 +149 0 +156 0 -66 0 +35 0 -45 0 +25 0 
+110 0 +118 0 *
Wi

0101100
-39 0 -264 0 *
Fa
0  1e-07 54 0

0111000
-24 0 -23 0 *
Ed
 1e-07 1 1 0
1  232 0 15.7341189775596 20.7341189775596
4 C0 84 0 55 0
0

0101000
+76 0 -104 0 *
Wi

0101100
-49 0 -73 0 +21 0 +103 0 *
Fa
0  1e-07 84 0

0111000
-20 0 *
Ed
 1e-07 1 1 0
1  233 0 21.7208791395147 26.3865509382677
4 C0 55 0 78 0
0

0101000
+138 0 -130 0 *
Ed
 1e-07 1 1 0
1  234 0 -26.0375559712429 -21.3718841724898
4 C0 55 0 82 0
0

0101000
+114 0 -44 0 *
Wi

0101100
+135 0 +18 0 +124 0 +120 0 +111 0 +17 0 -42 0 -21 0 -75 0 +160 0 
+151 0 +144 0 *
Wi

0101100
-261 0 -38 0 *
Fa
0  1e-07 55 0

0111000
-16 0 -15 0 *
Wi

0101100
-52 0 -276 0 +166 0 +272 0 *
Fa
0  1e-07 49 0

0111000
+13 0 *
Wi

0101100
+43 0 -17 0 +112 0 -25 0 *
Fa
0  1e-07 82 0

0111000
-11 0 *
Wi

0101100
+181 0 +54 0 +172 0 -30 0 *
Fa
0  1e-07 72 0

0111000
-9 0 *
Wi

0101100
+129 0 -18 0 +136 0 -26 0 *
Fa
0  1e-07 78 0

0111000
-7 0 *
Wi

0101100
+198 0 -31 0 +205 0 +55 0 *
Fa
0  1e-07 68 0

0111000
-5 0 *
Sh

0101100
-269 0 -259 0 -249 0 -239 0 -232 0 +222 0 +215 0 +208 0 +201 0 +191 0 
+184 0 +177 0 -167 0 -163 0 +153 0 +146 0 +139 0 +132 0 +122 0 +115 0 
+108 0 +91 0 +84 0 +77 0 +60 0 -58 0 -56 0 +50 0 +47 0 -40 0 
-36 0 -32 0 -27 0 -22 0 -19 0 -14 0 -12 0 -10 0 -8 0 -6 0 
-4 0 *
So

0100000
+3 0 *
Co

1100000
+279 0 +2 0 *

+1 0 