DBRep_DrawableShape

CASCADE Topology V1, (c) Matra-Datavision
Locations 0
Curve2ds 168
1 6.2831853071795862 -1.7763568394002505e-15 0 1 
1 0 -1.7763568394002505e-15 0 1 
1 6.2831853071795862 1.4500000000000006 -1 0 
1 6.2831853071795862 -2.8991378028648445 -1 1.1308638867425838e-15 
1 3.1415926535897944 -7.1054273576010019e-15 0 1 
1 3.1415926535897944 -7.1054273576010019e-15 0 1 
1 3.1415926535897922 8.8817841970012523e-16 1 -2.8271597168564584e-16 
1 6.2831853071795862 7.1054273576010019e-15 0 1 
1 0 7.1054273576010019e-15 0 1 
1 6.2831853071795862 1.4500000000000091 -1 0 
1 6.2831853071795862 -2.8991378028648418 -1 0 
1 3.1415926535897918 1.7763568394002505e-15 0 1 
1 3.1415926535897918 1.7763568394002505e-15 0 1 
1 0 8.8817841970012523e-16 1 -2.8271597168564594e-16 
1 6.2831853071795862 -1.5099033134902129e-14 0 1 
1 0 -1.5099033134902129e-14 0 1 
1 0 -6.2803698347351046e-16 1 1.9991038072866434e-16 
1 0 0 1 0 
1 3.1415926535897927 7.5495165674510645e-15 1.5317975206670935e-16 1 
1 3.1415926535897927 7.5495165674510645e-15 1.5317975206670935e-16 1 
1 6.2831853071795862 4.4408920985006262e-16 0 1 
1 0 4.4408920985006262e-16 0 1 
1 0 -6.2803698347351046e-16 1 0 
1 0 0 1 0 
1 3.1415926535897931 -2.6645352591003757e-15 -3.0635950413341998e-16 1 
1 3.1415926535897931 -2.6645352591003757e-15 -3.0635950413341998e-16 1 
1 6.2831853071795862 8.8817841970012523e-16 0 1 
1 0 8.8817841970012523e-16 0 1 
1 3.1415926535897931 0.5 1 0 
1 3.1415926535897927 1.1102230246251565e-16 0 1 
1 3.1415926535897927 1.1102230246251565e-16 0 1 
1 6.2831853071795862 -1.1102230246251565e-16 0 1 
1 0 -1.1102230246251565e-16 0 1 
1 0 0.5 1 0 
1 3.1415926535897931 1.1102230246251565e-16 0 1 
1 3.1415926535897931 1.1102230246251565e-16 0 1 
1 6.2831853071795862 0 0 1 
1 0 0 0 1 
1 0 30.000000000000004 1 0 
1 3.1415926535897931 0 0 1 
1 3.1415926535897931 0 0 1 
1 6.2831853071795862 22.550000000000004 -1 0 
1 6.2831853071795862 0 0 1 
1 0 0 0 1 
1 3.1415926535897931 15.000000000000004 1 0 
1 3.1415926535897931 0 0 1 
1 3.1415926535897931 0 0 1 
1 6.2831853071795862 7.5500000000000034 -1 0 
1 4.7123889803846897 0 0 1 
1 6.2831853071795862 7.5500000000000034 -1 0 
1 3.1415926535897931 15.000000000000004 1 0 
1 3.1415926535897931 1.7763568394002505e-15 0 1 
1 -3.1415926535897931 15.000000000000004 1 0 
1 6.2831853071795862 7.5500000000000034 -1 0 
1 -3.1415926535897931 0.5 1 0 
1 0 0.5 1 0 
1 -3.1415926535897931 -8.8817841970012543e-16 1 2.8271597168564599e-16 
1 0 -8.8817841970012523e-16 1 2.8271597168564594e-16 
1 4.7123889803846897 0 0 1 
1 6.2831853071795862 22.550000000000004 -1 0 
1 0 30.000000000000004 1 0 
1 3.1415926535897931 0 0 1 
1 0 30.000000000000004 1 0 
1 6.2831853071795862 22.550000000000004 -1 0 
1 0 0 1 0 
1 0 -6.2803698347351046e-16 1 0 
1 0 0 1 0 
1 0 6.2803698347351046e-16 1 -1.9991038072866434e-16 
1 6.2831853071795871 -2.8991378028648418 -1 0 
1 6.2831853071795871 1.4500000000000091 -1 0 
1 6.2831853071795862 -2.8991378028648374 -1 -1.1308638867425838e-15 
1 6.2831853071795862 1.4500000000000006 -1 0 
1 6.2831853071795862 0 0 1 
1 0 0 0 1 
1 6.2831853071795862 1.4500000000000002 -1 0 
1 6.2831853071795862 -2.8991378028648462 -1 0 
1 3.1415926535897931 0 0 1 
1 3.1415926535897931 0 0 1 
1 3.1415926535897931 0 1 0 
1 6.2831853071795862 0 0 1 
1 0 0 0 1 
1 6.2831853071795862 1.4500000000000002 -1 0 
1 6.2831853071795862 -2.8991378028648453 -1 1.4135798584282297e-16 
1 3.1415926535897931 0 0 1 
1 3.1415926535897931 0 0 1 
1 0 0 1 0 
1 6.2831853071795862 0 0 1 
1 0 0 0 1 
1 0 -6.2803698347351046e-16 1 0 
1 0 0 1 0 
1 3.1415926535897931 0 0 1 
1 3.1415926535897931 0 0 1 
1 6.2831853071795862 -4.4408920985006262e-16 0 1 
1 0 -4.4408920985006262e-16 0 1 
1 0 -1.2560739669470209e-15 1 1.9991038072866434e-16 
1 0 0 1 0 
1 3.1415926535897931 -8.8817841970012523e-16 0 1 
1 3.1415926535897931 -8.8817841970012523e-16 0 1 
1 6.2831853071795862 0 0 1 
1 0 0 0 1 
1 3.1415926535897931 0.5 1 0 
1 3.1415926535897931 0 0 1 
1 3.1415926535897931 0 0 1 
1 6.2831853071795862 0 0 1 
1 0 0 0 1 
1 0 0.5 1 0 
1 3.1415926535897931 0 0 1 
1 3.1415926535897931 0 0 1 
1 6.2831853071795862 0 0 1 
1 0 0 0 1 
1 0 30 1 0 
1 3.1415926535897931 0 0 1 
1 3.1415926535897931 0 0 1 
1 6.2831853071795862 22.550000000000001 -1 0 
1 6.2831853071795862 0 0 1 
1 0 0 0 1 
1 3.1415926535897931 15 1 0 
1 3.1415926535897931 0 0 1 
1 3.1415926535897931 0 0 1 
1 6.2831853071795862 7.5500000000000007 -1 0 
1 4.7123889803846897 0 0 1 
1 6.2831853071795862 7.5500000000000007 -1 0 
1 3.1415926535897931 15 1 0 
1 3.1415926535897931 0 0 1 
1 -3.1415926535897931 15 1 0 
1 6.2831853071795862 7.5500000000000007 -1 0 
1 -3.1415926535897931 0.5 1 0 
1 0 0.5 1 0 
1 -3.1415926535897931 0 1 0 
1 0 0 1 0 
1 4.7123889803846897 0 0 1 
1 6.2831853071795862 22.550000000000001 -1 0 
1 0 30 1 0 
1 3.1415926535897931 0 0 1 
1 0 30 1 0 
1 6.2831853071795862 22.550000000000001 -1 0 
1 0 0 1 0 
1 0 0 1 -1.9991038072866434e-16 
1 0 0 1 0 
1 0 -6.2803698347351046e-16 1 0 
1 6.2831853071795862 -2.8991378028648445 -1 -1.4135798584282297e-16 
1 6.2831853071795862 1.4500000000000002 -1 0 
1 6.2831853071795862 -2.8991378028648462 -1 0 
1 6.2831853071795862 1.4500000000000002 -1 0 
1 3.1415926535897931 0 -1 0 
1 3.1415926535897931 -1.5700924586837572e-16 -1.5700924586838153e-15 1 
1 3.1415926535897931 -1.5700924586837572e-16 -1.5700924586838153e-15 1 
1 -3.1415926535897931 0.28284271247460874 1 5.3009244691058611e-17 
1 -3.1415926535897931 0.19999999999999599 1 0 
1 0 -1.5700924586837572e-16 0 1 
1 6.2831853071795862 -1.5700924586837572e-16 0 1 
1 6.2831853071795862 -0.2828427124746189 -1 7.0678992921411486e-17 
1 3.1415926535897936 1.1102230246251565e-15 0 1 
1 3.1415926535897936 1.1102230246251565e-15 0 1 
1 0 -1.570092458683784e-16 1 4.9977595182166339e-17 
1 3.1415926535897931 29.800000000000001 -1 0 
1 0 1.1102230246251565e-15 0 1 
1 6.2831853071795862 1.1102230246251565e-15 0 1 
1 3.1415926535897927 0 0 1 
1 3.1415926535897927 0 0 1 
1 0 0 0 1 
1 6.2831853071795862 0 0 1 
1 3.1415926535897931 0.19999999999999599 1 0 
1 3.1415926535897931 0.2828427124746089 1 0 
1 9.4247779607693793 29.800000000000001 -1 0 
1 0 1.570092458683784e-16 1 -4.9977595182166339e-17 
1 9.4247779607693793 0 -1 0 
1 6.2831853071795862 -0.28284271247461867 -1 0 
Curves 244
1 -8.9999999999999805 -4.4999999999999902 -8.1500000000000199 -2.0920442784627401e-30 1 9.7962628641060595e-16 
2 -8.9999999999999893 -3.0499999999999901 -6.0000000000000204 2.0920442784627401e-30 -1 -9.7962628641060595e-16 2.1355534324503301e-15 9.7962628641060595e-16 -1 1 3.5032461608120427e-46 2.1355534324503301e-15 2.1499999999999999
1 -8.9999999999999893 -4.5 -3.8500000000000201 -2.0920442784627401e-30 1 9.7962628641060595e-16 
2 -8.9999999999999893 -4.4999999999999902 -6.0000000000000204 -2.0920442784627401e-30 1 9.7962628641060595e-16 -2.1355534324503301e-15 -9.7962628641060595e-16 1 1 3.5032461608120427e-46 2.1355534324503301e-15 2.1499999999999999
1 -8.9999999999999503 -4.4999999999999698 -26.149999999999999 -2.0920442784627401e-30 1 9.7962628641060595e-16 
2 -8.9999999999999503 -3.0499999999999701 -24 2.0920442784627401e-30 -1 -9.7962628641060595e-16 2.1355534324503301e-15 9.7962628641060595e-16 -1 1 3.5032461608120427e-46 2.1355534324503301e-15 2.1499999999999999
1 -8.9999999999999591 -4.4999999999999796 -21.850000000000001 -2.0920442784627401e-30 1 9.7962628641060595e-16 
2 -8.9999999999999503 -4.4999999999999796 -24 -2.0920442784627401e-30 1 9.7962628641060595e-16 2.1355534324503301e-15 9.7962628641060595e-16 -1 -1 -3.5032461608120427e-46 -2.1355534324503301e-15 2.1499999999999999
1 -8.9999999999999805 -0.99999999999998901 -10.199999999999999 1.5100643136718299e-15 0.70710678118654702 -0.70710678118654802 
2 -8.9999999999999893 -0.999999999999994 -6.0000000000000204 -2.0920442784627401e-30 1 9.7962628641060595e-16 2.1355534324503301e-15 9.7962628641060595e-16 -1 -1 -3.5032461608120427e-46 -2.1355534324503301e-15 4.2000000000000002
1 -9 -0.999999999999998 -1.80000000000001 -1.5966599192953898e-15 0.70710678118654602 0.70710678118654891 
1 -8.9999999999999396 -0.99999999999997202 -28.199999999999999 1.5100643136718299e-15 0.70710678118654702 -0.70710678118654802 
2 -8.9999999999999503 -0.99999999999997602 -24 -2.0920442784627401e-30 1 9.7962628641060595e-16 2.1355534324503301e-15 9.7962628641060595e-16 -1 -1 -3.5032461608120427e-46 -2.1355534324503301e-15 4.2000000000000002
1 -8.9999999999999591 -0.99999999999998002 -19.800000000000001 -1.5966599192953898e-15 0.70710678118654602 0.70710678118654891 
1 -8.9999999999999805 -0.99999999999998901 -10.199999999999999 -2.0920442784627401e-30 1 9.7962628641060595e-16 
2 -8.9999999999999893 -0.499999999999994 -6.0000000000000204 -2.0920442784627401e-30 1 9.7962628641060595e-16 -2.1355534324503301e-15 -9.7962628641060595e-16 1 1 3.5032461608120427e-46 2.1355534324503301e-15 4.2000000000000002
1 -9 -0.999999999999998 -1.80000000000001 -2.0920442784627401e-30 1 9.7962628641060595e-16 
1 -8.9999999999999396 -0.99999999999997202 -28.199999999999999 -2.0920442784627401e-30 1 9.7962628641060595e-16 
2 -8.9999999999999503 -0.49999999999997602 -24 -2.0920442784627401e-30 1 9.7962628641060595e-16 2.1355534324503301e-15 9.7962628641060595e-16 -1 -1 -3.5032461608120427e-46 -2.1355534324503301e-15 4.2000000000000002
1 -8.9999999999999591 -0.99999999999998002 -19.800000000000001 -2.0920442784627401e-30 1 9.7962628641060595e-16 
1 -1.5 -6.3108872417680902e-30 0 2.1355534324503301e-15 9.7962628641060595e-16 -1 
2 6.4066602973509796e-14 2.9388788592318197e-14 -30 2.1355534324503301e-15 9.7962628641060595e-16 -1 -1 3.5032461608120427e-46 -2.1355534324503301e-15 -2.0920442784627394e-30 1 9.7962628641060595e-16 1.5
1 1.5 1.8369701987209599e-16 7.1054273576010003e-15 2.1355534324503301e-15 9.7962628641060595e-16 -1 
2 4.8156729901754798e-14 2.2090572758559201e-14 -22.550000000000001 -2.1355534324503301e-15 -9.7962628641060595e-16 1 -1 3.5032461608120427e-46 -2.1355534324503301e-15 2.0920442784627394e-30 -1 -9.7962628641060595e-16 1.5
1 -1.5 -6.3108872417680902e-30 0 2.1355534324503301e-15 9.7962628641060595e-16 -1 
2 3.2033301486754898e-14 1.4694394296159099e-14 -15 2.1355534324503301e-15 9.7962628641060595e-16 -1 1 -3.5032461608120427e-46 2.1355534324503301e-15 2.0920442784627394e-30 -1 -9.7962628641060595e-16 1.5
1 1.5 1.8369701987209599e-16 7.1054273576010003e-15 2.1355534324503301e-15 9.7962628641060595e-16 -1 
2 1.6123428414999899e-14 7.3961784624000703e-15 -7.5499999999999998 -2.1355534324503301e-15 -9.7962628641060595e-16 1 -1 3.5032461608120427e-46 -2.1355534324503301e-15 2.0920442784627394e-30 -1 -9.7962628641060595e-16 1.5
1 4.0000000000000204 1 -7.5499999999999901 -0.70710678118654602 0.70710678118654891 -6.9470045018762391e-16 
1 4 0.99999999999999301 1.4210854715202001e-14 2.1355534324503301e-15 9.7962628641060595e-16 -1 
1 4.0000000000000302 1.00000000000001 -15 0.70710678118654602 -0.70710678118654891 8.786956601896289e-16 
1 2 3 1.06581410364015e-14 2.1355534324503301e-15 9.7962628641060595e-16 -1 
1 2.00000000000002 3.0000000000000102 -7.5499999999999901 -1 -1.6993807167204599e-31 -1.9620810848526502e-15 
1 2.0000000000000302 3.0000000000000102 -15 1 -8.4969035836022899e-32 2.2222896062491701e-15 
1 -2 3 3.5527136788005001e-15 2.1355534324503301e-15 9.7962628641060595e-16 -1 
1 -3.99999999999998 1 -7.5499999999999998 -0.70710678118654602 -0.70710678118654891 -2.0801012304867002e-15 
1 -3.9999999999999698 1.00000000000001 -15 0.70710678118654602 0.70710678118654891 2.2640964404886994e-15 
1 -4 0.99999999999999301 -3.5527136788005001e-15 2.1355534324503301e-15 9.7962628641060595e-16 -1 
1 -3.99999999999998 1 -7.5499999999999998 2.0920442784627401e-30 -1 -9.7962628641060595e-16 
1 -3.9999999999999698 1.00000000000001 -15 -2.0920442784627401e-30 1 9.7962628641060595e-16 
1 -4 -0.5 -7.1054273576010003e-15 2.1355534324503301e-15 9.7962628641060595e-16 -1 
1 -4.2999999999999803 -4.4999999999999902 -7.5500000000000096 -2.0920442784627401e-30 1 9.7962628641060595e-16 
1 -4.2999999999999998 -4.5 -1.06581410364015e-14 2.1355534324503301e-15 9.7962628641060595e-16 -1 
1 -4.2999999999999599 -4.4999999999999902 -15 2.0920442784627401e-30 -1 -9.7962628641060595e-16 
1 -4.2999999999999998 -4 -1.06581410364015e-14 2.1355534324503301e-15 9.7962628641060595e-16 -1 
1 1.4813712190637498e-14 -3.9999999999999898 -7.5499999999999998 1 1.6993807167204599e-31 1.9620810848526502e-15 
1 3.3334344093737497e-14 -3.9999999999999898 -15 -1 8.4969035836022899e-32 -2.2222896062491701e-15 
1 -1.26217744835362e-29 -4 0 2.1355534324503301e-15 9.7962628641060595e-16 -1 
2 1.6123428414999899e-14 7.3961784624000703e-15 -7.5499999999999998 -2.1355534324503301e-15 -9.7962628641060595e-16 1 -1 3.5032461608120427e-46 -2.1355534324503301e-15 2.0920442784627394e-30 -1 -9.7962628641060595e-16 4
2 3.2033301486754898e-14 1.4694394296159099e-14 -15 2.1355534324503301e-15 9.7962628641060595e-16 -1 1 -3.5032461608120427e-46 2.1355534324503301e-15 2.0920442784627394e-30 -1 -9.7962628641060595e-16 4
1 4 4.8985871965893399e-16 1.06581410364015e-14 2.1355534324503301e-15 9.7962628641060595e-16 -1 
1 4.0000000000000204 7.3961784624000703e-15 -7.5499999999999901 -2.0920442784627401e-30 1 9.7962628641060595e-16 
1 4.0000000000000302 1.4694394296159099e-14 -15 2.0920442784627401e-30 -1 -9.7962628641060595e-16 
2 3.2033301486754898e-14 1.4694394296159099e-14 -15 2.1355534324503301e-15 9.7962628641060595e-16 -1 1 -3.5032461608120427e-46 2.1355534324503301e-15 2.0920442784627394e-30 -1 -9.7962628641060595e-16 1.5
2 1.6123428414999899e-14 7.3961784624000703e-15 -7.5499999999999998 -2.1355534324503301e-15 -9.7962628641060595e-16 1 -1 3.5032461608120427e-46 -2.1355534324503301e-15 2.0920442784627394e-30 -1 -9.7962628641060595e-16 1.5
1 4.0000000000000497 1.00000000000002 -22.550000000000001 -0.70710678118654602 0.70710678118654891 -6.9470045018762391e-16 
1 4 0.99999999999999301 1.4210854715202001e-14 2.1355534324503301e-15 9.7962628641060595e-16 -1 
1 4.0000000000000604 1.00000000000002 -30 0.70710678118654602 -0.70710678118654891 8.1736392352229394e-16 
1 2 3 1.06581410364015e-14 2.1355534324503301e-15 9.7962628641060595e-16 -1 
1 2.00000000000004 3.00000000000002 -22.550000000000001 -1 -1.6993807167204599e-31 -1.9620810848526502e-15 
1 2.00000000000006 3.0000000000000302 -30 1 -0 2.1355534324503301e-15 
1 -2 3 3.5527136788005001e-15 2.1355534324503301e-15 9.7962628641060595e-16 -1 
1 -3.9999999999999498 1.00000000000001 -22.550000000000001 -0.70710678118654602 -0.70710678118654891 -2.0801012304867002e-15 
1 -3.99999999999994 1.00000000000002 -30 0.70710678118654602 0.70710678118654891 2.2027647038213695e-15 
1 -4 0.99999999999999301 -3.5527136788005001e-15 2.1355534324503301e-15 9.7962628641060595e-16 -1 
1 -3.9999999999999498 1.00000000000002 -22.550000000000001 2.0920442784627401e-30 -1 -9.7962628641060595e-16 
1 -3.99999999999994 1.00000000000002 -30 -2.0920442784627401e-30 1 9.7962628641060595e-16 
1 -4 -0.5 -7.1054273576010003e-15 2.1355534324503301e-15 9.7962628641060595e-16 -1 
1 -4.4999999999999902 -0.5 -7.1054273576010003e-15 -2.00544917175207e-15 -9.7962628641060595e-16 1 
1 -3.9999999999999898 -0.49999999999999201 -7.5500000000000096 -1 -1.6993807167204599e-31 -1.9620810848526502e-15 
1 -3.9999999999999698 -0.49999999999998501 -15 1 -8.4969035836022899e-32 2.2222896062491701e-15 
1 -4.4999999999999902 -0.5 -7.1054273576010003e-15 -1.9057887336454501e-15 -9.7962628641060595e-16 1 
1 -3.99999999999996 -0.49999999999997802 -22.550000000000001 -1 -1.6993807167204599e-31 -1.9620810848526502e-15 
1 -3.99999999999994 -0.49999999999997002 -30 1 -0 2.1355534324503301e-15 
1 -14.199999999999999 -0.5 -2.8421709430404001e-14 2.1355534324503301e-15 9.7962628641060595e-16 -1 
1 -4 -0.5 -7.1054273576010003e-15 1 -0 2.1355534324503301e-15 
2 -8.9999999999999893 -0.499999999999994 -6.0000000000000204 -2.0920442784627401e-30 1 9.7962628641060595e-16 -2.1355534324503301e-15 -9.7962628641060595e-16 1 1 3.5032461608120427e-46 2.1355534324503301e-15 4.2000000000000002
2 -8.9999999999999503 -0.49999999999997602 -24 -2.0920442784627401e-30 1 9.7962628641060595e-16 2.1355534324503301e-15 9.7962628641060595e-16 -1 -1 -3.5032461608120427e-46 -2.1355534324503301e-15 4.2000000000000002
1 -14.1999999999999 -0.49999999999997002 -30 0.70710678118654602 0.70710678118654891 2.2027647038213695e-15 
1 -15 -1.3 -2.8421709430404001e-14 2.1355534324503301e-15 9.7962628641060595e-16 -1 
1 -14.199999999999999 -0.5 -2.8421709430404001e-14 0.70710678118654602 0.70710678118654891 2.2027647038213695e-15 
1 -14.999999999999901 -4.4999999999999698 -30 -5.4210108624275498e-16 1 9.7962628641060496e-16 
1 -15 -4.5 -3.1974423109204502e-14 2.1355534324503301e-15 9.7962628641060595e-16 -1 
1 -15 -4.5 -3.1974423109204502e-14 -5.4210108624275498e-16 1 9.7962628641060496e-16 
1 -4.4999999999999902 -4.5 -1.06581410364015e-14 2.00544917175207e-15 9.7962628641060595e-16 -1 
1 -4.2999999999999998 -4.5 -1.06581410364015e-14 -1 0 -2.1355534324503301e-15 
1 -4.2999999999999297 -4.4999999999999698 -30 -1 0 -2.1355534324503301e-15 
1 -4.2999999999999998 -4.5 -1.06581410364015e-14 2.1355534324503301e-15 9.7962628641060595e-16 -1 
1 -4.2999999999999501 -4.4999999999999796 -22.550000000000001 1 1.6993807167204599e-31 1.9620810848526502e-15 
1 -4.4999999999999902 -4.5 -1.06581410364015e-14 1.9057887336454501e-15 9.7962628641060595e-16 -1 
1 -4.2999999999999599 -4.4999999999999902 -15 -1 8.4969035836022899e-32 -2.2222896062491701e-15 
1 -4.2999999999999803 -4.4999999999999902 -7.5500000000000096 1 1.6993807167204599e-31 1.9620810848526502e-15 
2 -8.9999999999999893 -4.4999999999999902 -6.0000000000000204 -2.0920442784627401e-30 1 9.7962628641060595e-16 -2.1355534324503301e-15 -9.7962628641060595e-16 1 1 3.5032461608120427e-46 2.1355534324503301e-15 2.1499999999999999
2 -8.9999999999999503 -4.4999999999999796 -24 -2.0920442784627401e-30 1 9.7962628641060595e-16 2.1355534324503301e-15 9.7962628641060595e-16 -1 -1 -3.5032461608120427e-46 -2.1355534324503301e-15 2.1499999999999999
1 -4.2999999999999501 -4.4999999999999796 -22.550000000000001 -2.0920442784627401e-30 1 9.7962628641060595e-16 
1 -4.2999999999999297 -4.4999999999999698 -30 2.0920442784627401e-30 -1 -9.7962628641060595e-16 
1 -4.2999999999999998 -4 -1.06581410364015e-14 2.1355534324503301e-15 9.7962628641060595e-16 -1 
1 4.4244928463427098e-14 -3.99999999999998 -22.550000000000001 1 1.6993807167204599e-31 1.9620810848526502e-15 
1 6.4066602973509796e-14 -3.9999999999999698 -30 -1 0 -2.1355534324503301e-15 
1 -1.26217744835362e-29 -4 0 2.1355534324503301e-15 9.7962628641060595e-16 -1 
2 4.8156729901754798e-14 2.2090572758559201e-14 -22.550000000000001 -1.91871299795323e-15 -9.7962628641060595e-16 1 -1 -2.1242258959005707e-31 -1.91871299795323e-15 2.0920442784627405e-30 -1 -9.7962628641060595e-16 4
2 6.4066602973509796e-14 2.9388788592318197e-14 -30 2.1355534324503301e-15 9.7962628641060595e-16 -1 -1 3.5032461608120427e-46 -2.1355534324503301e-15 -2.0920442784627394e-30 1 9.7962628641060595e-16 4
1 4 4.8985871965893399e-16 1.06581410364015e-14 2.1355534324503301e-15 9.7962628641060595e-16 -1 
1 4.0000000000000497 2.2090572758559201e-14 -22.550000000000001 -2.0920442784627401e-30 1 9.7962628641060595e-16 
1 4.0000000000000604 2.9388788592318197e-14 -30 2.0920442784627401e-30 -1 -9.7962628641060595e-16 
1 -4.4999999999999902 -6.3108872417680902e-30 -7.1054273576010003e-15 -2.0920442784627401e-30 1 9.7962628641060595e-16 
2 6.4066602973509796e-14 2.9388788592318197e-14 -30 2.1355534324503301e-15 9.7962628641060595e-16 -1 -1 3.5032461608120427e-46 -2.1355534324503301e-15 -2.0920442784627394e-30 1 9.7962628641060595e-16 1.5
2 4.8156729901754798e-14 2.2090572758559201e-14 -22.550000000000001 -2.1355534324503301e-15 -9.7962628641060595e-16 1 -1 3.5032461608120427e-46 -2.1355534324503301e-15 2.0920442784627394e-30 -1 -9.7962628641060595e-16 1.5
1 -4.49999999999996 -10.5 -15 -2.0920442784627401e-30 1 9.7962628641060595e-16 
1 -4.4999999999999503 -10.5 -22.550000000000001 -2.0920442784627401e-30 1 9.7962628641060595e-16 
1 -4.4999999999999796 -10.5 -7.5500000000000203 -2.0920442784627401e-30 1 9.7962628641060595e-16 
2 -8.9999999999999503 -0.99999999999997602 -24 -2.0920442784627401e-30 1 9.7962628641060595e-16 2.1355534324503301e-15 9.7962628641060595e-16 -1 -1 -3.5032461608120427e-46 -2.1355534324503301e-15 4.2000000000000002
2 -8.9999999999999893 -0.999999999999994 -6.0000000000000204 -2.0920442784627401e-30 1 9.7962628641060595e-16 2.1355534324503301e-15 9.7962628641060595e-16 -1 -1 -3.5032461608120427e-46 -2.1355534324503301e-15 4.2000000000000002
2 -8.9999999999999503 -3.0499999999999701 -24 2.0920442784627401e-30 -1 -9.7962628641060595e-16 2.1355534324503301e-15 9.7962628641060595e-16 -1 1 3.5032461608120427e-46 2.1355534324503301e-15 2.1499999999999999
2 -8.9999999999999893 -3.0499999999999901 -6.0000000000000204 2.0920442784627401e-30 -1 -9.7962628641060595e-16 2.1355534324503301e-15 9.7962628641060595e-16 -1 1 3.5032461608120427e-46 2.1355534324503301e-15 2.1499999999999999
1 9 -4.5 -21.850000000000001 -0 1 -0 
2 9 -3.0499999999999998 -24 0 -1 0 0 0 1 -1 0 0 2.1499999999999999
1 9 -4.5 -26.149999999999999 -0 1 -0 
2 9 -4.5 -24 0 1 0 0 0 -1 -1 0 0 2.1499999999999999
1 9 -4.5 -3.8500000000000001 -0 1 -0 
2 9 -3.0499999999999998 -6 0 -1 0 0 0 1 -1 0 0 2.1499999999999999
1 9 -4.5 -8.1500000000000004 -0 1 -0 
2 9 -4.5 -6 0 1 0 0 -0 1 1 0 -0 2.1499999999999999
1 9 -1 -19.800000000000001 0 0.70710678118654702 0.70710678118654802 
2 9 -1 -24 0 1 0 0 -0 1 1 0 -0 4.2000000000000002
1 9 -1 -28.199999999999999 8.6595605623549403e-17 0.70710678118654702 -0.70710678118654802 
1 9 -1 -1.8 0 0.70710678118654702 0.70710678118654802 
2 9 -1 -6 0 1 0 0 -0 1 1 0 -0 4.2000000000000002
1 9 -1 -10.199999999999999 8.6595605623549403e-17 0.70710678118654702 -0.70710678118654802 
1 9 -1 -19.800000000000001 -0 1 -0 
2 9 -0.5 -24 0 1 0 0 0 -1 -1 0 0 4.2000000000000002
1 9 -1 -28.199999999999999 -0 1 -0 
1 9 -1 -1.8 -0 1 -0 
2 9 -0.5 -6 0 1 0 0 -0 1 1 0 -0 4.2000000000000002
1 9 -1 -10.199999999999999 -0 1 -0 
1 1.5 0 -30 0 0 1 
2 0 0 0 0 0 1 1 0 -0 -0 1 0 1.5
1 -1.5 1.8369701987210299e-16 -30 0 0 1 
2 0 0 -7.4500000000000002 0 0 -1 1 0 0 0 -1 0 1.5
1 1.5 0 -30 0 0 1 
2 0 0 -15 0 0 1 -1 0 0 0 -1 0 1.5
1 -1.5 1.8369701987210299e-16 -30 0 0 1 
2 0 0 -22.449999999999999 0 0 -1 1 0 0 0 -1 0 1.5
1 -4 0.999999999999994 -22.449999999999999 0.70710678118654602 0.70710678118654891 -1.2266347333467001e-16 
1 -4 0.99999999999999301 -30 0 0 1 
1 -4 0.99999999999999201 -15 -0.70710678118654602 -0.70710678118654891 -6.1331736667334904e-17 
1 -2 3 -30 0 0 1 
1 -2 3 -22.449999999999999 1 0 -1.7347234759768101e-16 
1 -2 3 -15 -1 0 -8.6736173798840305e-17 
1 2 3 -30 0 0 1 
1 4 0.99999999999999201 -22.449999999999999 0.70710678118654602 -0.70710678118654891 -1.2266347333467001e-16 
1 4 0.999999999999994 -15 -0.70710678118654602 0.70710678118654891 -6.1331736667334904e-17 
1 4 0.99999999999999301 -30 0 0 1 
1 4 0.99999999999999301 -22.449999999999999 0 -1 0 
1 4 0.99999999999999301 -15 0 1 0 
1 4 -0.5 -30 0 0 1 
1 4.2999999999999998 -4.5 -22.449999999999999 0 1 0 
1 4.2999999999999998 -4.5 -30 0 0 1 
1 4.2999999999999998 -4.5 -15 0 -1 0 
1 4.2999999999999998 -4 -30 0 0 1 
1 1.3097162243624899e-15 -4 -22.449999999999999 -1 0 1.7347234759768101e-16 
1 -1.3010426069826101e-15 -4 -15 1 0 8.6736173798840305e-17 
1 0 -4 -30 0 0 1 
2 0 0 -22.449999999999999 0 0 -1 1 0 0 0 -1 0 4
2 0 0 -15 0 0 1 -1 0 0 0 -1 0 4
1 -4 4.8985871965894099e-16 -30 0 0 1 
1 -4 0 -22.449999999999999 0 1 0 
1 -4 0 -15 0 -1 0 
2 0 0 -15 0 0 1 -1 0 0 0 -1 0 1.5
2 0 0 -22.449999999999999 0 0 -1 1 0 0 0 -1 0 1.5
1 -4 0.999999999999995 -7.4500000000000002 0.70710678118654602 0.70710678118654891 -1.2266347333467001e-16 
1 -4 0.99999999999999301 -30 0 0 1 
1 -4 0.99999999999999301 0 -0.70710678118654602 -0.70710678118654891 -0 
1 -2 3 -30 0 0 1 
1 -2 3 -7.4500000000000002 1 0 -1.7347234759768101e-16 
1 -2 3 0 -1 -0 -0 
1 2 3 -30 0 0 1 
1 4 0.99999999999999101 -7.4500000000000002 0.70710678118654602 -0.70710678118654891 -1.2266347333467001e-16 
1 4 0.99999999999999301 0 -0.70710678118654602 0.70710678118654891 0 
1 4 0.99999999999999301 -30 0 0 1 
1 4 0.99999999999999301 -7.4500000000000002 0 -1 0 
1 4 0.99999999999999301 0 -0 1 -0 
1 4 -0.5 -30 0 0 1 
1 4.4999999999999902 -0.5 -30 -1.30104260698261e-16 0 -1 
1 4 -0.5 -22.449999999999999 1 0 -1.7347234759768101e-16 
1 4 -0.5 -15 -1 0 -8.6736173798840305e-17 
1 4.4999999999999902 -0.5 -30 -2.2976469880487499e-16 0 -1 
1 4 -0.5 -7.4500000000000002 1 0 -1.7347234759768101e-16 
1 4 -0.5 0 -1 -0 -0 
1 14.199999999999999 -0.5 -30 0 0 1 
1 4 -0.5 -30 -1 -0 -0 
2 9 -0.5 -24 0 1 0 0 0 -1 -1 0 0 4.2000000000000002
2 9 -0.5 -6 0 1 0 0 -0 1 1 0 -0 4.2000000000000002
1 14.199999999999999 -0.5 0 -0.70710678118654602 0.70710678118654891 -0 
1 15 -1.3 -30 0 0 1 
1 14.199999999999999 -0.5 -30 -0.70710678118654602 0.70710678118654891 -0 
1 15 -4.5 0 5.4210108624275202e-16 1 0 
1 15 -4.5 -30 0 0 1 
1 15 -4.5 -30 5.4210108624275202e-16 1 0 
1 4.4999999999999902 -4.5 -30 1.30104260698261e-16 0 1 
1 4.2999999999999998 -4.5 -30 1 0 0 
1 4.2999999999999998 -4.5 0 1 0 0 
1 4.2999999999999998 -4.5 -30 0 0 1 
1 4.2999999999999998 -4.5 -7.4500000000000002 -1 0 1.7347234759768101e-16 
1 4.4999999999999902 -4.5 -30 2.2976469880487499e-16 0 1 
1 4.2999999999999901 -4.5 -15 1 0 8.6736173798840305e-17 
1 4.2999999999999998 -4.5 -22.449999999999999 -1 0 1.7347234759768101e-16 
2 9 -4.5 -24 0 1 0 0 0 -1 -1 0 0 2.1499999999999999
2 9 -4.5 -6 0 1 0 0 -0 1 1 0 -0 2.1499999999999999
1 4.2999999999999998 -4.5 -7.4500000000000002 0 1 0 
1 4.2999999999999998 -4.5 0 -0 -1 -0 
1 4.2999999999999998 -4 -30 0 0 1 
1 3.9118014383277e-15 -4 -7.4500000000000002 -1 0 1.7347234759768101e-16 
1 0 -4 0 1 0 0 
1 0 -4 -30 0 0 1 
2 0 0 -7.4500000000000002 -2.1684043449710101e-16 -0 -1 1 0 -2.1684043449710101e-16 0 -1 0 4
2 0 0 0 0 0 1 1 0 -0 -0 1 0 4
1 -4 4.8985871965894099e-16 -30 0 0 1 
1 -4 0 -7.4500000000000002 0 1 0 
1 -4 0 0 -0 -1 -0 
1 4.4999999999999902 0 -30 0 1 0 
2 0 0 0 0 0 1 1 0 -0 -0 1 0 1.5
2 0 0 -7.4500000000000002 0 0 -1 1 0 0 0 -1 0 1.5
1 4.4999999999999902 -10.5 -15 -0 1 -0 
1 4.5 -10.5 -7.4500000000000002 -0 1 -0 
1 4.4999999999999902 -10.5 -22.449999999999999 -0 1 -0 
2 9 -1 -6 0 1 0 0 -0 1 1 0 -0 4.2000000000000002
2 9 -1 -24 0 1 0 0 -0 1 1 0 -0 4.2000000000000002
2 9 -3.0499999999999998 -6 0 -1 0 0 0 1 -1 0 0 2.1499999999999999
2 9 -3.0499999999999998 -24 0 -1 0 0 0 1 -1 0 0 2.1499999999999999
2 0 0 0 0 0 1 0.87498231764667778 -0.48415487584619887 0 0.48415487584619887 0.87498231764667778 -0 1.30000000000001
1 1.1374770129406899 -0.62940133860006298 0 0.61870593022628073 -0.34234919585537382 -0.70710678118655568 
2 0 0 -0.19999999999999599 0 0 -1 0.87498231764667778 -0.48415487584619887 0 -0.48415487584619887 -0.87498231764667778 -0 1.5
1 -1.1374770129406899 0.62940133860006298 0 -0.61870593022628007 0.34234919585537404 -0.70710678118655612 
2 0 0 -30 0 0 -1 0.87498231764667778 -0.48415487584619887 0 -0.48415487584619887 -0.87498231764667778 -0 1.3
1 -1.3124734764700201 0.72623231376929898 -29.800000000000001 -0.61870593022629083 0.34234919585537993 0.7071067811865438 
2 0 0 -29.800000000000001 0 0 1 0.87498231764667778 -0.48415487584619887 0 0.48415487584619887 0.87498231764667778 -0 1.5
1 1.3124734764700201 -0.72623231376929898 -29.800000000000001 0.61870593022629083 -0.34234919585537993 0.7071067811865438 
1 1.3124734764700201 -0.72623231376929898 0 -0 0 -1 
1 -1.3124734764700201 0.72623231376929898 0 -0 0 -1 
2 0 0 -0.19999999999999599 0 0 -1 0.87498231764667778 -0.48415487584619887 0 -0.48415487584619887 -0.87498231764667778 -0 1.5
2 0 0 -29.800000000000001 0 0 1 0.87498231764667778 -0.48415487584619887 0 0.48415487584619887 0.87498231764667778 -0 1.5
2 0 0 0 0 0 1 0.87498231764667778 -0.48415487584619887 0 0.48415487584619887 0.87498231764667778 -0 1.30000000000001
2 0 0 -30 0 0 -1 0.87498231764667778 -0.48415487584619887 0 -0.48415487584619887 -0.87498231764667778 -0 1.3
Polygon3D 0
PolygonOnTriangulations 0
Surfaces 94
2 -8.9999999999999893 -4.4999999999999902 -6.0000000000000204 -2.0920442784627401e-30 1 9.7962628641060595e-16 2.1355534324503301e-15 9.7962628641060595e-16 -1 -1 -3.5032461608120427e-46 -2.1355534324503301e-15 2.1499999999999999
2 -8.9999999999999893 -4.4999999999999902 -6.0000000000000204 -2.0920442784627401e-30 1 9.7962628641060595e-16 2.1355534324503301e-15 9.7962628641060595e-16 -1 -1 -3.5032461608120427e-46 -2.1355534324503301e-15 2.1499999999999999
3 -8.9999999999999893 -0.999999999999994 -6.0000000000000204 -2.0920442784627401e-30 1 9.7962628641060595e-16 2.1355534324503301e-15 9.7962628641060595e-16 -1 -1 -3.5032461608120427e-46 -2.1355534324503301e-15 4.2000000000000002
0.78539816339744895
1 -4.2999999999999998 -4.5 -1.06581410364015e-14 2.0920442784627401e-30 -1 -9.7962628641060595e-16 0 9.7962628641060595e-16 -1 1 2.0920442784627401e-30 2.0494215675170098e-45 
2 -8.9999999999999503 -4.4999999999999796 -24 -2.0920442784627401e-30 1 9.7962628641060595e-16 2.1355534324503301e-15 9.7962628641060595e-16 -1 -1 -3.5032461608120427e-46 -2.1355534324503301e-15 2.1499999999999999
2 -8.9999999999999503 -4.4999999999999796 -24 -2.0920442784627401e-30 1 9.7962628641060595e-16 2.1355534324503301e-15 9.7962628641060595e-16 -1 -1 -3.5032461608120427e-46 -2.1355534324503301e-15 2.1499999999999999
3 -8.9999999999999503 -0.99999999999997602 -24 -2.0920442784627401e-30 1 9.7962628641060595e-16 2.1355534324503301e-15 9.7962628641060595e-16 -1 -1 -3.5032461608120427e-46 -2.1355534324503301e-15 4.2000000000000002
0.78539816339744895
3 -8.9999999999999893 -0.999999999999994 -6.0000000000000204 -2.0920442784627401e-30 1 9.7962628641060595e-16 2.1355534324503301e-15 9.7962628641060595e-16 -1 -1 -3.5032461608120427e-46 -2.1355534324503301e-15 4.2000000000000002
0.78539816339744895
2 -8.9999999999999893 -0.999999999999994 -6.0000000000000204 -2.0920442784627401e-30 1 9.7962628641060595e-16 2.1355534324503301e-15 9.7962628641060595e-16 -1 -1 -3.5032461608120427e-46 -2.1355534324503301e-15 4.2000000000000002
3 -8.9999999999999503 -0.99999999999997602 -24 -2.0920442784627401e-30 1 9.7962628641060595e-16 2.1355534324503301e-15 9.7962628641060595e-16 -1 -1 -3.5032461608120427e-46 -2.1355534324503301e-15 4.2000000000000002
0.78539816339744895
2 -8.9999999999999503 -0.99999999999997602 -24 -2.0920442784627401e-30 1 9.7962628641060595e-16 2.1355534324503301e-15 9.7962628641060595e-16 -1 -1 -3.5032461608120427e-46 -2.1355534324503301e-15 4.2000000000000002
2 -8.9999999999999893 -0.999999999999994 -6.0000000000000204 -2.0920442784627401e-30 1 9.7962628641060595e-16 2.1355534324503301e-15 9.7962628641060595e-16 -1 -1 -3.5032461608120427e-46 -2.1355534324503301e-15 4.2000000000000002
1 -4 -0.5 -7.1054273576010003e-15 -2.0920442784627401e-30 1 9.7962628641060595e-16 0 9.7962628641060595e-16 -1 -1 -2.0920442784627401e-30 -2.0494215675170098e-45 
2 -8.9999999999999503 -0.99999999999997602 -24 -2.0920442784627401e-30 1 9.7962628641060595e-16 2.1355534324503301e-15 9.7962628641060595e-16 -1 -1 -3.5032461608120427e-46 -2.1355534324503301e-15 4.2000000000000002
2 -2.52435489670724e-29 -6.3108872417680902e-30 3.5527136788005001e-15 2.1355534324503301e-15 9.7962628641060595e-16 -1 -1 3.5032461608120427e-46 -2.1355534324503301e-15 -2.0920442784627394e-30 1 9.7962628641060595e-16 1.5
2 -2.52435489670724e-29 -6.3108872417680902e-30 3.5527136788005001e-15 2.1355534324503301e-15 9.7962628641060595e-16 -1 -1 3.5032461608120427e-46 -2.1355534324503301e-15 -2.0920442784627394e-30 1 9.7962628641060595e-16 1.5
1 6.4066602973509796e-14 2.9388788592318197e-14 -30 2.1355534324503301e-15 9.7962628641060595e-16 -1 0 -1 -9.7962628641060595e-16 -1 2.0920442784627398e-30 -2.1355534324503301e-15 
1 15.500000000000099 -10.5 -22.550000000000001 2.1355534324503301e-15 9.7962628641060595e-16 -1 0 -1 -9.7962628641060595e-16 -1 2.0920442784627398e-30 -2.1355534324503301e-15 
2 -2.52435489670724e-29 -6.3108872417680902e-30 3.5527136788005001e-15 2.1355534324503301e-15 9.7962628641060595e-16 -1 -1 3.5032461608120427e-46 -2.1355534324503301e-15 -2.0920442784627394e-30 1 9.7962628641060595e-16 1.5
2 -2.52435489670724e-29 -6.3108872417680902e-30 3.5527136788005001e-15 2.1355534324503301e-15 9.7962628641060595e-16 -1 -1 3.5032461608120427e-46 -2.1355534324503301e-15 -2.0920442784627394e-30 1 9.7962628641060595e-16 1.5
1 -4.49999999999996 -10.5 -15 -2.2222896062491701e-15 -9.7962628641060595e-16 1 1 0 2.2222896062491701e-15 -2.1770133142987622e-30 1 9.7962628641060595e-16 
1 15.5 -10.5 -7.5499999999999803 2.1355534324503301e-15 9.7962628641060595e-16 -1 0 -1 -9.7962628641060595e-16 -1 2.0920442784627398e-30 -2.1355534324503301e-15 
1 4 0.99999999999999301 1.4210854715202001e-14 0.70710678118654902 0.70710678118654602 2.2027647038213699e-15 3.944304526105059e-31 3.1151797188609412e-15 -1 -0.70710678118654602 0.70710678118654902 2.2027647038213786e-15 
1 4 -6.3108872417680902e-30 1.06581410364015e-14 1 -4.24221214785833e-47 2.1355534324503301e-15 -2.1355534324503301e-15 0 1 -4.24221214785833e-47 -1 -9.0594707135413446e-62 
1 2 3 1.06581410364015e-14 -2.0920442784627401e-30 1 9.7962628641060595e-16 0 9.7962628641060595e-16 -1 -1 -2.0920442784627401e-30 -2.0494215675170098e-45 
1 -4 0.99999999999999301 -3.5527136788005001e-15 -0.70710678118654902 0.70710678118654602 -8.1736392352230301e-16 -1.1559271460397218e-15 1.873544649899903e-30 1 0.70710678118654602 0.70710678118654902 8.1736392352229689e-16 
1 -4 0.99999999999999301 -3.5527136788005001e-15 -1 0 -2.1355534324503301e-15 -2.1355534324503301e-15 0 1 0 1 0 
1 -4.2999999999999998 -4.5 -1.06581410364015e-14 1 -4.24221214785833e-47 2.1355534324503301e-15 -2.1355534324503301e-15 0 1 -4.24221214785833e-47 -1 -9.0594707135413446e-62 
1 -1.26217744835362e-29 -4 0 2.0920442784627401e-30 -1 -9.7962628641060595e-16 0 9.7962628641060595e-16 -1 1 2.0920442784627401e-30 2.0494215675170098e-45 
2 -2.52435489670724e-29 -6.3108872417680902e-30 3.5527136788005001e-15 2.1355534324503301e-15 9.7962628641060595e-16 -1 -1 3.5032461608120427e-46 -2.1355534324503301e-15 -2.0920442784627394e-30 1 9.7962628641060595e-16 4
1 4 0.99999999999999301 1.4210854715202001e-14 0.70710678118654902 0.70710678118654602 2.2027647038213699e-15 3.944304526105059e-31 3.1151797188609412e-15 -1 -0.70710678118654602 0.70710678118654902 2.2027647038213786e-15 
1 4 -6.3108872417680902e-30 1.06581410364015e-14 1 -4.24221214785833e-47 2.1355534324503301e-15 -2.1355534324503301e-15 0 1 -4.24221214785833e-47 -1 -9.0594707135413446e-62 
1 2 3 1.06581410364015e-14 -2.0920442784627401e-30 1 9.7962628641060595e-16 0 9.7962628641060595e-16 -1 -1 -2.0920442784627401e-30 -2.0494215675170098e-45 
1 -4 0.99999999999999301 -3.5527136788005001e-15 -0.70710678118654902 0.70710678118654602 -8.1736392352230301e-16 -1.1559271460397218e-15 1.873544649899903e-30 1 0.70710678118654602 0.70710678118654902 8.1736392352229689e-16 
1 -4 0.99999999999999301 -3.5527136788005001e-15 -1 0 -2.1355534324503301e-15 -2.1355534324503301e-15 0 1 0 1 0 
1 -4.4999999999999796 -10.5 -7.5500000000000203 -1 -1.27453553754034e-31 -2.00544917175207e-15 -2.00544917175207e-15 0 1 -1.27453553754034e-31 1 -2.5560162381288542e-46 
1 -4.4999999999999503 -10.5 -22.550000000000001 -1 -2.25083538638471e-31 -1.9057887336454501e-15 -1.9057887336454501e-15 0 1 -2.25083538638471e-31 1 -4.2896167206624837e-46 
1 -14.199999999999999 -0.5 -2.8421709430404001e-14 -0.70710678118654902 0.70710678118654602 -8.1736392352230202e-16 -1.155927146039721e-15 1.2818989709841442e-30 1 0.70710678118654602 0.70710678118654902 8.173639235222967e-16 
1 -2.52435489670724e-29 -6.3108872417680902e-30 3.5527136788005001e-15 2.1355534324503301e-15 9.7962628641060595e-16 -1 0 -1 -9.7962628641060595e-16 -1 2.0920442784627398e-30 -2.1355534324503301e-15 
1 -15 -4.5 -3.1974423109204502e-14 -1 -5.4210108624275202e-16 -2.1355534324503301e-15 -2.1355534324503301e-15 0 1 -5.4210108624275202e-16 1 -1.1576858354607614e-30 
1 -4.2999999999999998 -4.5 -1.06581410364015e-14 1 -4.24221214785833e-47 2.1355534324503301e-15 -2.1355534324503301e-15 0 1 -4.24221214785833e-47 -1 -9.0594707135413446e-62 
1 -1.26217744835362e-29 -4 0 2.0920442784627401e-30 -1 -9.7962628641060595e-16 0 9.7962628641060595e-16 -1 1 2.0920442784627401e-30 2.0494215675170098e-45 
2 -2.52435489670724e-29 -6.3108872417680902e-30 3.5527136788005001e-15 2.1355534324503301e-15 9.7962628641060595e-16 -1 -1 3.5032461608120427e-46 -2.1355534324503301e-15 -2.0920442784627394e-30 1 9.7962628641060595e-16 4
2 9 -4.5 -24 0 1 -0 0 0 1 1 -0 0 2.1499999999999999
2 9 -4.5 -24 0 1 -0 0 0 1 1 -0 0 2.1499999999999999
3 9 -1 -24 -0 1 -0 0 0 1 1 0 -0 4.2000000000000002
0.78539816339744895
1 4.2999999999999998 -4.5 -30 0 -1 0 0 0 -1 1 0 0 
2 9 -4.5 -6 0 1 -0 0 0 1 1 -0 0 2.1499999999999999
2 9 -4.5 -6 0 1 -0 0 0 1 1 -0 0 2.1499999999999999
3 9 -1 -6 -0 1 -0 0 0 1 1 0 -0 4.2000000000000002
0.78539816339744895
3 9 -1 -24 -0 1 -0 0 0 1 1 0 -0 4.2000000000000002
0.78539816339744895
2 9 -1 -24 0 1 -0 0 0 1 1 -0 0 4.2000000000000002
3 9 -1 -6 -0 1 -0 0 0 1 1 0 -0 4.2000000000000002
0.78539816339744895
2 9 -1 -6 0 1 -0 0 0 1 1 -0 0 4.2000000000000002
2 9 -1 -24 0 1 -0 0 0 1 1 -0 0 4.2000000000000002
1 4 -0.5 -30 -0 1 0 1 0 0 0 0 -1 
2 9 -1 -6 0 1 -0 0 0 1 1 -0 0 4.2000000000000002
2 0 0 -30 -0 0 1 1 0 0 0 1 -0 1.5
2 0 0 -30 -0 0 1 1 0 0 0 1 -0 1.5
1 0 0 0 0 0 1 1 0 -0 -0 1 0 
1 -15.5 -10.5 -7.4500000000000002 5.2202435743988202e-48 3.0092655381050599e-32 1 0 -1 3.0092655381050599e-32 1 -1.5709099088952746e-79 -5.2202435743988202e-48 
2 0 0 -30 -0 0 1 1 0 0 0 1 -0 1.5
2 0 0 -30 -0 0 1 1 0 0 0 1 -0 1.5
1 4.4999999999999902 -10.5 -15 8.6736173798840305e-17 0 -1 0 -1 0 -1 -0 -8.6736173798840305e-17 
1 -15.5 -10.5 -22.449999999999999 5.2202435743988202e-48 3.0092655381050599e-32 1 0 -1 3.0092655381050599e-32 1 -1.5709099088952746e-79 -5.2202435743988202e-48 
1 -4 0.99999999999999301 -30 -0.70710678118654902 0.70710678118654602 0 0 0 1 0.70710678118654602 0.70710678118654902 -0 
1 -4 0 -30 -1 0 0 0 0 1 0 1 -0 
1 -2 3 -30 -0 1 0 1 0 0 0 0 -1 
1 4 0.99999999999999301 -30 0.70710678118654902 0.70710678118654602 0 0 0 -1 -0.70710678118654602 0.70710678118654902 0 
1 4 0.99999999999999301 -30 1 -0 0 0 1 0 -0 0 1 
1 4.2999999999999998 -4.5 -30 -1 0 0 0 0 1 0 1 -0 
1 0 -4 -30 0 -1 0 0 0 -1 1 0 0 
2 0 0 -30 -0 0 1 1 0 0 0 1 -0 4
1 -4 0.99999999999999301 -30 -0.70710678118654902 0.70710678118654602 0 0 0 1 0.70710678118654602 0.70710678118654902 -0 
1 -4 0 -30 -1 0 0 0 0 1 0 1 -0 
1 -2 3 -30 -0 1 0 1 0 0 0 0 -1 
1 4 0.99999999999999301 -30 0.70710678118654902 0.70710678118654602 0 0 0 -1 -0.70710678118654602 0.70710678118654902 0 
1 4 0.99999999999999301 -30 1 -0 0 0 1 0 -0 0 1 
1 4.4999999999999902 -10.5 -22.449999999999999 1 0 -1.30104260698261e-16 -1.30104260698261e-16 0 -1 0 1 0 
1 4.5 -10.5 -7.4500000000000002 1 0 -2.2976469880487499e-16 -2.2976469880487499e-16 0 -1 0 1 0 
1 14.199999999999999 -0.5 -30 0.70710678118654902 0.70710678118654602 0 0 0 -1 -0.70710678118654602 0.70710678118654902 0 
1 0 0 -30 0 0 1 1 0 -0 -0 1 0 
1 15 -4.5 -30 1 -5.4210108624275202e-16 0 -5.4210108624275202e-16 -1 0 0 -0 -1 
1 4.2999999999999998 -4.5 -30 -1 0 0 0 0 1 0 1 -0 
1 0 -4 -30 0 -1 0 0 0 -1 1 0 0 
2 0 0 -30 -0 0 1 1 0 0 0 1 -0 4
3 0 0 0 -0 -0 -1 -0.87498231764667778 0.48415487584619887 0 0.48415487584619887 0.87498231764667778 -0 1.30000000000001
0.78539816339743695
1 0 0 0 0 0 1 1 0 -0 -0 1 0 
3 0 0 0 -0 -0 -1 -0.87498231764667778 0.48415487584619887 0 0.48415487584619887 0.87498231764667778 -0 1.30000000000001
0.78539816339743695
2 0 0 0 0 0 -1 -0.87498231764667778 0.48415487584619887 0 0.48415487584619887 0.87498231764667778 0 1.5
3 0 0 -29.800000000000001 -0 -0 1 0.87498231764667778 -0.48415487584619887 0 0.48415487584619887 0.87498231764667778 0 1.5
0.78539816339745405
1 0 0 -30 0 0 1 1 0 -0 -0 1 0 
3 0 0 -29.800000000000001 -0 -0 1 0.87498231764667778 -0.48415487584619887 0 0.48415487584619887 0.87498231764667778 0 1.5
0.78539816339745405
2 0 0 0 0 0 -1 -0.87498231764667778 0.48415487584619887 0 0.48415487584619887 0.87498231764667778 0 1.5
Triangulations 0

TShapes 611
Ve
1e-07
-8.99999999999998 -4.49999999999999 -8.15000000000002
0 0

0101101
*
Ve
1e-07
-8.99999999999998 -3.04999999999999 -8.15000000000002
0 0

0101101
*
Ed
 1e-07 1 1 0
1  1 0 0 1.45
2  1 1 0 0 1.45
2  2 2 0 0 1.45
4 CN 1 0 2 0
0

0101000
+611 0 -610 0 *
Ve
1e-07
-8.99999999999999 -3.05 -3.85000000000002
0 0

0101101
*
Ed
 1e-07 1 1 0
1  2 0 0 3.14159265358979
2  3 1 0 0 3.14159265358979
2  4 3 0 0 3.14159265358979
4 C0 1 0 3 0
0

0101000
+610 0 -608 0 *
Ve
1e-07
-8.99999999999999 -4.5 -3.85000000000002
0 0

0101101
*
Ed
 1e-07 1 1 0
1  3 0 0 1.45
2  5 1 0 0 1.45
2  6 2 0 0 1.45
4 CN 1 0 2 0
0

0101000
+606 0 -608 0 *
Ed
 1e-07 1 1 0
1  4 0 0 3.14159265358979
2  7 1 0 0 3.14159265358979
4 C0 1 0 4 0
0

0101000
+606 0 -611 0 *
Wi

0101100
+609 0 +607 0 -605 0 +604 0 *
Fa
0  1e-07 1 0

0111000
+603 0 *
Ve
1e-07
-8.99999999999995 -4.49999999999997 -26.15
0 0

0101101
*
Ve
1e-07
-8.99999999999995 -3.04999999999997 -26.15
0 0

0101101
*
Ed
 1e-07 1 1 0
1  5 0 0 1.45
2  8 5 0 0 1.45
2  9 6 0 0 1.45
4 CN 5 0 6 0
0

0101000
+601 0 -600 0 *
Ve
1e-07
-8.99999999999996 -3.04999999999997 -21.85
0 0

0101101
*
Ed
 1e-07 1 1 0
1  6 0 0 3.14159265358979
2  10 5 0 0 3.14159265358979
2  11 7 0 0 3.14159265358979
4 C0 5 0 7 0
0

0101000
+600 0 -598 0 *
Ve
1e-07
-8.99999999999996 -4.49999999999998 -21.85
0 0

0101101
*
Ed
 1e-07 1 1 0
1  7 0 0 1.45000000000001
2  12 5 0 0 1.45000000000001
2  13 6 0 0 1.45000000000001
4 CN 5 0 6 0
0

0101000
+596 0 -598 0 *
Ed
 1e-07 1 1 0
1  8 0 3.14159265358979 6.28318530717959
2  14 5 0 3.14159265358979 6.28318530717959
4 C0 5 0 4 0
0

0101000
+596 0 -601 0 *
Wi

0101100
+599 0 +597 0 -595 0 +594 0 *
Fa
0  1e-07 5 0

0111000
+593 0 *
Ve
1e-07
-8.99999999999998 -0.999999999999989 -10.2
0 0

0101101
*
Ed
 1e-07 1 1 0
1  9 0 -2.89913780286483 0
2  15 3 0 -2.89913780286483 0
2  16 8 0 -2.89913780286483 0
4 CN 3 0 8 0
0

0101000
+610 0 -591 0 *
Ve
1e-07
-9 -0.999999999999998 -1.80000000000001
0 0

0101101
*
Ed
 1e-07 1 1 0
1  10 0 3.14159265358979 6.28318530717959
2  17 3 0 3.14159265358979 6.28318530717959
2  18 9 0 3.14159265358979 6.28318530717959
4 C0 3 0 9 0
0

0101000
+589 0 -591 0 *
Ed
 1e-07 1 1 0
1  11 0 -2.89913780286485 0
2  19 3 0 -2.89913780286485 0
2  20 8 0 -2.89913780286485 0
4 CN 3 0 8 0
0

0101000
+608 0 -589 0 *
Wi

0101100
+590 0 -588 0 -587 0 -607 0 *
Fa
0  1e-07 3 0

0111000
+586 0 *
Ve
1e-07
-8.99999999999994 -0.999999999999972 -28.2
0 0

0101101
*
Ed
 1e-07 1 1 0
1  12 0 -2.89913780286484 0
2  21 7 0 -2.89913780286484 0
2  22 10 0 -2.89913780286484 0
4 CN 7 0 10 0
0

0101000
+600 0 -584 0 *
Ve
1e-07
-8.99999999999996 -0.99999999999998 -19.8
0 0

0101101
*
Ed
 1e-07 1 1 0
1  13 0 3.14159265358979 6.28318530717959
2  23 7 0 3.14159265358979 6.28318530717959
2  24 11 0 3.14159265358979 6.28318530717959
4 C0 7 0 11 0
0

0101000
+582 0 -584 0 *
Ed
 1e-07 1 1 0
1  14 0 -2.89913780286484 0
2  25 7 0 -2.89913780286484 0
2  26 10 0 -2.89913780286484 0
4 CN 7 0 10 0
0

0101000
+598 0 -582 0 *
Wi

0101100
+583 0 -581 0 -580 0 -597 0 *
Fa
0  1e-07 7 0

0111000
+579 0 *
Ve
1e-07
-8.99999999999998 -0.49999999999999 -10.2
0 0

0101101
*
Ed
 1e-07 1 1 0
1  15 0 0 0.499999999999999
2  27 9 0 0 0.499999999999999
2  28 12 0 0 0.499999999999999
4 CN 9 0 12 0
0

0101000
+591 0 -577 0 *
Ve
1e-07
-9 -0.499999999999998 -1.80000000000001
0 0

0101101
*
Ed
 1e-07 1 1 0
1  16 0 0 3.14159265358979
2  29 9 0 0 3.14159265358979
4 C0 9 0 13 0
0

0101000
+575 0 -577 0 *
Ed
 1e-07 1 1 0
1  17 0 0 0.5
2  30 9 0 0 0.5
2  31 12 0 0 0.5
4 CN 9 0 12 0
0

0101000
+589 0 -575 0 *
Wi

0101100
+576 0 -574 0 -573 0 +588 0 *
Fa
0  1e-07 9 0

0111000
+572 0 *
Ve
1e-07
-8.99999999999994 -0.499999999999972 -28.2
0 0

0101101
*
Ed
 1e-07 1 1 0
1  18 0 0 0.5
2  32 11 0 0 0.5
2  33 14 0 0 0.5
4 CN 11 0 14 0
0

0101000
+584 0 -570 0 *
Ve
1e-07
-8.99999999999996 -0.49999999999998 -19.8
0 0

0101101
*
Ed
 1e-07 1 1 0
1  19 0 3.14159265358979 6.28318530717959
2  34 11 0 3.14159265358979 6.28318530717959
4 C0 11 0 13 0
0

0101000
+568 0 -570 0 *
Ed
 1e-07 1 1 0
1  20 0 0 0.5
2  35 11 0 0 0.5
2  36 14 0 0 0.5
4 CN 11 0 14 0
0

0101000
+582 0 -568 0 *
Wi

0101100
+569 0 -567 0 -566 0 +581 0 *
Fa
0  1e-07 11 0

0111000
+565 0 *
Ve
1e-07
-1.49999999999995 2.20905727585592e-14 -22.55
0 0

0101101
*
Ve
1e-07
-1.49999999999994 2.93887885923182e-14 -30
0 0

0101101
*
Ed
 1e-07 1 1 0
1  21 0 22.55 30
2  37 15 0 22.55 30
2  38 16 0 22.55 30
4 CN 15 0 16 0
0

0101000
+563 0 -562 0 *
Ve
1e-07
1.50000000000006 2.95724856121903e-14 -30
0 0

0101101
*
Ed
 1e-07 1 1 0
1  22 0 3.14159265358979 6.28318530717959
2  39 15 0 3.14159265358979 6.28318530717959
4 C0 15 0 17 0
0

0101000
+560 0 -562 0 *
Ve
1e-07
1.50000000000005 2.22742697784313e-14 -22.55
0 0

0101101
*
Ed
 1e-07 1 1 0
1  23 0 22.55 30
2  40 15 0 22.55 30
2  41 16 0 22.55 30
4 CN 15 0 16 0
0

0101000
+558 0 -560 0 *
Ed
 1e-07 1 1 0
1  24 0 0 3.14159265358979
2  42 15 0 0 3.14159265358979
4 C0 15 0 18 0
0

0101000
+563 0 -558 0 *
Wi

0101100
+561 0 -559 0 -557 0 -556 0 *
Fa
0  1e-07 15 0

0111000
+555 0 *
Ve
1e-07
-1.49999999999998 7.39617846240007e-15 -7.55
0 0

0101101
*
Ve
1e-07
-1.49999999999997 1.46943942961591e-14 -15
0 0

0101101
*
Ed
 1e-07 1 1 0
1  25 0 7.55 15
2  43 19 0 7.55 15
2  44 20 0 7.55 15
4 CN 19 0 20 0
0

0101000
+553 0 -552 0 *
Ve
1e-07
1.50000000000003 1.48780913160312e-14 -15
0 0

0101101
*
Ed
 1e-07 1 1 0
1  26 0 0 3.14159265358979
2  45 19 0 0 3.14159265358979
4 C0 19 0 21 0
0

0101000
+550 0 -552 0 *
Ve
1e-07
1.50000000000002 7.57987548227218e-15 -7.54999999999999
0 0

0101101
*
Ed
 1e-07 1 1 0
1  27 0 7.55 15
2  46 19 0 7.55 15
2  47 20 0 7.55 15
4 CN 19 0 20 0
0

0101000
+548 0 -550 0 *
Ed
 1e-07 1 1 0
1  28 0 0 3.14159265358979
2  48 19 0 0 3.14159265358979
4 C0 19 0 22 0
0

0101000
+553 0 -548 0 *
Wi

0101100
+551 0 -549 0 -547 0 -546 0 *
Fa
0  1e-07 19 0

0111000
+545 0 *
Ve
1e-07
4.00000000000002 1 -7.54999999999999
0 0

0101101
*
Ve
1e-07
2.00000000000002 3.00000000000001 -7.54999999999999
0 0

0101101
*
Ed
 1e-07 1 1 0
1  29 0 0 2.8284271247462
4 C0 23 0 22 0
0

0101000
+543 0 -542 0 *
Ve
1e-07
4.00000000000003 1.00000000000001 -15
0 0

0101101
*
Ed
 1e-07 1 1 0
1  30 0 7.55 15
4 C0 23 0 24 0
0

0101000
+543 0 -540 0 *
Ve
1e-07
2.00000000000003 3.00000000000001 -15
0 0

0101101
*
Ed
 1e-07 1 1 0
1  31 0 -2.82842712474619 0
4 C0 23 0 21 0
0

0101000
+538 0 -540 0 *
Ed
 1e-07 1 1 0
1  32 0 7.55 15
4 C0 23 0 25 0
0

0101000
+542 0 -538 0 *
Wi

0101100
-541 0 +539 0 -537 0 -536 0 *
Fa
0  1e-07 23 0

0111000
+535 0 *
Ve
1e-07
-1.99999999999998 3.00000000000001 -7.55
0 0

0101101
*
Ed
 1e-07 1 1 0
1  33 0 -0 4
4 C0 25 0 22 0
0

0101000
+542 0 -533 0 *
Ve
1e-07
-1.99999999999997 3.00000000000001 -15
0 0

0101101
*
Ed
 1e-07 1 1 0
1  34 0 -4 0
4 C0 25 0 21 0
0

0101000
+531 0 -538 0 *
Ed
 1e-07 1 1 0
1  35 0 7.55 15
4 C0 25 0 26 0
0

0101000
+533 0 -531 0 *
Wi

0101100
-532 0 +536 0 -530 0 -529 0 *
Fa
0  1e-07 25 0

0111000
+528 0 *
Ve
1e-07
-3.99999999999998 1 -7.55
0 0

0101101
*
Ed
 1e-07 1 1 0
1  36 0 -2.8284271247462 -0
4 C0 26 0 22 0
0

0101000
+533 0 -526 0 *
Ve
1e-07
-3.99999999999997 1.00000000000001 -15
0 0

0101101
*
Ed
 1e-07 1 1 0
1  37 0 0 2.82842712474619
4 C0 26 0 21 0
0

0101000
+524 0 -531 0 *
Ed
 1e-07 1 1 0
1  38 0 7.55 15
4 C0 26 0 27 0
0

0101000
+526 0 -524 0 *
Wi

0101100
-525 0 +529 0 -523 0 -522 0 *
Fa
0  1e-07 26 0

0111000
+521 0 *
Ve
1e-07
-3.99999999999998 -0.499999999999992 -7.55000000000001
0 0

0101101
*
Ed
 1e-07 1 1 0
1  39 0 0 1.49999999999999
4 C0 27 0 22 0
0

0101000
+526 0 -519 0 *
Ve
1e-07
-3.99999999999997 -0.499999999999985 -15
0 0

0101101
*
Ed
 1e-07 1 1 0
1  40 0 -1.5 0
4 C0 27 0 21 0
0

0101000
+517 0 -524 0 *
Ed
 1e-07 1 1 0
1  41 0 7.55 15
4 C0 27 0 13 0
0

0101000
+519 0 -517 0 *
Wi

0101100
-518 0 +522 0 -516 0 -515 0 *
Fa
0  1e-07 27 0

0111000
+514 0 *
Ve
1e-07
-4.29999999999998 -4.49999999999999 -7.55000000000001
0 0

0101101
*
Ve
1e-07
-4.29999999999998 -3.99999999999999 -7.55000000000001
0 0

0101101
*
Ed
 1e-07 1 1 0
1  42 0 0 0.5
4 C0 28 0 22 0
0

0101000
+512 0 -511 0 *
Ve
1e-07
-4.29999999999996 -4.49999999999999 -15
0 0

0101101
*
Ed
 1e-07 1 1 0
1  43 0 7.55 15
4 C0 28 0 4 0
0

0101000
+512 0 -509 0 *
Ve
1e-07
-4.29999999999996 -3.99999999999999 -15
0 0

0101101
*
Ed
 1e-07 1 1 0
1  44 0 -0.5 0
4 C0 28 0 21 0
0

0101000
+507 0 -509 0 *
Ed
 1e-07 1 1 0
1  45 0 7.55 15
4 C0 28 0 29 0
0

0101000
+511 0 -507 0 *
Wi

0101100
-510 0 +508 0 -506 0 -505 0 *
Fa
0  1e-07 28 0

0111000
+504 0 *
Ve
1e-07
1.61234302678845e-14 -3.99999999999999 -7.55
0 0

0101101
*
Ed
 1e-07 1 1 0
1  46 0 -4.3 1.309718077247e-15
4 C0 29 0 22 0
0

0101000
+511 0 -502 0 *
Ve
1e-07
3.20333014867549e-14 -3.99999999999999 -15
0 0

0101101
*
Ed
 1e-07 1 1 0
1  47 0 1.3010426069826e-15 4.29999999999999
4 C0 29 0 21 0
0

0101000
+500 0 -507 0 *
Ed
 1e-07 1 1 0
1  48 0 7.55 15
2  49 30 0 7.55 15
4 G1 29 0 30 0
0

0101000
+502 0 -500 0 *
Wi

0101100
-501 0 +505 0 -499 0 -498 0 *
Fa
0  1e-07 29 0

0111000
+497 0 *
Ve
1e-07
4.00000000000002 7.88603718205901e-15 -7.54999999999999
0 0

0101101
*
Ed
 1e-07 1 1 0
1  49 0 1.5707963267949 3.14159265358979
2  50 30 0 1.5707963267949 3.14159265358979
4 C0 30 0 22 0
0

0101000
+502 0 -495 0 *
Ve
1e-07
4.00000000000003 1.5184250654913e-14 -15
0 0

0101101
*
Ed
 1e-07 1 1 0
1  50 0 0 1.5707963267949
2  51 30 0 0 1.5707963267949
4 C0 30 0 21 0
0

0101000
+493 0 -500 0 *
Ed
 1e-07 1 1 0
1  51 0 7.55 15
2  52 30 0 7.55 15
4 G1 30 0 24 0
0

0101000
+495 0 -493 0 *
Wi

0101100
-494 0 +498 0 -492 0 -491 0 *
Fa
0  1e-07 30 0

0111000
+490 0 *
Ed
 1e-07 1 1 0
1  52 0 4.89858719658939e-16 0.999999999999993
4 C0 24 0 22 0
0

0101000
+495 0 -543 0 *
Ed
 1e-07 1 1 0
1  53 0 -0.999999999999995 -4.898563587539e-16
4 C0 24 0 21 0
0

0101000
+540 0 -493 0 *
Wi

0101100
-488 0 +491 0 -487 0 -539 0 *
Fa
0  1e-07 24 0

0111000
+486 0 *
Ed
 1e-07 1 1 0
1  54 0 3.14159265358979 6.28318530717959
2  53 20 0 3.14159265358979 6.28318530717959
4 C0 20 0 21 0
0

0101000
+552 0 -550 0 *
Ed
 1e-07 1 1 0
1  55 0 3.14159265358979 6.28318530717959
2  54 20 0 3.14159265358979 6.28318530717959
4 C0 20 0 22 0
0

0101000
+548 0 -553 0 *
Wi

0101100
-484 0 -551 0 -483 0 +547 0 *
Fa
0  1e-07 20 0

0111000
+482 0 *
Ve
1e-07
4.00000000000005 1.00000000000002 -22.55
0 0

0101101
*
Ve
1e-07
2.00000000000005 3.00000000000002 -22.55
0 0

0101101
*
Ed
 1e-07 1 1 0
1  56 0 0 2.82842712474619
4 C0 31 0 18 0
0

0101000
+480 0 -479 0 *
Ve
1e-07
4.00000000000006 1.00000000000002 -30
0 0

0101101
*
Ed
 1e-07 1 1 0
1  57 0 22.55 30
4 C0 31 0 32 0
0

0101000
+480 0 -477 0 *
Ve
1e-07
2.00000000000006 3.00000000000003 -30
0 0

0101101
*
Ed
 1e-07 1 1 0
1  58 0 -2.8284271247462 0
4 C0 31 0 17 0
0

0101000
+475 0 -477 0 *
Ed
 1e-07 1 1 0
1  59 0 22.55 30
4 C0 31 0 33 0
0

0101000
+479 0 -475 0 *
Wi

0101100
-478 0 +476 0 -474 0 -473 0 *
Fa
0  1e-07 31 0

0111000
+472 0 *
Ve
1e-07
-1.99999999999995 3.00000000000002 -22.55
0 0

0101101
*
Ed
 1e-07 1 1 0
1  60 0 -1.02140518265514e-14 3.99999999999999
4 C0 33 0 18 0
0

0101000
+479 0 -470 0 *
Ve
1e-07
-1.99999999999994 3.00000000000003 -30
0 0

0101101
*
Ed
 1e-07 1 1 0
1  61 0 -4 0
4 C0 33 0 17 0
0

0101000
+468 0 -475 0 *
Ed
 1e-07 1 1 0
1  62 0 22.55 30
4 C0 33 0 34 0
0

0101000
+470 0 -468 0 *
Wi

0101100
-469 0 +473 0 -467 0 -466 0 *
Fa
0  1e-07 33 0

0111000
+465 0 *
Ve
1e-07
-3.99999999999995 1.00000000000002 -22.55
0 0

0101101
*
Ed
 1e-07 1 1 0
1  63 0 -2.8284271247462 -7.065416064077e-15
4 C0 34 0 18 0
0

0101000
+470 0 -463 0 *
Ve
1e-07
-3.99999999999994 1.00000000000002 -30
0 0

0101101
*
Ed
 1e-07 1 1 0
1  64 0 0 2.8284271247462
4 C0 34 0 17 0
0

0101000
+461 0 -468 0 *
Ed
 1e-07 1 1 0
1  65 0 22.55 30
4 C0 34 0 35 0
0

0101000
+463 0 -461 0 *
Wi

0101100
-462 0 +466 0 -460 0 -459 0 *
Fa
0  1e-07 34 0

0111000
+458 0 *
Ve
1e-07
-3.99999999999995 -0.499999999999978 -22.55
0 0

0101101
*
Ed
 1e-07 1 1 0
1  66 0 0 1.5
4 C0 35 0 18 0
0

0101000
+463 0 -456 0 *
Ve
1e-07
-3.99999999999994 -0.49999999999997 -30
0 0

0101101
*
Ed
 1e-07 1 1 0
1  67 0 -1.49999999999999 0
4 C0 35 0 17 0
0

0101000
+454 0 -461 0 *
Ed
 1e-07 1 1 0
1  68 0 22.55 30
4 C0 35 0 13 0
0

0101000
+456 0 -454 0 *
Wi

0101100
-455 0 +459 0 -453 0 -452 0 *
Fa
0  1e-07 35 0

0111000
+451 0 *
Ve
1e-07
-4.49999999999998 -0.499999999999993 -7.55000000000001
0 0

0101101
*
Ve
1e-07
-4.49999999999999 -0.5 -7.105427357601e-15
0 0

0101101
*
Ed
 1e-07 1 1 0
1  69 0 -7.55 0
4 C0 13 0 36 0
0

0101000
+449 0 -448 0 *
Ed
 1e-07 1 1 0
1  70 0 -9.76996261670138e-15 0.49999999999999
4 C0 13 0 22 0
0

0101000
+519 0 -449 0 *
Ve
1e-07
-4.49999999999996 -0.499999999999986 -15
0 0

0101101
*
Ed
 1e-07 1 1 0
1  71 0 -0.49999999999999 0
4 C0 13 0 21 0
0

0101000
+445 0 -517 0 *
Ve
1e-07
-4.49999999999995 -0.499999999999978 -22.55
0 0

0101101
*
Ed
 1e-07 1 1 0
1  72 0 -22.55 -15
4 C0 13 0 37 0
0

0101000
+443 0 -445 0 *
Ed
 1e-07 1 1 0
1  73 0 -1.02140518265514e-14 0.49999999999999
4 C0 13 0 18 0
0

0101000
+456 0 -443 0 *
Ve
1e-07
-14.1999999999999 -0.49999999999997 -30
0 0

0101101
*
Ed
 1e-07 1 1 0
1  74 0 -10.2 0
4 C0 13 0 17 0
0

0101000
+440 0 -454 0 *
Ve
1e-07
-14.2 -0.5 -2.8421709430404e-14
0 0

0101101
*
Ed
 1e-07 1 1 0
1  75 0 0 30
4 C0 13 0 38 0
0

0101000
+438 0 -440 0 *
Ed
 1e-07 1 1 0
1  76 0 -10.2 -0.49999999999999
4 C0 13 0 39 0
0

0101000
+438 0 -448 0 *
Wi

0101100
-447 0 -446 0 +515 0 -444 0 -442 0 -441 0 +452 0 -439 0 -437 0 +436 0 
*
Ed
 1e-07 1 1 0
1  77 0 3.14159265358979 6.28318530717959
2  55 12 0 3.14159265358979 6.28318530717959
4 C0 13 0 12 0
0

0101000
+577 0 -575 0 *
Wi

0101100
-434 0 -574 0 *
Ed
 1e-07 1 1 0
1  78 0 0 3.14159265358979
2  56 14 0 0 3.14159265358979
4 C0 13 0 14 0
0

0101000
+570 0 -568 0 *
Wi

0101100
-432 0 -567 0 *
Fa
0  1e-07 13 0

0111000
+435 0 +433 0 +431 0 *
Ve
1e-07
-14.9999999999999 -1.29999999999997 -30
0 0

0101101
*
Ed
 1e-07 1 1 0
1  79 0 -1.13137084989848 0
4 C0 38 0 17 0
0

0101000
+429 0 -440 0 *
Ve
1e-07
-15 -1.3 -2.8421709430404e-14
0 0

0101101
*
Ed
 1e-07 1 1 0
1  80 0 0 30
4 C0 38 0 40 0
0

0101000
+427 0 -429 0 *
Ed
 1e-07 1 1 0
1  81 0 -1.13137084989848 0
4 C0 38 0 39 0
0

0101000
+427 0 -438 0 *
Wi

0101100
-428 0 -426 0 +425 0 +437 0 *
Fa
0  1e-07 38 0

0111000
+424 0 *
Ve
1e-07
-14.9999999999999 -4.49999999999997 -30
0 0

0101101
*
Ed
 1e-07 1 1 0
1  82 0 0 3.2
4 C0 40 0 17 0
0

0101000
+422 0 -429 0 *
Ve
1e-07
-15 -4.5 -3.19744231092045e-14
0 0

0101101
*
Ed
 1e-07 1 1 0
1  83 0 0 30
4 C0 40 0 4 0
0

0101000
+420 0 -422 0 *
Ed
 1e-07 1 1 0
1  84 0 0 3.2
4 C0 40 0 39 0
0

0101000
+420 0 -427 0 *
Wi

0101100
-421 0 -419 0 +418 0 +426 0 *
Fa
0  1e-07 40 0

0111000
+417 0 *
Ve
1e-07
-4.49999999999999 -4.5 -1.06581410364015e-14
0 0

0101101
*
Ve
1e-07
-4.49999999999998 -4.49999999999999 -7.55000000000001
0 0

0101101
*
Ed
 1e-07 1 1 0
1  85 0 0 7.55
4 C0 4 0 36 0
0

0101000
+415 0 -414 0 *
Ed
 1e-07 1 1 0
1  86 0 0.19999999999999 10.7
4 C0 4 0 39 0
0

0101000
+415 0 -420 0 *
Ve
1e-07
-4.29999999999993 -4.49999999999997 -30
0 0

0101101
*
Ed
 1e-07 1 1 0
1  87 0 0 10.7
4 C0 4 0 17 0
0

0101000
+411 0 -422 0 *
Ve
1e-07
-4.29999999999995 -4.49999999999998 -22.55
0 0

0101101
*
Ed
 1e-07 1 1 0
1  88 0 22.55 30
4 C0 4 0 41 0
0

0101000
+409 0 -411 0 *
Ve
1e-07
-4.49999999999995 -4.49999999999998 -22.55
0 0

0101101
*
Ed
 1e-07 1 1 0
1  89 0 -0.2 0
4 C0 4 0 18 0
0

0101000
+407 0 -409 0 *
Ve
1e-07
-4.49999999999996 -4.49999999999999 -15
0 0

0101101
*
Ed
 1e-07 1 1 0
1  90 0 15 22.55
4 C0 4 0 37 0
0

0101000
+405 0 -407 0 *
Ed
 1e-07 1 1 0
1  91 0 0 0.2
4 C0 4 0 21 0
0

0101000
+509 0 -405 0 *
Ed
 1e-07 1 1 0
1  92 0 -0.199999999999999 0
4 C0 4 0 22 0
0

0101000
+414 0 -512 0 *
Wi

0101100
-413 0 +412 0 +419 0 -410 0 -408 0 -406 0 -404 0 -403 0 -508 0 -402 0 
*
Ed
 1e-07 1 1 0
1  93 0 3.14159265358979 6.28318530717959
2  57 2 0 3.14159265358979 6.28318530717959
4 C0 4 0 2 0
0

0101000
+611 0 -606 0 *
Wi

0101100
+400 0 +604 0 *
Ed
 1e-07 1 1 0
1  94 0 0 3.14159265358979
2  58 6 0 0 3.14159265358979
4 C0 4 0 6 0
0

0101000
+601 0 -596 0 *
Wi

0101100
+398 0 +594 0 *
Fa
0  1e-07 4 0

0111000
+401 0 +399 0 +397 0 *
Ve
1e-07
-4.29999999999995 -3.99999999999998 -22.55
0 0

0101101
*
Ed
 1e-07 1 1 0
1  95 0 0 0.5
4 C0 41 0 18 0
0

0101000
+409 0 -395 0 *
Ve
1e-07
-4.29999999999993 -3.99999999999997 -30
0 0

0101101
*
Ed
 1e-07 1 1 0
1  96 0 -0.5 0
4 C0 41 0 17 0
0

0101000
+393 0 -411 0 *
Ed
 1e-07 1 1 0
1  97 0 22.55 30
4 C0 41 0 42 0
0

0101000
+395 0 -393 0 *
Wi

0101100
-394 0 +408 0 -392 0 -391 0 *
Fa
0  1e-07 41 0

0111000
+390 0 *
Ve
1e-07
4.81567299017548e-14 -3.99999999999998 -22.55
0 0

0101101
*
Ed
 1e-07 1 1 0
1  98 0 -4.29999999999999 3.9118014383277e-15
4 C0 42 0 18 0
0

0101000
+395 0 -388 0 *
Ve
1e-07
6.40666029735098e-14 -3.99999999999997 -30
0 0

0101101
*
Ed
 1e-07 1 1 0
1  99 0 0 4.29999999999999
4 C0 42 0 17 0
0

0101000
+386 0 -393 0 *
Ed
 1e-07 1 1 0
1  100 0 22.55 30
2  59 43 0 22.55 30
4 G1 42 0 43 0
0

0101000
+388 0 -386 0 *
Wi

0101100
-387 0 +391 0 -385 0 -384 0 *
Fa
0  1e-07 42 0

0111000
+383 0 *
Ve
1e-07
4.00000000000005 2.25804314782181e-14 -22.55
0 0

0101101
*
Ed
 1e-07 1 1 0
1  101 0 1.5707963267949 3.14159265358979
2  60 43 0 1.5707963267949 3.14159265358979
4 C0 43 0 18 0
0

0101000
+388 0 -381 0 *
Ve
1e-07
4.00000000000006 2.98786473119771e-14 -30
0 0

0101101
*
Ed
 1e-07 1 1 0
1  102 0 3.14159265358979 4.71238898038469
2  61 43 0 3.14159265358979 4.71238898038469
4 C0 43 0 17 0
0

0101000
+379 0 -386 0 *
Ed
 1e-07 1 1 0
1  103 0 22.55 30
2  62 43 0 22.55 30
4 G1 43 0 32 0
0

0101000
+381 0 -379 0 *
Wi

0101100
-380 0 +384 0 -378 0 -377 0 *
Fa
0  1e-07 43 0

0111000
+376 0 *
Ed
 1e-07 1 1 0
1  104 0 4.898587196589e-16 0.999999999999998
4 C0 32 0 18 0
0

0101000
+381 0 -480 0 *
Ed
 1e-07 1 1 0
1  105 0 -0.999999999999991 -4.89858719658903e-16
4 C0 32 0 17 0
0

0101000
+477 0 -379 0 *
Wi

0101100
-374 0 +377 0 -373 0 -476 0 *
Fa
0  1e-07 32 0

0111000
+372 0 *
Ed
 1e-07 1 1 0
1  106 0 -4.5 -0.5
4 C0 39 0 36 0
0

0101000
+415 0 -448 0 *
Wi

0101100
-412 0 +370 0 -436 0 -425 0 -418 0 *
Fa
0  1e-07 39 0

0111000
-369 0 *
Wi

0101100
+474 0 +373 0 +378 0 +385 0 +392 0 +410 0 +421 0 +428 0 +439 0 +453 0 
+460 0 +467 0 *
Ed
 1e-07 1 1 0
1  107 0 0 3.14159265358979
2  63 16 0 0 3.14159265358979
4 C0 17 0 16 0
0

0101000
+562 0 -560 0 *
Wi

0101100
-366 0 -559 0 *
Fa
0  1e-07 17 0

0111000
+367 0 +365 0 *
Ed
 1e-07 1 1 0
1  108 0 3.14159265358979 6.28318530717959
2  64 16 0 3.14159265358979 6.28318530717959
4 C0 16 0 18 0
0

0101000
+558 0 -563 0 *
Wi

0101100
-366 0 -561 0 -363 0 +557 0 *
Fa
0  1e-07 16 0

0111000
+362 0 *
Ed
 1e-07 1 1 0
1  109 0 6.00000000000001 10
4 C0 21 0 37 0
0

0101000
+405 0 -445 0 *
Wi

0101100
+444 0 +516 0 +523 0 +530 0 +537 0 +487 0 +492 0 +499 0 +506 0 +403 0 
+360 0 *
Wi

0101100
-484 0 -549 0 *
Fa
0  1e-07 21 0

0111000
-359 0 -358 0 *
Ed
 1e-07 1 1 0
1  110 0 6.00000000000002 10
4 C0 18 0 37 0
0

0101000
+407 0 -443 0 *
Wi

0101100
+441 0 -356 0 +406 0 +394 0 +387 0 +380 0 +374 0 +478 0 +469 0 +462 0 
+455 0 *
Wi

0101100
-556 0 -363 0 *
Fa
0  1e-07 18 0

0111000
-355 0 -354 0 *
Wi

0101100
+442 0 -360 0 +404 0 +356 0 *
Fa
0  1e-07 37 0

0111000
-352 0 *
Ed
 1e-07 1 1 0
1  111 0 6.00000000000001 10
4 C0 22 0 36 0
0

0101000
+414 0 -449 0 *
Wi

0101100
+446 0 -350 0 +402 0 +510 0 +501 0 +494 0 +488 0 +541 0 +532 0 +525 0 
+518 0 *
Wi

0101100
-546 0 -483 0 *
Fa
0  1e-07 22 0

0111000
-349 0 -348 0 *
Wi

0101100
+447 0 -370 0 +413 0 +350 0 *
Fa
0  1e-07 36 0

0111000
-346 0 *
Ed
 1e-07 1 1 0
1  112 0 0 3.14159265358979
2  65 14 0 0 3.14159265358979
2  66 10 0 0 3.14159265358979
4 C0 14 0 10 0
0

0101000
+584 0 -582 0 *
Wi

0101100
-432 0 -569 0 +344 0 +566 0 *
Fa
0  1e-07 14 0

0111000
+343 0 *
Ed
 1e-07 1 1 0
1  113 0 0 3.14159265358979
2  67 12 0 0 3.14159265358979
2  68 8 0 0 3.14159265358979
4 C0 12 0 8 0
0

0101000
+591 0 -589 0 *
Wi

0101100
-434 0 -576 0 +341 0 +573 0 *
Fa
0  1e-07 12 0

0111000
+340 0 *
Ed
 1e-07 1 1 0
1  114 0 3.14159265358979 6.28318530717959
2  69 10 0 3.14159265358979 6.28318530717959
2  70 6 0 3.14159265358979 6.28318530717959
4 C0 10 0 6 0
0

0101000
+598 0 -600 0 *
Wi

0101100
-344 0 -583 0 -338 0 +580 0 *
Fa
0  1e-07 10 0

0111000
+337 0 *
Ed
 1e-07 1 1 0
1  115 0 3.14159265358979 6.28318530717959
2  71 8 0 3.14159265358979 6.28318530717959
2  72 2 0 3.14159265358979 6.28318530717959
4 C0 8 0 2 0
0

0101000
+608 0 -610 0 *
Wi

0101100
-341 0 -590 0 -335 0 +587 0 *
Fa
0  1e-07 8 0

0111000
+334 0 *
Wi

0101100
+338 0 -599 0 +398 0 +595 0 *
Fa
0  1e-07 6 0

0111000
+332 0 *
Wi

0101100
+335 0 -609 0 +400 0 +605 0 *
Fa
0  1e-07 2 0

0111000
+330 0 *
Sh

0101100
-602 0 -592 0 -585 0 -578 0 -571 0 -564 0 -554 0 -544 0 +534 0 +527 0 
+520 0 +513 0 +503 0 +496 0 +489 0 +485 0 -481 0 +471 0 +464 0 +457 0 
+450 0 +430 0 +423 0 +416 0 +396 0 +389 0 +382 0 +375 0 +371 0 -368 0 
+364 0 -361 0 -357 0 -353 0 -351 0 -347 0 -345 0 -342 0 -339 0 -336 0 
-333 0 -331 0 -329 0 *
So

0100000
+328 0 *
Ve
1e-07
9 -4.5 -21.85
0 0

0101101
*
Ve
1e-07
9 -3.05 -21.85
0 0

0101101
*
Ed
 1e-07 1 1 0
1  116 0 0 1.45
2  73 44 0 0 1.45
2  74 45 0 0 1.45
4 CN 44 0 45 0
0

0101000
+326 0 -325 0 *
Ve
1e-07
9 -3.05 -26.15
0 0

0101101
*
Ed
 1e-07 1 1 0
1  117 0 0 3.14159265358979
2  75 44 0 0 3.14159265358979
2  76 46 0 0 3.14159265358979
4 C0 44 0 46 0
0

0101000
+325 0 -323 0 *
Ve
1e-07
9 -4.5 -26.15
0 0

0101101
*
Ed
 1e-07 1 1 0
1  118 0 0 1.45
2  77 44 0 0 1.45
2  78 45 0 0 1.45
4 CN 44 0 45 0
0

0101000
+321 0 -323 0 *
Ed
 1e-07 1 1 0
1  119 0 0 3.14159265358979
2  79 44 0 0 3.14159265358979
4 C0 44 0 47 0
0

0101000
+321 0 -326 0 *
Wi

0101100
+324 0 +322 0 -320 0 +319 0 *
Fa
0  1e-07 44 0

0111000
+318 0 *
Ve
1e-07
9 -4.5 -3.85
0 0

0101101
*
Ve
1e-07
9 -3.05 -3.85
0 0

0101101
*
Ed
 1e-07 1 1 0
1  120 0 0 1.45
2  80 48 0 0 1.45
2  81 49 0 0 1.45
4 CN 48 0 49 0
0

0101000
+316 0 -315 0 *
Ve
1e-07
9 -3.05 -8.15
0 0

0101101
*
Ed
 1e-07 1 1 0
1  121 0 0 3.14159265358979
2  82 48 0 0 3.14159265358979
2  83 50 0 0 3.14159265358979
4 C0 48 0 50 0
0

0101000
+315 0 -313 0 *
Ve
1e-07
9 -4.5 -8.15
0 0

0101101
*
Ed
 1e-07 1 1 0
1  122 0 0 1.45
2  84 48 0 0 1.45
2  85 49 0 0 1.45
4 CN 48 0 49 0
0

0101000
+311 0 -313 0 *
Ed
 1e-07 1 1 0
1  123 0 3.14159265358979 6.28318530717959
2  86 48 0 3.14159265358979 6.28318530717959
4 C0 48 0 47 0
0

0101000
+311 0 -316 0 *
Wi

0101100
+314 0 +312 0 -310 0 +309 0 *
Fa
0  1e-07 48 0

0111000
+308 0 *
Ve
1e-07
9 -1 -19.8
0 0

0101101
*
Ed
 1e-07 1 1 0
1  124 0 -2.89913780286485 0
2  87 46 0 -2.89913780286485 0
2  88 51 0 -2.89913780286485 0
4 CN 46 0 51 0
0

0101000
+325 0 -306 0 *
Ve
1e-07
9 -1 -28.2
0 0

0101101
*
Ed
 1e-07 1 1 0
1  125 0 3.14159265358979 6.28318530717959
2  89 46 0 3.14159265358979 6.28318530717959
2  90 52 0 3.14159265358979 6.28318530717959
4 C0 46 0 52 0
0

0101000
+304 0 -306 0 *
Ed
 1e-07 1 1 0
1  126 0 -2.89913780286485 0
2  91 46 0 -2.89913780286485 0
2  92 51 0 -2.89913780286485 0
4 CN 46 0 51 0
0

0101000
+323 0 -304 0 *
Wi

0101100
+305 0 -303 0 -302 0 -322 0 *
Fa
0  1e-07 46 0

0111000
+301 0 *
Ve
1e-07
9 -1 -1.8
0 0

0101101
*
Ed
 1e-07 1 1 0
1  127 0 -2.89913780286484 0
2  93 50 0 -2.89913780286484 0
2  94 53 0 -2.89913780286484 0
4 CN 50 0 53 0
0

0101000
+315 0 -299 0 *
Ve
1e-07
9 -1 -10.2
0 0

0101101
*
Ed
 1e-07 1 1 0
1  128 0 3.14159265358979 6.28318530717959
2  95 50 0 3.14159265358979 6.28318530717959
2  96 54 0 3.14159265358979 6.28318530717959
4 C0 50 0 54 0
0

0101000
+297 0 -299 0 *
Ed
 1e-07 1 1 0
1  129 0 -2.89913780286484 0
2  97 50 0 -2.89913780286484 0
2  98 53 0 -2.89913780286484 0
4 CN 50 0 53 0
0

0101000
+313 0 -297 0 *
Wi

0101100
+298 0 -296 0 -295 0 -312 0 *
Fa
0  1e-07 50 0

0111000
+294 0 *
Ve
1e-07
9 -0.5 -19.8
0 0

0101101
*
Ed
 1e-07 1 1 0
1  130 0 0 0.5
2  99 52 0 0 0.5
2  100 55 0 0 0.5
4 CN 52 0 55 0
0

0101000
+306 0 -292 0 *
Ve
1e-07
9 -0.5 -28.2
0 0

0101101
*
Ed
 1e-07 1 1 0
1  131 0 0 3.14159265358979
2  101 52 0 0 3.14159265358979
4 C0 52 0 56 0
0

0101000
+290 0 -292 0 *
Ed
 1e-07 1 1 0
1  132 0 0 0.5
2  102 52 0 0 0.5
2  103 55 0 0 0.5
4 CN 52 0 55 0
0

0101000
+304 0 -290 0 *
Wi

0101100
+291 0 -289 0 -288 0 +303 0 *
Fa
0  1e-07 52 0

0111000
+287 0 *
Ve
1e-07
9 -0.5 -1.8
0 0

0101101
*
Ed
 1e-07 1 1 0
1  133 0 0 0.5
2  104 54 0 0 0.5
2  105 57 0 0 0.5
4 CN 54 0 57 0
0

0101000
+299 0 -285 0 *
Ve
1e-07
9 -0.5 -10.2
0 0

0101101
*
Ed
 1e-07 1 1 0
1  134 0 3.14159265358979 6.28318530717959
2  106 54 0 3.14159265358979 6.28318530717959
4 C0 54 0 56 0
0

0101000
+283 0 -285 0 *
Ed
 1e-07 1 1 0
1  135 0 0 0.5
2  107 54 0 0 0.5
2  108 57 0 0 0.5
4 CN 54 0 57 0
0

0101000
+297 0 -283 0 *
Wi

0101100
+284 0 -282 0 -281 0 +296 0 *
Fa
0  1e-07 54 0

0111000
+280 0 *
Ve
1e-07
1.5 0 -7.45
0 0

0101101
*
Ve
1e-07
1.5 0 0
0 0

0101101
*
Ed
 1e-07 1 1 0
1  136 0 22.55 30
2  109 58 0 22.55 30
2  110 59 0 22.55 30
4 CN 58 0 59 0
0

0101000
+278 0 -277 0 *
Ve
1e-07
-1.5 1.83697019872103e-16 0
0 0

0101101
*
Ed
 1e-07 1 1 0
1  137 0 3.14159265358979 6.28318530717959
2  111 58 0 3.14159265358979 6.28318530717959
4 C0 58 0 60 0
0

0101000
+275 0 -277 0 *
Ve
1e-07
-1.5 1.83697019872103e-16 -7.45
0 0

0101101
*
Ed
 1e-07 1 1 0
1  138 0 22.55 30
2  112 58 0 22.55 30
2  113 59 0 22.55 30
4 CN 58 0 59 0
0

0101000
+273 0 -275 0 *
Ed
 1e-07 1 1 0
1  139 0 0 3.14159265358979
2  114 58 0 0 3.14159265358979
4 C0 58 0 61 0
0

0101000
+278 0 -273 0 *
Wi

0101100
+276 0 -274 0 -272 0 -271 0 *
Fa
0  1e-07 58 0

0111000
+270 0 *
Ve
1e-07
1.5 0 -22.45
0 0

0101101
*
Ve
1e-07
1.5 0 -15
0 0

0101101
*
Ed
 1e-07 1 1 0
1  140 0 7.55 15
2  115 62 0 7.55 15
2  116 63 0 7.55 15
4 CN 62 0 63 0
0

0101000
+268 0 -267 0 *
Ve
1e-07
-1.5 1.83697019872103e-16 -15
0 0

0101101
*
Ed
 1e-07 1 1 0
1  141 0 0 3.14159265358979
2  117 62 0 0 3.14159265358979
4 C0 62 0 64 0
0

0101000
+265 0 -267 0 *
Ve
1e-07
-1.5 1.83697019872103e-16 -22.45
0 0

0101101
*
Ed
 1e-07 1 1 0
1  142 0 7.55 15
2  118 62 0 7.55 15
2  119 63 0 7.55 15
4 CN 62 0 63 0
0

0101000
+263 0 -265 0 *
Ed
 1e-07 1 1 0
1  143 0 0 3.14159265358979
2  120 62 0 0 3.14159265358979
4 C0 62 0 65 0
0

0101000
+268 0 -263 0 *
Wi

0101100
+266 0 -264 0 -262 0 -261 0 *
Fa
0  1e-07 62 0

0111000
+260 0 *
Ve
1e-07
-4 0.999999999999993 -22.45
0 0

0101101
*
Ve
1e-07
-2 3 -22.45
0 0

0101101
*
Ed
 1e-07 1 1 0
1  144 0 -7.065416064077e-16 2.82842712474619
4 C0 66 0 65 0
0

0101000
+258 0 -257 0 *
Ve
1e-07
-4 0.999999999999993 -15
0 0

0101101
*
Ed
 1e-07 1 1 0
1  145 0 7.55 15
4 C0 66 0 67 0
0

0101000
+258 0 -255 0 *
Ve
1e-07
-2 3 -15
0 0

0101101
*
Ed
 1e-07 1 1 0
1  146 0 -2.8284271247462 -7.065416064077e-16
4 C0 66 0 64 0
0

0101000
+253 0 -255 0 *
Ed
 1e-07 1 1 0
1  147 0 7.55 15
4 C0 66 0 68 0
0

0101000
+257 0 -253 0 *
Wi

0101100
-256 0 +254 0 -252 0 -251 0 *
Fa
0  1e-07 66 0

0111000
+250 0 *
Ve
1e-07
2 3 -22.45
0 0

0101101
*
Ed
 1e-07 1 1 0
1  148 0 0 4
4 C0 68 0 65 0
0

0101000
+257 0 -248 0 *
Ve
1e-07
2 3 -15
0 0

0101101
*
Ed
 1e-07 1 1 0
1  149 0 -4 0
4 C0 68 0 64 0
0

0101000
+246 0 -253 0 *
Ed
 1e-07 1 1 0
1  150 0 7.55 15
4 C0 68 0 69 0
0

0101000
+248 0 -246 0 *
Wi

0101100
-247 0 +251 0 -245 0 -244 0 *
Fa
0  1e-07 68 0

0111000
+243 0 *
Ve
1e-07
4 0.999999999999994 -22.45
0 0

0101101
*
Ed
 1e-07 1 1 0
1  151 0 -2.8284271247462 -1.4130832128154e-15
4 C0 69 0 65 0
0

0101000
+248 0 -241 0 *
Ve
1e-07
4 0.999999999999993 -15
0 0

0101101
*
Ed
 1e-07 1 1 0
1  152 0 -7.065416064077e-16 2.82842712474619
4 C0 69 0 64 0
0

0101000
+239 0 -246 0 *
Ed
 1e-07 1 1 0
1  153 0 7.55 15
4 C0 69 0 70 0
0

0101000
+241 0 -239 0 *
Wi

0101100
-240 0 +244 0 -238 0 -237 0 *
Fa
0  1e-07 69 0

0111000
+236 0 *
Ve
1e-07
4 -0.5 -22.45
0 0

0101101
*
Ed
 1e-07 1 1 0
1  154 0 -9.99200722162641e-16 1.49999999999999
4 C0 70 0 65 0
0

0101000
+241 0 -234 0 *
Ve
1e-07
4 -0.5 -15
0 0

0101101
*
Ed
 1e-07 1 1 0
1  155 0 -1.49999999999999 0
4 C0 70 0 64 0
0

0101000
+232 0 -239 0 *
Ed
 1e-07 1 1 0
1  156 0 7.55 15
4 C0 70 0 56 0
0

0101000
+234 0 -232 0 *
Wi

0101100
-233 0 +237 0 -231 0 -230 0 *
Fa
0  1e-07 70 0

0111000
+229 0 *
Ve
1e-07
4.3 -4.5 -22.45
0 0

0101101
*
Ve
1e-07
4.3 -4 -22.45
0 0

0101101
*
Ed
 1e-07 1 1 0
1  157 0 0 0.5
4 C0 71 0 65 0
0

0101000
+227 0 -226 0 *
Ve
1e-07
4.3 -4.5 -15
0 0

0101101
*
Ed
 1e-07 1 1 0
1  158 0 7.55 15
4 C0 71 0 47 0
0

0101000
+227 0 -224 0 *
Ve
1e-07
4.3 -4 -15
0 0

0101101
*
Ed
 1e-07 1 1 0
1  159 0 -0.5 0
4 C0 71 0 64 0
0

0101000
+222 0 -224 0 *
Ed
 1e-07 1 1 0
1  160 0 7.55 15
4 C0 71 0 72 0
0

0101000
+226 0 -222 0 *
Wi

0101100
-225 0 +223 0 -221 0 -220 0 *
Fa
0  1e-07 71 0

0111000
+219 0 *
Ve
1e-07
-1.85288457134071e-21 -4 -22.45
0 0

0101101
*
Ed
 1e-07 1 1 0
1  161 0 -4.3 1.30971807724706e-15
4 C0 72 0 65 0
0

0101000
+226 0 -217 0 *
Ve
1e-07
0 -4 -15
0 0

0101101
*
Ed
 1e-07 1 1 0
1  162 0 1.30104260698261e-15 4.3
4 C0 72 0 64 0
0

0101000
+215 0 -222 0 *
Ed
 1e-07 1 1 0
1  163 0 7.55 15
2  121 73 0 7.55 15
4 G1 72 0 73 0
0

0101000
+217 0 -215 0 *
Wi

0101100
-216 0 +220 0 -214 0 -213 0 *
Fa
0  1e-07 72 0

0111000
+212 0 *
Ve
1e-07
-4 4.89858719658941e-16 -22.45
0 0

0101101
*
Ed
 1e-07 1 1 0
1  164 0 1.5707963267949 3.14159265358979
2  122 73 0 1.5707963267949 3.14159265358979
4 C0 73 0 65 0
0

0101000
+217 0 -210 0 *
Ve
1e-07
-4 4.89856358753903e-16 -15
0 0

0101101
*
Ed
 1e-07 1 1 0
1  165 0 0 1.5707963267949
2  123 73 0 0 1.5707963267949
4 C0 73 0 64 0
0

0101000
+208 0 -215 0 *
Ed
 1e-07 1 1 0
1  166 0 7.55 15
2  124 73 0 7.55 15
4 G1 73 0 67 0
0

0101000
+210 0 -208 0 *
Wi

0101100
-209 0 +213 0 -207 0 -206 0 *
Fa
0  1e-07 73 0

0111000
+205 0 *
Ed
 1e-07 1 1 0
1  167 0 4.89858719658941e-16 0.999999999999993
4 C0 67 0 65 0
0

0101000
+210 0 -258 0 *
Ed
 1e-07 1 1 0
1  168 0 -0.999999999999993 -4.89856358753903e-16
4 C0 67 0 64 0
0

0101000
+255 0 -208 0 *
Wi

0101100
-203 0 +206 0 -202 0 -254 0 *
Fa
0  1e-07 67 0

0111000
+201 0 *
Ed
 1e-07 1 1 0
1  169 0 3.14159265358979 6.28318530717959
2  125 63 0 3.14159265358979 6.28318530717959
4 C0 63 0 64 0
0

0101000
+267 0 -265 0 *
Ed
 1e-07 1 1 0
1  170 0 3.14159265358979 6.28318530717959
2  126 63 0 3.14159265358979 6.28318530717959
4 C0 63 0 65 0
0

0101000
+263 0 -268 0 *
Wi

0101100
-199 0 -266 0 -198 0 +262 0 *
Fa
0  1e-07 63 0

0111000
+197 0 *
Ve
1e-07
-4 0.999999999999993 -7.45
0 0

0101101
*
Ve
1e-07
-2 3 -7.45
0 0

0101101
*
Ed
 1e-07 1 1 0
1  171 0 -1.4130832128154e-15 2.82842712474619
4 C0 74 0 61 0
0

0101000
+195 0 -194 0 *
Ve
1e-07
-4 0.999999999999993 0
0 0

0101101
*
Ed
 1e-07 1 1 0
1  172 0 22.55 30
4 C0 74 0 75 0
0

0101000
+195 0 -192 0 *
Ve
1e-07
-2 3 0
0 0

0101101
*
Ed
 1e-07 1 1 0
1  173 0 -2.8284271247462 -0
4 C0 74 0 60 0
0

0101000
+190 0 -192 0 *
Ed
 1e-07 1 1 0
1  174 0 22.55 30
4 C0 74 0 76 0
0

0101000
+194 0 -190 0 *
Wi

0101100
-193 0 +191 0 -189 0 -188 0 *
Fa
0  1e-07 74 0

0111000
+187 0 *
Ve
1e-07
2 3 -7.45
0 0

0101101
*
Ed
 1e-07 1 1 0
1  175 0 0 4
4 C0 76 0 61 0
0

0101000
+194 0 -185 0 *
Ve
1e-07
2 3 0
0 0

0101101
*
Ed
 1e-07 1 1 0
1  176 0 -4 -0
4 C0 76 0 60 0
0

0101000
+183 0 -190 0 *
Ed
 1e-07 1 1 0
1  177 0 22.55 30
4 C0 76 0 77 0
0

0101000
+185 0 -183 0 *
Wi

0101100
-184 0 +188 0 -182 0 -181 0 *
Fa
0  1e-07 76 0

0111000
+180 0 *
Ve
1e-07
4 0.999999999999993 -7.45
0 0

0101101
*
Ed
 1e-07 1 1 0
1  178 0 -2.8284271247462 -1.4130832128154e-15
4 C0 77 0 61 0
0

0101000
+185 0 -178 0 *
Ve
1e-07
4 0.999999999999993 0
0 0

0101101
*
Ed
 1e-07 1 1 0
1  179 0 0 2.8284271247462
4 C0 77 0 60 0
0

0101000
+176 0 -183 0 *
Ed
 1e-07 1 1 0
1  180 0 22.55 30
4 C0 77 0 78 0
0

0101000
+178 0 -176 0 *
Wi

0101100
-177 0 +181 0 -175 0 -174 0 *
Fa
0  1e-07 77 0

0111000
+173 0 *
Ve
1e-07
4 -0.5 -7.45
0 0

0101101
*
Ed
 1e-07 1 1 0
1  181 0 0 1.49999999999999
4 C0 78 0 61 0
0

0101000
+178 0 -171 0 *
Ve
1e-07
4 -0.5 0
0 0

0101101
*
Ed
 1e-07 1 1 0
1  182 0 -1.49999999999999 0
4 C0 78 0 60 0
0

0101000
+169 0 -176 0 *
Ed
 1e-07 1 1 0
1  183 0 22.55 30
4 C0 78 0 56 0
0

0101000
+171 0 -169 0 *
Wi

0101100
-170 0 +174 0 -168 0 -167 0 *
Fa
0  1e-07 78 0

0111000
+166 0 *
Ve
1e-07
4.49999999999999 -0.5 -22.45
0 0

0101101
*
Ve
1e-07
4.49999999999999 -0.5 -30
0 0

0101101
*
Ed
 1e-07 1 1 0
1  184 0 -7.55 0
4 C0 56 0 79 0
0

0101000
+164 0 -163 0 *
Ed
 1e-07 1 1 0
1  185 0 0 0.49999999999999
4 C0 56 0 65 0
0

0101000
+234 0 -164 0 *
Ve
1e-07
4.49999999999999 -0.5 -15
0 0

0101101
*
Ed
 1e-07 1 1 0
1  186 0 -0.49999999999999 0
4 C0 56 0 64 0
0

0101000
+160 0 -232 0 *
Ve
1e-07
4.5 -0.5 -7.45
0 0

0101101
*
Ed
 1e-07 1 1 0
1  187 0 -22.55 -15
4 C0 56 0 80 0
0

0101000
+158 0 -160 0 *
Ed
 1e-07 1 1 0
1  188 0 0 0.5
4 C0 56 0 61 0
0

0101000
+171 0 -158 0 *
Ve
1e-07
14.2 -0.5 0
0 0

0101101
*
Ed
 1e-07 1 1 0
1  189 0 -10.2 -0
4 C0 56 0 60 0
0

0101000
+155 0 -169 0 *
Ve
1e-07
14.2 -0.5 -30
0 0

0101101
*
Ed
 1e-07 1 1 0
1  190 0 0 30
4 C0 56 0 81 0
0

0101000
+153 0 -155 0 *
Ed
 1e-07 1 1 0
1  191 0 -10.2 -0.49999999999999
4 C0 56 0 82 0
0

0101000
+153 0 -163 0 *
Wi

0101100
-162 0 -161 0 +230 0 -159 0 -157 0 -156 0 +167 0 -154 0 -152 0 +151 0 
*
Ed
 1e-07 1 1 0
1  192 0 3.14159265358979 6.28318530717959
2  127 55 0 3.14159265358979 6.28318530717959
4 C0 56 0 55 0
0

0101000
+292 0 -290 0 *
Wi

0101100
-149 0 -289 0 *
Ed
 1e-07 1 1 0
1  193 0 0 3.14159265358979
2  128 57 0 0 3.14159265358979
4 C0 56 0 57 0
0

0101000
+285 0 -283 0 *
Wi

0101100
-147 0 -282 0 *
Fa
0  1e-07 56 0

0111000
+150 0 +148 0 +146 0 *
Ve
1e-07
15 -1.3 0
0 0

0101101
*
Ed
 1e-07 1 1 0
1  194 0 -1.13137084989848 0
4 C0 81 0 60 0
0

0101000
+144 0 -155 0 *
Ve
1e-07
15 -1.3 -30
0 0

0101101
*
Ed
 1e-07 1 1 0
1  195 0 0 30
4 C0 81 0 83 0
0

0101000
+142 0 -144 0 *
Ed
 1e-07 1 1 0
1  196 0 -1.13137084989848 0
4 C0 81 0 82 0
0

0101000
+142 0 -153 0 *
Wi

0101100
-143 0 -141 0 +140 0 +152 0 *
Fa
0  1e-07 81 0

0111000
+139 0 *
Ve
1e-07
15 -4.5 0
0 0

0101101
*
Ed
 1e-07 1 1 0
1  197 0 0 3.2
4 C0 83 0 60 0
0

0101000
+137 0 -144 0 *
Ve
1e-07
15 -4.5 -30
0 0

0101101
*
Ed
 1e-07 1 1 0
1  198 0 0 30
4 C0 83 0 47 0
0

0101000
+135 0 -137 0 *
Ed
 1e-07 1 1 0
1  199 0 0 3.2
4 C0 83 0 82 0
0

0101000
+135 0 -142 0 *
Wi

0101100
-136 0 -134 0 +133 0 +141 0 *
Fa
0  1e-07 83 0

0111000
+132 0 *
Ve
1e-07
4.49999999999999 -4.5 -30
0 0

0101101
*
Ve
1e-07
4.49999999999999 -4.5 -22.45
0 0

0101101
*
Ed
 1e-07 1 1 0
1  200 0 0 7.55
4 C0 47 0 79 0
0

0101000
+130 0 -129 0 *
Ed
 1e-07 1 1 0
1  201 0 0.19999999999999 10.7
4 C0 47 0 82 0
0

0101000
+130 0 -135 0 *
Ve
1e-07
4.3 -4.5 0
0 0

0101101
*
Ed
 1e-07 1 1 0
1  202 0 0 10.7
4 C0 47 0 60 0
0

0101000
+126 0 -137 0 *
Ve
1e-07
4.3 -4.5 -7.45
0 0

0101101
*
Ed
 1e-07 1 1 0
1  203 0 22.55 30
4 C0 47 0 84 0
0

0101000
+124 0 -126 0 *
Ve
1e-07
4.5 -4.5 -7.45
0 0

0101101
*
Ed
 1e-07 1 1 0
1  204 0 -0.2 0
4 C0 47 0 61 0
0

0101000
+122 0 -124 0 *
Ve
1e-07
4.49999999999999 -4.5 -15
0 0

0101101
*
Ed
 1e-07 1 1 0
1  205 0 15 22.55
4 C0 47 0 80 0
0

0101000
+120 0 -122 0 *
Ed
 1e-07 1 1 0
1  206 0 9.76996261670138e-15 0.2
4 C0 47 0 64 0
0

0101000
+224 0 -120 0 *
Ed
 1e-07 1 1 0
1  207 0 -0.19999999999999 0
4 C0 47 0 65 0
0

0101000
+129 0 -227 0 *
Wi

0101100
-128 0 +127 0 +134 0 -125 0 -123 0 -121 0 -119 0 -118 0 -223 0 -117 0 
*
Ed
 1e-07 1 1 0
1  208 0 3.14159265358979 6.28318530717959
2  129 45 0 3.14159265358979 6.28318530717959
4 C0 47 0 45 0
0

0101000
+326 0 -321 0 *
Wi

0101100
+115 0 +319 0 *
Ed
 1e-07 1 1 0
1  209 0 0 3.14159265358979
2  130 49 0 0 3.14159265358979
4 C0 47 0 49 0
0

0101000
+316 0 -311 0 *
Wi

0101100
+113 0 +309 0 *
Fa
0  1e-07 47 0

0111000
+116 0 +114 0 +112 0 *
Ve
1e-07
4.3 -4 -7.45
0 0

0101101
*
Ed
 1e-07 1 1 0
1  210 0 0 0.5
4 C0 84 0 61 0
0

0101000
+124 0 -110 0 *
Ve
1e-07
4.3 -4 0
0 0

0101101
*
Ed
 1e-07 1 1 0
1  211 0 -0.5 -0
4 C0 84 0 60 0
0

0101000
+108 0 -126 0 *
Ed
 1e-07 1 1 0
1  212 0 22.55 30
4 C0 84 0 85 0
0

0101000
+110 0 -108 0 *
Wi

0101100
-109 0 +123 0 -107 0 -106 0 *
Fa
0  1e-07 84 0

0111000
+105 0 *
Ve
1e-07
1.50463276905253e-31 -4 -7.45
0 0

0101101
*
Ed
 1e-07 1 1 0
1  213 0 -4.3 3.9118014383277e-15
4 C0 85 0 61 0
0

0101000
+110 0 -103 0 *
Ve
1e-07
0 -4 0
0 0

0101101
*
Ed
 1e-07 1 1 0
1  214 0 0 4.3
4 C0 85 0 60 0
0

0101000
+101 0 -108 0 *
Ed
 1e-07 1 1 0
1  215 0 22.55 30
2  131 86 0 22.55 30
4 G1 85 0 86 0
0

0101000
+103 0 -101 0 *
Wi

0101100
-102 0 +106 0 -100 0 -99 0 *
Fa
0  1e-07 85 0

0111000
+98 0 *
Ve
1e-07
-4 4.89858719658941e-16 -7.45
0 0

0101101
*
Ed
 1e-07 1 1 0
1  216 0 1.5707963267949 3.14159265358979
2  132 86 0 1.5707963267949 3.14159265358979
4 C0 86 0 61 0
0

0101000
+103 0 -96 0 *
Ve
1e-07
-4 4.89858719658941e-16 0
0 0

0101101
*
Ed
 1e-07 1 1 0
1  217 0 3.14159265358979 4.71238898038469
2  133 86 0 3.14159265358979 4.71238898038469
4 C0 86 0 60 0
0

0101000
+94 0 -101 0 *
Ed
 1e-07 1 1 0
1  218 0 22.55 30
2  134 86 0 22.55 30
4 G1 86 0 75 0
0

0101000
+96 0 -94 0 *
Wi

0101100
-95 0 +99 0 -93 0 -92 0 *
Fa
0  1e-07 86 0

0111000
+91 0 *
Ed
 1e-07 1 1 0
1  219 0 4.89858719658941e-16 0.999999999999993
4 C0 75 0 61 0
0

0101000
+96 0 -195 0 *
Ed
 1e-07 1 1 0
1  220 0 -0.999999999999993 -4.89858719658941e-16
4 C0 75 0 60 0
0

0101000
+192 0 -94 0 *
Wi

0101100
-89 0 +92 0 -88 0 -191 0 *
Fa
0  1e-07 75 0

0111000
+87 0 *
Ed
 1e-07 1 1 0
1  221 0 -4.5 -0.5
4 C0 82 0 79 0
0

0101000
+130 0 -163 0 *
Wi

0101100
-127 0 +85 0 -151 0 -140 0 -133 0 *
Fa
0  1e-07 82 0

0111000
-84 0 *
Wi

0101100
+189 0 +88 0 +93 0 +100 0 +107 0 +125 0 +136 0 +143 0 +154 0 +168 0 
+175 0 +182 0 *
Ed
 1e-07 1 1 0
1  222 0 0 3.14159265358979
2  135 59 0 0 3.14159265358979
4 C0 60 0 59 0
0

0101000
+277 0 -275 0 *
Wi

0101100
-81 0 -274 0 *
Fa
0  1e-07 60 0

0111000
+82 0 +80 0 *
Ed
 1e-07 1 1 0
1  223 0 3.14159265358979 6.28318530717959
2  136 59 0 3.14159265358979 6.28318530717959
4 C0 59 0 61 0
0

0101000
+273 0 -278 0 *
Wi

0101100
-81 0 -276 0 -78 0 +272 0 *
Fa
0  1e-07 59 0

0111000
+77 0 *
Ed
 1e-07 1 1 0
1  224 0 6 10
4 C0 64 0 80 0
0

0101000
+120 0 -160 0 *
Wi

0101100
+159 0 +231 0 +238 0 +245 0 +252 0 +202 0 +207 0 +214 0 +221 0 +118 0 
+75 0 *
Wi

0101100
-199 0 -264 0 *
Fa
0  1e-07 64 0

0111000
-74 0 -73 0 *
Ed
 1e-07 1 1 0
1  225 0 6 10
4 C0 61 0 80 0
0

0101000
+122 0 -158 0 *
Wi

0101100
+156 0 -71 0 +121 0 +109 0 +102 0 +95 0 +89 0 +193 0 +184 0 +177 0 
+170 0 *
Wi

0101100
-271 0 -78 0 *
Fa
0  1e-07 61 0

0111000
-70 0 -69 0 *
Wi

0101100
+157 0 -75 0 +119 0 +71 0 *
Fa
0  1e-07 80 0

0111000
-67 0 *
Ed
 1e-07 1 1 0
1  226 0 6 10
4 C0 65 0 79 0
0

0101000
+129 0 -164 0 *
Wi

0101100
+161 0 -65 0 +117 0 +225 0 +216 0 +209 0 +203 0 +256 0 +247 0 +240 0 
+233 0 *
Wi

0101100
-261 0 -198 0 *
Fa
0  1e-07 65 0

0111000
-64 0 -63 0 *
Wi

0101100
+162 0 -85 0 +128 0 +65 0 *
Fa
0  1e-07 79 0

0111000
-61 0 *
Ed
 1e-07 1 1 0
1  227 0 0 3.14159265358979
2  137 57 0 0 3.14159265358979
2  138 53 0 0 3.14159265358979
4 C0 57 0 53 0
0

0101000
+299 0 -297 0 *
Wi

0101100
-147 0 -284 0 +59 0 +281 0 *
Fa
0  1e-07 57 0

0111000
+58 0 *
Ed
 1e-07 1 1 0
1  228 0 0 3.14159265358979
2  139 55 0 0 3.14159265358979
2  140 51 0 0 3.14159265358979
4 C0 55 0 51 0
0

0101000
+306 0 -304 0 *
Wi

0101100
-149 0 -291 0 +56 0 +288 0 *
Fa
0  1e-07 55 0

0111000
+55 0 *
Ed
 1e-07 1 1 0
1  229 0 3.14159265358979 6.28318530717959
2  141 53 0 3.14159265358979 6.28318530717959
2  142 49 0 3.14159265358979 6.28318530717959
4 C0 53 0 49 0
0

0101000
+313 0 -315 0 *
Wi

0101100
-59 0 -298 0 -53 0 +295 0 *
Fa
0  1e-07 53 0

0111000
+52 0 *
Ed
 1e-07 1 1 0
1  230 0 3.14159265358979 6.28318530717959
2  143 51 0 3.14159265358979 6.28318530717959
2  144 45 0 3.14159265358979 6.28318530717959
4 C0 51 0 45 0
0

0101000
+323 0 -325 0 *
Wi

0101100
-56 0 -305 0 -50 0 +302 0 *
Fa
0  1e-07 51 0

0111000
+49 0 *
Wi

0101100
+53 0 -314 0 +113 0 +310 0 *
Fa
0  1e-07 49 0

0111000
+47 0 *
Wi

0101100
+50 0 -324 0 +115 0 +320 0 *
Fa
0  1e-07 45 0

0111000
+45 0 *
Sh

0101100
-317 0 -307 0 -300 0 -293 0 -286 0 -279 0 -269 0 -259 0 +249 0 +242 0 
+235 0 +228 0 +218 0 +211 0 +204 0 +200 0 -196 0 +186 0 +179 0 +172 0 
+165 0 +145 0 +138 0 +131 0 +111 0 +104 0 +97 0 +90 0 +86 0 -83 0 
+79 0 -76 0 -72 0 -68 0 -66 0 -62 0 -60 0 -57 0 -54 0 -51 0 
-48 0 -46 0 -44 0 *
So

0100000
+43 0 *
Ve
1e-07
1.13747701294069 -0.629401338600063 0
0 0

0101101
*
Ve
1e-07
-1.13747701294069 0.629401338600063 0
0 0

0101101
*
Ed
 1e-07 1 1 0
1  231 0 0 3.14159265358979
2  145 87 0 0 3.14159265358979
4 C0 87 0 88 0
0

0101000
+41 0 -40 0 *
Ve
1e-07
1.31247347647002 -0.726232313769299 -0.199999999999996
0 0

0101101
*
Ed
 1e-07 1 1 0
1  232 0 0 0.282842712474612
2  146 87 0 0 0.282842712474612
2  147 89 0 0 0.282842712474612
4 CN 87 0 89 0
0

0101000
+41 0 -38 0 *
Ve
1e-07
-1.31247347647002 0.726232313769299 -0.199999999999996
0 0

0101101
*
Ed
 1e-07 1 1 0
1  233 0 3.14159265358979 6.28318530717959
2  148 87 0 3.14159265358979 6.28318530717959
2  149 90 0 3.14159265358979 6.28318530717959
4 C0 87 0 90 0
0

0101000
+36 0 -38 0 *
Ed
 1e-07 1 1 0
1  234 0 0 0.282842712474612
2  150 87 0 0 0.282842712474612
2  151 89 0 0 0.282842712474612
4 CN 87 0 89 0
0

0101000
+40 0 -36 0 *
Wi

0101100
-39 0 +37 0 -35 0 -34 0 *
Fa
0  1e-07 87 0

0111000
+33 0 *
Ve
1e-07
-1.13747701294068 0.629401338600057 -30
0 0

0101101
*
Ve
1e-07
1.13747701294068 -0.629401338600057 -30
0 0

0101101
*
Ed
 1e-07 1 1 0
1  235 0 3.14159265358979 6.28318530717959
2  152 91 0 3.14159265358979 6.28318530717959
4 C0 91 0 92 0
0

0101000
+31 0 -30 0 *
Ve
1e-07
-1.31247347647002 0.726232313769299 -29.8
0 0

0101101
*
Ed
 1e-07 1 1 0
1  236 0 -0.282842712474622 0
2  153 91 0 -0.282842712474622 0
2  154 93 0 -0.282842712474622 0
4 CN 91 0 93 0
0

0101000
+31 0 -28 0 *
Ve
1e-07
1.31247347647002 -0.726232313769299 -29.8
0 0

0101101
*
Ed
 1e-07 1 1 0
1  237 0 0 3.14159265358979
2  155 91 0 0 3.14159265358979
2  156 90 0 0 3.14159265358979
4 C0 91 0 90 0
0

0101000
+26 0 -28 0 *
Ed
 1e-07 1 1 0
1  238 0 -0.282842712474622 0
2  157 91 0 -0.282842712474622 0
2  158 93 0 -0.282842712474622 0
4 CN 91 0 93 0
0

0101000
+30 0 -26 0 *
Wi

0101100
-29 0 +27 0 -25 0 -24 0 *
Fa
0  1e-07 91 0

0111000
+23 0 *
Ed
 1e-07 1 1 0
1  239 0 0.199999999999996 29.8
2  159 90 0 0.199999999999996 29.8
2  160 94 0 0.199999999999996 29.8
4 CN 90 0 94 0
0

0101000
+38 0 -26 0 *
Ed
 1e-07 1 1 0
1  240 0 0.199999999999996 29.8
2  161 90 0 0.199999999999996 29.8
2  162 94 0 0.199999999999996 29.8
4 CN 90 0 94 0
0

0101000
+36 0 -28 0 *
Wi

0101100
+35 0 +21 0 +25 0 -20 0 *
Fa
0  1e-07 90 0

0111000
+19 0 *
Ed
 1e-07 1 1 0
1  241 0 0 3.14159265358979
2  163 94 0 0 3.14159265358979
2  164 89 0 0 3.14159265358979
4 C0 94 0 89 0
0

0101000
+38 0 -36 0 *
Ed
 1e-07 1 1 0
1  242 0 3.14159265358979 6.28318530717959
2  165 94 0 3.14159265358979 6.28318530717959
2  166 93 0 3.14159265358979 6.28318530717959
4 C0 94 0 93 0
0

0101000
+28 0 -26 0 *
Wi

0101100
-21 0 +17 0 +20 0 +16 0 *
Fa
0  1e-07 94 0

0111000
+15 0 *
Ed
 1e-07 1 1 0
1  243 0 3.14159265358979 6.28318530717959
2  167 89 0 3.14159265358979 6.28318530717959
4 C0 88 0 89 0
0

0101000
+40 0 -41 0 *
Wi

0101100
+13 0 +39 0 *
Fa
0  1e-07 88 0

0111000
+12 0 *
Ed
 1e-07 1 1 0
1  244 0 0 3.14159265358979
2  168 93 0 0 3.14159265358979
4 C0 92 0 93 0
0

0101000
+30 0 -31 0 *
Wi

0101100
+10 0 +29 0 *
Fa
0  1e-07 92 0

0111000
-9 0 *
Wi

0101100
-27 0 -10 0 +24 0 -16 0 *
Fa
0  1e-07 93 0

0111000
+7 0 *
Wi

0101100
-37 0 -13 0 +34 0 -17 0 *
Fa
0  1e-07 89 0

0111000
+5 0 *
Sh

0101100
+32 0 +22 0 +18 0 +14 0 +11 0 -8 0 +6 0 +4 0 *
So

0100000
+3 0 *
Co

1100000
+327 0 +42 0 +2 0 *

+1 0 