DBRep_DrawableShape

CASCADE Topology V1, (c) Matra-Datavision
Locations 0
Curve2ds 152
1 6.2831853071795862 0 0 1 
1 0 0 0 1 
1 6.2831853071795862 3.5499999999999901 -1 0 
1 6.2831853071795862 -5.5861435713737482 -1 0 
1 3.1415926535897931 0 0 1 
1 3.1415926535897931 0 0 1 
1 3.1415926535897931 0 1 0 
1 6.2831853071795862 0 0 1 
1 0 0 0 1 
1 6.2831853071795862 3.5499999999999998 -1 0 
1 6.2831853071795862 -5.5861435713737331 -1 -2.8271597168564594e-16 
1 3.1415926535897931 0 0 1 
1 3.1415926535897931 0 0 1 
1 0 0 1 0 
1 6.2831853071795862 -1.3322676295501878e-14 0 1 
1 0 -1.3322676295501878e-14 0 1 
1 0 2.5121479338940418e-15 1 0 
1 0 0 1 0 
1 3.1415926535897931 -1.3322676295501878e-14 0 1 
1 3.1415926535897931 -1.3322676295501878e-14 0 1 
1 6.2831853071795862 -8.8817841970012523e-16 0 1 
1 0 -8.8817841970012523e-16 0 1 
1 0 -2.5121479338940418e-15 1 3.9982076145732869e-16 
1 0 0 1 0 
1 3.1415926535897931 -5.3290705182007514e-15 0 1 
1 3.1415926535897931 -5.3290705182007514e-15 0 1 
1 6.2831853071795862 0 0 1 
1 0 0 0 1 
1 3.1415926535897931 0.5 1 0 
1 3.1415926535897931 0 0 1 
1 3.1415926535897931 0 0 1 
1 6.2831853071795862 0 0 1 
1 0 0 0 1 
1 0 0.5 1 0 
1 3.1415926535897931 0 0 1 
1 3.1415926535897931 0 0 1 
1 6.2831853071795862 0 0 1 
1 0 0 0 1 
1 0 60 1 0 
1 3.1415926535897931 0 0 1 
1 3.1415926535897931 0 0 1 
1 6.2831853071795862 45.049999999999997 -1 0 
1 6.2831853071795862 0 0 1 
1 0 0 0 1 
1 3.1415926535897931 30 1 0 
1 3.1415926535897931 0 0 1 
1 3.1415926535897931 0 0 1 
1 6.2831853071795862 15.049999999999997 -1 0 
1 4.7123889803846897 0 0 1 
1 6.2831853071795862 15.049999999999997 -1 0 
1 3.1415926535897931 30 1 0 
1 3.1415926535897931 0 0 1 
1 -3.1415926535897931 30 1 0 
1 6.2831853071795862 15.049999999999997 -1 0 
1 -3.1415926535897931 0.5 1 0 
1 0 0.5 1 0 
1 -3.1415926535897931 0 1 0 
1 0 0 1 0 
1 4.7123889803846897 0 0 1 
1 6.2831853071795862 45.049999999999997 -1 0 
1 0 60 1 0 
1 3.1415926535897931 0 0 1 
1 0 60 1 0 
1 6.2831853071795862 45.049999999999997 -1 0 
1 0 0 1 0 
1 0 0 1 -3.9982076145732869e-16 
1 0 0 1 0 
1 0 2.5121479338940418e-15 1 0 
1 6.2831853071795862 -5.5861435713737349 -1 2.8271597168564594e-16 
1 6.2831853071795862 3.5499999999999998 -1 0 
1 6.2831853071795862 -5.5861435713737482 -1 0 
1 6.2831853071795862 3.5499999999999901 -1 0 
1 6.2831853071795862 11.313708498984795 -1 0 
1 3.1415926535897931 0 0 1 
1 3.1415926535897931 0 0 1 
1 0 71.313708498984795 1 0 
1 0 0 0 1 
1 6.2831853071795862 0 0 1 
1 6.2831853071795862 11.313708498984795 -1 0 
1 0 71.313708498984795 1 0 
1 6.2831853071795862 0 0 1 
1 0 0 0 1 
1 6.2831853071795862 3.5499999999999989 -1 0 
1 6.2831853071795862 -5.5861435713737233 -1 2.8271597168564594e-16 
1 3.1415926535897931 0 0 1 
1 3.1415926535897931 0 0 1 
1 3.1415926535897931 0 1 0 
1 6.2831853071795862 0 0 1 
1 0 0 0 1 
1 6.2831853071795862 3.5499999999999989 -1 0 
1 6.2831853071795862 -5.5861435713737233 -1 0 
1 3.1415926535897931 0 0 1 
1 3.1415926535897931 0 0 1 
1 0 0 1 0 
1 6.2831853071795862 0 0 1 
1 0 0 0 1 
1 0 -1.2560739669470209e-15 1 3.9982076145732869e-16 
1 0 0 1 0 
1 3.1415926535897931 0 0 1 
1 3.1415926535897931 0 0 1 
1 6.2831853071795862 0 0 1 
1 0 0 0 1 
1 0 1.2560739669470209e-15 1 0 
1 0 0 1 0 
1 3.1415926535897931 0 0 1 
1 3.1415926535897931 0 0 1 
1 6.2831853071795862 0 0 1 
1 0 0 0 1 
1 3.1415926535897931 0.5 1 0 
1 3.1415926535897931 0 0 1 
1 3.1415926535897931 0 0 1 
1 6.2831853071795862 0 0 1 
1 0 0 0 1 
1 0 0.5 1 0 
1 3.1415926535897931 0 0 1 
1 3.1415926535897931 0 0 1 
1 6.2831853071795862 0 0 1 
1 0 0 0 1 
1 0 60 1 0 
1 3.1415926535897931 0 0 1 
1 3.1415926535897931 0 0 1 
1 6.2831853071795862 45.049999999999997 -1 0 
1 6.2831853071795862 0 0 1 
1 0 0 0 1 
1 3.1415926535897931 30 1 0 
1 3.1415926535897931 0 0 1 
1 3.1415926535897931 0 0 1 
1 6.2831853071795862 15.050000000000001 -1 0 
1 4.7123889803846897 0 0 1 
1 6.2831853071795862 15.050000000000001 -1 0 
1 3.1415926535897931 30 1 0 
1 3.1415926535897931 0 0 1 
1 -3.1415926535897931 30 1 0 
1 6.2831853071795862 15.050000000000001 -1 0 
1 -3.1415926535897931 0.5 1 0 
1 0 0.5 1 0 
1 -3.1415926535897931 0 1 0 
1 0 0 1 0 
1 4.7123889803846897 0 0 1 
1 6.2831853071795862 45.049999999999997 -1 0 
1 0 60 1 0 
1 3.1415926535897931 0 0 1 
1 0 60 1 0 
1 6.2831853071795862 45.049999999999997 -1 0 
1 0 0 1 0 
1 0 1.2560739669470209e-15 1 0 
1 0 0 1 0 
1 0 1.2560739669470209e-15 1 -3.9982076145732869e-16 
1 6.2831853071795862 -5.5861435713737233 -1 0 
1 6.2831853071795862 3.5499999999999989 -1 0 
1 6.2831853071795862 -5.5861435713737215 -1 -2.8271597168564594e-16 
1 6.2831853071795862 3.5499999999999989 -1 0 
Curves 236
1 45 -8.5 -43.850000000000001 -0 1 -0 
2 45 -4.9500000000000099 -48 0 -1 0 0 0 1 -1 0 0 4.1500000000000004
1 45 -8.5 -52.149999999999999 -0 1 -0 
2 45 -8.5 -48 0 1 0 0 0 -1 -1 0 0 4.1500000000000004
1 45 -8.5 -7.8499999999999996 -0 1 -0 
2 45 -4.9500000000000002 -12 0 -1 0 0 0 1 -1 0 0 4.1500000000000004
1 45 -8.5 -16.149999999999999 -0 1 -0 
2 45 -8.5 -12 0 1 0 0 -0 1 1 0 -0 4.1500000000000004
1 45 -1 -39.899999999999999 0 0.70710678118654702 0.70710678118654802 
2 45 -1 -48 0 1 0 0 -0 1 1 0 -0 8.1000000000000192
1 45 -1 -56.100000000000001 8.6595605623549403e-17 0.70710678118654702 -0.70710678118654802 
1 45 -1 -3.8999999999999901 0 0.70710678118654702 0.70710678118654802 
2 45 -1 -12 0 1 0 0 -0 1 1 0 -0 8.1000000000000103
1 45 -1 -20.100000000000001 8.6595605623549403e-17 0.70710678118654702 -0.70710678118654802 
1 45 -1 -39.899999999999999 -0 1 -0 
2 45 -0.5 -48 0 1 0 0 0 -1 -1 0 0 8.0999999999999996
1 45 -1 -56.100000000000001 -0 1 -0 
1 45 -1 -3.8999999999999999 -0 1 -0 
2 45 -0.5 -12 0 1 0 0 -0 1 1 0 -0 8.0999999999999996
1 45 -1 -20.100000000000001 -0 1 -0 
1 4 0 -60 0 0 1 
2 0 0 0 0 0 1 1 0 -0 -0 1 0 4
1 -4 4.8985871965894099e-16 -60 0 0 1 
2 0 0 -14.949999999999999 0 0 -1 1 0 0 0 -1 0 4
1 4 0 -60 0 0 1 
2 0 0 -30 0 0 1 -1 0 0 0 -1 0 4
1 -4 4.8985871965894099e-16 -60 0 0 1 
2 0 0 -44.950000000000003 0 0 -1 1 0 0 0 -1 0 4
1 -7.5 2.49999999999998 -44.950000000000003 0.70710678118654602 0.70710678118654891 0 
1 -7.5 2.49999999999998 -60 0 0 1 
1 -7.5 2.49999999999998 -30 -0.70710678118654602 -0.70710678118654891 0 
1 -3.5 6.5 -60 0 0 1 
1 -3.5 6.5 -44.950000000000003 1 -0 0 
1 -3.5 6.5 -30 -1 0 0 
1 3.5 6.5 -60 0 0 1 
1 7.5 2.49999999999998 -44.950000000000003 0.70710678118654602 -0.70710678118654891 0 
1 7.5 2.49999999999998 -30 -0.70710678118654602 0.70710678118654891 0 
1 7.5 2.49999999999998 -60 0 0 1 
1 7.5 2.49999999999998 -44.950000000000003 0 -1 0 
1 7.5 2.49999999999998 -30 0 1 0 
1 7.5 -0.5 -60 0 0 1 
1 4 -8.5 -44.950000000000003 0 1 0 
1 4 -8.5 -60 0 0 1 
1 4 -8.5 -30 0 -1 0 
1 4 -7.5 -60 0 0 1 
1 0 -7.5 -44.950000000000003 -1 0 0 
1 0 -7.5 -30 1 0 0 
1 0 -7.5 -60 0 0 1 
2 0 0 -44.950000000000003 0 0 -1 1 0 0 0 -1 0 7.5
2 0 0 -30 0 0 1 -1 0 0 0 -1 0 7.5
1 -7.5 9.1848509936051499e-16 -60 0 0 1 
1 -7.5 0 -44.950000000000003 0 1 0 
1 -7.5 0 -30 0 -1 0 
2 0 0 -30 0 0 1 -1 0 0 0 -1 0 4
2 0 0 -44.950000000000003 0 0 -1 1 0 0 0 -1 0 4
1 -7.5 2.49999999999998 -14.949999999999999 0.70710678118654602 0.70710678118654891 0 
1 -7.5 2.49999999999998 -60 0 0 1 
1 -7.5 2.49999999999998 0 -0.70710678118654602 -0.70710678118654891 -0 
1 -3.5 6.5 -60 0 0 1 
1 -3.5 6.5 -14.949999999999999 1 -0 0 
1 -3.5 6.5 0 -1 -0 -0 
1 3.5 6.5 -60 0 0 1 
1 7.5 2.49999999999998 -14.949999999999999 0.70710678118654602 -0.70710678118654891 0 
1 7.5 2.49999999999998 0 -0.70710678118654602 0.70710678118654891 0 
1 7.5 2.49999999999998 -60 0 0 1 
1 7.5 2.49999999999998 -14.949999999999999 0 -1 0 
1 7.5 2.49999999999998 0 -0 1 -0 
1 7.5 -0.5 -60 0 0 1 
1 8.5 -0.5 -60 -8.6736173798840305e-17 0 -1 
1 7.5 -0.5 -44.950000000000003 1 -0 0 
1 7.5 -0.5 -30 -1 0 0 
1 8.5 -0.5 -60 -1.15264018337329e-16 0 -1 
1 7.5 -0.5 -14.949999999999999 1 -0 0 
1 7.5 -0.5 0 -1 -0 -0 
1 56.75 -0.5 -60 0 0 1 
1 7.5 -0.5 -60 -1 -0 -0 
2 45 -0.5 -48 0 1 0 0 0 -1 -1 0 0 8.0999999999999996
2 45 -0.5 -12 0 1 0 0 -0 1 1 0 -0 8.0999999999999996
1 56.75 -0.5 0 -0.70710678118654602 0.70710678118654891 -0 
1 60 -3.75000000000002 -60 0 0 1 
1 56.75 -0.5 -60 -0.70710678118654602 0.70710678118654891 -0 
1 60 -8.5 0 0 1 0 
1 60 -8.5 -60 0 0 1 
1 60 -8.5 -60 0 1 0 
1 8.5 -8.5 -60 8.6736173798840305e-17 0 1 
1 4 -8.5 -60 1 0 0 
1 4 -8.5 0 1 0 0 
1 4 -8.5 -60 0 0 1 
1 4 -8.5 -14.949999999999999 -1 0 0 
1 8.5 -8.5 -60 1.15264018337329e-16 0 1 
1 4 -8.5 -30 1 0 0 
1 4 -8.5 -44.950000000000003 -1 0 0 
2 45 -8.5 -48 0 1 0 0 0 -1 -1 0 0 4.1500000000000004
2 45 -8.5 -12 0 1 0 0 -0 1 1 0 -0 4.1500000000000004
1 4 -8.5 -14.949999999999999 0 1 0 
1 4 -8.5 0 -0 -1 -0 
1 4 -7.5 -60 0 0 1 
1 0 -7.5 -14.949999999999999 -1 0 0 
1 0 -7.5 0 1 0 0 
1 0 -7.5 -60 0 0 1 
2 0 0 -14.949999999999999 0 0 -1 1 0 0 0 -1 0 7.5
2 0 0 0 0 0 1 1 0 -0 -0 1 0 7.5
1 -7.5 9.1848509936051499e-16 -60 0 0 1 
1 -7.5 0 -14.949999999999999 0 1 0 
1 -7.5 0 0 -0 -1 -0 
1 8.5 0 -60 -0 1 0 
2 0 0 0 0 0 1 1 0 -0 -0 1 0 4
2 0 0 -14.949999999999999 0 0 -1 1 0 0 0 -1 0 4
1 8.5000000000000107 -10.5 -30 -0 1 -0 
1 8.5000000000000107 -10.5 -14.949999999999999 -0 1 -0 
1 8.5000000000000107 -10.5 -44.950000000000003 -0 1 -0 
2 45 -1 -12 0 1 0 0 -0 1 1 0 -0 8.1000000000000103
2 45 -1 -48 0 1 0 0 -0 1 1 0 -0 8.1000000000000192
2 45 -4.9500000000000002 -12 0 -1 0 0 0 1 -1 0 0 4.1500000000000004
2 45 -4.9500000000000099 -48 0 -1 0 0 0 1 -1 0 0 4.1500000000000004
2 0 0 -60 0 0 -1 1 0 0 0 -1 0 4
1 -4 4.8985871965894099e-16 -71.313708498984795 0 0 1 
2 0 0 0 0 0 1 1 0 -0 -0 1 0 4
1 4 0 -71.313708498984795 0 0 1 
2 0 0 -60 0 0 -1 1 0 0 0 -1 0 4
2 0 0 0 0 0 1 1 0 -0 -0 1 0 4
1 -45 -8.4999999999999893 -16.149999999999999 1.11022302462516e-16 1 0 
2 -45 -4.9499999999999904 -12 -1.11022302462516e-16 -1 -0 0 0 -1 1 -1.11022302462516e-16 0 4.1500000000000004
1 -45 -8.4999999999999893 -7.8499999999999996 1.11022302462516e-16 1 0 
2 -45 -8.4999999999999893 -12 1.11022302462516e-16 1 -0 0 0 1 1 -1.11022302462516e-16 0 4.1500000000000004
1 -45 -8.4999999999999893 -52.149999999999999 1.11022302462516e-16 1 0 
2 -45 -4.9499999999999904 -48 -1.11022302462516e-16 -1 -0 0 0 -1 1 -1.11022302462516e-16 0 4.1500000000000004
1 -45 -8.4999999999999893 -43.850000000000001 1.11022302462516e-16 1 0 
2 -45 -8.4999999999999893 -48 1.11022302462516e-16 1 0 0 0 -1 -1 1.11022302462516e-16 0 4.1500000000000004
1 -45 -0.999999999999995 -20.100000000000001 7.850462293418861e-17 0.70710678118654702 -0.70710678118654802 
2 -45 -0.999999999999995 -12 1.11022302462516e-16 1 0 0 0 -1 -1 1.11022302462516e-16 0 8.0999999999999996
1 -45 -0.999999999999995 -3.8999999999999999 -8.0909826893607998e-18 0.70710678118654702 0.70710678118654802 
1 -45 -0.999999999999995 -56.100000000000001 7.850462293418861e-17 0.70710678118654702 -0.70710678118654802 
2 -45 -0.999999999999995 -48 1.11022302462516e-16 1 0 0 0 -1 -1 1.11022302462516e-16 0 8.0999999999999996
1 -45 -0.999999999999995 -39.899999999999999 -8.0909826893607998e-18 0.70710678118654702 0.70710678118654802 
1 -45 -0.999999999999995 -20.100000000000001 1.11022302462516e-16 1 0 
2 -45 -0.499999999999995 -12 1.11022302462516e-16 1 -0 0 0 1 1 -1.11022302462516e-16 0 8.0999999999999996
1 -45 -0.999999999999995 -3.8999999999999999 1.11022302462516e-16 1 0 
1 -45 -0.999999999999995 -56.100000000000001 1.11022302462516e-16 1 0 
2 -45 -0.499999999999995 -48 1.11022302462516e-16 1 0 0 0 -1 -1 1.11022302462516e-16 0 8.0999999999999996
1 -45 -0.999999999999995 -39.899999999999999 1.11022302462516e-16 1 0 
1 -4 4.4408920985006202e-16 0 0 0 -1 
2 0 0 -60 0 0 -1 -1 1.11022302462516e-16 0 1.11022302462516e-16 1 0 4
1 4 4.5769509808878901e-17 0 0 0 -1 
2 0 0 -45.049999999999997 0 0 1 -1 1.11022302462516e-16 0 -1.11022302462516e-16 -1 0 4
1 -4 4.4408920985006202e-16 0 0 0 -1 
2 0 0 -30 0 0 -1 1 -1.11022302462516e-16 0 -1.11022302462516e-16 -1 -0 4
1 4 4.5769509808878901e-17 0 0 0 -1 
2 0 0 -15.050000000000001 0 0 1 -1 1.11022302462516e-16 0 -1.11022302462516e-16 -1 0 4
1 7.5 2.49999999999998 -15.050000000000001 -0.70710678118654602 0.70710678118654891 0 
1 7.5 2.49999999999998 0 0 0 -1 
1 7.5 2.49999999999998 -30 0.70710678118654602 -0.70710678118654891 -0 
1 3.5 6.5 0 0 0 -1 
1 3.5 6.5 -15.050000000000001 -1 1.11022302462516e-16 0 
1 3.5 6.5 -30 1 -1.11022302462516e-16 0 
1 -3.5 6.5 0 0 0 -1 
1 -7.5 2.49999999999998 -15.050000000000001 -0.70710678118654602 -0.70710678118654891 0 
1 -7.5 2.49999999999998 -30 0.70710678118654602 0.70710678118654891 0 
1 -7.5 2.49999999999998 0 0 0 -1 
1 -7.5 2.49999999999998 -15.050000000000001 -1.11022302462516e-16 -1 0 
1 -7.5 2.49999999999998 -30 1.11022302462516e-16 1 0 
1 -7.5 -0.5 0 0 0 -1 
1 -4.0000000000000098 -8.5 -15.050000000000001 1.11022302462516e-16 1 0 
1 -4.0000000000000098 -8.5 0 0 0 -1 
1 -4.0000000000000098 -8.5 -30 -1.11022302462516e-16 -1 0 
1 -4.0000000000000098 -7.5 0 0 0 -1 
1 -8.3266726846886701e-16 -7.5 -15.050000000000001 1 -1.11022302462516e-16 0 
1 -8.3266726846886701e-16 -7.5 -30 -1 1.11022302462516e-16 0 
1 -8.3266726846886701e-16 -7.5 0 0 0 -1 
2 0 0 -15.050000000000001 0 0 1 -1 1.11022302462516e-16 0 -1.11022302462516e-16 -1 0 7.5
2 0 0 -30 0 0 -1 1 -1.11022302462516e-16 0 -1.11022302462516e-16 -1 -0 7.5
1 7.5 8.5817830891647796e-17 0 0 0 -1 
1 7.5 -8.3266726846886701e-16 -15.050000000000001 1.11022302462516e-16 1 0 
1 7.5 -8.3266726846886701e-16 -30 -1.11022302462516e-16 -1 0 
2 0 0 -30 0 0 -1 1 -1.11022302462516e-16 0 -1.11022302462516e-16 -1 -0 4
2 0 0 -15.050000000000001 0 0 1 -1 1.11022302462516e-16 0 -1.11022302462516e-16 -1 0 4
1 7.5 2.4999999999999898 -45.049999999999997 -0.70710678118654602 0.70710678118654891 6.1331736667334904e-17 
1 7.5 2.49999999999998 0 0 0 -1 
1 7.5 2.49999999999998 -60 0.70710678118654602 -0.70710678118654891 0 
1 3.5 6.5 0 0 0 -1 
1 3.5 6.5 -45.049999999999997 -1 1.11022302462516e-16 8.6736173798840305e-17 
1 3.5 6.5 -60 1 -1.11022302462516e-16 0 
1 -3.5 6.5 0 0 0 -1 
1 -7.5 2.49999999999998 -45.049999999999997 -0.70710678118654602 -0.70710678118654891 6.1331736667334904e-17 
1 -7.5 2.49999999999998 -60 0.70710678118654602 0.70710678118654891 0 
1 -7.5 2.49999999999998 0 0 0 -1 
1 -7.5 2.49999999999998 -45.049999999999997 -1.11022302462516e-16 -1 0 
1 -7.5 2.49999999999998 -60 1.11022302462516e-16 1 0 
1 -7.5 -0.5 0 0 0 -1 
1 -8.5 -0.5 0 8.6736173798840305e-17 -9.6296497219361697e-33 1 
1 -7.5 -0.5 -15.050000000000001 -1 1.11022302462516e-16 0 
1 -7.5 -0.5 -30 1 -1.11022302462516e-16 0 
1 -8.5 -0.5 0 1.15264018337329e-16 -1.2796876706891899e-32 1 
1 -7.5 -0.5 -45.049999999999997 -1 1.11022302462516e-16 8.6736173798840305e-17 
1 -7.5 -0.5 -60 1 -1.11022302462516e-16 0 
1 -56.75 -0.499999999999994 0 0 0 -1 
1 -7.5 -0.5 0 1 -1.11022302462516e-16 0 
2 -45 -0.499999999999995 -12 1.11022302462516e-16 1 -0 0 0 1 1 -1.11022302462516e-16 0 8.0999999999999996
2 -45 -0.499999999999995 -48 1.11022302462516e-16 1 0 0 0 -1 -1 1.11022302462516e-16 0 8.0999999999999996
1 -56.75 -0.499999999999994 -60 0.70710678118654602 0.70710678118654891 0 
1 -60 -3.7500000000000102 0 0 0 -1 
1 -56.75 -0.499999999999994 0 0.70710678118654602 0.70710678118654891 0 
1 -60 -8.4999999999999893 -60 1.11022302462516e-16 1 0 
1 -60 -8.4999999999999893 0 0 0 -1 
1 -60 -8.4999999999999893 0 1.11022302462516e-16 1 0 
1 -8.5 -8.5 0 -8.6736173798840305e-17 9.6296497219361697e-33 -1 
1 -4.0000000000000098 -8.5 0 -1 1.11022302462516e-16 0 
1 -4.0000000000000098 -8.5 -60 -1 1.11022302462516e-16 0 
1 -4.0000000000000098 -8.5 0 0 0 -1 
1 -4.0000000000000098 -8.5 -45.049999999999997 1 -1.11022302462516e-16 -8.6736173798840305e-17 
1 -8.5 -8.5 0 -1.15264018337329e-16 1.2796876706891899e-32 -1 
1 -4.0000000000000098 -8.5 -30 -1 1.11022302462516e-16 0 
1 -4.0000000000000098 -8.5 -15.050000000000001 1 -1.11022302462516e-16 0 
2 -45 -8.4999999999999893 -12 1.11022302462516e-16 1 -0 0 0 1 1 -1.11022302462516e-16 0 4.1500000000000004
2 -45 -8.4999999999999893 -48 1.11022302462516e-16 1 0 0 0 -1 -1 1.11022302462516e-16 0 4.1500000000000004
1 -4.0000000000000098 -8.5 -45.049999999999997 1.11022302462516e-16 1 0 
1 -4.0000000000000098 -8.5 -60 -1.11022302462516e-16 -1 0 
1 -4.0000000000000098 -7.5 0 0 0 -1 
1 -4.7401318981066301e-15 -7.5 -45.049999999999997 1 -1.11022302462516e-16 -8.6736173798840305e-17 
1 -8.3266726846886701e-16 -7.5 -60 -1 1.11022302462516e-16 0 
1 -8.3266726846886701e-16 -7.5 0 0 0 -1 
2 0 0 -45.049999999999997 0 0 1 -1 1.11022302462516e-16 0 -1.11022302462516e-16 -1 0 7.5
2 0 0 -60 0 0 -1 -1 1.11022302462516e-16 0 1.11022302462516e-16 1 0 7.5
1 7.5 8.5817830891647796e-17 0 0 0 -1 
1 7.5 -8.3266726846886701e-16 -45.049999999999997 1.11022302462516e-16 1 0 
1 7.5 -8.3266726846886701e-16 -60 -1.11022302462516e-16 -1 0 
1 -8.5 9.4368957093138306e-16 0 1.11022302462516e-16 1 0 
2 0 0 -60 0 0 -1 -1 1.11022302462516e-16 0 1.11022302462516e-16 1 0 4
2 0 0 -45.049999999999997 0 0 1 -1 1.11022302462516e-16 0 -1.11022302462516e-16 -1 0 4
1 -8.5000000000000107 -10.5 -30 1.11022302462516e-16 1 0 
1 -8.5000000000000107 -10.5 -45.049999999999997 1.11022302462516e-16 1 0 
1 -8.5000000000000107 -10.5 -15.050000000000001 1.11022302462516e-16 1 0 
2 -45 -0.999999999999995 -48 1.11022302462516e-16 1 0 0 0 -1 -1 1.11022302462516e-16 0 8.0999999999999996
2 -45 -0.999999999999995 -12 1.11022302462516e-16 1 0 0 0 -1 -1 1.11022302462516e-16 0 8.0999999999999996
2 -45 -4.9499999999999904 -48 -1.11022302462516e-16 -1 -0 0 0 -1 1 -1.11022302462516e-16 0 4.1500000000000004
2 -45 -4.9499999999999904 -12 -1.11022302462516e-16 -1 -0 0 0 -1 1 -1.11022302462516e-16 0 4.1500000000000004
Polygon3D 0
PolygonOnTriangulations 0
Surfaces 90
2 45 -8.5 -48 0 1 -0 0 0 1 1 -0 0 4.1500000000000004
2 45 -8.5 -48 0 1 -0 0 0 1 1 -0 0 4.1500000000000004
3 45 -1 -48 -0 1 -0 0 0 1 1 0 -0 8.1000000000000192
0.78539816339744895
1 4 -8.5 -60 0 -1 0 0 0 -1 1 0 0 
2 45 -8.5 -12 0 1 -0 0 0 1 1 -0 0 4.1500000000000004
2 45 -8.5 -12 0 1 -0 0 0 1 1 -0 0 4.1500000000000004
3 45 -1 -12 -0 1 -0 0 0 1 1 0 -0 8.1000000000000103
0.78539816339744895
3 45 -1 -48 -0 1 -0 0 0 1 1 0 -0 8.1000000000000192
0.78539816339744895
2 45 -1 -48 0 1 -0 0 0 1 1 -0 0 8.0999999999999996
3 45 -1 -12 -0 1 -0 0 0 1 1 0 -0 8.1000000000000103
0.78539816339744895
2 45 -1 -12 0 1 -0 0 0 1 1 -0 0 8.0999999999999996
2 45 -1 -48 0 1 -0 0 0 1 1 -0 0 8.0999999999999996
1 7.5 -0.5 -60 -0 1 0 1 0 0 0 0 -1 
2 45 -1 -12 0 1 -0 0 0 1 1 -0 0 8.0999999999999996
2 0 0 -60 -0 0 1 1 0 0 0 1 -0 4
2 0 0 -60 -0 0 1 1 0 0 0 1 -0 4
1 0 0 0 0 0 1 1 0 -0 -0 1 0 
1 -11.5 -10.5 -14.949999999999999 -0 0 1 1 0 0 0 1 -0 
2 0 0 -60 -0 0 1 1 0 0 0 1 -0 4
2 0 0 -60 -0 0 1 1 0 0 0 1 -0 4
1 8.5000000000000107 -10.5 -30 -0 -0 -1 0 -1 0 -1 0 0 
1 -11.5 -10.5 -44.950000000000003 -0 0 1 1 0 0 0 1 -0 
1 -7.5 2.49999999999998 -60 -0.70710678118654902 0.70710678118654602 0 0 0 1 0.70710678118654602 0.70710678118654902 -0 
1 -7.5 0 -60 -1 0 0 0 0 1 0 1 -0 
1 -3.5 6.5 -60 -0 1 0 1 0 0 0 0 -1 
1 7.5 2.49999999999998 -60 0.70710678118654902 0.70710678118654602 0 0 0 -1 -0.70710678118654602 0.70710678118654902 0 
1 7.5 2.49999999999998 -60 1 -0 0 0 1 0 -0 0 1 
1 4 -8.5 -60 -1 0 0 0 0 1 0 1 -0 
1 0 -7.5 -60 0 -1 0 0 0 -1 1 0 0 
2 0 0 -60 -0 0 1 1 0 0 0 1 -0 7.5
1 -7.5 2.49999999999998 -60 -0.70710678118654902 0.70710678118654602 0 0 0 1 0.70710678118654602 0.70710678118654902 -0 
1 -7.5 0 -60 -1 0 0 0 0 1 0 1 -0 
1 -3.5 6.5 -60 -0 1 0 1 0 0 0 0 -1 
1 7.5 2.49999999999998 -60 0.70710678118654902 0.70710678118654602 0 0 0 -1 -0.70710678118654602 0.70710678118654902 0 
1 7.5 2.49999999999998 -60 1 -0 0 0 1 0 -0 0 1 
1 8.5000000000000107 -10.5 -44.950000000000003 1 0 -8.6736173798840305e-17 -8.6736173798840305e-17 0 -1 0 1 0 
1 8.5000000000000107 -10.5 -14.949999999999999 1 0 -1.15264018337329e-16 -1.15264018337329e-16 0 -1 0 1 0 
1 56.75 -0.5 -60 0.70710678118654902 0.70710678118654602 0 0 0 -1 -0.70710678118654602 0.70710678118654902 0 
1 0 0 -60 0 0 1 1 0 -0 -0 1 0 
1 60 -8.5 -60 1 0 0 -0 1 0 0 -0 1 
1 4 -8.5 -60 -1 0 0 0 0 1 0 1 -0 
1 0 -7.5 -60 0 -1 0 0 0 -1 1 0 0 
2 0 0 -60 -0 0 1 1 0 0 0 1 -0 7.5
2 0 0 -71.313708498984795 -0 0 1 1 0 0 0 1 -0 4
1 0 0 -60 0 0 1 1 0 -0 -0 1 0 
2 0 0 -71.313708498984795 -0 0 1 1 0 0 0 1 -0 4
1 0 0 0 0 0 1 1 0 -0 -0 1 0 
2 -45 -8.4999999999999893 -12 1.11022302462516e-16 1 0 0 0 -1 -1 1.11022302462516e-16 0 4.1500000000000004
2 -45 -8.4999999999999893 -12 1.11022302462516e-16 1 0 0 0 -1 -1 1.11022302462516e-16 0 4.1500000000000004
3 -45 -0.999999999999995 -12 1.11022302462516e-16 1 0 0 0 -1 -1 1.11022302462516e-16 0 8.0999999999999996
0.78539816339744895
1 -4.0000000000000098 -8.5 0 -1.11022302462516e-16 -1 0 -1 1.11022302462516e-16 0 -0 0 -1 
2 -45 -8.4999999999999893 -48 1.11022302462516e-16 1 0 0 0 -1 -1 1.11022302462516e-16 0 4.1500000000000004
2 -45 -8.4999999999999893 -48 1.11022302462516e-16 1 0 0 0 -1 -1 1.11022302462516e-16 0 4.1500000000000004
3 -45 -0.999999999999995 -48 1.11022302462516e-16 1 0 0 0 -1 -1 1.11022302462516e-16 0 8.0999999999999996
0.78539816339744895
3 -45 -0.999999999999995 -12 1.11022302462516e-16 1 0 0 0 -1 -1 1.11022302462516e-16 0 8.0999999999999996
0.78539816339744895
2 -45 -0.999999999999995 -12 1.11022302462516e-16 1 0 0 0 -1 -1 1.11022302462516e-16 0 8.0999999999999996
3 -45 -0.999999999999995 -48 1.11022302462516e-16 1 0 0 0 -1 -1 1.11022302462516e-16 0 8.0999999999999996
0.78539816339744895
2 -45 -0.999999999999995 -48 1.11022302462516e-16 1 0 0 0 -1 -1 1.11022302462516e-16 0 8.0999999999999996
2 -45 -0.999999999999995 -12 1.11022302462516e-16 1 0 0 0 -1 -1 1.11022302462516e-16 0 8.0999999999999996
1 -7.5 -0.5 0 1.11022302462516e-16 1 0 1 -1.11022302462516e-16 0 0 0 -1 
2 -45 -0.999999999999995 -48 1.11022302462516e-16 1 0 0 0 -1 -1 1.11022302462516e-16 0 8.0999999999999996
2 0 0 0 0 0 -1 -1 1.11022302462516e-16 0 1.11022302462516e-16 1 0 4
2 0 0 0 0 0 -1 -1 1.11022302462516e-16 0 1.11022302462516e-16 1 0 4
1 0 0 -60 0 0 -1 0 -1 0 -1 -0 -0 
1 11.5 -10.5 -45.049999999999997 1.82708525103958e-49 7.5231638452626401e-33 -1 -1 0 -1.82708525103958e-49 -1.3745461702833583e-81 1 7.5231638452626401e-33 
2 0 0 0 0 0 -1 -1 1.11022302462516e-16 0 1.11022302462516e-16 1 0 4
2 0 0 0 0 0 -1 -1 1.11022302462516e-16 0 1.11022302462516e-16 1 0 4
1 -8.5000000000000107 -10.5 -30 0 0 1 1 0 -0 -0 1 0 
1 11.5 -10.5 -15.050000000000001 0 0 -1 0 -1 0 -1 -0 -0 
1 7.5 2.49999999999998 0 0.70710678118654902 0.70710678118654602 0 0 0 -1 -0.70710678118654602 0.70710678118654902 0 
1 7.5 -8.3266726846886701e-16 0 1 -1.11022302462516e-16 0 -1.11022302462516e-16 -1 0 0 -0 -1 
1 3.5 6.5 0 1.11022302462516e-16 1 0 1 -1.11022302462516e-16 0 0 0 -1 
1 -7.5 2.49999999999998 0 -0.70710678118654902 0.70710678118654602 0 0 0 1 0.70710678118654602 0.70710678118654902 -0 
1 -7.5 2.49999999999998 0 -1 1.11022302462516e-16 0 0 0 1 1.11022302462516e-16 1 -0 
1 -4.0000000000000098 -8.5 0 1 -1.11022302462516e-16 0 -1.11022302462516e-16 -1 0 0 -0 -1 
1 -8.3266726846886701e-16 -7.5 0 -1.11022302462516e-16 -1 0 -1 1.11022302462516e-16 0 -0 0 -1 
2 0 0 0 0 0 -1 -1 1.11022302462516e-16 0 1.11022302462516e-16 1 0 7.5
1 7.5 2.49999999999998 0 0.70710678118654902 0.70710678118654602 0 0 0 -1 -0.70710678118654602 0.70710678118654902 0 
1 7.5 -8.3266726846886701e-16 0 1 -1.11022302462516e-16 0 -1.11022302462516e-16 -1 0 0 -0 -1 
1 3.5 6.5 0 1.11022302462516e-16 1 0 1 -1.11022302462516e-16 0 0 0 -1 
1 -7.5 2.49999999999998 0 -0.70710678118654902 0.70710678118654602 0 0 0 1 0.70710678118654602 0.70710678118654902 -0 
1 -7.5 2.49999999999998 0 -1 1.11022302462516e-16 0 0 0 1 1.11022302462516e-16 1 -0 
1 -8.5000000000000107 -10.5 -15.050000000000001 -1 1.11022302462516e-16 8.6736173798840305e-17 8.6736173798840305e-17 0 1 1.11022302462516e-16 1 -9.6296497219362039e-33 
1 -8.5000000000000107 -10.5 -45.049999999999997 -1 1.11022302462516e-16 1.15264018337329e-16 1.11022302462516e-16 1 0 -1.15264018337329e-16 1.2796876706891932e-32 -1 
1 -56.75 -0.499999999999994 0 -0.70710678118654902 0.70710678118654602 0 0 0 1 0.70710678118654602 0.70710678118654902 -0 
1 0 0 0 0 0 -1 0 -1 0 -1 -0 -0 
1 -60 -8.4999999999999893 0 -1 1.11022302462516e-16 0 0 0 1 1.11022302462516e-16 1 -0 
1 -4.0000000000000098 -8.5 0 1 -1.11022302462516e-16 0 -1.11022302462516e-16 -1 0 0 -0 -1 
1 -8.3266726846886701e-16 -7.5 0 -1.11022302462516e-16 -1 0 -1 1.11022302462516e-16 0 -0 0 -1 
2 0 0 0 0 0 -1 -1 1.11022302462516e-16 0 1.11022302462516e-16 1 0 7.5
Triangulations 0

TShapes 591
Ve
1e-07
45 -8.5 -43.85
0 0

0101101
*
Ve
1e-07
45 -4.95000000000001 -43.85
0 0

0101101
*
Ed
 1e-07 1 1 0
1  1 0 0 3.54999999999999
2  1 1 0 0 3.54999999999999
2  2 2 0 0 3.54999999999999
4 CN 1 0 2 0
0

0101000
+591 0 -590 0 *
Ve
1e-07
45 -4.95000000000001 -52.15
0 0

0101101
*
Ed
 1e-07 1 1 0
1  2 0 0 3.14159265358979
2  3 1 0 0 3.14159265358979
2  4 3 0 0 3.14159265358979
4 C0 1 0 3 0
0

0101000
+590 0 -588 0 *
Ve
1e-07
45 -8.5 -52.15
0 0

0101101
*
Ed
 1e-07 1 1 0
1  3 0 0 3.54999999999999
2  5 1 0 0 3.54999999999999
2  6 2 0 0 3.54999999999999
4 CN 1 0 2 0
0

0101000
+586 0 -588 0 *
Ed
 1e-07 1 1 0
1  4 0 0 3.14159265358979
2  7 1 0 0 3.14159265358979
4 C0 1 0 4 0
0

0101000
+586 0 -591 0 *
Wi

0101100
+589 0 +587 0 -585 0 +584 0 *
Fa
0  1e-07 1 0

0111000
+583 0 *
Ve
1e-07
45 -8.5 -7.85
0 0

0101101
*
Ve
1e-07
45 -4.95 -7.85
0 0

0101101
*
Ed
 1e-07 1 1 0
1  5 0 0 3.55
2  8 5 0 0 3.55
2  9 6 0 0 3.55
4 CN 5 0 6 0
0

0101000
+581 0 -580 0 *
Ve
1e-07
45 -4.95 -16.15
0 0

0101101
*
Ed
 1e-07 1 1 0
1  6 0 0 3.14159265358979
2  10 5 0 0 3.14159265358979
2  11 7 0 0 3.14159265358979
4 C0 5 0 7 0
0

0101000
+580 0 -578 0 *
Ve
1e-07
45 -8.5 -16.15
0 0

0101101
*
Ed
 1e-07 1 1 0
1  7 0 0 3.55
2  12 5 0 0 3.55
2  13 6 0 0 3.55
4 CN 5 0 6 0
0

0101000
+576 0 -578 0 *
Ed
 1e-07 1 1 0
1  8 0 3.14159265358979 6.28318530717959
2  14 5 0 3.14159265358979 6.28318530717959
4 C0 5 0 4 0
0

0101000
+576 0 -581 0 *
Wi

0101100
+579 0 +577 0 -575 0 +574 0 *
Fa
0  1e-07 5 0

0111000
+573 0 *
Ve
1e-07
45 -1 -39.9
0 0

0101101
*
Ed
 1e-07 1 1 0
1  9 0 -5.58614357137373 0
2  15 3 0 -5.58614357137373 0
2  16 8 0 -5.58614357137373 0
4 CN 3 0 8 0
0

0101000
+590 0 -571 0 *
Ve
1e-07
45 -1 -56.1
0 0

0101101
*
Ed
 1e-07 1 1 0
1  10 0 3.14159265358979 6.28318530717959
2  17 3 0 3.14159265358979 6.28318530717959
2  18 9 0 3.14159265358979 6.28318530717959
4 C0 3 0 9 0
0

0101000
+569 0 -571 0 *
Ed
 1e-07 1 1 0
1  11 0 -5.58614357137373 0
2  19 3 0 -5.58614357137373 0
2  20 8 0 -5.58614357137373 0
4 CN 3 0 8 0
0

0101000
+588 0 -569 0 *
Wi

0101100
+570 0 -568 0 -567 0 -587 0 *
Fa
0  1e-07 3 0

0111000
+566 0 *
Ve
1e-07
45 -1 -3.89999999999999
0 0

0101101
*
Ed
 1e-07 1 1 0
1  12 0 -5.58614357137373 0
2  21 7 0 -5.58614357137373 0
2  22 10 0 -5.58614357137373 0
4 CN 7 0 10 0
0

0101000
+580 0 -564 0 *
Ve
1e-07
45 -1 -20.1
0 0

0101101
*
Ed
 1e-07 1 1 0
1  13 0 3.14159265358979 6.28318530717959
2  23 7 0 3.14159265358979 6.28318530717959
2  24 11 0 3.14159265358979 6.28318530717959
4 C0 7 0 11 0
0

0101000
+562 0 -564 0 *
Ed
 1e-07 1 1 0
1  14 0 -5.58614357137373 0
2  25 7 0 -5.58614357137373 0
2  26 10 0 -5.58614357137373 0
4 CN 7 0 10 0
0

0101000
+578 0 -562 0 *
Wi

0101100
+563 0 -561 0 -560 0 -577 0 *
Fa
0  1e-07 7 0

0111000
+559 0 *
Ve
1e-07
45 -0.5 -39.9
0 0

0101101
*
Ed
 1e-07 1 1 0
1  15 0 0 0.5
2  27 9 0 0 0.5
2  28 12 0 0 0.5
4 CN 9 0 12 0
0

0101000
+571 0 -557 0 *
Ve
1e-07
45 -0.5 -56.1
0 0

0101101
*
Ed
 1e-07 1 1 0
1  16 0 0 3.14159265358979
2  29 9 0 0 3.14159265358979
4 C0 9 0 13 0
0

0101000
+555 0 -557 0 *
Ed
 1e-07 1 1 0
1  17 0 0 0.5
2  30 9 0 0 0.5
2  31 12 0 0 0.5
4 CN 9 0 12 0
0

0101000
+569 0 -555 0 *
Wi

0101100
+556 0 -554 0 -553 0 +568 0 *
Fa
0  1e-07 9 0

0111000
+552 0 *
Ve
1e-07
45 -0.5 -3.9
0 0

0101101
*
Ed
 1e-07 1 1 0
1  18 0 0 0.5
2  32 11 0 0 0.5
2  33 14 0 0 0.5
4 CN 11 0 14 0
0

0101000
+564 0 -550 0 *
Ve
1e-07
45 -0.5 -20.1
0 0

0101101
*
Ed
 1e-07 1 1 0
1  19 0 3.14159265358979 6.28318530717959
2  34 11 0 3.14159265358979 6.28318530717959
4 C0 11 0 13 0
0

0101000
+548 0 -550 0 *
Ed
 1e-07 1 1 0
1  20 0 0 0.5
2  35 11 0 0 0.5
2  36 14 0 0 0.5
4 CN 11 0 14 0
0

0101000
+562 0 -548 0 *
Wi

0101100
+549 0 -547 0 -546 0 +561 0 *
Fa
0  1e-07 11 0

0111000
+545 0 *
Ve
1e-07
4 0 -14.95
0 0

0101101
*
Ve
1e-07
4 0 0
0 0

0101101
*
Ed
 1e-07 1 1 0
1  21 0 45.05 60
2  37 15 0 45.05 60
2  38 16 0 45.05 60
4 CN 15 0 16 0
0

0101000
+543 0 -542 0 *
Ve
1e-07
-4 4.89858719658941e-16 0
0 0

0101101
*
Ed
 1e-07 1 1 0
1  22 0 3.14159265358979 6.28318530717959
2  39 15 0 3.14159265358979 6.28318530717959
4 C0 15 0 17 0
0

0101000
+540 0 -542 0 *
Ve
1e-07
-4 4.89858719658941e-16 -14.95
0 0

0101101
*
Ed
 1e-07 1 1 0
1  23 0 45.05 60
2  40 15 0 45.05 60
2  41 16 0 45.05 60
4 CN 15 0 16 0
0

0101000
+538 0 -540 0 *
Ed
 1e-07 1 1 0
1  24 0 0 3.14159265358979
2  42 15 0 0 3.14159265358979
4 C0 15 0 18 0
0

0101000
+543 0 -538 0 *
Wi

0101100
+541 0 -539 0 -537 0 -536 0 *
Fa
0  1e-07 15 0

0111000
+535 0 *
Ve
1e-07
4 0 -44.95
0 0

0101101
*
Ve
1e-07
4 0 -30
0 0

0101101
*
Ed
 1e-07 1 1 0
1  25 0 15.05 30
2  43 19 0 15.05 30
2  44 20 0 15.05 30
4 CN 19 0 20 0
0

0101000
+533 0 -532 0 *
Ve
1e-07
-4 4.89858719658941e-16 -30
0 0

0101101
*
Ed
 1e-07 1 1 0
1  26 0 0 3.14159265358979
2  45 19 0 0 3.14159265358979
4 C0 19 0 21 0
0

0101000
+530 0 -532 0 *
Ve
1e-07
-4 4.89858719658941e-16 -44.95
0 0

0101101
*
Ed
 1e-07 1 1 0
1  27 0 15.05 30
2  46 19 0 15.05 30
2  47 20 0 15.05 30
4 CN 19 0 20 0
0

0101000
+528 0 -530 0 *
Ed
 1e-07 1 1 0
1  28 0 0 3.14159265358979
2  48 19 0 0 3.14159265358979
4 C0 19 0 22 0
0

0101000
+533 0 -528 0 *
Wi

0101100
+531 0 -529 0 -527 0 -526 0 *
Fa
0  1e-07 19 0

0111000
+525 0 *
Ve
1e-07
-7.5 2.49999999999998 -44.95
0 0

0101101
*
Ve
1e-07
-3.5 6.5 -44.95
0 0

0101101
*
Ed
 1e-07 1 1 0
1  29 0 0 5.65685424949239
4 C0 23 0 22 0
0

0101000
+523 0 -522 0 *
Ve
1e-07
-7.5 2.49999999999998 -30
0 0

0101101
*
Ed
 1e-07 1 1 0
1  30 0 15.05 30
4 C0 23 0 24 0
0

0101000
+523 0 -520 0 *
Ve
1e-07
-3.5 6.5 -30
0 0

0101101
*
Ed
 1e-07 1 1 0
1  31 0 -5.65685424949239 0
4 C0 23 0 21 0
0

0101000
+518 0 -520 0 *
Ed
 1e-07 1 1 0
1  32 0 15.05 30
4 C0 23 0 25 0
0

0101000
+522 0 -518 0 *
Wi

0101100
-521 0 +519 0 -517 0 -516 0 *
Fa
0  1e-07 23 0

0111000
+515 0 *
Ve
1e-07
3.5 6.5 -44.95
0 0

0101101
*
Ed
 1e-07 1 1 0
1  33 0 0 7
4 C0 25 0 22 0
0

0101000
+522 0 -513 0 *
Ve
1e-07
3.5 6.5 -30
0 0

0101101
*
Ed
 1e-07 1 1 0
1  34 0 -7 0
4 C0 25 0 21 0
0

0101000
+511 0 -518 0 *
Ed
 1e-07 1 1 0
1  35 0 15.05 30
4 C0 25 0 26 0
0

0101000
+513 0 -511 0 *
Wi

0101100
-512 0 +516 0 -510 0 -509 0 *
Fa
0  1e-07 25 0

0111000
+508 0 *
Ve
1e-07
7.5 2.49999999999998 -44.95
0 0

0101101
*
Ed
 1e-07 1 1 0
1  36 0 -5.65685424949239 0
4 C0 26 0 22 0
0

0101000
+513 0 -506 0 *
Ve
1e-07
7.5 2.49999999999998 -30
0 0

0101101
*
Ed
 1e-07 1 1 0
1  37 0 0 5.65685424949239
4 C0 26 0 21 0
0

0101000
+504 0 -511 0 *
Ed
 1e-07 1 1 0
1  38 0 15.05 30
4 C0 26 0 27 0
0

0101000
+506 0 -504 0 *
Wi

0101100
-505 0 +509 0 -503 0 -502 0 *
Fa
0  1e-07 26 0

0111000
+501 0 *
Ve
1e-07
7.5 -0.5 -44.95
0 0

0101101
*
Ed
 1e-07 1 1 0
1  39 0 0 2.99999999999998
4 C0 27 0 22 0
0

0101000
+506 0 -499 0 *
Ve
1e-07
7.5 -0.5 -30
0 0

0101101
*
Ed
 1e-07 1 1 0
1  40 0 -2.99999999999998 0
4 C0 27 0 21 0
0

0101000
+497 0 -504 0 *
Ed
 1e-07 1 1 0
1  41 0 15.05 30
4 C0 27 0 13 0
0

0101000
+499 0 -497 0 *
Wi

0101100
-498 0 +502 0 -496 0 -495 0 *
Fa
0  1e-07 27 0

0111000
+494 0 *
Ve
1e-07
4 -8.5 -44.95
0 0

0101101
*
Ve
1e-07
4 -7.5 -44.95
0 0

0101101
*
Ed
 1e-07 1 1 0
1  42 0 0 1
4 C0 28 0 22 0
0

0101000
+492 0 -491 0 *
Ve
1e-07
4 -8.5 -30
0 0

0101101
*
Ed
 1e-07 1 1 0
1  43 0 15.05 30
4 C0 28 0 4 0
0

0101000
+492 0 -489 0 *
Ve
1e-07
4 -7.5 -30
0 0

0101101
*
Ed
 1e-07 1 1 0
1  44 0 -1 0
4 C0 28 0 21 0
0

0101000
+487 0 -489 0 *
Ed
 1e-07 1 1 0
1  45 0 15.05 30
4 C0 28 0 29 0
0

0101000
+491 0 -487 0 *
Wi

0101100
-490 0 +488 0 -486 0 -485 0 *
Fa
0  1e-07 28 0

0111000
+484 0 *
Ve
1e-07
0 -7.5 -44.95
0 0

0101101
*
Ed
 1e-07 1 1 0
1  46 0 -4 0
4 C0 29 0 22 0
0

0101000
+491 0 -482 0 *
Ve
1e-07
0 -7.5 -30
0 0

0101101
*
Ed
 1e-07 1 1 0
1  47 0 0 4
4 C0 29 0 21 0
0

0101000
+480 0 -487 0 *
Ed
 1e-07 1 1 0
1  48 0 15.05 30
2  49 30 0 15.05 30
4 G1 29 0 30 0
0

0101000
+482 0 -480 0 *
Wi

0101100
-481 0 +485 0 -479 0 -478 0 *
Fa
0  1e-07 29 0

0111000
+477 0 *
Ve
1e-07
-7.5 9.18485099360515e-16 -44.95
0 0

0101101
*
Ed
 1e-07 1 1 0
1  49 0 1.5707963267949 3.14159265358979
2  50 30 0 1.5707963267949 3.14159265358979
4 C0 30 0 22 0
0

0101000
+482 0 -475 0 *
Ve
1e-07
-7.5 9.18488117289081e-16 -30
0 0

0101101
*
Ed
 1e-07 1 1 0
1  50 0 0 1.5707963267949
2  51 30 0 0 1.5707963267949
4 C0 30 0 21 0
0

0101000
+473 0 -480 0 *
Ed
 1e-07 1 1 0
1  51 0 15.05 30
2  52 30 0 15.05 30
4 G1 30 0 24 0
0

0101000
+475 0 -473 0 *
Wi

0101100
-474 0 +478 0 -472 0 -471 0 *
Fa
0  1e-07 30 0

0111000
+470 0 *
Ed
 1e-07 1 1 0
1  52 0 9.18485099360515e-16 2.49999999999998
4 C0 24 0 22 0
0

0101000
+475 0 -523 0 *
Ed
 1e-07 1 1 0
1  53 0 -2.49999999999998 -9.18488117289081e-16
4 C0 24 0 21 0
0

0101000
+520 0 -473 0 *
Wi

0101100
-468 0 +471 0 -467 0 -519 0 *
Fa
0  1e-07 24 0

0111000
+466 0 *
Ed
 1e-07 1 1 0
1  54 0 3.14159265358979 6.28318530717959
2  53 20 0 3.14159265358979 6.28318530717959
4 C0 20 0 21 0
0

0101000
+532 0 -530 0 *
Ed
 1e-07 1 1 0
1  55 0 3.14159265358979 6.28318530717959
2  54 20 0 3.14159265358979 6.28318530717959
4 C0 20 0 22 0
0

0101000
+528 0 -533 0 *
Wi

0101100
-464 0 -531 0 -463 0 +527 0 *
Fa
0  1e-07 20 0

0111000
+462 0 *
Ve
1e-07
-7.5 2.49999999999998 -14.95
0 0

0101101
*
Ve
1e-07
-3.5 6.5 -14.95
0 0

0101101
*
Ed
 1e-07 1 1 0
1  56 0 0 5.65685424949239
4 C0 31 0 18 0
0

0101000
+460 0 -459 0 *
Ve
1e-07
-7.5 2.49999999999998 0
0 0

0101101
*
Ed
 1e-07 1 1 0
1  57 0 45.05 60
4 C0 31 0 32 0
0

0101000
+460 0 -457 0 *
Ve
1e-07
-3.5 6.5 0
0 0

0101101
*
Ed
 1e-07 1 1 0
1  58 0 -5.65685424949239 -0
4 C0 31 0 17 0
0

0101000
+455 0 -457 0 *
Ed
 1e-07 1 1 0
1  59 0 45.05 60
4 C0 31 0 33 0
0

0101000
+459 0 -455 0 *
Wi

0101100
-458 0 +456 0 -454 0 -453 0 *
Fa
0  1e-07 31 0

0111000
+452 0 *
Ve
1e-07
3.5 6.5 -14.95
0 0

0101101
*
Ed
 1e-07 1 1 0
1  60 0 0 7
4 C0 33 0 18 0
0

0101000
+459 0 -450 0 *
Ve
1e-07
3.5 6.5 0
0 0

0101101
*
Ed
 1e-07 1 1 0
1  61 0 -7 -0
4 C0 33 0 17 0
0

0101000
+448 0 -455 0 *
Ed
 1e-07 1 1 0
1  62 0 45.05 60
4 C0 33 0 34 0
0

0101000
+450 0 -448 0 *
Wi

0101100
-449 0 +453 0 -447 0 -446 0 *
Fa
0  1e-07 33 0

0111000
+445 0 *
Ve
1e-07
7.5 2.49999999999998 -14.95
0 0

0101101
*
Ed
 1e-07 1 1 0
1  63 0 -5.65685424949239 0
4 C0 34 0 18 0
0

0101000
+450 0 -443 0 *
Ve
1e-07
7.5 2.49999999999998 0
0 0

0101101
*
Ed
 1e-07 1 1 0
1  64 0 0 5.65685424949239
4 C0 34 0 17 0
0

0101000
+441 0 -448 0 *
Ed
 1e-07 1 1 0
1  65 0 45.05 60
4 C0 34 0 35 0
0

0101000
+443 0 -441 0 *
Wi

0101100
-442 0 +446 0 -440 0 -439 0 *
Fa
0  1e-07 34 0

0111000
+438 0 *
Ve
1e-07
7.5 -0.5 -14.95
0 0

0101101
*
Ed
 1e-07 1 1 0
1  66 0 0 2.99999999999998
4 C0 35 0 18 0
0

0101000
+443 0 -436 0 *
Ve
1e-07
7.5 -0.5 0
0 0

0101101
*
Ed
 1e-07 1 1 0
1  67 0 -2.99999999999998 0
4 C0 35 0 17 0
0

0101000
+434 0 -441 0 *
Ed
 1e-07 1 1 0
1  68 0 45.05 60
4 C0 35 0 13 0
0

0101000
+436 0 -434 0 *
Wi

0101100
-435 0 +439 0 -433 0 -432 0 *
Fa
0  1e-07 35 0

0111000
+431 0 *
Ve
1e-07
8.50000000000001 -0.5 -44.95
0 0

0101101
*
Ve
1e-07
8.5 -0.5 -60
0 0

0101101
*
Ed
 1e-07 1 1 0
1  69 0 -15.05 0
4 C0 13 0 36 0
0

0101000
+429 0 -428 0 *
Ed
 1e-07 1 1 0
1  70 0 0 1.00000000000001
4 C0 13 0 22 0
0

0101000
+499 0 -429 0 *
Ve
1e-07
8.50000000000001 -0.5 -30
0 0

0101101
*
Ed
 1e-07 1 1 0
1  71 0 -1.00000000000001 0
4 C0 13 0 21 0
0

0101000
+425 0 -497 0 *
Ve
1e-07
8.50000000000001 -0.5 -14.95
0 0

0101101
*
Ed
 1e-07 1 1 0
1  72 0 -45.05 -30
4 C0 13 0 37 0
0

0101000
+423 0 -425 0 *
Ed
 1e-07 1 1 0
1  73 0 0 1.00000000000001
4 C0 13 0 18 0
0

0101000
+436 0 -423 0 *
Ve
1e-07
56.75 -0.5 0
0 0

0101101
*
Ed
 1e-07 1 1 0
1  74 0 -49.25 -0
4 C0 13 0 17 0
0

0101000
+420 0 -434 0 *
Ve
1e-07
56.75 -0.5 -60
0 0

0101101
*
Ed
 1e-07 1 1 0
1  75 0 0 60
4 C0 13 0 38 0
0

0101000
+418 0 -420 0 *
Ed
 1e-07 1 1 0
1  76 0 -49.25 -1
4 C0 13 0 39 0
0

0101000
+418 0 -428 0 *
Wi

0101100
-427 0 -426 0 +495 0 -424 0 -422 0 -421 0 +432 0 -419 0 -417 0 +416 0 
*
Ed
 1e-07 1 1 0
1  77 0 3.14159265358979 6.28318530717959
2  55 12 0 3.14159265358979 6.28318530717959
4 C0 13 0 12 0
0

0101000
+557 0 -555 0 *
Wi

0101100
-414 0 -554 0 *
Ed
 1e-07 1 1 0
1  78 0 0 3.14159265358979
2  56 14 0 0 3.14159265358979
4 C0 13 0 14 0
0

0101000
+550 0 -548 0 *
Wi

0101100
-412 0 -547 0 *
Fa
0  1e-07 13 0

0111000
+415 0 +413 0 +411 0 *
Ve
1e-07
60 -3.75000000000002 0
0 0

0101101
*
Ed
 1e-07 1 1 0
1  79 0 -4.59619407771257 0
4 C0 38 0 17 0
0

0101000
+409 0 -420 0 *
Ve
1e-07
60 -3.75000000000002 -60
0 0

0101101
*
Ed
 1e-07 1 1 0
1  80 0 0 60
4 C0 38 0 40 0
0

0101000
+407 0 -409 0 *
Ed
 1e-07 1 1 0
1  81 0 -4.59619407771257 0
4 C0 38 0 39 0
0

0101000
+407 0 -418 0 *
Wi

0101100
-408 0 -406 0 +405 0 +417 0 *
Fa
0  1e-07 38 0

0111000
+404 0 *
Ve
1e-07
60 -8.5 0
0 0

0101101
*
Ed
 1e-07 1 1 0
1  82 0 0 4.74999999999998
4 C0 40 0 17 0
0

0101000
+402 0 -409 0 *
Ve
1e-07
60 -8.5 -60
0 0

0101101
*
Ed
 1e-07 1 1 0
1  83 0 0 60
4 C0 40 0 4 0
0

0101000
+400 0 -402 0 *
Ed
 1e-07 1 1 0
1  84 0 0 4.74999999999998
4 C0 40 0 39 0
0

0101000
+400 0 -407 0 *
Wi

0101100
-401 0 -399 0 +398 0 +406 0 *
Fa
0  1e-07 40 0

0111000
+397 0 *
Ve
1e-07
8.5 -8.5 -60
0 0

0101101
*
Ve
1e-07
8.50000000000001 -8.5 -44.95
0 0

0101101
*
Ed
 1e-07 1 1 0
1  85 0 0 15.05
4 C0 4 0 36 0
0

0101000
+395 0 -394 0 *
Ed
 1e-07 1 1 0
1  86 0 4.5 56
4 C0 4 0 39 0
0

0101000
+395 0 -400 0 *
Ve
1e-07
4 -8.5 0
0 0

0101101
*
Ed
 1e-07 1 1 0
1  87 0 0 56
4 C0 4 0 17 0
0

0101000
+391 0 -402 0 *
Ve
1e-07
4 -8.5 -14.95
0 0

0101101
*
Ed
 1e-07 1 1 0
1  88 0 45.05 60
4 C0 4 0 41 0
0

0101000
+389 0 -391 0 *
Ve
1e-07
8.50000000000001 -8.5 -14.95
0 0

0101101
*
Ed
 1e-07 1 1 0
1  89 0 -4.50000000000001 0
4 C0 4 0 18 0
0

0101000
+387 0 -389 0 *
Ve
1e-07
8.50000000000001 -8.5 -30
0 0

0101101
*
Ed
 1e-07 1 1 0
1  90 0 30 45.05
4 C0 4 0 37 0
0

0101000
+385 0 -387 0 *
Ed
 1e-07 1 1 0
1  91 0 0 4.50000000000001
4 C0 4 0 21 0
0

0101000
+489 0 -385 0 *
Ed
 1e-07 1 1 0
1  92 0 -4.50000000000001 0
4 C0 4 0 22 0
0

0101000
+394 0 -492 0 *
Wi

0101100
-393 0 +392 0 +399 0 -390 0 -388 0 -386 0 -384 0 -383 0 -488 0 -382 0 
*
Ed
 1e-07 1 1 0
1  93 0 3.14159265358979 6.28318530717959
2  57 2 0 3.14159265358979 6.28318530717959
4 C0 4 0 2 0
0

0101000
+591 0 -586 0 *
Wi

0101100
+380 0 +584 0 *
Ed
 1e-07 1 1 0
1  94 0 0 3.14159265358979
2  58 6 0 0 3.14159265358979
4 C0 4 0 6 0
0

0101000
+581 0 -576 0 *
Wi

0101100
+378 0 +574 0 *
Fa
0  1e-07 4 0

0111000
+381 0 +379 0 +377 0 *
Ve
1e-07
4 -7.5 -14.95
0 0

0101101
*
Ed
 1e-07 1 1 0
1  95 0 0 1
4 C0 41 0 18 0
0

0101000
+389 0 -375 0 *
Ve
1e-07
4 -7.5 0
0 0

0101101
*
Ed
 1e-07 1 1 0
1  96 0 -1 -0
4 C0 41 0 17 0
0

0101000
+373 0 -391 0 *
Ed
 1e-07 1 1 0
1  97 0 45.05 60
4 C0 41 0 42 0
0

0101000
+375 0 -373 0 *
Wi

0101100
-374 0 +388 0 -372 0 -371 0 *
Fa
0  1e-07 41 0

0111000
+370 0 *
Ve
1e-07
0 -7.5 -14.95
0 0

0101101
*
Ed
 1e-07 1 1 0
1  98 0 -4 0
4 C0 42 0 18 0
0

0101000
+375 0 -368 0 *
Ve
1e-07
0 -7.5 0
0 0

0101101
*
Ed
 1e-07 1 1 0
1  99 0 0 4
4 C0 42 0 17 0
0

0101000
+366 0 -373 0 *
Ed
 1e-07 1 1 0
1  100 0 45.05 60
2  59 43 0 45.05 60
4 G1 42 0 43 0
0

0101000
+368 0 -366 0 *
Wi

0101100
-367 0 +371 0 -365 0 -364 0 *
Fa
0  1e-07 42 0

0111000
+363 0 *
Ve
1e-07
-7.5 9.18485099360515e-16 -14.95
0 0

0101101
*
Ed
 1e-07 1 1 0
1  101 0 1.5707963267949 3.14159265358979
2  60 43 0 1.5707963267949 3.14159265358979
4 C0 43 0 18 0
0

0101000
+368 0 -361 0 *
Ve
1e-07
-7.5 9.18485099360515e-16 0
0 0

0101101
*
Ed
 1e-07 1 1 0
1  102 0 3.14159265358979 4.71238898038469
2  61 43 0 3.14159265358979 4.71238898038469
4 C0 43 0 17 0
0

0101000
+359 0 -366 0 *
Ed
 1e-07 1 1 0
1  103 0 45.05 60
2  62 43 0 45.05 60
4 G1 43 0 32 0
0

0101000
+361 0 -359 0 *
Wi

0101100
-360 0 +364 0 -358 0 -357 0 *
Fa
0  1e-07 43 0

0111000
+356 0 *
Ed
 1e-07 1 1 0
1  104 0 9.18485099360515e-16 2.49999999999998
4 C0 32 0 18 0
0

0101000
+361 0 -460 0 *
Ed
 1e-07 1 1 0
1  105 0 -2.49999999999998 -9.18485099360515e-16
4 C0 32 0 17 0
0

0101000
+457 0 -359 0 *
Wi

0101100
-354 0 +357 0 -353 0 -456 0 *
Fa
0  1e-07 32 0

0111000
+352 0 *
Ed
 1e-07 1 1 0
1  106 0 -8.5 -0.5
4 C0 39 0 36 0
0

0101000
+395 0 -428 0 *
Wi

0101100
-392 0 +350 0 -416 0 -405 0 -398 0 *
Fa
0  1e-07 39 0

0111000
-349 0 *
Wi

0101100
+454 0 +353 0 +358 0 +365 0 +372 0 +390 0 +401 0 +408 0 +419 0 +433 0 
+440 0 +447 0 *
Ed
 1e-07 1 1 0
1  107 0 0 3.14159265358979
2  63 16 0 0 3.14159265358979
4 C0 17 0 16 0
0

0101000
+542 0 -540 0 *
Wi

0101100
-346 0 -539 0 *
Fa
0  1e-07 17 0

0111000
+347 0 +345 0 *
Ed
 1e-07 1 1 0
1  108 0 3.14159265358979 6.28318530717959
2  64 16 0 3.14159265358979 6.28318530717959
4 C0 16 0 18 0
0

0101000
+538 0 -543 0 *
Wi

0101100
-346 0 -541 0 -343 0 +537 0 *
Fa
0  1e-07 16 0

0111000
+342 0 *
Ed
 1e-07 1 1 0
1  109 0 2 10
4 C0 21 0 37 0
0

0101000
+385 0 -425 0 *
Wi

0101100
+424 0 +496 0 +503 0 +510 0 +517 0 +467 0 +472 0 +479 0 +486 0 +383 0 
+340 0 *
Wi

0101100
-464 0 -529 0 *
Fa
0  1e-07 21 0

0111000
-339 0 -338 0 *
Ed
 1e-07 1 1 0
1  110 0 2 10
4 C0 18 0 37 0
0

0101000
+387 0 -423 0 *
Wi

0101100
+421 0 -336 0 +386 0 +374 0 +367 0 +360 0 +354 0 +458 0 +449 0 +442 0 
+435 0 *
Wi

0101100
-536 0 -343 0 *
Fa
0  1e-07 18 0

0111000
-335 0 -334 0 *
Wi

0101100
+422 0 -340 0 +384 0 +336 0 *
Fa
0  1e-07 37 0

0111000
-332 0 *
Ed
 1e-07 1 1 0
1  111 0 2 10
4 C0 22 0 36 0
0

0101000
+394 0 -429 0 *
Wi

0101100
+426 0 -330 0 +382 0 +490 0 +481 0 +474 0 +468 0 +521 0 +512 0 +505 0 
+498 0 *
Wi

0101100
-526 0 -463 0 *
Fa
0  1e-07 22 0

0111000
-329 0 -328 0 *
Wi

0101100
+427 0 -350 0 +393 0 +330 0 *
Fa
0  1e-07 36 0

0111000
-326 0 *
Ed
 1e-07 1 1 0
1  112 0 0 3.14159265358979
2  65 14 0 0 3.14159265358979
2  66 10 0 0 3.14159265358979
4 C0 14 0 10 0
0

0101000
+564 0 -562 0 *
Wi

0101100
-412 0 -549 0 +324 0 +546 0 *
Fa
0  1e-07 14 0

0111000
+323 0 *
Ed
 1e-07 1 1 0
1  113 0 0 3.14159265358979
2  67 12 0 0 3.14159265358979
2  68 8 0 0 3.14159265358979
4 C0 12 0 8 0
0

0101000
+571 0 -569 0 *
Wi

0101100
-414 0 -556 0 +321 0 +553 0 *
Fa
0  1e-07 12 0

0111000
+320 0 *
Ed
 1e-07 1 1 0
1  114 0 3.14159265358979 6.28318530717959
2  69 10 0 3.14159265358979 6.28318530717959
2  70 6 0 3.14159265358979 6.28318530717959
4 C0 10 0 6 0
0

0101000
+578 0 -580 0 *
Wi

0101100
-324 0 -563 0 -318 0 +560 0 *
Fa
0  1e-07 10 0

0111000
+317 0 *
Ed
 1e-07 1 1 0
1  115 0 3.14159265358979 6.28318530717959
2  71 8 0 3.14159265358979 6.28318530717959
2  72 2 0 3.14159265358979 6.28318530717959
4 C0 8 0 2 0
0

0101000
+588 0 -590 0 *
Wi

0101100
-321 0 -570 0 -315 0 +567 0 *
Fa
0  1e-07 8 0

0111000
+314 0 *
Wi

0101100
+318 0 -579 0 +378 0 +575 0 *
Fa
0  1e-07 6 0

0111000
+312 0 *
Wi

0101100
+315 0 -589 0 +380 0 +585 0 *
Fa
0  1e-07 2 0

0111000
+310 0 *
Sh

0101100
-582 0 -572 0 -565 0 -558 0 -551 0 -544 0 -534 0 -524 0 +514 0 +507 0 
+500 0 +493 0 +483 0 +476 0 +469 0 +465 0 -461 0 +451 0 +444 0 +437 0 
+430 0 +410 0 +403 0 +396 0 +376 0 +369 0 +362 0 +355 0 +351 0 -348 0 
+344 0 -341 0 -337 0 -333 0 -331 0 -327 0 -325 0 -322 0 -319 0 -316 0 
-313 0 -311 0 -309 0 *
So

0100000
+308 0 *
Ve
1e-07
-4 4.89858719658941e-16 -60
0 0

0101101
*
Ve
1e-07
4 0 -60
0 0

0101101
*
Ed
 1e-07 1 1 0
1  116 0 3.14159265358979 6.28318530717959
2  73 44 0 3.14159265358979 6.28318530717959
4 C0 44 0 45 0
0

0101000
+306 0 -305 0 *
Ve
1e-07
-4 4.89858719658941e-16 0
0 0

0101101
*
Ed
 1e-07 1 1 0
1  117 0 11.3137084989848 71.3137084989848
2  74 44 0 11.3137084989848 71.3137084989848
2  75 46 0 11.3137084989848 71.3137084989848
4 CN 44 0 46 0
0

0101000
+306 0 -303 0 *
Ve
1e-07
4 0 0
0 0

0101101
*
Ed
 1e-07 1 1 0
1  118 0 0 3.14159265358979
2  76 44 0 0 3.14159265358979
4 C0 44 0 47 0
0

0101000
+301 0 -303 0 *
Ed
 1e-07 1 1 0
1  119 0 11.3137084989848 71.3137084989848
2  77 44 0 11.3137084989848 71.3137084989848
2  78 46 0 11.3137084989848 71.3137084989848
4 CN 44 0 46 0
0

0101000
+305 0 -301 0 *
Wi

0101100
-304 0 +302 0 -300 0 -299 0 *
Fa
0  1e-07 44 0

0111000
+298 0 *
Ed
 1e-07 1 1 0
1  120 0 0 3.14159265358979
2  79 46 0 0 3.14159265358979
4 C0 46 0 45 0
0

0101000
+305 0 -306 0 *
Ed
 1e-07 1 1 0
1  121 0 3.14159265358979 6.28318530717959
2  80 46 0 3.14159265358979 6.28318530717959
4 C0 46 0 47 0
0

0101000
+303 0 -301 0 *
Wi

0101100
-302 0 -296 0 +299 0 -295 0 *
Fa
0  1e-07 46 0

0111000
+294 0 *
Wi

0101100
+300 0 +295 0 *
Fa
0  1e-07 47 0

0111000
+292 0 *
Wi

0101100
+296 0 +304 0 *
Fa
0  1e-07 45 0

0111000
-290 0 *
Sh

0101100
+297 0 +293 0 +291 0 -289 0 *
So

0100000
+288 0 *
Ve
1e-07
-45 -8.49999999999999 -16.15
0 0

0101101
*
Ve
1e-07
-45 -4.94999999999999 -16.15
0 0

0101101
*
Ed
 1e-07 1 1 0
1  122 0 0 3.55
2  81 48 0 0 3.55
2  82 49 0 0 3.55
4 CN 48 0 49 0
0

0101000
+286 0 -285 0 *
Ve
1e-07
-45 -4.94999999999999 -7.85
0 0

0101101
*
Ed
 1e-07 1 1 0
1  123 0 0 3.14159265358979
2  83 48 0 0 3.14159265358979
2  84 50 0 0 3.14159265358979
4 C0 48 0 50 0
0

0101000
+285 0 -283 0 *
Ve
1e-07
-45 -8.49999999999999 -7.85
0 0

0101101
*
Ed
 1e-07 1 1 0
1  124 0 0 3.55
2  85 48 0 0 3.55
2  86 49 0 0 3.55
4 CN 48 0 49 0
0

0101000
+281 0 -283 0 *
Ed
 1e-07 1 1 0
1  125 0 0 3.14159265358979
2  87 48 0 0 3.14159265358979
4 C0 48 0 51 0
0

0101000
+281 0 -286 0 *
Wi

0101100
+284 0 +282 0 -280 0 +279 0 *
Fa
0  1e-07 48 0

0111000
+278 0 *
Ve
1e-07
-45 -8.49999999999999 -52.15
0 0

0101101
*
Ve
1e-07
-45 -4.94999999999999 -52.15
0 0

0101101
*
Ed
 1e-07 1 1 0
1  126 0 0 3.55
2  88 52 0 0 3.55
2  89 53 0 0 3.55
4 CN 52 0 53 0
0

0101000
+276 0 -275 0 *
Ve
1e-07
-45 -4.94999999999999 -43.85
0 0

0101101
*
Ed
 1e-07 1 1 0
1  127 0 0 3.14159265358979
2  90 52 0 0 3.14159265358979
2  91 54 0 0 3.14159265358979
4 C0 52 0 54 0
0

0101000
+275 0 -273 0 *
Ve
1e-07
-45 -8.49999999999999 -43.85
0 0

0101101
*
Ed
 1e-07 1 1 0
1  128 0 0 3.55
2  92 52 0 0 3.55
2  93 53 0 0 3.55
4 CN 52 0 53 0
0

0101000
+271 0 -273 0 *
Ed
 1e-07 1 1 0
1  129 0 3.14159265358979 6.28318530717959
2  94 52 0 3.14159265358979 6.28318530717959
4 C0 52 0 51 0
0

0101000
+271 0 -276 0 *
Wi

0101100
+274 0 +272 0 -270 0 +269 0 *
Fa
0  1e-07 52 0

0111000
+268 0 *
Ve
1e-07
-45 -0.999999999999995 -20.1
0 0

0101101
*
Ed
 1e-07 1 1 0
1  130 0 -5.58614357137372 0
2  95 50 0 -5.58614357137372 0
2  96 55 0 -5.58614357137372 0
4 CN 50 0 55 0
0

0101000
+285 0 -266 0 *
Ve
1e-07
-45 -0.999999999999995 -3.9
0 0

0101101
*
Ed
 1e-07 1 1 0
1  131 0 3.14159265358979 6.28318530717959
2  97 50 0 3.14159265358979 6.28318530717959
2  98 56 0 3.14159265358979 6.28318530717959
4 C0 50 0 56 0
0

0101000
+264 0 -266 0 *
Ed
 1e-07 1 1 0
1  132 0 -5.58614357137372 0
2  99 50 0 -5.58614357137372 0
2  100 55 0 -5.58614357137372 0
4 CN 50 0 55 0
0

0101000
+283 0 -264 0 *
Wi

0101100
+265 0 -263 0 -262 0 -282 0 *
Fa
0  1e-07 50 0

0111000
+261 0 *
Ve
1e-07
-45 -0.999999999999995 -56.1
0 0

0101101
*
Ed
 1e-07 1 1 0
1  133 0 -5.58614357137372 0
2  101 54 0 -5.58614357137372 0
2  102 57 0 -5.58614357137372 0
4 CN 54 0 57 0
0

0101000
+275 0 -259 0 *
Ve
1e-07
-45 -0.999999999999995 -39.9
0 0

0101101
*
Ed
 1e-07 1 1 0
1  134 0 3.14159265358979 6.28318530717959
2  103 54 0 3.14159265358979 6.28318530717959
2  104 58 0 3.14159265358979 6.28318530717959
4 C0 54 0 58 0
0

0101000
+257 0 -259 0 *
Ed
 1e-07 1 1 0
1  135 0 -5.58614357137372 0
2  105 54 0 -5.58614357137372 0
2  106 57 0 -5.58614357137372 0
4 CN 54 0 57 0
0

0101000
+273 0 -257 0 *
Wi

0101100
+258 0 -256 0 -255 0 -272 0 *
Fa
0  1e-07 54 0

0111000
+254 0 *
Ve
1e-07
-45 -0.499999999999995 -20.1
0 0

0101101
*
Ed
 1e-07 1 1 0
1  136 0 0 0.5
2  107 56 0 0 0.5
2  108 59 0 0 0.5
4 CN 56 0 59 0
0

0101000
+266 0 -252 0 *
Ve
1e-07
-45 -0.499999999999995 -3.9
0 0

0101101
*
Ed
 1e-07 1 1 0
1  137 0 0 3.14159265358979
2  109 56 0 0 3.14159265358979
4 C0 56 0 60 0
0

0101000
+250 0 -252 0 *
Ed
 1e-07 1 1 0
1  138 0 0 0.5
2  110 56 0 0 0.5
2  111 59 0 0 0.5
4 CN 56 0 59 0
0

0101000
+264 0 -250 0 *
Wi

0101100
+251 0 -249 0 -248 0 +263 0 *
Fa
0  1e-07 56 0

0111000
+247 0 *
Ve
1e-07
-45 -0.499999999999995 -56.1
0 0

0101101
*
Ed
 1e-07 1 1 0
1  139 0 0 0.5
2  112 58 0 0 0.5
2  113 61 0 0 0.5
4 CN 58 0 61 0
0

0101000
+259 0 -245 0 *
Ve
1e-07
-45 -0.499999999999995 -39.9
0 0

0101101
*
Ed
 1e-07 1 1 0
1  140 0 3.14159265358979 6.28318530717959
2  114 58 0 3.14159265358979 6.28318530717959
4 C0 58 0 60 0
0

0101000
+243 0 -245 0 *
Ed
 1e-07 1 1 0
1  141 0 0 0.5
2  115 58 0 0 0.5
2  116 61 0 0 0.5
4 CN 58 0 61 0
0

0101000
+257 0 -243 0 *
Wi

0101100
+244 0 -242 0 -241 0 +256 0 *
Fa
0  1e-07 58 0

0111000
+240 0 *
Ve
1e-07
-4 4.44089209850062e-16 -45.05
0 0

0101101
*
Ve
1e-07
-4 4.44089209850062e-16 -60
0 0

0101101
*
Ed
 1e-07 1 1 0
1  142 0 45.05 60
2  117 62 0 45.05 60
2  118 63 0 45.05 60
4 CN 62 0 63 0
0

0101000
+238 0 -237 0 *
Ve
1e-07
4 4.57695098088789e-17 -60
0 0

0101101
*
Ed
 1e-07 1 1 0
1  143 0 3.14159265358979 6.28318530717959
2  119 62 0 3.14159265358979 6.28318530717959
4 C0 62 0 64 0
0

0101000
+235 0 -237 0 *
Ve
1e-07
4 4.57695098088789e-17 -45.05
0 0

0101101
*
Ed
 1e-07 1 1 0
1  144 0 45.05 60
2  120 62 0 45.05 60
2  121 63 0 45.05 60
4 CN 62 0 63 0
0

0101000
+233 0 -235 0 *
Ed
 1e-07 1 1 0
1  145 0 0 3.14159265358979
2  122 62 0 0 3.14159265358979
4 C0 62 0 65 0
0

0101000
+238 0 -233 0 *
Wi

0101100
+236 0 -234 0 -232 0 -231 0 *
Fa
0  1e-07 62 0

0111000
+230 0 *
Ve
1e-07
-4 4.44089209850062e-16 -15.05
0 0

0101101
*
Ve
1e-07
-4 4.44089209850062e-16 -30
0 0

0101101
*
Ed
 1e-07 1 1 0
1  146 0 15.05 30
2  123 66 0 15.05 30
2  124 67 0 15.05 30
4 CN 66 0 67 0
0

0101000
+228 0 -227 0 *
Ve
1e-07
4 4.57695098088789e-17 -30
0 0

0101101
*
Ed
 1e-07 1 1 0
1  147 0 0 3.14159265358979
2  125 66 0 0 3.14159265358979
4 C0 66 0 68 0
0

0101000
+225 0 -227 0 *
Ve
1e-07
4 4.57695098088789e-17 -15.05
0 0

0101101
*
Ed
 1e-07 1 1 0
1  148 0 15.05 30
2  126 66 0 15.05 30
2  127 67 0 15.05 30
4 CN 66 0 67 0
0

0101000
+223 0 -225 0 *
Ed
 1e-07 1 1 0
1  149 0 0 3.14159265358979
2  128 66 0 0 3.14159265358979
4 C0 66 0 69 0
0

0101000
+228 0 -223 0 *
Wi

0101100
+226 0 -224 0 -222 0 -221 0 *
Fa
0  1e-07 66 0

0111000
+220 0 *
Ve
1e-07
7.5 2.49999999999998 -15.05
0 0

0101101
*
Ve
1e-07
3.5 6.5 -15.05
0 0

0101101
*
Ed
 1e-07 1 1 0
1  150 0 0 5.65685424949239
4 C0 70 0 69 0
0

0101000
+218 0 -217 0 *
Ve
1e-07
7.5 2.49999999999998 -30
0 0

0101101
*
Ed
 1e-07 1 1 0
1  151 0 15.05 30
4 C0 70 0 71 0
0

0101000
+218 0 -215 0 *
Ve
1e-07
3.5 6.5 -30
0 0

0101101
*
Ed
 1e-07 1 1 0
1  152 0 -5.65685424949239 0
4 C0 70 0 68 0
0

0101000
+213 0 -215 0 *
Ed
 1e-07 1 1 0
1  153 0 15.05 30
4 C0 70 0 72 0
0

0101000
+217 0 -213 0 *
Wi

0101100
-216 0 +214 0 -212 0 -211 0 *
Fa
0  1e-07 70 0

0111000
+210 0 *
Ve
1e-07
-3.5 6.5 -15.05
0 0

0101101
*
Ed
 1e-07 1 1 0
1  154 0 0 7
4 C0 72 0 69 0
0

0101000
+217 0 -208 0 *
Ve
1e-07
-3.5 6.5 -30
0 0

0101101
*
Ed
 1e-07 1 1 0
1  155 0 -7 0
4 C0 72 0 68 0
0

0101000
+206 0 -213 0 *
Ed
 1e-07 1 1 0
1  156 0 15.05 30
4 C0 72 0 73 0
0

0101000
+208 0 -206 0 *
Wi

0101100
-207 0 +211 0 -205 0 -204 0 *
Fa
0  1e-07 72 0

0111000
+203 0 *
Ve
1e-07
-7.5 2.49999999999999 -15.05
0 0

0101101
*
Ed
 1e-07 1 1 0
1  157 0 -5.65685424949239 -6.90840681820862e-15
4 C0 73 0 69 0
0

0101000
+208 0 -201 0 *
Ve
1e-07
-7.5 2.49999999999999 -30
0 0

0101101
*
Ed
 1e-07 1 1 0
1  158 0 6.90840681820862e-15 5.65685424949239
4 C0 73 0 68 0
0

0101000
+199 0 -206 0 *
Ed
 1e-07 1 1 0
1  159 0 15.05 30
4 C0 73 0 74 0
0

0101000
+201 0 -199 0 *
Wi

0101100
-200 0 +204 0 -198 0 -197 0 *
Fa
0  1e-07 73 0

0111000
+196 0 *
Ve
1e-07
-7.5 -0.5 -15.05
0 0

0101101
*
Ed
 1e-07 1 1 0
1  160 0 -9.76996261670138e-15 2.99999999999998
4 C0 74 0 69 0
0

0101000
+201 0 -194 0 *
Ve
1e-07
-7.5 -0.5 -30
0 0

0101101
*
Ed
 1e-07 1 1 0
1  161 0 -2.99999999999998 9.76996261670138e-15
4 C0 74 0 68 0
0

0101000
+192 0 -199 0 *
Ed
 1e-07 1 1 0
1  162 0 15.05 30
4 C0 74 0 60 0
0

0101000
+194 0 -192 0 *
Wi

0101100
-193 0 +197 0 -191 0 -190 0 *
Fa
0  1e-07 74 0

0111000
+189 0 *
Ve
1e-07
-4.00000000000001 -8.5 -15.05
0 0

0101101
*
Ve
1e-07
-4.00000000000001 -7.5 -15.05
0 0

0101101
*
Ed
 1e-07 1 1 0
1  163 0 0 1
4 C0 75 0 69 0
0

0101000
+187 0 -186 0 *
Ve
1e-07
-4.00000000000001 -8.5 -30
0 0

0101101
*
Ed
 1e-07 1 1 0
1  164 0 15.05 30
4 C0 75 0 51 0
0

0101000
+187 0 -184 0 *
Ve
1e-07
-4.00000000000001 -7.5 -30
0 0

0101101
*
Ed
 1e-07 1 1 0
1  165 0 -1 0
4 C0 75 0 68 0
0

0101000
+182 0 -184 0 *
Ed
 1e-07 1 1 0
1  166 0 15.05 30
4 C0 75 0 76 0
0

0101000
+186 0 -182 0 *
Wi

0101100
-185 0 +183 0 -181 0 -180 0 *
Fa
0  1e-07 75 0

0111000
+179 0 *
Ve
1e-07
-8.32667268468867e-16 -7.5 -15.05
0 0

0101101
*
Ed
 1e-07 1 1 0
1  167 0 -4.00000000000001 0
4 C0 76 0 69 0
0

0101000
+186 0 -177 0 *
Ve
1e-07
-8.32667268468867e-16 -7.5 -30
0 0

0101101
*
Ed
 1e-07 1 1 0
1  168 0 0 4.00000000000001
4 C0 76 0 68 0
0

0101000
+175 0 -182 0 *
Ed
 1e-07 1 1 0
1  169 0 15.05 30
2  129 77 0 15.05 30
4 G1 76 0 77 0
0

0101000
+177 0 -175 0 *
Wi

0101100
-176 0 +180 0 -174 0 -173 0 *
Fa
0  1e-07 76 0

0111000
+172 0 *
Ve
1e-07
7.5 8.58178308916478e-17 -15.05
0 0

0101101
*
Ed
 1e-07 1 1 0
1  170 0 1.5707963267949 3.14159265358979
2  130 77 0 1.5707963267949 3.14159265358979
4 C0 77 0 69 0
0

0101000
+177 0 -170 0 *
Ve
1e-07
7.5 8.58208488202141e-17 -30
0 0

0101101
*
Ed
 1e-07 1 1 0
1  171 0 0 1.5707963267949
2  131 77 0 0 1.5707963267949
4 C0 77 0 68 0
0

0101000
+168 0 -175 0 *
Ed
 1e-07 1 1 0
1  172 0 15.05 30
2  132 77 0 15.05 30
4 G1 77 0 71 0
0

0101000
+170 0 -168 0 *
Wi

0101100
-169 0 +173 0 -167 0 -166 0 *
Fa
0  1e-07 77 0

0111000
+165 0 *
Ed
 1e-07 1 1 0
1  173 0 9.18485099360515e-16 2.49999999999998
4 C0 71 0 69 0
0

0101000
+170 0 -218 0 *
Ed
 1e-07 1 1 0
1  174 0 -2.49999999999998 -9.18488117289081e-16
4 C0 71 0 68 0
0

0101000
+215 0 -168 0 *
Wi

0101100
-163 0 +166 0 -162 0 -214 0 *
Fa
0  1e-07 71 0

0111000
+161 0 *
Ed
 1e-07 1 1 0
1  175 0 3.14159265358979 6.28318530717959
2  133 67 0 3.14159265358979 6.28318530717959
4 C0 67 0 68 0
0

0101000
+227 0 -225 0 *
Ed
 1e-07 1 1 0
1  176 0 3.14159265358979 6.28318530717959
2  134 67 0 3.14159265358979 6.28318530717959
4 C0 67 0 69 0
0

0101000
+223 0 -228 0 *
Wi

0101100
-159 0 -226 0 -158 0 +222 0 *
Fa
0  1e-07 67 0

0111000
+157 0 *
Ve
1e-07
7.5 2.49999999999998 -45.05
0 0

0101101
*
Ve
1e-07
3.5 6.5 -45.05
0 0

0101101
*
Ed
 1e-07 1 1 0
1  177 0 -6.90840681820862e-15 5.65685424949239
4 C0 78 0 65 0
0

0101000
+155 0 -154 0 *
Ve
1e-07
7.5 2.49999999999998 -60
0 0

0101101
*
Ed
 1e-07 1 1 0
1  178 0 45.05 60
4 C0 78 0 79 0
0

0101000
+155 0 -152 0 *
Ve
1e-07
3.5 6.5 -60
0 0

0101101
*
Ed
 1e-07 1 1 0
1  179 0 -5.65685424949239 0
4 C0 78 0 64 0
0

0101000
+150 0 -152 0 *
Ed
 1e-07 1 1 0
1  180 0 45.05 60
4 C0 78 0 80 0
0

0101000
+154 0 -150 0 *
Wi

0101100
-153 0 +151 0 -149 0 -148 0 *
Fa
0  1e-07 78 0

0111000
+147 0 *
Ve
1e-07
-3.5 6.5 -45.05
0 0

0101101
*
Ed
 1e-07 1 1 0
1  181 0 0 7
4 C0 80 0 65 0
0

0101000
+154 0 -145 0 *
Ve
1e-07
-3.5 6.5 -60
0 0

0101101
*
Ed
 1e-07 1 1 0
1  182 0 -7 0
4 C0 80 0 64 0
0

0101000
+143 0 -150 0 *
Ed
 1e-07 1 1 0
1  183 0 45.05 60
4 C0 80 0 81 0
0

0101000
+145 0 -143 0 *
Wi

0101100
-144 0 +148 0 -142 0 -141 0 *
Fa
0  1e-07 80 0

0111000
+140 0 *
Ve
1e-07
-7.5 2.49999999999998 -45.05
0 0

0101101
*
Ed
 1e-07 1 1 0
1  184 0 -5.65685424949239 0
4 C0 81 0 65 0
0

0101000
+145 0 -138 0 *
Ve
1e-07
-7.5 2.49999999999998 -60
0 0

0101101
*
Ed
 1e-07 1 1 0
1  185 0 0 5.65685424949239
4 C0 81 0 64 0
0

0101000
+136 0 -143 0 *
Ed
 1e-07 1 1 0
1  186 0 45.05 60
4 C0 81 0 82 0
0

0101000
+138 0 -136 0 *
Wi

0101100
-137 0 +141 0 -135 0 -134 0 *
Fa
0  1e-07 81 0

0111000
+133 0 *
Ve
1e-07
-7.5 -0.5 -45.05
0 0

0101101
*
Ed
 1e-07 1 1 0
1  187 0 0 2.99999999999998
4 C0 82 0 65 0
0

0101000
+138 0 -131 0 *
Ve
1e-07
-7.5 -0.5 -60
0 0

0101101
*
Ed
 1e-07 1 1 0
1  188 0 -2.99999999999998 0
4 C0 82 0 64 0
0

0101000
+129 0 -136 0 *
Ed
 1e-07 1 1 0
1  189 0 45.05 60
4 C0 82 0 60 0
0

0101000
+131 0 -129 0 *
Wi

0101100
-130 0 +134 0 -128 0 -127 0 *
Fa
0  1e-07 82 0

0111000
+126 0 *
Ve
1e-07
-8.5 -0.5 -15.05
0 0

0101101
*
Ve
1e-07
-8.5 -0.5 0
0 0

0101101
*
Ed
 1e-07 1 1 0
1  190 0 -15.05 0
4 C0 60 0 83 0
0

0101000
+124 0 -123 0 *
Ed
 1e-07 1 1 0
1  191 0 0 1
4 C0 60 0 69 0
0

0101000
+194 0 -124 0 *
Ve
1e-07
-8.50000000000001 -0.5 -30
0 0

0101101
*
Ed
 1e-07 1 1 0
1  192 0 -1.00000000000001 0
4 C0 60 0 68 0
0

0101000
+120 0 -192 0 *
Ve
1e-07
-8.50000000000001 -0.5 -45.05
0 0

0101101
*
Ed
 1e-07 1 1 0
1  193 0 -45.05 -30
4 C0 60 0 84 0
0

0101000
+118 0 -120 0 *
Ed
 1e-07 1 1 0
1  194 0 0 1.00000000000001
4 C0 60 0 65 0
0

0101000
+131 0 -118 0 *
Ve
1e-07
-56.75 -0.499999999999994 -60
0 0

0101101
*
Ed
 1e-07 1 1 0
1  195 0 -49.25 0
4 C0 60 0 64 0
0

0101000
+115 0 -129 0 *
Ve
1e-07
-56.75 -0.499999999999994 0
0 0

0101101
*
Ed
 1e-07 1 1 0
1  196 0 0 60
4 C0 60 0 85 0
0

0101000
+113 0 -115 0 *
Ed
 1e-07 1 1 0
1  197 0 -49.25 -1
4 C0 60 0 86 0
0

0101000
+113 0 -123 0 *
Wi

0101100
-122 0 -121 0 +190 0 -119 0 -117 0 -116 0 +127 0 -114 0 -112 0 +111 0 
*
Ed
 1e-07 1 1 0
1  198 0 3.14159265358979 6.28318530717959
2  135 59 0 3.14159265358979 6.28318530717959
4 C0 60 0 59 0
0

0101000
+252 0 -250 0 *
Wi

0101100
-109 0 -249 0 *
Ed
 1e-07 1 1 0
1  199 0 0 3.14159265358979
2  136 61 0 0 3.14159265358979
4 C0 60 0 61 0
0

0101000
+245 0 -243 0 *
Wi

0101100
-107 0 -242 0 *
Fa
0  1e-07 60 0

0111000
+110 0 +108 0 +106 0 *
Ve
1e-07
-60 -3.75000000000001 -60
0 0

0101101
*
Ed
 1e-07 1 1 0
1  200 0 -4.59619407771257 0
4 C0 85 0 64 0
0

0101000
+104 0 -115 0 *
Ve
1e-07
-60 -3.75000000000001 0
0 0

0101101
*
Ed
 1e-07 1 1 0
1  201 0 0 60
4 C0 85 0 87 0
0

0101000
+102 0 -104 0 *
Ed
 1e-07 1 1 0
1  202 0 -4.59619407771257 0
4 C0 85 0 86 0
0

0101000
+102 0 -113 0 *
Wi

0101100
-103 0 -101 0 +100 0 +112 0 *
Fa
0  1e-07 85 0

0111000
+99 0 *
Ve
1e-07
-60 -8.49999999999999 -60
0 0

0101101
*
Ed
 1e-07 1 1 0
1  203 0 0 4.74999999999998
4 C0 87 0 64 0
0

0101000
+97 0 -104 0 *
Ve
1e-07
-60 -8.49999999999999 0
0 0

0101101
*
Ed
 1e-07 1 1 0
1  204 0 0 60
4 C0 87 0 51 0
0

0101000
+95 0 -97 0 *
Ed
 1e-07 1 1 0
1  205 0 0 4.74999999999998
4 C0 87 0 86 0
0

0101000
+95 0 -102 0 *
Wi

0101100
-96 0 -94 0 +93 0 +101 0 *
Fa
0  1e-07 87 0

0111000
+92 0 *
Ve
1e-07
-8.5 -8.5 0
0 0

0101101
*
Ve
1e-07
-8.50000000000001 -8.5 -15.05
0 0

0101101
*
Ed
 1e-07 1 1 0
1  206 0 0 15.05
4 C0 51 0 83 0
0

0101000
+90 0 -89 0 *
Ed
 1e-07 1 1 0
1  207 0 4.49999999999999 56
4 C0 51 0 86 0
0

0101000
+90 0 -95 0 *
Ve
1e-07
-4.00000000000001 -8.5 -60
0 0

0101101
*
Ed
 1e-07 1 1 0
1  208 0 0 56
4 C0 51 0 64 0
0

0101000
+86 0 -97 0 *
Ve
1e-07
-4.00000000000001 -8.5 -45.05
0 0

0101101
*
Ed
 1e-07 1 1 0
1  209 0 45.05 60
4 C0 51 0 88 0
0

0101000
+84 0 -86 0 *
Ve
1e-07
-8.50000000000001 -8.5 -45.05
0 0

0101101
*
Ed
 1e-07 1 1 0
1  210 0 -4.5 0
4 C0 51 0 65 0
0

0101000
+82 0 -84 0 *
Ve
1e-07
-8.50000000000001 -8.5 -30
0 0

0101101
*
Ed
 1e-07 1 1 0
1  211 0 30 45.05
4 C0 51 0 84 0
0

0101000
+80 0 -82 0 *
Ed
 1e-07 1 1 0
1  212 0 0 4.5
4 C0 51 0 68 0
0

0101000
+184 0 -80 0 *
Ed
 1e-07 1 1 0
1  213 0 -4.5 0
4 C0 51 0 69 0
0

0101000
+89 0 -187 0 *
Wi

0101100
-88 0 +87 0 +94 0 -85 0 -83 0 -81 0 -79 0 -78 0 -183 0 -77 0 
*
Ed
 1e-07 1 1 0
1  214 0 3.14159265358979 6.28318530717959
2  137 49 0 3.14159265358979 6.28318530717959
4 C0 51 0 49 0
0

0101000
+286 0 -281 0 *
Wi

0101100
+75 0 +279 0 *
Ed
 1e-07 1 1 0
1  215 0 0 3.14159265358979
2  138 53 0 0 3.14159265358979
4 C0 51 0 53 0
0

0101000
+276 0 -271 0 *
Wi

0101100
+73 0 +269 0 *
Fa
0  1e-07 51 0

0111000
+76 0 +74 0 +72 0 *
Ve
1e-07
-4.00000000000001 -7.5 -45.05
0 0

0101101
*
Ed
 1e-07 1 1 0
1  216 0 0 1
4 C0 88 0 65 0
0

0101000
+84 0 -70 0 *
Ve
1e-07
-4.00000000000001 -7.5 -60
0 0

0101101
*
Ed
 1e-07 1 1 0
1  217 0 -1 0
4 C0 88 0 64 0
0

0101000
+68 0 -86 0 *
Ed
 1e-07 1 1 0
1  218 0 45.05 60
4 C0 88 0 89 0
0

0101000
+70 0 -68 0 *
Wi

0101100
-69 0 +83 0 -67 0 -66 0 *
Fa
0  1e-07 88 0

0111000
+65 0 *
Ve
1e-07
-8.32667268468867e-16 -7.5 -45.05
0 0

0101101
*
Ed
 1e-07 1 1 0
1  219 0 -4.00000000000001 3.90746462963776e-15
4 C0 89 0 65 0
0

0101000
+70 0 -63 0 *
Ve
1e-07
-8.32667268468867e-16 -7.5 -60
0 0

0101101
*
Ed
 1e-07 1 1 0
1  220 0 0 4.00000000000001
4 C0 89 0 64 0
0

0101000
+61 0 -68 0 *
Ed
 1e-07 1 1 0
1  221 0 45.05 60
2  139 90 0 45.05 60
4 G1 89 0 90 0
0

0101000
+63 0 -61 0 *
Wi

0101100
-62 0 +66 0 -60 0 -59 0 *
Fa
0  1e-07 89 0

0111000
+58 0 *
Ve
1e-07
7.5 8.58178308916478e-17 -45.05
0 0

0101101
*
Ed
 1e-07 1 1 0
1  222 0 1.5707963267949 3.14159265358979
2  140 90 0 1.5707963267949 3.14159265358979
4 C0 90 0 65 0
0

0101000
+63 0 -56 0 *
Ve
1e-07
7.5 8.58178308916478e-17 -60
0 0

0101101
*
Ed
 1e-07 1 1 0
1  223 0 3.14159265358979 4.71238898038469
2  141 90 0 3.14159265358979 4.71238898038469
4 C0 90 0 64 0
0

0101000
+54 0 -61 0 *
Ed
 1e-07 1 1 0
1  224 0 45.05 60
2  142 90 0 45.05 60
4 G1 90 0 79 0
0

0101000
+56 0 -54 0 *
Wi

0101100
-55 0 +59 0 -53 0 -52 0 *
Fa
0  1e-07 90 0

0111000
+51 0 *
Ed
 1e-07 1 1 0
1  225 0 9.18485099360515e-16 2.49999999999998
4 C0 79 0 65 0
0

0101000
+56 0 -155 0 *
Ed
 1e-07 1 1 0
1  226 0 -2.49999999999998 -9.18485099360515e-16
4 C0 79 0 64 0
0

0101000
+152 0 -54 0 *
Wi

0101100
-49 0 +52 0 -48 0 -151 0 *
Fa
0  1e-07 79 0

0111000
+47 0 *
Ed
 1e-07 1 1 0
1  227 0 -8.5 -0.500000000000001
4 C0 86 0 83 0
0

0101000
+90 0 -123 0 *
Wi

0101100
-87 0 +45 0 -111 0 -100 0 -93 0 *
Fa
0  1e-07 86 0

0111000
-44 0 *
Wi

0101100
+149 0 +48 0 +53 0 +60 0 +67 0 +85 0 +96 0 +103 0 +114 0 +128 0 
+135 0 +142 0 *
Ed
 1e-07 1 1 0
1  228 0 0 3.14159265358979
2  143 63 0 0 3.14159265358979
4 C0 64 0 63 0
0

0101000
+237 0 -235 0 *
Wi

0101100
-41 0 -234 0 *
Fa
0  1e-07 64 0

0111000
+42 0 +40 0 *
Ed
 1e-07 1 1 0
1  229 0 3.14159265358979 6.28318530717959
2  144 63 0 3.14159265358979 6.28318530717959
4 C0 63 0 65 0
0

0101000
+233 0 -238 0 *
Wi

0101100
-41 0 -236 0 -38 0 +232 0 *
Fa
0  1e-07 63 0

0111000
+37 0 *
Ed
 1e-07 1 1 0
1  230 0 2 10
4 C0 68 0 84 0
0

0101000
+80 0 -120 0 *
Wi

0101100
+119 0 +191 0 +198 0 +205 0 +212 0 +162 0 +167 0 +174 0 +181 0 +78 0 
+35 0 *
Wi

0101100
-159 0 -224 0 *
Fa
0  1e-07 68 0

0111000
-34 0 -33 0 *
Ed
 1e-07 1 1 0
1  231 0 2 10
4 C0 65 0 84 0
0

0101000
+82 0 -118 0 *
Wi

0101100
+116 0 -31 0 +81 0 +69 0 +62 0 +55 0 +49 0 +153 0 +144 0 +137 0 
+130 0 *
Wi

0101100
-231 0 -38 0 *
Fa
0  1e-07 65 0

0111000
-30 0 -29 0 *
Wi

0101100
+117 0 -35 0 +79 0 +31 0 *
Fa
0  1e-07 84 0

0111000
-27 0 *
Ed
 1e-07 1 1 0
1  232 0 2 10
4 C0 69 0 83 0
0

0101000
+89 0 -124 0 *
Wi

0101100
+121 0 -25 0 +77 0 +185 0 +176 0 +169 0 +163 0 +216 0 +207 0 +200 0 
+193 0 *
Wi

0101100
-221 0 -158 0 *
Fa
0  1e-07 69 0

0111000
-24 0 -23 0 *
Wi

0101100
+122 0 -45 0 +88 0 +25 0 *
Fa
0  1e-07 83 0

0111000
-21 0 *
Ed
 1e-07 1 1 0
1  233 0 0 3.14159265358979
2  145 61 0 0 3.14159265358979
2  146 57 0 0 3.14159265358979
4 C0 61 0 57 0
0

0101000
+259 0 -257 0 *
Wi

0101100
-107 0 -244 0 +19 0 +241 0 *
Fa
0  1e-07 61 0

0111000
+18 0 *
Ed
 1e-07 1 1 0
1  234 0 0 3.14159265358979
2  147 59 0 0 3.14159265358979
2  148 55 0 0 3.14159265358979
4 C0 59 0 55 0
0

0101000
+266 0 -264 0 *
Wi

0101100
-109 0 -251 0 +16 0 +248 0 *
Fa
0  1e-07 59 0

0111000
+15 0 *
Ed
 1e-07 1 1 0
1  235 0 3.14159265358979 6.28318530717959
2  149 57 0 3.14159265358979 6.28318530717959
2  150 53 0 3.14159265358979 6.28318530717959
4 C0 57 0 53 0
0

0101000
+273 0 -275 0 *
Wi

0101100
-19 0 -258 0 -13 0 +255 0 *
Fa
0  1e-07 57 0

0111000
+12 0 *
Ed
 1e-07 1 1 0
1  236 0 3.14159265358979 6.28318530717959
2  151 55 0 3.14159265358979 6.28318530717959
2  152 49 0 3.14159265358979 6.28318530717959
4 C0 55 0 49 0
0

0101000
+283 0 -285 0 *
Wi

0101100
-16 0 -265 0 -10 0 +262 0 *
Fa
0  1e-07 55 0

0111000
+9 0 *
Wi

0101100
+13 0 -274 0 +73 0 +270 0 *
Fa
0  1e-07 53 0

0111000
+7 0 *
Wi

0101100
+10 0 -284 0 +75 0 +280 0 *
Fa
0  1e-07 49 0

0111000
+5 0 *
Sh

0101100
-277 0 -267 0 -260 0 -253 0 -246 0 -239 0 -229 0 -219 0 +209 0 +202 0 
+195 0 +188 0 +178 0 +171 0 +164 0 +160 0 -156 0 +146 0 +139 0 +132 0 
+125 0 +105 0 +98 0 +91 0 +71 0 +64 0 +57 0 +50 0 +46 0 -43 0 
+39 0 -36 0 -32 0 -28 0 -26 0 -22 0 -20 0 -17 0 -14 0 -11 0 
-8 0 -6 0 -4 0 *
So

0100000
+3 0 *
Co

1100000
+307 0 +287 0 +2 0 *

+1 0 