DBRep_DrawableShape

CASCADE Topology V1, (c) Matra-Datavision
Locations 0
Curve2ds 108
1 0 0 1 0 
1 3.1415926535897931 0 0 -1 
1 3.1415926535897931 0 0 -1 
1 0 -31.899999999999999 1 0 
1 6.2831853071795862 0 0 -1 
1 0 0 0 -1 
1 0 0 1 0 
1 0 -31.899999999999999 1 0 
1 1.5707963267948966 0 0 1 
1 2.7925268031909236 0 0 -1 
1 6.2831853071795862 -31.899999999999999 -1 0 
1 3.1415926535897931 0 0 -1 
1 3.1415926535897931 0 0 -1 
1 6.2831853071795862 0 -1 0 
1 6.2831853071795862 -31.899999999999999 -1 0 
1 6.2831853071795862 0 0 -1 
1 0 0 0 -1 
1 6.2831853071795862 0 -1 0 
1 1.7763568394002505e-15 -2.5000000000000009 1 0 
1 6.2831853071795862 4.9999999999999964 -1 0 
1 3.1415926535897931 2.4999999999999951 0 -1 
1 6.2831853071795862 8.8817841970012523e-16 0 -1 
1 6.2831853071795862 0 -1 0 
1 4.7123889803846897 0 7.1054273576009717e-16 -1 
1 -3.5527136788005009e-15 0 1 0 
1 6.2831853071795862 0 -1 0 
1 2.7925268031909241 0 0 -1 
1 -3.5527136788005009e-15 -31.899999999999999 1 0 
1 6.2831853071795862 -31.899999999999999 -1 0 
1 1.5707963267948966 6.2172489379008766e-15 0 -1 
1 0 2.4999999999999951 1 2.8271597168564594e-16 
1 1.5707963267948963 0 0 1 
1 0 0 0 -1 
1 6.2831853071795862 0 0 -1 
1 0 -1.499999999999992 1 0 
1 3.1415926535897931 0 0 -1 
1 3.1415926535897931 0 0 -1 
1 6.2831853071795862 0 -1 0 
1 0 0 1 0 
1 3.1415926535897922 0 0 -1 
1 3.1415926535897922 0 0 -1 
1 0 -1.499999999999992 1 0 
1 6.2831853071795862 0 0 -1 
1 0 0 0 -1 
1 0 0 1 0 
1 6.2831853071795862 0 -1 0 
1 0 -1.499999999999992 1 0 
1 0 -1.499999999999992 1 0 
1 6.2831853071795862 -0.5 -1 0 
1 -1.5707963267948966 -2.6028992781723337e-11 1 0 
1 3.1415926535897931 0 0 -1 
1 3.1415926535897931 0 0 -1 
1 0 -61.5 1 0 
1 -3.1415926535897931 1.3476103573049172e-10 1 -9.9955190373348482e-17 
1 6.2831853071795862 0 0 -1 
1 0 0 0 -1 
1 6.2831853071795862 -0.5 -1 0 
1 4.7123889803846897 -2.6028992781723337e-11 1 0 
1 0 -0.70710678104924873 1 0 
1 3.1415926535897931 -2.1094237467877974e-15 0 1 
1 3.1415926535897931 -2.1094237467877974e-15 0 1 
1 0 -2.1094237467877974e-15 0 1 
1 6.2831853071795862 -2.1094237467877974e-15 0 1 
1 0 -0.70710678121000781 1 -2.1203697876423444e-16 
1 3.1415926535897931 -3.6637359812630166e-15 0 1 
1 3.1415926535897931 -3.6637359812630166e-15 0 1 
1 -1.5707963267948966 -2.6028992781723337e-11 1 0 
1 6.2831853071795862 -0.5 -1 0 
1 0 -2.1094237467877974e-15 0 1 
1 6.2831853071795862 -2.1094237467877974e-15 0 1 
1 6.2831853071795862 -0.5 -1 0 
1 -1.5707963267948966 -2.6028992781723337e-11 1 0 
1 0 -61.5 1 0 
1 3.1415926535897931 1.3476072171199996e-10 1 0 
1 0 -0.70710678104924873 1 0 
1 0 -0.70710678121000914 1 2.1203697876423444e-16 
1 0 0 1 0 
1 3.1415926535897931 0 0 -1 
1 3.1415926535897931 0 0 -1 
1 0 -31.899999999999999 1 0 
1 6.2831853071795862 0 0 -1 
1 0 0 0 -1 
1 0 0 1 0 
1 0 -31.899999999999999 1 0 
1 1.5707963267948966 0 0 1 
1 2.7925268031909241 0 0 -1 
1 6.2831853071795862 -31.899999999999999 -1 0 
1 3.1415926535897931 0 0 -1 
1 3.1415926535897931 0 0 -1 
1 6.2831853071795862 0 -1 0 
1 6.2831853071795862 -31.899999999999999 -1 0 
1 6.2831853071795862 0 0 -1 
1 0 0 0 -1 
1 6.2831853071795862 0 -1 0 
1 0 -2.5000000000000004 1 0 
1 6.2831853071795862 4.9999999999999991 -1 0 
1 3.1415926535897931 2.4999999999999978 0 -1 
1 6.2831853071795862 4.4408920985006262e-16 0 -1 
1 6.2831853071795862 0 -1 0 
1 4.7123889803846897 0 0 -1 
1 -3.5527136788005009e-15 0 1 0 
1 6.2831853071795862 0 -1 0 
1 2.7925268031909241 0 0 -1 
1 -3.5527136788005009e-15 -31.899999999999999 1 0 
1 6.2831853071795862 -31.899999999999999 -1 0 
1 1.5707963267948966 6.2172489379008766e-15 0 -1 
1 0 2.4999999999999987 1 0 
1 1.5707963267948963 0 0 1 
Curves 112
2 0 0 32.5 0 0 1 -1 0 0 0 -1 0 5
1 5 6.1232339957367604e-16 32.5 0 0 -1 
2 0 0 0.60000000000000298 0 0 1 -1 0 0 0 -1 0 5
1 -5 0 32.5 0 0 -1 
2 0 0 32.5 0 0 1 -1 0 0 0 -1 0 5
2 0 0 0.60000000000000298 0 0 1 -1 0 0 0 -1 0 5
1 -7.9797279894933097e-16 -5 32.5 0 0 1 
1 2.34923155196477 -0.85505035831418097 32.5 -0 -0 -1 
2 0 0 0.60000000000000298 0 0 -1 -1 0 0 0 1 0 2.5
1 2.5 3.0616169978683802e-16 32.5 0 0 -1 
2 0 0 32.5 0 0 -1 -1 0 0 0 1 0 2.5
2 0 0 0.60000000000000298 0 0 -1 -1 0 0 0 1 0 2.5
1 -2.5 0 32.5 0 0 -1 
2 0 0 32.5 0 0 -1 -1 0 0 0 1 0 2.5
2 17 -4.9999999999999902 30.5 4.3368086899420202e-16 1 0 1 -4.3368086899420202e-16 0 0 0 -1 2
1 -1.6653345369377301e-15 -5 32.5 1 -3.3306690738754701e-16 -0 
1 -1.6653345369377301e-15 -5 0.60000000000000298 -1 3.3306690738754701e-16 0 
1 6 -5 32.5 0 0 1 
1 -1.6653345369377301e-15 -5 -32.5 -1 3.3306690738754701e-16 0 
2 17 -4.9999999999999902 -30.5 4.3368086899420202e-16 1 0 -1 4.3368086899420202e-16 0 0 -0 1 2
1 19 -5.0000000000000098 32.5 -0 -0 -1 
1 19 -2.4999999999999898 -30.5 -3.3306690738754701e-16 1 0 
1 19 -2.4999999999999898 32.5 0 -0 1 
1 19 -2.4999999999999898 30.5 3.3306690738754701e-16 -1 -0 
2 17 -2.4999999999999898 30.5 -4.3368086899420202e-16 -1 0 1 -4.3368086899420202e-16 0 0 0 1 2
1 17 -2.4999999999999898 32.5 -3.3306690738754701e-16 -1 0 
1 2.34923155196477 -0.85505035831418097 32.5 0.93969262078590676 -0.34202014332567288 0 
2 0 0 32.5 0 0 1 -1 3.5527136788005001e-15 0 -3.5527136788005001e-15 -1 0 5
1 0 -2.4999999999999898 32.5 -1 -0 0 
2 0 0 32.5 0 0 -1 -1 0 0 0 1 0 2.5
1 4.6984631039295399 -1.7101007166283599 32.5 0 0 -1 
2 0 0 0.60000000000000298 0 0 1 -1 3.5527136788005001e-15 0 -3.5527136788005001e-15 -1 0 5
1 2.34923155196477 -0.85505035831418097 0.60000000000000298 0.93969262078590676 -0.34202014332567288 0 
2 0 0 0.60000000000000298 0 0 -1 -1 0 0 0 1 0 2.5
1 -5 -2.5 0.60000000000000298 -1 -0 0 
1 6 5 0.60000000000000298 0 1 0 
1 6 5 -32.5 1.96115054020957e-16 1 0 
1 6 -2.5 -32.5 -0 0 1 
1 17 0 -32.5 0 1 0 
1 0 -2.4999999999999898 -32.5 -1 -0 0 
2 17 -2.4999999999999898 -30.5 -4.3368086899420202e-16 -1 -0 -1 4.3368086899420202e-16 0 0 0 -1 2
1 -8.32667268468868e-16 -2.5 32.5 0 0 1 
1 -2.3011220981534999 -1.21030454406718 0.59999999999999898 0 0 -1 
2 0 0 -0.89999999999999303 0 0 1 -0.88504696082826728 -0.46550174771814518 0 0.46550174771814518 -0.88504696082826728 0 2.6000000000000001
1 2.3011220981534999 1.21030454406718 0.59999999999999898 0 0 -1 
2 0 0 0.59999999999999898 -0 0 -1 -0.88504696082826728 -0.46550174771814518 0 -0.46550174771814518 0.88504696082826728 0 2.6000000000000001
2 0 0 0.59999999999999898 0 0 1 -0.88504696082826728 -0.46550174771814518 0 0.46550174771814518 -0.88504696082826728 0 4.8499999999999996
1 4.2924777600170998 2.2576834764329998 0.59999999999999898 0 0 -1 
2 0 0 -0.89999999999999303 0 0 1 -0.88504696082826728 -0.46550174771814518 0 0.46550174771814518 -0.88504696082826728 0 4.8499999999999996
1 -4.2924777600170998 -2.2576834764329998 0.59999999999999898 0 0 -1 
2 0 0 0.59999999999999898 0 0 1 -0.88504696082826728 -0.46550174771814518 0 0.46550174771814518 -0.88504696082826728 0 4.8499999999999996
2 0 0 0.59999999999999898 -0 0 -1 -0.88504696082826728 -0.46550174771814518 0 -0.46550174771814518 0.88504696082826728 0 2.6000000000000001
2 0 0 -0.89999999999999303 0 0 1 -0.88504696082826728 -0.46550174771814518 0 0.46550174771814518 -0.88504696082826728 0 2.6000000000000001
2 0 0 -0.89999999999999303 0 0 1 -0.88504696082826728 -0.46550174771814518 0 0.46550174771814518 -0.88504696082826728 0 4.8499999999999996
2 0 0 32 -0 0 -1 -0.99630637079449025 -0.08586975902092471 0 -0.08586975902092471 0.99630637079449025 0 2.50000000000002
1 2.4907659269862501 0.21467439755231399 32.5 0 0 -1 
2 0 0 -29 0 0 1 -0.99630637079449025 -0.08586975902092471 0 0.08586975902092471 -0.99630637079449025 0 2.50000000000002
1 -2.4907659269862501 -0.21467439755231399 32.5 0 0 -1 
2 0 0 32 -0 0 -1 -0.99630637079449025 -0.08586975902092471 0 -0.08586975902092471 0.99630637079449025 0 2.50000000000002
2 0 0 -29.4999999999491 0 -0 1 0.99630637079449025 0.08586975902092471 0 -0.08586975902092471 0.99630637079449025 0 1.9999999999527101
1 -2.4907659268706901 -0.21467439754235401 -29.0000000000746 -0.70449499096818902 -0.060719088906002 0.70710678114635295 
1 2.4907659268706901 0.21467439754235401 -29.0000000000746 0.70449499096818902 0.060719088906002097 0.70710678114635295 
2 -2.9792057372723399e-17 3.4566321016792901e-16 32.500000000005898 0 0 -1 -0.08586975902092471 0.99630637079449025 0 0.99630637079449025 0.08586975902092471 0 2.0000000000095501
1 0.21467439755211701 -2.4907659269839599 31.999999999960899 0.060719088899099202 -0.70449499088809697 -0.70710678122674198 
2 0 0 32 -0 0 -1 -0.99630637079449025 -0.08586975902092471 0 -0.08586975902092471 0.99630637079449025 0 2.50000000000002
1 -0.21467439755211701 2.4907659269839599 31.999999999960899 -0.060719088899099098 0.70449499088809697 -0.70710678122674198 
2 0 0 32 -0 0 -1 -0.99630637079449025 -0.08586975902092471 0 -0.08586975902092471 0.99630637079449025 0 2.50000000000002
2 0 0 -29 0 0 1 -0.99630637079449025 -0.08586975902092471 0 0.08586975902092471 -0.99630637079449025 0 2.50000000000002
2 0 0 -29.4999999999491 0 -0 1 0.99630637079449025 0.08586975902092471 0 -0.08586975902092471 0.99630637079449025 0 1.9999999999527101
2 -2.9792057372723399e-17 3.4566321016792901e-16 32.500000000005898 0 0 -1 -0.08586975902092471 0.99630637079449025 0 0.99630637079449025 0.08586975902092471 0 2.0000000000095501
2 0 0 -32.5 0 0 -1 1 -1.6653345369377299e-16 0 -1.6653345369377299e-16 -1 -0 5
1 -5 1.44499066804254e-15 -32.5 0 0 1 
2 0 0 -0.60000000000000298 0 0 -1 1 -1.6653345369377299e-16 0 -1.6653345369377299e-16 -1 -0 5
1 5 -8.3266726846886701e-16 -32.5 0 0 1 
2 0 0 -32.5 0 0 -1 1 -1.6653345369377299e-16 0 -1.6653345369377299e-16 -1 -0 5
2 0 0 -0.60000000000000298 0 0 -1 1 -1.6653345369377299e-16 0 -1.6653345369377299e-16 -1 -0 5
1 -3.4694469519536401e-17 -5 -32.5 0 0 -1 
1 -2.34923155196477 -0.85505035831417997 -32.5 0 -0 1 
2 0 0 -0.60000000000000298 0 0 1 1 -1.6653345369377299e-16 0 1.6653345369377299e-16 1 -0 2.5
1 -2.5 7.2249533402127197e-16 -32.5 0 0 1 
2 0 0 -32.5 0 0 1 1 -1.6653345369377299e-16 0 1.6653345369377299e-16 1 -0 2.5
2 0 0 -0.60000000000000298 0 0 1 1 -1.6653345369377299e-16 0 1.6653345369377299e-16 1 -0 2.5
1 2.5 -4.16333634234434e-16 -32.5 0 0 1 
2 0 0 -32.5 0 0 1 1 -1.6653345369377299e-16 0 1.6653345369377299e-16 1 -0 2.5
2 -17 -4.9999999999999902 -30.5 -2.6714741530042898e-16 1 0 -1 -2.6714741530042898e-16 0 0 0 1 2
1 8.3266726846886701e-16 -5 -32.5 -1 -1.6653345369377299e-16 0 
1 8.3266726846886701e-16 -5 -0.60000000000000298 1 1.6653345369377299e-16 0 
1 -6 -5 -32.5 0 0 -1 
1 8.3266726846886701e-16 -5 32.5 1 1.6653345369377299e-16 0 
2 -17 -4.9999999999999902 30.5 -2.6714741530042898e-16 1 0 1 2.6714741530042898e-16 0 0 0 -1 2
1 -19 -5 -32.5 0 -0 1 
1 -19 -2.4999999999999898 30.5 4.9960036108132005e-16 1 0 
1 -19 -2.4999999999999898 -32.5 0 0 -1 
1 -19 -2.4999999999999898 -30.5 -4.9960036108132005e-16 -1 0 
2 -17 -2.4999999999999898 -30.5 2.6714741530042898e-16 -1 -0 -1 -2.6714741530042898e-16 0 -0 0 -1 2
1 -17 -2.4999999999999898 -32.5 1.6653345369377299e-16 -1 -0 
1 -2.34923155196477 -0.85505035831417997 -32.5 -0.9396926207859071 -0.34202014332567199 0 
2 0 0 -32.5 0 0 -1 1 3.3861802251067298e-15 0 3.3861802251067298e-15 -1 0 5
1 -4.1633363423443301e-16 -2.4999999999999898 -32.5 1 -1.6653345369377299e-16 -0 
2 0 0 -32.5 0 0 1 1 -1.6653345369377299e-16 0 1.6653345369377299e-16 1 -0 2.5
1 -4.6984631039295399 -1.7101007166283599 -32.5 0 0 1 
2 0 0 -0.60000000000000298 0 0 -1 1 3.3861802251067298e-15 0 3.3861802251067298e-15 -1 0 5
1 -2.34923155196477 -0.85505035831417997 -0.60000000000000298 -0.93969262078590676 -0.34202014332567288 0 
2 0 0 -0.60000000000000298 0 0 1 1 -1.6653345369377299e-16 0 1.6653345369377299e-16 1 -0 2.5
1 5 -2.5 -0.60000000000000298 1 -1.6653345369377299e-16 -0 
1 -6 5 -0.60000000000000298 1.6653345369377299e-16 1 0 
1 -6 5 32.5 -2.9581600327183401e-17 1 0 
1 -6 -2.5 32.5 0 0 -1 
1 -17 2.83106871279415e-15 32.5 1.6653345369377299e-16 1 0 
1 -4.1633363423443301e-16 -2.4999999999999898 32.5 1 -1.6653345369377299e-16 -0 
2 -17 -2.4999999999999898 30.5 2.6714741530042898e-16 -1 0 1 2.6714741530042898e-16 0 -0 0 1 2
1 4.16333634234434e-16 -2.5 -32.5 0 0 -1 
Polygon3D 0
PolygonOnTriangulations 0
Surfaces 46
2 0 0 32.5 0 0 1 -1 0 0 0 -1 0 5
1 0 0 32.5 0 -0 1 1 0 0 -0 1 0 
2 0 0 32.5 0 0 1 -1 0 0 0 -1 0 5
1 -5 5 0.60000000000000298 0 -0 1 1 0 0 -0 1 0 
2 0 0 32.5 0 0 1 -1 0 0 0 -1 0 5
1 -1.6653345369377301e-15 -5 32.5 3.3306690738754701e-16 1 0 1 -3.3306690738754701e-16 0 0 0 -1 
2 0 0 32.5 0 0 1 -1 0 0 0 -1 0 2.5
1 4.6984631039295399 -1.7101007166283599 32.5 -0.34202014332567299 -0.93969262078590698 0 -0.93969262078590698 0.34202014332567299 0 -0 0 -1 
2 0 0 32.5 0 0 1 -1 0 0 0 -1 0 2.5
2 0 0 32.5 0 0 1 -1 0 0 0 -1 0 2.5
2 17 -2.4999999999999898 30.5 4.3368086899420202e-16 1 0 1 -4.3368086899420202e-16 0 0 0 -1 2
1 6 5 -32.5 1 -1.96115054020957e-16 0 -1.96115054020957e-16 -1 0 0 -0 -1 
1 0 0 -32.5 0 -0 1 1 0 0 -0 1 0 
2 17 5.6621374255882999e-15 -30.5 -3.3306690738754701e-16 -1 0 -1 3.3306690738754701e-16 0 -0 0 -1 2
1 19 -2.4999999999999898 32.5 1 3.3306690738754701e-16 0 -3.3306690738754701e-16 1 0 0 -0 1 
1 -8.3266726846886701e-16 -2.5 32.5 3.3306690738754701e-16 1 0 1 -3.3306690738754701e-16 0 0 0 -1 
2 0 0 0.59999999999999898 0 0 1 -0.88504696082826728 -0.46550174771814518 0 0.46550174771814518 -0.88504696082826728 0 2.6000000000000001
2 0 0 0.59999999999999898 0 0 1 -0.88504696082826728 -0.46550174771814518 0 0.46550174771814518 -0.88504696082826728 0 2.6000000000000001
1 0 0 -0.89999999999999303 0 -0 1 0.88504696082826728 0.46550174771814518 0 -0.46550174771814518 0.88504696082826728 0 
1 0 0 0.59999999999999898 0 -0 1 0.88504696082826728 0.46550174771814518 0 -0.46550174771814518 0.88504696082826728 0 
2 0 0 0.59999999999999898 0 0 1 -0.88504696082826728 -0.46550174771814518 0 0.46550174771814518 -0.88504696082826728 0 4.8499999999999996
2 0 0 0.59999999999999898 0 0 1 -0.88504696082826728 -0.46550174771814518 0 0.46550174771814518 -0.88504696082826728 0 4.8499999999999996
2 0 0 32.5 0 0 1 -0.99630637079449025 -0.08586975902092471 0 0.08586975902092471 -0.99630637079449025 0 2.50000000000002
3 -1.2909918463652099e-47 1.4978770359236401e-46 31.999999999960899 -0 -0 -1 -0.08586975902092471 0.99630637079449025 0 0.99630637079449025 0.08586975902092471 -0 2.4999999999977298
0.78539816334060497
2 0 0 32.5 0 0 1 -0.99630637079449025 -0.08586975902092471 0 0.08586975902092471 -0.99630637079449025 0 2.50000000000002
3 0 0 -29.0000000000746 -0 -0 1 0.99630637079449025 0.08586975902092471 0 -0.08586975902092471 0.99630637079449025 0 2.4999999998840399
0.78539816345429203
3 -1.2909918463652099e-47 1.4978770359236401e-46 31.999999999960899 -0 -0 -1 -0.08586975902092471 0.99630637079449025 0 0.99630637079449025 0.08586975902092471 -0 2.4999999999977298
0.78539816334060497
1 0 0 -29.5 0 -0 1 0.99630637079449025 0.08586975902092471 0 -0.08586975902092471 0.99630637079449025 0 
3 0 0 -29.0000000000746 -0 -0 1 0.99630637079449025 0.08586975902092471 0 -0.08586975902092471 0.99630637079449025 0 2.4999999998840399
0.78539816345429203
1 0 0 32.5 0 -0 1 0.99630637079449025 0.08586975902092471 0 -0.08586975902092471 0.99630637079449025 0 
2 0 0 -32.5 0 0 -1 1 -1.6653345369377299e-16 0 -1.6653345369377299e-16 -1 -0 5
1 0 0 -32.5 0 0 -1 -1 1.6653345369377299e-16 0 1.6653345369377299e-16 1 0 
2 0 0 -32.5 0 0 -1 1 -1.6653345369377299e-16 0 -1.6653345369377299e-16 -1 -0 5
1 5 5 -0.60000000000000298 0 0 -1 -1 1.6653345369377299e-16 0 1.6653345369377299e-16 1 0 
2 0 0 -32.5 0 0 -1 1 -1.6653345369377299e-16 0 -1.6653345369377299e-16 -1 -0 5
1 8.3266726846886701e-16 -5 -32.5 -1.6653345369377299e-16 1 0 -1 -1.6653345369377299e-16 0 0 0 1 
2 0 0 -32.5 0 0 -1 1 -1.6653345369377299e-16 0 -1.6653345369377299e-16 -1 -0 2.5
1 -4.6984631039295399 -1.7101007166283599 -32.5 0.34202014332567299 -0.93969262078590698 -0 0.93969262078590698 0.34202014332567299 0 0 -0 1 
2 0 0 -32.5 0 0 -1 1 -1.6653345369377299e-16 0 -1.6653345369377299e-16 -1 -0 2.5
2 0 0 -32.5 0 0 -1 1 -1.6653345369377299e-16 0 -1.6653345369377299e-16 -1 -0 2.5
2 -17 -2.4999999999999898 -30.5 -2.6714741530042898e-16 1 0 -1 -2.6714741530042898e-16 0 0 0 1 2
1 -6 5 32.5 -1 -2.9581600327183401e-17 0 2.9581600327183401e-17 -1 -0 0 0 1 
1 0 0 32.5 0 0 -1 -1 1.6653345369377299e-16 0 1.6653345369377299e-16 1 0 
2 -17 8.4932061383824507e-15 30.5 1.66533453693774e-16 -1 -0 1 1.66533453693774e-16 0 0 -0 1 2
1 -19 -2.4999999999999898 -32.5 -1 4.9960036108132005e-16 0 4.9960036108132005e-16 1 0 0 0 -1 
1 4.16333634234434e-16 -2.5 -32.5 -1.6653345369377299e-16 1 0 -1 -1.6653345369377299e-16 0 0 0 1 
Triangulations 0

TShapes 289
Ve
1e-07
5 6.12323399573676e-16 32.5
0 0

0101101
*
Ve
1e-07
-5 0 32.5
0 0

0101101
*
Ed
 1e-07 1 1 0
1  1 0 3.14159265358979 6.28318530717959
2  1 1 0 3.14159265358979 6.28318530717959
4 C0 1 0 2 0
0

0101000
+289 0 -288 0 *
Ve
1e-07
5 6.12323399573676e-16 0.600000000000003
0 0

0101101
*
Ed
 1e-07 1 1 0
1  2 0 0 31.9
2  2 1 0 0 31.9
2  3 3 0 0 31.9
4 CN 1 0 3 0
0

0101000
+289 0 -286 0 *
Ve
1e-07
-5 0 0.600000000000003
0 0

0101101
*
Ed
 1e-07 1 1 0
1  3 0 3.14159265358979 6.28318530717959
2  4 1 0 3.14159265358979 6.28318530717959
4 C0 1 0 4 0
0

0101000
+286 0 -284 0 *
Ed
 1e-07 1 1 0
1  4 0 0 31.9
2  5 1 0 0 31.9
2  6 5 0 0 31.9
4 CN 1 0 5 0
0

0101000
+288 0 -284 0 *
Wi

0101100
-287 0 +285 0 +283 0 -282 0 *
Fa
0  1e-07 1 0

0111000
+281 0 *
Ve
1e-07
-1.23165366794353e-15 -5 32.5
0 0

0101101
*
Ed
 1e-07 1 1 0
1  5 0 0 1.5707963267949
2  7 5 0 0 1.5707963267949
4 C0 5 0 2 0
0

0101000
+288 0 -279 0 *
Ve
1e-07
-1.23165366794353e-15 -5 0.600000000000003
0 0

0101101
*
Ed
 1e-07 1 1 0
1  6 0 0 1.5707963267949
2  8 5 0 0 1.5707963267949
4 C0 5 0 4 0
0

0101000
+284 0 -277 0 *
Ed
 1e-07 1 1 0
1  7 0 -31.9 0
2  9 5 0 -31.9 0
4 G1 5 0 6 0
0

0101000
+277 0 -279 0 *
Wi

0101100
-278 0 +282 0 +276 0 +275 0 *
Fa
0  1e-07 5 0

0111000
+274 0 *
Ve
1e-07
2.34923155196477 -0.855050358314181 32.5
0 0

0101101
*
Ve
1e-07
2.34923155196477 -0.855050358314181 0.600000000000003
0 0

0101101
*
Ed
 1e-07 1 1 0
1  8 0 -0 31.9
2  10 7 0 -0 31.9
4 C0 7 0 8 0
0

0101000
+272 0 -271 0 *
Ve
1e-07
2.5 3.06161699786838e-16 0.600000000000003
0 0

0101101
*
Ed
 1e-07 1 1 0
1  9 0 3.14159265358979 3.49065850398866
2  11 7 0 3.14159265358979 3.49065850398866
4 C0 7 0 4 0
0

0101000
+269 0 -271 0 *
Ve
1e-07
2.5 3.06161699786838e-16 32.5
0 0

0101101
*
Ed
 1e-07 1 1 0
1  10 0 0 31.9
2  12 7 0 0 31.9
2  13 9 0 0 31.9
4 CN 7 0 9 0
0

0101000
+267 0 -269 0 *
Ed
 1e-07 1 1 0
1  11 0 3.14159265358979 3.49065850398866
2  14 7 0 3.14159265358979 3.49065850398866
4 C0 7 0 2 0
0

0101000
+267 0 -272 0 *
Wi

0101100
+270 0 -268 0 -266 0 +265 0 *
Fa
0  1e-07 7 0

0111000
+264 0 *
Ve
1e-07
-2.5 0 0.600000000000003
0 0

0101101
*
Ed
 1e-07 1 1 0
1  12 0 0 3.14159265358979
2  15 9 0 0 3.14159265358979
4 C0 9 0 4 0
0

0101000
+262 0 -269 0 *
Ve
1e-07
-2.5 0 32.5
0 0

0101101
*
Ed
 1e-07 1 1 0
1  13 0 0 31.9
2  16 9 0 0 31.9
2  17 10 0 0 31.9
4 CN 9 0 10 0
0

0101000
+260 0 -262 0 *
Ed
 1e-07 1 1 0
1  14 0 0 3.14159265358979
2  18 9 0 0 3.14159265358979
4 C0 9 0 2 0
0

0101000
+260 0 -267 0 *
Wi

0101100
-261 0 -259 0 +258 0 +266 0 *
Fa
0  1e-07 9 0

0111000
+257 0 *
Ve
1e-07
17 -5 32.5
0 0

0101101
*
Ve
1e-07
19 -5 30.5
0 0

0101101
*
Ed
 1e-07 1 1 0
1  15 0 4.71238898038469 6.28318530717959
2  19 11 0 4.71238898038469 6.28318530717959
4 C0 6 0 11 0
0

0101000
+255 0 -254 0 *
Ed
 1e-07 1 1 0
1  16 0 4.336808689942e-16 17
4 C0 6 0 2 0
0

0101000
+279 0 -255 0 *
Ve
1e-07
6 -5 0.600000000000003
0 0

0101101
*
Ed
 1e-07 1 1 0
1  17 0 -6 -4.336808689942e-16
4 C0 6 0 4 0
0

0101000
+251 0 -277 0 *
Ve
1e-07
6 -5 -32.5
0 0

0101101
*
Ed
 1e-07 1 1 0
1  18 0 -65 -31.9
4 C0 6 0 12 0
0

0101000
+249 0 -251 0 *
Ve
1e-07
17 -5 -32.5
0 0

0101101
*
Ed
 1e-07 1 1 0
1  19 0 -17 -6
4 C0 6 0 13 0
0

0101000
+247 0 -249 0 *
Ve
1e-07
19 -5 -30.5
0 0

0101101
*
Ed
 1e-07 1 1 0
1  20 0 3.14159265358979 4.71238898038469
2  20 14 0 3.14159265358979 4.71238898038469
4 C0 6 0 14 0
0

0101000
+245 0 -247 0 *
Ed
 1e-07 1 1 0
1  21 0 2 63
4 C0 6 0 15 0
0

0101000
+254 0 -245 0 *
Wi

0101100
-253 0 -252 0 -275 0 -250 0 -248 0 -246 0 -244 0 -243 0 *
Fa
0  1e-07 6 0

0111000
-242 0 *
Ve
1e-07
19 -2.49999999999999 -30.5
0 0

0101101
*
Ed
 1e-07 1 1 0
1  22 0 -2.50000000000001 0
2  21 14 0 -2.50000000000001 0
4 G1 15 0 14 0
0

0101000
+245 0 -240 0 *
Ve
1e-07
19 -2.49999999999999 30.5
0 0

0101101
*
Ed
 1e-07 1 1 0
1  23 0 -63 -2
4 C0 15 0 16 0
0

0101000
+240 0 -238 0 *
Ed
 1e-07 1 1 0
1  24 0 0 2.50000000000001
2  22 11 0 0 2.50000000000001
4 G1 15 0 11 0
0

0101000
+238 0 -254 0 *
Wi

0101100
+243 0 +239 0 +237 0 +236 0 *
Fa
0  1e-07 15 0

0111000
+235 0 *
Ve
1e-07
17 -2.49999999999999 32.5
0 0

0101101
*
Ed
 1e-07 1 1 0
1  25 0 0 1.5707963267949
2  23 11 0 0 1.5707963267949
4 C0 11 0 16 0
0

0101000
+238 0 -233 0 *
Ed
 1e-07 1 1 0
1  26 0 0 2.50000000000001
2  24 11 0 0 2.50000000000001
4 G1 11 0 2 0
0

0101000
+233 0 -255 0 *
Wi

0101100
+253 0 -236 0 +232 0 +231 0 *
Fa
0  1e-07 11 0

0111000
+230 0 *
Ve
1e-07
4.69846310392954 -1.71010071662836 32.5
0 0

0101101
*
Ed
 1e-07 1 1 0
1  27 0 0 2.5
4 C0 2 0 8 0
0

0101000
+272 0 -228 0 *
Ed
 1e-07 1 1 0
1  28 0 2.79252680319093 3.14159265358979
2  25 3 0 2.79252680319093 3.14159265358979
4 C0 2 0 3 0
0

0101000
+228 0 -289 0 *
Ve
1e-07
-4.16333634234434e-16 -2.5 32.5
0 0

0101101
*
Ed
 1e-07 1 1 0
1  29 0 -17 4.16333634234434e-16
4 C0 2 0 16 0
0

0101000
+233 0 -225 0 *
Ed
 1e-07 1 1 0
1  30 0 4.71238898038469 6.28318530717959
2  26 10 0 4.71238898038469 6.28318530717959
4 C0 2 0 10 0
0

0101000
+225 0 -260 0 *
Wi

0101100
+227 0 +226 0 +287 0 +278 0 +252 0 -231 0 +224 0 +223 0 +258 0 +265 0 
*
Fa
0  1e-07 2 0

0111000
+222 0 *
Ve
1e-07
4.69846310392954 -1.71010071662836 0.600000000000003
0 0

0101101
*
Ed
 1e-07 1 1 0
1  31 0 0 31.9
2  27 3 0 0 31.9
4 C0 3 0 8 0
0

0101000
+228 0 -220 0 *
Ed
 1e-07 1 1 0
1  32 0 2.79252680319093 3.14159265358979
2  28 3 0 2.79252680319093 3.14159265358979
4 C0 3 0 4 0
0

0101000
+220 0 -286 0 *
Wi

0101100
-285 0 -226 0 +219 0 +218 0 *
Fa
0  1e-07 3 0

0111000
+217 0 *
Ed
 1e-07 1 1 0
1  33 0 0 2.5
4 C0 4 0 8 0
0

0101000
+271 0 -220 0 *
Ve
1e-07
-4.16333634234434e-16 -2.5 0.600000000000003
0 0

0101101
*
Ed
 1e-07 1 1 0
1  34 0 4.71238898038469 6.28318530717959
2  29 10 0 4.71238898038469 6.28318530717959
4 C0 4 0 10 0
0

0101000
+214 0 -262 0 *
Ve
1e-07
6 -2.5 0.600000000000003
0 0

0101101
*
Ed
 1e-07 1 1 0
1  35 0 -11 -5
4 C0 4 0 16 0
0

0101000
+212 0 -214 0 *
Ed
 1e-07 1 1 0
1  36 0 -10 -7.5
4 C0 4 0 12 0
0

0101000
+251 0 -212 0 *
Wi

0101100
-218 0 -215 0 -268 0 -261 0 -213 0 -211 0 -210 0 +250 0 -276 0 -283 0 
*
Fa
0  1e-07 4 0

0111000
-209 0 *
Ve
1e-07
6 -2.5 -32.5
0 0

0101101
*
Ed
 1e-07 1 1 0
1  37 0 -10 -7.5
4 C0 12 0 13 0
0

0101000
+249 0 -207 0 *
Ed
 1e-07 1 1 0
1  38 0 0 33.1
4 C0 12 0 16 0
0

0101000
+207 0 -212 0 *
Wi

0101100
-206 0 +248 0 +210 0 -205 0 *
Fa
0  1e-07 12 0

0111000
-204 0 *
Ve
1e-07
17 -2.49999999999999 -32.5
0 0

0101101
*
Ed
 1e-07 1 1 0
1  39 0 -5 -2.49999999999999
2  30 14 0 -5 -2.49999999999999
4 G1 13 0 14 0
0

0101000
+247 0 -202 0 *
Ed
 1e-07 1 1 0
1  40 0 -17 -6
4 C0 13 0 16 0
0

0101000
+202 0 -207 0 *
Wi

0101100
-201 0 +246 0 +206 0 -200 0 *
Fa
0  1e-07 13 0

0111000
-199 0 *
Ed
 1e-07 1 1 0
1  41 0 1.5707963267949 3.14159265358979
2  31 14 0 1.5707963267949 3.14159265358979
4 C0 14 0 16 0
0

0101000
+202 0 -240 0 *
Wi

0101100
+244 0 +201 0 +197 0 -239 0 *
Fa
0  1e-07 14 0

0111000
+196 0 *
Ed
 1e-07 1 1 0
1  42 0 -31.9 0
2  32 10 0 -31.9 0
4 G1 16 0 10 0
0

0101000
+214 0 -225 0 *
Wi

0101100
+211 0 +194 0 -224 0 -232 0 -237 0 -197 0 +200 0 +205 0 *
Fa
0  1e-07 16 0

0111000
+193 0 *
Wi

0101100
-227 0 +270 0 +215 0 -219 0 *
Fa
0  1e-07 8 0

0111000
+191 0 *
Wi

0101100
-213 0 +194 0 +223 0 +259 0 *
Fa
0  1e-07 10 0

0111000
+189 0 *
Sh

0101100
+280 0 +273 0 -263 0 -256 0 -241 0 +234 0 +229 0 +221 0 +216 0 -208 0 
-203 0 -198 0 +195 0 +192 0 +190 0 -188 0 *
So

0100000
+187 0 *
Ve
1e-07
-2.3011220981535 -1.21030454406718 0.599999999999999
0 0

0101101
*
Ve
1e-07
-2.3011220981535 -1.21030454406718 -0.899999999999993
0 0

0101101
*
Ed
 1e-07 1 1 0
1  43 0 0 1.49999999999999
2  33 17 0 0 1.49999999999999
2  34 18 0 0 1.49999999999999
4 CN 17 0 18 0
0

0101000
+185 0 -184 0 *
Ve
1e-07
2.3011220981535 1.21030454406718 -0.899999999999993
0 0

0101101
*
Ed
 1e-07 1 1 0
1  44 0 0 3.14159265358979
2  35 17 0 0 3.14159265358979
4 C0 17 0 19 0
0

0101000
+184 0 -182 0 *
Ve
1e-07
2.3011220981535 1.21030454406718 0.599999999999999
0 0

0101101
*
Ed
 1e-07 1 1 0
1  45 0 0 1.49999999999999
2  36 17 0 0 1.49999999999999
2  37 18 0 0 1.49999999999999
4 CN 17 0 18 0
0

0101000
+180 0 -182 0 *
Ed
 1e-07 1 1 0
1  46 0 3.14159265358979 6.28318530717959
2  38 17 0 3.14159265358979 6.28318530717959
4 C0 17 0 20 0
0

0101000
+180 0 -185 0 *
Wi

0101100
+183 0 +181 0 -179 0 +178 0 *
Fa
0  1e-07 17 0

0111000
+177 0 *
Ve
1e-07
4.2924777600171 2.257683476433 0.599999999999999
0 0

0101101
*
Ve
1e-07
-4.2924777600171 -2.257683476433 0.599999999999999
0 0

0101101
*
Ed
 1e-07 1 1 0
1  47 0 3.14159265358979 6.28318530717959
2  39 21 0 3.14159265358979 6.28318530717959
4 C0 21 0 20 0
0

0101000
+175 0 -174 0 *
Ve
1e-07
4.2924777600171 2.257683476433 -0.899999999999993
0 0

0101101
*
Ed
 1e-07 1 1 0
1  48 0 0 1.49999999999999
2  40 21 0 0 1.49999999999999
2  41 22 0 0 1.49999999999999
4 CN 21 0 22 0
0

0101000
+175 0 -172 0 *
Ve
1e-07
-4.2924777600171 -2.257683476433 -0.899999999999993
0 0

0101101
*
Ed
 1e-07 1 1 0
1  49 0 3.14159265358979 6.28318530717959
2  42 21 0 3.14159265358979 6.28318530717959
4 C0 21 0 19 0
0

0101000
+172 0 -170 0 *
Ed
 1e-07 1 1 0
1  50 0 0 1.49999999999999
2  43 21 0 0 1.49999999999999
2  44 22 0 0 1.49999999999999
4 CN 21 0 22 0
0

0101000
+174 0 -170 0 *
Wi

0101100
-173 0 +171 0 +169 0 -168 0 *
Fa
0  1e-07 21 0

0111000
+167 0 *
Ed
 1e-07 1 1 0
1  51 0 0 3.14159265358979
2  45 22 0 0 3.14159265358979
4 C0 20 0 22 0
0

0101000
+174 0 -175 0 *
Wi

0101100
+165 0 +173 0 *
Ed
 1e-07 1 1 0
1  52 0 0 3.14159265358979
2  46 18 0 0 3.14159265358979
4 C0 20 0 18 0
0

0101000
+185 0 -180 0 *
Wi

0101100
+163 0 +178 0 *
Fa
0  1e-07 20 0

0111000
+164 0 +162 0 *
Ed
 1e-07 1 1 0
1  53 0 3.14159265358979 6.28318530717959
2  47 18 0 3.14159265358979 6.28318530717959
4 C0 18 0 19 0
0

0101000
+182 0 -184 0 *
Wi

0101100
+160 0 -183 0 +163 0 +179 0 *
Fa
0  1e-07 18 0

0111000
+159 0 *
Ed
 1e-07 1 1 0
1  54 0 0 3.14159265358979
2  48 22 0 0 3.14159265358979
4 C0 22 0 19 0
0

0101000
+170 0 -172 0 *
Wi

0101100
-171 0 -165 0 +168 0 +157 0 *
Fa
0  1e-07 22 0

0111000
+156 0 *
Wi

0101100
-157 0 -169 0 *
Wi

0101100
+181 0 +160 0 *
Fa
0  1e-07 19 0

0111000
-154 0 -153 0 *
Sh

0101100
-176 0 +166 0 +161 0 -158 0 +155 0 -152 0 *
So

0100000
+151 0 *
Ve
1e-07
-0.214674397548759 2.490765926945 32
0 0

0101101
*
Ve
1e-07
2.49076592698625 0.214674397552314 32
0 0

0101101
*
Ed
 1e-07 1 1 0
1  55 0 1.5707963267949 3.14159265358979
2  49 23 0 1.5707963267949 3.14159265358979
2  50 24 0 1.5707963267949 3.14159265358979
4 C0 23 0 24 0
0

0101000
+149 0 -148 0 *
Ve
1e-07
2.490765926945 0.214674397548758 -29
0 0

0101101
*
Ed
 1e-07 1 1 0
1  56 0 0.5 61.5
2  51 23 0 0.5 61.5
2  52 25 0 0.5 61.5
4 CN 23 0 25 0
0

0101000
+148 0 -146 0 *
Ve
1e-07
-2.490765926945 -0.214674397548758 -29
0 0

0101101
*
Ed
 1e-07 1 1 0
1  57 0 3.14159265358979 6.28318530717959
2  53 23 0 3.14159265358979 6.28318530717959
2  54 26 0 3.14159265358979 6.28318530717959
4 C0 23 0 26 0
0

0101000
+146 0 -144 0 *
Ve
1e-07
-2.49076592698625 -0.214674397552314 32
0 0

0101101
*
Ed
 1e-07 1 1 0
1  58 0 0.5 61.5
2  55 23 0 0.5 61.5
2  56 25 0 0.5 61.5
4 CN 23 0 25 0
0

0101000
+142 0 -144 0 *
Ed
 1e-07 1 1 0
1  59 0 0 1.5707963267949
2  57 23 0 0 1.5707963267949
2  58 27 0 0 1.5707963267949
4 C0 23 0 27 0
0

0101000
+142 0 -149 0 *
Wi

0101100
+147 0 +145 0 +143 0 -141 0 +140 0 *
Fa
0  1e-07 23 0

0111000
+139 0 *
Ve
1e-07
1.99261274154186 0.171739518037788 -29.4999999999491
0 0

0101101
*
Ve
1e-07
-1.99261274154186 -0.171739518037788 -29.4999999999491
0 0

0101101
*
Ed
 1e-07 1 1 0
1  60 0 0 3.14159265358979
2  59 26 0 0 3.14159265358979
4 C0 26 0 28 0
0

0101000
+137 0 -136 0 *
Ed
 1e-07 1 1 0
1  61 0 -0.70710678104925 1.0548987304986e-10
2  60 26 0 -0.70710678104925 1.0548987304986e-10
2  61 29 0 -0.70710678104925 1.0548987304986e-10
4 CN 26 0 29 0
0

0101000
+136 0 -144 0 *
Ed
 1e-07 1 1 0
1  62 0 -0.70710678104925 1.0548987304986e-10
2  62 26 0 -0.70710678104925 1.0548987304986e-10
2  63 29 0 -0.70710678104925 1.0548987304986e-10
4 CN 26 0 29 0
0

0101000
+137 0 -146 0 *
Wi

0101100
+135 0 +134 0 -143 0 -133 0 *
Fa
0  1e-07 26 0

0111000
+132 0 *
Ve
1e-07
-0.171739518042669 1.9926127415985 32.5000000000059
0 0

0101101
*
Ve
1e-07
0.17173951804267 -1.99261274159849 32.5000000000059
0 0

0101101
*
Ed
 1e-07 1 1 0
1  63 0 0 3.14159265358979
2  64 24 0 0 3.14159265358979
4 C0 24 0 30 0
0

0101000
+130 0 -129 0 *
Ve
1e-07
0.214674397548759 -2.490765926945 32
0 0

0101101
*
Ed
 1e-07 1 1 0
1  64 0 -0.707106781210009 -5.52996824375456e-11
2  65 24 0 -0.707106781210009 -5.52996824375456e-11
2  66 27 0 -0.707106781210009 -5.52996824375456e-11
4 CN 24 0 27 0
0

0101000
+129 0 -127 0 *
Ed
 1e-07 1 1 0
1  65 0 3.14159265358979 4.71238898038469
2  67 24 0 3.14159265358979 4.71238898038469
2  68 25 0 3.14159265358979 4.71238898038469
4 C0 24 0 25 0
0

0101000
+148 0 -127 0 *
Ed
 1e-07 1 1 0
1  66 0 -0.707106781210002 -5.52996824375456e-11
2  69 24 0 -0.707106781210002 -5.52996824375456e-11
2  70 27 0 -0.707106781210002 -5.52996824375456e-11
4 CN 24 0 27 0
0

0101000
+130 0 -149 0 *
Wi

0101100
+128 0 +126 0 -125 0 -147 0 -124 0 *
Fa
0  1e-07 24 0

0111000
+123 0 *
Ed
 1e-07 1 1 0
1  67 0 4.71238898038469 6.28318530717959
2  71 25 0 4.71238898038469 6.28318530717959
2  72 27 0 4.71238898038469 6.28318530717959
4 C0 25 0 27 0
0

0101000
+127 0 -142 0 *
Ed
 1e-07 1 1 0
1  68 0 0 3.14159265358979
2  73 25 0 0 3.14159265358979
2  74 29 0 0 3.14159265358979
4 C0 25 0 29 0
0

0101000
+144 0 -146 0 *
Wi

0101100
-145 0 +125 0 +121 0 +141 0 +120 0 *
Fa
0  1e-07 25 0

0111000
+119 0 *
Ed
 1e-07 1 1 0
1  69 0 3.14159265358979 6.28318530717959
2  75 29 0 3.14159265358979 6.28318530717959
4 C0 29 0 28 0
0

0101000
+136 0 -137 0 *
Wi

0101100
-134 0 +117 0 +133 0 -120 0 *
Fa
0  1e-07 29 0

0111000
+116 0 *
Ed
 1e-07 1 1 0
1  70 0 3.14159265358979 6.28318530717959
2  76 27 0 3.14159265358979 6.28318530717959
4 C0 27 0 30 0
0

0101000
+129 0 -130 0 *
Wi

0101100
-126 0 +114 0 +124 0 -140 0 -121 0 *
Fa
0  1e-07 27 0

0111000
+113 0 *
Wi

0101100
-135 0 -117 0 *
Fa
0  1e-07 28 0

0111000
-111 0 *
Wi

0101100
-128 0 -114 0 *
Fa
0  1e-07 30 0

0111000
+109 0 *
Sh

0101100
+138 0 +131 0 +122 0 +118 0 +115 0 +112 0 -110 0 +108 0 *
So

0100000
+107 0 *
Ve
1e-07
-5 1.44499066804254e-15 -32.5
0 0

0101101
*
Ve
1e-07
5 -8.32667268468867e-16 -32.5
0 0

0101101
*
Ed
 1e-07 1 1 0
1  71 0 3.14159265358979 6.28318530717959
2  77 31 0 3.14159265358979 6.28318530717959
4 C0 31 0 32 0
0

0101000
+105 0 -104 0 *
Ve
1e-07
-5 1.44499066804254e-15 -0.600000000000003
0 0

0101101
*
Ed
 1e-07 1 1 0
1  72 0 0 31.9
2  78 31 0 0 31.9
2  79 33 0 0 31.9
4 CN 31 0 33 0
0

0101000
+105 0 -102 0 *
Ve
1e-07
5 -8.32667268468867e-16 -0.600000000000003
0 0

0101101
*
Ed
 1e-07 1 1 0
1  73 0 3.14159265358979 6.28318530717959
2  80 31 0 3.14159265358979 6.28318530717959
4 C0 31 0 34 0
0

0101000
+102 0 -100 0 *
Ed
 1e-07 1 1 0
1  74 0 0 31.9
2  81 31 0 0 31.9
2  82 35 0 0 31.9
4 CN 31 0 35 0
0

0101000
+104 0 -100 0 *
Wi

0101100
-103 0 +101 0 +99 0 -98 0 *
Fa
0  1e-07 31 0

0111000
+97 0 *
Ve
1e-07
3.98986399474666e-16 -5 -32.5
0 0

0101101
*
Ed
 1e-07 1 1 0
1  75 0 0 1.5707963267949
2  83 35 0 0 1.5707963267949
4 C0 35 0 32 0
0

0101000
+104 0 -95 0 *
Ve
1e-07
3.98986399474666e-16 -5 -0.600000000000003
0 0

0101101
*
Ed
 1e-07 1 1 0
1  76 0 0 1.5707963267949
2  84 35 0 0 1.5707963267949
4 C0 35 0 34 0
0

0101000
+100 0 -93 0 *
Ed
 1e-07 1 1 0
1  77 0 -31.9 0
2  85 35 0 -31.9 0
4 G1 35 0 36 0
0

0101000
+93 0 -95 0 *
Wi

0101100
-94 0 +98 0 +92 0 +91 0 *
Fa
0  1e-07 35 0

0111000
+90 0 *
Ve
1e-07
-2.34923155196477 -0.85505035831418 -32.5
0 0

0101101
*
Ve
1e-07
-2.34923155196477 -0.85505035831418 -0.600000000000003
0 0

0101101
*
Ed
 1e-07 1 1 0
1  78 0 0 31.9
2  86 37 0 0 31.9
4 C0 37 0 38 0
0

0101000
+88 0 -87 0 *
Ve
1e-07
-2.5 7.22495334021272e-16 -0.600000000000003
0 0

0101101
*
Ed
 1e-07 1 1 0
1  79 0 3.14159265358979 3.49065850398866
2  87 37 0 3.14159265358979 3.49065850398866
4 C0 37 0 34 0
0

0101000
+85 0 -87 0 *
Ve
1e-07
-2.5 7.22495334021272e-16 -32.5
0 0

0101101
*
Ed
 1e-07 1 1 0
1  80 0 0 31.9
2  88 37 0 0 31.9
2  89 39 0 0 31.9
4 CN 37 0 39 0
0

0101000
+83 0 -85 0 *
Ed
 1e-07 1 1 0
1  81 0 3.14159265358979 3.49065850398866
2  90 37 0 3.14159265358979 3.49065850398866
4 C0 37 0 32 0
0

0101000
+83 0 -88 0 *
Wi

0101100
+86 0 -84 0 -82 0 +81 0 *
Fa
0  1e-07 37 0

0111000
+80 0 *
Ve
1e-07
2.5 -4.16333634234434e-16 -0.600000000000003
0 0

0101101
*
Ed
 1e-07 1 1 0
1  82 0 0 3.14159265358979
2  91 39 0 0 3.14159265358979
4 C0 39 0 34 0
0

0101000
+78 0 -85 0 *
Ve
1e-07
2.5 -4.16333634234434e-16 -32.5
0 0

0101101
*
Ed
 1e-07 1 1 0
1  83 0 0 31.9
2  92 39 0 0 31.9
2  93 40 0 0 31.9
4 CN 39 0 40 0
0

0101000
+76 0 -78 0 *
Ed
 1e-07 1 1 0
1  84 0 0 3.14159265358979
2  94 39 0 0 3.14159265358979
4 C0 39 0 32 0
0

0101000
+76 0 -83 0 *
Wi

0101100
-77 0 -75 0 +74 0 +82 0 *
Fa
0  1e-07 39 0

0111000
+73 0 *
Ve
1e-07
-17 -5 -32.5
0 0

0101101
*
Ve
1e-07
-19 -5 -30.5
0 0

0101101
*
Ed
 1e-07 1 1 0
1  85 0 4.71238898038469 6.28318530717959
2  95 41 0 4.71238898038469 6.28318530717959
4 C0 36 0 41 0
0

0101000
+71 0 -70 0 *
Ed
 1e-07 1 1 0
1  86 0 4.33680868994201e-16 17
4 C0 36 0 32 0
0

0101000
+95 0 -71 0 *
Ve
1e-07
-6 -5 -0.600000000000003
0 0

0101101
*
Ed
 1e-07 1 1 0
1  87 0 -6 -4.33680868994201e-16
4 C0 36 0 34 0
0

0101000
+67 0 -93 0 *
Ve
1e-07
-6 -5 32.5
0 0

0101101
*
Ed
 1e-07 1 1 0
1  88 0 -65 -31.9
4 C0 36 0 42 0
0

0101000
+65 0 -67 0 *
Ve
1e-07
-17 -5 32.5
0 0

0101101
*
Ed
 1e-07 1 1 0
1  89 0 -17 -6
4 C0 36 0 43 0
0

0101000
+63 0 -65 0 *
Ve
1e-07
-19 -5 30.5
0 0

0101101
*
Ed
 1e-07 1 1 0
1  90 0 3.14159265358979 4.71238898038469
2  96 44 0 3.14159265358979 4.71238898038469
4 C0 36 0 44 0
0

0101000
+61 0 -63 0 *
Ed
 1e-07 1 1 0
1  91 0 2 63
4 C0 36 0 45 0
0

0101000
+70 0 -61 0 *
Wi

0101100
-69 0 -68 0 -91 0 -66 0 -64 0 -62 0 -60 0 -59 0 *
Fa
0  1e-07 36 0

0111000
-58 0 *
Ve
1e-07
-19 -2.49999999999999 30.5
0 0

0101101
*
Ed
 1e-07 1 1 0
1  92 0 -2.50000000000001 0
2  97 44 0 -2.50000000000001 0
4 G1 45 0 44 0
0

0101000
+61 0 -56 0 *
Ve
1e-07
-19 -2.49999999999999 -30.5
0 0

0101101
*
Ed
 1e-07 1 1 0
1  93 0 -63 -2
4 C0 45 0 46 0
0

0101000
+56 0 -54 0 *
Ed
 1e-07 1 1 0
1  94 0 0 2.50000000000001
2  98 41 0 0 2.50000000000001
4 G1 45 0 41 0
0

0101000
+54 0 -70 0 *
Wi

0101100
+59 0 +55 0 +53 0 +52 0 *
Fa
0  1e-07 45 0

0111000
+51 0 *
Ve
1e-07
-17 -2.49999999999999 -32.5
0 0

0101101
*
Ed
 1e-07 1 1 0
1  95 0 0 1.5707963267949
2  99 41 0 0 1.5707963267949
4 C0 41 0 46 0
0

0101000
+54 0 -49 0 *
Ed
 1e-07 1 1 0
1  96 0 0 2.50000000000001
2  100 41 0 0 2.50000000000001
4 G1 41 0 32 0
0

0101000
+49 0 -71 0 *
Wi

0101100
+69 0 -52 0 +48 0 +47 0 *
Fa
0  1e-07 41 0

0111000
+46 0 *
Ve
1e-07
-4.69846310392954 -1.71010071662836 -32.5
0 0

0101101
*
Ed
 1e-07 1 1 0
1  97 0 0 2.5
4 C0 32 0 38 0
0

0101000
+88 0 -44 0 *
Ed
 1e-07 1 1 0
1  98 0 2.79252680319093 3.14159265358979
2  101 33 0 2.79252680319093 3.14159265358979
4 C0 32 0 33 0
0

0101000
+44 0 -105 0 *
Ve
1e-07
5.42341872339446e-31 -2.5 -32.5
0 0

0101101
*
Ed
 1e-07 1 1 0
1  99 0 -17 4.16333634234435e-16
4 C0 32 0 46 0
0

0101000
+49 0 -41 0 *
Ed
 1e-07 1 1 0
1  100 0 4.71238898038469 6.28318530717959
2  102 40 0 4.71238898038469 6.28318530717959
4 C0 32 0 40 0
0

0101000
+41 0 -76 0 *
Wi

0101100
+43 0 +42 0 +103 0 +94 0 +68 0 -47 0 +40 0 +39 0 +74 0 +81 0 
*
Fa
0  1e-07 32 0

0111000
+38 0 *
Ve
1e-07
-4.69846310392954 -1.71010071662836 -0.600000000000003
0 0

0101101
*
Ed
 1e-07 1 1 0
1  101 0 0 31.9
2  103 33 0 0 31.9
4 C0 33 0 38 0
0

0101000
+44 0 -36 0 *
Ed
 1e-07 1 1 0
1  102 0 2.79252680319093 3.14159265358979
2  104 33 0 2.79252680319093 3.14159265358979
4 C0 33 0 34 0
0

0101000
+36 0 -102 0 *
Wi

0101100
-101 0 -42 0 +35 0 +34 0 *
Fa
0  1e-07 33 0

0111000
+33 0 *
Ed
 1e-07 1 1 0
1  103 0 0 2.5
4 C0 34 0 38 0
0

0101000
+87 0 -36 0 *
Ve
1e-07
4.93038065763132e-32 -2.5 -0.600000000000003
0 0

0101101
*
Ed
 1e-07 1 1 0
1  104 0 4.71238898038469 6.28318530717959
2  105 40 0 4.71238898038469 6.28318530717959
4 C0 34 0 40 0
0

0101000
+30 0 -78 0 *
Ve
1e-07
-6 -2.5 -0.600000000000003
0 0

0101101
*
Ed
 1e-07 1 1 0
1  105 0 -11 -5
4 C0 34 0 46 0
0

0101000
+28 0 -30 0 *
Ed
 1e-07 1 1 0
1  106 0 -10 -7.5
4 C0 34 0 42 0
0

0101000
+67 0 -28 0 *
Wi

0101100
-34 0 -31 0 -84 0 -77 0 -29 0 -27 0 -26 0 +66 0 -92 0 -99 0 
*
Fa
0  1e-07 34 0

0111000
-25 0 *
Ve
1e-07
-6 -2.5 32.5
0 0

0101101
*
Ed
 1e-07 1 1 0
1  107 0 -10 -7.5
4 C0 42 0 43 0
0

0101000
+65 0 -23 0 *
Ed
 1e-07 1 1 0
1  108 0 0 33.1
4 C0 42 0 46 0
0

0101000
+23 0 -28 0 *
Wi

0101100
-22 0 +64 0 +26 0 -21 0 *
Fa
0  1e-07 42 0

0111000
-20 0 *
Ve
1e-07
-17 -2.49999999999999 32.5
0 0

0101101
*
Ed
 1e-07 1 1 0
1  109 0 -5 -2.49999999999999
2  106 44 0 -5 -2.49999999999999
4 G1 43 0 44 0
0

0101000
+63 0 -18 0 *
Ed
 1e-07 1 1 0
1  110 0 -17 -6
4 C0 43 0 46 0
0

0101000
+18 0 -23 0 *
Wi

0101100
-17 0 +62 0 +22 0 -16 0 *
Fa
0  1e-07 43 0

0111000
-15 0 *
Ed
 1e-07 1 1 0
1  111 0 1.5707963267949 3.14159265358979
2  107 44 0 1.5707963267949 3.14159265358979
4 C0 44 0 46 0
0

0101000
+18 0 -56 0 *
Wi

0101100
+60 0 +17 0 +13 0 -55 0 *
Fa
0  1e-07 44 0

0111000
+12 0 *
Ed
 1e-07 1 1 0
1  112 0 -31.9 0
2  108 40 0 -31.9 0
4 G1 46 0 40 0
0

0101000
+30 0 -41 0 *
Wi

0101100
+27 0 +10 0 -40 0 -48 0 -53 0 -13 0 +16 0 +21 0 *
Fa
0  1e-07 46 0

0111000
+9 0 *
Wi

0101100
-43 0 +86 0 +31 0 -35 0 *
Fa
0  1e-07 38 0

0111000
+7 0 *
Wi

0101100
-29 0 +10 0 +39 0 +75 0 *
Fa
0  1e-07 40 0

0111000
+5 0 *
Sh

0101100
+96 0 +89 0 -79 0 -72 0 -57 0 +50 0 +45 0 +37 0 +32 0 -24 0 
-19 0 -14 0 +11 0 +8 0 +6 0 -4 0 *
So

0100000
+3 0 *
Co

1100000
+186 0 +150 0 +106 0 +2 0 *

+1 0 