DBRep_DrawableShape

CASCADE Topology V1, (c) Matra-Datavision
Locations 0
Curve2ds 120
7 0 0  3 25 23  4.1353837762121035 0.24909533744615636  4.133974328735472 0.24548887211626483  4.1312231293763944 0.23825252808245956  4.1272981195093159 0.22733126574850301  4.1235735871844188 0.2163467689699077  4.1200482698364524 0.20530248658600991  4.1167209429133855 0.19420182851591541  4.113590428221527 0.18304816178019404  4.1106555966308909 0.17184481412791522  4.1079153718737995 0.1605950757033342  4.1053687336561318 0.14930220130633221  4.1030147205807568 0.13796941255406517  4.1008524327704814 0.12659990012198208  4.0988810342407351 0.11519682600979203  4.0970997550267088 0.10376332584095789  4.0955078930823436 0.092302511187953143  4.0941048159568982 0.080817471920714021  4.0928899622818653 0.069311278573839993  4.0918628429979877 0.057786984732728718  4.091023042630022 0.046247629424247635  4.0903702195014793 0.034696239553050116  4.0899041090582555 0.023135832218797316  4.0896245147719892 0.011569417518760424  4.0895624013255167 0.0038564722198488038  4.0895623949726883 7.1437729950262108e-17 
 2.7052603405912072 4 2.7250936275456885 1 2.7449269145001698 1 2.7647602014546506 1 2.7845934884091319 1 2.8044267753636132 1 2.8242600623180945 1 2.8440933492725753 1 2.8639266362270566 1 2.8837599231815378 1 2.9035932101360191 1 2.9234264970905004 1 2.9432597840449812 1 2.9630930709994625 1 2.9829263579539438 1 3.0027596449084251 1 3.0225929318629059 1 3.0424262188173872 1 3.0622595057718685 1 3.0820927927263497 1 3.1019260796808306 1 3.1217593666353118 1 3.1415926535897931 4
1 0 5.4050738887233256e-16 1 -1.1469923028896671e-16 
1 0 5.4050738887233256e-16 1 -1.1469923028896671e-16 
1 7.8539816339744828 0 -1 0 
1 7.8539816339744828 0 -1 0 
7 0 0  3 25 23  5.3352155657966911 0  5.3352125677985489 0.018149612187995167  5.3338419107353676 0.054450809885459674  5.3276337031049428 0.10858755905707206  5.3172285322201311 0.1620922007692969  5.3025344152054021 0.21463399954761866  5.2834342327703974 0.26586649612815461  5.2597892658906344 0.31542181727966717  5.2314524522715375 0.36290690350461535  5.1982850964223184 0.40790080702228049  5.1601799814946325 0.44995419914619439  5.1170908668120738 0.488591973815517  5.0690679439150577 0.52332010738800772  5.0162967997668222 0.55363785016003575  4.95913594226211 0.57905592605960132  4.8981452266929884 0.59912051141840017  4.8340958633505373 0.61344134944868334  4.7679535199596792 0.62172072512294052  4.7008309449636325 0.62377862813906826  4.6339133461793676 0.61956947803580997  4.5683719622871672 0.60918594795052539  4.5052717072057931 0.59285217450164074  4.445531690573099 0.57089609685847487  4.4083701271684745 0.55279924293611815  4.3905752760695282 0.54295312455650169 
 0 4 0.093343738641846835 1 0.18668747728369367 1 0.28003121592554048 1 0.37337495456738734 1 0.4667186932092342 1 0.56006243185108096 1 0.65340617049292782 1 0.74674990913477468 1 0.84009364777662154 1 0.93343738641846841 1 1.0267811250603152 1 1.1201248637021619 1 1.2134686023440089 1 1.3068123409858556 1 1.4001560796277026 1 1.4934998182695494 1 1.5868435569113961 1 1.6801872955532431 1 1.7735310341950898 1 1.8668747728369368 1 1.9602185114787836 1 2.0535622501206303 4
7 0 0  3 25 23  4.3905752760695282 0.54295312455650169  4.3849224133862084 0.53983004740943163  4.3737689590604045 0.53342498266386207  4.3575050442951442 0.52335645888934201  4.3417175495473543 0.51284275974816074  4.3264141791852273 0.5018998234599874  4.3116011749499146 0.49054362587140404  4.2972832033482327 0.47879014336298281  4.2834635432350421 0.46665529362282149  4.2701441957386166 0.4541548902601279  4.2573260151811798 0.44130460146860179  4.2450088323461195 0.42811991510756292  4.2331915759247511 0.41461610922916514  4.221872389090894 0.40080822791315218  4.2110487408613624 0.38671106200632716  4.2007175314759371 0.3723391344022709  4.1908751914035136 0.35770668949715168  4.1815177737385349 0.34282768637133226  4.1726410398112321 0.32771579559736624  4.1642405383417032 0.31238439830712383  4.1563116771294863 0.29684659095429011  4.1488497917218483 0.2811151813703166  4.1418501955104068 0.2652027283867282  4.1374889122280827 0.25448186184391103  4.1353837762121035 0.24909533744615667 
 5.1951549037104234 4 5.2247775441863586 1 5.2544001846622939 1 5.2840228251382291 1 5.3136454656141643 1 5.3432681060900995 1 5.3728907465660356 1 5.4025133870419708 1 5.432136027517906 1 5.4617586679938412 1 5.4913813084697765 1 5.5210039489457117 1 5.5506265894216469 1 5.5802492298975821 1 5.6098718703735173 1 5.6394945108494525 1 5.6691171513253877 1 5.698739791801323 1 5.7283624322772591 1 5.7579850727531943 1 5.7876077132291295 1 5.8172303537050647 1 5.8468529941809999 4
1 1.5707963267948966 0 -1 0 
1 1.5707963267948966 0 -1 0 
1 0 -1.8016912962411077e-16 1 1.1469923028896666e-16 
1 0 -1.8016912962411077e-16 1 1.1469923028896666e-16 
7 0 0  3 25 23  2.1478015309674809 0.2490953374461557  2.1492109784441138 0.24548887211626422  2.1519621778031888 0.23825252808245906  2.1558871876702703 0.2273312657485026  2.1596117199951643 0.21634676896990737  2.1631370373431347 0.20530248658600961  2.166464364266198 0.19420182851591544  2.1695948789580566 0.18304816178019387  2.1725297105486954 0.17184481412791544  2.1752699353057854 0.16059507570333434  2.1778165735234527 0.14930220130633259  2.1801705865988277 0.13796941255406583  2.182332874409104 0.12659990012198274  2.1843042729388511 0.11519682600979279  2.1860855521528757 0.10376332584095881  2.1876774140972408 0.092302511187954225  2.1890804912226867 0.080817471920715159  2.1902953448977209 0.069311278573841242  2.1913224641815963 0.057786984732730078  2.1921622645495629 0.046247629424249176  2.1928150876781061 0.034696239553051782  2.1932811981213307 0.023135832218799078  2.1935607924075948 0.011569417518762304  2.1936229058540682 0.0038564722198507835  2.1936229122068966 2.1438540425838788e-15 
 2.7052603405912112 4 2.7250936275456921 1 2.7449269145001733 1 2.7647602014546542 1 2.784593488409135 1 2.8044267753636163 1 2.8242600623180971 1 2.8440933492725784 1 2.8639266362270592 1 2.8837599231815401 1 2.9035932101360213 1 2.9234264970905022 1 2.943259784044983 1 2.9630930709994643 1 2.9829263579539451 1 3.0027596449084264 1 3.0225929318629072 1 3.0424262188173881 1 3.0622595057718693 1 3.0820927927263502 1 3.101926079680831 1 3.1217593666353123 1 3.1415926535897931 4
7 0 0  3 25 23  1.8926100311100562 0.54295312455650335  1.898262893793377 0.5398300474094333  1.9094163481191797 0.53342498266386362  1.9256802628844405 0.52335645888934368  1.9414677576322297 0.51284275974816207  1.9567711279943583 0.50189982345998874  1.9715841322296703 0.49054362587140526  1.9859021038313516 0.47879014336298398  1.9997217639445448 0.46665529362282304  2.0130411114409674 0.45415489026012923  2.0258592919984046 0.44130460146860301  2.0381764748334672 0.42811991510756414  2.0499937312548333 0.4146161092291662  2.0613129180886909 0.40080822791315313  2.0721365663182252 0.3867110620063281  2.0824677757036469 0.37233913440227157  2.0923101157760731 0.35770668949715229  2.1016675334410513 0.34282768637133226  2.1105442673683545 0.32771579559736663  2.1189447688378844 0.31238439830712417  2.1268736300501003 0.29684659095429045  2.1343355154577379 0.28111518137031694  2.1413351116691803 0.26520272838672815  2.1456963949515049 0.25448186184391086  2.1478015309674827 0.24909533744615658 
 5.1951549037104181 4 5.2247775441863533 1 5.2544001846622894 1 5.2840228251382246 1 5.3136454656141598 1 5.3432681060900959 1 5.3728907465660312 1 5.4025133870419673 1 5.4321360275179025 1 5.4617586679938377 1 5.4913813084697738 1 5.521003948945709 1 5.5506265894216442 1 5.5802492298975803 1 5.6098718703735155 1 5.6394945108494507 1 5.6691171513253868 1 5.6987397918013221 1 5.7283624322772582 1 5.7579850727531934 1 5.7876077132291286 1 5.8172303537050647 1 5.8468529941809999 4
7 0 0  3 25 23  0.94796974138289669 0  0.94797273938103965 0.018149612187995087  0.94934339644422094 0.054450809885459445  0.95555160407464312 0.10858755905707174  0.96595677495945653 0.16209220076929629  0.98065089197418476 0.21463399954761797  0.99975107440919075 0.26586649612815372  1.0233960412889525 0.31542181727966623  1.0517328549080511 0.36290690350461402  1.0849002107572665 0.40790080702227899  1.123005325684955 0.44995419914619278  1.1660944403675115 0.48859197381551528  1.2141173632645279 0.52332010738800594  1.2668885074127632 0.55363785016003408  1.3240493649174754 0.57905592605959932  1.3850400804865974 0.5991205114183985  1.4490894438290483 0.61344134944868156  1.5152317872199053 0.62172072512293908  1.5823543622159504 0.62377862813906726  1.6492719610002162 0.61956947803580864  1.7148133448924137 0.60918594795052461  1.7779135999737909 0.59285217450163996  1.8376536166064834 0.57089609685847464  1.8748151800111084 0.55279924293611804  1.8926100311100553 0.54295312455650169 
 0 4 0.093343738641846669 1 0.18668747728369334 1 0.28003121592554003 1 0.37337495456738667 1 0.46671869320923332 1 0.56006243185108007 1 0.65340617049292671 1 0.74674990913477335 1 0.84009364777661999 1 0.93343738641846663 1 1.0267811250603134 1 1.1201248637021601 1 1.2134686023440067 1 1.3068123409858534 1 1.4001560796276999 1 1.4934998182695467 1 1.5868435569113934 1 1.68018729555324 1 1.7735310341950867 1 1.8668747728369333 1 1.96021851147878 1 2.0535622501206268 4
1 0 -55 1 0 
1 3.1415926535897931 0 0 1 
1 3.1415926535897931 0 0 1 
1 0 -5 1 0 
1 0 0 0 1 
1 6.2831853071795862 0 0 1 
1 4.7123889803846897 0 0 1 
1 3.1415926535897931 12.4 1 0 
1 3.1415926535897931 0 0 1 
1 3.1415926535897931 0 0 1 
1 3.1415926535897931 0 1 0 
1 -3.1415926535897931 12.4 1 0 
1 0 0 0 1 
1 6.2831853071795862 0 0 1 
1 -3.1415926535897931 0 1 0 
1 3.1415926535897931 0 -1 0 
1 3.1415926535897931 0 0 1 
1 3.1415926535897931 0 0 1 
1 3.1415926535897931 12.4 -1 0 
1 0 0 0 1 
1 6.2831853071795862 0 0 1 
1 9.4247779607693793 0 -1 0 
1 9.4247779607693793 12.4 -1 0 
1 5.846852994180999 0 0 1 
1 4.7123889803846897 0 0 1 
1 3.1415926535897931 50 1 0 
1 3.1415926535897931 0 0 1 
1 3.1415926535897931 0 0 1 
1 6.2831853071795862 37.600000000000001 -1 0 
1 -3.1415926535897931 50 1 0 
1 0 0 0 1 
1 6.2831853071795862 0 0 1 
1 6.2831853071795862 37.600000000000001 -1 0 
1 0 37.600000000000001 1 0 
1 3.1415926535897931 0 0 1 
1 3.1415926535897931 0 0 1 
1 3.1415926535897931 50 -1 0 
1 0 0 0 1 
1 6.2831853071795862 0 0 1 
1 0 37.600000000000001 1 0 
1 9.4247779607693793 50 -1 0 
1 5.846852994180999 0 0 1 
7 0 0  3 25 23  2.1936229122068966 7.1437729950261973e-17  2.1936074764229039 -0.027761958340679432  2.1904152448465126 -0.083302263749071292  2.1758368020457337 -0.16547499320357051  2.1512263490328185 -0.24535530299858677  2.116117618809175 -0.32167578870045022  2.0699857047587966 -0.39304478695903017  2.0123601903595558 -0.45791538209369564  1.9430452894638837 -0.51459253781617864  1.8624105095064618 -0.56128715578178578  1.7717158819161665 -0.59624058143122727  1.6733484375522201 -0.61792362366926046  1.5707963267948963 -0.62527806628336946  1.4682442160375737 -0.61792362366926057  1.3698767716736264 -0.5962405814312276  1.2791821440833318 -0.56128715578178556  1.1985473641259092 -0.51459253781617864  1.1292324632302377 -0.45791538209369614  1.0716069488309969 -0.39304478695903017  1.025475034780619 -0.32167578870045044  0.99036630455697394 -0.24535530299858688  0.9657558515440603 -0.16547499320357067  0.95117740874328005 -0.083302263749071556  0.94798517716689001 -0.027761958340679668  0.94796974138289669 -1.4287545990052395e-16 
 3.1415926535897931 4 3.2843923196620564 1 3.4271919857343196 1 3.5699916518065828 1 3.7127913178788465 1 3.8555909839511098 1 3.998390650023373 1 4.1411903160956367 1 4.2839899821678999 1 4.4267896482401632 1 4.5695893143124264 1 4.7123889803846897 1 4.8551886464569529 1 4.9979883125292162 1 5.1407879786014794 1 5.2835876446737426 1 5.4263873107460068 1 5.5691869768182691 1 5.7119866428905333 1 5.8547863089627965 1 5.9975859750350597 1 6.140385641107323 1 6.2831853071795862 4
1 6.2831853071795862 -5.0999999999999996 0 -1 
1 9.4247779607693793 0 -1 0 
1 9.4247779607693793 50 -1 0 
1 6.2831853071795862 -3.1000000000000001 0 -1 
7 0 0  3 25 23  4.0895623949726883 7.1437729950262108e-17  4.0895778307566815 -0.027761958340679481  4.0927700623330709 -0.083302263749071459  4.107348505133853 -0.16547499320357087  4.1319589581467646 -0.24535530299858721  4.1670676883704107 -0.32167578870045088  4.2131996024207883 -0.39304478695903095  4.2708251168200286 -0.45791538209369653  4.3401400177157008 -0.51459253781617975  4.4207747976731238 -0.56128715578178701  4.5114694252634191 -0.59624058143122849  4.6098368696273653 -0.61792362366926201  4.7123889803846888 -0.62527806628337079  4.8149410911420132 -0.6179236236692619  4.9133085355059603 -0.59624058143122882  5.0040031630962547 -0.56128715578178678  5.0846379430536759 -0.51459253781617986  5.1539528439493516 -0.45791538209369681  5.2115783583485902 -0.39304478695903106  5.2577102723989695 -0.3216757887004511  5.2928190026226147 -0.24535530299858738  5.3174294556355264 -0.16547499320357098  5.3320078984363066 -0.083302263749071695  5.3352001300126979 -0.0277619583406797  5.3352155657966911 -1.4287545990052422e-16 
 3.1415926535897931 4 3.2843923196620564 1 3.4271919857343196 1 3.5699916518065828 1 3.7127913178788465 1 3.8555909839511098 1 3.998390650023373 1 4.1411903160956367 1 4.2839899821678999 1 4.4267896482401632 1 4.5695893143124264 1 4.7123889803846897 1 4.8551886464569529 1 4.9979883125292162 1 5.1407879786014794 1 5.2835876446737426 1 5.4263873107460068 1 5.5691869768182691 1 5.7119866428905333 1 5.8547863089627965 1 5.9975859750350597 1 6.140385641107323 1 6.2831853071795862 4
1 0 37.600000000000001 1 0 
1 4.7123889803846897 0 0 1 
1 5.8468529941809999 0 0 1 
1 3.1415926535897931 50 1 0 
1 6.2831853071795862 37.600000000000001 -1 0 
1 4.7123889803846897 -3.1000000000000001 0 1 
1 4.7123889803846897 0 0 1 
1 6.2831853071795862 -5.0999999999999996 -1 0 
1 3.1415926535897931 1.9999999999999996 1 0 
1 4.7123889803846897 0 0 1 
1 9.4247779607693793 12.4 -1 0 
1 5.8468529941809999 0 0 1 
1 3.1415926535897931 12.4 1 0 
1 3.1415926535897931 0 1 0 
1 3.1415926535897931 -3.1000000000000001 1 0 
1 6.2831853071795862 0 -1 0 
1 0 -55 1 0 
1 0 -5 1 0 
1 4.7123889803846897 0 0 1 
1 3.1415926535897931 37.5 1 0 
1 3.1415926535897931 0 0 1 
1 3.1415926535897931 0 0 1 
1 6.2831853071795862 12.5 -1 0 
1 -3.1415926535897931 37.5 1 0 
1 0 0 0 1 
1 6.2831853071795862 0 0 1 
1 6.2831853071795862 12.5 -1 0 
1 0 12.5 1 0 
1 3.1415926535897931 0 0 1 
1 3.1415926535897931 0 0 1 
1 3.1415926535897931 37.5 -1 0 
1 0 0 0 1 
1 6.2831853071795862 0 0 1 
1 0 12.5 1 0 
1 9.4247779607693793 37.5 -1 0 
1 5.846852994180999 0 -3.552713678800501e-17 1 
1 4.7123889803846897 -3.1000000000000001 0 1 
1 4.7123889803846897 0 0 1 
1 -1.5707963267948966 8 1 0 
1 10.995574287564276 -5.0999999999999996 -1 0 
1 4.7123889803846897 1.9999999999999996 1 0 
1 4.7123889803846897 8 1 0 
1 4.7123889803846897 0 0 1 
1 0 12.5 1 0 
1 9.4247779607693793 37.5 -1 0 
1 5.8468529941809999 0 0 1 
1 3.1415926535897931 37.5 1 0 
1 6.2831853071795862 12.5 -1 0 
1 9.4247779607693793 10 -1 0 
1 9.4247779607693793 10 -1 0 
1 6.2831853071795862 0 -1 0 
1 3.1415926535897931 -3.1000000000000001 1 0 
1 6.2831853071795862 -5.0999999999999996 0 -1 
1 6.2831853071795862 -3.1000000000000001 0 -1 
1 6.2831853071795862 0 0 1 
1 4.7123889803846897 0 0 1 
1 4.7123889803846897 0 0 1 
1 3.1415926535897931 0 0 1 
Curves 142
2 7.6075440312380298e-16 0 -25 0 0 -1 1 0 0 0 -1 0 3.5
2 7.6075440312380298e-16 0 -20.126602827595502 1.22464679914735e-16 -1 0 1 1.22464679914735e-16 0 -0 0 1 6
2 7.6075440312380298e-16 0 -20.126602827595502 0 1 -0 0 0 1 1 -0 0 6
2 7.6075440312380298e-16 0 -25 0 0 -1 1 0 0 0 -1 0 3.5
2 0 0 -25 0 0 -1 -1 0 0 0 1 0 3.5
2 6.5052130349130298e-15 0 20.126602827595502 0 1 -0 0 0 1 1 -0 0 6
2 6.5052130349130298e-15 0 20.126602827595502 1.22464679914735e-16 -1 0 1 1.22464679914735e-16 0 -0 0 1 6
2 6.5052130349130298e-15 0 25 0 0 -1 1 3.5527136788005001e-15 0 3.5527136788005001e-15 -1 0 3.4999999999999898
2 0 0 25 0 0 -1 -1 0 0 0 1 0 3.5
2 6.5052130349130298e-15 0 25 0 0 -1 1 0 0 0 -1 0 3.4999999999999898
2 0 0 25 0 0 -1 -1 0 0 0 1 0 3.0000000000000102
1 3 3.6739403974420599e-16 -30 -0 -0 -1 
2 0 0 -25 0 0 -1 -1 0 0 0 1 0 3
1 -3 0 -30 -0 -0 -1 
1 0 -3.1000000000000001 25 -0 -0 -1 
2 0 0 12.6 0 0 -1 1 0 0 0 -1 0 3.1000000000000001
1 3.1000000000000001 3.79640507735679e-16 25 -0 -0 -1 
2 0 0 25 0 0 -1 1 0 0 0 -1 0 3.1000000000000001
2 0 0 12.6 0 0 -1 1 0 0 0 -1 0 3.1000000000000001
1 -3.1000000000000001 0 25 -0 -0 -1 
2 0 0 25 0 0 -1 1 0 0 0 -1 0 3.1000000000000001
2 0 0 25 0 0 1 1 0 -0 -0 1 0 5.0999999999999996
1 5.0999999999999996 6.2456986756514999e-16 25 -0 -0 -1 
2 0 0 12.6 -0 0 1 1 0 0 0 1 -0 5.0999999999999996
1 -5.0999999999999996 0 25 -0 -0 -1 
2 0 0 25 0 0 1 1 0 -0 -0 1 0 5.0999999999999996
2 0 0 12.6 -0 0 1 1 0 0 0 1 -0 5.0999999999999996
1 -4.6221697138869002 -2.1553531348775898 25 -0 -0 -1 
1 0 -3.1000000000000001 25 -0 -0 -1 
2 0 0 -25 0 0 -1 1 0 0 0 -1 0 3.1000000000000001
1 3.1000000000000001 3.79640507735679e-16 25 -0 -0 -1 
2 0 0 -12.6 0 0 1 -1 0 0 0 -1 0 3.1000000000000001
2 0 0 -25 0 0 -1 1 0 0 0 -1 0 3.1000000000000001
1 -3.1000000000000001 0 25 -0 -0 -1 
2 0 0 -12.6 0 0 1 -1 0 0 0 -1 0 3.1000000000000001
2 0 0 -12.6 0 0 -1 -1 0 0 0 1 0 5.0999999999999996
1 5.0999999999999996 6.2456986756514999e-16 25 -0 -0 -1 
2 0 0 -25 0 0 1 1 0 -0 -0 1 0 5.0999999999999996
1 -5.0999999999999996 0 25 -0 -0 -1 
2 0 0 -12.6 0 0 -1 -1 0 0 0 1 0 5.0999999999999996
2 0 0 -25 0 0 1 1 0 -0 -0 1 0 5.0999999999999996
1 -4.6221697138869002 -2.1553531348775898 25 -0 -0 -1 
1 -4.6221697138869002 -2.1553531348775898 25 0.90630778703664783 0.42261826174070388 0 
2 6.5052130349130298e-15 0 25 0 0 -1 1 0 0 0 -1 0 3.4999999999999898
1 -50 -3.1000000000000001 25 -1 -0 -0 
1 -48 -5.0999999999999996 25 0 -1 0 
1 -50 -5.0999999999999996 25 1 0 0 
2 0 0 25 0 0 1 1 0 -0 -0 1 0 5.0999999999999996
1 -4.6221697138869002 -2.1553531348775898 -25 0.90630778703664783 0.42261826174070388 0 
2 0 0 -25 0 0 1 1 0 -0 -0 1 0 5.0999999999999996
1 -50 -5.0999999999999996 -25 1 0 0 
1 -48 0 -25 -0 1 -0 
1 -50 -3.1000000000000001 -25 -1 -0 -0 
2 7.6075440312380298e-16 0 -25 0 0 -1 1 0 0 0 -1 0 3.5
2 0 0 -12.6 0 0 -1 -1 0 0 0 1 0 5.0999999999999996
1 -9.3685480134772503e-16 -5.0999999999999996 25 -0 -0 -1 
1 -2.8095541398136099 -1.31011661139618 25 -0 -0 -1 
1 -4.6221697138869002 -2.1553531348775898 -12.6 -0.90630778703664783 -0.42261826174070388 0 
1 -4.6221697138869002 -2.1553531348775898 -25 0.90630778703664783 0.42261826174070388 0 
2 0 0 -25 0 0 -1 1 0 0 0 -1 0 3.1000000000000001
2 0 0 -12.6 0 0 1 -1 0 0 0 -1 0 3.1000000000000001
1 -50 -5.0999999999999996 25 -0 -0 -1 
1 -50 -3.1000000000000001 23 -0 1 -0 
1 -50 -3.1000000000000001 25 -0 -0 -1 
1 -50 -3.1000000000000001 -23 0 -1 0 
2 -48 -5.0999999999999996 23 0 -1 0 0 0 1 -1 0 0 2
2 -48 -5.0999999999999996 -23 0 -1 0 0 0 1 -1 0 0 2
1 -50 -5.0999999999999996 -12.6 -1 0 0 
1 -6.5 -5.0999999999999996 25 0 -0 1 
1 -50 -5.0999999999999996 12.6 1 -0 0 
1 -9.3685480134772503e-16 -5.0999999999999996 25 -0 -0 -1 
2 0 0 12.6 -0 0 1 1 0 0 0 1 -0 5.0999999999999996
1 -4.6221697138869002 -2.1553531348775898 12.6 0.90630778703664783 0.42261826174070388 0 
1 -2.8095541398136099 -1.31011661139618 25 -0 -0 -1 
1 -4.6221697138869002 -2.1553531348775898 25 0.90630778703664783 0.42261826174070388 0 
2 0 0 12.6 0 0 -1 1 0 0 0 -1 0 3.1000000000000001
2 0 0 25 0 0 -1 1 0 0 0 -1 0 3.1000000000000001
2 -48 -3.1000000000000001 23 0 1 0 0 0 -1 -1 0 0 2
1 -50 -3.1000000000000001 25 -1 -0 -0 
1 -50 -3.1000000000000001 12.6 -1 0 0 
1 -6.5 -3.1000000000000001 25 0 0 -1 
1 -50 -3.1000000000000001 -12.6 1 0 0 
1 -50 -3.1000000000000001 -25 -1 -0 -0 
2 -48 -3.1000000000000001 -23 0 1 0 0 0 -1 -1 0 0 2
1 -6.5 -10 -12.6 -0 1 -0 
1 -6.5 -10 12.6 -0 1 -0 
2 0 0 25 0 0 -1 -1 0 0 0 1 0 3.0000000000000102
2 0 0 -25 0 0 -1 -1 0 0 0 1 0 3
1 5.4329646740295198e-16 -3.1000000000000001 -25 -2.17318586961181e-17 -5.17960561634569e-18 1 
2 -2.7164823370147599e-16 -6.4745070204321204e-17 12.5 -2.17318586961181e-17 -5.17960561634569e-18 1 -1 0 -2.17318586961181e-17 1.1256245735604424e-34 -1 -5.17960561634569e-18 3.1000000000000001
1 -3.1000000000000001 5.09130648144322e-16 -25 -2.17318586961181e-17 -5.17960561634569e-18 1 
2 2.7164823370147599e-16 6.4745070204321105e-17 -12.5 2.17318586961181e-17 5.17960561634569e-18 -1 1 0 2.17318586961181e-17 1.1256245735604424e-34 -1 -5.17960561634569e-18 3.1000000000000001
2 -2.7164823370147599e-16 -6.4745070204321204e-17 12.5 -2.17318586961181e-17 -5.17960561634569e-18 1 -1 0 -2.17318586961181e-17 1.1256245735604424e-34 -1 -5.17960561634569e-18 3.1000000000000001
1 3.1000000000000001 1.2949014040864199e-16 -25 -2.17318586961181e-17 -5.17960561634569e-18 1 
2 2.7164823370147599e-16 6.4745070204321105e-17 -12.5 2.17318586961181e-17 5.17960561634569e-18 -1 1 0 2.17318586961181e-17 1.1256245735604424e-34 -1 -5.17960561634569e-18 3.1000000000000001
2 2.7164823370147599e-16 6.4745070204321105e-17 -12.5 -2.17318586961181e-17 -5.17960561634569e-18 1 1 2.1382117680737565e-50 2.17318586961181e-17 -1.1256245735604426e-34 1 5.17960561634569e-18 5.0999999999999996
1 -5.0999999999999996 7.54060007973792e-16 -25 -2.17318586961181e-17 -5.17960561634569e-18 1 
2 -2.7164823370147599e-16 -6.4745070204321204e-17 12.5 2.17318586961181e-17 5.17960561634569e-18 -1 -1 -2.1382117680737565e-50 -2.17318586961181e-17 -1.1256245735604426e-34 1 5.17960561634569e-18 5.0999999999999996
1 5.0999999999999996 1.2949014040864199e-16 -25 -2.17318586961181e-17 -5.17960561634569e-18 1 
2 2.7164823370147599e-16 6.4745070204321105e-17 -12.5 -2.17318586961181e-17 -5.17960561634569e-18 1 1 2.1382117680737565e-50 2.17318586961181e-17 -1.1256245735604426e-34 1 5.17960561634569e-18 5.0999999999999996
2 -2.7164823370147599e-16 -6.4745070204321204e-17 12.5 2.17318586961181e-17 5.17960561634569e-18 -1 -1 -2.1382117680737565e-50 -2.17318586961181e-17 -1.1256245735604426e-34 1 5.17960561634569e-18 5.0999999999999996
1 4.6221697138869002 -2.1553531348775898 -25 -2.17318586961181e-17 -5.17960561634569e-18 1 
1 50 -5.0999999999999996 -25 -2.17318586961181e-17 -5.17960561634569e-18 1 
1 50 -3.1000000000000001 -23 -1.12562457356044e-34 1 5.17960561634569e-18 
1 50 -3.1000000000000001 -25 -2.17318586961181e-17 -5.17960561634569e-18 1 
1 50 -3.1000000000000001 23 1.12562457356044e-34 -1 -5.17960561634569e-18 
2 6 -5.0999999999999996 -13.5 -1.12562457356044e-34 1 5.17960561634569e-18 1 -2.3520329448811322e-49 2.17318586961181e-17 2.17318586961181e-17 5.17960561634569e-18 -1 0.999999999999999
1 7 -5.0999999999999996 -25 2.17318586961181e-17 5.17960561634569e-18 -1 
1 50 -5.0999999999999996 -25 -1 -1.7347234759768099e-17 -2.17318586961181e-17 
2 48 -5.0999999999999996 -23 1.12562457356044e-34 -1 -5.17960561634569e-18 1 -2.3520329448811322e-49 2.17318586961181e-17 -2.17318586961181e-17 -5.17960561634569e-18 1 2
2 48 -5.0999999999999996 23 1.12562457356044e-34 -1 -5.17960561634569e-18 1 -2.3520329448811322e-49 2.17318586961181e-17 -2.17318586961181e-17 -5.17960561634569e-18 1 2
1 50 -5.0999999999999996 25 -1 -1.7347234759768099e-17 -2.17318586961181e-17 
1 7 -5.0999999999999996 -25 2.17318586961181e-17 5.17960561634569e-18 -1 
2 6 -5.0999999999999996 13.5 -1.12562457356044e-34 1 5.17960561634569e-18 1 -2.3520329448811322e-49 2.17318586961181e-17 2.17318586961181e-17 5.17960561634569e-18 -1 0.999999999999999
1 50 -5.0999999999999996 12.5 -1 -1.7347234759768099e-17 -2.17318586961181e-17 
1 1.48015126875068e-15 -5.0999999999999996 -25 -2.17318586961181e-17 -5.17960561634569e-18 1 
1 50 -5.0999999999999996 -12.5 1 1.7347234759768099e-17 2.17318586961181e-17 
2 2.7164823370147599e-16 6.4745070204321105e-17 -12.5 -2.17318586961181e-17 -5.17960561634569e-18 1 1 2.1382117680737565e-50 2.17318586961181e-17 -1.1256245735604426e-34 1 5.17960561634569e-18 5.0999999999999996
2 -2.7164823370147599e-16 -6.4745070204321204e-17 12.5 2.17318586961181e-17 5.17960561634569e-18 -1 -1 -2.1382117680737565e-50 -2.17318586961181e-17 -1.1256245735604426e-34 1 5.17960561634569e-18 5.0999999999999996
1 2.8095541398136099 -1.31011661139618 -25 -2.17318586961181e-17 -5.17960561634569e-18 1 
1 4.6221697138869002 -2.1553531348775898 -12.5 0.90630778703664783 -0.42261826174070388 1.7506756840989496e-17 
1 4.6221697138869002 -2.1553531348775898 12.5 -0.90630778703664783 0.42261826174070388 -1.7506756840989496e-17 
2 -2.7164823370147599e-16 -6.4745070204321204e-17 12.5 -2.17318586961181e-17 -5.17960561634569e-18 1 -1 0 -2.17318586961181e-17 1.1256245735604424e-34 -1 -5.17960561634569e-18 3.1000000000000001
2 2.7164823370147599e-16 6.4745070204321105e-17 -12.5 2.17318586961181e-17 5.17960561634569e-18 -1 1 0 2.17318586961181e-17 1.1256245735604424e-34 -1 -5.17960561634569e-18 3.1000000000000001
1 50 -3.1000000000000001 -25 1 -0 2.17318586961181e-17 
1 7 -3.1000000000000001 -25 -2.17318586961181e-17 -5.17960561634569e-18 1 
2 6 -3.1000000000000001 -13.5 1.12562457356044e-34 -1 -5.17960561634569e-18 -2.17318586961181e-17 -5.17960561634569e-18 1 -1 2.3520329448811322e-49 -2.17318586961181e-17 0.999999999999999
1 50 -3.1000000000000001 -12.5 -1 0 -2.17318586961181e-17 
1 50 -3.1000000000000001 12.5 1 0 2.17318586961181e-17 
2 6 -3.1000000000000001 13.5 1.12562457356044e-34 -1 -5.17960561634569e-18 -2.17318586961181e-17 -5.17960561634569e-18 1 -1 2.3520329448811322e-49 -2.17318586961181e-17 0.999999999999999
1 7 -3.1000000000000001 -25 -2.17318586961181e-17 -5.17960561634569e-18 1 
1 50 -3.1000000000000001 25 1 -0 2.17318586961181e-17 
2 48 -3.1000000000000001 23 -1.12562457356044e-34 1 5.17960561634569e-18 -2.17318586961181e-17 -5.17960561634569e-18 1 1 -2.3520329448811322e-49 2.17318586961181e-17 2
2 48 -3.1000000000000001 -23 -1.12562457356044e-34 1 5.17960561634569e-18 -2.17318586961181e-17 -5.17960561634569e-18 1 1 -2.3520329448811322e-49 2.17318586961181e-17 2
1 7 1.2949014040864199e-16 -25 1.12562457356044e-34 -1 -5.17960561634569e-18 
1 48 -5.0999999999999996 -25 1.12562457356044e-34 -1 -5.17960561634569e-18 
1 7 -1.2949014040864199e-16 25 1.12562457356044e-34 -1 -5.17960561634569e-18 
1 48 -1.2949014040864199e-16 25 -1.12562457356044e-34 1 5.17960561634569e-18 
1 6 -13.1 12.5 -1.12562457356044e-34 1 5.17960561634569e-18 
1 7 -13.1 13.5 -1.12562457356044e-34 1 5.17960561634569e-18 
1 7 -13.1 -13.5 -1.12562457356044e-34 1 5.17960561634569e-18 
1 6 -13.1 -12.5 -1.12562457356044e-34 1 5.17960561634569e-18 
Polygon3D 0
PolygonOnTriangulations 0
Surfaces 52
4 7.6075440312380298e-16 0 -20.126602827595502 0 -1 -0 1 0 0 0 -0 1 6
1 0 0 -25 0 0 1 1 0 -0 -0 1 0 
4 7.6075440312380298e-16 0 -20.126602827595502 0 -1 -0 1 0 0 0 -0 1 6
1 3 0 -25 -0 -0 -1 0 -1 0 -1 0 0 
4 6.5052130349130298e-15 0 20.126602827595502 0 -1 -0 1 0 0 0 -0 1 6
4 6.5052130349130298e-15 0 20.126602827595502 0 -1 -0 1 0 0 0 -0 1 6
1 0 0 25 0 0 1 1 0 -0 -0 1 0 
1 3.0000000000000102 0 25 0 0 1 1 0 -0 -0 1 0 
2 0 0 -30 -0 0 -1 -1 0 0 0 1 0 3
2 0 0 -30 -0 0 -1 -1 0 0 0 1 0 3
2 0 0 25 -0 0 -1 -1 0 0 0 1 0 3.1000000000000001
1 -50 -3.1000000000000001 25 0 -1 0 0 0 -1 1 0 0 
1 -6.5 -10 12.6 -0 0 1 1 0 0 0 1 -0 
2 0 0 25 -0 0 -1 -1 0 0 0 1 0 3.1000000000000001
2 0 0 25 -0 0 -1 -1 0 0 0 1 0 3.1000000000000001
2 0 0 25 -0 0 -1 -1 0 0 0 1 0 5.0999999999999996
2 0 0 25 -0 0 -1 -1 0 0 0 1 0 5.0999999999999996
2 0 0 25 -0 0 -1 -1 0 0 0 1 0 5.0999999999999996
1 -4.6221697138869002 -2.1553531348775898 25 -0.42261826174070394 0.90630778703664794 0 0 0 1 0.90630778703664794 0.42261826174070394 -0 
2 0 0 25 -0 0 -1 -1 0 0 0 1 0 3.1000000000000001
2 0 0 25 -0 0 -1 -1 0 0 0 1 0 3.1000000000000001
1 -6.5 -10 -12.6 0 0 -1 0 -1 0 -1 -0 -0 
2 0 0 25 -0 0 -1 -1 0 0 0 1 0 3.1000000000000001
2 0 0 25 -0 0 -1 -1 0 0 0 1 0 5.0999999999999996
2 0 0 25 -0 0 -1 -1 0 0 0 1 0 5.0999999999999996
2 0 0 25 -0 0 -1 -1 0 0 0 1 0 5.0999999999999996
1 -4.6221697138869002 -2.1553531348775898 25 -0.42261826174070394 0.90630778703664794 0 0 0 1 0.90630778703664794 0.42261826174070394 -0 
2 -48 0 23 0 1 -0 0 0 1 1 -0 0 2
1 -50 -5.0999999999999996 25 -0 1 0 1 0 0 0 0 -1 
2 -48 -3.1000000000000001 -23 0 -1 -0 0 0 -1 1 0 0 2
1 -50 -3.1000000000000001 25 1 -0 0 0 1 0 -0 0 1 
1 -6.5 -10 -12.6 -1 0 0 0 0 1 0 1 -0 
2 5.4329646740295198e-16 1.2949014040864199e-16 -25 -2.17318586961181e-17 -5.17960561634569e-18 1 1 0 2.17318586961181e-17 -1.1256245735604424e-34 1 5.17960561634569e-18 3.1000000000000001
1 50 -3.1000000000000001 -25 1.12562457356044e-34 -1 -5.17960561634569e-18 0 5.17960561634569e-18 -1 1 1.12562457356044e-34 5.8302913631103774e-52 
1 6 -13.1 12.5 2.17318586961181e-17 5.17960561634569e-18 -1 0 -1 -5.17960561634569e-18 -1 1.1256245735604424e-34 -2.17318586961181e-17 
2 5.4329646740295198e-16 1.2949014040864199e-16 -25 -2.17318586961181e-17 -5.17960561634569e-18 1 1 0 2.17318586961181e-17 -1.1256245735604424e-34 1 5.17960561634569e-18 3.1000000000000001
1 6 -13.1 -12.5 -2.17318586961181e-17 -5.17960561634569e-18 1 1 0 2.17318586961181e-17 -1.1256245735604424e-34 1 5.17960561634569e-18 
2 5.4329646740295198e-16 1.2949014040864199e-16 -25 -2.17318586961181e-17 -5.17960561634569e-18 1 1 0 2.17318586961181e-17 -1.1256245735604424e-34 1 5.17960561634569e-18 3.1000000000000001
2 5.4329646740295198e-16 1.2949014040864199e-16 -25 -2.17318586961181e-17 -5.17960561634569e-18 1 1 2.1382117680737565e-50 2.17318586961181e-17 -1.1256245735604426e-34 1 5.17960561634569e-18 5.0999999999999996
2 5.4329646740295198e-16 1.2949014040864199e-16 -25 -2.17318586961181e-17 -5.17960561634569e-18 1 1 2.1382117680737565e-50 2.17318586961181e-17 -1.1256245735604426e-34 1 5.17960561634569e-18 5.0999999999999996
2 5.4329646740295198e-16 1.2949014040864199e-16 -25 -2.17318586961181e-17 -5.17960561634569e-18 1 1 2.1382117680737565e-50 2.17318586961181e-17 -1.1256245735604426e-34 1 5.17960561634569e-18 5.0999999999999996
1 4.6221697138869002 -2.1553531348775898 -25 0.42261826174070394 0.90630778703664794 1.3878597250420899e-17 3.2839558785881499e-17 -1.5407439555097887e-33 -1 -0.90630778703664794 0.42261826174070394 -2.976274785049217e-17 
1 50 -3.1000000000000001 -25 -1 0 -2.17318586961181e-17 -2.17318586961181e-17 0 1 0 1 0 
1 50 -5.0999999999999996 -25 -1.12562457356044e-34 1 5.17960561634569e-18 0 5.17960561634569e-18 -1 -1 -1.12562457356044e-34 -5.8302913631103774e-52 
2 48 1.19130929175951e-16 -23 -1.12562457356044e-34 1 5.17960561634569e-18 2.17318586961181e-17 5.17960561634569e-18 -1 -1 2.3520329448811322e-49 -2.17318586961181e-17 2
2 48 -3.1000000000000001 23 1.12562457356044e-34 -1 -5.17960561634569e-18 -2.17318586961181e-17 -5.17960561634569e-18 1 -1 2.3520329448811322e-49 -2.17318586961181e-17 2
2 6 -13.1 -13.5 -1.12562457356044e-34 1 5.17960561634569e-18 2.17318586961181e-17 5.17960561634569e-18 -1 -1 2.3520329448811322e-49 -2.17318586961181e-17 0.999999999999999
1 7 -13.1 -13.5 1 -6.3164947250225706e-51 2.17318586961181e-17 -2.17318586961181e-17 0 1 -6.3164947250225706e-51 -1 -1.3726917081896585e-67 
1 5.4329646740295198e-16 1.2949014040864199e-16 -25 2.17318586961181e-17 5.17960561634569e-18 -1 0 -1 -5.17960561634569e-18 -1 1.1256245735604424e-34 -2.17318586961181e-17 
1 -5.4329646740295198e-16 -1.2949014040864199e-16 25 2.17318586961181e-17 5.17960561634569e-18 -1 0 -1 -5.17960561634569e-18 -1 1.1256245735604424e-34 -2.17318586961181e-17 
1 7 -13.1 13.5 1 -6.3164947250225706e-51 2.17318586961181e-17 -2.17318586961181e-17 0 1 -6.3164947250225706e-51 -1 -1.3726917081896585e-67 
2 6 -13.1 13.5 -1.12562457356044e-34 1 5.17960561634569e-18 2.17318586961181e-17 5.17960561634569e-18 -1 -1 2.3520329448811322e-49 -2.17318586961181e-17 0.999999999999999
Triangulations 0

TShapes 347
Ve
1e-07
-3.17207725462827 -1.47916391609246 -25
0 0

0101101
*
Ve
1e-07
-3.5 -4.28626379701574e-16 -25
0 0

0101101
*
Ed
 1e-07 1 1 0
1  1 0 2.70526034059121 3.14159265358979
2  1 1 0 2.70526034059121 3.14159265358979
4 C0 1 0 2 0
0

0101000
+347 0 -346 0 *
Ve
1e-07
1.12814844286801e-15 0 -26.1266028275955
0 0

0101101
*
Ed
 1e-07 1 1 0
1  2 0 4.08956239497269 4.71238898038469
2  2 1 0 4.08956239497269 4.71238898038469
2  3 3 0 4.08956239497269 4.71238898038469
4 CN 1 0 3 0
0

0101000
+346 0 -344 0 *
Ve
1e-07
3.5 0 -25
0 0

0101101
*
Ed
 1e-07 1 1 0
1  3 0 2.51876606817779 3.14159265358979
2  4 1 0 2.51876606817779 3.14159265358979
2  5 3 0 2.51876606817779 3.14159265358979
4 CN 1 0 3 0
0

0101000
+342 0 -344 0 *
Ve
1e-07
-1.62480768092719 -3.1 -25
0 0

0101101
*
Ed
 1e-07 1 1 0
1  4 0 0 2.05356225012063
2  6 1 0 0 2.05356225012063
4 C0 1 0 2 0
0

0101000
+342 0 -340 0 *
Ed
 1e-07 1 1 0
1  5 0 5.19515490371042 5.846852994181
2  7 1 0 5.19515490371042 5.846852994181
4 C0 1 0 4 0
0

0101000
+340 0 -347 0 *
Wi

0101100
+345 0 +343 0 -341 0 +339 0 +338 0 *
Fa
0  1e-07 1 0

0111000
+337 0 *
Ve
1e-07
6.87260707465723e-15 0 26.1266028275955
0 0

0101101
*
Ve
1e-07
3.5 0 25
0 0

0101101
*
Ed
 1e-07 1 1 0
1  6 0 0 0.622826585412
2  8 5 0 0 0.622826585412
2  9 6 0 0 0.622826585412
4 CN 5 0 6 0
0

0101000
+335 0 -334 0 *
Ve
1e-07
-3.49999999999999 -4.28626379701573e-16 25
0 0

0101101
*
Ed
 1e-07 1 1 0
1  7 0 1.5707963267949 2.1936229122069
2  10 5 0 1.5707963267949 2.1936229122069
2  11 6 0 1.5707963267949 2.1936229122069
4 CN 5 0 6 0
0

0101000
+335 0 -332 0 *
Ve
1e-07
-3.17207725462827 -1.47916391609246 25
0 0

0101101
*
Ed
 1e-07 1 1 0
1  8 0 2.70526034059121 3.14159265358979
2  12 5 0 2.70526034059121 3.14159265358979
4 C0 5 0 7 0
0

0101000
+330 0 -332 0 *
Ve
1e-07
-1.62480768092717 -3.1 25
0 0

0101101
*
Ed
 1e-07 1 1 0
1  9 0 5.19515490371042 5.846852994181
2  13 5 0 5.19515490371042 5.846852994181
4 C0 5 0 8 0
0

0101000
+328 0 -330 0 *
Ed
 1e-07 1 1 0
1  10 0 0 2.05356225012063
2  14 5 0 0 2.05356225012063
4 C0 5 0 7 0
0

0101000
+334 0 -328 0 *
Wi

0101100
-333 0 +331 0 -329 0 -327 0 -326 0 *
Fa
0  1e-07 5 0

0111000
+325 0 *
Ve
1e-07
-3.00000000000001 0 25
0 0

0101101
*
Ve
1e-07
3.00000000000001 3.67394039744207e-16 25
0 0

0101101
*
Ed
 1e-07 1 1 0
1  11 0 0 3.14159265358979
2  15 9 0 0 3.14159265358979
4 C0 9 0 8 0
0

0101000
+323 0 -322 0 *
Ve
1e-07
3 3.67394039744206e-16 -25
0 0

0101101
*
Ed
 1e-07 1 1 0
1  12 0 -55 -5
2  16 9 0 -55 -5
2  17 10 0 -55 -5
4 CN 9 0 10 0
0

0101000
+322 0 -320 0 *
Ve
1e-07
-3 0 -25
0 0

0101101
*
Ed
 1e-07 1 1 0
1  13 0 0 3.14159265358979
2  18 9 0 0 3.14159265358979
4 C0 9 0 4 0
0

0101000
+318 0 -320 0 *
Ed
 1e-07 1 1 0
1  14 0 -55 -5
2  19 9 0 -55 -5
2  20 10 0 -55 -5
4 CN 9 0 10 0
0

0101000
+323 0 -318 0 *
Wi

0101100
+321 0 +319 0 -317 0 -316 0 *
Fa
0  1e-07 9 0

0111000
+315 0 *
Ve
1e-07
0 -3.1 25
0 0

0101101
*
Ve
1e-07
0 -3.1 12.6
0 0

0101101
*
Ed
 1e-07 1 1 0
1  15 0 -0 12.4
2  21 11 0 -0 12.4
4 G1 11 0 12 0
0

0101000
+313 0 -312 0 *
Ve
1e-07
3.1 3.79640507735679e-16 12.6
0 0

0101101
*
Ed
 1e-07 1 1 0
1  16 0 0 1.5707963267949
2  22 11 0 0 1.5707963267949
4 C0 11 0 13 0
0

0101000
+310 0 -312 0 *
Ve
1e-07
3.1 3.79640507735679e-16 25
0 0

0101101
*
Ed
 1e-07 1 1 0
1  17 0 -0 12.4
2  23 11 0 -0 12.4
2  24 14 0 -0 12.4
4 CN 11 0 14 0
0

0101000
+308 0 -310 0 *
Ed
 1e-07 1 1 0
1  18 0 0 1.5707963267949
2  25 11 0 0 1.5707963267949
4 C0 11 0 8 0
0

0101000
+308 0 -313 0 *
Wi

0101100
+311 0 -309 0 -307 0 +306 0 *
Fa
0  1e-07 11 0

0111000
+305 0 *
Ve
1e-07
-3.1 0 12.6
0 0

0101101
*
Ed
 1e-07 1 1 0
1  19 0 3.14159265358979 6.28318530717959
2  26 14 0 3.14159265358979 6.28318530717959
4 C0 14 0 13 0
0

0101000
+303 0 -310 0 *
Ve
1e-07
-3.1 0 25
0 0

0101101
*
Ed
 1e-07 1 1 0
1  20 0 -0 12.4
2  27 14 0 -0 12.4
2  28 15 0 -0 12.4
4 CN 14 0 15 0
0

0101000
+301 0 -303 0 *
Ed
 1e-07 1 1 0
1  21 0 3.14159265358979 6.28318530717959
2  29 14 0 3.14159265358979 6.28318530717959
4 C0 14 0 8 0
0

0101000
+301 0 -308 0 *
Wi

0101100
-302 0 -300 0 +299 0 +307 0 *
Fa
0  1e-07 14 0

0111000
+298 0 *
Ve
1e-07
5.1 6.2456986756515e-16 25
0 0

0101101
*
Ve
1e-07
-5.1 0 25
0 0

0101101
*
Ed
 1e-07 1 1 0
1  22 0 0 3.14159265358979
2  30 16 0 0 3.14159265358979
4 C0 16 0 7 0
0

0101000
+296 0 -295 0 *
Ve
1e-07
5.1 6.2456986756515e-16 12.6
0 0

0101101
*
Ed
 1e-07 1 1 0
1  23 0 -0 12.4
2  31 16 0 -0 12.4
2  32 17 0 -0 12.4
4 CN 16 0 17 0
0

0101000
+296 0 -293 0 *
Ve
1e-07
-5.1 0 12.6
0 0

0101101
*
Ed
 1e-07 1 1 0
1  24 0 0 3.14159265358979
2  33 16 0 0 3.14159265358979
4 C0 16 0 13 0
0

0101000
+293 0 -291 0 *
Ed
 1e-07 1 1 0
1  25 0 -0 12.4
2  34 16 0 -0 12.4
2  35 18 0 -0 12.4
4 CN 16 0 18 0
0

0101000
+295 0 -291 0 *
Wi

0101100
-294 0 +292 0 +290 0 -289 0 *
Fa
0  1e-07 16 0

0111000
+288 0 *
Ve
1e-07
-4.6221697138869 -2.15535313487759 25
0 0

0101101
*
Ed
 1e-07 1 1 0
1  26 0 3.14159265358979 3.57792496658838
2  36 18 0 3.14159265358979 3.57792496658838
4 C0 18 0 7 0
0

0101000
+295 0 -286 0 *
Ve
1e-07
-4.6221697138869 -2.15535313487759 12.6
0 0

0101101
*
Ed
 1e-07 1 1 0
1  27 0 3.14159265358979 3.57792496658838
2  37 18 0 3.14159265358979 3.57792496658838
4 C0 18 0 13 0
0

0101000
+291 0 -284 0 *
Ed
 1e-07 1 1 0
1  28 0 -0 12.4
2  38 18 0 -0 12.4
4 C0 18 0 19 0
0

0101000
+286 0 -284 0 *
Wi

0101100
-285 0 +289 0 +283 0 -282 0 *
Fa
0  1e-07 18 0

0111000
+281 0 *
Ve
1e-07
0 -3.1 -12.6
0 0

0101101
*
Ve
1e-07
0 -3.1 -25
0 0

0101101
*
Ed
 1e-07 1 1 0
1  29 0 37.6 50
2  39 20 0 37.6 50
4 G1 20 0 12 0
0

0101000
+279 0 -278 0 *
Ve
1e-07
3.1 3.79640507735679e-16 -25
0 0

0101101
*
Ed
 1e-07 1 1 0
1  30 0 0 1.5707963267949
2  40 20 0 0 1.5707963267949
4 C0 20 0 4 0
0

0101000
+276 0 -278 0 *
Ve
1e-07
3.1 3.79640507735679e-16 -12.6
0 0

0101101
*
Ed
 1e-07 1 1 0
1  31 0 37.6 50
2  41 20 0 37.6 50
2  42 21 0 37.6 50
4 CN 20 0 21 0
0

0101000
+274 0 -276 0 *
Ed
 1e-07 1 1 0
1  32 0 1.5707963267949 3.14159265358979
2  43 20 0 1.5707963267949 3.14159265358979
4 C0 20 0 22 0
0

0101000
+279 0 -274 0 *
Wi

0101100
+277 0 -275 0 -273 0 -272 0 *
Fa
0  1e-07 20 0

0111000
+271 0 *
Ve
1e-07
-3.1 0 -25
0 0

0101101
*
Ed
 1e-07 1 1 0
1  33 0 3.14159265358979 6.28318530717959
2  44 21 0 3.14159265358979 6.28318530717959
4 C0 21 0 4 0
0

0101000
+269 0 -276 0 *
Ve
1e-07
-3.1 0 -12.6
0 0

0101101
*
Ed
 1e-07 1 1 0
1  34 0 37.6 50
2  45 21 0 37.6 50
2  46 23 0 37.6 50
4 CN 21 0 23 0
0

0101000
+267 0 -269 0 *
Ed
 1e-07 1 1 0
1  35 0 3.14159265358979 6.28318530717959
2  47 21 0 3.14159265358979 6.28318530717959
4 C0 21 0 22 0
0

0101000
+274 0 -267 0 *
Wi

0101100
-268 0 -266 0 -265 0 +273 0 *
Fa
0  1e-07 21 0

0111000
+264 0 *
Ve
1e-07
-5.1 0 -12.6
0 0

0101101
*
Ve
1e-07
5.1 6.2456986756515e-16 -12.6
0 0

0101101
*
Ed
 1e-07 1 1 0
1  36 0 0 3.14159265358979
2  48 24 0 0 3.14159265358979
4 C0 24 0 22 0
0

0101000
+262 0 -261 0 *
Ve
1e-07
5.1 6.2456986756515e-16 -25
0 0

0101101
*
Ed
 1e-07 1 1 0
1  37 0 37.6 50
2  49 24 0 37.6 50
2  50 25 0 37.6 50
4 CN 24 0 25 0
0

0101000
+261 0 -259 0 *
Ve
1e-07
-5.1 0 -25
0 0

0101101
*
Ed
 1e-07 1 1 0
1  38 0 0 3.14159265358979
2  51 24 0 0 3.14159265358979
4 C0 24 0 2 0
0

0101000
+259 0 -257 0 *
Ed
 1e-07 1 1 0
1  39 0 37.6 50
2  52 24 0 37.6 50
2  53 26 0 37.6 50
4 CN 24 0 26 0
0

0101000
+262 0 -257 0 *
Wi

0101100
+260 0 +258 0 +256 0 -255 0 *
Fa
0  1e-07 24 0

0111000
+254 0 *
Ve
1e-07
-4.6221697138869 -2.15535313487759 -12.6
0 0

0101101
*
Ed
 1e-07 1 1 0
1  40 0 5.846852994181 6.28318530717959
2  54 26 0 5.846852994181 6.28318530717959
4 C0 26 0 22 0
0

0101000
+252 0 -262 0 *
Ve
1e-07
-4.6221697138869 -2.15535313487759 -25
0 0

0101101
*
Ed
 1e-07 1 1 0
1  41 0 3.14159265358979 3.57792496658838
2  55 26 0 3.14159265358979 3.57792496658838
4 C0 26 0 2 0
0

0101000
+257 0 -250 0 *
Ed
 1e-07 1 1 0
1  42 0 37.6 50
2  56 26 0 37.6 50
4 C0 26 0 27 0
0

0101000
+252 0 -250 0 *
Wi

0101100
+251 0 +255 0 +249 0 -248 0 *
Fa
0  1e-07 26 0

0111000
+247 0 *
Ed
 1e-07 1 1 0
1  43 0 0 1.6
4 C0 7 0 19 0
0

0101000
+286 0 -330 0 *
Ed
 1e-07 1 1 0
1  44 0 3.14159265358979 6.28318530717959
2  57 6 0 3.14159265358979 6.28318530717959
4 C0 7 0 6 0
0

0101000
+332 0 -334 0 *
Ve
1e-07
-48 -3.1 25
0 0

0101101
*
Ed
 1e-07 1 1 0
1  45 0 -48.3751923190728 -2
4 C0 7 0 12 0
0

0101000
+328 0 -243 0 *
Ve
1e-07
-48 -5.1 25
0 0

0101101
*
Ed
 1e-07 1 1 0
1  46 0 -2 0
2  58 28 0 -2 0
4 G1 7 0 28 0
0

0101000
+243 0 -241 0 *
Ve
1e-07
-9.36854801347725e-16 -5.1 25
0 0

0101101
*
Ed
 1e-07 1 1 0
1  47 0 2 50
4 C0 7 0 29 0
0

0101000
+241 0 -239 0 *
Ed
 1e-07 1 1 0
1  48 0 4.71238898038469 6.28318530717959
2  59 17 0 4.71238898038469 6.28318530717959
4 C0 7 0 17 0
0

0101000
+239 0 -296 0 *
Wi

0101100
+245 0 +329 0 +244 0 +326 0 +242 0 +240 0 +238 0 +237 0 +294 0 +285 0 
*
Fa
0  1e-07 7 0

0111000
+236 0 *
Ed
 1e-07 1 1 0
1  49 0 0 1.6
4 C0 2 0 27 0
0

0101000
+250 0 -347 0 *
Ve
1e-07
-9.36854801347725e-16 -5.1 -25
0 0

0101101
*
Ed
 1e-07 1 1 0
1  50 0 4.71238898038469 6.28318530717959
2  60 25 0 4.71238898038469 6.28318530717959
4 C0 2 0 25 0
0

0101000
+233 0 -259 0 *
Ve
1e-07
-48 -5.1 -25
0 0

0101101
*
Ed
 1e-07 1 1 0
1  51 0 2 50
4 C0 2 0 29 0
0

0101000
+231 0 -233 0 *
Ve
1e-07
-48 -3.1 -25
0 0

0101101
*
Ed
 1e-07 1 1 0
1  52 0 -5.1 -3.1
2  61 30 0 -5.1 -3.1
4 G1 2 0 30 0
0

0101000
+231 0 -229 0 *
Ed
 1e-07 1 1 0
1  53 0 -48.3751923190728 -2
4 C0 2 0 12 0
0

0101000
+340 0 -229 0 *
Ed
 1e-07 1 1 0
1  54 0 3.14159265358979 6.28318530717959
2  62 3 0 3.14159265358979 6.28318530717959
4 C0 2 0 3 0
0

0101000
+346 0 -342 0 *
Wi

0101100
-345 0 -234 0 -249 0 -256 0 -232 0 -230 0 +228 0 -227 0 -339 0 -226 0 
*
Fa
0  1e-07 2 0

0111000
-225 0 *
Ve
1e-07
-9.36854801347725e-16 -5.1 -12.6
0 0

0101101
*
Ed
 1e-07 1 1 0
1  55 0 3.14159265358979 4.71238898038469
2  63 25 0 3.14159265358979 4.71238898038469
4 C0 25 0 22 0
0

0101000
+261 0 -223 0 *
Ed
 1e-07 1 1 0
1  56 0 37.6 50
2  64 25 0 37.6 50
4 G1 25 0 29 0
0

0101000
+223 0 -233 0 *
Wi

0101100
-258 0 +222 0 +221 0 +232 0 *
Fa
0  1e-07 25 0

0111000
+220 0 *
Ve
1e-07
-2.80955413981361 -1.31011661139618 -12.6
0 0

0101101
*
Ve
1e-07
-2.80955413981361 -1.31011661139618 -25
0 0

0101101
*
Ed
 1e-07 1 1 0
1  57 0 37.6 50
2  65 23 0 37.6 50
4 C0 27 0 23 0
0

0101000
+218 0 -217 0 *
Ed
 1e-07 1 1 0
1  58 0 -2 0
4 C0 27 0 22 0
0

0101000
+218 0 -252 0 *
Ed
 1e-07 1 1 0
1  59 0 1.6 2
4 C0 27 0 4 0
0

0101000
+347 0 -217 0 *
Wi

0101100
-216 0 +215 0 +248 0 +234 0 +214 0 *
Fa
0  1e-07 27 0

0111000
-213 0 *
Ed
 1e-07 1 1 0
1  60 0 2.70526034059121 3.14159265358979
2  66 23 0 2.70526034059121 3.14159265358979
4 C0 23 0 4 0
0

0101000
+217 0 -269 0 *
Ed
 1e-07 1 1 0
1  61 0 0 0.436332312998586
2  67 23 0 0 0.436332312998586
4 C0 23 0 22 0
0

0101000
+267 0 -218 0 *
Wi

0101100
-211 0 -216 0 -210 0 +266 0 *
Fa
0  1e-07 23 0

0111000
+209 0 *
Ve
1e-07
-50 -5.1 23
0 0

0101101
*
Ve
1e-07
-50 -5.1 -23
0 0

0101101
*
Ed
 1e-07 1 1 0
1  62 0 2 48
4 C0 31 0 29 0
0

0101000
+207 0 -206 0 *
Ve
1e-07
-50 -3.1 23
0 0

0101101
*
Ed
 1e-07 1 1 0
1  63 0 -2 0
2  68 28 0 -2 0
4 G1 31 0 28 0
0

0101000
+207 0 -204 0 *
Ve
1e-07
-50 -3.1 -23
0 0

0101101
*
Ed
 1e-07 1 1 0
1  64 0 2 48
4 C0 31 0 12 0
0

0101000
+204 0 -202 0 *
Ed
 1e-07 1 1 0
1  65 0 0 2
2  69 30 0 0 2
4 G1 31 0 30 0
0

0101000
+202 0 -206 0 *
Wi

0101100
-205 0 +203 0 +201 0 +200 0 *
Fa
0  1e-07 31 0

0111000
-199 0 *
Ed
 1e-07 1 1 0
1  66 0 0 1.5707963267949
2  70 28 0 0 1.5707963267949
4 C0 29 0 28 0
0

0101000
+241 0 -207 0 *
Ed
 1e-07 1 1 0
1  67 0 1.5707963267949 3.14159265358979
2  71 30 0 1.5707963267949 3.14159265358979
4 C0 29 0 30 0
0

0101000
+206 0 -231 0 *
Ve
1e-07
-6.5 -5.1 -12.6
0 0

0101101
*
Ed
 1e-07 1 1 0
1  68 0 -50 -43.5
4 C0 29 0 22 0
0

0101000
+223 0 -195 0 *
Ve
1e-07
-6.5 -5.1 12.6
0 0

0101101
*
Ed
 1e-07 1 1 0
1  69 0 -37.6 -12.4
4 C0 29 0 32 0
0

0101000
+195 0 -193 0 *
Ve
1e-07
-9.36854801347725e-16 -5.1 12.6
0 0

0101101
*
Ed
 1e-07 1 1 0
1  70 0 43.5 50
4 C0 29 0 13 0
0

0101000
+193 0 -191 0 *
Ed
 1e-07 1 1 0
1  71 0 -0 12.4
2  72 17 0 -0 12.4
4 G1 29 0 17 0
0

0101000
+239 0 -191 0 *
Wi

0101100
-238 0 +197 0 +205 0 +196 0 +230 0 -221 0 +194 0 +192 0 +190 0 -189 0 
*
Fa
0  1e-07 29 0

0111000
-188 0 *
Ed
 1e-07 1 1 0
1  72 0 4.71238898038469 6.28318530717959
2  73 17 0 4.71238898038469 6.28318530717959
4 C0 17 0 13 0
0

0101000
+191 0 -293 0 *
Wi

0101100
-292 0 -237 0 +189 0 +186 0 *
Fa
0  1e-07 17 0

0111000
+185 0 *
Ve
1e-07
-2.80955413981361 -1.31011661139618 12.6
0 0

0101101
*
Ed
 1e-07 1 1 0
1  73 0 0 2
4 C0 19 0 13 0
0

0101000
+284 0 -183 0 *
Ve
1e-07
-2.80955413981361 -1.31011661139618 25
0 0

0101101
*
Ed
 1e-07 1 1 0
1  74 0 -0 12.4
2  74 15 0 -0 12.4
4 C0 19 0 15 0
0

0101000
+181 0 -183 0 *
Ed
 1e-07 1 1 0
1  75 0 1.6 2
4 C0 19 0 8 0
0

0101000
+330 0 -181 0 *
Wi

0101100
+282 0 +182 0 -180 0 -179 0 -245 0 *
Fa
0  1e-07 19 0

0111000
-178 0 *
Ed
 1e-07 1 1 0
1  76 0 2.70526034059121 3.14159265358979
2  75 15 0 2.70526034059121 3.14159265358979
4 C0 15 0 13 0
0

0101000
+183 0 -303 0 *
Ed
 1e-07 1 1 0
1  77 0 2.70526034059121 3.14159265358979
2  76 15 0 2.70526034059121 3.14159265358979
4 C0 15 0 8 0
0

0101000
+181 0 -301 0 *
Wi

0101100
-176 0 -180 0 +175 0 +300 0 *
Fa
0  1e-07 15 0

0111000
+174 0 *
Ed
 1e-07 1 1 0
1  78 0 1.5707963267949 3.14159265358979
2  77 28 0 1.5707963267949 3.14159265358979
4 C0 12 0 28 0
0

0101000
+204 0 -243 0 *
Ed
 1e-07 1 1 0
1  79 0 -50 -48.3751923190728
4 C0 12 0 8 0
0

0101000
+313 0 -328 0 *
Ve
1e-07
-6.5 -3.1 12.6
0 0

0101101
*
Ed
 1e-07 1 1 0
1  80 0 -50 -43.5
4 C0 12 0 13 0
0

0101000
+312 0 -170 0 *
Ve
1e-07
-6.5 -3.1 -12.6
0 0

0101101
*
Ed
 1e-07 1 1 0
1  81 0 12.4 37.6
4 C0 12 0 32 0
0

0101000
+170 0 -168 0 *
Ed
 1e-07 1 1 0
1  82 0 43.5 50
4 C0 12 0 22 0
0

0101000
+168 0 -279 0 *
Ed
 1e-07 1 1 0
1  83 0 -50 -48.3751923190728
4 C0 12 0 4 0
0

0101000
+278 0 -340 0 *
Ed
 1e-07 1 1 0
1  84 0 0 1.5707963267949
2  78 30 0 0 1.5707963267949
4 C0 12 0 30 0
0

0101000
+229 0 -202 0 *
Wi

0101100
-201 0 +172 0 -242 0 -171 0 +311 0 +169 0 +167 0 +166 0 +277 0 +165 0 
+227 0 +164 0 *
Fa
0  1e-07 12 0

0111000
-163 0 *
Ed
 1e-07 1 1 0
1  85 0 4.9 6.9
4 C0 22 0 32 0
0

0101000
+195 0 -168 0 *
Wi

0101100
-251 0 -215 0 -210 0 -265 0 -272 0 -166 0 -161 0 -194 0 -222 0 -260 0 
*
Fa
0  1e-07 22 0

0111000
-160 0 *
Ed
 1e-07 1 1 0
1  86 0 4.9 6.9
4 C0 13 0 32 0
0

0101000
+193 0 -170 0 *
Wi

0101100
+158 0 -169 0 -309 0 -302 0 -176 0 -182 0 -283 0 -290 0 -186 0 -190 0 
*
Fa
0  1e-07 13 0

0111000
-157 0 *
Wi

0101100
+161 0 -167 0 -158 0 -192 0 *
Fa
0  1e-07 32 0

0111000
-155 0 *
Wi

0101100
-172 0 -203 0 -197 0 -240 0 *
Fa
0  1e-07 28 0

0111000
+153 0 *
Wi

0101100
-164 0 -228 0 -196 0 -200 0 *
Fa
0  1e-07 30 0

0111000
+151 0 *
Wi

0101100
+327 0 +179 0 +175 0 +299 0 +306 0 +171 0 *
Ed
 1e-07 1 1 0
1  87 0 3.14159265358979 6.28318530717959
2  79 10 0 3.14159265358979 6.28318530717959
4 C0 8 0 10 0
0

0101000
+322 0 -323 0 *
Wi

0101100
-321 0 -148 0 *
Fa
0  1e-07 8 0

0111000
-149 0 -147 0 *
Wi

0101100
-211 0 -214 0 -338 0 -165 0 -275 0 -268 0 *
Ed
 1e-07 1 1 0
1  88 0 3.14159265358979 6.28318530717959
2  80 10 0 3.14159265358979 6.28318530717959
4 C0 4 0 10 0
0

0101000
+320 0 -318 0 *
Wi

0101100
+317 0 +144 0 *
Fa
0  1e-07 4 0

0111000
-145 0 -143 0 *
Wi

0101100
-319 0 +148 0 +316 0 -144 0 *
Fa
0  1e-07 10 0

0111000
+141 0 *
Wi

0101100
-331 0 +333 0 -244 0 *
Fa
0  1e-07 6 0

0111000
+139 0 *
Wi

0101100
-343 0 +226 0 +341 0 *
Fa
0  1e-07 3 0

0111000
+137 0 *
Sh

0101100
+336 0 +324 0 +314 0 -304 0 -297 0 +287 0 +280 0 -270 0 -263 0 +253 0 
+246 0 +235 0 -224 0 +219 0 -212 0 -208 0 -198 0 -187 0 +184 0 -177 0 
-173 0 -162 0 -159 0 -156 0 -154 0 +152 0 +150 0 -146 0 -142 0 +140 0 
+138 0 +136 0 *
So

0100000
+135 0 *
Ve
1e-07
2.71648233701476e-16 -3.1 -12.5
0 0

0101101
*
Ve
1e-07
-2.71648233701476e-16 -3.1 12.5
0 0

0101101
*
Ed
 1e-07 1 1 0
1  89 0 12.5 37.5
2  81 33 0 12.5 37.5
4 G1 33 0 34 0
0

0101000
+133 0 -132 0 *
Ve
1e-07
-3.1 3.14895437531358e-16 12.5
0 0

0101101
*
Ed
 1e-07 1 1 0
1  90 0 0 1.5707963267949
2  82 33 0 0 1.5707963267949
4 C0 33 0 35 0
0

0101000
+130 0 -132 0 *
Ve
1e-07
-3.1 4.44385577940001e-16 -12.5
0 0

0101101
*
Ed
 1e-07 1 1 0
1  91 0 12.5 37.5
2  83 33 0 12.5 37.5
2  84 36 0 12.5 37.5
4 CN 33 0 36 0
0

0101000
+128 0 -130 0 *
Ed
 1e-07 1 1 0
1  92 0 1.5707963267949 3.14159265358979
2  85 33 0 1.5707963267949 3.14159265358979
4 C0 33 0 37 0
0

0101000
+133 0 -128 0 *
Wi

0101100
+131 0 -129 0 -127 0 -126 0 *
Fa
0  1e-07 33 0

0111000
+125 0 *
Ve
1e-07
3.1 -6.47450702043212e-17 12.5
0 0

0101101
*
Ed
 1e-07 1 1 0
1  93 0 3.14159265358979 6.28318530717959
2  86 36 0 3.14159265358979 6.28318530717959
4 C0 36 0 35 0
0

0101000
+123 0 -130 0 *
Ve
1e-07
3.1 6.47450702043211e-17 -12.5
0 0

0101101
*
Ed
 1e-07 1 1 0
1  94 0 12.5 37.5
2  87 36 0 12.5 37.5
2  88 38 0 12.5 37.5
4 CN 36 0 38 0
0

0101000
+121 0 -123 0 *
Ed
 1e-07 1 1 0
1  95 0 3.14159265358979 6.28318530717959
2  89 36 0 3.14159265358979 6.28318530717959
4 C0 36 0 37 0
0

0101000
+128 0 -121 0 *
Wi

0101100
-122 0 -120 0 -119 0 +127 0 *
Fa
0  1e-07 36 0

0111000
+118 0 *
Ve
1e-07
5.1 6.47450702043211e-17 -12.5
0 0

0101101
*
Ve
1e-07
-5.1 6.89314937769471e-16 -12.5
0 0

0101101
*
Ed
 1e-07 1 1 0
1  96 0 0 3.14159265358979
2  90 39 0 0 3.14159265358979
4 C0 39 0 37 0
0

0101000
+116 0 -115 0 *
Ve
1e-07
-5.1 5.59824797360829e-16 12.5
0 0

0101101
*
Ed
 1e-07 1 1 0
1  97 0 12.5 37.5
2  91 39 0 12.5 37.5
2  92 40 0 12.5 37.5
4 CN 39 0 40 0
0

0101000
+115 0 -113 0 *
Ve
1e-07
5.1 -6.47450702043212e-17 12.5
0 0

0101101
*
Ed
 1e-07 1 1 0
1  98 0 0 3.14159265358979
2  93 39 0 0 3.14159265358979
4 C0 39 0 35 0
0

0101000
+113 0 -111 0 *
Ed
 1e-07 1 1 0
1  99 0 12.5 37.5
2  94 39 0 12.5 37.5
2  95 41 0 12.5 37.5
4 CN 39 0 41 0
0

0101000
+116 0 -111 0 *
Wi

0101100
+114 0 +112 0 +110 0 -109 0 *
Fa
0  1e-07 39 0

0111000
+108 0 *
Ve
1e-07
4.6221697138869 -2.15535313487759 -12.5
0 0

0101101
*
Ed
 1e-07 1 1 0
1  100 0 5.846852994181 6.28318530717959
2  96 41 0 5.846852994181 6.28318530717959
4 C0 41 0 37 0
0

0101000
+106 0 -116 0 *
Ve
1e-07
4.6221697138869 -2.15535313487759 12.5
0 0

0101101
*
Ed
 1e-07 1 1 0
1  101 0 3.14159265358979 3.57792496658838
2  97 41 0 3.14159265358979 3.57792496658838
4 C0 41 0 35 0
0

0101000
+111 0 -104 0 *
Ed
 1e-07 1 1 0
1  102 0 12.5 37.5
2  98 41 0 12.5 37.5
4 C0 41 0 42 0
0

0101000
+106 0 -104 0 *
Wi

0101100
+105 0 +109 0 +103 0 -102 0 *
Fa
0  1e-07 41 0

0111000
+101 0 *
Ve
1e-07
50 -5.1 -23
0 0

0101101
*
Ve
1e-07
50 -5.1 23
0 0

0101101
*
Ed
 1e-07 1 1 0
1  103 0 2 48
4 C0 43 0 44 0
0

0101000
+99 0 -98 0 *
Ve
1e-07
50 -3.1 -23
0 0

0101101
*
Ed
 1e-07 1 1 0
1  104 0 -2 0
2  99 45 0 -2 0
4 G1 43 0 45 0
0

0101000
+99 0 -96 0 *
Ve
1e-07
50 -3.1 23
0 0

0101101
*
Ed
 1e-07 1 1 0
1  105 0 2 48
4 C0 43 0 34 0
0

0101000
+96 0 -94 0 *
Ed
 1e-07 1 1 0
1  106 0 0 2
2  100 46 0 0 2
4 G1 43 0 46 0
0

0101000
+94 0 -98 0 *
Wi

0101100
-97 0 +95 0 +93 0 +92 0 *
Fa
0  1e-07 43 0

0111000
-91 0 *
Ve
1e-07
6 -5.1 -12.5
0 0

0101101
*
Ve
1e-07
7 -5.1 -13.5
0 0

0101101
*
Ed
 1e-07 1 1 0
1  107 0 4.71238898038469 6.28318530717959
2  101 47 0 4.71238898038469 6.28318530717959
4 C0 44 0 47 0
0

0101000
+89 0 -88 0 *
Ve
1e-07
7 -5.1 -25
0 0

0101101
*
Ed
 1e-07 1 1 0
1  108 0 -11.5 0
4 C0 44 0 48 0
0

0101000
+88 0 -86 0 *
Ve
1e-07
48 -5.1 -25
0 0

0101101
*
Ed
 1e-07 1 1 0
1  109 0 2 43
4 C0 44 0 49 0
0

0101000
+84 0 -86 0 *
Ed
 1e-07 1 1 0
1  110 0 4.71238898038469 6.28318530717959
2  102 45 0 4.71238898038469 6.28318530717959
4 C0 44 0 45 0
0

0101000
+84 0 -99 0 *
Ve
1e-07
48 -5.1 25
0 0

0101101
*
Ed
 1e-07 1 1 0
1  111 0 0 1.5707963267949
2  103 46 0 0 1.5707963267949
4 C0 44 0 46 0
0

0101000
+98 0 -81 0 *
Ve
1e-07
7 -5.1 25
0 0

0101101
*
Ed
 1e-07 1 1 0
1  112 0 2 43
4 C0 44 0 50 0
0

0101000
+81 0 -79 0 *
Ve
1e-07
7 -5.1 13.5
0 0

0101101
*
Ed
 1e-07 1 1 0
1  113 0 -50 -38.5
4 C0 44 0 51 0
0

0101000
+79 0 -77 0 *
Ve
1e-07
6 -5.1 12.5
0 0

0101101
*
Ed
 1e-07 1 1 0
1  114 0 0 1.5707963267949
2  104 52 0 0 1.5707963267949
4 C0 44 0 52 0
0

0101000
+77 0 -75 0 *
Ve
1e-07
6.65206567646249e-16 -5.1 12.5
0 0

0101101
*
Ed
 1e-07 1 1 0
1  115 0 44 50
4 C0 44 0 35 0
0

0101000
+75 0 -73 0 *
Ve
1e-07
1.2085030350492e-15 -5.1 -12.5
0 0

0101101
*
Ed
 1e-07 1 1 0
1  116 0 12.5 37.5
2  105 40 0 12.5 37.5
4 G1 44 0 40 0
0

0101000
+71 0 -73 0 *
Ed
 1e-07 1 1 0
1  117 0 -50 -44
4 C0 44 0 37 0
0

0101000
+71 0 -89 0 *
Wi

0101100
+87 0 +85 0 -83 0 +82 0 +97 0 +80 0 +78 0 +76 0 +74 0 +72 0 
-70 0 +69 0 *
Fa
0  1e-07 44 0

0111000
-68 0 *
Ed
 1e-07 1 1 0
1  118 0 3.14159265358979 4.71238898038469
2  106 40 0 3.14159265358979 4.71238898038469
4 C0 40 0 37 0
0

0101000
+115 0 -71 0 *
Ed
 1e-07 1 1 0
1  119 0 4.71238898038469 6.28318530717959
2  107 40 0 4.71238898038469 6.28318530717959
4 C0 40 0 35 0
0

0101000
+73 0 -113 0 *
Wi

0101100
-112 0 +66 0 +70 0 +65 0 *
Fa
0  1e-07 40 0

0111000
+64 0 *
Ve
1e-07
2.80955413981361 -1.31011661139618 -12.5
0 0

0101101
*
Ve
1e-07
2.80955413981361 -1.31011661139618 12.5
0 0

0101101
*
Ed
 1e-07 1 1 0
1  120 0 12.5 37.5
2  108 38 0 12.5 37.5
4 C0 42 0 38 0
0

0101000
+62 0 -61 0 *
Ed
 1e-07 1 1 0
1  121 0 -2 0
4 C0 42 0 37 0
0

0101000
+62 0 -106 0 *
Ed
 1e-07 1 1 0
1  122 0 0 2
4 C0 42 0 35 0
0

0101000
+104 0 -61 0 *
Wi

0101100
-60 0 +59 0 +102 0 +58 0 *
Fa
0  1e-07 42 0

0111000
-57 0 *
Ed
 1e-07 1 1 0
1  123 0 2.70526034059121 3.14159265358979
2  109 38 0 2.70526034059121 3.14159265358979
4 C0 38 0 35 0
0

0101000
+61 0 -123 0 *
Ed
 1e-07 1 1 0
1  124 0 0 0.436332312998587
2  110 38 0 0 0.436332312998587
4 C0 38 0 37 0
0

0101000
+121 0 -62 0 *
Wi

0101100
-55 0 -60 0 -54 0 +120 0 *
Fa
0  1e-07 38 0

0111000
+53 0 *
Ve
1e-07
7 -3.1 -25
0 0

0101101
*
Ve
1e-07
48 -3.1 -25
0 0

0101101
*
Ed
 1e-07 1 1 0
1  125 0 -43 -2
4 C0 34 0 49 0
0

0101000
+51 0 -50 0 *
Ve
1e-07
7 -3.1 -13.5
0 0

0101101
*
Ed
 1e-07 1 1 0
1  126 0 0 11.5
4 C0 34 0 48 0
0

0101000
+51 0 -48 0 *
Ve
1e-07
6 -3.1 -12.5
0 0

0101101
*
Ed
 1e-07 1 1 0
1  127 0 4.71238898038469 6.28318530717959
2  111 47 0 4.71238898038469 6.28318530717959
4 C0 34 0 47 0
0

0101000
+48 0 -46 0 *
Ed
 1e-07 1 1 0
1  128 0 44 50
4 C0 34 0 37 0
0

0101000
+46 0 -133 0 *
Ve
1e-07
6 -3.1 12.5
0 0

0101101
*
Ed
 1e-07 1 1 0
1  129 0 -50 -44
4 C0 34 0 35 0
0

0101000
+132 0 -43 0 *
Ve
1e-07
7 -3.1 13.5
0 0

0101101
*
Ed
 1e-07 1 1 0
1  130 0 3.14159265358979 4.71238898038469
2  112 52 0 3.14159265358979 4.71238898038469
4 C0 34 0 52 0
0

0101000
+43 0 -41 0 *
Ve
1e-07
7 -3.1 25
0 0

0101101
*
Ed
 1e-07 1 1 0
1  131 0 38.5 50
4 C0 34 0 51 0
0

0101000
+41 0 -39 0 *
Ve
1e-07
48 -3.1 25
0 0

0101101
*
Ed
 1e-07 1 1 0
1  132 0 -43 -2
4 C0 34 0 50 0
0

0101000
+39 0 -37 0 *
Ed
 1e-07 1 1 0
1  133 0 0 1.5707963267949
2  113 46 0 0 1.5707963267949
4 C0 34 0 46 0
0

0101000
+37 0 -94 0 *
Ed
 1e-07 1 1 0
1  134 0 1.5707963267949 3.14159265358979
2  114 45 0 1.5707963267949 3.14159265358979
4 C0 34 0 45 0
0

0101000
+96 0 -50 0 *
Wi

0101100
-49 0 +47 0 +45 0 +44 0 +131 0 +42 0 +40 0 +38 0 +36 0 +35 0 
-93 0 +34 0 *
Fa
0  1e-07 34 0

0111000
-33 0 *
Ed
 1e-07 1 1 0
1  135 0 3.1 5.1
4 C0 49 0 48 0
0

0101000
+51 0 -86 0 *
Ed
 1e-07 1 1 0
1  136 0 -2 0
2  115 45 0 -2 0
4 G1 49 0 45 0
0

0101000
+50 0 -84 0 *
Wi

0101100
-31 0 +49 0 +30 0 +83 0 *
Fa
0  1e-07 49 0

0111000
+29 0 *
Ed
 1e-07 1 1 0
1  137 0 3.1 5.1
4 C0 50 0 51 0
0

0101000
+39 0 -79 0 *
Ed
 1e-07 1 1 0
1  138 0 -5.1 -3.1
2  116 46 0 -5.1 -3.1
4 G1 50 0 46 0
0

0101000
+81 0 -37 0 *
Wi

0101100
-36 0 +27 0 -78 0 +26 0 *
Fa
0  1e-07 50 0

0111000
-25 0 *
Wi

0101100
-34 0 -95 0 -82 0 -30 0 *
Fa
0  1e-07 45 0

0111000
+23 0 *
Wi

0101100
-35 0 -26 0 -80 0 -92 0 *
Fa
0  1e-07 46 0

0111000
+21 0 *
Ed
 1e-07 1 1 0
1  139 0 8 10
2  117 52 0 8 10
4 C1 35 0 52 0
0

0101000
+75 0 -43 0 *
Wi

0101100
+19 0 -42 0 -129 0 -122 0 -55 0 -58 0 -103 0 -110 0 -65 0 -72 0 
*
Fa
0  1e-07 35 0

0111000
-18 0 *
Ed
 1e-07 1 1 0
1  140 0 8 10
2  118 52 0 8 10
4 C1 52 0 51 0
0

0101000
+77 0 -41 0 *
Wi

0101100
+74 0 +19 0 +40 0 -16 0 *
Fa
0  1e-07 52 0

0111000
+15 0 *
Wi

0101100
-27 0 -38 0 -16 0 -76 0 *
Fa
0  1e-07 51 0

0111000
-13 0 *
Ed
 1e-07 1 1 0
1  141 0 8 10
2  119 47 0 8 10
4 C1 47 0 48 0
0

0101000
+88 0 -48 0 *
Ed
 1e-07 1 1 0
1  142 0 8 10
2  120 47 0 8 10
4 C1 47 0 37 0
0

0101000
+89 0 -46 0 *
Wi

0101100
+87 0 +11 0 +45 0 -10 0 *
Fa
0  1e-07 47 0

0111000
+9 0 *
Wi

0101100
-105 0 -59 0 -54 0 -119 0 -126 0 -44 0 -10 0 -69 0 -66 0 -114 0 
*
Fa
0  1e-07 37 0

0111000
-7 0 *
Wi

0101100
+11 0 -47 0 +31 0 -85 0 *
Fa
0  1e-07 48 0

0111000
-5 0 *
Sh

0101100
-124 0 -117 0 +107 0 +100 0 -90 0 -67 0 +63 0 -56 0 -52 0 -32 0 
+28 0 -24 0 +22 0 +20 0 -17 0 -14 0 -12 0 -8 0 -6 0 -4 0 
*
So

0100000
+3 0 *
Co

1100000
+134 0 +2 0 *

+1 0 