DBRep_DrawableShape

CASCADE Topology V1, (c) Matra-Datavision
Locations 0
Curve2ds 120
1 0 -168.00297616411444 1 1.809382218788134e-14 
1 0 174.99999999999994 1 1.809382218788134e-14 
1 3.1415926535897931 5.6843418860808015e-14 0 1 
1 3.1415926535897931 5.6843418860808015e-14 0 1 
1 6.2831853071795862 168.0029761641145 -1 -1.809382218788134e-14 
1 0 8.5265128291212022e-14 0 -1 
1 6.2831853071795862 8.5265128291212022e-14 0 -1 
1 0 -75.000000000000057 1 0 
1 3.1415926535897931 -5.6843418860808015e-14 0 1 
1 3.1415926535897931 -5.6843418860808015e-14 0 1 
1 0 -5.6843418860808015e-14 0 -1 
1 6.2831853071795862 -5.6843418860808015e-14 0 -1 
1 0 -168.00297616411444 1 1.809382218788134e-14 
1 0 174.99999999999994 1 1.809382218788134e-14 
1 3.1415926535897931 5.6843418860808015e-14 0 1 
1 3.1415926535897931 5.6843418860808015e-14 0 1 
1 6.2831853071795862 168.0029761641145 -1 -1.809382218788134e-14 
1 0 8.5265128291212022e-14 0 -1 
1 6.2831853071795862 8.5265128291212022e-14 0 -1 
1 0 -75.000000000000057 1 0 
1 3.1415926535897931 -5.6843418860808015e-14 0 1 
1 3.1415926535897931 -5.6843418860808015e-14 0 1 
1 0 -5.6843418860808015e-14 0 -1 
1 6.2831853071795862 -5.6843418860808015e-14 0 -1 
1 0 -1550 0 1 
1 6.2831853071795862 -1550 0 1 
1 6.2831853071795862 -2050 -1 0 
1 3.1415926535897931 -1550 0 -1 
1 3.1415926535897931 -1550 0 -1 
1 0 -1050 1 0 
1 0 0 0 1 
1 6.2831853071795862 0 0 1 
1 6.2831853071795862 -50 -1 0 
1 3.1415926535897931 0 0 -1 
1 3.1415926535897931 0 0 -1 
1 0 950 1 0 
1 0 0 0 1 
1 6.2831853071795862 0 0 1 
1 6.2831853071795862 -35 -1 0 
1 3.1415926535897931 0 0 -1 
1 3.1415926535897931 0 0 -1 
1 0 85 1 0 
1 0 85 1 0 
1 6.2831853071795862 -35 -1 0 
1 0 950 1 0 
1 6.2831853071795862 -50 -1 0 
1 0 -1050 1 0 
1 6.2831853071795862 -2050 -1 0 
1 0 175.00000000000006 1 -1.809382218788134e-14 
1 0 -168.00297616411433 1 -1.809382218788134e-14 
1 0 -75.000000000000057 1 0 
1 6.2831853071795862 168.00297616411439 -1 1.809382218788134e-14 
1 0 175.00000000000006 1 -1.809382218788134e-14 
1 0 -168.00297616411433 1 -1.809382218788134e-14 
1 0 -75.000000000000057 1 0 
1 6.2831853071795862 168.00297616411439 -1 1.809382218788134e-14 
1 6.2831853071795862 2000 -1 0 
1 0 3000 1 0 
1 4.7123889803846897 0 0 1 
1 6.2831853071795862 0 0 1 
1 0 1000 1 0 
1 6.2831853071795862 0 0 1 
1 6.2831853071795862 4000 -1 0 
1 4.7123889803846897 0 0 1 
1 0 -168.00297616411444 1 1.809382218788134e-14 
1 0 174.99999999999994 1 1.809382218788134e-14 
1 3.1415926535897931 5.6843418860808015e-14 0 1 
1 3.1415926535897931 5.6843418860808015e-14 0 1 
1 6.2831853071795862 168.0029761641145 -1 -1.809382218788134e-14 
1 0 8.5265128291212022e-14 0 -1 
1 6.2831853071795862 8.5265128291212022e-14 0 -1 
1 0 -75.000000000000057 1 0 
1 3.1415926535897931 -5.6843418860808015e-14 0 1 
1 3.1415926535897931 -5.6843418860808015e-14 0 1 
1 0 -5.6843418860808015e-14 0 -1 
1 6.2831853071795862 -5.6843418860808015e-14 0 -1 
1 0 -168.00297616411444 1 -9.0469110939406717e-15 
1 0 174.99999999999994 1 1.8093822187881343e-14 
1 3.1415926535897931 -2.8421709430404007e-14 0 1 
1 3.1415926535897931 -2.8421709430404007e-14 0 1 
1 6.2831853071795862 168.00297616411439 -1 0 
1 0 8.5265128291212022e-14 0 -1 
1 6.2831853071795862 8.5265128291212022e-14 0 -1 
1 0 -75.000000000000057 1 0 
1 3.1415926535897931 -5.6843418860808015e-14 0 1 
1 3.1415926535897931 -5.6843418860808015e-14 0 1 
1 0 -5.6843418860808015e-14 0 -1 
1 6.2831853071795862 -5.6843418860808015e-14 0 -1 
1 0 450 1 0 
1 3.1415926535897931 950 0 1 
1 3.1415926535897931 950 0 1 
1 6.2831853071795862 1450 -1 0 
1 0 950 0 -1 
1 6.2831853071795862 950 0 -1 
1 0 -1550 1 0 
1 3.1415926535897931 -1050 0 1 
1 3.1415926535897931 -1050 0 1 
1 6.2831853071795862 -550 -1 0 
1 0 -1050 0 -1 
1 6.2831853071795862 -1050 0 -1 
1 6.2831853071795862 -550 -1 0 
1 0 -1550 1 0 
1 6.2831853071795862 1450 -1 0 
1 0 450 1 0 
1 -4.4408920985006262e-16 175.00000000000006 1 -1.8093822187881337e-14 
1 0 -168.0029761641145 1 9.0469110939406686e-15 
1 -4.4408920985006262e-16 -75.000000000000057 1 0 
1 6.2831853071795862 168.00297616411439 -1 0 
1 0 175.00000000000006 1 -1.809382218788134e-14 
1 0 -168.00297616411433 1 -1.809382218788134e-14 
1 0 -75.000000000000057 1 0 
1 6.2831853071795862 168.00297616411439 -1 1.809382218788134e-14 
1 6.2831853071795862 2000 -1 0 
1 0 3000 1 0 
1 4.7123889803846897 0 0 1 
1 6.2831853071795862 0 0 1 
1 0 1000 1 0 
1 6.2831853071795862 0 0 1 
1 6.2831853071795862 4000 -1 0 
1 4.7123889803846897 0 0 1 
Curves 220
2 -1250 -270 750 6.12303176911189e-17 1 0 -1 6.12303176911189e-17 0 0 -0 1 260
1 -890 -135 750 0.59522755062573773 0.80355719334474562 0 
2 -1250 0 750 -0 -1 -0 -1 0 0 0 0 -1 459.99999999999994
1 -1610.0000000000002 -135 750 0.59522755062573773 -0.80355719334474562 -0 
2 -1250 -520 750 0 1 -0 -1 0 0 0 0 1 260
1 -990 -445 750 6.12303176911189e-17 1 0 
1 -1510 -445 750 -6.12303176911189e-17 -1 -0 
2 -1250 -270 3250 6.12303176911189e-17 1 0 -1 6.12303176911189e-17 0 0 -0 1 260
1 -890 -135 3250 0.59522755062573773 0.80355719334474562 0 
2 -1250 0 3250 -0 -1 -0 -1 0 0 0 0 -1 459.99999999999994
1 -1610.0000000000002 -135 3250 0.59522755062573773 -0.80355719334474562 -0 
2 -1250 -520 3250 0 1 -0 -1 0 0 0 0 1 260
1 -990 -445 3250 6.12303176911189e-17 1 0 
1 -1510 -445 3250 -6.12303176911189e-17 -1 -0 
1 250 -3.06151588455594e-14 500 0 0 1 
2 0 0 0 0 0 -1 1 0 0 0 -1 0 250
1 -250 3.06151588455594e-14 500 -0 -0 -1 
2 0 0 1000 0 0 1 1 0 -0 -0 1 0 250
1 250 -3.06151588455594e-14 2050 0 0 1 
2 0 0 2000 0 0 -1 1 0 0 0 -1 0 250
1 -250 3.06151588455594e-14 2050 -0 -0 -1 
2 0 0 3000 0 0 1 1 0 -0 -0 1 0 250
1 350 -4.2861222383783198e-14 4035 0 0 1 
2 0 0 4000 0 0 -1 1 0 0 0 -1 0 350
1 -350 4.2861222383783198e-14 4035 -0 -0 -1 
2 0 0 4120 0 0 1 1 0 -0 -0 1 0 350
2 0 0 4120 0 0 1 1 0 -0 -0 1 0 350
2 0 0 4000 0 0 -1 1 0 0 0 -1 0 350
2 0 0 3000 0 0 1 1 0 -0 -0 1 0 250
2 0 0 2000 0 0 -1 1 0 0 0 -1 0 250
2 0 0 1000 0 0 1 1 0 -0 -0 1 0 250
2 0 0 0 0 0 -1 1 0 0 0 -1 0 250
2 -1250 -270 3250 6.12303176911189e-17 1 0 -1 6.12303176911189e-17 0 0 -0 1 260
2 -1250 -520 3250 0 1 -0 -1 0 0 0 0 1 260
2 -1250 0 3250 -0 -1 -0 -1 0 0 0 0 -1 459.99999999999994
2 -1250 -270 750 6.12303176911189e-17 1 0 -1 6.12303176911189e-17 0 0 -0 1 260
2 -1250 -520 750 0 1 -0 -1 0 0 0 0 1 260
2 -1250 0 750 -0 -1 -0 -1 0 0 0 0 -1 459.99999999999994
1 -532.5 0 2000 1 0 0 
1 -470 150 2000 0 1 0 
1 -535 -520 2000 -1 0 0 
1 -200 -167.5 2000 0 -1 0 
1 -35 -450 2000 -1 0 0 
2 0 0 2000 0 0 -1 1 0 0 0 -1 0 450
1 450 127.49999999999999 2000 0 -1 0 
1 297.5 362.5 2000 0.70710678118654802 -0.70710678118654702 0 
1 15 459.99999999999994 2000 1 0 0 
1 -282.5 377.5 2000 0.70710678118654802 0.70710678118654702 -0 
1 -450 127.49999999999999 2000 0 1 -0 
1 -470 0 1250 0 0 -1 
1 -470 150 3000 0 -1 0 
1 -470 -520 1250 -0 0 1 
1 -532.5 0 3000 -1 0 0 
1 -450 127.49999999999999 3000 0 -1 0 
1 -282.5 377.5 3000 -0.70710678118654802 -0.70710678118654702 0 
1 15 459.99999999999994 3000 -1 0 0 
1 297.5 362.5 3000 -0.70710678118654802 0.70710678118654702 0 
1 450 127.49999999999999 3000 -0 1 0 
2 0 0 3000 0 0 1 1 0 -0 -0 1 0 450
1 -35 -450 3000 1 0 -0 
1 -200 -167.5 3000 -0 1 0 
1 -535 -520 3000 1 0 -0 
1 -450 0 0 0 0 1 
1 -532.5 0 1000 -1 0 0 
1 -470 0 225 0 0 -1 
1 -1739.9999999999998 0 0 1 0 0 
1 -1739.9999999999998 0 0 0 0 1 
1 -1739.9999999999998 0 4000 1 0 0 
1 -450 0 0 0 0 1 
1 -450 210 0 0 0 1 
1 -450 127.49999999999999 1000 0 -1 0 
1 -450 0 4000 0 1 0 
1 -450 210 0 0 0 1 
1 -200 459.99999999999994 0 0 0 1 
1 -282.5 377.5 1000 -0.70710678118654802 -0.70710678118654702 0 
1 -450 210 4000 0.70710678118654802 0.70710678118654702 0 
1 -200 459.99999999999994 0 0 0 1 
1 200 459.99999999999994 0 0 0 1 
1 15 459.99999999999994 1000 -1 0 0 
1 -200 459.99999999999994 4000 1 0 0 
1 200 459.99999999999994 0 0 0 1 
1 -200 -520 0 0 0 1 
1 -200 -167.5 1000 -0 1 0 
1 -200 -450 0 0 0 1 
1 450 210 0 0 0 1 
1 297.5 362.5 1000 -0.70710678118654802 0.70710678118654702 0 
1 -35 -450 1000 1 0 -0 
1 2.7553642961003498e-14 -450 0 0 0 1 
1 450 0 0 0 0 1 
1 450 127.49999999999999 1000 -0 1 0 
2 0 0 1000 0 0 1 1 0 -0 -0 1 0 450
1 -535 -520 1000 1 0 -0 
1 -470 150 1000 0 -1 0 
1 -470 -520 225 -0 0 1 
1 -470 -0.730612517712381 0 0 -1 0 
1 450 0 0 0 0 1 
2 0 0 4000 0 0 -1 1 0 0 0 -1 0 450
1 2.7553642961003498e-14 -450 0 0 0 1 
1 450 210 0 0 0 1 
1 450 210 4000 0 -1 0 
1 450 210 4000 0.70710678118654802 -0.70710678118654702 0 
1 -2000 -260 4000 0.70710678118654802 0.70710678118654702 0 
1 -2000 -260 0 0.70710678118654802 0.70710678118654702 0 
1 -2000 -260 0 0 0 1 
1 0 -450 4000 -1 0 0 
1 -200 -450 0 0 0 1 
1 -200 -450 4000 0 -1 0 
1 -200 -520 0 0 0 1 
1 -2000 -520 4000 -1 -0 -0 
1 -2000 -520 0 0 0 1 
1 -2000 -520 0 1 0 0 
1 -2000 -260 4000 0 1 0 
1 -2000 -260 0 0 -1 0 
2 1250 -270 3250 -6.12303176911189e-17 1 -7.4983036091106899e-33 1 6.12303176911189e-17 1.22460635382238e-16 1.22460635382238e-16 1.7789921910373654e-47 -1 260
1 890 -135 3250 -0.59522755062573773 0.80355719334474562 -6.0253158029837571e-33 
2 1250 0 3250 0 -1 0 1 0 1.22460635382238e-16 -1.22460635382238e-16 0 1 459.99999999999994
1 1610.0000000000002 -135 3250 -0.59522755062573773 -0.80355719334474562 6.0253158029837571e-33 
2 1250 -520 3250 -0 1 0 1 0 1.22460635382238e-16 1.22460635382238e-16 0 -1 260
1 990 -445 3250 -6.12303176911189e-17 1 -7.4983036091106899e-33 
1 1510 -445 3250 6.12303176911189e-17 -1 7.4983036091106899e-33 
2 1250 -270 750 -6.12303176911189e-17 1 -7.4983036091106899e-33 1 6.12303176911189e-17 1.22460635382238e-16 1.22460635382238e-16 1.7789921910373654e-47 -1 260
1 890 -135 750 -0.59522755062573773 0.80355719334474562 -1.4685229591020693e-16 
2 1250 0 750 0 -1 0 1 0 1.22460635382238e-16 -1.22460635382238e-16 0 1 459.99999999999994
1 1610.0000000000002 -135 750 -0.59522755062573773 -0.80355719334474562 -1.4685229591020693e-16 
2 1250 -520 750 -0 1 0 1 0 1.22460635382238e-16 1.22460635382238e-16 0 -1 260
1 990 -445 750 -6.12303176911189e-17 1 -7.4983036091106899e-33 
1 1510 -445 750 6.12303176911189e-17 -1 7.4983036091106899e-33 
2 0 0 2000 -1.22460635382238e-16 -0 1 1 0 1.22460635382238e-16 -0 1 0 250
1 -250 3.06151588455594e-14 2500 -0 0 1 
2 0 0 3000 1.22460635382238e-16 0 -1 1 0 1.22460635382238e-16 0 -1 0 250
1 250 -3.06151588455594e-14 2500 -0 0 -1 
2 0 0 0 -1.22460635382238e-16 -0 1 1 0 1.22460635382238e-16 -0 1 0 250
1 -250 3.06151588455594e-14 500 -0 0 1 
2 0 0 1000 1.22460635382238e-16 0 -1 1 0 1.22460635382238e-16 0 -1 0 250
1 250 -3.06151588455594e-14 500 -0 0 -1 
2 0 0 1000 1.22460635382238e-16 0 -1 1 0 1.22460635382238e-16 0 -1 0 250
2 0 0 0 -1.22460635382238e-16 -0 1 1 0 1.22460635382238e-16 -0 1 0 250
2 0 0 3000 1.22460635382238e-16 0 -1 1 0 1.22460635382238e-16 0 -1 0 250
2 0 0 2000 -1.22460635382238e-16 -0 1 1 0 1.22460635382238e-16 -0 1 0 250
2 1250 -270 750 -6.12303176911189e-17 1 -7.4983036091106899e-33 1 6.12303176911189e-17 1.22460635382238e-16 1.22460635382238e-16 1.7789921910373654e-47 -1 260
2 1250 -520 750 -0 1 0 1 0 1.22460635382238e-16 1.22460635382238e-16 0 -1 260
2 1250 0 750 0 -1 0 1 0 1.22460635382238e-16 -1.22460635382238e-16 0 1 459.99999999999994
2 1250 -270 3250 -6.12303176911189e-17 1 -7.4983036091106899e-33 1 6.12303176911189e-17 1.22460635382238e-16 1.22460635382238e-16 1.7789921910373654e-47 -1 260
2 1250 -520 3250 -0 1 0 1 0 1.22460635382238e-16 1.22460635382238e-16 0 -1 260
2 1250 0 3250 0 -1 0 1 0 1.22460635382238e-16 -1.22460635382238e-16 0 1 459.99999999999994
1 532.5 0 2000 -1 0 -1.22460635382238e-16 
1 470 150 2000 0 1 0 
1 535 -520 2000 1 0 1.22460635382238e-16 
1 200 -167.5 2000 0 -1 -0 
1 35 -450 2000 1 0 1.22460635382238e-16 
2 0 0 2000 -1.22460635382238e-16 -0 1 -1 0 -1.22460635382238e-16 0 -1 -0 450
1 -450 127.49999999999999 2000 0 -1 -0 
1 -297.5 362.5 2000 -0.70710678118654802 -0.70710678118654702 -8.6592745707193603e-17 
1 -15 459.99999999999994 2000 -1 0 -1.22460635382238e-16 
1 282.5 377.5 2000 -0.70710678118654802 0.70710678118654702 -8.6592745707193603e-17 
1 450 127.49999999999999 2000 0 1 0 
1 470 0 2750 -1.22460635382238e-16 0 1 
1 470 150 1000 0 -1 -0 
1 470 -520 2750 1.22460635382238e-16 0 -1 
1 532.5 0 1000 1 0 1.22460635382238e-16 
1 450 127.49999999999999 1000 0 -1 -0 
1 282.5 377.5 1000 0.70710678118654802 -0.70710678118654702 8.6592745707193603e-17 
1 -14.999999999999899 459.99999999999994 1000 1 0 1.22460635382238e-16 
1 -297.5 362.5 1000 0.70710678118654802 0.70710678118654702 8.6592745707193603e-17 
1 -450 127.49999999999999 1000 0 1 0 
2 1.22460635382238e-13 0 1000 1.22460635382238e-16 0 -1 -1 0 -1.22460635382238e-16 0 1 0 450
1 35.000000000000099 -450 1000 -1 0 -1.22460635382238e-16 
1 200 -167.5 1000 0 1 0 
1 535 -520 1000 -1 0 -1.22460635382238e-16 
1 450 0 4000 1.22460635382238e-16 0 -1 
1 532.5 0 3000 1 0 1.22460635382238e-16 
1 470 0 3775 -1.22460635382238e-16 0 1 
1 1739.9999999999998 0 4000 -1 0 -1.22460635382238e-16 
1 1739.9999999999998 0 4000 1.22460635382238e-16 0 -1 
1 1739.9999999999998 0 0 -1 0 -1.22460635382238e-16 
1 450 0 4000 1.22460635382238e-16 0 -1 
1 450 210 4000 1.22460635382238e-16 0 -1 
1 450 127.49999999999999 3000 0 -1 -0 
1 450 0 0 0 1 0 
1 450 210 4000 1.22460635382238e-16 0 -1 
1 200 459.99999999999994 4000 1.22460635382238e-16 0 -1 
1 282.5 377.5 3000 0.70710678118654802 -0.70710678118654702 8.6592745707193603e-17 
1 450 210 0 -0.70710678118654802 0.70710678118654702 -8.6592745707193603e-17 
1 200 459.99999999999994 4000 1.22460635382238e-16 0 -1 
1 -200 459.99999999999994 4000 1.22460635382238e-16 0 -1 
1 -15.000000000000099 459.99999999999994 3000 1 0 1.22460635382238e-16 
1 200 459.99999999999994 0 -1 0 -1.22460635382238e-16 
1 -200 459.99999999999994 4000 1.22460635382238e-16 0 -1 
1 200 -520 4000 1.22460635382238e-16 0 -1 
1 200 -167.5 3000 0 1 0 
1 200 -450 4000 1.22460635382238e-16 0 -1 
1 -450 210 4000 1.22460635382238e-16 0 -1 
1 -297.5 362.5 3000 0.70710678118654802 0.70710678118654702 8.6592745707193603e-17 
1 34.999999999999901 -450 3000 -1 0 -1.22460635382238e-16 
1 -2.7247491372547904e-13 -450 4000 1.22460635382238e-16 0 -1 
1 -450 0 4000 1.22460635382238e-16 0 -1 
1 -450 127.49999999999999 3000 0 1 0 
2 -1.22460635382238e-13 0 3000 1.22460635382238e-16 0 -1 -1 0 -1.22460635382238e-16 0 1 0 450
1 535 -520 3000 -1 0 -1.22460635382238e-16 
1 470 150 3000 0 -1 -0 
1 470 -520 3775 1.22460635382238e-16 0 -1 
1 470 -0.730612517712381 4000 0 -1 -0 
1 -450 0 4000 1.22460635382238e-16 0 -1 
2 2.44921270764475e-13 0 0 -1.22460635382238e-16 -0 1 -1 0 -1.22460635382238e-16 0 -1 -0 450
1 -2.7247491372547904e-13 -450 4000 1.22460635382238e-16 0 -1 
1 -450 210 4000 1.22460635382238e-16 0 -1 
1 -450 210 0 0 -1 -0 
1 -450 210 0 -0.70710678118654802 -0.70710678118654702 -8.6592745707193603e-17 
1 2000 -260 0 -0.70710678118654802 0.70710678118654702 -8.6592745707193603e-17 
1 2000 -260 4000 -0.70710678118654802 0.70710678118654702 -8.6592745707193603e-17 
1 2000 -260 4000 1.22460635382238e-16 0 -1 
1 2.44921270764475e-13 -450 0 1 0 1.22460635382238e-16 
1 200 -450 4000 1.22460635382238e-16 0 -1 
1 200 -450 0 0 -1 -0 
1 200 -520 4000 1.22460635382238e-16 0 -1 
1 2000 -520 0 1 -0 1.22460635382238e-16 
1 2000 -520 4000 1.22460635382238e-16 0 -1 
1 2000 -520 4000 -1 0 -1.22460635382238e-16 
1 2000 -260 0 0 1 0 
1 2000 -260 4000 0 -1 -0 
Polygon3D 0
PolygonOnTriangulations 0
Surfaces 82
3 -1250 -135 750 6.12303176911189e-17 1 -0 -1 6.12303176911189e-17 0 0 0 1 360
0.63754879813869203
2 -1250 -445 750 6.12303176911189e-17 1 0 -1 6.12303176911189e-17 0 0 -0 1 260
3 -1250 -135 750 6.12303176911189e-17 1 -0 -1 6.12303176911189e-17 0 0 0 1 360
0.63754879813869203
1 -1095 0 0 0 1 0 -1 0 0 0 -0 1 
1 -1100 -520 0 0 -1 0 1 0 0 -0 0 1 
2 -1250 -445 750 6.12303176911189e-17 1 0 -1 6.12303176911189e-17 0 0 -0 1 260
3 -1250 -135 3250 6.12303176911189e-17 1 -0 -1 6.12303176911189e-17 0 0 0 1 360
0.63754879813869203
2 -1250 -445 3250 6.12303176911189e-17 1 0 -1 6.12303176911189e-17 0 0 -0 1 260
3 -1250 -135 3250 6.12303176911189e-17 1 -0 -1 6.12303176911189e-17 0 0 0 1 360
0.63754879813869203
2 -1250 -445 3250 6.12303176911189e-17 1 0 -1 6.12303176911189e-17 0 0 -0 1 260
2 0 0 2050 0 0 1 1 0 -0 -0 1 0 250
2 0 0 2050 0 0 1 1 0 -0 -0 1 0 250
1 0 0 0 0 0 -1 -1 0 0 0 1 0 
1 30 150 1000 0 0 1 1 0 -0 -0 1 0 
2 0 0 2050 0 0 1 1 0 -0 -0 1 0 250
2 0 0 2050 0 0 1 1 0 -0 -0 1 0 250
1 30 150 2000 0 0 1 1 0 -0 -0 1 0 
1 30 150 3000 0 0 1 1 0 -0 -0 1 0 
2 0 0 4035 0 0 1 1 0 -0 -0 1 0 350
2 0 0 4035 0 0 1 1 0 -0 -0 1 0 350
1 -712.98808832916495 -151.461225035425 4000 0 0 1 1 0 -0 -0 1 0 
1 0 0 4120 0 0 1 1 0 -0 -0 1 0 
1 -470 150 2500 1 0 0 0 0 -1 -0 1 0 
1 -200 -484.99999999999994 0 1 0 -0 0 1 0 0 -0 1 
1 -100 -450 0 0 -1 0 1 0 0 -0 0 1 
2 0 0 0 0 0 1 1 0 -0 -0 1 0 450
1 450 105 0 1 0 -0 0 1 0 0 -0 1 
1 325 335 0 0.70710678118654702 0.70710678118654802 -0 -0.70710678118654802 0.70710678118654702 0 0 0 1 
1 0 459.99999999999994 0 0 1 0 -1 0 0 0 -0 1 
1 -325 335 0 -0.70710678118654702 0.70710678118654802 0 -0.70710678118654802 -0.70710678118654702 -0 0 -0 1 
1 -450 105 0 -1 -0 0 0 -1 -0 0 0 1 
1 -450 105 0 -1 -0 0 0 -1 -0 0 0 1 
1 -325 335 0 -0.70710678118654702 0.70710678118654802 0 -0.70710678118654802 -0.70710678118654702 -0 0 -0 1 
1 0 459.99999999999994 0 0 1 0 -1 0 0 0 -0 1 
1 325 335 0 0.70710678118654702 0.70710678118654802 -0 -0.70710678118654802 0.70710678118654702 0 0 0 1 
1 450 105 0 1 0 -0 0 1 0 0 -0 1 
2 0 0 0 0 0 1 1 0 -0 -0 1 0 450
1 -100 -450 0 0 -1 0 1 0 0 -0 0 1 
1 -200 -484.99999999999994 0 1 0 -0 0 1 0 0 -0 1 
1 -470 150 450 1 0 0 0 0 -1 -0 1 0 
1 -712.98808832916495 -151.461225035425 0 0 0 1 1 0 -0 -0 1 0 
1 -1870 -130 0 -0.70710678118654702 0.70710678118654802 0 -0.70710678118654802 -0.70710678118654702 -0 0 -0 1 
1 -2000 -390 0 -1 0 0 0 -1 0 0 0 1 
3 1250 -135 3250 -6.12303176911189e-17 1 -7.4983036091106899e-33 1 6.12303176911189e-17 1.22460635382238e-16 1.22460635382238e-16 1.7789921910373654e-47 -1 360
0.63754879813869203
2 1250 -445 3250 -6.12303176911189e-17 1 -7.4983036091106899e-33 1 6.12303176911189e-17 1.22460635382238e-16 1.22460635382238e-16 1.7789921910373654e-47 -1 260
3 1250 -135 3250 -6.12303176911189e-17 1 -7.4983036091106899e-33 1 6.12303176911189e-17 1.22460635382238e-16 1.22460635382238e-16 1.7789921910373654e-47 -1 360
0.63754879813869203
1 1095 0 4000 0 1 0 1 -0 1.22460635382238e-16 1.22460635382238e-16 0 -1 
1 1100 -520 4000 0 -1 -0 -1 0 -1.22460635382238e-16 1.22460635382238e-16 0 -1 
2 1250 -445 3250 -6.12303176911189e-17 1 -7.4983036091106899e-33 1 6.12303176911189e-17 1.22460635382238e-16 1.22460635382238e-16 1.7789921910373654e-47 -1 260
3 1250 -135 750 -6.12303176911189e-17 1 -7.4983036091106899e-33 1 6.12303176911189e-17 1.22460635382238e-16 1.22460635382238e-16 1.7789921910373654e-47 -1 360
0.63754879813869203
2 1250 -445 750 -6.12303176911189e-17 1 -7.4983036091106899e-33 1 6.12303176911189e-17 1.22460635382238e-16 1.22460635382238e-16 1.7789921910373654e-47 -1 260
3 1250 -135 750 -6.12303176911189e-17 1 -7.4983036091106899e-33 1 6.12303176911189e-17 1.22460635382238e-16 1.22460635382238e-16 1.7789921910373654e-47 -1 360
0.63754879813869203
2 1250 -445 750 -6.12303176911189e-17 1 -7.4983036091106899e-33 1 6.12303176911189e-17 1.22460635382238e-16 1.22460635382238e-16 1.7789921910373654e-47 -1 260
2 0 0 1550 0 0 1 1 0 -0 -0 1 0 250
1 -30 150 2000 1.22460635382238e-16 0 -1 -1 0 -1.22460635382238e-16 0 1 0 
2 0 0 1550 0 0 1 1 0 -0 -0 1 0 250
1 -30.000000000000099 150 3000 1.22460635382238e-16 0 -1 -1 0 -1.22460635382238e-16 0 1 0 
2 0 0 1550 0 0 1 1 0 -0 -0 1 0 250
1 712.98808832916495 -151.461225035425 0 1.22460635382238e-16 0 -1 -1 0 -1.22460635382238e-16 0 1 0 
2 0 0 1550 0 0 1 1 0 -0 -0 1 0 250
1 -29.999999999999901 150 1000 1.22460635382238e-16 0 -1 -1 0 -1.22460635382238e-16 0 1 0 
1 470 150 1500 -1 0 -1.22460635382238e-16 -1.22460635382238e-16 0 1 0 1 0 
1 200 -484.99999999999994 4000 -1 0 -1.22460635382238e-16 0 1 0 1.22460635382238e-16 0 -1 
1 99.999999999999702 -450 4000 0 -1 -0 -1 0 -1.22460635382238e-16 1.22460635382238e-16 0 -1 
2 -2.44921270764475e-13 0 4000 1.22460635382238e-16 0 -1 -1 0 -1.22460635382238e-16 0 1 0 450
1 -450 105 4000 -1 0 -1.22460635382238e-16 0 1 0 1.22460635382238e-16 0 -1 
1 -325 335 4000 -0.70710678118654702 0.70710678118654802 -8.6592745707193505e-17 0.70710678118654802 0.70710678118654702 8.6592745707193603e-17 1.2246063538223773e-16 -2.4651903288156619e-32 -1 
1 -2.44921270764475e-13 459.99999999999994 4000 0 1 0 1 -0 1.22460635382238e-16 1.22460635382238e-16 0 -1 
1 325 335 4000 0.70710678118654702 0.70710678118654802 8.6592745707193505e-17 0.70710678118654802 -0.70710678118654702 8.6592745707193603e-17 1.2246063538223773e-16 2.4651903288156619e-32 -1 
1 450 105 4000 1 0 1.22460635382238e-16 0 -1 0 1.22460635382238e-16 0 -1 
1 450 105 4000 1 0 1.22460635382238e-16 0 -1 0 1.22460635382238e-16 0 -1 
1 325 335 4000 0.70710678118654702 0.70710678118654802 8.6592745707193505e-17 0.70710678118654802 -0.70710678118654702 8.6592745707193603e-17 1.2246063538223773e-16 2.4651903288156619e-32 -1 
1 -2.44921270764475e-13 459.99999999999994 4000 0 1 0 1 -0 1.22460635382238e-16 1.22460635382238e-16 0 -1 
1 -325 335 4000 -0.70710678118654702 0.70710678118654802 -8.6592745707193505e-17 0.70710678118654802 0.70710678118654702 8.6592745707193603e-17 1.2246063538223773e-16 -2.4651903288156619e-32 -1 
1 -450 105 4000 -1 0 -1.22460635382238e-16 0 1 0 1.22460635382238e-16 0 -1 
2 -2.44921270764475e-13 0 4000 1.22460635382238e-16 0 -1 -1 0 -1.22460635382238e-16 0 1 0 450
1 99.999999999999702 -450 4000 0 -1 -0 -1 0 -1.22460635382238e-16 1.22460635382238e-16 0 -1 
1 200 -484.99999999999994 4000 -1 0 -1.22460635382238e-16 0 1 0 1.22460635382238e-16 0 -1 
1 470 150 3550 -1 0 -1.22460635382238e-16 -1.22460635382238e-16 0 1 0 1 0 
1 712.98808832916495 -151.461225035425 4000 1.22460635382238e-16 0 -1 -1 0 -1.22460635382238e-16 0 1 0 
1 1870 -130 4000 0.70710678118654702 0.70710678118654802 8.6592745707193505e-17 0.70710678118654802 -0.70710678118654702 8.6592745707193603e-17 1.2246063538223773e-16 2.4651903288156619e-32 -1 
1 2000 -390 4000 1 0 1.22460635382238e-16 0 -1 0 1.22460635382238e-16 0 -1 
Triangulations 0

TShapes 549
Ve
1e-07
-1510 -270 750
0 0

0101101
*
Ve
1e-07
-990 -270 750
0 0

0101101
*
Ed
 1e-07 1 1 0
1  1 0 0 3.14159265358979
2  1 1 0 0 3.14159265358979
2  2 2 0 0 3.14159265358979
4 C0 1 0 2 0
0

0101000
+549 0 -548 0 *
Ve
1e-07
-790 0 750
0 0

0101101
*
Ed
 1e-07 1 1 0
1  2 0 -168.002976164114 168.002976164114
2  3 1 0 -168.002976164114 168.002976164114
2  4 3 0 -168.002976164114 168.002976164114
4 CN 1 0 3 0
0

0101000
+548 0 -546 0 *
Ve
1e-07
-1710 4.44089209850063e-14 750
0 0

0101101
*
Ed
 1e-07 1 1 0
1  3 0 3.14159265358979 6.28318530717959
2  5 1 0 3.14159265358979 6.28318530717959
4 C0 1 0 4 0
0

0101000
+546 0 -544 0 *
Ed
 1e-07 1 1 0
1  4 0 -168.002976164114 168.002976164115
2  6 1 0 -168.002976164114 168.002976164115
2  7 3 0 -168.002976164114 168.002976164115
4 CN 1 0 3 0
0

0101000
+544 0 -549 0 *
Wi

0101100
+547 0 +545 0 +543 0 +542 0 *
Fa
0  1e-07 1 0

0111000
+541 0 *
Ve
1e-07
-1510 -520 750
0 0

0101101
*
Ve
1e-07
-990 -520 750
0 0

0101101
*
Ed
 1e-07 1 1 0
1  5 0 0 3.14159265358979
2  8 2 0 0 3.14159265358979
4 C0 2 0 5 0
0

0101000
+539 0 -538 0 *
Ed
 1e-07 1 1 0
1  6 0 -75 175
2  9 2 0 -75 175
2  10 6 0 -75 175
4 CN 2 0 6 0
0

0101000
+538 0 -548 0 *
Ed
 1e-07 1 1 0
1  7 0 -175 75
2  11 2 0 -175 75
2  12 6 0 -175 75
4 CN 2 0 6 0
0

0101000
+549 0 -539 0 *
Wi

0101100
+537 0 +536 0 -547 0 +535 0 *
Fa
0  1e-07 2 0

0111000
+534 0 *
Ve
1e-07
-1510 -270 3250
0 0

0101101
*
Ve
1e-07
-990 -270 3250
0 0

0101101
*
Ed
 1e-07 1 1 0
1  8 0 0 3.14159265358979
2  13 7 0 0 3.14159265358979
2  14 8 0 0 3.14159265358979
4 C0 7 0 8 0
0

0101000
+532 0 -531 0 *
Ve
1e-07
-790 0 3250
0 0

0101101
*
Ed
 1e-07 1 1 0
1  9 0 -168.002976164114 168.002976164114
2  15 7 0 -168.002976164114 168.002976164114
2  16 9 0 -168.002976164114 168.002976164114
4 CN 7 0 9 0
0

0101000
+531 0 -529 0 *
Ve
1e-07
-1710 4.44089209850063e-14 3250
0 0

0101101
*
Ed
 1e-07 1 1 0
1  10 0 3.14159265358979 6.28318530717959
2  17 7 0 3.14159265358979 6.28318530717959
4 C0 7 0 4 0
0

0101000
+529 0 -527 0 *
Ed
 1e-07 1 1 0
1  11 0 -168.002976164114 168.002976164115
2  18 7 0 -168.002976164114 168.002976164115
2  19 9 0 -168.002976164114 168.002976164115
4 CN 7 0 9 0
0

0101000
+527 0 -532 0 *
Wi

0101100
+530 0 +528 0 +526 0 +525 0 *
Fa
0  1e-07 7 0

0111000
+524 0 *
Ve
1e-07
-1510 -520 3250
0 0

0101101
*
Ve
1e-07
-990 -520 3250
0 0

0101101
*
Ed
 1e-07 1 1 0
1  12 0 0 3.14159265358979
2  20 8 0 0 3.14159265358979
4 C0 8 0 5 0
0

0101000
+522 0 -521 0 *
Ed
 1e-07 1 1 0
1  13 0 -75 175
2  21 8 0 -75 175
2  22 10 0 -75 175
4 CN 8 0 10 0
0

0101000
+521 0 -531 0 *
Ed
 1e-07 1 1 0
1  14 0 -175 75
2  23 8 0 -175 75
2  24 10 0 -175 75
4 CN 8 0 10 0
0

0101000
+532 0 -522 0 *
Wi

0101100
+520 0 +519 0 -530 0 +518 0 *
Fa
0  1e-07 8 0

0111000
+517 0 *
Ve
1e-07
250 0 0
0 0

0101101
*
Ve
1e-07
250 -3.06151588455594e-14 1000
0 0

0101101
*
Ed
 1e-07 1 1 0
1  15 0 -500 500
2  25 11 0 -500 500
2  26 12 0 -500 500
4 CN 11 0 12 0
0

0101000
+515 0 -514 0 *
Ve
1e-07
-250 3.06151588455594e-14 0
0 0

0101101
*
Ed
 1e-07 1 1 0
1  16 0 3.14159265358979 6.28318530717959
2  27 11 0 3.14159265358979 6.28318530717959
4 C0 11 0 13 0
0

0101000
+512 0 -515 0 *
Ve
1e-07
-250 -3.06151588455594e-14 1000
0 0

0101101
*
Ed
 1e-07 1 1 0
1  17 0 -500 500
2  28 11 0 -500 500
2  29 12 0 -500 500
4 CN 11 0 12 0
0

0101000
+510 0 -512 0 *
Ed
 1e-07 1 1 0
1  18 0 0 3.14159265358979
2  30 11 0 0 3.14159265358979
4 C0 11 0 14 0
0

0101000
+514 0 -510 0 *
Wi

0101100
-513 0 -511 0 -509 0 -508 0 *
Fa
0  1e-07 11 0

0111000
+507 0 *
Ve
1e-07
250 -3.06151588455594e-14 2000
0 0

0101101
*
Ve
1e-07
250 -3.06151588455594e-14 3000
0 0

0101101
*
Ed
 1e-07 1 1 0
1  19 0 -50 950
2  31 15 0 -50 950
2  32 16 0 -50 950
4 CN 15 0 16 0
0

0101000
+505 0 -504 0 *
Ve
1e-07
-250 3.06151588455594e-14 2000
0 0

0101101
*
Ed
 1e-07 1 1 0
1  20 0 3.14159265358979 6.28318530717959
2  33 15 0 3.14159265358979 6.28318530717959
4 C0 15 0 17 0
0

0101000
+502 0 -505 0 *
Ve
1e-07
-250 -3.06151588455594e-14 3000
0 0

0101101
*
Ed
 1e-07 1 1 0
1  21 0 -950 50
2  34 15 0 -950 50
2  35 16 0 -950 50
4 CN 15 0 16 0
0

0101000
+500 0 -502 0 *
Ed
 1e-07 1 1 0
1  22 0 0 3.14159265358979
2  36 15 0 0 3.14159265358979
4 C0 15 0 18 0
0

0101000
+504 0 -500 0 *
Wi

0101100
-503 0 -501 0 -499 0 -498 0 *
Fa
0  1e-07 15 0

0111000
+497 0 *
Ve
1e-07
350 -4.28612223837832e-14 4000
0 0

0101101
*
Ve
1e-07
350 0 4120
0 0

0101101
*
Ed
 1e-07 1 1 0
1  23 0 -35 85
2  37 19 0 -35 85
2  38 20 0 -35 85
4 CN 19 0 20 0
0

0101000
+495 0 -494 0 *
Ve
1e-07
-350 4.28612223837832e-14 4000
0 0

0101101
*
Ed
 1e-07 1 1 0
1  24 0 3.14159265358979 6.28318530717959
2  39 19 0 3.14159265358979 6.28318530717959
4 C0 19 0 21 0
0

0101000
+492 0 -495 0 *
Ve
1e-07
-350 4.28612223837832e-14 4120
0 0

0101101
*
Ed
 1e-07 1 1 0
1  25 0 -85 35
2  40 19 0 -85 35
2  41 20 0 -85 35
4 CN 19 0 20 0
0

0101000
+490 0 -492 0 *
Ed
 1e-07 1 1 0
1  26 0 0 3.14159265358979
2  42 19 0 0 3.14159265358979
4 C0 19 0 22 0
0

0101000
+494 0 -490 0 *
Wi

0101100
-493 0 -491 0 -489 0 -488 0 *
Fa
0  1e-07 19 0

0111000
+487 0 *
Ed
 1e-07 1 1 0
1  27 0 3.14159265358979 6.28318530717959
2  43 20 0 3.14159265358979 6.28318530717959
4 C0 20 0 22 0
0

0101000
+490 0 -494 0 *
Ed
 1e-07 1 1 0
1  28 0 0 3.14159265358979
2  44 20 0 0 3.14159265358979
4 C0 20 0 21 0
0

0101000
+495 0 -492 0 *
Wi

0101100
+493 0 -485 0 +489 0 -484 0 *
Fa
0  1e-07 20 0

0111000
+483 0 *
Ed
 1e-07 1 1 0
1  29 0 3.14159265358979 6.28318530717959
2  45 16 0 3.14159265358979 6.28318530717959
4 C0 16 0 18 0
0

0101000
+500 0 -504 0 *
Ed
 1e-07 1 1 0
1  30 0 0 3.14159265358979
2  46 16 0 0 3.14159265358979
4 C0 16 0 17 0
0

0101000
+505 0 -502 0 *
Wi

0101100
+503 0 -481 0 +499 0 -480 0 *
Fa
0  1e-07 16 0

0111000
+479 0 *
Wi

0101100
+488 0 +485 0 *
Fa
0  1e-07 22 0

0111000
+477 0 *
Ed
 1e-07 1 1 0
1  31 0 3.14159265358979 6.28318530717959
2  47 12 0 3.14159265358979 6.28318530717959
4 C0 12 0 14 0
0

0101000
+510 0 -514 0 *
Ed
 1e-07 1 1 0
1  32 0 0 3.14159265358979
2  48 12 0 0 3.14159265358979
4 C0 12 0 13 0
0

0101000
+515 0 -512 0 *
Wi

0101100
+513 0 -475 0 +509 0 -474 0 *
Fa
0  1e-07 12 0

0111000
+473 0 *
Wi

0101100
+474 0 +511 0 *
Fa
0  1e-07 13 0

0111000
+471 0 *
Ed
 1e-07 1 1 0
1  33 0 3.14159265358979 6.28318530717959
2  49 10 0 3.14159265358979 6.28318530717959
2  50 9 0 3.14159265358979 6.28318530717959
4 C0 10 0 9 0
0

0101000
+531 0 -532 0 *
Ed
 1e-07 1 1 0
1  34 0 3.14159265358979 6.28318530717959
2  51 10 0 3.14159265358979 6.28318530717959
4 C0 10 0 5 0
0

0101000
+521 0 -522 0 *
Wi

0101100
-469 0 -519 0 +468 0 -518 0 *
Fa
0  1e-07 10 0

0111000
+467 0 *
Ed
 1e-07 1 1 0
1  35 0 0 3.14159265358979
2  52 9 0 0 3.14159265358979
4 C0 9 0 4 0
0

0101000
+527 0 -529 0 *
Wi

0101100
+465 0 -528 0 +469 0 -525 0 *
Fa
0  1e-07 9 0

0111000
+464 0 *
Ed
 1e-07 1 1 0
1  36 0 3.14159265358979 6.28318530717959
2  53 6 0 3.14159265358979 6.28318530717959
2  54 3 0 3.14159265358979 6.28318530717959
4 C0 6 0 3 0
0

0101000
+548 0 -549 0 *
Ed
 1e-07 1 1 0
1  37 0 3.14159265358979 6.28318530717959
2  55 6 0 3.14159265358979 6.28318530717959
4 C0 6 0 5 0
0

0101000
+538 0 -539 0 *
Wi

0101100
-462 0 -536 0 +461 0 -535 0 *
Fa
0  1e-07 6 0

0111000
+460 0 *
Ed
 1e-07 1 1 0
1  38 0 0 3.14159265358979
2  56 3 0 0 3.14159265358979
4 C0 3 0 4 0
0

0101000
+544 0 -546 0 *
Wi

0101100
+458 0 -545 0 +462 0 -542 0 *
Fa
0  1e-07 3 0

0111000
+457 0 *
Wi

0101100
+501 0 +480 0 *
Ve
1e-07
-470 0 2000
0 0

0101101
*
Ve
1e-07
-450 0 2000
0 0

0101101
*
Ed
 1e-07 1 1 0
1  39 0 62.5 82.5
4 C0 17 0 4 0
0

0101000
+454 0 -453 0 *
Ve
1e-07
-470 -520 2000
0 0

0101101
*
Ed
 1e-07 1 1 0
1  40 0 -670 -150
4 C0 17 0 23 0
0

0101000
+451 0 -454 0 *
Ve
1e-07
-200 -520 2000
0 0

0101101
*
Ed
 1e-07 1 1 0
1  41 0 -335 -65
4 C0 17 0 5 0
0

0101000
+449 0 -451 0 *
Ve
1e-07
-200 -450 2000
0 0

0101101
*
Ed
 1e-07 1 1 0
1  42 0 282.5 352.5
4 C0 17 0 24 0
0

0101000
+447 0 -449 0 *
Ve
1e-07
2.75536429610035e-14 -450 2000
0 0

0101101
*
Ed
 1e-07 1 1 0
1  43 0 -35 165
4 C0 17 0 25 0
0

0101000
+445 0 -447 0 *
Ve
1e-07
450 0 2000
0 0

0101101
*
Ed
 1e-07 1 1 0
1  44 0 0 1.5707963267949
2  57 26 0 0 1.5707963267949
4 C0 17 0 26 0
0

0101000
+443 0 -445 0 *
Ve
1e-07
450 210 2000
0 0

0101101
*
Ed
 1e-07 1 1 0
1  45 0 -82.5 127.5
4 C0 17 0 27 0
0

0101000
+441 0 -443 0 *
Ve
1e-07
200 460 2000
0 0

0101101
*
Ed
 1e-07 1 1 0
1  46 0 -137.885822331377 215.667568261897
4 C0 17 0 28 0
0

0101000
+439 0 -441 0 *
Ve
1e-07
-200 460 2000
0 0

0101101
*
Ed
 1e-07 1 1 0
1  47 0 -215 185
4 C0 17 0 29 0
0

0101000
+437 0 -439 0 *
Ve
1e-07
-450 210 2000
0 0

0101101
*
Ed
 1e-07 1 1 0
1  48 0 -236.880771697493 116.67261889578
4 C0 17 0 30 0
0

0101000
+435 0 -437 0 *
Ed
 1e-07 1 1 0
1  49 0 -127.5 82.5
4 C0 17 0 31 0
0

0101000
+453 0 -435 0 *
Wi

0101100
-452 0 -450 0 -448 0 -446 0 -444 0 -442 0 -440 0 -438 0 -436 0 -434 0 
-433 0 *
Fa
0  1e-07 17 0

0111000
+455 0 +432 0 *
Ve
1e-07
-470 0 3000
0 0

0101101
*
Ed
 1e-07 1 1 0
1  50 0 -1750 -750
4 C0 23 0 4 0
0

0101000
+430 0 -454 0 *
Ve
1e-07
-470 -520 3000
0 0

0101101
*
Ed
 1e-07 1 1 0
1  51 0 150 670
4 C0 23 0 18 0
0

0101000
+430 0 -428 0 *
Ed
 1e-07 1 1 0
1  52 0 750 1750
4 C0 23 0 5 0
0

0101000
+451 0 -428 0 *
Wi

0101100
-429 0 +427 0 -426 0 +450 0 *
Fa
0  1e-07 23 0

0111000
+425 0 *
Wi

0101100
+481 0 +498 0 *
Ve
1e-07
-450 0 3000
0 0

0101101
*
Ed
 1e-07 1 1 0
1  53 0 -82.5 -62.5
4 C0 18 0 4 0
0

0101000
+422 0 -430 0 *
Ve
1e-07
-450 210 3000
0 0

0101101
*
Ed
 1e-07 1 1 0
1  54 0 -82.5 127.5
4 C0 18 0 32 0
0

0101000
+420 0 -422 0 *
Ve
1e-07
-200 460 3000
0 0

0101101
*
Ed
 1e-07 1 1 0
1  55 0 -116.67261889578 236.880771697493
4 C0 18 0 33 0
0

0101000
+418 0 -420 0 *
Ve
1e-07
200 460 3000
0 0

0101101
*
Ed
 1e-07 1 1 0
1  56 0 -185 215
4 C0 18 0 34 0
0

0101000
+416 0 -418 0 *
Ve
1e-07
450 210 3000
0 0

0101101
*
Ed
 1e-07 1 1 0
1  57 0 -215.667568261897 137.885822331377
4 C0 18 0 35 0
0

0101000
+414 0 -416 0 *
Ve
1e-07
450 0 3000
0 0

0101101
*
Ed
 1e-07 1 1 0
1  58 0 -127.5 82.5
4 C0 18 0 36 0
0

0101000
+412 0 -414 0 *
Ve
1e-07
2.75536429610035e-14 -450 3000
0 0

0101101
*
Ed
 1e-07 1 1 0
1  59 0 4.71238898038469 6.28318530717959
2  58 37 0 4.71238898038469 6.28318530717959
4 C0 18 0 37 0
0

0101000
+410 0 -412 0 *
Ve
1e-07
-200 -450 3000
0 0

0101101
*
Ed
 1e-07 1 1 0
1  60 0 -165 35
4 C0 18 0 38 0
0

0101000
+408 0 -410 0 *
Ve
1e-07
-200 -520 3000
0 0

0101101
*
Ed
 1e-07 1 1 0
1  61 0 -352.5 -282.5
4 C0 18 0 39 0
0

0101000
+406 0 -408 0 *
Ed
 1e-07 1 1 0
1  62 0 65 335
4 C0 18 0 5 0
0

0101000
+428 0 -406 0 *
Wi

0101100
-421 0 -419 0 -417 0 -415 0 -413 0 -411 0 -409 0 -407 0 -405 0 -404 0 
-427 0 *
Fa
0  1e-07 18 0

0111000
-423 0 -403 0 *
Wi

0101100
+465 0 +526 0 *
Wi

0101100
+458 0 +543 0 *
Ve
1e-07
-450 0 1000
0 0

0101101
*
Ed
 1e-07 1 1 0
1  63 0 1000 2000
4 C0 4 0 31 0
0

0101000
+399 0 -453 0 *
Ve
1e-07
-470 0 1000
0 0

0101101
*
Ed
 1e-07 1 1 0
1  64 0 -82.5 -62.5
4 C0 4 0 14 0
0

0101000
+399 0 -397 0 *
Ve
1e-07
-470 0 0
0 0

0101101
*
Ed
 1e-07 1 1 0
1  65 0 -775 225
4 C0 4 0 40 0
0

0101000
+397 0 -395 0 *
Ve
1e-07
-1740 0 0
0 0

0101101
*
Ed
 1e-07 1 1 0
1  66 0 0 1270
4 C0 4 0 41 0
0

0101000
+393 0 -395 0 *
Ve
1e-07
-1740 0 4000
0 0

0101101
*
Ed
 1e-07 1 1 0
1  67 0 0 4000
4 C0 4 0 42 0
0

0101000
+393 0 -391 0 *
Ve
1e-07
-450 0 4000
0 0

0101101
*
Ed
 1e-07 1 1 0
1  68 0 0 1290
4 C0 4 0 21 0
0

0101000
+391 0 -389 0 *
Ed
 1e-07 1 1 0
1  69 0 3000 4000
4 C0 4 0 32 0
0

0101000
+422 0 -389 0 *
Wi

0101100
+421 0 +429 0 +452 0 -398 0 +396 0 +394 0 -392 0 +390 0 +388 0 -387 0 
*
Fa
0  1e-07 4 0

0111000
+401 0 +400 0 +386 0 *
Ve
1e-07
-450 210 1000
0 0

0101101
*
Ed
 1e-07 1 1 0
1  70 0 1000 2000
4 C0 31 0 30 0
0

0101000
+384 0 -435 0 *
Ed
 1e-07 1 1 0
1  71 0 -82.5 127.5
4 C0 31 0 14 0
0

0101000
+384 0 -399 0 *
Wi

0101100
+433 0 -383 0 +382 0 +398 0 *
Fa
0  1e-07 31 0

0111000
+381 0 *
Ve
1e-07
-450 210 4000
0 0

0101101
*
Ed
 1e-07 1 1 0
1  72 0 0 210
4 C0 32 0 21 0
0

0101000
+389 0 -379 0 *
Ed
 1e-07 1 1 0
1  73 0 3000 4000
4 C0 32 0 33 0
0

0101000
+420 0 -379 0 *
Wi

0101100
+419 0 +387 0 +378 0 -377 0 *
Fa
0  1e-07 32 0

0111000
+376 0 *
Ve
1e-07
-200 460 1000
0 0

0101101
*
Ed
 1e-07 1 1 0
1  74 0 1000 2000
4 C0 30 0 29 0
0

0101000
+374 0 -437 0 *
Ed
 1e-07 1 1 0
1  75 0 -116.67261889578 236.880771697493
4 C0 30 0 14 0
0

0101000
+374 0 -384 0 *
Wi

0101100
+434 0 -373 0 +372 0 +383 0 *
Fa
0  1e-07 30 0

0111000
+371 0 *
Ve
1e-07
-200 460 4000
0 0

0101101
*
Ed
 1e-07 1 1 0
1  76 0 0 353.553390593274
4 C0 33 0 21 0
0

0101000
+379 0 -369 0 *
Ed
 1e-07 1 1 0
1  77 0 3000 4000
4 C0 33 0 34 0
0

0101000
+418 0 -369 0 *
Wi

0101100
+417 0 +377 0 +368 0 -367 0 *
Fa
0  1e-07 33 0

0111000
+366 0 *
Ve
1e-07
200 460 1000
0 0

0101101
*
Ed
 1e-07 1 1 0
1  78 0 1000 2000
4 C0 29 0 28 0
0

0101000
+364 0 -439 0 *
Ed
 1e-07 1 1 0
1  79 0 -185 215
4 C0 29 0 14 0
0

0101000
+364 0 -374 0 *
Wi

0101100
+436 0 -363 0 +362 0 +373 0 *
Fa
0  1e-07 29 0

0111000
+361 0 *
Ve
1e-07
200 460 4000
0 0

0101101
*
Ed
 1e-07 1 1 0
1  80 0 0 400
4 C0 34 0 21 0
0

0101000
+369 0 -359 0 *
Ed
 1e-07 1 1 0
1  81 0 3000 4000
4 C0 34 0 35 0
0

0101000
+416 0 -359 0 *
Wi

0101100
+415 0 +367 0 +358 0 -357 0 *
Fa
0  1e-07 34 0

0111000
+356 0 *
Ve
1e-07
-200 -520 1000
0 0

0101101
*
Ed
 1e-07 1 1 0
1  82 0 1000 2000
4 C0 24 0 5 0
0

0101000
+354 0 -449 0 *
Ve
1e-07
-200 -450 1000
0 0

0101101
*
Ed
 1e-07 1 1 0
1  83 0 -352.5 -282.5
4 C0 24 0 14 0
0

0101000
+354 0 -352 0 *
Ed
 1e-07 1 1 0
1  84 0 1000 2000
4 C0 24 0 25 0
0

0101000
+352 0 -447 0 *
Wi

0101100
+446 0 -353 0 +351 0 +350 0 *
Fa
0  1e-07 24 0

0111000
+349 0 *
Ve
1e-07
450 210 1000
0 0

0101101
*
Ed
 1e-07 1 1 0
1  85 0 1000 2000
4 C0 28 0 27 0
0

0101000
+347 0 -441 0 *
Ed
 1e-07 1 1 0
1  86 0 -215.667568261897 137.885822331377
4 C0 28 0 14 0
0

0101000
+347 0 -364 0 *
Wi

0101100
+438 0 -346 0 +345 0 +363 0 *
Fa
0  1e-07 28 0

0111000
+344 0 *
Ve
1e-07
2.75536429610035e-14 -450 1000
0 0

0101101
*
Ed
 1e-07 1 1 0
1  87 0 -165 35
4 C0 25 0 14 0
0

0101000
+352 0 -342 0 *
Ed
 1e-07 1 1 0
1  88 0 1000 2000
2  59 26 0 1000 2000
4 G1 25 0 26 0
0

0101000
+342 0 -445 0 *
Wi

0101100
+444 0 -350 0 +341 0 +340 0 *
Fa
0  1e-07 25 0

0111000
+339 0 *
Ve
1e-07
450 0 1000
0 0

0101101
*
Ed
 1e-07 1 1 0
1  89 0 1000 2000
2  60 26 0 1000 2000
4 G1 27 0 26 0
0

0101000
+337 0 -443 0 *
Ed
 1e-07 1 1 0
1  90 0 -127.5 82.5
4 C0 27 0 14 0
0

0101000
+337 0 -347 0 *
Wi

0101100
+440 0 -336 0 +335 0 +346 0 *
Fa
0  1e-07 27 0

0111000
+334 0 *
Ed
 1e-07 1 1 0
1  91 0 4.71238898038469 6.28318530717959
2  61 26 0 4.71238898038469 6.28318530717959
4 C0 26 0 14 0
0

0101000
+342 0 -337 0 *
Wi

0101100
+442 0 -340 0 +332 0 +336 0 *
Fa
0  1e-07 26 0

0111000
+331 0 *
Wi

0101100
+475 0 +508 0 *
Ve
1e-07
-470 -520 1000
0 0

0101101
*
Ed
 1e-07 1 1 0
1  92 0 65 335
4 C0 14 0 5 0
0

0101000
+328 0 -354 0 *
Ed
 1e-07 1 1 0
1  93 0 150 670
4 C0 14 0 40 0
0

0101000
+397 0 -328 0 *
Wi

0101100
-327 0 -326 0 -396 0 -382 0 -372 0 -362 0 -345 0 -335 0 -332 0 -341 0 
-351 0 *
Fa
0  1e-07 14 0

0111000
-329 0 -325 0 *
Ve
1e-07
-470 -520 0
0 0

0101101
*
Ed
 1e-07 1 1 0
1  94 0 -225 775
4 C0 40 0 5 0
0

0101000
+323 0 -328 0 *
Ed
 1e-07 1 1 0
1  95 0 -0.730612517712381 519.269387482288
4 C0 40 0 41 0
0

0101000
+395 0 -323 0 *
Wi

0101100
-322 0 -321 0 -394 0 +326 0 *
Fa
0  1e-07 40 0

0111000
+320 0 *
Ve
1e-07
450 0 4000
0 0

0101101
*
Ed
 1e-07 1 1 0
1  96 0 3000 4000
2  62 37 0 3000 4000
4 G1 37 0 36 0
0

0101000
+412 0 -318 0 *
Ve
1e-07
2.75536429610035e-14 -450 4000
0 0

0101101
*
Ed
 1e-07 1 1 0
1  97 0 0 1.5707963267949
2  63 37 0 0 1.5707963267949
4 C0 37 0 21 0
0

0101000
+318 0 -316 0 *
Ed
 1e-07 1 1 0
1  98 0 3000 4000
2  64 37 0 3000 4000
4 G1 37 0 38 0
0

0101000
+410 0 -316 0 *
Wi

0101100
+409 0 +317 0 +315 0 -314 0 *
Fa
0  1e-07 37 0

0111000
+313 0 *
Ve
1e-07
450 210 4000
0 0

0101101
*
Ed
 1e-07 1 1 0
1  99 0 3000 4000
4 C0 36 0 35 0
0

0101000
+414 0 -311 0 *
Ed
 1e-07 1 1 0
1  100 0 0 210
4 C0 36 0 21 0
0

0101000
+311 0 -318 0 *
Wi

0101100
+411 0 +310 0 +309 0 -317 0 *
Fa
0  1e-07 36 0

0111000
+308 0 *
Ed
 1e-07 1 1 0
1  101 0 -353.553390593274 0
4 C0 35 0 21 0
0

0101000
+359 0 -311 0 *
Wi

0101100
+413 0 +357 0 +306 0 -310 0 *
Fa
0  1e-07 35 0

0111000
+305 0 *
Ve
1e-07
-2000 -260 4000
0 0

0101101
*
Ed
 1e-07 1 1 0
1  102 0 0 367.695526217005
4 C0 42 0 21 0
0

0101000
+303 0 -391 0 *
Ve
1e-07
-2000 -260 0
0 0

0101101
*
Ed
 1e-07 1 1 0
1  103 0 0 367.695526217005
4 C0 42 0 41 0
0

0101000
+301 0 -393 0 *
Ed
 1e-07 1 1 0
1  104 0 0 4000
4 C0 42 0 43 0
0

0101000
+301 0 -303 0 *
Wi

0101100
+302 0 -390 0 -300 0 +299 0 *
Fa
0  1e-07 42 0

0111000
+298 0 *
Ve
1e-07
-200 -450 4000
0 0

0101101
*
Ed
 1e-07 1 1 0
1  105 0 -2.75536429610035e-14 200
4 C0 38 0 21 0
0

0101000
+316 0 -296 0 *
Ed
 1e-07 1 1 0
1  106 0 3000 4000
4 C0 38 0 39 0
0

0101000
+408 0 -296 0 *
Wi

0101100
+407 0 +314 0 +295 0 -294 0 *
Fa
0  1e-07 38 0

0111000
+293 0 *
Ve
1e-07
-200 -520 4000
0 0

0101101
*
Ed
 1e-07 1 1 0
1  107 0 0 70
4 C0 39 0 21 0
0

0101000
+296 0 -291 0 *
Ed
 1e-07 1 1 0
1  108 0 3000 4000
4 C0 39 0 5 0
0

0101000
+406 0 -291 0 *
Wi

0101100
+405 0 +294 0 +290 0 -289 0 *
Fa
0  1e-07 39 0

0111000
+288 0 *
Wi

0101100
+468 0 +520 0 *
Wi

0101100
+461 0 +537 0 *
Ve
1e-07
-2000 -520 4000
0 0

0101101
*
Ed
 1e-07 1 1 0
1  109 0 -1800 -0
4 C0 5 0 21 0
0

0101000
+291 0 -284 0 *
Ve
1e-07
-2000 -520 0
0 0

0101101
*
Ed
 1e-07 1 1 0
1  110 0 0 4000
4 C0 5 0 43 0
0

0101000
+282 0 -284 0 *
Ed
 1e-07 1 1 0
1  111 0 0 1530
4 C0 5 0 41 0
0

0101000
+282 0 -323 0 *
Wi

0101100
+404 0 +289 0 +283 0 -281 0 +280 0 +322 0 +327 0 +353 0 +448 0 +426 0 
*
Fa
0  1e-07 5 0

0111000
+286 0 +285 0 +279 0 *
Ed
 1e-07 1 1 0
1  112 0 -260 0
4 C0 43 0 21 0
0

0101000
+284 0 -303 0 *
Ed
 1e-07 1 1 0
1  113 0 0 260
4 C0 43 0 41 0
0

0101000
+301 0 -282 0 *
Wi

0101100
+277 0 -299 0 +276 0 +281 0 *
Fa
0  1e-07 43 0

0111000
+275 0 *
Wi

0101100
+491 0 +484 0 *
Wi

0101100
-302 0 -277 0 -283 0 -290 0 -295 0 -315 0 -309 0 -306 0 -358 0 -368 0 
-378 0 -388 0 *
Fa
0  1e-07 21 0

0111000
+273 0 +272 0 *
Wi

0101100
+321 0 -280 0 -276 0 +300 0 +392 0 *
Fa
0  1e-07 41 0

0111000
-270 0 *
Sh

0101100
-540 0 -533 0 -523 0 -516 0 +506 0 +496 0 +486 0 +482 0 +478 0 +476 0 
+472 0 +470 0 -466 0 -463 0 -459 0 -456 0 +431 0 +424 0 -402 0 +385 0 
+380 0 +375 0 +370 0 +365 0 +360 0 +355 0 +348 0 +343 0 +338 0 +333 0 
+330 0 -324 0 +319 0 +312 0 +307 0 +304 0 +297 0 +292 0 +287 0 +278 0 
+274 0 +271 0 -269 0 *
So

0100000
+268 0 *
Ve
1e-07
1510 -270 3250
0 0

0101101
*
Ve
1e-07
990 -270 3250
0 0

0101101
*
Ed
 1e-07 1 1 0
1  114 0 0 3.14159265358979
2  65 44 0 0 3.14159265358979
2  66 45 0 0 3.14159265358979
4 C0 44 0 45 0
0

0101000
+266 0 -265 0 *
Ve
1e-07
790 0 3250
0 0

0101101
*
Ed
 1e-07 1 1 0
1  115 0 -168.002976164114 168.002976164114
2  67 44 0 -168.002976164114 168.002976164114
2  68 46 0 -168.002976164114 168.002976164114
4 CN 44 0 46 0
0

0101000
+265 0 -263 0 *
Ve
1e-07
1710 4.44089209850063e-14 3250
0 0

0101101
*
Ed
 1e-07 1 1 0
1  116 0 3.14159265358979 6.28318530717959
2  69 44 0 3.14159265358979 6.28318530717959
4 C0 44 0 47 0
0

0101000
+263 0 -261 0 *
Ed
 1e-07 1 1 0
1  117 0 -168.002976164114 168.002976164115
2  70 44 0 -168.002976164114 168.002976164115
2  71 46 0 -168.002976164114 168.002976164115
4 CN 44 0 46 0
0

0101000
+261 0 -266 0 *
Wi

0101100
+264 0 +262 0 +260 0 +259 0 *
Fa
0  1e-07 44 0

0111000
+258 0 *
Ve
1e-07
1510 -520 3250
0 0

0101101
*
Ve
1e-07
990 -520 3250
0 0

0101101
*
Ed
 1e-07 1 1 0
1  118 0 0 3.14159265358979
2  72 45 0 0 3.14159265358979
4 C0 45 0 48 0
0

0101000
+256 0 -255 0 *
Ed
 1e-07 1 1 0
1  119 0 -75 175
2  73 45 0 -75 175
2  74 49 0 -75 175
4 CN 45 0 49 0
0

0101000
+255 0 -265 0 *
Ed
 1e-07 1 1 0
1  120 0 -175 75
2  75 45 0 -175 75
2  76 49 0 -175 75
4 CN 45 0 49 0
0

0101000
+266 0 -256 0 *
Wi

0101100
+254 0 +253 0 -264 0 +252 0 *
Fa
0  1e-07 45 0

0111000
+251 0 *
Ve
1e-07
1510 -270 750
0 0

0101101
*
Ve
1e-07
990 -270 750
0 0

0101101
*
Ed
 1e-07 1 1 0
1  121 0 0 3.14159265358979
2  77 50 0 0 3.14159265358979
2  78 51 0 0 3.14159265358979
4 C0 50 0 51 0
0

0101000
+249 0 -248 0 *
Ve
1e-07
790 0 750
0 0

0101101
*
Ed
 1e-07 1 1 0
1  122 0 -168.002976164114 168.002976164114
2  79 50 0 -168.002976164114 168.002976164114
2  80 52 0 -168.002976164114 168.002976164114
4 CN 50 0 52 0
0

0101000
+248 0 -246 0 *
Ve
1e-07
1710 4.44089209850063e-14 750
0 0

0101101
*
Ed
 1e-07 1 1 0
1  123 0 3.14159265358979 6.28318530717959
2  81 50 0 3.14159265358979 6.28318530717959
4 C0 50 0 47 0
0

0101000
+246 0 -244 0 *
Ed
 1e-07 1 1 0
1  124 0 -168.002976164114 168.002976164115
2  82 50 0 -168.002976164114 168.002976164115
2  83 52 0 -168.002976164114 168.002976164115
4 CN 50 0 52 0
0

0101000
+244 0 -249 0 *
Wi

0101100
+247 0 +245 0 +243 0 +242 0 *
Fa
0  1e-07 50 0

0111000
+241 0 *
Ve
1e-07
1510 -520 750
0 0

0101101
*
Ve
1e-07
990 -520 750
0 0

0101101
*
Ed
 1e-07 1 1 0
1  125 0 0 3.14159265358979
2  84 51 0 0 3.14159265358979
4 C0 51 0 48 0
0

0101000
+239 0 -238 0 *
Ed
 1e-07 1 1 0
1  126 0 -75 175
2  85 51 0 -75 175
2  86 53 0 -75 175
4 CN 51 0 53 0
0

0101000
+238 0 -248 0 *
Ed
 1e-07 1 1 0
1  127 0 -175 75
2  87 51 0 -175 75
2  88 53 0 -175 75
4 CN 51 0 53 0
0

0101000
+249 0 -239 0 *
Wi

0101100
+237 0 +236 0 -247 0 +235 0 *
Fa
0  1e-07 51 0

0111000
+234 0 *
Ve
1e-07
250 -3.06151588455594e-14 2000
0 0

0101101
*
Ve
1e-07
-250 -3.06151588455594e-14 2000
0 0

0101101
*
Ed
 1e-07 1 1 0
1  128 0 0 3.14159265358979
2  89 54 0 0 3.14159265358979
4 C0 54 0 55 0
0

0101000
+232 0 -231 0 *
Ve
1e-07
-250 3.06151588455594e-14 3000
0 0

0101101
*
Ed
 1e-07 1 1 0
1  129 0 -500 500
2  90 54 0 -500 500
2  91 56 0 -500 500
4 CN 54 0 56 0
0

0101000
+231 0 -229 0 *
Ve
1e-07
250 -3.06151588455594e-14 3000
0 0

0101101
*
Ed
 1e-07 1 1 0
1  130 0 3.14159265358979 6.28318530717959
2  92 54 0 3.14159265358979 6.28318530717959
4 C0 54 0 57 0
0

0101000
+229 0 -227 0 *
Ed
 1e-07 1 1 0
1  131 0 -500 500
2  93 54 0 -500 500
2  94 56 0 -500 500
4 CN 54 0 56 0
0

0101000
+227 0 -232 0 *
Wi

0101100
+230 0 +228 0 +226 0 +225 0 *
Fa
0  1e-07 54 0

0111000
+224 0 *
Ve
1e-07
250 -3.06151588455594e-14 3.06151588455594e-14
0 0

0101101
*
Ve
1e-07
-250 -3.06151588455594e-14 0
0 0

0101101
*
Ed
 1e-07 1 1 0
1  132 0 0 3.14159265358979
2  95 58 0 0 3.14159265358979
4 C0 58 0 59 0
0

0101000
+222 0 -221 0 *
Ve
1e-07
-250 3.06151588455594e-14 1000
0 0

0101101
*
Ed
 1e-07 1 1 0
1  133 0 -500 500
2  96 58 0 -500 500
2  97 60 0 -500 500
4 CN 58 0 60 0
0

0101000
+221 0 -219 0 *
Ve
1e-07
250 -3.06151588455594e-14 1000
0 0

0101101
*
Ed
 1e-07 1 1 0
1  134 0 3.14159265358979 6.28318530717959
2  98 58 0 3.14159265358979 6.28318530717959
4 C0 58 0 61 0
0

0101000
+219 0 -217 0 *
Ed
 1e-07 1 1 0
1  135 0 -500 500
2  99 58 0 -500 500
2  100 60 0 -500 500
4 CN 58 0 60 0
0

0101000
+217 0 -222 0 *
Wi

0101100
+220 0 +218 0 +216 0 +215 0 *
Fa
0  1e-07 58 0

0111000
+214 0 *
Ed
 1e-07 1 1 0
1  136 0 0 3.14159265358979
2  101 60 0 0 3.14159265358979
4 C0 60 0 61 0
0

0101000
+217 0 -219 0 *
Ed
 1e-07 1 1 0
1  137 0 3.14159265358979 6.28318530717959
2  102 60 0 3.14159265358979 6.28318530717959
4 C0 60 0 59 0
0

0101000
+221 0 -222 0 *
Wi

0101100
+212 0 -218 0 +211 0 -215 0 *
Fa
0  1e-07 60 0

0111000
+210 0 *
Ed
 1e-07 1 1 0
1  138 0 0 3.14159265358979
2  103 56 0 0 3.14159265358979
4 C0 56 0 57 0
0

0101000
+227 0 -229 0 *
Ed
 1e-07 1 1 0
1  139 0 3.14159265358979 6.28318530717959
2  104 56 0 3.14159265358979 6.28318530717959
4 C0 56 0 55 0
0

0101000
+231 0 -232 0 *
Wi

0101100
+208 0 -228 0 +207 0 -225 0 *
Fa
0  1e-07 56 0

0111000
+206 0 *
Ed
 1e-07 1 1 0
1  140 0 3.14159265358979 6.28318530717959
2  105 53 0 3.14159265358979 6.28318530717959
2  106 52 0 3.14159265358979 6.28318530717959
4 C0 53 0 52 0
0

0101000
+248 0 -249 0 *
Ed
 1e-07 1 1 0
1  141 0 3.14159265358979 6.28318530717959
2  107 53 0 3.14159265358979 6.28318530717959
4 C0 53 0 48 0
0

0101000
+238 0 -239 0 *
Wi

0101100
-204 0 -236 0 +203 0 -235 0 *
Fa
0  1e-07 53 0

0111000
+202 0 *
Ed
 1e-07 1 1 0
1  142 0 0 3.14159265358979
2  108 52 0 0 3.14159265358979
4 C0 52 0 47 0
0

0101000
+244 0 -246 0 *
Wi

0101100
+200 0 -245 0 +204 0 -242 0 *
Fa
0  1e-07 52 0

0111000
+199 0 *
Ed
 1e-07 1 1 0
1  143 0 3.14159265358979 6.28318530717959
2  109 49 0 3.14159265358979 6.28318530717959
2  110 46 0 3.14159265358979 6.28318530717959
4 C0 49 0 46 0
0

0101000
+265 0 -266 0 *
Ed
 1e-07 1 1 0
1  144 0 3.14159265358979 6.28318530717959
2  111 49 0 3.14159265358979 6.28318530717959
4 C0 49 0 48 0
0

0101000
+255 0 -256 0 *
Wi

0101100
-197 0 -253 0 +196 0 -252 0 *
Fa
0  1e-07 49 0

0111000
+195 0 *
Ed
 1e-07 1 1 0
1  145 0 0 3.14159265358979
2  112 46 0 0 3.14159265358979
4 C0 46 0 47 0
0

0101000
+261 0 -263 0 *
Wi

0101100
+193 0 -262 0 +197 0 -259 0 *
Fa
0  1e-07 46 0

0111000
+192 0 *
Wi

0101100
+207 0 +230 0 *
Ve
1e-07
470 0 2000
0 0

0101101
*
Ve
1e-07
450 0 2000
0 0

0101101
*
Ed
 1e-07 1 1 0
1  146 0 62.5 82.5
4 C0 55 0 47 0
0

0101000
+189 0 -188 0 *
Ve
1e-07
470 -520 2000
0 0

0101101
*
Ed
 1e-07 1 1 0
1  147 0 -670 -150
4 C0 55 0 62 0
0

0101000
+186 0 -189 0 *
Ve
1e-07
200 -520 2000
0 0

0101101
*
Ed
 1e-07 1 1 0
1  148 0 -335 -65
4 C0 55 0 48 0
0

0101000
+184 0 -186 0 *
Ve
1e-07
200 -450 2000
0 0

0101101
*
Ed
 1e-07 1 1 0
1  149 0 282.5 352.5
4 C0 55 0 63 0
0

0101000
+182 0 -184 0 *
Ve
1e-07
-2.75536429610035e-14 -450 2000
0 0

0101101
*
Ed
 1e-07 1 1 0
1  150 0 -35 165
4 C0 55 0 64 0
0

0101000
+180 0 -182 0 *
Ve
1e-07
-450 0 2000
0 0

0101101
*
Ed
 1e-07 1 1 0
1  151 0 0 1.5707963267949
2  113 65 0 0 1.5707963267949
4 C0 55 0 65 0
0

0101000
+178 0 -180 0 *
Ve
1e-07
-450 210 2000
0 0

0101101
*
Ed
 1e-07 1 1 0
1  152 0 -82.5 127.5
4 C0 55 0 66 0
0

0101000
+176 0 -178 0 *
Ve
1e-07
-200 460 2000
0 0

0101101
*
Ed
 1e-07 1 1 0
1  153 0 -137.885822331377 215.667568261897
4 C0 55 0 67 0
0

0101000
+174 0 -176 0 *
Ve
1e-07
200 460 2000
0 0

0101101
*
Ed
 1e-07 1 1 0
1  154 0 -215 185
4 C0 55 0 68 0
0

0101000
+172 0 -174 0 *
Ve
1e-07
450 210 2000
0 0

0101101
*
Ed
 1e-07 1 1 0
1  155 0 -236.880771697493 116.67261889578
4 C0 55 0 69 0
0

0101000
+170 0 -172 0 *
Ed
 1e-07 1 1 0
1  156 0 -127.5 82.5
4 C0 55 0 70 0
0

0101000
+188 0 -170 0 *
Wi

0101100
-187 0 -185 0 -183 0 -181 0 -179 0 -177 0 -175 0 -173 0 -171 0 -169 0 
-168 0 *
Fa
0  1e-07 55 0

0111000
+190 0 +167 0 *
Ve
1e-07
470 0 1000
0 0

0101101
*
Ed
 1e-07 1 1 0
1  157 0 -1750 -750
4 C0 62 0 47 0
0

0101000
+165 0 -189 0 *
Ve
1e-07
470 -520 1000
0 0

0101101
*
Ed
 1e-07 1 1 0
1  158 0 150 670
4 C0 62 0 61 0
0

0101000
+165 0 -163 0 *
Ed
 1e-07 1 1 0
1  159 0 750 1750
4 C0 62 0 48 0
0

0101000
+186 0 -163 0 *
Wi

0101100
-164 0 +162 0 -161 0 +185 0 *
Fa
0  1e-07 62 0

0111000
+160 0 *
Wi

0101100
+216 0 +212 0 *
Ve
1e-07
450 0 1000
0 0

0101101
*
Ed
 1e-07 1 1 0
1  160 0 -82.5 -62.5
4 C0 61 0 47 0
0

0101000
+157 0 -165 0 *
Ve
1e-07
450 210 1000
0 0

0101101
*
Ed
 1e-07 1 1 0
1  161 0 -82.5 127.5
4 C0 61 0 71 0
0

0101000
+155 0 -157 0 *
Ve
1e-07
200 460 1000
0 0

0101101
*
Ed
 1e-07 1 1 0
1  162 0 -116.67261889578 236.880771697493
4 C0 61 0 72 0
0

0101000
+153 0 -155 0 *
Ve
1e-07
-200 460 1000
0 0

0101101
*
Ed
 1e-07 1 1 0
1  163 0 -185 215
4 C0 61 0 73 0
0

0101000
+151 0 -153 0 *
Ve
1e-07
-450 210 1000
0 0

0101101
*
Ed
 1e-07 1 1 0
1  164 0 -215.667568261897 137.885822331377
4 C0 61 0 74 0
0

0101000
+149 0 -151 0 *
Ve
1e-07
-450 0 1000
0 0

0101101
*
Ed
 1e-07 1 1 0
1  165 0 -127.5 82.5
4 C0 61 0 75 0
0

0101000
+147 0 -149 0 *
Ve
1e-07
9.49069924212342e-14 -450 1000
0 0

0101101
*
Ed
 1e-07 1 1 0
1  166 0 4.71238898038469 6.28318530717959
2  114 76 0 4.71238898038469 6.28318530717959
4 C0 61 0 76 0
0

0101000
+145 0 -147 0 *
Ve
1e-07
200 -450 1000
0 0

0101101
*
Ed
 1e-07 1 1 0
1  167 0 -165 35
4 C0 61 0 77 0
0

0101000
+143 0 -145 0 *
Ve
1e-07
200 -520 1000
0 0

0101101
*
Ed
 1e-07 1 1 0
1  168 0 -352.5 -282.5
4 C0 61 0 78 0
0

0101000
+141 0 -143 0 *
Ed
 1e-07 1 1 0
1  169 0 65 335
4 C0 61 0 48 0
0

0101000
+163 0 -141 0 *
Wi

0101100
-156 0 -154 0 -152 0 -150 0 -148 0 -146 0 -144 0 -142 0 -140 0 -139 0 
-162 0 *
Fa
0  1e-07 61 0

0111000
-158 0 -138 0 *
Wi

0101100
+200 0 +243 0 *
Wi

0101100
+193 0 +260 0 *
Ve
1e-07
450 0 3000
0 0

0101101
*
Ed
 1e-07 1 1 0
1  170 0 1000 2000
4 C0 47 0 70 0
0

0101000
+134 0 -188 0 *
Ve
1e-07
470 0 3000
0 0

0101101
*
Ed
 1e-07 1 1 0
1  171 0 -82.5 -62.5
4 C0 47 0 57 0
0

0101000
+134 0 -132 0 *
Ve
1e-07
470 0 4000
0 0

0101101
*
Ed
 1e-07 1 1 0
1  172 0 -775 225
4 C0 47 0 79 0
0

0101000
+132 0 -130 0 *
Ve
1e-07
1740 0 4000
0 0

0101101
*
Ed
 1e-07 1 1 0
1  173 0 0 1270
4 C0 47 0 80 0
0

0101000
+128 0 -130 0 *
Ve
1e-07
1740 0 0
0 0

0101101
*
Ed
 1e-07 1 1 0
1  174 0 0 4000
4 C0 47 0 81 0
0

0101000
+128 0 -126 0 *
Ve
1e-07
450 0 0
0 0

0101101
*
Ed
 1e-07 1 1 0
1  175 0 0 1290
4 C0 47 0 59 0
0

0101000
+126 0 -124 0 *
Ed
 1e-07 1 1 0
1  176 0 3000 4000
4 C0 47 0 71 0
0

0101000
+157 0 -124 0 *
Wi

0101100
+156 0 +164 0 +187 0 -133 0 +131 0 +129 0 -127 0 +125 0 +123 0 -122 0 
*
Fa
0  1e-07 47 0

0111000
+136 0 +135 0 +121 0 *
Ve
1e-07
450 210 3000
0 0

0101101
*
Ed
 1e-07 1 1 0
1  177 0 1000 2000
4 C0 70 0 69 0
0

0101000
+119 0 -170 0 *
Ed
 1e-07 1 1 0
1  178 0 -82.5 127.5
4 C0 70 0 57 0
0

0101000
+119 0 -134 0 *
Wi

0101100
+168 0 -118 0 +117 0 +133 0 *
Fa
0  1e-07 70 0

0111000
+116 0 *
Ve
1e-07
450 210 0
0 0

0101101
*
Ed
 1e-07 1 1 0
1  179 0 0 210
4 C0 71 0 59 0
0

0101000
+124 0 -114 0 *
Ed
 1e-07 1 1 0
1  180 0 3000 4000
4 C0 71 0 72 0
0

0101000
+155 0 -114 0 *
Wi

0101100
+154 0 +122 0 +113 0 -112 0 *
Fa
0  1e-07 71 0

0111000
+111 0 *
Ve
1e-07
200 460 3000
0 0

0101101
*
Ed
 1e-07 1 1 0
1  181 0 1000 2000
4 C0 69 0 68 0
0

0101000
+109 0 -172 0 *
Ed
 1e-07 1 1 0
1  182 0 -116.67261889578 236.880771697493
4 C0 69 0 57 0
0

0101000
+109 0 -119 0 *
Wi

0101100
+169 0 -108 0 +107 0 +118 0 *
Fa
0  1e-07 69 0

0111000
+106 0 *
Ve
1e-07
200 460 0
0 0

0101101
*
Ed
 1e-07 1 1 0
1  183 0 0 353.553390593274
4 C0 72 0 59 0
0

0101000
+114 0 -104 0 *
Ed
 1e-07 1 1 0
1  184 0 3000 4000
4 C0 72 0 73 0
0

0101000
+153 0 -104 0 *
Wi

0101100
+152 0 +112 0 +103 0 -102 0 *
Fa
0  1e-07 72 0

0111000
+101 0 *
Ve
1e-07
-200 460 3000
0 0

0101101
*
Ed
 1e-07 1 1 0
1  185 0 1000 2000
4 C0 68 0 67 0
0

0101000
+99 0 -174 0 *
Ed
 1e-07 1 1 0
1  186 0 -185 215
4 C0 68 0 57 0
0

0101000
+99 0 -109 0 *
Wi

0101100
+171 0 -98 0 +97 0 +108 0 *
Fa
0  1e-07 68 0

0111000
+96 0 *
Ve
1e-07
-200 460 0
0 0

0101101
*
Ed
 1e-07 1 1 0
1  187 0 0 400
4 C0 73 0 59 0
0

0101000
+104 0 -94 0 *
Ed
 1e-07 1 1 0
1  188 0 3000 4000
4 C0 73 0 74 0
0

0101000
+151 0 -94 0 *
Wi

0101100
+150 0 +102 0 +93 0 -92 0 *
Fa
0  1e-07 73 0

0111000
+91 0 *
Ve
1e-07
200 -520 3000
0 0

0101101
*
Ed
 1e-07 1 1 0
1  189 0 1000 2000
4 C0 63 0 48 0
0

0101000
+89 0 -184 0 *
Ve
1e-07
200 -450 3000
0 0

0101101
*
Ed
 1e-07 1 1 0
1  190 0 -352.5 -282.5
4 C0 63 0 57 0
0

0101000
+89 0 -87 0 *
Ed
 1e-07 1 1 0
1  191 0 1000 2000
4 C0 63 0 64 0
0

0101000
+87 0 -182 0 *
Wi

0101100
+181 0 -88 0 +86 0 +85 0 *
Fa
0  1e-07 63 0

0111000
+84 0 *
Ve
1e-07
-450 210 3000
0 0

0101101
*
Ed
 1e-07 1 1 0
1  192 0 1000 2000
4 C0 67 0 66 0
0

0101000
+82 0 -176 0 *
Ed
 1e-07 1 1 0
1  193 0 -215.667568261897 137.885822331377
4 C0 67 0 57 0
0

0101000
+82 0 -99 0 *
Wi

0101100
+173 0 -81 0 +80 0 +98 0 *
Fa
0  1e-07 67 0

0111000
+79 0 *
Ve
1e-07
-1.50014278343241e-13 -450 3000
0 0

0101101
*
Ed
 1e-07 1 1 0
1  194 0 -165 35
4 C0 64 0 57 0
0

0101000
+87 0 -77 0 *
Ed
 1e-07 1 1 0
1  195 0 1000 2000
2  115 65 0 1000 2000
4 G1 64 0 65 0
0

0101000
+77 0 -180 0 *
Wi

0101100
+179 0 -85 0 +76 0 +75 0 *
Fa
0  1e-07 64 0

0111000
+74 0 *
Ve
1e-07
-450 0 3000
0 0

0101101
*
Ed
 1e-07 1 1 0
1  196 0 1000 2000
2  116 65 0 1000 2000
4 G1 66 0 65 0
0

0101000
+72 0 -178 0 *
Ed
 1e-07 1 1 0
1  197 0 -127.5 82.5
4 C0 66 0 57 0
0

0101000
+72 0 -82 0 *
Wi

0101100
+175 0 -71 0 +70 0 +81 0 *
Fa
0  1e-07 66 0

0111000
+69 0 *
Ed
 1e-07 1 1 0
1  198 0 4.71238898038469 6.28318530717959
2  117 65 0 4.71238898038469 6.28318530717959
4 C0 65 0 57 0
0

0101000
+77 0 -72 0 *
Wi

0101100
+177 0 -75 0 +67 0 +71 0 *
Fa
0  1e-07 65 0

0111000
+66 0 *
Wi

0101100
+226 0 +208 0 *
Ve
1e-07
470 -520 3000
0 0

0101101
*
Ed
 1e-07 1 1 0
1  199 0 65 335
4 C0 57 0 48 0
0

0101000
+63 0 -89 0 *
Ed
 1e-07 1 1 0
1  200 0 150 670
4 C0 57 0 79 0
0

0101000
+132 0 -63 0 *
Wi

0101100
-62 0 -61 0 -131 0 -117 0 -107 0 -97 0 -80 0 -70 0 -67 0 -76 0 
-86 0 *
Fa
0  1e-07 57 0

0111000
-64 0 -60 0 *
Ve
1e-07
470 -520 4000
0 0

0101101
*
Ed
 1e-07 1 1 0
1  201 0 -225 775
4 C0 79 0 48 0
0

0101000
+58 0 -63 0 *
Ed
 1e-07 1 1 0
1  202 0 -0.730612517712381 519.269387482288
4 C0 79 0 80 0
0

0101000
+130 0 -58 0 *
Wi

0101100
-57 0 -56 0 -129 0 +61 0 *
Fa
0  1e-07 79 0

0111000
+55 0 *
Ve
1e-07
-450 0 0
0 0

0101101
*
Ed
 1e-07 1 1 0
1  203 0 3000 4000
2  118 76 0 3000 4000
4 G1 76 0 75 0
0

0101000
+147 0 -53 0 *
Ve
1e-07
2.17367627803472e-13 -450 0
0 0

0101101
*
Ed
 1e-07 1 1 0
1  204 0 0 1.5707963267949
2  119 76 0 0 1.5707963267949
4 C0 76 0 59 0
0

0101000
+53 0 -51 0 *
Ed
 1e-07 1 1 0
1  205 0 3000 4000
2  120 76 0 3000 4000
4 G1 76 0 77 0
0

0101000
+145 0 -51 0 *
Wi

0101100
+144 0 +52 0 +50 0 -49 0 *
Fa
0  1e-07 76 0

0111000
+48 0 *
Ve
1e-07
-450 210 0
0 0

0101101
*
Ed
 1e-07 1 1 0
1  206 0 3000 4000
4 C0 75 0 74 0
0

0101000
+149 0 -46 0 *
Ed
 1e-07 1 1 0
1  207 0 0 210
4 C0 75 0 59 0
0

0101000
+46 0 -53 0 *
Wi

0101100
+146 0 +45 0 +44 0 -52 0 *
Fa
0  1e-07 75 0

0111000
+43 0 *
Ed
 1e-07 1 1 0
1  208 0 -353.553390593274 -0
4 C0 74 0 59 0
0

0101000
+94 0 -46 0 *
Wi

0101100
+148 0 +92 0 +41 0 -45 0 *
Fa
0  1e-07 74 0

0111000
+40 0 *
Ve
1e-07
2000 -260 0
0 0

0101101
*
Ed
 1e-07 1 1 0
1  209 0 0 367.695526217005
4 C0 81 0 59 0
0

0101000
+38 0 -126 0 *
Ve
1e-07
2000 -260 4000
0 0

0101101
*
Ed
 1e-07 1 1 0
1  210 0 0 367.695526217005
4 C0 81 0 80 0
0

0101000
+36 0 -128 0 *
Ed
 1e-07 1 1 0
1  211 0 0 4000
4 C0 81 0 82 0
0

0101000
+36 0 -38 0 *
Wi

0101100
+37 0 -125 0 -35 0 +34 0 *
Fa
0  1e-07 81 0

0111000
+33 0 *
Ve
1e-07
200 -450 0
0 0

0101101
*
Ed
 1e-07 1 1 0
1  212 0 -2.7553642961003e-14 200
4 C0 77 0 59 0
0

0101000
+51 0 -31 0 *
Ed
 1e-07 1 1 0
1  213 0 3000 4000
4 C0 77 0 78 0
0

0101000
+143 0 -31 0 *
Wi

0101100
+142 0 +49 0 +30 0 -29 0 *
Fa
0  1e-07 77 0

0111000
+28 0 *
Ve
1e-07
200 -520 0
0 0

0101101
*
Ed
 1e-07 1 1 0
1  214 0 0 70
4 C0 78 0 59 0
0

0101000
+31 0 -26 0 *
Ed
 1e-07 1 1 0
1  215 0 3000 4000
4 C0 78 0 48 0
0

0101000
+141 0 -26 0 *
Wi

0101100
+140 0 +29 0 +25 0 -24 0 *
Fa
0  1e-07 78 0

0111000
+23 0 *
Wi

0101100
+203 0 +237 0 *
Wi

0101100
+196 0 +254 0 *
Ve
1e-07
2000 -520 0
0 0

0101101
*
Ed
 1e-07 1 1 0
1  216 0 -1800 0
4 C0 48 0 59 0
0

0101000
+26 0 -19 0 *
Ve
1e-07
2000 -520 4000
0 0

0101101
*
Ed
 1e-07 1 1 0
1  217 0 0 4000
4 C0 48 0 82 0
0

0101000
+17 0 -19 0 *
Ed
 1e-07 1 1 0
1  218 0 0 1530
4 C0 48 0 80 0
0

0101000
+17 0 -58 0 *
Wi

0101100
+139 0 +24 0 +18 0 -16 0 +15 0 +57 0 +62 0 +88 0 +183 0 +161 0 
*
Fa
0  1e-07 48 0

0111000
+21 0 +20 0 +14 0 *
Ed
 1e-07 1 1 0
1  219 0 -260 0
4 C0 82 0 59 0
0

0101000
+19 0 -38 0 *
Ed
 1e-07 1 1 0
1  220 0 0 260
4 C0 82 0 80 0
0

0101000
+36 0 -17 0 *
Wi

0101100
+12 0 -34 0 +11 0 +16 0 *
Fa
0  1e-07 82 0

0111000
+10 0 *
Wi

0101100
+211 0 +220 0 *
Wi

0101100
-37 0 -12 0 -18 0 -25 0 -30 0 -50 0 -44 0 -41 0 -93 0 -103 0 
-113 0 -123 0 *
Fa
0  1e-07 59 0

0111000
+8 0 +7 0 *
Wi

0101100
+56 0 -15 0 -11 0 +35 0 +127 0 *
Fa
0  1e-07 80 0

0111000
-5 0 *
Sh

0101100
-257 0 -250 0 -240 0 -233 0 -223 0 -213 0 -209 0 -205 0 -201 0 -198 0 
-194 0 -191 0 +166 0 +159 0 -137 0 +120 0 +115 0 +110 0 +105 0 +100 0 
+95 0 +90 0 +83 0 +78 0 +73 0 +68 0 +65 0 -59 0 +54 0 +47 0 
+42 0 +39 0 +32 0 +27 0 +22 0 +13 0 +9 0 +6 0 -4 0 *
So

0100000
+3 0 *
Co

1100000
+267 0 +2 0 *

+1 0 