DBRep_DrawableShape

CASCADE Topology V1, (c) Matra-Datavision
Locations 0
Curve2ds 104
1 0 1.9428902930940239e-15 0 1 
1 6.2831853071795862 1.9428902930940239e-15 0 1 
1 0 -0.3827215453172168 1 -3.8873446106776316e-16 
1 3.1415926535897931 -6.6613381477509392e-16 0 -1 
1 3.1415926535897931 -6.6613381477509392e-16 0 -1 
1 0 0.38272154531721936 1 -4.2407395752846889e-16 
1 0 -5.4587500000000002 1 5.6543194337129189e-16 
1 0 0 0 1 
1 6.2831853071795862 0 0 1 
1 3.1415926535897931 8.8817841970012523e-16 0 -1 
1 3.1415926535897931 8.8817841970012523e-16 0 -1 
1 0 3.0000000000000009 1 0 
1 0 1.9428902930940239e-15 0 1 
1 6.2831853071795862 1.9428902930940239e-15 0 1 
1 0 -0.3827215453172168 1 -3.8873446106776316e-16 
1 3.1415926535897931 -6.6613381477509392e-16 0 -1 
1 3.1415926535897931 -6.6613381477509392e-16 0 -1 
1 0 0.38272154531721936 1 -4.2407395752846889e-16 
1 0 -5.4587500000000002 1 5.6543194337129189e-16 
1 0 0 0 1 
1 6.2831853071795862 0 0 1 
1 3.1415926535897931 8.8817841970012523e-16 0 -1 
1 3.1415926535897931 8.8817841970012523e-16 0 -1 
1 0 3.0000000000000009 1 0 
1 0 0 0 1 
1 6.2831853071795862 0 0 1 
1 6.2831853071795862 -12.5 -1 0 
1 3.1415926535897931 0 0 -1 
1 3.1415926535897931 0 0 -1 
1 0 0.69999999999999929 1 0 
1 0 19.200000000000003 0 1 
1 6.2831853071795862 19.200000000000003 0 1 
1 6.2831853071795862 12.899999999999999 -1 0 
1 3.1415926535897931 19.200000000000003 0 -1 
1 3.1415926535897931 19.200000000000003 0 -1 
1 0 25.5 1 0 
1 0 0 0 1 
1 6.2831853071795862 0 0 1 
1 6.2831853071795862 -0.39999999999999902 -1 0 
1 3.1415926535897931 0 0 -1 
1 3.1415926535897931 0 0 -1 
1 0 0.90000000000000102 1 0 
1 0 0.90000000000000102 1 0 
1 6.2831853071795862 -0.39999999999999902 -1 0 
1 0 25.5 1 0 
1 6.2831853071795862 12.899999999999999 -1 0 
1 0 0.69999999999999929 1 0 
1 6.2831853071795862 -12.5 -1 0 
1 0 3.0000000000000009 1 0 
1 0 -5.4587499999999967 1 -5.6543194337129189e-16 
1 0 0.38272154531721669 1 4.2407395752846889e-16 
1 0 -0.38272154531721925 1 3.8873446106776316e-16 
1 0 3.0000000000000009 1 0 
1 0 -5.4587499999999967 1 -5.6543194337129189e-16 
1 0 0.38272154531721669 1 4.2407395752846889e-16 
1 0 -0.38272154531721925 1 3.8873446106776316e-16 
1 0 -6.106226635438361e-16 0 1 
1 6.2831853071795862 -6.106226635438361e-16 0 1 
1 0 -0.38272154531721803 1 0 
1 3.1415926535897931 -6.106226635438361e-16 0 -1 
1 3.1415926535897931 -6.106226635438361e-16 0 -1 
1 0 0.38272154531721803 1 0 
1 0 -5.4587500000000002 1 5.6543194337129189e-16 
1 0 0 0 1 
1 6.2831853071795862 0 0 1 
1 3.1415926535897931 8.8817841970012523e-16 0 -1 
1 3.1415926535897931 8.8817841970012523e-16 0 -1 
1 0 3.0000000000000009 1 0 
1 0 -6.106226635438361e-16 0 1 
1 6.2831853071795862 -6.106226635438361e-16 0 1 
1 0 -0.38272154531721803 1 0 
1 3.1415926535897931 -6.106226635438361e-16 0 -1 
1 3.1415926535897931 -6.106226635438361e-16 0 -1 
1 0 0.38272154531721803 1 0 
1 0 -5.4587500000000002 1 5.6543194337129189e-16 
1 0 0 0 1 
1 6.2831853071795862 0 0 1 
1 3.1415926535897931 8.8817841970012523e-16 0 -1 
1 3.1415926535897931 8.8817841970012523e-16 0 -1 
1 0 3.0000000000000009 1 0 
1 0 -7.9000000000000004 1 0 
1 3.1415926535897931 0 0 1 
1 3.1415926535897931 0 0 1 
1 6.2831853071795862 4.3000000000000007 -1 0 
1 0 0 0 -1 
1 6.2831853071795862 0 0 -1 
1 0 17.5 1 0 
1 3.1415926535897931 23.5 0 1 
1 3.1415926535897931 23.5 0 1 
1 6.2831853071795862 29.5 -1 0 
1 0 23.5 0 -1 
1 6.2831853071795862 23.5 0 -1 
1 6.2831853071795862 29.5 -1 0 
1 0 17.5 1 0 
1 6.2831853071795862 4.3000000000000007 -1 0 
1 0 -7.9000000000000004 1 0 
1 0 3.0000000000000009 1 0 
1 0 -5.4587499999999967 1 -5.6543194337129189e-16 
1 0 0.38272154531721803 1 0 
1 0 -0.38272154531721803 1 0 
1 0 3.0000000000000009 1 0 
1 0 -5.4587499999999967 1 -5.6543194337129189e-16 
1 0 0.38272154531721803 1 0 
1 0 -0.38272154531721803 1 0 
Curves 208
1 -17.729375000000001 -14.729374999999999 10 -0.70710678118654802 0.70710678118654702 0 
2 -15 -15 10 6.12303176911189e-17 1 0 -1 6.12303176911189e-17 0 0 -0 1 2.4587500000000002
1 -12.270625000000001 -14.729374999999999 10 -0.70710678118654802 -0.70710678118654702 -0 
2 -15 -14.45875 10 6.12303176911189e-17 1 0 -1 6.12303176911189e-17 0 0 -0 1 3
1 -18 -9 10 6.12303176911189e-17 1 0 
1 -12 -9 10 -6.12303176911189e-17 -1 -0 
2 -15 -6 10 0 1 -0 -1 0 0 0 0 1 3
1 -17.729375000000001 -14.729374999999999 40 -0.70710678118654802 0.70710678118654702 0 
2 -15 -15 40 6.12303176911189e-17 1 0 -1 6.12303176911189e-17 0 0 -0 1 2.4587500000000002
1 -12.270625000000001 -14.729374999999999 40 -0.70710678118654802 -0.70710678118654702 -0 
2 -15 -14.45875 40 6.12303176911189e-17 1 0 -1 6.12303176911189e-17 0 0 -0 1 3
1 -18 -9 40 6.12303176911189e-17 1 0 
1 -12 -9 40 -6.12303176911189e-17 -1 -0 
2 -15 -6 40 0 1 -0 -1 0 0 0 0 1 3
1 3 -3.6738190614671298e-16 24.5 0 0 1 
2 0 0 12 0 0 -1 1 0 0 0 -1 0 3
1 -3 3.6738190614671298e-16 24.5 -0 -0 -1 
2 0 0 25.199999999999999 0 0 1 1 0 -0 -0 1 0 3
1 3 -3.6738190614671298e-16 43.700000000000003 0 0 1 
2 0 0 37.399999999999999 0 0 -1 1 0 0 0 -1 0 3
1 -3 3.6738190614671298e-16 43.700000000000003 -0 -0 -1 
2 0 0 50 0 0 1 1 0 -0 -0 1 0 3
1 4 4.89842541528951e-16 -0.39999999999999902 0 0 -1 
2 0 0 0 0 0 1 1 0 -0 -0 1 0 4
1 -4 -4.89842541528951e-16 -0.39999999999999902 -0 -0 1 
2 0 0 -1.3 0 0 -1 1 0 0 0 -1 0 4
2 0 0 -1.3 0 0 -1 1 0 0 0 -1 0 4
2 0 0 0 0 0 1 1 0 -0 -0 1 0 4
2 0 0 50 0 0 1 1 0 -0 -0 1 0 3
2 0 0 37.399999999999999 0 0 -1 1 0 0 0 -1 0 3
2 0 0 25.199999999999999 0 0 1 1 0 -0 -0 1 0 3
2 0 0 12 0 0 -1 1 0 0 0 -1 0 3
2 -15 -6 40 0 1 -0 -1 0 0 0 0 1 3
2 -15 -14.45875 40 6.12303176911189e-17 1 0 -1 6.12303176911189e-17 0 0 -0 1 3
2 -15 -15 40 6.12303176911189e-17 1 0 -1 6.12303176911189e-17 0 0 -0 1 2.4587500000000002
2 -15 -6 10 0 1 -0 -1 0 0 0 0 1 3
2 -15 -14.45875 10 6.12303176911189e-17 1 0 -1 6.12303176911189e-17 0 0 -0 1 3
2 -15 -15 10 6.12303176911189e-17 1 0 -1 6.12303176911189e-17 0 0 -0 1 2.4587500000000002
1 -5.5 -5 22.449999999999999 -0 0 1 
1 -5.5 0.5 37.399999999999999 0 1 0 
1 -5.5 0 22.449999999999999 0 -0 -1 
1 -5.5 -0.67484385216454801 50 0 1 0 
1 -0.4375 -5 37.399999999999999 -1 0 0 
1 4.25 -3 37.399999999999999 -0.70710678118654757 -0.70710678118654757 0 
1 5 0.25 37.399999999999999 0 -1 0 
1 4 3.25 37.399999999999999 0.70710678118654757 -0.70710678118654757 0 
1 1 5 37.399999999999999 1 0 0 
1 -3 4.25 37.399999999999999 0.70710678118654757 0.70710678118654757 -0 
1 -5 0.8125 37.399999999999999 0 1 -0 
1 -5.75 0 37.399999999999999 1 -0 0 
1 2.25 -5 0 0 0 1 
1 4.25 -3 25.199999999999999 0.70710678118654757 0.70710678118654757 -0 
1 5 -2.25 0 0 0 1 
1 -8 -5 50 -1 -0 -0 
1 -8 -5 0 0 0 1 
1 -8 -5 0 1 0 0 
1 2.25 -5 0 0 0 1 
1 -0.4375 -5 12 -1 0 0 
1 -5.5 -5 9.3000000000000007 -0 0 1 
1 -0.4375 -5 25.199999999999999 1 0 -0 
1 -5 0 50 1 0 0 
1 -25 -3 50 0.70710678118654757 0.70710678118654757 0 
1 -25 -3 50 0 1 0 
1 -25 -6 50 -1 -0 -0 
1 -8 -6 50 -0 -1 -0 
1 -5 0 0 0 0 1 
1 -5.75 0 25.199999999999999 -1 0 0 
1 -5.5 0 9.3000000000000007 0 -0 -1 
1 -5.75 0 12 1 -0 0 
1 -5 0 0 0 0 1 
1 -5 0 0 -1 0 0 
1 -22 0 0 0 0 1 
1 -5.5 0.5 25.199999999999999 0 -1 0 
1 -5 0.8125 25.199999999999999 0 -1 0 
1 -3 4.25 25.199999999999999 -0.70710678118654757 -0.70710678118654757 0 
1 1 5 25.199999999999999 -1 0 0 
1 4 3.25 25.199999999999999 -0.70710678118654757 0.70710678118654757 0 
1 5 0.25 25.199999999999999 -0 1 0 
1 4.25 -3 12 -0.70710678118654757 -0.70710678118654757 0 
1 5 0.25 12 0 -1 0 
1 4 3.25 12 0.70710678118654757 -0.70710678118654757 0 
1 1 5 12 1 0 0 
1 -3 4.25 12 0.70710678118654757 0.70710678118654757 -0 
1 -5 0.8125 12 0 1 -0 
1 -5.5 0.5 12 0 1 0 
1 5 -2.25 0 -0.70710678118654757 -0.70710678118654757 0 
1 5 -2.25 0 0 0 1 
1 5 2.25 0 0 -1 0 
1 5 2.25 0 0 0 1 
1 5 2.25 0 0 0 1 
1 5 2.25 0 -0.70710678118654757 0.70710678118654757 0 
1 2.25 5 0 0 0 1 
1 2.25 5 0 0 0 1 
1 -2.25 5 0 1 0 0 
1 -2.25 5 0 0 0 1 
1 -2.25 5 0 0 0 1 
1 -5 2.25 0 0.70710678118654757 0.70710678118654757 0 
1 -5 2.25 0 0 0 1 
1 -5 2.25 0 0 0 1 
1 -5 2.25 0 0 -1 0 
1 -25 -3 0 0.70710678118654757 0.70710678118654757 0 
1 -25 -3 0 0 0 1 
1 -8 -6 0 0 0 1 
1 -8 -6 0 0 1 0 
1 -25 -6 0 0 0 1 
1 -25 -6 0 1 0 0 
1 -25 -3 0 0 -1 0 
1 17.729375000000001 -14.729374999999999 40 0.70710678118654702 0.70710678118654802 -5.3021013293977297e-33 
2 15 -15 40 -6.12303176911189e-17 1 -7.4983036091106899e-33 1 6.12303176911189e-17 1.22460635382238e-16 1.22460635382238e-16 1.7789921910373654e-47 -1 2.4587500000000002
1 12.270625000000001 -14.729374999999999 40 0.70710678118654702 -0.70710678118654802 5.3021013293977297e-33 
2 15 -14.45875 40 -6.12303176911189e-17 1 -7.4983036091106899e-33 1 6.12303176911189e-17 1.22460635382238e-16 1.22460635382238e-16 1.7789921910373654e-47 -1 3
1 18 -9 40 -6.12303176911189e-17 1 -7.4983036091106899e-33 
1 12 -9 40 6.12303176911189e-17 -1 7.4983036091106899e-33 
2 15 -6 40 -0 1 0 1 0 1.22460635382238e-16 1.22460635382238e-16 0 -1 3
1 17.729375000000001 -14.729374999999999 10 0.70710678118654702 0.70710678118654802 -5.3021013293977297e-33 
2 15 -15 10 -6.12303176911189e-17 1 -7.4983036091106899e-33 1 6.12303176911189e-17 1.22460635382238e-16 1.22460635382238e-16 1.7789921910373654e-47 -1 2.4587500000000002
1 12.270625000000001 -14.729374999999999 10 0.70710678118654702 -0.70710678118654802 5.3021013293977297e-33 
2 15 -14.45875 10 -6.12303176911189e-17 1 -7.4983036091106899e-33 1 6.12303176911189e-17 1.22460635382238e-16 1.22460635382238e-16 1.7789921910373654e-47 -1 3
1 18 -9 10 -6.12303176911189e-17 1 -7.4983036091106899e-33 
1 12 -9 10 6.12303176911189e-17 -1 7.4983036091106899e-33 
2 15 -6 10 -0 1 0 1 0 1.22460635382238e-16 1.22460635382238e-16 0 -1 3
2 0 0 12.6 -1.22460635382238e-16 -0 1 1 0 1.22460635382238e-16 -0 1 0 3
1 -3 3.6738190614671298e-16 20.5 -0 0 1 
2 0 0 24.800000000000001 1.22460635382238e-16 0 -1 1 0 1.22460635382238e-16 0 -1 0 3
1 3 -3.6738190614671298e-16 20.5 -0 0 -1 
2 0 0 38 -1.22460635382238e-16 -0 1 1 0 1.22460635382238e-16 -0 1 0 3
1 -3 3.6738190614671298e-16 44 -0 0 1 
2 0 0 50 1.22460635382238e-16 0 -1 1 0 1.22460635382238e-16 0 -1 0 3
1 3 -3.6738190614671298e-16 44 -0 0 -1 
2 0 0 50 1.22460635382238e-16 0 -1 1 0 1.22460635382238e-16 0 -1 0 3
2 0 0 38 -1.22460635382238e-16 -0 1 1 0 1.22460635382238e-16 -0 1 0 3
2 0 0 24.800000000000001 1.22460635382238e-16 0 -1 1 0 1.22460635382238e-16 0 -1 0 3
2 0 0 12.6 -1.22460635382238e-16 -0 1 1 0 1.22460635382238e-16 -0 1 0 3
2 15 -6 10 -0 1 0 1 0 1.22460635382238e-16 1.22460635382238e-16 0 -1 3
2 15 -14.45875 10 -6.12303176911189e-17 1 -7.4983036091106899e-33 1 6.12303176911189e-17 1.22460635382238e-16 1.22460635382238e-16 1.7789921910373654e-47 -1 3
2 15 -15 10 -6.12303176911189e-17 1 -7.4983036091106899e-33 1 6.12303176911189e-17 1.22460635382238e-16 1.22460635382238e-16 1.7789921910373654e-47 -1 2.4587500000000002
2 15 -6 40 -0 1 0 1 0 1.22460635382238e-16 1.22460635382238e-16 0 -1 3
2 15 -14.45875 40 -6.12303176911189e-17 1 -7.4983036091106899e-33 1 6.12303176911189e-17 1.22460635382238e-16 1.22460635382238e-16 1.7789921910373654e-47 -1 3
2 15 -15 40 -6.12303176911189e-17 1 -7.4983036091106899e-33 1 6.12303176911189e-17 1.22460635382238e-16 1.22460635382238e-16 1.7789921910373654e-47 -1 2.4587500000000002
1 5.5 -5 27.550000000000001 1.22460635382238e-16 0 -1 
1 5.5 0.5 12.6 0 1 0 
1 5.5 0 27.550000000000001 -1.22460635382238e-16 0 1 
1 5.5 -0.67484385216454801 0 0 1 0 
1 0.437500000000002 -5 12.6 1 0 1.22460635382238e-16 
1 -4.25 -3 12.6 0.70710678118654757 -0.70710678118654757 8.6592745707193542e-17 
1 -5 0.25 12.6 0 -1 -0 
1 -4 3.25 12.6 -0.70710678118654757 -0.70710678118654757 -8.6592745707193542e-17 
1 -0.999999999999998 5 12.6 -1 0 -1.22460635382238e-16 
1 3 4.25 12.6 -0.70710678118654757 0.70710678118654757 -8.6592745707193542e-17 
1 5 0.8125 12.6 0 1 0 
1 5.75 0 12.6 -1 0 -1.22460635382238e-16 
1 -2.25 -5 50 1.22460635382238e-16 0 -1 
1 -4.25 -3 24.800000000000001 -0.70710678118654757 0.70710678118654757 -8.6592745707193542e-17 
1 -5 -2.25 50 1.22460635382238e-16 0 -1 
1 8 -5 0 1 -0 1.22460635382238e-16 
1 8 -5 50 1.22460635382238e-16 0 -1 
1 8 -5 50 -1 0 -1.22460635382238e-16 
1 -2.25 -5 50 1.22460635382238e-16 0 -1 
1 0.437499999999998 -5 38 1 0 1.22460635382238e-16 
1 5.5 -5 40.700000000000003 1.22460635382238e-16 0 -1 
1 0.4375 -5 24.800000000000001 -1 0 -1.22460635382238e-16 
1 5 0 0 -1 0 -1.22460635382238e-16 
1 25 -3 0 -0.70710678118654757 0.70710678118654757 -8.6592745707193542e-17 
1 25 -3 0 0 1 0 
1 25 -6 0 1 -0 1.22460635382238e-16 
1 8 -6 0 0 -1 0 
1 5 0 50 1.22460635382238e-16 0 -1 
1 5.75 0 24.800000000000001 1 0 1.22460635382238e-16 
1 5.5 0 40.700000000000003 -1.22460635382238e-16 0 1 
1 5.75 0 38 -1 0 -1.22460635382238e-16 
1 5 0 50 1.22460635382238e-16 0 -1 
1 5 0 50 1 0 1.22460635382238e-16 
1 22 0 50 1.22460635382238e-16 0 -1 
1 5.5 0.5 24.800000000000001 0 -1 -0 
1 5 0.8125 24.800000000000001 0 -1 -0 
1 3 4.25 24.800000000000001 0.70710678118654757 -0.70710678118654757 8.6592745707193542e-17 
1 -1 5 24.800000000000001 1 0 1.22460635382238e-16 
1 -4 3.25 24.800000000000001 0.70710678118654757 0.70710678118654757 8.6592745707193542e-17 
1 -5 0.25 24.800000000000001 0 1 0 
1 -4.25 -3 38 0.70710678118654757 -0.70710678118654757 8.6592745707193542e-17 
1 -5 0.25 38 0 -1 -0 
1 -4 3.25 38 -0.70710678118654757 -0.70710678118654757 -8.6592745707193542e-17 
1 -1 5 38 -1 0 -1.22460635382238e-16 
1 3 4.25 38 -0.70710678118654757 0.70710678118654757 -8.6592745707193542e-17 
1 5 0.8125 38 0 1 0 
1 5.5 0.5 38 0 1 0 
1 -5 -2.25 50 0.70710678118654757 -0.70710678118654757 8.6592745707193542e-17 
1 -5 -2.25 50 1.22460635382238e-16 0 -1 
1 -5 2.25 50 0 -1 -0 
1 -5 2.25 50 1.22460635382238e-16 0 -1 
1 -5 2.25 50 1.22460635382238e-16 0 -1 
1 -5 2.25 50 0.70710678118654757 0.70710678118654757 8.6592745707193542e-17 
1 -2.25 5 50 1.22460635382238e-16 0 -1 
1 -2.25 5 50 1.22460635382238e-16 0 -1 
1 2.25 5 50 -1 0 -1.22460635382238e-16 
1 2.25 5 50 1.22460635382238e-16 0 -1 
1 2.25 5 50 1.22460635382238e-16 0 -1 
1 5 2.25 50 -0.70710678118654757 0.70710678118654757 -8.6592745707193542e-17 
1 5 2.25 50 1.22460635382238e-16 0 -1 
1 5 2.25 50 1.22460635382238e-16 0 -1 
1 5 2.25 50 0 -1 -0 
1 25 -3 50 -0.70710678118654757 0.70710678118654757 -8.6592745707193542e-17 
1 25 -3 50 1.22460635382238e-16 0 -1 
1 8 -6 50 1.22460635382238e-16 0 -1 
1 8 -6 50 0 1 0 
1 25 -6 50 1.22460635382238e-16 0 -1 
1 25 -6 50 -1 0 -1.22460635382238e-16 
1 25 -3 50 0 -1 -0 
Polygon3D 0
PolygonOnTriangulations 0
Surfaces 82
3 -15 -14.729374999999999 10 6.12303176911189e-17 1 -0 -1 6.12303176911189e-17 0 0 0 1 2.7293750000000001
0.78539816339744795
3 -15 -14.729374999999999 10 6.12303176911189e-17 1 -0 -1 6.12303176911189e-17 0 0 0 1 2.7293750000000001
0.78539816339744795
1 -16.229375000000001 -15 10 -6.12303176911189e-17 -1 0 1 -6.12303176911189e-17 0 0 0 1 
2 -15 -9 10 6.12303176911189e-17 1 0 -1 6.12303176911189e-17 0 0 -0 1 3
2 -15 -9 10 6.12303176911189e-17 1 0 -1 6.12303176911189e-17 0 0 -0 1 3
1 -16.5 -6 0 0 -1 0 1 0 0 -0 0 1 
3 -15 -14.729374999999999 40 6.12303176911189e-17 1 -0 -1 6.12303176911189e-17 0 0 0 1 2.7293750000000001
0.78539816339744795
3 -15 -14.729374999999999 40 6.12303176911189e-17 1 -0 -1 6.12303176911189e-17 0 0 0 1 2.7293750000000001
0.78539816339744795
1 -16.229375000000001 -15 40 -6.12303176911189e-17 -1 0 1 -6.12303176911189e-17 0 0 0 1 
2 -15 -9 40 6.12303176911189e-17 1 0 -1 6.12303176911189e-17 0 0 -0 1 3
2 -15 -9 40 6.12303176911189e-17 1 0 -1 6.12303176911189e-17 0 0 -0 1 3
2 0 0 24.5 0 0 1 1 0 -0 -0 1 0 3
2 0 0 24.5 0 0 1 1 0 -0 -0 1 0 3
1 2 0.5 12 0 0 1 1 0 -0 -0 1 0 
1 2 0.5 25.199999999999999 0 0 1 1 0 -0 -0 1 0 
2 0 0 24.5 0 0 1 1 0 -0 -0 1 0 3
2 0 0 24.5 0 0 1 1 0 -0 -0 1 0 3
1 2 0.5 37.399999999999999 0 0 1 1 0 -0 -0 1 0 
1 0 0 50 0 0 1 1 0 -0 -0 1 0 
2 0 0 -0.39999999999999902 0 0 -1 1 0 0 0 -1 0 4
2 0 0 -0.39999999999999902 0 0 -1 1 0 0 0 -1 0 4
1 -9.2404689687627908 -1.8496877043291 0 0 0 1 1 0 -0 -0 1 0 
1 0 0 -1.3 0 0 -1 1 0 0 0 -1 0 
1 -5.5 0.5 44.899999999999999 1 0 0 0 0 -1 -0 1 0 
1 -2.875 -5 0 0 -1 0 1 0 0 -0 0 1 
1 -13.5 0 0 0 1 -0 -1 0 0 0 0 1 
1 -9.2404689687627908 -1.8496877043291 50 0 0 1 1 0 -0 -0 1 0 
1 3.625 -3.625 0 0.70710678118654757 -0.70710678118654757 0 0.70710678118654757 0.70710678118654757 0 -0 0 1 
1 5 0 0 1 0 -0 0 1 0 0 -0 1 
1 3.625 3.625 0 0.70710678118654757 0.70710678118654757 -0 -0.70710678118654757 0.70710678118654757 0 0 0 1 
1 -4.4408920985006301e-16 5 0 0 1 0 -1 0 0 0 -0 1 
1 -3.625 3.625 0 -0.70710678118654757 0.70710678118654757 0 -0.70710678118654757 -0.70710678118654757 -0 0 -0 1 
1 -5 1.125 0 -1 0 0 0 -1 0 0 0 1 
1 -8 -5.5 0 1 0 0 -0 1 0 0 -0 1 
1 3.625 -3.625 0 0.70710678118654757 -0.70710678118654757 0 0.70710678118654757 0.70710678118654757 0 -0 0 1 
1 -5.5 0.5 18.600000000000001 1 0 0 0 0 -1 -0 1 0 
1 -23.5 -1.5 0 -0.70710678118654757 0.70710678118654757 0 -0.70710678118654757 -0.70710678118654757 -0 0 -0 1 
1 -25 -4.5 0 -1 0 0 0 -1 0 0 0 1 
1 -5 1.125 0 -1 0 0 0 -1 0 0 0 1 
1 5 0 0 1 0 -0 0 1 0 0 -0 1 
1 3.625 3.625 0 0.70710678118654757 0.70710678118654757 -0 -0.70710678118654757 0.70710678118654757 0 0 0 1 
1 -4.4408920985006301e-16 5 0 0 1 0 -1 0 0 0 -0 1 
1 -3.625 3.625 0 -0.70710678118654757 0.70710678118654757 0 -0.70710678118654757 -0.70710678118654757 -0 0 -0 1 
3 15 -14.729374999999999 40 -6.12303176911189e-17 1 -7.4983036091106899e-33 1 6.12303176911189e-17 1.22460635382238e-16 1.22460635382238e-16 1.7789921910373654e-47 -1 2.7293750000000001
0.78539816339744795
3 15 -14.729374999999999 40 -6.12303176911189e-17 1 -7.4983036091106899e-33 1 6.12303176911189e-17 1.22460635382238e-16 1.22460635382238e-16 1.7789921910373654e-47 -1 2.7293750000000001
0.78539816339744795
1 16.229375000000001 -15 40 6.12303176911189e-17 -1 7.4983036091106899e-33 -1 -6.12303176911189e-17 -1.22460635382238e-16 1.22460635382238e-16 1.7789921910373654e-47 -1 
2 15 -9 40 -6.12303176911189e-17 1 -7.4983036091106899e-33 1 6.12303176911189e-17 1.22460635382238e-16 1.22460635382238e-16 1.7789921910373654e-47 -1 3
2 15 -9 40 -6.12303176911189e-17 1 -7.4983036091106899e-33 1 6.12303176911189e-17 1.22460635382238e-16 1.22460635382238e-16 1.7789921910373654e-47 -1 3
1 16.5 -6 50 0 -1 -0 -1 0 -1.22460635382238e-16 1.22460635382238e-16 0 -1 
3 15 -14.729374999999999 10 -6.12303176911189e-17 1 -7.4983036091106899e-33 1 6.12303176911189e-17 1.22460635382238e-16 1.22460635382238e-16 1.7789921910373654e-47 -1 2.7293750000000001
0.78539816339744795
3 15 -14.729374999999999 10 -6.12303176911189e-17 1 -7.4983036091106899e-33 1 6.12303176911189e-17 1.22460635382238e-16 1.22460635382238e-16 1.7789921910373654e-47 -1 2.7293750000000001
0.78539816339744795
1 16.229375000000001 -15 10 6.12303176911189e-17 -1 7.4983036091106899e-33 -1 -6.12303176911189e-17 -1.22460635382238e-16 1.22460635382238e-16 1.7789921910373654e-47 -1 
2 15 -9 10 -6.12303176911189e-17 1 -7.4983036091106899e-33 1 6.12303176911189e-17 1.22460635382238e-16 1.22460635382238e-16 1.7789921910373654e-47 -1 3
2 15 -9 10 -6.12303176911189e-17 1 -7.4983036091106899e-33 1 6.12303176911189e-17 1.22460635382238e-16 1.22460635382238e-16 1.7789921910373654e-47 -1 3
2 0 0 20.5 0 0 1 1 0 -0 -0 1 0 3
1 -2 0.5 12.6 1.22460635382238e-16 0 -1 -1 0 -1.22460635382238e-16 0 1 0 
2 0 0 20.5 0 0 1 1 0 -0 -0 1 0 3
1 -2 0.5 24.800000000000001 1.22460635382238e-16 0 -1 -1 0 -1.22460635382238e-16 0 1 0 
2 0 0 20.5 0 0 1 1 0 -0 -0 1 0 3
1 -2 0.5 38 1.22460635382238e-16 0 -1 -1 0 -1.22460635382238e-16 0 1 0 
2 0 0 20.5 0 0 1 1 0 -0 -0 1 0 3
1 9.2404689687627801 -1.8496877043291 50 1.22460635382238e-16 0 -1 -1 0 -1.22460635382238e-16 0 1 0 
1 5.5 0.5 5.0999999999999996 -1 0 -1.22460635382238e-16 -1.22460635382238e-16 0 1 0 1 0 
1 2.875 -5 50 0 -1 -0 -1 0 -1.22460635382238e-16 1.22460635382238e-16 0 -1 
1 13.5 0 50 -0 1 0 1 0 1.22460635382238e-16 1.22460635382238e-16 0 -1 
1 9.2404689687627908 -1.8496877043291 0 1.22460635382238e-16 0 -1 -1 0 -1.22460635382238e-16 0 1 0 
1 -3.625 -3.625 50 -0.70710678118654757 -0.70710678118654757 -8.6592745707193542e-17 -0.70710678118654757 0.70710678118654757 -8.6592745707193517e-17 1.2246063538223768e-16 2.4651903288156613e-32 -1 
1 -5 0 50 -1 0 -1.22460635382238e-16 0 1 0 1.22460635382238e-16 0 -1 
1 -3.625 3.625 50 -0.70710678118654757 0.70710678118654757 -8.6592745707193542e-17 0.70710678118654757 0.70710678118654757 8.6592745707193517e-17 1.2246063538223768e-16 -2.4651903288156613e-32 -1 
1 -2.6174266747058801e-15 5 50 0 1 0 1 -0 1.22460635382238e-16 1.22460635382238e-16 0 -1 
1 3.625 3.625 50 0.70710678118654757 0.70710678118654757 8.6592745707193542e-17 0.70710678118654757 -0.70710678118654757 8.6592745707193517e-17 1.2246063538223768e-16 2.4651903288156613e-32 -1 
1 5 1.125 50 1 0 1.22460635382238e-16 0 -1 0 1.22460635382238e-16 0 -1 
1 8 -5.5 50 -1 0 -1.22460635382238e-16 0 1 0 1.22460635382238e-16 0 -1 
1 -3.625 -3.625 50 -0.70710678118654757 -0.70710678118654757 -8.6592745707193542e-17 -0.70710678118654757 0.70710678118654757 -8.6592745707193517e-17 1.2246063538223768e-16 2.4651903288156613e-32 -1 
1 5.5 0.5 31.399999999999999 -1 0 -1.22460635382238e-16 -1.22460635382238e-16 0 1 0 1 0 
1 23.5 -1.5 50 0.70710678118654757 0.70710678118654757 8.6592745707193542e-17 0.70710678118654757 -0.70710678118654757 8.6592745707193517e-17 1.2246063538223768e-16 2.4651903288156613e-32 -1 
1 25 -4.5 50 1 0 1.22460635382238e-16 0 -1 0 1.22460635382238e-16 0 -1 
1 5 1.125 50 1 0 1.22460635382238e-16 0 -1 0 1.22460635382238e-16 0 -1 
1 -5 0 50 -1 0 -1.22460635382238e-16 0 1 0 1.22460635382238e-16 0 -1 
1 -3.625 3.625 50 -0.70710678118654757 0.70710678118654757 -8.6592745707193542e-17 0.70710678118654757 0.70710678118654757 8.6592745707193517e-17 1.2246063538223768e-16 -2.4651903288156613e-32 -1 
1 -2.6174266747058801e-15 5 50 0 1 0 1 -0 1.22460635382238e-16 1.22460635382238e-16 0 -1 
1 3.625 3.625 50 0.70710678118654757 0.70710678118654757 8.6592745707193542e-17 0.70710678118654757 -0.70710678118654757 8.6592745707193517e-17 1.2246063538223768e-16 2.4651903288156613e-32 -1 
Triangulations 0

TShapes 525
Ve
1e-07
-17.45875 -15 10
0 0

0101101
*
Ve
1e-07
-18 -14.45875 10
0 0

0101101
*
Ed
 1e-07 1 1 0
1  1 0 -0.382721545317221 0.382721545317217
2  1 1 0 -0.382721545317221 0.382721545317217
2  2 2 0 -0.382721545317221 0.382721545317217
4 CN 1 0 2 0
0

0101000
+525 0 -524 0 *
Ve
1e-07
-12.54125 -15 10
0 0

0101101
*
Ed
 1e-07 1 1 0
1  2 0 0 3.14159265358979
2  3 1 0 0 3.14159265358979
4 C0 1 0 3 0
0

0101000
+525 0 -522 0 *
Ve
1e-07
-12 -14.45875 10
0 0

0101101
*
Ed
 1e-07 1 1 0
1  3 0 -0.382721545317219 0.382721545317219
2  4 1 0 -0.382721545317219 0.382721545317219
2  5 2 0 -0.382721545317219 0.382721545317219
4 CN 1 0 2 0
0

0101000
+520 0 -522 0 *
Ed
 1e-07 1 1 0
1  4 0 0 3.14159265358979
2  6 1 0 0 3.14159265358979
2  7 4 0 0 3.14159265358979
4 C0 1 0 4 0
0

0101000
+524 0 -520 0 *
Wi

0101100
-523 0 +521 0 -519 0 -518 0 *
Fa
0  1e-07 1 0

0111000
+517 0 *
Ve
1e-07
-18 -6 10
0 0

0101101
*
Ed
 1e-07 1 1 0
1  5 0 -5.45875 3
2  8 4 0 -5.45875 3
2  9 5 0 -5.45875 3
4 CN 4 0 5 0
0

0101000
+524 0 -515 0 *
Ve
1e-07
-12 -6 10
0 0

0101101
*
Ed
 1e-07 1 1 0
1  6 0 -3 5.45875
2  10 4 0 -3 5.45875
2  11 5 0 -3 5.45875
4 CN 4 0 5 0
0

0101000
+513 0 -520 0 *
Ed
 1e-07 1 1 0
1  7 0 0 3.14159265358979
2  12 4 0 0 3.14159265358979
4 C0 4 0 6 0
0

0101000
+515 0 -513 0 *
Wi

0101100
-514 0 +518 0 -512 0 -511 0 *
Fa
0  1e-07 4 0

0111000
+510 0 *
Ve
1e-07
-17.45875 -15 40
0 0

0101101
*
Ve
1e-07
-18 -14.45875 40
0 0

0101101
*
Ed
 1e-07 1 1 0
1  8 0 -0.382721545317221 0.382721545317217
2  13 7 0 -0.382721545317221 0.382721545317217
2  14 8 0 -0.382721545317221 0.382721545317217
4 CN 7 0 8 0
0

0101000
+508 0 -507 0 *
Ve
1e-07
-12.54125 -15 40
0 0

0101101
*
Ed
 1e-07 1 1 0
1  9 0 0 3.14159265358979
2  15 7 0 0 3.14159265358979
4 C0 7 0 9 0
0

0101000
+508 0 -505 0 *
Ve
1e-07
-12 -14.45875 40
0 0

0101101
*
Ed
 1e-07 1 1 0
1  10 0 -0.382721545317219 0.382721545317219
2  16 7 0 -0.382721545317219 0.382721545317219
2  17 8 0 -0.382721545317219 0.382721545317219
4 CN 7 0 8 0
0

0101000
+503 0 -505 0 *
Ed
 1e-07 1 1 0
1  11 0 0 3.14159265358979
2  18 7 0 0 3.14159265358979
2  19 10 0 0 3.14159265358979
4 C0 7 0 10 0
0

0101000
+507 0 -503 0 *
Wi

0101100
-506 0 +504 0 -502 0 -501 0 *
Fa
0  1e-07 7 0

0111000
+500 0 *
Ve
1e-07
-18 -6 40
0 0

0101101
*
Ed
 1e-07 1 1 0
1  12 0 -5.45875 3
2  20 10 0 -5.45875 3
2  21 11 0 -5.45875 3
4 CN 10 0 11 0
0

0101000
+507 0 -498 0 *
Ve
1e-07
-12 -6 40
0 0

0101101
*
Ed
 1e-07 1 1 0
1  13 0 -3 5.45875
2  22 10 0 -3 5.45875
2  23 11 0 -3 5.45875
4 CN 10 0 11 0
0

0101000
+496 0 -503 0 *
Ed
 1e-07 1 1 0
1  14 0 0 3.14159265358979
2  24 10 0 0 3.14159265358979
4 C0 10 0 6 0
0

0101000
+498 0 -496 0 *
Wi

0101100
-497 0 +501 0 -495 0 -494 0 *
Fa
0  1e-07 10 0

0111000
+493 0 *
Ve
1e-07
3 -3.67381906146713e-16 12
0 0

0101101
*
Ve
1e-07
3 -3.67381906146713e-16 25.2
0 0

0101101
*
Ed
 1e-07 1 1 0
1  15 0 -12.5 0.699999999999999
2  25 12 0 -12.5 0.699999999999999
2  26 13 0 -12.5 0.699999999999999
4 CN 12 0 13 0
0

0101000
+491 0 -490 0 *
Ve
1e-07
-3 3.67381906146713e-16 12
0 0

0101101
*
Ed
 1e-07 1 1 0
1  16 0 3.14159265358979 6.28318530717959
2  27 12 0 3.14159265358979 6.28318530717959
4 C0 12 0 14 0
0

0101000
+488 0 -491 0 *
Ve
1e-07
-3 -3.67381906146713e-16 25.2
0 0

0101101
*
Ed
 1e-07 1 1 0
1  17 0 -0.699999999999999 12.5
2  28 12 0 -0.699999999999999 12.5
2  29 13 0 -0.699999999999999 12.5
4 CN 12 0 13 0
0

0101000
+486 0 -488 0 *
Ed
 1e-07 1 1 0
1  18 0 0 3.14159265358979
2  30 12 0 0 3.14159265358979
4 C0 12 0 15 0
0

0101000
+490 0 -486 0 *
Wi

0101100
-489 0 -487 0 -485 0 -484 0 *
Fa
0  1e-07 12 0

0111000
+483 0 *
Ve
1e-07
3 -3.67381906146713e-16 37.4
0 0

0101101
*
Ve
1e-07
3 0 50
0 0

0101101
*
Ed
 1e-07 1 1 0
1  19 0 -6.3 6.3
2  31 16 0 -6.3 6.3
2  32 17 0 -6.3 6.3
4 CN 16 0 17 0
0

0101000
+481 0 -480 0 *
Ve
1e-07
-3 3.67381906146713e-16 37.4
0 0

0101101
*
Ed
 1e-07 1 1 0
1  20 0 3.14159265358979 6.28318530717959
2  33 16 0 3.14159265358979 6.28318530717959
4 C0 16 0 18 0
0

0101000
+478 0 -481 0 *
Ve
1e-07
-3 3.67381906146713e-16 50
0 0

0101101
*
Ed
 1e-07 1 1 0
1  21 0 -6.3 6.3
2  34 16 0 -6.3 6.3
2  35 17 0 -6.3 6.3
4 CN 16 0 17 0
0

0101000
+476 0 -478 0 *
Ed
 1e-07 1 1 0
1  22 0 0 3.14159265358979
2  36 16 0 0 3.14159265358979
4 C0 16 0 19 0
0

0101000
+480 0 -476 0 *
Wi

0101100
-479 0 -477 0 -475 0 -474 0 *
Fa
0  1e-07 16 0

0111000
+473 0 *
Ve
1e-07
4 4.89842541528951e-16 0
0 0

0101101
*
Ve
1e-07
4 0 -1.3
0 0

0101101
*
Ed
 1e-07 1 1 0
1  23 0 -0.399999999999999 0.900000000000001
2  37 20 0 -0.399999999999999 0.900000000000001
2  38 21 0 -0.399999999999999 0.900000000000001
4 CN 20 0 21 0
0

0101000
+471 0 -470 0 *
Ve
1e-07
-4 -4.89842541528951e-16 0
0 0

0101101
*
Ed
 1e-07 1 1 0
1  24 0 3.14159265358979 6.28318530717959
2  39 20 0 3.14159265358979 6.28318530717959
4 C0 20 0 22 0
0

0101000
+468 0 -471 0 *
Ve
1e-07
-4 -4.89842541528951e-16 -1.3
0 0

0101101
*
Ed
 1e-07 1 1 0
1  25 0 -0.900000000000001 0.399999999999999
2  40 20 0 -0.900000000000001 0.399999999999999
2  41 21 0 -0.900000000000001 0.399999999999999
4 CN 20 0 21 0
0

0101000
+466 0 -468 0 *
Ed
 1e-07 1 1 0
1  26 0 0 3.14159265358979
2  42 20 0 0 3.14159265358979
4 C0 20 0 23 0
0

0101000
+470 0 -466 0 *
Wi

0101100
-469 0 -467 0 -465 0 -464 0 *
Fa
0  1e-07 20 0

0111000
+463 0 *
Ed
 1e-07 1 1 0
1  27 0 3.14159265358979 6.28318530717959
2  43 21 0 3.14159265358979 6.28318530717959
4 C0 21 0 23 0
0

0101000
+466 0 -470 0 *
Ed
 1e-07 1 1 0
1  28 0 0 3.14159265358979
2  44 21 0 0 3.14159265358979
4 C0 21 0 22 0
0

0101000
+471 0 -468 0 *
Wi

0101100
+469 0 -461 0 +465 0 -460 0 *
Fa
0  1e-07 21 0

0111000
+459 0 *
Ed
 1e-07 1 1 0
1  29 0 3.14159265358979 6.28318530717959
2  45 17 0 3.14159265358979 6.28318530717959
4 C0 17 0 19 0
0

0101000
+476 0 -480 0 *
Ed
 1e-07 1 1 0
1  30 0 0 3.14159265358979
2  46 17 0 0 3.14159265358979
4 C0 17 0 18 0
0

0101000
+481 0 -478 0 *
Wi

0101100
+479 0 -457 0 +475 0 -456 0 *
Fa
0  1e-07 17 0

0111000
+455 0 *
Wi

0101100
+464 0 +461 0 *
Fa
0  1e-07 23 0

0111000
+453 0 *
Ed
 1e-07 1 1 0
1  31 0 3.14159265358979 6.28318530717959
2  47 13 0 3.14159265358979 6.28318530717959
4 C0 13 0 15 0
0

0101000
+486 0 -490 0 *
Ed
 1e-07 1 1 0
1  32 0 0 3.14159265358979
2  48 13 0 0 3.14159265358979
4 C0 13 0 14 0
0

0101000
+491 0 -488 0 *
Wi

0101100
+489 0 -451 0 +485 0 -450 0 *
Fa
0  1e-07 13 0

0111000
+449 0 *
Wi

0101100
+474 0 +457 0 *
Fa
0  1e-07 19 0

0111000
+447 0 *
Ed
 1e-07 1 1 0
1  33 0 3.14159265358979 6.28318530717959
2  49 11 0 3.14159265358979 6.28318530717959
4 C0 11 0 6 0
0

0101000
+496 0 -498 0 *
Ed
 1e-07 1 1 0
1  34 0 3.14159265358979 6.28318530717959
2  50 11 0 3.14159265358979 6.28318530717959
2  51 8 0 3.14159265358979 6.28318530717959
4 C0 11 0 8 0
0

0101000
+503 0 -507 0 *
Wi

0101100
+497 0 -445 0 +495 0 +444 0 *
Fa
0  1e-07 11 0

0111000
+443 0 *
Ed
 1e-07 1 1 0
1  35 0 3.14159265358979 6.28318530717959
2  52 8 0 3.14159265358979 6.28318530717959
4 C0 8 0 9 0
0

0101000
+505 0 -508 0 *
Wi

0101100
+506 0 -444 0 +502 0 +441 0 *
Fa
0  1e-07 8 0

0111000
+440 0 *
Wi

0101100
-504 0 -441 0 *
Fa
0  1e-07 9 0

0111000
+438 0 *
Ed
 1e-07 1 1 0
1  36 0 3.14159265358979 6.28318530717959
2  53 5 0 3.14159265358979 6.28318530717959
4 C0 5 0 6 0
0

0101000
+513 0 -515 0 *
Ed
 1e-07 1 1 0
1  37 0 3.14159265358979 6.28318530717959
2  54 5 0 3.14159265358979 6.28318530717959
2  55 2 0 3.14159265358979 6.28318530717959
4 C0 5 0 2 0
0

0101000
+520 0 -524 0 *
Wi

0101100
+514 0 -436 0 +512 0 +435 0 *
Fa
0  1e-07 5 0

0111000
+434 0 *
Ed
 1e-07 1 1 0
1  38 0 3.14159265358979 6.28318530717959
2  56 2 0 3.14159265358979 6.28318530717959
4 C0 2 0 3 0
0

0101000
+522 0 -525 0 *
Wi

0101100
+523 0 -435 0 +519 0 +432 0 *
Fa
0  1e-07 2 0

0111000
+431 0 *
Wi

0101100
-521 0 -432 0 *
Fa
0  1e-07 3 0

0111000
+429 0 *
Ve
1e-07
-5.5 -5 37.4
0 0

0101101
*
Ve
1e-07
-5.5 -5 50
0 0

0101101
*
Ed
 1e-07 1 1 0
1  39 0 14.95 27.55
4 C0 24 0 25 0
0

0101000
+427 0 -426 0 *
Ve
1e-07
-5.5 0 37.4
0 0

0101101
*
Ed
 1e-07 1 1 0
1  40 0 -5.5 -0.5
4 C0 24 0 18 0
0

0101000
+427 0 -424 0 *
Ve
1e-07
-5.5 0 50
0 0

0101101
*
Ed
 1e-07 1 1 0
1  41 0 -27.55 -14.95
4 C0 24 0 26 0
0

0101000
+422 0 -424 0 *
Ed
 1e-07 1 1 0
1  42 0 -4.32515614783545 0.674843852164548
4 C0 24 0 27 0
0

0101000
+426 0 -422 0 *
Wi

0101100
-425 0 +423 0 -421 0 -420 0 *
Fa
0  1e-07 24 0

0111000
+419 0 *
Wi

0101100
+477 0 +456 0 *
Ve
1e-07
2.25 -5 37.4
0 0

0101101
*
Ed
 1e-07 1 1 0
1  43 0 -2.6875 5.0625
4 C0 18 0 25 0
0

0101000
+416 0 -427 0 *
Ve
1e-07
5 -2.25 37.4
0 0

0101101
*
Ed
 1e-07 1 1 0
1  44 0 -1.06066017177982 2.82842712474619
4 C0 18 0 28 0
0

0101000
+414 0 -416 0 *
Ve
1e-07
5 2.25 37.4
0 0

0101101
*
Ed
 1e-07 1 1 0
1  45 0 -2 2.5
4 C0 18 0 29 0
0

0101000
+412 0 -414 0 *
Ve
1e-07
2.25 5 37.4
0 0

0101101
*
Ed
 1e-07 1 1 0
1  46 0 -2.47487373415292 1.4142135623731
4 C0 18 0 30 0
0

0101000
+410 0 -412 0 *
Ve
1e-07
-2.25 5 37.4
0 0

0101101
*
Ed
 1e-07 1 1 0
1  47 0 -3.25 1.25
4 C0 18 0 31 0
0

0101000
+408 0 -410 0 *
Ve
1e-07
-5 2.25 37.4
0 0

0101101
*
Ed
 1e-07 1 1 0
1  48 0 -2.82842712474619 1.06066017177982
4 C0 18 0 32 0
0

0101000
+406 0 -408 0 *
Ve
1e-07
-5 0 37.4
0 0

0101101
*
Ed
 1e-07 1 1 0
1  49 0 -0.8125 1.4375
4 C0 18 0 33 0
0

0101000
+404 0 -406 0 *
Ed
 1e-07 1 1 0
1  50 0 0.25 0.75
4 C0 18 0 26 0
0

0101000
+424 0 -404 0 *
Wi

0101100
-415 0 -413 0 -411 0 -409 0 -407 0 -405 0 -403 0 -402 0 -423 0 *
Fa
0  1e-07 18 0

0111000
+417 0 +401 0 *
Ve
1e-07
2.25 -5 25.2
0 0

0101101
*
Ed
 1e-07 1 1 0
1  51 0 25.2 37.4
4 C0 28 0 25 0
0

0101000
+399 0 -416 0 *
Ve
1e-07
5 -2.25 25.2
0 0

0101101
*
Ed
 1e-07 1 1 0
1  52 0 -2.82842712474619 1.06066017177982
4 C0 28 0 15 0
0

0101000
+399 0 -397 0 *
Ed
 1e-07 1 1 0
1  53 0 25.2 37.4
4 C0 28 0 29 0
0

0101000
+397 0 -414 0 *
Wi

0101100
+413 0 -398 0 +396 0 +395 0 *
Fa
0  1e-07 28 0

0111000
+394 0 *
Ve
1e-07
-8 -5 50
0 0

0101101
*
Ed
 1e-07 1 1 0
1  54 0 -2.5 -0
4 C0 25 0 27 0
0

0101000
+426 0 -392 0 *
Ve
1e-07
-8 -5 0
0 0

0101101
*
Ed
 1e-07 1 1 0
1  55 0 0 50
4 C0 25 0 34 0
0

0101000
+390 0 -392 0 *
Ve
1e-07
2.25 -5 0
0 0

0101101
*
Ed
 1e-07 1 1 0
1  56 0 0 10.25
4 C0 25 0 22 0
0

0101000
+390 0 -388 0 *
Ve
1e-07
2.25 -5 12
0 0

0101101
*
Ed
 1e-07 1 1 0
1  57 0 0 12
4 C0 25 0 35 0
0

0101000
+388 0 -386 0 *
Ve
1e-07
-5.5 -5 12
0 0

0101101
*
Ed
 1e-07 1 1 0
1  58 0 -2.6875 5.0625
4 C0 25 0 14 0
0

0101000
+386 0 -384 0 *
Ve
1e-07
-5.5 -5 25.2
0 0

0101101
*
Ed
 1e-07 1 1 0
1  59 0 2.7 15.9
4 C0 25 0 36 0
0

0101000
+384 0 -382 0 *
Ed
 1e-07 1 1 0
1  60 0 -5.0625 2.6875
4 C0 25 0 15 0
0

0101000
+382 0 -399 0 *
Wi

0101100
+415 0 +425 0 +391 0 -389 0 +387 0 +385 0 +383 0 +381 0 +380 0 +398 0 
*
Fa
0  1e-07 25 0

0111000
+379 0 *
Ve
1e-07
-22 0 50
0 0

0101101
*
Ed
 1e-07 1 1 0
1  61 0 -17 -0.5
4 C0 27 0 26 0
0

0101000
+377 0 -422 0 *
Ve
1e-07
-25 -3 50
0 0

0101101
*
Ed
 1e-07 1 1 0
1  62 0 0 4.24264068711929
4 C0 27 0 37 0
0

0101000
+375 0 -377 0 *
Ve
1e-07
-25 -6 50
0 0

0101101
*
Ed
 1e-07 1 1 0
1  63 0 -3 0
4 C0 27 0 38 0
0

0101000
+373 0 -375 0 *
Ve
1e-07
-8 -6 50
0 0

0101101
*
Ed
 1e-07 1 1 0
1  64 0 -17 -0
4 C0 27 0 6 0
0

0101000
+371 0 -373 0 *
Ed
 1e-07 1 1 0
1  65 0 -1 -0
4 C0 27 0 34 0
0

0101000
+392 0 -371 0 *
Wi

0101100
+420 0 -376 0 -374 0 -372 0 -370 0 -369 0 -391 0 *
Fa
0  1e-07 27 0

0111000
+368 0 *
Ve
1e-07
-5 0 25.2
0 0

0101101
*
Ed
 1e-07 1 1 0
1  66 0 25.2 37.4
4 C0 26 0 33 0
0

0101000
+366 0 -404 0 *
Ve
1e-07
-5.5 0 25.2
0 0

0101101
*
Ed
 1e-07 1 1 0
1  67 0 -0.75 -0.25
4 C0 26 0 15 0
0

0101000
+366 0 -364 0 *
Ve
1e-07
-5.5 0 12
0 0

0101101
*
Ed
 1e-07 1 1 0
1  68 0 -15.9 -2.7
4 C0 26 0 36 0
0

0101000
+364 0 -362 0 *
Ve
1e-07
-5 0 12
0 0

0101101
*
Ed
 1e-07 1 1 0
1  69 0 0.25 0.75
4 C0 26 0 14 0
0

0101000
+362 0 -360 0 *
Ve
1e-07
-5 0 0
0 0

0101101
*
Ed
 1e-07 1 1 0
1  70 0 0 12
4 C0 26 0 39 0
0

0101000
+358 0 -360 0 *
Ve
1e-07
-22 0 0
0 0

0101101
*
Ed
 1e-07 1 1 0
1  71 0 0 17
4 C0 26 0 22 0
0

0101000
+358 0 -356 0 *
Ed
 1e-07 1 1 0
1  72 0 0 50
4 C0 26 0 37 0
0

0101000
+356 0 -377 0 *
Wi

0101100
+421 0 +402 0 -365 0 +363 0 +361 0 +359 0 -357 0 +355 0 +354 0 +376 0 
*
Fa
0  1e-07 26 0

0111000
+353 0 *
Wi

0101100
+451 0 +484 0 *
Ed
 1e-07 1 1 0
1  73 0 0.5 5.5
4 C0 15 0 36 0
0

0101000
+364 0 -382 0 *
Ve
1e-07
-5 2.25 25.2
0 0

0101101
*
Ed
 1e-07 1 1 0
1  74 0 -1.4375 0.8125
4 C0 15 0 33 0
0

0101000
+349 0 -366 0 *
Ve
1e-07
-2.25 5 25.2
0 0

0101101
*
Ed
 1e-07 1 1 0
1  75 0 -1.06066017177982 2.82842712474619
4 C0 15 0 32 0
0

0101000
+347 0 -349 0 *
Ve
1e-07
2.25 5 25.2
0 0

0101101
*
Ed
 1e-07 1 1 0
1  76 0 -1.25 3.25
4 C0 15 0 31 0
0

0101000
+345 0 -347 0 *
Ve
1e-07
5 2.25 25.2
0 0

0101101
*
Ed
 1e-07 1 1 0
1  77 0 -1.4142135623731 2.47487373415292
4 C0 15 0 30 0
0

0101000
+343 0 -345 0 *
Ed
 1e-07 1 1 0
1  78 0 -2.5 2
4 C0 15 0 29 0
0

0101000
+397 0 -343 0 *
Wi

0101100
-380 0 -350 0 -363 0 -348 0 -346 0 -344 0 -342 0 -341 0 -396 0 *
Fa
0  1e-07 15 0

0111000
-351 0 -340 0 *
Wi

0101100
+487 0 +450 0 *
Ve
1e-07
5 -2.25 12
0 0

0101101
*
Ed
 1e-07 1 1 0
1  79 0 -1.06066017177982 2.82842712474619
4 C0 14 0 35 0
0

0101000
+337 0 -386 0 *
Ve
1e-07
5 2.25 12
0 0

0101101
*
Ed
 1e-07 1 1 0
1  80 0 -2 2.5
4 C0 14 0 40 0
0

0101000
+335 0 -337 0 *
Ve
1e-07
2.25 5 12
0 0

0101101
*
Ed
 1e-07 1 1 0
1  81 0 -2.47487373415292 1.4142135623731
4 C0 14 0 41 0
0

0101000
+333 0 -335 0 *
Ve
1e-07
-2.25 5 12
0 0

0101101
*
Ed
 1e-07 1 1 0
1  82 0 -3.25 1.25
4 C0 14 0 42 0
0

0101000
+331 0 -333 0 *
Ve
1e-07
-5 2.25 12
0 0

0101101
*
Ed
 1e-07 1 1 0
1  83 0 -2.82842712474619 1.06066017177982
4 C0 14 0 43 0
0

0101000
+329 0 -331 0 *
Ed
 1e-07 1 1 0
1  84 0 -0.8125 1.4375
4 C0 14 0 39 0
0

0101000
+360 0 -329 0 *
Ed
 1e-07 1 1 0
1  85 0 -5.5 -0.5
4 C0 14 0 36 0
0

0101000
+384 0 -362 0 *
Wi

0101100
-383 0 -336 0 -334 0 -332 0 -330 0 -328 0 -327 0 -359 0 -326 0 *
Fa
0  1e-07 14 0

0111000
+338 0 +325 0 *
Wi

0101100
-381 0 +326 0 -361 0 +350 0 *
Fa
0  1e-07 36 0

0111000
+323 0 *
Ve
1e-07
5 -2.25 0
0 0

0101101
*
Ed
 1e-07 1 1 0
1  86 0 0 3.88908729652601
4 C0 35 0 22 0
0

0101000
+321 0 -388 0 *
Ed
 1e-07 1 1 0
1  87 0 0 12
4 C0 35 0 40 0
0

0101000
+321 0 -337 0 *
Wi

0101100
+336 0 -385 0 -320 0 +319 0 *
Fa
0  1e-07 35 0

0111000
+318 0 *
Ve
1e-07
5 2.25 0
0 0

0101101
*
Ed
 1e-07 1 1 0
1  88 0 0 4.5
4 C0 40 0 22 0
0

0101000
+316 0 -321 0 *
Ed
 1e-07 1 1 0
1  89 0 0 12
4 C0 40 0 41 0
0

0101000
+316 0 -335 0 *
Wi

0101100
+334 0 -319 0 -315 0 +314 0 *
Fa
0  1e-07 40 0

0111000
+313 0 *
Ed
 1e-07 1 1 0
1  90 0 25.2 37.4
4 C0 29 0 30 0
0

0101000
+343 0 -412 0 *
Wi

0101100
+411 0 -395 0 +341 0 +311 0 *
Fa
0  1e-07 29 0

0111000
+310 0 *
Ve
1e-07
2.25 5 0
0 0

0101101
*
Ed
 1e-07 1 1 0
1  91 0 0 3.88908729652601
4 C0 41 0 22 0
0

0101000
+316 0 -308 0 *
Ed
 1e-07 1 1 0
1  92 0 0 12
4 C0 41 0 42 0
0

0101000
+308 0 -333 0 *
Wi

0101100
+332 0 -314 0 +307 0 +306 0 *
Fa
0  1e-07 41 0

0111000
+305 0 *
Ed
 1e-07 1 1 0
1  93 0 25.2 37.4
4 C0 30 0 31 0
0

0101000
+345 0 -410 0 *
Wi

0101100
+409 0 -311 0 +342 0 +303 0 *
Fa
0  1e-07 30 0

0111000
+302 0 *
Ve
1e-07
-2.25 5 0
0 0

0101101
*
Ed
 1e-07 1 1 0
1  94 0 0 4.5
4 C0 42 0 22 0
0

0101000
+300 0 -308 0 *
Ed
 1e-07 1 1 0
1  95 0 0 12
4 C0 42 0 43 0
0

0101000
+300 0 -331 0 *
Wi

0101100
+330 0 -306 0 -299 0 +298 0 *
Fa
0  1e-07 42 0

0111000
+297 0 *
Ed
 1e-07 1 1 0
1  96 0 25.2 37.4
4 C0 31 0 32 0
0

0101000
+347 0 -408 0 *
Wi

0101100
+407 0 -303 0 +344 0 +295 0 *
Fa
0  1e-07 31 0

0111000
+294 0 *
Ve
1e-07
-5 2.25 0
0 0

0101101
*
Ed
 1e-07 1 1 0
1  97 0 0 3.88908729652601
4 C0 43 0 22 0
0

0101000
+292 0 -300 0 *
Ed
 1e-07 1 1 0
1  98 0 0 12
4 C0 43 0 39 0
0

0101000
+292 0 -329 0 *
Wi

0101100
+328 0 -298 0 -291 0 +290 0 *
Fa
0  1e-07 43 0

0111000
+289 0 *
Ed
 1e-07 1 1 0
1  99 0 25.2 37.4
4 C0 32 0 33 0
0

0101000
+349 0 -406 0 *
Wi

0101100
+405 0 -295 0 +346 0 +287 0 *
Fa
0  1e-07 32 0

0111000
+286 0 *
Ed
 1e-07 1 1 0
1  100 0 0 2.25
4 C0 39 0 22 0
0

0101000
+292 0 -358 0 *
Wi

0101100
+327 0 -290 0 +284 0 +357 0 *
Fa
0  1e-07 39 0

0111000
+283 0 *
Wi

0101100
+403 0 -287 0 +348 0 +365 0 *
Fa
0  1e-07 33 0

0111000
+281 0 *
Ve
1e-07
-25 -3 0
0 0

0101101
*
Ed
 1e-07 1 1 0
1  101 0 0 4.24264068711929
4 C0 37 0 22 0
0

0101000
+279 0 -356 0 *
Ed
 1e-07 1 1 0
1  102 0 0 50
4 C0 37 0 38 0
0

0101000
+279 0 -375 0 *
Wi

0101100
+374 0 -354 0 -278 0 +277 0 *
Fa
0  1e-07 37 0

0111000
+276 0 *
Ve
1e-07
-8 -6 0
0 0

0101101
*
Ed
 1e-07 1 1 0
1  103 0 0 50
4 C0 34 0 6 0
0

0101000
+274 0 -371 0 *
Ed
 1e-07 1 1 0
1  104 0 0 1
4 C0 34 0 22 0
0

0101000
+274 0 -390 0 *
Wi

0101100
+369 0 -273 0 +272 0 +389 0 *
Fa
0  1e-07 34 0

0111000
+271 0 *
Wi

0101100
+445 0 +494 0 *
Wi

0101100
+436 0 +511 0 *
Ve
1e-07
-25 -6 0
0 0

0101101
*
Ed
 1e-07 1 1 0
1  105 0 0 50
4 C0 6 0 38 0
0

0101000
+267 0 -373 0 *
Ed
 1e-07 1 1 0
1  106 0 0 17
4 C0 6 0 22 0
0

0101000
+267 0 -274 0 *
Wi

0101100
+370 0 -266 0 +265 0 +273 0 *
Fa
0  1e-07 6 0

0111000
+269 0 +268 0 +264 0 *
Ed
 1e-07 1 1 0
1  107 0 0 3
4 C0 38 0 22 0
0

0101000
+279 0 -267 0 *
Wi

0101100
+372 0 -277 0 +262 0 +266 0 *
Fa
0  1e-07 38 0

0111000
+261 0 *
Wi

0101100
+467 0 +460 0 *
Wi

0101100
-262 0 +278 0 -355 0 -284 0 +291 0 +299 0 -307 0 +315 0 +320 0 -387 0 
-272 0 -265 0 *
Fa
0  1e-07 22 0

0111000
-259 0 -258 0 *
Sh

0101100
+516 0 +509 0 +499 0 +492 0 +482 0 +472 0 +462 0 +458 0 +454 0 +452 0 
+448 0 +446 0 +442 0 +439 0 +437 0 +433 0 +430 0 +428 0 +418 0 +400 0 
+393 0 +378 0 +367 0 +352 0 -339 0 +324 0 +322 0 +317 0 +312 0 +309 0 
+304 0 +301 0 +296 0 +293 0 +288 0 +285 0 +282 0 +280 0 +275 0 +270 0 
+263 0 +260 0 -257 0 *
So

0100000
+256 0 *
Ve
1e-07
17.45875 -15 40
0 0

0101101
*
Ve
1e-07
18 -14.45875 40
0 0

0101101
*
Ed
 1e-07 1 1 0
1  108 0 -0.382721545317221 0.382721545317217
2  57 44 0 -0.382721545317221 0.382721545317217
2  58 45 0 -0.382721545317221 0.382721545317217
4 CN 44 0 45 0
0

0101000
+254 0 -253 0 *
Ve
1e-07
12.54125 -15 40
0 0

0101101
*
Ed
 1e-07 1 1 0
1  109 0 0 3.14159265358979
2  59 44 0 0 3.14159265358979
4 C0 44 0 46 0
0

0101000
+254 0 -251 0 *
Ve
1e-07
12 -14.45875 40
0 0

0101101
*
Ed
 1e-07 1 1 0
1  110 0 -0.382721545317219 0.382721545317219
2  60 44 0 -0.382721545317219 0.382721545317219
2  61 45 0 -0.382721545317219 0.382721545317219
4 CN 44 0 45 0
0

0101000
+249 0 -251 0 *
Ed
 1e-07 1 1 0
1  111 0 0 3.14159265358979
2  62 44 0 0 3.14159265358979
2  63 47 0 0 3.14159265358979
4 C0 44 0 47 0
0

0101000
+253 0 -249 0 *
Wi

0101100
-252 0 +250 0 -248 0 -247 0 *
Fa
0  1e-07 44 0

0111000
+246 0 *
Ve
1e-07
18 -6 40
0 0

0101101
*
Ed
 1e-07 1 1 0
1  112 0 -5.45875 3
2  64 47 0 -5.45875 3
2  65 48 0 -5.45875 3
4 CN 47 0 48 0
0

0101000
+253 0 -244 0 *
Ve
1e-07
12 -6 40
0 0

0101101
*
Ed
 1e-07 1 1 0
1  113 0 -3 5.45875
2  66 47 0 -3 5.45875
2  67 48 0 -3 5.45875
4 CN 47 0 48 0
0

0101000
+242 0 -249 0 *
Ed
 1e-07 1 1 0
1  114 0 0 3.14159265358979
2  68 47 0 0 3.14159265358979
4 C0 47 0 49 0
0

0101000
+244 0 -242 0 *
Wi

0101100
-243 0 +247 0 -241 0 -240 0 *
Fa
0  1e-07 47 0

0111000
+239 0 *
Ve
1e-07
17.45875 -15 10
0 0

0101101
*
Ve
1e-07
18 -14.45875 10
0 0

0101101
*
Ed
 1e-07 1 1 0
1  115 0 -0.382721545317221 0.382721545317217
2  69 50 0 -0.382721545317221 0.382721545317217
2  70 51 0 -0.382721545317221 0.382721545317217
4 CN 50 0 51 0
0

0101000
+237 0 -236 0 *
Ve
1e-07
12.54125 -15 10
0 0

0101101
*
Ed
 1e-07 1 1 0
1  116 0 0 3.14159265358979
2  71 50 0 0 3.14159265358979
4 C0 50 0 52 0
0

0101000
+237 0 -234 0 *
Ve
1e-07
12 -14.45875 10
0 0

0101101
*
Ed
 1e-07 1 1 0
1  117 0 -0.382721545317219 0.382721545317219
2  72 50 0 -0.382721545317219 0.382721545317219
2  73 51 0 -0.382721545317219 0.382721545317219
4 CN 50 0 51 0
0

0101000
+232 0 -234 0 *
Ed
 1e-07 1 1 0
1  118 0 0 3.14159265358979
2  74 50 0 0 3.14159265358979
2  75 53 0 0 3.14159265358979
4 C0 50 0 53 0
0

0101000
+236 0 -232 0 *
Wi

0101100
-235 0 +233 0 -231 0 -230 0 *
Fa
0  1e-07 50 0

0111000
+229 0 *
Ve
1e-07
18 -6 10
0 0

0101101
*
Ed
 1e-07 1 1 0
1  119 0 -5.45875 3
2  76 53 0 -5.45875 3
2  77 54 0 -5.45875 3
4 CN 53 0 54 0
0

0101000
+236 0 -227 0 *
Ve
1e-07
12 -6 10
0 0

0101101
*
Ed
 1e-07 1 1 0
1  120 0 -3 5.45875
2  78 53 0 -3 5.45875
2  79 54 0 -3 5.45875
4 CN 53 0 54 0
0

0101000
+225 0 -232 0 *
Ed
 1e-07 1 1 0
1  121 0 0 3.14159265358979
2  80 53 0 0 3.14159265358979
4 C0 53 0 49 0
0

0101000
+227 0 -225 0 *
Wi

0101100
-226 0 +230 0 -224 0 -223 0 *
Fa
0  1e-07 53 0

0111000
+222 0 *
Ve
1e-07
3 -3.67381906146713e-16 12.6
0 0

0101101
*
Ve
1e-07
-3 -3.67381906146713e-16 12.6
0 0

0101101
*
Ed
 1e-07 1 1 0
1  122 0 0 3.14159265358979
2  81 55 0 0 3.14159265358979
4 C0 55 0 56 0
0

0101000
+220 0 -219 0 *
Ve
1e-07
-3 3.67381906146713e-16 24.8
0 0

0101101
*
Ed
 1e-07 1 1 0
1  123 0 -7.9 4.3
2  82 55 0 -7.9 4.3
2  83 57 0 -7.9 4.3
4 CN 55 0 57 0
0

0101000
+219 0 -217 0 *
Ve
1e-07
3 -3.67381906146713e-16 24.8
0 0

0101101
*
Ed
 1e-07 1 1 0
1  124 0 3.14159265358979 6.28318530717959
2  84 55 0 3.14159265358979 6.28318530717959
4 C0 55 0 58 0
0

0101000
+217 0 -215 0 *
Ed
 1e-07 1 1 0
1  125 0 -4.3 7.9
2  85 55 0 -4.3 7.9
2  86 57 0 -4.3 7.9
4 CN 55 0 57 0
0

0101000
+215 0 -220 0 *
Wi

0101100
+218 0 +216 0 +214 0 +213 0 *
Fa
0  1e-07 55 0

0111000
+212 0 *
Ve
1e-07
3 -3.67381906146713e-16 38
0 0

0101101
*
Ve
1e-07
-3 -3.67381906146713e-16 38
0 0

0101101
*
Ed
 1e-07 1 1 0
1  126 0 0 3.14159265358979
2  87 59 0 0 3.14159265358979
4 C0 59 0 60 0
0

0101000
+210 0 -209 0 *
Ve
1e-07
-3 3.67381906146713e-16 50
0 0

0101101
*
Ed
 1e-07 1 1 0
1  127 0 -6 6
2  88 59 0 -6 6
2  89 61 0 -6 6
4 CN 59 0 61 0
0

0101000
+209 0 -207 0 *
Ve
1e-07
3 -3.67381906146713e-16 50
0 0

0101101
*
Ed
 1e-07 1 1 0
1  128 0 3.14159265358979 6.28318530717959
2  90 59 0 3.14159265358979 6.28318530717959
4 C0 59 0 62 0
0

0101000
+207 0 -205 0 *
Ed
 1e-07 1 1 0
1  129 0 -6 6
2  91 59 0 -6 6
2  92 61 0 -6 6
4 CN 59 0 61 0
0

0101000
+205 0 -210 0 *
Wi

0101100
+208 0 +206 0 +204 0 +203 0 *
Fa
0  1e-07 59 0

0111000
+202 0 *
Ed
 1e-07 1 1 0
1  130 0 0 3.14159265358979
2  93 61 0 0 3.14159265358979
4 C0 61 0 62 0
0

0101000
+205 0 -207 0 *
Ed
 1e-07 1 1 0
1  131 0 3.14159265358979 6.28318530717959
2  94 61 0 3.14159265358979 6.28318530717959
4 C0 61 0 60 0
0

0101000
+209 0 -210 0 *
Wi

0101100
+200 0 -206 0 +199 0 -203 0 *
Fa
0  1e-07 61 0

0111000
+198 0 *
Ed
 1e-07 1 1 0
1  132 0 0 3.14159265358979
2  95 57 0 0 3.14159265358979
4 C0 57 0 58 0
0

0101000
+215 0 -217 0 *
Ed
 1e-07 1 1 0
1  133 0 3.14159265358979 6.28318530717959
2  96 57 0 3.14159265358979 6.28318530717959
4 C0 57 0 56 0
0

0101000
+219 0 -220 0 *
Wi

0101100
+196 0 -216 0 +195 0 -213 0 *
Fa
0  1e-07 57 0

0111000
+194 0 *
Ed
 1e-07 1 1 0
1  134 0 3.14159265358979 6.28318530717959
2  97 54 0 3.14159265358979 6.28318530717959
4 C0 54 0 49 0
0

0101000
+225 0 -227 0 *
Ed
 1e-07 1 1 0
1  135 0 3.14159265358979 6.28318530717959
2  98 54 0 3.14159265358979 6.28318530717959
2  99 51 0 3.14159265358979 6.28318530717959
4 C0 54 0 51 0
0

0101000
+232 0 -236 0 *
Wi

0101100
+226 0 -192 0 +224 0 +191 0 *
Fa
0  1e-07 54 0

0111000
+190 0 *
Ed
 1e-07 1 1 0
1  136 0 3.14159265358979 6.28318530717959
2  100 51 0 3.14159265358979 6.28318530717959
4 C0 51 0 52 0
0

0101000
+234 0 -237 0 *
Wi

0101100
+235 0 -191 0 +231 0 +188 0 *
Fa
0  1e-07 51 0

0111000
+187 0 *
Wi

0101100
-233 0 -188 0 *
Fa
0  1e-07 52 0

0111000
+185 0 *
Ed
 1e-07 1 1 0
1  137 0 3.14159265358979 6.28318530717959
2  101 48 0 3.14159265358979 6.28318530717959
4 C0 48 0 49 0
0

0101000
+242 0 -244 0 *
Ed
 1e-07 1 1 0
1  138 0 3.14159265358979 6.28318530717959
2  102 48 0 3.14159265358979 6.28318530717959
2  103 45 0 3.14159265358979 6.28318530717959
4 C0 48 0 45 0
0

0101000
+249 0 -253 0 *
Wi

0101100
+243 0 -183 0 +241 0 +182 0 *
Fa
0  1e-07 48 0

0111000
+181 0 *
Ed
 1e-07 1 1 0
1  139 0 3.14159265358979 6.28318530717959
2  104 45 0 3.14159265358979 6.28318530717959
4 C0 45 0 46 0
0

0101000
+251 0 -254 0 *
Wi

0101100
+252 0 -182 0 +248 0 +179 0 *
Fa
0  1e-07 45 0

0111000
+178 0 *
Wi

0101100
-250 0 -179 0 *
Fa
0  1e-07 46 0

0111000
+176 0 *
Ve
1e-07
5.5 -5 12.6
0 0

0101101
*
Ve
1e-07
5.5 -5 0
0 0

0101101
*
Ed
 1e-07 1 1 0
1  140 0 14.95 27.55
4 C0 63 0 64 0
0

0101000
+174 0 -173 0 *
Ve
1e-07
5.5 0 12.6
0 0

0101101
*
Ed
 1e-07 1 1 0
1  141 0 -5.5 -0.5
4 C0 63 0 56 0
0

0101000
+174 0 -171 0 *
Ve
1e-07
5.5 0 0
0 0

0101101
*
Ed
 1e-07 1 1 0
1  142 0 -27.55 -14.95
4 C0 63 0 65 0
0

0101000
+169 0 -171 0 *
Ed
 1e-07 1 1 0
1  143 0 -4.32515614783545 0.674843852164548
4 C0 63 0 66 0
0

0101000
+173 0 -169 0 *
Wi

0101100
-172 0 +170 0 -168 0 -167 0 *
Fa
0  1e-07 63 0

0111000
+166 0 *
Wi

0101100
+195 0 +218 0 *
Ve
1e-07
-2.25 -5 12.6
0 0

0101101
*
Ed
 1e-07 1 1 0
1  144 0 -2.6875 5.0625
4 C0 56 0 64 0
0

0101000
+163 0 -174 0 *
Ve
1e-07
-5 -2.25 12.6
0 0

0101101
*
Ed
 1e-07 1 1 0
1  145 0 -1.06066017177982 2.82842712474619
4 C0 56 0 67 0
0

0101000
+161 0 -163 0 *
Ve
1e-07
-5 2.25 12.6
0 0

0101101
*
Ed
 1e-07 1 1 0
1  146 0 -2 2.5
4 C0 56 0 68 0
0

0101000
+159 0 -161 0 *
Ve
1e-07
-2.25 5 12.6
0 0

0101101
*
Ed
 1e-07 1 1 0
1  147 0 -2.47487373415292 1.4142135623731
4 C0 56 0 69 0
0

0101000
+157 0 -159 0 *
Ve
1e-07
2.25 5 12.6
0 0

0101101
*
Ed
 1e-07 1 1 0
1  148 0 -3.25 1.25
4 C0 56 0 70 0
0

0101000
+155 0 -157 0 *
Ve
1e-07
5 2.25 12.6
0 0

0101101
*
Ed
 1e-07 1 1 0
1  149 0 -2.82842712474619 1.06066017177982
4 C0 56 0 71 0
0

0101000
+153 0 -155 0 *
Ve
1e-07
5 0 12.6
0 0

0101101
*
Ed
 1e-07 1 1 0
1  150 0 -0.8125 1.4375
4 C0 56 0 72 0
0

0101000
+151 0 -153 0 *
Ed
 1e-07 1 1 0
1  151 0 0.25 0.75
4 C0 56 0 65 0
0

0101000
+171 0 -151 0 *
Wi

0101100
-162 0 -160 0 -158 0 -156 0 -154 0 -152 0 -150 0 -149 0 -170 0 *
Fa
0  1e-07 56 0

0111000
+164 0 +148 0 *
Ve
1e-07
-2.25 -5 24.8
0 0

0101101
*
Ed
 1e-07 1 1 0
1  152 0 25.2 37.4
4 C0 67 0 64 0
0

0101000
+146 0 -163 0 *
Ve
1e-07
-5 -2.25 24.8
0 0

0101101
*
Ed
 1e-07 1 1 0
1  153 0 -2.82842712474619 1.06066017177982
4 C0 67 0 58 0
0

0101000
+146 0 -144 0 *
Ed
 1e-07 1 1 0
1  154 0 25.2 37.4
4 C0 67 0 68 0
0

0101000
+144 0 -161 0 *
Wi

0101100
+160 0 -145 0 +143 0 +142 0 *
Fa
0  1e-07 67 0

0111000
+141 0 *
Ve
1e-07
8 -5 0
0 0

0101101
*
Ed
 1e-07 1 1 0
1  155 0 -2.5 0
4 C0 64 0 66 0
0

0101000
+173 0 -139 0 *
Ve
1e-07
8 -5 50
0 0

0101101
*
Ed
 1e-07 1 1 0
1  156 0 0 50
4 C0 64 0 73 0
0

0101000
+137 0 -139 0 *
Ve
1e-07
-2.25 -5 50
0 0

0101101
*
Ed
 1e-07 1 1 0
1  157 0 0 10.25
4 C0 64 0 62 0
0

0101000
+137 0 -135 0 *
Ve
1e-07
-2.25 -5 38
0 0

0101101
*
Ed
 1e-07 1 1 0
1  158 0 0 12
4 C0 64 0 74 0
0

0101000
+135 0 -133 0 *
Ve
1e-07
5.5 -5 38
0 0

0101101
*
Ed
 1e-07 1 1 0
1  159 0 -2.6875 5.0625
4 C0 64 0 60 0
0

0101000
+133 0 -131 0 *
Ve
1e-07
5.5 -5 24.8
0 0

0101101
*
Ed
 1e-07 1 1 0
1  160 0 2.7 15.9
4 C0 64 0 75 0
0

0101000
+131 0 -129 0 *
Ed
 1e-07 1 1 0
1  161 0 -5.0625 2.6875
4 C0 64 0 58 0
0

0101000
+129 0 -146 0 *
Wi

0101100
+162 0 +172 0 +138 0 -136 0 +134 0 +132 0 +130 0 +128 0 +127 0 +145 0 
*
Fa
0  1e-07 64 0

0111000
+126 0 *
Ve
1e-07
22 0 0
0 0

0101101
*
Ed
 1e-07 1 1 0
1  162 0 -17 -0.5
4 C0 66 0 65 0
0

0101000
+124 0 -169 0 *
Ve
1e-07
25 -3 0
0 0

0101101
*
Ed
 1e-07 1 1 0
1  163 0 0 4.24264068711929
4 C0 66 0 76 0
0

0101000
+122 0 -124 0 *
Ve
1e-07
25 -6 0
0 0

0101101
*
Ed
 1e-07 1 1 0
1  164 0 -3 0
4 C0 66 0 77 0
0

0101000
+120 0 -122 0 *
Ve
1e-07
8 -6 0
0 0

0101101
*
Ed
 1e-07 1 1 0
1  165 0 -17 0
4 C0 66 0 49 0
0

0101000
+118 0 -120 0 *
Ed
 1e-07 1 1 0
1  166 0 -1 0
4 C0 66 0 73 0
0

0101000
+139 0 -118 0 *
Wi

0101100
+167 0 -123 0 -121 0 -119 0 -117 0 -116 0 -138 0 *
Fa
0  1e-07 66 0

0111000
+115 0 *
Ve
1e-07
5 0 24.8
0 0

0101101
*
Ed
 1e-07 1 1 0
1  167 0 25.2 37.4
4 C0 65 0 72 0
0

0101000
+113 0 -151 0 *
Ve
1e-07
5.5 0 24.8
0 0

0101101
*
Ed
 1e-07 1 1 0
1  168 0 -0.75 -0.25
4 C0 65 0 58 0
0

0101000
+113 0 -111 0 *
Ve
1e-07
5.5 0 38
0 0

0101101
*
Ed
 1e-07 1 1 0
1  169 0 -15.9 -2.7
4 C0 65 0 75 0
0

0101000
+111 0 -109 0 *
Ve
1e-07
5 0 38
0 0

0101101
*
Ed
 1e-07 1 1 0
1  170 0 0.25 0.75
4 C0 65 0 60 0
0

0101000
+109 0 -107 0 *
Ve
1e-07
5 0 50
0 0

0101101
*
Ed
 1e-07 1 1 0
1  171 0 0 12
4 C0 65 0 78 0
0

0101000
+105 0 -107 0 *
Ve
1e-07
22 0 50
0 0

0101101
*
Ed
 1e-07 1 1 0
1  172 0 0 17
4 C0 65 0 62 0
0

0101000
+105 0 -103 0 *
Ed
 1e-07 1 1 0
1  173 0 0 50
4 C0 65 0 76 0
0

0101000
+103 0 -124 0 *
Wi

0101100
+168 0 +149 0 -112 0 +110 0 +108 0 +106 0 -104 0 +102 0 +101 0 +123 0 
*
Fa
0  1e-07 65 0

0111000
+100 0 *
Wi

0101100
+214 0 +196 0 *
Ed
 1e-07 1 1 0
1  174 0 0.5 5.5
4 C0 58 0 75 0
0

0101000
+111 0 -129 0 *
Ve
1e-07
5 2.25 24.8
0 0

0101101
*
Ed
 1e-07 1 1 0
1  175 0 -1.4375 0.8125
4 C0 58 0 72 0
0

0101000
+96 0 -113 0 *
Ve
1e-07
2.25 5 24.8
0 0

0101101
*
Ed
 1e-07 1 1 0
1  176 0 -1.06066017177982 2.82842712474619
4 C0 58 0 71 0
0

0101000
+94 0 -96 0 *
Ve
1e-07
-2.25 5 24.8
0 0

0101101
*
Ed
 1e-07 1 1 0
1  177 0 -1.25 3.25
4 C0 58 0 70 0
0

0101000
+92 0 -94 0 *
Ve
1e-07
-5 2.25 24.8
0 0

0101101
*
Ed
 1e-07 1 1 0
1  178 0 -1.4142135623731 2.47487373415292
4 C0 58 0 69 0
0

0101000
+90 0 -92 0 *
Ed
 1e-07 1 1 0
1  179 0 -2.5 2
4 C0 58 0 68 0
0

0101000
+144 0 -90 0 *
Wi

0101100
-127 0 -97 0 -110 0 -95 0 -93 0 -91 0 -89 0 -88 0 -143 0 *
Fa
0  1e-07 58 0

0111000
-98 0 -87 0 *
Wi

0101100
+199 0 +208 0 *
Ve
1e-07
-5 -2.25 38
0 0

0101101
*
Ed
 1e-07 1 1 0
1  180 0 -1.06066017177982 2.82842712474619
4 C0 60 0 74 0
0

0101000
+84 0 -133 0 *
Ve
1e-07
-5 2.25 38
0 0

0101101
*
Ed
 1e-07 1 1 0
1  181 0 -2 2.5
4 C0 60 0 79 0
0

0101000
+82 0 -84 0 *
Ve
1e-07
-2.25 5 38
0 0

0101101
*
Ed
 1e-07 1 1 0
1  182 0 -2.47487373415292 1.4142135623731
4 C0 60 0 80 0
0

0101000
+80 0 -82 0 *
Ve
1e-07
2.25 5 38
0 0

0101101
*
Ed
 1e-07 1 1 0
1  183 0 -3.25 1.25
4 C0 60 0 81 0
0

0101000
+78 0 -80 0 *
Ve
1e-07
5 2.25 38
0 0

0101101
*
Ed
 1e-07 1 1 0
1  184 0 -2.82842712474619 1.06066017177982
4 C0 60 0 82 0
0

0101000
+76 0 -78 0 *
Ed
 1e-07 1 1 0
1  185 0 -0.8125 1.4375
4 C0 60 0 78 0
0

0101000
+107 0 -76 0 *
Ed
 1e-07 1 1 0
1  186 0 -5.5 -0.5
4 C0 60 0 75 0
0

0101000
+131 0 -109 0 *
Wi

0101100
-130 0 -83 0 -81 0 -79 0 -77 0 -75 0 -74 0 -106 0 -73 0 *
Fa
0  1e-07 60 0

0111000
+85 0 +72 0 *
Wi

0101100
-128 0 +73 0 -108 0 +97 0 *
Fa
0  1e-07 75 0

0111000
+70 0 *
Ve
1e-07
-5 -2.25 50
0 0

0101101
*
Ed
 1e-07 1 1 0
1  187 0 0 3.88908729652601
4 C0 74 0 62 0
0

0101000
+68 0 -135 0 *
Ed
 1e-07 1 1 0
1  188 0 0 12
4 C0 74 0 79 0
0

0101000
+68 0 -84 0 *
Wi

0101100
+83 0 -132 0 -67 0 +66 0 *
Fa
0  1e-07 74 0

0111000
+65 0 *
Ve
1e-07
-5 2.25 50
0 0

0101101
*
Ed
 1e-07 1 1 0
1  189 0 0 4.5
4 C0 79 0 62 0
0

0101000
+63 0 -68 0 *
Ed
 1e-07 1 1 0
1  190 0 0 12
4 C0 79 0 80 0
0

0101000
+63 0 -82 0 *
Wi

0101100
+81 0 -66 0 -62 0 +61 0 *
Fa
0  1e-07 79 0

0111000
+60 0 *
Ed
 1e-07 1 1 0
1  191 0 25.2 37.4
4 C0 68 0 69 0
0

0101000
+90 0 -159 0 *
Wi

0101100
+158 0 -142 0 +88 0 +58 0 *
Fa
0  1e-07 68 0

0111000
+57 0 *
Ve
1e-07
-2.25 5 50
0 0

0101101
*
Ed
 1e-07 1 1 0
1  192 0 0 3.88908729652601
4 C0 80 0 62 0
0

0101000
+63 0 -55 0 *
Ed
 1e-07 1 1 0
1  193 0 0 12
4 C0 80 0 81 0
0

0101000
+55 0 -80 0 *
Wi

0101100
+79 0 -61 0 +54 0 +53 0 *
Fa
0  1e-07 80 0

0111000
+52 0 *
Ed
 1e-07 1 1 0
1  194 0 25.2 37.4
4 C0 69 0 70 0
0

0101000
+92 0 -157 0 *
Wi

0101100
+156 0 -58 0 +89 0 +50 0 *
Fa
0  1e-07 69 0

0111000
+49 0 *
Ve
1e-07
2.25 5 50
0 0

0101101
*
Ed
 1e-07 1 1 0
1  195 0 0 4.5
4 C0 81 0 62 0
0

0101000
+47 0 -55 0 *
Ed
 1e-07 1 1 0
1  196 0 0 12
4 C0 81 0 82 0
0

0101000
+47 0 -78 0 *
Wi

0101100
+77 0 -53 0 -46 0 +45 0 *
Fa
0  1e-07 81 0

0111000
+44 0 *
Ed
 1e-07 1 1 0
1  197 0 25.2 37.4
4 C0 70 0 71 0
0

0101000
+94 0 -155 0 *
Wi

0101100
+154 0 -50 0 +91 0 +42 0 *
Fa
0  1e-07 70 0

0111000
+41 0 *
Ve
1e-07
5 2.25 50
0 0

0101101
*
Ed
 1e-07 1 1 0
1  198 0 0 3.88908729652601
4 C0 82 0 62 0
0

0101000
+39 0 -47 0 *
Ed
 1e-07 1 1 0
1  199 0 0 12
4 C0 82 0 78 0
0

0101000
+39 0 -76 0 *
Wi

0101100
+75 0 -45 0 -38 0 +37 0 *
Fa
0  1e-07 82 0

0111000
+36 0 *
Ed
 1e-07 1 1 0
1  200 0 25.2 37.4
4 C0 71 0 72 0
0

0101000
+96 0 -153 0 *
Wi

0101100
+152 0 -42 0 +93 0 +34 0 *
Fa
0  1e-07 71 0

0111000
+33 0 *
Ed
 1e-07 1 1 0
1  201 0 0 2.25
4 C0 78 0 62 0
0

0101000
+39 0 -105 0 *
Wi

0101100
+74 0 -37 0 +31 0 +104 0 *
Fa
0  1e-07 78 0

0111000
+30 0 *
Wi

0101100
+150 0 -34 0 +95 0 +112 0 *
Fa
0  1e-07 72 0

0111000
+28 0 *
Ve
1e-07
25 -3 50
0 0

0101101
*
Ed
 1e-07 1 1 0
1  202 0 0 4.24264068711929
4 C0 76 0 62 0
0

0101000
+26 0 -103 0 *
Ed
 1e-07 1 1 0
1  203 0 0 50
4 C0 76 0 77 0
0

0101000
+26 0 -122 0 *
Wi

0101100
+121 0 -101 0 -25 0 +24 0 *
Fa
0  1e-07 76 0

0111000
+23 0 *
Ve
1e-07
8 -6 50
0 0

0101101
*
Ed
 1e-07 1 1 0
1  204 0 0 50
4 C0 73 0 49 0
0

0101000
+21 0 -118 0 *
Ed
 1e-07 1 1 0
1  205 0 0 1
4 C0 73 0 62 0
0

0101000
+21 0 -137 0 *
Wi

0101100
+116 0 -20 0 +19 0 +136 0 *
Fa
0  1e-07 73 0

0111000
+18 0 *
Wi

0101100
+192 0 +223 0 *
Wi

0101100
+183 0 +240 0 *
Ve
1e-07
25 -6 50
0 0

0101101
*
Ed
 1e-07 1 1 0
1  206 0 0 50
4 C0 49 0 77 0
0

0101000
+14 0 -120 0 *
Ed
 1e-07 1 1 0
1  207 0 0 17
4 C0 49 0 62 0
0

0101000
+14 0 -21 0 *
Wi

0101100
+117 0 -13 0 +12 0 +20 0 *
Fa
0  1e-07 49 0

0111000
+16 0 +15 0 +11 0 *
Ed
 1e-07 1 1 0
1  208 0 0 3
4 C0 77 0 62 0
0

0101000
+26 0 -14 0 *
Wi

0101100
+119 0 -24 0 +9 0 +13 0 *
Fa
0  1e-07 77 0

0111000
+8 0 *
Wi

0101100
+204 0 +200 0 *
Wi

0101100
-9 0 +25 0 -102 0 -31 0 +38 0 +46 0 -54 0 +62 0 +67 0 -134 0 
-19 0 -12 0 *
Fa
0  1e-07 62 0

0111000
-6 0 -5 0 *
Sh

0101100
+245 0 +238 0 +228 0 +221 0 -211 0 -201 0 -197 0 -193 0 +189 0 +186 0 
+184 0 +180 0 +177 0 +175 0 +165 0 +147 0 +140 0 +125 0 +114 0 +99 0 
-86 0 +71 0 +69 0 +64 0 +59 0 +56 0 +51 0 +48 0 +43 0 +40 0 
+35 0 +32 0 +29 0 +27 0 +22 0 +17 0 +10 0 +7 0 -4 0 *
So

0100000
+3 0 *
Co

1100000
+255 0 +2 0 *

+1 0 