DBRep_DrawableShape

CASCADE Topology V1, (c) Matra-Datavision
Locations 0
Curve2ds 120
1 0 -9.4368957093138306e-16 0 1 
1 6.2831853071795862 -9.4368957093138306e-16 0 1 
1 0 -0.47840193164652273 1 4.0640420929811603e-16 
1 3.1415926535897931 -8.8817841970012523e-16 0 -1 
1 3.1415926535897931 -8.8817841970012523e-16 0 -1 
1 0 0.47840193164652339 1 4.0640420929811603e-16 
1 0 -7.3234375000000025 1 0 
1 0 -1.7763568394002505e-15 0 1 
1 6.2831853071795862 -1.7763568394002505e-15 0 1 
1 3.1415926535897931 0 0 -1 
1 3.1415926535897931 0 0 -1 
1 0 5.1999999999999993 1 0 
1 0 -9.4368957093138306e-16 0 1 
1 6.2831853071795862 -9.4368957093138306e-16 0 1 
1 0 -0.47840193164652273 1 4.0640420929811603e-16 
1 3.1415926535897931 -8.8817841970012523e-16 0 -1 
1 3.1415926535897931 -8.8817841970012523e-16 0 -1 
1 0 0.47840193164652339 1 4.0640420929811603e-16 
1 0 -7.3234375000000025 1 0 
1 0 -1.7763568394002505e-15 0 1 
1 6.2831853071795862 -1.7763568394002505e-15 0 1 
1 3.1415926535897931 0 0 -1 
1 3.1415926535897931 0 0 -1 
1 0 5.1999999999999993 1 0 
1 0 4.5 1 0 
1 3.1415926535897931 12 0 1 
1 3.1415926535897931 12 0 1 
1 6.2831853071795862 19.5 -1 0 
1 0 12 0 -1 
1 6.2831853071795862 12 0 -1 
1 0 -25.5 1 0 
1 3.1415926535897931 -18 0 1 
1 3.1415926535897931 -18 0 1 
1 6.2831853071795862 -10.5 -1 0 
1 0 -18 0 -1 
1 6.2831853071795862 -18 0 -1 
1 6.2831853071795862 -10.5 -1 0 
1 0 -25.5 1 0 
1 6.2831853071795862 19.5 -1 0 
1 0 4.5 1 0 
1 0 5.1999999999999993 1 0 
1 0 -7.3234375000000025 1 0 
1 0 0.47840193164652595 1 -4.0640420929811603e-16 
1 0 -0.47840193164652017 1 -4.0640420929811603e-16 
1 0 5.1999999999999993 1 0 
1 0 -7.3234375000000025 1 0 
1 0 0.47840193164652595 1 -4.0640420929811603e-16 
1 0 -0.47840193164652017 1 -4.0640420929811603e-16 
1 6.2831853071795862 45 -1 0 
1 3.1415926535897931 0 0 1 
1 0 30 1 0 
1 4.7123889803846906 0 0 1 
1 6.2831853071795862 15 -1 0 
1 3.1415926535897931 0 0 1 
1 0 0 1 0 
1 4.7123889803846906 0 0 1 
1 0 -9.4368957093138306e-16 0 1 
1 6.2831853071795862 -9.4368957093138306e-16 0 1 
1 0 -0.478401931646524 1 0 
1 3.1415926535897931 -8.8817841970012523e-16 0 -1 
1 3.1415926535897931 -8.8817841970012523e-16 0 -1 
1 0 0.47840193164652467 1 0 
1 0 -7.3234375000000007 1 0 
1 0 0 0 1 
1 6.2831853071795862 0 0 1 
1 3.1415926535897931 1.7763568394002505e-15 0 -1 
1 3.1415926535897931 1.7763568394002505e-15 0 -1 
1 0 5.1999999999999993 1 5.6543194337129189e-16 
1 0 -9.4368957093138306e-16 0 1 
1 6.2831853071795862 -9.4368957093138306e-16 0 1 
1 0 -0.478401931646524 1 0 
1 3.1415926535897931 -8.8817841970012523e-16 0 -1 
1 3.1415926535897931 -8.8817841970012523e-16 0 -1 
1 0 0.47840193164652467 1 0 
1 0 -7.3234375000000007 1 0 
1 0 0 0 1 
1 6.2831853071795862 0 0 1 
1 3.1415926535897931 1.7763568394002505e-15 0 -1 
1 3.1415926535897931 1.7763568394002505e-15 0 -1 
1 0 5.1999999999999993 1 5.6543194337129189e-16 
1 0 -21.75 0 1 
1 6.2831853071795862 -21.75 0 1 
1 0 -29 1 0 
1 3.1415926535897931 -21.75 0 -1 
1 3.1415926535897931 -21.75 0 -1 
1 0 -14.5 1 0 
1 0 0 0 1 
1 6.2831853071795862 0 0 1 
1 6.2831853071795862 -1.25 -1 0 
1 3.1415926535897931 0 0 -1 
1 3.1415926535897931 0 0 -1 
1 0 1.25 1 0 
1 0 8 0 1 
1 6.2831853071795862 8 0 1 
1 6.2831853071795862 0.5 -1 0 
1 3.1415926535897931 8 0 -1 
1 3.1415926535897931 8 0 -1 
1 0 15.5 1 0 
1 0 15.5 1 0 
1 6.2831853071795862 0.5 -1 0 
1 6.2831853071795862 -1.25 -1 0 
1 0 -29 1 0 
1 0 1.25 1 0 
1 0 -14.5 1 0 
1 0 5.2000000000000028 1 -5.6543194337129189e-16 
1 0 -7.3234375000000007 1 0 
1 0 0.47840193164652467 1 0 
1 0 -0.478401931646524 1 0 
1 0 5.2000000000000028 1 -5.6543194337129189e-16 
1 0 -7.3234375000000007 1 0 
1 0 0.47840193164652467 1 0 
1 0 -0.478401931646524 1 0 
1 6.2831853071795862 30 -1 0 
1 0 45 1 0 
1 6.2831853071795862 0 0 1 
1 4.7123889803846897 0 0 1 
1 0 15 1 0 
1 6.2831853071795862 0 0 1 
1 6.2831853071795862 60 -1 0 
1 4.7123889803846897 0 0 1 
Curves 202
1 15.58828125 -21.361718750000001 12 -0.70710678118654802 0.70710678118654702 0 
2 19.25 -21.699999999999999 12 6.12303176911189e-17 1 0 -1 6.12303176911189e-17 0 0 -0 1 3.3234374999999998
1 22.911718749999999 -21.361718750000001 12 -0.70710678118654802 -0.70710678118654702 -0 
2 19.25 -21.0234375 12 6.12303176911189e-17 1 0 -1 6.12303176911189e-17 0 0 -0 1 4
1 15.25 -13.699999999999999 12 6.12303176911189e-17 1 0 
1 23.25 -13.699999999999999 12 -6.12303176911189e-17 -1 -0 
2 19.25 -8.5 12 0 1 -0 -1 0 0 0 0 1 4
1 15.58828125 -21.361718750000001 48 -0.70710678118654802 0.70710678118654702 0 
2 19.25 -21.699999999999999 48 6.12303176911189e-17 1 0 -1 6.12303176911189e-17 0 0 -0 1 3.3234374999999998
1 22.911718749999999 -21.361718750000001 48 -0.70710678118654802 -0.70710678118654702 -0 
2 19.25 -21.0234375 48 6.12303176911189e-17 1 0 -1 6.12303176911189e-17 0 0 -0 1 4
1 15.25 -13.699999999999999 48 6.12303176911189e-17 1 0 
1 23.25 -13.699999999999999 48 -6.12303176911189e-17 -1 -0 
2 19.25 -8.5 48 0 1 -0 -1 0 0 0 0 1 4
2 0 0 30 0 0 1 1 0 -0 -0 1 0 4
1 -4 4.89842541528951e-16 37.5 -0 0 1 
2 0 0 45 0 0 -1 1 0 0 0 -1 0 4
1 4 -4.89842541528951e-16 37.5 -0 0 -1 
2 0 0 0 0 0 1 1 0 -0 -0 1 0 4
1 -4 4.89842541528951e-16 7.5 -0 0 1 
2 0 0 15 0 0 -1 1 0 0 0 -1 0 4
1 4 -4.89842541528951e-16 7.5 -0 0 -1 
2 0 0 15 0 0 -1 1 0 0 0 -1 0 4
2 0 0 0 0 0 1 1 0 -0 -0 1 0 4
2 0 0 45 0 0 -1 1 0 0 0 -1 0 4
2 0 0 30 0 0 1 1 0 -0 -0 1 0 4
2 19.25 -8.5 48 0 1 -0 -1 0 0 0 0 1 4
2 19.25 -21.0234375 48 6.12303176911189e-17 1 0 -1 6.12303176911189e-17 0 0 -0 1 4
2 19.25 -21.699999999999999 48 6.12303176911189e-17 1 0 -1 6.12303176911189e-17 0 0 -0 1 3.3234374999999998
2 19.25 -8.5 12 0 1 -0 -1 0 0 0 0 1 4
2 19.25 -21.0234375 12 6.12303176911189e-17 1 0 -1 6.12303176911189e-17 0 0 -0 1 4
2 19.25 -21.699999999999999 12 6.12303176911189e-17 1 0 -1 6.12303176911189e-17 0 0 -0 1 3.3234374999999998
1 1.75 -7 45 -1 9.8686491077791699e-17 0 
1 9 0 45 0 -1 0 
1 7.8499999999999996 -2.7632217501781501e-17 45 1 -7.8949192862233394e-17 0 
1 7.5000000000000098 0.9375 45 0 -1 0 
1 5.3125000000000098 5.9375 45 0.70710678118654702 -0.70710678118654802 0 
1 -0.5 7.75 45 1 5.0753052554292799e-16 -0 
1 -5.8125 5.4374999999999902 45 0.70710678118654702 0.70710678118654802 -0 
1 -7.5 1.0625 45 0 1 -0 
2 0 0.499999999999999 45 0 0 -1 1 0 0 0 -1 0 7.5
1 9 -8.5 0 0 0 1 
1 9 -8.5 60 0 1 0 
1 9 -1.1842378929335e-16 27.5 0 0 1 
1 9 -7 0 0 0 1 
1 9 0 30 0 1 0 
1 9 -1.1842378929335e-16 11.25 0 0 1 
1 9 0 15 0 -1 0 
1 9 -7 0 0 0 1 
1 9 -8.5 0 0 1 0 
1 -7.5 0.5 0 0 0 1 
2 0 0.499999999999999 30 0 0 1 1 0 -0 -0 1 0 7.5
1 5.2836559997007601e-15 -7 0 0 0 1 
1 -7.4999999999999902 3.75 0 0 0 1 
1 -7.5 1.0625 30 0 -1 0 
1 -3.5 7.7499999999999902 0 0 0 1 
1 -5.8125 5.4374999999999902 30 -0.70710678118654702 -0.70710678118654802 0 
1 3.5000000000000102 7.75 0 0 0 1 
1 -0.5 7.75 30 -1 -5.0753052554292799e-16 0 
1 7.5000000000000098 3.75 0 0 0 1 
1 5.3125000000000098 5.9375 30 -0.70710678118654702 0.70710678118654802 0 
1 7.8499999999999996 -2.7632217501781501e-17 30 -1 7.8949192862233394e-17 0 
1 1.75 -7 30 1 -9.8686491077791699e-17 0 
1 7.5000000000000098 0.9375 30 0 1 0 
1 7.8499999999999996 -2.7632217501781501e-17 15 1 -7.8949192862233394e-17 0 
1 7.5000000000000098 0.9375 15 0 -1 0 
1 5.3125000000000098 5.9375 15 0.70710678118654702 -0.70710678118654802 0 
1 -0.5 7.75 15 1 5.0753052554292799e-16 -0 
1 -5.8125 5.4374999999999902 15 0.70710678118654702 0.70710678118654802 -0 
1 -7.5 1.0625 15 0 1 -0 
2 0 0.499999999999999 15 0 0 -1 1 0 0 0 -1 0 7.5
1 1.75 -7 15 -1 9.8686491077791699e-17 0 
1 7.5000000000000098 0 0 0 0 1 
1 7.5000000000000098 0 0 0 1 0 
1 7.5000000000000098 3.75 0 0 0 1 
1 7.5000000000000098 0 0 0 0 1 
1 7.5000000000000098 3.75 0 -0.70710678118654702 0.70710678118654802 0 
1 3.5000000000000102 7.75 0 0 0 1 
1 3.5000000000000102 7.75 0 -1 -5.0753052554292799e-16 0 
1 -3.5 7.7499999999999902 0 0 0 1 
1 -3.5 7.7499999999999902 0 -0.70710678118654702 -0.70710678118654802 0 
1 -7.4999999999999902 3.75 0 0 0 1 
1 -7.5 3.7499999999999898 0 0 -1 0 
1 -7.5 0.5 0 0 0 1 
2 0 0.499999999999999 0 0 0 1 1 0 -0 -0 1 0 7.5
1 5.2836559997007601e-15 -7 0 0 0 1 
1 9 -7 0 -1 9.8686491077791699e-17 0 
1 25.899999999999999 -1.4526651486650901e-15 60 1 -7.8949192862233394e-17 0 
1 25.899999999999999 -1.7763568394002501e-15 0 0 0 1 
1 25.899999999999999 -1.4526651486650901e-15 0 -1 7.8949192862233394e-17 0 
1 30 -4.0999999999999996 60 0.70710678118654702 -0.70710678118654802 0 
1 30 -4.0999999999999996 0 0 0 1 
1 30 -4.0999999999999996 0 -0.70710678118654702 0.70710678118654802 0 
1 30 -4.0999999999999996 60 0 -1 0 
1 30 -8.5 0 0 0 1 
1 30 -4.0999999999999996 0 0 -1 0 
1 30 -8.5 60 -1 0 0 
1 30 -8.5 0 -1 0 0 
1 -47.911718749999999 -21.361718750000001 12 -0.70710678118654802 0.70710678118654702 0 
2 -44.25 -21.699999999999999 12 6.12303176911189e-17 1 0 -1 6.12303176911189e-17 0 0 -0 1 3.3234374999999998
1 -40.588281250000001 -21.361718750000001 12 -0.70710678118654802 -0.70710678118654702 -0 
2 -44.25 -21.0234375 12 6.12303176911189e-17 1 0 -1 6.12303176911189e-17 0 0 -0 1 4
1 -48.25 -13.699999999999999 12 6.12303176911189e-17 1 0 
1 -40.25 -13.699999999999999 12 -6.12303176911189e-17 -1 -0 
2 -44.25 -8.5 12 0 1 -0 -1 0 0 0 0 1 4
1 -47.911718749999999 -21.361718750000001 48 -0.70710678118654802 0.70710678118654702 0 
2 -44.25 -21.699999999999999 48 6.12303176911189e-17 1 0 -1 6.12303176911189e-17 0 0 -0 1 3.3234374999999998
1 -40.588281250000001 -21.361718750000001 48 -0.70710678118654802 -0.70710678118654702 -0 
2 -44.25 -21.0234375 48 6.12303176911189e-17 1 0 -1 6.12303176911189e-17 0 0 -0 1 4
1 -48.25 -13.699999999999999 48 6.12303176911189e-17 1 0 
1 -40.25 -13.699999999999999 48 -6.12303176911189e-17 -1 -0 
2 -44.25 -8.5 48 0 1 -0 -1 0 0 0 0 1 4
1 4 -4.89842541528951e-16 7.75 0 0 1 
2 0 0 0.5 0 0 1 1 0 -0 -0 1 0 4
1 -4 4.89842541528951e-16 7.75 -0 -0 -1 
2 0 0 15 0 0 1 1 0 -0 -0 1 0 4
1 6 7.3476381229342596e-16 -0.75 0 0 -1 
2 0 0 0.5 0 0 1 1 0 -0 -0 1 0 6
1 -6 -7.3476381229342596e-16 -0.75 -0 -0 1 
2 0 0 -2 0 0 -1 1 0 0 0 -1 0 6
1 4 -4.89842541528951e-16 37.5 0 0 1 
2 0 0 30 0 0 -1 1 0 0 0 -1 0 4
1 -4 4.89842541528951e-16 37.5 -0 -0 -1 
2 0 0 45 0 0 1 1 0 -0 -0 1 0 4
2 0 0 45 0 0 1 1 0 -0 -0 1 0 4
2 0 0 30 0 0 -1 1 0 0 0 -1 0 4
2 0 0 0.5 0 0 1 1 0 -0 -0 1 0 6
2 0 0 0.5 0 0 1 1 0 -0 -0 1 0 4
2 0 0 -2 0 0 -1 1 0 0 0 -1 0 6
2 0 0 15 0 0 1 1 0 -0 -0 1 0 4
2 -44.25 -8.5 48 0 1 -0 -1 0 0 0 0 1 4
2 -44.25 -21.0234375 48 6.12303176911189e-17 1 0 -1 6.12303176911189e-17 0 0 -0 1 4
2 -44.25 -21.699999999999999 48 6.12303176911189e-17 1 0 -1 6.12303176911189e-17 0 0 -0 1 3.3234374999999998
2 -44.25 -8.5 12 0 1 -0 -1 0 0 0 0 1 4
2 -44.25 -21.0234375 12 6.12303176911189e-17 1 0 -1 6.12303176911189e-17 0 0 -0 1 4
2 -44.25 -21.699999999999999 12 6.12303176911189e-17 1 0 -1 6.12303176911189e-17 0 0 -0 1 3.3234374999999998
1 -15.35 1.5407489588832899e-15 30 1 3.0013742741014298e-17 -0 
1 -9 0 30 0 1 0 
1 -1.75 -7 30 -1 -9.8686491077791699e-17 0 
2 -3.5527136788005001e-15 0.500000000000001 30 0 0 -1 1 0 0 0 -1 0 7.5
1 7.5 1.0625 30 -8.1985700280011604e-16 -1 0 
1 5.8125 5.4375 30 0.70710678118654702 -0.70710678118654802 0 
1 0.5 7.75 30 1 -5.0753052554292799e-16 0 
1 -5.3125000000000098 5.9375 30 0.70710678118654702 0.70710678118654802 -0 
1 -7.5000000000000098 0.9375 30 0 1 -0 
1 -15.35 1.5407489588832899e-15 45 -1 -3.0013742741014298e-17 0 
1 -7.5000000000000098 0.9375 45 0 -1 0 
1 -5.3125000000000098 5.9375 45 -0.70710678118654702 -0.70710678118654802 0 
1 0.5 7.75 45 -1 5.0753052554292799e-16 0 
1 5.8125 5.4375 45 -0.70710678118654702 0.70710678118654802 0 
1 7.5 1.0625 45 8.1985700280011604e-16 1 -0 
2 -3.5527136788005001e-15 0.500000000000001 45 0 0 1 1 0 -0 -0 1 0 7.5
1 -1.75 -7 45 1 9.8686491077791699e-17 -0 
1 -9 0 45 0 -1 0 
1 -9 1.7313362252887299e-15 18.75 0 0 -1 
1 -7.5000000000000098 1.7763568394002501e-15 0 0 0 1 
1 -15.35 1.5407489588832899e-15 15 -1 -3.0013742741014298e-17 0 
1 -9 1.7313362252887299e-15 3.5 0 0 -1 
1 -55.899999999999999 3.23691690735158e-16 0 1 3.0013742741014298e-17 0 
1 -55.899999999999999 0 0 0 0 1 
1 -55.899999999999999 3.23691690735158e-16 60 1 3.0013742741014298e-17 0 
1 -7.5000000000000098 1.7763568394002501e-15 0 0 0 1 
1 -7.5000000000000098 3.75 0 0 0 1 
1 -7.5000000000000098 0.9375 15 0 -1 0 
1 -3.5000000000000102 7.75 0 0 0 1 
1 -5.3125000000000098 5.9375 15 -0.70710678118654702 -0.70710678118654802 0 
1 3.5 7.75 0 0 0 1 
1 0.5 7.75 15 -1 5.0753052554292799e-16 0 
1 7.4999999999999902 3.75 0 0 0 1 
1 5.8125 5.4375 15 -0.70710678118654702 0.70710678118654802 0 
1 7.5 0.49999999999999301 0 0 0 1 
1 7.5 1.0625 15 8.1985700280011604e-16 1 -0 
1 -3.0934862961171099e-15 -7 0 0 0 1 
2 -3.5527136788005001e-15 0.500000000000001 15 0 0 1 1 0 -0 -0 1 0 7.5
1 -9 -7 0 0 0 1 
1 -1.75 -7 15 1 9.8686491077791699e-17 -0 
1 -9 0 15 0 -1 0 
1 7.4999999999999902 3.75 0 0 0 1 
1 7.5 3.7499999999999898 60 -8.1985700280011604e-16 -1 0 
1 7.5 0.49999999999999301 0 0 0 1 
1 -9 -8.5 0 0 0 1 
1 -9 -1.4747705021367801 0 0 -1 0 
1 -9 -7 0 0 0 1 
1 -9 -8.5 60 -0 -1 -0 
1 3.5 7.75 0 0 0 1 
1 3.5 7.75 60 0.70710678118654702 -0.70710678118654802 0 
1 -3.5000000000000102 7.75 0 0 0 1 
1 -3.5000000000000102 7.75 60 1 -5.0753052554292799e-16 0 
1 -7.5000000000000098 3.75 0 0 0 1 
1 -7.5000000000000098 3.75 60 0.70710678118654702 0.70710678118654802 0 
1 -7.5000000000000098 1.7763568394002501e-15 60 0 1 0 
1 -60 -4.0999999999999996 60 0.70710678118654802 0.70710678118654702 0 
1 -60 -4.0999999999999996 0 0.70710678118654802 0.70710678118654702 0 
1 -60 -4.0999999999999996 0 0 0 1 
2 -3.5527136788005001e-15 0.500000000000001 60 0 0 -1 1 0 0 0 -1 0 7.5
1 -3.0934862961171099e-15 -7 0 0 0 1 
1 -9 -7 60 -1 -9.8686491077791699e-17 -0 
1 -60 -8.5 60 -1 -0 -0 
1 -60 -8.5 0 0 0 1 
1 -60 -8.5 0 1 0 0 
1 -60 -4.0999999999999996 60 0 1 0 
1 -60 -4.0999999999999996 0 0 -1 0 
Polygon3D 0
PolygonOnTriangulations 0
Surfaces 80
3 19.25 -21.361718750000001 12 6.12303176911189e-17 1 -0 -1 6.12303176911189e-17 0 0 0 1 3.6617187499999999
0.78539816339744795
3 19.25 -21.361718750000001 12 6.12303176911189e-17 1 -0 -1 6.12303176911189e-17 0 0 0 1 3.6617187499999999
0.78539816339744795
1 17.588281250000001 -21.699999999999999 12 -6.12303176911189e-17 -1 0 1 -6.12303176911189e-17 0 0 0 1 
2 19.25 -13.699999999999999 12 6.12303176911189e-17 1 0 -1 6.12303176911189e-17 0 0 -0 1 4
2 19.25 -13.699999999999999 12 6.12303176911189e-17 1 0 -1 6.12303176911189e-17 0 0 -0 1 4
1 19.5 -8.5 0 0 -1 0 1 0 0 -0 0 1 
3 19.25 -21.361718750000001 48 6.12303176911189e-17 1 -0 -1 6.12303176911189e-17 0 0 0 1 3.6617187499999999
0.78539816339744795
3 19.25 -21.361718750000001 48 6.12303176911189e-17 1 -0 -1 6.12303176911189e-17 0 0 0 1 3.6617187499999999
0.78539816339744795
1 17.588281250000001 -21.699999999999999 48 -6.12303176911189e-17 -1 0 1 -6.12303176911189e-17 0 0 0 1 
2 19.25 -13.699999999999999 48 6.12303176911189e-17 1 0 -1 6.12303176911189e-17 0 0 -0 1 4
2 19.25 -13.699999999999999 48 6.12303176911189e-17 1 0 -1 6.12303176911189e-17 0 0 -0 1 4
2 0 0 25.5 0 0 1 1 0 -0 -0 1 0 4
1 -1 0 30 0 0 1 1 0 -0 -0 1 0 
2 0 0 25.5 0 0 1 1 0 -0 -0 1 0 4
1 -1 0 45 0 0 1 1 0 -0 -0 1 0 
2 0 0 25.5 0 0 1 1 0 -0 -0 1 0 4
1 10.4281670508982 -2.1467303633719399 0 0 0 1 1 0 -0 -0 1 0 
2 0 0 25.5 0 0 1 1 0 -0 -0 1 0 4
1 -1 0 15 0 0 1 1 0 -0 -0 1 0 
1 4.5 -7 0 -9.8686491077791699e-17 -1 0 1 -9.8686491077791699e-17 -0 0 0 1 
1 9 -7.75 0 -1 -0 0 0 -1 -0 0 0 1 
1 16.699999999999999 -7.26332574332547e-16 0 7.8949192862233394e-17 1 -0 -1 7.8949192862233394e-17 0 0 0 1 
1 7.5000000000000098 1.875 0 1 0 0 -0 1 0 0 -0 1 
1 5.5000000000000098 5.75 0 0.70710678118654802 0.70710678118654702 -0 -0.70710678118654702 0.70710678118654802 0 0 0 1 
1 3.5527136788005001e-15 7.75 0 -5.0753052554292799e-16 1 0 -1 -5.0753052554292799e-16 0 0 0 1 
1 -5.5 5.75 0 -0.70710678118654802 0.70710678118654702 0 -0.70710678118654702 -0.70710678118654802 0 0 0 1 
1 -7.5 2.125 0 -1 0 0 0 -1 0 0 0 1 
2 0 0.499999999999999 0 0 0 1 1 0 -0 -0 1 0 7.5
1 10.4281670508982 -2.1467303633719399 60 0 0 1 1 0 -0 -0 1 0 
1 4.5 -7 0 -9.8686491077791699e-17 -1 0 1 -9.8686491077791699e-17 -0 0 0 1 
1 7.5000000000000098 1.875 0 1 0 0 -0 1 0 0 -0 1 
1 5.5000000000000098 5.75 0 0.70710678118654802 0.70710678118654702 -0 -0.70710678118654702 0.70710678118654802 0 0 0 1 
1 3.5527136788005001e-15 7.75 0 -5.0753052554292799e-16 1 0 -1 -5.0753052554292799e-16 0 0 0 1 
1 -5.5 5.75 0 -0.70710678118654802 0.70710678118654702 0 -0.70710678118654702 -0.70710678118654802 0 0 0 1 
1 -7.5 2.125 0 -1 0 0 0 -1 0 0 0 1 
2 0 0.499999999999999 0 0 0 1 1 0 -0 -0 1 0 7.5
1 27.949999999999999 -2.0499999999999998 0 0.70710678118654802 0.70710678118654702 -0 -0.70710678118654702 0.70710678118654802 0 0 0 1 
1 30 -6.2999999999999998 0 1 0 -0 0 1 0 0 -0 1 
3 -44.25 -21.361718750000001 12 6.12303176911189e-17 1 -0 -1 6.12303176911189e-17 0 0 0 1 3.6617187499999999
0.78539816339744795
3 -44.25 -21.361718750000001 12 6.12303176911189e-17 1 -0 -1 6.12303176911189e-17 0 0 0 1 3.6617187499999999
0.78539816339744795
1 -45.911718749999999 -21.699999999999999 12 -6.12303176911189e-17 -1 0 1 -6.12303176911189e-17 0 0 0 1 
2 -44.25 -13.699999999999999 12 6.12303176911189e-17 1 0 -1 6.12303176911189e-17 0 0 -0 1 4
2 -44.25 -13.699999999999999 12 6.12303176911189e-17 1 0 -1 6.12303176911189e-17 0 0 -0 1 4
1 -34.5 -8.5 0 0 -1 0 1 0 0 -0 0 1 
3 -44.25 -21.361718750000001 48 6.12303176911189e-17 1 -0 -1 6.12303176911189e-17 0 0 0 1 3.6617187499999999
0.78539816339744795
3 -44.25 -21.361718750000001 48 6.12303176911189e-17 1 -0 -1 6.12303176911189e-17 0 0 0 1 3.6617187499999999
0.78539816339744795
1 -45.911718749999999 -21.699999999999999 48 -6.12303176911189e-17 -1 0 1 -6.12303176911189e-17 0 0 0 1 
2 -44.25 -13.699999999999999 48 6.12303176911189e-17 1 0 -1 6.12303176911189e-17 0 0 -0 1 4
2 -44.25 -13.699999999999999 48 6.12303176911189e-17 1 0 -1 6.12303176911189e-17 0 0 -0 1 4
2 0 0 29.5 0 0 1 1 0 -0 -0 1 0 4
2 0 0 29.5 0 0 1 1 0 -0 -0 1 0 4
1 0 0 0.5 0 0 1 -1 0 0 0 -1 0 
1 1 0 15 0 0 1 1 0 -0 -0 1 0 
2 0 0 -0.75 0 0 -1 1 0 0 0 -1 0 6
2 0 0 -0.75 0 0 -1 1 0 0 0 -1 0 6
1 0 0 -2 0 0 -1 1 0 0 0 -1 0 
2 0 0 29.5 0 0 1 1 0 -0 -0 1 0 4
2 0 0 29.5 0 0 1 1 0 -0 -0 1 0 4
1 1 0 30 0 0 1 1 0 -0 -0 1 0 
1 1 0 45 0 0 1 1 0 -0 -0 1 0 
1 -31.699999999999999 1.0500242650676999e-15 0 -3.0013742741014298e-17 1 0 -1 -3.0013742741014298e-17 -0 0 -0 1 
1 -9 -7.75 0 1 0 0 -0 1 0 0 -0 1 
1 -4.5 -7 0 9.8686491077791699e-17 -1 0 1 9.8686491077791699e-17 0 -0 0 1 
2 -3.5527136788005001e-15 0.500000000000001 0 0 0 1 1 0 -0 -0 1 0 7.5
1 7.5 2.125 0 1 -8.1985700280011604e-16 0 8.1985700280011604e-16 1 0 -0 0 1 
1 5.5 5.75 0 0.70710678118654802 0.70710678118654702 -0 -0.70710678118654702 0.70710678118654802 0 0 0 1 
1 -3.5527136788005001e-15 7.75 0 5.0753052554292799e-16 1 -0 -1 5.0753052554292799e-16 0 0 0 1 
1 -5.5000000000000098 5.75 0 -0.70710678118654802 0.70710678118654702 0 -0.70710678118654702 -0.70710678118654802 -0 0 -0 1 
1 -7.5000000000000098 1.875 0 -1 -0 0 0 -1 -0 0 0 1 
1 -7.5000000000000098 1.875 0 -1 -0 0 0 -1 -0 0 0 1 
1 -5.5000000000000098 5.75 0 -0.70710678118654802 0.70710678118654702 0 -0.70710678118654702 -0.70710678118654802 -0 0 -0 1 
1 -3.5527136788005001e-15 7.75 0 5.0753052554292799e-16 1 -0 -1 5.0753052554292799e-16 0 0 0 1 
1 5.5 5.75 0 0.70710678118654802 0.70710678118654702 -0 -0.70710678118654702 0.70710678118654802 0 0 0 1 
1 7.5 2.125 0 1 -8.1985700280011604e-16 0 8.1985700280011604e-16 1 0 -0 0 1 
2 -3.5527136788005001e-15 0.500000000000001 0 0 0 1 1 0 -0 -0 1 0 7.5
1 -4.5 -7 0 9.8686491077791699e-17 -1 0 1 9.8686491077791699e-17 0 -0 0 1 
1 -24.7879595923567 -2.9495410042735699 0 0 0 1 1 0 -0 -0 1 0 
1 -57.950000000000003 -2.0499999999999998 0 -0.70710678118654702 0.70710678118654802 0 -0.70710678118654802 -0.70710678118654702 -0 0 -0 1 
1 -24.7879595923567 -2.9495410042735699 60 0 0 1 1 0 -0 -0 1 0 
1 -60 -6.2999999999999998 0 -1 0 0 0 -1 0 0 0 1 
Triangulations 0

TShapes 511
Ve
1e-07
15.9265625 -21.7 12
0 0

0101101
*
Ve
1e-07
15.25 -21.0234375 12
0 0

0101101
*
Ed
 1e-07 1 1 0
1  1 0 -0.478401931646522 0.478401931646524
2  1 1 0 -0.478401931646522 0.478401931646524
2  2 2 0 -0.478401931646522 0.478401931646524
4 CN 1 0 2 0
0

0101000
+511 0 -510 0 *
Ve
1e-07
22.5734375 -21.7 12
0 0

0101101
*
Ed
 1e-07 1 1 0
1  2 0 0 3.14159265358979
2  3 1 0 0 3.14159265358979
4 C0 1 0 3 0
0

0101000
+511 0 -508 0 *
Ve
1e-07
23.25 -21.0234375 12
0 0

0101101
*
Ed
 1e-07 1 1 0
1  3 0 -0.478401931646526 0.478401931646521
2  4 1 0 -0.478401931646526 0.478401931646521
2  5 2 0 -0.478401931646526 0.478401931646521
4 CN 1 0 2 0
0

0101000
+506 0 -508 0 *
Ed
 1e-07 1 1 0
1  4 0 0 3.14159265358979
2  6 1 0 0 3.14159265358979
2  7 4 0 0 3.14159265358979
4 C0 1 0 4 0
0

0101000
+510 0 -506 0 *
Wi

0101100
-509 0 +507 0 -505 0 -504 0 *
Fa
0  1e-07 1 0

0111000
+503 0 *
Ve
1e-07
15.25 -8.5 12
0 0

0101101
*
Ed
 1e-07 1 1 0
1  5 0 -7.3234375 5.2
2  8 4 0 -7.3234375 5.2
2  9 5 0 -7.3234375 5.2
4 CN 4 0 5 0
0

0101000
+510 0 -501 0 *
Ve
1e-07
23.25 -8.5 12
0 0

0101101
*
Ed
 1e-07 1 1 0
1  6 0 -5.2 7.3234375
2  10 4 0 -5.2 7.3234375
2  11 5 0 -5.2 7.3234375
4 CN 4 0 5 0
0

0101000
+499 0 -506 0 *
Ed
 1e-07 1 1 0
1  7 0 0 3.14159265358979
2  12 4 0 0 3.14159265358979
4 C0 4 0 6 0
0

0101000
+501 0 -499 0 *
Wi

0101100
-500 0 +504 0 -498 0 -497 0 *
Fa
0  1e-07 4 0

0111000
+496 0 *
Ve
1e-07
15.9265625 -21.7 48
0 0

0101101
*
Ve
1e-07
15.25 -21.0234375 48
0 0

0101101
*
Ed
 1e-07 1 1 0
1  8 0 -0.478401931646522 0.478401931646524
2  13 7 0 -0.478401931646522 0.478401931646524
2  14 8 0 -0.478401931646522 0.478401931646524
4 CN 7 0 8 0
0

0101000
+494 0 -493 0 *
Ve
1e-07
22.5734375 -21.7 48
0 0

0101101
*
Ed
 1e-07 1 1 0
1  9 0 0 3.14159265358979
2  15 7 0 0 3.14159265358979
4 C0 7 0 9 0
0

0101000
+494 0 -491 0 *
Ve
1e-07
23.25 -21.0234375 48
0 0

0101101
*
Ed
 1e-07 1 1 0
1  10 0 -0.478401931646526 0.478401931646521
2  16 7 0 -0.478401931646526 0.478401931646521
2  17 8 0 -0.478401931646526 0.478401931646521
4 CN 7 0 8 0
0

0101000
+489 0 -491 0 *
Ed
 1e-07 1 1 0
1  11 0 0 3.14159265358979
2  18 7 0 0 3.14159265358979
2  19 10 0 0 3.14159265358979
4 C0 7 0 10 0
0

0101000
+493 0 -489 0 *
Wi

0101100
-492 0 +490 0 -488 0 -487 0 *
Fa
0  1e-07 7 0

0111000
+486 0 *
Ve
1e-07
15.25 -8.5 48
0 0

0101101
*
Ed
 1e-07 1 1 0
1  12 0 -7.3234375 5.2
2  20 10 0 -7.3234375 5.2
2  21 11 0 -7.3234375 5.2
4 CN 10 0 11 0
0

0101000
+493 0 -484 0 *
Ve
1e-07
23.25 -8.5 48
0 0

0101101
*
Ed
 1e-07 1 1 0
1  13 0 -5.2 7.3234375
2  22 10 0 -5.2 7.3234375
2  23 11 0 -5.2 7.3234375
4 CN 10 0 11 0
0

0101000
+482 0 -489 0 *
Ed
 1e-07 1 1 0
1  14 0 0 3.14159265358979
2  24 10 0 0 3.14159265358979
4 C0 10 0 6 0
0

0101000
+484 0 -482 0 *
Wi

0101100
-483 0 +487 0 -481 0 -480 0 *
Fa
0  1e-07 10 0

0111000
+479 0 *
Ve
1e-07
4 -4.89842541528951e-16 30
0 0

0101101
*
Ve
1e-07
-4 -4.89842541528951e-16 30
0 0

0101101
*
Ed
 1e-07 1 1 0
1  15 0 0 3.14159265358979
2  25 12 0 0 3.14159265358979
4 C0 12 0 13 0
0

0101000
+477 0 -476 0 *
Ve
1e-07
-4 4.89842541528951e-16 45
0 0

0101101
*
Ed
 1e-07 1 1 0
1  16 0 -7.5 7.5
2  26 12 0 -7.5 7.5
2  27 14 0 -7.5 7.5
4 CN 12 0 14 0
0

0101000
+476 0 -474 0 *
Ve
1e-07
4 -4.89842541528951e-16 45
0 0

0101101
*
Ed
 1e-07 1 1 0
1  17 0 3.14159265358979 6.28318530717959
2  28 12 0 3.14159265358979 6.28318530717959
4 C0 12 0 15 0
0

0101000
+474 0 -472 0 *
Ed
 1e-07 1 1 0
1  18 0 -7.5 7.5
2  29 12 0 -7.5 7.5
2  30 14 0 -7.5 7.5
4 CN 12 0 14 0
0

0101000
+472 0 -477 0 *
Wi

0101100
+475 0 +473 0 +471 0 +470 0 *
Fa
0  1e-07 12 0

0111000
+469 0 *
Ve
1e-07
4 -4.89842541528951e-16 0
0 0

0101101
*
Ve
1e-07
-4 -4.89842541528951e-16 0
0 0

0101101
*
Ed
 1e-07 1 1 0
1  19 0 0 3.14159265358979
2  31 16 0 0 3.14159265358979
4 C0 16 0 17 0
0

0101000
+467 0 -466 0 *
Ve
1e-07
-4 4.89842541528951e-16 15
0 0

0101101
*
Ed
 1e-07 1 1 0
1  20 0 -7.5 7.5
2  32 16 0 -7.5 7.5
2  33 18 0 -7.5 7.5
4 CN 16 0 18 0
0

0101000
+466 0 -464 0 *
Ve
1e-07
4 -4.89842541528951e-16 15
0 0

0101101
*
Ed
 1e-07 1 1 0
1  21 0 3.14159265358979 6.28318530717959
2  34 16 0 3.14159265358979 6.28318530717959
4 C0 16 0 19 0
0

0101000
+464 0 -462 0 *
Ed
 1e-07 1 1 0
1  22 0 -7.5 7.5
2  35 16 0 -7.5 7.5
2  36 18 0 -7.5 7.5
4 CN 16 0 18 0
0

0101000
+462 0 -467 0 *
Wi

0101100
+465 0 +463 0 +461 0 +460 0 *
Fa
0  1e-07 16 0

0111000
+459 0 *
Ed
 1e-07 1 1 0
1  23 0 0 3.14159265358979
2  37 18 0 0 3.14159265358979
4 C0 18 0 19 0
0

0101000
+462 0 -464 0 *
Ed
 1e-07 1 1 0
1  24 0 3.14159265358979 6.28318530717959
2  38 18 0 3.14159265358979 6.28318530717959
4 C0 18 0 17 0
0

0101000
+466 0 -467 0 *
Wi

0101100
+457 0 -463 0 +456 0 -460 0 *
Fa
0  1e-07 18 0

0111000
+455 0 *
Ed
 1e-07 1 1 0
1  25 0 0 3.14159265358979
2  39 14 0 0 3.14159265358979
4 C0 14 0 15 0
0

0101000
+472 0 -474 0 *
Ed
 1e-07 1 1 0
1  26 0 3.14159265358979 6.28318530717959
2  40 14 0 3.14159265358979 6.28318530717959
4 C0 14 0 13 0
0

0101000
+476 0 -477 0 *
Wi

0101100
+453 0 -473 0 +452 0 -470 0 *
Fa
0  1e-07 14 0

0111000
+451 0 *
Ed
 1e-07 1 1 0
1  27 0 3.14159265358979 6.28318530717959
2  41 11 0 3.14159265358979 6.28318530717959
4 C0 11 0 6 0
0

0101000
+482 0 -484 0 *
Ed
 1e-07 1 1 0
1  28 0 3.14159265358979 6.28318530717959
2  42 11 0 3.14159265358979 6.28318530717959
2  43 8 0 3.14159265358979 6.28318530717959
4 C0 11 0 8 0
0

0101000
+489 0 -493 0 *
Wi

0101100
+483 0 -449 0 +481 0 +448 0 *
Fa
0  1e-07 11 0

0111000
+447 0 *
Ed
 1e-07 1 1 0
1  29 0 3.14159265358979 6.28318530717959
2  44 8 0 3.14159265358979 6.28318530717959
4 C0 8 0 9 0
0

0101000
+491 0 -494 0 *
Wi

0101100
+492 0 -448 0 +488 0 +445 0 *
Fa
0  1e-07 8 0

0111000
+444 0 *
Wi

0101100
-490 0 -445 0 *
Fa
0  1e-07 9 0

0111000
+442 0 *
Ed
 1e-07 1 1 0
1  30 0 3.14159265358979 6.28318530717959
2  45 5 0 3.14159265358979 6.28318530717959
4 C0 5 0 6 0
0

0101000
+499 0 -501 0 *
Ed
 1e-07 1 1 0
1  31 0 3.14159265358979 6.28318530717959
2  46 5 0 3.14159265358979 6.28318530717959
2  47 2 0 3.14159265358979 6.28318530717959
4 C0 5 0 2 0
0

0101000
+506 0 -510 0 *
Wi

0101100
+500 0 -440 0 +498 0 +439 0 *
Fa
0  1e-07 5 0

0111000
+438 0 *
Ed
 1e-07 1 1 0
1  32 0 3.14159265358979 6.28318530717959
2  48 2 0 3.14159265358979 6.28318530717959
4 C0 2 0 3 0
0

0101000
+508 0 -511 0 *
Wi

0101100
+509 0 -439 0 +505 0 +436 0 *
Fa
0  1e-07 2 0

0111000
+435 0 *
Wi

0101100
-507 0 -436 0 *
Fa
0  1e-07 3 0

0111000
+433 0 *
Wi

0101100
+471 0 +453 0 *
Ve
1e-07
9 -7 45
0 0

0101101
*
Ve
1e-07
5.28365599970076e-15 -7 45
0 0

0101101
*
Ed
 1e-07 1 1 0
1  33 0 -7.25 1.74999999999999
4 C0 15 0 20 0
0

0101000
+430 0 -429 0 *
Ve
1e-07
9 -1.1842378929335e-16 45
0 0

0101101
*
Ed
 1e-07 1 1 0
1  34 0 1.1842378929335e-16 7
4 C0 15 0 21 0
0

0101000
+427 0 -430 0 *
Ve
1e-07
7.50000000000001 0 45
0 0

0101101
*
Ed
 1e-07 1 1 0
1  35 0 -0.34999999999999 1.15
4 C0 15 0 22 0
0

0101000
+425 0 -427 0 *
Ve
1e-07
7.50000000000001 3.75 45
0 0

0101101
*
Ed
 1e-07 1 1 0
1  36 0 -2.8125 0.9375
4 C0 15 0 23 0
0

0101000
+423 0 -425 0 *
Ve
1e-07
3.50000000000001 7.75 45
0 0

0101101
*
Ed
 1e-07 1 1 0
1  37 0 -2.56326208180123 3.09359216769115
4 C0 15 0 24 0
0

0101000
+421 0 -423 0 *
Ve
1e-07
-3.5 7.74999999999999 45
0 0

0101101
*
Ed
 1e-07 1 1 0
1  38 0 -3 4.00000000000001
4 C0 15 0 25 0
0

0101000
+419 0 -421 0 *
Ve
1e-07
-7.49999999999999 3.75 45
0 0

0101101
*
Ed
 1e-07 1 1 0
1  39 0 -2.38648538650458 3.27036886298778
4 C0 15 0 26 0
0

0101000
+417 0 -419 0 *
Ve
1e-07
-7.5 0.5 45
0 0

0101101
*
Ed
 1e-07 1 1 0
1  40 0 -0.5625 2.6875
4 C0 15 0 27 0
0

0101000
+415 0 -417 0 *
Ed
 1e-07 1 1 0
1  41 0 1.5707963267949 3.14159265358979
2  49 28 0 1.5707963267949 3.14159265358979
4 C0 15 0 28 0
0

0101000
+429 0 -415 0 *
Wi

0101100
-428 0 -426 0 -424 0 -422 0 -420 0 -418 0 -416 0 -414 0 -413 0 *
Fa
0  1e-07 15 0

0111000
+431 0 +412 0 *
Ve
1e-07
9 -8.5 0
0 0

0101101
*
Ve
1e-07
9 -8.5 60
0 0

0101101
*
Ed
 1e-07 1 1 0
1  42 0 0 60
4 C0 21 0 6 0
0

0101000
+410 0 -409 0 *
Ve
1e-07
9 -1.1842378929335e-16 60
0 0

0101101
*
Ed
 1e-07 1 1 0
1  43 0 0 8.5
4 C0 21 0 29 0
0

0101000
+409 0 -407 0 *
Ed
 1e-07 1 1 0
1  44 0 17.5 32.5
4 C0 21 0 22 0
0

0101000
+427 0 -407 0 *
Ve
1e-07
9 -7 30
0 0

0101101
*
Ed
 1e-07 1 1 0
1  45 0 30 45
4 C0 21 0 20 0
0

0101000
+404 0 -430 0 *
Ve
1e-07
9 -1.1842378929335e-16 30
0 0

0101101
*
Ed
 1e-07 1 1 0
1  46 0 -7 -1.1842378929335e-16
4 C0 21 0 13 0
0

0101000
+404 0 -402 0 *
Ve
1e-07
9 -1.1842378929335e-16 15
0 0

0101101
*
Ed
 1e-07 1 1 0
1  47 0 3.75 18.75
4 C0 21 0 22 0
0

0101000
+400 0 -402 0 *
Ve
1e-07
9 -7 15
0 0

0101101
*
Ed
 1e-07 1 1 0
1  48 0 1.1842378929335e-16 7
4 C0 21 0 19 0
0

0101000
+400 0 -398 0 *
Ve
1e-07
9 -7 0
0 0

0101101
*
Ed
 1e-07 1 1 0
1  49 0 0 15
4 C0 21 0 30 0
0

0101000
+396 0 -398 0 *
Ed
 1e-07 1 1 0
1  50 0 0 1.5
4 C0 21 0 17 0
0

0101000
+410 0 -396 0 *
Wi

0101100
+408 0 +406 0 -405 0 +426 0 -403 0 +401 0 -399 0 +397 0 -395 0 -394 0 
*
Fa
0  1e-07 21 0

0111000
+393 0 *
Ve
1e-07
-7.5 0.5 30
0 0

0101101
*
Ed
 1e-07 1 1 0
1  51 0 30 45
2  50 28 0 30 45
4 G1 28 0 27 0
0

0101000
+391 0 -415 0 *
Ve
1e-07
5.28365599970076e-15 -7 30
0 0

0101101
*
Ed
 1e-07 1 1 0
1  52 0 3.14159265358979 4.71238898038469
2  51 28 0 3.14159265358979 4.71238898038469
4 C0 28 0 13 0
0

0101000
+391 0 -389 0 *
Ed
 1e-07 1 1 0
1  53 0 30 45
2  52 28 0 30 45
4 G1 28 0 20 0
0

0101000
+389 0 -429 0 *
Wi

0101100
+413 0 -390 0 +388 0 +387 0 *
Fa
0  1e-07 28 0

0111000
+386 0 *
Ve
1e-07
-7.49999999999999 3.75 30
0 0

0101101
*
Ed
 1e-07 1 1 0
1  54 0 30 45
4 C0 27 0 26 0
0

0101000
+384 0 -417 0 *
Ed
 1e-07 1 1 0
1  55 0 -2.6875 0.5625
4 C0 27 0 13 0
0

0101000
+384 0 -391 0 *
Wi

0101100
+414 0 -383 0 +382 0 +390 0 *
Fa
0  1e-07 27 0

0111000
+381 0 *
Ve
1e-07
-3.5 7.74999999999999 30
0 0

0101101
*
Ed
 1e-07 1 1 0
1  56 0 30 45
4 C0 26 0 25 0
0

0101000
+379 0 -419 0 *
Ed
 1e-07 1 1 0
1  57 0 -3.27036886298778 2.38648538650458
4 C0 26 0 13 0
0

0101000
+379 0 -384 0 *
Wi

0101100
+416 0 -378 0 +377 0 +383 0 *
Fa
0  1e-07 26 0

0111000
+376 0 *
Ve
1e-07
3.50000000000001 7.75 30
0 0

0101101
*
Ed
 1e-07 1 1 0
1  58 0 30 45
4 C0 25 0 24 0
0

0101000
+374 0 -421 0 *
Ed
 1e-07 1 1 0
1  59 0 -4.00000000000001 3
4 C0 25 0 13 0
0

0101000
+374 0 -379 0 *
Wi

0101100
+418 0 -373 0 +372 0 +378 0 *
Fa
0  1e-07 25 0

0111000
+371 0 *
Ve
1e-07
7.50000000000001 3.75 30
0 0

0101101
*
Ed
 1e-07 1 1 0
1  60 0 30 45
4 C0 24 0 23 0
0

0101000
+369 0 -423 0 *
Ed
 1e-07 1 1 0
1  61 0 -3.09359216769115 2.56326208180123
4 C0 24 0 13 0
0

0101000
+369 0 -374 0 *
Wi

0101100
+420 0 -368 0 +367 0 +373 0 *
Fa
0  1e-07 24 0

0111000
+366 0 *
Wi

0101100
+452 0 +475 0 *
Ve
1e-07
7.50000000000001 0 30
0 0

0101101
*
Ed
 1e-07 1 1 0
1  62 0 -1.15 0.34999999999999
4 C0 13 0 22 0
0

0101000
+402 0 -363 0 *
Ed
 1e-07 1 1 0
1  63 0 -1.74999999999999 7.25
4 C0 13 0 20 0
0

0101000
+389 0 -404 0 *
Ed
 1e-07 1 1 0
1  64 0 -0.9375 2.8125
4 C0 13 0 23 0
0

0101000
+363 0 -369 0 *
Wi

0101100
-362 0 -401 0 -361 0 -388 0 -382 0 -377 0 -372 0 -367 0 -360 0 *
Fa
0  1e-07 13 0

0111000
-364 0 -359 0 *
Wi

0101100
+461 0 +457 0 *
Ve
1e-07
7.50000000000001 0 15
0 0

0101101
*
Ed
 1e-07 1 1 0
1  65 0 -0.34999999999999 1.15
4 C0 19 0 22 0
0

0101000
+356 0 -400 0 *
Ve
1e-07
7.50000000000001 3.75 15
0 0

0101101
*
Ed
 1e-07 1 1 0
1  66 0 -2.8125 0.9375
4 C0 19 0 31 0
0

0101000
+354 0 -356 0 *
Ve
1e-07
3.50000000000001 7.75 15
0 0

0101101
*
Ed
 1e-07 1 1 0
1  67 0 -2.56326208180123 3.09359216769115
4 C0 19 0 32 0
0

0101000
+352 0 -354 0 *
Ve
1e-07
-3.5 7.74999999999999 15
0 0

0101101
*
Ed
 1e-07 1 1 0
1  68 0 -3 4.00000000000001
4 C0 19 0 33 0
0

0101000
+350 0 -352 0 *
Ve
1e-07
-7.49999999999999 3.75 15
0 0

0101101
*
Ed
 1e-07 1 1 0
1  69 0 -2.38648538650458 3.27036886298778
4 C0 19 0 34 0
0

0101000
+348 0 -350 0 *
Ve
1e-07
-7.5 0.5 15
0 0

0101101
*
Ed
 1e-07 1 1 0
1  70 0 -0.5625 2.6875
4 C0 19 0 35 0
0

0101000
+346 0 -348 0 *
Ve
1e-07
5.28365599970076e-15 -7 15
0 0

0101101
*
Ed
 1e-07 1 1 0
1  71 0 1.5707963267949 3.14159265358979
2  53 36 0 1.5707963267949 3.14159265358979
4 C0 19 0 36 0
0

0101000
+344 0 -346 0 *
Ed
 1e-07 1 1 0
1  72 0 -7.25 1.74999999999999
4 C0 19 0 30 0
0

0101000
+398 0 -344 0 *
Wi

0101100
-355 0 -353 0 -351 0 -349 0 -347 0 -345 0 -343 0 -342 0 -397 0 *
Fa
0  1e-07 19 0

0111000
+357 0 +341 0 *
Ve
1e-07
7.50000000000001 0 0
0 0

0101101
*
Ed
 1e-07 1 1 0
1  73 0 0 15
4 C0 31 0 22 0
0

0101000
+339 0 -356 0 *
Ve
1e-07
7.50000000000001 3.75 0
0 0

0101101
*
Ed
 1e-07 1 1 0
1  74 0 0 3.75
4 C0 31 0 17 0
0

0101000
+339 0 -337 0 *
Ed
 1e-07 1 1 0
1  75 0 0 15
4 C0 31 0 32 0
0

0101000
+337 0 -354 0 *
Wi

0101100
+353 0 -338 0 +336 0 +335 0 *
Fa
0  1e-07 31 0

0111000
+334 0 *
Ed
 1e-07 1 1 0
1  76 0 30 45
4 C0 23 0 22 0
0

0101000
+363 0 -425 0 *
Wi

0101100
+422 0 -332 0 +360 0 +368 0 *
Fa
0  1e-07 23 0

0111000
+331 0 *
Ve
1e-07
3.50000000000001 7.75 0
0 0

0101101
*
Ed
 1e-07 1 1 0
1  77 0 0 5.65685424949238
4 C0 32 0 17 0
0

0101000
+337 0 -329 0 *
Ed
 1e-07 1 1 0
1  78 0 0 15
4 C0 32 0 33 0
0

0101000
+329 0 -352 0 *
Wi

0101100
+351 0 -335 0 +328 0 +327 0 *
Fa
0  1e-07 32 0

0111000
+326 0 *
Ve
1e-07
-3.5 7.74999999999999 0
0 0

0101101
*
Ed
 1e-07 1 1 0
1  79 0 0 7.00000000000001
4 C0 33 0 17 0
0

0101000
+329 0 -324 0 *
Ed
 1e-07 1 1 0
1  80 0 0 15
4 C0 33 0 34 0
0

0101000
+324 0 -350 0 *
Wi

0101100
+349 0 -327 0 +323 0 +322 0 *
Fa
0  1e-07 33 0

0111000
+321 0 *
Ve
1e-07
-7.49999999999999 3.75 0
0 0

0101101
*
Ed
 1e-07 1 1 0
1  81 0 0 5.65685424949237
4 C0 34 0 17 0
0

0101000
+324 0 -319 0 *
Ed
 1e-07 1 1 0
1  82 0 0 15
4 C0 34 0 35 0
0

0101000
+319 0 -348 0 *
Wi

0101100
+347 0 -322 0 +318 0 +317 0 *
Fa
0  1e-07 34 0

0111000
+316 0 *
Ve
1e-07
-7.5 0.5 0
0 0

0101101
*
Ed
 1e-07 1 1 0
1  83 0 -1.02140518265514e-14 3.24999999999999
4 C0 35 0 17 0
0

0101000
+319 0 -314 0 *
Ed
 1e-07 1 1 0
1  84 0 0 15
2  54 36 0 0 15
4 G1 35 0 36 0
0

0101000
+314 0 -346 0 *
Wi

0101100
+345 0 -317 0 +313 0 +312 0 *
Fa
0  1e-07 35 0

0111000
+311 0 *
Ve
1e-07
5.28365599970076e-15 -7 0
0 0

0101101
*
Ed
 1e-07 1 1 0
1  85 0 3.14159265358979 4.71238898038469
2  55 36 0 3.14159265358979 4.71238898038469
4 C0 36 0 17 0
0

0101000
+314 0 -309 0 *
Ed
 1e-07 1 1 0
1  86 0 0 15
2  56 36 0 0 15
4 G1 36 0 30 0
0

0101000
+309 0 -344 0 *
Wi

0101100
+343 0 -312 0 +308 0 +307 0 *
Fa
0  1e-07 36 0

0111000
+306 0 *
Ed
 1e-07 1 1 0
1  87 0 0 8.99999999999999
4 C0 30 0 17 0
0

0101000
+396 0 -309 0 *
Wi

0101100
+342 0 -307 0 -304 0 +395 0 *
Fa
0  1e-07 30 0

0111000
+303 0 *
Wi

0101100
+428 0 -387 0 +361 0 +403 0 *
Fa
0  1e-07 20 0

0111000
+301 0 *
Ve
1e-07
25.9 -1.77635683940025e-15 60
0 0

0101101
*
Ed
 1e-07 1 1 0
1  88 0 -16.9 2.55551977197526e-32
4 C0 22 0 29 0
0

0101000
+407 0 -299 0 *
Ve
1e-07
25.9 -1.77635683940025e-15 0
0 0

0101101
*
Ed
 1e-07 1 1 0
1  89 0 0 60
4 C0 22 0 37 0
0

0101000
+297 0 -299 0 *
Ed
 1e-07 1 1 0
1  90 0 -2.55551977197526e-32 18.4
4 C0 22 0 17 0
0

0101000
+297 0 -339 0 *
Wi

0101100
+405 0 +298 0 -296 0 +295 0 +338 0 +355 0 +399 0 +362 0 +332 0 +424 0 
*
Fa
0  1e-07 22 0

0111000
+294 0 *
Ve
1e-07
30 -4.1 60
0 0

0101101
*
Ed
 1e-07 1 1 0
1  91 0 -5.79827560572969 0
4 C0 37 0 29 0
0

0101000
+299 0 -292 0 *
Ve
1e-07
30 -4.1 0
0 0

0101101
*
Ed
 1e-07 1 1 0
1  92 0 0 60
4 C0 37 0 38 0
0

0101000
+290 0 -292 0 *
Ed
 1e-07 1 1 0
1  93 0 0 5.79827560572969
4 C0 37 0 17 0
0

0101000
+290 0 -297 0 *
Wi

0101100
+291 0 -289 0 +288 0 +296 0 *
Fa
0  1e-07 37 0

0111000
+287 0 *
Ve
1e-07
30 -8.5 60
0 0

0101101
*
Ed
 1e-07 1 1 0
1  94 0 0 4.4
4 C0 38 0 29 0
0

0101000
+292 0 -285 0 *
Ve
1e-07
30 -8.5 0
0 0

0101101
*
Ed
 1e-07 1 1 0
1  95 0 0 60
4 C0 38 0 6 0
0

0101000
+283 0 -285 0 *
Ed
 1e-07 1 1 0
1  96 0 0 4.4
4 C0 38 0 17 0
0

0101000
+290 0 -283 0 *
Wi

0101100
+284 0 -282 0 -281 0 +289 0 *
Fa
0  1e-07 38 0

0111000
+280 0 *
Wi

0101100
+449 0 +480 0 *
Wi

0101100
+440 0 +497 0 *
Ed
 1e-07 1 1 0
1  97 0 0 21
4 C0 6 0 29 0
0

0101000
+285 0 -409 0 *
Ed
 1e-07 1 1 0
1  98 0 0 21
4 C0 6 0 17 0
0

0101000
+283 0 -410 0 *
Wi

0101100
+276 0 -408 0 -275 0 +282 0 *
Fa
0  1e-07 6 0

0111000
+278 0 +277 0 +274 0 *
Wi

0101100
-406 0 -276 0 -284 0 -291 0 -298 0 *
Fa
0  1e-07 29 0

0111000
+272 0 *
Wi

0101100
+456 0 +465 0 *
Wi

0101100
-308 0 -313 0 -318 0 -323 0 -328 0 -336 0 -295 0 -288 0 +281 0 +275 0 
+394 0 +304 0 *
Fa
0  1e-07 17 0

0111000
-270 0 -269 0 *
Sh

0101100
+502 0 +495 0 +485 0 +478 0 -468 0 -458 0 -454 0 -450 0 +446 0 +443 0 
+441 0 +437 0 +434 0 +432 0 +411 0 +392 0 +385 0 +380 0 +375 0 +370 0 
+365 0 -358 0 +340 0 +333 0 +330 0 +325 0 +320 0 +315 0 +310 0 +305 0 
+302 0 +300 0 +293 0 +286 0 +279 0 +273 0 +271 0 -268 0 *
So

0100000
+267 0 *
Ve
1e-07
-47.5734375 -21.7 12
0 0

0101101
*
Ve
1e-07
-48.25 -21.0234375 12
0 0

0101101
*
Ed
 1e-07 1 1 0
1  99 0 -0.478401931646523 0.478401931646526
2  57 39 0 -0.478401931646523 0.478401931646526
2  58 40 0 -0.478401931646523 0.478401931646526
4 CN 39 0 40 0
0

0101000
+265 0 -264 0 *
Ve
1e-07
-40.9265625 -21.7 12
0 0

0101101
*
Ed
 1e-07 1 1 0
1  100 0 0 3.14159265358979
2  59 39 0 0 3.14159265358979
4 C0 39 0 41 0
0

0101000
+265 0 -262 0 *
Ve
1e-07
-40.25 -21.0234375 12
0 0

0101101
*
Ed
 1e-07 1 1 0
1  101 0 -0.478401931646526 0.478401931646523
2  60 39 0 -0.478401931646526 0.478401931646523
2  61 40 0 -0.478401931646526 0.478401931646523
4 CN 39 0 40 0
0

0101000
+260 0 -262 0 *
Ed
 1e-07 1 1 0
1  102 0 0 3.14159265358979
2  62 39 0 0 3.14159265358979
2  63 42 0 0 3.14159265358979
4 C0 39 0 42 0
0

0101000
+264 0 -260 0 *
Wi

0101100
-263 0 +261 0 -259 0 -258 0 *
Fa
0  1e-07 39 0

0111000
+257 0 *
Ve
1e-07
-48.25 -8.5 12
0 0

0101101
*
Ed
 1e-07 1 1 0
1  103 0 -7.3234375 5.2
2  64 42 0 -7.3234375 5.2
2  65 43 0 -7.3234375 5.2
4 CN 42 0 43 0
0

0101000
+264 0 -255 0 *
Ve
1e-07
-40.25 -8.5 12
0 0

0101101
*
Ed
 1e-07 1 1 0
1  104 0 -5.2 7.3234375
2  66 42 0 -5.2 7.3234375
2  67 43 0 -5.2 7.3234375
4 CN 42 0 43 0
0

0101000
+253 0 -260 0 *
Ed
 1e-07 1 1 0
1  105 0 0 3.14159265358979
2  68 42 0 0 3.14159265358979
4 C0 42 0 44 0
0

0101000
+255 0 -253 0 *
Wi

0101100
-254 0 +258 0 -252 0 -251 0 *
Fa
0  1e-07 42 0

0111000
+250 0 *
Ve
1e-07
-47.5734375 -21.7 48
0 0

0101101
*
Ve
1e-07
-48.25 -21.0234375 48
0 0

0101101
*
Ed
 1e-07 1 1 0
1  106 0 -0.478401931646523 0.478401931646526
2  69 45 0 -0.478401931646523 0.478401931646526
2  70 46 0 -0.478401931646523 0.478401931646526
4 CN 45 0 46 0
0

0101000
+248 0 -247 0 *
Ve
1e-07
-40.9265625 -21.7 48
0 0

0101101
*
Ed
 1e-07 1 1 0
1  107 0 0 3.14159265358979
2  71 45 0 0 3.14159265358979
4 C0 45 0 47 0
0

0101000
+248 0 -245 0 *
Ve
1e-07
-40.25 -21.0234375 48
0 0

0101101
*
Ed
 1e-07 1 1 0
1  108 0 -0.478401931646526 0.478401931646523
2  72 45 0 -0.478401931646526 0.478401931646523
2  73 46 0 -0.478401931646526 0.478401931646523
4 CN 45 0 46 0
0

0101000
+243 0 -245 0 *
Ed
 1e-07 1 1 0
1  109 0 0 3.14159265358979
2  74 45 0 0 3.14159265358979
2  75 48 0 0 3.14159265358979
4 C0 45 0 48 0
0

0101000
+247 0 -243 0 *
Wi

0101100
-246 0 +244 0 -242 0 -241 0 *
Fa
0  1e-07 45 0

0111000
+240 0 *
Ve
1e-07
-48.25 -8.5 48
0 0

0101101
*
Ed
 1e-07 1 1 0
1  110 0 -7.3234375 5.2
2  76 48 0 -7.3234375 5.2
2  77 49 0 -7.3234375 5.2
4 CN 48 0 49 0
0

0101000
+247 0 -238 0 *
Ve
1e-07
-40.25 -8.5 48
0 0

0101101
*
Ed
 1e-07 1 1 0
1  111 0 -5.2 7.3234375
2  78 48 0 -5.2 7.3234375
2  79 49 0 -5.2 7.3234375
4 CN 48 0 49 0
0

0101000
+236 0 -243 0 *
Ed
 1e-07 1 1 0
1  112 0 0 3.14159265358979
2  80 48 0 0 3.14159265358979
4 C0 48 0 44 0
0

0101000
+238 0 -236 0 *
Wi

0101100
-237 0 +241 0 -235 0 -234 0 *
Fa
0  1e-07 48 0

0111000
+233 0 *
Ve
1e-07
4 -4.89842541528951e-16 0.5
0 0

0101101
*
Ve
1e-07
4 -4.89842541528951e-16 15
0 0

0101101
*
Ed
 1e-07 1 1 0
1  113 0 -7.25 7.25
2  81 50 0 -7.25 7.25
2  82 51 0 -7.25 7.25
4 CN 50 0 51 0
0

0101000
+231 0 -230 0 *
Ve
1e-07
-4 -4.89842541528951e-16 0.5
0 0

0101101
*
Ed
 1e-07 1 1 0
1  114 0 0 3.14159265358979
2  83 50 0 0 3.14159265358979
4 C0 50 0 52 0
0

0101000
+231 0 -228 0 *
Ve
1e-07
-4 -4.89842541528951e-16 15
0 0

0101101
*
Ed
 1e-07 1 1 0
1  115 0 -7.25 7.25
2  84 50 0 -7.25 7.25
2  85 51 0 -7.25 7.25
4 CN 50 0 51 0
0

0101000
+226 0 -228 0 *
Ed
 1e-07 1 1 0
1  116 0 0 3.14159265358979
2  86 50 0 0 3.14159265358979
4 C0 50 0 53 0
0

0101000
+230 0 -226 0 *
Wi

0101100
-229 0 +227 0 -225 0 -224 0 *
Fa
0  1e-07 50 0

0111000
+223 0 *
Ve
1e-07
6 0 0.5
0 0

0101101
*
Ve
1e-07
6 0 -2
0 0

0101101
*
Ed
 1e-07 1 1 0
1  117 0 -1.25 1.25
2  87 54 0 -1.25 1.25
2  88 55 0 -1.25 1.25
4 CN 54 0 55 0
0

0101000
+221 0 -220 0 *
Ve
1e-07
-6 -7.34763812293426e-16 0.5
0 0

0101101
*
Ed
 1e-07 1 1 0
1  118 0 3.14159265358979 6.28318530717959
2  89 54 0 3.14159265358979 6.28318530717959
4 C0 54 0 52 0
0

0101000
+218 0 -221 0 *
Ve
1e-07
-6 -7.34763812293426e-16 -2
0 0

0101101
*
Ed
 1e-07 1 1 0
1  119 0 -1.25 1.25
2  90 54 0 -1.25 1.25
2  91 55 0 -1.25 1.25
4 CN 54 0 55 0
0

0101000
+216 0 -218 0 *
Ed
 1e-07 1 1 0
1  120 0 0 3.14159265358979
2  92 54 0 0 3.14159265358979
4 C0 54 0 56 0
0

0101000
+220 0 -216 0 *
Wi

0101100
-219 0 -217 0 -215 0 -214 0 *
Fa
0  1e-07 54 0

0111000
+213 0 *
Ve
1e-07
4 -4.89842541528951e-16 30
0 0

0101101
*
Ve
1e-07
4 -4.89842541528951e-16 45
0 0

0101101
*
Ed
 1e-07 1 1 0
1  121 0 -7.5 7.5
2  93 57 0 -7.5 7.5
2  94 58 0 -7.5 7.5
4 CN 57 0 58 0
0

0101000
+211 0 -210 0 *
Ve
1e-07
-4 4.89842541528951e-16 30
0 0

0101101
*
Ed
 1e-07 1 1 0
1  122 0 3.14159265358979 6.28318530717959
2  95 57 0 3.14159265358979 6.28318530717959
4 C0 57 0 59 0
0

0101000
+208 0 -211 0 *
Ve
1e-07
-4 -4.89842541528951e-16 45
0 0

0101101
*
Ed
 1e-07 1 1 0
1  123 0 -7.5 7.5
2  96 57 0 -7.5 7.5
2  97 58 0 -7.5 7.5
4 CN 57 0 58 0
0

0101000
+206 0 -208 0 *
Ed
 1e-07 1 1 0
1  124 0 0 3.14159265358979
2  98 57 0 0 3.14159265358979
4 C0 57 0 60 0
0

0101000
+210 0 -206 0 *
Wi

0101100
-209 0 -207 0 -205 0 -204 0 *
Fa
0  1e-07 57 0

0111000
+203 0 *
Ed
 1e-07 1 1 0
1  125 0 3.14159265358979 6.28318530717959
2  99 58 0 3.14159265358979 6.28318530717959
4 C0 58 0 60 0
0

0101000
+206 0 -210 0 *
Ed
 1e-07 1 1 0
1  126 0 0 3.14159265358979
2  100 58 0 0 3.14159265358979
4 C0 58 0 59 0
0

0101000
+211 0 -208 0 *
Wi

0101100
+209 0 -201 0 +205 0 -200 0 *
Fa
0  1e-07 58 0

0111000
+199 0 *
Ed
 1e-07 1 1 0
1  127 0 0 3.14159265358979
2  101 55 0 0 3.14159265358979
4 C0 52 0 55 0
0

0101000
+221 0 -218 0 *
Wi

0101100
+197 0 +217 0 *
Ed
 1e-07 1 1 0
1  128 0 3.14159265358979 6.28318530717959
2  102 51 0 3.14159265358979 6.28318530717959
4 C0 52 0 51 0
0

0101000
+228 0 -231 0 *
Wi

0101100
-195 0 -227 0 *
Fa
0  1e-07 52 0

0111000
+196 0 +194 0 *
Ed
 1e-07 1 1 0
1  129 0 3.14159265358979 6.28318530717959
2  103 55 0 3.14159265358979 6.28318530717959
4 C0 55 0 56 0
0

0101000
+216 0 -220 0 *
Wi

0101100
+219 0 -192 0 +215 0 -197 0 *
Fa
0  1e-07 55 0

0111000
+191 0 *
Wi

0101100
+214 0 +192 0 *
Fa
0  1e-07 56 0

0111000
+189 0 *
Ed
 1e-07 1 1 0
1  130 0 3.14159265358979 6.28318530717959
2  104 51 0 3.14159265358979 6.28318530717959
4 C0 51 0 53 0
0

0101000
+226 0 -230 0 *
Wi

0101100
+229 0 -187 0 +225 0 +195 0 *
Fa
0  1e-07 51 0

0111000
+186 0 *
Ed
 1e-07 1 1 0
1  131 0 3.14159265358979 6.28318530717959
2  105 49 0 3.14159265358979 6.28318530717959
4 C0 49 0 44 0
0

0101000
+236 0 -238 0 *
Ed
 1e-07 1 1 0
1  132 0 3.14159265358979 6.28318530717959
2  106 49 0 3.14159265358979 6.28318530717959
2  107 46 0 3.14159265358979 6.28318530717959
4 C0 49 0 46 0
0

0101000
+243 0 -247 0 *
Wi

0101100
+237 0 -184 0 +235 0 +183 0 *
Fa
0  1e-07 49 0

0111000
+182 0 *
Ed
 1e-07 1 1 0
1  133 0 3.14159265358979 6.28318530717959
2  108 46 0 3.14159265358979 6.28318530717959
4 C0 46 0 47 0
0

0101000
+245 0 -248 0 *
Wi

0101100
+246 0 -183 0 +242 0 +180 0 *
Fa
0  1e-07 46 0

0111000
+179 0 *
Wi

0101100
-244 0 -180 0 *
Fa
0  1e-07 47 0

0111000
+177 0 *
Ed
 1e-07 1 1 0
1  134 0 3.14159265358979 6.28318530717959
2  109 43 0 3.14159265358979 6.28318530717959
4 C0 43 0 44 0
0

0101000
+253 0 -255 0 *
Ed
 1e-07 1 1 0
1  135 0 3.14159265358979 6.28318530717959
2  110 43 0 3.14159265358979 6.28318530717959
2  111 40 0 3.14159265358979 6.28318530717959
4 C0 43 0 40 0
0

0101000
+260 0 -264 0 *
Wi

0101100
+254 0 -175 0 +252 0 +174 0 *
Fa
0  1e-07 43 0

0111000
+173 0 *
Ed
 1e-07 1 1 0
1  136 0 3.14159265358979 6.28318530717959
2  112 40 0 3.14159265358979 6.28318530717959
4 C0 40 0 41 0
0

0101000
+262 0 -265 0 *
Wi

0101100
+263 0 -174 0 +259 0 +171 0 *
Fa
0  1e-07 40 0

0111000
+170 0 *
Wi

0101100
-261 0 -171 0 *
Fa
0  1e-07 41 0

0111000
+168 0 *
Wi

0101100
+207 0 +200 0 *
Ve
1e-07
-9 1.73133622528873e-15 30
0 0

0101101
*
Ve
1e-07
-7.50000000000001 1.77635683940025e-15 30
0 0

0101101
*
Ed
 1e-07 1 1 0
1  137 0 6.35 7.84999999999999
4 C0 59 0 61 0
0

0101000
+165 0 -164 0 *
Ve
1e-07
-9 -7 30
0 0

0101101
*
Ed
 1e-07 1 1 0
1  138 0 -7 1.73133622528873e-15
4 C0 59 0 62 0
0

0101000
+162 0 -165 0 *
Ve
1e-07
-3.09348629611711e-15 -7 30
0 0

0101101
*
Ed
 1e-07 1 1 0
1  139 0 -1.75 7.25
4 C0 59 0 63 0
0

0101000
+160 0 -162 0 *
Ve
1e-07
7.5 0.499999999999993 30
0 0

0101101
*
Ed
 1e-07 1 1 0
1  140 0 0 1.5707963267949
2  113 64 0 0 1.5707963267949
4 C0 59 0 64 0
0

0101000
+158 0 -160 0 *
Ve
1e-07
7.49999999999999 3.75 30
0 0

0101101
*
Ed
 1e-07 1 1 0
1  141 0 -2.6875 0.562500000000007
4 C0 59 0 65 0
0

0101000
+156 0 -158 0 *
Ve
1e-07
3.5 7.75 30
0 0

0101101
*
Ed
 1e-07 1 1 0
1  142 0 -3.27036886298778 2.38648538650459
4 C0 59 0 66 0
0

0101000
+154 0 -156 0 *
Ve
1e-07
-3.50000000000001 7.75 30
0 0

0101101
*
Ed
 1e-07 1 1 0
1  143 0 -4.00000000000001 3
4 C0 59 0 67 0
0

0101000
+152 0 -154 0 *
Ve
1e-07
-7.50000000000001 3.75 30
0 0

0101101
*
Ed
 1e-07 1 1 0
1  144 0 -3.09359216769115 2.56326208180123
4 C0 59 0 68 0
0

0101000
+150 0 -152 0 *
Ed
 1e-07 1 1 0
1  145 0 -0.937499999999998 2.8125
4 C0 59 0 69 0
0

0101000
+164 0 -150 0 *
Wi

0101100
-163 0 -161 0 -159 0 -157 0 -155 0 -153 0 -151 0 -149 0 -148 0 *
Fa
0  1e-07 59 0

0111000
+166 0 +147 0 *
Wi

0101100
+201 0 +204 0 *
Ve
1e-07
-7.50000000000001 1.77635683940025e-15 45
0 0

0101101
*
Ve
1e-07
-9 1.73133622528873e-15 45
0 0

0101101
*
Ed
 1e-07 1 1 0
1  146 0 -7.84999999999999 -6.35
4 C0 60 0 61 0
0

0101000
+144 0 -143 0 *
Ve
1e-07
-7.50000000000001 3.75 45
0 0

0101101
*
Ed
 1e-07 1 1 0
1  147 0 -2.8125 0.937499999999998
4 C0 60 0 70 0
0

0101000
+141 0 -144 0 *
Ve
1e-07
-3.50000000000001 7.75 45
0 0

0101101
*
Ed
 1e-07 1 1 0
1  148 0 -2.56326208180123 3.09359216769115
4 C0 60 0 71 0
0

0101000
+139 0 -141 0 *
Ve
1e-07
3.5 7.75 45
0 0

0101101
*
Ed
 1e-07 1 1 0
1  149 0 -3 4.00000000000001
4 C0 60 0 72 0
0

0101000
+137 0 -139 0 *
Ve
1e-07
7.49999999999999 3.75 45
0 0

0101101
*
Ed
 1e-07 1 1 0
1  150 0 -2.38648538650459 3.27036886298778
4 C0 60 0 73 0
0

0101000
+135 0 -137 0 *
Ve
1e-07
7.5 0.499999999999993 45
0 0

0101101
*
Ed
 1e-07 1 1 0
1  151 0 -0.562500000000007 2.6875
4 C0 60 0 74 0
0

0101000
+133 0 -135 0 *
Ve
1e-07
-3.09348629611711e-15 -7 45
0 0

0101101
*
Ed
 1e-07 1 1 0
1  152 0 4.71238898038469 6.28318530717959
2  114 75 0 4.71238898038469 6.28318530717959
4 C0 60 0 75 0
0

0101000
+131 0 -133 0 *
Ve
1e-07
-9 -7 45
0 0

0101101
*
Ed
 1e-07 1 1 0
1  153 0 -7.25 1.75
4 C0 60 0 76 0
0

0101000
+129 0 -131 0 *
Ed
 1e-07 1 1 0
1  154 0 -1.73133622528873e-15 7
4 C0 60 0 62 0
0

0101000
+143 0 -129 0 *
Wi

0101100
-142 0 -140 0 -138 0 -136 0 -134 0 -132 0 -130 0 -128 0 -127 0 *
Fa
0  1e-07 60 0

0111000
-145 0 -126 0 *
Ed
 1e-07 1 1 0
1  155 0 -26.25 -11.25
4 C0 61 0 62 0
0

0101000
+143 0 -165 0 *
Ve
1e-07
-7.50000000000001 1.77635683940025e-15 15
0 0

0101101
*
Ed
 1e-07 1 1 0
1  156 0 15 30
4 C0 61 0 69 0
0

0101000
+123 0 -164 0 *
Ve
1e-07
-9 1.73133622528873e-15 15
0 0

0101101
*
Ed
 1e-07 1 1 0
1  157 0 -7.84999999999999 -6.35
4 C0 61 0 53 0
0

0101000
+123 0 -121 0 *
Ve
1e-07
-9 1.73133622528873e-15 0
0 0

0101101
*
Ed
 1e-07 1 1 0
1  158 0 -11.5 3.5
4 C0 61 0 62 0
0

0101000
+121 0 -119 0 *
Ve
1e-07
-55.9 0 0
0 0

0101101
*
Ed
 1e-07 1 1 0
1  159 0 -9.71519913312899e-33 46.9
4 C0 61 0 77 0
0

0101000
+117 0 -119 0 *
Ve
1e-07
-55.9 0 60
0 0

0101101
*
Ed
 1e-07 1 1 0
1  160 0 0 60
4 C0 61 0 78 0
0

0101000
+117 0 -115 0 *
Ve
1e-07
-7.50000000000001 1.77635683940025e-15 60
0 0

0101101
*
Ed
 1e-07 1 1 0
1  161 0 -9.71519913312899e-33 48.4
4 C0 61 0 79 0
0

0101000
+115 0 -113 0 *
Ed
 1e-07 1 1 0
1  162 0 45 60
4 C0 61 0 70 0
0

0101000
+144 0 -113 0 *
Wi

0101100
+142 0 +124 0 +163 0 -122 0 +120 0 +118 0 -116 0 +114 0 +112 0 -111 0 
*
Fa
0  1e-07 61 0

0111000
+110 0 *
Ve
1e-07
-7.50000000000001 3.75 15
0 0

0101101
*
Ed
 1e-07 1 1 0
1  163 0 15 30
4 C0 69 0 68 0
0

0101000
+108 0 -150 0 *
Ed
 1e-07 1 1 0
1  164 0 -2.8125 0.937499999999998
4 C0 69 0 53 0
0

0101000
+108 0 -123 0 *
Wi

0101100
+148 0 -107 0 +106 0 +122 0 *
Fa
0  1e-07 69 0

0111000
+105 0 *
Ve
1e-07
-3.50000000000001 7.75 15
0 0

0101101
*
Ed
 1e-07 1 1 0
1  165 0 15 30
4 C0 68 0 67 0
0

0101000
+103 0 -152 0 *
Ed
 1e-07 1 1 0
1  166 0 -2.56326208180123 3.09359216769115
4 C0 68 0 53 0
0

0101000
+103 0 -108 0 *
Wi

0101100
+149 0 -102 0 +101 0 +107 0 *
Fa
0  1e-07 68 0

0111000
+100 0 *
Ve
1e-07
3.5 7.75 15
0 0

0101101
*
Ed
 1e-07 1 1 0
1  167 0 15 30
4 C0 67 0 66 0
0

0101000
+98 0 -154 0 *
Ed
 1e-07 1 1 0
1  168 0 -3 4.00000000000001
4 C0 67 0 53 0
0

0101000
+98 0 -103 0 *
Wi

0101100
+151 0 -97 0 +96 0 +102 0 *
Fa
0  1e-07 67 0

0111000
+95 0 *
Ve
1e-07
7.49999999999999 3.75 15
0 0

0101101
*
Ed
 1e-07 1 1 0
1  169 0 15 30
4 C0 66 0 65 0
0

0101000
+93 0 -156 0 *
Ed
 1e-07 1 1 0
1  170 0 -2.38648538650459 3.27036886298778
4 C0 66 0 53 0
0

0101000
+93 0 -98 0 *
Wi

0101100
+153 0 -92 0 +91 0 +97 0 *
Fa
0  1e-07 66 0

0111000
+90 0 *
Ve
1e-07
7.5 0.499999999999993 15
0 0

0101101
*
Ed
 1e-07 1 1 0
1  171 0 15 30
2  115 64 0 15 30
4 G1 65 0 64 0
0

0101000
+88 0 -158 0 *
Ed
 1e-07 1 1 0
1  172 0 -0.562500000000007 2.6875
4 C0 65 0 53 0
0

0101000
+88 0 -93 0 *
Wi

0101100
+155 0 -87 0 +86 0 +92 0 *
Fa
0  1e-07 65 0

0111000
+85 0 *
Ve
1e-07
-3.09348629611711e-15 -7 15
0 0

0101101
*
Ed
 1e-07 1 1 0
1  173 0 15 30
2  116 64 0 15 30
4 G1 64 0 63 0
0

0101000
+83 0 -160 0 *
Ed
 1e-07 1 1 0
1  174 0 4.71238898038469 6.28318530717959
2  117 64 0 4.71238898038469 6.28318530717959
4 C0 64 0 53 0
0

0101000
+83 0 -88 0 *
Wi

0101100
+157 0 -82 0 +81 0 +87 0 *
Fa
0  1e-07 64 0

0111000
+80 0 *
Ve
1e-07
-9 -7 15
0 0

0101101
*
Ed
 1e-07 1 1 0
1  175 0 15 30
4 C0 63 0 62 0
0

0101000
+78 0 -162 0 *
Ed
 1e-07 1 1 0
1  176 0 -7.25 1.75
4 C0 63 0 53 0
0

0101000
+78 0 -83 0 *
Wi

0101100
+159 0 -77 0 +76 0 +82 0 *
Fa
0  1e-07 63 0

0111000
+75 0 *
Wi

0101100
+187 0 +224 0 *
Ed
 1e-07 1 1 0
1  177 0 -1.73133622528873e-15 7
4 C0 53 0 62 0
0

0101000
+121 0 -78 0 *
Wi

0101100
-76 0 -72 0 -120 0 -106 0 -101 0 -96 0 -91 0 -86 0 -81 0 *
Fa
0  1e-07 53 0

0111000
-73 0 -71 0 *
Ve
1e-07
7.49999999999999 3.75 60
0 0

0101101
*
Ed
 1e-07 1 1 0
1  178 0 45 60
4 C0 74 0 73 0
0

0101000
+135 0 -69 0 *
Ve
1e-07
7.5 0.499999999999993 60
0 0

0101101
*
Ed
 1e-07 1 1 0
1  179 0 -1.02140518265514e-14 3.25
4 C0 74 0 79 0
0

0101000
+69 0 -67 0 *
Ed
 1e-07 1 1 0
1  180 0 45 60
2  118 75 0 45 60
4 G1 74 0 75 0
0

0101000
+133 0 -67 0 *
Wi

0101100
+132 0 +68 0 +66 0 -65 0 *
Fa
0  1e-07 74 0

0111000
+64 0 *
Ve
1e-07
-9 -8.5 0
0 0

0101101
*
Ve
1e-07
-9 -8.5 60
0 0

0101101
*
Ed
 1e-07 1 1 0
1  181 0 0 60
4 C0 62 0 44 0
0

0101000
+62 0 -61 0 *
Ed
 1e-07 1 1 0
1  182 0 -1.47477050213678 7.02522949786322
4 C0 62 0 77 0
0

0101000
+119 0 -62 0 *
Ve
1e-07
-9 -7 60
0 0

0101101
*
Ed
 1e-07 1 1 0
1  183 0 45 60
4 C0 62 0 76 0
0

0101000
+129 0 -58 0 *
Ed
 1e-07 1 1 0
1  184 0 -1.5 -0
4 C0 62 0 79 0
0

0101000
+58 0 -61 0 *
Wi

0101100
-60 0 -59 0 -118 0 +72 0 +77 0 +161 0 -124 0 +127 0 +57 0 +56 0 
*
Fa
0  1e-07 62 0

0111000
+55 0 *
Ve
1e-07
3.5 7.75 60
0 0

0101101
*
Ed
 1e-07 1 1 0
1  185 0 45 60
4 C0 73 0 72 0
0

0101000
+137 0 -53 0 *
Ed
 1e-07 1 1 0
1  186 0 0 5.65685424949237
4 C0 73 0 79 0
0

0101000
+53 0 -69 0 *
Wi

0101100
+134 0 +52 0 +51 0 -68 0 *
Fa
0  1e-07 73 0

0111000
+50 0 *
Ve
1e-07
-3.50000000000001 7.75 60
0 0

0101101
*
Ed
 1e-07 1 1 0
1  187 0 45 60
4 C0 72 0 71 0
0

0101000
+139 0 -48 0 *
Ed
 1e-07 1 1 0
1  188 0 0 7.00000000000001
4 C0 72 0 79 0
0

0101000
+48 0 -53 0 *
Wi

0101100
+136 0 +47 0 +46 0 -52 0 *
Fa
0  1e-07 72 0

0111000
+45 0 *
Ve
1e-07
-7.50000000000001 3.75 60
0 0

0101101
*
Ed
 1e-07 1 1 0
1  189 0 45 60
4 C0 71 0 70 0
0

0101000
+141 0 -43 0 *
Ed
 1e-07 1 1 0
1  190 0 0 5.65685424949238
4 C0 71 0 79 0
0

0101000
+43 0 -48 0 *
Wi

0101100
+138 0 +42 0 +41 0 -47 0 *
Fa
0  1e-07 71 0

0111000
+40 0 *
Ed
 1e-07 1 1 0
1  191 0 0 3.75
4 C0 70 0 79 0
0

0101000
+113 0 -43 0 *
Wi

0101100
+140 0 +111 0 +38 0 -42 0 *
Fa
0  1e-07 70 0

0111000
+37 0 *
Ve
1e-07
-60 -4.1 60
0 0

0101101
*
Ed
 1e-07 1 1 0
1  192 0 0 5.79827560572969
4 C0 78 0 79 0
0

0101000
+35 0 -115 0 *
Ve
1e-07
-60 -4.1 0
0 0

0101101
*
Ed
 1e-07 1 1 0
1  193 0 0 5.79827560572969
4 C0 78 0 77 0
0

0101000
+33 0 -117 0 *
Ed
 1e-07 1 1 0
1  194 0 0 60
4 C0 78 0 80 0
0

0101000
+33 0 -35 0 *
Wi

0101100
+34 0 -114 0 -32 0 +31 0 *
Fa
0  1e-07 78 0

0111000
+30 0 *
Ve
1e-07
-3.09348629611711e-15 -7 60
0 0

0101101
*
Ed
 1e-07 1 1 0
1  195 0 0 1.5707963267949
2  119 75 0 0 1.5707963267949
4 C0 75 0 79 0
0

0101000
+67 0 -28 0 *
Ed
 1e-07 1 1 0
1  196 0 45 60
2  120 75 0 45 60
4 G1 75 0 76 0
0

0101000
+131 0 -28 0 *
Wi

0101100
+130 0 +65 0 +27 0 -26 0 *
Fa
0  1e-07 75 0

0111000
+25 0 *
Ed
 1e-07 1 1 0
1  197 0 -9 -0
4 C0 76 0 79 0
0

0101000
+28 0 -58 0 *
Wi

0101100
+128 0 +26 0 +23 0 -57 0 *
Fa
0  1e-07 76 0

0111000
+22 0 *
Wi

0101100
+184 0 +234 0 *
Wi

0101100
+175 0 +251 0 *
Ve
1e-07
-60 -8.5 60
0 0

0101101
*
Ed
 1e-07 1 1 0
1  198 0 -51 -0
4 C0 44 0 79 0
0

0101000
+61 0 -18 0 *
Ve
1e-07
-60 -8.5 0
0 0

0101101
*
Ed
 1e-07 1 1 0
1  199 0 0 60
4 C0 44 0 80 0
0

0101000
+16 0 -18 0 *
Ed
 1e-07 1 1 0
1  200 0 0 51
4 C0 44 0 77 0
0

0101000
+16 0 -62 0 *
Wi

0101100
+17 0 -15 0 +14 0 +60 0 *
Fa
0  1e-07 44 0

0111000
+20 0 +19 0 +13 0 *
Ed
 1e-07 1 1 0
1  201 0 -4.4 0
4 C0 80 0 79 0
0

0101000
+18 0 -35 0 *
Ed
 1e-07 1 1 0
1  202 0 0 4.4
4 C0 80 0 77 0
0

0101000
+33 0 -16 0 *
Wi

0101100
+11 0 -31 0 +10 0 +15 0 *
Fa
0  1e-07 80 0

0111000
+9 0 *
Wi

0101100
-34 0 -11 0 -17 0 -56 0 -23 0 -27 0 -66 0 -51 0 -46 0 -41 0 
-38 0 -112 0 *
Fa
0  1e-07 79 0

0111000
+7 0 *
Wi

0101100
+59 0 -14 0 -10 0 +32 0 +116 0 *
Fa
0  1e-07 77 0

0111000
-5 0 *
Sh

0101100
+256 0 +249 0 +239 0 +232 0 +222 0 +212 0 +202 0 +198 0 +193 0 +190 0 
+188 0 +185 0 +181 0 +178 0 +176 0 +172 0 +169 0 +167 0 +146 0 -125 0 
+109 0 +104 0 +99 0 +94 0 +89 0 +84 0 +79 0 +74 0 -70 0 +63 0 
+54 0 +49 0 +44 0 +39 0 +36 0 +29 0 +24 0 +21 0 +12 0 +8 0 
+6 0 -4 0 *
So

0100000
+3 0 *
Co

1100000
+266 0 +2 0 *

+1 0 