DBRep_DrawableShape

CASCADE Topology V1, (c) Matra-Datavision
Locations 0
Curve2ds 120
1 0 -9.9920072216264089e-16 0 1 
1 6.2831853071795862 -9.9920072216264089e-16 0 1 
1 0 -0.47840193164652656 1 0 
1 3.1415926535897931 1.609823385706477e-15 0 -1 
1 3.1415926535897931 1.609823385706477e-15 0 -1 
1 0 0.47840193164652212 1 0 
1 0 -7.3234375000000007 1 0 
1 0 0 0 1 
1 6.2831853071795862 0 0 1 
1 3.1415926535897931 0 0 -1 
1 3.1415926535897931 0 0 -1 
1 0 5.4999999999999982 1 5.6543194337129189e-16 
1 0 -9.9920072216264089e-16 0 1 
1 6.2831853071795862 -9.9920072216264089e-16 0 1 
1 0 -0.47840193164652656 1 0 
1 3.1415926535897931 1.609823385706477e-15 0 -1 
1 3.1415926535897931 1.609823385706477e-15 0 -1 
1 0 0.47840193164652212 1 0 
1 0 -7.3234375000000007 1 0 
1 0 0 0 1 
1 6.2831853071795862 0 0 1 
1 3.1415926535897931 0 0 -1 
1 3.1415926535897931 0 0 -1 
1 0 5.4999999999999982 1 5.6543194337129189e-16 
1 0 0 0 1 
1 6.2831853071795862 0 0 1 
1 6.2831853071795862 -14.5 -1 0 
1 3.1415926535897931 0 0 -1 
1 3.1415926535897931 0 0 -1 
1 0 0.5 1 0 
1 0 23 0 1 
1 6.2831853071795862 23 0 1 
1 6.2831853071795862 15.5 -1 0 
1 3.1415926535897931 23 0 -1 
1 3.1415926535897931 23 0 -1 
1 0 30.5 1 0 
1 0 0 0 1 
1 6.2831853071795862 0 0 1 
1 6.2831853071795862 -0.75 -1 0 
1 3.1415926535897931 0 0 -1 
1 3.1415926535897931 0 0 -1 
1 0 1.25 1 0 
1 0 1.25 1 0 
1 6.2831853071795862 -0.75 -1 0 
1 0 30.5 1 0 
1 6.2831853071795862 15.5 -1 0 
1 0 0.5 1 0 
1 6.2831853071795862 -14.5 -1 0 
1 0 5.5000000000000018 1 -5.6543194337129189e-16 
1 0 -7.3234375000000007 1 0 
1 0 0.47840193164652212 1 0 
1 0 -0.47840193164652656 1 0 
1 0 5.5000000000000018 1 -5.6543194337129189e-16 
1 0 -7.3234375000000007 1 0 
1 0 0.47840193164652212 1 0 
1 0 -0.47840193164652656 1 0 
1 6.2831853071795862 45 -1 0 
1 3.1415926535897931 0 0 1 
1 0 30 1 0 
1 4.7123889803846915 0 0 1 
1 6.2831853071795862 15 -1 0 
1 3.1415926535897931 0 0 1 
1 0 0 1 0 
1 4.7123889803846915 0 0 1 
1 0 -9.9920072216264089e-16 0 1 
1 6.2831853071795862 -9.9920072216264089e-16 0 1 
1 0 -0.47840193164652656 1 0 
1 3.1415926535897931 1.609823385706477e-15 0 -1 
1 3.1415926535897931 1.609823385706477e-15 0 -1 
1 0 0.47840193164652212 1 0 
1 0 -7.3234375000000007 1 0 
1 0 0 0 1 
1 6.2831853071795862 0 0 1 
1 3.1415926535897931 0 0 -1 
1 3.1415926535897931 0 0 -1 
1 0 5.4999999999999982 1 5.6543194337129189e-16 
1 0 -9.9920072216264089e-16 0 1 
1 6.2831853071795862 -9.9920072216264089e-16 0 1 
1 0 -0.47840193164652656 1 0 
1 3.1415926535897931 1.609823385706477e-15 0 -1 
1 3.1415926535897931 1.609823385706477e-15 0 -1 
1 0 0.47840193164652212 1 0 
1 0 -7.3234375000000007 1 0 
1 0 0 0 1 
1 6.2831853071795862 0 0 1 
1 3.1415926535897931 0 0 -1 
1 3.1415926535897931 0 0 -1 
1 0 5.4999999999999982 1 5.6543194337129198e-16 
1 0 -10.5 1 0 
1 3.1415926535897931 0 0 1 
1 3.1415926535897931 0 0 1 
1 6.2831853071795862 4.5 -1 0 
1 0 0 0 -1 
1 6.2831853071795862 0 0 -1 
1 0 19.5 1 0 
1 3.1415926535897931 27 0 1 
1 3.1415926535897931 27 0 1 
1 6.2831853071795862 34.5 -1 0 
1 0 27 0 -1 
1 6.2831853071795862 27 0 -1 
1 6.2831853071795862 34.5 -1 0 
1 0 19.5 1 0 
1 6.2831853071795862 4.5 -1 0 
1 0 -10.5 1 0 
1 0 5.5000000000000018 1 -5.6543194337129179e-16 
1 0 -7.3234375000000007 1 0 
1 0 0.47840193164652212 1 0 
1 0 -0.47840193164652656 1 0 
1 0 5.5000000000000018 1 -5.6543194337129189e-16 
1 0 -7.3234375000000007 1 0 
1 0 0.47840193164652212 1 0 
1 0 -0.47840193164652656 1 0 
1 6.2831853071795862 45 -1 0 
1 3.1415926535897931 0 0 1 
1 0 30 1 0 
1 4.7123889803846915 0 0 1 
1 6.2831853071795862 15 -1 0 
1 3.1415926535897931 0 0 1 
1 0 0 1 0 
1 4.7123889803846915 0 0 1 
Curves 202
1 42.338281250000001 -21.661718749999999 12 -0.70710678118654702 0.70710678118654802 0 
2 46 -22 12 6.12303176911189e-17 1 0 -1 6.12303176911189e-17 0 0 -0 1 3.3234374999999998
1 49.661718749999999 -21.661718749999999 12 -0.70710678118654702 -0.70710678118654802 -0 
2 46 -21.323437500000001 12 6.12303176911189e-17 1 0 -1 6.12303176911189e-17 0 0 -0 1 4
1 42 -14 12 6.12303176911189e-17 1 0 
1 50 -14 12 -6.12303176911189e-17 -1 -0 
2 46 -8.5 12 0 1 -0 -1 0 0 0 0 1 4
1 42.338281250000001 -21.661718749999999 48 -0.70710678118654702 0.70710678118654802 0 
2 46 -22 48 6.12303176911189e-17 1 0 -1 6.12303176911189e-17 0 0 -0 1 3.3234374999999998
1 49.661718749999999 -21.661718749999999 48 -0.70710678118654702 -0.70710678118654802 -0 
2 46 -21.323437500000001 48 6.12303176911189e-17 1 0 -1 6.12303176911189e-17 0 0 -0 1 4
1 42 -14 48 6.12303176911189e-17 1 0 
1 50 -14 48 -6.12303176911189e-17 -1 -0 
2 46 -8.5 48 0 1 -0 -1 0 0 0 0 1 4
1 4 -4.89842541528951e-16 29.5 0 0 1 
2 0 0 15 0 0 -1 1 0 0 0 -1 0 4
1 -4 4.89842541528951e-16 29.5 -0 -0 -1 
2 0 0 30 0 0 1 1 0 -0 -0 1 0 4
1 4 -4.89842541528951e-16 52.5 0 0 1 
2 0 0 45 0 0 -1 1 0 0 0 -1 0 4
1 -4 4.89842541528951e-16 52.5 -0 -0 -1 
2 0 0 60 0 0 1 1 0 -0 -0 1 0 4
1 6 7.3476381229342596e-16 -0.75 0 0 -1 
2 0 0 0 0 0 1 1 0 -0 -0 1 0 6
1 -6 -7.3476381229342596e-16 -0.75 -0 -0 1 
2 0 0 -2 0 0 -1 1 0 0 0 -1 0 6
2 0 0 -2 0 0 -1 1 0 0 0 -1 0 6
2 0 0 0 0 0 1 1 0 -0 -0 1 0 6
2 0 0 60 0 0 1 1 0 -0 -0 1 0 4
2 0 0 45 0 0 -1 1 0 0 0 -1 0 4
2 0 0 30 0 0 1 1 0 -0 -0 1 0 4
2 0 0 15 0 0 -1 1 0 0 0 -1 0 4
2 46 -8.5 48 0 1 -0 -1 0 0 0 0 1 4
2 46 -21.323437500000001 48 6.12303176911189e-17 1 0 -1 6.12303176911189e-17 0 0 -0 1 4
2 46 -22 48 6.12303176911189e-17 1 0 -1 6.12303176911189e-17 0 0 -0 1 3.3234374999999998
2 46 -8.5 12 0 1 -0 -1 0 0 0 0 1 4
2 46 -21.323437500000001 12 6.12303176911189e-17 1 0 -1 6.12303176911189e-17 0 0 -0 1 4
2 46 -22 12 6.12303176911189e-17 1 0 -1 6.12303176911189e-17 0 0 -0 1 3.3234374999999998
1 1.75 -7.5 45 -1 9.8686491077791699e-17 0 
1 9 0 45 0 -1 0 
1 15.35 -2.3560788051696302e-16 45 1 -3.0013742741014298e-17 0 
1 7.5000000000000098 0.9375 45 0 -1 0 
1 5.3125000000000098 5.9375 45 0.70710678118654702 -0.70710678118654802 0 
1 -0.5 7.75 45 1 5.0753052554292799e-16 -0 
1 -5.8125 5.4374999999999902 45 0.70710678118654702 0.70710678118654802 -0 
1 -7.5 0.937499999999999 45 0 1 -0 
2 -1.7763568394002501e-15 -2.66453525910038e-15 45 0 0 -1 1 0 0 0 -1 0 7.5
1 9 -8.5 0 0 0 1 
1 9 -8.5 60 0 1 0 
1 9 -4.5020614111521298e-17 27.5 0 0 1 
1 9 -7.5 0 0 0 1 
1 9 0 30 0 1 0 
1 9 -4.5020614111521298e-17 11.25 0 0 1 
1 9 0 15 0 -1 0 
1 9 -7.5 0 0 0 1 
1 9 -8.5 0 0 1 0 
1 -7.5 -1.74608049373359e-15 0 0 0 1 
2 -1.7763568394002501e-15 -2.66453525910038e-15 30 0 0 1 1 0 -0 -0 1 0 7.5
1 1.0168637308051499e-14 -7.5 0 0 0 1 
1 -7.4999999999999902 3.75 0 0 0 1 
1 -7.5 0.937499999999999 30 0 -1 0 
1 -3.5 7.7499999999999902 0 0 0 1 
1 -5.8125 5.4374999999999902 30 -0.70710678118654702 -0.70710678118654802 0 
1 3.5000000000000102 7.75 0 0 0 1 
1 -0.5 7.75 30 -1 -5.0753052554292799e-16 0 
1 7.5000000000000098 3.75 0 0 0 1 
1 5.3125000000000098 5.9375 30 -0.70710678118654702 0.70710678118654802 0 
1 15.35 -2.3560788051696302e-16 30 -1 3.0013742741014298e-17 0 
1 1.75 -7.5 30 1 -9.8686491077791699e-17 0 
1 7.5000000000000098 0.9375 30 0 1 0 
1 15.35 -2.3560788051696302e-16 15 1 -3.0013742741014298e-17 0 
1 7.5000000000000098 0.9375 15 0 -1 0 
1 5.3125000000000098 5.9375 15 0.70710678118654702 -0.70710678118654802 0 
1 -0.5 7.75 15 1 5.0753052554292799e-16 -0 
1 -5.8125 5.4374999999999902 15 0.70710678118654702 0.70710678118654802 -0 
1 -7.5 0.937499999999999 15 0 1 -0 
2 -1.7763568394002501e-15 -2.66453525910038e-15 15 0 0 -1 1 0 0 0 -1 0 7.5
1 1.75 -7.5 15 -1 9.8686491077791699e-17 0 
1 7.5000000000000098 0 0 0 0 1 
1 7.5000000000000098 0 0 0 1 0 
1 7.5000000000000098 3.75 0 0 0 1 
1 7.5000000000000098 0 0 0 0 1 
1 7.5000000000000098 3.75 0 -0.70710678118654702 0.70710678118654802 0 
1 3.5000000000000102 7.75 0 0 0 1 
1 3.5000000000000102 7.75 0 -1 -5.0753052554292799e-16 0 
1 -3.5 7.7499999999999902 0 0 0 1 
1 -3.5 7.7499999999999902 0 -0.70710678118654702 -0.70710678118654802 0 
1 -7.4999999999999902 3.75 0 0 0 1 
1 -7.5 3.7499999999999898 0 0 -1 0 
1 -7.5 -1.74608049373359e-15 0 0 0 1 
2 -1.7763568394002501e-15 -2.66453525910038e-15 0 0 0 1 1 0 -0 -0 1 0 7.5
1 1.0168637308051499e-14 -7.5 0 0 0 1 
1 9 -7.5 0 -1 9.8686491077791699e-17 0 
1 55.899999999999999 -1.4526651486650901e-15 60 1 -3.0013742741014298e-17 0 
1 55.899999999999999 -1.7763568394002501e-15 0 0 0 1 
1 55.899999999999999 -1.4526651486650901e-15 0 -1 3.0013742741014298e-17 0 
1 60 -4.0999999999999996 60 0.70710678118654702 -0.70710678118654802 0 
1 60 -4.0999999999999996 0 0 0 1 
1 60 -4.0999999999999996 0 -0.70710678118654702 0.70710678118654802 0 
1 60 -4.0999999999999996 60 0 -1 0 
1 60 -8.5 0 0 0 1 
1 60 -4.0999999999999996 0 0 -1 0 
1 60 -8.5 60 -1 0 0 
1 60 -8.5 0 -1 0 0 
1 -42.338281250000001 -21.661718749999999 48 0.70710678118654702 0.70710678118654802 -5.3021013293977297e-33 
2 -46 -22 48 -6.12303176911189e-17 1 -7.4983036091106899e-33 1 6.12303176911189e-17 1.22460635382238e-16 1.22460635382238e-16 1.7789921910373654e-47 -1 3.3234374999999998
1 -49.661718749999999 -21.661718749999999 48 0.70710678118654702 -0.70710678118654802 5.3021013293977297e-33 
2 -46 -21.323437500000001 48 -6.12303176911189e-17 1 -7.4983036091106899e-33 1 6.12303176911189e-17 1.22460635382238e-16 1.22460635382238e-16 1.7789921910373654e-47 -1 4
1 -42 -14 48 -6.12303176911189e-17 1 -7.4983036091106899e-33 
1 -50 -14 48 6.12303176911189e-17 -1 7.4983036091106899e-33 
2 -46 -8.5 48 -0 1 0 1 0 1.22460635382238e-16 1.22460635382238e-16 0 -1 4
1 -42.338281250000001 -21.661718749999999 12 0.70710678118654702 0.70710678118654802 3.4302852094990099e-16 
2 -46 -22 12 -6.12303176911189e-17 1 -7.4983036091106899e-33 1 6.12303176911189e-17 1.22460635382238e-16 1.22460635382238e-16 1.7789921910373654e-47 -1 3.3234374999999998
1 -49.661718749999999 -21.661718749999999 12 0.70710678118654702 -0.70710678118654802 3.4302852094990099e-16 
2 -46 -21.323437500000001 12 -6.12303176911189e-17 1 -7.4983036091106899e-33 1 6.12303176911189e-17 1.22460635382238e-16 1.22460635382238e-16 1.7789921910373654e-47 -1 4
1 -42 -14 12 -6.12303176911189e-17 1 -7.4983036091106899e-33 
1 -50 -14 12 6.12303176911189e-17 -1 7.4983036091106899e-33 
2 -46 -8.5 12 -0 1 0 1 0 1.22460635382238e-16 1.22460635382238e-16 0 -1 4
2 0 0 15 -1.22460635382238e-16 -0 1 1 0 1.22460635382238e-16 -0 1 0 4
1 -4 4.89842541528951e-16 25.5 -0 0 1 
2 0 0 30 1.22460635382238e-16 0 -1 1 0 1.22460635382238e-16 0 -1 0 4
1 4 -4.89842541528951e-16 25.5 -0 0 -1 
2 0 0 45 -1.22460635382238e-16 -0 1 1 0 1.22460635382238e-16 -0 1 0 4
1 -4 4.89842541528951e-16 52.5 -0 0 1 
2 0 0 60 1.22460635382238e-16 0 -1 1 0 1.22460635382238e-16 0 -1 0 4
1 4 -4.89842541528951e-16 52.5 -0 0 -1 
2 0 0 60 1.22460635382238e-16 0 -1 1 0 1.22460635382238e-16 0 -1 0 4
2 0 0 45 -1.22460635382238e-16 -0 1 1 0 1.22460635382238e-16 -0 1 0 4
2 0 0 30 1.22460635382238e-16 0 -1 1 0 1.22460635382238e-16 0 -1 0 4
2 0 0 15 -1.22460635382238e-16 -0 1 1 0 1.22460635382238e-16 -0 1 0 4
2 -46 -8.5 12 -0 1 0 1 0 1.22460635382238e-16 1.22460635382238e-16 0 -1 4
2 -46 -21.323437500000001 12 -6.12303176911189e-17 1 -7.4983036091106899e-33 1 6.12303176911189e-17 1.22460635382238e-16 1.22460635382238e-16 1.7789921910373654e-47 -1 4
2 -46 -22 12 -6.12303176911189e-17 1 -7.4983036091106899e-33 1 6.12303176911189e-17 1.22460635382238e-16 1.22460635382238e-16 1.7789921910373654e-47 -1 3.3234374999999998
2 -46 -8.5 48 -0 1 0 1 0 1.22460635382238e-16 1.22460635382238e-16 0 -1 4
2 -46 -21.323437500000001 48 -6.12303176911189e-17 1 -7.4983036091106899e-33 1 6.12303176911189e-17 1.22460635382238e-16 1.22460635382238e-16 1.7789921910373654e-47 -1 4
2 -46 -22 48 -6.12303176911189e-17 1 -7.4983036091106899e-33 1 6.12303176911189e-17 1.22460635382238e-16 1.22460635382238e-16 1.7789921910373654e-47 -1 3.3234374999999998
1 -1.75 -7.5 15 1 9.8686491077791699e-17 1.22460635382238e-16 
1 -9 0 15 0 -1 -0 
1 -15.35 -2.3560788051696302e-16 15 -1 -3.0013742741014298e-17 -1.22460635382238e-16 
1 -7.5000000000000098 0.9375 15 0 -1 -0 
1 -5.3125000000000098 5.9375 15 -0.70710678118654702 -0.70710678118654802 -8.6592745707193505e-17 
1 0.500000000000002 7.75 15 -1 5.0753052554292799e-16 -1.22460635382238e-16 
1 5.8125 5.4374999999999902 15 -0.70710678118654702 0.70710678118654802 -8.6592745707193505e-17 
1 7.5 0.937499999999999 15 0 1 0 
2 3.6132663701338203e-15 -2.66453525910038e-15 15 -1.22460635382238e-16 -0 1 -1 0 -1.22460635382238e-16 0 -1 -0 7.5
1 -9 -8.5 60 1.22460635382238e-16 0 -1 
1 -9 -8.5 0 0 1 0 
1 -9 -4.5020614111521298e-17 32.5 1.22460635382238e-16 0 -1 
1 -9 -7.5 60 1.22460635382238e-16 0 -1 
1 -9 0 30 0 1 0 
1 -9 -4.5020614111521298e-17 48.75 1.22460635382238e-16 0 -1 
1 -9 0 45 0 -1 -0 
1 -9 -7.5 60 1.22460635382238e-16 0 -1 
1 -9 -8.5 60 0 1 0 
1 7.5 -1.74608049373359e-15 60 1.22460635382238e-16 0 -1 
2 1.7763568394002501e-15 -2.66453525910038e-15 30 1.22460635382238e-16 0 -1 -1 0 -1.22460635382238e-16 0 1 0 7.5
1 -1.38424563695186e-14 -7.5 60 1.22460635382238e-16 0 -1 
1 7.4999999999999902 3.75 60 1.22460635382238e-16 0 -1 
1 7.5 0.937499999999999 30 0 -1 -0 
1 3.5 7.7499999999999902 60 1.22460635382238e-16 0 -1 
1 5.8125 5.4374999999999902 30 0.70710678118654702 -0.70710678118654802 8.6592745707193505e-17 
1 -3.5000000000000102 7.75 60 1.22460635382238e-16 0 -1 
1 0.5 7.75 30 1 -5.0753052554292799e-16 1.22460635382238e-16 
1 -7.5000000000000098 3.75 60 1.22460635382238e-16 0 -1 
1 -5.3125000000000098 5.9375 30 0.70710678118654702 0.70710678118654802 8.6592745707193505e-17 
1 -15.35 -2.3560788051696302e-16 30 1 3.0013742741014298e-17 1.22460635382238e-16 
1 -1.75 -7.5 30 -1 -9.8686491077791699e-17 -1.22460635382238e-16 
1 -7.5000000000000098 0.9375 30 0 1 0 
1 -15.35 -2.3560788051696302e-16 45 -1 -3.0013742741014298e-17 -1.22460635382238e-16 
1 -7.5000000000000098 0.9375 45 0 -1 -0 
1 -5.3125000000000098 5.9375 45 -0.70710678118654702 -0.70710678118654802 -8.6592745707193505e-17 
1 0.499999999999998 7.75 45 -1 5.0753052554292799e-16 -1.22460635382238e-16 
1 5.8125 5.4374999999999902 45 -0.70710678118654702 0.70710678118654802 -8.6592745707193505e-17 
1 7.5 0.937499999999999 45 0 1 0 
2 -6.0552691333315398e-17 -2.66453525910038e-15 45 -1.22460635382238e-16 -0 1 -1 0 -1.22460635382238e-16 0 -1 -0 7.5
1 -1.75 -7.5 45 1 9.8686491077791699e-17 1.22460635382238e-16 
1 -7.5000000000000098 0 60 1.22460635382238e-16 0 -1 
1 -7.5000000000000098 0 60 0 1 0 
1 -7.5000000000000098 3.75 60 1.22460635382238e-16 0 -1 
1 -7.5000000000000098 0 60 1.22460635382238e-16 0 -1 
1 -7.5000000000000098 3.75 60 0.70710678118654702 0.70710678118654802 8.6592745707193505e-17 
1 -3.5000000000000102 7.75 60 1.22460635382238e-16 0 -1 
1 -3.5000000000000102 7.75 60 1 -5.0753052554292799e-16 1.22460635382238e-16 
1 3.5 7.7499999999999902 60 1.22460635382238e-16 0 -1 
1 3.5 7.7499999999999902 60 0.70710678118654702 -0.70710678118654802 8.6592745707193505e-17 
1 7.4999999999999902 3.75 60 1.22460635382238e-16 0 -1 
1 7.5 3.7499999999999898 60 0 -1 -0 
1 7.5 -1.74608049373359e-15 60 1.22460635382238e-16 0 -1 
2 -1.8974622220668801e-15 -2.66453525910038e-15 60 1.22460635382238e-16 0 -1 -1 0 -1.22460635382238e-16 0 1 0 7.5
1 -1.38424563695186e-14 -7.5 60 1.22460635382238e-16 0 -1 
1 -9 -7.5 60 1 9.8686491077791699e-17 1.22460635382238e-16 
1 -55.899999999999999 -1.4526651486650901e-15 -7.1054273576010003e-15 -1 -3.0013742741014298e-17 -1.22460635382238e-16 
1 -55.899999999999999 -1.7763568394002501e-15 60 1.22460635382238e-16 0 -1 
1 -55.899999999999999 -1.4526651486650901e-15 60 1 3.0013742741014298e-17 1.22460635382238e-16 
1 -60 -4.0999999999999996 -7.1054273576010003e-15 -0.70710678118654702 -0.70710678118654802 -8.6592745707193505e-17 
1 -60 -4.0999999999999996 60 1.22460635382238e-16 0 -1 
1 -60 -4.0999999999999996 60 0.70710678118654702 0.70710678118654802 8.6592745707193505e-17 
1 -60 -4.0999999999999996 -7.1054273576010003e-15 0 -1 -0 
1 -60 -8.5 60 1.22460635382238e-16 0 -1 
1 -60 -4.0999999999999996 60 0 -1 -0 
1 -60 -8.5 -7.1054273576010003e-15 1 0 1.22460635382238e-16 
1 -60 -8.5 60 1 0 1.22460635382238e-16 
Polygon3D 0
PolygonOnTriangulations 0
Surfaces 80
3 46 -21.661718749999999 12 6.12303176911189e-17 1 -0 -1 6.12303176911189e-17 0 0 0 1 3.6617187499999999
0.78539816339744795
3 46 -21.661718749999999 12 6.12303176911189e-17 1 -0 -1 6.12303176911189e-17 0 0 0 1 3.6617187499999999
0.78539816339744795
1 44.338281250000001 -22 12 -6.12303176911189e-17 -1 0 1 -6.12303176911189e-17 0 0 0 1 
2 46 -14 12 6.12303176911189e-17 1 0 -1 6.12303176911189e-17 0 0 -0 1 4
2 46 -14 12 6.12303176911189e-17 1 0 -1 6.12303176911189e-17 0 0 -0 1 4
1 34.5 -8.5 0 0 -1 0 1 0 0 -0 0 1 
3 46 -21.661718749999999 48 6.12303176911189e-17 1 -0 -1 6.12303176911189e-17 0 0 0 1 3.6617187499999999
0.78539816339744795
3 46 -21.661718749999999 48 6.12303176911189e-17 1 -0 -1 6.12303176911189e-17 0 0 0 1 3.6617187499999999
0.78539816339744795
1 44.338281250000001 -22 48 -6.12303176911189e-17 -1 0 1 -6.12303176911189e-17 0 0 0 1 
2 46 -14 48 6.12303176911189e-17 1 0 -1 6.12303176911189e-17 0 0 -0 1 4
2 46 -14 48 6.12303176911189e-17 1 0 -1 6.12303176911189e-17 0 0 -0 1 4
2 0 0 29.5 0 0 1 1 0 -0 -0 1 0 4
2 0 0 29.5 0 0 1 1 0 -0 -0 1 0 4
1 -1 0 15 0 0 1 1 0 -0 -0 1 0 
1 -1 0 30 0 0 1 1 0 -0 -0 1 0 
2 0 0 29.5 0 0 1 1 0 -0 -0 1 0 4
2 0 0 29.5 0 0 1 1 0 -0 -0 1 0 4
1 -1 0 45 0 0 1 1 0 -0 -0 1 0 
1 0 0 60 0 0 1 1 0 -0 -0 1 0 
2 0 0 -0.75 0 0 -1 1 0 0 0 -1 0 6
2 0 0 -0.75 0 0 -1 1 0 0 0 -1 0 6
1 24.7354763247805 -2.9917851758381402 0 0 0 1 1 0 -0 -0 1 0 
1 0 0 -2 0 0 -1 1 0 0 0 -1 0 
1 4.5000000000000098 -7.5 0 -9.8686491077791699e-17 -1 0 1 -9.8686491077791699e-17 -0 0 0 1 
1 9 -8 0 -1 -0 0 0 -1 -0 0 0 1 
1 31.699999999999999 -7.26332574332547e-16 0 3.0013742741014298e-17 1 -0 -1 3.0013742741014298e-17 0 0 0 1 
1 7.5000000000000098 1.875 0 1 0 0 -0 1 0 0 -0 1 
1 5.5000000000000098 5.75 0 0.70710678118654802 0.70710678118654702 -0 -0.70710678118654702 0.70710678118654802 0 0 0 1 
1 3.5527136788005001e-15 7.75 0 -5.0753052554292799e-16 1 0 -1 -5.0753052554292799e-16 0 0 0 1 
1 -5.5 5.75 0 -0.70710678118654802 0.70710678118654702 0 -0.70710678118654702 -0.70710678118654802 0 0 0 1 
1 -7.5 1.875 0 -1 0 0 0 -1 0 0 0 1 
2 -1.7763568394002501e-15 -2.66453525910038e-15 0 0 0 1 1 0 -0 -0 1 0 7.5
1 24.7354763247805 -2.9917851758381402 60 0 0 1 1 0 -0 -0 1 0 
1 4.5000000000000098 -7.5 0 -9.8686491077791699e-17 -1 0 1 -9.8686491077791699e-17 -0 0 0 1 
1 7.5000000000000098 1.875 0 1 0 0 -0 1 0 0 -0 1 
1 5.5000000000000098 5.75 0 0.70710678118654802 0.70710678118654702 -0 -0.70710678118654702 0.70710678118654802 0 0 0 1 
1 3.5527136788005001e-15 7.75 0 -5.0753052554292799e-16 1 0 -1 -5.0753052554292799e-16 0 0 0 1 
1 -5.5 5.75 0 -0.70710678118654802 0.70710678118654702 0 -0.70710678118654702 -0.70710678118654802 0 0 0 1 
1 -7.5 1.875 0 -1 0 0 0 -1 0 0 0 1 
2 -1.7763568394002501e-15 -2.66453525910038e-15 0 0 0 1 1 0 -0 -0 1 0 7.5
1 57.950000000000003 -2.0499999999999998 0 0.70710678118654802 0.70710678118654702 -0 -0.70710678118654702 0.70710678118654802 0 0 0 1 
1 60 -6.2999999999999998 0 1 0 -0 0 1 0 0 -0 1 
3 -46 -21.661718749999999 48 -6.12303176911189e-17 1 -7.4983036091106899e-33 1 6.12303176911189e-17 1.22460635382238e-16 1.22460635382238e-16 1.7789921910373654e-47 -1 3.6617187499999999
0.78539816339744795
3 -46 -21.661718749999999 48 -6.12303176911189e-17 1 -7.4983036091106899e-33 1 6.12303176911189e-17 1.22460635382238e-16 1.22460635382238e-16 1.7789921910373654e-47 -1 3.6617187499999999
0.78539816339744795
1 -44.338281250000001 -22 48 6.12303176911189e-17 -1 7.4983036091106899e-33 -1 -6.12303176911189e-17 -1.22460635382238e-16 1.22460635382238e-16 1.7789921910373654e-47 -1 
2 -46 -14 48 -6.12303176911189e-17 1 -7.4983036091106899e-33 1 6.12303176911189e-17 1.22460635382238e-16 1.22460635382238e-16 1.7789921910373654e-47 -1 4
2 -46 -14 48 -6.12303176911189e-17 1 -7.4983036091106899e-33 1 6.12303176911189e-17 1.22460635382238e-16 1.22460635382238e-16 1.7789921910373654e-47 -1 4
1 -34.5 -8.5 60 0 -1 -0 -1 0 -1.22460635382238e-16 1.22460635382238e-16 0 -1 
3 -46 -21.661718749999999 12 -6.12303176911189e-17 1 -7.4983036091106899e-33 1 6.12303176911189e-17 1.22460635382238e-16 1.22460635382238e-16 1.7789921910373654e-47 -1 3.6617187499999999
0.78539816339744795
3 -46 -21.661718749999999 12 -6.12303176911189e-17 1 -7.4983036091106899e-33 1 6.12303176911189e-17 1.22460635382238e-16 1.22460635382238e-16 1.7789921910373654e-47 -1 3.6617187499999999
0.78539816339744795
1 -44.338281250000001 -22 12 6.12303176911189e-17 -1 7.4983036091106899e-33 -1 -6.12303176911189e-17 -1.22460635382238e-16 1.22460635382238e-16 1.7789921910373654e-47 -1 
2 -46 -14 12 -6.12303176911189e-17 1 -7.4983036091106899e-33 1 6.12303176911189e-17 1.22460635382238e-16 1.22460635382238e-16 1.7789921910373654e-47 -1 4
2 -46 -14 12 -6.12303176911189e-17 1 -7.4983036091106899e-33 1 6.12303176911189e-17 1.22460635382238e-16 1.22460635382238e-16 1.7789921910373654e-47 -1 4
2 0 0 25.5 0 0 1 1 0 -0 -0 1 0 4
1 1 0 15 1.22460635382238e-16 0 -1 -1 0 -1.22460635382238e-16 0 1 0 
2 0 0 25.5 0 0 1 1 0 -0 -0 1 0 4
1 1 0 30 1.22460635382238e-16 0 -1 -1 0 -1.22460635382238e-16 0 1 0 
2 0 0 25.5 0 0 1 1 0 -0 -0 1 0 4
1 0.999999999999998 0 45 1.22460635382238e-16 0 -1 -1 0 -1.22460635382238e-16 0 1 0 
2 0 0 25.5 0 0 1 1 0 -0 -0 1 0 4
1 -24.7354763247805 -2.9917851758381402 60 1.22460635382238e-16 0 -1 -1 0 -1.22460635382238e-16 0 1 0 
1 -4.5000000000000098 -7.5 60 9.8686491077791699e-17 -1 1.20852104010299e-32 -1 -9.8686491077791699e-17 -1.22460635382238e-16 1.22460635382238e-16 3.28429327576129e-47 -1 
1 -9 -8 60 1 0 1.22460635382238e-16 0 -1 0 1.22460635382238e-16 0 -1 
1 -31.699999999999999 -7.26332574332547e-16 60 -3.0013742741014298e-17 1 -3.6755020062636397e-33 1 3.0013742741014298e-17 1.22460635382238e-16 1.22460635382238e-16 4.7895943604852146e-48 -1 
1 -7.5000000000000098 1.875 60 -1 0 -1.22460635382238e-16 0 1 0 1.22460635382238e-16 0 -1 
1 -5.5000000000000098 5.75 60 -0.70710678118654802 0.70710678118654702 -8.6592745707193603e-17 0.70710678118654702 0.70710678118654802 8.6592745707193505e-17 1.2246063538223773e-16 2.4651903288156619e-32 -1 
1 -7.2265327402676295e-15 7.75 60 5.0753052554292799e-16 1 6.2152510633867997e-32 1 -5.0753052554292799e-16 1.22460635382238e-16 1.22460635382238e-16 -1.313717310304516e-46 -1 
1 5.4999999999999902 5.75 60 0.70710678118654802 0.70710678118654702 8.6592745707193603e-17 0.70710678118654702 -0.70710678118654802 8.6592745707193505e-17 1.2246063538223773e-16 -2.4651903288156619e-32 -1 
1 7.5 1.875 60 1 0 1.22460635382238e-16 0 -1 0 1.22460635382238e-16 0 -1 
2 -1.8974622220668801e-15 -2.66453525910038e-15 60 1.22460635382238e-16 0 -1 -1 0 -1.22460635382238e-16 0 1 0 7.5
1 -24.7354763247805 -2.9917851758381402 0 1.22460635382238e-16 0 -1 -1 0 -1.22460635382238e-16 0 1 0 
1 -4.5000000000000098 -7.5 60 9.8686491077791699e-17 -1 1.20852104010299e-32 -1 -9.8686491077791699e-17 -1.22460635382238e-16 1.22460635382238e-16 3.28429327576129e-47 -1 
1 -7.5000000000000098 1.875 60 -1 0 -1.22460635382238e-16 0 1 0 1.22460635382238e-16 0 -1 
1 -5.5000000000000098 5.75 60 -0.70710678118654802 0.70710678118654702 -8.6592745707193603e-17 0.70710678118654702 0.70710678118654802 8.6592745707193505e-17 1.2246063538223773e-16 2.4651903288156619e-32 -1 
1 -7.2265327402676295e-15 7.75 60 5.0753052554292799e-16 1 6.2152510633867997e-32 1 -5.0753052554292799e-16 1.22460635382238e-16 1.22460635382238e-16 -1.313717310304516e-46 -1 
1 5.4999999999999902 5.75 60 0.70710678118654802 0.70710678118654702 8.6592745707193603e-17 0.70710678118654702 -0.70710678118654802 8.6592745707193505e-17 1.2246063538223773e-16 -2.4651903288156619e-32 -1 
1 7.5 1.875 60 1 0 1.22460635382238e-16 0 -1 0 1.22460635382238e-16 0 -1 
2 -1.8974622220668801e-15 -2.66453525910038e-15 60 1.22460635382238e-16 0 -1 -1 0 -1.22460635382238e-16 0 1 0 7.5
1 -57.950000000000003 -2.0499999999999998 60 -0.70710678118654802 0.70710678118654702 -8.6592745707193603e-17 0.70710678118654702 0.70710678118654802 8.6592745707193505e-17 1.2246063538223773e-16 2.4651903288156619e-32 -1 
1 -60 -6.2999999999999998 60 -1 0 -1.22460635382238e-16 0 1 0 1.22460635382238e-16 0 -1 
Triangulations 0

TShapes 511
Ve
1e-07
42.6765625 -22 12
0 0

0101101
*
Ve
1e-07
42 -21.3234375 12
0 0

0101101
*
Ed
 1e-07 1 1 0
1  1 0 -0.478401931646526 0.478401931646523
2  1 1 0 -0.478401931646526 0.478401931646523
2  2 2 0 -0.478401931646526 0.478401931646523
4 CN 1 0 2 0
0

0101000
+511 0 -510 0 *
Ve
1e-07
49.3234375 -22 12
0 0

0101101
*
Ed
 1e-07 1 1 0
1  2 0 0 3.14159265358979
2  3 1 0 0 3.14159265358979
4 C0 1 0 3 0
0

0101000
+511 0 -508 0 *
Ve
1e-07
50 -21.3234375 12
0 0

0101101
*
Ed
 1e-07 1 1 0
1  3 0 -0.478401931646523 0.478401931646526
2  4 1 0 -0.478401931646523 0.478401931646526
2  5 2 0 -0.478401931646523 0.478401931646526
4 CN 1 0 2 0
0

0101000
+506 0 -508 0 *
Ed
 1e-07 1 1 0
1  4 0 0 3.14159265358979
2  6 1 0 0 3.14159265358979
2  7 4 0 0 3.14159265358979
4 C0 1 0 4 0
0

0101000
+510 0 -506 0 *
Wi

0101100
-509 0 +507 0 -505 0 -504 0 *
Fa
0  1e-07 1 0

0111000
+503 0 *
Ve
1e-07
42 -8.5 12
0 0

0101101
*
Ed
 1e-07 1 1 0
1  5 0 -7.3234375 5.5
2  8 4 0 -7.3234375 5.5
2  9 5 0 -7.3234375 5.5
4 CN 4 0 5 0
0

0101000
+510 0 -501 0 *
Ve
1e-07
50 -8.5 12
0 0

0101101
*
Ed
 1e-07 1 1 0
1  6 0 -5.5 7.3234375
2  10 4 0 -5.5 7.3234375
2  11 5 0 -5.5 7.3234375
4 CN 4 0 5 0
0

0101000
+499 0 -506 0 *
Ed
 1e-07 1 1 0
1  7 0 0 3.14159265358979
2  12 4 0 0 3.14159265358979
4 C0 4 0 6 0
0

0101000
+501 0 -499 0 *
Wi

0101100
-500 0 +504 0 -498 0 -497 0 *
Fa
0  1e-07 4 0

0111000
+496 0 *
Ve
1e-07
42.6765625 -22 48
0 0

0101101
*
Ve
1e-07
42 -21.3234375 48
0 0

0101101
*
Ed
 1e-07 1 1 0
1  8 0 -0.478401931646526 0.478401931646523
2  13 7 0 -0.478401931646526 0.478401931646523
2  14 8 0 -0.478401931646526 0.478401931646523
4 CN 7 0 8 0
0

0101000
+494 0 -493 0 *
Ve
1e-07
49.3234375 -22 48
0 0

0101101
*
Ed
 1e-07 1 1 0
1  9 0 0 3.14159265358979
2  15 7 0 0 3.14159265358979
4 C0 7 0 9 0
0

0101000
+494 0 -491 0 *
Ve
1e-07
50 -21.3234375 48
0 0

0101101
*
Ed
 1e-07 1 1 0
1  10 0 -0.478401931646523 0.478401931646526
2  16 7 0 -0.478401931646523 0.478401931646526
2  17 8 0 -0.478401931646523 0.478401931646526
4 CN 7 0 8 0
0

0101000
+489 0 -491 0 *
Ed
 1e-07 1 1 0
1  11 0 0 3.14159265358979
2  18 7 0 0 3.14159265358979
2  19 10 0 0 3.14159265358979
4 C0 7 0 10 0
0

0101000
+493 0 -489 0 *
Wi

0101100
-492 0 +490 0 -488 0 -487 0 *
Fa
0  1e-07 7 0

0111000
+486 0 *
Ve
1e-07
42 -8.5 48
0 0

0101101
*
Ed
 1e-07 1 1 0
1  12 0 -7.3234375 5.5
2  20 10 0 -7.3234375 5.5
2  21 11 0 -7.3234375 5.5
4 CN 10 0 11 0
0

0101000
+493 0 -484 0 *
Ve
1e-07
50 -8.5 48
0 0

0101101
*
Ed
 1e-07 1 1 0
1  13 0 -5.5 7.3234375
2  22 10 0 -5.5 7.3234375
2  23 11 0 -5.5 7.3234375
4 CN 10 0 11 0
0

0101000
+482 0 -489 0 *
Ed
 1e-07 1 1 0
1  14 0 0 3.14159265358979
2  24 10 0 0 3.14159265358979
4 C0 10 0 6 0
0

0101000
+484 0 -482 0 *
Wi

0101100
-483 0 +487 0 -481 0 -480 0 *
Fa
0  1e-07 10 0

0111000
+479 0 *
Ve
1e-07
4 -4.89842541528951e-16 15
0 0

0101101
*
Ve
1e-07
4 -4.89842541528951e-16 30
0 0

0101101
*
Ed
 1e-07 1 1 0
1  15 0 -14.5 0.5
2  25 12 0 -14.5 0.5
2  26 13 0 -14.5 0.5
4 CN 12 0 13 0
0

0101000
+477 0 -476 0 *
Ve
1e-07
-4 4.89842541528951e-16 15
0 0

0101101
*
Ed
 1e-07 1 1 0
1  16 0 3.14159265358979 6.28318530717959
2  27 12 0 3.14159265358979 6.28318530717959
4 C0 12 0 14 0
0

0101000
+474 0 -477 0 *
Ve
1e-07
-4 -4.89842541528951e-16 30
0 0

0101101
*
Ed
 1e-07 1 1 0
1  17 0 -0.5 14.5
2  28 12 0 -0.5 14.5
2  29 13 0 -0.5 14.5
4 CN 12 0 13 0
0

0101000
+472 0 -474 0 *
Ed
 1e-07 1 1 0
1  18 0 0 3.14159265358979
2  30 12 0 0 3.14159265358979
4 C0 12 0 15 0
0

0101000
+476 0 -472 0 *
Wi

0101100
-475 0 -473 0 -471 0 -470 0 *
Fa
0  1e-07 12 0

0111000
+469 0 *
Ve
1e-07
4 -4.89842541528951e-16 45
0 0

0101101
*
Ve
1e-07
4 0 60
0 0

0101101
*
Ed
 1e-07 1 1 0
1  19 0 -7.5 7.5
2  31 16 0 -7.5 7.5
2  32 17 0 -7.5 7.5
4 CN 16 0 17 0
0

0101000
+467 0 -466 0 *
Ve
1e-07
-4 4.89842541528951e-16 45
0 0

0101101
*
Ed
 1e-07 1 1 0
1  20 0 3.14159265358979 6.28318530717959
2  33 16 0 3.14159265358979 6.28318530717959
4 C0 16 0 18 0
0

0101000
+464 0 -467 0 *
Ve
1e-07
-4 4.89842541528951e-16 60
0 0

0101101
*
Ed
 1e-07 1 1 0
1  21 0 -7.5 7.5
2  34 16 0 -7.5 7.5
2  35 17 0 -7.5 7.5
4 CN 16 0 17 0
0

0101000
+462 0 -464 0 *
Ed
 1e-07 1 1 0
1  22 0 0 3.14159265358979
2  36 16 0 0 3.14159265358979
4 C0 16 0 19 0
0

0101000
+466 0 -462 0 *
Wi

0101100
-465 0 -463 0 -461 0 -460 0 *
Fa
0  1e-07 16 0

0111000
+459 0 *
Ve
1e-07
6 7.34763812293426e-16 0
0 0

0101101
*
Ve
1e-07
6 0 -2
0 0

0101101
*
Ed
 1e-07 1 1 0
1  23 0 -0.75 1.25
2  37 20 0 -0.75 1.25
2  38 21 0 -0.75 1.25
4 CN 20 0 21 0
0

0101000
+457 0 -456 0 *
Ve
1e-07
-6 -7.34763812293426e-16 0
0 0

0101101
*
Ed
 1e-07 1 1 0
1  24 0 3.14159265358979 6.28318530717959
2  39 20 0 3.14159265358979 6.28318530717959
4 C0 20 0 22 0
0

0101000
+454 0 -457 0 *
Ve
1e-07
-6 -7.34763812293426e-16 -2
0 0

0101101
*
Ed
 1e-07 1 1 0
1  25 0 -1.25 0.75
2  40 20 0 -1.25 0.75
2  41 21 0 -1.25 0.75
4 CN 20 0 21 0
0

0101000
+452 0 -454 0 *
Ed
 1e-07 1 1 0
1  26 0 0 3.14159265358979
2  42 20 0 0 3.14159265358979
4 C0 20 0 23 0
0

0101000
+456 0 -452 0 *
Wi

0101100
-455 0 -453 0 -451 0 -450 0 *
Fa
0  1e-07 20 0

0111000
+449 0 *
Ed
 1e-07 1 1 0
1  27 0 3.14159265358979 6.28318530717959
2  43 21 0 3.14159265358979 6.28318530717959
4 C0 21 0 23 0
0

0101000
+452 0 -456 0 *
Ed
 1e-07 1 1 0
1  28 0 0 3.14159265358979
2  44 21 0 0 3.14159265358979
4 C0 21 0 22 0
0

0101000
+457 0 -454 0 *
Wi

0101100
+455 0 -447 0 +451 0 -446 0 *
Fa
0  1e-07 21 0

0111000
+445 0 *
Ed
 1e-07 1 1 0
1  29 0 3.14159265358979 6.28318530717959
2  45 17 0 3.14159265358979 6.28318530717959
4 C0 17 0 19 0
0

0101000
+462 0 -466 0 *
Ed
 1e-07 1 1 0
1  30 0 0 3.14159265358979
2  46 17 0 0 3.14159265358979
4 C0 17 0 18 0
0

0101000
+467 0 -464 0 *
Wi

0101100
+465 0 -443 0 +461 0 -442 0 *
Fa
0  1e-07 17 0

0111000
+441 0 *
Wi

0101100
+450 0 +447 0 *
Fa
0  1e-07 23 0

0111000
+439 0 *
Ed
 1e-07 1 1 0
1  31 0 3.14159265358979 6.28318530717959
2  47 13 0 3.14159265358979 6.28318530717959
4 C0 13 0 15 0
0

0101000
+472 0 -476 0 *
Ed
 1e-07 1 1 0
1  32 0 0 3.14159265358979
2  48 13 0 0 3.14159265358979
4 C0 13 0 14 0
0

0101000
+477 0 -474 0 *
Wi

0101100
+475 0 -437 0 +471 0 -436 0 *
Fa
0  1e-07 13 0

0111000
+435 0 *
Wi

0101100
+460 0 +443 0 *
Fa
0  1e-07 19 0

0111000
+433 0 *
Ed
 1e-07 1 1 0
1  33 0 3.14159265358979 6.28318530717959
2  49 11 0 3.14159265358979 6.28318530717959
4 C0 11 0 6 0
0

0101000
+482 0 -484 0 *
Ed
 1e-07 1 1 0
1  34 0 3.14159265358979 6.28318530717959
2  50 11 0 3.14159265358979 6.28318530717959
2  51 8 0 3.14159265358979 6.28318530717959
4 C0 11 0 8 0
0

0101000
+489 0 -493 0 *
Wi

0101100
+483 0 -431 0 +481 0 +430 0 *
Fa
0  1e-07 11 0

0111000
+429 0 *
Ed
 1e-07 1 1 0
1  35 0 3.14159265358979 6.28318530717959
2  52 8 0 3.14159265358979 6.28318530717959
4 C0 8 0 9 0
0

0101000
+491 0 -494 0 *
Wi

0101100
+492 0 -430 0 +488 0 +427 0 *
Fa
0  1e-07 8 0

0111000
+426 0 *
Wi

0101100
-490 0 -427 0 *
Fa
0  1e-07 9 0

0111000
+424 0 *
Ed
 1e-07 1 1 0
1  36 0 3.14159265358979 6.28318530717959
2  53 5 0 3.14159265358979 6.28318530717959
4 C0 5 0 6 0
0

0101000
+499 0 -501 0 *
Ed
 1e-07 1 1 0
1  37 0 3.14159265358979 6.28318530717959
2  54 5 0 3.14159265358979 6.28318530717959
2  55 2 0 3.14159265358979 6.28318530717959
4 C0 5 0 2 0
0

0101000
+506 0 -510 0 *
Wi

0101100
+500 0 -422 0 +498 0 +421 0 *
Fa
0  1e-07 5 0

0111000
+420 0 *
Ed
 1e-07 1 1 0
1  38 0 3.14159265358979 6.28318530717959
2  56 2 0 3.14159265358979 6.28318530717959
4 C0 2 0 3 0
0

0101000
+508 0 -511 0 *
Wi

0101100
+509 0 -421 0 +505 0 +418 0 *
Fa
0  1e-07 2 0

0111000
+417 0 *
Wi

0101100
-507 0 -418 0 *
Fa
0  1e-07 3 0

0111000
+415 0 *
Wi

0101100
+463 0 +442 0 *
Ve
1e-07
9 -7.5 45
0 0

0101101
*
Ve
1e-07
1.01686373080515e-14 -7.5 45
0 0

0101101
*
Ed
 1e-07 1 1 0
1  39 0 -7.25 1.74999999999999
4 C0 18 0 24 0
0

0101000
+412 0 -411 0 *
Ve
1e-07
9 -4.50206141115214e-17 45
0 0

0101101
*
Ed
 1e-07 1 1 0
1  40 0 4.50206141115214e-17 7.5
4 C0 18 0 25 0
0

0101000
+409 0 -412 0 *
Ve
1e-07
7.50000000000001 0 45
0 0

0101101
*
Ed
 1e-07 1 1 0
1  41 0 -7.84999999999999 -6.35
4 C0 18 0 26 0
0

0101000
+407 0 -409 0 *
Ve
1e-07
7.50000000000001 3.75 45
0 0

0101101
*
Ed
 1e-07 1 1 0
1  42 0 -2.8125 0.9375
4 C0 18 0 27 0
0

0101000
+405 0 -407 0 *
Ve
1e-07
3.50000000000001 7.75 45
0 0

0101101
*
Ed
 1e-07 1 1 0
1  43 0 -2.56326208180123 3.09359216769115
4 C0 18 0 28 0
0

0101000
+403 0 -405 0 *
Ve
1e-07
-3.5 7.74999999999999 45
0 0

0101101
*
Ed
 1e-07 1 1 0
1  44 0 -3 4.00000000000001
4 C0 18 0 29 0
0

0101000
+401 0 -403 0 *
Ve
1e-07
-7.49999999999999 3.75 45
0 0

0101101
*
Ed
 1e-07 1 1 0
1  45 0 -2.38648538650458 3.27036886298778
4 C0 18 0 30 0
0

0101000
+399 0 -401 0 *
Ve
1e-07
-7.5 -1.74608049373359e-15 45
0 0

0101101
*
Ed
 1e-07 1 1 0
1  46 0 -0.937500000000001 2.8125
4 C0 18 0 31 0
0

0101000
+397 0 -399 0 *
Ed
 1e-07 1 1 0
1  47 0 1.5707963267949 3.14159265358979
2  57 32 0 1.5707963267949 3.14159265358979
4 C0 18 0 32 0
0

0101000
+411 0 -397 0 *
Wi

0101100
-410 0 -408 0 -406 0 -404 0 -402 0 -400 0 -398 0 -396 0 -395 0 *
Fa
0  1e-07 18 0

0111000
+413 0 +394 0 *
Ve
1e-07
9 -8.5 0
0 0

0101101
*
Ve
1e-07
9 -8.5 60
0 0

0101101
*
Ed
 1e-07 1 1 0
1  48 0 0 60
4 C0 25 0 6 0
0

0101000
+392 0 -391 0 *
Ve
1e-07
9 -4.50206141115213e-17 60
0 0

0101101
*
Ed
 1e-07 1 1 0
1  49 0 0 8.5
4 C0 25 0 33 0
0

0101000
+391 0 -389 0 *
Ed
 1e-07 1 1 0
1  50 0 17.5 32.5
4 C0 25 0 26 0
0

0101000
+409 0 -389 0 *
Ve
1e-07
9 -7.5 30
0 0

0101101
*
Ed
 1e-07 1 1 0
1  51 0 30 45
4 C0 25 0 24 0
0

0101000
+386 0 -412 0 *
Ve
1e-07
9 -4.50206141115214e-17 30
0 0

0101101
*
Ed
 1e-07 1 1 0
1  52 0 -7.5 -4.50206141115214e-17
4 C0 25 0 15 0
0

0101000
+386 0 -384 0 *
Ve
1e-07
9 -4.50206141115214e-17 15
0 0

0101101
*
Ed
 1e-07 1 1 0
1  53 0 3.75 18.75
4 C0 25 0 26 0
0

0101000
+382 0 -384 0 *
Ve
1e-07
9 -7.5 15
0 0

0101101
*
Ed
 1e-07 1 1 0
1  54 0 4.50206141115214e-17 7.5
4 C0 25 0 14 0
0

0101000
+382 0 -380 0 *
Ve
1e-07
9 -7.5 0
0 0

0101101
*
Ed
 1e-07 1 1 0
1  55 0 0 15
4 C0 25 0 34 0
0

0101000
+378 0 -380 0 *
Ed
 1e-07 1 1 0
1  56 0 0 1
4 C0 25 0 22 0
0

0101000
+392 0 -378 0 *
Wi

0101100
+390 0 +388 0 -387 0 +408 0 -385 0 +383 0 -381 0 +379 0 -377 0 -376 0 
*
Fa
0  1e-07 25 0

0111000
+375 0 *
Ve
1e-07
-7.5 -1.74608049373359e-15 30
0 0

0101101
*
Ed
 1e-07 1 1 0
1  57 0 30 45
2  58 32 0 30 45
4 G1 32 0 31 0
0

0101000
+373 0 -397 0 *
Ve
1e-07
1.01686373080515e-14 -7.5 30
0 0

0101101
*
Ed
 1e-07 1 1 0
1  58 0 3.14159265358979 4.71238898038469
2  59 32 0 3.14159265358979 4.71238898038469
4 C0 32 0 15 0
0

0101000
+373 0 -371 0 *
Ed
 1e-07 1 1 0
1  59 0 30 45
2  60 32 0 30 45
4 G1 32 0 24 0
0

0101000
+371 0 -411 0 *
Wi

0101100
+395 0 -372 0 +370 0 +369 0 *
Fa
0  1e-07 32 0

0111000
+368 0 *
Ve
1e-07
-7.49999999999999 3.75 30
0 0

0101101
*
Ed
 1e-07 1 1 0
1  60 0 30 45
4 C0 31 0 30 0
0

0101000
+366 0 -399 0 *
Ed
 1e-07 1 1 0
1  61 0 -2.8125 0.937500000000001
4 C0 31 0 15 0
0

0101000
+366 0 -373 0 *
Wi

0101100
+396 0 -365 0 +364 0 +372 0 *
Fa
0  1e-07 31 0

0111000
+363 0 *
Ve
1e-07
-3.5 7.74999999999999 30
0 0

0101101
*
Ed
 1e-07 1 1 0
1  62 0 30 45
4 C0 30 0 29 0
0

0101000
+361 0 -401 0 *
Ed
 1e-07 1 1 0
1  63 0 -3.27036886298778 2.38648538650458
4 C0 30 0 15 0
0

0101000
+361 0 -366 0 *
Wi

0101100
+398 0 -360 0 +359 0 +365 0 *
Fa
0  1e-07 30 0

0111000
+358 0 *
Ve
1e-07
3.50000000000001 7.75 30
0 0

0101101
*
Ed
 1e-07 1 1 0
1  64 0 30 45
4 C0 29 0 28 0
0

0101000
+356 0 -403 0 *
Ed
 1e-07 1 1 0
1  65 0 -4.00000000000001 3
4 C0 29 0 15 0
0

0101000
+356 0 -361 0 *
Wi

0101100
+400 0 -355 0 +354 0 +360 0 *
Fa
0  1e-07 29 0

0111000
+353 0 *
Ve
1e-07
7.50000000000001 3.75 30
0 0

0101101
*
Ed
 1e-07 1 1 0
1  66 0 30 45
4 C0 28 0 27 0
0

0101000
+351 0 -405 0 *
Ed
 1e-07 1 1 0
1  67 0 -3.09359216769115 2.56326208180123
4 C0 28 0 15 0
0

0101000
+351 0 -356 0 *
Wi

0101100
+402 0 -350 0 +349 0 +355 0 *
Fa
0  1e-07 28 0

0111000
+348 0 *
Wi

0101100
+437 0 +470 0 *
Ve
1e-07
7.50000000000001 0 30
0 0

0101101
*
Ed
 1e-07 1 1 0
1  68 0 6.35 7.84999999999999
4 C0 15 0 26 0
0

0101000
+384 0 -345 0 *
Ed
 1e-07 1 1 0
1  69 0 -1.74999999999999 7.25
4 C0 15 0 24 0
0

0101000
+371 0 -386 0 *
Ed
 1e-07 1 1 0
1  70 0 -0.9375 2.8125
4 C0 15 0 27 0
0

0101000
+345 0 -351 0 *
Wi

0101100
-344 0 -383 0 -343 0 -370 0 -364 0 -359 0 -354 0 -349 0 -342 0 *
Fa
0  1e-07 15 0

0111000
-346 0 -341 0 *
Wi

0101100
+473 0 +436 0 *
Ve
1e-07
7.50000000000001 0 15
0 0

0101101
*
Ed
 1e-07 1 1 0
1  71 0 -7.84999999999999 -6.35
4 C0 14 0 26 0
0

0101000
+338 0 -382 0 *
Ve
1e-07
7.50000000000001 3.75 15
0 0

0101101
*
Ed
 1e-07 1 1 0
1  72 0 -2.8125 0.9375
4 C0 14 0 35 0
0

0101000
+336 0 -338 0 *
Ve
1e-07
3.50000000000001 7.75 15
0 0

0101101
*
Ed
 1e-07 1 1 0
1  73 0 -2.56326208180123 3.09359216769115
4 C0 14 0 36 0
0

0101000
+334 0 -336 0 *
Ve
1e-07
-3.5 7.74999999999999 15
0 0

0101101
*
Ed
 1e-07 1 1 0
1  74 0 -3 4.00000000000001
4 C0 14 0 37 0
0

0101000
+332 0 -334 0 *
Ve
1e-07
-7.49999999999999 3.75 15
0 0

0101101
*
Ed
 1e-07 1 1 0
1  75 0 -2.38648538650458 3.27036886298778
4 C0 14 0 38 0
0

0101000
+330 0 -332 0 *
Ve
1e-07
-7.5 -1.74608049373359e-15 15
0 0

0101101
*
Ed
 1e-07 1 1 0
1  76 0 -0.937500000000001 2.8125
4 C0 14 0 39 0
0

0101000
+328 0 -330 0 *
Ve
1e-07
1.01686373080515e-14 -7.5 15
0 0

0101101
*
Ed
 1e-07 1 1 0
1  77 0 1.5707963267949 3.14159265358979
2  61 40 0 1.5707963267949 3.14159265358979
4 C0 14 0 40 0
0

0101000
+326 0 -328 0 *
Ed
 1e-07 1 1 0
1  78 0 -7.25 1.74999999999999
4 C0 14 0 34 0
0

0101000
+380 0 -326 0 *
Wi

0101100
-337 0 -335 0 -333 0 -331 0 -329 0 -327 0 -325 0 -324 0 -379 0 *
Fa
0  1e-07 14 0

0111000
+339 0 +323 0 *
Ve
1e-07
7.50000000000001 0 0
0 0

0101101
*
Ed
 1e-07 1 1 0
1  79 0 0 15
4 C0 35 0 26 0
0

0101000
+321 0 -338 0 *
Ve
1e-07
7.50000000000001 3.75 0
0 0

0101101
*
Ed
 1e-07 1 1 0
1  80 0 0 3.75
4 C0 35 0 22 0
0

0101000
+321 0 -319 0 *
Ed
 1e-07 1 1 0
1  81 0 0 15
4 C0 35 0 36 0
0

0101000
+319 0 -336 0 *
Wi

0101100
+335 0 -320 0 +318 0 +317 0 *
Fa
0  1e-07 35 0

0111000
+316 0 *
Ed
 1e-07 1 1 0
1  82 0 30 45
4 C0 27 0 26 0
0

0101000
+345 0 -407 0 *
Wi

0101100
+404 0 -314 0 +342 0 +350 0 *
Fa
0  1e-07 27 0

0111000
+313 0 *
Ve
1e-07
3.50000000000001 7.75 0
0 0

0101101
*
Ed
 1e-07 1 1 0
1  83 0 0 5.65685424949238
4 C0 36 0 22 0
0

0101000
+319 0 -311 0 *
Ed
 1e-07 1 1 0
1  84 0 0 15
4 C0 36 0 37 0
0

0101000
+311 0 -334 0 *
Wi

0101100
+333 0 -317 0 +310 0 +309 0 *
Fa
0  1e-07 36 0

0111000
+308 0 *
Ve
1e-07
-3.5 7.74999999999999 0
0 0

0101101
*
Ed
 1e-07 1 1 0
1  85 0 0 7.00000000000001
4 C0 37 0 22 0
0

0101000
+311 0 -306 0 *
Ed
 1e-07 1 1 0
1  86 0 0 15
4 C0 37 0 38 0
0

0101000
+306 0 -332 0 *
Wi

0101100
+331 0 -309 0 +305 0 +304 0 *
Fa
0  1e-07 37 0

0111000
+303 0 *
Ve
1e-07
-7.49999999999999 3.75 0
0 0

0101101
*
Ed
 1e-07 1 1 0
1  87 0 0 5.65685424949237
4 C0 38 0 22 0
0

0101000
+306 0 -301 0 *
Ed
 1e-07 1 1 0
1  88 0 0 15
4 C0 38 0 39 0
0

0101000
+301 0 -330 0 *
Wi

0101100
+329 0 -304 0 +300 0 +299 0 *
Fa
0  1e-07 38 0

0111000
+298 0 *
Ve
1e-07
-7.5 -1.74608049373359e-15 0
0 0

0101101
*
Ed
 1e-07 1 1 0
1  89 0 -1.02140518265514e-14 3.74999999999999
4 C0 39 0 22 0
0

0101000
+301 0 -296 0 *
Ed
 1e-07 1 1 0
1  90 0 0 15
2  62 40 0 0 15
4 G1 39 0 40 0
0

0101000
+296 0 -328 0 *
Wi

0101100
+327 0 -299 0 +295 0 +294 0 *
Fa
0  1e-07 39 0

0111000
+293 0 *
Ve
1e-07
1.01686373080515e-14 -7.5 0
0 0

0101101
*
Ed
 1e-07 1 1 0
1  91 0 3.14159265358979 4.71238898038469
2  63 40 0 3.14159265358979 4.71238898038469
4 C0 40 0 22 0
0

0101000
+296 0 -291 0 *
Ed
 1e-07 1 1 0
1  92 0 0 15
2  64 40 0 0 15
4 G1 40 0 34 0
0

0101000
+291 0 -326 0 *
Wi

0101100
+325 0 -294 0 +290 0 +289 0 *
Fa
0  1e-07 40 0

0111000
+288 0 *
Ed
 1e-07 1 1 0
1  93 0 0 8.99999999999999
4 C0 34 0 22 0
0

0101000
+378 0 -291 0 *
Wi

0101100
+324 0 -289 0 -286 0 +377 0 *
Fa
0  1e-07 34 0

0111000
+285 0 *
Wi

0101100
+410 0 -369 0 +343 0 +385 0 *
Fa
0  1e-07 24 0

0111000
+283 0 *
Ve
1e-07
55.9 -1.77635683940025e-15 60
0 0

0101101
*
Ed
 1e-07 1 1 0
1  94 0 -46.9 9.71519913312905e-33
4 C0 26 0 33 0
0

0101000
+389 0 -281 0 *
Ve
1e-07
55.9 -1.77635683940025e-15 0
0 0

0101101
*
Ed
 1e-07 1 1 0
1  95 0 0 60
4 C0 26 0 41 0
0

0101000
+279 0 -281 0 *
Ed
 1e-07 1 1 0
1  96 0 -9.71519913312905e-33 48.4
4 C0 26 0 22 0
0

0101000
+279 0 -321 0 *
Wi

0101100
+387 0 +280 0 -278 0 +277 0 +320 0 +337 0 +381 0 +344 0 +314 0 +406 0 
*
Fa
0  1e-07 26 0

0111000
+276 0 *
Ve
1e-07
60 -4.1 60
0 0

0101101
*
Ed
 1e-07 1 1 0
1  97 0 -5.79827560572969 0
4 C0 41 0 33 0
0

0101000
+281 0 -274 0 *
Ve
1e-07
60 -4.1 0
0 0

0101101
*
Ed
 1e-07 1 1 0
1  98 0 0 60
4 C0 41 0 42 0
0

0101000
+272 0 -274 0 *
Ed
 1e-07 1 1 0
1  99 0 0 5.79827560572969
4 C0 41 0 22 0
0

0101000
+272 0 -279 0 *
Wi

0101100
+273 0 -271 0 +270 0 +278 0 *
Fa
0  1e-07 41 0

0111000
+269 0 *
Ve
1e-07
60 -8.5 60
0 0

0101101
*
Ed
 1e-07 1 1 0
1  100 0 0 4.4
4 C0 42 0 33 0
0

0101000
+274 0 -267 0 *
Ve
1e-07
60 -8.5 0
0 0

0101101
*
Ed
 1e-07 1 1 0
1  101 0 0 60
4 C0 42 0 6 0
0

0101000
+265 0 -267 0 *
Ed
 1e-07 1 1 0
1  102 0 0 4.4
4 C0 42 0 22 0
0

0101000
+272 0 -265 0 *
Wi

0101100
+266 0 -264 0 -263 0 +271 0 *
Fa
0  1e-07 42 0

0111000
+262 0 *
Wi

0101100
+431 0 +480 0 *
Wi

0101100
+422 0 +497 0 *
Ed
 1e-07 1 1 0
1  103 0 0 51
4 C0 6 0 33 0
0

0101000
+267 0 -391 0 *
Ed
 1e-07 1 1 0
1  104 0 0 51
4 C0 6 0 22 0
0

0101000
+265 0 -392 0 *
Wi

0101100
+258 0 -390 0 -257 0 +264 0 *
Fa
0  1e-07 6 0

0111000
+260 0 +259 0 +256 0 *
Wi

0101100
-388 0 -258 0 -266 0 -273 0 -280 0 *
Fa
0  1e-07 33 0

0111000
+254 0 *
Wi

0101100
+453 0 +446 0 *
Wi

0101100
-290 0 -295 0 -300 0 -305 0 -310 0 -318 0 -277 0 -270 0 +263 0 +257 0 
+376 0 +286 0 *
Fa
0  1e-07 22 0

0111000
-252 0 -251 0 *
Sh

0101100
+502 0 +495 0 +485 0 +478 0 +468 0 +458 0 +448 0 +444 0 +440 0 +438 0 
+434 0 +432 0 +428 0 +425 0 +423 0 +419 0 +416 0 +414 0 +393 0 +374 0 
+367 0 +362 0 +357 0 +352 0 +347 0 -340 0 +322 0 +315 0 +312 0 +307 0 
+302 0 +297 0 +292 0 +287 0 +284 0 +282 0 +275 0 +268 0 +261 0 +255 0 
+253 0 -250 0 *
So

0100000
+249 0 *
Ve
1e-07
-42.6765625 -22 48
0 0

0101101
*
Ve
1e-07
-42 -21.3234375 48
0 0

0101101
*
Ed
 1e-07 1 1 0
1  105 0 -0.478401931646526 0.478401931646523
2  65 43 0 -0.478401931646526 0.478401931646523
2  66 44 0 -0.478401931646526 0.478401931646523
4 CN 43 0 44 0
0

0101000
+247 0 -246 0 *
Ve
1e-07
-49.3234375 -22 48
0 0

0101101
*
Ed
 1e-07 1 1 0
1  106 0 0 3.14159265358979
2  67 43 0 0 3.14159265358979
4 C0 43 0 45 0
0

0101000
+247 0 -244 0 *
Ve
1e-07
-50 -21.3234375 48
0 0

0101101
*
Ed
 1e-07 1 1 0
1  107 0 -0.478401931646523 0.478401931646526
2  68 43 0 -0.478401931646523 0.478401931646526
2  69 44 0 -0.478401931646523 0.478401931646526
4 CN 43 0 44 0
0

0101000
+242 0 -244 0 *
Ed
 1e-07 1 1 0
1  108 0 0 3.14159265358979
2  70 43 0 0 3.14159265358979
2  71 46 0 0 3.14159265358979
4 C0 43 0 46 0
0

0101000
+246 0 -242 0 *
Wi

0101100
-245 0 +243 0 -241 0 -240 0 *
Fa
0  1e-07 43 0

0111000
+239 0 *
Ve
1e-07
-42 -8.5 48
0 0

0101101
*
Ed
 1e-07 1 1 0
1  109 0 -7.3234375 5.5
2  72 46 0 -7.3234375 5.5
2  73 47 0 -7.3234375 5.5
4 CN 46 0 47 0
0

0101000
+246 0 -237 0 *
Ve
1e-07
-50 -8.5 48
0 0

0101101
*
Ed
 1e-07 1 1 0
1  110 0 -5.5 7.3234375
2  74 46 0 -5.5 7.3234375
2  75 47 0 -5.5 7.3234375
4 CN 46 0 47 0
0

0101000
+235 0 -242 0 *
Ed
 1e-07 1 1 0
1  111 0 0 3.14159265358979
2  76 46 0 0 3.14159265358979
4 C0 46 0 48 0
0

0101000
+237 0 -235 0 *
Wi

0101100
-236 0 +240 0 -234 0 -233 0 *
Fa
0  1e-07 46 0

0111000
+232 0 *
Ve
1e-07
-42.6765625 -22 12
0 0

0101101
*
Ve
1e-07
-42 -21.3234375 12
0 0

0101101
*
Ed
 1e-07 1 1 0
1  112 0 -0.478401931646526 0.478401931646523
2  77 49 0 -0.478401931646526 0.478401931646523
2  78 50 0 -0.478401931646526 0.478401931646523
4 CN 49 0 50 0
0

0101000
+230 0 -229 0 *
Ve
1e-07
-49.3234375 -22 12
0 0

0101101
*
Ed
 1e-07 1 1 0
1  113 0 0 3.14159265358979
2  79 49 0 0 3.14159265358979
4 C0 49 0 51 0
0

0101000
+230 0 -227 0 *
Ve
1e-07
-50 -21.3234375 12
0 0

0101101
*
Ed
 1e-07 1 1 0
1  114 0 -0.478401931646523 0.478401931646526
2  80 49 0 -0.478401931646523 0.478401931646526
2  81 50 0 -0.478401931646523 0.478401931646526
4 CN 49 0 50 0
0

0101000
+225 0 -227 0 *
Ed
 1e-07 1 1 0
1  115 0 0 3.14159265358979
2  82 49 0 0 3.14159265358979
2  83 52 0 0 3.14159265358979
4 C0 49 0 52 0
0

0101000
+229 0 -225 0 *
Wi

0101100
-228 0 +226 0 -224 0 -223 0 *
Fa
0  1e-07 49 0

0111000
+222 0 *
Ve
1e-07
-42 -8.5 12
0 0

0101101
*
Ed
 1e-07 1 1 0
1  116 0 -7.3234375 5.5
2  84 52 0 -7.3234375 5.5
2  85 53 0 -7.3234375 5.5
4 CN 52 0 53 0
0

0101000
+229 0 -220 0 *
Ve
1e-07
-50 -8.5 12
0 0

0101101
*
Ed
 1e-07 1 1 0
1  117 0 -5.5 7.3234375
2  86 52 0 -5.5 7.3234375
2  87 53 0 -5.5 7.3234375
4 CN 52 0 53 0
0

0101000
+218 0 -225 0 *
Ed
 1e-07 1 1 0
1  118 0 0 3.14159265358979
2  88 52 0 0 3.14159265358979
4 C0 52 0 48 0
0

0101000
+220 0 -218 0 *
Wi

0101100
-219 0 +223 0 -217 0 -216 0 *
Fa
0  1e-07 52 0

0111000
+215 0 *
Ve
1e-07
4 -4.89842541528951e-16 15
0 0

0101101
*
Ve
1e-07
-4 -4.89842541528951e-16 15
0 0

0101101
*
Ed
 1e-07 1 1 0
1  119 0 0 3.14159265358979
2  89 54 0 0 3.14159265358979
4 C0 54 0 55 0
0

0101000
+213 0 -212 0 *
Ve
1e-07
-4 4.89842541528951e-16 30
0 0

0101101
*
Ed
 1e-07 1 1 0
1  120 0 -10.5 4.5
2  90 54 0 -10.5 4.5
2  91 56 0 -10.5 4.5
4 CN 54 0 56 0
0

0101000
+212 0 -210 0 *
Ve
1e-07
4 -4.89842541528951e-16 30
0 0

0101101
*
Ed
 1e-07 1 1 0
1  121 0 3.14159265358979 6.28318530717959
2  92 54 0 3.14159265358979 6.28318530717959
4 C0 54 0 57 0
0

0101000
+210 0 -208 0 *
Ed
 1e-07 1 1 0
1  122 0 -4.5 10.5
2  93 54 0 -4.5 10.5
2  94 56 0 -4.5 10.5
4 CN 54 0 56 0
0

0101000
+208 0 -213 0 *
Wi

0101100
+211 0 +209 0 +207 0 +206 0 *
Fa
0  1e-07 54 0

0111000
+205 0 *
Ve
1e-07
4 -4.89842541528951e-16 45
0 0

0101101
*
Ve
1e-07
-4 -4.89842541528951e-16 45
0 0

0101101
*
Ed
 1e-07 1 1 0
1  123 0 0 3.14159265358979
2  95 58 0 0 3.14159265358979
4 C0 58 0 59 0
0

0101000
+203 0 -202 0 *
Ve
1e-07
-4 4.89842541528951e-16 60
0 0

0101101
*
Ed
 1e-07 1 1 0
1  124 0 -7.5 7.5
2  96 58 0 -7.5 7.5
2  97 60 0 -7.5 7.5
4 CN 58 0 60 0
0

0101000
+202 0 -200 0 *
Ve
1e-07
4 -4.89842541528951e-16 60
0 0

0101101
*
Ed
 1e-07 1 1 0
1  125 0 3.14159265358979 6.28318530717959
2  98 58 0 3.14159265358979 6.28318530717959
4 C0 58 0 61 0
0

0101000
+200 0 -198 0 *
Ed
 1e-07 1 1 0
1  126 0 -7.5 7.5
2  99 58 0 -7.5 7.5
2  100 60 0 -7.5 7.5
4 CN 58 0 60 0
0

0101000
+198 0 -203 0 *
Wi

0101100
+201 0 +199 0 +197 0 +196 0 *
Fa
0  1e-07 58 0

0111000
+195 0 *
Ed
 1e-07 1 1 0
1  127 0 0 3.14159265358979
2  101 60 0 0 3.14159265358979
4 C0 60 0 61 0
0

0101000
+198 0 -200 0 *
Ed
 1e-07 1 1 0
1  128 0 3.14159265358979 6.28318530717959
2  102 60 0 3.14159265358979 6.28318530717959
4 C0 60 0 59 0
0

0101000
+202 0 -203 0 *
Wi

0101100
+193 0 -199 0 +192 0 -196 0 *
Fa
0  1e-07 60 0

0111000
+191 0 *
Ed
 1e-07 1 1 0
1  129 0 0 3.14159265358979
2  103 56 0 0 3.14159265358979
4 C0 56 0 57 0
0

0101000
+208 0 -210 0 *
Ed
 1e-07 1 1 0
1  130 0 3.14159265358979 6.28318530717959
2  104 56 0 3.14159265358979 6.28318530717959
4 C0 56 0 55 0
0

0101000
+212 0 -213 0 *
Wi

0101100
+189 0 -209 0 +188 0 -206 0 *
Fa
0  1e-07 56 0

0111000
+187 0 *
Ed
 1e-07 1 1 0
1  131 0 3.14159265358979 6.28318530717959
2  105 53 0 3.14159265358979 6.28318530717959
4 C0 53 0 48 0
0

0101000
+218 0 -220 0 *
Ed
 1e-07 1 1 0
1  132 0 3.14159265358979 6.28318530717959
2  106 53 0 3.14159265358979 6.28318530717959
2  107 50 0 3.14159265358979 6.28318530717959
4 C0 53 0 50 0
0

0101000
+225 0 -229 0 *
Wi

0101100
+219 0 -185 0 +217 0 +184 0 *
Fa
0  1e-07 53 0

0111000
+183 0 *
Ed
 1e-07 1 1 0
1  133 0 3.14159265358979 6.28318530717959
2  108 50 0 3.14159265358979 6.28318530717959
4 C0 50 0 51 0
0

0101000
+227 0 -230 0 *
Wi

0101100
+228 0 -184 0 +224 0 +181 0 *
Fa
0  1e-07 50 0

0111000
+180 0 *
Wi

0101100
-226 0 -181 0 *
Fa
0  1e-07 51 0

0111000
+178 0 *
Ed
 1e-07 1 1 0
1  134 0 3.14159265358979 6.28318530717959
2  109 47 0 3.14159265358979 6.28318530717959
4 C0 47 0 48 0
0

0101000
+235 0 -237 0 *
Ed
 1e-07 1 1 0
1  135 0 3.14159265358979 6.28318530717959
2  110 47 0 3.14159265358979 6.28318530717959
2  111 44 0 3.14159265358979 6.28318530717959
4 C0 47 0 44 0
0

0101000
+242 0 -246 0 *
Wi

0101100
+236 0 -176 0 +234 0 +175 0 *
Fa
0  1e-07 47 0

0111000
+174 0 *
Ed
 1e-07 1 1 0
1  136 0 3.14159265358979 6.28318530717959
2  112 44 0 3.14159265358979 6.28318530717959
4 C0 44 0 45 0
0

0101000
+244 0 -247 0 *
Wi

0101100
+245 0 -175 0 +241 0 +172 0 *
Fa
0  1e-07 44 0

0111000
+171 0 *
Wi

0101100
-243 0 -172 0 *
Fa
0  1e-07 45 0

0111000
+169 0 *
Wi

0101100
+188 0 +211 0 *
Ve
1e-07
-9 -7.5 15
0 0

0101101
*
Ve
1e-07
-8.33172777731788e-15 -7.5 15
0 0

0101101
*
Ed
 1e-07 1 1 0
1  137 0 -7.25 1.74999999999999
4 C0 55 0 62 0
0

0101000
+166 0 -165 0 *
Ve
1e-07
-9 -4.50206141115214e-17 15
0 0

0101101
*
Ed
 1e-07 1 1 0
1  138 0 4.50206141115214e-17 7.5
4 C0 55 0 63 0
0

0101000
+163 0 -166 0 *
Ve
1e-07
-7.50000000000001 0 15
0 0

0101101
*
Ed
 1e-07 1 1 0
1  139 0 -7.84999999999999 -6.35
4 C0 55 0 64 0
0

0101000
+161 0 -163 0 *
Ve
1e-07
-7.50000000000001 3.75 15
0 0

0101101
*
Ed
 1e-07 1 1 0
1  140 0 -2.8125 0.9375
4 C0 55 0 65 0
0

0101000
+159 0 -161 0 *
Ve
1e-07
-3.50000000000001 7.75 15
0 0

0101101
*
Ed
 1e-07 1 1 0
1  141 0 -2.56326208180123 3.09359216769115
4 C0 55 0 66 0
0

0101000
+157 0 -159 0 *
Ve
1e-07
3.5 7.74999999999999 15
0 0

0101101
*
Ed
 1e-07 1 1 0
1  142 0 -3 4.00000000000001
4 C0 55 0 67 0
0

0101000
+155 0 -157 0 *
Ve
1e-07
7.49999999999999 3.75 15
0 0

0101101
*
Ed
 1e-07 1 1 0
1  143 0 -2.38648538650458 3.27036886298778
4 C0 55 0 68 0
0

0101000
+153 0 -155 0 *
Ve
1e-07
7.5 -1.74608049373359e-15 15
0 0

0101101
*
Ed
 1e-07 1 1 0
1  144 0 -0.937500000000001 2.8125
4 C0 55 0 69 0
0

0101000
+151 0 -153 0 *
Ed
 1e-07 1 1 0
1  145 0 1.5707963267949 3.14159265358979
2  113 70 0 1.5707963267949 3.14159265358979
4 C0 55 0 70 0
0

0101000
+165 0 -151 0 *
Wi

0101100
-164 0 -162 0 -160 0 -158 0 -156 0 -154 0 -152 0 -150 0 -149 0 *
Fa
0  1e-07 55 0

0111000
+167 0 +148 0 *
Ve
1e-07
-9 -8.5 60
0 0

0101101
*
Ve
1e-07
-9 -8.5 0
0 0

0101101
*
Ed
 1e-07 1 1 0
1  146 0 0 60
4 C0 63 0 48 0
0

0101000
+146 0 -145 0 *
Ve
1e-07
-9 -4.50206141115213e-17 0
0 0

0101101
*
Ed
 1e-07 1 1 0
1  147 0 0 8.5
4 C0 63 0 71 0
0

0101000
+145 0 -143 0 *
Ed
 1e-07 1 1 0
1  148 0 17.5 32.5
4 C0 63 0 64 0
0

0101000
+163 0 -143 0 *
Ve
1e-07
-9 -7.5 30
0 0

0101101
*
Ed
 1e-07 1 1 0
1  149 0 30 45
4 C0 63 0 62 0
0

0101000
+140 0 -166 0 *
Ve
1e-07
-9 -4.50206141115214e-17 30
0 0

0101101
*
Ed
 1e-07 1 1 0
1  150 0 -7.5 -4.50206141115214e-17
4 C0 63 0 57 0
0

0101000
+140 0 -138 0 *
Ve
1e-07
-9 -4.50206141115214e-17 45
0 0

0101101
*
Ed
 1e-07 1 1 0
1  151 0 3.75 18.75
4 C0 63 0 64 0
0

0101000
+136 0 -138 0 *
Ve
1e-07
-9 -7.5 45
0 0

0101101
*
Ed
 1e-07 1 1 0
1  152 0 4.50206141115214e-17 7.5
4 C0 63 0 59 0
0

0101000
+136 0 -134 0 *
Ve
1e-07
-9 -7.5 60
0 0

0101101
*
Ed
 1e-07 1 1 0
1  153 0 0 15
4 C0 63 0 72 0
0

0101000
+132 0 -134 0 *
Ed
 1e-07 1 1 0
1  154 0 0 1
4 C0 63 0 61 0
0

0101000
+146 0 -132 0 *
Wi

0101100
+144 0 +142 0 -141 0 +162 0 -139 0 +137 0 -135 0 +133 0 -131 0 -130 0 
*
Fa
0  1e-07 63 0

0111000
+129 0 *
Ve
1e-07
7.5 -1.74608049373359e-15 30
0 0

0101101
*
Ed
 1e-07 1 1 0
1  155 0 30 45
2  114 70 0 30 45
4 G1 70 0 69 0
0

0101000
+127 0 -151 0 *
Ve
1e-07
-1.01686373080515e-14 -7.5 30
0 0

0101101
*
Ed
 1e-07 1 1 0
1  156 0 3.14159265358979 4.71238898038469
2  115 70 0 3.14159265358979 4.71238898038469
4 C0 70 0 57 0
0

0101000
+127 0 -125 0 *
Ed
 1e-07 1 1 0
1  157 0 30 45
2  116 70 0 30 45
4 G1 70 0 62 0
0

0101000
+125 0 -165 0 *
Wi

0101100
+149 0 -126 0 +124 0 +123 0 *
Fa
0  1e-07 70 0

0111000
+122 0 *
Ve
1e-07
7.49999999999999 3.75 30
0 0

0101101
*
Ed
 1e-07 1 1 0
1  158 0 30 45
4 C0 69 0 68 0
0

0101000
+120 0 -153 0 *
Ed
 1e-07 1 1 0
1  159 0 -2.8125 0.937500000000001
4 C0 69 0 57 0
0

0101000
+120 0 -127 0 *
Wi

0101100
+150 0 -119 0 +118 0 +126 0 *
Fa
0  1e-07 69 0

0111000
+117 0 *
Ve
1e-07
3.5 7.74999999999999 30
0 0

0101101
*
Ed
 1e-07 1 1 0
1  160 0 30 45
4 C0 68 0 67 0
0

0101000
+115 0 -155 0 *
Ed
 1e-07 1 1 0
1  161 0 -3.27036886298778 2.38648538650458
4 C0 68 0 57 0
0

0101000
+115 0 -120 0 *
Wi

0101100
+152 0 -114 0 +113 0 +119 0 *
Fa
0  1e-07 68 0

0111000
+112 0 *
Ve
1e-07
-3.50000000000001 7.75 30
0 0

0101101
*
Ed
 1e-07 1 1 0
1  162 0 30 45
4 C0 67 0 66 0
0

0101000
+110 0 -157 0 *
Ed
 1e-07 1 1 0
1  163 0 -4.00000000000001 3
4 C0 67 0 57 0
0

0101000
+110 0 -115 0 *
Wi

0101100
+154 0 -109 0 +108 0 +114 0 *
Fa
0  1e-07 67 0

0111000
+107 0 *
Ve
1e-07
-7.50000000000001 3.75 30
0 0

0101101
*
Ed
 1e-07 1 1 0
1  164 0 30 45
4 C0 66 0 65 0
0

0101000
+105 0 -159 0 *
Ed
 1e-07 1 1 0
1  165 0 -3.09359216769115 2.56326208180123
4 C0 66 0 57 0
0

0101000
+105 0 -110 0 *
Wi

0101100
+156 0 -104 0 +103 0 +109 0 *
Fa
0  1e-07 66 0

0111000
+102 0 *
Wi

0101100
+207 0 +189 0 *
Ve
1e-07
-7.50000000000001 0 30
0 0

0101101
*
Ed
 1e-07 1 1 0
1  166 0 6.35 7.84999999999999
4 C0 57 0 64 0
0

0101000
+138 0 -99 0 *
Ed
 1e-07 1 1 0
1  167 0 -1.74999999999999 7.25
4 C0 57 0 62 0
0

0101000
+125 0 -140 0 *
Ed
 1e-07 1 1 0
1  168 0 -0.9375 2.8125
4 C0 57 0 65 0
0

0101000
+99 0 -105 0 *
Wi

0101100
-98 0 -137 0 -97 0 -124 0 -118 0 -113 0 -108 0 -103 0 -96 0 *
Fa
0  1e-07 57 0

0111000
-100 0 -95 0 *
Wi

0101100
+192 0 +201 0 *
Ve
1e-07
-7.50000000000001 0 45
0 0

0101101
*
Ed
 1e-07 1 1 0
1  169 0 -7.84999999999999 -6.35
4 C0 59 0 64 0
0

0101000
+92 0 -136 0 *
Ve
1e-07
-7.50000000000001 3.75 45
0 0

0101101
*
Ed
 1e-07 1 1 0
1  170 0 -2.8125 0.9375
4 C0 59 0 73 0
0

0101000
+90 0 -92 0 *
Ve
1e-07
-3.50000000000001 7.75 45
0 0

0101101
*
Ed
 1e-07 1 1 0
1  171 0 -2.56326208180123 3.09359216769115
4 C0 59 0 74 0
0

0101000
+88 0 -90 0 *
Ve
1e-07
3.5 7.74999999999999 45
0 0

0101101
*
Ed
 1e-07 1 1 0
1  172 0 -3 4.00000000000001
4 C0 59 0 75 0
0

0101000
+86 0 -88 0 *
Ve
1e-07
7.49999999999999 3.75 45
0 0

0101101
*
Ed
 1e-07 1 1 0
1  173 0 -2.38648538650458 3.27036886298778
4 C0 59 0 76 0
0

0101000
+84 0 -86 0 *
Ve
1e-07
7.5 -1.74608049373359e-15 45
0 0

0101101
*
Ed
 1e-07 1 1 0
1  174 0 -0.937500000000001 2.8125
4 C0 59 0 77 0
0

0101000
+82 0 -84 0 *
Ve
1e-07
-1.2005546838785e-14 -7.5 45
0 0

0101101
*
Ed
 1e-07 1 1 0
1  175 0 1.5707963267949 3.14159265358979
2  117 78 0 1.5707963267949 3.14159265358979
4 C0 59 0 78 0
0

0101000
+80 0 -82 0 *
Ed
 1e-07 1 1 0
1  176 0 -7.25 1.74999999999999
4 C0 59 0 72 0
0

0101000
+134 0 -80 0 *
Wi

0101100
-91 0 -89 0 -87 0 -85 0 -83 0 -81 0 -79 0 -78 0 -133 0 *
Fa
0  1e-07 59 0

0111000
+93 0 +77 0 *
Ve
1e-07
-7.50000000000001 0 60
0 0

0101101
*
Ed
 1e-07 1 1 0
1  177 0 0 15
4 C0 73 0 64 0
0

0101000
+75 0 -92 0 *
Ve
1e-07
-7.50000000000001 3.75 60
0 0

0101101
*
Ed
 1e-07 1 1 0
1  178 0 0 3.75
4 C0 73 0 61 0
0

0101000
+75 0 -73 0 *
Ed
 1e-07 1 1 0
1  179 0 0 15
4 C0 73 0 74 0
0

0101000
+73 0 -90 0 *
Wi

0101100
+89 0 -74 0 +72 0 +71 0 *
Fa
0  1e-07 73 0

0111000
+70 0 *
Ed
 1e-07 1 1 0
1  180 0 30 45
4 C0 65 0 64 0
0

0101000
+99 0 -161 0 *
Wi

0101100
+158 0 -68 0 +96 0 +104 0 *
Fa
0  1e-07 65 0

0111000
+67 0 *
Ve
1e-07
-3.50000000000001 7.75 60
0 0

0101101
*
Ed
 1e-07 1 1 0
1  181 0 0 5.65685424949238
4 C0 74 0 61 0
0

0101000
+73 0 -65 0 *
Ed
 1e-07 1 1 0
1  182 0 0 15
4 C0 74 0 75 0
0

0101000
+65 0 -88 0 *
Wi

0101100
+87 0 -71 0 +64 0 +63 0 *
Fa
0  1e-07 74 0

0111000
+62 0 *
Ve
1e-07
3.5 7.74999999999999 60
0 0

0101101
*
Ed
 1e-07 1 1 0
1  183 0 0 7.00000000000001
4 C0 75 0 61 0
0

0101000
+65 0 -60 0 *
Ed
 1e-07 1 1 0
1  184 0 0 15
4 C0 75 0 76 0
0

0101000
+60 0 -86 0 *
Wi

0101100
+85 0 -63 0 +59 0 +58 0 *
Fa
0  1e-07 75 0

0111000
+57 0 *
Ve
1e-07
7.49999999999999 3.75 60
0 0

0101101
*
Ed
 1e-07 1 1 0
1  185 0 0 5.65685424949237
4 C0 76 0 61 0
0

0101000
+60 0 -55 0 *
Ed
 1e-07 1 1 0
1  186 0 0 15
4 C0 76 0 77 0
0

0101000
+55 0 -84 0 *
Wi

0101100
+83 0 -58 0 +54 0 +53 0 *
Fa
0  1e-07 76 0

0111000
+52 0 *
Ve
1e-07
7.5 -1.74608049373359e-15 60
0 0

0101101
*
Ed
 1e-07 1 1 0
1  187 0 -1.02140518265514e-14 3.74999999999999
4 C0 77 0 61 0
0

0101000
+55 0 -50 0 *
Ed
 1e-07 1 1 0
1  188 0 0 15
2  118 78 0 0 15
4 G1 77 0 78 0
0

0101000
+50 0 -82 0 *
Wi

0101100
+81 0 -53 0 +49 0 +48 0 *
Fa
0  1e-07 77 0

0111000
+47 0 *
Ve
1e-07
-1.38424563695186e-14 -7.5 60
0 0

0101101
*
Ed
 1e-07 1 1 0
1  189 0 3.14159265358979 4.71238898038469
2  119 78 0 3.14159265358979 4.71238898038469
4 C0 78 0 61 0
0

0101000
+50 0 -45 0 *
Ed
 1e-07 1 1 0
1  190 0 0 15
2  120 78 0 0 15
4 G1 78 0 72 0
0

0101000
+45 0 -80 0 *
Wi

0101100
+79 0 -48 0 +44 0 +43 0 *
Fa
0  1e-07 78 0

0111000
+42 0 *
Ed
 1e-07 1 1 0
1  191 0 0 8.99999999999999
4 C0 72 0 61 0
0

0101000
+132 0 -45 0 *
Wi

0101100
+78 0 -43 0 -40 0 +131 0 *
Fa
0  1e-07 72 0

0111000
+39 0 *
Wi

0101100
+164 0 -123 0 +97 0 +139 0 *
Fa
0  1e-07 62 0

0111000
+37 0 *
Ve
1e-07
-55.9 -1.77635683940025e-15 -7.105427357601e-15
0 0

0101101
*
Ed
 1e-07 1 1 0
1  192 0 -46.9 9.71519913312905e-33
4 C0 64 0 71 0
0

0101000
+143 0 -35 0 *
Ve
1e-07
-55.9 -1.77635683940025e-15 60
0 0

0101101
*
Ed
 1e-07 1 1 0
1  193 0 0 60
4 C0 64 0 79 0
0

0101000
+33 0 -35 0 *
Ed
 1e-07 1 1 0
1  194 0 -9.71519913312905e-33 48.4
4 C0 64 0 61 0
0

0101000
+33 0 -75 0 *
Wi

0101100
+141 0 +34 0 -32 0 +31 0 +74 0 +91 0 +135 0 +98 0 +68 0 +160 0 
*
Fa
0  1e-07 64 0

0111000
+30 0 *
Ve
1e-07
-60 -4.1 -7.105427357601e-15
0 0

0101101
*
Ed
 1e-07 1 1 0
1  195 0 -5.79827560572969 -0
4 C0 79 0 71 0
0

0101000
+35 0 -28 0 *
Ve
1e-07
-60 -4.1 60
0 0

0101101
*
Ed
 1e-07 1 1 0
1  196 0 0 60
4 C0 79 0 80 0
0

0101000
+26 0 -28 0 *
Ed
 1e-07 1 1 0
1  197 0 0 5.79827560572969
4 C0 79 0 61 0
0

0101000
+26 0 -33 0 *
Wi

0101100
+27 0 -25 0 +24 0 +32 0 *
Fa
0  1e-07 79 0

0111000
+23 0 *
Ve
1e-07
-60 -8.5 -7.105427357601e-15
0 0

0101101
*
Ed
 1e-07 1 1 0
1  198 0 0 4.4
4 C0 80 0 71 0
0

0101000
+28 0 -21 0 *
Ve
1e-07
-60 -8.5 60
0 0

0101101
*
Ed
 1e-07 1 1 0
1  199 0 0 60
4 C0 80 0 48 0
0

0101000
+19 0 -21 0 *
Ed
 1e-07 1 1 0
1  200 0 0 4.4
4 C0 80 0 61 0
0

0101000
+26 0 -19 0 *
Wi

0101100
+20 0 -18 0 -17 0 +25 0 *
Fa
0  1e-07 80 0

0111000
+16 0 *
Wi

0101100
+185 0 +216 0 *
Wi

0101100
+176 0 +233 0 *
Ed
 1e-07 1 1 0
1  201 0 0 51
4 C0 48 0 71 0
0

0101000
+21 0 -145 0 *
Ed
 1e-07 1 1 0
1  202 0 0 51
4 C0 48 0 61 0
0

0101000
+19 0 -146 0 *
Wi

0101100
+12 0 -144 0 -11 0 +18 0 *
Fa
0  1e-07 48 0

0111000
+14 0 +13 0 +10 0 *
Wi

0101100
-142 0 -12 0 -20 0 -27 0 -34 0 *
Fa
0  1e-07 71 0

0111000
+8 0 *
Wi

0101100
+197 0 +193 0 *
Wi

0101100
-44 0 -49 0 -54 0 -59 0 -64 0 -72 0 -31 0 -24 0 +17 0 +11 0 
+130 0 +40 0 *
Fa
0  1e-07 61 0

0111000
-6 0 -5 0 *
Sh

0101100
+238 0 +231 0 +221 0 +214 0 -204 0 -194 0 -190 0 -186 0 +182 0 +179 0 
+177 0 +173 0 +170 0 +168 0 +147 0 +128 0 +121 0 +116 0 +111 0 +106 0 
+101 0 -94 0 +76 0 +69 0 +66 0 +61 0 +56 0 +51 0 +46 0 +41 0 
+38 0 +36 0 +29 0 +22 0 +15 0 +9 0 +7 0 -4 0 *
So

0100000
+3 0 *
Co

1100000
+248 0 +2 0 *

+1 0 