DBRep_DrawableShape

CASCADE Topology V1, (c) Matra-Datavision
Locations 0
Curve2ds 124
1 0 0 1 0 
1 3.1415926535897931 0 0 -1 
1 3.1415926535897931 0 0 -1 
1 0 -3 1 0 
1 6.2831853071795862 0 0 1 
1 0 0 0 1 
1 0 0 1 0 
1 3.1415926535897931 0 0 -1 
1 3.1415926535897931 0 0 -1 
1 0 -3 1 0 
1 6.2831853071795862 0 0 1 
1 0 0 0 1 
1 0 37.5 1 0 
1 3.1415926535897931 25 0 -1 
1 3.1415926535897931 25 0 -1 
1 9.4247779607693793 12.5 -1 0 
1 6.2831853071795862 25 0 1 
1 0 25 0 1 
1 3.1415926535897931 25 0 1 
1 3.1415926535897931 25 0 1 
1 9.4247779607693793 12.5 -1 0 
1 4.7123889803846897 0 0 1 
1 0 37.5 1 0 
1 6.2831853071795862 25 0 -1 
1 0 25 0 -1 
1 0 37.5 1 0 
1 5.759586531581288 0 0 1 
1 9.4247779607693793 12.5 -1 0 
1 3.1415926535897931 12.5 -1 0 
1 0 37.5 1 0 
1 3.1415926535897931 12.5 -1 0 
1 0 37.5 1 0 
1 0 -3 1 0 
1 0 -3 1 0 
1 0 0 1 0 
1 0 0 1 0 
1 0 12.5 1 0 
1 3.1415926535897931 0 0 -1 
1 3.1415926535897931 0 0 -1 
1 9.4247779607693793 0 -1 0 
1 6.2831853071795862 0 0 1 
1 0 0 0 1 
1 0 0 1 0 
1 3.1415926535897931 0 0 -1 
1 3.1415926535897931 0 0 -1 
1 0 -3 1 0 
1 6.2831853071795862 0 0 1 
1 0 0 0 1 
1 0 0 1 0 
1 3.1415926535897931 0 0 -1 
1 3.1415926535897931 0 0 -1 
1 0 -3 1 0 
1 6.2831853071795862 0 0 1 
1 0 0 0 1 
1 9.4247779607693793 50 -1 0 
1 3.1415926535897931 43.75 0 -1 
1 3.1415926535897931 43.75 0 -1 
1 9.4247779607693793 37.5 -1 0 
1 6.2831853071795862 43.75 0 1 
1 0 43.75 0 1 
1 3.1415926535897931 43.75 0 1 
1 3.1415926535897931 43.75 0 1 
1 9.4247779607693793 37.5 -1 0 
1 4.7123889803846897 0 0 1 
1 9.4247779607693793 50 -1 0 
1 6.2831853071795862 43.75 0 -1 
1 0 43.75 0 -1 
1 9.4247779607693793 50 -1 0 
1 5.759586531581288 0 0 1 
1 9.4247779607693793 37.5 -1 0 
1 3.1415926535897931 0 0 1 
1 3.1415926535897931 0 0 1 
1 9.4247779607693793 0 -1 0 
1 4.7123889803846897 0 0 1 
1 0 12.5 1 0 
1 6.2831853071795862 0 0 -1 
1 0 0 0 -1 
1 0 12.5 1 0 
1 5.759586531581288 0 0 1 
1 9.4247779607693793 0 -1 0 
1 3.1415926535897931 0 -1 0 
1 0 12.5 1 0 
1 3.1415926535897931 37.5 -1 0 
1 3.1415926535897931 50 -1 0 
1 3.1415926535897931 37.5 -1 0 
1 3.1415926535897931 50 -1 0 
1 0 -3 1 0 
1 0 -3 1 0 
1 0 0 1 0 
1 0 0 1 0 
1 3.1415926535897931 0 -1 0 
1 0 12.5 1 0 
7 0 0  3 25 23  0 -1.5707963267948966  0 -1.5610463099949983  -8.8817841970012523e-16 -1.5415462763952017  1.7763568394002505e-15 -1.5122962259955073  -1.7763568394002505e-15 -1.4830461755958118  8.8817841970012523e-16 -1.4537961251961178  0 -1.4245460747964229  8.8817841970012523e-16 -1.3952960243967281  0 -1.366045973997033  0 -1.3367959235973383  -8.8817841970012523e-16 -1.3075458731976439  0 -1.2782958227979488  1.7763568394002505e-15 -1.2490457723982542  -1.7763568394002505e-15 -1.2197957219985591  2.6645352591003757e-15 -1.1905456715988647  -8.8817841970012523e-16 -1.1612956211991692  8.8817841970012523e-16 -1.1320455707994757  -8.8817841970012523e-16 -1.1027955203997799  8.8817841970012523e-16 -1.0735454700000846  -1.7763568394002505e-15 -1.0442954196003909  8.8817841970012523e-16 -1.015045369200696  -8.8817841970012523e-16 -0.9857953188010008  8.8817841970012523e-16 -0.95654526840130671  0 -0.93704523480150981  0 -0.92729521800161141 
 0 4 0.02925005039969478 1 0.058500100799389561 1 0.087750151199084345 1 0.11700020159877912 1 0.14625025199847391 1 0.17550030239816869 1 0.20475035279786347 1 0.23400040319755824 1 0.26325045359725302 1 0.29250050399694782 1 0.32175055439664257 1 0.35100060479633738 1 0.38025065519603213 1 0.40950070559572693 1 0.43875075599542168 1 0.46800080639511649 1 0.49725085679481129 1 0.52650090719450604 1 0.55575095759420079 1 0.58500100799389565 1 0.6142510583935904 1 0.64350110879328515 4
7 0 0  3 25 23  6.2831853071795862 -1.5707963267948966  6.2831853071795862 -1.5610463099949983  6.2831853071795853 -1.5415462763952017  6.283185307179588 -1.5122962259955073  6.2831853071795845 -1.4830461755958118  6.2831853071795871 -1.4537961251961178  6.2831853071795862 -1.4245460747964229  6.2831853071795871 -1.3952960243967281  6.2831853071795862 -1.366045973997033  6.2831853071795862 -1.3367959235973383  6.2831853071795853 -1.3075458731976439  6.2831853071795862 -1.2782958227979488  6.283185307179588 -1.2490457723982542  6.2831853071795845 -1.2197957219985591  6.2831853071795889 -1.1905456715988647  6.2831853071795853 -1.1612956211991692  6.2831853071795871 -1.1320455707994757  6.2831853071795853 -1.1027955203997799  6.2831853071795871 -1.0735454700000846  6.2831853071795845 -1.0442954196003909  6.2831853071795871 -1.015045369200696  6.2831853071795853 -0.9857953188010008  6.2831853071795871 -0.95654526840130671  6.2831853071795862 -0.93704523480150981  6.2831853071795862 -0.92729521800161141 
 0 4 0.02925005039969478 1 0.058500100799389561 1 0.087750151199084345 1 0.11700020159877912 1 0.14625025199847391 1 0.17550030239816869 1 0.20475035279786347 1 0.23400040319755824 1 0.26325045359725302 1 0.29250050399694782 1 0.32175055439664257 1 0.35100060479633738 1 0.38025065519603213 1 0.40950070559572693 1 0.43875075599542168 1 0.46800080639511649 1 0.49725085679481129 1 0.52650090719450604 1 0.55575095759420079 1 0.58500100799389565 1 0.6142510583935904 1 0.64350110879328515 4
1 0 -1.5707963267948966 1 0 
1 3.1415926535897931 4.7123889803846897 0 -1 
1 3.1415926535897931 4.7123889803846897 0 -1 
1 -1.5707963267948983 -0.92729521800161041 1 -5.6543194337129119e-16 
1 0 -51 1 0 
1 -1.5707963267948966 -0.92729521800161063 1 -4.9475295044988093e-16 
1 0 -51 1 0 
7 0 0  3 25 23  3.1415926535897931 1.5707963267948966  3.1415926535897931 1.5610463099949983  3.1415926535897931 1.5415462763952021  3.1415926535897913 1.5122962259955066  3.1415926535897931 1.4830461755958135  3.1415926535897931 1.4537961251961176  3.1415926535897931 1.4245460747964231  3.1415926535897931 1.3952960243967283  3.1415926535897931 1.3660459739970339  3.1415926535897931 1.3367959235973388  3.1415926535897931 1.3075458731976444  3.1415926535897931 1.2782958227979493  3.1415926535897931 1.2490457723982551  3.1415926535897931 1.21979572199856  3.1415926535897931 1.1905456715988656  3.1415926535897931 1.1612956211991707  3.1415926535897931 1.1320455707994763  3.1415926535897931 1.1027955203997817  3.1415926535897931 1.0735454700000868  3.1415926535897931 1.0442954196003926  3.1415926535897931 1.0150453692006975  3.1415926535897931 0.98579531880100246  3.1415926535897931 0.95654526840130816  3.1415926535897931 0.9370452348015117  3.1415926535897931 0.92729521800161352 
 0 4 0.02925005039969469 1 0.05850010079938938 1 0.087750151199084067 1 0.11700020159877876 1 0.14625025199847344 1 0.17550030239816813 1 0.20475035279786283 1 0.23400040319755752 1 0.26325045359725219 1 0.29250050399694688 1 0.32175055439664157 1 0.35100060479633627 1 0.38025065519603096 1 0.40950070559572566 1 0.43875075599542035 1 0.46800080639511504 1 0.49725085679480974 1 0.52650090719450438 1 0.55575095759419912 1 0.58500100799389376 1 0.61425105839358851 1 0.64350110879328315 4
7 0 0  3 25 23  3.1415926535897931 1.5707963267948966  3.1415926535897931 1.5610463099949983  3.1415926535897936 1.5415462763952021  3.1415926535897918 1.5122962259955066  3.141592653589794 1.4830461755958135  3.1415926535897927 1.4537961251961176  3.1415926535897931 1.4245460747964231  3.1415926535897927 1.3952960243967283  3.1415926535897931 1.3660459739970339  3.1415926535897931 1.3367959235973388  3.1415926535897922 1.3075458731976444  3.1415926535897936 1.2782958227979493  3.1415926535897927 1.2490457723982551  3.1415926535897927 1.21979572199856  3.1415926535897931 1.1905456715988656  3.1415926535897931 1.1612956211991707  3.1415926535897927 1.1320455707994763  3.1415926535897936 1.1027955203997817  3.1415926535897922 1.0735454700000868  3.1415926535897936 1.0442954196003926  3.1415926535897927 1.0150453692006975  3.1415926535897927 0.98579531880100246  3.1415926535897931 0.95654526840130816  3.1415926535897931 0.9370452348015117  3.1415926535897931 0.92729521800161352 
 0 4 0.02925005039969469 1 0.05850010079938938 1 0.087750151199084067 1 0.11700020159877876 1 0.14625025199847344 1 0.17550030239816813 1 0.20475035279786283 1 0.23400040319755752 1 0.26325045359725219 1 0.29250050399694688 1 0.32175055439664157 1 0.35100060479633627 1 0.38025065519603096 1 0.40950070559572566 1 0.43875075599542035 1 0.46800080639511504 1 0.49725085679480974 1 0.52650090719450438 1 0.55575095759419912 1 0.58500100799389376 1 0.61425105839358851 1 0.64350110879328315 4
1 3.1415926535897931 1.5707963267948966 -1 0 
1 0 -4.7123889803846897 0 1 
1 6.2831853071795862 -4.7123889803846897 0 1 
7 0 0  3 25 23  0 0.92729521800161052  0.023799944345377355 0.92729521800161085  0.071399833036132065 0.92729521800161097  0.14279966607226235 0.92729521800161097  0.21419949910839442 0.92729521800161097  0.28559933214452649 0.92729521800161074  0.35699916518065589 0.9272952180016113  0.42839899821678973 0.92729521800161085  0.49979883125291913 0.92729521800161108  0.57119866428905297 0.92729521800161119  0.64259849732518415 0.9272952180016113  0.71399833036131533 0.9272952180016113  0.78539816339744739 0.92729521800161152  0.85679799643357768 0.92729521800161152  0.92819782946970975 0.92729521800161174  0.99959766250584181 0.92729521800161141  1.0709974955419721 0.92729521800161141  1.1423973285781042 0.92729521800161208  1.2137971616142362 0.92729521800161163  1.2851969946503656 0.92729521800161174  1.3565968276865004 0.92729521800161208  1.4279966607226289 0.92729521800161174  1.4993964937587636 0.92729521800161219  1.5469963824495174 0.92729521800161219  1.5707963267948939 0.92729521800161219 
 4.7123889803846897 4 4.7837888134208217 1 4.8551886464569529 1 4.926588479493085 1 4.9979883125292162 1 5.0693881455653482 1 5.1407879786014794 1 5.2121878116376115 1 5.2835876446737426 1 5.3549874777098747 1 5.4263873107460068 1 5.497787143782138 1 5.5691869768182691 1 5.6405868098544012 1 5.7119866428905333 1 5.7833864759266644 1 5.8547863089627965 1 5.9261861419989277 1 5.9975859750350597 1 6.0689858080711918 1 6.140385641107323 1 6.2117854741434542 1 6.2831853071795862 4
1 0 -1 1 0 
1 1.5707963267948939 0.92729521800161219 1 7.7746892213552515e-16 
1 0 -1 1 0 
1 6.2831853071795862 -26 0 -1 
1 0 -26 0 -1 
1 0 -1 1 0 
1 1.5707963267948983 0.92729521800161463 1 -7.7746892213552722e-16 
1 3.1415926535897931 -26 0 1 
1 3.1415926535897931 -26 0 1 
1 0 -51 1 0 
1 -1.5707963267948966 -0.92729521800161574 1 5.6543194337129119e-16 
1 0 -51 1 0 
1 4.7123889803846915 -0.92729521800161219 1 4.9475295044988093e-16 
1 0 -1 1 0 
1 1.5707963267948966 0.92729521800161463 1 -7.7746892213552544e-16 
1 6.2831853071795862 1.5707963267948966 -1 0 
1 3.1415926535897931 -1.5707963267948966 1 0 
Curves 134
2 -21 -6 -15 0 -1 0 0 0 -1 1 0 0 3.25
1 -21 -6 -11.75 0 1 0 
2 -21 -3 -15 0 -1 0 0 0 -1 1 0 0 3.25
1 -21 -6 -18.25 -0 -1 0 
2 -21 -6 15 0 -1 0 0 0 -1 1 0 0 3.25
1 -21 -6 18.25 0 1 0 
2 -21 -3 15 0 -1 0 0 0 -1 1 0 0 3.25
1 -21 -6 11.75 -0 -1 0 
2 0 0 -12.5 0 0 -1 -1 0 0 0 1 0 3
1 3 3.6738190614671298e-16 0 0 0 1 
2 0 0 12.5 0 0 1 1 0 -0 -0 1 0 3
1 -3 -3.6738190614671298e-16 0 0 0 -1 
1 6 7.3476381229342596e-16 0 0 0 -1 
2 -8.6736173798840404e-16 0 12.5 0 0 1 1 0 -0 -0 1 0 6
1 0 -6 25 -0 -0 -1 
2 -8.6736173798840404e-16 0 -12.5 0 0 -1 -1 0 0 0 1 0 6
1 -6 -7.3476381229342596e-16 0 -0 -0 1 
2 -8.6736173798840404e-16 0 -12.5 0 0 -1 -1 0 0 0 1 0 6
1 -5.19615242270664 -3 25 -0 -0 -1 
2 -8.6736173798840404e-16 0 12.5 0 0 1 1 0 -0 -0 1 0 6
2 -8.6736173798840404e-16 0 12.5 0 0 1 1 0 -0 -0 1 0 6
2 -8.6736173798840404e-16 0 -12.5 0 0 -1 -1 0 0 0 1 0 6
1 -35 -6 25 1 0 0 
1 -7 0 25 0 1 0 
1 -5.1961524227066302 -3 25 -1 0 0 
1 -21 0 25 0 -1 0 
2 0 0 12.5 0 0 1 1 0 -0 -0 1 0 3
2 0 0 -12.5 0 0 -1 -1 0 0 0 1 0 3
1 -5.1961524227066302 -3 12.5 -1 0 0 
1 -5.1961524227066302 -3 -12.5 1 0 0 
1 -7 -3 25 0 0 1 
1 -5.1961524227066302 -3 -25 -1 0 0 
1 -23.114541645274301 -3 -24.230369782003901 0.93969262078590876 0 -0.34202014332566794 
1 -35 -3 25 -0 -0 -1 
1 -7.0448514031108598 -3 30.079258704029399 -0.93969262078590832 0 -0.3420201433256691 
1 -7 -3 25 0 0 1 
2 -21 -3 -15 0 -1 0 0 0 -1 1 0 0 3.25
2 -21 -3 15 0 -1 0 0 0 -1 1 0 0 3.25
1 13 -6 12.5 -1 0 0 
1 -7 -6 12.5 0 0 1 
1 -21 -6 25 -0.93969262078590832 0 -0.3420201433256691 
1 -35 -6 25 -0 -0 -1 
1 -35 -6 -19.904416720273201 0.93969262078590876 0 -0.34202014332566794 
1 -35 -6 -25 1 0 0 
1 -7 -6 -25 0 0 1 
1 -7 -6 -12.5 1 0 0 
2 -21 -6 -15 0 -1 0 0 0 -1 1 0 0 3.25
2 -21 -6 15 0 -1 0 0 0 -1 1 0 0 3.25
1 -35 19 19.904416720273201 -0 -1 -0 
1 -35 19 -19.904416720273201 -0 -1 -0 
1 -7 19 -25 -0 -1 -0 
1 -21 0 -25 0 -1 0 
1 -7 19 -12.5 -0 -1 -0 
1 -7 19 12.5 -0 -1 -0 
2 -7.3478807948841197e-16 0 -12.5 0 0 1 1 0 -0 -0 1 0 3
1 -3 3.6738190614671298e-16 -25 -0 0 -1 
2 -7.3478807948841197e-16 0 -25 0 0 -1 -1 0 0 0 1 0 3
1 3 -3.6738190614671298e-16 -25 -0 0 1 
2 21 -6 -15 0 -1 0 0 0 1 -1 0 0 3.25
1 21 -6 -18.25 0 1 -0 
2 21 -3 -15 0 -1 0 0 0 1 -1 0 0 3.25
1 21 -6 -11.75 -0 -1 -0 
2 21 -6 15 0 -1 0 0 0 1 -1 0 0 3.25
1 21 -6 11.75 0 1 -0 
2 21 -3 15 0 -1 0 0 0 1 -1 0 0 3.25
1 21 -6 18.25 -0 -1 -0 
2 -7.3478807948841197e-16 0 25 0 0 -1 -1 0 0 0 1 0 3
1 -3 3.6738190614671298e-16 18.75 -0 0 -1 
2 -7.3478807948841197e-16 0 12.5 0 0 -1 -1 0 0 0 1 0 3
1 3 -3.6738190614671298e-16 18.75 -0 0 1 
1 -6 7.3476381229342596e-16 18.75 0 0 1 
2 1.3257365849999199e-16 0 12.5 0 0 -1 -1 0 0 0 1 0 6
1 -7.3478807948841197e-16 -6 -25 0 -0 1 
2 1.3257365849999199e-16 0 25 0 0 -1 -1 0 0 0 1 0 6
1 6 -7.3476381229342596e-16 18.75 -0 -0 -1 
2 1.3257365849999199e-16 0 25 0 0 -1 -1 0 0 0 1 0 6
1 5.19615242270664 -3 -25 0 -0 1 
2 1.3257365849999199e-16 0 12.5 0 0 -1 -1 0 0 0 1 0 6
1 -6 7.3476381229342596e-16 -25 0 0 1 
2 1.3257365849999199e-16 0 -25 0 0 -1 -1 0 0 0 1 0 6
1 -7.3478807948841197e-16 -6 -25 0 -0 1 
2 1.3257365849999199e-16 0 -12.5 0 0 1 1 0 -0 -0 1 0 6
1 6 -7.3476381229342596e-16 -25 -0 -0 -1 
2 1.3257365849999199e-16 0 -12.5 0 0 1 1 0 -0 -0 1 0 6
1 5.19615242270664 -3 -25 0 -0 1 
2 1.3257365849999199e-16 0 -25 0 0 -1 -1 0 0 0 1 0 6
2 1.3257365849999199e-16 0 -25 0 0 -1 -1 0 0 0 1 0 6
2 1.3257365849999199e-16 0 -12.5 0 0 1 1 0 -0 -0 1 0 6
2 1.3257365849999199e-16 0 12.5 0 0 -1 -1 0 0 0 1 0 6
2 1.3257365849999199e-16 0 25 0 0 -1 -1 0 0 0 1 0 6
2 -7.3478807948841197e-16 0 12.5 0 0 -1 -1 0 0 0 1 0 3
2 -7.3478807948841197e-16 0 25 0 0 -1 -1 0 0 0 1 0 3
1 5.1961524227066302 -3 -12.5 -1 0 0 
1 7 -3 -25 0 0 -1 
1 5.1961524227066302 -3 12.5 1 0 0 
1 5.1961524227066302 -3 25 1 0 0 
1 23.114541645274301 -3 24.230369782003901 -0.93969262078590876 0 0.34202014332566794 
1 35 -3 -25 0 -0 1 
1 7.0448514031108598 -3 -30.079258704029399 0.93969262078590832 0 0.3420201433256691 
1 5.1961524227066302 -3 -25 1 0 0 
2 21 -3 -15 0 -1 0 0 0 1 -1 0 0 3.25
2 21 -3 15 0 -1 0 0 0 1 -1 0 0 3.25
1 7 -6 -12.5 -1 0 0 
1 35 -6 -25 -1 0 0 
1 21 -6 -25 0.93969262078590832 0 0.3420201433256691 
1 35 -6 -25 0 -0 1 
1 35 -6 19.904416720273201 -0.93969262078590876 0 0.34202014332566794 
1 35 -6 25 -1 0 0 
1 -13 -6 12.5 1 0 0 
1 7 -6 12.5 0 0 -1 
2 21 -6 -15 0 -1 0 0 0 1 -1 0 0 3.25
2 21 -6 15 0 -1 0 0 0 1 -1 0 0 3.25
1 21 0 25 0 -1 0 
1 35 19 19.904416720273201 0 -1 0 
1 21 0 -25 0 -1 0 
2 -7.3478807948841197e-16 0 -25 0 0 -1 -1 0 0 0 1 0 3
2 -7.3478807948841197e-16 0 -12.5 0 0 1 1 0 -0 -0 1 0 3
1 7 19 -12.5 0 -1 0 
1 7 19 12.5 0 -1 0 
1 35 19 -19.904416720273201 0 -1 0 
2 0 5.3125906451789701e-15 -21 -1 1.22460635382238e-16 0 0 0 -1 -1.22460635382238e-16 -1 -0 5
2 0 5.3125906451789701e-15 -21 -1 1.22460635382238e-16 0 0 0 -1 -1.22460635382238e-16 -1 -0 5
2 0 0 -25 0 0 1 -1 0 0 0 -1 0 3
2 0 0 -25 0 0 1 -1 0 0 0 -1 0 3
2 0 -7.3725747729014302e-15 21 1 -1.22460635382238e-16 0 0 0 1 -1.22460635382238e-16 -1 0 5
2 0 -7.3725747729014302e-15 21 1 -1.22460635382238e-16 0 0 0 1 -1.22460635382238e-16 -1 0 5
2 0 0 25 0 0 1 -1 0 0 0 -1 0 3
2 0 0 25 0 0 1 -1 0 0 0 -1 0 3
1 -3 3.6738190614671298e-16 0 -0 0 -1 
2 0 0 25 0 0 1 -1 0 0 0 -1 0 3
1 3 -3.6738190614671298e-16 0 0 0 1 
2 0 0 -25 0 0 1 -1 0 0 0 -1 0 3
2 0 0 -25 0 0 1 -1 0 0 0 -1 0 3
2 0 0 25 0 0 1 -1 0 0 0 -1 0 3
Polygon3D 0
PolygonOnTriangulations 0
Surfaces 50
2 -21 -6 -15 0 -1 0 0 0 -1 1 0 0 3.25
1 -35 -6 25 -0 1 0 1 0 0 0 0 -1 
2 -21 -6 -15 0 -1 0 0 0 -1 1 0 0 3.25
1 -5.1961524227066302 -3 25 0 -1 0 0 0 -1 1 0 0 
2 -21 -6 15 0 -1 0 0 0 -1 1 0 0 3.25
2 -21 -6 15 0 -1 0 0 0 -1 1 0 0 3.25
2 0 0 25 0 0 -1 -1 0 0 0 1 0 3
1 -7 19 -12.5 0 0 -1 0 -1 0 -1 -0 -0 
2 0 0 25 0 0 -1 -1 0 0 0 1 0 3
1 13 19 12.5 0 0 1 1 0 -0 -0 1 0 
2 -8.6736173798840404e-16 0 25 0 0 -1 -1 0 0 0 1 0 6
2 -8.6736173798840404e-16 0 25 0 0 -1 -1 0 0 0 1 0 6
2 -8.6736173798840404e-16 0 25 0 0 -1 -1 0 0 0 1 0 6
1 -8.6736173798840404e-16 0 25 0 0 1 1 0 -0 -0 1 0 
1 -7 19 12.5 1 0 0 -0 1 0 0 -0 1 
1 -21 19 25 -0.3420201433256691 0 0.93969262078590832 0 1 0 -0.93969262078590832 0 -0.3420201433256691 
1 -7 19 -25 1 0 0 -0 1 0 0 -0 1 
1 -8.6736173798840404e-16 0 -25 0 0 1 1 0 -0 -0 1 0 
1 -35 19 -19.904416720273201 -0.3420201433256691 0 -0.93969262078590832 -0.93969262078590832 0 0.3420201433256691 0 1 0 
1 -35 -3 25 1 0 0 -0 1 0 0 -0 1 
2 -7.3478807948841197e-16 0 -25 0 0 1 1 0 -0 -0 1 0 3
1 7 19 -12.5 0 0 1 0 -1 0 1 0 -0 
2 -7.3478807948841197e-16 0 -25 0 0 1 1 0 -0 -0 1 0 3
1 1.3257365849999199e-16 0 -25 0 0 -1 -1 0 0 0 1 0 
2 21 -6 -15 0 -1 0 0 0 1 -1 0 0 3.25
1 35 -6 -25 0 1 0 -1 0 0 0 -0 1 
2 21 -6 -15 0 -1 0 0 0 1 -1 0 0 3.25
1 5.1961524227066302 -3 -25 0 -1 0 -0 0 1 -1 -0 0 
2 21 -6 15 0 -1 0 0 0 1 -1 0 0 3.25
2 21 -6 15 0 -1 0 0 0 1 -1 0 0 3.25
2 -7.3478807948841197e-16 0 -25 0 0 1 1 0 -0 -0 1 0 3
1 1.3257365849999199e-16 0 25 0 0 -1 -1 0 0 0 1 0 
2 -7.3478807948841197e-16 0 -25 0 0 1 1 0 -0 -0 1 0 3
1 -13 19 12.5 0 0 -1 -1 0 0 0 1 0 
2 1.3257365849999199e-16 0 -25 0 0 1 1 0 -0 -0 1 0 6
2 1.3257365849999199e-16 0 -25 0 0 1 1 0 -0 -0 1 0 6
2 1.3257365849999199e-16 0 -25 0 0 1 1 0 -0 -0 1 0 6
2 1.3257365849999199e-16 0 -25 0 0 1 1 0 -0 -0 1 0 6
2 1.3257365849999199e-16 0 -25 0 0 1 1 0 -0 -0 1 0 6
2 1.3257365849999199e-16 0 -25 0 0 1 1 0 -0 -0 1 0 6
1 7 19 12.5 -1 0 0 0 1 0 0 0 -1 
1 35 19 19.904416720273201 0.3420201433256691 0 0.93969262078590832 0.93969262078590832 0 -0.3420201433256691 -0 1 0 
1 35 -3 -25 -1 0 0 0 1 0 0 0 -1 
1 21 19 -25 0.3420201433256691 0 -0.93969262078590832 0 1 0 0.93969262078590832 -0 0.3420201433256691 
4 0 5.3125906451789701e-15 -21 0 0 1 0 -1 0 1 0 -0 5
4 0 5.3125906451789701e-15 -21 0 0 1 0 -1 0 1 0 -0 5
2 0 0 26 0 0 1 -1 0 0 0 -1 0 3
2 0 0 26 0 0 1 -1 0 0 0 -1 0 3
4 0 -7.3725747729014302e-15 21 0 0 1 0 1 0 -1 0 0 5
4 0 -7.3725747729014302e-15 21 0 0 1 0 1 0 -1 0 0 5
Triangulations 0

TShapes 349
Ve
1e-07
-21 -6 -11.75
0 0

0101101
*
Ve
1e-07
-21 -6 -18.25
0 0

0101101
*
Ed
 1e-07 1 1 0
1  1 0 3.14159265358979 6.28318530717959
2  1 1 0 3.14159265358979 6.28318530717959
4 C0 1 0 2 0
0

0101000
+349 0 -348 0 *
Ve
1e-07
-21 -3 -11.75
0 0

0101101
*
Ed
 1e-07 1 1 0
1  2 0 0 3
2  2 1 0 0 3
2  3 3 0 0 3
4 CN 1 0 3 0
0

0101000
+349 0 -346 0 *
Ve
1e-07
-21 -3 -18.25
0 0

0101101
*
Ed
 1e-07 1 1 0
1  3 0 3.14159265358979 6.28318530717959
2  4 1 0 3.14159265358979 6.28318530717959
4 C0 1 0 4 0
0

0101000
+346 0 -344 0 *
Ed
 1e-07 1 1 0
1  4 0 -3 0
2  5 1 0 -3 0
2  6 3 0 -3 0
4 CN 1 0 3 0
0

0101000
+344 0 -348 0 *
Wi

0101100
-347 0 +345 0 +343 0 +342 0 *
Fa
0  1e-07 1 0

0111000
+341 0 *
Ve
1e-07
-21 -6 18.25
0 0

0101101
*
Ve
1e-07
-21 -6 11.75
0 0

0101101
*
Ed
 1e-07 1 1 0
1  5 0 3.14159265358979 6.28318530717959
2  7 5 0 3.14159265358979 6.28318530717959
4 C0 5 0 2 0
0

0101000
+339 0 -338 0 *
Ve
1e-07
-21 -3 18.25
0 0

0101101
*
Ed
 1e-07 1 1 0
1  6 0 0 3
2  8 5 0 0 3
2  9 6 0 0 3
4 CN 5 0 6 0
0

0101000
+339 0 -336 0 *
Ve
1e-07
-21 -3 11.75
0 0

0101101
*
Ed
 1e-07 1 1 0
1  7 0 3.14159265358979 6.28318530717959
2  10 5 0 3.14159265358979 6.28318530717959
4 C0 5 0 4 0
0

0101000
+336 0 -334 0 *
Ed
 1e-07 1 1 0
1  8 0 -3 0
2  11 5 0 -3 0
2  12 6 0 -3 0
4 CN 5 0 6 0
0

0101000
+334 0 -338 0 *
Wi

0101100
-337 0 +335 0 +333 0 +332 0 *
Fa
0  1e-07 5 0

0111000
+331 0 *
Ve
1e-07
3 3.67381906146713e-16 -12.5
0 0

0101101
*
Ve
1e-07
-3 0 -12.5
0 0

0101101
*
Ed
 1e-07 1 1 0
1  9 0 3.14159265358979 6.28318530717959
2  13 7 0 3.14159265358979 6.28318530717959
4 C0 7 0 8 0
0

0101000
+329 0 -328 0 *
Ve
1e-07
3 0 12.5
0 0

0101101
*
Ed
 1e-07 1 1 0
1  10 0 -12.5 12.5
2  14 7 0 -12.5 12.5
2  15 9 0 -12.5 12.5
4 CN 7 0 9 0
0

0101000
+329 0 -326 0 *
Ve
1e-07
-3 -3.67381906146713e-16 12.5
0 0

0101101
*
Ed
 1e-07 1 1 0
1  11 0 3.14159265358979 6.28318530717959
2  16 7 0 3.14159265358979 6.28318530717959
4 C0 7 0 10 0
0

0101000
+324 0 -326 0 *
Ed
 1e-07 1 1 0
1  12 0 -12.5 12.5
2  17 7 0 -12.5 12.5
2  18 9 0 -12.5 12.5
4 CN 7 0 9 0
0

0101000
+324 0 -328 0 *
Wi

0101100
-327 0 +325 0 -323 0 +322 0 *
Fa
0  1e-07 7 0

0111000
+321 0 *
Ve
1e-07
6 7.34763812293426e-16 12.5
0 0

0101101
*
Ve
1e-07
6 7.34763812293426e-16 -12.5
0 0

0101101
*
Ed
 1e-07 1 1 0
1  13 0 -12.5 12.5
2  19 11 0 -12.5 12.5
2  20 12 0 -12.5 12.5
4 CN 11 0 12 0
0

0101000
+319 0 -318 0 *
Ve
1e-07
0 -6 12.5
0 0

0101101
*
Ed
 1e-07 1 1 0
1  14 0 4.71238898038469 6.28318530717959
2  21 11 0 4.71238898038469 6.28318530717959
4 C0 11 0 10 0
0

0101000
+316 0 -319 0 *
Ve
1e-07
-8.67361737988404e-16 -6 -12.5
0 0

0101101
*
Ed
 1e-07 1 1 0
1  15 0 12.5 37.5
2  22 11 0 12.5 37.5
4 G1 11 0 2 0
0

0101000
+316 0 -314 0 *
Ed
 1e-07 1 1 0
1  16 0 3.14159265358979 4.71238898038469
2  23 11 0 3.14159265358979 4.71238898038469
4 C0 11 0 8 0
0

0101000
+318 0 -314 0 *
Wi

0101100
-317 0 -315 0 +313 0 -312 0 *
Fa
0  1e-07 11 0

0111000
+311 0 *
Ve
1e-07
-6 -7.34763812293426e-16 -12.5
0 0

0101101
*
Ve
1e-07
-6 -7.34763812293426e-16 12.5
0 0

0101101
*
Ed
 1e-07 1 1 0
1  17 0 -12.5 12.5
2  24 13 0 -12.5 12.5
2  25 12 0 -12.5 12.5
4 CN 13 0 12 0
0

0101000
+309 0 -308 0 *
Ve
1e-07
-5.19615242270664 -3 -12.5
0 0

0101101
*
Ed
 1e-07 1 1 0
1  18 0 5.75958653158129 6.28318530717959
2  26 13 0 5.75958653158129 6.28318530717959
4 C0 13 0 8 0
0

0101000
+306 0 -309 0 *
Ve
1e-07
-5.19615242270664 -3 12.5
0 0

0101101
*
Ed
 1e-07 1 1 0
1  19 0 12.5 37.5
2  27 13 0 12.5 37.5
4 C0 13 0 4 0
0

0101000
+304 0 -306 0 *
Ed
 1e-07 1 1 0
1  20 0 3.14159265358979 3.66519142918809
2  28 13 0 3.14159265358979 3.66519142918809
4 C0 13 0 10 0
0

0101000
+308 0 -304 0 *
Wi

0101100
-307 0 -305 0 -303 0 -302 0 *
Fa
0  1e-07 13 0

0111000
+301 0 *
Ed
 1e-07 1 1 0
1  21 0 0 3.14159265358979
2  29 12 0 0 3.14159265358979
4 C0 12 0 10 0
0

0101000
+319 0 -308 0 *
Ed
 1e-07 1 1 0
1  22 0 0 3.14159265358979
2  30 12 0 0 3.14159265358979
4 C0 12 0 8 0
0

0101000
+309 0 -318 0 *
Wi

0101100
+307 0 -299 0 +317 0 -298 0 *
Fa
0  1e-07 12 0

0111000
+297 0 *
Ve
1e-07
-21 -6 25
0 0

0101101
*
Ve
1e-07
-7 -6 25
0 0

0101101
*
Ed
 1e-07 1 1 0
1  23 0 14 28
4 C0 14 0 2 0
0

0101000
+295 0 -294 0 *
Ve
1e-07
-7 -3 25
0 0

0101101
*
Ed
 1e-07 1 1 0
1  24 0 -6 -3
4 C0 14 0 15 0
0

0101000
+294 0 -292 0 *
Ve
1e-07
-21 -3 25
0 0

0101101
*
Ed
 1e-07 1 1 0
1  25 0 1.80384757729337 15.8038475772934
4 C0 14 0 4 0
0

0101000
+292 0 -290 0 *
Ed
 1e-07 1 1 0
1  26 0 3 6
4 C0 14 0 16 0
0

0101000
+290 0 -295 0 *
Wi

0101100
+293 0 +291 0 +289 0 +288 0 *
Fa
0  1e-07 14 0

0111000
+287 0 *
Ed
 1e-07 1 1 0
1  27 0 0 3.14159265358979
2  31 9 0 0 3.14159265358979
4 C0 9 0 10 0
0

0101000
+326 0 -324 0 *
Ed
 1e-07 1 1 0
1  28 0 0 3.14159265358979
2  32 9 0 0 3.14159265358979
4 C0 9 0 8 0
0

0101000
+328 0 -329 0 *
Wi

0101100
-285 0 -325 0 -284 0 -322 0 *
Fa
0  1e-07 9 0

0111000
+283 0 *
Ve
1e-07
-7 -3 12.5
0 0

0101101
*
Ed
 1e-07 1 1 0
1  29 0 9.76996261670138e-15 1.80384757729337
4 C0 4 0 10 0
0

0101000
+304 0 -281 0 *
Ve
1e-07
-7 -3 -12.5
0 0

0101101
*
Ed
 1e-07 1 1 0
1  30 0 -1.80384757729337 -9.76996261670138e-15
4 C0 4 0 8 0
0

0101000
+279 0 -306 0 *
Ve
1e-07
-7 -3 -25
0 0

0101101
*
Ed
 1e-07 1 1 0
1  31 0 -50 -37.5
4 C0 4 0 17 0
0

0101000
+277 0 -279 0 *
Ve
1e-07
-21 -3 -25
0 0

0101101
*
Ed
 1e-07 1 1 0
1  32 0 1.80384757729337 15.8038475772934
4 C0 4 0 18 0
0

0101000
+277 0 -275 0 *
Ve
1e-07
-35 -3 -19.9044167202732
0 0

0101101
*
Ed
 1e-07 1 1 0
1  33 0 -12.6482405967872 2.25024821787555
4 C0 4 0 19 0
0

0101000
+273 0 -275 0 *
Ve
1e-07
-35 -3 19.9044167202732
0 0

0101101
*
Ed
 1e-07 1 1 0
1  34 0 5.0955832797268 44.9044167202732
4 C0 4 0 20 0
0

0101000
+271 0 -273 0 *
Ed
 1e-07 1 1 0
1  35 0 14.8507589484078 29.7492477630706
4 C0 4 0 16 0
0

0101000
+290 0 -271 0 *
Ed
 1e-07 1 1 0
1  36 0 -12.5 0
4 C0 4 0 15 0
0

0101000
+281 0 -292 0 *
Wi

0101100
-280 0 +303 0 -278 0 -276 0 +274 0 -272 0 -270 0 -269 0 -289 0 -268 0 
*
Ed
 1e-07 1 1 0
1  37 0 0 3.14159265358979
2  33 3 0 0 3.14159265358979
4 C0 4 0 3 0
0

0101000
+344 0 -346 0 *
Wi

0101100
+266 0 +343 0 *
Ed
 1e-07 1 1 0
1  38 0 0 3.14159265358979
2  34 6 0 0 3.14159265358979
4 C0 4 0 6 0
0

0101000
+334 0 -336 0 *
Wi

0101100
+264 0 +333 0 *
Fa
0  1e-07 4 0

0111000
-267 0 -265 0 -263 0 *
Ve
1e-07
-7 -6 12.5
0 0

0101101
*
Ed
 1e-07 1 1 0
1  39 0 13 20
4 C0 2 0 10 0
0

0101000
+316 0 -261 0 *
Ed
 1e-07 1 1 0
1  40 0 0 12.5
4 C0 2 0 15 0
0

0101000
+261 0 -294 0 *
Ve
1e-07
-35 -6 19.9044167202732
0 0

0101101
*
Ed
 1e-07 1 1 0
1  41 0 0 14.8984888146628
4 C0 2 0 16 0
0

0101000
+295 0 -258 0 *
Ve
1e-07
-35 -6 -19.9044167202732
0 0

0101101
*
Ed
 1e-07 1 1 0
1  42 0 5.0955832797268 44.9044167202732
4 C0 2 0 20 0
0

0101000
+258 0 -256 0 *
Ve
1e-07
-21 -6 -25
0 0

0101101
*
Ed
 1e-07 1 1 0
1  43 0 0 14.8984888146628
4 C0 2 0 19 0
0

0101000
+256 0 -254 0 *
Ve
1e-07
-7 -6 -25
0 0

0101101
*
Ed
 1e-07 1 1 0
1  44 0 14 28
4 C0 2 0 18 0
0

0101000
+254 0 -252 0 *
Ve
1e-07
-7 -6 -12.5
0 0

0101101
*
Ed
 1e-07 1 1 0
1  45 0 0 12.5
4 C0 2 0 17 0
0

0101000
+252 0 -250 0 *
Ed
 1e-07 1 1 0
1  46 0 0 7
4 C0 2 0 8 0
0

0101000
+250 0 -314 0 *
Wi

0101100
+260 0 +259 0 -293 0 +257 0 +255 0 +253 0 +251 0 +249 0 +248 0 -313 0 
*
Ed
 1e-07 1 1 0
1  47 0 0 3.14159265358979
2  35 3 0 0 3.14159265358979
4 C0 2 0 3 0
0

0101000
+348 0 -349 0 *
Wi

0101100
-246 0 -347 0 *
Ed
 1e-07 1 1 0
1  48 0 0 3.14159265358979
2  36 6 0 0 3.14159265358979
4 C0 2 0 6 0
0

0101000
+338 0 -339 0 *
Wi

0101100
-244 0 -337 0 *
Fa
0  1e-07 2 0

0111000
-247 0 -245 0 -243 0 *
Wi

0101100
+264 0 -335 0 -244 0 -332 0 *
Fa
0  1e-07 6 0

0111000
+241 0 *
Wi

0101100
+266 0 -345 0 -246 0 -342 0 *
Fa
0  1e-07 3 0

0111000
+239 0 *
Ed
 1e-07 1 1 0
1  49 0 22 25
4 C0 20 0 16 0
0

0101000
+271 0 -258 0 *
Ed
 1e-07 1 1 0
1  50 0 22 25
4 C0 20 0 19 0
0

0101000
+273 0 -256 0 *
Wi

0101100
-237 0 +270 0 +236 0 -255 0 *
Fa
0  1e-07 20 0

0111000
-235 0 *
Ed
 1e-07 1 1 0
1  51 0 22 25
4 C0 18 0 17 0
0

0101000
+277 0 -252 0 *
Ed
 1e-07 1 1 0
1  52 0 3 6
4 C0 18 0 19 0
0

0101000
+275 0 -254 0 *
Wi

0101100
+233 0 -251 0 -232 0 -274 0 *
Fa
0  1e-07 18 0

0111000
-231 0 *
Wi

0101100
+269 0 +237 0 -257 0 -288 0 *
Fa
0  1e-07 16 0

0111000
+229 0 *
Wi

0101100
+272 0 +232 0 -253 0 -236 0 *
Fa
0  1e-07 19 0

0111000
+227 0 *
Ed
 1e-07 1 1 0
1  53 0 22 25
4 C0 17 0 8 0
0

0101000
+279 0 -250 0 *
Wi

0101100
+276 0 +225 0 -249 0 -233 0 *
Fa
0  1e-07 17 0

0111000
+224 0 *
Wi

0101100
+278 0 +305 0 +298 0 +312 0 -248 0 -225 0 *
Wi

0101100
-284 0 -327 0 *
Fa
0  1e-07 8 0

0111000
+222 0 +221 0 *
Ed
 1e-07 1 1 0
1  54 0 22 25
4 C0 10 0 15 0
0

0101000
+281 0 -261 0 *
Wi

0101100
+280 0 +219 0 -260 0 +315 0 +299 0 +302 0 *
Wi

0101100
-285 0 -323 0 *
Fa
0  1e-07 10 0

0111000
+218 0 +217 0 *
Wi

0101100
+268 0 -291 0 -259 0 -219 0 *
Fa
0  1e-07 15 0

0111000
+215 0 *
Sh

0101100
-340 0 -330 0 -320 0 +310 0 +300 0 +296 0 +286 0 -282 0 -262 0 -242 0 
-240 0 -238 0 -234 0 -230 0 +228 0 +226 0 +223 0 +220 0 +216 0 +214 0 
*
So

0100000
+213 0 *
Ve
1e-07
-3 3.67381906146713e-16 -12.5
0 0

0101101
*
Ve
1e-07
3 0 -12.5
0 0

0101101
*
Ed
 1e-07 1 1 0
1  55 0 3.14159265358979 6.28318530717959
2  37 21 0 3.14159265358979 6.28318530717959
4 C0 21 0 22 0
0

0101000
+211 0 -210 0 *
Ve
1e-07
-3 0 -25
0 0

0101101
*
Ed
 1e-07 1 1 0
1  56 0 -12.5 -0
2  38 21 0 -12.5 -0
2  39 23 0 -12.5 -0
4 CN 21 0 23 0
0

0101000
+211 0 -208 0 *
Ve
1e-07
3 -3.67381906146713e-16 -25
0 0

0101101
*
Ed
 1e-07 1 1 0
1  57 0 3.14159265358979 6.28318530717959
2  40 21 0 3.14159265358979 6.28318530717959
4 C0 21 0 24 0
0

0101000
+206 0 -208 0 *
Ed
 1e-07 1 1 0
1  58 0 0 12.5
2  41 21 0 0 12.5
2  42 23 0 0 12.5
4 CN 21 0 23 0
0

0101000
+206 0 -210 0 *
Wi

0101100
-209 0 +207 0 -205 0 +204 0 *
Fa
0  1e-07 21 0

0111000
+203 0 *
Ve
1e-07
21 -6 -18.25
0 0

0101101
*
Ve
1e-07
21 -6 -11.75
0 0

0101101
*
Ed
 1e-07 1 1 0
1  59 0 3.14159265358979 6.28318530717959
2  43 25 0 3.14159265358979 6.28318530717959
4 C0 25 0 26 0
0

0101000
+201 0 -200 0 *
Ve
1e-07
21 -3 -18.25
0 0

0101101
*
Ed
 1e-07 1 1 0
1  60 0 0 3
2  44 25 0 0 3
2  45 27 0 0 3
4 CN 25 0 27 0
0

0101000
+201 0 -198 0 *
Ve
1e-07
21 -3 -11.75
0 0

0101101
*
Ed
 1e-07 1 1 0
1  61 0 3.14159265358979 6.28318530717959
2  46 25 0 3.14159265358979 6.28318530717959
4 C0 25 0 28 0
0

0101000
+198 0 -196 0 *
Ed
 1e-07 1 1 0
1  62 0 -3 -0
2  47 25 0 -3 -0
2  48 27 0 -3 -0
4 CN 25 0 27 0
0

0101000
+196 0 -200 0 *
Wi

0101100
-199 0 +197 0 +195 0 +194 0 *
Fa
0  1e-07 25 0

0111000
+193 0 *
Ve
1e-07
21 -6 11.75
0 0

0101101
*
Ve
1e-07
21 -6 18.25
0 0

0101101
*
Ed
 1e-07 1 1 0
1  63 0 3.14159265358979 6.28318530717959
2  49 29 0 3.14159265358979 6.28318530717959
4 C0 29 0 26 0
0

0101000
+191 0 -190 0 *
Ve
1e-07
21 -3 11.75
0 0

0101101
*
Ed
 1e-07 1 1 0
1  64 0 0 3
2  50 29 0 0 3
2  51 30 0 0 3
4 CN 29 0 30 0
0

0101000
+191 0 -188 0 *
Ve
1e-07
21 -3 18.25
0 0

0101101
*
Ed
 1e-07 1 1 0
1  65 0 3.14159265358979 6.28318530717959
2  52 29 0 3.14159265358979 6.28318530717959
4 C0 29 0 28 0
0

0101000
+188 0 -186 0 *
Ed
 1e-07 1 1 0
1  66 0 -3 -0
2  53 29 0 -3 -0
2  54 30 0 -3 -0
4 CN 29 0 30 0
0

0101000
+186 0 -190 0 *
Wi

0101100
-189 0 +187 0 +185 0 +184 0 *
Fa
0  1e-07 29 0

0111000
+183 0 *
Ve
1e-07
3 -3.67381906146713e-16 25
0 0

0101101
*
Ve
1e-07
-3 0 25
0 0

0101101
*
Ed
 1e-07 1 1 0
1  67 0 3.14159265358979 6.28318530717959
2  55 31 0 3.14159265358979 6.28318530717959
4 C0 31 0 32 0
0

0101000
+181 0 -180 0 *
Ve
1e-07
-3 0 12.5
0 0

0101101
*
Ed
 1e-07 1 1 0
1  68 0 -6.25 6.25
2  56 31 0 -6.25 6.25
2  57 33 0 -6.25 6.25
4 CN 31 0 33 0
0

0101000
+180 0 -178 0 *
Ve
1e-07
3 -3.67381906146713e-16 12.5
0 0

0101101
*
Ed
 1e-07 1 1 0
1  69 0 3.14159265358979 6.28318530717959
2  58 31 0 3.14159265358979 6.28318530717959
4 C0 31 0 34 0
0

0101000
+176 0 -178 0 *
Ed
 1e-07 1 1 0
1  70 0 -6.25 6.25
2  59 31 0 -6.25 6.25
2  60 33 0 -6.25 6.25
4 CN 31 0 33 0
0

0101000
+176 0 -181 0 *
Wi

0101100
+179 0 +177 0 -175 0 +174 0 *
Fa
0  1e-07 31 0

0111000
+173 0 *
Ve
1e-07
-6 7.34763812293426e-16 12.5
0 0

0101101
*
Ve
1e-07
-6 7.34763812293426e-16 25
0 0

0101101
*
Ed
 1e-07 1 1 0
1  71 0 -6.25 6.25
2  61 35 0 -6.25 6.25
2  62 36 0 -6.25 6.25
4 CN 35 0 36 0
0

0101000
+171 0 -170 0 *
Ve
1e-07
-7.34788079488412e-16 -6 12.5
0 0

0101101
*
Ed
 1e-07 1 1 0
1  72 0 4.71238898038469 6.28318530717959
2  63 35 0 4.71238898038469 6.28318530717959
4 C0 35 0 34 0
0

0101000
+168 0 -171 0 *
Ve
1e-07
-7.34788079488412e-16 -6 25
0 0

0101101
*
Ed
 1e-07 1 1 0
1  73 0 37.5 50
2  64 35 0 37.5 50
4 G1 35 0 26 0
0

0101000
+168 0 -166 0 *
Ed
 1e-07 1 1 0
1  74 0 4.71238898038469 6.28318530717959
2  65 35 0 4.71238898038469 6.28318530717959
4 C0 35 0 32 0
0

0101000
+166 0 -170 0 *
Wi

0101100
-169 0 -167 0 +165 0 +164 0 *
Fa
0  1e-07 35 0

0111000
+163 0 *
Ve
1e-07
6 -7.34763812293426e-16 25
0 0

0101101
*
Ve
1e-07
6 -7.34763812293426e-16 12.5
0 0

0101101
*
Ed
 1e-07 1 1 0
1  75 0 -6.25 6.25
2  66 37 0 -6.25 6.25
2  67 36 0 -6.25 6.25
4 CN 37 0 36 0
0

0101000
+161 0 -160 0 *
Ve
1e-07
5.19615242270664 -3 25
0 0

0101101
*
Ed
 1e-07 1 1 0
1  76 0 3.14159265358979 3.66519142918809
2  68 37 0 3.14159265358979 3.66519142918809
4 C0 37 0 32 0
0

0101000
+161 0 -158 0 *
Ve
1e-07
5.19615242270664 -3 12.5
0 0

0101101
*
Ed
 1e-07 1 1 0
1  77 0 37.5 50
2  69 37 0 37.5 50
4 C0 37 0 28 0
0

0101000
+156 0 -158 0 *
Ed
 1e-07 1 1 0
1  78 0 3.14159265358979 3.66519142918809
2  70 37 0 3.14159265358979 3.66519142918809
4 C0 37 0 34 0
0

0101000
+160 0 -156 0 *
Wi

0101100
-159 0 +157 0 -155 0 -154 0 *
Fa
0  1e-07 37 0

0111000
+153 0 *
Ve
1e-07
-6 7.34763812293426e-16 -25
0 0

0101101
*
Ve
1e-07
-6 7.34763812293426e-16 -12.5
0 0

0101101
*
Ed
 1e-07 1 1 0
1  79 0 0 12.5
2  71 38 0 0 12.5
2  72 39 0 0 12.5
4 CN 38 0 39 0
0

0101000
+151 0 -150 0 *
Ve
1e-07
-7.34788079488412e-16 -6 -25
0 0

0101101
*
Ed
 1e-07 1 1 0
1  80 0 4.71238898038469 6.28318530717959
2  73 38 0 4.71238898038469 6.28318530717959
4 C0 38 0 24 0
0

0101000
+148 0 -151 0 *
Ve
1e-07
1.32573658499992e-16 -6 -12.5
0 0

0101101
*
Ed
 1e-07 1 1 0
1  81 0 0 12.5
2  74 38 0 0 12.5
4 G1 38 0 26 0
0

0101000
+148 0 -146 0 *
Ed
 1e-07 1 1 0
1  82 0 3.14159265358979 4.71238898038469
2  75 38 0 3.14159265358979 4.71238898038469
4 C0 38 0 22 0
0

0101000
+150 0 -146 0 *
Wi

0101100
-149 0 -147 0 +145 0 -144 0 *
Fa
0  1e-07 38 0

0111000
+143 0 *
Ve
1e-07
6 -7.34763812293426e-16 -12.5
0 0

0101101
*
Ve
1e-07
6 -7.34763812293426e-16 -25
0 0

0101101
*
Ed
 1e-07 1 1 0
1  83 0 -12.5 -0
2  76 40 0 -12.5 -0
2  77 39 0 -12.5 -0
4 CN 40 0 39 0
0

0101000
+141 0 -140 0 *
Ve
1e-07
5.19615242270664 -3 -12.5
0 0

0101101
*
Ed
 1e-07 1 1 0
1  84 0 5.75958653158129 6.28318530717959
2  78 40 0 5.75958653158129 6.28318530717959
4 C0 40 0 22 0
0

0101000
+138 0 -141 0 *
Ve
1e-07
5.19615242270664 -3 -25
0 0

0101101
*
Ed
 1e-07 1 1 0
1  85 0 0 12.5
2  79 40 0 0 12.5
4 C0 40 0 28 0
0

0101000
+136 0 -138 0 *
Ed
 1e-07 1 1 0
1  86 0 3.14159265358979 3.66519142918809
2  80 40 0 3.14159265358979 3.66519142918809
4 C0 40 0 24 0
0

0101000
+140 0 -136 0 *
Wi

0101100
-139 0 -137 0 -135 0 -134 0 *
Fa
0  1e-07 40 0

0111000
+133 0 *
Ed
 1e-07 1 1 0
1  87 0 0 3.14159265358979
2  81 39 0 0 3.14159265358979
4 C0 39 0 24 0
0

0101000
+151 0 -140 0 *
Ed
 1e-07 1 1 0
1  88 0 0 3.14159265358979
2  82 39 0 0 3.14159265358979
4 C0 39 0 22 0
0

0101000
+141 0 -150 0 *
Wi

0101100
+139 0 -131 0 +149 0 -130 0 *
Fa
0  1e-07 39 0

0111000
+129 0 *
Ed
 1e-07 1 1 0
1  89 0 0 3.14159265358979
2  83 36 0 0 3.14159265358979
4 C0 36 0 34 0
0

0101000
+171 0 -160 0 *
Ed
 1e-07 1 1 0
1  90 0 0 3.14159265358979
2  84 36 0 0 3.14159265358979
4 C0 36 0 32 0
0

0101000
+170 0 -161 0 *
Wi

0101100
+159 0 -127 0 +169 0 +126 0 *
Fa
0  1e-07 36 0

0111000
+125 0 *
Ed
 1e-07 1 1 0
1  91 0 0 3.14159265358979
2  85 33 0 0 3.14159265358979
4 C0 33 0 34 0
0

0101000
+178 0 -176 0 *
Ed
 1e-07 1 1 0
1  92 0 0 3.14159265358979
2  86 33 0 0 3.14159265358979
4 C0 33 0 32 0
0

0101000
+180 0 -181 0 *
Wi

0101100
-123 0 -177 0 +122 0 -174 0 *
Fa
0  1e-07 33 0

0111000
+121 0 *
Ve
1e-07
7 -3 -12.5
0 0

0101101
*
Ed
 1e-07 1 1 0
1  93 0 -1.80384757729337 -9.76996261670138e-15
4 C0 28 0 22 0
0

0101000
+119 0 -138 0 *
Ve
1e-07
7 -3 12.5
0 0

0101101
*
Ed
 1e-07 1 1 0
1  94 0 -37.5 -12.5
4 C0 28 0 41 0
0

0101000
+117 0 -119 0 *
Ed
 1e-07 1 1 0
1  95 0 9.76996261670138e-15 1.80384757729337
4 C0 28 0 34 0
0

0101000
+156 0 -117 0 *
Ve
1e-07
21 -3 25
0 0

0101101
*
Ed
 1e-07 1 1 0
1  96 0 9.76996261670138e-15 15.8038475772934
4 C0 28 0 32 0
0

0101000
+158 0 -114 0 *
Ve
1e-07
35 -3 19.9044167202732
0 0

0101101
*
Ed
 1e-07 1 1 0
1  97 0 -12.6482405967872 2.25024821787555
4 C0 28 0 42 0
0

0101000
+112 0 -114 0 *
Ve
1e-07
35 -3 -19.9044167202732
0 0

0101101
*
Ed
 1e-07 1 1 0
1  98 0 5.0955832797268 44.9044167202732
4 C0 28 0 43 0
0

0101000
+110 0 -112 0 *
Ve
1e-07
21 -3 -25
0 0

0101101
*
Ed
 1e-07 1 1 0
1  99 0 14.8507589484078 29.7492477630706
4 C0 28 0 44 0
0

0101000
+108 0 -110 0 *
Ed
 1e-07 1 1 0
1  100 0 9.76996261670138e-15 15.8038475772934
4 C0 28 0 24 0
0

0101000
+136 0 -108 0 *
Wi

0101100
-118 0 -116 0 -115 0 +155 0 +113 0 -111 0 -109 0 -107 0 -106 0 +135 0 
*
Ed
 1e-07 1 1 0
1  101 0 0 3.14159265358979
2  87 27 0 0 3.14159265358979
4 C0 28 0 27 0
0

0101000
+196 0 -198 0 *
Wi

0101100
+104 0 +195 0 *
Ed
 1e-07 1 1 0
1  102 0 0 3.14159265358979
2  88 30 0 0 3.14159265358979
4 C0 28 0 30 0
0

0101000
+186 0 -188 0 *
Wi

0101100
+102 0 +185 0 *
Fa
0  1e-07 28 0

0111000
-105 0 -103 0 -101 0 *
Ve
1e-07
7 -6 -12.5
0 0

0101101
*
Ed
 1e-07 1 1 0
1  103 0 0 7
4 C0 26 0 22 0
0

0101000
+99 0 -146 0 *
Ve
1e-07
21 -6 -25
0 0

0101101
*
Ed
 1e-07 1 1 0
1  104 0 14 35
4 C0 26 0 24 0
0

0101000
+97 0 -148 0 *
Ve
1e-07
35 -6 -19.9044167202732
0 0

0101101
*
Ed
 1e-07 1 1 0
1  105 0 0 14.8984888146628
4 C0 26 0 44 0
0

0101000
+97 0 -95 0 *
Ve
1e-07
35 -6 19.9044167202732
0 0

0101101
*
Ed
 1e-07 1 1 0
1  106 0 5.0955832797268 44.9044167202732
4 C0 26 0 43 0
0

0101000
+95 0 -93 0 *
Ve
1e-07
21 -6 25
0 0

0101101
*
Ed
 1e-07 1 1 0
1  107 0 0 14.8984888146628
4 C0 26 0 42 0
0

0101000
+93 0 -91 0 *
Ed
 1e-07 1 1 0
1  108 0 14 35
4 C0 26 0 32 0
0

0101000
+91 0 -166 0 *
Ve
1e-07
7 -6 12.5
0 0

0101101
*
Ed
 1e-07 1 1 0
1  109 0 13 20
4 C0 26 0 34 0
0

0101000
+168 0 -88 0 *
Ed
 1e-07 1 1 0
1  110 0 0 25
4 C0 26 0 41 0
0

0101000
+88 0 -99 0 *
Wi

0101100
+98 0 -145 0 -96 0 +94 0 +92 0 +90 0 +89 0 -165 0 +87 0 +86 0 
*
Ed
 1e-07 1 1 0
1  111 0 0 3.14159265358979
2  89 27 0 0 3.14159265358979
4 C0 26 0 27 0
0

0101000
+200 0 -201 0 *
Wi

0101100
-84 0 -199 0 *
Ed
 1e-07 1 1 0
1  112 0 0 3.14159265358979
2  90 30 0 0 3.14159265358979
4 C0 26 0 30 0
0

0101000
+190 0 -191 0 *
Wi

0101100
-82 0 -189 0 *
Fa
0  1e-07 26 0

0111000
-85 0 -83 0 -81 0 *
Wi

0101100
+102 0 -187 0 -82 0 -184 0 *
Fa
0  1e-07 30 0

0111000
+79 0 *
Ed
 1e-07 1 1 0
1  113 0 3 6
4 C0 42 0 32 0
0

0101000
+114 0 -91 0 *
Ed
 1e-07 1 1 0
1  114 0 22 25
4 C0 42 0 43 0
0

0101000
+112 0 -93 0 *
Wi

0101100
+111 0 +77 0 -90 0 -76 0 *
Fa
0  1e-07 42 0

0111000
+75 0 *
Wi

0101100
+104 0 -197 0 -84 0 -194 0 *
Fa
0  1e-07 27 0

0111000
+73 0 *
Ed
 1e-07 1 1 0
1  115 0 3 6
4 C0 24 0 44 0
0

0101000
+108 0 -97 0 *
Wi

0101100
+147 0 +131 0 +134 0 +106 0 +71 0 +96 0 *
Ed
 1e-07 1 1 0
1  116 0 0 3.14159265358979
2  91 23 0 0 3.14159265358979
4 C0 24 0 23 0
0

0101000
+208 0 -206 0 *
Wi

0101100
-69 0 -205 0 *
Fa
0  1e-07 24 0

0111000
+70 0 +68 0 *
Wi

0101100
-113 0 -157 0 -126 0 -164 0 -89 0 -77 0 *
Wi

0101100
+122 0 +179 0 *
Fa
0  1e-07 32 0

0111000
-66 0 -65 0 *
Ed
 1e-07 1 1 0
1  117 0 0 3.14159265358979
2  92 23 0 0 3.14159265358979
4 C0 23 0 22 0
0

0101000
+210 0 -211 0 *
Wi

0101100
-69 0 -207 0 -63 0 -204 0 *
Fa
0  1e-07 23 0

0111000
+62 0 *
Ed
 1e-07 1 1 0
1  118 0 22 25
4 C0 22 0 41 0
0

0101000
+119 0 -99 0 *
Wi

0101100
+118 0 +137 0 +130 0 +144 0 -98 0 -60 0 *
Wi

0101100
-63 0 -209 0 *
Fa
0  1e-07 22 0

0111000
+59 0 +58 0 *
Ed
 1e-07 1 1 0
1  119 0 22 25
4 C0 34 0 41 0
0

0101000
+117 0 -88 0 *
Wi

0101100
+115 0 +56 0 -87 0 +167 0 +127 0 +154 0 *
Wi

0101100
-123 0 -175 0 *
Fa
0  1e-07 34 0

0111000
+55 0 +54 0 *
Wi

0101100
+116 0 +60 0 -86 0 -56 0 *
Fa
0  1e-07 41 0

0111000
+52 0 *
Ed
 1e-07 1 1 0
1  120 0 22 25
4 C0 44 0 43 0
0

0101000
+110 0 -95 0 *
Wi

0101100
+107 0 +50 0 -94 0 -71 0 *
Fa
0  1e-07 44 0

0111000
+49 0 *
Wi

0101100
-50 0 +109 0 +76 0 -92 0 *
Fa
0  1e-07 43 0

0111000
-47 0 *
Sh

0101100
-202 0 -192 0 -182 0 -172 0 +162 0 +152 0 +142 0 +132 0 +128 0 +124 0 
-120 0 -100 0 -80 0 -78 0 +74 0 -72 0 +67 0 -64 0 -61 0 +57 0 
+53 0 +51 0 +48 0 -46 0 *
So

0100000
+45 0 *
Ve
1e-07
0 5.00642894539213e-15 -26
0 0

0101101
*
Ve
1e-07
-3.67381906146714e-16 -3 -25
0 0

0101101
*
Ed
 1e-07 1 1 0
1  121 0 0 0.643501108793285
2  93 45 0 0 0.643501108793285
2  94 46 0 0 0.643501108793285
4 G2 45 0 46 0
0

0101000
+43 0 -42 0 *
Ed
 1e-07 1 1 1
2  95 45 0 0 3.14159265358979
0

0101000
+43 0 -43 0 *
Ve
1e-07
3.67381906146713e-16 3 -25
0 0

0101101
*
Ed
 1e-07 1 1 0
1  122 0 5.6396841983863 6.28318530717959
2  96 45 0 5.6396841983863 6.28318530717959
2  97 46 0 5.6396841983863 6.28318530717959
4 CN 45 0 46 0
0

0101000
+39 0 -43 0 *
Ve
1e-07
3 -3.67381906146713e-16 -25
0 0

0101101
*
Ed
 1e-07 1 1 0
1  123 0 3.14159265358979 4.71238898038469
2  98 45 0 3.14159265358979 4.71238898038469
2  99 47 0 3.14159265358979 4.71238898038469
4 C0 45 0 47 0
0

0101000
+37 0 -39 0 *
Ed
 1e-07 1 1 0
1  124 0 1.5707963267949 3.14159265358979
2  100 45 0 1.5707963267949 3.14159265358979
2  101 48 0 1.5707963267949 3.14159265358979
4 C0 45 0 48 0
0

0101000
+42 0 -37 0 *
Wi

0101100
-41 0 +40 0 -38 0 -36 0 -35 0 *
Fa
0  1e-07 45 0

0111000
+34 0 *
Ve
1e-07
0 -7.06641307311459e-15 26
0 0

0101101
*
Ve
1e-07
-3.67381906146712e-16 -3 25
0 0

0101101
*
Ed
 1e-07 1 1 0
1  125 0 0 0.643501108793283
2  102 49 0 0 0.643501108793283
2  103 50 0 0 0.643501108793283
4 G2 49 0 50 0
0

0101000
+32 0 -31 0 *
Ed
 1e-07 1 1 1
2  104 49 0 0 3.14159265358979
0

0101000
+32 0 -32 0 *
Ve
1e-07
3.67381906146714e-16 3 25
0 0

0101101
*
Ed
 1e-07 1 1 0
1  126 0 5.6396841983863 6.28318530717959
2  105 49 0 5.6396841983863 6.28318530717959
2  106 50 0 5.6396841983863 6.28318530717959
4 G2 49 0 50 0
0

0101000
+28 0 -32 0 *
Ve
1e-07
-3 0 25
0 0

0101101
*
Ed
 1e-07 1 1 0
1  127 0 4.71238898038469 6.28318530717959
2  107 49 0 4.71238898038469 6.28318530717959
2  108 47 0 4.71238898038469 6.28318530717959
4 C0 49 0 47 0
0

0101000
+28 0 -26 0 *
Ed
 1e-07 1 1 0
1  128 0 0 1.5707963267949
2  109 49 0 0 1.5707963267949
2  110 48 0 0 1.5707963267949
4 C0 49 0 48 0
0

0101000
+26 0 -31 0 *
Wi

0101100
-30 0 +29 0 -27 0 +25 0 +24 0 *
Fa
0  1e-07 49 0

0111000
+23 0 *
Ve
1e-07
-3 0 -25
0 0

0101101
*
Ed
 1e-07 1 1 0
1  129 0 -25 25
2  111 47 0 -25 25
2  112 48 0 -25 25
4 CN 47 0 48 0
0

0101000
+26 0 -21 0 *
Ve
1e-07
3 -3.67381906146713e-16 25
0 0

0101101
*
Ed
 1e-07 1 1 0
1  130 0 3.14159265358979 4.71238898038469
2  113 47 0 3.14159265358979 4.71238898038469
2  114 50 0 3.14159265358979 4.71238898038469
4 C0 47 0 50 0
0

0101000
+19 0 -28 0 *
Ed
 1e-07 1 1 0
1  131 0 -25 25
2  115 47 0 -25 25
2  116 48 0 -25 25
4 CN 47 0 48 0
0

0101000
+37 0 -19 0 *
Ed
 1e-07 1 1 0
1  132 0 4.71238898038469 6.28318530717959
2  117 47 0 4.71238898038469 6.28318530717959
2  118 46 0 4.71238898038469 6.28318530717959
4 C0 47 0 46 0
0

0101000
+39 0 -21 0 *
Wi

0101100
-20 0 -25 0 -18 0 -17 0 +36 0 +16 0 *
Fa
0  1e-07 47 0

0111000
+15 0 *
Ed
 1e-07 1 1 0
1  133 0 0 1.5707963267949
2  119 48 0 0 1.5707963267949
2  120 46 0 0 1.5707963267949
4 C0 48 0 46 0
0

0101000
+21 0 -42 0 *
Ed
 1e-07 1 1 0
1  134 0 1.5707963267949 3.14159265358979
2  121 48 0 1.5707963267949 3.14159265358979
2  122 50 0 1.5707963267949 3.14159265358979
4 C0 48 0 50 0
0

0101000
+31 0 -19 0 *
Wi

0101100
+20 0 +13 0 +35 0 +17 0 -12 0 -24 0 *
Fa
0  1e-07 48 0

0111000
+11 0 *
Ed
 1e-07 1 1 1
2  123 50 0 0 3.14159265358979
0

0101000
+32 0 -32 0 *
Wi

0101100
+9 0 +30 0 +12 0 +18 0 +27 0 *
Fa
0  1e-07 50 0

0111000
+8 0 *
Ed
 1e-07 1 1 1
2  124 46 0 0 3.14159265358979
0

0101000
+43 0 -43 0 *
Wi

0101100
+6 0 +41 0 -13 0 -16 0 +38 0 *
Fa
0  1e-07 46 0

0111000
+5 0 *
Sh

0101100
+33 0 +22 0 +14 0 +10 0 +7 0 +4 0 *
So

0100000
+3 0 *
Co

1100000
+212 0 +44 0 +2 0 *

+1 0 