DBRep_DrawableShape

CASCADE Topology V1, (c) Matra-Datavision
Locations 0
Curve2ds 192
1 0 0 0 -1 
1 6.2831853071795862 0 0 -1 
1 6.2831853071795862 -14.136429872495462 -1 0 
1 3.1415926535897931 0 0 -1 
1 3.1415926535897931 0 0 -1 
1 0 -6.1364298724954596 1 0 
1 0 0 0 -1 
1 6.2831853071795862 0 0 -1 
1 3.1415926535897931 3.9635701275045396 -1 -2.8271597168564594e-16 
1 3.1415926535897931 0 0 -1 
1 3.1415926535897931 0 0 -1 
1 6.2831853071795862 13.863570127504541 -1 0 
1 0 0 0 -1 
1 6.2831853071795862 0 0 -1 
1 0 1.9101574292901 1 0 
1 3.1415926535897931 0 0 -1 
1 3.1415926535897931 0 0 -1 
1 0 2.9601574292900699 1 0 
1 6.2831853071795862 1.2560739669470132e-15 -1 -3.9982076145732622e-16 
1 6.2831853071795862 1.7763568394002505e-15 0 1 
1 0 1.7763568394002505e-15 0 1 
1 3.1415926535897931 0 0 1 
1 3.1415926535897931 0 0 1 
1 6.2831853071795862 -3.4648232278141036 -1 0 
1 0 5.4101574292901002 1 0 
1 0 0 0 -1 
1 6.2831853071795862 0 0 -1 
1 3.1415926535897931 0 0 -1 
1 3.1415926535897931 0 0 -1 
1 0 6.9101574292901002 1 0 
1 0 0 0 -1 
1 6.2831853071795862 0 0 -1 
1 6.2831853071795862 1.9101574292901 -1 0 
7 0 0  3 25 23  1.7691508489537036 1.9101574292901  1.7631794456382173 1.9161587386791545  1.7512259860546926 1.927636730880226  1.7332666719727934 1.9432649804957218  1.7152810571895061 1.9572890544008275  1.6972720012204405 1.9696955388137445  1.6792423835063839 1.9804723880897031  1.6611951041671713 1.9896091378274281  1.6431330803148338 1.9970968808292067  1.6250592435021194 2.0029283019462167  1.6069765368206339 2.0070976923595905  1.5888879120552932 2.0096009644787522  1.5707963267948968 2.0104356616957819  1.552704741534499 2.0096009644787514  1.5346161167691594 2.0070976923595909  1.5165334100876724 2.0029283019462167  1.4984595732749579 1.997096880829206  1.4803975494226211 1.9896091378274277  1.4623502700834079 1.9804723880897028  1.4443206523693521 1.9696955388137449  1.426311596400287 1.9572890544008272  1.4083259816170006 1.9432649804957216  1.3903666675350999 1.9276367308802258  1.3784132079515747 1.9161587386791548  1.3724418046360896 1.9101574292901 
 2.9432381314309799 4 2.9612703607181445 1 2.9793025900053092 1 2.9973348192924734 1 3.015367048579638 1 3.0333992778668026 1 3.0514315071539673 1 3.0694637364411319 1 3.0874959657282965 1 3.1055281950154607 1 3.1235604243026254 1 3.14159265358979 1 3.1596248828769546 1 3.1776571121641193 1 3.1956893414512839 1 3.2137215707384481 1 3.2317538000256127 1 3.2497860293127774 1 3.267818258599942 1 3.2858504878871067 1 3.3038827171742708 1 3.3219149464614355 1 3.3399471757486001 4
1 6.2831853071795862 1.9101574292901 -1 0 
1 3.1415926535897931 0 0 -1 
1 3.1415926535897931 0 0 -1 
1 6.2831853071795862 2.9601574292900699 -1 0 
1 0 -1.2560739669470132e-15 1 3.9982076145732622e-16 
1 6.2831853071795862 1.7763568394002505e-15 0 1 
1 0 1.7763568394002505e-15 0 1 
1 3.1415926535897931 0 0 1 
1 3.1415926535897931 0 0 1 
1 0 -3.4648232278141036 1 0 
1 6.2831853071795862 5.4101574292901002 -1 0 
1 0 0 0 -1 
1 6.2831853071795862 0 0 -1 
1 3.1415926535897931 0 0 -1 
1 3.1415926535897931 0 0 -1 
1 6.2831853071795862 6.9101574292901002 -1 0 
1 6.2831853071795862 -30.100000000000001 -1 0 
1 0 -30.100000000000001 1 0 
1 0 -6.1364298724954596 1 0 
1 3.1415926535897931 -20 -1 0 
1 -3.1415926535897931 -20 1 0 
1 9.4247779607693793 3.9635701275045379 -1 2.8271597168564594e-16 
1 6.2831853071795862 -10.1 -1 0 
1 0 -10.1 1 0 
1 6.2831853071795862 13.863570127504541 -1 0 
1 1.5707963267948895 0 0 -1 
1 3.1415926535897998 0 0 -1 
1 -3.1415926535897931 -40 1 0 
1 3.1415926535897989 0 0 -1 
1 3.1415926535897931 -40 -1 0 
1 1.5707963267948966 0 0 -1 
1 0 6.9101574292901002 1 0 
1 6.2831853071795862 6.9101574292901002 -1 0 
1 1.5707963267948895 0 0 -1 
1 3.1415926535897998 0 0 -1 
1 3.1415926535897989 0 0 -1 
1 1.5707963267948966 0 0 -1 
1 0 1.9101574292901 1 0 
1 0 1.9101574292901 1 0 
1 6.2831853071795862 1.9101574292901 -1 0 
7 0 0  3 25 23  4.9107435025434967 1.9101574292901  4.9047720992280102 1.9161587386791545  4.8928186396444859 1.927636730880226  4.8748593255625865 1.9432649804957218  4.8568737107792979 1.9572890544008275  4.8388646548102336 1.9696955388137445  4.8208350370961774 1.9804723880897031  4.8027877577569642 1.9896091378274281  4.7847257339046276 1.9970968808292067  4.7666518970919141 2.0029283019462167  4.7485691904104259 2.0070976923595905  4.7304805656450863 2.0096009644787522  4.7123889803846897 2.0104356616957819  4.6942973951242912 2.0096009644787514  4.6762087703589517 2.0070976923595909  4.6581260636774671 2.0029283019462167  4.6400522268647517 1.997096880829206  4.6219902030124143 1.9896091378274277  4.603942923673201 1.9804723880897028  4.5859133059591466 1.9696955388137449  4.5679042499900797 1.9572890544008272  4.5499186352067937 1.9432649804957216  4.5319593211248952 1.9276367308802258  4.5200058615413692 1.9161587386791548  4.5140344582258827 1.9101574292901 
 2.9432381314309799 4 2.9612703607181445 1 2.9793025900053092 1 2.9973348192924734 1 3.015367048579638 1 3.0333992778668026 1 3.0514315071539673 1 3.0694637364411319 1 3.0874959657282965 1 3.1055281950154607 1 3.1235604243026254 1 3.14159265358979 1 3.1596248828769546 1 3.1776571121641193 1 3.1956893414512839 1 3.2137215707384481 1 3.2317538000256127 1 3.2497860293127774 1 3.267818258599942 1 3.2858504878871067 1 3.3038827171742708 1 3.3219149464614355 1 3.3399471757486001 4
1 6.2831853071795862 5.4101574292901002 -1 0 
1 0 -3.4648232278141036 1 0 
1 0 1.2560739669470132e-15 1 -3.9982076145732622e-16 
1 6.2831853071795862 2.9601574292900699 -1 0 
1 0 5.4101574292901002 1 0 
1 6.2831853071795862 -3.4648232278141036 -1 0 
1 6.2831853071795862 -1.2560739669470132e-15 -1 3.9982076145732622e-16 
1 0 2.9601574292900699 1 0 
1 6.2831853071795862 -14.136429872495462 -1 0 
1 0 0 0 -1 
1 6.2831853071795862 0 0 -1 
1 -3.1415926535897931 26.9526798034995 1 0 
1 3.1415926535897931 0 0 -1 
1 3.1415926535897931 0 0 -1 
1 6.2831853071795862 36.852679803499498 -1 0 
1 0 0 0 -1 
1 6.2831853071795862 0 0 -1 
1 6.2831853071795862 6.9526798034994979 -1 0 
1 3.1415926535897931 0 0 -1 
1 3.1415926535897931 0 0 -1 
1 6.2831853071795862 16.852679803499498 -1 0 
1 0 0 0 -1 
1 6.2831853071795862 0 0 -1 
1 0 1.9101574292901 1 0 
1 3.1415926535897931 0 0 -1 
1 3.1415926535897931 0 0 -1 
1 0 2.9601574292900699 1 0 
1 6.2831853071795862 1.2560739669470132e-15 -1 -3.9982076145732622e-16 
1 6.2831853071795862 1.7763568394002505e-15 0 1 
1 0 1.7763568394002505e-15 0 1 
1 3.1415926535897931 0 0 1 
1 3.1415926535897931 0 0 1 
1 6.2831853071795862 -3.4648232278141036 -1 0 
1 0 5.4101574292901002 1 0 
1 0 0 0 -1 
1 6.2831853071795862 0 0 -1 
1 3.1415926535897931 0 0 -1 
1 3.1415926535897931 0 0 -1 
1 0 6.9101574292901002 1 0 
1 0 0 0 -1 
1 6.2831853071795862 0 0 -1 
1 6.2831853071795862 1.9101574292901 -1 0 
7 0 0  3 25 23  1.7691508489537036 1.9101574292901  1.7631794456382173 1.9161587386791545  1.7512259860546926 1.927636730880226  1.7332666719727934 1.9432649804957218  1.7152810571895061 1.9572890544008275  1.6972720012204405 1.9696955388137449  1.6792423835063839 1.9804723880897031  1.6611951041671713 1.9896091378274281  1.6431330803148338 1.9970968808292067  1.6250592435021194 2.0029283019462167  1.6069765368206339 2.0070976923595905  1.5888879120552932 2.0096009644787522  1.5707963267948968 2.0104356616957819  1.552704741534499 2.0096009644787514  1.5346161167691594 2.0070976923595909  1.5165334100876724 2.0029283019462167  1.4984595732749579 1.997096880829206  1.4803975494226211 1.9896091378274277  1.4623502700834079 1.9804723880897028  1.4443206523693521 1.9696955388137449  1.426311596400287 1.9572890544008272  1.4083259816170006 1.9432649804957216  1.3903666675350999 1.9276367308802258  1.3784132079515747 1.9161587386791548  1.3724418046360896 1.9101574292901 
 2.9432381314309799 4 2.9612703607181445 1 2.9793025900053092 1 2.9973348192924734 1 3.015367048579638 1 3.0333992778668026 1 3.0514315071539673 1 3.0694637364411319 1 3.0874959657282965 1 3.1055281950154607 1 3.1235604243026254 1 3.14159265358979 1 3.1596248828769546 1 3.1776571121641193 1 3.1956893414512839 1 3.2137215707384481 1 3.2317538000256127 1 3.2497860293127774 1 3.267818258599942 1 3.2858504878871067 1 3.3038827171742708 1 3.3219149464614355 1 3.3399471757486001 4
1 6.2831853071795862 1.9101574292901 -1 0 
1 3.1415926535897931 0 0 -1 
1 3.1415926535897931 0 0 -1 
1 6.2831853071795862 2.9601574292900699 -1 0 
1 0 -1.2560739669470132e-15 1 3.9982076145732622e-16 
1 6.2831853071795862 1.7763568394002505e-15 0 1 
1 0 1.7763568394002505e-15 0 1 
1 3.1415926535897931 0 0 1 
1 3.1415926535897931 0 0 1 
1 0 -3.4648232278141036 1 0 
1 6.2831853071795862 5.4101574292901002 -1 0 
1 0 0 0 -1 
1 6.2831853071795862 0 0 -1 
1 3.1415926535897931 0 0 -1 
1 3.1415926535897931 0 0 -1 
1 6.2831853071795862 6.9101574292901002 -1 0 
1 1.5707963267948895 0 0 -1 
1 3.1415926535897998 0 0 -1 
1 6.2831853071795862 -30.100000000000001 -1 0 
1 -3.1415926535897931 -40 1 0 
1 3.1415926535897989 0 0 -1 
1 3.1415926535897931 -40 -1 0 
1 0 -30.100000000000001 1 0 
1 1.5707963267948966 0 0 -1 
1 0 6.9101574292901002 1 0 
1 6.2831853071795862 6.9101574292901002 -1 0 
1 1.5707963267948895 0 0 -1 
1 3.1415926535897998 0 0 -1 
1 6.2831853071795862 -10.1 -1 0 
1 -3.1415926535897931 -20 1 0 
1 3.1415926535897989 0 0 -1 
1 3.1415926535897931 -20 -1 0 
1 0 -10.1 1 0 
1 1.5707963267948966 0 0 -1 
1 0 1.9101574292901 1 0 
1 0 1.9101574292901 1 0 
1 6.2831853071795862 1.9101574292901 -1 0 
1 6.2831853071795862 36.852679803499498 -1 0 
7 0 0  3 25 23  4.9107435025434967 1.9101574292901  4.9047720992280102 1.9161587386791545  4.8928186396444859 1.927636730880226  4.8748593255625865 1.9432649804957218  4.8568737107792979 1.9572890544008275  4.8388646548102336 1.9696955388137449  4.8208350370961774 1.9804723880897031  4.8027877577569642 1.9896091378274281  4.7847257339046276 1.9970968808292067  4.7666518970919141 2.0029283019462167  4.7485691904104259 2.0070976923595905  4.7304805656450863 2.0096009644787522  4.7123889803846897 2.0104356616957819  4.6942973951242912 2.0096009644787522  4.6762087703589517 2.0070976923595913  4.6581260636774671 2.0029283019462172  4.6400522268647517 1.9970968808292064  4.6219902030124143 1.9896091378274281  4.603942923673201 1.9804723880897033  4.5859133059591466 1.9696955388137452  4.5679042499900797 1.9572890544008272  4.5499186352067937 1.943264980495722  4.5319593211248952 1.9276367308802258  4.5200058615413692 1.9161587386791545  4.5140344582258827 1.9101574292901 
 2.9432381314309799 4 2.9612703607181445 1 2.9793025900053092 1 2.9973348192924734 1 3.015367048579638 1 3.0333992778668026 1 3.0514315071539673 1 3.0694637364411319 1 3.0874959657282965 1 3.1055281950154607 1 3.1235604243026254 1 3.14159265358979 1 3.1596248828769546 1 3.1776571121641193 1 3.1956893414512839 1 3.2137215707384481 1 3.2317538000256127 1 3.2497860293127774 1 3.267818258599942 1 3.2858504878871067 1 3.3038827171742708 1 3.3219149464614355 1 3.3399471757486001 4
1 3.1415926535897931 26.9526798034995 1 0 
1 6.2831853071795862 16.852679803499498 -1 0 
1 6.2831853071795862 6.9526798034994979 -1 0 
1 6.2831853071795862 5.4101574292901002 -1 0 
1 0 -3.4648232278141036 1 0 
1 0 1.2560739669470132e-15 1 -3.9982076145732622e-16 
1 6.2831853071795862 2.9601574292900699 -1 0 
1 0 5.4101574292901002 1 0 
1 6.2831853071795862 -3.4648232278141036 -1 0 
1 6.2831853071795862 -1.2560739669470132e-15 -1 3.9982076145732622e-16 
1 0 2.9601574292900699 1 0 
1 6.2831853071795862 -0.70710678118654058 -1 3.5339496460705743e-17 
1 3.1415926535897913 2.4424906541753444e-15 1.2560739669470391e-15 1 
1 3.1415926535897913 2.4424906541753444e-15 1.2560739669470391e-15 1 
1 0 -3.1401849173675395e-16 1 1.9991038072866353e-16 
1 6.2831853071795862 39.443934426229504 -1 0 
1 0 -9.9920072216264089e-16 0 1 
1 6.2831853071795862 -9.9920072216264089e-16 0 1 
1 3.141592653589794 0 0 -1 
1 3.141592653589794 0 0 -1 
1 6.2831853071795862 32.343934426229502 -1 0 
1 6.2831853071795862 0 0 -1 
1 0 0 0 -1 
1 6.2831853071795862 32.343934426229502 -1 0 
1 3.1415926535897927 0 0 -1 
1 3.1415926535897927 0 0 -1 
1 6.2831853071795862 1.9439344262295002 -1 0 
1 6.2831853071795862 0 0 -1 
1 0 0 0 -1 
1 6.2831853071795862 1.9439344262295002 -1 0 
1 6.2831853071795862 32.343934426229502 -1 0 
1 6.2831853071795862 32.343934426229502 -1 0 
1 6.2831853071795862 39.443934426229504 -1 0 
1 0 6.280369834735079e-16 1 -9.9955190364331765e-17 
1 6.2831853071795862 -0.70710678118654047 -1 0 
Curves 270
1 -2.0249999999999999 0 -3.9635701275045401 -0 -0 -1 
2 0 0 -18.100000000000001 0 0 -1 -1 0 0 0 1 0 2.0249999999999999
1 2.0249999999999999 2.4799097682733898e-16 -3.9635701275045401 -0 -0 -1 
2 0 0 -10.1 0 0 1 -1 0 0 0 -1 0 2.0249999999999999
1 -2.0249999999999999 0 -3.9635701275045401 -0 -0 -1 
2 0 0 -8.6736173798840296e-16 1.2262738006825699e-16 0 -1 1 0 1.2262738006825699e-16 0 -1 0 2.0249999999999999
1 2.0249999999999999 2.4799097682733898e-16 -3.9635701275045401 -0 -0 -1 
2 0 0 9.9000000000000004 0 0 -1 -1 0 0 0 1 0 2.0249999999999999
1 -12.5 1.9101574292901 -17.600000000000001 0 1 0 
2 -12.5 0 -12.5 0 -1 0 0 0 -1 1 0 0 5.0999999999999996
1 -12.5 1.9101574292901 -7.4000000000000004 0 1 0 
2 -12.5 -1.0499999999999701 -12.5 0 -1 0 0 0 -1 1 0 0 5.0999999999999996
1 -12.5 -1.0499999999999701 -17.600000000000001 0 0.70710678118655101 -0.70710678118654413 
1 -12.5 -1.0499999999999701 -7.4000000000000004 -8.6595605623548909e-17 0.70710678118655101 0.70710678118654413 
2 -12.5 -3.5 -12.5 0 -1 0 0 0 -1 1 0 0 2.6499999999999999
1 -12.5 1.9101574292901 -15.15 0 1 0 
1 -12.5 1.9101574292901 -9.8499999999999996 0 1 0 
2 -12.5 -5 -12.5 0 -1 0 0 0 -1 1 0 0 2.6499999999999999
1 -12.5 1.9101574292901 17.600000000000001 -0 1 -0 
2 -12.5 0 12.5 -0 1 0 0 0 1 1 0 -0 5.0999999999999996
7 1 0  3 4 2  -17.5 0 11.495012437887899  1 -17.633774834437101 -0.13377483443709401 12.1605671147833  0.986928104575162 -17.633774834437101 -0.13377483443709301 12.8394328852167  0.986928104575162 -17.5 0 13.504987562112101  1
 2.9432381314309799 4 3.3399471757486001 4
2 -12.5 0 12.5 -0 1 0 0 0 1 1 0 -0 5.0999999999999996
1 -12.5 1.9101574292901 7.4000000000000004 -0 1 -0 
2 -12.5 -1.0499999999999701 12.5 -0 1 0 0 0 1 1 0 -0 5.0999999999999996
1 -12.5 -1.0499999999999701 17.600000000000001 0 0.70710678118655101 0.70710678118654413 
1 -12.5 -1.0499999999999701 7.4000000000000004 8.6595605623548909e-17 0.70710678118655101 -0.70710678118654413 
2 -12.5 -3.5 12.5 -0 1 0 0 0 1 1 0 -0 2.6499999999999999
1 -12.5 1.9101574292901 15.15 -0 1 -0 
1 -12.5 1.9101574292901 9.8499999999999996 -0 1 -0 
2 -12.5 -5 12.5 -0 1 0 0 0 1 1 0 -0 2.6499999999999999
1 -3.5 -4.5 -10.1 -1 0 -1.48078345742801e-16 
2 8.6736173798840296e-16 0.499999999999999 -10.1 0 0 -1 -1 0 0 0 1 0 5
1 5 4 -10.1 2.4781763942526102e-16 -1 3.6696426091978502e-32 
1 2.5000000000000102 4 -10.1 -0.70710678118654702 0.70710678118654802 -1.04707202421621e-16 
1 5.7149031296572499 4 -10.1 1 -0 1.48078345742801e-16 
1 -5 1.5 -10.1 -0.70710678118654857 -0.70710678118654657 -1.0470720242162093e-16 
1 -5 0.500000000000003 -10.1 0 1 0 
2 -5.5 0.5 -10.1 0 0 1 -1 0 0 0 -1 0 0.5
1 -20 0 -10.1 1 0 1.48078345742801e-16 
1 -6 4 -10.1 -0 -1 -0 
1 5.7149031296572499 -5 -10.1 1 -0 1.48078345742801e-16 
1 -3.5 -5 -10.1 0 -1 0 
2 0 0 -10.1 0 0 1 -1 0 0 0 -1 0 2.0249999999999999
1 5.7149031296572499 -5 0 -1 0 -1.2262738006825699e-16 
1 -6 4 -1.43656787854329e-15 -0 -1 -0 
1 -20 0 -3.4694469519536099e-15 -1 0 -1.2262738006825699e-16 
2 -5.5 0.5 0 1.2262738006825699e-16 0 -1 1 0 1.2262738006825699e-16 0 -1 0 0.5
1 -5 0.500000000000003 0 0 -1 0 
1 -5 1.5 0 0.70710678118654857 0.70710678118654657 8.6710652005404638e-17 
1 5.7149031296572499 4 0 -1 0 -1.2262738006825699e-16 
1 2.5000000000000102 4 0 0.70710678118654702 -0.70710678118654802 8.6710652005404502e-17 
1 5 4 0 -2.4781763942526102e-16 1 -3.0389227857419698e-32 
2 8.6736173798840296e-16 0.499999999999999 0 -1.2262738006825699e-16 0 1 1 0 1.2262738006825699e-16 0 1 -0 5
1 -3.5 -4.5 0 1 0 1.2262738006825699e-16 
1 -3.5 -5 0 0 1 0 
2 0 0 -8.6736173798840296e-16 1.2262738006825699e-16 0 -1 1 0 1.2262738006825699e-16 0 -1 0 2.0249999999999999
1 -3.5 -4.5 9.9000000000000004 -1 0 -1.48078345742801e-16 
2 8.6736173798840296e-16 0.499999999999999 9.9000000000000004 0 0 -1 -1 0 0 0 1 0 5
1 5 4 9.9000000000000004 2.4781763942526102e-16 -1 3.6696426091978601e-32 
1 2.5000000000000102 4 9.9000000000000004 -0.70710678118654702 0.70710678118654802 -1.04707202421621e-16 
1 5.7149031296572304 4 9.9000000000000004 1 -0 1.48078345742801e-16 
1 -5 1.5 9.9000000000000004 -0.70710678118654857 -0.70710678118654657 -1.0470720242162093e-16 
1 -5 0.500000000000003 9.9000000000000004 0 1 0 
2 -5.5 0.5 9.9000000000000004 0 0 1 -1 0 0 0 -1 0 0.5
1 -20 0 9.9000000000000004 1 0 1.48078345742801e-16 
1 -6 4 9.9000000000000004 -0 -1 -0 
1 5.7149031296572304 -5 9.9000000000000004 1 -0 1.48078345742801e-16 
1 -3.5 -5 9.9000000000000004 0 -1 0 
2 0 0 9.9000000000000004 0 0 -1 -1 0 0 0 1 0 2.0249999999999999
1 -3.5 -4.5 20 -0 -0 -1 
1 -3.5 -5 20 -0 -0 -1 
1 -3.5 -5 -20 0 1 0 
1 -3.4694469519536098e-14 -4.5 20 -0 -0 -1 
1 -3.5 -4.5 -20 1 0 0 
1 5 0.50000000000003397 20 -0 -0 -1 
2 8.6736173798840296e-16 0.499999999999999 -20 0 0 1 1 0 -0 -0 1 0 5
1 5 1.5 20 0 0 1 
1 5 4 -20 -2.4781763942526102e-16 1 -0 
1 -2.4999999999999898 4 20 0 0 1 
1 2.5000000000000102 4 20 0 0 -1 
1 -5 4 -20 -1 -0 -0 
1 -5 0.500000000000003 20 -0 -0 -1 
1 -5 1.5 20 0 0 -1 
1 -5 0.500000000000003 -20 -0 -1 -0 
2 -5.5 0.5 -20 0 0 -1 1 0 0 0 -1 0 0.5
1 -5.5 1.0842021724855e-16 20 -0 -0 -1 
1 2.5000000000000102 4 -20 0.70710678118654702 -0.70710678118654802 -0 
1 -5 1.5 -20 0.70710678118654857 0.70710678118654657 -0 
1 -20 -5 20 -0 -1 -0 
1 -20 -2.5 20 0 0 -1 
1 -20 -5 -20 -0 -1 -0 
1 -20 -5 20 -0 -0 -1 
1 -3.5 -5 20 -0 -0 -1 
1 -6 -5 9.9000000000000004 -0 -0 -1 
1 -20 -5 20 1 0 0 
1 -20 -5 -20 1 0 0 
1 -6 -5 -10.1 1.71754799601664e-16 -0 -1 
2 -12.5 -5 -12.5 0 -1 0 0 0 -1 1 0 0 2.6499999999999999
2 -12.5 -5 12.5 -0 1 0 0 0 1 1 0 -0 2.6499999999999999
1 -3.5 -4.5 20 -0 -0 -1 
1 -3.4694469519536098e-14 -4.5 20 -0 -0 -1 
1 5 0.50000000000003397 20 -0 -0 -1 
1 5 1.5 20 0 0 1 
1 -2.4999999999999898 4 20 0 0 1 
1 2.5000000000000102 4 20 0 0 -1 
1 -5 0.500000000000003 20 -0 -0 -1 
1 -5 1.5 20 0 0 -1 
1 -5.5 1.0842021724855e-16 20 -0 -0 -1 
1 -17.5 0 20 0 0 1 
2 -12.5 0 -12.5 0 -1 0 0 0 -1 1 0 0 5.0999999999999996
2 -12.5 0 -12.5 0 -1 0 0 0 -1 1 0 0 5.0999999999999996
1 -17.5 0 20 0 0 1 
2 -12.5 0 12.5 -0 1 0 0 0 1 1 0 -0 5.0999999999999996
1 -17.5 0 20 0 0 1 
1 -20 0 20 -1 -0 -0 
1 -6 0 20 0 0 -1 
1 -6 0 20 1.71754799601664e-16 0 -1 
1 -20 0 -20 -1 -0 -0 
1 -6 0.5 20 0 -1 0 
1 -11.25 6.25 20 -0.70710678118654857 -0.70710678118654657 -0 
1 -20 -2.5 -20 0.70710678118654857 0.70710678118654657 -0 
7 1 0  3 4 2  -17.5 0 -13.504987562112101  1 -17.633774834437101 -0.13377483443709401 -12.8394328852167  0.986928104575162 -17.633774834437101 -0.13377483443709301 -12.1605671147833  0.986928104575162 -17.5 0 -11.495012437887899  1
 2.9432381314309799 4 3.3399471757486001 4
2 -12.5 -3.5 12.5 -0 1 0 0 0 1 1 0 -0 2.6499999999999999
2 -12.5 -1.0499999999999701 12.5 -0 1 0 0 0 1 1 0 -0 5.0999999999999996
2 -12.5 -3.5 -12.5 0 -1 0 0 0 -1 1 0 0 2.6499999999999999
2 -12.5 -1.0499999999999701 -12.5 0 -1 0 0 0 -1 1 0 0 5.0999999999999996
2 0 0 -18.100000000000001 0 0 -1 -1 0 0 0 1 0 2.0249999999999999
1 -2.0249999999999999 5.8271704009806295e-17 -16.852679803499498 4.8284596924631897e-19 3.4577114553440901e-18 -1 
2 -4.8767442893878204e-18 -3.4922885698975302e-17 10.1 -4.8284596924631897e-19 -3.4577114553440901e-18 1 1 0 4.8284596924631897e-19 -1.6695420390297173e-36 1 3.4577114553440901e-18 2.0249999999999999
1 2.0249999999999999 3.0626268083714499e-16 -16.852679803499498 4.8284596924631897e-19 3.4577114553440901e-18 -1 
2 -9.6569193849263903e-18 -6.9154229106881798e-17 20 4.8284596924631897e-19 3.4577114553440901e-18 -1 -1 0 -4.8284596924631897e-19 -1.6695420390297173e-36 1 3.4577114553440901e-18 2.0249999999999999
1 -2.0249999999999999 5.8271704009806295e-17 -16.852679803499498 4.8284596924631897e-19 3.4577114553440901e-18 -1 
2 4.7801750955385599e-18 3.4231343407906501e-17 -9.9000000000000004 4.8284596924631897e-19 3.4577114553440901e-18 -1 -1 0 -4.8284596924631897e-19 -1.6695420390297173e-36 1 3.4577114553440901e-18 2.0249999999999999
1 2.0249999999999999 3.0626268083714499e-16 -16.852679803499498 4.8284596924631897e-19 3.4577114553440901e-18 -1 
2 0 0 0 1.2311022603750301e-16 3.4577114553440901e-18 -1 -1 4.2401009680084501e-34 -1.2311022603750301e-16 -1.6695420390294053e-36 1 3.4577114553440901e-18 2.0249999999999999
1 12.5 1.9101574292901 17.600000000000001 -1.66954203902972e-36 1 3.4577114553440901e-18 
2 12.5 -4.3221393191801097e-17 12.5 1.66954203902972e-36 -1 -3.4577114553440901e-18 -4.8284596924631897e-19 -3.4577114553440901e-18 1 -1 -2.6727647100921956e-51 -4.8284596924631897e-19 5.0999999999999996
1 12.5 1.9101574292901 7.4000000000000004 -1.66954203902972e-36 1 3.4577114553440901e-18 
2 12.5 -1.0499999999999701 12.5 1.66954203902972e-36 -1 -3.4577114553440901e-18 -4.8284596924631897e-19 -3.4577114553440901e-18 1 -1 -2.6727647100921956e-51 -4.8284596924631897e-19 5.0999999999999996
1 12.5 -1.0499999999999701 17.600000000000001 -3.4142365912266205e-19 0.70710678118655101 0.70710678118654413 
1 12.5 -1.0499999999999701 7.4000000000000004 8.6937029282671504e-17 0.70710678118655101 -0.70710678118654413 
2 12.5 -3.5 12.5 1.66954203902972e-36 -1 -3.4577114553440901e-18 -4.8284596924631897e-19 -3.4577114553440901e-18 1 -1 -2.6727647100921956e-51 -4.8284596924631897e-19 2.6499999999999999
1 12.5 1.9101574292901 15.15 -1.66954203902972e-36 1 3.4577114553440901e-18 
1 12.5 1.9101574292901 9.8499999999999996 -1.66954203902972e-36 1 3.4577114553440901e-18 
2 12.5 -5 12.5 1.66954203902972e-36 -1 -3.4577114553440901e-18 -4.8284596924631897e-19 -3.4577114553440901e-18 1 -1 -2.6727647100921956e-51 -4.8284596924631897e-19 2.6499999999999999
1 12.5 1.9101574292901 -17.600000000000001 -1.66954203902972e-36 1 3.4577114553440901e-18 
2 12.5 4.3221393191801097e-17 -12.5 -1.66954203902972e-36 1 3.4577114553440901e-18 4.8284596924631897e-19 3.4577114553440901e-18 -1 -1 -2.6727647100921956e-51 -4.8284596924631897e-19 5.0999999999999996
7 1 0  3 4 2  17.5 3.9746436185807701e-17 -11.495012437887899  1 17.633774834437101 -0.13377483443709401 -12.1605671147833  0.986928104575162 17.633774834437101 -0.13377483443709301 -12.8394328852167  0.986928104575162 17.5 4.66963501977945e-17 -13.504987562112101  1
 2.9432381314309799 4 3.3399471757486001 4
2 12.5 4.3221393191801097e-17 -12.5 -1.66954203902972e-36 1 3.4577114553440901e-18 4.8284596924631897e-19 3.4577114553440901e-18 -1 -1 -2.6727647100921956e-51 -4.8284596924631897e-19 5.0999999999999996
1 12.5 1.9101574292901 -7.4000000000000004 -1.66954203902972e-36 1 3.4577114553440901e-18 
2 12.5 -1.0499999999999701 -12.5 -1.66954203902972e-36 1 3.4577114553440901e-18 4.8284596924631897e-19 3.4577114553440901e-18 -1 -1 -2.6727647100921956e-51 -4.8284596924631897e-19 5.0999999999999996
1 12.5 -1.0499999999999701 -17.600000000000001 3.4142365912266205e-19 0.70710678118655101 -0.70710678118654413 
1 12.5 -1.0499999999999701 -7.4000000000000004 -8.6937029282671504e-17 0.70710678118655101 0.70710678118654413 
2 12.5 -3.5 -12.5 -1.66954203902972e-36 1 3.4577114553440901e-18 4.8284596924631897e-19 3.4577114553440901e-18 -1 -1 -2.6727647100921956e-51 -4.8284596924631897e-19 2.6499999999999999
1 12.5 1.9101574292901 -15.15 -1.66954203902972e-36 1 3.4577114553440901e-18 
1 12.5 1.9101574292901 -9.8499999999999996 -1.66954203902972e-36 1 3.4577114553440901e-18 
2 12.5 -5 -12.5 -1.66954203902972e-36 1 3.4577114553440901e-18 4.8284596924631897e-19 3.4577114553440901e-18 -1 -1 -2.6727647100921956e-51 -4.8284596924631897e-19 2.6499999999999999
1 3.5 -4.5 -20 -4.8284596924631897e-19 -3.4577114553440901e-18 1 
1 3.5 -5 10.1 1.66954203902972e-36 -1 -3.4577114553440901e-18 
1 3.5 -5 -20 -4.8284596924631897e-19 -3.4577114553440901e-18 1 
1 3.5 -5 20 -1.66954203902972e-36 1 3.4577114553440901e-18 
1 3.4704126438921099e-14 -4.5 -20 -4.8284596924631897e-19 -3.4577114553440901e-18 1 
1 3.5 -4.5 10.1 1 -5.12012192363285e-34 1.48561191712047e-16 
1 3.5 -4.5 20 -1 0 -4.8284596924631897e-19 
1 -5 0.50000000000003397 -20 -4.8284596924631897e-19 -3.4577114553440901e-18 1 
2 -8.7223848227779102e-16 0.499999999999999 10.1 -4.8284596924631897e-19 -3.4577114553440901e-18 1 1 0 4.8284596924631897e-19 -1.6695420390297173e-36 1 3.4577114553440901e-18 5
2 -8.7701865737332999e-16 0.499999999999999 20 4.8284596924631897e-19 3.4577114553440901e-18 -1 -1 0 -4.8284596924631897e-19 -1.6695420390297173e-36 1 3.4577114553440901e-18 5
1 -5 1.5 -20 4.8284596924631897e-19 3.4577114553440901e-18 -1 
1 -5 4 10.1 -2.4781763942526102e-16 -1 -3.4577114553441202e-18 
1 -5 4 20 2.4781763942526102e-16 1 3.4577114553440901e-18 
1 2.4999999999999898 4 -20 4.8284596924631897e-19 3.4577114553440901e-18 -1 
1 -5.7149031296572499 4 10.1 -1 5.12012192363285e-34 -1.48561191712047e-16 
1 -2.5000000000000102 4 -20 -4.8284596924631897e-19 -3.4577114553440901e-18 1 
1 5 4 20 1 -0 4.8284596924631897e-19 
1 5 0.500000000000003 -20 -4.8284596924631897e-19 -3.4577114553440901e-18 1 
1 5 0.500000000000003 10.1 -1.66954203902972e-36 1 3.4577114553440901e-18 
1 5 1.5 -20 -4.8284596924631897e-19 -3.4577114553440901e-18 1 
1 5 0.500000000000003 20 1.66954203902972e-36 -1 -3.4577114553440901e-18 
2 5.5 0.5 20 -4.8284596924631897e-19 -3.4577114553440901e-18 1 -1 0 -4.8284596924631897e-19 1.6695420390297173e-36 -1 -3.4577114553440901e-18 0.5
2 5.5 0.5 10.1 4.8284596924631897e-19 3.4577114553440901e-18 -1 1 0 4.8284596924631897e-19 1.6695420390297173e-36 -1 -3.4577114553440901e-18 0.5
1 5.5 1.7757444635543201e-16 -20 -4.8284596924631897e-19 -3.4577114553440901e-18 1 
1 -2.5000000000000102 4 10.1 0.70710678118654702 0.70710678118654802 1.07493597298203e-16 
1 -2.5000000000000102 4 20 -0.70710678118654702 -0.70710678118654802 -2.7863948765828799e-18 
1 5 1.5 10.1 0.70710678118654857 -0.70710678118654657 1.0260365486328292e-16 
1 5 1.5 20 -0.70710678118654857 0.70710678118654657 2.1035475583375385e-18 
1 20 -5 -20 1.66954203902972e-36 -1 -3.4577114553440901e-18 
1 20 -2.5 -20 -4.8284596924631897e-19 -3.4577114553440901e-18 1 
1 20 -5 20 1.66954203902972e-36 -1 -3.4577114553440901e-18 
1 20 -5 -20 -4.8284596924631897e-19 -3.4577114553440901e-18 1 
1 3.5 -5 -20 -4.8284596924631897e-19 -3.4577114553440901e-18 1 
1 -5.7149031296572304 -5 -9.9000000000000004 -1 5.1201219236328602e-34 -1.48561191712047e-16 
1 6 -5 -9.9000000000000004 -4.8284596924631897e-19 -3.4577114553440901e-18 1 
1 20 -5 -20 -1 0 -4.8284596924631897e-19 
1 20 -5 20 -1 0 -4.8284596924631897e-19 
1 -5.7149031296572499 -5 10.1 -1 5.12012192363285e-34 -1.48561191712047e-16 
1 6 -5 10.1 -1.7223764557091e-16 -3.4577114553440901e-18 1 
1 -5.7149031296572499 -5 -2.00479752175086e-17 1 -4.2401009680084501e-34 1.2311022603750301e-16 
2 12.5 -5 12.5 1.66954203902972e-36 -1 -3.4577114553440901e-18 -4.8284596924631897e-19 -3.4577114553440901e-18 1 -1 -2.6727647100921956e-51 -4.8284596924631897e-19 2.6499999999999999
2 12.5 -5 -12.5 -1.66954203902972e-36 1 3.4577114553440901e-18 4.8284596924631897e-19 3.4577114553440901e-18 -1 -1 -2.6727647100921956e-51 -4.8284596924631897e-19 2.6499999999999999
1 3.5 -4.5 -20 -4.8284596924631897e-19 -3.4577114553440901e-18 1 
1 3.5 -5 -9.9000000000000004 1.66954203902972e-36 -1 -3.4577114553440901e-18 
1 3.5 -5 -1.55985963843583e-17 -1.66954203902972e-36 1 3.4577114553440901e-18 
1 3.4704126438921099e-14 -4.5 -20 -4.8284596924631897e-19 -3.4577114553440901e-18 1 
1 3.5 -4.5 -9.9000000000000004 1 -5.1201219236328602e-34 1.48561191712047e-16 
1 3.5 -4.5 -1.3869740656686301e-17 -1 4.2401009680084501e-34 -1.2311022603750301e-16 
1 -5 0.50000000000003397 -20 -4.8284596924631897e-19 -3.4577114553440901e-18 1 
2 -8.6258156289286498e-16 0.499999999999999 -9.9000000000000004 -4.8284596924631897e-19 -3.4577114553440901e-18 1 1 0 4.8284596924631897e-19 -1.6695420390297173e-36 1 3.4577114553440901e-18 5
2 -8.6736173798840296e-16 0.499999999999999 1.72885572767204e-18 1.2311022603750301e-16 3.4577114553440901e-18 -1 -1 4.2401009680084501e-34 -1.2311022603750301e-16 -1.6695420390294053e-36 1 3.4577114553440901e-18 5
1 -5 1.5 -20 4.8284596924631897e-19 3.4577114553440901e-18 -1 
1 -5 4 -9.9000000000000004 -2.4781763942526102e-16 -1 -3.4577114553441202e-18 
1 -5 4 1.14166159751448e-17 2.4781763942526102e-16 1 3.4577114553441202e-18 
1 2.4999999999999898 4 -20 4.8284596924631897e-19 3.4577114553440901e-18 -1 
1 -5.7149031296572304 4 -9.9000000000000004 -1 5.1201219236328602e-34 -1.48561191712047e-16 
1 -2.5000000000000102 4 -20 -4.8284596924631897e-19 -3.4577114553440901e-18 1 
1 -5.7149031296572499 4 1.10714278805882e-17 1 -4.2401009680084501e-34 1.2311022603750301e-16 
1 5 0.500000000000003 -20 -4.8284596924631897e-19 -3.4577114553440901e-18 1 
1 5 0.500000000000003 -9.9000000000000004 -1.66954203902972e-36 1 3.4577114553440901e-18 
1 5 1.5 -20 -4.8284596924631897e-19 -3.4577114553440901e-18 1 
1 5 0.500000000000003 4.1430855739036497e-18 1.66954203902972e-36 -1 -3.4577114553440901e-18 
2 5.5 0.5 4.3845085585267998e-18 -1.2311022603750301e-16 -3.4577114553440901e-18 1 -1 4.2401009680084604e-34 -1.2311022603750301e-16 1.6695420390283789e-36 -1 -3.4577114553440901e-18 0.5
2 5.5 0.5 -9.9000000000000004 4.8284596924631897e-19 3.4577114553440901e-18 -1 1 0 4.8284596924631897e-19 1.6695420390297173e-36 -1 -3.4577114553440901e-18 0.5
1 5.5 1.7757444635543201e-16 -20 -4.8284596924631897e-19 -3.4577114553440901e-18 1 
1 17.5 6.9154229106881798e-17 -20 4.8284596924631897e-19 3.4577114553440901e-18 -1 
2 12.5 -4.3221393191801097e-17 12.5 1.66954203902972e-36 -1 -3.4577114553440901e-18 -4.8284596924631897e-19 -3.4577114553440901e-18 1 -1 -2.6727647100921956e-51 -4.8284596924631897e-19 5.0999999999999996
2 12.5 -4.3221393191801097e-17 12.5 1.66954203902972e-36 -1 -3.4577114553440901e-18 -4.8284596924631897e-19 -3.4577114553440901e-18 1 -1 -2.6727647100921956e-51 -4.8284596924631897e-19 5.0999999999999996
1 17.5 6.9154229106881798e-17 -20 4.8284596924631897e-19 3.4577114553440901e-18 -1 
2 12.5 4.3221393191801097e-17 -12.5 -1.66954203902972e-36 1 3.4577114553440901e-18 4.8284596924631897e-19 3.4577114553440901e-18 -1 -1 -2.6727647100921956e-51 -4.8284596924631897e-19 5.0999999999999996
1 17.5 6.9154229106881798e-17 -20 4.8284596924631897e-19 3.4577114553440901e-18 -1 
1 20 6.9154229106881798e-17 -20 1 -0 4.8284596924631897e-19 
1 6 6.9154229106881798e-17 -20 -4.8284596924631897e-19 -3.4577114553440901e-18 1 
1 20 3.4231343407906501e-17 -9.9000000000000004 -1 5.1201219236328602e-34 -1.48561191712047e-16 
1 20 -1.19963464694786e-32 3.4791038713385401e-15 1 -4.2401009680084501e-34 1.2311022603750301e-16 
1 6 6.9154229106881798e-17 -20 -1.7223764557091e-16 -3.4577114553440901e-18 1 
1 20 -3.4922885698975302e-17 10.1 -1 5.12012192363285e-34 -1.48561191712047e-16 
1 20 -6.9154229106881798e-17 20 1 -0 4.8284596924631897e-19 
1 6 0.5 -20 1.66954203902972e-36 -1 -3.4577114553440901e-18 
1 11.25 6.25 -20 0.70710678118654857 -0.70710678118654657 -2.1035475583375385e-18 
1 20 -2.5 20 -0.70710678118654857 0.70710678118654657 2.1035475583375385e-18 
2 -9.6569193849263903e-18 -6.9154229106881798e-17 20 4.8284596924631897e-19 3.4577114553440901e-18 -1 -1 0 -4.8284596924631897e-19 -1.6695420390297173e-36 1 3.4577114553440901e-18 2.0249999999999999
1 -2.5000000000000102 4 -9.9000000000000004 0.70710678118654702 0.70710678118654802 1.07493597298204e-16 
1 -2.5000000000000102 4 1.26237308982605e-17 -0.70710678118654702 -0.70710678118654802 -8.9497046881987399e-17 
1 5 1.5 -9.9000000000000004 0.70710678118654857 -0.70710678118654657 1.0260365486328292e-16 
1 5 1.5 7.6007970292477194e-18 -0.70710678118654857 0.70710678118654657 -8.4607104447067139e-17 
7 1 0  3 4 2  17.5 -4.66963501977945e-17 13.504987562112101  1 17.633774834437101 -0.13377483443709401 12.8394328852167  0.986928104575162 17.633774834437101 -0.13377483443709401 12.1605671147833  0.986928104575162 17.5 -3.9746436185807701e-17 11.495012437887899  1
 2.9432381314309799 4 3.3399471757486001 4
1 6 4 1.4532958001801499e-15 1.66954203902972e-36 -1 -3.4577114553440901e-18 
1 6 4 10.1 1.66954203902972e-36 -1 -3.4577114553440901e-18 
2 -4.8767442893878204e-18 -3.4922885698975302e-17 10.1 -4.8284596924631897e-19 -3.4577114553440901e-18 1 1 0 4.8284596924631897e-19 -1.6695420390297173e-36 1 3.4577114553440901e-18 2.0249999999999999
2 0 0 0 1.2311022603750301e-16 3.4577114553440901e-18 -1 -1 4.2401009680084501e-34 -1.2311022603750301e-16 -1.6695420390294053e-36 1 3.4577114553440901e-18 2.0249999999999999
1 6 4 -9.9000000000000004 1.66954203902972e-36 -1 -3.4577114553440901e-18 
2 4.7801750955385599e-18 3.4231343407906501e-17 -9.9000000000000004 4.8284596924631897e-19 3.4577114553440901e-18 -1 -1 0 -4.8284596924631897e-19 -1.6695420390297173e-36 1 3.4577114553440901e-18 2.0249999999999999
2 12.5 -3.5 -12.5 -1.66954203902972e-36 1 3.4577114553440901e-18 4.8284596924631897e-19 3.4577114553440901e-18 -1 -1 -2.6727647100921956e-51 -4.8284596924631897e-19 2.6499999999999999
2 12.5 -1.0499999999999701 -12.5 -1.66954203902972e-36 1 3.4577114553440901e-18 4.8284596924631897e-19 3.4577114553440901e-18 -1 -1 -2.6727647100921956e-51 -4.8284596924631897e-19 5.0999999999999996
2 12.5 -3.5 12.5 1.66954203902972e-36 -1 -3.4577114553440901e-18 -4.8284596924631897e-19 -3.4577114553440901e-18 1 -1 -2.6727647100921956e-51 -4.8284596924631897e-19 2.6499999999999999
2 12.5 -1.0499999999999701 12.5 1.66954203902972e-36 -1 -3.4577114553440901e-18 -4.8284596924631897e-19 -3.4577114553440901e-18 1 -1 -2.6727647100921956e-51 -4.8284596924631897e-19 5.0999999999999996
2 7.1195587417502594e-15 9.2659516311954599e-15 -18 3.3051331766402101e-16 5.53973363481014e-16 -1 0.85640061453421834 -0.51631190904860325 -2.9712365017472097e-18 -0.51631190904860325 -0.85640061453421834 -6.4507109092982645e-16 1.55000000000001
1 -1.7556212597951399 1.05843941354965 -17.5 -0.60556668194947083 0.36508765209563776 0.70710678118654968 
2 6.9217932211460897e-15 9.0085640858844802e-15 -17.5 -3.3051331766402101e-16 -5.53973363481014e-16 1 0.85640061453421834 -0.51631190904860325 -2.9712365017472097e-18 0.51631190904860325 0.85640061453421834 6.4507109092982645e-16 2.0499999999999998
1 1.7556212597951499 -1.05843941354963 -17.5 0.60556668194947016 -0.36508765209563798 0.70710678118655013 
1 -1.7556212597951599 1.05843941354963 21.9439344262295 -3.95531041208348e-16 -5.1477509062197004e-16 1 
2 4.1135228285668197e-15 5.3536609424684903e-15 -10.4 -3.30513317664022e-16 -5.53973363481014e-16 1 0.85640061453421834 -0.51631190904860325 -2.9712365017463716e-18 0.51631190904860325 0.85640061453421834 6.4507109092982695e-16 2.0499999999999998
1 1.7556212597951399 -1.05843941354965 21.9439344262295 -3.95531041208348e-16 -5.1477509062197004e-16 1 
2 4.1135228285668197e-15 5.3536609424684903e-15 -10.4 -3.3051331766402101e-16 -5.53973363481014e-16 1 0.85640061453421834 -0.51631190904860325 -2.9712365017472097e-18 0.51631190904860325 0.85640061453421834 6.4507109092982645e-16 2
1 -1.71280122906844 1.0326238180971901 21.9439344262295 -3.95531041208348e-16 -5.1477509062197004e-16 1 
2 -7.9106208241669603e-15 -1.0295501812439401e-14 20 -3.3051331766402101e-16 -5.53973363481014e-16 1 0.85640061453421834 -0.51631190904860325 -2.9712365017472097e-18 0.51631190904860325 0.85640061453421834 6.4507109092982645e-16 2
1 1.71280122906843 -1.03262381809722 21.9439344262295 -3.95531041208348e-16 -5.1477509062197004e-16 1 
2 -7.9106208241669603e-15 -1.0295501812439401e-14 20 -3.3051331766402101e-16 -5.53973363481014e-16 1 0.85640061453421834 -0.51631190904860325 -2.9712365017472097e-18 0.51631190904860325 0.85640061453421834 6.4507109092982645e-16 2
2 4.1135228285668197e-15 5.3536609424684903e-15 -10.4 -3.3051331766402101e-16 -5.53973363481014e-16 1 0.85640061453421834 -0.51631190904860325 -2.9712365017472097e-18 0.51631190904860325 0.85640061453421834 6.4507109092982645e-16 2
2 4.1135228285668197e-15 5.3536609424684903e-15 -10.4 -3.30513317664022e-16 -5.53973363481014e-16 1 0.85640061453421834 -0.51631190904860325 -2.9712365017463716e-18 0.51631190904860325 0.85640061453421834 6.4507109092982695e-16 2.0499999999999998
2 6.9217932211460897e-15 9.0085640858844802e-15 -17.5 -3.3051331766402101e-16 -5.53973363481014e-16 1 0.85640061453421834 -0.51631190904860325 -2.9712365017472097e-18 0.51631190904860325 0.85640061453421834 6.4507109092982645e-16 2.0499999999999998
2 7.1195587417502594e-15 9.2659516311954599e-15 -18 3.3051331766402101e-16 5.53973363481014e-16 -1 0.85640061453421834 -0.51631190904860325 -2.9712365017472097e-18 -0.51631190904860325 -0.85640061453421834 -6.4507109092982645e-16 1.55000000000001
Polygon3D 0
PolygonOnTriangulations 0
Surfaces 100
2 0 0 -3.9635701275045401 0 0 1 -1 0 0 0 -1 0 2.0249999999999999
2 0 0 -3.9635701275045401 0 0 1 -1 0 0 0 -1 0 2.0249999999999999
1 0 0 -18.100000000000001 0 0 1 1 0 -0 -0 1 0 
1 5.7149031296572499 4 -10.1 1.48078345742801e-16 0 -1 0 -1 0 -1 -0 -1.48078345742801e-16 
2 0 0 -3.9635701275045401 0 0 1 -1 0 0 0 -1 0 2.0249999999999999
2 0 0 -3.9635701275045401 0 0 1 -1 0 0 0 -1 0 2.0249999999999999
1 5.7149031296572499 4 0 -1.2262738006825699e-16 0 1 1 0 1.2262738006825699e-16 0 1 -0 
1 5.7149031296572304 4 9.9000000000000004 1.48078345742801e-16 0 -1 0 -1 0 -1 -0 -1.48078345742801e-16 
2 -12.5 1.9101574292901 -12.5 0 -1 -0 0 0 -1 1 0 0 5.0999999999999996
2 -12.5 1.9101574292901 -12.5 0 -1 -0 0 0 -1 1 0 0 5.0999999999999996
1 -20 0 20 0 -1 0 0 0 -1 1 0 0 
3 -12.5 -1.0499999999999701 -12.5 -0 1 0 0 0 -1 -1 0 -0 5.0999999999999996
0.78539816339744295
3 -12.5 -1.0499999999999701 -12.5 -0 1 0 0 0 -1 -1 0 -0 5.0999999999999996
0.78539816339744295
2 -12.5 1.9101574292901 -12.5 0 -1 -0 0 0 -1 1 0 0 2.6499999999999999
2 -12.5 1.9101574292901 -12.5 0 -1 -0 0 0 -1 1 0 0 2.6499999999999999
1 -20 -5 20 -0 1 0 1 0 0 0 0 -1 
2 -12.5 1.9101574292901 12.5 0 -1 0 0 0 1 -1 0 0 5.0999999999999996
2 -12.5 1.9101574292901 12.5 0 -1 0 0 0 1 -1 0 0 5.0999999999999996
1 -20 -2.5 20 0.70710678118654657 -0.70710678118654857 0 0 0 -1 0.70710678118654857 0.70710678118654657 0 
3 -12.5 -1.0499999999999701 12.5 -0 1 -0 0 0 1 1 0 -0 5.0999999999999996
0.78539816339744295
3 -12.5 -1.0499999999999701 12.5 -0 1 -0 0 0 1 1 0 -0 5.0999999999999996
0.78539816339744295
2 -12.5 1.9101574292901 12.5 0 -1 0 0 0 1 -1 0 0 2.6499999999999999
2 -12.5 1.9101574292901 12.5 0 -1 0 0 0 1 -1 0 0 2.6499999999999999
1 -3.5 -4.5 20 -0 1 0 1 0 0 0 0 -1 
2 8.6736173798840296e-16 0.499999999999999 20 0 0 1 -1 0 0 0 -1 0 5
1 5 4 20 -1 -2.4781763942526102e-16 0 -2.4781763942526102e-16 1 0 -0 0 -1 
1 2.5000000000000102 4 20 -0.70710678118654802 -0.70710678118654702 0 -0.70710678118654702 0.70710678118654802 0 -0 0 -1 
1 -5 4 20 0 -1 0 0 0 -1 1 0 0 
1 -5 1.5 20 0.70710678118654657 -0.70710678118654857 0 0 0 -1 0.70710678118654857 0.70710678118654657 0 
1 -5 0.500000000000003 20 1 0 0 -0 1 0 0 -0 1 
2 -5.5 0.5 20 0 0 1 -1 0 0 0 -1 0 0.5
1 -6 4 -10.1 -1 0 -1.71754799601664e-16 -1.71754799601664e-16 0 1 0 1 0 
1 -3.5 -5 20 -1 0 0 0 0 1 0 1 -0 
2 -5.5 0.5 20 0 0 1 -1 0 0 0 -1 0 0.5
1 -5 0.500000000000003 20 1 0 0 -0 1 0 0 -0 1 
1 -5 1.5 20 0.70710678118654657 -0.70710678118654857 0 0 0 -1 0.70710678118654857 0.70710678118654657 0 
1 -5 4 20 0 -1 0 0 0 -1 1 0 0 
1 2.5000000000000102 4 20 -0.70710678118654802 -0.70710678118654702 0 -0.70710678118654702 0.70710678118654802 0 -0 0 -1 
1 5 4 20 -1 -2.4781763942526102e-16 0 -2.4781763942526102e-16 1 0 -0 0 -1 
2 8.6736173798840296e-16 0.499999999999999 20 0 0 1 -1 0 0 0 -1 0 5
1 -3.5 -4.5 20 -0 1 0 1 0 0 0 0 -1 
1 -3.5 -5 20 -1 0 0 0 0 1 0 1 -0 
1 -6 4 9.9000000000000004 -1 0 0 0 0 1 0 1 -0 
1 -5.5 0.5 -20 0 0 1 1 0 -0 -0 1 0 
1 -20 -5 20 1 0 0 -0 1 0 0 -0 1 
1 -5.5 0.5 20 0 0 1 1 0 -0 -0 1 0 
2 8.1372485141186106e-18 5.8271704009806295e-17 -16.852679803499498 -4.8284596924631897e-19 -3.4577114553440901e-18 1 -1 0 -4.8284596924631897e-19 1.6695420390297173e-36 -1 -3.4577114553440901e-18 2.0249999999999999
2 8.1372485141186106e-18 5.8271704009806295e-17 -16.852679803499498 -4.8284596924631897e-19 -3.4577114553440901e-18 1 -1 0 -4.8284596924631897e-19 1.6695420390297173e-36 -1 -3.4577114553440901e-18 2.0249999999999999
1 -5.7149031296572499 4 10.1 -1.48561191712047e-16 -3.4577114553440901e-18 1 1.6695420390297474e-36 -1 -3.4577114553440901e-18 1 -5.1201219236328465e-34 1.48561191712047e-16 
1 5.5 0.5 20 4.8284596924631897e-19 3.4577114553440901e-18 -1 -1 0 -4.8284596924631897e-19 -1.6695420390297173e-36 1 3.4577114553440901e-18 
2 8.1372485141186106e-18 5.8271704009806295e-17 -16.852679803499498 -4.8284596924631897e-19 -3.4577114553440901e-18 1 -1 0 -4.8284596924631897e-19 1.6695420390297173e-36 -1 -3.4577114553440901e-18 2.0249999999999999
2 8.1372485141186106e-18 5.8271704009806295e-17 -16.852679803499498 -4.8284596924631897e-19 -3.4577114553440901e-18 1 -1 0 -4.8284596924631897e-19 1.6695420390297173e-36 -1 -3.4577114553440901e-18 2.0249999999999999
1 -5.7149031296572304 4 -9.9000000000000004 -1.48561191712047e-16 -3.4577114553440901e-18 1 1.6695420390297474e-36 -1 -3.4577114553440901e-18 1 -5.1201219236328465e-34 1.48561191712047e-16 
1 -5.7149031296572499 4 1.10714278805882e-17 1.2311022603750301e-16 3.4577114553440901e-18 -1 -1 4.2401009680084501e-34 -1.2311022603750301e-16 -1.6695420390294053e-36 1 3.4577114553440901e-18 
2 12.5 1.9101574292901 12.5 1.66954203902972e-36 -1 -3.4577114553440901e-18 -4.8284596924631897e-19 -3.4577114553440901e-18 1 -1 -2.6727647100921956e-51 -4.8284596924631897e-19 5.0999999999999996
2 12.5 1.9101574292901 12.5 1.66954203902972e-36 -1 -3.4577114553440901e-18 -4.8284596924631897e-19 -3.4577114553440901e-18 1 -1 -2.6727647100921956e-51 -4.8284596924631897e-19 5.0999999999999996
1 20 6.9154229106881798e-17 -20 1.66954203902972e-36 -1 -3.4577114553440901e-18 -4.8284596924631897e-19 -3.4577114553440901e-18 1 -1 -2.6727647100921956e-51 -4.8284596924631897e-19 
3 12.5 -1.0499999999999701 12.5 -1.66954203902972e-36 1 3.4577114553440901e-18 -4.8284596924631897e-19 -3.4577114553440901e-18 1 1 2.6727647100921956e-51 4.8284596924631897e-19 5.0999999999999996
0.78539816339744295
3 12.5 -1.0499999999999701 12.5 -1.66954203902972e-36 1 3.4577114553440901e-18 -4.8284596924631897e-19 -3.4577114553440901e-18 1 1 2.6727647100921956e-51 4.8284596924631897e-19 5.0999999999999996
0.78539816339744295
2 12.5 1.9101574292901 12.5 1.66954203902972e-36 -1 -3.4577114553440901e-18 -4.8284596924631897e-19 -3.4577114553440901e-18 1 -1 -2.6727647100921956e-51 -4.8284596924631897e-19 2.6499999999999999
2 12.5 1.9101574292901 12.5 1.66954203902972e-36 -1 -3.4577114553440901e-18 -4.8284596924631897e-19 -3.4577114553440901e-18 1 -1 -2.6727647100921956e-51 -4.8284596924631897e-19 2.6499999999999999
1 20 -5 -20 -1.66954203902972e-36 1 3.4577114553440901e-18 -1 -2.6727647100921956e-51 -4.8284596924631897e-19 -4.8284596924631897e-19 -3.4577114553440901e-18 1 
2 12.5 1.9101574292901 -12.5 1.66954203902972e-36 -1 -3.4577114553440901e-18 4.8284596924631897e-19 3.4577114553440901e-18 -1 1 2.6727647100921956e-51 4.8284596924631897e-19 5.0999999999999996
2 12.5 1.9101574292901 -12.5 1.66954203902972e-36 -1 -3.4577114553440901e-18 4.8284596924631897e-19 3.4577114553440901e-18 -1 1 2.6727647100921956e-51 4.8284596924631897e-19 5.0999999999999996
1 20 -2.5 -20 -0.70710678118654657 -0.70710678118654857 -2.786394876582878e-18 -4.828459692463184e-19 -3.4577114553440897e-18 1 -0.70710678118654857 0.70710678118654657 2.103547558337545e-18 
3 12.5 -1.0499999999999701 -12.5 -1.66954203902972e-36 1 3.4577114553440901e-18 4.8284596924631897e-19 3.4577114553440901e-18 -1 -1 -2.6727647100921956e-51 -4.8284596924631897e-19 5.0999999999999996
0.78539816339744295
3 12.5 -1.0499999999999701 -12.5 -1.66954203902972e-36 1 3.4577114553440901e-18 4.8284596924631897e-19 3.4577114553440901e-18 -1 -1 -2.6727647100921956e-51 -4.8284596924631897e-19 5.0999999999999996
0.78539816339744295
2 12.5 1.9101574292901 -12.5 1.66954203902972e-36 -1 -3.4577114553440901e-18 4.8284596924631897e-19 3.4577114553440901e-18 -1 1 2.6727647100921956e-51 4.8284596924631897e-19 2.6499999999999999
2 12.5 1.9101574292901 -12.5 1.66954203902972e-36 -1 -3.4577114553440901e-18 4.8284596924631897e-19 3.4577114553440901e-18 -1 1 2.6727647100921956e-51 4.8284596924631897e-19 2.6499999999999999
1 3.5 -5 -20 1 0 4.8284596924631897e-19 4.8284596924631897e-19 3.4577114553440901e-18 -1 -1.6695420390297173e-36 1 3.4577114553440901e-18 
1 3.5 -4.5 -20 -1.66954203902972e-36 1 3.4577114553440901e-18 -1 -2.6727647100921956e-51 -4.8284596924631897e-19 -4.8284596924631897e-19 -3.4577114553440901e-18 1 
2 -8.5770481860347701e-16 0.499999999999999 -20 4.8284596924631897e-19 3.4577114553440901e-18 -1 1 0 4.8284596924631897e-19 1.6695420390297173e-36 -1 -3.4577114553440901e-18 5
1 -5 4 -20 1 -2.4781763942526102e-16 4.8284596924631801e-19 2.4781763942526102e-16 1 3.4577114553440901e-18 -4.8284596924631888e-19 -3.4577114553440901e-18 1 
1 -2.5000000000000102 4 -20 0.70710678118654802 -0.70710678118654702 -2.10354755833754e-18 0.70710678118654702 0.70710678118654802 2.7863948765828795e-18 -4.8284596924632552e-19 -3.4577114553440866e-18 1 
1 5 4 -20 1.66954203902972e-36 -1 -3.4577114553440901e-18 -4.8284596924631897e-19 -3.4577114553440901e-18 1 -1 -2.6727647100921956e-51 -4.8284596924631897e-19 
1 5 1.5 -20 -0.70710678118654657 -0.70710678118654857 -2.786394876582878e-18 -4.828459692463184e-19 -3.4577114553440897e-18 1 -0.70710678118654857 0.70710678118654657 2.103547558337545e-18 
1 5 0.500000000000003 -20 -1 0 -4.8284596924631897e-19 -1.6695420390297173e-36 1 3.4577114553440901e-18 4.8284596924631897e-19 3.4577114553440901e-18 -1 
2 5.5 0.5 -20 4.8284596924631897e-19 3.4577114553440901e-18 -1 1 0 4.8284596924631897e-19 1.6695420390297173e-36 -1 -3.4577114553440901e-18 0.5
1 20 -5 -20 -1 0 -4.8284596924631897e-19 -1.6695420390297173e-36 1 3.4577114553440901e-18 4.8284596924631897e-19 3.4577114553440901e-18 -1 
1 5.5 0.5 -20 4.8284596924631897e-19 3.4577114553440901e-18 -1 -1 0 -4.8284596924631897e-19 -1.6695420390297173e-36 1 3.4577114553440901e-18 
1 3.5 -5 -20 1 0 4.8284596924631897e-19 4.8284596924631897e-19 3.4577114553440901e-18 -1 -1.6695420390297173e-36 1 3.4577114553440901e-18 
1 6 4 -9.9000000000000004 1 0 4.8284596924631897e-19 4.8284596924631897e-19 3.4577114553440901e-18 -1 -1.6695420390297173e-36 1 3.4577114553440901e-18 
1 6 4 10.1 1 -5.9387853809300197e-34 1.7223764557091e-16 1.7223764557091e-16 3.4577114553440901e-18 -1 -1.6695420390288066e-36 1 3.4577114553440901e-18 
1 3.5 -4.5 -20 -1.66954203902972e-36 1 3.4577114553440901e-18 -1 -2.6727647100921956e-51 -4.8284596924631897e-19 -4.8284596924631897e-19 -3.4577114553440901e-18 1 
2 -8.5770481860347701e-16 0.499999999999999 -20 4.8284596924631897e-19 3.4577114553440901e-18 -1 1 0 4.8284596924631897e-19 1.6695420390297173e-36 -1 -3.4577114553440901e-18 5
1 -5 4 -20 1 -2.4781763942526102e-16 4.8284596924631801e-19 2.4781763942526102e-16 1 3.4577114553440901e-18 -4.8284596924631888e-19 -3.4577114553440901e-18 1 
1 -2.5000000000000102 4 -20 0.70710678118654802 -0.70710678118654702 -2.10354755833754e-18 0.70710678118654702 0.70710678118654802 2.7863948765828795e-18 -4.8284596924632552e-19 -3.4577114553440866e-18 1 
1 5 4 -20 1.66954203902972e-36 -1 -3.4577114553440901e-18 -4.8284596924631897e-19 -3.4577114553440901e-18 1 -1 -2.6727647100921956e-51 -4.8284596924631897e-19 
1 5 1.5 -20 -0.70710678118654657 -0.70710678118654857 -2.786394876582878e-18 -4.828459692463184e-19 -3.4577114553440897e-18 1 -0.70710678118654857 0.70710678118654657 2.103547558337545e-18 
1 5 0.500000000000003 -20 -1 0 -4.8284596924631897e-19 -1.6695420390297173e-36 1 3.4577114553440901e-18 4.8284596924631897e-19 3.4577114553440901e-18 -1 
2 5.5 0.5 -20 4.8284596924631897e-19 3.4577114553440901e-18 -1 1 0 4.8284596924631897e-19 1.6695420390297173e-36 -1 -3.4577114553440901e-18 0.5
3 6.9217932211460897e-15 9.0085640858844802e-15 -17.5 -3.3051331766402101e-16 -5.53973363481014e-16 1 0.85640061453421834 -0.51631190904860325 -2.9712365017472097e-18 0.51631190904860325 0.85640061453421834 6.4507109092982645e-16 2.0499999999999998
0.78539816339744495
1 1.05843941354965 1.7556212597951599 -18 -2.6549559411969501e-16 -5.9317163634005896e-16 1 0.51631190904860325 0.85640061453421834 6.4507109092982724e-16 -0.85640061453421834 0.51631190904860325 7.8890989991985474e-17 
3 6.9217932211460897e-15 9.0085640858844802e-15 -17.5 -3.3051331766402101e-16 -5.53973363481014e-16 1 0.85640061453421834 -0.51631190904860325 -2.9712365017472097e-18 0.51631190904860325 0.85640061453421834 6.4507109092982645e-16 2.0499999999999998
0.78539816339744495
2 -8.6795072318142706e-15 -1.1296190832864901e-14 21.9439344262295 3.3051331766402101e-16 5.53973363481014e-16 -1 0.85640061453421834 -0.51631190904860325 -2.9712365017472097e-18 -0.51631190904860325 -0.85640061453421834 -6.4507109092982645e-16 2.0499999999999998
2 -8.6795072318142706e-15 -1.1296190832864901e-14 21.9439344262295 3.3051331766402101e-16 5.53973363481014e-16 -1 0.85640061453421834 -0.51631190904860325 -2.9712365017472097e-18 -0.51631190904860325 -0.85640061453421834 -6.4507109092982645e-16 2.0499999999999998
1 1.03262381809721 1.71280122906844 -10.4 2.6549559411969501e-16 5.9317163634005896e-16 -1 0.51631190904860325 0.85640061453421834 6.4507109092982724e-16 0.85640061453421834 -0.51631190904860325 -7.8890989991985474e-17 
2 -8.6795072318142706e-15 -1.1296190832864901e-14 21.9439344262295 3.3051331766402101e-16 5.53973363481014e-16 -1 0.85640061453421834 -0.51631190904860325 -2.9712365017472097e-18 -0.51631190904860325 -0.85640061453421834 -6.4507109092982645e-16 2
2 -8.6795072318142706e-15 -1.1296190832864901e-14 21.9439344262295 3.3051331766402101e-16 5.53973363481014e-16 -1 0.85640061453421834 -0.51631190904860325 -2.9712365017472097e-18 -0.51631190904860325 -0.85640061453421834 -6.4507109092982645e-16 2
1 -1.04397362016673e-14 -1.4490516348343399e-14 20 2.6549559411969501e-16 5.9317163634005896e-16 -1 0.51631190904860325 0.85640061453421834 6.4507109092982724e-16 0.85640061453421834 -0.51631190904860325 -7.8890989991985474e-17 
Triangulations 0

TShapes 663
Ve
1e-07
-2.025 0 -10.1
0 0

0101101
*
Ve
1e-07
-2.025 0 -18.1
0 0

0101101
*
Ed
 1e-07 1 1 0
1  1 0 6.13642987249546 14.1364298724955
2  1 1 0 6.13642987249546 14.1364298724955
2  2 2 0 6.13642987249546 14.1364298724955
4 CN 1 0 2 0
0

0101000
+663 0 -662 0 *
Ve
1e-07
2.025 2.47990976827339e-16 -18.1
0 0

0101101
*
Ed
 1e-07 1 1 0
1  2 0 3.14159265358979 6.28318530717959
2  3 1 0 3.14159265358979 6.28318530717959
4 C0 1 0 3 0
0

0101000
+660 0 -662 0 *
Ve
1e-07
2.025 2.47990976827339e-16 -10.1
0 0

0101101
*
Ed
 1e-07 1 1 0
1  3 0 6.13642987249546 14.1364298724955
2  4 1 0 6.13642987249546 14.1364298724955
2  5 2 0 6.13642987249546 14.1364298724955
4 CN 1 0 2 0
0

0101000
+658 0 -660 0 *
Ed
 1e-07 1 1 0
1  4 0 0 3.14159265358979
2  6 1 0 0 3.14159265358979
4 C0 1 0 4 0
0

0101000
+663 0 -658 0 *
Wi

0101100
+661 0 -659 0 -657 0 -656 0 *
Fa
0  1e-07 1 0

0111000
+655 0 *
Ve
1e-07
-2.025 0 9.9
0 0

0101101
*
Ve
1e-07
-2.025 0 -1.11568218262662e-15
0 0

0101101
*
Ed
 1e-07 1 1 0
1  5 0 -13.8635701275045 -3.96357012750454
2  7 5 0 -13.8635701275045 -3.96357012750454
2  8 6 0 -13.8635701275045 -3.96357012750454
4 CN 5 0 6 0
0

0101000
+653 0 -652 0 *
Ve
1e-07
2.025 2.47990976827339e-16 -6.19041293350183e-16
0 0

0101101
*
Ed
 1e-07 1 1 0
1  6 0 0 3.14159265358979
2  9 5 0 0 3.14159265358979
4 C0 5 0 7 0
0

0101000
+650 0 -652 0 *
Ve
1e-07
2.025 2.47990976827339e-16 9.9
0 0

0101101
*
Ed
 1e-07 1 1 0
1  7 0 -13.8635701275045 -3.96357012750454
2  10 5 0 -13.8635701275045 -3.96357012750454
2  11 6 0 -13.8635701275045 -3.96357012750454
4 CN 5 0 6 0
0

0101000
+648 0 -650 0 *
Ed
 1e-07 1 1 0
1  8 0 3.14159265358979 6.28318530717959
2  12 5 0 3.14159265358979 6.28318530717959
4 C0 5 0 8 0
0

0101000
+648 0 -653 0 *
Wi

0101100
+651 0 -649 0 -647 0 +646 0 *
Fa
0  1e-07 5 0

0111000
+645 0 *
Ve
1e-07
-12.5 -1.04999999999997 -17.6
0 0

0101101
*
Ve
1e-07
-12.5 0 -17.6
0 0

0101101
*
Ed
 1e-07 1 1 0
1  9 0 -2.96015742929007 -1.9101574292901
2  13 9 0 -2.96015742929007 -1.9101574292901
2  14 10 0 -2.96015742929007 -1.9101574292901
4 CN 9 0 10 0
0

0101000
+643 0 -642 0 *
Ve
1e-07
-12.5 0 -7.4
0 0

0101101
*
Ed
 1e-07 1 1 0
1  10 0 0 3.14159265358979
2  15 9 0 0 3.14159265358979
4 C0 9 0 11 0
0

0101000
+642 0 -640 0 *
Ve
1e-07
-12.5 -1.04999999999997 -7.4
0 0

0101101
*
Ed
 1e-07 1 1 0
1  11 0 -2.96015742929007 -1.9101574292901
2  16 9 0 -2.96015742929007 -1.9101574292901
2  17 10 0 -2.96015742929007 -1.9101574292901
4 CN 9 0 10 0
0

0101000
+638 0 -640 0 *
Ed
 1e-07 1 1 0
1  12 0 0 3.14159265358979
2  18 9 0 0 3.14159265358979
2  19 12 0 0 3.14159265358979
4 C0 9 0 12 0
0

0101000
+643 0 -638 0 *
Wi

0101100
+641 0 +639 0 -637 0 -636 0 *
Fa
0  1e-07 9 0

0111000
+635 0 *
Ve
1e-07
-12.5 -3.5 -15.15
0 0

0101101
*
Ed
 1e-07 1 1 0
1  13 0 -3.4648232278141 0
2  20 12 0 -3.4648232278141 0
2  21 13 0 -3.4648232278141 0
4 CN 12 0 13 0
0

0101000
+633 0 -643 0 *
Ve
1e-07
-12.5 -3.5 -9.85
0 0

0101101
*
Ed
 1e-07 1 1 0
1  14 0 -3.4648232278141 0
2  22 12 0 -3.4648232278141 0
2  23 13 0 -3.4648232278141 0
4 CN 12 0 13 0
0

0101000
+631 0 -638 0 *
Ed
 1e-07 1 1 0
1  15 0 0 3.14159265358979
2  24 12 0 0 3.14159265358979
2  25 14 0 0 3.14159265358979
4 C0 12 0 14 0
0

0101000
+633 0 -631 0 *
Wi

0101100
+632 0 +636 0 -630 0 -629 0 *
Fa
0  1e-07 12 0

0111000
+628 0 *
Ve
1e-07
-12.5 -5 -15.15
0 0

0101101
*
Ed
 1e-07 1 1 0
1  16 0 -6.9101574292901 -5.4101574292901
2  26 14 0 -6.9101574292901 -5.4101574292901
2  27 15 0 -6.9101574292901 -5.4101574292901
4 CN 14 0 15 0
0

0101000
+626 0 -633 0 *
Ve
1e-07
-12.5 -5 -9.85
0 0

0101101
*
Ed
 1e-07 1 1 0
1  17 0 -6.9101574292901 -5.4101574292901
2  28 14 0 -6.9101574292901 -5.4101574292901
2  29 15 0 -6.9101574292901 -5.4101574292901
4 CN 14 0 15 0
0

0101000
+624 0 -631 0 *
Ed
 1e-07 1 1 0
1  18 0 0 3.14159265358979
2  30 14 0 0 3.14159265358979
4 C0 14 0 16 0
0

0101000
+626 0 -624 0 *
Wi

0101100
+625 0 +629 0 -623 0 -622 0 *
Fa
0  1e-07 14 0

0111000
+621 0 *
Ve
1e-07
-12.5 -1.04999999999997 17.6
0 0

0101101
*
Ve
1e-07
-12.5 0 17.6
0 0

0101101
*
Ed
 1e-07 1 1 0
1  19 0 -2.96015742929007 -1.9101574292901
2  31 17 0 -2.96015742929007 -1.9101574292901
2  32 18 0 -2.96015742929007 -1.9101574292901
4 CN 17 0 18 0
0

0101000
+619 0 -618 0 *
Ve
1e-07
-17.5 0 13.5049875621121
0 0

0101101
*
Ed
 1e-07 1 1 0
1  20 0 4.9107435025435 6.28318530717959
2  33 17 0 4.9107435025435 6.28318530717959
4 C0 17 0 11 0
0

0101000
+616 0 -618 0 *
Ve
1e-07
-17.5 0 11.4950124378879
0 0

0101101
*
Ed
 1e-07 1 1 0
1  21 0 2.94323813143098 3.3399471757486
2  34 17 0 2.94323813143098 3.3399471757486
4 C0 17 0 19 0
0

0101000
+614 0 -616 0 *
Ve
1e-07
-12.5 0 7.4
0 0

0101101
*
Ed
 1e-07 1 1 0
1  22 0 3.14159265358979 4.51403445822588
2  35 17 0 3.14159265358979 4.51403445822588
4 C0 17 0 11 0
0

0101000
+612 0 -614 0 *
Ve
1e-07
-12.5 -1.04999999999997 7.4
0 0

0101101
*
Ed
 1e-07 1 1 0
1  23 0 -2.96015742929007 -1.9101574292901
2  36 17 0 -2.96015742929007 -1.9101574292901
2  37 18 0 -2.96015742929007 -1.9101574292901
4 CN 17 0 18 0
0

0101000
+610 0 -612 0 *
Ed
 1e-07 1 1 0
1  24 0 3.14159265358979 6.28318530717959
2  38 17 0 3.14159265358979 6.28318530717959
2  39 20 0 3.14159265358979 6.28318530717959
4 C0 17 0 20 0
0

0101000
+610 0 -619 0 *
Wi

0101100
+617 0 -615 0 -613 0 -611 0 -609 0 +608 0 *
Fa
0  1e-07 17 0

0111000
+607 0 *
Ve
1e-07
-12.5 -3.5 15.15
0 0

0101101
*
Ed
 1e-07 1 1 0
1  25 0 -3.4648232278141 0
2  40 20 0 -3.4648232278141 0
2  41 21 0 -3.4648232278141 0
4 CN 20 0 21 0
0

0101000
+605 0 -619 0 *
Ve
1e-07
-12.5 -3.5 9.85
0 0

0101101
*
Ed
 1e-07 1 1 0
1  26 0 -3.4648232278141 0
2  42 20 0 -3.4648232278141 0
2  43 21 0 -3.4648232278141 0
4 CN 20 0 21 0
0

0101000
+603 0 -610 0 *
Ed
 1e-07 1 1 0
1  27 0 3.14159265358979 6.28318530717959
2  44 20 0 3.14159265358979 6.28318530717959
2  45 22 0 3.14159265358979 6.28318530717959
4 C0 20 0 22 0
0

0101000
+603 0 -605 0 *
Wi

0101100
+604 0 -608 0 -602 0 +601 0 *
Fa
0  1e-07 20 0

0111000
+600 0 *
Ve
1e-07
-12.5 -5 15.15
0 0

0101101
*
Ed
 1e-07 1 1 0
1  28 0 -6.9101574292901 -5.4101574292901
2  46 22 0 -6.9101574292901 -5.4101574292901
2  47 23 0 -6.9101574292901 -5.4101574292901
4 CN 22 0 23 0
0

0101000
+598 0 -605 0 *
Ve
1e-07
-12.5 -5 9.85
0 0

0101101
*
Ed
 1e-07 1 1 0
1  29 0 -6.9101574292901 -5.4101574292901
2  48 22 0 -6.9101574292901 -5.4101574292901
2  49 23 0 -6.9101574292901 -5.4101574292901
4 CN 22 0 23 0
0

0101000
+596 0 -603 0 *
Ed
 1e-07 1 1 0
1  30 0 3.14159265358979 6.28318530717959
2  50 22 0 3.14159265358979 6.28318530717959
4 C0 22 0 16 0
0

0101000
+596 0 -598 0 *
Wi

0101100
+597 0 -601 0 -595 0 +594 0 *
Fa
0  1e-07 22 0

0111000
+593 0 *
Ve
1e-07
-3.46944695195361e-14 -4.5 -10.1
0 0

0101101
*
Ve
1e-07
-3.5 -4.5 -10.1
0 0

0101101
*
Ed
 1e-07 1 1 0
1  31 0 -3.49999999999997 0
4 C0 4 0 24 0
0

0101000
+591 0 -590 0 *
Ve
1e-07
5 0.500000000000034 -10.1
0 0

0101101
*
Ed
 1e-07 1 1 0
1  32 0 3.14159265358979 4.7123889803847
2  51 25 0 3.14159265358979 4.7123889803847
4 C0 4 0 25 0
0

0101000
+588 0 -591 0 *
Ve
1e-07
5 1.5 -10.1
0 0

0101101
*
Ed
 1e-07 1 1 0
1  33 0 2.5 3.49999999999997
4 C0 4 0 26 0
0

0101000
+586 0 -588 0 *
Ve
1e-07
2.50000000000001 4 -10.1
0 0

0101101
*
Ed
 1e-07 1 1 0
1  34 0 -3.53553390593273 0
4 C0 4 0 27 0
0

0101000
+586 0 -584 0 *
Ve
1e-07
-2.49999999999999 4 -10.1
0 0

0101101
*
Ed
 1e-07 1 1 0
1  35 0 -8.21490312965724 -3.21490312965724
4 C0 4 0 28 0
0

0101000
+582 0 -584 0 *
Ve
1e-07
-5 1.5 -10.1
0 0

0101101
*
Ed
 1e-07 1 1 0
1  36 0 -3.53553390593274 -0
4 C0 4 0 29 0
0

0101000
+582 0 -580 0 *
Ve
1e-07
-5 0.500000000000003 -10.1
0 0

0101101
*
Ed
 1e-07 1 1 0
1  37 0 0 0.999999999999997
4 C0 4 0 30 0
0

0101000
+578 0 -580 0 *
Ve
1e-07
-5.5 1.0842021724855e-16 -10.1
0 0

0101101
*
Ed
 1e-07 1 1 0
1  38 0 1.5707963267949 3.14159265358979
2  52 31 0 1.5707963267949 3.14159265358979
4 C0 4 0 31 0
0

0101000
+576 0 -578 0 *
Ve
1e-07
-6 0 -10.1
0 0

0101101
*
Ed
 1e-07 1 1 0
1  39 0 14 14.5
4 C0 4 0 11 0
0

0101000
+574 0 -576 0 *
Ve
1e-07
-6 -5 -10.1
0 0

0101101
*
Ed
 1e-07 1 1 0
1  40 0 4 9
4 C0 4 0 32 0
0

0101000
+574 0 -572 0 *
Ve
1e-07
-3.5 -5 -10.1
0 0

0101101
*
Ed
 1e-07 1 1 0
1  41 0 -11.7149031296572 -9.21490312965725
4 C0 4 0 16 0
0

0101000
+572 0 -570 0 *
Ed
 1e-07 1 1 0
1  42 0 -0.5 0
4 C0 4 0 33 0
0

0101000
+590 0 -570 0 *
Wi

0101100
-589 0 -587 0 -585 0 +583 0 -581 0 +579 0 -577 0 -575 0 -573 0 +571 0 
+569 0 -568 0 *
Ed
 1e-07 1 1 0
1  43 0 3.14159265358979 6.28318530717959
2  53 2 0 3.14159265358979 6.28318530717959
4 C0 4 0 2 0
0

0101000
+658 0 -663 0 *
Wi

0101100
-656 0 -566 0 *
Fa
0  1e-07 4 0

0111000
-567 0 -565 0 *
Ve
1e-07
-3.5 -5 -1.12999942837265e-15
0 0

0101101
*
Ve
1e-07
-6 -5 -1.43656787854329e-15
0 0

0101101
*
Ed
 1e-07 1 1 0
1  44 0 9.21490312965725 11.7149031296572
4 C0 7 0 16 0
0

0101000
+563 0 -562 0 *
Ve
1e-07
-6 0 -1.43656787854329e-15
0 0

0101101
*
Ed
 1e-07 1 1 0
1  45 0 4 9
4 C0 7 0 32 0
0

0101000
+560 0 -562 0 *
Ve
1e-07
-5.5 1.0842021724855e-16 -5.2963073470649e-31
0 0

0101101
*
Ed
 1e-07 1 1 0
1  46 0 -14.5 -14
4 C0 7 0 11 0
0

0101000
+558 0 -560 0 *
Ve
1e-07
-5 0.500000000000003 0
0 0

0101101
*
Ed
 1e-07 1 1 0
1  47 0 0 1.5707963267949
2  54 34 0 0 1.5707963267949
4 C0 7 0 34 0
0

0101000
+556 0 -558 0 *
Ve
1e-07
-5 1.5 0
0 0

0101101
*
Ed
 1e-07 1 1 0
1  48 0 -0.999999999999997 0
4 C0 7 0 35 0
0

0101000
+554 0 -556 0 *
Ve
1e-07
-2.49999999999999 4 -1.00737204830439e-15
0 0

0101101
*
Ed
 1e-07 1 1 0
1  49 0 0 3.53553390593274
4 C0 7 0 36 0
0

0101000
+554 0 -552 0 *
Ve
1e-07
2.50000000000001 4 -3.94235147963108e-16
0 0

0101101
*
Ed
 1e-07 1 1 0
1  50 0 3.21490312965724 8.21490312965724
4 C0 7 0 37 0
0

0101000
+550 0 -552 0 *
Ve
1e-07
5 1.5 3.06568450170641e-16
0 0

0101101
*
Ed
 1e-07 1 1 0
1  51 0 -3.41843867233282e-32 3.53553390593273
4 C0 7 0 38 0
0

0101000
+550 0 -548 0 *
Ve
1e-07
5 0.500000000000034 1.06362297500968e-31
0 0

0101101
*
Ed
 1e-07 1 1 0
1  52 0 -3.49999999999997 -2.5
4 C0 7 0 39 0
0

0101000
+546 0 -548 0 *
Ve
1e-07
-3.46944695195361e-14 -4.5 -4.33334237487128e-30
0 0

0101101
*
Ed
 1e-07 1 1 0
1  53 0 4.71238898038468 6.28318530717959
2  55 40 0 4.71238898038468 6.28318530717959
4 C0 7 0 40 0
0

0101000
+544 0 -546 0 *
Ve
1e-07
-3.5 -4.5 -3.35855313794713e-31
0 0

0101101
*
Ed
 1e-07 1 1 0
1  54 0 -4.1185057212648e-47 3.49999999999997
4 C0 7 0 41 0
0

0101000
+542 0 -544 0 *
Ed
 1e-07 1 1 0
1  55 0 0 0.5
4 C0 7 0 42 0
0

0101000
+563 0 -542 0 *
Wi

0101100
+561 0 -559 0 -557 0 -555 0 -553 0 +551 0 -549 0 +547 0 -545 0 -543 0 
-541 0 -540 0 *
Ed
 1e-07 1 1 0
1  56 0 3.14159265358979 6.28318530717959
2  56 6 0 3.14159265358979 6.28318530717959
4 C0 7 0 6 0
0

0101000
+652 0 -650 0 *
Wi

0101100
-538 0 -649 0 *
Fa
0  1e-07 7 0

0111000
-539 0 -537 0 *
Ve
1e-07
-3.46944695195361e-14 -4.5 9.9
0 0

0101101
*
Ve
1e-07
-3.5 -4.5 9.9
0 0

0101101
*
Ed
 1e-07 1 1 0
1  57 0 -3.49999999999997 0
4 C0 8 0 41 0
0

0101000
+535 0 -534 0 *
Ve
1e-07
5 0.500000000000034 9.9
0 0

0101101
*
Ed
 1e-07 1 1 0
1  58 0 3.14159265358979 4.7123889803847
2  57 40 0 3.14159265358979 4.7123889803847
4 C0 8 0 40 0
0

0101000
+532 0 -535 0 *
Ve
1e-07
5 1.5 9.9
0 0

0101101
*
Ed
 1e-07 1 1 0
1  59 0 2.5 3.49999999999997
4 C0 8 0 39 0
0

0101000
+530 0 -532 0 *
Ve
1e-07
2.50000000000001 4 9.9
0 0

0101101
*
Ed
 1e-07 1 1 0
1  60 0 -3.53553390593273 0
4 C0 8 0 38 0
0

0101000
+530 0 -528 0 *
Ve
1e-07
-2.49999999999999 4 9.9
0 0

0101101
*
Ed
 1e-07 1 1 0
1  61 0 -8.21490312965722 -3.21490312965722
4 C0 8 0 37 0
0

0101000
+526 0 -528 0 *
Ve
1e-07
-5 1.5 9.9
0 0

0101101
*
Ed
 1e-07 1 1 0
1  62 0 -3.53553390593274 -0
4 C0 8 0 36 0
0

0101000
+526 0 -524 0 *
Ve
1e-07
-5 0.500000000000003 9.9
0 0

0101101
*
Ed
 1e-07 1 1 0
1  63 0 0 0.999999999999997
4 C0 8 0 35 0
0

0101000
+522 0 -524 0 *
Ve
1e-07
-5.5 1.0842021724855e-16 9.9
0 0

0101101
*
Ed
 1e-07 1 1 0
1  64 0 1.5707963267949 3.14159265358979
2  58 34 0 1.5707963267949 3.14159265358979
4 C0 8 0 34 0
0

0101000
+520 0 -522 0 *
Ve
1e-07
-6 0 9.9
0 0

0101101
*
Ed
 1e-07 1 1 0
1  65 0 14 14.5
4 C0 8 0 11 0
0

0101000
+518 0 -520 0 *
Ve
1e-07
-6 -5 9.9
0 0

0101101
*
Ed
 1e-07 1 1 0
1  66 0 4 9
4 C0 8 0 43 0
0

0101000
+518 0 -516 0 *
Ve
1e-07
-3.5 -5 9.9
0 0

0101101
*
Ed
 1e-07 1 1 0
1  67 0 -11.7149031296572 -9.21490312965723
4 C0 8 0 16 0
0

0101000
+516 0 -514 0 *
Ed
 1e-07 1 1 0
1  68 0 -0.5 0
4 C0 8 0 42 0
0

0101000
+534 0 -514 0 *
Wi

0101100
-533 0 -531 0 -529 0 +527 0 -525 0 +523 0 -521 0 -519 0 -517 0 +515 0 
+513 0 -512 0 *
Ed
 1e-07 1 1 0
1  69 0 0 3.14159265358979
2  59 6 0 0 3.14159265358979
4 C0 8 0 6 0
0

0101000
+653 0 -648 0 *
Wi

0101100
+510 0 +646 0 *
Fa
0  1e-07 8 0

0111000
-511 0 -509 0 *
Ve
1e-07
-3.5 -4.5 -20
0 0

0101101
*
Ed
 1e-07 1 1 0
1  70 0 30.1 40
4 C0 33 0 24 0
0

0101000
+590 0 -507 0 *
Ve
1e-07
-3.5 -5 -20
0 0

0101101
*
Ed
 1e-07 1 1 0
1  71 0 30.1 40
4 C0 33 0 16 0
0

0101000
+570 0 -505 0 *
Ed
 1e-07 1 1 0
1  72 0 0 0.5
4 C0 33 0 44 0
0

0101000
+505 0 -507 0 *
Wi

0101100
-506 0 +568 0 +504 0 +503 0 *
Fa
0  1e-07 33 0

0111000
-502 0 *
Ve
1e-07
-3.46944695195361e-14 -4.5 -20
0 0

0101101
*
Ed
 1e-07 1 1 0
1  73 0 30.1 40
2  60 25 0 30.1 40
4 G1 24 0 25 0
0

0101000
+591 0 -500 0 *
Ed
 1e-07 1 1 0
1  74 0 0 3.49999999999997
4 C0 24 0 44 0
0

0101000
+507 0 -500 0 *
Wi

0101100
-499 0 +589 0 +506 0 +498 0 *
Fa
0  1e-07 24 0

0111000
-497 0 *
Ve
1e-07
5 0.500000000000034 -20
0 0

0101101
*
Ed
 1e-07 1 1 0
1  75 0 30.1 40
2  61 25 0 30.1 40
4 G1 25 0 26 0
0

0101000
+588 0 -495 0 *
Ed
 1e-07 1 1 0
1  76 0 4.71238898038468 6.28318530717959
2  62 25 0 4.71238898038468 6.28318530717959
4 C0 25 0 44 0
0

0101000
+500 0 -495 0 *
Wi

0101100
-494 0 +587 0 +499 0 +493 0 *
Fa
0  1e-07 25 0

0111000
+492 0 *
Ve
1e-07
5 1.50000000000001 -20
0 0

0101101
*
Ed
 1e-07 1 1 0
1  77 0 -40 -30.1
4 C0 26 0 27 0
0

0101000
+490 0 -586 0 *
Ed
 1e-07 1 1 0
1  78 0 -3.49999999999997 -2.49999999999999
4 C0 26 0 44 0
0

0101000
+495 0 -490 0 *
Wi

0101100
+489 0 +585 0 +494 0 +488 0 *
Fa
0  1e-07 26 0

0111000
-487 0 *
Ve
1e-07
-2.49999999999999 4 -20
0 0

0101101
*
Ed
 1e-07 1 1 0
1  79 0 -40 -30.1
4 C0 28 0 29 0
0

0101000
+485 0 -582 0 *
Ve
1e-07
2.50000000000001 4 -20
0 0

0101101
*
Ed
 1e-07 1 1 0
1  80 0 30.1 40
4 C0 28 0 27 0
0

0101000
+584 0 -483 0 *
Ed
 1e-07 1 1 0
1  81 0 -7.50000000000001 -2.50000000000001
4 C0 28 0 44 0
0

0101000
+483 0 -485 0 *
Wi

0101100
+484 0 +581 0 +482 0 +481 0 *
Fa
0  1e-07 28 0

0111000
-480 0 *
Ve
1e-07
-5 0.500000000000003 -20
0 0

0101101
*
Ed
 1e-07 1 1 0
1  82 0 30.1 40
2  63 31 0 30.1 40
4 G1 30 0 31 0
0

0101000
+578 0 -478 0 *
Ve
1e-07
-5 1.5 -20
0 0

0101101
*
Ed
 1e-07 1 1 0
1  83 0 30.1 40
4 C0 30 0 29 0
0

0101000
+580 0 -476 0 *
Ed
 1e-07 1 1 0
1  84 0 -0.999999999999997 -0
4 C0 30 0 44 0
0

0101000
+476 0 -478 0 *
Wi

0101100
-477 0 +577 0 +475 0 +474 0 *
Fa
0  1e-07 30 0

0111000
-473 0 *
Ve
1e-07
-5.5 1.0842021724855e-16 -20
0 0

0101101
*
Ed
 1e-07 1 1 0
1  85 0 0 1.5707963267949
2  64 31 0 0 1.5707963267949
4 C0 31 0 44 0
0

0101000
+478 0 -471 0 *
Ed
 1e-07 1 1 0
1  86 0 30.1 40
2  65 31 0 30.1 40
4 G1 31 0 11 0
0

0101000
+576 0 -471 0 *
Wi

0101100
-470 0 -477 0 -575 0 +469 0 *
Fa
0  1e-07 31 0

0111000
+468 0 *
Ed
 1e-07 1 1 0
1  87 0 0 3.53553390593272
4 C0 27 0 44 0
0

0101000
+483 0 -490 0 *
Wi

0101100
-583 0 -489 0 -466 0 -482 0 *
Fa
0  1e-07 27 0

0111000
-465 0 *
Ed
 1e-07 1 1 0
1  88 0 0 3.53553390593274
4 C0 29 0 44 0
0

0101000
+476 0 -485 0 *
Wi

0101100
-579 0 -484 0 -463 0 -475 0 *
Fa
0  1e-07 29 0

0111000
-462 0 *
Ve
1e-07
-20 -2.5 20
0 0

0101101
*
Ve
1e-07
-20 -5 20
0 0

0101101
*
Ed
 1e-07 1 1 0
1  89 0 -2.5 -0
4 C0 45 0 46 0
0

0101000
+460 0 -459 0 *
Ve
1e-07
-20 -2.5 -20
0 0

0101101
*
Ed
 1e-07 1 1 0
1  90 0 0 40
4 C0 45 0 19 0
0

0101000
+460 0 -457 0 *
Ve
1e-07
-20 -5 -20
0 0

0101101
*
Ed
 1e-07 1 1 0
1  91 0 -2.5 -0
4 C0 45 0 44 0
0

0101000
+457 0 -455 0 *
Ed
 1e-07 1 1 0
1  92 0 -0 40
4 C0 45 0 16 0
0

0101000
+459 0 -455 0 *
Wi

0101100
-458 0 +456 0 +454 0 -453 0 *
Fa
0  1e-07 45 0

0111000
-452 0 *
Ed
 1e-07 1 1 0
1  93 0 10.1 20
4 C0 16 0 42 0
0

0101000
+514 0 -563 0 *
Ve
1e-07
-6 -5 20
0 0

0101101
*
Ed
 1e-07 1 1 0
1  94 0 -10.1 -0
4 C0 16 0 43 0
0

0101000
+449 0 -516 0 *
Ed
 1e-07 1 1 0
1  95 0 0 14
4 C0 16 0 46 0
0

0101000
+459 0 -449 0 *
Ed
 1e-07 1 1 0
1  96 0 0 16.5
4 C0 16 0 44 0
0

0101000
+455 0 -505 0 *
Ed
 1e-07 1 1 0
1  97 0 -10.1 0
4 C0 16 0 32 0
0

0101000
+562 0 -572 0 *
Wi

0101100
-450 0 -513 0 -448 0 -447 0 +453 0 +446 0 -504 0 -569 0 -445 0 -561 0 
*
Ed
 1e-07 1 1 0
1  98 0 3.14159265358979 6.28318530717959
2  66 15 0 3.14159265358979 6.28318530717959
4 C0 16 0 15 0
0

0101000
+624 0 -626 0 *
Wi

0101100
-622 0 -443 0 *
Ed
 1e-07 1 1 0
1  99 0 0 3.14159265358979
2  67 23 0 0 3.14159265358979
4 C0 16 0 23 0
0

0101000
+598 0 -596 0 *
Wi

0101100
+441 0 +594 0 *
Fa
0  1e-07 16 0

0111000
-444 0 -442 0 -440 0 *
Ed
 1e-07 1 1 0
1  100 0 10.1 20
4 C0 42 0 41 0
0

0101000
+534 0 -542 0 *
Wi

0101100
-438 0 +512 0 +450 0 +540 0 *
Fa
0  1e-07 42 0

0111000
-437 0 *
Ed
 1e-07 1 1 0
1  101 0 10.1 20
2  68 40 0 10.1 20
4 G1 41 0 40 0
0

0101000
+535 0 -544 0 *
Wi

0101100
-435 0 +533 0 +438 0 +541 0 *
Fa
0  1e-07 41 0

0111000
-434 0 *
Ed
 1e-07 1 1 0
1  102 0 10.1 20
2  69 40 0 10.1 20
4 G1 40 0 39 0
0

0101000
+532 0 -546 0 *
Wi

0101100
-432 0 +531 0 +435 0 +543 0 *
Fa
0  1e-07 40 0

0111000
+431 0 *
Ed
 1e-07 1 1 0
1  103 0 -20 -10.1
4 C0 39 0 38 0
0

0101000
+548 0 -530 0 *
Wi

0101100
+429 0 +529 0 +432 0 +545 0 *
Fa
0  1e-07 39 0

0111000
-428 0 *
Ed
 1e-07 1 1 0
1  104 0 -20 -10.1
4 C0 37 0 36 0
0

0101000
+552 0 -526 0 *
Ed
 1e-07 1 1 0
1  105 0 10.1 20
4 C0 37 0 38 0
0

0101000
+528 0 -550 0 *
Wi

0101100
+426 0 +525 0 +425 0 +549 0 *
Fa
0  1e-07 37 0

0111000
-424 0 *
Ed
 1e-07 1 1 0
1  106 0 10.1 20
2  70 34 0 10.1 20
4 G1 35 0 34 0
0

0101000
+522 0 -556 0 *
Ed
 1e-07 1 1 0
1  107 0 10.1 20
4 C0 35 0 36 0
0

0101000
+524 0 -554 0 *
Wi

0101100
-422 0 +521 0 +421 0 +553 0 *
Fa
0  1e-07 35 0

0111000
-420 0 *
Ed
 1e-07 1 1 0
1  108 0 10.1 20
2  71 34 0 10.1 20
4 G1 34 0 11 0
0

0101000
+520 0 -558 0 *
Wi

0101100
-555 0 -422 0 -519 0 +418 0 *
Fa
0  1e-07 34 0

0111000
+417 0 *
Ve
1e-07
-17.5 0 -20
0 0

0101101
*
Ve
1e-07
-17.5 0 -13.5049875621121
0 0

0101101
*
Ed
 1e-07 1 1 0
1  109 0 -40 -33.5049875621121
4 C0 11 0 19 0
0

0101000
+415 0 -414 0 *
Ed
 1e-07 1 1 0
1  110 0 4.9107435025435 6.28318530717959
2  72 10 0 4.9107435025435 6.28318530717959
4 C0 11 0 10 0
0

0101000
+414 0 -642 0 *
Ve
1e-07
-17.5 0 -11.4950124378879
0 0

0101101
*
Ed
 1e-07 1 1 0
1  111 0 3.14159265358979 4.51403445822588
2  73 10 0 3.14159265358979 4.51403445822588
4 C0 11 0 10 0
0

0101000
+640 0 -411 0 *
Ed
 1e-07 1 1 0
1  112 0 -31.4950124378879 -8.5049875621121
4 C0 11 0 19 0
0

0101000
+411 0 -614 0 *
Ed
 1e-07 1 1 0
1  113 0 0 3.14159265358979
2  74 18 0 0 3.14159265358979
4 C0 11 0 18 0
0

0101000
+618 0 -612 0 *
Ve
1e-07
-17.5 -1.30104260698261e-15 20
0 0

0101101
*
Ed
 1e-07 1 1 0
1  114 0 -6.4950124378879 0
4 C0 11 0 19 0
0

0101000
+616 0 -407 0 *
Ve
1e-07
-6 -5.42101086242752e-16 20
0 0

0101101
*
Ed
 1e-07 1 1 0
1  115 0 -14 -2.5
4 C0 11 0 46 0
0

0101000
+405 0 -407 0 *
Ed
 1e-07 1 1 0
1  116 0 0 10.1
4 C0 11 0 43 0
0

0101000
+405 0 -518 0 *
Ed
 1e-07 1 1 0
1  117 0 20 30.1
4 C0 11 0 32 0
0

0101000
+560 0 -574 0 *
Ed
 1e-07 1 1 0
1  118 0 -14.5 -2.5
4 C0 11 0 44 0
0

0101000
+471 0 -415 0 *
Wi

0101100
+413 0 +412 0 +639 0 +410 0 +409 0 -611 0 -408 0 -615 0 +406 0 -404 0 
+403 0 +517 0 +418 0 +557 0 +402 0 +573 0 +469 0 +401 0 *
Fa
0  1e-07 11 0

0111000
-400 0 *
Ed
 1e-07 1 1 0
1  119 0 0.500000000000001 5.5
4 C0 46 0 43 0
0

0101000
+405 0 -449 0 *
Ed
 1e-07 1 1 0
1  120 0 8.83883476483184 12.3743686707646
4 C0 46 0 19 0
0

0101000
+407 0 -460 0 *
Wi

0101100
-398 0 +404 0 +397 0 +458 0 +447 0 *
Fa
0  1e-07 46 0

0111000
+396 0 *
Ed
 1e-07 1 1 0
1  121 0 0 3.53553390593274
4 C0 44 0 19 0
0

0101000
+457 0 -415 0 *
Wi

0101100
-481 0 +466 0 -488 0 -493 0 -498 0 -503 0 -446 0 -454 0 +394 0 -401 0 
-470 0 -474 0 +463 0 *
Fa
0  1e-07 44 0

0111000
-393 0 *
Wi

0101100
-527 0 -429 0 -547 0 -425 0 *
Fa
0  1e-07 38 0

0111000
-391 0 *
Wi

0101100
-523 0 -426 0 -551 0 -421 0 *
Fa
0  1e-07 36 0

0111000
-389 0 *
Ed
 1e-07 1 1 0
1  122 0 2.94323813143098 3.3399471757486
2  75 10 0 2.94323813143098 3.3399471757486
4 C0 19 0 10 0
0

0101000
+414 0 -411 0 *
Wi

0101100
-387 0 -413 0 -394 0 -456 0 -397 0 -406 0 -613 0 -409 0 *
Fa
0  1e-07 19 0

0111000
-386 0 *
Wi

0101100
+559 0 +445 0 -571 0 -402 0 *
Fa
0  1e-07 32 0

0111000
-384 0 *
Wi

0101100
+398 0 +448 0 -515 0 -403 0 *
Fa
0  1e-07 43 0

0111000
-382 0 *
Ed
 1e-07 1 1 0
1  123 0 0 3.14159265358979
2  76 23 0 0 3.14159265358979
2  77 21 0 0 3.14159265358979
4 C0 23 0 21 0
0

0101000
+605 0 -603 0 *
Wi

0101100
-380 0 -597 0 +441 0 +595 0 *
Fa
0  1e-07 23 0

0111000
+379 0 *
Ed
 1e-07 1 1 0
1  124 0 0 3.14159265358979
2  78 21 0 0 3.14159265358979
2  79 18 0 0 3.14159265358979
4 C0 21 0 18 0
0

0101000
+619 0 -610 0 *
Wi

0101100
-377 0 -604 0 +380 0 +602 0 *
Fa
0  1e-07 21 0

0111000
+376 0 *
Wi

0101100
-408 0 -617 0 +377 0 +609 0 *
Fa
0  1e-07 18 0

0111000
+374 0 *
Ed
 1e-07 1 1 0
1  125 0 3.14159265358979 6.28318530717959
2  80 15 0 3.14159265358979 6.28318530717959
2  81 13 0 3.14159265358979 6.28318530717959
4 C0 15 0 13 0
0

0101000
+631 0 -633 0 *
Wi

0101100
+372 0 -625 0 -443 0 +623 0 *
Fa
0  1e-07 15 0

0111000
+371 0 *
Ed
 1e-07 1 1 0
1  126 0 3.14159265358979 6.28318530717959
2  82 13 0 3.14159265358979 6.28318530717959
2  83 10 0 3.14159265358979 6.28318530717959
4 C0 13 0 10 0
0

0101000
+638 0 -643 0 *
Wi

0101100
+369 0 -632 0 -372 0 +630 0 *
Fa
0  1e-07 13 0

0111000
+368 0 *
Wi

0101100
+410 0 -387 0 +412 0 -641 0 -369 0 +637 0 *
Fa
0  1e-07 10 0

0111000
+366 0 *
Wi

0101100
-538 0 -651 0 +510 0 +647 0 *
Fa
0  1e-07 6 0

0111000
+364 0 *
Ed
 1e-07 1 1 0
1  127 0 0 3.14159265358979
2  84 2 0 0 3.14159265358979
4 C0 2 0 3 0
0

0101000
+662 0 -660 0 *
Wi

0101100
-362 0 -661 0 -566 0 +657 0 *
Fa
0  1e-07 2 0

0111000
+361 0 *
Wi

0101100
-362 0 -659 0 *
Fa
0  1e-07 3 0

0111000
+359 0 *
Sh

0101100
-654 0 -644 0 -634 0 -627 0 -620 0 -606 0 -599 0 -592 0 -564 0 -536 0 
-508 0 -501 0 -496 0 +491 0 -486 0 -479 0 -472 0 -467 0 -464 0 -461 0 
-451 0 -439 0 -436 0 -433 0 +430 0 -427 0 -423 0 -419 0 -416 0 -399 0 
+395 0 -392 0 -390 0 -388 0 -385 0 -383 0 -381 0 -378 0 -375 0 -373 0 
-370 0 -367 0 -365 0 -363 0 -360 0 +358 0 *
So

0100000
+357 0 *
Ve
1e-07
-2.025 -6.91542291068818e-17 20
0 0

0101101
*
Ve
1e-07
-2.025 -3.49228856989753e-17 10.1
0 0

0101101
*
Ed
 1e-07 1 1 0
1  128 0 -36.8526798034995 -26.9526798034995
2  85 47 0 -36.8526798034995 -26.9526798034995
2  86 48 0 -36.8526798034995 -26.9526798034995
4 CN 47 0 48 0
0

0101000
+355 0 -354 0 *
Ve
1e-07
2.025 2.13068091128364e-16 10.1
0 0

0101101
*
Ed
 1e-07 1 1 0
1  129 0 3.14159265358979 6.28318530717959
2  87 47 0 3.14159265358979 6.28318530717959
4 C0 47 0 49 0
0

0101000
+354 0 -352 0 *
Ve
1e-07
2.025 1.78836747720457e-16 20
0 0

0101101
*
Ed
 1e-07 1 1 0
1  130 0 -36.8526798034995 -26.9526798034995
2  88 47 0 -36.8526798034995 -26.9526798034995
2  89 48 0 -36.8526798034995 -26.9526798034995
4 CN 47 0 48 0
0

0101000
+350 0 -352 0 *
Ed
 1e-07 1 1 0
1  131 0 3.14159265358979 6.28318530717959
2  90 47 0 3.14159265358979 6.28318530717959
4 C0 47 0 50 0
0

0101000
+350 0 -355 0 *
Wi

0101100
+353 0 +351 0 -349 0 +348 0 *
Fa
0  1e-07 47 0

0111000
+347 0 *
Ve
1e-07
-2.025 8.58620446021712e-34 -2.49298207725944e-16
0 0

0101101
*
Ve
1e-07
-2.025 3.42313434079065e-17 -9.9
0 0

0101101
*
Ed
 1e-07 1 1 0
1  132 0 -16.8526798034995 -6.9526798034995
2  91 51 0 -16.8526798034995 -6.9526798034995
2  92 52 0 -16.8526798034995 -6.9526798034995
4 CN 51 0 52 0
0

0101000
+345 0 -344 0 *
Ve
1e-07
2.025 2.82222320235245e-16 -9.9
0 0

0101101
*
Ed
 1e-07 1 1 0
1  133 0 3.14159265358979 6.28318530717959
2  93 51 0 3.14159265358979 6.28318530717959
4 C0 51 0 53 0
0

0101000
+342 0 -344 0 *
Ve
1e-07
2.025 2.47990976827339e-16 2.49298207725944e-16
0 0

0101101
*
Ed
 1e-07 1 1 0
1  134 0 -16.8526798034995 -6.9526798034995
2  94 51 0 -16.8526798034995 -6.9526798034995
2  95 52 0 -16.8526798034995 -6.9526798034995
4 CN 51 0 52 0
0

0101000
+340 0 -342 0 *
Ed
 1e-07 1 1 0
1  135 0 3.14159265358979 6.28318530717959
2  96 51 0 3.14159265358979 6.28318530717959
4 C0 51 0 54 0
0

0101000
+340 0 -345 0 *
Wi

0101100
+343 0 -341 0 -339 0 +338 0 *
Fa
0  1e-07 51 0

0111000
+337 0 *
Ve
1e-07
12.5 -1.04999999999997 17.6
0 0

0101101
*
Ve
1e-07
12.5 -6.0855721614056e-17 17.6
0 0

0101101
*
Ed
 1e-07 1 1 0
1  136 0 -2.96015742929007 -1.9101574292901
2  97 55 0 -2.96015742929007 -1.9101574292901
2  98 56 0 -2.96015742929007 -1.9101574292901
4 CN 55 0 56 0
0

0101000
+335 0 -334 0 *
Ve
1e-07
12.5 -2.55870647695463e-17 7.4
0 0

0101101
*
Ed
 1e-07 1 1 0
1  137 0 0 3.14159265358979
2  99 55 0 0 3.14159265358979
4 C0 55 0 57 0
0

0101000
+334 0 -332 0 *
Ve
1e-07
12.5 -1.04999999999997 7.4
0 0

0101101
*
Ed
 1e-07 1 1 0
1  138 0 -2.96015742929007 -1.9101574292901
2  100 55 0 -2.96015742929007 -1.9101574292901
2  101 56 0 -2.96015742929007 -1.9101574292901
4 CN 55 0 56 0
0

0101000
+330 0 -332 0 *
Ed
 1e-07 1 1 0
1  139 0 0 3.14159265358979
2  102 55 0 0 3.14159265358979
2  103 58 0 0 3.14159265358979
4 C0 55 0 58 0
0

0101000
+335 0 -330 0 *
Wi

0101100
+333 0 +331 0 -329 0 -328 0 *
Fa
0  1e-07 55 0

0111000
+327 0 *
Ve
1e-07
12.5 -3.5 15.15
0 0

0101101
*
Ed
 1e-07 1 1 0
1  140 0 -3.4648232278141 0
2  104 58 0 -3.4648232278141 0
2  105 59 0 -3.4648232278141 0
4 CN 58 0 59 0
0

0101000
+325 0 -335 0 *
Ve
1e-07
12.5 -3.5 9.85
0 0

0101101
*
Ed
 1e-07 1 1 0
1  141 0 -3.4648232278141 0
2  106 58 0 -3.4648232278141 0
2  107 59 0 -3.4648232278141 0
4 CN 58 0 59 0
0

0101000
+323 0 -330 0 *
Ed
 1e-07 1 1 0
1  142 0 0 3.14159265358979
2  108 58 0 0 3.14159265358979
2  109 60 0 0 3.14159265358979
4 C0 58 0 60 0
0

0101000
+325 0 -323 0 *
Wi

0101100
+324 0 +328 0 -322 0 -321 0 *
Fa
0  1e-07 58 0

0111000
+320 0 *
Ve
1e-07
12.5 -5 15.15
0 0

0101101
*
Ed
 1e-07 1 1 0
1  143 0 -6.9101574292901 -5.4101574292901
2  110 60 0 -6.9101574292901 -5.4101574292901
2  111 61 0 -6.9101574292901 -5.4101574292901
4 CN 60 0 61 0
0

0101000
+318 0 -325 0 *
Ve
1e-07
12.5 -5 9.85
0 0

0101101
*
Ed
 1e-07 1 1 0
1  144 0 -6.9101574292901 -5.4101574292901
2  112 60 0 -6.9101574292901 -5.4101574292901
2  113 61 0 -6.9101574292901 -5.4101574292901
4 CN 60 0 61 0
0

0101000
+316 0 -323 0 *
Ed
 1e-07 1 1 0
1  145 0 0 3.14159265358979
2  114 60 0 0 3.14159265358979
4 C0 60 0 62 0
0

0101000
+318 0 -316 0 *
Wi

0101100
+317 0 +321 0 -315 0 -314 0 *
Fa
0  1e-07 60 0

0111000
+313 0 *
Ve
1e-07
12.5 -1.04999999999997 -17.6
0 0

0101101
*
Ve
1e-07
12.5 6.0855721614056e-17 -17.6
0 0

0101101
*
Ed
 1e-07 1 1 0
1  146 0 -2.96015742929007 -1.9101574292901
2  115 63 0 -2.96015742929007 -1.9101574292901
2  116 64 0 -2.96015742929007 -1.9101574292901
4 CN 63 0 64 0
0

0101000
+311 0 -310 0 *
Ve
1e-07
17.5 4.66963501977945e-17 -13.5049875621121
0 0

0101101
*
Ed
 1e-07 1 1 0
1  147 0 4.9107435025435 6.28318530717959
2  117 63 0 4.9107435025435 6.28318530717959
4 C0 63 0 57 0
0

0101000
+308 0 -310 0 *
Ve
1e-07
17.5 3.97464361858077e-17 -11.4950124378879
0 0

0101101
*
Ed
 1e-07 1 1 0
1  148 0 2.94323813143098 3.3399471757486
2  118 63 0 2.94323813143098 3.3399471757486
4 C0 63 0 65 0
0

0101000
+306 0 -308 0 *
Ve
1e-07
12.5 2.55870647695463e-17 -7.4
0 0

0101101
*
Ed
 1e-07 1 1 0
1  149 0 3.14159265358979 4.51403445822588
2  119 63 0 3.14159265358979 4.51403445822588
4 C0 63 0 57 0
0

0101000
+304 0 -306 0 *
Ve
1e-07
12.5 -1.04999999999997 -7.4
0 0

0101101
*
Ed
 1e-07 1 1 0
1  150 0 -2.96015742929007 -1.9101574292901
2  120 63 0 -2.96015742929007 -1.9101574292901
2  121 64 0 -2.96015742929007 -1.9101574292901
4 CN 63 0 64 0
0

0101000
+302 0 -304 0 *
Ed
 1e-07 1 1 0
1  151 0 3.14159265358979 6.28318530717959
2  122 63 0 3.14159265358979 6.28318530717959
2  123 66 0 3.14159265358979 6.28318530717959
4 C0 63 0 66 0
0

0101000
+302 0 -311 0 *
Wi

0101100
+309 0 -307 0 -305 0 -303 0 -301 0 +300 0 *
Fa
0  1e-07 63 0

0111000
+299 0 *
Ve
1e-07
12.5 -3.5 -15.15
0 0

0101101
*
Ed
 1e-07 1 1 0
1  152 0 -3.4648232278141 0
2  124 66 0 -3.4648232278141 0
2  125 67 0 -3.4648232278141 0
4 CN 66 0 67 0
0

0101000
+297 0 -311 0 *
Ve
1e-07
12.5 -3.5 -9.85
0 0

0101101
*
Ed
 1e-07 1 1 0
1  153 0 -3.4648232278141 0
2  126 66 0 -3.4648232278141 0
2  127 67 0 -3.4648232278141 0
4 CN 66 0 67 0
0

0101000
+295 0 -302 0 *
Ed
 1e-07 1 1 0
1  154 0 3.14159265358979 6.28318530717959
2  128 66 0 3.14159265358979 6.28318530717959
2  129 68 0 3.14159265358979 6.28318530717959
4 C0 66 0 68 0
0

0101000
+295 0 -297 0 *
Wi

0101100
+296 0 -300 0 -294 0 +293 0 *
Fa
0  1e-07 66 0

0111000
+292 0 *
Ve
1e-07
12.5 -5 -15.15
0 0

0101101
*
Ed
 1e-07 1 1 0
1  155 0 -6.9101574292901 -5.4101574292901
2  130 68 0 -6.9101574292901 -5.4101574292901
2  131 69 0 -6.9101574292901 -5.4101574292901
4 CN 68 0 69 0
0

0101000
+290 0 -297 0 *
Ve
1e-07
12.5 -5 -9.85
0 0

0101101
*
Ed
 1e-07 1 1 0
1  156 0 -6.9101574292901 -5.4101574292901
2  132 68 0 -6.9101574292901 -5.4101574292901
2  133 69 0 -6.9101574292901 -5.4101574292901
4 CN 68 0 69 0
0

0101000
+288 0 -295 0 *
Ed
 1e-07 1 1 0
1  157 0 3.14159265358979 6.28318530717959
2  134 68 0 3.14159265358979 6.28318530717959
4 C0 68 0 62 0
0

0101000
+288 0 -290 0 *
Wi

0101100
+289 0 -293 0 -287 0 +286 0 *
Fa
0  1e-07 68 0

0111000
+285 0 *
Ve
1e-07
3.5 -4.5 10.1
0 0

0101101
*
Ve
1e-07
3.5 -4.5 20
0 0

0101101
*
Ed
 1e-07 1 1 0
1  158 0 30.1 40
4 C0 70 0 71 0
0

0101000
+283 0 -282 0 *
Ve
1e-07
3.5 -5 10.1
0 0

0101101
*
Ed
 1e-07 1 1 0
1  159 0 -0.5 0
4 C0 70 0 49 0
0

0101000
+283 0 -280 0 *
Ve
1e-07
3.5 -5 20
0 0

0101101
*
Ed
 1e-07 1 1 0
1  160 0 30.1 40
4 C0 70 0 62 0
0

0101000
+280 0 -278 0 *
Ed
 1e-07 1 1 0
1  161 0 0 0.5
4 C0 70 0 50 0
0

0101000
+278 0 -282 0 *
Wi

0101100
-281 0 +279 0 +277 0 +276 0 *
Fa
0  1e-07 70 0

0111000
-275 0 *
Ve
1e-07
3.46895927752468e-14 -4.5 10.1
0 0

0101101
*
Ve
1e-07
3.46848126001512e-14 -4.5 20
0 0

0101101
*
Ed
 1e-07 1 1 0
1  162 0 30.1 40
2  135 72 0 30.1 40
4 G1 71 0 72 0
0

0101000
+273 0 -272 0 *
Ed
 1e-07 1 1 0
1  163 0 -3.49999999999997 0
4 C0 71 0 49 0
0

0101000
+273 0 -283 0 *
Ed
 1e-07 1 1 0
1  164 0 0 3.49999999999997
4 C0 71 0 50 0
0

0101000
+282 0 -272 0 *
Wi

0101100
-271 0 +270 0 +281 0 +269 0 *
Fa
0  1e-07 71 0

0111000
-268 0 *
Ve
1e-07
-5 0.500000000000034 10.1
0 0

0101101
*
Ve
1e-07
-5 0.500000000000034 20
0 0

0101101
*
Ed
 1e-07 1 1 0
1  165 0 30.1 40
2  136 72 0 30.1 40
4 G1 72 0 73 0
0

0101000
+266 0 -265 0 *
Ed
 1e-07 1 1 0
1  166 0 3.14159265358979 4.7123889803847
2  137 72 0 3.14159265358979 4.7123889803847
4 C0 72 0 49 0
0

0101000
+266 0 -273 0 *
Ed
 1e-07 1 1 0
1  167 0 4.71238898038468 6.28318530717959
2  138 72 0 4.71238898038468 6.28318530717959
4 C0 72 0 50 0
0

0101000
+272 0 -265 0 *
Wi

0101100
-264 0 +263 0 +271 0 +262 0 *
Fa
0  1e-07 72 0

0111000
+261 0 *
Ve
1e-07
-5 1.50000000000001 20
0 0

0101101
*
Ve
1e-07
-5 1.5 10.1
0 0

0101101
*
Ed
 1e-07 1 1 0
1  168 0 -40 -30.1
4 C0 73 0 74 0
0

0101000
+259 0 -258 0 *
Ed
 1e-07 1 1 0
1  169 0 2.5 3.49999999999997
4 C0 73 0 49 0
0

0101000
+258 0 -266 0 *
Ed
 1e-07 1 1 0
1  170 0 -3.49999999999997 -2.49999999999999
4 C0 73 0 50 0
0

0101000
+265 0 -259 0 *
Wi

0101100
+257 0 +256 0 +264 0 +255 0 *
Fa
0  1e-07 73 0

0111000
-254 0 *
Ve
1e-07
2.49999999999999 4 20
0 0

0101101
*
Ve
1e-07
2.49999999999999 4 10.1
0 0

0101101
*
Ed
 1e-07 1 1 0
1  171 0 -40 -30.1
4 C0 75 0 76 0
0

0101000
+252 0 -251 0 *
Ve
1e-07
-2.50000000000001 4 10.1
0 0

0101101
*
Ed
 1e-07 1 1 0
1  172 0 -8.21490312965724 -3.21490312965724
4 C0 75 0 49 0
0

0101000
+251 0 -249 0 *
Ve
1e-07
-2.50000000000001 4 20
0 0

0101101
*
Ed
 1e-07 1 1 0
1  173 0 30.1 40
4 C0 75 0 74 0
0

0101000
+249 0 -247 0 *
Ed
 1e-07 1 1 0
1  174 0 -7.50000000000001 -2.50000000000001
4 C0 75 0 50 0
0

0101000
+247 0 -252 0 *
Wi

0101100
+250 0 +248 0 +246 0 +245 0 *
Fa
0  1e-07 75 0

0111000
-244 0 *
Ve
1e-07
5 0.500000000000003 10.1
0 0

0101101
*
Ve
1e-07
5 0.500000000000003 20
0 0

0101101
*
Ed
 1e-07 1 1 0
1  175 0 30.1 40
2  139 78 0 30.1 40
4 G1 77 0 78 0
0

0101000
+242 0 -241 0 *
Ve
1e-07
5 1.5 10.1
0 0

0101101
*
Ed
 1e-07 1 1 0
1  176 0 0 0.999999999999997
4 C0 77 0 49 0
0

0101000
+242 0 -239 0 *
Ve
1e-07
5 1.5 20
0 0

0101101
*
Ed
 1e-07 1 1 0
1  177 0 30.1 40
4 C0 77 0 76 0
0

0101000
+239 0 -237 0 *
Ed
 1e-07 1 1 0
1  178 0 -0.999999999999997 0
4 C0 77 0 50 0
0

0101000
+237 0 -241 0 *
Wi

0101100
-240 0 +238 0 +236 0 +235 0 *
Fa
0  1e-07 77 0

0111000
-234 0 *
Ve
1e-07
5.5 3.92659881416687e-17 20
0 0

0101101
*
Ed
 1e-07 1 1 0
1  179 0 0 1.5707963267949
2  140 78 0 0 1.5707963267949
4 C0 78 0 50 0
0

0101000
+241 0 -232 0 *
Ve
1e-07
5.5 7.34973315495752e-17 10.1
0 0

0101101
*
Ed
 1e-07 1 1 0
1  180 0 1.5707963267949 3.14159265358979
2  141 78 0 1.5707963267949 3.14159265358979
4 C0 78 0 49 0
0

0101000
+230 0 -242 0 *
Ed
 1e-07 1 1 0
1  181 0 30.1 40
2  142 78 0 30.1 40
4 G1 78 0 57 0
0

0101000
+230 0 -232 0 *
Wi

0101100
-231 0 -240 0 -229 0 +228 0 *
Fa
0  1e-07 78 0

0111000
+227 0 *
Ed
 1e-07 1 1 0
1  182 0 -3.53553390593273 0
4 C0 74 0 49 0
0

0101000
+258 0 -249 0 *
Ed
 1e-07 1 1 0
1  183 0 -0 3.53553390593272
4 C0 74 0 50 0
0

0101000
+247 0 -259 0 *
Wi

0101100
-225 0 -257 0 -224 0 -246 0 *
Fa
0  1e-07 74 0

0111000
-223 0 *
Ed
 1e-07 1 1 0
1  184 0 -3.53553390593274 0
4 C0 76 0 49 0
0

0101000
+251 0 -239 0 *
Ed
 1e-07 1 1 0
1  185 0 0 3.53553390593274
4 C0 76 0 50 0
0

0101000
+237 0 -252 0 *
Wi

0101100
-221 0 -250 0 -220 0 -236 0 *
Fa
0  1e-07 76 0

0111000
-219 0 *
Ve
1e-07
20 -2.5 -20
0 0

0101101
*
Ve
1e-07
20 -5 -20
0 0

0101101
*
Ed
 1e-07 1 1 0
1  186 0 -2.5 0
4 C0 79 0 80 0
0

0101000
+217 0 -216 0 *
Ve
1e-07
20 -2.5 20
0 0

0101101
*
Ed
 1e-07 1 1 0
1  187 0 0 40
4 C0 79 0 65 0
0

0101000
+217 0 -214 0 *
Ve
1e-07
20 -5 20
0 0

0101101
*
Ed
 1e-07 1 1 0
1  188 0 -2.5 0
4 C0 79 0 50 0
0

0101000
+214 0 -212 0 *
Ed
 1e-07 1 1 0
1  189 0 0 40
4 C0 79 0 62 0
0

0101000
+216 0 -212 0 *
Wi

0101100
-215 0 +213 0 +211 0 -210 0 *
Fa
0  1e-07 79 0

0111000
-209 0 *
Ve
1e-07
3.5 -5 -9.9
0 0

0101101
*
Ve
1e-07
3.5 -5 1.11440083198829e-15
0 0

0101101
*
Ed
 1e-07 1 1 0
1  190 0 10.1 20
4 C0 62 0 81 0
0

0101000
+207 0 -206 0 *
Ve
1e-07
6 -5 -9.9
0 0

0101101
*
Ed
 1e-07 1 1 0
1  191 0 -11.7149031296572 -9.21490312965723
4 C0 62 0 53 0
0

0101000
+204 0 -207 0 *
Ve
1e-07
6 -5 -20
0 0

0101101
*
Ed
 1e-07 1 1 0
1  192 0 -10.1 0
4 C0 62 0 82 0
0

0101000
+202 0 -204 0 *
Ed
 1e-07 1 1 0
1  193 0 0 14
4 C0 62 0 80 0
0

0101000
+216 0 -202 0 *
Ed
 1e-07 1 1 0
1  194 0 0 16.5
4 C0 62 0 50 0
0

0101000
+212 0 -278 0 *
Ve
1e-07
6 -5 10.1
0 0

0101101
*
Ed
 1e-07 1 1 0
1  195 0 -11.7149031296572 -9.21490312965725
4 C0 62 0 49 0
0

0101000
+198 0 -280 0 *
Ve
1e-07
6 -5 1.42217639708205e-15
0 0

0101101
*
Ed
 1e-07 1 1 0
1  196 0 -10.1 0
4 C0 62 0 83 0
0

0101000
+196 0 -198 0 *
Ed
 1e-07 1 1 0
1  197 0 9.21490312965725 11.7149031296572
4 C0 62 0 54 0
0

0101000
+206 0 -196 0 *
Wi

0101100
-205 0 -203 0 -201 0 -200 0 +210 0 +199 0 -277 0 -197 0 -195 0 -194 0 
*
Ed
 1e-07 1 1 0
1  198 0 3.14159265358979 6.28318530717959
2  143 61 0 3.14159265358979 6.28318530717959
4 C0 62 0 61 0
0

0101000
+316 0 -318 0 *
Wi

0101100
-314 0 -192 0 *
Ed
 1e-07 1 1 0
1  199 0 0 3.14159265358979
2  144 69 0 0 3.14159265358979
4 C0 62 0 69 0
0

0101000
+290 0 -288 0 *
Wi

0101100
+190 0 +286 0 *
Fa
0  1e-07 62 0

0111000
-193 0 -191 0 -189 0 *
Ve
1e-07
3.5 -4.5 -9.9
0 0

0101101
*
Ve
1e-07
3.5 -4.5 -1.38697406566859e-17
0 0

0101101
*
Ed
 1e-07 1 1 0
1  200 0 10.1 20
4 C0 81 0 84 0
0

0101000
+187 0 -186 0 *
Ed
 1e-07 1 1 0
1  201 0 -0.5 0
4 C0 81 0 53 0
0

0101000
+187 0 -207 0 *
Ed
 1e-07 1 1 0
1  202 0 3.90721196801638e-33 0.5
4 C0 81 0 54 0
0

0101000
+206 0 -186 0 *
Wi

0101100
-185 0 +184 0 +205 0 +183 0 *
Fa
0  1e-07 81 0

0111000
-182 0 *
Ve
1e-07
3.46992496946317e-14 -4.5 -9.9
0 0

0101101
*
Ve
1e-07
3.46944695195361e-14 -4.5 -1.55597015490441e-17
0 0

0101101
*
Ed
 1e-07 1 1 0
1  203 0 10.1 20
2  145 85 0 10.1 20
4 G1 84 0 85 0
0

0101000
+180 0 -179 0 *
Ed
 1e-07 1 1 0
1  204 0 -3.49999999999997 0
4 C0 84 0 53 0
0

0101000
+180 0 -187 0 *
Ed
 1e-07 1 1 0
1  205 0 -4.93171475234689e-47 3.49999999999997
4 C0 84 0 54 0
0

0101000
+186 0 -179 0 *
Wi

0101100
-178 0 +177 0 +185 0 +176 0 *
Fa
0  1e-07 84 0

0111000
-175 0 *
Ve
1e-07
-5 0.500000000000034 -9.9
0 0

0101101
*
Ve
1e-07
-5 0.500000000000034 -6.85374118559541e-19
0 0

0101101
*
Ed
 1e-07 1 1 0
1  206 0 10.1 20
2  146 85 0 10.1 20
4 G1 85 0 86 0
0

0101000
+173 0 -172 0 *
Ed
 1e-07 1 1 0
1  207 0 3.14159265358979 4.7123889803847
2  147 85 0 3.14159265358979 4.7123889803847
4 C0 85 0 53 0
0

0101000
+173 0 -180 0 *
Ed
 1e-07 1 1 0
1  208 0 4.71238898038468 6.28318530717959
2  148 85 0 4.71238898038468 6.28318530717959
4 C0 85 0 54 0
0

0101000
+179 0 -172 0 *
Wi

0101100
-171 0 +170 0 +178 0 +169 0 *
Fa
0  1e-07 85 0

0111000
+168 0 *
Ve
1e-07
-5 1.5 -3.03796112833856e-16
0 0

0101101
*
Ve
1e-07
-5 1.5 -9.9
0 0

0101101
*
Ed
 1e-07 1 1 0
1  209 0 -20 -10.1
4 C0 86 0 87 0
0

0101000
+166 0 -165 0 *
Ed
 1e-07 1 1 0
1  210 0 2.5 3.49999999999997
4 C0 86 0 53 0
0

0101000
+165 0 -173 0 *
Ed
 1e-07 1 1 0
1  211 0 -3.49999999999997 -2.5
4 C0 86 0 54 0
0

0101000
+172 0 -166 0 *
Wi

0101100
+164 0 +163 0 +171 0 +162 0 *
Fa
0  1e-07 86 0

0111000
-161 0 *
Ve
1e-07
2.49999999999999 4 1.02241000904888e-15
0 0

0101101
*
Ve
1e-07
2.49999999999999 4 -9.9
0 0

0101101
*
Ed
 1e-07 1 1 0
1  212 0 -20 -10.1
4 C0 88 0 89 0
0

0101000
+159 0 -158 0 *
Ve
1e-07
-2.50000000000001 4 -9.9
0 0

0101101
*
Ed
 1e-07 1 1 0
1  213 0 -8.21490312965722 -3.21490312965722
4 C0 88 0 53 0
0

0101000
+158 0 -156 0 *
Ve
1e-07
-2.50000000000001 4 4.06858878861368e-16
0 0

0101101
*
Ed
 1e-07 1 1 0
1  214 0 10.1 20
4 C0 88 0 87 0
0

0101000
+156 0 -154 0 *
Ed
 1e-07 1 1 0
1  215 0 3.21490312965724 8.21490312965724
4 C0 88 0 54 0
0

0101000
+154 0 -159 0 *
Wi

0101100
+157 0 +155 0 +153 0 +152 0 *
Fa
0  1e-07 88 0

0111000
-151 0 *
Ve
1e-07
5 0.500000000000003 -9.9
0 0

0101101
*
Ve
1e-07
5 0.500000000000003 4.14308557390365e-18
0 0

0101101
*
Ed
 1e-07 1 1 0
1  216 0 10.1 20
2  149 91 0 10.1 20
4 G1 90 0 91 0
0

0101000
+149 0 -148 0 *
Ve
1e-07
5 1.5 -9.9
0 0

0101101
*
Ed
 1e-07 1 1 0
1  217 0 0 0.999999999999997
4 C0 90 0 53 0
0

0101000
+149 0 -146 0 *
Ve
1e-07
5 1.5 7.60079702924772e-18
0 0

0101101
*
Ed
 1e-07 1 1 0
1  218 0 10.1 20
4 C0 90 0 89 0
0

0101000
+146 0 -144 0 *
Ed
 1e-07 1 1 0
1  219 0 -0.999999999999997 0
4 C0 90 0 54 0
0

0101000
+144 0 -148 0 *
Wi

0101100
-147 0 +145 0 +143 0 +142 0 *
Fa
0  1e-07 90 0

0111000
-141 0 *
Ve
1e-07
5.5 1.0842021724855e-16 2.65565283085529e-18
0 0

0101101
*
Ed
 1e-07 1 1 0
1  220 0 0 1.5707963267949
2  150 91 0 0 1.5707963267949
4 C0 91 0 54 0
0

0101000
+148 0 -139 0 *
Ve
1e-07
5.5 1.42651560656457e-16 -9.9
0 0

0101101
*
Ed
 1e-07 1 1 0
1  221 0 1.5707963267949 3.14159265358979
2  151 91 0 1.5707963267949 3.14159265358979
4 C0 91 0 53 0
0

0101000
+137 0 -149 0 *
Ed
 1e-07 1 1 0
1  222 0 10.1 20
2  152 91 0 10.1 20
4 G1 91 0 57 0
0

0101000
+137 0 -139 0 *
Wi

0101100
-138 0 -147 0 -136 0 +135 0 *
Fa
0  1e-07 91 0

0111000
+134 0 *
Ve
1e-07
17.5 -6.91542291068818e-17 20
0 0

0101101
*
Ve
1e-07
17.5 -4.66963501977945e-17 13.5049875621121
0 0

0101101
*
Ed
 1e-07 1 1 0
1  223 0 -40 -33.5049875621121
4 C0 57 0 65 0
0

0101000
+132 0 -131 0 *
Ed
 1e-07 1 1 0
1  224 0 4.9107435025435 6.28318530717959
2  153 56 0 4.9107435025435 6.28318530717959
4 C0 57 0 56 0
0

0101000
+131 0 -334 0 *
Ve
1e-07
17.5 -3.97464361858077e-17 11.4950124378879
0 0

0101101
*
Ed
 1e-07 1 1 0
1  225 0 3.14159265358979 4.51403445822588
2  154 56 0 3.14159265358979 4.51403445822588
4 C0 57 0 56 0
0

0101000
+332 0 -128 0 *
Ed
 1e-07 1 1 0
1  226 0 -31.4950124378879 -8.5049875621121
4 C0 57 0 65 0
0

0101000
+128 0 -306 0 *
Ed
 1e-07 1 1 0
1  227 0 0 3.14159265358979
2  155 64 0 0 3.14159265358979
4 C0 57 0 64 0
0

0101000
+310 0 -304 0 *
Ve
1e-07
17.5 -1.23188837787572e-15 -20
0 0

0101101
*
Ed
 1e-07 1 1 0
1  228 0 -6.4950124378879 -4.49862992605448e-33
4 C0 57 0 65 0
0

0101000
+308 0 -124 0 *
Ve
1e-07
6 -4.7294685713587e-16 -20
0 0

0101101
*
Ed
 1e-07 1 1 0
1  229 0 -14 -2.5
4 C0 57 0 80 0
0

0101000
+122 0 -124 0 *
Ve
1e-07
6 3.42313434079065e-17 -9.9
0 0

0101101
*
Ed
 1e-07 1 1 0
1  230 0 1.87442913585604e-33 10.1
4 C0 57 0 82 0
0

0101000
+122 0 -120 0 *
Ed
 1e-07 1 1 0
1  231 0 14 14.5
4 C0 57 0 53 0
0

0101000
+120 0 -137 0 *
Ve
1e-07
6 -4.9672372100185e-33 1.43946495435877e-15
0 0

0101101
*
Ed
 1e-07 1 1 0
1  232 0 -14.5 -14
4 C0 57 0 54 0
0

0101000
+139 0 -117 0 *
Ve
1e-07
6 -3.49228856989753e-17 10.1
0 0

0101101
*
Ed
 1e-07 1 1 0
1  233 0 20 30.1
4 C0 57 0 83 0
0

0101000
+117 0 -115 0 *
Ed
 1e-07 1 1 0
1  234 0 14 14.5
4 C0 57 0 49 0
0

0101000
+115 0 -230 0 *
Ed
 1e-07 1 1 0
1  235 0 -14.5 -2.5
4 C0 57 0 50 0
0

0101000
+232 0 -132 0 *
Wi

0101100
+130 0 +129 0 +331 0 +127 0 +126 0 -303 0 -125 0 -307 0 +123 0 -121 0 
+119 0 +118 0 +135 0 +116 0 +114 0 +113 0 +228 0 +112 0 *
Fa
0  1e-07 57 0

0111000
-111 0 *
Ed
 1e-07 1 1 0
1  236 0 0.5 5.5
4 C0 80 0 82 0
0

0101000
+122 0 -202 0 *
Ed
 1e-07 1 1 0
1  237 0 8.83883476483184 12.3743686707646
4 C0 80 0 65 0
0

0101000
+124 0 -217 0 *
Wi

0101100
-109 0 +121 0 +108 0 +215 0 +200 0 *
Fa
0  1e-07 80 0

0111000
+107 0 *
Ed
 1e-07 1 1 0
1  238 0 0 3.53553390593274
4 C0 50 0 65 0
0

0101000
+214 0 -132 0 *
Wi

0101100
-245 0 +224 0 -255 0 -262 0 -269 0 -276 0 -199 0 -211 0 +105 0 -112 0 
-231 0 -235 0 +220 0 *
Ed
 1e-07 1 1 0
1  239 0 0 3.14159265358979
2  156 48 0 0 3.14159265358979
4 C0 50 0 48 0
0

0101000
+355 0 -350 0 *
Wi

0101100
+103 0 +348 0 *
Fa
0  1e-07 50 0

0111000
-104 0 -102 0 *
Ed
 1e-07 1 1 0
1  240 0 -3.53553390593273 0
4 C0 87 0 53 0
0

0101000
+165 0 -156 0 *
Ed
 1e-07 1 1 0
1  241 0 -3.52828815197815e-32 3.53553390593273
4 C0 87 0 54 0
0

0101000
+154 0 -166 0 *
Wi

0101100
-100 0 -164 0 -99 0 -153 0 *
Fa
0  1e-07 87 0

0111000
-98 0 *
Ed
 1e-07 1 1 0
1  242 0 -3.53553390593274 0
4 C0 89 0 53 0
0

0101000
+158 0 -146 0 *
Ed
 1e-07 1 1 0
1  243 0 0 3.53553390593274
4 C0 89 0 54 0
0

0101000
+144 0 -159 0 *
Wi

0101100
-96 0 -157 0 -95 0 -143 0 *
Fa
0  1e-07 89 0

0111000
-94 0 *
Ed
 1e-07 1 1 0
1  244 0 2.94323813143098 3.3399471757486
2  157 56 0 2.94323813143098 3.3399471757486
4 C0 65 0 56 0
0

0101000
+131 0 -128 0 *
Wi

0101100
-92 0 -130 0 -105 0 -213 0 -108 0 -123 0 -305 0 -126 0 *
Fa
0  1e-07 65 0

0111000
-91 0 *
Ed
 1e-07 1 1 0
1  245 0 4 9
4 C0 83 0 54 0
0

0101000
+117 0 -196 0 *
Ed
 1e-07 1 1 0
1  246 0 4 9
4 C0 83 0 49 0
0

0101000
+115 0 -198 0 *
Wi

0101100
+89 0 +195 0 -88 0 -114 0 *
Fa
0  1e-07 83 0

0111000
-87 0 *
Wi

0101100
-270 0 -263 0 -256 0 +225 0 -248 0 +221 0 -238 0 -229 0 -113 0 +88 0 
+197 0 -279 0 *
Ed
 1e-07 1 1 0
1  247 0 0 3.14159265358979
2  158 48 0 0 3.14159265358979
4 C0 49 0 48 0
0

0101000
+352 0 -354 0 *
Wi

0101100
+351 0 +84 0 *
Fa
0  1e-07 49 0

0111000
-85 0 -83 0 *
Wi

0101100
+194 0 -89 0 -116 0 -138 0 -142 0 +95 0 -152 0 +99 0 -162 0 -169 0 
-176 0 -183 0 *
Ed
 1e-07 1 1 0
1  248 0 0 3.14159265358979
2  159 52 0 0 3.14159265358979
4 C0 54 0 52 0
0

0101000
+345 0 -340 0 *
Wi

0101100
+80 0 +338 0 *
Fa
0  1e-07 54 0

0111000
-81 0 -79 0 *
Ed
 1e-07 1 1 0
1  249 0 4 9
4 C0 82 0 53 0
0

0101000
+120 0 -204 0 *
Wi

0101100
+109 0 +201 0 -77 0 -119 0 *
Fa
0  1e-07 82 0

0111000
-76 0 *
Wi

0101100
-177 0 -170 0 -163 0 +100 0 -155 0 +96 0 -145 0 -136 0 -118 0 +77 0 
+203 0 -184 0 *
Ed
 1e-07 1 1 0
1  250 0 0 3.14159265358979
2  160 52 0 0 3.14159265358979
4 C0 53 0 52 0
0

0101000
+344 0 -342 0 *
Wi

0101100
-73 0 -341 0 *
Fa
0  1e-07 53 0

0111000
-74 0 -72 0 *
Ed
 1e-07 1 1 0
1  251 0 0 3.14159265358979
2  161 69 0 0 3.14159265358979
2  162 67 0 0 3.14159265358979
4 C0 69 0 67 0
0

0101000
+297 0 -295 0 *
Wi

0101100
-70 0 -289 0 +190 0 +287 0 *
Fa
0  1e-07 69 0

0111000
+69 0 *
Ed
 1e-07 1 1 0
1  252 0 0 3.14159265358979
2  163 67 0 0 3.14159265358979
2  164 64 0 0 3.14159265358979
4 C0 67 0 64 0
0

0101000
+311 0 -302 0 *
Wi

0101100
-67 0 -296 0 +70 0 +294 0 *
Fa
0  1e-07 67 0

0111000
+66 0 *
Wi

0101100
-125 0 -309 0 +67 0 +301 0 *
Fa
0  1e-07 64 0

0111000
+64 0 *
Ed
 1e-07 1 1 0
1  253 0 3.14159265358979 6.28318530717959
2  165 61 0 3.14159265358979 6.28318530717959
2  166 59 0 3.14159265358979 6.28318530717959
4 C0 61 0 59 0
0

0101000
+323 0 -325 0 *
Wi

0101100
+62 0 -317 0 -192 0 +315 0 *
Fa
0  1e-07 61 0

0111000
+61 0 *
Ed
 1e-07 1 1 0
1  254 0 3.14159265358979 6.28318530717959
2  167 59 0 3.14159265358979 6.28318530717959
2  168 56 0 3.14159265358979 6.28318530717959
4 C0 59 0 56 0
0

0101000
+330 0 -335 0 *
Wi

0101100
+59 0 -324 0 -62 0 +322 0 *
Fa
0  1e-07 59 0

0111000
+58 0 *
Wi

0101100
+127 0 -92 0 +129 0 -333 0 -59 0 +329 0 *
Fa
0  1e-07 56 0

0111000
+56 0 *
Wi

0101100
-73 0 -343 0 +80 0 +339 0 *
Fa
0  1e-07 52 0

0111000
+54 0 *
Wi

0101100
+84 0 -353 0 +103 0 +349 0 *
Fa
0  1e-07 48 0

0111000
+52 0 *
Sh

0101100
-346 0 -336 0 -326 0 -319 0 -312 0 -298 0 -291 0 -284 0 -274 0 -267 0 
+260 0 -253 0 -243 0 -233 0 -226 0 -222 0 -218 0 -208 0 -188 0 -181 0 
-174 0 +167 0 -160 0 -150 0 -140 0 -133 0 -110 0 +106 0 -101 0 -97 0 
-93 0 -90 0 -86 0 -82 0 -78 0 -75 0 -71 0 -68 0 -65 0 -63 0 
-60 0 -57 0 -55 0 -53 0 -51 0 *
So

0100000
+50 0 *
Ve
1e-07
-1.32742095252804 0.800283459025347 -18
0 0

0101101
*
Ve
1e-07
1.32742095252805 -0.800283459025329 -18
0 0

0101101
*
Ed
 1e-07 1 1 0
1  255 0 3.14159265358979 6.28318530717959
2  169 92 0 3.14159265358979 6.28318530717959
4 C0 92 0 93 0
0

0101000
+48 0 -47 0 *
Ve
1e-07
-1.75562125979514 1.05843941354964 -17.5
0 0

0101101
*
Ed
 1e-07 1 1 0
1  256 0 -0.707106781186542 -3.64795845626624e-15
2  170 92 0 -0.707106781186542 -3.64795845626624e-15
2  171 94 0 -0.707106781186542 -3.64795845626624e-15
4 CN 92 0 94 0
0

0101000
+48 0 -45 0 *
Ve
1e-07
1.75562125979515 -1.05843941354963 -17.5
0 0

0101101
*
Ed
 1e-07 1 1 0
1  257 0 0 3.14159265358979
2  172 92 0 0 3.14159265358979
2  173 95 0 0 3.14159265358979
4 C0 92 0 95 0
0

0101000
+43 0 -45 0 *
Ed
 1e-07 1 1 0
1  258 0 -0.707106781186542 0
2  174 92 0 -0.707106781186542 0
2  175 94 0 -0.707106781186542 0
4 G2 92 0 94 0
0

0101000
+47 0 -43 0 *
Wi

0101100
-46 0 +44 0 -42 0 -41 0 *
Fa
0  1e-07 92 0

0111000
+40 0 *
Ve
1e-07
-1.75562125979514 1.05843941354964 -10.4
0 0

0101101
*
Ed
 1e-07 1 1 0
1  259 0 -39.4439344262295 -32.3439344262295
2  176 95 0 -39.4439344262295 -32.3439344262295
2  177 96 0 -39.4439344262295 -32.3439344262295
4 CN 95 0 96 0
0

0101000
+45 0 -38 0 *
Ve
1e-07
1.75562125979515 -1.05843941354963 -10.4
0 0

0101101
*
Ed
 1e-07 1 1 0
1  260 0 0 3.14159265358979
2  178 95 0 0 3.14159265358979
4 C0 95 0 97 0
0

0101000
+36 0 -38 0 *
Ed
 1e-07 1 1 0
1  261 0 -39.4439344262295 -32.3439344262295
2  179 95 0 -39.4439344262295 -32.3439344262295
2  180 96 0 -39.4439344262295 -32.3439344262295
4 CN 95 0 96 0
0

0101000
+43 0 -36 0 *
Wi

0101100
+42 0 +37 0 -35 0 -34 0 *
Fa
0  1e-07 95 0

0111000
+33 0 *
Ve
1e-07
1.71280122906844 -1.0326238180972 -10.4
0 0

0101101
*
Ve
1e-07
-1.71280122906844 1.0326238180972 -10.4
0 0

0101101
*
Ed
 1e-07 1 1 0
1  262 0 0 3.14159265358979
2  181 98 0 0 3.14159265358979
4 C0 98 0 97 0
0

0101000
+31 0 -30 0 *
Ve
1e-07
-1.71280122906844 1.0326238180972 20
0 0

0101101
*
Ed
 1e-07 1 1 0
1  263 0 -32.3439344262295 -1.9439344262295
2  182 98 0 -32.3439344262295 -1.9439344262295
2  183 99 0 -32.3439344262295 -1.9439344262295
4 CN 98 0 99 0
0

0101000
+30 0 -28 0 *
Ve
1e-07
1.71280122906843 -1.03262381809721 20
0 0

0101101
*
Ed
 1e-07 1 1 0
1  264 0 0 3.14159265358979
2  184 98 0 0 3.14159265358979
4 C0 98 0 100 0
0

0101000
+26 0 -28 0 *
Ed
 1e-07 1 1 0
1  265 0 -32.3439344262295 -1.9439344262295
2  185 98 0 -32.3439344262295 -1.9439344262295
2  186 99 0 -32.3439344262295 -1.9439344262295
4 CN 98 0 99 0
0

0101000
+31 0 -26 0 *
Wi

0101100
+29 0 +27 0 -25 0 -24 0 *
Fa
0  1e-07 98 0

0111000
+23 0 *
Ed
 1e-07 1 1 0
1  266 0 3.14159265358979 6.28318530717959
2  187 99 0 3.14159265358979 6.28318530717959
4 C0 100 0 99 0
0

0101000
+28 0 -26 0 *
Wi

0101100
+25 0 +21 0 *
Fa
0  1e-07 100 0

0111000
-20 0 *
Ed
 1e-07 1 1 0
1  267 0 3.14159265358979 6.28318530717959
2  188 99 0 3.14159265358979 6.28318530717959
4 C0 99 0 97 0
0

0101000
+30 0 -31 0 *
Wi

0101100
-27 0 +18 0 +24 0 -21 0 *
Fa
0  1e-07 99 0

0111000
+17 0 *
Ed
 1e-07 1 1 0
1  268 0 3.14159265358979 6.28318530717959
2  189 96 0 3.14159265358979 6.28318530717959
4 C0 97 0 96 0
0

0101000
+38 0 -36 0 *
Wi

0101100
+35 0 +15 0 *
Wi

0101100
-29 0 -18 0 *
Fa
0  1e-07 97 0

0111000
-14 0 -13 0 *
Ed
 1e-07 1 1 0
1  269 0 3.14159265358979 6.28318530717959
2  190 96 0 3.14159265358979 6.28318530717959
2  191 94 0 3.14159265358979 6.28318530717959
4 C0 96 0 94 0
0

0101000
+45 0 -43 0 *
Wi

0101100
-37 0 +11 0 +34 0 -15 0 *
Fa
0  1e-07 96 0

0111000
+10 0 *
Ed
 1e-07 1 1 0
1  270 0 0 3.14159265358979
2  192 94 0 0 3.14159265358979
4 C0 93 0 94 0
0

0101000
+47 0 -48 0 *
Wi

0101100
+8 0 +46 0 *
Fa
0  1e-07 93 0

0111000
-7 0 *
Wi

0101100
-44 0 -8 0 +41 0 -11 0 *
Fa
0  1e-07 94 0

0111000
+5 0 *
Sh

0101100
+39 0 +32 0 +22 0 -19 0 +16 0 -12 0 +9 0 -6 0 +4 0 *
So

0100000
+3 0 *
Co

1100000
+356 0 +49 0 +2 0 *

+1 0 