DBRep_DrawableShape

CASCADE Topology V1, (c) Matra-Datavision
Locations 0
Curve2ds 194
1 0 -0.34999999999999992 1 -3.5339496460705743e-17 
1 6.2831853071795862 -0.91923881554251219 -1 3.5339496460705743e-17 
1 3.1415926535897931 -1.6653345369377348e-16 0 1 
1 3.1415926535897931 -1.6653345369377348e-16 0 1 
1 6.2831853071795862 0.34999999999999964 -1 1.0601848938211722e-16 
1 0 1.6653345369377348e-16 0 -1 
1 6.2831853071795862 1.6653345369377348e-16 0 -1 
1 6.2831853071795862 0.91923881554251241 -1 -2.8271597168564594e-16 
1 3.1415926535897931 2.2204460492503131e-16 0 -1 
1 3.1415926535897931 2.2204460492503131e-16 0 -1 
1 6.2831853071795862 2.2204460492503131e-16 0 1 
1 0 2.2204460492503131e-16 0 1 
1 0 -0.34999999999999992 1 -3.5339496460705743e-17 
1 6.2831853071795862 -0.91923881554251219 -1 3.5339496460705743e-17 
1 3.1415926535897931 -1.6653345369377348e-16 0 1 
1 3.1415926535897931 -1.6653345369377348e-16 0 1 
1 6.2831853071795862 0.34999999999999964 -1 1.0601848938211722e-16 
1 0 1.6653345369377348e-16 0 -1 
1 6.2831853071795862 1.6653345369377348e-16 0 -1 
1 6.2831853071795862 0.91923881554251241 -1 -2.8271597168564594e-16 
1 3.1415926535897931 2.2204460492503131e-16 0 -1 
1 3.1415926535897931 2.2204460492503131e-16 0 -1 
1 6.2831853071795862 2.2204460492503131e-16 0 1 
1 0 2.2204460492503131e-16 0 1 
1 6.2831853071795862 9.6199999999999992 -1 0 
1 3.1415926535897931 14.06 0 1 
1 3.1415926535897931 14.06 0 1 
1 6.2831853071795862 18.5 -1 0 
1 0 14.06 0 -1 
1 6.2831853071795862 14.06 0 -1 
1 6.2831853071795862 -8.8800000000000008 -1 0 
1 3.1415926535897931 0 0 1 
1 3.1415926535897931 0 0 1 
1 0 0 1 0 
1 0 0 0 -1 
1 6.2831853071795862 0 0 -1 
1 3.1415926535897931 14.059999999999999 0 -1 
1 3.1415926535897931 14.059999999999999 0 -1 
1 0 9.6199999999999992 1 0 
1 3.736509103232581 0 0 1 
1 6.2831853071795862 18.5 -1 0 
1 0 14.059999999999999 0 1 
1 6.2831853071795862 14.059999999999999 0 1 
1 0 9.6199999999999992 1 0 
1 6.2831853071795862 18.5 -1 0 
1 3.1415926535897931 32.560000000000002 0 -1 
1 3.1415926535897931 32.560000000000002 0 -1 
1 0 28.119999999999997 1 0 
1 3.736509103232581 0 0 1 
1 6.2831853071795862 37 -1 0 
1 0 32.560000000000002 0 1 
1 6.2831853071795862 32.560000000000002 0 1 
1 0 28.119999999999997 1 0 
1 6.2831853071795862 37 -1 0 
1 6.2831853071795862 9.6199999999999992 -1 0 
1 0 28.119999999999997 1 0 
1 6.2831853071795862 0.91923881554251063 -1 2.8271597168564594e-16 
1 6.2831853071795862 0.91923881554251063 -1 2.8271597168564594e-16 
1 6.2831853071795862 0.99999999999999756 -1 5.6543194337129169e-16 
1 0 2.9999999999999987 1 5.6543194337129189e-16 
1 6.2831853071795862 37 -1 0 
1 4.7123889803846897 0 0 1 
1 6.2831853071795862 18.5 -1 0 
1 4.7123889803846897 0 0 1 
1 0 9.6199999999999992 1 0 
1 0 0 1 0 
1 6.2831853071795862 -8.8800000000000008 -1 0 
1 6.2831853071795862 18.5 -1 0 
1 6.2831853071795862 -0.91923881554251197 -1 -3.5339496460705743e-17 
1 0 -0.35000000000000014 1 3.5339496460705743e-17 
1 6.2831853071795862 0.35000000000000031 -1 -1.0601848938211722e-16 
1 6.2831853071795862 -0.91923881554251197 -1 -3.5339496460705743e-17 
1 0 -0.35000000000000014 1 3.5339496460705743e-17 
1 6.2831853071795862 0.35000000000000031 -1 -1.0601848938211722e-16 
1 1.5707963267948966 1.5000000000000004 0 -1 
1 0 3.0000000000000004 1 2.8271597168564594e-16 
1 0 2 0 -1 
1 0 2 0 -1 
1 6.2831853071795862 1.0000000000000002 -1 2.8271597168564584e-16 
1 1.5707963267948966 2.4999999999999996 0 -1 
1 3.1415926535897931 23.309999999999999 0 -1 
1 3.1415926535897931 23.309999999999999 0 -1 
1 0 18.870000000000001 1 0 
1 4.7123889803846897 37 0 -1 
1 6.2831853071795862 27.75 -1 0 
1 0 23.309999999999999 0 1 
1 6.2831853071795862 23.309999999999999 0 1 
1 0 18.870000000000001 1 0 
1 6.2831853071795862 27.75 -1 0 
1 6.2831853071795862 0.37000000000000099 -1 0 
1 3.1415926535897931 4.8099999999999996 0 1 
1 3.1415926535897931 4.8099999999999996 0 1 
1 0 9.25 1 0 
1 0 4.8099999999999996 0 -1 
1 6.2831853071795862 4.8099999999999996 0 -1 
1 3.1415926535897931 0 0 -1 
1 3.1415926535897931 0 0 -1 
1 3.1415926535897931 0 1 0 
1 4.7123889803846897 37 0 -1 
1 6.2831853071795862 9.25 -1 0 
1 0 0 0 1 
1 6.2831853071795862 0 0 1 
1 -3.1415926535897931 0 1 0 
1 6.2831853071795862 9.25 -1 0 
1 -3.1415926535897931 -18.5 1 0 
1 3.1415926535897931 -13.875 0 1 
1 3.1415926535897931 -13.875 0 1 
1 0 -9.25 1 0 
1 0 -13.875 0 -1 
1 6.2831853071795862 -13.875 0 -1 
1 6.2831853071795862 0.91923881554251174 -1 -7.0678992921411486e-17 
1 3.1415926535897931 2.2204460492503131e-16 0 -1 
1 3.1415926535897931 2.2204460492503131e-16 0 -1 
1 6.2831853071795862 -0.91923881554251219 -1 3.5339496460705743e-17 
1 0 -0.34999999999999992 1 -3.5339496460705743e-17 
1 6.2831853071795862 2.2204460492503131e-16 0 1 
1 0 2.2204460492503131e-16 0 1 
1 3.1415926535897931 -1.6653345369377348e-16 0 1 
1 3.1415926535897931 -1.6653345369377348e-16 0 1 
1 6.2831853071795862 0.34999999999999964 -1 1.0601848938211722e-16 
1 0 1.6653345369377348e-16 0 -1 
1 6.2831853071795862 1.6653345369377348e-16 0 -1 
1 6.2831853071795862 0.91923881554251241 -1 -2.8271597168564594e-16 
1 3.1415926535897931 2.2204460492503131e-16 0 -1 
1 3.1415926535897931 2.2204460492503131e-16 0 -1 
1 6.2831853071795862 -0.91923881554251219 -1 3.5339496460705743e-17 
1 0 -0.34999999999999992 1 -3.5339496460705743e-17 
1 6.2831853071795862 2.2204460492503131e-16 0 1 
1 0 2.2204460492503131e-16 0 1 
1 3.1415926535897931 -1.6653345369377348e-16 0 1 
1 3.1415926535897931 -1.6653345369377348e-16 0 1 
1 6.2831853071795862 0.34999999999999964 -1 1.0601848938211722e-16 
1 0 1.6653345369377348e-16 0 -1 
1 6.2831853071795862 1.6653345369377348e-16 0 -1 
1 1.5707963267948963 1.5000000000000004 0 -1 
1 3.1415926535897931 -18.5 1 0 
1 1.5707963267948966 2.4999999999999996 0 -1 
1 3.1415926535897931 0 1 0 
1 0 2.9999999999999987 1 5.6543194337129189e-16 
1 0 2 0 -1 
1 6.2831853071795862 1.0000000000000002 -1 2.8271597168564584e-16 
1 0 2 0 -1 
1 6.2831853071795862 0.99999999999999756 -1 5.6543194337129189e-16 
1 0 3.0000000000000004 1 2.8271597168564599e-16 
1 6.2831853071795862 0.35000000000000031 -1 -1.0601848938211722e-16 
1 0 -0.35000000000000014 1 3.5339496460705743e-17 
1 6.2831853071795862 -0.91923881554251197 -1 -3.5339496460705743e-17 
1 6.2831853071795862 0.91923881554251063 -1 2.8271597168564594e-16 
1 6.2831853071795862 0.35000000000000031 -1 -1.0601848938211722e-16 
1 0 -0.35000000000000014 1 3.5339496460705743e-17 
1 6.2831853071795862 -0.91923881554251197 -1 -3.5339496460705743e-17 
1 6.2831853071795862 0.9192388155425113 -1 7.0678992921411486e-17 
1 5.6882688575367988 37 0 -1 
1 5.6882688575367988 37 0 -1 
1 0 9.25 1 0 
1 6.2831853071795862 27.75 -1 0 
1 0 -9.25 1 0 
1 6.2831853071795862 9.25 -1 0 
1 6.2831853071795862 0.37000000000000099 -1 0 
1 0 18.870000000000001 1 0 
1 0 0 0 1 
1 6.2831853071795862 0 0 1 
1 0 -18.699999999999999 1 0 
1 1.5707963267948966 0 -1 0 
1 0 -18.699999999999999 1 0 
1 7.8539816339744828 0 -1 0 
1 3.1415926535897931 0 0 -1 
1 3.1415926535897931 0 0 -1 
1 0 18.699999999999999 1 0 
1 1.5707963267948966 0 1 0 
1 0 18.699999999999999 1 0 
1 1.5707963267948966 0 1 0 
1 3.1415926535897931 0 0 1 
1 3.1415926535897931 0 0 1 
1 1.5707963267948966 0 1 0 
1 0 18.699999999999999 1 0 
1 6.2831853071795862 6.2831853071795862 0 -1 
1 0 6.2831853071795862 0 -1 
1 1.5707963267948966 1.5707963267948966 1 -7.0678992921411486e-17 
1 3.1415926535897931 0 0 1 
1 3.1415926535897931 0 0 1 
1 7.8539816339744828 0 -1 0 
1 0 -18.699999999999999 1 0 
1 6.2831853071795862 6.2831853071795862 0 -1 
1 0 6.2831853071795862 0 -1 
1 1.5707963267948966 1.5707963267948966 1 0 
1 1.5707963267948966 1.5707963267948966 1 0 
1 -4.7123889803846897 1.5707963267948966 1 0 
1 7.8539816339744828 0 -1 0 
1 0 -18.699999999999999 1 0 
1 1.5707963267948966 1.5707963267948966 1 0 
1 -4.7123889803846897 1.5707963267948957 1 1.4135798584282297e-16 
1 -4.7123889803846897 0 1 0 
1 0 18.699999999999999 1 0 
Curves 180
2 -11.5 0.69999999999999996 -12.5 6.12303176911189e-17 -1 0 1 6.12303176911189e-17 0 -0 0 1 2.6000000000000001
1 -14.1 0.34999999999999998 -12.5 6.12303176911189e-17 -1 0 
2 -11.5 -1.6653345369377299e-16 -12.5 -0 1 0 1 0 0 0 0 -1 2.6000000000000001
1 -8.9000000000000004 0.34999999999999998 -12.5 -6.12303176911189e-17 1 -0 
2 -11.5 2 -12.5 2.2638288915704001e-16 -1 0 1 2.2638288915704001e-16 0 -0 0 1 3.8999999999999999
1 -14.75 1.3500000000000001 -12.5 0.70710678118654802 -0.70710678118654702 -0 
1 -8.25 1.3500000000000001 -12.5 0.70710678118654802 0.70710678118654702 0 
2 -11.5 0.69999999999999996 10 6.12303176911189e-17 -1 0 1 6.12303176911189e-17 0 -0 0 1 2.6000000000000001
1 -14.1 0.34999999999999998 10 6.12303176911189e-17 -1 0 
2 -11.5 -1.6653345369377299e-16 10 -0 1 0 1 0 0 0 0 -1 2.6000000000000001
1 -8.9000000000000004 0.34999999999999998 10 -6.12303176911189e-17 1 -0 
2 -11.5 2 10 2.2638288915704001e-16 -1 0 1 2.2638288915704001e-16 0 -0 0 1 3.8999999999999999
1 -14.75 1.3500000000000001 10 0.70710678118654802 -0.70710678118654702 -0 
1 -8.25 1.3500000000000001 10 0.70710678118654802 0.70710678118654702 0 
2 0 4.5499999999999998 9.6199999999999992 0 0 -1 1 0 0 0 -1 0 2.52
1 -2.52 4.5499999999999998 14.06 -0 0 1 
2 0 4.5499999999999998 18.5 0 0 -1 1 0 0 0 -1 0 2.52
1 2.52 4.5499999999999998 14.06 -0 -0 -1 
2 0 4.5499999999999998 -8.8800000000000008 0 0 -1 1 0 0 0 -1 0 2.52
1 -2.52 4.5499999999999998 0 -0 0 1 
2 0 4.5499999999999998 0 0 0 1 1 0 -0 -0 1 0 2.52
1 2.52 4.5499999999999998 0 -0 -0 -1 
1 -4.5499999999999998 4.5499999999999998 -4.4400000000000004 -0 -0 -1 
2 0 4.5499999999999998 -8.8800000000000008 0 0 1 1 0 -0 -0 1 0 4.5499999999999998
1 -3.7682887362833499 2 -18.5 0 0 1 
2 0 4.5499999999999998 0 0 0 -1 1 0 0 0 -1 0 4.5499999999999998
1 4.5499999999999998 4.5499999999999998 -4.4400000000000004 0 0 1 
2 0 4.5499999999999998 -8.8800000000000008 0 0 1 1 0 -0 -0 1 0 4.5499999999999998
2 0 4.5499999999999998 0 0 0 -1 1 0 0 0 -1 0 4.5499999999999998
1 -4.5499999999999998 4.5499999999999998 14.06 -0 -0 -1 
2 0 4.5499999999999998 9.6199999999999992 0 0 1 1 0 -0 -0 1 0 4.5499999999999998
1 -3.7682887362833499 2 -18.5 0 0 1 
2 0 4.5499999999999998 18.5 0 0 -1 1 0 0 0 -1 0 4.5499999999999998
1 4.5499999999999998 4.5499999999999998 14.06 0 0 1 
2 0 4.5499999999999998 9.6199999999999992 0 0 1 1 0 -0 -0 1 0 4.5499999999999998
2 0 4.5499999999999998 18.5 0 0 -1 1 0 0 0 -1 0 4.5499999999999998
2 0 4.5499999999999998 9.6199999999999992 0 0 -1 1 0 0 0 -1 0 2.52
2 0 4.5499999999999998 9.6199999999999992 0 0 1 1 0 -0 -0 1 0 4.5499999999999998
1 -4.375 0 9.6199999999999992 1 0 -0 
1 -4.5999999999999996 4.5999999999999996 9.6199999999999992 0 -1 0 
1 -5.3170721840708399 2 9.6199999999999992 -1 -2.2638288915704001e-16 0 
2 -11.5 2 10 2.2638288915704001e-16 -1 0 1 2.2638288915704001e-16 0 -0 0 1 3.8999999999999999
2 -11.5 2 -12.5 2.2638288915704001e-16 -1 0 1 2.2638288915704001e-16 0 -0 0 1 3.8999999999999999
1 -4.5999999999999996 2 -4.5324999999999998 0 0 -1 
1 -5.3170721840708399 2 0 1 2.2638288915704001e-16 0 
1 -5.3170721840708399 2 -8.8800000000000008 -1 -2.2638288915704001e-16 0 
1 -4.5999999999999996 2 -13.782500000000001 0 0 -1 
1 -17.5 2 -18.5 1 2.2638288915704001e-16 0 
2 -11.5 2 -12.5 -2.2638288915704001e-16 1 0 -1 -2.2638288915704001e-16 -1.22460635382238e-16 -1.22460635382238e-16 -2.7722992445837878e-32 1 6
1 -17.5 2 -18.5 0 0 1 
2 -11.5 2 12.5 -2.2638288915704001e-16 1 0 -1 -2.2638288915704001e-16 1.22460635382238e-16 1.22460635382238e-16 2.7722992445837878e-32 1 6
1 -17.5 2 18.5 1 2.2638288915704001e-16 0 
2 0 4.5499999999999998 18.5 0 0 -1 1 0 0 0 -1 0 4.5499999999999998
1 0 0 -18.5 0 0 1 
2 0 4.5499999999999998 0 0 0 -1 1 0 0 0 -1 0 4.5499999999999998
1 0 0 -18.5 0 0 1 
2 0 4.5499999999999998 -8.8800000000000008 0 0 1 1 0 -0 -0 1 0 4.5499999999999998
2 0 4.5499999999999998 0 0 0 1 1 0 -0 -0 1 0 2.52
2 0 4.5499999999999998 -8.8800000000000008 0 0 -1 1 0 0 0 -1 0 2.52
1 -4.375 0 -8.8800000000000008 1 0 -0 
1 -4.5999999999999996 4.5999999999999996 -8.8800000000000008 0 -1 0 
2 0 4.5499999999999998 18.5 0 0 -1 1 0 0 0 -1 0 2.52
1 -4.5999999999999996 0 -4.5324999999999998 -0 0 1 
1 -4.5999999999999996 4.5999999999999996 0 0 1 0 
1 -4.375 0 0 -1 0 0 
1 -4.5999999999999996 0 -13.782500000000001 -0 0 1 
1 -4.5999999999999996 3.5788789979942401 -18.5 0 -1 0 
2 -11.5 0.69999999999999996 10 6.12303176911189e-17 -1 0 1 6.12303176911189e-17 0 -0 0 1 2.6000000000000001
2 -11.5 -1.6653345369377299e-16 10 -0 1 0 1 0 0 0 0 -1 2.6000000000000001
2 -11.5 0.69999999999999996 -12.5 6.12303176911189e-17 -1 0 1 6.12303176911189e-17 0 -0 0 1 2.6000000000000001
2 -11.5 -1.6653345369377299e-16 -12.5 -0 1 0 1 0 0 0 0 -1 2.6000000000000001
1 -11.5 1.5 -18.5 -7.4983036091106899e-33 1 6.12303176911189e-17 
2 -11.5 -4.4408920985006301e-16 -12.5 0 -1 -0 -1 0 -1.22460635382238e-16 1.22460635382238e-16 0 -1 6
1 -17.5 1 -12.5 -7.4983036091106899e-33 1 6.12303176911189e-17 
1 -17.5 0 -18.5 0 0 1 
1 -17.5 1 12.5 -7.4983036091106899e-33 -1 6.12303176911189e-17 
2 -11.5 1.9984014443252802e-15 12.5 0 -1 0 -1 0 1.22460635382238e-16 -1.22460635382238e-16 -0 -1 6
1 -11.5 1.5 18.5 -7.4983036091106899e-33 -1 6.12303176911189e-17 
1 -17.5 0 18.5 -1 -0 -0 
1 -17.5 0 -18.5 1 0 0 
1 -4.5499999999999998 4.5499999999999998 4.8099999999999996 -0 -0 -1 
2 0 4.5499999999999998 0.37000000000000099 0 0 1 1 0 -0 -0 1 0 4.5499999999999998
1 -2.2655217545713999e-15 0 18.5 1.22460635382238e-16 0 -1 
2 0 4.5499999999999998 9.25 0 0 -1 1 0 0 0 -1 0 4.5499999999999998
1 4.5499999999999998 4.5499999999999998 4.8099999999999996 0 0 1 
2 0 4.5499999999999998 0.37000000000000099 0 0 1 1 0 -0 -0 1 0 4.5499999999999998
2 0 4.5499999999999998 9.25 0 0 -1 1 0 0 0 -1 0 4.5499999999999998
2 0 4.5499999999999998 0.37000000000000099 0 0 -1 1 0 0 0 -1 0 2.52
1 -2.52 4.5499999999999998 4.8099999999999996 -0 0 1 
2 0 4.5499999999999998 9.25 0 0 1 1 0 -0 -0 1 0 2.52
1 2.52 4.5499999999999998 4.8099999999999996 -0 -0 -1 
1 -4.5499999999999998 4.5499999999999998 -18.5 -0 -0 -1 
2 2.2655217545713999e-15 4.5499999999999998 -18.5 -1.22460635382238e-16 -0 1 -1 0 -1.22460635382238e-16 0 -1 -0 4.5499999999999998
1 -2.2655217545713999e-15 0 18.5 1.22460635382238e-16 0 -1 
2 0 4.5499999999999998 -9.25 0 0 -1 1 0 0 0 -1 0 4.5499999999999998
1 4.5499999999999998 4.5499999999999998 -18.5 0 0 1 
2 2.2655217545713999e-15 4.5499999999999998 -18.5 -1.22460635382238e-16 -0 1 -1 0 -1.22460635382238e-16 0 -1 -0 4.5499999999999998
2 0 4.5499999999999998 -9.25 0 0 -1 1 0 0 0 -1 0 4.5499999999999998
2 2.2655217545713999e-15 4.5499999999999998 -18.5 -1.22460635382238e-16 -0 1 -1 0 -1.22460635382238e-16 0 -1 -0 2.52
1 -2.52 4.5499999999999998 -13.875 -0 0 1 
2 0 4.5499999999999998 -9.25 0 0 1 1 0 -0 -0 1 0 2.52
1 2.52 4.5499999999999998 -13.875 -0 -0 -1 
2 11.5 2 -10 -2.2638288915704001e-16 -1 -2.7722992445837802e-32 -1 2.2638288915704001e-16 -1.22460635382238e-16 1.22460635382238e-16 -7.6633509767763434e-47 -1 3.8999999999999999
1 14.75 1.3500000000000001 -10 -0.70710678118654802 -0.70710678118654702 -5.3021013293977297e-33 
2 11.5 0.69999999999999996 -10 -6.12303176911189e-17 -1 -7.4983036091106899e-33 -1 6.12303176911189e-17 -1.22460635382238e-16 1.22460635382238e-16 -1.7789921910373654e-47 -1 2.6000000000000001
1 8.25 1.3500000000000001 -10 -0.70710678118654802 0.70710678118654702 5.3021013293977297e-33 
1 14.1 0.34999999999999998 -10 -6.12303176911189e-17 -1 -7.4983036091106899e-33 
2 11.5 -1.6653345369377299e-16 -10 0 1 0 -1 0 -1.22460635382238e-16 -1.22460635382238e-16 0 1 2.6000000000000001
1 8.9000000000000004 0.34999999999999998 -10 6.12303176911189e-17 1 7.4983036091106899e-33 
2 11.5 2 12.5 -2.2638288915704001e-16 -1 -2.7722992445837802e-32 -1 2.2638288915704001e-16 -1.22460635382238e-16 1.22460635382238e-16 -7.6633509767763434e-47 -1 3.8999999999999999
1 14.75 1.3500000000000001 12.5 -0.70710678118654802 -0.70710678118654702 -5.3021013293977297e-33 
2 11.5 0.69999999999999996 12.5 -6.12303176911189e-17 -1 -7.4983036091106899e-33 -1 6.12303176911189e-17 -1.22460635382238e-16 1.22460635382238e-16 -1.7789921910373654e-47 -1 2.6000000000000001
1 8.25 1.3500000000000001 12.5 -0.70710678118654802 0.70710678118654702 5.3021013293977297e-33 
1 14.1 0.34999999999999998 12.5 -6.12303176911189e-17 -1 -7.4983036091106899e-33 
2 11.5 -1.6653345369377299e-16 12.5 0 1 0 -1 0 -1.22460635382238e-16 -1.22460635382238e-16 0 1 2.6000000000000001
1 8.9000000000000004 0.34999999999999998 12.5 6.12303176911189e-17 1 7.4983036091106899e-33 
1 4.5999999999999996 3.5788789979942401 18.5 0 -1 -0 
1 17.5 0 18.5 -1 0 -1.22460635382238e-16 
1 11.5 1.5 18.5 1.4996607218221399e-32 1 -6.12303176911189e-17 
1 17.5 2 18.5 -1 2.2638288915704001e-16 -1.22460635382238e-16 
2 2.2655217545713999e-15 4.5499999999999998 -18.5 -1.22460635382238e-16 -0 1 -1 0 -1.22460635382238e-16 0 -1 -0 2.52
1 11.5 1.5 -18.5 1.4996607218221399e-32 -1 -6.12303176911189e-17 
1 17.5 0 -18.5 1 -0 1.22460635382238e-16 
2 2.2655217545713999e-15 4.5499999999999998 -18.5 -1.22460635382238e-16 -0 1 -1 0 -1.22460635382238e-16 0 -1 -0 4.5499999999999998
1 17.5 2 -18.5 -1 2.2638288915704001e-16 -1.22460635382238e-16 
2 11.5 2 -12.5 2.2638288915704001e-16 1 2.7722992445837802e-32 1 -2.2638288915704001e-16 -6.2760111259675395e-48 1.7016057400401559e-62 2.7722992445837802e-32 -1 6
1 17.5 1 -12.5 1.4996607218221399e-32 -1 -6.12303176911189e-17 
2 11.5 1.9984014443252802e-15 -12.5 0 -1 -0 1 0 0 0 -0 1 6
1 17.5 1 12.5 1.4996607218221399e-32 1 -6.12303176911189e-17 
1 17.5 0 18.5 1.22460635382238e-16 0 -1 
1 17.5 2 18.5 1.22460635382238e-16 0 -1 
2 11.5 2 12.5 2.2638288915704001e-16 1 2.7722992445837802e-32 1 -2.2638288915704001e-16 2.4492127076447501e-16 2.4492127076447501e-16 -2.7722992445837725e-32 -1 6
2 11.5 -4.4408920985006301e-16 12.5 0 -1 0 1 0 2.4492127076447501e-16 -2.4492127076447501e-16 0 1 6
2 11.5 -1.6653345369377299e-16 12.5 0 1 0 -1 0 -1.22460635382238e-16 -1.22460635382238e-16 0 1 2.6000000000000001
2 11.5 0.69999999999999996 12.5 -6.12303176911189e-17 -1 -7.4983036091106899e-33 -1 6.12303176911189e-17 -1.22460635382238e-16 1.22460635382238e-16 -1.7789921910373654e-47 -1 2.6000000000000001
2 11.5 2 12.5 -2.2638288915704001e-16 -1 -2.7722992445837802e-32 -1 2.2638288915704001e-16 -1.22460635382238e-16 1.22460635382238e-16 -7.6633509767763434e-47 -1 3.8999999999999999
2 11.5 -1.6653345369377299e-16 -10 0 1 0 -1 0 -1.22460635382238e-16 -1.22460635382238e-16 0 1 2.6000000000000001
2 11.5 0.69999999999999996 -10 -6.12303176911189e-17 -1 -7.4983036091106899e-33 -1 6.12303176911189e-17 -1.22460635382238e-16 1.22460635382238e-16 -1.7789921910373654e-47 -1 2.6000000000000001
2 11.5 2 -10 -2.2638288915704001e-16 -1 -2.7722992445837802e-32 -1 2.2638288915704001e-16 -1.22460635382238e-16 1.22460635382238e-16 -7.6633509767763434e-47 -1 3.8999999999999999
1 4.5999999999999996 2 16.1875 -1.22460635382238e-16 0 1 
1 4.5999999999999996 4.5999999999999996 9.25 0 -1 -0 
1 4.5999999999999996 0 16.1875 1.22460635382238e-16 0 -1 
1 5.3170721840708399 2 0.37000000000000099 -1 2.2638288915704001e-16 0 
1 3.7682887362833499 2 18.5 1.22460635382238e-16 0 -1 
1 5.3170721840708399 2 9.25 1 -2.2638288915704001e-16 1.22460635382238e-16 
1 3.7682887362833499 2 18.5 1.22460635382238e-16 0 -1 
1 5.3170721840708399 2 -9.25 1 -2.2638288915704001e-16 1.22460635382238e-16 
1 4.5999999999999996 2 9.3424999999999994 0 -2.7722992445837802e-32 1 
1 4.5999999999999996 4.5999999999999996 -9.25 0 -1 -0 
1 4.5999999999999996 0 9.3424999999999994 0 0 -1 
1 4.5999999999999996 4.5999999999999996 0.37000000000000099 0 1 0 
2 0 4.5499999999999998 9.25 0 0 1 1 0 -0 -0 1 0 2.52
2 0 4.5499999999999998 9.25 0 0 -1 1 0 0 0 -1 0 4.5499999999999998
1 4.375 0 9.25 -1 0 -1.22460635382238e-16 
2 0 4.5499999999999998 -9.25 0 0 1 1 0 -0 -0 1 0 2.52
2 0 4.5499999999999998 -9.25 0 0 -1 1 0 0 0 -1 0 4.5499999999999998
1 4.375 0 -9.25 -1 0 -1.22460635382238e-16 
1 4.375 0 0.37000000000000099 1 0 -0 
2 0 4.5499999999999998 0.37000000000000099 0 0 -1 1 0 0 0 -1 0 2.52
2 0 4.5499999999999998 0.37000000000000099 0 0 1 1 0 -0 -0 1 0 4.5499999999999998
1 2.5 4.5 0 0 0 1 
2 0 4.5 -18.699999999999999 0 0 1 1 0 -0 -0 1 0 2.5
2 0 4.5 -18.699999999999999 0 0 1 1 0 -0 -0 1 0 2.5
1 -2.5 4.5 0 -0 -0 -1 
2 0 4.5 18.699999999999999 0 0 1 1 0 -0 -0 1 0 2.5
2 0 4.5 18.699999999999999 0 0 1 1 0 -0 -0 1 0 2.5
2 8.5722444767566406e-17 5.2000000000000002 18.699999999999999 1 -1.22460635382238e-16 7.4983036091106899e-33 1.22460635382238e-16 1 -6.12303176911189e-17 1.7789921910373654e-47 6.12303176911189e-17 1 1.8
2 0 4.5 18.699999999999999 0 0 1 1 0 -0 -0 1 0 2.5
2 -8.5722444767566406e-17 3.7999999999999998 18.699999999999999 1 -1.22460635382238e-16 7.4983036091106899e-33 -1.22460635382238e-16 -1 6.12303176911189e-17 -1.7789921910373654e-47 -6.12303176911189e-17 -1 1.8
2 0 4.5 20.5 0 0 1 1 0 -0 -0 1 0 0.69999999999999996
2 8.5722444767566406e-17 3.7999999999999998 -18.699999999999999 1 1.22460635382238e-16 -2.24949108273321e-32 1.22460635382238e-16 -1 1.8369095307335701e-16 6.2948954452091392e-47 -1.8369095307335701e-16 -1 1.8
2 0 4.5 -18.699999999999999 0 0 1 1 0 -0 -0 1 0 2.5
2 -8.5722444767566406e-17 5.2000000000000002 -18.699999999999999 1 1.22460635382238e-16 -2.24949108273321e-32 -1.22460635382238e-16 1 -1.8369095307335701e-16 -6.2948954452091392e-47 1.8369095307335701e-16 1 1.8
2 0 4.5 -20.5 0 0 -1 1 0 0 0 -1 0 0.69999999999999996
2 0 4.5 -20.5 0 0 -1 1 0 0 0 -1 0 0.69999999999999996
2 0 4.5 -20.5 0 0 -1 1 0 0 0 -1 0 0.69999999999999996
2 0 4.5 -18.699999999999999 0 0 1 1 0 -0 -0 1 0 2.5
2 0 4.5 20.5 0 0 1 1 0 -0 -0 1 0 0.69999999999999996
2 0 4.5 20.5 0 0 1 1 0 -0 -0 1 0 0.69999999999999996
2 0 4.5 18.699999999999999 0 0 1 1 0 -0 -0 1 0 2.5
Polygon3D 0
PolygonOnTriangulations 0
Surfaces 68
2 -11.5 0.34999999999999998 -12.5 6.12303176911189e-17 -1 0 1 6.12303176911189e-17 0 -0 0 1 2.6000000000000001
3 -11.5 1.3500000000000001 -12.5 -6.12303176911189e-17 1 -0 1 6.12303176911189e-17 0 0 0 -1 3.25
0.78539816339744795
2 -11.5 0.34999999999999998 -12.5 6.12303176911189e-17 -1 0 1 6.12303176911189e-17 0 -0 0 1 2.6000000000000001
1 -8.75 0 -18.5 0 -1 0 1 0 0 -0 0 1 
1 -10.634144368141699 2 -18.5 -2.2638288915704001e-16 1 0 -1 -2.2638288915704001e-16 -0 0 -0 1 
3 -11.5 1.3500000000000001 -12.5 -6.12303176911189e-17 1 -0 1 6.12303176911189e-17 0 0 0 -1 3.25
0.78539816339744795
2 -11.5 0.34999999999999998 10 6.12303176911189e-17 -1 0 1 6.12303176911189e-17 0 -0 0 1 2.6000000000000001
3 -11.5 1.3500000000000001 10 -6.12303176911189e-17 1 -0 1 6.12303176911189e-17 0 0 0 -1 3.25
0.78539816339744795
2 -11.5 0.34999999999999998 10 6.12303176911189e-17 -1 0 1 6.12303176911189e-17 0 -0 0 1 2.6000000000000001
3 -11.5 1.3500000000000001 10 -6.12303176911189e-17 1 -0 1 6.12303176911189e-17 0 0 0 -1 3.25
0.78539816339744795
2 0 4.5499999999999998 0 0 0 1 1 0 -0 -0 1 0 2.52
1 0 4.5999999999999996 9.6199999999999992 0 0 1 1 0 -0 -0 1 0 
2 0 4.5499999999999998 0 0 0 1 1 0 -0 -0 1 0 2.52
1 -5.7547736046634501 2.55775799598849 18.5 0 0 1 1 0 -0 -0 1 0 
2 0 4.5499999999999998 0 0 0 1 1 0 -0 -0 1 0 2.52
1 0 4.5999999999999996 -8.8800000000000008 0 0 1 1 0 -0 -0 1 0 
2 0 4.5499999999999998 0 0 0 1 1 0 -0 -0 1 0 2.52
1 0 4.5999999999999996 0 0 0 1 1 0 -0 -0 1 0 
2 0 4.5499999999999998 -18.5 0 0 1 1 0 -0 -0 1 0 4.5499999999999998
2 0 4.5499999999999998 -18.5 0 0 1 1 0 -0 -0 1 0 4.5499999999999998
2 0 4.5499999999999998 -18.5 0 0 1 1 0 -0 -0 1 0 4.5499999999999998
2 0 4.5499999999999998 -18.5 0 0 1 1 0 -0 -0 1 0 4.5499999999999998
2 0 4.5499999999999998 -18.5 0 0 1 1 0 -0 -0 1 0 4.5499999999999998
2 0 4.5499999999999998 -18.5 0 0 1 1 0 -0 -0 1 0 4.5499999999999998
1 -4.5999999999999996 4.5999999999999996 4.625 1 0 0 0 0 -1 -0 1 0 
1 -4.5999999999999996 4.5999999999999996 -13.875 1 0 0 0 0 -1 -0 1 0 
1 -5.7547736046634501 2.55775799598849 -18.5 0 0 1 1 0 -0 -0 1 0 
2 -11.5 3 -12.5 7.4983036091106899e-33 -1 -6.12303176911189e-17 -1 1.7789921910373654e-47 -1.22460635382238e-16 1.22460635382238e-16 6.12303176911189e-17 -1 6
1 -17.5 1 -18.5 -1 6.12303176911189e-17 0 -6.12303176911189e-17 -1 -0 0 -0 1 
2 -11.5 -1 12.5 7.4983036091106899e-33 1 -6.12303176911189e-17 -1 1.4996607218221396e-32 1.22460635382238e-16 1.22460635382238e-16 6.12303176911189e-17 1 6
2 0 4.5499999999999998 -18.5 0 0 1 1 0 -0 -0 1 0 4.5499999999999998
2 0 4.5499999999999998 -18.5 0 0 1 1 0 -0 -0 1 0 4.5499999999999998
1 0 4.5999999999999996 0.37000000000000099 0 0 1 1 0 -0 -0 1 0 
1 8.75 0 18.5 0 -1 -0 -1 0 -1.22460635382238e-16 1.22460635382238e-16 0 -1 
1 -1.1327608772856999e-15 4.5999999999999996 9.25 1.22460635382238e-16 0 -1 -1 0 -1.22460635382238e-16 0 1 0 
2 0 4.5499999999999998 -18.5 0 0 1 1 0 -0 -0 1 0 4.5499999999999998
2 0 4.5499999999999998 0 0 0 1 1 0 -0 -0 1 0 2.52
2 0 4.5499999999999998 0 0 0 1 1 0 -0 -0 1 0 2.52
2 0 4.5499999999999998 -18.5 0 0 1 1 0 -0 -0 1 0 4.5499999999999998
2 0 4.5499999999999998 -18.5 0 0 1 1 0 -0 -0 1 0 4.5499999999999998
1 5.7547736046634501 2.55775799598849 -18.5 1.22460635382238e-16 0 -1 -1 0 -1.22460635382238e-16 0 1 0 
1 1.1327608772856999e-15 4.5999999999999996 -9.25 1.22460635382238e-16 0 -1 -1 0 -1.22460635382238e-16 0 1 0 
2 0 4.5499999999999998 -18.5 0 0 1 1 0 -0 -0 1 0 4.5499999999999998
2 0 4.5499999999999998 0 0 0 1 1 0 -0 -0 1 0 2.52
2 0 4.5499999999999998 0 0 0 1 1 0 -0 -0 1 0 2.52
3 11.5 1.3500000000000001 -10 6.12303176911189e-17 1 7.4983036091106899e-33 -1 6.12303176911189e-17 -1.22460635382238e-16 -1.22460635382238e-16 1.7789921910373654e-47 1 3.25
0.78539816339744795
1 10.634144368141699 2 18.5 2.2638288915704001e-16 1 2.7722992445837802e-32 1 -2.2638288915704001e-16 1.22460635382238e-16 1.22460635382238e-16 -7.6633509767763434e-47 -1 
3 11.5 1.3500000000000001 -10 6.12303176911189e-17 1 7.4983036091106899e-33 -1 6.12303176911189e-17 -1.22460635382238e-16 -1.22460635382238e-16 1.7789921910373654e-47 1 3.25
0.78539816339744795
2 11.5 0.34999999999999998 -10 -6.12303176911189e-17 -1 -7.4983036091106899e-33 -1 6.12303176911189e-17 -1.22460635382238e-16 1.22460635382238e-16 -1.7789921910373654e-47 -1 2.6000000000000001
2 11.5 0.34999999999999998 -10 -6.12303176911189e-17 -1 -7.4983036091106899e-33 -1 6.12303176911189e-17 -1.22460635382238e-16 1.22460635382238e-16 -1.7789921910373654e-47 -1 2.6000000000000001
3 11.5 1.3500000000000001 12.5 6.12303176911189e-17 1 7.4983036091106899e-33 -1 6.12303176911189e-17 -1.22460635382238e-16 -1.22460635382238e-16 1.7789921910373654e-47 1 3.25
0.78539816339744795
3 11.5 1.3500000000000001 12.5 6.12303176911189e-17 1 7.4983036091106899e-33 -1 6.12303176911189e-17 -1.22460635382238e-16 -1.22460635382238e-16 1.7789921910373654e-47 1 3.25
0.78539816339744795
2 11.5 0.34999999999999998 12.5 -6.12303176911189e-17 -1 -7.4983036091106899e-33 -1 6.12303176911189e-17 -1.22460635382238e-16 1.22460635382238e-16 -1.7789921910373654e-47 -1 2.6000000000000001
2 11.5 0.34999999999999998 12.5 -6.12303176911189e-17 -1 -7.4983036091106899e-33 -1 6.12303176911189e-17 -1.22460635382238e-16 1.22460635382238e-16 -1.7789921910373654e-47 -1 2.6000000000000001
1 5.7547736046634501 2.55775799598849 18.5 1.22460635382238e-16 0 -1 -1 0 -1.22460635382238e-16 0 1 0 
1 4.5999999999999996 4.5999999999999996 13.875 -1 0 -1.22460635382238e-16 -1.22460635382238e-16 0 1 0 1 0 
2 11.5 3 12.5 -1.4996607218221399e-32 -1 6.12303176911189e-17 1 -4.3790577010150533e-47 2.4492127076447501e-16 -2.4492127076447501e-16 6.12303176911189e-17 1 6
2 11.5 -1 -12.5 -1.4996607218221399e-32 1 6.12303176911189e-17 1 1.4996607218221399e-32 0 -9.1824702426062319e-49 6.12303176911189e-17 -1 6
1 17.5 1 18.5 1 6.12303176911189e-17 1.22460635382238e-16 6.12303176911189e-17 -1 7.4983036091106899e-33 1.22460635382238e-16 1.7789921910373654e-47 -1 
1 4.5999999999999996 4.5999999999999996 -4.625 -1 0 -1.22460635382238e-16 -1.22460635382238e-16 0 1 0 1 0 
2 0 4.5 0 0 0 1 1 0 -0 -0 1 0 2.5
2 0 4.5 0 0 0 1 1 0 -0 -0 1 0 2.5
5 0 4.5 -18.699999999999999 0 -1.8369095307335701e-16 -1 0 1 -1.8369095307335701e-16 1 0 0 0.69999999999999996 1.8
5 0 4.5 -18.699999999999999 0 -1.8369095307335701e-16 -1 0 1 -1.8369095307335701e-16 1 0 0 0.69999999999999996 1.8
5 0 4.5 18.699999999999999 0 6.12303176911189e-17 1 0 -1 6.12303176911189e-17 1 0 -0 0.69999999999999996 1.8
5 0 4.5 18.699999999999999 0 6.12303176911189e-17 1 0 -1 6.12303176911189e-17 1 0 -0 0.69999999999999996 1.8
1 0 4.5 20.5 0 0 1 1 0 -0 -0 1 0 
1 0 4.5 -20.5 0 0 -1 -1 0 0 0 1 0 
Triangulations 0

TShapes 457
Ve
1e-07
-8.9 0.7 -12.5
0 0

0101101
*
Ve
1e-07
-14.1 0.7 -12.5
0 0

0101101
*
Ed
 1e-07 1 1 0
1  1 0 0 3.14159265358979
2  1 1 0 0 3.14159265358979
2  2 2 0 0 3.14159265358979
4 C0 1 0 2 0
0

0101000
+457 0 -456 0 *
Ve
1e-07
-14.1 -1.66533453693773e-16 -12.5
0 0

0101101
*
Ed
 1e-07 1 1 0
1  2 0 -0.35 0.35
2  3 1 0 -0.35 0.35
2  4 3 0 -0.35 0.35
4 CN 1 0 3 0
0

0101000
+456 0 -454 0 *
Ve
1e-07
-8.9 2.22044604925031e-16 -12.5
0 0

0101101
*
Ed
 1e-07 1 1 0
1  3 0 3.14159265358979 6.28318530717959
2  5 1 0 3.14159265358979 6.28318530717959
4 C0 1 0 4 0
0

0101000
+454 0 -452 0 *
Ed
 1e-07 1 1 0
1  4 0 -0.35 0.35
2  6 1 0 -0.35 0.35
2  7 3 0 -0.35 0.35
4 CN 1 0 3 0
0

0101000
+452 0 -457 0 *
Wi

0101100
+455 0 +453 0 +451 0 +450 0 *
Fa
0  1e-07 1 0

0111000
+449 0 *
Ve
1e-07
-7.6 2 -12.5
0 0

0101101
*
Ve
1e-07
-15.4 2 -12.5
0 0

0101101
*
Ed
 1e-07 1 1 0
1  5 0 0 3.14159265358979
2  8 2 0 0 3.14159265358979
4 C0 2 0 5 0
0

0101000
+447 0 -446 0 *
Ed
 1e-07 1 1 0
1  6 0 -0.919238815542512 0.919238815542512
2  9 2 0 -0.919238815542512 0.919238815542512
2  10 6 0 -0.919238815542512 0.919238815542512
4 CN 2 0 6 0
0

0101000
+446 0 -456 0 *
Ed
 1e-07 1 1 0
1  7 0 -0.919238815542512 0.919238815542512
2  11 2 0 -0.919238815542512 0.919238815542512
2  12 6 0 -0.919238815542512 0.919238815542512
4 CN 2 0 6 0
0

0101000
+457 0 -447 0 *
Wi

0101100
+445 0 +444 0 -455 0 +443 0 *
Fa
0  1e-07 2 0

0111000
+442 0 *
Ve
1e-07
-8.9 0.7 10
0 0

0101101
*
Ve
1e-07
-14.1 0.7 10
0 0

0101101
*
Ed
 1e-07 1 1 0
1  8 0 0 3.14159265358979
2  13 7 0 0 3.14159265358979
2  14 8 0 0 3.14159265358979
4 C0 7 0 8 0
0

0101000
+440 0 -439 0 *
Ve
1e-07
-14.1 -1.66533453693773e-16 10
0 0

0101101
*
Ed
 1e-07 1 1 0
1  9 0 -0.35 0.35
2  15 7 0 -0.35 0.35
2  16 9 0 -0.35 0.35
4 CN 7 0 9 0
0

0101000
+439 0 -437 0 *
Ve
1e-07
-8.9 2.22044604925031e-16 10
0 0

0101101
*
Ed
 1e-07 1 1 0
1  10 0 3.14159265358979 6.28318530717959
2  17 7 0 3.14159265358979 6.28318530717959
4 C0 7 0 4 0
0

0101000
+437 0 -435 0 *
Ed
 1e-07 1 1 0
1  11 0 -0.35 0.35
2  18 7 0 -0.35 0.35
2  19 9 0 -0.35 0.35
4 CN 7 0 9 0
0

0101000
+435 0 -440 0 *
Wi

0101100
+438 0 +436 0 +434 0 +433 0 *
Fa
0  1e-07 7 0

0111000
+432 0 *
Ve
1e-07
-7.6 2 10
0 0

0101101
*
Ve
1e-07
-15.4 2 10
0 0

0101101
*
Ed
 1e-07 1 1 0
1  12 0 0 3.14159265358979
2  20 8 0 0 3.14159265358979
4 C0 8 0 5 0
0

0101000
+430 0 -429 0 *
Ed
 1e-07 1 1 0
1  13 0 -0.919238815542512 0.919238815542512
2  21 8 0 -0.919238815542512 0.919238815542512
2  22 10 0 -0.919238815542512 0.919238815542512
4 CN 8 0 10 0
0

0101000
+429 0 -439 0 *
Ed
 1e-07 1 1 0
1  14 0 -0.919238815542512 0.919238815542512
2  23 8 0 -0.919238815542512 0.919238815542512
2  24 10 0 -0.919238815542512 0.919238815542512
4 CN 8 0 10 0
0

0101000
+440 0 -430 0 *
Wi

0101100
+428 0 +427 0 -438 0 +426 0 *
Fa
0  1e-07 8 0

0111000
+425 0 *
Ve
1e-07
-2.52 4.55 9.62
0 0

0101101
*
Ve
1e-07
2.52 4.55 9.62
0 0

0101101
*
Ed
 1e-07 1 1 0
1  15 0 3.14159265358979 6.28318530717959
2  25 11 0 3.14159265358979 6.28318530717959
4 C0 11 0 12 0
0

0101000
+423 0 -422 0 *
Ve
1e-07
-2.52 4.55 18.5
0 0

0101101
*
Ed
 1e-07 1 1 0
1  16 0 -4.44 4.44
2  26 11 0 -4.44 4.44
2  27 13 0 -4.44 4.44
4 CN 11 0 13 0
0

0101000
+423 0 -420 0 *
Ve
1e-07
2.52 4.55 18.5
0 0

0101101
*
Ed
 1e-07 1 1 0
1  17 0 3.14159265358979 6.28318530717959
2  28 11 0 3.14159265358979 6.28318530717959
4 C0 11 0 14 0
0

0101000
+420 0 -418 0 *
Ed
 1e-07 1 1 0
1  18 0 -4.44 4.44
2  29 11 0 -4.44 4.44
2  30 13 0 -4.44 4.44
4 CN 11 0 13 0
0

0101000
+418 0 -422 0 *
Wi

0101100
-421 0 +419 0 +417 0 +416 0 *
Fa
0  1e-07 11 0

0111000
+415 0 *
Ve
1e-07
-2.52 4.55 -8.88
0 0

0101101
*
Ve
1e-07
2.52 4.55 -8.88
0 0

0101101
*
Ed
 1e-07 1 1 0
1  19 0 3.14159265358979 6.28318530717959
2  31 15 0 3.14159265358979 6.28318530717959
4 C0 15 0 16 0
0

0101000
+413 0 -412 0 *
Ve
1e-07
-2.52 4.55 0
0 0

0101101
*
Ed
 1e-07 1 1 0
1  20 0 -8.88 0
2  32 15 0 -8.88 0
2  33 17 0 -8.88 0
4 CN 15 0 17 0
0

0101000
+413 0 -410 0 *
Ve
1e-07
2.52 4.55 0
0 0

0101101
*
Ed
 1e-07 1 1 0
1  21 0 0 3.14159265358979
2  34 15 0 0 3.14159265358979
4 C0 15 0 18 0
0

0101000
+408 0 -410 0 *
Ed
 1e-07 1 1 0
1  22 0 -0 8.88
2  35 15 0 -0 8.88
2  36 17 0 -0 8.88
4 CN 15 0 17 0
0

0101000
+408 0 -412 0 *
Wi

0101100
-411 0 +409 0 -407 0 +406 0 *
Fa
0  1e-07 15 0

0111000
+405 0 *
Ve
1e-07
-4.55 4.55 0
0 0

0101101
*
Ve
1e-07
-4.55 4.55 -8.88
0 0

0101101
*
Ed
 1e-07 1 1 0
1  23 0 -4.44 4.44
2  37 19 0 -4.44 4.44
2  38 20 0 -4.44 4.44
4 CN 19 0 20 0
0

0101000
+403 0 -402 0 *
Ve
1e-07
-3.76828873628335 2 -8.88
0 0

0101101
*
Ed
 1e-07 1 1 0
1  24 0 3.14159265358979 3.73650910323258
2  39 19 0 3.14159265358979 3.73650910323258
4 C0 19 0 16 0
0

0101000
+402 0 -400 0 *
Ve
1e-07
-3.76828873628335 2 0
0 0

0101101
*
Ed
 1e-07 1 1 0
1  25 0 9.62 18.5
2  40 19 0 9.62 18.5
4 C0 19 0 5 0
0

0101000
+400 0 -398 0 *
Ed
 1e-07 1 1 0
1  26 0 2.54667620394701 3.14159265358979
2  41 19 0 2.54667620394701 3.14159265358979
4 C0 19 0 18 0
0

0101000
+398 0 -403 0 *
Wi

0101100
+401 0 +399 0 +397 0 +396 0 *
Fa
0  1e-07 19 0

0111000
+395 0 *
Ve
1e-07
4.55 4.55 -8.88
0 0

0101101
*
Ve
1e-07
4.55 4.55 0
0 0

0101101
*
Ed
 1e-07 1 1 0
1  27 0 -4.44 4.44
2  42 20 0 -4.44 4.44
2  43 21 0 -4.44 4.44
4 CN 20 0 21 0
0

0101000
+393 0 -392 0 *
Ed
 1e-07 1 1 0
1  28 0 0 3.14159265358979
2  44 20 0 0 3.14159265358979
4 C0 20 0 16 0
0

0101000
+393 0 -402 0 *
Ed
 1e-07 1 1 0
1  29 0 3.14159265358979 6.28318530717959
2  45 20 0 3.14159265358979 6.28318530717959
4 C0 20 0 18 0
0

0101000
+403 0 -392 0 *
Wi

0101100
-391 0 +390 0 -401 0 +389 0 *
Fa
0  1e-07 20 0

0111000
+388 0 *
Ve
1e-07
-4.55 4.55 18.5
0 0

0101101
*
Ve
1e-07
-4.55 4.55 9.62
0 0

0101101
*
Ed
 1e-07 1 1 0
1  30 0 -4.44 4.44
2  46 22 0 -4.44 4.44
2  47 23 0 -4.44 4.44
4 CN 22 0 23 0
0

0101000
+386 0 -385 0 *
Ve
1e-07
-3.76828873628335 2 9.62
0 0

0101101
*
Ed
 1e-07 1 1 0
1  31 0 3.14159265358979 3.73650910323258
2  48 22 0 3.14159265358979 3.73650910323258
4 C0 22 0 12 0
0

0101000
+385 0 -383 0 *
Ve
1e-07
-3.76828873628335 2 18.5
0 0

0101101
*
Ed
 1e-07 1 1 0
1  32 0 28.12 37
2  49 22 0 28.12 37
4 C0 22 0 5 0
0

0101000
+383 0 -381 0 *
Ed
 1e-07 1 1 0
1  33 0 2.54667620394701 3.14159265358979
2  50 22 0 2.54667620394701 3.14159265358979
4 C0 22 0 14 0
0

0101000
+381 0 -386 0 *
Wi

0101100
+384 0 +382 0 +380 0 +379 0 *
Fa
0  1e-07 22 0

0111000
+378 0 *
Ve
1e-07
4.55 4.55 9.62
0 0

0101101
*
Ve
1e-07
4.55 4.55 18.5
0 0

0101101
*
Ed
 1e-07 1 1 0
1  34 0 -4.44 4.44
2  51 23 0 -4.44 4.44
2  52 24 0 -4.44 4.44
4 CN 23 0 24 0
0

0101000
+376 0 -375 0 *
Ed
 1e-07 1 1 0
1  35 0 0 3.14159265358979
2  53 23 0 0 3.14159265358979
4 C0 23 0 12 0
0

0101000
+376 0 -385 0 *
Ed
 1e-07 1 1 0
1  36 0 3.14159265358979 6.28318530717959
2  54 23 0 3.14159265358979 6.28318530717959
4 C0 23 0 14 0
0

0101000
+386 0 -375 0 *
Wi

0101100
-374 0 +373 0 -384 0 +372 0 *
Fa
0  1e-07 23 0

0111000
+371 0 *
Ed
 1e-07 1 1 0
1  37 0 0 3.14159265358979
2  55 13 0 0 3.14159265358979
4 C0 12 0 13 0
0

0101000
+422 0 -423 0 *
Wi

0101100
-421 0 -369 0 *
Ve
1e-07
-9.99200722162641e-16 0 9.62
0 0

0101101
*
Ed
 1e-07 1 1 0
1  38 0 4.71238898038469 6.28318530717959
2  56 24 0 4.71238898038469 6.28318530717959
4 C0 12 0 24 0
0

0101000
+367 0 -376 0 *
Ve
1e-07
-4.6 0 9.62
0 0

0101101
*
Ed
 1e-07 1 1 0
1  39 0 -0.225 4.375
4 C0 12 0 4 0
0

0101000
+365 0 -367 0 *
Ve
1e-07
-4.6 2 9.62
0 0

0101101
*
Ed
 1e-07 1 1 0
1  40 0 2.6 4.6
4 C0 12 0 25 0
0

0101000
+363 0 -365 0 *
Ed
 1e-07 1 1 0
1  41 0 -1.54878344778749 -0.71707218407084
4 C0 12 0 5 0
0

0101000
+383 0 -363 0 *
Wi

0101100
-366 0 -364 0 -362 0 -361 0 -382 0 -373 0 *
Fa
0  1e-07 12 0

0111000
-368 0 -360 0 *
Ed
 1e-07 1 1 0
1  42 0 3.14159265358979 6.28318530717959
2  57 10 0 3.14159265358979 6.28318530717959
4 C0 5 0 10 0
0

0101000
+429 0 -430 0 *
Wi

0101100
+428 0 +358 0 *
Ed
 1e-07 1 1 0
1  43 0 3.14159265358979 6.28318530717959
2  58 6 0 3.14159265358979 6.28318530717959
4 C0 5 0 6 0
0

0101000
+446 0 -447 0 *
Wi

0101100
+445 0 +356 0 *
Ve
1e-07
-4.6 2 0
0 0

0101101
*
Ed
 1e-07 1 1 0
1  44 0 -14.1525 -4.5325
4 C0 5 0 25 0
0

0101000
+363 0 -354 0 *
Ed
 1e-07 1 1 0
1  45 0 0.71707218407084 1.54878344778749
4 C0 5 0 18 0
0

0101000
+354 0 -398 0 *
Ve
1e-07
-4.6 2 -8.88
0 0

0101101
*
Ed
 1e-07 1 1 0
1  46 0 -1.54878344778749 -0.71707218407084
4 C0 5 0 16 0
0

0101000
+400 0 -351 0 *
Ve
1e-07
-4.6 2 -18.5
0 0

0101101
*
Ed
 1e-07 1 1 0
1  47 0 -4.9025 4.7175
4 C0 5 0 26 0
0

0101000
+351 0 -349 0 *
Ve
1e-07
-11.5 2 -18.5
0 0

0101101
*
Ed
 1e-07 1 1 0
1  48 0 6 12.9
4 C0 5 0 27 0
0

0101000
+347 0 -349 0 *
Ve
1e-07
-17.5 2 -12.5
0 0

0101101
*
Ed
 1e-07 1 1 0
1  49 0 4.71238898038469 6.28318530717959
2  59 28 0 4.71238898038469 6.28318530717959
4 C0 5 0 28 0
0

0101000
+347 0 -345 0 *
Ve
1e-07
-17.5 2 12.5
0 0

0101101
*
Ed
 1e-07 1 1 0
1  50 0 6 31
4 C0 5 0 29 0
0

0101000
+345 0 -343 0 *
Ve
1e-07
-11.5 2 18.5
0 0

0101101
*
Ed
 1e-07 1 1 0
1  51 0 0 1.5707963267949
2  60 30 0 0 1.5707963267949
4 C0 5 0 30 0
0

0101000
+343 0 -341 0 *
Ed
 1e-07 1 1 0
1  52 0 6 13.7317112637167
4 C0 5 0 14 0
0

0101000
+341 0 -381 0 *
Wi

0101100
+361 0 +353 0 +352 0 -397 0 +350 0 +348 0 -346 0 +344 0 +342 0 +340 0 
+339 0 -380 0 *
Fa
0  1e-07 5 0

0111000
+357 0 +355 0 +338 0 *
Ve
1e-07
0 0 18.5
0 0

0101101
*
Ed
 1e-07 1 1 0
1  53 0 0 1.5707963267949
2  61 24 0 0 1.5707963267949
4 C0 24 0 14 0
0

0101000
+375 0 -336 0 *
Ed
 1e-07 1 1 0
1  54 0 28.12 37
2  62 24 0 28.12 37
4 G1 24 0 4 0
0

0101000
+367 0 -336 0 *
Wi

0101100
+374 0 +335 0 -334 0 +366 0 *
Fa
0  1e-07 24 0

0111000
+333 0 *
Ve
1e-07
0 0 0
0 0

0101101
*
Ed
 1e-07 1 1 0
1  55 0 0 1.5707963267949
2  63 21 0 0 1.5707963267949
4 C0 21 0 18 0
0

0101000
+392 0 -331 0 *
Ve
1e-07
-9.99200722162641e-16 0 -8.88
0 0

0101101
*
Ed
 1e-07 1 1 0
1  56 0 9.62 18.5
2  64 21 0 9.62 18.5
4 G1 21 0 4 0
0

0101000
+329 0 -331 0 *
Ed
 1e-07 1 1 0
1  57 0 4.71238898038469 6.28318530717959
2  65 21 0 4.71238898038469 6.28318530717959
4 C0 21 0 16 0
0

0101000
+329 0 -393 0 *
Wi

0101100
+391 0 +330 0 -328 0 +327 0 *
Fa
0  1e-07 21 0

0111000
+326 0 *
Ed
 1e-07 1 1 0
1  58 0 3.14159265358979 6.28318530717959
2  66 17 0 3.14159265358979 6.28318530717959
4 C0 17 0 18 0
0

0101000
+410 0 -408 0 *
Ed
 1e-07 1 1 0
1  59 0 0 3.14159265358979
2  67 17 0 0 3.14159265358979
4 C0 17 0 16 0
0

0101000
+412 0 -413 0 *
Wi

0101100
-324 0 -409 0 -323 0 -406 0 *
Fa
0  1e-07 17 0

0111000
+322 0 *
Wi

0101100
-411 0 -323 0 *
Ve
1e-07
-4.6 0 -8.88
0 0

0101101
*
Ed
 1e-07 1 1 0
1  60 0 -0.225 4.375
4 C0 16 0 4 0
0

0101000
+319 0 -329 0 *
Ed
 1e-07 1 1 0
1  61 0 2.6 4.6
4 C0 16 0 26 0
0

0101000
+351 0 -319 0 *
Wi

0101100
-327 0 -318 0 -317 0 -350 0 -399 0 -390 0 *
Fa
0  1e-07 16 0

0111000
-320 0 -316 0 *
Ed
 1e-07 1 1 0
1  62 0 0 3.14159265358979
2  68 13 0 0 3.14159265358979
4 C0 13 0 14 0
0

0101000
+418 0 -420 0 *
Wi

0101100
+314 0 -419 0 -369 0 -416 0 *
Fa
0  1e-07 13 0

0111000
+313 0 *
Ve
1e-07
-4.6 0 0
0 0

0101101
*
Ed
 1e-07 1 1 0
1  63 0 4.5325 14.1525
4 C0 25 0 4 0
0

0101000
+311 0 -365 0 *
Ed
 1e-07 1 1 0
1  64 0 -4.6 -2.6
4 C0 25 0 18 0
0

0101000
+311 0 -354 0 *
Wi

0101100
-310 0 +309 0 -353 0 +362 0 *
Fa
0  1e-07 25 0

0111000
+308 0 *
Wi

0101100
-324 0 -407 0 *
Ed
 1e-07 1 1 0
1  65 0 -4.375 0.225
4 C0 18 0 4 0
0

0101000
+331 0 -311 0 *
Wi

0101100
-305 0 -330 0 -389 0 -396 0 -352 0 -309 0 *
Fa
0  1e-07 18 0

0111000
+306 0 +304 0 *
Ve
1e-07
-4.6 0 -18.5
0 0

0101101
*
Ed
 1e-07 1 1 0
1  66 0 -4.7175 4.9025
4 C0 26 0 4 0
0

0101000
+302 0 -319 0 *
Ed
 1e-07 1 1 0
1  67 0 1.57887899799424 3.57887899799424
4 C0 26 0 27 0
0

0101000
+349 0 -302 0 *
Wi

0101100
-348 0 +317 0 -301 0 -300 0 *
Fa
0  1e-07 26 0

0111000
+299 0 *
Ed
 1e-07 1 1 0
1  68 0 3.14159265358979 6.28318530717959
2  69 10 0 3.14159265358979 6.28318530717959
2  70 9 0 3.14159265358979 6.28318530717959
4 C0 10 0 9 0
0

0101000
+439 0 -440 0 *
Wi

0101100
-297 0 -427 0 +358 0 -426 0 *
Fa
0  1e-07 10 0

0111000
+296 0 *
Ed
 1e-07 1 1 0
1  69 0 0 3.14159265358979
2  71 9 0 0 3.14159265358979
4 C0 9 0 4 0
0

0101000
+435 0 -437 0 *
Wi

0101100
+294 0 -436 0 +297 0 -433 0 *
Fa
0  1e-07 9 0

0111000
+293 0 *
Ed
 1e-07 1 1 0
1  70 0 3.14159265358979 6.28318530717959
2  72 6 0 3.14159265358979 6.28318530717959
2  73 3 0 3.14159265358979 6.28318530717959
4 C0 6 0 3 0
0

0101000
+456 0 -457 0 *
Wi

0101100
-291 0 -444 0 +356 0 -443 0 *
Fa
0  1e-07 6 0

0111000
+290 0 *
Ed
 1e-07 1 1 0
1  71 0 0 3.14159265358979
2  74 3 0 0 3.14159265358979
4 C0 3 0 4 0
0

0101000
+452 0 -454 0 *
Wi

0101100
+288 0 -453 0 +291 0 -450 0 *
Fa
0  1e-07 3 0

0111000
+287 0 *
Ve
1e-07
-11.5 0 -18.5
0 0

0101101
*
Ed
 1e-07 1 1 0
1  72 0 -1.5 0.5
2  75 28 0 -1.5 0.5
4 G1 28 0 27 0
0

0101000
+285 0 -347 0 *
Ve
1e-07
-17.5 0 -12.5
0 0

0101101
*
Ed
 1e-07 1 1 0
1  73 0 0 1.5707963267949
2  76 28 0 0 1.5707963267949
4 C0 28 0 4 0
0

0101000
+283 0 -285 0 *
Ed
 1e-07 1 1 0
1  74 0 -1 1
2  77 28 0 -1 1
4 G1 28 0 29 0
0

0101000
+283 0 -345 0 *
Wi

0101100
-344 0 -284 0 -282 0 +281 0 *
Fa
0  1e-07 28 0

0111000
+280 0 *
Ve
1e-07
-17.5 0 12.5
0 0

0101101
*
Ed
 1e-07 1 1 0
1  75 0 6 31
4 C0 29 0 4 0
0

0101000
+283 0 -278 0 *
Ed
 1e-07 1 1 0
1  76 0 -1 1
2  78 30 0 -1 1
4 G1 29 0 30 0
0

0101000
+343 0 -278 0 *
Wi

0101100
-281 0 +277 0 -276 0 -342 0 *
Fa
0  1e-07 29 0

0111000
+275 0 *
Ve
1e-07
-11.5 0 18.5
0 0

0101101
*
Ed
 1e-07 1 1 0
1  77 0 4.71238898038469 6.28318530717959
2  79 30 0 4.71238898038469 6.28318530717959
4 C0 30 0 4 0
0

0101000
+273 0 -278 0 *
Ed
 1e-07 1 1 0
1  78 0 -0.5 1.5
2  80 30 0 -0.5 1.5
4 G1 30 0 14 0
0

0101000
+341 0 -273 0 *
Wi

0101100
-340 0 +276 0 -272 0 -271 0 *
Fa
0  1e-07 30 0

0111000
+270 0 *
Wi

0101100
+314 0 +417 0 *
Ed
 1e-07 1 1 0
1  79 0 -17.5 -6
4 C0 14 0 4 0
0

0101000
+336 0 -273 0 *
Wi

0101100
+271 0 -267 0 -335 0 -372 0 -379 0 -339 0 *
Fa
0  1e-07 14 0

0111000
+268 0 +266 0 *
Ed
 1e-07 1 1 0
1  80 0 6 12.9
4 C0 4 0 27 0
0

0101000
+285 0 -302 0 *
Wi

0101100
+364 0 +334 0 +267 0 +272 0 -277 0 +282 0 +264 0 +301 0 +318 0 +328 0 
+305 0 +310 0 *
Wi

0101100
+294 0 +434 0 *
Wi

0101100
+288 0 +451 0 *
Fa
0  1e-07 4 0

0111000
+263 0 +262 0 +261 0 *
Wi

0101100
+300 0 -264 0 +284 0 +346 0 *
Fa
0  1e-07 27 0

0111000
-259 0 *
Sh

0101100
-448 0 -441 0 -431 0 -424 0 -414 0 -404 0 +394 0 +387 0 +377 0 +370 0 
-359 0 +337 0 +332 0 +325 0 -321 0 -315 0 -312 0 +307 0 +303 0 +298 0 
-295 0 -292 0 -289 0 -286 0 +279 0 +274 0 +269 0 +265 0 +260 0 -258 0 
*
So

0100000
+257 0 *
Ve
1e-07
-4.55 4.55 9.25
0 0

0101101
*
Ve
1e-07
-4.55 4.55 0.370000000000001
0 0

0101101
*
Ed
 1e-07 1 1 0
1  81 0 -4.44 4.44
2  81 31 0 -4.44 4.44
2  82 32 0 -4.44 4.44
4 CN 31 0 32 0
0

0101000
+255 0 -254 0 *
Ve
1e-07
-9.99200722162641e-16 0 0.370000000000001
0 0

0101101
*
Ed
 1e-07 1 1 0
1  82 0 3.14159265358979 4.71238898038469
2  83 31 0 3.14159265358979 4.71238898038469
4 C0 31 0 33 0
0

0101000
+254 0 -252 0 *
Ve
1e-07
0 0 9.25
0 0

0101101
*
Ed
 1e-07 1 1 0
1  83 0 9.25 18.13
2  84 31 0 9.25 18.13
4 G1 31 0 34 0
0

0101000
+250 0 -252 0 *
Ed
 1e-07 1 1 0
1  84 0 1.5707963267949 3.14159265358979
2  85 31 0 1.5707963267949 3.14159265358979
4 C0 31 0 35 0
0

0101000
+250 0 -255 0 *
Wi

0101100
+253 0 +251 0 -249 0 +248 0 *
Fa
0  1e-07 31 0

0111000
+247 0 *
Ve
1e-07
4.55 4.55 0.370000000000001
0 0

0101101
*
Ve
1e-07
4.55 4.55 9.25
0 0

0101101
*
Ed
 1e-07 1 1 0
1  85 0 -4.44 4.44
2  86 32 0 -4.44 4.44
2  87 36 0 -4.44 4.44
4 CN 32 0 36 0
0

0101000
+245 0 -244 0 *
Ed
 1e-07 1 1 0
1  86 0 0 3.14159265358979
2  88 32 0 0 3.14159265358979
4 C0 32 0 33 0
0

0101000
+245 0 -254 0 *
Ed
 1e-07 1 1 0
1  87 0 3.14159265358979 6.28318530717959
2  89 32 0 3.14159265358979 6.28318530717959
4 C0 32 0 35 0
0

0101000
+255 0 -244 0 *
Wi

0101100
-243 0 +242 0 -253 0 +241 0 *
Fa
0  1e-07 32 0

0111000
+240 0 *
Ve
1e-07
-2.52 4.55 0.370000000000001
0 0

0101101
*
Ve
1e-07
2.52 4.55 0.370000000000001
0 0

0101101
*
Ed
 1e-07 1 1 0
1  88 0 3.14159265358979 6.28318530717959
2  90 37 0 3.14159265358979 6.28318530717959
4 C0 37 0 33 0
0

0101000
+238 0 -237 0 *
Ve
1e-07
-2.52 4.55 9.25
0 0

0101101
*
Ed
 1e-07 1 1 0
1  89 0 -4.44 4.44
2  91 37 0 -4.44 4.44
2  92 38 0 -4.44 4.44
4 CN 37 0 38 0
0

0101000
+238 0 -235 0 *
Ve
1e-07
2.52 4.55 9.25
0 0

0101101
*
Ed
 1e-07 1 1 0
1  90 0 0 3.14159265358979
2  93 37 0 0 3.14159265358979
4 C0 37 0 35 0
0

0101000
+233 0 -235 0 *
Ed
 1e-07 1 1 0
1  91 0 -4.44 4.44
2  94 37 0 -4.44 4.44
2  95 38 0 -4.44 4.44
4 CN 37 0 38 0
0

0101000
+233 0 -237 0 *
Wi

0101100
-236 0 +234 0 -232 0 +231 0 *
Fa
0  1e-07 37 0

0111000
+230 0 *
Ve
1e-07
-4.55 4.55 -9.25
0 0

0101101
*
Ve
1e-07
-4.55 4.55 -18.5
0 0

0101101
*
Ed
 1e-07 1 1 0
1  92 0 -9.25 -0
2  96 39 0 -9.25 -0
2  97 40 0 -9.25 -0
4 CN 39 0 40 0
0

0101000
+228 0 -227 0 *
Ve
1e-07
2.2655217545714e-15 0 -18.5
0 0

0101101
*
Ed
 1e-07 1 1 0
1  93 0 0 1.5707963267949
2  98 39 0 0 1.5707963267949
4 C0 39 0 41 0
0

0101000
+227 0 -225 0 *
Ve
1e-07
0 0 -9.25
0 0

0101101
*
Ed
 1e-07 1 1 0
1  94 0 27.75 37
2  99 39 0 27.75 37
4 G1 39 0 34 0
0

0101000
+223 0 -225 0 *
Ed
 1e-07 1 1 0
1  95 0 1.5707963267949 3.14159265358979
2  100 39 0 1.5707963267949 3.14159265358979
4 C0 39 0 42 0
0

0101000
+223 0 -228 0 *
Wi

0101100
+226 0 +224 0 -222 0 +221 0 *
Fa
0  1e-07 39 0

0111000
+220 0 *
Ve
1e-07
4.55 4.55 -18.5
0 0

0101101
*
Ve
1e-07
4.55 4.55 -9.25
0 0

0101101
*
Ed
 1e-07 1 1 0
1  96 0 0 9.25
2  101 40 0 0 9.25
2  102 43 0 0 9.25
4 CN 40 0 43 0
0

0101000
+218 0 -217 0 *
Ed
 1e-07 1 1 0
1  97 0 3.14159265358979 6.28318530717959
2  103 40 0 3.14159265358979 6.28318530717959
4 C0 40 0 41 0
0

0101000
+218 0 -227 0 *
Ed
 1e-07 1 1 0
1  98 0 3.14159265358979 6.28318530717959
2  104 40 0 3.14159265358979 6.28318530717959
4 C0 40 0 42 0
0

0101000
+228 0 -217 0 *
Wi

0101100
-216 0 +215 0 -226 0 +214 0 *
Fa
0  1e-07 40 0

0111000
+213 0 *
Ve
1e-07
2.52 4.55 -18.5
0 0

0101101
*
Ve
1e-07
-2.52 4.55 -18.5
0 0

0101101
*
Ed
 1e-07 1 1 0
1  99 0 3.14159265358979 6.28318530717959
2  105 44 0 3.14159265358979 6.28318530717959
4 C0 44 0 41 0
0

0101000
+211 0 -210 0 *
Ve
1e-07
-2.52 4.55 -9.25
0 0

0101101
*
Ed
 1e-07 1 1 0
1  100 0 -4.625 4.625
2  106 44 0 -4.625 4.625
2  107 45 0 -4.625 4.625
4 CN 44 0 45 0
0

0101000
+210 0 -208 0 *
Ve
1e-07
2.52 4.55 -9.25
0 0

0101101
*
Ed
 1e-07 1 1 0
1  101 0 0 3.14159265358979
2  108 44 0 0 3.14159265358979
4 C0 44 0 42 0
0

0101000
+206 0 -208 0 *
Ed
 1e-07 1 1 0
1  102 0 -4.625 4.625
2  109 44 0 -4.625 4.625
2  110 45 0 -4.625 4.625
4 CN 44 0 45 0
0

0101000
+206 0 -211 0 *
Wi

0101100
+209 0 +207 0 -205 0 +204 0 *
Fa
0  1e-07 44 0

0111000
+203 0 *
Ve
1e-07
7.6 2 -10
0 0

0101101
*
Ve
1e-07
15.4 2 -10
0 0

0101101
*
Ed
 1e-07 1 1 0
1  103 0 0 3.14159265358979
2  111 46 0 0 3.14159265358979
4 C0 46 0 47 0
0

0101000
+201 0 -200 0 *
Ve
1e-07
14.1 0.7 -10
0 0

0101101
*
Ed
 1e-07 1 1 0
1  104 0 -0.919238815542512 0.919238815542512
2  112 46 0 -0.919238815542512 0.919238815542512
2  113 48 0 -0.919238815542512 0.919238815542512
4 CN 46 0 48 0
0

0101000
+200 0 -198 0 *
Ve
1e-07
8.9 0.7 -10
0 0

0101101
*
Ed
 1e-07 1 1 0
1  105 0 0 3.14159265358979
2  114 46 0 0 3.14159265358979
2  115 49 0 0 3.14159265358979
4 C0 46 0 49 0
0

0101000
+196 0 -198 0 *
Ed
 1e-07 1 1 0
1  106 0 -0.919238815542512 0.919238815542512
2  116 46 0 -0.919238815542512 0.919238815542512
2  117 48 0 -0.919238815542512 0.919238815542512
4 CN 46 0 48 0
0

0101000
+196 0 -201 0 *
Wi

0101100
+199 0 +197 0 -195 0 +194 0 *
Fa
0  1e-07 46 0

0111000
+193 0 *
Ve
1e-07
14.1 -1.66533453693773e-16 -10
0 0

0101101
*
Ed
 1e-07 1 1 0
1  107 0 -0.35 0.35
2  118 49 0 -0.35 0.35
2  119 50 0 -0.35 0.35
4 CN 49 0 50 0
0

0101000
+198 0 -191 0 *
Ve
1e-07
8.9 2.22044604925031e-16 -10
0 0

0101101
*
Ed
 1e-07 1 1 0
1  108 0 3.14159265358979 6.28318530717959
2  120 49 0 3.14159265358979 6.28318530717959
4 C0 49 0 34 0
0

0101000
+191 0 -189 0 *
Ed
 1e-07 1 1 0
1  109 0 -0.35 0.35
2  121 49 0 -0.35 0.35
2  122 50 0 -0.35 0.35
4 CN 49 0 50 0
0

0101000
+189 0 -196 0 *
Wi

0101100
+195 0 +190 0 +188 0 +187 0 *
Fa
0  1e-07 49 0

0111000
+186 0 *
Ve
1e-07
7.6 2 12.5
0 0

0101101
*
Ve
1e-07
15.4 2 12.5
0 0

0101101
*
Ed
 1e-07 1 1 0
1  110 0 0 3.14159265358979
2  123 51 0 0 3.14159265358979
4 C0 51 0 47 0
0

0101000
+184 0 -183 0 *
Ve
1e-07
14.1 0.7 12.5
0 0

0101101
*
Ed
 1e-07 1 1 0
1  111 0 -0.919238815542512 0.919238815542512
2  124 51 0 -0.919238815542512 0.919238815542512
2  125 52 0 -0.919238815542512 0.919238815542512
4 CN 51 0 52 0
0

0101000
+183 0 -181 0 *
Ve
1e-07
8.9 0.7 12.5
0 0

0101101
*
Ed
 1e-07 1 1 0
1  112 0 0 3.14159265358979
2  126 51 0 0 3.14159265358979
2  127 53 0 0 3.14159265358979
4 C0 51 0 53 0
0

0101000
+179 0 -181 0 *
Ed
 1e-07 1 1 0
1  113 0 -0.919238815542512 0.919238815542512
2  128 51 0 -0.919238815542512 0.919238815542512
2  129 52 0 -0.919238815542512 0.919238815542512
4 CN 51 0 52 0
0

0101000
+179 0 -184 0 *
Wi

0101100
+182 0 +180 0 -178 0 +177 0 *
Fa
0  1e-07 51 0

0111000
+176 0 *
Ve
1e-07
14.1 -1.66533453693773e-16 12.5
0 0

0101101
*
Ed
 1e-07 1 1 0
1  114 0 -0.35 0.35
2  130 53 0 -0.35 0.35
2  131 54 0 -0.35 0.35
4 CN 53 0 54 0
0

0101000
+181 0 -174 0 *
Ve
1e-07
8.9 2.22044604925031e-16 12.5
0 0

0101101
*
Ed
 1e-07 1 1 0
1  115 0 3.14159265358979 6.28318530717959
2  132 53 0 3.14159265358979 6.28318530717959
4 C0 53 0 34 0
0

0101000
+174 0 -172 0 *
Ed
 1e-07 1 1 0
1  116 0 -0.35 0.35
2  133 53 0 -0.35 0.35
2  134 54 0 -0.35 0.35
4 CN 53 0 54 0
0

0101000
+172 0 -179 0 *
Wi

0101100
+178 0 +173 0 +171 0 +170 0 *
Fa
0  1e-07 53 0

0111000
+169 0 *
Ve
1e-07
4.6 2 18.5
0 0

0101101
*
Ve
1e-07
4.6 0 18.5
0 0

0101101
*
Ed
 1e-07 1 1 0
1  117 0 1.57887899799424 3.57887899799424
4 C0 55 0 56 0
0

0101000
+167 0 -166 0 *
Ve
1e-07
11.5 0 18.5
0 0

0101101
*
Ed
 1e-07 1 1 0
1  118 0 6 12.9
4 C0 55 0 34 0
0

0101000
+164 0 -166 0 *
Ve
1e-07
11.5 2 18.5
0 0

0101101
*
Ed
 1e-07 1 1 0
1  119 0 -1.5 0.5
2  135 57 0 -1.5 0.5
4 G1 55 0 57 0
0

0101000
+164 0 -162 0 *
Ed
 1e-07 1 1 0
1  120 0 6 12.9
4 C0 55 0 47 0
0

0101000
+162 0 -167 0 *
Wi

0101100
+165 0 -163 0 +161 0 +160 0 *
Fa
0  1e-07 55 0

0111000
-159 0 *
Ed
 1e-07 1 1 0
1  121 0 0 3.14159265358979
2  136 45 0 0 3.14159265358979
4 C0 41 0 45 0
0

0101000
+210 0 -211 0 *
Wi

0101100
+157 0 +209 0 *
Ve
1e-07
11.5 2 -18.5
0 0

0101101
*
Ve
1e-07
11.5 0 -18.5
0 0

0101101
*
Ed
 1e-07 1 1 0
1  122 0 -0.5 1.5
2  137 58 0 -0.5 1.5
4 G1 41 0 58 0
0

0101000
+155 0 -154 0 *
Ed
 1e-07 1 1 0
1  123 0 -17.5 -6
4 C0 41 0 34 0
0

0101000
+225 0 -154 0 *
Ve
1e-07
3.76828873628335 2 -18.5
0 0

0101101
*
Ed
 1e-07 1 1 0
1  124 0 2.546676203947 3.14159265358979
2  138 43 0 2.546676203947 3.14159265358979
4 C0 41 0 43 0
0

0101000
+151 0 -218 0 *
Ed
 1e-07 1 1 0
1  125 0 6 13.7317112637167
4 C0 41 0 47 0
0

0101000
+155 0 -151 0 *
Wi

0101100
+153 0 -152 0 -224 0 -215 0 -150 0 -149 0 *
Fa
0  1e-07 41 0

0111000
+156 0 +148 0 *
Ve
1e-07
17.5 2 -12.5
0 0

0101101
*
Ed
 1e-07 1 1 0
1  126 0 0 1.5707963267949
2  139 58 0 0 1.5707963267949
4 C0 58 0 47 0
0

0101000
+146 0 -155 0 *
Ve
1e-07
17.5 0 -12.5
0 0

0101101
*
Ed
 1e-07 1 1 0
1  127 0 -1 1
2  140 58 0 -1 1
4 G1 58 0 59 0
0

0101000
+146 0 -144 0 *
Ed
 1e-07 1 1 0
1  128 0 4.71238898038469 6.28318530717959
2  141 58 0 4.71238898038469 6.28318530717959
4 C0 58 0 34 0
0

0101000
+154 0 -144 0 *
Wi

0101100
-145 0 +143 0 -142 0 -153 0 *
Fa
0  1e-07 58 0

0111000
+141 0 *
Ve
1e-07
17.5 0 12.5
0 0

0101101
*
Ve
1e-07
17.5 2 12.5
0 0

0101101
*
Ed
 1e-07 1 1 0
1  129 0 -1 1
2  142 57 0 -1 1
4 G1 59 0 57 0
0

0101000
+139 0 -138 0 *
Ed
 1e-07 1 1 0
1  130 0 6 31
4 C0 59 0 34 0
0

0101000
+139 0 -144 0 *
Ed
 1e-07 1 1 0
1  131 0 6 31
4 C0 59 0 47 0
0

0101000
+138 0 -146 0 *
Wi

0101100
-137 0 +136 0 -143 0 -135 0 *
Fa
0  1e-07 59 0

0111000
+134 0 *
Ed
 1e-07 1 1 0
1  132 0 4.71238898038469 6.28318530717959
2  143 57 0 4.71238898038469 6.28318530717959
4 C0 57 0 47 0
0

0101000
+162 0 -138 0 *
Ed
 1e-07 1 1 0
1  133 0 0 1.5707963267949
2  144 57 0 0 1.5707963267949
4 C0 57 0 34 0
0

0101000
+139 0 -164 0 *
Wi

0101100
-132 0 -161 0 -131 0 +137 0 *
Fa
0  1e-07 57 0

0111000
+130 0 *
Ed
 1e-07 1 1 0
1  134 0 0 3.14159265358979
2  145 54 0 0 3.14159265358979
4 C0 54 0 34 0
0

0101000
+172 0 -174 0 *
Ed
 1e-07 1 1 0
1  135 0 3.14159265358979 6.28318530717959
2  146 54 0 3.14159265358979 6.28318530717959
2  147 52 0 3.14159265358979 6.28318530717959
4 C0 54 0 52 0
0

0101000
+181 0 -179 0 *
Wi

0101100
+128 0 -173 0 +127 0 -170 0 *
Fa
0  1e-07 54 0

0111000
+126 0 *
Ed
 1e-07 1 1 0
1  136 0 3.14159265358979 6.28318530717959
2  148 52 0 3.14159265358979 6.28318530717959
4 C0 52 0 47 0
0

0101000
+183 0 -184 0 *
Wi

0101100
-127 0 -180 0 +124 0 -177 0 *
Fa
0  1e-07 52 0

0111000
+123 0 *
Ed
 1e-07 1 1 0
1  137 0 0 3.14159265358979
2  149 50 0 0 3.14159265358979
4 C0 50 0 34 0
0

0101000
+189 0 -191 0 *
Ed
 1e-07 1 1 0
1  138 0 3.14159265358979 6.28318530717959
2  150 50 0 3.14159265358979 6.28318530717959
2  151 48 0 3.14159265358979 6.28318530717959
4 C0 50 0 48 0
0

0101000
+198 0 -196 0 *
Wi

0101100
+121 0 -190 0 +120 0 -187 0 *
Fa
0  1e-07 50 0

0111000
+119 0 *
Ed
 1e-07 1 1 0
1  139 0 3.14159265358979 6.28318530717959
2  152 48 0 3.14159265358979 6.28318530717959
4 C0 48 0 47 0
0

0101000
+200 0 -201 0 *
Wi

0101100
-120 0 -197 0 +117 0 -194 0 *
Fa
0  1e-07 48 0

0111000
+116 0 *
Ve
1e-07
4.6 2 9.25
0 0

0101101
*
Ed
 1e-07 1 1 0
1  140 0 -6.9375 2.3125
4 C0 56 0 47 0
0

0101000
+114 0 -167 0 *
Ve
1e-07
4.6 0 9.25
0 0

0101101
*
Ed
 1e-07 1 1 0
1  141 0 2.6 4.6
4 C0 56 0 35 0
0

0101000
+114 0 -112 0 *
Ed
 1e-07 1 1 0
1  142 0 -2.3125 6.9375
4 C0 56 0 34 0
0

0101000
+166 0 -112 0 *
Wi

0101100
-113 0 +111 0 -110 0 -165 0 *
Fa
0  1e-07 56 0

0111000
+109 0 *
Ve
1e-07
4.6 2 0.370000000000001
0 0

0101101
*
Ve
1e-07
3.76828873628335 2 0.370000000000001
0 0

0101101
*
Ed
 1e-07 1 1 0
1  143 0 0.71707218407084 1.54878344778749
4 C0 47 0 33 0
0

0101000
+107 0 -106 0 *
Ve
1e-07
3.76828873628335 2 9.25
0 0

0101101
*
Ed
 1e-07 1 1 0
1  144 0 9.25 18.13
2  153 36 0 9.25 18.13
4 C0 47 0 36 0
0

0101000
+104 0 -106 0 *
Ed
 1e-07 1 1 0
1  145 0 -1.54878344778749 -0.71707218407084
4 C0 47 0 35 0
0

0101000
+104 0 -114 0 *
Ve
1e-07
3.76828873628335 2 -9.25
0 0

0101101
*
Ed
 1e-07 1 1 0
1  146 0 27.75 37
2  154 43 0 27.75 37
4 C0 47 0 43 0
0

0101000
+101 0 -151 0 *
Ve
1e-07
4.6 2 -9.25
0 0

0101101
*
Ed
 1e-07 1 1 0
1  147 0 -1.54878344778749 -0.71707218407084
4 C0 47 0 42 0
0

0101000
+101 0 -99 0 *
Ed
 1e-07 1 1 0
1  148 0 -18.5925 -8.9725
4 C0 47 0 60 0
0

0101000
+99 0 -107 0 *
Wi

0101100
+105 0 -103 0 +102 0 +113 0 -160 0 +132 0 +135 0 +145 0 +149 0 -100 0 
+98 0 +97 0 *
Wi

0101100
+199 0 +117 0 *
Wi

0101100
+182 0 +124 0 *
Fa
0  1e-07 47 0

0111000
+96 0 +95 0 +94 0 *
Ve
1e-07
4.6 0 -9.25
0 0

0101101
*
Ed
 1e-07 1 1 0
1  149 0 2.6 4.6
4 C0 60 0 42 0
0

0101000
+99 0 -92 0 *
Ve
1e-07
4.6 0 0.370000000000001
0 0

0101101
*
Ed
 1e-07 1 1 0
1  150 0 8.9725 18.5925
4 C0 60 0 34 0
0

0101000
+90 0 -92 0 *
Ed
 1e-07 1 1 0
1  151 0 -4.6 -2.6
4 C0 60 0 33 0
0

0101000
+90 0 -107 0 *
Wi

0101100
-97 0 +91 0 -89 0 +88 0 *
Fa
0  1e-07 60 0

0111000
+87 0 *
Ed
 1e-07 1 1 0
1  152 0 3.14159265358979 6.28318530717959
2  155 38 0 3.14159265358979 6.28318530717959
4 C0 35 0 38 0
0

0101000
+235 0 -233 0 *
Wi

0101100
-85 0 -232 0 *
Ed
 1e-07 1 1 0
1  153 0 0 0.594916449642788
2  156 36 0 0 0.594916449642788
4 C0 35 0 36 0
0

0101000
+244 0 -104 0 *
Ed
 1e-07 1 1 0
1  154 0 -0.225 4.375
4 C0 35 0 34 0
0

0101000
+112 0 -250 0 *
Wi

0101100
-102 0 -83 0 -241 0 -248 0 -82 0 -111 0 *
Fa
0  1e-07 35 0

0111000
-84 0 -81 0 *
Ed
 1e-07 1 1 0
1  155 0 3.14159265358979 6.28318530717959
2  157 45 0 3.14159265358979 6.28318530717959
4 C0 42 0 45 0
0

0101000
+208 0 -206 0 *
Wi

0101100
-79 0 -205 0 *
Ed
 1e-07 1 1 0
1  156 0 0 0.594916449642788
2  158 43 0 0 0.594916449642788
4 C0 42 0 43 0
0

0101000
+217 0 -101 0 *
Ed
 1e-07 1 1 0
1  157 0 -0.225 4.375
4 C0 42 0 34 0
0

0101000
+92 0 -223 0 *
Wi

0101100
-98 0 -77 0 -214 0 -221 0 -76 0 -91 0 *
Fa
0  1e-07 42 0

0111000
-78 0 -75 0 *
Wi

0101100
-79 0 -207 0 +157 0 -204 0 *
Fa
0  1e-07 45 0

0111000
+73 0 *
Wi

0101100
+216 0 +77 0 +100 0 +150 0 *
Fa
0  1e-07 43 0

0111000
+71 0 *
Wi

0101100
+128 0 +171 0 *
Wi

0101100
+121 0 +188 0 *
Ed
 1e-07 1 1 0
1  158 0 -4.375 0.225
4 C0 34 0 33 0
0

0101000
+252 0 -90 0 *
Wi

0101100
+67 0 +89 0 +76 0 +222 0 +152 0 +142 0 -136 0 +131 0 +163 0 +110 0 
+82 0 +249 0 *
Fa
0  1e-07 34 0

0111000
+69 0 +68 0 +66 0 *
Ed
 1e-07 1 1 0
1  159 0 0 3.14159265358979
2  159 38 0 0 3.14159265358979
4 C0 33 0 38 0
0

0101000
+237 0 -238 0 *
Wi

0101100
-236 0 -64 0 *
Ed
 1e-07 1 1 0
1  160 0 5.6882688575368 6.28318530717959
2  160 36 0 5.6882688575368 6.28318530717959
4 C0 33 0 36 0
0

0101000
+106 0 -245 0 *
Wi

0101100
-62 0 -105 0 -88 0 -67 0 -251 0 -242 0 *
Fa
0  1e-07 33 0

0111000
-63 0 -61 0 *
Wi

0101100
-85 0 -234 0 -64 0 -231 0 *
Fa
0  1e-07 38 0

0111000
+59 0 *
Wi

0101100
+243 0 +83 0 +103 0 +62 0 *
Fa
0  1e-07 36 0

0111000
+57 0 *
Sh

0101100
+246 0 +239 0 -229 0 +219 0 +212 0 -202 0 -192 0 -185 0 -175 0 -168 0 
-158 0 +147 0 +140 0 +133 0 +129 0 -125 0 -122 0 -118 0 -115 0 +108 0 
+93 0 +86 0 -80 0 -74 0 -72 0 +70 0 +65 0 -60 0 -58 0 +56 0 
*
So

0100000
+55 0 *
Ve
1e-07
2.5 4.5 -18.7
0 0

0101101
*
Ve
1e-07
2.5 4.5 18.7
0 0

0101101
*
Ed
 1e-07 1 1 0
1  161 0 -18.7 18.7
2  161 61 0 -18.7 18.7
2  162 62 0 -18.7 18.7
4 CN 61 0 62 0
0

0101000
+53 0 -52 0 *
Ve
1e-07
-3.06151588455594e-16 7 -18.7
0 0

0101101
*
Ed
 1e-07 1 1 0
1  162 0 0 1.5707963267949
2  163 61 0 0 1.5707963267949
2  164 63 0 0 1.5707963267949
4 G1 61 0 63 0
0

0101000
+53 0 -50 0 *
Ve
1e-07
-2.5 4.5 -18.7
0 0

0101101
*
Ed
 1e-07 1 1 0
1  163 0 1.5707963267949 3.14159265358979
2  165 61 0 1.5707963267949 3.14159265358979
2  166 64 0 1.5707963267949 3.14159265358979
4 G1 61 0 64 0
0

0101000
+50 0 -48 0 *
Ve
1e-07
-2.5 4.5 18.7
0 0

0101101
*
Ed
 1e-07 1 1 0
1  164 0 -18.7 18.7
2  167 61 0 -18.7 18.7
2  168 62 0 -18.7 18.7
4 CN 61 0 62 0
0

0101000
+46 0 -48 0 *
Ve
1e-07
3.06151588455594e-16 7 18.7
0 0

0101101
*
Ed
 1e-07 1 1 0
1  165 0 1.5707963267949 3.14159265358979
2  169 61 0 1.5707963267949 3.14159265358979
2  170 65 0 1.5707963267949 3.14159265358979
4 G1 61 0 65 0
0

0101000
+44 0 -46 0 *
Ed
 1e-07 1 1 0
1  166 0 0 1.5707963267949
2  171 61 0 0 1.5707963267949
2  172 66 0 0 1.5707963267949
4 G1 61 0 66 0
0

0101000
+52 0 -44 0 *
Wi

0101100
-51 0 +49 0 +47 0 -45 0 -43 0 -42 0 *
Fa
0  1e-07 61 0

0111000
+41 0 *
Ve
1e-07
8.57224447675664e-17 5.2 20.5
0 0

0101101
*
Ed
 1e-07 1 1 0
1  167 0 0 1.5707963267949
2  173 65 0 0 1.5707963267949
2  174 66 0 0 1.5707963267949
4 CN 65 0 66 0
0

0101000
+44 0 -39 0 *
Ve
1e-07
-3.06151588455594e-16 2 18.7
0 0

0101101
*
Ed
 1e-07 1 1 0
1  168 0 3.14159265358979 4.71238898038469
2  175 65 0 3.14159265358979 4.71238898038469
2  176 62 0 3.14159265358979 4.71238898038469
4 G1 65 0 62 0
0

0101000
+46 0 -37 0 *
Ve
1e-07
-8.57224447675664e-17 3.8 20.5
0 0

0101101
*
Ed
 1e-07 1 1 0
1  169 0 4.71238898038469 6.28318530717959
2  177 65 0 4.71238898038469 6.28318530717959
2  178 66 0 4.71238898038469 6.28318530717959
4 CN 65 0 66 0
0

0101000
+35 0 -37 0 *
Ed
 1e-07 1 1 0
1  170 0 1.5707963267949 4.71238898038469
2  179 65 0 1.5707963267949 4.71238898038469
4 G1 65 0 67 0
0

0101000
+39 0 -35 0 *
Wi

0101100
-38 0 +43 0 +36 0 -34 0 -33 0 *
Fa
0  1e-07 65 0

0111000
+32 0 *
Ve
1e-07
3.06151588455594e-16 2 -18.7
0 0

0101101
*
Ve
1e-07
8.57224447675663e-17 3.8 -20.5
0 0

0101101
*
Ed
 1e-07 1 1 0
1  171 0 0 1.5707963267949
2  180 64 0 0 1.5707963267949
2  181 63 0 0 1.5707963267949
4 CN 64 0 63 0
0

0101000
+30 0 -29 0 *
Ed
 1e-07 1 1 0
1  172 0 3.14159265358979 4.71238898038469
2  182 64 0 3.14159265358979 4.71238898038469
2  183 62 0 3.14159265358979 4.71238898038469
4 G1 64 0 62 0
0

0101000
+48 0 -30 0 *
Ve
1e-07
-8.57224447675665e-17 5.2 -20.5
0 0

0101101
*
Ed
 1e-07 1 1 0
1  173 0 4.71238898038469 6.28318530717959
2  184 64 0 4.71238898038469 6.28318530717959
2  185 63 0 4.71238898038469 6.28318530717959
4 CN 64 0 63 0
0

0101000
+26 0 -50 0 *
Ed
 1e-07 1 1 0
1  174 0 1.5707963267949 4.71238898038469
2  186 64 0 1.5707963267949 4.71238898038469
4 G1 64 0 68 0
0

0101000
+29 0 -26 0 *
Wi

0101100
-28 0 -27 0 -47 0 -25 0 -24 0 *
Fa
0  1e-07 64 0

0111000
+23 0 *
Ve
1e-07
0.7 4.5 -20.5
0 0

0101101
*
Ed
 1e-07 1 1 0
1  175 0 0 1.5707963267949
2  187 63 0 0 1.5707963267949
4 G1 63 0 68 0
0

0101000
+21 0 -29 0 *
Ed
 1e-07 1 1 0
1  176 0 4.71238898038469 6.28318530717959
2  188 63 0 4.71238898038469 6.28318530717959
4 G1 63 0 68 0
0

0101000
+26 0 -21 0 *
Ed
 1e-07 1 1 0
1  177 0 4.71238898038469 6.28318530717959
2  189 63 0 4.71238898038469 6.28318530717959
2  190 62 0 4.71238898038469 6.28318530717959
4 G1 63 0 62 0
0

0101000
+30 0 -53 0 *
Wi

0101100
+28 0 -20 0 -19 0 +25 0 -49 0 -18 0 *
Fa
0  1e-07 63 0

0111000
+17 0 *
Ve
1e-07
0.7 4.5 20.5
0 0

0101101
*
Ed
 1e-07 1 1 0
1  178 0 0 1.5707963267949
2  191 66 0 0 1.5707963267949
4 G1 66 0 67 0
0

0101000
+15 0 -39 0 *
Ed
 1e-07 1 1 0
1  179 0 4.71238898038469 6.28318530717959
2  192 66 0 4.71238898038469 6.28318530717959
4 G1 66 0 67 0
0

0101000
+35 0 -15 0 *
Ed
 1e-07 1 1 0
1  180 0 4.71238898038469 6.28318530717959
2  193 66 0 4.71238898038469 6.28318530717959
2  194 62 0 4.71238898038469 6.28318530717959
4 G1 66 0 62 0
0

0101000
+37 0 -52 0 *
Wi

0101100
+38 0 -14 0 -13 0 +34 0 +12 0 +42 0 *
Fa
0  1e-07 66 0

0111000
+11 0 *
Wi

0101100
+51 0 -12 0 -36 0 +45 0 +27 0 +18 0 *
Fa
0  1e-07 62 0

0111000
+9 0 *
Wi

0101100
+20 0 +24 0 +19 0 *
Fa
0  1e-07 68 0

0111000
+7 0 *
Wi

0101100
+14 0 +33 0 +13 0 *
Fa
0  1e-07 67 0

0111000
+5 0 *
Sh

0101100
+40 0 +31 0 +22 0 +16 0 +10 0 +8 0 +6 0 +4 0 *
So

0100000
+3 0 *
Co

1100000
+256 0 +54 0 +2 0 *

+1 0 