DBRep_DrawableShape

CASCADE Topology V1, (c) Matra-Datavision
Locations 0
Curve2ds 120
1 0 -0.80360576923070459 1 -1.611481038608182e-14 
1 3.1415926535897931 0 0 1 
1 3.1415926535897931 0 0 1 
1 6.2831853071795862 0.69639423076919016 -1 0 
1 0 0 0 -1 
1 6.2831853071795862 0 0 -1 
1 0 -0.80360576923070459 1 -1.611481038608182e-14 
1 3.1415926535897931 0 0 1 
1 3.1415926535897931 0 0 1 
1 6.2831853071795862 0.69639423076919016 -1 0 
1 0 0 0 -1 
1 6.2831853071795862 0 0 -1 
1 3.1415926535897931 21.975000000000001 0 -1 
1 3.1415926535897931 21.975000000000001 0 -1 
1 0 18.949999999999999 1 0 
1 3.6929096227217535 0 0 1 
1 6.2831853071795862 25 -1 0 
1 0 21.974999999999998 0 1 
1 6.2831853071795862 21.974999999999998 0 1 
1 0 18.949999999999999 1 0 
1 6.2831853071795862 25 -1 0 
1 6.2831853071795862 6.4500000000000002 -1 0 
1 3.1415926535897931 9.4749999999999996 0 1 
1 3.1415926535897931 9.4749999999999996 0 1 
1 6.2831853071795862 12.5 -1 0 
1 0 9.4749999999999996 0 -1 
1 6.2831853071795862 9.4749999999999996 0 -1 
1 6.2831853071795862 -6.0499999999999998 -1 0 
1 3.1415926535897931 0 0 1 
1 3.1415926535897931 0 0 1 
1 6.2831853071795862 0 -1 0 
1 0 0 0 -1 
1 6.2831853071795862 0 0 -1 
1 3.1415926535897931 9.4749999999999996 0 -1 
1 3.1415926535897931 9.4749999999999996 0 -1 
1 0 6.4500000000000002 1 0 
1 3.6929096227217535 0 0 1 
1 6.2831853071795862 12.5 -1 0 
1 0 9.4749999999999996 0 1 
1 6.2831853071795862 9.4749999999999996 0 1 
1 0 6.4500000000000002 1 0 
1 6.2831853071795862 12.5 -1 0 
1 6.2831853071795862 -6.0499999999999998 -1 0 
1 0 6.4500000000000002 1 0 
1 6.2831853071795862 12.5 -1 0 
1 4.7123889803846897 0 0 1 
1 0 -0.80360576923080584 1 1.611481038608182e-14 
1 0 -0.80360576923080584 1 1.611481038608182e-14 
1 6.2831853071795862 6.4500000000000002 -1 0 
1 0 18.949999999999999 1 0 
1 6.2831853071795862 0 -1 0 
1 6.2831853071795862 12.5 -1 0 
1 6.2831853071795862 25 -1 0 
1 4.7123889803846897 0 0 1 
1 6.2831853071795862 0.69639423076919016 -1 0 
1 6.2831853071795862 0.69639423076919016 -1 0 
1 0 -0.80360576923070459 1 -1.611481038608182e-14 
1 3.1415926535897927 0 0 1 
1 3.1415926535897927 0 0 1 
1 6.2831853071795862 0.69639423076919016 -1 0 
1 0 0 0 -1 
1 6.2831853071795862 0 0 -1 
1 0 -0.80360576923070459 1 -1.611481038608182e-14 
1 3.1415926535897927 0 0 1 
1 3.1415926535897927 0 0 1 
1 6.2831853071795862 0.69639423076919016 -1 0 
1 0 0 0 -1 
1 6.2831853071795862 0 0 -1 
1 3.1415926535897931 21.875 0 -1 
1 3.1415926535897931 21.875 0 -1 
1 0 18.75 1 0 
1 3.692909622721753 0 0 1 
1 6.2831853071795862 25 -1 0 
1 0 21.875 0 1 
1 6.2831853071795862 21.875 0 1 
1 0 18.75 1 0 
1 6.2831853071795862 25 -1 0 
1 3.1415926535897931 9.2749999999999986 0 -1 
1 3.1415926535897931 9.2749999999999986 0 -1 
1 0 6.25 1 0 
1 3.692909622721753 0 0 1 
1 6.2831853071795862 12.300000000000001 -1 0 
1 0 9.2750000000000004 0 1 
1 6.2831853071795862 9.2750000000000004 0 1 
1 0 6.25 1 0 
1 6.2831853071795862 12.300000000000001 -1 0 
1 0 6.25 1 0 
1 3.1415926535897931 9.375 0 1 
1 3.1415926535897931 9.375 0 1 
1 6.2831853071795862 12.5 -1 0 
1 0 9.375 0 -1 
1 6.2831853071795862 9.375 0 -1 
1 0 -6.25 1 0 
1 3.1415926535897931 -3.2250000000000001 0 1 
1 3.1415926535897931 -3.2250000000000001 0 1 
1 0 -0.20000000000000021 1 1.2368823761247011e-16 
1 0 -3.2250000000000001 0 -1 
1 6.2831853071795862 -3.2250000000000001 0 -1 
1 0 -0.19999999999999943 1 -1.2368823761247011e-16 
1 6.2831853071795862 12.300000000000001 -1 0 
1 6.2831853071795862 0.69639423076919016 -1 0 
1 6.2831853071795862 0.69639423076919016 -1 0 
1 4.7123889803846897 0 0 1 
1 4.7123889803846897 0 0 1 
1 0 -6.25 1 0 
1 6.2831853071795862 12.5 -1 0 
1 0 6.25 1 0 
1 0 18.75 1 0 
1 0 -0.80360576923080584 1 1.6114810386081817e-14 
1 0 -0.80360576923080584 1 1.6114810386081817e-14 
1 0 6.25 1 0 
1 6.2831853071795862 25 -1 0 
1 0 0 0 1 
1 6.2831853071795862 0 0 1 
1 6.2831853071795862 -12.5 -1 0 
1 3.1415926535897931 0 0 -1 
1 3.1415926535897931 0 0 -1 
1 0 12.5 1 0 
1 0 12.5 1 0 
1 6.2831853071795862 -12.5 -1 0 
Curves 138
2 -10 -1.6963942307692701 -6.5 -1.4940014471541399e-14 -1 0 1 -1.4940014471541399e-14 0 0 0 1 1.7
1 -11.699999999999999 -2.5 -6.5 -0 -1 0 
2 -10 -3.1963942307691902 -6.5 -0 1 0 1 0 0 0 0 -1 1.7
1 -8.3000000000000007 -2.5 -6.5 -0 1 -0 
2 -10 -1.6963942307692701 6.5 -1.4940014471541399e-14 -1 0 1 -1.4940014471541399e-14 0 0 0 1 1.7
1 -11.699999999999999 -2.5 6.5 -0 -1 0 
2 -10 -3.1963942307691902 6.5 -0 1 0 1 0 0 0 0 -1 1.7
1 -8.3000000000000007 -2.5 6.5 -0 1 -0 
1 -3.1517860352265599 -0.046394230769180499 9.4749999999999996 -0 -0 -1 
2 -0.00178603522655862 -0.046394230769180901 6.4500000000000002 0 0 1 1 0 -0 -0 1 0 3.1499999999999999
1 -2.6850676082261802 -1.69639423076939 -12.5 0 0 1 
2 -0.00178603522655862 -0.046394230769180901 12.5 0 0 -1 1 0 0 0 -1 0 3.1499999999999999
1 3.14821396477344 -0.046394230769181297 9.4749999999999996 0 0 1 
2 -0.00178603522655862 -0.046394230769180901 6.4500000000000002 0 0 1 1 0 -0 -0 1 0 3.1499999999999999
2 -0.00178603522655862 -0.046394230769180901 12.5 0 0 -1 1 0 0 0 -1 0 3.1499999999999999
2 0 0 6.4500000000000002 0 0 -1 1 0 0 0 -1 0 1.55
1 -1.55 1.89813984842468e-16 9.4749999999999996 -0 0 1 
2 0 0 12.5 0 0 -1 1 0 0 0 -1 0 1.55
1 1.55 -1.89813984842468e-16 9.4749999999999996 -0 0 -1 
2 0 0 -6.0499999999999998 0 0 -1 1 0 0 0 -1 0 1.55
1 -1.55 1.89813984842468e-16 0 -0 0 1 
2 0 0 0 0 0 -1 1 0 0 0 -1 0 1.55
1 1.55 -1.89813984842468e-16 0 -0 0 -1 
1 -3.1517860352265599 -0.046394230769180499 -3.0249999999999999 -0 -0 -1 
2 -0.00178603522655862 -0.046394230769180901 -6.0499999999999998 0 0 1 1 0 -0 -0 1 0 3.1499999999999999
1 -2.6850676082261802 -1.69639423076939 -12.5 0 0 1 
2 -0.00178603522655862 -0.046394230769180901 0 0 0 -1 1 0 0 0 -1 0 3.1499999999999999
1 3.14821396477344 -0.046394230769181297 -3.0249999999999999 0 0 1 
2 -0.00178603522655862 -0.046394230769180901 -6.0499999999999998 0 0 1 1 0 -0 -0 1 0 3.1499999999999999
2 -0.00178603522655862 -0.046394230769180901 0 0 0 -1 1 0 0 0 -1 0 3.1499999999999999
2 0 0 -6.0499999999999998 0 0 -1 1 0 0 0 -1 0 1.55
1 -4.0008930176132802 -3.1963942307691902 -6.0499999999999998 1 0 -0 
1 -3.2000000000000002 0 -6.0499999999999998 0 -1 0 
1 -4.6717134108631999 -1.69639423076934 -6.0499999999999998 -1 1.4940014471541399e-14 0 
2 -0.00178603522655862 -0.046394230769180901 -6.0499999999999998 0 0 1 1 0 -0 -0 1 0 3.1499999999999999
2 -0.00178603522655862 -0.046394230769180901 0 0 0 -1 1 0 0 0 -1 0 3.1499999999999999
1 -0.00178603522655862 -3.1963942307691902 -12.5 0 0 1 
2 -10 -1.6963942307692701 6.5 -1.4940014471541399e-14 -1 0 1 -1.4940014471541399e-14 0 0 0 1 1.7
2 -10 -1.6963942307692701 -6.5 -1.4940014471541399e-14 -1 0 1 -1.4940014471541399e-14 0 0 0 1 1.7
1 -3.2000000000000002 -1.69639423076936 -9.3249999999999993 0 0 -1 
1 -16.001786035226601 -1.6963942307691899 -12.5 1 -1.4940014471541399e-14 0 
1 -16.001786035226601 -1.6963942307691899 -12.5 0 0 1 
1 -16.001786035226601 -1.6963942307691899 12.5 1 -1.4940014471541399e-14 0 
1 -4.6717134108631999 -1.69639423076934 6.4500000000000002 -1 1.4940014471541399e-14 0 
1 -3.2000000000000002 -1.69639423076936 -3.0750000000000002 0 0 -1 
1 -4.6717134108631999 -1.69639423076934 0 1 -1.4940014471541399e-14 0 
2 0 0 6.4500000000000002 0 0 -1 1 0 0 0 -1 0 1.55
2 -0.00178603522655862 -0.046394230769180901 6.4500000000000002 0 0 1 1 0 -0 -0 1 0 3.1499999999999999
1 -4.0008930176132802 -3.1963942307691902 6.4500000000000002 1 0 -0 
1 -3.2000000000000002 0 6.4500000000000002 0 -1 0 
2 0 0 0 0 0 -1 1 0 0 0 -1 0 1.55
2 0 0 12.5 0 0 -1 1 0 0 0 -1 0 1.55
1 -4.0008930176132802 -3.1963942307691902 0 -1 0 0 
1 -3.2000000000000002 0 0 0 1 0 
1 -3.2000000000000002 -3.1963942307691902 -3.0750000000000002 -0 0 1 
2 -0.00178603522655862 -0.046394230769180901 12.5 0 0 -1 1 0 0 0 -1 0 3.1499999999999999
1 -0.00178603522655862 -3.1963942307691902 -12.5 0 0 1 
1 -3.2000000000000002 -3.1963942307691902 -9.3249999999999993 -0 0 1 
1 -3.2000000000000002 -0.78362378586062698 -12.5 0 -1 0 
2 -10 -3.1963942307691902 6.5 -0 1 0 1 0 0 0 0 -1 1.7
2 -10 -3.1963942307691902 -6.5 -0 1 0 1 0 0 0 0 -1 1.7
1 -16.001786035226601 -3.1963942307691902 12.5 0 1 0 
1 -16.001786035226601 -3.1963942307691902 -12.5 0 1 0 
1 -16.001786035226601 -3.1963942307691902 -12.5 0 0 1 
1 -16.001786035226601 -3.1963942307691902 12.5 -1 -0 -0 
1 -16.001786035226601 -3.1963942307691902 -12.5 1 0 0 
2 10 -1.6963942307692701 6.5 1.4940014471541399e-14 -1 1.8295636648047899e-30 -1 -1.4940014471541399e-14 -1.22460635382238e-16 1.22460635382238e-16 3.5032461608120427e-46 -1 1.7
1 11.699999999999999 -2.5 6.5 0 -1 -0 
2 10 -3.1963942307691902 6.5 0 1 0 -1 0 -1.22460635382238e-16 -1.22460635382238e-16 0 1 1.7
1 8.3000000000000007 -2.5 6.5 0 1 0 
2 10 -1.6963942307692701 -6.5 1.4940014471541399e-14 -1 1.8295636648047899e-30 -1 -1.4940014471541399e-14 -1.22460635382238e-16 1.22460635382238e-16 3.5032461608120427e-46 -1 1.7
1 11.699999999999999 -2.5 -6.5 0 -1 -0 
2 10 -3.1963942307691902 -6.5 0 1 0 -1 0 -1.22460635382238e-16 -1.22460635382238e-16 0 1 1.7
1 8.3000000000000007 -2.5 -6.5 0 1 0 
1 3.1517860352265599 -0.046394230769180499 -9.375 -1.22460635382238e-16 -0 1 
2 0.00178603522655939 -0.046394230769180901 -6.25 1.22460635382238e-16 0 -1 -1 0 -1.22460635382238e-16 0 1 0 3.1499999999999999
1 2.6850676082261802 -1.69639423076939 12.5 1.22460635382238e-16 0 -1 
2 0.00178603522656016 -0.046394230769180901 -12.5 -1.22460635382238e-16 -0 1 -1 0 -1.22460635382238e-16 0 -1 -0 3.1499999999999999
1 -3.14821396477344 -0.046394230769181297 -9.375 1.22460635382238e-16 0 -1 
2 0.00178603522655939 -0.046394230769180901 -6.25 1.22460635382238e-16 0 -1 -1 0 -1.22460635382238e-16 0 1 0 3.1499999999999999
2 0.00178603522656016 -0.046394230769180901 -12.5 -1.22460635382238e-16 -0 1 -1 0 -1.22460635382238e-16 0 -1 -0 3.1499999999999999
1 3.1517860352265599 -0.046394230769180499 3.2250000000000001 -1.22460635382238e-16 -0 1 
2 0.00178603522655786 -0.046394230769180901 6.25 1.22460635382238e-16 0 -1 -1 0 -1.22460635382238e-16 0 1 0 3.1499999999999999
1 2.6850676082261802 -1.69639423076939 12.5 1.22460635382238e-16 0 -1 
2 0.0017860352265586001 -0.046394230769180901 0.19999999999999901 0 0 1 -1 0 0 0 -1 0 3.1499999999999999
1 -3.14821396477344 -0.046394230769181297 3.2250000000000001 1.22460635382238e-16 0 -1 
2 0.00178603522655786 -0.046394230769180901 6.25 1.22460635382238e-16 0 -1 -1 0 -1.22460635382238e-16 0 1 0 3.1499999999999999
2 0.0017860352265586001 -0.046394230769180901 0.19999999999999901 0 0 1 -1 0 0 0 -1 0 3.1499999999999999
2 7.6537897113898598e-16 0 -6.25 1.22460635382238e-16 0 -1 -1 0 -1.22460635382238e-16 0 1 0 1.55
1 1.55 1.89813984842468e-16 -9.375 1.22460635382238e-16 0 -1 
2 1.53075794227797e-15 0 -12.5 -1.22460635382238e-16 -0 1 -1 0 -1.22460635382238e-16 0 -1 -0 1.55
1 -1.55 -1.89813984842468e-16 -9.375 -1.22460635382238e-16 0 1 
2 -7.6537897113898598e-16 0 6.25 1.22460635382238e-16 0 -1 -1 0 -1.22460635382238e-16 0 1 0 1.55
1 1.55 1.8981398484246901e-16 3.2250000000000001 1.22460635382238e-16 0 -1 
2 -2.44921270764475e-17 0 0.20000000000000001 -0 0 -1 -1 0 0 0 1 0 1.55
1 -1.55 -1.89813984842468e-16 3.2250000000000001 -1.22460635382238e-16 0 1 
2 -2.44921270764475e-17 0 0.20000000000000001 -0 0 -1 -1 0 0 0 1 0 1.55
1 4.0008930176132802 -3.1963942307691902 0.19999999999999901 1 0 -0 
2 0.0017860352265586001 -0.046394230769180901 0.19999999999999901 0 0 1 -1 0 0 0 -1 0 3.1499999999999999
1 4.6717134108631999 -1.69639423076934 0.19999999999999901 -1 -1.4940014471541399e-14 0 
1 3.2000000000000002 0 0.20000000000000001 0 1 0 
2 10 -3.1963942307691902 6.5 0 1 0 -1 0 -1.22460635382238e-16 -1.22460635382238e-16 0 1 1.7
2 10 -3.1963942307691902 -6.5 0 1 0 -1 0 -1.22460635382238e-16 -1.22460635382238e-16 0 1 1.7
1 3.2000000000000002 -3.1963942307691902 6.2999999999999998 0 0 -1 
1 4.0008930176132802 -3.1963942307691902 -6.25 -1 0 -1.22460635382238e-16 
1 0.00178603522655709 -3.1963942307691902 12.5 1.22460635382238e-16 0 -1 
1 16.001786035226601 -3.1963942307691902 -12.5 1 -0 1.22460635382238e-16 
1 16.001786035226601 -3.1963942307691902 12.5 1.22460635382238e-16 0 -1 
1 16.001786035226601 -3.1963942307691902 12.5 -1 0 -1.22460635382238e-16 
1 3.2000000000000002 -3.1963942307691902 10.9375 1.22460635382238e-16 0 -1 
1 4.0008930176132802 -3.1963942307691902 6.25 -1 0 -1.22460635382238e-16 
1 0.00178603522655709 -3.1963942307691902 12.5 1.22460635382238e-16 0 -1 
2 -7.6537897113898598e-16 0 6.25 1.22460635382238e-16 0 -1 -1 0 -1.22460635382238e-16 0 1 0 1.55
2 1.53075794227797e-15 0 -12.5 -1.22460635382238e-16 -0 1 -1 0 -1.22460635382238e-16 0 -1 -0 1.55
2 7.6537897113898598e-16 0 -6.25 1.22460635382238e-16 0 -1 -1 0 -1.22460635382238e-16 0 1 0 1.55
1 3.2000000000000002 0 -6.25 0 -1 -0 
1 4.6717134108631999 -1.69639423076934 -6.25 1 1.4940014471541399e-14 1.22460635382238e-16 
2 0.00178603522655939 -0.046394230769180901 -6.25 1.22460635382238e-16 0 -1 -1 0 -1.22460635382238e-16 0 1 0 3.1499999999999999
1 3.2000000000000002 -1.69639423076936 6.2999999999999998 0 1.8295636648047899e-30 1 
1 4.6717134108631999 -1.69639423076934 6.25 1 1.4940014471541399e-14 1.22460635382238e-16 
1 3.2000000000000002 -1.69639423076936 10.9375 -1.22460635382238e-16 0 1 
1 16.001786035226601 -1.6963942307691899 12.5 -1 -1.4940014471541399e-14 -1.22460635382238e-16 
1 16.001786035226601 -1.6963942307691899 12.5 1.22460635382238e-16 0 -1 
1 16.001786035226601 -1.6963942307691899 -12.5 -1 -1.4940014471541399e-14 -1.22460635382238e-16 
2 10 -1.6963942307692701 -6.5 1.4940014471541399e-14 -1 1.8295636648047899e-30 -1 -1.4940014471541399e-14 -1.22460635382238e-16 1.22460635382238e-16 3.5032461608120427e-46 -1 1.7
2 10 -1.6963942307692701 6.5 1.4940014471541399e-14 -1 1.8295636648047899e-30 -1 -1.4940014471541399e-14 -1.22460635382238e-16 1.22460635382238e-16 3.5032461608120427e-46 -1 1.7
2 0.00178603522655786 -0.046394230769180901 6.25 1.22460635382238e-16 0 -1 -1 0 -1.22460635382238e-16 0 1 0 3.1499999999999999
2 0.00178603522656016 -0.046394230769180901 -12.5 -1.22460635382238e-16 -0 1 -1 0 -1.22460635382238e-16 0 -1 -0 3.1499999999999999
1 3.2000000000000002 0 6.25 0 -1 -0 
1 3.2000000000000002 -0.78362378586062698 12.5 0 -1 -0 
1 16.001786035226601 -3.1963942307691902 -12.5 0 1 0 
1 16.001786035226601 -3.1963942307691902 12.5 0 1 0 
1 1.5 -1.8369095307335701e-16 0 0 0 1 
2 0 0 -12.5 0 0 -1 1 0 0 0 -1 0 1.5
1 -1.5 1.8369095307335701e-16 0 -0 -0 -1 
2 0 0 12.5 0 0 1 1 0 -0 -0 1 0 1.5
2 0 0 12.5 0 0 1 1 0 -0 -0 1 0 1.5
2 0 0 -12.5 0 0 -1 1 0 0 0 -1 0 1.5
Polygon3D 0
PolygonOnTriangulations 0
Surfaces 52
2 -10 -2.5 -6.5 0 -1 0 1 0 0 -0 0 1 1.7
1 -9.3434268217263803 -1.6963942307692701 -12.5 1.4940014471541399e-14 1 0 -1 1.4940014471541399e-14 0 0 -0 1 
2 -10 -2.5 -6.5 0 -1 0 1 0 0 -0 0 1 1.7
1 -8.0017860352265604 -3.1963942307691902 -12.5 0 -1 0 1 0 0 -0 0 1 
2 -10 -2.5 6.5 0 -1 0 1 0 0 -0 0 1 1.7
2 -10 -2.5 6.5 0 -1 0 1 0 0 -0 0 1 1.7
2 -0.00178603522655862 -0.046394230769180901 -12.5 0 0 1 1 0 -0 -0 1 0 3.1499999999999999
2 -0.00178603522655862 -0.046394230769180901 -12.5 0 0 1 1 0 -0 -0 1 0 3.1499999999999999
1 0 0 6.4500000000000002 0 0 1 1 0 -0 -0 1 0 
1 -5.7874732156157602 -1.56724757172125 12.5 0 0 1 1 0 -0 -0 1 0 
2 -0.00178603522655862 -0.046394230769180901 -12.5 0 0 1 1 0 -0 -0 1 0 3.1499999999999999
2 0 0 0 0 0 1 1 0 -0 -0 1 0 1.55
2 0 0 0 0 0 1 1 0 -0 -0 1 0 1.55
2 0 0 0 0 0 1 1 0 -0 -0 1 0 1.55
1 0 0 -6.0499999999999998 0 0 1 1 0 -0 -0 1 0 
2 0 0 0 0 0 1 1 0 -0 -0 1 0 1.55
1 0 0 0 0 0 1 1 0 -0 -0 1 0 
2 -0.00178603522655862 -0.046394230769180901 -12.5 0 0 1 1 0 -0 -0 1 0 3.1499999999999999
2 -0.00178603522655862 -0.046394230769180901 -12.5 0 0 1 1 0 -0 -0 1 0 3.1499999999999999
2 -0.00178603522655862 -0.046394230769180901 -12.5 0 0 1 1 0 -0 -0 1 0 3.1499999999999999
1 -3.2000000000000002 0 -9.375 1 0 0 0 0 -1 -0 1 0 
1 -5.7874732156157602 -1.56724757172125 -12.5 0 0 1 1 0 -0 -0 1 0 
1 -16.001786035226601 -2.4463942307691902 -12.5 -1 -0 0 0 -1 -0 0 0 1 
1 -3.2000000000000002 0 3.125 1 0 0 0 0 -1 -0 1 0 
2 10 -2.5 6.5 0 -1 -0 -1 0 -1.22460635382238e-16 1.22460635382238e-16 0 -1 1.7
1 9.3434268217263803 -1.6963942307692701 12.5 -1.4940014471541399e-14 1 -1.8295636648047899e-30 1 1.4940014471541399e-14 1.22460635382238e-16 1.22460635382238e-16 3.5032461608120427e-46 -1 
2 10 -2.5 6.5 0 -1 -0 -1 0 -1.22460635382238e-16 1.22460635382238e-16 0 -1 1.7
1 8.0017860352265604 -3.1963942307691902 12.5 0 -1 -0 -1 0 -1.22460635382238e-16 1.22460635382238e-16 0 -1 
2 10 -2.5 -6.5 0 -1 -0 -1 0 -1.22460635382238e-16 1.22460635382238e-16 0 -1 1.7
2 10 -2.5 -6.5 0 -1 -0 -1 0 -1.22460635382238e-16 1.22460635382238e-16 0 -1 1.7
2 0.00178603522655709 -0.046394230769180901 12.5 1.22460635382238e-16 0 -1 -1 0 -1.22460635382238e-16 0 1 0 3.1499999999999999
2 0.00178603522655709 -0.046394230769180901 12.5 1.22460635382238e-16 0 -1 -1 0 -1.22460635382238e-16 0 1 0 3.1499999999999999
1 7.6537897113898598e-16 0 -6.25 1.22460635382238e-16 0 -1 -1 0 -1.22460635382238e-16 0 1 0 
1 5.7874732156157602 -1.56724757172125 -12.5 1.22460635382238e-16 0 -1 -1 0 -1.22460635382238e-16 0 1 0 
2 0.00178603522655709 -0.046394230769180901 12.5 1.22460635382238e-16 0 -1 -1 0 -1.22460635382238e-16 0 1 0 3.1499999999999999
2 0.00178603522655709 -0.046394230769180901 12.5 1.22460635382238e-16 0 -1 -1 0 -1.22460635382238e-16 0 1 0 3.1499999999999999
2 0.00178603522655709 -0.046394230769180901 12.5 1.22460635382238e-16 0 -1 -1 0 -1.22460635382238e-16 0 1 0 3.1499999999999999
1 -7.6537897113898598e-16 0 6.25 1.22460635382238e-16 0 -1 -1 0 -1.22460635382238e-16 0 1 0 
1 0 0 0.20000000000000001 0 0 1 1 0 -0 -0 1 0 
2 0.00178603522655709 -0.046394230769180901 12.5 1.22460635382238e-16 0 -1 -1 0 -1.22460635382238e-16 0 1 0 3.1499999999999999
2 0 0 0 1.22460635382238e-16 0 -1 -1 0 -1.22460635382238e-16 0 1 0 1.55
2 0 0 0 1.22460635382238e-16 0 -1 -1 0 -1.22460635382238e-16 0 1 0 1.55
2 0 0 0 1.22460635382238e-16 0 -1 -1 0 -1.22460635382238e-16 0 1 0 1.55
2 0 0 0 1.22460635382238e-16 0 -1 -1 0 -1.22460635382238e-16 0 1 0 1.55
1 3.2000000000000002 0 -3.125 -1 0 -1.22460635382238e-16 -1.22460635382238e-16 0 1 0 1 0 
1 16.001786035226601 -2.4463942307691902 12.5 1 0 1.22460635382238e-16 0 -1 0 1.22460635382238e-16 0 -1 
1 5.7874732156157602 -1.56724757172125 12.5 1.22460635382238e-16 0 -1 -1 0 -1.22460635382238e-16 0 1 0 
1 3.2000000000000002 0 9.375 -1 0 -1.22460635382238e-16 -1.22460635382238e-16 0 1 0 1 0 
2 0 0 0 0 0 1 1 0 -0 -0 1 0 1.5
2 0 0 0 0 0 1 1 0 -0 -0 1 0 1.5
1 0 0 -12.5 0 0 -1 -1 0 0 0 1 0 
1 0 0 12.5 0 0 1 1 0 -0 -0 1 0 
Triangulations 0

TShapes 357
Ve
1e-07
-8.3 -1.6963942307693 -6.5
0 0

0101101
*
Ve
1e-07
-11.7 -1.69639423076927 -6.5
0 0

0101101
*
Ed
 1e-07 1 1 0
1  1 0 0 3.14159265358979
2  1 1 0 0 3.14159265358979
4 C0 1 0 2 0
0

0101000
+357 0 -356 0 *
Ve
1e-07
-11.7 -3.19639423076919 -6.5
0 0

0101101
*
Ed
 1e-07 1 1 0
1  2 0 -0.80360576923073 0.69639423076919
2  2 1 0 -0.80360576923073 0.69639423076919
2  3 3 0 -0.80360576923073 0.69639423076919
4 CN 1 0 3 0
0

0101000
+356 0 -354 0 *
Ve
1e-07
-8.3 -3.19639423076919 -6.5
0 0

0101101
*
Ed
 1e-07 1 1 0
1  3 0 3.14159265358979 6.28318530717959
2  4 1 0 3.14159265358979 6.28318530717959
4 C0 1 0 4 0
0

0101000
+354 0 -352 0 *
Ed
 1e-07 1 1 0
1  4 0 -0.69639423076919 0.8036057692307
2  5 1 0 -0.69639423076919 0.8036057692307
2  6 3 0 -0.69639423076919 0.8036057692307
4 CN 1 0 3 0
0

0101000
+352 0 -357 0 *
Wi

0101100
+355 0 +353 0 +351 0 +350 0 *
Fa
0  1e-07 1 0

0111000
+349 0 *
Ve
1e-07
-8.3 -1.6963942307693 6.5
0 0

0101101
*
Ve
1e-07
-11.7 -1.69639423076927 6.5
0 0

0101101
*
Ed
 1e-07 1 1 0
1  5 0 0 3.14159265358979
2  7 5 0 0 3.14159265358979
4 C0 5 0 2 0
0

0101000
+347 0 -346 0 *
Ve
1e-07
-11.7 -3.19639423076919 6.5
0 0

0101101
*
Ed
 1e-07 1 1 0
1  6 0 -0.80360576923073 0.69639423076919
2  8 5 0 -0.80360576923073 0.69639423076919
2  9 6 0 -0.80360576923073 0.69639423076919
4 CN 5 0 6 0
0

0101000
+346 0 -344 0 *
Ve
1e-07
-8.3 -3.19639423076919 6.5
0 0

0101101
*
Ed
 1e-07 1 1 0
1  7 0 3.14159265358979 6.28318530717959
2  10 5 0 3.14159265358979 6.28318530717959
4 C0 5 0 4 0
0

0101000
+344 0 -342 0 *
Ed
 1e-07 1 1 0
1  8 0 -0.69639423076919 0.8036057692307
2  11 5 0 -0.69639423076919 0.8036057692307
2  12 6 0 -0.69639423076919 0.8036057692307
4 CN 5 0 6 0
0

0101000
+342 0 -347 0 *
Wi

0101100
+345 0 +343 0 +341 0 +340 0 *
Fa
0  1e-07 5 0

0111000
+339 0 *
Ve
1e-07
-3.15178603522656 -0.0463942307691805 12.5
0 0

0101101
*
Ve
1e-07
-3.15178603522656 -0.0463942307691805 6.45
0 0

0101101
*
Ed
 1e-07 1 1 0
1  9 0 -3.025 3.025
2  13 7 0 -3.025 3.025
2  14 8 0 -3.025 3.025
4 CN 7 0 8 0
0

0101000
+337 0 -336 0 *
Ve
1e-07
-2.68506760822618 -1.69639423076939 6.45
0 0

0101101
*
Ed
 1e-07 1 1 0
1  10 0 3.14159265358979 3.69290962272175
2  15 7 0 3.14159265358979 3.69290962272175
4 C0 7 0 9 0
0

0101000
+336 0 -334 0 *
Ve
1e-07
-2.68506760822618 -1.69639423076939 12.5
0 0

0101101
*
Ed
 1e-07 1 1 0
1  11 0 18.95 25
2  16 7 0 18.95 25
4 C0 7 0 2 0
0

0101000
+334 0 -332 0 *
Ed
 1e-07 1 1 0
1  12 0 2.59027568445783 3.14159265358979
2  17 7 0 2.59027568445783 3.14159265358979
4 C0 7 0 10 0
0

0101000
+332 0 -337 0 *
Wi

0101100
+335 0 +333 0 +331 0 +330 0 *
Fa
0  1e-07 7 0

0111000
+329 0 *
Ve
1e-07
3.14821396477344 -0.0463942307691813 6.45
0 0

0101101
*
Ve
1e-07
3.14821396477344 -0.0463942307691813 12.5
0 0

0101101
*
Ed
 1e-07 1 1 0
1  13 0 -3.025 3.025
2  18 8 0 -3.025 3.025
2  19 11 0 -3.025 3.025
4 CN 8 0 11 0
0

0101000
+327 0 -326 0 *
Ed
 1e-07 1 1 0
1  14 0 0 3.14159265358979
2  20 8 0 0 3.14159265358979
4 C0 8 0 9 0
0

0101000
+327 0 -336 0 *
Ed
 1e-07 1 1 0
1  15 0 3.14159265358979 6.28318530717959
2  21 8 0 3.14159265358979 6.28318530717959
4 C0 8 0 10 0
0

0101000
+337 0 -326 0 *
Wi

0101100
-325 0 +324 0 -335 0 +323 0 *
Fa
0  1e-07 8 0

0111000
+322 0 *
Ve
1e-07
-1.55 1.89813984842468e-16 6.45
0 0

0101101
*
Ve
1e-07
1.55 -1.89813984842468e-16 6.45
0 0

0101101
*
Ed
 1e-07 1 1 0
1  16 0 3.14159265358979 6.28318530717959
2  22 12 0 3.14159265358979 6.28318530717959
4 C0 12 0 9 0
0

0101000
+320 0 -319 0 *
Ve
1e-07
-1.55 1.89813984842468e-16 12.5
0 0

0101101
*
Ed
 1e-07 1 1 0
1  17 0 -3.025 3.025
2  23 12 0 -3.025 3.025
2  24 13 0 -3.025 3.025
4 CN 12 0 13 0
0

0101000
+320 0 -317 0 *
Ve
1e-07
1.55 0 12.5
0 0

0101101
*
Ed
 1e-07 1 1 0
1  18 0 3.14159265358979 6.28318530717959
2  25 12 0 3.14159265358979 6.28318530717959
4 C0 12 0 10 0
0

0101000
+317 0 -315 0 *
Ed
 1e-07 1 1 0
1  19 0 -3.025 3.025
2  26 12 0 -3.025 3.025
2  27 13 0 -3.025 3.025
4 CN 12 0 13 0
0

0101000
+315 0 -319 0 *
Wi

0101100
-318 0 +316 0 +314 0 +313 0 *
Fa
0  1e-07 12 0

0111000
+312 0 *
Ve
1e-07
-1.55 1.89813984842468e-16 -6.05
0 0

0101101
*
Ve
1e-07
1.55 -1.89813984842468e-16 -6.05
0 0

0101101
*
Ed
 1e-07 1 1 0
1  20 0 3.14159265358979 6.28318530717959
2  28 14 0 3.14159265358979 6.28318530717959
4 C0 14 0 15 0
0

0101000
+310 0 -309 0 *
Ve
1e-07
-1.55 1.89813984842468e-16 0
0 0

0101101
*
Ed
 1e-07 1 1 0
1  21 0 -6.05 0
2  29 14 0 -6.05 0
2  30 16 0 -6.05 0
4 CN 14 0 16 0
0

0101000
+310 0 -307 0 *
Ve
1e-07
1.55 -1.89813984842468e-16 0
0 0

0101101
*
Ed
 1e-07 1 1 0
1  22 0 3.14159265358979 6.28318530717959
2  31 14 0 3.14159265358979 6.28318530717959
4 C0 14 0 17 0
0

0101000
+307 0 -305 0 *
Ed
 1e-07 1 1 0
1  23 0 0 6.05
2  32 14 0 0 6.05
2  33 16 0 0 6.05
4 CN 14 0 16 0
0

0101000
+305 0 -309 0 *
Wi

0101100
-308 0 +306 0 +304 0 +303 0 *
Fa
0  1e-07 14 0

0111000
+302 0 *
Ve
1e-07
-3.15178603522656 -0.0463942307691805 0
0 0

0101101
*
Ve
1e-07
-3.15178603522656 -0.0463942307691805 -6.05
0 0

0101101
*
Ed
 1e-07 1 1 0
1  24 0 -3.025 3.025
2  34 18 0 -3.025 3.025
2  35 19 0 -3.025 3.025
4 CN 18 0 19 0
0

0101000
+300 0 -299 0 *
Ve
1e-07
-2.68506760822618 -1.69639423076939 -6.05
0 0

0101101
*
Ed
 1e-07 1 1 0
1  25 0 3.14159265358979 3.69290962272175
2  36 18 0 3.14159265358979 3.69290962272175
4 C0 18 0 15 0
0

0101000
+299 0 -297 0 *
Ve
1e-07
-2.68506760822618 -1.69639423076939 0
0 0

0101101
*
Ed
 1e-07 1 1 0
1  26 0 6.45 12.5
2  37 18 0 6.45 12.5
4 C0 18 0 2 0
0

0101000
+297 0 -295 0 *
Ed
 1e-07 1 1 0
1  27 0 2.59027568445783 3.14159265358979
2  38 18 0 2.59027568445783 3.14159265358979
4 C0 18 0 17 0
0

0101000
+295 0 -300 0 *
Wi

0101100
+298 0 +296 0 +294 0 +293 0 *
Fa
0  1e-07 18 0

0111000
+292 0 *
Ve
1e-07
3.14821396477344 -0.0463942307691813 -6.05
0 0

0101101
*
Ve
1e-07
3.14821396477344 -0.0463942307691813 0
0 0

0101101
*
Ed
 1e-07 1 1 0
1  28 0 -3.025 3.025
2  39 19 0 -3.025 3.025
2  40 20 0 -3.025 3.025
4 CN 19 0 20 0
0

0101000
+290 0 -289 0 *
Ed
 1e-07 1 1 0
1  29 0 0 3.14159265358979
2  41 19 0 0 3.14159265358979
4 C0 19 0 15 0
0

0101000
+290 0 -299 0 *
Ed
 1e-07 1 1 0
1  30 0 3.14159265358979 6.28318530717959
2  42 19 0 3.14159265358979 6.28318530717959
4 C0 19 0 17 0
0

0101000
+300 0 -289 0 *
Wi

0101100
-288 0 +287 0 -298 0 +286 0 *
Fa
0  1e-07 19 0

0111000
+285 0 *
Ed
 1e-07 1 1 0
1  31 0 0 3.14159265358979
2  43 16 0 0 3.14159265358979
4 C0 15 0 16 0
0

0101000
+309 0 -310 0 *
Wi

0101100
-308 0 -283 0 *
Ve
1e-07
-3.2 -3.19639423076919 -6.05
0 0

0101101
*
Ve
1e-07
-0.00178603522655862 -3.19639423076919 -6.05
0 0

0101101
*
Ed
 1e-07 1 1 0
1  32 0 0.80089301761328 3.99910698238672
4 C0 15 0 4 0
0

0101000
+281 0 -280 0 *
Ve
1e-07
-3.2 -1.69639423076936 -6.05
0 0

0101101
*
Ed
 1e-07 1 1 0
1  33 0 1.69639423076936 3.19639423076919
4 C0 15 0 21 0
0

0101000
+278 0 -281 0 *
Ed
 1e-07 1 1 0
1  34 0 -1.98664580263702 -1.4717134108632
4 C0 15 0 2 0
0

0101000
+297 0 -278 0 *
Ed
 1e-07 1 1 0
1  35 0 4.71238898038469 6.28318530717959
2  44 20 0 4.71238898038469 6.28318530717959
4 C0 15 0 20 0
0

0101000
+280 0 -290 0 *
Wi

0101100
-279 0 -277 0 -276 0 -296 0 -287 0 -275 0 *
Fa
0  1e-07 15 0

0111000
-282 0 -274 0 *
Ve
1e-07
-0.00178603522655862 -3.19639423076919 0
0 0

0101101
*
Ed
 1e-07 1 1 0
1  36 0 0 1.5707963267949
2  45 20 0 0 1.5707963267949
4 C0 20 0 17 0
0

0101000
+289 0 -272 0 *
Ed
 1e-07 1 1 0
1  37 0 6.45 12.5
2  46 20 0 6.45 12.5
4 G1 20 0 4 0
0

0101000
+280 0 -272 0 *
Wi

0101100
+288 0 +271 0 -270 0 +275 0 *
Fa
0  1e-07 20 0

0111000
+269 0 *
Ed
 1e-07 1 1 0
1  38 0 3.14159265358979 6.28318530717959
2  47 6 0 3.14159265358979 6.28318530717959
4 C0 2 0 6 0
0

0101000
+346 0 -347 0 *
Wi

0101100
+267 0 +345 0 *
Ed
 1e-07 1 1 0
1  39 0 3.14159265358979 6.28318530717959
2  48 3 0 3.14159265358979 6.28318530717959
4 C0 2 0 3 0
0

0101000
+356 0 -357 0 *
Wi

0101100
+265 0 +355 0 *
Ve
1e-07
-3.2 -1.69639423076936 -12.5
0 0

0101101
*
Ed
 1e-07 1 1 0
1  40 0 -3.275 3.175
4 C0 2 0 21 0
0

0101000
+278 0 -263 0 *
Ve
1e-07
-16.0017860352266 -1.69639423076919 -12.5
0 0

0101101
*
Ed
 1e-07 1 1 0
1  41 0 0 12.8017860352266
4 C0 2 0 22 0
0

0101000
+261 0 -263 0 *
Ve
1e-07
-16.0017860352266 -1.69639423076919 12.5
0 0

0101101
*
Ed
 1e-07 1 1 0
1  42 0 0 25
4 C0 2 0 23 0
0

0101000
+261 0 -259 0 *
Ed
 1e-07 1 1 0
1  43 0 0 13.3167184270004
4 C0 2 0 10 0
0

0101000
+259 0 -332 0 *
Ve
1e-07
-3.2 -1.69639423076936 6.45
0 0

0101101
*
Ed
 1e-07 1 1 0
1  44 0 -1.98664580263702 -1.4717134108632
4 C0 2 0 9 0
0

0101000
+334 0 -256 0 *
Ve
1e-07
-3.2 -1.69639423076936 0
0 0

0101101
*
Ed
 1e-07 1 1 0
1  45 0 -9.525 -3.075
4 C0 2 0 24 0
0

0101000
+256 0 -254 0 *
Ed
 1e-07 1 1 0
1  46 0 1.4717134108632 1.98664580263702
4 C0 2 0 17 0
0

0101000
+254 0 -295 0 *
Wi

0101100
+276 0 +262 0 -260 0 +258 0 +257 0 -331 0 +255 0 +253 0 +252 0 -294 0 
*
Fa
0  1e-07 2 0

0111000
+266 0 +264 0 +251 0 *
Ed
 1e-07 1 1 0
1  47 0 0 3.14159265358979
2  49 13 0 0 3.14159265358979
4 C0 9 0 13 0
0

0101000
+319 0 -320 0 *
Wi

0101100
-318 0 -249 0 *
Ve
1e-07
-0.00178603522655862 -3.19639423076919 6.45
0 0

0101101
*
Ed
 1e-07 1 1 0
1  48 0 4.71238898038469 6.28318530717959
2  50 11 0 4.71238898038469 6.28318530717959
4 C0 9 0 11 0
0

0101000
+247 0 -327 0 *
Ve
1e-07
-3.2 -3.19639423076919 6.45
0 0

0101101
*
Ed
 1e-07 1 1 0
1  49 0 0.80089301761328 3.99910698238672
4 C0 9 0 4 0
0

0101000
+245 0 -247 0 *
Ed
 1e-07 1 1 0
1  50 0 1.69639423076936 3.19639423076919
4 C0 9 0 24 0
0

0101000
+256 0 -245 0 *
Wi

0101100
-255 0 -333 0 -324 0 -246 0 -244 0 -243 0 *
Fa
0  1e-07 9 0

0111000
-248 0 -242 0 *
Ed
 1e-07 1 1 0
1  51 0 0 3.14159265358979
2  51 16 0 0 3.14159265358979
4 C0 16 0 17 0
0

0101000
+305 0 -307 0 *
Wi

0101100
+240 0 -306 0 -283 0 -303 0 *
Fa
0  1e-07 16 0

0111000
+239 0 *
Ed
 1e-07 1 1 0
1  52 0 0 3.14159265358979
2  52 13 0 0 3.14159265358979
4 C0 13 0 10 0
0

0101000
+315 0 -317 0 *
Wi

0101100
+237 0 -316 0 -249 0 -313 0 *
Fa
0  1e-07 13 0

0111000
+236 0 *
Wi

0101100
+304 0 +240 0 *
Ve
1e-07
-3.2 -3.19639423076919 0
0 0

0101101
*
Ed
 1e-07 1 1 0
1  53 0 -3.99910698238672 -0.80089301761328
4 C0 17 0 4 0
0

0101000
+272 0 -233 0 *
Ed
 1e-07 1 1 0
1  54 0 -3.19639423076919 -1.69639423076936
4 C0 17 0 24 0
0

0101000
+233 0 -254 0 *
Wi

0101100
-232 0 -271 0 -286 0 -293 0 -252 0 -231 0 *
Fa
0  1e-07 17 0

0111000
+234 0 +230 0 *
Ed
 1e-07 1 1 0
1  55 0 3.075 9.525
4 C0 24 0 4 0
0

0101000
+233 0 -245 0 *
Wi

0101100
-228 0 +231 0 -253 0 +243 0 *
Fa
0  1e-07 24 0

0111000
+227 0 *
Ve
1e-07
-0.00178603522655862 -3.19639423076919 12.5
0 0

0101101
*
Ed
 1e-07 1 1 0
1  56 0 0 1.5707963267949
2  53 11 0 0 1.5707963267949
4 C0 11 0 10 0
0

0101000
+326 0 -225 0 *
Ed
 1e-07 1 1 0
1  57 0 18.95 25
2  54 11 0 18.95 25
4 G1 11 0 4 0
0

0101000
+247 0 -225 0 *
Wi

0101100
+325 0 +224 0 -223 0 +246 0 *
Fa
0  1e-07 11 0

0111000
+222 0 *
Ve
1e-07
-3.2 -3.19639423076919 -12.5
0 0

0101101
*
Ed
 1e-07 1 1 0
1  58 0 -3.175 3.275
4 C0 21 0 4 0
0

0101000
+220 0 -281 0 *
Ed
 1e-07 1 1 0
1  59 0 0.912770444908733 2.41277044490856
4 C0 21 0 22 0
0

0101000
+263 0 -220 0 *
Wi

0101100
-219 0 -218 0 -262 0 +277 0 *
Fa
0  1e-07 21 0

0111000
+217 0 *
Ed
 1e-07 1 1 0
1  60 0 0 3.14159265358979
2  55 6 0 0 3.14159265358979
4 C0 6 0 4 0
0

0101000
+342 0 -344 0 *
Wi

0101100
+215 0 -343 0 +267 0 -340 0 *
Fa
0  1e-07 6 0

0111000
+214 0 *
Ed
 1e-07 1 1 0
1  61 0 0 3.14159265358979
2  56 3 0 0 3.14159265358979
4 C0 3 0 4 0
0

0101000
+352 0 -354 0 *
Wi

0101100
+212 0 -353 0 +265 0 -350 0 *
Fa
0  1e-07 3 0

0111000
+211 0 *
Ve
1e-07
-16.0017860352266 -3.19639423076919 12.5
0 0

0101101
*
Ed
 1e-07 1 1 0
1  62 0 0 1.5
4 C0 23 0 10 0
0

0101000
+209 0 -259 0 *
Ve
1e-07
-16.0017860352266 -3.19639423076919 -12.5
0 0

0101101
*
Ed
 1e-07 1 1 0
1  63 0 0 1.5
4 C0 23 0 22 0
0

0101000
+207 0 -261 0 *
Ed
 1e-07 1 1 0
1  64 0 0 25
4 C0 23 0 4 0
0

0101000
+207 0 -209 0 *
Wi

0101100
+208 0 -258 0 -206 0 +205 0 *
Fa
0  1e-07 23 0

0111000
+204 0 *
Ed
 1e-07 1 1 0
1  65 0 -16 -0
4 C0 4 0 10 0
0

0101000
+225 0 -209 0 *
Ed
 1e-07 1 1 0
1  66 0 0 12.8017860352266
4 C0 4 0 22 0
0

0101000
+207 0 -220 0 *
Wi

0101100
+279 0 +270 0 +232 0 +228 0 +244 0 +223 0 +202 0 -205 0 +201 0 +219 0 
*
Wi

0101100
+341 0 +215 0 *
Wi

0101100
+351 0 +212 0 *
Fa
0  1e-07 4 0

0111000
+200 0 +199 0 +198 0 *
Wi

0101100
+237 0 +314 0 *
Wi

0101100
-208 0 -202 0 -224 0 -323 0 -330 0 -257 0 *
Fa
0  1e-07 10 0

0111000
+196 0 +195 0 *
Wi

0101100
+218 0 -201 0 +206 0 +260 0 *
Fa
0  1e-07 22 0

0111000
-193 0 *
Sh

0101100
-348 0 -338 0 +328 0 +321 0 -311 0 -301 0 +291 0 +284 0 -273 0 +268 0 
+250 0 -241 0 -238 0 -235 0 +229 0 +226 0 +221 0 +216 0 -213 0 -210 0 
+203 0 +197 0 +194 0 -192 0 *
So

0100000
+191 0 *
Ve
1e-07
8.3 -1.6963942307693 6.5
0 0

0101101
*
Ve
1e-07
11.7 -1.69639423076927 6.5
0 0

0101101
*
Ed
 1e-07 1 1 0
1  67 0 0 3.14159265358979
2  57 25 0 0 3.14159265358979
4 C0 25 0 26 0
0

0101000
+189 0 -188 0 *
Ve
1e-07
11.7 -3.19639423076919 6.5
0 0

0101101
*
Ed
 1e-07 1 1 0
1  68 0 -0.80360576923073 0.69639423076919
2  58 25 0 -0.80360576923073 0.69639423076919
2  59 27 0 -0.80360576923073 0.69639423076919
4 CN 25 0 27 0
0

0101000
+188 0 -186 0 *
Ve
1e-07
8.3 -3.19639423076919 6.5
0 0

0101101
*
Ed
 1e-07 1 1 0
1  69 0 3.14159265358979 6.28318530717959
2  60 25 0 3.14159265358979 6.28318530717959
4 C0 25 0 28 0
0

0101000
+186 0 -184 0 *
Ed
 1e-07 1 1 0
1  70 0 -0.69639423076919 0.8036057692307
2  61 25 0 -0.69639423076919 0.8036057692307
2  62 27 0 -0.69639423076919 0.8036057692307
4 CN 25 0 27 0
0

0101000
+184 0 -189 0 *
Wi

0101100
+187 0 +185 0 +183 0 +182 0 *
Fa
0  1e-07 25 0

0111000
+181 0 *
Ve
1e-07
8.3 -1.6963942307693 -6.5
0 0

0101101
*
Ve
1e-07
11.7 -1.69639423076927 -6.5
0 0

0101101
*
Ed
 1e-07 1 1 0
1  71 0 0 3.14159265358979
2  63 29 0 0 3.14159265358979
4 C0 29 0 26 0
0

0101000
+179 0 -178 0 *
Ve
1e-07
11.7 -3.19639423076919 -6.5
0 0

0101101
*
Ed
 1e-07 1 1 0
1  72 0 -0.80360576923073 0.69639423076919
2  64 29 0 -0.80360576923073 0.69639423076919
2  65 30 0 -0.80360576923073 0.69639423076919
4 CN 29 0 30 0
0

0101000
+178 0 -176 0 *
Ve
1e-07
8.3 -3.19639423076919 -6.5
0 0

0101101
*
Ed
 1e-07 1 1 0
1  73 0 3.14159265358979 6.28318530717959
2  66 29 0 3.14159265358979 6.28318530717959
4 C0 29 0 28 0
0

0101000
+176 0 -174 0 *
Ed
 1e-07 1 1 0
1  74 0 -0.69639423076919 0.8036057692307
2  67 29 0 -0.69639423076919 0.8036057692307
2  68 30 0 -0.69639423076919 0.8036057692307
4 CN 29 0 30 0
0

0101000
+174 0 -179 0 *
Wi

0101100
+177 0 +175 0 +173 0 +172 0 *
Fa
0  1e-07 29 0

0111000
+171 0 *
Ve
1e-07
3.15178603522656 -0.0463942307691805 -12.5
0 0

0101101
*
Ve
1e-07
3.15178603522656 -0.0463942307691805 -6.25
0 0

0101101
*
Ed
 1e-07 1 1 0
1  75 0 -3.125 3.125
2  69 31 0 -3.125 3.125
2  70 32 0 -3.125 3.125
4 CN 31 0 32 0
0

0101000
+169 0 -168 0 *
Ve
1e-07
2.68506760822618 -1.69639423076939 -6.25
0 0

0101101
*
Ed
 1e-07 1 1 0
1  76 0 3.14159265358979 3.69290962272175
2  71 31 0 3.14159265358979 3.69290962272175
4 C0 31 0 33 0
0

0101000
+168 0 -166 0 *
Ve
1e-07
2.68506760822618 -1.69639423076939 -12.5
0 0

0101101
*
Ed
 1e-07 1 1 0
1  77 0 18.75 25
2  72 31 0 18.75 25
4 C0 31 0 26 0
0

0101000
+166 0 -164 0 *
Ed
 1e-07 1 1 0
1  78 0 2.59027568445783 3.14159265358979
2  73 31 0 2.59027568445783 3.14159265358979
4 C0 31 0 34 0
0

0101000
+164 0 -169 0 *
Wi

0101100
+167 0 +165 0 +163 0 +162 0 *
Fa
0  1e-07 31 0

0111000
+161 0 *
Ve
1e-07
-3.14821396477344 -0.0463942307691813 -6.25
0 0

0101101
*
Ve
1e-07
-3.14821396477344 -0.0463942307691813 -12.5
0 0

0101101
*
Ed
 1e-07 1 1 0
1  79 0 -3.125 3.125
2  74 32 0 -3.125 3.125
2  75 35 0 -3.125 3.125
4 CN 32 0 35 0
0

0101000
+159 0 -158 0 *
Ed
 1e-07 1 1 0
1  80 0 0 3.14159265358979
2  76 32 0 0 3.14159265358979
4 C0 32 0 33 0
0

0101000
+159 0 -168 0 *
Ed
 1e-07 1 1 0
1  81 0 3.14159265358979 6.28318530717959
2  77 32 0 3.14159265358979 6.28318530717959
4 C0 32 0 34 0
0

0101000
+169 0 -158 0 *
Wi

0101100
-157 0 +156 0 -167 0 +155 0 *
Fa
0  1e-07 32 0

0111000
+154 0 *
Ve
1e-07
3.15178603522656 -0.0463942307691805 0.199999999999999
0 0

0101101
*
Ve
1e-07
3.15178603522656 -0.0463942307691805 6.25
0 0

0101101
*
Ed
 1e-07 1 1 0
1  82 0 -3.025 3.025
2  78 36 0 -3.025 3.025
2  79 37 0 -3.025 3.025
4 CN 36 0 37 0
0

0101000
+152 0 -151 0 *
Ve
1e-07
2.68506760822618 -1.69639423076939 6.25
0 0

0101101
*
Ed
 1e-07 1 1 0
1  83 0 3.14159265358979 3.69290962272175
2  80 36 0 3.14159265358979 3.69290962272175
4 C0 36 0 38 0
0

0101000
+151 0 -149 0 *
Ve
1e-07
2.68506760822618 -1.69639423076939 0.199999999999999
0 0

0101101
*
Ed
 1e-07 1 1 0
1  84 0 6.25 12.3
2  81 36 0 6.25 12.3
4 C0 36 0 26 0
0

0101000
+149 0 -147 0 *
Ed
 1e-07 1 1 0
1  85 0 2.59027568445783 3.14159265358979
2  82 36 0 2.59027568445783 3.14159265358979
4 C0 36 0 39 0
0

0101000
+147 0 -152 0 *
Wi

0101100
+150 0 +148 0 +146 0 +145 0 *
Fa
0  1e-07 36 0

0111000
+144 0 *
Ve
1e-07
-3.14821396477344 -0.0463942307691813 6.25
0 0

0101101
*
Ve
1e-07
-3.14821396477344 -0.0463942307691813 0.199999999999999
0 0

0101101
*
Ed
 1e-07 1 1 0
1  86 0 -3.025 3.025
2  83 37 0 -3.025 3.025
2  84 40 0 -3.025 3.025
4 CN 37 0 40 0
0

0101000
+142 0 -141 0 *
Ed
 1e-07 1 1 0
1  87 0 0 3.14159265358979
2  85 37 0 0 3.14159265358979
4 C0 37 0 38 0
0

0101000
+142 0 -151 0 *
Ed
 1e-07 1 1 0
1  88 0 3.14159265358979 6.28318530717959
2  86 37 0 3.14159265358979 6.28318530717959
4 C0 37 0 39 0
0

0101000
+152 0 -141 0 *
Wi

0101100
-140 0 +139 0 -150 0 +138 0 *
Fa
0  1e-07 37 0

0111000
+137 0 *
Ve
1e-07
-1.55 -1.89813984842468e-16 -6.25
0 0

0101101
*
Ve
1e-07
1.55 -1.89813984842468e-16 -6.25
0 0

0101101
*
Ed
 1e-07 1 1 0
1  89 0 0 3.14159265358979
2  87 41 0 0 3.14159265358979
4 C0 41 0 33 0
0

0101000
+135 0 -134 0 *
Ve
1e-07
1.55 1.89813984842468e-16 -12.5
0 0

0101101
*
Ed
 1e-07 1 1 0
1  90 0 -3.125 3.125
2  88 41 0 -3.125 3.125
2  89 42 0 -3.125 3.125
4 CN 41 0 42 0
0

0101000
+134 0 -132 0 *
Ve
1e-07
-1.55 0 -12.5
0 0

0101101
*
Ed
 1e-07 1 1 0
1  91 0 3.14159265358979 6.28318530717959
2  90 41 0 3.14159265358979 6.28318530717959
4 C0 41 0 34 0
0

0101000
+132 0 -130 0 *
Ed
 1e-07 1 1 0
1  92 0 -3.125 3.125
2  91 41 0 -3.125 3.125
2  92 42 0 -3.125 3.125
4 CN 41 0 42 0
0

0101000
+130 0 -135 0 *
Wi

0101100
+133 0 +131 0 +129 0 +128 0 *
Fa
0  1e-07 41 0

0111000
+127 0 *
Ve
1e-07
-1.55 -1.89813984842468e-16 6.25
0 0

0101101
*
Ve
1e-07
1.55 -1.89813984842468e-16 6.25
0 0

0101101
*
Ed
 1e-07 1 1 0
1  93 0 0 3.14159265358979
2  93 43 0 0 3.14159265358979
4 C0 43 0 38 0
0

0101000
+125 0 -124 0 *
Ve
1e-07
1.55 -1.89813984842468e-16 0.2
0 0

0101101
*
Ed
 1e-07 1 1 0
1  94 0 -3.025 3.025
2  94 43 0 -3.025 3.025
2  95 44 0 -3.025 3.025
4 CN 43 0 44 0
0

0101000
+124 0 -122 0 *
Ve
1e-07
-1.55 -1.89813984842468e-16 0.2
0 0

0101101
*
Ed
 1e-07 1 1 0
1  95 0 0 3.14159265358979
2  96 43 0 0 3.14159265358979
4 C0 43 0 39 0
0

0101000
+120 0 -122 0 *
Ed
 1e-07 1 1 0
1  96 0 -3.025 3.025
2  97 43 0 -3.025 3.025
2  98 44 0 -3.025 3.025
4 CN 43 0 44 0
0

0101000
+120 0 -125 0 *
Wi

0101100
+123 0 +121 0 -119 0 +118 0 *
Fa
0  1e-07 43 0

0111000
+117 0 *
Ed
 1e-07 1 1 0
1  97 0 3.14159265358979 6.28318530717959
2  99 44 0 3.14159265358979 6.28318530717959
4 C0 39 0 44 0
0

0101000
+122 0 -120 0 *
Wi

0101100
-115 0 -119 0 *
Ve
1e-07
0.0017860352265586 -3.19639423076919 0.199999999999999
0 0

0101101
*
Ve
1e-07
3.2 -3.19639423076919 0.2
0 0

0101101
*
Ed
 1e-07 1 1 0
1  98 0 -3.99910698238672 -0.80089301761328
4 C0 39 0 28 0
0

0101000
+113 0 -112 0 *
Ed
 1e-07 1 1 0
1  99 0 0 1.5707963267949
2  100 40 0 0 1.5707963267949
4 C0 39 0 40 0
0

0101000
+141 0 -113 0 *
Ve
1e-07
3.2 -1.69639423076936 0.2
0 0

0101101
*
Ed
 1e-07 1 1 0
1  100 0 1.4717134108632 1.98664580263702
4 C0 39 0 26 0
0

0101000
+109 0 -147 0 *
Ed
 1e-07 1 1 0
1  101 0 -3.19639423076919 -1.69639423076936
4 C0 39 0 45 0
0

0101000
+112 0 -109 0 *
Wi

0101100
-111 0 -110 0 -138 0 -145 0 -108 0 -107 0 *
Fa
0  1e-07 39 0

0111000
-114 0 -106 0 *
Ed
 1e-07 1 1 0
1  102 0 0 3.14159265358979
2  101 27 0 0 3.14159265358979
4 C0 28 0 27 0
0

0101000
+184 0 -186 0 *
Wi

0101100
+183 0 +104 0 *
Ed
 1e-07 1 1 0
1  103 0 0 3.14159265358979
2  102 30 0 0 3.14159265358979
4 C0 28 0 30 0
0

0101000
+174 0 -176 0 *
Wi

0101100
+173 0 +102 0 *
Ve
1e-07
3.2 -3.19639423076919 -6.25
0 0

0101101
*
Ed
 1e-07 1 1 0
1  104 0 6.1 12.55
4 C0 28 0 45 0
0

0101000
+112 0 -100 0 *
Ve
1e-07
0.00178603522655939 -3.19639423076919 -6.25
0 0

0101101
*
Ed
 1e-07 1 1 0
1  105 0 0.80089301761328 3.99910698238672
4 C0 28 0 33 0
0

0101000
+100 0 -98 0 *
Ve
1e-07
0.00178603522656016 -3.19639423076919 -12.5
0 0

0101101
*
Ed
 1e-07 1 1 0
1  106 0 18.75 25
2  103 35 0 18.75 25
4 G1 28 0 35 0
0

0101000
+98 0 -96 0 *
Ve
1e-07
16.0017860352266 -3.19639423076919 -12.5
0 0

0101101
*
Ed
 1e-07 1 1 0
1  107 0 -16 0
4 C0 28 0 34 0
0

0101000
+96 0 -94 0 *
Ve
1e-07
16.0017860352266 -3.19639423076919 12.5
0 0

0101101
*
Ed
 1e-07 1 1 0
1  108 0 0 25
4 C0 28 0 46 0
0

0101000
+92 0 -94 0 *
Ve
1e-07
3.2 -3.19639423076919 12.5
0 0

0101101
*
Ed
 1e-07 1 1 0
1  109 0 0 12.8017860352266
4 C0 28 0 47 0
0

0101000
+92 0 -90 0 *
Ve
1e-07
3.2 -3.19639423076919 6.25
0 0

0101101
*
Ed
 1e-07 1 1 0
1  110 0 -1.5625 4.6875
4 C0 28 0 48 0
0

0101000
+90 0 -88 0 *
Ve
1e-07
0.00178603522655786 -3.19639423076919 6.25
0 0

0101101
*
Ed
 1e-07 1 1 0
1  111 0 0.80089301761328 3.99910698238672
4 C0 28 0 38 0
0

0101000
+88 0 -86 0 *
Ed
 1e-07 1 1 0
1  112 0 6.25 12.3
2  104 40 0 6.25 12.3
4 G1 28 0 40 0
0

0101000
+86 0 -113 0 *
Wi

0101100
+111 0 +99 0 +97 0 +95 0 +93 0 -91 0 +89 0 +87 0 +85 0 +84 0 
*
Fa
0  1e-07 28 0

0111000
+103 0 +101 0 +83 0 *
Ed
 1e-07 1 1 0
1  113 0 3.14159265358979 6.28318530717959
2  105 44 0 3.14159265358979 6.28318530717959
4 C0 44 0 38 0
0

0101000
+124 0 -125 0 *
Wi

0101100
-115 0 -121 0 +81 0 -118 0 *
Fa
0  1e-07 44 0

0111000
+80 0 *
Ed
 1e-07 1 1 0
1  114 0 0 3.14159265358979
2  106 42 0 0 3.14159265358979
4 C0 42 0 34 0
0

0101000
+130 0 -132 0 *
Ed
 1e-07 1 1 0
1  115 0 3.14159265358979 6.28318530717959
2  107 42 0 3.14159265358979 6.28318530717959
4 C0 42 0 33 0
0

0101000
+134 0 -135 0 *
Wi

0101100
+78 0 -131 0 +77 0 -128 0 *
Fa
0  1e-07 42 0

0111000
+76 0 *
Wi

0101100
+77 0 +133 0 *
Ve
1e-07
3.2 -1.69639423076936 -6.25
0 0

0101101
*
Ed
 1e-07 1 1 0
1  116 0 1.69639423076936 3.19639423076919
4 C0 33 0 45 0
0

0101000
+73 0 -100 0 *
Ed
 1e-07 1 1 0
1  117 0 -1.98664580263702 -1.4717134108632
4 C0 33 0 26 0
0

0101000
+166 0 -73 0 *
Ed
 1e-07 1 1 0
1  118 0 4.71238898038469 6.28318530717959
2  108 35 0 4.71238898038469 6.28318530717959
4 C0 33 0 35 0
0

0101000
+98 0 -159 0 *
Wi

0101100
-97 0 -72 0 -71 0 -165 0 -156 0 -70 0 *
Fa
0  1e-07 33 0

0111000
-74 0 -69 0 *
Ed
 1e-07 1 1 0
1  119 0 -12.55 -6.1
4 C0 45 0 26 0
0

0101000
+73 0 -109 0 *
Wi

0101100
-99 0 +107 0 -67 0 +72 0 *
Fa
0  1e-07 45 0

0111000
+66 0 *
Ve
1e-07
3.2 -1.69639423076936 6.25
0 0

0101101
*
Ed
 1e-07 1 1 0
1  120 0 -1.98664580263702 -1.4717134108632
4 C0 26 0 38 0
0

0101000
+149 0 -64 0 *
Ve
1e-07
3.2 -1.69639423076936 12.5
0 0

0101101
*
Ed
 1e-07 1 1 0
1  121 0 -4.6875 1.5625
4 C0 26 0 48 0
0

0101000
+64 0 -62 0 *
Ve
1e-07
16.0017860352266 -1.69639423076919 12.5
0 0

0101101
*
Ed
 1e-07 1 1 0
1  122 0 -0 12.8017860352266
4 C0 26 0 47 0
0

0101000
+60 0 -62 0 *
Ve
1e-07
16.0017860352266 -1.69639423076919 -12.5
0 0

0101101
*
Ed
 1e-07 1 1 0
1  123 0 0 25
4 C0 26 0 46 0
0

0101000
+60 0 -58 0 *
Ed
 1e-07 1 1 0
1  124 0 -0 13.3167184270004
4 C0 26 0 34 0
0

0101000
+58 0 -164 0 *
Wi

0101100
+108 0 -146 0 +63 0 +61 0 -59 0 +57 0 +56 0 -163 0 +71 0 +67 0 
*
Ed
 1e-07 1 1 0
1  125 0 3.14159265358979 6.28318530717959
2  109 30 0 3.14159265358979 6.28318530717959
4 C0 26 0 30 0
0

0101000
+178 0 -179 0 *
Wi

0101100
+54 0 +177 0 *
Ed
 1e-07 1 1 0
1  126 0 3.14159265358979 6.28318530717959
2  110 27 0 3.14159265358979 6.28318530717959
4 C0 26 0 27 0
0

0101000
+188 0 -189 0 *
Wi

0101100
+52 0 +187 0 *
Fa
0  1e-07 26 0

0111000
+55 0 +53 0 +51 0 *
Ed
 1e-07 1 1 0
1  127 0 4.71238898038469 6.28318530717959
2  111 40 0 4.71238898038469 6.28318530717959
4 C0 40 0 38 0
0

0101000
+86 0 -142 0 *
Wi

0101100
+140 0 +110 0 -84 0 +49 0 *
Fa
0  1e-07 40 0

0111000
+48 0 *
Ed
 1e-07 1 1 0
1  128 0 0 1.5707963267949
2  112 35 0 0 1.5707963267949
4 C0 35 0 34 0
0

0101000
+158 0 -96 0 *
Wi

0101100
+157 0 +46 0 -95 0 +70 0 *
Fa
0  1e-07 35 0

0111000
+45 0 *
Wi

0101100
+81 0 +123 0 *
Ed
 1e-07 1 1 0
1  129 0 1.69639423076936 3.19639423076919
4 C0 38 0 48 0
0

0101000
+64 0 -88 0 *
Wi

0101100
-85 0 -42 0 -63 0 -148 0 -139 0 -49 0 *
Fa
0  1e-07 38 0

0111000
-43 0 -41 0 *
Ed
 1e-07 1 1 0
1  130 0 0.912770444908733 2.41277044490856
4 C0 48 0 47 0
0

0101000
+62 0 -90 0 *
Wi

0101100
-87 0 -39 0 -61 0 +42 0 *
Fa
0  1e-07 48 0

0111000
+38 0 *
Wi

0101100
+102 0 -175 0 +54 0 -172 0 *
Fa
0  1e-07 30 0

0111000
+36 0 *
Wi

0101100
+104 0 -185 0 +52 0 -182 0 *
Fa
0  1e-07 27 0

0111000
+34 0 *
Ed
 1e-07 1 1 0
1  131 0 0 1.5
4 C0 46 0 34 0
0

0101000
+94 0 -58 0 *
Ed
 1e-07 1 1 0
1  132 0 0 1.5
4 C0 46 0 47 0
0

0101000
+92 0 -60 0 *
Wi

0101100
+32 0 -57 0 -31 0 +91 0 *
Fa
0  1e-07 46 0

0111000
+30 0 *
Wi

0101100
+78 0 +129 0 *
Wi

0101100
-32 0 -93 0 -46 0 -155 0 -162 0 -56 0 *
Fa
0  1e-07 34 0

0111000
+28 0 +27 0 *
Wi

0101100
+39 0 -89 0 +31 0 +59 0 *
Fa
0  1e-07 47 0

0111000
-25 0 *
Sh

0101100
-180 0 -170 0 +160 0 +153 0 +143 0 +136 0 -126 0 -116 0 -105 0 +82 0 
-79 0 -75 0 -68 0 +65 0 +50 0 +47 0 +44 0 -40 0 +37 0 -35 0 
-33 0 +29 0 +26 0 -24 0 *
So

0100000
+23 0 *
Ve
1e-07
1.5 0 -12.5
0 0

0101101
*
Ve
1e-07
1.5 0 12.5
0 0

0101101
*
Ed
 1e-07 1 1 0
1  133 0 -12.5 12.5
2  113 49 0 -12.5 12.5
2  114 50 0 -12.5 12.5
4 CN 49 0 50 0
0

0101000
+21 0 -20 0 *
Ve
1e-07
-1.5 1.83690953073357e-16 -12.5
0 0

0101101
*
Ed
 1e-07 1 1 0
1  134 0 3.14159265358979 6.28318530717959
2  115 49 0 3.14159265358979 6.28318530717959
4 C0 49 0 51 0
0

0101000
+18 0 -21 0 *
Ve
1e-07
-1.5 1.83690953073357e-16 12.5
0 0

0101101
*
Ed
 1e-07 1 1 0
1  135 0 -12.5 12.5
2  116 49 0 -12.5 12.5
2  117 50 0 -12.5 12.5
4 CN 49 0 50 0
0

0101000
+16 0 -18 0 *
Ed
 1e-07 1 1 0
1  136 0 0 3.14159265358979
2  118 49 0 0 3.14159265358979
4 C0 49 0 52 0
0

0101000
+20 0 -16 0 *
Wi

0101100
-19 0 -17 0 -15 0 -14 0 *
Fa
0  1e-07 49 0

0111000
+13 0 *
Ed
 1e-07 1 1 0
1  137 0 3.14159265358979 6.28318530717959
2  119 50 0 3.14159265358979 6.28318530717959
4 C0 50 0 52 0
0

0101000
+16 0 -20 0 *
Ed
 1e-07 1 1 0
1  138 0 0 3.14159265358979
2  120 50 0 0 3.14159265358979
4 C0 50 0 51 0
0

0101000
+21 0 -18 0 *
Wi

0101100
+19 0 -11 0 +15 0 -10 0 *
Fa
0  1e-07 50 0

0111000
+9 0 *
Wi

0101100
+10 0 +17 0 *
Fa
0  1e-07 51 0

0111000
+7 0 *
Wi

0101100
+14 0 +11 0 *
Fa
0  1e-07 52 0

0111000
+5 0 *
Sh

0101100
+12 0 +8 0 +6 0 +4 0 *
So

0100000
+3 0 *
Co

1100000
+190 0 +22 0 +2 0 *

+1 0 