DBRep_DrawableShape

CASCADE Topology V1, (c) Matra-Datavision
Locations 0
Curve2ds 120
1 0 -2.050000000000006 1 0 
1 3.1415926535897931 0 0 1 
1 3.1415926535897931 0 0 1 
1 0 2.0499999999999998 1 0 
1 0 0 0 -1 
1 6.2831853071795862 0 0 -1 
1 6.2831853071795862 -2 -1 0 
1 3.1415926535897931 0 0 1 
1 3.1415926535897931 0 0 1 
1 6.2831853071795862 1.9999999999999973 -1 5.6543194337129189e-16 
1 0 0 0 -1 
1 6.2831853071795862 0 0 -1 
1 0 -2.050000000000006 1 0 
1 3.1415926535897931 0 0 1 
1 3.1415926535897931 0 0 1 
1 0 2.0499999999999998 1 0 
1 0 0 0 -1 
1 6.2831853071795862 0 0 -1 
1 6.2831853071795862 -2 -1 0 
1 3.1415926535897931 0 0 1 
1 3.1415926535897931 0 0 1 
1 6.2831853071795862 1.9999999999999973 -1 5.6543194337129189e-16 
1 0 0 0 -1 
1 6.2831853071795862 0 0 -1 
1 0 60 0 1 
1 6.2831853071795862 60 0 1 
1 0 40 1 0 
1 3.0615070735561325 0 0 1 
1 6.2831853071795862 80 -1 0 
1 0 -20 1 0 
1 3.1415926535897931 0 0 1 
1 3.1415926535897931 0 0 1 
1 6.2831853071795862 20 -1 0 
1 0 0 0 -1 
1 6.2831853071795862 0 0 -1 
1 6.2831853071795862 20 -1 0 
1 0 -20 1 0 
1 0 40 1 0 
1 6.2831853071795862 0.39999999999999702 -1 -4.9475295044988024e-16 
1 0 9.5999999999999996 1 1.1308638867425838e-15 
1 0 -2.050000000000006 1 0 
1 0 -2.050000000000006 1 0 
1 6.2831853071795862 80 -1 0 
1 4.7123889803846897 0 0 1 
1 6.2831853071795862 2.0000000000000009 -1 -5.6543194337129189e-16 
1 6.2831853071795862 -2 -1 0 
1 0 2.0499999999999998 1 0 
1 6.2831853071795862 2.0000000000000009 -1 -5.6543194337129189e-16 
1 6.2831853071795862 -2 -1 0 
1 0 2.0499999999999998 1 0 
1 1.5707963267948966 4.25 0 -1 
1 0 8.4999999999999964 1 2.2617277734851675e-15 
1 0 4.4499999999999886 0 -1 
1 0 5.5500000000000096 0 -1 
1 6.2831853071795862 1.5000000000000044 -1 -5.6543194337129169e-16 
1 1.5707963267948966 5.8000000000000016 0 -1 
1 0 60.5 0 1 
1 6.2831853071795862 60.5 0 1 
1 0 41 1 0 
1 3.0615070735561343 0 0 1 
1 6.2831853071795862 80 -1 0 
1 0 -19.5 1 0 
1 3.1415926535897931 0 0 1 
1 3.1415926535897931 0 0 1 
1 6.2831853071795862 19.5 -1 0 
1 0 0 0 -1 
1 6.2831853071795862 0 0 -1 
1 0 -2.050000000000002 1 0 
1 3.1415926535897931 0 0 1 
1 3.1415926535897931 0 0 1 
1 0 2.0499999999999998 1 0 
1 0 0 0 -1 
1 6.2831853071795862 0 0 -1 
1 6.2831853071795862 -2 -1 0 
1 3.1415926535897931 0 0 1 
1 3.1415926535897931 0 0 1 
1 6.2831853071795862 2.0000000000000027 -1 -5.6543194337129189e-16 
1 0 0 0 -1 
1 6.2831853071795862 0 0 -1 
1 0 -2.050000000000002 1 0 
1 3.1415926535897931 0 0 1 
1 3.1415926535897931 0 0 1 
1 0 2.0499999999999998 1 0 
1 0 0 0 -1 
1 6.2831853071795862 0 0 -1 
1 6.2831853071795862 -2 -1 0 
1 3.1415926535897931 0 0 1 
1 3.1415926535897931 0 0 1 
1 6.2831853071795862 2.0000000000000027 -1 -5.6543194337129189e-16 
1 0 0 0 -1 
1 6.2831853071795862 0 0 -1 
1 6.2831853071795862 1.9999999999999991 -1 5.6543194337129189e-16 
1 6.2831853071795862 -2 -1 0 
1 0 2.0499999999999998 1 0 
1 0 -2.050000000000002 1 0 
1 6.2831853071795862 1.9999999999999991 -1 5.6543194337129189e-16 
1 6.2831853071795862 -2 -1 0 
1 0 2.0499999999999998 1 0 
1 0 -2.050000000000002 1 0 
1 0 8.4999999999999964 1 2.2617277734851675e-15 
1 0 4.4500000000000002 0 -1 
1 6.2831853071795862 0.39999999999999925 -1 -3.5339496460705739e-16 
1 1.5707963267948966 4.4500000000000002 0 -1 
1 4.7123889803846897 0 0 1 
1 6.2831853071795862 1.5999999999999917 -1 0 
1 0 9.6999999999999886 1 1.1308638867425838e-15 
1 0 5.6499999999999986 0 -1 
1 1.5707963267948966 5.8500000000000014 0 -1 
1 6.2831853071795862 80 -1 0 
1 0 -19.5 1 0 
1 6.2831853071795862 19.5 -1 0 
1 0 41 1 0 
1 0 0 0 1 
1 6.2831853071795862 0 0 1 
1 6.2831853071795862 -40.75 -1 0 
1 3.1415926535897931 0 0 -1 
1 3.1415926535897931 0 0 -1 
1 0 40.75 1 0 
1 0 40.75 1 0 
1 6.2831853071795862 -40.75 -1 0 
Curves 120
2 -15.5 0.60000000000000597 18.5 -1.108890220451e-17 -1 0 1 -1.108890220451e-17 0 0 0 1 5.5
1 -21 -1.45 18.5 -0 -1 0 
2 -15.5 -3.5 18.5 0 -1 0 1 0 0 -0 0 1 5.5
1 -10 -1.45 18.5 -0 1 -0 
2 -15.5 -3.5 18.5 0 1 -0 1 0 0 0 -0 -1 3.25
1 -18.75 -5.5 18.5 -0 -1 0 
2 -15.5 -7.5 18.5 1.61486985400023e-16 1 0 1 -1.61486985400023e-16 0 0 0 -1 3.25
1 -12.25 -5.5 18.5 -0 1 -0 
2 -15.5 0.60000000000000597 61.5 -1.108890220451e-17 -1 0 1 -1.108890220451e-17 0 0 0 1 5.5
1 -21 -1.45 61.5 -0 -1 0 
2 -15.5 -3.5 61.5 0 -1 0 1 0 0 -0 0 1 5.5
1 -10 -1.45 61.5 -0 1 -0 
2 -15.5 -3.5 61.5 -0 1 0 1 0 0 0 0 -1 3.25
1 -18.75 -5.5 61.5 -0 -1 0 
2 -15.5 -7.5 61.5 1.61486985400023e-16 1 0 1 -1.61486985400023e-16 0 0 0 -1 3.25
1 -12.25 -5.5 61.5 -0 1 -0 
1 7.5 -8.7100126915616596e-16 60 0 0 1 
2 0 4.7453496210617098e-17 40 0 0 1 1 0 -0 -0 1 0 7.5
1 -7.4759614766262699 0.60000000000000597 0 0 0 1 
2 0 4.7453496210617098e-17 80 0 0 -1 1 0 0 0 -1 0 7.5
2 0 0 40 0 0 1 1 0 -0 -0 1 0 4.0999999999999996
1 -4.0999999999999996 5.0208860506717495e-16 60 -0 0 1 
2 0 0 80 0 0 -1 1 0 0 0 -1 0 4.0999999999999996
1 4.0999999999999996 -5.0208860506717495e-16 60 -0 0 -1 
2 0 0 80 0 0 -1 1 0 0 0 -1 0 4.0999999999999996
2 0 0 40 0 0 1 1 0 -0 -0 1 0 4.0999999999999996
2 0 4.7453496210617098e-17 40 0 0 1 1 0 -0 -0 1 0 7.5
1 -6.875 -7.5 40 1 -1.61486985400023e-16 0 
1 -7.5 0 40 0 -1 0 
1 -8.7439903691565704 0.60000000000000597 40 -1 1.108890220451e-17 0 
1 -7.5 0.60000000000000597 10 0 -0 -1 
1 -7.5 -7.5 10 -0 0 1 
1 -7.5 -1.0126523048925899 0 0 -1 0 
1 -27.5 0.60000000000000597 0 1 -1.108890220451e-17 0 
2 -17.5 0.60000000000000497 10 1.108890220451e-17 1 0 -1 1.108890220451e-17 -1.22460635382238e-16 -1.22460635382238e-16 1.3579540096557942e-33 1 10
1 -27.5 0.60000000000000597 0 0 0 1 
2 -17.5 0.60000000000000098 70 1.108890220451e-17 1 -0 -1 1.108890220451e-17 0 0 0 1 10
1 -27.5 0.60000000000000597 80 1 -1.108890220451e-17 0 
2 -15.5 0.60000000000000597 18.5 -1.108890220451e-17 -1 0 1 -1.108890220451e-17 0 0 0 1 5.5
2 -15.5 0.60000000000000597 61.5 -1.108890220451e-17 -1 0 1 -1.108890220451e-17 0 0 0 1 5.5
2 0 4.7453496210617098e-17 80 0 0 -1 1 0 0 0 -1 0 7.5
1 -1.9589116653570801e-15 -7.5 0 0 0 1 
2 -15.5 -7.5 61.5 1.61486985400023e-16 1 0 1 -1.61486985400023e-16 0 0 0 -1 3.25
2 -15.5 -3.5 61.5 -0 1 0 1 0 0 0 0 -1 3.25
2 -15.5 -3.5 61.5 0 -1 0 1 0 0 -0 0 1 5.5
2 -15.5 -7.5 18.5 1.61486985400023e-16 1 0 1 -1.61486985400023e-16 0 0 0 -1 3.25
2 -15.5 -3.5 18.5 0 1 -0 1 0 0 0 -0 -1 3.25
2 -15.5 -3.5 18.5 0 -1 0 1 0 0 -0 0 1 5.5
1 -17.5 -3.25 0 -7.4983036091106899e-33 1 6.12303176911189e-17 
2 -17.5 -7.5 10 -1.61486985400023e-16 -1 0 -1 1.61486985400023e-16 -1.22460635382238e-16 1.22460635382238e-16 -1.9775798838049008e-32 -1 10
1 -27.5 -3.44999999999999 10 -7.4983036091106899e-33 1 6.12303176911189e-17 
1 -27.5 -7.4999999999999902 0 0 0 1 
1 -27.5 -3.44999999999999 70 -1.22460635382238e-16 -1 -6.12303176911189e-17 
2 -17.5 -7.5 70 -1.61486985400023e-16 -1 0 -1 1.61486985400023e-16 0 -0 0 -1 10
1 -17.5 -3.2000000000000002 80 -1.22460635382238e-16 -1 -6.12303176911189e-17 
1 -1.9589116653570801e-15 -7.5 80 -1 1.61486985400023e-16 0 
1 -1.9589116653570801e-15 -7.5 0 -1 1.61486985400023e-16 0 
1 -7.4999999999999902 -8.7865505886755602e-16 19.5 1.22460635382238e-16 0 -1 
2 5.0208860506717499e-15 3.9799706499227302e-17 39 -0 0 -1 -1 0 0 0 1 0 7.5
1 7.4759614766262699 0.60000000000000198 80 1.22460635382238e-16 0 -1 
2 9.7968508305790196e-15 3.9799706499227302e-17 0 -1.22460635382238e-16 0 1 -1 0 -1.22460635382238e-16 -0 -1 0 7.5
2 0 0 0 -1.22460635382238e-16 -0 1 1 0 1.22460635382238e-16 -0 1 0 4.0999999999999996
1 -4.0999999999999996 5.0208860506717495e-16 19.5 -0 0 1 
2 0 0 39 0 0 -1 1 0 0 0 -1 0 4.0999999999999996
1 4.0999999999999996 -5.0208860506717495e-16 19.5 -0 0 -1 
2 13 0.60000000000000198 18.5 0 -1 0 1 0 0 -0 0 1 4.75
1 8.25 -1.45 18.5 -0 -1 0 
2 13 -3.5 18.5 0 -1 0 1 0 0 -0 0 1 4.75
1 17.75 -1.45 18.5 -0 1 -0 
2 13 -3.5 18.5 0 1 -0 1 0 0 0 -0 -1 2.75
1 10.25 -5.5 18.5 -0 -1 0 
2 13 -7.5 18.5 -1.73303106282951e-16 1 -2.1222808509125699e-32 1 1.73303106282951e-16 -3.6779786386797299e-48 -1.8231490071858814e-63 -2.1222808509125699e-32 -1 2.75
1 15.75 -5.5 18.5 -0 1 -0 
2 13 0.60000000000000198 61.5 0 -1 0 1 0 0 -0 0 1 4.75
1 8.25 -1.45 61.5 -0 -1 0 
2 13 -3.5 61.5 0 -1 0 1 0 0 -0 0 1 4.75
1 17.75 -1.45 61.5 -0 1 -0 
2 13 -3.5 61.5 -0 1 0 1 0 0 0 0 -1 2.75
1 10.25 -5.5 61.5 -0 -1 0 
2 13 -7.5 61.5 -1.73303106282951e-16 1 -2.1222808509125699e-32 1 1.73303106282951e-16 -3.6779786386797299e-48 -1.8231490071858814e-63 -2.1222808509125699e-32 -1 2.75
1 15.75 -5.5 61.5 -0 1 -0 
2 13 -7.5 61.5 -1.73303106282951e-16 1 -2.1222808509125699e-32 1 1.73303106282951e-16 -3.6779786386797299e-48 -1.8231490071858814e-63 -2.1222808509125699e-32 -1 2.75
2 13 -3.5 61.5 -0 1 0 1 0 0 0 0 -1 2.75
2 13 -3.5 61.5 0 -1 0 1 0 0 -0 0 1 4.75
2 13 0.60000000000000198 61.5 0 -1 0 1 0 0 -0 0 1 4.75
2 13 -7.5 18.5 -1.73303106282951e-16 1 -2.1222808509125699e-32 1 1.73303106282951e-16 -3.6779786386797299e-48 -1.8231490071858814e-63 -2.1222808509125699e-32 -1 2.75
2 13 -3.5 18.5 0 1 -0 1 0 0 0 -0 -1 2.75
2 13 -3.5 18.5 0 -1 0 1 0 0 -0 0 1 4.75
2 13 0.60000000000000198 18.5 0 -1 0 1 0 0 -0 0 1 4.75
2 10.5 -7.5 70 1.73303106282951e-16 -1 2.1222808509125699e-32 1 1.73303106282951e-16 -3.6779786386797299e-48 1.8231490071858814e-63 2.1222808509125699e-32 1 10
1 20.5 -3.4500000000000002 70 0 1 -6.12303176911189e-17 
2 10.5 0.60000000000000198 70 -0 1 0 1 0 0 0 0 -1 10
1 10.5 -3.4500000000000002 80 -0 1 -6.12303176911189e-17 
1 1.43152366491017e-15 -7.5 80 1 1.73303106282951e-16 1.22460635382238e-16 
1 7.5 -7.5 69.75 -0 -2.1222808509125699e-32 -1 
1 5.125 -7.5 39 -1 -1.73303106282951e-16 0 
1 -4.5922738268339098e-16 -7.5 80 1.22460635382238e-16 0 -1 
1 1.1228374495489199e-14 -7.5 0 1 1.73303106282951e-16 1.22460635382238e-16 
2 10.5 -7.5000000000000098 10 1.73303106282951e-16 -1 2.1222808509125699e-32 1 1.73303106282951e-16 -3.6779786386797299e-48 1.8231490071858814e-63 2.1222808509125699e-32 1 10
1 20.5 -7.5 80 1.22460635382238e-16 0 -1 
1 20.5 0.60000000000000198 80 -1 0 -1.22460635382238e-16 
1 7.5 -0.88205980663338301 80 -0 -1 -0 
2 10.5 0.59999999999998899 10 -0 1 0 1 0 0 0 0 -1 10
1 20.5 -3.4500000000000002 10 0 -1 1.8369095307335701e-16 
1 10.5 -3.25 0 0 -1 1.8369095307335701e-16 
1 20.5 0.60000000000000198 80 1.22460635382238e-16 0 -1 
1 20.5 0.60000000000000198 0 -1 0 -1.22460635382238e-16 
1 6.9939903691565704 0.60000000000000198 39 1 0 0 
1 7.5 0.60000000000000198 69.75 0 0 1 
2 9.7968508305790196e-15 3.9799706499227302e-17 0 -1.22460635382238e-16 0 1 -1 0 -1.22460635382238e-16 -0 -1 0 7.5
2 0 0 0 -1.22460635382238e-16 -0 1 1 0 1.22460635382238e-16 -0 1 0 4.0999999999999996
2 0 0 39 0 0 -1 1 0 0 0 -1 0 4.0999999999999996
1 7.5 0 39 0 -1 0 
2 5.0208860506717499e-15 3.9799706499227302e-17 39 -0 0 -1 -1 0 0 0 1 0 7.5
1 4 -4.89842541528951e-16 39.25 0 0 1 
2 0 0 -1.5 0 0 -1 1 0 0 0 -1 0 4
1 -4 4.89842541528951e-16 39.25 -0 -0 -1 
2 0 0 80 0 0 1 1 0 -0 -0 1 0 4
2 0 0 80 0 0 1 1 0 -0 -0 1 0 4
2 0 0 -1.5 0 0 -1 1 0 0 0 -1 0 4
Polygon3D 0
PolygonOnTriangulations 0
Surfaces 50
2 -15.5 -1.45 18.5 0 -1 0 1 0 0 -0 0 1 5.5
1 -17.487980738313102 0.60000000000000597 0 1.108890220451e-17 1 -0 -1 1.108890220451e-17 0 0 0 1 
2 -15.5 -1.45 18.5 0 -1 0 1 0 0 -0 0 1 5.5
1 -15.5 -3.5 18.5 0 -1 0 1 0 0 -0 0 1 
2 -15.5 -5.5 18.5 0 -1 0 1 0 0 -0 0 1 3.25
2 -15.5 -5.5 18.5 0 -1 0 1 0 0 -0 0 1 3.25
1 -13.75 -7.5 0 -1.61486985400023e-16 -1 0 1 -1.61486985400023e-16 -0 0 0 1 
2 -15.5 -1.45 61.5 0 -1 0 1 0 0 -0 0 1 5.5
2 -15.5 -1.45 61.5 0 -1 0 1 0 0 -0 0 1 5.5
1 -15.5 -3.5 61.5 0 -1 0 1 0 0 -0 0 1 
2 -15.5 -5.5 61.5 0 -1 0 1 0 0 -0 0 1 3.25
2 -15.5 -5.5 61.5 0 -1 0 1 0 0 -0 0 1 3.25
2 0 4.7453496210617098e-17 0 0 0 1 1 0 -0 -0 1 0 7.5
2 0 4.7453496210617098e-17 0 0 0 1 1 0 -0 -0 1 0 7.5
1 0 0 40 0 0 1 1 0 -0 -0 1 0 
1 -10.054906517535899 -2.0253046097851901 80 0 0 1 1 0 -0 -0 1 0 
2 0 0 60 0 0 1 1 0 -0 -0 1 0 4.0999999999999996
2 0 0 60 0 0 1 1 0 -0 -0 1 0 4.0999999999999996
1 -7.5 0 20 1 0 0 0 0 -1 -0 1 0 
1 -10.054906517535899 -2.0253046097851901 0 0 0 1 1 0 -0 -0 1 0 
2 -17.5 0.999999999999999 10 7.4983036091106899e-33 -1 -6.12303176911189e-17 -1 1.7789921910373654e-47 -1.22460635382238e-16 1.22460635382238e-16 6.12303176911189e-17 -1 10
1 -27.5 -3.44999999999999 0 -1 -0 0 0 -1 -0 0 0 1 
2 -17.5 -9 70 1.22460635382238e-16 1 6.12303176911189e-17 -1 1.22460635382238e-16 0 -7.4983036091107077e-33 -6.12303176911189e-17 1 10
2 0 3.9799706499227302e-17 80 1.22460635382238e-16 0 -1 -1 0 -1.22460635382238e-16 0 1 0 7.5
2 0 3.9799706499227302e-17 80 1.22460635382238e-16 0 -1 -1 0 -1.22460635382238e-16 0 1 0 7.5
1 0 0 39 0 0 1 1 0 -0 -0 1 0 
1 13.9879807383131 0.60000000000000198 80 -0 1 0 1 0 1.22460635382238e-16 1.22460635382238e-16 0 -1 
1 6.7559217234197204 -1.76411961326677 0 1.22460635382238e-16 0 -1 -1 0 -1.22460635382238e-16 0 1 0 
2 0 0 19.5 0 0 1 1 0 -0 -0 1 0 4.0999999999999996
2 0 0 19.5 0 0 1 1 0 -0 -0 1 0 4.0999999999999996
2 13 -1.45 18.5 0 -1 0 1 0 0 -0 0 1 4.75
2 13 -1.45 18.5 0 -1 0 1 0 0 -0 0 1 4.75
1 13 -3.5 18.5 0 -1 0 1 0 0 -0 0 1 
2 13 -5.5 18.5 0 -1 0 1 0 0 -0 0 1 2.75
2 13 -5.5 18.5 0 -1 0 1 0 0 -0 0 1 2.75
1 10.25 -7.5 80 1.73303106282951e-16 -1 2.1222808509125699e-32 -1 -1.73303106282951e-16 -1.22460635382238e-16 1.22460635382238e-16 2.7369110631344083e-48 -1 
2 13 -1.45 61.5 0 -1 0 1 0 0 -0 0 1 4.75
2 13 -1.45 61.5 0 -1 0 1 0 0 -0 0 1 4.75
1 13 -3.5 61.5 0 -1 0 1 0 0 -0 0 1 
2 13 -5.5 61.5 0 -1 0 1 0 0 -0 0 1 2.75
2 13 -5.5 61.5 0 -1 0 1 0 0 -0 0 1 2.75
2 10.5 0.999999999999999 70 0 -1 6.12303176911189e-17 1 0 0 -0 6.12303176911189e-17 1 10
1 20.5 -3.4500000000000002 80 1 0 1.22460635382238e-16 0 -1 0 1.22460635382238e-16 0 -1 
1 6.7559217234197098 -1.76411961326677 80 1.22460635382238e-16 0 -1 -1 0 -1.22460635382238e-16 0 1 0 
1 7.5 0 59.5 -1 0 0 0 0 1 0 1 -0 
2 10.5 -9.0999999999999996 10 0 1 -1.8369095307335701e-16 1 0 0 0 -1.8369095307335701e-16 -1 10
2 0 0 39.25 0 0 1 1 0 -0 -0 1 0 4
2 0 0 39.25 0 0 1 1 0 -0 -0 1 0 4
1 0 0 -1.5 0 0 -1 -1 0 0 0 1 0 
1 0 0 80 0 0 1 1 0 -0 -0 1 0 
Triangulations 0

TShapes 323
Ve
1e-07
-10 0.6 18.5
0 0

0101101
*
Ve
1e-07
-21 0.600000000000006 18.5
0 0

0101101
*
Ed
 1e-07 1 1 0
1  1 0 0 3.14159265358979
2  1 1 0 0 3.14159265358979
4 C0 1 0 2 0
0

0101000
+323 0 -322 0 *
Ve
1e-07
-21 -3.5 18.5
0 0

0101101
*
Ed
 1e-07 1 1 0
1  2 0 -2.05000000000001 2.05
2  2 1 0 -2.05000000000001 2.05
2  3 3 0 -2.05000000000001 2.05
4 CN 1 0 3 0
0

0101000
+322 0 -320 0 *
Ve
1e-07
-10 -3.5 18.5
0 0

0101101
*
Ed
 1e-07 1 1 0
1  3 0 0 3.14159265358979
2  4 1 0 0 3.14159265358979
4 C0 1 0 4 0
0

0101000
+318 0 -320 0 *
Ed
 1e-07 1 1 0
1  4 0 -2.05 2.05
2  5 1 0 -2.05 2.05
2  6 3 0 -2.05 2.05
4 CN 1 0 3 0
0

0101000
+318 0 -323 0 *
Wi

0101100
+321 0 +319 0 -317 0 +316 0 *
Fa
0  1e-07 1 0

0111000
+315 0 *
Ve
1e-07
-18.75 -3.5 18.5
0 0

0101101
*
Ve
1e-07
-12.25 -3.5 18.5
0 0

0101101
*
Ed
 1e-07 1 1 0
1  5 0 3.14159265358979 6.28318530717959
2  7 5 0 3.14159265358979 6.28318530717959
4 C0 5 0 4 0
0

0101000
+313 0 -312 0 *
Ve
1e-07
-18.75 -7.5 18.5
0 0

0101101
*
Ed
 1e-07 1 1 0
1  6 0 -2 2
2  8 5 0 -2 2
2  9 6 0 -2 2
4 CN 5 0 6 0
0

0101000
+313 0 -310 0 *
Ve
1e-07
-12.25 -7.5 18.5
0 0

0101101
*
Ed
 1e-07 1 1 0
1  7 0 3.14159265358979 6.28318530717959
2  10 5 0 3.14159265358979 6.28318530717959
4 C0 5 0 7 0
0

0101000
+310 0 -308 0 *
Ed
 1e-07 1 1 0
1  8 0 -2 2
2  11 5 0 -2 2
2  12 6 0 -2 2
4 CN 5 0 6 0
0

0101000
+308 0 -312 0 *
Wi

0101100
-311 0 +309 0 +307 0 +306 0 *
Fa
0  1e-07 5 0

0111000
+305 0 *
Ve
1e-07
-10 0.6 61.5
0 0

0101101
*
Ve
1e-07
-21 0.600000000000006 61.5
0 0

0101101
*
Ed
 1e-07 1 1 0
1  9 0 0 3.14159265358979
2  13 8 0 0 3.14159265358979
4 C0 8 0 2 0
0

0101000
+303 0 -302 0 *
Ve
1e-07
-21 -3.5 61.5
0 0

0101101
*
Ed
 1e-07 1 1 0
1  10 0 -2.05000000000001 2.05
2  14 8 0 -2.05000000000001 2.05
2  15 9 0 -2.05000000000001 2.05
4 CN 8 0 9 0
0

0101000
+302 0 -300 0 *
Ve
1e-07
-10 -3.5 61.5
0 0

0101101
*
Ed
 1e-07 1 1 0
1  11 0 0 3.14159265358979
2  16 8 0 0 3.14159265358979
4 C0 8 0 10 0
0

0101000
+298 0 -300 0 *
Ed
 1e-07 1 1 0
1  12 0 -2.05 2.05
2  17 8 0 -2.05 2.05
2  18 9 0 -2.05 2.05
4 CN 8 0 9 0
0

0101000
+298 0 -303 0 *
Wi

0101100
+301 0 +299 0 -297 0 +296 0 *
Fa
0  1e-07 8 0

0111000
+295 0 *
Ve
1e-07
-18.75 -3.5 61.5
0 0

0101101
*
Ve
1e-07
-12.25 -3.5 61.5
0 0

0101101
*
Ed
 1e-07 1 1 0
1  13 0 3.14159265358979 6.28318530717959
2  19 11 0 3.14159265358979 6.28318530717959
4 C0 11 0 10 0
0

0101000
+293 0 -292 0 *
Ve
1e-07
-18.75 -7.5 61.5
0 0

0101101
*
Ed
 1e-07 1 1 0
1  14 0 -2 2
2  20 11 0 -2 2
2  21 12 0 -2 2
4 CN 11 0 12 0
0

0101000
+293 0 -290 0 *
Ve
1e-07
-12.25 -7.5 61.5
0 0

0101101
*
Ed
 1e-07 1 1 0
1  15 0 3.14159265358979 6.28318530717959
2  22 11 0 3.14159265358979 6.28318530717959
4 C0 11 0 7 0
0

0101000
+290 0 -288 0 *
Ed
 1e-07 1 1 0
1  16 0 -2 2
2  23 11 0 -2 2
2  24 12 0 -2 2
4 CN 11 0 12 0
0

0101000
+288 0 -292 0 *
Wi

0101100
-291 0 +289 0 +287 0 +286 0 *
Fa
0  1e-07 11 0

0111000
+285 0 *
Ve
1e-07
7.5 -8.71001269156166e-16 40
0 0

0101101
*
Ve
1e-07
7.5 -8.71001269156166e-16 80
0 0

0101101
*
Ed
 1e-07 1 1 0
1  17 0 -20 20
2  25 13 0 -20 20
2  26 14 0 -20 20
4 CN 13 0 14 0
0

0101000
+283 0 -282 0 *
Ve
1e-07
-7.47596147662627 0.600000000000006 40
0 0

0101101
*
Ed
 1e-07 1 1 0
1  18 0 0 3.06150707355613
2  27 13 0 0 3.06150707355613
4 C0 13 0 15 0
0

0101000
+283 0 -280 0 *
Ve
1e-07
-7.47596147662627 0.600000000000006 80
0 0

0101101
*
Ed
 1e-07 1 1 0
1  19 0 40 80
2  28 13 0 40 80
4 C0 13 0 2 0
0

0101000
+280 0 -278 0 *
Ed
 1e-07 1 1 0
1  20 0 3.22167823362345 6.28318530717959
2  29 13 0 3.22167823362345 6.28318530717959
4 C0 13 0 16 0
0

0101000
+278 0 -282 0 *
Wi

0101100
-281 0 +279 0 +277 0 +276 0 *
Fa
0  1e-07 13 0

0111000
+275 0 *
Ve
1e-07
4.1 0 40
0 0

0101101
*
Ve
1e-07
-4.1 5.02088605067175e-16 40
0 0

0101101
*
Ed
 1e-07 1 1 0
1  21 0 0 3.14159265358979
2  30 17 0 0 3.14159265358979
4 C0 17 0 15 0
0

0101000
+273 0 -272 0 *
Ve
1e-07
-4.1 5.02088605067175e-16 80
0 0

0101101
*
Ed
 1e-07 1 1 0
1  22 0 -20 20
2  31 17 0 -20 20
2  32 18 0 -20 20
4 CN 17 0 18 0
0

0101000
+272 0 -270 0 *
Ve
1e-07
4.1 0 80
0 0

0101101
*
Ed
 1e-07 1 1 0
1  23 0 3.14159265358979 6.28318530717959
2  33 17 0 3.14159265358979 6.28318530717959
4 C0 17 0 16 0
0

0101000
+270 0 -268 0 *
Ed
 1e-07 1 1 0
1  24 0 -20 20
2  34 17 0 -20 20
2  35 18 0 -20 20
4 CN 17 0 18 0
0

0101000
+268 0 -273 0 *
Wi

0101100
+271 0 +269 0 +267 0 +266 0 *
Fa
0  1e-07 17 0

0111000
+265 0 *
Ed
 1e-07 1 1 0
1  25 0 0 3.14159265358979
2  36 18 0 0 3.14159265358979
4 C0 18 0 16 0
0

0101000
+268 0 -270 0 *
Ed
 1e-07 1 1 0
1  26 0 3.14159265358979 6.28318530717959
2  37 18 0 3.14159265358979 6.28318530717959
4 C0 18 0 15 0
0

0101000
+272 0 -273 0 *
Wi

0101100
+263 0 -269 0 +262 0 -266 0 *
Fa
0  1e-07 18 0

0111000
+261 0 *
Wi

0101100
+271 0 +262 0 *
Ve
1e-07
0 -7.5 40
0 0

0101101
*
Ed
 1e-07 1 1 0
1  27 0 4.71238898038469 6.28318530717959
2  38 14 0 4.71238898038469 6.28318530717959
4 C0 15 0 14 0
0

0101000
+258 0 -283 0 *
Ve
1e-07
-7.5 -7.5 40
0 0

0101101
*
Ed
 1e-07 1 1 0
1  28 0 -0.625 6.875
4 C0 15 0 7 0
0

0101000
+256 0 -258 0 *
Ve
1e-07
-7.5 0.600000000000006 40
0 0

0101101
*
Ed
 1e-07 1 1 0
1  29 0 -0.600000000000006 7.5
4 C0 15 0 19 0
0

0101000
+254 0 -256 0 *
Ed
 1e-07 1 1 0
1  30 0 -1.2680288925303 -1.24399036915657
4 C0 15 0 2 0
0

0101000
+280 0 -254 0 *
Wi

0101100
-257 0 -255 0 -253 0 -252 0 -279 0 *
Fa
0  1e-07 15 0

0111000
-259 0 -251 0 *
Ve
1e-07
-7.5 0.600000000000006 0
0 0

0101101
*
Ed
 1e-07 1 1 0
1  31 0 -30 10
4 C0 19 0 2 0
0

0101000
+254 0 -249 0 *
Ve
1e-07
-7.5 -7.5 0
0 0

0101101
*
Ed
 1e-07 1 1 0
1  32 0 -10 30
4 C0 19 0 7 0
0

0101000
+247 0 -256 0 *
Ed
 1e-07 1 1 0
1  33 0 -1.6126523048926 6.48734769510741
4 C0 19 0 20 0
0

0101000
+249 0 -247 0 *
Wi

0101100
-248 0 +253 0 -246 0 -245 0 *
Fa
0  1e-07 19 0

0111000
+244 0 *
Ve
1e-07
-17.5 0.600000000000006 1.26134454443705e-15
0 0

0101101
*
Ed
 1e-07 1 1 0
1  34 0 10 20
4 C0 2 0 20 0
0

0101000
+242 0 -249 0 *
Ve
1e-07
-27.5 0.600000000000006 10
0 0

0101101
*
Ed
 1e-07 1 1 0
1  35 0 4.71238898038469 6.28318530717959
2  39 21 0 4.71238898038469 6.28318530717959
4 C0 2 0 21 0
0

0101000
+242 0 -240 0 *
Ve
1e-07
-27.5 0.600000000000007 70
0 0

0101101
*
Ed
 1e-07 1 1 0
1  36 0 10 70
4 C0 2 0 22 0
0

0101000
+240 0 -238 0 *
Ve
1e-07
-17.5 0.600000000000005 80
0 0

0101101
*
Ed
 1e-07 1 1 0
1  37 0 0 1.5707963267949
2  40 23 0 0 1.5707963267949
4 C0 2 0 23 0
0

0101000
+238 0 -236 0 *
Ed
 1e-07 1 1 0
1  38 0 10 20.0240385233737
4 C0 2 0 16 0
0

0101000
+236 0 -278 0 *
Wi

0101100
+252 0 +248 0 -241 0 +239 0 +237 0 +235 0 +234 0 -277 0 *
Ed
 1e-07 1 1 0
1  39 0 3.14159265358979 6.28318530717959
2  41 3 0 3.14159265358979 6.28318530717959
4 C0 2 0 3 0
0

0101000
+322 0 -323 0 *
Wi

0101100
+321 0 +232 0 *
Ed
 1e-07 1 1 0
1  40 0 3.14159265358979 6.28318530717959
2  42 9 0 3.14159265358979 6.28318530717959
4 C0 2 0 9 0
0

0101000
+302 0 -303 0 *
Wi

0101100
+301 0 +230 0 *
Fa
0  1e-07 2 0

0111000
+233 0 +231 0 +229 0 *
Ve
1e-07
-1.95891166535708e-15 -7.5 80
0 0

0101101
*
Ed
 1e-07 1 1 0
1  41 0 0 1.5707963267949
2  43 14 0 0 1.5707963267949
4 C0 14 0 16 0
0

0101000
+282 0 -227 0 *
Ed
 1e-07 1 1 0
1  42 0 40 80
2  44 14 0 40 80
4 G1 14 0 7 0
0

0101000
+258 0 -227 0 *
Wi

0101100
+281 0 +226 0 -225 0 +257 0 *
Fa
0  1e-07 14 0

0111000
+224 0 *
Ed
 1e-07 1 1 0
1  43 0 0 3.14159265358979
2  45 12 0 0 3.14159265358979
4 C0 12 0 7 0
0

0101000
+288 0 -290 0 *
Ed
 1e-07 1 1 0
1  44 0 0 3.14159265358979
2  46 12 0 0 3.14159265358979
4 C0 12 0 10 0
0

0101000
+292 0 -293 0 *
Wi

0101100
+222 0 -289 0 -221 0 -286 0 *
Fa
0  1e-07 12 0

0111000
+220 0 *
Ed
 1e-07 1 1 0
1  45 0 3.14159265358979 6.28318530717959
2  47 9 0 3.14159265358979 6.28318530717959
4 C0 9 0 10 0
0

0101000
+300 0 -298 0 *
Wi

0101100
-218 0 -299 0 +230 0 -296 0 *
Fa
0  1e-07 9 0

0111000
+217 0 *
Wi

0101100
-221 0 -291 0 *
Wi

0101100
-297 0 -218 0 *
Fa
0  1e-07 10 0

0111000
-215 0 -214 0 *
Ed
 1e-07 1 1 0
1  46 0 0 3.14159265358979
2  48 6 0 0 3.14159265358979
4 C0 6 0 7 0
0

0101000
+308 0 -310 0 *
Ed
 1e-07 1 1 0
1  47 0 0 3.14159265358979
2  49 6 0 0 3.14159265358979
4 C0 6 0 4 0
0

0101000
+312 0 -313 0 *
Wi

0101100
+212 0 -309 0 -211 0 -306 0 *
Fa
0  1e-07 6 0

0111000
+210 0 *
Ed
 1e-07 1 1 0
1  48 0 3.14159265358979 6.28318530717959
2  50 3 0 3.14159265358979 6.28318530717959
4 C0 3 0 4 0
0

0101000
+320 0 -318 0 *
Wi

0101100
-208 0 -319 0 +232 0 -316 0 *
Fa
0  1e-07 3 0

0111000
+207 0 *
Wi

0101100
-211 0 -311 0 *
Wi

0101100
-317 0 -208 0 *
Fa
0  1e-07 4 0

0111000
-205 0 -204 0 *
Ve
1e-07
-17.5 -7.5 7.65378971138986e-16
0 0

0101101
*
Ed
 1e-07 1 1 0
1  49 0 -4.25 3.85000000000001
2  51 21 0 -4.25 3.85000000000001
4 G1 21 0 20 0
0

0101000
+202 0 -242 0 *
Ve
1e-07
-27.5 -7.5 10
0 0

0101101
*
Ed
 1e-07 1 1 0
1  50 0 0 1.5707963267949
2  52 21 0 0 1.5707963267949
4 C0 21 0 7 0
0

0101000
+200 0 -202 0 *
Ed
 1e-07 1 1 0
1  51 0 -4.05000000000001 4.05
2  53 21 0 -4.05000000000001 4.05
4 G1 21 0 22 0
0

0101000
+200 0 -240 0 *
Wi

0101100
-239 0 -201 0 -199 0 +198 0 *
Fa
0  1e-07 21 0

0111000
+197 0 *
Ve
1e-07
-27.5 -7.49999999999999 70
0 0

0101101
*
Ed
 1e-07 1 1 0
1  52 0 10 70
4 C0 22 0 7 0
0

0101000
+200 0 -195 0 *
Ed
 1e-07 1 1 0
1  53 0 -4.05 4.05
2  54 23 0 -4.05 4.05
4 G1 22 0 23 0
0

0101000
+238 0 -195 0 *
Wi

0101100
-198 0 +194 0 -193 0 -237 0 *
Fa
0  1e-07 22 0

0111000
+192 0 *
Ve
1e-07
-17.5 -7.5 80
0 0

0101101
*
Ed
 1e-07 1 1 0
1  54 0 4.71238898038469 6.28318530717959
2  55 23 0 4.71238898038469 6.28318530717959
4 C0 23 0 7 0
0

0101000
+190 0 -195 0 *
Ed
 1e-07 1 1 0
1  55 0 -3.80000000000001 4.3
2  56 23 0 -3.80000000000001 4.3
4 G1 23 0 16 0
0

0101000
+236 0 -190 0 *
Wi

0101100
-235 0 +193 0 -189 0 -188 0 *
Fa
0  1e-07 23 0

0111000
+187 0 *
Wi

0101100
+263 0 +267 0 *
Ed
 1e-07 1 1 0
1  56 0 0 17.5
4 C0 16 0 7 0
0

0101000
+227 0 -190 0 *
Wi

0101100
+188 0 -184 0 -226 0 -276 0 -234 0 *
Fa
0  1e-07 16 0

0111000
+185 0 +183 0 *
Ed
 1e-07 1 1 0
1  57 0 7.5 17.5
4 C0 7 0 20 0
0

0101000
+247 0 -202 0 *
Wi

0101100
+255 0 +225 0 +184 0 +189 0 -194 0 +199 0 -181 0 +246 0 *
Wi

0101100
+222 0 +287 0 *
Wi

0101100
+212 0 +307 0 *
Fa
0  1e-07 7 0

0111000
+180 0 +179 0 +178 0 *
Wi

0101100
+245 0 +181 0 +201 0 +241 0 *
Fa
0  1e-07 20 0

0111000
-176 0 *
Sh

0101100
-314 0 -304 0 -294 0 -284 0 +274 0 -264 0 -260 0 -250 0 +243 0 +228 0 
+223 0 -219 0 -216 0 -213 0 -209 0 -206 0 -203 0 +196 0 +191 0 +186 0 
+182 0 +177 0 -175 0 *
So

0100000
+174 0 *
Ve
1e-07
-7.49999999999999 -8.78655058867556e-16 39
0 0

0101101
*
Ve
1e-07
-7.49999999999999 -8.78655058867556e-16 -9.17718822155283e-16
0 0

0101101
*
Ed
 1e-07 1 1 0
1  58 0 -19.5 19.5
2  57 24 0 -19.5 19.5
2  58 25 0 -19.5 19.5
4 CN 24 0 25 0
0

0101000
+172 0 -171 0 *
Ve
1e-07
7.47596147662627 0.600000000000002 39
0 0

0101101
*
Ed
 1e-07 1 1 0
1  59 0 0 3.06150707355613
2  59 24 0 0 3.06150707355613
4 C0 24 0 26 0
0

0101000
+172 0 -169 0 *
Ve
1e-07
7.47596147662628 0.600000000000002 0
0 0

0101101
*
Ed
 1e-07 1 1 0
1  60 0 41 80
2  60 24 0 41 80
4 C0 24 0 27 0
0

0101000
+169 0 -167 0 *
Ed
 1e-07 1 1 0
1  61 0 3.22167823362345 6.28318530717959
2  61 24 0 3.22167823362345 6.28318530717959
4 C0 24 0 28 0
0

0101000
+167 0 -171 0 *
Wi

0101100
-170 0 +168 0 +166 0 +165 0 *
Fa
0  1e-07 24 0

0111000
+164 0 *
Ve
1e-07
4.1 0 0
0 0

0101101
*
Ve
1e-07
-4.1 5.02088605067175e-16 -5.02088605067175e-16
0 0

0101101
*
Ed
 1e-07 1 1 0
1  62 0 0 3.14159265358979
2  62 29 0 0 3.14159265358979
4 C0 29 0 28 0
0

0101000
+162 0 -161 0 *
Ve
1e-07
-4.1 5.02088605067175e-16 39
0 0

0101101
*
Ed
 1e-07 1 1 0
1  63 0 -19.5 19.5
2  63 29 0 -19.5 19.5
2  64 30 0 -19.5 19.5
4 CN 29 0 30 0
0

0101000
+161 0 -159 0 *
Ve
1e-07
4.1 0 39
0 0

0101101
*
Ed
 1e-07 1 1 0
1  64 0 3.14159265358979 6.28318530717959
2  65 29 0 3.14159265358979 6.28318530717959
4 C0 29 0 26 0
0

0101000
+159 0 -157 0 *
Ed
 1e-07 1 1 0
1  65 0 -19.5 19.5
2  66 29 0 -19.5 19.5
2  67 30 0 -19.5 19.5
4 CN 29 0 30 0
0

0101000
+157 0 -162 0 *
Wi

0101100
+160 0 +158 0 +156 0 +155 0 *
Fa
0  1e-07 29 0

0111000
+154 0 *
Ve
1e-07
17.75 0.6 18.5
0 0

0101101
*
Ve
1e-07
8.25 0.600000000000002 18.5
0 0

0101101
*
Ed
 1e-07 1 1 0
1  66 0 0 3.14159265358979
2  68 31 0 0 3.14159265358979
4 C0 31 0 27 0
0

0101000
+152 0 -151 0 *
Ve
1e-07
8.25 -3.5 18.5
0 0

0101101
*
Ed
 1e-07 1 1 0
1  67 0 -2.05 2.05
2  69 31 0 -2.05 2.05
2  70 32 0 -2.05 2.05
4 CN 31 0 32 0
0

0101000
+151 0 -149 0 *
Ve
1e-07
17.75 -3.5 18.5
0 0

0101101
*
Ed
 1e-07 1 1 0
1  68 0 0 3.14159265358979
2  71 31 0 0 3.14159265358979
4 C0 31 0 33 0
0

0101000
+147 0 -149 0 *
Ed
 1e-07 1 1 0
1  69 0 -2.05 2.05
2  72 31 0 -2.05 2.05
2  73 32 0 -2.05 2.05
4 CN 31 0 32 0
0

0101000
+147 0 -152 0 *
Wi

0101100
+150 0 +148 0 -146 0 +145 0 *
Fa
0  1e-07 31 0

0111000
+144 0 *
Ve
1e-07
10.25 -3.5 18.5
0 0

0101101
*
Ve
1e-07
15.75 -3.5 18.5
0 0

0101101
*
Ed
 1e-07 1 1 0
1  70 0 3.14159265358979 6.28318530717959
2  74 34 0 3.14159265358979 6.28318530717959
4 C0 34 0 33 0
0

0101000
+142 0 -141 0 *
Ve
1e-07
10.25 -7.5 18.5
0 0

0101101
*
Ed
 1e-07 1 1 0
1  71 0 -2 2
2  75 34 0 -2 2
2  76 35 0 -2 2
4 CN 34 0 35 0
0

0101000
+142 0 -139 0 *
Ve
1e-07
15.75 -7.5 18.5
0 0

0101101
*
Ed
 1e-07 1 1 0
1  72 0 3.14159265358979 6.28318530717959
2  77 34 0 3.14159265358979 6.28318530717959
4 C0 34 0 36 0
0

0101000
+139 0 -137 0 *
Ed
 1e-07 1 1 0
1  73 0 -2 2
2  78 34 0 -2 2
2  79 35 0 -2 2
4 CN 34 0 35 0
0

0101000
+137 0 -141 0 *
Wi

0101100
-140 0 +138 0 +136 0 +135 0 *
Fa
0  1e-07 34 0

0111000
+134 0 *
Ve
1e-07
17.75 0.6 61.5
0 0

0101101
*
Ve
1e-07
8.25 0.600000000000002 61.5
0 0

0101101
*
Ed
 1e-07 1 1 0
1  74 0 0 3.14159265358979
2  80 37 0 0 3.14159265358979
4 C0 37 0 27 0
0

0101000
+132 0 -131 0 *
Ve
1e-07
8.25 -3.5 61.5
0 0

0101101
*
Ed
 1e-07 1 1 0
1  75 0 -2.05 2.05
2  81 37 0 -2.05 2.05
2  82 38 0 -2.05 2.05
4 CN 37 0 38 0
0

0101000
+131 0 -129 0 *
Ve
1e-07
17.75 -3.5 61.5
0 0

0101101
*
Ed
 1e-07 1 1 0
1  76 0 0 3.14159265358979
2  83 37 0 0 3.14159265358979
4 C0 37 0 39 0
0

0101000
+127 0 -129 0 *
Ed
 1e-07 1 1 0
1  77 0 -2.05 2.05
2  84 37 0 -2.05 2.05
2  85 38 0 -2.05 2.05
4 CN 37 0 38 0
0

0101000
+127 0 -132 0 *
Wi

0101100
+130 0 +128 0 -126 0 +125 0 *
Fa
0  1e-07 37 0

0111000
+124 0 *
Ve
1e-07
10.25 -3.5 61.5
0 0

0101101
*
Ve
1e-07
15.75 -3.5 61.5
0 0

0101101
*
Ed
 1e-07 1 1 0
1  78 0 3.14159265358979 6.28318530717959
2  86 40 0 3.14159265358979 6.28318530717959
4 C0 40 0 39 0
0

0101000
+122 0 -121 0 *
Ve
1e-07
10.25 -7.5 61.5
0 0

0101101
*
Ed
 1e-07 1 1 0
1  79 0 -2 2
2  87 40 0 -2 2
2  88 41 0 -2 2
4 CN 40 0 41 0
0

0101000
+122 0 -119 0 *
Ve
1e-07
15.75 -7.5 61.5
0 0

0101101
*
Ed
 1e-07 1 1 0
1  80 0 3.14159265358979 6.28318530717959
2  89 40 0 3.14159265358979 6.28318530717959
4 C0 40 0 36 0
0

0101000
+119 0 -117 0 *
Ed
 1e-07 1 1 0
1  81 0 -2 2
2  90 40 0 -2 2
2  91 41 0 -2 2
4 CN 40 0 41 0
0

0101000
+117 0 -121 0 *
Wi

0101100
-120 0 +118 0 +116 0 +115 0 *
Fa
0  1e-07 40 0

0111000
+114 0 *
Ed
 1e-07 1 1 0
1  82 0 0 3.14159265358979
2  92 41 0 0 3.14159265358979
4 C0 41 0 36 0
0

0101000
+117 0 -119 0 *
Ed
 1e-07 1 1 0
1  83 0 0 3.14159265358979
2  93 41 0 0 3.14159265358979
4 C0 41 0 39 0
0

0101000
+121 0 -122 0 *
Wi

0101100
+112 0 -118 0 -111 0 -115 0 *
Fa
0  1e-07 41 0

0111000
+110 0 *
Ed
 1e-07 1 1 0
1  84 0 3.14159265358979 6.28318530717959
2  94 38 0 3.14159265358979 6.28318530717959
4 C0 38 0 39 0
0

0101000
+129 0 -127 0 *
Ed
 1e-07 1 1 0
1  85 0 3.14159265358979 6.28318530717959
2  95 38 0 3.14159265358979 6.28318530717959
4 C0 38 0 27 0
0

0101000
+131 0 -132 0 *
Wi

0101100
-108 0 -128 0 +107 0 -125 0 *
Fa
0  1e-07 38 0

0111000
+106 0 *
Wi

0101100
-111 0 -120 0 *
Wi

0101100
-126 0 -108 0 *
Fa
0  1e-07 39 0

0111000
-104 0 -103 0 *
Ed
 1e-07 1 1 0
1  86 0 0 3.14159265358979
2  96 35 0 0 3.14159265358979
4 C0 35 0 36 0
0

0101000
+137 0 -139 0 *
Ed
 1e-07 1 1 0
1  87 0 0 3.14159265358979
2  97 35 0 0 3.14159265358979
4 C0 35 0 33 0
0

0101000
+141 0 -142 0 *
Wi

0101100
+101 0 -138 0 -100 0 -135 0 *
Fa
0  1e-07 35 0

0111000
+99 0 *
Ed
 1e-07 1 1 0
1  88 0 3.14159265358979 6.28318530717959
2  98 32 0 3.14159265358979 6.28318530717959
4 C0 32 0 33 0
0

0101000
+149 0 -147 0 *
Ed
 1e-07 1 1 0
1  89 0 3.14159265358979 6.28318530717959
2  99 32 0 3.14159265358979 6.28318530717959
4 C0 32 0 27 0
0

0101000
+151 0 -152 0 *
Wi

0101100
-97 0 -148 0 +96 0 -145 0 *
Fa
0  1e-07 32 0

0111000
+95 0 *
Wi

0101100
-100 0 -140 0 *
Wi

0101100
-146 0 -97 0 *
Fa
0  1e-07 33 0

0111000
-93 0 -92 0 *
Ve
1e-07
20.5 -7.5 70
0 0

0101101
*
Ve
1e-07
10.5 -7.5 80
0 0

0101101
*
Ed
 1e-07 1 1 0
1  90 0 0 1.5707963267949
2  100 42 0 0 1.5707963267949
4 C0 42 0 36 0
0

0101000
+90 0 -89 0 *
Ve
1e-07
20.5 0.600000000000002 70
0 0

0101101
*
Ed
 1e-07 1 1 0
1  91 0 -4.05 4.05
2  101 42 0 -4.05 4.05
4 G1 42 0 43 0
0

0101000
+90 0 -87 0 *
Ve
1e-07
10.5 0.600000000000002 80
0 0

0101101
*
Ed
 1e-07 1 1 0
1  92 0 4.71238898038469 6.28318530717959
2  102 42 0 4.71238898038469 6.28318530717959
4 C0 42 0 27 0
0

0101000
+85 0 -87 0 *
Ed
 1e-07 1 1 0
1  93 0 -4.05 4.05
2  103 42 0 -4.05 4.05
4 G1 42 0 44 0
0

0101000
+89 0 -85 0 *
Wi

0101100
-88 0 +86 0 -84 0 -83 0 *
Fa
0  1e-07 42 0

0111000
+82 0 *
Wi

0101100
+112 0 +116 0 *
Wi

0101100
+101 0 +136 0 *
Ve
1e-07
7.5 -7.5 80
0 0

0101101
*
Ed
 1e-07 1 1 0
1  94 0 7.5 10.5
4 C0 36 0 44 0
0

0101000
+78 0 -89 0 *
Ve
1e-07
7.5 -7.5 39
0 0

0101101
*
Ed
 1e-07 1 1 0
1  95 0 -10.25 30.75
4 C0 36 0 45 0
0

0101000
+78 0 -76 0 *
Ve
1e-07
5.02088605067175e-15 -7.5 39
0 0

0101101
*
Ed
 1e-07 1 1 0
1  96 0 -2.375 5.12499999999999
4 C0 36 0 26 0
0

0101000
+76 0 -74 0 *
Ve
1e-07
9.33762344789563e-15 -7.5 0
0 0

0101101
*
Ed
 1e-07 1 1 0
1  97 0 41 80
2  104 25 0 41 80
4 G1 36 0 25 0
0

0101000
+74 0 -72 0 *
Ve
1e-07
10.5 -7.5 -1.10214571844014e-16
0 0

0101101
*
Ed
 1e-07 1 1 0
1  98 0 -1.89075104759357e-15 10.5
4 C0 36 0 28 0
0

0101000
+72 0 -70 0 *
Ve
1e-07
20.5 -7.5 10
0 0

0101101
*
Ed
 1e-07 1 1 0
1  99 0 4.71238898038469 6.28318530717959
2  105 46 0 4.71238898038469 6.28318530717959
4 C0 36 0 46 0
0

0101000
+70 0 -68 0 *
Ed
 1e-07 1 1 0
1  100 0 10 70
4 C0 36 0 43 0
0

0101000
+90 0 -68 0 *
Wi

0101100
+88 0 -77 0 +75 0 +73 0 +71 0 +69 0 +67 0 -66 0 *
Fa
0  1e-07 36 0

0111000
+80 0 +79 0 +65 0 *
Ve
1e-07
7.5 0.600000000000002 80
0 0

0101101
*
Ed
 1e-07 1 1 0
1  101 0 10 13
4 C0 44 0 27 0
0

0101000
+85 0 -63 0 *
Ed
 1e-07 1 1 0
1  102 0 -1.48205980663338 6.61794019336662
4 C0 44 0 45 0
0

0101000
+63 0 -78 0 *
Wi

0101100
+83 0 +62 0 +61 0 +77 0 *
Fa
0  1e-07 44 0

0111000
-60 0 *
Ve
1e-07
20.5 0.600000000000001 10
0 0

0101101
*
Ve
1e-07
10.5 0.600000000000003 -1.5981112917382e-15
0 0

0101101
*
Ed
 1e-07 1 1 0
1  103 0 0 1.5707963267949
2  106 46 0 0 1.5707963267949
4 C0 46 0 27 0
0

0101000
+58 0 -57 0 *
Ed
 1e-07 1 1 0
1  104 0 -4.05 4.05
2  107 46 0 -4.05 4.05
4 G1 46 0 43 0
0

0101000
+58 0 -68 0 *
Ed
 1e-07 1 1 0
1  105 0 -3.85 4.25
2  108 46 0 -3.85 4.25
4 G1 46 0 28 0
0

0101000
+57 0 -70 0 *
Wi

0101100
-56 0 +55 0 -67 0 -54 0 *
Fa
0  1e-07 46 0

0111000
+53 0 *
Wi

0101100
+130 0 +107 0 *
Wi

0101100
+150 0 +96 0 *
Ed
 1e-07 1 1 0
1  106 0 10 70
4 C0 27 0 43 0
0

0101000
+87 0 -58 0 *
Ed
 1e-07 1 1 0
1  107 0 10 13.0240385233737
4 C0 27 0 28 0
0

0101000
+57 0 -167 0 *
Ve
1e-07
7.5 0.600000000000002 39
0 0

0101101
*
Ed
 1e-07 1 1 0
1  108 0 0.4819711074697 0.50600963084343
4 C0 27 0 26 0
0

0101000
+169 0 -47 0 *
Ed
 1e-07 1 1 0
1  109 0 -30.75 10.25
4 C0 27 0 45 0
0

0101000
+47 0 -63 0 *
Wi

0101100
+84 0 +49 0 +56 0 +48 0 -166 0 +46 0 +45 0 -62 0 *
Fa
0  1e-07 27 0

0111000
+51 0 +50 0 +44 0 *
Ed
 1e-07 1 1 0
1  110 0 0 1.5707963267949
2  109 25 0 0 1.5707963267949
4 C0 28 0 25 0
0

0101000
+171 0 -72 0 *
Wi

0101100
+54 0 -69 0 -42 0 -165 0 -48 0 *
Ed
 1e-07 1 1 0
1  111 0 3.14159265358979 6.28318530717959
2  110 30 0 3.14159265358979 6.28318530717959
4 C0 28 0 30 0
0

0101000
+161 0 -162 0 *
Wi

0101100
+160 0 +40 0 *
Fa
0  1e-07 28 0

0111000
+41 0 +39 0 *
Ed
 1e-07 1 1 0
1  112 0 0 3.14159265358979
2  111 30 0 0 3.14159265358979
4 C0 30 0 26 0
0

0101000
+157 0 -159 0 *
Wi

0101100
+37 0 -158 0 +40 0 -155 0 *
Fa
0  1e-07 30 0

0111000
+36 0 *
Ed
 1e-07 1 1 0
1  113 0 -0.600000000000002 7.5
4 C0 45 0 26 0
0

0101000
+47 0 -76 0 *
Wi

0101100
-45 0 +34 0 -75 0 -61 0 *
Fa
0  1e-07 45 0

0111000
+33 0 *
Wi

0101100
+37 0 +156 0 *
Ed
 1e-07 1 1 0
1  114 0 4.71238898038469 6.28318530717959
2  112 25 0 4.71238898038469 6.28318530717959
4 C0 26 0 25 0
0

0101000
+74 0 -172 0 *
Wi

0101100
-46 0 -168 0 -30 0 -73 0 -34 0 *
Fa
0  1e-07 26 0

0111000
+31 0 +29 0 *
Wi

0101100
+170 0 +42 0 -71 0 +30 0 *
Fa
0  1e-07 25 0

0111000
+27 0 *
Wi

0101100
-86 0 +66 0 -55 0 -49 0 *
Fa
0  1e-07 43 0

0111000
+25 0 *
Sh

0101100
+163 0 -153 0 -143 0 -133 0 -123 0 -113 0 -109 0 -105 0 -102 0 -98 0 
-94 0 -91 0 +81 0 +64 0 -59 0 +52 0 +43 0 +38 0 -35 0 +32 0 
+28 0 +26 0 +24 0 *
So

0100000
+23 0 *
Ve
1e-07
4 0 -1.5
0 0

0101101
*
Ve
1e-07
4 0 80
0 0

0101101
*
Ed
 1e-07 1 1 0
1  115 0 -40.75 40.75
2  113 47 0 -40.75 40.75
2  114 48 0 -40.75 40.75
4 CN 47 0 48 0
0

0101000
+21 0 -20 0 *
Ve
1e-07
-4 4.89842541528951e-16 -1.5
0 0

0101101
*
Ed
 1e-07 1 1 0
1  116 0 3.14159265358979 6.28318530717959
2  115 47 0 3.14159265358979 6.28318530717959
4 C0 47 0 49 0
0

0101000
+18 0 -21 0 *
Ve
1e-07
-4 4.89842541528951e-16 80
0 0

0101101
*
Ed
 1e-07 1 1 0
1  117 0 -40.75 40.75
2  116 47 0 -40.75 40.75
2  117 48 0 -40.75 40.75
4 CN 47 0 48 0
0

0101000
+16 0 -18 0 *
Ed
 1e-07 1 1 0
1  118 0 0 3.14159265358979
2  118 47 0 0 3.14159265358979
4 C0 47 0 50 0
0

0101000
+20 0 -16 0 *
Wi

0101100
-19 0 -17 0 -15 0 -14 0 *
Fa
0  1e-07 47 0

0111000
+13 0 *
Ed
 1e-07 1 1 0
1  119 0 3.14159265358979 6.28318530717959
2  119 48 0 3.14159265358979 6.28318530717959
4 C0 48 0 50 0
0

0101000
+16 0 -20 0 *
Ed
 1e-07 1 1 0
1  120 0 0 3.14159265358979
2  120 48 0 0 3.14159265358979
4 C0 48 0 49 0
0

0101000
+21 0 -18 0 *
Wi

0101100
+19 0 -11 0 +15 0 -10 0 *
Fa
0  1e-07 48 0

0111000
+9 0 *
Wi

0101100
+10 0 +17 0 *
Fa
0  1e-07 49 0

0111000
+7 0 *
Wi

0101100
+14 0 +11 0 *
Fa
0  1e-07 50 0

0111000
+5 0 *
Sh

0101100
+12 0 +8 0 +6 0 +4 0 *
So

0100000
+3 0 *
Co

1100000
+173 0 +22 0 +2 0 *

+1 0 