DBRep_DrawableShape

CASCADE Topology V1, (c) Matra-Datavision
Locations 0
Curve2ds 192
1 0 -0.375 1 0 
1 6.2831853071795862 -1.9445436482630054 -1 0 
1 3.1415926535897931 0 0 1 
1 3.1415926535897931 0 0 1 
1 6.2831853071795862 0.37499999999999734 -1 5.6543194337129189e-16 
1 0 0 0 -1 
1 6.2831853071795862 0 0 -1 
1 6.2831853071795862 1.9445436482630054 -1 1.4135798584282297e-16 
1 3.1415926535897931 -4.4408920985006262e-16 0 -1 
1 3.1415926535897931 -4.4408920985006262e-16 0 -1 
1 6.2831853071795862 2.2204460492503131e-16 0 1 
1 0 2.2204460492503131e-16 0 1 
1 0 -0.375 1 0 
1 6.2831853071795862 -1.9445436482630054 -1 0 
1 3.1415926535897931 0 0 1 
1 3.1415926535897931 0 0 1 
1 6.2831853071795862 0.37499999999999734 -1 5.6543194337129189e-16 
1 0 0 0 -1 
1 6.2831853071795862 0 0 -1 
1 6.2831853071795862 1.9445436482630054 -1 1.4135798584282297e-16 
1 3.1415926535897931 -4.4408920985006262e-16 0 -1 
1 3.1415926535897931 -4.4408920985006262e-16 0 -1 
1 6.2831853071795862 2.2204460492503131e-16 0 1 
1 0 2.2204460492503131e-16 0 1 
1 6.2831853071795862 12.75 -1 0 
1 3.1415926535897931 18.125 0 1 
1 3.1415926535897931 18.125 0 1 
1 6.2831853071795862 23.5 -1 0 
1 0 18.125 0 -1 
1 6.2831853071795862 18.125 0 -1 
1 6.2831853071795862 -10.75 -1 0 
1 3.1415926535897931 0 0 1 
1 3.1415926535897931 0 0 1 
1 6.2831853071795862 0 -1 0 
1 0 0 0 -1 
1 6.2831853071795862 0 0 -1 
1 3.1415926535897931 41.625 0 -1 
1 3.1415926535897931 41.625 0 -1 
1 0 36.25 1 0 
1 3.4462853076051903 0 0 1 
1 6.2831853071795862 47 -1 0 
1 0 41.625 0 1 
1 6.2831853071795862 41.625 0 1 
1 0 36.25 1 0 
1 6.2831853071795862 47 -1 0 
1 3.1415926535897931 18.125 0 -1 
1 3.1415926535897931 18.125 0 -1 
1 0 12.75 1 0 
1 3.4462853076051903 0 0 1 
1 6.2831853071795862 23.5 -1 0 
1 0 18.125 0 1 
1 6.2831853071795862 18.125 0 1 
1 0 12.75 1 0 
1 6.2831853071795862 23.5 -1 0 
1 6.2831853071795862 -10.75 -1 0 
1 0 12.75 1 0 
1 6.2831853071795862 23.5 -1 0 
1 4.7123889803846897 0 0 1 
1 6.2831853071795862 12.75 -1 0 
1 0 36.25 1 0 
1 6.2831853071795862 47 -1 0 
1 4.7123889803846897 0 0 1 
1 6.2831853071795862 0 -1 0 
1 6.2831853071795862 23.5 -1 0 
1 6.2831853071795862 1.9445436482630063 -1 -1.4135798584282297e-16 
1 6.2831853071795862 1.9445436482630063 -1 -1.4135798584282297e-16 
1 6.2831853071795862 -1.9445436482630054 -1 0 
1 0 -0.375 1 0 
1 6.2831853071795862 0.37500000000000089 -1 -5.6543194337129189e-16 
1 6.2831853071795862 -1.9445436482630054 -1 0 
1 0 -0.375 1 0 
1 6.2831853071795862 0.37500000000000089 -1 -5.6543194337129189e-16 
1 0 -0.375 1 0 
1 6.2831853071795862 -1.9445436482630054 -1 0 
1 3.1415926535897931 0 0 1 
1 3.1415926535897931 0 0 1 
1 6.2831853071795862 0.37499999999999734 -1 5.6543194337129189e-16 
1 0 0 0 -1 
1 6.2831853071795862 0 0 -1 
1 6.2831853071795862 1.9445436482630054 -1 -2.8271597168564594e-16 
1 3.1415926535897931 -1.7763568394002505e-15 0 -1 
1 3.1415926535897931 -1.7763568394002505e-15 0 -1 
1 6.2831853071795862 2.2204460492503131e-16 0 1 
1 0 2.2204460492503131e-16 0 1 
1 0 -0.375 1 0 
1 6.2831853071795862 -1.9445436482630054 -1 0 
1 3.1415926535897931 0 0 1 
1 3.1415926535897931 0 0 1 
1 6.2831853071795862 0.37499999999999734 -1 5.6543194337129189e-16 
1 0 0 0 -1 
1 6.2831853071795862 0 0 -1 
1 6.2831853071795862 1.9445436482630054 -1 1.4135798584282297e-16 
1 3.1415926535897931 -4.4408920985006262e-16 0 -1 
1 3.1415926535897931 -4.4408920985006262e-16 0 -1 
1 6.2831853071795862 2.2204460492503131e-16 0 1 
1 0 2.2204460492503131e-16 0 1 
1 3.1415926535897931 41.125 0 -1 
1 3.1415926535897931 41.125 0 -1 
1 0 35.25 1 0 
1 3.4462853076051903 0 0 1 
1 6.2831853071795862 47 -1 0 
1 0 41.125 0 1 
1 6.2831853071795862 41.125 0 1 
1 0 35.25 1 0 
1 6.2831853071795862 47 -1 0 
1 0 11.75 1 0 
1 3.1415926535897931 17.625 0 1 
1 3.1415926535897931 17.625 0 1 
1 6.2831853071795862 23.5 -1 0 
1 0 17.625 0 -1 
1 6.2831853071795862 17.625 0 -1 
1 0 -11.75 1 0 
1 3.1415926535897931 -6.375 0 1 
1 3.1415926535897931 -6.375 0 1 
1 0 -1.0000000000000002 1 1.7669748230352872e-16 
1 0 -6.375 0 -1 
1 6.2831853071795862 -6.375 0 -1 
1 3.1415926535897931 17.125 0 -1 
1 3.1415926535897931 17.125 0 -1 
1 0 11.75 1 0 
1 3.4462853076051903 0 0 1 
1 6.2831853071795862 22.5 -1 0 
1 0 17.125 0 1 
1 6.2831853071795862 17.125 0 1 
1 0 11.75 1 0 
1 6.2831853071795862 22.5 -1 0 
1 6.2831853071795862 22.5 -1 0 
1 0 -0.99999999999999911 1 -1.7669748230352872e-16 
1 4.7123889803846897 0 0 1 
1 0 11.75 1 0 
1 0 -11.75 1 0 
1 6.2831853071795862 23.5 -1 0 
1 0 11.75 1 0 
1 0 35.25 1 0 
1 6.2831853071795862 1.9445436482630036 -1 2.8271597168564594e-16 
1 6.2831853071795862 1.9445436482630063 -1 -1.4135798584282297e-16 
1 6.2831853071795862 47 -1 0 
1 4.7123889803846897 0 0 1 
1 6.2831853071795862 -1.9445436482630054 -1 0 
1 0 -0.375 1 0 
1 6.2831853071795862 0.37500000000000089 -1 -5.6543194337129189e-16 
1 6.2831853071795862 -1.9445436482630054 -1 0 
1 0 -0.375 1 0 
1 6.2831853071795862 0.37500000000000089 -1 -5.6543194337129189e-16 
1 0 0 0 1 
1 6.2831853071795862 0 0 1 
1 0 -23.539999999999999 1 0 
1 6.2831853071795862 0.28379410920832621 -1 0 
1 3.1415926535897931 0 0 -1 
1 3.1415926535897931 0 0 -1 
1 6.2831853071795862 23.539999999999999 -1 0 
1 6.2831853071795862 0.28379410920832621 -1 0 
1 3.1415926535897931 -1.6653345369377348e-16 0 1 
1 3.1415926535897931 -1.6653345369377348e-16 0 1 
1 6.2831853071795862 0.28379410920832621 -1 0 
1 6.2831853071795862 23.539999999999999 -1 0 
1 6.2831853071795862 6.2831853071795862 0 -1 
1 0 6.2831853071795862 0 -1 
1 1.5707963267948966 1.5707963267948966 1 0 
1 0 -0.625 1 0 
1 1.5707963267948966 1.5707963267948966 1 0 
1 0 -0.625 1 0 
1 6.2831853071795862 -0.39000000000000057 0 -1 
1 0 -0.39000000000000057 0 -1 
1 0 -0.15500000000000114 1 0 
1 3.1415926535897931 -0.39000000000000057 0 1 
1 3.1415926535897931 -0.39000000000000057 0 1 
1 0 -0.625 1 0 
1 -4.7123889803846897 1.5707963267948966 1 0 
1 3.1415926535897931 -1.6653345369377348e-16 0 1 
1 3.1415926535897931 -1.6653345369377348e-16 0 1 
1 6.2831853071795862 6.2831853071795862 0 -1 
1 0 6.2831853071795862 0 -1 
1 1.5707963267948966 1.5707963267948966 1 0 
1 0 -0.625 1 0 
1 1.5707963267948966 1.5707963267948966 1 0 
1 0 -0.625 1 0 
1 6.2831853071795862 -0.39000000000000057 0 -1 
1 0 -0.39000000000000057 0 -1 
1 0 -0.15500000000000114 1 0 
1 3.1415926535897931 -0.39000000000000057 0 1 
1 3.1415926535897931 -0.39000000000000057 0 1 
1 0 -0.625 1 0 
1 -4.7123889803846897 1.5707963267948966 1 0 
1 0 -0.625 1 0 
1 1.5707963267948966 1.5707963267948966 1 0 
1 0 -0.15500000000000114 1 0 
1 6.2831853071795862 0.28379410920832621 -1 0 
1 0 -23.539999999999999 1 0 
1 0 -0.625 1 0 
1 1.5707963267948966 1.5707963267948966 1 0 
1 0 -0.15500000000000114 1 0 
Curves 177
2 -10.5 -4.25 -12.5 6.12303176911189e-17 -1 0 1 6.12303176911189e-17 0 -0 0 1 2.75
1 -13.25 -4.625 -12.5 6.12303176911189e-17 -1 0 
2 -10.5 -5 -12.5 3.4540271877227098e-16 1 0 1 -3.4540271877227098e-16 0 0 0 -1 2.75
1 -7.75 -4.625 -12.5 -6.12303176911189e-17 1 -0 
2 -10.5 -1.5 -12.5 0 -1 0 1 0 0 -0 0 1 5.5
1 -14.625 -2.875 -12.5 0.70710678118654802 -0.70710678118654702 -0 
1 -6.375 -2.875 -12.5 0.70710678118654802 0.70710678118654702 0 
2 -10.5 -4.25 12.5 6.12303176911189e-17 -1 0 1 6.12303176911189e-17 0 -0 0 1 2.75
1 -13.25 -4.625 12.5 6.12303176911189e-17 -1 0 
2 -10.5 -5 12.5 3.4540271877227098e-16 1 0 1 -3.4540271877227098e-16 0 0 0 -1 2.75
1 -7.75 -4.625 12.5 -6.12303176911189e-17 1 -0 
2 -10.5 -1.5 12.5 0 -1 0 1 0 0 -0 0 1 5.5
1 -14.625 -2.875 12.5 0.70710678118654802 -0.70710678118654702 -0 
1 -6.375 -2.875 12.5 0.70710678118654802 0.70710678118654702 0 
2 0 0 12.75 0 0 -1 1 0 0 0 -1 0 2.5
1 -2.5 3.0615158845559402e-16 18.125 -0 0 1 
2 0 0 23.5 0 0 -1 1 0 0 0 -1 0 2.5
1 2.5 -3.0615158845559402e-16 18.125 -0 0 -1 
2 0 0 -10.75 0 0 -1 1 0 0 0 -1 0 2.5
1 -2.5 3.0615158845559402e-16 0 -0 0 1 
2 0 0 0 0 0 -1 1 0 0 0 -1 0 2.5
1 2.5 -3.0615158845559402e-16 0 -0 0 -1 
1 -5 7.22517748755203e-16 18.125 -0 -0 -1 
2 0 1.10214571844014e-16 12.75 0 0 1 1 0 -0 -0 1 0 5
1 -4.7696960070847298 -1.5 -23.5 0 0 1 
2 0 1.10214571844014e-16 23.5 0 0 -1 1 0 0 0 -1 0 5
1 5 -5.0208860506717495e-16 18.125 0 0 1 
2 0 1.10214571844014e-16 12.75 0 0 1 1 0 -0 -0 1 0 5
2 0 1.10214571844014e-16 23.5 0 0 -1 1 0 0 0 -1 0 5
1 -5 7.22517748755203e-16 -5.375 -0 -0 -1 
2 0 1.10214571844014e-16 -10.75 0 0 1 1 0 -0 -0 1 0 5
1 -4.7696960070847298 -1.5 -23.5 0 0 1 
2 0 1.10214571844014e-16 0 0 0 -1 1 0 0 0 -1 0 5
1 5 -5.0208860506717495e-16 -5.375 0 0 1 
2 0 1.10214571844014e-16 -10.75 0 0 1 1 0 -0 -0 1 0 5
2 0 1.10214571844014e-16 0 0 0 -1 1 0 0 0 -1 0 5
2 0 0 -10.75 0 0 -1 1 0 0 0 -1 0 2.5
1 -5.6924240017711796 -1.5 -10.75 -1 0 0 
2 0 1.10214571844014e-16 -10.75 0 0 1 1 0 -0 -0 1 0 5
1 -4.5 -5 -10.75 1 -3.4540271877227098e-16 0 
1 -5 0 -10.75 0 -1 0 
2 0 1.10214571844014e-16 0 0 0 -1 1 0 0 0 -1 0 5
1 9.7725075405400601e-16 -5 -23.5 0 0 1 
2 0 0 12.75 0 0 -1 1 0 0 0 -1 0 2.5
1 -5.6924240017711796 -1.5 12.75 -1 0 0 
2 0 1.10214571844014e-16 12.75 0 0 1 1 0 -0 -0 1 0 5
1 -4.5 -5 12.75 1 -3.4540271877227098e-16 0 
1 -5 0 12.75 0 -1 0 
2 0 1.10214571844014e-16 23.5 0 0 -1 1 0 0 0 -1 0 5
1 9.7725075405400601e-16 -5 -23.5 0 0 1 
2 0 0 0 0 0 -1 1 0 0 0 -1 0 2.5
2 0 0 23.5 0 0 -1 1 0 0 0 -1 0 2.5
1 -5 -1.5 -5.625 0 0 -1 
1 -5 -1.5 -5.625 0 0 -1 
1 -5 -5 -5.625 -0 0 1 
1 -5 0 0 0 1 0 
1 -5.6924240017711796 -1.5 0 1 0 0 
1 -4.5 -5 0 -1 3.4540271877227098e-16 0 
2 -10.5 -1.5 -12.5 0 -1 0 1 0 0 -0 0 1 5.5
2 -10.5 -1.5 12.5 0 -1 0 1 0 0 -0 0 1 5.5
1 -5 -1.5 -17.375 0 0 -1 
1 -5 -1.5 -20.5625 0 0 -1 
1 -18 -1.5 -23.5 1 0 0 
1 -18 -1.5 -23.5 0 0 1 
1 -18 -1.5 23.5 1 0 0 
1 -5 -5 -17.375 -0 0 1 
1 -5 -0.89782684254364697 -23.5 0 -1 0 
2 -10.5 -4.25 12.5 6.12303176911189e-17 -1 0 1 6.12303176911189e-17 0 -0 0 1 2.75
2 -10.5 -5 12.5 3.4540271877227098e-16 1 0 1 -3.4540271877227098e-16 0 0 0 -1 2.75
2 -10.5 -4.25 -12.5 6.12303176911189e-17 -1 0 1 6.12303176911189e-17 0 -0 0 1 2.75
2 -10.5 -5 -12.5 3.4540271877227098e-16 1 0 1 -3.4540271877227098e-16 0 0 0 -1 2.75
1 -18 -5 23.5 0 1 0 
1 -18 -5 -23.5 0 1 0 
1 -18 -5 -23.5 0 0 1 
1 9.7725075405400601e-16 -5 23.5 -1 3.4540271877227098e-16 0 
1 9.7725075405400601e-16 -5 -23.5 -1 3.4540271877227098e-16 0 
2 10.5 -4.25 12.5 -6.12303176911189e-17 -1 -7.4983036091106899e-33 -1 6.12303176911189e-17 -1.22460635382238e-16 1.22460635382238e-16 -1.7789921910373654e-47 -1 2.75
1 13.25 -4.625 12.5 -6.12303176911189e-17 -1 -7.4983036091106899e-33 
2 10.5 -5 12.5 -3.4540271877227098e-16 1 -4.22982364036047e-32 -1 -3.4540271877227098e-16 -1.22460635382238e-16 -1.22460635382238e-16 -6.56858655152258e-47 1 2.75
1 7.75 -4.625 12.5 6.12303176911189e-17 1 7.4983036091106899e-33 
2 10.5 -1.5 12.5 0 -1 -0 -1 0 -1.22460635382238e-16 1.22460635382238e-16 0 -1 5.5
1 14.625 -2.875 12.5 -0.70710678118654802 -0.70710678118654702 -5.3021013293977297e-33 
1 6.375 -2.875 12.5 -0.70710678118654802 0.70710678118654702 5.3021013293977297e-33 
2 10.5 -4.25 -12.5 -6.12303176911189e-17 -1 -7.4983036091106899e-33 -1 6.12303176911189e-17 -1.22460635382238e-16 1.22460635382238e-16 -1.7789921910373654e-47 -1 2.75
1 13.25 -4.625 -12.5 -6.12303176911189e-17 -1 -7.4983036091106899e-33 
2 10.5 -5 -12.5 -3.4540271877227098e-16 1 -4.22982364036047e-32 -1 -3.4540271877227098e-16 -1.22460635382238e-16 -1.22460635382238e-16 -6.56858655152258e-47 1 2.75
1 7.75 -4.625 -12.5 6.12303176911189e-17 1 7.4983036091106899e-33 
2 10.5 -1.5 -12.5 0 -1 -0 -1 0 -1.22460635382238e-16 1.22460635382238e-16 0 -1 5.5
1 14.625 -2.875 -12.5 -0.70710678118654802 -0.70710678118654702 -5.3021013293977297e-33 
1 6.375 -2.875 -12.5 -0.70710678118654802 0.70710678118654702 5.3021013293977297e-33 
1 5 7.22517748755203e-16 -17.625 -1.22460635382238e-16 -0 1 
2 1.4389124657412899e-15 1.10214571844014e-16 -11.75 1.22460635382238e-16 0 -1 -1 0 -1.22460635382238e-16 0 1 0 5
1 4.7696960070847298 -1.5 23.5 1.22460635382238e-16 0 -1 
2 2.8778249314825901e-15 1.10214571844014e-16 -23.5 -1.22460635382238e-16 -0 1 -1 0 -1.22460635382238e-16 0 -1 -0 5
1 -5 -5.0208860506717495e-16 -17.625 1.22460635382238e-16 0 -1 
2 1.4389124657412899e-15 1.10214571844014e-16 -11.75 1.22460635382238e-16 0 -1 -1 0 -1.22460635382238e-16 0 1 0 5
2 2.8778249314825901e-15 1.10214571844014e-16 -23.5 -1.22460635382238e-16 -0 1 -1 0 -1.22460635382238e-16 0 -1 -0 5
2 1.4389124657412899e-15 0 -11.75 1.22460635382238e-16 0 -1 -1 0 -1.22460635382238e-16 0 1 0 2.5
1 2.5 3.0615158845559402e-16 -17.625 1.22460635382238e-16 0 -1 
2 2.8778249314825901e-15 0 -23.5 -1.22460635382238e-16 -0 1 -1 0 -1.22460635382238e-16 0 -1 -0 2.5
1 -2.5 -3.0615158845559402e-16 -17.625 -1.22460635382238e-16 0 1 
2 -1.4389124657412899e-15 0 11.75 1.22460635382238e-16 0 -1 -1 0 -1.22460635382238e-16 0 1 0 2.5
1 2.5 3.0615158845559402e-16 6.375 1.22460635382238e-16 0 -1 
2 -1.22460635382238e-16 0 1 -0 0 -1 -1 0 0 0 1 0 2.5
1 -2.5 -3.0615158845559402e-16 6.375 -1.22460635382238e-16 0 1 
1 5 7.22517748755203e-16 6.375 -1.22460635382238e-16 -0 1 
2 -1.4389124657412899e-15 1.10214571844014e-16 11.75 1.22460635382238e-16 0 -1 -1 0 -1.22460635382238e-16 0 1 0 5
1 4.7696960070847298 -1.5 23.5 1.22460635382238e-16 0 -1 
2 -1.22460635382238e-16 1.10214571844014e-16 1 0 0 1 -1 0 0 0 -1 0 5
1 -5 -5.0208860506717495e-16 6.375 1.22460635382238e-16 0 -1 
2 -1.4389124657412899e-15 1.10214571844014e-16 11.75 1.22460635382238e-16 0 -1 -1 0 -1.22460635382238e-16 0 1 0 5
2 -1.22460635382238e-16 1.10214571844014e-16 1 0 0 1 -1 0 0 0 -1 0 5
1 5.6924240017711796 -1.5 1 -1 0 0 
1 5 0 1 0 1 0 
1 4.5 -5 1 1 3.4540271877227098e-16 -0 
2 -1.22460635382238e-16 1.10214571844014e-16 1 0 0 1 -1 0 0 0 -1 0 5
2 -1.22460635382238e-16 0 1 -0 0 -1 -1 0 0 0 1 0 2.5
1 -3.8550756855365898e-15 -5 23.5 1.22460635382238e-16 0 -1 
2 -1.4389124657412899e-15 1.10214571844014e-16 11.75 1.22460635382238e-16 0 -1 -1 0 -1.22460635382238e-16 0 1 0 5
2 -1.4389124657412899e-15 0 11.75 1.22460635382238e-16 0 -1 -1 0 -1.22460635382238e-16 0 1 0 2.5
2 2.8778249314825901e-15 0 -23.5 -1.22460635382238e-16 -0 1 -1 0 -1.22460635382238e-16 0 -1 -0 2.5
2 1.4389124657412899e-15 0 -11.75 1.22460635382238e-16 0 -1 -1 0 -1.22460635382238e-16 0 1 0 2.5
2 1.4389124657412899e-15 1.10214571844014e-16 -11.75 1.22460635382238e-16 0 -1 -1 0 -1.22460635382238e-16 0 1 0 5
1 4.5 -5 -11.75 -1 -3.4540271877227098e-16 -1.22460635382238e-16 
1 5 0 -11.75 0 -1 -0 
1 5.6924240017711796 -1.5 -11.75 1 0 1.22460635382238e-16 
1 5 -1.5 12 0 -0 1 
1 5 -5 12 -0 -4.22982364036047e-32 -1 
1 5 -1.5 20.5625 -1.22460635382238e-16 0 1 
1 5 -1.5 20.5625 -1.22460635382238e-16 0 1 
1 18 -1.5 23.5 -1 0 -1.22460635382238e-16 
1 18 -1.5 23.5 1.22460635382238e-16 0 -1 
1 18 -1.5 -23.5 -1 0 -1.22460635382238e-16 
1 5.6924240017711796 -1.5 11.75 1 0 1.22460635382238e-16 
2 10.5 -1.5 12.5 0 -1 -0 -1 0 -1.22460635382238e-16 1.22460635382238e-16 0 -1 5.5
2 10.5 -1.5 -12.5 0 -1 -0 -1 0 -1.22460635382238e-16 1.22460635382238e-16 0 -1 5.5
2 2.8778249314825901e-15 1.10214571844014e-16 -23.5 -1.22460635382238e-16 -0 1 -1 0 -1.22460635382238e-16 0 -1 -0 5
1 -3.8550756855365898e-15 -5 23.5 1.22460635382238e-16 0 -1 
1 5 0 11.75 0 -1 -0 
1 5 -5 20.5625 1.22460635382238e-16 0 -1 
1 5 -0.89782684254364697 23.5 0 -1 -0 
1 4.5 -5 11.75 -1 -3.4540271877227098e-16 -1.22460635382238e-16 
2 10.5 -4.25 -12.5 -6.12303176911189e-17 -1 -7.4983036091106899e-33 -1 6.12303176911189e-17 -1.22460635382238e-16 1.22460635382238e-16 -1.7789921910373654e-47 -1 2.75
2 10.5 -5 -12.5 -3.4540271877227098e-16 1 -4.22982364036047e-32 -1 -3.4540271877227098e-16 -1.22460635382238e-16 -1.22460635382238e-16 -6.56858655152258e-47 1 2.75
2 10.5 -4.25 12.5 -6.12303176911189e-17 -1 -7.4983036091106899e-33 -1 6.12303176911189e-17 -1.22460635382238e-16 1.22460635382238e-16 -1.7789921910373654e-47 -1 2.75
2 10.5 -5 12.5 -3.4540271877227098e-16 1 -4.22982364036047e-32 -1 -3.4540271877227098e-16 -1.22460635382238e-16 -1.22460635382238e-16 -6.56858655152258e-47 1 2.75
1 18 -5 -23.5 0 1 0 
1 18 -5 23.5 0 1 0 
1 18 -5 23.5 1.22460635382238e-16 0 -1 
1 1.9005741774285802e-15 -5 -23.5 1 3.4540271877227098e-16 1.22460635382238e-16 
1 -3.8550756855365898e-15 -5 23.5 1 3.4540271877227098e-16 1.22460635382238e-16 
1 2.4500000000000002 3.0002855668648199e-16 0 0 0 -1 
2 7.6537897113898603e-17 -7.6537897113898603e-17 23.539999999999999 0 0 -1 1 0 0 0 -1 0 2.4500000000000002
1 -2.4500000000000002 -3.0002855668648199e-16 0 -0 -0 1 
2 7.6537897113898603e-17 2.2961369134169598e-16 -23.539999999999999 -0 0 1 1 0 0 0 1 -0 2.4500000000000002
2 -1.25 7.6537897113898603e-17 -23.190000000000001 1.22460635382238e-16 -1 1.8369095307335701e-16 -1 -1.22460635382238e-16 6.12303176911189e-17 -6.1230317691118875e-17 -1.8369095307335701e-16 -1 1.25
2 7.6537897113898603e-17 2.2961369134169598e-16 -23.539999999999999 -0 0 1 1 0 0 0 1 -0 2.4500000000000002
2 1.25 3.8268948556949299e-16 -23.190000000000001 1.22460635382238e-16 -1 1.8369095307335701e-16 1 1.22460635382238e-16 -6.12303176911189e-17 6.1230317691118875e-17 1.8369095307335701e-16 1 1.25
2 0 0 -24.440000000000001 -6.12303176911189e-17 -1.8369095307335701e-16 -1 3.7491518045553409e-33 -1 1.8369095307335701e-16 -1 7.4983036091107228e-33 6.12303176911189e-17 1.25
2 0 0 -24.440000000000001 -6.12303176911189e-17 -1.8369095307335701e-16 -1 3.7491518045553409e-33 -1 1.8369095307335701e-16 -1 7.4983036091107228e-33 6.12303176911189e-17 1.25
1 1.3868666957038401e-16 -1.25 -24.675000000000001 6.12303176911189e-17 1.8369095307335701e-16 1 
2 -2.8778249314825798e-17 -8.6334747944477401e-17 -24.91 0 0 -1 3.7491518045553402e-33 -1 0 -1 -3.7491518045553402e-33 -0 1.25
1 -1.6746491888521001e-16 1.25 -24.675000000000001 -6.12303176911189e-17 -1.8369095307335701e-16 -1 
2 0 0 -24.440000000000001 -6.12303176911189e-17 -1.8369095307335701e-16 -1 3.7491518045553409e-33 -1 1.8369095307335701e-16 -1 7.4983036091107228e-33 6.12303176911189e-17 1.25
2 -1.25 7.6537897113898603e-17 23.190000000000001 1.22460635382238e-16 1 -6.12303176911189e-17 -1 1.22460635382238e-16 -6.12303176911189e-17 -6.1230317691118888e-17 6.1230317691118912e-17 1 1.25
2 1.25 -2.2961369134169598e-16 23.190000000000001 1.22460635382238e-16 1 -6.12303176911189e-17 1 -1.22460635382238e-16 6.12303176911189e-17 6.1230317691118888e-17 -6.1230317691118912e-17 -1 1.25
2 0 0 24.440000000000001 -6.12303176911189e-17 6.12303176911189e-17 1 3.7491518045553402e-33 1 -6.12303176911189e-17 -1 -8.210733189403225e-48 -6.12303176911189e-17 1.25
2 0 0 24.440000000000001 -6.12303176911189e-17 6.12303176911189e-17 1 3.7491518045553402e-33 1 -6.12303176911189e-17 -1 -8.210733189403225e-48 -6.12303176911189e-17 1.25
1 1.3868666957038401e-16 1.25 24.675000000000001 6.12303176911189e-17 -6.12303176911189e-17 -1 
2 -2.8778249314825798e-17 2.8778249314825798e-17 24.91 0 -0 1 3.7491518045553402e-33 1 0 -1 3.7491518045553402e-33 0 1.25
1 -1.6746491888521001e-16 -1.25 24.675000000000001 -6.12303176911189e-17 6.12303176911189e-17 1 
2 0 0 24.440000000000001 -6.12303176911189e-17 6.12303176911189e-17 1 3.7491518045553402e-33 1 -6.12303176911189e-17 -1 -8.210733189403225e-48 -6.12303176911189e-17 1.25
2 0 0 24.440000000000001 -6.12303176911189e-17 6.12303176911189e-17 1 3.7491518045553402e-33 1 -6.12303176911189e-17 -1 -8.210733189403225e-48 -6.12303176911189e-17 1.25
2 -2.8778249314825798e-17 2.8778249314825798e-17 24.91 0 -0 1 3.7491518045553402e-33 1 0 -1 3.7491518045553402e-33 0 1.25
2 7.6537897113898603e-17 -7.6537897113898603e-17 23.539999999999999 0 0 -1 1 0 0 0 -1 0 2.4500000000000002
2 0 0 -24.440000000000001 -6.12303176911189e-17 -1.8369095307335701e-16 -1 3.7491518045553409e-33 -1 1.8369095307335701e-16 -1 7.4983036091107228e-33 6.12303176911189e-17 1.25
2 -2.8778249314825798e-17 -8.6334747944477401e-17 -24.91 0 0 -1 3.7491518045553402e-33 -1 0 -1 -3.7491518045553402e-33 -0 1.25
Polygon3D 0
PolygonOnTriangulations 0
Surfaces 68
2 -10.5 -4.625 -12.5 6.12303176911189e-17 -1 0 1 6.12303176911189e-17 0 -0 0 1 2.75
3 -10.5 -2.875 -12.5 -6.12303176911189e-17 1 -0 1 6.12303176911189e-17 0 0 0 -1 4.125
0.78539816339744795
2 -10.5 -4.625 -12.5 6.12303176911189e-17 -1 0 1 6.12303176911189e-17 0 -0 0 1 2.75
1 -9 -5 -23.5 -3.4540271877227098e-16 -1 0 1 -3.4540271877227098e-16 0 0 0 1 
1 -11.3848480035424 -1.5 -23.5 0 1 0 -1 0 0 0 -0 1 
3 -10.5 -2.875 -12.5 -6.12303176911189e-17 1 -0 1 6.12303176911189e-17 0 0 0 -1 4.125
0.78539816339744795
2 -10.5 -4.625 12.5 6.12303176911189e-17 -1 0 1 6.12303176911189e-17 0 -0 0 1 2.75
3 -10.5 -2.875 12.5 -6.12303176911189e-17 1 -0 1 6.12303176911189e-17 0 0 0 -1 4.125
0.78539816339744795
2 -10.5 -4.625 12.5 6.12303176911189e-17 -1 0 1 6.12303176911189e-17 0 -0 0 1 2.75
3 -10.5 -2.875 12.5 -6.12303176911189e-17 1 -0 1 6.12303176911189e-17 0 0 0 -1 4.125
0.78539816339744795
2 0 0 0 0 0 1 1 0 -0 -0 1 0 2.5
1 0 0 12.75 0 0 1 1 0 -0 -0 1 0 
2 0 0 0 0 0 1 1 0 -0 -0 1 0 2.5
1 -6.1102616370920098 -1.79565368508729 23.5 0 0 1 1 0 -0 -0 1 0 
2 0 0 0 0 0 1 1 0 -0 -0 1 0 2.5
1 0 0 -10.75 0 0 1 1 0 -0 -0 1 0 
2 0 0 0 0 0 1 1 0 -0 -0 1 0 2.5
1 0 0 0 0 0 1 1 0 -0 -0 1 0 
2 0 1.10214571844014e-16 -23.5 0 0 1 1 0 -0 -0 1 0 5
2 0 1.10214571844014e-16 -23.5 0 0 1 1 0 -0 -0 1 0 5
2 0 1.10214571844014e-16 -23.5 0 0 1 1 0 -0 -0 1 0 5
2 0 1.10214571844014e-16 -23.5 0 0 1 1 0 -0 -0 1 0 5
2 0 1.10214571844014e-16 -23.5 0 0 1 1 0 -0 -0 1 0 5
2 0 1.10214571844014e-16 -23.5 0 0 1 1 0 -0 -0 1 0 5
1 -5 0 -17.625 1 0 0 0 0 -1 -0 1 0 
1 -5 0 5.875 1 0 0 0 0 -1 -0 1 0 
1 -6.1102616370920098 -1.79565368508729 -23.5 0 0 1 1 0 -0 -0 1 0 
1 -18 -3.25 -23.5 -1 -0 0 0 -1 -0 0 0 1 
2 10.5 -4.625 12.5 -6.12303176911189e-17 -1 -7.4983036091106899e-33 -1 6.12303176911189e-17 -1.22460635382238e-16 1.22460635382238e-16 -1.7789921910373654e-47 -1 2.75
3 10.5 -2.875 12.5 6.12303176911189e-17 1 7.4983036091106899e-33 -1 6.12303176911189e-17 -1.22460635382238e-16 -1.22460635382238e-16 1.7789921910373654e-47 1 4.125
0.78539816339744795
2 10.5 -4.625 12.5 -6.12303176911189e-17 -1 -7.4983036091106899e-33 -1 6.12303176911189e-17 -1.22460635382238e-16 1.22460635382238e-16 -1.7789921910373654e-47 -1 2.75
1 9 -5 23.5 3.4540271877227098e-16 -1 4.22982364036047e-32 -1 -3.4540271877227098e-16 -1.22460635382238e-16 1.22460635382238e-16 6.56858655152258e-47 -1 
1 11.3848480035424 -1.5 23.5 0 1 0 1 -0 1.22460635382238e-16 1.22460635382238e-16 0 -1 
3 10.5 -2.875 12.5 6.12303176911189e-17 1 7.4983036091106899e-33 -1 6.12303176911189e-17 -1.22460635382238e-16 -1.22460635382238e-16 1.7789921910373654e-47 1 4.125
0.78539816339744795
2 10.5 -4.625 -12.5 -6.12303176911189e-17 -1 -7.4983036091106899e-33 -1 6.12303176911189e-17 -1.22460635382238e-16 1.22460635382238e-16 -1.7789921910373654e-47 -1 2.75
3 10.5 -2.875 -12.5 6.12303176911189e-17 1 7.4983036091106899e-33 -1 6.12303176911189e-17 -1.22460635382238e-16 -1.22460635382238e-16 1.7789921910373654e-47 1 4.125
0.78539816339744795
2 10.5 -4.625 -12.5 -6.12303176911189e-17 -1 -7.4983036091106899e-33 -1 6.12303176911189e-17 -1.22460635382238e-16 1.22460635382238e-16 -1.7789921910373654e-47 -1 2.75
3 10.5 -2.875 -12.5 6.12303176911189e-17 1 7.4983036091106899e-33 -1 6.12303176911189e-17 -1.22460635382238e-16 -1.22460635382238e-16 1.7789921910373654e-47 1 4.125
0.78539816339744795
2 -2.8778249314825901e-15 1.10214571844014e-16 23.5 1.22460635382238e-16 0 -1 -1 0 -1.22460635382238e-16 0 1 0 5
2 -2.8778249314825901e-15 1.10214571844014e-16 23.5 1.22460635382238e-16 0 -1 -1 0 -1.22460635382238e-16 0 1 0 5
1 1.4389124657412899e-15 0 -11.75 1.22460635382238e-16 0 -1 -1 0 -1.22460635382238e-16 0 1 0 
1 6.1102616370920098 -1.79565368508729 -23.5 1.22460635382238e-16 0 -1 -1 0 -1.22460635382238e-16 0 1 0 
2 -2.8778249314825901e-15 1.10214571844014e-16 23.5 1.22460635382238e-16 0 -1 -1 0 -1.22460635382238e-16 0 1 0 5
2 0 0 0 1.22460635382238e-16 0 -1 -1 0 -1.22460635382238e-16 0 1 0 2.5
2 0 0 0 1.22460635382238e-16 0 -1 -1 0 -1.22460635382238e-16 0 1 0 2.5
2 0 0 0 1.22460635382238e-16 0 -1 -1 0 -1.22460635382238e-16 0 1 0 2.5
1 -1.4389124657412899e-15 0 11.75 1.22460635382238e-16 0 -1 -1 0 -1.22460635382238e-16 0 1 0 
2 0 0 0 1.22460635382238e-16 0 -1 -1 0 -1.22460635382238e-16 0 1 0 2.5
1 0 0 1 0 0 1 1 0 -0 -0 1 0 
2 -2.8778249314825901e-15 1.10214571844014e-16 23.5 1.22460635382238e-16 0 -1 -1 0 -1.22460635382238e-16 0 1 0 5
2 -2.8778249314825901e-15 1.10214571844014e-16 23.5 1.22460635382238e-16 0 -1 -1 0 -1.22460635382238e-16 0 1 0 5
2 -2.8778249314825901e-15 1.10214571844014e-16 23.5 1.22460635382238e-16 0 -1 -1 0 -1.22460635382238e-16 0 1 0 5
1 5 0 -5.875 -1 0 -1.22460635382238e-16 -1.22460635382238e-16 0 1 0 1 0 
1 5 0 17.625 -1 0 -1.22460635382238e-16 -1.22460635382238e-16 0 1 0 1 0 
1 6.1102616370920098 -1.79565368508729 23.5 1.22460635382238e-16 0 -1 -1 0 -1.22460635382238e-16 0 1 0 
1 18 -3.25 23.5 1 0 1.22460635382238e-16 0 -1 0 1.22460635382238e-16 0 -1 
2 0 0 0 0 0 -1 1 0 0 0 -1 0 2.4500000000000002
2 0 0 0 0 0 -1 1 0 0 0 -1 0 2.4500000000000002
5 7.6537897113898603e-17 -7.6537897113898603e-17 23.190000000000001 -6.12303176911189e-17 6.12303176911189e-17 1 1 0 6.12303176911189e-17 3.7491518045553484e-33 1 -6.12303176911189e-17 1.25 1.25
5 7.6537897113898603e-17 2.2961369134169598e-16 -23.190000000000001 -6.12303176911189e-17 -1.8369095307335701e-16 -1 1 -7.4983036091106899e-33 -6.12303176911189e-17 3.7491518045553737e-33 -1 1.8369095307335701e-16 1.25 1.25
5 7.6537897113898603e-17 2.2961369134169598e-16 -23.190000000000001 -6.12303176911189e-17 -1.8369095307335701e-16 -1 1 -7.4983036091106899e-33 -6.12303176911189e-17 3.7491518045553737e-33 -1 1.8369095307335701e-16 1.25 1.25
2 -3.8268948556949302e-17 -1.1480684567084799e-16 -25.065000000000001 -6.12303176911189e-17 -1.8369095307335701e-16 -1 3.7491518045553409e-33 -1 1.8369095307335701e-16 -1 7.4983036091107228e-33 6.12303176911189e-17 1.25
2 -3.8268948556949302e-17 -1.1480684567084799e-16 -25.065000000000001 -6.12303176911189e-17 -1.8369095307335701e-16 -1 3.7491518045553409e-33 -1 1.8369095307335701e-16 -1 7.4983036091107228e-33 6.12303176911189e-17 1.25
1 0 0 -24.91 0 0 -1 1 0 0 0 -1 0 
5 7.6537897113898603e-17 -7.6537897113898603e-17 23.190000000000001 -6.12303176911189e-17 6.12303176911189e-17 1 1 0 6.12303176911189e-17 3.7491518045553484e-33 1 -6.12303176911189e-17 1.25 1.25
2 -3.8268948556949302e-17 3.8268948556949302e-17 25.065000000000001 -6.12303176911189e-17 6.12303176911189e-17 1 3.7491518045553402e-33 1 -6.12303176911189e-17 -1 -8.210733189403225e-48 -6.12303176911189e-17 1.25
2 -3.8268948556949302e-17 3.8268948556949302e-17 25.065000000000001 -6.12303176911189e-17 6.12303176911189e-17 1 3.7491518045553402e-33 1 -6.12303176911189e-17 -1 -8.210733189403225e-48 -6.12303176911189e-17 1.25
1 0 0 24.91 0 0 1 -1 0 0 0 -1 0 
Triangulations 0

TShapes 448
Ve
1e-07
-7.75 -4.25 -12.5
0 0

0101101
*
Ve
1e-07
-13.25 -4.25 -12.5
0 0

0101101
*
Ed
 1e-07 1 1 0
1  1 0 0 3.14159265358979
2  1 1 0 0 3.14159265358979
2  2 2 0 0 3.14159265358979
4 C0 1 0 2 0
0

0101000
+448 0 -447 0 *
Ve
1e-07
-13.25 -5 -12.5
0 0

0101101
*
Ed
 1e-07 1 1 0
1  2 0 -0.375 0.375
2  3 1 0 -0.375 0.375
2  4 3 0 -0.375 0.375
4 CN 1 0 3 0
0

0101000
+447 0 -445 0 *
Ve
1e-07
-7.75 -5 -12.5
0 0

0101101
*
Ed
 1e-07 1 1 0
1  3 0 3.14159265358979 6.28318530717959
2  5 1 0 3.14159265358979 6.28318530717959
4 C0 1 0 4 0
0

0101000
+445 0 -443 0 *
Ed
 1e-07 1 1 0
1  4 0 -0.375 0.375
2  6 1 0 -0.375 0.375
2  7 3 0 -0.375 0.375
4 CN 1 0 3 0
0

0101000
+443 0 -448 0 *
Wi

0101100
+446 0 +444 0 +442 0 +441 0 *
Fa
0  1e-07 1 0

0111000
+440 0 *
Ve
1e-07
-5 -1.5 -12.5
0 0

0101101
*
Ve
1e-07
-16 -1.5 -12.5
0 0

0101101
*
Ed
 1e-07 1 1 0
1  5 0 0 3.14159265358979
2  8 2 0 0 3.14159265358979
4 C0 2 0 5 0
0

0101000
+438 0 -437 0 *
Ed
 1e-07 1 1 0
1  6 0 -1.94454364826301 1.94454364826301
2  9 2 0 -1.94454364826301 1.94454364826301
2  10 6 0 -1.94454364826301 1.94454364826301
4 CN 2 0 6 0
0

0101000
+437 0 -447 0 *
Ed
 1e-07 1 1 0
1  7 0 -1.94454364826301 1.94454364826301
2  11 2 0 -1.94454364826301 1.94454364826301
2  12 6 0 -1.94454364826301 1.94454364826301
4 CN 2 0 6 0
0

0101000
+448 0 -438 0 *
Wi

0101100
+436 0 +435 0 -446 0 +434 0 *
Fa
0  1e-07 2 0

0111000
+433 0 *
Ve
1e-07
-7.75 -4.25 12.5
0 0

0101101
*
Ve
1e-07
-13.25 -4.25 12.5
0 0

0101101
*
Ed
 1e-07 1 1 0
1  8 0 0 3.14159265358979
2  13 7 0 0 3.14159265358979
2  14 8 0 0 3.14159265358979
4 C0 7 0 8 0
0

0101000
+431 0 -430 0 *
Ve
1e-07
-13.25 -5 12.5
0 0

0101101
*
Ed
 1e-07 1 1 0
1  9 0 -0.375 0.375
2  15 7 0 -0.375 0.375
2  16 9 0 -0.375 0.375
4 CN 7 0 9 0
0

0101000
+430 0 -428 0 *
Ve
1e-07
-7.75 -5 12.5
0 0

0101101
*
Ed
 1e-07 1 1 0
1  10 0 3.14159265358979 6.28318530717959
2  17 7 0 3.14159265358979 6.28318530717959
4 C0 7 0 4 0
0

0101000
+428 0 -426 0 *
Ed
 1e-07 1 1 0
1  11 0 -0.375 0.375
2  18 7 0 -0.375 0.375
2  19 9 0 -0.375 0.375
4 CN 7 0 9 0
0

0101000
+426 0 -431 0 *
Wi

0101100
+429 0 +427 0 +425 0 +424 0 *
Fa
0  1e-07 7 0

0111000
+423 0 *
Ve
1e-07
-5 -1.5 12.5
0 0

0101101
*
Ve
1e-07
-16 -1.5 12.5
0 0

0101101
*
Ed
 1e-07 1 1 0
1  12 0 0 3.14159265358979
2  20 8 0 0 3.14159265358979
4 C0 8 0 5 0
0

0101000
+421 0 -420 0 *
Ed
 1e-07 1 1 0
1  13 0 -1.94454364826301 1.94454364826301
2  21 8 0 -1.94454364826301 1.94454364826301
2  22 10 0 -1.94454364826301 1.94454364826301
4 CN 8 0 10 0
0

0101000
+420 0 -430 0 *
Ed
 1e-07 1 1 0
1  14 0 -1.94454364826301 1.94454364826301
2  23 8 0 -1.94454364826301 1.94454364826301
2  24 10 0 -1.94454364826301 1.94454364826301
4 CN 8 0 10 0
0

0101000
+431 0 -421 0 *
Wi

0101100
+419 0 +418 0 -429 0 +417 0 *
Fa
0  1e-07 8 0

0111000
+416 0 *
Ve
1e-07
-2.5 3.06151588455594e-16 12.75
0 0

0101101
*
Ve
1e-07
2.5 -3.06151588455594e-16 12.75
0 0

0101101
*
Ed
 1e-07 1 1 0
1  15 0 3.14159265358979 6.28318530717959
2  25 11 0 3.14159265358979 6.28318530717959
4 C0 11 0 12 0
0

0101000
+414 0 -413 0 *
Ve
1e-07
-2.5 3.06151588455594e-16 23.5
0 0

0101101
*
Ed
 1e-07 1 1 0
1  16 0 -5.375 5.375
2  26 11 0 -5.375 5.375
2  27 13 0 -5.375 5.375
4 CN 11 0 13 0
0

0101000
+414 0 -411 0 *
Ve
1e-07
2.5 0 23.5
0 0

0101101
*
Ed
 1e-07 1 1 0
1  17 0 3.14159265358979 6.28318530717959
2  28 11 0 3.14159265358979 6.28318530717959
4 C0 11 0 14 0
0

0101000
+411 0 -409 0 *
Ed
 1e-07 1 1 0
1  18 0 -5.375 5.375
2  29 11 0 -5.375 5.375
2  30 13 0 -5.375 5.375
4 CN 11 0 13 0
0

0101000
+409 0 -413 0 *
Wi

0101100
-412 0 +410 0 +408 0 +407 0 *
Fa
0  1e-07 11 0

0111000
+406 0 *
Ve
1e-07
-2.5 3.06151588455594e-16 -10.75
0 0

0101101
*
Ve
1e-07
2.5 -3.06151588455594e-16 -10.75
0 0

0101101
*
Ed
 1e-07 1 1 0
1  19 0 3.14159265358979 6.28318530717959
2  31 15 0 3.14159265358979 6.28318530717959
4 C0 15 0 16 0
0

0101000
+404 0 -403 0 *
Ve
1e-07
-2.5 3.06151588455594e-16 0
0 0

0101101
*
Ed
 1e-07 1 1 0
1  20 0 -10.75 0
2  32 15 0 -10.75 0
2  33 17 0 -10.75 0
4 CN 15 0 17 0
0

0101000
+404 0 -401 0 *
Ve
1e-07
2.5 -3.06151588455594e-16 0
0 0

0101101
*
Ed
 1e-07 1 1 0
1  21 0 3.14159265358979 6.28318530717959
2  34 15 0 3.14159265358979 6.28318530717959
4 C0 15 0 18 0
0

0101000
+401 0 -399 0 *
Ed
 1e-07 1 1 0
1  22 0 0 10.75
2  35 15 0 0 10.75
2  36 17 0 0 10.75
4 CN 15 0 17 0
0

0101000
+399 0 -403 0 *
Wi

0101100
-402 0 +400 0 +398 0 +397 0 *
Fa
0  1e-07 15 0

0111000
+396 0 *
Ve
1e-07
-5 7.22517748755203e-16 23.5
0 0

0101101
*
Ve
1e-07
-5 7.22517748755203e-16 12.75
0 0

0101101
*
Ed
 1e-07 1 1 0
1  23 0 -5.375 5.375
2  37 19 0 -5.375 5.375
2  38 20 0 -5.375 5.375
4 CN 19 0 20 0
0

0101000
+394 0 -393 0 *
Ve
1e-07
-4.76969600708473 -1.5 12.75
0 0

0101101
*
Ed
 1e-07 1 1 0
1  24 0 3.14159265358979 3.44628530760519
2  39 19 0 3.14159265358979 3.44628530760519
4 C0 19 0 12 0
0

0101000
+393 0 -391 0 *
Ve
1e-07
-4.76969600708473 -1.5 23.5
0 0

0101101
*
Ed
 1e-07 1 1 0
1  25 0 36.25 47
2  40 19 0 36.25 47
4 C0 19 0 5 0
0

0101000
+391 0 -389 0 *
Ed
 1e-07 1 1 0
1  26 0 2.8368999995744 3.14159265358979
2  41 19 0 2.8368999995744 3.14159265358979
4 C0 19 0 14 0
0

0101000
+389 0 -394 0 *
Wi

0101100
+392 0 +390 0 +388 0 +387 0 *
Fa
0  1e-07 19 0

0111000
+386 0 *
Ve
1e-07
5 -5.02088605067175e-16 12.75
0 0

0101101
*
Ve
1e-07
5 -5.02088605067175e-16 23.5
0 0

0101101
*
Ed
 1e-07 1 1 0
1  27 0 -5.375 5.375
2  42 20 0 -5.375 5.375
2  43 21 0 -5.375 5.375
4 CN 20 0 21 0
0

0101000
+384 0 -383 0 *
Ed
 1e-07 1 1 0
1  28 0 0 3.14159265358979
2  44 20 0 0 3.14159265358979
4 C0 20 0 12 0
0

0101000
+384 0 -393 0 *
Ed
 1e-07 1 1 0
1  29 0 3.14159265358979 6.28318530717959
2  45 20 0 3.14159265358979 6.28318530717959
4 C0 20 0 14 0
0

0101000
+394 0 -383 0 *
Wi

0101100
-382 0 +381 0 -392 0 +380 0 *
Fa
0  1e-07 20 0

0111000
+379 0 *
Ve
1e-07
-5 7.22517748755203e-16 0
0 0

0101101
*
Ve
1e-07
-5 7.22517748755203e-16 -10.75
0 0

0101101
*
Ed
 1e-07 1 1 0
1  30 0 -5.375 5.375
2  46 22 0 -5.375 5.375
2  47 23 0 -5.375 5.375
4 CN 22 0 23 0
0

0101000
+377 0 -376 0 *
Ve
1e-07
-4.76969600708473 -1.5 -10.75
0 0

0101101
*
Ed
 1e-07 1 1 0
1  31 0 3.14159265358979 3.44628530760519
2  48 22 0 3.14159265358979 3.44628530760519
4 C0 22 0 16 0
0

0101000
+376 0 -374 0 *
Ve
1e-07
-4.76969600708473 -1.5 0
0 0

0101101
*
Ed
 1e-07 1 1 0
1  32 0 12.75 23.5
2  49 22 0 12.75 23.5
4 C0 22 0 5 0
0

0101000
+374 0 -372 0 *
Ed
 1e-07 1 1 0
1  33 0 2.8368999995744 3.14159265358979
2  50 22 0 2.8368999995744 3.14159265358979
4 C0 22 0 18 0
0

0101000
+372 0 -377 0 *
Wi

0101100
+375 0 +373 0 +371 0 +370 0 *
Fa
0  1e-07 22 0

0111000
+369 0 *
Ve
1e-07
5 -5.02088605067175e-16 -10.75
0 0

0101101
*
Ve
1e-07
5 -5.02088605067175e-16 0
0 0

0101101
*
Ed
 1e-07 1 1 0
1  34 0 -5.375 5.375
2  51 23 0 -5.375 5.375
2  52 24 0 -5.375 5.375
4 CN 23 0 24 0
0

0101000
+367 0 -366 0 *
Ed
 1e-07 1 1 0
1  35 0 0 3.14159265358979
2  53 23 0 0 3.14159265358979
4 C0 23 0 16 0
0

0101000
+367 0 -376 0 *
Ed
 1e-07 1 1 0
1  36 0 3.14159265358979 6.28318530717959
2  54 23 0 3.14159265358979 6.28318530717959
4 C0 23 0 18 0
0

0101000
+377 0 -366 0 *
Wi

0101100
-365 0 +364 0 -375 0 +363 0 *
Fa
0  1e-07 23 0

0111000
+362 0 *
Ed
 1e-07 1 1 0
1  37 0 0 3.14159265358979
2  55 17 0 0 3.14159265358979
4 C0 16 0 17 0
0

0101000
+403 0 -404 0 *
Wi

0101100
-402 0 -360 0 *
Ve
1e-07
-5 -1.5 -10.75
0 0

0101101
*
Ed
 1e-07 1 1 0
1  38 0 -0.92272799468645 -0.69242400177118
4 C0 16 0 5 0
0

0101000
+374 0 -358 0 *
Ve
1e-07
-3.1214948387574e-16 -5 -10.75
0 0

0101101
*
Ed
 1e-07 1 1 0
1  39 0 4.71238898038469 6.28318530717959
2  56 24 0 4.71238898038469 6.28318530717959
4 C0 16 0 24 0
0

0101000
+356 0 -367 0 *
Ve
1e-07
-5 -5 -10.75
0 0

0101101
*
Ed
 1e-07 1 1 0
1  40 0 -0.5 4.5
4 C0 16 0 4 0
0

0101000
+354 0 -356 0 *
Ed
 1e-07 1 1 0
1  41 0 1.5 5
4 C0 16 0 25 0
0

0101000
+358 0 -354 0 *
Wi

0101100
-357 0 -373 0 -364 0 -355 0 -353 0 -352 0 *
Fa
0  1e-07 16 0

0111000
-359 0 -351 0 *
Ve
1e-07
-3.1214948387574e-16 -5 0
0 0

0101101
*
Ed
 1e-07 1 1 0
1  42 0 0 1.5707963267949
2  57 24 0 0 1.5707963267949
4 C0 24 0 18 0
0

0101000
+366 0 -349 0 *
Ed
 1e-07 1 1 0
1  43 0 12.75 23.5
2  58 24 0 12.75 23.5
4 G1 24 0 4 0
0

0101000
+356 0 -349 0 *
Wi

0101100
+365 0 +348 0 -347 0 +355 0 *
Fa
0  1e-07 24 0

0111000
+346 0 *
Ed
 1e-07 1 1 0
1  44 0 0 3.14159265358979
2  59 13 0 0 3.14159265358979
4 C0 12 0 13 0
0

0101000
+413 0 -414 0 *
Wi

0101100
-412 0 -344 0 *
Ve
1e-07
-5 -1.5 12.75
0 0

0101101
*
Ed
 1e-07 1 1 0
1  45 0 -0.92272799468645 -0.69242400177118
4 C0 12 0 5 0
0

0101000
+391 0 -342 0 *
Ve
1e-07
-3.1214948387574e-16 -5 12.75
0 0

0101101
*
Ed
 1e-07 1 1 0
1  46 0 4.71238898038469 6.28318530717959
2  60 21 0 4.71238898038469 6.28318530717959
4 C0 12 0 21 0
0

0101000
+340 0 -384 0 *
Ve
1e-07
-5 -5 12.75
0 0

0101101
*
Ed
 1e-07 1 1 0
1  47 0 -0.5 4.5
4 C0 12 0 4 0
0

0101000
+338 0 -340 0 *
Ed
 1e-07 1 1 0
1  48 0 1.5 5
4 C0 12 0 26 0
0

0101000
+342 0 -338 0 *
Wi

0101100
-341 0 -390 0 -381 0 -339 0 -337 0 -336 0 *
Fa
0  1e-07 12 0

0111000
-343 0 -335 0 *
Ve
1e-07
9.77250754054006e-16 -5 23.5
0 0

0101101
*
Ed
 1e-07 1 1 0
1  49 0 0 1.5707963267949
2  61 21 0 0 1.5707963267949
4 C0 21 0 14 0
0

0101000
+383 0 -333 0 *
Ed
 1e-07 1 1 0
1  50 0 36.25 47
2  62 21 0 36.25 47
4 G1 21 0 4 0
0

0101000
+340 0 -333 0 *
Wi

0101100
+382 0 +332 0 -331 0 +339 0 *
Fa
0  1e-07 21 0

0111000
+330 0 *
Ed
 1e-07 1 1 0
1  51 0 0 3.14159265358979
2  63 17 0 0 3.14159265358979
4 C0 17 0 18 0
0

0101000
+399 0 -401 0 *
Wi

0101100
+328 0 -400 0 -360 0 -397 0 *
Fa
0  1e-07 17 0

0111000
+327 0 *
Ed
 1e-07 1 1 0
1  52 0 0 3.14159265358979
2  64 13 0 0 3.14159265358979
4 C0 13 0 14 0
0

0101000
+409 0 -411 0 *
Wi

0101100
+325 0 -410 0 -344 0 -407 0 *
Fa
0  1e-07 13 0

0111000
+324 0 *
Ve
1e-07
-5 -1.5 0
0 0

0101101
*
Ed
 1e-07 1 1 0
1  53 0 -18.125 -5.625
4 C0 26 0 5 0
0

0101000
+421 0 -322 0 *
Ed
 1e-07 1 1 0
1  54 0 -18.375 -18.125
4 C0 26 0 5 0
0

0101000
+342 0 -421 0 *
Ve
1e-07
-5 -5 0
0 0

0101101
*
Ed
 1e-07 1 1 0
1  55 0 5.625 18.375
4 C0 26 0 4 0
0

0101000
+319 0 -338 0 *
Ed
 1e-07 1 1 0
1  56 0 -5 -1.5
4 C0 26 0 18 0
0

0101000
+319 0 -322 0 *
Wi

0101100
-321 0 -320 0 +336 0 -318 0 +317 0 *
Fa
0  1e-07 26 0

0111000
+316 0 *
Wi

0101100
+398 0 +328 0 *
Ed
 1e-07 1 1 0
1  57 0 0.69242400177118 0.92272799468645
4 C0 18 0 5 0
0

0101000
+322 0 -372 0 *
Ed
 1e-07 1 1 0
1  58 0 -4.5 0.5
4 C0 18 0 4 0
0

0101000
+349 0 -319 0 *
Wi

0101100
-370 0 -313 0 -317 0 -312 0 -348 0 -363 0 *
Fa
0  1e-07 18 0

0111000
+314 0 +311 0 *
Ed
 1e-07 1 1 0
1  59 0 3.14159265358979 6.28318530717959
2  65 6 0 3.14159265358979 6.28318530717959
4 C0 5 0 6 0
0

0101000
+437 0 -438 0 *
Wi

0101100
+436 0 +309 0 *
Ed
 1e-07 1 1 0
1  60 0 3.14159265358979 6.28318530717959
2  66 10 0 3.14159265358979 6.28318530717959
4 C0 5 0 10 0
0

0101000
+420 0 -421 0 *
Wi

0101100
+419 0 +307 0 *
Ed
 1e-07 1 1 0
1  61 0 -6.625 -4.875
4 C0 5 0 25 0
0

0101000
+358 0 -438 0 *
Ve
1e-07
-5 -1.5 -23.5
0 0

0101101
*
Ed
 1e-07 1 1 0
1  62 0 -8.0625 2.9375
4 C0 5 0 25 0
0

0101000
+438 0 -304 0 *
Ve
1e-07
-18 -1.5 -23.5
0 0

0101101
*
Ed
 1e-07 1 1 0
1  63 0 0 13
4 C0 5 0 27 0
0

0101000
+302 0 -304 0 *
Ve
1e-07
-18 -1.5 23.5
0 0

0101101
*
Ed
 1e-07 1 1 0
1  64 0 0 47
4 C0 5 0 28 0
0

0101000
+302 0 -300 0 *
Ed
 1e-07 1 1 0
1  65 0 0 13.2303039929153
4 C0 5 0 14 0
0

0101000
+300 0 -389 0 *
Wi

0101100
+305 0 +303 0 -301 0 +299 0 +298 0 -388 0 +341 0 +320 0 +321 0 +313 0 
-371 0 +357 0 *
Fa
0  1e-07 5 0

0111000
+308 0 +306 0 +297 0 *
Ve
1e-07
-5 -5 -23.5
0 0

0101101
*
Ed
 1e-07 1 1 0
1  66 0 -6.125 6.625
4 C0 25 0 4 0
0

0101000
+295 0 -354 0 *
Ed
 1e-07 1 1 0
1  67 0 0.602173157456353 4.10217315745635
4 C0 25 0 27 0
0

0101000
+304 0 -295 0 *
Wi

0101100
-305 0 +352 0 -294 0 -293 0 -303 0 *
Fa
0  1e-07 25 0

0111000
+292 0 *
Ed
 1e-07 1 1 0
1  68 0 3.14159265358979 6.28318530717959
2  67 10 0 3.14159265358979 6.28318530717959
2  68 9 0 3.14159265358979 6.28318530717959
4 C0 10 0 9 0
0

0101000
+430 0 -431 0 *
Wi

0101100
-290 0 -418 0 +307 0 -417 0 *
Fa
0  1e-07 10 0

0111000
+289 0 *
Ed
 1e-07 1 1 0
1  69 0 0 3.14159265358979
2  69 9 0 0 3.14159265358979
4 C0 9 0 4 0
0

0101000
+426 0 -428 0 *
Wi

0101100
+287 0 -427 0 +290 0 -424 0 *
Fa
0  1e-07 9 0

0111000
+286 0 *
Ed
 1e-07 1 1 0
1  70 0 3.14159265358979 6.28318530717959
2  70 6 0 3.14159265358979 6.28318530717959
2  71 3 0 3.14159265358979 6.28318530717959
4 C0 6 0 3 0
0

0101000
+447 0 -448 0 *
Wi

0101100
-284 0 -435 0 +309 0 -434 0 *
Fa
0  1e-07 6 0

0111000
+283 0 *
Ed
 1e-07 1 1 0
1  71 0 0 3.14159265358979
2  72 3 0 0 3.14159265358979
4 C0 3 0 4 0
0

0101000
+443 0 -445 0 *
Wi

0101100
+281 0 -444 0 +284 0 -441 0 *
Fa
0  1e-07 3 0

0111000
+280 0 *
Ve
1e-07
-18 -5 23.5
0 0

0101101
*
Ed
 1e-07 1 1 0
1  72 0 0 3.5
4 C0 28 0 14 0
0

0101000
+278 0 -300 0 *
Ve
1e-07
-18 -5 -23.5
0 0

0101101
*
Ed
 1e-07 1 1 0
1  73 0 0 3.5
4 C0 28 0 27 0
0

0101000
+276 0 -302 0 *
Ed
 1e-07 1 1 0
1  74 0 0 47
4 C0 28 0 4 0
0

0101000
+276 0 -278 0 *
Wi

0101100
+277 0 -299 0 -275 0 +274 0 *
Fa
0  1e-07 28 0

0111000
+273 0 *
Ed
 1e-07 1 1 0
1  75 0 0 18
4 C0 4 0 14 0
0

0101000
+333 0 -278 0 *
Ed
 1e-07 1 1 0
1  76 0 5 18
4 C0 4 0 27 0
0

0101000
+295 0 -276 0 *
Wi

0101100
+353 0 +347 0 +312 0 +318 0 +337 0 +331 0 +271 0 -274 0 -270 0 +294 0 
*
Wi

0101100
+287 0 +425 0 *
Wi

0101100
+281 0 +442 0 *
Fa
0  1e-07 4 0

0111000
+269 0 +268 0 +267 0 *
Wi

0101100
+325 0 +408 0 *
Wi

0101100
-277 0 -271 0 -332 0 -380 0 -387 0 -298 0 *
Fa
0  1e-07 14 0

0111000
+265 0 +264 0 *
Wi

0101100
+293 0 +270 0 +275 0 +301 0 *
Fa
0  1e-07 27 0

0111000
-262 0 *
Sh

0101100
-439 0 -432 0 -422 0 -415 0 -405 0 -395 0 +385 0 +378 0 +368 0 +361 0 
-350 0 +345 0 -334 0 +329 0 -326 0 -323 0 +315 0 +310 0 +296 0 +291 0 
-288 0 -285 0 -282 0 -279 0 +272 0 +266 0 +263 0 -261 0 *
So

0100000
+260 0 *
Ve
1e-07
7.75 -4.25 12.5
0 0

0101101
*
Ve
1e-07
13.25 -4.25 12.5
0 0

0101101
*
Ed
 1e-07 1 1 0
1  77 0 0 3.14159265358979
2  73 29 0 0 3.14159265358979
2  74 30 0 0 3.14159265358979
4 C0 29 0 30 0
0

0101000
+258 0 -257 0 *
Ve
1e-07
13.25 -5 12.5
0 0

0101101
*
Ed
 1e-07 1 1 0
1  78 0 -0.375 0.375
2  75 29 0 -0.375 0.375
2  76 31 0 -0.375 0.375
4 CN 29 0 31 0
0

0101000
+257 0 -255 0 *
Ve
1e-07
7.75 -5 12.5
0 0

0101101
*
Ed
 1e-07 1 1 0
1  79 0 3.14159265358979 6.28318530717959
2  77 29 0 3.14159265358979 6.28318530717959
4 C0 29 0 32 0
0

0101000
+255 0 -253 0 *
Ed
 1e-07 1 1 0
1  80 0 -0.375 0.375
2  78 29 0 -0.375 0.375
2  79 31 0 -0.375 0.375
4 CN 29 0 31 0
0

0101000
+253 0 -258 0 *
Wi

0101100
+256 0 +254 0 +252 0 +251 0 *
Fa
0  1e-07 29 0

0111000
+250 0 *
Ve
1e-07
5 -1.5 12.5
0 0

0101101
*
Ve
1e-07
16 -1.5 12.5
0 0

0101101
*
Ed
 1e-07 1 1 0
1  81 0 0 3.14159265358979
2  80 30 0 0 3.14159265358979
4 C0 30 0 33 0
0

0101000
+248 0 -247 0 *
Ed
 1e-07 1 1 0
1  82 0 -1.94454364826301 1.94454364826301
2  81 30 0 -1.94454364826301 1.94454364826301
2  82 34 0 -1.94454364826301 1.94454364826301
4 CN 30 0 34 0
0

0101000
+247 0 -257 0 *
Ed
 1e-07 1 1 0
1  83 0 -1.94454364826301 1.94454364826301
2  83 30 0 -1.94454364826301 1.94454364826301
2  84 34 0 -1.94454364826301 1.94454364826301
4 CN 30 0 34 0
0

0101000
+258 0 -248 0 *
Wi

0101100
+246 0 +245 0 -256 0 +244 0 *
Fa
0  1e-07 30 0

0111000
+243 0 *
Ve
1e-07
7.75 -4.25 -12.5
0 0

0101101
*
Ve
1e-07
13.25 -4.25 -12.5
0 0

0101101
*
Ed
 1e-07 1 1 0
1  84 0 0 3.14159265358979
2  85 35 0 0 3.14159265358979
2  86 36 0 0 3.14159265358979
4 C0 35 0 36 0
0

0101000
+241 0 -240 0 *
Ve
1e-07
13.25 -5 -12.5
0 0

0101101
*
Ed
 1e-07 1 1 0
1  85 0 -0.375 0.375
2  87 35 0 -0.375 0.375
2  88 37 0 -0.375 0.375
4 CN 35 0 37 0
0

0101000
+240 0 -238 0 *
Ve
1e-07
7.75 -5 -12.5
0 0

0101101
*
Ed
 1e-07 1 1 0
1  86 0 3.14159265358979 6.28318530717959
2  89 35 0 3.14159265358979 6.28318530717959
4 C0 35 0 32 0
0

0101000
+238 0 -236 0 *
Ed
 1e-07 1 1 0
1  87 0 -0.375 0.375
2  90 35 0 -0.375 0.375
2  91 37 0 -0.375 0.375
4 CN 35 0 37 0
0

0101000
+236 0 -241 0 *
Wi

0101100
+239 0 +237 0 +235 0 +234 0 *
Fa
0  1e-07 35 0

0111000
+233 0 *
Ve
1e-07
5 -1.5 -12.5
0 0

0101101
*
Ve
1e-07
16 -1.5 -12.5
0 0

0101101
*
Ed
 1e-07 1 1 0
1  88 0 0 3.14159265358979
2  92 36 0 0 3.14159265358979
4 C0 36 0 33 0
0

0101000
+231 0 -230 0 *
Ed
 1e-07 1 1 0
1  89 0 -1.94454364826301 1.94454364826301
2  93 36 0 -1.94454364826301 1.94454364826301
2  94 38 0 -1.94454364826301 1.94454364826301
4 CN 36 0 38 0
0

0101000
+230 0 -240 0 *
Ed
 1e-07 1 1 0
1  90 0 -1.94454364826301 1.94454364826301
2  95 36 0 -1.94454364826301 1.94454364826301
2  96 38 0 -1.94454364826301 1.94454364826301
4 CN 36 0 38 0
0

0101000
+241 0 -231 0 *
Wi

0101100
+229 0 +228 0 -239 0 +227 0 *
Fa
0  1e-07 36 0

0111000
+226 0 *
Ve
1e-07
5 7.22517748755203e-16 -23.5
0 0

0101101
*
Ve
1e-07
5 7.22517748755203e-16 -11.75
0 0

0101101
*
Ed
 1e-07 1 1 0
1  91 0 -5.875 5.875
2  97 39 0 -5.875 5.875
2  98 40 0 -5.875 5.875
4 CN 39 0 40 0
0

0101000
+224 0 -223 0 *
Ve
1e-07
4.76969600708473 -1.5 -11.75
0 0

0101101
*
Ed
 1e-07 1 1 0
1  92 0 3.14159265358979 3.44628530760519
2  99 39 0 3.14159265358979 3.44628530760519
4 C0 39 0 41 0
0

0101000
+223 0 -221 0 *
Ve
1e-07
4.76969600708473 -1.5 -23.5
0 0

0101101
*
Ed
 1e-07 1 1 0
1  93 0 35.25 47
2  100 39 0 35.25 47
4 C0 39 0 33 0
0

0101000
+221 0 -219 0 *
Ed
 1e-07 1 1 0
1  94 0 2.8368999995744 3.14159265358979
2  101 39 0 2.8368999995744 3.14159265358979
4 C0 39 0 42 0
0

0101000
+219 0 -224 0 *
Wi

0101100
+222 0 +220 0 +218 0 +217 0 *
Fa
0  1e-07 39 0

0111000
+216 0 *
Ve
1e-07
-5 -5.02088605067175e-16 -11.75
0 0

0101101
*
Ve
1e-07
-5 -5.02088605067175e-16 -23.5
0 0

0101101
*
Ed
 1e-07 1 1 0
1  95 0 -5.875 5.875
2  102 40 0 -5.875 5.875
2  103 43 0 -5.875 5.875
4 CN 40 0 43 0
0

0101000
+214 0 -213 0 *
Ed
 1e-07 1 1 0
1  96 0 0 3.14159265358979
2  104 40 0 0 3.14159265358979
4 C0 40 0 41 0
0

0101000
+214 0 -223 0 *
Ed
 1e-07 1 1 0
1  97 0 3.14159265358979 6.28318530717959
2  105 40 0 3.14159265358979 6.28318530717959
4 C0 40 0 42 0
0

0101000
+224 0 -213 0 *
Wi

0101100
-212 0 +211 0 -222 0 +210 0 *
Fa
0  1e-07 40 0

0111000
+209 0 *
Ve
1e-07
-2.5 -3.06151588455594e-16 -11.75
0 0

0101101
*
Ve
1e-07
2.5 -3.06151588455594e-16 -11.75
0 0

0101101
*
Ed
 1e-07 1 1 0
1  98 0 0 3.14159265358979
2  106 44 0 0 3.14159265358979
4 C0 44 0 41 0
0

0101000
+207 0 -206 0 *
Ve
1e-07
2.5 3.06151588455594e-16 -23.5
0 0

0101101
*
Ed
 1e-07 1 1 0
1  99 0 -5.875 5.875
2  107 44 0 -5.875 5.875
2  108 45 0 -5.875 5.875
4 CN 44 0 45 0
0

0101000
+206 0 -204 0 *
Ve
1e-07
-2.5 0 -23.5
0 0

0101101
*
Ed
 1e-07 1 1 0
1  100 0 3.14159265358979 6.28318530717959
2  109 44 0 3.14159265358979 6.28318530717959
4 C0 44 0 42 0
0

0101000
+204 0 -202 0 *
Ed
 1e-07 1 1 0
1  101 0 -5.875 5.875
2  110 44 0 -5.875 5.875
2  111 45 0 -5.875 5.875
4 CN 44 0 45 0
0

0101000
+202 0 -207 0 *
Wi

0101100
+205 0 +203 0 +201 0 +200 0 *
Fa
0  1e-07 44 0

0111000
+199 0 *
Ve
1e-07
-2.5 -3.06151588455594e-16 11.75
0 0

0101101
*
Ve
1e-07
2.5 -3.06151588455594e-16 11.75
0 0

0101101
*
Ed
 1e-07 1 1 0
1  102 0 0 3.14159265358979
2  112 46 0 0 3.14159265358979
4 C0 46 0 47 0
0

0101000
+197 0 -196 0 *
Ve
1e-07
2.5 -3.06151588455594e-16 1
0 0

0101101
*
Ed
 1e-07 1 1 0
1  103 0 -5.375 5.375
2  113 46 0 -5.375 5.375
2  114 48 0 -5.375 5.375
4 CN 46 0 48 0
0

0101000
+196 0 -194 0 *
Ve
1e-07
-2.5 -3.06151588455594e-16 1
0 0

0101101
*
Ed
 1e-07 1 1 0
1  104 0 0 3.14159265358979
2  115 46 0 0 3.14159265358979
4 C0 46 0 49 0
0

0101000
+192 0 -194 0 *
Ed
 1e-07 1 1 0
1  105 0 -5.375 5.375
2  116 46 0 -5.375 5.375
2  117 48 0 -5.375 5.375
4 CN 46 0 48 0
0

0101000
+192 0 -197 0 *
Wi

0101100
+195 0 +193 0 -191 0 +190 0 *
Fa
0  1e-07 46 0

0111000
+189 0 *
Ve
1e-07
5 7.22517748755203e-16 1
0 0

0101101
*
Ve
1e-07
5 7.22517748755203e-16 11.75
0 0

0101101
*
Ed
 1e-07 1 1 0
1  106 0 -5.375 5.375
2  118 50 0 -5.375 5.375
2  119 51 0 -5.375 5.375
4 CN 50 0 51 0
0

0101000
+187 0 -186 0 *
Ve
1e-07
4.76969600708473 -1.5 11.75
0 0

0101101
*
Ed
 1e-07 1 1 0
1  107 0 3.14159265358979 3.44628530760519
2  120 50 0 3.14159265358979 3.44628530760519
4 C0 50 0 47 0
0

0101000
+186 0 -184 0 *
Ve
1e-07
4.76969600708473 -1.5 1
0 0

0101101
*
Ed
 1e-07 1 1 0
1  108 0 11.75 22.5
2  121 50 0 11.75 22.5
4 C0 50 0 33 0
0

0101000
+184 0 -182 0 *
Ed
 1e-07 1 1 0
1  109 0 2.8368999995744 3.14159265358979
2  122 50 0 2.8368999995744 3.14159265358979
4 C0 50 0 49 0
0

0101000
+182 0 -187 0 *
Wi

0101100
+185 0 +183 0 +181 0 +180 0 *
Fa
0  1e-07 50 0

0111000
+179 0 *
Ve
1e-07
-5 -5.02088605067175e-16 11.75
0 0

0101101
*
Ve
1e-07
-5 -5.02088605067175e-16 1
0 0

0101101
*
Ed
 1e-07 1 1 0
1  110 0 -5.375 5.375
2  123 51 0 -5.375 5.375
2  124 52 0 -5.375 5.375
4 CN 51 0 52 0
0

0101000
+177 0 -176 0 *
Ed
 1e-07 1 1 0
1  111 0 0 3.14159265358979
2  125 51 0 0 3.14159265358979
4 C0 51 0 47 0
0

0101000
+177 0 -186 0 *
Ed
 1e-07 1 1 0
1  112 0 3.14159265358979 6.28318530717959
2  126 51 0 3.14159265358979 6.28318530717959
4 C0 51 0 49 0
0

0101000
+187 0 -176 0 *
Wi

0101100
-175 0 +174 0 -185 0 +173 0 *
Fa
0  1e-07 51 0

0111000
+172 0 *
Ve
1e-07
5 -1.5 1
0 0

0101101
*
Ed
 1e-07 1 1 0
1  113 0 0.69242400177118 0.92272799468645
4 C0 49 0 33 0
0

0101000
+170 0 -182 0 *
Ve
1e-07
5 -5 1
0 0

0101101
*
Ed
 1e-07 1 1 0
1  114 0 -5 -1.5
4 C0 49 0 53 0
0

0101000
+168 0 -170 0 *
Ve
1e-07
9.01048789507092e-17 -5 1
0 0

0101101
*
Ed
 1e-07 1 1 0
1  115 0 -4.5 0.5
4 C0 49 0 32 0
0

0101000
+166 0 -168 0 *
Ed
 1e-07 1 1 0
1  116 0 0 1.5707963267949
2  127 52 0 0 1.5707963267949
4 C0 49 0 52 0
0

0101000
+176 0 -166 0 *
Wi

0101100
-169 0 -167 0 -165 0 -164 0 -173 0 -180 0 *
Ed
 1e-07 1 1 0
1  117 0 3.14159265358979 6.28318530717959
2  128 48 0 3.14159265358979 6.28318530717959
4 C0 49 0 48 0
0

0101000
+194 0 -192 0 *
Wi

0101100
-162 0 -191 0 *
Fa
0  1e-07 49 0

0111000
-163 0 -161 0 *
Ve
1e-07
-1.12676298186555e-15 -5 11.75
0 0

0101101
*
Ed
 1e-07 1 1 0
1  118 0 11.75 22.5
2  129 52 0 11.75 22.5
4 G1 52 0 32 0
0

0101000
+159 0 -166 0 *
Ed
 1e-07 1 1 0
1  119 0 4.71238898038469 6.28318530717959
2  130 52 0 4.71238898038469 6.28318530717959
4 C0 52 0 47 0
0

0101000
+159 0 -177 0 *
Wi

0101100
+175 0 +164 0 -158 0 +157 0 *
Fa
0  1e-07 52 0

0111000
+156 0 *
Ed
 1e-07 1 1 0
1  120 0 3.14159265358979 6.28318530717959
2  131 48 0 3.14159265358979 6.28318530717959
4 C0 48 0 47 0
0

0101000
+196 0 -197 0 *
Wi

0101100
-162 0 -193 0 +154 0 -190 0 *
Fa
0  1e-07 48 0

0111000
+153 0 *
Ed
 1e-07 1 1 0
1  121 0 0 3.14159265358979
2  132 45 0 0 3.14159265358979
4 C0 45 0 42 0
0

0101000
+202 0 -204 0 *
Ed
 1e-07 1 1 0
1  122 0 3.14159265358979 6.28318530717959
2  133 45 0 3.14159265358979 6.28318530717959
4 C0 45 0 41 0
0

0101000
+206 0 -207 0 *
Wi

0101100
+151 0 -203 0 +150 0 -200 0 *
Fa
0  1e-07 45 0

0111000
+149 0 *
Wi

0101100
+150 0 +205 0 *
Ve
1e-07
1.75106194961703e-15 -5 -11.75
0 0

0101101
*
Ed
 1e-07 1 1 0
1  123 0 4.71238898038469 6.28318530717959
2  134 43 0 4.71238898038469 6.28318530717959
4 C0 41 0 43 0
0

0101000
+146 0 -214 0 *
Ve
1e-07
5 -5 -11.75
0 0

0101101
*
Ed
 1e-07 1 1 0
1  124 0 -0.5 4.5
4 C0 41 0 32 0
0

0101000
+144 0 -146 0 *
Ve
1e-07
5 -1.5 -11.75
0 0

0101101
*
Ed
 1e-07 1 1 0
1  125 0 1.5 5
4 C0 41 0 53 0
0

0101000
+142 0 -144 0 *
Ed
 1e-07 1 1 0
1  126 0 -0.92272799468645 -0.69242400177118
4 C0 41 0 33 0
0

0101000
+221 0 -142 0 *
Wi

0101100
-145 0 -143 0 -141 0 -140 0 -220 0 -211 0 *
Fa
0  1e-07 41 0

0111000
-147 0 -139 0 *
Ed
 1e-07 1 1 0
1  127 0 -23.75 -11
4 C0 53 0 33 0
0

0101000
+142 0 -170 0 *
Ed
 1e-07 1 1 0
1  128 0 11 23.75
4 C0 53 0 32 0
0

0101000
+168 0 -144 0 *
Wi

0101100
-137 0 +141 0 -136 0 +167 0 *
Fa
0  1e-07 53 0

0111000
+135 0 *
Ve
1e-07
5 -1.5 11.75
0 0

0101101
*
Ed
 1e-07 1 1 0
1  129 0 -8.8125 -8.0625
4 C0 33 0 54 0
0

0101000
+133 0 -248 0 *
Ve
1e-07
5 -1.5 23.5
0 0

0101101
*
Ed
 1e-07 1 1 0
1  130 0 -8.0625 2.9375
4 C0 33 0 54 0
0

0101000
+248 0 -131 0 *
Ve
1e-07
18 -1.5 23.5
0 0

0101101
*
Ed
 1e-07 1 1 0
1  131 0 0 13
4 C0 33 0 55 0
0

0101000
+129 0 -131 0 *
Ve
1e-07
18 -1.5 -23.5
0 0

0101101
*
Ed
 1e-07 1 1 0
1  132 0 0 47
4 C0 33 0 56 0
0

0101000
+129 0 -127 0 *
Ed
 1e-07 1 1 0
1  133 0 0 13.2303039929153
4 C0 33 0 42 0
0

0101000
+127 0 -219 0 *
Ed
 1e-07 1 1 0
1  134 0 -0.92272799468645 -0.69242400177118
4 C0 33 0 47 0
0

0101000
+184 0 -133 0 *
Wi

0101100
+132 0 +130 0 -128 0 +126 0 +125 0 -218 0 +140 0 +137 0 +169 0 -181 0 
+124 0 *
Ed
 1e-07 1 1 0
1  135 0 3.14159265358979 6.28318530717959
2  135 34 0 3.14159265358979 6.28318530717959
4 C0 33 0 34 0
0

0101000
+247 0 -248 0 *
Wi

0101100
+246 0 +122 0 *
Ed
 1e-07 1 1 0
1  136 0 3.14159265358979 6.28318530717959
2  136 38 0 3.14159265358979 6.28318530717959
4 C0 33 0 38 0
0

0101000
+230 0 -231 0 *
Wi

0101100
+229 0 +120 0 *
Fa
0  1e-07 33 0

0111000
+123 0 +121 0 +119 0 *
Ve
1e-07
1.90057417742858e-15 -5 -23.5
0 0

0101101
*
Ed
 1e-07 1 1 0
1  137 0 0 1.5707963267949
2  137 43 0 0 1.5707963267949
4 C0 43 0 42 0
0

0101000
+213 0 -117 0 *
Ed
 1e-07 1 1 0
1  138 0 35.25 47
2  138 43 0 35.25 47
4 G1 43 0 32 0
0

0101000
+146 0 -117 0 *
Wi

0101100
+212 0 +116 0 -115 0 +145 0 *
Fa
0  1e-07 43 0

0111000
+114 0 *
Ve
1e-07
5 -5 11.75
0 0

0101101
*
Ed
 1e-07 1 1 0
1  139 0 1.5 5
4 C0 54 0 47 0
0

0101000
+133 0 -112 0 *
Ve
1e-07
5 -5 23.5
0 0

0101101
*
Ed
 1e-07 1 1 0
1  140 0 -2.9375 8.8125
4 C0 54 0 32 0
0

0101000
+110 0 -112 0 *
Ed
 1e-07 1 1 0
1  141 0 0.602173157456353 4.10217315745635
4 C0 54 0 55 0
0

0101000
+131 0 -110 0 *
Wi

0101100
-132 0 +111 0 -109 0 -108 0 -130 0 *
Fa
0  1e-07 54 0

0111000
+107 0 *
Wi

0101100
+154 0 +195 0 *
Ed
 1e-07 1 1 0
1  142 0 -0.5 4.5
4 C0 47 0 32 0
0

0101000
+112 0 -159 0 *
Wi

0101100
-124 0 -183 0 -174 0 -157 0 -104 0 -111 0 *
Fa
0  1e-07 47 0

0111000
-105 0 -103 0 *
Ed
 1e-07 1 1 0
1  143 0 3.14159265358979 6.28318530717959
2  139 38 0 3.14159265358979 6.28318530717959
2  140 37 0 3.14159265358979 6.28318530717959
4 C0 38 0 37 0
0

0101000
+240 0 -241 0 *
Wi

0101100
-101 0 -228 0 +120 0 -227 0 *
Fa
0  1e-07 38 0

0111000
+100 0 *
Ed
 1e-07 1 1 0
1  144 0 0 3.14159265358979
2  141 37 0 0 3.14159265358979
4 C0 37 0 32 0
0

0101000
+236 0 -238 0 *
Wi

0101100
+98 0 -237 0 +101 0 -234 0 *
Fa
0  1e-07 37 0

0111000
+97 0 *
Ed
 1e-07 1 1 0
1  145 0 3.14159265358979 6.28318530717959
2  142 34 0 3.14159265358979 6.28318530717959
2  143 31 0 3.14159265358979 6.28318530717959
4 C0 34 0 31 0
0

0101000
+257 0 -258 0 *
Wi

0101100
-95 0 -245 0 +122 0 -244 0 *
Fa
0  1e-07 34 0

0111000
+94 0 *
Ed
 1e-07 1 1 0
1  146 0 0 3.14159265358979
2  144 31 0 0 3.14159265358979
4 C0 31 0 32 0
0

0101000
+253 0 -255 0 *
Wi

0101100
+92 0 -254 0 +95 0 -251 0 *
Fa
0  1e-07 31 0

0111000
+91 0 *
Ve
1e-07
18 -5 -23.5
0 0

0101101
*
Ed
 1e-07 1 1 0
1  147 0 0 3.5
4 C0 56 0 42 0
0

0101000
+89 0 -127 0 *
Ve
1e-07
18 -5 23.5
0 0

0101101
*
Ed
 1e-07 1 1 0
1  148 0 0 3.5
4 C0 56 0 55 0
0

0101000
+87 0 -129 0 *
Ed
 1e-07 1 1 0
1  149 0 0 47
4 C0 56 0 32 0
0

0101000
+87 0 -89 0 *
Wi

0101100
+88 0 -126 0 -86 0 +85 0 *
Fa
0  1e-07 56 0

0111000
+84 0 *
Ed
 1e-07 1 1 0
1  150 0 0 18
4 C0 32 0 42 0
0

0101000
+117 0 -89 0 *
Ed
 1e-07 1 1 0
1  151 0 5 18
4 C0 32 0 55 0
0

0101000
+110 0 -87 0 *
Wi

0101100
+136 0 +143 0 +115 0 +82 0 -85 0 -81 0 +109 0 +104 0 +158 0 +165 0 
*
Wi

0101100
+98 0 +235 0 *
Wi

0101100
+92 0 +252 0 *
Fa
0  1e-07 32 0

0111000
+80 0 +79 0 +78 0 *
Wi

0101100
+151 0 +201 0 *
Wi

0101100
-88 0 -82 0 -116 0 -210 0 -217 0 -125 0 *
Fa
0  1e-07 42 0

0111000
+76 0 +75 0 *
Wi

0101100
+108 0 +81 0 +86 0 +128 0 *
Fa
0  1e-07 55 0

0111000
-73 0 *
Sh

0101100
-249 0 -242 0 -232 0 -225 0 +215 0 +208 0 -198 0 -188 0 +178 0 +171 0 
-160 0 +155 0 -152 0 -148 0 -138 0 +134 0 +118 0 +113 0 +106 0 -102 0 
-99 0 -96 0 -93 0 -90 0 +83 0 +77 0 +74 0 -72 0 *
So

0100000
+71 0 *
Ve
1e-07
2.45 -3.5513584260849e-16 23.54
0 0

0101101
*
Ve
1e-07
2.45 4.65350414452504e-16 -23.54
0 0

0101101
*
Ed
 1e-07 1 1 0
1  152 0 -23.54 23.54
2  145 57 0 -23.54 23.54
2  146 58 0 -23.54 23.54
4 CN 57 0 58 0
0

0101000
+69 0 -68 0 *
Ve
1e-07
-2.45 2.23490659572584e-16 23.54
0 0

0101101
*
Ed
 1e-07 1 1 0
1  153 0 0 3.14159265358979
2  147 57 0 0 3.14159265358979
2  148 59 0 0 3.14159265358979
4 C0 57 0 59 0
0

0101000
+69 0 -66 0 *
Ve
1e-07
-2.45 -7.04148653447867e-17 -23.54
0 0

0101101
*
Ed
 1e-07 1 1 0
1  154 0 -23.54 23.54
2  149 57 0 -23.54 23.54
2  150 58 0 -23.54 23.54
4 CN 57 0 58 0
0

0101000
+64 0 -66 0 *
Ed
 1e-07 1 1 0
1  155 0 3.14159265358979 6.28318530717959
2  151 57 0 3.14159265358979 6.28318530717959
2  152 60 0 3.14159265358979 6.28318530717959
4 C0 57 0 60 0
0

0101000
+64 0 -68 0 *
Wi

0101100
-67 0 +65 0 -63 0 +62 0 *
Fa
0  1e-07 57 0

0111000
+61 0 *
Ve
1e-07
-1.25 -1.53075794227798e-16 -24.44
0 0

0101101
*
Ed
 1e-07 1 1 0
1  156 0 0.283794109208326 1.5707963267949
2  153 61 0 0.283794109208326 1.5707963267949
2  154 60 0 0.283794109208326 1.5707963267949
4 CN 61 0 60 0
0

0101000
+64 0 -59 0 *
Ed
 1e-07 1 1 0
1  157 0 0 3.14159265358979
2  155 61 0 0 3.14159265358979
2  156 58 0 0 3.14159265358979
4 C0 61 0 58 0
0

0101000
+68 0 -64 0 *
Ve
1e-07
1.25 1.53075794227796e-16 -24.44
0 0

0101101
*
Ed
 1e-07 1 1 0
1  158 0 4.71238898038469 5.99939119797126
2  157 61 0 4.71238898038469 5.99939119797126
2  158 60 0 4.71238898038469 5.99939119797126
4 CN 61 0 60 0
0

0101000
+56 0 -68 0 *
Ve
1e-07
-1.53075794227797e-16 1.25 -24.44
0 0

0101101
*
Ed
 1e-07 1 1 0
1  159 0 3.14159265358979 4.71238898038469
2  159 61 0 3.14159265358979 4.71238898038469
2  160 62 0 3.14159265358979 4.71238898038469
4 C0 61 0 62 0
0

0101000
+54 0 -56 0 *
Ed
 1e-07 1 1 0
1  160 0 1.5707963267949 3.14159265358979
2  161 61 0 1.5707963267949 3.14159265358979
2  162 63 0 1.5707963267949 3.14159265358979
4 C0 61 0 63 0
0

0101000
+59 0 -54 0 *
Wi

0101100
-58 0 -57 0 -55 0 -53 0 -52 0 *
Fa
0  1e-07 61 0

0111000
+51 0 *
Ve
1e-07
1.24297544912971e-16 -1.25 -24.91
0 0

0101101
*
Ve
1e-07
4.68643975569418e-33 -1.25 -24.44
0 0

0101101
*
Ed
 1e-07 1 1 0
1  161 0 -0.234999999999999 0.234999999999999
2  163 62 0 -0.234999999999999 0.234999999999999
2  164 63 0 -0.234999999999999 0.234999999999999
4 CN 62 0 63 0
0

0101000
+49 0 -48 0 *
Ve
1e-07
1.24297544912971e-16 1.25 -24.91
0 0

0101101
*
Ed
 1e-07 1 1 0
1  162 0 3.14159265358979 6.28318530717959
2  165 62 0 3.14159265358979 6.28318530717959
4 C0 62 0 64 0
0

0101000
+46 0 -49 0 *
Ed
 1e-07 1 1 0
1  163 0 -0.234999999999999 0.234999999999999
2  166 62 0 -0.234999999999999 0.234999999999999
2  167 63 0 -0.234999999999999 0.234999999999999
4 CN 62 0 63 0
0

0101000
+54 0 -46 0 *
Ed
 1e-07 1 1 0
1  164 0 4.71238898038469 6.28318530717959
2  168 62 0 4.71238898038469 6.28318530717959
2  169 60 0 4.71238898038469 6.28318530717959
4 C0 62 0 60 0
0

0101000
+56 0 -48 0 *
Wi

0101100
-47 0 -45 0 -44 0 +53 0 +43 0 *
Fa
0  1e-07 62 0

0111000
+42 0 *
Ve
1e-07
-1.25 1.53075794227797e-16 24.44
0 0

0101101
*
Ed
 1e-07 1 1 0
1  165 0 0.283794109208326 1.5707963267949
2  170 59 0 0.283794109208326 1.5707963267949
2  171 65 0 0.283794109208326 1.5707963267949
4 CN 59 0 65 0
0

0101000
+66 0 -40 0 *
Ve
1e-07
1.25 -1.53075794227797e-16 24.44
0 0

0101101
*
Ed
 1e-07 1 1 0
1  166 0 4.71238898038469 5.99939119797126
2  172 59 0 4.71238898038469 5.99939119797126
2  173 65 0 4.71238898038469 5.99939119797126
4 CN 59 0 65 0
0

0101000
+38 0 -69 0 *
Ve
1e-07
-1.53075794227797e-16 -1.25 24.44
0 0

0101101
*
Ed
 1e-07 1 1 0
1  167 0 3.14159265358979 4.71238898038469
2  174 59 0 3.14159265358979 4.71238898038469
2  175 66 0 3.14159265358979 4.71238898038469
4 C0 59 0 66 0
0

0101000
+36 0 -38 0 *
Ed
 1e-07 1 1 0
1  168 0 1.5707963267949 3.14159265358979
2  176 59 0 1.5707963267949 3.14159265358979
2  177 67 0 1.5707963267949 3.14159265358979
4 C0 59 0 67 0
0

0101000
+40 0 -36 0 *
Wi

0101100
-39 0 -65 0 -37 0 -35 0 -34 0 *
Fa
0  1e-07 59 0

0111000
+33 0 *
Ve
1e-07
1.24297544912971e-16 1.25 24.91
0 0

0101101
*
Ve
1e-07
4.68643975569418e-33 1.25 24.44
0 0

0101101
*
Ed
 1e-07 1 1 0
1  169 0 -0.234999999999999 0.234999999999999
2  178 66 0 -0.234999999999999 0.234999999999999
2  179 67 0 -0.234999999999999 0.234999999999999
4 CN 66 0 67 0
0

0101000
+31 0 -30 0 *
Ve
1e-07
1.24297544912971e-16 -1.25 24.91
0 0

0101101
*
Ed
 1e-07 1 1 0
1  170 0 3.14159265358979 6.28318530717959
2  180 66 0 3.14159265358979 6.28318530717959
4 C0 66 0 68 0
0

0101000
+28 0 -31 0 *
Ed
 1e-07 1 1 0
1  171 0 -0.234999999999999 0.234999999999999
2  181 66 0 -0.234999999999999 0.234999999999999
2  182 67 0 -0.234999999999999 0.234999999999999
4 CN 66 0 67 0
0

0101000
+36 0 -28 0 *
Ed
 1e-07 1 1 0
1  172 0 4.71238898038469 6.28318530717959
2  183 66 0 4.71238898038469 6.28318530717959
2  184 65 0 4.71238898038469 6.28318530717959
4 C0 66 0 65 0
0

0101000
+38 0 -30 0 *
Wi

0101100
-29 0 -27 0 -26 0 +35 0 +25 0 *
Fa
0  1e-07 66 0

0111000
+24 0 *
Ed
 1e-07 1 1 0
1  173 0 0 1.5707963267949
2  185 67 0 0 1.5707963267949
2  186 65 0 0 1.5707963267949
4 C0 67 0 65 0
0

0101000
+30 0 -40 0 *
Ed
 1e-07 1 1 0
1  174 0 0 3.14159265358979
2  187 67 0 0 3.14159265358979
4 C0 67 0 68 0
0

0101000
+31 0 -28 0 *
Wi

0101100
+29 0 +22 0 +34 0 +26 0 -21 0 *
Fa
0  1e-07 67 0

0111000
+20 0 *
Ed
 1e-07 1 1 0
1  175 0 3.14159265358979 6.28318530717959
2  188 65 0 3.14159265358979 6.28318530717959
2  189 58 0 3.14159265358979 6.28318530717959
4 C0 65 0 58 0
0

0101000
+66 0 -69 0 *
Wi

0101100
+39 0 -22 0 -25 0 +37 0 -18 0 *
Fa
0  1e-07 65 0

0111000
+17 0 *
Ed
 1e-07 1 1 0
1  176 0 0 1.5707963267949
2  190 63 0 0 1.5707963267949
2  191 60 0 0 1.5707963267949
4 C0 63 0 60 0
0

0101000
+48 0 -59 0 *
Ed
 1e-07 1 1 0
1  177 0 0 3.14159265358979
2  192 63 0 0 3.14159265358979
4 C0 63 0 64 0
0

0101000
+49 0 -46 0 *
Wi

0101100
+47 0 +15 0 +52 0 +44 0 -14 0 *
Fa
0  1e-07 63 0

0111000
+13 0 *
Wi

0101100
+58 0 -15 0 -43 0 +55 0 -62 0 *
Fa
0  1e-07 60 0

0111000
+11 0 *
Wi

0101100
+67 0 +57 0 +63 0 +18 0 *
Fa
0  1e-07 58 0

0111000
+9 0 *
Wi

0101100
+27 0 +21 0 *
Fa
0  1e-07 68 0

0111000
+7 0 *
Wi

0101100
+45 0 +14 0 *
Fa
0  1e-07 64 0

0111000
+5 0 *
Sh

0101100
+60 0 +50 0 +41 0 +32 0 +23 0 +19 0 +16 0 +12 0 +10 0 +8 0 
+6 0 +4 0 *
So

0100000
+3 0 *
Co

1100000
+259 0 +70 0 +2 0 *

+1 0 