DBRep_DrawableShape

CASCADE Topology V1, (c) Matra-Datavision
Locations 0
Curve2ds 212
1 6.2831853071795862 -6.9899999999999984 -1 0 
1 3.1415926535897931 0 0 1 
1 3.1415926535897931 0 0 1 
1 6.2831853071795862 7.9899999999999984 -1 0 
1 0 0 0 -1 
1 6.2831853071795862 0 0 -1 
1 6.2831853071795862 -1 -1 0 
1 1.5707963267948966 0 0 1 
1 6.2831853071795862 0.99999999999999734 -1 5.6543194337129189e-16 
1 0 0 0 -1 
1 6.2831853071795862 0 0 -1 
1 0 0.75 1 0 
1 1.5707963267948966 0 0 1 
1 0 -0.75000000000000999 1 0 
1 3.1415926535897931 0 0 1 
1 3.1415926535897931 0 0 1 
1 6.2831853071795862 0.99999999999999734 -1 5.6543194337129189e-16 
1 1.5707963267948966 0 0 1 
1 6.2831853071795862 -1 -1 0 
1 3.1415926535897931 0 0 1 
1 3.1415926535897931 0 0 1 
1 6.2831853071795862 -1 -1 0 
1 1.5707963267948966 0 0 1 
1 6.2831853071795862 0.99999999999999734 -1 5.6543194337129189e-16 
1 0 0 0 -1 
1 6.2831853071795862 0 0 -1 
1 0 0.75 1 0 
1 1.5707963267948966 0 0 1 
1 0 -0.75000000000000999 1 0 
1 3.1415926535897931 0 0 1 
1 3.1415926535897931 0 0 1 
1 6.2831853071795862 0.99999999999999734 -1 5.6543194337129189e-16 
1 1.5707963267948966 0 0 1 
1 6.2831853071795862 -1 -1 0 
1 3.1415926535897931 0 0 1 
1 3.1415926535897931 0 0 1 
1 3.1415926535897931 24 0 -1 
1 3.1415926535897931 24 0 -1 
1 0 16.510000000000002 1 0 
1 3.5137611875501173 0 0 1 
1 6.2831853071795862 31.489999999999998 -1 0 
1 0 24 0 1 
1 6.2831853071795862 24 0 1 
1 0 16.510000000000002 1 0 
1 6.2831853071795862 31.489999999999998 -1 0 
1 6.2831853071795862 -6.9899999999999984 -1 0 
1 0 16.510000000000002 1 0 
1 6.2831853071795862 31.489999999999998 -1 0 
1 4.7123889803846897 0 0 1 
1 0 0.75 1 0 
1 0 0.75 1 0 
1 5.5511151231257827e-16 0.75 1 0 
1 6.2831853071795862 -1 -1 0 
1 6.2831853071795862 -1 -1 0 
1 5.5511151231257827e-16 -0.75000000000000999 1 0 
1 1.5707963267948966 0 0 1 
1 0.55481103298007384 0 0 -1 
1 4.7123889803846897 0 0 -1 
1 6.2831853071795862 1.0000000000000009 -1 -5.6543194337129189e-16 
1 0 -0.75000000000000999 1 0 
1 4.7123889803846897 0 0 -1 
1 4.7123889803846897 0 0 1 
1 0 -0.75000000000000999 1 0 
1 5.7283742741995125 0 0 1 
1 4.7123889803846897 0 0 1 
1 6.2831853071795862 1.0000000000000009 -1 -5.6543194337129189e-16 
1 0 0.75 1 0 
1 4.7123889803846897 0 0 1 
1 0 -0.75000000000000999 1 0 
1 5.7283742741995161 0 0 1 
1 0 -0.75000000000000999 1 0 
1 1.5707963267948966 0 0 1 
1 0 0.75 1 0 
1 0.55481103298007417 0 0 -1 
1 6.2831853071795862 -1 -1 0 
1 4.7123889803846897 0 0 -1 
1 6.2831853071795862 1.0000000000000009 -1 -5.6543194337129189e-16 
1 0 -0.75000000000000999 1 0 
1 4.7123889803846897 0 0 -1 
1 0 0.75 1 0 
1 6.2831853071795862 -1 -1 0 
1 4.7123889803846897 0 0 1 
1 6.2831853071795862 1.0000000000000009 -1 -5.6543194337129189e-16 
1 6.2831853071795862 7.9899999999999984 -1 0 
1 3.1415926535897931 39.009999999999998 0 -1 
1 3.1415926535897931 39.009999999999998 0 -1 
1 0 31.02 1 0 
1 3.5137611875501169 0 0 1 
1 6.2831853071795862 47 -1 0 
1 0 39.009999999999998 0 1 
1 6.2831853071795862 39.009999999999998 0 1 
1 0 31.02 1 0 
1 6.2831853071795862 47 -1 0 
1 0 -23.5 1 0 
1 3.1415926535897931 -15.51 0 1 
1 3.1415926535897931 -15.51 0 1 
1 6.2831853071795862 -7.5199999999999996 -1 0 
1 0 -15.51 0 -1 
1 6.2831853071795862 -15.51 0 -1 
1 6.2831853071795862 8.5200000000000031 -1 0 
1 3.1415926535897931 16.009999999999998 0 1 
1 3.1415926535897931 16.009999999999998 0 1 
1 6.2831853071795862 23.5 -1 0 
1 0 16.009999999999998 0 -1 
1 6.2831853071795862 16.009999999999998 0 -1 
1 0 -0.75000000000000999 1 0 
1 3.1415926535897931 0 0 1 
1 3.1415926535897931 0 0 1 
1 0 0.75 1 0 
1 0 0 0 -1 
1 6.2831853071795862 0 0 -1 
1 6.2831853071795862 -1 -1 0 
1 3.1415926535897931 0 0 1 
1 3.1415926535897931 0 0 1 
1 6.2831853071795862 1.0000000000000027 -1 -5.6543194337129189e-16 
1 0 0 0 -1 
1 6.2831853071795862 0 0 -1 
1 0 -0.75000000000000999 1 0 
1 3.1415926535897931 0 0 1 
1 3.1415926535897931 0 0 1 
1 0 0.75 1 0 
1 0 0 0 -1 
1 6.2831853071795862 0 0 -1 
1 6.2831853071795862 -1 -1 0 
1 3.1415926535897931 0 0 1 
1 3.1415926535897931 0 0 1 
1 6.2831853071795862 1.0000000000000027 -1 -5.6543194337129189e-16 
1 0 0 0 -1 
1 6.2831853071795862 0 0 -1 
1 3.1415926535897931 0 0 -1 
1 3.1415926535897931 0 0 -1 
1 0 0 1 0 
1 3.5137611875501169 0 0 1 
1 6.2831853071795862 14.979999999999997 -1 0 
1 0 0 0 1 
1 6.2831853071795862 0 0 1 
1 0 0 1 0 
1 6.2831853071795862 14.979999999999997 -1 0 
1 6.2831853071795862 8.5200000000000031 -1 0 
1 6.2831853071795862 14.979999999999997 -1 0 
1 4.7123889803846897 0 0 1 
1 0 0 1 0 
1 4.7123889803846897 0 0 1 
1 6.2831853071795862 0.99999999999999911 -1 5.6543194337129189e-16 
1 6.2831853071795862 0.99999999999999911 -1 5.6543194337129189e-16 
1 6.2831853071795862 -1 -1 0 
1 0 0.75 1 0 
1 0 -0.75000000000000999 1 0 
1 6.2831853071795862 -1 -1 0 
1 0 0.75 1 0 
1 0 -0.75000000000000999 1 0 
1 6.2831853071795862 23.5 -1 0 
1 6.2831853071795862 -7.5199999999999996 -1 0 
1 0 -23.5 1 0 
1 0 31.02 1 0 
1 6.2831853071795862 47 -1 0 
1 3.1415926535897931 0 0 1 
1 3.1415926535897931 0 0 1 
1 7.8539816339744828 0 -1 0 
1 0 -23.300000000000001 1 0 
1 7.8539816339744828 0 -1 0 
1 0 -23.300000000000001 1 0 
1 6.2831853071795862 6.2831853071795862 0 -1 
1 0 6.2831853071795862 0 -1 
1 1.5707963267948966 1.5707963267948966 1 0 
1 0 -0.60000000000000009 1 0 
1 1.5707963267948966 1.5707963267948966 1 0 
1 0 -0.60000000000000031 1 7.0678992921411486e-17 
1 6.2831853071795862 0 0 -1 
1 0 0 0 -1 
1 0 0.39999999999999991 1 0 
1 3.1415926535897931 0 0 1 
1 3.1415926535897931 0 0 1 
1 0 -0.60000000000000009 1 0 
1 -4.7123889803846897 1.5707963267948966 1 0 
1 0 0 0 1 
1 6.2831853071795862 0 0 1 
1 0 -23.300000000000001 1 0 
1 1.5707963267948966 0 -1 0 
1 3.1415926535897931 0 0 -1 
1 3.1415926535897931 0 0 -1 
1 0 23.299999999999997 1 0 
1 1.5707963267948966 0 1 0 
1 0 23.299999999999997 1 0 
1 1.5707963267948966 0 1 0 
1 3.1415926535897931 0 0 1 
1 3.1415926535897931 0 0 1 
1 1.5707963267948966 0 1 0 
1 0 23.299999999999997 1 0 
1 6.2831853071795862 6.2831853071795862 0 -1 
1 0 6.2831853071795862 0 -1 
1 1.5707963267948966 1.5707963267948966 1 0 
1 0 -0.60000000000000142 1 0 
1 1.5707963267948966 1.5707963267948966 1 0 
1 0 -0.60000000000000142 1 0 
1 6.2831853071795862 0 0 -1 
1 0 0 0 -1 
1 0 0.39999999999999858 1 0 
1 3.1415926535897931 0 0 1 
1 3.1415926535897931 0 0 1 
1 0 -0.60000000000000142 1 0 
1 -4.7123889803846897 1.5707963267948966 1 0 
1 0 -0.60000000000000142 1 0 
1 1.5707963267948966 1.5707963267948966 1 0 
1 0 0.39999999999999858 1 0 
1 -4.7123889803846897 0 1 0 
1 0 23.299999999999997 1 0 
1 0 -23.300000000000001 1 0 
1 7.8539816339744828 0 -1 0 
1 0 -0.60000000000000009 1 -7.0678992921411486e-17 
1 1.5707963267948966 1.5707963267948966 1 0 
1 0 0.39999999999999991 1 0 
Curves 216
2 0 0 16.510000000000002 0 0 -1 1 0 0 0 -1 0 2.5
1 -2.5 3.0615158845559402e-16 23.5 -0 0 1 
2 0 0 31.489999999999998 0 0 -1 1 0 0 0 -1 0 2.5
1 2.5 -3.0615158845559402e-16 23.5 -0 0 -1 
2 -9.75 -3.5 11 0 1 -0 1 0 0 0 -0 -1 2.75
1 -9.75 -4.5 13.75 0 -1 0 
2 -9.75 -5.5 11 3.9474596431116699e-16 1 0 1 -3.9474596431116699e-16 0 0 0 -1 2.75
1 -7 -4.5 11 -0 1 -0 
2 -11.25 -3.5 11 0 -1 0 1 0 0 -0 0 1 5
1 -11.25 -2.75 16 0 -1 0 
2 -11.25 -1.99999999999999 11 -1.7244140909848701e-17 -1 0 1 -1.7244140909848701e-17 0 0 0 1 5
1 -16.25 -2.75 11 -0 -1 0 
2 -11.25 -5.5 11 3.9474596431116699e-16 1 0 1 -3.9474596431116699e-16 0 0 0 -1 2.75
1 -11.25 -4.5 13.75 0 -1 0 
2 -11.25 -3.5 11 0 1 -0 1 0 0 0 -0 -1 2.75
1 -14 -4.5 11 -0 -1 0 
2 -9.75 -3.5 36 -0 1 0 1 0 0 0 0 -1 2.75
1 -9.75 -4.5 38.75 0 -1 0 
2 -9.75 -5.5 36 3.9474596431116699e-16 1 0 1 -3.9474596431116699e-16 0 0 0 -1 2.75
1 -7 -4.5 36 -0 1 -0 
2 -11.25 -3.5 36 0 -1 0 1 0 0 -0 0 1 5
1 -11.25 -2.75 41 0 -1 0 
2 -11.25 -1.99999999999999 36 -1.7244140909848701e-17 -1 0 1 -1.7244140909848701e-17 0 0 0 1 5
1 -16.25 -2.75 36 -0 -1 0 
2 -11.25 -5.5 36 3.9474596431116699e-16 1 0 1 -3.9474596431116699e-16 0 0 0 -1 2.75
1 -11.25 -4.5 38.75 0 -1 0 
2 -11.25 -3.5 36 -0 1 0 1 0 0 0 0 -1 2.75
1 -14 -4.5 36 -0 -1 0 
1 -5.5 7.8374806644632097e-16 24 -0 -0 -1 
2 0 1.10214571844014e-16 16.510000000000002 0 0 1 1 0 -0 -0 1 0 5.5
1 -5.1234753829797999 -1.99999999999999 0 0 0 1 
2 0 1.10214571844014e-16 31.489999999999998 0 0 -1 1 0 0 0 -1 0 5.5
1 5.5 -5.6331892275829401e-16 24 0 0 1 
2 0 1.10214571844014e-16 16.510000000000002 0 0 1 1 0 -0 -0 1 0 5.5
2 0 1.10214571844014e-16 31.489999999999998 0 0 -1 1 0 0 0 -1 0 5.5
2 0 0 16.510000000000002 0 0 -1 1 0 0 0 -1 0 2.5
1 -5.7808688457449504 -1.99999999999999 16.510000000000002 -1 1.7244140909848701e-17 0 
2 0 1.10214571844014e-16 16.510000000000002 0 0 1 1 0 -0 -0 1 0 5.5
1 -4.5 -5.5 16.510000000000002 1 -3.9474596431116699e-16 0 
1 -5.5 0 16.510000000000002 0 -1 0 
2 0 1.10214571844014e-16 31.489999999999998 0 0 -1 1 0 0 0 -1 0 5.5
1 -1.9255357129984399e-15 -5.5 0 0 0 1 
1 -5.5 -3.5 37.622500000000002 -0 0 1 
2 -9.75 -3.5 36 0 -1 0 1 0 0 -0 0 1 5
1 -10.5 -3.5 31 -1 0 0 
2 -11.25 -3.5 36 0 -1 0 1 0 0 -0 0 1 5
1 -10.5 -3.5 41 1 0 0 
2 -9.75 -3.5 36 0 -1 0 1 0 0 -0 0 1 5
2 -11.25 -3.5 36 -0 1 0 1 0 0 0 0 -1 2.75
1 -10.125 -3.5 33.25 -1 0 0 
2 -9.75 -3.5 36 -0 1 0 1 0 0 0 0 -1 2.75
1 -10.125 -3.5 38.75 1 0 0 
2 -9.75 -1.99999999999999 36 -1.7244140909848701e-17 -1 0 1 -1.7244140909848701e-17 0 0 0 1 5
1 -9.75 -2.75 41 0 -1 0 
1 -5.5 -2.75 38.633913438213199 -0 1 -0 
1 -11.25 -4.5 33.25 0 1 0 
2 -11.25 -5.5 36 3.9474596431116699e-16 1 0 1 -3.9474596431116699e-16 0 0 0 -1 2.75
2 -11.25 -1.99999999999999 36 -1.7244140909848701e-17 -1 0 1 -1.7244140909848701e-17 0 0 0 1 5
1 -11.25 -2.75 31 0 1 0 
1 -11.030868845744999 -2 41 -1 1.7244140909848701e-17 0 
1 -9.75 -2.75 31 0 -1 0 
1 -11.030868845744999 -2 31 1 -1.7244140909848701e-17 0 
2 -9.75 -1.99999999999999 36 -1.7244140909848701e-17 -1 0 1 -1.7244140909848701e-17 0 0 0 1 5
1 -5.5 -2.75 33.366086561786801 0 -1 0 
1 -9.75 -5.5 38.75 1 -3.9474596431116699e-16 0 
1 -9.75 -4.5 33.25 0 -1 0 
1 -9.75 -5.5 33.25 -1 3.9474596431116699e-16 0 
2 -9.75 -5.5 36 3.9474596431116699e-16 1 0 1 -3.9474596431116699e-16 0 0 0 -1 2.75
1 -5.5 -1.99999999999999 19.622499999999999 0 -0 -1 
1 -5.5 -0.98127516254345504 47 0 1 0 
1 -5.5 -5.5 19.622499999999999 -0 0 1 
1 -5.5 0 31.489999999999998 0 1 0 
1 -5.5 -1.99999999999999 19.622499999999999 0 -0 -1 
2 -9.75 -3.5 11 0 -1 0 1 0 0 -0 0 1 5
1 -9.75 -2.75 6 0 -1 0 
2 -9.75 -1.99999999999999 11 -1.7244140909848701e-17 -1 0 1 -1.7244140909848701e-17 0 0 0 1 5
1 -5.5 -2.75 8.3660865617868208 0 -1 0 
2 -9.75 -1.99999999999999 11 -1.7244140909848701e-17 -1 0 1 -1.7244140909848701e-17 0 0 0 1 5
1 -9.75 -2.75 16 0 -1 0 
2 -9.75 -3.5 11 0 -1 0 1 0 0 -0 0 1 5
1 -5.5 -2.75 13.633913438213201 -0 1 -0 
2 -11.25 -3.5 11 0 1 -0 1 0 0 0 -0 -1 2.75
1 -11.25 -4.5 8.25 0 1 0 
2 -11.25 -5.5 11 3.9474596431116699e-16 1 0 1 -3.9474596431116699e-16 0 0 0 -1 2.75
2 -11.25 -1.99999999999999 11 -1.7244140909848701e-17 -1 0 1 -1.7244140909848701e-17 0 0 0 1 5
1 -11.25 -2.75 6 0 1 0 
2 -11.25 -3.5 11 0 -1 0 1 0 0 -0 0 1 5
1 -10.5 -3.5 16 1 0 0 
1 -11.030868845744999 -1.99999999999999 16 -1 1.7244140909848701e-17 0 
1 -11.030868845744999 -1.99999999999999 6 1 -1.7244140909848701e-17 0 
1 -10.5 -3.5 6 -1 0 0 
1 -5.5 -3.5 9.3774999999999995 -0 0 1 
1 -10.125 -3.5 8.25 -1 0 0 
2 -9.75 -3.5 11 0 1 -0 1 0 0 0 -0 -1 2.75
1 -10.125 -3.5 13.75 1 0 0 
1 -9.75 -5.5 13.75 1 -3.9474596431116699e-16 0 
1 -9.75 -4.5 8.25 0 -1 0 
1 -9.75 -5.5 8.25 -1 3.9474596431116699e-16 0 
2 -9.75 -5.5 11 3.9474596431116699e-16 1 0 1 -3.9474596431116699e-16 0 0 0 -1 2.75
1 -5.5 -1.99999999999999 8.0050000000000008 0 -0 -1 
1 -5.5 -5.5 8.0050000000000008 -0 0 1 
1 -5.5 -0.98127516254345504 0 0 -1 0 
1 -5.5 -1.99999999999999 3.8774999999999999 0 -0 -1 
2 0 0 31.489999999999998 0 0 -1 1 0 0 0 -1 0 2.5
1 -5.7808688457449504 -1.99999999999999 31.489999999999998 1 -1.7244140909848701e-17 0 
1 -4.5 -5.5 31.489999999999998 -1 3.9474596431116699e-16 0 
1 -18 -1.99999999999999 47 1 -1.7244140909848701e-17 0 
1 -18 -5.4999999999999902 47 0 1 0 
1 -1.9255357129984399e-15 -5.5 47 -1 3.9474596431116699e-16 0 
1 -18 -1.99999999999999 0 1 -1.7244140909848701e-17 0 
1 -18 -1.99999999999999 0 0 0 1 
1 -18 -5.4999999999999902 0 0 1 0 
1 -18 -5.4999999999999902 0 0 0 1 
1 -1.9255357129984399e-15 -5.5 0 -1 3.9474596431116699e-16 0 
1 5.5 7.8374806644632097e-16 7.9900000000000002 -1.22460635382238e-16 -0 1 
2 -1.95692095340816e-15 1.10214571844014e-16 15.98 1.22460635382238e-16 0 -1 -1 0 -1.22460635382238e-16 0 1 0 5.5
1 5.1234753829797999 -1.99999999999999 47 1.22460635382238e-16 0 -1 
2 0 1.10214571844014e-16 0 -1.22460635382238e-16 -0 1 -1 0 -1.22460635382238e-16 0 -1 -0 5.5
1 -5.5 -5.6331892275829401e-16 7.9900000000000002 1.22460635382238e-16 0 -1 
2 -1.95692095340816e-15 1.10214571844014e-16 15.98 1.22460635382238e-16 0 -1 -1 0 -1.22460635382238e-16 0 1 0 5.5
2 0 1.10214571844014e-16 0 -1.22460635382238e-16 -0 1 -1 0 -1.22460635382238e-16 0 -1 -0 5.5
2 0 0 0 -1.22460635382238e-16 -0 1 -1 0 -1.22460635382238e-16 0 -1 -0 2.5
1 2.5 -3.0615158845559402e-16 7.9900000000000002 -1.22460635382238e-16 -0 1 
2 -1.95692095340816e-15 0 15.98 1.22460635382238e-16 0 -1 -1 0 -1.22460635382238e-16 0 1 0 2.5
1 -2.5 3.0615158845559402e-16 7.9900000000000002 1.22460635382238e-16 -0 -1 
2 -3.92118954493925e-15 0 32.020000000000003 -0 0 -1 -1 0 0 0 1 0 2.5
1 2.5 -3.0615158845559402e-16 39.509999999999998 -1.22460635382238e-16 -0 1 
2 -5.75564986296517e-15 0 47 1.22460635382238e-16 0 -1 -1 0 -1.22460635382238e-16 0 1 0 2.5
1 -2.5 3.0615158845559402e-16 39.509999999999998 1.22460635382238e-16 -0 -1 
2 10.5 -1.99999999999999 11 1.7244140909848701e-17 -1 2.1117284524409099e-33 1 1.7244140909848701e-17 -3.64149429972276e-50 -1.8041578716943618e-64 2.1117284524409099e-33 1 5
1 5.5 -2.75 11 -0 -1 0 
2 10.5 -3.5 11 0 -1 0 1 0 0 -0 0 1 5
1 15.5 -2.75 11 -0 1 -0 
2 10.5 -3.5 11 0 1 -0 1 0 0 0 -0 -1 2.75
1 7.75 -4.5 11 -0 -1 0 
2 10.5 -5.5 11 -3.9474596431116699e-16 1 -4.8340841604119598e-32 1 3.9474596431116699e-16 -1.9082352134631601e-47 -2.9170384114974102e-62 -4.8340841604119598e-32 -1 2.75
1 13.25 -4.5 11 -0 1 -0 
2 10.5 -1.99999999999999 36 1.7244140909848701e-17 -1 2.1117284524409099e-33 1 1.7244140909848701e-17 -3.64149429972276e-50 -1.8041578716943618e-64 2.1117284524409099e-33 1 5
1 5.5 -2.75 36 -0 -1 0 
2 10.5 -3.5 36 0 -1 0 1 0 0 -0 0 1 5
1 15.5 -2.75 36 -0 1 -0 
2 10.5 -3.5 36 -0 1 0 1 0 0 0 0 -1 2.75
1 7.75 -4.5 36 -0 -1 0 
2 10.5 -5.5 36 -3.9474596431116699e-16 1 -4.8340841604119598e-32 1 3.9474596431116699e-16 -1.9082352134631601e-47 -2.9170384114974102e-62 -4.8340841604119598e-32 -1 2.75
1 13.25 -4.5 36 -0 1 -0 
1 5.4999999999999902 7.8374806644632097e-16 47 -1.22460635382238e-16 -0 1 
2 -5.75564986296517e-15 1.10214571844014e-16 47 1.22460635382238e-16 0 -1 -1 0 -1.22460635382238e-16 0 1 0 5.5
1 5.1234753829797999 -1.99999999999999 47 1.22460635382238e-16 0 -1 
2 -3.92118954493925e-15 1.10214571844014e-16 32.020000000000003 0 0 1 -1 0 0 0 -1 0 5.5
1 -5.5000000000000098 -5.6331892275829401e-16 47 1.22460635382238e-16 0 -1 
2 -5.75564986296517e-15 1.10214571844014e-16 47 1.22460635382238e-16 0 -1 -1 0 -1.22460635382238e-16 0 1 0 5.5
2 -3.92118954493925e-15 1.10214571844014e-16 32.020000000000003 0 0 1 -1 0 0 0 -1 0 5.5
2 -3.92118954493925e-15 0 32.020000000000003 -0 0 -1 -1 0 0 0 1 0 2.5
1 5.7808688457449504 -1.99999999999999 32.020000000000003 -1 -1.7244140909848701e-17 0 
1 5.5 0 32.020000000000003 0 1 0 
1 4.5 -5.5 32.020000000000003 1 3.9474596431116699e-16 -0 
2 -3.92118954493925e-15 1.10214571844014e-16 32.020000000000003 0 0 1 -1 0 0 0 -1 0 5.5
1 -3.8301141499667403e-15 -5.5 47 1.22460635382238e-16 0 -1 
2 -5.75564986296517e-15 1.10214571844014e-16 47 1.22460635382238e-16 0 -1 -1 0 -1.22460635382238e-16 0 1 0 5.5
1 5.5 -5.5 39.259999999999998 -0 -4.8340841604119598e-32 -1 
1 4.5 -5.5 15.98 -1 -3.9474596431116699e-16 -1.22460635382238e-16 
1 -3.8301141499667403e-15 -5.5 47 1.22460635382238e-16 0 -1 
1 1.9255357129984399e-15 -5.5 2.3580232686497901e-31 1 3.9474596431116699e-16 1.22460635382238e-16 
1 18 -5.4999999999999902 47 1.22460635382238e-16 0 -1 
1 -3.8301141499667403e-15 -5.5 47 1 3.9474596431116699e-16 1.22460635382238e-16 
2 10.5 -5.5 11 -3.9474596431116699e-16 1 -4.8340841604119598e-32 1 3.9474596431116699e-16 -1.9082352134631601e-47 -2.9170384114974102e-62 -4.8340841604119598e-32 -1 2.75
2 10.5 -5.5 36 -3.9474596431116699e-16 1 -4.8340841604119598e-32 1 3.9474596431116699e-16 -1.9082352134631601e-47 -2.9170384114974102e-62 -4.8340841604119598e-32 -1 2.75
2 10.5 -3.5 36 -0 1 0 1 0 0 0 0 -1 2.75
2 10.5 -3.5 36 0 -1 0 1 0 0 -0 0 1 5
2 10.5 -1.99999999999999 36 1.7244140909848701e-17 -1 2.1117284524409099e-33 1 1.7244140909848701e-17 -3.64149429972276e-50 -1.8041578716943618e-64 2.1117284524409099e-33 1 5
2 10.5 -3.5 11 0 1 -0 1 0 0 0 -0 -1 2.75
2 10.5 -3.5 11 0 -1 0 1 0 0 -0 0 1 5
2 10.5 -1.99999999999999 11 1.7244140909848701e-17 -1 2.1117284524409099e-33 1 1.7244140909848701e-17 -3.64149429972276e-50 -1.8041578716943618e-64 2.1117284524409099e-33 1 5
2 -5.75564986296517e-15 0 47 1.22460635382238e-16 0 -1 -1 0 -1.22460635382238e-16 0 1 0 2.5
2 -1.95692095340816e-15 0 15.98 1.22460635382238e-16 0 -1 -1 0 -1.22460635382238e-16 0 1 0 2.5
2 0 0 0 -1.22460635382238e-16 -0 1 -1 0 -1.22460635382238e-16 0 -1 -0 2.5
2 -1.95692095340816e-15 1.10214571844014e-16 15.98 1.22460635382238e-16 0 -1 -1 0 -1.22460635382238e-16 0 1 0 5.5
1 5.5 0 15.98 0 -1 -0 
1 5.7808688457449504 -1.99999999999999 15.98 1 1.7244140909848701e-17 1.22460635382238e-16 
1 5.5 -1.99999999999999 39.259999999999998 0 2.1117284524409099e-33 1 
1 18 -1.99999999999999 47 -1 -1.7244140909848701e-17 -1.22460635382238e-16 
1 18 -1.99999999999999 47 1.22460635382238e-16 0 -1 
1 18 -1.99999999999999 2.2042914368802799e-15 -1 -1.7244140909848701e-17 -1.22460635382238e-16 
2 0 1.10214571844014e-16 0 -1.22460635382238e-16 -0 1 -1 0 -1.22460635382238e-16 0 -1 -0 5.5
1 18 -5.4999999999999902 2.2042914368802799e-15 0 1 0 
1 18 -5.4999999999999902 47 0 1 0 
2 1.4695276245868501e-16 -1.2 0.19999999999999901 1 1.22460635382238e-16 7.4983036091106899e-33 1.22460635382238e-16 -1 -6.12303176911189e-17 -1.7789921910373654e-47 6.12303176911189e-17 -1 1.2
2 0 -7.3476381229342603e-17 0.19999999999999901 0 0 1 1 0 -0 -0 1 0 2.3999999999999999
2 0 -7.3476381229342603e-17 0.19999999999999901 0 0 1 1 0 -0 -0 1 0 2.3999999999999999
2 -1.4695276245868501e-16 1.2 0.19999999999999901 1 1.22460635382238e-16 7.4983036091106899e-33 -1.22460635382238e-16 1 6.12303176911189e-17 1.7789921910373654e-47 -6.12303176911189e-17 1 1.2
2 0 0 -1 0 6.12303176911189e-17 -1 1 0 0 0 -1 -6.12303176911189e-17 1.2
2 0 0 -1 0 6.12303176911189e-17 -1 1 0 0 0 -1 -6.12303176911189e-17 1.2
1 1.2 1.8369095307335701e-16 -1.6000000000000001 -0 -6.12303176911189e-17 1 
2 0 6.1230317691118801e-17 -2 0 0 -1 1 0 0 0 -1 0 1.2
1 -1.2 -1.10214571844014e-16 -1.6000000000000001 0 6.12303176911189e-17 -1 
2 0 0 -1 0 6.12303176911189e-17 -1 1 0 0 0 -1 -6.12303176911189e-17 1.2
1 2.3999999999999999 -2.9390552491737101e-16 23.5 0 0 1 
2 0 -7.3476381229342603e-17 0.19999999999999901 0 0 1 1 0 -0 -0 1 0 2.3999999999999999
1 -2.3999999999999999 2.9390552491737101e-16 23.5 -0 -0 -1 
2 0 -7.3476381229342603e-17 46.799999999999997 0 0 1 1 0 -0 -0 1 0 2.3999999999999999
2 0 -7.3476381229342603e-17 46.799999999999997 0 0 1 1 0 -0 -0 1 0 2.3999999999999999
2 1.4695276245868501e-16 1.2 46.799999999999997 1 -1.22460635382238e-16 7.4983036091106899e-33 1.22460635382238e-16 1 -6.12303176911189e-17 1.7789921910373654e-47 6.12303176911189e-17 1 1.2
2 0 -7.3476381229342603e-17 46.799999999999997 0 0 1 1 0 -0 -0 1 0 2.3999999999999999
2 -1.4695276245868501e-16 -1.2 46.799999999999997 1 -1.22460635382238e-16 7.4983036091106899e-33 -1.22460635382238e-16 -1 6.12303176911189e-17 -1.7789921910373654e-47 -6.12303176911189e-17 -1 1.2
2 0 0 48 -0 6.12303176911189e-17 1 1 0 0 0 1 -6.12303176911189e-17 1.2
2 0 0 48 -0 6.12303176911189e-17 1 1 0 0 0 1 -6.12303176911189e-17 1.2
1 1.2 -1.10214571844014e-16 48.600000000000001 -0 -6.12303176911189e-17 -1 
2 0 6.1230317691118801e-17 49 0 0 1 1 0 -0 -0 1 0 1.2
1 -1.2 1.83690953073356e-16 48.600000000000001 0 6.12303176911189e-17 1 
2 0 0 48 -0 6.12303176911189e-17 1 1 0 0 0 1 -6.12303176911189e-17 1.2
2 0 0 48 -0 6.12303176911189e-17 1 1 0 0 0 1 -6.12303176911189e-17 1.2
2 0 6.1230317691118801e-17 49 0 0 1 1 0 -0 -0 1 0 1.2
2 0 -7.3476381229342603e-17 46.799999999999997 0 0 1 1 0 -0 -0 1 0 2.3999999999999999
2 0 -7.3476381229342603e-17 0.19999999999999901 0 0 1 1 0 -0 -0 1 0 2.3999999999999999
2 0 0 -1 0 6.12303176911189e-17 -1 1 0 0 0 -1 -6.12303176911189e-17 1.2
2 0 6.1230317691118801e-17 -2 0 0 -1 1 0 0 0 -1 0 1.2
Polygon3D 0
PolygonOnTriangulations 0
Surfaces 80
2 0 0 23.5 0 0 1 1 0 -0 -0 1 0 2.5
1 0 0 16.510000000000002 0 0 1 1 0 -0 -0 1 0 
2 0 0 23.5 0 0 1 1 0 -0 -0 1 0 2.5
1 0 0 31.489999999999998 0 0 1 1 0 -0 -0 1 0 
2 -9.75 -4.5 11 0 -1 0 1 0 0 -0 0 1 2.75
1 -9.75 -3.5 11 0 -1 0 1 0 0 -0 0 1 
1 -10.5 -4.5 13.75 0 0 1 1 0 -0 -0 1 0 
1 -9 -5.5 0 -3.9474596431116699e-16 -1 0 1 -3.9474596431116699e-16 -0 0 0 1 
2 -9.75 -4.5 11 0 -1 0 1 0 0 -0 0 1 2.75
2 -11.25 -2.75 11 0 -1 0 1 0 0 -0 0 1 5
1 -10.5 -2.75 16 0 0 1 1 0 -0 -0 1 0 
1 -11.561737691489901 -1.99999999999999 0 1.7244140909848701e-17 1 -0 -1 1.7244140909848701e-17 0 0 0 1 
2 -11.25 -2.75 11 0 -1 0 1 0 0 -0 0 1 5
2 -11.25 -4.5 11 0 -1 0 1 0 0 -0 0 1 2.75
2 -11.25 -4.5 11 0 -1 0 1 0 0 -0 0 1 2.75
2 -9.75 -4.5 36 0 -1 0 1 0 0 -0 0 1 2.75
1 -9.75 -3.5 36 0 -1 0 1 0 0 -0 0 1 
1 -10.5 -4.5 38.75 0 0 1 1 0 -0 -0 1 0 
2 -9.75 -4.5 36 0 -1 0 1 0 0 -0 0 1 2.75
2 -11.25 -2.75 36 0 -1 0 1 0 0 -0 0 1 5
1 -10.5 -2.75 41 0 0 1 1 0 -0 -0 1 0 
2 -11.25 -2.75 36 0 -1 0 1 0 0 -0 0 1 5
2 -11.25 -4.5 36 0 -1 0 1 0 0 -0 0 1 2.75
2 -11.25 -4.5 36 0 -1 0 1 0 0 -0 0 1 2.75
2 0 1.10214571844014e-16 0 0 0 1 1 0 -0 -0 1 0 5.5
2 0 1.10214571844014e-16 0 0 0 1 1 0 -0 -0 1 0 5.5
2 0 1.10214571844014e-16 0 0 0 1 1 0 -0 -0 1 0 5.5
1 -5.5 0 7.7549999999999999 1 0 0 0 0 -1 -0 1 0 
1 -5.5 0 39.244999999999997 1 0 0 0 0 -1 -0 1 0 
2 -9.75 -2.75 36 0 -1 0 1 0 0 -0 0 1 5
1 -10.5 -2.75 31 0 0 1 1 0 -0 -0 1 0 
2 -9.75 -2.75 36 0 -1 0 1 0 0 -0 0 1 5
1 -10.5 -4.5 33.25 0 0 1 1 0 -0 -0 1 0 
1 -5.8270297448209396 -1.9625503250869101 47 0 0 1 1 0 -0 -0 1 0 
2 -9.75 -2.75 11 0 -1 0 1 0 0 -0 0 1 5
1 -10.5 -2.75 6 0 0 1 1 0 -0 -0 1 0 
2 -9.75 -2.75 11 0 -1 0 1 0 0 -0 0 1 5
1 -10.5 -4.5 8.25 0 0 1 1 0 -0 -0 1 0 
1 -5.8270297448209396 -1.9625503250869101 0 0 0 1 1 0 -0 -0 1 0 
1 -18 -3.7499999999999898 0 -1 -0 0 0 -1 -0 0 0 1 
2 -5.75564986296517e-15 1.10214571844014e-16 47 1.22460635382238e-16 0 -1 -1 0 -1.22460635382238e-16 0 1 0 5.5
2 -5.75564986296517e-15 1.10214571844014e-16 47 1.22460635382238e-16 0 -1 -1 0 -1.22460635382238e-16 0 1 0 5.5
1 -1.95692095340816e-15 0 15.98 1.22460635382238e-16 0 -1 -1 0 -1.22460635382238e-16 0 1 0 
1 11.561737691489901 -1.99999999999999 47 -1.7244140909848701e-17 1 -2.1117284524409099e-33 1 1.7244140909848701e-17 1.22460635382238e-16 1.22460635382238e-16 5.8159360091606177e-48 -1 
1 5.8270297448209396 -1.9625503250869101 7.1358176494197103e-16 1.22460635382238e-16 0 -1 -1 0 -1.22460635382238e-16 0 1 0 
2 -5.75564986296517e-15 1.10214571844014e-16 47 1.22460635382238e-16 0 -1 -1 0 -1.22460635382238e-16 0 1 0 5.5
2 -2.8778249314825901e-15 0 23.5 -1.22460635382238e-16 0 1 -1 0 -1.22460635382238e-16 -0 -1 0 2.5
2 -2.8778249314825901e-15 0 23.5 -1.22460635382238e-16 0 1 -1 0 -1.22460635382238e-16 -0 -1 0 2.5
2 -2.8778249314825901e-15 0 23.5 -1.22460635382238e-16 0 1 -1 0 -1.22460635382238e-16 -0 -1 0 2.5
1 0 0 32.020000000000003 0 0 1 1 0 -0 -0 1 0 
2 -2.8778249314825901e-15 0 23.5 -1.22460635382238e-16 0 1 -1 0 -1.22460635382238e-16 -0 -1 0 2.5
1 5.8270297448209298 -1.9625503250869101 47 1.22460635382238e-16 0 -1 -1 0 -1.22460635382238e-16 0 1 0 
2 10.5 -2.75 11 0 -1 0 1 0 0 -0 0 1 5
2 10.5 -2.75 11 0 -1 0 1 0 0 -0 0 1 5
1 10.5 -3.5 11 0 -1 0 1 0 0 -0 0 1 
2 10.5 -4.5 11 0 -1 0 1 0 0 -0 0 1 2.75
2 10.5 -4.5 11 0 -1 0 1 0 0 -0 0 1 2.75
1 8.9999999999999893 -5.5 47 3.9474596431116699e-16 -1 4.8340841604119598e-32 -1 -3.9474596431116699e-16 -1.22460635382238e-16 1.22460635382238e-16 1.5874084166179568e-46 -1 
2 10.5 -2.75 36 0 -1 0 1 0 0 -0 0 1 5
2 10.5 -2.75 36 0 -1 0 1 0 0 -0 0 1 5
1 10.5 -3.5 36 0 -1 0 1 0 0 -0 0 1 
2 10.5 -4.5 36 0 -1 0 1 0 0 -0 0 1 2.75
2 10.5 -4.5 36 0 -1 0 1 0 0 -0 0 1 2.75
2 -5.75564986296517e-15 1.10214571844014e-16 47 1.22460635382238e-16 0 -1 -1 0 -1.22460635382238e-16 0 1 0 5.5
2 -5.75564986296517e-15 1.10214571844014e-16 47 1.22460635382238e-16 0 -1 -1 0 -1.22460635382238e-16 0 1 0 5.5
2 -5.75564986296517e-15 1.10214571844014e-16 47 1.22460635382238e-16 0 -1 -1 0 -1.22460635382238e-16 0 1 0 5.5
1 5.5 0 23.734999999999999 -1 0 -1.22460635382238e-16 -1.22460635382238e-16 0 1 0 1 0 
1 18 -3.7499999999999898 47 1 0 1.22460635382238e-16 0 -1 0 1.22460635382238e-16 0 -1 
5 0 -7.3476381229342603e-17 0.19999999999999901 0 6.12303176911189e-17 -1 0 1 6.12303176911189e-17 1 -0 0 1.2 1.2
5 0 -7.3476381229342603e-17 0.19999999999999901 0 6.12303176911189e-17 -1 0 1 6.12303176911189e-17 1 -0 0 1.2 1.2
2 0 0 23.5 0 0 1 1 0 -0 -0 1 0 2.3999999999999999
2 0 0 23.5 0 0 1 1 0 -0 -0 1 0 2.3999999999999999
2 0 3.6738190614671302e-17 -1.6000000000000001 0 6.12303176911189e-17 -1 1 0 0 0 -1 -6.12303176911189e-17 1.2
2 0 3.6738190614671302e-17 -1.6000000000000001 0 6.12303176911189e-17 -1 1 0 0 0 -1 -6.12303176911189e-17 1.2
1 0 0 -2 0 0 -1 -1 0 0 0 1 0 
5 0 -7.3476381229342603e-17 46.799999999999997 0 6.12303176911189e-17 1 0 -1 6.12303176911189e-17 1 0 -0 1.2 1.2
5 0 -7.3476381229342603e-17 46.799999999999997 0 6.12303176911189e-17 1 0 -1 6.12303176911189e-17 1 0 -0 1.2 1.2
2 0 3.6738190614671302e-17 48.600000000000001 -0 6.12303176911189e-17 1 1 0 0 0 1 -6.12303176911189e-17 1.2
2 0 3.6738190614671302e-17 48.600000000000001 -0 6.12303176911189e-17 1 1 0 0 0 1 -6.12303176911189e-17 1.2
1 0 0 49 0 0 1 1 0 -0 -0 1 0 
Triangulations 0

TShapes 543
Ve
1e-07
-2.5 3.06151588455594e-16 16.51
0 0

0101101
*
Ve
1e-07
2.5 -3.06151588455594e-16 16.51
0 0

0101101
*
Ed
 1e-07 1 1 0
1  1 0 3.14159265358979 6.28318530717959
2  1 1 0 3.14159265358979 6.28318530717959
4 C0 1 0 2 0
0

0101000
+543 0 -542 0 *
Ve
1e-07
-2.5 3.06151588455594e-16 31.49
0 0

0101101
*
Ed
 1e-07 1 1 0
1  2 0 -6.99 7.99
2  2 1 0 -6.99 7.99
2  3 3 0 -6.99 7.99
4 CN 1 0 3 0
0

0101000
+543 0 -540 0 *
Ve
1e-07
2.5 -3.06151588455594e-16 31.49
0 0

0101101
*
Ed
 1e-07 1 1 0
1  3 0 3.14159265358979 6.28318530717959
2  4 1 0 3.14159265358979 6.28318530717959
4 C0 1 0 4 0
0

0101000
+540 0 -538 0 *
Ed
 1e-07 1 1 0
1  4 0 -7.99 6.99
2  5 1 0 -7.99 6.99
2  6 3 0 -7.99 6.99
4 CN 1 0 3 0
0

0101000
+538 0 -542 0 *
Wi

0101100
-541 0 +539 0 +537 0 +536 0 *
Fa
0  1e-07 1 0

0111000
+535 0 *
Ve
1e-07
-9.75 -3.5 13.75
0 0

0101101
*
Ve
1e-07
-7 -3.5 11
0 0

0101101
*
Ed
 1e-07 1 1 0
1  5 0 4.71238898038469 6.28318530717959
2  7 5 0 4.71238898038469 6.28318530717959
4 C0 5 0 6 0
0

0101000
+533 0 -532 0 *
Ve
1e-07
-9.75 -5.5 13.75
0 0

0101101
*
Ed
 1e-07 1 1 0
1  6 0 -1 1
2  8 5 0 -1 1
4 G1 5 0 7 0
0

0101000
+533 0 -530 0 *
Ve
1e-07
-7 -5.5 11
0 0

0101101
*
Ed
 1e-07 1 1 0
1  7 0 4.71238898038469 6.28318530717959
2  9 5 0 4.71238898038469 6.28318530717959
4 C0 5 0 8 0
0

0101000
+530 0 -528 0 *
Ed
 1e-07 1 1 0
1  8 0 -1 1
2  10 5 0 -1 1
2  11 9 0 -1 1
4 CN 5 0 9 0
0

0101000
+528 0 -532 0 *
Wi

0101100
-531 0 +529 0 +527 0 +526 0 *
Fa
0  1e-07 5 0

0111000
+525 0 *
Ve
1e-07
-11.25 -3.5 16
0 0

0101101
*
Ve
1e-07
-16.25 -3.5 11
0 0

0101101
*
Ed
 1e-07 1 1 0
1  9 0 1.5707963267949 3.14159265358979
2  12 10 0 1.5707963267949 3.14159265358979
4 C0 10 0 6 0
0

0101000
+523 0 -522 0 *
Ve
1e-07
-11.25 -2 16
0 0

0101101
*
Ed
 1e-07 1 1 0
1  10 0 -0.75 0.75
2  13 10 0 -0.75 0.75
4 G1 10 0 11 0
0

0101000
+520 0 -523 0 *
Ve
1e-07
-16.25 -1.99999999999999 11
0 0

0101101
*
Ed
 1e-07 1 1 0
1  11 0 1.5707963267949 3.14159265358979
2  14 10 0 1.5707963267949 3.14159265358979
4 C0 10 0 12 0
0

0101000
+520 0 -518 0 *
Ed
 1e-07 1 1 0
1  12 0 -0.75000000000001 0.75
2  15 10 0 -0.75000000000001 0.75
2  16 13 0 -0.75000000000001 0.75
4 CN 10 0 13 0
0

0101000
+518 0 -522 0 *
Wi

0101100
-521 0 -519 0 +517 0 +516 0 *
Fa
0  1e-07 10 0

0111000
+515 0 *
Ve
1e-07
-14 -5.49999999999999 11
0 0

0101101
*
Ve
1e-07
-11.25 -5.5 13.75
0 0

0101101
*
Ed
 1e-07 1 1 0
1  13 0 3.14159265358979 4.71238898038469
2  17 14 0 3.14159265358979 4.71238898038469
4 C0 14 0 8 0
0

0101000
+513 0 -512 0 *
Ve
1e-07
-11.25 -3.5 13.75
0 0

0101101
*
Ed
 1e-07 1 1 0
1  14 0 -1 1
2  18 14 0 -1 1
4 G1 14 0 7 0
0

0101000
+510 0 -512 0 *
Ve
1e-07
-14 -3.5 11
0 0

0101101
*
Ed
 1e-07 1 1 0
1  15 0 3.14159265358979 4.71238898038469
2  19 14 0 3.14159265358979 4.71238898038469
4 C0 14 0 6 0
0

0101000
+508 0 -510 0 *
Ed
 1e-07 1 1 0
1  16 0 -1 0.99999999999999
2  20 14 0 -1 0.99999999999999
2  21 15 0 -1 0.99999999999999
4 CN 14 0 15 0
0

0101000
+508 0 -513 0 *
Wi

0101100
+511 0 -509 0 -507 0 +506 0 *
Fa
0  1e-07 14 0

0111000
+505 0 *
Ve
1e-07
-9.75 -3.5 38.75
0 0

0101101
*
Ve
1e-07
-7 -3.5 36
0 0

0101101
*
Ed
 1e-07 1 1 0
1  17 0 4.71238898038469 6.28318530717959
2  22 16 0 4.71238898038469 6.28318530717959
4 C0 16 0 17 0
0

0101000
+503 0 -502 0 *
Ve
1e-07
-9.75 -5.5 38.75
0 0

0101101
*
Ed
 1e-07 1 1 0
1  18 0 -1 1
2  23 16 0 -1 1
4 G1 16 0 18 0
0

0101000
+503 0 -500 0 *
Ve
1e-07
-7 -5.5 36
0 0

0101101
*
Ed
 1e-07 1 1 0
1  19 0 4.71238898038469 6.28318530717959
2  24 16 0 4.71238898038469 6.28318530717959
4 C0 16 0 8 0
0

0101000
+500 0 -498 0 *
Ed
 1e-07 1 1 0
1  20 0 -1 1
2  25 16 0 -1 1
2  26 19 0 -1 1
4 CN 16 0 19 0
0

0101000
+498 0 -502 0 *
Wi

0101100
-501 0 +499 0 +497 0 +496 0 *
Fa
0  1e-07 16 0

0111000
+495 0 *
Ve
1e-07
-11.25 -3.5 41
0 0

0101101
*
Ve
1e-07
-16.25 -3.5 36
0 0

0101101
*
Ed
 1e-07 1 1 0
1  21 0 1.5707963267949 3.14159265358979
2  27 20 0 1.5707963267949 3.14159265358979
4 C0 20 0 17 0
0

0101000
+493 0 -492 0 *
Ve
1e-07
-11.25 -2 41
0 0

0101101
*
Ed
 1e-07 1 1 0
1  22 0 -0.75 0.75
2  28 20 0 -0.75 0.75
4 G1 20 0 21 0
0

0101000
+490 0 -493 0 *
Ve
1e-07
-16.25 -1.99999999999999 36
0 0

0101101
*
Ed
 1e-07 1 1 0
1  23 0 1.5707963267949 3.14159265358979
2  29 20 0 1.5707963267949 3.14159265358979
4 C0 20 0 12 0
0

0101000
+490 0 -488 0 *
Ed
 1e-07 1 1 0
1  24 0 -0.75000000000001 0.75
2  30 20 0 -0.75000000000001 0.75
2  31 22 0 -0.75000000000001 0.75
4 CN 20 0 22 0
0

0101000
+488 0 -492 0 *
Wi

0101100
-491 0 -489 0 +487 0 +486 0 *
Fa
0  1e-07 20 0

0111000
+485 0 *
Ve
1e-07
-14 -5.49999999999999 36
0 0

0101101
*
Ve
1e-07
-11.25 -5.5 38.75
0 0

0101101
*
Ed
 1e-07 1 1 0
1  25 0 3.14159265358979 4.71238898038469
2  32 23 0 3.14159265358979 4.71238898038469
4 C0 23 0 8 0
0

0101000
+483 0 -482 0 *
Ve
1e-07
-11.25 -3.5 38.75
0 0

0101101
*
Ed
 1e-07 1 1 0
1  26 0 -1 1
2  33 23 0 -1 1
4 G1 23 0 18 0
0

0101000
+480 0 -482 0 *
Ve
1e-07
-14 -3.5 36
0 0

0101101
*
Ed
 1e-07 1 1 0
1  27 0 3.14159265358979 4.71238898038469
2  34 23 0 3.14159265358979 4.71238898038469
4 C0 23 0 17 0
0

0101000
+478 0 -480 0 *
Ed
 1e-07 1 1 0
1  28 0 -1 0.99999999999999
2  35 23 0 -1 0.99999999999999
2  36 24 0 -1 0.99999999999999
4 CN 23 0 24 0
0

0101000
+478 0 -483 0 *
Wi

0101100
+481 0 -479 0 -477 0 +476 0 *
Fa
0  1e-07 23 0

0111000
+475 0 *
Ve
1e-07
-5.5 7.83748066446321e-16 31.49
0 0

0101101
*
Ve
1e-07
-5.5 7.83748066446321e-16 16.51
0 0

0101101
*
Ed
 1e-07 1 1 0
1  29 0 -7.49 7.49
2  37 25 0 -7.49 7.49
2  38 26 0 -7.49 7.49
4 CN 25 0 26 0
0

0101000
+473 0 -472 0 *
Ve
1e-07
-5.1234753829798 -1.99999999999999 16.51
0 0

0101101
*
Ed
 1e-07 1 1 0
1  30 0 3.14159265358979 3.51376118755012
2  39 25 0 3.14159265358979 3.51376118755012
4 C0 25 0 2 0
0

0101000
+472 0 -470 0 *
Ve
1e-07
-5.1234753829798 -1.99999999999999 31.49
0 0

0101101
*
Ed
 1e-07 1 1 0
1  31 0 16.51 31.49
2  40 25 0 16.51 31.49
4 C0 25 0 12 0
0

0101000
+470 0 -468 0 *
Ed
 1e-07 1 1 0
1  32 0 2.76942411962947 3.14159265358979
2  41 25 0 2.76942411962947 3.14159265358979
4 C0 25 0 4 0
0

0101000
+468 0 -473 0 *
Wi

0101100
+471 0 +469 0 +467 0 +466 0 *
Fa
0  1e-07 25 0

0111000
+465 0 *
Ve
1e-07
5.5 -5.63318922758294e-16 16.51
0 0

0101101
*
Ve
1e-07
5.5 -5.63318922758294e-16 31.49
0 0

0101101
*
Ed
 1e-07 1 1 0
1  33 0 -7.49 7.49
2  42 26 0 -7.49 7.49
2  43 27 0 -7.49 7.49
4 CN 26 0 27 0
0

0101000
+463 0 -462 0 *
Ed
 1e-07 1 1 0
1  34 0 0 3.14159265358979
2  44 26 0 0 3.14159265358979
4 C0 26 0 2 0
0

0101000
+463 0 -472 0 *
Ed
 1e-07 1 1 0
1  35 0 3.14159265358979 6.28318530717959
2  45 26 0 3.14159265358979 6.28318530717959
4 C0 26 0 4 0
0

0101000
+473 0 -462 0 *
Wi

0101100
-461 0 +460 0 -471 0 +459 0 *
Fa
0  1e-07 26 0

0111000
+458 0 *
Ed
 1e-07 1 1 0
1  36 0 0 3.14159265358979
2  46 3 0 0 3.14159265358979
4 C0 2 0 3 0
0

0101000
+542 0 -543 0 *
Wi

0101100
-541 0 -456 0 *
Ve
1e-07
-5.5 -1.99999999999999 16.51
0 0

0101101
*
Ed
 1e-07 1 1 0
1  37 0 -0.657393462765151 -0.28086884574495
4 C0 2 0 12 0
0

0101000
+470 0 -454 0 *
Ve
1e-07
-1.21319824216781e-16 -5.5 16.51
0 0

0101101
*
Ed
 1e-07 1 1 0
1  38 0 4.71238898038469 6.28318530717959
2  47 27 0 4.71238898038469 6.28318530717959
4 C0 2 0 27 0
0

0101000
+452 0 -463 0 *
Ve
1e-07
-5.5 -5.5 16.51
0 0

0101101
*
Ed
 1e-07 1 1 0
1  39 0 -1 4.5
4 C0 2 0 8 0
0

0101000
+450 0 -452 0 *
Ed
 1e-07 1 1 0
1  40 0 1.99999999999999 5.5
4 C0 2 0 28 0
0

0101000
+454 0 -450 0 *
Wi

0101100
-453 0 -469 0 -460 0 -451 0 -449 0 -448 0 *
Fa
0  1e-07 2 0

0111000
-455 0 -447 0 *
Ve
1e-07
-1.21319824216781e-16 -5.5 31.49
0 0

0101101
*
Ed
 1e-07 1 1 0
1  41 0 0 1.5707963267949
2  48 27 0 0 1.5707963267949
4 C0 27 0 4 0
0

0101000
+462 0 -445 0 *
Ed
 1e-07 1 1 0
1  42 0 16.51 31.49
2  49 27 0 16.51 31.49
4 G1 27 0 8 0
0

0101000
+452 0 -445 0 *
Wi

0101100
+461 0 +444 0 -443 0 +451 0 *
Fa
0  1e-07 27 0

0111000
+442 0 *
Ve
1e-07
-5.5 -3.5 33.3660865617868
0 0

0101101
*
Ve
1e-07
-5.5 -3.5 38.6339134382132
0 0

0101101
*
Ed
 1e-07 1 1 0
1  43 0 -4.2564134382132 1.0114134382132
4 C0 17 0 29 0
0

0101000
+440 0 -439 0 *
Ve
1e-07
-9.75 -3.5 31
0 0

0101101
*
Ed
 1e-07 1 1 0
1  44 0 4.71238898038469 5.72837427419951
2  50 30 0 4.71238898038469 5.72837427419951
4 C0 17 0 30 0
0

0101000
+437 0 -440 0 *
Ve
1e-07
-11.25 -3.5 31
0 0

0101101
*
Ed
 1e-07 1 1 0
1  45 0 -0.75 0.75
4 C0 17 0 31 0
0

0101000
+437 0 -435 0 *
Ed
 1e-07 1 1 0
1  46 0 3.14159265358979 4.71238898038469
2  51 22 0 3.14159265358979 4.71238898038469
4 C0 17 0 22 0
0

0101000
+492 0 -435 0 *
Ve
1e-07
-9.75 -3.5 41
0 0

0101101
*
Ed
 1e-07 1 1 0
1  47 0 -0.75 0.75
4 C0 17 0 21 0
0

0101000
+493 0 -432 0 *
Ed
 1e-07 1 1 0
1  48 0 0.554811032980074 1.5707963267949
2  52 32 0 0.554811032980074 1.5707963267949
4 C0 17 0 32 0
0

0101000
+439 0 -432 0 *
Wi

0101100
-438 0 -436 0 +434 0 -433 0 -491 0 +431 0 -430 0 *
Ve
1e-07
-11.25 -3.5 33.25
0 0

0101101
*
Ed
 1e-07 1 1 0
1  49 0 1.5707963267949 3.14159265358979
2  53 24 0 1.5707963267949 3.14159265358979
4 C0 17 0 24 0
0

0101000
+428 0 -478 0 *
Ve
1e-07
-9.75 -3.5 33.25
0 0

0101101
*
Ed
 1e-07 1 1 0
1  50 0 -0.375 1.125
4 C0 17 0 33 0
0

0101000
+426 0 -428 0 *
Ed
 1e-07 1 1 0
1  51 0 0 1.5707963267949
2  54 19 0 0 1.5707963267949
4 C0 17 0 19 0
0

0101000
+502 0 -426 0 *
Ed
 1e-07 1 1 0
1  52 0 -1.125 0.375
4 C0 17 0 18 0
0

0101000
+480 0 -503 0 *
Wi

0101100
-427 0 -425 0 -424 0 -501 0 -423 0 -477 0 *
Fa
0  1e-07 17 0

0111000
-429 0 -422 0 *
Ve
1e-07
-5.5 -2 38.6339134382132
0 0

0101101
*
Ve
1e-07
-9.75 -2 41
0 0

0101101
*
Ed
 1e-07 1 1 0
1  53 0 0.554811032980074 1.5707963267949
2  55 32 0 0.554811032980074 1.5707963267949
4 C0 32 0 12 0
0

0101000
+420 0 -419 0 *
Ed
 1e-07 1 1 0
1  54 0 -0.75 0.75
2  56 32 0 -0.75 0.75
4 G1 32 0 21 0
0

0101000
+419 0 -432 0 *
Ed
 1e-07 1 1 0
1  55 0 -0.75 0.75
2  57 32 0 -0.75 0.75
4 C0 32 0 29 0
0

0101000
+439 0 -420 0 *
Wi

0101100
+418 0 +417 0 -430 0 +416 0 *
Fa
0  1e-07 32 0

0111000
+415 0 *
Ve
1e-07
-11.25 -5.5 33.25
0 0

0101101
*
Ed
 1e-07 1 1 0
1  56 0 -1 1
2  58 24 0 -1 1
4 G1 24 0 33 0
0

0101000
+413 0 -428 0 *
Ed
 1e-07 1 1 0
1  57 0 1.5707963267949 3.14159265358979
2  59 24 0 1.5707963267949 3.14159265358979
4 C0 24 0 8 0
0

0101000
+413 0 -483 0 *
Wi

0101100
-427 0 -412 0 +411 0 -476 0 *
Fa
0  1e-07 24 0

0111000
+410 0 *
Ve
1e-07
-11.25 -2 31
0 0

0101101
*
Ed
 1e-07 1 1 0
1  58 0 3.14159265358979 4.71238898038469
2  60 22 0 3.14159265358979 4.71238898038469
4 C0 22 0 12 0
0

0101000
+488 0 -408 0 *
Ed
 1e-07 1 1 0
1  59 0 -0.75 0.75
2  61 22 0 -0.75 0.75
4 G1 22 0 31 0
0

0101000
+435 0 -408 0 *
Wi

0101100
+407 0 -406 0 -433 0 -486 0 *
Fa
0  1e-07 22 0

0111000
+405 0 *
Ed
 1e-07 1 1 0
1  60 0 -1.280868845745 0.219131154255001
4 C0 21 0 12 0
0

0101000
+419 0 -490 0 *
Wi

0101100
+417 0 -431 0 -489 0 -403 0 *
Fa
0  1e-07 21 0

0111000
-402 0 *
Ve
1e-07
-9.75 -2 31
0 0

0101101
*
Ed
 1e-07 1 1 0
1  61 0 -0.75 0.75
2  62 30 0 -0.75 0.75
4 G1 31 0 30 0
0

0101000
+400 0 -437 0 *
Ed
 1e-07 1 1 0
1  62 0 -0.219131154255001 1.280868845745
4 C0 31 0 12 0
0

0101000
+408 0 -400 0 *
Wi

0101100
-399 0 -398 0 -406 0 -434 0 *
Fa
0  1e-07 31 0

0111000
+397 0 *
Ve
1e-07
-5.5 -2 33.3660865617868
0 0

0101101
*
Ed
 1e-07 1 1 0
1  63 0 4.71238898038469 5.72837427419951
2  63 30 0 4.71238898038469 5.72837427419951
4 C0 30 0 12 0
0

0101000
+400 0 -395 0 *
Ed
 1e-07 1 1 0
1  64 0 -0.75 0.75
2  64 30 0 -0.75 0.75
4 C0 30 0 29 0
0

0101000
+395 0 -440 0 *
Wi

0101100
-436 0 -399 0 +394 0 +393 0 *
Fa
0  1e-07 30 0

0111000
+392 0 *
Ed
 1e-07 1 1 0
1  65 0 -1.5 0
4 C0 18 0 8 0
0

0101000
+482 0 -500 0 *
Wi

0101100
+499 0 -390 0 -479 0 +423 0 *
Fa
0  1e-07 18 0

0111000
-389 0 *
Ve
1e-07
-9.75 -5.5 33.25
0 0

0101101
*
Ed
 1e-07 1 1 0
1  66 0 -1 1
2  65 19 0 -1 1
4 G1 33 0 19 0
0

0101000
+426 0 -387 0 *
Ed
 1e-07 1 1 0
1  67 0 0 1.5
4 C0 33 0 8 0
0

0101000
+387 0 -413 0 *
Wi

0101100
-386 0 +425 0 -412 0 -385 0 *
Fa
0  1e-07 33 0

0111000
+384 0 *
Ed
 1e-07 1 1 0
1  68 0 0 1.5707963267949
2  66 19 0 0 1.5707963267949
4 C0 19 0 8 0
0

0101000
+498 0 -387 0 *
Wi

0101100
+382 0 -386 0 -424 0 -496 0 *
Fa
0  1e-07 19 0

0111000
+381 0 *
Ve
1e-07
-5.5 -1.99999999999999 47
0 0

0101101
*
Ed
 1e-07 1 1 0
1  69 0 -27.3775 -19.0114134382132
4 C0 29 0 12 0
0

0101000
+379 0 -420 0 *
Ve
1e-07
-5.5 -5.5 47
0 0

0101101
*
Ed
 1e-07 1 1 0
1  70 0 -4.51872483745654 -1.01872483745653
4 C0 29 0 34 0
0

0101000
+377 0 -379 0 *
Ve
1e-07
-5.5 -5.5 31.49
0 0

0101101
*
Ed
 1e-07 1 1 0
1  71 0 11.8675 27.3775
4 C0 29 0 8 0
0

0101000
+375 0 -377 0 *
Ve
1e-07
-5.5 -1.99999999999999 31.49
0 0

0101101
*
Ed
 1e-07 1 1 0
1  72 0 -5.5 -1.99999999999999
4 C0 29 0 4 0
0

0101000
+375 0 -373 0 *
Ed
 1e-07 1 1 0
1  73 0 -13.7435865617868 -11.8675
4 C0 29 0 12 0
0

0101000
+395 0 -373 0 *
Wi

0101100
+393 0 +438 0 +416 0 -378 0 -376 0 -374 0 +372 0 -371 0 *
Fa
0  1e-07 29 0

0111000
+370 0 *
Ve
1e-07
-9.75 -3.5 6
0 0

0101101
*
Ve
1e-07
-5.5 -3.5 8.36608656178682
0 0

0101101
*
Ed
 1e-07 1 1 0
1  74 0 4.71238898038469 5.72837427419952
2  67 35 0 4.71238898038469 5.72837427419952
4 C0 35 0 6 0
0

0101000
+368 0 -367 0 *
Ve
1e-07
-9.75 -2 6
0 0

0101101
*
Ed
 1e-07 1 1 0
1  75 0 -0.75 0.75
2  68 35 0 -0.75 0.75
4 G1 35 0 36 0
0

0101000
+365 0 -368 0 *
Ve
1e-07
-5.5 -2 8.36608656178682
0 0

0101101
*
Ed
 1e-07 1 1 0
1  76 0 4.71238898038469 5.72837427419952
2  69 35 0 4.71238898038469 5.72837427419952
4 C0 35 0 12 0
0

0101000
+365 0 -363 0 *
Ed
 1e-07 1 1 0
1  77 0 -0.75 0.75
2  70 35 0 -0.75 0.75
4 C0 35 0 28 0
0

0101000
+363 0 -367 0 *
Wi

0101100
-366 0 -364 0 +362 0 +361 0 *
Fa
0  1e-07 35 0

0111000
+360 0 *
Ve
1e-07
-5.5 -2 13.6339134382132
0 0

0101101
*
Ve
1e-07
-9.75 -2 16
0 0

0101101
*
Ed
 1e-07 1 1 0
1  78 0 0.554811032980074 1.5707963267949
2  71 37 0 0.554811032980074 1.5707963267949
4 C0 37 0 12 0
0

0101000
+358 0 -357 0 *
Ve
1e-07
-9.75 -3.5 16
0 0

0101101
*
Ed
 1e-07 1 1 0
1  79 0 -0.75 0.75
2  72 37 0 -0.75 0.75
4 G1 37 0 11 0
0

0101000
+357 0 -355 0 *
Ve
1e-07
-5.5 -3.5 13.6339134382132
0 0

0101101
*
Ed
 1e-07 1 1 0
1  80 0 0.554811032980074 1.5707963267949
2  73 37 0 0.554811032980074 1.5707963267949
4 C0 37 0 6 0
0

0101000
+353 0 -355 0 *
Ed
 1e-07 1 1 0
1  81 0 -0.75 0.75
2  74 37 0 -0.75 0.75
4 C0 37 0 28 0
0

0101000
+353 0 -358 0 *
Wi

0101100
+356 0 +354 0 -352 0 +351 0 *
Fa
0  1e-07 37 0

0111000
+350 0 *
Ve
1e-07
-11.25 -3.5 8.25
0 0

0101101
*
Ed
 1e-07 1 1 0
1  82 0 1.5707963267949 3.14159265358979
2  75 15 0 1.5707963267949 3.14159265358979
4 C0 15 0 6 0
0

0101000
+348 0 -508 0 *
Ve
1e-07
-11.25 -5.5 8.25
0 0

0101101
*
Ed
 1e-07 1 1 0
1  83 0 -1 1
2  76 15 0 -1 1
4 G1 15 0 38 0
0

0101000
+346 0 -348 0 *
Ed
 1e-07 1 1 0
1  84 0 1.5707963267949 3.14159265358979
2  77 15 0 1.5707963267949 3.14159265358979
4 C0 15 0 8 0
0

0101000
+346 0 -513 0 *
Wi

0101100
-347 0 -345 0 +344 0 -506 0 *
Fa
0  1e-07 15 0

0111000
+343 0 *
Ve
1e-07
-11.25 -2 6
0 0

0101101
*
Ed
 1e-07 1 1 0
1  85 0 3.14159265358979 4.71238898038469
2  78 13 0 3.14159265358979 4.71238898038469
4 C0 13 0 12 0
0

0101000
+518 0 -341 0 *
Ve
1e-07
-11.25 -3.5 6
0 0

0101101
*
Ed
 1e-07 1 1 0
1  86 0 -0.75 0.75
2  79 13 0 -0.75 0.75
4 G1 13 0 36 0
0

0101000
+339 0 -341 0 *
Ed
 1e-07 1 1 0
1  87 0 3.14159265358979 4.71238898038469
2  80 13 0 3.14159265358979 4.71238898038469
4 C0 13 0 6 0
0

0101000
+522 0 -339 0 *
Wi

0101100
+340 0 -338 0 -337 0 -516 0 *
Fa
0  1e-07 13 0

0111000
+336 0 *
Ed
 1e-07 1 1 0
1  88 0 -0.75 0.75
4 C0 11 0 6 0
0

0101000
+523 0 -355 0 *
Ed
 1e-07 1 1 0
1  89 0 -1.280868845745 0.219131154255001
4 C0 11 0 12 0
0

0101000
+357 0 -520 0 *
Wi

0101100
+354 0 -334 0 -519 0 -333 0 *
Fa
0  1e-07 11 0

0111000
-332 0 *
Ed
 1e-07 1 1 0
1  90 0 -0.219131154255001 1.280868845745
4 C0 36 0 12 0
0

0101000
+341 0 -365 0 *
Ed
 1e-07 1 1 0
1  91 0 -0.75 0.75
4 C0 36 0 6 0
0

0101000
+368 0 -339 0 *
Wi

0101100
-364 0 -330 0 -338 0 -329 0 *
Fa
0  1e-07 36 0

0111000
+328 0 *
Ed
 1e-07 1 1 0
1  92 0 -1.01141343821318 4.2564134382132
4 C0 6 0 28 0
0

0101000
+367 0 -353 0 *
Wi

0101100
-326 0 -366 0 +329 0 -337 0 -521 0 +334 0 -352 0 *
Ve
1e-07
-9.75 -3.5 8.25
0 0

0101101
*
Ed
 1e-07 1 1 0
1  93 0 -0.375 1.125
4 C0 6 0 38 0
0

0101000
+324 0 -348 0 *
Ed
 1e-07 1 1 0
1  94 0 0 1.5707963267949
2  81 9 0 0 1.5707963267949
4 C0 6 0 9 0
0

0101000
+532 0 -324 0 *
Ed
 1e-07 1 1 0
1  95 0 -1.125 0.375
4 C0 6 0 7 0
0

0101000
+510 0 -533 0 *
Wi

0101100
-347 0 -323 0 -322 0 -531 0 -321 0 -507 0 *
Fa
0  1e-07 6 0

0111000
-325 0 -320 0 *
Ed
 1e-07 1 1 0
1  96 0 -1.5 0
4 C0 7 0 8 0
0

0101000
+512 0 -530 0 *
Wi

0101100
+529 0 -318 0 -509 0 +321 0 *
Fa
0  1e-07 7 0

0111000
-317 0 *
Ve
1e-07
-9.75 -5.5 8.25
0 0

0101101
*
Ed
 1e-07 1 1 0
1  97 0 -1 1
2  82 9 0 -1 1
4 G1 38 0 9 0
0

0101000
+324 0 -315 0 *
Ed
 1e-07 1 1 0
1  98 0 0 1.5
4 C0 38 0 8 0
0

0101000
+315 0 -346 0 *
Wi

0101100
-314 0 +323 0 -345 0 -313 0 *
Fa
0  1e-07 38 0

0111000
+312 0 *
Ed
 1e-07 1 1 0
1  99 0 0 1.5707963267949
2  83 9 0 0 1.5707963267949
4 C0 9 0 8 0
0

0101000
+528 0 -315 0 *
Wi

0101100
+310 0 -314 0 -322 0 -526 0 *
Fa
0  1e-07 9 0

0111000
+309 0 *
Ed
 1e-07 1 1 0
1  100 0 -8.505 -5.6289134382132
4 C0 28 0 12 0
0

0101000
+454 0 -358 0 *
Ve
1e-07
-5.5 -5.5 0
0 0

0101101
*
Ed
 1e-07 1 1 0
1  101 0 -8.005 8.505
4 C0 28 0 8 0
0

0101000
+306 0 -450 0 *
Ve
1e-07
-5.5 -1.99999999999999 0
0 0

0101101
*
Ed
 1e-07 1 1 0
1  102 0 1.01872483745653 4.51872483745654
4 C0 28 0 39 0
0

0101000
+304 0 -306 0 *
Ed
 1e-07 1 1 0
1  103 0 -4.48858656178682 3.8775
4 C0 28 0 12 0
0

0101000
+363 0 -304 0 *
Wi

0101100
+361 0 +326 0 +351 0 -307 0 +448 0 -305 0 -303 0 -302 0 *
Fa
0  1e-07 28 0

0111000
+301 0 *
Ed
 1e-07 1 1 0
1  104 0 0 3.14159265358979
2  84 3 0 0 3.14159265358979
4 C0 3 0 4 0
0

0101000
+538 0 -540 0 *
Wi

0101100
+299 0 -539 0 -456 0 -536 0 *
Fa
0  1e-07 3 0

0111000
+298 0 *
Wi

0101100
+537 0 +299 0 *
Ed
 1e-07 1 1 0
1  105 0 0.28086884574495 0.657393462765151
4 C0 4 0 12 0
0

0101000
+373 0 -468 0 *
Ed
 1e-07 1 1 0
1  106 0 -4.5 1
4 C0 4 0 8 0
0

0101000
+445 0 -375 0 *
Wi

0101100
-466 0 -295 0 -372 0 -294 0 -444 0 -459 0 *
Fa
0  1e-07 4 0

0111000
+296 0 +293 0 *
Ve
1e-07
-18 -1.99999999999999 47
0 0

0101101
*
Ed
 1e-07 1 1 0
1  107 0 0 12.5
4 C0 34 0 12 0
0

0101000
+291 0 -379 0 *
Ve
1e-07
-18 -5.49999999999999 47
0 0

0101101
*
Ed
 1e-07 1 1 0
1  108 0 0 3.5
4 C0 34 0 40 0
0

0101000
+289 0 -291 0 *
Ed
 1e-07 1 1 0
1  109 0 5.5 18
4 C0 34 0 8 0
0

0101000
+377 0 -289 0 *
Wi

0101100
+376 0 -290 0 -288 0 -287 0 *
Fa
0  1e-07 34 0

0111000
+286 0 *
Ve
1e-07
-18 -1.99999999999999 0
0 0

0101101
*
Ed
 1e-07 1 1 0
1  110 0 0 12.5
4 C0 12 0 39 0
0

0101000
+284 0 -304 0 *
Ed
 1e-07 1 1 0
1  111 0 0 47
4 C0 12 0 40 0
0

0101000
+284 0 -291 0 *
Wi

0101100
+307 0 +356 0 +333 0 +517 0 +340 0 +330 0 +362 0 +302 0 -283 0 +282 0 
+290 0 +378 0 +418 0 +403 0 +487 0 +407 0 +398 0 +394 0 +371 0 +295 0 
-467 0 +453 0 *
Fa
0  1e-07 12 0

0111000
+281 0 *
Ve
1e-07
-18 -5.49999999999999 0
0 0

0101101
*
Ed
 1e-07 1 1 0
1  112 0 0 3.5
4 C0 40 0 39 0
0

0101000
+279 0 -284 0 *
Ed
 1e-07 1 1 0
1  113 0 0 47
4 C0 40 0 8 0
0

0101000
+279 0 -289 0 *
Wi

0101100
+288 0 -282 0 -278 0 +277 0 *
Fa
0  1e-07 40 0

0111000
+276 0 *
Ed
 1e-07 1 1 0
1  114 0 5.5 18
4 C0 8 0 39 0
0

0101000
+306 0 -279 0 *
Wi

0101100
+449 0 +443 0 +294 0 +374 0 +287 0 -277 0 -274 0 +305 0 *
Wi

0101100
+411 0 +481 0 +390 0 +497 0 +382 0 +385 0 *
Wi

0101100
+344 0 +511 0 +318 0 +527 0 +310 0 +313 0 *
Fa
0  1e-07 8 0

0111000
+273 0 +272 0 +271 0 *
Wi

0101100
+303 0 +274 0 +278 0 +283 0 *
Fa
0  1e-07 39 0

0111000
-269 0 *
Sh

0101100
-534 0 -524 0 -514 0 -504 0 -494 0 -484 0 -474 0 +464 0 +457 0 -446 0 
+441 0 -421 0 -414 0 -409 0 -404 0 -401 0 +396 0 -391 0 -388 0 +383 0 
-380 0 +369 0 -359 0 -349 0 -342 0 -335 0 -331 0 +327 0 -319 0 -316 0 
+311 0 -308 0 +300 0 -297 0 +292 0 +285 0 +280 0 +275 0 +270 0 -268 0 
*
So

0100000
+267 0 *
Ve
1e-07
5.5 7.83748066446321e-16 6.73533494602307e-16
0 0

0101101
*
Ve
1e-07
5.5 7.83748066446321e-16 15.98
0 0

0101101
*
Ed
 1e-07 1 1 0
1  115 0 -7.99 7.99
2  85 41 0 -7.99 7.99
2  86 42 0 -7.99 7.99
4 CN 41 0 42 0
0

0101000
+265 0 -264 0 *
Ve
1e-07
5.1234753829798 -1.99999999999999 15.98
0 0

0101101
*
Ed
 1e-07 1 1 0
1  116 0 3.14159265358979 3.51376118755012
2  87 41 0 3.14159265358979 3.51376118755012
4 C0 41 0 43 0
0

0101000
+264 0 -262 0 *
Ve
1e-07
5.1234753829798 -1.99999999999999 6.2742405076496e-16
0 0

0101101
*
Ed
 1e-07 1 1 0
1  117 0 31.02 47
2  88 41 0 31.02 47
4 C0 41 0 44 0
0

0101000
+262 0 -260 0 *
Ed
 1e-07 1 1 0
1  118 0 2.76942411962947 3.14159265358979
2  89 41 0 2.76942411962947 3.14159265358979
4 C0 41 0 45 0
0

0101000
+260 0 -265 0 *
Wi

0101100
+263 0 +261 0 +259 0 +258 0 *
Fa
0  1e-07 41 0

0111000
+257 0 *
Ve
1e-07
-5.5 -5.63318922758294e-16 15.98
0 0

0101101
*
Ve
1e-07
-5.5 -5.63318922758294e-16 -6.73533494602307e-16
0 0

0101101
*
Ed
 1e-07 1 1 0
1  119 0 -7.99 7.99
2  90 42 0 -7.99 7.99
2  91 46 0 -7.99 7.99
4 CN 42 0 46 0
0

0101000
+255 0 -254 0 *
Ed
 1e-07 1 1 0
1  120 0 0 3.14159265358979
2  92 42 0 0 3.14159265358979
4 C0 42 0 43 0
0

0101000
+255 0 -264 0 *
Ed
 1e-07 1 1 0
1  121 0 3.14159265358979 6.28318530717959
2  93 42 0 3.14159265358979 6.28318530717959
4 C0 42 0 45 0
0

0101000
+265 0 -254 0 *
Wi

0101100
-253 0 +252 0 -263 0 +251 0 *
Fa
0  1e-07 42 0

0111000
+250 0 *
Ve
1e-07
-2.5 0 -3.06151588455594e-16
0 0

0101101
*
Ve
1e-07
2.5 -3.06151588455594e-16 3.06151588455594e-16
0 0

0101101
*
Ed
 1e-07 1 1 0
1  122 0 0 3.14159265358979
2  94 47 0 0 3.14159265358979
4 C0 47 0 45 0
0

0101000
+248 0 -247 0 *
Ve
1e-07
2.5 -3.06151588455594e-16 15.98
0 0

0101101
*
Ed
 1e-07 1 1 0
1  123 0 -7.99 7.99
2  95 47 0 -7.99 7.99
2  96 48 0 -7.99 7.99
4 CN 47 0 48 0
0

0101000
+247 0 -245 0 *
Ve
1e-07
-2.5 3.06151588455594e-16 15.98
0 0

0101101
*
Ed
 1e-07 1 1 0
1  124 0 3.14159265358979 6.28318530717959
2  97 47 0 3.14159265358979 6.28318530717959
4 C0 47 0 43 0
0

0101000
+245 0 -243 0 *
Ed
 1e-07 1 1 0
1  125 0 -7.99 7.99
2  98 47 0 -7.99 7.99
2  99 48 0 -7.99 7.99
4 CN 47 0 48 0
0

0101000
+243 0 -248 0 *
Wi

0101100
+246 0 +244 0 +242 0 +241 0 *
Fa
0  1e-07 47 0

0111000
+240 0 *
Ve
1e-07
2.5 -3.06151588455594e-16 32.02
0 0

0101101
*
Ve
1e-07
-2.5 3.06151588455594e-16 32.02
0 0

0101101
*
Ed
 1e-07 1 1 0
1  126 0 3.14159265358979 6.28318530717959
2  100 49 0 3.14159265358979 6.28318530717959
4 C0 49 0 50 0
0

0101000
+238 0 -237 0 *
Ve
1e-07
2.49999999999999 -3.06151588455594e-16 47
0 0

0101101
*
Ed
 1e-07 1 1 0
1  127 0 -7.48999999999999 7.49
2  101 49 0 -7.48999999999999 7.49
2  102 51 0 -7.48999999999999 7.49
4 CN 49 0 51 0
0

0101000
+238 0 -235 0 *
Ve
1e-07
-2.50000000000001 0 47
0 0

0101101
*
Ed
 1e-07 1 1 0
1  128 0 3.14159265358979 6.28318530717959
2  103 49 0 3.14159265358979 6.28318530717959
4 C0 49 0 52 0
0

0101000
+235 0 -233 0 *
Ed
 1e-07 1 1 0
1  129 0 -7.49 7.48999999999999
2  104 49 0 -7.49 7.48999999999999
2  105 51 0 -7.49 7.48999999999999
4 CN 49 0 51 0
0

0101000
+233 0 -237 0 *
Wi

0101100
-236 0 +234 0 +232 0 +231 0 *
Fa
0  1e-07 49 0

0111000
+230 0 *
Ve
1e-07
15.5 -2 11
0 0

0101101
*
Ve
1e-07
5.5 -1.99999999999999 11
0 0

0101101
*
Ed
 1e-07 1 1 0
1  130 0 0 3.14159265358979
2  106 53 0 0 3.14159265358979
4 C0 53 0 44 0
0

0101000
+228 0 -227 0 *
Ve
1e-07
5.5 -3.5 11
0 0

0101101
*
Ed
 1e-07 1 1 0
1  131 0 -0.75000000000001 0.75
2  107 53 0 -0.75000000000001 0.75
2  108 54 0 -0.75000000000001 0.75
4 CN 53 0 54 0
0

0101000
+227 0 -225 0 *
Ve
1e-07
15.5 -3.5 11
0 0

0101101
*
Ed
 1e-07 1 1 0
1  132 0 0 3.14159265358979
2  109 53 0 0 3.14159265358979
4 C0 53 0 55 0
0

0101000
+223 0 -225 0 *
Ed
 1e-07 1 1 0
1  133 0 -0.75 0.75
2  110 53 0 -0.75 0.75
2  111 54 0 -0.75 0.75
4 CN 53 0 54 0
0

0101000
+223 0 -228 0 *
Wi

0101100
+226 0 +224 0 -222 0 +221 0 *
Fa
0  1e-07 53 0

0111000
+220 0 *
Ve
1e-07
7.75 -3.5 11
0 0

0101101
*
Ve
1e-07
13.25 -3.5 11
0 0

0101101
*
Ed
 1e-07 1 1 0
1  134 0 3.14159265358979 6.28318530717959
2  112 56 0 3.14159265358979 6.28318530717959
4 C0 56 0 55 0
0

0101000
+218 0 -217 0 *
Ve
1e-07
7.75 -5.5 11
0 0

0101101
*
Ed
 1e-07 1 1 0
1  135 0 -1 1
2  113 56 0 -1 1
2  114 57 0 -1 1
4 CN 56 0 57 0
0

0101000
+218 0 -215 0 *
Ve
1e-07
13.25 -5.5 11
0 0

0101101
*
Ed
 1e-07 1 1 0
1  136 0 3.14159265358979 6.28318530717959
2  115 56 0 3.14159265358979 6.28318530717959
4 C0 56 0 58 0
0

0101000
+215 0 -213 0 *
Ed
 1e-07 1 1 0
1  137 0 -1 1
2  116 56 0 -1 1
2  117 57 0 -1 1
4 CN 56 0 57 0
0

0101000
+213 0 -217 0 *
Wi

0101100
-216 0 +214 0 +212 0 +211 0 *
Fa
0  1e-07 56 0

0111000
+210 0 *
Ve
1e-07
15.5 -2 36
0 0

0101101
*
Ve
1e-07
5.5 -1.99999999999999 36
0 0

0101101
*
Ed
 1e-07 1 1 0
1  138 0 0 3.14159265358979
2  118 59 0 0 3.14159265358979
4 C0 59 0 44 0
0

0101000
+208 0 -207 0 *
Ve
1e-07
5.5 -3.5 36
0 0

0101101
*
Ed
 1e-07 1 1 0
1  139 0 -0.75000000000001 0.75
2  119 59 0 -0.75000000000001 0.75
2  120 60 0 -0.75000000000001 0.75
4 CN 59 0 60 0
0

0101000
+207 0 -205 0 *
Ve
1e-07
15.5 -3.5 36
0 0

0101101
*
Ed
 1e-07 1 1 0
1  140 0 0 3.14159265358979
2  121 59 0 0 3.14159265358979
4 C0 59 0 61 0
0

0101000
+203 0 -205 0 *
Ed
 1e-07 1 1 0
1  141 0 -0.75 0.75
2  122 59 0 -0.75 0.75
2  123 60 0 -0.75 0.75
4 CN 59 0 60 0
0

0101000
+203 0 -208 0 *
Wi

0101100
+206 0 +204 0 -202 0 +201 0 *
Fa
0  1e-07 59 0

0111000
+200 0 *
Ve
1e-07
7.75 -3.5 36
0 0

0101101
*
Ve
1e-07
13.25 -3.5 36
0 0

0101101
*
Ed
 1e-07 1 1 0
1  142 0 3.14159265358979 6.28318530717959
2  124 62 0 3.14159265358979 6.28318530717959
4 C0 62 0 61 0
0

0101000
+198 0 -197 0 *
Ve
1e-07
7.75 -5.5 36
0 0

0101101
*
Ed
 1e-07 1 1 0
1  143 0 -1 1
2  125 62 0 -1 1
2  126 63 0 -1 1
4 CN 62 0 63 0
0

0101000
+198 0 -195 0 *
Ve
1e-07
13.25 -5.5 36
0 0

0101101
*
Ed
 1e-07 1 1 0
1  144 0 3.14159265358979 6.28318530717959
2  127 62 0 3.14159265358979 6.28318530717959
4 C0 62 0 58 0
0

0101000
+195 0 -193 0 *
Ed
 1e-07 1 1 0
1  145 0 -1 1
2  128 62 0 -1 1
2  129 63 0 -1 1
4 CN 62 0 63 0
0

0101000
+193 0 -197 0 *
Wi

0101100
-196 0 +194 0 +192 0 +191 0 *
Fa
0  1e-07 62 0

0111000
+190 0 *
Ve
1e-07
5.5 7.83748066446321e-16 32.02
0 0

0101101
*
Ve
1e-07
5.49999999999999 7.83748066446321e-16 47
0 0

0101101
*
Ed
 1e-07 1 1 0
1  146 0 -14.98 0
2  130 64 0 -14.98 0
2  131 65 0 -14.98 0
4 CN 64 0 65 0
0

0101000
+188 0 -187 0 *
Ve
1e-07
5.1234753829798 -1.99999999999999 47
0 0

0101101
*
Ed
 1e-07 1 1 0
1  147 0 3.14159265358979 3.51376118755012
2  132 64 0 3.14159265358979 3.51376118755012
4 C0 64 0 52 0
0

0101000
+187 0 -185 0 *
Ve
1e-07
5.1234753829798 -1.99999999999999 32.02
0 0

0101101
*
Ed
 1e-07 1 1 0
1  148 0 0 14.98
2  133 64 0 0 14.98
4 C0 64 0 44 0
0

0101000
+185 0 -183 0 *
Ed
 1e-07 1 1 0
1  149 0 2.76942411962947 3.14159265358979
2  134 64 0 2.76942411962947 3.14159265358979
4 C0 64 0 50 0
0

0101000
+183 0 -188 0 *
Wi

0101100
+186 0 +184 0 +182 0 +181 0 *
Fa
0  1e-07 64 0

0111000
+180 0 *
Ve
1e-07
-5.50000000000001 -5.63318922758294e-16 47
0 0

0101101
*
Ve
1e-07
-5.5 -5.63318922758294e-16 32.02
0 0

0101101
*
Ed
 1e-07 1 1 0
1  150 0 0 14.98
2  135 65 0 0 14.98
2  136 66 0 0 14.98
4 CN 65 0 66 0
0

0101000
+178 0 -177 0 *
Ed
 1e-07 1 1 0
1  151 0 0 3.14159265358979
2  137 65 0 0 3.14159265358979
4 C0 65 0 52 0
0

0101000
+178 0 -187 0 *
Ed
 1e-07 1 1 0
1  152 0 3.14159265358979 6.28318530717959
2  138 65 0 3.14159265358979 6.28318530717959
4 C0 65 0 50 0
0

0101000
+188 0 -177 0 *
Wi

0101100
-176 0 +175 0 -186 0 +174 0 *
Fa
0  1e-07 65 0

0111000
+173 0 *
Ed
 1e-07 1 1 0
1  153 0 0 3.14159265358979
2  139 51 0 0 3.14159265358979
4 C0 50 0 51 0
0

0101000
+237 0 -238 0 *
Wi

0101100
-236 0 -171 0 *
Ve
1e-07
5.5 -1.99999999999999 32.02
0 0

0101101
*
Ed
 1e-07 1 1 0
1  154 0 0.28086884574495 0.657393462765151
4 C0 50 0 44 0
0

0101000
+169 0 -183 0 *
Ve
1e-07
5.5 -5.5 32.02
0 0

0101101
*
Ed
 1e-07 1 1 0
1  155 0 -5.5 -1.99999999999999
4 C0 50 0 67 0
0

0101000
+167 0 -169 0 *
Ve
1e-07
-3.87548306443378e-15 -5.5 32.02
0 0

0101101
*
Ed
 1e-07 1 1 0
1  156 0 -4.5 1
4 C0 50 0 58 0
0

0101000
+165 0 -167 0 *
Ed
 1e-07 1 1 0
1  157 0 0 1.5707963267949
2  140 66 0 0 1.5707963267949
4 C0 50 0 66 0
0

0101000
+177 0 -165 0 *
Wi

0101100
-181 0 -168 0 -166 0 -164 0 -163 0 -174 0 *
Fa
0  1e-07 50 0

0111000
-170 0 -162 0 *
Ve
1e-07
-3.83011414996674e-15 -5.5 47
0 0

0101101
*
Ed
 1e-07 1 1 0
1  158 0 0 14.98
2  141 66 0 0 14.98
4 G1 66 0 58 0
0

0101000
+160 0 -165 0 *
Ed
 1e-07 1 1 0
1  159 0 4.71238898038469 6.28318530717959
2  142 66 0 4.71238898038469 6.28318530717959
4 C0 66 0 52 0
0

0101000
+160 0 -178 0 *
Wi

0101100
+176 0 +163 0 -159 0 +158 0 *
Fa
0  1e-07 66 0

0111000
+157 0 *
Ve
1e-07
5.5 -5.5 15.98
0 0

0101101
*
Ed
 1e-07 1 1 0
1  160 0 7.23999999999999 23.28
4 C0 58 0 67 0
0

0101000
+167 0 -155 0 *
Ve
1e-07
-1.83560112919138e-15 -5.5 15.98
0 0

0101101
*
Ed
 1e-07 1 1 0
1  161 0 -1 4.5
4 C0 58 0 43 0
0

0101000
+155 0 -153 0 *
Ve
1e-07
1.92553571299844e-15 -5.5 2.35802326864979e-31
0 0

0101101
*
Ed
 1e-07 1 1 0
1  162 0 31.02 47
2  143 46 0 31.02 47
4 G1 58 0 46 0
0

0101000
+153 0 -151 0 *
Ve
1e-07
18 -5.49999999999999 2.20429143688028e-15
0 0

0101101
*
Ed
 1e-07 1 1 0
1  163 0 0 18
4 C0 58 0 45 0
0

0101000
+151 0 -149 0 *
Ve
1e-07
18 -5.49999999999999 47
0 0

0101101
*
Ed
 1e-07 1 1 0
1  164 0 0 47
4 C0 58 0 68 0
0

0101000
+147 0 -149 0 *
Ed
 1e-07 1 1 0
1  165 0 0 18
4 C0 58 0 52 0
0

0101000
+160 0 -147 0 *
Wi

0101100
+164 0 +154 0 +152 0 +150 0 +148 0 -146 0 -145 0 +159 0 *
Ed
 1e-07 1 1 0
1  166 0 0 3.14159265358979
2  144 57 0 0 3.14159265358979
4 C0 58 0 57 0
0

0101000
+213 0 -215 0 *
Wi

0101100
+143 0 +212 0 *
Ed
 1e-07 1 1 0
1  167 0 0 3.14159265358979
2  145 63 0 0 3.14159265358979
4 C0 58 0 63 0
0

0101000
+193 0 -195 0 *
Wi

0101100
+141 0 +192 0 *
Fa
0  1e-07 58 0

0111000
+144 0 +142 0 +140 0 *
Ed
 1e-07 1 1 0
1  168 0 0 3.14159265358979
2  146 63 0 0 3.14159265358979
4 C0 63 0 61 0
0

0101000
+197 0 -198 0 *
Wi

0101100
+141 0 -194 0 -138 0 -191 0 *
Fa
0  1e-07 63 0

0111000
+137 0 *
Ed
 1e-07 1 1 0
1  169 0 3.14159265358979 6.28318530717959
2  147 60 0 3.14159265358979 6.28318530717959
4 C0 60 0 61 0
0

0101000
+205 0 -203 0 *
Ed
 1e-07 1 1 0
1  170 0 3.14159265358979 6.28318530717959
2  148 60 0 3.14159265358979 6.28318530717959
4 C0 60 0 44 0
0

0101000
+207 0 -208 0 *
Wi

0101100
-135 0 -204 0 +134 0 -201 0 *
Fa
0  1e-07 60 0

0111000
+133 0 *
Wi

0101100
-138 0 -196 0 *
Wi

0101100
-202 0 -135 0 *
Fa
0  1e-07 61 0

0111000
-131 0 -130 0 *
Ed
 1e-07 1 1 0
1  171 0 0 3.14159265358979
2  149 57 0 0 3.14159265358979
4 C0 57 0 55 0
0

0101000
+217 0 -218 0 *
Wi

0101100
+143 0 -214 0 -128 0 -211 0 *
Fa
0  1e-07 57 0

0111000
+127 0 *
Ed
 1e-07 1 1 0
1  172 0 3.14159265358979 6.28318530717959
2  150 54 0 3.14159265358979 6.28318530717959
4 C0 54 0 55 0
0

0101000
+225 0 -223 0 *
Ed
 1e-07 1 1 0
1  173 0 3.14159265358979 6.28318530717959
2  151 54 0 3.14159265358979 6.28318530717959
4 C0 54 0 44 0
0

0101000
+227 0 -228 0 *
Wi

0101100
-125 0 -224 0 +124 0 -221 0 *
Fa
0  1e-07 54 0

0111000
+123 0 *
Wi

0101100
-128 0 -216 0 *
Wi

0101100
-222 0 -125 0 *
Fa
0  1e-07 55 0

0111000
-121 0 -120 0 *
Ed
 1e-07 1 1 0
1  174 0 0 3.14159265358979
2  152 51 0 0 3.14159265358979
4 C0 51 0 52 0
0

0101000
+233 0 -235 0 *
Wi

0101100
+118 0 -234 0 -171 0 -231 0 *
Fa
0  1e-07 51 0

0111000
+117 0 *
Ed
 1e-07 1 1 0
1  175 0 0 3.14159265358979
2  153 48 0 0 3.14159265358979
4 C0 48 0 43 0
0

0101000
+243 0 -245 0 *
Ed
 1e-07 1 1 0
1  176 0 3.14159265358979 6.28318530717959
2  154 48 0 3.14159265358979 6.28318530717959
4 C0 48 0 45 0
0

0101000
+247 0 -248 0 *
Wi

0101100
+115 0 -244 0 +114 0 -241 0 *
Fa
0  1e-07 48 0

0111000
+113 0 *
Wi

0101100
+242 0 +115 0 *
Ed
 1e-07 1 1 0
1  177 0 4.71238898038469 6.28318530717959
2  155 46 0 4.71238898038469 6.28318530717959
4 C0 43 0 46 0
0

0101000
+153 0 -255 0 *
Ve
1e-07
5.5 -1.99999999999999 15.98
0 0

0101101
*
Ed
 1e-07 1 1 0
1  178 0 1.99999999999999 5.5
4 C0 43 0 67 0
0

0101000
+109 0 -155 0 *
Ed
 1e-07 1 1 0
1  179 0 -0.657393462765151 -0.28086884574495
4 C0 43 0 44 0
0

0101000
+262 0 -109 0 *
Wi

0101100
-110 0 -152 0 -108 0 -107 0 -261 0 -252 0 *
Fa
0  1e-07 43 0

0111000
-111 0 -106 0 *
Ed
 1e-07 1 1 0
1  180 0 -23.28 -7.23999999999999
4 C0 67 0 44 0
0

0101000
+109 0 -169 0 *
Wi

0101100
-154 0 +166 0 -104 0 +108 0 *
Fa
0  1e-07 67 0

0111000
+103 0 *
Ve
1e-07
18 -1.99999999999999 47
0 0

0101101
*
Ed
 1e-07 1 1 0
1  181 0 -0 12.8765246170202
4 C0 44 0 52 0
0

0101000
+101 0 -185 0 *
Ve
1e-07
18 -1.99999999999999 2.20429143688028e-15
0 0

0101101
*
Ed
 1e-07 1 1 0
1  182 0 0 47
4 C0 44 0 68 0
0

0101000
+101 0 -99 0 *
Ed
 1e-07 1 1 0
1  183 0 -0 12.8765246170202
4 C0 44 0 45 0
0

0101000
+99 0 -260 0 *
Wi

0101100
+168 0 -182 0 -100 0 +98 0 +97 0 -259 0 +107 0 +104 0 *
Wi

0101100
+206 0 +134 0 *
Wi

0101100
+226 0 +124 0 *
Fa
0  1e-07 44 0

0111000
+96 0 +95 0 +94 0 *
Ed
 1e-07 1 1 0
1  184 0 0 1.5707963267949
2  156 46 0 0 1.5707963267949
4 C0 46 0 45 0
0

0101000
+254 0 -151 0 *
Wi

0101100
+253 0 +92 0 -150 0 +110 0 *
Fa
0  1e-07 46 0

0111000
+91 0 *
Ed
 1e-07 1 1 0
1  185 0 0 3.5
4 C0 68 0 45 0
0

0101000
+149 0 -99 0 *
Ed
 1e-07 1 1 0
1  186 0 0 3.5
4 C0 68 0 52 0
0

0101000
+147 0 -101 0 *
Wi

0101100
+89 0 -98 0 -88 0 +146 0 *
Fa
0  1e-07 68 0

0111000
+87 0 *
Wi

0101100
+246 0 +114 0 *
Wi

0101100
-89 0 -148 0 -92 0 -251 0 -258 0 -97 0 *
Fa
0  1e-07 45 0

0111000
+85 0 +84 0 *
Wi

0101100
+118 0 +232 0 *
Wi

0101100
+145 0 +88 0 +100 0 -184 0 -175 0 -158 0 *
Fa
0  1e-07 52 0

0111000
-82 0 -81 0 *
Sh

0101100
+256 0 +249 0 -239 0 -229 0 -219 0 -209 0 -199 0 -189 0 +179 0 +172 0 
-161 0 +156 0 +139 0 -136 0 -132 0 -129 0 -126 0 -122 0 -119 0 -116 0 
-112 0 -105 0 +102 0 +93 0 +90 0 +86 0 +83 0 -80 0 *
So

0100000
+79 0 *
Ve
1e-07
2.93905524917371e-16 -2.4 0.199999999999999
0 0

0101101
*
Ve
1e-07
1.46952762458685e-16 -1.2 -1
0 0

0101101
*
Ed
 1e-07 1 1 0
1  187 0 0 1.5707963267949
2  157 69 0 0 1.5707963267949
2  158 70 0 0 1.5707963267949
4 CN 69 0 70 0
0

0101000
+77 0 -76 0 *
Ve
1e-07
-2.4 2.93905524917371e-16 0.199999999999999
0 0

0101101
*
Ed
 1e-07 1 1 0
1  188 0 3.14159265358979 4.71238898038469
2  159 69 0 3.14159265358979 4.71238898038469
2  160 71 0 3.14159265358979 4.71238898038469
4 G1 69 0 71 0
0

0101000
+74 0 -77 0 *
Ve
1e-07
-2.93905524917371e-16 2.4 0.199999999999999
0 0

0101101
*
Ed
 1e-07 1 1 0
1  189 0 1.5707963267949 3.14159265358979
2  161 69 0 1.5707963267949 3.14159265358979
2  162 72 0 1.5707963267949 3.14159265358979
4 G1 69 0 72 0
0

0101000
+72 0 -74 0 *
Ve
1e-07
-1.46952762458685e-16 1.2 -1
0 0

0101101
*
Ed
 1e-07 1 1 0
1  190 0 4.71238898038469 6.28318530717959
2  163 69 0 4.71238898038469 6.28318530717959
2  164 70 0 4.71238898038469 6.28318530717959
4 CN 69 0 70 0
0

0101000
+70 0 -72 0 *
Ve
1e-07
-1.2 -1.46952762458685e-16 -1
0 0

0101101
*
Ed
 1e-07 1 1 0
1  191 0 3.14159265358979 4.71238898038469
2  165 69 0 3.14159265358979 4.71238898038469
2  166 73 0 3.14159265358979 4.71238898038469
4 C0 69 0 73 0
0

0101000
+68 0 -70 0 *
Ed
 1e-07 1 1 0
1  192 0 1.5707963267949 3.14159265358979
2  167 69 0 1.5707963267949 3.14159265358979
2  168 74 0 1.5707963267949 3.14159265358979
4 C0 69 0 74 0
0

0101000
+76 0 -68 0 *
Wi

0101100
-75 0 -73 0 -71 0 -69 0 -67 0 -66 0 *
Fa
0  1e-07 69 0

0111000
+65 0 *
Ve
1e-07
1.2 2.08183080149804e-16 -2
0 0

0101101
*
Ve
1e-07
1.2 0 -1
0 0

0101101
*
Ed
 1e-07 1 1 0
1  193 0 -0.4 0.6
2  169 73 0 -0.4 0.6
2  170 74 0 -0.4 0.6
4 CN 73 0 74 0
0

0101000
+63 0 -62 0 *
Ve
1e-07
-1.2 2.08183080149804e-16 -2
0 0

0101101
*
Ed
 1e-07 1 1 0
1  194 0 3.14159265358979 6.28318530717959
2  171 73 0 3.14159265358979 6.28318530717959
4 C0 73 0 75 0
0

0101000
+60 0 -63 0 *
Ed
 1e-07 1 1 0
1  195 0 -0.6 0.4
2  172 73 0 -0.6 0.4
2  173 74 0 -0.6 0.4
4 CN 73 0 74 0
0

0101000
+68 0 -60 0 *
Ed
 1e-07 1 1 0
1  196 0 4.71238898038469 6.28318530717959
2  174 73 0 4.71238898038469 6.28318530717959
2  175 70 0 4.71238898038469 6.28318530717959
4 C0 73 0 70 0
0

0101000
+70 0 -62 0 *
Wi

0101100
-61 0 -59 0 -58 0 +67 0 +57 0 *
Fa
0  1e-07 73 0

0111000
+56 0 *
Ve
1e-07
2.4 -7.34763812293426e-17 0.199999999999999
0 0

0101101
*
Ve
1e-07
2.4 -7.34763812293426e-17 46.8
0 0

0101101
*
Ed
 1e-07 1 1 0
1  197 0 -23.3 23.3
2  176 72 0 -23.3 23.3
2  177 71 0 -23.3 23.3
4 CN 72 0 71 0
0

0101000
+54 0 -53 0 *
Ed
 1e-07 1 1 0
1  198 0 0 1.5707963267949
2  178 72 0 0 1.5707963267949
2  179 70 0 0 1.5707963267949
4 G1 72 0 70 0
0

0101000
+54 0 -72 0 *
Ve
1e-07
-2.4 2.93905524917371e-16 46.8
0 0

0101101
*
Ed
 1e-07 1 1 0
1  199 0 -23.3 23.3
2  180 72 0 -23.3 23.3
2  181 71 0 -23.3 23.3
4 CN 72 0 71 0
0

0101000
+50 0 -74 0 *
Ve
1e-07
2.93905524917371e-16 2.4 46.8
0 0

0101101
*
Ed
 1e-07 1 1 0
1  200 0 1.5707963267949 3.14159265358979
2  182 72 0 1.5707963267949 3.14159265358979
2  183 76 0 1.5707963267949 3.14159265358979
4 G1 72 0 76 0
0

0101000
+48 0 -50 0 *
Ed
 1e-07 1 1 0
1  201 0 0 1.5707963267949
2  184 72 0 0 1.5707963267949
2  185 77 0 0 1.5707963267949
4 G1 72 0 77 0
0

0101000
+53 0 -48 0 *
Wi

0101100
-52 0 +51 0 +71 0 -49 0 -47 0 -46 0 *
Fa
0  1e-07 72 0

0111000
+45 0 *
Ve
1e-07
1.46952762458685e-16 1.2 48
0 0

0101101
*
Ed
 1e-07 1 1 0
1  202 0 0 1.5707963267949
2  186 76 0 0 1.5707963267949
2  187 77 0 0 1.5707963267949
4 CN 76 0 77 0
0

0101000
+48 0 -43 0 *
Ve
1e-07
-2.93905524917371e-16 -2.4 46.8
0 0

0101101
*
Ed
 1e-07 1 1 0
1  203 0 3.14159265358979 4.71238898038469
2  188 76 0 3.14159265358979 4.71238898038469
2  189 71 0 3.14159265358979 4.71238898038469
4 G1 76 0 71 0
0

0101000
+50 0 -41 0 *
Ve
1e-07
-1.46952762458685e-16 -1.2 48
0 0

0101101
*
Ed
 1e-07 1 1 0
1  204 0 4.71238898038469 6.28318530717959
2  190 76 0 4.71238898038469 6.28318530717959
2  191 77 0 4.71238898038469 6.28318530717959
4 CN 76 0 77 0
0

0101000
+39 0 -41 0 *
Ve
1e-07
-1.2 1.46952762458685e-16 48
0 0

0101101
*
Ed
 1e-07 1 1 0
1  205 0 3.14159265358979 4.71238898038469
2  192 76 0 3.14159265358979 4.71238898038469
2  193 78 0 3.14159265358979 4.71238898038469
4 C0 76 0 78 0
0

0101000
+37 0 -39 0 *
Ed
 1e-07 1 1 0
1  206 0 1.5707963267949 3.14159265358979
2  194 76 0 1.5707963267949 3.14159265358979
2  195 79 0 1.5707963267949 3.14159265358979
4 C0 76 0 79 0
0

0101000
+43 0 -37 0 *
Wi

0101100
-42 0 +47 0 +40 0 -38 0 -36 0 -35 0 *
Fa
0  1e-07 76 0

0111000
+34 0 *
Ve
1e-07
1.2 -8.57224447675665e-17 49
0 0

0101101
*
Ve
1e-07
1.2 0 48
0 0

0101101
*
Ed
 1e-07 1 1 0
1  207 0 -0.399999999999999 0.600000000000001
2  196 78 0 -0.399999999999999 0.600000000000001
2  197 79 0 -0.399999999999999 0.600000000000001
4 CN 78 0 79 0
0

0101000
+32 0 -31 0 *
Ve
1e-07
-1.2 -8.57224447675665e-17 49
0 0

0101101
*
Ed
 1e-07 1 1 0
1  208 0 3.14159265358979 6.28318530717959
2  198 78 0 3.14159265358979 6.28318530717959
4 C0 78 0 80 0
0

0101000
+29 0 -32 0 *
Ed
 1e-07 1 1 0
1  209 0 -0.600000000000001 0.399999999999999
2  199 78 0 -0.600000000000001 0.399999999999999
2  200 79 0 -0.600000000000001 0.399999999999999
4 CN 78 0 79 0
0

0101000
+37 0 -29 0 *
Ed
 1e-07 1 1 0
1  210 0 4.71238898038469 6.28318530717959
2  201 78 0 4.71238898038469 6.28318530717959
2  202 77 0 4.71238898038469 6.28318530717959
4 C0 78 0 77 0
0

0101000
+39 0 -31 0 *
Wi

0101100
-30 0 -28 0 -27 0 +36 0 +26 0 *
Fa
0  1e-07 78 0

0111000
+25 0 *
Ed
 1e-07 1 1 0
1  211 0 0 1.5707963267949
2  203 79 0 0 1.5707963267949
2  204 77 0 0 1.5707963267949
4 C0 79 0 77 0
0

0101000
+31 0 -43 0 *
Ed
 1e-07 1 1 0
1  212 0 0 3.14159265358979
2  205 79 0 0 3.14159265358979
4 C0 79 0 80 0
0

0101000
+32 0 -29 0 *
Wi

0101100
+30 0 +23 0 +35 0 +27 0 -22 0 *
Fa
0  1e-07 79 0

0111000
+21 0 *
Ed
 1e-07 1 1 0
1  213 0 4.71238898038469 6.28318530717959
2  206 77 0 4.71238898038469 6.28318530717959
2  207 71 0 4.71238898038469 6.28318530717959
4 G1 77 0 71 0
0

0101000
+41 0 -53 0 *
Wi

0101100
+42 0 -23 0 -26 0 +38 0 +19 0 +46 0 *
Fa
0  1e-07 77 0

0111000
+18 0 *
Ed
 1e-07 1 1 0
1  214 0 4.71238898038469 6.28318530717959
2  208 71 0 4.71238898038469 6.28318530717959
2  209 70 0 4.71238898038469 6.28318530717959
4 G1 71 0 70 0
0

0101000
+77 0 -54 0 *
Wi

0101100
+52 0 -19 0 -40 0 +49 0 +73 0 +16 0 *
Fa
0  1e-07 71 0

0111000
+15 0 *
Ed
 1e-07 1 1 0
1  215 0 0 1.5707963267949
2  210 74 0 0 1.5707963267949
2  211 70 0 0 1.5707963267949
4 C0 74 0 70 0
0

0101000
+62 0 -76 0 *
Ed
 1e-07 1 1 0
1  216 0 0 3.14159265358979
2  212 74 0 0 3.14159265358979
4 C0 74 0 75 0
0

0101000
+63 0 -60 0 *
Wi

0101100
+61 0 +13 0 +66 0 +58 0 -12 0 *
Fa
0  1e-07 74 0

0111000
+11 0 *
Wi

0101100
+75 0 -13 0 -57 0 +69 0 -51 0 -16 0 *
Fa
0  1e-07 70 0

0111000
+9 0 *
Wi

0101100
+59 0 +12 0 *
Fa
0  1e-07 75 0

0111000
+7 0 *
Wi

0101100
+28 0 +22 0 *
Fa
0  1e-07 80 0

0111000
+5 0 *
Sh

0101100
+64 0 +55 0 +44 0 +33 0 +24 0 +20 0 +17 0 +14 0 +10 0 +8 0 
+6 0 +4 0 *
So

0100000
+3 0 *
Co

1100000
+266 0 +78 0 +2 0 *

+1 0 