DBRep_DrawableShape

CASCADE Topology V1, (c) Matra-Datavision
Locations 1
1
0.860411812409502 -0.482608262915927 0.163648335254191 16.9090341509385 
-0.00881732811503425 0.306984541125707 0.951673655322428 16.0762323649685 
-0.509523078762001 -0.820274195665761 0.259877810006512 13.0729203783888 
Curve2ds 6
1 0 5 1 0 
2 0 0 1 0 -0 1 9
1 6.2831853071795862 -0 0 1 
1 0 -0 0 1 
1 0 0 1 0 
2 0 0 1 0 -0 1 9
Curves 3
2 0 0 5 0 0 1 1 0 -0 -0 1 0 9
1 9 -2.2043642384652358e-15 0 0 0 1 
2 0 0 0 0 0 1 1 0 -0 -0 1 0 9
Polygon3D 0
PolygonOnTriangulations 0
Surfaces 3
2 0 0 0 0 0 1 1 0 -0 -0 1 0 9
1 0 0 5 0 0 1 1 0 -0 -0 1 0 
1 0 0 0 0 0 1 1 0 -0 -0 1 0 
Triangulations 0

TShapes 13
Ve
1e-07
9 -2.20436423846524e-15 5
0 0

0101101
*
Ed
 1e-07 1 1 0
1  1 0 0 6.28318530717959
2  1 1 0 0 6.28318530717959
2  2 2 0 0 6.28318530717959
0

0101000
+13 0 -13 0 *
Ve
1e-07
9 -2.20436423846524e-15 0
0 0

0101101
*
Ed
 1e-07 1 1 0
1  2 0 0 5
3  3 4CN 1 0 0 5
0

0101000
-13 0 +11 0 *
Ed
 1e-07 1 1 0
1  3 0 0 6.28318530717959
2  5 1 0 0 6.28318530717959
2  6 3 0 0 6.28318530717959
0

0101000
+11 0 -11 0 *
Wi

0101100
-12 0 +10 0 +9 0 -10 0 *
Fa
0  1e-07 1 0

0111000
+8 0 *
Wi

0101100
+12 0 *
Fa
0  1e-07 2 0

0111000
+6 0 *
Wi

0101100
-9 0 *
Fa
0  1e-07 3 0

0111000
-4 0 *
Sh

0101100
+7 0 +5 0 -3 0 *
So

1100000
+2 0 *

+1 1 