DBRep_DrawableShape

CASCADE Topology V1, (c) Matra-Datavision
Locations 1
1
0.706611340029835 0.314156751803094 0.634039391077376 3.00786177884956 
-0.707459770912764 0.29569713632332 0.641922017156482 14.1388807364301 
0.0141805035630089 -0.902146739098866 0.431196213401721 12.7069321462957 
Curve2ds 6
1 0 5 1 0 
2 0 0 1 0 -0 1 5.9000000000000004
1 6.2831853071795862 -0 0 1 
1 0 -0 0 1 
1 0 0 1 0 
2 0 0 1 0 -0 1 5.9000000000000004
Curves 3
2 0 0 5 0 0 1 1 0 -0 -0 1 0 5.9000000000000004
1 5.9000000000000004 -1.4450832229938768e-15 0 0 0 1 
2 0 0 0 0 0 1 1 0 -0 -0 1 0 5.9000000000000004
Polygon3D 0
PolygonOnTriangulations 0
Surfaces 3
2 0 0 0 0 0 1 1 0 -0 -0 1 0 5.9000000000000004
1 0 0 5 0 0 1 1 0 -0 -0 1 0 
1 0 0 0 0 0 1 1 0 -0 -0 1 0 
Triangulations 0

TShapes 13
Ve
1e-07
5.9 -1.44508322299388e-15 5
0 0

0101101
*
Ed
 1e-07 1 1 0
1  1 0 0 6.28318530717959
2  1 1 0 0 6.28318530717959
2  2 2 0 0 6.28318530717959
0

0101000
+13 0 -13 0 *
Ve
1e-07
5.9 -1.44508322299388e-15 0
0 0

0101101
*
Ed
 1e-07 1 1 0
1  2 0 0 5
3  3 4CN 1 0 0 5
0

0101000
-13 0 +11 0 *
Ed
 1e-07 1 1 0
1  3 0 0 6.28318530717959
2  5 1 0 0 6.28318530717959
2  6 3 0 0 6.28318530717959
0

0101000
+11 0 -11 0 *
Wi

0101100
-12 0 +10 0 +9 0 -10 0 *
Fa
0  1e-07 1 0

0111000
+8 0 *
Wi

0101100
+12 0 *
Fa
0  1e-07 2 0

0111000
+6 0 *
Wi

0101100
-9 0 *
Fa
0  1e-07 3 0

0111000
-4 0 *
Sh

0101100
+7 0 +5 0 -3 0 *
So

1100000
+2 0 *

+1 1 