DBRep_DrawableShape

CASCADE Topology V1, (c) Matra-Datavision
Locations 1
1
0.448636514526733 0.858509074249498 0.248369577977204 4.05350115927844 
-0.160766521099418 -0.195849495706527 0.967366063455345 -17.8604047450144 
0.879135600193107 -0.473925251978378 0.0501542820737788 -9.7505463816473 
Curve2ds 6
1 0 5 1 0 
2 0 0 1 0 -0 1 7.9000000000000004
1 6.2831853071795862 -0 0 1 
1 0 -0 0 1 
1 0 0 1 0 
2 0 0 1 0 -0 1 7.9000000000000004
Curves 3
2 0 0 5 0 0 1 1 0 -0 -0 1 0 7.9000000000000004
1 7.9000000000000004 -1.934941942652818e-15 0 0 0 1 
2 0 0 0 0 0 1 1 0 -0 -0 1 0 7.9000000000000004
Polygon3D 0
PolygonOnTriangulations 0
Surfaces 3
2 0 0 0 0 0 1 1 0 -0 -0 1 0 7.9000000000000004
1 0 0 5 0 0 1 1 0 -0 -0 1 0 
1 0 0 0 0 0 1 1 0 -0 -0 1 0 
Triangulations 0

TShapes 13
Ve
1e-07
7.9 -1.93494194265282e-15 5
0 0

0101101
*
Ed
 1e-07 1 1 0
1  1 0 0 6.28318530717959
2  1 1 0 0 6.28318530717959
2  2 2 0 0 6.28318530717959
0

0101000
+13 0 -13 0 *
Ve
1e-07
7.9 -1.93494194265282e-15 0
0 0

0101101
*
Ed
 1e-07 1 1 0
1  2 0 0 5
3  3 4CN 1 0 0 5
0

0101000
-13 0 +11 0 *
Ed
 1e-07 1 1 0
1  3 0 0 6.28318530717959
2  5 1 0 0 6.28318530717959
2  6 3 0 0 6.28318530717959
0

0101000
+11 0 -11 0 *
Wi

0101100
-12 0 +10 0 +9 0 -10 0 *
Fa
0  1e-07 1 0

0111000
+8 0 *
Wi

0101100
+12 0 *
Fa
0  1e-07 2 0

0111000
+6 0 *
Wi

0101100
-9 0 *
Fa
0  1e-07 3 0

0111000
-4 0 *
Sh

0101100
+7 0 +5 0 -3 0 *
So

1100000
+2 0 *

+1 1 