DBRep_DrawableShape

CASCADE Topology V1, (c) Matra-Datavision
Locations 1
1
0.0603604024106815 -0.0926565877525717 -0.993866881713477 -18.0560165707065 
0.551771005125526 0.832827162587579 -0.0441324728413108 3.7751242319132 
0.831808499429759 -0.545723074463938 0.10139500122807 -0.220235109654116 
Curve2ds 6
1 0 5 1 0 
2 0 0 1 0 -0 1 5.0999999999999996
1 6.2831853071795862 -0 0 1 
1 0 -0 0 1 
1 0 0 1 0 
2 0 0 1 0 -0 1 5.0999999999999996
Curves 3
2 0 0 5 0 0 1 1 0 -0 -0 1 0 5.0999999999999996
1 5.0999999999999996 -1.2491397351303002e-15 0 0 0 1 
2 0 0 0 0 0 1 1 0 -0 -0 1 0 5.0999999999999996
Polygon3D 0
PolygonOnTriangulations 0
Surfaces 3
2 0 0 0 0 0 1 1 0 -0 -0 1 0 5.0999999999999996
1 0 0 5 0 0 1 1 0 -0 -0 1 0 
1 0 0 0 0 0 1 1 0 -0 -0 1 0 
Triangulations 0

TShapes 13
Ve
1e-07
5.1 -1.2491397351303e-15 5
0 0

0101101
*
Ed
 1e-07 1 1 0
1  1 0 0 6.28318530717959
2  1 1 0 0 6.28318530717959
2  2 2 0 0 6.28318530717959
0

0101000
+13 0 -13 0 *
Ve
1e-07
5.1 -1.2491397351303e-15 0
0 0

0101101
*
Ed
 1e-07 1 1 0
1  2 0 0 5
3  3 4CN 1 0 0 5
0

0101000
-13 0 +11 0 *
Ed
 1e-07 1 1 0
1  3 0 0 6.28318530717959
2  5 1 0 0 6.28318530717959
2  6 3 0 0 6.28318530717959
0

0101000
+11 0 -11 0 *
Wi

0101100
-12 0 +10 0 +9 0 -10 0 *
Fa
0  1e-07 1 0

0111000
+8 0 *
Wi

0101100
+12 0 *
Fa
0  1e-07 2 0

0111000
+6 0 *
Wi

0101100
-9 0 *
Fa
0  1e-07 3 0

0111000
-4 0 *
Sh

0101100
+7 0 +5 0 -3 0 *
So

1100000
+2 0 *

+1 1 