DBRep_DrawableShape

CASCADE Topology V1, (c) Matra-Datavision
Locations 1
1
0.0159150676226151 0.0274773576169333 -0.999495725574131 -10.3053949250686 
-0.106067677562997 0.994028336742449 0.0256381264805601 -18.0007090956923 
0.994231541643575 0.105606157829135 0.0187344877060477 -2.96102287623476 
Curve2ds 6
1 0 5 1 0 
2 0 0 1 0 -0 1 7.9500000000000002
1 6.2831853071795862 -0 0 1 
1 0 -0 0 1 
1 0 0 1 0 
2 0 0 1 0 -0 1 7.9500000000000002
Curves 3
2 0 0 5 0 0 1 1 0 -0 -0 1 0 7.9500000000000002
1 7.9500000000000002 -1.9471884106442918e-15 0 0 0 1 
2 0 0 0 0 0 1 1 0 -0 -0 1 0 7.9500000000000002
Polygon3D 0
PolygonOnTriangulations 0
Surfaces 3
2 0 0 0 0 0 1 1 0 -0 -0 1 0 7.9500000000000002
1 0 0 5 0 0 1 1 0 -0 -0 1 0 
1 0 0 0 0 0 1 1 0 -0 -0 1 0 
Triangulations 0

TShapes 13
Ve
1e-07
7.95 -1.94718841064429e-15 5
0 0

0101101
*
Ed
 1e-07 1 1 0
1  1 0 0 6.28318530717959
2  1 1 0 0 6.28318530717959
2  2 2 0 0 6.28318530717959
0

0101000
+13 0 -13 0 *
Ve
1e-07
7.95 -1.94718841064429e-15 0
0 0

0101101
*
Ed
 1e-07 1 1 0
1  2 0 0 5
3  3 4CN 1 0 0 5
0

0101000
-13 0 +11 0 *
Ed
 1e-07 1 1 0
1  3 0 0 6.28318530717959
2  5 1 0 0 6.28318530717959
2  6 3 0 0 6.28318530717959
0

0101000
+11 0 -11 0 *
Wi

0101100
-12 0 +10 0 +9 0 -10 0 *
Fa
0  1e-07 1 0

0111000
+8 0 *
Wi

0101100
+12 0 *
Fa
0  1e-07 2 0

0111000
+6 0 *
Wi

0101100
-9 0 *
Fa
0  1e-07 3 0

0111000
-4 0 *
Sh

0101100
+7 0 +5 0 -3 0 *
So

1100000
+2 0 *

+1 1 