DBRep_DrawableShape

CASCADE Topology V1, (c) Matra-Datavision
Locations 1
1
0.0155186138165778 0.11056117728897 0.993748156577757 -2.18073921802988 
-0.186028561471695 0.976834257469061 -0.105774324633345 -10.4206016244723 
-0.982421776500289 -0.183224069137615 0.03572665037015 5.15980107511035 
Curve2ds 6
1 0 1 1 0 
2 0 0 1 0 -0 1 9.6500000000000004
1 6.2831853071795862 -0 0 1 
1 0 -0 0 1 
1 0 0 1 0 
2 0 0 1 0 -0 1 9.6500000000000004
Curves 3
2 0 0 0.5 0 0 1 1 0 -0 -0 1 0 9.6500000000000004
1 9.6500000000000004 -2.3635683223543918e-15 -0.5 0 0 1 
2 0 0 -0.5 0 0 1 1 0 -0 -0 1 0 9.6500000000000004
Polygon3D 0
PolygonOnTriangulations 0
Surfaces 3
2 0 0 -0.5 0 0 1 1 0 -0 -0 1 0 9.6500000000000004
1 0 0 0.5 0 0 1 1 0 -0 -0 1 0 
1 0 0 -0.5 0 0 1 1 0 -0 -0 1 0 
Triangulations 0

TShapes 13
Ve
1e-07
9.65 -2.36356832235439e-15 0.5
0 0

0101101
*
Ed
 1e-07 1 1 0
1  1 0 0 6.28318530717959
2  1 1 0 0 6.28318530717959
2  2 2 0 0 6.28318530717959
0

0101000
+13 0 -13 0 *
Ve
1e-07
9.65 -2.36356832235439e-15 -0.5
0 0

0101101
*
Ed
 1e-07 1 1 0
1  2 0 0 1
3  3 4CN 1 0 0 1
0

0101000
-13 0 +11 0 *
Ed
 1e-07 1 1 0
1  3 0 0 6.28318530717959
2  5 1 0 0 6.28318530717959
2  6 3 0 0 6.28318530717959
0

0101000
+11 0 -11 0 *
Wi

0101100
-12 0 +10 0 +9 0 -10 0 *
Fa
0  1e-07 1 0

0111000
+8 0 *
Wi

0101100
+12 0 *
Fa
0  1e-07 2 0

0111000
+6 0 *
Wi

0101100
-9 0 *
Fa
0  1e-07 3 0

0111000
-4 0 *
Sh

0101100
+7 0 +5 0 -3 0 *
So

1100000
+2 0 *

+1 1 