DBRep_DrawableShape

CASCADE Topology V1, (c) Matra-Datavision
Locations 1
1
0.1081074439551 0.952052973998094 0.286195589174395 2.54372527405689 
-0.872519733219265 0.228840888809399 -0.431672517948394 15.341226731797 
-0.476468357506012 -0.20304428657391 0.855424410445023 11.733784883178 
Curve2ds 6
1 0 1 1 0 
2 0 0 1 0 -0 1 5
1 6.2831853071795862 -0 0 1 
1 0 -0 0 1 
1 0 0 1 0 
2 0 0 1 0 -0 1 5
Curves 3
2 0 0 0.5 0 0 1 1 0 -0 -0 1 0 5
1 5 -1.2246467991473533e-15 -0.5 0 0 1 
2 0 0 -0.5 0 0 1 1 0 -0 -0 1 0 5
Polygon3D 0
PolygonOnTriangulations 0
Surfaces 3
2 0 0 -0.5 0 0 1 1 0 -0 -0 1 0 5
1 0 0 0.5 0 0 1 1 0 -0 -0 1 0 
1 0 0 -0.5 0 0 1 1 0 -0 -0 1 0 
Triangulations 0

TShapes 13
Ve
1e-07
5 -1.22464679914735e-15 0.5
0 0

0101101
*
Ed
 1e-07 1 1 0
1  1 0 0 6.28318530717959
2  1 1 0 0 6.28318530717959
2  2 2 0 0 6.28318530717959
0

0101000
+13 0 -13 0 *
Ve
1e-07
5 -1.22464679914735e-15 -0.5
0 0

0101101
*
Ed
 1e-07 1 1 0
1  2 0 0 1
3  3 4CN 1 0 0 1
0

0101000
-13 0 +11 0 *
Ed
 1e-07 1 1 0
1  3 0 0 6.28318530717959
2  5 1 0 0 6.28318530717959
2  6 3 0 0 6.28318530717959
0

0101000
+11 0 -11 0 *
Wi

0101100
-12 0 +10 0 +9 0 -10 0 *
Fa
0  1e-07 1 0

0111000
+8 0 *
Wi

0101100
+12 0 *
Fa
0  1e-07 2 0

0111000
+6 0 *
Wi

0101100
-9 0 *
Fa
0  1e-07 3 0

0111000
-4 0 *
Sh

0101100
+7 0 +5 0 -3 0 *
So

1100000
+2 0 *

+1 1 