DBRep_DrawableShape

CASCADE Topology V1, (c) Matra-Datavision
Locations 1
1
0.505590228643184 0.263988630508104 -0.821394255922811 -0.980539858360583 
-0.862042655353416 0.193752027583097 -0.468340273902076 1.40862166710142 
0.0355102950109542 0.944865151632705 0.325528591952136 10.6650543310815 
Curve2ds 6
1 0 1 1 0 
2 0 0 1 0 -0 1 7.9500000000000002
1 6.2831853071795862 -0 0 1 
1 0 -0 0 1 
1 0 0 1 0 
2 0 0 1 0 -0 1 7.9500000000000002
Curves 3
2 0 0 0.5 0 0 1 1 0 -0 -0 1 0 7.9500000000000002
1 7.9500000000000002 -1.9471884106442918e-15 -0.5 0 0 1 
2 0 0 -0.5 0 0 1 1 0 -0 -0 1 0 7.9500000000000002
Polygon3D 0
PolygonOnTriangulations 0
Surfaces 3
2 0 0 -0.5 0 0 1 1 0 -0 -0 1 0 7.9500000000000002
1 0 0 0.5 0 0 1 1 0 -0 -0 1 0 
1 0 0 -0.5 0 0 1 1 0 -0 -0 1 0 
Triangulations 0

TShapes 13
Ve
1e-07
7.95 -1.94718841064429e-15 0.5
0 0

0101101
*
Ed
 1e-07 1 1 0
1  1 0 0 6.28318530717959
2  1 1 0 0 6.28318530717959
2  2 2 0 0 6.28318530717959
0

0101000
+13 0 -13 0 *
Ve
1e-07
7.95 -1.94718841064429e-15 -0.5
0 0

0101101
*
Ed
 1e-07 1 1 0
1  2 0 0 1
3  3 4CN 1 0 0 1
0

0101000
-13 0 +11 0 *
Ed
 1e-07 1 1 0
1  3 0 0 6.28318530717959
2  5 1 0 0 6.28318530717959
2  6 3 0 0 6.28318530717959
0

0101000
+11 0 -11 0 *
Wi

0101100
-12 0 +10 0 +9 0 -10 0 *
Fa
0  1e-07 1 0

0111000
+8 0 *
Wi

0101100
+12 0 *
Fa
0  1e-07 2 0

0111000
+6 0 *
Wi

0101100
-9 0 *
Fa
0  1e-07 3 0

0111000
-4 0 *
Sh

0101100
+7 0 +5 0 -3 0 *
So

1100000
+2 0 *

+1 1 