DBRep_DrawableShape

CASCADE Topology V1, (c) Matra-Datavision
Locations 1
1
0.162664947363614 -0.102447235724252 -0.981348398272322 -12.7609219107615 
0.313993645179911 0.948263667218423 -0.0469468659241499 12.7917742318758 
0.935386607604484 -0.300500551290555 0.186417040498576 -2.81694426442844 
Curve2ds 6
1 0 1 1 0 
2 0 0 1 0 -0 1 8.1500000000000004
1 6.2831853071795862 -0 0 1 
1 0 -0 0 1 
1 0 0 1 0 
2 0 0 1 0 -0 1 8.1500000000000004
Curves 3
2 0 0 0.5 0 0 1 1 0 -0 -0 1 0 8.1500000000000004
1 8.1500000000000004 -1.996174282610186e-15 -0.5 0 0 1 
2 0 0 -0.5 0 0 1 1 0 -0 -0 1 0 8.1500000000000004
Polygon3D 0
PolygonOnTriangulations 0
Surfaces 3
2 0 0 -0.5 0 0 1 1 0 -0 -0 1 0 8.1500000000000004
1 0 0 0.5 0 0 1 1 0 -0 -0 1 0 
1 0 0 -0.5 0 0 1 1 0 -0 -0 1 0 
Triangulations 0

TShapes 13
Ve
1e-07
8.15 -1.99617428261019e-15 0.5
0 0

0101101
*
Ed
 1e-07 1 1 0
1  1 0 0 6.28318530717959
2  1 1 0 0 6.28318530717959
2  2 2 0 0 6.28318530717959
0

0101000
+13 0 -13 0 *
Ve
1e-07
8.15 -1.99617428261019e-15 -0.5
0 0

0101101
*
Ed
 1e-07 1 1 0
1  2 0 0 1
3  3 4CN 1 0 0 1
0

0101000
-13 0 +11 0 *
Ed
 1e-07 1 1 0
1  3 0 0 6.28318530717959
2  5 1 0 0 6.28318530717959
2  6 3 0 0 6.28318530717959
0

0101000
+11 0 -11 0 *
Wi

0101100
-12 0 +10 0 +9 0 -10 0 *
Fa
0  1e-07 1 0

0111000
+8 0 *
Wi

0101100
+12 0 *
Fa
0  1e-07 2 0

0111000
+6 0 *
Wi

0101100
-9 0 *
Fa
0  1e-07 3 0

0111000
-4 0 *
Sh

0101100
+7 0 +5 0 -3 0 *
So

1100000
+2 0 *

+1 1 