DBRep_DrawableShape

CASCADE Topology V1, (c) Matra-Datavision
Locations 1
1
0.907282606186017 -0.364196225437335 0.210236490385249 11.6505043674093 
0.231346925796086 0.0147932266357886 -0.972758839780139 0.6746741895181 
0.351165021659347 0.931204741086996 0.0976773143574846 -14.4711975501435 
Curve2ds 6
1 0 1 1 0 
2 0 0 1 0 -0 1 9.8000000000000007
1 6.2831853071795862 -0 0 1 
1 0 -0 0 1 
1 0 0 1 0 
2 0 0 1 0 -0 1 9.8000000000000007
Curves 3
2 0 0 0.5 0 0 1 1 0 -0 -0 1 0 9.8000000000000007
1 9.8000000000000007 -2.4003077263288123e-15 -0.5 0 0 1 
2 0 0 -0.5 0 0 1 1 0 -0 -0 1 0 9.8000000000000007
Polygon3D 0
PolygonOnTriangulations 0
Surfaces 3
2 0 0 -0.5 0 0 1 1 0 -0 -0 1 0 9.8000000000000007
1 0 0 0.5 0 0 1 1 0 -0 -0 1 0 
1 0 0 -0.5 0 0 1 1 0 -0 -0 1 0 
Triangulations 0

TShapes 13
Ve
1e-07
9.8 -2.40030772632881e-15 0.5
0 0

0101101
*
Ed
 1e-07 1 1 0
1  1 0 0 6.28318530717959
2  1 1 0 0 6.28318530717959
2  2 2 0 0 6.28318530717959
0

0101000
+13 0 -13 0 *
Ve
1e-07
9.8 -2.40030772632881e-15 -0.5
0 0

0101101
*
Ed
 1e-07 1 1 0
1  2 0 0 1
3  3 4CN 1 0 0 1
0

0101000
-13 0 +11 0 *
Ed
 1e-07 1 1 0
1  3 0 0 6.28318530717959
2  5 1 0 0 6.28318530717959
2  6 3 0 0 6.28318530717959
0

0101000
+11 0 -11 0 *
Wi

0101100
-12 0 +10 0 +9 0 -10 0 *
Fa
0  1e-07 1 0

0111000
+8 0 *
Wi

0101100
+12 0 *
Fa
0  1e-07 2 0

0111000
+6 0 *
Wi

0101100
-9 0 *
Fa
0  1e-07 3 0

0111000
-4 0 *
Sh

0101100
+7 0 +5 0 -3 0 *
So

1100000
+2 0 *

+1 1 