DBRep_DrawableShape

CASCADE Topology V1, (c) Matra-Datavision
Locations 0
Curve2ds 48
1 6.2831853071795862 -0.66976270430513296 -1 0 
1 0 -5.2028125000000003 1 0 
1 3.1415926535897931 -2.2204460492503131e-16 0 1 
1 3.1415926535897931 -2.2204460492503131e-16 0 1 
1 0 0.66976270430513296 1 0 
1 0 2.2204460492503131e-16 0 -1 
1 6.2831853071795862 2.2204460492503131e-16 0 -1 
1 0 5.2028125000000003 1 0 
1 0 -0.66976270430513241 1 0 
1 3.1415926535897931 0 0 -1 
1 3.1415926535897931 0 0 -1 
1 6.2831853071795862 0 0 1 
1 0 0 0 1 
1 0 0.66976270430513363 1 0 
1 3.1415926535897931 0 0 -1 
1 3.1415926535897931 0 0 -1 
1 6.2831853071795862 6.6613381477509392e-16 0 1 
1 0 6.6613381477509392e-16 0 1 
1 6.2831853071795862 -6.6613381477509392e-16 0 -1 
1 0 -6.6613381477509392e-16 0 -1 
7 0 0  3 25 23  6.2831853071795862 1.492474822700673  6.268034045627787 1.3781188596912652  6.2375460180780227 1.1628926482346638  6.1912992310482666 0.87815351733408176  6.1445783066133606 0.62900987851019186  6.0974279107402136 0.41347411637394599  6.0498951347942107 0.22984008670502062  6.0020296464011196 0.076699774092235259  5.9538833126046864 -0.047098526269857131  5.9055099180821404 -0.1424686854761639  5.8569648164595689 -0.21010490446701324  5.8083045642776767 -0.25049422633946217  5.7595865315812871 -0.26392543683607034  5.7108684988848957 -0.2504942263394544  5.6622082467030035 -0.21010490446701108  5.6136631450804293 -0.14246868547615069  5.5652897505578869 -0.047098526269850692  5.5171434167614519 0.076699774092255618  5.4692779283683626 0.22984008670503542  5.4217451524223597 0.4134741163739713  5.3745947565492109 0.62900987851021173  5.3278738321143058 0.87815351733410529  5.2816270450845506 1.1628926482346973  5.2511390175347872 1.3781188596913005  5.235987755982987 1.4924748227007059 
 0 4 0.5543268702225409 1 1.1086537404450818 1 1.6629806106676228 1 2.2173074808901636 1 2.7716343511127044 1 3.3259612213352456 1 3.8802880915577864 1 4.4346149617803272 1 4.988941832002868 1 5.5432687022254088 1 6.0975955724479496 1 6.6519224426704913 1 7.2062493128930321 1 7.7605761831155728 1 8.3149030533381136 1 8.8692299235606544 1 9.4235567937831952 1 9.977883664005736 1 10.532210534228277 1 11.086537404450818 1 11.640864274673358 1 12.195191144895899 4
7 0 0  3 25 23  5.235987755982987 1.4924748227007059  5.220836494431186 1.378118859691299  5.1903484668814217 1.1628926482346982  5.1441016798516666 0.87815351733411806  5.0973807554167632 0.62900987851022949  5.0502303595436135 0.41347411637398712  5.0026975835976106 0.22984008670505557  4.9548320952045213 0.076699774092281375  4.9066857614080881 -0.047098526269819578  4.8583123668855439 -0.14246868547612304  4.8097672652629715 -0.2101049044669771  4.7611070130810793 -0.25049422633942003  4.7123889803846915 -0.26392543683603786  4.6636709476882983 -0.2504942263394187  4.6150106955064079 -0.21010490446697858  4.5664655938838346 -0.14246868547611863  4.5180921993612913 -0.047098526269823748  4.4699458655648563 0.076699774092283776  4.4220803771717669 0.22984008670505401  4.374547601225764 0.41347411637398718  4.3273972053526171 0.62900987851022871  4.2806762809177101 0.87815351733411018  4.2344294938879585 1.1628926482347013  4.2039414663381942 1.3781188596913021  4.1887902047863923 1.4924748227007059 
 0 4 0.5543268702225409 1 1.1086537404450818 1 1.6629806106676228 1 2.2173074808901636 1 2.7716343511127044 1 3.3259612213352456 1 3.8802880915577864 1 4.4346149617803272 1 4.988941832002868 1 5.5432687022254088 1 6.0975955724479496 1 6.6519224426704913 1 7.2062493128930321 1 7.7605761831155728 1 8.3149030533381136 1 8.8692299235606544 1 9.4235567937831952 1 9.977883664005736 1 10.532210534228277 1 11.086537404450818 1 11.640864274673358 1 12.195191144895899 4
7 0 0  3 25 23  4.1887902047863923 1.4924748227007059  4.1736389432345931 1.3781188596912977  4.1431509156848296 1.1628926482346935  4.0969041286550736 0.87815351733410663  4.0501832042201675 0.62900987851021051  4.0030328083470206 0.41347411637397519  3.9555000324010168 0.22984008670503309  3.9076345440079261 0.076699774092254994  3.8594882102114934 -0.047098526269849644  3.8111148156889487 -0.14246868547615429  3.7625697140663767 -0.21010490446700969  3.7139094618844837 -0.25049422633945634  3.6651914291880945 -0.26392543683606762  3.6164733964917022 -0.25049422633946145  3.5678131443098113 -0.2101049044670153  3.5192680426872371 -0.14246868547616609  3.4708946481646938 -0.047098526269854224  3.4227483143682598 0.076699774092235731  3.3748828259751695 0.22984008670501963  3.3273500500291662 0.41347411637394577  3.2801996541560188 0.62900987851019174  3.2334787297211123 0.87815351733408198  3.1872319426913571 1.1628926482346629  3.1567439151415941 1.3781188596912648  3.1415926535897931 1.492474822700673 
 0 4 0.5543268702225409 1 1.1086537404450818 1 1.6629806106676228 1 2.2173074808901636 1 2.7716343511127044 1 3.3259612213352456 1 3.8802880915577864 1 4.4346149617803272 1 4.988941832002868 1 5.5432687022254088 1 6.0975955724479496 1 6.6519224426704913 1 7.2062493128930321 1 7.7605761831155728 1 8.3149030533381136 1 8.8692299235606544 1 9.4235567937831952 1 9.977883664005736 1 10.532210534228277 1 11.086537404450818 1 11.640864274673358 1 12.195191144895899 4
1 3.1415926535897931 -8.8817841970012523e-16 0 1 
1 3.1415926535897931 -8.8817841970012523e-16 0 1 
1 0 -1.4924748227006275 1 0 
1 0 -2.2204460492503131e-16 0 1 
1 6.2831853071795862 -2.2204460492503131e-16 0 1 
1 0 -1.4924748227006304 1 0 
1 3.1415926535897931 8.8817841970012523e-16 0 -1 
1 3.1415926535897931 8.8817841970012523e-16 0 -1 
7 0 0  3 25 23  3.1415926535897931 1.4924748227006772  3.126441392037993 1.3781188596912688  3.0959533644882296 1.1628926482346669  3.0497065774584726 0.87815351733408797  3.0029856530235701 0.62900987851019119  2.9558352571504223 0.41347411637395304  2.9083024812044176 0.22984008670502243  2.8604369928113282 0.076699774092242767  2.8122906590148933 -0.047098526269856028  2.7639172644923491 -0.14246868547616021  2.7153721628697767 -0.21010490446701174  2.6667119106878836 -0.25049422633946122  2.6179938779914931 -0.26392543683606895  2.5692758452951026 -0.25049422633945906  2.5206155931132113 -0.21010490446701097  2.4720704914906371 -0.14246868547615518  2.4236970969680929 -0.047098526269846251  2.3755507631716579 0.076699774092248582  2.3276852747785686 0.22984008670503908  2.2801524988325639 0.41347411637396109  2.2330021029594231 0.62900987851021184  2.18628117852451 0.87815351733410751  2.1400343914947584 1.1628926482346968  2.109546363944995 1.3781188596912992  2.094395102393193 1.4924748227007054 
 0 4 0.5543268702225409 1 1.1086537404450818 1 1.6629806106676228 1 2.2173074808901636 1 2.7716343511127044 1 3.3259612213352456 1 3.8802880915577864 1 4.4346149617803272 1 4.988941832002868 1 5.5432687022254088 1 6.0975955724479496 1 6.6519224426704913 1 7.2062493128930321 1 7.7605761831155728 1 8.3149030533381136 1 8.8692299235606544 1 9.4235567937831952 1 9.977883664005736 1 10.532210534228277 1 11.086537404450818 1 11.640864274673358 1 12.195191144895899 4
7 0 0  3 25 23  2.0943951023931948 1.4924748227007136  2.0792438408413947 1.3781188596913079  2.048755813291633 1.1628926482347075  2.0025090262618725 0.87815351733412561  1.9557881018269718 0.62900987851022783  1.908637705953824 0.41347411637399722  1.8611049300078175 0.2298400867050569  1.8132394416147299 0.076699774092278669  1.7650931078182968 -0.047098526269817011  1.7167197132957499 -0.14246868547612512  1.6681746116731775 -0.21010490446697344  1.619514359491288 -0.25049422633942225  1.5707963267948983 -0.26392543683603648  1.5220782940985043 -0.2504942263394212  1.4734180419166156 -0.21010490446697788  1.4248729402940405 -0.14246868547611843  1.3764995457714981 -0.047098526269819328  1.3283532119750623 0.076699774092281278  1.2804877235819712 0.2298400867050587  1.2329549476359691 0.41347411637398812  1.185804551762824 0.6290098785102316  1.1390836273279161 0.87815351733411939  1.0928368402981654 1.1628926482347084  1.0623488127484011 1.3781188596913103  1.0471975511965983 1.4924748227007154 
 0 4 0.5543268702225409 1 1.1086537404450818 1 1.6629806106676228 1 2.2173074808901636 1 2.7716343511127044 1 3.3259612213352456 1 3.8802880915577864 1 4.4346149617803272 1 4.988941832002868 1 5.5432687022254088 1 6.0975955724479496 1 6.6519224426704913 1 7.2062493128930321 1 7.7605761831155728 1 8.3149030533381136 1 8.8692299235606544 1 9.4235567937831952 1 9.977883664005736 1 10.532210534228277 1 11.086537404450818 1 11.640864274673358 1 12.195191144895899 4
7 0 0  3 25 23  1.0471975511966001 1.492474822700707  1.0320462896447999 1.3781188596912974  1.0015582620950365 1.1628926482346935  0.95531147506527958 0.87815351733410985  0.9085905506303753 0.62900987851020629  0.86144015475722568 0.41347411637396952  0.81390737881122277 0.22984008670503103  0.76604189041813608 0.076699774092251025  0.71789555662169846 -0.047098526269848881  0.66952216209915694 -0.14246868547615829  0.62097706047658097 -0.21010490446700719  0.57231680829468967 -0.2504942263394625  0.52359877559830004 -0.26392543683607023  0.47488074290190863 -0.25049422633946355  0.42622049072001733 -0.2101049044670128  0.37767538909744314 -0.14246868547616429  0.32930199457489806 -0.04709852626985972  0.28115566077846754 0.076699774092240811  0.23329017238537464 0.22984008670502287  0.18575739643937172 0.41347411637395209  0.13860700056622477 0.62900987851018408  0.091886076131317829 0.8781535173340852  0.045639289101560898 1.1628926482346671  0.015151261551798356 1.3781188596912695  0 1.4924748227006772 
 0 4 0.55432687022254545 1 1.1086537404450909 1 1.6629806106676364 1 2.2173074808901818 1 2.771634351112727 1 3.3259612213352727 1 3.8802880915578184 1 4.4346149617803636 1 4.9889418320029089 1 5.5432687022254541 1 6.0975955724480002 1 6.6519224426705454 1 7.2062493128930907 1 7.7605761831156368 1 8.3149030533381811 1 8.8692299235607273 1 9.4235567937832734 1 9.9778836640058177 1 10.532210534228364 1 11.086537404450908 1 11.640864274673454 1 12.195191144896 4
7 0 0  3 25 23  6.2831853071795862 1.4924748227006772  6.268034045627787 1.3781188596912681  6.2375460180780227 1.1628926482346669  6.1912992310482666 0.87815351733408997  6.1445783066133606 0.62900987851019363  6.0974279107402136 0.4134741163739527  6.0498951347942107 0.2298400867050234  6.0020296464011196 0.076699774092241546  5.9538833126046855 -0.047098526269850685  5.9055099180821422 -0.14246868547615862  5.8569648164595671 -0.21010490446701088  5.8083045642776767 -0.2504942263394539  5.7595865315812871 -0.26392543683606751  5.7108684988848957 -0.25049422633945068  5.6622082467030035 -0.21010490446700456  5.6136631450804293 -0.14246868547614802  5.5652897505578869 -0.047098526269840492  5.5171434167614519 0.076699774092258935  5.4692779283683626 0.22984008670504211  5.4217451524223588 0.41347411637396914  5.3745947565492118 0.62900987851021606  5.3278738321143049 0.87815351733411018  5.2816270450845524 1.1628926482347017  5.2511390175347872 1.3781188596913045  5.235987755982987 1.4924748227007099 
 0 4 0.5543268702225409 1 1.1086537404450818 1 1.6629806106676228 1 2.2173074808901636 1 2.7716343511127044 1 3.3259612213352456 1 3.8802880915577864 1 4.4346149617803272 1 4.988941832002868 1 5.5432687022254088 1 6.0975955724479496 1 6.6519224426704913 1 7.2062493128930321 1 7.7605761831155728 1 8.3149030533381136 1 8.8692299235606544 1 9.4235567937831952 1 9.977883664005736 1 10.532210534228277 1 11.086537404450818 1 11.640864274673358 1 12.195191144895899 4
7 0 0  3 25 23  5.2359877559829879 1.4924748227007165  5.2208364944311869 1.3781188596913072  5.1903484668814235 1.1628926482347042  5.1441016798516683 0.87815351733412506  5.0973807554167632 0.6290098785102306  5.0502303595436144 0.41347411637399339  5.0026975835976124 0.22984008670505726  4.9548320952045222 0.076699774092278974  4.906685761408089 -0.047098526269820286  4.8583123668855439 -0.14246868547612396  4.8097672652629715 -0.21010490446697694  4.7611070130810793 -0.25049422633942164  4.7123889803846915 -0.26392543683603698  4.6636709476882983 -0.25049422633942142  4.6150106955064079 -0.21010490446697822  4.5664655938838346 -0.14246868547611877  4.5180921993612913 -0.047098526269819641  4.4699458655648563 0.076699774092281139  4.4220803771717669 0.22984008670505768  4.3745476012257631 0.41347411637398995  4.3273972053526153 0.62900987851023316  4.280676280917711 0.87815351733411784  4.2344294938879559 1.1628926482347108  4.2039414663381915 1.3781188596913108  4.1887902047863914 1.4924748227007132 
 0 4 0.5543268702225409 1 1.1086537404450818 1 1.6629806106676228 1 2.2173074808901636 1 2.7716343511127044 1 3.3259612213352456 1 3.8802880915577864 1 4.4346149617803272 1 4.988941832002868 1 5.5432687022254088 1 6.0975955724479496 1 6.6519224426704913 1 7.2062493128930321 1 7.7605761831155728 1 8.3149030533381136 1 8.8692299235606544 1 9.4235567937831952 1 9.977883664005736 1 10.532210534228277 1 11.086537404450818 1 11.640864274673358 1 12.195191144895899 4
7 0 0  3 25 23  4.1887902047863923 1.4924748227007099  4.1736389432345922 1.3781188596913028  4.1431509156848287 1.1628926482346988  4.0969041286550727 0.87815351733411184  4.0501832042201666 0.62900987851021128  4.0030328083470197 0.41347411637397768  3.9555000324010168 0.22984008670503325  3.9076345440079256 0.076699774092255452  3.859488210211492 -0.047098526269847417  3.8111148156889478 -0.14246868547615646  3.762569714066375 -0.21010490446700361  3.7139094618844828 -0.25049422633945578  3.6651914291880936 -0.2639254368360674  3.6164733964917017 -0.25049422633945923  3.56781314430981 -0.21010490446700961  3.5192680426872367 -0.14246868547615843  3.4708946481646925 -0.047098526269852573  3.4227483143682589 0.076699774092239076  3.3748828259751682 0.22984008670502545  3.3273500500291653 0.41347411637394738  3.2801996541560174 0.62900987851019186  3.2334787297211123 0.87815351733408287  3.1872319426913562 1.162892648234668  3.1567439151415932 1.3781188596912703  3.1415926535897927 1.4924748227006772 
 0 4 0.5543268702225409 1 1.1086537404450818 1 1.6629806106676228 1 2.2173074808901636 1 2.7716343511127044 1 3.3259612213352456 1 3.8802880915577864 1 4.4346149617803272 1 4.988941832002868 1 5.5432687022254088 1 6.0975955724479496 1 6.6519224426704913 1 7.2062493128930321 1 7.7605761831155728 1 8.3149030533381136 1 8.8692299235606544 1 9.4235567937831952 1 9.977883664005736 1 10.532210534228277 1 11.086537404450818 1 11.640864274673358 1 12.195191144895899 4
1 0 -1.4924748227006304 1 0 
1 0 -1.4924748227006275 1 0 
7 0 0  3 25 23  3.1415926535897936 1.492474822700673  3.126441392037993 1.3781188596912644  3.09595336448823 1.1628926482346629  3.049706577458474 0.87815351733408542  3.0029856530235697 0.62900987851018775  2.9558352571504205 0.41347411637394937  2.9083024812044185 0.22984008670502085  2.8604369928113265 0.0766997740922407  2.8122906590148946 -0.047098526269859303  2.7639172644923491 -0.14246868547616065  2.7153721628697762 -0.21010490446701424  2.6667119106878849 -0.25049422633946133  2.6179938779914944 -0.26392543683607261  2.569275845295103 -0.25049422633945612  2.5206155931132117 -0.21010490446701183  2.472070491490638 -0.14246868547615577  2.4236970969680938 -0.04709852626984945  2.375550763171661 0.076699774092255701  2.327685274778569 0.22984008670503375  2.2801524988325679 0.41347411637396797  2.2330021029594187 0.62900987851020718  2.1862811785245135 0.87815351733410763  2.1400343914947579 1.1628926482346926  2.1095463639449945 1.378118859691297  2.0943951023931939 1.4924748227007059 
 0 4 0.5543268702225409 1 1.1086537404450818 1 1.6629806106676228 1 2.2173074808901636 1 2.7716343511127044 1 3.3259612213352456 1 3.8802880915577864 1 4.4346149617803272 1 4.988941832002868 1 5.5432687022254088 1 6.0975955724479496 1 6.6519224426704913 1 7.2062493128930321 1 7.7605761831155728 1 8.3149030533381136 1 8.8692299235606544 1 9.4235567937831952 1 9.977883664005736 1 10.532210534228277 1 11.086537404450818 1 11.640864274673358 1 12.195191144895899 4
7 0 0  3 25 23  2.0943951023931944 1.4924748227007092  2.0792438408413938 1.3781188596913037  2.0487558132916313 1.1628926482347037  2.0025090262618748 0.87815351733412172  1.9557881018269698 0.62900987851022927  1.9086377059538222 0.41347411637399367  1.8611049300078195 0.22984008670505909  1.8132394416147291 0.076699774092280584  1.7650931078182952 -0.047098526269819904  1.7167197132957519 -0.14246868547612099  1.6681746116731786 -0.21010490446697505  1.6195143594912877 -0.25049422633942053  1.5707963267948974 -0.26392543683603786  1.5220782940985063 -0.2504942263394182  1.4734180419166147 -0.21010490446698055  1.4248729402940419 -0.14246868547612093  1.3764995457714979 -0.047098526269822465  1.328353211975065 0.076699774092280903  1.2804877235819738 0.22984008670505421  1.2329549476359718 0.4134741163739894  1.1858045517628235 0.62900987851022916  1.1390836273279181 0.87815351733411662  1.0928368402981627 1.1628926482347037  1.0623488127483993 1.3781188596913052  1.0471975511965987 1.492474822700711 
 0 4 0.5543268702225409 1 1.1086537404450818 1 1.6629806106676228 1 2.2173074808901636 1 2.7716343511127044 1 3.3259612213352456 1 3.8802880915577864 1 4.4346149617803272 1 4.988941832002868 1 5.5432687022254088 1 6.0975955724479496 1 6.6519224426704913 1 7.2062493128930321 1 7.7605761831155728 1 8.3149030533381136 1 8.8692299235606544 1 9.4235567937831952 1 9.977883664005736 1 10.532210534228277 1 11.086537404450818 1 11.640864274673358 1 12.195191144895899 4
7 0 0  3 25 23  1.0471975511965994 1.4924748227007059  1.0320462896447993 1.3781188596912965  1.0015582620950361 1.1628926482346926  0.95531147506527925 0.87815351733411062  0.90859055063037453 0.6290098785102054  0.86144015475722624 0.41347411637397197  0.81390737881122366 0.22984008670503134  0.76604189041813253 0.076699774092255257  0.71789555662169924 -0.047098526269848971  0.66952216209915494 -0.14246868547615726  0.62097706047658174 -0.21010490446700855  0.57231680829469012 -0.25049422633945778  0.52359877559829948 -0.26392543683607289  0.47488074290190829 -0.25049422633945839  0.42622049072001666 -0.21010490446701213  0.3776753890974438 -0.14246868547616207  0.32930199457489978 -0.047098526269853599  0.28115566077846599 0.076699774092239104  0.23329017238537517 0.22984008670502534  0.18575739643937278 0.41347411637394932  0.13860700056622463 0.62900987851019141  0.091886076131319619 0.87815351733407943  0.045639289101563396 1.1628926482346633  0.015151261551800363 1.3781188596912657  0 1.492474822700673 
 0 4 0.5543268702225409 1 1.1086537404450818 1 1.6629806106676228 1 2.2173074808901636 1 2.7716343511127044 1 3.3259612213352456 1 3.8802880915577864 1 4.4346149617803272 1 4.988941832002868 1 5.5432687022254088 1 6.0975955724479496 1 6.6519224426704913 1 7.2062493128930321 1 7.7605761831155728 1 8.3149030533381136 1 8.8692299235606544 1 9.4235567937831952 1 9.977883664005736 1 10.532210534228277 1 11.086537404450818 1 11.640864274673358 1 12.195191144895899 4
1 0 -0.66976270430513241 1 0 
1 0 5.2028125000000003 1 0 
1 0 0.66976270430513363 1 0 
1 0 -5.2028125000000003 1 0 
1 6.2831853071795862 -0.66976270430513296 -1 0 
1 0 0.66976270430513296 1 0 
Curves 40
2 0 5.7996591538056704e-17 0.94718749999999996 -0 6.12303176911189e-17 1 1 0 0 0 1 -6.12303176911189e-17 5.0528124999999999
1 -5.52640625 7.0576551652439802e-16 0.47359374999999998 -0.70710678118654702 4.3296372853596802e-17 -0.70710678118654802 
2 0 0 0 0 0 -1 1 0 0 0 -1 0 6
1 5.52640625 -6.4776892498634104e-16 0.47359374999999998 -0.70710678118654702 1.2988911856079e-16 0.70710678118654802 
2 0 6.9513631606270496e-16 11.352812500000001 -0 6.12303176911189e-17 1 1 0 0 0 1 -6.12303176911189e-17 5.0528124999999999
1 -5.0528124999999999 9.9533708301769396e-16 6.1500000000000004 -0 -6.12303176911189e-17 -1 
1 5.0528124999999999 -2.4220417541693198e-16 6.1500000000000004 -0 6.12303176911189e-17 1 
2 0 7.5313290760076203e-16 12.300000000000001 0 0 1 1 0 -0 -0 1 0 6
1 -5.52640625 1.4009018325870999e-15 11.82640625 0.70710678118654702 -1.2988911856079e-16 -0.70710678118654802 
1 5.52640625 4.7367391076364098e-17 11.82640625 0.70710678118654702 -4.3296372853596802e-17 0.70710678118654802 
1 10.7405514410445 -5.9639516020701305e-16 11.740909090909099 -0.92718385456678754 1.3648080467044495e-16 0.37460659341591185 
7 1 0  2 3 2  12.12435 8.7575476762238005e-16 11.181818181818199  1 9.0932624999999891 5.2499975521869402 12.4064570246193  1.1547005383792499 6.0621749999999999 10.4999951043739 11.181818181818199  1
 0 3 12.195191144895899 3
7 1 0  2 3 2  6.0621749999999999 10.4999951043739 11.181818181818199  1 0 10.4999951043739 12.4064570246193  1.1547005383792499 -6.0621749999999999 10.4999951043739 11.181818181818199  1
 0 3 12.195191144895899 3
7 1 0  2 3 2  -6.0621749999999999 10.4999951043739 11.181818181818199  1 -9.0932624999999891 5.2499975521869402 12.4064570246193  1.1547005383792499 -12.12435 3.8835852543531298e-15 11.181818181818199  1
 0 3 12.195191144895899 3
1 -10.7405514410445 2.0341943474448299e-15 11.740909090909099 -0.92718385456678754 9.0606243222357065e-17 -0.37460659341591185 
2 0 7.5313290760076203e-16 12.300000000000001 0 0 -1 1 0 0 0 -1 0 9.3567528820890509
1 10.7405514410445 -1.2810614398440701e-15 0.55909090909090897 0.92718385456678742 -9.060624322235704e-17 0.37460659341591218 
2 0 0 0 0 0 1 1 0 -0 -0 1 0 9.3567528820890509
1 -10.7405514410445 1.34952806780777e-15 0.55909090909090897 0.92718385456678742 -1.3648080467044505e-16 -0.37460659341591218 
7 1 0  2 3 2  -12.12435 -1.9753975857738601e-15 1.1181818181818199  1 -9.0932624999999998 5.2499975521869304 -0.10645702461930499  1.1547005383792499 -6.0621749999999901 10.4999951043739 1.1181818181818199  1
 0 3 12.195191144895899 3
7 1 0  2 3 2  -6.0621750000000096 10.4999951043739 1.1181818181818199  1 0 10.4999951043739 -0.10645702461930601  1.1547005383792499 6.0621750000000096 10.4999951043739 1.1181818181818199  1
 0 3 12.195191144895899 3
7 1 0  2 3 2  6.0621749999999901 10.4999951043739 1.1181818181818199  1 9.0932624999999998 5.2499975521869304 -0.10645702461930601  1.1547005383792499 12.12435 -1.30041093704533e-14 1.1181818181818199  1
 0 3 12.195191144896 3
7 1 0  2 3 2  12.12435 -9.7278742353027191e-16 1.1181818181818199  1 9.0932624999999998 -5.2499975521869402 -0.106457024619302  1.1547005383792499 6.0621749999999999 -10.4999951043739 1.1181818181818199  1
 0 3 12.195191144895899 3
7 1 0  2 3 2  6.0621750000000096 -10.4999951043739 1.1181818181818199  1 -3.8849637257931697e-15 -10.4999951043739 -0.10645702461930499  1.1547005383792499 -6.0621750000000096 -10.4999951043739 1.1181818181818199  1
 0 3 12.195191144895899 3
7 1 0  2 3 2  -6.0621749999999999 -10.4999951043739 1.1181818181818199  1 -9.0932624999999998 -5.2499975521869304 -0.106457024619302  1.1547005383792499 -12.12435 6.04548371217482e-15 1.1181818181818199  1
 0 3 12.195191144895899 3
2 0 0 0 0 0 1 1 0 -0 -0 1 0 9.3567528820890509
2 0 7.5313290760076203e-16 12.300000000000001 0 0 -1 1 0 0 0 -1 0 9.3567528820890509
7 1 0  2 3 2  -12.12435 6.8914157410838896e-15 11.181818181818199  1 -9.0932624999999998 -5.2499975521869198 12.4064570246193  1.1547005383792499 -6.0621749999999999 -10.4999951043739 11.181818181818199  1
 0 3 12.195191144895899 3
7 1 0  2 3 2  -6.0621750000000096 -10.4999951043739 11.181818181818199  1 -5.9935706121861e-15 -10.4999951043739 12.4064570246193  1.1547005383792499 6.0621750000000096 -10.4999951043739 11.181818181818199  1
 0 3 12.195191144895899 3
7 1 0  2 3 2  6.0621749999999999 -10.4999951043739 11.181818181818199  1 9.0932624999999998 -5.2499975521869198 12.4064570246193  1.1547005383792499 12.12435 1.8783649298659598e-15 11.181818181818199  1
 0 3 12.195191144895899 3
2 0 6.9513631606270496e-16 11.352812500000001 -0 6.12303176911189e-17 1 1 0 0 0 1 -6.12303176911189e-17 5.0528124999999999
2 0 7.5313290760076203e-16 12.300000000000001 0 0 1 1 0 -0 -0 1 0 6
2 0 5.7996591538056704e-17 0.94718749999999996 -0 6.12303176911189e-17 1 1 0 0 0 1 -6.12303176911189e-17 5.0528124999999999
2 0 0 0 0 0 -1 1 0 0 0 -1 0 6
1 -6.0621749999999999 10.4999951043739 0 0 0 1 
1 -12.12435 1.4847556045966301e-15 0 0 0 1 
1 6.0621749999999999 10.4999951043739 0 0 0 1 
1 12.12435 0 0 0 0 1 
1 6.0621749999999999 -10.4999951043739 0 0 0 1 
1 -6.0621750000000096 -10.4999951043739 0 0 0 1 
Polygon3D 0
PolygonOnTriangulations 0
Surfaces 18
3 0 2.8998295769028303e-17 0.47359374999999998 0 -6.12303176911189e-17 -1 1 0 0 0 -1 6.12303176911189e-17 5.52640625
0.78539816339744795
2 0 3.7656645380038102e-16 6.1500000000000004 -0 6.12303176911189e-17 1 1 0 0 0 1 -6.12303176911189e-17 5.0528124999999999
3 0 2.8998295769028303e-17 0.47359374999999998 0 -6.12303176911189e-17 -1 1 0 0 0 -1 6.12303176911189e-17 5.52640625
0.78539816339744795
1 -4.5081783424173003e-16 -4.4408920985006301e-16 0 0 0 1 1 0 -0 -0 1 0 
3 0 7.2413461183173399e-16 11.82640625 -0 6.12303176911189e-17 1 1 0 0 0 1 -6.12303176911189e-17 5.52640625
0.78539816339744795
2 0 3.7656645380038102e-16 6.1500000000000004 -0 6.12303176911189e-17 1 1 0 0 0 1 -6.12303176911189e-17 5.0528124999999999
1 -4.5081783424173003e-16 -4.4408920985006301e-16 12.300000000000001 0 0 1 1 0 -0 -0 1 0 
3 0 7.2413461183173399e-16 11.82640625 -0 6.12303176911189e-17 1 1 0 0 0 1 -6.12303176911189e-17 5.52640625
0.78539816339744795
3 0 7.1889959361890905e-16 11.740909090909099 0 -6.12303176911189e-17 -1 1 0 0 0 -1 6.12303176911189e-17 10.7405514410445
1.18682389135614
3 0 7.1889959361890905e-16 11.740909090909099 0 -6.12303176911189e-17 -1 1 0 0 0 -1 6.12303176911189e-17 10.7405514410445
1.18682389135614
1 9.0932624999999998 5.2499975521869304 0 0.86602540378443882 0.49999999999999989 -0 -0.49999999999999989 0.86602540378443882 0 0 0 1 
1 1.7763568394002501e-15 10.4999951043739 0 0 1 -0 -1 0 0 0 0 1 
1 -9.0932624999999998 5.2499975521869304 0 -0.86602540378443849 0.50000000000000033 0 -0.50000000000000033 -0.86602540378443849 0 0 0 1 
3 0 3.4233313981852801e-17 0.55909090909090897 -0 6.12303176911189e-17 1 1 0 0 0 1 -6.12303176911189e-17 10.7405514410445
1.18682389135614
3 0 3.4233313981852801e-17 0.55909090909090897 -0 6.12303176911189e-17 1 1 0 0 0 1 -6.12303176911189e-17 10.7405514410445
1.18682389135614
1 9.0932624999999998 -5.2499975521869304 0 0.86602540378443882 -0.49999999999999989 0 0.49999999999999989 0.86602540378443882 0 -0 0 1 
1 -2.66453525910038e-15 -10.4999951043739 0 -1.46511511083089e-16 -1 0 1 -1.46511511083089e-16 0 0 0 1 
1 -9.0932624999999998 -5.2499975521869304 0 -0.86602540378443882 -0.49999999999999989 0 0.49999999999999989 -0.86602540378443882 0 0 0 1 
Triangulations 0

TShapes 104
Ve
1e-07
-5.0528125 6.7676722075537e-16 0.9471875
0 0

0101101
*
Ve
1e-07
5.0528125 5.79965915380567e-17 0.9471875
0 0

0101101
*
Ed
 1e-07 1 1 0
1  1 0 3.14159265358979 6.28318530717959
2  1 1 0 3.14159265358979 6.28318530717959
2  2 2 0 3.14159265358979 6.28318530717959
4 C0 1 0 2 0
0

0101000
+104 0 -103 0 *
Ve
1e-07
-6 7.34763812293426e-16 0
0 0

0101101
*
Ed
 1e-07 1 1 0
1  2 0 -0.669762704305133 0.669762704305133
2  3 1 0 -0.669762704305133 0.669762704305133
2  4 3 0 -0.669762704305133 0.669762704305133
4 CN 1 0 3 0
0

0101000
+104 0 -101 0 *
Ve
1e-07
6 0 0
0 0

0101101
*
Ed
 1e-07 1 1 0
1  3 0 0 3.14159265358979
2  5 1 0 0 3.14159265358979
4 C0 1 0 4 0
0

0101000
+99 0 -101 0 *
Ed
 1e-07 1 1 0
1  4 0 -0.669762704305133 0.669762704305133
2  6 1 0 -0.669762704305133 0.669762704305133
2  7 3 0 -0.669762704305133 0.669762704305133
4 CN 1 0 3 0
0

0101000
+99 0 -103 0 *
Wi

0101100
-102 0 +100 0 -98 0 +97 0 *
Fa
0  1e-07 1 0

0111000
+96 0 *
Ve
1e-07
-5.0528125 1.31390694528002e-15 11.3528125
0 0

0101101
*
Ve
1e-07
5.0528125 6.95136316062705e-16 11.3528125
0 0

0101101
*
Ed
 1e-07 1 1 0
1  5 0 3.14159265358979 6.28318530717959
2  8 2 0 3.14159265358979 6.28318530717959
2  9 5 0 3.14159265358979 6.28318530717959
4 C0 2 0 5 0
0

0101000
+94 0 -93 0 *
Ed
 1e-07 1 1 0
1  6 0 -5.2028125 5.2028125
2  10 2 0 -5.2028125 5.2028125
2  11 6 0 -5.2028125 5.2028125
4 CN 2 0 6 0
0

0101000
+94 0 -104 0 *
Ed
 1e-07 1 1 0
1  7 0 -5.2028125 5.2028125
2  12 2 0 -5.2028125 5.2028125
2  13 6 0 -5.2028125 5.2028125
4 CN 2 0 6 0
0

0101000
+103 0 -93 0 *
Wi

0101100
-92 0 +91 0 +102 0 +90 0 *
Fa
0  1e-07 2 0

0111000
+89 0 *
Ve
1e-07
-6 1.48789671989419e-15 12.3
0 0

0101101
*
Ve
1e-07
6 7.53132907600762e-16 12.3
0 0

0101101
*
Ed
 1e-07 1 1 0
1  8 0 3.14159265358979 6.28318530717959
2  14 5 0 3.14159265358979 6.28318530717959
4 C0 5 0 7 0
0

0101000
+87 0 -86 0 *
Ed
 1e-07 1 1 0
1  9 0 -0.669762704305134 0.669762704305132
2  15 5 0 -0.669762704305134 0.669762704305132
2  16 8 0 -0.669762704305134 0.669762704305132
4 CN 5 0 8 0
0

0101000
+87 0 -94 0 *
Ed
 1e-07 1 1 0
1  10 0 -0.669762704305132 0.669762704305134
2  17 5 0 -0.669762704305132 0.669762704305134
2  18 8 0 -0.669762704305132 0.669762704305134
4 CN 5 0 8 0
0

0101000
+93 0 -86 0 *
Wi

0101100
-85 0 +84 0 +92 0 +83 0 *
Fa
0  1e-07 5 0

0111000
+82 0 *
Ve
1e-07
12.12435 6.84666279637056e-16 11.1818181818182
0 0

0101101
*
Ve
1e-07
9.35675288208905 7.53132907600762e-16 12.3
0 0

0101101
*
Ed
 1e-07 1 1 0
1  11 0 -1.49247482270067 1.49247482270063
2  19 9 0 -1.49247482270067 1.49247482270063
2  20 10 0 -1.49247482270067 1.49247482270063
4 CN 9 0 10 0
0

0101000
+80 0 -79 0 *
Ve
1e-07
6.062175 10.4999951043739 11.1818181818182
0 0

0101101
*
Ed
 1e-07 1 1 0
1  12 0 0 12.1951911448959
2  21 9 0 0 12.1951911448959
4 C0 9 0 11 0
0

0101000
+80 0 -77 0 *
Ve
1e-07
-6.06217499999999 10.4999951043739 11.1818181818182
0 0

0101101
*
Ed
 1e-07 1 1 0
1  13 0 0 12.1951911448959
2  22 9 0 0 12.1951911448959
4 C0 9 0 12 0
0

0101000
+77 0 -75 0 *
Ve
1e-07
-12.12435 4.44089209850063e-15 11.1818181818182
0 0

0101101
*
Ed
 1e-07 1 1 0
1  14 0 0 12.1951911448959
2  23 9 0 0 12.1951911448959
4 C0 9 0 13 0
0

0101000
+75 0 -73 0 *
Ve
1e-07
-9.35675288208905 1.89896681065597e-15 12.3
0 0

0101101
*
Ed
 1e-07 1 1 0
1  15 0 -1.49247482270063 1.49247482270067
2  24 9 0 -1.49247482270063 1.49247482270067
2  25 10 0 -1.49247482270063 1.49247482270067
4 CN 9 0 10 0
0

0101000
+71 0 -73 0 *
Ed
 1e-07 1 1 0
1  16 0 3.14159265358979 6.28318530717959
2  26 9 0 3.14159265358979 6.28318530717959
4 C0 9 0 7 0
0

0101000
+71 0 -79 0 *
Wi

0101100
-78 0 +76 0 +74 0 +72 0 -70 0 +69 0 *
Fa
0  1e-07 9 0

0111000
+68 0 *
Ve
1e-07
9.35675288208905 0 0
0 0

0101101
*
Ve
1e-07
12.12435 6.84666279637056e-17 1.11818181818182
0 0

0101101
*
Ed
 1e-07 1 1 0
1  17 0 -1.49247482270063 1.49247482270068
2  27 14 0 -1.49247482270063 1.49247482270068
2  28 15 0 -1.49247482270063 1.49247482270068
4 CN 14 0 15 0
0

0101000
+66 0 -65 0 *
Ve
1e-07
-9.35675288208905 1.14583390305521e-15 0
0 0

0101101
*
Ed
 1e-07 1 1 0
1  18 0 0 3.14159265358979
2  29 14 0 0 3.14159265358979
4 C0 14 0 4 0
0

0101000
+66 0 -63 0 *
Ve
1e-07
-12.12435 3.5527136788005e-15 1.11818181818182
0 0

0101101
*
Ed
 1e-07 1 1 0
1  19 0 -1.49247482270068 1.49247482270063
2  30 14 0 -1.49247482270068 1.49247482270063
2  31 15 0 -1.49247482270068 1.49247482270063
4 CN 14 0 15 0
0

0101000
+61 0 -63 0 *
Ve
1e-07
-6.062175 10.4999951043739 1.11818181818182
0 0

0101101
*
Ed
 1e-07 1 1 0
1  20 0 0 12.1951911448959
2  32 14 0 0 12.1951911448959
4 C0 14 0 13 0
0

0101000
+61 0 -59 0 *
Ve
1e-07
6.062175 10.4999951043739 1.11818181818182
0 0

0101101
*
Ed
 1e-07 1 1 0
1  21 0 0 12.1951911448959
2  33 14 0 0 12.1951911448959
4 C0 14 0 12 0
0

0101000
+59 0 -57 0 *
Ed
 1e-07 1 1 0
1  22 0 0 12.195191144896
2  34 14 0 0 12.195191144896
4 C0 14 0 11 0
0

0101000
+57 0 -65 0 *
Wi

0101100
-64 0 +62 0 -60 0 +58 0 +56 0 +55 0 *
Fa
0  1e-07 14 0

0111000
+54 0 *
Ve
1e-07
6.062175 -10.4999951043739 1.11818181818182
0 0

0101101
*
Ed
 1e-07 1 1 0
1  23 0 0 12.1951911448959
2  35 15 0 0 12.1951911448959
4 C0 15 0 16 0
0

0101000
+65 0 -52 0 *
Ve
1e-07
-6.06217500000001 -10.4999951043739 1.11818181818182
0 0

0101101
*
Ed
 1e-07 1 1 0
1  24 0 0 12.1951911448959
2  36 15 0 0 12.1951911448959
4 C0 15 0 17 0
0

0101000
+52 0 -50 0 *
Ed
 1e-07 1 1 0
1  25 0 0 12.1951911448959
2  37 15 0 0 12.1951911448959
4 C0 15 0 18 0
0

0101000
+50 0 -61 0 *
Ed
 1e-07 1 1 0
1  26 0 3.14159265358979 6.28318530717959
2  38 15 0 3.14159265358979 6.28318530717959
4 C0 15 0 4 0
0

0101000
+63 0 -66 0 *
Wi

0101100
+64 0 +51 0 +49 0 +48 0 +60 0 +47 0 *
Fa
0  1e-07 15 0

0111000
+46 0 *
Ed
 1e-07 1 1 0
1  27 0 0 3.14159265358979
2  39 10 0 0 3.14159265358979
4 C0 10 0 7 0
0

0101000
+79 0 -71 0 *
Ve
1e-07
-6.06217500000001 -10.4999951043739 11.1818181818182
0 0

0101101
*
Ed
 1e-07 1 1 0
1  28 0 0 12.1951911448959
2  40 10 0 0 12.1951911448959
4 C0 10 0 18 0
0

0101000
+73 0 -43 0 *
Ve
1e-07
6.062175 -10.4999951043739 11.1818181818182
0 0

0101101
*
Ed
 1e-07 1 1 0
1  29 0 0 12.1951911448959
2  41 10 0 0 12.1951911448959
4 C0 10 0 17 0
0

0101000
+43 0 -41 0 *
Ed
 1e-07 1 1 0
1  30 0 0 12.1951911448959
2  42 10 0 0 12.1951911448959
4 C0 10 0 16 0
0

0101000
+41 0 -80 0 *
Wi

0101100
+78 0 +44 0 +70 0 +42 0 +40 0 +39 0 *
Fa
0  1e-07 10 0

0111000
+38 0 *
Ed
 1e-07 1 1 0
1  31 0 0 3.14159265358979
2  43 8 0 0 3.14159265358979
2  44 6 0 0 3.14159265358979
4 C0 8 0 6 0
0

0101000
+93 0 -94 0 *
Ed
 1e-07 1 1 0
1  32 0 0 3.14159265358979
2  45 8 0 0 3.14159265358979
4 C0 8 0 7 0
0

0101000
+86 0 -87 0 *
Wi

0101100
+36 0 -84 0 -35 0 -83 0 *
Fa
0  1e-07 8 0

0111000
+34 0 *
Ed
 1e-07 1 1 0
1  33 0 0 3.14159265358979
2  46 6 0 0 3.14159265358979
2  47 3 0 0 3.14159265358979
4 C0 6 0 3 0
0

0101000
+103 0 -104 0 *
Wi

0101100
+32 0 -91 0 -36 0 -90 0 *
Fa
0  1e-07 6 0

0111000
+31 0 *
Ed
 1e-07 1 1 0
1  34 0 3.14159265358979 6.28318530717959
2  48 3 0 3.14159265358979 6.28318530717959
4 C0 3 0 4 0
0

0101000
+101 0 -99 0 *
Wi

0101100
-29 0 -100 0 -32 0 -97 0 *
Fa
0  1e-07 3 0

0111000
+28 0 *
Ed
 1e-07 1 1 0
1  35 0 1.11818181818182 11.1818181818182
4 C0 13 0 12 0
0

0101000
+59 0 -75 0 *
Ed
 1e-07 1 1 0
1  36 0 1.11818181818182 11.1818181818182
4 C0 13 0 18 0
0

0101000
+61 0 -73 0 *
Wi

0101100
-72 0 -26 0 -58 0 +25 0 *
Fa
0  1e-07 13 0

0111000
+24 0 *
Ed
 1e-07 1 1 0
1  37 0 1.11818181818182 11.1818181818182
4 C0 12 0 11 0
0

0101000
+57 0 -77 0 *
Wi

0101100
-74 0 -22 0 -56 0 +26 0 *
Fa
0  1e-07 12 0

0111000
+21 0 *
Ed
 1e-07 1 1 0
1  38 0 1.11818181818182 11.1818181818182
4 C0 11 0 16 0
0

0101000
+65 0 -80 0 *
Wi

0101100
-76 0 -19 0 -55 0 +22 0 *
Fa
0  1e-07 11 0

0111000
+18 0 *
Ed
 1e-07 1 1 0
1  39 0 1.11818181818182 11.1818181818182
4 C0 16 0 17 0
0

0101000
+52 0 -41 0 *
Wi

0101100
-39 0 -16 0 -51 0 +19 0 *
Fa
0  1e-07 16 0

0111000
+15 0 *
Wi

0101100
-35 0 -85 0 *
Wi

0101100
-44 0 -69 0 *
Fa
0  1e-07 7 0

0111000
+13 0 +12 0 *
Wi

0101100
-98 0 -29 0 *
Wi

0101100
-62 0 -47 0 *
Fa
0  1e-07 4 0

0111000
-10 0 -9 0 *
Ed
 1e-07 1 1 0
1  40 0 1.11818181818182 11.1818181818182
4 C0 17 0 18 0
0

0101000
+50 0 -43 0 *
Wi

0101100
-40 0 -7 0 -49 0 +16 0 *
Fa
0  1e-07 17 0

0111000
+6 0 *
Wi

0101100
-42 0 -25 0 -48 0 +7 0 *
Fa
0  1e-07 18 0

0111000
+4 0 *
Sh

0101100
-95 0 -88 0 -81 0 +67 0 +53 0 +45 0 +37 0 -33 0 -30 0 -27 0 
+23 0 +20 0 +17 0 +14 0 +11 0 -8 0 +5 0 +3 0 *
So

0100000
+2 0 *

+1 0 