DBRep_DrawableShape

CASCADE Topology V1, (c) Matra-Datavision
Locations 0
Curve2ds 60
1 0 0 0 -1 
1 6.2831853071795862 0 0 -1 
1 6.2831853071795862 -12.2936 -1 0 
1 3.1415926535897931 0 0 -1 
1 3.1415926535897931 0 0 -1 
1 6.2831853071795862 0 -1 -0 
7 0 0  3 25 23  0.5235987755982987 3.4042645850019846  0.52988047546262762 3.3121092243001771  0.54259947956970944 3.1305161469866887  0.5621495207380468 2.8666539001187736  0.58217627705071795 2.6116904845062692  0.60268332471972241 2.3660077736782421  0.62367299798635889 2.1299940268563997  0.64514609571705728 1.9040444239138477  0.66710175868098842 1.6885601911403754  0.68953730508139155 1.4839481828228538  0.71244806286654505 1.2906193923442992  0.73582727466459352 1.1089906049174441  0.75966575355903732 0.93947385211485657  0.78395252351115619 0.78251081058456196  0.80867437058916958 0.63855541217283129  0.83381494395304701 0.50803287450617995  0.85935526889203973 0.39137403560791562  0.88527422155087343 0.28900347448321867  0.91154595275499206 0.2013436309100769  0.93816842903763853 0.12877599984041796  0.9650917304907245 0.07171791139040451  0.99226906145143512 0.030544836378299127  1.0196497753762339 0.0056042900253440242  1.0380040143819176 -3.1065727473365715e-06  1.0471975511965983 2.9602231090146579e-14 
 2.4754979820240702e-07 4 0.00044920925539919507 1 0.00089817096100018774 1 0.0013471326666011805 1 0.0017960943722021732 1 0.0022450560778031659 1 0.0026940177834041583 1 0.0031429794890051508 1 0.0035919411946061437 1 0.004040902900207137 1 0.0044898646058081299 1 0.0049388263114091219 1 0.0053877880170101148 1 0.0058367497226111077 1 0.0062857114282120997 1 0.0067346731338130926 1 0.0071836348394140855 1 0.0076325965450150784 1 0.0080815582506160704 1 0.0085305199562170624 1 0.0089794816618180562 1 0.0094284433674190482 1 0.0098774050730200402 4
7 0 0  3 25 23  1.0471975511965983 2.9602231090146579e-14  1.0563439322024519 -1.3213452879618135e-06  1.074593865946966 0.0055521435358130361  1.1018039151705508 0.030241694738700656  1.1288120905912817 0.07098757788660387  1.1555836651626974 0.12746595690117155  1.182085730795484 0.19934100384039682  1.2082875929280401 0.28626429919569385  1.2341608792598142 0.38787695239364978  1.2596796791411313 0.50381070486035984  1.2848206000554185 0.63369065013444814  1.3095628818590326 0.7771326027690838  1.3338881291011113 0.93376019742087435  1.3577812943959033 1.103148218363643  1.3812301531505227 1.2848495202446655  1.4042240162574458 1.4784624375847044  1.4267548332436986 1.6835759212158936  1.4488160747998589 1.8997784990437752  1.4704053652989293 2.1266837180894993  1.4915094102461937 2.3637831012689894  1.512116481844068 2.6105208620164668  1.5322182158773403 2.8663471000730611  1.5518081720930175 3.1307038636582027  1.5645246654693765 3.3122544808269203  1.5707963267948974 3.404264585002025 
 0.0098774050730200402 4 0.010324064027438002 1 0.010770722981855965 1 0.011217381936273925 1 0.011664040890691887 1 0.012110699845109849 1 0.012557358799527811 1 0.013004017753945774 1 0.013450676708363734 1 0.013897335662781698 1 0.014343994617199658 1 0.01479065357161762 1 0.015237312526035583 1 0.015683971480453543 1 0.016130630434871507 1 0.016577289389289467 1 0.017023948343707428 1 0.017470607298125392 1 0.017917266252543355 1 0.018363925206961312 1 0.018810584161379276 1 0.01925724311579724 1 0.019703902070215201 4
7 0 0  3 25 23  2.0943951023931948 2.9602231090146553e-14  2.085248721387341 -1.3213452890435174e-06  2.0669987876428273 0.0055521435358112641  2.039788738419241 0.030241694738699802  2.0127805629985125 0.070987577886600747  1.9860089884270951 0.12746595690116697  1.9595069227943089 0.19934100384038453  1.9333050606617523 0.28626429919569152  1.9074317743299791 0.38787695239364445  1.8819129744486616 0.50381070486035617  1.8567720535343746 0.63369065013445014  1.8320297717307612 0.77713260276909202  1.8077045244886816 0.93376019742089322  1.7838113591938907 1.1031482183636607  1.7603625004392711 1.2848495202446546  1.7373686373323476 1.4784624375846673  1.7148378203460961 1.683575921215837  1.6927765787899345 1.8997784990437225  1.6711872882908649 2.1266837180894815  1.6500832433435997 2.3637831012689832  1.6294761717457265 2.6105208620164779  1.6093744377124526 2.8663471000730723  1.5897844814967765 3.1307038636582107  1.5770679881204175 3.3122544808269239  1.5707963267948963 3.404264585002025 
 0.0098774050730200402 4 0.010324064027438002 1 0.010770722981855965 1 0.011217381936273925 1 0.011664040890691887 1 0.012110699845109849 1 0.012557358799527811 1 0.013004017753945774 1 0.013450676708363734 1 0.013897335662781698 1 0.014343994617199658 1 0.01479065357161762 1 0.015237312526035583 1 0.015683971480453543 1 0.016130630434871507 1 0.016577289389289467 1 0.017023948343707428 1 0.017470607298125392 1 0.017917266252543355 1 0.018363925206961312 1 0.018810584161379276 1 0.01925724311579724 1 0.019703902070215201 4
7 0 0  3 25 23  2.6179938779914931 3.4042645850019979  2.6117121781271639 3.3121092243001886  2.5989931740200825 3.1305161469866967  2.5794431328517455 2.8666539001187772  2.5594163765390752 2.6116904845062705  2.5389093288700706 2.3660077736782443  2.5179196556034342 2.1299940268564064  2.4964465578727362 1.904044423913845  2.4744908949088047 1.6885601911403783  2.4520553485084013 1.4839481828228651  2.4291445907232481 1.2906193923443123  2.4057653789251994 1.1089906049174598  2.3819269000307557 0.93947385211487833  2.3576401300786367 0.78251081058458793  2.3329182830006241 0.63855541217284828  2.3077777096367456 0.50803287450618406  2.2822373846977531 0.39137403560791656  2.25631843203892 0.28900347448322139  2.2300467008348006 0.20134363091008639  2.2034242245521538 0.12877599984043053  2.1765009230990691 0.071717911390408215  2.1493235921383569 0.030544836378305379  2.1219428782135603 0.0056042900253481876  2.1035886392078753 -3.1065727455331214e-06  2.0943951023931948 2.9602231090146553e-14 
 2.4754979821431e-07 4 0.0004492092553992064 1 0.00089817096100019847 1 0.0013471326666011905 1 0.0017960943722021825 1 0.002245056077803175 1 0.002694017783404167 1 0.003142979489005159 1 0.003591941194606151 1 0.0040409029002071431 1 0.0044898646058081351 1 0.0049388263114091271 1 0.0053877880170101191 1 0.0058367497226111112 1 0.0062857114282121032 1 0.0067346731338130952 1 0.0071836348394140872 1 0.0076325965450150792 1 0.0080815582506160721 1 0.0085305199562170642 1 0.0089794816618180562 1 0.0094284433674190482 1 0.0098774050730200402 4
7 0 0  3 25 23  1.5707963267948974 3.404264585002025  1.5770780266592266 3.3121092243002148  1.5897970307663085 3.130516146986718  1.6093470719346465 2.8666539001187967  1.6293738282473171 2.6116904845062936  1.6498808759163219 2.3660077736782625  1.6708705491829581 2.1299940268564339  1.6923436469136566 1.904044423913875  1.7142993098775878 1.68856019114041  1.736734856277991 1.483948182822892  1.7596456140631445 1.2906193923443454  1.7830248258611934 1.1089906049174725  1.8068633047556364 0.93947385211490642  1.8311500747077563 0.78251081058459504  1.8558719217857698 0.63855541217286438  1.8810124951496465 0.50803287450621004  1.9065528200886392 0.39137403560794792  1.9324717727474732 0.28900347448324565  1.9587435039515926 0.20134363091009089  1.9853659802342385 0.1287759998404181  2.0122892816873241 0.07171791139039034  2.0394666126480345 0.030544836378275344  2.066847326572832 0.0056042900253328838  2.0852015655785152 -3.1065727484894998e-06  2.0943951023931953 3.2293343007432627e-14 
 2.4754979821589798e-07 4 0.00044920925539921019 1 0.00089817096100020455 1 0.001347132666601199 1 0.0017960943722021931 1 0.0022450560778031871 1 0.0026940177834041817 1 0.0031429794890051759 1 0.0035919411946061701 1 0.0040409029002071647 1 0.0044898646058081585 1 0.0049388263114091531 1 0.0053877880170101478 1 0.0058367497226111415 1 0.0062857114282121361 1 0.0067346731338131299 1 0.0071836348394141245 1 0.0076325965450151191 1 0.0080815582506161138 1 0.0085305199562171075 1 0.0089794816618181013 1 0.0094284433674190968 1 0.0098774050730200905 4
7 0 0  3 25 23  2.0943951023931953 3.2293343007432627e-14  2.1035414833990491 -1.3213452912145079e-06  2.1217914171435641 0.0055521435358000656  2.1490014663671482 0.030241694738679558  2.1760096417878803 0.070987577886579278  2.2027812163592957 0.12746595690115181  2.2292832819920831 0.19934100384037115  2.2554851441246382 0.2862642991956717  2.2813584304564127 0.38787695239363995  2.3068772303377307 0.50381070486034507  2.3320181512520164 0.63369065013444881  2.3567604330556313 0.77713260276908702  2.3810856802977107 0.93376019742089034  2.404978845592503 1.1031482183636494  2.4284277043471225 1.2848495202446499  2.4514215674540449 1.4784624375846771  2.4739523844402962 1.6835759212158399  2.4960136259964574 1.8997784990437254  2.5176029164955285 2.1266837180894806  2.5387069614427924 2.3637831012689823  2.5593140330406663 2.6105208620164557  2.5794157670739386 2.8663471000730709  2.5990057232896144 3.130703863658193  2.6117222166659726 3.3122544808268977  2.6179938779914931 3.4042645850019984 
 0.0098774050730200905 4 0.010324064027438049 1 0.01077072298185601 1 0.01121738193627397 1 0.011664040890691929 1 0.012110699845109887 1 0.012557358799527848 1 0.013004017753945808 1 0.013450676708363767 1 0.013897335662781726 1 0.014343994617199686 1 0.014790653571617646 1 0.015237312526035605 1 0.015683971480453564 1 0.016130630434871524 1 0.016577289389289485 1 0.017023948343707442 1 0.017470607298125402 1 0.017917266252543362 1 0.018363925206961319 1 0.018810584161379283 1 0.01925724311579724 1 0.019703902070215201 4
7 0 0  3 25 23  1.0471975511965979 3.2293343007432601e-14  1.038051170190744 -1.3213452878858226e-06  1.0198012364462294 0.0055521435358041431  0.99259118722264428 0.030241694738675915  0.96558301180191286 0.070987577886575823  0.9388114372304972 0.12746595690114557  0.91230937159771042 0.19934100384036524  0.88610750946515415 0.28626429919565782  0.86023422313338027 0.38787695239363074  0.83471542325206294 0.50381070486033841  0.80957450233777606 0.6336906501344397  0.78483222053416202 0.77713260276908769  0.76050697329208161 0.93376019742089944  0.73661380799729048 1.1031482183636636  0.71316494924267071 1.284849520244675  0.69017108613574796 1.4784624375847004  0.66764026914949626 1.6835759212158656  0.64557902759333541 1.8997784990437494  0.62398973709426508 2.1266837180895006  0.60288569214700005 2.3637831012689916  0.58227862054912716 2.6105208620164637  0.56217688651585429 2.8663471000730794  0.5425869303001789 3.1307038636581948  0.52987043692382063 3.3122544808268959  0.52359877559830004 3.4042645850019952 
 0.0098774050730200905 4 0.010324064027438049 1 0.01077072298185601 1 0.01121738193627397 1 0.011664040890691929 1 0.012110699845109887 1 0.012557358799527848 1 0.013004017753945808 1 0.013450676708363767 1 0.013897335662781726 1 0.014343994617199686 1 0.014790653571617646 1 0.015237312526035605 1 0.015683971480453564 1 0.016130630434871524 1 0.016577289389289485 1 0.017023948343707442 1 0.017470607298125402 1 0.017917266252543362 1 0.018363925206961319 1 0.018810584161379283 1 0.01925724311579724 1 0.019703902070215201 4
7 0 0  3 25 23  1.5707963267948963 3.404264585002025  1.5645146269305674 3.3121092243002139  1.5517956228234853 3.1305161469867184  1.5322455816551472 2.8666539001187963  1.5122188253424769 2.6116904845062985  1.4917117776734714 2.3660077736782648  1.4707221044068355 2.1299940268564379  1.4492490066761372 1.9040444239138916  1.4272933437122055 1.6885601911404156  1.404857797311803 1.4839481828229217  1.3819470395266484 1.2906193923443601  1.3585678277286002 1.1089906049175027  1.3347293488341563 0.93947385211492962  1.3104425788820371 0.78251081058462357  1.2857207318040238 0.63855541217288325  1.2605801584401466 0.50803287450622758  1.2350398335011543 0.3913740356079507  1.2091208808423206 0.28900347448324448  1.1828491496382016 0.20134363091009624  1.1562266733555551 0.12877599984042745  1.1293033719024697 0.071717911390389924  1.1021260409417584 0.030544836378281516  1.074745327016962 0.0056042900253293207  1.0563910880112783 -3.1065727518486381e-06  1.0471975511965979 3.2293343007432601e-14 
 2.47549798211161e-07 4 0.00044920925539920575 1 0.00089817096100020032 1 0.0013471326666011948 1 0.0017960943722021895 1 0.0022450560778031836 1 0.0026940177834041783 1 0.0031429794890051729 1 0.0035919411946061675 1 0.0040409029002071621 1 0.0044898646058081568 1 0.0049388263114091514 1 0.005387788017010146 1 0.0058367497226111406 1 0.0062857114282121353 1 0.0067346731338131299 1 0.0071836348394141245 1 0.0076325965450151191 1 0.008081558250616112 1 0.0085305199562171075 1 0.0089794816618181013 1 0.0094284433674190968 1 0.0098774050730200905 4
7 0 0  3 25 23  3.6651914291880927 3.4042645850019926  3.6589744602150329 3.3130600264134227  3.6463686561432076 3.1330279636688081  3.6269311971503235 2.8705162628153524  3.6069518249035699 2.6159427067146916  3.5864173995466384 2.3697212215241188  3.5653197491153557 2.1323188022755075  3.5436370691487338 1.9040776931570831  3.5214716251785814 1.6866026603798763  3.4988262307426954 1.4802683598924731  3.4757170433958291 1.2855821849138025  3.4521592874181928 1.1030049422642194  3.4281747799068936 0.93300725601380163  3.4037765325447165 0.77601272063241622  3.3789726117966259 0.63236148266177106  3.3537850142829351 0.50242246645815181  3.3282352166636668 0.38654967903104748  3.3023480241226051 0.28509201069938983  3.2761504682228022 0.19838869047306865  3.2496719859015215 0.12676854407446789  3.2229441904817513 0.070548452916924922  3.1960007540843223 0.030031433211864907  3.1688770144770344 0.0055074276037135163  3.1506992339321398 -1.3975994728153319e-06  3.1415926535897931 0 
 0.013472104784206001 4 0.013921630798160728 1 0.014371156812115456 1 0.014820682826070183 1 0.015270208840024909 1 0.015719734853979636 1 0.016169260867934365 1 0.016618786881889093 1 0.017068312895843818 1 0.017517838909798546 1 0.017967364923753275 1 0.018416890937708 1 0.018866416951662728 1 0.019315942965617453 1 0.019765468979572182 1 0.020214994993526907 1 0.020664521007481635 1 0.021114047021436363 1 0.021563573035391088 1 0.022013099049345817 1 0.022462625063300545 1 0.02291215107725527 1 0.023361677091209999 4
7 0 0  3 25 23  5.7595865315812862 3.4042645850019926  5.7658035005543473 3.3130600264134276  5.7784093046261713 3.133027963668821  5.7978467636190532 2.8705162628153711  5.8178261358658077 2.6159427067147099  5.8383605612227401 2.369721221524137  5.8594582116540224 2.1323188022755222  5.8811408916206442 1.9040776931570818  5.9033063355907984 1.6866026603798754  5.9259517300266822 1.4802683598924784  5.9490609173735507 1.2855821849138129  5.9726186733511843 1.1030049422642363  5.9966031808624853 0.93300725601381729  6.0210014282246602 0.7760127206324261  6.0458053489727526 0.63236148266178394  6.0709929464864425 0.50242246645815514  6.0965427441057098 0.38654967903105197  6.1224299366467738 0.28509201069939288  6.1486274925465763 0.19838869047307181  6.175105974867857 0.1267685440744647  6.2018337702876281 0.070548452916929183  6.2287772066850557 0.030031433211862302  6.2559009462923436 0.0055074276037129916  6.2740787268372387 -1.3975994727801969e-06  6.2831853071795853 0 
 0.013472104784206001 4 0.013921630798160728 1 0.014371156812115456 1 0.014820682826070183 1 0.015270208840024909 1 0.015719734853979636 1 0.016169260867934365 1 0.016618786881889093 1 0.017068312895843818 1 0.017517838909798546 1 0.017967364923753275 1 0.018416890937708 1 0.018866416951662728 1 0.019315942965617453 1 0.019765468979572182 1 0.020214994993526907 1 0.020664521007481635 1 0.021114047021436363 1 0.021563573035391088 1 0.022013099049345817 1 0.022462625063300545 1 0.02291215107725527 1 0.023361677091209999 4
7 0 0  3 47 45  0 0  0.0045384780127940821 -1.0293191368235286e-06  0.013629466703931484 0.0013683115424672867  0.027286901312470069 0.0075294416341561412  0.04094421056251131 0.017795499699748245  0.054580074293025735 0.0321471838514652  0.068174364321778369 0.050554569241434866  0.081703139956500151 0.072973405717536008  0.095169538260907433 0.099355963088645069  0.10856949258649122 0.12965995229806151  0.12189893904608411 0.16384092859222213  0.13515399135996309 0.20185414226206896  0.1483309061801332 0.24365382451312559  0.16142607773104603 0.28919448675769344  0.17443610967605974 0.33842729780093295  0.18735778161109801 0.39130204299102589  0.20018802906799568 0.44776829749605979  0.21292395117556395 0.50777517512196024  0.22556281014981758 0.57127145730893003  0.23810203214383865 0.63820562355312438  0.25053920729292067 0.70852589251883225  0.26287208822896846 0.78218031449477621  0.27509859229517558 0.85911664235321317  0.28721678743858814 0.93928303084201892  0.2992249368254431 1.0226256369304059  0.31112146368877575 1.1090903404763577  0.32290490732112986 1.1986249619764238  0.33457396673780326 1.2911768604272753  0.346127484006721 1.386693617207754  0.35756444633463358 1.4851229258009353  0.3688839718179438 1.5864125619567775  0.38008534033534996 1.6905108158361759  0.39116785896044132 1.7973649852054534  0.40213134309357706 1.9069271517619235  0.41297429931944735 2.0191327531584204  0.4237006849392071 2.1339806783911404  0.43430751910119003 2.2513931842420494  0.44478689666890037 2.3712260999977515  0.45513258063755191 2.493347005992919  0.4653388151064905 2.6176216122435756  0.47539846528579782 2.7438912025737539  0.48531736057621255 2.8721440090465546  0.49509720795718254 3.0023289593321043  0.50473981692468084 3.1343952926710279  0.51424702302887226 3.2682934690779533  0.52049615137145744 3.3587480774854055  0.52359877559830004 3.4042645850019952 
 0.023361677091209999 4 0.023585711652591032 1 0.023809746213972062 1 0.024033780775353095 1 0.024257815336734125 1 0.024481849898115159 1 0.024705884459496188 1 0.024929919020877222 1 0.025153953582258255 1 0.025377988143639285 1 0.025602022705020318 1 0.025826057266401348 1 0.026050091827782382 1 0.026274126389163412 1 0.026498160950544445 1 0.026722195511925478 1 0.026946230073306508 1 0.027170264634687542 1 0.027394299196068572 1 0.027618333757449605 1 0.027842368318830635 1 0.028066402880211668 1 0.028290437441592702 1 0.028514472002973731 1 0.028738506564354765 1 0.028962541125735795 1 0.029186575687116828 1 0.029410610248497858 1 0.029634644809878891 1 0.029858679371259925 1 0.030082713932640955 1 0.030306748494021988 1 0.030530783055403018 1 0.030754817616784051 1 0.030978852178165081 1 0.031202886739546114 1 0.031426921300927148 1 0.031650955862308178 1 0.031874990423689208 1 0.032099024985070237 1 0.032323059546451274 1 0.032547094107832304 1 0.032771128669213334 1 0.032995163230594371 1 0.033219197791975401 4
7 0 0  3 47 45  3.1415926535897931 0  3.1370541755769992 -1.0293191369735615e-06  3.1279631868858626 0.0013683115424707455  3.1143057522773221 0.0075294416341699175  3.1006484430272829 0.017795499699763215  3.0870125792967671 0.0321471838514834  3.0734182892680151 0.050554569241453122  3.0598895136332942 0.072973405717545597  3.0464231153288863 0.099355963088650537  3.0330231610033023 0.12965995229805036  3.0196937145437093 0.16384092859219823  3.0064386622298302 0.20185414226204235  2.9932617474096603 0.24365382451308859  2.9801665758587466 0.28919448675766396  2.9671565439137342 0.33842729780089587  2.9542348719786955 0.39130204299099347  2.9414046245217973 0.44776829749602659  2.9286687024142295 0.50777517512192871  2.9160298434399756 0.57127145730889084  2.9034906214459544 0.63820562355309751  2.8910534462968722 0.70852589251879861  2.8787205653608243 0.78218031449474812  2.8664940612946173 0.8591166423531853  2.8543758661512051 0.93928303084199727  2.84236771676435 1.0226256369303837  2.8304711899010169 1.1090903404763335  2.8186877462686635 1.1986249619764018  2.8070186868519897 1.2911768604272473  2.7954651695830726 1.386693617207732  2.784028207255159 1.4851229258009142  2.7727086817718498 1.5864125619567573  2.7615073132544432 1.6905108158361601  2.7504247946293519 1.797364985205441  2.7394613104962153 1.9069271517619188  2.7286183542703459 2.0191327531584284  2.7178919686505854 2.1339806783911532  2.7072851344886026 2.2513931842420569  2.6968057569208934 2.3712260999977612  2.6864600729522401 2.4933470059929226  2.6762538384833032 2.6176216122435672  2.666194188303995 2.7438912025737503  2.6562752930135805 2.8721440090465529  2.6464954456326106 3.0023289593321087  2.6368528366651125 3.1343952926710372  2.6273456305609213 3.2682934690779626  2.6210965022183355 3.3587480774854108  2.6179938779914931 3.4042645850019984 
 0.023361677091209999 4 0.023585711652591032 1 0.023809746213972062 1 0.024033780775353095 1 0.024257815336734125 1 0.024481849898115159 1 0.024705884459496188 1 0.024929919020877222 1 0.025153953582258255 1 0.025377988143639285 1 0.025602022705020318 1 0.025826057266401348 1 0.026050091827782382 1 0.026274126389163412 1 0.026498160950544445 1 0.026722195511925478 1 0.026946230073306508 1 0.027170264634687542 1 0.027394299196068572 1 0.027618333757449605 1 0.027842368318830635 1 0.028066402880211668 1 0.028290437441592702 1 0.028514472002973731 1 0.028738506564354765 1 0.028962541125735795 1 0.029186575687116828 1 0.029410610248497858 1 0.029634644809878891 1 0.029858679371259925 1 0.030082713932640955 1 0.030306748494021988 1 0.030530783055403018 1 0.030754817616784051 1 0.030978852178165081 1 0.031202886739546114 1 0.031426921300927148 1 0.031650955862308178 1 0.031874990423689208 1 0.032099024985070237 1 0.032323059546451274 1 0.032547094107832304 1 0.032771128669213334 1 0.032995163230594371 1 0.033219197791975401 4
7 0 0  3 25 23  3.6651914291880927 3.4042645850019926  3.6714731290524218 3.3121092243001842  3.6841921331595033 3.1305161469866958  3.7037421743278407 2.8666539001187865  3.7237689306405111 2.61169048450629  3.7442759783095156 2.3660077736782759  3.7652656515761529 2.1299940268564517  3.7867387493068514 1.9040444239139094  3.8086944122707806 1.6885601911404546  3.8311299586711867 1.4839481828229459  3.8540407164563399 1.2906193923444009  3.8774199282543882 1.1089906049175509  3.9012584071488328 0.93947385211498169  3.9255451771009509 0.78251081058466354  3.9502670241789648 0.63855541217291778  3.9754075975428407 0.50803287450622581  4.0009479224818332 0.39137403560794448  4.0268668751406658 0.28900347448321467  4.0531386063447847 0.20134363091008714  4.0797610826274315 0.12877599984042667  4.1066843840805172 0.071717911390408076  4.1338617150412267 0.030544836378301948  4.1612424289660259 0.0056042900253542817  4.17959666797171 -3.1065727408841337e-06  4.1887902047863914 2.9602231090146579e-14 
 2.4754979819352799e-07 4 0.00044920925539918558 1 0.00089817096100017766 1 0.0013471326666011699 1 0.0017960943722021619 1 0.0022450560778031542 1 0.0026940177834041462 1 0.0031429794890051382 1 0.0035919411946061302 1 0.0040409029002071222 1 0.0044898646058081143 1 0.0049388263114091063 1 0.0053877880170100983 1 0.0058367497226110903 1 0.0062857114282120824 1 0.0067346731338130744 1 0.0071836348394140664 1 0.0076325965450150584 1 0.0080815582506160513 1 0.0085305199562170433 1 0.0089794816618180354 1 0.0094284433674190274 1 0.0098774050730200194 4
7 0 0  3 25 23  4.1887902047863914 2.9602231090146579e-14  4.1979365857922444 -1.3213452888388135e-06  4.2161865195367589 0.0055521435358113908  4.2433965687603434 0.030241694738700899  4.2704047441810724 0.070987577886604619  4.2971763187524905 0.12746595690118206  4.3236783843852766 0.19934100384039974  4.3498802465178326 0.28626429919570168  4.3757535328496058 0.38787695239366582  4.4012723327309233 0.50381070486037371  4.4264132536452099 0.63369065013447279  4.4511555354488239 0.777132602769111  4.4754807826909033 0.93376019742093586  4.4993739479856956 1.1031482183636823  4.5228228067403133 1.2848495202447117  4.5458166698472384 1.4784624375847351  4.5683474868334901 1.6835759212159316  4.5904087283896535 1.8997784990438247  4.6119980188887197 2.1266837180895921  4.6331020638359872 2.3637831012690977  4.6537091354338607 2.6105208620165739  4.6738108694671343 2.8663471000731722  4.6934008256828106 3.1307038636582671  4.7061173190591719 3.3122544808269434  4.7123889803846923 3.404264585002025 
 0.0098774050730200194 4 0.010324064027437982 1 0.010770722981855945 1 0.011217381936273908 1 0.011664040890691871 1 0.012110699845109834 1 0.012557358799527796 1 0.01300401775394576 1 0.013450676708363722 1 0.013897335662781684 1 0.014343994617199648 1 0.01479065357161761 1 0.015237312526035572 1 0.015683971480453536 1 0.0161306304348715 1 0.01657728938928946 1 0.017023948343707424 1 0.017470607298125388 1 0.017917266252543348 1 0.018363925206961312 1 0.018810584161379276 1 0.01925724311579724 1 0.019703902070215201 4
7 0 0  3 25 23  5.2359877559829879 2.9602231090146553e-14  5.2268413749771341 -1.3213452876613697e-06  5.2085914412326222 0.0055521435358150944  5.1813813920090341 0.030241694738706901  5.1543732165883069 0.070987577886609671  5.1276016420168888 0.1274659569011804  5.1010995763841027 0.19934100384040562  5.0748977142515459 0.28626429919570212  5.0490244279197736 0.3878769523936636  5.0235056280384551 0.50381070486036983  4.9983647071241695 0.63369065013446146  4.9736224253205537 0.77713260276910479  4.949297178078476 0.93376019742091332  4.9254040127836838 1.1031482183636647  4.9019551540290633 1.2848495202446959  4.87896129092214 1.4784624375847162  4.8564304739358883 1.6835759212158983  4.8343692323797267 1.8997784990437763  4.8127799418806569 2.1266837180895162  4.7916758969333912 2.3637831012690218  4.7710688253355187 2.6105208620165161  4.7509670913022441 2.8663471000731313  4.7313771350865688 3.1307038636582529  4.7186606417102093 3.3122544808269403  4.712388980384687 3.404264585002025 
 0.0098774050730200194 4 0.010324064027437982 1 0.010770722981855945 1 0.011217381936273908 1 0.011664040890691871 1 0.012110699845109834 1 0.012557358799527796 1 0.01300401775394576 1 0.013450676708363722 1 0.013897335662781684 1 0.014343994617199648 1 0.01479065357161761 1 0.015237312526035572 1 0.015683971480453536 1 0.0161306304348715 1 0.01657728938928946 1 0.017023948343707424 1 0.017470607298125388 1 0.017917266252543348 1 0.018363925206961312 1 0.018810584161379276 1 0.01925724311579724 1 0.019703902070215201 4
7 0 0  3 25 23  5.7595865315812862 3.4042645850019926  5.7533048317169566 3.3121092243001842  5.7405858276098751 3.1305161469866967  5.7210357864415391 2.8666539001187887  5.7010090301288665 2.611690484506294  5.680501982459865 2.3660077736782803  5.6595123091932242 2.129994026856457  5.6380392114625293 1.9040444239139185  5.6160835484985956 1.6885601911404626  5.5936480020981953 1.4839481828229522  5.5707372443130367 1.2906193923444096  5.5473580325149898 1.1089906049175491  5.5235195536205453 0.9394738521149737  5.4992327836684263 0.78251081058465055  5.4745109365904154 0.63855541217290723  5.4493703632265369 0.50803287450622525  5.4238300382875453 0.39137403560795186  5.3979110856287136 0.28900347448323216  5.3716393544245946 0.20134363091010116  5.3450168781419478 0.12877599984044905  5.3180935766888622 0.071717911390419303  5.2909162457281509 0.030544836378320429  5.2635355318033543 0.0056042900253598128  5.2451812927976684 -3.1065727404353981e-06  5.2359877559829879 2.9602231090146553e-14 
 2.47549798193429e-07 4 0.00044920925539918553 1 0.00089817096100017755 1 0.0013471326666011697 1 0.0017960943722021617 1 0.0022450560778031542 1 0.0026940177834041462 1 0.0031429794890051382 1 0.0035919411946061302 1 0.0040409029002071222 1 0.0044898646058081143 1 0.0049388263114091063 1 0.0053877880170100983 1 0.0058367497226110903 1 0.0062857114282120824 1 0.0067346731338130744 1 0.0071836348394140664 1 0.0076325965450150584 1 0.0080815582506160513 1 0.0085305199562170433 1 0.0089794816618180354 1 0.0094284433674190274 1 0.0098774050730200194 4
7 0 0  3 25 23  4.7123889803846923 3.404264585002025  4.718670680249021 3.3121092243002153  4.7313896843561052 3.1305161469867184  4.7509397255244386 2.8666539001187878  4.7709664818371129 2.6116904845063065  4.791473529506117 2.3660077736782639  4.8124632027727516 2.1299940268564357  4.8339363005034519 1.9040444239138856  4.8558919634673812 1.6885601911404233  4.8783275098677867 1.4839481828229111  4.9012382676529391 1.2906193923443698  4.924617479450986 1.1089906049175229  4.9484559583454306 0.93947385211494694  4.9727427282975478 0.78251081058465333  4.997464575375564 0.63855541217291256  5.022605148739439 0.50803287450624124  5.0481454736784324 0.39137403560795986  5.0740644263372667 0.28900347448324343  5.1003361575413839 0.20134363091010404  5.1269586338240316 0.12877599984042776  5.1538819352771164 0.071717911390418651  5.1810592662378268 0.030544836378313834  5.2084399801626251 0.0056042900253607452  5.2267942191683066 -3.1065727362313711e-06  5.2359877559829879 3.4984454924718681e-14 
 2.4754979826754697e-07 4 0.00044920925539925952 1 0.00089817096100025149 1 0.0013471326666012434 1 0.0017960943722022354 1 0.002245056077803227 1 0.002694017783404219 1 0.0031429794890052111 1 0.0035919411946062031 1 0.0040409029002071951 1 0.0044898646058081871 1 0.0049388263114091792 1 0.0053877880170101712 1 0.0058367497226111632 1 0.0062857114282121552 1 0.0067346731338131472 1 0.0071836348394141393 1 0.0076325965450151313 1 0.0080815582506161224 1 0.0085305199562171145 1 0.0089794816618181065 1 0.0094284433674190985 1 0.0098774050730200905 4
7 0 0  3 25 23  5.2359877559829879 3.4984454924718681e-14  5.2451341369888418 -1.321345284486446e-06  5.2633840707333563 0.0055521435358162913  5.29059411995694 0.030241694738709555  5.3176022953776716 0.070987577886604522  5.3443738699490879 0.12746595690118223  5.370875935581874 0.19934100384039963  5.3970777977144309 0.28626429919570034  5.4229510840462032 0.38787695239366787  5.4484698839275243 0.50381070486037083  5.4736108048418091 0.63369065013447734  5.4983530866454231 0.77713260276911611  5.5226783338875034 0.9337601974209403  5.5465714991822965 1.1031482183637009  5.5700203579369134 1.2848495202447141  5.5930142210438394 1.4784624375847335  5.6155450380300893 1.6835759212158969  5.6376062795862492 1.8997784990437707  5.6591955700853216 2.1266837180895006  5.6802996150325846 2.3637831012689943  5.7009066866304599 2.6105208620164615  5.7210084206637317 2.8663471000730709  5.7405983768794089 3.1307038636581934  5.7533148702557657 3.3122544808268968  5.7595865315812862 3.4042645850019952 
 0.0098774050730200905 4 0.010324064027438049 1 0.01077072298185601 1 0.01121738193627397 1 0.011664040890691929 1 0.012110699845109887 1 0.012557358799527848 1 0.013004017753945808 1 0.013450676708363767 1 0.013897335662781726 1 0.014343994617199686 1 0.014790653571617646 1 0.015237312526035605 1 0.015683971480453564 1 0.016130630434871524 1 0.016577289389289485 1 0.017023948343707442 1 0.017470607298125402 1 0.017917266252543362 1 0.018363925206961319 1 0.018810584161379283 1 0.01925724311579724 1 0.019703902070215201 4
7 0 0  3 25 23  4.1887902047863914 3.2293343007432601e-14  4.1796438237805376 -1.3213452839488444e-06  4.1613938900360239 0.0055521435358198996  4.1341838408124376 0.030241694738711786  4.107175665391706 0.070987577886608685  4.0804040908202932 0.12746595690118295  4.0539020251875044 0.19934100384039821  4.0277001630549485 0.28626429919569646  4.0018268767231735 0.38787695239365788  3.9763080768418573 0.50381070486036239  3.951167155927569 0.63369065013445836  3.9264248741239545 0.77713260276909879  3.9020996268818746 0.93376019742091121  3.8782064615870833 1.103148218363678  3.8547576028324633 1.2848495202446879  3.8317637397255417 1.4784624375847089  3.8092329227392883 1.683575921215871  3.7871716811831275 1.8997784990437614  3.7655823906840582 2.126683718089502  3.7444783457367925 2.363783101269  3.7238712741389199 2.6105208620164695  3.7037695401056467 2.8663471000730834  3.6841795838899722 3.1307038636581983  3.6714630905136141 3.3122544808268986  3.6651914291880932 3.4042645850019979 
 0.0098774050730200905 4 0.010324064027438049 1 0.01077072298185601 1 0.01121738193627397 1 0.011664040890691929 1 0.012110699845109887 1 0.012557358799527848 1 0.013004017753945808 1 0.013450676708363767 1 0.013897335662781726 1 0.014343994617199686 1 0.014790653571617646 1 0.015237312526035605 1 0.015683971480453564 1 0.016130630434871524 1 0.016577289389289485 1 0.017023948343707442 1 0.017470607298125402 1 0.017917266252543362 1 0.018363925206961319 1 0.018810584161379283 1 0.01925724311579724 1 0.019703902070215201 4
7 0 0  3 25 23  4.712388980384687 3.404264585002025  4.7061072805203574 3.3121092243002153  4.6933882764132759 3.1305161469867189  4.6738382352449381 2.8666539001187918  4.6538114789322682 2.6116904845063043  4.6333044312632614 2.366007773678275  4.6123147579966268 2.1299940268564379  4.5908416602659274 1.9040444239138974  4.5688859973019973 1.688560191140432  4.5464504509015935 1.4839481828229146  4.5235396931164402 1.2906193923443721  4.5001604813183924 1.108990604917514  4.4763220024239478 0.93947385211494239  4.452035232471828 0.78251081058463023  4.4273133853938162 0.63855541217290013  4.4021728120299386 0.50803287450623413  4.3766324870909443 0.39137403560796691  4.3507135344321126 0.28900347448325853  4.3244418032279937 0.20134363091011595  4.2978193269453477 0.12877599984045895  4.270896025492263 0.071717911390432376  4.2437186945315526 0.030544836378326685  4.216337980606756 0.0056042900253728996  4.1979837416010728 -3.1065727314619852e-06  4.1887902047863914 3.2293343007432601e-14 
 2.4754979826754697e-07 4 0.00044920925539925952 1 0.00089817096100025149 1 0.0013471326666012434 1 0.0017960943722022354 1 0.002245056077803227 1 0.002694017783404219 1 0.0031429794890052111 1 0.0035919411946062031 1 0.0040409029002071951 1 0.0044898646058081871 1 0.0049388263114091792 1 0.0053877880170101712 1 0.0058367497226111632 1 0.0062857114282121552 1 0.0067346731338131472 1 0.0071836348394141393 1 0.0076325965450151313 1 0.0080815582506161224 1 0.0085305199562171145 1 0.0089794816618181065 1 0.0094284433674190985 1 0.0098774050730200905 4
7 0 0  3 25 23  5.7595865315812862 3.4042645850019952  5.7658035005543473 3.3130600264134267  5.7784093046261713 3.1330279636688139  5.7978467636190532 2.8705162628153595  5.8178261358658077 2.6159427067146894  5.8383605612227401 2.3697212215241197  5.8594582116540224 2.1323188022755075  5.8811408916206442 1.9040776931570831  5.9033063355907984 1.6866026603798763  5.9259517300266822 1.4802683598924731  5.9490609173735507 1.2855821849138025  5.9726186733511843 1.1030049422642192  5.9966031808624853 0.93300725601380197  6.0210014282246602 0.776012720632415  6.0458053489727508 0.63236148266177561  6.0709929464864443 0.50242246645815092  6.0965427441057098 0.38654967903104653  6.1224299366467747 0.28509201069939427  6.1486274925465745 0.19838869047306779  6.175105974867857 0.12676854407446689  6.2018337702876281 0.070548452916929502  6.2287772066850557 0.030031433211863714  6.2559009462923436 0.0055074276037137288  6.2740787268372387 -1.3975994725172182e-06  6.2831853071795853 0 
 0.013472104784206001 4 0.013921630798160728 1 0.014371156812115456 1 0.014820682826070183 1 0.015270208840024909 1 0.015719734853979636 1 0.016169260867934365 1 0.016618786881889093 1 0.017068312895843818 1 0.017517838909798546 1 0.017967364923753275 1 0.018416890937708 1 0.018866416951662728 1 0.019315942965617453 1 0.019765468979572182 1 0.020214994993526907 1 0.020664521007481635 1 0.021114047021436363 1 0.021563573035391088 1 0.022013099049345817 1 0.022462625063300545 1 0.02291215107725527 1 0.023361677091209999 4
7 0 0  3 47 45  0 0  0.0045384780127940179 -1.0293191369735615e-06  0.013629466703931307 0.0013683115424707459  0.027286901312469768 0.0075294416341699158  0.040944210562510956 0.017795499699763222  0.054580074293025277 0.032147183851483387  0.068174364321777939 0.05055456924145315  0.081703139956499526 0.072973405717545473  0.095169538260906905 0.099355963088650981  0.1085694925864906 0.12965995229804875  0.12189893904608345 0.16384092859220423  0.13515399135996239 0.20185414226203618  0.14833090618013242 0.24365382451309128  0.16142607773104523 0.28919448675765946  0.17443610967605874 0.3384272978008947  0.1873577816110972 0.39130204299098637  0.20018802906799479 0.44776829749602393  0.21292395117556309 0.50777517512193038  0.22556281014981669 0.57127145730888729  0.23810203214383779 0.63820562355309385  0.25053920729291995 0.7085258925188006  0.26287208822896763 0.78218031449474401  0.27509859229517475 0.85911664235318386  0.28721678743858731 0.93928303084198983  0.29922493682544227 1.0226256369303832  0.31112146368877458 1.109090340476327  0.32290490732112886 1.1986249619763965  0.33457396673780193 1.2911768604272424  0.34612748400672 1.3866936172077236  0.35756444633463214 1.485122925800906  0.3688839718179423 1.5864125619567508  0.38008534033534863 1.6905108158361479  0.39116785896043965 1.7973649852054305  0.40213134309357551 1.9069271517619095  0.4129742993194459 2.0191327531584125  0.42370068493920554 2.1339806783911435  0.43430751910118881 2.2513931842420472  0.44478689666889931 2.3712260999977461  0.45513258063755052 2.4933470059929133  0.46533881510648972 2.6176216122435561  0.47539846528579632 2.7438912025737414  0.4853173605762115 2.8721440090465258  0.49509720795718076 3.0023289593320679  0.50473981692467951 3.1343952926709973  0.51424702302887093 3.2682934690779271  0.52049615137145611 3.3587480774853891  0.5235987755982987 3.4042645850019846 
 0.023361677091209999 4 0.023585711652591032 1 0.023809746213972062 1 0.024033780775353095 1 0.024257815336734125 1 0.024481849898115159 1 0.024705884459496188 1 0.024929919020877222 1 0.025153953582258255 1 0.025377988143639285 1 0.025602022705020318 1 0.025826057266401348 1 0.026050091827782382 1 0.026274126389163412 1 0.026498160950544445 1 0.026722195511925478 1 0.026946230073306508 1 0.027170264634687542 1 0.027394299196068572 1 0.027618333757449605 1 0.027842368318830635 1 0.028066402880211668 1 0.028290437441592702 1 0.028514472002973731 1 0.028738506564354765 1 0.028962541125735795 1 0.029186575687116828 1 0.029410610248497858 1 0.029634644809878891 1 0.029858679371259925 1 0.030082713932640955 1 0.030306748494021988 1 0.030530783055403018 1 0.030754817616784051 1 0.030978852178165081 1 0.031202886739546114 1 0.031426921300927148 1 0.031650955862308178 1 0.031874990423689208 1 0.032099024985070237 1 0.032323059546451274 1 0.032547094107832304 1 0.032771128669213334 1 0.032995163230594371 1 0.033219197791975401 4
7 0 0  3 47 45  3.1415926535897931 0  3.1370541755769987 -1.0293191381682534e-06  3.1279631868858608 0.0013683115424667424  3.1143057522773203 0.0075294416341620037  3.1006484430272794 0.017795499699748113  3.087012579296764 0.03214718385147227  3.0734182892680106 0.050554569241440382  3.0598895136332898 0.072973405717543405  3.0464231153288828 0.099355963088646151  3.0330231610032987 0.12965995229806845  3.0196937145437071 0.16384092859222665  3.0064386622298276 0.20185414226207521  2.993261747409659 0.24365382451312456  2.9801665758587457 0.28919448675769993  2.9671565439137342 0.33842729780092834  2.9542348719786942 0.39130204299102234  2.9414046245217982 0.44776829749606106  2.9286687024142295 0.50777517512195547  2.9160298434399756 0.57127145730892648  2.9034906214459548 0.63820562355312072  2.8910534462968727 0.70852589251882736  2.8787205653608248 0.7821803144947761  2.8664940612946168 0.8591166423532115  2.854375866151206 0.93928303084201759  2.84236771676435 1.022625636930405  2.8304711899010169 1.1090903404763564  2.8186877462686635 1.1986249619764235  2.8070186868519897 1.29117686042727  2.7954651695830726 1.386693617207754  2.784028207255159 1.4851229258009351  2.7727086817718498 1.5864125619567755  2.7615073132544432 1.6905108158361806  2.7504247946293519 1.7973649852054523  2.7394613104962153 1.9069271517619237  2.7286183542703459 2.0191327531584204  2.7178919686505862 2.1339806783911395  2.7072851344886026 2.2513931842420529  2.6968057569208934 2.3712260999977528  2.6864600729522401 2.4933470059929279  2.6762538384833032 2.6176216122435783  2.666194188303995 2.743891202573765  2.6562752930135805 2.8721440090465604  2.6464954456326106 3.0023289593321101  2.6368528366651125 3.1343952926710297  2.6273456305609213 3.2682934690779528  2.6210965022183355 3.3587480774854064  2.6179938779914931 3.4042645850019979 
 0.023361677091209999 4 0.023585711652591032 1 0.023809746213972062 1 0.024033780775353095 1 0.024257815336734125 1 0.024481849898115159 1 0.024705884459496188 1 0.024929919020877222 1 0.025153953582258255 1 0.025377988143639285 1 0.025602022705020318 1 0.025826057266401348 1 0.026050091827782382 1 0.026274126389163412 1 0.026498160950544445 1 0.026722195511925478 1 0.026946230073306508 1 0.027170264634687542 1 0.027394299196068572 1 0.027618333757449605 1 0.027842368318830635 1 0.028066402880211668 1 0.028290437441592702 1 0.028514472002973731 1 0.028738506564354765 1 0.028962541125735795 1 0.029186575687116828 1 0.029410610248497858 1 0.029634644809878891 1 0.029858679371259925 1 0.030082713932640955 1 0.030306748494021988 1 0.030530783055403018 1 0.030754817616784051 1 0.030978852178165081 1 0.031202886739546114 1 0.031426921300927148 1 0.031650955862308178 1 0.031874990423689208 1 0.032099024985070237 1 0.032323059546451274 1 0.032547094107832304 1 0.032771128669213334 1 0.032995163230594371 1 0.033219197791975401 4
7 0 0  3 25 23  3.6651914291880932 3.4042645850019979  3.6589744602150329 3.3130600264134298  3.6463686561432085 3.1330279636688192  3.6269311971503244 2.8705162628153711  3.6069518249035708 2.6159427067147139  3.5864173995466384 2.3697212215241348  3.5653197491153557 2.1323188022755275  3.5436370691487347 1.9040776931570802  3.5214716251785818 1.6866026603798756  3.4988262307426963 1.4802683598924784  3.4757170433958282 1.2855821849138129  3.4521592874181932 1.1030049422642363  3.4281747799068936 0.93300725601381695  3.4037765325447165 0.77601272063242732  3.3789726117966259 0.63236148266177938  3.3537850142829351 0.50242246645815603  3.3282352166636668 0.38654967903105314  3.3023480241226051 0.28509201069938878  3.2761504682228022 0.19838869047307314  3.2496719859015215 0.12676854407446617  3.2229441904817513 0.070548452916925117  3.1960007540843223 0.030031433211863925  3.1688770144770344 0.0055074276037130575  3.1506992339321398 -1.3975994729707768e-06  3.1415926535897931 0 
 0.013472104784206001 4 0.013921630798160728 1 0.014371156812115456 1 0.014820682826070183 1 0.015270208840024909 1 0.015719734853979636 1 0.016169260867934365 1 0.016618786881889093 1 0.017068312895843818 1 0.017517838909798546 1 0.017967364923753275 1 0.018416890937708 1 0.018866416951662728 1 0.019315942965617453 1 0.019765468979572182 1 0.020214994993526907 1 0.020664521007481635 1 0.021114047021436363 1 0.021563573035391088 1 0.022013099049345817 1 0.022462625063300545 1 0.02291215107725527 1 0.023361677091209999 4
1 0 0 1 0 
1 0 0 1 0 
1 0 -1.3455559586430276e-14 1 2.5698225842975012e-15 
1 0 8.0733357518581535e-15 1 -2.5698225842974968e-15 
1 3.1415926535897931 0 -1 -2.5698225842974976e-15 
1 0 2.6911119172860559e-15 1 -2.5698225842975e-15 
1 6.2831853071795862 -12.2936 -1 0 
1 3.1415926535897931 0 1 -2.5698225842974949e-15 
1 -3.1415926535897949 0 1 0 
1 -3.1415926535897949 0 1 0 
1 0 0 1 0 
1 3.1415926535897913 0 1 0 
1 3.1415926535897944 -5.3822238345721023e-15 1 2.5698225842974992e-15 
1 6.2831853071795862 0 -1 0 
1 3.1415926535897931 32.143699999999896 0 1 
1 3.1415926535897931 32.143699999999896 0 1 
1 6.2831853071795862 29.362399999999898 -1 0 
1 6.2046454908398401 0 0 1 
1 6.2831853071795862 34.924999999999898 -1 0 
1 6.2831853071795862 29.362399999999898 -1 0 
1 6.2046454908398401 0 0 -1 
1 6.2831853071795862 34.924999999999898 -1 0 
1 3.1415926535897931 32.143699999999896 0 -1 
1 3.1415926535897931 32.143699999999896 0 -1 
1 6.2831853071795862 34.924999999999898 -1 0 
1 0.078539816339745799 0 0 -1 
1 6.2831853071795862 29.362399999999898 -1 0 
1 6.2831853071795862 34.924999999999898 -1 0 
1 0.078539816339745772 0 0 1 
1 6.2831853071795862 29.362399999999898 -1 0 
Curves 66
1 0 0 -11.112500000000001 1 0 0 
2 12.2936 0 0 1 0 0 0 0 -1 -0 1 0 11.112500000000001
1 0 1.3608887555525e-15 11.112500000000001 1 0 0 
2 0 0 0 1 0 0 0 0 -1 -0 1 0 11.112500000000001
1 0 9.6237072995545692 16.668749999999999 1 0 0 
7 0 0  3 8 4  10.071099999999999 9.6237072995545692 16.668749999999999  10.732912234017601 10.3915776163683 15.338759597654599  11.2881138360438 11.1719319927012 13.9871461699372  11.8742801717852 12.3713445354502 11.9097027066606  12.028270939368699 12.775996405791201 11.208825107852199  12.237991210344299 13.5968064985854 9.7871403237673906  12.2936 14.014143706736499 9.0642910753607993  12.2936 14.435560949331901 8.3343750000000103 
 2.4754979820240702e-07 4 0.0049388263114091202 2 0.0074081156922145902 2 0.0098774050730200402 4
7 0 0  3 8 4  12.2936 14.435560949331901 8.3343750000000103  12.2936 15.274072486521399 6.8820304148550999  12.0728287435663 16.0912254291785 5.4666800006186103  11.487484283475499 17.292363374842001 3.3862480518304201  11.2504745724549 17.688689553780499 2.6997909735394301  10.7074525082372 18.4746662262455 1.3384394432660101  10.4014815256467 18.8640880999484 0.66394097243390104  10.071099999999999 19.247414599109199 -1.5612511283791299e-14 
 0.0098774050730200402 4 0.0147906535716176 2 0.017247277820916399 2 0.019703902070215201 4
1 0 19.247414599109199 -1.7819758483047401e-15 1 0 0 
7 0 0  3 8 4  0 14.435560949331901 8.3343750000000103  -1.7763568394002501e-15 15.274072486521399 6.8820304148550999  0.22077125643366799 16.0912254291785 5.4666800006186103  0.80611571652455005 17.292363374842001 3.3862480518304299  1.0431254275450601 17.688689553780399 2.6997909735394301  1.58614749176283 18.4746662262455 1.33843944326602  1.8921184743533299 18.8640880999484 0.66394097243390604  2.2225000000000001 19.247414599109199 -6.93889390390723e-15 
 0.0098774050730200402 4 0.0147906535716176 2 0.017247277820916399 2 0.019703902070215201 4
7 0 0  3 8 4  2.2225000000000001 9.6237072995545994 16.668749999999999  1.5606877659823799 10.3915776163683 15.338759597654599  1.00548616395621 11.1719319927012 13.9871461699372  0.41931982821484398 12.3713445354502 11.9097027066606  0.26532906063129502 12.775996405791201 11.208825107852199  0.055608789655726902 13.5968064985854 9.7871403237673906  3.5527136788005001e-15 14.014143706736499 9.0642910753607993  0 14.435560949331901 8.3343750000000103 
 2.4754979821431e-07 4 0.0049388263114091297 2 0.0074081156922145798 2 0.0098774050730200402 4
7 0 0  3 8 4  10.071099999999999 19.247414599109199 -1.5612511283791299e-14  10.732912234017601 18.4795442822954 -1.3299904023454301  11.2881138360438 17.699189905962498 -2.68160383006277  11.8742801717852 16.4997773632135 -4.7590472933394201  12.028270939368699 16.095125492872501 -5.4599248921478001  12.237991210344299 15.274315400078301 -6.8816096762326397  12.2936 14.856978191927199 -7.6044589246392302  12.2936 14.435560949331901 -8.3343750000000192 
 2.4754979821589798e-07 4 0.0049388263114091497 2 0.0074081156922146197 2 0.0098774050730200905 4
7 0 0  3 8 4  12.2936 14.435560949331901 -8.3343750000000192  12.2936 13.597049412142299 -9.7867195851449207  12.0728287435663 12.779896469485299 -11.202069999381401  11.487484283475499 11.578758523821699 -13.2825019481696  11.250474572454999 11.182432344883299 -13.968959026460601  10.7074525082372 10.396455672418201 -15.330310556734  10.4014815256467 10.0070337987153 -16.0048090275661  10.071099999999999 9.6237072995545994 -16.668749999999999 
 0.0098774050730200905 4 0.0147906535716176 2 0.017247277820916399 2 0.019703902070215201 4
1 0 9.6237072995545603 -16.668749999999999 1 0 0 
7 0 0  3 8 4  0 14.435560949331901 -8.3343750000000192  0 13.597049412142299 -9.7867195851449207  0.22077125643366299 12.779896469485299 -11.202069999381401  0.80611571652453595 11.578758523821699 -13.2825019481696  1.0431254275450501 11.182432344883299 -13.968959026460601  1.58614749176281 10.396455672418201 -15.330310556734  1.8921184743533099 10.0070337987153 -16.0048090275661  2.2225000000000001 9.6237072995545994 -16.668749999999999 
 0.0098774050730200905 4 0.0147906535716176 2 0.017247277820916399 2 0.019703902070215201 4
7 0 0  3 8 4  2.2225000000000001 19.247414599109199 -6.93889390390723e-15  1.5606877659824001 18.4795442822954 -1.3299904023454201  1.00548616395622 17.699189905962498 -2.68160383006277  0.41931982821484898 16.4997773632135 -4.7590472933394201  0.26532906063129102 16.095125492872501 -5.4599248921477903  0.055608789655726902 15.274315400078301 -6.88160967623263  1.7763568394002501e-15 14.856978191927199 -7.6044589246392196  0 14.435560949331901 -8.3343750000000192 
 2.47549798211161e-07 4 0.0049388263114091497 2 0.0074081156922146197 2 0.0098774050730200905 4
7 0 0  3 8 4  10.071099999999999 -9.6237072995545905 -16.668749999999999  10.3985945669745 -8.8637535121461397 -16.668749999999999  10.702703498799901 -8.0911038712662595 -16.668749999999999  11.2487620451169 -6.5120588485965998 -16.668749999999999  11.487381993662799 -5.7143115959521902 -16.668749999999999  12.0744287814546 -3.3041874319781801 -16.668749999999999  12.2936 -1.6697283917586001 -16.668749999999999  12.2936 0 -16.668749999999999 
 0.013472104784206001 4 0.015944497860956999 2 0.018416890937708 2 0.023361677091209999 4
1 0 -9.6237072995545994 -16.668749999999999 1 0 0 
7 0 0  3 8 4  2.2225000000000001 -9.6237072995545905 -16.668749999999999  1.8950054330255299 -8.8637535121461504 -16.668749999999999  1.5908965012001399 -8.0911038712662595 -16.668749999999999  1.04483795488308 -6.5120588485965998 -16.668749999999999  0.80621800633723395 -5.7143115959521902 -16.668749999999999  0.21917121854539801 -3.3041874319781801 -16.668749999999999  -1.7763568394002501e-15 -1.6697283917586001 -16.668749999999999  0 0 -16.668749999999999 
 0.013472104784206001 4 0.015944497860956999 2 0.018416890937708 2 0.023361677091209999 4
7 0 0  3 14 7  0 0 -16.668749999999999  -5.3290705182007498e-15 0.41607922151394 -16.668749999999999  0.0136055677442553 0.835694528285441 -16.668749999999999  0.067257705972492601 1.66717989833681 -16.668749999999999  0.107209421702645 2.0801617919544499 -16.668749999999999  0.26401607206355299 3.31133525438256 -16.668749999999999  0.41785800691414798 4.1217471384732303 -16.668749999999999  0.809269325775828 5.7249600392420401 -16.668749999999999  1.0467591760788499 6.5177777846943199 -16.668749999999999  1.45436091623437 7.6962000989818904 -16.668749999999999  1.59908256758081 8.0878734884674497 -16.668749999999999  1.9013313312253199 8.8616552121347105 -16.668749999999999  2.0590627895062599 9.2444499327358294 -16.668749999999999  2.2225000000000001 9.6237072995545994 -16.668749999999999 
 0.023361677091209999 4 0.024593867178805701 2 0.0258260572664013 2 0.028290437441592702 2 0.030754817616783999 2 0.031987007704379698 2 0.033219197791975401 4
7 0 0  3 14 7  12.2936 0 -16.668749999999999  12.2936 0.416079221513938 -16.668749999999999  12.2799944322557 0.835694528285437 -16.668749999999999  12.2263422940275 1.6671798983368 -16.668749999999999  12.1863905782974 2.0801617919544499 -16.668749999999999  12.0295839279365 3.3113352543825498 -16.668749999999999  11.875741993085899 4.12174713847324 -16.668749999999999  11.4843306742242 5.7249600392420401 -16.668749999999999  11.2468408239212 6.5177777846943199 -16.668749999999999  10.8392390837656 7.6962000989819002 -16.668749999999999  10.6945174324192 8.0878734884674603 -16.668749999999999  10.392268668774699 8.8616552121347194 -16.668749999999999  10.2345372104937 9.2444499327358294 -16.668749999999999  10.071099999999999 9.6237072995545994 -16.668749999999999 
 0.023361677091209999 4 0.024593867178805701 2 0.0258260572664013 2 0.028290437441592702 2 0.030754817616783999 2 0.031987007704379698 2 0.033219197791975401 4
7 0 0  3 8 4  10.071099999999999 -9.6237072995545905 -16.668749999999999  10.732912234017601 -10.3915776163683 -15.338759597654599  11.2881138360438 -11.1719319927013 -13.987146169937301  11.874280171785101 -12.3713445354503 -11.9097027066606  12.028270939368699 -12.775996405791201 -11.208825107852199  12.237991210344299 -13.5968064985854 -9.7871403237674102  12.2936 -14.014143706736499 -9.0642910753608206  12.2936 -14.435560949331901 -8.3343750000000103 
 2.4754979819352799e-07 4 0.0049388263114091098 2 0.0074081156922145702 2 0.0098774050730200194 4
7 0 0  3 8 4  12.2936 -14.435560949331901 -8.3343750000000103  12.2936 -15.274072486521399 -6.8820304148551097  12.0728287435663 -16.0912254291785 -5.46668000061862  11.4874842834754 -17.292363374842001 -3.3862480518304299  11.2504745724549 -17.688689553780499 -2.6997909735394301  10.7074525082371 -18.474666226245599 -1.3384394432660101  10.4014815256466 -18.8640880999485 -0.66394097243389805  10.071099999999999 -19.247414599109199 5.3776427755281001e-14 
 0.0098774050730200194 4 0.0147906535716176 2 0.017247277820916399 2 0.019703902070215201 4
1 0 -19.247414599109199 1.50231459873716e-15 1 0 0 
7 0 0  3 8 4  0 -14.435560949331901 -8.3343750000000103  2.1316282072802999e-14 -15.274072486521399 -6.8820304148551097  0.220771256433693 -16.0912254291785 -5.46668000061862  0.80611571652457104 -17.292363374842001 -3.3862480518304299  1.0431254275450801 -17.688689553780499 -2.6997909735394301  1.58614749176285 -18.4746662262455 -1.3384394432660101  1.8921184743533599 -18.8640880999485 -0.66394097243389805  2.2225000000000001 -19.247414599109199 5.3776427755281001e-14 
 0.0098774050730200194 4 0.0147906535716176 2 0.017247277820916399 2 0.019703902070215201 4
7 0 0  3 8 4  2.2225000000000001 -9.6237072995545905 -16.668749999999999  1.5606877659824001 -10.3915776163683 -15.338759597654599  1.00548616395623 -11.1719319927013 -13.987146169937301  0.41931982821486402 -12.3713445354503 -11.9097027066606  0.26532906063131501 -12.775996405791201 -11.208825107852199  0.055608789655742903 -13.5968064985854 -9.7871403237673995  2.1316282072802999e-14 -14.014143706736499 -9.0642910753608206  0 -14.435560949331901 -8.3343750000000103 
 2.47549798193429e-07 4 0.0049388263114091098 2 0.0074081156922145702 2 0.0098774050730200194 4
7 0 0  3 8 4  10.071099999999999 -19.247414599109199 5.3776427755281001e-14  10.732912234017601 -18.4795442822954 1.3299904023454601  11.2881138360438 -17.699189905962498 2.6816038300627998  11.874280171785101 -16.4997773632135 4.7590472933394397  12.028270939368699 -16.095125492872501 5.4599248921478098  12.237991210344299 -15.274315400078301 6.8816096762326504  12.2936 -14.856978191927301 7.60445892463924  12.2936 -14.435560949331901 8.3343750000000192 
 2.4754979826754697e-07 4 0.00493882631140918 2 0.0074081156922146396 2 0.0098774050730200905 4
7 0 0  3 8 4  12.2936 -14.435560949331901 8.3343750000000192  12.2936 -13.5970494121424 9.7867195851449296  12.0728287435663 -12.779896469485299 11.202069999381401  11.4874842834754 -11.578758523821699 13.2825019481696  11.2504745724549 -11.182432344883299 13.968959026460601  10.7074525082372 -10.396455672418201 15.330310556734  10.4014815256467 -10.0070337987153 16.0048090275661  10.071099999999999 -9.6237072995545994 16.668749999999999 
 0.0098774050730200905 4 0.0147906535716176 2 0.017247277820916399 2 0.019703902070215201 4
1 0 -9.6237072995545905 16.668749999999999 1 0 0 
7 0 0  3 8 4  0 -14.435560949331901 8.3343750000000192  1.5987211554602302e-14 -13.5970494121424 9.7867195851449296  0.220771256433686 -12.779896469485299 11.202069999381401  0.80611571652455205 -11.578758523821699 13.2825019481696  1.0431254275450601 -11.182432344883299 13.968959026460601  1.58614749176282 -10.396455672418201 15.330310556734  1.8921184743533199 -10.0070337987153 16.0048090275661  2.2225000000000001 -9.6237072995545994 16.668749999999999 
 0.0098774050730200905 4 0.0147906535716176 2 0.017247277820916399 2 0.019703902070215201 4
7 0 0  3 8 4  2.2225000000000001 -19.247414599109199 5.3776427755281001e-14  1.5606877659824001 -18.4795442822954 1.3299904023454601  1.00548616395623 -17.699189905962498 2.6816038300627998  0.41931982821485803 -16.4997773632135 4.7590472933394397  0.26532906063131101 -16.095125492872501 5.4599248921478098  0.0556087896557464 -15.274315400078301 6.8816096762326504  2.1316282072802999e-14 -14.856978191927301 7.60445892463924  0 -14.435560949331901 8.3343750000000192 
 2.4754979826754697e-07 4 0.00493882631140918 2 0.0074081156922146301 2 0.0098774050730200905 4
7 0 0  3 8 4  10.071099999999999 -9.6237072995545994 16.668749999999999  10.3985945669745 -8.8637535121461504 16.668749999999999  10.702703498799901 -8.0911038712662595 16.668749999999999  11.2487620451169 -6.5120588485965998 16.668749999999999  11.487381993662799 -5.7143115959521902 16.668749999999999  12.0744287814546 -3.3041874319781899 16.668749999999999  12.2936 -1.6697283917586001 16.668749999999999  12.2936 0 16.668749999999999 
 0.013472104784206001 4 0.015944497860956999 2 0.018416890937708 2 0.023361677091209999 4
7 0 0  3 14 7  12.2936 0 16.668749999999999  12.2936 0.41607922151393401 16.668749999999999  12.2799944322557 0.835694528285434 16.668749999999999  12.2263422940275 1.6671798983368 16.668749999999999  12.1863905782974 2.0801617919544402 16.668749999999999  12.0295839279365 3.3113352543825401 16.668749999999999  11.875741993085899 4.1217471384732196 16.668749999999999  11.4843306742242 5.7249600392420197 16.668749999999999  11.2468408239212 6.5177777846942897 16.668749999999999  10.8392390837656 7.6962000989818602 16.668749999999999  10.6945174324192 8.0878734884674301 16.668749999999999  10.392268668774699 8.8616552121346803 16.668749999999999  10.2345372104938 9.2444499327357992 16.668749999999999  10.071099999999999 9.6237072995545692 16.668749999999999 
 0.023361677091209999 4 0.024593867178805701 2 0.0258260572664013 2 0.028290437441592702 2 0.030754817616783999 2 0.031987007704379698 2 0.033219197791975401 4
7 0 0  3 14 7  0 0 16.668749999999999  -5.3290705182007498e-15 0.416079221513939 16.668749999999999  0.013605567744258799 0.835694528285438 16.668749999999999  0.067257705972490797 1.6671798983368 16.668749999999999  0.107209421702645 2.0801617919544499 16.668749999999999  0.26401607206355099 3.3113352543825498 16.668749999999999  0.41785800691414599 4.1217471384732303 16.668749999999999  0.809269325775826 5.7249600392420401 16.668749999999999  1.0467591760788499 6.5177777846943199 16.668749999999999  1.45436091623437 7.6962000989818904 16.668749999999999  1.59908256758081 8.0878734884674603 16.668749999999999  1.9013313312253299 8.8616552121347194 16.668749999999999  2.0590627895062599 9.2444499327358294 16.668749999999999  2.2225000000000001 9.6237072995545994 16.668749999999999 
 0.023361677091209999 4 0.024593867178805601 2 0.0258260572664013 2 0.028290437441592702 2 0.030754817616783999 2 0.031987007704379698 2 0.033219197791975401 4
7 0 0  3 8 4  2.2225000000000001 -9.6237072995545994 16.668749999999999  1.8950054330255299 -8.8637535121461504 16.668749999999999  1.5908965012001399 -8.0911038712662595 16.668749999999999  1.04483795488308 -6.5120588485966104 16.668749999999999  0.80621800633723395 -5.7143115959521902 16.668749999999999  0.21917121854539801 -3.3041874319781801 16.668749999999999  0 -1.6697283917586001 16.668749999999999  0 0 16.668749999999999 
 0.013472104784206001 4 0.015944497860956999 2 0.018416890937708 2 0.023361677091209999 4
2 12.2936 0 0 -1 0 0 0 0 1 0 1 -0 16.668749999999999
2 12.2936 0 0 -1 0 0 0 0 1 0 1 -0 16.668749999999999
2 12.2936 0 0 -1 0 0 0 0 1 0 1 -0 16.668749999999999
2 12.2936 0 0 -1 0 0 0 0 1 0 1 -0 16.668749999999999
2 12.2936 0 0 1 0 0 0 0 -1 -0 1 0 16.668749999999999
2 12.2936 0 0 -1 0 0 0 0 1 0 1 -0 16.668749999999999
2 12.2936 0 0 1 0 0 0 0 -1 -0 1 0 11.112500000000001
2 0 0 0 1 0 -0 0 0 1 0 -1 0 16.668749999999999
2 0 0 0 1 0 -0 0 1.7763568394002501e-15 1 0 -1 1.7763568394002501e-15 16.668749999999999
2 0 0 0 1 0 -0 0 1.7763568394002501e-15 1 0 -1 1.7763568394002501e-15 16.668749999999999
2 0 0 0 1 0 0 0 0 -1 -0 1 0 16.668749999999999
2 0 0 0 1 0 -0 0 1.7763568394002501e-15 1 0 -1 1.7763568394002501e-15 16.668749999999999
2 0 0 0 1 0 0 0 -8.8817841970012504e-16 1 0 -1 -8.8817841970012504e-16 16.668749999999999
2 0 0 0 1 0 0 0 0 -1 -0 1 0 11.112500000000001
1 -2.7812999999999999 -2.2628888509106801e-15 -18.4785 1 0 0 
2 -5.5625999999999998 0 0 -1 0 0 0 0 1 0 1 -0 18.4785
1 -34.924999999999898 1.4498064004069999 18.421536951387601 1 0 0 
2 0 0 0 -1 0 0 0 0 1 0 1 -0 18.4785
2 -5.5625999999999998 0 0 -1 0 0 0 0 1 0 1 -0 11.303000000000001
1 -34.924999999999898 0.88682315901183895 11.268156623185501 -1 -0 -0 
2 0 0 0 -1 0 0 0 0 1 0 1 -0 11.303000000000001
1 -2.7812999999999999 -1.38417256172543e-15 -11.303000000000001 -1 -0 -0 
2 0 0 0 -1 0 0 0 0 1 0 1 -0 11.303000000000001
1 -34.924999999999898 -0.88682315901183895 11.268156623185501 -1 -0 -0 
2 -5.5625999999999998 0 0 -1 0 0 0 0 1 0 1 -0 11.303000000000001
1 0 0 0 0 0.078459095727845582 0.99691733373312785 
1 0 0 0 0 -0.078459095727845582 0.99691733373312785 
2 0 0 0 -1 0 0 0 0 1 0 1 -0 18.4785
1 -34.924999999999898 -1.4498064004069999 18.421536951387601 1 0 0 
2 -5.5625999999999998 0 0 -1 0 0 0 0 1 0 1 -0 18.4785
1 -5.5625999999999998 0.113750499156375 1.4453371311229699 0 0.078459095727845582 0.99691733373312785 
1 -5.5625999999999998 0.113750499156375 -1.4453371311229699 0 -0.078459095727845582 0.99691733373312785 
Polygon3D 0
PolygonOnTriangulations 0
Surfaces 30
2 0 0 0 -1 0 0 0 0 -1 -0 -1 -0 11.112500000000001
2 0 0 0 -1 0 0 0 0 -1 -0 -1 -0 11.112500000000001
1 12.2936 19.247414599109199 -2.5578757073892998e-32 -1 0 0 0 -1 0 0 0 1 
1 0 19.247414599109199 -2.5578757073892998e-32 -1 0 0 0 -1 0 0 0 1 
1 0 19.247414599109199 -1.7819758483047401e-15 -0 0.86602540378443804 0.500000000000001 1 0 0 0 0.500000000000001 -0.86602540378443804 
1 0 9.6237072995545692 16.668749999999999 0 0 1 1 0 -0 -0 1 0 
3 12.2936 0 0 -1 -0 0 0 0 1 -0 1 0 16.668749999999999
0.85944549144248195
3 12.2936 0 0 -1 -0 0 0 0 1 -0 1 0 16.668749999999999
0.85944549144248195
1 0 9.6237072995545603 -16.668749999999999 0 0.86602540378443804 -0.500000000000001 -1 0 0 0 0.500000000000001 0.86602540378443804 
3 0 0 0 1 -0 -0 0 0 -1 0 1 0 16.668749999999999
0.85944549144248095
3 0 0 0 1 -0 -0 0 0 -1 0 1 0 16.668749999999999
0.85944549144248095
3 12.2936 0 0 -1 -0 0 0 0 1 -0 1 0 16.668749999999999
0.85944549144248195
1 0 9.6237072995545603 -16.668749999999999 0 0 1 1 0 -0 -0 1 0 
3 0 0 0 1 -0 -0 0 0 -1 0 1 0 16.668749999999999
0.85944549144248095
3 12.2936 0 0 -1 -0 0 0 0 1 -0 1 0 16.668749999999999
0.85944549144248195
1 0 -19.247414599109199 1.50231459873716e-15 -0 -0.86602540378443804 -0.500000000000001 -1 0 0 0 0.500000000000001 -0.86602540378443804 
3 0 0 0 1 -0 -0 0 0 -1 0 1 0 16.668749999999999
0.85944549144248095
3 12.2936 0 0 -1 -0 0 0 0 1 -0 1 0 16.668749999999999
0.85944549144248195
1 0 -9.6237072995545905 16.668749999999999 0 -0.86602540378443804 0.500000000000001 0 0.500000000000001 0.86602540378443804 -1 0 0 
3 0 0 0 1 -0 -0 0 0 -1 0 1 0 16.668749999999999
0.85944549144248095
3 12.2936 0 0 -1 -0 0 0 0 1 -0 1 0 16.668749999999999
0.85944549144248195
3 0 0 0 1 -0 -0 0 0 -1 0 1 0 16.668749999999999
0.85944549144248095
2 -34.924999999999898 0 0 1 0 -0 0 0 1 0 -1 0 18.4785
2 -34.924999999999898 0 0 1 0 -0 0 0 1 0 -1 0 18.4785
1 -5.5625999999999998 18.4785 0 1 0 0 -0 1 0 0 -0 1 
1 -5.5625999999999998 0 0 0 0.99691733373312796 -0.078459095727845596 -1 0 0 0 0.078459095727845596 0.99691733373312796 
1 0 11.303000000000001 0 -1 0 0 0 0 1 0 1 -0 
2 -34.924999999999898 0 0 1 0 -0 0 0 1 0 -1 0 11.303000000000001
2 -34.924999999999898 0 0 1 0 -0 0 0 1 0 -1 0 11.303000000000001
1 -5.5625999999999998 0 0 -0 0.99691733373312796 0.078459095727845596 1 0 0 0 0.078459095727845596 -0.99691733373312796 
Triangulations 0

TShapes 173
Ve
1e-07
0 0 -11.1125
0 0

0101101
*
Ve
1e-07
12.2936 0 -11.1125
0 0

0101101
*
Ed
 1e-07 1 1 0
1  1 0 0 12.2936
2  1 1 0 0 12.2936
2  2 2 0 0 12.2936
4 CN 1 0 2 0
0

0101000
+173 0 -172 0 *
Ve
1e-07
12.2936 1.3608887555525e-15 11.1125
0 0

0101101
*
Ed
 1e-07 1 1 0
1  2 0 3.14159265358979 6.28318530717959
2  3 1 0 3.14159265358979 6.28318530717959
4 C0 1 0 3 0
0

0101000
+170 0 -172 0 *
Ve
1e-07
0 1.3608887555525e-15 11.1125
0 0

0101101
*
Ed
 1e-07 1 1 0
1  3 0 0 12.2936
2  4 1 0 0 12.2936
2  5 2 0 0 12.2936
4 CN 1 0 2 0
0

0101000
+168 0 -170 0 *
Ed
 1e-07 1 1 0
1  4 0 3.14159265358979 6.28318530717959
2  6 1 0 3.14159265358979 6.28318530717959
4 C0 1 0 4 0
0

0101000
+168 0 -173 0 *
Wi

0101100
+171 0 -169 0 -167 0 +166 0 *
Fa
0  1e-07 1 0

0111000
+165 0 *
Ve
0.0001829880310636
2.2225 9.6237072995546 16.66875
0 0

0101101
*
Ve
0.000182988031058017
10.0711 9.62370729955457 16.66875
0 0

0101101
*
Ed
 1e-07 1 1 0
1  5 0 2.2225 10.0711
4 C0 5 0 6 0
0

0101000
+163 0 -162 0 *
Ve
0.000322110359769637
12.2936 14.4355609493319 8.33437500000001
0 0

0101101
*
Ed
 0.000182988031058017 1 1 0
1  6 0 2.47549798202407e-07 0.00987740507302004
2  7 7 0 2.47549798202407e-07 0.00987740507302004
4 C0 5 0 7 0
0

0101000
+162 0 -160 0 *
Ve
0.000322110359769637
10.0711 19.2474145991092 -1.56125112837913e-14
0 0

0101101
*
Ed
 0.000322110359769637 1 1 0
1  7 0 0.00987740507302004 0.0197039020702152
2  8 8 0 0.00987740507302004 0.0197039020702152
4 C0 5 0 8 0
0

0101000
+160 0 -158 0 *
Ve
0.000322110359761906
2.2225 19.2474145991092 -6.93889390390723e-15
0 0

0101101
*
Ed
 1e-07 1 1 0
1  8 0 2.2225 10.0711
4 C0 5 0 9 0
0

0101000
+156 0 -158 0 *
Ve
0.000322110359761906
0 14.4355609493319 8.33437500000001
0 0

0101101
*
Ed
 0.000322110359761906 1 1 0
1  9 0 0.00987740507302004 0.0197039020702152
2  9 10 0 0.00987740507302004 0.0197039020702152
4 C0 5 0 10 0
0

0101000
+154 0 -156 0 *
Ed
 0.0001829880310636 1 1 0
1  10 0 2.4754979821431e-07 0.00987740507302004
2  10 11 0 2.4754979821431e-07 0.00987740507302004
4 C0 5 0 11 0
0

0101000
+163 0 -154 0 *
Wi

0101100
+161 0 +159 0 +157 0 -155 0 -153 0 -152 0 *
Fa
0  1e-07 5 0

0111000
+151 0 *
Ve
0.000322110359790209
12.2936 14.4355609493319 -8.33437500000002
0 0

0101101
*
Ed
 0.000182988031082988 1 1 0
1  11 0 2.47549798215898e-07 0.00987740507302009
2  11 8 0 2.47549798215898e-07 0.00987740507302009
4 C0 9 0 8 0
0

0101000
+158 0 -149 0 *
Ve
0.000322110359790209
10.0711 9.6237072995546 -16.66875
0 0

0101101
*
Ed
 0.000322110359790209 1 1 0
1  12 0 0.00987740507302009 0.0197039020702152
2  12 12 0 0.00987740507302009 0.0197039020702152
4 C0 9 0 12 0
0

0101000
+149 0 -147 0 *
Ve
0.000322110359781983
2.2225 9.6237072995546 -16.66875
0 0

0101101
*
Ed
 1e-07 1 1 0
1  13 0 2.2225 10.0711
4 C0 9 0 13 0
0

0101000
+145 0 -147 0 *
Ve
0.000322110359781983
0 14.4355609493319 -8.33437500000002
0 0

0101101
*
Ed
 0.000322110359781983 1 1 0
1  14 0 0.00987740507302009 0.0197039020702152
2  13 14 0 0.00987740507302009 0.0197039020702152
4 C0 9 0 14 0
0

0101000
+143 0 -145 0 *
Ed
 0.000182988031075423 1 1 0
1  15 0 2.47549798211161e-07 0.00987740507302009
2  14 10 0 2.47549798211161e-07 0.00987740507302009
4 C0 9 0 10 0
0

0101000
+156 0 -143 0 *
Wi

0101100
+155 0 +148 0 +146 0 -144 0 -142 0 -141 0 *
Fa
0  1e-07 9 0

0111000
+140 0 *
Ve
0.000366046986649886
10.0711 -9.62370729955459 -16.66875
0 0

0101101
*
Ve
0.000366046986649886
12.2936 0 -16.66875
0 0

0101101
*
Ed
 0.000366046986649886 1 1 0
1  16 0 0.013472104784206 0.02336167709121
2  15 15 0 0.013472104784206 0.02336167709121
4 C0 13 0 15 0
0

0101000
+138 0 -137 0 *
Ve
0.000366046986651957
2.2225 -9.62370729955459 -16.66875
0 0

0101101
*
Ed
 1e-07 1 1 0
1  17 0 2.2225 10.0711
4 C0 13 0 16 0
0

0101000
+135 0 -138 0 *
Ve
0.000366046986651957
0 0 -16.66875
0 0

0101101
*
Ed
 0.000366046986651957 1 1 0
1  18 0 0.013472104784206 0.02336167709121
2  16 17 0 0.013472104784206 0.02336167709121
4 C0 13 0 17 0
0

0101000
+135 0 -133 0 *
Ed
 2.16848320769835e-05 1 1 0
1  19 0 0.02336167709121 0.0332191977919754
2  17 14 0 0.02336167709121 0.0332191977919754
4 C0 13 0 14 0
0

0101000
+133 0 -145 0 *
Ed
 2.16848320874209e-05 1 1 0
1  20 0 0.02336167709121 0.0332191977919754
2  18 12 0 0.02336167709121 0.0332191977919754
4 C0 13 0 12 0
0

0101000
+137 0 -147 0 *
Wi

0101100
-136 0 -134 0 +132 0 +131 0 +144 0 -130 0 *
Fa
0  1e-07 13 0

0111000
-129 0 *
Ve
0.000322110359773595
12.2936 -14.4355609493319 -8.33437500000001
0 0

0101101
*
Ed
 0.00018298803109262 1 1 0
1  21 0 2.47549798193528e-07 0.00987740507302002
2  19 15 0 2.47549798193528e-07 0.00987740507302002
4 C0 16 0 15 0
0

0101000
+138 0 -127 0 *
Ve
0.000322110359773595
10.0711 -19.2474145991092 5.3776427755281e-14
0 0

0101101
*
Ed
 0.000322110359773595 1 1 0
1  22 0 0.00987740507302002 0.0197039020702152
2  20 18 0 0.00987740507302002 0.0197039020702152
4 C0 16 0 18 0
0

0101000
+127 0 -125 0 *
Ve
0.000322110359776514
2.2225 -19.2474145991092 5.3776427755281e-14
0 0

0101101
*
Ed
 1e-07 1 1 0
1  23 0 2.2225 10.0711
4 C0 16 0 19 0
0

0101000
+123 0 -125 0 *
Ve
0.000322110359776514
0 -14.4355609493319 -8.33437500000001
0 0

0101101
*
Ed
 0.000322110359776514 1 1 0
1  24 0 0.00987740507302002 0.0197039020702152
2  21 20 0 0.00987740507302002 0.0197039020702152
4 C0 16 0 20 0
0

0101000
+121 0 -123 0 *
Ed
 0.000182988031087117 1 1 0
1  25 0 2.47549798193429e-07 0.00987740507302002
2  22 17 0 2.47549798193429e-07 0.00987740507302002
4 C0 16 0 17 0
0

0101000
+135 0 -121 0 *
Wi

0101100
+134 0 +126 0 +124 0 -122 0 -120 0 -119 0 *
Fa
0  1e-07 16 0

0111000
+118 0 *
Ve
0.000322110359774002
12.2936 -14.4355609493319 8.33437500000002
0 0

0101101
*
Ed
 0.000182988031079923 1 1 0
1  26 0 2.47549798267547e-07 0.00987740507302009
2  23 18 0 2.47549798267547e-07 0.00987740507302009
4 C0 19 0 18 0
0

0101000
+125 0 -116 0 *
Ve
0.000366046986649881
10.0711 -9.6237072995546 16.66875
0 0

0101101
*
Ed
 0.000322110359774002 1 1 0
1  27 0 0.00987740507302009 0.0197039020702152
2  24 21 0 0.00987740507302009 0.0197039020702152
4 C0 19 0 21 0
0

0101000
+116 0 -114 0 *
Ve
0.000366046986651088
2.2225 -9.6237072995546 16.66875
0 0

0101101
*
Ed
 1e-07 1 1 0
1  28 0 2.2225 10.0711
4 C0 19 0 6 0
0

0101000
+112 0 -114 0 *
Ve
0.00032211035977033
0 -14.4355609493319 8.33437500000002
0 0

0101101
*
Ed
 0.00032211035977033 1 1 0
1  29 0 0.00987740507302009 0.0197039020702152
2  25 22 0 0.00987740507302009 0.0197039020702152
4 C0 19 0 22 0
0

0101000
+110 0 -112 0 *
Ed
 0.000182988031074883 1 1 0
1  30 0 2.47549798267547e-07 0.00987740507302009
2  26 20 0 2.47549798267547e-07 0.00987740507302009
4 C0 19 0 20 0
0

0101000
+123 0 -110 0 *
Wi

0101100
+122 0 +115 0 +113 0 -111 0 -109 0 -108 0 *
Fa
0  1e-07 19 0

0111000
+107 0 *
Ve
0.000366046986649881
12.2936 0 16.66875
0 0

0101101
*
Ed
 0.000366046986649881 1 1 0
1  31 0 0.013472104784206 0.02336167709121
2  27 21 0 0.013472104784206 0.02336167709121
4 C0 6 0 21 0
0

0101000
+114 0 -105 0 *
Ed
 2.16848320872864e-05 1 1 0
1  32 0 0.02336167709121 0.0332191977919754
2  28 7 0 0.02336167709121 0.0332191977919754
4 C0 6 0 7 0
0

0101000
+105 0 -162 0 *
Ve
0.000366046986651088
0 0 16.66875
0 0

0101101
*
Ed
 2.16848320788574e-05 1 1 0
1  33 0 0.02336167709121 0.0332191977919754
2  29 11 0 0.02336167709121 0.0332191977919754
4 C0 6 0 11 0
0

0101000
+102 0 -163 0 *
Ed
 0.000366046986651088 1 1 0
1  34 0 0.013472104784206 0.02336167709121
2  30 22 0 0.013472104784206 0.02336167709121
4 C0 6 0 22 0
0

0101000
+112 0 -102 0 *
Wi

0101100
+111 0 +104 0 +103 0 -161 0 -101 0 -100 0 *
Fa
0  1e-07 6 0

0111000
+99 0 *
Ed
 1e-07 1 1 0
1  35 0 0 1.0471975511966
2  31 7 0 0 1.0471975511966
4 C0 3 0 7 0
0

0101000
+105 0 -160 0 *
Ed
 1e-07 1 1 0
1  36 0 5.23598775598299 6.28318530717959
2  32 21 0 5.23598775598299 6.28318530717959
4 C0 3 0 21 0
0

0101000
+116 0 -105 0 *
Ed
 1e-07 1 1 0
1  37 0 4.18879020478639 5.23598775598299
2  33 18 0 4.18879020478639 5.23598775598299
4 C0 3 0 18 0
0

0101000
+127 0 -116 0 *
Ed
 1e-07 1 1 0
1  38 0 3.14159265358979 4.18879020478639
2  34 15 0 3.14159265358979 4.18879020478639
4 C0 3 0 15 0
0

0101000
+137 0 -127 0 *
Ed
 1e-07 1 1 0
1  39 0 0 1.0471975511966
2  35 12 0 0 1.0471975511966
4 C0 3 0 12 0
0

0101000
+137 0 -149 0 *
Ed
 1e-07 1 1 0
1  40 0 1.0471975511966 2.0943951023932
2  36 8 0 1.0471975511966 2.0943951023932
4 C0 3 0 8 0
0

0101000
+160 0 -149 0 *
Wi

0101100
-97 0 -96 0 -95 0 -94 0 +93 0 -92 0 *
Ed
 1e-07 1 1 0
1  41 0 0 3.14159265358979
2  37 2 0 0 3.14159265358979
4 C0 3 0 2 0
0

0101000
+172 0 -170 0 *
Wi

0101100
-90 0 -169 0 *
Fa
0  1e-07 3 0

0111000
-91 0 -89 0 *
Ed
 1e-07 1 1 0
1  42 0 0 1.0471975511966
2  38 22 0 0 1.0471975511966
4 C0 4 0 22 0
0

0101000
+102 0 -110 0 *
Ed
 1e-07 1 1 0
1  43 0 5.23598775598299 6.28318530717959
2  39 11 0 5.23598775598299 6.28318530717959
4 C0 4 0 11 0
0

0101000
+154 0 -102 0 *
Ed
 1e-07 1 1 0
1  44 0 4.18879020478639 5.23598775598299
2  40 10 0 4.18879020478639 5.23598775598299
4 C0 4 0 10 0
0

0101000
+143 0 -154 0 *
Ed
 1e-07 1 1 0
1  45 0 0 1.0471975511966
2  41 14 0 0 1.0471975511966
4 C0 4 0 14 0
0

0101000
+133 0 -143 0 *
Ed
 1e-07 1 1 0
1  46 0 2.0943951023932 3.14159265358979
2  42 17 0 2.0943951023932 3.14159265358979
4 C0 4 0 17 0
0

0101000
+121 0 -133 0 *
Ed
 1e-07 1 1 0
1  47 0 1.0471975511966 2.09439510239319
2  43 20 0 1.0471975511966 2.09439510239319
4 C0 4 0 20 0
0

0101000
+110 0 -121 0 *
Wi

0101100
-87 0 -86 0 -85 0 -84 0 -83 0 -82 0 *
Ed
 1e-07 1 1 0
1  48 0 0 3.14159265358979
2  44 2 0 0 3.14159265358979
4 C0 4 0 2 0
0

0101000
+173 0 -168 0 *
Wi

0101100
+80 0 +166 0 *
Fa
0  1e-07 4 0

0111000
+81 0 +79 0 *
Wi

0101100
-90 0 -171 0 +80 0 +167 0 *
Fa
0  1e-07 2 0

0111000
+77 0 *
Wi

0101100
+152 0 +86 0 +101 0 *
Fa
0  1e-07 11 0

0111000
+75 0 *
Wi

0101100
+153 0 +141 0 +85 0 *
Fa
0  1e-07 10 0

0111000
+73 0 *
Wi

0101100
+142 0 -131 0 +84 0 *
Fa
0  1e-07 14 0

0111000
+71 0 *
Wi

0101100
+119 0 +83 0 -132 0 *
Fa
0  1e-07 17 0

0111000
+69 0 *
Wi

0101100
+120 0 +108 0 +82 0 *
Fa
0  1e-07 20 0

0111000
+67 0 *
Wi

0101100
+109 0 +100 0 +87 0 *
Fa
0  1e-07 22 0

0111000
+65 0 *
Wi

0101100
+96 0 -104 0 -113 0 *
Fa
0  1e-07 21 0

0111000
+63 0 *
Wi

0101100
+95 0 -115 0 -124 0 *
Fa
0  1e-07 18 0

0111000
+61 0 *
Wi

0101100
+136 0 +94 0 -126 0 *
Fa
0  1e-07 15 0

0111000
+59 0 *
Wi

0101100
-93 0 +130 0 -146 0 *
Fa
0  1e-07 12 0

0111000
+57 0 *
Wi

0101100
+92 0 -148 0 -157 0 *
Fa
0  1e-07 8 0

0111000
+55 0 *
Wi

0101100
-103 0 +97 0 -159 0 *
Fa
0  1e-07 7 0

0111000
+53 0 *
Sh

0101100
-164 0 +150 0 +139 0 -128 0 +117 0 +106 0 +98 0 -88 0 +78 0 -76 0 
+74 0 +72 0 +70 0 +68 0 +66 0 +64 0 +62 0 +60 0 +58 0 +56 0 
+54 0 +52 0 *
So

0100000
+51 0 *
Ve
1e-07
-5.5626 -2.26288885091068e-15 -18.4785
0 0

0101101
*
Ve
1e-07
0 -2.26288885091068e-15 -18.4785
0 0

0101101
*
Ed
 1e-07 1 1 0
1  49 0 -2.7813 2.7813
2  45 23 0 -2.7813 2.7813
2  46 24 0 -2.7813 2.7813
4 CN 23 0 24 0
0

0101000
+49 0 -48 0 *
Ve
1e-07
-5.5626 1.449806400407 18.4215369513876
0 0

0101101
*
Ed
 1e-07 1 1 0
1  50 0 0.0785398163397458 3.14159265358979
2  47 23 0 0.0785398163397458 3.14159265358979
4 C0 23 0 25 0
0

0101000
+46 0 -49 0 *
Ve
1e-07
0 1.449806400407 18.4215369513876
0 0

0101101
*
Ed
 1e-07 1 1 0
1  51 0 29.3623999999999 34.9249999999999
2  48 23 0 29.3623999999999 34.9249999999999
4 C0 23 0 26 0
0

0101000
+46 0 -44 0 *
Ed
 1e-07 1 1 0
1  52 0 0.0785398163397458 3.14159265358979
2  49 23 0 0.0785398163397458 3.14159265358979
4 C0 23 0 27 0
0

0101000
+44 0 -48 0 *
Wi

0101100
-47 0 -45 0 +43 0 +42 0 *
Fa
0  1e-07 23 0

0111000
+41 0 *
Ve
1e-07
-5.5626 0.886823159011839 11.2681566231856
0 0

0101101
*
Ve
1e-07
-5.5626 -1.38417256172543e-15 -11.303
0 0

0101101
*
Ed
 1e-07 1 1 0
1  53 0 0.0785398163397451 3.14159265358979
2  50 28 0 0.0785398163397451 3.14159265358979
4 C0 28 0 25 0
0

0101000
+39 0 -38 0 *
Ve
1e-07
0 0.886823159011839 11.2681566231856
0 0

0101101
*
Ed
 1e-07 1 1 0
1  54 0 -34.9249999999999 -29.3623999999999
2  51 28 0 -34.9249999999999 -29.3623999999999
4 C0 28 0 26 0
0

0101000
+36 0 -39 0 *
Ve
1e-07
0 -1.38417256172543e-15 -11.303
0 0

0101101
*
Ed
 1e-07 1 1 0
1  55 0 0.0785398163397451 3.14159265358979
2  52 28 0 0.0785398163397451 3.14159265358979
4 C0 28 0 27 0
0

0101000
+36 0 -34 0 *
Ed
 1e-07 1 1 0
1  56 0 -2.7813 2.7813
2  53 28 0 -2.7813 2.7813
2  54 29 0 -2.7813 2.7813
4 CN 28 0 29 0
0

0101000
+34 0 -38 0 *
Wi

0101100
-37 0 -35 0 +33 0 +32 0 *
Fa
0  1e-07 28 0

0111000
+31 0 *
Ve
1e-07
0 -0.886823159011839 11.2681566231856
0 0

0101101
*
Ed
 1e-07 1 1 0
1  57 0 3.14159265358979 6.20464549083984
2  55 29 0 3.14159265358979 6.20464549083984
4 C0 29 0 27 0
0

0101000
+34 0 -29 0 *
Ve
1e-07
-5.5626 -0.88682315901184 11.2681566231855
0 0

0101101
*
Ed
 1e-07 1 1 0
1  58 0 -34.9249999999999 -29.3623999999999
2  56 29 0 -34.9249999999999 -29.3623999999999
4 C0 29 0 30 0
0

0101000
+29 0 -27 0 *
Ed
 1e-07 1 1 0
1  59 0 3.14159265358979 6.20464549083984
2  57 29 0 3.14159265358979 6.20464549083984
4 C0 29 0 25 0
0

0101000
+38 0 -27 0 *
Wi

0101100
+28 0 +26 0 -25 0 -32 0 *
Fa
0  1e-07 29 0

0111000
+24 0 *
Ed
 1e-07 1 1 0
1  60 0 11.3030000000001 18.4785
4 C0 27 0 26 0
0

0101000
+36 0 -44 0 *
Ve
1e-07
0 -1.449806400407 18.4215369513876
0 0

0101101
*
Ed
 1e-07 1 1 0
1  61 0 11.3030000000001 18.4785
4 C0 27 0 30 0
0

0101000
+29 0 -21 0 *
Ed
 1e-07 1 1 0
1  62 0 3.14159265358979 6.20464549083984
2  58 24 0 3.14159265358979 6.20464549083984
4 C0 27 0 24 0
0

0101000
+48 0 -21 0 *
Wi

0101100
-42 0 -22 0 +33 0 +28 0 +20 0 -19 0 *
Fa
0  1e-07 27 0

0111000
-18 0 *
Ve
1e-07
-5.5626 -1.449806400407 18.4215369513876
0 0

0101101
*
Ed
 1e-07 1 1 0
1  63 0 29.3623999999999 34.9249999999999
2  59 24 0 29.3623999999999 34.9249999999999
4 C0 24 0 30 0
0

0101000
+16 0 -21 0 *
Ed
 1e-07 1 1 0
1  64 0 3.14159265358979 6.20464549083984
2  60 24 0 3.14159265358979 6.20464549083984
4 C0 24 0 25 0
0

0101000
+49 0 -16 0 *
Wi

0101100
+47 0 +19 0 -15 0 -14 0 *
Fa
0  1e-07 24 0

0111000
+13 0 *
Ed
 1e-07 1 1 0
1  65 0 9.85319359959305 17.028693599593
4 C0 25 0 26 0
0

0101000
+39 0 -46 0 *
Ed
 1e-07 1 1 0
1  66 0 12.752806400407 19.928306400407
4 C0 25 0 30 0
0

0101000
+27 0 -16 0 *
Wi

0101100
-37 0 +11 0 +45 0 +14 0 -10 0 -25 0 *
Fa
0  1e-07 25 0

0111000
-9 0 *
Wi

0101100
+26 0 +10 0 +15 0 -20 0 *
Fa
0  1e-07 30 0

0111000
+7 0 *
Wi

0101100
+22 0 -43 0 -11 0 -35 0 *
Fa
0  1e-07 26 0

0111000
-5 0 *
Sh

0101100
+40 0 -30 0 -23 0 -17 0 +12 0 -8 0 +6 0 -4 0 *
So

0100000
+3 0 *
Co

1100000
+50 0 +2 0 *

+1 0 