DBRep_DrawableShape

CASCADE Topology V1, (c) Matra-Datavision
Locations 0
Curve2ds 60
1 0 0 0 -1 
1 6.2831853071795862 0 0 -1 
1 6.2831853071795862 -27.7622 -1 0 
1 3.1415926535897931 0 0 -1 
1 3.1415926535897931 0 0 -1 
1 6.2831853071795862 0 -1 0 
7 0 0  3 25 23  0.52359877559829937 7.9688168030008413  0.52988190512949307 7.7530474914392551  0.54260452982507223 7.3278487454060048  0.56216258918538198 6.7099516244428008  0.58220025075733506 6.1128293582830908  0.60272140376495487 5.5373820889940104  0.62372870126476543 4.9845261800335301  0.64522326526137552 4.4551956456600426  0.66720456014723495 3.9503400488954883  0.68967022476106332 3.4709235062194237  0.71261589897882738 3.0179211763247786  0.73603512845624863 2.5923230096059799  0.75991899742172964 2.1951092233576621  0.78425682913145156 1.8273298460552316  0.80903575872990452 1.4900683055989705  0.83423963940510615 1.1843429948363391  0.85984988378572258 0.91118485143893624  0.88584492636405598 0.67161608108853266  0.91220132804685017 0.46663545182470528  0.93892190105031403 0.29708636525678939  0.96590664866274079 0.16426150154553426  0.9930363302633034 0.069284344063697295  1.0201411179383664 0.012559150876295496  1.0381885603475789 -5.4830707578503802e-06  1.0471975511965976 -5.4744680903860641e-15 
 2.4736073001670202e-07 4 0.0010686308200341659 1 0.0021370142793383151 1 0.0032053977386424641 1 0.0042737811979466139 1 0.0053421646572507633 1 0.0064105481165549118 1 0.0074789315758590613 1 0.0085473150351632107 1 0.0096156984944673601 1 0.010684081953771509 1 0.011752465413075659 1 0.012820848872379807 1 0.013889232331683956 1 0.014957615790988105 1 0.016025999250292255 1 0.017094382709596404 1 0.018162766168900554 1 0.019231149628204703 1 0.020299533087508852 1 0.021367916546813002 1 0.022436300006117151 1 0.023504683465421301 4
7 0 0  3 25 23  1.0471975511965976 -5.4744680903860641e-15  1.0562272131989903 -3.5731572454822436e-06  1.0742591169382485 0.012625799393426134  1.101187690902848 0.068991418110083996  1.127959466449465 0.16230657341591814  1.1545386625453655 0.29204333509779762  1.1808910144246572 0.45763469702054227  1.2069840335849447 0.6584942373681274  1.2327877846840702 0.89390451172976215  1.2582746756865812 1.1630902445432452  1.2834193692211069 1.4652624182453262  1.3081989115841828 1.7996067550784196  1.3325928314015243 2.1653001010827766  1.3565828906501909 2.561477318560835  1.3801546110756533 2.9872566604101145  1.4032913725329306 3.4416700897400361  1.4259989292457713 3.924194989509334  1.4482426158405155 4.4333578799281046  1.469989835176857 4.9675745898028367  1.4912035984416403 5.5248278988998152  1.5118936881880503 6.1042484710103055  1.5320644835307287 6.704830473013164  1.5517234120468788 7.3256357714940048  1.5644937252854405 7.752379717843116  1.5707963267948966 7.9688168030008928 
 0.023504683465421301 4 0.024575456896264732 1 0.025646230327108166 1 0.026717003757951597 1 0.027787777188795028 1 0.028858550619638459 1 0.02992932405048189 1 0.031000097481325324 1 0.032070870912168759 1 0.033141644343012186 1 0.03421241777385562 1 0.035283191204699055 1 0.036353964635542482 1 0.03742473806638591 1 0.038495511497229344 1 0.039566284928072779 1 0.040637058358916206 1 0.04170783178975964 1 0.042778605220603075 1 0.043849378651446502 1 0.044920152082289937 1 0.045990925513133371 1 0.047061698943976799 4
7 0 0  3 25 23  2.0943951023931957 -1.0948936180772119e-14  2.0853654403908024 -3.5731572441536207e-06  2.0673335366515446 0.012625799393431354  2.0404049626869458 0.06899141811008061  2.0136331871403277 0.16230657341591326  1.9870539910444274 0.29204333509779618  1.9607016391651364 0.45763469702055198  1.9346086200048485 0.65849423736814483  1.9088048689057235 0.89390451172978591  1.8833179779032121 1.163090244543272  1.8581732843686867 1.4652624182453586  1.8333937420056101 1.7996067550784358  1.8089998221882688 2.1653001010827917  1.7850097629396018 2.5614773185608399  1.7614380425141398 2.9872566604101558  1.738301281056863 3.4416700897400632  1.7155937243440222 3.9241949895093651  1.6933500377492783 4.4333578799281339  1.6716028184129355 4.9675745898028643  1.6503890551481544 5.5248278988998409  1.6296989654017426 6.1042484710103233  1.6095281700590645 6.7048304730131605  1.5898692415429141 7.3256357714940137  1.5770989283043526 7.7523797178431257  1.5707963267948968 7.9688168030008981 
 0.023504683465421301 4 0.024575456896264732 1 0.025646230327108166 1 0.026717003757951597 1 0.027787777188795028 1 0.028858550619638459 1 0.02992932405048189 1 0.031000097481325324 1 0.032070870912168759 1 0.033141644343012186 1 0.03421241777385562 1 0.035283191204699055 1 0.036353964635542482 1 0.03742473806638591 1 0.038495511497229344 1 0.039566284928072779 1 0.040637058358916206 1 0.04170783178975964 1 0.042778605220603075 1 0.043849378651446502 1 0.044920152082289937 1 0.045990925513133371 1 0.047061698943976799 4
7 0 0  3 25 23  2.617993877991494 7.9688168030008706  2.6117107484603004 7.7530474914392862  2.598988123764721 7.3278487454060315  2.5794300644044119 6.7099516244428088  2.5593924028324584 6.112829358283121  2.538871249824838 5.537382088994022  2.5178639523250279 4.9845261800335496  2.4963693883284175 4.4551956456600648  2.4743880934425579 3.9503400488955047  2.45192242882873 3.4709235062194406  2.4289767546109657 3.0179211763248106  2.4055575251335442 2.5923230096059906  2.3816736561680636 2.1951092233576941  2.357335824458342 1.8273298460552225  2.3325568948598878 1.4900683055989765  2.3073530141846872 1.1843429948363435  2.2817427698040702 0.91118485143894923  2.2557477272257374 0.67161608108853876  2.2293913255429429 0.46663545182470534  2.2026707525394791 0.29708636525681126  2.1756860049270519 0.16426150154554367  2.1485563233264893 0.069284344063675146  2.1214515356514272 0.012559150876290741  2.1034040932422142 -5.4830707590610562e-06  2.0943951023931957 -1.0948936180772119e-14 
 2.4736073004324999e-07 4 0.001068630820034191 1 0.0021370142793383389 1 0.003205397738642487 1 0.0042737811979466347 1 0.0053421646572507824 1 0.0064105481165549309 1 0.0074789315758590786 1 0.0085473150351632263 1 0.0096156984944673739 1 0.010684081953771522 1 0.011752465413075669 1 0.012820848872379819 1 0.013889232331683966 1 0.014957615790988114 1 0.016025999250292262 1 0.017094382709596411 1 0.018162766168900561 1 0.019231149628204706 1 0.020299533087508856 1 0.021367916546813002 1 0.022436300006117151 1 0.023504683465421301 4
7 0 0  3 25 23  1.5707963267948966 7.9688168030008928  1.5770794563260906 7.7530474914393164  1.5898020810216693 7.3278487454060706  1.6093601403819791 6.7099516244428496  1.629397801953933 6.1128293582831397  1.6499189549615532 5.5373820889940646  1.6709262524613633 4.9845261800335896  1.6924208164579742 4.4551956456600967  1.7144021113438339 3.9503400488955562  1.7368677759576623 3.470923506219477  1.7598134501754261 3.0179211763248279  1.7832326796528484 2.5923230096059906  1.8071165486183298 2.1951092233576883  1.8314543803280514 1.8273298460552254  1.8562333099265049 1.4900683055989701  1.8814371906017053 1.1843429948363422  1.9070474349823223 0.91118485143894823  1.9330424775606549 0.67161608108853921  1.9593988792434494 0.46663545182468985  1.9861194522469134 0.29708636525677229  2.0131041998593413 0.16426150154547955  2.0402338814599026 0.06928434406369216  2.067338669134966 0.012559150876296953  2.0853861115441776 -5.4830707584487251e-06  2.0943951023931957 -1.0948936180772128e-14 
 2.4736073000221998e-07 4 0.0010686308200341566 1 0.0021370142793383112 1 0.0032053977386424654 1 0.00427378119794662 1 0.0053421646572507746 1 0.0064105481165549283 1 0.0074789315758590829 1 0.0085473150351632367 1 0.0096156984944673913 1 0.010684081953771546 1 0.011752465413075701 1 0.012820848872379853 1 0.013889232331684008 1 0.014957615790988163 1 0.016025999250292321 1 0.017094382709596474 1 0.018162766168900626 1 0.019231149628204783 1 0.020299533087508936 1 0.021367916546813092 1 0.022436300006117245 1 0.023504683465421401 4
7 0 0  3 25 23  2.0943951023931957 -1.0948936180772128e-14  2.1034247643955881 -3.5731572591089966e-06  2.1214566681348468 0.012625799393406596  2.1483852420994474 0.068991418110075614  2.1751570176460651 0.1623065734159079  2.2017362137419658 0.29204333509781666  2.2280885656212583 0.45763469702054566  2.2541815847815441 0.65849423736809987  2.2799853358806703 0.89390451172974361  2.3054722268831815 1.1630902445432196  2.3306169204177056 1.4652624182453153  2.3553964627807829 1.7996067550784385  2.3797903825981219 2.1653001010827815  2.4037804418467901 2.5614773185608479  2.4273521622722507 2.9872566604100577  2.4504889237295284 3.4416700897399708  2.4731964804423687 3.9241949895092509  2.495440167037112 4.4333578799280406  2.5171873863734557 4.967574589802787  2.5384011496382373 5.5248278988997725  2.5590912393846486 6.1042484710102807  2.5792620347273267 6.7048304730130974  2.5989209632434767 7.3256357714939417  2.6116912764820377 7.7523797178430724  2.617993877991494 7.9688168030008661 
 0.023504683465421401 4 0.024575456896264829 1 0.025646230327108256 1 0.026717003757951684 1 0.027787777188795111 1 0.028858550619638539 1 0.029929324050481966 1 0.031000097481325394 1 0.032070870912168821 1 0.033141644343012248 1 0.034212417773855676 1 0.035283191204699103 1 0.036353964635542524 1 0.037424738066385951 1 0.038495511497229379 1 0.039566284928072806 1 0.040637058358916234 1 0.041707831789759661 1 0.042778605220603089 1 0.043849378651446516 1 0.044920152082289944 1 0.045990925513133371 1 0.047061698943976799 4
7 0 0  3 25 23  1.0471975511965976 -5.4744680903860594e-15  1.0381678891942048 -3.5731572555404087e-06  1.0201359854549461 0.01262579939340382  0.99320741149034619 0.06899141811006243  0.96643563594372817 0.16230657341591545  0.93985643984782707 0.2920433350978196  0.91350408796853544 0.4576346970205411  0.88741106880824794 0.65849423736812607  0.86160731770912302 0.89390451172977925  0.83612042670661235 1.1630902445432538  0.81097573317208727 1.4652624182453513  0.7861961908090106 1.7996067550784738  0.76180227099166997 2.1653001010827997  0.73781221174300327 2.5614773185608977  0.71424049131754042 2.9872566604101292  0.69110372986026303 3.4416700897400454  0.66839617314742283 3.9241949895093282  0.64615248655267987 4.433357879928101  0.62440526721633782 4.9675745898028509  0.60319150395155552 5.524827898899817  0.58250141420514456 6.104248471010318  0.5623306188624666 6.7048304730131303  0.54267169034631679 7.3256357714939675  0.5299013771077552 7.7523797178430822  0.52359877559829937 7.9688168030008653 
 0.023504683465421401 4 0.024575456896264829 1 0.025646230327108256 1 0.026717003757951684 1 0.027787777188795111 1 0.028858550619638539 1 0.029929324050481966 1 0.031000097481325394 1 0.032070870912168821 1 0.033141644343012248 1 0.034212417773855676 1 0.035283191204699103 1 0.036353964635542524 1 0.037424738066385951 1 0.038495511497229379 1 0.039566284928072806 1 0.040637058358916234 1 0.041707831789759661 1 0.042778605220603089 1 0.043849378651446516 1 0.044920152082289944 1 0.045990925513133371 1 0.047061698943976799 4
7 0 0  3 25 23  1.5707963267948968 7.9688168030008981  1.5645131972637032 7.7530474914393208  1.551790572568124 7.3278487454060706  1.5322325132078132 6.7099516244428532  1.5121948516358605 6.1128293582831379  1.4916736986282402 5.5373820889940815  1.4706664011284296 4.9845261800335869  1.4491718371318194 4.4551956456601243  1.4271905422459592 3.9503400488955585  1.4047248776321315 3.4709235062194819  1.3817792034143661 3.017921176324843  1.3583599739369447 2.5923230096060017  1.334476104971464 2.1951092233577039  1.3101382732617417 1.8273298460552312  1.2853593436632891 1.4900683055989674  1.2601554629880871 1.1843429948363484  1.2345452186074708 0.91118485143894223  1.2085501760291382 0.67161608108855753  1.1821937743463438 0.46663545182468902  1.1554732013428795 0.29708636525679533  1.128488453730452 0.16426150154551547  1.1013587721298903 0.069284344063722442  1.074253984454828 0.012559150876309551  1.0562065420456155 -5.4830707530628229e-06  1.0471975511965976 -5.4744680903860594e-15 
 2.4736073000200701e-07 4 0.0010686308200341563 1 0.0021370142793383107 1 0.0032053977386424649 1 0.00427378119794662 1 0.0053421646572507746 1 0.0064105481165549283 1 0.0074789315758590829 1 0.0085473150351632367 1 0.0096156984944673913 1 0.010684081953771546 1 0.011752465413075701 1 0.012820848872379853 1 0.013889232331684008 1 0.014957615790988163 1 0.016025999250292321 1 0.017094382709596474 1 0.018162766168900626 1 0.019231149628204783 1 0.020299533087508936 1 0.021367916546813092 1 0.022436300006117245 1 0.023504683465421401 4
7 0 0  3 25 23  3.6651914291880923 7.9688168030008608  3.6589476077606515 7.7543997203055453  3.6462888287545137 7.3312578890944486  3.6267750487916461 6.7145701325838694  3.606723397636562 6.1168470629233438  3.5861218141360083 5.5390573959390474  3.5649629248253341 4.9822862209940082  3.5432270331821414 4.4473504423188359  3.5209998934621294 3.9375793353329485  3.4983057015276575 3.4543410220814179  3.4751766492922425 2.9990835606455426  3.4516064249640426 2.5723465391873588  3.4276111507966229 2.1751189578341474  3.4032047687682967 1.8083020499018401  3.3784050156702712 1.4727862000800847  3.3532318950990629 1.1694225935635805  3.3277079354813082 0.89905451377086587  3.3018581011464692 0.66250158340400955  3.2757096698813077 0.46057024122770873  3.2492923274581091 0.29401394907581474  3.2226384391828784 0.16345727935906443  3.1957822242501837 0.069505770503773046  3.1687594984257501 0.012726560362828442  3.1506584567097802 -3.5487614205735159e-06  3.1415926535897931 0 
 0.032849188445817898 4 0.033917444310772406 1 0.034985700175726914 1 0.036053956040681429 1 0.037122211905635936 1 0.038190467770590444 1 0.039258723635544952 1 0.04032697950049946 1 0.041395235365453975 1 0.042463491230408483 1 0.043531747095362991 1 0.044600002960317499 1 0.045668258825272007 1 0.046736514690226522 1 0.047804770555181023 1 0.048873026420135537 1 0.049941282285090045 1 0.051009538150044553 1 0.052077794014999068 1 0.053146049879953569 1 0.054214305744908084 1 0.055282561609862592 1 0.0563508174748171 4
7 0 0  3 25 23  5.7595865315812871 7.9688168030008653  5.7658303530087283 7.7543997203055532  5.7784891320148661 7.33125788909447  5.7980029119777328 6.7145701325839156  5.8180545631328178 6.1168470629233669  5.8386561466333688 5.5390573959390768  5.8598150359440453 4.982286220994026  5.881550927587238 4.4473504423188492  5.9037780673072495 3.9375793353329649  5.9264722592417236 3.4543410220814565  5.9496013114771387 2.9990835606455715  5.9731715358053332 2.5723465391873868  5.9971668099727564 2.1751189578341714  6.0215731920010809 1.8083020499018529  6.0463729450991126 1.4727862000800815  6.0715460656703133 1.1694225935635765  6.0970700252880725 0.8990545137708692  6.1229198596229111 0.66250158340399701  6.1490682908880707 0.46057024122770696  6.175485633311272 0.29401394907582135  6.2021395215865009 0.16345727935905952  6.2289957365191961 0.069505770503779166  6.2560184623436292 0.01272656036282265  6.2741195040595983 -3.5487614254237909e-06  6.2831853071795871 0 
 0.032849188445817801 4 0.033917444310772309 1 0.034985700175726817 1 0.036053956040681331 1 0.037122211905635839 1 0.038190467770590347 1 0.039258723635544855 1 0.040326979500499363 1 0.041395235365453878 1 0.042463491230408386 1 0.043531747095362894 1 0.044600002960317402 1 0.04566825882527191 1 0.046736514690226424 1 0.047804770555180925 1 0.04887302642013544 1 0.049941282285089948 1 0.051009538150044456 1 0.052077794014998971 1 0.053146049879953472 1 0.054214305744907987 1 0.055282561609862495 1 0.056350817474817003 4
7 0 0  3 47 45  0 0  0.0045148727602911378 -8.5951805449583736e-08  0.013551852166304364 0.003150203417357294  0.027125373194935624 0.017371271157704437  0.040709840325424483 0.041119753042719316  0.054310244023770438 0.074471072466227251  0.067892400623764088 0.11735066268572125  0.081417088359926226 0.16961097702525724  0.094878170894850358 0.23114028130619041  0.10827322330933478 0.30184260401754576  0.12159774796493925 0.38161323169824685  0.13484798064817533 0.47034764932892964  0.14802015082081785 0.56793867390896602  0.16111066520241818 0.67427968923027537  0.1741161289822247 0.78925653086381564  0.18703332585460949 0.91275187596325469  0.19985919441537101 1.0446478453738681  0.21259083678729301 1.1848254590950684  0.22522551785178191 1.3331649314647842  0.23776066616955233 1.4895457484901153  0.25019387401020099 1.6538467685764144  0.26252289587486421 1.8259464367151419  0.2747456507173674 2.0057225083138981  0.28686020783315191 2.1930536057460639  0.29886483151915449 2.3878139171948574  0.31075794584424565 2.5898770242623881  0.32253809068988376 2.7991208069516573  0.33420396540586572 3.0154221350766961  0.3457544123387985 3.238658392838937  0.35718841818907948 3.4687072283950626  0.36850510253999014 3.7054465456988246  0.37970373842827276 3.948755277087828  0.39078365632977385 4.1985107650445377  0.40174458138504404 4.4545989006946689  0.41258535337314978 4.7168766002647944  0.42330868174920538 4.9853121470851081  0.43391434834768816 5.259799166030362  0.44439859924209302 5.5401172231967362  0.45475890179285472 5.8260723301388619  0.4649926657672428 6.117459566492168  0.4750975808578255 6.4140733631509494  0.48507152087310845 6.7157050052748177  0.49491256151955154 7.0221435719432526  0.5046189741658984 7.3331758823988702  0.51418919944582964 7.6485869491937652  0.52047768196019328 7.8616352259595557  0.52359877559829937 7.9688168030008653 
 0.056350817474817003 4 0.056882821634609476 1 0.05741482579440195 1 0.057946829954194423 1 0.05847883411398689 1 0.059010838273779363 1 0.059542842433571837 1 0.06007484659336431 1 0.060606850753156784 1 0.061138854912949257 1 0.061670859072741731 1 0.062202863232534197 1 0.062734867392326671 1 0.063266871552119144 1 0.063798875711911618 1 0.064330879871704091 1 0.064862884031496565 1 0.065394888191289038 1 0.065926892351081512 1 0.066458896510873985 1 0.066990900670666459 1 0.067522904830458919 1 0.068054908990251406 1 0.068586913150043866 1 0.069118917309836339 1 0.069650921469628813 1 0.070182925629421286 1 0.07071492978921376 1 0.071246933949006233 1 0.071778938108798707 1 0.07231094226859118 1 0.072842946428383654 1 0.073374950588176127 1 0.073906954747968601 1 0.07443895890776106 1 0.074970963067553548 1 0.075502967227346007 1 0.076034971387138495 1 0.076566975546930954 1 0.077098979706723428 1 0.077630983866515901 1 0.078162988026308375 1 0.078694992186100848 1 0.079226996345893322 1 0.079759000505685795 4
7 0 0  3 47 45  3.1415926535897931 0  3.1370777808295016 -8.5951804125282782e-08  3.1280408014234893 0.0031502034173591545  3.1144672803948574 0.017371271157702248  3.1008828132643691 0.04111975304273012  3.0872824095660225 0.07447107246621891  3.07370025296603 0.11735066268569229  3.0601755652298666 0.16961097702523148  3.0467144826949442 0.23114028130617345  3.033319430280458 0.30184260401753654  3.0199949056248552 0.38161323169822725  3.0067446729416183 0.47034764932890255  2.9935725027689766 0.56793867390894148  2.9804819883873752 0.67427968923024628  2.9674765246075685 0.78925653086379322  2.9545593277351836 0.91275187596321894  2.9417334591744226 1.044647845373851  2.9290018168025003 1.1848254590950558  2.9163671357380121 1.333164931464752  2.9038319874202401 1.4895457484901025  2.8913987795795917 1.6538467685764002  2.8790697577149285 1.825946436715135  2.8668470028724258 2.0057225083138981  2.8547324457566399 2.1930536057460537  2.8427278220706391 2.3878139171948582  2.8308347077455469 2.5898770242623876  2.8190545628999084 2.7991208069516604  2.8073886881839267 3.0154221350766846  2.7958382412509937 3.2386583928389392  2.784404235400713 3.4687072283950444  2.773087551049803 3.7054465456988219  2.7618889151615202 3.9487552770877956  2.7508089972600178 4.1985107650445324  2.7398480722047491 4.4545989006946369  2.7290073002166424 4.7168766002647713  2.718283971840588 4.9853121470850832  2.7076783052421045 5.2597991660303336  2.6971940543476993 5.540117223196706  2.6868337517969385 5.8260723301388389  2.6765999878225499 6.117459566492145  2.6664950727319674 6.4140733631509148  2.6565211327166849 6.7157050052747991  2.6466800920702411 7.0221435719432401  2.6369736794238956 7.3331758823988666  2.627403454143963 7.6485869491937413  2.6211149716295998 7.8616352259595423  2.617993877991494 7.9688168030008661 
 0.0563508174748171 4 0.056882821634609573 1 0.05741482579440204 1 0.057946829954194513 1 0.05847883411398698 1 0.059010838273779453 1 0.05954284243357192 1 0.060074846593364394 1 0.06060685075315686 1 0.061138854912949334 1 0.061670859072741807 1 0.062202863232534274 1 0.06273486739232674 1 0.063266871552119214 1 0.063798875711911687 1 0.064330879871704161 1 0.06486288403149662 1 0.065394888191289094 1 0.065926892351081567 1 0.066458896510874041 1 0.066990900670666514 1 0.067522904830458974 1 0.068054908990251448 1 0.068586913150043921 1 0.069118917309836381 1 0.069650921469628854 1 0.070182925629421328 1 0.070714929789213801 1 0.071246933949006275 1 0.071778938108798734 1 0.072310942268591208 1 0.072842946428383681 1 0.073374950588176155 1 0.073906954747968628 1 0.074438958907761088 1 0.074970963067553562 1 0.075502967227346035 1 0.076034971387138495 1 0.076566975546930982 1 0.077098979706723442 1 0.077630983866515915 1 0.078162988026308389 1 0.078694992186100848 1 0.079226996345893322 1 0.079759000505685795 4
7 0 0  3 25 23  3.6651914291880923 7.9688168030008608  3.6714745587192863 7.7530474914392942  3.6841971834148652 7.327848745406059  3.703755242775177 6.7099516244428479  3.7237929043471274 6.1128293582831557  3.74431405735475 5.5373820889940832  3.7653213548545592 4.9845261800335985  3.7868159188511719 4.4551956456601172  3.8087972137370301 3.9503400488955553  3.8312628783508584 3.4709235062194814  3.854208552568624 3.0179211763248528  3.8776277820460452 2.5923230096060372  3.9015116510115266 2.1951092233577381  3.9258494827212473 1.8273298460552803  3.9506284123197006 1.4900683055990176  3.9758322929949017 1.1843429948363964  4.0014425373755156 0.91118485143897032  4.0274375799538502 0.67161608108856052  4.0537939816366437 0.46663545182472582  4.0805145546401063 0.29708636525682064  4.1074993022525357 0.16426150154559988  4.134628983853097 0.0692843440637817  4.1617337715281613 0.012559150876363251  4.1797812139373729 -5.4830707322156141e-06  4.1887902047863905 -1.0948936180772128e-14 
 2.4736073000294599e-07 4 0.0010686308200341529 1 0.0021370142793383025 1 0.0032053977386424523 1 0.0042737811979466026 1 0.005342164657250752 1 0.0064105481165549023 1 0.0074789315758590526 1 0.008547315035163202 1 0.0096156984944673514 1 0.010684081953771501 1 0.011752465413075652 1 0.012820848872379801 1 0.013889232331683951 1 0.014957615790988102 1 0.016025999250292251 1 0.017094382709596401 1 0.01816276616890055 1 0.0192311496282047 1 0.020299533087508849 1 0.021367916546812998 1 0.022436300006117151 1 0.023504683465421301 4
7 0 0  3 25 23  4.1887902047863905 -1.0948936180772128e-14  4.1978198667887838 -3.573157248690729e-06  4.2158517705280412 0.012625799393436818  4.2427803444926404 0.068991418110127323  4.2695521200392585 0.16230657341599128  4.296131316135158 0.29204333509787805  4.3224836680144518 0.4576346970206121  4.3485766871747389 0.6584942373681717  4.3743804382738629 0.89390451172982743  4.3998673292763764 1.1630902445433231  4.4250120228109004 1.4652624182454057  4.449791565173979 1.7996067550785464  4.4741854849913185 2.165300101082885  4.4981755442399853 2.5614773185609403  4.5217472646654482 2.98725666041019  4.5448840261227259 3.4416700897401027  4.5675915828355667 3.9241949895094228  4.5898352694303108 4.4333578799282485  4.6115824887666514 4.9675745898029673  4.6327962520314347 5.5248278988999431  4.6534863417778451 6.1042484710104343  4.6736571371205233 6.7048304730132369  4.6933160656366724 7.325635771494059  4.7060863788752352 7.7523797178431408  4.7123889803846915 7.9688168030008928 
 0.023504683465421301 4 0.024575456896264739 1 0.025646230327108173 1 0.026717003757951611 1 0.027787777188795045 1 0.028858550619638483 1 0.029929324050481917 1 0.031000097481325355 1 0.032070870912168793 1 0.033141644343012228 1 0.034212417773855662 1 0.035283191204699096 1 0.036353964635542538 1 0.037424738066385972 1 0.038495511497229407 1 0.039566284928072848 1 0.040637058358916282 1 0.041707831789759717 1 0.042778605220603158 1 0.043849378651446592 1 0.044920152082290027 1 0.045990925513133468 1 0.047061698943976903 4
7 0 0  3 25 23  5.2359877559829888 -5.4744680903860594e-15  5.2269580939805955 -3.5731572360416311e-06  5.2089261902413382 0.012625799393458042  5.1819976162767381 0.068991418110151248  5.155225840730119 0.16230657341600804  5.1286466446342196 0.29204333509790226  5.1022942927549275 0.45763469702062792  5.0762012735946405 0.65849423736819479  5.0503975224955155 0.89390451172982377  5.024910631493003 1.1630902445433295  4.999765937958478 1.4652624182454033  4.9749863955954003 1.7996067550785584  4.9505924757780608 2.1653001010829147  4.9266024165293931 2.5614773185609669  4.9030306961039303 2.987256660410186  4.8798939346466543 3.4416700897400991  4.8571863779338136 3.9241949895094224  4.8349426913390694 4.433357879928244  4.8131954720027279 4.9675745898029673  4.7919817087379446 5.5248278988999457  4.7712916189915342 6.1042484710104432  4.7511208236488569 6.7048304730132573  4.7314618951327043 7.3256357714940661  4.7186915818941442 7.7523797178431462  4.7123889803846879 7.9688168030008981 
 0.023504683465421301 4 0.024575456896264739 1 0.025646230327108173 1 0.026717003757951611 1 0.027787777188795045 1 0.028858550619638483 1 0.029929324050481917 1 0.031000097481325355 1 0.032070870912168793 1 0.033141644343012228 1 0.034212417773855662 1 0.035283191204699096 1 0.036353964635542538 1 0.037424738066385972 1 0.038495511497229407 1 0.039566284928072848 1 0.040637058358916282 1 0.041707831789759717 1 0.042778605220603158 1 0.043849378651446592 1 0.044920152082290027 1 0.045990925513133468 1 0.047061698943976903 4
7 0 0  3 25 23  5.7595865315812871 7.9688168030008653  5.7533034020500944 7.7530474914392968  5.7405807773545146 7.3278487454060608  5.7210227179942033 6.7099516244428532  5.700985056422252 6.1128293582831645  5.6804639034146307 5.5373820889940975  5.6594566059148192 4.9845261800336171  5.6379620419182102 4.4551956456601438  5.6159807470323502 3.9503400488955775  5.5935150824185218 3.4709235062195241  5.5705694082007575 3.0179211763248794  5.5471501787233359 2.5923230096060723  5.5232663097578554 2.1951092233577865  5.4989284780481347 1.8273298460553264  5.4741495484496818 1.4900683055990966  5.4489456677744812 1.1843429948364921  5.4233354233938638 0.91118485143905381  5.3973403808155309 0.67161608108863757  5.3709839791327347 0.46663545182472993  5.3442634061292722 0.29708636525682591  5.3172786585168437 0.16426150154558103  5.2901489769162815 0.069284344063810496  5.263044189241219 0.012559150876372922  5.2449967468320073 -5.4830707282593934e-06  5.2359877559829888 -5.4744680903860594e-15 
 2.4736073001902501e-07 4 0.0010686308200341683 1 0.0021370142793383172 1 0.0032053977386424662 1 0.0042737811979466156 1 0.005342164657250765 1 0.0064105481165549136 1 0.007478931575859063 1 0.0085473150351632124 1 0.0096156984944673618 1 0.010684081953771511 1 0.011752465413075661 1 0.012820848872379808 1 0.013889232331683958 1 0.014957615790988107 1 0.016025999250292258 1 0.017094382709596408 1 0.018162766168900557 1 0.019231149628204706 1 0.020299533087508856 1 0.021367916546813005 1 0.022436300006117155 1 0.023504683465421301 4
7 0 0  3 25 23  4.7123889803846915 7.9688168030008928  4.718672109915885 7.7530474914393182  4.7313947346114631 7.3278487454060697  4.7509527939717762 6.7099516244428488  4.7709904555437275 6.1128293582831317  4.7915116085513496 5.5373820889940779  4.8125189060511566 4.9845261800335985  4.8340134700477702 4.4551956456601083  4.8559947649336275 3.9503400488955736  4.8784604295474567 3.4709235062195027  4.9014061037652201 3.0179211763248603  4.9248253332426435 2.5923230096060599  4.9487092022081214 2.1951092233577518  4.9730470339178456 1.8273298460552838  4.9978259635162958 1.490068305599042  5.0230298441914982 1.1843429948364108  5.0486400885721157 0.91118485143899863  5.0746351311504458 0.6716160810886076  5.100991532833242 0.46663545182477706  5.1277121058367037 0.29708636525686766  5.154696853449134 0.16426150154559291  5.1818265350496944 0.069284344063764006  5.2089313227247587 0.012559150876346261  5.2269787651339712 -5.4830707359570103e-06  5.2359877559829888 -5.4744680903860641e-15 
 2.4736073010256702e-07 4 0.0010686308200342524 1 0.0021370142793384022 1 0.0032053977386425521 1 0.0042737811979467015 1 0.0053421646572508509 1 0.0064105481165550012 1 0.0074789315758591515 1 0.0085473150351633009 1 0.0096156984944674503 1 0.0106840819537716 1 0.011752465413075751 1 0.0128208488723799 1 0.01388923233168405 1 0.014957615790988201 1 0.016025999250292352 1 0.017094382709596501 1 0.018162766168900651 1 0.0192311496282048 1 0.02029953308750895 1 0.021367916546813099 1 0.022436300006117252 1 0.023504683465421401 4
7 0 0  3 25 23  5.2359877559829888 -5.4744680903860641e-15  5.2450174179853812 -3.5731572385104907e-06  5.2630493217246386 0.012625799393443512  5.2899778956892396 0.068991418110113834  5.3167496712358577 0.16230657341595944  5.3433288673317589 0.29204333509787078  5.3696812192110501 0.45763469702058707  5.3957742383713354 0.65849423736815882  5.4215779894704621 0.89390451172980978  5.447064880472972 1.1630902445433067  5.472209574007497 1.4652624182453806  5.4969891163705755 1.7996067550785111  5.521383036187915 2.1653001010828223  5.5453730954365827 2.5614773185609159  5.5689448158620447 2.987256660410162  5.5920815773193198 3.4416700897400676  5.6147891340321623 3.924194989509378  5.6370328206269056 4.4333578799281739  5.6587800399632489 4.9675745898028705  5.6799938032280295 5.5248278988998214  5.7006838929744408 6.1042484710103402  5.7208546883171181 6.7048304730131303  5.7405136168332689 7.3256357714939817  5.7532839300718308 7.7523797178430902  5.7595865315812871 7.9688168030008608 
 0.023504683465421401 4 0.024575456896264829 1 0.025646230327108256 1 0.026717003757951684 1 0.027787777188795111 1 0.028858550619638539 1 0.029929324050481966 1 0.031000097481325394 1 0.032070870912168821 1 0.033141644343012248 1 0.034212417773855676 1 0.035283191204699103 1 0.036353964635542524 1 0.037424738066385951 1 0.038495511497229379 1 0.039566284928072806 1 0.040637058358916234 1 0.041707831789759661 1 0.042778605220603089 1 0.043849378651446516 1 0.044920152082289944 1 0.045990925513133371 1 0.047061698943976799 4
7 0 0  3 25 23  4.1887902047863905 -1.0948936180772119e-14  4.1797605427839981 -3.5731572324368232e-06  4.1617286390447399 0.012625799393463958  4.1348000650801398 0.068991418110138952  4.1080282895335207 0.16230657341598537  4.0814490934376204 0.29204333509789387  4.0550967415583301 0.45763469702060455  4.0290037223980395 0.65849423736817991  4.0031999712989172 0.89390451172981977  3.977713080296406 1.1630902445432896  3.952568386761881 1.46526241824536  3.9277888443988034 1.7996067550784811  3.903394924581463 2.1653001010827961  3.8794048653327975 2.5614773185609039  3.8558331449073342 2.9872566604101727  3.8326963834500583 3.4416700897401  3.8099888267372166 3.9241949895093988  3.7877451401424733 4.4333578799281925  3.7659979208061305 4.9675745898029104  3.7447841575413485 5.5248278988998392  3.724094067794939 6.1042484710103579  3.7039232724522595 6.7048304730131392  3.6842643439361114 7.3256357714939879  3.671494030697549 7.7523797178430947  3.6651914291880923 7.9688168030008653 
 0.023504683465421401 4 0.024575456896264829 1 0.025646230327108256 1 0.026717003757951684 1 0.027787777188795111 1 0.028858550619638539 1 0.029929324050481966 1 0.031000097481325394 1 0.032070870912168821 1 0.033141644343012248 1 0.034212417773855676 1 0.035283191204699103 1 0.036353964635542524 1 0.037424738066385951 1 0.038495511497229379 1 0.039566284928072806 1 0.040637058358916234 1 0.041707831789759661 1 0.042778605220603089 1 0.043849378651446516 1 0.044920152082289944 1 0.045990925513133371 1 0.047061698943976799 4
7 0 0  3 25 23  4.7123889803846879 7.9688168030008981  4.7061058508534943 7.7530474914393235  4.6933832261579163 7.3278487454060839  4.6738251667976041 6.7099516244428745  4.653787505225651 6.1128293582831779  4.6332663522180306 5.5373820889940948  4.612259054718221 4.9845261800336242  4.590764490721611 4.4551956456601278  4.5687831958357501 3.9503400488955873  4.5463175312219226 3.4709235062194952  4.5233718570041574 3.0179211763248812  4.4999526275267376 2.592323009606051  4.4760687585612553 2.1951092233577403  4.4517309268515346 1.8273298460552836  4.4269519972530809 1.4900683055990303  4.4017481165778811 1.1843429948364173  4.3761378721972637 0.91118485143900019  4.3501428296189326 0.67161608108858328  4.3237864279361382 0.46663545182471744  4.2970658549326739 0.29708636525683169  4.2700811073202463 0.16426150154561628  4.2429514257196823 0.069284344063809594  4.2158466380446207 0.012559150876374044  4.1977991956354082 -5.4830707304721408e-06  4.1887902047863905 -1.0948936180772119e-14 
 2.4736073010153798e-07 4 0.0010686308200342515 1 0.0021370142793384018 1 0.0032053977386425517 1 0.0042737811979467015 1 0.0053421646572508518 1 0.0064105481165550012 1 0.0074789315758591515 1 0.0085473150351633026 1 0.009615698494467452 1 0.010684081953771603 1 0.011752465413075753 1 0.012820848872379902 1 0.013889232331684053 1 0.014957615790988203 1 0.016025999250292352 1 0.017094382709596501 1 0.018162766168900651 1 0.0192311496282048 1 0.020299533087508953 1 0.021367916546813102 1 0.022436300006117252 1 0.023504683465421401 4
7 0 0  3 25 23  5.7595865315812871 7.9688168030008608  5.7658303530087283 7.7543997203055453  5.7784891320148661 7.3312578890944504  5.7980029119777328 6.7145701325838871  5.8180545631328178 6.1168470629233367  5.8386561466333688 5.5390573959390501  5.8598150359440453 4.9822862209940064  5.881550927587238 4.4473504423188395  5.9037780673072495 3.937579335332936  5.9264722592417236 3.4543410220814215  5.9496013114771387 2.9990835606455342  5.9731715358053332 2.5723465391873637  5.9971668099727564 2.1751189578341594  6.0215731920010818 1.8083020499018478  6.0463729450991108 1.4727862000800951  6.0715460656703133 1.1694225935635794  6.0970700252880725 0.89905451377086876  6.1229198596229111 0.66250158340400045  6.1490682908880707 0.4605702412277084  6.175485633311272 0.29401394907582323  6.2021395215865009 0.16345727935906199  6.2289957365191961 0.069505770503773545  6.2560184623436292 0.012726560362828218  6.2741195040595983 -3.5487614205861667e-06  6.2831853071795871 0 
 0.032849188445817801 4 0.033917444310772309 1 0.034985700175726817 1 0.036053956040681331 1 0.037122211905635839 1 0.038190467770590347 1 0.039258723635544855 1 0.040326979500499363 1 0.041395235365453878 1 0.042463491230408386 1 0.043531747095362894 1 0.044600002960317402 1 0.04566825882527191 1 0.046736514690226424 1 0.047804770555180925 1 0.04887302642013544 1 0.049941282285089948 1 0.051009538150044456 1 0.052077794014998971 1 0.053146049879953472 1 0.054214305744907987 1 0.055282561609862495 1 0.056350817474817003 4
7 0 0  3 47 45  0 0  0.0045148727602910884 -8.5951804124337744e-08  0.013551852166304163 0.0031502034173592117  0.027125373194935243 0.017371271157702255  0.040709840325423879 0.0411197530427303  0.054310244023769848 0.074471072466217439  0.06789240062376356 0.11735066268568849  0.081417088359925546 0.16961097702522857  0.094878170894849526 0.23114028130616809  0.10827322330933371 0.30184260401754398  0.12159774796493809 0.38161323169822503  0.13484798064817413 0.47034764932890061  0.14802015082081679 0.56793867390895358  0.16111066520241712 0.67427968923023729  0.17411612898222387 0.78925653086378633  0.1870333258546088 0.91275187596322405  0.19985919441537031 1.044647845373835  0.21259083678729254 1.1848254590950422  0.22522551785178155 1.3331649314647442  0.23776066616955194 1.489545748490096  0.25019387401020055 1.6538467685763791  0.26252289587486394 1.8259464367151221  0.27474565071736684 2.0057225083138772  0.28686020783315136 2.1930536057460346  0.29886483151915377 2.3878139171948427  0.31075794584424504 2.5898770242623583  0.32253809068988282 2.7991208069516254  0.33420396540586483 3.0154221350766708  0.34575441233879739 3.2386583928389041  0.35718841818907848 3.4687072283950031  0.36850510253998903 3.7054465456987913  0.37970373842827165 3.9487552770877592  0.39078365632977291 4.1985107650444951  0.40174458138504332 4.4545989006946076  0.41258535337314955 4.7168766002647313  0.42330868174920494 4.9853121470850601  0.43391434834768794 5.2597991660302945  0.44439859924209285 5.5401172231966846  0.45475890179285422 5.8260723301388078  0.46499266576724241 6.1174595664921068  0.47509758085782494 6.4140733631508793  0.48507152087310745 6.7157050052747556  0.49491256151955104 7.0221435719432073  0.50461897416589774 7.3331758823988276  0.51418919944582908 7.6485869491937271  0.52047768196019306 7.8616352259595228  0.52359877559829937 7.9688168030008413 
 0.056350817474817003 4 0.056882821634609476 1 0.057414825794401943 1 0.057946829954194416 1 0.058478834113986883 1 0.059010838273779356 1 0.059542842433571823 1 0.060074846593364296 1 0.060606850753156763 1 0.061138854912949236 1 0.06167085907274171 1 0.062202863232534177 1 0.062734867392326643 1 0.063266871552119117 1 0.06379887571191159 1 0.064330879871704064 1 0.064862884031496523 1 0.065394888191288997 1 0.06592689235108147 1 0.066458896510873944 1 0.066990900670666403 1 0.067522904830458877 1 0.06805490899025135 1 0.068586913150043824 1 0.069118917309836297 1 0.069650921469628757 1 0.070182925629421231 1 0.070714929789213704 1 0.071246933949006178 1 0.071778938108798637 1 0.072310942268591111 1 0.072842946428383584 1 0.073374950588176058 1 0.073906954747968517 1 0.074438958907760991 1 0.074970963067553464 1 0.075502967227345938 1 0.076034971387138411 1 0.076566975546930871 1 0.077098979706723345 1 0.077630983866515818 1 0.078162988026308292 1 0.078694992186100765 1 0.079226996345893225 1 0.079759000505685698 4
7 0 0  3 47 45  3.1415926535897931 0  3.1370777808295016 -8.5951805312869508e-08  3.1280408014234893 0.0031502034173572992  3.1144672803948574 0.017371271157703996  3.1008828132643687 0.041119753042715923  3.087282409566023 0.074471072466227708  3.07370025296603 0.11735066268572254  3.0601755652298666 0.16961097702525038  3.0467144826949442 0.23114028130618491  3.033319430280458 0.30184260401754054  3.0199949056248556 0.38161323169824291  3.0067446729416178 0.47034764932891798  2.993572502768977 0.56793867390897013  2.9804819883873757 0.67427968923025416  2.9674765246075694 0.78925653086380732  2.954559327735184 0.91275187596324359  2.9417334591744226 1.0446478453738592  2.9290018168025016 1.1848254590950635  2.9163671357380121 1.3331649314647738  2.9038319874202414 1.4895457484901038  2.8913987795795935 1.6538467685763962  2.8790697577149302 1.8259464367151319  2.8668470028724267 2.005722508313875  2.8547324457566425 2.1930536057460452  2.84272782207064 2.3878139171948396  2.8308347077455487 2.5898770242623659  2.8190545628999111 2.7991208069516325  2.8073886881839285 3.0154221350766766  2.7958382412509954 3.2386583928389201  2.7844042354007152 3.4687072283950302  2.7730875510498048 3.705446545698809  2.761888915161522 3.9487552770877969  2.7508089972600214 4.1985107650445181  2.73984807220475 4.4545989006946343  2.7290073002166446 4.716876600264774  2.7182839718405898 4.9853121470850894  2.7076783052421054 5.2597991660303274  2.6971940543477011 5.540117223196714  2.6868337517969394 5.8260723301388477  2.6765999878225508 6.1174595664921405  2.6664950727319687 6.4140733631509255  2.6565211327166853 6.7157050052748071  2.646680092070242 7.0221435719432455  2.6369736794238947 7.3331758823988711  2.6274034541439648 7.6485869491937599  2.6211149716295998 7.861635225959553  2.617993877991494 7.9688168030008706 
 0.056350817474817003 4 0.056882821634609476 1 0.057414825794401943 1 0.057946829954194416 1 0.058478834113986883 1 0.059010838273779356 1 0.059542842433571823 1 0.060074846593364296 1 0.060606850753156763 1 0.061138854912949236 1 0.06167085907274171 1 0.062202863232534177 1 0.062734867392326643 1 0.063266871552119117 1 0.06379887571191159 1 0.064330879871704064 1 0.064862884031496523 1 0.065394888191288997 1 0.06592689235108147 1 0.066458896510873944 1 0.066990900670666403 1 0.067522904830458877 1 0.06805490899025135 1 0.068586913150043824 1 0.069118917309836297 1 0.069650921469628757 1 0.070182925629421231 1 0.070714929789213704 1 0.071246933949006178 1 0.071778938108798637 1 0.072310942268591111 1 0.072842946428383584 1 0.073374950588176058 1 0.073906954747968517 1 0.074438958907760991 1 0.074970963067553464 1 0.075502967227345938 1 0.076034971387138411 1 0.076566975546930871 1 0.077098979706723345 1 0.077630983866515818 1 0.078162988026308292 1 0.078694992186100765 1 0.079226996345893225 1 0.079759000505685698 4
7 0 0  3 25 23  3.6651914291880923 7.9688168030008653  3.6589476077606515 7.7543997203055506  3.6462888287545137 7.3312578890944691  3.626775048791647 6.7145701325839244  3.6067233976365611 6.1168470629233633  3.5861218141360083 5.5390573959390776  3.5649629248253341 4.9822862209940268  3.5432270331821414 4.4473504423188466  3.5209998934621294 3.9375793353329747  3.4983057015276575 3.4543410220814512  3.4751766492922425 2.9990835606455808  3.4516064249640426 2.5723465391873868  3.4276111507966225 2.175118957834163  3.403204768768298 1.8083020499018532  3.3784050156702707 1.4727862000800906  3.3532318950990629 1.1694225935635747  3.3277079354813082 0.89905451377086787  3.3018581011464692 0.66250158340400545  3.2757096698813077 0.46057024122770707  3.2492923274581091 0.29401394907581241  3.2226384391828784 0.1634572793590624  3.1957822242501837 0.069505770503776501  3.1687594984257501 0.012726560362830453  3.1506584567097802 -3.5487614199511021e-06  3.1415926535897931 0 
 0.032849188445817801 4 0.033917444310772309 1 0.034985700175726817 1 0.036053956040681331 1 0.037122211905635839 1 0.038190467770590347 1 0.039258723635544855 1 0.040326979500499363 1 0.041395235365453878 1 0.042463491230408386 1 0.043531747095362894 1 0.044600002960317402 1 0.04566825882527191 1 0.046736514690226424 1 0.047804770555180925 1 0.04887302642013544 1 0.049941282285089948 1 0.051009538150044456 1 0.052077794014998971 1 0.053146049879953472 1 0.054214305744907987 1 0.055282561609862495 1 0.056350817474817003 4
1 0 0 1 0 
1 0 0 1 0 
1 -8.8817841970012523e-16 0 1 0 
1 0 0 1 0 
1 3.1415926535897931 0 -1 0 
1 0 0 1 0 
1 6.2831853071795862 -27.7622 -1 0 
1 3.1415926535897931 0 1 0 
1 -3.1415926535897967 -3.2846808542316478e-14 1 5.2277319443027605e-15 
1 -3.1415926535897913 -5.4744680903860594e-15 1 0 
1 0 0 1 0 
1 3.1415926535897913 0 1 0 
1 3.141592653589794 -1.0948936180772109e-14 1 5.2277319443027384e-15 
1 6.2831853071795862 0 -1 0 
1 3.1415926535897931 28.968699999999899 0 1 
1 3.1415926535897931 28.968699999999899 0 1 
1 6.2831853071795862 23.0123999999999 -1 0 
1 6.204645490839841 0 0 1 
1 6.2831853071795862 34.924999999999898 -1 0 
1 6.2831853071795862 23.0123999999999 -1 0 
1 6.204645490839841 0 0 -1 
1 6.2831853071795862 34.924999999999898 -1 0 
1 3.1415926535897931 28.968699999999899 0 -1 
1 3.1415926535897931 28.968699999999899 0 -1 
1 6.2831853071795862 34.924999999999898 -1 0 
1 0.078539816339745688 0 0 -1 
1 6.2831853071795862 23.0123999999999 -1 0 
1 6.2831853071795862 34.924999999999898 -1 0 
1 0.078539816339745577 0 0 1 
1 6.2831853071795862 23.0123999999999 -1 0 
Curves 66
1 25.399999999999999 0 -27.7622 0 0 1 
2 0 0 0 0 0 1 1 0 -0 -0 1 0 25.399999999999999
1 -25.399999999999999 3.1106028698342702e-15 -27.7622 0 0 1 
2 0 0 -27.7622 0 0 1 1 0 -0 -0 1 0 25.399999999999999
1 -39.6875 22.913588808463299 -27.7622 0 0 1 
7 0 0  3 10 5  -39.6875 22.913588808463299 -5.0799999999999601  -36.5201359432671 24.742267299239501 -3.5669422610182902  -33.299340741066601 26.6017942762346 -2.2965680100310499  -28.343879888854701 29.462830933217798 -0.95543030989178401  -26.671194133106699 30.428556504568601 -0.60315507966700399  -24.1248924260947 31.89866448055 -0.24403599322988001  -23.2675581307935 32.393646666727697 -0.15238375520706299  -21.550357013648501 33.385073193963997 -0.030276743892631099  -20.6953070512855 33.878736519904898 1.29596040929908e-16  -19.84375 34.370383212694897 0 
 2.4736073001670202e-07 4 0.011752465413075701 2 0.0176285744392485 2 0.020566628952334898 2 0.023504683465421301 4
7 0 0  3 12 6  -19.84375 34.370383212694897 0  -18.136826034782999 35.355876223499202 -2.7443867491039301e-16  -16.443981072597101 36.333240718113501 -0.122037566822324  -13.0842736733549 38.272968689464399 -0.591330646634741  -11.4173864598934 39.235346470865103 -0.93837139639085099  -8.9340443483498095 40.6691047074547 -1.6061915749769999  -8.1090888922890194 41.145392962080898 -1.8532877032163499  -6.4643738210486203 42.094969651201801 -2.39251779208535  -5.6435421927145404 42.568877012779801 -2.6850650079553602  -3.1960302832804 43.981948672536397 -3.62122690747925  -1.58858796851245 44.910005925674497 -4.3211275506200097  -3.4694469519536099e-15 45.827177616926598 -5.0799999999999903 
 0.023504683465421301 4 0.0293939373350602 2 0.035283191204699103 2 0.038227818139518498 2 0.041172445074338003 2 0.047061698943976799 4
1 5.92273046107403e-15 45.827177616926598 -27.7622 0 0 1 
7 0 0  3 12 6  -19.84375 34.370383212694897 -27.7622  -18.136826034782999 35.355876223499202 -27.7622  -16.443981072597101 36.333240718113501 -27.6401624331777  -13.0842736733549 38.272968689464399 -27.170869353365202  -11.4173864598934 39.235346470865103 -26.823828603609101  -8.9340443483498095 40.6691047074547 -26.156008425023  -8.1090888922890194 41.145392962080898 -25.908912296783601  -6.4643738210486203 42.094969651201801 -25.3696822079146  -5.6435421927145502 42.568877012779801 -25.077134992044599  -3.1960302832804102 43.981948672536397 -24.140973092520699  -1.58858796851245 44.910005925674497 -23.441072449379998  -3.4694469519536099e-15 45.827177616926598 -22.682200000000002 
 0.023504683465421301 4 0.0293939373350602 2 0.035283191204699103 2 0.038227818139518498 2 0.041172445074338003 2 0.047061698943976799 4
7 0 0  3 10 5  -39.6875 22.913588808463299 -22.682200000000002  -36.5201359432671 24.742267299239501 -24.195257738981699  -33.299340741066601 26.6017942762346 -25.465631989968902  -28.343879888854701 29.462830933217798 -26.806769690108201  -26.671194133106699 30.428556504568601 -27.159044920332999  -24.1248924260947 31.89866448055 -27.5181640067701  -23.2675581307935 32.393646666727697 -27.609816244792899  -21.550357013648501 33.385073193963997 -27.7319232561074  -20.6953070512855 33.878736519904898 -27.7622  -19.84375 34.370383212694897 -27.7622 
 2.4736073004324999e-07 4 0.011752465413075701 2 0.0176285744392485 2 0.020566628952334898 2 0.023504683465421301 4
7 0 0  3 10 5  -3.4694469519536099e-15 45.827177616926598 -5.0799999999999903  3.16736405673285 43.9984991261503 -3.5669422610183101  6.3881592589333804 42.138972149155201 -2.2965680100310699  11.343620111145301 39.277935492171899 -0.95543030989179301  13.016305866893299 38.312209920821203 -0.60315507966700999  15.5626075739053 36.842101944839797 -0.24403599322988301  16.4199418692066 36.347119758662103 -0.15238375520706099  18.137142986351499 35.355693231425697 -0.030276743892627599  18.9921929487146 34.862029905484903 -1.51364787674343e-15  19.84375 34.370383212694897 0 
 2.4736073000221998e-07 4 0.011752465413075701 2 0.0176285744392485 2 0.020566628952334999 2 0.023504683465421401 4
7 0 0  3 12 6  19.84375 34.370383212694897 0  21.550673965217001 33.384890201890599 -1.26546722319792e-15  23.243518927402999 32.407525707276299 -0.122037566822321  26.6032263266451 30.467797735925402 -0.591330646634733  28.2701135401066 29.505419954524701 -0.938371396390836  30.753455651650199 28.0716617179351 -1.60619157497698  31.578411107710998 27.595373463308899 -1.85328770321633  33.223126178951397 26.645796774188 -2.3925177920853198  34.043957807285402 26.17188941261 -2.68506500795533  36.4914697167196 24.7588177528534 -3.6212269074792198  38.098912031487501 23.8307604997153 -4.3211275506199698  39.6875 22.913588808463299 -5.0799999999999903 
 0.023504683465421401 4 0.0293939373350602 2 0.035283191204699103 2 0.038227818139518602 2 0.041172445074338003 2 0.047061698943976799 4
1 39.6875 22.913588808463199 -27.7622 0 0 1 
7 0 0  3 12 6  19.84375 34.370383212694897 -27.7622  21.550673965217001 33.384890201890599 -27.7622  23.243518927402999 32.407525707276299 -27.6401624331777  26.6032263266451 30.467797735925402 -27.170869353365202  28.2701135401066 29.505419954524701 -26.823828603609101  30.753455651650199 28.0716617179351 -26.156008425023  31.578411107710998 27.595373463308899 -25.908912296783601  33.223126178951397 26.645796774188 -25.3696822079146  34.043957807285402 26.17188941261 -25.077134992044599  36.4914697167196 24.7588177528534 -24.140973092520699  38.098912031487501 23.8307604997153 -23.441072449379998  39.6875 22.913588808463299 -22.682200000000002 
 0.023504683465421401 4 0.0293939373350602 2 0.035283191204699103 2 0.038227818139518498 2 0.041172445074338003 2 0.047061698943976799 4
7 0 0  3 10 5  -3.4694469519536099e-15 45.827177616926598 -22.682200000000002  3.16736405673285 43.9984991261503 -24.195257738981699  6.3881592589333804 42.138972149155201 -25.465631989968902  11.343620111145301 39.277935492171899 -26.806769690108201  13.016305866893299 38.312209920821203 -27.159044920332999  15.5626075739053 36.842101944839797 -27.5181640067701  16.4199418692066 36.347119758662103 -27.609816244792899  18.137142986351499 35.355693231425697 -27.731923256107301  18.9921929487146 34.862029905484903 -27.7622  19.84375 34.370383212694897 -27.7622 
 2.4736073000200701e-07 4 0.011752465413075701 2 0.0176285744392485 2 0.020566628952334999 2 0.023504683465421401 4
7 0 0  3 12 6  39.6875 -22.913588808463299 -5.0799999999999903  39.6875 -21.096358280435201 -4.3282071813565199  39.6875 -19.250428599114201 -3.6311077950575501  39.6875 -16.4246712398831 -2.6938251092196901  39.6875 -15.477160591441001 -2.40092920981825  39.6875 -13.5778936037413 -1.8607507085816399  39.6875 -12.6249565443576 -1.61307820770766  39.6875 -9.7553442631155693 -0.94335291693240597  39.6875 -7.8278382941653097 -0.59479349188680997  39.6875 -3.9396192574063398 -0.123005490305196  39.6875 -1.9788733132890099 -2.7443867491039301e-16  39.6875 0 0 
 0.032849188445817898 4 0.038724595703067702 2 0.041662299331692597 2 0.044600002960317499 2 0.050475410217567303 2 0.0563508174748171 4
1 39.6875 -22.913588808463299 -27.7622 0 0 1 
7 0 0  3 12 6  39.6875 -22.913588808463299 -22.682200000000002  39.6875 -21.096358280435201 -23.4339928186434  39.6875 -19.250428599114201 -24.131092204942401  39.6875 -16.4246712398831 -25.068374890780301  39.6875 -15.477160591441001 -25.361270790181699  39.6875 -13.5778936037413 -25.901449291418299  39.6875 -12.6249565443576 -26.149121792292298  39.6875 -9.7553442631155693 -26.818847083067599  39.6875 -7.8278382941653097 -27.167406508113199  39.6875 -3.9396192574063398 -27.6391945096948  39.6875 -1.978873313289 -27.7622  39.6875 0 -27.7622 
 0.032849188445817801 4 0.038724595703067598 2 0.0416622993316925 2 0.044600002960317402 2 0.050475410217567199 2 0.056350817474817003 4
7 0 0  3 14 7  39.6875 0 -27.7622  39.6875 0.492751254128101 -27.7622  39.6875 0.98662185472729502 -27.754604537018299  39.6875 1.97662784396341 -27.724045613615299  39.6875 2.47356544295058 -27.701014587667  39.6875 3.9577373051736502 -27.609425538954799  39.6875 4.9405991506082199 -27.5183875782086  39.6875 7.8706438207464098 -27.160878945919801  39.6875 9.7992680283732803 -26.8099327253124  39.6875 13.6145050196527 -25.916811697799499  39.6875 15.5011576567181 -25.374818296594899  39.6875 19.240095810671601 -24.1343984294402  39.6875 21.0968437419168 -23.433791982013201  39.6875 22.913588808463299 -22.682200000000002 
 0.056350817474817003 4 0.057813828914246301 2 0.0592768403536756 2 0.062202863232534197 2 0.068054908990251406 2 0.073906954747968601 2 0.079759000505685795 4
7 0 0  3 14 7  39.6875 0 0  39.6875 0.49275125412809301 4.0657581468206398e-17  39.6875 0.98662185472729502 -0.0075954629817068502  39.6875 1.97662784396341 -0.038154386384716597  39.6875 2.47356544295058 -0.061185412332944  39.6875 3.9577373051736502 -0.15277446104520301  39.6875 4.9405991506082101 -0.24381242179138499  39.6875 7.8706438207464 -0.60132105408015202  39.6875 9.7992680283732891 -0.952267274687564  39.6875 13.6145050196527 -1.84538830220049  39.6875 15.5011576567181 -2.38738170340504  39.6875 19.240095810671601 -3.62780157055973  39.6875 21.0968437419168 -4.3284080179867601  39.6875 22.913588808463299 -5.0799999999999903 
 0.0563508174748171 4 0.057813828914246398 2 0.059276840353675697 2 0.062202863232534301 2 0.068054908990251406 2 0.073906954747968601 2 0.079759000505685795 4
7 0 0  3 10 5  39.6875 -22.913588808463299 -5.0799999999999903  36.520135943267199 -24.7422672992396 -3.5669422610183199  33.299340741066601 -26.601794276234699 -2.2965680100311001  28.343879888854701 -29.462830933217901 -0.95543030989182598  26.671194133106699 -30.428556504568601 -0.60315507966704895  24.1248924260947 -31.89866448055 -0.244035993229926  23.2675581307935 -32.393646666727697 -0.15238375520711001  21.550357013648501 -33.385073193964097 -0.030276743892678301  20.6953070512855 -33.878736519904997 -4.4629318957881799e-14  19.84375 -34.370383212694897 0 
 2.4736073000294599e-07 4 0.0117524654130756 2 0.0176285744392485 2 0.020566628952334898 2 0.023504683465421301 4
7 0 0  3 12 6  19.84375 -34.370383212694897 0  18.136826034782999 -35.355876223499202 -4.4215119846674503e-14  16.443981072597101 -36.333240718113601 -0.12203756682236699  13.0842736733549 -38.272968689464399 -0.59133064663478496  11.4173864598934 -39.235346470865203 -0.93837139639089695  8.9340443483498095 -40.6691047074548 -1.6061915749770399  8.1090888922890105 -41.145392962080898 -1.8532877032163999  6.4643738210485999 -42.094969651201801 -2.3925177920854002  5.6435421927145297 -42.5688770127799 -2.6850650079554099  3.1960302832803902 -43.981948672536497 -3.6212269074793002  1.58858796851243 -44.910005925674596 -4.3211275506200604  -7.9797279894933101e-14 -45.827177616926598 -5.0799999999999903 
 0.023504683465421301 4 0.0293939373350602 2 0.035283191204699103 2 0.038227818139518498 2 0.041172445074338003 2 0.047061698943976903 4
1 -5.0077153291238699e-15 -45.827177616926598 -27.7622 0 0 1 
7 0 0  3 12 6  19.84375 -34.370383212694897 -27.7622  18.136826034782999 -35.355876223499202 -27.762199999999901  16.443981072597101 -36.333240718113601 -27.640162433177601  13.0842736733549 -38.272968689464399 -27.170869353365202  11.4173864598934 -39.235346470865203 -26.823828603609101  8.9340443483498007 -40.6691047074548 -26.1560084250229  8.1090888922889999 -41.145392962080898 -25.908912296783601  6.4643738210485999 -42.094969651201801 -25.3696822079146  5.6435421927145297 -42.5688770127799 -25.077134992044599  3.1960302832803902 -43.981948672536497 -24.140973092520699  1.58858796851242 -44.910005925674596 -23.441072449379899  -7.9797279894933101e-14 -45.827177616926598 -22.682200000000002 
 0.023504683465421301 4 0.0293939373350602 2 0.035283191204699103 2 0.038227818139518498 2 0.041172445074338003 2 0.047061698943976903 4
7 0 0  3 10 5  39.6875 -22.913588808463299 -22.682200000000002  36.520135943267199 -24.7422672992396 -24.195257738981699  33.299340741066601 -26.601794276234699 -25.465631989968902  28.343879888854801 -29.462830933217901 -26.806769690108201  26.671194133106798 -30.4285565045687 -27.159044920332899  24.1248924260947 -31.89866448055 -27.5181640067701  23.2675581307935 -32.393646666727697 -27.609816244792899  21.550357013648501 -33.385073193964097 -27.731923256107301  20.6953070512855 -33.878736519904997 -27.762199999999901  19.84375 -34.370383212694897 -27.7622 
 2.4736073001902501e-07 4 0.011752465413075701 2 0.0176285744392485 2 0.020566628952334898 2 0.023504683465421301 4
7 0 0  3 10 5  -7.9797279894933101e-14 -45.827177616926598 -5.0799999999999903  -3.1673640567329202 -43.9984991261503 -3.5669422610183199  -6.3881592589334399 -42.138972149155201 -2.2965680100310899  -11.343620111145301 -39.277935492171999 -0.95543030989182398  -13.016305866893299 -38.312209920821203 -0.60315507966704196  -15.5626075739053 -36.842101944839897 -0.24403599322991801  -16.4199418692066 -36.347119758662203 -0.15238375520710201  -18.137142986351499 -35.355693231425803 -0.0302767438926697  -18.9921929487146 -34.862029905484903 -4.0333450193723798e-14  -19.84375 -34.370383212694897 0 
 2.4736073010256702e-07 4 0.011752465413075701 2 0.0176285744392486 2 0.020566628952334999 2 0.023504683465421401 4
7 0 0  3 12 6  -19.84375 -34.370383212694897 0  -21.550673965217001 -33.384890201890698 -3.9900334013361097e-14  -23.243518927402999 -32.407525707276299 -0.12203756682236  -26.6032263266451 -30.467797735925501 -0.59133064663477097  -28.2701135401066 -29.5054199545248 -0.93837139639087697  -30.753455651650199 -28.0716617179351 -1.6061915749770199  -31.578411107710998 -27.595373463308999 -1.8532877032163699  -33.223126178951397 -26.645796774188099 -2.3925177920853602  -34.043957807285501 -26.171889412610099 -2.68506500795537  -36.4914697167196 -24.7588177528534 -3.62122690747925  -38.098912031487501 -23.830760499715399 -4.3211275506200097  -39.6875 -22.913588808463299 -5.0799999999999903 
 0.023504683465421401 4 0.0293939373350602 2 0.035283191204699103 2 0.038227818139518498 2 0.041172445074338003 2 0.047061698943976799 4
1 -39.6875 -22.913588808463299 -27.7622 0 0 1 
7 0 0  3 12 6  -19.84375 -34.370383212694897 -27.7622  -21.550673965217001 -33.384890201890698 -27.762199999999901  -23.243518927402999 -32.407525707276299 -27.640162433177601  -26.6032263266451 -30.467797735925501 -27.170869353365202  -28.2701135401066 -29.505419954524701 -26.823828603609101  -30.753455651650199 -28.0716617179351 -26.156008425023  -31.578411107710998 -27.595373463308999 -25.908912296783601  -33.223126178951397 -26.645796774188099 -25.3696822079146  -34.043957807285501 -26.171889412610099 -25.077134992044599  -36.4914697167196 -24.7588177528534 -24.140973092520699  -38.098912031487501 -23.830760499715399 -23.441072449379998  -39.6875 -22.913588808463299 -22.682200000000002 
 0.023504683465421401 4 0.0293939373350602 2 0.035283191204699103 2 0.038227818139518498 2 0.041172445074338003 2 0.047061698943976799 4
7 0 0  3 10 5  -7.9797279894933101e-14 -45.827177616926598 -22.682200000000002  -3.1673640567329202 -43.9984991261503 -24.195257738981599  -6.3881592589334399 -42.138972149155201 -25.465631989968902  -11.343620111145301 -39.277935492171999 -26.806769690108201  -13.016305866893299 -38.312209920821203 -27.159044920332899  -15.5626075739053 -36.842101944839797 -27.5181640067701  -16.4199418692066 -36.347119758662203 -27.609816244792899  -18.137142986351598 -35.355693231425803 -27.731923256107301  -18.9921929487146 -34.862029905484903 -27.762199999999901  -19.84375 -34.370383212694897 -27.7622 
 2.4736073010153798e-07 4 0.011752465413075701 2 0.0176285744392486 2 0.020566628952334999 2 0.023504683465421401 4
7 0 0  3 12 6  -39.6875 -22.913588808463299 -5.0799999999999903  -39.6875 -21.096358280435201 -4.3282071813565404  -39.6875 -19.250428599114201 -3.6311077950575501  -39.6875 -16.4246712398831 -2.6938251092196901  -39.6875 -15.477160591441001 -2.40092920981825  -39.6875 -13.5778936037413 -1.8607507085816399  -39.6875 -12.6249565443576 -1.61307820770767  -39.6875 -9.75534426311558 -0.94335291693241097  -39.6875 -7.8278382941653097 -0.59479349188680997  -39.6875 -3.9396192574063398 -0.123005490305196  -39.6875 -1.9788733132890099 -1.2536087619363601e-16  -39.6875 0 0 
 0.032849188445817801 4 0.038724595703067598 2 0.0416622993316925 2 0.044600002960317402 2 0.050475410217567199 2 0.056350817474817003 4
7 0 0  3 14 7  -39.6875 0 0  -39.6875 0.49275125412809501 6.6703844596276098e-18  -39.6875 0.98662185472728603 -0.0075954629817070098  -39.6875 1.97662784396339 -0.038154386384716403  -39.6875 2.4735654429505698 -0.061185412332938498  -39.6875 3.9577373051736302 -0.15277446104519701  -39.6875 4.9405991506081897 -0.24381242179138601  -39.6875 7.8706438207463698 -0.60132105408015102  -39.6875 9.7992680283732501 -0.95226727468755501  -39.6875 13.614505019652601 -1.84538830220047  -39.6875 15.501157656718 -2.38738170340502  -39.6875 19.240095810671601 -3.6278015705597002  -39.6875 21.0968437419167 -4.3284080179867299  -39.6875 22.913588808463299 -5.0799999999999601 
 0.056350817474817003 4 0.057813828914246301 2 0.0592768403536756 2 0.062202863232534197 2 0.068054908990251295 2 0.073906954747968504 2 0.079759000505685698 4
7 0 0  3 14 7  -39.6875 0 -27.7622  -39.6875 0.49275125412809301 -27.7622  -39.6875 0.98662185472729202 -27.754604537018299  -39.6875 1.9766278439634 -27.724045613615299  -39.6875 2.47356544295058 -27.701014587667  -39.6875 3.9577373051736502 -27.609425538954799  -39.6875 4.9405991506082101 -27.5183875782086  -39.6875 7.8706438207464 -27.160878945919801  -39.6875 9.7992680283732891 -26.8099327253124  -39.6875 13.6145050196527 -25.916811697799499  -39.6875 15.5011576567181 -25.374818296594899  -39.6875 19.240095810671601 -24.1343984294402  -39.6875 21.0968437419168 -23.433791982013201  -39.6875 22.913588808463299 -22.682200000000002 
 0.056350817474817003 4 0.057813828914246301 2 0.0592768403536756 2 0.062202863232534197 2 0.068054908990251406 2 0.073906954747968601 2 0.079759000505685698 4
7 0 0  3 12 6  -39.6875 -22.913588808463299 -22.682200000000002  -39.6875 -21.096358280435201 -23.4339928186434  -39.6875 -19.250428599114201 -24.131092204942401  -39.6875 -16.4246712398831 -25.068374890780301  -39.6875 -15.477160591441001 -25.361270790181699  -39.6875 -13.5778936037413 -25.901449291418299  -39.6875 -12.6249565443576 -26.149121792292298  -39.6875 -9.75534426311558 -26.818847083067599  -39.6875 -7.8278382941653097 -27.167406508113199  -39.6875 -3.93961925740635 -27.6391945096948  -39.6875 -1.9788733132890099 -27.7622  -39.6875 0 -27.7622 
 0.032849188445817801 4 0.038724595703067598 2 0.0416622993316925 2 0.044600002960317402 2 0.050475410217567199 2 0.056350817474817003 4
2 0 0 0 0 0 -1 -1 0 0 0 1 0 39.6875
2 0 0 0 0 0 -1 -1 0 0 0 1 0 39.6875
2 0 0 0 0 0 -1 -1 0 0 0 1 0 39.6875
2 0 0 0 0 0 -1 -1 0 0 0 1 0 39.6875
2 0 0 0 0 0 1 1 0 -0 -0 1 0 39.6875
2 0 0 0 0 0 -1 -1 0 0 0 1 0 39.6875
2 0 0 0 0 0 1 1 0 -0 -0 1 0 25.399999999999999
2 0 0 -27.7622 0 0 1 -1 0 0 0 -1 0 39.6875
2 0 0 -27.7622 0 0 1 -1 3.5527136788005001e-15 0 -3.5527136788005001e-15 -1 0 39.6875
2 0 0 -27.7622 0 0 1 -1 -1.7763568394002501e-15 0 1.7763568394002501e-15 -1 0 39.6875
2 0 0 -27.7622 0 0 1 1 0 -0 -0 1 0 39.6875
2 0 0 -27.7622 0 0 1 -1 1.7763568394002501e-15 0 -1.7763568394002501e-15 -1 0 39.6875
2 0 0 -27.7622 0 0 1 -1 -8.8817841970012504e-16 0 8.8817841970012504e-16 -1 0 39.6875
2 0 0 -27.7622 0 0 1 1 0 -0 -0 1 0 25.399999999999999
1 36.0045 -3.9094711354933203e-15 -33.718499999999999 0 0 1 
2 0 0 -39.674799999999998 -0 0 -1 -1 -1.38777878078145e-17 0 -1.38777878078145e-17 1 0 36.0045
1 -35.893510142394398 2.8248805121332201 -62.687199999999898 0 0 1 
2 0 0 -27.7622 -0 0 -1 -1 -1.38777878078145e-17 0 -1.38777878078145e-17 1 0 36.0045
2 0 0 -39.674799999999998 -0 0 -1 -1 -1.38777878078145e-17 0 -1.38777878078145e-17 1 0 25.5016
1 -25.422987077928699 2.0008324756132301 -62.687199999999898 0 0 -1 
2 0 0 -27.7622 -0 0 -1 -1 -1.38777878078145e-17 0 -1.38777878078145e-17 1 0 25.5016
1 25.5016 -2.76903634570391e-15 -33.718499999999999 0 -0 -1 
2 0 0 -27.7622 -0 0 -1 -1 -1.38777878078145e-17 0 -1.38777878078145e-17 1 0 25.5016
1 -25.422987077928699 -2.0008324756132301 -62.687199999999898 0 0 -1 
2 0 0 -39.674799999999998 -0 0 -1 -1 -1.38777878078145e-17 0 -1.38777878078145e-17 1 0 25.5016
1 0 0 -27.7622 -0.99691733373312785 0.078459095727845582 0 
1 0 0 -27.7622 -0.99691733373312785 -0.078459095727845582 0 
2 0 0 -27.7622 -0 0 -1 -1 -1.38777878078145e-17 0 -1.38777878078145e-17 1 0 36.0045
1 -35.893510142394398 -2.8248805121332201 -62.687199999999898 0 0 1 
2 0 0 -39.674799999999998 -0 0 -1 -1 -1.38777878078145e-17 0 -1.38777878078145e-17 1 0 36.0045
1 -2.8161723482705199 0.22163757052118899 -39.674799999999998 -0.99691733373312785 0.078459095727845582 0 
1 2.8161723482705199 0.22163757052119001 -39.674799999999998 -0.99691733373312785 -0.078459095727845582 0 
Polygon3D 0
PolygonOnTriangulations 0
Surfaces 30
2 0 0 -27.7622 0 0 -1 1 0 0 0 -1 0 25.399999999999999
2 0 0 -27.7622 0 0 -1 1 0 0 0 -1 0 25.399999999999999
1 6.93889390390723e-15 45.827177616926598 0 0 0 -1 0 -1 0 -1 -0 -0 
1 6.93889390390723e-15 45.827177616926598 -27.7622 0 0 -1 0 -1 0 -1 -0 -0 
1 5.92273046107403e-15 45.827177616926598 -27.7622 -0.500000000000001 0.86602540378443804 0 0 0 1 0.86602540378443804 0.500000000000001 -0 
1 -39.6875 22.913588808463299 -27.7622 -1 0 0 0 0 1 0 1 -0 
3 0 0 0 -0 -0 -1 -1 0 0 0 1 -0 39.6875
0.87956695123444895
3 0 0 0 -0 -0 -1 -1 0 0 0 1 -0 39.6875
0.87956695123444895
1 39.6875 22.913588808463199 -27.7622 0.500000000000001 0.86602540378443804 0 0 0 -1 -0.86602540378443804 0.500000000000001 0 
3 0 0 -27.7622 -0 -0 1 1 0 0 -0 1 0 39.6875
0.87956695123444795
3 0 0 -27.7622 -0 -0 1 1 0 0 -0 1 0 39.6875
0.87956695123444795
3 0 0 0 -0 -0 -1 -1 0 0 0 1 -0 39.6875
0.87956695123444895
1 39.6875 22.913588808463199 -27.7622 -1 0 0 0 0 1 0 1 -0 
3 0 0 -27.7622 -0 -0 1 1 0 0 -0 1 0 39.6875
0.87956695123444795
3 0 0 0 -0 -0 -1 -1 0 0 0 1 -0 39.6875
0.87956695123444895
1 -5.0077153291238699e-15 -45.827177616926598 -27.7622 0.50000000000000033 -0.86602540378443849 0 0 0 -1 0.86602540378443849 0.50000000000000033 0 
3 0 0 -27.7622 -0 -0 1 1 0 0 -0 1 0 39.6875
0.87956695123444795
3 0 0 0 -0 -0 -1 -1 0 0 0 1 -0 39.6875
0.87956695123444895
1 -39.6875 -22.913588808463299 -27.7622 -0.500000000000001 -0.86602540378443804 0 -0.86602540378443804 0.500000000000001 0 -0 0 -1 
3 0 0 -27.7622 -0 -0 1 1 0 0 -0 1 0 39.6875
0.87956695123444795
3 0 0 0 -0 -0 -1 -1 0 0 0 1 -0 39.6875
0.87956695123444895
3 0 0 -27.7622 -0 -0 1 1 0 0 -0 1 0 39.6875
0.87956695123444795
2 0 0 -62.687199999999898 0 0 1 -1 -1.38777878078145e-17 0 1.38777878078145e-17 -1 0 36.0045
2 0 0 -62.687199999999898 0 0 1 -1 -1.38777878078145e-17 0 1.38777878078145e-17 -1 0 36.0045
1 -4.9966281112645502e-16 36.0045 -39.674799999999998 0 0 1 -1.38777878078145e-17 1 0 -1 -1.38777878078145e-17 0 
1 0 0 -39.674799999999998 0.078459095727845596 0.99691733373312796 0 0 0 -1 -0.99691733373312796 0.078459095727845596 0 
1 -3.53905793559761e-16 25.5016 -27.7622 -0 0 -1 -1 -1.38777878078145e-17 0 -1.38777878078145e-17 1 0 
2 0 0 -62.687199999999898 0 0 1 -1 -1.38777878078145e-17 0 1.38777878078145e-17 -1 0 25.5016
2 0 0 -62.687199999999898 0 0 1 -1 -1.38777878078145e-17 0 1.38777878078145e-17 -1 0 25.5016
1 0 0 -39.674799999999998 -0.078459095727845596 0.99691733373312796 0 0 0 1 0.99691733373312796 0.078459095727845596 -0 
Triangulations 0

TShapes 173
Ve
1e-07
25.4 0 -27.7622
0 0

0101101
*
Ve
1e-07
25.4 0 0
0 0

0101101
*
Ed
 1e-07 1 1 0
1  1 0 0 27.7622
2  1 1 0 0 27.7622
2  2 2 0 0 27.7622
4 CN 1 0 2 0
0

0101000
+173 0 -172 0 *
Ve
1e-07
-25.4 3.11060286983427e-15 -1.23259516440783e-29
0 0

0101101
*
Ed
 1e-07 1 1 0
1  2 0 3.14159265358979 6.28318530717959
2  3 1 0 3.14159265358979 6.28318530717959
4 C0 1 0 3 0
0

0101000
+170 0 -172 0 *
Ve
1e-07
-25.4 3.11060286983427e-15 -27.7622
0 0

0101101
*
Ed
 1e-07 1 1 0
1  3 0 0 27.7622
2  4 1 0 0 27.7622
2  5 2 0 0 27.7622
4 CN 1 0 2 0
0

0101000
+168 0 -170 0 *
Ed
 1e-07 1 1 0
1  4 0 3.14159265358979 6.28318530717959
2  6 1 0 3.14159265358979 6.28318530717959
4 C0 1 0 4 0
0

0101000
+168 0 -173 0 *
Wi

0101100
+171 0 -169 0 -167 0 +166 0 *
Fa
0  1e-07 1 0

0111000
+165 0 *
Ve
0.000453614247943636
-39.6875 22.9135888084633 -22.6822
0 0

0101101
*
Ve
0.000453614247954932
-39.6875 22.9135888084633 -5.07999999999996
0 0

0101101
*
Ed
 1e-07 1 1 0
1  5 0 5.08 22.6822
4 C0 5 0 6 0
0

0101000
+163 0 -162 0 *
Ve
0.000453614247954932
-19.84375 34.3703832126949 0
0 0

0101101
*
Ed
 0.000453614247954932 1 1 0
1  6 0 2.47360730016702e-07 0.0235046834654213
2  7 7 0 2.47360730016702e-07 0.0235046834654213
4 C0 5 0 7 0
0

0101000
+162 0 -160 0 *
Ve
0.000453614247985412
-3.46944695195361e-15 45.8271776169266 -5.07999999999999
0 0

0101101
*
Ed
 7.56658820522328e-05 1 1 0
1  7 0 0.0235046834654213 0.0470616989439768
2  8 8 0 0.0235046834654213 0.0470616989439768
4 C0 5 0 8 0
0

0101000
+160 0 -158 0 *
Ve
0.000453614247982335
-3.46944695195361e-15 45.8271776169266 -22.6822
0 0

0101101
*
Ed
 1e-07 1 1 0
1  8 0 5.08 22.6822
4 C0 5 0 9 0
0

0101000
+156 0 -158 0 *
Ve
0.000453614247943636
-19.84375 34.3703832126949 -27.7622
0 0

0101101
*
Ed
 7.5665882046996e-05 1 1 0
1  9 0 0.0235046834654213 0.0470616989439768
2  9 10 0 0.0235046834654213 0.0470616989439768
4 C0 5 0 10 0
0

0101000
+154 0 -156 0 *
Ed
 0.000453614247943636 1 1 0
1  10 0 2.4736073004325e-07 0.0235046834654213
2  10 11 0 2.4736073004325e-07 0.0235046834654213
4 C0 5 0 11 0
0

0101000
+163 0 -154 0 *
Wi

0101100
+161 0 +159 0 +157 0 -155 0 -153 0 -152 0 *
Fa
0  1e-07 5 0

0111000
+151 0 *
Ve
0.000453614247985412
19.84375 34.3703832126949 0
0 0

0101101
*
Ed
 0.000453614247985412 1 1 0
1  11 0 2.4736073000222e-07 0.0235046834654214
2  11 8 0 2.4736073000222e-07 0.0235046834654214
4 C0 9 0 8 0
0

0101000
+158 0 -149 0 *
Ve
7.75871392833147e-05
39.6875 22.9135888084633 -5.07999999999999
0 0

0101101
*
Ed
 7.56658820539375e-05 1 1 0
1  12 0 0.0235046834654214 0.0470616989439768
2  12 12 0 0.0235046834654214 0.0470616989439768
4 C0 9 0 12 0
0

0101000
+149 0 -147 0 *
Ve
7.75871393204057e-05
39.6875 22.9135888084633 -22.6822
0 0

0101101
*
Ed
 1e-07 1 1 0
1  13 0 5.08 22.6822
4 C0 9 0 13 0
0

0101000
+145 0 -147 0 *
Ve
0.000453614247982335
19.84375 34.3703832126949 -27.7622
0 0

0101101
*
Ed
 7.56658820492404e-05 1 1 0
1  14 0 0.0235046834654214 0.0470616989439768
2  13 14 0 0.0235046834654214 0.0470616989439768
4 C0 9 0 14 0
0

0101000
+143 0 -145 0 *
Ed
 0.000453614247982335 1 1 0
1  15 0 2.47360730002007e-07 0.0235046834654214
2  14 10 0 2.47360730002007e-07 0.0235046834654214
4 C0 9 0 10 0
0

0101000
+156 0 -143 0 *
Wi

0101100
+155 0 +148 0 +146 0 -144 0 -142 0 -141 0 *
Fa
0  1e-07 9 0

0111000
+140 0 *
Ve
0.000453614247984247
39.6875 -22.9135888084633 -5.07999999999999
0 0

0101101
*
Ve
7.75871392833147e-05
39.6875 0 0
0 0

0101101
*
Ed
 7.45728275858092e-05 1 1 0
1  16 0 0.0328491884458179 0.0563508174748171
2  15 15 0 0.0328491884458179 0.0563508174748171
4 C0 13 0 15 0
0

0101000
+138 0 -137 0 *
Ve
0.000453614247997019
39.6875 -22.9135888084633 -22.6822
0 0

0101101
*
Ed
 1e-07 1 1 0
1  17 0 5.08 22.6822
4 C0 13 0 16 0
0

0101000
+135 0 -138 0 *
Ve
7.75871393204057e-05
39.6875 0 -27.7622
0 0

0101101
*
Ed
 7.45728275894171e-05 1 1 0
1  18 0 0.0328491884458178 0.056350817474817
2  16 17 0 0.0328491884458178 0.056350817474817
4 C0 13 0 17 0
0

0101000
+135 0 -133 0 *
Ed
 7.75871393204057e-05 1 1 0
1  19 0 0.056350817474817 0.0797590005056858
2  17 14 0 0.056350817474817 0.0797590005056858
4 C0 13 0 14 0
0

0101000
+133 0 -145 0 *
Ed
 7.75871392833147e-05 1 1 0
1  20 0 0.0563508174748171 0.0797590005056858
2  18 12 0 0.0563508174748171 0.0797590005056858
4 C0 13 0 12 0
0

0101000
+137 0 -147 0 *
Wi

0101100
-136 0 -134 0 +132 0 +131 0 +144 0 -130 0 *
Fa
0  1e-07 13 0

0111000
-129 0 *
Ve
0.000453614247984247
19.84375 -34.3703832126949 0
0 0

0101101
*
Ed
 0.000453614247984247 1 1 0
1  21 0 2.47360730002946e-07 0.0235046834654213
2  19 15 0 2.47360730002946e-07 0.0235046834654213
4 C0 16 0 15 0
0

0101000
+138 0 -127 0 *
Ve
0.000453614247986321
-7.97972798949331e-14 -45.8271776169266 -5.07999999999999
0 0

0101101
*
Ed
 7.56658820518867e-05 1 1 0
1  22 0 0.0235046834654213 0.0470616989439769
2  20 18 0 0.0235046834654213 0.0470616989439769
4 C0 16 0 18 0
0

0101000
+127 0 -125 0 *
Ve
0.000453614247962202
-7.97972798949331e-14 -45.8271776169266 -22.6822
0 0

0101101
*
Ed
 1e-07 1 1 0
1  23 0 5.08 22.6822
4 C0 16 0 19 0
0

0101000
+123 0 -125 0 *
Ve
0.000453614247997019
19.84375 -34.3703832126949 -27.7622
0 0

0101101
*
Ed
 7.56658820796158e-05 1 1 0
1  24 0 0.0235046834654213 0.0470616989439769
2  21 20 0 0.0235046834654213 0.0470616989439769
4 C0 16 0 20 0
0

0101000
+121 0 -123 0 *
Ed
 0.000453614247997019 1 1 0
1  25 0 2.47360730019025e-07 0.0235046834654213
2  22 17 0 2.47360730019025e-07 0.0235046834654213
4 C0 16 0 17 0
0

0101000
+135 0 -121 0 *
Wi

0101100
+134 0 +126 0 +124 0 -122 0 -120 0 -119 0 *
Fa
0  1e-07 16 0

0111000
+118 0 *
Ve
0.000453614247986321
-19.84375 -34.3703832126949 0
0 0

0101101
*
Ed
 0.000453614247986321 1 1 0
1  26 0 2.47360730102567e-07 0.0235046834654214
2  23 18 0 2.47360730102567e-07 0.0235046834654214
4 C0 19 0 18 0
0

0101000
+125 0 -116 0 *
Ve
7.5665882059131e-05
-39.6875 -22.9135888084633 -5.07999999999999
0 0

0101101
*
Ed
 7.5665882059131e-05 1 1 0
1  27 0 0.0235046834654214 0.0470616989439768
2  24 21 0 0.0235046834654214 0.0470616989439768
4 C0 19 0 21 0
0

0101000
+116 0 -114 0 *
Ve
7.56658820958133e-05
-39.6875 -22.9135888084633 -22.6822
0 0

0101101
*
Ed
 1e-07 1 1 0
1  28 0 5.08 22.6822
4 C0 19 0 6 0
0

0101000
+112 0 -114 0 *
Ve
0.000453614247962202
-19.84375 -34.3703832126949 -27.7622
0 0

0101101
*
Ed
 7.56658820958133e-05 1 1 0
1  29 0 0.0235046834654214 0.0470616989439768
2  25 22 0 0.0235046834654214 0.0470616989439768
4 C0 19 0 22 0
0

0101000
+110 0 -112 0 *
Ed
 0.000453614247962202 1 1 0
1  30 0 2.47360730101538e-07 0.0235046834654214
2  26 20 0 2.47360730101538e-07 0.0235046834654214
4 C0 19 0 20 0
0

0101000
+123 0 -110 0 *
Wi

0101100
+122 0 +115 0 +113 0 -111 0 -109 0 -108 0 *
Fa
0  1e-07 19 0

0111000
+107 0 *
Ve
7.75871392721269e-05
-39.6875 0 0
0 0

0101101
*
Ed
 7.45728275860902e-05 1 1 0
1  31 0 0.0328491884458178 0.056350817474817
2  27 21 0 0.0328491884458178 0.056350817474817
4 C0 6 0 21 0
0

0101000
+114 0 -105 0 *
Ed
 7.75871392721269e-05 1 1 0
1  32 0 0.056350817474817 0.0797590005056857
2  28 7 0 0.056350817474817 0.0797590005056857
4 C0 6 0 7 0
0

0101000
+105 0 -162 0 *
Ve
7.7587139316357e-05
-39.6875 0 -27.7622
0 0

0101101
*
Ed
 7.7587139316357e-05 1 1 0
1  33 0 0.056350817474817 0.0797590005056857
2  29 11 0 0.056350817474817 0.0797590005056857
4 C0 6 0 11 0
0

0101000
+102 0 -163 0 *
Ed
 7.4572827589188e-05 1 1 0
1  34 0 0.0328491884458178 0.056350817474817
2  30 22 0 0.0328491884458178 0.056350817474817
4 C0 6 0 22 0
0

0101000
+112 0 -102 0 *
Wi

0101100
+111 0 +104 0 +103 0 -161 0 -101 0 -100 0 *
Fa
0  1e-07 6 0

0111000
+99 0 *
Ed
 1e-07 1 1 0
1  35 0 0 1.0471975511966
2  31 7 0 0 1.0471975511966
4 C0 3 0 7 0
0

0101000
+105 0 -160 0 *
Ed
 1e-07 1 1 0
1  36 0 5.23598775598299 6.28318530717959
2  32 21 0 5.23598775598299 6.28318530717959
4 C0 3 0 21 0
0

0101000
+116 0 -105 0 *
Ed
 1e-07 1 1 0
1  37 0 4.18879020478639 5.23598775598299
2  33 18 0 4.18879020478639 5.23598775598299
4 C0 3 0 18 0
0

0101000
+127 0 -116 0 *
Ed
 1e-07 1 1 0
1  38 0 3.14159265358979 4.18879020478639
2  34 15 0 3.14159265358979 4.18879020478639
4 C0 3 0 15 0
0

0101000
+137 0 -127 0 *
Ed
 1e-07 1 1 0
1  39 0 0 1.0471975511966
2  35 12 0 0 1.0471975511966
4 C0 3 0 12 0
0

0101000
+137 0 -149 0 *
Ed
 1e-07 1 1 0
1  40 0 1.0471975511966 2.0943951023932
2  36 8 0 1.0471975511966 2.0943951023932
4 C0 3 0 8 0
0

0101000
+160 0 -149 0 *
Wi

0101100
-97 0 -96 0 -95 0 -94 0 +93 0 -92 0 *
Ed
 1e-07 1 1 0
1  41 0 0 3.14159265358979
2  37 2 0 0 3.14159265358979
4 C0 3 0 2 0
0

0101000
+172 0 -170 0 *
Wi

0101100
-90 0 -169 0 *
Fa
0  1e-07 3 0

0111000
-91 0 -89 0 *
Ed
 1e-07 1 1 0
1  42 0 0 1.0471975511966
2  38 22 0 0 1.0471975511966
4 C0 4 0 22 0
0

0101000
+102 0 -110 0 *
Ed
 1e-07 1 1 0
1  43 0 5.23598775598299 6.28318530717959
2  39 11 0 5.23598775598299 6.28318530717959
4 C0 4 0 11 0
0

0101000
+154 0 -102 0 *
Ed
 1e-07 1 1 0
1  44 0 4.18879020478639 5.23598775598299
2  40 10 0 4.18879020478639 5.23598775598299
4 C0 4 0 10 0
0

0101000
+143 0 -154 0 *
Ed
 1e-07 1 1 0
1  45 0 0 1.0471975511966
2  41 14 0 0 1.0471975511966
4 C0 4 0 14 0
0

0101000
+133 0 -143 0 *
Ed
 1e-07 1 1 0
1  46 0 2.0943951023932 3.14159265358979
2  42 17 0 2.0943951023932 3.14159265358979
4 C0 4 0 17 0
0

0101000
+121 0 -133 0 *
Ed
 1e-07 1 1 0
1  47 0 1.0471975511966 2.09439510239319
2  43 20 0 1.0471975511966 2.09439510239319
4 C0 4 0 20 0
0

0101000
+110 0 -121 0 *
Wi

0101100
-87 0 -86 0 -85 0 -84 0 -83 0 -82 0 *
Ed
 1e-07 1 1 0
1  48 0 0 3.14159265358979
2  44 2 0 0 3.14159265358979
4 C0 4 0 2 0
0

0101000
+173 0 -168 0 *
Wi

0101100
+80 0 +166 0 *
Fa
0  1e-07 4 0

0111000
+81 0 +79 0 *
Wi

0101100
-90 0 -171 0 +80 0 +167 0 *
Fa
0  1e-07 2 0

0111000
+77 0 *
Wi

0101100
+152 0 +86 0 +101 0 *
Fa
0  1e-07 11 0

0111000
+75 0 *
Wi

0101100
+153 0 +141 0 +85 0 *
Fa
0  1e-07 10 0

0111000
+73 0 *
Wi

0101100
+142 0 -131 0 +84 0 *
Fa
0  1e-07 14 0

0111000
+71 0 *
Wi

0101100
+119 0 +83 0 -132 0 *
Fa
0  1e-07 17 0

0111000
+69 0 *
Wi

0101100
+120 0 +108 0 +82 0 *
Fa
0  1e-07 20 0

0111000
+67 0 *
Wi

0101100
+109 0 +100 0 +87 0 *
Fa
0  1e-07 22 0

0111000
+65 0 *
Wi

0101100
+96 0 -104 0 -113 0 *
Fa
0  1e-07 21 0

0111000
+63 0 *
Wi

0101100
+95 0 -115 0 -124 0 *
Fa
0  1e-07 18 0

0111000
+61 0 *
Wi

0101100
+136 0 +94 0 -126 0 *
Fa
0  1e-07 15 0

0111000
+59 0 *
Wi

0101100
-93 0 +130 0 -146 0 *
Fa
0  1e-07 12 0

0111000
+57 0 *
Wi

0101100
+92 0 -148 0 -157 0 *
Fa
0  1e-07 8 0

0111000
+55 0 *
Wi

0101100
-103 0 +97 0 -159 0 *
Fa
0  1e-07 7 0

0111000
+53 0 *
Sh

0101100
-164 0 +150 0 +139 0 -128 0 +117 0 +106 0 +98 0 -88 0 +78 0 -76 0 
+74 0 +72 0 +70 0 +68 0 +66 0 +64 0 +62 0 +60 0 +58 0 +56 0 
+54 0 +52 0 *
So

0100000
+51 0 *
Ve
1e-07
36.0045 -3.90947113549332e-15 -39.6748
0 0

0101101
*
Ve
1e-07
36.0045 -3.90947113549332e-15 -27.7622
0 0

0101101
*
Ed
 1e-07 1 1 0
1  49 0 -5.9563 5.9563
2  45 23 0 -5.9563 5.9563
2  46 24 0 -5.9563 5.9563
4 CN 23 0 24 0
0

0101000
+49 0 -48 0 *
Ve
1e-07
-35.8935101423944 2.82488051213322 -39.6748
0 0

0101101
*
Ed
 1e-07 1 1 0
1  50 0 0.0785398163397456 3.14159265358979
2  47 23 0 0.0785398163397456 3.14159265358979
4 C0 23 0 25 0
0

0101000
+46 0 -49 0 *
Ve
1e-07
-35.8935101423944 2.82488051213322 -27.7622
0 0

0101101
*
Ed
 1e-07 1 1 0
1  51 0 23.0123999999999 34.9249999999999
2  48 23 0 23.0123999999999 34.9249999999999
4 C0 23 0 26 0
0

0101000
+46 0 -44 0 *
Ed
 1e-07 1 1 0
1  52 0 0.0785398163397456 3.14159265358979
2  49 23 0 0.0785398163397456 3.14159265358979
4 C0 23 0 27 0
0

0101000
+44 0 -48 0 *
Wi

0101100
-47 0 -45 0 +43 0 +42 0 *
Fa
0  1e-07 23 0

0111000
+41 0 *
Ve
1e-07
-25.4229870779287 2.00083247561323 -39.6748
0 0

0101101
*
Ve
1e-07
25.5016 -2.76903634570391e-15 -39.6748
0 0

0101101
*
Ed
 1e-07 1 1 0
1  53 0 0.0785398163397457 3.14159265358979
2  50 28 0 0.0785398163397457 3.14159265358979
4 C0 28 0 25 0
0

0101000
+39 0 -38 0 *
Ve
1e-07
-25.4229870779287 2.00083247561323 -27.7622
0 0

0101101
*
Ed
 1e-07 1 1 0
1  54 0 -34.9249999999999 -23.0123999999999
2  51 28 0 -34.9249999999999 -23.0123999999999
4 C0 28 0 26 0
0

0101000
+36 0 -39 0 *
Ve
1e-07
25.5016 -2.76903634570391e-15 -27.7622
0 0

0101101
*
Ed
 1e-07 1 1 0
1  55 0 0.0785398163397457 3.14159265358979
2  52 28 0 0.0785398163397457 3.14159265358979
4 C0 28 0 27 0
0

0101000
+36 0 -34 0 *
Ed
 1e-07 1 1 0
1  56 0 -5.9563 5.9563
2  53 28 0 -5.9563 5.9563
2  54 29 0 -5.9563 5.9563
4 CN 28 0 29 0
0

0101000
+34 0 -38 0 *
Wi

0101100
-37 0 -35 0 +33 0 +32 0 *
Fa
0  1e-07 28 0

0111000
+31 0 *
Ve
1e-07
-25.4229870779287 -2.00083247561323 -27.7622
0 0

0101101
*
Ed
 1e-07 1 1 0
1  57 0 3.14159265358979 6.20464549083984
2  55 29 0 3.14159265358979 6.20464549083984
4 C0 29 0 27 0
0

0101000
+34 0 -29 0 *
Ve
1e-07
-25.4229870779287 -2.00083247561322 -39.6748
0 0

0101101
*
Ed
 1e-07 1 1 0
1  58 0 -34.9249999999999 -23.0123999999999
2  56 29 0 -34.9249999999999 -23.0123999999999
4 C0 29 0 30 0
0

0101000
+29 0 -27 0 *
Ed
 1e-07 1 1 0
1  59 0 3.14159265358979 6.20464549083984
2  57 29 0 3.14159265358979 6.20464549083984
4 C0 29 0 25 0
0

0101000
+38 0 -27 0 *
Wi

0101100
+28 0 +26 0 -25 0 -32 0 *
Fa
0  1e-07 29 0

0111000
+24 0 *
Ed
 1e-07 1 1 0
1  60 0 25.5016 36.0045
4 C0 27 0 26 0
0

0101000
+36 0 -44 0 *
Ve
1e-07
-35.8935101423944 -2.82488051213322 -27.7622
0 0

0101101
*
Ed
 1e-07 1 1 0
1  61 0 25.5016 36.0045
4 C0 27 0 30 0
0

0101000
+29 0 -21 0 *
Ed
 1e-07 1 1 0
1  62 0 3.14159265358979 6.20464549083984
2  58 24 0 3.14159265358979 6.20464549083984
4 C0 27 0 24 0
0

0101000
+48 0 -21 0 *
Wi

0101100
-42 0 -22 0 +33 0 +28 0 +20 0 -19 0 *
Fa
0  1e-07 27 0

0111000
-18 0 *
Ve
1e-07
-35.8935101423944 -2.82488051213322 -39.6748
0 0

0101101
*
Ed
 1e-07 1 1 0
1  63 0 23.0123999999999 34.9249999999999
2  59 24 0 23.0123999999999 34.9249999999999
4 C0 24 0 30 0
0

0101000
+16 0 -21 0 *
Ed
 1e-07 1 1 0
1  64 0 3.14159265358979 6.20464549083984
2  60 24 0 3.14159265358979 6.20464549083984
4 C0 24 0 25 0
0

0101000
+49 0 -16 0 *
Wi

0101100
+47 0 +19 0 -15 0 -14 0 *
Fa
0  1e-07 24 0

0111000
+13 0 *
Ed
 1e-07 1 1 0
1  65 0 22.6767194878667 33.1796194878668
4 C0 25 0 26 0
0

0101000
+39 0 -46 0 *
Ed
 1e-07 1 1 0
1  66 0 28.3264805121332 38.8293805121332
4 C0 25 0 30 0
0

0101000
+27 0 -16 0 *
Wi

0101100
-37 0 +11 0 +45 0 +14 0 -10 0 -25 0 *
Fa
0  1e-07 25 0

0111000
-9 0 *
Wi

0101100
+26 0 +10 0 +15 0 -20 0 *
Fa
0  1e-07 30 0

0111000
+7 0 *
Wi

0101100
+22 0 -43 0 -11 0 -35 0 *
Fa
0  1e-07 26 0

0111000
-5 0 *
Sh

0101100
+40 0 -30 0 -23 0 -17 0 +12 0 -8 0 +6 0 -4 0 *
So

0100000
+3 0 *
Co

1100000
+50 0 +2 0 *

+1 0 