DBRep_DrawableShape

CASCADE Topology V1, (c) Matra-Datavision
Locations 0
Curve2ds 60
1 3.1415926535897931 -0.38254476862192222 -1 0 
1 0 -2.1294999999999997 1 0 
1 3.1415926535897931 5.5511151231257827e-17 0 1 
1 3.1415926535897931 5.5511151231257827e-17 0 1 
1 3.1415926535897931 0 -1 0 
1 0 0 0 -1 
1 6.2831853071795862 0 0 -1 
1 0 -0.27049999999999974 1 0 
1 0 0 1 0 
1 3.1415926535897931 -1.2 0 -1 
1 3.1415926535897931 -1.2 0 -1 
1 0 -2.1294999999999997 1 0 
1 9.4247779607693793 -0.38254476862192222 -1 0 
1 6.2831853071795862 -1.2000000000000002 0 1 
1 0 -1.2000000000000002 0 1 
1 0 0 1 0 
1 0 -0.27049999999999974 1 0 
1 3.1415926535897931 0 0 1 
1 3.1415926535897931 0 0 1 
1 0 0.38254476862192199 1 0 
1 0 0 0 -1 
1 6.2831853071795862 0 0 -1 
7 0 0  3 25 23  5.759586531581288 -1.8941138850029351  5.7661281994542692 -1.9065302543979263  5.7793645547678008 -1.9309475027694838  5.7996754503761565 -1.9662799290505111  5.8204406792305958 -2.000271961050883  5.8416558785848114 -2.0328765562078717  5.8633149962503976 -2.0640468510114007  5.8854099676736116 -2.0937363520911871  5.9079306656285917 -2.1218991718447109  5.9308647946807289 -2.1484902730087283  5.9541978226918779 -2.1734657294953164  5.9779129291001878 -2.1967829986107952  6.0019909797365871 -2.2184012023258064  6.0264105295905246 -2.2382814138833789  6.0511478566803625 -2.2563869457142842  6.0761770290158417 -2.2726836342290722  6.1014700060888982 -2.2871401163272309  6.126996775321552 -2.2997280937064124  6.1527255233004974 -2.3104225754725647  6.1786228392130598 -2.3192021101713567  6.2046539519211397 -2.3260489419812984  6.2307829820581819 -2.3309493122763381  6.2569732605053376 -2.3338930609069974  6.2744494195358627 -2.3345481310809482  6.2831853071795853 -2.3345477868247366 
 0.00269244557889604 4 0.0027649711119142038 1 0.0028374966449323672 1 0.002910022177950531 1 0.0029825477109686944 1 0.0030550732439868582 1 0.0031275987770050216 1 0.0032001243100231854 1 0.0032726498430413493 1 0.0033451753760595127 1 0.0034177009090776765 1 0.0034902264420958399 1 0.0035627519751140037 1 0.0036352775081321675 1 0.0037078030411503314 1 0.0037803285741684948 1 0.0038528541071866582 1 0.003925379640204822 1 0.0039979051732229858 1 0.0040704307062411496 1 0.0041429562392593135 1 0.0042154817722774764 1 0.0042880073052956403 4
7 0 0  3 25 23  0 -2.3345477868247366  0.0087651642121635669 -2.3345480987461409  0.026293574692058039 -2.333889094007962  0.052544657707759006 -2.3309311142152183  0.078718203977184389 -2.3260116210871802  0.10477899755772338 -2.3191436619496009  0.13069269628172139 -2.3103434987308531  0.15642614418288181 -2.2996309449094188  0.18194759521443868 -2.2870290695147166  0.20722692764027639 -2.2725640346469982  0.23223582383275854 -2.2562648663955449  0.25694791948167872 -2.2381632184703584  0.28133891962329804 -2.2182931185834183  0.3053866818762227 -2.1966907062170904  0.32907126758016592 -2.1733939652912357  0.35237496247248334 -2.1484424563025453  0.37528226897583528 -2.1218770518192249  0.39777987320678376 -2.0937396787518554  0.41985658811907922 -2.0640730707532446  0.44150328197660799 -2.03292053193009  0.462712773132333 -2.0003257187383237  0.48347977763814376 -1.9663324232628814  0.50380060202917443 -1.9309844270772925  0.51704936337425367 -1.9065449235211458  0.52359877559829859 -1.8941138850029351 
 0.0042880073052956403 4 0.0043607758006596054 1 0.0044335442960235713 1 0.0045063127913875364 1 0.0045790812867515024 1 0.0046518497821154674 1 0.0047246182774794325 1 0.0047973867728433985 1 0.0048701552682073636 1 0.0049429237635713295 1 0.0050156922589352946 1 0.0050884607542992597 1 0.0051612292496632257 1 0.0052339977450271908 1 0.0053067662403911567 1 0.0053795347357551218 1 0.0054523032311190878 1 0.0055250717264830529 1 0.0055978402218470179 1 0.0056706087172109839 1 0.005743377212574949 1 0.0058161457079389141 1 0.00588891420330288 4
7 0 0  3 25 23  3.1415926535897931 0  3.1328274893776298 -3.1192140420870269e-07  3.1152990788977362 0.00065869281677476902  3.0890479958820345 0.0036166726095182892  3.0628744496126092 0.0085361657375560077  3.0368136560320695 0.015404124875135093  3.0108999573080726 0.024204288093884252  2.9851665094069104 0.034916841915318499  2.9596450583753549 0.047518717310021066  2.9343657259495171 0.061983752177738848  2.909356829757034 0.078282920429190272  2.8846447341081154 0.096384568354379183  2.8602537339664953 0.11625466824131762  2.8362059717135701 0.13785708060764629  2.8125213860096276 0.16115382153349989  2.789217691117309 0.1861053305221908  2.7663103846139583 0.21267073500551167  2.743812780383009 0.24080810807288019  2.7217360654707141 0.27047471607149154  2.7000893716131853 0.30162725489464609  2.6788798804574605 0.33422206808641269  2.658112875951649 0.3682153635618543  2.637792051560619 0.40356335974744423  2.6245432902155392 0.4280028633035905  2.6179938779914944 0.44043390182180081 
 0.0042880073052956299 4 0.0043607758006595958 1 0.0044335442960235618 1 0.0045063127913875277 1 0.0045790812867514937 1 0.0046518497821154596 1 0.0047246182774794256 1 0.0047973867728433916 1 0.0048701552682073575 1 0.0049429237635713235 1 0.0050156922589352886 1 0.0050884607542992545 1 0.0051612292496632205 1 0.0052339977450271864 1 0.0053067662403911524 1 0.0053795347357551183 1 0.0054523032311190843 1 0.0055250717264830503 1 0.0055978402218470162 1 0.0056706087172109822 1 0.0057433772125749481 1 0.0058161457079389141 1 0.00588891420330288 4
7 0 0  3 25 23  3.6651914291880918 0.44043390182180081  3.6586497613151105 0.42801753242680934  3.6454134060015799 0.40360028405525256  3.6251025103932215 0.36826785777422477  3.604337281538784 0.33427582577385284  3.5831220821845675 0.30167123061686496  3.5614629645189804 0.2705009358133354  3.5393679930957678 0.24081143473354988  3.5168472951407845 0.21264861498002507  3.4939131660886509 0.18605751381600863  3.4705801380774988 0.16108205732942127  3.4468650316691911 0.137764788213942  3.4227869810327904 0.11614658449893071  3.3983674311788543 0.096266372941356371  3.3736301040890178 0.078160841110454238  3.3486009317535341 0.061864152595663753  3.323307954680482 0.047407670497505425  3.2977811854478243 0.034819693118324564  3.2720524374688833 0.024125211352172615  3.2461551215563178 0.015345676653379761  3.2201240088482401 0.0084988448434384321  3.1939949787111965 0.0035984745483989469  3.1678047002640435 0.00065472591773898473  3.1503285412335167 -3.4425621181295772e-07  3.1415926535897931 0 
 0.00269244557889603 4 0.0027649711119141938 1 0.0028374966449323572 1 0.002910022177950521 1 0.0029825477109686844 1 0.0030550732439868482 1 0.0031275987770050116 1 0.0032001243100231755 1 0.0032726498430413389 1 0.0033451753760595027 1 0.0034177009090776661 1 0.0034902264420958299 1 0.0035627519751139933 1 0.0036352775081321571 1 0.003707803041150321 1 0.0037803285741684844 1 0.0038528541071866478 1 0.0039253796402048116 1 0.0039979051732229754 1 0.0040704307062411384 1 0.0041429562392593022 1 0.004215481772277466 1 0.0042880073052956299 4
7 0 0  3 25 23  1.0471975511965985 -2.3345477868247331  1.0384497901903293 -2.3345480991073071  1.0209543728265651 -2.3338916522952462  0.99474728539718715 -2.3309440000475932  0.96861216827016716 -2.3260401406386002  0.94258422857509616 -2.3191919492549502  0.91669784075750516 -2.3104145336678159  0.89098623844433678 -2.2997265792184285  0.86548128677375546 -2.2871500596763372  0.84021326530470253 -2.2727100812222107  0.81521068437833999 -2.2564346590789786  0.79050013173900546 -2.238354486089507  0.76610615196942011 -2.2185026832037451  0.74205115854602033 -2.1969145404899098  0.71835537794304649 -2.1736272521781537  0.69503682427930369 -2.1486796503336372  0.6721113025440123 -2.1221119410810165  0.64959243737907479 -2.0939654468740612  0.62749172608995663 -2.064282358184125  0.60581860668472254 -2.0331054960606316  0.58458056020662919 -2.0004780918115506  0.56378316006505924 -1.9664435697369909  0.54343037894724355 -1.9310453923208319  0.53015944605434029 -1.9065662980243436  0.52359877559829859 -1.8941138850030721 
 0.00158794418037915 4 0.0016601129640278595 1 0.0017322817476765691 1 0.0018044505313252787 1 0.0018766193149739882 1 0.0019487880986226978 1 0.0020209568822714074 1 0.0020931256659201167 1 0.0021652944495688265 1 0.0022374632332175359 1 0.0023096320168662456 1 0.002381800800514955 1 0.0024539695841636648 1 0.0025261383678123741 1 0.0025983071514610835 1 0.0026704759351097933 1 0.002742644718758503 1 0.0028148135024072124 1 0.0028869822860559217 1 0.0029591510697046315 1 0.0030313198533533413 1 0.0031034886370020507 1 0.00317565742065076 4
7 0 0  3 25 23  1.5707963267948966 -1.8941138850030734  1.5642356563388546 -1.9065662980243454  1.5509647234459512 -1.9310453923208342  1.5306119423281361 -1.966443569736994  1.5098145421865656 -2.0004780918115537  1.4885764957084726 -2.0331054960606356  1.466903376303238 -2.0642823581841272  1.4448026650141206 -2.093965446874066  1.4222837998491824 -2.1221119410810205  1.399358278113892 -2.1486796503336398  1.3760397244501488 -2.1736272521781586  1.3523439438471749 -2.1969145404899142  1.3282889504237758 -2.2185026832037487  1.3038949706541898 -2.2383544860895115  1.2791844180148553 -2.256434659078983  1.2541818370884934 -2.2727100812222125  1.2289138156194406 -2.2871500596763412  1.2034088639488592 -2.2997265792184289  1.1776972616356913 -2.3104145336678186  1.1518108738181001 -2.319191949254952  1.1257829341230294 -2.3260401406386002  1.0996478169960096 -2.3309440000475945  1.0734407295666319 -2.3338916522952475  1.0559453122028675 -2.334548099107308  1.0471975511965985 -2.3345477868247331 
 2.3094010781588701e-07 4 7.2399723756512888e-05 1 0.00014456850740520989 1 0.00021673729105390691 1 0.00028890607470260393 1 0.00036107485835130092 1 0.00043324364199999796 1 0.0005054124256486949 1 0.00057758120929739189 1 0.00064974999294608888 1 0.00072191877659478587 1 0.00079408756024348286 1 0.00086625634389217996 1 0.00093842512754087695 1 0.001010593911189574 1 0.001082762694838271 1 0.001154931478486968 1 0.001227100262135665 1 0.001299269045784362 1 0.001371437829433059 1 0.001443606613081756 1 0.001515775396730453 1 0.00158794418037915 4
7 0 0  3 25 23  2.0943951023931948 3.0027006587933705e-15  2.0856473413869256 -3.1228257164195647e-07  2.0681519240231614 0.00065613452948942231  2.041944836593784 0.0036037867771434775  2.0158097194667639 0.0085076461861352259  1.9897817797716928 0.015355837569786489  1.9638953919541018 0.024133253156918336  1.9381837896409344 0.034821207606307338  1.9126788379703525 0.047397727148394561  1.8874108165012997 0.061837705602524523  1.8624082355749374 0.078113127745753477  1.8376976829356029 0.096193300735226167  1.8133037031660177 0.11604510362098709  1.7892487097426182 0.13763324633482346  1.7655529291396446 0.16092053464657888  1.7422343754759018 0.18586813649109574  1.7193088537406112 0.21243584574371666  1.6967899885756728 0.24058233995067202  1.6746892772865547 0.27026542864060898  1.6530161578813209 0.30144229076410056  1.6317781114032275 0.3340696950131829  1.6109807112616574 0.36810421708774432  1.5906279301438415 0.40350239450390274  1.5773569972509385 0.42798148880039183  1.5707963267948968 0.44043390182166364 
 0.00158794418037915 4 0.0016601129640278595 1 0.0017322817476765691 1 0.0018044505313252787 1 0.0018766193149739882 1 0.0019487880986226978 1 0.0020209568822714074 1 0.0020931256659201167 1 0.0021652944495688265 1 0.0022374632332175359 1 0.0023096320168662456 1 0.002381800800514955 1 0.0024539695841636648 1 0.0025261383678123741 1 0.0025983071514610835 1 0.0026704759351097933 1 0.002742644718758503 1 0.0028148135024072124 1 0.0028869822860559217 1 0.0029591510697046315 1 0.0030313198533533413 1 0.0031034886370020507 1 0.00317565742065076 4
7 0 0  3 25 23  2.6179938779914944 0.44043390182166492  2.6114332075354527 0.42798148880039322  2.5981622746425499 0.40350239450390474  2.5778094935247333 0.36810421708774649  2.5570120933831642 0.33406969501318567  2.5357740469050705 0.30144229076410295  2.514100927499836 0.2702654286406117  2.4920002162107191 0.24058233995067443  2.4694813510457796 0.21243584574372021  2.4465558293104905 0.1858681364910999  2.4232372756467457 0.16092053464658174  2.3995414950437737 0.13763324633482585  2.3754865016203723 0.11604510362099046  2.3510925218507883 0.096193300735228277  2.3263819692114529 0.078113127745757405  2.301379388285091 0.061837705602527201  2.2761113668160373 0.047397727148398128  2.2506064151454566 0.034821207606308455  2.2248948128322881 0.024133253156920692  2.1990084250146973 0.015355837569786188  2.1729804853196262 0.0085076461861367161  2.1468453681926061 0.0036037867771429436  2.1206382807632282 0.00065613452949008671  2.1031428633994635 -3.1228257111979634e-07  2.0943951023931948 3.0027006587933705e-15 
 2.3094010781420401e-07 4 7.2399723756511289e-05 1 0.00014456850740520837 1 0.00021673729105390545 1 0.00028890607470260257 1 0.00036107485835129967 1 0.00043324364199999672 1 0.00050541242564869381 1 0.00057758120929739091 1 0.00064974999294608801 1 0.00072191877659478511 1 0.00079408756024348221 1 0.0008662563438921792 1 0.0009384251275408763 1 0.0010105939111895734 1 0.0010827626948382706 1 0.0011549314784869676 1 0.0012271002621356646 1 0.0012992690457843618 1 0.0013714378294330588 1 0.001443606613081756 1 0.001515775396730453 1 0.00158794418037915 4
7 0 0  3 25 23  5.2359877559829879 -2.3345477868247331  5.2272399949767179 -2.334548099107308  5.2097445776129554 -2.3338916522952471  5.1835374901835758 -2.3309440000475945  5.1574023730565575 -2.3260401406386002  5.1313744333614864 -2.319191949254952  5.1054880455438942 -2.3104145336678181  5.0797764432307275 -2.2997265792184294  5.0542714915601445 -2.2871500596763403  5.0290034700910926 -2.272710081222213  5.004000889164729 -2.2564346590789821  4.9792903365253949 -2.238354486089511  4.9548963567558104 -2.2185026832037487  4.9308413633324095 -2.1969145404899137  4.9071455827294379 -2.1736272521781577  4.883827029065694 -2.1486796503336416  4.8609015073304036 -2.1221119410810201  4.838382642165465 -2.0939654468740652  4.8162819308763476 -2.0642823581841281  4.7946088114711127 -2.0331054960606352  4.7733707649930199 -2.0004780918115537  4.7525733648514494 -1.9664435697369922  4.7322205837336329 -1.9310453923208344  4.71894965084073 -1.9065662980243454  4.7123889803846897 -1.8941138850030734 
 0.00158794418037915 4 0.0016601129640278595 1 0.0017322817476765691 1 0.0018044505313252787 1 0.0018766193149739882 1 0.0019487880986226978 1 0.0020209568822714074 1 0.0020931256659201167 1 0.0021652944495688265 1 0.0022374632332175359 1 0.0023096320168662456 1 0.002381800800514955 1 0.0024539695841636648 1 0.0025261383678123741 1 0.0025983071514610835 1 0.0026704759351097933 1 0.002742644718758503 1 0.0028148135024072124 1 0.0028869822860559217 1 0.0029591510697046315 1 0.0030313198533533413 1 0.0031034886370020507 1 0.00317565742065076 4
7 0 0  3 25 23  5.759586531581288 -1.8941138850030721  5.7530258611252467 -1.9065662980243436  5.7397549282323412 -1.9310453923208322  5.7194021471145264 -1.9664435697369915  5.6986047469729577 -2.000478091811551  5.677366700494864 -2.033105496060633  5.6556935810896274 -2.0642823581841245  5.6335928698005118 -2.0939654468740616  5.6110740046355749 -2.1221119410810165  5.5881484829002819 -2.1486796503336381  5.5648299292365389 -2.1736272521781532  5.5411341486335681 -2.1969145404899115  5.5170791552101663 -2.2185026832037447  5.4926851754405792 -2.2383544860895079  5.467974622801246 -2.2564346590789786  5.4429720418748841 -2.2727100812222116  5.4177040204058304 -2.2871500596763368  5.3921990687352483 -2.2997265792184289  5.3664874664220816 -2.3104145336678146  5.3406010786044886 -2.3191919492549498  5.314573138909422 -2.3260401406386002  5.2884380217823974 -2.3309440000475932  5.2622309343530222 -2.3338916522952458  5.244735516989258 -2.3345480991073075  5.2359877559829879 -2.3345477868247331 
 2.3094010781546799e-07 4 7.2399723756512481e-05 1 0.00014456850740520951 1 0.00021673729105390653 1 0.00028890607470260355 1 0.00036107485835130054 1 0.00043324364199999758 1 0.00050541242564869457 1 0.00057758120929739156 1 0.00064974999294608855 1 0.00072191877659478554 1 0.00079408756024348264 1 0.00086625634389217963 1 0.00093842512754087662 1 0.0010105939111895738 1 0.0010827626948382708 1 0.0011549314784869678 1 0.0012271002621356648 1 0.0012992690457843618 1 0.0013714378294330588 1 0.0014436066130817558 1 0.001515775396730453 1 0.00158794418037915 4
7 0 0  3 25 23  4.1887902047863914 3.4466958566839807e-15  4.1800424437801214 -3.1228257088819329e-07  4.1625470264163589 0.00065613452949040644  4.1363399389869802 0.003603786777144138  4.1102048218599601 0.008507646186136834  4.0841768821648881 0.015355837569787215  4.0582904943472977 0.02413325315692166  4.032578892034131 0.034821207606308843  4.007073940363548 0.047397727148398218  3.9818059188944952 0.061837705602526528  3.956803337968132 0.078113127745757377  3.9320927853287984 0.096193300735229276  3.907698805559213 0.11604510362099138  3.8836438121358134 0.13763324633482654  3.8599480315328392 0.1609205346465831  3.8366294778690966 0.18586813649109896  3.8137039561338058 0.21243584574372018  3.7911850909688667 0.2405823399506756  3.7690843796797502 0.27026542864061187  3.7474112602745149 0.30144229076410345  3.7261732137964225 0.33406969501318645  3.705375813654852 0.36810421708774549  3.6850230325370359 0.40350239450390474  3.6717520996441335 0.42798148880039349  3.6651914291880918 0.44043390182166492 
 0.00158794418037915 4 0.0016601129640278595 1 0.0017322817476765691 1 0.0018044505313252787 1 0.0018766193149739882 1 0.0019487880986226978 1 0.0020209568822714074 1 0.0020931256659201167 1 0.0021652944495688265 1 0.0022374632332175359 1 0.0023096320168662456 1 0.002381800800514955 1 0.0024539695841636648 1 0.0025261383678123741 1 0.0025983071514610835 1 0.0026704759351097933 1 0.002742644718758503 1 0.0028148135024072124 1 0.0028869822860559217 1 0.0029591510697046315 1 0.0030313198533533413 1 0.0031034886370020507 1 0.00317565742065076 4
7 0 0  3 25 23  4.7123889803846897 0.44043390182166364  4.7058283099286475 0.42798148880039177  4.6925573770357429 0.40350239450390246  4.6722045959179299 0.36810421708774343  4.6514071957763585 0.33406969501318229  4.6301691492982657 0.30144229076410156  4.6084960298930309 0.27026542864060826  4.5863953186039144 0.24058233995067127  4.5638764534389757 0.2124358457437161  4.5409509317036854 0.18586813649109646  4.5176323780399423 0.16092053464657896  4.4939365974369681 0.13763324633482252  4.4698816040135689 0.11604510362098593  4.4454876242439827 0.096193300735226611  4.4207770716046486 0.0781131277457532  4.3957744906782859 0.061837705602522698  4.370506469209233 0.047397727148397129  4.3450015175386527 0.034821207606306637  4.3192899152254842 0.024133253156918753  4.2934035274078939 0.015355837569785539  4.2673755877128228 0.0085076461861361887  4.2412404705858036 0.0036037867771432554  4.2150333831564248 0.00065613452948941396  4.1975379657926606 -3.1228257140823626e-07  4.1887902047863914 3.4466958566839807e-15 
 2.30940107814728e-07 4 7.239972375651179e-05 1 0.00014456850740520883 1 0.00021673729105390591 1 0.00028890607470260295 1 0.0003610748583513 1 0.00043324364199999709 1 0.00050541242564869414 1 0.00057758120929739124 1 0.00064974999294608834 1 0.00072191877659478533 1 0.00079408756024348243 1 0.00086625634389217953 1 0.00093842512754087652 1 0.0010105939111895734 1 0.0010827626948382706 1 0.0011549314784869676 1 0.0012271002621356646 1 0.0012992690457843618 1 0.0013714378294330588 1 0.0014436066130817558 1 0.001515775396730453 1 0.00158794418037915 4
1 0 0.38254476862192199 1 0 
1 9.4247779607693793 0 -1 0 
1 3.1415926535897931 -2.3345477868247366 -1 0 
1 3.1415926535897931 -2.3345477868247366 -1 0 
1 3.1415926535897931 -2.3345477868247366 -1 0 
1 9.4247779607693793 -2.3345477868247366 -1 0 
1 9.4247779607693793 -2.3345477868247366 -1 0 
1 9.4247779607693793 -2.3345477868247366 -1 0 
7 0 0  3 25 23  4.7123889803846897 -1.8941138850030734  4.7058283099286475 -1.9065662980243447  4.6925573770357429 -1.9310453923208337  4.6722045959179299 -1.9664435697369937  4.6514071957763585 -2.000478091811555  4.6301691492982657 -2.0331054960606352  4.6084960298930309 -2.0642823581841276  4.5863953186039144 -2.093965446874066  4.5638764534389757 -2.1221119410810205  4.5409509317036854 -2.1486796503336412  4.5176323780399414 -2.1736272521781568  4.4939365974369689 -2.1969145404899142  4.4698816040135689 -2.21850268320375  4.4454876242439836 -2.2383544860895097  4.4207770716046486 -2.256434659078983  4.3957744906782867 -2.2727100812222134  4.3705064692092348 -2.2871500596763403  4.3450015175386518 -2.2997265792184298  4.3192899152254851 -2.3104145336678177  4.293403527407893 -2.3191919492549511  4.2673755877128228 -2.3260401406386015  4.2412404705858027 -2.3309440000475936  4.2150333831564257 -2.3338916522952475  4.1975379657926615 -2.334548099107308  4.1887902047863914 -2.3345477868247331 
 2.3094010781564799e-07 4 7.2399723756512657e-05 1 0.00014456850740520965 1 0.00021673729105390667 1 0.00028890607470260366 1 0.00036107485835130065 1 0.00043324364199999769 1 0.00050541242564869468 1 0.00057758120929739167 1 0.00064974999294608866 1 0.00072191877659478565 1 0.00079408756024348264 1 0.00086625634389217974 1 0.00093842512754087673 1 0.0010105939111895738 1 0.0010827626948382708 1 0.0011549314784869678 1 0.0012271002621356648 1 0.0012992690457843618 1 0.0013714378294330588 1 0.0014436066130817558 1 0.0015157753967304528 1 0.00158794418037915 4
1 0 0 1 0 
1 0 -1.286871710911444e-15 1 4.0962398783336168e-16 
1 0 -1.7158289478819283e-15 1 4.0962398783336237e-16 
7 0 0  3 25 23  5.2359877559829879 3.4316578957638523e-15  5.2272399949767179 -3.1228257142743087e-07  5.2097445776129554 0.00065613452948939943  5.1835374901835758 0.0036037867771432364  5.1574023730565575 0.008507646186136213  5.1313744333614864 0.015355837569785343  5.1054880455438942 0.024133253156919374  5.0797764432307275 0.03482120760630688  5.0542714915601445 0.047397727148395373  5.0290034700910926 0.061837705602524301  5.0040008891647298 0.078113127745753588  4.9792903365253958 0.096193300735225987  4.9548963567558104 0.11604510362098765  4.9308413633324095 0.13763324633482404  4.9071455827294379 0.16092053464657868  4.883827029065694 0.18586813649109601  4.8609015073304036 0.21243584574371593  4.838382642165465 0.2405823399506723  4.8162819308763476 0.27026542864060871  4.7946088114711127 0.30144229076410139  4.7733707649930208 0.33406969501318257  4.7525733648514494 0.36810421708774449  4.7322205837336346 0.40350239450390224  4.7189496508407309 0.42798148880039139  4.7123889803846897 0.44043390182166364 
 0.00158794418037915 4 0.0016601129640278595 1 0.0017322817476765691 1 0.0018044505313252787 1 0.0018766193149739882 1 0.0019487880986226978 1 0.0020209568822714074 1 0.0020931256659201167 1 0.0021652944495688265 1 0.0022374632332175359 1 0.0023096320168662456 1 0.002381800800514955 1 0.0024539695841636648 1 0.0025261383678123741 1 0.0025983071514610835 1 0.0026704759351097933 1 0.002742644718758503 1 0.0028148135024072124 1 0.0028869822860559217 1 0.0029591510697046315 1 0.0030313198533533413 1 0.0031034886370020507 1 0.00317565742065076 4
1 0 1.2868717109114464e-15 1 -8.1924797566672494e-16 
1 0 0 1 4.0962398783336158e-16 
1 0 2.573743421822888e-15 1 -4.0962398783336168e-16 
7 0 0  3 25 23  5.759586531581288 0.44043390182180081  5.7661281994542692 0.42801753242680934  5.7793645547678008 0.40360028405525261  5.7996754503761565 0.36826785777422455  5.8204406792305958 0.33427582577385362  5.8416558785848114 0.30167123061686474  5.8633149962503976 0.27050093581333545  5.8854099676736107 0.24081143473354991  5.9079306656285953 0.21264861498002502  5.9308647946807254 0.1860575138160088  5.9541978226918797 0.1610820573294206  5.977912929100186 0.13776478821394172  6.0019909797365889 0.11614658449892989  6.0264105295905237 0.096266372941357467  6.0511478566803616 0.078160841110453308  6.0761770290158434 0.061864152595663774  6.1014700060888982 0.047407670497506299  6.1269967753215528 0.034819693118323634  6.1527255233004965 0.024125211352172864  6.1786228392130589 0.015345676653379693  6.2046539519211397 0.0084988448434384495  6.2307829820581784 0.0035984745483989425  6.2569732605053394 0.00065472591773898614  6.2744494195358635 -3.4425621181295772e-07  6.2831853071795853 0 
 0.00269244557889603 4 0.0027649711119141938 1 0.0028374966449323572 1 0.002910022177950521 1 0.0029825477109686844 1 0.0030550732439868482 1 0.0031275987770050116 1 0.0032001243100231755 1 0.0032726498430413389 1 0.0033451753760595027 1 0.0034177009090776661 1 0.0034902264420958299 1 0.0035627519751139933 1 0.0036352775081321571 1 0.003707803041150321 1 0.0037803285741684844 1 0.0038528541071866478 1 0.0039253796402048116 1 0.0039979051732229754 1 0.0040704307062411384 1 0.0041429562392593022 1 0.004215481772277466 1 0.0042880073052956299 4
7 0 0  3 25 23  5.759586531581288 0.44043390182166492  5.7530258611252467 0.42798148880039316  5.7397549282323421 0.40350239450390424  5.7194021471145264 0.36810421708774582  5.6986047469729577 0.3340696950131864  5.677366700494864 0.30144229076410362  5.6556935810896292 0.27026542864061137  5.6335928698005109 0.24058233995067516  5.6110740046355732 0.21243584574372026  5.5881484829002828 0.18586813649109918  5.5648299292365389 0.1609205346465819  5.5411341486335663 0.13763324633482579  5.5170791552101655 0.11604510362099052  5.492685175440581 0.096193300735228193  5.4679746228012451 0.078113127745757613  5.442972041874885 0.061837705602526466  5.4177040204058304 0.047397727148398315  5.3921990687352492 0.034821207606308434  5.3664874664220816 0.02413325315692056  5.3406010786044904 0.015355837569786715  5.3145731389094193 0.0085076461861372989  5.2884380217824001 0.0036037867771426626  5.2622309343530214 0.00065613452949062621  5.244735516989258 -3.1228257047563822e-07  5.2359877559829879 3.4316578957638523e-15 
 2.3094010781420401e-07 4 7.2399723756511289e-05 1 0.00014456850740520837 1 0.00021673729105390545 1 0.00028890607470260257 1 0.00036107485835129967 1 0.00043324364199999672 1 0.00050541242564869381 1 0.00057758120929739091 1 0.00064974999294608801 1 0.00072191877659478511 1 0.00079408756024348221 1 0.0008662563438921792 1 0.0009384251275408763 1 0.0010105939111895734 1 0.0010827626948382706 1 0.0011549314784869676 1 0.0012271002621356646 1 0.0012992690457843618 1 0.0013714378294330588 1 0.001443606613081756 1 0.001515775396730453 1 0.00158794418037915 4
7 0 0  3 25 23  3.1415926535897931 -2.3345477868247366  3.1328274893776298 -2.3345480987461404  3.1152990788977362 -2.3338890940079624  3.0890479958820345 -2.3309311142152183  3.0628744496126092 -2.3260116210871806  3.0368136560320695 -2.3191436619496022  3.0108999573080726 -2.3103434987308518  2.9851665094069104 -2.2996309449094183  2.9596450583753549 -2.2870290695147162  2.9343657259495171 -2.2725640346469977  2.909356829757034 -2.2562648663955462  2.8846447341081154 -2.238163218470357  2.8602537339664953 -2.21829311858342  2.8362059717135701 -2.1966907062170895  2.8125213860096276 -2.1733939652912362  2.789217691117309 -2.1484424563025466  2.7663103846139583 -2.121877051819224  2.743812780383009 -2.0937396787518563  2.7217360654707141 -2.0640730707532442  2.7000893716131853 -2.03292053193009  2.6788798804574605 -2.0003257187383237  2.658112875951649 -1.9663324232628818  2.637792051560619 -1.9309844270772922  2.6245432902155392 -1.9065449235211451  2.6179938779914944 -1.8941138850029351 
 0.0042880073052956299 4 0.0043607758006595958 1 0.0044335442960235618 1 0.0045063127913875277 1 0.0045790812867514937 1 0.0046518497821154596 1 0.0047246182774794256 1 0.0047973867728433916 1 0.0048701552682073575 1 0.0049429237635713235 1 0.0050156922589352886 1 0.0050884607542992545 1 0.0051612292496632205 1 0.0052339977450271864 1 0.0053067662403911524 1 0.0053795347357551183 1 0.0054523032311190843 1 0.0055250717264830503 1 0.0055978402218470162 1 0.0056706087172109822 1 0.0057433772125749481 1 0.0058161457079389141 1 0.00588891420330288 4
7 0 0  3 25 23  2.6179938779914944 -1.8941138850030721  2.6114332075354523 -1.9065662980243432  2.5981622746425503 -1.9310453923208324  2.5778094935247329 -1.9664435697369902  2.5570120933831642 -2.0004780918115506  2.53577404690507 -2.0331054960606338  2.5141009274998365 -2.064282358184125  2.4920002162107182 -2.0939654468740621  2.4694813510457814 -2.1221119410810161  2.4465558293104892 -2.1486796503336376  2.4232372756467471 -2.1736272521781541  2.3995414950437732 -2.196914540489912  2.3754865016203723 -2.2185026832037447  2.3510925218507883 -2.2383544860895079  2.3263819692114529 -2.256434659078979  2.3013793882850906 -2.2727100812222103  2.2761113668160378 -2.2871500596763368  2.2506064151454566 -2.2997265792184289  2.2248948128322885 -2.310414533667815  2.1990084250146977 -2.3191919492549502  2.1729804853196257 -2.3260401406385998  2.1468453681926061 -2.3309440000475936  2.1206382807632282 -2.333891652295248  2.1031428633994635 -2.334548099107308  2.0943951023931948 -2.334547786824734 
 2.3094010781535899e-07 4 7.2399723756512386e-05 1 0.00014456850740520943 1 0.00021673729105390645 1 0.00028890607470260349 1 0.00036107485835130054 1 0.00043324364199999753 1 0.00050541242564869457 1 0.00057758120929739156 1 0.00064974999294608855 1 0.00072191877659478565 1 0.00079408756024348264 1 0.00086625634389217963 1 0.00093842512754087673 1 0.0010105939111895738 1 0.0010827626948382708 1 0.0011549314784869678 1 0.0012271002621356648 1 0.0012992690457843618 1 0.001371437829433059 1 0.001443606613081756 1 0.001515775396730453 1 0.00158794418037915 4
7 0 0  3 25 23  1.0471975511965985 3.4466958566839807e-15  1.0384497901903293 -3.1228257088819329e-07  1.0209543728265651 0.0006561345294904034  0.99474728539718715 0.0036037867771441484  0.96861216827016716 0.0085076461861367959  0.94258422857509616 0.01535583756978736  0.91669784075750516 0.024133253156921119  0.89098623844433678 0.034821207606308302  0.86548128677375546 0.047397727148398364  0.84021326530470253 0.061837705602526494  0.81521068437833999 0.078113127745757363  0.79050013173900546 0.096193300735229331  0.76610615196942011 0.11604510362099116  0.74205115854602033 0.13763324633482732  0.71835537794304649 0.16092053464658271  0.69503682427930369 0.18586813649109984  0.6721113025440123 0.21243584574371996  0.64959243737907479 0.24058233995067568  0.62749172608995663 0.27026542864061165  0.60581860668472254 0.30144229076410423  0.58458056020662919 0.33406969501318623  0.56378316006505924 0.36810421708774554  0.54343037894724355 0.40350239450390474  0.53015944605434029 0.42798148880039349  0.52359877559829859 0.44043390182166492 
 0.00158794418037915 4 0.0016601129640278595 1 0.0017322817476765691 1 0.0018044505313252787 1 0.0018766193149739882 1 0.0019487880986226978 1 0.0020209568822714074 1 0.0020931256659201167 1 0.0021652944495688265 1 0.0022374632332175359 1 0.0023096320168662456 1 0.002381800800514955 1 0.0024539695841636648 1 0.0025261383678123741 1 0.0025983071514610835 1 0.0026704759351097933 1 0.002742644718758503 1 0.0028148135024072124 1 0.0028869822860559217 1 0.0029591510697046315 1 0.0030313198533533413 1 0.0031034886370020507 1 0.00317565742065076 4
7 0 0  3 25 23  0 0  0.0087651642121634853 -3.1192140420870269e-07  0.026293574692057772 0.00065869281677476512  0.052544657707758714 0.003616672609518303  0.078718203977184084 0.0085361657375559556  0.10477899755772314 0.015404124875135289  0.13069269628172114 0.024204288093883516  0.15642614418288164 0.034916841915318686  0.18194759521443865 0.047518717310021066  0.20722692764027623 0.061983752177738674  0.23223582383275823 0.078282920429191008  0.25694791948167855 0.096384568354378961  0.28133891962329782 0.11625466824131772  0.30538668187622242 0.13785708060764609  0.32907126758016553 0.16115382153350058  0.3523749624724834 0.18610533052219083  0.37528226897583511 0.21267073500551092  0.39777987320678365 0.24080810807288058  0.41985658811907922 0.27047471607149076  0.44150328197660782 0.30162725489464637  0.462712773132333 0.33422206808641247  0.48347977763814387 0.36821536356185519  0.50380060202917443 0.40356335974744356  0.51704936337425356 0.42800286330358989  0.52359877559829859 0.44043390182180081 
 0.0042880073052956299 4 0.0043607758006595958 1 0.0044335442960235618 1 0.0045063127913875277 1 0.0045790812867514937 1 0.0046518497821154596 1 0.0047246182774794256 1 0.0047973867728433916 1 0.0048701552682073575 1 0.0049429237635713235 1 0.0050156922589352886 1 0.0050884607542992545 1 0.0051612292496632205 1 0.0052339977450271864 1 0.0053067662403911524 1 0.0053795347357551183 1 0.0054523032311190843 1 0.0055250717264830503 1 0.0055978402218470162 1 0.0056706087172109822 1 0.0057433772125749481 1 0.0058161457079389141 1 0.00588891420330288 4
7 0 0  3 25 23  3.6651914291880918 -1.8941138850029351  3.6586497613151105 -1.9065302543979266  3.6454134060015799 -1.9309475027694833  3.6251025103932215 -1.9662799290505109  3.604337281538784 -2.0002719610508839  3.5831220821845675 -2.0328765562078708  3.5614629645189804 -2.0640468510114012  3.5393679930957678 -2.0937363520911862  3.5168472951407845 -2.1218991718447122  3.4939131660886509 -2.148490273008727  3.4705801380774988 -2.1734657294953159  3.4468650316691911 -2.1967829986107943  3.4227869810327904 -2.218401202325806  3.3983674311788543 -2.2382814138833802  3.3736301040890178 -2.256386945714282  3.3486009317535341 -2.2726836342290726  3.323307954680482 -2.2871401163272318  3.2977811854478243 -2.299728093706412  3.2720524374688833 -2.3104225754725647  3.2461551215563178 -2.3192021101713562  3.2201240088482401 -2.3260489419812989  3.1939949787111965 -2.3309493122763367  3.1678047002640435 -2.3338930609069992  3.1503285412335167 -2.3345481310809491  3.1415926535897931 -2.3345477868247366 
 0.00269244557889603 4 0.0027649711119141938 1 0.0028374966449323572 1 0.002910022177950521 1 0.0029825477109686844 1 0.0030550732439868482 1 0.0031275987770050116 1 0.0032001243100231755 1 0.0032726498430413389 1 0.0033451753760595027 1 0.0034177009090776661 1 0.0034902264420958299 1 0.0035627519751139933 1 0.0036352775081321571 1 0.003707803041150321 1 0.0037803285741684844 1 0.0038528541071866478 1 0.0039253796402048116 1 0.0039979051732229754 1 0.0040704307062411384 1 0.0041429562392593022 1 0.004215481772277466 1 0.0042880073052956299 4
7 0 0  3 25 23  4.1887902047863914 -2.3345477868247331  4.1800424437801214 -2.3345480991073071  4.1625470264163589 -2.3338916522952462  4.1363399389869802 -2.3309440000475932  4.1102048218599601 -2.3260401406386002  4.0841768821648881 -2.3191919492549502  4.0582904943472977 -2.310414533667815  4.032578892034131 -2.2997265792184285  4.007073940363548 -2.2871500596763372  3.9818059188944952 -2.2727100812222107  3.956803337968132 -2.2564346590789786  3.9320927853287984 -2.238354486089507  3.907698805559213 -2.2185026832037451  3.8836438121358134 -2.1969145404899102  3.8599480315328392 -2.1736272521781532  3.8366294778690966 -2.1486796503336381  3.8137039561338058 -2.1221119410810156  3.7911850909688667 -2.0939654468740612  3.7690843796797502 -2.0642823581841245  3.7474112602745149 -2.0331054960606325  3.7261732137964225 -2.0004780918115506  3.705375813654852 -1.9664435697369909  3.6850230325370359 -1.9310453923208319  3.6717520996441335 -1.9065662980243436  3.6651914291880918 -1.8941138850030721 
 0.00158794418037915 4 0.0016601129640278595 1 0.0017322817476765691 1 0.0018044505313252787 1 0.0018766193149739882 1 0.0019487880986226978 1 0.0020209568822714074 1 0.0020931256659201167 1 0.0021652944495688265 1 0.0022374632332175359 1 0.0023096320168662456 1 0.002381800800514955 1 0.0024539695841636648 1 0.0025261383678123741 1 0.0025983071514610835 1 0.0026704759351097933 1 0.002742644718758503 1 0.0028148135024072124 1 0.0028869822860559217 1 0.0029591510697046315 1 0.0030313198533533413 1 0.0031034886370020507 1 0.00317565742065076 4
7 0 0  3 25 23  2.0943951023931948 -2.334547786824734  2.0856473413869261 -2.334548099107308  2.0681519240231618 -2.3338916522952471  2.0419448365937831 -2.3309440000475949  2.0158097194667639 -2.3260401406386011  1.9897817797716928 -2.319191949254952  1.9638953919541016 -2.3104145336678181  1.9381837896409344 -2.2997265792184294  1.9126788379703525 -2.2871500596763403  1.8874108165012993 -2.272710081222213  1.8624082355749374 -2.2564346590789821  1.8376976829356026 -2.2383544860895106  1.8133037031660173 -2.2185026832037482  1.7892487097426182 -2.1969145404899137  1.7655529291396439 -2.1736272521781586  1.7422343754759013 -2.1486796503336407  1.7193088537406107 -2.1221119410810201  1.6967899885756723 -2.0939654468740647  1.6746892772865551 -2.0642823581841272  1.6530161578813201 -2.0331054960606352  1.6317781114032275 -2.0004780918115537  1.6109807112616572 -1.9664435697369922  1.5906279301438413 -1.9310453923208344  1.5773569972509383 -1.9065662980243454  1.5707963267948966 -1.8941138850030734 
 0.00158794418037915 4 0.0016601129640278595 1 0.0017322817476765691 1 0.0018044505313252787 1 0.0018766193149739882 1 0.0019487880986226978 1 0.0020209568822714074 1 0.0020931256659201167 1 0.0021652944495688265 1 0.0022374632332175359 1 0.0023096320168662456 1 0.002381800800514955 1 0.0024539695841636648 1 0.0025261383678123741 1 0.0025983071514610835 1 0.0026704759351097933 1 0.002742644718758503 1 0.0028148135024072124 1 0.0028869822860559217 1 0.0029591510697046315 1 0.0030313198533533413 1 0.0031034886370020507 1 0.00317565742065076 4
7 0 0  3 25 23  1.5707963267948966 0.44043390182166364  1.5642356563388546 0.42798148880039144  1.5509647234459514 0.40350239450390191  1.5306119423281359 0.36810421708774338  1.5098145421865659 0.33406969501318312  1.4885764957084728 0.30144229076410134  1.4669033763032382 0.27026542864060832  1.4448026650141204 0.24058233995067119  1.4222837998491829 0.21243584574371616  1.3993582781138918 0.1858681364910964  1.3760397244501492 0.16092053464657902  1.3523439438471749 0.13763324633482232  1.3282889504237756 0.11604510362098666  1.30389497065419 0.096193300735226431  1.2791844180148555 0.0781131277457532  1.2541818370884932 0.061837705602522886  1.2289138156194406 0.0473977271483964  1.2034088639488589 0.034821207606306831  1.1776972616356913 0.024133253156918711  1.1518108738181001 0.015355837569785502  1.1257829341230297 0.0085076461861363761  1.0996478169960096 0.0036037867771425364  1.0734407295666315 0.00065613452948952737  1.0559453122028675 -3.1228257119389002e-07  1.0471975511965985 3.4466958566839807e-15 
 2.30940107814728e-07 4 7.239972375651179e-05 1 0.00014456850740520883 1 0.00021673729105390591 1 0.00028890607470260295 1 0.0003610748583513 1 0.00043324364199999709 1 0.00050541242564869414 1 0.00057758120929739124 1 0.00064974999294608834 1 0.00072191877659478533 1 0.00079408756024348243 1 0.00086625634389217953 1 0.00093842512754087652 1 0.0010105939111895734 1 0.0010827626948382706 1 0.0011549314784869676 1 0.0012271002621356646 1 0.0012992690457843618 1 0.0013714378294330588 1 0.0014436066130817558 1 0.001515775396730453 1 0.00158794418037915 4
Curves 56
2 0.27050000000000002 0 0 1 0 -0 -0 0 -1 0 1 0 1.2295
1 0 -1.8369095307335701e-16 -1.5 -0.70710678118654802 -8.6592745707193505e-17 -0.70710678118654702 
2 0 0 0 1 0 -0 -0 0 -1 0 1 0 1.5
1 0 1.8369095307335701e-16 1.5 0.70710678118654802 -8.6592745707193505e-17 -0.70710678118654702 
2 2.1295000000000002 0 0 1 0 -0 -0 0 -1 0 1 0 1.2295
1 1.2 1.50565351202461e-16 1.2295 -1 0 0 
2 0.27050000000000002 0 0 1 0 -0 -0 0 -1 0 1 0 1.2295
1 1.2 -1.50565351202461e-16 -1.2295 1 0 0 
2 2.1295000000000002 0 0 1 0 -0 -0 0 -1 0 1 0 1.2295
1 2.1295000000000002 -1.50565351202461e-16 1.2295 0.70710678118654702 -8.6592745707193603e-17 0.70710678118654802 
2 2.3999999999999999 0 0 1 0 -0 -0 0 -1 0 1 0 1.5
1 2.1295000000000002 1.50565351202461e-16 -1.2295 -0.70710678118654702 -8.6592745707193603e-17 0.70710678118654802 
1 2.3999999999999999 -1.58771324027147 2.75 -1 -0 -0 
7 0 0  3 4 2  2.2860073180997 -1.58771324027147 2.75  2.35670644260329 -1.0600077908754399 2.75  2.3999999999999999 -0.52851985376320998 2.75  2.3999999999999999 6.8032629689595799e-16 2.75 
 0.00269244557889604 4 0.0042880073052956403 4
7 0 0  3 4 2  2.3999999999999999 6.8032629689595799e-16 2.75  2.3999999999999999 0.53029040846483799 2.75  2.35679004765985 1.05938375423773 2.75  2.2860073180997 1.58771324027147 2.75 
 0.0042880073052956403 4 0.00588891420330288 4
1 2.3999999999999999 1.58771324027147 2.75 -1 -0 -0 
7 0 0  3 4 2  0 -1.8934086586163801e-16 2.75  -9.7831314615374403e-18 0.53029040846483699 2.75  0.043209952340150501 1.05938375423773 2.75  0.113992681900296 1.58771324027147 2.75 
 0.0042880073052956299 4 0.00588891420330288 4
7 0 0  3 4 2  0.113992681900296 -1.58771324027147 2.75  0.043293557396711098 -1.0600077908754399 2.75  9.7504671532087206e-18 -0.52851985376321098 2.75  0 -1.8934086586163801e-16 2.75 
 0.00269244557889603 4 0.0042880073052956299 4
7 0 0  3 4 2  2.3999999999999999 2.3815698604072102 1.375  2.3999999999999999 2.11695098702863 1.8333333333333299  2.35691173152405 1.8523321136500499 2.2916666666666701  2.2860073181002298 1.58771324027147 2.75 
 0.00158794418037915 4 0.00317565742065076 4
7 0 0  3 4 2  2.2860073181002298 3.17542648054294 1.58540331334057e-16  2.35691173152405 2.9108076071643598 0.45833333333333298  2.3999999999999999 2.6461887337857801 0.91666666666666696  2.3999999999999999 2.3815698604072102 1.375 
 2.3094010781588701e-07 4 0.00158794418037915 4
1 2.3999999999999999 3.17542648054294 0 -1 -0 -0 
7 0 0  3 4 2  0 2.3815698604072102 1.375  7.6037403178240202e-18 2.6461887337857801 0.91666666666666696  0.043088268475947197 2.9108076071643598 0.45833333333333398  0.11399268189977101 3.17542648054294 8.3831115487554102e-16 
 0.00158794418037915 4 0.00317565742065076 4
7 0 0  3 4 2  0.11399268189977101 1.58771324027147 2.75  0.043088268475947399 1.8523321136500499 2.2916666666666701  -7.6037403178240202e-18 2.11695098702863 1.8333333333333299  0 2.3815698604072102 1.375 
 2.3094010781420401e-07 4 0.00158794418037915 4
1 2.3999999999999999 -3.17542648054294 0 -1 -0 -0 
7 0 0  3 4 2  2.3999999999999999 -2.3815698604072102 1.375  2.3999999999999999 -2.6461887337857801 0.91666666666666596  2.35691173152405 -2.9108076071643598 0.45833333333333298  2.2860073181002298 -3.17542648054294 -8.9718077189032801e-17 
 0.00158794418037915 4 0.00317565742065076 4
7 0 0  3 4 2  2.2860073181002298 -1.58771324027147 2.75  2.35691173152405 -1.8523321136500499 2.2916666666666701  2.3999999999999999 -2.11695098702863 1.8333333333333299  2.3999999999999999 -2.3815698604072102 1.375 
 2.3094010781546799e-07 4 0.00158794418037915 4
7 0 0  3 4 2  5.8102219309912003e-17 -2.3815698604072102 1.375  5.04984789920879e-17 -2.11695098702863 1.8333333333333299  0.043088268475947399 -1.8523321136500499 2.2916666666666701  0.11399268189977101 -1.58771324027147 2.75 
 0.00158794418037915 4 0.00317565742065076 4
7 0 0  3 4 2  0.11399268189977101 -3.17542648054294 1.46876257516447e-16  0.043088268475947301 -2.9108076071643598 0.45833333333333298  6.5705959627735996e-17 -2.6461887337857801 0.91666666666666696  5.8102219309912003e-17 -2.3815698604072102 1.375 
 2.30940107814728e-07 4 0.00158794418037915 4
2 2.3999999999999999 0 0 1 0 -0 -0 0 -1 0 1 0 1.5
2 0 0 0 1 0 -0 -0 0 -1 0 1 0 1.5
2 2.3999999999999999 0 0 1 0 -0 -0 0 -1 0 1 0 2.75
2 2.3999999999999999 0 0 1 0 -0 -0 0 -1 0 1 0 2.75
2 2.3999999999999999 0 0 1 0 -0 -0 0 -1 0 1 0 2.75
2 2.3999999999999999 0 0 1 0 -0 -0 0 -1 0 1 0 2.75
2 2.3999999999999999 0 0 1 0 -0 -0 0 -1 0 1 0 2.75
2 2.3999999999999999 0 0 1 0 -0 -0 0 -1 0 1 0 2.75
7 0 0  3 4 2  2.2860073181002298 -3.17542648054294 7.74642235946722e-17  2.35691173152405 -2.9108076071643598 -0.45833333333333298  2.3999999999999999 -2.6461887337857801 -0.91666666666666596  2.3999999999999999 -2.3815698604072102 -1.375 
 2.3094010781564799e-07 4 0.00158794418037915 4
2 0 0 0 1 0 -0 -0 0 -1 0 1 0 2.75
2 0 0 0 1 0 -0 -0 0 -1 0 1 0 2.75
2 0 0 0 1 0 -0 -0 0 -1 0 1 0 2.75
7 0 0  3 4 2  0 -2.3815698604072102 -1.375  7.6037403178240202e-18 -2.6461887337857801 -0.91666666666666696  0.043088268475947197 -2.9108076071643598 -0.45833333333333398  0.11399268189977101 -3.17542648054294 -8.3831115487554102e-16 
 0.00158794418037915 4 0.00317565742065076 4
2 0 0 0 1 0 -0 -0 0 -1 0 1 0 2.75
2 0 0 0 1 0 -0 -0 0 -1 0 1 0 2.75
2 0 0 0 1 0 -0 -0 0 -1 0 1 0 2.75
7 0 0  3 4 2  0.113992681900296 -1.58771324027147 -2.75  0.043293557396711098 -1.0600077908754399 -2.75  9.7504671532087206e-18 -0.52851985376321098 -2.75  0 -1.8934086586163801e-16 -2.75 
 0.00269244557889603 4 0.0042880073052956299 4
7 0 0  3 4 2  0.11399268189977101 -1.58771324027147 -2.75  0.043088268475947399 -1.8523321136500499 -2.2916666666666701  -7.6037403178240202e-18 -2.11695098702863 -1.8333333333333299  0 -2.3815698604072102 -1.375 
 2.3094010781420401e-07 4 0.00158794418037915 4
7 0 0  3 4 2  2.3999999999999999 -1.87035441092446e-16 -2.75  2.3999999999999999 0.53029040846483699 -2.75  2.35679004765985 1.05938375423773 -2.75  2.2860073180997 1.58771324027147 -2.75 
 0.0042880073052956299 4 0.00588891420330288 4
7 0 0  3 4 2  2.2860073181002298 1.58771324027147 -2.75  2.35691173152405 1.8523321136500499 -2.2916666666666701  2.3999999999999999 2.11695098702863 -1.8333333333333299  2.3999999999999999 2.3815698604072102 -1.375 
 2.3094010781535899e-07 4 0.00158794418037915 4
7 0 0  3 4 2  5.8102219309912003e-17 2.3815698604072102 -1.375  5.04984789920879e-17 2.11695098702863 -1.8333333333333299  0.043088268475947399 1.8523321136500499 -2.2916666666666701  0.11399268189977101 1.58771324027147 -2.75 
 0.00158794418037915 4 0.00317565742065076 4
7 0 0  3 4 2  0 -1.8934086586163801e-16 -2.75  -9.7831314615374403e-18 0.53029040846483699 -2.75  0.043209952340150501 1.05938375423773 -2.75  0.113992681900296 1.58771324027147 -2.75 
 0.0042880073052956299 4 0.00588891420330288 4
1 2.3999999999999999 1.58771324027147 -2.75 -1 -0 -0 
7 0 0  3 4 2  2.2860073180997 -1.58771324027147 -2.75  2.35670644260329 -1.0600077908754399 -2.75  2.3999999999999999 -0.52851985376321098 -2.75  2.3999999999999999 -1.87035441092446e-16 -2.75 
 0.00269244557889603 4 0.0042880073052956299 4
1 2.3999999999999999 -1.58771324027147 -2.75 -1 -0 -0 
7 0 0  3 4 2  2.3999999999999999 -2.3815698604072102 -1.375  2.3999999999999999 -2.11695098702863 -1.8333333333333299  2.35691173152405 -1.8523321136500499 -2.2916666666666701  2.2860073181002298 -1.58771324027147 -2.75 
 0.00158794418037915 4 0.00317565742065076 4
7 0 0  3 4 2  2.3999999999999999 2.3815698604072102 -1.375  2.3999999999999999 2.6461887337857801 -0.91666666666666596  2.35691173152405 2.9108076071643598 -0.45833333333333298  2.2860073181002298 3.17542648054294 8.9718077189032801e-17 
 0.00158794418037915 4 0.00317565742065076 4
7 0 0  3 4 2  0.11399268189977101 3.17542648054294 -1.46876257516447e-16  0.043088268475947301 2.9108076071643598 -0.45833333333333298  6.5705959627735996e-17 2.6461887337857801 -0.91666666666666696  5.8102219309912003e-17 2.3815698604072102 -1.375 
 2.30940107814728e-07 4 0.00158794418037915 4
Polygon3D 0
PolygonOnTriangulations 0
Surfaces 26
3 0 0 0 -1 0 -0 0 0 1 0 1 -0 1.5
0.78539816339744795
2 2.3999999999999999 0 0 1 0 0 0 0 -1 -0 1 0 1.2295
3 0 0 0 -1 0 -0 0 0 1 0 1 -0 1.5
0.78539816339744795
1 0 0 0 1 -0 0 0 1 0 -0 0 1 
2 2.3999999999999999 0 0 1 0 0 0 0 -1 -0 1 0 1.2295
3 2.1295000000000002 0 0 1 -0 -0 0 0 -1 0 1 0 1.2295
0.78539816339744895
3 2.1295000000000002 0 0 1 -0 -0 0 0 -1 0 1 0 1.2295
0.78539816339744895
1 2.3999999999999999 2.75 0 -1 0 0 0 0 1 0 1 -0 
1 2.3999999999999999 1.58771324027147 2.75 0 0 -1 0 -1 0 -1 -0 -0 
1 2.3999999999999999 -1.58771324027147 2.75 0 0.86602540378443882 -0.49999999999999989 -1 0 0 0 0.49999999999999989 0.86602540378443882 
3 1.7957745710678199 0 0 -1 0 -0 0 0 1 0 1 -0 5.0049999999999999
1.3089969389957501
3 1.7957745710678199 0 0 -1 0 -0 0 0 1 0 1 -0 5.0049999999999999
1.3089969389957501
1 2.3999999999999999 3.17542648054294 0 0 -0.86602540378443882 -0.49999999999999989 0 0.49999999999999989 -0.86602540378443882 1 0 0 
3 0 0 0 1 -0 -0 0 0 -1 0 1 0 2.75
1.3089969389957501
3 0 0 0 1 -0 -0 0 0 -1 0 1 0 2.75
1.3089969389957501
3 1.7957745710678199 0 0 -1 0 -0 0 0 1 0 1 -0 5.0049999999999999
1.3089969389957501
1 2.3999999999999999 1.58771324027147 -2.75 0 -0.86602540378443882 0.49999999999999989 -1 0 0 -0 -0.49999999999999989 -0.86602540378443882 
3 0 0 0 1 -0 -0 0 0 -1 0 1 0 2.75
1.3089969389957501
1 2.3999999999999999 -3.17542648054294 0 -0 0.86602540378443882 0.49999999999999989 1 0 0 0 0.49999999999999989 -0.86602540378443882 
3 1.7957745710678199 0 0 -1 0 -0 0 0 1 0 1 -0 5.0049999999999999
1.3089969389957501
3 0 0 0 1 -0 -0 0 0 -1 0 1 0 2.75
1.3089969389957501
3 1.7957745710678199 0 0 -1 0 -0 0 0 1 0 1 -0 5.0049999999999999
1.3089969389957501
3 1.7957745710678199 0 0 -1 0 -0 0 0 1 0 1 -0 5.0049999999999999
1.3089969389957501
3 0 0 0 1 -0 -0 0 0 -1 0 1 0 2.75
1.3089969389957501
3 0 0 0 1 -0 -0 0 0 -1 0 1 0 2.75
1.3089969389957501
1 2.3999999999999999 -1.58771324027147 -2.75 0 0 1 1 -0 0 0 1 -0 
Triangulations 0

TShapes 144
Ve
1e-07
0.2705 0 -1.2295
0 0

0101101
*
Ve
1e-07
0.2705 1.50565351202461e-16 1.2295
0 0

0101101
*
Ed
 1e-07 1 1 0
1  1 0 0 3.14159265358979
2  1 1 0 0 3.14159265358979
2  2 2 0 0 3.14159265358979
4 C0 1 0 2 0
0

0101000
+144 0 -143 0 *
Ve
1e-07
0 0 -1.5
0 0

0101101
*
Ed
 1e-07 1 1 0
1  2 0 -0.382544768621922 -1.59063039881932e-32
2  3 1 0 -0.382544768621922 -1.59063039881932e-32
2  4 3 0 -0.382544768621922 -1.59063039881932e-32
4 CN 1 0 3 0
0

0101000
+144 0 -141 0 *
Ve
1e-07
0 1.83690953073357e-16 1.5
0 0

0101101
*
Ed
 1e-07 1 1 0
1  3 0 0 3.14159265358979
2  5 1 0 0 3.14159265358979
4 C0 1 0 4 0
0

0101000
+141 0 -139 0 *
Ed
 1e-07 1 1 0
1  4 0 0 0.382544768621922
2  6 1 0 0 0.382544768621922
2  7 3 0 0 0.382544768621922
4 CN 1 0 3 0
0

0101000
+139 0 -143 0 *
Wi

0101100
-142 0 +140 0 +138 0 +137 0 *
Fa
0  1e-07 1 0

0111000
+136 0 *
Ve
1e-07
2.1295 -1.50565351202461e-16 1.2295
0 0

0101101
*
Ve
1e-07
2.1295 0 -1.2295
0 0

0101101
*
Ed
 1e-07 1 1 0
1  5 0 3.14159265358979 6.28318530717959
2  8 5 0 3.14159265358979 6.28318530717959
2  9 6 0 3.14159265358979 6.28318530717959
4 C0 5 0 6 0
0

0101000
+134 0 -133 0 *
Ed
 1e-07 1 1 0
1  6 0 -0.9295 0.9295
2  10 5 0 -0.9295 0.9295
2  11 2 0 -0.9295 0.9295
4 CN 5 0 2 0
0

0101000
+134 0 -143 0 *
Ed
 1e-07 1 1 0
1  7 0 3.14159265358979 6.28318530717959
2  12 5 0 3.14159265358979 6.28318530717959
2  13 3 0 3.14159265358979 6.28318530717959
4 C0 5 0 3 0
0

0101000
+143 0 -144 0 *
Ed
 1e-07 1 1 0
1  8 0 -0.9295 0.9295
2  14 5 0 -0.9295 0.9295
2  15 2 0 -0.9295 0.9295
4 CN 5 0 2 0
0

0101000
+144 0 -133 0 *
Wi

0101100
-132 0 +131 0 +130 0 +129 0 *
Fa
0  1e-07 5 0

0111000
+128 0 *
Ed
 1e-07 1 1 0
1  9 0 0 3.14159265358979
2  16 7 0 0 3.14159265358979
2  17 2 0 0 3.14159265358979
4 C0 7 0 2 0
0

0101000
+133 0 -134 0 *
Ve
1e-07
2.4 -1.83690953073357e-16 1.5
0 0

0101101
*
Ed
 1e-07 1 1 0
1  10 0 0 0.382544768621922
2  18 7 0 0 0.382544768621922
2  19 6 0 0 0.382544768621922
4 CN 7 0 6 0
0

0101000
+134 0 -125 0 *
Ve
1e-07
2.4 0 -1.5
0 0

0101101
*
Ed
 1e-07 1 1 0
1  11 0 0 3.14159265358979
2  20 7 0 0 3.14159265358979
4 C0 7 0 8 0
0

0101000
+123 0 -125 0 *
Ed
 1e-07 1 1 0
1  12 0 -0.382544768621922 1.3037867168989e-32
2  21 7 0 -0.382544768621922 1.3037867168989e-32
2  22 6 0 -0.382544768621922 1.3037867168989e-32
4 CN 7 0 6 0
0

0101000
+123 0 -133 0 *
Wi

0101100
+126 0 +124 0 -122 0 +121 0 *
Fa
0  1e-07 7 0

0111000
+120 0 *
Ve
0.000362987130546459
2.2860073180997 -1.58771324027147 2.75
0 0

0101101
*
Ve
0.000362987130551468
0.113992681900296 -1.58771324027147 2.75
0 0

0101101
*
Ed
 1e-07 1 1 0
1  13 0 0.1139926819003 2.2860073180997
4 C0 9 0 10 0
0

0101000
+118 0 -117 0 *
Ve
0.000362987130546459
2.4 4.33680868994202e-16 2.75
0 0

0101101
*
Ed
 0.000362987130546459 1 1 0
1  14 0 0.00269244557889604 0.00428800730529564
2  23 11 0 0.00269244557889604 0.00428800730529564
4 C0 9 0 11 0
0

0101000
+118 0 -115 0 *
Ve
0.000310847580343495
2.2860073180997 1.58771324027147 2.75
0 0

0101101
*
Ed
 0.000302330984298587 1 1 0
1  15 0 0.00428800730529564 0.00588891420330288
2  24 12 0 0.00428800730529564 0.00588891420330288
4 C0 9 0 12 0
0

0101000
+115 0 -113 0 *
Ve
0.000310847580347809
0.113992681900296 1.58771324027147 2.75
0 0

0101101
*
Ed
 1e-07 1 1 0
1  16 0 0.1139926819003 2.2860073180997
4 C0 9 0 13 0
0

0101000
+113 0 -111 0 *
Ve
0.000362987130551468
0 0 2.75
0 0

0101101
*
Ed
 0.000302330984303531 1 1 0
1  17 0 0.00428800730529563 0.00588891420330288
2  25 14 0 0.00428800730529563 0.00588891420330288
4 C0 9 0 14 0
0

0101000
+109 0 -111 0 *
Ed
 0.000362987130551468 1 1 0
1  18 0 0.00269244557889603 0.00428800730529563
2  26 15 0 0.00269244557889603 0.00428800730529563
4 C0 9 0 15 0
0

0101000
+117 0 -109 0 *
Wi

0101100
-116 0 +114 0 +112 0 +110 0 -108 0 -107 0 *
Fa
0  1e-07 9 0

0111000
-106 0 *
Ve
0.000310847580343992
2.4 2.38156986040721 1.375
0 0

0101101
*
Ed
 0.000310847580343495 1 1 0
1  19 0 0.00158794418037915 0.00317565742065076
2  27 12 0 0.00158794418037915 0.00317565742065076
4 C0 13 0 12 0
0

0101000
+104 0 -113 0 *
Ve
0.0003108475803441
2.2860073180997 3.17542648054294 0
0 0

0101101
*
Ed
 0.000310847580343992 1 1 0
1  20 0 2.30940107815887e-07 0.00158794418037915
2  28 16 0 2.30940107815887e-07 0.00158794418037915
4 C0 13 0 16 0
0

0101000
+102 0 -104 0 *
Ve
0.000310847580348677
0.113992681900296 3.17542648054294 0
0 0

0101101
*
Ed
 1e-07 1 1 0
1  21 0 0.1139926819003 2.2860073180997
4 C0 13 0 17 0
0

0101000
+102 0 -100 0 *
Ve
0.00031084758034859
0 2.38156986040721 1.375
0 0

0101101
*
Ed
 0.00031084758034859 1 1 0
1  22 0 0.00158794418037915 0.00317565742065076
2  29 18 0 0.00158794418037915 0.00317565742065076
4 C0 13 0 18 0
0

0101000
+98 0 -100 0 *
Ed
 0.000310847580347809 1 1 0
1  23 0 2.30940107814204e-07 0.00158794418037915
2  30 14 0 2.30940107814204e-07 0.00158794418037915
4 C0 13 0 14 0
0

0101000
+111 0 -98 0 *
Wi

0101100
-110 0 -103 0 -101 0 +99 0 -97 0 -96 0 *
Fa
0  1e-07 13 0

0111000
-95 0 *
Ve
0.000310847580344305
2.2860073180997 -3.17542648054294 3.09040193802194e-16
0 0

0101101
*
Ve
0.000310847580348634
0.113992681900296 -3.17542648054294 0
0 0

0101101
*
Ed
 1e-07 1 1 0
1  24 0 0.1139926819003 2.2860073180997
4 C0 10 0 19 0
0

0101000
+93 0 -92 0 *
Ve
0.000310847580344198
2.4 -2.38156986040721 1.375
0 0

0101101
*
Ed
 0.000310847580344198 1 1 0
1  25 0 0.00158794418037915 0.00317565742065076
2  31 20 0 0.00158794418037915 0.00317565742065076
4 C0 10 0 20 0
0

0101000
+90 0 -93 0 *
Ed
 0.000310847580343175 1 1 0
1  26 0 2.30940107815468e-07 0.00158794418037915
2  32 11 0 2.30940107815468e-07 0.00158794418037915
4 C0 10 0 11 0
0

0101000
+118 0 -90 0 *
Ve
0.000310847580348634
0 -2.38156986040721 1.375
0 0

0101101
*
Ed
 0.000310847580347779 1 1 0
1  27 0 0.00158794418037915 0.00317565742065076
2  33 15 0 0.00158794418037915 0.00317565742065076
4 C0 10 0 15 0
0

0101000
+87 0 -117 0 *
Ed
 0.000310847580348634 1 1 0
1  28 0 2.30940107814728e-07 0.00158794418037915
2  34 21 0 2.30940107814728e-07 0.00158794418037915
4 C0 10 0 21 0
0

0101000
+92 0 -87 0 *
Wi

0101100
-91 0 -89 0 -88 0 +116 0 -86 0 -85 0 *
Fa
0  1e-07 10 0

0111000
-84 0 *
Ed
 1e-07 1 1 0
1  29 0 3.14159265358979 6.28318530717959
2  35 6 0 3.14159265358979 6.28318530717959
4 C0 6 0 8 0
0

0101000
+125 0 -123 0 *
Wi

0101100
-82 0 -124 0 +132 0 -121 0 *
Fa
0  1e-07 6 0

0111000
+81 0 *
Wi

0101100
+142 0 -131 0 -126 0 -129 0 *
Fa
0  1e-07 2 0

0111000
+79 0 *
Ed
 1e-07 1 1 0
1  30 0 3.14159265358979 6.28318530717959
2  36 3 0 3.14159265358979 6.28318530717959
4 C0 3 0 4 0
0

0101000
+139 0 -141 0 *
Wi

0101100
+77 0 -140 0 -130 0 -137 0 *
Fa
0  1e-07 3 0

0111000
+76 0 *
Ve
0.000362987130546506
2.4 -4.33680868994202e-16 -2.75
0 0

0101101
*
Ve
0.0003108475803441
2.4 2.38156986040721 -1.375
0 0

0101101
*
Ed
 1e-07 1 1 0
1  31 0 0 1.0471975511966
2  37 22 0 0 1.0471975511966
4 C0 8 0 22 0
0

0101000
+74 0 -73 0 *
Ed
 1e-07 1 1 0
1  32 0 1.0471975511966 2.09439510239319
2  38 16 0 1.0471975511966 2.09439510239319
4 C0 8 0 16 0
0

0101000
+73 0 -104 0 *
Ed
 1e-07 1 1 0
1  33 0 2.09439510239319 3.14159265358979
2  39 12 0 2.09439510239319 3.14159265358979
4 C0 8 0 12 0
0

0101000
+104 0 -115 0 *
Ed
 1e-07 1 1 0
1  34 0 3.14159265358979 4.18879020478639
2  40 11 0 3.14159265358979 4.18879020478639
4 C0 8 0 11 0
0

0101000
+115 0 -90 0 *
Ve
0.000310847580344305
2.4 -2.38156986040721 -1.375
0 0

0101101
*
Ed
 1e-07 1 1 0
1  35 0 4.18879020478639 5.23598775598299
2  41 20 0 4.18879020478639 5.23598775598299
4 C0 8 0 20 0
0

0101000
+90 0 -68 0 *
Ed
 1e-07 1 1 0
1  36 0 5.23598775598299 6.28318530717959
2  42 23 0 5.23598775598299 6.28318530717959
4 C0 8 0 23 0
0

0101000
+68 0 -74 0 *
Wi

0101100
+72 0 +71 0 +70 0 +69 0 +67 0 +66 0 *
Wi

0101100
-122 0 -82 0 *
Fa
0  1e-07 8 0

0111000
-65 0 -64 0 *
Ed
 0.000310847580344305 1 1 0
1  37 0 2.30940107815648e-07 0.00158794418037915
2  43 20 0 2.30940107815648e-07 0.00158794418037915
4 C0 20 0 19 0
0

0101000
+93 0 -68 0 *
Wi

0101100
+89 0 +62 0 -67 0 *
Fa
0  1e-07 20 0

0111000
+61 0 *
Ed
 1e-07 1 1 0
1  38 0 3.14159265358979 4.18879020478639
2  44 15 0 3.14159265358979 4.18879020478639
4 C0 15 0 4 0
0

0101000
+109 0 -87 0 *
Wi

0101100
+86 0 +107 0 +59 0 *
Fa
0  1e-07 15 0

0111000
+58 0 *
Ed
 1e-07 1 1 0
1  39 0 2.09439510239319 3.14159265358979
2  45 14 0 2.09439510239319 3.14159265358979
4 C0 14 0 4 0
0

0101000
+98 0 -109 0 *
Wi

0101100
+56 0 +108 0 +96 0 *
Fa
0  1e-07 14 0

0111000
+55 0 *
Ve
0.000310847580348564
0 -2.38156986040721 -1.375
0 0

0101101
*
Ed
 1e-07 1 1 0
1  40 0 4.18879020478639 5.23598775598299
2  46 21 0 4.18879020478639 5.23598775598299
4 C0 21 0 4 0
0

0101000
+87 0 -53 0 *
Ed
 0.000310847580348564 1 1 0
1  41 0 0.00158794418037915 0.00317565742065076
2  47 21 0 0.00158794418037915 0.00317565742065076
4 C0 21 0 19 0
0

0101000
+53 0 -92 0 *
Wi

0101100
+52 0 +51 0 +85 0 *
Fa
0  1e-07 21 0

0111000
+50 0 *
Ve
0.000310847580348677
0 2.38156986040721 -1.375
0 0

0101101
*
Ed
 1e-07 1 1 0
1  42 0 1.0471975511966 2.09439510239319
2  48 18 0 1.0471975511966 2.09439510239319
4 C0 4 0 18 0
0

0101000
+48 0 -98 0 *
Ve
0.000362987130551453
0 0 -2.75
0 0

0101101
*
Ed
 1e-07 1 1 0
1  43 0 0 1.0471975511966
2  49 24 0 0 1.0471975511966
4 C0 4 0 24 0
0

0101000
+46 0 -48 0 *
Ed
 1e-07 1 1 0
1  44 0 5.23598775598299 6.28318530717959
2  50 25 0 5.23598775598299 6.28318530717959
4 C0 4 0 25 0
0

0101000
+53 0 -46 0 *
Wi

0101100
-47 0 -45 0 -44 0 -52 0 -59 0 -56 0 *
Wi

0101100
+138 0 +77 0 *
Fa
0  1e-07 4 0

0111000
-43 0 -42 0 *
Ve
0.000362987130551453
0.113992681900296 -1.58771324027147 -2.75
0 0

0101101
*
Ed
 0.000362987130551453 1 1 0
1  45 0 0.00269244557889603 0.00428800730529563
2  51 25 0 0.00269244557889603 0.00428800730529563
4 C0 25 0 26 0
0

0101000
+40 0 -46 0 *
Ed
 0.000310847580347817 1 1 0
1  46 0 2.30940107814204e-07 0.00158794418037915
2  52 25 0 2.30940107814204e-07 0.00158794418037915
4 C0 25 0 19 0
0

0101000
+40 0 -53 0 *
Wi

0101100
+44 0 -39 0 +38 0 *
Fa
0  1e-07 25 0

0111000
+37 0 *
Ve
0.000310847580343168
2.2860073180997 1.58771324027147 -2.75
0 0

0101101
*
Ed
 0.000302330984298773 1 1 0
1  47 0 0.00428800730529563 0.00588891420330288
2  53 22 0 0.00428800730529563 0.00588891420330288
4 C0 22 0 26 0
0

0101000
+74 0 -35 0 *
Ed
 0.000310847580343168 1 1 0
1  48 0 2.30940107815359e-07 0.00158794418037915
2  54 22 0 2.30940107815359e-07 0.00158794418037915
4 C0 22 0 17 0
0

0101000
+35 0 -73 0 *
Wi

0101100
+34 0 +33 0 -72 0 *
Fa
0  1e-07 22 0

0111000
+32 0 *
Ve
0.000310847580347701
0.113992681900296 1.58771324027147 -2.75
0 0

0101101
*
Ed
 0.000310847580347701 1 1 0
1  49 0 0.00158794418037915 0.00317565742065076
2  55 24 0 0.00158794418037915 0.00317565742065076
4 C0 24 0 17 0
0

0101000
+48 0 -30 0 *
Ed
 0.0003023309843036 1 1 0
1  50 0 0.00428800730529563 0.00588891420330288
2  56 24 0 0.00428800730529563 0.00588891420330288
4 C0 24 0 26 0
0

0101000
+46 0 -30 0 *
Wi

0101100
+45 0 +29 0 -28 0 *
Fa
0  1e-07 24 0

0111000
+27 0 *
Ed
 1e-07 1 1 0
1  51 0 0.1139926819003 2.2860073180997
4 C0 26 0 17 0
0

0101000
+35 0 -30 0 *
Ve
0.000362987130546506
2.2860073180997 -1.58771324027147 -2.75
0 0

0101101
*
Ed
 0.000362987130546506 1 1 0
1  52 0 0.00269244557889603 0.00428800730529563
2  57 23 0 0.00269244557889603 0.00428800730529563
4 C0 26 0 23 0
0

0101000
+24 0 -74 0 *
Ed
 1e-07 1 1 0
1  53 0 0.1139926819003 2.2860073180997
4 C0 26 0 19 0
0

0101000
+24 0 -40 0 *
Wi

0101100
-25 0 -34 0 -23 0 +22 0 +39 0 +28 0 *
Fa
0  1e-07 26 0

0111000
-21 0 *
Ed
 0.000310847580343492 1 1 0
1  54 0 0.00158794418037915 0.00317565742065076
2  58 23 0 0.00158794418037915 0.00317565742065076
4 C0 19 0 23 0
0

0101000
+68 0 -24 0 *
Wi

0101100
-22 0 -19 0 -62 0 +91 0 -51 0 -38 0 *
Fa
0  1e-07 19 0

0111000
-18 0 *
Ed
 0.0003108475803441 1 1 0
1  55 0 0.00158794418037915 0.00317565742065076
2  59 16 0 0.00158794418037915 0.00317565742065076
4 C0 17 0 16 0
0

0101000
+73 0 -102 0 *
Ed
 0.000310847580348677 1 1 0
1  56 0 2.30940107814728e-07 0.00158794418037915
2  60 18 0 2.30940107814728e-07 0.00158794418037915
4 C0 17 0 18 0
0

0101000
+100 0 -48 0 *
Wi

0101100
-99 0 -16 0 -33 0 +25 0 -29 0 -15 0 *
Fa
0  1e-07 17 0

0111000
-14 0 *
Wi

0101100
-71 0 +16 0 +101 0 *
Fa
0  1e-07 16 0

0111000
+12 0 *
Wi

0101100
-70 0 +103 0 -112 0 *
Fa
0  1e-07 12 0

0111000
+10 0 *
Wi

0101100
+19 0 +23 0 -66 0 *
Fa
0  1e-07 23 0

0111000
+8 0 *
Wi

0101100
-69 0 -114 0 +88 0 *
Fa
0  1e-07 11 0

0111000
+6 0 *
Wi

0101100
+15 0 +47 0 +97 0 *
Fa
0  1e-07 18 0

0111000
+4 0 *
Sh

0101100
-135 0 -127 0 -119 0 -105 0 -94 0 -83 0 -80 0 -78 0 -75 0 -63 0 
+60 0 +57 0 +54 0 +49 0 -41 0 +36 0 +31 0 +26 0 -20 0 -17 0 
-13 0 +11 0 +9 0 +7 0 +5 0 +3 0 *
So

0100000
+2 0 *

+1 0 