DBRep_DrawableShape

CASCADE Topology V1, (c) Matra-Datavision
Locations 0
Curve2ds 72
1 6.2831853071795862 0 0 -1 
1 0 0 0 -1 
7 0 0  3 25 23  6.2831853071795862 -0.70683602522958788  6.2761112406687714 -0.73406360047704455  6.2618802171261541 -0.78717168634618007  6.240285814443137 -0.86286120890321705  6.2184442498891501 -0.93464947999865367  6.196356574397436 -1.0025981693771553  6.1740240778209623 -1.0667628345950406  6.1514483296504876 -1.1271921611293994  6.1286311798907365 -1.1839283257253044  6.1055747701384684 -1.2370070218702802  6.0822815413670623 -1.2864575394081332  6.0587542419446407 -1.3323027934570653  6.0349959348492073 -1.3745593306256092  6.0110100042659687 -1.4132373046028595  5.9868001614216357 -1.4483404225591496  5.9623704496068299 -1.4798658607390129  5.9377252482832876 -1.5078041488790928  5.9128692762983741 -1.5321390194291242  5.8878075937902006 -1.5528472290908613  5.8625456040116886 -1.5698983157123487  5.8370890501800288 -1.5832544177743719  5.8114440253255992 -1.5928696689872948  5.7856169277951865 -1.5986909725227327  5.768282051604789 -1.5999992595812502  5.7595865315812871 -1.600000000000001 
 2.81799756877004 4 2.9714803985683087 1 3.1249632283665774 1 3.278446058164846 1 3.4319288879631147 1 3.5854117177613833 1 3.738894547559652 1 3.8923773773579207 1 4.0458602071561893 1 4.199343036954458 1 4.3528258667527266 1 4.5063086965509953 1 4.6597915263492631 1 4.8132743561475326 1 4.9667571859458004 1 5.12024001574407 1 5.2737228455423377 1 5.4272056753406073 1 5.580688505138875 1 5.7341713349371446 1 5.8876541647354124 1 6.0411369945336819 1 6.1946198243319497 4
1 6.2831853071795862 -1.5999999999999988 -1 -8.4814791505693729e-16 
1 3.1415926535897931 -4.4408920985006262e-16 0 1 
1 3.1415926535897931 -4.4408920985006262e-16 0 1 
1 6.2831853071795862 -1.5999999999999934 -1 -1.6962958301138746e-15 
7 0 0  3 25 23  3.6651914291880923 -1.600000000000001  3.6564959091645912 -1.5999992595812498  3.6391610329741928 -1.5986909725227332  3.6133339354437788 -1.5928696689872954  3.5876889105893524 -1.5832544177743737  3.5622323567576895 -1.5698983157123481  3.5369703669791792 -1.5528472290908621  3.511908684471003 -1.5321390194291251  3.4870527124860926 -1.5078041488790912  3.4624075111625494 -1.4798658607390123  3.4379777993477427 -1.4483404225591501  3.4137679565034111 -1.4132373046028568  3.3897820259201716 -1.3745593306256096  3.3660237188247395 -1.3323027934570644  3.3424964194023175 -1.2864575394081335  3.319203190630911 -1.2370070218702813  3.2961467808786429 -1.1839283257253035  3.2733296311188909 -1.1271921611293965  3.2507538829484166 -1.0667628345950431  3.2284213863719424 -1.0025981693771546  3.2063337108802314 -0.93464947999865378  3.1844921463262423 -0.86286120890321638  3.1628977436432257 -0.78717168634618184  3.1486667201006084 -0.73406360047704555  3.1415926535897931 -0.70683602522958788 
 6.1946198243319497 4 6.3481026541302183 1 6.501585483928487 1 6.6550683137267557 1 6.8085511435250243 1 6.962033973323293 1 7.1155168031215617 1 7.2689996329198303 1 7.422482462718099 1 7.5759652925163676 1 7.7294481223146363 1 7.882930952112905 1 8.0364137819111736 1 8.1898966117094432 1 8.3433794415077109 1 8.4968622713059787 1 8.6503451011042483 1 8.8038279309025178 1 8.9573107607007856 1 9.1107935904990534 1 9.2642764202973229 1 9.4177592500955924 1 9.5712420798938602 4
1 0 -2.2204460492503131e-16 0 1 
1 6.2831853071795862 -2.2204460492503131e-16 0 1 
1 0 -1.599999999999999 1 0 
7 0 0  3 25 23  0.52359877559829915 -1.6000000000000099  0.51490325557479633 -1.5999992595812584  0.49756837938439613 -1.5986909725227412  0.47174128185398789 -1.5928696689873028  0.44609625699955657 -1.5832544177743804  0.4206397031678959 -1.5698983157123558  0.39537771338938565 -1.5528472290908695  0.37031603088120857 -1.5321390194291338  0.34546005889629861 -1.507804148879099  0.32081485757275718 -1.4798658607390238  0.29638514575794694 -1.4483404225591594  0.27217530291361847 -1.413237304602869  0.24818937233037808 -1.3745593306256174  0.22443106523494638 -1.3323027934570719  0.20090376581252478 -1.2864575394081463  0.17761053704111518 -1.237007021870288  0.15455412728885065 -1.1839283257253144  0.13173697752909685 -1.1271921611294089  0.10916122935862482 -1.0667628345950533  0.086828732782148421 -1.0025981693771673  0.064741057290438775 -0.93464947999866654  0.04289949273644833 -0.8628612089032266  0.021305090053431286 -0.78717168634619206  0.0070740665108148804 -0.7340636004770561  0 -0.70683602522959854 
 6.1946198243319399 4 6.3481026541302086 1 6.5015854839284772 1 6.6550683137267459 1 6.8085511435250146 1 6.9620339733232832 1 7.1155168031215519 1 7.2689996329198205 1 7.4224824627180892 1 7.5759652925163579 1 7.7294481223146265 1 7.8829309521128952 1 8.036413781911163 1 8.1898966117094325 1 8.3433794415077003 1 8.4968622713059698 1 8.6503451011042376 1 8.8038279309025071 1 8.9573107607007749 1 9.1107935904990445 1 9.2642764202973122 1 9.4177592500955818 1 9.5712420798938496 4
1 3.1415926535897931 -3.3306690738754696e-16 0 -1 
1 3.1415926535897931 -3.3306690738754696e-16 0 -1 
7 0 0  3 25 23  3.1415926535897931 -0.70683602522959854  3.1345185870789782 -0.73406360047705599  3.1202875635363596 -0.78717168634619172  3.0986931608533435 -0.86286120890322637  3.0768515962993543 -0.93464947999866443  3.0547639208076425 -1.0025981693771671  3.0324314242311701 -1.0667628345950526  3.0098556760606949 -1.1271921611294067  2.9870385263009434 -1.1839283257253157  2.9639821165486753 -1.2370070218702882  2.9406888877772688 -1.2864575394081432  2.9171615883548467 -1.3323027934570728  2.8934032812594142 -1.3745593306256159  2.8694173506761738 -1.4132373046028681  2.8452075078318435 -1.4483404225591605  2.8207777960170377 -1.4798658607390205  2.7961325946934936 -1.5078041488790985  2.7712766227085828 -1.5321390194291351  2.746214940200407 -1.5528472290908701  2.7209529504218968 -1.5698983157123561  2.6954963965902343 -1.5832544177743799  2.6698513717358074 -1.592869668987305  2.6440242742053943 -1.5986909725227412  2.6266893980149959 -1.5999992595812578  2.617993877991494 -1.6000000000000099 
 2.8179975687700298 4 2.9714803985682985 1 3.1249632283665671 1 3.2784460581648358 1 3.4319288879631045 1 3.5854117177613731 1 3.7388945475596413 1 3.89237737735791 1 4.0458602071561787 1 4.1993430369544473 1 4.352825866752716 1 4.5063086965509846 1 4.6597915263492533 1 4.813274356147522 1 4.9667571859457906 1 5.1202400157440593 1 5.273722845542328 1 5.4272056753405966 1 5.5806885051388653 1 5.7341713349371339 1 5.8876541647354026 1 6.0411369945336713 1 6.1946198243319399 4
1 0 -1.599999999999999 1 0 
1 0 -0.3828983220125155 1 0 
1 6.2831853071795862 -1.0585 -1 0 
1 3.1415926535897931 -1.1102230246251565e-16 0 1 
1 3.1415926535897931 -1.1102230246251565e-16 0 1 
1 6.2831853071795862 0.3828983220125155 -1 0 
1 0 5.5511151231257827e-17 0 -1 
1 6.2831853071795862 5.5511151231257827e-17 0 -1 
1 6.2831853071795862 1.0585 -1 0 
1 6.2831853071795862 -0.38289832201251556 -1 0 
1 3.1415926535897931 0 0 -1 
1 3.1415926535897931 0 0 -1 
1 6.2831853071795862 0 0 1 
1 0 0 0 1 
1 6.2831853071795862 0.38289832201251556 -1 0 
1 3.1415926535897931 0 0 -1 
1 3.1415926535897931 0 0 -1 
1 6.2831853071795862 0 0 1 
1 0 0 0 1 
1 6.2831853071795862 -0.38289832201251556 -1 0 
1 6.2831853071795862 1.0585 -1 0 
1 6.2831853071795862 0.38289832201251556 -1 0 
1 6.2831853071795862 -1.0585 -1 0 
1 0 -0.3828983220125155 1 0 
1 6.2831853071795862 0.3828983220125155 -1 0 
7 0 0  3 25 23  2.0943951023931953 -0.7068360252296001  2.0873210358823804 -0.73406360047705743  2.0730900123397631 -0.78717168634619317  2.0514956096567456 -0.86286120890322826  2.0296540451027569 -0.9346494799986651  2.0075663696110451 -1.0025981693771679  1.9852338730345718 -1.0667628345950531  1.9626581248640977 -1.127192161129408  1.9398409751043455 -1.1839283257253146  1.9167845653520776 -1.2370070218702887  1.8934913365806711 -1.2864575394081432  1.86996403715825 -1.3323027934570741  1.8462057300628167 -1.3745593306256159  1.8222197994795768 -1.4132373046028686  1.7980099566352463 -1.4483404225591556  1.7735802448204399 -1.4798658607390212  1.7489350434968964 -1.5078041488790979  1.7240790715119849 -1.5321390194291313  1.6990173890038103 -1.5528472290908668  1.6737553992252989 -1.5698983157123545  1.6482988453936371 -1.5832544177743788  1.6226538205392098 -1.592869668987303  1.596826723008796 -1.5986909725227374  1.5794918468183978 -1.5999992595812549  1.5707963267948963 -1.6000000000000074 
 2.81799756877004 4 2.9714803985683083 1 3.1249632283665765 1 3.2784460581648447 1 3.4319288879631129 1 3.5854117177613811 1 3.7388945475596493 1 3.8923773773579171 1 4.0458602071561858 1 4.1993430369544535 1 4.3528258667527222 1 4.50630869655099 1 4.6597915263492578 1 4.8132743561475264 1 4.9667571859457951 1 5.1202400157440628 1 5.2737228455423306 1 5.4272056753405993 1 5.5806885051388679 1 5.7341713349371357 1 5.8876541647354035 1 6.0411369945336721 1 6.1946198243319399 4
7 0 0  3 25 23  4.7123889803846897 -1.5999999999999988  4.7036934603611895 -1.5999992595812467  4.6863585841707893 -1.5986909725227296  4.6605314866403766 -1.5928696689872934  4.6348864617859498 -1.5832544177743721  4.6094299079542882 -1.5698983157123454  4.584167918175778 -1.5528472290908613  4.5591062356676 -1.5321390194291229  4.5342502636826909 -1.5078041488790903  4.5096050623591468 -1.4798658607390127  4.485175350544341 -1.4483404225591487  4.4609655077000108 -1.4132373046028586  4.4369795771167704 -1.3745593306256081  4.4132212700213369 -1.3323027934570653  4.3896939705989144 -1.2864575394081346  4.3664007418275093 -1.23700702187028  4.3433443320752403 -1.1839283257253057  4.3205271823154892 -1.1271921611293982  4.2979514341450145 -1.0667628345950433  4.2756189375685407 -1.0025981693771553  4.2535312620768284 -0.93464947999865344  4.2316896975228397 -0.86286120890321893  4.2100952948398227 -0.78717168634618107  4.1958642712972063 -0.73406360047704544  4.1887902047863914 -0.70683602522958944 
 6.1946198243319399 4 6.3481026541302086 1 6.5015854839284772 1 6.6550683137267459 1 6.8085511435250146 1 6.9620339733232832 1 7.1155168031215519 1 7.2689996329198205 1 7.4224824627180892 1 7.5759652925163579 1 7.7294481223146265 1 7.8829309521128952 1 8.036413781911163 1 8.1898966117094325 1 8.3433794415077003 1 8.4968622713059698 1 8.6503451011042376 1 8.8038279309025071 1 8.9573107607007749 1 9.1107935904990445 1 9.2642764202973122 1 9.4177592500955818 1 9.5712420798938496 4
7 0 0  3 25 23  5.2359877559829888 -0.70683602522958944  5.2289136894721731 -0.73406360047704766  5.2146826659295558 -0.78717168634618373  5.1930882632465396 -0.86286120890321782  5.1712466986925509 -0.93464947999865566  5.1491590232008386 -1.0025981693771555  5.1268265266243658 -1.0667628345950457  5.1042507784538911 -1.1271921611293976  5.0814336286941373 -1.1839283257253066  5.0583772189418728 -1.237007021870278  5.0350839901704632 -1.2864575394081341  5.0115566907480416 -1.3323027934570628  4.9877983836526099 -1.3745593306256088  4.9638124530693677 -1.4132373046028575  4.9396026102250401 -1.4483404225591479  4.9151728984102316 -1.4798658607390125  4.8905276970866884 -1.5078041488790912  4.8656717251017776 -1.5321390194291205  4.8406100425936005 -1.5528472290908619  4.815348052815092 -1.5698983157123454  4.7898914989834287 -1.583254417774371  4.7642464741290018 -1.5928696689872917  4.73841937659859 -1.5986909725227305  4.7210845004081907 -1.5999992595812471  4.7123889803846897 -1.5999999999999988 
 2.8179975687700298 4 2.9714803985682985 1 3.1249632283665671 1 3.2784460581648358 1 3.4319288879631045 1 3.5854117177613731 1 3.7388945475596413 1 3.89237737735791 1 4.0458602071561787 1 4.1993430369544473 1 4.352825866752716 1 4.5063086965509846 1 4.6597915263492533 1 4.813274356147522 1 4.9667571859457906 1 5.1202400157440593 1 5.273722845542328 1 5.4272056753405966 1 5.5806885051388653 1 5.7341713349371339 1 5.8876541647354026 1 6.0411369945336713 1 6.1946198243319399 4
7 0 0  3 25 23  1.5707963267948963 -1.6000000000000074  1.5621008067713948 -1.5999992595812556  1.5447659305809966 -1.5986909725227385  1.5189388330505829 -1.5928696689873028  1.4932938081961558 -1.5832544177743768  1.4678372543644931 -1.5698983157123558  1.4425752645859828 -1.5528472290908677  1.4175135820778066 -1.5321390194291327  1.3926576100928962 -1.5078041488790961  1.3680124087693526 -1.4798658607390223  1.3435826969545464 -1.4483404225591561  1.3193728541102161 -1.4132373046028655  1.2953869235269757 -1.3745593306256165  1.2716286164315436 -1.3323027934570706  1.2481013170091211 -1.2864575394081432  1.2248080882377146 -1.2370070218702871  1.2017516784854467 -1.1839283257253146  1.1789345287256954 -1.1271921611294091  1.1563587805552209 -1.0667628345950526  1.1340262839787469 -1.0025981693771688  1.1119386084870357 -0.93464947999866599  1.0900970439330468 -0.86286120890322759  1.0685026412500298 -0.78717168634619272  1.0542716177074123 -0.7340636004770571  1.0471975511965972 -0.7068360252296001 
 6.1946198243319399 4 6.3481026541302086 1 6.5015854839284772 1 6.6550683137267459 1 6.8085511435250146 1 6.9620339733232832 1 7.1155168031215519 1 7.2689996329198205 1 7.4224824627180892 1 7.5759652925163579 1 7.7294481223146265 1 7.8829309521128952 1 8.036413781911163 1 8.1898966117094325 1 8.3433794415077003 1 8.4968622713059698 1 8.6503451011042376 1 8.8038279309025071 1 8.9573107607007749 1 9.1107935904990445 1 9.2642764202973122 1 9.4177592500955818 1 9.5712420798938496 4
7 0 0  3 25 23  6.2831853071795862 -0.70683602522959854  6.2761112406687714 -0.73406360047705677  6.2618802171261523 -0.78717168634619261  6.240285814443137 -0.86286120890322604  6.2184442498891483 -0.93464947999866443  6.1963565743974351 -1.0025981693771666  6.1740240778209623 -1.0667628345950539  6.1514483296504885 -1.1271921611294065  6.1286311798907356 -1.1839283257253157  6.1055747701384684 -1.2370070218702882  6.0822815413670632 -1.2864575394081432  6.0587542419446381 -1.3323027934570728  6.0349959348492073 -1.3745593306256163  6.011010004265966 -1.413237304602867  5.9868001614216375 -1.4483404225591592  5.9623704496068299 -1.4798658607390218  5.9377252482832867 -1.5078041488790985  5.912869276298375 -1.5321390194291338  5.8878075937901988 -1.5528472290908701  5.8625456040116894 -1.5698983157123574  5.837089050180027 -1.583254417774381  5.8114440253256001 -1.592869668987305  5.7856169277951865 -1.5986909725227405  5.768282051604789 -1.5999992595812575  5.7595865315812871 -1.6000000000000105 
 2.8179975687700298 4 2.9714803985682985 1 3.1249632283665671 1 3.2784460581648358 1 3.4319288879631045 1 3.5854117177613731 1 3.7388945475596413 1 3.89237737735791 1 4.0458602071561787 1 4.1993430369544473 1 4.352825866752716 1 4.5063086965509846 1 4.6597915263492533 1 4.813274356147522 1 4.9667571859457906 1 5.1202400157440593 1 5.273722845542328 1 5.4272056753405966 1 5.5806885051388653 1 5.7341713349371339 1 5.8876541647354026 1 6.0411369945336713 1 6.1946198243319399 4
7 0 0  3 25 23  0.52359877559829948 -1.6000000000000019  0.51490325557479832 -1.59999925958125  0.49756837938440035 -1.5986909725227327  0.47174128185398601 -1.5928696689872954  0.44609625699955929 -1.5832544177743737  0.42063970316789706 -1.5698983157123481  0.39537771338938643 -1.5528472290908621  0.37031603088121062 -1.5321390194291253  0.34546005889629988 -1.507804148879091  0.32081485757275569 -1.4798658607390125  0.29638514575794989 -1.4483404225591496  0.27217530291361897 -1.4132373046028581  0.24818937233037902 -1.3745593306256092  0.22443106523494591 -1.3323027934570644  0.20090376581252434 -1.2864575394081335  0.17761053704111754 -1.2370070218702813  0.15455412728884954 -1.1839283257253035  0.13173697752909774 -1.1271921611293965  0.10916122935862377 -1.0667628345950431  0.086828732782149753 -1.0025981693771546  0.064741057290438428 -0.93464947999865378  0.042899492736449496 -0.86286120890321638  0.0213050900534324 -0.78717168634618184  0.0070740665108150295 -0.73406360047704555  0 -0.70683602522958788 
 6.1946198243319497 4 6.3481026541302183 1 6.501585483928487 1 6.6550683137267557 1 6.8085511435250243 1 6.962033973323293 1 7.1155168031215617 1 7.2689996329198303 1 7.422482462718099 1 7.5759652925163676 1 7.7294481223146363 1 7.882930952112905 1 8.0364137819111736 1 8.1898966117094432 1 8.3433794415077109 1 8.4968622713059787 1 8.6503451011042483 1 8.8038279309025178 1 8.9573107607007856 1 9.1107935904990534 1 9.2642764202973229 1 9.4177592500955924 1 9.5712420798938602 4
7 0 0  3 25 23  1.0471975511965979 -0.70683602522958944  1.040123484685783 -0.73406360047704611  1.0258924611431657 -0.78717168634618107  1.0042980584601486 -0.86286120890321638  0.98245649390615952 -0.93464947999865511  0.96036881841444788 -1.0025981693771548  0.93803632183797403 -1.0667628345950415  0.91546057366749967 -1.127192161129396  0.8926434239077482 -1.1839283257253022  0.86958701415548045 -1.2370070218702782  0.8462937853840734 -1.2864575394081323  0.82276648596165169 -1.3323027934570615  0.799008178866219 -1.374559330625607  0.77502224828297894 -1.4132373046028563  0.75081240543864836 -1.448340422559147  0.72638269362384211 -1.4798658607390083  0.70173749230029814 -1.5078041488790914  0.67688152031538762 -1.5321390194291222  0.65181983780721198 -1.5528472290908601  0.62655784802870107 -1.5698983157123463  0.60110129419703973 -1.5832544177743699  0.57545626934261196 -1.5928696689872948  0.54962917181219884 -1.5986909725227343  0.53229429562180097 -1.5999992595812509  0.52359877559829948 -1.6000000000000019 
 2.81799756877004 4 2.9714803985683087 1 3.1249632283665774 1 3.278446058164846 1 3.4319288879631147 1 3.5854117177613833 1 3.738894547559652 1 3.8923773773579207 1 4.0458602071561893 1 4.199343036954458 1 4.3528258667527266 1 4.5063086965509953 1 4.6597915263492631 1 4.8132743561475326 1 4.9667571859458004 1 5.12024001574407 1 5.2737228455423377 1 5.4272056753406073 1 5.580688505138875 1 5.7341713349371446 1 5.8876541647354124 1 6.0411369945336819 1 6.1946198243319497 4
7 0 0  3 25 23  5.7595865315812871 -1.6000000000000105  5.750891011557786 -1.5999992595812582  5.7335561353673858 -1.5986909725227405  5.7077290378369741 -1.5928696689873052  5.6820840129825445 -1.583254417774381  5.6566274591508847 -1.5698983157123594  5.6313654693723727 -1.5528472290908686  5.6063037868641965 -1.5321390194291367  5.5814478148792883 -1.5078041488790981  5.5568026135557425 -1.479865860739024  5.5323729017409393 -1.4483404225591607  5.5081630588966037 -1.4132373046028694  5.4841771283133687 -1.3745593306256183  5.4604188212179325 -1.3323027934570739  5.4368915217955127 -1.2864575394081441  5.4135982930241031 -1.2370070218702898  5.3905418832718377 -1.1839283257253139  5.3677247335120866 -1.12719216112941  5.3451489853416128 -1.0667628345950546  5.3228164887651381 -1.0025981693771686  5.3007288132734258 -0.93464947999866621  5.2788872487194372 -0.86286120890322648  5.257292846036421 -0.78717168634619294  5.2430618224938028 -0.73406360047705754  5.2359877559829879 -0.7068360252296001 
 6.1946198243319399 4 6.3481026541302086 1 6.5015854839284781 1 6.6550683137267477 1 6.8085511435250163 1 6.962033973323285 1 7.1155168031215545 1 7.2689996329198241 1 7.4224824627180928 1 7.5759652925163614 1 7.729448122314631 1 7.8829309521129005 1 8.0364137819111683 1 8.1898966117094378 1 8.3433794415077074 1 8.4968622713059769 1 8.6503451011042465 1 8.8038279309025143 1 8.9573107607007838 1 9.1107935904990534 1 9.2642764202973211 1 9.4177592500955907 1 9.5712420798938602 4
7 0 0  3 25 23  1.0471975511965972 -0.7068360252296001  1.0401234846857825 -0.73406360047705721  1.025892461143165 -0.78717168634619306  1.0042980584601477 -0.86286120890322859  0.98245649390615886 -0.93464947999866765  0.96036881841444777 -1.0025981693771666  0.93803632183797392 -1.0667628345950555  0.91546057366749967 -1.1271921611294091  0.89264342390774798 -1.1839283257253159  0.86958701415548012 -1.2370070218702893  0.8462937853840734 -1.2864575394081434  0.82276648596165192 -1.3323027934570721  0.799008178866219 -1.3745593306256183  0.77502224828297905 -1.4132373046028701  0.75081240543864858 -1.4483404225591585  0.72638269362384256 -1.4798658607390218  0.70173749230029836 -1.5078041488790994  0.67688152031538817 -1.5321390194291342  0.65181983780721242 -1.5528472290908719  0.62655784802870174 -1.5698983157123565  0.60110129419704006 -1.5832544177743815  0.57545626934261207 -1.5928696689873032  0.54962917181219872 -1.5986909725227418  0.53229429562180064 -1.5999992595812584  0.52359877559829893 -1.6000000000000099 
 2.8179975687700298 4 2.9714803985682985 1 3.1249632283665671 1 3.2784460581648358 1 3.4319288879631045 1 3.5854117177613731 1 3.7388945475596413 1 3.89237737735791 1 4.0458602071561787 1 4.1993430369544473 1 4.352825866752716 1 4.5063086965509846 1 4.6597915263492533 1 4.813274356147522 1 4.9667571859457906 1 5.1202400157440593 1 5.273722845542328 1 5.4272056753405966 1 5.5806885051388653 1 5.7341713349371339 1 5.8876541647354026 1 6.0411369945336713 1 6.1946198243319399 4
7 0 0  3 25 23  5.7595865315812871 -1.600000000000001  5.750891011557786 -1.5999992595812504  5.7335561353673876 -1.5986909725227334  5.7077290378369749 -1.592869668987293  5.6820840129825472 -1.5832544177743739  5.6566274591508856 -1.5698983157123438  5.6313654693723736 -1.5528472290908601  5.6063037868641983 -1.5321390194291198  5.5814478148792874 -1.5078041488790901  5.5568026135557442 -1.4798658607390094  5.5323729017409384 -1.4483404225591492  5.5081630588966082 -1.413237304602853  5.4841771283133678 -1.374559330625607  5.4604188212179343 -1.332302793457061  5.4368915217955136 -1.286457539408133  5.4135982930241067 -1.2370070218702769  5.3905418832718395 -1.1839283257253026  5.3677247335120857 -1.127192161129396  5.3451489853416128 -1.0667628345950422  5.3228164887651381 -1.0025981693771544  5.3007288132734276 -0.93464947999865422  5.2788872487194372 -0.86286120890321905  5.2572928460364237 -0.78717168634618107  5.2430618224938046 -0.73406360047704544  5.2359877559829888 -0.70683602522958944 
 6.1946198243319497 4 6.3481026541302183 1 6.501585483928487 1 6.6550683137267557 1 6.8085511435250243 1 6.962033973323293 1 7.1155168031215617 1 7.2689996329198303 1 7.422482462718099 1 7.5759652925163676 1 7.7294481223146363 1 7.882930952112905 1 8.0364137819111736 1 8.1898966117094432 1 8.3433794415077109 1 8.4968622713059787 1 8.6503451011042483 1 8.8038279309025178 1 8.9573107607007856 1 9.1107935904990534 1 9.2642764202973229 1 9.4177592500955924 1 9.5712420798938602 4
7 0 0  3 25 23  4.7123889803846897 -1.6000000000000074  4.7036934603611886 -1.5999992595812556  4.6863585841707893 -1.5986909725227385  4.6605314866403758 -1.5928696689873023  4.634886461785948 -1.5832544177743786  4.6094299079542864 -1.5698983157123541  4.5841679181757753 -1.5528472290908686  4.5591062356676 -1.5321390194291311  4.5342502636826891 -1.5078041488790972  4.509605062359145 -1.4798658607390205  4.4851753505443384 -1.4483404225591561  4.4609655077000081 -1.4132373046028668  4.4369795771167686 -1.3745593306256161  4.413221270021336 -1.332302793457071  4.3896939705989144 -1.286457539408143  4.3664007418275075 -1.2370070218702884  4.3433443320752403 -1.1839283257253148  4.3205271823154874 -1.1271921611294073  4.2979514341450145 -1.0667628345950535  4.2756189375685389 -1.0025981693771673  4.2535312620768284 -0.93464947999866599  4.2316896975228397 -0.86286120890322893  4.2100952948398236 -0.7871716863461925  4.1958642712972054 -0.73406360047705665  4.1887902047863896 -0.7068360252296001 
 6.1946198243319399 4 6.3481026541302086 1 6.5015854839284772 1 6.6550683137267459 1 6.8085511435250146 1 6.9620339733232832 1 7.1155168031215519 1 7.2689996329198205 1 7.4224824627180892 1 7.5759652925163579 1 7.7294481223146265 1 7.8829309521128952 1 8.036413781911163 1 8.1898966117094325 1 8.3433794415077003 1 8.4968622713059698 1 8.6503451011042376 1 8.8038279309025071 1 8.9573107607007749 1 9.1107935904990445 1 9.2642764202973122 1 9.4177592500955818 1 9.5712420798938496 4
7 0 0  3 25 23  5.2359877559829879 -0.7068360252296001  5.2289136894721731 -0.73406360047705743  5.2146826659295558 -0.78717168634619317  5.1930882632465396 -0.86286120890322826  5.17124669869255 -0.9346494799986651  5.1491590232008368 -1.0025981693771675  5.1268265266243658 -1.0667628345950546  5.1042507784538893 -1.1271921611294065  5.0814336286941391 -1.1839283257253148  5.058377218941871 -1.2370070218702891  5.0350839901704632 -1.2864575394081417  5.0115566907480424 -1.3323027934570746  4.9877983836526099 -1.3745593306256159  4.9638124530693695 -1.4132373046028686  4.9396026102250401 -1.4483404225591556  4.9151728984102325 -1.4798658607390212  4.8905276970866893 -1.5078041488790976  4.8656717251017785 -1.5321390194291329  4.8406100425936023 -1.5528472290908666  4.815348052815092 -1.5698983157123554  4.7898914989834305 -1.5832544177743786  4.7642464741290027 -1.5928696689873019  4.7384193765985874 -1.5986909725227374  4.7210845004081907 -1.5999992595812551  4.7123889803846897 -1.6000000000000074 
 2.81799756877004 4 2.9714803985683083 1 3.1249632283665765 1 3.2784460581648447 1 3.4319288879631129 1 3.5854117177613811 1 3.7388945475596493 1 3.8923773773579171 1 4.0458602071561858 1 4.1993430369544535 1 4.3528258667527222 1 4.50630869655099 1 4.6597915263492578 1 4.8132743561475264 1 4.9667571859457951 1 5.1202400157440628 1 5.2737228455423306 1 5.4272056753405993 1 5.5806885051388679 1 5.7341713349371357 1 5.8876541647354035 1 6.0411369945336721 1 6.1946198243319399 4
7 0 0  3 25 23  1.5707963267948968 -1.5999999999999988  1.5621008067713955 -1.5999992595812467  1.5447659305809973 -1.5986909725227296  1.5189388330505842 -1.5928696689872934  1.4932938081961573 -1.5832544177743721  1.4678372543644946 -1.5698983157123454  1.4425752645859846 -1.5528472290908613  1.4175135820778086 -1.5321390194291233  1.392657610092898 -1.5078041488790888  1.3680124087693539 -1.4798658607390147  1.3435826969545481 -1.4483404225591485  1.319372854110217 -1.4132373046028586  1.2953869235269775 -1.3745593306256085  1.2716286164315442 -1.3323027934570639  1.2481013170091224 -1.286457539408135  1.2248080882377155 -1.2370070218702798  1.2017516784854478 -1.1839283257253062  1.1789345287256963 -1.1271921611293969  1.1563587805552218 -1.0667628345950433  1.1340262839787476 -1.002598169377156  1.1119386084870362 -0.93464947999865489  1.0900970439330471 -0.86286120890321694  1.06850264125003 -0.78717168634618229  1.054271617707413 -0.73406360047704666  1.0471975511965979 -0.70683602522958944 
 6.1946198243319399 4 6.3481026541302086 1 6.5015854839284772 1 6.6550683137267459 1 6.8085511435250146 1 6.9620339733232832 1 7.1155168031215519 1 7.2689996329198205 1 7.4224824627180892 1 7.5759652925163579 1 7.7294481223146265 1 7.8829309521128952 1 8.036413781911163 1 8.1898966117094325 1 8.3433794415077003 1 8.4968622713059698 1 8.6503451011042376 1 8.8038279309025071 1 8.9573107607007749 1 9.1107935904990445 1 9.2642764202973122 1 9.4177592500955818 1 9.5712420798938496 4
7 0 0  3 25 23  2.0943951023931962 -0.70683602522958944  2.0873210358823808 -0.73406360047704688  2.0730900123397631 -0.78717168634618295  2.0514956096567469 -0.86286120890321816  2.0296540451027574 -0.93464947999865533  2.007566369611046 -1.0025981693771571  1.9852338730345724 -1.0667628345950453  1.9626581248640977 -1.1271921611293982  1.9398409751043459 -1.183928325725305  1.9167845653520785 -1.2370070218702784  1.8934913365806707 -1.2864575394081339  1.8699640371582491 -1.3323027934570628  1.8462057300628163 -1.3745593306256088  1.8222197994795757 -1.4132373046028575  1.7980099566352459 -1.4483404225591479  1.7735802448204392 -1.4798658607390132  1.7489350434968955 -1.5078041488790896  1.7240790715119845 -1.5321390194291209  1.6990173890038094 -1.5528472290908619  1.6737553992252985 -1.5698983157123458  1.6482988453936369 -1.5832544177743697  1.6226538205392096 -1.5928696689872939  1.596826723008796 -1.5986909725227298  1.5794918468183985 -1.5999992595812467  1.5707963267948968 -1.5999999999999988 
 2.8179975687700298 4 2.9714803985682985 1 3.1249632283665671 1 3.2784460581648358 1 3.4319288879631045 1 3.5854117177613731 1 3.7388945475596413 1 3.89237737735791 1 4.0458602071561787 1 4.1993430369544473 1 4.352825866752716 1 4.5063086965509846 1 4.6597915263492533 1 4.813274356147522 1 4.9667571859457906 1 5.1202400157440593 1 5.273722845542328 1 5.4272056753405966 1 5.5806885051388653 1 5.7341713349371339 1 5.8876541647354026 1 6.0411369945336713 1 6.1946198243319399 4
7 0 0  3 25 23  3.6651914291880918 -1.6000000000000099  3.6564959091645912 -1.599999259581258  3.6391610329741924 -1.5986909725227407  3.6133339354437783 -1.5928696689873039  3.587688910589351 -1.5832544177743797  3.562232356757689 -1.5698983157123569  3.5369703669791783 -1.5528472290908695  3.5119086844710021 -1.5321390194291327  3.4870527124860917 -1.5078041488790992  3.4624075111625481 -1.4798658607390232  3.4379777993477418 -1.4483404225591583  3.4137679565034116 -1.4132373046028701  3.3897820259201703 -1.3745593306256185  3.3660237188247391 -1.3323027934570719  3.3424964194023157 -1.2864575394081452  3.3192031906309101 -1.2370070218702882  3.2961467808786429 -1.1839283257253144  3.2733296311188909 -1.1271921611294089  3.2507538829484171 -1.0667628345950533  3.2284213863719424 -1.0025981693771668  3.2063337108802306 -0.9346494799986681  3.1844921463262423 -0.86286120890322626  3.1628977436432248 -0.78717168634619217  3.148666720100608 -0.73406360047705621  3.1415926535897931 -0.70683602522959854 
 6.1946198243319399 4 6.3481026541302086 1 6.5015854839284772 1 6.6550683137267459 1 6.8085511435250146 1 6.9620339733232832 1 7.1155168031215519 1 7.2689996329198205 1 7.4224824627180892 1 7.5759652925163579 1 7.7294481223146265 1 7.8829309521128952 1 8.036413781911163 1 8.1898966117094325 1 8.3433794415077003 1 8.4968622713059698 1 8.6503451011042376 1 8.8038279309025071 1 8.9573107607007749 1 9.1107935904990445 1 9.2642764202973122 1 9.4177592500955818 1 9.5712420798938496 4
7 0 0  3 25 23  4.1887902047863896 -0.7068360252296001  4.1817161382755756 -0.7340636004770581  4.1674851147329575 -0.78717168634619339  4.1458907120499413 -0.86286120890322604  4.1240491474959509 -0.93464947999866832  4.1019614720042412 -1.0025981693771664  4.0796289754277684 -1.0667628345950557  4.0570532272572928 -1.1271921611294091  4.0342360774975417 -1.1839283257253159  4.0111796677452727 -1.2370070218702891  3.9878864389738662 -1.2864575394081448  3.964359139551445 -1.332302793457073  3.9406008324560107 -1.3745593306256176  3.9166149018727716 -1.4132373046028714  3.8924050590284422 -1.4483404225591581  3.8679753472136342 -1.4798658607390218  3.8433301458900915 -1.5078041488790994  3.8184741739051811 -1.5321390194291342  3.7934124913970053 -1.5528472290908717  3.7681505016184951 -1.5698983157123567  3.7426939477868326 -1.583254417774381  3.7170489229324044 -1.592869668987305  3.6912218254019922 -1.5986909725227405  3.6738869492115938 -1.5999992595812573  3.6651914291880918 -1.6000000000000099 
 2.8179975687700298 4 2.9714803985682985 1 3.1249632283665671 1 3.2784460581648358 1 3.4319288879631045 1 3.5854117177613731 1 3.7388945475596413 1 3.89237737735791 1 4.0458602071561787 1 4.1993430369544473 1 4.352825866752716 1 4.5063086965509846 1 4.6597915263492533 1 4.813274356147522 1 4.9667571859457906 1 5.1202400157440593 1 5.273722845542328 1 5.4272056753405966 1 5.5806885051388653 1 5.7341713349371339 1 5.8876541647354026 1 6.0411369945336713 1 6.1946198243319399 4
7 0 0  3 25 23  2.6179938779914944 -1.600000000000001  2.6092983579679934 -1.5999992595812498  2.5919634817775949 -1.5986909725227323  2.5661363842471814 -1.5928696689872934  2.5404913593927545 -1.5832544177743733  2.5150348055610925 -1.5698983157123449  2.4897728157825814 -1.5528472290908613  2.4647111332744061 -1.5321390194291198  2.4398551612894952 -1.5078041488790903  2.415209959965952 -1.4798658607390087  2.3907802481511453 -1.4483404225591476  2.3665704053068146 -1.4132373046028546  2.3425844747235747 -1.3745593306256065  2.3188261676281416 -1.3323027934570615  2.29529886820572 -1.286457539408133  2.2720056394343127 -1.2370070218702769  2.2489492296820459 -1.1839283257253026  2.2261320799222934 -1.127192161129396  2.2035563317518192 -1.0667628345950422  2.1812238351753459 -1.0025981693771542  2.1591361596836345 -0.93464947999865466  2.1372945951296454 -0.86286120890321727  2.1157001924466279 -0.7871716863461824  2.101469168904011 -0.73406360047704666  2.0943951023931962 -0.70683602522958944 
 6.1946198243319497 4 6.3481026541302183 1 6.501585483928487 1 6.6550683137267557 1 6.8085511435250243 1 6.962033973323293 1 7.1155168031215617 1 7.2689996329198303 1 7.422482462718099 1 7.5759652925163676 1 7.7294481223146363 1 7.882930952112905 1 8.0364137819111736 1 8.1898966117094432 1 8.3433794415077109 1 8.4968622713059787 1 8.6503451011042483 1 8.8038279309025178 1 8.9573107607007856 1 9.1107935904990534 1 9.2642764202973229 1 9.4177592500955924 1 9.5712420798938602 4
7 0 0  3 25 23  3.1415926535897931 -0.70683602522958788  3.1345185870789787 -0.73406360047704455  3.1202875635363614 -0.78717168634618007  3.0986931608533439 -0.86286120890321705  3.0768515962993548 -0.93464947999865367  3.0547639208076443 -1.0025981693771551  3.0324314242311692 -1.0667628345950417  3.0098556760606949 -1.1271921611293989  2.9870385263009438 -1.1839283257253044  2.9639821165486766 -1.2370070218702811  2.9406888877772688 -1.2864575394081332  2.9171615883548476 -1.3323027934570653  2.8934032812594146 -1.3745593306256092  2.8694173506761746 -1.4132373046028595  2.845207507831844 -1.4483404225591496  2.8207777960170382 -1.4798658607390129  2.7961325946934932 -1.507804148879093  2.7712766227085828 -1.5321390194291238  2.746214940200407 -1.5528472290908617  2.7209529504218968 -1.5698983157123476  2.6954963965902343 -1.5832544177743717  2.6698513717358066 -1.5928696689872959  2.6440242742053943 -1.5986909725227332  2.6266893980149959 -1.5999992595812498  2.6179938779914944 -1.600000000000001 
 2.81799756877004 4 2.9714803985683087 1 3.1249632283665774 1 3.278446058164846 1 3.4319288879631147 1 3.5854117177613833 1 3.738894547559652 1 3.8923773773579207 1 4.0458602071561893 1 4.199343036954458 1 4.3528258667527266 1 4.5063086965509953 1 4.6597915263492631 1 4.8132743561475326 1 4.9667571859458004 1 5.12024001574407 1 5.2737228455423377 1 5.4272056753406073 1 5.580688505138875 1 5.7341713349371446 1 5.8876541647354124 1 6.0411369945336819 1 6.1946198243319497 4
7 0 0  3 25 23  2.617993877991494 -1.6000000000000099  2.6092983579679925 -1.5999992595812587  2.5919634817775936 -1.5986909725227418  2.5661363842471809 -1.5928696689873045  2.5404913593927527 -1.5832544177743806  2.5150348055610907 -1.5698983157123585  2.48977281578258 -1.5528472290908686  2.4647111332744047 -1.5321390194291367  2.4398551612894943 -1.5078041488790981  2.4152099599659502 -1.479865860739024  2.3907802481511444 -1.4483404225591612  2.3665704053068133 -1.4132373046028681  2.3425844747235738 -1.3745593306256185  2.3188261676281408 -1.3323027934570744  2.2952988682057196 -1.2864575394081426  2.2720056394343122 -1.23700702187029  2.248949229682045 -1.183928325725315  2.2261320799222926 -1.1271921611294098  2.2035563317518192 -1.0667628345950548  2.1812238351753459 -1.0025981693771677  2.1591361596836331 -0.9346494799986661  2.1372945951296449 -0.86286120890322793  2.1157001924466283 -0.78717168634619272  2.1014691689040101 -0.7340636004770571  2.0943951023931953 -0.7068360252296001 
 6.1946198243319399 4 6.3481026541302086 1 6.5015854839284781 1 6.6550683137267477 1 6.8085511435250163 1 6.962033973323285 1 7.1155168031215545 1 7.2689996329198241 1 7.4224824627180928 1 7.5759652925163614 1 7.729448122314631 1 7.8829309521129005 1 8.0364137819111683 1 8.1898966117094378 1 8.3433794415077074 1 8.4968622713059769 1 8.6503451011042465 1 8.8038279309025143 1 8.9573107607007838 1 9.1107935904990534 1 9.2642764202973211 1 9.4177592500955907 1 9.5712420798938602 4
7 0 0  3 25 23  4.1887902047863914 -0.70683602522958944  4.1817161382755765 -0.73406360047704666  4.1674851147329592 -0.78717168634618195  4.1458907120499404 -0.86286120890321638  4.1240491474959535 -0.93464947999865422  4.1019614720042394 -1.0025981693771535  4.0796289754277675 -1.066762834595042  4.0570532272572919 -1.127192161129396  4.0342360774975408 -1.1839283257253022  4.0111796677452727 -1.2370070218702782  3.9878864389738662 -1.2864575394081321  3.9643591395514455 -1.3323027934570619  3.9406008324560116 -1.3745593306256059  3.9166149018727721 -1.4132373046028566  3.8924050590284418 -1.448340422559147  3.8679753472136351 -1.4798658607390085  3.8433301458900906 -1.5078041488790908  3.8184741739051811 -1.5321390194291225  3.7934124913970044 -1.5528472290908601  3.7681505016184933 -1.5698983157123463  3.7426939477868326 -1.5832544177743699  3.7170489229324044 -1.5928696689872952  3.6912218254019913 -1.5986909725227332  3.6738869492115938 -1.5999992595812498  3.6651914291880923 -1.600000000000001 
 2.81799756877004 4 2.9714803985683087 1 3.1249632283665774 1 3.278446058164846 1 3.4319288879631147 1 3.5854117177613833 1 3.738894547559652 1 3.8923773773579207 1 4.0458602071561893 1 4.199343036954458 1 4.3528258667527266 1 4.5063086965509953 1 4.6597915263492631 1 4.8132743561475326 1 4.9667571859458004 1 5.12024001574407 1 5.2737228455423377 1 5.4272056753406073 1 5.580688505138875 1 5.7341713349371446 1 5.8876541647354124 1 6.0411369945336819 1 6.1946198243319497 4
1 -4.4408920985006262e-16 -1.599999999999999 1 0 
1 0 -1.599999999999999 1 0 
1 0 -1.599999999999999 1 0 
1 0 -1.599999999999999 1 0 
1 0 -1.599999999999999 1 0 
1 0 -1.599999999999999 1 0 
1 6.2831853071795862 -1.5999999999999994 -1 4.2407395752846904e-16 
1 6.2831853071795862 -1.6000000000000001 -1 8.4814791505693807e-16 
1 6.2831853071795862 -1.5999999999999988 -1 0 
1 6.2831853071795862 -1.5999999999999988 -1 0 
1 6.2831853071795862 -1.5999999999999988 -1 0 
1 6.2831853071795862 -1.5999999999999988 -1 0 
Curves 64
1 0.80000000000000104 6.3856406460550996 -7.8198961083855104e-16 -0.49999999999999989 -0.86602540378443882 1.0605402120460098e-16 
7 1 0  2 3 2  0.44658198738520399 5.77350269189626 0  1.0645214618782199 4.7160729330308802e-17 5 -1.33974596215561  1.0709166557265899 -1.11022302462516e-16 4.3301270189221901 -2.5  1
 2.81799756877004 3 6.1946198243319497 3
2 0 0 0 -1 0 0 0 1 -2.4492127076447501e-16 -0 -2.4492127076447501e-16 -1 5
1 0.80000000000000104 -6.3856406460550996 7.8198961083855104e-16 0.49999999999999989 -0.86602540378443882 1.0605402120460098e-16 
2 0 0 0 -1 0 0 0 1 -2.4492127076447501e-16 -0 -2.4492127076447501e-16 -1 5
7 1 0  2 3 2  -1.11022302462516e-16 -4.3301270189221901 -2.5  1 6.4597023651053199e-17 -5 -1.33974596215561  1.0709166557265899 0.44658198738520399 -5.77350269189626 0  1.0645214618782199
 6.1946198243319497 3 9.5712420798938602 3
1 2.3999999999999999 6.3856406460551103 -7.8198961083855104e-16 -0.49999999999999989 0.86602540378443882 -1.0605402120460098e-16 
2 3.2000000000000002 0 0 -1 0 0 0 1 -2.4492127076447501e-16 -0 -2.4492127076447501e-16 -1 5.0000000000000098
7 1 0  2 3 2  3.2000000000000002 4.3301270189221901 -2.5  1 3.2000000000000002 5 -1.33974596215561  1.0709166557266001 2.7534180126147998 5.77350269189626 0  1.0645214618782199
 6.1946198243319399 3 9.5712420798938496 3
1 2.3999999999999999 -6.3856406460551103 7.8198961083855104e-16 0.49999999999999989 0.86602540378443882 -1.0605402120460098e-16 
7 1 0  2 3 2  2.7534180126147998 -5.77350269189626 0  1.0645214618782199 3.2000000000000002 -5 -1.33974596215561  1.0709166557266001 3.2000000000000002 -4.3301270189221901 -2.5  1
 2.8179975687700298 3 6.1946198243319399 3
2 3.2000000000000002 0 0 -1 0 0 0 1 -2.4492127076447501e-16 -0 -2.4492127076447501e-16 -1 5.0000000000000098
2 0.54149999999999998 0 0 -1 0 0 0 1 -2.4492127076447501e-16 -0 -2.4492127076447501e-16 -1 2.4584999999999999
1 0.27074999999999999 -2.72925 3.3422568911697198e-16 -0.70710678118654757 -0.70710678118654757 8.6592745707193332e-17 
2 0 0 0 1 0 0 0 1 -2.4492127076447501e-16 -0 2.4492127076447501e-16 1 3
1 0.27074999999999999 2.72925 -3.3422568911697198e-16 0.70710678118654757 -0.70710678118654757 8.6592745707193332e-17 
2 2.6585000000000001 0 0 -1 0 0 0 1 -2.4492127076447501e-16 -0 -2.4492127076447501e-16 -1 2.4584999999999999
1 1.6000000000000001 -2.4584999999999999 3.0106947208723102e-16 -1 0 0 
1 1.6000000000000001 2.4584999999999999 -3.0106947208723102e-16 1 0 0 
2 3.2000000000000002 0 0 -1 0 0 0 1 -2.4492127076447501e-16 -0 -2.4492127076447501e-16 -1 3
1 2.9292500000000001 -2.72925 3.3422568911697198e-16 -0.70710678118654757 0.70710678118654757 -8.6592745707193332e-17 
1 2.9292500000000001 2.72925 -3.3422568911697198e-16 0.70710678118654757 0.70710678118654757 -8.6592745707193332e-17 
2 2.6585000000000001 0 0 -1 0 0 0 1 -2.4492127076447501e-16 -0 -2.4492127076447501e-16 -1 2.4584999999999999
2 3.2000000000000002 0 0 -1 0 0 0 1 -2.4492127076447501e-16 -0 -2.4492127076447501e-16 -1 3
2 0.54149999999999998 0 0 -1 0 0 0 1 -2.4492127076447501e-16 -0 -2.4492127076447501e-16 -1 2.4584999999999999
2 0 0 0 1 0 0 0 1 -2.4492127076447501e-16 -0 2.4492127076447501e-16 1 3
7 1 0  2 3 2  2.7534180126147998 -2.88675134594813 -5  1.0645214618782199 3.2000000000000002 -1.33974596215562 -5  1.0709166557266001 3.2000000000000002 0 -5  1
 2.81799756877004 3 6.1946198243319399 3
1 0 -2.88675134594813 -5 1 0 0 
7 1 0  2 3 2  -1.11022302462516e-16 0 -5  1 1.12493203500208e-16 -1.33974596215561 -5  1.0709166557265899 0.44658198738520399 -2.88675134594813 -5  1.0645214618782199
 6.1946198243319399 3 9.5712420798938496 3
7 1 0  2 3 2  0.44658198738520399 2.88675134594813 -5  1.0645214618782199 1.12493203500208e-16 1.33974596215561 -5  1.0709166557265899 -1.11022302462516e-16 0 -5  1
 2.8179975687700298 3 6.1946198243319399 3
1 0 2.88675134594813 -5 1 0 0 
7 1 0  2 3 2  3.2000000000000002 0 -5  1 3.2000000000000002 1.33974596215562 -5  1.0709166557266001 2.7534180126147998 2.88675134594813 -5  1.0645214618782199
 6.1946198243319399 3 9.5712420798938496 3
7 1 0  2 3 2  2.7534180126147998 5.77350269189626 0  1.0645214618782199 3.2000000000000002 5 1.33974596215561  1.0709166557266001 3.2000000000000002 4.3301270189221901 2.5  1
 2.8179975687700298 3 6.1946198243319399 3
1 0 5.77350269189626 0 1 0 0 
7 1 0  2 3 2  -1.11022302462516e-16 4.3301270189221901 2.5  1 6.4597023651053199e-17 5 1.33974596215561  1.0709166557265899 0.44658198738520399 5.77350269189626 0  1.0645214618782199
 6.1946198243319497 3 9.5712420798938602 3
7 1 0  2 3 2  0.44658198738520399 2.88675134594813 5  1.0645214618782199 1.12493203500208e-16 3.66025403784439 3.66025403784439  1.0709166557265899 -1.11022302462516e-16 4.3301270189221901 2.5  1
 2.81799756877004 3 6.1946198243319497 3
1 0 2.88675134594813 5 1 0 0 
7 1 0  2 3 2  3.2000000000000002 4.3301270189221901 2.5  1 3.2000000000000002 3.6602540378443802 3.66025403784439  1.0709166557266001 2.7534180126147998 2.88675134594813 5  1.0645214618782199
 6.1946198243319399 3 9.5712420798938602 3
7 1 0  2 3 2  2.7534180126147998 2.88675134594813 -5  1.0645214618782199 3.2000000000000002 3.6602540378443802 -3.66025403784439  1.0709166557266001 3.2000000000000002 4.3301270189221901 -2.5  1
 2.8179975687700298 3 6.1946198243319399 3
7 1 0  2 3 2  -1.11022302462516e-16 4.3301270189221901 -2.5  1 1.44423990066312e-16 3.66025403784439 -3.66025403784439  1.0709166557265899 0.44658198738520399 2.88675134594813 -5  1.0645214618782199
 6.1946198243319497 3 9.5712420798938602 3
7 1 0  2 3 2  3.2000000000000002 0 5  1 3.2000000000000002 -1.33974596215562 5  1.0709166557266001 2.7534180126147998 -2.88675134594813 5  1.0645214618782199
 6.1946198243319399 3 9.5712420798938496 3
7 1 0  2 3 2  2.7534180126147998 2.88675134594813 5  1.0645214618782199 3.2000000000000002 1.33974596215562 5  1.0709166557266001 3.2000000000000002 0 5  1
 2.81799756877004 3 6.1946198243319399 3
7 1 0  2 3 2  -1.11022302462516e-16 0 5  1 1.12493203500208e-16 1.33974596215561 5  1.0709166557265899 0.44658198738520399 2.88675134594813 5  1.0645214618782199
 6.1946198243319399 3 9.5712420798938496 3
7 1 0  2 3 2  0.44658198738520399 -2.88675134594813 5  1.0645214618782199 1.12493203500208e-16 -1.33974596215561 5  1.0709166557265899 -1.11022302462516e-16 0 5  1
 2.8179975687700298 3 6.1946198243319399 3
1 0 -2.88675134594813 5 1 0 0 
7 1 0  2 3 2  3.2000000000000002 -4.3301270189221901 2.5  1 3.2000000000000002 -5 1.33974596215561  1.0709166557266001 2.7534180126147998 -5.77350269189626 0  1.0645214618782199
 6.1946198243319399 3 9.5712420798938496 3
7 1 0  2 3 2  2.7534180126147998 -2.88675134594813 5  1.0645214618782199 3.2000000000000002 -3.6602540378443802 3.66025403784439  1.0709166557266001 3.2000000000000002 -4.3301270189221901 2.5  1
 2.8179975687700298 3 6.1946198243319399 3
7 1 0  2 3 2  -1.11022302462516e-16 -4.3301270189221901 2.5  1 1.44423990066312e-16 -3.66025403784439 3.66025403784439  1.0709166557265899 0.44658198738520399 -2.88675134594813 5  1.0645214618782199
 6.1946198243319497 3 9.5712420798938602 3
7 1 0  2 3 2  0.44658198738520399 -5.77350269189626 0  1.0645214618782199 4.7160729330308802e-17 -5 1.33974596215561  1.0709166557265899 -1.11022302462516e-16 -4.3301270189221901 2.5  1
 2.81799756877004 3 6.1946198243319497 3
1 0 -5.77350269189626 0 1 0 0 
7 1 0  2 3 2  3.2000000000000002 -4.3301270189221901 -2.5  1 3.2000000000000002 -3.6602540378443802 -3.66025403784439  1.0709166557266001 2.7534180126147998 -2.88675134594813 -5  1.0645214618782199
 6.1946198243319399 3 9.5712420798938602 3
7 1 0  2 3 2  0.44658198738520399 -2.88675134594813 -5  1.0645214618782199 1.12493203500208e-16 -3.66025403784439 -3.66025403784439  1.0709166557265899 -1.11022302462516e-16 -4.3301270189221901 -2.5  1
 2.81799756877004 3 6.1946198243319497 3
2 3.2000000000000002 0 0 -1 0 0 0 1 -2.4492127076447501e-16 -0 -2.4492127076447501e-16 -1 5.0000000000000098
2 3.2000000000000002 0 0 -1 0 0 0 1 -2.4492127076447501e-16 -0 -2.4492127076447501e-16 -1 5.0000000000000098
2 3.2000000000000002 0 0 -1 0 0 0 1 -2.4492127076447501e-16 -0 -2.4492127076447501e-16 -1 5.0000000000000098
2 3.2000000000000002 0 0 -1 0 0 0 1 -2.4492127076447501e-16 -0 -2.4492127076447501e-16 -1 5.0000000000000098
2 3.2000000000000002 0 0 -1 0 0 0 1 -2.4492127076447501e-16 -0 -2.4492127076447501e-16 -1 5.0000000000000098
2 3.2000000000000002 0 0 -1 0 0 0 1 -2.4492127076447501e-16 -0 -2.4492127076447501e-16 -1 5.0000000000000098
2 0 0 0 -1 0 0 0 1 -2.4492127076447501e-16 -0 -2.4492127076447501e-16 -1 5
2 0 0 0 -1 0 0 0 1 -2.4492127076447501e-16 -0 -2.4492127076447501e-16 -1 5
2 0 0 0 -1 0 0 0 1 -2.4492127076447501e-16 -0 -2.4492127076447501e-16 -1 5
2 0 0 0 -1 0 0 0 1 -2.4492127076447501e-16 -0 -2.4492127076447501e-16 -1 5
2 0 0 0 -1 0 0 0 1 -2.4492127076447501e-16 -0 -2.4492127076447501e-16 -1 5
2 0 0 0 -1 0 0 0 1 -2.4492127076447501e-16 -0 -2.4492127076447501e-16 -1 5
Polygon3D 0
PolygonOnTriangulations 0
Surfaces 30
3 0.80000000000000104 0 0 1 -0 -0 0 1 -2.4492127076447501e-16 0 2.4492127076447501e-16 1 6.3856406460550996
1.0471975511966001
3 0.80000000000000104 0 0 1 -0 -0 0 1 -2.4492127076447501e-16 0 2.4492127076447501e-16 1 6.3856406460550996
1.0471975511966001
1 0 2.88675134594813 -5 0 -0.86602540378443882 0.49999999999999989 -1 0 0 -0 -0.49999999999999989 -0.86602540378443882 
1 0 2.5 -6.1230317691118902e-16 -1 0 0 0 0 1 0 1 -0 
3 0.80000000000000104 0 0 1 -0 -0 0 1 -2.4492127076447501e-16 0 2.4492127076447501e-16 1 6.3856406460550996
1.0471975511966001
3 0.80000000000000104 0 0 1 -0 -0 0 1 -2.4492127076447501e-16 0 2.4492127076447501e-16 1 6.3856406460550996
1.0471975511966001
1 0 -5.77350269189626 0 0 0.86602540378443882 0.49999999999999989 1 0 -0 -0 0.49999999999999989 -0.86602540378443882 
3 2.3999999999999999 0 0 -1 -0 -0 0 1 -2.4492127076447501e-16 0 -2.4492127076447501e-16 -1 6.3856406460551103
1.0471975511966001
3 2.3999999999999999 0 0 -1 -0 -0 0 1 -2.4492127076447501e-16 0 -2.4492127076447501e-16 -1 6.3856406460551103
1.0471975511966001
1 3.2000000000000002 2.5 -6.1230317691118902e-16 1 0 0 0 1 -0 -0 0 1 
3 2.3999999999999999 0 0 -1 -0 -0 0 1 -2.4492127076447501e-16 0 -2.4492127076447501e-16 -1 6.3856406460551103
1.0471975511966001
3 2.3999999999999999 0 0 -1 -0 -0 0 1 -2.4492127076447501e-16 0 -2.4492127076447501e-16 -1 6.3856406460551103
1.0471975511966001
3 0.27074999999999999 0 0 -1 -0 -0 0 1 -2.4492127076447501e-16 0 -2.4492127076447501e-16 -1 2.72925
0.78539816339744795
2 1.6000000000000001 0 0 1 0 0 0 1 -2.4492127076447501e-16 -0 2.4492127076447501e-16 1 2.4584999999999999
3 0.27074999999999999 0 0 -1 -0 -0 0 1 -2.4492127076447501e-16 0 -2.4492127076447501e-16 -1 2.72925
0.78539816339744795
3 2.9292500000000001 0 0 1 -0 -0 0 1 -2.4492127076447501e-16 0 2.4492127076447501e-16 1 2.72925
0.78539816339744795
2 1.6000000000000001 0 0 1 0 0 0 1 -2.4492127076447501e-16 -0 2.4492127076447501e-16 1 2.4584999999999999
3 2.9292500000000001 0 0 1 -0 -0 0 1 -2.4492127076447501e-16 0 2.4492127076447501e-16 1 2.72925
0.78539816339744795
1 0 -2.88675134594813 -5 0 0 1 1 -0 0 0 1 -0 
3 2.3999999999999999 0 0 -1 -0 -0 0 1 -2.4492127076447501e-16 0 -2.4492127076447501e-16 -1 6.3856406460551103
1.0471975511966001
3 0.80000000000000104 0 0 1 -0 -0 0 1 -2.4492127076447501e-16 0 2.4492127076447501e-16 1 6.3856406460550996
1.0471975511966001
3 0.80000000000000104 0 0 1 -0 -0 0 1 -2.4492127076447501e-16 0 2.4492127076447501e-16 1 6.3856406460550996
1.0471975511966001
3 2.3999999999999999 0 0 -1 -0 -0 0 1 -2.4492127076447501e-16 0 -2.4492127076447501e-16 -1 6.3856406460551103
1.0471975511966001
1 0 5.77350269189626 0 0 -0.86602540378443882 -0.49999999999999989 0 0.49999999999999989 -0.86602540378443882 1 0 0 
3 0.80000000000000104 0 0 1 -0 -0 0 1 -2.4492127076447501e-16 0 2.4492127076447501e-16 1 6.3856406460550996
1.0471975511966001
1 0 2.88675134594813 5 0 0 -1 0 -1 0 -1 -0 -0 
3 2.3999999999999999 0 0 -1 -0 -0 0 1 -2.4492127076447501e-16 0 -2.4492127076447501e-16 -1 6.3856406460551103
1.0471975511966001
3 2.3999999999999999 0 0 -1 -0 -0 0 1 -2.4492127076447501e-16 0 -2.4492127076447501e-16 -1 6.3856406460551103
1.0471975511966001
3 0.80000000000000104 0 0 1 -0 -0 0 1 -2.4492127076447501e-16 0 2.4492127076447501e-16 1 6.3856406460550996
1.0471975511966001
1 0 -2.88675134594813 5 0 0.86602540378443882 -0.49999999999999989 -1 0 0 0 0.49999999999999989 0.86602540378443882 
Triangulations 0

TShapes 164
Ve
1e-07
0.446581987385204 5.77350269189626 0
0 0

0101101
*
Ve
1e-07
0 5 -6.12303176911189e-16
0 0

0101101
*
Ed
 1e-07 1 1 0
1  1 0 0.706836025229588 1.6
2  1 1 0 0.706836025229588 1.6
2  2 2 0 0.706836025229588 1.6
4 CN 1 0 2 0
0

0101000
+164 0 -163 0 *
Ve
1e-07
-1.11022302462516e-16 4.33012701892219 -2.5
0 0

0101101
*
Ed
 1e-07 1 1 0
1  2 0 2.81799756877004 6.19461982433195
2  3 1 0 2.81799756877004 6.19461982433195
4 C0 1 0 3 0
0

0101000
+164 0 -161 0 *
Ed
 1e-07 1 1 0
1  3 0 0 0.523598775598299
2  4 1 0 0 0.523598775598299
4 C0 1 0 4 0
0

0101000
+163 0 -161 0 *
Wi

0101100
-162 0 +160 0 -159 0 *
Fa
0  1e-07 1 0

0111000
+158 0 *
Ve
1e-07
0 -5 6.12303176911188e-16
0 0

0101101
*
Ve
1e-07
0.446581987385204 -5.77350269189626 0
0 0

0101101
*
Ed
 1e-07 1 1 0
1  4 0 -1.6 -0.706836025229588
2  5 5 0 -1.6 -0.706836025229588
2  6 6 0 -1.6 -0.706836025229588
4 CN 5 0 6 0
0

0101000
+156 0 -155 0 *
Ve
1e-07
-1.11022302462516e-16 -4.33012701892219 -2.5
0 0

0101101
*
Ed
 1e-07 1 1 0
1  5 0 2.61799387799149 3.14159265358979
2  7 5 0 2.61799387799149 3.14159265358979
4 C0 5 0 4 0
0

0101000
+153 0 -156 0 *
Ed
 1e-07 1 1 0
1  6 0 6.19461982433195 9.57124207989386
2  8 5 0 6.19461982433195 9.57124207989386
4 C0 5 0 7 0
0

0101000
+153 0 -155 0 *
Wi

0101100
-154 0 -152 0 +151 0 *
Fa
0  1e-07 5 0

0111000
+150 0 *
Ve
1e-07
3.2 5.00000000000001 -6.12303176911189e-16
0 0

0101101
*
Ve
1e-07
2.7534180126148 5.77350269189626 0
0 0

0101101
*
Ed
 1e-07 1 1 0
1  7 0 -1.6 -0.706836025229599
2  9 8 0 -1.6 -0.706836025229599
2  10 9 0 -1.6 -0.706836025229599
4 CN 8 0 9 0
0

0101000
+148 0 -147 0 *
Ve
1e-07
3.2 4.33012701892219 -2.5
0 0

0101101
*
Ed
 1e-07 1 1 0
1  8 0 0 0.523598775598299
2  11 8 0 0 0.523598775598299
4 C0 8 0 10 0
0

0101000
+148 0 -145 0 *
Ed
 1e-07 1 1 0
1  9 0 6.19461982433194 9.57124207989385
2  12 8 0 6.19461982433194 9.57124207989385
4 C0 8 0 3 0
0

0101000
+145 0 -147 0 *
Wi

0101100
-146 0 +144 0 +143 0 *
Fa
0  1e-07 8 0

0111000
+142 0 *
Ve
1e-07
2.7534180126148 -5.77350269189626 0
0 0

0101101
*
Ve
1e-07
3.2 -5.00000000000001 6.12303176911189e-16
0 0

0101101
*
Ed
 1e-07 1 1 0
1  10 0 0.706836025229599 1.6
2  13 11 0 0.706836025229599 1.6
2  14 12 0 0.706836025229599 1.6
4 CN 11 0 12 0
0

0101000
+140 0 -139 0 *
Ve
1e-07
3.2 -4.33012701892219 -2.5
0 0

0101101
*
Ed
 1e-07 1 1 0
1  11 0 2.81799756877003 6.19461982433194
2  15 11 0 2.81799756877003 6.19461982433194
4 C0 11 0 7 0
0

0101000
+140 0 -137 0 *
Ed
 1e-07 1 1 0
1  12 0 2.61799387799149 3.14159265358979
2  16 11 0 2.61799387799149 3.14159265358979
4 C0 11 0 10 0
0

0101000
+137 0 -139 0 *
Wi

0101100
-138 0 +136 0 +135 0 *
Fa
0  1e-07 11 0

0111000
+134 0 *
Ve
1e-07
0.5415 2.4585 -6.02138944174463e-16
0 0

0101101
*
Ve
1e-07
0.5415 -2.4585 3.01069472087231e-16
0 0

0101101
*
Ed
 1e-07 1 1 0
1  13 0 0 3.14159265358979
2  17 13 0 0 3.14159265358979
2  18 14 0 0 3.14159265358979
4 C0 13 0 14 0
0

0101000
+132 0 -131 0 *
Ve
1e-07
0 -3 3.67381906146713e-16
0 0

0101101
*
Ed
 1e-07 1 1 0
1  14 0 -0.382898322012516 0.382898322012516
2  19 13 0 -0.382898322012516 0.382898322012516
2  20 15 0 -0.382898322012516 0.382898322012516
4 CN 13 0 15 0
0

0101000
+131 0 -129 0 *
Ve
1e-07
0 3 -7.34763812293426e-16
0 0

0101101
*
Ed
 1e-07 1 1 0
1  15 0 3.14159265358979 6.28318530717959
2  21 13 0 3.14159265358979 6.28318530717959
4 C0 13 0 4 0
0

0101000
+129 0 -127 0 *
Ed
 1e-07 1 1 0
1  16 0 -0.382898322012516 0.382898322012516
2  22 13 0 -0.382898322012516 0.382898322012516
2  23 15 0 -0.382898322012516 0.382898322012516
4 CN 13 0 15 0
0

0101000
+127 0 -132 0 *
Wi

0101100
+130 0 +128 0 +126 0 +125 0 *
Fa
0  1e-07 13 0

0111000
+124 0 *
Ve
1e-07
2.6585 2.4585 -6.02138944174463e-16
0 0

0101101
*
Ve
1e-07
2.6585 -2.4585 3.01069472087231e-16
0 0

0101101
*
Ed
 1e-07 1 1 0
1  17 0 0 3.14159265358979
2  24 14 0 0 3.14159265358979
2  25 16 0 0 3.14159265358979
4 C0 14 0 16 0
0

0101000
+122 0 -121 0 *
Ed
 1e-07 1 1 0
1  18 0 -1.0585 1.0585
2  26 14 0 -1.0585 1.0585
2  27 17 0 -1.0585 1.0585
4 CN 14 0 17 0
0

0101000
+121 0 -131 0 *
Ed
 1e-07 1 1 0
1  19 0 -1.0585 1.0585
2  28 14 0 -1.0585 1.0585
2  29 17 0 -1.0585 1.0585
4 CN 14 0 17 0
0

0101000
+132 0 -122 0 *
Wi

0101100
+120 0 +119 0 -130 0 +118 0 *
Fa
0  1e-07 14 0

0111000
+117 0 *
Ve
1e-07
3.2 3 -7.34763812293426e-16
0 0

0101101
*
Ve
1e-07
3.2 -3 3.67381906146713e-16
0 0

0101101
*
Ed
 1e-07 1 1 0
1  20 0 0 3.14159265358979
2  30 16 0 0 3.14159265358979
4 C0 16 0 10 0
0

0101000
+115 0 -114 0 *
Ed
 1e-07 1 1 0
1  21 0 -0.382898322012516 0.382898322012516
2  31 16 0 -0.382898322012516 0.382898322012516
2  32 18 0 -0.382898322012516 0.382898322012516
4 CN 16 0 18 0
0

0101000
+114 0 -121 0 *
Ed
 1e-07 1 1 0
1  22 0 -0.382898322012516 0.382898322012516
2  33 16 0 -0.382898322012516 0.382898322012516
2  34 18 0 -0.382898322012516 0.382898322012516
4 CN 16 0 18 0
0

0101000
+122 0 -115 0 *
Wi

0101100
+113 0 +112 0 -120 0 +111 0 *
Fa
0  1e-07 16 0

0111000
+110 0 *
Ed
 1e-07 1 1 0
1  23 0 3.14159265358979 6.28318530717959
2  35 18 0 3.14159265358979 6.28318530717959
2  36 17 0 3.14159265358979 6.28318530717959
4 C0 18 0 17 0
0

0101000
+121 0 -122 0 *
Ed
 1e-07 1 1 0
1  24 0 3.14159265358979 6.28318530717959
2  37 18 0 3.14159265358979 6.28318530717959
4 C0 18 0 10 0
0

0101000
+114 0 -115 0 *
Wi

0101100
-108 0 -112 0 +107 0 -111 0 *
Fa
0  1e-07 18 0

0111000
+106 0 *
Ed
 1e-07 1 1 0
1  25 0 3.14159265358979 6.28318530717959
2  38 17 0 3.14159265358979 6.28318530717959
2  39 15 0 3.14159265358979 6.28318530717959
4 C0 17 0 15 0
0

0101000
+131 0 -132 0 *
Wi

0101100
-104 0 -119 0 +108 0 -118 0 *
Fa
0  1e-07 17 0

0111000
+103 0 *
Ed
 1e-07 1 1 0
1  26 0 0 3.14159265358979
2  40 15 0 0 3.14159265358979
4 C0 15 0 4 0
0

0101000
+127 0 -129 0 *
Wi

0101100
+101 0 -128 0 +104 0 -125 0 *
Fa
0  1e-07 15 0

0111000
+100 0 *
Ve
1e-07
2.7534180126148 -2.88675134594813 -5
0 0

0101101
*
Ve
1e-07
3.2 0 -5
0 0

0101101
*
Ed
 1e-07 1 1 0
1  27 0 2.81799756877004 6.19461982433194
2  41 20 0 2.81799756877004 6.19461982433194
4 C0 19 0 20 0
0

0101000
+98 0 -97 0 *
Ve
1e-07
0.446581987385204 -2.88675134594813 -5
0 0

0101101
*
Ed
 1e-07 1 1 0
1  28 0 0.446581987385204 2.7534180126148
4 C0 19 0 7 0
0

0101000
+95 0 -98 0 *
Ve
1e-07
-1.11022302462516e-16 0 -5
0 0

0101101
*
Ed
 1e-07 1 1 0
1  29 0 6.19461982433194 9.57124207989385
2  42 21 0 6.19461982433194 9.57124207989385
4 C0 19 0 21 0
0

0101000
+93 0 -95 0 *
Ve
1e-07
0.446581987385204 2.88675134594813 -5
0 0

0101101
*
Ed
 1e-07 1 1 0
1  30 0 2.81799756877003 6.19461982433194
2  43 22 0 2.81799756877003 6.19461982433194
4 C0 19 0 22 0
0

0101000
+91 0 -93 0 *
Ve
1e-07
2.7534180126148 2.88675134594813 -5
0 0

0101101
*
Ed
 1e-07 1 1 0
1  31 0 0.446581987385204 2.7534180126148
4 C0 19 0 3 0
0

0101000
+91 0 -89 0 *
Ed
 1e-07 1 1 0
1  32 0 6.19461982433194 9.57124207989385
2  44 23 0 6.19461982433194 9.57124207989385
4 C0 19 0 23 0
0

0101000
+97 0 -89 0 *
Wi

0101100
-96 0 -94 0 -92 0 -90 0 +88 0 -87 0 *
Fa
0  1e-07 19 0

0111000
-86 0 *
Ve
1e-07
3.2 4.33012701892219 2.5
0 0

0101101
*
Ed
 1e-07 1 1 0
1  33 0 2.81799756877003 6.19461982433194
2  45 9 0 2.81799756877003 6.19461982433194
4 C0 24 0 9 0
0

0101000
+147 0 -84 0 *
Ed
 1e-07 1 1 0
1  34 0 0.446581987385204 2.7534180126148
4 C0 24 0 3 0
0

0101000
+164 0 -147 0 *
Ve
1e-07
-1.11022302462516e-16 4.33012701892219 2.5
0 0

0101101
*
Ed
 1e-07 1 1 0
1  35 0 6.19461982433195 9.57124207989386
2  46 2 0 6.19461982433195 9.57124207989386
4 C0 24 0 2 0
0

0101000
+81 0 -164 0 *
Ve
1e-07
0.446581987385204 2.88675134594813 5
0 0

0101101
*
Ed
 1e-07 1 1 0
1  36 0 2.81799756877004 6.19461982433195
2  47 25 0 2.81799756877004 6.19461982433195
4 C0 24 0 25 0
0

0101000
+79 0 -81 0 *
Ve
1e-07
2.7534180126148 2.88675134594813 5
0 0

0101101
*
Ed
 1e-07 1 1 0
1  37 0 0.446581987385204 2.7534180126148
4 C0 24 0 26 0
0

0101000
+79 0 -77 0 *
Ed
 1e-07 1 1 0
1  38 0 6.19461982433194 9.57124207989386
2  48 27 0 6.19461982433194 9.57124207989386
4 C0 24 0 27 0
0

0101000
+84 0 -77 0 *
Wi

0101100
-83 0 -82 0 -80 0 -78 0 +76 0 -75 0 *
Fa
0  1e-07 24 0

0111000
-74 0 *
Ed
 1e-07 1 1 0
1  39 0 2.81799756877003 6.19461982433194
2  49 23 0 2.81799756877003 6.19461982433194
4 C0 3 0 23 0
0

0101000
+89 0 -145 0 *
Ed
 1e-07 1 1 0
1  40 0 6.19461982433195 9.57124207989386
2  50 22 0 6.19461982433195 9.57124207989386
4 C0 3 0 22 0
0

0101000
+161 0 -91 0 *
Wi

0101100
-72 0 -88 0 -71 0 -160 0 +82 0 -143 0 *
Fa
0  1e-07 3 0

0111000
-70 0 *
Ve
1e-07
3.2 0 5
0 0

0101101
*
Ve
1e-07
2.7534180126148 -2.88675134594813 5
0 0

0101101
*
Ed
 1e-07 1 1 0
1  41 0 6.19461982433194 9.57124207989385
2  51 28 0 6.19461982433194 9.57124207989385
4 C0 26 0 28 0
0

0101000
+68 0 -67 0 *
Ed
 1e-07 1 1 0
1  42 0 2.81799756877004 6.19461982433194
2  52 27 0 2.81799756877004 6.19461982433194
4 C0 26 0 27 0
0

0101000
+77 0 -68 0 *
Ve
1e-07
-1.11022302462516e-16 0 5
0 0

0101101
*
Ed
 1e-07 1 1 0
1  43 0 6.19461982433194 9.57124207989385
2  53 25 0 6.19461982433194 9.57124207989385
4 C0 26 0 25 0
0

0101000
+64 0 -79 0 *
Ve
1e-07
0.446581987385204 -2.88675134594813 5
0 0

0101101
*
Ed
 1e-07 1 1 0
1  44 0 2.81799756877003 6.19461982433194
2  54 29 0 2.81799756877003 6.19461982433194
4 C0 26 0 29 0
0

0101000
+62 0 -64 0 *
Ed
 1e-07 1 1 0
1  45 0 0.446581987385204 2.7534180126148
4 C0 26 0 30 0
0

0101000
+62 0 -67 0 *
Wi

0101100
-66 0 -65 0 -76 0 -63 0 -61 0 +60 0 *
Fa
0  1e-07 26 0

0111000
-59 0 *
Ve
1e-07
3.2 -4.33012701892219 2.5
0 0

0101101
*
Ed
 1e-07 1 1 0
1  46 0 6.19461982433194 9.57124207989385
2  55 12 0 6.19461982433194 9.57124207989385
4 C0 30 0 12 0
0

0101000
+57 0 -140 0 *
Ed
 1e-07 1 1 0
1  47 0 2.81799756877003 6.19461982433194
2  56 28 0 2.81799756877003 6.19461982433194
4 C0 30 0 28 0
0

0101000
+67 0 -57 0 *
Ve
1e-07
-1.11022302462516e-16 -4.33012701892219 2.5
0 0

0101101
*
Ed
 1e-07 1 1 0
1  48 0 6.19461982433195 9.57124207989386
2  57 29 0 6.19461982433195 9.57124207989386
4 C0 30 0 29 0
0

0101000
+54 0 -62 0 *
Ed
 1e-07 1 1 0
1  49 0 2.81799756877004 6.19461982433195
2  58 6 0 2.81799756877004 6.19461982433195
4 C0 30 0 6 0
0

0101000
+155 0 -54 0 *
Ed
 1e-07 1 1 0
1  50 0 0.446581987385204 2.7534180126148
4 C0 30 0 7 0
0

0101000
+155 0 -140 0 *
Wi

0101100
-56 0 -55 0 -60 0 -53 0 -52 0 +51 0 *
Fa
0  1e-07 30 0

0111000
-50 0 *
Ed
 1e-07 1 1 0
1  51 0 6.19461982433194 9.57124207989386
2  59 20 0 6.19461982433194 9.57124207989386
4 C0 7 0 20 0
0

0101000
+137 0 -98 0 *
Ed
 1e-07 1 1 0
1  52 0 2.81799756877004 6.19461982433195
2  60 21 0 2.81799756877004 6.19461982433195
4 C0 7 0 21 0
0

0101000
+95 0 -153 0 *
Wi

0101100
-48 0 -136 0 -51 0 -151 0 -47 0 +94 0 *
Fa
0  1e-07 7 0

0111000
-46 0 *
Ed
 1e-07 1 1 0
1  53 0 3.66519142918809 4.71238898038469
2  61 28 0 3.66519142918809 4.71238898038469
4 C0 28 0 10 0
0

0101000
+57 0 -68 0 *
Wi

0101100
+55 0 +44 0 +66 0 *
Fa
0  1e-07 28 0

0111000
+43 0 *
Ed
 1e-07 1 1 0
1  54 0 3.14159265358979 3.66519142918809
2  62 12 0 3.14159265358979 3.66519142918809
4 C0 12 0 10 0
0

0101000
+139 0 -57 0 *
Wi

0101100
+138 0 +41 0 +56 0 *
Fa
0  1e-07 12 0

0111000
+40 0 *
Ed
 1e-07 1 1 0
1  55 0 1.5707963267949 2.61799387799149
2  63 20 0 1.5707963267949 2.61799387799149
4 C0 20 0 10 0
0

0101000
+97 0 -137 0 *
Wi

0101100
+96 0 +38 0 +48 0 *
Fa
0  1e-07 20 0

0111000
+37 0 *
Ed
 1e-07 1 1 0
1  56 0 0.523598775598299 1.5707963267949
2  64 23 0 0.523598775598299 1.5707963267949
4 C0 23 0 10 0
0

0101000
+145 0 -97 0 *
Wi

0101100
+87 0 +72 0 +35 0 *
Fa
0  1e-07 23 0

0111000
+34 0 *
Ed
 1e-07 1 1 0
1  57 0 5.75958653158129 6.28318530717959
2  65 9 0 5.75958653158129 6.28318530717959
4 C0 9 0 10 0
0

0101000
+84 0 -148 0 *
Wi

0101100
+146 0 +83 0 +32 0 *
Fa
0  1e-07 9 0

0111000
+31 0 *
Ed
 1e-07 1 1 0
1  58 0 4.71238898038469 5.75958653158129
2  66 27 0 4.71238898038469 5.75958653158129
4 C0 27 0 10 0
0

0101000
+68 0 -84 0 *
Wi

0101100
+75 0 +65 0 +29 0 *
Fa
0  1e-07 27 0

0111000
+28 0 *
Ed
 1e-07 1 1 0
1  59 0 0.523598775598299 1.5707963267949
2  67 22 0 0.523598775598299 1.5707963267949
4 C0 22 0 4 0
0

0101000
+161 0 -93 0 *
Wi

0101100
+90 0 -26 0 +71 0 *
Fa
0  1e-07 22 0

0111000
+25 0 *
Ed
 1e-07 1 1 0
1  60 0 1.5707963267949 2.61799387799149
2  68 21 0 1.5707963267949 2.61799387799149
4 C0 21 0 4 0
0

0101000
+93 0 -153 0 *
Wi

0101100
+47 0 -23 0 +92 0 *
Fa
0  1e-07 21 0

0111000
+22 0 *
Ed
 1e-07 1 1 0
1  61 0 3.14159265358979 3.66519142918809
2  69 6 0 3.14159265358979 3.66519142918809
4 C0 6 0 4 0
0

0101000
+156 0 -54 0 *
Wi

0101100
+154 0 +52 0 -20 0 *
Fa
0  1e-07 6 0

0111000
+19 0 *
Ed
 1e-07 1 1 0
1  62 0 3.66519142918809 4.71238898038469
2  70 29 0 3.66519142918809 4.71238898038469
4 C0 29 0 4 0
0

0101000
+54 0 -64 0 *
Wi

0101100
+53 0 +61 0 -17 0 *
Fa
0  1e-07 29 0

0111000
+16 0 *
Ed
 1e-07 1 1 0
1  63 0 4.71238898038469 5.75958653158129
2  71 25 0 4.71238898038469 5.75958653158129
4 C0 25 0 4 0
0

0101000
+64 0 -81 0 *
Wi

0101100
+63 0 +78 0 -14 0 *
Fa
0  1e-07 25 0

0111000
+13 0 *
Ed
 1e-07 1 1 0
1  64 0 5.75958653158129 6.28318530717959
2  72 2 0 5.75958653158129 6.28318530717959
4 C0 2 0 4 0
0

0101000
+81 0 -163 0 *
Wi

0101100
+162 0 -11 0 +80 0 *
Fa
0  1e-07 2 0

0111000
+10 0 *
Wi

0101100
-32 0 -29 0 -44 0 -41 0 -135 0 -38 0 -35 0 -144 0 *
Wi

0101100
+113 0 +107 0 *
Fa
0  1e-07 10 0

0111000
+8 0 +7 0 *
Wi

0101100
+11 0 +159 0 +26 0 +23 0 +152 0 +20 0 +17 0 +14 0 *
Wi

0101100
+101 0 +126 0 *
Fa
0  1e-07 4 0

0111000
+5 0 +4 0 *
Sh

0101100
+157 0 +149 0 +141 0 +133 0 -123 0 -116 0 -109 0 -105 0 -102 0 -99 0 
-85 0 -73 0 -69 0 -58 0 -49 0 -45 0 +42 0 +39 0 +36 0 +33 0 
+30 0 +27 0 +24 0 +21 0 +18 0 +15 0 +12 0 +9 0 +6 0 +3 0 
*
So

0100000
+2 0 *

+1 0 