DBRep_DrawableShape

CASCADE Topology V1, (c) Matra-Datavision
Locations 0
Curve2ds 72
1 6.2831853071795862 -8.8817841970012523e-16 0 -1 
1 0 -8.8817841970012523e-16 0 -1 
7 0 0  3 25 23  6.2831853071795862 -2.3205080756887591  6.2761203630938356 -2.4020854846476829  6.2619069698222036 -2.5612190272430837  6.240337078419377 -2.7880565024638728  6.2185180008420016 -3.003240337514641  6.1964506971055311 -3.2069509916722732  6.1741363659770032 -3.399350760586751  6.1515764858810487 -3.5805815025570884  6.1287728160905717 -3.7507656960971754  6.1057274081085486 -3.9100064953712002  6.0824426137814473 -4.0583879458895078  6.0589210936606301 -4.1959750493520875  6.035165824576664 -4.3228137604510088  6.0111801066096042 -4.4389308919142199  5.9869675693086295 -4.5443339318219955  5.9625321771102557 -4.6390107681396255  5.9378782338492782 -4.7229293191522732  5.913010386384367 -4.7960370574255089  5.8879336269121945 -4.8582604498497606  5.8626532952206887 -4.9095042015847286  5.8371750758917171 -4.9496506890988821  5.8115050087706894 -4.9785581053615342  5.7856494440614714 -4.996062783209096  5.7682932799994093 -4.9999977570565051  5.759586531581288 -4.999999999999992 
 8.8743238900090304 4 9.3379896942066694 1 9.8016554984043101 1 10.265321302601949 1 10.72898710679959 1 11.192652910997229 1 11.656318715194868 1 12.119984519392506 1 12.583650323590147 1 13.047316127787788 1 13.510981931985427 1 13.974647736183066 1 14.438313540380705 1 14.901979344578345 1 15.365645148775984 1 15.829310952973625 1 16.292976757171264 1 16.756642561368903 1 17.220308365566545 1 17.683974169764184 1 18.147639973961823 1 18.611305778159462 1 19.074971582357101 4
1 6.2831853071795862 -5.0000000000000071 -1 0 
1 3.1415926535897931 -8.8817841970012523e-16 0 1 
1 3.1415926535897931 -8.8817841970012523e-16 0 1 
1 6.2831853071795862 -5.0000000000000071 -1 0 
7 0 0  3 25 23  3.6651914291880914 -4.999999999999992  3.6564846807699705 -4.9999977570565042  3.6391285167079088 -4.996062783209096  3.613272951998689 -4.9785581053615378  3.58760288487766 -4.9496506890988874  3.5621246655486907 -4.9095042015847321  3.5368443338571831 -4.8582604498497632  3.5117675743850132 -4.7960370574255125  3.4868997269200994 -4.7229293191522768  3.4622457836591236 -4.6390107681396335  3.4378103914607485 -4.5443339318220097  3.4135978541597756 -4.4389308919142163  3.389612136192715 -4.3228137604510248  3.3658568671087492 -4.1959750493520831  3.3423353469879316 -4.0583879458895069  3.3190505526608303 -3.9100064953712077  3.2960051446788081 -3.7507656960971802  3.2732014748883311 -3.5805815025570915  3.2506415947923748 -3.3993507605867608  3.2283272636638496 -3.2069509916722794  3.2062599599273764 -3.0032403375146361  3.1844408823500032 -2.7880565024638884  3.1628709909471757 -2.561219027243077  3.1486575976755433 -2.4020854846476758  3.1415926535897931 -2.3205080756887591 
 19.074971582357101 4 19.538637386554736 1 20.002303190752375 1 20.465968994950011 1 20.929634799147646 1 21.393300603345281 1 21.85696640754292 1 22.320632211740556 1 22.784298015938191 1 23.24796382013583 1 23.711629624333465 1 24.175295428531101 1 24.638961232728736 1 25.102627036926371 1 25.56629284112401 1 26.029958645321646 1 26.493624449519281 1 26.95729025371692 1 27.420956057914555 1 27.884621862112191 1 28.34828766630983 1 28.811953470507461 1 29.2756192747051 4
1 0 -8.8817841970012523e-16 0 1 
1 6.2831853071795862 -8.8817841970012523e-16 0 1 
1 0 -5.0000000000000071 1 0 
7 0 0  3 25 23  0.52359877559829826 -4.999999999999992  0.5148920271801769 -4.9999977570565051  0.49753586311811482 -4.996062783209096  0.47168029840889591 -4.9785581053615369  0.44601023128786554 -4.9496506890988856  0.42053201195889756 -4.9095042015847321  0.3952516802673891 -4.8582604498497632  0.37017492079522185 -4.796037057425508  0.34530707333030453 -4.7229293191522723  0.32065313006932872 -4.6390107681396273  0.29621773787095673 -4.5443339318220026  0.2720052005699829 -4.4389308919142199  0.24801948260291962 -4.3228137604510115  0.22426421351895431 -4.1959750493520875  0.20074269339814066 -4.0583879458895069  0.17745789907103493 -3.9100064953712033  0.15441249108901367 -3.7507656960971811  0.13160882129853668 -3.5805815025570857  0.10904894120258124 -3.3993507605867563  0.086734610074056029 -3.2069509916722763  0.064667306337582886 -3.0032403375146339  0.042848228760208329 -2.7880565024638804  0.02127833735738438 -2.5612190272430864  0.0070649440857515344 -2.4020854846476838  0 -2.3205080756887595 
 19.074971582357101 4 19.538637386554736 1 20.002303190752375 1 20.465968994950011 1 20.929634799147646 1 21.393300603345281 1 21.85696640754292 1 22.320632211740556 1 22.784298015938191 1 23.24796382013583 1 23.711629624333465 1 24.175295428531101 1 24.638961232728736 1 25.102627036926371 1 25.56629284112401 1 26.029958645321646 1 26.493624449519281 1 26.95729025371692 1 27.420956057914555 1 27.884621862112191 1 28.34828766630983 1 28.811953470507461 1 29.2756192747051 4
1 3.1415926535897931 -8.8817841970012523e-16 0 -1 
1 3.1415926535897931 -8.8817841970012523e-16 0 -1 
7 0 0  3 25 23  3.1415926535897931 -2.3205080756887595  3.1345277095040425 -2.4020854846476829  3.1203143162324114 -2.5612190272430837  3.0987444248295826 -2.788056502463875  3.0769253472522098 -3.0032403375146375  3.0548580435157371 -3.2069509916722763  3.0325437123872114 -3.399350760586751  3.0099838322912551 -3.5805815025570884  2.9871801625007786 -3.750765696097178  2.964134754518756 -3.910006495371197  2.9408499601916529 -4.058387945889506  2.9173284400708379 -4.1959750493520875  2.8935731709868704 -4.3228137604510142  2.8695874530198102 -4.4389308919142225  2.8453749157188368 -4.5443339318220008  2.8209395235204613 -4.6390107681396291  2.7962855802594855 -4.7229293191522705  2.7714177327945717 -4.7960370574255116  2.7463409733224005 -4.8582604498497641  2.7210606416308951 -4.9095042015847294  2.6955824223019236 -4.9496506890988865  2.6699123551808968 -4.9785581053615324  2.6440567904716774 -4.9960627832090951  2.6267006264096153 -4.9999977570565042  2.6179938779914949 -4.999999999999992 
 8.8743238900090304 4 9.3379896942066694 1 9.8016554984043101 1 10.265321302601949 1 10.72898710679959 1 11.192652910997229 1 11.656318715194868 1 12.119984519392506 1 12.583650323590147 1 13.047316127787788 1 13.510981931985427 1 13.974647736183066 1 14.438313540380705 1 14.901979344578345 1 15.365645148775984 1 15.829310952973625 1 16.292976757171264 1 16.756642561368903 1 17.220308365566545 1 17.683974169764184 1 18.147639973961823 1 18.611305778159462 1 19.074971582357101 4
1 0 -5.0000000000000071 1 0 
1 0 -0.574170706323475 1 0 
1 6.2831853071795862 -4.1880000000000006 -1 0 
1 3.1415926535897931 0 0 1 
1 3.1415926535897931 0 0 1 
1 6.2831853071795862 0.57417070632347711 -1 0 
1 0 2.2204460492503131e-16 0 -1 
1 6.2831853071795862 2.2204460492503131e-16 0 -1 
1 6.2831853071795862 4.1880000000000006 -1 0 
1 6.2831853071795862 -0.57417070632347489 -1 0 
1 3.1415926535897931 0 0 -1 
1 3.1415926535897931 0 0 -1 
1 6.2831853071795862 0 0 1 
1 0 0 0 1 
1 6.2831853071795862 0.57417070632347744 -1 0 
1 3.1415926535897931 0 0 -1 
1 3.1415926535897931 0 0 -1 
1 6.2831853071795862 0 0 1 
1 0 0 0 1 
1 6.2831853071795862 -0.57417070632347489 -1 0 
1 6.2831853071795862 4.1880000000000006 -1 0 
1 6.2831853071795862 0.57417070632347744 -1 0 
1 6.2831853071795862 -4.1880000000000006 -1 0 
1 0 -0.574170706323475 1 0 
1 6.2831853071795862 0.57417070632347711 -1 0 
7 0 0  3 25 23  2.0943951023931953 -2.3205080756887808  2.0873301583074451 -2.4020854846477029  2.0731167650358135 -2.5612190272431037  2.0515468736329852 -2.7880565024638986  2.0297277960556124 -3.0032403375146539  2.0076604923191397 -3.206950991672294  1.9853461611906138 -3.3993507605867723  1.962786281094657 -3.5805815025570951  1.9399826113041807 -3.7507656960971967  1.9169372033221581 -3.9100064953712046  1.8936524089950562 -4.0583879458895247  1.8701308888742401 -4.1959750493520946  1.8463756197902723 -4.3228137604510239  1.8223899018232128 -4.4389308919142225  1.7981773645222399 -4.5443339318220142  1.773741972323863 -4.6390107681396415  1.7490880290628883 -4.7229293191522821  1.7242201815979734 -4.7960370574255187  1.6991434221258028 -4.8582604498497757  1.6738630904342968 -4.9095042015847392  1.6483848711053259 -4.949650689098898  1.6227148039842985 -4.9785581053615449  1.5968592392750789 -4.9960627832091129  1.5795030752130172 -4.9999977570565202  1.5707963267948963 -5.0000000000000071 
 8.8743238900090393 4 9.3379896942066782 1 9.8016554984043172 1 10.265321302601956 1 10.728987106799597 1 11.192652910997236 1 11.656318715194875 1 12.119984519392514 1 12.583650323590152 1 13.047316127787791 1 13.51098193198543 1 13.974647736183069 1 14.438313540380708 1 14.901979344578347 1 15.365645148775988 1 15.829310952973627 1 16.292976757171267 1 16.756642561368906 1 17.220308365566545 1 17.683974169764184 1 18.147639973961823 1 18.611305778159462 1 19.074971582357101 4
7 0 0  3 25 23  4.7123889803846897 -5.0000000000000071  4.7036822319665692 -4.9999977570565175  4.686326067904508 -4.9960627832091067  4.6604705031952873 -4.9785581053615493  4.6348004360742596 -4.9496506890988998  4.609322216745289 -4.9095042015847401  4.5840418850537823 -4.8582604498497766  4.5589651255816115 -4.7960370574255187  4.5340972781166977 -4.7229293191522812  4.5094433348557219 -4.6390107681396398  4.4850079426573455 -4.5443339318220142  4.4607954053563725 -4.4389308919142234  4.4368096873893128 -4.3228137604510231  4.4130544183053457 -4.1959750493520929  4.3895328981845285 -4.0583879458895264  4.3662481038574272 -3.9100064953712064  4.3432026958754051 -3.7507656960971905  4.3203990260849281 -3.5805815025570964  4.2978391459889709 -3.3993507605867741  4.2755248148604474 -3.2069509916722843  4.2534575111239725 -3.003240337514649  4.2316384335466015 -2.788056502463899  4.2100685421437722 -2.5612190272431081  4.1958551488721412 -2.4020854846477055  4.1887902047863914 -2.3205080756887804 
 19.074971582357101 4 19.538637386554736 1 20.002303190752375 1 20.465968994950011 1 20.929634799147646 1 21.393300603345281 1 21.85696640754292 1 22.320632211740556 1 22.784298015938191 1 23.24796382013583 1 23.711629624333465 1 24.175295428531101 1 24.638961232728736 1 25.102627036926371 1 25.56629284112401 1 26.029958645321646 1 26.493624449519281 1 26.95729025371692 1 27.420956057914555 1 27.884621862112191 1 28.34828766630983 1 28.811953470507461 1 29.2756192747051 4
7 0 0  3 25 23  5.2359877559829888 -2.3205080756887773  5.2289228118972391 -2.4020854846477029  5.2147094186256089 -2.5612190272431055  5.1931395272227778 -2.7880565024638964  5.1713204496454068 -3.0032403375146552  5.1492531459089328 -3.2069509916722865  5.1269388147804076 -3.3993507605867732  5.1043789346844513 -3.5805815025570964  5.0815752648939743 -3.7507656960971953  5.0585298569119503 -3.910006495371205  5.0352450625848499 -4.0583879458895256  5.0117235424640327 -4.1959750493520982  4.9879682733800665 -4.3228137604510231  4.963982555413005 -4.438930891914227  4.939770018112033 -4.544333931822008  4.9153346259136574 -4.6390107681396389  4.8906806826526807 -4.722929319152283  4.8658128351877696 -4.7960370574255196  4.8407360757155953 -4.8582604498497748  4.8154557440240904 -4.9095042015847392  4.7899775246951188 -4.949650689098898  4.764307457574092 -4.9785581053615466  4.7384518928648722 -4.9960627832091111  4.721095728802811 -4.9999977570565184  4.7123889803846897 -5.0000000000000071 
 8.8743238900090304 4 9.3379896942066694 1 9.8016554984043101 1 10.265321302601949 1 10.72898710679959 1 11.192652910997229 1 11.656318715194868 1 12.119984519392506 1 12.583650323590147 1 13.047316127787788 1 13.510981931985427 1 13.974647736183066 1 14.438313540380705 1 14.901979344578345 1 15.365645148775984 1 15.829310952973625 1 16.292976757171264 1 16.756642561368903 1 17.220308365566545 1 17.683974169764184 1 18.147639973961823 1 18.611305778159462 1 19.074971582357101 4
7 0 0  3 25 23  1.5707963267948963 -5.0000000000000071  1.5620895783767752 -4.9999977570565184  1.5447334143147138 -4.9960627832091085  1.518877849605494 -4.9785581053615466  1.4932077824844663 -4.9496506890988998  1.4677295631554959 -4.9095042015847428  1.4424492314639896 -4.8582604498497721  1.4173724719918188 -4.7960370574255196  1.3925046245269048 -4.7229293191522812  1.3678506812659292 -4.639010768139638  1.3434152890675533 -4.5443339318220151  1.3192027517665803 -4.4389308919142234  1.2952170337995201 -4.3228137604510275  1.2714617647155528 -4.1959750493520955  1.2479402445947365 -4.0583879458895247  1.2246554502676348 -3.9100064953712099  1.201610042285612 -3.7507656960971945  1.1788063724951354 -3.5805815025570999  1.1562464923991786 -3.3993507605867741  1.1339321612706534 -3.206950991672286  1.1118648575341803 -3.0032403375146504  1.0900457799568075 -2.788056502463899  1.0684758885539793 -2.5612190272431081  1.0542624952823474 -2.4020854846477055  1.0471975511965972 -2.3205080756887808 
 19.074971582357101 4 19.538637386554736 1 20.002303190752375 1 20.465968994950011 1 20.929634799147646 1 21.393300603345281 1 21.85696640754292 1 22.320632211740556 1 22.784298015938191 1 23.24796382013583 1 23.711629624333465 1 24.175295428531101 1 24.638961232728736 1 25.102627036926371 1 25.56629284112401 1 26.029958645321646 1 26.493624449519281 1 26.95729025371692 1 27.420956057914555 1 27.884621862112191 1 28.34828766630983 1 28.811953470507461 1 29.2756192747051 4
7 0 0  3 25 23  6.2831853071795862 -2.3205080756887595  6.2761203630938356 -2.4020854846476829  6.2619069698222045 -2.5612190272430837  6.2403370784193744 -2.7880565024638737  6.2185180008420016 -3.0032403375146433  6.1964506971055311 -3.2069509916722745  6.1741363659770032 -3.399350760586751  6.1515764858810487 -3.5805815025570884  6.1287728160905717 -3.750765696097178  6.1057274081085486 -3.9100064953711966  6.0824426137814456 -4.0583879458895069  6.0589210936606319 -4.1959750493520849  6.0351658245766631 -4.3228137604510124  6.0111801066096024 -4.4389308919142207  5.9869675693086295 -4.5443339318219973  5.962532177110254 -4.6390107681396309  5.9378782338492782 -4.7229293191522688  5.9130103863843653 -4.7960370574255151  5.8879336269121936 -4.8582604498497624  5.8626532952206887 -4.9095042015847303  5.8371750758917154 -4.9496506890988821  5.8115050087706885 -4.9785581053615369  5.7856494440614714 -4.996062783209096  5.7682932799994084 -4.9999977570565051  5.759586531581288 -4.999999999999992 
 8.8743238900090304 4 9.3379896942066694 1 9.8016554984043101 1 10.265321302601949 1 10.72898710679959 1 11.192652910997229 1 11.656318715194868 1 12.119984519392506 1 12.583650323590147 1 13.047316127787788 1 13.510981931985427 1 13.974647736183066 1 14.438313540380705 1 14.901979344578345 1 15.365645148775984 1 15.829310952973625 1 16.292976757171264 1 16.756642561368903 1 17.220308365566545 1 17.683974169764184 1 18.147639973961823 1 18.611305778159462 1 19.074971582357101 4
7 0 0  3 25 23  0.52359877559829848 -4.999999999999992  0.51489202718017757 -4.9999977570565051  0.49753586311811571 -4.9960627832090969  0.47168029840889597 -4.9785581053615351  0.44601023128786821 -4.9496506890988874  0.4205320119588975 -4.909504201584733  0.39525168026739144 -4.8582604498497615  0.37017492079522085 -4.796037057425508  0.34530707333030647 -4.7229293191522794  0.32065313006933127 -4.6390107681396309  0.29621773787095529 -4.5443339318220097  0.27200520056998229 -4.4389308919142172  0.2480194826029227 -4.3228137604510231  0.22426421351895506 -4.1959750493520858  0.20074269339813933 -4.0583879458895069  0.17745789907103768 -3.9100064953712055  0.15441249108901453 -3.7507656960971754  0.1316088212985386 -3.5805815025570928  0.10904894120258186 -3.3993507605867617  0.086734610074056195 -3.2069509916722745  0.064667306337583677 -3.0032403375146379  0.042848228760210771 -2.7880565024638875  0.021278337357382094 -2.561219027243077  0.0070649440857505196 -2.4020854846476758  0 -2.3205080756887591 
 19.074971582357101 4 19.538637386554736 1 20.002303190752375 1 20.465968994950011 1 20.929634799147646 1 21.393300603345281 1 21.85696640754292 1 22.320632211740556 1 22.784298015938191 1 23.24796382013583 1 23.711629624333465 1 24.175295428531101 1 24.638961232728736 1 25.102627036926371 1 25.56629284112401 1 26.029958645321646 1 26.493624449519281 1 26.95729025371692 1 27.420956057914555 1 27.884621862112191 1 28.34828766630983 1 28.811953470507461 1 29.2756192747051 4
7 0 0  3 25 23  1.0471975511965979 -2.3205080756887804  1.0401326071108472 -2.4020854846477047  1.0259192138392157 -2.561219027243105  1.0043493224363873 -2.7880565024638932  0.9825302448590143 -3.0032403375146317  0.96046294112254205 -3.2069509916722714  0.93814860999401595 -3.3993507605867501  0.91558872989805984 -3.5805815025570773  0.89278506010758352 -3.7507656960971687  0.86973965212556037 -3.9100064953711824  0.84645485779845875 -4.0583879458894971  0.82293333767764287 -4.1959750493520662  0.79917806859367468 -4.322813760451  0.77519235062661529 -4.4389308919141941  0.75097981332564223 -4.5443339318219778  0.72654442112726625 -4.6390107681396087  0.701890477866291 -4.7229293191522519  0.67702263040137622 -4.7960370574254956  0.65194587092920575 -4.8582604498497446  0.62666553923769974 -4.9095042015847223  0.60118731990872853 -4.9496506890988741  0.57551725278770138 -4.9785581053615298  0.54966168807848093 -4.9960627832090916  0.53230552401641928 -4.9999977570565015  0.52359877559829848 -4.999999999999992 
 8.8743238900090091 4 9.3379896942066498 1 9.8016554984042905 1 10.265321302601931 1 10.728987106799572 1 11.192652910997211 1 11.656318715194853 1 12.119984519392492 1 12.583650323590133 1 13.047316127787774 1 13.510981931985414 1 13.974647736183055 1 14.438313540380696 1 14.901979344578336 1 15.365645148775975 1 15.829310952973618 1 16.292976757171257 1 16.756642561368899 1 17.220308365566538 1 17.683974169764177 1 18.147639973961819 1 18.611305778159462 1 19.074971582357101 4
7 0 0  3 25 23  5.759586531581288 -4.999999999999992  5.7508797831631675 -4.9999977570565042  5.7335236191011045 -4.9960627832090907  5.7076680543918838 -4.9785581053615235  5.6819979872708561 -4.9496506890988741  5.6565197679418864 -4.9095042015847197  5.6312394362503815 -4.858260449849741  5.6061626767782089 -4.7960370574254947  5.5812948293132951 -4.7229293191522475  5.5566408860523184 -4.6390107681396096  5.5322054938539456 -4.5443339318219831  5.5079929565529699 -4.4389308919141968  5.4840072385859102 -4.3228137604509955  5.4602519695019431 -4.1959750493520698  5.4367304493811277 -4.0583879458894927  5.4134456550540255 -3.9100064953711868  5.3904002470720034 -3.7507656960971683  5.3675965772815264 -3.5805815025570809  5.3450366971855692 -3.3993507605867501  5.3227223660570457 -3.2069509916722723  5.3006550623205717 -3.0032403375146388  5.278835984743198 -2.7880565024638839  5.2572660933403714 -2.5612190272431063  5.2430527000687395 -2.4020854846477073  5.2359877559829879 -2.3205080756887808 
 19.074971582357101 4 19.538637386554736 1 20.002303190752375 1 20.465968994950011 1 20.929634799147646 1 21.393300603345281 1 21.85696640754292 1 22.320632211740556 1 22.784298015938191 1 23.24796382013583 1 23.711629624333465 1 24.175295428531101 1 24.638961232728736 1 25.102627036926371 1 25.56629284112401 1 26.029958645321646 1 26.493624449519281 1 26.95729025371692 1 27.420956057914555 1 27.884621862112191 1 28.34828766630983 1 28.811953470507461 1 29.2756192747051 4
7 0 0  3 25 23  1.0471975511965972 -2.3205080756887808  1.040132607110847 -2.4020854846477033  1.0259192138392157 -2.5612190272431024  1.0043493224363866 -2.7880565024638879  0.98253024485901408 -3.0032403375146401  0.9604629411225416 -3.2069509916722687  0.93814860999401561 -3.3993507605867559  0.91558872989805928 -3.5805815025570742  0.89278506010758307 -3.7507656960971718  0.86973965212556004 -3.9100064953711793  0.84645485779845797 -4.0583879458894918  0.82293333767764254 -4.195975049352068  0.79917806859367446 -4.3228137604509929  0.77519235062661485 -4.4389308919142021  0.75097981332564168 -4.5443339318219795  0.72654442112726569 -4.6390107681396149  0.70189047786629011 -4.7229293191522528  0.67702263040137611 -4.7960370574254929  0.65194587092920475 -4.8582604498497464  0.62666553923769897 -4.9095042015847152  0.6011873199087282 -4.949650689098875  0.57551725278770027 -4.978558105361528  0.54966168807848059 -4.9960627832090934  0.53230552401641884 -4.9999977570565042  0.52359877559829793 -4.999999999999992 
 8.8743238900090304 4 9.3379896942066694 1 9.8016554984043101 1 10.265321302601949 1 10.72898710679959 1 11.192652910997229 1 11.656318715194868 1 12.119984519392506 1 12.583650323590147 1 13.047316127787788 1 13.510981931985427 1 13.974647736183066 1 14.438313540380705 1 14.901979344578345 1 15.365645148775984 1 15.829310952973625 1 16.292976757171264 1 16.756642561368903 1 17.220308365566545 1 17.683974169764184 1 18.147639973961823 1 18.611305778159462 1 19.074971582357101 4
7 0 0  3 25 23  5.759586531581288 -4.999999999999992  5.7508797831631684 -4.9999977570565042  5.7335236191011054 -4.9960627832090907  5.7076680543918847 -4.9785581053615244  5.6819979872708579 -4.949650689098875  5.6565197679418882 -4.9095042015847152  5.6312394362503797 -4.8582604498497455  5.6061626767782107 -4.7960370574254938  5.5812948293132969 -4.7229293191522546  5.5566408860523184 -4.6390107681396087  5.5322054938539447 -4.5443339318219849  5.5079929565529717 -4.4389308919142021  5.4840072385859111 -4.3228137604509929  5.4602519695019449 -4.1959750493520662  5.4367304493811268 -4.0583879458894945  5.4134456550540255 -3.9100064953711833  5.3904002470720034 -3.7507656960971683  5.3675965772815264 -3.5805815025570813  5.3450366971855692 -3.3993507605867501  5.3227223660570457 -3.2069509916722727  5.3006550623205717 -3.0032403375146326  5.2788359847431998 -2.7880565024638857  5.2572660933403723 -2.5612190272431059  5.2430527000687377 -2.4020854846477055  5.2359877559829888 -2.3205080756887773 
 19.074971582357101 4 19.538637386554736 1 20.002303190752375 1 20.465968994950011 1 20.929634799147646 1 21.393300603345281 1 21.85696640754292 1 22.320632211740556 1 22.784298015938191 1 23.24796382013583 1 23.711629624333465 1 24.175295428531101 1 24.638961232728736 1 25.102627036926371 1 25.56629284112401 1 26.029958645321646 1 26.493624449519281 1 26.95729025371692 1 27.420956057914555 1 27.884621862112191 1 28.34828766630983 1 28.811953470507461 1 29.2756192747051 4
7 0 0  3 25 23  4.7123889803846897 -5.0000000000000071  4.7036822319665683 -4.9999977570565184  4.6863260679045053 -4.9960627832091085  4.6604705031952882 -4.9785581053615466  4.6348004360742596 -4.9496506890989007  4.609322216745289 -4.9095042015847419  4.5840418850537823 -4.8582604498497748  4.5589651255816106 -4.7960370574255187  4.5340972781166986 -4.7229293191522812  4.5094433348557219 -4.6390107681396398  4.4850079426573455 -4.5443339318220133  4.4607954053563725 -4.438930891914227  4.4368096873893128 -4.3228137604510257  4.4130544183053457 -4.1959750493520955  4.3895328981845285 -4.0583879458895247  4.3662481038574272 -3.9100064953712099  4.3432026958754051 -3.7507656960971945  4.3203990260849281 -3.5805815025570999  4.2978391459889709 -3.3993507605867741  4.2755248148604474 -3.206950991672286  4.2534575111239725 -3.0032403375146504  4.2316384335466006 -2.788056502463899  4.2100685421437722 -2.5612190272431081  4.1958551488721403 -2.4020854846477055  4.1887902047863896 -2.3205080756887808 
 19.074971582357101 4 19.538637386554736 1 20.002303190752375 1 20.465968994950011 1 20.929634799147646 1 21.393300603345281 1 21.85696640754292 1 22.320632211740556 1 22.784298015938191 1 23.24796382013583 1 23.711629624333465 1 24.175295428531101 1 24.638961232728736 1 25.102627036926371 1 25.56629284112401 1 26.029958645321646 1 26.493624449519281 1 26.95729025371692 1 27.420956057914555 1 27.884621862112191 1 28.34828766630983 1 28.811953470507461 1 29.2756192747051 4
7 0 0  3 25 23  5.2359877559829879 -2.3205080756887808  5.2289228118972391 -2.4020854846477029  5.2147094186256071 -2.5612190272431037  5.1931395272227796 -2.7880565024638986  5.1713204496454033 -3.0032403375146552  5.1492531459089319 -3.2069509916722887  5.1269388147804067 -3.3993507605867732  5.1043789346844504 -3.580581502557096  5.0815752648939725 -3.7507656960971953  5.0585298569119503 -3.9100064953712104  5.0352450625848491 -4.0583879458895229  5.0117235424640318 -4.1959750493520964  4.9879682733800665 -4.3228137604510239  4.9639825554130041 -4.4389308919142225  4.939770018112033 -4.5443339318220142  4.9153346259136557 -4.6390107681396415  4.8906806826526807 -4.7229293191522821  4.8658128351877652 -4.7960370574255187  4.8407360757155962 -4.8582604498497757  4.8154557440240904 -4.9095042015847392  4.7899775246951179 -4.9496506890989007  4.764307457574092 -4.9785581053615449  4.7384518928648713 -4.9960627832091129  4.7210957288028101 -4.9999977570565202  4.7123889803846897 -5.0000000000000071 
 8.8743238900090393 4 9.3379896942066782 1 9.8016554984043172 1 10.265321302601956 1 10.728987106799597 1 11.192652910997236 1 11.656318715194875 1 12.119984519392514 1 12.583650323590152 1 13.047316127787791 1 13.51098193198543 1 13.974647736183069 1 14.438313540380708 1 14.901979344578347 1 15.365645148775988 1 15.829310952973627 1 16.292976757171267 1 16.756642561368906 1 17.220308365566545 1 17.683974169764184 1 18.147639973961823 1 18.611305778159462 1 19.074971582357101 4
7 0 0  3 25 23  1.5707963267948968 -5.0000000000000071  1.5620895783767759 -4.9999977570565175  1.5447334143147138 -4.9960627832091067  1.5188778496054947 -4.9785581053615493  1.493207782484467 -4.9496506890988998  1.4677295631554961 -4.9095042015847374  1.4424492314639903 -4.8582604498497775  1.4173724719918193 -4.7960370574255187  1.3925046245269048 -4.7229293191522839  1.3678506812659292 -4.639010768139638  1.3434152890675533 -4.5443339318220151  1.3192027517665803 -4.4389308919142234  1.2952170337995204 -4.3228137604510231  1.2714617647155531 -4.1959750493520929  1.247940244594737 -4.0583879458895264  1.2246554502676348 -3.910006495371205  1.2016100422856122 -3.7507656960971962  1.1788063724951356 -3.5805815025570951  1.1562464923991791 -3.3993507605867741  1.1339321612706534 -3.2069509916722843  1.111864857534181 -3.003240337514649  1.0900457799568077 -2.788056502463899  1.0684758885539796 -2.5612190272431081  1.0542624952823481 -2.4020854846477055  1.0471975511965979 -2.3205080756887804 
 19.074971582357101 4 19.538637386554736 1 20.002303190752375 1 20.465968994950011 1 20.929634799147646 1 21.393300603345281 1 21.85696640754292 1 22.320632211740556 1 22.784298015938191 1 23.24796382013583 1 23.711629624333465 1 24.175295428531101 1 24.638961232728736 1 25.102627036926371 1 25.56629284112401 1 26.029958645321646 1 26.493624449519281 1 26.95729025371692 1 27.420956057914555 1 27.884621862112191 1 28.34828766630983 1 28.811953470507461 1 29.2756192747051 4
7 0 0  3 25 23  2.0943951023931962 -2.3205080756887804  2.0873301583074455 -2.4020854846477042  2.0731167650358144 -2.5612190272431055  2.0515468736329856 -2.7880565024638964  2.0297277960556128 -3.0032403375146544  2.0076604923191406 -3.2069509916722878  1.9853461611906142 -3.3993507605867674  1.9627862810946581 -3.5805815025570982  1.9399826113041818 -3.7507656960971945  1.9169372033221581 -3.910006495371205  1.8936524089950566 -4.0583879458895256  1.8701308888742412 -4.1959750493520982  1.846375619790273 -4.3228137604510248  1.822389901823213 -4.438930891914227  1.7981773645222405 -4.5443339318220088  1.7737419723238643 -4.6390107681396389  1.7490880290628885 -4.7229293191522839  1.7242201815979745 -4.796037057425516  1.6991434221258035 -4.8582604498497775  1.6738630904342975 -4.9095042015847401  1.6483848711053262 -4.949650689098898  1.6227148039842996 -4.9785581053615466  1.5968592392750791 -4.9960627832091111  1.5795030752130175 -4.9999977570565184  1.5707963267948968 -5.0000000000000071 
 8.8743238900090304 4 9.3379896942066694 1 9.8016554984043101 1 10.265321302601949 1 10.72898710679959 1 11.192652910997229 1 11.656318715194868 1 12.119984519392506 1 12.583650323590147 1 13.047316127787788 1 13.510981931985427 1 13.974647736183066 1 14.438313540380705 1 14.901979344578345 1 15.365645148775984 1 15.829310952973625 1 16.292976757171264 1 16.756642561368903 1 17.220308365566545 1 17.683974169764184 1 18.147639973961823 1 18.611305778159462 1 19.074971582357101 4
7 0 0  3 25 23  3.6651914291880909 -4.999999999999992  3.65648468076997 -4.9999977570565033  3.6391285167079079 -4.9960627832090925  3.613272951998689 -4.9785581053615395  3.58760288487766 -4.9496506890988874  3.5621246655486907 -4.9095042015847294  3.5368443338571831 -4.8582604498497632  3.5117675743850132 -4.796037057425508  3.4868997269200994 -4.7229293191522723  3.4622457836591236 -4.6390107681396273  3.4378103914607481 -4.5443339318220026  3.4135978541597747 -4.4389308919142199  3.3896121361927141 -4.3228137604510133  3.3658568671087479 -4.1959750493520893  3.3423353469879316 -4.0583879458895069  3.3190505526608289 -3.910006495371205  3.2960051446788068 -3.7507656960971767  3.2732014748883302 -3.5805815025570857  3.2506415947923739 -3.3993507605867577  3.2283272636638483 -3.2069509916722709  3.206259959927376 -3.0032403375146353  3.1844408823500032 -2.7880565024638799  3.1628709909471748 -2.5612190272430864  3.1486575976755433 -2.4020854846476838  3.1415926535897931 -2.3205080756887595 
 19.074971582357101 4 19.538637386554736 1 20.002303190752375 1 20.465968994950011 1 20.929634799147646 1 21.393300603345281 1 21.85696640754292 1 22.320632211740556 1 22.784298015938191 1 23.24796382013583 1 23.711629624333465 1 24.175295428531101 1 24.638961232728736 1 25.102627036926371 1 25.56629284112401 1 26.029958645321646 1 26.493624449519281 1 26.95729025371692 1 27.420956057914555 1 27.884621862112191 1 28.34828766630983 1 28.811953470507461 1 29.2756192747051 4
7 0 0  3 25 23  4.1887902047863896 -2.3205080756887808  4.1817252607006399 -2.4020854846477033  4.1675118674290088 -2.5612190272431024  4.1459419760261795 -2.7880565024638879  4.1241228984488085 -3.0032403375146401  4.1020555947123327 -3.2069509916722687  4.0797412635838102 -3.3993507605867559  4.0571813834878521 -3.5805815025570742  4.034377713697376 -3.7507656960971709  4.0113323057153529 -3.9100064953711806  3.9880475113882503 -4.0583879458894945  3.9645259912674362 -4.1959750493520671  3.9407707221834669 -4.3228137604509929  3.9167850042164076 -4.4389308919142021  3.8925724669154342 -4.5443339318219786  3.8681370747170591 -4.639010768139614  3.843483131456082 -4.7229293191522546  3.8186152839911696 -4.7960370574254947  3.7935385245189974 -4.8582604498497481  3.7682581928274921 -4.909504201584717  3.7427799734985214 -4.9496506890988741  3.7171099063774928 -4.9785581053615289  3.6912543416682735 -4.9960627832090916  3.6738981776062114 -4.9999977570565015  3.6651914291880909 -4.999999999999992 
 8.8743238900090304 4 9.3379896942066694 1 9.8016554984043101 1 10.265321302601949 1 10.72898710679959 1 11.192652910997229 1 11.656318715194868 1 12.119984519392506 1 12.583650323590147 1 13.047316127787788 1 13.510981931985427 1 13.974647736183066 1 14.438313540380705 1 14.901979344578345 1 15.365645148775984 1 15.829310952973625 1 16.292976757171264 1 16.756642561368903 1 17.220308365566545 1 17.683974169764184 1 18.147639973961823 1 18.611305778159462 1 19.074971582357101 4
7 0 0  3 25 23  2.6179938779914953 -4.999999999999992  2.6092871295733748 -4.9999977570565033  2.5919309655113127 -4.9960627832090907  2.5660754008020921 -4.9785581053615253  2.5404053336810644 -4.9496506890988803  2.5149271143520946 -4.9095042015847161  2.4896467826605879 -4.8582604498497473  2.4645700231884167 -4.7960370574254938  2.4397021757235033 -4.7229293191522537  2.4150482324625266 -4.6390107681396104  2.3906128402641511 -4.5443339318219858  2.3664003029631786 -4.4389308919142021  2.342414584996118 -4.3228137604509937  2.3186593159121509 -4.1959750493520644  2.295137795791335 -4.0583879458894927  2.2718530014642337 -3.9100064953711842  2.2488075934822103 -3.7507656960971683  2.2260039236917337 -3.5805815025570813  2.2034440435957769 -3.3993507605867501  2.1811297124672522 -3.2069509916722727  2.159062408730779 -3.0032403375146326  2.1372433311534063 -2.7880565024638866  2.1156734397505788 -2.5612190272431015  2.1014600464789464 -2.4020854846477038  2.0943951023931962 -2.3205080756887804 
 19.074971582357101 4 19.538637386554736 1 20.002303190752375 1 20.465968994950011 1 20.929634799147646 1 21.393300603345281 1 21.85696640754292 1 22.320632211740556 1 22.784298015938191 1 23.24796382013583 1 23.711629624333465 1 24.175295428531101 1 24.638961232728736 1 25.102627036926371 1 25.56629284112401 1 26.029958645321646 1 26.493624449519281 1 26.95729025371692 1 27.420956057914555 1 27.884621862112191 1 28.34828766630983 1 28.811953470507461 1 29.2756192747051 4
7 0 0  3 25 23  3.1415926535897931 -2.3205080756887591  3.1345277095040429 -2.4020854846476829  3.1203143162324118 -2.5612190272430837  3.098744424829583 -2.7880565024638728  3.0769253472522102 -3.003240337514641  3.0548580435157375 -3.2069509916722732  3.0325437123872123 -3.399350760586751  3.0099838322912551 -3.5805815025570871  2.9871801625007794 -3.7507656960971807  2.964134754518756 -3.9100064953711984  2.9408499601916538 -4.0583879458895087  2.9173284400708388 -4.1959750493520875  2.8935731709868704 -4.3228137604510124  2.8695874530198107 -4.438930891914219  2.8453749157188386 -4.5443339318219964  2.8209395235204608 -4.6390107681396282  2.7962855802594868 -4.7229293191522732  2.7714177327945726 -4.7960370574255089  2.7463409733224009 -4.8582604498497606  2.7210606416308956 -4.9095042015847286  2.6955824223019245 -4.9496506890988821  2.6699123551808968 -4.9785581053615342  2.6440567904716779 -4.9960627832090942  2.6267006264096162 -4.9999977570565033  2.6179938779914953 -4.999999999999992 
 8.8743238900090304 4 9.3379896942066694 1 9.8016554984043101 1 10.265321302601949 1 10.72898710679959 1 11.192652910997229 1 11.656318715194868 1 12.119984519392506 1 12.583650323590147 1 13.047316127787788 1 13.510981931985427 1 13.974647736183066 1 14.438313540380705 1 14.901979344578345 1 15.365645148775984 1 15.829310952973625 1 16.292976757171264 1 16.756642561368903 1 17.220308365566545 1 17.683974169764184 1 18.147639973961823 1 18.611305778159462 1 19.074971582357101 4
7 0 0  3 25 23  2.6179938779914949 -4.999999999999992  2.6092871295733735 -4.9999977570565033  2.5919309655113114 -4.9960627832090907  2.5660754008020916 -4.9785581053615253  2.5404053336810644 -4.9496506890988803  2.5149271143520942 -4.9095042015847143  2.4896467826605866 -4.8582604498497464  2.4645700231884171 -4.7960370574254902  2.4397021757235025 -4.7229293191522528  2.4150482324625266 -4.6390107681396087  2.3906128402641507 -4.544333931821984  2.3664003029631782 -4.438930891914195  2.3424145849961175 -4.322813760451  2.3186593159121505 -4.1959750493520662  2.2951377957913346 -4.0583879458894945  2.2718530014642324 -3.9100064953711868  2.2488075934822103 -3.7507656960971683  2.2260039236917333 -3.58058150255708  2.2034440435957769 -3.3993507605867515  2.1811297124672517 -3.2069509916722674  2.159062408730779 -3.0032403375146388  2.1372433311534054 -2.7880565024638893  2.1156734397505783 -2.5612190272431015  2.1014600464789459 -2.4020854846477029  2.0943951023931953 -2.3205080756887808 
 19.074971582357101 4 19.538637386554736 1 20.002303190752375 1 20.465968994950011 1 20.929634799147646 1 21.393300603345281 1 21.85696640754292 1 22.320632211740556 1 22.784298015938191 1 23.24796382013583 1 23.711629624333465 1 24.175295428531101 1 24.638961232728736 1 25.102627036926371 1 25.56629284112401 1 26.029958645321646 1 26.493624449519281 1 26.95729025371692 1 27.420956057914555 1 27.884621862112191 1 28.34828766630983 1 28.811953470507461 1 29.2756192747051 4
7 0 0  3 25 23  4.1887902047863914 -2.3205080756887804  4.1817252607006408 -2.402085484647706  4.1675118674290079 -2.5612190272431059  4.1459419760261795 -2.7880565024638893  4.1241228984488076 -3.0032403375146317  4.1020555947123345 -3.2069509916722754  4.0797412635838084 -3.3993507605867541  4.057181383487853 -3.5805815025570751  4.0343777136973751 -3.7507656960971696  4.0113323057153547 -3.9100064953711824  3.9880475113882512 -4.0583879458894936  3.9645259912674353 -4.1959750493520653  3.9407707221834674 -4.322813760451  3.9167850042164081 -4.4389308919141941  3.8925724669154351 -4.5443339318219786  3.8681370747170583 -4.6390107681396051  3.8434831314560842 -4.7229293191522546  3.8186152839911682 -4.7960370574254956  3.7935385245189988 -4.8582604498497455  3.7682581928274934 -4.9095042015847188  3.7427799734985214 -4.9496506890988741  3.7171099063774946 -4.9785581053615298  3.6912543416682735 -4.9960627832090916  3.6738981776062123 -4.9999977570565015  3.6651914291880914 -4.999999999999992 
 8.8743238900090091 4 9.3379896942066498 1 9.8016554984042905 1 10.265321302601931 1 10.728987106799572 1 11.192652910997211 1 11.656318715194853 1 12.119984519392492 1 12.583650323590133 1 13.047316127787774 1 13.510981931985414 1 13.974647736183055 1 14.438313540380696 1 14.901979344578336 1 15.365645148775975 1 15.829310952973618 1 16.292976757171257 1 16.756642561368899 1 17.220308365566538 1 17.683974169764177 1 18.147639973961819 1 18.611305778159462 1 19.074971582357101 4
1 -4.4408920985006262e-16 -4.9999999999999991 1 -1.6962958301138732e-15 
1 0 -5.0000000000000178 1 3.392591660227761e-15 
1 0 -5.0000000000000071 1 0 
1 0 -5.0000000000000071 1 0 
1 0 -5.0000000000000284 1 3.3925916602277551e-15 
1 0 -4.9999999999999991 1 -1.6962958301138746e-15 
1 6.2831853071795862 -5.0000000000000071 -1 0 
1 6.2831853071795862 -5.0000000000000071 -1 0 
1 6.2831853071795862 -5.0000000000000071 -1 0 
1 6.2831853071795862 -5.0000000000000071 -1 0 
1 6.2831853071795862 -4.9999999999999991 -1 -1.6962958301138746e-15 
1 6.2831853071795862 -5.0000000000000284 -1 3.3925916602277535e-15 
Curves 64
1 2.5 19.330127018922202 -2.36717963675657e-15 -0.49999999999999989 -0.86602540378443882 1.0605402120460098e-16 
7 1 0  2 3 2  1.33974596215561 17.320508075688799 0  1.0672723170151699 -6.9550335559294301e-16 15 -4.0192378864668497  1.0722994535272901 4.4408920985006301e-16 12.9903810567666 -7.5  1
 8.8743238900090304 3 19.074971582357101 3
2 0 0 0 -1 0 0 0 1 -2.4492127076447501e-16 -0 -2.4492127076447501e-16 -1 15
1 2.5 -19.330127018922202 2.36717963675657e-15 0.49999999999999989 -0.86602540378443882 1.0605402120460098e-16 
2 0 0 0 -1 0 0 0 1 -2.4492127076447501e-16 -0 -2.4492127076447501e-16 -1 15
7 1 0  2 3 2  -8.8817841970012504e-16 -12.9903810567666 -7.5  1 -1.6424208569287701e-15 -15 -4.0192378864668399  1.0722994535273001 1.33974596215561 -17.320508075688799 0  1.0672723170151699
 19.074971582357101 3 29.2756192747051 3
1 7.5 19.330127018922202 -2.36717963675657e-15 -0.49999999999999989 0.86602540378443882 -1.0605402120460098e-16 
2 10 0 0 -1 0 0 0 1 -2.4492127076447501e-16 -0 -2.4492127076447501e-16 -1 15
7 1 0  2 3 2  10 12.9903810567666 -7.5  1 10 15 -4.0192378864668399  1.0722994535272901 8.6602540378443909 17.320508075688799 0  1.0672723170151699
 19.074971582357101 3 29.2756192747051 3
1 7.5 -19.330127018922202 2.36717963675657e-15 0.49999999999999989 0.86602540378443882 -1.0605402120460098e-16 
7 1 0  2 3 2  8.6602540378443909 -17.320508075688799 0  1.0672723170151699 10 -15 -4.0192378864668497  1.0722994535272901 10 -12.9903810567666 -7.5  1
 8.8743238900090304 3 19.074971582357101 3
2 10 0 0 -1 0 0 0 1 -2.4492127076447501e-16 -0 -2.4492127076447501e-16 -1 15
2 0.81199999999999894 0 0 -1 -0 0 0 -2.4492127076447501e-16 -1 0 -1 2.4492127076447501e-16 9.1880000000000006
1 0.40600000000000003 1.17488733585719e-15 9.5939999999999994 -0.70710678118654757 8.6592745707193332e-17 0.70710678118654757 
2 0 0 0 1 0 0 0 -2.4492127076447501e-16 -1 0 1 -2.4492127076447501e-16 10
1 0.40600000000000003 -1.17488733585719e-15 -9.5939999999999994 0.70710678118654757 8.6592745707193332e-17 0.70710678118654757 
2 9.1880000000000006 0 0 -1 -0 0 0 -2.4492127076447501e-16 -1 0 -1 2.4492127076447501e-16 9.1880000000000006
1 5 1.125168317892e-15 9.1880000000000006 -1 0 0 
1 5 -1.125168317892e-15 -9.1880000000000006 1 0 0 
2 10 0 0 -1 -0 0 0 -2.4492127076447501e-16 -1 0 -1 2.4492127076447501e-16 10
1 9.5939999999999994 1.17488733585719e-15 9.5939999999999994 -0.70710678118654757 -8.6592745707193332e-17 -0.70710678118654757 
1 9.5939999999999994 -1.17488733585719e-15 -9.5939999999999994 0.70710678118654757 -8.6592745707193332e-17 -0.70710678118654757 
2 9.1880000000000006 0 0 -1 -0 0 0 -2.4492127076447501e-16 -1 0 -1 2.4492127076447501e-16 9.1880000000000006
2 10 0 0 -1 -0 0 0 -2.4492127076447501e-16 -1 0 -1 2.4492127076447501e-16 10
2 0.81199999999999894 0 0 -1 -0 0 0 -2.4492127076447501e-16 -1 0 -1 2.4492127076447501e-16 9.1880000000000006
2 0 0 0 1 0 0 0 -2.4492127076447501e-16 -1 0 1 -2.4492127076447501e-16 10
7 1 0  2 3 2  8.6602540378443909 -8.6602540378443909 -15  1.0672723170151699 10 -4.0192378864668301 -15  1.0722994535272901 10 0 -15  1
 8.8743238900090393 3 19.074971582357101 3
1 0 -8.6602540378443909 -15 1 0 0 
7 1 0  2 3 2  4.4408920985006301e-16 0 -15  1 -8.1298151886434299e-16 -4.0192378864668399 -15  1.0722994535272901 1.33974596215561 -8.6602540378443909 -15  1.0672723170151699
 19.074971582357101 3 29.2756192747051 3
7 1 0  2 3 2  1.33974596215561 8.6602540378443909 -15  1.0672723170151699 -8.1298151886434201e-16 4.0192378864668399 -15  1.0722994535272901 4.4408920985006301e-16 0 -15  1
 8.8743238900090304 3 19.074971582357101 3
1 0 8.6602540378443909 -15 1 0 0 
7 1 0  2 3 2  10 0 -15  1 10 4.0192378864668301 -15  1.0722994535272901 8.6602540378443909 8.6602540378443909 -15  1.0672723170151699
 19.074971582357101 3 29.2756192747051 3
7 1 0  2 3 2  8.6602540378443909 17.320508075688799 0  1.0672723170151699 10 15 4.0192378864668497  1.0722994535272901 10 12.9903810567666 7.5  1
 8.8743238900090304 3 19.074971582357101 3
1 0 17.320508075688799 0 1 0 0 
7 1 0  2 3 2  -8.8817841970012504e-16 12.9903810567666 7.5  1 -1.6424208569287701e-15 15 4.0192378864668399  1.0722994535273001 1.33974596215561 17.320508075688799 0  1.0672723170151699
 19.074971582357101 3 29.2756192747051 3
7 1 0  2 3 2  1.33974596215561 8.6602540378443909 15  1.0672723170151699 -1.56722395609299e-15 10.980762113533199 10.980762113533199  1.0722994535272901 -8.8817841970012504e-16 12.9903810567666 7.5  1
 8.8743238900090091 3 19.074971582357101 3
1 0 8.6602540378443909 15 1 0 0 
7 1 0  2 3 2  10 12.9903810567666 7.5  1 10 10.980762113533199 10.980762113533199  1.0722994535272901 8.6602540378443909 8.6602540378443909 15  1.0672723170151699
 19.074971582357101 3 29.2756192747051 3
7 1 0  2 3 2  8.6602540378443909 8.6602540378443909 -15  1.0672723170151699 10 10.980762113533199 -10.980762113533199  1.0722994535272901 10 12.9903810567666 -7.5  1
 8.8743238900090304 3 19.074971582357101 3
7 1 0  2 3 2  4.4408920985006301e-16 12.9903810567666 -7.5  1 -1.9443451747073099e-15 10.980762113533199 -10.980762113533199  1.0722994535272901 1.33974596215561 8.6602540378443909 -15  1.0672723170151699
 19.074971582357101 3 29.2756192747051 3
7 1 0  2 3 2  10 0 15  1 10 -4.0192378864668301 15  1.0722994535272901 8.6602540378443909 -8.6602540378443909 15  1.0672723170151699
 19.074971582357101 3 29.2756192747051 3
7 1 0  2 3 2  8.6602540378443909 8.6602540378443909 15  1.0672723170151699 10 4.0192378864668301 15  1.0722994535272901 10 0 15  1
 8.8743238900090393 3 19.074971582357101 3
7 1 0  2 3 2  4.4408920985006301e-16 0 15  1 -8.1298151886434299e-16 4.0192378864668399 15  1.0722994535272901 1.33974596215561 8.6602540378443909 15  1.0672723170151699
 19.074971582357101 3 29.2756192747051 3
7 1 0  2 3 2  1.33974596215561 -8.6602540378443909 15  1.0672723170151699 -8.1298151886434201e-16 -4.0192378864668399 15  1.0722994535272901 4.4408920985006301e-16 0 15  1
 8.8743238900090304 3 19.074971582357101 3
1 0 -8.6602540378443909 15 1 0 0 
7 1 0  2 3 2  10 -12.9903810567666 7.5  1 10 -15 4.0192378864668399  1.0722994535272901 8.6602540378443909 -17.320508075688799 0  1.0672723170151699
 19.074971582357101 3 29.2756192747051 3
7 1 0  2 3 2  8.6602540378443909 -8.6602540378443909 15  1.0672723170151699 10 -10.980762113533199 10.980762113533199  1.0722994535272901 10 -12.9903810567666 7.5  1
 8.8743238900090304 3 19.074971582357101 3
7 1 0  2 3 2  4.4408920985006301e-16 -12.9903810567666 7.5  1 -1.9443451747073099e-15 -10.980762113533199 10.980762113533199  1.0722994535272901 1.33974596215561 -8.6602540378443909 15  1.0672723170151699
 19.074971582357101 3 29.2756192747051 3
7 1 0  2 3 2  1.33974596215561 -17.320508075688799 0  1.0672723170151699 -6.9550335559294301e-16 -15 4.0192378864668497  1.0722994535272901 4.4408920985006301e-16 -12.9903810567666 7.5  1
 8.8743238900090304 3 19.074971582357101 3
1 0 -17.320508075688799 0 1 0 0 
7 1 0  2 3 2  10 -12.9903810567666 -7.5  1 10 -10.980762113533199 -10.980762113533199  1.0722994535272901 8.6602540378443909 -8.6602540378443909 -15  1.0672723170151699
 19.074971582357101 3 29.2756192747051 3
7 1 0  2 3 2  1.33974596215561 -8.6602540378443909 -15  1.0672723170151699 -1.56722395609299e-15 -10.980762113533199 -10.980762113533199  1.0722994535272901 -8.8817841970012504e-16 -12.9903810567666 -7.5  1
 8.8743238900090091 3 19.074971582357101 3
2 10 0 0 -1 0 0 0 1 -2.4492127076447501e-16 -0 -2.4492127076447501e-16 -1 15
2 10 0 0 -1 0 0 0 1 -2.4492127076447501e-16 -0 -2.4492127076447501e-16 -1 15
2 10 0 0 -1 0 0 0 1 -2.4492127076447501e-16 -0 -2.4492127076447501e-16 -1 15
2 10 0 0 -1 0 0 0 1 -2.4492127076447501e-16 -0 -2.4492127076447501e-16 -1 15
2 10 0 0 -1 0 0 0 1 -2.4492127076447501e-16 -0 -2.4492127076447501e-16 -1 15
2 10 0 0 -1 0 0 0 1 -2.4492127076447501e-16 -0 -2.4492127076447501e-16 -1 15
2 0 0 0 -1 0 0 0 1 -2.4492127076447501e-16 -0 -2.4492127076447501e-16 -1 15
2 0 0 0 -1 0 0 0 1 -2.4492127076447501e-16 -0 -2.4492127076447501e-16 -1 15
2 0 0 0 -1 0 0 0 1 -2.4492127076447501e-16 -0 -2.4492127076447501e-16 -1 15
2 0 0 0 -1 0 0 0 1 -2.4492127076447501e-16 -0 -2.4492127076447501e-16 -1 15
2 0 0 0 -1 0 0 0 1 -2.4492127076447501e-16 -0 -2.4492127076447501e-16 -1 15
2 0 0 0 -1 0 0 0 1 -2.4492127076447501e-16 -0 -2.4492127076447501e-16 -1 15
Polygon3D 0
PolygonOnTriangulations 0
Surfaces 30
3 2.5 0 0 1 -0 -0 0 1 -2.4492127076447501e-16 0 2.4492127076447501e-16 1 19.330127018922202
1.0471975511966001
3 2.5 0 0 1 -0 -0 0 1 -2.4492127076447501e-16 0 2.4492127076447501e-16 1 19.330127018922202
1.0471975511966001
1 0 8.6602540378443909 -15 0 -0.86602540378443882 0.49999999999999989 -1 0 0 -0 -0.49999999999999989 -0.86602540378443882 
1 0 7.5 -1.8369095307335698e-15 -1 0 0 0 0 1 0 1 -0 
3 2.5 0 0 1 -0 -0 0 1 -2.4492127076447501e-16 0 2.4492127076447501e-16 1 19.330127018922202
1.0471975511966001
3 2.5 0 0 1 -0 -0 0 1 -2.4492127076447501e-16 0 2.4492127076447501e-16 1 19.330127018922202
1.0471975511966001
1 0 -17.320508075688799 0 0 0.86602540378443882 0.49999999999999989 1 0 -0 -0 0.49999999999999989 -0.86602540378443882 
3 7.5 0 0 -1 -0 -0 0 1 -2.4492127076447501e-16 0 -2.4492127076447501e-16 -1 19.330127018922202
1.0471975511966001
3 7.5 0 0 -1 -0 -0 0 1 -2.4492127076447501e-16 0 -2.4492127076447501e-16 -1 19.330127018922202
1.0471975511966001
1 10 7.5 -1.8369095307335698e-15 1 0 0 0 1 -0 -0 0 1 
3 7.5 0 0 -1 -0 -0 0 1 -2.4492127076447501e-16 0 -2.4492127076447501e-16 -1 19.330127018922202
1.0471975511966001
3 7.5 0 0 -1 -0 -0 0 1 -2.4492127076447501e-16 0 -2.4492127076447501e-16 -1 19.330127018922202
1.0471975511966001
3 0.40600000000000003 0 0 -1 -0 -0 0 -2.4492127076447501e-16 -1 0 -1 2.4492127076447501e-16 9.5939999999999994
0.78539816339744795
2 5 0 0 1 0 0 0 -2.4492127076447501e-16 -1 0 1 -2.4492127076447501e-16 9.1880000000000006
3 0.40600000000000003 0 0 -1 -0 -0 0 -2.4492127076447501e-16 -1 0 -1 2.4492127076447501e-16 9.5939999999999994
0.78539816339744795
3 9.5939999999999994 0 0 1 -0 0 0 -2.4492127076447501e-16 -1 0 1 -2.4492127076447501e-16 9.5939999999999994
0.78539816339744795
2 5 0 0 1 0 0 0 -2.4492127076447501e-16 -1 0 1 -2.4492127076447501e-16 9.1880000000000006
3 9.5939999999999994 0 0 1 -0 0 0 -2.4492127076447501e-16 -1 0 1 -2.4492127076447501e-16 9.5939999999999994
0.78539816339744795
1 0 -8.6602540378443909 -15 0 0 1 1 -0 0 0 1 -0 
3 7.5 0 0 -1 -0 -0 0 1 -2.4492127076447501e-16 0 -2.4492127076447501e-16 -1 19.330127018922202
1.0471975511966001
3 2.5 0 0 1 -0 -0 0 1 -2.4492127076447501e-16 0 2.4492127076447501e-16 1 19.330127018922202
1.0471975511966001
3 2.5 0 0 1 -0 -0 0 1 -2.4492127076447501e-16 0 2.4492127076447501e-16 1 19.330127018922202
1.0471975511966001
3 7.5 0 0 -1 -0 -0 0 1 -2.4492127076447501e-16 0 -2.4492127076447501e-16 -1 19.330127018922202
1.0471975511966001
1 0 17.320508075688799 0 0 -0.86602540378443882 -0.49999999999999989 0 0.49999999999999989 -0.86602540378443882 1 0 0 
3 2.5 0 0 1 -0 -0 0 1 -2.4492127076447501e-16 0 2.4492127076447501e-16 1 19.330127018922202
1.0471975511966001
1 0 8.6602540378443909 15 0 0 -1 0 -1 0 -1 -0 -0 
3 7.5 0 0 -1 -0 -0 0 1 -2.4492127076447501e-16 0 -2.4492127076447501e-16 -1 19.330127018922202
1.0471975511966001
3 7.5 0 0 -1 -0 -0 0 1 -2.4492127076447501e-16 0 -2.4492127076447501e-16 -1 19.330127018922202
1.0471975511966001
3 2.5 0 0 1 -0 -0 0 1 -2.4492127076447501e-16 0 2.4492127076447501e-16 1 19.330127018922202
1.0471975511966001
1 0 -8.6602540378443909 15 0 0.86602540378443882 -0.49999999999999989 -1 0 0 0 0.49999999999999989 0.86602540378443882 
Triangulations 0

TShapes 164
Ve
1e-07
1.33974596215561 17.3205080756888 0
0 0

0101101
*
Ve
1e-07
0 15 -1.83690953073357e-15
0 0

0101101
*
Ed
 1e-07 1 1 0
1  1 0 2.32050807568876 5.00000000000001
2  1 1 0 2.32050807568876 5.00000000000001
2  2 2 0 2.32050807568876 5.00000000000001
4 CN 1 0 2 0
0

0101000
+164 0 -163 0 *
Ve
1e-07
4.44089209850063e-16 12.9903810567666 -7.5
0 0

0101101
*
Ed
 1e-07 1 1 0
1  2 0 8.87432389000903 19.0749715823571
2  3 1 0 8.87432389000903 19.0749715823571
4 C0 1 0 3 0
0

0101000
+164 0 -161 0 *
Ed
 1e-07 1 1 0
1  3 0 0 0.523598775598298
2  4 1 0 0 0.523598775598298
4 C0 1 0 4 0
0

0101000
+163 0 -161 0 *
Wi

0101100
-162 0 +160 0 -159 0 *
Fa
0  1e-07 1 0

0111000
+158 0 *
Ve
1e-07
0 -15 1.83690953073357e-15
0 0

0101101
*
Ve
1e-07
1.33974596215561 -17.3205080756888 0
0 0

0101101
*
Ed
 1e-07 1 1 0
1  4 0 -5.00000000000001 -2.32050807568876
2  5 5 0 -5.00000000000001 -2.32050807568876
2  6 6 0 -5.00000000000001 -2.32050807568876
4 CN 5 0 6 0
0

0101000
+156 0 -155 0 *
Ve
1e-07
-8.88178419700125e-16 -12.9903810567666 -7.5
0 0

0101101
*
Ed
 1e-07 1 1 0
1  5 0 2.61799387799149 3.14159265358979
2  7 5 0 2.61799387799149 3.14159265358979
4 C0 5 0 4 0
0

0101000
+153 0 -156 0 *
Ed
 1e-07 1 1 0
1  6 0 19.0749715823571 29.2756192747051
2  8 5 0 19.0749715823571 29.2756192747051
4 C0 5 0 7 0
0

0101000
+153 0 -155 0 *
Wi

0101100
-154 0 -152 0 +151 0 *
Fa
0  1e-07 5 0

0111000
+150 0 *
Ve
1e-07
10 15 -1.83690953073357e-15
0 0

0101101
*
Ve
1e-07
8.66025403784439 17.3205080756888 0
0 0

0101101
*
Ed
 1e-07 1 1 0
1  7 0 -5.00000000000001 -2.32050807568876
2  9 8 0 -5.00000000000001 -2.32050807568876
2  10 9 0 -5.00000000000001 -2.32050807568876
4 CN 8 0 9 0
0

0101000
+148 0 -147 0 *
Ve
1e-07
10 12.9903810567666 -7.5
0 0

0101101
*
Ed
 1e-07 1 1 0
1  8 0 0 0.523598775598298
2  11 8 0 0 0.523598775598298
4 C0 8 0 10 0
0

0101000
+148 0 -145 0 *
Ed
 1e-07 1 1 0
1  9 0 19.0749715823571 29.2756192747051
2  12 8 0 19.0749715823571 29.2756192747051
4 C0 8 0 3 0
0

0101000
+145 0 -147 0 *
Wi

0101100
-146 0 +144 0 +143 0 *
Fa
0  1e-07 8 0

0111000
+142 0 *
Ve
1e-07
8.66025403784439 -17.3205080756888 0
0 0

0101101
*
Ve
1e-07
10 -15 1.83690953073357e-15
0 0

0101101
*
Ed
 1e-07 1 1 0
1  10 0 2.32050807568876 5.00000000000001
2  13 11 0 2.32050807568876 5.00000000000001
2  14 12 0 2.32050807568876 5.00000000000001
4 CN 11 0 12 0
0

0101000
+140 0 -139 0 *
Ve
1e-07
10 -12.9903810567666 -7.5
0 0

0101101
*
Ed
 1e-07 1 1 0
1  11 0 8.87432389000903 19.0749715823571
2  15 11 0 8.87432389000903 19.0749715823571
4 C0 11 0 7 0
0

0101000
+140 0 -137 0 *
Ed
 1e-07 1 1 0
1  12 0 2.61799387799149 3.14159265358979
2  16 11 0 2.61799387799149 3.14159265358979
4 C0 11 0 10 0
0

0101000
+137 0 -139 0 *
Wi

0101100
-138 0 +136 0 +135 0 *
Fa
0  1e-07 11 0

0111000
+134 0 *
Ve
1e-07
0.811999999999999 -2.250336635784e-15 -9.188
0 0

0101101
*
Ve
1e-07
0.811999999999999 1.125168317892e-15 9.188
0 0

0101101
*
Ed
 1e-07 1 1 0
1  13 0 0 3.14159265358979
2  17 13 0 0 3.14159265358979
2  18 14 0 0 3.14159265358979
4 C0 13 0 14 0
0

0101000
+132 0 -131 0 *
Ve
1e-07
0 1.22460635382238e-15 10
0 0

0101101
*
Ed
 1e-07 1 1 0
1  14 0 -0.574170706323475 0.574170706323477
2  19 13 0 -0.574170706323475 0.574170706323477
2  20 15 0 -0.574170706323475 0.574170706323477
4 CN 13 0 15 0
0

0101000
+131 0 -129 0 *
Ve
1e-07
0 -2.44921270764475e-15 -10
0 0

0101101
*
Ed
 1e-07 1 1 0
1  15 0 3.14159265358979 6.28318530717959
2  21 13 0 3.14159265358979 6.28318530717959
4 C0 13 0 4 0
0

0101000
+129 0 -127 0 *
Ed
 1e-07 1 1 0
1  16 0 -0.574170706323477 0.574170706323475
2  22 13 0 -0.574170706323477 0.574170706323475
2  23 15 0 -0.574170706323477 0.574170706323475
4 CN 13 0 15 0
0

0101000
+127 0 -132 0 *
Wi

0101100
+130 0 +128 0 +126 0 +125 0 *
Fa
0  1e-07 13 0

0111000
+124 0 *
Ve
1e-07
9.188 -2.250336635784e-15 -9.188
0 0

0101101
*
Ve
1e-07
9.188 1.125168317892e-15 9.188
0 0

0101101
*
Ed
 1e-07 1 1 0
1  17 0 0 3.14159265358979
2  24 14 0 0 3.14159265358979
2  25 16 0 0 3.14159265358979
4 C0 14 0 16 0
0

0101000
+122 0 -121 0 *
Ed
 1e-07 1 1 0
1  18 0 -4.188 4.188
2  26 14 0 -4.188 4.188
2  27 17 0 -4.188 4.188
4 CN 14 0 17 0
0

0101000
+121 0 -131 0 *
Ed
 1e-07 1 1 0
1  19 0 -4.188 4.188
2  28 14 0 -4.188 4.188
2  29 17 0 -4.188 4.188
4 CN 14 0 17 0
0

0101000
+132 0 -122 0 *
Wi

0101100
+120 0 +119 0 -130 0 +118 0 *
Fa
0  1e-07 14 0

0111000
+117 0 *
Ve
1e-07
10 -2.44921270764475e-15 -10
0 0

0101101
*
Ve
1e-07
10 1.22460635382238e-15 10
0 0

0101101
*
Ed
 1e-07 1 1 0
1  20 0 0 3.14159265358979
2  30 16 0 0 3.14159265358979
4 C0 16 0 10 0
0

0101000
+115 0 -114 0 *
Ed
 1e-07 1 1 0
1  21 0 -0.574170706323477 0.574170706323475
2  31 16 0 -0.574170706323477 0.574170706323475
2  32 18 0 -0.574170706323477 0.574170706323475
4 CN 16 0 18 0
0

0101000
+114 0 -121 0 *
Ed
 1e-07 1 1 0
1  22 0 -0.574170706323475 0.574170706323477
2  33 16 0 -0.574170706323475 0.574170706323477
2  34 18 0 -0.574170706323475 0.574170706323477
4 CN 16 0 18 0
0

0101000
+122 0 -115 0 *
Wi

0101100
+113 0 +112 0 -120 0 +111 0 *
Fa
0  1e-07 16 0

0111000
+110 0 *
Ed
 1e-07 1 1 0
1  23 0 3.14159265358979 6.28318530717959
2  35 18 0 3.14159265358979 6.28318530717959
2  36 17 0 3.14159265358979 6.28318530717959
4 C0 18 0 17 0
0

0101000
+121 0 -122 0 *
Ed
 1e-07 1 1 0
1  24 0 3.14159265358979 6.28318530717959
2  37 18 0 3.14159265358979 6.28318530717959
4 C0 18 0 10 0
0

0101000
+114 0 -115 0 *
Wi

0101100
-108 0 -112 0 +107 0 -111 0 *
Fa
0  1e-07 18 0

0111000
+106 0 *
Ed
 1e-07 1 1 0
1  25 0 3.14159265358979 6.28318530717959
2  38 17 0 3.14159265358979 6.28318530717959
2  39 15 0 3.14159265358979 6.28318530717959
4 C0 17 0 15 0
0

0101000
+131 0 -132 0 *
Wi

0101100
-104 0 -119 0 +108 0 -118 0 *
Fa
0  1e-07 17 0

0111000
+103 0 *
Ed
 1e-07 1 1 0
1  26 0 0 3.14159265358979
2  40 15 0 0 3.14159265358979
4 C0 15 0 4 0
0

0101000
+127 0 -129 0 *
Wi

0101100
+101 0 -128 0 +104 0 -125 0 *
Fa
0  1e-07 15 0

0111000
+100 0 *
Ve
1e-07
8.66025403784439 -8.66025403784439 -15
0 0

0101101
*
Ve
1e-07
10 0 -15
0 0

0101101
*
Ed
 1e-07 1 1 0
1  27 0 8.87432389000904 19.0749715823571
2  41 20 0 8.87432389000904 19.0749715823571
4 C0 19 0 20 0
0

0101000
+98 0 -97 0 *
Ve
1e-07
1.33974596215561 -8.66025403784439 -15
0 0

0101101
*
Ed
 1e-07 1 1 0
1  28 0 1.33974596215561 8.66025403784439
4 C0 19 0 7 0
0

0101000
+95 0 -98 0 *
Ve
1e-07
4.44089209850063e-16 0 -15
0 0

0101101
*
Ed
 1e-07 1 1 0
1  29 0 19.0749715823571 29.2756192747051
2  42 21 0 19.0749715823571 29.2756192747051
4 C0 19 0 21 0
0

0101000
+93 0 -95 0 *
Ve
1e-07
1.33974596215561 8.66025403784439 -15
0 0

0101101
*
Ed
 1e-07 1 1 0
1  30 0 8.87432389000903 19.0749715823571
2  43 22 0 8.87432389000903 19.0749715823571
4 C0 19 0 22 0
0

0101000
+91 0 -93 0 *
Ve
1e-07
8.66025403784439 8.66025403784439 -15
0 0

0101101
*
Ed
 1e-07 1 1 0
1  31 0 1.33974596215561 8.66025403784439
4 C0 19 0 3 0
0

0101000
+91 0 -89 0 *
Ed
 1e-07 1 1 0
1  32 0 19.0749715823571 29.2756192747051
2  44 23 0 19.0749715823571 29.2756192747051
4 C0 19 0 23 0
0

0101000
+97 0 -89 0 *
Wi

0101100
-96 0 -94 0 -92 0 -90 0 +88 0 -87 0 *
Fa
0  1e-07 19 0

0111000
-86 0 *
Ve
1e-07
10 12.9903810567666 7.5
0 0

0101101
*
Ed
 1e-07 1 1 0
1  33 0 8.87432389000903 19.0749715823571
2  45 9 0 8.87432389000903 19.0749715823571
4 C0 24 0 9 0
0

0101000
+147 0 -84 0 *
Ed
 1e-07 1 1 0
1  34 0 1.33974596215561 8.66025403784439
4 C0 24 0 3 0
0

0101000
+164 0 -147 0 *
Ve
1e-07
-8.88178419700125e-16 12.9903810567666 7.5
0 0

0101101
*
Ed
 1e-07 1 1 0
1  35 0 19.0749715823571 29.2756192747051
2  46 2 0 19.0749715823571 29.2756192747051
4 C0 24 0 2 0
0

0101000
+81 0 -164 0 *
Ve
1e-07
1.33974596215561 8.66025403784439 15
0 0

0101101
*
Ed
 1e-07 1 1 0
1  36 0 8.87432389000901 19.0749715823571
2  47 25 0 8.87432389000901 19.0749715823571
4 C0 24 0 25 0
0

0101000
+79 0 -81 0 *
Ve
1e-07
8.66025403784439 8.66025403784439 15
0 0

0101101
*
Ed
 1e-07 1 1 0
1  37 0 1.33974596215561 8.66025403784439
4 C0 24 0 26 0
0

0101000
+79 0 -77 0 *
Ed
 1e-07 1 1 0
1  38 0 19.0749715823571 29.2756192747051
2  48 27 0 19.0749715823571 29.2756192747051
4 C0 24 0 27 0
0

0101000
+84 0 -77 0 *
Wi

0101100
-83 0 -82 0 -80 0 -78 0 +76 0 -75 0 *
Fa
0  1e-07 24 0

0111000
-74 0 *
Ed
 1e-07 1 1 0
1  39 0 8.87432389000903 19.0749715823571
2  49 23 0 8.87432389000903 19.0749715823571
4 C0 3 0 23 0
0

0101000
+89 0 -145 0 *
Ed
 1e-07 1 1 0
1  40 0 19.0749715823571 29.2756192747051
2  50 22 0 19.0749715823571 29.2756192747051
4 C0 3 0 22 0
0

0101000
+161 0 -91 0 *
Wi

0101100
-72 0 -88 0 -71 0 -160 0 +82 0 -143 0 *
Fa
0  1e-07 3 0

0111000
-70 0 *
Ve
1e-07
10 0 15
0 0

0101101
*
Ve
1e-07
8.66025403784439 -8.66025403784439 15
0 0

0101101
*
Ed
 1e-07 1 1 0
1  41 0 19.0749715823571 29.2756192747051
2  51 28 0 19.0749715823571 29.2756192747051
4 C0 26 0 28 0
0

0101000
+68 0 -67 0 *
Ed
 1e-07 1 1 0
1  42 0 8.87432389000904 19.0749715823571
2  52 27 0 8.87432389000904 19.0749715823571
4 C0 26 0 27 0
0

0101000
+77 0 -68 0 *
Ve
1e-07
4.44089209850063e-16 0 15
0 0

0101101
*
Ed
 1e-07 1 1 0
1  43 0 19.0749715823571 29.2756192747051
2  53 25 0 19.0749715823571 29.2756192747051
4 C0 26 0 25 0
0

0101000
+64 0 -79 0 *
Ve
1e-07
1.33974596215561 -8.66025403784439 15
0 0

0101101
*
Ed
 1e-07 1 1 0
1  44 0 8.87432389000903 19.0749715823571
2  54 29 0 8.87432389000903 19.0749715823571
4 C0 26 0 29 0
0

0101000
+62 0 -64 0 *
Ed
 1e-07 1 1 0
1  45 0 1.33974596215561 8.66025403784439
4 C0 26 0 30 0
0

0101000
+62 0 -67 0 *
Wi

0101100
-66 0 -65 0 -76 0 -63 0 -61 0 +60 0 *
Fa
0  1e-07 26 0

0111000
-59 0 *
Ve
1e-07
10 -12.9903810567666 7.5
0 0

0101101
*
Ed
 1e-07 1 1 0
1  46 0 19.0749715823571 29.2756192747051
2  55 12 0 19.0749715823571 29.2756192747051
4 C0 30 0 12 0
0

0101000
+57 0 -140 0 *
Ed
 1e-07 1 1 0
1  47 0 8.87432389000903 19.0749715823571
2  56 28 0 8.87432389000903 19.0749715823571
4 C0 30 0 28 0
0

0101000
+67 0 -57 0 *
Ve
1e-07
4.44089209850063e-16 -12.9903810567666 7.5
0 0

0101101
*
Ed
 1e-07 1 1 0
1  48 0 19.0749715823571 29.2756192747051
2  57 29 0 19.0749715823571 29.2756192747051
4 C0 30 0 29 0
0

0101000
+54 0 -62 0 *
Ed
 1e-07 1 1 0
1  49 0 8.87432389000903 19.0749715823571
2  58 6 0 8.87432389000903 19.0749715823571
4 C0 30 0 6 0
0

0101000
+155 0 -54 0 *
Ed
 1e-07 1 1 0
1  50 0 1.33974596215561 8.66025403784439
4 C0 30 0 7 0
0

0101000
+155 0 -140 0 *
Wi

0101100
-56 0 -55 0 -60 0 -53 0 -52 0 +51 0 *
Fa
0  1e-07 30 0

0111000
-50 0 *
Ed
 1e-07 1 1 0
1  51 0 19.0749715823571 29.2756192747051
2  59 20 0 19.0749715823571 29.2756192747051
4 C0 7 0 20 0
0

0101000
+137 0 -98 0 *
Ed
 1e-07 1 1 0
1  52 0 8.87432389000901 19.0749715823571
2  60 21 0 8.87432389000901 19.0749715823571
4 C0 7 0 21 0
0

0101000
+95 0 -153 0 *
Wi

0101100
-48 0 -136 0 -51 0 -151 0 -47 0 +94 0 *
Fa
0  1e-07 7 0

0111000
-46 0 *
Ed
 1e-07 1 1 0
1  53 0 3.66519142918809 4.71238898038469
2  61 28 0 3.66519142918809 4.71238898038469
4 C0 28 0 10 0
0

0101000
+57 0 -68 0 *
Wi

0101100
+55 0 +44 0 +66 0 *
Fa
0  1e-07 28 0

0111000
+43 0 *
Ed
 1e-07 1 1 0
1  54 0 3.14159265358979 3.66519142918809
2  62 12 0 3.14159265358979 3.66519142918809
4 C0 12 0 10 0
0

0101000
+139 0 -57 0 *
Wi

0101100
+138 0 +41 0 +56 0 *
Fa
0  1e-07 12 0

0111000
+40 0 *
Ed
 1e-07 1 1 0
1  55 0 1.5707963267949 2.61799387799149
2  63 20 0 1.5707963267949 2.61799387799149
4 C0 20 0 10 0
0

0101000
+97 0 -137 0 *
Wi

0101100
+96 0 +38 0 +48 0 *
Fa
0  1e-07 20 0

0111000
+37 0 *
Ed
 1e-07 1 1 0
1  56 0 0.523598775598298 1.5707963267949
2  64 23 0 0.523598775598298 1.5707963267949
4 C0 23 0 10 0
0

0101000
+145 0 -97 0 *
Wi

0101100
+87 0 +72 0 +35 0 *
Fa
0  1e-07 23 0

0111000
+34 0 *
Ed
 1e-07 1 1 0
1  57 0 5.75958653158129 6.28318530717959
2  65 9 0 5.75958653158129 6.28318530717959
4 C0 9 0 10 0
0

0101000
+84 0 -148 0 *
Wi

0101100
+146 0 +83 0 +32 0 *
Fa
0  1e-07 9 0

0111000
+31 0 *
Ed
 1e-07 1 1 0
1  58 0 4.71238898038469 5.75958653158129
2  66 27 0 4.71238898038469 5.75958653158129
4 C0 27 0 10 0
0

0101000
+68 0 -84 0 *
Wi

0101100
+75 0 +65 0 +29 0 *
Fa
0  1e-07 27 0

0111000
+28 0 *
Ed
 1e-07 1 1 0
1  59 0 0.523598775598298 1.5707963267949
2  67 22 0 0.523598775598298 1.5707963267949
4 C0 22 0 4 0
0

0101000
+161 0 -93 0 *
Wi

0101100
+90 0 -26 0 +71 0 *
Fa
0  1e-07 22 0

0111000
+25 0 *
Ed
 1e-07 1 1 0
1  60 0 1.5707963267949 2.61799387799149
2  68 21 0 1.5707963267949 2.61799387799149
4 C0 21 0 4 0
0

0101000
+93 0 -153 0 *
Wi

0101100
+47 0 -23 0 +92 0 *
Fa
0  1e-07 21 0

0111000
+22 0 *
Ed
 1e-07 1 1 0
1  61 0 3.14159265358979 3.66519142918809
2  69 6 0 3.14159265358979 3.66519142918809
4 C0 6 0 4 0
0

0101000
+156 0 -54 0 *
Wi

0101100
+154 0 +52 0 -20 0 *
Fa
0  1e-07 6 0

0111000
+19 0 *
Ed
 1e-07 1 1 0
1  62 0 3.66519142918809 4.71238898038469
2  70 29 0 3.66519142918809 4.71238898038469
4 C0 29 0 4 0
0

0101000
+54 0 -64 0 *
Wi

0101100
+53 0 +61 0 -17 0 *
Fa
0  1e-07 29 0

0111000
+16 0 *
Ed
 1e-07 1 1 0
1  63 0 4.71238898038469 5.75958653158129
2  71 25 0 4.71238898038469 5.75958653158129
4 C0 25 0 4 0
0

0101000
+64 0 -81 0 *
Wi

0101100
+63 0 +78 0 -14 0 *
Fa
0  1e-07 25 0

0111000
+13 0 *
Ed
 1e-07 1 1 0
1  64 0 5.75958653158129 6.28318530717959
2  72 2 0 5.75958653158129 6.28318530717959
4 C0 2 0 4 0
0

0101000
+81 0 -163 0 *
Wi

0101100
+162 0 -11 0 +80 0 *
Fa
0  1e-07 2 0

0111000
+10 0 *
Wi

0101100
-32 0 -29 0 -44 0 -41 0 -135 0 -38 0 -35 0 -144 0 *
Wi

0101100
+113 0 +107 0 *
Fa
0  1e-07 10 0

0111000
+8 0 +7 0 *
Wi

0101100
+11 0 +159 0 +26 0 +23 0 +152 0 +20 0 +17 0 +14 0 *
Wi

0101100
+101 0 +126 0 *
Fa
0  1e-07 4 0

0111000
+5 0 +4 0 *
Sh

0101100
+157 0 +149 0 +141 0 +133 0 -123 0 -116 0 -109 0 -105 0 -102 0 -99 0 
-85 0 -73 0 -69 0 -58 0 -49 0 -45 0 +42 0 +39 0 +36 0 +33 0 
+30 0 +27 0 +24 0 +21 0 +18 0 +15 0 +12 0 +9 0 +6 0 +3 0 
*
So

0100000
+2 0 *

+1 0 