DBRep_DrawableShape

CASCADE Topology V1, (c) Matra-Datavision
Locations 0
Curve2ds 62
1 0 -4.7123889803846897 0 1 
1 6.2831853071795862 -4.7123889803846897 0 1 
7 0 0  3 25 23  0 -0.69822247336255572  0.0076642648673264091 -0.69822247336255561  0.022992794601979227 -0.69822247336255561  0.045985589203958448 -0.69822247336255594  0.068978383805937696 -0.69822247336255572  0.091971178407916895 -0.69822247336255572  0.11496397300989614 -0.69822247336255572  0.13795676761187536 -0.69822247336255572  0.16094956221385456 -0.69822247336255538  0.18394235681583385 -0.69822247336255572  0.20693515141781307 -0.69822247336255561  0.22992794601979222 -0.69822247336255572  0.2529207406217715 -0.69822247336255572  0.27591353522375067 -0.69822247336255538  0.29890632982572996 -0.69822247336255605  0.32189912442770913 -0.69822247336255538  0.34489191902968835 -0.69822247336255572  0.36788471363166758 -0.69822247336255605  0.39087750823364681 -0.6982224733625555  0.41387030283562609 -0.69822247336255594  0.43686309743760526 -0.69822247336255561  0.45985589203958455 -0.69822247336255572  0.48284868664156383 -0.69822247336255572  0.49817721637621659 -0.69822247336255572  0.505841481243543 -0.69822247336255572 
 4.7123889803846897 4 4.7353817749866689 1 4.7583745695886481 1 4.7813673641906274 1 4.8043601587926066 1 4.8273529533945858 1 4.850345747996565 1 4.8733385425985443 1 4.8963313372005235 1 4.9193241318025027 1 4.9423169264044819 1 4.9653097210064612 1 4.9883025156084404 1 5.0112953102104196 1 5.0342881048123989 1 5.0572808994143781 1 5.0802736940163573 1 5.1032664886183365 1 5.1262592832203158 1 5.149252077822295 1 5.1722448724242742 1 5.1952376670262534 1 5.2182304616282327 4
7 0 0  3 25 23  0.50584148124354156 -0.69822247336255538  0.50810839123066975 -0.68661000046597243  0.51295419591904745 -0.66342890543147326  0.52110811328749496 -0.62880797708734648  0.53009245959056173 -0.59435701916732542  0.53986658500870677 -0.56009495789087882  0.55039704513205723 -0.52604075311764031  0.56165779649213021 -0.4922135156700167  0.57362879373126729 -0.45863266380849049  0.58629525777660974 -0.4253180486303535  0.59964695486626585 -0.39229007191056425  0.61367762249040059 -0.35956979359294489  0.62838447340179548 -0.32717903225958078  0.64376777010865749 -0.29514045952356827  0.65983045065191404 -0.26347768930164867  0.67657779321024114 -0.23221536242444657  0.69401710806138128 -0.20137922656938734  0.71215744715955887 -0.17099621167591997  0.73100932314597422 -0.14109449870131879  0.75058442892952681 -0.11170358659278397  0.77089535583624691 -0.082854334577445773  0.79195528618242517 -0.054579058917078031  0.81377772182181995 -0.026911380788499542  0.8288432361546797 -0.0088950920804178844  0.8365075292153995 -6.3441315692865801e-17 
 4.2065474991411484 4 4.2525330883451069 1 4.2985186775490654 1 4.3445042667530238 1 4.3904898559569814 1 4.4364754451609398 1 4.4824610343648983 1 4.5284466235688567 1 4.5744322127728152 1 4.6204178019767737 1 4.6664033911807321 1 4.7123889803846897 1 4.7583745695886481 1 4.8043601587926066 1 4.850345747996565 1 4.8963313372005235 1 4.9423169264044819 1 4.9883025156084404 1 5.0342881048123989 1 5.0802736940163573 1 5.1262592832203149 1 5.1722448724242733 1 5.2182304616282318 4
7 0 0  3 25 23  0.83650752921540017 -7.6129578831438966e-16  0.82884323615468036 0.0088950920804171021  0.81377772182182051 0.026911380788498793  0.79195528618242583 0.054579058917077462  0.77089535583624713 0.082854334577445343  0.75058442892952693 0.11170358659278375  0.73100932314597478 0.14109449870131835  0.7121574471595592 0.1709962116759193  0.69401710806138184 0.20137922656938653  0.6765777932102417 0.23221536242444582  0.65983045065191426 0.26347768930164772  0.64376777010865771 0.29514045952356727  0.62838447340179593 0.32717903225958034  0.61367762249040059 0.35956979359294422  0.59964695486626629 0.39229007191056403  0.58629525777660962 0.42531804863035316  0.57362879373126763 0.45863266380849022  0.56165779649213032 0.49221351567001587  0.55039704513205745 0.5260407531176392  0.53986658500870721 0.56009495789087838  0.53009245959056162 0.59435701916732464  0.52110811328749507 0.62880797708734637  0.51295419591904767 0.66342890543147304  0.50810839123066964 0.68661000046597209  0.50584148124354156 0.69822247336255516 
 4.2065474991411467 4 4.2525330883451051 1 4.2985186775490636 1 4.344504266753022 1 4.3904898559569805 1 4.4364754451609389 1 4.4824610343648965 1 4.528446623568855 1 4.5744322127728134 1 4.6204178019767719 1 4.6664033911807303 1 4.7123889803846888 1 4.7583745695886472 1 4.8043601587926057 1 4.8503457479965641 1 4.8963313372005226 1 4.9423169264044802 1 4.9883025156084386 1 5.0342881048123971 1 5.0802736940163555 1 5.126259283220314 1 5.1722448724242724 1 5.2182304616282309 4
1 4.7123889803846897 0.69822247336255672 -1 -2.1948042337212492e-16 
1 0 -4.7123889803846897 0 1 
1 6.2831853071795862 -4.7123889803846897 0 1 
7 0 0  3 25 23  0 0.44291104407364035  0.022595758028994214 0.44293595904271682  0.067726615359339729 0.4396660498579073  0.13348476256145222 0.42529545108157185  0.1954364940382072 0.40184706445196311  0.25210593298281436 0.37007821039864042  0.30237095514923645 0.33090286006334896  0.34547976853725071 0.2853568006125406  0.38098449691402714 0.23452625160838489  0.40866156535557918 0.17950723180676811  0.42842935816679123 0.12137997629051478  0.44027950413804545 0.061199934544194437  0.44422681404143799 1.0040063496755218e-16  0.44027950413804545 -0.061199934544194222  0.42842935816679134 -0.12137997629051463  0.40866156535557935 -0.17950723180676792  0.38098449691402714 -0.23452625160838467  0.34547976853725093 -0.28535680061254054  0.30237095514923656 -0.33090286006334863  0.25210593298281453 -0.37007821039864047  0.1954364940382074 -0.40184706445196305  0.13348476256145245 -0.42529545108157174  0.067726615359340006 -0.43966604985790741  0.022595758028994349 -0.44293595904271671  0 -0.44291104407364035 
 4.7123889803846897 4 4.8551886464569529 1 4.9979883125292162 1 5.1407879786014794 1 5.2835876446737426 1 5.4263873107460068 1 5.5691869768182691 1 5.7119866428905333 1 5.8547863089627965 1 5.9975859750350597 1 6.140385641107323 1 6.2831853071795862 1 6.4259849732518495 1 6.5687846393241127 1 6.711584305396376 1 6.8543839714686392 1 6.9971836375409033 1 7.1399833036131657 1 7.2827829696854298 1 7.4255826357576931 1 7.5683823018299563 1 7.7111819679022195 1 7.8539816339744828 4
1 6.2831853071795862 -4.4408920985006262e-16 0 -1 
1 0 -4.4408920985006262e-16 0 -1 
7 0 0  3 25 23  6.2831853071795862 0.35836335801941754  6.2758873287197163 0.3356976748873966  6.2612241562614912 0.29158787862378921  6.2390306062245964 0.22899867283517586  6.2166410236323424 0.16989276724532099  6.1940585049299708 0.11418835799355877  6.1712863722310116 0.061809989668106406  6.1483282069208727 0.012689227495424879  6.1251878434536007 -0.033235886243340042  6.1018693729645079 -0.076021007234127261  6.0783771433513225 -0.11571572270919325  6.0547157593521499 -0.152363731355243  6.0308900816301003 -0.1860030014923523  6.0069052250894668 -0.21666590049950546  5.9827665563263013 -0.24437929863423358  5.9584796902119752 -0.26916464723896322  5.9340504855726355 -0.29103803240798931  5.9094850400025836 -0.31001020270023072  5.88478968361472 -0.32608657706856464  5.8599709724291253 -0.3392672100464228  5.8350356787779338 -0.34954679888565815  5.8099907885354529 -0.35691441455130402  5.7848434686199699 -0.36135414063166138  5.7680152503877204 -0.36234617820400439  5.7595865315812871 -0.36234666314353148 
 0.0069308370362208497 4 0.12543409920660217 1 0.24393736137698352 1 0.36244062354736484 1 0.48094388571774616 1 0.59944714788812758 1 0.7179504100585089 1 0.83645367222889022 1 0.95495693439927154 1 1.0734601965696529 1 1.1919634587400343 1 1.3104667209104155 1 1.4289699830807969 1 1.5474732452511781 1 1.6659765074215596 1 1.7844797695919408 1 1.9029830317623222 1 2.0214862939327034 1 2.1399895561030848 1 2.2584928182734663 1 2.3769960804438477 1 2.4954993426142287 1 2.6140026047846101 4
1 6.2831853071795862 -0.36234666314352804 -1 0 
1 3.1415926535897931 1.1102230246251565e-16 0 1 
1 3.1415926535897931 1.1102230246251565e-16 0 1 
1 6.2831853071795862 -0.36234666314352804 -1 0 
7 0 0  3 25 23  3.6651914291880923 -0.36234666314353148  3.6567627103816571 -0.36234617820400439  3.6399344921494055 -0.36135414063166138  3.6147871722339167 -0.35691441455130385  3.5897422819914326 -0.34954679888565665  3.5648069883402416 -0.33926721004641752  3.539988277154642 -0.32608657706855776  3.5152929207667776 -0.31001020270022195  3.4907274751967252 -0.29103803240797466  3.4662982705573815 -0.26916464723894623  3.442011404443059 -0.24437929863421462  3.4178727356798899 -0.21666590049948486  3.393887879139259 -0.18600300149232787  3.3700622014172099 -0.15236373135521705  3.3464008174180382 -0.11571572270916793  3.3229085878048537 -0.076021007234099935  3.2995901173157614 -0.033235886243312161  3.2764497538484929 0.012689227495448067  3.2534915885383562 0.061809989668129894  3.2307194558393983 0.11418835799358047  3.2081369371370299 0.16989276724533925  3.1857473545447772 0.22899867283518616  3.1635538045078881 0.29158787862379659  3.1488906320496621 0.33569767488739988  3.1415926535897931 0.35836335801941754 
 2.6140026047846101 4 2.7325058669550124 1 2.8510091291254147 1 2.969512391295817 1 3.0880156534662193 1 3.2065189156366216 1 3.3250221778070239 1 3.4435254399774258 1 3.5620287021478281 1 3.6805319643182304 1 3.7990352264886327 1 3.917538488659035 1 4.0360417508294368 1 4.15454501299984 1 4.2730482751702414 1 4.3915515373406437 1 4.510054799511046 1 4.6285580616814483 1 4.7470613238518506 1 4.8655645860222529 1 4.9840678481926552 1 5.1025711103630575 1 5.2210743725334599 4
1 0 -0.30617723625377496 1 0 
1 6.2831853071795862 -3.3170000000000002 -1 0 
1 3.1415926535897931 0 0 1 
1 3.1415926535897931 0 0 1 
1 6.2831853071795862 0.30617723625377496 -1 0 
1 0 0 0 -1 
1 6.2831853071795862 0 0 -1 
1 6.2831853071795862 3.3170000000000002 -1 0 
1 6.2831853071795862 -0.30617723625377502 -1 0 
1 3.1415926535897931 0 0 -1 
1 3.1415926535897931 0 0 -1 
1 6.2831853071795862 0 0 1 
1 0 0 0 1 
1 6.2831853071795862 0.306177236253795 -1 -5.0888874903416267e-15 
1 3.1415926535897931 -1.1102230246251565e-16 0 -1 
1 3.1415926535897931 -1.1102230246251565e-16 0 -1 
1 6.2831853071795862 0 0 1 
1 0 0 0 1 
1 6.2831853071795862 -0.30617723625377502 -1 0 
1 6.2831853071795862 3.3170000000000002 -1 0 
1 6.2831853071795862 0.30617723625376303 -1 5.0888874903416267e-15 
1 6.2831853071795862 -3.3170000000000002 -1 0 
1 0 -0.30617723625377496 1 0 
1 6.2831853071795862 0.30617723625377496 -1 0 
1 1.5707963267948966 -0.69822247336255672 1 2.1948042337212502e-16 
7 0 0  3 25 23  4.7123889803846897 -0.36234666314352804  4.7039602615782545 -0.36234617820400095  4.6871320433460042 -0.36135414063165783  4.661984723430515 -0.35691441455130052  4.6369398331880305 -0.3495467988856536  4.6120045395368381 -0.33926721004641358  4.587185828351239 -0.32608657706855737  4.5624904719633745 -0.31001020270021845  4.5379250263933226 -0.29103803240797488  4.5134958217539793 -0.26916464723894512  4.4892089556396551 -0.24437929863421134  4.465070286876486 -0.21666590049948345  4.4410854303358551 -0.18600300149232535  4.4172597526138064 -0.15236373135521716  4.3935983686146338 -0.11571572270916337  4.3701061390014502 -0.076021007234096064  4.3467876685123583 -0.033235886243310225  4.3236473050450881 0.012689227495453296  4.3006891397349527 0.061809989668134134  4.2779170070359953 0.11418835799358304  4.2553344883336273 0.16989276724534538  4.2329449057413733 0.22899867283519004  4.2107513557044847 0.29158787862379965  4.1960881832462587 0.33569767488740299  4.1887902047863896 0.35836335801942099 
 2.6140026047846101 4 2.7325058669550124 1 2.8510091291254147 1 2.969512391295817 1 3.0880156534662193 1 3.2065189156366216 1 3.3250221778070239 1 3.4435254399774258 1 3.5620287021478281 1 3.6805319643182304 1 3.7990352264886327 1 3.917538488659035 1 4.0360417508294368 1 4.15454501299984 1 4.2730482751702414 1 4.3915515373406437 1 4.510054799511046 1 4.6285580616814483 1 4.7470613238518506 1 4.8655645860222529 1 4.9840678481926552 1 5.1025711103630575 1 5.2210743725334599 4
7 0 0  3 25 23  5.2359877559829897 0.35836335801942099  5.2286897775231207 0.33569767488739988  5.2140266050648911 0.29158787862379237  5.191833055027999 0.22899867283517999  5.1694434724357459 0.16989276724532454  5.1468609537333734 0.11418835799356322  5.1240888210344151 0.061809989668108335  5.1011306557242753 0.012689227495425616  5.0779902922570033 -0.03323588624333567  5.0546718217679132 -0.076021007234127275  5.0311795921547242 -0.11571572270919103  5.0075182081555543 -0.15236373135524275  4.983692530433502 -0.18600300149235069  4.9597076738928711 -0.2166659004995054  4.9355690051297003 -0.24437929863423208  4.9112821390153796 -0.26916464723896377  4.8868529343760381 -0.2910380324079887  4.8622874888059862 -0.31001020270023122  4.8375921324181217 -0.3260865770685647  4.8127734212325262 -0.33926721004642041  4.7878381275813373 -0.34954679888565754  4.7627932373388564 -0.35691441455130235  4.7376459174233707 -0.36135414063165866  4.720817699191123 -0.36234617820400117  4.7123889803846897 -0.36234666314352804 
 0.0069308370362212903 4 0.12543409920660259 1 0.24393736137698391 1 0.36244062354736517 1 0.48094388571774649 1 0.59944714788812781 1 0.71795041005850913 1 0.83645367222889044 1 0.95495693439927176 1 1.0734601965696531 1 1.1919634587400343 1 1.3104667209104157 1 1.4289699830807969 1 1.5474732452511784 1 1.6659765074215596 1 1.784479769591941 1 1.9029830317623222 1 2.0214862939327034 1 2.1399895561030848 1 2.2584928182734663 1 2.3769960804438472 1 2.4954993426142287 1 2.6140026047846101 4
7 0 0  3 25 23  0.52359877559829926 -0.36234666314353148  0.5151700567918639 -0.36234617820400428  0.49834183855961356 -0.36135414063166132  0.4731945186441241 -0.35691441455130413  0.44814962840163947 -0.34954679888565554  0.42321433475044817 -0.33926721004641647  0.39839562356484931 -0.32608657706855815  0.37370026717698468 -0.31001020270022139  0.34913482160693271 -0.29103803240797627  0.32470561696758865 -0.26916464723894568  0.30041875085326608 -0.24437929863421506  0.27628008209009741 -0.21666590049948375  0.25229522554946548 -0.18600300149232679  0.22846954782741719 -0.15236373135521744  0.20480816382824515 -0.11571572270916752  0.18131593421506009 -0.076021007234101087  0.1579974637259694 -0.033235886243313105  0.13485710025869996 0.012689227495447852  0.11189893494856334 0.061809989668131698  0.089126802249605952 0.11418835799357863  0.066544283547237584 0.16989276724533975  0.044154700954984596 0.22899867283518602  0.021961150918094655 0.29158787862379659  0.0072979784598682972 0.33569767488739988  0 0.35836335801941754 
 2.6140026047846101 4 2.7325058669550124 1 2.8510091291254147 1 2.969512391295817 1 3.0880156534662193 1 3.2065189156366216 1 3.3250221778070239 1 3.4435254399774258 1 3.5620287021478281 1 3.6805319643182304 1 3.7990352264886327 1 3.917538488659035 1 4.0360417508294368 1 4.15454501299984 1 4.2730482751702414 1 4.3915515373406437 1 4.510054799511046 1 4.6285580616814483 1 4.7470613238518506 1 4.8655645860222529 1 4.9840678481926552 1 5.1025711103630575 1 5.2210743725334599 4
7 0 0  3 25 23  1.047197551196597 0.35836335801942099  1.0398995727367282 0.33569767488740077  1.0252364002784997 0.29158787862379282  1.0030428502416082 0.22899867283517714  0.98065326764935257 0.16989276724532548  0.95807074894698196 0.11418835799356233  0.93529861624802235 0.061809989668105844  0.91234045093788418 0.012689227495426074  0.88920008747061308 -0.033235886243340153  0.86588161698152066 -0.076021007234125165  0.84238938736833435 -0.11571572270919495  0.81872800336916118 -0.15236373135524481  0.79490232564711216 -0.18600300149235402  0.77091746910647962 -0.21666590049950557  0.74677880034331123 -0.24437929863423569  0.72249193422898883 -0.26916464723896383  0.69806272958964533 -0.2910380324079912  0.67349728401959541 -0.31001020270023349  0.64880192763173172 -0.32608657706856503  0.62398321644613586 -0.33926721004642429  0.59904792279494656 -0.34954679888565982  0.57400303255246599 -0.35691441455130463  0.5488557126369803 -0.3613541406316626  0.53202749440473296 -0.36234617820400511  0.52359877559829926 -0.36234666314353148 
 0.0069308370362221004 4 0.12543409920660337 1 0.24393736137698463 1 0.36244062354736589 1 0.48094388571774715 1 0.59944714788812836 1 0.71795041005850968 1 0.836453672228891 1 0.95495693439927221 1 1.0734601965696533 1 1.1919634587400345 1 1.3104667209104159 1 1.4289699830807971 1 1.5474732452511784 1 1.6659765074215598 1 1.784479769591941 1 1.9029830317623222 1 2.0214862939327038 1 2.1399895561030848 1 2.2584928182734663 1 2.3769960804438472 1 2.4954993426142287 1 2.6140026047846101 4
7 0 0  3 25 23  5.7595865315812871 -0.36234666314353148  5.7511578127748519 -0.36234617820400389  5.7343295945425998 -0.36135414063166005  5.7091822746271115 -0.35691441455130168  5.684137384384627 -0.34954679888565521  5.6592020907334346 -0.33926721004641636  5.6343833795478373 -0.32608657706855504  5.6096880231599719 -0.31001020270022001  5.5851225775899209 -0.29103803240797482  5.5606933729505759 -0.26916464723894384  5.5364065068362533 -0.24437929863421368  5.5122678380730852 -0.21666590049948212  5.4882829815324525 -0.18600300149232679  5.4644573038104074 -0.1523637313552155  5.440795919811233 -0.11571572270916637  5.4173036901980494 -0.076021007234098811  5.3939852197089584 -0.033235886243311606  5.3708448562416891 0.012689227495449918  5.347886690931551 0.061809989668132226  5.3251145582325963 0.11418835799357965  5.3025320395302264 0.16989276724534264  5.2801424569379725 0.22899867283518766  5.2579489069010847 0.29158787862380026  5.2432857344428587 0.33569767488740387  5.2359877559829897 0.35836335801942099 
 2.6140026047846101 4 2.7325058669550124 1 2.8510091291254147 1 2.969512391295817 1 3.0880156534662193 1 3.2065189156366216 1 3.3250221778070239 1 3.4435254399774258 1 3.5620287021478281 1 3.6805319643182304 1 3.7990352264886327 1 3.917538488659035 1 4.0360417508294368 1 4.15454501299984 1 4.2730482751702414 1 4.3915515373406437 1 4.510054799511046 1 4.6285580616814483 1 4.7470613238518506 1 4.8655645860222529 1 4.9840678481926552 1 5.1025711103630575 1 5.2210743725334599 4
7 0 0  3 25 23  1.5707963267948966 -0.36234666314352804  1.5623676079884614 -0.36234617820400078  1.5455393897562106 -0.36135414063165783  1.5203920698407218 -0.35691441455130085  1.4953471795982367 -0.34954679888565238  1.4704118859470456 -0.33926721004641291  1.4455931747614461 -0.3260865770685562  1.4208978183735819 -0.31001020270021884  1.3963323728035297 -0.29103803240797482  1.3719031681641856 -0.26916464723894512  1.3476163020498628 -0.24437929863421134  1.3234776332866935 -0.21666590049948345  1.2994927767460625 -0.18600300149232535  1.2756670990240133 -0.15236373135521719  1.2520057150248414 -0.11571572270916325  1.2285134854116566 -0.076021007234096535  1.2051950149225652 -0.033235886243308442  1.1820546514552961 0.012689227495451816  1.1590964861451594 0.061809989668133149  1.1363243534462022 0.11418835799358329  1.1137418347438341 0.16989276724534541  1.0913522521515808 0.22899867283518968  1.069158702114692 0.29158787862380092  1.0544955296564655 0.33569767488740387  1.047197551196597 0.35836335801942099 
 2.6140026047846101 4 2.7325058669550124 1 2.8510091291254147 1 2.969512391295817 1 3.0880156534662193 1 3.2065189156366216 1 3.3250221778070239 1 3.4435254399774258 1 3.5620287021478281 1 3.6805319643182304 1 3.7990352264886327 1 3.917538488659035 1 4.0360417508294368 1 4.15454501299984 1 4.2730482751702414 1 4.3915515373406437 1 4.510054799511046 1 4.6285580616814483 1 4.7470613238518506 1 4.8655645860222529 1 4.9840678481926552 1 5.1025711103630575 1 5.2210743725334599 4
7 0 0  3 25 23  2.0943951023931962 0.35836335801942099  2.0870971239333271 0.33569767488739993  2.0724339514750985 0.29158787862379248  2.0502404014382067 0.22899867283517955  2.0278508188459519 0.16989276724532615  2.0052683001435812 0.11418835799356242  1.9824961674446213 0.061809989668109806  1.9595380021344824 0.012689227495425684  1.9363976386672113 -0.033235886243337426  1.9130791681781201 -0.07602100723412554  1.8895869385649329 -0.11571572270919109  1.8659255545657594 -0.1523637313552442  1.8420998768437105 -0.18600300149234988  1.818115020303078 -0.21666590049950701  1.793976351539909 -0.24437929863423163  1.7696894854255876 -0.26916464723896394  1.7452602807862434 -0.29103803240798864  1.720694835216193 -0.31001020270023122  1.6959994788283297 -0.3260865770685647  1.6711807676427333 -0.33926721004642041  1.6462454739915442 -0.34954679888565754  1.6212005837490635 -0.35691441455130235  1.5960532638335776 -0.36135414063165866  1.5792250456013304 -0.36234617820400117  1.5707963267948966 -0.36234666314352804 
 0.0069308370362212903 4 0.12543409920660259 1 0.24393736137698391 1 0.36244062354736517 1 0.48094388571774649 1 0.59944714788812781 1 0.71795041005850913 1 0.83645367222889044 1 0.95495693439927176 1 1.0734601965696531 1 1.1919634587400343 1 1.3104667209104157 1 1.4289699830807969 1 1.5474732452511784 1 1.6659765074215596 1 1.784479769591941 1 1.9029830317623222 1 2.0214862939327034 1 2.1399895561030848 1 2.2584928182734663 1 2.3769960804438472 1 2.4954993426142287 1 2.6140026047846101 4
1 10.995574287564276 0.69822247336255572 -1 0 
7 0 0  3 25 23  5.777343825936045 0.69822247336255538  5.7750769159489161 0.68661000046597243  5.7702311112605384 0.66342890543147326  5.7620771938920914 0.62880797708734648  5.7530928475890253 0.59435701916732542  5.7433187221708781 0.56009495789087882  5.7327882620475279 0.52604075311764031  5.7215275106874559 0.4922135156700167  5.7095565134483177 0.45863266380849049  5.6968900494029757 0.4253180486303535  5.6835383523133203 0.39229007191056425  5.6695076846891874 0.35956979359294489  5.6548008337777871 0.32717903225958078  5.6394175370709316 0.29514045952356827  5.623354856527671 0.26347768930164867  5.6066075139693448 0.23221536242444657  5.5891681991182036 0.20137922656938734  5.5710278600200267 0.17099621167591997  5.5521759840336111 0.14109449870131879  5.5326008782500598 0.11170358659278397  5.5122899513433401 0.082854334577445773  5.4912300209971576 0.054579058917078031  5.4694075853577671 0.026911380788499542  5.4543420710249073 0.0088950920804178844  5.4466777779641866 6.3441315692865801e-17 
 4.2065474991411484 4 4.2525330883451069 1 4.2985186775490654 1 4.3445042667530238 1 4.3904898559569814 1 4.4364754451609398 1 4.4824610343648983 1 4.5284466235688567 1 4.5744322127728152 1 4.6204178019767737 1 4.6664033911807321 1 4.7123889803846897 1 4.7583745695886481 1 4.8043601587926066 1 4.850345747996565 1 4.8963313372005235 1 4.9423169264044819 1 4.9883025156084404 1 5.0342881048123989 1 5.0802736940163573 1 5.1262592832203149 1 5.1722448724242733 1 5.2182304616282318 4
7 0 0  3 25 23  2.617993877991494 -0.36234666314353148  2.6095651591850584 -0.36234617820400389  2.592736940952808 -0.36135414063166005  2.5675896210373179 -0.35691441455130168  2.5425447307948339 -0.34954679888565521  2.5176094371436428 -0.33926721004641636  2.4927907259580433 -0.32608657706855504  2.4680953695701793 -0.31001020270022001  2.4435299240001274 -0.29103803240797482  2.4191007193607841 -0.26916464723894384  2.3948138532464611 -0.24437929863421362  2.3706751844832921 -0.2166659004994822  2.3466903279426607 -0.18600300149232638  2.3228646502206134 -0.15236373135521694  2.2992032662214408 -0.115715722709166  2.2757110366082562 -0.076021007234098908  2.2523925661191657 -0.033235886243311613  2.2292522026518959 0.012689227495450026  2.2062940373417597 0.061809989668131789  2.1835219046428023 0.11418835799358126  2.1609393859404338 0.16989276724534186  2.1385498033481807 0.22899867283518918  2.1163562533112916 0.29158787862380009  2.1016930808530647 0.33569767488740349  2.0943951023931962 0.35836335801942099 
 2.6140026047846101 4 2.7325058669550124 1 2.8510091291254147 1 2.969512391295817 1 3.0880156534662193 1 3.2065189156366216 1 3.3250221778070239 1 3.4435254399774258 1 3.5620287021478281 1 3.6805319643182304 1 3.7990352264886327 1 3.917538488659035 1 4.0360417508294368 1 4.15454501299984 1 4.2730482751702414 1 4.3915515373406437 1 4.510054799511046 1 4.6285580616814483 1 4.7470613238518506 1 4.8655645860222529 1 4.9840678481926552 1 5.1025711103630575 1 5.2210743725334599 4
7 0 0  3 25 23  3.1415926535897931 0.35836335801941754  3.1342946751299241 0.33569767488739671  3.1196315026716963 0.29158787862378921  3.0974379526348037 0.2289986728351755  3.0750483700425479 0.16989276724532248  3.0524658513401781 0.11418835799355834  3.0296937186412172 0.061809989668106635  3.0067355533310796 0.012689227495424334  2.9835951898638071 -0.033235886243338113  2.9602767193747161 -0.076021007234129287  2.9367844897615298 -0.11571572270919225  2.9131231057623563 -0.15236373135524495  2.8892974280403076 -0.18600300149235077  2.8653125714996746 -0.21666590049950449  2.8411739027365068 -0.24437929863423388  2.8168870366221834 -0.26916464723896316  2.7924578319828415 -0.29103803240798931  2.76789238641279 -0.31001020270023072  2.7431970300249282 -0.32608657706856459  2.7183783188393309 -0.33926721004642291  2.6934430251881429 -0.34954679888565776  2.6683981349456594 -0.35691441455130546  2.6432508150301763 -0.36135414063166116  2.6264225967979278 -0.36234617820400389  2.617993877991494 -0.36234666314353148 
 0.0069308370362208497 4 0.12543409920660217 1 0.24393736137698352 1 0.36244062354736484 1 0.48094388571774616 1 0.59944714788812758 1 0.7179504100585089 1 0.83645367222889022 1 0.95495693439927154 1 1.0734601965696529 1 1.1919634587400343 1 1.3104667209104155 1 1.4289699830807969 1 1.5474732452511781 1 1.6659765074215596 1 1.7844797695919408 1 1.9029830317623222 1 2.0214862939327034 1 2.1399895561030848 1 2.2584928182734663 1 2.3769960804438477 1 2.4954993426142287 1 2.6140026047846101 4
7 0 0  3 25 23  5.4466777779641857 7.6129578831438966e-16  5.4543420710249064 -0.0088950920804171021  5.4694075853577653 -0.026911380788498793  5.4912300209971603 -0.054579058917077462  5.5122899513433401 -0.082854334577445343  5.5326008782500598 -0.11170358659278375  5.5521759840336129 -0.14109449870131835  5.5710278600200249 -0.1709962116759193  5.5891681991182054 -0.20137922656938653  5.606607513969343 -0.23221536242444582  5.6233548565276719 -0.26347768930164772  5.6394175370709281 -0.29514045952356727  5.6548008337777897 -0.32717903225958034  5.6695076846891839 -0.35956979359294422  5.6835383523133212 -0.39229007191056403  5.6968900494029739 -0.42531804863035316  5.7095565134483213 -0.45863266380849022  5.7215275106874532 -0.49221351567001587  5.7327882620475297 -0.5260407531176392  5.7433187221708781 -0.56009495789087838  5.7530928475890253 -0.59435701916732464  5.7620771938920905 -0.62880797708734637  5.7702311112605402 -0.66342890543147304  5.7750769159489161 -0.68661000046597209  5.777343825936045 -0.69822247336255516 
 4.2065474991411467 4 4.2525330883451051 1 4.2985186775490636 1 4.344504266753022 1 4.3904898559569805 1 4.4364754451609389 1 4.4824610343648965 1 4.528446623568855 1 4.5744322127728134 1 4.6204178019767719 1 4.6664033911807303 1 4.7123889803846888 1 4.7583745695886472 1 4.8043601587926057 1 4.8503457479965641 1 4.8963313372005226 1 4.9423169264044802 1 4.9883025156084386 1 5.0342881048123971 1 5.0802736940163555 1 5.126259283220314 1 5.1722448724242724 1 5.2182304616282309 4
7 0 0  3 25 23  4.1887902047863896 0.35836335801942099  4.1814922263265215 0.33569767488740038  4.1668290538682928 0.29158787862379271  4.1446355038314007 0.22899867283517816  4.1222459212391458 0.16989276724532659  4.0996634025367751 0.11418835799356204  4.0768912698378141 0.061809989668105948  4.0539331045276779 0.012689227495425951  4.030792741060405 -0.033235886243339764  4.007474270571314 -0.076021007234126636  3.9839820409581277 -0.11571572270919454  3.9603206569589537 -0.152363731355245  3.9364949792369055 -0.18600300149235355  3.9125101226962729 -0.21666590049950704  3.8883714539331047 -0.24437929863423527  3.8640845878187822 -0.26916464723896388  3.839655383179438 -0.29103803240799131  3.8150899376093887 -0.31001020270023311  3.7903945812215252 -0.32608657706856653  3.7655758700359283 -0.33926721004642385  3.7406405763847399 -0.34954679888565993  3.7155956861422585 -0.35691441455130463  3.6904483662267737 -0.3613541406316626  3.6736201479945256 -0.36234617820400511  3.6651914291880923 -0.36234666314353148 
 0.0069308370362221004 4 0.12543409920660337 1 0.24393736137698463 1 0.36244062354736589 1 0.48094388571774715 1 0.59944714788812836 1 0.71795041005850968 1 0.836453672228891 1 0.95495693439927221 1 1.0734601965696533 1 1.1919634587400345 1 1.3104667209104159 1 1.4289699830807971 1 1.5474732452511784 1 1.6659765074215598 1 1.784479769591941 1 1.9029830317623222 1 2.0214862939327038 1 2.1399895561030848 1 2.2584928182734663 1 2.3769960804438472 1 2.4954993426142287 1 2.6140026047846101 4
1 6.2831853071795862 -0.36234666314352804 -1 0 
1 6.2831853071795862 -0.36234666314352804 -1 0 
1 6.2831853071795862 -0.36234666314352804 -1 0 
1 6.2831853071795862 -0.36234666314352804 -1 0 
1 6.2831853071795862 -0.36234666314352804 -1 0 
1 6.2831853071795862 -0.36234666314352804 -1 0 
7 0 0  3 25 23  6.2831853071795862 -0.44291104407364035  6.260589549150593 -0.44293595904271671  6.2154586918202472 -0.4396660498579073  6.149700544618133 -0.42529545108157196  6.0877488131413804 -0.40184706445196311  6.0310793741967705 -0.37007821039864025  5.9808143520303503 -0.33090286006334879  5.9377055386423354 -0.28535680061254043  5.9022008102655583 -0.23452625160838481  5.8745237418240066 -0.17950723180676803  5.8547559490127945 -0.12137997629051481  5.8429058030415399 -0.061199934544194361  5.8389584931381489 -4.7411410956899638e-17  5.8429058030415408 0.061199934544194319  5.8547559490127945 0.12137997629051483  5.8745237418240075 0.17950723180676811  5.9022008102655592 0.23452625160838497  5.9377055386423345 0.2853568006125406  5.9808143520303494 0.33090286006334896  6.0310793741967714 0.37007821039864042  6.0877488131413795 0.401847064451963  6.1497005446181321 0.4252954510815718  6.2154586918202481 0.43966604985790747  6.260589549150593 0.44293595904271671  6.2831853071795862 0.44291104407364035 
 1.5707963267948968 4 1.71359599286716 1 1.8563956589394235 1 1.9991953250116867 1 2.14199499108395 1 2.2847946571562137 1 2.4275943232284769 1 2.5703939893007401 1 2.7131936553730034 1 2.8559933214452666 1 2.9987929875175299 1 3.1415926535897931 1 3.2843923196620564 1 3.42719198573432 1 3.5699916518065833 1 3.712791317878847 1 3.8555909839511102 1 3.9983906500233735 1 4.1411903160956367 1 4.2839899821678999 1 4.4267896482401632 1 4.5695893143124264 1 4.7123889803846897 4
Curves 54
2 -6.3245553203367404 0 0 -1.22460635382238e-16 -1 0 0 0 1 -1 1.22460635382238e-16 0 7.00000000000004
2 -6.3245553203367404 0 -4.5 0 -0 1 0 1 0 -1 0 0 5.3619026473818501
2 -6.3245553203367404 3.89711431702997 -2.25 0 -0.86602540378443882 0.49999999999999989 0 0.49999999999999989 0.86602540378443882 -1 0 0 5.3619026473818501
2 -6.3245553203367404 3.89711431702997 2.25 0 -0.86602540378443882 -0.49999999999999989 0 -0.49999999999999989 0.86602540378443882 -1 -0 0 5.3619026473818501
2 -6.3245553203367404 0 4.5 0 0 -1 0 -1 0 -1 -0 -0 5.3619026473818501
2 -6.3245553203367404 0 0 -1.22460635382238e-16 -1 0 0 0 1 -1 1.22460635382238e-16 0 7.00000000000004
2 1.3322676295501901e-14 0 0 -1 0 0 0 1 0 0 0 -1 3.0000000000000102
1 -7.4062177826491098 4.8499999999999996 5.9393408160385305e-16 -0.25881904510252107 -0.9659258262890682 -1.1828789041947203e-16 
7 1 0  2 3 2  -7.3134665205267897 5.1961524227066302 0  1.00020182442826 -7.5 4.5 -1.20577136594006  1.0380595863397299 -7.5 3.89711431702997 -2.25  1
 0.0069308370362208497 3 2.6140026047846101 3
2 -7.5 0 0 -1 0 0 0 1 0 0 0 -1 4.5
1 -7.4062177826491098 -4.8499999999999996 -5.9393408160385305e-16 0.25881904510252107 -0.9659258262890682 -1.1828789041947203e-16 
2 -7.5 0 0 -1 0 0 0 1 0 0 0 -1 4.5
7 1 0  2 3 2  -7.5 -3.89711431702997 -2.25  1 -7.5 -4.5000000000001004 -1.2057713659398801  1.0380595863397399 -7.3134665205267897 -5.1961524227066302 0  1.00020182442824
 2.6140026047846101 3 5.2210743725334599 3
2 -7.0670000000000002 0 0 -1 0 0 0 1 0 0 0 -1 2.0670000000000002
1 -7.2835000000000001 -2.2835000000000001 -2.7963886089534002e-16 -0.70710678118654757 -0.70710678118654757 -8.6592745707193332e-17 
2 -7.5 0 0 1 0 0 -0 1 0 0 -0 1 2.5
1 -7.2835000000000001 2.2835000000000001 2.7963886089534002e-16 0.70710678118654757 -0.70710678118654757 -8.6592745707193332e-17 
2 -0.433 0 0 -1 0 0 0 1 0 0 0 -1 2.0670000000000002
1 -3.75 -2.0670000000000002 -2.5312613333508499e-16 -1 0 0 
1 -3.75 2.0670000000000002 2.5312613333508499e-16 1 0 0 
2 6.7723604502134502e-15 0 0 -1 4.5149069668089602e-15 0 4.5149069668089602e-15 1 0 0 0 -1 2.5000000000000102
1 -0.2165 -2.2835000000000001 -2.7963886089534002e-16 -0.70710678118654757 0.70710678118654757 8.6592745707193332e-17 
1 -0.2165 2.2835000000000001 2.7963886089534002e-16 0.70710678118654757 0.70710678118654757 8.6592745707193332e-17 
2 -0.433 0 0 -1 0 0 0 1 0 0 0 -1 2.0670000000000002
2 6.7723604502134502e-15 0 0 -1 4.5149069668089602e-15 0 4.5149069668089602e-15 1 0 0 0 -1 2.5000000000000102
2 -7.0670000000000002 0 0 -1 0 0 0 1 0 0 0 -1 2.0670000000000002
2 -7.5 0 0 1 0 0 -0 1 0 0 -0 1 2.5
2 -6.3245553203367404 0 -4.5 0 -0 1 0 1 0 -1 0 0 5.3619026473818501
1 -7.5 -2.59807621135332 -4.5 1 0 0 
7 1 0  2 3 2  -7.5 0 -4.5  1 -7.5 -1.20577136594026 -4.5  1.0380595863397299 -7.3134665205267897 -2.59807621135332 -4.5  1.00020182442824
 2.6140026047846101 3 5.2210743725334599 3
7 1 0  2 3 2  -7.3134665205267897 2.59807621135332 -4.5  1.00020182442826 -7.5 1.20577136594005 -4.5  1.03805958633972 -7.5 0 -4.5  1
 0.0069308370362212903 3 2.6140026047846101 3
1 -7.5 2.59807621135332 -4.5 1 0 0 
1 -7.5 5.1961524227066302 0 1 0 0 
7 1 0  2 3 2  -7.5 3.89711431702997 2.25  1 -7.5 4.5000000000001004 1.2057713659398801  1.0380595863397399 -7.3134665205267897 5.1961524227066302 0  1.00020182442824
 2.6140026047846101 3 5.2210743725334599 3
7 1 0  2 3 2  -7.3134665205267897 2.59807621135332 4.5  1.00020182442826 -7.5 3.2942286340599498 3.29422863405994  1.03805958633972 -7.5 3.89711431702997 2.25  1
 0.0069308370362221004 3 2.6140026047846101 3
1 -7.5 2.59807621135332 4.5 1 0 0 
7 1 0  2 3 2  -7.5 3.89711431702997 -2.25  1 -7.5 3.2942286340598499 -3.2942286340601199  1.0380595863397499 -7.3134665205267897 2.59807621135332 -4.5  1.00020182442824
 2.6140026047846101 3 5.2210743725334599 3
7 1 0  2 3 2  -7.5 0 4.5  1 -7.5 1.20577136594026 4.5  1.0380595863397299 -7.3134665205267897 2.59807621135332 4.5  1.00020182442824
 2.6140026047846101 3 5.2210743725334599 3
7 1 0  2 3 2  -7.3134665205267897 -2.59807621135332 4.5  1.00020182442826 -7.5 -1.20577136594005 4.5  1.03805958633972 -7.5 0 4.5  1
 0.0069308370362212903 3 2.6140026047846101 3
1 -7.5 -2.59807621135332 4.5 1 0 0 
2 -6.3245553203367404 0 4.5 0 0 -1 0 -1 0 -1 -0 -0 5.3619026473818501
2 -6.3245553203367404 -3.89711431702997 2.25 0 0.86602540378443882 -0.49999999999999989 0 -0.49999999999999989 -0.86602540378443882 -1 0 -0 5.3619026473818501
7 1 0  2 3 2  -7.5 -3.89711431702997 2.25  1 -7.5 -3.2942286340598499 3.2942286340601199  1.0380595863397499 -7.3134665205267897 -2.59807621135332 4.5  1.00020182442824
 2.6140026047846101 3 5.2210743725334599 3
7 1 0  2 3 2  -7.3134665205267897 -5.1961524227066302 0  1.00020182442826 -7.5 -4.5 1.20577136594006  1.0380595863397299 -7.5 -3.89711431702997 2.25  1
 0.0069308370362208497 3 2.6140026047846101 3
1 -7.5 -5.1961524227066302 0 1 0 0 
2 -6.3245553203367404 -3.89711431702997 -2.25 0 0.86602540378443882 0.49999999999999989 0 0.49999999999999989 -0.86602540378443882 -1 0 0 5.3619026473818501
7 1 0  2 3 2  -7.3134665205267897 -2.59807621135332 -4.5  1.00020182442826 -7.5 -3.2942286340599498 -3.29422863405994  1.03805958633972 -7.5 -3.89711431702997 -2.25  1
 0.0069308370362221004 3 2.6140026047846101 3
2 -7.5 0 0 -1 0 0 0 1 0 0 0 -1 4.5
2 -7.5 0 0 -1 0 0 0 1 0 0 0 -1 4.5
2 -7.5 0 0 -1 0 0 0 1 0 0 0 -1 4.5
2 -7.5 0 0 -1 0 0 0 1 0 0 0 -1 4.5
2 -7.5 0 0 -1 0 0 0 1 0 0 0 -1 4.5
2 -7.5 0 0 -1 0 0 0 1 0 0 0 -1 4.5
2 1.3322676295501901e-14 0 0 -1 0 0 0 1 0 0 0 -1 3.0000000000000102
Polygon3D 0
PolygonOnTriangulations 0
Surfaces 24
4 -6.3245553203367404 0 0 0 0 1 1 0 -0 -0 1 0 7.00000000000004
4 -6.3245553203367404 0 0 0 0 1 1 0 -0 -0 1 0 7.00000000000004
1 -7.5 -2.59807621135332 -4.5 0 0 1 1 -0 0 0 1 -0 
1 -7.5 2.59807621135332 -4.5 0 -0.86602540378443882 0.49999999999999989 -1 0 0 -0 -0.49999999999999989 -0.86602540378443882 
1 -7.5 5.1961524227066302 0 0 -0.86602540378443882 -0.49999999999999989 0 0.49999999999999989 -0.86602540378443882 1 0 0 
1 -7.5 2.59807621135332 4.5 0 0 -1 0 -1 0 -1 -0 -0 
1 6.7723604502134502e-15 1.5 0 1 -4.5149069668089602e-15 0 0 0 1 -4.5149069668089602e-15 -1 0 
3 -7.4062177826491098 0 0 1 -0 -0 0 1 0 0 -0 1 4.8499999999999996
1.3089969389957501
3 -7.4062177826491098 0 0 1 -0 -0 0 1 0 0 -0 1 4.8499999999999996
1.3089969389957501
1 -7.5 2.25 0 -1 0 0 0 0 1 0 1 -0 
3 -7.4062177826491098 0 0 1 -0 -0 0 1 0 0 -0 1 4.8499999999999996
1.3089969389957501
3 -7.4062177826491098 0 0 1 -0 -0 0 1 0 0 -0 1 4.8499999999999996
1.3089969389957501
1 -7.5 -5.1961524227066302 0 0 0.86602540378443882 0.49999999999999989 1 0 -0 -0 0.49999999999999989 -0.86602540378443882 
3 -7.2835000000000001 0 0 -1 0 -0 0 1 0 0 0 -1 2.2835000000000001
0.78539816339744795
2 -3.75 0 0 1 -0 0 0 1 0 -0 0 1 2.0670000000000002
3 -7.2835000000000001 0 0 -1 0 -0 0 1 0 0 0 -1 2.2835000000000001
0.78539816339744795
3 -0.2165 0 0 1 -0 -0 0 1 0 0 -0 1 2.2835000000000001
0.78539816339744795
2 -3.75 0 0 1 -0 0 0 1 0 -0 0 1 2.0670000000000002
3 -0.2165 0 0 1 -0 -0 0 1 0 0 -0 1 2.2835000000000001
0.78539816339744795
3 -7.4062177826491098 0 0 1 -0 -0 0 1 0 0 -0 1 4.8499999999999996
1.3089969389957501
3 -7.4062177826491098 0 0 1 -0 -0 0 1 0 0 -0 1 4.8499999999999996
1.3089969389957501
3 -7.4062177826491098 0 0 1 -0 -0 0 1 0 0 -0 1 4.8499999999999996
1.3089969389957501
3 -7.4062177826491098 0 0 1 -0 -0 0 1 0 0 -0 1 4.8499999999999996
1.3089969389957501
1 -7.5 -2.59807621135332 4.5 0 0.86602540378443882 -0.49999999999999989 -1 0 0 0 0.49999999999999989 0.86602540378443882 
Triangulations 0

TShapes 138
Ve
1e-07
-0.962652672954891 -6.56622005056084e-16 -4.5
0 0

0101101
*
Ve
1e-07
1.33226762955019e-14 -7.74509063038552e-16 -3.00000000000001
0 0

0101101
*
Ed
 1e-07 1 1 0
1  1 0 4.01416650702213 4.26947793631105
2  1 1 0 4.01416650702213 4.26947793631105
2  2 2 0 4.01416650702213 4.26947793631105
4 CN 1 0 2 0
0

0101000
+138 0 -137 0 *
Ve
1e-07
-1.63413956051326 2.59807621135332 -4.5
0 0

0101101
*
Ed
 1e-07 1 1 0
1  2 0 4.71238898038469 5.21823046162823
2  3 1 0 4.71238898038469 5.21823046162823
4 C0 1 0 3 0
0

0101000
+138 0 -135 0 *
Ve
1e-07
-1.63413956051326 5.19615242270663 0
0 0

0101101
*
Ed
 1e-07 1 1 0
1  3 0 4.20654749914115 5.21823046162823
2  4 1 0 4.20654749914115 5.21823046162823
4 C0 1 0 4 0
0

0101000
+135 0 -133 0 *
Ve
1e-07
-1.63413956051326 2.59807621135332 4.5
0 0

0101101
*
Ed
 1e-07 1 1 0
1  4 0 4.20654749914115 5.21823046162823
2  5 1 0 4.20654749914115 5.21823046162823
4 C0 1 0 5 0
0

0101000
+133 0 -131 0 *
Ve
1e-07
-0.962652672954891 -6.56622005056084e-16 4.5
0 0

0101101
*
Ed
 1e-07 1 1 0
1  5 0 4.20654749914115 4.71238898038469
2  6 1 0 4.20654749914115 4.71238898038469
4 C0 1 0 6 0
0

0101000
+131 0 -129 0 *
Ve
1e-07
1.33226762955019e-14 -7.74509063038552e-16 3.00000000000001
0 0

0101101
*
Ed
 1e-07 1 1 0
1  6 0 5.15530002445833 5.41061145374725
2  7 1 0 5.15530002445833 5.41061145374725
2  8 2 0 5.15530002445833 5.41061145374725
4 G2 1 0 2 0
0

0101000
+127 0 -129 0 *
Ed
 1e-07 1 1 0
1  7 0 4.71238898038469 7.85398163397448
2  9 1 0 4.71238898038469 7.85398163397448
4 C0 1 0 7 0
0

0101000
+127 0 -137 0 *
Wi

0101100
-136 0 +134 0 +132 0 +130 0 +128 0 -126 0 +125 0 *
Fa
0  1e-07 1 0

0111000
+124 0 *
Ve
1e-07
-7.31346652052679 5.19615242270663 0
0 0

0101101
*
Ve
1e-07
-7.5 4.5 5.5107285922007e-16
0 0

0101101
*
Ed
 1e-07 1 1 0
1  8 0 -0.358363358019417 0.362346663143528
2  10 8 0 -0.358363358019417 0.362346663143528
2  11 9 0 -0.358363358019417 0.362346663143528
4 CN 8 0 9 0
0

0101000
+122 0 -121 0 *
Ve
1e-07
-7.5 3.89711431702997 -2.25
0 0

0101101
*
Ed
 1e-07 1 1 0
1  9 0 0.00693083703622085 2.61400260478461
2  12 8 0 0.00693083703622085 2.61400260478461
4 C0 8 0 4 0
0

0101000
+122 0 -119 0 *
Ed
 1e-07 1 1 0
1  10 0 0 0.523598775598299
2  13 8 0 0 0.523598775598299
4 C0 8 0 10 0
0

0101000
+121 0 -119 0 *
Wi

0101100
-120 0 +118 0 -117 0 *
Fa
0  1e-07 8 0

0111000
+116 0 *
Ve
1e-07
-7.5 -4.5 -5.5107285922007e-16
0 0

0101101
*
Ve
1e-07
-7.31346652052679 -5.19615242270663 0
0 0

0101101
*
Ed
 1e-07 1 1 0
1  11 0 -0.362346663143528 0.358363358019417
2  14 11 0 -0.362346663143528 0.358363358019417
2  15 12 0 -0.362346663143528 0.358363358019417
4 CN 11 0 12 0
0

0101000
+114 0 -113 0 *
Ve
1e-07
-7.5 -3.89711431702997 -2.25
0 0

0101101
*
Ed
 1e-07 1 1 0
1  12 0 2.61799387799149 3.14159265358979
2  16 11 0 2.61799387799149 3.14159265358979
4 C0 11 0 10 0
0

0101000
+111 0 -114 0 *
Ed
 1e-07 1 1 0
1  13 0 2.61400260478461 5.22107437253346
2  17 11 0 2.61400260478461 5.22107437253346
4 C0 11 0 13 0
0

0101000
+111 0 -113 0 *
Wi

0101100
-112 0 -110 0 +109 0 *
Fa
0  1e-07 11 0

0111000
+108 0 *
Ve
1e-07
-7.067 2.067 0
0 0

0101101
*
Ve
1e-07
-7.067 -2.067 -2.53126133335085e-16
0 0

0101101
*
Ed
 1e-07 1 1 0
1  14 0 0 3.14159265358979
2  18 14 0 0 3.14159265358979
2  19 15 0 0 3.14159265358979
4 C0 14 0 15 0
0

0101000
+106 0 -105 0 *
Ve
1e-07
-7.5 -2.5 -3.06151588455594e-16
0 0

0101101
*
Ed
 1e-07 1 1 0
1  15 0 -0.306177236253775 0.306177236253775
2  20 14 0 -0.306177236253775 0.306177236253775
2  21 16 0 -0.306177236253775 0.306177236253775
4 CN 14 0 16 0
0

0101000
+105 0 -103 0 *
Ve
1e-07
-7.5 2.5 0
0 0

0101101
*
Ed
 1e-07 1 1 0
1  16 0 3.14159265358979 6.28318530717959
2  22 14 0 3.14159265358979 6.28318530717959
4 C0 14 0 10 0
0

0101000
+103 0 -101 0 *
Ed
 1e-07 1 1 0
1  17 0 -0.306177236253775 0.306177236253775
2  23 14 0 -0.306177236253775 0.306177236253775
2  24 16 0 -0.306177236253775 0.306177236253775
4 CN 14 0 16 0
0

0101000
+101 0 -106 0 *
Wi

0101100
+104 0 +102 0 +100 0 +99 0 *
Fa
0  1e-07 14 0

0111000
+98 0 *
Ve
1e-07
-0.433 2.067 0
0 0

0101101
*
Ve
1e-07
-0.433 -2.067 -2.53126133335085e-16
0 0

0101101
*
Ed
 1e-07 1 1 0
1  18 0 0 3.14159265358979
2  25 15 0 0 3.14159265358979
2  26 17 0 0 3.14159265358979
4 C0 15 0 17 0
0

0101000
+96 0 -95 0 *
Ed
 1e-07 1 1 0
1  19 0 -3.317 3.317
2  27 15 0 -3.317 3.317
2  28 18 0 -3.317 3.317
4 CN 15 0 18 0
0

0101000
+95 0 -105 0 *
Ed
 1e-07 1 1 0
1  20 0 -3.317 3.317
2  29 15 0 -3.317 3.317
2  30 18 0 -3.317 3.317
4 CN 15 0 18 0
0

0101000
+106 0 -96 0 *
Wi

0101100
+94 0 +93 0 -104 0 +92 0 *
Fa
0  1e-07 15 0

0111000
+91 0 *
Ve
1e-07
-5.55111512312578e-17 2.5 0
0 0

0101101
*
Ve
1e-07
-4.51490696680898e-15 -2.50000000000001 -3.06151588455595e-16
0 0

0101101
*
Ed
 1e-07 1 1 0
1  21 0 0 3.14159265358979
2  31 17 0 0 3.14159265358979
4 C0 17 0 7 0
0

0101000
+89 0 -88 0 *
Ed
 1e-07 1 1 0
1  22 0 -0.306177236253779 0.306177236253775
2  32 17 0 -0.306177236253779 0.306177236253775
2  33 19 0 -0.306177236253779 0.306177236253775
4 CN 17 0 19 0
0

0101000
+88 0 -95 0 *
Ed
 1e-07 1 1 0
1  23 0 -0.306177236253775 0.306177236253775
2  34 17 0 -0.306177236253775 0.306177236253775
2  35 19 0 -0.306177236253775 0.306177236253775
4 CN 17 0 19 0
0

0101000
+96 0 -89 0 *
Wi

0101100
+87 0 +86 0 -94 0 +85 0 *
Fa
0  1e-07 17 0

0111000
+84 0 *
Ed
 1e-07 1 1 0
1  24 0 3.14159265358979 6.28318530717959
2  36 19 0 3.14159265358979 6.28318530717959
2  37 18 0 3.14159265358979 6.28318530717959
4 C0 19 0 18 0
0

0101000
+95 0 -96 0 *
Ed
 1e-07 1 1 0
1  25 0 3.14159265358979 6.28318530717959
2  38 19 0 3.14159265358979 6.28318530717959
4 C0 19 0 7 0
0

0101000
+88 0 -89 0 *
Wi

0101100
-82 0 -86 0 +81 0 -85 0 *
Fa
0  1e-07 19 0

0111000
+80 0 *
Ed
 1e-07 1 1 0
1  26 0 3.14159265358979 6.28318530717959
2  39 18 0 3.14159265358979 6.28318530717959
2  40 16 0 3.14159265358979 6.28318530717959
4 C0 18 0 16 0
0

0101000
+105 0 -106 0 *
Wi

0101100
-78 0 -93 0 +82 0 -92 0 *
Fa
0  1e-07 18 0

0111000
+77 0 *
Ed
 1e-07 1 1 0
1  27 0 0 3.14159265358979
2  41 16 0 0 3.14159265358979
4 C0 16 0 10 0
0

0101000
+101 0 -103 0 *
Wi

0101100
+75 0 -102 0 +78 0 -99 0 *
Fa
0  1e-07 16 0

0111000
+74 0 *
Ve
1e-07
-1.63413956051326 -2.59807621135332 -4.5
0 0

0101101
*
Ed
 1e-07 1 1 0
1  28 0 4.20654749914115 4.71238898038469
2  42 2 0 4.20654749914115 4.71238898038469
4 C0 3 0 2 0
0

0101000
+72 0 -138 0 *
Ve
1e-07
-7.31346652052679 -2.59807621135332 -4.5
0 0

0101101
*
Ed
 1e-07 1 1 0
1  29 0 0.18653347947321 5.86586043948674
4 C0 3 0 13 0
0

0101000
+70 0 -72 0 *
Ve
1e-07
-7.5 0 -4.5
0 0

0101101
*
Ed
 1e-07 1 1 0
1  30 0 2.61400260478461 5.22107437253346
2  43 20 0 2.61400260478461 5.22107437253346
4 C0 3 0 20 0
0

0101000
+68 0 -70 0 *
Ve
1e-07
-7.31346652052679 2.59807621135332 -4.5
0 0

0101101
*
Ed
 1e-07 1 1 0
1  31 0 0.00693083703622129 2.61400260478461
2  44 21 0 0.00693083703622129 2.61400260478461
4 C0 3 0 21 0
0

0101000
+66 0 -68 0 *
Ed
 1e-07 1 1 0
1  32 0 0.18653347947321 5.86586043948674
4 C0 3 0 4 0
0

0101000
+66 0 -135 0 *
Wi

0101100
-71 0 -69 0 -67 0 -65 0 +64 0 -134 0 *
Fa
0  1e-07 3 0

0111000
-63 0 *
Ed
 1e-07 1 1 0
1  33 0 0.18653347947321 5.86586043948674
4 C0 5 0 4 0
0

0101000
+122 0 -133 0 *
Ve
1e-07
-7.5 3.89711431702997 2.25
0 0

0101101
*
Ed
 1e-07 1 1 0
1  34 0 2.61400260478461 5.22107437253346
2  45 9 0 2.61400260478461 5.22107437253346
4 C0 5 0 9 0
0

0101000
+60 0 -122 0 *
Ve
1e-07
-7.31346652052679 2.59807621135332 4.5
0 0

0101101
*
Ed
 1e-07 1 1 0
1  35 0 0.0069308370362221 2.61400260478461
2  46 22 0 0.0069308370362221 2.61400260478461
4 C0 5 0 22 0
0

0101000
+58 0 -60 0 *
Ed
 1e-07 1 1 0
1  36 0 0.18653347947321 5.86586043948674
4 C0 5 0 6 0
0

0101000
+58 0 -131 0 *
Wi

0101100
-130 0 -61 0 -59 0 -57 0 +56 0 *
Fa
0  1e-07 5 0

0111000
-55 0 *
Ed
 1e-07 1 1 0
1  37 0 2.61400260478461 5.22107437253346
2  47 21 0 2.61400260478461 5.22107437253346
4 C0 4 0 21 0
0

0101000
+119 0 -66 0 *
Wi

0101100
-132 0 -64 0 -53 0 -118 0 +61 0 *
Fa
0  1e-07 4 0

0111000
-52 0 *
Ve
1e-07
-7.5 0 4.5
0 0

0101101
*
Ed
 1e-07 1 1 0
1  38 0 2.61400260478461 5.22107437253346
2  48 22 0 2.61400260478461 5.22107437253346
4 C0 6 0 22 0
0

0101000
+50 0 -58 0 *
Ve
1e-07
-7.31346652052679 -2.59807621135332 4.5
0 0

0101101
*
Ed
 1e-07 1 1 0
1  39 0 0.00693083703622129 2.61400260478461
2  49 23 0 0.00693083703622129 2.61400260478461
4 C0 6 0 23 0
0

0101000
+48 0 -50 0 *
Ve
1e-07
-1.63413956051326 -2.59807621135332 4.5
0 0

0101101
*
Ed
 1e-07 1 1 0
1  40 0 0.18653347947321 5.86586043948674
4 C0 6 0 24 0
0

0101000
+48 0 -46 0 *
Ed
 1e-07 1 1 0
1  41 0 4.71238898038469 5.21823046162823
2  50 2 0 4.71238898038469 5.21823046162823
4 C0 6 0 2 0
0

0101000
+129 0 -46 0 *
Wi

0101100
-128 0 -56 0 -49 0 -47 0 +45 0 -44 0 *
Fa
0  1e-07 6 0

0111000
-43 0 *
Ve
1e-07
-1.63413956051326 -5.19615242270663 0
0 0

0101101
*
Ed
 1e-07 1 1 0
1  42 0 4.20654749914115 5.21823046162823
2  51 2 0 4.20654749914115 5.21823046162823
4 C0 24 0 2 0
0

0101000
+46 0 -41 0 *
Ve
1e-07
-7.5 -3.89711431702997 2.25
0 0

0101101
*
Ed
 1e-07 1 1 0
1  43 0 2.61400260478461 5.22107437253346
2  52 23 0 2.61400260478461 5.22107437253346
4 C0 24 0 23 0
0

0101000
+39 0 -48 0 *
Ed
 1e-07 1 1 0
1  44 0 0.00693083703622085 2.61400260478461
2  53 12 0 0.00693083703622085 2.61400260478461
4 C0 24 0 12 0
0

0101000
+113 0 -39 0 *
Ed
 1e-07 1 1 0
1  45 0 0.18653347947321 5.86586043948674
4 C0 24 0 13 0
0

0101000
+113 0 -41 0 *
Wi

0101100
-40 0 -45 0 -38 0 -37 0 +36 0 *
Fa
0  1e-07 24 0

0111000
-35 0 *
Ed
 1e-07 1 1 0
1  46 0 4.20654749914115 5.21823046162823
2  54 2 0 4.20654749914115 5.21823046162823
4 C0 13 0 2 0
0

0101000
+41 0 -72 0 *
Ed
 1e-07 1 1 0
1  47 0 0.0069308370362221 2.61400260478461
2  55 20 0 0.0069308370362221 2.61400260478461
4 C0 13 0 20 0
0

0101000
+70 0 -111 0 *
Wi

0101100
-33 0 -36 0 -109 0 -32 0 +69 0 *
Fa
0  1e-07 13 0

0111000
-31 0 *
Ed
 1e-07 1 1 0
1  48 0 0.523598775598299 1.5707963267949
2  56 21 0 0.523598775598299 1.5707963267949
4 C0 21 0 10 0
0

0101000
+119 0 -68 0 *
Wi

0101100
+65 0 -29 0 +53 0 *
Fa
0  1e-07 21 0

0111000
+28 0 *
Ed
 1e-07 1 1 0
1  49 0 1.5707963267949 2.61799387799149
2  57 20 0 1.5707963267949 2.61799387799149
4 C0 20 0 10 0
0

0101000
+68 0 -111 0 *
Wi

0101100
+32 0 -26 0 +67 0 *
Fa
0  1e-07 20 0

0111000
+25 0 *
Ed
 1e-07 1 1 0
1  50 0 3.14159265358979 3.66519142918809
2  58 12 0 3.14159265358979 3.66519142918809
4 C0 12 0 10 0
0

0101000
+114 0 -39 0 *
Wi

0101100
+112 0 +37 0 -23 0 *
Fa
0  1e-07 12 0

0111000
+22 0 *
Ed
 1e-07 1 1 0
1  51 0 3.66519142918809 4.71238898038469
2  59 23 0 3.66519142918809 4.71238898038469
4 C0 23 0 10 0
0

0101000
+39 0 -50 0 *
Wi

0101100
+38 0 +47 0 -20 0 *
Fa
0  1e-07 23 0

0111000
+19 0 *
Ed
 1e-07 1 1 0
1  52 0 4.71238898038469 5.75958653158129
2  60 22 0 4.71238898038469 5.75958653158129
4 C0 22 0 10 0
0

0101000
+50 0 -60 0 *
Wi

0101100
+49 0 +57 0 -17 0 *
Fa
0  1e-07 22 0

0111000
+16 0 *
Ed
 1e-07 1 1 0
1  53 0 5.75958653158129 6.28318530717959
2  61 9 0 5.75958653158129 6.28318530717959
4 C0 9 0 10 0
0

0101000
+60 0 -121 0 *
Wi

0101100
+120 0 -14 0 +59 0 *
Fa
0  1e-07 9 0

0111000
+13 0 *
Ed
 1e-07 1 1 0
1  54 0 1.5707963267949 4.71238898038469
2  62 2 0 1.5707963267949 4.71238898038469
4 C0 7 0 2 0
0

0101000
+137 0 -127 0 *
Wi

0101100
-125 0 -11 0 *
Wi

0101100
+87 0 +81 0 *
Fa
0  1e-07 7 0

0111000
+10 0 +9 0 *
Wi

0101100
+136 0 +11 0 +126 0 +44 0 +40 0 +33 0 +71 0 *
Fa
0  1e-07 2 0

0111000
+7 0 *
Wi

0101100
+14 0 +117 0 +29 0 +26 0 +110 0 +23 0 +20 0 +17 0 *
Wi

0101100
+75 0 +100 0 *
Fa
0  1e-07 10 0

0111000
+5 0 +4 0 *
Sh

0101100
+123 0 +115 0 +107 0 -97 0 -90 0 -83 0 -79 0 -76 0 -73 0 -62 0 
-54 0 -51 0 -42 0 -34 0 -30 0 +27 0 +24 0 +21 0 +18 0 +15 0 
+12 0 +8 0 +6 0 +3 0 *
So

0100000
+2 0 *

+1 0 