DBRep_DrawableShape

CASCADE Topology V1, (c) Matra-Datavision
Locations 0
Curve2ds 87
1 6.2831853071795862 -3.9623999999999953 -1 0 
1 6.204645490839841 0 0 -1 
1 6.2831853071795862 0 -1 0 
1 3.1415926535897931 0 0 -1 
1 3.1415926535897931 0 0 -1 
1 3.1415926535897931 0 0 1 
1 3.1415926535897931 0 0 1 
1 6.2831853071795862 -3.9623999999999953 -1 0 
1 6.204645490839841 -3.9623999999999953 0 1 
1 6.2831853071795862 0 -1 0 
1 6.2831853071795862 -3.9623999999999953 -1 0 
1 6.2831853071795862 -3.9623999999999953 -1 0 
1 6.2831853071795862 0 -1 0 
1 0.078539816339745674 -3.9623999999999953 0 1 
1 6.2831853071795862 0 -1 0 
1 0.078539816339745494 0 0 -1 
1 6.2831853071795862 -3.1086244689504383e-15 0 1 
1 0 -3.1086244689504383e-15 0 1 
1 0 0 1 0 
1 3.1415926535897931 -3.1086244689504383e-15 0 1 
1 3.1415926535897931 -3.1086244689504383e-15 0 1 
1 0 -1.9379796596588026 1 0 
1 6.2831853071795862 -8.7182205330921079 -1 0 
1 0 -2.5816346301309645 1 1.6962958301138718e-15 
1 6.2831853071795862 -4.4408920985006262e-15 0 1 
1 0 -4.4408920985006262e-15 0 1 
7 0 0  3 25 23  6.2831853071795862 -0.01539743306053234  6.2770131048358939 -0.083655633386385361  6.264510038067832 -0.21829999233552899  6.2452710454762981 -0.41435653613085538  6.2255388887606919 -0.60421218091153717  6.2053060754416371 -0.78756564432075704  6.1845661584454916 -0.96410889725786042  6.1633140166150007 -1.1335263080490046  6.1415460131584068 -1.295495148196826  6.119260181956049 -1.4496855744945474  6.0964564672762043 -1.5957618272118459  6.0731367502596649 -1.7333796162509907  6.0493056850520119 -1.8621981097194855  6.0249684978218054 -1.9818379311278278  6.0001317327790158 -2.0918773031329692  5.9748070960815536 -2.1919230505862863  5.9490068927302087 -2.2815722025841851  5.9227533271387074 -2.3604122362703062  5.8960466259692259 -2.4280647475912756  5.8691062538095187 -2.4837138753371324  5.8419502219337618 -2.5272661085213199  5.8146207967284003 -2.5585461462754355  5.7871556644402879 -2.5774151840846296  5.7687823425212397 -2.5816357741705689  5.7595865315812862 -2.5816346301309561 
 0 4 0.00032379503543175729 1 0.00064759007086351457 1 0.0009713851062952718 1 0.0012951801417270291 1 0.0016189751771587865 1 0.0019427702125905436 1 0.0022665652480223009 1 0.0025903602834540583 1 0.0029141553188858156 1 0.003237950354317573 1 0.0035617453897493303 1 0.0038855404251810872 1 0.0042093354606128446 1 0.0045331304960446019 1 0.0048569255314763592 1 0.0051807205669081166 1 0.0055045156023398739 1 0.0058283106377716313 1 0.0061521056732033886 1 0.0064759007086351459 1 0.0067996957440669033 1 0.0071234907794986597 4
1 0 0 0 -1 
1 6.2831853071795862 0 0 -1 
1 3.1415926535897931 0 0 -1 
1 3.1415926535897931 0 0 -1 
1 6.2831853071795862 -1.1369794669079027 -1 0 
1 9.4247779607693793 -1.9379796596588026 -1 0 
1 6.2831853071795862 -6.6613381477509392e-16 0 1 
1 0 -6.6613381477509392e-16 0 1 
1 6.2831853071795862 0 -1 0 
1 3.1415926535897931 -15.233105729093197 -1 0 
1 3.1415926535897931 -6.6613381477509392e-16 0 1 
1 3.1415926535897931 -6.6613381477509392e-16 0 1 
1 0 0 0 -1 
1 6.2831853071795862 0 0 -1 
1 3.1415926535897931 0 0 -1 
1 3.1415926535897931 0 0 -1 
1 6.2831853071795862 -15.207705729093192 -1 0 
1 0 -2.5816346301309538 1 0 
1 0 -2.5816346301309583 1 8.4814791505693521e-16 
1 0 -2.5816346301309512 1 -8.4814791505693876e-16 
1 0 -2.5816346301309538 1 0 
1 0 -2.5816346301309538 1 0 
1 0 -2.5816346301308819 1 8.4814791505693876e-16 
1 0 0 1 0 
1 0 -1.9379796596588026 1 0 
1 6.2831853071795862 -8.7182205330921079 -1 0 
7 0 0  3 25 23  1.0471975511965965 -2.5816346301308837  1.0380051695793888 -2.5816355408934517  1.0196638743881554 -2.5774040955755591  0.99231921115272104 -2.558597941100563  0.96517937485938499 -2.5275695182381472  0.93827956100799037 -2.4845698808196981  0.91165310446820591 -2.4298583421440898  0.88533106840067377 -2.363702823168595  0.85934216444728184 -2.286378585533003  0.83371249956519444 -2.1981666978205312  0.80846593864725813 -2.0993550029609565  0.78362242765898638 -1.9902292843106626  0.75920409916683762 -1.8711011821466275  0.7352125122933445 -1.7421990553583762  0.7116711173175525 -1.6039299517214356  0.68861729107488501 -1.4568055347927857  0.66608014640379443 -1.3013364110206904  0.64408431206863592 -1.1380414841294044  0.62265719182638946 -0.96750279023870767  0.60177393357934394 -0.7899816651503464  0.58142761158122958 -0.60579426943187564  0.56160925438453524 -0.41525320953573691  0.54230907427556296 -0.21866114496358174  0.52978037964234503 -0.083759396133580508  0.52359877511249153 -0.015397417868799345 
 1.7558730430671502e-18 4 0.00032370844241757119 1 0.00064741688483514065 1 0.00097112532725271016 1 0.0012948337696702796 1 0.001618542212087849 1 0.0019422506545054186 1 0.002265959096922988 1 0.0025896675393405574 1 0.0029133759817581268 1 0.0032370844241756962 1 0.0035607928665932656 1 0.0038845013090108354 1 0.0042082097514284048 1 0.0045319181938459742 1 0.0048556266362635436 1 0.005179335078681113 1 0.0055030435210986824 1 0.0058267519635162518 1 0.0061504604059338212 1 0.0064741688483513906 1 0.00679787729076896 1 0.0071215857331865303 4
7 0 0  3 25 23  0.52359877511249153 -0.015397417868799345  0.51742657213712973 -0.083655621699989899  0.5049235046999051 -0.21829998687518148  0.48568451211027003 -0.41435653788995075  0.4659523551839449 -0.60421218800527543  0.44571954176812872 -0.78756565509714838  0.42497962470081008 -0.96410891029610413  0.40372748284642995 -1.1335263221568062  0.38195947940421032 -1.2954951624075992  0.35967364825238285 -1.4496855880633961  0.33686993365380091 -1.5957618396116813  0.31355021674340561 -1.7333796271663517  0.28971915165872553 -1.8621981190435202  0.26538196456204083 -1.9818379389442247  0.24054519966388724 -2.0918773095352385  0.21522056311955504 -2.1919230556877425  0.18942035992778167 -2.2815722065132387  0.16316679450012228 -2.3604122391690692  0.13646009349546281 -2.4280647496159276  0.10951972150622169 -2.4837138766349298  0.08236368980555614 -2.5272661092458195  0.055034264779350951 -2.5585461465847699  0.027569132673704998 -2.5774151841415294  0.0091958108779918672 -2.5816357741704605  0 -2.5816346301308819 
 0 4 0.00032379503323666682 1 0.00064759006647333364 1 0.00097138509971000041 1 0.0012951801329466673 1 0.0016189751661833342 1 0.0019427701994200008 1 0.0022665652326566677 1 0.0025903602658933346 1 0.0029141552991300015 1 0.0032379503323666683 1 0.0035617453656033352 1 0.0038855403988400017 1 0.0042093354320766685 1 0.0045331304653133354 1 0.0048569254985500023 1 0.0051807205317866692 1 0.005504515565023336 1 0.0058283105982600029 1 0.0061521056314966698 1 0.0064759006647333367 1 0.0067996956979700035 1 0.0071234907312066704 4
7 0 0  3 25 23  6.2831853071795862 -2.5816346301309538  6.2739929256757367 -2.5816355408934739  6.2556516307101244 -2.5774040956803894  6.2283069678085132 -2.5585979416678453  6.2011671318430412 -2.5275695195638015  6.1742673183123111 -2.4845698831898089  6.1476408620848595 -2.4298583458342686  6.1213188263203131 -2.363702828443992  6.0953299226596735 -2.2863785926476061  6.069700258059342 -2.1981667070172284  6.0444536974115639 -2.0993550144714326  6.019610186681251 -1.9902292983546142  5.9951918584349295 -1.8711011989344168  5.9712002717932497 -1.742199075080926  5.9476588770331285 -1.6039299745414364  5.9246050509899932 -1.4568055608537738  5.902067906502281 -1.3013364404466825  5.880072072333288 -1.1380415170153899  5.8586449522440773 -0.96750282668767595  5.8377616941700934 -0.78998170555144831  5.8174153722100943 -0.60579431270419637  5.7975970148033653 -0.41525325328159179  5.7782968341242738 -0.21866118531863779  5.7657681388072604 -0.083759430613519537  5.7595865338428833 -0.015397448252271712 
 3.5937455810071401e-19 4 0.00032370843842589815 1 0.00064741687685179587 1 0.00097112531527769358 1 0.0012948337537035915 1 0.0016185421921294893 1 0.001942250630555387 1 0.0022659590689812848 1 0.0025896675074071826 1 0.0029133759458330804 1 0.0032370843842589783 1 0.0035607928226848761 1 0.0038845012611107735 1 0.0042082096995366709 1 0.0045319181379625687 1 0.0048556265763884665 1 0.0051793350148143643 1 0.0055030434532402622 1 0.00582675189166616 1 0.0061504603300920578 1 0.0064741687685179556 1 0.0067978772069438535 1 0.0071215856453697504 4
7 0 0  3 25 23  5.7595865338428833 -0.015397448252271712  5.7534143310502728 -0.083655645022056649  5.7409112639444881 -0.21829999769632269  5.7216722717508253 -0.41435653432301039  5.7019401151196183 -0.60421217390938264  5.6817073019007065 -0.78756563383364941  5.6609673849364217 -0.96410888473374057  5.6397152430976352 -1.1335262946791271  5.6179472395922376 -1.2954951349210539  5.5956614083093861 -1.4496855620080795  5.572857693525771 -1.5957618159704854  5.5495379763912513 -1.7333796064871936  5.525706911066651 -1.8621981014219446  5.501369723719006 -1.981837924162577  5.4765329585458353 -2.0918772974346447  5.4512083217109932 -2.1919230460492698  5.4254081182166036 -2.2815721990937092  5.3991545524788727 -2.3604122336972422  5.3724478511634128 -2.4280647457932774  5.3455074788525447 -2.483713874184208  5.318351446821433 -2.5272661078774075  5.2910220214569996 -2.5585461460003596  5.2635568890067628 -2.5774151840339172  5.2451835669780555 -2.5816357741705724  5.2359877559829906 -2.5816346301309423 
 5.30756568004657e-12 4 0.00032379504269316182 1 0.00064759008007875794 1 0.00097138511746435406 1 0.0012951801548499501 1 0.0016189751922355462 1 0.0019427702296211423 1 0.0022665652670067382 1 0.0025903603043923346 1 0.0029141553417779309 1 0.0032379503791635268 1 0.0035617454165491227 1 0.0038855404539347191 1 0.0042093354913203158 1 0.0045331305287059113 1 0.0048569255660915077 1 0.005180720603477104 1 0.0055045156408627003 1 0.0058283106782482967 1 0.0061521057156338921 1 0.0064759007530194885 1 0.0067996957904050848 1 0.0071234908277906803 4
7 0 0  3 25 23  5.2359877559829906 -2.5816346301309423  5.2267953744791393 -2.581635540893461  5.2084540795135279 -2.5774040956803752  5.1811094166119194 -2.5585979416678284  5.1539695806464465 -2.5275695195637797  5.1270697671157164 -2.4845698831897831  5.1004433108882674 -2.4298583458342629  5.0741212751237192 -2.3637028284439658  5.0481323714630806 -2.2863785926475737  5.0225027068627464 -2.1981667070171635  4.9972561462149736 -2.0993550144714184  4.9724126354846581 -1.9902292983545664  4.9479943072383383 -1.8711011989343942  4.9240027205966603 -1.7421990750809033  4.900461325836539 -1.6039299745414213  4.8774074997934029 -1.4568055608537729  4.8548703553056924 -1.3013364404466476  4.8328745211366977 -1.1380415170153979  4.8114474010474897 -0.96750282668767018  4.7905641429735057 -0.78998170555145442  4.7702178210135058 -0.60579431270419404  4.7503994636067794 -0.41525325328162471  4.7310992829276843 -0.21866118531863774  4.7185705876106709 -0.083759430613502023  4.7123889826462939 -0.015397448252250026 
 4.7485029452305097e-18 4 0.00032370843842589685 1 0.00064741687685178893 1 0.00097112531527768101 1 0.0012948337537035731 1 0.0016185421921294653 1 0.0019422506305553572 1 0.0022659590689812492 1 0.0025896675074071414 1 0.0029133759458330336 1 0.0032370843842589258 1 0.0035607928226848175 1 0.0038845012611107097 1 0.0042082096995366015 1 0.0045319181379624932 1 0.0048556265763883858 1 0.0051793350148142776 1 0.0055030434532401694 1 0.005826751891666062 1 0.0061504603300919537 1 0.0064741687685178463 1 0.0067978772069437381 1 0.0071215856453696299 4
7 0 0  3 25 23  4.7123889826462939 -0.015397448252250026  4.7062167799220456 -0.083655646113164894  4.6937137129234783 -0.21830000058595311  4.6744747208185151 -0.41435653889835566  4.6547425642206717 -0.60421217929413928  4.6345097509951954 -0.78756563929910828  4.6137698339986004 -0.96410888970605968  4.5925176921142921 -1.1335262987471031  4.5707496885607517 -1.295495137843852  4.5484638572354008 -1.4496855637186008  4.525660142420743 -1.5957618165907632  4.5023404252687955 -1.7333796062940274  4.478509359941711 -1.86219810099209  4.4541721725949142 -1.9818379238400365  4.4293354074188871 -2.0918772971386987  4.4040107705797329 -2.1919230458081587  4.3782105670793836 -2.2815721989018467  4.3519570013345366 -2.3604122335539577  4.325250300011156 -2.4280647456926081  4.2983099276920553 -2.4837138741192653  4.2711538956523531 -2.52726610784091  4.2438244702790255 -2.5585461459846748  4.216359337819612 -2.5774151840310346  4.197986015784628 -2.5816357741705982  4.1887902047863896 -2.5816346301309459 
 3.2059351086642201e-12 4 0.00032379504055595257 1 0.00064759007790597006 1 0.00097138511525598754 1 0.001295180152606005 1 0.0016189751899560226 1 0.00194277022730604 1 0.0022665652646560574 1 0.002590360302006075 1 0.0029141553393560926 1 0.0032379503767061102 1 0.0035617454140561273 1 0.0038855404514061449 1 0.004209335488756163 1 0.0045331305261061801 1 0.0048569255634561981 1 0.0051807206008062153 1 0.0055045156381562325 1 0.0058283106755062505 1 0.0061521057128562677 1 0.0064759007502062857 1 0.0067996957875563029 1 0.00712349082490632 4
7 0 0  3 25 23  4.1887902047863896 -2.5816346301309459  4.1795978231691828 -2.5816355408935108  4.1612565279779483 -2.5774040955756163  4.1339118647425126 -2.5585979411006194  4.1067720284491793 -2.527569518238193  4.0798722145977839 -2.4845698808197625  4.053245758057999 -2.4298583421441347  4.0269237219904674 -2.3637028231686292  4.0009348180370754 -2.2863785855330274  3.9753051531549874 -2.1981666978205481  3.9500585922370526 -2.0993550029609618  3.9252150812487803 -1.9902292843106597  3.9007967527566327 -1.8711011821466224  3.8768051658831388 -1.742199055358393  3.8532637709073456 -1.6039299517214267  3.8302099446646785 -1.4568055347927813  3.8076727999935858 -1.3013364110206787  3.7856769656584266 -1.1380414841293902  3.7642498454161806 -0.96750279023871733  3.7433665871691351 -0.78998166515034496  3.723020265171022 -0.60579426943191828  3.7032019079743299 -0.41525320953577222  3.6839017278653583 -0.21866114496364339  3.6713730332321406 -0.083759396133644387  3.6651914287022866 -0.015397417868858026 
 4.7534687479585801e-18 4 0.00032370844241757325 1 0.00064741688483514173 1 0.00097112532725271016 1 0.0012948337696702787 1 0.0016185422120878472 1 0.0019422506545054155 1 0.0022659590969229841 1 0.0025896675393405526 1 0.0029133759817581211 1 0.0032370844241756897 1 0.0035607928665932582 1 0.0038845013090108263 1 0.0042082097514283944 1 0.0045319181938459629 1 0.0048556266362635315 1 0.0051793350786811 1 0.0055030435210986686 1 0.0058267519635162371 1 0.0061504604059338056 1 0.0064741688483513742 1 0.0067978772907689427 1 0.0071215857331865104 4
7 0 0  3 25 23  3.6651914287022866 -0.015397417868858026  3.6590192257269245 -0.083655621700047297  3.6465161582897001 -0.21829998687523922  3.6272771657000655 -0.4143565378900147  3.6075450087737395 -0.60421218800531418  3.5873121953579257 -0.78756565509721455  3.5665722782906042 -0.96410891029616108  3.5453201364362261 -1.1335263221568723  3.5235521329940047 -1.2954951624076443  3.5012663018421795 -1.4496855880634723  3.4784625872435955 -1.5957618396117224  3.4551428703332006 -1.7333796271664277  3.4313118052485208 -1.8621981190435661  3.4069746181518354 -1.9818379389442971  3.3821378532536821 -2.0918773095352927  3.356813216709349 -2.1919230556878175  3.3310130135175755 -2.2815722065133062  3.3047594480899161 -2.3604122391691371  3.2780527470852556 -2.4280647496159964  3.2511123750960156 -2.4837138766350049  3.2239563433953489 -2.527266109245887  3.1966269183691436 -2.558546146584844  3.1691617862634986 -2.5774151841416  3.1507884644677846 -2.5816357741705311  3.1415926535897931 -2.5816346301309538 
 0 4 0.00032379503323666867 1 0.00064759006647333733 1 0.00097138509971000605 1 0.0012951801329466747 1 0.0016189751661833433 1 0.0019427701994200121 1 0.0022665652326566807 1 0.0025903602658933493 1 0.0029141552991300179 1 0.0032379503323666865 1 0.0035617453656033552 1 0.0038855403988400242 1 0.0042093354320766928 1 0.0045331304653133614 1 0.00485692549855003 1 0.0051807205317866986 1 0.0055045155650233673 1 0.0058283105982600359 1 0.0061521056314967045 1 0.0064759006647333731 1 0.0067996956979700417 1 0.0071234907312067103 4
7 0 0  3 25 23  3.1415926535897931 -2.5816346301309538  3.1324002720859427 -2.5816355408934748  3.11405897712033 -2.5774040956803899  3.086714314218721 -2.5585979416678413  3.0595744782532468 -2.527569519563817  3.0326746647225185 -2.4845698831898004  3.0060482084950664 -2.4298583458342882  2.9797261727305204 -2.3637028284439792  2.9537372690698809 -2.2863785926475755  2.9281076044695475 -2.1981667070172355  2.9028610438217726 -2.0993550144714312  2.8780175330914592 -1.9902292983546122  2.8535992048451355 -1.8711011989344206  2.8296076182034584 -1.7421990750809127  2.8060662234433376 -1.603929974541435  2.7830123974001997 -1.4568055608538015  2.7604752529124879 -1.3013364404466472  2.7384794187434962 -1.1380415170154017  2.7170522986542855 -0.96750282668767906  2.696169040580302 -0.78998170555143865  2.6758227186203012 -0.60579431270419715  2.6560043612135744 -0.4152532532816125  2.6367041805344802 -0.21866118531863774  2.6241754852174672 -0.08375943061351529  2.6179938802530907 -0.015397448252271712 
 3.5937455810071401e-19 4 0.00032370843842589766 1 0.00064741687685179489 1 0.00097112531527769217 1 0.0012948337537035896 1 0.001618542192129487 1 0.0019422506305553841 1 0.0022659590689812813 1 0.0025896675074071787 1 0.0029133759458330761 1 0.0032370843842589735 1 0.0035607928226848704 1 0.0038845012611107678 1 0.0042082096995366648 1 0.0045319181379625617 1 0.0048556265763884596 1 0.0051793350148143565 1 0.0055030434532402535 1 0.0058267518916661513 1 0.0061504603300920483 1 0.0064741687685179461 1 0.0067978772069438431 1 0.00712158564536974 4
7 0 0  3 25 23  2.6179938802530907 -0.015397448252271712  2.611821677460481 -0.083655645022066891  2.5993186103546968 -0.21829999769633784  2.5800796181610326 -0.41435653432300884  2.5603474615298283 -0.60421217390941195  2.5401146483109156 -0.78756563383365485  2.5193747313466295 -0.96410888473375855  2.4981225895078443 -1.1335262946791245  2.4763545860024463 -1.295495134921071  2.4540687547195961 -1.4496855620080986  2.431265039935981 -1.5957618159704994  2.40794532280146 -1.7333796064872136  2.3841142574768606 -1.8621981014219575  2.3597770701292164 -1.9818379241626118  2.3349403049560444 -2.0918772974346713  2.3096156681212019 -2.1919230460493697  2.2838154646268123 -2.2815721990937794  2.2575618988890809 -2.3604122336973403  2.2308551975736211 -2.4280647457933502  2.2039148252627525 -2.483713874184299  2.176758793231639 -2.5272661078774439  2.1494293678672061 -2.5585461460003933  2.1219642354169692 -2.5774151840339532  2.1035909133882624 -2.5816357741705969  2.0943951023931975 -2.5816346301309521 
 5.3075636377650703e-12 4 0.0003237950426931603 1 0.00064759008007875696 1 0.00097138511746435363 1 0.0012951801548499503 1 0.0016189751922355471 1 0.0019427702296211436 1 0.0022665652670067404 1 0.0025903603043923372 1 0.0029141553417779339 1 0.0032379503791635307 1 0.0035617454165491271 1 0.0038855404539347238 1 0.0042093354913203202 1 0.0045331305287059165 1 0.0048569255660915137 1 0.0051807206034771101 1 0.0055045156408627064 1 0.0058283106782483036 1 0.0061521057156339 1 0.0064759007530194972 1 0.0067996957904050935 1 0.0071234908277906898 4
7 0 0  3 25 23  0.5235987755983007 -2.5816346301309521  0.51440639403229338 -2.5816355408934837  0.49606509894296658 -2.57740409562293  0.46872043585831213 -2.5585979413568478  0.44158059971306302 -2.5275695188369269  0.41468078600650332 -2.4845698818902591  0.38805432960779129 -2.4298583438108454  0.3617322936771088 -2.3637028255513735  0.33574338985594504 -2.2863785887464525  0.31011372510111812 -2.1981667019744418  0.2848671643052057 -2.0993550081599079  0.26002365343344719 -1.9902292906539296  0.23560532505232967 -1.8711011897291969  0.21161373828354565 -1.7421990642665395  0.18807234340516416 -1.6039299620285867  0.16501851725262903 -1.456805546564153  0.14248137266427766 -1.3013364243103418  0.12048553840436074 -1.13804149898673  0.099058418230274156 -0.96750280668502597  0.078175160096176644 -0.78998168373198374  0.057828838180955279 -0.60579428981490036  0.038010480881260821 -0.41525323063491265  0.018710300741127422 -0.2186611648414227  0.0061816052831124135 -0.083759413302094382  0 -0.01539743306053234 
 8.7949863971644008e-19 4 0.00032370844061464262 1 0.00064741688122928436 1 0.00097112532184392606 1 0.0012948337624585679 1 0.0016185422030732097 1 0.0019422506436878513 1 0.0022659590843024931 1 0.0025896675249171349 1 0.0029133759655317767 1 0.0032370844061464185 1 0.0035607928467610603 1 0.0038845012873757016 1 0.0042082097279903434 1 0.0045319181686049852 1 0.004855626609219627 1 0.0051793350498342688 1 0.0055030434904489106 1 0.0058267519310635525 1 0.0061504603716781943 1 0.0064741688122928361 1 0.0067978772529074779 1 0.0071215856935221197 4
1 6.2831853071795862 -1.1369794669079027 -1 0 
1 3.1415926535897931 -1.9379796596588026 -1 0 
7 0 0  3 25 23  1.5707963267948961 -0.015397423241352185  1.5769685294621612 -0.083655622978931532  1.589471596335998 -0.2182999809900798  1.6087105882326289 -0.41435652399418321  1.6284427446122673 -0.60421216849730874  1.6486755576199295 -0.787565632048294  1.6694154744083809 -0.96410888545789142  1.6906676161022158 -1.1335262969706137  1.7124356194894725 -1.2954951380150999  1.73472145067738 -1.4496855653185845  1.7575251653865849 -1.5957618190936855  1.7808448824641296 -1.7333796091955844  1.8046759477512844 -1.8621981036928157  1.8290131350677896 -1.981837926075589  1.8538499002040627 -2.0918772989947199  1.8791745370005049 -2.1919230472888689  1.9049747404549862 -2.2815722000445149  1.9312283061523878 -2.3604122343965819  1.9579350074284076 -2.4280647462826273  1.9848753796982928 -2.4837138744982474  2.0120314116872211 -2.5272661080529608  2.039360837008378 -2.5585461460754386  2.0668259694144262 -2.5774151840477915  2.0851992914131925 -2.5816357741705853  2.0943951023931966 -2.5816346301309547 
 5.4898170347372296e-19 4 0.00032379503685056138 1 0.00064759007370112222 1 0.00097138511055168311 1 0.001295180147402244 1 0.0016189751842528048 1 0.0019427702211033658 1 0.0022665652579539263 1 0.0025903602948044871 1 0.0029141553316550479 1 0.0032379503685056087 1 0.0035617454053561695 1 0.0038855404422067307 1 0.0042093354790572919 1 0.0045331305159078527 1 0.0048569255527584135 1 0.0051807205896089743 1 0.005504515626459535 1 0.0058283106633100958 1 0.0061521057001606566 1 0.0064759007370112174 1 0.0067996957738617782 1 0.0071234908107123398 4
7 0 0  3 25 23  3.6651914291880932 -2.5816346301309547  3.6743838107942755 -2.5816355408935134  3.6927251059635657 -2.5774040955858122  3.7200697691665314 -2.5585979411558046  3.7472096054279795 -2.5275695183671312  3.774109419248187 -2.4845698810502888  3.8007358757575918 -2.4298583425030467  3.8270579117956571 -2.3637028236817397  3.8530468157205764 -2.2863785862250059  3.8786764805752596 -2.1981666987150521  3.9039230414669204 -2.099355004080492  3.9287665524301016 -1.9902292856766093  3.9531848808983425 -1.8711011837794151  3.9771764677492816 -1.7421990572766821  4.0007178627041098 -1.6039299539409042  4.0237716889273232 -1.4568055373280062  4.046308833580845 -1.30133641388063  4.0683046678990706 -1.1380414873338438  4.0897317881297406 -0.96750279375629611  4.1106150462962594 -0.78998166962896887  4.1309613682065542 -0.60579427502041794  4.1507797253474328 -0.41525321599723714  4.1700799054737301 -0.21866115160600297  4.1826086001905765 -0.083759402112879827  4.1887902047863896 -0.015397423241366216 
 1.7347234759768102e-18 4 0.00032370844202934073 1 0.00064741688405867972 1 0.00097112532608801877 1 0.0012948337681173577 1 0.0016185422101466966 1 0.0019422506521760358 1 0.0022659590942053745 1 0.0025896675362347137 1 0.0029133759782640528 1 0.0032370844202933916 1 0.0035607928623227307 1 0.0038845013043520699 1 0.004208209746381409 1 0.0045319181884107473 1 0.0048556266304400865 1 0.0051793350724694256 1 0.0055030435144987648 1 0.0058267519565281039 1 0.0061504603985574422 1 0.0064741688405867814 1 0.0067978772826161205 1 0.0071215857246454597 4
7 0 0  3 25 23  4.1887902047863896 -0.015397423241366216  4.1949624074536542 -0.083655622978943925  4.2074654743274902 -0.21829998099008946  4.2267044662241231 -0.41435652399419209  4.2464366226037615 -0.60421216849730885  4.2666694356114228 -0.7875656320483152  4.2874093523998749 -0.96410888545789653  4.3086614940937089 -1.1335262969706035  4.3304294974809663 -1.2954951380151218  4.352715328668876 -1.4496855653185881  4.3755190433780786 -1.5957618190936882  4.3988387604556234 -1.7333796091956097  4.4226698257427772 -1.8621981036928021  4.4470070130592827 -1.9818379260755963  4.4718437781955558 -2.0918772989947261  4.4971684149919975 -2.1919230472888773  4.5229686184464795 -2.2815722000445176  4.5492221841438818 -2.3604122343965872  4.5759288854199012 -2.4280647462825913  4.6028692576897852 -2.4837138744982408  4.6300252896787146 -2.5272661080529573  4.6573547149998697 -2.5585461460754373  4.6848198474059206 -2.577415184047803  4.7031931694046856 -2.5816357741705915  4.7123889803846897 -2.5816346301309538 
 1.6457031883953299e-17 4 0.00032379503685057574 1 0.00064759007370113501 1 0.00097138511055169427 1 0.0012951801474022535 1 0.0016189751842528128 1 0.0019427702211033721 1 0.0022665652579539316 1 0.0025903602948044906 1 0.0029141553316550496 1 0.0032379503685056091 1 0.0035617454053561686 1 0.0038855404422067277 1 0.0042093354790572867 1 0.0045331305159078466 1 0.0048569255527584057 1 0.0051807205896089647 1 0.0055045156264595238 1 0.0058283106633100828 1 0.0061521057001606427 1 0.0064759007370112018 1 0.0067996957738617608 1 0.0071234908107123199 4
7 0 0  3 25 23  4.7123889803846897 -2.5816346301309538  4.7215813619908715 -2.5816355408935112  4.7399226571601618 -2.5774040955858109  4.7672673203631302 -2.5585979411558042  4.7944071566245743 -2.5275695183671494  4.821306970444784 -2.4845698810502852  4.8479334269541887 -2.4298583425030498  4.8742554629922559 -2.3637028236817392  4.9002443669171747 -2.2863785862250072  4.9258740317718566 -2.1981666987150374  4.9511205926635196 -2.099355004080488  4.9759641036266995 -1.9902292856765991  5.0003824320949439 -1.8711011837794143  5.0243740189458803 -1.7421990572766612  5.0479154139007081 -1.6039299539408609  5.0709692401239215 -1.4568055373279867  5.093506384777446 -1.3013364138805346  5.1155022190956707 -1.1380414873338176  5.1369293393263424 -0.96750279375623327  5.1578125974928559 -0.78998166962894034  5.1781589194031552 -0.60579427502040228  5.1979772765440293 -0.41525321599720089  5.217277456670331 -0.21866115160598817  5.2298061513871783 -0.083759402112872569  5.2359877559829906 -0.015397423241358562 
 5.4954425107706095e-20 4 0.00032370844202934143 1 0.00064741688405868286 1 0.0009711253260880243 1 0.0012948337681173655 1 0.0016185422101467068 1 0.0019422506521760484 1 0.0022659590942053897 1 0.002589667536234731 1 0.0029133759782640723 1 0.0032370844202934137 1 0.003560792862322755 1 0.0038845013043520967 1 0.0042082097463814376 1 0.0045319181884107794 1 0.0048556266304401203 1 0.005179335072469462 1 0.0055030435144988038 1 0.0058267519565281447 1 0.0061504603985574864 1 0.0064741688405868273 1 0.0067978772826161691 1 0.00712158572464551 4
7 0 0  3 25 23  5.2359877559829906 -0.015397423241358562  5.2421599586502552 -0.083655622978934058  5.254663025524092 -0.21829998099007647  5.2739020174207196 -0.414356523994176  5.2936341738003607 -0.60421216849727877  5.3138669868080219 -0.78756563204828534  5.3346069035964749 -0.96410888545787232  5.3558590452903054 -1.133526296970615  5.3776270486775664 -1.2954951380151052  5.3999128798654734 -1.4496855653185521  5.4227165945746769 -1.5957618190936615  5.4460363116522217 -1.7333796091955878  5.4698673769393755 -1.8621981036928044  5.4942045642558801 -1.981837926075585  5.519041329392155 -2.0918772989947092  5.5443659661885949 -2.1919230472888631  5.5701661696430778 -2.2815722000444865  5.5964197353404783 -2.3604122343965379  5.6231264366164959 -2.4280647462825176  5.6500668088863844 -2.483713874498132  5.6772228408753094 -2.5272661080529004  5.7045522661964689 -2.5585461460753436  5.7320173986025154 -2.5774151840477257  5.7503907206012812 -2.5816357741705516  5.7595865315812853 -2.5816346301309423 
 0 4 0.00032379503685055683 1 0.00064759007370111365 1 0.00097138511055167042 1 0.0012951801474022273 1 0.0016189751842527842 1 0.0019427702211033408 1 0.0022665652579538977 1 0.0025903602948044546 1 0.0029141553316550115 1 0.0032379503685055684 1 0.0035617454053561252 1 0.0038855404422066817 1 0.004209335479057239 1 0.0045331305159077954 1 0.0048569255527583528 1 0.0051807205896089092 1 0.0055045156264594657 1 0.005828310663310023 1 0.0061521057001605794 1 0.0064759007370111367 1 0.0067996957738616932 1 0.0071234908107122496 4
7 0 0  3 25 23  4.1887902047863887 -2.5816346301309423  4.1979825863925706 -2.5816355408935103  4.2163238815618618 -2.5774040955858064  4.2436685447648266 -2.5585979411557616  4.2708083810262734 -2.5275695183670863  4.297708194846483 -2.4845698810502665  4.3243346513558896 -2.4298583425029787  4.3506566873939532 -2.3637028236816993  4.3766455913188711 -2.2863785862249197  4.4022752561735556 -2.1981666987149833  4.4275218170652177 -2.0993550040803997  4.4523653280283977 -1.9902292856765664  4.4767836564966403 -1.871101183779335  4.5007752433475776 -1.7421990572766126  4.5243166383024063 -1.6039299539408012  4.5473704645256179 -1.4568055373279354  4.5699076091791433 -1.3013364138804984  4.5919034434973671 -1.1380414873337525  4.6133305637280388 -0.96750279375616122  4.634213821894555 -0.78998166962885785  4.6545601438048498 -0.60579427502032868  4.6743785009457284 -0.41525321599715825  4.6936786810720266 -0.21866115160598093  4.7062073757888738 -0.083759402112867809  4.712388980384687 -0.015397423241344532 
 4.6708859064701699e-18 4 0.00032370844202934534 1 0.00064741688405868601 1 0.00097112532608802668 1 0.0012948337681173675 1 0.0016185422101467081 1 0.0019422506521760488 1 0.0022659590942053893 1 0.0025896675362347302 1 0.002913375978264071 1 0.0032370844202934115 1 0.003560792862322752 1 0.0038845013043520928 1 0.0042082097463814333 1 0.0045319181884107733 1 0.0048556266304401142 1 0.0051793350724694551 1 0.005503043514498796 1 0.0058267519565281369 1 0.0061504603985574769 1 0.0064741688405868178 1 0.0067978772826161587 1 0.0071215857246454996 4
7 0 0  3 25 23  4.712388980384687 -0.015397423241344532  4.7185611830519525 -0.083655622978907787  4.7310642499257884 -0.21829998099003903  4.7503032418224214 -0.41435652399414508  4.7700353982020589 -0.60421216849727  4.7902682112097201 -0.78756563204827013  4.811008127998174 -0.96410888545784545  4.8322602696920072 -1.1335262969705899  4.8540282730792645 -1.2954951380150759  4.8763141042671743 -1.449685565318575  4.8991178189763778 -1.5957618190936509  4.9224375360539208 -1.7333796091955755  4.9462686013410773 -1.862198103692789  4.9706057886575827 -1.9818379260755827  4.9954425537938558 -2.0918772989947079  5.0207671905902984 -2.19192304728886  5.0465673940447795 -2.2815722000444603  5.0728209597421801 -2.3604122343965468  5.0995276610181994 -2.4280647462824847  5.1264680332880843 -2.4837138744981409  5.153624065277012 -2.5272661080528636  5.1809534905981707 -2.5585461460753827  5.2084186230042189 -2.5774151840477466  5.2267919450029856 -2.5816357741705587  5.2359877559829897 -2.581634630130945 
 3.5003033895801697e-18 4 0.00032379503685056517 1 0.00064759007370112677 1 0.00097138511055168842 1 0.0012951801474022501 1 0.0016189751842528117 1 0.0019427702211033734 1 0.002266565257953935 1 0.0025903602948044967 1 0.0029141553316550583 1 0.00323795036850562 1 0.0035617454053561816 1 0.0038855404422067433 1 0.0042093354790573049 1 0.0045331305159078666 1 0.0048569255527584282 1 0.0051807205896089899 1 0.0055045156264595515 1 0.0058283106633101132 1 0.0061521057001606748 1 0.0064759007370112365 1 0.0067996957738617981 1 0.0071234908107123598 4
7 0 0  3 25 23  5.2359877559829897 -2.581634630130945  5.2451801375891725 -2.5816355408934832  5.263521432758461 -2.5774040955857624  5.2908660959614284 -2.5585979411557624  5.3180059322228761 -2.527569518367077  5.3449057460430831 -2.4845698810502554  5.3715322025524896 -2.4298583425029916  5.3978542385905515 -2.3637028236816922  5.4238431425154738 -2.2863785862249522  5.4494728073701557 -2.1981666987149957  5.474719368261816 -2.0993550040804538  5.4995628792249969 -1.9902292856765462  5.5239812076932413 -1.8711011837794338  5.5479727945441759 -1.7421990572766362  5.5715141894990055 -1.6039299539408576  5.5945680157222171 -1.4568055373279822  5.6171051603757398 -1.3013364138805383  5.6391009946939654 -1.1380414873337945  5.6605281149246327 -0.9675027937562547  5.6814113730911524 -0.78998166962893668  5.7017576950014472 -0.60579427502039029  5.7215760521423258 -0.41525321599718557  5.7408762322686231 -0.21866115160598196  5.753404926985473 -0.083759402112871667  5.7595865315812853 -0.015397423241358562 
 6.4907409078987903e-18 4 0.00032370844202934485 1 0.00064741688405868319 1 0.00097112532608802159 1 0.0012948337681173599 1 0.0016185422101466982 1 0.0019422506521760367 1 0.002265959094205375 1 0.0025896675362347132 1 0.0029133759782640515 1 0.0032370844202933898 1 0.0035607928623227281 1 0.0038845013043520668 1 0.0042082097463814047 1 0.004531918188410743 1 0.0048556266304400813 1 0.0051793350724694195 1 0.0055030435144987578 1 0.0058267519565280961 1 0.0061504603985574344 1 0.0064741688405867727 1 0.006797877282616111 1 0.0071215857246454501 4
7 0 0  3 25 23  6.2831853071795862 -2.5816346301309538  6.2739929255734035 -2.5816355408935108  6.2556516304041132 -2.5774040955858104  6.2283069672011475 -2.5585979411558064  6.2011671309396972 -2.5275695183671312  6.1742673171194919 -2.4845698810502879  6.1476408606100836 -2.4298583425030493  6.12131882457202 -2.363702823681737  6.0953299206471021 -2.286378586225013  6.0697002557924158 -2.198166698715017  6.0444536949007555 -2.0993550040805005  6.0196101839375755 -1.9902292856765627  5.9951918554693329 -1.8711011837794371  5.9712002686183956 -1.7421990572766566  5.947658873663566 -1.6039299539408651  5.9246050474403527 -1.4568055373279842  5.9020679027868308 -1.3013364138805221  5.8800720684686052 -1.1380414873338167  5.8586449482379335 -0.96750279375624826  5.8377616900714182 -0.78998166962893024  5.8174153681611207 -0.60579427502036109  5.7975970110202448 -0.41525321599718096  5.7782968308939466 -0.21866115160597613  5.7657681361770967 -0.08375940211286878  5.7595865315812853 -0.015397423241358562 
 9.8757112674719891e-19 4 0.00032370844202934279 1 0.0006474168840586846 1 0.00097112532608802646 1 0.0012948337681173683 1 0.0016185422101467101 1 0.0019422506521760521 1 0.0022659590942053936 1 0.0025896675362347354 1 0.0029133759782640771 1 0.0032370844202934189 1 0.0035607928623227606 1 0.0038845013043521028 1 0.0042082097463814446 1 0.0045319181884107863 1 0.0048556266304401281 1 0.0051793350724694699 1 0.0055030435144988116 1 0.0058267519565281534 1 0.0061504603985574951 1 0.0064741688405868369 1 0.0067978772826161786 1 0.0071215857246455204 4
7 0 0  3 25 23  2.0943951023931953 -0.015397423241371319  2.0882228997259307 -0.083655622978948629  2.0757198328520938 -0.21829998099009312  2.0564808409554631 -0.41435652399419515  2.0367486845758247 -0.60421216849730852  2.016515871568163 -0.78756563204831986  1.9957759547797105 -0.96410888545788564  1.9745238130858771 -1.1335262969706421  1.9527558096986197 -1.2954951380150983  1.9304699785107118 -1.4496855653185843  1.9076662638015065 -1.5957618190936833  1.8843465467239628 -1.7333796091955964  1.8605154814368075 -1.8621981036928168  1.8361782941203031 -1.9818379260755969  1.8113415289840298 -2.0918772989947261  1.786016892187587 -2.1919230472888831  1.7602166887331063 -2.2815722000444878  1.7339631230357042 -2.3604122343965828  1.7072564217596857 -2.4280647462825291  1.6803160494898 -2.483713874498195  1.6531600175008718 -2.5272661080529151  1.6258305921797156 -2.55854614607542  1.5983654597736665 -2.5774151840478057  1.5799921377749004 -2.5816357741705964  1.5707963267948963 -2.5816346301309538 
 1.89434662989387e-17 4 0.00032379503685057802 1 0.00064759007370113718 1 0.00097138511055169633 1 0.0012951801474022553 1 0.0016189751842528143 1 0.0019427702211033736 1 0.0022665652579539329 1 0.0025903602948044919 1 0.0029141553316550509 1 0.00323795036850561 1 0.003561745405356169 1 0.0038855404422067285 1 0.0042093354790572876 1 0.0045331305159078466 1 0.0048569255527584057 1 0.0051807205896089647 1 0.0055045156264595238 1 0.0058283106633100828 1 0.0061521057001606419 1 0.0064759007370112009 1 0.00679969577386176 1 0.0071234908107123199 4
7 0 0  3 25 23  2.0943951023931953 -0.015397423241371319  2.1005673050604599 -0.083655622978947908  2.1130703719342963 -0.21829998099008971  2.132309363830927 -0.41435652399418532  2.1520415202105658 -0.60421216849730519  2.172274333218227 -0.78756563204830632  2.1930142500066792 -0.96410888545790552  2.2142663917005123 -1.1335262969706117  2.2360343950877701 -1.2954951380151163  2.2583202262756781 -1.4496855653185878  2.2811239409848834 -1.5957618190936937  2.3044436580624272 -1.7333796091956037  2.3282747233495811 -1.8621981036927706  2.352611910666087 -1.9818379260756083  2.3774486758023592 -2.091877298994727  2.4027733125988022 -2.1919230472888671  2.4285735160532829 -2.2815722000444998  2.4548270817506839 -2.3604122343965575  2.4815337830267028 -2.4280647462825646  2.508474155296589 -2.483713874498179  2.5356301872855149 -2.5272661080529506  2.5629596126066732 -2.5585461460754342  2.5904247450127214 -2.5774151840477817  2.6087980670114881 -2.5816357741705764  2.6179938779914926 -2.5816346301309512 
 1.9394798072244298e-18 4 0.00032379503685055959 1 0.00064759007370111723 1 0.00097138511055167487 1 0.0012951801474022325 1 0.0016189751842527903 1 0.0019427702211033478 1 0.0022665652579539051 1 0.0025903602948044628 1 0.0029141553316550206 1 0.0032379503685055783 1 0.0035617454053561357 1 0.0038855404422066934 1 0.0042093354790572511 1 0.0045331305159078085 1 0.0048569255527583666 1 0.005180720589608924 1 0.0055045156264594813 1 0.0058283106633100394 1 0.0061521057001605968 1 0.0064759007370111549 1 0.0067996957738617123 1 0.0071234908107122696 4
7 0 0  3 25 23  1.0471975511965959 -2.5816346301309521  1.0563899328027782 -2.5816355408935108  1.0747312279720675 -2.5774040955858122  1.1020758911750344 -2.5585979411558082  1.129215727436482 -2.5275695183671565  1.1561155412566892 -2.4845698810503021  1.1827419977660951 -2.4298583425030618  1.2090640338041598 -2.363702823681773  1.2350529377290786 -2.286378586225033  1.260682602583763 -2.1981666987150397  1.2859291634754237 -2.0993550040805284  1.3107726744386052 -1.9902292856765864  1.3351910029068488 -1.8711011837794589  1.3591825897577863 -1.7421990572766755  1.3827239847126154 -1.6039299539408731  1.4057778109358272 -1.4568055373279878  1.4283149555893515 -1.3013364138805155  1.4503107899075764 -1.1380414873338027  1.4717379101382471 -0.96750279375623383  1.4926211683047628 -0.78998166962891792  1.5129674902150596 -0.60579427502036409  1.532785847355937 -0.41525321599718873  1.5520860274822355 -0.21866115160598804  1.5646147221990838 -0.08375940211287157  1.5707963267948961 -0.015397423241352185 
 8.6736173798840393e-19 4 0.00032370844202934268 1 0.00064741688405868449 1 0.00097112532608802636 1 0.0012948337681173681 1 0.0016185422101467099 1 0.0019422506521760518 1 0.0022659590942053936 1 0.0025896675362347354 1 0.0029133759782640771 1 0.0032370844202934189 1 0.0035607928623227606 1 0.0038845013043521028 1 0.0042082097463814446 1 0.0045319181884107863 1 0.0048556266304401281 1 0.0051793350724694699 1 0.0055030435144988116 1 0.0058267519565281534 1 0.0061504603985574951 1 0.0064741688405868369 1 0.0067978772826161786 1 0.0071215857246455204 4
1 6.2831853071795862 0 -1 0 
1 9.4247779607693793 -15.233105729093197 -1 0 
1 -4.4408920985006262e-16 -2.5816346301309459 1 -1.6962958301138767e-15 
1 0 -2.5816346301309538 1 0 
1 0 -2.5816346301309538 1 0 
1 -8.8817841970012523e-16 -2.5816346301309583 1 8.4814791505693443e-16 
1 0 -2.5816346301309538 1 0 
1 0 -2.5816346301309565 1 1.6962958301138789e-15 
1 6.2831853071795862 -15.207705729093192 -1 0 
Curves 80
2 62.655068487786203 3.7408358591173903e-15 4.4689669945726205e-16 -1 0 0 0 0 1 0 1 -0 8.1280000000000001
1 66.617468487786198 0.63771553007593096 8.1029440885828592 -1 0 0 
2 66.617468487786198 3.7408358591173903e-15 4.4689669945726205e-16 -1 0 0 0 0 1 0 1 -0 8.1280000000000001
1 66.617468487786198 2.74547581473056e-15 -8.1280000000000001 -1 -0 -0 
1 66.617468487786198 2.0736077847694501e-15 -13.6144 1 0 0 
2 62.655068487786203 3.7408358591173903e-15 4.4689669945726205e-16 -1 0 0 0 0 1 0 1 -0 13.6144
1 62.655068487786203 1.0681735128771801 13.5724313483763 1 0 0 
2 66.617468487786198 3.7408358591173903e-15 4.4689669945726205e-16 -1 0 0 0 0 1 0 1 -0 13.6144
2 62.655068487786203 3.7408358591173903e-15 4.4689669945726205e-16 -1 0 0 0 0 1 0 1 -0 13.6144
1 62.655068487786203 -0.63771553007592496 8.1029440885828592 1.5809305518890397e-16 -0.078459095727845693 0.99691733373312785 
2 62.655068487786203 3.7408358591173903e-15 4.4689669945726205e-16 -1 0 0 0 0 1 0 1 -0 8.1280000000000001
1 62.655068487786203 0.63771553007593096 8.1029440885828592 1.5809305518890397e-16 0.078459095727845402 0.99691733373312785 
2 66.617468487786198 3.7408358591173903e-15 4.4689669945726205e-16 -1 0 0 0 0 1 0 1 -0 13.6144
1 62.655068487786203 -1.0681735128771801 13.5724313483763 1 0 0 
2 66.617468487786198 3.7408358591173903e-15 4.4689669945726205e-16 -1 0 0 0 0 1 0 1 -0 8.1280000000000001
1 66.617468487786198 -1.0681735128771801 13.5724313483763 -1.34756954948571e-16 0.078459095727845693 -0.99691733373312785 
1 66.617468487786198 1.0681735128771801 13.5724313483763 -1.34756954948571e-16 -0.078459095727845402 -0.99691733373312785 
1 66.617468487786198 -0.63771553007592496 8.1029440885828592 -1 0 0 
1 66.617468487786198 6.0065757483503497e-15 8.9293700000000005 -0.57357643635104527 -9.7889297670616255e-19 0.81915204428899246 
2 66.617468487786198 6.0065757483503497e-15 2.0424775798501101e-16 -1 -1.7066478234943599e-18 1.60099747971987e-17 1.60099747971987e-17 5.3455294201843913e-51 1 -1.7066478234943599e-18 1 2.7323388641838713e-35 8.9293700000000005
1 66.617468487786198 7.1001081872405902e-15 -8.9293700000000005 -0.57357643635104527 9.933829992864646e-17 -0.81915204428899246 
2 67.729047954694096 6.00847282302819e-15 1.8645139873473199e-16 -1 -1.7066478234943599e-18 -1.3524794205398901e-17 -1.3524794205398901e-17 -5.0405449235691804e-35 1 -1.7066478234943599e-18 1 2.7323388641838638e-35 7.3418700000000001
2 66.617468487786198 5.9924264737730902e-15 2.0424775798501101e-16 1 9.5822791757964198e-18 -1.60099747971987e-17 -9.5822791757964198e-18 1 1.53412048104222e-34 1.60099747971987e-17 6.2008141274138939e-49 1 11.912599999999999
1 68.414057731786201 13.766542947297699 1.7548440946765301e-16 0.69591150623389531 0.71812754820524127 -1.1141525675885203e-17 
7 0 0  3 8 4  68.403342480952901 13.755485626445299 1.2213441652604601e-08  67.880819326459303 13.216281619025199 -0.93392874870975895  67.436205159529493 12.6643801432544 -1.8898501455169801  66.960693266627999 11.8053323525836 -3.3777645650886501  66.834440390995795 11.513705597424 -3.88287692187154  66.661987805941095 10.9174903382862 -4.9155520429460697  66.617468487786198 10.6178632437327 -5.4345213940368504  66.617468487786198 10.3166142251225 -5.9563000000000104 
 0 4 0.0035617453897493299 2 0.005342618084624 2 0.0071234907794986597 4
1 76.447268487786204 6.0233517551257303e-15 7.3418700000000001 -1 -1.7066478234943599e-18 1.60099747971987e-17 
1 76.447268487786204 6.9224715146513302e-15 -7.3418700000000001 -1 -1.7066478234943599e-18 1.60099747971987e-17 
2 75.310289020878301 6.0214113315931802e-15 6.5075920333636095e-17 -1 -1.7066478234943599e-18 1.60099747971987e-17 1.60099747971987e-17 5.3455294201843913e-51 1 -1.7066478234943599e-18 1 2.7323388641838713e-35 7.3418700000000001
1 76.421868487786199 6.0233084062710197e-15 -8.9293700000000005 0.57357643635104716 9.7889297670616428e-19 -0.81915204428899113 
2 76.421868487786199 6.0233084062710197e-15 4.7279561083356597e-17 -1 -1.7066478234943599e-18 1.60099747971987e-17 -1.60099747971987e-17 -5.3455294201843913e-51 -1 1.7066478234943599e-18 -1 -2.7323388641838713e-35 8.9293700000000005
1 76.421868487786199 7.1168408451612595e-15 8.9293700000000005 0.57357643635104716 1.0129608588205901e-16 0.81915204428899113 
1 91.654974216879395 6.0493059530086299e-15 8.9293700000000005 -1 -1.7066478234943599e-18 1.60099747971987e-17 
1 91.654974216879395 7.1428383918988705e-15 -8.9293700000000005 -1 -1.7066478234943599e-18 1.60099747971987e-17 
2 76.447268487786204 6.0233517551257303e-15 4.6872907723507798e-17 -1 -1.7066478234943599e-18 1.60099747971987e-17 1.60099747971987e-17 5.3455294201843913e-51 1 -1.7066478234943599e-18 1 2.7323388641838713e-35 8.9293700000000005
2 66.617468487786198 6.0065757483503497e-15 2.0424775798501101e-16 1 1.7066478234943599e-18 -1.60099747971987e-17 -1.60099747971987e-17 -5.3455294201843913e-51 -1 -1.7066478234943599e-18 1 2.7323388641838713e-35 11.912599999999999
2 66.617468487786198 6.0065757483503497e-15 2.0424775798501101e-16 1 1.7066478234943599e-18 -1.60099747971987e-17 -1.60099747971987e-17 -5.3455294201843913e-51 -1 -1.7066478234943599e-18 1 2.7323388641838713e-35 11.912599999999999
2 66.617468487786198 6.0065757483503497e-15 2.0424775798501101e-16 1 1.7066478234943599e-18 -1.60099747971987e-17 -1.60099747971987e-17 -5.3455294201843913e-51 -1 -1.7066478234943599e-18 1 2.7323388641838713e-35 11.912599999999999
2 66.617468487786198 6.0065757483503497e-15 2.0424775798501101e-16 1 1.7066478234943599e-18 -1.60099747971987e-17 -1.60099747971987e-17 -5.3455294201843913e-51 -1 -1.7066478234943599e-18 1 2.7323388641838713e-35 11.912599999999999
2 66.617468487786198 5.9924264737730902e-15 2.0424775798501101e-16 1 9.5822791757964198e-18 -1.60099747971987e-17 -9.5822791757964198e-18 1 1.53412048104222e-34 1.60099747971987e-17 6.2008141274138939e-49 1 11.912599999999999
2 66.617468487786198 6.0065757483503497e-15 2.0424775798501101e-16 1 1.7066478234943599e-18 -1.60099747971987e-17 -1.60099747971987e-17 -5.3455294201843913e-51 -1 -1.7066478234943599e-18 1 2.7323388641838713e-35 11.912599999999999
2 66.617468487786198 6.0065757483503497e-15 2.0424775798501101e-16 -1 -1.7066478234943599e-18 1.60099747971987e-17 1.60099747971987e-17 5.3455294201843913e-51 1 -1.7066478234943599e-18 1 2.7323388641838713e-35 8.9293700000000005
2 67.729047954694096 6.00847282302819e-15 1.8645139873473199e-16 -1 -1.7066478234943599e-18 -1.3524794205398901e-17 -1.3524794205398901e-17 -5.0405449235691804e-35 1 -1.7066478234943599e-18 1 2.7323388641838638e-35 7.3418700000000001
7 0 0  3 8 4  66.617468487786198 10.3166142251225 -5.9563000000000104  66.617468487786198 9.7143442550029704 -6.9994621881200301  66.796663258060903 9.1275649329295891 -8.0157937867819395  67.271274169722801 8.2651881315303797 -9.5094742220741004  67.4641060676107 7.9799609276286896 -10.0035022309326  67.899152821655093 7.4217160294467703 -10.9704107576498  68.141683194448504 7.1477552318714404 -11.4449247783324  68.403342491524995 6.8777428128901796 -11.912600006682499 
 1.7558730430671502e-18 4 0.0035607928665932599 2 0.0053411892998898999 2 0.0071215857331865303 4
7 0 0  3 8 4  68.403342491524995 6.8777428128901796 -11.912600006682499  67.880819310838405 5.7993347504343298 -11.912599999999999  67.436205149082397 4.6955318054744399 -11.912599999999999  66.960693262103902 2.9774362350969601 -11.912599999999999  66.834440388163003 2.3941827288656499 -11.912599999999999  66.661987805338896 1.20175221831252 -11.912599999999999  66.617468487786198 0.602498033160911 -11.912599999999999  66.617468487786198 5.6418696070867402e-15 -11.912599999999999 
 0 4 0.00356174536560333 2 0.005342618048405 2 0.0071234907312066704 4
7 0 0  3 8 4  66.617468487786198 5.6418696070867402e-15 -11.912599999999999  66.617468487786198 -1.20453992538579 -11.912599999999999  66.796663253605601 -2.3780985554495602 -11.912599999999999  67.271274154393097 -4.1028521378481804 -11.912599999999999  67.464106048006002 -4.6733065391366502 -11.912599999999999  67.899152793012107 -5.7897963233813901 -11.912599999999999  68.141683158217006 -6.3377179066917098 -11.912599999999999  68.403342470380807 -6.8777427808263401 -11.912599999999999 
 3.5937455810071401e-19 4 0.00356079282268488 2 0.0053411892340273102 2 0.0071215856453697504 4
7 0 0  3 8 4  68.403342470380807 -6.8777427808263401 -11.912599999999999  67.880819342469593 -7.4169468121325801 -10.9786712843504  67.436205168839194 -7.9688482932713596 -10.0227498782455  66.960693270657998 -8.8278960888313094 -8.5348354502056392  66.834440393509894 -9.1195228458386097 -8.0297230902224594  66.661987806476802 -9.7157381083979608 -6.9970479632216502  66.617468487786198 -10.015365204707001 -6.4780786090901001  66.617468487786198 -10.3166142251225 -5.9563000000000299 
 5.30756568004657e-12 4 0.0035617454165491201 2 0.0053426181221699004 2 0.0071234908277906803 4
7 0 0  3 8 4  66.617468487786198 -10.3166142251225 -5.9563000000000299  66.617468487786198 -10.918884187815401 -4.9131378247433499  66.796663253605601 -11.5056635028473 -3.8968062382776698  67.271274154393097 -12.368040294046599 -2.4031258206522801  67.464106048006002 -12.6532674946908 -1.90909781743583  67.899152793012107 -13.211512386813199 -0.94218930121409905  68.141683158217006 -13.4854731784683 -0.46767529078557901  68.403342470380807 -13.755485615535701 -3.1109472418864697e-08 
 4.7485029452305097e-18 4 0.0035607928226848102 2 0.00534118923402722 2 0.0071215856453696299 4
7 0 0  3 8 4  68.403342470380807 -13.755485615535701 -3.1109472418864697e-08  67.880819356133699 -13.2162816081687 0.93392870529510996  67.436205169177796 -12.6643801574465 1.8898501209355201  66.960693270877599 -11.805332361879801 3.37776454898715  66.834440393649203 -11.513705604792801 3.8828769091083299  66.661987806507597 -10.9174903420489 4.9155520364289096  66.617468487786198 -10.617863245642001 5.4345213907299197  66.617468487786198 -10.3166142251225 5.9563000000000201 
 3.2059351086642201e-12 4 0.0035617454140561299 2 0.00534261811948123 2 0.00712349082490632 4
7 0 0  3 8 4  66.617468487786198 -10.3166142251225 5.9563000000000201  66.617468487786198 -9.7143442550029899 6.9994621881200496  66.796663258060903 -9.1275649329296105 8.0157937867819609  67.271274169722901 -8.2651881315303992 9.5094742220741093  67.4641060676107 -7.9799609276287198 10.0035022309327  67.899152821655093 -7.4217160294467899 10.970410757649899  68.141683194448504 -7.1477552318714697 11.4449247783324  68.403342491524995 -6.8777428128902001 11.912600006682499 
 4.7534687479585801e-18 4 0.0035607928665932599 2 0.0053411892998898904 2 0.0071215857331865104 4
7 0 0  3 8 4  68.403342491524995 -6.8777428128902001 11.912600006682499  67.880819310838405 -5.79933475043436 11.912599999999999  67.436205149082397 -4.6955318054744604 11.912599999999999  66.960693262103902 -2.9774362350969699 11.912599999999999  66.834440388163003 -2.3941827288656499 11.912599999999999  66.661987805338896 -1.20175221831251 11.912599999999999  66.617468487786198 -0.602498033160903 11.912599999999999  66.617468487786198 7.1006941721411798e-15 11.912599999999999 
 0 4 0.00356174536560335 2 0.0053426180484050304 2 0.0071234907312067103 4
7 0 0  3 8 4  66.617468487786198 7.1006941721411798e-15 11.912599999999999  66.617468487786198 1.2045399253858 11.912599999999999  66.796663253605601 2.3780985554495699 11.912599999999999  67.271274154393097 4.1028521378481804 11.912599999999999  67.464106048006002 4.6733065391366502 11.912599999999999  67.899152793012107 5.7897963233813901 11.912599999999999  68.141683158217006 6.3377179066917098 11.912599999999999  68.403342470380807 6.8777427808263498 11.912599999999999 
 3.5937455810071401e-19 4 0.00356079282268487 2 0.0053411892340272998 2 0.00712158564536974 4
7 0 0  3 8 4  68.403342470380807 6.8777427808263498 11.912599999999999  67.880819342469593 7.4169468121325499 10.9786712843504  67.436205168839194 7.96884829327134 10.0227498782455  66.960693270657998 8.8278960888312792 8.5348354502056392  66.834440393509794 9.1195228458385902 8.0297230902224506  66.661987806476702 9.7157381083979395 6.9970479632216396  66.617468487786198 10.015365204707001 6.4780786090900904  66.617468487786198 10.3166142251225 5.9563000000000201 
 5.3075636377650703e-12 4 0.0035617454165491301 2 0.00534261812216991 2 0.0071234908277906898 4
7 0 0  3 8 4  66.617468487786198 10.3166142251225 5.9563000000000201  66.617468487786198 10.918884191887599 4.9131378176900098  66.796663256048603 11.5056635107806 3.8968062245367898  67.271274162798804 12.3680403075728 2.4031257972242099  67.464106058755505 12.6532675100029 1.90909779091447  67.899152808719407 13.21151240545 0.94218926893408605  68.141683176590405 13.485473198713199 0.467675255720441  68.403342480952901 13.755485626445299 1.2213441652604601e-08 
 8.7949863971644008e-19 4 0.0035607928467610598 2 0.0053411892701415902 2 0.0071215856935221197 4
2 75.310289020878301 6.0214113315931802e-15 6.5075920333636095e-17 -1 -1.7066478234943599e-18 1.60099747971987e-17 1.60099747971987e-17 5.3455294201843913e-51 1 -1.7066478234943599e-18 1 2.7323388641838713e-35 7.3418700000000001
7 0 0  3 8 4  74.661394487786197 13.755485633496701 6.2948251418996101e-15  75.1839176390164 13.2162816311026 -0.93392872779104197  75.628531809290394 12.664380153204799 -1.8898501282824001  76.104043706020093 11.805332358990601 -3.3777645539913501  76.230296582745495 11.5137056025099 -3.8828769130624701  76.402749169242 10.9174903408763 -4.9155520384597402  76.447268487786204 10.617863245044701 -5.4345213917644903  76.447268487786204 10.3166142251225 -5.9563000000000104 
 5.4898170347372296e-19 4 0.0035617454053561699 2 0.0053426181080342503 2 0.0071234908107123398 4
7 0 0  3 8 4  76.447268487786204 10.3166142251225 -5.9563000000000104  76.447268487786204 9.7143442557252904 -6.9994621868689499  76.268073717944802 9.1275649343367604 -8.0157937843446501  75.793462807340504 8.2651881339296001 -9.5094742179185303  75.600630909868897 7.97996093034513 -10.003502226227599  75.165584156700604 7.4217160327490497 -10.9704107519301  74.923053787106397 7.1477552384465799 -11.444924766943901  74.661394487786197 6.8777428167483503 -11.912599999999999 
 1.7347234759768102e-18 4 0.0035607928623227298 2 0.00534118929348409 2 0.0071215857246454597 4
1 76.447268487786204 6.8777428167483396 -11.912599999999999 -1 -1.7066478234943599e-18 1.60099747971987e-17 
1 76.447268487786204 13.755485633496701 7.26460157612338e-15 1 1.7066478234943599e-18 -1.60099747971987e-17 
7 0 0  3 8 4  74.661394487786197 6.8777428167483503 -11.912599999999999  75.1839176390164 5.7993348119601897 -11.912599999999999  75.628531809290394 4.6955318561645596 -11.912599999999999  76.104043706020093 2.9774362677361901 -11.912599999999999  76.230296582745495 2.3941827547747501 -11.912599999999999  76.402749169242 1.2017522315076701 -11.912599999999999  76.447268487786204 0.60249803984434502 -11.912599999999999  76.447268487786204 7.2306643755346101e-15 -11.912599999999999 
 1.6457031883953299e-17 4 0.0035617454053561699 2 0.0053426181080342399 2 0.0071234908107123199 4
7 0 0  3 8 4  76.447268487786204 7.2306643755346101e-15 -11.912599999999999  76.447268487786204 -1.20453993879443 -11.912599999999999  76.268073717944802 -2.3780985815714901 -11.912599999999999  75.793462807340504 -4.1028521823858197 -11.912599999999999  75.600630909868798 -4.6733065895547599 -11.912599999999999  75.165584156700604 -5.7897963847469196 -11.912599999999999  74.923053787106397 -6.3377179733518698 -11.912599999999999  74.661394487786197 -6.8777428167483601 -11.912599999999999 
 5.4954425107706095e-20 4 0.0035607928623227498 2 0.0053411892934841299 2 0.00712158572464551 4
1 76.447268487786204 -6.8777428167483601 -11.912599999999999 -1 -1.7066478234943599e-18 1.60099747971987e-17 
7 0 0  3 8 4  74.661394487786197 -6.8777428167483601 -11.912599999999999  75.1839176390164 -7.4169468191424404 -10.978671272209001  75.628531809290394 -7.9688482970402399 -10.0227498717176  76.104043706020093 -8.82789609125442 -8.5348354460086693  76.230296582745495 -9.1195228477351407 -8.02972308693756  76.402749169241901 -9.7157381093686901 -6.9970479615403001  76.447268487786104 -10.0153652052004 -6.4780786082355597  76.447268487786204 -10.3166142251225 -5.9563000000000299 
 0 4 0.00356174540535613 2 0.0053426181080341896 2 0.0071234908107122496 4
7 0 0  3 8 4  76.447268487786204 -10.3166142251225 -5.9563000000000299  76.447268487786104 -10.9188841945197 -4.9131378131311001  76.268073717944802 -11.505663515908299 -3.8968062156553902  75.793462807340404 -12.368040316315399 -2.4031257820815002  75.600630909868798 -12.653267519899901 -1.9090977737724  75.165584156700504 -13.211512417495999 -0.942189248069911  74.923053787106298 -13.4854732117984 -0.46767523305612602  74.661394487786197 -13.755485633496701 -3.3431646070779998e-14 
 4.6708859064701699e-18 4 0.0035607928623227498 2 0.0053411892934841299 2 0.0071215857246454996 4
1 76.447268487786204 -13.755485633496701 -6.5872619179395202e-14 -1 -1.7066478234943599e-18 1.60099747971987e-17 
7 0 0  3 8 4  74.661394487786197 -13.755485633496701 -3.3431646070779998e-14  75.1839176390163 -13.2162816311026 0.93392872779103797  75.628531809290394 -12.664380153204799 1.8898501282824001  76.104043706020093 -11.805332358990601 3.3777645539913599  76.230296582745495 -11.5137056025099 3.8828769130624798  76.402749169241901 -10.9174903408764 4.91555203845975  76.447268487786104 -10.617863245044701 5.4345213917645001  76.447268487786204 -10.3166142251225 5.9563000000000201 
 3.5003033895801697e-18 4 0.0035617454053561799 2 0.0053426181080342703 2 0.0071234908107123598 4
7 0 0  3 8 4  76.447268487786204 -10.3166142251225 5.9563000000000201  76.447268487786104 -9.7143442557253099 6.9994621868689597  76.268073717944802 -9.12756493433678 8.0157937843446696  75.793462807340504 -8.2651881339296196 9.5094742179185499  75.600630909868798 -7.9799609303451504 10.003502226227599  75.165584156700604 -7.4217160327490701 10.9704107519301  74.923053787106298 -7.1477552384466101 11.444924766943901  74.661394487786197 -6.8777428167483601 11.912599999999999 
 6.4907409078987903e-18 4 0.0035607928623227298 2 0.00534118929348409 2 0.0071215857246454501 4
1 76.447268487786204 -6.8777428167483601 11.912599999999999 -1 -1.7066478234943599e-18 1.60099747971987e-17 
7 0 0  3 8 4  76.447268487786204 4.1227937880690296e-15 11.912599999999999  76.447268487786204 -1.20453993879444 11.912599999999999  76.268073717944802 -2.3780985815714901 11.912599999999999  75.793462807340504 -4.1028521823858304 11.912599999999999  75.600630909868798 -4.6733065895547599 11.912599999999999  75.165584156700604 -5.7897963847469303 11.912599999999999  74.923053787106298 -6.3377179733518698 11.912599999999999  74.661394487786197 -6.8777428167483601 11.912599999999999 
 9.8757112674719891e-19 4 0.0035607928623227602 2 0.0053411892934841403 2 0.0071215857246455204 4
7 0 0  3 8 4  74.661394487786197 6.8777428167483396 11.912599999999999  75.1839176390164 5.7993348119601897 11.912599999999999  75.628531809290394 4.6955318561645596 11.912599999999999  76.104043706020093 2.9774362677361799 11.912599999999999  76.230296582745495 2.3941827547747501 11.912599999999999  76.402749169241901 1.2017522315076601 11.912599999999999  76.447268487786204 0.60249803984434203 11.912599999999999  76.447268487786204 4.1227937880690296e-15 11.912599999999999 
 1.89434662989387e-17 4 0.0035617454053561699 2 0.0053426181080342399 2 0.0071234908107123199 4
1 76.447268487786204 6.8777428167483698 11.912599999999999 1 1.7066478234943599e-18 -1.60099747971987e-17 
7 0 0  3 8 4  74.661394487786197 6.8777428167483396 11.912599999999999  75.1839176390164 7.4169468191424199 10.978671272209001  75.628531809290394 7.9688482970402204 10.0227498717176  76.104043706020093 8.8278960912544093 8.5348354460086693  76.230296582745495 9.1195228477351193 8.0297230869375493  76.402749169241901 9.7157381093686705 6.9970479615402903  76.447268487786204 10.0153652052003 6.4780786082355499  76.447268487786204 10.3166142251225 5.9563000000000201 
 1.9394798072244298e-18 4 0.00356174540535614 2 0.0053426181080342 2 0.0071234908107122696 4
7 0 0  3 8 4  76.447268487786204 10.3166142251225 5.9563000000000201  76.447268487786204 10.9188841945197 4.9131378131310903  76.268073717944802 11.5056635159082 3.8968062156553702  75.793462807340504 12.368040316315399 2.40312578208147  75.600630909868798 12.653267519899901 1.90909777377238  75.165584156700604 13.211512417495999 0.94218924806988802  74.923053787106298 13.4854732117984 0.46767523305608  74.661394487786197 13.755485633496701 6.2948251418996101e-15 
 8.6736173798840393e-19 4 0.0035607928623227602 2 0.0053411892934841403 2 0.0071215857246455204 4
2 76.421868487786199 6.0233084062710197e-15 4.7279561083356597e-17 -1 -1.7066478234943599e-18 1.60099747971987e-17 -1.60099747971987e-17 -5.3455294201843913e-51 -1 1.7066478234943599e-18 -1 -2.7323388641838713e-35 8.9293700000000005
2 76.447268487786204 6.1365459517437698e-15 4.6872907723507798e-17 -1 -1.7066478234943599e-18 1.60099747971987e-17 1.7066478234943599e-18 -1 -2.7323388641838601e-35 1.60099747971987e-17 1.1760164724405661e-49 1 11.912599999999999
2 76.447268487786204 6.0233517551257303e-15 4.6872907723507798e-17 -1 -1.7066478234943599e-18 1.60099747971987e-17 1.60099747971987e-17 5.3455294201843913e-51 1 -1.7066478234943599e-18 1 2.7323388641838713e-35 11.912599999999999
2 76.447268487786204 6.1365459517437698e-15 4.6872907723507798e-17 -1 -1.7066478234943599e-18 1.60099747971987e-17 1.7066478234943599e-18 -1 -2.7323388641838601e-35 1.60099747971987e-17 1.1760164724405661e-49 1 11.912599999999999
2 76.447268487786204 6.0233517551257303e-15 4.6872907723507798e-17 -1 -1.7066478234943599e-18 1.60099747971987e-17 1.60099747971987e-17 5.3455294201843913e-51 1 -1.7066478234943599e-18 1 2.7323388641838713e-35 11.912599999999999
2 76.447268487786204 6.0233517551257303e-15 4.6872907723507798e-17 -1 -1.7066478234943599e-18 1.60099747971987e-17 1.60099747971987e-17 5.3455294201843913e-51 1 -1.7066478234943599e-18 1 2.7323388641838713e-35 11.912599999999999
2 76.447268487786204 6.1365459517437698e-15 4.6872907723507798e-17 -1 -1.7066478234943599e-18 1.60099747971987e-17 1.7066478234943599e-18 -1 -2.7323388641838601e-35 1.60099747971987e-17 1.1760164724405661e-49 1 11.912599999999999
2 76.447268487786204 6.0233517551257303e-15 4.6872907723507798e-17 -1 -1.7066478234943599e-18 1.60099747971987e-17 1.60099747971987e-17 5.3455294201843913e-51 1 -1.7066478234943599e-18 1 2.7323388641838713e-35 8.9293700000000005
Polygon3D 0
PolygonOnTriangulations 0
Surfaces 37
2 66.617468487786198 3.7408358591173903e-15 4.4689669945726205e-16 1 0 -0 0 0 1 0 -1 0 8.1280000000000001
1 62.655068487786203 0.63771553007593096 8.1029440885828592 -1 0 0 0 0 1 0 1 -0 
1 62.655068487786203 1.0681735128771801 13.5724313483763 0 0.99691733373312796 -0.078459095727845402 -1 0 0 0 0.078459095727845402 0.99691733373312796 
1 66.617468487786198 1.0681735128771801 13.5724313483763 1 0 0 -0 1 0 0 -0 1 
2 66.617468487786198 3.7408358591173903e-15 4.4689669945726205e-16 1 0 -0 0 0 1 0 -1 0 8.1280000000000001
2 66.617468487786198 3.7408358591173903e-15 4.4689669945726205e-16 1 0 -0 0 0 1 0 -1 0 13.6144
2 66.617468487786198 3.7408358591173903e-15 4.4689669945726205e-16 1 0 -0 0 0 1 0 -1 0 13.6144
1 62.655068487786203 -1.0681735128771801 13.5724313483763 -0 0.99691733373312796 0.078459095727845707 1 0 0 0 0.078459095727845707 -0.99691733373312796 
3 66.617468487786198 6.0065757483503497e-15 2.0424775798501101e-16 -1 -1.7066478234943599e-18 1.60099747971987e-17 1.60099747971987e-17 5.3455294201843913e-51 1 -1.7066478234943599e-18 1 2.7323388641838713e-35 8.9293700000000005
0.95993108859688203
3 66.617468487786198 6.0065757483503497e-15 2.0424775798501101e-16 -1 -1.7066478234943599e-18 1.60099747971987e-17 1.60099747971987e-17 5.3455294201843913e-51 1 -1.7066478234943599e-18 1 2.7323388641838713e-35 8.9293700000000005
0.95993108859688203
1 66.617468487786198 13.755485633496701 3.6736947099386297e-15 1 1.7066478234943599e-18 -1.60099747971987e-17 1.7066478234943599e-18 -1 -2.7323388641838601e-35 -1.60099747971987e-17 -1.1760164724405661e-49 -1 
2 76.447268487786204 6.0233517551257303e-15 4.6872907723507798e-17 1 1.7066478234943599e-18 -1.60099747971987e-17 1.60099747971987e-17 5.3455294201843913e-51 1 1.7066478234943599e-18 -1 -2.7323388641838713e-35 7.3418700000000001
3 68.414057731786201 6.0096418934733301e-15 1.7548440946765301e-16 1 1.7066478234943599e-18 -1.60099747971987e-17 -1.7066478234943599e-18 1 2.7323388641838601e-35 1.60099747971987e-17 1.1760164724405661e-49 1 13.766542947297699
0.80110792350433702
3 68.414057731786201 6.0096418934733301e-15 1.7548440946765301e-16 1 1.7066478234943599e-18 -1.60099747971987e-17 -1.7066478234943599e-18 1 2.7323388641838601e-35 1.60099747971987e-17 1.1760164724405661e-49 1 13.766542947297699
0.80110792350433702
1 76.447268487786204 13.755485633496701 4.4459553686357e-15 -9.4829877690588908e-18 0.86602540378443804 -0.500000000000001 -1 -1.7066478234943503e-18 1.6009974797198694e-17 1.3011720976575498e-17 0.500000000000001 0.86602540378443804 
2 76.447268487786204 6.0233517551257303e-15 4.6872907723507798e-17 1 1.7066478234943599e-18 -1.60099747971987e-17 1.60099747971987e-17 5.3455294201843913e-51 1 1.7066478234943599e-18 -1 -2.7323388641838713e-35 7.3418700000000001
3 76.421868487786199 6.0233084062710197e-15 4.7279561083356597e-17 1 1.7066478234943599e-18 -1.60099747971987e-17 -1.60099747971987e-17 -5.3455294201843913e-51 -1 -1.7066478234943599e-18 1 2.7323388641838713e-35 8.9293700000000005
0.95993108859688103
3 76.421868487786199 6.0233084062710197e-15 4.7279561083356597e-17 1 1.7066478234943599e-18 -1.60099747971987e-17 -1.60099747971987e-17 -5.3455294201843913e-51 -1 -1.7066478234943599e-18 1 2.7323388641838713e-35 8.9293700000000005
0.95993108859688103
2 91.654974216879395 6.0493059530086299e-15 -1.9660207772248799e-16 1 1.7066478234943599e-18 -1.60099747971987e-17 1.60099747971987e-17 5.3455294201843913e-51 1 1.7066478234943599e-18 -1 -2.7323388641838713e-35 8.9293700000000005
2 91.654974216879395 6.0493059530086299e-15 -1.9660207772248799e-16 1 1.7066478234943599e-18 -1.60099747971987e-17 1.60099747971987e-17 5.3455294201843913e-51 1 1.7066478234943599e-18 -1 -2.7323388641838713e-35 8.9293700000000005
1 76.447268487786204 13.755485633496701 3.51631985967712e-15 1 1.7066478234943599e-18 -1.60099747971987e-17 1.7066478234943599e-18 -1 -2.7323388641838601e-35 -1.60099747971987e-17 -1.1760164724405661e-49 -1 
3 68.414057731786201 6.0096418934733301e-15 1.7548440946765301e-16 1 1.7066478234943599e-18 -1.60099747971987e-17 -1.60099747971987e-17 -5.3455294201843913e-51 -1 -1.7066478234943599e-18 1 2.7323388641838713e-35 13.766542947297699
0.80110792350433702
3 68.414057731786201 6.0096418934733301e-15 1.7548440946765301e-16 1 1.7066478234943599e-18 -1.60099747971987e-17 -1.60099747971987e-17 -5.3455294201843913e-51 -1 -1.7066478234943599e-18 1 2.7323388641838713e-35 13.766542947297699
0.80110792350433702
3 68.414057731786201 6.0096418934733301e-15 1.7548440946765301e-16 1 1.7066478234943599e-18 -1.60099747971987e-17 -1.60099747971987e-17 -5.3455294201843913e-51 -1 -1.7066478234943599e-18 1 2.7323388641838713e-35 13.766542947297699
0.80110792350433702
3 68.414057731786201 6.0096418934733301e-15 1.7548440946765301e-16 1 1.7066478234943599e-18 -1.60099747971987e-17 -1.60099747971987e-17 -5.3455294201843913e-51 -1 -1.7066478234943599e-18 1 2.7323388641838713e-35 13.766542947297699
0.80110792350433702
3 68.414057731786201 6.0096418934733301e-15 1.7548440946765301e-16 1 1.7066478234943599e-18 -1.60099747971987e-17 -1.60099747971987e-17 -5.3455294201843913e-51 -1 -1.7066478234943599e-18 1 2.7323388641838713e-35 13.7665429472976
0.80110792350433702
1 76.447268487786204 6.8777428167483396 -11.912599999999999 -1.60099747971987e-17 0 -1 -1 -1.7066478234943599e-18 1.60099747971987e-17 -1.7066478234943599e-18 1 2.7323388641838718e-35 
1 76.447268487786204 -6.8777428167483503 -11.912599999999999 -6.5269870281398427e-18 -0.86602540378443738 -0.50000000000000222 -1.4718368800069806e-17 0.50000000000000222 -0.86602540378443738 1 1.7066478234943426e-18 -1.6009974797198654e-17 
1 76.447268487786204 -13.755485633496701 -7.2226128086162799e-16 9.4829877690588908e-18 -0.86602540378443804 0.500000000000001 1 1.7066478234943503e-18 -1.6009974797198694e-17 1.3011720976575498e-17 0.500000000000001 0.86602540378443804 
1 76.447268487786204 6.8777428167483201 11.912599999999999 -1.60099747971987e-17 0 -1 -1 -1.7066478234943599e-18 1.60099747971987e-17 -1.7066478234943599e-18 1 2.7323388641838718e-35 
1 76.447268487786204 6.8777428167483201 11.912599999999999 6.5269870281398427e-18 0.86602540378443738 0.50000000000000222 1 1.7066478234943672e-18 -1.6009974797198697e-17 -1.4718368800069855e-17 0.50000000000000222 -0.86602540378443738 
3 74.6506792437862 6.0202856100027498e-15 7.5636256240866104e-17 -1 -1.7066478234943599e-18 1.60099747971987e-17 1.60099747971987e-17 5.3455294201843913e-51 1 -1.7066478234943599e-18 1 2.7323388641838713e-35 13.766542947297699
0.80110792350433702
3 74.6506792437862 6.0202856100027498e-15 7.5636256240866104e-17 -1 -1.2771674946032699e-16 1.60099747971987e-17 1.2771674946032699e-16 -1 -2.0447419400399799e-33 1.60099747971987e-17 -4.1053665947016125e-48 1 13.766542947297699
0.80110792350433702
3 74.6506792437862 6.0202856100027498e-15 7.5636256240866104e-17 -1 -1.2771674946032699e-16 1.60099747971987e-17 1.2771674946032699e-16 -1 -2.0447419400399799e-33 1.60099747971987e-17 -4.1053665947016125e-48 1 13.766542947297699
0.80110792350433702
3 74.6506792437862 6.0202856100027498e-15 7.5636256240866104e-17 -1 -1.7066478234943599e-18 1.60099747971987e-17 1.60099747971987e-17 5.3455294201843913e-51 1 -1.7066478234943599e-18 1 2.7323388641838713e-35 13.766542947297699
0.80110792350433702
3 74.6506792437862 6.0202856100027498e-15 7.5636256240866104e-17 -1 -1.7066478234943599e-18 1.60099747971987e-17 1.60099747971987e-17 5.3455294201843913e-51 1 -1.7066478234943599e-18 1 2.7323388641838713e-35 13.766542947297699
0.80110792350433702
3 74.6506792437862 6.0202856100027498e-15 7.5636256240866104e-17 -1 -1.2771674946032699e-16 1.60099747971987e-17 1.2771674946032699e-16 -1 -2.0447419400399799e-33 1.60099747971987e-17 -4.1053665947016125e-48 1 13.766542947297699
0.80110792350433702
Triangulations 0

TShapes 208
Ve
1e-07
62.6550684877862 0.637715530075931 8.10294408858286
0 0

0101101
*
Ve
1e-07
62.6550684877862 2.74547581473056e-15 -8.128
0 0

0101101
*
Ed
 1e-07 1 1 0
1  1 0 0.0785398163397453 3.14159265358979
2  1 1 0 0.0785398163397453 3.14159265358979
4 C0 1 0 2 0
0

0101000
+208 0 -207 0 *
Ve
1e-07
66.6174684877862 0.637715530075931 8.10294408858286
0 0

0101101
*
Ed
 1e-07 1 1 0
1  2 0 0 3.9624
2  2 1 0 0 3.9624
4 C0 1 0 3 0
0

0101000
+205 0 -208 0 *
Ve
1e-07
66.6174684877862 2.74547581473056e-15 -8.128
0 0

0101101
*
Ed
 1e-07 1 1 0
1  3 0 0.0785398163397453 3.14159265358979
2  3 1 0 0.0785398163397453 3.14159265358979
4 C0 1 0 4 0
0

0101000
+205 0 -203 0 *
Ed
 1e-07 1 1 0
1  4 0 -0 3.9624
2  4 1 0 -0 3.9624
2  5 5 0 -0 3.9624
4 CN 1 0 5 0
0

0101000
+203 0 -207 0 *
Wi

0101100
-206 0 -204 0 +202 0 +201 0 *
Fa
0  1e-07 1 0

0111000
+200 0 *
Ve
1e-07
62.6550684877862 2.07360778476945e-15 -13.6144
0 0

0101101
*
Ve
1e-07
66.6174684877862 2.07360778476945e-15 -13.6144
0 0

0101101
*
Ed
 1e-07 1 1 0
1  5 0 -3.9624 0
2  6 6 0 -3.9624 0
2  7 7 0 -3.9624 0
4 CN 6 0 7 0
0

0101000
+198 0 -197 0 *
Ve
1e-07
62.6550684877862 1.06817351287718 13.5724313483763
0 0

0101101
*
Ed
 1e-07 1 1 0
1  6 0 0.0785398163397451 3.14159265358979
2  8 6 0 0.0785398163397451 3.14159265358979
4 C0 6 0 2 0
0

0101000
+195 0 -198 0 *
Ve
1e-07
66.6174684877862 1.06817351287718 13.5724313483763
0 0

0101101
*
Ed
 1e-07 1 1 0
1  7 0 0 3.9624
2  9 6 0 0 3.9624
4 C0 6 0 3 0
0

0101000
+195 0 -193 0 *
Ed
 1e-07 1 1 0
1  8 0 0.0785398163397451 3.14159265358979
2  10 6 0 0.0785398163397451 3.14159265358979
4 C0 6 0 4 0
0

0101000
+193 0 -197 0 *
Wi

0101100
-196 0 -194 0 +192 0 +191 0 *
Fa
0  1e-07 6 0

0111000
+190 0 *
Ve
1e-07
62.6550684877862 -1.06817351287718 13.5724313483763
0 0

0101101
*
Ed
 1e-07 1 1 0
1  9 0 3.14159265358979 6.20464549083984
2  11 7 0 3.14159265358979 6.20464549083984
4 C0 2 0 7 0
0

0101000
+198 0 -188 0 *
Ve
1e-07
62.6550684877862 -0.637715530075925 8.10294408858286
0 0

0101101
*
Ed
 1e-07 1 1 0
1  10 0 0 5.48640000000001
4 C0 2 0 8 0
0

0101000
+186 0 -188 0 *
Ed
 1e-07 1 1 0
1  11 0 3.14159265358979 6.20464549083984
2  12 5 0 3.14159265358979 6.20464549083984
4 C0 2 0 5 0
0

0101000
+207 0 -186 0 *
Ed
 1e-07 1 1 0
1  12 0 0 5.48640000000001
4 C0 2 0 3 0
0

0101000
+208 0 -195 0 *
Wi

0101100
+194 0 +187 0 -185 0 -184 0 -206 0 +183 0 *
Fa
0  1e-07 2 0

0111000
+182 0 *
Ve
1e-07
66.6174684877862 -1.06817351287718 13.5724313483763
0 0

0101101
*
Ed
 1e-07 1 1 0
1  13 0 3.14159265358979 6.20464549083984
2  13 7 0 3.14159265358979 6.20464549083984
4 C0 7 0 4 0
0

0101000
+197 0 -180 0 *
Ed
 1e-07 1 1 0
1  14 0 0 3.9624
2  14 7 0 0 3.9624
4 C0 7 0 8 0
0

0101000
+188 0 -180 0 *
Wi

0101100
+196 0 +179 0 -178 0 -187 0 *
Fa
0  1e-07 7 0

0111000
+177 0 *
Ve
1e-07
66.6174684877862 -0.637715530075925 8.10294408858286
0 0

0101101
*
Ed
 1e-07 1 1 0
1  15 0 3.14159265358979 6.20464549083984
2  15 5 0 3.14159265358979 6.20464549083984
4 C0 4 0 5 0
0

0101000
+203 0 -175 0 *
Ed
 1e-07 1 1 0
1  16 0 0 5.48640000000001
4 C0 4 0 8 0
0

0101000
+180 0 -175 0 *
Ed
 1e-07 1 1 0
1  17 0 -0 5.48640000000001
4 C0 4 0 3 0
0

0101000
+193 0 -205 0 *
Wi

0101100
+202 0 +174 0 -173 0 -179 0 -191 0 +172 0 *
Fa
0  1e-07 4 0

0111000
+171 0 *
Ed
 1e-07 1 1 0
1  18 0 0 3.9624
2  16 5 0 0 3.9624
4 C0 5 0 8 0
0

0101000
+175 0 -186 0 *
Wi

0101100
+174 0 +169 0 -184 0 -201 0 *
Fa
0  1e-07 5 0

0111000
+168 0 *
Wi

0101100
-183 0 -204 0 -172 0 -192 0 *
Fa
0  1e-07 3 0

0111000
-166 0 *
Wi

0101100
+185 0 +178 0 +173 0 +169 0 *
Fa
0  1e-07 8 0

0111000
+164 0 *
Sh

0101100
-199 0 +189 0 +181 0 +176 0 +170 0 -167 0 -165 0 +163 0 *
So

0100000
+162 0 *
Ve
1e-07
67.7290479546941 6.00847282302819e-15 7.34187
0 0

0101101
*
Ve
1e-07
66.6174684877862 6.00657574835035e-15 8.92937
0 0

0101101
*
Ed
 1e-07 1 1 0
1  19 0 -1.9379796596588 0
2  17 9 0 -1.9379796596588 0
2  18 10 0 -1.9379796596588 0
4 CN 9 0 10 0
0

0101000
+160 0 -159 0 *
Ve
1e-07
66.6174684877862 7.10010818724059e-15 -8.92937
0 0

0101101
*
Ed
 1e-07 1 1 0
1  20 0 3.14159265358979 6.28318530717959
2  19 9 0 3.14159265358979 6.28318530717959
4 C0 9 0 11 0
0

0101000
+157 0 -159 0 *
Ve
1e-07
67.7290479546941 6.90759258255379e-15 -7.34187
0 0

0101101
*
Ed
 1e-07 1 1 0
1  21 0 -1.9379796596588 0
2  20 9 0 -1.9379796596588 0
2  21 10 0 -1.9379796596588 0
4 CN 9 0 10 0
0

0101000
+155 0 -157 0 *
Ed
 1e-07 1 1 0
1  22 0 3.14159265358979 6.28318530717959
2  22 9 0 3.14159265358979 6.28318530717959
2  23 12 0 3.14159265358979 6.28318530717959
4 C0 9 0 12 0
0

0101000
+155 0 -160 0 *
Wi

0101100
+158 0 -156 0 -154 0 +153 0 *
Fa
0  1e-07 9 0

0111000
+152 0 *
Ve
0.000251856232023304
66.6174684877862 10.3166142251225 -5.95630000000001
0 0

0101101
*
Ve
1e-07
66.6174684877862 11.9126 2.04247757985011e-16
0 0

0101101
*
Ed
 1e-07 1 1 0
1  23 0 5.75958653158129 6.28318530717959
2  24 13 0 5.75958653158129 6.28318530717959
4 C0 13 0 11 0
0

0101000
+150 0 -149 0 *
Ve
0.000251856232023304
68.4033424809529 13.7554856264453 1.22134416526046e-08
0 0

0101101
*
Ed
 1e-07 1 1 0
1  24 0 -2.58163463013095 -0.0153974330605285
2  25 13 0 -2.58163463013095 -0.0153974330605285
2  26 14 0 -2.58163463013095 -0.0153974330605285
4 CN 13 0 14 0
0

0101000
+149 0 -147 0 *
Ed
 0.000251856232023304 1 1 0
1  25 0 0 0.00712349077949866
2  27 13 0 0 0.00712349077949866
4 C0 13 0 15 0
0

0101000
+147 0 -150 0 *
Wi

0101100
+148 0 +146 0 +145 0 *
Fa
0  1e-07 13 0

0111000
+144 0 *
Ve
1e-07
75.3102890208783 7.0177374308011e-15 7.34187
0 0

0101101
*
Ed
 1e-07 1 1 0
1  26 0 1.1369794669079 8.71822053309211
2  28 12 0 1.1369794669079 8.71822053309211
2  29 16 0 1.1369794669079 8.71822053309211
4 CN 12 0 16 0
0

0101000
+142 0 -160 0 *
Ve
1e-07
75.3102890208783 6.02141133159318e-15 -7.34187
0 0

0101101
*
Ed
 1e-07 1 1 0
1  27 0 1.1369794669079 8.71822053309211
2  30 12 0 1.1369794669079 8.71822053309211
2  31 16 0 1.1369794669079 8.71822053309211
4 CN 12 0 16 0
0

0101000
+140 0 -155 0 *
Ed
 1e-07 1 1 0
1  28 0 3.14159265358979 6.28318530717959
2  32 12 0 3.14159265358979 6.28318530717959
2  33 17 0 3.14159265358979 6.28318530717959
4 C0 12 0 17 0
0

0101000
+140 0 -142 0 *
Wi

0101100
+141 0 -153 0 -139 0 +138 0 *
Fa
0  1e-07 12 0

0111000
+137 0 *
Ve
1e-07
76.4218684877862 7.11684084516126e-15 -8.92937
0 0

0101101
*
Ed
 1e-07 1 1 0
1  29 0 -1.9379796596588 1.07045122423002e-33
2  34 17 0 -1.9379796596588 1.07045122423002e-33
2  35 18 0 -1.9379796596588 1.07045122423002e-33
4 CN 17 0 18 0
0

0101000
+140 0 -135 0 *
Ve
1e-07
76.4218684877862 6.02330840627102e-15 8.92937
0 0

0101101
*
Ed
 1e-07 1 1 0
1  30 0 0 3.14159265358979
2  36 17 0 0 3.14159265358979
2  37 19 0 0 3.14159265358979
4 C0 17 0 19 0
0

0101000
+135 0 -133 0 *
Ed
 1e-07 1 1 0
1  31 0 -1.9379796596588 -1.10770555844643e-31
2  38 17 0 -1.9379796596588 -1.10770555844643e-31
2  39 18 0 -1.9379796596588 -1.10770555844643e-31
4 CN 17 0 18 0
0

0101000
+142 0 -133 0 *
Wi

0101100
+134 0 +132 0 -131 0 -138 0 *
Fa
0  1e-07 17 0

0111000
+130 0 *
Ve
1e-07
76.4472684877862 6.02335175512573e-15 8.92937
0 0

0101101
*
Ed
 1e-07 1 1 0
1  32 0 15.2077057290932 15.2331057290932
2  40 19 0 15.2077057290932 15.2331057290932
2  41 20 0 15.2077057290932 15.2331057290932
4 CN 19 0 20 0
0

0101000
+128 0 -133 0 *
Ve
1e-07
76.4472684877862 7.11688419401597e-15 -8.92937
0 0

0101101
*
Ed
 1e-07 1 1 0
1  33 0 15.2077057290932 15.2331057290932
2  42 19 0 15.2077057290932 15.2331057290932
2  43 20 0 15.2077057290932 15.2331057290932
4 CN 19 0 20 0
0

0101000
+126 0 -135 0 *
Ed
 1e-07 1 1 0
1  34 0 3.14159265358979 6.28318530717959
2  44 19 0 3.14159265358979 6.28318530717959
4 C0 19 0 21 0
0

0101000
+126 0 -128 0 *
Wi

0101100
+127 0 -132 0 -125 0 +124 0 *
Fa
0  1e-07 19 0

0111000
+123 0 *
Ve
0.000251856380137112
66.6174684877862 -10.3166142251225 -5.95630000000003
0 0

0101101
*
Ve
0.000251855993997319
66.6174684877862 5.64186960708674e-15 -11.9126
0 0

0101101
*
Ed
 1e-07 1 1 0
1  35 0 5.23598775598299 6.28318530717959
2  45 22 0 5.23598775598299 6.28318530717959
4 C0 11 0 22 0
0

0101000
+121 0 -120 0 *
Ve
0.000251843715001829
66.6174684877862 -10.3166142251225 5.95630000000002
0 0

0101101
*
Ed
 1e-07 1 1 0
1  36 0 4.18879020478639 5.23598775598299
2  46 23 0 4.18879020478639 5.23598775598299
4 C0 11 0 23 0
0

0101000
+118 0 -121 0 *
Ve
0.000251855993939123
66.6174684877862 7.10069417214118e-15 11.9126
0 0

0101101
*
Ed
 1e-07 1 1 0
1  37 0 3.14159265358979 4.18879020478639
2  47 24 0 3.14159265358979 4.18879020478639
4 C0 11 0 24 0
0

0101000
+116 0 -118 0 *
Ve
0.000251856380131915
66.6174684877862 10.3166142251225 5.95630000000002
0 0

0101101
*
Ed
 1e-07 1 1 0
1  38 0 2.0943951023932 3.14159265358979
2  48 25 0 2.0943951023932 3.14159265358979
4 C0 11 0 25 0
0

0101000
+114 0 -116 0 *
Ed
 1e-07 1 1 0
1  39 0 0 0.523598775598301
2  49 14 0 0 0.523598775598301
4 C0 11 0 14 0
0

0101000
+149 0 -114 0 *
Ed
 1e-07 1 1 0
1  40 0 0 1.0471975511966
2  50 26 0 0 1.0471975511966
4 C0 11 0 26 0
0

0101000
+120 0 -150 0 *
Wi

0101100
-119 0 -117 0 -115 0 -113 0 -112 0 -148 0 -111 0 *
Ed
 1e-07 1 1 0
1  41 0 0 3.14159265358979
2  51 10 0 0 3.14159265358979
4 C0 11 0 10 0
0

0101000
+159 0 -157 0 *
Wi

0101100
-109 0 -156 0 *
Fa
0  1e-07 11 0

0111000
-110 0 -108 0 *
Ed
 1e-07 1 1 0
1  42 0 0 3.14159265358979
2  52 10 0 0 3.14159265358979
2  53 16 0 0 3.14159265358979
4 C0 10 0 16 0
0

0101000
+160 0 -155 0 *
Wi

0101100
-109 0 -158 0 +106 0 +154 0 *
Fa
0  1e-07 10 0

0111000
+105 0 *
Ve
0.000251855993997319
68.403342491525 6.87774281289018 -11.9126000066825
0 0

0101101
*
Ed
 0.000248152341762294 1 1 0
1  43 0 1.75587304306715e-18 0.00712158573318653
2  54 26 0 1.75587304306715e-18 0.00712158573318653
4 C0 26 0 15 0
0

0101000
+150 0 -103 0 *
Ed
 0.000251855993997319 1 1 0
1  44 0 0 0.00712349073120667
2  55 26 0 0 0.00712349073120667
4 C0 26 0 27 0
0

0101000
+103 0 -120 0 *
Wi

0101100
+111 0 +102 0 +101 0 *
Fa
0  1e-07 26 0

0111000
+100 0 *
Ve
0.000251856380137112
68.4033424703808 -6.87774278082634 -11.9126
0 0

0101101
*
Ed
 0.00024815233233968 1 1 0
1  45 0 3.59374558100714e-19 0.00712158564536975
2  56 22 0 3.59374558100714e-19 0.00712158564536975
4 C0 22 0 27 0
0

0101000
+120 0 -98 0 *
Ed
 0.000251856380137112 1 1 0
1  46 0 5.30756568004657e-12 0.00712349082779068
2  57 22 0 5.30756568004657e-12 0.00712349082779068
4 C0 22 0 28 0
0

0101000
+98 0 -121 0 *
Wi

0101100
+97 0 +96 0 +119 0 *
Fa
0  1e-07 22 0

0111000
+95 0 *
Ve
0.000251843715001829
68.4033424703808 -13.7554856155357 -3.11094724188647e-08
0 0

0101101
*
Ed
 0.000248152332321515 1 1 0
1  47 0 4.74850294523051e-18 0.00712158564536963
2  58 23 0 4.74850294523051e-18 0.00712158564536963
4 C0 23 0 28 0
0

0101000
+121 0 -93 0 *
Ed
 0.000251843715001829 1 1 0
1  48 0 3.20593510866422e-12 0.00712349082490632
2  59 23 0 3.20593510866422e-12 0.00712349082490632
4 C0 23 0 29 0
0

0101000
+93 0 -118 0 *
Wi

0101100
+92 0 +91 0 +117 0 *
Fa
0  1e-07 23 0

0111000
+90 0 *
Ve
0.000251855993939123
68.403342491525 -6.8777428128902 11.9126000066825
0 0

0101101
*
Ed
 0.000248152341815332 1 1 0
1  49 0 4.75346874795858e-18 0.00712158573318651
2  60 24 0 4.75346874795858e-18 0.00712158573318651
4 C0 24 0 29 0
0

0101000
+118 0 -88 0 *
Ed
 0.000251855993939123 1 1 0
1  50 0 0 0.00712349073120671
2  61 24 0 0 0.00712349073120671
4 C0 24 0 30 0
0

0101000
+88 0 -116 0 *
Wi

0101100
+115 0 +87 0 +86 0 *
Fa
0  1e-07 24 0

0111000
+85 0 *
Ve
0.000251856380131915
68.4033424703808 6.87774278082635 11.9126
0 0

0101101
*
Ed
 0.000248152332346023 1 1 0
1  51 0 3.59374558100714e-19 0.00712158564536974
2  62 25 0 3.59374558100714e-19 0.00712158564536974
4 C0 25 0 30 0
0

0101000
+116 0 -83 0 *
Ed
 0.000251856380131915 1 1 0
1  52 0 5.30756363776507e-12 0.00712349082779069
2  63 25 0 5.30756363776507e-12 0.00712349082779069
4 C0 25 0 31 0
0

0101000
+83 0 -114 0 *
Wi

0101100
+82 0 +81 0 +113 0 *
Fa
0  1e-07 25 0

0111000
+80 0 *
Ed
 0.000248152337543856 1 1 0
1  53 0 8.7949863971644e-19 0.00712158569352212
2  64 14 0 8.7949863971644e-19 0.00712158569352212
4 C0 14 0 31 0
0

0101000
+114 0 -147 0 *
Wi

0101100
-146 0 +112 0 +78 0 *
Fa
0  1e-07 14 0

0111000
+77 0 *
Ed
 1e-07 1 1 0
1  54 0 0 3.14159265358979
2  65 16 0 0 3.14159265358979
2  66 18 0 0 3.14159265358979
4 C0 16 0 18 0
0

0101000
+142 0 -140 0 *
Wi

0101100
-106 0 -141 0 +75 0 +139 0 *
Fa
0  1e-07 16 0

0111000
+74 0 *
Ve
0.000251856649959608
74.6613944877862 13.7554856334967 6.29482514189961e-15
0 0

0101101
*
Ve
0.000251856649959608
76.4472684877862 10.3166142251225 -5.95630000000001
0 0

0101101
*
Ed
 0.000251856649959608 1 1 0
1  55 0 5.48981703473723e-19 0.00712349081071234
2  67 32 0 5.48981703473723e-19 0.00712349081071234
4 C0 15 0 32 0
0

0101000
+72 0 -71 0 *
Ve
0.000251856649956358
74.6613944877862 6.87774281674835 -11.9126
0 0

0101101
*
Ed
 0.000248152340911839 1 1 0
1  56 0 1.73472347597681e-18 0.00712158572464546
2  68 33 0 1.73472347597681e-18 0.00712158572464546
4 C0 15 0 33 0
0

0101000
+71 0 -69 0 *
Ed
 1e-07 1 1 0
1  57 0 1.78587400000001 8.04392599626121
4 C0 15 0 27 0
0

0101000
+69 0 -103 0 *
Ed
 1e-07 1 1 0
1  58 0 -8.0439260068333 -1.78587400000001
4 C0 15 0 31 0
0

0101000
+147 0 -72 0 *
Wi

0101100
+70 0 +68 0 +67 0 -102 0 -145 0 +66 0 *
Fa
0  1e-07 15 0

0111000
+65 0 *
Ve
0.000251856649956358
76.4472684877862 7.23066437553461e-15 -11.9126
0 0

0101101
*
Ed
 0.000251856649956358 1 1 0
1  59 0 1.64570318839533e-17 0.00712349081071232
2  69 33 0 1.64570318839533e-17 0.00712349081071232
4 C0 27 0 33 0
0

0101000
+69 0 -63 0 *
Ve
0.000251856649975521
74.6613944877862 -6.87774281674836 -11.9126
0 0

0101101
*
Ed
 0.000248152340912298 1 1 0
1  60 0 5.49544251077061e-20 0.00712158572464551
2  70 34 0 5.49544251077061e-20 0.00712158572464551
4 C0 27 0 34 0
0

0101000
+63 0 -61 0 *
Ed
 1e-07 1 1 0
1  61 0 1.78587400000001 8.0439260174054
4 C0 27 0 28 0
0

0101000
+61 0 -98 0 *
Wi

0101100
+62 0 +60 0 +59 0 -97 0 -101 0 -67 0 *
Fa
0  1e-07 27 0

0111000
+58 0 *
Ve
0.000251856649975521
76.4472684877862 -10.3166142251225 -5.95630000000003
0 0

0101101
*
Ed
 0.000251856649975521 1 1 0
1  62 0 0 0.00712349081071225
2  71 34 0 0 0.00712349081071225
4 C0 28 0 34 0
0

0101000
+61 0 -56 0 *
Ve
0.000251856649935642
74.6613944877862 -13.7554856334967 -3.343164607078e-14
0 0

0101101
*
Ed
 0.000248152340932422 1 1 0
1  63 0 4.67088590647017e-18 0.0071215857246455
2  72 35 0 4.67088590647017e-18 0.0071215857246455
4 C0 28 0 35 0
0

0101000
+56 0 -54 0 *
Ed
 1e-07 1 1 0
1  64 0 1.78587400000001 8.0439260174054
4 C0 28 0 29 0
0

0101000
+54 0 -93 0 *
Wi

0101100
+55 0 +53 0 +52 0 -92 0 -96 0 -59 0 *
Fa
0  1e-07 28 0

0111000
+51 0 *
Ve
0.000251856649935642
76.4472684877862 -10.3166142251225 5.95630000000002
0 0

0101101
*
Ed
 0.000251856649935642 1 1 0
1  65 0 3.50030338958017e-18 0.00712349081071236
2  73 35 0 3.50030338958017e-18 0.00712349081071236
4 C0 29 0 35 0
0

0101000
+54 0 -49 0 *
Ve
0.00024815234091654
74.6613944877862 -6.87774281674836 11.9126
0 0

0101101
*
Ed
 0.00024815234091654 1 1 0
1  66 0 6.49074090789879e-18 0.00712158572464545
2  74 36 0 6.49074090789879e-18 0.00712158572464545
4 C0 29 0 36 0
0

0101000
+49 0 -47 0 *
Ed
 1e-07 1 1 0
1  67 0 1.78587400000001 8.04392599626121
4 C0 29 0 30 0
0

0101000
+47 0 -88 0 *
Wi

0101100
+48 0 +46 0 +45 0 -87 0 -91 0 -52 0 *
Fa
0  1e-07 29 0

0111000
+44 0 *
Ve
0.000251856649955634
76.4472684877862 4.12279378806903e-15 11.9126
0 0

0101101
*
Ed
 0.00024815234091204 1 1 0
1  68 0 9.87571126747199e-19 0.00712158572464552
2  75 36 0 9.87571126747199e-19 0.00712158572464552
4 C0 30 0 36 0
0

0101000
+42 0 -47 0 *
Ve
0.000251856649955634
74.6613944877862 6.87774281674834 11.9126
0 0

0101101
*
Ed
 0.000251856649955634 1 1 0
1  69 0 1.89434662989387e-17 0.00712349081071232
2  76 37 0 1.89434662989387e-17 0.00712349081071232
4 C0 30 0 37 0
0

0101000
+40 0 -42 0 *
Ed
 1e-07 1 1 0
1  70 0 -8.0439260174054 -1.78587400000001
4 C0 30 0 31 0
0

0101000
+83 0 -40 0 *
Wi

0101100
-45 0 -41 0 -39 0 -38 0 -82 0 -86 0 *
Fa
0  1e-07 30 0

0111000
-37 0 *
Ve
0.000251856649954674
76.4472684877862 10.3166142251225 5.95630000000002
0 0

0101101
*
Ed
 0.000251856649954674 1 1 0
1  71 0 1.93947980722443e-18 0.00712349081071227
2  77 37 0 1.93947980722443e-18 0.00712349081071227
4 C0 31 0 37 0
0

0101000
+40 0 -35 0 *
Ed
 0.000248152340929457 1 1 0
1  72 0 8.67361737988404e-19 0.00712158572464552
2  78 32 0 8.67361737988404e-19 0.00712158572464552
4 C0 31 0 32 0
0

0101000
+35 0 -72 0 *
Wi

0101100
+34 0 +33 0 -66 0 -78 0 -81 0 +38 0 *
Fa
0  1e-07 31 0

0111000
+32 0 *
Ed
 1e-07 1 1 0
1  73 0 3.14159265358979 6.28318530717959
2  79 18 0 3.14159265358979 6.28318530717959
2  80 20 0 3.14159265358979 6.28318530717959
4 C0 18 0 20 0
0

0101000
+133 0 -135 0 *
Wi

0101100
+30 0 -134 0 -75 0 +131 0 *
Fa
0  1e-07 18 0

0111000
+29 0 *
Ed
 1e-07 1 1 0
1  74 0 3.66519142918809 4.71238898038469
2  81 33 0 3.66519142918809 4.71238898038469
4 C0 33 0 21 0
0

0101000
+71 0 -63 0 *
Wi

0101100
+27 0 -62 0 -68 0 *
Fa
0  1e-07 33 0

0111000
+26 0 *
Ed
 1e-07 1 1 0
1  75 0 1.0471975511966 2.0943951023932
2  82 32 0 1.0471975511966 2.0943951023932
4 C0 32 0 21 0
0

0101000
+35 0 -71 0 *
Wi

0101100
-33 0 +24 0 -70 0 *
Fa
0  1e-07 32 0

0111000
+23 0 *
Ed
 1e-07 1 1 0
1  76 0 4.71238898038469 5.75958653158129
2  83 34 0 4.71238898038469 5.75958653158129
4 C0 34 0 21 0
0

0101000
+63 0 -56 0 *
Wi

0101100
-60 0 +21 0 -55 0 *
Fa
0  1e-07 34 0

0111000
+20 0 *
Ed
 1e-07 1 1 0
1  77 0 4.18879020478639 5.23598775598299
2  84 35 0 4.18879020478639 5.23598775598299
4 C0 35 0 21 0
0

0101000
+56 0 -49 0 *
Wi

0101100
-53 0 +18 0 -48 0 *
Fa
0  1e-07 35 0

0111000
+17 0 *
Ed
 1e-07 1 1 0
1  78 0 5.23598775598299 6.28318530717959
2  85 36 0 5.23598775598299 6.28318530717959
4 C0 36 0 21 0
0

0101000
+49 0 -42 0 *
Wi

0101100
+15 0 +41 0 -46 0 *
Fa
0  1e-07 36 0

0111000
+14 0 *
Ed
 1e-07 1 1 0
1  79 0 1.5707963267949 2.61799387799149
2  86 37 0 1.5707963267949 2.61799387799149
4 C0 37 0 21 0
0

0101000
+42 0 -35 0 *
Wi

0101100
+39 0 +12 0 -34 0 *
Fa
0  1e-07 37 0

0111000
+11 0 *
Ed
 1e-07 1 1 0
1  80 0 0 3.14159265358979
2  87 20 0 0 3.14159265358979
4 C0 20 0 21 0
0

0101000
+128 0 -126 0 *
Wi

0101100
-30 0 -127 0 +9 0 +125 0 *
Fa
0  1e-07 20 0

0111000
+8 0 *
Wi

0101100
-15 0 -18 0 -21 0 -27 0 -24 0 -12 0 *
Wi

0101100
+9 0 +124 0 *
Fa
0  1e-07 21 0

0111000
+6 0 +5 0 *
Sh

0101100
-151 0 +143 0 -136 0 -129 0 -122 0 -107 0 -104 0 +99 0 +94 0 +89 0 
+84 0 +79 0 +76 0 -73 0 +64 0 +57 0 +50 0 +43 0 -36 0 +31 0 
-28 0 +25 0 +22 0 +19 0 +16 0 +13 0 +10 0 -7 0 +4 0 *
So

0100000
+3 0 *
Co

1100000
+161 0 +2 0 *

+1 0 