DBRep_DrawableShape

CASCADE Topology V1, (c) Matra-Datavision
Locations 0
Curve2ds 60
1 3.1415926535897931 33.527999999999984 0 1 
1 3.1415926535897931 33.527999999999984 0 1 
1 6.2831853071795862 32.130999999999986 -1 0 
1 6.204645490839841 32.130999999999986 0 1 
1 6.2831853071795862 34.924999999999997 -1 0 
1 6.2831853071795862 32.130999999999986 -1 0 
1 6.204645490839841 0 0 -1 
1 6.2831853071795862 34.924999999999997 -1 0 
1 3.1415926535897931 33.527999999999992 0 -1 
1 3.1415926535897931 33.527999999999992 0 -1 
1 6.2831853071795862 34.924999999999997 -1 0 
1 0.078539816339745452 0 0 -1 
1 6.2831853071795862 32.130999999999986 -1 0 
1 6.2831853071795862 34.924999999999997 -1 0 
1 0.07853981633974555 32.130999999999986 0 1 
1 6.2831853071795862 32.130999999999986 -1 0 
1 0 0 0 -1 
1 6.2831853071795862 0 0 -1 
1 6.2831853071795862 -6.3499999999999943 -1 0 
1 3.1415926535897931 0 0 -1 
1 3.1415926535897931 0 0 -1 
1 6.2831853071795862 0 -1 0 
7 0 0  3 25 23  0.52359877559829804 1.7490985102347842  0.52988500755526469 1.7017152924995949  0.54261374814338237 1.6083438498766858  0.56218061451667467 1.4726648645526259  0.58222661877964255 1.3415556220814804  0.60275554407585252 1.2152134120943359  0.62376993221067034 1.0938390498711881  0.64527078849866248 0.97763718122407028  0.6672574561852439 0.86681581747540992  0.68972744924235341 0.76158610961942308  0.71267628058450838 0.66216157944767284  0.73609736635194478 0.56875891127322342  0.75998166694863378 0.48159266131173412  0.78431836425668511 0.40089234910227561  0.80909443718450047 0.32689428139493915  0.83429358975536017 0.2598207677803821  0.85989715044028658 0.19989638868194112  0.88588324885365222 0.14734486131986202  0.91222902065630251 0.10238041126581919  0.93892692173901837 0.065256176180251285  0.96587196815320531 0.03618657407895156  0.99296988940800035 0.015327675832892568  1.0201202428896334 0.0027878418649492681  1.0381883198900499 -4.6120288590729226e-06  1.0471975511965961 -2.7435582590675959e-15 
 2.4715405899088401e-07 4 0.00023521081913692584 1 0.00047017448421486077 1 0.0007051381492927958 1 0.00094010181437073073 1 0.0011750654794486658 1 0.0014100291445266007 1 0.0016449928096045356 1 0.0018799564746824705 1 0.0021149201397604057 1 0.0023498838048383406 1 0.0025848474699162755 1 0.0028198111349942104 1 0.0030547748000721454 1 0.0032897384651500803 1 0.0035247021302280152 1 0.0037596657953059501 1 0.0039946294603838851 1 0.00422959312546182 1 0.0044645567905397549 1 0.0046995204556176898 1 0.0049344841206956248 1 0.0051694477857735597 4
7 0 0  3 25 23  1.0471975511965961 -2.7435582590675959e-15  1.0562269984899557 -7.6790078931314701e-07  1.0742580550785614 0.0027825669515947715  1.1011844384463592 0.015191874443600045  1.1279534340459145 0.035718688130471889  1.1545296011873583 0.064233931939067984  1.1808789855056046 0.10060115881001382  1.2069694967517852 0.14467602142532934  1.2327710521038435 0.19630722610300561  1.2582558105817925 0.25533734189506219  1.283398054990738 0.32160297394900855  1.3081751644833897 0.39493780740649947  1.3325643500688944 0.47516490387913696  1.3565550278848977 0.56212913639795326  1.3801303866462895 0.65561423655172812  1.4032667421290563 0.75537161216859428  1.4259458853966114 0.86115306487525178  1.4481517180706847 0.97270331777768138  1.469871054216753 1.0897632675006903  1.4910932752785031 1.2120703044793417  1.5118102430986269 1.3393593467537985  1.5320161952289777 1.4713636114576802  1.5517073507885315 1.6078153446527963  1.5644908623674207 1.7015695002468572  1.5707963267948966 1.7490985102348202 
 0.0051694477857735597 4 0.0054049366966818294 1 0.0056404256075900999 1 0.0058759145184983696 1 0.0061114034294066401 1 0.0063468923403149097 1 0.0065823812512231794 1 0.0068178701621314491 1 0.0070533590730397196 1 0.0072888479839479901 1 0.0075243368948562598 1 0.0077598258057645295 1 0.0079953147166727991 1 0.0082308036275810688 1 0.0084662925384893402 1 0.0087017814493976098 1 0.0089372703603058795 1 0.0091727592712141492 1 0.0094082481821224188 1 0.0096437370930306902 1 0.0098792260039389599 1 0.01011471491484723 1 0.010350203825755499 4
7 0 0  3 25 23  2.094395102393197 -2.7435582590675939e-15  2.0853656550998374 -7.679007855700882e-07  2.0673345985112319 0.00278256695160716  2.0404082151434344 0.0151918744436241  2.0136392195438795 0.035718688130498728  1.9870630524024355 0.064233931939090855  1.960713668084189 0.10060115881004986  1.9346231568380083 0.14467602142535188  1.90882160148595 0.1963072261030335  1.8833368430080011 0.25533734189507434  1.8581945985990558 0.32160297394904064  1.8334174891064039 0.39493780740650519  1.8090283035208996 0.47516490387915516  1.7850376257048959 0.56212913639799356  1.7614622669435056 0.65561423655175721  1.738325911460737 0.75537161216862958  1.715646768193182 0.86115306487528243  1.6934409355191089 0.97270331777770491  1.6717215993730403 1.0897632675007125  1.6504993783112911 1.2120703044793737  1.6297824104911665 1.3393593467538021  1.609576458360815 1.4713636114577069  1.5898853028012623 1.6078153446527961  1.5771017912223722 1.7015695002468525  1.5707963267948966 1.7490985102348202 
 0.0051694477857735597 4 0.0054049366966818294 1 0.0056404256075900999 1 0.0058759145184983696 1 0.0061114034294066401 1 0.0063468923403149097 1 0.0065823812512231794 1 0.0068178701621314491 1 0.0070533590730397196 1 0.0072888479839479901 1 0.0075243368948562598 1 0.0077598258057645295 1 0.0079953147166727991 1 0.0082308036275810688 1 0.0084662925384893402 1 0.0087017814493976098 1 0.0089372703603058795 1 0.0091727592712141492 1 0.0094082481821224188 1 0.0096437370930306902 1 0.0098792260039389599 1 0.01011471491484723 1 0.010350203825755499 4
7 0 0  3 25 23  2.6179938779914926 1.7490985102348584  2.6117076460345259 1.701715292499673  2.5989789054464079 1.6083438498767655  2.5794120390731181 1.4726648645526956  2.5593660348101479 1.3415556220815432  2.5388371095139397 1.2152134120944025  2.5178227213791211 1.0938390498712582  2.496321865091129 0.97763718122412135  2.4743351974045487 0.86681581747546355  2.4518652043474383 0.76158610961947726  2.4289163730052841 0.66216157944774834  2.4054952872378466 0.5687589112732675  2.3816109866411588 0.48159266131180073  2.3572742893331062 0.4008923491023309  2.3324982164052921 0.32689428139499016  2.307299063834432 0.25982076778045049  2.2816955031495061 0.19989638868198784  2.2557094047361406 0.14734486131989644  2.2293636329334898 0.10238041126583537  2.2026657318507743 0.065256176180254352  2.1757206854365876 0.036186574078952864  2.1486227641817925 0.015327675832903169  2.1214724107001599 0.0027878418649596387  2.1034043336997432 -4.6120288541895684e-06  2.094395102393197 -2.7435582590675939e-15 
 2.4715405900426401e-07 4 0.00023521081913693858 1 0.00047017448421487291 1 0.00070513814929280729 1 0.00094010181437074157 1 0.001175065479448676 1 0.0014100291445266104 1 0.0016449928096045447 1 0.001879956474682479 1 0.0021149201397604135 1 0.0023498838048383475 1 0.002584847469916282 1 0.0028198111349942165 1 0.0030547748000721506 1 0.0032897384651500851 1 0.0035247021302280191 1 0.0037596657953059536 1 0.0039946294603838877 1 0.0042295931254618226 1 0.0044645567905397567 1 0.0046995204556176907 1 0.0049344841206956256 1 0.0051694477857735597 4
7 0 0  3 25 23  1.5707963267948966 1.7490985102348202  1.5770825587518633 1.7017152924996297  1.5898112993399811 1.6083438498767182  1.6093781657132731 1.4726648645526512  1.6294241699762415 1.3415556220814959  1.6499530952724515 1.2152134120943521  1.6709674834072692 1.0938390498712056  1.6924683396952607 0.97763718122407328  1.714455007381843 0.86681581747539604  1.7369250004389518 0.76158610961942896  1.7598738317811069 0.66216157944769571  1.7832949175485431 0.56875891127321176  1.8071792181452322 0.48159266131173839  1.8315159154532834 0.40089234910227833  1.8562919883810998 0.3268942813949321  1.881491140951959 0.2598207677803972  1.9070947016368855 0.19989638868194781  1.9330808000502517 0.1473448613198719  1.9594265718529018 0.1023804112658166  1.9861244729356182 0.065256176180251702  2.0130695193498043 0.036186574078952413  2.0401674406045998 0.015327675832888753  2.0673177940862328 0.0027878418649530472  2.0853858710866491 -4.6120288543771591e-06  2.0943951023931953 0 
 2.4715405899231899e-07 4 0.00023521081913692812 1 0.00047017448421486391 1 0.0007051381492927997 1 0.0009401018143707355 1 0.0011750654794486712 1 0.001410029144526607 1 0.0016449928096045428 1 0.0018799564746824786 1 0.0021149201397604143 1 0.0023498838048383501 1 0.0025848474699162859 1 0.0028198111349942217 1 0.0030547748000721575 1 0.0032897384651500933 1 0.0035247021302280291 1 0.0037596657953059649 1 0.0039946294603839007 1 0.0042295931254618365 1 0.0044645567905397723 1 0.0046995204556177081 1 0.0049344841206956438 1 0.0051694477857735796 4
7 0 0  3 25 23  2.0943951023931953 0  2.1034245496865549 -7.6790078357725853e-07  2.1214556062751613 0.0027825669516018696  2.1483819896429579 0.015191874443601922  2.1751509852425142 0.035718688130473707  2.2017271523839574 0.064233931939066916  2.2280765367022037 0.10060115881001672  2.2541670479483855 0.14467602142533487  2.2799686033004427 0.19630722610299703  2.3054533617783912 0.25533734189507201  2.3305956061873379 0.32160297394901272  2.3553727156799877 0.39493780740648238  2.3797619012654936 0.47516490387913968  2.4037525790814973 0.56212913639795004  2.4273279378428874 0.65561423655171491  2.4504642933256551 0.75537161216858784  2.4731434365932095 0.86115306487525034  2.4953492692672823 0.97270331777767183  2.5170686054133502 1.0897632675007065  2.5382908264751016 1.2120703044793346  2.5590077942952236 1.3393593467538283  2.579213746425574 1.4713636114576925  2.5989049019851289 1.6078153446528234  2.6116884135640173 1.701569500246892  2.6179938779914926 1.7490985102348584 
 0.0051694477857735796 4 0.0054049366966818484 1 0.0056404256075901181 1 0.0058759145184983869 1 0.0061114034294066557 1 0.0063468923403149254 1 0.0065823812512231942 1 0.0068178701621314629 1 0.0070533590730397326 1 0.0072888479839480014 1 0.0075243368948562702 1 0.0077598258057645399 1 0.0079953147166728078 1 0.0082308036275810775 1 0.0084662925384893471 1 0.0087017814493976151 1 0.0089372703603058847 1 0.0091727592712141544 1 0.0094082481821224223 1 0.009643737093030692 1 0.0098792260039389616 1 0.01011471491484723 1 0.010350203825755499 4
7 0 0  3 25 23  1.0471975511965979 0  1.0381681039032382 -7.6790078508429839e-07  1.0201370473146323 0.0027825669516087026  0.99321066394683477 0.015191874443634434  0.96644166834727963 0.035718688130499367  0.93986550120583534 0.064233931939094283  0.91351611688758949 0.10060115881005231  0.88742560564140838 0.14467602142535482  0.86162405028934996 0.19630722610301707  0.83613929181140156 0.2553373418950885  0.81099704740245637 0.32160297394903542  0.78621993790980416 0.39493780740651024  0.76183075232429986 0.47516490387916788  0.73784007450829692 0.56212913639799145  0.71426471574690586 0.65561423655176498  0.69112836026413815 0.75537161216861792  0.66844921699658399 0.86115306487529675  0.64624338432251061 0.97270331777770058  0.62452404817644236 1.0897632675007158  0.60330182711469316 1.212070304479377  0.58258485929456916 1.3393593467538112  0.56237890716421879 1.4713636114577171  0.5426877516046652 1.6078153446528252  0.52990424002577607 1.7015695002468894  0.52359877559830059 1.7490985102348584 
 0.0051694477857735796 4 0.0054049366966818484 1 0.0056404256075901181 1 0.0058759145184983869 1 0.0061114034294066557 1 0.0063468923403149254 1 0.0065823812512231942 1 0.0068178701621314629 1 0.0070533590730397326 1 0.0072888479839480014 1 0.0075243368948562702 1 0.0077598258057645399 1 0.0079953147166728078 1 0.0082308036275810775 1 0.0084662925384893471 1 0.0087017814493976151 1 0.0089372703603058847 1 0.0091727592712141544 1 0.0094082481821224223 1 0.009643737093030692 1 0.0098792260039389616 1 0.01011471491484723 1 0.010350203825755499 4
7 0 0  3 25 23  1.5707963267948966 1.7490985102348202  1.56451009483793 1.7017152924996337  1.5517813542498122 1.6083438498767304  1.5322144878765198 1.4726648645526776  1.5121684836135518 1.3415556220815341  1.4916395583173416 1.2152134120944067  1.4706251701825239 1.0938390498712576  1.4491243138945316 0.97763718122412746  1.4271376462079504 0.86681581747547243  1.4046676531508413 0.76158610961949458  1.381718821808686 0.66216157944774678  1.3582977360412496 0.56875891127328648  1.3344134354445607 0.48159266131181339  1.3100767381365093 0.40089234910233779  1.2853006652086936 0.32689428139499843  1.2601015126378339 0.25982076778045193  1.2344979519529076 0.19989638868200635  1.208511853539542 0.14734486131990798  1.1821660817368906 0.10238041126583035  1.1554681806541751 0.065256176180269077  1.1285231342399886 0.036186574078977601  1.1014252129851931 0.015327675832933109  1.0742748595035612 0.0027878418649942244  1.056206782503144 -4.6120288355667088e-06  1.0471975511965979 0 
 2.4715405899231899e-07 4 0.00023521081913692812 1 0.00047017448421486391 1 0.0007051381492927997 1 0.0009401018143707355 1 0.0011750654794486712 1 0.001410029144526607 1 0.0016449928096045428 1 0.0018799564746824786 1 0.0021149201397604143 1 0.0023498838048383501 1 0.0025848474699162859 1 0.0028198111349942217 1 0.0030547748000721575 1 0.0032897384651500933 1 0.0035247021302280291 1 0.0037596657953059649 1 0.0039946294603839007 1 0.0042295931254618365 1 0.0044645567905397723 1 0.0046995204556177081 1 0.0049344841206956438 1 0.0051694477857735796 4
7 0 0  3 25 23  3.6651914291880923 1.7490985102348624  3.658943995837546 1.7020082554820464  3.6462780970280368 1.6090810016654942  3.6267540725299723 1.4736579089077451  3.6066927529275348 1.3424088937069771  3.5860821554172353 1.2155463052378856  3.5649152684909846 1.0933089986492666  3.5431717348195519 0.97587320002402378  3.5209539988948841 0.8640514513964257  3.4982649586040719 0.75802677573049027  3.4751208582432547 0.65805036302275355  3.4515370303391517 0.56434975678224375  3.4275349893115927 0.47715582541820406  3.4031287047099474 0.3966812395960399  3.3783281423281282 0.3230971260734874  3.3531558299077902 0.25658271295532764  3.3276340765153125 0.19731056059678634  3.3017883549340641 0.14544951740727627  3.275646305844726 0.10116292959085954  3.2492378700027 0.064608109267389802  3.2225950562354155 0.035935594273503575  3.1957518052808678 0.015288146916287635  3.1687436058888627 0.0028012565344729423  3.1506530613339021 -7.6387083687809247e-07  3.1415926535897931 0 
 0.0072516217324287702 4 0.0074865778608602081 1 0.0077215339892916452 1 0.0079564901177230831 1 0.0081914462461545202 1 0.008426402374585959 1 0.008661358503017396 1 0.0088963146314488331 1 0.0091312707598802719 1 0.009366226888311709 1 0.0096011830167431478 1 0.0098361391451745848 1 0.010071095273606022 1 0.010306051402037461 1 0.010541007530468898 1 0.010775963658900337 1 0.011010919787331774 1 0.011245875915763211 1 0.011480832044194648 1 0.011715788172626087 1 0.011950744301057524 1 0.012185700429488962 1 0.0124206565579204 4
7 0 0  3 25 23  5.7595865315812871 1.7490985102348628  5.7658339649318329 1.7020082554820652  5.7784998637413434 1.6090810016655344  5.7980238882394062 1.4736579089077908  5.8180852078418432 1.3424088937070355  5.8386958053521445 1.2155463052379403  5.8598626922783952 1.093308998649317  5.8816062259498265 0.97587320002409039  5.9038239618744965 0.8640514513964962  5.9265130021653052 0.75802677573055632  5.9496571025261256 0.65805036302283304  5.9732409304302285 0.56434975678230248  5.9972429714577871 0.47715582541827517  6.0216492560594306 0.39668123959611079  6.0464498184412516 0.3230971260735408  6.0716221308615914 0.25658271295537521  6.0971438842540655 0.1973105605968328  6.1229896058353166 0.14544951740731399  6.1491316549246529 0.10116292959087843  6.1755400907666784 0.064608109267411964  6.2021829045339656 0.035935594273505254  6.2290261554885138 0.015288146916285248  6.2560343548805148 0.0028012565344809949  6.2741248994354768 -7.6387083051020147e-07  6.2831853071795853 0 
 0.0072516217324287598 4 0.0074865778608601977 1 0.0077215339892916365 1 0.0079564901177230744 1 0.0081914462461545132 1 0.0084264023745859503 1 0.0086613585030173891 1 0.0088963146314488262 1 0.009131270759880265 1 0.0093662268883117038 1 0.0096011830167431408 1 0.0098361391451745796 1 0.010071095273606018 1 0.010306051402037456 1 0.010541007530468894 1 0.010775963658900333 1 0.01101091978733177 1 0.011245875915763209 1 0.011480832044194648 1 0.011715788172626085 1 0.011950744301057524 1 0.012185700429488962 1 0.0124206565579204 4
7 0 0  3 25 23  0 0  0.0090235963738539166 -4.3419341699754208e-06  0.027108661018848835 0.0027944808548032536  0.054253904147537085 0.015340560813615912  0.081320753557677442 0.036180501994643607  0.10821341559130052 0.065187906092677259  0.13484323794988559 0.10219473700636142  0.16110753743401507 0.14696767161504803  0.1870334848702167 0.19932122241610928  0.21259350904569863 0.25905065126661736  0.23776572520675865 0.32594598291343085  0.26253004706871275 0.39979493354476914  0.28686917775603404 0.4803843292089065  0.31076847156010734 0.56749634908516799  0.33421582141244421 0.6609119638712504  0.35720136148210579 0.76041639194060362  0.37971753825121934 0.8657946539966439  0.40175894847429755 0.97683470429207708  0.423322133072978 1.0933227140383002  0.44441892181457787 1.2151483219688186  0.46502137421872741 1.341937385771985  0.48511138989176594 1.4733408763919416  0.50467210805370211 1.6089917057730496  0.51735156347124323 1.7020073429321392  0.52359877559830059 1.7490985102348584 
 0.0124206565579204 4 0.012654659714976781 1 0.012888662872033163 1 0.013122666029089545 1 0.013356669186145927 1 0.013590672343202308 1 0.01382467550025869 1 0.014058678657315072 1 0.014292681814371454 1 0.014526684971427836 1 0.014760688128484217 1 0.014994691285540599 1 0.015228694442596981 1 0.015462697599653363 1 0.015696700756709744 1 0.015930703913766126 1 0.016164707070822508 1 0.01639871022787889 1 0.016632713384935272 1 0.016866716541991653 1 0.017100719699048035 1 0.017334722856104417 1 0.017568726013160799 4
7 0 0  3 25 23  3.1415926535897931 0  3.1325690572159388 -4.3419341860248367e-06  3.1144839925709444 0.0027944808547680933  3.0873387494422562 0.015340560813573444  3.0602719000321157 0.036180501994577778  3.0333792379984934 0.065187906092603859  3.0067494156399075 0.10219473700628748  2.9804851161557782 0.14696767161498386  2.9545591687195758 0.19932122241604167  2.928999144544095 0.25905065126654558  2.9038269283830345 0.32594598291337878  2.8790626065210803 0.39979493354468842  2.8547234758337581 0.48038432920884833  2.8308241820296853 0.56749634908510171  2.8073768321773493 0.66091196387119433  2.7843912921076868 0.76041639194054134  2.7618751153385741 0.86579465399659561  2.7398337051154948 0.97683470429200636  2.7182705205168149 1.0933227140382509  2.6971737317752136 1.2151483219687498  2.6765712793710654 1.3419373857719317  2.6564812636980264 1.4733408763918783  2.6369205455360918 1.6089917057730114  2.6242410901185496 1.7020073429321254  2.6179938779914926 1.7490985102348584 
 0.0124206565579204 4 0.012654659714976781 1 0.012888662872033163 1 0.013122666029089545 1 0.013356669186145927 1 0.013590672343202308 1 0.01382467550025869 1 0.014058678657315072 1 0.014292681814371454 1 0.014526684971427836 1 0.014760688128484217 1 0.014994691285540599 1 0.015228694442596981 1 0.015462697599653363 1 0.015696700756709744 1 0.015930703913766126 1 0.016164707070822508 1 0.01639871022787889 1 0.016632713384935272 1 0.016866716541991653 1 0.017100719699048035 1 0.017334722856104417 1 0.017568726013160799 4
7 0 0  3 25 23  3.6651914291880923 1.7490985102348624  3.6714776611450577 1.7017152924996675  3.6842064017331766 1.6083438498767497  3.703773268106469 1.4726648645526814  3.7238192723694366 1.3415556220815195  3.744348197665647 1.2152134120943872  3.7653625858004651 1.093839049871234  3.7868634420884568 0.97763718122410659  3.8088501097750371 0.86681581747545655  3.831320102832148 0.76158610961946382  3.8542689341743017 0.66216157944772625  3.8776900199417383 0.56875891127326683  3.9015743205384261 0.4815926613117702  3.9259110178464791 0.4008923491022976  3.9506870907742937 0.32689428139494342  3.9758862433451534 0.25982076778040963  4.0014898040300801 0.199896388681955  4.0274759024434452 0.14734486131988031  4.0538216742460982 0.10238041126582531  4.0805195753288102 0.065256176180265857  4.1074646217429986 0.036186574078961156  4.1345625429977932 0.015327675832905422  4.1617128964794263 0.002787841864962341  4.1797809734798426 -4.6120288526547422e-06  4.1887902047863896 -2.7435582590675959e-15 
 2.4715405898379599e-07 4 0.00023521081913691863 1 0.0004701744842148535 1 0.00070513814929278832 1 0.00094010181437072314 1 0.001175065479448658 1 0.0014100291445265929 1 0.0016449928096045276 1 0.0018799564746824625 1 0.0021149201397603974 1 0.0023498838048383324 1 0.0025848474699162673 1 0.0028198111349942022 1 0.0030547748000721371 1 0.0032897384651500716 1 0.0035247021302280065 1 0.0037596657953059415 1 0.0039946294603838755 1 0.0042295931254618105 1 0.0044645567905397454 1 0.0046995204556176803 1 0.0049344841206956152 1 0.0051694477857735502 4
7 0 0  3 25 23  4.1887902047863896 -2.7435582590675959e-15  4.1978196520797493 -7.6790078826485914e-07  4.215850708668353 0.0027825669515989383  4.2427770920361532 0.015191874443608533  4.2695460876357059 0.035718688130483234  4.2961222547771527 0.064233931939071412  4.3224716390953972 0.10060115881002832  4.3485621503415794 0.14467602142534958  4.3743637056936358 0.19630722610300094  4.399848464171586 0.25533734189508012  4.4249907085805322 0.32160297394902432  4.4497678180731812 0.39493780740649354  4.4741570036586893 0.47516490387915633  4.4981476814746912 0.56212913639795703  4.5217230402360835 0.65561423655173823  4.5448593957188494 0.75537161216860493  4.5675385389864056 0.86115306487527332  4.5897443716604798 0.97270331777768537  4.6114637078065472 1.0897632675007103  4.6326859288682973 1.2120703044793555  4.653402896688422 1.3393593467537996  4.6736088488187733 1.4713636114576951  4.6933000043783277 1.6078153446527987  4.706083515957217 1.7015695002468563  4.7123889803846932 1.7490985102348202 
 0.0051694477857735502 4 0.0054049366966818207 1 0.0056404256075900912 1 0.0058759145184983617 1 0.0061114034294066314 1 0.0063468923403149028 1 0.0065823812512231725 1 0.006817870162131443 1 0.0070533590730397135 1 0.0072888479839479841 1 0.0075243368948562546 1 0.0077598258057645243 1 0.0079953147166727957 1 0.0082308036275810653 1 0.0084662925384893367 1 0.0087017814493976064 1 0.008937270360305876 1 0.0091727592712141474 1 0.0094082481821224188 1 0.0096437370930306885 1 0.0098792260039389582 1 0.01011471491484723 1 0.010350203825755499 4
7 0 0  3 25 23  5.2359877559829897 -1.3717791295337969e-15  5.226958308689631 -7.6790078344702309e-07  5.2089272521010264 0.0027825669516121365  5.1820008687332262 0.015191874443636419  5.1552318731336726 0.03571868813049385  5.1286557059922266 0.064233931939109701  5.102306321673983 0.10060115881006164  5.0762158104277999 0.14467602142536024  5.0504142550757427 0.19630722610303245  5.0249294965977942 0.25533734189509533  4.9997872521888471 0.32160297394904896  4.9750101426961963 0.39493780740652268  4.9506209571106909 0.47516490387918681  4.926630279294689 0.56212913639800366  4.9030549205332958 0.65561423655178552  4.8799185650505299 0.75537161216864779  4.8572394217829755 0.86115306487532184  4.8350335891088987 0.97270331777774577  4.8133142529628339 1.0897632675007689  4.792092031901082 1.2120703044794081  4.7713750640809574 1.3393593467538427  4.751169111950607 1.4713636114577404  4.7314779563910516 1.6078153446528154  4.7186944448121624 1.7015695002468594  4.7123889803846861 1.7490985102348202 
 0.0051694477857735397 4 0.0054049366966818103 1 0.0056404256075900817 1 0.0058759145184983522 1 0.0061114034294066236 1 0.0063468923403148941 1 0.0065823812512231655 1 0.0068178701621314361 1 0.0070533590730397066 1 0.007288847983947978 1 0.0075243368948562485 1 0.0077598258057645191 1 0.0079953147166727905 1 0.0082308036275810618 1 0.0084662925384893315 1 0.0087017814493976029 1 0.0089372703603058743 1 0.009172759271214144 1 0.0094082481821224154 1 0.0096437370930306868 1 0.0098792260039389582 1 0.01011471491484723 1 0.010350203825755499 4
7 0 0  3 25 23  5.7595865315812871 1.7490985102348628  5.7533002996243194 1.701715292499679  5.7405715590362032 1.6083438498767721  5.721004692662909 1.4726648645527025  5.700958688399945 1.3415556220815559  5.6804297631037324 1.2152134120944202  5.6594153749689129 1.0938390498712711  5.6379145186809243 0.97763718122415055  5.6159278509943418 0.86681581747546921  5.5934578579372305 0.76158610961950446  5.5705090265950776 0.66216157944774967  5.5470879408276401 0.56875891127330402  5.5232036402309506 0.48159266131180728  5.4988669429229011 0.40089234910234822  5.4740908699950843 0.32689428139501248  5.4488917174242246 0.25982076778046198  5.4232881567393001 0.19989638868202028  5.3973020583259341 0.14734486131993774  5.3709562865232838 0.10238041126588271  5.3442583854405683 0.06525617618033093  5.3173133390263816 0.036186574079014815  5.2902154177715861 0.015327675832950674  5.2630650642899557 0.0027878418649986796  5.2449969872895368 -4.6120288357119157e-06  5.2359877559829897 -1.3717791295337969e-15 
 2.4715405898379599e-07 4 0.00023521081913691817 1 0.00047017448421485258 1 0.00070513814929278691 1 0.00094010181437072129 1 0.0011750654794486558 1 0.0014100291445265901 1 0.0016449928096045243 1 0.0018799564746824588 1 0.0021149201397603935 1 0.002349883804838328 1 0.0025848474699162621 1 0.0028198111349941966 1 0.0030547748000721311 1 0.0032897384651500651 1 0.0035247021302279996 1 0.0037596657953059341 1 0.0039946294603838677 1 0.0042295931254618026 1 0.0044645567905397367 1 0.0046995204556176716 1 0.0049344841206956057 1 0.0051694477857735397 4
7 0 0  3 25 23  4.7123889803846932 1.7490985102348202  4.71867521234166 1.7017152924996251  4.731403952929778 1.6083438498767144  4.7509708193030713 1.4726648645526617  4.7710168235660371 1.3415556220814961  4.7915457488622479 1.2152134120943563  4.8125601369970648 1.0938390498712141  4.8340609932850578 0.97763718122407628  4.8560476609716394 0.86681581747541836  4.878517654028748 0.7615861096194495  4.9014664853709009 0.66216157944767584  4.9248875711383393 0.56875891127323941  4.9487718717350271 0.48159266131174855  4.9731085690430792 0.4008923491022765  4.9978846419708951 0.32689428139494958  5.023083794541753 0.25982076778040336  5.0486873552266811 0.19989638868196366  5.0746734536400453 0.14734486131987656  5.1010192254426983 0.10238041126582904  5.127717126525412 0.065256176180263137  5.1546621729395987 0.036186574078960108  5.1817600941943924 0.015327675832920584  5.2089104476760264 0.0027878418649650129  5.2269785246764435 -4.6120288524983621e-06  5.2359877559829879 0 
 2.4715405903800001e-07 4 0.00023521081913697217 1 0.0004701744842149063 1 0.00070513814929284047 1 0.00094010181437077464 1 0.0011750654794487087 1 0.001410029144526643 1 0.0016449928096045772 1 0.0018799564746825113 1 0.0021149201397604456 1 0.0023498838048383796 1 0.0025848474699163141 1 0.0028198111349942482 1 0.0030547748000721822 1 0.0032897384651501167 1 0.0035247021302280508 1 0.0037596657953059848 1 0.0039946294603839189 1 0.004229593125461853 1 0.004464556790539787 1 0.0046995204556177211 1 0.004934484120695656 1 0.00516944778577359 4
7 0 0  3 25 23  5.2359877559829879 0  5.2450172032763476 -7.6790078183401158e-07  5.2630482598649557 0.0027825669516062302  5.2899746432327497 0.015191874443608661  5.3167436388323059 0.035718688130483546  5.3433198059737501 0.064233931939078587  5.3696691902919964 0.10060115881002583  5.3957597015381751 0.14467602142534469  5.4215612568902349 0.1963072261030058  5.4470460153681834 0.25533734189508467  5.4721882597771296 0.32160297394901993  5.4969653692697786 0.39493780740648965  5.5213545548552849 0.47516490387915183  5.5453452326712895 0.56212913639795237  5.5689205914326774 0.65561423655173168  5.5920569469154469 0.75537161216860005  5.614736090183003 0.86115306487526833  5.6369419228570727 0.97270331777767816  5.6586612590031447 1.0897632675007163  5.6798834800648921 1.2120703044793593  5.700600447885015 1.3393593467538238  5.7208064000153671 1.4713636114577309  5.7404975555749207 1.6078153446528169  5.753281067153809 1.7015695002468805  5.7595865315812853 1.7490985102348584 
 0.00516944778577359 4 0.0054049366966818588 1 0.0056404256075901276 1 0.0058759145184983956 1 0.0061114034294066644 1 0.0063468923403149332 1 0.006582381251223202 1 0.0068178701621314699 1 0.0070533590730397387 1 0.0072888479839480075 1 0.0075243368948562763 1 0.0077598258057645451 1 0.007995314716672813 1 0.0082308036275810827 1 0.0084662925384893506 1 0.0087017814493976185 1 0.0089372703603058882 1 0.0091727592712141561 1 0.0094082481821224258 1 0.0096437370930306937 1 0.0098792260039389616 1 0.01011471491484723 1 0.010350203825755499 4
7 0 0  3 25 23  4.1887902047863914 0  4.1797607574930309 -7.6790078039696925e-07  4.1617297009044245 0.0027825669516147278  4.134803317536627 0.015191874443630939  4.1080343219370752 0.035718688130513154  4.0814581547956283 0.06423393193910043  4.0551087704773829 0.10060115881006314  4.0290182592312025 0.14467602142536312  4.0032167038791453 0.19630722610303014  3.977731945401195 0.25533734189511276  3.9525897009922502 0.3216029739490186  3.927812591499598 0.39493780740654033  3.9034234059140931 0.47516490387917565  3.8794327280980907 0.56212913639799622  3.8558573693367006 0.65561423655177653  3.8327210138539325 0.75537161216864779  3.810041870586379 0.86115306487533139  3.7878360379123035 0.972703317777731  3.7661167017662383 1.0897632675007671  3.7448944807044868 1.2120703044794012  3.7241775128843617 1.3393593467538489  3.7039715607540122 1.4713636114577533  3.6842804051944595 1.6078153446528372  3.671496893615569 1.7015695002468902  3.6651914291880936 1.7490985102348584 
 0.00516944778577359 4 0.0054049366966818588 1 0.0056404256075901276 1 0.0058759145184983956 1 0.0061114034294066644 1 0.0063468923403149332 1 0.006582381251223202 1 0.0068178701621314699 1 0.0070533590730397387 1 0.0072888479839480075 1 0.0075243368948562763 1 0.0077598258057645451 1 0.007995314716672813 1 0.0082308036275810827 1 0.0084662925384893506 1 0.0087017814493976185 1 0.0089372703603058882 1 0.0091727592712141561 1 0.0094082481821224258 1 0.0096437370930306937 1 0.0098792260039389616 1 0.01011471491484723 1 0.010350203825755499 4
7 0 0  3 25 23  4.7123889803846861 1.7490985102348202  4.7061027484277194 1.7017152924996277  4.6933740078396013 1.6083438498767226  4.6738071414663107 1.4726648645526832  4.6537611372033405 1.341555622081537  4.6332322119071323 1.2152134120944151  4.6122178237723128 1.0938390498712645  4.5907169674843233 0.97763718122414123  4.568730299797739 0.86681581747548742  4.5462603067406322 0.76158610961948836  4.5233114753984784 0.66216157944777621  4.4998903896310392 0.56875891127330302  4.4760060890343514 0.48159266131180856  4.4516693917263011 0.4008923491023525  4.4268933187984851 0.3268942813950193  4.4016941662276254 0.25982076778046292  4.3760906055427 0.19989638868202436  4.3501045071293332 0.14734486131990757  4.3237587353266829 0.1023804112658421  4.2970608342439673 0.065256176180296471  4.2701157878297815 0.036186574078984506  4.2430178665749851 0.01532767583294394  4.2158675130933547 0.0027878418650014898  4.1977994360929376 -4.6120288322716041e-06  4.1887902047863914 0 
 2.4715405903800001e-07 4 0.00023521081913697217 1 0.0004701744842149063 1 0.00070513814929284047 1 0.00094010181437077464 1 0.0011750654794487087 1 0.001410029144526643 1 0.0016449928096045772 1 0.0018799564746825113 1 0.0021149201397604456 1 0.0023498838048383796 1 0.0025848474699163141 1 0.0028198111349942482 1 0.0030547748000721822 1 0.0032897384651501167 1 0.0035247021302280508 1 0.0037596657953059848 1 0.0039946294603839189 1 0.004229593125461853 1 0.004464556790539787 1 0.0046995204556177211 1 0.004934484120695656 1 0.00516944778577359 4
7 0 0  3 25 23  5.7595865315812853 1.7490985102348584  5.765833964931832 1.7020082554820497  5.7784998637413407 1.6090810016655026  5.7980238882394071 1.4736579089077455  5.8180852078418415 1.3424088937069738  5.8386958053521454 1.2155463052378723  5.8598626922783934 1.093308998649271  5.8816062259498283 0.97587320002401734  5.903823961874493 0.86405145139645179  5.9265130021653052 0.75802677573050836  5.9496571025261265 0.65805036302280606  5.9732409304302267 0.5643497567822765  5.9972429714577844 0.47715582541825141  6.0216492560594297 0.39668123959607865  6.046449818441249 0.32309712607351093  6.0716221308615896 0.25658271295533713  6.0971438842540655 0.19731056059680674  6.1229896058353157 0.14544951740728226  6.1491316549246511 0.10116292959087676  6.1755400907666802 0.064608109267369651  6.2021829045339629 0.035935594273513186  6.229026155488512 0.015288146916268997  6.2560343548805157 0.0028012565344838862  6.2741248994354768 -7.6387082651795721e-07  6.2831853071795853 0 
 0.0072516217324287797 4 0.0074865778608602168 1 0.0077215339892916538 1 0.0079564901177230918 1 0.0081914462461545288 1 0.0084264023745859659 1 0.008661358503017403 1 0.00889631463144884 1 0.0091312707598802771 1 0.0093662268883117142 1 0.0096011830167431512 1 0.0098361391451745901 1 0.010071095273606027 1 0.010306051402037464 1 0.010541007530468901 1 0.010775963658900338 1 0.011010919787331775 1 0.011245875915763214 1 0.011480832044194651 1 0.011715788172626088 1 0.011950744301057525 1 0.012185700429488962 1 0.0124206565579204 4
7 0 0  3 25 23  0 0  0.0090235963738539027 -4.3419341717292838e-06  0.027108661018848765 0.0027944808547991891  0.054253904147536815 0.015340560813605684  0.081320753557677081 0.036180501994607317  0.10821341559129982 0.065187906092615974  0.13484323794988487 0.10219473700628248  0.16110753743401413 0.14696767161498345  0.18703348487021562 0.19932122241604  0.21259350904569702 0.25905065126654436  0.23776572520675696 0.32594598291337734  0.26253004706871097 0.39979493354468754  0.28686917775603249 0.48038432920884511  0.31076847156010595 0.56749634908509961  0.33421582141244272 0.66091196387118967  0.35720136148210424 0.76041639194053812  0.37971753825121746 0.86579465399659017  0.40175894847429561 0.97683470429199959  0.42332213307297611 1.0933227140382427  0.44441892181457587 1.2151483219687407  0.46502137421872558 1.3419373857719272  0.48511138989176383 1.4733408763918485  0.5046721080537 1.6089917057729681  0.51735156347124089 1.7020073429320641  0.52359877559829804 1.7490985102347842 
 0.0124206565579204 4 0.012654659714976781 1 0.012888662872033163 1 0.013122666029089545 1 0.013356669186145927 1 0.013590672343202308 1 0.01382467550025869 1 0.014058678657315072 1 0.014292681814371454 1 0.014526684971427836 1 0.014760688128484217 1 0.014994691285540599 1 0.015228694442596981 1 0.015462697599653363 1 0.015696700756709744 1 0.015930703913766126 1 0.016164707070822508 1 0.01639871022787889 1 0.016632713384935272 1 0.016866716541991653 1 0.017100719699048035 1 0.017334722856104417 1 0.017568726013160799 4
7 0 0  3 25 23  3.1415926535897931 0  3.1325690572159388 -4.3419341699754208e-06  3.1144839925709444 0.0027944808548032497  3.0873387494422562 0.015340560813615926  3.0602719000321157 0.036180501994643559  3.0333792379984934 0.065187906092677425  3.0067494156399075 0.10219473700636081  2.9804851161557782 0.14696767161505025  2.9545591687195758 0.19932122241610911  2.9289991445440946 0.25905065126661581  2.9038269283830354 0.32594598291342886  2.8790626065210803 0.3997949335447703  2.8547234758337594 0.48038432920890384  2.8308241820296862 0.56749634908516922  2.8073768321773493 0.66091196387124795  2.7843912921076868 0.76041639194060417  2.7618751153385741 0.86579465399664368  2.7398337051154953 0.97683470429207708  2.7182705205168158 1.0933227140383006  2.6971737317752149 1.2151483219688246  2.6765712793710654 1.3419373857720078  2.6564812636980273 1.47334087639197  2.6369205455360918 1.6089917057730754  2.6242410901185496 1.7020073429321505  2.6179938779914926 1.7490985102348584 
 0.0124206565579204 4 0.012654659714976781 1 0.012888662872033163 1 0.013122666029089545 1 0.013356669186145927 1 0.013590672343202308 1 0.01382467550025869 1 0.014058678657315072 1 0.014292681814371454 1 0.014526684971427836 1 0.014760688128484217 1 0.014994691285540599 1 0.015228694442596981 1 0.015462697599653363 1 0.015696700756709744 1 0.015930703913766126 1 0.016164707070822508 1 0.01639871022787889 1 0.016632713384935272 1 0.016866716541991653 1 0.017100719699048035 1 0.017334722856104417 1 0.017568726013160799 4
7 0 0  3 25 23  3.6651914291880936 1.7490985102348584  3.6589439958375474 1.7020082554820588  3.6462780970280377 1.6090810016655284  3.6267540725299745 1.4736579089077937  3.6066927529275361 1.3424088937070362  3.5860821554172353 1.2155463052379434  3.5649152684909868 1.0933089986493274  3.5431717348195506 0.97587320002408984  3.520953998894885 0.86405145139650241  3.4982649586040737 0.75802677573054955  3.4751208582432556 0.65805036302283493  3.4515370303391535 0.56434975678231813  3.4275349893115932 0.47715582541827301  3.4031287047099474 0.39668123959611318  3.3783281423281299 0.32309712607354091  3.3531558299077888 0.25658271295537283  3.3276340765153138 0.19731056059684221  3.3017883549340659 0.1454495174073131  3.2756463058447269 0.10116292959088066  3.2492378700026983 0.06460810926740447  3.2225950562354155 0.035935594273505449  3.195751805280866 0.015288146916292236  3.1687436058888641 0.0028012565344799332  3.1506530613339021 -7.6387083278734992e-07  3.1415926535897931 0 
 0.0072516217324287797 4 0.0074865778608602168 1 0.0077215339892916538 1 0.0079564901177230918 1 0.0081914462461545288 1 0.0084264023745859659 1 0.008661358503017403 1 0.00889631463144884 1 0.0091312707598802771 1 0.0093662268883117142 1 0.0096011830167431512 1 0.0098361391451745901 1 0.010071095273606027 1 0.010306051402037464 1 0.010541007530468901 1 0.010775963658900338 1 0.011010919787331775 1 0.011245875915763214 1 0.011480832044194651 1 0.011715788172626088 1 0.011950744301057525 1 0.012185700429488962 1 0.0124206565579204 4
1 9.4247779607693793 0 -1 0 
1 3.1415926535897931 0 -1 0 
1 3.1415926535897931 0 -1 0 
1 3.1415926535897931 0 -1 0 
1 9.4247779607693793 0 -1 0 
1 9.4247779607693793 0 -1 0 
1 6.2831853071795862 -6.3499999999999943 -1 0 
1 0 0 1 0 
1 6.2831853071795862 0 -1 0 
1 6.2831853071795862 0 -1 0 
1 6.2831853071795862 0 -1 0 
1 6.2831853071795862 0 -1 0 
1 6.283185307179588 0 -1 0 
1 6.2831853071795862 0 -1 0 
Curves 66
1 41.144737403629698 5.2162842188035996e-16 -9.9060000000000006 1 0 0 
2 39.747737403629699 1.7347234759768101e-15 0 -1 0 0 0 0 1 0 1 -0 9.9060000000000006
1 39.747737403629699 0.77721580228003795 9.8754631079603605 1 0 0 
2 42.541737403629703 1.7347234759768101e-15 0 -1 0 0 0 0 1 0 1 -0 9.9060000000000006
2 39.747737403629699 1.7347234759768101e-15 0 -1 0 0 0 0 1 0 1 -0 5.7149999999999999
1 7.6167374036297097 0.44839373208463901 5.6973825622848304 -1 -0 -0 
2 42.541737403629703 1.7347234759768101e-15 0 -1 0 0 0 0 1 0 1 -0 5.7149999999999999
1 41.144737403629698 1.03486094476732e-15 -5.7149999999999999 -1 -0 -0 
2 42.541737403629703 1.7347234759768101e-15 0 -1 0 0 0 0 1 0 1 -0 5.7149999999999999
1 7.6167374036297097 -0.44839373208463601 5.6973825622848304 -1 -0 -0 
2 39.747737403629699 1.7347234759768101e-15 0 -1 0 0 0 0 1 0 1 -0 5.7149999999999999
1 42.541737403629703 1.7347234759768101e-15 0 0 0.078459095727845582 0.99691733373312785 
1 42.541737403629703 1.7347234759768101e-15 0 0 -0.078459095727845582 0.99691733373312785 
2 42.541737403629703 1.7347234759768101e-15 0 -1 0 0 0 0 1 0 1 -0 9.9060000000000006
1 39.747737403629699 -0.77721580228003695 9.8754631079603605 1 0 0 
2 39.747737403629699 1.7347234759768101e-15 0 -1 0 0 0 0 1 0 1 -0 9.9060000000000006
1 39.747737403629699 0.060979649032287198 0.77481990534427003 0 0.078459095727845582 0.99691733373312785 
1 39.747737403629699 0.060979649032287198 -0.77481990534427003 0 -0.078459095727845582 0.99691733373312785 
1 48.891737403629698 0 5.5562500000000004 -1 0 0 
2 42.541737403629703 0 0 -1 0 0 0 0 1 0 1 -0 5.5562500000000004
1 48.891737403629698 6.8044437777624801e-16 -5.5562500000000004 -1 0 0 
2 48.891737403629698 0 0 -1 0 0 0 0 1 0 1 -0 5.5562500000000004
1 48.891737403629698 5.0409895378619103 -8.7312499999999993 -1 0 0 
7 0 0  3 8 4  43.652987403629602 5.0409895378619103 -8.7312499999999993  43.321842568560299 5.4434974856719798 -8.03408578394267  43.043922251232303 5.85271247853996 -7.3253046250763996  42.750625410288897 6.4821082608253802 -6.2351591520885101  42.673608030024603 6.6945214269651299 -5.8672487561378803  42.568932976797299 7.1255677833042901 -5.1206545665410301  42.541737403629703 7.3451645783592303 -4.74030176032658  42.541737403629703 7.5614843067928703 -4.3656250000000103 
 2.4715405899088401e-07 4 0.0025848474699162799 2 0.0038771476278449202 2 0.0051694477857735597 4
7 0 0  3 6 3  42.541737403629703 7.5614843067928703 -4.3656250000000103  42.541737403629703 7.9950909007308297 -3.6145963488025799  42.649607558070898 8.4214345380314093 -2.8761475075142702  43.039064463727499 9.2624253789331696 -1.41950864237235  43.320826045845997 9.6782355402544908 -0.69930431666041504  43.652987403629702 10.081979075723799 0 
 0.0051694477857735597 4 0.0077598258057645303 2 0.010350203825755499 4
1 48.891737403629698 10.081979075723799 -3.4453717538975999e-15 -1 0 0 
7 0 0  3 6 3  48.891737403629698 7.5614843067928703 -4.3656250000000103  48.891737403629598 7.9950909007308297 -3.6145963488025799  48.783867249188503 8.4214345380314093 -2.8761475075142702  48.394410343531803 9.2624253789331696 -1.41950864237235  48.112648761413404 9.6782355402544908 -0.69930431666041504  47.780487403629699 10.081979075723799 0 
 0.0051694477857735597 4 0.0077598258057645399 2 0.010350203825755499 4
7 0 0  3 8 4  47.780487403629699 5.0409895378619396 -8.7312499999999993  48.111632238699002 5.4434974856719904 -8.0340857839426594  48.389552556026999 5.85271247853996 -7.3253046250763898  48.682849396970397 6.4821082608253802 -6.2351591520885004  48.759866777234699 6.6945214269651299 -5.8672487561378803  48.864541830462102 7.1255677833042901 -5.1206545665410204  48.891737403629698 7.3451645783592303 -4.74030176032658  48.891737403629698 7.5614843067928703 -4.3656250000000103 
 2.4715405900426401e-07 4 0.0025848474699162799 2 0.0038771476278449202 2 0.0051694477857735597 4
7 0 0  3 8 4  43.652987403629702 10.081979075723799 0  43.321842568560299 9.6794711279137697 0.69716421605733203  43.043922251232303 9.2702561350457895 1.4059453749235999  42.750625410288897 8.6408603527603791 2.4960908479114998  42.673608030024603 8.4284471866206196 2.8640012438621301  42.568932976797299 7.9974008302814603 3.61059543345899  42.541737403629703 7.7778040352265201 3.9909482396734299  42.541737403629703 7.5614843067928801 4.3656249999999996 
 2.4715405899231899e-07 4 0.0025848474699162898 2 0.0038771476278449402 2 0.0051694477857735796 4
7 0 0  3 6 3  42.541737403629703 7.5614843067928801 4.3656249999999996  42.541737403629703 7.1278777128549198 5.1166536511974297  42.649607558070898 6.70153407555435 5.8551024924857504  43.039064463727499 5.8605432346525896 7.3117413576276498  43.320826045845997 5.44473307333128 8.0319456833395808  43.652987403629702 5.0409895378619396 8.7312499999999993 
 0.0051694477857735796 4 0.0077598258057645399 2 0.010350203825755499 4
1 48.891737403629698 5.0409895378619201 8.7312499999999993 -1 0 0 
7 0 0  3 6 3  48.891737403629698 7.5614843067928801 4.3656249999999996  48.891737403629598 7.1278777128549198 5.1166536511974297  48.783867249188503 6.70153407555435 5.8551024924857504  48.394410343531803 5.8605432346525896 7.3117413576276498  48.112648761413404 5.44473307333128 8.0319456833395808  47.780487403629699 5.0409895378619396 8.7312499999999993 
 0.0051694477857735796 4 0.0077598258057645399 2 0.010350203825755499 4
7 0 0  3 8 4  47.780487403629699 10.081979075723799 0  48.111632238699002 9.6794711279137609 0.69716421605733303  48.389552556026999 9.2702561350457895 1.4059453749235999  48.682849396970397 8.6408603527603791 2.4960908479114998  48.759866777234699 8.4284471866206196 2.8640012438621301  48.864541830462102 7.9974008302814603 3.61059543345899  48.891737403629598 7.7778040352265201 3.9909482396734299  48.891737403629698 7.5614843067928801 4.3656249999999996 
 2.4715405899231899e-07 4 0.0025848474699162898 2 0.0038771476278449402 2 0.0051694477857735796 4
7 0 0  3 8 4  43.652987403629702 -5.0409895378619298 8.7312500000000099  43.488437572766301 -4.6409675069013199 8.7312499999999993  43.335888885947803 -4.2346778883150504 8.7312499999999993  43.062469562523397 -3.40555481542349 8.7312499999999993  42.943244062085498 -2.98722439196511 8.7312499999999993  42.650308917432 -1.7245730382914499 8.7312499999999993  42.541737403629703 -0.87018618192823605 8.7312499999999993  42.541737403629703 0 8.7312499999999993 
 0.0072516217324287702 4 0.0085438804388016706 2 0.0098361391451745692 2 0.0124206565579204 4
1 48.891737403629698 -5.0409895378619298 8.7312499999999993 -1 0 0 
7 0 0  3 8 4  47.780487403629699 -5.0409895378619298 8.7312500000000099  47.945037234493 -4.6409675069013296 8.7312499999999993  48.097585921311499 -4.2346778883150504 8.7312499999999993  48.371005244735898 -3.4055548154234998 8.7312499999999993  48.490230745173797 -2.9872243919651198 8.7312499999999993  48.783165889827302 -1.7245730382914499 8.7312499999999993  48.891737403629698 -0.87018618192823705 8.7312499999999993  48.891737403629698 0 8.7312499999999993 
 0.0072516217324287598 4 0.0085438804388016602 2 0.0098361391451745606 2 0.0124206565579204 4
7 0 0  3 10 5  48.891737403629698 0 8.7312499999999993  48.891737403629698 0.43332837316790501 8.7312499999999993  48.8645035372205 0.87166975863337604 8.7312499999999993  48.760264506703997 1.73112712232665 8.7312499999999993  48.6835127590208 2.1554133513596598 8.7312499999999993  48.488178175504203 2.9947432966288998 8.7312499999999993  48.369635022521202 3.40979578072821 8.7312499999999993  48.0983285487697 4.23233985695268 8.7312499999999993  47.945036131422597 4.6409701884747303 8.7312499999999993  47.780487403629699 5.0409895378619396 8.7312499999999993 
 0.0124206565579204 4 0.013707673921730499 2 0.014994691285540601 2 0.016281708649350701 2 0.017568726013160799 4
7 0 0  3 10 5  42.541737403629703 0 8.7312499999999993  42.541737403629597 0.43332837316790501 8.7312499999999993  42.568971270038801 0.87166975863337504 8.7312499999999993  42.673210300555297 1.73112712232665 8.7312499999999993  42.749962048238501 2.1554133513596598 8.7312499999999993  42.945296631755099 2.9947432966288998 8.7312499999999993  43.0638397847381 3.40979578072821 8.7312499999999993  43.335146258489601 4.2323398569526898 8.7312499999999993  43.488438675836697 4.6409701884747303 8.7312499999999993  43.652987403629702 5.0409895378619396 8.7312499999999993 
 0.0124206565579204 4 0.013707673921730499 2 0.014994691285540601 2 0.016281708649350701 2 0.017568726013160799 4
7 0 0  3 8 4  43.652987403629702 -5.0409895378619298 8.7312500000000099  43.321842568560299 -5.4434974856720002 8.03408578394267  43.043922251232402 -5.8527124785399796 7.3253046250764102  42.750625410288897 -6.4821082608253899 6.2351591520885199  42.673608030024603 -6.6945214269651396 5.8672487561378901  42.568932976797299 -7.1255677833043096 5.1206545665410301  42.541737403629703 -7.3451645783592401 4.7403017603265996  42.541737403629703 -7.5614843067928703 4.3656250000000103 
 2.4715405898379599e-07 4 0.0025848474699162699 2 0.0038771476278449098 2 0.0051694477857735502 4
7 0 0  3 6 3  42.541737403629703 -7.5614843067928703 4.3656250000000103  42.541737403629703 -7.9950909007308502 3.6145963488025901  42.649607558070898 -8.4214345380314306 2.8761475075142702  43.039064463727499 -9.2624253789331892 1.41950864237234  43.320826045845997 -9.6782355402545193 0.69930431666040904  43.652987403629702 -10.081979075723799 -3.5561831257524501e-14 
 0.0051694477857735502 4 0.0077598258057645303 2 0.010350203825755499 4
1 48.891737403629698 -10.081979075723901 2.7542434310181301e-15 -1 0 0 
7 0 0  3 6 3  48.891737403629698 -7.5614843067928703 4.3656250000000103  48.891737403629598 -7.9950909007308502 3.6145963488025901  48.783867249188503 -8.4214345380314306 2.8761475075142702  48.394410343531803 -9.2624253789331892 1.41950864237234  48.112648761413297 -9.6782355402545193 0.69930431666041004  47.780487403629699 -10.081979075723799 -3.5561831257524501e-14 
 0.0051694477857735397 4 0.0077598258057645303 2 0.010350203825755499 4
7 0 0  3 8 4  47.780487403629699 -5.0409895378619298 8.7312500000000099  48.111632238699002 -5.4434974856720002 8.0340857839426807  48.389552556026999 -5.8527124785399796 7.3253046250764102  48.682849396970397 -6.4821082608253899 6.2351591520885199  48.759866777234699 -6.6945214269651396 5.8672487561378901  48.864541830462002 -7.1255677833042999 5.1206545665410399  48.891737403629598 -7.3451645783592401 4.7403017603265996  48.891737403629698 -7.5614843067928703 4.3656250000000103 
 2.4715405898379599e-07 4 0.0025848474699162599 2 0.0038771476278448998 2 0.0051694477857735397 4
7 0 0  3 8 4  43.652987403629702 -10.081979075723799 -3.5561831257524501e-14  43.321842568560299 -9.6794711279137697 -0.697164216057367  43.043922251232303 -9.2702561350458001 -1.4059453749236299  42.750625410288897 -8.6408603527603898 -2.4960908479115198  42.673608030024603 -8.4284471866206303 -2.86400124386215  42.568932976797299 -7.9974008302814701 -3.6105954334589998  42.541737403629703 -7.7778040352265396 -3.9909482396734401  42.541737403629703 -7.5614843067928801 -4.3656249999999996 
 2.4715405903800001e-07 4 0.0025848474699163202 2 0.0038771476278449501 2 0.00516944778577359 4
7 0 0  3 6 3  42.541737403629703 -7.5614843067928801 -4.3656249999999996  42.541737403629703 -7.1278777128549402 -5.1166536511974403  42.649607558070898 -6.7015340755543598 -5.8551024924857504  43.039064463727499 -5.8605432346526101 -7.3117413576276604  43.320826045845997 -5.4447330733313004 -8.0319456833395897  43.652987403629702 -5.0409895378619396 -8.7312499999999993 
 0.00516944778577359 4 0.0077598258057645503 2 0.010350203825755499 4
1 48.891737403629698 -5.0409895378619396 -8.7312499999999993 -1 0 0 
7 0 0  3 6 3  48.891737403629698 -7.5614843067928801 -4.3656249999999996  48.891737403629598 -7.1278777128549402 -5.1166536511974403  48.783867249188503 -6.7015340755543598 -5.8551024924857504  48.394410343531803 -5.8605432346526101 -7.3117413576276604  48.112648761413297 -5.4447330733313004 -8.0319456833395897  47.780487403629699 -5.0409895378619396 -8.7312499999999993 
 0.00516944778577359 4 0.0077598258057645503 2 0.010350203825755499 4
7 0 0  3 8 4  47.780487403629699 -10.081979075723799 -3.5561831257524501e-14  48.111632238699002 -9.6794711279137697 -0.697164216057366  48.389552556026999 -9.2702561350458001 -1.4059453749236299  48.682849396970397 -8.6408603527603898 -2.4960908479115198  48.759866777234699 -8.4284471866206303 -2.86400124386215  48.864541830462102 -7.9974008302814701 -3.6105954334589998  48.891737403629598 -7.7778040352265396 -3.9909482396734401  48.891737403629698 -7.5614843067928801 -4.3656249999999996 
 2.4715405903800001e-07 4 0.0025848474699163202 2 0.0038771476278449601 2 0.00516944778577359 4
7 0 0  3 8 4  43.652987403629702 -5.0409895378619396 -8.7312499999999993  43.488437572766301 -4.6409675069013296 -8.7312499999999993  43.335888885947803 -4.2346778883150504 -8.7312499999999993  43.062469562523397 -3.40555481542349 -8.7312499999999993  42.943244062085597 -2.9872243919651198 -8.7312499999999993  42.650308917432 -1.7245730382914499 -8.7312499999999993  42.541737403629703 -0.87018618192823705 -8.7312499999999993  42.541737403629703 0 -8.7312499999999993 
 0.0072516217324287797 4 0.0085438804388016792 2 0.0098361391451745796 2 0.0124206565579204 4
7 0 0  3 10 5  42.541737403629703 0 -8.7312499999999993  42.541737403629703 0.43332837316790401 -8.7312499999999993  42.568971270038801 0.87166975863337104 -8.7312499999999993  42.673210300555297 1.73112712232664 -8.7312499999999993  42.749962048238501 2.1554133513596399 -8.7312499999999993  42.945296631755099 2.9947432966288901 -8.7312499999999993  43.0638397847381 3.40979578072819 -8.7312499999999993  43.335146258489601 4.2323398569526596 -8.7312499999999993  43.488438675836697 4.6409701884747099 -8.7312499999999993  43.652987403629602 5.0409895378619103 -8.7312499999999993 
 0.0124206565579204 4 0.013707673921730499 2 0.014994691285540601 2 0.016281708649350701 2 0.017568726013160799 4
7 0 0  3 10 5  48.891737403629698 0 -8.7312499999999993  48.891737403629698 0.43332837316790401 -8.7312499999999993  48.8645035372205 0.87166975863337604 -8.7312499999999993  48.760264506703997 1.73112712232665 -8.7312499999999993  48.6835127590208 2.1554133513596501 -8.7312499999999993  48.488178175504203 2.9947432966288998 -8.7312499999999993  48.369635022521202 3.40979578072821 -8.7312499999999993  48.0983285487697 4.23233985695268 -8.7312499999999993  47.945036131422498 4.6409701884747303 -8.7312499999999993  47.780487403629699 5.0409895378619396 -8.7312499999999993 
 0.0124206565579204 4 0.013707673921730499 2 0.014994691285540601 2 0.016281708649350701 2 0.017568726013160799 4
7 0 0  3 8 4  47.780487403629699 -5.0409895378619396 -8.7312499999999993  47.945037234493 -4.6409675069013403 -8.7312499999999993  48.097585921311499 -4.2346778883150602 -8.7312499999999993  48.371005244735898 -3.4055548154234998 -8.7312499999999993  48.490230745173797 -2.9872243919651198 -8.7312499999999993  48.783165889827302 -1.7245730382914499 -8.7312499999999993  48.891737403629698 -0.87018618192823904 -8.7312499999999993  48.891737403629698 0 -8.7312499999999993 
 0.0072516217324287797 4 0.0085438804388016792 2 0.0098361391451745796 2 0.0124206565579204 4
2 42.541737403629703 0 0 -1 0 0 0 0 1 0 1 -0 8.7312499999999993
2 42.541737403629703 0 0 -1 0 0 0 0 1 0 1 -0 8.7312499999999993
2 42.541737403629703 0 0 -1 0 0 0 0 1 0 1 -0 8.7312499999999993
2 42.541737403629703 0 0 -1 0 0 0 0 1 0 1 -0 8.7312499999999993
2 42.541737403629703 0 0 -1 0 0 0 0 1 0 1 -0 8.7312499999999993
2 42.541737403629703 0 0 -1 0 0 0 0 1 0 1 -0 8.7312499999999993
2 42.541737403629703 0 0 -1 0 0 0 0 1 0 1 -0 5.5562500000000004
2 48.891737403629698 0 0 -1 0 0 0 0 1 0 1 -0 8.7312499999999993
2 48.891737403629698 0 0 1 0 -0 0 0 1 0 -1 0 8.7312499999999993
2 48.891737403629698 0 0 1 0 -0 0 0 1 0 -1 0 8.7312499999999993
2 48.891737403629698 0 0 1 0 -0 0 0 1 0 -1 0 8.7312499999999993
2 48.891737403629698 0 0 1 0 -0 0 0 1 0 -1 0 8.7312499999999993
2 48.891737403629698 0 0 1 0 -0 0 8.8817841970012504e-16 1 0 -1 8.8817841970012504e-16 8.7312499999999993
2 48.891737403629698 0 0 -1 0 0 0 0 1 0 1 -0 5.5562500000000004
Polygon3D 0
PolygonOnTriangulations 0
Surfaces 30
2 7.6167374036297097 1.7347234759768101e-15 0 1 0 -0 0 0 1 0 -1 0 9.9060000000000006
2 7.6167374036297097 1.7347234759768101e-15 0 1 0 -0 0 0 1 0 -1 0 9.9060000000000006
1 39.747737403629699 9.9060000000000006 0 1 0 0 -0 1 0 0 -0 1 
1 39.747737403629699 1.7347234759768101e-15 0 0 0.99691733373312796 -0.078459095727845596 -1 0 0 0 0.078459095727845596 0.99691733373312796 
1 42.541737403629703 5.7149999999999999 0 -1 0 0 0 0 1 0 1 -0 
2 7.6167374036297097 1.7347234759768101e-15 0 1 0 -0 0 0 1 0 -1 0 5.7149999999999999
2 7.6167374036297097 1.7347234759768101e-15 0 1 0 -0 0 0 1 0 -1 0 5.7149999999999999
1 39.747737403629699 1.7347234759768101e-15 0 -0 0.99691733373312796 0.078459095727845596 1 0 0 0 0.078459095727845596 -0.99691733373312796 
2 48.891737403629698 0 0 1 -0 0 0 0 1 -0 -1 0 5.5562500000000004
2 48.891737403629698 0 0 1 -0 0 0 0 1 -0 -1 0 5.5562500000000004
1 42.541737403629703 -2.1684043449710101e-14 -17.462499999999999 -1 0 0 0 0 1 0 1 -0 
1 48.891737403629698 -2.1684043449710101e-14 -17.462499999999999 -1 0 0 0 0 1 0 1 -0 
1 48.891737403629698 10.081979075723799 -3.4453717538975999e-15 0 0.86602540378443771 -0.50000000000000178 -1 0 0 0 0.50000000000000178 0.86602540378443771 
1 48.891737403629698 5.0409895378619103 -8.7312499999999993 0 0 -1 0 -1 0 -1 -0 -0 
3 42.541737403629703 0 0 1 -0 0 0 0 -1 0 1 0 8.7312499999999993
0.88236407540839801
3 42.541737403629703 0 0 1 -0 0 0 0 -1 0 1 0 8.7312499999999993
0.88236407540839801
1 48.891737403629698 5.0409895378619201 8.7312499999999993 0 0.86602540378443804 0.500000000000001 1 0 -0 -0 0.500000000000001 -0.86602540378443804 
3 48.891737403629698 0 0 -1 0 -0 0 0 1 0 1 -0 8.7312499999999993
0.88236407540839701
3 48.891737403629698 0 0 -1 0 -0 0 0 1 0 1 -0 8.7312499999999993
0.88236407540839701
3 42.541737403629703 0 0 1 -0 0 0 0 -1 0 1 0 8.7312499999999993
0.88236407540839801
1 48.891737403629698 5.0409895378619201 8.7312499999999993 0 0 -1 0 -1 0 -1 -0 -0 
3 48.891737403629698 0 0 -1 0 -0 0 0 1 0 1 -0 8.7312499999999993
0.88236407540839701
3 42.541737403629703 0 0 1 -0 0 0 0 -1 0 1 0 8.7312499999999993
0.88236407540839801
1 48.891737403629698 -10.081979075723901 2.7542434310181301e-15 0 -0.86602540378443771 0.50000000000000178 -1 0 0 -0 -0.50000000000000178 -0.86602540378443771 
3 48.891737403629698 0 0 -1 0 -0 0 0 1 0 1 -0 8.7312499999999993
0.88236407540839701
3 42.541737403629703 0 0 1 -0 0 0 0 -1 0 1 0 8.7312499999999993
0.88236407540839801
1 48.891737403629698 -5.0409895378619396 -8.7312499999999993 0 -0.86602540378443804 -0.500000000000001 0 0.500000000000001 -0.86602540378443804 1 0 0 
3 48.891737403629698 0 0 -1 0 -0 0 0 1 0 1 -0 8.7312499999999993
0.88236407540839701
3 42.541737403629703 0 0 1 -0 0 0 0 -1 0 1 0 8.7312499999999993
0.88236407540839801
3 48.891737403629698 0 0 -1 0 -0 0 0 1 0 1 -0 8.7312499999999993
0.88236407540839701
Triangulations 0

TShapes 173
Ve
1e-07
39.7477374036297 5.2162842188036e-16 -9.906
0 0

0101101
*
Ve
1e-07
42.5417374036297 5.2162842188036e-16 -9.906
0 0

0101101
*
Ed
 1e-07 1 1 0
1  1 0 -1.397 1.39700000000001
2  1 1 0 -1.397 1.39700000000001
2  2 2 0 -1.397 1.39700000000001
4 CN 1 0 2 0
0

0101000
+173 0 -172 0 *
Ve
1e-07
39.7477374036297 0.777215802280038 9.87546310796037
0 0

0101101
*
Ed
 1e-07 1 1 0
1  2 0 0.0785398163397452 3.14159265358979
2  3 1 0 0.0785398163397452 3.14159265358979
4 C0 1 0 3 0
0

0101000
+170 0 -173 0 *
Ve
1e-07
42.5417374036297 0.777215802280038 9.87546310796036
0 0

0101101
*
Ed
 1e-07 1 1 0
1  3 0 0 2.794
2  4 1 0 0 2.794
4 C0 1 0 4 0
0

0101000
+170 0 -168 0 *
Ed
 1e-07 1 1 0
1  4 0 0.0785398163397453 3.14159265358979
2  5 1 0 0.0785398163397453 3.14159265358979
4 C0 1 0 5 0
0

0101000
+168 0 -172 0 *
Wi

0101100
-171 0 -169 0 +167 0 +166 0 *
Fa
0  1e-07 1 0

0111000
+165 0 *
Ve
1e-07
39.7477374036297 0.448393732084639 5.69738256228483
0 0

0101101
*
Ve
1e-07
39.7477374036297 1.03486094476732e-15 -5.715
0 0

0101101
*
Ed
 1e-07 1 1 0
1  5 0 0.0785398163397454 3.14159265358979
2  6 6 0 0.0785398163397454 3.14159265358979
4 C0 6 0 3 0
0

0101000
+163 0 -162 0 *
Ve
1e-07
42.5417374036297 0.448393732084639 5.69738256228483
0 0

0101101
*
Ed
 1e-07 1 1 0
1  6 0 -34.925 -32.131
2  7 6 0 -34.925 -32.131
4 C0 6 0 4 0
0

0101000
+160 0 -163 0 *
Ve
1e-07
42.5417374036297 1.03486094476732e-15 -5.715
0 0

0101101
*
Ed
 1e-07 1 1 0
1  7 0 0.0785398163397454 3.14159265358979
2  8 6 0 0.0785398163397454 3.14159265358979
4 C0 6 0 5 0
0

0101000
+160 0 -158 0 *
Ed
 1e-07 1 1 0
1  8 0 -1.39700000000001 1.397
2  9 6 0 -1.39700000000001 1.397
2  10 7 0 -1.39700000000001 1.397
4 CN 6 0 7 0
0

0101000
+158 0 -162 0 *
Wi

0101100
-161 0 -159 0 +157 0 +156 0 *
Fa
0  1e-07 6 0

0111000
+155 0 *
Ve
1e-07
42.5417374036297 -0.448393732084636 5.69738256228483
0 0

0101101
*
Ed
 1e-07 1 1 0
1  9 0 3.14159265358979 6.20464549083984
2  11 7 0 3.14159265358979 6.20464549083984
4 C0 7 0 5 0
0

0101000
+158 0 -153 0 *
Ve
1e-07
39.7477374036297 -0.448393732084634 5.69738256228483
0 0

0101101
*
Ed
 1e-07 1 1 0
1  10 0 -34.925 -32.131
2  12 7 0 -34.925 -32.131
4 C0 7 0 8 0
0

0101000
+153 0 -151 0 *
Ed
 1e-07 1 1 0
1  11 0 3.14159265358979 6.20464549083984
2  13 7 0 3.14159265358979 6.20464549083984
4 C0 7 0 3 0
0

0101000
+162 0 -151 0 *
Wi

0101100
+152 0 +150 0 -149 0 -156 0 *
Fa
0  1e-07 7 0

0111000
+148 0 *
Ed
 1e-07 1 1 0
1  12 0 5.715 9.90599999999999
4 C0 5 0 4 0
0

0101000
+160 0 -168 0 *
Ve
1e-07
42.5417374036297 -0.777215802280037 9.87546310796036
0 0

0101101
*
Ed
 1e-07 1 1 0
1  13 0 5.715 9.90599999999999
4 C0 5 0 8 0
0

0101000
+153 0 -145 0 *
Ed
 1e-07 1 1 0
1  14 0 3.14159265358979 6.20464549083984
2  14 2 0 3.14159265358979 6.20464549083984
4 C0 5 0 2 0
0

0101000
+172 0 -145 0 *
Wi

0101100
-166 0 -146 0 +157 0 +152 0 +144 0 -143 0 *
Fa
0  1e-07 5 0

0111000
-142 0 *
Ve
1e-07
39.7477374036297 -0.777215802280037 9.87546310796036
0 0

0101101
*
Ed
 1e-07 1 1 0
1  15 0 0 2.794
2  15 2 0 0 2.794
4 C0 2 0 8 0
0

0101000
+140 0 -145 0 *
Ed
 1e-07 1 1 0
1  16 0 3.14159265358979 6.20464549083984
2  16 2 0 3.14159265358979 6.20464549083984
4 C0 2 0 3 0
0

0101000
+173 0 -140 0 *
Wi

0101100
+171 0 +143 0 -139 0 -138 0 *
Fa
0  1e-07 2 0

0111000
+137 0 *
Ed
 1e-07 1 1 0
1  17 0 4.93778419771997 9.12878419771996
4 C0 3 0 4 0
0

0101000
+163 0 -170 0 *
Ed
 1e-07 1 1 0
1  18 0 6.49221580228004 10.68321580228
4 C0 3 0 8 0
0

0101000
+151 0 -140 0 *
Wi

0101100
-161 0 +135 0 +169 0 +138 0 -134 0 -149 0 *
Fa
0  1e-07 3 0

0111000
-133 0 *
Wi

0101100
+150 0 +134 0 +139 0 -144 0 *
Fa
0  1e-07 8 0

0111000
+131 0 *
Wi

0101100
+146 0 -167 0 -135 0 -159 0 *
Fa
0  1e-07 4 0

0111000
-129 0 *
Sh

0101100
+164 0 -154 0 -147 0 -141 0 +136 0 -132 0 +130 0 -128 0 *
So

0100000
+127 0 *
Ve
1e-07
48.8917374036297 0 5.55625
0 0

0101101
*
Ve
1e-07
42.5417374036297 0 5.55625
0 0

0101101
*
Ed
 1e-07 1 1 0
1  19 0 0 6.34999999999999
2  17 9 0 0 6.34999999999999
2  18 10 0 0 6.34999999999999
4 CN 9 0 10 0
0

0101000
+125 0 -124 0 *
Ve
1e-07
42.5417374036297 6.80444377776248e-16 -5.55625
0 0

0101101
*
Ed
 1e-07 1 1 0
1  20 0 3.14159265358979 6.28318530717959
2  19 9 0 3.14159265358979 6.28318530717959
4 C0 9 0 11 0
0

0101000
+122 0 -124 0 *
Ve
1e-07
48.8917374036297 6.80444377776248e-16 -5.55625
0 0

0101101
*
Ed
 1e-07 1 1 0
1  21 0 0 6.34999999999999
2  20 9 0 0 6.34999999999999
2  21 10 0 0 6.34999999999999
4 CN 9 0 10 0
0

0101000
+120 0 -122 0 *
Ed
 1e-07 1 1 0
1  22 0 3.14159265358979 6.28318530717959
2  22 9 0 3.14159265358979 6.28318530717959
4 C0 9 0 12 0
0

0101000
+120 0 -125 0 *
Wi

0101100
+123 0 -121 0 -119 0 +118 0 *
Fa
0  1e-07 9 0

0111000
+117 0 *
Ve
0.00010454505907157
47.7804874036297 5.04098953786194 -8.73125
0 0

0101101
*
Ve
0.000104545059063372
43.6529874036296 5.04098953786191 -8.73125
0 0

0101101
*
Ed
 1e-07 1 1 0
1  23 0 1.11125 5.2387500000001
4 C0 13 0 14 0
0

0101000
+115 0 -114 0 *
Ve
0.000204012059687189
42.5417374036297 7.56148430679287 -4.36562500000001
0 0

0101101
*
Ed
 0.000104545059063372 1 1 0
1  24 0 2.47154058990884e-07 0.00516944778577356
2  23 15 0 2.47154058990884e-07 0.00516944778577356
4 C0 13 0 15 0
0

0101000
+114 0 -112 0 *
Ve
0.000204012059687189
43.6529874036297 10.0819790757238 0
0 0

0101101
*
Ed
 0.000204012059687189 1 1 0
1  25 0 0.00516944778577356 0.0103502038257555
2  24 16 0 0.00516944778577356 0.0103502038257555
4 C0 13 0 16 0
0

0101000
+112 0 -110 0 *
Ve
0.000204012059724102
47.7804874036297 10.0819790757238 0
0 0

0101101
*
Ed
 1e-07 1 1 0
1  26 0 1.11125 5.23875
4 C0 13 0 17 0
0

0101000
+108 0 -110 0 *
Ve
0.000204012059724102
48.8917374036297 7.56148430679287 -4.36562500000001
0 0

0101101
*
Ed
 0.000204012059724102 1 1 0
1  27 0 0.00516944778577356 0.0103502038257555
2  25 18 0 0.00516944778577356 0.0103502038257555
4 C0 13 0 18 0
0

0101000
+106 0 -108 0 *
Ed
 0.00010454505907157 1 1 0
1  28 0 2.47154059004264e-07 0.00516944778577356
2  26 19 0 2.47154059004264e-07 0.00516944778577356
4 C0 13 0 19 0
0

0101000
+115 0 -106 0 *
Wi

0101100
+113 0 +111 0 +109 0 -107 0 -105 0 -104 0 *
Fa
0  1e-07 13 0

0111000
+103 0 *
Ve
0.000204012059686756
42.5417374036297 7.56148430679288 4.365625
0 0

0101101
*
Ed
 0.000104545059062209 1 1 0
1  29 0 2.47154058992319e-07 0.00516944778577358
2  27 16 0 2.47154058992319e-07 0.00516944778577358
4 C0 17 0 16 0
0

0101000
+110 0 -101 0 *
Ve
0.000204012059686756
43.6529874036297 5.04098953786194 8.73125
0 0

0101101
*
Ed
 0.000204012059686756 1 1 0
1  30 0 0.00516944778577358 0.0103502038257555
2  28 20 0 0.00516944778577358 0.0103502038257555
4 C0 17 0 20 0
0

0101000
+101 0 -99 0 *
Ve
0.000204012059723258
47.7804874036297 5.04098953786194 8.73125
0 0

0101101
*
Ed
 1e-07 1 1 0
1  31 0 1.11125 5.23875
4 C0 17 0 21 0
0

0101000
+97 0 -99 0 *
Ve
0.000204012059723258
48.8917374036297 7.56148430679288 4.365625
0 0

0101101
*
Ed
 0.000204012059723258 1 1 0
1  32 0 0.00516944778577358 0.0103502038257555
2  29 22 0 0.00516944778577358 0.0103502038257555
4 C0 17 0 22 0
0

0101000
+95 0 -97 0 *
Ed
 0.000104545059091407 1 1 0
1  33 0 2.47154058992319e-07 0.00516944778577358
2  30 18 0 2.47154058992319e-07 0.00516944778577358
4 C0 17 0 18 0
0

0101000
+108 0 -95 0 *
Wi

0101100
+107 0 +100 0 +98 0 -96 0 -94 0 -93 0 *
Fa
0  1e-07 17 0

0111000
+92 0 *
Ve
0.000199187483003291
43.6529874036297 -5.04098953786193 8.73125000000001
0 0

0101101
*
Ve
0.000199187483003291
42.5417374036297 0 8.73125
0 0

0101101
*
Ed
 0.000199187483003291 1 1 0
1  34 0 0.00725162173242877 0.0124206565579204
2  31 23 0 0.00725162173242877 0.0124206565579204
4 C0 21 0 23 0
0

0101000
+90 0 -89 0 *
Ve
0.000199187483041717
47.7804874036297 -5.04098953786193 8.73125000000001
0 0

0101101
*
Ed
 1e-07 1 1 0
1  35 0 1.11125 5.23875
4 C0 21 0 24 0
0

0101000
+87 0 -90 0 *
Ve
0.000199187483041717
48.8917374036297 0 8.73125
0 0

0101101
*
Ed
 0.000199187483041717 1 1 0
1  36 0 0.00725162173242876 0.0124206565579204
2  32 25 0 0.00725162173242876 0.0124206565579204
4 C0 21 0 25 0
0

0101000
+87 0 -85 0 *
Ed
 9.78204621006192e-05 1 1 0
1  37 0 0.0124206565579204 0.0175687260131608
2  33 22 0 0.0124206565579204 0.0175687260131608
4 C0 21 0 22 0
0

0101000
+85 0 -97 0 *
Ed
 9.7820462030673e-05 1 1 0
1  38 0 0.0124206565579204 0.0175687260131608
2  34 20 0 0.0124206565579204 0.0175687260131608
4 C0 21 0 20 0
0

0101000
+89 0 -99 0 *
Wi

0101100
-88 0 -86 0 +84 0 +83 0 +96 0 -82 0 *
Fa
0  1e-07 21 0

0111000
-81 0 *
Ve
0.00020401205967739
42.5417374036297 -7.56148430679287 4.36562500000001
0 0

0101101
*
Ed
 0.000104545059057481 1 1 0
1  39 0 2.47154058983796e-07 0.00516944778577355
2  35 23 0 2.47154058983796e-07 0.00516944778577355
4 C0 24 0 23 0
0

0101000
+90 0 -79 0 *
Ve
0.00020401205967739
43.6529874036297 -10.0819790757238 -3.55618312575245e-14
0 0

0101101
*
Ed
 0.00020401205967739 1 1 0
1  40 0 0.00516944778577355 0.0103502038257555
2  36 26 0 0.00516944778577355 0.0103502038257555
4 C0 24 0 26 0
0

0101000
+79 0 -77 0 *
Ve
0.000204012059714439
47.7804874036297 -10.0819790757238 -3.55618312575245e-14
0 0

0101101
*
Ed
 1e-07 1 1 0
1  41 0 1.11125 5.23875
4 C0 24 0 27 0
0

0101000
+75 0 -77 0 *
Ve
0.000204012059714439
48.8917374036297 -7.56148430679287 4.36562500000001
0 0

0101101
*
Ed
 0.000204012059714439 1 1 0
1  42 0 0.00516944778577354 0.0103502038257555
2  37 28 0 0.00516944778577354 0.0103502038257555
4 C0 24 0 28 0
0

0101000
+73 0 -75 0 *
Ed
 0.000104545059129326 1 1 0
1  43 0 2.47154058983796e-07 0.00516944778577354
2  38 25 0 2.47154058983796e-07 0.00516944778577354
4 C0 24 0 25 0
0

0101000
+87 0 -73 0 *
Wi

0101100
+86 0 +78 0 +76 0 -74 0 -72 0 -71 0 *
Fa
0  1e-07 24 0

0111000
+70 0 *
Ve
0.000204012059677414
42.5417374036297 -7.56148430679288 -4.365625
0 0

0101101
*
Ed
 0.000104545059058881 1 1 0
1  44 0 2.47154059038e-07 0.00516944778577359
2  39 26 0 2.47154059038e-07 0.00516944778577359
4 C0 27 0 26 0
0

0101000
+77 0 -68 0 *
Ve
0.000204012059677414
43.6529874036297 -5.04098953786194 -8.73125
0 0

0101101
*
Ed
 0.000204012059677414 1 1 0
1  45 0 0.00516944778577359 0.0103502038257555
2  40 29 0 0.00516944778577359 0.0103502038257555
4 C0 27 0 29 0
0

0101000
+68 0 -66 0 *
Ve
0.000204012059714925
47.7804874036297 -5.04098953786194 -8.73125
0 0

0101101
*
Ed
 1e-07 1 1 0
1  46 0 1.11125 5.23875
4 C0 27 0 14 0
0

0101000
+64 0 -66 0 *
Ve
0.000204012059714925
48.8917374036297 -7.56148430679288 -4.365625
0 0

0101101
*
Ed
 0.000204012059714925 1 1 0
1  47 0 0.00516944778577359 0.0103502038257555
2  41 30 0 0.00516944778577359 0.0103502038257555
4 C0 27 0 30 0
0

0101000
+62 0 -64 0 *
Ed
 0.000104545059082108 1 1 0
1  48 0 2.47154059038e-07 0.00516944778577359
2  42 28 0 2.47154059038e-07 0.00516944778577359
4 C0 27 0 28 0
0

0101000
+75 0 -62 0 *
Wi

0101100
+74 0 +67 0 +65 0 -63 0 -61 0 -60 0 *
Fa
0  1e-07 27 0

0111000
+59 0 *
Ve
0.000199187483012203
42.5417374036297 0 -8.73125
0 0

0101101
*
Ed
 0.000199187483012203 1 1 0
1  49 0 0.00725162173242878 0.0124206565579204
2  43 29 0 0.00725162173242878 0.0124206565579204
4 C0 14 0 29 0
0

0101000
+66 0 -57 0 *
Ed
 9.78204620550769e-05 1 1 0
1  50 0 0.0124206565579204 0.0175687260131608
2  44 15 0 0.0124206565579204 0.0175687260131608
4 C0 14 0 15 0
0

0101000
+57 0 -114 0 *
Ve
0.000199187483042213
48.8917374036297 0 -8.73125
0 0

0101101
*
Ed
 9.78204621007796e-05 1 1 0
1  51 0 0.0124206565579204 0.0175687260131608
2  45 19 0 0.0124206565579204 0.0175687260131608
4 C0 14 0 19 0
0

0101000
+54 0 -115 0 *
Ed
 0.000199187483042213 1 1 0
1  52 0 0.00725162173242878 0.0124206565579204
2  46 30 0 0.00725162173242878 0.0124206565579204
4 C0 14 0 30 0
0

0101000
+64 0 -54 0 *
Wi

0101100
+63 0 +56 0 +55 0 -113 0 -53 0 -52 0 *
Fa
0  1e-07 14 0

0111000
+51 0 *
Ed
 1e-07 1 1 0
1  53 0 5.23598775598299 6.28318530717959
2  47 23 0 5.23598775598299 6.28318530717959
4 C0 11 0 23 0
0

0101000
+79 0 -89 0 *
Ed
 1e-07 1 1 0
1  54 0 0 1.0471975511966
2  48 20 0 0 1.0471975511966
4 C0 11 0 20 0
0

0101000
+89 0 -101 0 *
Ed
 1e-07 1 1 0
1  55 0 1.0471975511966 2.0943951023932
2  49 16 0 1.0471975511966 2.0943951023932
4 C0 11 0 16 0
0

0101000
+101 0 -112 0 *
Ed
 1e-07 1 1 0
1  56 0 2.0943951023932 3.14159265358979
2  50 15 0 2.0943951023932 3.14159265358979
4 C0 11 0 15 0
0

0101000
+112 0 -57 0 *
Ed
 1e-07 1 1 0
1  57 0 3.14159265358979 4.18879020478639
2  51 29 0 3.14159265358979 4.18879020478639
4 C0 11 0 29 0
0

0101000
+57 0 -68 0 *
Ed
 1e-07 1 1 0
1  58 0 4.18879020478639 5.23598775598299
2  52 26 0 4.18879020478639 5.23598775598299
4 C0 11 0 26 0
0

0101000
+68 0 -79 0 *
Wi

0101100
+49 0 +48 0 +47 0 +46 0 +45 0 +44 0 *
Ed
 1e-07 1 1 0
1  59 0 0 3.14159265358979
2  53 10 0 0 3.14159265358979
4 C0 11 0 10 0
0

0101000
+124 0 -122 0 *
Wi

0101100
-42 0 -121 0 *
Fa
0  1e-07 11 0

0111000
+43 0 +41 0 *
Ed
 1e-07 1 1 0
1  60 0 0 1.0471975511966
2  54 22 0 0 1.0471975511966
4 C0 12 0 22 0
0

0101000
+85 0 -95 0 *
Ed
 1e-07 1 1 0
1  61 0 0 1.0471975511966
2  55 25 0 0 1.0471975511966
4 C0 12 0 25 0
0

0101000
+85 0 -73 0 *
Ed
 1e-07 1 1 0
1  62 0 1.0471975511966 2.0943951023932
2  56 28 0 1.0471975511966 2.0943951023932
4 C0 12 0 28 0
0

0101000
+73 0 -62 0 *
Ed
 1e-07 1 1 0
1  63 0 2.0943951023932 3.14159265358979
2  57 30 0 2.0943951023932 3.14159265358979
4 C0 12 0 30 0
0

0101000
+62 0 -54 0 *
Ed
 1e-07 1 1 0
1  64 0 3.14159265358979 4.18879020478639
2  58 19 0 3.14159265358979 4.18879020478639
4 C0 12 0 19 0
0

0101000
+54 0 -106 0 *
Ed
 1e-07 1 1 0
1  65 0 4.18879020478639 5.23598775598299
2  59 18 0 4.18879020478639 5.23598775598299
4 C0 12 0 18 0
0

0101000
+106 0 -95 0 *
Wi

0101100
-39 0 +38 0 +37 0 +36 0 +35 0 +34 0 *
Ed
 1e-07 1 1 0
1  66 0 0 3.14159265358979
2  60 10 0 0 3.14159265358979
4 C0 12 0 10 0
0

0101000
+125 0 -120 0 *
Wi

0101100
+32 0 +118 0 *
Fa
0  1e-07 12 0

0111000
-33 0 -31 0 *
Wi

0101100
-42 0 -123 0 +32 0 +119 0 *
Fa
0  1e-07 10 0

0111000
+29 0 *
Wi

0101100
+94 0 -83 0 +39 0 *
Fa
0  1e-07 22 0

0111000
+27 0 *
Wi

0101100
+105 0 +93 0 -34 0 *
Fa
0  1e-07 18 0

0111000
+25 0 *
Wi

0101100
+104 0 -35 0 +53 0 *
Fa
0  1e-07 19 0

0111000
+23 0 *
Wi

0101100
+61 0 +52 0 -36 0 *
Fa
0  1e-07 30 0

0111000
+21 0 *
Wi

0101100
+72 0 +60 0 -37 0 *
Fa
0  1e-07 28 0

0111000
+19 0 *
Wi

0101100
+71 0 -38 0 -84 0 *
Fa
0  1e-07 25 0

0111000
+17 0 *
Wi

0101100
+88 0 -49 0 -78 0 *
Fa
0  1e-07 23 0

0111000
+15 0 *
Wi

0101100
-44 0 -67 0 -76 0 *
Fa
0  1e-07 26 0

0111000
+13 0 *
Wi

0101100
-45 0 -56 0 -65 0 *
Fa
0  1e-07 29 0

0111000
+11 0 *
Wi

0101100
-55 0 -46 0 -111 0 *
Fa
0  1e-07 15 0

0111000
+9 0 *
Wi

0101100
-47 0 -100 0 -109 0 *
Fa
0  1e-07 16 0

0111000
+7 0 *
Wi

0101100
-48 0 +82 0 -98 0 *
Fa
0  1e-07 20 0

0111000
+5 0 *
Sh

0101100
-116 0 +102 0 +91 0 -80 0 +69 0 +58 0 +50 0 +40 0 -30 0 -28 0 
+26 0 +24 0 +22 0 +20 0 +18 0 +16 0 +14 0 +12 0 +10 0 +8 0 
+6 0 +4 0 *
So

0100000
+3 0 *
Co

1100000
+126 0 +2 0 *

+1 0 