DBRep_DrawableShape

CASCADE Topology V1, (c) Matra-Datavision
Locations 0
Curve2ds 60
1 3.1415926535897931 31.749999999999993 0 1 
1 3.1415926535897931 31.749999999999993 0 1 
1 6.2831853071795862 28.574999999999896 -1 0 
1 6.204645490839841 0 0 1 
1 6.2831853071795862 34.924999999999905 -1 0 
1 6.2831853071795862 28.574999999999896 -1 0 
1 6.204645490839841 0 0 -1 
1 6.2831853071795862 34.924999999999905 -1 0 
1 3.1415926535897931 31.749999999999993 0 -1 
1 3.1415926535897931 31.749999999999993 0 -1 
1 6.2831853071795862 34.924999999999905 -1 0 
1 0.078539816339744953 0 0 -1 
1 6.2831853071795862 28.574999999999896 -1 0 
1 6.2831853071795862 34.924999999999905 -1 0 
1 0.078539816339745591 0 0 1 
1 6.2831853071795862 28.574999999999896 -1 0 
1 0 0 0 -1 
1 6.2831853071795862 0 0 -1 
1 6.2831853071795862 -14.732000000000497 -1 0 
1 3.1415926535897931 4.9596535863927155e-40 0 -1 
1 3.1415926535897931 4.9596535863927155e-40 0 -1 
1 6.2831853071795862 0 -1 0 
7 0 0  3 25 23  0.52359877559829948 3.8905880971451374  0.52988047621706136 3.7852676722619818  0.54259948182087003 3.5777327031141266  0.56214952517795225 3.2761758189893988  0.58217628360364293 2.9847890325788682  0.60268333328864232 2.7040087706855345  0.62367300845205276 2.4342787580255107  0.64514610793597293 2.1760506286043229  0.66710177248762892 1.9297829265928073  0.68953732027464676 1.6959406281240441  0.7124480792567528 1.4749934397179034  0.73582729189502005 1.2674176870168967  0.75966577177048111 1.0736842631976988  0.78395254086144617 0.89429794037526467  0.80867439249425777 0.72977750022152232  0.83381494858887895 0.58060889387623915  0.85935533596020264 0.44728454918928712  0.88527405172221396 0.33028954128258653  0.91154666114067373 0.23010724505918176  0.93814709101429505 0.14719472151213192  0.96504172084735851 0.081995807913545174  0.99221268075751712 0.034923796293205918  1.0196326090038355 0.0064009411435228631  1.0380037975990763 -9.0899238160320975e-06  1.0471975511965979 2.9602231090146503e-14 
 2.47549743114591e-07 4 0.00051334664222735943 1 0.0010264457347116042 1 0.001539544827195849 1 0.0020526439196800936 1 0.0025657430121643382 1 0.0030788421046485832 1 0.0035919411971328283 1 0.0041050402896170733 1 0.0046181393821013179 1 0.0051312384745855625 1 0.0056443375670698079 1 0.0061574366595540525 1 0.0066705357520382971 1 0.0071836348445225425 1 0.0076967339370067871 1 0.0082098330294910309 1 0.0087229321219752763 1 0.00923603121445952 1 0.0097491303069437655 1 0.010262229399428009 1 0.010775328491912255 1 0.0112884275843965 4
7 0 0  3 25 23  1.0471975511965979 2.9602231090146503e-14  1.0563439321717469 -1.5101090230049246e-06  1.0745938658635759 0.0063453068605273666  1.1018039150335657 0.034561936684244648  1.1288120904254817 0.081128660138935035  1.1555836649919153 0.14567537889313262  1.1820857306424388 0.22781828962655284  1.2082875928141676 0.32715919865530529  1.234160879205132 0.44328794536216654  1.2596796791641283 0.57578366284159621  1.2848206001729725 0.72421788660029551  1.3095628820863539 0.88815154758745007  1.3338881294517304 1.0671545140138734  1.3577812948815959 1.2607408250688599  1.3812301537816039 1.4683994575006429  1.4042240170421383 1.689671365053611  1.4267548341907026 1.9240867772900583  1.4488160759089761 2.1711754402853192  1.4704053665963526 2.4304956939152906  1.4915094114119896 2.7014664168157378  1.5121164827197764 2.9834524259418398  1.5322182163929885 3.2758252648526267  1.5518081722777033 3.5779472756855979  1.5645246655086174 3.7854336930514432  1.5707963267948968 3.8905880971451667 
 0.0112884275843965 4 0.011798894986340519 1 0.012309362388284537 1 0.012819829790228554 1 0.013330297192172573 1 0.013840764594116591 1 0.01435123199606061 1 0.014861699398004628 1 0.015372166799948645 1 0.015882634201892665 1 0.016393101603836682 1 0.016903569005780703 1 0.017414036407724719 1 0.017924503809668736 1 0.018434971211612756 1 0.018945438613556773 1 0.01945590601550079 1 0.01996637341744481 1 0.020476840819388831 1 0.020987308221332844 1 0.021497775623276864 1 0.022008243025220885 1 0.022518710427164901 4
7 0 0  3 25 23  2.0943951023931957 2.9602231090146503e-14  2.0852487214180466 -1.5101090271301339e-06  2.0669987877262175 0.0063453068605185178  2.0397887385562279 0.034561936684226136  2.012780563164311 0.081128660138906628  1.9860089885978776 0.14567537889304208  1.9595069229473541 0.22781828962644227  1.9333050607756248 0.32715919865511445  1.9074317743846605 0.44328794536196681  1.8819129744256649 0.57578366284127358  1.8567720534168202 0.7242178865999489  1.832029771503439 0.8881515475870837  1.8077045241380623 1.0671545140134986  1.7838113587081967 1.2607408250684828  1.760362499808189 1.4683994575002437  1.7373686365476539 1.6896713650532311  1.7148378193990907 1.9240867772896777  1.6927765776808157 2.1711754402848982  1.6711872869934399 2.4304956939149069  1.6500832421778029 2.7014664168153915  1.6294761708700169 2.9834524259415871  1.6093744371968048 3.275825264852481  1.5897844813120894 3.5779472756856001  1.5770679880811755 3.7854336930514969  1.5707963267948966 3.8905880971452227 
 0.0112884275843965 4 0.011798894986340519 1 0.012309362388284537 1 0.012819829790228554 1 0.013330297192172573 1 0.013840764594116591 1 0.01435123199606061 1 0.014861699398004628 1 0.015372166799948645 1 0.015882634201892665 1 0.016393101603836682 1 0.016903569005780703 1 0.017414036407724719 1 0.017924503809668736 1 0.018434971211612756 1 0.018945438613556773 1 0.01945590601550079 1 0.01996637341744481 1 0.020476840819388831 1 0.020987308221332844 1 0.021497775623276864 1 0.022008243025220885 1 0.022518710427164901 4
7 0 0  3 25 23  2.6179938779914935 3.8905880971451277  2.6117121773727323 3.7852676722619876  2.5989931717689236 3.5777327031141146  2.5794431284118402 3.2761758189892829  2.5594163699861507 2.9847890325787305  2.5389093203011517 2.7040087706853466  2.5179196451377406 2.434278758025247  2.4964465456538201 2.176050628604012  2.4744908811021644 1.9297829265924913  2.4520553333151467 1.6959406281237013  2.4291445743330402 1.4749934397176026  2.405765361694773 1.2674176870166445  2.3819268818193131 1.0736842631975214  2.3576401127283471 0.89429794037518351  2.3329182610955357 0.72977750022141141  2.3077777050009147 0.58060889387615233  2.2822373176295905 0.44728454918914806  2.2563186018675805 0.33028954128241023  2.2300459924491194 0.23010724505900201  2.2034455625754981 0.14719472151176222  2.1765509327424355 0.081995807913200505  2.1493799728322749 0.034923796293132789  2.1219600445859581 0.0064009411435483089  2.1035888559907172 -9.089923789491943e-06  2.0943951023931957 2.9602231090146503e-14 
 2.4754974312213001e-07 4 0.00051334664222736658 1 0.0010264457347116112 1 0.0015395448271958555 1 0.0020526439196801001 1 0.0025657430121643447 1 0.0030788421046485889 1 0.0035919411971328335 1 0.0041050402896170776 1 0.0046181393821013222 1 0.0051312384745855668 1 0.0056443375670698114 1 0.0061574366595540551 1 0.0066705357520382997 1 0.0071836348445225443 1 0.0076967339370067889 1 0.0082098330294910343 1 0.008722932121975278 1 0.0092360312144595235 1 0.0097491303069437672 1 0.010262229399428013 1 0.010775328491912256 1 0.0112884275843965 4
7 0 0  3 25 23  1.5707963267948968 3.8905880971451667  1.5770780274136589 3.7852676722620116  1.5897970330174673 3.5777327031141462  1.6093470763745499 3.2761758189893944  1.6293738348002407 2.9847890325788473  1.6498808844852408 2.7040087706855505  1.6708705596486513 2.434278758025481  1.6923436591325713 2.1760506286042993  1.7142993236842285 1.9297829265927644  1.7367348714712458 1.6959406281239957  1.7596456304533519 1.474993439717901  1.7830248430916185 1.26741768701692  1.8068633229670787 1.0736842631976862  1.8311500920580435 0.89429794037528965  1.8558719436908551 0.72977750022150578  1.8810124997854754 0.58060889387621639  1.9065528871567998 0.44728454918924793  1.9324716029188105 0.33028954128253912  1.9587442123372716 0.23010724505914551  1.9853446422108931 0.14719472151212371  2.0122392720439572 0.081995807913550295  2.0394102319541183 0.034923796293167872  2.0668301602004346 0.0064009411434925922  2.0852013487956746 -9.0899238275595298e-06  2.0943951023931962 3.2293343007432551e-14 
 2.4754974311935799e-07 4 0.00051334664222736398 1 0.0010264457347116086 1 0.0015395448271958532 1 0.0020526439196800975 1 0.0025657430121643421 1 0.0030788421046485867 1 0.0035919411971328313 1 0.0041050402896170759 1 0.0046181393821013205 1 0.0051312384745855651 1 0.0056443375670698097 1 0.0061574366595540542 1 0.0066705357520382988 1 0.0071836348445225434 1 0.007696733937006788 1 0.0082098330294910326 1 0.008722932121975278 1 0.0092360312144595218 1 0.0097491303069437655 1 0.010262229399428011 1 0.010775328491912256 1 0.0112884275843965 4
7 0 0  3 25 23  2.0943951023931962 3.2293343007432551e-14  2.1035414833683452 -1.5101090230039037e-06  2.1217914170601744 0.0063453068605216906  2.1490014662301644 0.034561936684232214  2.1760096416220813 0.081128660138909681  2.2027812161885141 0.14567537889311721  2.2292832818390389 0.2278182896265267  2.2554851440107662 0.32715919865529608  2.2813584304017311 0.44328794536214905  2.306877230360727 0.57578366284157878  2.3320181513695717 0.72421788660028552  2.3567604332829526 0.88815154758744363  2.3810856806483289 1.0671545140138603  2.4049788460781953 1.2607408250688532  2.428427704978203 1.4683994575006185  2.4514215682387368 1.6896713650535853  2.4739523853873013 1.9240867772900396  2.4960136271055746 2.1711754402853054  2.5176029177929511 2.4304956939153151  2.538706962608587 2.7014664168157498  2.5593140339163751 2.9834524259418469  2.5794157675895866 3.2758252648526192  2.5990057234743014 3.5779472756855744  2.611722216705215 3.7854336930514147  2.6179938779914935 3.8905880971451374 
 0.0112884275843965 4 0.011798894986340519 1 0.012309362388284537 1 0.012819829790228554 1 0.013330297192172573 1 0.013840764594116591 1 0.01435123199606061 1 0.014861699398004628 1 0.015372166799948645 1 0.015882634201892665 1 0.016393101603836682 1 0.016903569005780703 1 0.017414036407724719 1 0.017924503809668736 1 0.018434971211612756 1 0.018945438613556773 1 0.01945590601550079 1 0.01996637341744481 1 0.020476840819388831 1 0.020987308221332844 1 0.021497775623276864 1 0.022008243025220885 1 0.022518710427164901 4
7 0 0  3 25 23  1.0471975511965972 3.4984454924718593e-14  1.0380511702214481 -1.5101090308627849e-06  1.0198012365296201 0.0063453068605007715  0.99259118735963014 0.034561936684196964  0.96558301196771401 0.081128660138863384  0.9388114374012807 0.14567537889300206  0.91230937175075677 0.22781828962640333  0.88610750957902762 0.3271591986550843  0.86023422318806309 0.44328794536194849  0.83471542322906667 0.57578366284124771  0.80957450222022231 0.72421788659994135  0.78483222030684041 0.88815154758707548  0.76050697294146385 1.0671545140134906  0.73661380751159777 1.260740825068474  0.71316494861159008 1.4683994575002217  0.69017108535105576 1.6896713650532544  0.66764026820249156 1.9240867772896835  0.64557902648421683 2.1711754402848973  0.62398973579684014 2.4304956939149087  0.60288569098120326 2.7014664168153959  0.58227861967341732 2.9834524259415747  0.56217688600020566 3.2758252648524468  0.54258693011549186 3.5779472756855397  0.52987043688457824 3.7854336930514147  0.52359877559829948 3.8905880971451277 
 0.0112884275843965 4 0.011798894986340519 1 0.012309362388284537 1 0.012819829790228554 1 0.013330297192172573 1 0.013840764594116591 1 0.01435123199606061 1 0.014861699398004628 1 0.015372166799948645 1 0.015882634201892665 1 0.016393101603836682 1 0.016903569005780703 1 0.017414036407724719 1 0.017924503809668736 1 0.018434971211612756 1 0.018945438613556773 1 0.01945590601550079 1 0.01996637341744481 1 0.020476840819388831 1 0.020987308221332844 1 0.021497775623276864 1 0.022008243025220885 1 0.022518710427164901 4
7 0 0  3 25 23  1.5707963267948966 3.8905880971452227  1.5645146261761351 3.7852676722620746  1.5517956205723258 3.577732703114195  1.5322455772152437 3.2761758189893762  1.5122188187895522 2.9847890325787572  1.4917117691045534 2.7040087706854399  1.4707220939411421 2.4342787580253096  1.4492489944572222 2.1760506286040884  1.4272933299055659 1.9297829265925632  1.4048577821185482 1.6959406281237688  1.3819470231364428 1.4749934397176947  1.3585678104981758 1.2674176870167047  1.3347293306227148 1.0736842631975572  1.3104425615317505 0.89429794037518773  1.2857207098989394 0.72977750022144039  1.2605801538043178 0.58060889387611048  1.2350397664329942 0.44728454918908628  1.2091210506709833 0.330289541282345  1.1828484412525224 0.23010724505899371  1.1562480113789009 0.14719472151173987  1.1293533815458361 0.081995807913193525  1.1021824216356768 0.034923796293160329  1.0747624933893596 0.0064009411435252701  1.0563913047941189 -9.0899238079665735e-06  1.0471975511965972 3.4984454924718593e-14 
 2.4754974311316899e-07 4 0.00051334664222735802 1 0.0010264457347116027 1 0.0015395448271958475 1 0.0020526439196800923 1 0.0025657430121643369 1 0.0030788421046485819 1 0.003591941197132827 1 0.0041050402896170715 1 0.0046181393821013161 1 0.0051312384745855607 1 0.0056443375670698062 1 0.0061574366595540508 1 0.0066705357520382954 1 0.0071836348445225408 1 0.0076967339370067854 1 0.0082098330294910309 1 0.0087229321219752763 1 0.00923603121445952 1 0.0097491303069437655 1 0.010262229399428009 1 0.010775328491912255 1 0.0112884275843965 4
7 0 0  3 25 23  3.6651914291880936 3.8905880971451481  3.6589744602150334 3.7863543159011486  3.6463686561432085 3.5806033870502647  3.6269311971503249 3.2805900146463469  3.6069518249035695 2.9896488076741461  3.5864173995466371 2.7082528245991213  3.5653197491153543 2.4369357740292914  3.5436370691487338 2.1760887921797827  3.5214716251785791 1.9275458975772954  3.4988262307426949 1.6917352684488676  3.4757170433958269 1.4692367827589732  3.4521592874181923 1.2605770768737343  3.4281747799068913 1.0662940068732705  3.403776532544716 0.88687168072311762  3.3789726117966254 0.72269883732811824  3.3537850142829355 0.57419710452392347  3.3282352166636655 0.44177106175007069  3.3023480241226038 0.32581944079954489  3.2761504682228018 0.22672993196936911  3.2496719859015211 0.14487833608525813  3.2229441904817504 0.080626803333701549  3.1960007540843227 0.034321637956451413  3.168877014477034 0.0062942029756901004  3.1506992339321394 -1.5972565326252293e-06  3.1415926535897931 0 
 0.015396691181949701 4 0.015910435197897959 1 0.016424179213846219 1 0.016937923229794479 1 0.017451667245742736 1 0.017965411261690996 1 0.018479155277639256 1 0.018992899293587516 1 0.019506643309535773 1 0.020020387325484033 1 0.020534131341432293 1 0.021047875357380549 1 0.021561619373328809 1 0.02207536338927707 1 0.02258910740522533 1 0.023102851421173586 1 0.023616595437121846 1 0.024130339453070103 1 0.024644083469018363 1 0.025157827484966623 1 0.025671571500914883 1 0.026185315516863143 1 0.0266990595328114 4
7 0 0  3 25 23  5.7595865315812862 3.8905880971451383  5.7658035005543464 3.7863543159010762  5.7784093046261713 3.5806033870501115  5.7978467636190549 3.2805900146461733  5.8178261358658103 2.9896488076739942  5.8383605612227409 2.7082528245990667  5.859458211654025 2.4369357740292013  5.881140891620646 2.1760887921795686  5.9033063355908002 1.9275458975770581  5.9259517300266857 1.6917352684485683  5.9490609173735525 1.4692367827586676  5.9726186733511897 1.2605770768734013  5.9966031808624862 1.0662940068729578  6.0210014282246638 0.88687168072275402  6.0458053489727535 0.72269883732775442  6.0709929464864469 0.57419710452362682  6.0965427441057116 0.44177106174978359  6.1224299366467765 0.32581944079932013  6.1486274925465771 0.22672993196927496  6.1751059748678578 0.14487833608509629  6.2018337702876281 0.080626803333663594  6.2287772066850575 0.034321637956431034  6.2559009462923445 0.006294202975682092  6.2740787268372396 -1.5972565374631876e-06  6.2831853071795862 0 
 0.015396691181949701 4 0.015910435197897959 1 0.016424179213846219 1 0.016937923229794479 1 0.017451667245742736 1 0.017965411261690996 1 0.018479155277639256 1 0.018992899293587516 1 0.019506643309535773 1 0.020020387325484033 1 0.020534131341432293 1 0.021047875357380549 1 0.021561619373328809 1 0.02207536338927707 1 0.02258910740522533 1 0.023102851421173586 1 0.023616595437121846 1 0.024130339453070103 1 0.024644083469018363 1 0.025157827484966623 1 0.025671571500914883 1 0.026185315516863143 1 0.0266990595328114 4
7 0 0  3 47 45  0 0  0.0045384780127940977 -1.1763647104862845e-06  0.013629466703931625 0.0015637846200010699  0.027286901312470257 0.0086050761533652525  0.040944210562511525 0.020337713942618036  0.0545800742930257 0.036739638687427363  0.068174364321778175 0.057776650561679556  0.081703139956499402 0.083398177962923287  0.095169538260906017 0.11354967210135278  0.10856949258648921 0.14818280262636416  0.12189893904608141 0.18724677553399205  0.13515399135995995 0.23069044829951624  0.14833090618012962 0.2784615137293151  0.16142607773104242 0.330507984865962  0.17443610967605583 0.38677405462965814  0.18735778161109415 0.44720233484691874  0.20018802906799169 0.51173519713841131  0.21292395117556026 0.58031448585367773  0.22556281014981366 0.65288166549599413  0.23810203214383477 0.72937785548930101  0.25053920729291701 0.80974387716444818  0.26287208822896446 0.89392035942262837  0.27509859229517164 0.98184759126088039  0.28721678743858414 1.0734663209623305  0.29922493682543899 1.1687150136347855  0.31112146368877142 1.2675318176872918  0.32290490732112542 1.369857099401649  0.33457396673779854 1.4756306976311981  0.34612748400671639 1.5847927053803039  0.35756444633462869 1.6972833437724943  0.36888397181793875 1.8130429279505857  0.38008534033534475 1.9320123609556106  0.39116785896043621 2.0541314116633687  0.40213134309357185 2.1793453162993299  0.41297429931944263 2.3075802893238899  0.42370068493920221 2.4388350610184482  0.43430751910118592 2.5730207819909134  0.44478689666889687 2.7099726857117084  0.45513258063754908 2.849539435420521  0.46533881510648861 2.99156755684974  0.47539846528579649 3.1358756600843276  0.48531736057621211 3.2824502960532338  0.49509720795718193 3.4312330963795805  0.50473981692468106 3.5821660487669607  0.51424702302887215 3.7351925360891172  0.52049615137145711 3.8385692314118929  0.52359877559829948 3.8905880971451277 
 0.0266990595328114 4 0.026955099031532578 1 0.02721113853025376 1 0.027467178028974939 1 0.027723217527696117 1 0.027979257026417299 1 0.028235296525138478 1 0.028491336023859656 1 0.028747375522580835 1 0.029003415021302017 1 0.029259454520023195 1 0.029515494018744374 1 0.029771533517465552 1 0.030027573016186734 1 0.030283612514907913 1 0.030539652013629091 1 0.030795691512350273 1 0.031051731011071452 1 0.03130777050979263 1 0.031563810008513812 1 0.031819849507234987 1 0.032075889005956169 1 0.032331928504677351 1 0.032587968003398526 1 0.032844007502119708 1 0.03310004700084089 1 0.033356086499562065 1 0.033612125998283247 1 0.033868165497004429 1 0.034124204995725604 1 0.034380244494446786 1 0.034636283993167968 1 0.034892323491889143 1 0.035148362990610325 1 0.035404402489331507 1 0.035660441988052682 1 0.035916481486773864 1 0.036172520985495046 1 0.036428560484216221 1 0.036684599982937403 1 0.036940639481658585 1 0.03719667898037976 1 0.037452718479100942 1 0.037708757977822124 1 0.037964797476543299 4
7 0 0  3 47 45  3.1415926535897931 0  3.1370541755769987 -1.1763647300720912e-06  3.1279631868858631 0.0015637846199943722  3.1143057522773225 0.0086050761534737386  3.1006484430272816 0.020337713942858781  3.0870125792967684 0.036739638687803215  3.0734182892680151 0.057776650562011221  3.0598895136332946 0.083398177963152867  3.0464231153288868 0.11354967210153399  3.0330231610033049 0.14818280262657871  3.0196937145437115 0.18724677553421681  3.0064386622298342 0.23069044829979438  2.9932617474096634 0.27846151372952033  2.9801665758587514 0.3305079848661272  2.9671565439137386 0.38677405462979392  2.9542348719786991 0.44720233484698946  2.9414046245218017 0.5117351971384777  2.9286687024142339 0.58031448585374823  2.9160298434399787 0.65288166549601956  2.9034906214459584 0.72937785548940726  2.8910534462968758 0.80974387716451457  2.8787205653608283 0.89392035942282921  2.8664940612946213 0.98184759126104559  2.8543758661512086 1.0734663209626367  2.8423677167643526 1.1687150136351374  2.8304711899010213 1.2675318176876702  2.8186877462686661 1.3698570994019867  2.8070186868519924 1.4756306976315223  2.7954651695830748 1.5847927053805719  2.7840282072551621 1.6972833437727524  2.7727086817718516 1.8130429279507714  2.7615073132544454 1.9320123609557815  2.7504247946293536 2.0541314116634468  2.7394613104962184 2.1793453162994774  2.7286183542703473 2.3075802893239938  2.7178919686505885 2.4388350610186253  2.7072851344886044 2.5730207819911772  2.6968057569208943 2.7099726857120721  2.6864600729522428 2.849539435420918  2.6762538384833037 2.9915675568501925  2.6661941883039968 3.135875660084539  2.6562752930135809 3.2824502960533835  2.6464954456326115 3.4312330963797071  2.6368528366651125 3.5821660487670282  2.6273456305609209 3.7351925360892047  2.6210965022183359 3.8385692314119431  2.6179938779914935 3.8905880971451374 
 0.0266990595328114 4 0.026955099031532578 1 0.02721113853025376 1 0.027467178028974939 1 0.027723217527696117 1 0.027979257026417299 1 0.028235296525138478 1 0.028491336023859656 1 0.028747375522580835 1 0.029003415021302017 1 0.029259454520023195 1 0.029515494018744374 1 0.029771533517465552 1 0.030027573016186734 1 0.030283612514907913 1 0.030539652013629091 1 0.030795691512350273 1 0.031051731011071452 1 0.03130777050979263 1 0.031563810008513812 1 0.031819849507234987 1 0.032075889005956169 1 0.032331928504677351 1 0.032587968003398526 1 0.032844007502119708 1 0.03310004700084089 1 0.033356086499562065 1 0.033612125998283247 1 0.033868165497004429 1 0.034124204995725604 1 0.034380244494446786 1 0.034636283993167968 1 0.034892323491889143 1 0.035148362990610325 1 0.035404402489331507 1 0.035660441988052682 1 0.035916481486773864 1 0.036172520985495046 1 0.036428560484216221 1 0.036684599982937403 1 0.036940639481658585 1 0.03719667898037976 1 0.037452718479100942 1 0.037708757977822124 1 0.037964797476543299 4
7 0 0  3 25 23  3.6651914291880936 3.8905880971451481  3.6714731298068553 3.7852676722619916  3.6841921354106639 3.5777327031141373  3.703742178767746 3.2761758189894112  3.7237689371934364 2.9847890325788735  3.7442759868784372 2.7040087706855496  3.7652656620418457 2.434278758025525  3.7867387615257666 2.1760506286043313  3.8086944260774231 1.9297829265928215  3.83112997386444 1.6959406281240588  3.8540407328465465 1.474993439717913  3.8774199454848151 1.2674176870169249  3.9012584253602753 1.0736842631976979  3.9255451944512401 0.89429794037530319  3.9502670460840514 0.729777500221512  3.9754076021786702 0.5806088938762255  4.0009479895499949 0.44728454918921529  4.0268667053120062 0.33028954128258409  4.0531393147304655 0.23010724505919933  4.0797397446040895 0.14719472151211208  4.106634374437153 0.081995807913576732  4.1338053343473113 0.034923796293212239  4.1612252625936268 0.006400941143498342  4.1795964511888686 -9.0899238275222078e-06  4.1887902047863914 4.305779067657673e-14 
 2.4754974313367899e-07 4 0.00051334664222737764 1 0.0010264457347116216 1 0.0015395448271958655 1 0.0020526439196801092 1 0.002565743012164353 1 0.0030788421046485971 1 0.0035919411971328413 1 0.0041050402896170854 1 0.0046181393821013291 1 0.0051312384745855729 1 0.0056443375670698175 1 0.0061574366595540612 1 0.0066705357520383049 1 0.0071836348445225495 1 0.0076967339370067932 1 0.0082098330294910361 1 0.0087229321219752798 1 0.0092360312144595235 1 0.0097491303069437672 1 0.010262229399428011 1 0.010775328491912256 1 0.0112884275843965 4
7 0 0  3 25 23  4.1887902047863914 4.305779067657673e-14  4.1979365857615409 -1.5101090131347425e-06  4.2161865194533696 0.0063453068605276129  4.2433965686233579 0.03456193668422898  4.2704047440152753 0.081128660138916703  4.2971763185817071 0.1456753788931085  4.3236783842322311 0.22781828962653827  4.3498802464039619 0.32715919865529103  4.375753532794926 0.44328794536215788  4.4012723327539218 0.57578366284159699  4.4264132537627656 0.72421788660030151  4.4511555356761487 0.88815154758745796  4.4754807830415242 1.0671545140138841  4.4993739484713897 1.2607408250688747  4.5228228073713979 1.4683994575006525  4.5458166706319334 1.6896713650536215  4.568347487780497 1.9240867772900712  4.590408729498769 2.1711754402853374  4.6119980201861459 2.4304956939153031  4.6331020650017827 2.7014664168157507  4.6537091363095717 2.9834524259418562  4.6738108699827841 3.275825264852644  4.6934008258674966 3.5779472756856094  4.7061173190984125 3.7854336930514569  4.7123889803846915 3.8905880971451827 
 0.0112884275843965 4 0.011798894986340519 1 0.012309362388284537 1 0.012819829790228554 1 0.013330297192172573 1 0.013840764594116591 1 0.01435123199606061 1 0.014861699398004628 1 0.015372166799948645 1 0.015882634201892665 1 0.016393101603836682 1 0.016903569005780703 1 0.017414036407724719 1 0.017924503809668736 1 0.018434971211612756 1 0.018945438613556773 1 0.01945590601550079 1 0.01996637341744481 1 0.020476840819388831 1 0.020987308221332844 1 0.021497775623276864 1 0.022008243025220885 1 0.022518710427164901 4
7 0 0  3 25 23  5.2359877559829879 4.305779067657673e-14  5.2268413750078393 -1.5101090159124882e-06  5.2085914413160097 0.0063453068605216888  5.1813813921460206 0.03456193668421436  5.154373216754105 0.081128660138885908  5.1276016421876704 0.14567537889302362  5.1010995765371483 0.22781828962642367  5.0748977143654166 0.32715919865511051  5.0490244279744552 0.44328794536196886  5.0235056280154566 0.57578366284126936  4.9983647070066137 0.72421788659996367  4.9736224250932315 0.8881515475870938  4.949297177727856 1.0671545140135235  4.9254040122979887 1.2607408250684864  4.9019551533979815 1.468399457500285  4.8789612901374468 1.689671365053288  4.8564304729888832 1.9240867772897299  4.8343692312706086 2.1711754402849914  4.8127799405832317 2.4304956939149687  4.7916758957675967 2.7014664168154838  4.7710688244598094 2.9834524259416568  4.7509670907865962 3.2758252648525397  4.7313771349018827 3.5779472756856161  4.7186606416709678 3.7854336930514729  4.7123889803846879 3.8905880971451738 
 0.0112884275843965 4 0.011798894986340519 1 0.012309362388284537 1 0.012819829790228554 1 0.013330297192172573 1 0.013840764594116591 1 0.01435123199606061 1 0.014861699398004628 1 0.015372166799948645 1 0.015882634201892665 1 0.016393101603836682 1 0.016903569005780703 1 0.017414036407724719 1 0.017924503809668736 1 0.018434971211612756 1 0.018945438613556773 1 0.01945590601550079 1 0.01996637341744481 1 0.020476840819388831 1 0.020987308221332844 1 0.021497775623276864 1 0.022008243025220885 1 0.022518710427164901 4
7 0 0  3 25 23  5.7595865315812862 3.8905880971451383  5.7533048309625245 3.7852676722619902  5.740585825358715 3.5777327031141173  5.7210357820016329 3.2761758189893144  5.7010090235759412 2.9847890325787061  5.6805019738909444 2.7040087706853657  5.6595122987275319 2.4342787580252581  5.638039199243611 2.1760506286040102  5.616083534691958 1.9297829265924809  5.5936479869049363 1.6959406281236833  5.5707372279228338 1.4749934397176407  5.5473580152845656 1.2674176870166476  5.5235195354091049 1.0736842631975374  5.4992327663181388 0.89429794037516397  5.4745109146853288 0.72977750022145005  5.4493703585907074 0.58060889387611159  5.4238299712193845 0.44728454918912108  5.397911255457374 0.3302895412823908  5.3716386460389112 0.23010724505899285  5.3450382161652907 0.1471947215117631  5.3181435863322264 0.081995807913175331  5.2909726264220698 0.034923796293091079  5.2635526981757508 0.0064009411434937675  5.2451815095805099 -9.0899238102958565e-06  5.2359877559829879 4.305779067657673e-14 
 2.4754974313367899e-07 4 0.00051334664222737764 1 0.0010264457347116216 1 0.0015395448271958655 1 0.0020526439196801092 1 0.002565743012164353 1 0.0030788421046485971 1 0.0035919411971328413 1 0.0041050402896170854 1 0.0046181393821013291 1 0.0051312384745855729 1 0.0056443375670698175 1 0.0061574366595540612 1 0.0066705357520383049 1 0.0071836348445225495 1 0.0076967339370067932 1 0.0082098330294910361 1 0.0087229321219752798 1 0.0092360312144595235 1 0.0097491303069437672 1 0.010262229399428011 1 0.010775328491912256 1 0.0112884275843965 4
7 0 0  3 25 23  4.7123889803846915 3.8905880971451827  4.7186706810034531 3.7852676722620249  4.7313896866072627 3.5777327031141604  4.7509397299643421 3.2761758189894135  4.7709664883900365 2.9847890325788682  4.7914735380750342 2.7040087706855696  4.8124632132384439 2.4342787580254948  4.8339363127223658 2.1760506286043064  4.8558919772740232 1.9297829265927815  4.8783275250610387 1.6959406281240337  4.9012382840431457 1.4749934397179019  4.924617496681412 1.2674176870169303  4.9484559765568736 1.0736842631977086  4.972742745647837 0.89429794037530341  4.997464597280648 0.72977750022152599  5.0226051533752702 0.58060889387623471  5.0481455407465923 0.44728454918923644  5.0740642565086036 0.33028954128258514  5.1003368659270647 0.23010724505916491  5.1269372958006834 0.14719472151213511  5.1538319256337521 0.081995807913566338  5.1810028855439088 0.034923796293189251  5.2084228137902269 0.0064009411435043094  5.2267940023854678 -9.0899238155167999e-06  5.2359877559829879 4.844001451114882e-14 
 2.4754974315972499e-07 4 0.00051334664222740247 1 0.0010264457347116452 1 0.0015395448271958879 1 0.0020526439196801305 1 0.0025657430121643733 1 0.0030788421046486158 1 0.0035919411971328586 1 0.0041050402896171019 1 0.0046181393821013448 1 0.0051312384745855876 1 0.0056443375670698305 1 0.0061574366595540725 1 0.0066705357520383153 1 0.0071836348445225582 1 0.007696733937006801 1 0.008209833029491043 1 0.008722932121975285 1 0.0092360312144595287 1 0.0097491303069437707 1 0.010262229399428014 1 0.010775328491912256 1 0.0112884275843965 4
7 0 0  3 25 23  5.2359877559829879 4.844001451114882e-14  5.2451341369581375 -1.5101090122368099e-06  5.2633840706499679 0.0063453068605303546  5.2905941198199562 0.034561936684250338  5.3176022952118718 0.081128660138925404  5.3443738697783072 0.14567537889313309  5.3708759354288302 0.22781828962654407  5.3970777976005593 0.32715919865530768  5.4229510839915225 0.44328794536216598  5.4484698839505192 0.57578366284159577  5.473610804959363 0.72421788660029796  5.4983530868727444 0.88815154758745718  5.5226783342381207 1.0671545140138752  5.546571499667988 1.2607408250688625  5.5700203585679953 1.4683994575006307  5.5930142218285299 1.6896713650535935  5.6155450389770936 1.9240867772900441  5.6376062806953682 2.1711754402852961  5.6591955713827451 2.4304956939153013  5.680299616198381 2.7014664168157352  5.7009066875061709 2.9834524259418385  5.7210084211793788 3.2758252648526183  5.740598377064094 3.5779472756855841  5.7533148702950081 3.7854336930514267  5.7595865315812862 3.8905880971451481 
 0.0112884275843965 4 0.011798894986340519 1 0.012309362388284537 1 0.012819829790228554 1 0.013330297192172573 1 0.013840764594116591 1 0.01435123199606061 1 0.014861699398004628 1 0.015372166799948645 1 0.015882634201892665 1 0.016393101603836682 1 0.016903569005780703 1 0.017414036407724719 1 0.017924503809668736 1 0.018434971211612756 1 0.018945438613556773 1 0.01945590601550079 1 0.01996637341744481 1 0.020476840819388831 1 0.020987308221332844 1 0.021497775623276864 1 0.022008243025220885 1 0.022518710427164901 4
7 0 0  3 25 23  4.1887902047863914 4.5748902593862778e-14  4.179643823811241 -1.5101090160650141e-06  4.1613938901194123 0.0063453068605226976  4.1341838409494223 0.034561936684227204  4.1071756655575058 0.081128660138898176  4.0804040909910713 0.14567537889304244  4.0539020253405491 0.22781828962643305  4.0277001631688201 0.32715919865511883  4.001826876777856 0.44328794536197458  3.9763080768188597 0.57578366284127003  3.9511671558100159 0.72421788659995534  3.9264248738966341 0.8881515475870938  3.9020996265312577 1.0671545140134995  3.8782064611013918 1.2607408250684857  3.8547576022013836 1.468399457500247  3.8317637389408494 1.6896713650532609  3.8092329217922853 1.9240867772896986  3.7871716800740098 2.1711754402849524  3.7655823893866338 2.4304956939149629  3.744478344570997 2.7014664168154656  3.723871273263212 2.9834524259416404  3.7037695395899997 3.2758252648525135  3.6841795837052862 3.5779472756855917  3.6714630904743726 3.7854336930514427  3.6651914291880936 3.8905880971451383 
 0.0112884275843965 4 0.011798894986340519 1 0.012309362388284537 1 0.012819829790228554 1 0.013330297192172573 1 0.013840764594116591 1 0.01435123199606061 1 0.014861699398004628 1 0.015372166799948645 1 0.015882634201892665 1 0.016393101603836682 1 0.016903569005780703 1 0.017414036407724719 1 0.017924503809668736 1 0.018434971211612756 1 0.018945438613556773 1 0.01945590601550079 1 0.01996637341744481 1 0.020476840819388831 1 0.020987308221332844 1 0.021497775623276864 1 0.022008243025220885 1 0.022518710427164901 4
7 0 0  3 25 23  4.7123889803846879 3.8905880971451738  4.7061072797659262 3.7852676722620084  4.6933882741621158 3.5777327031141248  4.6738382308050346 3.2761758189893389  4.6538114723793447 2.9847890325787239  4.6333044226943452 2.7040087706853995  4.6123147475309327 2.4342787580252838  4.5908416480470127 2.1760506286040311  4.568885983495357 1.9297829265925368  4.5464504357083388 1.6959406281237055  4.5235396767262346 1.474993439717678  4.5001604640879673 1.2674176870166665  4.4763219842125066 1.073684263197574  4.4520352151215423 0.89429794037518917  4.4273133634887314 0.72977750022146604  4.40217280739411 0.58060889387610493  4.3766324200227871 0.4472845491891399  4.3507137042607757 0.33028954128239291  4.3244410948423155 0.23010724505897362  4.2978406649686933 0.14719472151177279  4.2709460351356281 0.081995807913163313  4.2437750752254679 0.03492379629306451  4.2163551469791525 0.0064009411434761626  4.1979839583839125 -9.0899238150080939e-06  4.1887902047863914 4.5748902593862778e-14 
 2.4754974316202902e-07 4 0.00051334664222740464 1 0.0010264457347116474 1 0.00153954482719589 1 0.0020526439196801327 1 0.0025657430121643755 1 0.0030788421046486179 1 0.0035919411971328604 1 0.0041050402896171028 1 0.0046181393821013456 1 0.0051312384745855885 1 0.0056443375670698305 1 0.0061574366595540733 1 0.0066705357520383162 1 0.0071836348445225582 1 0.007696733937006801 1 0.0082098330294910447 1 0.0087229321219752867 1 0.0092360312144595304 1 0.0097491303069437724 1 0.010262229399428016 1 0.010775328491912258 1 0.0112884275843965 4
7 0 0  3 25 23  5.7595865315812862 3.8905880971451481  5.7658035005543464 3.7863543159011508  5.7784093046261713 3.5806033870502683  5.7978467636190549 3.280590014646346  5.8178261358658103 2.9896488076741465  5.8383605612227409 2.7082528245991178  5.859458211654025 2.4369357740292892  5.881140891620646 2.17608879217978  5.9033063355908002 1.9275458975772926  5.9259517300266857 1.6917352684488662  5.9490609173735525 1.4692367827589659  5.9726186733511888 1.2605770768737325  5.9966031808624898 1.066294006873268  6.0210014282246638 0.88687168072311373  6.0458053489727535 0.72269883732812046  6.0709929464864469 0.57419710452391848  6.0965427441057116 0.44177106175007202  6.1224299366467765 0.3258194407995445  6.1486274925465771 0.2267299319693693  6.1751059748678578 0.14487833608525777  6.2018337702876281 0.080626803333702798  6.2287772066850575 0.034321637956446882  6.2559009462923445 0.0062942029756908168  6.2740787268372396 -1.5972565312758091e-06  6.2831853071795862 0 
 0.015396691181949701 4 0.015910435197897959 1 0.016424179213846219 1 0.016937923229794479 1 0.017451667245742736 1 0.017965411261690996 1 0.018479155277639256 1 0.018992899293587516 1 0.019506643309535773 1 0.020020387325484033 1 0.020534131341432293 1 0.021047875357380549 1 0.021561619373328809 1 0.02207536338927707 1 0.02258910740522533 1 0.023102851421173586 1 0.023616595437121846 1 0.024130339453070103 1 0.024644083469018363 1 0.025157827484966623 1 0.025671571500914883 1 0.026185315516863143 1 0.0266990595328114 4
7 0 0  3 47 45  0 0  0.0045384780127940968 -1.1763647300720912e-06  0.013629466703931595 0.0015637846199943722  0.027286901312470128 0.0086050761534737386  0.040944210562511234 0.020337713942858781  0.054580074293025332 0.036739638687803229  0.068174364321777634 0.0577766505620112  0.081703139956498902 0.083398177963152964  0.095169538260905559 0.11354967210153361  0.10856949258648899 0.14818280262658012  0.12189893904608136 0.18724677553421143  0.13515399135996006 0.2306904482998145  0.14833090618013003 0.27846151372951672  0.16142607773104303 0.33050798486613758  0.17443610967605677 0.38677405462978814  0.18735778161109537 0.4472023348470186  0.20018802906799338 0.51173519713849414  0.21292395117556209 0.58031448585376433  0.22556281014981608 0.65288166549604298  0.23810203214383746 0.72937785548940937  0.25053920729292006 0.80974387716453178  0.26287208822896785 0.89392035942282311  0.27509859229517541 0.98184759126107812  0.28721678743858803 1.0734663209626727  0.2992249368254431 1.1687150136351534  0.31112146368877575 1.2675318176876902  0.32290490732112964 1.3698570994020274  0.33457396673780293 1.475630697631531  0.34612748400672061 1.5847927053806157  0.35756444633463302 1.6972833437727453  0.36888397181794308 1.8130429279507825  0.38008534033534869 1.9320123609557933  0.39116785896044032 2.0541314116634921  0.40213134309357546 2.1793453162994285  0.41297429931944585 2.3075802893240165  0.42370068493920515 2.438835061018624  0.43430751910118853 2.5730207819911772  0.44478689666889876 2.7099726857120743  0.45513258063755058 2.8495394354209105  0.46533881510648939 2.9915675568501912  0.47539846528579727 3.1358756600845368  0.48531736057621216 3.2824502960533786  0.49509720795718193 3.431233096379712  0.50473981692468117 3.5821660487670273  0.51424702302887226 3.7351925360892038  0.52049615137145699 3.8385692314119439  0.52359877559829948 3.8905880971451374 
 0.0266990595328114 4 0.026955099031532578 1 0.02721113853025376 1 0.027467178028974939 1 0.027723217527696117 1 0.027979257026417299 1 0.028235296525138478 1 0.028491336023859656 1 0.028747375522580835 1 0.029003415021302017 1 0.029259454520023195 1 0.029515494018744374 1 0.029771533517465552 1 0.030027573016186734 1 0.030283612514907913 1 0.030539652013629091 1 0.030795691512350273 1 0.031051731011071452 1 0.03130777050979263 1 0.031563810008513812 1 0.031819849507234987 1 0.032075889005956169 1 0.032331928504677351 1 0.032587968003398526 1 0.032844007502119708 1 0.03310004700084089 1 0.033356086499562065 1 0.033612125998283247 1 0.033868165497004429 1 0.034124204995725604 1 0.034380244494446786 1 0.034636283993167968 1 0.034892323491889143 1 0.035148362990610325 1 0.035404402489331507 1 0.035660441988052682 1 0.035916481486773864 1 0.036172520985495046 1 0.036428560484216221 1 0.036684599982937403 1 0.036940639481658585 1 0.03719667898037976 1 0.037452718479100942 1 0.037708757977822124 1 0.037964797476543299 4
7 0 0  3 47 45  3.1415926535897931 0  3.1370541755769987 -1.1763647104862845e-06  3.1279631868858631 0.0015637846200009743  3.1143057522773225 0.0086050761533655873  3.1006484430272816 0.020337713942616787  3.0870125792967684 0.036739638687432026  3.0734182892680151 0.057776650561678279  3.0598895136332942 0.083398177962923675  3.0464231153288868 0.11354967210135251  3.0330231610033045 0.14818280262636491  3.0196937145437124 0.1872467755339893  3.0064386622298329 0.23069044829952645  2.993261747409663 0.27846151372931627  2.9801665758587506 0.33050798486596311  2.9671565439137368 0.3867740546296683  2.9542348719786977 0.44720233484689303  2.9414046245218 0.51173519713839277  2.9286687024142322 0.58031448585368339  2.916029843439977 0.65288166549592752  2.9034906214459553 0.72937785548933987  2.8910534462968731 0.80974387716440033  2.8787205653608248 0.89392035942263859  2.8664940612946181 0.98184759126083354  2.8543758661512051 1.073466320962333  2.84236771676435 1.1687150136348086  2.8304711899010178 1.2675318176873096  2.818687746268663 1.3698570994016672  2.8070186868519902 1.475630697631237  2.7954651695830726 1.5847927053803317  2.7840282072551599 1.6972833437725621  2.7727086817718507 1.8130429279506293  2.7615073132544445 1.9320123609556428  2.7504247946293532 2.054131411663414  2.7394613104962171 2.1793453162993739  2.7286183542703477 2.3075802893239077  2.7178919686505876 2.4388350610185037  2.7072851344886044 2.5730207819909312  2.6968057569208952 2.709972685711787  2.6864600729522428 2.8495394354205255  2.6762538384833037 2.9915675568498599  2.6661941883039968 3.1358756600843147  2.6562752930135809 3.2824502960532751  2.6464954456326115 3.431233096379585  2.6368528366651125 3.5821660487669544  2.6273456305609209 3.7351925360891181  2.6210965022183359 3.8385692314118955  2.6179938779914935 3.8905880971451277 
 0.0266990595328114 4 0.026955099031532578 1 0.02721113853025376 1 0.027467178028974939 1 0.027723217527696117 1 0.027979257026417299 1 0.028235296525138478 1 0.028491336023859656 1 0.028747375522580835 1 0.029003415021302017 1 0.029259454520023195 1 0.029515494018744374 1 0.029771533517465552 1 0.030027573016186734 1 0.030283612514907913 1 0.030539652013629091 1 0.030795691512350273 1 0.031051731011071452 1 0.03130777050979263 1 0.031563810008513812 1 0.031819849507234987 1 0.032075889005956169 1 0.032331928504677351 1 0.032587968003398526 1 0.032844007502119708 1 0.03310004700084089 1 0.033356086499562065 1 0.033612125998283247 1 0.033868165497004429 1 0.034124204995725604 1 0.034380244494446786 1 0.034636283993167968 1 0.034892323491889143 1 0.035148362990610325 1 0.035404402489331507 1 0.035660441988052682 1 0.035916481486773864 1 0.036172520985495046 1 0.036428560484216221 1 0.036684599982937403 1 0.036940639481658585 1 0.03719667898037976 1 0.037452718479100942 1 0.037708757977822124 1 0.037964797476543299 4
7 0 0  3 25 23  3.6651914291880936 3.8905880971451383  3.6589744602150334 3.7863543159010775  3.6463686561432085 3.5806033870501124  3.626931197150324 3.2805900146461688  3.6069518249035695 2.9896488076739924  3.5864173995466371 2.7082528245990627  3.565319749115353 2.436935774029199  3.5436370691487324 2.1760887921795664  3.5214716251785791 1.9275458975770541  3.4988262307426936 1.69173526844857  3.4757170433958278 1.4692367827586643  3.4521592874181914 1.2605770768733979  3.4281747799068909 1.0662940068729587  3.4037765325447151 0.88687168072275335  3.3789726117966246 0.72269883732775553  3.3537850142829346 0.57419710452362349  3.3282352166636646 0.44177106174977993  3.3023480241226038 0.32581944079932235  3.2761504682228018 0.22672993196926969  3.2496719859015211 0.14487833608509915  3.2229441904817504 0.080626803333657404  3.1960007540843227 0.034321637956436855  3.168877014477034 0.0062942029756811327  3.1506992339321394 -1.597256539108288e-06  3.1415926535897931 0 
 0.015396691181949701 4 0.015910435197897959 1 0.016424179213846219 1 0.016937923229794479 1 0.017451667245742736 1 0.017965411261690996 1 0.018479155277639256 1 0.018992899293587516 1 0.019506643309535773 1 0.020020387325484033 1 0.020534131341432293 1 0.021047875357380549 1 0.021561619373328809 1 0.02207536338927707 1 0.02258910740522533 1 0.023102851421173586 1 0.023616595437121846 1 0.024130339453070103 1 0.024644083469018363 1 0.025157827484966623 1 0.025671571500914883 1 0.026185315516863143 1 0.0266990595328114 4
1 0 0 1 0 
1 0 1.6146671503716263e-14 1 -2.5698225842974901e-15 
1 0 -2.4220007255574438e-14 1 5.1396451685949897e-15 
1 0 8.0733357518581314e-15 1 -2.5698225842974901e-15 
1 3.1415926535897931 0 -1 0 
1 0 0 1 0 
1 6.2831853071795862 -14.732000000000497 -1 0 
1 3.1415926535897931 0 1 0 
1 -3.1415926535897922 1.6146671503716269e-14 1 -2.5698225842974913e-15 
1 -3.141592653589794 -1.3455559586430221e-14 1 2.5698225842974897e-15 
1 0 0 1 2.5698225842974925e-15 
1 3.1415926535897913 0 1 0 
1 3.1415926535897936 0 1 0 
1 6.2831853071795862 0 -1 0 
Curves 66
1 87.397549552570595 1.03522188447077e-14 -21.082000000000001 1 0 0 
2 84.222549552570499 1.2933933959836001e-14 -8.5462488337015803e-16 -1 0 0 0 0 1 0 1 -0 21.082000000000001
1 55.647549552570602 1.6540746561344499 21.017011229761799 1 0 0 
2 90.572549552570507 1.2933933959836001e-14 -8.5462488337015803e-16 -1 0 0 0 0 1 0 1 -0 21.082000000000001
2 84.222549552570499 1.2933933959836001e-14 -8.5462488337015803e-16 -1 0 0 0 0 1 0 1 -0 13.462
1 55.647549552570602 1.0562163466882699 13.420501146715401 -1 -0 -0 
2 90.572549552570507 1.2933933959836001e-14 -8.5462488337015803e-16 -1 0 0 0 0 1 0 1 -0 13.462
1 87.397549552570595 1.1285368886320301e-14 -13.462 -1 -0 -0 
2 90.572549552570507 1.2933933959836001e-14 -8.5462488337015803e-16 -1 0 0 0 0 1 0 1 -0 13.462
1 55.647549552570602 -1.0562163466882399 13.420501146715401 -1 -0 -0 
2 84.222549552570499 1.2933933959836001e-14 -8.5462488337015803e-16 -1 0 0 0 0 1 0 1 -0 13.462
1 90.572549552570507 1.2933933959836001e-14 -8.5462488337015803e-16 0 0.078459095727845582 0.99691733373312785 
1 90.572549552570507 1.2933933959836001e-14 -8.5462488337015803e-16 0 -0.078459095727845582 0.99691733373312785 
2 90.572549552570507 1.2933933959836001e-14 -8.5462488337015803e-16 -1 0 0 0 0 1 0 1 -0 21.082000000000001
1 55.647549552570602 -1.6540746561344299 21.017011229761799 1 0 0 
2 84.222549552570499 1.2933933959836001e-14 -8.5462488337015803e-16 -1 0 0 0 0 1 0 1 -0 21.082000000000001
1 84.222549552570499 0.12977720178666699 1.64897569598909 -0 0.078459095727845582 0.99691733373312785 
1 84.222549552570499 0.12977720178666699 -1.64897569598909 0 -0.078459095727845582 0.99691733373312785 
1 90.572549552570507 1.16611095056221e-14 -12.699999999999999 1 8.20559002877728e-21 -1.32183770489477e-18 
2 105.304549552571 1.16612303903744e-14 5.5784861655113301e-18 1 8.20559002877728e-21 0 0 0 -1 -8.20559002877728e-21 1 0 12.699999999999999
1 90.572549552570507 1.32164109405393e-14 12.699999999999999 1 8.20559002877728e-21 -1.32183770489477e-18 
2 90.572549552570507 1.16611095056221e-14 2.5051799234020999e-17 1 8.20559002877728e-21 0 0 0 -1 -8.20559002877728e-21 1 0 12.699999999999999
1 90.572549552570507 10.9985226280624 19.050000000000001 1 8.20559002877728e-21 -1.32183770489477e-18 
7 0 0  3 10 5  102.764549552571 10.9985226280624 19.050000000000001  103.520906482299 11.876088809831201 17.530010786172301  104.155422621073 12.7679224533004 15.9853096037843  104.825326971186 14.138679659290901 13.6110884781676  105.001316398497 14.6011389289572 12.8100855266745  105.181076600683 15.304690391073001 11.5914986485505  105.22696575534 15.5408505540624 11.182457247529101  105.288706883 16.0166882106126 10.3582822502296  105.304549552571 16.256974101830401 9.9420948782984997  105.304549552571 16.497783942093601 9.5250000000000199 
 2.47549743114591e-07 4 0.0056443375670698001 2 0.0084663825757331397 2 0.0098774050800648199 2 0.0112884275843965 4
7 0 0  3 8 4  105.304549552571 16.497783942093601 9.5250000000000199  105.304549552571 17.456082838523699 7.86517762254599  105.052239546455 18.389971917616801 6.2476342889229404  104.38327444468401 19.762701006016801 3.8699977627864799  104.11240620104 20.2156452138947 3.0854753817479299  103.49180954895699 21.1139042761918 1.52964504749006  103.142128436623 21.5589578312985 0.75878967795609598  102.764549552571 21.9970452561248 -3.4605109980176798e-15 
 0.0112884275843965 4 0.016903569005780699 2 0.0197111397164728 2 0.022518710427164901 4
1 90.572549552570507 21.9970452561248 -3.4939753038605599e-15 1 8.20559002877728e-21 -1.32183770489477e-18 
7 0 0  3 8 4  90.572549552570507 16.497783942093601 9.5250000000000199  90.572549552570607 17.456082838523699 7.86517762254599  90.824859558686001 18.389971917616801 6.2476342889229297  91.493824660456895 19.762701006016801 3.8699977627864701  91.764692904100897 20.2156452138947 3.0854753817479201  92.385289556183906 21.1139042761918 1.52964504749005  92.7349706685184 21.5589578312985 0.75878967795608299  93.112549552570599 21.9970452561248 -3.4477526204900301e-15 
 0.0112884275843965 4 0.016903569005780699 2 0.0197111397164728 2 0.022518710427164901 4
7 0 0  3 10 5  93.112549552570499 10.9985226280624 19.050000000000001  92.3561926228423 11.876088809831201 17.530010786172301  91.7216764840677 12.7679224533004 15.9853096037843  91.051772133955495 14.138679659290901 13.6110884781676  90.875782706644301 14.6011389289572 12.8100855266745  90.696022504458199 15.304690391073001 11.5914986485505  90.650133349800697 15.5408505540624 11.182457247529101  90.588392222141493 16.0166882106126 10.3582822502296  90.572549552570607 16.256974101830401 9.9420948782984997  90.572549552570507 16.497783942093601 9.5250000000000199 
 2.4754974312213001e-07 4 0.0056443375670698097 2 0.0084663825757331501 2 0.0098774050800648199 2 0.0112884275843965 4
7 0 0  3 10 5  102.764549552571 21.9970452561248 -3.4605109980176798e-15  103.520906482299 21.119479074356001 -1.51998921382776  104.155422621073 20.2276454308867 -3.0646903962157701  104.825326971186 18.856888224896299 -5.43891152183242  105.001316398497 18.394428955230001 -6.23991447332555  105.181076600683 17.690877493114201 -7.4585013514495504  105.22696575534 17.454717330124801 -7.8675427524709702  105.288706883 16.9788796735745 -8.6917177497704792  105.304549552571 16.738593782356801 -9.1079051217015508  105.304549552571 16.497783942093601 -9.5250000000000306 
 2.4754974311935799e-07 4 0.0056443375670698097 2 0.0084663825757331605 2 0.0098774050800648407 2 0.0112884275843965 4
7 0 0  3 8 4  105.304549552571 16.497783942093601 -9.5250000000000306  105.304549552571 15.539485045663501 -11.1848223774541  105.052239546455 14.6055959665704 -12.802365711077099  104.38327444468401 13.2328668781704 -15.1800022372136  104.11240620104 12.7799226702925 -15.964524618252099  103.49180954895699 11.881663607995399 -17.520354952510001  103.142128436623 11.4366100528886 -18.291210322043899  102.764549552571 10.9985226280624 -19.050000000000001 
 0.0112884275843965 4 0.016903569005780699 2 0.0197111397164728 2 0.022518710427164901 4
1 90.572549552570507 10.9985226280624 -19.050000000000001 1 8.20559002877728e-21 -1.32183770489477e-18 
7 0 0  3 8 4  90.572549552570507 16.497783942093601 -9.5250000000000306  90.572549552570607 15.539485045663501 -11.184822377453999  90.824859558686001 14.6055959665704 -12.802365711077099  91.493824660456895 13.2328668781704 -15.1800022372136  91.764692904100997 12.7799226702925 -15.964524618252099  92.385289556183906 11.8816636079953 -17.520354952510001  92.7349706685184 11.4366100528886 -18.291210322043899  93.112549552570499 10.9985226280624 -19.050000000000001 
 0.0112884275843965 4 0.016903569005780699 2 0.0197111397164728 2 0.022518710427164901 4
7 0 0  3 10 5  93.112549552570599 21.9970452561248 -3.4477526204900301e-15  92.3561926228424 21.119479074356001 -1.51998921382775  91.7216764840678 20.227645430886799 -3.0646903962157599  91.051772133955495 18.856888224896299 -5.4389115218324102  90.875782706644301 18.394428955230001 -6.23991447332555  90.696022504458199 17.690877493114201 -7.4585013514495397  90.650133349800697 17.454717330124801 -7.8675427524709596  90.588392222141493 16.9788796735746 -8.6917177497704703  90.572549552570607 16.738593782356801 -9.1079051217015401  90.572549552570507 16.497783942093601 -9.5250000000000306 
 2.4754974311316899e-07 4 0.0056443375670698097 2 0.0084663825757331605 2 0.0098774050800648303 2 0.0112884275843965 4
7 0 0  3 8 4  102.764549552571 -10.9985226280624 -19.050000000000001  103.13882905768401 -10.130004013881299 -19.050000000000001  103.486382122628 -9.2469758528757104 -19.050000000000001  104.110449032704 -7.44235296982467 -19.050000000000001  104.383157545328 -6.5306418239453503 -19.050000000000001  105.05406815994699 -3.7762142079750598 -19.050000000000001  105.304549552571 -1.9082610191526701 -19.050000000000001  105.304549552571 1.16612303903744e-14 -19.050000000000001 
 0.015396691181949701 4 0.018222283269665102 2 0.021047875357380501 2 0.0266990595328114 4
1 90.572549552570507 -10.9985226280624 -19.050000000000001 1 8.20559002877728e-21 -1.32183770489477e-18 
7 0 0  3 8 4  93.112549552570499 -10.9985226280624 -19.050000000000001  92.738270047456894 -10.130004013881299 -19.050000000000001  92.390716982513595 -9.2469758528756998 -19.050000000000001  91.766650072437002 -7.4423529698246602 -19.050000000000001  91.493941559813095 -6.5306418239453503 -19.050000000000001  90.823030945193807 -3.77621420797505 -19.050000000000001  90.572549552570607 -1.9082610191526701 -19.050000000000001  90.572549552570507 1.16611095056221e-14 -19.050000000000001 
 0.015396691181949701 4 0.018222283269665102 2 0.021047875357380501 2 0.0266990595328114 4
7 0 0  3 14 7  90.572549552570507 1.16611095056221e-14 -19.050000000000001  90.572549552570607 0.475519110301658 -19.050000000000001  90.588098772849705 0.95507946089765205 -19.050000000000001  90.649415502253404 1.9053484552420701 -19.050000000000001  90.695074605944995 2.3773277622336599 -19.050000000000001  90.874282206357506 3.7843831478657801 -19.050000000000001  91.050101560472498 4.7105681582551204 -19.050000000000001  91.497428782028706 6.5428114734194702 -19.050000000000001  91.768845753803504 7.4488888967935001 -19.050000000000001  92.234676313981296 8.7956572559793003 -19.050000000000001  92.400072486948602 9.2432839868199395 -19.050000000000001  92.745499645399505 10.1276059567254 -19.050000000000001  92.925764169149204 10.5650856374124 -19.050000000000001  93.112549552570499 10.9985226280624 -19.050000000000001 
 0.0266990595328114 4 0.028107276775777901 2 0.029515494018744402 2 0.0323319285046774 2 0.035148362990610402 2 0.036556580233576802 2 0.037964797476543299 4
7 0 0  3 14 7  105.304549552571 1.16612303903744e-14 -19.050000000000001  105.304549552571 0.475519110301658 -19.050000000000001  105.289000332291 0.95507946089764695 -19.050000000000001  105.22768360288801 1.9053484552420601 -19.050000000000001  105.182024499196 2.3773277622336599 -19.050000000000001  105.002816898784 3.7843831478657699 -19.050000000000001  104.826997544669 4.7105681582551204 -19.050000000000001  104.37967032311199 6.5428114734194702 -19.050000000000001  104.10825335133801 7.4488888967935099 -19.050000000000001  103.64242279116 8.7956572559793091 -19.050000000000001  103.477026618192 9.2432839868199395 -19.050000000000001  103.13159945974201 10.1276059567254 -19.050000000000001  102.95133493599199 10.5650856374124 -19.050000000000001  102.764549552571 10.9985226280624 -19.050000000000001 
 0.0266990595328114 4 0.028107276775777901 2 0.029515494018744402 2 0.0323319285046774 2 0.035148362990610298 2 0.036556580233576802 2 0.037964797476543299 4
7 0 0  3 10 5  102.764549552571 -10.9985226280624 -19.050000000000001  103.520906482299 -11.876088809831201 -17.530010786172301  104.155422621073 -12.7679224533004 -15.9853096037843  104.825326971186 -14.138679659290901 -13.6110884781676  105.001316398497 -14.6011389289571 -12.8100855266745  105.181076600683 -15.304690391073001 -11.5914986485505  105.22696575534 -15.5408505540624 -11.182457247529101  105.288706883 -16.0166882106126 -10.3582822502296  105.304549552571 -16.256974101830298 -9.9420948782984908  105.304549552571 -16.497783942093601 -9.5250000000000199 
 2.4754974313367899e-07 4 0.0056443375670698097 2 0.0084663825757331501 2 0.0098774050800648199 2 0.0112884275843965 4
7 0 0  3 8 4  105.304549552571 -16.497783942093601 -9.5250000000000199  105.304549552571 -17.456082838523599 -7.8651776225459802  105.052239546455 -18.389971917616801 -6.2476342889229199  104.38327444468401 -19.762701006016801 -3.8699977627864599  104.11240620104 -20.2156452138947 -3.0854753817479099  103.49180954895699 -21.1139042761918 -1.52964504749004  103.142128436623 -21.5589578312985 -0.758789677956068  102.764549552571 -21.9970452561248 3.6438128949449001e-14 
 0.0112884275843965 4 0.016903569005780699 2 0.0197111397164728 2 0.022518710427164901 4
1 90.572549552570507 -21.9970452561248 3.0296809967083499e-15 1 8.20559002877728e-21 -1.32183770489477e-18 
7 0 0  3 8 4  90.572549552570507 -16.497783942093601 -9.5250000000000199  90.572549552570607 -17.456082838523599 -7.8651776225459802  90.824859558686001 -18.389971917616801 -6.2476342889229297  91.493824660456895 -19.762701006016801 -3.8699977627864701  91.764692904100997 -20.2156452138947 -3.0854753817479201  92.385289556184006 -21.1139042761918 -1.52964504749004  92.7349706685185 -21.5589578312985 -0.75878967795607399  93.112549552570499 -21.9970452561248 3.64508873269766e-14 
 0.0112884275843965 4 0.016903569005780699 2 0.0197111397164728 2 0.022518710427164901 4
7 0 0  3 10 5  93.112549552570499 -10.9985226280624 -19.050000000000001  92.3561926228423 -11.876088809831201 -17.530010786172301  91.7216764840677 -12.7679224533004 -15.9853096037843  91.051772133955495 -14.138679659290901 -13.6110884781676  90.875782706644301 -14.6011389289571 -12.8100855266745  90.696022504458199 -15.304690391073001 -11.5914986485505  90.650133349800697 -15.5408505540624 -11.182457247529101  90.588392222141394 -16.0166882106126 -10.3582822502296  90.572549552570607 -16.256974101830298 -9.9420948782984997  90.572549552570507 -16.497783942093601 -9.5250000000000199 
 2.4754974313367899e-07 4 0.0056443375670698097 2 0.0084663825757331397 2 0.0098774050800648095 2 0.0112884275843965 4
7 0 0  3 10 5  102.764549552571 -21.9970452561248 3.6438128949449001e-14  103.520906482299 -21.119479074356001 1.51998921382778  104.155422621073 -20.2276454308867 3.0646903962157901  104.825326971186 -18.856888224896299 5.4389115218324298  105.001316398497 -18.394428955230001 6.2399144733255696  105.181076600683 -17.690877493114201 7.4585013514495504  105.22696575534 -17.454717330124801 7.8675427524709702  105.288706883 -16.9788796735745 8.6917177497704792  105.304549552571 -16.738593782356801 9.1079051217015508  105.304549552571 -16.497783942093601 9.5250000000000306 
 2.4754974315972499e-07 4 0.0056443375670698296 2 0.0084663825757331605 2 0.0098774050800648407 2 0.0112884275843965 4
7 0 0  3 8 4  105.304549552571 -16.497783942093601 9.5250000000000306  105.304549552571 -15.539485045663501 11.1848223774541  105.052239546455 -14.6055959665704 12.802365711077099  104.38327444468401 -13.2328668781704 15.1800022372136  104.11240620104 -12.7799226702925 15.964524618252099  103.49180954895699 -11.8816636079953 17.520354952510001  103.142128436623 -11.4366100528886 18.291210322043899  102.764549552571 -10.9985226280624 19.050000000000001 
 0.0112884275843965 4 0.016903569005780699 2 0.0197111397164728 2 0.022518710427164901 4
1 90.572549552570507 -10.9985226280624 19.050000000000001 1 8.20559002877728e-21 -1.32183770489477e-18 
7 0 0  3 8 4  90.572549552570507 -16.497783942093601 9.5250000000000306  90.572549552570607 -15.539485045663501 11.1848223774541  90.824859558686001 -14.6055959665704 12.802365711077099  91.493824660456895 -13.2328668781704 15.1800022372136  91.764692904100997 -12.7799226702925 15.964524618252099  92.385289556184006 -11.8816636079953 17.520354952510001  92.7349706685185 -11.4366100528886 18.291210322043899  93.112549552570499 -10.9985226280624 19.050000000000001 
 0.0112884275843965 4 0.016903569005780699 2 0.0197111397164728 2 0.022518710427164901 4
7 0 0  3 10 5  93.112549552570499 -21.9970452561248 3.64508873269766e-14  92.3561926228423 -21.119479074356001 1.51998921382779  91.7216764840678 -20.2276454308867 3.0646903962157999  91.051772133955495 -18.856888224896299 5.4389115218324404  90.875782706644301 -18.394428955230001 6.2399144733255696  90.696022504458199 -17.690877493114201 7.4585013514495504  90.650133349800697 -17.454717330124801 7.86754275247098  90.588392222141394 -16.9788796735745 8.6917177497704898  90.572549552570507 -16.738593782356801 9.1079051217015508  90.572549552570507 -16.497783942093601 9.5250000000000306 
 2.4754974316202902e-07 4 0.00564433756706984 2 0.0084663825757331796 2 0.0098774050800648494 2 0.0112884275843965 4
7 0 0  3 8 4  102.764549552571 -10.9985226280624 19.050000000000001  103.13882905768401 -10.130004013881299 19.050000000000001  103.486382122628 -9.2469758528756998 19.050000000000001  104.110449032704 -7.4423529698246602 19.050000000000001  104.383157545328 -6.5306418239453397 19.050000000000001  105.05406815994699 -3.77621420797505 19.050000000000001  105.304549552571 -1.9082610191526701 19.050000000000001  105.304549552571 1.16612303903744e-14 19.050000000000001 
 0.015396691181949701 4 0.018222283269665102 2 0.021047875357380501 2 0.0266990595328114 4
7 0 0  3 14 7  105.304549552571 1.16612303903744e-14 19.050000000000001  105.304549552571 0.475519110301658 19.050000000000001  105.289000332291 0.95507946089764295 19.050000000000001  105.22768360288801 1.9053484552420601 19.050000000000001  105.182024499196 2.3773277622336599 19.050000000000001  105.002816898784 3.7843831478657699 19.050000000000001  104.826997544669 4.7105681582551204 19.050000000000001  104.37967032311199 6.5428114734194702 19.050000000000001  104.10825335133801 7.4488888967935001 19.050000000000001  103.64242279116 8.7956572559793003 19.050000000000001  103.477026618192 9.2432839868199395 19.050000000000001  103.13159945974201 10.1276059567254 19.050000000000001  102.95133493599199 10.5650856374124 19.050000000000001  102.764549552571 10.9985226280624 19.050000000000001 
 0.0266990595328114 4 0.028107276775777901 2 0.029515494018744402 2 0.032331928504677303 2 0.035148362990610298 2 0.036556580233576802 2 0.037964797476543299 4
7 0 0  3 14 7  90.572549552570507 1.16611095056221e-14 19.050000000000001  90.572549552570607 0.475519110301654 19.050000000000001  90.588098772849705 0.95507946089764995 19.050000000000001  90.649415502253404 1.9053484552420701 19.050000000000001  90.695074605944995 2.3773277622336599 19.050000000000001  90.874282206357506 3.7843831478657699 19.050000000000001  91.050101560472399 4.7105681582551204 19.050000000000001  91.497428782028706 6.5428114734194702 19.050000000000001  91.768845753803504 7.4488888967935001 19.050000000000001  92.234676313981296 8.7956572559793003 19.050000000000001  92.400072486948702 9.2432839868199395 19.050000000000001  92.745499645399505 10.1276059567254 19.050000000000001  92.925764169149204 10.5650856374124 19.050000000000001  93.112549552570499 10.9985226280624 19.050000000000001 
 0.0266990595328114 4 0.028107276775777901 2 0.029515494018744402 2 0.032331928504677303 2 0.035148362990610298 2 0.036556580233576802 2 0.037964797476543299 4
7 0 0  3 8 4  93.112549552570499 -10.9985226280624 19.050000000000001  92.738270047456894 -10.130004013881299 19.050000000000001  92.390716982513595 -9.2469758528756891 19.050000000000001  91.766650072437002 -7.4423529698246504 19.050000000000001  91.493941559813095 -6.5306418239453397 19.050000000000001  90.823030945193807 -3.77621420797505 19.050000000000001  90.572549552570607 -1.9082610191526701 19.050000000000001  90.572549552570507 1.16611095056221e-14 19.050000000000001 
 0.015396691181949701 4 0.018222283269665102 2 0.021047875357380501 2 0.0266990595328114 4
2 105.304549552571 1.16612303903744e-14 5.5784861655113301e-18 -1 -8.20559002877728e-21 0 0 0 1 -8.20559002877728e-21 1 0 19.050000000000001
2 105.304549552571 1.16612303903744e-14 5.5784861655113301e-18 -1 -8.20559002877728e-21 0 0 0 1 -8.20559002877728e-21 1 0 19.050000000000001
2 105.304549552571 1.16612303903744e-14 5.5784861655113301e-18 -1 -8.20559002877728e-21 0 0 0 1 -8.20559002877728e-21 1 0 19.050000000000001
2 105.304549552571 1.16612303903744e-14 5.5784861655113301e-18 -1 -8.20559002877728e-21 0 0 0 1 -8.20559002877728e-21 1 0 19.050000000000001
2 105.304549552571 1.16612303903744e-14 5.5784861655113301e-18 1 8.20559002877728e-21 0 0 0 -1 -8.20559002877728e-21 1 0 19.050000000000001
2 105.304549552571 1.16612303903744e-14 5.5784861655113301e-18 -1 -8.20559002877728e-21 0 0 0 1 -8.20559002877728e-21 1 0 19.050000000000001
2 105.304549552571 1.16612303903744e-14 5.5784861655113301e-18 1 8.20559002877728e-21 0 0 0 -1 -8.20559002877728e-21 1 0 12.699999999999999
2 90.572549552570507 1.16611095056221e-14 2.5051799234020999e-17 1 8.20559002877728e-21 -0 0 0 1 8.20559002877728e-21 -1 0 19.050000000000001
2 90.572549552570507 1.16611095056221e-14 2.5051799234020999e-17 1 8.2055900287761094e-21 7.2880279844654699e-36 -1.3363823550460978e-51 -8.8817841970012504e-16 1 8.2055900287761094e-21 -1 -8.8817841970012504e-16 19.050000000000001
2 90.572549552570507 1.16611095056221e-14 2.5051799234020999e-17 1 8.2055900287784596e-21 -7.2880279844675493e-36 -6.6819117752304891e-51 8.8817841970012504e-16 1 8.2055900287784596e-21 -1 8.8817841970012504e-16 19.050000000000001
2 90.572549552570507 1.16611095056221e-14 2.5051799234020999e-17 1 8.20559002877728e-21 0 0 0 -1 -8.20559002877728e-21 1 0 19.050000000000001
2 90.572549552570507 1.16611095056221e-14 2.5051799234020999e-17 1 8.2055900287796302e-21 -1.4576055968937199e-35 8.0182941302765869e-51 1.7763568394002501e-15 1 8.2055900287796302e-21 -1 1.7763568394002501e-15 19.050000000000001
2 90.572549552570507 1.16611095056221e-14 2.5051799234020999e-17 1 8.20559002877728e-21 -0 0 0 1 8.20559002877728e-21 -1 0 19.050000000000001
2 90.572549552570507 1.16611095056221e-14 2.5051799234020999e-17 1 8.20559002877728e-21 0 0 0 -1 -8.20559002877728e-21 1 0 12.699999999999999
Polygon3D 0
PolygonOnTriangulations 0
Surfaces 30
2 55.647549552570602 1.2933933959836001e-14 -8.5462488337015803e-16 1 0 -0 0 0 1 0 -1 0 21.082000000000001
2 55.647549552570602 1.2933933959836001e-14 -8.5462488337015803e-16 1 0 -0 0 0 1 0 -1 0 21.082000000000001
1 84.222549552570499 21.082000000000001 -8.5462488337015803e-16 1 0 0 -0 1 0 0 -0 1 
1 84.222549552570499 1.2933933959836001e-14 -8.5462488337015803e-16 0 0.99691733373312796 -0.078459095727845596 -1 0 0 0 0.078459095727845596 0.99691733373312796 
1 90.572549552570507 13.462 -8.5462488337015803e-16 -1 0 0 0 0 1 0 1 -0 
2 55.647549552570602 1.2933933959836001e-14 -8.5462488337015803e-16 1 0 -0 0 0 1 0 -1 0 13.462
2 55.647549552570602 1.2933933959836001e-14 -8.5462488337015803e-16 1 0 -0 0 0 1 0 -1 0 13.462
1 84.222549552570499 1.2933933959836001e-14 -8.5462488337015803e-16 -0 0.99691733373312796 0.078459095727845596 1 0 0 0 0.078459095727845596 -0.99691733373312796 
2 90.572549552570507 1.16611095056221e-14 2.5051799234020999e-17 -1 -8.20559002877728e-21 -0 0 0 -1 8.20559002877728e-21 -1 0 12.699999999999999
2 90.572549552570507 1.16611095056221e-14 2.5051799234020999e-17 -1 -8.20559002877728e-21 -0 0 0 -1 8.20559002877728e-21 -1 0 12.699999999999999
1 105.304549552571 21.9970452561248 -6.9333154177417299e-15 -1 -8.20559002877728e-21 1.32183770489477e-18 -8.20559002877728e-21 1 0 -1.32183770489477e-18 -1.084645829094637e-38 -1 
1 90.572549552570507 21.9970452561248 -6.9138421046732199e-15 -1 -8.20559002877728e-21 1.32183770489477e-18 -8.20559002877728e-21 1 0 -1.32183770489477e-18 -1.084645829094637e-38 -1 
1 90.572549552570507 21.9970452561248 -3.4939753038605599e-15 6.538126030293248e-19 0.86602540378443882 0.49999999999999989 1 0 -1.3076252060586496e-18 -1.132436647075652e-18 0.49999999999999989 -0.86602540378443882 
1 90.572549552570507 10.9985226280624 19.050000000000001 1.32183770489477e-18 -4.3385833164115102e-38 1 1 0 -1.32183770489477e-18 5.7349030134601303e-56 1 4.3385833164115102e-38 
3 105.304549552571 1.16612303903744e-14 5.5784861655113301e-18 -1 -8.20559002877728e-21 0 0 0 1 -8.20559002877728e-21 1 0 19.050000000000001
0.85944549144247895
3 105.304549552571 1.16612303903744e-14 5.5784861655113301e-18 -1 -8.20559002877728e-21 0 0 0 1 -8.20559002877728e-21 1 0 19.050000000000001
0.85944549144247895
1 90.572549552570507 10.9985226280624 -19.050000000000001 -6.6802510186544196e-19 0.86602540378443804 -0.500000000000001 -1 -6.7407548053553255e-34 1.3360502037308801e-18 1.1570534171623157e-18 0.500000000000001 0.86602540378443804 
3 90.572549552570507 1.16611095056221e-14 2.5051799234020999e-17 1 8.20559002877728e-21 0 0 0 -1 -8.20559002877728e-21 1 0 19.050000000000001
0.85944549144247895
3 90.572549552570507 1.16611095056221e-14 2.5051799234020999e-17 1 8.20559002877728e-21 0 0 0 -1 -8.20559002877728e-21 1 0 19.050000000000001
0.85944549144247895
3 105.304549552571 1.16612303903744e-14 5.5784861655113301e-18 -1 -8.20559002877728e-21 0 0 0 1 -8.20559002877728e-21 1 0 19.050000000000001
0.85944549144247895
1 90.572549552570507 10.9985226280624 -19.050000000000001 1.32183770489477e-18 -4.3385833164115102e-38 1 1 0 -1.32183770489477e-18 5.7349030134601303e-56 1 4.3385833164115102e-38 
3 90.572549552570507 1.16611095056221e-14 2.5051799234020999e-17 1 8.20559002877728e-21 0 0 0 -1 -8.20559002877728e-21 1 0 19.050000000000001
0.85944549144247895
3 105.304549552571 1.16612303903744e-14 5.5784861655113301e-18 -1 -8.20559002877728e-21 0 0 0 1 -8.20559002877728e-21 1 0 19.050000000000001
0.85944549144247895
1 90.572549552570507 -21.9970452561248 3.0296809967083499e-15 -6.5381260302924979e-19 -0.86602540378443882 -0.49999999999999989 9.6296497219361771e-35 0.49999999999999989 -0.86602540378443882 1 -5.6621832353776098e-19 -3.2690630151462461e-19 
3 90.572549552570507 1.16611095056221e-14 2.5051799234020999e-17 1 8.20559002877728e-21 0 0 0 -1 -8.20559002877728e-21 1 0 19.050000000000001
0.85944549144247895
3 105.304549552571 1.16612303903744e-14 5.5784861655113301e-18 -1 -8.20559002877728e-21 0 0 0 1 -8.20559002877728e-21 1 0 19.050000000000001
0.85944549144247895
1 90.572549552570507 -10.9985226280624 19.050000000000001 6.6802510186536839e-19 -0.86602540378443849 0.50000000000000033 -1 -7.7136894477479529e-19 1.9259299443872359e-34 3.8568447238739774e-19 -0.50000000000000033 -0.86602540378443849 
3 90.572549552570507 1.16611095056221e-14 2.5051799234020999e-17 1 8.20559002877728e-21 0 0 0 -1 -8.20559002877728e-21 1 0 19.050000000000001
0.85944549144247895
3 105.304549552571 1.16612303903744e-14 5.5784861655113301e-18 -1 -8.20559002877728e-21 0 0 0 1 -8.20559002877728e-21 1 0 19.050000000000001
0.85944549144247895
3 90.572549552570507 1.16611095056221e-14 2.5051799234020999e-17 1 8.20559002877728e-21 0 0 0 -1 -8.20559002877728e-21 1 0 19.050000000000001
0.85944549144247895
Triangulations 0

TShapes 173
Ve
1e-07
84.2225495525705 1.03522188447077e-14 -21.082
0 0

0101101
*
Ve
1e-07
90.5725495525706 1.03522188447077e-14 -21.082
0 0

0101101
*
Ed
 1e-07 1 1 0
1  1 0 -3.1750000000001 3.17500000000001
2  1 1 0 -3.1750000000001 3.17500000000001
2  2 2 0 -3.1750000000001 3.17500000000001
4 CN 1 0 2 0
0

0101000
+173 0 -172 0 *
Ve
1e-07
84.2225495525705 1.65407465613445 21.0170112297618
0 0

0101101
*
Ed
 1e-07 1 1 0
1  2 0 0.0785398163397453 3.14159265358979
2  3 1 0 0.0785398163397453 3.14159265358979
4 C0 1 0 3 0
0

0101000
+170 0 -173 0 *
Ve
1e-07
90.5725495525705 1.65407465613445 21.0170112297618
0 0

0101101
*
Ed
 1e-07 1 1 0
1  3 0 28.5749999999999 34.9249999999999
2  4 1 0 28.5749999999999 34.9249999999999
4 C0 1 0 4 0
0

0101000
+170 0 -168 0 *
Ed
 1e-07 1 1 0
1  4 0 0.0785398163397453 3.14159265358979
2  5 1 0 0.0785398163397453 3.14159265358979
4 C0 1 0 5 0
0

0101000
+168 0 -172 0 *
Wi

0101100
-171 0 -169 0 +167 0 +166 0 *
Fa
0  1e-07 1 0

0111000
+165 0 *
Ve
1e-07
84.2225495525705 1.05621634668827 13.4205011467154
0 0

0101101
*
Ve
1e-07
84.2225495525705 1.12853688863203e-14 -13.462
0 0

0101101
*
Ed
 1e-07 1 1 0
1  5 0 0.0785398163397453 3.14159265358979
2  6 6 0 0.0785398163397453 3.14159265358979
4 C0 6 0 3 0
0

0101000
+163 0 -162 0 *
Ve
1e-07
90.5725495525705 1.05621634668827 13.4205011467154
0 0

0101101
*
Ed
 1e-07 1 1 0
1  6 0 -34.9249999999999 -28.5749999999999
2  7 6 0 -34.9249999999999 -28.5749999999999
4 C0 6 0 4 0
0

0101000
+160 0 -163 0 *
Ve
1e-07
90.5725495525706 1.12853688863203e-14 -13.462
0 0

0101101
*
Ed
 1e-07 1 1 0
1  7 0 0.0785398163397453 3.14159265358979
2  8 6 0 0.0785398163397453 3.14159265358979
4 C0 6 0 5 0
0

0101000
+160 0 -158 0 *
Ed
 1e-07 1 1 0
1  8 0 -3.17500000000001 3.1750000000001
2  9 6 0 -3.17500000000001 3.1750000000001
2  10 7 0 -3.17500000000001 3.1750000000001
4 CN 6 0 7 0
0

0101000
+158 0 -162 0 *
Wi

0101100
-161 0 -159 0 +157 0 +156 0 *
Fa
0  1e-07 6 0

0111000
+155 0 *
Ve
1e-07
90.5725495525705 -1.05621634668824 13.4205011467154
0 0

0101101
*
Ed
 1e-07 1 1 0
1  9 0 3.14159265358979 6.20464549083984
2  11 7 0 3.14159265358979 6.20464549083984
4 C0 7 0 5 0
0

0101000
+158 0 -153 0 *
Ve
1e-07
84.2225495525705 -1.05621634668825 13.4205011467154
0 0

0101101
*
Ed
 1e-07 1 1 0
1  10 0 -34.9249999999999 -28.5749999999999
2  12 7 0 -34.9249999999999 -28.5749999999999
4 C0 7 0 8 0
0

0101000
+153 0 -151 0 *
Ed
 1e-07 1 1 0
1  11 0 3.14159265358979 6.20464549083984
2  13 7 0 3.14159265358979 6.20464549083984
4 C0 7 0 3 0
0

0101000
+162 0 -151 0 *
Wi

0101100
+152 0 +150 0 -149 0 -156 0 *
Fa
0  1e-07 7 0

0111000
+148 0 *
Ed
 1e-07 1 1 0
1  12 0 13.462 21.082
4 C0 5 0 4 0
0

0101000
+160 0 -168 0 *
Ve
1e-07
90.5725495525705 -1.65407465613443 21.0170112297618
0 0

0101101
*
Ed
 1e-07 1 1 0
1  13 0 13.462 21.082
4 C0 5 0 8 0
0

0101000
+153 0 -145 0 *
Ed
 1e-07 1 1 0
1  14 0 3.14159265358979 6.20464549083984
2  14 2 0 3.14159265358979 6.20464549083984
4 C0 5 0 2 0
0

0101000
+172 0 -145 0 *
Wi

0101100
-166 0 -146 0 +157 0 +152 0 +144 0 -143 0 *
Fa
0  1e-07 5 0

0111000
-142 0 *
Ve
1e-07
84.2225495525705 -1.65407465613443 21.0170112297618
0 0

0101101
*
Ed
 1e-07 1 1 0
1  15 0 28.5749999999999 34.9249999999999
2  15 2 0 28.5749999999999 34.9249999999999
4 C0 2 0 8 0
0

0101000
+140 0 -145 0 *
Ed
 1e-07 1 1 0
1  16 0 3.14159265358979 6.20464549083984
2  16 2 0 3.14159265358979 6.20464549083984
4 C0 2 0 3 0
0

0101000
+173 0 -140 0 *
Wi

0101100
+171 0 +143 0 -139 0 -138 0 *
Fa
0  1e-07 2 0

0111000
+137 0 *
Ed
 1e-07 1 1 0
1  17 0 11.8079253438656 19.4279253438655
4 C0 3 0 4 0
0

0101000
+163 0 -170 0 *
Ed
 1e-07 1 1 0
1  18 0 15.1160746561345 22.7360746561344
4 C0 3 0 8 0
0

0101000
+151 0 -140 0 *
Wi

0101100
-161 0 +135 0 +169 0 +138 0 -134 0 -149 0 *
Fa
0  1e-07 3 0

0111000
-133 0 *
Wi

0101100
+150 0 +134 0 +139 0 -144 0 *
Fa
0  1e-07 8 0

0111000
+131 0 *
Wi

0101100
+146 0 -167 0 -135 0 -159 0 *
Fa
0  1e-07 4 0

0111000
-129 0 *
Sh

0101100
+164 0 -154 0 -147 0 -141 0 +136 0 -132 0 +130 0 -128 0 *
So

0100000
+127 0 *
Ve
1e-07
90.5725495525705 1.16611095056221e-14 -12.7
0 0

0101101
*
Ve
1e-07
105.304549552571 1.16612303903744e-14 -12.7
0 0

0101101
*
Ed
 1e-07 1 1 0
1  19 0 0 14.7320000000005
2  17 9 0 0 14.7320000000005
2  18 10 0 0 14.7320000000005
4 CN 9 0 10 0
0

0101000
+125 0 -124 0 *
Ve
1e-07
105.304549552571 1.32164713829154e-14 12.7
0 0

0101101
*
Ed
 1e-07 1 1 0
1  20 0 3.14159265358979 6.28318530717959
2  19 9 0 3.14159265358979 6.28318530717959
4 C0 9 0 11 0
0

0101000
+122 0 -124 0 *
Ve
1e-07
90.5725495525705 1.32164713829154e-14 12.7
0 0

0101101
*
Ed
 1e-07 1 1 0
1  21 0 4.95965358639272e-40 14.7320000000005
2  20 9 0 4.95965358639272e-40 14.7320000000005
2  21 10 0 4.95965358639272e-40 14.7320000000005
4 CN 9 0 10 0
0

0101000
+120 0 -122 0 *
Ed
 1e-07 1 1 0
1  22 0 3.14159265358979 6.28318530717959
2  22 9 0 3.14159265358979 6.28318530717959
4 C0 9 0 12 0
0

0101000
+120 0 -125 0 *
Wi

0101100
+123 0 -121 0 -119 0 +118 0 *
Fa
0  1e-07 9 0

0111000
+117 0 *
Ve
0.0002091282898596
93.1125495525705 10.9985226280624 19.05
0 0

0101101
*
Ve
0.000209128289570736
102.764549552571 10.9985226280624 19.05
0 0

0101101
*
Ed
 1e-07 1 1 0
1  23 0 2.53999999999999 12.1920000000005
4 C0 13 0 14 0
0

0101000
+115 0 -114 0 *
Ve
0.000368126189780408
105.304549552571 16.4977839420936 9.52500000000002
0 0

0101101
*
Ed
 0.000209128289570736 1 1 0
1  24 0 2.47549743114591e-07 0.0112884275843965
2  23 15 0 2.47549743114591e-07 0.0112884275843965
4 C0 13 0 15 0
0

0101000
+114 0 -112 0 *
Ve
0.000368126189780408
102.764549552571 21.9970452561248 -3.46051099801768e-15
0 0

0101101
*
Ed
 0.000368126189780408 1 1 0
1  25 0 0.0112884275843965 0.0225187104271649
2  24 16 0 0.0112884275843965 0.0225187104271649
4 C0 13 0 16 0
0

0101000
+112 0 -110 0 *
Ve
0.000368126189647118
93.1125495525706 21.9970452561248 -3.44775262049003e-15
0 0

0101101
*
Ed
 1e-07 1 1 0
1  26 0 2.54000000000009 12.1920000000005
4 C0 13 0 17 0
0

0101000
+108 0 -110 0 *
Ve
0.000368126189647118
90.5725495525705 16.4977839420936 9.52500000000002
0 0

0101101
*
Ed
 0.000368126189647118 1 1 0
1  27 0 0.0112884275843965 0.0225187104271649
2  25 18 0 0.0112884275843965 0.0225187104271649
4 C0 13 0 18 0
0

0101000
+106 0 -108 0 *
Ed
 0.0002091282898596 1 1 0
1  28 0 2.4754974312213e-07 0.0112884275843965
2  26 19 0 2.4754974312213e-07 0.0112884275843965
4 C0 13 0 19 0
0

0101000
+115 0 -106 0 *
Wi

0101100
+113 0 +111 0 +109 0 -107 0 -105 0 -104 0 *
Fa
0  1e-07 13 0

0111000
+103 0 *
Ve
0.000368126189796655
105.304549552571 16.4977839420936 -9.52500000000003
0 0

0101101
*
Ed
 0.000209128289551132 1 1 0
1  29 0 2.47549743119358e-07 0.0112884275843965
2  27 16 0 2.47549743119358e-07 0.0112884275843965
4 C0 17 0 16 0
0

0101000
+110 0 -101 0 *
Ve
0.000368126189796655
102.764549552571 10.9985226280624 -19.05
0 0

0101101
*
Ed
 0.000368126189796655 1 1 0
1  30 0 0.0112884275843965 0.0225187104271649
2  28 20 0 0.0112884275843965 0.0225187104271649
4 C0 17 0 20 0
0

0101000
+101 0 -99 0 *
Ve
0.000368126189670454
93.1125495525705 10.9985226280624 -19.05
0 0

0101101
*
Ed
 1e-07 1 1 0
1  31 0 2.53999999999999 12.1920000000005
4 C0 17 0 21 0
0

0101000
+97 0 -99 0 *
Ve
0.000368126189670454
90.5725495525705 16.4977839420936 -9.52500000000003
0 0

0101101
*
Ed
 0.000368126189670454 1 1 0
1  32 0 0.0112884275843965 0.0225187104271649
2  29 22 0 0.0112884275843965 0.0225187104271649
4 C0 17 0 22 0
0

0101000
+95 0 -97 0 *
Ed
 0.000209128289799828 1 1 0
1  33 0 2.47549743113169e-07 0.0112884275843965
2  30 18 0 2.47549743113169e-07 0.0112884275843965
4 C0 17 0 18 0
0

0101000
+108 0 -95 0 *
Wi

0101100
+107 0 +100 0 +98 0 -96 0 -94 0 -93 0 *
Fa
0  1e-07 17 0

0111000
+92 0 *
Ve
0.000418339413531364
102.764549552571 -10.9985226280624 -19.05
0 0

0101101
*
Ve
0.000418339413531364
105.304549552571 1.16612303903744e-14 -19.05
0 0

0101101
*
Ed
 0.000418339413531364 1 1 0
1  34 0 0.0153966911819497 0.0266990595328114
2  31 23 0 0.0153966911819497 0.0266990595328114
4 C0 21 0 23 0
0

0101000
+90 0 -89 0 *
Ve
0.00041833941335144
93.1125495525705 -10.9985226280624 -19.05
0 0

0101101
*
Ed
 1e-07 1 1 0
1  35 0 2.53999999999999 12.1920000000005
4 C0 21 0 24 0
0

0101000
+87 0 -90 0 *
Ve
0.00041833941335144
90.5725495525705 1.16611095056221e-14 -19.05
0 0

0101101
*
Ed
 0.00041833941335144 1 1 0
1  36 0 0.0153966911819497 0.0266990595328114
2  32 25 0 0.0153966911819497 0.0266990595328114
4 C0 21 0 25 0
0

0101000
+87 0 -85 0 *
Ed
 2.47826652808073e-05 1 1 0
1  37 0 0.0266990595328114 0.0379647974765433
2  33 22 0 0.0266990595328114 0.0379647974765433
4 C0 21 0 22 0
0

0101000
+85 0 -97 0 *
Ed
 2.47826654227099e-05 1 1 0
1  38 0 0.0266990595328114 0.0379647974765433
2  34 20 0 0.0266990595328114 0.0379647974765433
4 C0 21 0 20 0
0

0101000
+89 0 -99 0 *
Wi

0101100
-88 0 -86 0 +84 0 +83 0 +96 0 -82 0 *
Fa
0  1e-07 21 0

0111000
-81 0 *
Ve
0.000368126189798865
105.304549552571 -16.4977839420936 -9.52500000000002
0 0

0101101
*
Ed
 0.000209128289573067 1 1 0
1  39 0 2.47549743133679e-07 0.0112884275843965
2  35 23 0 2.47549743133679e-07 0.0112884275843965
4 C0 24 0 23 0
0

0101000
+90 0 -79 0 *
Ve
0.000368126189798865
102.764549552571 -21.9970452561248 3.6438128949449e-14
0 0

0101101
*
Ed
 0.000368126189798865 1 1 0
1  40 0 0.0112884275843965 0.0225187104271649
2  36 26 0 0.0112884275843965 0.0225187104271649
4 C0 24 0 26 0
0

0101000
+79 0 -77 0 *
Ve
0.000368126189652173
93.1125495525705 -21.9970452561248 3.64508873269766e-14
0 0

0101101
*
Ed
 1e-07 1 1 0
1  41 0 2.53999999999999 12.1920000000005
4 C0 24 0 27 0
0

0101000
+75 0 -77 0 *
Ve
0.000368126189652173
90.5725495525705 -16.4977839420936 -9.52500000000002
0 0

0101101
*
Ed
 0.000368126189652173 1 1 0
1  42 0 0.0112884275843965 0.0225187104271649
2  37 28 0 0.0112884275843965 0.0225187104271649
4 C0 24 0 28 0
0

0101000
+73 0 -75 0 *
Ed
 0.000209128289874956 1 1 0
1  43 0 2.47549743133679e-07 0.0112884275843965
2  38 25 0 2.47549743133679e-07 0.0112884275843965
4 C0 24 0 25 0
0

0101000
+87 0 -73 0 *
Wi

0101100
+86 0 +78 0 +76 0 -74 0 -72 0 -71 0 *
Fa
0  1e-07 24 0

0111000
+70 0 *
Ve
0.000368126189782221
105.304549552571 -16.4977839420936 9.52500000000003
0 0

0101101
*
Ed
 0.000209128289570675 1 1 0
1  44 0 2.47549743159725e-07 0.0112884275843965
2  39 26 0 2.47549743159725e-07 0.0112884275843965
4 C0 27 0 26 0
0

0101000
+77 0 -68 0 *
Ve
0.000418339413533114
102.764549552571 -10.9985226280624 19.05
0 0

0101101
*
Ed
 0.000368126189782221 1 1 0
1  45 0 0.0112884275843965 0.0225187104271649
2  40 29 0 0.0112884275843965 0.0225187104271649
4 C0 27 0 29 0
0

0101000
+68 0 -66 0 *
Ve
0.000418339413350118
93.1125495525705 -10.9985226280624 19.05
0 0

0101101
*
Ed
 1e-07 1 1 0
1  46 0 2.53999999999999 12.1920000000005
4 C0 27 0 14 0
0

0101000
+64 0 -66 0 *
Ve
0.000368126189645757
90.5725495525705 -16.4977839420936 9.52500000000003
0 0

0101101
*
Ed
 0.000368126189645757 1 1 0
1  47 0 0.0112884275843965 0.0225187104271649
2  41 30 0 0.0112884275843965 0.0225187104271649
4 C0 27 0 30 0
0

0101000
+62 0 -64 0 *
Ed
 0.000209128289841382 1 1 0
1  48 0 2.47549743162029e-07 0.0112884275843965
2  42 28 0 2.47549743162029e-07 0.0112884275843965
4 C0 27 0 28 0
0

0101000
+75 0 -62 0 *
Wi

0101100
+74 0 +67 0 +65 0 -63 0 -61 0 -60 0 *
Fa
0  1e-07 27 0

0111000
+59 0 *
Ve
0.000418339413533114
105.304549552571 1.16612303903744e-14 19.05
0 0

0101101
*
Ed
 0.000418339413533114 1 1 0
1  49 0 0.0153966911819497 0.0266990595328114
2  43 29 0 0.0153966911819497 0.0266990595328114
4 C0 14 0 29 0
0

0101000
+66 0 -57 0 *
Ed
 2.4782665422617e-05 1 1 0
1  50 0 0.0266990595328114 0.0379647974765433
2  44 15 0 0.0266990595328114 0.0379647974765433
4 C0 14 0 15 0
0

0101000
+57 0 -114 0 *
Ve
0.000418339413350118
90.5725495525705 1.16611095056221e-14 19.05
0 0

0101101
*
Ed
 2.4782665280916e-05 1 1 0
1  51 0 0.0266990595328114 0.0379647974765433
2  45 19 0 0.0266990595328114 0.0379647974765433
4 C0 14 0 19 0
0

0101000
+54 0 -115 0 *
Ed
 0.000418339413350118 1 1 0
1  52 0 0.0153966911819497 0.0266990595328114
2  46 30 0 0.0153966911819497 0.0266990595328114
4 C0 14 0 30 0
0

0101000
+64 0 -54 0 *
Wi

0101100
+63 0 +56 0 +55 0 -113 0 -53 0 -52 0 *
Fa
0  1e-07 14 0

0111000
+51 0 *
Ed
 1e-07 1 1 0
1  53 0 0 1.0471975511966
2  47 15 0 0 1.0471975511966
4 C0 11 0 15 0
0

0101000
+57 0 -112 0 *
Ed
 1e-07 1 1 0
1  54 0 5.23598775598299 6.28318530717959
2  48 29 0 5.23598775598299 6.28318530717959
4 C0 11 0 29 0
0

0101000
+68 0 -57 0 *
Ed
 1e-07 1 1 0
1  55 0 4.18879020478639 5.23598775598299
2  49 26 0 4.18879020478639 5.23598775598299
4 C0 11 0 26 0
0

0101000
+79 0 -68 0 *
Ed
 1e-07 1 1 0
1  56 0 3.14159265358979 4.18879020478639
2  50 23 0 3.14159265358979 4.18879020478639
4 C0 11 0 23 0
0

0101000
+89 0 -79 0 *
Ed
 1e-07 1 1 0
1  57 0 0 1.0471975511966
2  51 20 0 0 1.0471975511966
4 C0 11 0 20 0
0

0101000
+89 0 -101 0 *
Ed
 1e-07 1 1 0
1  58 0 1.0471975511966 2.0943951023932
2  52 16 0 1.0471975511966 2.0943951023932
4 C0 11 0 16 0
0

0101000
+112 0 -101 0 *
Wi

0101100
-49 0 -48 0 -47 0 -46 0 +45 0 -44 0 *
Ed
 1e-07 1 1 0
1  59 0 0 3.14159265358979
2  53 10 0 0 3.14159265358979
4 C0 11 0 10 0
0

0101000
+124 0 -122 0 *
Wi

0101100
-42 0 -121 0 *
Fa
0  1e-07 11 0

0111000
-43 0 -41 0 *
Ed
 1e-07 1 1 0
1  60 0 0 1.0471975511966
2  54 30 0 0 1.0471975511966
4 C0 12 0 30 0
0

0101000
+54 0 -62 0 *
Ed
 1e-07 1 1 0
1  61 0 5.23598775598299 6.28318530717959
2  55 19 0 5.23598775598299 6.28318530717959
4 C0 12 0 19 0
0

0101000
+106 0 -54 0 *
Ed
 1e-07 1 1 0
1  62 0 4.18879020478639 5.23598775598299
2  56 18 0 4.18879020478639 5.23598775598299
4 C0 12 0 18 0
0

0101000
+95 0 -106 0 *
Ed
 1e-07 1 1 0
1  63 0 0 1.0471975511966
2  57 22 0 0 1.0471975511966
4 C0 12 0 22 0
0

0101000
+85 0 -95 0 *
Ed
 1e-07 1 1 0
1  64 0 2.0943951023932 3.14159265358979
2  58 25 0 2.0943951023932 3.14159265358979
4 C0 12 0 25 0
0

0101000
+73 0 -85 0 *
Ed
 1e-07 1 1 0
1  65 0 1.0471975511966 2.09439510239319
2  59 28 0 1.0471975511966 2.09439510239319
4 C0 12 0 28 0
0

0101000
+62 0 -73 0 *
Wi

0101100
-39 0 -38 0 -37 0 -36 0 -35 0 -34 0 *
Ed
 1e-07 1 1 0
1  66 0 0 3.14159265358979
2  60 10 0 0 3.14159265358979
4 C0 12 0 10 0
0

0101000
+125 0 -120 0 *
Wi

0101100
+32 0 +118 0 *
Fa
0  1e-07 12 0

0111000
+33 0 +31 0 *
Wi

0101100
-42 0 -123 0 +32 0 +119 0 *
Fa
0  1e-07 10 0

0111000
+29 0 *
Wi

0101100
+104 0 +38 0 +53 0 *
Fa
0  1e-07 19 0

0111000
+27 0 *
Wi

0101100
+105 0 +93 0 +37 0 *
Fa
0  1e-07 18 0

0111000
+25 0 *
Wi

0101100
+94 0 -83 0 +36 0 *
Fa
0  1e-07 22 0

0111000
+23 0 *
Wi

0101100
+71 0 +35 0 -84 0 *
Fa
0  1e-07 25 0

0111000
+21 0 *
Wi

0101100
+72 0 +60 0 +34 0 *
Fa
0  1e-07 28 0

0111000
+19 0 *
Wi

0101100
+61 0 +52 0 +39 0 *
Fa
0  1e-07 30 0

0111000
+17 0 *
Wi

0101100
+48 0 -56 0 -65 0 *
Fa
0  1e-07 29 0

0111000
+15 0 *
Wi

0101100
+47 0 -67 0 -76 0 *
Fa
0  1e-07 26 0

0111000
+13 0 *
Wi

0101100
+88 0 +46 0 -78 0 *
Fa
0  1e-07 23 0

0111000
+11 0 *
Wi

0101100
-45 0 +82 0 -98 0 *
Fa
0  1e-07 20 0

0111000
+9 0 *
Wi

0101100
+44 0 -100 0 -109 0 *
Fa
0  1e-07 16 0

0111000
+7 0 *
Wi

0101100
-55 0 +49 0 -111 0 *
Fa
0  1e-07 15 0

0111000
+5 0 *
Sh

0101100
-116 0 +102 0 +91 0 -80 0 +69 0 +58 0 +50 0 -40 0 +30 0 -28 0 
+26 0 +24 0 +22 0 +20 0 +18 0 +16 0 +14 0 +12 0 +10 0 +8 0 
+6 0 +4 0 *
So

0100000
+3 0 *
Co

1100000
+126 0 +2 0 *

+1 0 