DBRep_DrawableShape

CASCADE Topology V1, (c) Matra-Datavision
Locations 0
Curve2ds 60
1 0 0 0 -1 
1 6.2831853071795862 0 0 -1 
1 6.2831853071795862 -15.478124999999968 -1 0 
1 3.1415926535897931 0 0 -1 
1 3.1415926535897931 0 0 -1 
1 6.2831853071795862 0 -1 0 
7 0 0  3 25 23  0.52359877559830148 4.5904982284630886  0.52980461144243218 4.4677319833946001  0.54237329564536274 4.2256605925940853  0.56170424305640299 3.8734536108144555  0.58152039648532872 3.5326589023591226  0.60182763612326839 3.203804867411336  0.62263072297480537 2.8874302636052875  0.64393301410810788 2.5840853827217116  0.66573632008245764 2.2943310639144507  0.68804072637237979 2.018738534251642  0.71084439170201841 1.7578872589005849  0.73414346554642507 1.5123690185793386  0.75793156178425258 1.2827681085589575  0.78220092042061196 1.069729824401235  0.80694211330678201 0.87394955465472168  0.83214200882921563 0.69607203307374577  0.8577849650724646 0.53675934693086713  0.88385244504999783 0.39667058027797081  0.91032284527684848 0.27646408586695753  0.93717228394241359 0.17679862120684173  0.9643712418172391 0.098298931835491321  0.9918967633805934 0.041647086454891728  1.0195734679122122 0.0075797799389877834  1.0380109818456138 -2.1567357982312588e-05  1.047197551196599 -4.3620298475165486e-14 
 2.5223581233802601e-07 4 0.00058131126857651817 1 0.0011623703013406983 1 0.0017434293341048784 1 0.0023244883668690586 1 0.0029055473996332389 1 0.0034866064323974188 1 0.0040676654651615983 1 0.0046487244979257786 1 0.005229783530689959 1 0.0058108425634541393 1 0.0063919015962183188 1 0.0069729606289824992 1 0.0075540196617466795 1 0.008135078694510859 1 0.0087161377272750393 1 0.0092971967600392197 1 0.0098782557928034 1 0.01045931482556758 1 0.011040373858331761 1 0.011621432891095941 1 0.01220249192386012 1 0.0127835509566243 4
7 0 0  3 25 23  1.047197551196599 -4.3620298475165486e-14  1.0563184542250041 -1.7727372830247675e-06  1.0745278330214481 0.0074574236900357919  1.1017072936452825 0.040674638460505182  1.1287142631334397 0.095568531274060134  1.1555128101339687 0.17175913783105859  1.1820686262218743 0.26884971663913471  1.2083494297989208 0.38642573830183297  1.2343250669395631 0.52405693279093413  1.2599678631278621 0.68130032417832809  1.2852520355457728 0.85769681198408765  1.3101563701040519 1.0527929240567935  1.3346545406205825 1.2660684801525079  1.3587513664120054 1.4972153953845286  1.3823978136079522 1.7452707022537135  1.405512698625522 2.0088719571948315  1.4280667038456907 2.286979597069918  1.4500713266958276 2.5790090609778278  1.4715292493180583 2.8842867413218602  1.4924476527297343 3.2021853710607013  1.5128330317746066 3.5321386396878007  1.5326936676059606 3.8735898780762335  1.5520387666233166 4.2259986514140016  1.5645987989510399 4.4678968743829603  1.5707963267948974 4.5904982284630957 
 0.0127835509566243 4 0.013360450650761491 1 0.013937350344898682 1 0.014514250039035873 1 0.015091149733173064 1 0.015668049427310253 1 0.016244949121447444 1 0.016821848815584635 1 0.017398748509721826 1 0.017975648203859017 1 0.018552547897996208 1 0.019129447592133399 1 0.01970634728627059 1 0.020283246980407781 1 0.020860146674544972 1 0.021437046368682162 1 0.022013946062819353 1 0.022590845756956544 1 0.023167745451093735 1 0.023744645145230926 1 0.024321544839368117 1 0.024898444533505308 1 0.025475344227642499 4
7 0 0  3 25 23  2.0943951023931944 -4.3620298475165486e-14  2.0852741993647892 -1.7727372760234724e-06  2.0670648205683455 0.0074574236900489949  2.039885359944511 0.040674638460514813  2.0128783904563536 0.095568531274066046  1.986079843455826 0.17175913783106556  1.9595240273679191 0.2688497166391407  1.9332432237908734 0.38642573830183313  1.9072675866502302 0.5240569327909308  1.8816247904619319 0.6813003241783322  1.8563406180440212 0.85769681198409031  1.8314362834857409 1.0527929240568177  1.8069381129692104 1.2660684801525581  1.7828412871777874 1.4972153953845804  1.7591948399818405 1.7452707022537362  1.7360799549642707 2.0088719571948386  1.7135259497441018 2.2869795970699234  1.6915213268939657 2.5790090609778362  1.6700634042717344 2.8842867413218887  1.649145000860059 3.2021853710607289  1.6287596218151861 3.5321386396878176  1.6088989859838323 3.8735898780762414  1.5895538869664774 4.2259986514140033  1.576993854638753 4.467896874382963  1.5707963267948957 4.5904982284630975 
 0.0127835509566243 4 0.013360450650761491 1 0.013937350344898682 1 0.014514250039035873 1 0.015091149733173064 1 0.015668049427310253 1 0.016244949121447444 1 0.016821848815584635 1 0.017398748509721826 1 0.017975648203859017 1 0.018552547897996208 1 0.019129447592133399 1 0.01970634728627059 1 0.020283246980407781 1 0.020860146674544972 1 0.021437046368682162 1 0.022013946062819353 1 0.022590845756956544 1 0.023167745451093735 1 0.023744645145230926 1 0.024321544839368117 1 0.024898444533505308 1 0.025475344227642499 4
7 0 0  3 25 23  2.6179938779914917 4.5904982284630895  2.6117880421473609 4.4677319833946001  2.5992193579444303 4.2256605925940933  2.5798884105333904 3.8734536108144826  2.5600722571044643 3.532658902359151  2.5397650174665247 3.2038048674113635  2.5189619306149882 2.8874302636053244  2.497659639481685 2.5840853827217445  2.4758563335073349 2.2943310639144889  2.4535519272174136 2.0187385342516682  2.4307482618877749 1.7578872589006176  2.4074491880433682 1.5123690185793714  2.3836610918055405 1.2827681085589584  2.3593917331691818 1.0697298244012565  2.3346505402830102 0.87394955465473034  2.3094506447605783 0.69607203307376153  2.283807688517328 0.53675934693089145  2.2577402085397953 0.39667058027798402  2.2312698083129447 0.27646408586697657  2.2044203696473801 0.17679862120687045  2.1772214117725541 0.098298931835542183  2.1496958902092 0.041647086454921427  2.1220191856775816 0.0075797799390191741  2.1035816717441791 -2.1567357967165864e-05  2.0943951023931944 -4.3620298475165486e-14 
 2.5223581234175401e-07 4 0.00058131126857652164 1 0.0011623703013407016 1 0.0017434293341048815 1 0.0023244883668690616 1 0.0029055473996332415 1 0.0034866064323974214 1 0.0040676654651616009 1 0.0046487244979257812 1 0.0052297835306899616 1 0.0058108425634541411 1 0.0063919015962183206 1 0.0069729606289825009 1 0.0075540196617466812 1 0.008135078694510859 1 0.0087161377272750393 1 0.0092971967600392197 1 0.0098782557928034 1 0.01045931482556758 1 0.011040373858331759 1 0.011621432891095939 1 0.01220249192386012 1 0.0127835509566243 4
7 0 0  3 25 23  1.5707963267948974 4.5904982284630957  1.577002162639028 4.467731983394609  1.5895708468419587 4.2256605925940995  1.6089017942529984 3.8734536108144693  1.6287179476819242 3.5326589023591417  1.6490251873198645 3.2038048674113426  1.669828274171401 2.8874302636052889  1.6911305653047035 2.584085382721701  1.7129338712790534 2.2943310639144507  1.7352382775689756 2.0187385342516104  1.7580419428986136 1.7578872589005605  1.7813410167430208 1.5123690185792988  1.8051291129808475 1.2827681085589  1.8293984716172076 1.0697298244011819  1.8541396645033774 0.87394955465464963  1.8793395600258123 0.69607203307368271  1.9049825162690612 0.53675934693079819  1.931049996246595 0.39667058027789748  1.9575203964734462 0.27646408586688959  1.9843698351390116 0.17679862120681511  2.0115687930138377 0.098298931835481371  2.0390943145771918 0.041647086454819279  2.0667710191088133 0.0075797799389795729  2.0852085330422137 -2.1567357955380989e-05  2.0943951023931984 -7.6976997309115561e-15 
 2.5223581234021501e-07 4 0.00058131126857652478 1 0.0011623703013407094 1 0.0017434293341048938 1 0.0023244883668690785 1 0.0029055473996332632 1 0.0034866064323974474 1 0.0040676654651616321 1 0.0046487244979258168 1 0.0052297835306900015 1 0.0058108425634541862 1 0.0063919015962183709 1 0.0069729606289825547 1 0.0075540196617467394 1 0.0081350786945109249 1 0.0087161377272751105 1 0.0092971967600392943 1 0.0098782557928034781 1 0.010459314825567664 1 0.011040373858331847 1 0.011621432891096033 1 0.012202491923860217 1 0.012783550956624401 4
7 0 0  3 25 23  2.0943951023931984 -7.6976997309115561e-15  2.1035160054216036 -1.7727372445121822e-06  2.1217253842180477 0.0074574236900690283  2.1489048448418822 0.04067463846051441  2.17591181433004 0.09556853127405178  2.2027103613305674 0.17175913783103641  2.2292661774184741 0.26884971663909318  2.2555469809955202 0.38642573830177573  2.2815226181361612 0.52405693279086507  2.3071654143244613 0.6813003241782446  2.3324495867423716 0.85769681198398395  2.3573539213006502 1.0527929240567062  2.3818520918171813 1.2660684801524069  2.4059489176086033 1.4972153953844374  2.4295953648045501 1.7452707022536296  2.4527102498221178 2.0088719571946911  2.4752642550422856 2.2869795970697906  2.4972688778924206 2.579009060977715  2.5187268005146528 2.8842867413217399  2.5396452039263298 3.2021853710605899  2.5600305829712022 3.5321386396876746  2.5798912188025547 3.8735898780761233  2.5992363178199112 4.2259986514139207  2.6117963501476344 4.4678968743829257  2.6179938779914917 4.5904982284630886 
 0.012783550956624401 4 0.013360450650761583 1 0.013937350344898763 1 0.014514250039035946 1 0.015091149733173128 1 0.015668049427310309 1 0.016244949121447493 1 0.016821848815584673 1 0.017398748509721854 1 0.017975648203859038 1 0.018552547897996218 1 0.019129447592133399 1 0.019706347286270583 1 0.020283246980407763 1 0.020860146674544944 1 0.021437046368682128 1 0.022013946062819308 1 0.022590845756956489 1 0.023167745451093673 1 0.023744645145230853 1 0.024321544839368034 1 0.024898444533505218 1 0.025475344227642398 4
7 0 0  3 25 23  1.0471975511965947 -7.6976997309115561e-15  1.0380766481681896 -1.7727372457391852e-06  1.0198672693717457 0.0074574236900673257  0.99268780874791118 0.040674638460514834  0.96568083925975357 0.095568531274051807  0.93888229225922559 0.17175913783103591  0.91232647617131879 0.26884971663908785  0.88604567259427347 0.38642573830178234  0.86007003545363092 0.52405693279085819  0.83442723926533191 0.68130032417825048  0.80914306684742232 0.85769681198399272  0.78423873228914198 1.0527929240567167  0.75974056177261184 1.2660684801524225  0.73564373598118937 1.4972153953844645  0.71199728878524327 1.7452707022536746  0.68888240376767418 2.0088719571947462  0.66632839854750614 2.2869795970698519  0.64432377569736976 2.5790090609777785  0.6228658530751372 2.8842867413217861  0.60194744966346148 3.2021853710606387  0.58156207061858933 3.5321386396877075  0.56170143478723622 3.8735898780761433  0.54235633576988218 4.2259986514139438  0.52979630344215856 4.467896874382939  0.52359877559830148 4.5904982284630895 
 0.012783550956624401 4 0.013360450650761583 1 0.013937350344898763 1 0.014514250039035946 1 0.015091149733173128 1 0.015668049427310309 1 0.016244949121447493 1 0.016821848815584673 1 0.017398748509721854 1 0.017975648203859038 1 0.018552547897996218 1 0.019129447592133399 1 0.019706347286270583 1 0.020283246980407763 1 0.020860146674544944 1 0.021437046368682128 1 0.022013946062819308 1 0.022590845756956489 1 0.023167745451093673 1 0.023744645145230853 1 0.024321544839368034 1 0.024898444533505218 1 0.025475344227642398 4
7 0 0  3 25 23  1.5707963267948957 4.5904982284630975  1.5645904909507651 4.467731983394609  1.5520218067478344 4.2256605925941013  1.5326908593367949 3.8734536108144919  1.5128747059078687 3.5326589023591572  1.4925674662699291 3.2038048674113662  1.4717643794183923 2.8874302636053177  1.4504620882850896 2.5840853827217392  1.4286587823107397 2.2943310639144743  1.4063543760208175 2.0187385342516539  1.3835507106911791 1.7578872589005821  1.3602516368467723 1.5123690185793475  1.3364635406089451 1.2827681085589373  1.3121941819725862 1.0697298244012188  1.2874529890864153 0.87394955465468782  1.2622530935639817 0.69607203307369325  1.2366101373207314 0.53675934693079819  1.2105426573431981 0.39667058027789359  1.1840722571163471 0.27646408586687204  1.1572228184507816 0.17679862120681947  1.1300238605759565 0.098298931835500189  1.1024983390126011 0.041647086454828473  1.0748216344809804 0.0075797799389898061  1.0563841205475792 -2.1567357950499525e-05  1.0471975511965947 -7.6976997309115561e-15 
 2.5223581234486199e-07 4 0.00058131126857652923 1 0.0011623703013407135 1 0.0017434293341048979 1 0.0023244883668690824 1 0.0029055473996332667 1 0.0034866064323974513 1 0.0040676654651616347 1 0.0046487244979258194 1 0.0052297835306900041 1 0.0058108425634541879 1 0.0063919015962183726 1 0.0069729606289825573 1 0.0075540196617467411 1 0.0081350786945109249 1 0.0087161377272751105 1 0.0092971967600392943 1 0.0098782557928034781 1 0.010459314825567664 1 0.011040373858331847 1 0.011621432891096031 1 0.012202491923860217 1 0.012783550956624401 4
7 0 0  3 25 23  3.6651914291880998 4.5904982284630602  3.6590520145198226 4.4690475632995286  3.6465995579289565 4.2291468085880242  3.6273841928706245 3.8788422632055024  3.6076164213040394 3.5386241918552286  3.5872802646379616 3.2090498856016607  3.5663646230050379 2.8907520105587734  3.5448443218609911 2.5841879125297909  3.5228189671669177 2.2915683850804878  3.5002913102373108 2.0134657905547311  3.4772771610354178 1.7506283731314336  3.453791453535711 1.5037366941569064  3.4298565590467072 1.2735115254198883  3.4054835036740725 1.0605118269115665  3.3806754909232972 0.86520005754554186  3.3554524214427062 0.68818122050399433  3.3298331302099724 0.53001857145751552  3.3038398886653164 0.391279452062616  3.2774982727079252 0.27252496745030264  3.2508246164532633 0.17428583166575176  3.2238584826099768 0.097067649329403372  3.1966392903424161 0.041350859605395314  3.1692092873197772 0.0075906941441056227  3.1508117909982376 -2.6204432410066699e-06  3.1415926535897931 0 
 0.016392772733308799 4 0.016973995347051473 1 0.017555217960794144 1 0.018136440574536818 1 0.018717663188279492 1 0.019298885802022162 1 0.019880108415764836 1 0.020461331029507507 1 0.021042553643250181 1 0.021623776256992855 1 0.022204998870735525 1 0.022786221484478199 1 0.02336744409822087 1 0.023948666711963544 1 0.024529889325706218 1 0.025111111939448892 1 0.025692334553191563 1 0.026273557166934233 1 0.026854779780676907 1 0.027436002394419581 1 0.028017225008162255 1 0.028598447621904926 1 0.0291796702356476 4
7 0 0  3 25 23  5.7595865315812791 4.5904982284630584  5.7657259462495558 4.4690475632995348  5.7781784028404246 4.2291468085880402  5.797393767898753 3.8788422632055184  5.8171615394653404 3.5386241918552743  5.83749769613142 3.2090498856016931  5.8584133377643379 2.8907520105588107  5.8799336389083887 2.5841879125298113  5.9019589936024603 2.2915683850804975  5.924486650532069 2.0134657905547577  5.9475007997339615 1.7506283731314622  5.9709865072336665 1.5037366941569361  5.9949214017226726 1.2735115254199174  6.0192944570953033 1.0605118269115961  6.0441024698460852 0.8652000575455735  6.0693255393266732 0.68818122050403219  6.0949448305594061 0.53001857145756104  6.1209380721040612 0.39127945206266962  6.1472796880614515 0.27252496745035654  6.1739533443161196 0.17428583166579883  6.2009194781594008 0.097067649329433958  6.2281386704269641 0.041350859605413959  6.2555686734495994 0.0075906941441073635  6.2739661697711417 -2.6204432427467073e-06  6.2831853071795853 0 
 0.016392772733308799 4 0.016973995347051473 1 0.017555217960794144 1 0.018136440574536818 1 0.018717663188279492 1 0.019298885802022162 1 0.019880108415764836 1 0.020461331029507507 1 0.021042553643250181 1 0.021623776256992855 1 0.022204998870735525 1 0.022786221484478199 1 0.02336744409822087 1 0.023948666711963544 1 0.024529889325706218 1 0.025111111939448892 1 0.025692334553191563 1 0.026273557166934233 1 0.026854779780676907 1 0.027436002394419581 1 0.028017225008162255 1 0.028598447621904926 1 0.0291796702356476 4
7 0 0  3 25 23  0 0  0.0092152439128679181 -1.6252533455618676e-06  0.027599967460895759 0.0076031868101683548  0.055002891346015541 0.041389182159788179  0.082194087620258441 0.097115835784831184  0.1091384316052187 0.17431950853568035  0.1358027156756593 0.27252199129047672  0.16215605588013282 0.39122985646171149  0.18816999416762539 0.5299371724321279  0.21381863240831614 0.68812686902055809  0.2390786860452665 0.86527441636737934  0.26392957457270633 1.0608436655275015  0.28835320364426636 1.2743115967969807  0.31233471939446389 1.5050849653588843  0.335862709436206 1.7525486236742231  0.35892530932335176 2.0161143262888026  0.38152461860684644 2.2953738492931626  0.40358637329261809 2.5888055850756175  0.42503189906489997 2.8946065200602966  0.44588634322823428 3.2121908888166248  0.46616490742737587 3.5410018573606195  0.48588083596922144 3.8804418291247216  0.50504900607937753 4.2299517172830425  0.51747295440662466 4.4693164071976685  0.52359877559830148 4.5904982284630895 
 0.0291796702356476 4 0.029760647348480482 1 0.030341624461313364 1 0.030922601574146245 1 0.031503578686979131 1 0.032084555799812009 1 0.032665532912644894 1 0.033246510025477773 1 0.033827487138310658 1 0.034408464251143536 1 0.034989441363976422 1 0.0355704184768093 1 0.036151395589642185 1 0.036732372702475063 1 0.037313349815307949 1 0.037894326928140827 1 0.038475304040973712 1 0.039056281153806591 1 0.039637258266639476 1 0.040218235379472354 1 0.04079921249230524 1 0.041380189605138118 1 0.041961166717971003 4
7 0 0  3 25 23  3.1415926535897931 0  3.1323774096769248 -1.6252533441961577e-06  3.1139926861288973 0.0076031868101685768  3.0865897622437783 0.041389182159781671  3.0593985659695342 0.097115835784834945  3.0324542219845751 0.17431950853567929  3.0057899379141335 0.27252199129047716  2.9794365977096597 0.39122985646170311  2.9534226594221686 0.52993717243212435  2.927774021181476 0.68812686902054421  2.9025139675445262 0.86527441636736357  2.8776630790170863 1.0608436655274673  2.8532394499455269 1.2743115967969372  2.8292579341953292 1.5050849653588338  2.8057299441535872 1.7525486236741832  2.7826673442664411 2.0161143262887844  2.7600680349829467 2.2953738492931559  2.7380062802971747 2.5888055850756087  2.7165607545248927 2.89460652006029  2.6957063103615595 3.2121908888166133  2.6754277461624176 3.5410018573606048  2.6557118176205714 3.8804418291246989  2.6365436475104169 4.2299517172830274  2.6241196991831686 4.4693164071976614  2.6179938779914917 4.5904982284630886 
 0.0291796702356476 4 0.029760647348480482 1 0.030341624461313364 1 0.030922601574146245 1 0.031503578686979131 1 0.032084555799812009 1 0.032665532912644894 1 0.033246510025477773 1 0.033827487138310658 1 0.034408464251143536 1 0.034989441363976422 1 0.0355704184768093 1 0.036151395589642185 1 0.036732372702475063 1 0.037313349815307949 1 0.037894326928140827 1 0.038475304040973712 1 0.039056281153806591 1 0.039637258266639476 1 0.040218235379472354 1 0.04079921249230524 1 0.041380189605138118 1 0.041961166717971003 4
7 0 0  3 25 23  3.6651914291880998 4.5904982284630602  3.6713972650322311 4.4677319833945752  3.6839659492351604 4.2256605925940782  3.7032968966462012 3.8734536108144941  3.7231130500751268 3.5326589023591666  3.7434202897130655 3.2038048674113879  3.7642233765646025 2.8874302636053444  3.7855256676979052 2.5840853827217702  3.8073289736722549 2.2943310639145142  3.8296333799621771 2.0187385342516859  3.8524370452918153 1.7578872589006238  3.8757361191362216 1.512369018579373  3.8995242153740488 1.2827681085589695  3.9237935740104062 1.0697298244012559  3.9485347668965773 0.87394955465475932  3.9737346624190111 0.69607203307381527  3.9993776186622596 0.53675934693095584  4.0254450986397918 0.39667058027807045  4.0519154988666424 0.27646408586703797  4.0787649375322097 0.17679862120694026  4.1059638954070339 0.098298931835615055  4.1334894169703862 0.041647086454956357  4.1611661215020082 0.0075797799390808565  4.1796036354354085 -2.1567357933458492e-05  4.1887902047863914 -4.618619838546934e-14 
 2.5223581241698801e-07 4 0.00058131126857659341 1 0.0011623703013407699 1 0.0017434293341049463 1 0.0023244883668691227 1 0.0029055473996332992 1 0.0034866064323974756 1 0.0040676654651616521 1 0.004648724497925829 1 0.0052297835306900058 1 0.0058108425634541818 1 0.0063919015962183579 1 0.0069729606289825347 1 0.0075540196617467116 1 0.0081350786945108867 1 0.0087161377272750636 1 0.0092971967600392405 1 0.0098782557928034174 1 0.010459314825567594 1 0.011040373858331769 1 0.011621432891095946 1 0.012202491923860123 1 0.0127835509566243 4
7 0 0  3 25 23  4.1887902047863914 -4.618619838546934e-14  4.1979111078147966 -1.772737271000537e-06  4.2161204866112403 0.0074574236900728204  4.2432999472350774 0.040674638460567868  4.270306916723233 0.095568531274133312  4.2971054637237627 0.17175913783113786  4.3236612798116676 0.26884971663922408  4.3499420833887132 0.3864257383019204  4.3759177205293556 0.5240569327910175  4.4015605167176552 0.68130032417841324  4.4268446891355664 0.85769681198415315  4.4517490236938428 1.0527929240568756  4.4762471942103765 1.2660684801525723  4.5003440200017968 1.4972153953846148  4.5239904671977458 1.7452707022538407  4.5471053522153149 2.0088719571949181  4.5696593574354818 2.286979597069966  4.5916639802856185 2.5790090609778589  4.6131219029078485 2.8842867413218904  4.6340403063195259 3.2021853710607453  4.6544256853643988 3.5321386396878336  4.6742863211957522 3.8735898780762659  4.6936314202131122 4.2259986514140362  4.7061914525408364 4.4678968743829781  4.7123889803846941 4.5904982284630957 
 0.0127835509566243 4 0.013360450650761491 1 0.013937350344898682 1 0.014514250039035873 1 0.015091149733173064 1 0.015668049427310253 1 0.016244949121447444 1 0.016821848815584635 1 0.017398748509721826 1 0.017975648203859017 1 0.018552547897996208 1 0.019129447592133399 1 0.01970634728627059 1 0.020283246980407781 1 0.020860146674544972 1 0.021437046368682162 1 0.022013946062819353 1 0.022590845756956544 1 0.023167745451093735 1 0.023744645145230926 1 0.024321544839368117 1 0.024898444533505308 1 0.025475344227642499 4
7 0 0  3 25 23  5.235987755982987 -4.3620298475165486e-14  5.2268668529545819 -1.7727372680704986e-06  5.2086574741581373 0.0074574236900743331  5.1814780135343028 0.04067463846056555  5.1544710440461454 0.095568531274136767  5.1276724970456184 0.1717591378311448  5.1011166809577109 0.26884971663922985  5.0748358773806661 0.38642573830192684  5.048860240240022 0.52405693279103005  5.0232174440517259 0.68130032417841968  4.997933271633813 0.8576968119841738  4.9730289370755338 1.0527929240568925  4.9485307665590028 1.266068480152605  4.9244339407675808 1.4972153953846385  4.9007874935716327 1.7452707022538385  4.8776726085540627 2.0088719571949527  4.8551186033338958 2.2869795970700126  4.8331139804837608 2.5790090609779259  4.8116560578615299 2.8842867413219753  4.7907376544498534 3.2021853710608132  4.7703522754049796 3.5321386396879055  4.7504916395736236 3.8735898780763121  4.7311465405562698 4.225998651414054  4.7185865082285421 4.4678968743829834  4.7123889803846843 4.5904982284630975 
 0.0127835509566243 4 0.013360450650761491 1 0.013937350344898682 1 0.014514250039035873 1 0.015091149733173064 1 0.015668049427310253 1 0.016244949121447444 1 0.016821848815584635 1 0.017398748509721826 1 0.017975648203859017 1 0.018552547897996208 1 0.019129447592133399 1 0.01970634728627059 1 0.020283246980407781 1 0.020860146674544972 1 0.021437046368682162 1 0.022013946062819353 1 0.022590845756956544 1 0.023167745451093735 1 0.023744645145230926 1 0.024321544839368117 1 0.024898444533505308 1 0.025475344227642499 4
7 0 0  3 25 23  5.7595865315812791 4.5904982284630584  5.7533806957371496 4.467731983394577  5.7408120115342181 4.2256605925940853  5.7214810641231786 3.8734536108144955  5.7016649106942534 3.5326589023591697  5.681357671056313 3.2038048674113906  5.6605545842047755 2.8874302636053515  5.6392522930714728 2.5840853827217791  5.6174489870971218 2.2943310639145187  5.5951445808072027 2.0187385342516966  5.5723409154775645 1.7578872589006496  5.5490418416331568 1.512369018579391  5.5252537453953323 1.2827681085590015  5.5009843867589723 1.0697298244012816  5.4762431938728033 0.87394955465476454  5.4510432983503714 0.69607203307379406  5.4254003421071202 0.53675934693092553  5.3993328621295884 0.39667058027803165  5.3728624619027361 0.27646408586701693  5.3460130232371714 0.17679862120695305  5.3188140653623464 0.098298931835624687  5.2912885437989914 0.041647086454984786  5.2636118392673721 0.0075797799390865507  5.2451743253339718 -2.1567357933745504e-05  5.235987755982987 -4.3620298475165486e-14 
 2.5223581241698801e-07 4 0.00058131126857659341 1 0.0011623703013407699 1 0.0017434293341049463 1 0.0023244883668691227 1 0.0029055473996332992 1 0.0034866064323974756 1 0.0040676654651616521 1 0.004648724497925829 1 0.0052297835306900058 1 0.0058108425634541818 1 0.0063919015962183579 1 0.0069729606289825347 1 0.0075540196617467116 1 0.0081350786945108867 1 0.0087161377272750636 1 0.0092971967600392405 1 0.0098782557928034174 1 0.010459314825567594 1 0.011040373858331769 1 0.011621432891095946 1 0.012202491923860123 1 0.0127835509566243 4
7 0 0  3 25 23  4.7123889803846941 4.5904982284630957  4.7185948162288254 4.4677319833946036  4.7311635004317543 4.2256605925940933  4.7504944478427964 3.8734536108144817  4.7703106012717198 3.5326589023591342  4.7906178409096603 3.2038048674113382  4.8114209277611977 2.8874302636052973  4.8327232188945004 2.5840853827217019  4.8545265248688496 2.2943310639144503  4.8768309311587714 2.0187385342516286  4.8996345964884096 1.7578872589005778  4.9229336703328173 1.512369018579329  4.9467217665706444 1.2827681085589526  4.9709911252070036 1.069729824401235  4.9957323180931752 0.87394955465471236  5.0209322136156072 0.69607203307375343  5.0465751698588583 0.53675934693086247  5.0726426498363892 0.39667058027797014  5.0991130500632389 0.27646408586696625  5.1259624887288053 0.17679862120685333  5.1531614466036322 0.098298931835513276  5.1806869681669836 0.04164708645487037  5.2083636726986073 0.0075797799390054325  5.2268011866320068 -2.1567357947694778e-05  5.2359877559829915 -7.6976997309115561e-15 
 2.5223581247494698e-07 4 0.00058131126857665792 1 0.0011623703013408408 1 0.0017434293341050237 1 0.0023244883668692069 1 0.0029055473996333898 1 0.0034866064323975728 1 0.0040676654651617553 1 0.0046487244979259382 1 0.0052297835306901212 1 0.0058108425634543041 1 0.0063919015962184871 1 0.00697296062898267 1 0.007554019661746853 1 0.0081350786945110359 1 0.0087161377272752198 1 0.0092971967600394018 1 0.0098782557928035839 1 0.010459314825567768 1 0.011040373858331952 1 0.011621432891096134 1 0.012202491923860316 1 0.0127835509566245 4
7 0 0  3 25 23  5.2359877559829915 -7.6976997309115561e-15  5.2451086590113967 -1.7727372505016781e-06  5.2633180378078412 0.0074574236900614857  5.2904974984316757 0.040674638460520392  5.3175044679198304 0.095568531274065713  5.3443030149203601 0.17175913783105215  5.3708588310082668 0.26884971663912427  5.3971396345853107 0.38642573830180327  5.4231152717259539 0.52405693279091092  5.4487580679142509 0.68130032417827979  5.474042240332162 0.85769681198404157  5.498946574890442 1.0527929240567515  5.5234447454069713 1.2660684801524744  5.5475415711983951 1.4972153953845027  5.5711880183943459 1.7452707022537133  5.5943029034119158 2.0088719571947657  5.6168569086320792 2.2869795970698381  5.6388615314822177 2.5790090609777674  5.6603194541044468 2.8842867413218132  5.6812378575161242 3.2021853710606618  5.7016232365609936 3.5321386396877537  5.7214838723923522 3.8735898780761793  5.7408289714097034 4.225998651413966  5.7533890037374276 4.4678968743829461  5.7595865315812844 4.5904982284630886 
 0.0127835509566245 4 0.013360450650761682 1 0.013937350344898864 1 0.014514250039036045 1 0.015091149733173227 1 0.015668049427310409 1 0.01624494912144759 1 0.016821848815584774 1 0.017398748509721954 1 0.017975648203859135 1 0.018552547897996319 1 0.019129447592133499 1 0.01970634728627068 1 0.020283246980407864 1 0.020860146674545044 1 0.021437046368682225 1 0.022013946062819409 1 0.022590845756956593 1 0.023167745451093773 1 0.023744645145230954 1 0.024321544839368138 1 0.024898444533505319 1 0.025475344227642499 4
7 0 0  3 25 23  4.1887902047863879 -7.6976997309115561e-15  4.1796693017579818 -1.7727372440496488e-06  4.1614599229615372 0.007457423690073778  4.1342804623377054 0.040674638460530377  4.1072734928495462 0.095568531274080104  4.0804749458490202 0.17175913783106847  4.0539191297611143 0.26884971663913992  4.0276383261840669 0.38642573830182725  4.0016626890434273 0.52405693279092991  3.9760198928551294 0.68130032417830544  3.9507357204372187 0.85769681198405923  3.9258313858789391 1.0527929240567766  3.9013332153624085 1.2660684801525028  3.8772363895709852 1.4972153953845162  3.8535899423750362 1.7452707022537071  3.8304750573574693 2.0088719571947995  3.8079210521373019 2.2869795970698861  3.7859164292871639 2.5790090609777776  3.7644585066649339 2.8842867413218167  3.7435401032532583 3.2021853710606387  3.7231547242083849 3.5321386396877328  3.7032940883770311 3.8735898780761451  3.6839489893596751 4.2259986514139412  3.6713889570319522 4.4678968743829373  3.6651914291880945 4.5904982284630895 
 0.0127835509566245 4 0.013360450650761677 1 0.013937350344898854 1 0.014514250039036031 1 0.015091149733173208 1 0.015668049427310385 1 0.016244949121447562 1 0.016821848815584739 1 0.017398748509721916 1 0.017975648203859093 1 0.01855254789799627 1 0.019129447592133447 1 0.019706347286270624 1 0.020283246980407801 1 0.020860146674544978 1 0.021437046368682156 1 0.022013946062819333 1 0.02259084575695651 1 0.023167745451093687 1 0.023744645145230864 1 0.024321544839368041 1 0.024898444533505218 1 0.025475344227642398 4
7 0 0  3 25 23  4.7123889803846843 4.5904982284630975  4.7061831445405549 4.4677319833946125  4.6936144603376233 4.2256605925941093  4.674283512926583 3.8734536108145021  4.6544673594976578 3.5326589023591568  4.6341601198597173 3.2038048674113795  4.6133570330081817 2.8874302636053355  4.5920547418748781 2.5840853827217334  4.5702514359005288 2.2943310639144916  4.547947029610607 2.0187385342516646  4.5251433642809689 1.7578872589006078  4.5018442904365621 1.5123690185793548  4.478056194198734 1.2827681085589739  4.4537868355623749 1.0697298244012508  4.429045642676205 0.87394955465472801  4.4038457471537713 0.6960720330737723  4.3782027909105228 0.53675934693089  4.3521353109329892 0.39667058027799934  4.3256649107061396 0.27646408586698146  4.2988154720405731 0.17679862120689488  4.2716165141657489 0.098298931835558434  4.2440909926023949 0.041647086454916493  4.2164142880707738 0.0075797799390383783  4.1979767741373717 -2.1567357934370113e-05  4.1887902047863879 -7.6976997309115561e-15 
 2.5223581248025999e-07 4 0.00058131126857666302 1 0.0011623703013408457 1 0.0017434293341050285 1 0.0023244883668692112 1 0.0029055473996333942 1 0.0034866064323975767 1 0.0040676654651617588 1 0.0046487244979259417 1 0.0052297835306901247 1 0.0058108425634543076 1 0.0063919015962184897 1 0.0069729606289826726 1 0.0075540196617468556 1 0.0081350786945110377 1 0.0087161377272752215 1 0.0092971967600394036 1 0.0098782557928035856 1 0.010459314825567769 1 0.011040373858331952 1 0.011621432891096135 1 0.012202491923860317 1 0.0127835509566245 4
7 0 0  3 25 23  5.7595865315812844 4.5904982284630886  5.765725946249562 4.4690475632995508  5.7781784028404299 4.2291468085880313  5.7973937678987557 3.8788422632054926  5.8171615394653413 3.5386241918552179  5.8374976961314182 3.2090498856016572  5.8584133377643397 2.890752010558773  5.8799336389083914 2.5841879125297882  5.9019589936024612 2.2915683850804789  5.9244866505320681 2.0134657905547311  5.9475007997339615 1.7506283731314285  5.9709865072336701 1.5037366941569024  5.9949214017226726 1.2735115254198839  6.0192944570953069 1.0605118269115579  6.0441024698460826 0.86520005754554152  6.0693255393266714 0.68818122050398667  6.0949448305594078 0.53001857145751796  6.1209380721040612 0.39127945206260994  6.147279688061456 0.27252496745030913  6.1739533443161152 0.17428583166575004  6.2009194781594008 0.097067649329403025  6.2281386704269623 0.041350859605398929  6.2555686734495994 0.0075906941441051092  6.2739661697711417 -2.6204432421024532e-06  6.2831853071795862 -3.9704753496687455e-31 
 0.016392772733308698 4 0.016973995347051372 1 0.017555217960794043 1 0.018136440574536717 1 0.018717663188279388 1 0.019298885802022062 1 0.019880108415764736 1 0.02046133102950741 1 0.02104255364325008 1 0.021623776256992751 1 0.022204998870735425 1 0.022786221484478099 1 0.023367444098220773 1 0.023948666711963443 1 0.024529889325706117 1 0.025111111939448788 1 0.025692334553191462 1 0.026273557166934136 1 0.026854779780676807 1 0.027436002394419481 1 0.028017225008162151 1 0.028598447621904825 1 0.029179670235647499 4
7 0 0  3 25 23  0 -3.9704753496687455e-31  0.0092152439128668391 -1.6252533526346631e-06  0.027599967460894652 0.007603186810151789  0.055002891346017574 0.041389182159764622  0.082194087620255971 0.097115835784788357  0.10913843160521995 0.17431950853563158  0.13580271567565974 0.27252199129042226  0.16215605588013329 0.39122985646164143  0.1881699941676227 0.52993717243207328  0.21381863240831717 0.68812686902050202  0.23907868604526625 0.86527441636732316  0.26392957457270733 1.0608436655274422  0.28835320364426614 1.2743115967969352  0.31233471939446794 1.505084965358841  0.33586270943620644 1.7525486236742058  0.3589253093233537 2.0161143262888239  0.38152461860684977 2.2953738492931959  0.40358637329262198 2.5888055850756548  0.42503189906490457 2.8946065200603264  0.44588634322823434 3.2121908888166462  0.46616490742737721 3.5410018573606368  0.48588083596922238 3.8804418291247216  0.50504900607937864 4.2299517172830434  0.517472954406625 4.4693164071976685  0.52359877559830093 4.5904982284630886 
 0.029179670235647499 4 0.029760647348480381 1 0.030341624461313263 1 0.030922601574146145 1 0.031503578686979027 1 0.032084555799811912 1 0.03266553291264479 1 0.033246510025477669 1 0.033827487138310554 1 0.034408464251143439 1 0.034989441363976317 1 0.035570418476809196 1 0.036151395589642081 1 0.036732372702474966 1 0.037313349815307845 1 0.037894326928140723 1 0.038475304040973608 1 0.039056281153806494 1 0.039637258266639372 1 0.04021823537947225 1 0.040799212492305136 1 0.041380189605138021 1 0.041961166717970899 4
7 0 0  3 25 23  3.1415926535897931 0  3.1323774096769252 -1.625253348810675e-06  3.1139926861288982 0.0076031868101640414  3.0865897622437775 0.041389182159789713  3.0593985659695364 0.097115835784823218  3.0324542219845734 0.17431950853567343  3.0057899379141348 0.27252199129046678  2.9794365977096589 0.39122985646170122  2.9534226594221691 0.52993717243212179  2.9277740211814764 0.68812686902055031  2.9025139675445257 0.86527441636738334  2.8776630790170854 1.0608436655274969  2.8532394499455265 1.2743115967969922  2.8292579341953275 1.5050849653588871  2.8057299441535832 1.7525486236742382  2.7826673442664376 2.0161143262888461  2.7600680349829427 2.2953738492932074  2.7380062802971712 2.5888055850756562  2.7165607545248904 2.8946065200603277  2.6957063103615555 3.2121908888166617  2.6754277461624154 3.5410018573606461  2.6557118176205705 3.8804418291247331  2.6365436475104151 4.2299517172830612  2.6241196991831686 4.4693164071976792  2.6179938779914917 4.5904982284630895 
 0.029179670235647499 4 0.029760647348480381 1 0.030341624461313263 1 0.030922601574146145 1 0.031503578686979027 1 0.032084555799811912 1 0.03266553291264479 1 0.033246510025477669 1 0.033827487138310554 1 0.034408464251143439 1 0.034989441363976317 1 0.035570418476809196 1 0.036151395589642081 1 0.036732372702474966 1 0.037313349815307845 1 0.037894326928140723 1 0.038475304040973608 1 0.039056281153806494 1 0.039637258266639372 1 0.04021823537947225 1 0.040799212492305136 1 0.041380189605138021 1 0.041961166717970899 4
7 0 0  3 25 23  3.6651914291880945 4.5904982284630895  3.6590520145198182 4.4690475632995463  3.6465995579289512 4.2291468085880251  3.627384192870621 3.878842263205494  3.607616421304038 3.5386241918552397  3.5872802646379585 3.2090498856016714  3.5663646230050396 2.8907520105587863  3.5448443218609902 2.5841879125297895  3.5228189671669168 2.2915683850804722  3.5002913102373108 2.0134657905547266  3.4772771610354156 1.7506283731314365  3.453791453535711 1.5037366941569168  3.4298565590467067 1.2735115254198983  3.4054835036740729 1.0605118269115736  3.380675490923295 0.86520005754556162  3.3554524214427048 0.68818122050401553  3.329833130209972 0.53001857145755304  3.3038398886653146 0.39127945206264825  3.2774982727079265 0.27252496745035337  3.2508246164532606 0.17428583166578202  3.2238584826099776 0.097067649329422218  3.1966392903424157 0.041350859605404439  3.1692092873197781 0.0075906941441007871  3.150811790998238 -2.6204432455136967e-06  3.1415926535897931 0 
 0.016392772733308698 4 0.016973995347051372 1 0.017555217960794043 1 0.018136440574536717 1 0.018717663188279388 1 0.019298885802022062 1 0.019880108415764736 1 0.02046133102950741 1 0.02104255364325008 1 0.021623776256992751 1 0.022204998870735425 1 0.022786221484478099 1 0.023367444098220773 1 0.023948666711963443 1 0.024529889325706117 1 0.025111111939448788 1 0.025692334553191462 1 0.026273557166934136 1 0.026854779780676807 1 0.027436002394419481 1 0.028017225008162151 1 0.028598447621904825 1 0.029179670235647499 4
1 9.4247779607693793 0 -1 0 
1 3.1415926535897931 0 -1 -2.4502539252234606e-15 
1 3.1415926535897931 -2.565899910303852e-15 -1 0 
1 3.1415926535897931 -7.6976997309115482e-15 -1 2.4502539252234512e-15 
1 9.4247779607693793 0 -1 0 
1 9.4247779607693793 0 -1 0 
1 6.2831853071795862 -15.478124999999968 -1 0 
1 0 0 1 -2.4502539252234606e-15 
1 6.2831853071795862 0 -1 0 
1 6.2831853071795862 2.5658999103038512e-15 -1 -2.45025392522345e-15 
1 6.283185307179588 -7.6976997309115908e-15 -1 2.4502539252234646e-15 
1 6.2831853071795845 7.697699730911564e-15 -1 -2.4502539252234563e-15 
1 6.283185307179588 0 -1 0 
1 6.2831853071795862 0 -1 0 
1 3.1415926535897931 31.356299999999909 0 1 
1 3.1415926535897931 31.356299999999909 0 1 
1 6.2831853071795862 27.787599999999909 -1 0 
1 6.204645490839841 0 0 1 
1 6.2831853071795862 34.924999999999912 -1 0 
1 6.2831853071795862 27.787599999999909 -1 0 
1 6.204645490839841 0 0 -1 
1 6.2831853071795862 34.924999999999912 -1 0 
1 3.1415926535897931 31.356299999999912 0 -1 
1 3.1415926535897931 31.356299999999912 0 -1 
1 6.2831853071795862 34.924999999999912 -1 0 
1 0.078539816339745105 0 0 -1 
1 6.2831853071795862 27.787599999999909 -1 0 
1 6.2831853071795862 34.924999999999912 -1 0 
1 0.078539816339745577 0 0 1 
1 6.2831853071795862 27.787599999999909 -1 0 
Curves 66
1 4.9008932251296304 0 -14.287500000000099 1 0 0 
2 20.379018225129599 0 0 1 0 0 0 0 -1 -0 1 0 14.287500000000099
1 4.9008932251296304 1.7497141142817899e-15 14.287500000000099 1 0 0 
2 4.9008932251296304 0 0 1 0 0 0 0 -1 -0 1 0 14.287500000000099
1 4.9008932251296304 12.3733379565703 21.431250000000102 1 0 0 
7 0 0  3 10 5  17.204018225129602 12.3733379565703 21.431250000000102  18.138044450315501 13.3486748858724 19.741916883950601  18.9285880344415 14.344157446311099 18.017690511222099  19.770537195000902 15.8856617053475 15.347726814487199  19.993330518567301 16.407619765936001 14.4436689341278  20.221810154094499 17.205399082324998 13.0618746249145  20.2803438179889 17.473800323754801 12.596990037943399  20.359107770887 18.0159807788636 11.6579059428243  20.379018225129499 18.289297715671498 11.184507121703801  20.379018225129599 18.560006934855299 10.715624999999999 
 2.5223581233802601e-07 4 0.0063919015962183396 2 0.0095877262764213402 2 0.011185638616522799 2 0.0127835509566243 4
7 0 0  3 10 5  20.379018225129599 18.560006934855299 10.715624999999999  20.379018225129499 19.6350926451959 8.8535219271989902  20.0647229904753 20.689405909938898 7.0273977855704102  19.360427806867801 21.986714669864998 4.78039310027419  19.2038215292601 22.2456856107984 4.3318422728935397  18.865042747496201 22.758026074679901 3.4444425586773799  18.682811885760099 23.011647736326299 3.00515695480571  18.102311451869301 23.7658030787453 1.6989215849366299  17.670405354136498 24.259661118474298 0.843534368399531  17.204018225129602 24.7466759131405 -1.90819582357449e-14 
 0.0127835509566243 4 0.019129447592133399 2 0.0207159217510107 2 0.0223023959098879 2 0.025475344227642499 4
1 4.9008932251296304 24.7466759131405 -1.6479873021779699e-14 1 0 0 
7 0 0  3 10 5  4.9008932251296304 18.560006934855299 10.715624999999999  4.9008932251297797 19.6350926451959 8.8535219271989902  5.2151884597839704 20.689405909938799 7.0273977855704004  5.9194836433915201 21.986714669864998 4.78039310027419  6.0760899209991601 22.2456856107984 4.33184227289353  6.41486870276304 22.758026074679901 3.4444425586773701  6.5970995644991399 23.011647736326299 3.00515695480571  7.1775999983899901 23.7658030787453 1.6989215849366299  7.6095060961227201 24.259661118474298 0.843534368399524  8.0758932251296294 24.7466759131405 -2.42861286636754e-14 
 0.0127835509566243 4 0.019129447592133399 2 0.0207159217510107 2 0.0223023959098879 2 0.025475344227642499 4
7 0 0  3 10 5  8.0758932251296294 12.3733379565703 21.431250000000102  7.1418669999437903 13.3486748858724 19.741916883950601  6.3513234158177996 14.344157446311099 18.017690511222099  5.5093742552583302 15.8856617053475 15.347726814487199  5.2865809316919599 16.407619765936001 14.4436689341278  5.0581012961647502 17.205399082324998 13.0618746249145  4.9995676322703897 17.473800323754801 12.596990037943399  4.9208036793722902 18.0159807788636 11.6579059428243  4.9008932251297797 18.289297715671498 11.184507121703801  4.9008932251296304 18.560006934855299 10.715624999999999 
 2.5223581234175401e-07 4 0.0063919015962183396 2 0.0095877262764213402 2 0.011185638616522799 2 0.0127835509566243 4
7 0 0  3 10 5  17.204018225129602 24.7466759131405 -1.90819582357449e-14  18.138044450315501 23.771338983838401 -1.68933311604948  18.9285880344415 22.775856423399699 -3.4135594887780498  19.770537195001001 21.234352164363301 -6.0835231855128997  19.993330518567301 20.712394103774699 -6.9875810658723196  20.221810154094499 19.914614787385698 -8.3693753750856192  20.2803438179889 19.646213545955899 -8.8342599620567199  20.359107770887 19.1040330908471 -9.7733440571758603  20.379018225129499 18.830716154039202 -10.2467428782964  20.379018225129599 18.560006934855299 -10.715625000000101 
 2.5223581234021501e-07 4 0.0063919015962183899 2 0.0095877262764214096 2 0.0111856386165229 2 0.012783550956624401 4
7 0 0  3 10 5  20.379018225129599 18.560006934855299 -10.715625000000101  20.379018225129499 17.4849212245148 -12.5777280728012  20.0647229904753 16.430607959771802 -14.403852214429699  19.360427806867801 15.1332991998457 -16.650856899725898  19.2038215292602 14.8743282589123 -17.099407727106598  18.8650427474963 14.361987795030799 -17.9868074413227  18.682811885760199 14.108366133384401 -18.426093045194399  18.102311451869301 13.3542107909654 -19.732328415063499  17.670405354136602 12.8603527512364 -20.587715631600499  17.204018225129602 12.3733379565703 -21.431250000000102 
 0.012783550956624401 4 0.019129447592133399 2 0.0207159217510107 2 0.022302395909888001 2 0.025475344227642398 4
1 4.9008932251296304 12.3733379565702 -21.431250000000102 1 0 0 
7 0 0  3 10 5  4.9008932251296304 18.560006934855299 -10.715625000000101  4.9008932251297299 17.4849212245148 -12.5777280728012  5.2151884597839198 16.430607959771802 -14.403852214429699  5.9194836433914597 15.1332991998457 -16.650856899725898  6.0760899209990997 14.8743282589123 -17.099407727106598  6.4148687027629796 14.361987795030799 -17.9868074413227  6.5970995644990804 14.108366133384401 -18.426093045194399  7.1775999983899199 13.3542107909654 -19.732328415063499  7.6095060961226499 12.8603527512364 -20.587715631600499  8.0758932251296294 12.3733379565703 -21.431250000000102 
 0.012783550956624401 4 0.019129447592133399 2 0.0207159217510107 2 0.0223023959098879 2 0.025475344227642398 4
7 0 0  3 10 5  8.0758932251296294 24.7466759131405 -2.42861286636754e-14  7.1418669999437796 23.771338983838401 -1.68933311604948  6.35132341581778 22.775856423399699 -3.4135594887780498  5.5093742552582903 21.234352164363301 -6.0835231855128997  5.2865809316919297 20.712394103774699 -6.9875810658723196  5.0581012961647103 19.914614787385698 -8.3693753750856192  4.9995676322703497 19.646213545955899 -8.8342599620567199  4.9208036793722503 19.1040330908471 -9.7733440571758603  4.9008932251297299 18.830716154039202 -10.2467428782964  4.9008932251296304 18.560006934855299 -10.715625000000101 
 2.5223581234486199e-07 4 0.0063919015962183899 2 0.0095877262764214096 2 0.0111856386165229 2 0.012783550956624401 4
7 0 0  3 10 5  17.204018225129602 -12.373337956570399 -21.431249999999999  17.666030256791402 -11.408445571087301 -21.431250000000102  18.0967846246131 -10.425008359919801 -21.431250000000102  18.873789947712499 -8.4079989990502302 -21.431250000000102  19.215237663027501 -7.3854729827057897 -21.431250000000102  19.777189027165299 -5.3208418314261099 -21.431250000000102  19.9983779875772 -4.2766655159754503 -21.431250000000102  20.2993739682842 -2.1602649446753999 -21.431250000000102  20.379018225129499 -1.0866612308047101 -21.431250000000102  20.379018225129599 6.00925839494867e-15 -21.431250000000102 
 0.016392772733308799 4 0.019589497108893499 2 0.022786221484478199 2 0.0259829458600629 2 0.0291796702356476 4
1 4.9008932251296304 -12.3733379565703 -21.431250000000102 1 0 0 
7 0 0  3 10 5  8.0758932251296294 -12.373337956570399 -21.431249999999999  7.6138811934678499 -11.408445571087301 -21.431250000000102  7.1831268256462097 -10.425008359919801 -21.431250000000102  6.4061215025467302 -8.4079989990502302 -21.431250000000102  6.0646737872317802 -7.3854729827057897 -21.431250000000102  5.50272242309397 -5.3208418314261001 -21.431250000000102  5.2815334626821002 -4.2766655159754503 -21.431250000000102  4.9805374819751096 -2.1602649446753901 -21.431250000000102  4.9008932251297299 -1.0866612308046999 -21.431250000000102  4.9008932251296304 6.00925839494867e-15 -21.431250000000102 
 0.016392772733308799 4 0.019589497108893499 2 0.022786221484478199 2 0.0259829458600629 2 0.0291796702356476 4
7 0 0  3 10 5  4.9008932251296304 6.00925839494867e-15 -21.431250000000102  4.9008932251297299 2.1724044783290002 -21.431250000000102  5.22092420694762 4.2861225974253001 -21.431250000000102  5.9250948101718102 6.8724994192812501 -21.431250000000102  6.0809811258663897 7.3870145554991797 -21.431250000000102  6.4201182248010404 8.4110268107310002 -21.431250000000102  6.6037295008950396 8.9213008057004206 -21.431250000000102  7.18516004068064 10.429606743811499 -21.431250000000102  7.6149040786396798 11.4105818230588 -21.431250000000102  8.0758932251296294 12.3733379565703 -21.431250000000102 
 0.0291796702356476 4 0.0355704184768093 2 0.037168105537099802 2 0.0387657925973902 2 0.041961166717971003 4
7 0 0  3 10 5  20.379018225129599 6.00925839494867e-15 -21.431250000000102  20.379018225129499 2.1724044783290002 -21.431250000000102  20.058987243311599 4.2861225974253001 -21.431250000000102  19.354816640087499 6.8724994192812501 -21.431250000000102  19.198930324392901 7.3870145554991797 -21.431250000000102  18.859793225458201 8.4110268107310002 -21.431250000000102  18.676181949364199 8.9213008057004206 -21.431250000000102  18.094751409578599 10.429606743811499 -21.431250000000102  17.665007371619598 11.4105818230588 -21.431250000000102  17.204018225129602 12.3733379565703 -21.431250000000102 
 0.0291796702356476 4 0.0355704184768093 2 0.037168105537099802 2 0.0387657925973902 2 0.041961166717971003 4
7 0 0  3 10 5  17.204018225129602 -12.373337956570399 -21.431249999999999  18.138044450315402 -13.3486748858725 -19.741916883950601  18.9285880344414 -14.3441574463112 -18.017690511222  19.770537195000902 -15.8856617053475 -15.347726814487199  19.993330518567198 -16.407619765936101 -14.4436689341278  20.221810154094399 -17.205399082324998 -13.0618746249145  20.2803438179888 -17.473800323754901 -12.596990037943399  20.359107770886901 -18.0159807788636 -11.6579059428243  20.3790182251294 -18.289297715671601 -11.184507121703801  20.379018225129599 -18.560006934855299 -10.715624999999999 
 2.5223581241698801e-07 4 0.00639190159621837 2 0.0095877262764213593 2 0.011185638616522799 2 0.0127835509566243 4
7 0 0  3 10 5  20.379018225129599 -18.560006934855299 -10.715624999999999  20.3790182251294 -19.635092645196 -8.8535219271990098  20.0647229904752 -20.689405909938898 -7.0273977855704199  19.360427806867701 -21.986714669864998 -4.7803931002741997  19.203821529260001 -22.2456856107985 -4.3318422728935504  18.865042747496201 -22.75802607468 -3.4444425586773799  18.682811885760099 -23.011647736326399 -3.00515695480571  18.102311451869198 -23.7658030787453 -1.6989215849366299  17.670405354136498 -24.259661118474401 -0.84353436839952001  17.204018225129602 -24.7466759131405 1.1449174941447e-13 
 0.0127835509566243 4 0.019129447592133399 2 0.0207159217510107 2 0.022302395909888001 2 0.025475344227642499 4
1 4.9008932251296304 -24.746675913140599 2.60208521396523e-15 1 0 0 
7 0 0  3 10 5  4.9008932251296304 -18.560006934855299 -10.715624999999999  4.90089322512984 -19.635092645196 -8.8535219271990098  5.2151884597840299 -20.689405909938898 -7.0273977855704199  5.9194836433915796 -21.986714669864998 -4.78039310027419  6.0760899209992196 -22.2456856107985 -4.33184227289353  6.4148687027631102 -22.75802607468 -3.4444425586773701  6.5970995644992101 -23.011647736326399 -3.00515695480571  7.1775999983900602 -23.7658030787454 -1.6989215849366199  7.6095060961227903 -24.259661118474401 -0.84353436839950902  8.0758932251296294 -24.7466759131405 1.2316536679435401e-13 
 0.0127835509566243 4 0.019129447592133399 2 0.0207159217510107 2 0.022302395909888001 2 0.025475344227642499 4
7 0 0  3 10 5  8.0758932251296294 -12.373337956570399 -21.431249999999999  7.1418669999438302 -13.3486748858725 -19.741916883950601  6.3513234158178404 -14.3441574463112 -18.017690511222  5.50937425525838 -15.8856617053475 -15.347726814487199  5.2865809316920203 -16.407619765936001 -14.4436689341278  5.0581012961648204 -17.205399082324998 -13.0618746249145  4.9995676322704599 -17.473800323754901 -12.596990037943399  4.9208036793723604 -18.0159807788636 -11.6579059428243  4.90089322512984 -18.289297715671601 -11.184507121703801  4.9008932251296304 -18.560006934855299 -10.715624999999999 
 2.5223581241698801e-07 4 0.00639190159621837 2 0.0095877262764213506 2 0.011185638616522799 2 0.0127835509566243 4
7 0 0  3 10 5  17.204018225129602 -24.7466759131405 1.1449174941447e-13  18.138044450315501 -23.771338983838401 1.6893331160495599  18.9285880344415 -22.775856423399699 3.4135594887781102  19.770537195000902 -21.234352164363301 6.0835231855129503  19.993330518567301 -20.712394103774798 6.9875810658723703  20.221810154094499 -19.914614787385801 8.3693753750856601  20.2803438179889 -19.646213545955899 8.8342599620567501  20.359107770887 -19.104033090847199 9.7733440571758905  20.379018225129499 -18.830716154039202 10.2467428782964  20.379018225129599 -18.560006934855299 10.715625000000101 
 2.5223581247494698e-07 4 0.0063919015962184697 2 0.0095877262764214807 2 0.011185638616523001 2 0.0127835509566245 4
7 0 0  3 10 5  20.379018225129599 -18.560006934855299 10.715625000000101  20.379018225129499 -17.4849212245148 12.5777280728012  20.0647229904753 -16.430607959771901 14.403852214429699  19.360427806867801 -15.1332991998458 16.650856899725898  19.2038215292601 -14.8743282589123 17.099407727106598  18.8650427474963 -14.361987795030799 17.9868074413227  18.682811885760199 -14.108366133384401 18.426093045194399  18.102311451869301 -13.354210790965499 19.732328415063499  17.670405354136602 -12.8603527512364 20.587715631600599  17.204018225129602 -12.3733379565703 21.431250000000102 
 0.0127835509566245 4 0.019129447592133499 2 0.0207159217510107 2 0.022302395909888001 2 0.025475344227642499 4
1 4.9008932251296304 -12.3733379565703 21.431250000000102 1 0 0 
7 0 0  3 10 5  4.9008932251296304 -18.560006934855299 10.715625000000101  4.9008932251297699 -17.4849212245148 12.5777280728012  5.2151884597839597 -16.430607959771901 14.403852214429699  5.9194836433914997 -15.1332991998458 16.650856899725898  6.0760899209991299 -14.8743282589123 17.099407727106598  6.4148687027630098 -14.361987795030901 17.9868074413227  6.5970995644991097 -14.108366133384401 18.426093045194399  7.1775999983899501 -13.354210790965499 19.732328415063499  7.6095060961226704 -12.8603527512364 20.587715631600499  8.0758932251296294 -12.3733379565703 21.431250000000102 
 0.0127835509566245 4 0.019129447592133499 2 0.0207159217510107 2 0.022302395909888001 2 0.025475344227642398 4
7 0 0  3 10 5  8.0758932251296294 -24.7466759131405 1.2316536679435401e-13  7.1418669999437903 -23.771338983838401 1.6893331160495699  6.3513234158177996 -22.775856423399699 3.41355948877812  5.5093742552583302 -21.234352164363301 6.0835231855129601  5.2865809316919696 -20.712394103774798 6.9875810658723703  5.05810129616476 -19.914614787385801 8.3693753750856601  4.9995676322703897 -19.646213545955899 8.8342599620567501  4.9208036793722902 -19.104033090847199 9.7733440571758905  4.9008932251297797 -18.830716154039202 10.2467428782964  4.9008932251296304 -18.560006934855299 10.715625000000101 
 2.5223581248025999e-07 4 0.0063919015962184801 2 0.0095877262764214807 2 0.011185638616523001 2 0.0127835509566245 4
7 0 0  3 10 5  17.204018225129602 -12.3733379565703 21.431250000000102  17.666030256791402 -11.408445571087199 21.431250000000102  18.0967846246131 -10.425008359919801 21.431250000000102  18.873789947712499 -8.4079989990502106 21.431250000000102  19.215237663027501 -7.3854729827057701 21.431250000000102  19.777189027165299 -5.3208418314260904 21.431250000000102  19.9983779875772 -4.2766655159754396 21.431250000000102  20.2993739682842 -2.1602649446753901 21.431250000000102  20.379018225129499 -1.0866612308047101 21.431250000000102  20.379018225129599 -3.0046291974743299e-15 21.431250000000102 
 0.016392772733308698 4 0.019589497108893399 2 0.022786221484478099 2 0.025982945860062799 2 0.029179670235647499 4
7 0 0  3 10 5  20.379018225129599 -3.0046291974743299e-15 21.431250000000102  20.379018225129599 2.17240447832899 21.431250000000102  20.058987243311702 4.2861225974252903 21.431250000000102  19.354816640087499 6.8724994192812501 21.431250000000102  19.198930324392901 7.38701455549917 21.431250000000102  18.859793225458201 8.4110268107309896 21.431250000000102  18.676181949364199 8.92130080570041 21.431250000000102  18.094751409578599 10.429606743811499 21.431250000000102  17.665007371619598 11.4105818230588 21.431250000000102  17.204018225129602 12.3733379565703 21.431250000000102 
 0.029179670235647499 4 0.035570418476809203 2 0.037168105537099601 2 0.038765792597389999 2 0.041961166717970899 4
7 0 0  3 10 5  4.9008932251296304 -3.0046291974743299e-15 21.431250000000102  4.9008932251297104 2.17240447832899 21.431250000000102  5.2209242069476103 4.2861225974253001 21.431250000000102  5.9250948101718004 6.8724994192812598 21.431250000000102  6.08098112586638 7.3870145554991904 21.431250000000102  6.4201182248010298 8.4110268107310109 21.431250000000102  6.6037295008950299 8.9213008057004295 21.431250000000102  7.1851600406806302 10.429606743811499 21.431250000000102  7.6149040786396798 11.4105818230588 21.431250000000102  8.0758932251296294 12.3733379565703 21.431250000000102 
 0.029179670235647499 4 0.035570418476809203 2 0.037168105537099601 2 0.038765792597389999 2 0.041961166717970899 4
7 0 0  3 10 5  8.0758932251296294 -12.3733379565703 21.431250000000102  7.6138811934678099 -11.408445571087199 21.431250000000102  7.1831268256461804 -10.425008359919801 21.431250000000102  6.4061215025467 -8.4079989990502 21.431250000000102  6.06467378723175 -7.3854729827057701 21.431250000000102  5.5027224230939504 -5.3208418314260904 21.431250000000102  5.2815334626820798 -4.2766655159754396 21.431250000000102  4.9805374819750901 -2.1602649446753901 21.431250000000102  4.9008932251297104 -1.0866612308047101 21.431250000000102  4.9008932251296304 -3.0046291974743299e-15 21.431250000000102 
 0.016392772733308698 4 0.019589497108893399 2 0.022786221484478099 2 0.025982945860062799 2 0.029179670235647499 4
2 20.379018225129599 0 0 1 0 0 0 0 -1 -0 1 0 21.431250000000102
2 20.379018225129599 0 0 1 0 0 0 0 -1 -0 1 0 21.431250000000102
2 20.379018225129599 0 0 1 0 0 0 0 -1 -0 1 0 21.431250000000102
2 20.379018225129599 0 0 1 0 0 0 0 -1 -0 1 0 21.431250000000102
2 20.379018225129599 0 0 1 0 0 0 0 -1 -0 1 0 21.431250000000102
2 20.379018225129599 0 0 1 0 0 0 0 -1 -0 1 0 21.431250000000102
2 20.379018225129599 0 0 1 0 0 0 0 -1 -0 1 0 14.287500000000099
2 4.9008932251296304 0 0 1 0 0 0 0 -1 -0 1 0 21.431250000000102
2 4.9008932251296304 0 0 -1 -0 -0 0 0 -1 0 -1 0 21.431250000000102
2 4.9008932251296304 0 0 -1 -0 -0 0 0 -1 0 -1 0 21.431250000000102
2 4.9008932251296304 0 0 -1 0 -0 0 1.7763568394002501e-15 -1 0 -1 -1.7763568394002501e-15 21.431250000000102
2 4.9008932251296304 0 0 -1 -0 0 0 -1.7763568394002501e-15 -1 0 -1 1.7763568394002501e-15 21.431250000000102
2 4.9008932251296304 0 0 -1 0 -0 0 1.7763568394002501e-15 -1 0 -1 -1.7763568394002501e-15 21.431250000000102
2 4.9008932251296304 0 0 1 0 0 0 0 -1 -0 1 0 14.287500000000099
1 23.947718225129599 -2.8585496274734201e-15 -23.342600000000001 1 0 0 
2 20.379018225129599 0 0 -1 0 0 0 0 1 0 1 -0 23.342600000000001
1 -7.40858177487031 1.83143928793681 23.270642554398901 1 0 0 
2 27.516418225129598 0 0 -1 0 0 0 0 1 0 1 -0 23.342600000000001
2 20.379018225129599 0 0 -1 0 0 0 0 1 0 1 -0 14.5288
1 -7.40858177487031 1.13991651001072 14.484012558341901 -1 -0 -0 
2 27.516418225129598 0 0 -1 0 0 0 0 1 0 1 -0 14.5288
1 23.947718225129599 -1.77920607934146e-15 -14.5288 -1 -0 -0 
2 27.516418225129598 0 0 -1 0 0 0 0 1 0 1 -0 14.5288
1 -7.40858177487031 -1.13991651001072 14.484012558341901 -1 -0 -0 
2 20.379018225129599 0 0 -1 0 0 0 0 1 0 1 -0 14.5288
1 27.516418225129598 0 0 0 0.078459095727845582 0.99691733373312785 
1 27.516418225129598 0 0 0 -0.078459095727845582 0.99691733373312785 
2 27.516418225129598 0 0 -1 0 0 0 0 1 0 1 -0 23.342600000000001
1 -7.40858177487031 -1.83143928793681 23.270642554398901 1 0 0 
2 20.379018225129599 0 0 -1 0 0 0 0 1 0 1 -0 23.342600000000001
1 20.379018225129599 0.14369307041197199 1.8257935718240601 0 0.078459095727845582 0.99691733373312785 
1 20.379018225129599 0.14369307041197199 -1.8257935718240601 0 -0.078459095727845582 0.99691733373312785 
Polygon3D 0
PolygonOnTriangulations 0
Surfaces 30
2 4.9008932251296304 0 0 -1 0 -0 0 0 -1 0 -1 -0 14.287500000000099
2 4.9008932251296304 0 0 -1 0 -0 0 0 -1 0 -1 -0 14.287500000000099
1 20.379018225129599 2.6020852139652201e-14 42.862500000000097 1 0 0 -0 1 0 0 -0 1 
1 4.9008932251296304 2.6020852139652201e-14 42.862500000000097 1 0 0 -0 1 0 0 -0 1 
1 4.9008932251296304 24.7466759131405 -1.6479873021779699e-14 0 0.86602540378443882 0.49999999999999989 1 0 -0 -0 0.49999999999999989 -0.86602540378443882 
1 4.9008932251296304 12.3733379565703 21.431250000000102 0 -1.4019850440241801e-16 1 0 -1 -1.4019850440241801e-16 1 0 0 
3 20.379018225129599 0 0 -1 0 -0 0 0 1 0 1 -0 21.431250000000102
0.80703064323313101
3 20.379018225129599 0 0 -1 0 -0 0 0 1 0 1 -0 21.431250000000102
0.80703064323313101
1 4.9008932251296304 12.3733379565702 -21.431250000000102 0 0.86602540378443771 -0.50000000000000178 -1 0 0 0 0.50000000000000178 0.86602540378443771 
3 4.9008932251296304 0 0 1 -0 0 0 0 -1 0 1 0 21.431250000000102
0.80703064323313101
3 4.9008932251296304 0 0 1 -0 0 0 0 -1 0 1 0 21.431250000000102
0.80703064323313101
3 20.379018225129599 0 0 -1 0 -0 0 0 1 0 1 -0 21.431250000000102
0.80703064323313101
1 4.9008932251296304 12.3733379565702 -21.431250000000102 0 -2.8039700880483498e-16 1 0 -1 -2.8039700880483498e-16 1 0 0 
3 4.9008932251296304 0 0 1 -0 0 0 0 -1 0 1 0 21.431250000000102
0.80703064323313101
3 20.379018225129599 0 0 -1 0 -0 0 0 1 0 1 -0 21.431250000000102
0.80703064323313101
1 4.9008932251296304 -24.746675913140599 2.60208521396523e-15 0 -0.86602540378443882 -0.49999999999999989 0 0.49999999999999989 -0.86602540378443882 1 0 0 
3 4.9008932251296304 0 0 1 -0 0 0 0 -1 0 1 0 21.431250000000102
0.80703064323313101
3 20.379018225129599 0 0 -1 0 -0 0 0 1 0 1 -0 21.431250000000102
0.80703064323313101
1 4.9008932251296304 -12.3733379565703 21.431250000000102 0 -0.86602540378443771 0.50000000000000178 -1 0 0 -0 -0.50000000000000178 -0.86602540378443771 
3 4.9008932251296304 0 0 1 -0 0 0 0 -1 0 1 0 21.431250000000102
0.80703064323313101
3 20.379018225129599 0 0 -1 0 -0 0 0 1 0 1 -0 21.431250000000102
0.80703064323313101
3 4.9008932251296304 0 0 1 -0 0 0 0 -1 0 1 0 21.431250000000102
0.80703064323313101
2 -7.40858177487031 0 0 1 0 -0 0 0 1 0 -1 0 23.342600000000001
2 -7.40858177487031 0 0 1 0 -0 0 0 1 0 -1 0 23.342600000000001
1 20.379018225129599 23.342600000000001 0 1 0 0 -0 1 0 0 -0 1 
1 20.379018225129599 0 0 0 0.99691733373312796 -0.078459095727845596 -1 0 0 0 0.078459095727845596 0.99691733373312796 
1 27.516418225129598 14.5288 0 -1 0 0 0 0 1 0 1 -0 
2 -7.40858177487031 0 0 1 0 -0 0 0 1 0 -1 0 14.5288
2 -7.40858177487031 0 0 1 0 -0 0 0 1 0 -1 0 14.5288
1 20.379018225129599 0 0 -0 0.99691733373312796 0.078459095727845596 1 0 0 0 0.078459095727845596 -0.99691733373312796 
Triangulations 0

TShapes 173
Ve
1e-07
4.90089322512963 0 -14.2875000000001
0 0

0101101
*
Ve
1e-07
20.3790182251296 0 -14.2875000000001
0 0

0101101
*
Ed
 1e-07 1 1 0
1  1 0 0 15.478125
2  1 1 0 0 15.478125
2  2 2 0 0 15.478125
4 CN 1 0 2 0
0

0101000
+173 0 -172 0 *
Ve
1e-07
20.3790182251296 1.74971411428178e-15 14.2875
0 0

0101101
*
Ed
 1e-07 1 1 0
1  2 0 3.14159265358979 6.28318530717959
2  3 1 0 3.14159265358979 6.28318530717959
4 C0 1 0 3 0
0

0101000
+170 0 -172 0 *
Ve
1e-07
4.90089322512963 1.74971411428178e-15 14.2875
0 0

0101101
*
Ed
 1e-07 1 1 0
1  3 0 0 15.478125
2  4 1 0 0 15.478125
2  5 2 0 0 15.478125
4 CN 1 0 2 0
0

0101000
+168 0 -170 0 *
Ed
 1e-07 1 1 0
1  4 0 3.14159265358979 6.28318530717959
2  6 1 0 3.14159265358979 6.28318530717959
4 C0 1 0 4 0
0

0101000
+168 0 -173 0 *
Wi

0101100
+171 0 -169 0 -167 0 +166 0 *
Fa
0  1e-07 1 0

0111000
+165 0 *
Ve
0.000426709455713685
8.07589322512963 12.3733379565703 21.4312500000001
0 0

0101101
*
Ve
0.000426709455666191
17.2040182251296 12.3733379565703 21.4312500000001
0 0

0101101
*
Ed
 1e-07 1 1 0
1  5 0 3.175 12.303125
4 C0 5 0 6 0
0

0101000
+163 0 -162 0 *
Ve
0.000528748313113505
20.3790182251296 18.5600069348553 10.715625
0 0

0101101
*
Ed
 0.00036569816779612 1 1 0
1  6 0 2.52235812338026e-07 0.0127835509566243
2  7 7 0 2.52235812338026e-07 0.0127835509566243
4 C0 5 0 7 0
0

0101000
-160 0 +162 0 *
Ve
0.000528748313113505
17.2040182251296 24.7466759131405 -1.90819582357449e-14
0 0

0101101
*
Ed
 0.000528748313113505 1 1 0
1  7 0 0.0127835509566243 0.0254753442276425
2  8 8 0 0.0127835509566243 0.0254753442276425
4 C0 5 0 8 0
0

0101000
+160 0 -158 0 *
Ve
0.000528748313168018
8.07589322512963 24.7466759131405 -2.42861286636754e-14
0 0

0101101
*
Ed
 1e-07 1 1 0
1  8 0 3.175 12.303125
4 C0 5 0 9 0
0

0101000
+156 0 -158 0 *
Ve
0.000528748313168018
4.90089322512963 18.5600069348553 10.715625
0 0

0101101
*
Ed
 0.000528748313168018 1 1 0
1  9 0 0.0127835509566243 0.0254753442276425
2  9 10 0 0.0127835509566243 0.0254753442276425
4 C0 5 0 10 0
0

0101000
+154 0 -156 0 *
Ed
 0.00036569816775845 1 1 0
1  10 0 2.52235812341754e-07 0.0127835509566243
2  10 11 0 2.52235812341754e-07 0.0127835509566243
4 C0 5 0 11 0
0

0101000
+163 0 -154 0 *
Wi

0101100
+161 0 +159 0 +157 0 -155 0 -153 0 -152 0 *
Fa
0  1e-07 5 0

0101000
+151 0 *
Ve
0.000528748313151926
20.3790182251296 18.5600069348553 -10.7156250000001
0 0

0101101
*
Ed
 0.000365698167810659 1 1 0
1  11 0 2.52235812340215e-07 0.0127835509566244
2  11 8 0 2.52235812340215e-07 0.0127835509566244
4 C0 9 0 8 0
0

0101000
-149 0 +158 0 *
Ve
0.000528748313151926
17.2040182251296 12.3733379565703 -21.4312500000001
0 0

0101101
*
Ed
 0.000528748313151926 1 1 0
1  12 0 0.0127835509566244 0.0254753442276424
2  12 12 0 0.0127835509566244 0.0254753442276424
4 C0 9 0 12 0
0

0101000
+149 0 -147 0 *
Ve
0.000528748313149982
8.07589322512963 12.3733379565703 -21.4312500000001
0 0

0101101
*
Ed
 1e-07 1 1 0
1  13 0 3.175 12.303125
4 C0 9 0 13 0
0

0101000
+145 0 -147 0 *
Ve
0.000528748313149982
4.90089322512963 18.5600069348553 -10.7156250000001
0 0

0101101
*
Ed
 0.000528748313149982 1 1 0
1  14 0 0.0127835509566244 0.0254753442276424
2  13 14 0 0.0127835509566244 0.0254753442276424
4 C0 9 0 14 0
0

0101000
+143 0 -145 0 *
Ed
 0.000365698167778881 1 1 0
1  15 0 2.52235812344862e-07 0.0127835509566244
2  14 10 0 2.52235812344862e-07 0.0127835509566244
4 C0 9 0 10 0
0

0101000
+156 0 -143 0 *
Wi

0101100
+155 0 +148 0 +146 0 -144 0 -142 0 -141 0 *
Fa
0  1e-07 9 0

0101000
+140 0 *
Ve
0.0003656981677505
17.2040182251296 -12.3733379565704 -21.43125
0 0

0101101
*
Ve
0.000426709455720574
20.3790182251296 6.00925839494867e-15 -21.4312500000001
0 0

0101101
*
Ed
 6.34961157966175e-05 1 1 0
1  16 0 0.0163927727333088 0.0291796702356476
2  15 15 0 0.0163927727333088 0.0291796702356476
4 C0 13 0 15 0
0

0101000
+138 0 -137 0 *
Ve
0.000365698167743425
8.07589322512963 -12.3733379565704 -21.43125
0 0

0101101
*
Ed
 1e-07 1 1 0
1  17 0 3.175 12.303125
4 C0 13 0 16 0
0

0101000
+135 0 -138 0 *
Ve
0.000426709455720301
4.90089322512963 6.00925839494867e-15 -21.4312500000001
0 0

0101101
*
Ed
 6.34961158308063e-05 1 1 0
1  18 0 0.0163927727333088 0.0291796702356476
2  16 17 0 0.0163927727333088 0.0291796702356476
4 C0 13 0 17 0
0

0101000
+135 0 -133 0 *
Ed
 0.000426709455720301 1 1 0
1  19 0 0.0291796702356476 0.041961166717971
2  17 14 0 0.0291796702356476 0.041961166717971
4 C0 13 0 14 0
0

0101000
+133 0 -145 0 *
Ed
 0.000426709455720574 1 1 0
1  20 0 0.0291796702356476 0.041961166717971
2  18 12 0 0.0291796702356476 0.041961166717971
4 C0 13 0 12 0
0

0101000
+137 0 -147 0 *
Wi

0101100
-136 0 -134 0 +132 0 +131 0 +144 0 -130 0 *
Fa
0  1e-07 13 0

0101000
-129 0 *
Ve
0.000528748313144927
20.3790182251296 -18.5600069348553 -10.715625
0 0

0101101
*
Ed
 0.0003656981677505 1 1 0
1  21 0 2.52235812416988e-07 0.0127835509566243
2  19 15 0 2.52235812416988e-07 0.0127835509566243
4 C0 16 0 15 0
0

0101000
-127 0 +138 0 *
Ve
0.000528748313144927
17.2040182251296 -24.7466759131405 1.1449174941447e-13
0 0

0101101
*
Ed
 0.000528748313144927 1 1 0
1  22 0 0.0127835509566243 0.0254753442276425
2  20 18 0 0.0127835509566243 0.0254753442276425
4 C0 16 0 18 0
0

0101000
+127 0 -125 0 *
Ve
0.000528748313152283
8.07589322512963 -24.7466759131405 1.23165366794354e-13
0 0

0101101
*
Ed
 1e-07 1 1 0
1  23 0 3.175 12.303125
4 C0 16 0 19 0
0

0101000
+123 0 -125 0 *
Ve
0.000528748313152283
4.90089322512963 -18.5600069348553 -10.715625
0 0

0101101
*
Ed
 0.000528748313152283 1 1 0
1  24 0 0.0127835509566243 0.0254753442276425
2  21 20 0 0.0127835509566243 0.0254753442276425
4 C0 16 0 20 0
0

0101000
+121 0 -123 0 *
Ed
 0.000365698167743425 1 1 0
1  25 0 2.52235812416988e-07 0.0127835509566243
2  22 17 0 2.52235812416988e-07 0.0127835509566243
4 C0 16 0 17 0
0

0101000
+135 0 -121 0 *
Wi

0101100
+134 0 +126 0 +124 0 -122 0 -120 0 -119 0 *
Fa
0  1e-07 16 0

0101000
+118 0 *
Ve
0.000528748313128187
20.3790182251296 -18.5600069348553 10.7156250000001
0 0

0101101
*
Ed
 0.000365698167810901 1 1 0
1  26 0 2.52235812474947e-07 0.0127835509566245
2  23 18 0 2.52235812474947e-07 0.0127835509566245
4 C0 19 0 18 0
0

0101000
-116 0 +125 0 *
Ve
0.000528748313128187
17.2040182251296 -12.3733379565703 21.4312500000001
0 0

0101101
*
Ed
 0.000528748313128187 1 1 0
1  27 0 0.0127835509566245 0.0254753442276425
2  24 21 0 0.0127835509566245 0.0254753442276425
4 C0 19 0 21 0
0

0101000
+116 0 -114 0 *
Ve
0.000528748313152898
8.07589322512963 -12.3733379565703 21.4312500000001
0 0

0101101
*
Ed
 1e-07 1 1 0
1  28 0 3.175 12.303125
4 C0 19 0 6 0
0

0101000
+112 0 -114 0 *
Ve
0.000528748313152898
4.90089322512963 -18.5600069348553 10.7156250000001
0 0

0101101
*
Ed
 0.000528748313152898 1 1 0
1  29 0 0.0127835509566245 0.0254753442276424
2  25 22 0 0.0127835509566245 0.0254753442276424
4 C0 19 0 22 0
0

0101000
+110 0 -112 0 *
Ed
 0.000365698167773565 1 1 0
1  30 0 2.5223581248026e-07 0.0127835509566245
2  26 20 0 2.5223581248026e-07 0.0127835509566245
4 C0 19 0 20 0
0

0101000
+123 0 -110 0 *
Wi

0101100
+122 0 +115 0 +113 0 -111 0 -109 0 -108 0 *
Fa
0  1e-07 19 0

0101000
+107 0 *
Ve
0.000426709455666191
20.3790182251296 -3.00462919747433e-15 21.4312500000001
0 0

0101101
*
Ed
 6.34961157961615e-05 1 1 0
1  31 0 0.0163927727333087 0.0291796702356475
2  27 21 0 0.0163927727333087 0.0291796702356475
4 C0 6 0 21 0
0

0101000
+114 0 -105 0 *
Ed
 0.000426709455666191 1 1 0
1  32 0 0.0291796702356475 0.0419611667179709
2  28 7 0 0.0291796702356475 0.0419611667179709
4 C0 6 0 7 0
0

0101000
+105 0 -162 0 *
Ve
0.000426709455713685
4.90089322512963 -3.00462919747433e-15 21.4312500000001
0 0

0101101
*
Ed
 0.000426709455713685 1 1 0
1  33 0 0.0291796702356475 0.0419611667179709
2  29 11 0 0.0291796702356475 0.0419611667179709
4 C0 6 0 11 0
0

0101000
+102 0 -163 0 *
Ed
 6.34961158165779e-05 1 1 0
1  34 0 0.0163927727333087 0.0291796702356475
2  30 22 0 0.0163927727333087 0.0291796702356475
4 C0 6 0 22 0
0

0101000
+112 0 -102 0 *
Wi

0101100
+111 0 +104 0 +103 0 -161 0 -101 0 -100 0 *
Fa
0  1e-07 6 0

0101000
+99 0 *
Ed
 3.27235143108685e-07 1 1 0
1  35 0 5.23598775598299 6.28318530717959
2  31 15 0 5.23598775598299 6.28318530717959
4 C0 3 0 15 0
0

0101000
-137 0 +127 0 *
Ed
 1e-07 1 1 0
1  36 0 0 1.04719755119659
2  32 12 0 0 1.04719755119659
4 C0 3 0 12 0
0

0101000
+137 0 -149 0 *
Ed
 3.27235101907074e-07 1 1 0
1  37 0 1.04719755119659 2.09439510239319
2  33 8 0 1.04719755119659 2.09439510239319
4 C0 3 0 8 0
0

0101000
-160 0 +149 0 *
Ed
 3.27235129764705e-07 1 1 0
1  38 0 2.09439510239319 3.14159265358979
2  34 7 0 2.09439510239319 3.14159265358979
4 C0 3 0 7 0
0

0101000
-105 0 +160 0 *
Ed
 1e-07 1 1 0
1  39 0 3.14159265358979 4.18879020478639
2  35 21 0 3.14159265358979 4.18879020478639
4 C0 3 0 21 0
0

0101000
+105 0 -116 0 *
Ed
 3.27235102204348e-07 1 1 0
1  40 0 4.18879020478639 5.23598775598299
2  36 18 0 4.18879020478639 5.23598775598299
4 C0 3 0 18 0
0

0101000
-127 0 +116 0 *
Wi

0101100
+97 0 +96 0 +95 0 +94 0 +93 0 +92 0 *
Ed
 1e-07 1 1 0
1  41 0 0 3.14159265358979
2  37 2 0 0 3.14159265358979
4 C0 3 0 2 0
0

0101000
+172 0 -170 0 *
Wi

0101100
-90 0 -169 0 *
Fa
0  1e-07 3 0

0101000
+91 0 +89 0 *
Ed
 1e-07 1 1 0
1  42 0 0 1.04719755119659
2  38 14 0 0 1.04719755119659
4 C0 4 0 14 0
0

0101000
+133 0 -143 0 *
Ed
 3.27235129579878e-07 1 1 0
1  43 0 0 1.0471975511966
2  39 17 0 0 1.0471975511966
4 C0 4 0 17 0
0

0101000
-121 0 +133 0 *
Ed
 3.27235100434916e-07 1 1 0
1  44 0 1.0471975511966 2.0943951023932
2  40 20 0 1.0471975511966 2.0943951023932
4 C0 4 0 20 0
0

0101000
-110 0 +121 0 *
Ed
 1e-07 1 1 0
1  45 0 2.0943951023932 3.14159265358979
2  41 22 0 2.0943951023932 3.14159265358979
4 C0 4 0 22 0
0

0101000
+110 0 -102 0 *
Ed
 3.27235134109864e-07 1 1 0
1  46 0 3.14159265358979 4.18879020478639
2  42 11 0 3.14159265358979 4.18879020478639
4 C0 4 0 11 0
0

0101000
-154 0 +102 0 *
Ed
 3.27235106750783e-07 1 1 0
1  47 0 4.18879020478639 5.23598775598299
2  43 10 0 4.18879020478639 5.23598775598299
4 C0 4 0 10 0
0

0101000
-143 0 +154 0 *
Wi

0101100
-87 0 +86 0 +85 0 +84 0 +83 0 +82 0 *
Ed
 1e-07 1 1 0
1  48 0 0 3.14159265358979
2  44 2 0 0 3.14159265358979
4 C0 4 0 2 0
0

0101000
+173 0 -168 0 *
Wi

0101100
+80 0 +166 0 *
Fa
0  1e-07 4 0

0101000
-81 0 -79 0 *
Wi

0101100
-90 0 -171 0 +80 0 +167 0 *
Fa
0  1e-07 2 0

0111000
+77 0 *
Wi

0101100
+142 0 -131 0 +87 0 *
Fa
0  1e-07 14 0

0101000
+75 0 *
Wi

0101100
+153 0 +141 0 -82 0 *
Fa
0  1e-07 10 0

0101000
+73 0 *
Wi

0101100
+152 0 -83 0 +101 0 *
Fa
0  1e-07 11 0

0111000
+71 0 *
Wi

0101100
+109 0 +100 0 -84 0 *
Fa
0  1e-07 22 0

0101000
+69 0 *
Wi

0101100
+120 0 +108 0 -85 0 *
Fa
0  1e-07 20 0

0101000
+67 0 *
Wi

0101100
+119 0 -86 0 -132 0 *
Fa
0  1e-07 17 0

0111000
+65 0 *
Wi

0101100
+136 0 -97 0 -126 0 *
Fa
0  1e-07 15 0

0101000
+63 0 *
Wi

0101100
-92 0 -115 0 -124 0 *
Fa
0  1e-07 18 0

0111000
+61 0 *
Wi

0101100
-93 0 -104 0 -113 0 *
Fa
0  1e-07 21 0

0101000
+59 0 *
Wi

0101100
-103 0 -94 0 -159 0 *
Fa
0  1e-07 7 0

0101000
+57 0 *
Wi

0101100
-95 0 -148 0 -157 0 *
Fa
0  1e-07 8 0

0111000
+55 0 *
Wi

0101100
-96 0 +130 0 -146 0 *
Fa
0  1e-07 12 0

0111000
+53 0 *
Sh

0101100
-164 0 +150 0 +139 0 -128 0 +117 0 +106 0 +98 0 +88 0 -78 0 -76 0 
+74 0 +72 0 +70 0 +68 0 +66 0 +64 0 +62 0 +60 0 +58 0 +56 0 
+54 0 +52 0 *
So

0100000
+51 0 *
Ve
1e-07
20.3790182251296 -2.85854962747342e-15 -23.3426
0 0

0101101
*
Ve
1e-07
27.5164182251296 -2.85854962747342e-15 -23.3426
0 0

0101101
*
Ed
 1e-07 1 1 0
1  49 0 -3.5687 3.5687
2  45 23 0 -3.5687 3.5687
2  46 24 0 -3.5687 3.5687
4 CN 23 0 24 0
0

0101000
+49 0 -48 0 *
Ve
1e-07
20.3790182251296 1.83143928793681 23.2706425543989
0 0

0101101
*
Ed
 1e-07 1 1 0
1  50 0 0.0785398163397456 3.14159265358979
2  47 23 0 0.0785398163397456 3.14159265358979
4 C0 23 0 25 0
0

0101000
+46 0 -49 0 *
Ve
1e-07
27.5164182251296 1.83143928793681 23.2706425543989
0 0

0101101
*
Ed
 1e-07 1 1 0
1  51 0 27.7875999999999 34.9249999999999
2  48 23 0 27.7875999999999 34.9249999999999
4 C0 23 0 26 0
0

0101000
+46 0 -44 0 *
Ed
 1e-07 1 1 0
1  52 0 0.0785398163397456 3.14159265358979
2  49 23 0 0.0785398163397456 3.14159265358979
4 C0 23 0 27 0
0

0101000
+44 0 -48 0 *
Wi

0101100
-47 0 -45 0 +43 0 +42 0 *
Fa
0  1e-07 23 0

0111000
+41 0 *
Ve
1e-07
20.3790182251296 1.13991651001072 14.4840125583419
0 0

0101101
*
Ve
1e-07
20.3790182251296 -1.77920607934146e-15 -14.5288
0 0

0101101
*
Ed
 1e-07 1 1 0
1  53 0 0.0785398163397451 3.14159265358979
2  50 28 0 0.0785398163397451 3.14159265358979
4 C0 28 0 25 0
0

0101000
+39 0 -38 0 *
Ve
1e-07
27.5164182251296 1.13991651001072 14.4840125583419
0 0

0101101
*
Ed
 1e-07 1 1 0
1  54 0 -34.9249999999999 -27.7875999999999
2  51 28 0 -34.9249999999999 -27.7875999999999
4 C0 28 0 26 0
0

0101000
+36 0 -39 0 *
Ve
1e-07
27.5164182251296 -1.77920607934146e-15 -14.5288
0 0

0101101
*
Ed
 1e-07 1 1 0
1  55 0 0.0785398163397451 3.14159265358979
2  52 28 0 0.0785398163397451 3.14159265358979
4 C0 28 0 27 0
0

0101000
+36 0 -34 0 *
Ed
 1e-07 1 1 0
1  56 0 -3.5687 3.5687
2  53 28 0 -3.5687 3.5687
2  54 29 0 -3.5687 3.5687
4 CN 28 0 29 0
0

0101000
+34 0 -38 0 *
Wi

0101100
-37 0 -35 0 +33 0 +32 0 *
Fa
0  1e-07 28 0

0111000
+31 0 *
Ve
1e-07
27.5164182251296 -1.13991651001072 14.4840125583419
0 0

0101101
*
Ed
 1e-07 1 1 0
1  57 0 3.14159265358979 6.20464549083984
2  55 29 0 3.14159265358979 6.20464549083984
4 C0 29 0 27 0
0

0101000
+34 0 -29 0 *
Ve
1e-07
20.3790182251296 -1.13991651001072 14.4840125583419
0 0

0101101
*
Ed
 1e-07 1 1 0
1  58 0 -34.9249999999999 -27.7875999999999
2  56 29 0 -34.9249999999999 -27.7875999999999
4 C0 29 0 30 0
0

0101000
+29 0 -27 0 *
Ed
 1e-07 1 1 0
1  59 0 3.14159265358979 6.20464549083984
2  57 29 0 3.14159265358979 6.20464549083984
4 C0 29 0 25 0
0

0101000
+38 0 -27 0 *
Wi

0101100
+28 0 +26 0 -25 0 -32 0 *
Fa
0  1e-07 29 0

0111000
+24 0 *
Ed
 1e-07 1 1 0
1  60 0 14.5288 23.3426
4 C0 27 0 26 0
0

0101000
+36 0 -44 0 *
Ve
1e-07
27.5164182251296 -1.83143928793681 23.2706425543989
0 0

0101101
*
Ed
 1e-07 1 1 0
1  61 0 14.5288 23.3426
4 C0 27 0 30 0
0

0101000
+29 0 -21 0 *
Ed
 1e-07 1 1 0
1  62 0 3.14159265358979 6.20464549083984
2  58 24 0 3.14159265358979 6.20464549083984
4 C0 27 0 24 0
0

0101000
+48 0 -21 0 *
Wi

0101100
-42 0 -22 0 +33 0 +28 0 +20 0 -19 0 *
Fa
0  1e-07 27 0

0111000
-18 0 *
Ve
1e-07
20.3790182251296 -1.83143928793681 23.2706425543989
0 0

0101101
*
Ed
 1e-07 1 1 0
1  63 0 27.7875999999999 34.9249999999999
2  59 24 0 27.7875999999999 34.9249999999999
4 C0 24 0 30 0
0

0101000
+16 0 -21 0 *
Ed
 1e-07 1 1 0
1  64 0 3.14159265358979 6.20464549083984
2  60 24 0 3.14159265358979 6.20464549083984
4 C0 24 0 25 0
0

0101000
+49 0 -16 0 *
Wi

0101100
+47 0 +19 0 -15 0 -14 0 *
Fa
0  1e-07 24 0

0111000
+13 0 *
Ed
 1e-07 1 1 0
1  65 0 12.6973607120632 21.5111607120632
4 C0 25 0 26 0
0

0101000
+39 0 -46 0 *
Ed
 1e-07 1 1 0
1  66 0 16.3602392879368 25.1740392879368
4 C0 25 0 30 0
0

0101000
+27 0 -16 0 *
Wi

0101100
-37 0 +11 0 +45 0 +14 0 -10 0 -25 0 *
Fa
0  1e-07 25 0

0111000
-9 0 *
Wi

0101100
+26 0 +10 0 +15 0 -20 0 *
Fa
0  1e-07 30 0

0111000
+7 0 *
Wi

0101100
+22 0 -43 0 -11 0 -35 0 *
Fa
0  1e-07 26 0

0111000
-5 0 *
Sh

0101100
+40 0 -30 0 -23 0 -17 0 +12 0 -8 0 +6 0 -4 0 *
So

0100000
+3 0 *
Co

1100000
+50 0 +2 0 *

+1 0 