DBRep_DrawableShape

CASCADE Topology V1, (c) Matra-Datavision
Locations 0
Curve2ds 48
1 0 -4.7123889803846897 0 1 
1 6.2831853071795862 -4.7123889803846897 0 1 
7 0 0  3 25 23  0 -1.1773936947847918  0.047599888690753524 -1.1773936947847921  0.14279966607226055 -1.1773936947847925  0.28559933214452132 -1.1773936947847927  0.42839899821678151 -1.1773936947847927  0.57119866428904364 -1.1773936947847932  0.71399833036130211 -1.1773936947847941  0.85679799643356558 -1.1773936947847947  0.99959766250582727 -1.1773936947847952  1.1423973285780895 -1.1773936947847967  1.2851969946503492 -1.1773936947847967  1.4279966607226153 -1.1773936947847978  1.5707963267948761 -1.1773936947847987  1.7135959928671409 -1.1773936947847996  1.8563956589394051 -1.1773936947848009  1.9991953250116696 -1.1773936947848018  2.1419949910839331 -1.1773936947848025  2.284794657156199 -1.1773936947848036  2.4275943232284645 -1.177393694784804  2.5703939893007286 -1.1773936947848045  2.7131936553729954 -1.1773936947848054  2.8559933214452609 -1.1773936947848052  2.9987929875175268 -1.1773936947848058  3.093992764899038 -1.1773936947848056  3.1415926535897931 -1.1773936947848056 
 3.1415926535897931 4 3.2843923196620564 1 3.4271919857343196 1 3.5699916518065828 1 3.7127913178788465 1 3.8555909839511098 1 3.998390650023373 1 4.1411903160956367 1 4.2839899821678999 1 4.4267896482401632 1 4.5695893143124264 1 4.7123889803846897 1 4.8551886464569529 1 4.9979883125292162 1 5.1407879786014794 1 5.2835876446737426 1 5.4263873107460068 1 5.5691869768182691 1 5.7119866428905333 1 5.8547863089627965 1 5.9975859750350597 1 6.140385641107323 1 6.2831853071795862 4
1 3.1415926535897931 1.5707963267948966 0 -1 
1 3.1415926535897931 1.5707963267948966 0 -1 
7 0 0  3 25 23  3.1415926535897936 -1.0311393591519451  3.1326604187921641 -1.0311394447363962  3.1147961005306604 -1.030995927418304  3.0880448513373353 -1.0303512323590729  3.0613839036525321 -1.0292783657779505  3.0348572838940839 -1.0277799711005557  3.0085078190825976 -1.025859571746381  2.9823766988841682 -1.0235216603668749  2.9565031585669694 -1.0207716132489624  2.9309241822271708 -1.017615640467372  2.9056742593975668 -1.0140607171774867  2.8807851900918267 -1.0101145126392499  2.8562859413193706 -1.0057853145466653  2.8322025538652427 -1.0010819513186291  2.8085580973926203 -0.99601371356463475  2.7853726704813471 -0.99059027618353379  2.7626634414935718 -0.98482162231715786  2.7404447248349992 -0.97871797018481033  2.7187280891804866 -0.97228970381343605  2.6975224851421755 -0.96554730781492226  2.676834413279654 -0.95850130870462202  2.6566680290982627 -0.95116221565530612  2.6370255466702002 -0.94354048861200979  2.624279561571182 -0.93827778302887033  2.6179938779914864 -0.93560276628213412 
 0 4 0.016050168911043803 1 0.032100337822087606 1 0.048150506733131412 1 0.064200675644175212 1 0.080250844555219011 1 0.096301013466262825 1 0.11235118237730662 1 0.12840135128835042 1 0.14445152019939422 1 0.16050168911043802 1 0.17655185802148182 1 0.19260202693252565 1 0.20865219584356945 1 0.22470236475461325 1 0.24075253366565705 1 0.25680270257670085 1 0.27285287148774467 1 0.28890304039878845 1 0.30495320930983227 1 0.32100337822087605 1 0.33705354713191987 1 0.3531037160429637 4
7 0 0  3 25 23  2.6179938779914864 -0.93560276628213579  2.6054248937368314 -0.94095270631917716  2.5795806769837757 -0.95130357352906492  2.5387247495064655 -0.96569909310736968  2.4957944178593525 -0.97888029781920693  2.4508536849398976 -0.99076292248563802  2.4040051574673025 -1.0012644528541665  2.3553979669157634 -1.0103060994835067  2.3052285496832292 -1.0178152314929492  2.2537402233759285 -1.0237278668406218  2.2012193195246432 -1.0279911276073916  2.1479881761118698 -1.030565444656349  2.0943951023931784 -1.0314263163997373  2.0408020286744883 -1.0305654446563484  1.987570885261716 -1.027991127607389  1.9350499814104301 -1.0237278668406191  1.88356165510313 -1.0178152314929452  1.8333922378705974 -1.010306099483502  1.7847850473190592 -1.0012644528541612  1.7379365198464649 -0.99076292248563147  1.6929957869270109 -0.97888029781919983  1.650065455279899 -0.96569909310736157  1.60920952780259 -0.95130357352905592  1.583365311049536 -0.94095270631916805  1.570796326794881 -0.93560276628212635 
 2.7884889375468394 4 2.8205892753689268 1 2.8526896131910147 1 2.8847899510131021 1 2.9168902888351895 1 2.948990626657277 1 2.9810909644793648 1 3.0131913023014523 1 3.0452916401235397 1 3.0773919779456271 1 3.109492315767715 1 3.1415926535898024 1 3.1736929914118899 1 3.2057933292339778 1 3.2378936670560652 1 3.2699940048781526 1 3.30209434270024 1 3.3341946805223275 1 3.3662950183444154 1 3.3983953561665028 1 3.4304956939885902 1 3.4625960318106781 1 3.4946963696327655 4
7 0 0  3 25 23  1.5707963267948812 -0.93560276628212546  1.5582273425402262 -0.94095270631916705  1.5323831257871714 -0.95130357352905481  1.4915271983098615 -0.96569909310735902  1.4485968666627496 -0.97888029781919661  1.4036561337432949 -0.99076292248562803  1.3568076062707002 -1.0012644528541559  1.3082004157191613 -1.0103060994834963  1.2580309984866285 -1.0178152314929385  1.2065426721793289 -1.0237278668406109  1.1540217683280432 -1.0279911276073805  1.1007906249152719 -1.0305654446563384  1.0471975511965816 -1.0314263163997264  0.99360447747789171 -1.0305654446563377  0.9403733340651208 -1.0279911276073783  0.88785243021383575 -1.0237278668406082  0.83636410390653659 -1.0178152314929345  0.78619468667400427 -1.0103060994834916  0.73758749612246632 -1.0012644528541503  0.69073896864987272 -0.99076292248562137  0.6457982357304195 -0.97888029781918973  0.60286790408330848 -0.96569909310735114  0.56201197660599977 -0.95130357352904626  0.53616775985294562 -0.94095270631915828  0.52359877559829093 -0.93560276628211636 
 2.7884889375468358 4 2.8205892753689237 1 2.8526896131910116 1 2.884789951013099 1 2.9168902888351869 1 2.9489906266572747 1 2.9810909644793626 1 3.0131913023014505 1 3.0452916401235379 1 3.0773919779456258 1 3.1094923157677137 1 3.1415926535898016 1 3.1736929914118894 1 3.2057933292339769 1 3.2378936670560647 1 3.2699940048781526 1 3.3020943427002405 1 3.3341946805223284 1 3.3662950183444158 1 3.3983953561665041 1 3.4304956939885916 1 3.4625960318106794 1 3.4946963696327673 4
7 0 0  3 25 23  0.52359877559829116 -0.93560276628211736  0.51731309201859577 -0.93827778302885323  0.50456710691957762 -0.94354048861199291  0.48492462449151569 -0.9511622156552888  0.46475824031012414 -0.95850130870460482  0.44407016844760466 -0.96554730781490472  0.42286456440929249 -0.97228970381341817  0.4011479287547815 -0.97871797018479234  0.37892921209620944 -0.98482162231713988  0.35621998310843411 -0.99059027618351603  0.33303455619716221 -0.99601371356461643  0.30939009972454135 -1.0010819513186109  0.28530671227041332 -1.0057853145466467  0.26080746349795814 -1.0101145126392312  0.23591839419221861 -1.014060717177468  0.21066847136261535 -1.0176156404673531  0.18508949502281802 -1.0207716132489435  0.15921595470561889 -1.023521660366856  0.13308483450719213 -1.0258595717463617  0.10673536969570624 -1.0277799711005362  0.080208749937259002 -1.0292783657779314  0.053547802252456998 -1.0303512323590538  0.026796553059132457 -1.0309959274182852  0.0089322347976296002 -1.0311394447363769  0 -1.0311393591519256 
 2.7884889375468274 4 2.8045391064578711 1 2.8205892753689152 1 2.836639444279959 1 2.8526896131910031 1 2.8687397821020468 1 2.8847899510130905 1 2.9008401199241347 1 2.9168902888351784 1 2.9329404577462226 1 2.9489906266572663 1 2.96504079556831 1 2.9810909644793542 1 2.9971411333903979 1 3.0131913023014421 1 3.0292414712124858 1 3.0452916401235299 1 3.0613418090345736 1 3.0773919779456174 1 3.0934421468566615 1 3.1094923157677052 1 3.125542484678749 1 3.1415926535897931 4
1 0 2.2204460492503131e-16 0 1 
1 6.2831853071795862 2.2204460492503131e-16 0 1 
7 0 0  3 25 23  0 1.4186888543709866  0.0082510600965642177 1.4186891228992156  0.024843245561516129 1.4184554042726747  0.049950714043074954 1.4173834453076071  0.075226838588691669 1.4155702004621578  0.10061943538885851 1.413000282957229  0.1260758481532904 1.4096613843287447  0.15154326746739966 1.4055447376575569  0.17696929152396915 1.4006450379926696  0.20230241019172207 1.3949604460427925  0.2274925067777627 1.3884926141664198  0.25249124175885901 1.381246352956679  0.27725209789003308 1.3732275208254112  0.3017313593300473 1.3644457459329868  0.32588816695169054 1.3549130828921447  0.34968481574206384 1.3446440573597258  0.37308691313148312 1.3336553362475632  0.39606348938880503 1.3219654847544691  0.41858706340121138 1.3095946664645681  0.44063357490126676 1.2965644208714491  0.46218256081688697 1.2828971448355835  0.48321801147530774 1.2686149201591699  0.50372438279548648 1.2537427014251108  0.51703532903043758 1.2434511395202157  0.52359877559829648 1.2382153202338309 
 27.4983404111235 4 27.689131499065738 1 27.879922587007972 1 28.070713674950209 1 28.261504762892447 1 28.45229585083468 1 28.643086938776918 1 28.833878026719155 1 29.024669114661389 1 29.215460202603627 1 29.406251290545864 1 29.597042378488098 1 29.787833466430335 1 29.978624554372573 1 30.16941564231481 1 30.360206730257044 1 30.550997818199281 1 30.741788906141515 1 30.932579994083753 1 31.12337108202599 1 31.314162169968228 1 31.504953257910461 1 31.695744345852699 4
7 0 0  3 47 45  0.52359877559829682 1.2382153202338309  0.53016222216615572 1.2434511395202159  0.54347316840110704 1.2537427014251112  0.56397953972128645 1.2686149201591705  0.58501499037970817 1.2828971448355848  0.60656397629532588 1.2965644208714509  0.62861048779539286 1.3095946664645699  0.65113406180775868 1.32196548475447  0.67411063806523108 1.3336553362475672  0.69751273545408943 1.3446440573597227  0.72130938424655799 1.3549130828921638  0.74546619186038077 1.3644457459329244  0.76994545332958275 1.373227520825651  0.79470630935182529 1.381246352955793  0.81970504473945993 1.3884926141697336  0.84489513980827946 1.3949604460304359  0.87022826413837817 1.4006450380387947  0.8956542670627855 1.4055447374854257  0.92112176524319811 1.4096613849711583  0.94657788367458096 1.4130002805597219  0.97197157894064223 1.4155702094097884  0.99724360395573086 1.4173834119146065  1.0223663720935066 1.4184555288970628  1.0471975511965967 1.418805517107953  1.0720287302996871 1.4184555288970622  1.0971514984374628 1.417383411914606  1.1224235234525515 1.4155702094097884  1.1478172187186129 1.413000280559721  1.1732733371499962 1.4096613849711581  1.1987408353304077 1.4055447374854264  1.2241668382548159 1.4006450380387951  1.2494999625849141 1.3949604460304363  1.2746900576537339 1.3884926141697338  1.2996887930413683 1.3812463529557941  1.3244496490636111 1.3732275208256515  1.3489289105328131 1.3644457459329251  1.3730857181466356 1.3549130828921643  1.3968823669391048 1.3446440573597238  1.4202844643279617 1.3336553362475678  1.4432610405854345 1.3219654847544708  1.4657846145978009 1.3095946664645708  1.4878311260978665 1.2965644208714511  1.509380112013484 1.2828971448355859  1.5304155626719058 1.2686149201591721  1.5509219339920839 1.2537427014251152  1.5642328802270349 1.2434511395202226  1.5707963267948937 1.2382153202338386 
 23.300936476394401 4 23.491727564336639 1 23.682518652278873 1 23.87330974022111 1 24.064100828163348 1 24.254891916105581 1 24.445683004047819 1 24.636474091990056 1 24.82726517993229 1 25.018056267874528 1 25.208847355816765 1 25.399638443759002 1 25.590429531701236 1 25.781220619643474 1 25.972011707585708 1 26.162802795527945 1 26.353593883470182 1 26.54438497141242 1 26.735176059354654 1 26.925967147296891 1 27.116758235239129 1 27.307549323181362 1 27.4983404111236 1 27.689131499065837 1 27.879922587008071 1 28.070713674950309 1 28.261504762892546 1 28.45229585083478 1 28.643086938777017 1 28.833878026719255 1 29.024669114661492 1 29.215460202603726 1 29.406251290545963 1 29.597042378488197 1 29.787833466430435 1 29.978624554372672 1 30.16941564231491 1 30.360206730257143 1 30.550997818199381 1 30.741788906141615 1 30.932579994083852 1 31.12337108202609 1 31.314162169968327 1 31.504953257910561 1 31.695744345852798 4
7 0 0  3 47 45  1.5707963267948937 1.2382153202338386  1.5773597733627529 1.2434511395202226  1.5906707195977041 1.2537427014251163  1.6111770909178833 1.2686149201591763  1.6322125415763058 1.2828971448355915  1.6537615274919233 1.2965644208714557  1.67580803899199 1.3095946664645737  1.698331613004356 1.321965484754474  1.7213081892618285 1.3336553362475705  1.7447102866506867 1.3446440573597256  1.7685069354431551 1.3549130828921667  1.7926637430569776 1.3644457459329278  1.8171430045261801 1.3732275208256537  1.8419038605484226 1.3812463529557968  1.866902595936057 1.3884926141697365  1.8920926910048772 1.394960446030439  1.917425815334975 1.4006450380387976  1.9428518182593832 1.4055447374854291  1.9683193164397963 1.409661384971161  1.9937754348711783 1.4130002805597244  2.0191691301372399 1.4155702094097911  2.0444411551523287 1.4173834119146083  2.0695639232901049 1.4184555288970653  2.0943951023931939 1.418805517107955  2.1192262814962852 1.4184555288970648  2.1443490496340596 1.4173834119146089  2.1696210746491493 1.4155702094097911  2.1950147699152103 1.4130002805597239  2.2204708883465938 1.4096613849711608  2.2459383865270048 1.4055447374854284  2.2713643894514131 1.4006450380387974  2.2966975137815124 1.3949604460304386  2.3218876088503313 1.388492614169736  2.346886344237967 1.3812463529557963  2.3716472002602091 1.3732275208256537  2.3961264617294109 1.3644457459329276  2.4202832693432335 1.3549130828921663  2.4440799181357034 1.3446440573597265  2.4674820155245598 1.33365533624757  2.4904585917820325 1.3219654847544744  2.5129821657943987 1.3095946664645748  2.5350286772944659 1.2965644208714564  2.5565776632100823 1.2828971448355919  2.5776131138685048 1.268614920159177  2.5981194851886813 1.2537427014251181  2.6114304314236332 1.2434511395202243  2.6179938779914922 1.2382153202338408 
 23.300936476394401 4 23.491727564336639 1 23.682518652278873 1 23.87330974022111 1 24.064100828163348 1 24.254891916105581 1 24.445683004047819 1 24.636474091990056 1 24.82726517993229 1 25.018056267874528 1 25.208847355816765 1 25.399638443759002 1 25.590429531701236 1 25.781220619643474 1 25.972011707585708 1 26.162802795527945 1 26.353593883470182 1 26.54438497141242 1 26.735176059354654 1 26.925967147296891 1 27.116758235239129 1 27.307549323181362 1 27.4983404111236 1 27.689131499065837 1 27.879922587008071 1 28.070713674950309 1 28.261504762892546 1 28.45229585083478 1 28.643086938777017 1 28.833878026719255 1 29.024669114661492 1 29.215460202603726 1 29.406251290545963 1 29.597042378488197 1 29.787833466430435 1 29.978624554372672 1 30.16941564231491 1 30.360206730257143 1 30.550997818199381 1 30.741788906141615 1 30.932579994083852 1 31.12337108202609 1 31.314162169968327 1 31.504953257910561 1 31.695744345852798 4
7 0 0  3 25 23  2.6179938779914922 1.2382153202338408  2.6245573245593516 1.2434511395202248  2.6378682707943022 1.2537427014251188  2.6583746421144818 1.2686149201591783  2.6794100927729025 1.2828971448355939  2.7009590786885243 1.2965644208714582  2.7230055901885795 1.3095946664645768  2.7455291642009851 1.3219654847544768  2.7685057404583078 1.3336553362475723  2.7919078378477278 1.3446440573597327  2.8157044866381007 1.354913082892153  2.8398612942597445 1.3644457459329942  2.8643405556997581 1.3732275208254188  2.8891014118309331 1.3812463529566865  2.9141001468120287 1.3884926141664278  2.9392902433980699 1.3949604460428005  2.9646233620658222 1.4006450379926771  2.9900493861223922 1.4055447376575652  3.0155168054365022 1.4096613843287531  3.0409732182009344 1.4130002829572372  3.0663658150011019 1.4155702004621658  3.0916419395467187 1.4173834453076153  3.1167494080282774 1.4184554042726827  3.1333415934932294 1.4186891228992238  3.1415926535897936 1.4186888543709948 
 23.300936476394401 4 23.491727564336639 1 23.682518652278873 1 23.87330974022111 1 24.064100828163348 1 24.254891916105581 1 24.445683004047819 1 24.636474091990056 1 24.82726517993229 1 25.018056267874528 1 25.208847355816765 1 25.399638443759002 1 25.590429531701236 1 25.781220619643474 1 25.972011707585708 1 26.162802795527945 1 26.353593883470182 1 26.54438497141242 1 26.735176059354654 1 26.925967147296891 1 27.116758235239129 1 27.307549323181362 1 27.4983404111236 4
1 3.1415926535897931 6.2831853071795862 0 -1 
1 3.1415926535897931 6.2831853071795862 0 -1 
1 -3.1415926535897931 1.5707963267948966 1 0 
1 0 -0.43301270189246804 1 0 
1 -1.5707963267949037 -0.39721766875738451 1 -2.4808326515415502e-14 
1 0 -0.43301270189246804 1 0 
1 -1.570796326794893 -0.39721766875747211 1 -6.2197513770842248e-15 
1 3.1415926535897931 -7.7165063509463181 0 -1 
1 3.1415926535897931 -7.7165063509463181 0 -1 
1 0 -15.000000000000149 1 0 
1 6.2831853071795862 -7.716506350946319 0 1 
1 0 -7.716506350946319 0 1 
1 6.2831853071795862 0.46880773502698048 -1 0 
1 3.1415926535897931 6.0507154842071031e-15 0 -1 
1 3.1415926535897931 6.0507154842071031e-15 0 -1 
1 4.7123889803846852 -0.39721766875754039 1 6.2197513770841933e-15 
1 0 -0.43301270189246804 1 0 
1 6.2831853071795862 2.2759572004815709e-15 0 1 
1 0 2.2759572004815709e-15 0 1 
1 -1.5707963267948903 -0.39721766875756959 1 2.4808326515415376e-14 
1 0 -0.43301270189246804 1 0 
1 6.2831853071795862 0.46880773502698048 -1 0 
7 0 0  3 25 23  5.759586531581288 1.2382153202338293  5.766149978149147 1.2434511395202132  5.7794609243840993 1.2537427014251075  5.7999672957042794 1.2686149201591679  5.8210027463626988 1.2828971448355837  5.8425517322783191 1.2965644208714486  5.864598243778377 1.3095946664645679  5.8871218177907823 1.3219654847544688  5.910098394048104 1.3336553362475636  5.9335004914375213 1.3446440573597251  5.9572971402278974 1.3549130828921447  5.9814539478495394 1.3644457459329864  6.0059332092895534 1.3732275208254103  6.0306940654207279 1.3812463529566792  6.0556928004018253 1.3884926141664196  6.0808828969878643 1.3949604460427922  6.1062160156556171 1.4006450379926698  6.1316420397121876 1.4055447376575569  6.157109459026298 1.4096613843287451  6.1825658717907288 1.4130002829572283  6.2079584685908955 1.4155702004621575  6.2332345931365136 1.4173834453076071  6.2583420616180678 1.4184554042726745  6.2749342470830234 1.4186891228992156  6.2831853071795871 1.4186888543709866 
 23.300936476394298 4 23.491727564336536 1 23.68251865227877 1 23.873309740221007 1 24.064100828163244 1 24.254891916105482 1 24.445683004047716 1 24.636474091989953 1 24.827265179932191 1 25.018056267874428 1 25.208847355816662 1 25.399638443758899 1 25.590429531701137 1 25.781220619643371 1 25.972011707585608 1 26.162802795527845 1 26.353593883470083 1 26.544384971412317 1 26.735176059354554 1 26.925967147296792 1 27.116758235239026 1 27.307549323181263 1 27.4983404111235 4
7 0 0  3 25 23  6.2831853071795862 -1.0311393591519256  6.2742530723819563 -1.0311394447363769  6.2563887541204544 -1.0309959274182847  6.2296375049271298 -1.030351232359054  6.2029765572423265 -1.0292783657779312  6.1764499374838779 -1.0277799711005364  6.1501004726723929 -1.0258595717463621  6.1239693524739653 -1.0235216603668555  6.0980958121567665 -1.0207716132489435  6.0725168358169705 -1.0176156404673529  6.0472669129873662 -1.014060717177468  6.0223778436816282 -1.0101145126392312  5.9978785949091709 -1.0057853145466462  5.9737952074550433 -1.0010819513186102  5.9501507509824219 -0.99601371356461621  5.9269653240711495 -0.99059027618351525  5.9042560950833742 -0.98482162231713954  5.882037378424803 -0.97871797018479145  5.8603207427702904 -0.97228970381341773  5.8391151387319802 -0.96554730781490361  5.81842706686946 -0.95850130870460393  5.7982606826880678 -0.95116221565528758  5.7786182002600075 -0.94354048861199202  5.7658722151609885 -0.93827778302885223  5.7595865315812933 -0.93560276628211625 
 3.1415926535897931 4 3.1576428225008373 1 3.173692991411881 1 3.1897431603229252 1 3.2057933292339693 1 3.221843498145013 1 3.2378936670560572 1 3.2539438359671009 1 3.2699940048781451 1 3.2860441737891892 1 3.3020943427002329 1 3.3181445116112771 1 3.3341946805223213 1 3.350244849433365 1 3.3662950183444091 1 3.3823451872554529 1 3.398395356166497 1 3.4144455250775412 1 3.4304956939885849 1 3.4465458628996291 1 3.4625960318106732 1 3.4786462007217169 1 3.4946963696327611 4
7 0 0  3 47 45  4.7123889803846932 1.2382153202338337  4.718952426952554 1.2434511395202197  4.7322633731875055 1.2537427014251152  4.7527697445076873 1.2686149201591752  4.7738051951661111 1.2828971448355893  4.7953541810817306 1.296564420871456  4.8174006925817965 1.3095946664645746  4.8399242665941626 1.3219654847544751  4.8629008428516372 1.3336553362475712  4.8863029402404949 1.3446440573597274  4.9100995890329608 1.3549130828921678  4.9342563966467861 1.3644457459329287  4.9587356581159883 1.3732275208256544  4.9834965141382295 1.3812463529557955  5.0084952495258639 1.3884926141697358  5.0336853445946828 1.3949604460304375  5.059018468924779 1.4006450380387951  5.0844444718491868 1.4055447374854257  5.1099119700295992 1.4096613849711583  5.1353680884609796 1.4130002805597202  5.1607617837270396 1.4155702094097875  5.1860338087421276 1.4173834119146045  5.211156576879902 1.4184555288970606  5.2359877559829915 1.4188055171079508  5.2608189350860801 1.4184555288970604  5.2859417032238563 1.417383411914604  5.3112137282389433 1.415570209409786  5.3366074235050052 1.4130002805597193  5.3620635419363891 1.4096613849711563  5.3875310401167988 1.4055447374854235  5.4129570430412057 1.4006450380387929  5.4382901673713064 1.3949604460304339  5.4634802624401253 1.3884926141697309  5.4884789978277606 1.3812463529557915  5.5132398538500027 1.3732275208256488  5.5377191153192049 1.3644457459329224  5.5618759229330248 1.3549130828921621  5.5856725717254969 1.3446440573597214  5.609074669114352 1.3336553362475647  5.6320512453718266 1.3219654847544684  5.6545748193841927 1.3095946664645681  5.6766213308842586 1.2965644208714491  5.6981703167998763 1.282897144835583  5.7192057674582992 1.2686149201591677  5.7397121387784784 1.253742701425107  5.753023085013429 1.243451139520213  5.759586531581288 1.2382153202338293 
 23.300936476394401 4 23.491727564336639 1 23.682518652278873 1 23.87330974022111 1 24.064100828163348 1 24.254891916105581 1 24.445683004047819 1 24.636474091990056 1 24.82726517993229 1 25.018056267874528 1 25.208847355816765 1 25.399638443759002 1 25.590429531701236 1 25.781220619643474 1 25.972011707585708 1 26.162802795527945 1 26.353593883470182 1 26.54438497141242 1 26.735176059354654 1 26.925967147296891 1 27.116758235239129 1 27.307549323181362 1 27.4983404111236 1 27.689131499065837 1 27.879922587008071 1 28.070713674950309 1 28.261504762892546 1 28.45229585083478 1 28.643086938777017 1 28.833878026719255 1 29.024669114661492 1 29.215460202603726 1 29.406251290545963 1 29.597042378488197 1 29.787833466430435 1 29.978624554372672 1 30.16941564231491 1 30.360206730257143 1 30.550997818199381 1 30.741788906141615 1 30.932579994083852 1 31.12337108202609 1 31.314162169968327 1 31.504953257910561 1 31.695744345852798 4
7 0 0  3 25 23  5.7595865315812942 -0.93560276628211503  5.7470175473266387 -0.94095270631915684  5.7211733305735848 -0.95130357352904471  5.680317403096276 -0.96569909310734992  5.637387071449167 -0.97888029781918806  5.5924463385297116 -0.99076292248562015  5.54559781105712 -1.0012644528541486  5.4969906205055796 -1.01030609948349  5.4468212032730516 -1.0178152314929332  5.3953328769657505 -1.0237278668406069  5.3428119731144683 -1.0279911276073772  5.289580829701694 -1.0305654446563364  5.2359877559830057 -1.0314263163997255  5.1823946822643165 -1.0305654446563373  5.1291635388515431 -1.027991127607379  5.07664263500026 -1.02372786684061  5.0251543086929589 -1.0178152314929374  4.9749848914604273 -1.0103060994834954  4.926377700908886 -1.0012644528541546  4.8795291734362936 -0.99076292248562692  4.8345884405168382 -0.97888029781919583  4.7916581088697265 -0.96569909310735846  4.7508021813924151 -0.9513035735290537  4.724957964639362 -0.94095270631916628  4.7123889803847065 -0.93560276628212469 
 2.7884889375468176 4 2.8205892753689055 1 2.8526896131909933 1 2.8847899510130808 1 2.9168902888351687 1 2.9489906266572565 1 2.9810909644793444 1 3.0131913023014318 1 3.0452916401235197 1 3.0773919779456076 1 3.1094923157676955 1 3.1415926535897829 1 3.1736929914118708 1 3.2057933292339587 1 3.2378936670560465 1 3.269994004878134 1 3.3020943427002218 1 3.3341946805223097 1 3.3662950183443976 1 3.3983953561664855 1 3.4304956939885729 1 3.4625960318106608 1 3.4946963696327487 4
7 0 0  3 47 45  3.6651914291880923 1.2382153202338431  3.6717548757559513 1.2434511395202268  3.6850658219909014 1.2537427014251201  3.7055721933110801 1.2686149201591792  3.7266076439695017 1.2828971448355944  3.748156629885119 1.2965644208714584  3.7702031413851853 1.309594666464577  3.7927267153975501 1.321965484754476  3.8157032916550246 1.3336553362475727  3.8391053890438807 1.3446440573597274  3.8629020378363501 1.3549130828921687  3.8870588454501722 1.3644457459329296  3.9115381069193753 1.3732275208256555  3.936298962941617 1.3812463529557983  3.9612976983292523 1.3884926141697385  3.986487793398072 1.3949604460304408  4.0118209177281701 1.4006450380387994  4.0372469206525787 1.4055447374854306  4.062714418832992 1.4096613849711628  4.0881705372643751 1.4130002805597257  4.1135642325304351 1.4155702094097928  4.1388362575455249 1.41738341191461  4.1639590256833001 1.4184555288970668  4.1887902047863896 1.418805517107957  4.2136213838894809 1.4184555288970668  4.2387441520272553 1.4173834119146107  4.2640161770423459 1.4155702094097931  4.2894098723084069 1.4130002805597262  4.3148659907397899 1.4096613849711632  4.3403334889202014 1.4055447374854309  4.3657594918446092 1.4006450380388002  4.391092616174709 1.394960446030441  4.4162827112435279 1.3884926141697382  4.4412814466311632 1.3812463529557988  4.4660423026534053 1.3732275208256561  4.4905215641226075 1.3644457459329302  4.5146783717364301 1.3549130828921687  4.5384750205289004 1.3446440573597285  4.5618771179177564 1.3336553362475718  4.58485369417523 1.3219654847544762  4.6073772681875962 1.3095946664645759  4.6294237796876621 1.2965644208714573  4.6509727656032798 1.2828971448355924  4.6720082162617027 1.2686149201591765  4.692514587581881 1.253742701425115  4.7058255338168342 1.2434511395202192  4.7123889803846932 1.2382153202338337 
 23.300936476394401 4 23.491727564336639 1 23.682518652278873 1 23.87330974022111 1 24.064100828163348 1 24.254891916105581 1 24.445683004047819 1 24.636474091990056 1 24.82726517993229 1 25.018056267874528 1 25.208847355816765 1 25.399638443759002 1 25.590429531701236 1 25.781220619643474 1 25.972011707585708 1 26.162802795527945 1 26.353593883470182 1 26.54438497141242 1 26.735176059354654 1 26.925967147296891 1 27.116758235239129 1 27.307549323181362 1 27.4983404111236 1 27.689131499065837 1 27.879922587008071 1 28.070713674950309 1 28.261504762892546 1 28.45229585083478 1 28.643086938777017 1 28.833878026719255 1 29.024669114661492 1 29.215460202603726 1 29.406251290545963 1 29.597042378488197 1 29.787833466430435 1 29.978624554372672 1 30.16941564231491 1 30.360206730257143 1 30.550997818199381 1 30.741788906141615 1 30.932579994083852 1 31.12337108202609 1 31.314162169968327 1 31.504953257910561 1 31.695744345852798 4
7 0 0  3 25 23  4.7123889803847057 -0.9356027662821258  4.699819996130052 -0.94095270631916772  4.673975779376998 -0.95130357352905559  4.6331198518996866 -0.9656990931073608  4.5901895202525758 -0.97888029781919939  4.5452487873331213 -0.99076292248563136  4.4984002598605288 -1.0012644528541605  4.4497930693089893 -1.010306099483502  4.3996236520764578 -1.0178152314929449  4.3481353257691566 -1.0237278668406191  4.2956144219178709 -1.0279911276073892  4.2423832785050983 -1.0305654446563488  4.1887902047864074 -1.0314263163997375  4.1351971310677165 -1.0305654446563497  4.0819659876549448 -1.0279911276073919  4.0294450838036573 -1.0237278668406224  3.9779567574963561 -1.0178152314929494  3.9277873402638233 -1.010306099483508  3.8791801497122824 -1.0012644528541665  3.832331622239689 -0.99076292248563924  3.7873908893202319 -0.97888029781920793  3.7444605576731198 -0.96569909310737001  3.7036046301958097 -0.95130357352906547  3.677760413442754 -0.94095270631917793  3.6651914291880989 -0.93560276628213634 
 5.9300815911366129 4 5.9621819289587004 1 5.9942822667807878 1 6.0263826046028761 1 6.0584829424249635 1 6.090583280247051 1 6.1226836180691384 1 6.1547839558912258 1 6.1868842937133133 1 6.2189846315354016 1 6.251084969357489 1 6.2831853071795765 1 6.3152856450016639 1 6.3473859828237513 1 6.3794863206458388 1 6.4115866584679271 1 6.4436869962900145 1 6.4757873341121019 1 6.5078876719341894 1 6.5399880097562768 1 6.5720883475783651 1 6.6041886854004526 1 6.63628902322254 4
7 0 0  3 25 23  3.665191429188098 -0.93560276628213501  3.6589057456084024 -0.9382777830288711  3.6461597605093843 -0.94354048861201067  3.6265172780813213 -0.95116221565530645  3.6063508938999314 -0.95850130870462302  3.5856628220374098 -0.96554730781492204  3.5644572179990988 -0.97228970381343727  3.5427405823445852 -0.97871797018481033  3.5205218656860144 -0.98482162231715875  3.4978126366982374 -0.99059027618353401  3.4746272097869664 -0.99601371356463575  3.4509827533143436 -1.0010819513186293  3.4268993658602152 -1.0057853145466653  3.4024001170877609 -1.0101145126392508  3.3775110477820189 -1.0140607171774865  3.3522611249524163 -1.0176156404673726  3.3266821486126168 -1.0207716132489617  3.3008086082954189 -1.0235216603668753  3.2746774880969887 -1.0258595717463808  3.248328023285505 -1.0277799711005557  3.2218014035270546 -1.0292783657779501  3.1951404558422527 -1.0303512323590733  3.1683892066489263 -1.0309959274183038  3.1505248883874235 -1.0311394447363962  3.141592653589794 -1.0311393591519451 
 5.9300815911366254 4 5.9461317600476686 1 5.9621819289587128 1 5.9782320978697561 1 5.9942822667808002 1 6.0103324356918435 1 6.0263826046028877 1 6.0424327735139309 1 6.0584829424249751 1 6.0745331113360184 1 6.0905832802470625 1 6.1066334491581058 1 6.1226836180691491 1 6.1387337869801932 1 6.1547839558912365 1 6.1708341248022807 1 6.1868842937133239 1 6.2029344626243681 1 6.2189846315354114 1 6.2350348004464555 1 6.2510849693574988 1 6.267135138268543 1 6.2831853071795862 4
7 0 0  3 25 23  3.1415926535897936 1.4186888543709948  3.1498437136863582 1.4186891228992238  3.1664358991513089 1.4184554042726827  3.1915433676328693 1.4173834453076151  3.2168194921784852 1.415570200462166  3.2422120889786532 1.4130002829572372  3.2676685017430844 1.4096613843287529  3.2931359210571935 1.4055447376575649  3.3185619451137649 1.4006450379926776  3.3438950637815159 1.3949604460428005  3.369085160367558 1.3884926141664278  3.3940838953486541 1.3812463529566867  3.4188447514798286 1.3732275208254192  3.443324012919843 1.3644457459329944  3.4674808205414855 1.3549130828921525  3.4912774693318602 1.3446440573597336  3.514679566721278 1.3336553362475714  3.537656142978602 1.3219654847544771  3.5601797169910068 1.3095946664645768  3.5822262284910638 1.2965644208714586  3.6037752144066828 1.2828971448355946  3.6248106650651044 1.2686149201591792  3.6453170363852814 1.2537427014251206  3.6586279826202333 1.2434511395202268  3.6651914291880923 1.2382153202338431 
 27.4983404111236 4 27.689131499065837 1 27.879922587008071 1 28.070713674950309 1 28.261504762892546 1 28.45229585083478 1 28.643086938777017 1 28.833878026719255 1 29.024669114661489 1 29.215460202603726 1 29.406251290545963 1 29.597042378488197 1 29.787833466430435 1 29.978624554372672 1 30.16941564231491 1 30.360206730257143 1 30.550997818199381 1 30.741788906141615 1 30.932579994083852 1 31.12337108202609 1 31.314162169968327 1 31.504953257910561 1 31.695744345852798 4
1 0 -15.000000000000149 1 0 
1 3.1415926535897931 1.5707963267948966 1 0 
1 3.1415926535897931 -1.1773936947848056 1 4.2407395752846893e-15 
Curves 42
2 3.0672534941069298e-15 -1.3766765505351901e-13 13.8541510024974 1 -4.2861222383783199e-16 -2.4492127076447501e-16 2.4492127076447501e-16 0 1 -4.2861222383783199e-16 -1 1.0497625052754942e-31 15.000000000000099
2 5.2237129243600998e-16 -2.8421709430404001e-14 -2.8421709430404001e-14 2.4492127076447599e-16 -7.4983036091107102e-32 1 -3.18504973803921e-16 -1 3.025606837755364e-33 1 -3.18504973803921e-16 -2.4492127076447599e-16 5.7500000000000604
2 3.0672534941069298e-15 -1.3766765505351901e-13 13.8541510024974 1 -4.2861222383783199e-16 -2.4492127076447501e-16 2.4492127076447501e-16 0 1 -4.2861222383783199e-16 -1 1.0497625052754942e-31 15.000000000000099
2 3.0672534941069298e-15 -7.70762609368151 13.8541510024974 0 1 0 0 0 -1 -1 0 0 12.868274942664399
2 -6.6749999999999501 -3.85381304684085 13.8541510024974 0.86602540378443926 0.49999999999999911 -2.1210804240920205e-16 2.4492127076447461e-16 -1.7256332301709629e-31 1 0.49999999999999911 -0.86602540378443926 -1.2246063538223723e-16 12.868274942664399
2 -6.6750000000000496 3.85381304684066 13.8541510024974 0.86602540378443804 -0.500000000000001 -2.12108042409202e-16 -3.6977854932234928e-31 -4.2421608481840376e-16 1 -0.500000000000001 -0.86602540378443804 -3.6738190614671175e-16 12.8682749426643
2 3.0672534941069298e-15 7.70762609368151 13.8541510024974 0 -1 0 0 0 1 -1 0 0 12.8682749426643
2 5.3880282348782303e-15 6.6749999999999003 8.1849581380478504 1 -4.2861222383783199e-16 -2.4492127076447599e-16 4.2861222383783199e-16 1 -2.9993214436442705e-32 2.4492127076447599e-16 -7.4983036091107135e-32 1 6.8150418619520696
7 0 0  3 8 4  5.1070259132757201e-15 7.70762609368151 14.9213131562166  -0.58330198196129801 7.70762609368151 14.9213131562166  -1.19564808536308 7.70762609368151 14.912024562559999  -2.4425246470441602 7.70762609368151 14.858834170463499  -3.0770311818912601 7.70762609368151 14.8143730377358  -3.9544063589094001 7.70762609368151 14.7055124010373  -4.2033671796925098 7.70762609368151 14.669149909478801  -4.4499999999999904 7.70762609368151 14.6265550347931 
 27.4983404111235 4 29.2482463570074 2 30.998152302891299 2 31.695744345852699 4
7 0 0  3 14 7  -4.4499999999999904 7.70762609368151 14.6265550347931  -4.5733164101537298 7.4940358058882302 14.669149909478801  -4.6977968205452898 7.2784294105430201 14.7055124010373  -5.1364844090543702 6.5186002185954299 14.8143730377358  -5.4537376764779202 5.9691014405506104 14.858834170463499  -6.0771759573184596 4.8892746627513999 14.912024562559999  -6.3833490090193497 4.35896738129704 14.9213131562166  -6.9666509909806598 3.3486587123844398 14.9213131562166  -7.2728240426815498 2.8183514309300799 14.912024562559999  -7.8962623235220901 1.73852465313087 14.858834170463499  -8.2135155909456401 1.1890258750860501 14.8143730377358  -8.6522031794547107 0.42919668313847198 14.7055124010373  -8.7766835898462698 0.21359028779327299 14.669149909478801  -8.9000000000000004 0 14.626555034793199 
 23.300936476394401 4 23.998528519355801 2 25.748434465239701 2 27.4983404111236 2 29.248246357007499 2 30.998152302891398 2 31.695744345852798 4
7 0 0  3 14 7  -8.9000000000000004 0 14.626555034793199  -8.7766835898462592 -0.21359028779327999 14.669149909478801  -8.6522031794547001 -0.42919668313849002 14.705512401037399  -8.2135155909456294 -1.18902587508608 14.8143730377358  -7.8962623235220804 -1.7385246531309 14.858834170463499  -7.27282404268154 -2.8183514309301101 14.912024562559999  -6.96665099098065 -3.34865871238447 14.9213131562166  -6.3833490090193497 -4.3589673812970702 14.9213131562166  -6.0771759573184596 -4.8892746627514301 14.912024562559999  -5.4537376764779202 -5.9691014405506397 14.858834170463499  -5.1364844090543702 -6.5186002185954601 14.8143730377358  -4.6977968205452996 -7.2784294105430396 14.705512401037399  -4.5733164101537502 -7.4940358058882399 14.669149909478801  -4.4500000000000099 -7.70762609368151 14.626555034793199 
 23.300936476394401 4 23.998528519355801 2 25.748434465239701 2 27.4983404111236 2 29.248246357007499 2 30.998152302891398 2 31.695744345852798 4
7 0 0  3 8 4  -4.4500000000000099 -7.70762609368151 14.626555034793199  -4.2033671796925303 -7.70762609368151 14.669149909478801  -3.9544063589094098 -7.70762609368151 14.705512401037399  -3.0770311818912601 -7.70762609368151 14.8143730377358  -2.4425246470441602 -7.70762609368151 14.858834170463499  -1.19564808536309 -7.70762609368151 14.912024562559999  -0.58330198196129901 -7.70762609368151 14.9213131562166  5.6066262743570397e-15 -7.70762609368151 14.9213131562166 
 23.300936476394401 4 23.998528519355801 2 25.748434465239701 2 27.4983404111236 4
2 -3.3394495335676901e-16 -6.6749999999999599 8.1849581380478504 1 -4.2861222383783199e-16 -2.4492127076447599e-16 -4.2861222383783199e-16 -1 2.9993214436442705e-32 -2.4492127076447599e-16 7.4983036091107135e-32 -1 6.8150418619520696
2 4.1961903539031299e-15 -2.8421709430404001e-14 14.999999999999901 2.4492127076447501e-16 -7.4983036091106795e-32 1 -3.18504973803921e-16 -1 3.025606837755364e-33 1 -3.18504973803921e-16 -2.4492127076447501e-16 6.6749999999999297
2 1.06054021204662e-16 2.8421709430404001e-14 0.43301270189222002 -2.4492127076447501e-16 -0 -1 0 -1 0 -1 0 2.4492127076447501e-16 4.25
2 1.06054021204662e-16 2.8421709430404001e-14 0.43301270189222002 -2.4492127076447501e-16 -0 -1 0 -1 0 -1 0 2.4492127076447501e-16 4.25
1 2.41039424171043e-15 4.2500000000000302 7.7165063509460703 2.4492127076447501e-16 0 1 
2 3.6738190614671799e-15 2.8421709430404001e-14 14.999999999999901 -2.4492127076447501e-16 7.4983036091106905e-32 -1 -1.8364940485212399e-47 -1 -7.4983036091106905e-32 -1 2.4308653429145085e-63 2.4492127076447501e-16 4.25
1 1.36947884096141e-15 -4.2499999999999698 7.7165063509460703 -2.4492127076447501e-16 0 -1 
2 -1.6852968112991799e-14 -3.5252221702064e-30 -2.8782531913407202e-14 2.4492127076447501e-16 -7.4983036091106905e-32 1 -1 3.6053780505049502e-16 2.4492127076447501e-16 -3.6053780505049502e-16 -1 1.3320341280494889e-32 5.0000000000000497
1 4.5940005919760303 -2.1901898747197302e-15 0.23440386751345901 -0.86602540378443882 4.7951923709412987e-16 0.49999999999999989 
2 1.06054021204662e-16 2.8421709430404001e-14 0.43301270189222002 -2.4492127076447501e-16 -0 -1 0 -1 0 -1 0 2.4492127076447501e-16 4.25
1 -4.5940005919760596 2.2476003678232298e-15 0.23440386751346101 -0.86602540378443882 3.5705860171189288e-16 -0.49999999999999989 
2 1.06054021204662e-16 2.8421709430404001e-14 0.43301270189222002 -2.4492127076447501e-16 -0 -1 0 -1 0 -1 0 2.4492127076447501e-16 4.25
2 -1.6852968112991799e-14 -3.5252221702064e-30 -2.8782531913407202e-14 2.4492127076447501e-16 -7.4983036091106905e-32 1 -1 3.6053780505049502e-16 2.4492127076447501e-16 -3.6053780505049502e-16 -1 1.3320341280494889e-32 5.0000000000000497
1 -4.4499999999999797 7.7076260936815304 8.2031765262773 2.4492127076447501e-16 -7.4983036091106905e-32 1 
1 -8.9000000000000306 -4.79616346638068e-14 8.2031765262773 -2.4492127076447501e-16 7.4983036091106905e-32 -1 
7 0 0  3 8 4  4.4500000000000197 7.70762609368151 14.6265550347931  4.20336717969254 7.70762609368151 14.669149909478699  3.9544063589094098 7.70762609368151 14.7055124010373  3.0770311818912699 7.70762609368151 14.8143730377358  2.4425246470441699 7.70762609368151 14.858834170463499  1.19564808536309 7.70762609368151 14.912024562559999  0.583301981961306 7.70762609368151 14.9213131562166  5.1070259132757201e-15 7.70762609368151 14.9213131562166 
 23.300936476394298 4 23.998528519355698 2 25.748434465239601 2 27.4983404111235 4
1 4.4500000000000099 7.70762609368151 8.2031765262773 2.4492127076447501e-16 -7.4983036091106905e-32 1 
2 3.0672534941069298e-15 7.70762609368151 13.8541510024974 0 -1 0 0 0 1 -1 0 0 12.8682749426643
7 0 0  3 14 7  8.9000000000000092 0 14.6265550347931  8.7766835898462805 0.21359028779327 14.669149909478801  8.6522031794547303 0.42919668313847598 14.7055124010373  8.2135155909456596 1.1890258750860501 14.8143730377358  7.8962623235221097 1.73852465313087 14.858834170463499  7.2728240426815702 2.8183514309300799 14.912024562559999  6.9666509909806802 3.3486587123844398 14.9213131562166  6.3833490090193798 4.35896738129704 14.9213131562166  6.0771759573184898 4.8892746627513999 14.912024562559999  5.4537376764779504 5.9691014405506104 14.858834170463499  5.1364844090544004 6.5186002185954299 14.8143730377358  4.69779682054532 7.2784294105430201 14.7055124010373  4.57331641015376 7.4940358058882302 14.669149909478699  4.4500000000000197 7.70762609368151 14.6265550347931 
 23.300936476394401 4 23.998528519355698 2 25.748434465239601 2 27.4983404111236 2 29.248246357007499 2 30.998152302891398 2 31.695744345852798 4
1 8.9000000000000394 -2.26485497023532e-14 8.2031765262773 2.4492127076447501e-16 -7.4983036091106905e-32 1 
2 6.6750000000000798 3.85381304684066 13.8541510024974 -0.86602540378443882 -0.49999999999999989 2.1210804240920195e-16 -3.9443045261050582e-31 4.2421608481840465e-16 1 -0.49999999999999989 0.86602540378443882 -3.6738190614671283e-16 12.8682749426643
7 0 0  3 14 7  4.4499999999999904 -7.70762609368151 14.626555034793199  4.5733164101537298 -7.4940358058882399 14.669149909478801  4.69779682054528 -7.2784294105430396 14.705512401037399  5.1364844090543498 -6.5186002185954699 14.8143730377358  5.4537376764778998 -5.9691014405506504 14.858834170463499  6.0771759573184401 -4.8892746627514398 14.912024562559999  6.3833490090193399 -4.3589673812970799 14.9213131562166  6.9666509909806402 -3.3486587123844802 14.9213131562166  7.2728240426815303 -2.8183514309301199 14.912024562559999  7.8962623235220697 -1.73852465313091 14.858834170463499  8.2135155909456206 -1.18902587508609 14.8143730377358  8.6522031794547001 -0.42919668313849901 14.705512401037399  8.7766835898462698 -0.21359028779328501 14.669149909478801  8.9000000000000092 0 14.6265550347931 
 23.300936476394401 4 23.998528519355801 2 25.748434465239701 2 27.4983404111236 2 29.248246357007499 2 30.998152302891398 2 31.695744345852798 4
1 4.44999999999993 -7.7076260936816103 8.2031765262773 2.4492127076447501e-16 -7.4983036091106905e-32 1 
2 6.6749999999999403 -3.8538130468408598 13.8541510024974 -0.86602540378443804 0.500000000000001 2.12108042409202e-16 3.6977854932234928e-31 4.2421608481840376e-16 -1 -0.500000000000001 -0.86602540378443804 -3.6738190614671175e-16 12.868274942664399
1 -4.4500000000000997 -7.70762609368151 8.2031765262773106 2.4492127076447501e-16 -7.4983036091106905e-32 1 
2 3.0672534941069298e-15 -7.70762609368151 13.8541510024974 0 1 0 0 0 -1 -1 0 0 12.868274942664399
7 0 0  3 8 4  5.6066262743570397e-15 -7.70762609368151 14.9213131562166  0.583301981961308 -7.70762609368151 14.9213131562166  1.19564808536309 -7.70762609368151 14.912024562559999  2.4425246470441699 -7.70762609368151 14.858834170463499  3.0770311818912699 -7.70762609368151 14.8143730377358  3.9544063589094098 -7.70762609368151 14.705512401037399  4.2033671796925196 -7.70762609368151 14.669149909478801  4.4499999999999904 -7.70762609368151 14.626555034793199 
 27.4983404111236 4 29.248246357007499 2 30.998152302891398 2 31.695744345852798 4
2 3.6738190614671799e-15 2.8421709430404001e-14 14.999999999999901 -2.4492127076447501e-16 7.4983036091106905e-32 -1 -1.8364940485212399e-47 -1 -7.4983036091106905e-32 -1 2.4308653429145085e-63 2.4492127076447501e-16 4.25
2 4.1961903539031299e-15 -2.8421709430404001e-14 14.999999999999901 2.4492127076447501e-16 -7.4983036091106795e-32 1 -3.18504973803921e-16 -1 3.025606837755364e-33 1 -3.18504973803921e-16 -2.4492127076447501e-16 6.6749999999999297
2 5.2237129243600998e-16 -2.8421709430404001e-14 -2.8421709430404001e-14 2.4492127076447599e-16 -7.4983036091107102e-32 1 -3.18504973803921e-16 -1 3.025606837755364e-33 1 -3.18504973803921e-16 -2.4492127076447599e-16 5.7500000000000604
Polygon3D 0
PolygonOnTriangulations 0
Surfaces 16
4 3.0672534941069298e-15 -1.3766765505351901e-13 13.8541510024974 2.4492127076447501e-16 -7.4983036091106697e-32 1 3.0615158845559402e-16 1 3.28429327576129e-47 -1 3.0615158845559402e-16 2.4492127076447501e-16 15.000000000000099
4 3.0672534941069298e-15 -1.3766765505351901e-13 13.8541510024974 2.4492127076447501e-16 -7.4983036091106697e-32 1 3.0615158845559402e-16 1 3.28429327576129e-47 -1 3.0615158845559402e-16 2.4492127076447501e-16 15.000000000000099
1 -3.5781452437383699e-16 -2.8750000000000702 -2.8421709430404001e-14 -2.4492127076447501e-16 7.4983036091106905e-32 -1 -1 0 2.4492127076447501e-16 1.8364940485212397e-47 1 7.4983036091106905e-32 
1 4.4499999999999904 -7.70762609368151 -1.3540185905598101e-13 0 -1 0 0 0 -1 1 0 0 
1 -4.4500000000000197 -7.70762609368151 -1.3322205974617699e-13 -0.86602540378443926 -0.49999999999999911 2.1210804240920304e-16 -0.49999999999999911 0.86602540378443926 0 -1.8369095307335698e-16 -1.0605402120460131e-16 -1 
1 -8.9000000000000092 0 -1.32132160091275e-13 -0.86602540378443804 0.500000000000001 2.1210804240920299e-16 2.4492127076447599e-16 1.2325951644078309e-32 1 0.500000000000001 0.86602540378443804 -1.2246063538223824e-16 
1 -4.4499999999999904 7.70762609368151 -1.3322205974617699e-13 0 1 0 1 0 -0 -0 0 -1 
5 2.52704164076073e-15 -2.8421709430404001e-14 8.1849581380478504 2.4492127076447501e-16 -7.4983036091106697e-32 1 3.0615158845559402e-16 1 3.28429327576129e-47 -1 3.0615158845559402e-16 2.4492127076447501e-16 6.6749999999999297 6.8150418619520696
5 2.52704164076073e-15 -2.8421709430404001e-14 8.1849581380478504 2.4492127076447501e-16 -7.4983036091106697e-32 1 3.0615158845559402e-16 1 3.28429327576129e-47 -1 3.0615158845559402e-16 2.4492127076447501e-16 6.6749999999999297 6.8150418619520696
1 2.25595466206581e-15 -3.3375000000000101 14.999999999999901 2.4492127076447501e-16 -7.4983036091106905e-32 1 1 0 -2.4492127076447501e-16 1.8364940485212397e-47 1 7.4983036091106905e-32 
2 0 2.8421709430404001e-14 -2.4799879712269502e-13 -2.4492127076447501e-16 -0 -1 0 -1 0 -1 0 2.4492127076447501e-16 4.25
3 -1.67955576198883e-14 2.8705246551752203e-17 0.23440386751346001 -2.4492127076447501e-16 -1.22460635382238e-16 -1 -1 3.6053780505049502e-16 2.4492127076447496e-16 3.6053780505049497e-16 1 -1.224606353822381e-16 4.59400059197604
1.0471975511966001
3 -1.67955576198883e-14 2.8705246551752203e-17 0.23440386751346001 -2.4492127076447501e-16 -1.22460635382238e-16 -1 -1 3.6053780505049502e-16 2.4492127076447496e-16 3.6053780505049497e-16 1 -1.224606353822381e-16 4.59400059197604
1.0471975511966001
2 0 2.8421709430404001e-14 -2.4799879712269502e-13 -2.4492127076447501e-16 -0 -1 0 -1 0 -1 0 2.4492127076447501e-16 4.25
1 4.4500000000000197 7.70762609368151 -1.3540185905598101e-13 0.86602540378443882 0.49999999999999989 -2.1210804240920294e-16 -4.9303806576313227e-32 -4.2421608481840588e-16 -1 -0.49999999999999989 0.86602540378443882 -3.6738190614671372e-16 
1 8.9000000000000092 0 -1.3649175871088301e-13 0.86602540378443804 -0.500000000000001 -2.1210804240920299e-16 -1.2325951644078309e-31 4.2421608481840494e-16 -1 0.500000000000001 0.86602540378443804 3.6738190614671249e-16 
Triangulations 0

TShapes 106
Ve
1e-07
2.13859751227993e-15 5.75000000000003 -2.8421709430404e-14
0 0

0101101
*
Ve
1e-07
3.21912200312633e-15 7.70762609368151 0.985876059833132
0 0

0101101
*
Ed
 1e-07 1 1 0
1  1 0 3.5349952855999 3.68124962123277
2  1 1 0 3.5349952855999 3.68124962123277
2  2 2 0 3.5349952855999 3.68124962123277
4 G2 1 0 2 0
0

0101000
+106 0 -105 0 *
Ve
1e-07
-1.23800034118367e-15 -5.75000000000009 -2.8421709430404e-14
0 0

0101101
*
Ed
 1e-07 1 1 0
1  2 0 3.14159265358979 6.28318530717959
2  3 1 0 3.14159265358979 6.28318530717959
4 C0 1 0 3 0
0

0101000
+106 0 -103 0 *
Ve
1e-07
-3.38804351792038e-15 -7.70762609368151 0.985876059832966
0 0

0101101
*
Ed
 1e-07 1 1 0
1  3 0 2.60193568594684 2.7481900215797
2  4 1 0 2.60193568594684 2.7481900215797
2  5 2 0 2.60193568594684 2.7481900215797
4 CN 1 0 2 0
0

0101000
+101 0 -103 0 *
Ve
1e-07
-4.45000000000002 -7.70762609368151 1.77979801776132
0 0

0101101
*
Ed
 1e-07 1 1 0
1  4 0 0 0.353103716042964
2  6 1 0 0 0.353103716042964
4 C0 1 0 4 0
0

0101000
+101 0 -99 0 *
Ve
1e-07
-8.90000000000001 0 1.7797980177614
0 0

0101101
*
Ed
 1e-07 1 1 0
1  5 0 2.78848893754684 3.49469636963277
2  7 1 0 2.78848893754684 3.49469636963277
4 C0 1 0 5 0
0

0101000
+99 0 -97 0 *
Ve
1e-07
-4.44999999999999 7.70762609368151 1.77979801776148
0 0

0101101
*
Ed
 1e-07 1 1 0
1  6 0 2.78848893754684 3.49469636963277
2  8 1 0 2.78848893754684 3.49469636963277
4 C0 1 0 6 0
0

0101000
+97 0 -95 0 *
Ed
 1e-07 1 1 0
1  7 0 2.78848893754683 3.14159265358979
2  9 1 0 2.78848893754683 3.14159265358979
4 C0 1 0 7 0
0

0101000
+95 0 -105 0 *
Wi

0101100
-104 0 +102 0 -100 0 +98 0 +96 0 +94 0 +93 0 *
Fa
0  1e-07 1 0

0111000
+92 0 *
Ve
0.000159945009491702
5.8496742631151e-15 7.70762609368151 14.9213131562166
0 0

0101101
*
Ve
1e-07
7.05717694802062e-15 6.6749999999999 14.9999999999999
0 0

0101101
*
Ed
 1e-07 1 1 0
1  8 0 1.41868885437099 1.5707963267949
2  10 8 0 1.41868885437099 1.5707963267949
2  11 9 0 1.41868885437099 1.5707963267949
4 CN 8 0 9 0
0

0101000
+90 0 -89 0 *
Ve
0.000159945009491702
-4.44999999999999 7.70762609368151 14.6265550347931
0 0

0101101
*
Ed
 0.000159945009491702 1 1 0
1  9 0 27.4983404111235 31.6957443458527
2  12 8 0 27.4983404111235 31.6957443458527
4 C0 8 0 7 0
0

0101000
+90 0 -87 0 *
Ve
0.000157287546292351
-8.9 0 14.6265550347932
0 0

0101101
*
Ed
 0.000157287546292351 1 1 0
1  10 0 23.3009364763944 31.6957443458528
2  13 8 0 23.3009364763944 31.6957443458528
4 C0 8 0 6 0
0

0101000
+87 0 -85 0 *
Ve
0.000159945009481368
-4.45000000000001 -7.70762609368151 14.6265550347932
0 0

0101101
*
Ed
 0.000157287546288511 1 1 0
1  11 0 23.3009364763944 31.6957443458528
2  14 8 0 23.3009364763944 31.6957443458528
4 C0 8 0 5 0
0

0101000
+85 0 -83 0 *
Ve
0.000159945009481368
2.46282477574488e-15 -7.70762609368151 14.9213131562166
0 0

0101101
*
Ed
 0.000159945009481368 1 1 0
1  12 0 23.3009364763944 27.4983404111236
2  15 8 0 23.3009364763944 27.4983404111236
4 C0 8 0 4 0
0

0101000
+83 0 -81 0 *
Ve
1e-07
1.23417373559528e-15 -6.67499999999995 14.9999999999999
0 0

0101101
*
Ed
 1e-07 1 1 0
1  13 0 4.71238898038469 4.86449645280859
2  16 8 0 4.71238898038469 4.86449645280859
2  17 9 0 4.71238898038469 4.86449645280859
4 CN 8 0 9 0
0

0101000
+79 0 -81 0 *
Ed
 1e-07 1 1 0
1  14 0 3.14159265358979 6.28318530717959
2  18 8 0 3.14159265358979 6.28318530717959
4 G1 8 0 10 0
0

0101000
+89 0 -79 0 *
Wi

0101100
-88 0 +86 0 +84 0 +82 0 +80 0 -78 0 -77 0 *
Fa
0  1e-07 8 0

0111000
+76 0 *
Ve
1e-07
4.25 -1.99971636123682e-15 0.433012701892219
0 0

0101101
*
Ve
1e-07
-4.14403679169848e-16 -4.24999999999997 0.43301270189222
0 0

0101101
*
Ed
 1e-07 1 1 0
1  15 0 4.7123889803847 6.28318530717959
2  19 11 0 4.7123889803847 6.28318530717959
2  20 12 0 4.7123889803847 6.28318530717959
4 C0 11 0 12 0
0

0101000
+74 0 -73 0 *
Ve
1e-07
6.26511721579173e-16 4.25000000000003 0.43301270189222
0 0

0101101
*
Ed
 1e-07 1 1 0
1  16 0 3.14159265358979 4.7123889803847
2  21 11 0 3.14159265358979 4.7123889803847
2  22 13 0 3.14159265358979 4.7123889803847
4 C0 11 0 13 0
0

0101000
+71 0 -74 0 *
Ve
1e-07
0 4.25000000000003 14.9999999999998
0 0

0101101
*
Ed
 1e-07 1 1 0
1  17 0 -7.28349364905385 7.28349364905373
2  23 11 0 -7.28349364905385 7.28349364905373
2  24 14 0 -7.28349364905385 7.28349364905373
4 CN 11 0 14 0
0

0101000
+71 0 -69 0 *
Ve
1e-07
3.15336136109266e-15 -4.24999999999997 14.9999999999999
0 0

0101101
*
Ed
 1e-07 1 1 0
1  18 0 3.14159265358979 6.28318530717959
2  25 11 0 3.14159265358979 6.28318530717959
4 C0 11 0 10 0
0

0101000
+69 0 -67 0 *
Ed
 1e-07 1 1 0
1  19 0 -7.28349364905383 7.28349364905385
2  26 11 0 -7.28349364905383 7.28349364905385
2  27 14 0 -7.28349364905383 7.28349364905385
4 CN 11 0 14 0
0

0101000
+67 0 -73 0 *
Wi

0101100
-72 0 -70 0 +68 0 +66 0 +65 0 *
Fa
0  1e-07 11 0

0111000
+64 0 *
Ve
1e-07
-5.00000000000002 1.83690953073357e-15 2.16829592475376e-15
0 0

0101101
*
Ve
1e-07
5.00000000000003 -2.41499220216369e-15 -3.00071382672296e-14
0 0

0101101
*
Ed
 1e-07 1 1 0
1  20 0 0 3.14159265358979
2  28 12 0 0 3.14159265358979
4 C0 12 0 3 0
0

0101000
+62 0 -61 0 *
Ed
 1e-07 1 1 0
1  21 0 -0.468807735026972 0.397217668757508
2  29 12 0 -0.468807735026972 0.397217668757508
2  30 13 0 -0.468807735026972 0.397217668757508
4 CN 12 0 13 0
0

0101000
+61 0 -74 0 *
Ve
1e-07
-4.25 2.10577038244141e-15 0.433012701892221
0 0

0101101
*
Ed
 1e-07 1 1 0
1  22 0 0 1.57079632679489
2  31 12 0 0 1.57079632679489
2  32 14 0 0 1.57079632679489
4 C0 12 0 14 0
0

0101000
+73 0 -58 0 *
Ed
 1e-07 1 1 0
1  23 0 -0.397217668757533 0.468807735026923
2  33 12 0 -0.397217668757533 0.468807735026923
2  34 13 0 -0.397217668757533 0.468807735026923
4 CN 12 0 13 0
0

0101000
+58 0 -62 0 *
Wi

0101100
+60 0 +59 0 +72 0 +57 0 +56 0 *
Fa
0  1e-07 12 0

0111000
+55 0 *
Ed
 1e-07 1 1 0
1  24 0 1.57079632679489 3.14159265358979
2  35 13 0 1.57079632679489 3.14159265358979
2  36 14 0 1.57079632679489 3.14159265358979
4 C0 13 0 14 0
0

0101000
+58 0 -71 0 *
Ed
 1e-07 1 1 0
1  25 0 3.14159265358979 6.28318530717959
2  37 13 0 3.14159265358979 6.28318530717959
4 C0 13 0 3 0
0

0101000
+61 0 -62 0 *
Wi

0101100
+53 0 +70 0 -59 0 +52 0 -56 0 *
Fa
0  1e-07 13 0

0111000
+51 0 *
Ed
 1e-07 1 1 0
1  26 0 -6.42337850851582 6.4233785085158
4 C0 6 0 7 0
0

0101000
+95 0 -87 0 *
Ed
 1e-07 1 1 0
1  27 0 -6.4233785085159 6.4233785085159
4 C0 6 0 5 0
0

0101000
+85 0 -97 0 *
Wi

0101100
-84 0 -49 0 -94 0 -48 0 *
Fa
0  1e-07 6 0

0111000
+47 0 *
Ve
0.000159945009491699
4.45000000000002 7.70762609368151 14.6265550347931
0 0

0101101
*
Ed
 0.000159945009491699 1 1 0
1  28 0 23.3009364763943 27.4983404111235
2  38 9 0 23.3009364763943 27.4983404111235
4 C0 7 0 9 0
0

0101000
+45 0 -90 0 *
Ve
1e-07
4.45000000000002 7.70762609368151 1.77979801776149
0 0

0101101
*
Ed
 1e-07 1 1 0
1  29 0 -6.42337850851581 6.4233785085158
4 C0 7 0 15 0
0

0101000
+43 0 -45 0 *
Ed
 1e-07 1 1 0
1  30 0 3.14159265358979 3.49469636963276
2  39 2 0 3.14159265358979 3.49469636963276
4 C0 7 0 2 0
0

0101000
+105 0 -43 0 *
Wi

0101100
-44 0 -42 0 -41 0 -93 0 +49 0 -86 0 *
Fa
0  1e-07 7 0

0111000
+40 0 *
Ve
0.000157287546297319
8.90000000000001 0 14.6265550347931
0 0

0101101
*
Ed
 0.000157287546297319 1 1 0
1  31 0 23.3009364763944 31.6957443458528
2  40 9 0 23.3009364763944 31.6957443458528
4 C0 15 0 9 0
0

0101000
+38 0 -45 0 *
Ve
1e-07
8.90000000000001 0 1.7797980177614
0 0

0101101
*
Ed
 1e-07 1 1 0
1  32 0 -6.4233785085159 6.4233785085158
4 C0 15 0 16 0
0

0101000
+36 0 -38 0 *
Ed
 1e-07 1 1 0
1  33 0 2.78848893754682 3.49469636963275
2  41 2 0 2.78848893754682 3.49469636963275
4 C0 15 0 2 0
0

0101000
+43 0 -36 0 *
Wi

0101100
-37 0 -35 0 -34 0 +42 0 *
Fa
0  1e-07 15 0

0111000
+33 0 *
Ve
0.000159945009481222
4.44999999999999 -7.70762609368151 14.6265550347932
0 0

0101101
*
Ed
 0.000157287546290175 1 1 0
1  34 0 23.3009364763944 31.6957443458528
2  42 9 0 23.3009364763944 31.6957443458528
4 C0 16 0 9 0
0

0101000
+31 0 -38 0 *
Ve
1e-07
4.44999999999999 -7.70762609368151 1.7797980177613
0 0

0101101
*
Ed
 1e-07 1 1 0
1  35 0 -6.423378508516 6.4233785085159
4 C0 16 0 4 0
0

0101000
+29 0 -31 0 *
Ed
 1e-07 1 1 0
1  36 0 5.93008159113661 6.63628902322254
2  43 2 0 5.93008159113661 6.63628902322254
4 C0 16 0 2 0
0

0101000
+36 0 -29 0 *
Wi

0101100
-30 0 -28 0 -27 0 +35 0 *
Fa
0  1e-07 16 0

0111000
+26 0 *
Ed
 1e-07 1 1 0
1  37 0 -6.42337850851599 6.42337850851589
4 C0 4 0 5 0
0

0101000
+99 0 -83 0 *
Ed
 1e-07 1 1 0
1  38 0 5.93008159113663 6.28318530717959
2  44 2 0 5.93008159113663 6.28318530717959
4 C0 4 0 2 0
0

0101000
+29 0 -101 0 *
Ed
 0.000159945009481222 1 1 0
1  39 0 27.4983404111236 31.6957443458528
2  45 9 0 27.4983404111236 31.6957443458528
4 C0 4 0 9 0
0

0101000
+81 0 -31 0 *
Wi

0101100
-80 0 -24 0 -98 0 -23 0 +28 0 -22 0 *
Fa
0  1e-07 4 0

0111000
+21 0 *
Wi

0101100
-82 0 +48 0 -96 0 +24 0 *
Fa
0  1e-07 5 0

0111000
+19 0 *
Ed
 1e-07 1 1 0
1  40 0 0 3.14159265358979
2  46 14 0 0 3.14159265358979
4 C0 14 0 10 0
0

0101000
+67 0 -69 0 *
Wi

0101100
+17 0 -68 0 -53 0 -57 0 -65 0 *
Fa
0  1e-07 14 0

0111000
+16 0 *
Ed
 1e-07 1 1 0
1  41 0 0 3.14159265358979
2  47 9 0 0 3.14159265358979
4 G1 9 0 10 0
0

0101000
+79 0 -89 0 *
Wi

0101100
+88 0 -14 0 +78 0 +22 0 +30 0 +37 0 +44 0 *
Fa
0  1e-07 9 0

0111000
+13 0 *
Wi

0101100
+14 0 +77 0 *
Wi

0101100
+66 0 +17 0 *
Fa
0  1e-07 10 0

0111000
+11 0 +10 0 *
Ed
 1e-07 1 1 0
1  42 0 0 3.14159265358979
2  48 2 0 0 3.14159265358979
4 C0 3 0 2 0
0

0101000
+103 0 -106 0 *
Wi

0101100
-8 0 -102 0 *
Wi

0101100
+60 0 +52 0 *
Fa
0  1e-07 3 0

0111000
+7 0 +6 0 *
Wi

0101100
+104 0 +41 0 +34 0 +27 0 +23 0 +100 0 +8 0 *
Fa
0  1e-07 2 0

0111000
+4 0 *
Sh

0101100
+91 0 +75 0 -63 0 -54 0 -50 0 +46 0 +39 0 +32 0 +25 0 +20 0 
+18 0 -15 0 +12 0 +9 0 +5 0 +3 0 *
So

0100000
+2 0 *

+1 0 