DBRep_DrawableShape

CASCADE Topology V1, (c) Matra-Datavision
Locations 0
Curve2ds 50
1 6.2831853071795862 0 0 -1 
1 0 0 0 -1 
1 0 2 1 0 
1 3.1415926535897931 0 0 1 
1 3.1415926535897931 0 0 1 
1 6.2831853071795862 -2 -1 0 
1 6.2831853071795862 -0.70710678118654746 -1 0 
1 6.2831853071795862 6.5 -1 0 
1 3.1415926535897931 0 0 1 
1 3.1415926535897931 0 0 1 
1 3.1415926535897931 0.70710678118654746 -1 0 
1 0 0 0 -1 
1 6.2831853071795862 0 0 -1 
1 6.2831853071795862 -6.5 -1 0 
1 0 -0.70710678118654746 1 0 
1 3.1415926535897931 0 0 1 
1 3.1415926535897931 0 0 1 
1 0 0 0 -1 
1 6.2831853071795862 0 0 -1 
1 9.4247779607693793 0.70710678118654746 -1 0 
1 3.1415926535897931 2.2204460492503131e-16 0 -1 
1 3.1415926535897931 2.2204460492503131e-16 0 -1 
1 6.2831853071795862 -4.4408920985006262e-16 0 1 
1 0 -4.4408920985006262e-16 0 1 
1 0 -0.70710678118654746 1 0 
1 6.2831853071795862 -6.5 -1 0 
1 3.1415926535897931 0.70710678118654746 -1 0 
1 6.2831853071795862 6.5 -1 0 
1 6.2831853071795862 -0.70710678118654746 -1 0 
1 9.4247779607693793 0.70710678118654746 -1 0 
1 6.2831853071795862 -2 -1 0 
1 0 2 1 0 
7 0 0  3 25 23  5.7595865315812871 0.26564969113739156  5.7668139895968134 0.22255446824222269  5.7813411802420207 0.13862668372960602  5.8033465452003501 0.019373121294430796  5.8255643429649933 -0.093397391725747833  5.8479920820145965 -0.19982173628199484  5.8706270375135814 -0.30002557390867374  5.8934662149883446 -0.39412209956457117  5.9165063544587397 -0.48221291855728632  5.9397439245009078 -0.56438828221474324  5.9631751198438874 -0.64072742675133298  5.9867958589185335 -0.71129881872070755  6.0106017823797808 -0.77616036203248939  6.0345882523870289 -0.83535955352914182  6.0587503527566406 -0.88893359188077592  6.0830828900030713 -0.93690943899715606  6.1075803953262904 -0.97930383518351671  6.1322371275120311 -1.0161232642858764  6.1570470770083912 -1.0473638805190792  6.1820039703150043 -1.0730113493597628  6.2071012780003727 -1.0930407740914643  6.2323322140362016 -1.1074160593621425  6.2576897724264828 -1.116091121929905  6.2746743438348531 -1.1180330010684472  6.2831853071795871 -1.1180339887498949 
 1.2540983254609099 4 1.4743466820551931 1 1.6945950386494764 1 1.9148433952437596 1 2.1350917518380426 1 2.3553401084323262 1 2.575588465026609 1 2.7958368216208926 1 3.0160851782151754 1 3.2363335348094591 1 3.4565818914037418 1 3.6768302479980255 1 3.8970786045923083 1 4.1173269611865919 1 4.3375753177808747 1 4.5578236743751583 1 4.7780720309694411 1 4.9983203875637248 1 5.2185687441580075 1 5.4388171007522912 1 5.659065457346574 1 5.8793138139408567 1 6.0995621705351404 4
7 0 0  3 25 23  0 -1.1180339887498949  0.0085109633446875301 -1.1180330010684474  0.02549553475296451 -1.1160911219299268  0.050853093143103038 -1.1074160593622608  0.076084029178795004 -1.0930407740917398  0.10118133686402524 -1.0730113493602615  0.12613823017050432 -1.0473638805198595  0.15094817966673063 -1.0161232642870039  0.17560491185233812 -0.97930383518504782  0.20010241717543029 -0.93690943899915591  0.22443495442173278 -0.88893359188330412  0.24859705479122049 -0.83535955353226776  0.27258352479834352 -0.77616036203627514  0.29638944825947339 -0.71129881872521861  0.32001018733399861 -0.64072742675662919  0.34344138267686142 -0.56438828222090254  0.36667895271891754 -0.48221291856437193  0.3897190921892032 -0.39412209957266431  0.41255826966385667 -0.30002557391784251  0.43519322516273701 -0.19982173629232278  0.45762096421223619 -0.093397391737311222  0.47983876197678227 0.019373121281547515  0.50184412693500968 0.13862668371530756  0.51637131758015486 0.22255446822692285  0.52359877559564982 0.26564969112157727 
 6.0995621705351599 4 6.3198105271307341 1 6.5400588837263092 1 6.7603072403218833 1 6.9805555969174584 1 7.2008039535130326 1 7.4210523101086077 1 7.6413006667041818 1 7.8615490232997569 1 8.0817973798953311 1 8.3020457364909053 1 8.5222940930864794 1 8.7425424496820554 1 8.9627908062776296 1 9.1830391628732038 1 9.4032875194687797 1 9.6235358760643539 1 9.8437842326599281 1 10.064032589255502 1 10.284280945851076 1 10.504529302446652 1 10.724777659042227 1 10.945026015637801 4
7 0 0  3 25 23  4.7123889803846897 0.2656496911373884  4.7196164384002177 0.22255446824221981  4.7341436290454242 0.13862668372960299  4.7561489940037509 0.019373121294426591  4.778366791768395 -0.093397391725751802  4.8007945308179991 -0.19982173628199845  4.8234294863169849 -0.30002557390867851  4.8462686637917463 -0.39412209956457323  4.8693088032621432 -0.48221291855728698  4.8925463733043131 -0.5643882822147438  4.91597756864729 -0.64072742675133521  4.9395983077219343 -0.71129881872070866  4.9634042311831843 -0.77616036203249117  4.9873907011904297 -0.83535955352913938  5.0115528015600432 -0.88893359188077348  5.0358853388064713 -0.93690943899715418  5.0603828441296939 -0.97930383518351627  5.0850395763154346 -1.0161232642858771  5.109849525811792 -1.0473638805190768  5.1348064191184069 -1.0730113493597579  5.1599037268037735 -1.0930407740914672  5.1851346628396024 -1.1074160593621403  5.2104922212298836 -1.1160911219299054  5.227476792638253 -1.1180330010684478  5.2359877559829879 -1.1180339887498949 
 1.2540983254609099 4 1.4743466820551936 1 1.6945950386494772 1 1.9148433952437609 1 2.1350917518380443 1 2.355340108432328 1 2.5755884650266117 1 2.7958368216208953 1 3.016085178215179 1 3.2363335348094626 1 3.4565818914037463 1 3.6768302479980299 1 3.8970786045923136 1 4.1173269611865972 1 4.3375753177808809 1 4.5578236743751646 1 4.7780720309694482 1 4.9983203875637319 1 5.2185687441580155 1 5.4388171007522992 1 5.6590654573465828 1 5.8793138139408665 1 6.0995621705351502 4
7 0 0  3 25 23  5.2359877559829879 -1.1180339887498949  5.2444987193276749 -1.1180330010684469  5.2614832907359528 -1.1160911219299261  5.2868408491260919 -1.1074160593622597  5.312071785161784 -1.0930407740917405  5.3371690928470157 -1.0730113493602571  5.3621259861534938 -1.0473638805198582  5.3869359356497188 -1.0161232642870006  5.4115926678353263 -0.97930383518504693  5.4360901731584201 -0.93690943899915391  5.4604227104047229 -0.88893359188330001  5.4845848107742112 -0.83535955353226721  5.5085712807813323 -0.77616036203627181  5.5323772042424615 -0.71129881872521405  5.5559979433169868 -0.64072742675662986  5.5794291386598509 -0.56438828222090043  5.6026667087019053 -0.48221291856437554  5.6257068481721912 -0.3941220995726662  5.6485460256468452 -0.30002557391784906  5.6711809811457252 -0.19982173629232491  5.6936087201952246 -0.093397391737314261  5.7158265179597674 0.019373121281543889  5.7378318829179982 0.13862668371530318  5.7523590735631425 0.22255446822691818  5.7595865315786376 0.2656496911215725 
 6.0995621705351502 4 6.3198105271307252 1 6.5400588837263003 1 6.7603072403218754 1 6.9805555969174504 1 7.2008039535130255 1 7.4210523101086006 1 7.6413006667041756 1 7.8615490232997507 1 8.0817973798953258 1 8.3020457364908999 1 8.5222940930864759 1 8.7425424496820501 1 8.962790806277626 1 9.1830391628732002 1 9.4032875194687762 1 9.6235358760643503 1 9.8437842326599263 1 10.0640325892555 1 10.284280945851076 1 10.504529302446651 1 10.724777659042225 1 10.945026015637801 4
7 0 0  3 25 23  3.6651914291880923 0.26564969113739001  3.6724188872036185 0.22255446824221922  3.6869460778488272 0.13862668372960199  3.7089514428071531 0.019373121294430879  3.7311692405717989 -0.093397391725748957  3.7535969796213999 -0.19982173628199537  3.7762319351203879 -0.30002557390867457  3.7990711125951475 -0.39412209956457289  3.8221112520655458 -0.48221291855728227  3.8453488221077157 -0.56438828221474369  3.8687800174506921 -0.64072742675133065  3.892400756525336 -0.7112988187207081  3.9162066799865864 -0.77616036203248884  3.9401931499938336 -0.83535955352914049  3.9643552503634454 -0.88893359188077314  3.9886877876098739 -0.93690943899715384  4.0131852929330964 -0.97930383518351793  4.0378420251188345 -1.0161232642858744  4.0626519746151946 -1.0473638805190773  4.0876088679218077 -1.0730113493597584  4.112706175607177 -1.0930407740914643  4.137937111643005 -1.1074160593621414  4.1632946700332862 -1.116091121929903  4.1802792414416565 -1.1180330010684458  4.1887902047863914 -1.1180339887498949 
 1.2540983254608999 4 1.474346682055184 1 1.6945950386494681 1 1.9148433952437522 1 2.1350917518380363 1 2.3553401084323204 1 2.5755884650266045 1 2.7958368216208886 1 3.0160851782151727 1 3.2363335348094568 1 3.4565818914037409 1 3.676830247998025 1 3.8970786045923091 1 4.1173269611865937 1 4.3375753177808773 1 4.557823674375161 1 4.7780720309694455 1 4.9983203875637301 1 5.2185687441580138 1 5.4388171007522974 1 5.659065457346582 1 5.8793138139408665 1 6.0995621705351502 4
7 0 0  3 25 23  4.1887902047863914 -1.1180339887498949  4.1973011681310783 -1.1180330010684461  4.2142857395393554 -1.116091121929925  4.2396432979294927 -1.1074160593622597  4.2648742339651866 -1.0930407740917405  4.2899715416504165 -1.0730113493602571  4.3149284349568946 -1.0473638805198582  4.3397383844531197 -1.0161232642870006  4.364395116638728 -0.97930383518505071  4.3888926219618218 -0.93690943899915347  4.4132251592081229 -0.88893359188330678  4.4373872595776103 -0.83535955353226876  4.4613737295847349 -0.77616036203627403  4.4851796530458623 -0.71129881872521872  4.5088003921203885 -0.64072742675663308  4.5322315874632517 -0.56438828222090176  4.555469157505307 -0.48221291856437665  4.5785092969755929 -0.39412209957266509  4.6013484744502477 -0.30002557391785273  4.6239834299491269 -0.19982173629232591  4.6464111689986272 -0.093397391737316232  4.66862896676317 0.01937312128154331  4.6906343317214008 0.13862668371530271  4.7051615223665451 0.22255446822691963  4.7123889803820393 0.26564969112157566 
 6.0995621705351502 4 6.3198105271307252 1 6.5400588837263003 1 6.7603072403218754 1 6.9805555969174504 1 7.2008039535130255 1 7.4210523101086006 1 7.6413006667041756 1 7.8615490232997507 1 8.0817973798953258 1 8.3020457364908999 1 8.5222940930864759 1 8.7425424496820501 1 8.962790806277626 1 9.1830391628732002 1 9.4032875194687762 1 9.6235358760643503 1 9.8437842326599263 1 10.0640325892555 1 10.284280945851076 1 10.504529302446651 1 10.724777659042225 1 10.945026015637801 4
7 0 0  3 25 23  0.52359877559829915 0.26564969113739001  0.53082623361382553 0.22255446824221983  0.54535342425903399 0.13862668372960243  0.56735878921736005 0.019373121294428548  0.58957658698200599 -0.09339739172574954  0.61200432603160837 -0.19982173628199992  0.63463928153059479 -0.3000255739086749  0.65747845900535584 -0.39412209956457672  0.68051859847575324 -0.48221291855728599  0.703756168517922 -0.56438828221474402  0.72718736386090033 -0.64072742675133465  0.7508081029355439 -0.71129881872071077  0.774614026396794 -0.77616036203249283  0.79860049640403963 -0.83535955352914015  0.8227625967736526 -0.88893359188077803  0.84709513402008207 -0.93690943899715506  0.87159263934330355 -0.97930383518351805  0.89624937152904216 -1.0161232642858786  0.92105932102540211 -1.0473638805190784  0.94601621433201577 -1.0730113493597593  0.97111352201738332 -1.0930407740914694  0.99634445805321326 -1.1074160593621403  1.0217020164434927 -1.1160911219299035  1.0386865878518632 -1.1180330010684463  1.0471975511965979 -1.1180339887498949 
 1.2540983254609099 4 1.4743466820551936 1 1.6945950386494772 1 1.9148433952437609 1 2.1350917518380443 1 2.355340108432328 1 2.5755884650266117 1 2.7958368216208953 1 3.016085178215179 1 3.2363335348094626 1 3.4565818914037463 1 3.6768302479980299 1 3.8970786045923136 1 4.1173269611865972 1 4.3375753177808809 1 4.5578236743751646 1 4.7780720309694482 1 4.9983203875637319 1 5.2185687441580155 1 5.4388171007522992 1 5.6590654573465828 1 5.8793138139408665 1 6.0995621705351502 4
1 6.2831853071795862 -1.1180339887498949 -1 0 
7 0 0  3 25 23  1.5707963267948968 0.26564969113738524  1.578023784810423 0.22255446824221686  1.5925509754556317 0.13862668372959983  1.6145563404139571 0.019373121294423059  1.6367741381786038 -0.093397391725753634  1.6592018772282058 -0.19982173628199737  1.6818368327271922 -0.30002557390868084  1.7046760102019529 -0.39412209956457445  1.7277161496723503 -0.48221291855728909  1.7509537197145195 -0.56438828221474335  1.774384915057498 -0.64072742675133454  1.7980056541321408 -0.71129881872071166  1.8218115775933919 -0.77616036203248973  1.8457980476006377 -0.83535955352914282  1.8699601479702506 -0.88893359188077259  1.8942926852166795 -0.93690943899715395  1.9187901905399012 -0.97930383518351738  1.9434469227256403 -1.0161232642858768  1.9682568722219993 -1.0473638805190773  1.9932137655286142 -1.0730113493597557  2.0183110732139808 -1.0930407740914654  2.0435420092498116 -1.1074160593621389  2.0688995676400914 -1.1160911219299021  2.0858841390484617 -1.1180330010684434  2.0943951023931966 -1.11803398874989 
 1.2540983254608999 4 1.474346682055184 1 1.6945950386494681 1 1.9148433952437522 1 2.1350917518380363 1 2.3553401084323204 1 2.5755884650266045 1 2.7958368216208886 1 3.0160851782151727 1 3.2363335348094568 1 3.4565818914037409 1 3.676830247998025 1 3.8970786045923091 1 4.1173269611865937 1 4.3375753177808773 1 4.557823674375161 1 4.7780720309694455 1 4.9983203875637301 1 5.2185687441580138 1 5.4388171007522974 1 5.659065457346582 1 5.8793138139408665 1 6.0995621705351502 4
7 0 0  3 25 23  1.0471975511965979 -1.1180339887498949  1.0557085145412848 -1.1180330010684478  1.0726930859495614 -1.1160911219299272  1.0980506443397002 -1.1074160593622584  1.1232815803753919 -1.0930407740917396  1.1483788880606225 -1.0730113493602569  1.1733357813671013 -1.0473638805198597  1.1981457308633279 -1.0161232642869991  1.2228024630489351 -0.97930383518504749  1.2472999683720274 -0.93690943899915369  1.2716325056183297 -0.88893359188330445  1.2957946059878176 -0.83535955353226321  1.3197810759949402 -0.7761603620362737  1.3435869994560705 -0.71129881872521072  1.3672077385305952 -0.64072742675663208  1.3906389338734588 -0.56438828222089987  1.4138765039155143 -0.48221291856437082  1.4369166433858007 -0.39412209957266187  1.4597558208604537 -0.30002557391783802  1.4823907763593345 -0.19982173629232078  1.5048185154088336 -0.093397391737303784  1.5270363131733795 0.01937312128154552  1.5490416781316074 0.13862668371531003  1.5635688687767522 0.22255446822692651  1.5707963267922473 0.26564969112158043 
 6.0995621705351502 4 6.3198105271307252 1 6.5400588837263003 1 6.7603072403218754 1 6.9805555969174504 1 7.2008039535130255 1 7.4210523101086006 1 7.6413006667041756 1 7.8615490232997507 1 8.0817973798953258 1 8.3020457364908999 1 8.5222940930864759 1 8.7425424496820501 1 8.962790806277626 1 9.1830391628732002 1 9.4032875194687762 1 9.6235358760643503 1 9.8437842326599263 1 10.0640325892555 1 10.284280945851076 1 10.504529302446651 1 10.724777659042225 1 10.945026015637801 4
1 6.2831853071795862 -1.1180339887498949 -1 0 
7 0 0  3 25 23  2.617993877991494 0.26564969113739156  2.6252213360070202 0.22255446824221983  2.6397485266522285 0.13862668372960174  2.6617538916105548 0.019373121294430997  2.6839716893752015 -0.093397391725749151  2.706399428424803 -0.19982173628199473  2.7290343839237896 -0.3000255739086769  2.7518735613985505 -0.39412209956457389  2.7749137008689475 -0.48221291855728593  2.7981512709111169 -0.56438828221474746  2.8215824662540956 -0.64072742675133154  2.845203205328739 -0.71129881872070988  2.8690091287899886 -0.77616036203249006  2.8929955987972358 -0.83535955352914293  2.9171576991668471 -0.88893359188077115  2.9414902364132769 -0.9369094389971595  2.9659877417364995 -0.97930383518351605  2.9906444739222366 -1.0161232642858768  3.0154544234185972 -1.0473638805190784  3.0404113167252107 -1.0730113493597606  3.0655086244105787 -1.0930407740914641  3.0907395604464081 -1.1074160593621409  3.1160971188366888 -1.116091121929905  3.1330816902450587 -1.1180330010684474  3.1415926535897931 -1.1180339887498949 
 1.2540983254608999 4 1.474346682055184 1 1.6945950386494681 1 1.9148433952437522 1 2.1350917518380363 1 2.3553401084323204 1 2.5755884650266045 1 2.7958368216208886 1 3.0160851782151727 1 3.2363335348094568 1 3.4565818914037409 1 3.676830247998025 1 3.8970786045923091 1 4.1173269611865937 1 4.3375753177808773 1 4.557823674375161 1 4.7780720309694455 1 4.9983203875637301 1 5.2185687441580138 1 5.4388171007522974 1 5.659065457346582 1 5.8793138139408665 1 6.0995621705351502 4
7 0 0  3 25 23  2.0943951023931966 -1.11803398874989  2.102906065737884 -1.1180330010684407  2.1198906371461614 -1.1160911219299199  2.1452481955362992 -1.1074160593622573  2.1704791315719913 -1.0930407740917372  2.1955764392572226 -1.0730113493602531  2.2205333325637007 -1.0473638805198575  2.2453432820599266 -1.0161232642869971  2.270000014245535 -0.97930383518504693  2.2944975195686266 -0.93690943899915302  2.3188300568149289 -0.88893359188330301  2.3429921571844168 -0.83535955353226554  2.3669786271915387 -0.77616036203627081  2.3907845506526697 -0.71129881872521483  2.4144052897271933 -0.64072742675663208  2.4378364850700578 -0.56438828222090032  2.4610740551121126 -0.4822129185643742  2.4841141945823986 -0.39412209957266686  2.5069533720570516 -0.30002557391784784  2.5295883275559317 -0.19982173629232447  2.5520160666054315 -0.093397391737317259  2.574233864369976 0.019373121281545915  2.5962392293282042 0.13862668371530282  2.6107664199733489 0.2225544682269176  2.6179938779888441 0.2656496911215725 
 6.0995621705351502 4 6.3198105271307252 1 6.5400588837263003 1 6.7603072403218754 1 6.9805555969174504 1 7.2008039535130255 1 7.4210523101086006 1 7.6413006667041756 1 7.8615490232997507 1 8.0817973798953258 1 8.3020457364908999 1 8.5222940930864759 1 8.7425424496820501 1 8.962790806277626 1 9.1830391628732002 1 9.4032875194687762 1 9.6235358760643503 1 9.8437842326599263 1 10.0640325892555 1 10.284280945851076 1 10.504529302446651 1 10.724777659042225 1 10.945026015637801 4
1 6.2831853071795862 -1.1180339887498949 -1 0 
7 0 0  3 25 23  3.1415926535897931 -1.1180339887498949  3.15010361693448 -1.1180330010684452  3.167088188342758 -1.1160911219299243  3.1924457467328962 -1.1074160593622626  3.2176766827685879 -1.0930407740917396  3.2427739904538186 -1.0730113493602573  3.2677308837602981 -1.0473638805198577  3.292540833256524 -1.0161232642870013  3.3171975654421311 -0.97930383518504815  3.3416950707652244 -0.9369094389991528  3.3660276080115255 -0.88893359188330268  3.3901897083810151 -0.83535955353226732  3.4141761783881361 -0.77616036203627281  3.4379821018492667 -0.7112988187252145  3.4616028409237911 -0.64072742675663219  3.4850340362666543 -0.56438828222090021  3.5082716063087109 -0.48221291856437459  3.5313117457789964 -0.39412209957266564  3.554150923253649 -0.30002557391784324  3.5767858787525304 -0.19982173629232508  3.5992136178020293 -0.093397391737309876  3.6214314155665739 0.019373121281545575  3.6434367805248038 0.13862668371530634  3.6579639711699481 0.22255446822692232  3.6651914291854428 0.26564969112157727 
 6.0995621705351502 4 6.3198105271307252 1 6.5400588837263003 1 6.7603072403218754 1 6.9805555969174504 1 7.2008039535130255 1 7.4210523101086006 1 7.6413006667041756 1 7.8615490232997507 1 8.0817973798953258 1 8.3020457364908999 1 8.5222940930864759 1 8.7425424496820501 1 8.962790806277626 1 9.1830391628732002 1 9.4032875194687762 1 9.6235358760643503 1 9.8437842326599263 1 10.0640325892555 1 10.284280945851076 1 10.504529302446651 1 10.724777659042225 1 10.945026015637801 4
1 6.2831853071795862 -1.1180339887498949 -1 0 
1 6.2831853071795862 -1.1180339887498949 -1 0 
1 6.2831853071795862 -1.1180339887498949 -1 0 
Curves 50
1 2.0206004838069201e-15 11 2 0 0 1 
2 0 0 0 0 0 -1 6.12303176911189e-17 1 0 1 -6.12303176911189e-17 0 11
1 -2.0206004838069201e-15 -11 2 -0 -0 -1 
2 0 0 4 0 -0 1 6.12303176911189e-17 1 0 -1 6.12303176911189e-17 0 11
2 -2.5716733430269899e-15 1.5746437579132399e-31 14 1.8369095307335701e-16 -1.1247455413666101e-32 -1 -6.12303176911189e-17 -1 3.6948299352314513e-47 -1 6.12303176911189e-17 -1.8369095307335701e-16 4
1 -2.9390552491737102e-15 4.5 14.5 -1.7318549141438701e-16 0.70710678118654702 0.70710678118654802 
2 -2.75536429610035e-15 1.6871183120499e-31 15 0 0 -1 6.12303176911189e-17 1 0 1 -6.12303176911189e-17 0 5
1 -2.38798238995364e-15 -4.5 14.5 8.6592745707193603e-17 0.70710678118654702 -0.70710678118654802 
2 -1.8369095307335701e-16 1.1247455413665999e-32 1 1.8369095307335701e-16 -1.1247455413666101e-32 -1 -6.12303176911189e-17 -1 3.6948299352314513e-47 -1 6.12303176911189e-17 -1.8369095307335701e-16 4
1 -1.6226034188146501e-15 4 7.5 -1.8369095307335701e-16 1.1247455413665999e-32 1 
1 -1.1327608772856999e-15 -4 7.5 1.8369095307335701e-16 -1.1247455413665999e-32 -1 
2 0 0 0 0 -0 1 6.12303176911189e-17 1 0 -1 6.12303176911189e-17 0 5
1 -3.6738190614671298e-16 4.5 0.5 -8.6592745707193603e-17 -0.70710678118654702 0.70710678118654802 
1 1.8369095307335701e-16 -4.5 0.5 1.7318549141438701e-16 -0.70710678118654702 -0.70710678118654802 
2 -1.8369095307335701e-16 1.1247455413665999e-32 1 1.8369095307335701e-16 -1.1247455413666101e-32 -1 -6.12303176911189e-17 -1 3.6948299352314513e-47 -1 6.12303176911189e-17 -1.8369095307335701e-16 4
2 0 0 0 0 -0 1 6.12303176911189e-17 1 0 -1 6.12303176911189e-17 0 5
2 -2.5716733430269899e-15 1.5746437579132399e-31 14 1.8369095307335701e-16 -1.1247455413666101e-32 -1 -6.12303176911189e-17 -1 3.6948299352314513e-47 -1 6.12303176911189e-17 -1.8369095307335701e-16 4
2 -2.75536429610035e-15 1.6871183120499e-31 15 0 0 -1 6.12303176911189e-17 1 0 1 -6.12303176911189e-17 0 5
2 0 0 4 0 -0 1 6.12303176911189e-17 1 0 -1 6.12303176911189e-17 0 11
1 2.3094010767584998 -8 4 1 -1.57378452010297e-16 0 
1 -5.77350269189626 -6 4 0.49999999999999989 -0.86602540378443882 0 
1 -8.0829037686547593 2 4 -0.49999999999999989 -0.86602540378443882 0 
1 2.7973977651892202e-15 8 4 -1 6.3811912360618697e-16 0 
1 5.77350269189626 6 4 -0.49999999999999989 0.86602540378443882 0 
1 8.0829037686547593 -2 4 0.50000000000000033 0.86602540378443849 -0 
2 0 0 0 0 0 -1 6.12303176911189e-17 1 0 1 -6.12303176911189e-17 0 11
1 -4.6188021535170103 8 0 0 0 1 
7 1 0  2 3 2  -4.6188021535170103 8 14.381197846482999  1.0198154186492301 -2.1435935394489798 8 15  1.0481881585886501 5.1049529888494997e-15 8 15  1
 1.2540983254609099 3 6.0995621705351404 3
7 1 0  2 3 2  5.1049529888494997e-15 8 15  1 2.14359353943762 8 15  1.0481881585883801 4.6188021534887502 8 14.3811978464901  1.0198154186495401
 6.0995621705351599 3 10.945026015637801 3
1 4.6188021535170103 8 0 0 0 1 
1 -9.2376043070340099 5.6562144642453996e-16 0 0 0 1 
7 1 0  2 3 2  -9.2376043070340099 2.9937901132766802e-15 14.381197846482999  1.0198154186492301 -8 2.14359353944899 15  1.0481881585886601 -6.9282032302755097 4 15  1
 1.2540983254609099 3 6.0995621705351502 3
7 1 0  2 3 2  -6.9282032302755097 4 15  1 -5.8564064605566903 5.8564064605411899 15  1.0481881585884001 -4.6188021535311403 7.99999999997552 14.3811978464901  1.0198154186495501
 6.0995621705351502 3 10.945026015637801 3
1 -4.6188021535170103 -8 0 0 0 1 
7 1 0  2 3 2  -4.6188021535170103 -8 14.381197846482999  1.0198154186492301 -5.8564064605510202 -5.8564064605510202 15  1.0481881585886601 -6.9282032302755097 -4 15  1
 1.2540983254608999 3 6.0995621705351502 3
7 1 0  2 3 2  -6.9282032302755097 -4 15  1 -7.9999999999943201 -2.1435935394588199 15  1.0481881585883901 -9.2376043070198808 -2.4477227966142601e-11 14.3811978464901  1.0198154186495401
 6.0995621705351502 3 10.945026015637801 3
7 1 0  2 3 2  4.6188021535170103 8 14.381197846482999  1.0198154186492301 5.8564064605510202 5.8564064605510104 15  1.0481881585886601 6.9282032302755097 4 15  1
 1.2540983254609099 3 6.0995621705351502 3
2 0 0 15 0 -0 1 6.12303176911189e-17 1 0 -1 6.12303176911189e-17 0 8
7 1 0  2 3 2  9.2376043070340099 -2.4494646381354599e-15 14.381197846482999  1.0198154186492301 8 -2.1435935394489798 15  1.0481881585886601 6.9282032302755097 -4.0000000000000098 15  1
 1.2540983254608999 3 6.0995621705351502 3
7 1 0  2 3 2  6.9282032302755097 4 15  1 7.9999999999943201 2.1435935394588301 15  1.0481881585883801 9.2376043070198897 2.44718935764863e-11 14.3811978464901  1.0198154186495401
 6.0995621705351502 3 10.945026015637801 3
2 0 0 15 0 -0 1 6.12303176911189e-17 1 0 -1 6.12303176911189e-17 0 8
7 1 0  2 3 2  4.6188021535170103 -8 14.381197846482999  1.0198154186492301 2.1435935394489798 -8 15  1.0481881585886601 -1.1842378929335e-15 -8 15  1
 1.2540983254608999 3 6.0995621705351502 3
7 1 0  2 3 2  6.9282032302755097 -4.0000000000000098 15  1 5.8564064605566903 -5.8564064605411899 15  1.0481881585883901 4.6188021535311403 -7.99999999997552 14.3811978464901  1.0198154186495401
 6.0995621705351502 3 10.945026015637801 3
2 0 0 15 0 -0 1 6.12303176911189e-17 1 0 -1 6.12303176911189e-17 0 8
7 1 0  2 3 2  -1.1842378929335e-15 -8 15  1 -2.1435935394376302 -8 15  1.0481881585883901 -4.6188021534887502 -8 14.3811978464901  1.0198154186495401
 6.0995621705351502 3 10.945026015637801 3
2 0 0 15 0 -0 1 6.12303176911189e-17 1 0 -1 6.12303176911189e-17 0 8
2 0 0 15 0 -0 1 6.12303176911189e-17 1 0 -1 6.12303176911189e-17 0 8
2 0 0 15 0 -0 1 6.12303176911189e-17 1 0 -1 6.12303176911189e-17 0 8
1 4.6188021535170103 -8 0 0 0 1 
1 9.2376043070340206 -3.2301567055249201e-15 0 0 0 1 
Polygon3D 0
PolygonOnTriangulations 0
Surfaces 23
2 0 0 2 0 0 -1 6.12303176911189e-17 1 0 1 -6.12303176911189e-17 0 11
2 0 0 2 0 0 -1 6.12303176911189e-17 1 0 1 -6.12303176911189e-17 0 11
1 1.7763568394002501e-15 2.2204460492503101e-16 0 -0 0 1 1 0 0 0 1 -0 
1 0 0 4 -0 0 1 1 0 0 0 1 -0 
3 -2.6635188195636701e-15 1.6308810349815701e-31 14.5 -1.8369095307335701e-16 1.1247455413666101e-32 1 -6.12303176911189e-17 -1 3.6948299352314513e-47 1 -6.12303176911189e-17 1.8369095307335701e-16 4.5
0.78539816339744795
2 -1.3776821480501701e-15 8.4355915602495198e-32 7.5 -1.8369095307335701e-16 1.1247455413666101e-32 1 -6.12303176911189e-17 -1 3.6948299352314513e-47 1 -6.12303176911189e-17 1.8369095307335701e-16 4
3 -2.6635188195636701e-15 1.6308810349815701e-31 14.5 -1.8369095307335701e-16 1.1247455413666101e-32 1 -6.12303176911189e-17 -1 3.6948299352314513e-47 1 -6.12303176911189e-17 1.8369095307335701e-16 4.5
0.78539816339744795
1 1.7763568394002501e-15 2.2204460492503101e-16 15 -0 0 1 1 0 0 0 1 -0 
3 -9.1845476536678294e-17 5.6237277068330202e-33 0.5 1.8369095307335701e-16 -1.1247455413666101e-32 -1 -6.12303176911189e-17 -1 3.6948299352314513e-47 -1 6.12303176911189e-17 -1.8369095307335701e-16 4.5
0.78539816339744795
2 -1.3776821480501701e-15 8.4355915602495198e-32 7.5 -1.8369095307335701e-16 1.1247455413666101e-32 1 -6.12303176911189e-17 -1 3.6948299352314513e-47 1 -6.12303176911189e-17 1.8369095307335701e-16 4
3 -9.1845476536678294e-17 5.6237277068330202e-33 0.5 1.8369095307335701e-16 -1.1247455413666101e-32 -1 -6.12303176911189e-17 -1 3.6948299352314513e-47 -1 6.12303176911189e-17 -1.8369095307335701e-16 4.5
0.78539816339744795
1 4.6188021535170103 -8 0 -1.57378452010297e-16 -1 0 -1 1.57378452010297e-16 0 -0 0 -1 
1 -4.6188021535170103 -8 0 -0.86602540378443882 -0.49999999999999989 0 -0.49999999999999989 0.86602540378443882 0 -0 0 -1 
1 -9.2376043070340099 5.6562144642453996e-16 0 -0.86602540378443882 0.49999999999999989 0 0 0 1 0.49999999999999989 0.86602540378443882 -0 
1 4.89842541528951e-16 8 0 2.5983956480965101e-46 1 4.0719601591192804e-31 0 4.0719601591192804e-31 -1 -1 2.5983956480965101e-46 1.0580563556677911e-76 
1 4.6188021535170103 8 0 0.86602540378443882 0.49999999999999989 0 0 0 -1 -0.49999999999999989 0.86602540378443882 0 
1 9.2376043070340206 -3.2301567055249201e-15 0 0.86602540378443849 -0.50000000000000033 0 0 0 -1 0.50000000000000033 0.86602540378443849 0 
3 3.0615158845559401e-17 -1.8745759022776701e-33 14.5 6.12303176911189e-17 -3.7491518045553498e-33 -1 6.12303176911189e-17 1 -1.3684555315672042e-48 1 -6.12303176911189e-17 6.12303176911189e-17 9
1.10714871779409
3 3.0615158845559401e-17 -1.8745759022776701e-33 14.5 6.12303176911189e-17 -3.7491518045553498e-33 -1 6.12303176911189e-17 1 -1.3684555315672042e-48 1 -6.12303176911189e-17 6.12303176911189e-17 9
1.10714871779409
3 3.0615158845559401e-17 -1.8745759022776701e-33 14.5 6.12303176911189e-17 -3.7491518045553498e-33 -1 6.12303176911189e-17 1 -1.3684555315672042e-48 1 -6.12303176911189e-17 6.12303176911189e-17 9
1.10714871779409
3 3.0615158845559401e-17 -1.8745759022776701e-33 14.5 6.12303176911189e-17 -3.7491518045553498e-33 -1 6.12303176911189e-17 1 -1.3684555315672042e-48 1 -6.12303176911189e-17 6.12303176911189e-17 9
1.10714871779409
3 3.0615158845559401e-17 -1.8745759022776701e-33 14.5 6.12303176911189e-17 -3.7491518045553498e-33 -1 6.12303176911189e-17 1 -1.3684555315672042e-48 1 -6.12303176911189e-17 6.12303176911189e-17 9
1.10714871779409
3 3.0615158845559401e-17 -1.8745759022776701e-33 14.5 6.12303176911189e-17 -3.7491518045553498e-33 -1 6.12303176911189e-17 1 -1.3684555315672042e-48 1 -6.12303176911189e-17 6.12303176911189e-17 9
1.10714871779409
Triangulations 0

TShapes 131
Ve
1e-07
6.73533494602307e-16 11 0
0 0

0101101
*
Ve
1e-07
6.73533494602307e-16 11 4
0 0

0101101
*
Ed
 1e-07 1 1 0
1  1 0 -2 2
2  1 1 0 -2 2
2  2 2 0 -2 2
4 CN 1 0 2 0
0

0101000
+131 0 -130 0 *
Ve
1e-07
-2.02060048380692e-15 -11 0
0 0

0101101
*
Ed
 1e-07 1 1 0
1  2 0 3.14159265358979 6.28318530717959
2  3 1 0 3.14159265358979 6.28318530717959
4 C0 1 0 3 0
0

0101000
+128 0 -131 0 *
Ve
1e-07
-2.02060048380692e-15 -11 4
0 0

0101101
*
Ed
 1e-07 1 1 0
1  3 0 -2 2
2  4 1 0 -2 2
2  5 2 0 -2 2
4 CN 1 0 2 0
0

0101000
+126 0 -128 0 *
Ed
 1e-07 1 1 0
1  4 0 0 3.14159265358979
2  6 1 0 0 3.14159265358979
4 C0 1 0 4 0
0

0101000
+130 0 -126 0 *
Wi

0101100
-129 0 -127 0 -125 0 -124 0 *
Fa
0  1e-07 1 0

0111000
+123 0 *
Ve
1e-07
-2.81659461379147e-15 4 14
0 0

0101101
*
Ve
1e-07
-2.81659461379147e-15 -4 14
0 0

0101101
*
Ed
 1e-07 1 1 0
1  5 0 3.14159265358979 6.28318530717959
2  7 5 0 3.14159265358979 6.28318530717959
2  8 6 0 3.14159265358979 6.28318530717959
4 C0 5 0 6 0
0

0101000
+121 0 -120 0 *
Ve
1e-07
-2.44921270764475e-15 5 15
0 0

0101101
*
Ed
 1e-07 1 1 0
1  6 0 -0.707106781186547 0.707106781186547
2  9 5 0 -0.707106781186547 0.707106781186547
2  10 7 0 -0.707106781186547 0.707106781186547
4 CN 5 0 7 0
0

0101000
+121 0 -118 0 *
Ve
1e-07
-2.44921270764475e-15 -5 15
0 0

0101101
*
Ed
 1e-07 1 1 0
1  7 0 0 3.14159265358979
2  11 5 0 0 3.14159265358979
4 C0 5 0 8 0
0

0101000
+118 0 -116 0 *
Ed
 1e-07 1 1 0
1  8 0 -0.707106781186547 0.707106781186547
2  12 5 0 -0.707106781186547 0.707106781186547
2  13 7 0 -0.707106781186547 0.707106781186547
4 CN 5 0 7 0
0

0101000
+116 0 -120 0 *
Wi

0101100
-119 0 +117 0 +115 0 +114 0 *
Fa
0  1e-07 5 0

0111000
+113 0 *
Ve
1e-07
-4.28612223837832e-16 4 1
0 0

0101101
*
Ve
1e-07
-4.28612223837832e-16 -4 1
0 0

0101101
*
Ed
 1e-07 1 1 0
1  9 0 3.14159265358979 6.28318530717959
2  14 6 0 3.14159265358979 6.28318530717959
2  15 9 0 3.14159265358979 6.28318530717959
4 C0 6 0 9 0
0

0101000
+111 0 -110 0 *
Ed
 1e-07 1 1 0
1  10 0 -6.5 6.5
2  16 6 0 -6.5 6.5
2  17 10 0 -6.5 6.5
4 CN 6 0 10 0
0

0101000
+111 0 -121 0 *
Ed
 1e-07 1 1 0
1  11 0 -6.5 6.5
2  18 6 0 -6.5 6.5
2  19 10 0 -6.5 6.5
4 CN 6 0 10 0
0

0101000
+120 0 -110 0 *
Wi

0101100
-109 0 +108 0 +119 0 +107 0 *
Fa
0  1e-07 6 0

0111000
+106 0 *
Ve
1e-07
3.06151588455594e-16 -5 0
0 0

0101101
*
Ve
1e-07
3.06151588455594e-16 5 0
0 0

0101101
*
Ed
 1e-07 1 1 0
1  12 0 3.14159265358979 6.28318530717959
2  20 9 0 3.14159265358979 6.28318530717959
4 C0 9 0 3 0
0

0101000
+104 0 -103 0 *
Ed
 1e-07 1 1 0
1  13 0 -0.707106781186547 0.707106781186547
2  21 9 0 -0.707106781186547 0.707106781186547
2  22 11 0 -0.707106781186547 0.707106781186547
4 CN 9 0 11 0
0

0101000
+103 0 -111 0 *
Ed
 1e-07 1 1 0
1  14 0 -0.707106781186547 0.707106781186547
2  23 9 0 -0.707106781186547 0.707106781186547
2  24 11 0 -0.707106781186547 0.707106781186547
4 CN 9 0 11 0
0

0101000
+110 0 -104 0 *
Wi

0101100
+102 0 +101 0 +109 0 +100 0 *
Fa
0  1e-07 9 0

0111000
+99 0 *
Ed
 1e-07 1 1 0
1  15 0 0 3.14159265358979
2  25 11 0 0 3.14159265358979
2  26 10 0 0 3.14159265358979
4 C0 11 0 10 0
0

0101000
+110 0 -111 0 *
Ed
 1e-07 1 1 0
1  16 0 0 3.14159265358979
2  27 11 0 0 3.14159265358979
4 C0 11 0 3 0
0

0101000
+103 0 -104 0 *
Wi

0101100
+97 0 -101 0 +96 0 -100 0 *
Fa
0  1e-07 11 0

0111000
+95 0 *
Ed
 1e-07 1 1 0
1  17 0 0 3.14159265358979
2  28 10 0 0 3.14159265358979
2  29 7 0 0 3.14159265358979
4 C0 10 0 7 0
0

0101000
+120 0 -121 0 *
Wi

0101100
+93 0 -108 0 -97 0 -107 0 *
Fa
0  1e-07 10 0

0111000
+92 0 *
Ed
 1e-07 1 1 0
1  18 0 3.14159265358979 6.28318530717959
2  30 7 0 3.14159265358979 6.28318530717959
4 C0 7 0 8 0
0

0101000
+116 0 -118 0 *
Wi

0101100
+90 0 -117 0 -93 0 -114 0 *
Fa
0  1e-07 7 0

0111000
+89 0 *
Ed
 1e-07 1 1 0
1  19 0 3.14159265358979 6.28318530717959
2  31 2 0 3.14159265358979 6.28318530717959
4 C0 4 0 2 0
0

0101000
+126 0 -130 0 *
Wi

0101100
+124 0 +87 0 *
Ve
1e-07
-4.61880215351701 -8 4
0 0

0101101
*
Ve
1e-07
4.61880215351701 -8 4
0 0

0101101
*
Ed
 1e-07 1 1 0
1  20 0 -6.92820323027551 2.30940107675851
4 C0 4 0 12 0
0

0101000
+85 0 -84 0 *
Ve
1e-07
-9.23760430703401 5.6562144642454e-16 4
0 0

0101101
*
Ed
 1e-07 1 1 0
1  21 0 -6.92820323027551 2.3094010767585
4 C0 4 0 13 0
0

0101000
+82 0 -85 0 *
Ve
1e-07
-4.61880215351701 8 4
0 0

0101101
*
Ed
 1e-07 1 1 0
1  22 0 -6.92820323027551 2.3094010767585
4 C0 4 0 14 0
0

0101000
+80 0 -82 0 *
Ve
1e-07
4.61880215351701 8 4
0 0

0101101
*
Ed
 1e-07 1 1 0
1  23 0 -4.61880215351701 4.61880215351701
4 C0 4 0 15 0
0

0101000
+78 0 -80 0 *
Ve
1e-07
9.23760430703402 -3.23015670552492e-15 4
0 0

0101101
*
Ed
 1e-07 1 1 0
1  24 0 -6.92820323027552 2.3094010767585
4 C0 4 0 16 0
0

0101000
+76 0 -78 0 *
Ed
 1e-07 1 1 0
1  25 0 -6.92820323027551 2.30940107675851
4 C0 4 0 17 0
0

0101000
+84 0 -76 0 *
Wi

0101100
-83 0 -81 0 -79 0 -77 0 -75 0 -74 0 *
Fa
0  1e-07 4 0

0111000
+86 0 +73 0 *
Ed
 1e-07 1 1 0
1  26 0 0 3.14159265358979
2  32 2 0 0 3.14159265358979
4 C0 2 0 3 0
0

0101000
+131 0 -128 0 *
Wi

0101100
+129 0 -87 0 +125 0 -71 0 *
Fa
0  1e-07 2 0

0111000
+70 0 *
Ve
1e-07
-4.61880215351701 8 14.381197846483
0 0

0101101
*
Ed
 1e-07 1 1 0
1  27 0 4 14.381197846483
4 C0 15 0 14 0
0

0101000
+80 0 -68 0 *
Ve
1e-07
4.89842541528951e-16 8 15
0 0

0101101
*
Ed
 1e-07 1 1 0
1  28 0 1.25409832546091 6.09956217053514
2  33 18 0 1.25409832546091 6.09956217053514
4 C0 15 0 18 0
0

0101000
+68 0 -66 0 *
Ve
1e-07
4.61880215351701 8 14.381197846483
0 0

0101101
*
Ed
 1e-07 1 1 0
1  29 0 6.09956217053516 10.9450260156378
2  34 19 0 6.09956217053516 10.9450260156378
4 C0 15 0 19 0
0

0101000
+66 0 -64 0 *
Ed
 1e-07 1 1 0
1  30 0 4 14.381197846483
4 C0 15 0 16 0
0

0101000
+78 0 -64 0 *
Wi

0101100
+77 0 +67 0 +65 0 +63 0 -62 0 *
Fa
0  1e-07 15 0

0111000
+61 0 *
Ve
1e-07
-9.23760430703401 5.6562144642454e-16 14.381197846483
0 0

0101101
*
Ed
 1e-07 1 1 0
1  31 0 4 14.381197846483
4 C0 14 0 13 0
0

0101000
+82 0 -59 0 *
Ve
1e-07
-6.92820323027551 4 15
0 0

0101101
*
Ed
 1e-07 1 1 0
1  32 0 1.25409832546091 6.09956217053515
2  35 20 0 1.25409832546091 6.09956217053515
4 C0 14 0 20 0
0

0101000
+59 0 -57 0 *
Ed
 1e-07 1 1 0
1  33 0 6.09956217053515 10.9450260156378
2  36 18 0 6.09956217053515 10.9450260156378
4 C0 14 0 18 0
0

0101000
+57 0 -68 0 *
Wi

0101100
+79 0 +58 0 +56 0 +55 0 -67 0 *
Fa
0  1e-07 14 0

0111000
+54 0 *
Ve
1e-07
-4.61880215351701 -8 14.381197846483
0 0

0101101
*
Ed
 1e-07 1 1 0
1  34 0 4 14.381197846483
4 C0 13 0 12 0
0

0101000
+85 0 -52 0 *
Ve
1e-07
-6.92820323027551 -4 15
0 0

0101101
*
Ed
 1e-07 1 1 0
1  35 0 1.2540983254609 6.09956217053515
2  37 21 0 1.2540983254609 6.09956217053515
4 C0 13 0 21 0
0

0101000
+52 0 -50 0 *
Ed
 1e-07 1 1 0
1  36 0 6.09956217053515 10.9450260156378
2  38 20 0 6.09956217053515 10.9450260156378
4 C0 13 0 20 0
0

0101000
+50 0 -59 0 *
Wi

0101100
+81 0 +51 0 +49 0 +48 0 -58 0 *
Fa
0  1e-07 13 0

0111000
+47 0 *
Ve
1e-07
6.92820323027551 4 15
0 0

0101101
*
Ed
 1e-07 1 1 0
1  37 0 1.25409832546091 6.09956217053515
2  39 19 0 1.25409832546091 6.09956217053515
4 C0 19 0 16 0
0

0101000
+64 0 -45 0 *
Ed
 1e-07 1 1 0
1  38 0 5.23598775598299 6.28318530717959
2  40 19 0 5.23598775598299 6.28318530717959
4 C0 19 0 8 0
0

0101000
+45 0 -66 0 *
Wi

0101100
-44 0 -63 0 -43 0 *
Fa
0  1e-07 19 0

0111000
+42 0 *
Ve
1e-07
9.23760430703402 -3.23015670552492e-15 14.381197846483
0 0

0101101
*
Ve
1e-07
6.92820323027551 -4.00000000000001 15
0 0

0101101
*
Ed
 1e-07 1 1 0
1  39 0 1.2540983254609 6.09956217053515
2  41 22 0 1.2540983254609 6.09956217053515
4 C0 22 0 17 0
0

0101000
+40 0 -39 0 *
Ed
 1e-07 1 1 0
1  40 0 6.09956217053515 10.9450260156378
2  42 22 0 6.09956217053515 10.9450260156378
4 C0 22 0 16 0
0

0101000
+45 0 -40 0 *
Ed
 1e-07 1 1 0
1  41 0 4.18879020478639 5.23598775598299
2  43 22 0 4.18879020478639 5.23598775598299
4 C0 22 0 8 0
0

0101000
+39 0 -45 0 *
Wi

0101100
-38 0 -37 0 -36 0 *
Fa
0  1e-07 22 0

0111000
+35 0 *
Ve
1e-07
4.61880215351701 -8 14.381197846483
0 0

0101101
*
Ve
1e-07
-1.33226762955019e-15 -8 15
0 0

0101101
*
Ed
 1e-07 1 1 0
1  42 0 1.2540983254609 6.09956217053515
2  44 23 0 1.2540983254609 6.09956217053515
4 C0 23 0 12 0
0

0101000
+33 0 -32 0 *
Ed
 1e-07 1 1 0
1  43 0 6.09956217053515 10.9450260156378
2  45 23 0 6.09956217053515 10.9450260156378
4 C0 23 0 17 0
0

0101000
+39 0 -33 0 *
Ed
 1e-07 1 1 0
1  44 0 3.14159265358979 4.18879020478639
2  46 23 0 3.14159265358979 4.18879020478639
4 C0 23 0 8 0
0

0101000
+32 0 -39 0 *
Wi

0101100
-31 0 -30 0 -29 0 *
Fa
0  1e-07 23 0

0111000
+28 0 *
Ed
 1e-07 1 1 0
1  45 0 6.09956217053515 10.9450260156378
2  47 21 0 6.09956217053515 10.9450260156378
4 C0 21 0 12 0
0

0101000
+32 0 -52 0 *
Ed
 1e-07 1 1 0
1  46 0 2.0943951023932 3.14159265358979
2  48 21 0 2.0943951023932 3.14159265358979
4 C0 21 0 8 0
0

0101000
+50 0 -32 0 *
Wi

0101100
-26 0 -25 0 -49 0 *
Fa
0  1e-07 21 0

0111000
+24 0 *
Ed
 1e-07 1 1 0
1  47 0 1.0471975511966 2.0943951023932
2  49 20 0 1.0471975511966 2.0943951023932
4 C0 20 0 8 0
0

0101000
+57 0 -50 0 *
Wi

0101100
-48 0 -22 0 -56 0 *
Fa
0  1e-07 20 0

0111000
+21 0 *
Ed
 1e-07 1 1 0
1  48 0 0 1.0471975511966
2  50 18 0 0 1.0471975511966
4 C0 18 0 8 0
0

0101000
+66 0 -57 0 *
Wi

0101100
-55 0 -19 0 -65 0 *
Fa
0  1e-07 18 0

0111000
+18 0 *
Ed
 1e-07 1 1 0
1  49 0 4 14.381197846483
4 C0 12 0 17 0
0

0101000
+84 0 -33 0 *
Wi

0101100
+83 0 +16 0 +31 0 +26 0 -51 0 *
Fa
0  1e-07 12 0

0111000
+15 0 *
Ed
 1e-07 1 1 0
1  50 0 4 14.381197846483
4 C0 16 0 17 0
0

0101000
+76 0 -40 0 *
Wi

0101100
+75 0 +62 0 +44 0 +37 0 -13 0 *
Fa
0  1e-07 16 0

0111000
+12 0 *
Wi

0101100
+74 0 +13 0 +38 0 +30 0 -16 0 *
Fa
0  1e-07 17 0

0111000
+10 0 *
Wi

0101100
+19 0 +22 0 +25 0 +29 0 +36 0 +43 0 *
Wi

0101100
+115 0 +90 0 *
Fa
0  1e-07 8 0

0111000
+8 0 +7 0 *
Wi

0101100
+71 0 +127 0 *
Wi

0101100
+96 0 +102 0 *
Fa
0  1e-07 3 0

0111000
-5 0 -4 0 *
Sh

0101100
+122 0 -112 0 -105 0 -98 0 -94 0 -91 0 -88 0 +72 0 +69 0 +60 0 
+53 0 +46 0 +41 0 +34 0 +27 0 +23 0 +20 0 +17 0 +14 0 +11 0 
+9 0 +6 0 -3 0 *
So

0100000
+2 0 *

+1 0 