DBRep_DrawableShape

CASCADE Topology V1, (c) Matra-Datavision
Locations 0
Curve2ds 72
1 6.2831853071795862 -0.13395254086102656 -1 0 
1 0 -0.31056249999999996 1 0 
1 3.1415926535897931 2.7755575615628914e-17 0 1 
1 3.1415926535897931 2.7755575615628914e-17 0 1 
1 0 0.13395254086102665 1 0 
1 0 2.7755575615628914e-17 0 -1 
1 6.2831853071795862 2.7755575615628914e-17 0 -1 
1 0 0.31056249999999996 1 0 
1 0 -0.13395254086102662 1 0 
1 3.1415926535897931 0 0 -1 
1 3.1415926535897931 0 0 -1 
1 6.2831853071795862 0 0 1 
1 0 0 0 1 
1 0 0.13395254086102662 1 0 
1 3.1415926535897931 -2.7755575615628914e-17 0 -1 
1 3.1415926535897931 -2.7755575615628914e-17 0 -1 
1 6.2831853071795862 -5.5511151231257827e-17 0 1 
1 0 -5.5511151231257827e-17 0 1 
1 3.1415926535897931 -5.5511151231257827e-17 0 -1 
1 3.1415926535897931 -5.5511151231257827e-17 0 -1 
7 0 0  3 25 23  3.1415926535897936 0.12133941647972901  3.1365530272820923 0.11554169275947605  3.1264381369910481 0.10415811042591222  3.1111595766704778 0.087708290889629309  3.0957754563854585 0.071873743441938795  3.0802865223373042 0.056645028022843838  3.0646935752985089 0.042013232997741227  3.0489974789958323 0.027970037618798248  3.0331991590191243 0.014507675562696618  3.0172996041924649 0.0016189266857823072  3.0012998672037257 -0.010702897137583116  2.9852010653456427 -0.022463963006769706  2.9690043811343143 -0.033669927304247567  2.9527110628626203 -0.044325944701439413  2.9363224250674653 -0.054436676069498639  2.9198398489125692 -0.06400629526381571  2.9032647824766413 -0.073038494851335831  2.8865987409619054 -0.081536490660370928  2.869843306750175 -0.089503025662619459  2.8530001295604732 -0.096940371339534787  2.8360709257438033 -0.10385033345906353  2.8190574802986093 -0.11023423642429243  2.8019616382184087 -0.11609298261317808  2.7905107694894014 -0.11964887876162256  2.7847722432440047 -0.12133941647972585 
 0 4 0.030048308975579089 1 0.060096617951158178 1 0.09014492692673727 1 0.12019323590231636 1 0.15024154487789546 1 0.18028985385347454 1 0.21033816282905363 1 0.24038647180463271 1 0.27043478078021183 1 0.30048308975579091 1 0.33053139873137 1 0.36057970770694908 1 0.39062801668252817 1 0.42067632565810725 1 0.45072463463368634 1 0.48077294360926542 1 0.51082125258484457 1 0.54086956156042365 1 0.57091787053600274 1 0.60096617951158182 1 0.63101448848716091 1 0.66106279746273999 4
1 0 -0.12133941647972886 1 -3.8892920375170481e-17 
1 0 6.9388939039072284e-17 0 1 
1 6.2831853071795862 6.9388939039072284e-17 0 1 
1 0 -0.12133941647972898 1 3.8892920375170432e-17 
7 0 0  3 25 23  0.35682041034578837 -0.1213394164797259  0.35108188410039087 -0.1196488787616225  0.33963101537138574 -0.11609298261317785  0.32253517329118431 -0.11023423642429221  0.30552172784599119 -0.10385033345906373  0.28859252402932256 -0.096940371339534731  0.27174934683961638 -0.089503025662618793  0.25499391262788951 -0.081536490660370567  0.23832787111315312 -0.073038494851335983  0.22175280467722391 -0.064006295263816015  0.2052702285223269 -0.054436676069497848  0.18888159072717414 -0.044325944701439211  0.17258827245547792 -0.033669927304247414  0.15639158824415045 -0.022463963006769918  0.14029278638607057 -0.010702897137582977  0.12429304939732511 0.0016189266857825932  0.10839349457067016 0.01450767556269616  0.092595174593960827 0.027970037618798127  0.076899078291283729 0.04201323299774181  0.061306131252489848 0.056645028022843789  0.045817197204335081 0.071873743441938198  0.030433076919313962 0.08770829088962924  0.015154516598745893 0.10415811042591172  0.0050396263077008285 0.11554169275947572  0 0.12133941647972905 
 0 4 0.030048308975579183 1 0.060096617951158365 1 0.090144926926737548 1 0.12019323590231673 1 0.15024154487789593 1 0.1802898538534751 1 0.21033816282905426 1 0.24038647180463346 1 0.27043478078021266 1 0.30048308975579185 1 0.330531398731371 1 0.36057970770695019 1 0.39062801668252939 1 0.42067632565810853 1 0.45072463463368773 1 0.48077294360926692 1 0.51082125258484612 1 0.54086956156042532 1 0.57091787053600451 1 0.60096617951158371 1 0.63101448848716279 1 0.66106279746274199 4
1 3.1415926535897931 -1.1102230246251565e-16 0 1 
1 3.1415926535897931 -1.1102230246251565e-16 0 1 
1 0 -0.12133941647972879 1 0 
7 0 0  3 25 23  3.4984130639355819 -0.12133941647972549  3.4926745376901844 -0.11964887876162207  3.4812236689611797 -0.11609298261317763  3.4641278268809752 -0.11023423642429263  3.4471143814357847 -0.10385033345906258  3.430185177619113 -0.096940371339535258  3.4133420004294122 -0.089503025662618821  3.3965865662176817 -0.081536490660370192  3.3799205247029458 -0.073038494851336469  3.363345458267017 -0.064006295263814433  3.34686288211212 -0.054436676069498847  3.3304742443169664 -0.044325944701438989  3.3141809260452701 -0.033669927304246804  3.2979842418339436 -0.022463963006769738  3.2818854399758601 -0.01070289713758342  3.2658857029871213 0.0016189266857833662  3.2499861481604615 0.014507675562697343  3.2341878281837553 0.027970037618798658  3.2184917318810764 0.042013232997742088  3.202898784842283 0.056645028022843512  3.1874098507941251 0.071873743441939836  3.1720257305091102 0.087708290889629392  3.1567471701885377 0.10415811042591216  3.1466322798974939 0.11554169275947605  3.1415926535897931 0.12133941647972919 
 0 4 0.030048308975579138 1 0.060096617951158275 1 0.090144926926737409 1 0.12019323590231655 1 0.15024154487789568 1 0.18028985385347482 1 0.21033816282905396 1 0.2403864718046331 1 0.27043478078021221 1 0.30048308975579135 1 0.3305313987313705 1 0.36057970770694964 1 0.39062801668252878 1 0.42067632565810792 1 0.45072463463368706 1 0.4807729436092662 1 0.51082125258484534 1 0.54086956156042443 1 0.57091787053600362 1 0.60096617951158271 1 0.63101448848716191 1 0.66106279746274099 4
1 6.2831853071795862 -5.5511151231257827e-17 0 -1 
1 0 -5.5511151231257827e-17 0 -1 
7 0 0  3 25 23  6.2831853071795862 0.12133941647972919  6.2781456808718845 0.11554169275947598  6.2680307905808439 0.10415811042591215  6.2527522302602661 0.087708290889629711  6.2373681099752574 0.071873743441939628  6.2218791759270946 0.056645028022845011  6.2062862288883043 0.042013232997741824  6.1905901325856227 0.027970037618799005  6.1747918126089196 0.014507675562696672  6.1588922577822576 0.0016189266857830021  6.1428925207935192 -0.010702897137583246  6.126793718935434 -0.022463963006769103  6.1105970347241074 -0.033669927304247324  6.0943037164524121 -0.044325944701438802  6.0779150786572584 -0.054436676069498029  6.0614325025023614 -0.064006295263815433  6.0448574360664331 -0.073038494851336538  6.0281913945516976 -0.081536490660371136  6.0114359603399654 -0.089503025662618613  5.9945927831502663 -0.09694037133953512  5.977663579333595 -0.10385033345906387  5.9606501338884028 -0.11023423642429228  5.9435542918082005 -0.11609298261317787  5.9321034230791936 -0.11964887876162238  5.9263648968337979 -0.12133941647972568 
 0 4 0.030048308975579138 1 0.060096617951158275 1 0.090144926926737409 1 0.12019323590231655 1 0.15024154487789568 1 0.18028985385347482 1 0.21033816282905396 1 0.2403864718046331 1 0.27043478078021221 1 0.30048308975579135 1 0.3305313987313705 1 0.36057970770694964 1 0.39062801668252878 1 0.42067632565810792 1 0.45072463463368706 1 0.4807729436092662 1 0.51082125258484534 1 0.54086956156042443 1 0.57091787053600362 1 0.60096617951158271 1 0.63101448848716191 1 0.66106279746274099 4
1 0 -0.12133941647973222 1 5.4450088525238738e-16 
7 0 0  3 25 23  5.2359877559829879 0.12133941647973265  5.2309481296752871 0.11554169275947994  5.2208332393842438 0.10415811042591631  5.2055546790636722 0.087708290889633209  5.1901705587786529 0.07187374344194325  5.1746816247304981 0.056645028022848404  5.1590886776917042 0.042013232997745918  5.1433925813890262 0.027970037618803182  5.1275942614123187 0.014507675562701834  5.1116947065856602 0.0016189266857875994  5.0956949695969218 -0.010702897137577909  5.0795961677388375 -0.022463963006764644  5.0633994835275091 -0.033669927304241613  5.0471061652558165 -0.044325944701434424  5.0307175274606619 -0.054436676069493373  5.0142349513057649 -0.064006295263810631  4.9976598848698366 -0.073038494851331265  4.9809938433551002 -0.08153649066036571  4.9642384091433698 -0.089503025662614935  4.9473952319536698 -0.09694037133953072  4.9304660281369959 -0.10385033345905959  4.9134525826918072 -0.11023423642428862  4.8963567406116022 -0.11609298261317441  4.8849058718825971 -0.11964887876161928  4.8791673456371996 -0.12133941647972282 
 0 4 0.030048308975579044 1 0.060096617951158088 1 0.090144926926737132 1 0.12019323590231618 1 0.15024154487789521 1 0.18028985385347426 1 0.21033816282905332 1 0.24038647180463235 1 0.27043478078021138 1 0.30048308975579041 1 0.3305313987313695 1 0.36057970770694853 1 0.39062801668252756 1 0.42067632565810664 1 0.45072463463368567 1 0.4807729436092647 1 0.51082125258484379 1 0.54086956156042276 1 0.57091787053600185 1 0.60096617951158082 1 0.63101448848715991 1 0.66106279746273899 4
1 0 -0.12133941647973183 1 5.8339380562755651e-16 
7 0 0  3 25 23  5.5928081663287781 -0.12133941647972815  5.5870696400833797 -0.11964887876162525  5.5756187713543772 -0.11609298261318084  5.5585229292741696 -0.11023423642429434  5.5415094838289827 -0.10385033345906515  5.5245802800123087 -0.096940371339537132  5.5077371028226096 -0.08950302566262025  5.4909816686108757 -0.081536490660371524  5.4743156270961437 -0.073038494851337385  5.4577405606602118 -0.064006295263815863  5.4412579845053184 -0.054436676069498591  5.4248693467101621 -0.044325944701440044  5.4085760284384676 -0.033669927304246776  5.3923793442271393 -0.022463963006769026  5.3762805423690567 -0.010702897137582821  5.3602808053803166 0.0016189266857837218  5.3443812505536572 0.014507675562697539  5.3285829305769514 0.02797003761879974  5.3128868342742708 0.042013232997743497  5.2972938872354778 0.056645028022845205  5.2818049531873204 0.071873743441941293  5.2664208329023046 0.087708290889631488  5.2511422725817329 0.10415811042591433  5.241027382290687 0.11554169275947847  5.235987755982987 0.12133941647973183 
 0 4 0.030048308975579138 1 0.060096617951158275 1 0.090144926926737409 1 0.12019323590231655 1 0.15024154487789568 1 0.18028985385347482 1 0.21033816282905396 1 0.2403864718046331 1 0.27043478078021221 1 0.30048308975579135 1 0.3305313987313705 1 0.36057970770694964 1 0.39062801668252878 1 0.42067632565810792 1 0.45072463463368706 1 0.4807729436092662 1 0.51082125258484534 1 0.54086956156042443 1 0.57091787053600362 1 0.60096617951158271 1 0.63101448848716191 1 0.66106279746274099 4
7 0 0  3 25 23  4.1887902047863923 0.12133941647973183  4.1837505784786906 0.11554169275947861  4.1736356881876473 0.10415811042591491  4.158357127867073 0.087708290889632737  4.1429730075820608 0.071873743441942931  4.1274840735338998 0.05664502802284721  4.1118911264951086 0.042013232997745766  4.0961950301924288 0.027970037618803293  4.080396710215723 0.014507675562700759  4.0644971553890636 0.0016189266857872984  4.0484974184003235 -0.010702897137579576  4.032398616542241 -0.022463963006765845  4.0162019323309126 -0.033669927304243522  3.9999086140592182 -0.044325944701436533  3.9835199762640645 -0.05443667606949585  3.9670374001091675 -0.064006295263813087  3.9504623336732387 -0.073038494851333763  3.9337962921585028 -0.081536490660369304  3.9170408579467706 -0.089503025662618016  3.900197680757072 -0.096940371339535328  3.883268476940398 -0.10385033345906326  3.866255031495208 -0.1102342364242935  3.8491591894150043 -0.11609298261318006  3.8377083206859988 -0.1196488787616249  3.8319697944406013 -0.12133941647972815 
 0 4 0.030048308975579138 1 0.060096617951158275 1 0.090144926926737409 1 0.12019323590231655 1 0.15024154487789568 1 0.18028985385347482 1 0.21033816282905396 1 0.2403864718046331 1 0.27043478078021221 1 0.30048308975579135 1 0.3305313987313705 1 0.36057970770694964 1 0.39062801668252878 1 0.42067632565810792 1 0.45072463463368706 1 0.4807729436092662 1 0.51082125258484534 1 0.54086956156042443 1 0.57091787053600362 1 0.60096617951158271 1 0.63101448848716191 1 0.66106279746274099 4
1 -4.4408920985006262e-16 -0.12133941647972775 1 -2.7225044262619285e-16 
7 0 0  3 25 23  4.5456106151321798 -0.1213394164797226  4.5398720888867814 -0.11964887876161899  4.5284212201577771 -0.11609298261317419  4.5113253780775739 -0.11023423642428871  4.4943119326323799 -0.10385033345905952  4.4773827288157104 -0.096940371339530707  4.4605395516260096 -0.089503025662615018  4.4437841174142791 -0.081536490660365959  4.4271180758995419 -0.073038494851331626  4.4105430094636144 -0.064006295263810159  4.3940604333087165 -0.054436676069493581  4.3776717955135647 -0.044325944701434222  4.3613784772418684 -0.033669927304242168  4.3451817930305427 -0.02246396300676393  4.3290829911724584 -0.010702897137578915  4.3130832541837192 0.0016189266857884828  4.2971836993570598 0.01450767556270173  4.2813853793803522 0.027970037618803921  4.2656892830776743 0.042013232997745835  4.2500963360388821 0.05664502802284823  4.2346074019907238 0.071873743441942875  4.219223281705708 0.087708290889633334  4.2039447213851355 0.10415811042591631  4.1938298310940922 0.11554169275947991  4.1887902047863914 0.12133941647973265 
 0 4 0.030048308975579044 1 0.060096617951158088 1 0.090144926926737132 1 0.12019323590231618 1 0.15024154487789521 1 0.18028985385347426 1 0.21033816282905332 1 0.24038647180463235 1 0.27043478078021138 1 0.30048308975579041 1 0.3305313987313695 1 0.36057970770694853 1 0.39062801668252756 1 0.42067632565810664 1 0.45072463463368567 1 0.4807729436092647 1 0.51082125258484379 1 0.54086956156042276 1 0.57091787053600185 1 0.60096617951158082 1 0.63101448848715991 1 0.66106279746273899 4
1 0 -0.12133941647972879 1 0 
7 0 0  3 25 23  0.35682041034578976 -0.12133941647972507  0.35108188410039198 -0.11964887876162161  0.33963101537138646 -0.11609298261317705  0.32253517329118364 -0.11023423642429168  0.30552172784599024 -0.10385033345906267  0.28859252402931995 -0.096940371339534231  0.27174934683961854 -0.089503025662618238  0.25499391262788829 -0.081536490660370331  0.23832787111315182 -0.073038494851335942  0.22175280467722353 -0.064006295263814142  0.20527022852232721 -0.054436676069498639  0.18888159072717267 -0.044325944701438934  0.17258827245547856 -0.033669927304247046  0.15639158824415164 -0.022463963006769339  0.14029278638606738 -0.010702897137583588  0.12429304939732952 0.0016189266857826695  0.10839349457066912 0.014507675562696054  0.092595174593962201 0.027970037618797891  0.076899078291284728 0.042013232997740985  0.061306131252490625 0.056645028022842776  0.045817197204334172 0.071873743441938517  0.030433076919317115 0.087708290889628393  0.015154516598745171 0.10415811042591197  0.0050396263077013888 0.11554169275947609  0 0.12133941647972919 
 0 4 0.030048308975579228 1 0.060096617951158456 1 0.090144926926737687 1 0.12019323590231691 1 0.15024154487789615 1 0.18028985385347537 1 0.2103381628290546 1 0.24038647180463382 1 0.27043478078021305 1 0.3004830897557923 1 0.3305313987313715 1 0.36057970770695075 1 0.39062801668252994 1 0.4206763256581092 1 0.45072463463368839 1 0.48077294360926764 1 0.5108212525848469 1 0.54086956156042609 1 0.57091787053600529 1 0.6009661795115846 1 0.63101448848716379 1 0.66106279746274299 4
7 0 0  3 25 23  3.1415926535897931 0.12133941647972919  3.1365530272820923 0.11554169275947605  3.1264381369910486 0.10415811042591189  3.1111595766704743 0.087708290889628462  3.0957754563854589 0.071873743441938698  3.0802865223373019 0.056645028022843297  3.0646935752985072 0.042013232997741456  3.0489974789958301 0.027970037618799272  3.0331991590191234 0.014507675562696181  3.0172996041924627 0.0016189266857831969  3.0012998672037248 -0.010702897137583054  2.98520106534564 -0.022463963006769103  2.969004381134313 -0.033669927304246464  2.9527110628626185 -0.044325944701438781  2.936322425067464 -0.054436676069497557  2.9198398489125683 -0.064006295263815086  2.9032647824766391 -0.073038494851335234  2.8865987409619036 -0.08153649066036979  2.8698433067501727 -0.089503025662618016  2.8530001295604723 -0.096940371339533565  2.8360709257438006 -0.10385033345906158  2.8190574802986084 -0.11023423642429168  2.8019616382184065 -0.11609298261317673  2.7905107694894 -0.11964887876162104  2.784772243244003 -0.12133941647972446 
 0 4 0.030048308975579273 1 0.060096617951158546 1 0.090144926926737812 1 0.12019323590231709 1 0.15024154487789637 1 0.18028985385347562 1 0.2103381628290549 1 0.24038647180463418 1 0.27043478078021344 1 0.30048308975579274 1 0.33053139873137199 1 0.36057970770695125 1 0.39062801668253055 1 0.42067632565810981 1 0.45072463463368911 1 0.48077294360926837 1 0.51082125258484767 1 0.54086956156042687 1 0.57091787053600618 1 0.60096617951158549 1 0.63101448848716468 1 0.66106279746274399 4
1 0 -0.12133941647972879 1 0 
7 0 0  3 25 23  1.4040179615423862 -0.12133941647972257  1.3982794352969885 -0.11964887876161912  1.3868285665679825 -0.11609298261317419  1.3697327244877802 -0.11023423642428792  1.3527192790425859 -0.103850333459059  1.335790075225916 -0.096940371339529666  1.3189468980362149 -0.089503025662614019  1.3021914638244845 -0.081536490660364919  1.2855254223097476 -0.073038494851330821  1.2689503558738202 -0.064006295263809673  1.2524677797189234 -0.054436676069492478  1.2360791419237693 -0.044325944701433702  1.2197858236520749 -0.033669927304241169  1.2035891394407485 -0.022463963006763447  1.1874903375826649 -0.010702897137578365  1.1714906005939265 0.001618926685787744  1.1555910457672667 0.014507675562701465  1.1397927257905602 0.027970037618803265  1.1240966294878829 0.042013232997745772  1.108503682449089 0.056645028022847453  1.0930147484009325 0.071873743441943222  1.0776306281159154 0.087708290889632556  1.062352067795344 0.10415811042591545  1.0522371775042998 0.11554169275947949  1.0471975511965983 0.12133941647973273 
 0 4 0.030048308975579089 1 0.060096617951158178 1 0.09014492692673727 1 0.12019323590231636 1 0.15024154487789546 1 0.18028985385347454 1 0.21033816282905363 1 0.24038647180463271 1 0.27043478078021183 1 0.30048308975579091 1 0.33053139873137 1 0.36057970770694908 1 0.39062801668252817 1 0.42067632565810725 1 0.45072463463368634 1 0.48077294360926542 1 0.51082125258484457 1 0.54086956156042365 1 0.57091787053600274 1 0.60096617951158182 1 0.63101448848716091 1 0.66106279746273999 4
7 0 0  3 25 23  1.0471975511965987 0.12133941647973231  1.0421579248888972 0.11554169275947909  1.0320430345978535 0.10415811042591538  1.0167644742772826 0.087708290889633292  1.0013803539922648 0.071873743441943416  0.985891419944109 0.056645028022847661  0.9702984729053149 0.042013232997746452  0.95460237660263736 0.027970037618803095  0.93880405662593014 0.014507675562701404  0.92290450179926986 0.0016189266857878999  0.90690476481053173 -0.010702897137579683  0.89080596295244707 -0.022463963006765526  0.87460927874112016 -0.03366992730424289  0.85831596046942549 -0.044325944701436422  0.84192732267427117 -0.054436676069495163  0.82544474651937438 -0.064006295263812837  0.80886968008344584 -0.073038494851333707  0.79220363856870935 -0.081536490660369318  0.77544820435697859 -0.089503025662617475  0.75860502716727762 -0.096940371339535036  0.74167582335060733 -0.10385033345906339  0.72466237790541355 -0.11023423642429291  0.70756653582521201 -0.11609298261318042  0.6961156670962062 -0.11964887876162521  0.69037714085080848 -0.12133941647972812 
 0 4 0.030048308975579228 1 0.060096617951158456 1 0.090144926926737687 1 0.12019323590231691 1 0.15024154487789615 1 0.18028985385347537 1 0.2103381628290546 1 0.24038647180463382 1 0.27043478078021305 1 0.3004830897557923 1 0.3305313987313715 1 0.36057970770695075 1 0.39062801668252994 1 0.4206763256581092 1 0.45072463463368839 1 0.48077294360926764 1 0.5108212525848469 1 0.54086956156042609 1 0.57091787053600529 1 0.6009661795115846 1 0.63101448848716379 1 0.66106279746274299 4
1 -1.1102230246251565e-16 -0.12133941647972893 1 2.7225044262619339e-16 
7 0 0  3 25 23  1.0471975511965992 0.12133941647973177  1.0421579248888975 0.11554169275947845  1.0320430345978535 0.10415811042591402  1.0167644742772812 0.08770829088963053  1.0013803539922639 0.071873743441939322  0.98589141994410723 0.056645028022845031  0.97029847290531235 0.04201323299774154  0.95460237660263558 0.027970037618798856  0.93880405662592825 0.014507675562696887  0.92290450179926753 0.0016189266857835512  0.9069047648105294 -0.010702897137584084  0.8908059629524453 -0.022463963006769078  0.87460927874111805 -0.033669927304247248  0.85831596046942404 -0.044325944701439531  0.84192732267426973 -0.054436676069499  0.82544474651937305 -0.064006295263815752  0.80886968008344484 -0.073038494851336913  0.7922036385687089 -0.081536490660371802  0.77544820435697814 -0.089503025662619959  0.75860502716727762 -0.096940371339535827  0.74167582335060644 -0.10385033345906515  0.72466237790541421 -0.11023423642429372  0.70756653582521145 -0.11609298261317995  0.69611566709620598 -0.11964887876162486  0.69037714085080848 -0.12133941647972835 
 0 4 0.030048308975579183 1 0.060096617951158365 1 0.090144926926737548 1 0.12019323590231673 1 0.15024154487789593 1 0.1802898538534751 1 0.21033816282905426 1 0.24038647180463346 1 0.27043478078021266 1 0.30048308975579185 1 0.330531398731371 1 0.36057970770695019 1 0.39062801668252939 1 0.42067632565810853 1 0.45072463463368773 1 0.48077294360926692 1 0.51082125258484612 1 0.54086956156042532 1 0.57091787053600451 1 0.60096617951158371 1 0.63101448848716279 1 0.66106279746274199 4
1 -1.1102230246251565e-16 -0.12133941647972897 1 1.9446460187585225e-17 
7 0 0  3 25 23  1.4040179615423876 -0.12133941647972321  1.3982794352969898 -0.11964887876161998  1.3868285665679847 -0.11609298261317524  1.3697327244877822 -0.11023423642428894  1.352719279042589 -0.10385033345905943  1.3357900752259184 -0.096940371339531234  1.3189468980362173 -0.089503025662615546  1.3021914638244871 -0.081536490660366681  1.2855254223097508 -0.073038494851331806  1.2689503558738215 -0.064006295263811019  1.2524677797189252 -0.054436676069493838  1.2360791419237704 -0.044325944701434382  1.2197858236520758 -0.033669927304242328  1.2035891394407487 -0.022463963006764075  1.1874903375826644 -0.010702897137577891  1.1714906005939258 0.0016189266857887358  1.1555910457672656 0.014507675562701322  1.1397927257905589 0.027970037618804927  1.1240966294878811 0.042013232997746751  1.1085036824490868 0.056645028022849438  1.0930147484009312 0.071873743441944041  1.077630628115914 0.087708290889634624  1.0623520677953429 0.104158110425916  1.0522371775042991 0.1155416927594797  1.0471975511965979 0.12133941647973318 
 0 4 0.030048308975579183 1 0.060096617951158365 1 0.090144926926737548 1 0.12019323590231673 1 0.15024154487789593 1 0.1802898538534751 1 0.21033816282905426 1 0.24038647180463346 1 0.27043478078021266 1 0.30048308975579185 1 0.330531398731371 1 0.36057970770695019 1 0.39062801668252939 1 0.42067632565810853 1 0.45072463463368773 1 0.48077294360926692 1 0.51082125258484612 1 0.54086956156042532 1 0.57091787053600451 1 0.60096617951158371 1 0.63101448848716279 1 0.66106279746274199 4
7 0 0  3 25 23  2.451215512738985 -0.12133941647972829  2.445476986493587 -0.11964887876162433  2.4340261177645814 -0.11609298261317928  2.4169302756843791 -0.11023423642429393  2.3999168302391847 -0.10385033345906351  2.3829876264225152 -0.09694037133953437  2.3661444492328148 -0.089503025662617128  2.349389015021083 -0.081536490660369332  2.3327229735063466 -0.073038494851334249  2.3161479070704183 -0.064006295263812185  2.2996653309155222 -0.054436676069495524  2.2832766931203672 -0.044325944701436651  2.2669833748486732 -0.033669927304243084  2.2507866906373462 -0.02246396300676555  2.2346878887792614 -0.010702897137579357  2.2186881517905239 0.0016189266857866034  2.2027885969638636 0.014507675562700426  2.186990276987157 0.027970037618802165  2.1712941806844785 0.042013232997745238  2.1557012336456847 0.056645028022847273  2.1402122995975286 0.071873743441942084  2.124828179312511 0.087708290889632515  2.1095496189919403 0.10415811042591455  2.0994347287008952 0.1155416927594784  2.0943951023931939 0.12133941647973173 
 0 4 0.030048308975579089 1 0.060096617951158178 1 0.09014492692673727 1 0.12019323590231636 1 0.15024154487789546 1 0.18028985385347454 1 0.21033816282905363 1 0.24038647180463271 1 0.27043478078021183 1 0.30048308975579091 1 0.33053139873137 1 0.36057970770694908 1 0.39062801668252817 1 0.42067632565810725 1 0.45072463463368634 1 0.48077294360926542 1 0.51082125258484457 1 0.54086956156042365 1 0.57091787053600274 1 0.60096617951158182 1 0.63101448848716091 1 0.66106279746273999 4
7 0 0  3 25 23  2.0943951023931953 0.12133941647973297  2.089355476085494 0.11554169275947986  2.0792405857944511 0.1041581104259163  2.0639620254738782 0.087708290889634402  2.0485779051888624 0.071873743441944735  2.0330889711407063 0.056645028022849313  2.017496024101912 0.042013232997746494  2.0017999277992349 0.027970037618804813  1.9860016078225275 0.014507675562702018  1.970102052995867 0.0016189266857885092  1.9541023160071291 -0.010702897137577735  1.9380035141490448 -0.022463963006764433  1.9218068299377173 -0.033669927304242273  1.9055135116660229 -0.044325944701434368  1.8891248738708686 -0.054436676069493872  1.8726422977159709 -0.064006295263810839  1.856067231280043 -0.073038494851332528  1.8394011897653066 -0.081536490660366431  1.8226457555535753 -0.089503025662615671  1.8058025783638747 -0.096940371339530956  1.7888733745472039 -0.10385033345906031  1.771859929102011 -0.11023423642428827  1.7547640870218084 -0.11609298261317565  1.7433132182928033 -0.11964887876162034  1.7375746920474058 -0.12133941647972321 
 0 4 0.030048308975579183 1 0.060096617951158365 1 0.090144926926737548 1 0.12019323590231673 1 0.15024154487789593 1 0.1802898538534751 1 0.21033816282905426 1 0.24038647180463346 1 0.27043478078021266 1 0.30048308975579185 1 0.330531398731371 1 0.36057970770695019 1 0.39062801668252939 1 0.42067632565810853 1 0.45072463463368773 1 0.48077294360926692 1 0.51082125258484612 1 0.54086956156042532 1 0.57091787053600451 1 0.60096617951158371 1 0.63101448848716279 1 0.66106279746274199 4
1 0 -0.1213394164797284 1 -3.1114336300136365e-16 
7 0 0  3 25 23  6.2831853071795862 0.12133941647972901  6.2781456808718863 0.11554169275947604  6.2680307905808403 0.10415811042591222  6.2527522302602696 0.087708290889629281  6.2373681099752529 0.071873743441938781  6.2218791759270946 0.056645028022843817  6.2062862288883016 0.042013232997741068  6.1905901325856219 0.027970037618798575  6.174791812608917 0.014507675562696365  6.1588922577822576 0.0016189266857825754  6.1428925207935192 -0.010702897137583128  6.1267937189354331 -0.022463963006769189  6.1105970347241065 -0.033669927304247629  6.0943037164524121 -0.044325944701438982  6.0779150786572567 -0.054436676069498376  6.0614325025023614 -0.06400629526381528  6.0448574360664331 -0.0730384948513359  6.0281913945516976 -0.081536490660370414  6.0114359603399663 -0.089503025662618238  5.9945927831502646 -0.096940371339534731  5.9776635793335959 -0.10385033345906317  5.9606501338884001 -0.11023423642429106  5.9435542918081978 -0.11609298261317723  5.9321034230791936 -0.1196488787616217  5.9263648968337952 -0.12133941647972472 
 0 4 0.030048308975579363 1 0.060096617951158726 1 0.090144926926738089 1 0.12019323590231745 1 0.15024154487789682 1 0.18028985385347618 1 0.21033816282905554 1 0.2403864718046349 1 0.27043478078021427 1 0.30048308975579363 1 0.33053139873137299 1 0.36057970770695236 1 0.39062801668253172 1 0.42067632565811108 1 0.45072463463369045 1 0.48077294360926981 1 0.51082125258484923 1 0.54086956156042854 1 0.57091787053600784 1 0.60096617951158726 1 0.63101448848716668 1 0.66106279746274599 4
1 0 -0.12133941647972556 1 -5.4450088525238472e-16 
1 0 -0.12133941647972898 1 0 
7 0 0  3 25 23  3.4984130639355846 -0.12133941647972428  3.4926745376901867 -0.11964887876162092  3.481223668961182 -0.11609298261317663  3.4641278268809779 -0.11023423642429171  3.4471143814357865 -0.10385033345906201  3.4301851776191143 -0.09694037133953462  3.4133420004294139 -0.089503025662618418  3.3965865662176844 -0.081536490660369526  3.3799205247029467 -0.073038494851336705  3.3633454582670184 -0.064006295263813989  3.3468628821121205 -0.054436676069498827  3.3304742443169673 -0.044325944701439413  3.3141809260452719 -0.033669927304246491  3.2979842418339449 -0.022463963006769325  3.2818854399758615 -0.010702897137583446  3.2658857029871218 0.0016189266857830709  3.2499861481604619 0.014507675562697489  3.2341878281837553 0.027970037618798817  3.2184917318810777 0.04201323299774179  3.202898784842283 0.056645028022843345  3.187409850794126 0.071873743441940016  3.1720257305091102 0.087708290889628615  3.156747170188539 0.10415811042591232  3.1466322798974944 0.11554169275947612  3.1415926535897931 0.12133941647972894 
 0 4 0.030048308975579318 1 0.060096617951158636 1 0.09014492692673795 1 0.12019323590231727 1 0.15024154487789659 1 0.1802898538534759 1 0.21033816282905524 1 0.24038647180463454 1 0.27043478078021388 1 0.30048308975579319 1 0.33053139873137249 1 0.3605797077069518 1 0.39062801668253111 1 0.42067632565811047 1 0.45072463463368978 1 0.48077294360926909 1 0.51082125258484845 1 0.54086956156042776 1 0.57091787053600707 1 0.60096617951158637 1 0.63101448848716568 1 0.66106279746274499 4
7 0 0  3 25 23  5.2359877559829879 0.12133941647973248  5.2309481296752862 0.11554169275947934  5.2208332393842429 0.10415811042591523  5.2055546790636695 0.087708290889631932  5.1901705587786555 0.071873743441941723  5.1746816247304963 0.056645028022847231  5.1590886776917024 0.042013232997744704  5.1433925813890236 0.027970037618802093  5.1275942614123196 0.014507675562700162  5.1116947065856566 0.0016189266857867374  5.09569496959692 -0.010702897137579326  5.0795961677388348 -0.022463963006765571  5.0633994835275091 -0.033669927304242793  5.0471061652558138 -0.044325944701435027  5.0307175274606601 -0.05443667606949449  5.014234951305764 -0.06400629526381138  4.9976598848698366 -0.07303849485133182  4.9809938433550984 -0.081536490660366945  4.9642384091433698 -0.089503025662614991  4.947395231953668 -0.096940371339530984  4.9304660281369967 -0.10385033345905995  4.9134525826918054 -0.1102342364242898  4.8963567406116013 -0.11609298261317513  4.8849058718825962 -0.11964887876161973  4.8791673456371987 -0.12133941647972324 
 0 4 0.030048308975579138 1 0.060096617951158275 1 0.090144926926737409 1 0.12019323590231655 1 0.15024154487789568 1 0.18028985385347482 1 0.21033816282905396 1 0.2403864718046331 1 0.27043478078021221 1 0.30048308975579135 1 0.3305313987313705 1 0.36057970770694964 1 0.39062801668252878 1 0.42067632565810792 1 0.45072463463368706 1 0.4807729436092662 1 0.51082125258484534 1 0.54086956156042443 1 0.57091787053600362 1 0.60096617951158271 1 0.63101448848716191 1 0.66106279746274099 4
1 0 -0.1213394164797289 1 1.9446460187585241e-17 
7 0 0  3 25 23  5.5928081663287781 -0.1213394164797284  5.5870696400833806 -0.11964887876162505  5.5756187713543754 -0.11609298261318009  5.5585229292741705 -0.11023423642429332  5.5415094838289809 -0.10385033345906358  5.5245802800123096 -0.096940371339534398  5.5077371028226079 -0.089503025662619265  5.4909816686108774 -0.081536490660369179  5.4743156270961411 -0.073038494851333763  5.4577405606602118 -0.064006295263813948  5.4412579845053148 -0.054436676069494677  5.4248693467101621 -0.044325944701436408  5.408576028438465 -0.033669927304242911  5.3923793442271393 -0.022463963006765598  5.3762805423690541 -0.010702897137579574  5.3602808053803166 0.0016189266857875282  5.3443812505536554 0.014507675562700743  5.3285829305769497 0.027970037618803921  5.3128868342742717 0.042013232997745675  5.2972938872354769 0.056645028022849112  5.2818049531873204 0.071873743441943319  5.2664208329023037 0.087708290889633583  5.2511422725817329 0.10415811042591545  5.2410273822906888 0.11554169275947897  5.2359877559829879 0.12133941647973209 
 0 4 0.030048308975579318 1 0.060096617951158636 1 0.09014492692673795 1 0.12019323590231727 1 0.15024154487789659 1 0.1802898538534759 1 0.21033816282905524 1 0.24038647180463454 1 0.27043478078021388 1 0.30048308975579319 1 0.33053139873137249 1 0.3605797077069518 1 0.39062801668253111 1 0.42067632565811047 1 0.45072463463368978 1 0.48077294360926909 1 0.51082125258484845 1 0.54086956156042776 1 0.57091787053600707 1 0.60096617951158637 1 0.63101448848716568 1 0.66106279746274499 4
7 0 0  3 25 23  4.5456106151321807 -0.12133941647972325  4.5398720888867832 -0.11964887876161982  4.5284212201577798 -0.11609298261317526  4.5113253780775722 -0.1102342364242897  4.4943119326323862 -0.10385033345906053  4.4773827288157122 -0.096940371339531914  4.4605395516260113 -0.089503025662616142  4.44378411741428 -0.081536490660366764  4.4271180758995445 -0.073038494851332861  4.4105430094636171 -0.064006295263811352  4.3940604333087183 -0.054436676069494802  4.3776717955135638 -0.044325944701434757  4.3613784772418693 -0.03366992730424314  4.3451817930305419 -0.022463963006765026  4.3290829911724593 -0.010702897137578968  4.3130832541837192 0.0016189266857883661  4.2971836993570598 0.014507675562700759  4.281385379380354 0.027970037618804459  4.2656892830776734 0.042013232997746147  4.2500963360388821 0.056645028022848105  4.2346074019907221 0.07187374344194461  4.2192232817057089 0.087708290889633098  4.2039447213851355 0.10415811042591624  4.1938298310940922 0.11554169275947979  4.1887902047863914 0.12133941647973248 
 0 4 0.030048308975579138 1 0.060096617951158275 1 0.090144926926737409 1 0.12019323590231655 1 0.15024154487789568 1 0.18028985385347482 1 0.21033816282905396 1 0.2403864718046331 1 0.27043478078021221 1 0.30048308975579135 1 0.3305313987313705 1 0.36057970770694964 1 0.39062801668252878 1 0.42067632565810792 1 0.45072463463368706 1 0.4807729436092662 1 0.51082125258484534 1 0.54086956156042443 1 0.57091787053600362 1 0.60096617951158271 1 0.63101448848716191 1 0.66106279746274099 4
7 0 0  3 25 23  4.1887902047863914 0.12133941647973244  4.1837505784786897 0.1155416927594794  4.1736356881876455 0.10415811042591511  4.1583571278670712 0.087708290889630933  4.1429730075820572 0.071873743441941002  4.1274840735338998 0.05664502802284508  4.1118911264951059 0.042013232997743163  4.0961950301924288 0.027970037618799574  4.0803967102157213 0.014507675562697289  4.064497155389061 0.0016189266857837327  4.0484974184003208 -0.010702897137582759  4.0323986165422392 -0.02246396300676954  4.0162019323309108 -0.033669927304246734  3.9999086140592159 -0.044325944701439794  3.9835199762640627 -0.054436676069498473  3.9670374001091657 -0.064006295263815238  3.9504623336732374 -0.07303849485133708  3.9337962921585015 -0.081536490660371733  3.917040857946771 -0.089503025662620292  3.9001976807570702 -0.09694037133953598  3.8832684769403993 -0.10385033345906555  3.8662550314952062 -0.11023423642429449  3.8491591894150061 -0.11609298261318045  3.8377083206859988 -0.11964887876162503  3.8319697944406013 -0.12133941647972837 
 0 4 0.030048308975579318 1 0.060096617951158636 1 0.09014492692673795 1 0.12019323590231727 1 0.15024154487789659 1 0.1802898538534759 1 0.21033816282905524 1 0.24038647180463454 1 0.27043478078021388 1 0.30048308975579319 1 0.33053139873137249 1 0.3605797077069518 1 0.39062801668253111 1 0.42067632565811047 1 0.45072463463368978 1 0.48077294360926909 1 0.51082125258484845 1 0.54086956156042776 1 0.57091787053600707 1 0.60096617951158637 1 0.63101448848716568 1 0.66106279746274499 4
1 -4.4408920985006262e-16 -0.12133941647972893 1 -1.9446460187585253e-17 
7 0 0  3 25 23  2.0943951023931953 0.12133941647973315  2.089355476085494 0.11554169275948023  2.0792405857944511 0.10415811042591662  2.0639620254738791 0.087708290889634027  2.048577905188862 0.071873743441944193  2.0330889711407063 0.056645028022849243  2.0174960241019124 0.042013232997747514  2.0017999277992349 0.02797003761880543  1.9860016078225282 0.0145076755627019  1.9701020529958675 0.0016189266857897437  1.9541023160071298 -0.010702897137577685  1.9380035141490453 -0.022463963006764179  1.921806829937718 -0.033669927304240434  1.9055135116660238 -0.044325944701434243  1.8891248738708695 -0.054436676069493019  1.8726422977159729 -0.06400629526380941  1.8560672312800444 -0.073038494851331487  1.8394011897653082 -0.081536490660365293  1.8226457555535778 -0.089503025662614297  1.8058025783638765 -0.096940371339530859  1.7888733745472063 -0.10385033345905911  1.7718599291020127 -0.11023423642428849  1.7547640870218111 -0.11609298261317473  1.7433132182928051 -0.11964887876161923  1.7375746920474076 -0.12133941647972235 
 0 4 0.030048308975579089 1 0.060096617951158178 1 0.09014492692673727 1 0.12019323590231636 1 0.15024154487789546 1 0.18028985385347454 1 0.21033816282905363 1 0.24038647180463271 1 0.27043478078021183 1 0.30048308975579091 1 0.33053139873137 1 0.36057970770694908 1 0.39062801668252817 1 0.42067632565810725 1 0.45072463463368634 1 0.48077294360926542 1 0.51082125258484457 1 0.54086956156042365 1 0.57091787053600274 1 0.60096617951158182 1 0.63101448848716091 1 0.66106279746273999 4
1 0 -0.12133941647972753 1 -5.8339380562755798e-16 
7 0 0  3 25 23  2.451215512738985 -0.12133941647972812  2.4454769864935875 -0.11964887876162461  2.4340261177645828 -0.11609298261317977  2.4169302756843791 -0.11023423642429386  2.3999168302391864 -0.10385033345906521  2.3829876264225174 -0.096940371339536452  2.3661444492328152 -0.08950302566262  2.3493890150210852 -0.081536490660371233  2.3327229735063493 -0.073038494851336677  2.3161479070704201 -0.064006295263816335  2.2996653309155244 -0.054436676069497973  2.2832766931203694 -0.044325944701439329  2.2669833748486754 -0.033669927304246325  2.2507866906373479 -0.022463963006769602  2.2346878887792636 -0.010702897137582455  2.2186881517905261 0.0016189266857840369  2.2027885969638645 0.014507675562697935  2.1869902769871579 0.027970037618800288  2.1712941806844799 0.042013232997743899  2.1557012336456864 0.056645028022845469  2.1402122995975295 0.071873743441941043  2.1248281793125114 0.087708290889632362  2.1095496189919407 0.10415811042591548  2.0994347287008965 0.11554169275947951  2.0943951023931948 0.12133941647973273 
 0 4 0.030048308975579273 1 0.060096617951158546 1 0.090144926926737812 1 0.12019323590231709 1 0.15024154487789637 1 0.18028985385347562 1 0.2103381628290549 1 0.24038647180463418 1 0.27043478078021344 1 0.30048308975579274 1 0.33053139873137199 1 0.36057970770695125 1 0.39062801668253055 1 0.42067632565810981 1 0.45072463463368911 1 0.48077294360926837 1 0.51082125258484767 1 0.54086956156042687 1 0.57091787053600618 1 0.60096617951158549 1 0.63101448848716468 1 0.66106279746274399 4
1 0 -0.13395254086102662 1 0 
1 0 0.31056249999999996 1 0 
1 0 0.13395254086102662 1 0 
1 0 -0.31056249999999996 1 0 
1 6.2831853071795862 -0.13395254086102656 -1 0 
1 0 0.13395254086102665 1 0 
Curves 76
2 0 1.15993183076113e-17 0.18943750000000001 -0 6.12303176911189e-17 1 1 0 0 0 1 -6.12303176911189e-17 0.61056250000000001
1 -0.70528124999999997 9.2168849151984498e-17 0.094718750000000004 -0.70710678118654757 4.3296372853596771e-17 -0.70710678118654757 
2 0 0 0 0 0 -1 1 0 0 0 -1 0 0.80000000000000004
1 0.70528124999999997 -8.0569530844373201e-17 0.094718750000000004 -0.70710678118654757 1.298891185607899e-16 0.70710678118654757 
2 0 4.9630999383507499e-17 0.81056249999999996 -0 6.12303176911189e-17 1 1 0 0 0 1 -6.12303176911189e-17 0.61056250000000001
1 -0.61056250000000001 1.05385030536127e-16 0.5 -0 -6.12303176911189e-17 -1 
1 0.61056250000000001 -4.4154712845008097e-17 0.5 -0 6.12303176911189e-17 1 
2 0 6.12303176911189e-17 1 0 0 1 1 0 -0 -0 1 0 0.80000000000000004
1 -0.70528124999999997 1.4179984853549199e-16 0.90528125000000004 0.70710678118654757 -1.298891185607899e-16 -0.70710678118654757 
1 0.70528124999999997 -3.0938531460865703e-17 0.90528125000000004 0.70710678118654757 -4.3296372853596771e-17 0.70710678118654757 
1 -1.73501605211744 2.15254364399371e-16 0.045454545454545497 0.92718385456678742 -1.3648080467044505e-16 -0.37460659341591218 
7 1 0  2 3 2  -1.8475200000000001 -7.0672532070158696e-16 0.090909090909091106  1 -1.67330824993595 0.30174360238642101 0.020522975034576299  1.0182719309783701 -1.5203136013373699 0.56673810704531402 4.1633363423443401e-17  1
 0 3 0.66106279746273999 3
2 0 0 0 0 0 1 1 0 -0 -0 1 0 1.62251210423488
1 1.73501605211744 -2.0968797188199599e-16 0.045454545454545497 0.92718385456678742 -9.060624322235704e-17 0.37460659341591218 
2 0 0 0 0 0 1 1 0 -0 -0 1 0 1.62251210423488
7 1 0  2 3 2  1.5203136013373699 0.56673810704531402 -7.63278329429795e-17  1 1.67330824993595 0.301743602386423 0.020522975034575799  1.0182719309783701 1.8475200000000001 -1.77071738922279e-15 0.090909090909091203  1
 0 3 0.66106279746274199 3
1 -1.73501605211744 2.7091828957311501e-16 0.95454545454545503 -0.92718385456678742 9.060624322235704e-17 -0.37460659341591218 
2 0 6.12303176911189e-17 1 0 0 -1 1 0 0 0 -1 0 1.62251210423488
7 1 0  2 3 2  -1.5203136013373699 0.56673810704531502 1  1 -1.67330824993595 0.30174360238642101 0.97947702496542399  1.0182719309783601 -1.8475200000000001 -3.6123711596805002e-16 0.90909090909090895  1
 0 3 0.66106279746274099 3
1 1.73501605211744 -1.5402404670825201e-16 0.95454545454545503 -0.92718385456678742 1.3648080467044505e-16 0.37460659341591218 
7 1 0  2 3 2  1.8475200000000001 -8.3412247975524997e-16 0.90909090909090895  1 1.67330824993595 0.30174360238642101 0.97947702496542399  1.0182719309783499 1.5203136013373699 0.56673810704531402 1  1
 0 3 0.66106279746274099 3
2 0 6.12303176911189e-17 1 0 0 -1 1 0 0 0 -1 0 1.62251210423488
7 1 0  2 3 2  0.92376000000000102 1.59999925399983 0.90909090909090895  1 0.57533649987190705 1.59999925399983 0.97947702496542299  1.0182719309783701 0.26934720267473899 1.59999925399983 1  1
 0 3 0.66106279746273899 3
2 0 6.12303176911189e-17 1 0 0 -1 1 0 0 0 -1 0 1.62251210423488
7 1 0  2 3 2  1.25096639866263 1.0332611469545101 1  1 1.09797175006405 1.2982556516134001 0.97947702496542399  1.0182719309783601 0.92375999999999903 1.59999925399983 0.90909090909090895  1
 0 3 0.66106279746274099 3
7 1 0  2 3 2  -0.92375999999999903 1.59999925399983 0.90909090909090895  1 -1.09797175006405 1.2982556516134101 0.97947702496542399  1.0182719309783601 -1.25096639866263 1.0332611469545101 1  1
 0 3 0.66106279746274099 3
2 0 6.12303176911189e-17 1 0 0 -1 1 0 0 0 -1 0 1.62251210423488
7 1 0  2 3 2  -0.26934720267473899 1.59999925399983 1  1 -0.57533649987190705 1.59999925399983 0.97947702496542299  1.0182719309783701 -0.92376000000000102 1.59999925399983 0.90909090909090895  1
 0 3 0.66106279746273899 3
2 0 6.12303176911189e-17 1 0 0 -1 1 0 0 0 -1 0 1.62251210423488
7 1 0  2 3 2  1.5203136013373699 -0.56673810704531602 1  1 1.67330824993595 -0.30174360238642001 0.97947702496542399  1.0182719309783901 1.8475200000000001 4.6631227065955e-16 0.90909090909090895  1
 0 3 0.66106279746274299 3
7 1 0  2 3 2  -1.8475200000000001 4.6631227065955e-16 0.90909090909090895  1 -1.67330824993595 -0.301743602386425 0.97947702496542399  1.0182719309783801 -1.5203136013373699 -0.56673810704531702 1  1
 0 3 0.66106279746274399 3
2 0 6.12303176911189e-17 1 0 0 -1 1 0 0 0 -1 0 1.62251210423488
7 1 0  2 3 2  0.26934720267473899 -1.59999925399983 1  1 0.57533649987191005 -1.59999925399983 0.97947702496542299  1.0182719309784001 0.92376000000000102 -1.59999925399983 0.90909090909090895  1
 0 3 0.66106279746273999 3
7 1 0  2 3 2  0.92376000000000003 -1.59999925399983 0.90909090909090895  1 1.09797175006405 -1.2982556516134101 0.97947702496542399  1.0182719309783601 1.25096639866263 -1.0332611469545101 1  1
 0 3 0.66106279746274299 3
2 0 6.12303176911189e-17 1 0 0 -1 1 0 0 0 -1 0 1.62251210423488
7 1 0  2 3 2  0.92375999999999903 1.59999925399983 0.090909090909091203  1 1.09797175006405 1.2982556516134001 0.0205229750345759  1.0182719309783901 1.25096639866263 1.0332611469545101 -4.8572257327350599e-17  1
 0 3 0.66106279746274199 3
2 0 0 0 0 0 1 1 0 -0 -0 1 0 1.62251210423488
7 1 0  2 3 2  0.269347202674737 1.59999925399983 -6.2450045135165105e-17  1 0.57533649987190805 1.59999925399983 0.020522975034576601  1.0182719309783499 0.92376000000000202 1.59999925399983 0.090909090909091106  1
 0 3 0.66106279746274199 3
7 1 0  2 3 2  -1.25096639866263 1.0332611469545101 9.0205620750794006e-17  1 -1.09797175006405 1.2982556516134101 0.0205229750345764  1.0182719309783801 -0.92375999999999903 1.59999925399983 0.090909090909091106  1
 0 3 0.66106279746273999 3
7 1 0  2 3 2  -0.92376000000000202 1.59999925399983 0.090909090909091106  1 -0.57533649987190805 1.59999925399983 0.020522975034576601  1.0182719309783499 -0.269347202674737 1.59999925399983 -6.2450045135165105e-17  1
 0 3 0.66106279746274199 3
2 0 0 0 0 0 1 1 0 -0 -0 1 0 1.62251210423488
7 1 0  2 3 2  1.8475200000000001 9.4837345255361299e-16 0.090909090909091106  1 1.67330824993595 -0.30174360238642201 0.020522975034576001  1.0182719309783701 1.5203136013373699 -0.56673810704531802 -1.52655665885959e-16  1
 0 3 0.66106279746274599 3
2 0 0 0 0 0 1 1 0 -0 -0 1 0 1.62251210423488
2 0 0 0 0 0 1 1 0 -0 -0 1 0 1.62251210423488
7 1 0  2 3 2  -1.5203136013373699 -0.56673810704531902 -6.2450045135165105e-17  1 -1.67330824993595 -0.30174360238642101 0.020522975034576198  1.0182719309783601 -1.8475200000000001 -5.88503979754787e-16 0.090909090909090898  1
 0 3 0.66106279746274499 3
7 1 0  2 3 2  0.92376000000000102 -1.59999925399983 0.090909090909091106  1 0.57533649987190405 -1.59999925399983 0.020522975034576101  1.0182719309783901 0.269347202674737 -1.59999925399983 5.5511151231257802e-17  1
 0 3 0.66106279746274099 3
2 0 0 0 0 0 1 1 0 -0 -0 1 0 1.62251210423488
7 1 0  2 3 2  1.25096639866263 -1.0332611469545101 -8.3266726846886704e-17  1 1.09797175006405 -1.2982556516134101 0.020522975034576101  1.0182719309783499 0.92376000000000003 -1.59999925399983 0.090909090909091203  1
 0 3 0.66106279746274499 3
7 1 0  2 3 2  -0.269347202674737 -1.59999925399983 0  1 -0.57533649987190405 -1.59999925399983 0.020522975034576101  1.0182719309783399 -0.92376000000000102 -1.59999925399983 0.090909090909091106  1
 0 3 0.66106279746274099 3
7 1 0  2 3 2  -0.92376000000000102 -1.59999925399983 0.090909090909090995  1 -1.09797175006405 -1.2982556516134001 0.020522975034576198  1.0182719309783801 -1.25096639866263 -1.0332611469545101 6.9388939039072299e-18  1
 0 3 0.66106279746274499 3
2 0 0 0 0 0 1 1 0 -0 -0 1 0 1.62251210423488
7 1 0  2 3 2  -0.92376000000000202 -1.59999925399983 0.90909090909090895  1 -0.57533649987191005 -1.59999925399983 0.97947702496542299  1.0182719309783601 -0.26934720267473999 -1.59999925399983 1  1
 0 3 0.66106279746273999 3
2 0 6.12303176911189e-17 1 0 0 -1 1 0 0 0 -1 0 1.62251210423488
7 1 0  2 3 2  -1.25096639866263 -1.0332611469545101 1  1 -1.09797175006405 -1.2982556516134001 0.97947702496542399  1.0182719309783701 -0.92376000000000102 -1.59999925399983 0.90909090909090895  1
 0 3 0.66106279746274399 3
2 0 4.9630999383507499e-17 0.81056249999999996 -0 6.12303176911189e-17 1 1 0 0 0 1 -6.12303176911189e-17 0.61056250000000001
2 0 6.12303176911189e-17 1 0 0 1 1 0 -0 -0 1 0 0.80000000000000004
2 0 1.15993183076113e-17 0.18943750000000001 -0 6.12303176911189e-17 1 1 0 0 0 1 -6.12303176911189e-17 0.61056250000000001
2 0 0 0 0 0 -1 1 0 0 0 -1 0 0.80000000000000004
1 -0.92376000000000102 -1.59999925399983 0 0 0 1 
1 -0.92376000000000102 -1.59999925399983 0 1 -2.40370447870693e-16 0 
1 0.92376000000000003 -1.59999925399983 0 0 0 1 
1 -0.92376000000000102 -1.59999925399983 1 -1 2.40370447870693e-16 0 
1 -1.8475200000000001 2.2624847308139202e-16 1 -0.49999999999999989 0.86602540378443882 0 
1 -1.8475200000000001 2.2624847308139202e-16 0 0 0 1 
1 -1.8475200000000001 2.2624847308139202e-16 0 0.49999999999999989 -0.86602540378443882 0 
1 -0.92376000000000003 1.59999925399983 1 0.50000000000000033 0.86602540378443849 0 
1 -0.92376000000000003 1.59999925399983 0 0 0 1 
1 -0.92376000000000003 1.59999925399983 0 -0.49999999999999989 -0.86602540378443882 0 
1 0.92376000000000003 1.59999925399983 1 1 0 0 
1 0.92376000000000003 1.59999925399983 0 0 0 1 
1 0.92376000000000003 1.59999925399983 0 -1 0 0 
1 1.8475200000000001 0 0 -0.49999999999999989 0.86602540378443882 0 
1 0.92376000000000003 -1.59999925399983 0 0.49999999999999989 0.86602540378443882 0 
1 1.8475200000000001 0 0 0 0 1 
1 0.92376000000000003 -1.59999925399983 1 -0.49999999999999989 -0.86602540378443882 -0 
1 1.8475200000000001 0 1 0.49999999999999989 -0.86602540378443882 0 
Polygon3D 0
PolygonOnTriangulations 0
Surfaces 30
3 0 5.7996591538056598e-18 0.094718750000000004 0 -6.12303176911189e-17 -1 1 0 0 0 -1 6.12303176911189e-17 0.70528124999999997
0.78539816339744795
2 0 3.0615158845559401e-17 0.5 -0 6.12303176911189e-17 1 1 0 0 0 1 -6.12303176911189e-17 0.61056250000000001
3 0 5.7996591538056598e-18 0.094718750000000004 0 -6.12303176911189e-17 -1 1 0 0 0 -1 6.12303176911189e-17 0.70528124999999997
0.78539816339744795
1 -4.2894980496881102e-17 -1.11022302462516e-16 0 0 0 1 1 0 -0 -0 1 0 
3 0 5.5430658537313202e-17 0.90528125000000004 -0 6.12303176911189e-17 1 1 0 0 0 1 -6.12303176911189e-17 0.70528124999999997
0.78539816339744795
2 0 3.0615158845559401e-17 0.5 -0 6.12303176911189e-17 1 1 0 0 0 1 -6.12303176911189e-17 0.61056250000000001
1 -4.2894980496881102e-17 -1.11022302462516e-16 1 0 0 1 1 0 -0 -0 1 0 
3 0 5.5430658537313202e-17 0.90528125000000004 -0 6.12303176911189e-17 1 1 0 0 0 1 -6.12303176911189e-17 0.70528124999999997
0.78539816339744795
3 0 2.78319625868722e-18 0.045454545454545497 -0 6.12303176911189e-17 1 1 0 0 0 1 -6.12303176911189e-17 1.73501605211744
1.18682389135614
3 0 2.78319625868722e-18 0.045454545454545497 -0 6.12303176911189e-17 1 1 0 0 0 1 -6.12303176911189e-17 1.73501605211744
1.18682389135614
1 -1.38564 0.799999626999913 0 -0.86602540378443882 0.49999999999999989 0 -0.49999999999999989 -0.86602540378443882 0 0 0 1 
3 0 2.78319625868722e-18 0.045454545454545497 -0 6.12303176911189e-17 1 1 0 0 0 1 -6.12303176911189e-17 1.73501605211744
1.18682389135614
3 0 2.78319625868722e-18 0.045454545454545497 -0 6.12303176911189e-17 1 1 0 0 0 1 -6.12303176911189e-17 1.73501605211744
1.18682389135614
1 1.38564 0.799999626999913 0 0.86602540378443882 0.49999999999999989 -0 -0.49999999999999989 0.86602540378443882 0 0 0 1 
3 0 5.8447121432431597e-17 0.95454545454545503 0 -6.12303176911189e-17 -1 1 0 0 0 -1 6.12303176911189e-17 1.73501605211744
1.18682389135614
3 0 5.8447121432431597e-17 0.95454545454545503 0 -6.12303176911189e-17 -1 1 0 0 0 -1 6.12303176911189e-17 1.73501605211744
1.18682389135614
3 0 5.8447121432431597e-17 0.95454545454545503 0 -6.12303176911189e-17 -1 1 0 0 0 -1 6.12303176911189e-17 1.73501605211744
1.18682389135614
3 0 5.8447121432431597e-17 0.95454545454545503 0 -6.12303176911189e-17 -1 1 0 0 0 -1 6.12303176911189e-17 1.73501605211744
1.18682389135614
3 0 5.8447121432431597e-17 0.95454545454545503 0 -6.12303176911189e-17 -1 1 0 0 0 -1 6.12303176911189e-17 1.73501605211744
1.18682389135614
1 2.2204460492503101e-16 1.59999925399983 0 0 1 -0 -1 0 0 0 0 1 
3 0 5.8447121432431597e-17 0.95454545454545503 0 -6.12303176911189e-17 -1 1 0 0 0 -1 6.12303176911189e-17 1.73501605211744
1.18682389135614
1 1.38564 -0.799999626999913 0 0.86602540378443882 -0.49999999999999989 0 0.49999999999999989 0.86602540378443882 0 -0 0 1 
1 -1.38564 -0.799999626999913 0 -0.86602540378443882 -0.49999999999999989 0 0.49999999999999989 -0.86602540378443882 0 0 0 1 
3 0 5.8447121432431597e-17 0.95454545454545503 0 -6.12303176911189e-17 -1 1 0 0 0 -1 6.12303176911189e-17 1.73501605211744
1.18682389135614
1 -3.3306690738754701e-16 -1.59999925399983 0 -2.40370447870693e-16 -1 0 1 -2.40370447870693e-16 0 0 0 1 
3 0 2.78319625868722e-18 0.045454545454545497 -0 6.12303176911189e-17 1 1 0 0 0 1 -6.12303176911189e-17 1.73501605211744
1.18682389135614
3 0 2.78319625868722e-18 0.045454545454545497 -0 6.12303176911189e-17 1 1 0 0 0 1 -6.12303176911189e-17 1.73501605211744
1.18682389135614
3 0 2.78319625868722e-18 0.045454545454545497 -0 6.12303176911189e-17 1 1 0 0 0 1 -6.12303176911189e-17 1.73501605211744
1.18682389135614
3 0 2.78319625868722e-18 0.045454545454545497 -0 6.12303176911189e-17 1 1 0 0 0 1 -6.12303176911189e-17 1.73501605211744
1.18682389135614
3 0 5.8447121432431597e-17 0.95454545454545503 0 -6.12303176911189e-17 -1 1 0 0 0 -1 6.12303176911189e-17 1.73501605211744
1.18682389135614
Triangulations 0

TShapes 188
Ve
1e-07
-0.6105625 8.63691899981789e-17 0.1894375
0 0

0101101
*
Ve
1e-07
0.6105625 1.15993183076113e-17 0.1894375
0 0

0101101
*
Ed
 1e-07 1 1 0
1  1 0 3.14159265358979 6.28318530717959
2  1 1 0 3.14159265358979 6.28318530717959
2  2 2 0 3.14159265358979 6.28318530717959
4 C0 1 0 2 0
0

0101000
+188 0 -187 0 *
Ve
1e-07
-0.8 9.79685083057902e-17 0
0 0

0101101
*
Ed
 1e-07 1 1 0
1  2 0 -0.133952540861027 0.133952540861027
2  3 1 0 -0.133952540861027 0.133952540861027
2  4 3 0 -0.133952540861027 0.133952540861027
4 CN 1 0 3 0
0

0101000
+188 0 -185 0 *
Ve
1e-07
0.8 0 0
0 0

0101101
*
Ed
 1e-07 1 1 0
1  3 0 0 3.14159265358979
2  5 1 0 0 3.14159265358979
4 C0 1 0 4 0
0

0101000
+183 0 -185 0 *
Ed
 1e-07 1 1 0
1  4 0 -0.133952540861027 0.133952540861027
2  6 1 0 -0.133952540861027 0.133952540861027
2  7 3 0 -0.133952540861027 0.133952540861027
4 CN 1 0 3 0
0

0101000
+183 0 -187 0 *
Wi

0101100
-186 0 +184 0 -182 0 +181 0 *
Fa
0  1e-07 1 0

0111000
+180 0 *
Ve
1e-07
-0.6105625 1.24400871074075e-16 0.8105625
0 0

0101101
*
Ve
1e-07
0.6105625 4.96309993835075e-17 0.8105625
0 0

0101101
*
Ed
 1e-07 1 1 0
1  5 0 3.14159265358979 6.28318530717959
2  8 2 0 3.14159265358979 6.28318530717959
2  9 5 0 3.14159265358979 6.28318530717959
4 C0 2 0 5 0
0

0101000
+178 0 -177 0 *
Ed
 1e-07 1 1 0
1  6 0 -0.3105625 0.3105625
2  10 2 0 -0.3105625 0.3105625
2  11 6 0 -0.3105625 0.3105625
4 CN 2 0 6 0
0

0101000
+178 0 -188 0 *
Ed
 1e-07 1 1 0
1  7 0 -0.3105625 0.3105625
2  12 2 0 -0.3105625 0.3105625
2  13 6 0 -0.3105625 0.3105625
4 CN 2 0 6 0
0

0101000
+187 0 -177 0 *
Wi

0101100
-176 0 +175 0 +186 0 +174 0 *
Fa
0  1e-07 2 0

0111000
+173 0 *
Ve
1e-07
-0.8 1.59198825996909e-16 1
0 0

0101101
*
Ve
1e-07
0.8 6.12303176911189e-17 1
0 0

0101101
*
Ed
 1e-07 1 1 0
1  8 0 3.14159265358979 6.28318530717959
2  14 5 0 3.14159265358979 6.28318530717959
4 C0 5 0 7 0
0

0101000
+171 0 -170 0 *
Ed
 1e-07 1 1 0
1  9 0 -0.133952540861027 0.133952540861027
2  15 5 0 -0.133952540861027 0.133952540861027
2  16 8 0 -0.133952540861027 0.133952540861027
4 CN 5 0 8 0
0

0101000
+171 0 -178 0 *
Ed
 1e-07 1 1 0
1  10 0 -0.133952540861027 0.133952540861027
2  17 5 0 -0.133952540861027 0.133952540861027
2  18 8 0 -0.133952540861027 0.133952540861027
4 CN 5 0 8 0
0

0101000
+177 0 -170 0 *
Wi

0101100
-169 0 +168 0 +176 0 +167 0 *
Fa
0  1e-07 5 0

0111000
+166 0 *
Ve
1e-07
-1.84752 -3.33066907387547e-16 0.0909090909090909
0 0

0101101
*
Ve
1e-07
-1.62251210423488 1.98693863199975e-16 0
0 0

0101101
*
Ed
 1e-07 1 1 0
1  11 0 -0.121339416479729 0.121339416479729
2  19 9 0 -0.121339416479729 0.121339416479729
2  20 10 0 -0.121339416479729 0.121339416479729
4 CN 9 0 10 0
0

0101000
+164 0 -163 0 *
Ve
1e-07
-1.52031360133737 0.566738107045316 -3.4701554342048e-17
0 0

0101101
*
Ed
 1e-07 1 1 0
1  12 0 0 0.66106279746274
2  21 9 0 0 0.66106279746274
4 C0 9 0 11 0
0

0101000
+164 0 -161 0 *
Ed
 1e-07 1 1 0
1  13 0 2.784772243244 3.14159265358979
2  22 9 0 2.784772243244 3.14159265358979
4 C0 9 0 4 0
0

0101000
+161 0 -163 0 *
Wi

0101100
-162 0 +160 0 +159 0 *
Fa
0  1e-07 9 0

0111000
+158 0 *
Ve
1e-07
1.62251210423488 -1.98693863199975e-16 0
0 0

0101101
*
Ve
1e-07
1.84752 5.56639251737444e-18 0.0909090909090909
0 0

0101101
*
Ed
 1e-07 1 1 0
1  14 0 -0.121339416479729 0.121339416479729
2  23 12 0 -0.121339416479729 0.121339416479729
2  24 13 0 -0.121339416479729 0.121339416479729
4 CN 12 0 13 0
0

0101000
+156 0 -155 0 *
Ve
1e-07
1.52031360133737 0.566738107045316 -3.47015543420481e-17
0 0

0101101
*
Ed
 1e-07 1 1 0
1  15 0 0 0.35682041034579
2  25 12 0 0 0.35682041034579
4 C0 12 0 4 0
0

0101000
+156 0 -153 0 *
Ed
 1e-07 1 1 0
1  16 0 0 0.661062797462742
2  26 12 0 0 0.661062797462742
4 C0 12 0 14 0
0

0101000
+153 0 -155 0 *
Wi

0101100
-154 0 +152 0 +151 0 *
Fa
0  1e-07 12 0

0111000
+150 0 *
Ve
1e-07
-1.62251210423488 2.59924180891094e-16 1
0 0

0101101
*
Ve
1e-07
-1.84752 -2.22044604925031e-16 0.909090909090909
0 0

0101101
*
Ed
 1e-07 1 1 0
1  17 0 -0.121339416479729 0.121339416479729
2  27 15 0 -0.121339416479729 0.121339416479729
2  28 16 0 -0.121339416479729 0.121339416479729
4 CN 15 0 16 0
0

0101000
+148 0 -147 0 *
Ve
1e-07
-1.52031360133737 0.566738107045316 1
0 0

0101101
*
Ed
 1e-07 1 1 0
1  18 0 3.14159265358979 3.49841306393558
2  29 15 0 3.14159265358979 3.49841306393558
4 C0 15 0 7 0
0

0101000
+148 0 -145 0 *
Ed
 1e-07 1 1 0
1  19 0 0 0.661062797462741
2  30 15 0 0 0.661062797462741
4 C0 15 0 11 0
0

0101000
+145 0 -147 0 *
Wi

0101100
-146 0 +144 0 +143 0 *
Fa
0  1e-07 15 0

0111000
+142 0 *
Ve
1e-07
1.84752 5.56639251737444e-17 0.909090909090909
0 0

0101101
*
Ve
1e-07
1.62251210423488 -1.37463545508857e-16 1
0 0

0101101
*
Ed
 1e-07 1 1 0
1  20 0 -0.121339416479729 0.121339416479729
2  31 17 0 -0.121339416479729 0.121339416479729
2  32 18 0 -0.121339416479729 0.121339416479729
4 CN 17 0 18 0
0

0101000
+140 0 -139 0 *
Ve
1e-07
1.52031360133737 0.566738107045316 1
0 0

0101101
*
Ed
 1e-07 1 1 0
1  21 0 0 0.661062797462741
2  33 17 0 0 0.661062797462741
4 C0 17 0 14 0
0

0101000
+140 0 -137 0 *
Ed
 1e-07 1 1 0
1  22 0 5.9263648968338 6.28318530717959
2  34 17 0 5.9263648968338 6.28318530717959
4 C0 17 0 7 0
0

0101000
+137 0 -139 0 *
Wi

0101100
-138 0 +136 0 +135 0 *
Fa
0  1e-07 17 0

0111000
+134 0 *
Ve
1e-07
0.92376 1.59999925399983 0.909090909090909
0 0

0101101
*
Ve
1e-07
0.269347202674736 1.59999925399983 1
0 0

0101101
*
Ed
 1e-07 1 1 0
1  23 0 0 0.661062797462739
2  35 19 0 0 0.661062797462739
4 C0 19 0 20 0
0

0101000
+132 0 -131 0 *
Ve
1e-07
1.25096639866263 1.03326114695451 1
0 0

0101101
*
Ed
 1e-07 1 1 0
1  24 0 4.8791673456372 5.59280816632878
2  36 19 0 4.8791673456372 5.59280816632878
4 C0 19 0 7 0
0

0101000
+131 0 -129 0 *
Ed
 1e-07 1 1 0
1  25 0 0 0.661062797462741
2  37 19 0 0 0.661062797462741
4 C0 19 0 14 0
0

0101000
+129 0 -132 0 *
Wi

0101100
+130 0 +128 0 +127 0 *
Fa
0  1e-07 19 0

0111000
+126 0 *
Ve
1e-07
-0.923759999999999 1.59999925399983 0.909090909090909
0 0

0101101
*
Ve
1e-07
-1.25096639866263 1.03326114695451 1
0 0

0101101
*
Ed
 1e-07 1 1 0
1  26 0 0 0.661062797462741
2  38 21 0 0 0.661062797462741
4 C0 21 0 11 0
0

0101000
+124 0 -123 0 *
Ve
1e-07
-0.269347202674736 1.59999925399983 1
0 0

0101101
*
Ed
 1e-07 1 1 0
1  27 0 3.8319697944406 4.54561061513218
2  39 21 0 3.8319697944406 4.54561061513218
4 C0 21 0 7 0
0

0101000
+123 0 -121 0 *
Ed
 1e-07 1 1 0
1  28 0 0 0.661062797462739
2  40 21 0 0 0.661062797462739
4 C0 21 0 20 0
0

0101000
+121 0 -124 0 *
Wi

0101100
+122 0 +120 0 +119 0 *
Fa
0  1e-07 21 0

0111000
+118 0 *
Ve
1e-07
1.52031360133737 -0.566738107045318 1
0 0

0101101
*
Ed
 1e-07 1 1 0
1  29 0 0 0.356820410345791
2  41 18 0 0 0.356820410345791
4 C0 18 0 7 0
0

0101000
+139 0 -116 0 *
Ed
 1e-07 1 1 0
1  30 0 0 0.661062797462743
2  42 18 0 0 0.661062797462743
4 C0 18 0 22 0
0

0101000
+116 0 -140 0 *
Wi

0101100
+138 0 +115 0 +114 0 *
Fa
0  1e-07 18 0

0111000
+113 0 *
Ve
1e-07
-1.52031360133737 -0.566738107045318 1
0 0

0101101
*
Ed
 1e-07 1 1 0
1  31 0 0 0.661062797462744
2  43 16 0 0 0.661062797462744
4 C0 16 0 23 0
0

0101000
+147 0 -111 0 *
Ed
 1e-07 1 1 0
1  32 0 2.784772243244 3.14159265358979
2  44 16 0 2.784772243244 3.14159265358979
4 C0 16 0 7 0
0

0101000
+111 0 -148 0 *
Wi

0101100
+146 0 +110 0 +109 0 *
Fa
0  1e-07 16 0

0111000
+108 0 *
Ve
1e-07
0.269347202674737 -1.59999925399983 1
0 0

0101101
*
Ve
1e-07
0.923760000000001 -1.59999925399983 0.909090909090909
0 0

0101101
*
Ed
 1e-07 1 1 0
1  33 0 0 0.66106279746274
2  45 24 0 0 0.66106279746274
4 C0 24 0 25 0
0

0101000
+106 0 -105 0 *
Ve
1e-07
1.25096639866263 -1.03326114695451 1
0 0

0101101
*
Ed
 1e-07 1 1 0
1  34 0 0 0.661062797462743
2  46 24 0 0 0.661062797462743
4 C0 24 0 22 0
0

0101000
+105 0 -103 0 *
Ed
 1e-07 1 1 0
1  35 0 0.690377140850808 1.40401796154239
2  47 24 0 0.690377140850808 1.40401796154239
4 C0 24 0 7 0
0

0101000
+103 0 -106 0 *
Wi

0101100
+104 0 +102 0 +101 0 *
Fa
0  1e-07 24 0

0111000
+100 0 *
Ve
1e-07
0.92376 1.59999925399983 0.0909090909090908
0 0

0101101
*
Ve
1e-07
1.25096639866263 1.03326114695451 -6.32669082859145e-17
0 0

0101101
*
Ed
 1e-07 1 1 0
1  36 0 0 0.661062797462742
2  48 26 0 0 0.661062797462742
4 C0 26 0 14 0
0

0101000
+98 0 -97 0 *
Ve
1e-07
0.269347202674736 1.59999925399983 -9.79684626279625e-17
0 0

0101101
*
Ed
 1e-07 1 1 0
1  37 0 0.690377140850808 1.40401796154239
2  49 26 0 0.690377140850808 1.40401796154239
4 C0 26 0 4 0
0

0101000
+97 0 -95 0 *
Ed
 1e-07 1 1 0
1  38 0 0 0.661062797462742
2  50 26 0 0 0.661062797462742
4 C0 26 0 20 0
0

0101000
+95 0 -98 0 *
Wi

0101100
+96 0 +94 0 +93 0 *
Fa
0  1e-07 26 0

0111000
+92 0 *
Ve
1e-07
-1.25096639866263 1.03326114695451 -6.32669082859146e-17
0 0

0101101
*
Ve
1e-07
-0.92376 1.59999925399983 0.0909090909090908
0 0

0101101
*
Ed
 1e-07 1 1 0
1  39 0 0 0.66106279746274
2  51 27 0 0 0.66106279746274
4 C0 27 0 11 0
0

0101000
+90 0 -89 0 *
Ve
1e-07
-0.269347202674736 1.59999925399983 -9.79684626279625e-17
0 0

0101101
*
Ed
 1e-07 1 1 0
1  40 0 0 0.661062797462742
2  52 27 0 0 0.661062797462742
4 C0 27 0 20 0
0

0101000
+89 0 -87 0 *
Ed
 1e-07 1 1 0
1  41 0 1.73757469204741 2.45121551273898
2  53 27 0 1.73757469204741 2.45121551273898
4 C0 27 0 4 0
0

0101000
+87 0 -90 0 *
Wi

0101100
+88 0 +86 0 +85 0 *
Fa
0  1e-07 27 0

0111000
+84 0 *
Ve
1e-07
1.52031360133737 -0.566738107045318 3.47015543420482e-17
0 0

0101101
*
Ed
 1e-07 1 1 0
1  42 0 0 0.661062797462746
2  54 13 0 0 0.661062797462746
4 C0 13 0 22 0
0

0101000
+155 0 -82 0 *
Ed
 1e-07 1 1 0
1  43 0 5.9263648968338 6.28318530717959
2  55 13 0 5.9263648968338 6.28318530717959
4 C0 13 0 4 0
0

0101000
+82 0 -156 0 *
Wi

0101100
+154 0 +81 0 +80 0 *
Fa
0  1e-07 13 0

0111000
+79 0 *
Ve
1e-07
-1.52031360133737 -0.566738107045318 3.47015543420482e-17
0 0

0101101
*
Ed
 1e-07 1 1 0
1  44 0 3.14159265358979 3.49841306393558
2  56 10 0 3.14159265358979 3.49841306393558
4 C0 10 0 4 0
0

0101000
+163 0 -77 0 *
Ed
 1e-07 1 1 0
1  45 0 0 0.661062797462745
2  57 10 0 0 0.661062797462745
4 C0 10 0 23 0
0

0101000
+77 0 -164 0 *
Wi

0101100
+162 0 +76 0 +75 0 *
Fa
0  1e-07 10 0

0111000
+74 0 *
Ve
1e-07
0.923760000000001 -1.59999925399983 0.090909090909091
0 0

0101101
*
Ve
1e-07
0.269347202674737 -1.59999925399983 9.79684626279625e-17
0 0

0101101
*
Ed
 1e-07 1 1 0
1  46 0 0 0.661062797462741
2  58 28 0 0 0.661062797462741
4 C0 28 0 25 0
0

0101000
+72 0 -71 0 *
Ve
1e-07
1.25096639866263 -1.03326114695451 6.32669082859144e-17
0 0

0101101
*
Ed
 1e-07 1 1 0
1  47 0 4.8791673456372 5.59280816632878
2  59 28 0 4.8791673456372 5.59280816632878
4 C0 28 0 4 0
0

0101000
+71 0 -69 0 *
Ed
 1e-07 1 1 0
1  48 0 0 0.661062797462745
2  60 28 0 0 0.661062797462745
4 C0 28 0 22 0
0

0101000
+69 0 -72 0 *
Wi

0101100
+70 0 +68 0 +67 0 *
Fa
0  1e-07 28 0

0111000
+66 0 *
Ve
1e-07
-0.269347202674738 -1.59999925399983 9.79684626279625e-17
0 0

0101101
*
Ve
1e-07
-0.923760000000001 -1.59999925399983 0.090909090909091
0 0

0101101
*
Ed
 1e-07 1 1 0
1  49 0 0 0.661062797462741
2  61 29 0 0 0.661062797462741
4 C0 29 0 25 0
0

0101000
+64 0 -63 0 *
Ve
1e-07
-1.25096639866263 -1.03326114695451 6.32669082859144e-17
0 0

0101101
*
Ed
 1e-07 1 1 0
1  50 0 0 0.661062797462745
2  62 29 0 0 0.661062797462745
4 C0 29 0 23 0
0

0101000
+63 0 -61 0 *
Ed
 1e-07 1 1 0
1  51 0 3.8319697944406 4.54561061513218
2  63 29 0 3.8319697944406 4.54561061513218
4 C0 29 0 4 0
0

0101000
+61 0 -64 0 *
Wi

0101100
+62 0 +60 0 +59 0 *
Fa
0  1e-07 29 0

0111000
+58 0 *
Ve
1e-07
-0.923760000000001 -1.59999925399983 0.909090909090909
0 0

0101101
*
Ve
1e-07
-0.269347202674738 -1.59999925399983 1
0 0

0101101
*
Ed
 1e-07 1 1 0
1  52 0 0 0.66106279746274
2  64 30 0 0 0.66106279746274
4 C0 30 0 25 0
0

0101000
+56 0 -55 0 *
Ve
1e-07
-1.25096639866263 -1.03326114695451 1
0 0

0101101
*
Ed
 1e-07 1 1 0
1  53 0 1.73757469204741 2.45121551273898
2  65 30 0 1.73757469204741 2.45121551273898
4 C0 30 0 7 0
0

0101000
+55 0 -53 0 *
Ed
 1e-07 1 1 0
1  54 0 0 0.661062797462744
2  66 30 0 0 0.661062797462744
4 C0 30 0 23 0
0

0101000
+53 0 -56 0 *
Wi

0101100
+54 0 +52 0 +51 0 *
Fa
0  1e-07 30 0

0111000
+50 0 *
Ed
 1e-07 1 1 0
1  55 0 0 3.14159265358979
2  67 8 0 0 3.14159265358979
2  68 6 0 0 3.14159265358979
4 C0 8 0 6 0
0

0101000
+177 0 -178 0 *
Ed
 1e-07 1 1 0
1  56 0 0 3.14159265358979
2  69 8 0 0 3.14159265358979
4 C0 8 0 7 0
0

0101000
+170 0 -171 0 *
Wi

0101100
+48 0 -168 0 -47 0 -167 0 *
Fa
0  1e-07 8 0

0111000
+46 0 *
Ed
 1e-07 1 1 0
1  57 0 0 3.14159265358979
2  70 6 0 0 3.14159265358979
2  71 3 0 0 3.14159265358979
4 C0 6 0 3 0
0

0101000
+187 0 -188 0 *
Wi

0101100
+44 0 -175 0 -48 0 -174 0 *
Fa
0  1e-07 6 0

0111000
+43 0 *
Ed
 1e-07 1 1 0
1  58 0 3.14159265358979 6.28318530717959
2  72 3 0 3.14159265358979 6.28318530717959
4 C0 3 0 4 0
0

0101000
+185 0 -183 0 *
Wi

0101100
-41 0 -184 0 -44 0 -181 0 *
Fa
0  1e-07 3 0

0111000
+40 0 *
Ed
 1e-07 1 1 0
1  59 0 0.090909090909091 0.909090909090909
4 C0 25 0 23 0
0

0101000
+63 0 -56 0 *
Ed
 1e-07 1 1 0
1  60 0 0.654412797325263 1.19310720267474
4 C0 25 0 4 0
0

0101000
+64 0 -71 0 *
Ed
 1e-07 1 1 0
1  61 0 0.090909090909091 0.909090909090909
4 C0 25 0 22 0
0

0101000
+72 0 -105 0 *
Ed
 1e-07 1 1 0
1  62 0 -1.19310720267474 -0.654412797325263
4 C0 25 0 7 0
0

0101000
+106 0 -55 0 *
Wi

0101100
-54 0 -38 0 -62 0 +37 0 -70 0 +36 0 -104 0 +35 0 *
Fa
0  1e-07 25 0

0111000
+34 0 *
Ed
 1e-07 1 1 0
1  63 0 -1.19310720267474 -0.654412797325265
4 C0 23 0 7 0
0

0101000
+53 0 -111 0 *
Ed
 1e-07 1 1 0
1  64 0 0.0909090909090909 0.909090909090909
4 C0 23 0 11 0
0

0101000
+164 0 -147 0 *
Ed
 1e-07 1 1 0
1  65 0 0.654412797325265 1.19310720267474
4 C0 23 0 4 0
0

0101000
+77 0 -61 0 *
Wi

0101100
-51 0 +32 0 -110 0 -31 0 -75 0 +30 0 -60 0 +38 0 *
Fa
0  1e-07 23 0

0111000
+29 0 *
Ed
 1e-07 1 1 0
1  66 0 -1.19310720267474 -0.654412797325267
4 C0 11 0 7 0
0

0101000
+145 0 -123 0 *
Ed
 1e-07 1 1 0
1  67 0 0.0909090909090908 0.909090909090909
4 C0 11 0 20 0
0

0101000
+89 0 -124 0 *
Ed
 1e-07 1 1 0
1  68 0 0.654412797325267 1.19310720267474
4 C0 11 0 4 0
0

0101000
+90 0 -161 0 *
Wi

0101100
-143 0 +27 0 -122 0 -26 0 -88 0 +25 0 -160 0 +31 0 *
Fa
0  1e-07 11 0

0111000
+24 0 *
Ed
 1e-07 1 1 0
1  69 0 -1.19310720267474 -0.654412797325264
4 C0 20 0 7 0
0

0101000
+121 0 -131 0 *
Ed
 1e-07 1 1 0
1  70 0 0.0909090909090908 0.909090909090909
4 C0 20 0 14 0
0

0101000
+98 0 -132 0 *
Ed
 1e-07 1 1 0
1  71 0 0.654412797325264 1.19310720267474
4 C0 20 0 4 0
0

0101000
+95 0 -87 0 *
Wi

0101100
-119 0 +22 0 -130 0 -21 0 -93 0 +20 0 -86 0 +26 0 *
Fa
0  1e-07 20 0

0111000
+19 0 *
Wi

0101100
-182 0 -41 0 *
Ed
 1e-07 1 1 0
1  72 0 0.654412797325263 1.19310720267474
4 C0 4 0 14 0
0

0101000
+153 0 -97 0 *
Ed
 1e-07 1 1 0
1  73 0 0.654412797325267 1.19310720267474
4 C0 4 0 22 0
0

0101000
+69 0 -82 0 *
Wi

0101100
-59 0 -30 0 -76 0 -159 0 -25 0 -85 0 -20 0 -94 0 -16 0 -152 0 
-80 0 -15 0 -68 0 -37 0 *
Fa
0  1e-07 4 0

0111000
-17 0 -14 0 *
Ed
 1e-07 1 1 0
1  74 0 0.0909090909090909 0.909090909090909
4 C0 22 0 14 0
0

0101000
+155 0 -140 0 *
Ed
 1e-07 1 1 0
1  75 0 -1.19310720267474 -0.654412797325267
4 C0 22 0 7 0
0

0101000
+116 0 -103 0 *
Wi

0101100
-102 0 -36 0 -67 0 +15 0 -81 0 +12 0 -114 0 +11 0 *
Fa
0  1e-07 22 0

0111000
+10 0 *
Ed
 1e-07 1 1 0
1  76 0 -1.19310720267474 -0.654412797325263
4 C0 14 0 7 0
0

0101000
+129 0 -137 0 *
Wi

0101100
-136 0 -12 0 -151 0 +16 0 -96 0 +21 0 -127 0 +8 0 *
Fa
0  1e-07 14 0

0111000
+7 0 *
Wi

0101100
-52 0 -35 0 -101 0 -11 0 -115 0 -135 0 -8 0 -128 0 -22 0 -120 0 
-27 0 -144 0 -109 0 -32 0 *
Wi

0101100
-47 0 -169 0 *
Fa
0  1e-07 7 0

0111000
+5 0 +4 0 *
Sh

0101100
-179 0 -172 0 -165 0 +157 0 +149 0 +141 0 +133 0 +125 0 +117 0 +112 0 
+107 0 +99 0 +91 0 +83 0 +78 0 +73 0 +65 0 +57 0 +49 0 -45 0 
-42 0 -39 0 +33 0 +28 0 +23 0 +18 0 -13 0 +9 0 +6 0 +3 0 
*
So

0100000
+2 0 *

+1 0 