DBRep_DrawableShape

CASCADE Topology V1, (c) Matra-Datavision
Locations 0
Curve2ds 48
1 6.2831853071795862 -0.3827215453172188 -1 0 
1 0 -2.8587499999999997 1 0 
1 3.1415926535897931 -1.1102230246251565e-16 0 1 
1 3.1415926535897931 -1.1102230246251565e-16 0 1 
1 0 0.3827215453172188 1 0 
1 0 -2.2204460492503131e-16 0 -1 
1 6.2831853071795862 -2.2204460492503131e-16 0 -1 
1 0 2.8587500000000001 1 0 
1 0 -0.38272154531721869 1 0 
1 3.1415926535897931 0 0 -1 
1 3.1415926535897931 0 0 -1 
1 6.2831853071795862 0 0 1 
1 0 0 0 1 
1 0 0.38272154531721869 1 0 
1 3.1415926535897931 0 0 -1 
1 3.1415926535897931 0 0 -1 
1 6.2831853071795862 0 0 1 
1 0 0 0 1 
1 6.2831853071795862 4.4408920985006262e-16 0 -1 
1 0 4.4408920985006262e-16 0 -1 
7 0 0  3 25 23  6.2831853071795862 0.82510803206215011  6.2680340456277861 0.75431624543727827  6.2375460180780236 0.62108097167842924  6.1912992310482675 0.44481389064473692  6.1445783066133597 0.2905821142299439  6.0974279107402145 0.15715521385989187  6.0498951347942089 0.043477005017218524  6.0020296464011205 -0.051324140885929598  5.9538833126046873 -0.12796118396722941  5.9055099180821431 -0.18699985395208493  5.8569648164595689 -0.22886989427975374  5.8083045642776776 -0.25387280781983845  5.7595865315812871 -0.26218736669869663  5.7108684988848983 -0.25387280781983868  5.6622082467030035 -0.22886989427975291  5.6136631450804328 -0.1869998539520821  5.5652897505578878 -0.12796118396722456  5.5171434167614528 -0.051324140885927259  5.4692779283683635 0.043477005017224832  5.4217451524223614 0.15715521385989473  5.3745947565492109 0.2905821142299464  5.3278738321143093 0.44481389064474536  5.2816270450845515 0.62108097167843324  5.2511390175347881 0.75431624543728237  5.2359877559829879 0.82510803206215588 
 0 4 0.34315472918538364 1 0.68630945837076729 1 1.029464187556151 1 1.3726189167415346 1 1.7157736459269182 1 2.058928375112302 1 2.4020831042976853 1 2.7452378334830692 1 3.088392562668453 1 3.4315472918538363 1 3.7747020210392201 1 4.117856750224604 1 4.4610114794099873 1 4.8041662085953707 1 5.1473209377807549 1 5.4904756669661383 1 5.8336303961515217 1 6.1767851253369059 1 6.5199398545222893 1 6.8630945837076727 1 7.2062493128930569 1 7.5494040420784403 4
7 0 0  3 25 23  5.2359877559829897 0.82510803206215089  5.2208364944311896 0.7543162454372786  5.1903484668814261 0.62108097167842902  5.1441016798516701 0.44481389064473659  5.0973807554167649 0.29058211422994062  5.0502303595436162 0.15715521385989223  5.0026975835976142 0.043477005017215326  4.9548320952045231 -0.051324140885931971  4.906685761408089 -0.12796118396723152  4.8583123668855457 -0.18699985395208885  4.8097672652629715 -0.22886989427975579  4.7611070130810811 -0.25387280781984595  4.7123889803846888 -0.26218736669869908  4.6636709476882983 -0.25387280781984595  4.6150106955064079 -0.22886989427975596  4.5664655938838346 -0.18699985395208865  4.5180921993612904 -0.12796118396723  4.4699458655648563 -0.051324140885933074  4.4220803771717643 0.043477005017218864  4.3745476012257649 0.15715521385988721  4.3273972053526126 0.29058211422994318  4.280676280917711 0.44481389064473553  4.2344294938879532 0.62108097167843079  4.2039414663381898 0.7543162454372796  4.1887902047863896 0.82510803206215089 
 0 4 0.34315472918538409 1 0.68630945837076818 1 1.0294641875561523 1 1.3726189167415364 1 1.7157736459269204 1 2.0589283751123046 1 2.4020831042976885 1 2.7452378334830727 1 3.088392562668457 1 3.4315472918538408 1 3.774702021039225 1 4.1178567502246093 1 4.4610114794099935 1 4.8041662085953769 1 5.1473209377807612 1 5.4904756669661454 1 5.8336303961515297 1 6.1767851253369139 1 6.5199398545222973 1 6.8630945837076816 1 7.2062493128930658 1 7.5494040420784501 4
7 0 0  3 25 23  4.1887902047863914 0.82510803206215422  4.1736389432345913 0.75431624543728337  4.143150915684827 0.62108097167843523  4.0969041286550727 0.44481389064474225  4.0501832042201658 0.29058211422994634  4.0030328083470188 0.15715521385989642  3.9555000324010146 0.043477005017222549  3.9076345440079252 -0.051324140885925504  3.8594882102114911 -0.12796118396722511  3.8111148156889478 -0.18699985395208157  3.7625697140663745 -0.22886989427975182  3.7139094618844841 -0.25387280781983951  3.6651914291880918 -0.2621873666986943  3.6164733964917031 -0.25387280781984206  3.5678131443098091 -0.22886989427975163  3.5192680426872371 -0.18699985395208374  3.4708946481646934 -0.12796118396722911  3.4227483143682589 -0.051324140885927294  3.3748828259751686 0.043477005017219648  3.3273500500291662 0.15715521385989076  3.280199654156017 0.2905821142299429  3.2334787297211132 0.44481389064473875  3.1872319426913562 0.62108097167842868  3.1567439151415932 0.75431624543727749  3.1415926535897931 0.82510803206215011 
 0 4 0.34315472918538364 1 0.68630945837076729 1 1.029464187556151 1 1.3726189167415346 1 1.7157736459269182 1 2.058928375112302 1 2.4020831042976853 1 2.7452378334830692 1 3.088392562668453 1 3.4315472918538363 1 3.7747020210392201 1 4.117856750224604 1 4.4610114794099873 1 4.8041662085953707 1 5.1473209377807549 1 5.4904756669661383 1 5.8336303961515217 1 6.1767851253369059 1 6.5199398545222893 1 6.8630945837076727 1 7.2062493128930569 1 7.5494040420784403 4
1 3.1415926535897931 0 0 1 
1 3.1415926535897931 0 0 1 
1 0 -0.82510803206214978 1 0 
1 0 -1.1102230246251565e-16 0 1 
1 6.2831853071795862 -1.1102230246251565e-16 0 1 
1 0 -0.82510803206214967 1 0 
1 3.1415926535897931 1.1102230246251565e-16 0 -1 
1 3.1415926535897931 1.1102230246251565e-16 0 -1 
7 0 0  3 25 23  3.1415926535897931 0.82510803206215  3.126441392037993 0.75431624543727849  3.0959533644882278 0.62108097167842946  3.049706577458478 0.44481389064473603  3.0029856530235648 0.29058211422994334  2.9558352571504223 0.15715521385989195  2.9083024812044158 0.043477005017218399  2.8604369928113265 -0.051324140885929542  2.8122906590148951 -0.1279611839672308  2.7639172644923491 -0.1869998539520851  2.7153721628697784 -0.22886989427975446  2.6667119106878836 -0.25387280781984312  2.6179938779914949 -0.26218736669869591  2.5692758452951043 -0.25387280781984206  2.520615593113213 -0.22886989427975343  2.4720704914906406 -0.18699985395208513  2.4236970969680964 -0.12796118396722619  2.3755507631716597 -0.051324140885927932  2.3276852747785721 0.043477005017222424  2.280152498832571 0.15715521385989031  2.233002102959416 0.29058211422994557  2.1862811785245171 0.44481389064474358  2.1400343914947584 0.62108097167843301  2.109546363944995 0.7543162454372816  2.0943951023931948 0.82510803206215433 
 0 4 0.34315472918538364 1 0.68630945837076729 1 1.029464187556151 1 1.3726189167415346 1 1.7157736459269182 1 2.058928375112302 1 2.4020831042976853 1 2.7452378334830692 1 3.088392562668453 1 3.4315472918538363 1 3.7747020210392201 1 4.117856750224604 1 4.4610114794099873 1 4.8041662085953707 1 5.1473209377807549 1 5.4904756669661383 1 5.8336303961515217 1 6.1767851253369059 1 6.5199398545222893 1 6.8630945837076727 1 7.2062493128930569 1 7.5494040420784403 4
7 0 0  3 25 23  2.0943951023931966 0.825108032062151  2.0792438408413947 0.75431624543728015  2.0487558132916348 0.6210809716784309  2.0025090262618779 0.44481389064473481  1.95578810182697 0.29058211422994229  1.9086377059538258 0.15715521385989267  1.8611049300078175 0.043477005017216498  1.8132394416147317 -0.051324140885932644  1.765093107818295 -0.12796118396723177  1.7167197132957517 -0.18699985395208843  1.6681746116731793 -0.22886989427975549  1.619514359491288 -0.25387280781984622  1.5707963267948974 -0.26218736669869785  1.522078294098506 -0.25387280781984672  1.4734180419166147 -0.22886989427975366  1.4248729402940397 -0.18699985395209046  1.3764995457714999 -0.12796118396723011  1.3283532119750614 -0.05132414088593247  1.2804877235819747 0.043477005017218968  1.2329549476359691 0.15715521385988829  1.1858045517628195 0.29058211422994173  1.1390836273279161 0.4448138906447362  1.092836840298161 0.62108097167843157  1.0623488127483984 0.75431624543728037  1.0471975511965965 0.825108032062151 
 0 4 0.34315472918538364 1 0.68630945837076729 1 1.029464187556151 1 1.3726189167415346 1 1.7157736459269182 1 2.058928375112302 1 2.4020831042976853 1 2.7452378334830692 1 3.088392562668453 1 3.4315472918538363 1 3.7747020210392201 1 4.117856750224604 1 4.4610114794099873 1 4.8041662085953707 1 5.1473209377807549 1 5.4904756669661383 1 5.8336303961515217 1 6.1767851253369059 1 6.5199398545222893 1 6.8630945837076727 1 7.2062493128930569 1 7.5494040420784403 4
7 0 0  3 25 23  1.0471975511965983 0.82510803206215511  1.0320462896447982 0.75431624543728315  1.0015582620950347 0.62108097167843435  0.95531147506527958 0.44481389064474297  0.90859055063037353 0.29058211422994645  0.8614401547572248 0.15715521385989778  0.81390737881122011 0.043477005017222223  0.76604189041813253 -0.051324140885925587  0.71789555662169757 -0.12796118396722531  0.66952216209915427 -0.18699985395208102  0.62097706047658185 -0.22886989427975102  0.57231680829468878 -0.25387280781984095  0.52359877559830004 -0.26218736669869319  0.47488074290190596 -0.25387280781984056  0.42622049072001822 -0.22886989427975254  0.37767538909744314 -0.1869998539520854  0.32930199457489984 -0.12796118396722636  0.28115566077846754 -0.051324140885927405  0.23329017238537197 0.043477005017220093  0.18575739643937528 0.15715521385988884  0.13860700056622122 0.29058211422994334  0.091886076131317829 0.44481389064473886  0.045639289101565339 0.62108097167842891  0.015151261551801021 0.75431624543727749  0 0.82510803206215 
 0 4 0.34315472918538364 1 0.68630945837076729 1 1.029464187556151 1 1.3726189167415346 1 1.7157736459269182 1 2.058928375112302 1 2.4020831042976853 1 2.7452378334830692 1 3.088392562668453 1 3.4315472918538363 1 3.7747020210392201 1 4.117856750224604 1 4.4610114794099873 1 4.8041662085953707 1 5.1473209377807549 1 5.4904756669661383 1 5.8336303961515217 1 6.1767851253369059 1 6.5199398545222893 1 6.8630945837076727 1 7.2062493128930569 1 7.5494040420784403 4
7 0 0  3 25 23  6.2831853071795862 0.82510803206215  6.2680340456277861 0.75431624543727882  6.2375460180780227 0.62108097167843035  6.1912992310482675 0.44481389064473803  6.1445783066133606 0.29058211422994479  6.0974279107402136 0.15715521385989406  6.0498951347942089 0.043477005017219003  6.0020296464011214 -0.051324140885928758  5.9538833126046846 -0.12796118396722911  5.9055099180821422 -0.18699985395208221  5.8569648164595689 -0.22886989427975241  5.8083045642776776 -0.25387280781983906  5.7595865315812871 -0.2621873666986938  5.7108684988848983 -0.25387280781983951  5.6622082467030035 -0.22886989427975094  5.6136631450804328 -0.18699985395208277  5.5652897505578878 -0.12796118396722339  5.5171434167614528 -0.05132414088592685  5.4692779283683635 0.043477005017224755  5.4217451524223614 0.15715521385989423  5.3745947565492109 0.29058211422994651  5.3278738321143093 0.44481389064474536  5.2816270450845515 0.62108097167843335  5.2511390175347881 0.75431624543728226  5.2359877559829879 0.82510803206215566 
 0 4 0.34315472918538364 1 0.68630945837076729 1 1.029464187556151 1 1.3726189167415346 1 1.7157736459269182 1 2.058928375112302 1 2.4020831042976853 1 2.7452378334830692 1 3.088392562668453 1 3.4315472918538363 1 3.7747020210392201 1 4.117856750224604 1 4.4610114794099873 1 4.8041662085953707 1 5.1473209377807549 1 5.4904756669661383 1 5.8336303961515217 1 6.1767851253369059 1 6.5199398545222893 1 6.8630945837076727 1 7.2062493128930569 1 7.5494040420784403 4
7 0 0  3 25 23  5.2359877559829888 0.82510803206214656  5.2208364944311887 0.75431624543727638  5.1903484668814244 0.62108097167842724  5.144101679851671 0.44481389064473076  5.0973807554167614 0.2905821142299409  5.0502303595436162 0.15715521385989084  5.0026975835976106 0.043477005017214354  4.9548320952045222 -0.05132414088593313  4.906685761408089 -0.12796118396723324  4.8583123668855439 -0.18699985395208771  4.8097672652629724 -0.22886989427975749  4.7611070130810784 -0.25387280781984439  4.7123889803846906 -0.26218736669869891  4.6636709476882992 -0.25387280781984511  4.6150106955064052 -0.22886989427975454  4.5664655938838346 -0.18699985395208901  4.5180921993612913 -0.12796118396723083  4.4699458655648545 -0.051324140885931832  4.4220803771717652 0.043477005017221355  4.3745476012257623 0.15715521385988709  4.3273972053526135 0.29058211422994307  4.2806762809177101 0.44481389064473559  4.2344294938879532 0.62108097167843124  4.2039414663381898 0.75431624543728004  4.1887902047863896 0.82510803206215066 
 0 4 0.34315472918538364 1 0.68630945837076729 1 1.029464187556151 1 1.3726189167415346 1 1.7157736459269182 1 2.058928375112302 1 2.4020831042976853 1 2.7452378334830692 1 3.088392562668453 1 3.4315472918538363 1 3.7747020210392201 1 4.117856750224604 1 4.4610114794099873 1 4.8041662085953707 1 5.1473209377807549 1 5.4904756669661383 1 5.8336303961515217 1 6.1767851253369059 1 6.5199398545222893 1 6.8630945837076727 1 7.2062493128930569 1 7.5494040420784403 4
7 0 0  3 25 23  4.1887902047863905 0.82510803206214656  4.1736389432345904 0.75431624543727505  4.143150915684827 0.62108097167842657  4.0969041286550718 0.4448138906447357  4.050183204220164 0.29058211422994207  4.003032808347017 0.15715521385989203  3.9555000324010146 0.043477005017219419  3.9076345440079243 -0.051324140885928758  3.8594882102114911 -0.12796118396722986  3.8111148156889469 -0.18699985395208443  3.7625697140663741 -0.22886989427975257  3.7139094618844832 -0.25387280781984117  3.6651914291880909 -0.26218736669869508  3.6164733964917022 -0.25387280781984178  3.5678131443098096 -0.22886989427975044  3.5192680426872363 -0.18699985395208732  3.4708946481646934 -0.12796118396722533  3.4227483143682584 -0.051324140885929008  3.3748828259751686 0.043477005017220918  3.3273500500291653 0.15715521385988737  3.280199654156017 0.2905821142299439  3.2334787297211123 0.4448138906447387  3.1872319426913562 0.62108097167842891  3.1567439151415932 0.75431624543727749  3.1415926535897927 0.82510803206215 
 0 4 0.34315472918538364 1 0.68630945837076729 1 1.029464187556151 1 1.3726189167415346 1 1.7157736459269182 1 2.058928375112302 1 2.4020831042976853 1 2.7452378334830692 1 3.088392562668453 1 3.4315472918538363 1 3.7747020210392201 1 4.117856750224604 1 4.4610114794099873 1 4.8041662085953707 1 5.1473209377807549 1 5.4904756669661383 1 5.8336303961515217 1 6.1767851253369059 1 6.5199398545222893 1 6.8630945837076727 1 7.2062493128930569 1 7.5494040420784403 4
1 0 -0.82510803206214967 1 0 
1 0 -0.82510803206214978 1 0 
7 0 0  3 25 23  3.1415926535897931 0.82510803206215011  3.1264413920379925 0.7543162454372786  3.0959533644882296 0.62108097167843024  3.0497065774584735 0.44481389064473786  3.0029856530235679 0.29058211422994384  2.9558352571504201 0.1571552138598912  2.9083024812044185 0.043477005017221265  2.860436992811326 -0.05132414088592975  2.8122906590148928 -0.12796118396722875  2.7639172644923491 -0.1869998539520826  2.7153721628697767 -0.2288698942797539  2.6667119106878854 -0.25387280781983995  2.617993877991494 -0.26218736669869563  2.5692758452951034 -0.25387280781984101  2.5206155931132126 -0.22886989427975421  2.4720704914906402 -0.18699985395208507  2.4236970969680955 -0.12796118396722828  2.3755507631716615 -0.051324140885928876  2.3276852747785708 0.043477005017220169  2.2801524988325692 0.15715521385988965  2.2330021029594205 0.29058211422994173  2.1862811785245158 0.44481389064473847  2.1400343914947602 0.62108097167842535  2.1095463639449967 0.75431624543727327  2.0943951023931957 0.825108032062146 
 0 4 0.34315472918538314 1 0.68630945837076629 1 1.0294641875561494 1 1.3726189167415326 1 1.7157736459269157 1 2.0589283751122989 1 2.4020831042976818 1 2.7452378334830652 1 3.0883925626684485 1 3.4315472918538314 1 3.7747020210392144 1 4.1178567502245977 1 4.4610114794099811 1 4.8041662085953636 1 5.147320937780747 1 5.4904756669661303 1 5.8336303961515137 1 6.1767851253368971 1 6.5199398545222795 1 6.8630945837076629 1 7.2062493128930463 1 7.5494040420784296 4
7 0 0  3 25 23  2.094395102393197 0.82510803206215089  2.0792438408413965 0.75431624543728004  2.0487558132916326 0.62108097167843068  2.0025090262618779 0.44481389064473426  1.9557881018269709 0.29058211422994323  1.908637705953824 0.15715521385989228  1.8611049300078206 0.043477005017217588  1.8132394416147304 -0.051324140885931166  1.7650931078182963 -0.12796118396723213  1.7167197132957521 -0.18699985395208726  1.6681746116731797 -0.2288698942797566  1.619514359491288 -0.25387280781984434  1.570796326794897 -0.26218736669869996  1.5220782940985065 -0.25387280781984423  1.4734180419166145 -0.22886989427975721  1.4248729402940419 -0.18699985395208893  1.3764995457714977 -0.1279611839672323  1.3283532119750641 -0.051324140885934066  1.2804877235819734 0.043477005017220273  1.2329549476359709 0.15715521385988518  1.1858045517628222 0.29058211422993968  1.1390836273279172 0.44481389064473253  1.0928368402981612 0.62108097167842702  1.0623488127483978 0.75431624543727571  1.0471975511965974 0.82510803206214678 
 0 4 0.34315472918538364 1 0.68630945837076729 1 1.029464187556151 1 1.3726189167415346 1 1.7157736459269182 1 2.058928375112302 1 2.4020831042976853 1 2.7452378334830692 1 3.088392562668453 1 3.4315472918538363 1 3.7747020210392201 1 4.117856750224604 1 4.4610114794099873 1 4.8041662085953707 1 5.1473209377807549 1 5.4904756669661383 1 5.8336303961515217 1 6.1767851253369059 1 6.5199398545222893 1 6.8630945837076727 1 7.2062493128930569 1 7.5494040420784403 4
7 0 0  3 25 23  1.0471975511965981 0.82510803206215499  1.0320462896447975 0.75431624543728304  1.0015582620950347 0.6210809716784339  0.95531147506527858 0.44481389064474258  0.90859055063037297 0.29058211422994618  0.86144015475722535 0.15715521385989648  0.81390737881122266 0.043477005017222431  0.76604189041813198 -0.051324140885925122  0.71789555662169879 -0.12796118396722653  0.66952216209915405 -0.18699985395208119  0.62097706047658174 -0.22886989427975196  0.57231680829469012 -0.2538728078198394  0.52359877559829926 -0.2621873666986948  0.47488074290190857 -0.25387280781984001  0.42622049072001678 -0.22886989427975446  0.37767538909744414 -0.18699985395208468  0.32930199457489984 -0.1279611839672275  0.28115566077846604 -0.051324140885927814  0.23329017238537531 0.043477005017220155  0.18575739643937281 0.15715521385988923  0.13860700056622449 0.29058211422994334  0.091886076131319397 0.44481389064473859  0.045639289101562903 0.62108097167842868  0.015151261551800084 0.75431624543727749  0 0.82510803206215011 
 0 4 0.34315472918538364 1 0.68630945837076729 1 1.029464187556151 1 1.3726189167415346 1 1.7157736459269182 1 2.058928375112302 1 2.4020831042976853 1 2.7452378334830692 1 3.088392562668453 1 3.4315472918538363 1 3.7747020210392201 1 4.117856750224604 1 4.4610114794099873 1 4.8041662085953707 1 5.1473209377807549 1 5.4904756669661383 1 5.8336303961515217 1 6.1767851253369059 1 6.5199398545222893 1 6.8630945837076727 1 7.2062493128930569 1 7.5494040420784403 4
1 0 -0.38272154531721869 1 0 
1 0 2.8587500000000001 1 0 
1 0 0.38272154531721869 1 0 
1 0 -2.8587499999999997 1 0 
1 6.2831853071795862 -0.3827215453172188 -1 0 
1 0 0.3827215453172188 1 0 
Curves 40
2 0 3.3140909450318101e-17 0.54125000000000001 -0 6.12303176911189e-17 1 1 0 0 0 1 -6.12303176911189e-17 3.4587500000000002
1 -3.7293750000000001 4.7327208680379201e-16 0.270625 -0.70710678118654802 4.3296372853596802e-17 -0.70710678118654702 
2 0 0 0 0 0 -1 1 0 0 0 -1 0 4
1 3.7293750000000001 -4.4013117735347402e-16 0.270625 -0.70710678118654802 1.2988911856079e-16 0.70710678118654702 
2 0 3.8322525084929e-16 6.25875 -0 6.12303176911189e-17 1 1 0 0 0 1 -6.12303176911189e-17 3.4587500000000002
1 -3.4587500000000002 6.3174380277811902e-16 3.3999999999999999 -0 -6.12303176911189e-17 -1 
1 3.4587500000000002 -2.15377642478511e-16 3.3999999999999999 -0 6.12303176911189e-17 1 
2 0 4.1636616029960799e-16 6.7999999999999998 0 0 1 1 0 -0 -0 1 0 4
1 -3.7293750000000001 8.5649733765308201e-16 6.5293749999999999 0.70710678118654802 -1.2988911856079e-16 -0.70710678118654702 
1 3.7293750000000001 -5.6905926504183596e-17 6.5293749999999999 0.70710678118654802 -4.3296372853596802e-17 0.70710678118654702 
1 6.7405231543986002 -4.2800832255580302e-16 6.4909090909090903 -0.92718385456678742 1.3648080467044505e-16 0.37460659341591218 
7 1 0  2 3 2  7.5055500000000004 -5.5034442514914103e-15 6.1818181818181799  1 5.6291624999999996 3.2499984846871501 6.9399279416474497  1.1547005383792499 3.7527750000000002 6.4999969693743003 6.1818181818181799  1
 0 3 7.5494040420784403 3
7 1 0  2 3 2  3.75277500000001 6.4999969693742896 6.1818181818181799  1 0 6.4999969693742896 6.9399279416474497  1.1547005383792499 -3.75277500000001 6.4999969693742896 6.1818181818181799  1
 0 3 7.5494040420784501 3
7 1 0  2 3 2  -3.7527750000000002 6.4999969693743003 6.1818181818181799  1 -5.6291624999999996 3.2499984846871501 6.9399279416474497  1.1547005383792499 -7.5055500000000004 -1.5475094462648301e-15 6.1818181818181799  1
 0 3 7.5494040420784403 3
1 -6.7405231543986002 1.22288917403687e-15 6.4909090909090903 -0.92718385456678742 9.060624322235704e-17 -0.37460659341591218 
2 0 4.1636616029960799e-16 6.7999999999999998 0 0 -1 1 0 0 0 -1 0 5.9754963087972
1 6.7405231543986002 -8.0652301373726501e-16 0.30909090909090903 0.92718385456678742 -9.060624322235704e-17 0.37460659341591218 
2 0 0 0 0 0 1 1 0 -0 -0 1 0 5.9754963087972
1 -6.7405231543986002 8.4437448285541096e-16 0.30909090909090903 0.92718385456678742 -1.3648080467044505e-16 -0.37460659341591218 
7 1 0  2 3 2  -7.5055500000000004 -3.4446652276211301e-15 0.61818181818181905  1 -5.6291624999999996 3.2499984846871399 -0.13992794164744801  1.1547005383792499 -3.7527750000000002 6.4999969693743003 0.61818181818181905  1
 0 3 7.5494040420784403 3
7 1 0  2 3 2  -3.75277500000001 6.4999969693742896 0.61818181818181905  1 0 6.4999969693742896 -0.13992794164744901  1.1547005383792499 3.75277500000001 6.4999969693742896 0.61818181818181905  1
 0 3 7.5494040420784403 3
7 1 0  2 3 2  3.7527750000000002 6.4999969693743003 0.61818181818181905  1 5.6291624999999996 3.2499984846871501 -0.13992794164744801  1.1547005383792499 7.5055500000000004 -4.4336489289277802e-15 0.61818181818181905  1
 0 3 7.5494040420784403 3
7 1 0  2 3 2  7.5055500000000004 1.9947451295654201e-15 0.61818181818181905  1 5.6291624999999996 -3.2499984846871501 -0.13992794164744701  1.1547005383792499 3.7527750000000002 -6.4999969693743003 0.61818181818181905  1
 0 3 7.5494040420784403 3
7 1 0  2 3 2  3.7527750000000002 -6.4999969693742896 0.61818181818181905  1 -1.5543122344752199e-15 -6.4999969693742896 -0.13992794164744801  1.1547005383792499 -3.75277500000001 -6.4999969693742896 0.61818181818181905  1
 0 3 7.5494040420784403 3
7 1 0  2 3 2  -3.7527750000000002 -6.4999969693742896 0.61818181818181905  1 -5.6291624999999996 -3.2499984846871501 -0.13992794164744701  1.1547005383792499 -7.5055500000000004 4.9616962334853603e-15 0.61818181818181905  1
 0 3 7.5494040420784403 3
2 0 0 0 0 0 1 1 0 -0 -0 1 0 5.9754963087972
2 0 4.1636616029960799e-16 6.7999999999999998 0 0 -1 1 0 0 0 -1 0 5.9754963087972
7 1 0  2 3 2  -7.5055500000000004 9.2494980700178997e-16 6.1818181818181799  1 -5.6291624999999996 -3.2499984846871501 6.9399279416474497  1.1547005383792499 -3.7527750000000002 -6.4999969693742896 6.1818181818181799  1
 0 3 7.5494040420784296 3
7 1 0  2 3 2  -3.75277500000001 -6.4999969693742896 6.1818181818181799  1 -1.33226762955019e-15 -6.4999969693742896 6.9399279416474497  1.1547005383792499 3.7527750000000002 -6.4999969693742896 6.1818181818181799  1
 0 3 7.5494040420784403 3
7 1 0  2 3 2  3.7527750000000002 -6.4999969693743003 6.1818181818181799  1 5.6291624999999996 -3.2499984846871501 6.9399279416474497  1.1547005383792499 7.5055500000000004 5.3753764628817002e-15 6.1818181818181799  1
 0 3 7.5494040420784403 3
2 0 3.8322525084929e-16 6.25875 -0 6.12303176911189e-17 1 1 0 0 0 1 -6.12303176911189e-17 3.4587500000000002
2 0 4.1636616029960799e-16 6.7999999999999998 0 0 1 1 0 -0 -0 1 0 4
2 0 3.3140909450318101e-17 0.54125000000000001 -0 6.12303176911189e-17 1 1 0 0 0 1 -6.12303176911189e-17 3.4587500000000002
2 0 0 0 0 0 -1 1 0 0 0 -1 0 4
1 -3.7527750000000002 6.4999969693742896 0 0 0 1 
1 -7.5055500000000004 9.1913442189315396e-16 0 0 0 1 
1 3.7527750000000002 6.4999969693742896 0 0 0 1 
1 7.5055500000000004 0 0 0 0 1 
1 3.7527750000000002 -6.4999969693742896 0 0 0 1 
1 -3.7527750000000002 -6.4999969693742896 0 0 0 1 
Polygon3D 0
PolygonOnTriangulations 0
Surfaces 18
3 0 1.6570454725159001e-17 0.270625 0 -6.12303176911189e-17 -1 1 0 0 0 -1 6.12303176911189e-17 3.7293750000000001
0.78539816339744795
2 0 2.08183080149804e-16 3.3999999999999999 -0 6.12303176911189e-17 1 1 0 0 0 1 -6.12303176911189e-17 3.4587500000000002
3 0 1.6570454725159001e-17 0.270625 0 -6.12303176911189e-17 -1 1 0 0 0 -1 6.12303176911189e-17 3.7293750000000001
0.78539816339744795
1 3.5661709275838399e-16 2.2204460492503101e-16 0 0 0 1 1 0 -0 -0 1 0 
3 0 3.99795705574449e-16 6.5293749999999999 -0 6.12303176911189e-17 1 1 0 0 0 1 -6.12303176911189e-17 3.7293750000000001
0.78539816339744795
2 0 2.08183080149804e-16 3.3999999999999999 -0 6.12303176911189e-17 1 1 0 0 0 1 -6.12303176911189e-17 3.4587500000000002
1 3.5661709275838399e-16 2.2204460492503101e-16 6.7999999999999998 0 0 1 1 0 -0 -0 1 0 
3 0 3.99795705574449e-16 6.5293749999999999 -0 6.12303176911189e-17 1 1 0 0 0 1 -6.12303176911189e-17 3.7293750000000001
0.78539816339744795
3 0 3.9744042574053502e-16 6.4909090909090903 0 -6.12303176911189e-17 -1 1 0 0 0 -1 6.12303176911189e-17 6.7405231543986002
1.18682389135614
3 0 3.9744042574053502e-16 6.4909090909090903 0 -6.12303176911189e-17 -1 1 0 0 0 -1 6.12303176911189e-17 6.7405231543986002
1.18682389135614
1 5.6291624999999996 3.2499984846871501 0 0.86602540378443882 0.49999999999999989 -0 -0.49999999999999989 0.86602540378443882 0 0 0 1 
1 8.8817841970012504e-16 6.4999969693742896 0 0 1 -0 -1 0 0 0 0 1 
1 -5.6291624999999996 3.2499984846871501 0 -0.86602540378443849 0.50000000000000033 0 -0.50000000000000033 -0.86602540378443849 0 0 0 1 
3 0 1.89257345590731e-17 0.30909090909090903 -0 6.12303176911189e-17 1 1 0 0 0 1 -6.12303176911189e-17 6.7405231543986002
1.18682389135614
3 0 1.89257345590731e-17 0.30909090909090903 -0 6.12303176911189e-17 1 1 0 0 0 1 -6.12303176911189e-17 6.7405231543986002
1.18682389135614
1 5.6291624999999996 -3.2499984846871501 0 0.86602540378443882 -0.49999999999999989 0 0.49999999999999989 0.86602540378443882 0 -0 0 1 
1 -1.7763568394002501e-15 -6.4999969693742896 0 -2.3667244098037401e-16 -1 0 1 -2.3667244098037401e-16 0 0 0 1 
1 -5.6291624999999996 -3.2499984846871501 0 -0.86602540378443882 -0.49999999999999989 0 0.49999999999999989 -0.86602540378443882 0 0 0 1 
Triangulations 0

TShapes 104
Ve
1e-07
-3.45875 4.56701632078633e-16 0.54125
0 0

0101101
*
Ve
1e-07
3.45875 3.31409094503181e-17 0.54125
0 0

0101101
*
Ed
 1e-07 1 1 0
1  1 0 3.14159265358979 6.28318530717959
2  1 1 0 3.14159265358979 6.28318530717959
2  2 2 0 3.14159265358979 6.28318530717959
4 C0 1 0 2 0
0

0101000
+104 0 -103 0 *
Ve
1e-07
-4 4.89842541528951e-16 0
0 0

0101101
*
Ed
 1e-07 1 1 0
1  2 0 -0.382721545317219 0.382721545317219
2  3 1 0 -0.382721545317219 0.382721545317219
2  4 3 0 -0.382721545317219 0.382721545317219
4 CN 1 0 3 0
0

0101000
+104 0 -101 0 *
Ve
1e-07
4 0 0
0 0

0101101
*
Ed
 1e-07 1 1 0
1  3 0 0 3.14159265358979
2  5 1 0 0 3.14159265358979
4 C0 1 0 4 0
0

0101000
+99 0 -101 0 *
Ed
 1e-07 1 1 0
1  4 0 -0.382721545317219 0.382721545317219
2  6 1 0 -0.382721545317219 0.382721545317219
2  7 3 0 -0.382721545317219 0.382721545317219
4 CN 1 0 3 0
0

0101000
+99 0 -103 0 *
Wi

0101100
-102 0 +100 0 -98 0 +97 0 *
Fa
0  1e-07 1 0

0111000
+96 0 *
Ve
1e-07
-3.45875 8.06785973477605e-16 6.25875
0 0

0101101
*
Ve
1e-07
3.45875 3.8322525084929e-16 6.25875
0 0

0101101
*
Ed
 1e-07 1 1 0
1  5 0 3.14159265358979 6.28318530717959
2  8 2 0 3.14159265358979 6.28318530717959
2  9 5 0 3.14159265358979 6.28318530717959
4 C0 2 0 5 0
0

0101000
+94 0 -93 0 *
Ed
 1e-07 1 1 0
1  6 0 -2.85875 2.85875
2  10 2 0 -2.85875 2.85875
2  11 6 0 -2.85875 2.85875
4 CN 2 0 6 0
0

0101000
+94 0 -104 0 *
Ed
 1e-07 1 1 0
1  7 0 -2.85875 2.85875
2  12 2 0 -2.85875 2.85875
2  13 6 0 -2.85875 2.85875
4 CN 2 0 6 0
0

0101000
+103 0 -93 0 *
Wi

0101100
-92 0 +91 0 +102 0 +90 0 *
Fa
0  1e-07 2 0

0111000
+89 0 *
Ve
1e-07
-4 9.06208701828559e-16 6.8
0 0

0101101
*
Ve
1e-07
4 4.16366160299608e-16 6.8
0 0

0101101
*
Ed
 1e-07 1 1 0
1  8 0 3.14159265358979 6.28318530717959
2  14 5 0 3.14159265358979 6.28318530717959
4 C0 5 0 7 0
0

0101000
+87 0 -86 0 *
Ed
 1e-07 1 1 0
1  9 0 -0.382721545317219 0.382721545317219
2  15 5 0 -0.382721545317219 0.382721545317219
2  16 8 0 -0.382721545317219 0.382721545317219
4 CN 5 0 8 0
0

0101000
+87 0 -94 0 *
Ed
 1e-07 1 1 0
1  10 0 -0.382721545317219 0.382721545317219
2  17 5 0 -0.382721545317219 0.382721545317219
2  18 8 0 -0.382721545317219 0.382721545317219
4 CN 5 0 8 0
0

0101000
+93 0 -86 0 *
Wi

0101100
-85 0 +84 0 +92 0 +83 0 *
Fa
0  1e-07 5 0

0111000
+82 0 *
Ve
1e-07
7.50555 3.78514691181462e-16 6.18181818181818
0 0

0101101
*
Ve
1e-07
5.9754963087972 4.16366160299608e-16 6.8
0 0

0101101
*
Ed
 1e-07 1 1 0
1  11 0 -0.82510803206215 0.82510803206215
2  19 9 0 -0.82510803206215 0.82510803206215
2  20 10 0 -0.82510803206215 0.82510803206215
4 CN 9 0 10 0
0

0101000
+80 0 -79 0 *
Ve
1e-07
3.752775 6.49999696937429 6.18181818181818
0 0

0101101
*
Ed
 1e-07 1 1 0
1  12 0 0 7.54940404207844
2  21 9 0 0 7.54940404207844
4 C0 9 0 11 0
0

0101000
+80 0 -77 0 *
Ve
1e-07
-3.752775 6.4999969693743 6.18181818181818
0 0

0101101
*
Ed
 1e-07 1 1 0
1  13 0 0 7.54940404207845
2  22 9 0 0 7.54940404207845
4 C0 9 0 12 0
0

0101000
+77 0 -75 0 *
Ve
1e-07
-7.50555 1.77635683940025e-15 6.18181818181818
0 0

0101101
*
Ed
 1e-07 1 1 0
1  14 0 0 7.54940404207844
2  23 9 0 0 7.54940404207844
4 C0 9 0 13 0
0

0101000
+75 0 -73 0 *
Ve
1e-07
-5.9754963087972 1.14812923499913e-15 6.8
0 0

0101101
*
Ed
 1e-07 1 1 0
1  15 0 -0.82510803206215 0.82510803206215
2  24 9 0 -0.82510803206215 0.82510803206215
2  25 10 0 -0.82510803206215 0.82510803206215
4 CN 9 0 10 0
0

0101000
+71 0 -73 0 *
Ed
 1e-07 1 1 0
1  16 0 3.14159265358979 6.28318530717959
2  26 9 0 3.14159265358979 6.28318530717959
4 C0 9 0 7 0
0

0101000
+71 0 -79 0 *
Wi

0101100
-78 0 +76 0 +74 0 +72 0 -70 0 +69 0 *
Fa
0  1e-07 9 0

0111000
+68 0 *
Ve
1e-07
5.9754963087972 0 0
0 0

0101101
*
Ve
1e-07
7.50555 3.78514691181462e-17 0.618181818181818
0 0

0101101
*
Ed
 1e-07 1 1 0
1  17 0 -0.82510803206215 0.82510803206215
2  27 14 0 -0.82510803206215 0.82510803206215
2  28 15 0 -0.82510803206215 0.82510803206215
4 CN 14 0 15 0
0

0101000
+66 0 -65 0 *
Ve
1e-07
-5.9754963087972 7.31763074699521e-16 0
0 0

0101101
*
Ed
 1e-07 1 1 0
1  18 0 0 3.14159265358979
2  29 14 0 0 3.14159265358979
4 C0 14 0 4 0
0

0101000
+66 0 -63 0 *
Ve
1e-07
-7.50555 1.33226762955019e-15 0.618181818181818
0 0

0101101
*
Ed
 1e-07 1 1 0
1  19 0 -0.82510803206215 0.82510803206215
2  30 14 0 -0.82510803206215 0.82510803206215
2  31 15 0 -0.82510803206215 0.82510803206215
4 CN 14 0 15 0
0

0101000
+61 0 -63 0 *
Ve
1e-07
-3.752775 6.4999969693743 0.618181818181818
0 0

0101101
*
Ed
 1e-07 1 1 0
1  20 0 0 7.54940404207844
2  32 14 0 0 7.54940404207844
4 C0 14 0 13 0
0

0101000
+61 0 -59 0 *
Ve
1e-07
3.752775 6.49999696937429 0.618181818181818
0 0

0101101
*
Ed
 1e-07 1 1 0
1  21 0 0 7.54940404207844
2  33 14 0 0 7.54940404207844
4 C0 14 0 12 0
0

0101000
+59 0 -57 0 *
Ed
 1e-07 1 1 0
1  22 0 0 7.54940404207844
2  34 14 0 0 7.54940404207844
4 C0 14 0 11 0
0

0101000
+57 0 -65 0 *
Wi

0101100
-64 0 +62 0 -60 0 +58 0 +56 0 +55 0 *
Fa
0  1e-07 14 0

0111000
+54 0 *
Ve
1e-07
3.752775 -6.49999696937429 0.618181818181819
0 0

0101101
*
Ed
 1e-07 1 1 0
1  23 0 0 7.54940404207844
2  35 15 0 0 7.54940404207844
4 C0 15 0 16 0
0

0101000
+65 0 -52 0 *
Ve
1e-07
-3.752775 -6.49999696937429 0.618181818181819
0 0

0101101
*
Ed
 1e-07 1 1 0
1  24 0 0 7.54940404207844
2  36 15 0 0 7.54940404207844
4 C0 15 0 17 0
0

0101000
+52 0 -50 0 *
Ed
 1e-07 1 1 0
1  25 0 0 7.54940404207844
2  37 15 0 0 7.54940404207844
4 C0 15 0 18 0
0

0101000
+50 0 -61 0 *
Ed
 1e-07 1 1 0
1  26 0 3.14159265358979 6.28318530717959
2  38 15 0 3.14159265358979 6.28318530717959
4 C0 15 0 4 0
0

0101000
+63 0 -66 0 *
Wi

0101100
+64 0 +51 0 +49 0 +48 0 +60 0 +47 0 *
Fa
0  1e-07 15 0

0111000
+46 0 *
Ed
 1e-07 1 1 0
1  27 0 0 3.14159265358979
2  39 10 0 0 3.14159265358979
4 C0 10 0 7 0
0

0101000
+79 0 -71 0 *
Ve
1e-07
-3.752775 -6.49999696937429 6.18181818181818
0 0

0101101
*
Ed
 1e-07 1 1 0
1  28 0 0 7.54940404207843
2  40 10 0 0 7.54940404207843
4 C0 10 0 18 0
0

0101000
+73 0 -43 0 *
Ve
1e-07
3.752775 -6.49999696937429 6.18181818181818
0 0

0101101
*
Ed
 1e-07 1 1 0
1  29 0 0 7.54940404207844
2  41 10 0 0 7.54940404207844
4 C0 10 0 17 0
0

0101000
+43 0 -41 0 *
Ed
 1e-07 1 1 0
1  30 0 0 7.54940404207844
2  42 10 0 0 7.54940404207844
4 C0 10 0 16 0
0

0101000
+41 0 -80 0 *
Wi

0101100
+78 0 +44 0 +70 0 +42 0 +40 0 +39 0 *
Fa
0  1e-07 10 0

0111000
+38 0 *
Ed
 1e-07 1 1 0
1  31 0 0 3.14159265358979
2  43 8 0 0 3.14159265358979
2  44 6 0 0 3.14159265358979
4 C0 8 0 6 0
0

0101000
+93 0 -94 0 *
Ed
 1e-07 1 1 0
1  32 0 0 3.14159265358979
2  45 8 0 0 3.14159265358979
4 C0 8 0 7 0
0

0101000
+86 0 -87 0 *
Wi

0101100
+36 0 -84 0 -35 0 -83 0 *
Fa
0  1e-07 8 0

0111000
+34 0 *
Ed
 1e-07 1 1 0
1  33 0 0 3.14159265358979
2  46 6 0 0 3.14159265358979
2  47 3 0 0 3.14159265358979
4 C0 6 0 3 0
0

0101000
+103 0 -104 0 *
Wi

0101100
+32 0 -91 0 -36 0 -90 0 *
Fa
0  1e-07 6 0

0111000
+31 0 *
Ed
 1e-07 1 1 0
1  34 0 3.14159265358979 6.28318530717959
2  48 3 0 3.14159265358979 6.28318530717959
4 C0 3 0 4 0
0

0101000
+101 0 -99 0 *
Wi

0101100
-29 0 -100 0 -32 0 -97 0 *
Fa
0  1e-07 3 0

0111000
+28 0 *
Ed
 1e-07 1 1 0
1  35 0 0.618181818181818 6.18181818181818
4 C0 13 0 12 0
0

0101000
+59 0 -75 0 *
Ed
 1e-07 1 1 0
1  36 0 0.618181818181818 6.18181818181818
4 C0 13 0 18 0
0

0101000
+61 0 -73 0 *
Wi

0101100
-72 0 -26 0 -58 0 +25 0 *
Fa
0  1e-07 13 0

0111000
+24 0 *
Ed
 1e-07 1 1 0
1  37 0 0.618181818181818 6.18181818181818
4 C0 12 0 11 0
0

0101000
+57 0 -77 0 *
Wi

0101100
-74 0 -22 0 -56 0 +26 0 *
Fa
0  1e-07 12 0

0111000
+21 0 *
Ed
 1e-07 1 1 0
1  38 0 0.618181818181818 6.18181818181818
4 C0 11 0 16 0
0

0101000
+65 0 -80 0 *
Wi

0101100
-76 0 -19 0 -55 0 +22 0 *
Fa
0  1e-07 11 0

0111000
+18 0 *
Ed
 1e-07 1 1 0
1  39 0 0.618181818181819 6.18181818181818
4 C0 16 0 17 0
0

0101000
+52 0 -41 0 *
Wi

0101100
-39 0 -16 0 -51 0 +19 0 *
Fa
0  1e-07 16 0

0111000
+15 0 *
Wi

0101100
-35 0 -85 0 *
Wi

0101100
-44 0 -69 0 *
Fa
0  1e-07 7 0

0111000
+13 0 +12 0 *
Wi

0101100
-98 0 -29 0 *
Wi

0101100
-62 0 -47 0 *
Fa
0  1e-07 4 0

0111000
-10 0 -9 0 *
Ed
 1e-07 1 1 0
1  40 0 0.618181818181819 6.18181818181818
4 C0 17 0 18 0
0

0101000
+50 0 -43 0 *
Wi

0101100
-40 0 -7 0 -49 0 +16 0 *
Fa
0  1e-07 17 0

0111000
+6 0 *
Wi

0101100
-42 0 -25 0 -48 0 +7 0 *
Fa
0  1e-07 18 0

0111000
+4 0 *
Sh

0101100
-95 0 -88 0 -81 0 +67 0 +53 0 +45 0 +37 0 -33 0 -30 0 -27 0 
+23 0 +20 0 +17 0 +14 0 +11 0 -8 0 +5 0 +3 0 *
So

0100000
+2 0 *

+1 0 