DBRep_DrawableShape

CASCADE Topology V1, (c) Matra-Datavision
Locations 0
Curve2ds 48
1 6.2831853071795862 -0.30617723625377502 -1 0 
1 0 -2.367 1 0 
1 3.1415926535897931 0 0 1 
1 3.1415926535897931 0 0 1 
1 0 0.30617723625377502 1 0 
1 0 0 0 -1 
1 6.2831853071795862 0 0 -1 
1 0 2.367 1 0 
1 0 -0.30617723625377496 1 0 
1 3.1415926535897931 0 0 -1 
1 3.1415926535897931 0 0 -1 
1 6.2831853071795862 0 0 1 
1 0 0 0 1 
1 0 0.30617723625377496 1 0 
1 3.1415926535897931 0 0 -1 
1 3.1415926535897931 0 0 -1 
1 6.2831853071795862 0 0 1 
1 0 0 0 1 
1 6.2831853071795862 -3.3306690738754696e-16 0 -1 
1 0 -3.3306690738754696e-16 0 -1 
7 0 0  3 25 23  6.2831853071795862 0.67950073228647867  6.2680340456277852 0.63592523759163133  6.2375460180780236 0.55391299801346827  6.1912992310482657 0.44541276626820658  6.1445783066133606 0.35047624502241559  6.0974279107402154 0.26834605073823303  6.0498951347942098 0.198372054848105  6.0020296464011214 0.14001773117128546  5.9538833126046864 0.092844221030710827  5.9055099180821422 0.056503292607072396  5.8569648164595707 0.030730419691184986  5.8083045642776785 0.015340013850813407  5.759586531581288 0.010222032887351851  5.7108684988848966 0.015340013850813796  5.6622082467030053 0.03073041969118347  5.6136631450804328 0.056503292607073069  5.5652897505578887 0.092844221030709786  5.5171434167614537 0.14001773117128671  5.4692779283683652 0.19837205484810583  5.4217451524223597 0.2683460507382337  5.3745947565492154 0.35047624502241564  5.3278738321143084 0.44541276626820614  5.2816270450845506 0.5539129980134696  5.2511390175347881 0.63592523759163333  5.2359877559829879 0.67950073228648111 
 0 4 0.21122700519435228 1 0.42245401038870456 1 0.63368101558305678 1 0.84490802077740912 1 1.0561350259717615 1 1.2673620311661136 1 1.4785890363604659 1 1.6898160415548182 1 1.9010430467491706 1 2.1122700519435229 1 2.323497057137875 1 2.5347240623322271 1 2.7459510675265797 1 2.9571780727209318 1 3.1684050779152844 1 3.3796320831096365 1 3.5908590883039886 1 3.8020860934983411 1 4.0133130986926933 1 4.2245401038870458 1 4.4357671090813975 1 4.64699411427575 4
7 0 0  3 25 23  5.2359877559829897 0.67950073228648611  5.2208364944311905 0.63592523759163833  5.190348466881427 0.55391299801347438  5.1441016798516683 0.44541276626821069  5.0973807554167676 0.35047624502242258  5.0502303595436153 0.26834605073823747  5.0026975835976142 0.19837205484810966  4.9548320952045222 0.14001773117129185  4.906685761408089 0.092844221030715032  4.8583123668855457 0.056503292607076872  4.8097672652629715 0.030730419691187606  4.7611070130810811 0.015340013850818271  4.7123889803846888 0.010222032887354454  4.6636709476883 0.015340013850818287  4.6150106955064061 0.030730419691187585  4.5664655938838346 0.056503292607076844  4.5180921993612904 0.09284422103071531  4.4699458655648545 0.14001773117129049  4.4220803771717652 0.19837205484810999  4.374547601225764 0.26834605073823786  4.3273972053526135 0.35047624502241981  4.2806762809177101 0.44541276626821275  4.2344294938879532 0.55391299801347404  4.2039414663381898 0.63592523759163777  4.1887902047863896 0.67950073228648611 
 0 4 0.21122700519435272 1 0.42245401038870545 1 0.63368101558305812 1 0.8449080207774109 1 1.0561350259717637 1 1.2673620311661162 1 1.478589036360469 1 1.6898160415548218 1 1.9010430467491746 1 2.1122700519435273 1 2.3234970571378799 1 2.5347240623322325 1 2.7459510675265855 1 2.957178072720938 1 3.168405077915291 1 3.3796320831096436 1 3.5908590883039961 1 3.8020860934983491 1 4.0133130986927021 1 4.2245401038870547 1 4.4357671090814073 1 4.6469941142757598 4
7 0 0  3 25 23  4.1887902047863914 0.67950073228648111  4.1736389432345913 0.63592523759163322  4.1431509156848287 0.55391299801346916  4.0969041286550709 0.44541276626820664  4.0501832042201666 0.35047624502241431  4.003032808347017 0.26834605073823486  3.955500032401015 0.19837205484810372  3.9076345440079248 0.14001773117128866  3.8594882102114911 0.092844221030709079  3.8111148156889465 0.0565032926070742  3.7625697140663745 0.03073041969118449  3.7139094618844828 0.015340013850813589  3.6651914291880918 0.010222032887351623  3.6164733964917013 0.015340013850814533  3.56781314430981 0.030730419691185666  3.5192680426872371 0.056503292607073458  3.4708946481646925 0.092844221030711008  3.4227483143682584 0.14001773117128641  3.3748828259751686 0.19837205484810586  3.3273500500291675 0.26834605073823398  3.2801996541560179 0.35047624502241492  3.2334787297211132 0.44541276626820669  3.1872319426913571 0.5539129980134686  3.1567439151415941 0.63592523759163133  3.141592653589794 0.67950073228647867 
 0 4 0.21122700519435184 1 0.42245401038870367 1 0.63368101558305545 1 0.84490802077740734 1 1.0561350259717592 1 1.2673620311661109 1 1.4785890363604628 1 1.6898160415548147 1 1.9010430467491666 1 2.1122700519435185 1 2.3234970571378701 1 2.5347240623322218 1 2.7459510675265739 1 2.9571780727209256 1 3.1684050779152777 1 3.3796320831096294 1 3.590859088303981 1 3.8020860934983332 1 4.0133130986926853 1 4.2245401038870369 1 4.4357671090813886 1 4.6469941142757403 4
1 3.1415926535897931 -1.1102230246251565e-16 0 1 
1 3.1415926535897931 -1.1102230246251565e-16 0 1 
1 0 -0.67950073228647478 1 0 
1 0 1.1102230246251565e-16 0 1 
1 6.2831853071795862 1.1102230246251565e-16 0 1 
1 0 -0.67950073228647678 1 0 
1 3.1415926535897931 2.2204460492503131e-16 0 -1 
1 3.1415926535897931 2.2204460492503131e-16 0 -1 
7 0 0  3 25 23  3.1415926535897931 0.67950073228647645  3.1264413920379948 0.63592523759162933  3.0959533644882296 0.5539129980134665  3.0497065774584708 0.44541276626820459  3.0029856530235701 0.35047624502241409  2.9558352571504223 0.26834605073823031  2.9083024812044158 0.1983720548481038  2.8604369928113282 0.14001773117128297  2.8122906590148951 0.092844221030709245  2.7639172644923491 0.056503292607070231  2.7153721628697784 0.030730419691184042  2.6667119106878854 0.015340013850811528  2.6179938779914931 0.010222032887350954  2.5692758452951043 0.015340013850811286  2.520615593113213 0.030730419691185021  2.4720704914906371 0.056503292607071522  2.4236970969680964 0.092844221030708315  2.3755507631716597 0.14001773117128569  2.3276852747785721 0.19837205484810394  2.2801524988325692 0.26834605073823259  2.2330021029594196 0.35047624502241442  2.1862811785245153 0.44541276626820658  2.1400343914947584 0.55391299801346827  2.109546363944995 0.63592523759163144  2.0943951023931948 0.67950073228647889 
 0 4 0.21122700519435228 1 0.42245401038870456 1 0.63368101558305678 1 0.84490802077740912 1 1.0561350259717615 1 1.2673620311661136 1 1.4785890363604659 1 1.6898160415548182 1 1.9010430467491706 1 2.1122700519435229 1 2.323497057137875 1 2.5347240623322271 1 2.7459510675265797 1 2.9571780727209318 1 3.1684050779152844 1 3.3796320831096365 1 3.5908590883039886 1 3.8020860934983411 1 4.0133130986926933 1 4.2245401038870458 1 4.4357671090813975 1 4.64699411427575 4
7 0 0  3 25 23  2.0943951023931948 0.67950073228647889  2.0792438408413947 0.63592523759163233  2.048755813291633 0.55391299801346938  2.0025090262618708 0.44541276626820542  1.9557881018269718 0.35047624502241798  1.9086377059538222 0.26834605073823342  1.8611049300078175 0.19837205484810685  1.8132394416147282 0.14001773117128738  1.7650931078182968 0.0928442210307132  1.7167197132957499 0.056503292607074602  1.6681746116731802 0.03073041969118696  1.619514359491288 0.01534001385081487  1.5707963267948966 0.010222032887354064  1.5220782940985069 0.01534001385081489  1.4734180419166139 0.030730419691186915  1.4248729402940423 0.056503292607074679  1.3764995457714981 0.092844221030713076  1.3283532119750614 0.14001773117128755  1.2804877235819738 0.19837205484810624  1.2329549476359691 0.26834605073823592  1.1858045517628213 0.35047624502241392  1.1390836273279188 0.44541276626820908  1.0928368402981636 0.55391299801346894  1.0623488127483984 0.63592523759163133  1.0471975511965983 0.67950073228647889 
 0 4 0.21122700519435272 1 0.42245401038870545 1 0.63368101558305812 1 0.8449080207774109 1 1.0561350259717637 1 1.2673620311661162 1 1.478589036360469 1 1.6898160415548218 1 1.9010430467491746 1 2.1122700519435273 1 2.3234970571378799 1 2.5347240623322325 1 2.7459510675265855 1 2.957178072720938 1 3.168405077915291 1 3.3796320831096436 1 3.5908590883039961 1 3.8020860934983491 1 4.0133130986927021 1 4.2245401038870547 1 4.4357671090814073 1 4.6469941142757598 4
7 0 0  3 25 23  1.0471975511965983 0.67950073228647889  1.0320462896447982 0.635925237591631  1.0015582620950356 0.55391299801346727  0.95531147506527603 0.44541276626820558  0.9085905506303753 0.35047624502241459  0.86144015475722568 0.26834605073823259  0.81390737881122188 0.19837205484810383  0.76604189041812987 0.14001773117128569  0.71789555662169757 0.092844221030708482  0.6695221620991525 0.056503292607070758  0.62097706047658452 0.030730419691182564  0.57231680829468878 0.015340013850811934  0.5235987755982956 0.010222032887350794  0.47488074290191218 0.015340013850811515  0.42622049072001289 0.030730419691184407  0.37767538909744669 0.056503292607068913  0.32930199457489717 0.09284422103070962  0.28115566077846488 0.14001773117128311  0.23329017238537553 0.19837205484810352  0.1857573964393735 0.26834605073823264  0.13860700056622299 0.35047624502241126  0.091886076131316941 0.44541276626820431  0.045639289101563563 0.55391299801346716  0.015151261551799244 0.63592523759163011  0 0.67950073228647678 
 0 4 0.21122700519435272 1 0.42245401038870545 1 0.63368101558305812 1 0.8449080207774109 1 1.0561350259717637 1 1.2673620311661162 1 1.478589036360469 1 1.6898160415548218 1 1.9010430467491746 1 2.1122700519435273 1 2.3234970571378799 1 2.5347240623322325 1 2.7459510675265855 1 2.957178072720938 1 3.168405077915291 1 3.3796320831096436 1 3.5908590883039961 1 3.8020860934983491 1 4.0133130986927021 1 4.2245401038870547 1 4.4357671090814073 1 4.6469941142757598 4
7 0 0  3 25 23  6.2831853071795862 0.67950073228647678  6.2680340456277852 0.63592523759162989  6.2375460180780236 0.55391299801346716  6.1912992310482657 0.44541276626820486  6.1445783066133606 0.35047624502241437  6.0974279107402154 0.26834605073823048  6.0498951347942098 0.19837205484810405  6.0020296464011214 0.14001773117128311  5.9538833126046864 0.092844221030709495  5.9055099180821422 0.056503292607070321  5.8569648164595707 0.030730419691184171  5.8083045642776776 0.015340013850811676  5.759586531581288 0.010222032887351093  5.7108684988848974 0.015340013850811456  5.6622082467030044 0.030730419691185087  5.6136631450804328 0.056503292607071584  5.5652897505578887 0.092844221030708482  5.5171434167614537 0.14001773117128546  5.4692779283683652 0.19837205484810541  5.4217451524223597 0.26834605073823276  5.3745947565492154 0.35047624502241354  5.3278738321143084 0.4454127662682057  5.2816270450845506 0.5539129980134686  5.2511390175347881 0.63592523759163189  5.2359877559829879 0.67950073228647911 
 0 4 0.21122700519435228 1 0.42245401038870456 1 0.63368101558305678 1 0.84490802077740912 1 1.0561350259717615 1 1.2673620311661136 1 1.4785890363604659 1 1.6898160415548182 1 1.9010430467491706 1 2.1122700519435229 1 2.323497057137875 1 2.5347240623322271 1 2.7459510675265797 1 2.9571780727209318 1 3.1684050779152844 1 3.3796320831096365 1 3.5908590883039886 1 3.8020860934983411 1 4.0133130986926933 1 4.2245401038870458 1 4.4357671090813975 1 4.64699411427575 4
7 0 0  3 25 23  5.2359877559829879 0.67950073228647878  5.2208364944311887 0.63592523759163089  5.1903484668814244 0.55391299801346783  5.1441016798516674 0.44541276626820731  5.0973807554167649 0.35047624502241609  5.0502303595436162 0.26834605073823381  5.0026975835976115 0.1983720548481066  4.9548320952045222 0.1400177311712873  4.9066857614080881 0.092844221030713103  4.8583123668855439 0.056503292607074547  4.8097672652629733 0.030730419691186877  4.7611070130810811 0.015340013850814892  4.7123889803846888 0.010222032887353684  4.6636709476882992 0.015340013850816268  4.615010695506407 0.030730419691186582  4.5664655938838363 0.056503292607074755  4.5180921993612895 0.092844221030713103  4.4699458655648563 0.14001773117128757  4.4220803771717669 0.19837205484810647  4.374547601225764 0.26834605073823559  4.3273972053526162 0.35047624502241581  4.2806762809177119 0.44541276626820753  4.234429493887955 0.55391299801346949  4.2039414663381924 0.635925237591632  4.1887902047863914 0.67950073228647911 
 0 4 0.21122700519435272 1 0.42245401038870545 1 0.63368101558305812 1 0.8449080207774109 1 1.0561350259717637 1 1.2673620311661162 1 1.478589036360469 1 1.6898160415548218 1 1.9010430467491746 1 2.1122700519435273 1 2.3234970571378799 1 2.5347240623322325 1 2.7459510675265855 1 2.957178072720938 1 3.168405077915291 1 3.3796320831096436 1 3.5908590883039961 1 3.8020860934983491 1 4.0133130986927021 1 4.2245401038870547 1 4.4357671090814073 1 4.6469941142757598 4
7 0 0  3 25 23  4.1887902047863914 0.67950073228647911  4.1736389432345913 0.63592523759163178  4.1431509156848287 0.55391299801346849  4.0969041286550709 0.44541276626820575  4.0501832042201666 0.35047624502241359  4.003032808347017 0.26834605073823214  3.9555000324010141 0.1983720548481028  3.9076345440079256 0.14001773117128616  3.8594882102114898 0.092844221030708621  3.8111148156889474 0.056503292607070557  3.7625697140663745 0.030730419691184126  3.7139094618844828 0.015340013850811735  3.6651914291880909 0.010222032887350921  3.6164733964917013 0.015340013850812084  3.5678131443098087 0.030730419691182745  3.5192680426872367 0.056503292607070786  3.4708946481646925 0.092844221030709315  3.4227483143682571 0.14001773117128333  3.3748828259751695 0.19837205484810369  3.3273500500291644 0.26834605073823214  3.280199654156017 0.35047624502241304  3.2334787297211118 0.44541276626820347  3.1872319426913549 0.55391299801346849  3.1567439151415932 0.63592523759163111  3.1415926535897927 0.67950073228647678 
 0 4 0.21122700519435228 1 0.42245401038870456 1 0.63368101558305678 1 0.84490802077740912 1 1.0561350259717615 1 1.2673620311661136 1 1.4785890363604659 1 1.6898160415548182 1 1.9010430467491706 1 2.1122700519435229 1 2.323497057137875 1 2.5347240623322271 1 2.7459510675265797 1 2.9571780727209318 1 3.1684050779152844 1 3.3796320831096365 1 3.5908590883039886 1 3.8020860934983411 1 4.0133130986926933 1 4.2245401038870458 1 4.4357671090813975 1 4.64699411427575 4
1 0 -0.67950073228647678 1 0 
1 0 -0.67950073228647478 1 0 
7 0 0  3 25 23  3.1415926535897944 0.67950073228647867  3.1264413920379939 0.63592523759163178  3.0959533644882309 0.5539129980134686  3.0497065774584744 0.4454127662682057  3.0029856530235706 0.35047624502241359  2.9558352571504209 0.26834605073823381  2.9083024812044185 0.19837205484810372  2.8604369928113282 0.14001773117128488  2.8122906590148946 0.092844221030709384  2.76391726449235 0.056503292607071806  2.715372162869778 0.030730419691183865  2.6667119106878858 0.015340013850813594  2.6179938779914944 0.010222032887352225  2.5692758452951043 0.015340013850812118  2.5206155931132121 0.030730419691184847  2.4720704914906397 0.056503292607074131  2.4236970969680951 0.092844221030709134  2.375550763171661 0.14001773117128835  2.3276852747785712 0.198372054848105  2.2801524988325683 0.26834605073823536  2.23300210295942 0.35047624502241526  2.1862811785245144 0.44541276626820886  2.1400343914947593 0.55391299801347005  2.1095463639449958 0.63592523759163322  2.0943951023931953 0.67950073228648111 
 0 4 0.21122700519435272 1 0.42245401038870545 1 0.63368101558305812 1 0.8449080207774109 1 1.0561350259717637 1 1.2673620311661162 1 1.478589036360469 1 1.6898160415548218 1 1.9010430467491746 1 2.1122700519435273 1 2.3234970571378799 1 2.5347240623322325 1 2.7459510675265855 1 2.957178072720938 1 3.168405077915291 1 3.3796320831096436 1 3.5908590883039961 1 3.8020860934983491 1 4.0133130986927021 1 4.2245401038870547 1 4.4357671090814073 1 4.6469941142757598 4
7 0 0  3 25 23  2.0943951023931962 0.6795007322864729  2.0792438408413956 0.63592523759162611  2.0487558132916321 0.55391299801346328  2.0025090262618761 0.44541276626820148  1.9557881018269712 0.3504762450224112  1.9086377059538226 0.26834605073823087  1.86110493000782 0.19837205484810327  1.8132394416147299 0.14001773117128466  1.7650931078182956 0.092844221030710744  1.7167197132957517 0.056503292607073548  1.6681746116731793 0.030730419691185465  1.6195143594912873 0.015340013850815348  1.5707963267948966 0.010222032887353474  1.522078294098506 0.015340013850815236  1.4734180419166143 0.030730419691185944  1.4248729402940419 0.056503292607076518  1.3764995457714977 0.092844221030713325  1.3283532119750636 0.14001773117128891  1.280487723581974 0.19837205484810827  1.2329549476359709 0.26834605073823664  1.1858045517628228 0.35047624502241614  1.1390836273279181 0.44541276626821097  1.0928368402981614 0.55391299801346972  1.0623488127483987 0.63592523759163277  1.0471975511965981 0.67950073228648111 
 0 4 0.21122700519435228 1 0.42245401038870456 1 0.63368101558305678 1 0.84490802077740912 1 1.0561350259717615 1 1.2673620311661136 1 1.4785890363604659 1 1.6898160415548182 1 1.9010430467491706 1 2.1122700519435229 1 2.323497057137875 1 2.5347240623322271 1 2.7459510675265797 1 2.9571780727209318 1 3.1684050779152844 1 3.3796320831096365 1 3.5908590883039886 1 3.8020860934983411 1 4.0133130986926933 1 4.2245401038870458 1 4.4357671090813975 1 4.64699411427575 4
7 0 0  3 25 23  1.0471975511965981 0.67950073228648111  1.0320462896447977 0.63592523759163333  1.0015582620950347 0.55391299801347005  0.95531147506527792 0.44541276626820847  0.90859055063037331 0.35047624502241631  0.8614401547572248 0.26834605073823536  0.81390737881122255 0.19837205484810497  0.76604189041813142 0.14001773117128821  0.71789555662169813 0.092844221030709578  0.66952216209915361 0.056503292607072632  0.62097706047658097 0.030730419691185288  0.57231680829468912 0.015340013850811993  0.52359877559829848 0.010222032887352258  0.47488074290190735 0.015340013850813579  0.42622049072001594 0.030730419691183921  0.37767538909744325 0.056503292607071466  0.32930199457489873 0.092844221030710855  0.28115566077846521 0.1400177311712841  0.23329017238537425 0.19837205484810533  0.18575739643937189 0.26834605073823331  0.1386070005662236 0.35047624502241287  0.091886076131318523 0.44541276626820597  0.045639289101561981 0.5539129980134686  0.015151261551799631 0.63592523759163178  0 0.67950073228647867 
 0 4 0.21122700519435272 1 0.42245401038870545 1 0.63368101558305812 1 0.8449080207774109 1 1.0561350259717637 1 1.2673620311661162 1 1.478589036360469 1 1.6898160415548218 1 1.9010430467491746 1 2.1122700519435273 1 2.3234970571378799 1 2.5347240623322325 1 2.7459510675265855 1 2.957178072720938 1 3.168405077915291 1 3.3796320831096436 1 3.5908590883039961 1 3.8020860934983491 1 4.0133130986927021 1 4.2245401038870547 1 4.4357671090814073 1 4.6469941142757598 4
1 0 -0.30617723625377496 1 0 
1 0 2.367 1 0 
1 0 0.30617723625377496 1 0 
1 0 -2.367 1 0 
1 6.2831853071795862 -0.30617723625377502 -1 0 
1 0 0.30617723625377502 1 0 
Curves 40
2 0 2.65127275602545e-17 0.433 -0 6.12303176911189e-17 1 1 0 0 0 1 -6.12303176911189e-17 2.0670000000000002
1 -2.2835000000000001 2.9289522467546702e-16 0.2165 -0.70710678118654757 4.3296372853596771e-17 -0.70710678118654757 
2 0 0 0 0 0 -1 1 0 0 0 -1 0 2.5
1 2.2835000000000001 -2.6638249711521302e-16 0.2165 -0.70710678118654757 1.298891185607899e-16 0.70710678118654757 
2 0 3.1637705151001098e-16 5.1669999999999998 -0 6.12303176911189e-17 1 1 0 0 0 1 -6.12303176911189e-17 2.0670000000000002
1 -2.0670000000000002 4.2457102287021802e-16 2.7999999999999998 -0 -6.12303176911189e-17 -1 
1 2.0670000000000002 -8.1681243799952498e-17 2.7999999999999998 -0 6.12303176911189e-17 1 
2 0 3.4288977907026602e-16 5.5999999999999996 0 0 1 1 0 -0 -0 1 0 2.5
1 -2.2835000000000001 6.09272276185478e-16 5.3834999999999997 0.70710678118654757 -1.298891185607899e-16 -0.70710678118654757 
1 2.2835000000000001 4.9994554394798498e-17 5.3834999999999997 0.70710678118654757 -4.3296372853596771e-17 0.70710678118654757 
1 3.98997789185767 -1.61311347776354e-16 5.3454545454545501 -0.92718385456678754 1.3648080467044495e-16 0.37460659341591185 
7 1 0  2 3 2  4.6200000000000001 -1.8670074868335802e-15 5.0909090909090899  1 3.4649999999999999 2.00051868274205 5.5575593817486997  1.1547005383792499 2.3100000000000001 4.0010373654841098 5.0909090909090899  1
 0 3 4.64699411427575 3
7 1 0  2 3 2  2.3100000000000098 4.0010373654841098 5.0909090909090899  1 0 4.0010373654841098 5.5575593817486997  1.1547005383792499 -2.3100000000000098 4.0010373654841098 5.0909090909090899  1
 0 3 4.6469941142757598 3
7 1 0  2 3 2  -2.3100000000000001 4.0010373654841098 5.0909090909090899  1 -3.4649999999999999 2.00051868274205 5.5575593817486997  1.1547005383792499 -4.6200000000000001 4.0464237047233797e-15 5.0909090909090899  1
 0 3 4.6469941142757403 3
1 -3.98997789185767 8.1591910781958897e-16 5.3454545454545501 -0.92718385456678754 9.0606243222356966e-17 -0.37460659341591185 
2 0 3.4288977907026602e-16 5.5999999999999996 0 0 -1 1 0 0 0 -1 0 3.35995578371534
1 3.98997789185767 -4.73029328749323e-16 0.25454545454545502 0.92718385456678742 -9.060624322235704e-17 0.37460659341591218 
2 0 0 0 0 0 1 1 0 -0 -0 1 0 3.35995578371534
1 -3.98997789185767 5.0420112684662002e-16 0.25454545454545502 0.92718385456678742 -1.3648080467044505e-16 -0.37460659341591218 
7 1 0  2 3 2  -4.6200000000000001 -7.5819224431831501e-16 0.50909090909090904  1 -3.4649999999999999 2.00051868274205 0.042440618251302499  1.1547005383792499 -2.3100000000000001 4.0010373654841098 0.50909090909090904  1
 0 3 4.64699411427575 3
7 1 0  2 3 2  -2.3100000000000001 4.0010373654841098 0.50909090909090904  1 0 4.0010373654841098 0.042440618251301999  1.1547005383792499 2.3100000000000001 4.0010373654841098 0.50909090909090904  1
 0 3 4.6469941142757598 3
7 1 0  2 3 2  2.3100000000000001 4.0010373654841098 0.50909090909090904  1 3.4649999999999999 2.00051868274205 0.042440618251302097  1.1547005383792499 4.6200000000000001 -3.07214358014495e-15 0.50909090909091004  1
 0 3 4.6469941142757598 3
7 1 0  2 3 2  4.6200000000000001 1.8128647954890598e-15 0.50909090909091004  1 3.4649999999999999 -2.00051868274205 0.0424406182513027  1.1547005383792499 2.3100000000000001 -4.0010373654841098 0.50909090909091004  1
 0 3 4.64699411427575 3
7 1 0  2 3 2  2.3100000000000001 -4.0010373654841098 0.50909090909090904  1 -4.0255795397597902e-16 -4.0010373654841098 0.042440618251302201  1.1547005383792499 -2.3100000000000001 -4.0010373654841098 0.50909090909091004  1
 0 3 4.6469941142757598 3
7 1 0  2 3 2  -2.3100000000000001 -4.0010373654841098 0.50909090909091004  1 -3.4649999999999999 -2.00051868274205 0.042440618251302797  1.1547005383792499 -4.6200000000000001 3.6126047233542203e-15 0.50909090909091004  1
 0 3 4.64699411427575 3
2 0 0 0 0 0 1 1 0 -0 -0 1 0 3.35995578371534
2 0 3.4288977907026602e-16 5.5999999999999996 0 0 -1 1 0 0 0 -1 0 3.35995578371534
7 1 0  2 3 2  -4.6200000000000001 7.1316921524922295e-15 5.0909090909090899  1 -3.4649999999999999 -2.00051868274205 5.5575593817486997  1.1547005383792499 -2.3100000000000001 -4.0010373654841098 5.0909090909090899  1
 0 3 4.6469941142757598 3
7 1 0  2 3 2  -2.3100000000000001 -4.0010373654841001 5.0909090909090899  1 -6.6613381477509402e-16 -4.0010373654841098 5.5575593817486997  1.1547005383792499 2.3100000000000001 -4.0010373654841098 5.0909090909090899  1
 0 3 4.64699411427575 3
7 1 0  2 3 2  2.3100000000000001 -4.0010373654841098 5.0909090909090899  1 3.4649999999999999 -2.00051868274205 5.5575593817486997  1.1547005383792499 4.6200000000000001 6.6174807445307598e-15 5.0909090909090899  1
 0 3 4.6469941142757598 3
2 0 3.1637705151001098e-16 5.1669999999999998 -0 6.12303176911189e-17 1 1 0 0 0 1 -6.12303176911189e-17 2.0670000000000002
2 0 3.4288977907026602e-16 5.5999999999999996 0 0 1 1 0 -0 -0 1 0 2.5
2 0 2.65127275602545e-17 0.433 -0 6.12303176911189e-17 1 1 0 0 0 1 -6.12303176911189e-17 2.0670000000000002
2 0 0 0 0 0 -1 1 0 0 0 -1 0 2.5
1 -2.3100000000000001 4.0010373654841098 0 0 0 1 
1 -4.6200000000000001 5.6576813546593799e-16 0 0 0 1 
1 2.3100000000000001 4.0010373654841098 0 0 0 1 
1 4.6200000000000001 0 0 0 0 1 
1 2.3100000000000001 -4.0010373654841098 0 0 0 1 
1 -2.3100000000000001 -4.0010373654841098 0 0 0 1 
Polygon3D 0
PolygonOnTriangulations 0
Surfaces 18
3 0 1.3256363780127201e-17 0.2165 0 -6.12303176911189e-17 -1 1 0 0 0 -1 6.12303176911189e-17 2.2835000000000001
0.78539816339744795
2 0 1.7144488953513301e-16 2.7999999999999998 -0 6.12303176911189e-17 1 1 0 0 0 1 -6.12303176911189e-17 2.0670000000000002
3 0 1.3256363780127201e-17 0.2165 0 -6.12303176911189e-17 -1 1 0 0 0 -1 6.12303176911189e-17 2.2835000000000001
0.78539816339744795
1 -4.3736058545839498e-17 2.2204460492503101e-16 0 0 0 1 1 0 -0 -0 1 0 
3 0 3.2963341529013798e-16 5.3834999999999997 -0 6.12303176911189e-17 1 1 0 0 0 1 -6.12303176911189e-17 2.2835000000000001
0.78539816339744795
2 0 1.7144488953513301e-16 2.7999999999999998 -0 6.12303176911189e-17 1 1 0 0 0 1 -6.12303176911189e-17 2.0670000000000002
1 -4.3736058545839498e-17 2.2204460492503101e-16 5.5999999999999996 0 0 1 1 0 -0 -0 1 0 
3 0 3.2963341529013798e-16 5.3834999999999997 -0 6.12303176911189e-17 1 1 0 0 0 1 -6.12303176911189e-17 2.2835000000000001
0.78539816339744795
3 0 3.2730388002161701e-16 5.3454545454545501 0 -6.12303176911189e-17 -1 1 0 0 0 -1 6.12303176911189e-17 3.98997789185767
1.18682389135614
3 0 3.2730388002161701e-16 5.3454545454545501 0 -6.12303176911189e-17 -1 1 0 0 0 -1 6.12303176911189e-17 3.98997789185767
1.18682389135614
1 3.4649999999999999 2.00051868274205 0 0.86602540378443882 0.49999999999999989 -0 -0.49999999999999989 0.86602540378443882 0 0 0 1 
1 4.4408920985006301e-16 4.0010373654841098 0 0 1 -0 -1 0 0 0 0 1 
1 -3.4649999999999999 2.00051868274205 0 -0.86602540378443849 0.50000000000000033 0 -0.50000000000000033 -0.86602540378443849 0 0 0 1 
3 0 1.55858990486484e-17 0.25454545454545502 -0 6.12303176911189e-17 1 1 0 0 0 1 -6.12303176911189e-17 3.98997789185767
1.18682389135614
3 0 1.55858990486484e-17 0.25454545454545502 -0 6.12303176911189e-17 1 1 0 0 0 1 -6.12303176911189e-17 3.98997789185767
1.18682389135614
1 3.4649999999999999 -2.00051868274205 0 0.86602540378443882 -0.49999999999999989 0 0.49999999999999989 0.86602540378443882 0 -0 0 1 
1 -8.8817841970012504e-16 -4.0010373654841098 0 -1.92246411190503e-16 -1 0 1 -1.92246411190503e-16 0 0 0 1 
1 -3.4649999999999999 -2.00051868274205 0 -0.86602540378443882 -0.49999999999999989 0 0.49999999999999989 -0.86602540378443882 0 0 0 1 
Triangulations 0

TShapes 104
Ve
1e-07
-2.067 2.7963886089534e-16 0.433
0 0

0101101
*
Ve
1e-07
2.067 2.65127275602545e-17 0.433
0 0

0101101
*
Ed
 1e-07 1 1 0
1  1 0 3.14159265358979 6.28318530717959
2  1 1 0 3.14159265358979 6.28318530717959
2  2 2 0 3.14159265358979 6.28318530717959
4 C0 1 0 2 0
0

0101000
+104 0 -103 0 *
Ve
1e-07
-2.5 3.06151588455594e-16 0
0 0

0101101
*
Ed
 1e-07 1 1 0
1  2 0 -0.306177236253775 0.306177236253775
2  3 1 0 -0.306177236253775 0.306177236253775
2  4 3 0 -0.306177236253775 0.306177236253775
4 CN 1 0 3 0
0

0101000
+104 0 -101 0 *
Ve
1e-07
2.5 0 0
0 0

0101101
*
Ed
 1e-07 1 1 0
1  3 0 0 3.14159265358979
2  5 1 0 0 3.14159265358979
4 C0 1 0 4 0
0

0101000
+99 0 -101 0 *
Ed
 1e-07 1 1 0
1  4 0 -0.306177236253775 0.306177236253775
2  6 1 0 -0.306177236253775 0.306177236253775
2  7 3 0 -0.306177236253775 0.306177236253775
4 CN 1 0 3 0
0

0101000
+99 0 -103 0 *
Wi

0101100
-102 0 +100 0 -98 0 +97 0 *
Fa
0  1e-07 1 0

0111000
+96 0 *
Ve
1e-07
-2.067 5.69503184845096e-16 5.167
0 0

0101101
*
Ve
1e-07
2.067 3.16377051510011e-16 5.167
0 0

0101101
*
Ed
 1e-07 1 1 0
1  5 0 3.14159265358979 6.28318530717959
2  8 2 0 3.14159265358979 6.28318530717959
2  9 5 0 3.14159265358979 6.28318530717959
4 C0 2 0 5 0
0

0101000
+94 0 -93 0 *
Ed
 1e-07 1 1 0
1  6 0 -2.367 2.367
2  10 2 0 -2.367 2.367
2  11 6 0 -2.367 2.367
4 CN 2 0 6 0
0

0101000
+94 0 -104 0 *
Ed
 1e-07 1 1 0
1  7 0 -2.367 2.367
2  12 2 0 -2.367 2.367
2  13 6 0 -2.367 2.367
4 CN 2 0 6 0
0

0101000
+103 0 -93 0 *
Wi

0101100
-92 0 +91 0 +102 0 +90 0 *
Fa
0  1e-07 2 0

0111000
+89 0 *
Ve
1e-07
-2.5 6.4904136752586e-16 5.6
0 0

0101101
*
Ve
1e-07
2.5 3.42889779070266e-16 5.6
0 0

0101101
*
Ed
 1e-07 1 1 0
1  8 0 3.14159265358979 6.28318530717959
2  14 5 0 3.14159265358979 6.28318530717959
4 C0 5 0 7 0
0

0101000
+87 0 -86 0 *
Ed
 1e-07 1 1 0
1  9 0 -0.306177236253775 0.306177236253775
2  15 5 0 -0.306177236253775 0.306177236253775
2  16 8 0 -0.306177236253775 0.306177236253775
4 CN 5 0 8 0
0

0101000
+87 0 -94 0 *
Ed
 1e-07 1 1 0
1  10 0 -0.306177236253775 0.306177236253775
2  17 5 0 -0.306177236253775 0.306177236253775
2  18 8 0 -0.306177236253775 0.306177236253775
4 CN 5 0 8 0
0

0101000
+93 0 -86 0 *
Wi

0101100
-85 0 +84 0 +92 0 +83 0 *
Fa
0  1e-07 5 0

0111000
+82 0 *
Ve
1e-07
4.62 3.11717980972969e-16 5.09090909090909
0 0

0101101
*
Ve
1e-07
3.35995578371534 3.42889779070266e-16 5.6
0 0

0101101
*
Ed
 1e-07 1 1 0
1  11 0 -0.679500732286479 0.679500732286475
2  19 9 0 -0.679500732286479 0.679500732286475
2  20 10 0 -0.679500732286479 0.679500732286475
4 CN 9 0 10 0
0

0101000
+80 0 -79 0 *
Ve
1e-07
2.31 4.00103736548411 5.09090909090909
0 0

0101101
*
Ed
 1e-07 1 1 0
1  12 0 0 4.64699411427575
2  21 9 0 0 4.64699411427575
4 C0 9 0 11 0
0

0101000
+80 0 -77 0 *
Ve
1e-07
-2.31 4.00103736548411 5.09090909090909
0 0

0101101
*
Ed
 1e-07 1 1 0
1  13 0 0 4.64699411427576
2  22 9 0 0 4.64699411427576
4 C0 9 0 12 0
0

0101000
+77 0 -75 0 *
Ve
1e-07
-4.62 4.44089209850063e-16 5.09090909090909
0 0

0101101
*
Ed
 1e-07 1 1 0
1  14 0 0 4.64699411427574
2  23 9 0 0 4.64699411427574
4 C0 9 0 13 0
0

0101000
+75 0 -73 0 *
Ve
1e-07
-3.35995578371534 7.54352099200271e-16 5.6
0 0

0101101
*
Ed
 1e-07 1 1 0
1  15 0 -0.679500732286475 0.679500732286479
2  24 9 0 -0.679500732286475 0.679500732286479
2  25 10 0 -0.679500732286475 0.679500732286479
4 CN 9 0 10 0
0

0101000
+71 0 -73 0 *
Ed
 1e-07 1 1 0
1  16 0 3.14159265358979 6.28318530717959
2  26 9 0 3.14159265358979 6.28318530717959
4 C0 9 0 7 0
0

0101000
+71 0 -79 0 *
Wi

0101100
-78 0 +76 0 +74 0 +72 0 -70 0 +69 0 *
Fa
0  1e-07 9 0

0111000
+68 0 *
Ve
1e-07
3.35995578371534 0 0
0 0

0101101
*
Ve
1e-07
4.62 3.11717980972969e-17 0.509090909090909
0 0

0101101
*
Ed
 1e-07 1 1 0
1  17 0 -0.679500732286477 0.679500732286476
2  27 14 0 -0.679500732286477 0.679500732286476
2  28 15 0 -0.679500732286477 0.679500732286476
4 CN 14 0 15 0
0

0101000
+66 0 -65 0 *
Ve
1e-07
-3.35995578371534 4.11462320130005e-16 0
0 0

0101101
*
Ed
 1e-07 1 1 0
1  18 0 0 3.14159265358979
2  29 14 0 0 3.14159265358979
4 C0 14 0 4 0
0

0101000
+66 0 -63 0 *
Ve
1e-07
-4.62 0 0.509090909090909
0 0

0101101
*
Ed
 1e-07 1 1 0
1  19 0 -0.679500732286476 0.679500732286477
2  30 14 0 -0.679500732286476 0.679500732286477
2  31 15 0 -0.679500732286476 0.679500732286477
4 CN 14 0 15 0
0

0101000
+61 0 -63 0 *
Ve
1e-07
-2.31 4.00103736548411 0.509090909090909
0 0

0101101
*
Ed
 1e-07 1 1 0
1  20 0 0 4.64699411427575
2  32 14 0 0 4.64699411427575
4 C0 14 0 13 0
0

0101000
+61 0 -59 0 *
Ve
1e-07
2.31 4.00103736548411 0.509090909090909
0 0

0101101
*
Ed
 1e-07 1 1 0
1  21 0 0 4.64699411427576
2  33 14 0 0 4.64699411427576
4 C0 14 0 12 0
0

0101000
+59 0 -57 0 *
Ed
 1e-07 1 1 0
1  22 0 0 4.64699411427576
2  34 14 0 0 4.64699411427576
4 C0 14 0 11 0
0

0101000
+57 0 -65 0 *
Wi

0101100
-64 0 +62 0 -60 0 +58 0 +56 0 +55 0 *
Fa
0  1e-07 14 0

0111000
+54 0 *
Ve
1e-07
2.31 -4.00103736548411 0.509090909090909
0 0

0101101
*
Ed
 1e-07 1 1 0
1  23 0 0 4.64699411427575
2  35 15 0 0 4.64699411427575
4 C0 15 0 16 0
0

0101000
+65 0 -52 0 *
Ve
1e-07
-2.31 -4.0010373654841 0.509090909090909
0 0

0101101
*
Ed
 1e-07 1 1 0
1  24 0 0 4.64699411427576
2  36 15 0 0 4.64699411427576
4 C0 15 0 17 0
0

0101000
+52 0 -50 0 *
Ed
 1e-07 1 1 0
1  25 0 0 4.64699411427575
2  37 15 0 0 4.64699411427575
4 C0 15 0 18 0
0

0101000
+50 0 -61 0 *
Ed
 1e-07 1 1 0
1  26 0 3.14159265358979 6.28318530717959
2  38 15 0 3.14159265358979 6.28318530717959
4 C0 15 0 4 0
0

0101000
+63 0 -66 0 *
Wi

0101100
+64 0 +51 0 +49 0 +48 0 +60 0 +47 0 *
Fa
0  1e-07 15 0

0111000
+46 0 *
Ed
 1e-07 1 1 0
1  27 0 0 3.14159265358979
2  39 10 0 0 3.14159265358979
4 C0 10 0 7 0
0

0101000
+79 0 -71 0 *
Ve
1e-07
-2.31 -4.0010373654841 5.09090909090909
0 0

0101101
*
Ed
 1e-07 1 1 0
1  28 0 0 4.64699411427576
2  40 10 0 0 4.64699411427576
4 C0 10 0 18 0
0

0101000
+73 0 -43 0 *
Ve
1e-07
2.31 -4.0010373654841 5.09090909090909
0 0

0101101
*
Ed
 1e-07 1 1 0
1  29 0 0 4.64699411427575
2  41 10 0 0 4.64699411427575
4 C0 10 0 17 0
0

0101000
+43 0 -41 0 *
Ed
 1e-07 1 1 0
1  30 0 0 4.64699411427576
2  42 10 0 0 4.64699411427576
4 C0 10 0 16 0
0

0101000
+41 0 -80 0 *
Wi

0101100
+78 0 +44 0 +70 0 +42 0 +40 0 +39 0 *
Fa
0  1e-07 10 0

0111000
+38 0 *
Ed
 1e-07 1 1 0
1  31 0 0 3.14159265358979
2  43 8 0 0 3.14159265358979
2  44 6 0 0 3.14159265358979
4 C0 8 0 6 0
0

0101000
+93 0 -94 0 *
Ed
 1e-07 1 1 0
1  32 0 0 3.14159265358979
2  45 8 0 0 3.14159265358979
4 C0 8 0 7 0
0

0101000
+86 0 -87 0 *
Wi

0101100
+36 0 -84 0 -35 0 -83 0 *
Fa
0  1e-07 8 0

0111000
+34 0 *
Ed
 1e-07 1 1 0
1  33 0 0 3.14159265358979
2  46 6 0 0 3.14159265358979
2  47 3 0 0 3.14159265358979
4 C0 6 0 3 0
0

0101000
+103 0 -104 0 *
Wi

0101100
+32 0 -91 0 -36 0 -90 0 *
Fa
0  1e-07 6 0

0111000
+31 0 *
Ed
 1e-07 1 1 0
1  34 0 3.14159265358979 6.28318530717959
2  48 3 0 3.14159265358979 6.28318530717959
4 C0 3 0 4 0
0

0101000
+101 0 -99 0 *
Wi

0101100
-29 0 -100 0 -32 0 -97 0 *
Fa
0  1e-07 3 0

0111000
+28 0 *
Ed
 1e-07 1 1 0
1  35 0 0.509090909090909 5.09090909090909
4 C0 13 0 12 0
0

0101000
+59 0 -75 0 *
Ed
 1e-07 1 1 0
1  36 0 0.509090909090909 5.09090909090909
4 C0 13 0 18 0
0

0101000
+61 0 -73 0 *
Wi

0101100
-72 0 -26 0 -58 0 +25 0 *
Fa
0  1e-07 13 0

0111000
+24 0 *
Ed
 1e-07 1 1 0
1  37 0 0.509090909090909 5.09090909090909
4 C0 12 0 11 0
0

0101000
+57 0 -77 0 *
Wi

0101100
-74 0 -22 0 -56 0 +26 0 *
Fa
0  1e-07 12 0

0111000
+21 0 *
Ed
 1e-07 1 1 0
1  38 0 0.509090909090909 5.09090909090909
4 C0 11 0 16 0
0

0101000
+65 0 -80 0 *
Wi

0101100
-76 0 -19 0 -55 0 +22 0 *
Fa
0  1e-07 11 0

0111000
+18 0 *
Ed
 1e-07 1 1 0
1  39 0 0.509090909090909 5.09090909090909
4 C0 16 0 17 0
0

0101000
+52 0 -41 0 *
Wi

0101100
-39 0 -16 0 -51 0 +19 0 *
Fa
0  1e-07 16 0

0111000
+15 0 *
Wi

0101100
-35 0 -85 0 *
Wi

0101100
-44 0 -69 0 *
Fa
0  1e-07 7 0

0111000
+13 0 +12 0 *
Wi

0101100
-98 0 -29 0 *
Wi

0101100
-62 0 -47 0 *
Fa
0  1e-07 4 0

0111000
-10 0 -9 0 *
Ed
 1e-07 1 1 0
1  40 0 0.509090909090909 5.09090909090909
4 C0 17 0 18 0
0

0101000
+50 0 -43 0 *
Wi

0101100
-40 0 -7 0 -49 0 +16 0 *
Fa
0  1e-07 17 0

0111000
+6 0 *
Wi

0101100
-42 0 -25 0 -48 0 +7 0 *
Fa
0  1e-07 18 0

0111000
+4 0 *
Sh

0101100
-95 0 -88 0 -81 0 +67 0 +53 0 +45 0 +37 0 -33 0 -30 0 -27 0 
+23 0 +20 0 +17 0 +14 0 +11 0 -8 0 +5 0 +3 0 *
So

0100000
+2 0 *

+1 0 