DBRep_DrawableShape

CASCADE Topology V1, (c) Matra-Datavision
Locations 0
Curve2ds 24
1 6.2831853071795862 -0.13395254086102656 -1 0 
1 0 -0.31056249999999996 1 0 
1 3.1415926535897931 2.7755575615628914e-17 0 1 
1 3.1415926535897931 2.7755575615628914e-17 0 1 
1 0 0.13395254086102665 1 0 
1 0 2.7755575615628914e-17 0 -1 
1 6.2831853071795862 2.7755575615628914e-17 0 -1 
1 0 0.31056249999999996 1 0 
1 0 -0.13395254086102662 1 0 
1 3.1415926535897931 0 0 -1 
1 3.1415926535897931 0 0 -1 
1 6.2831853071795862 0 0 1 
1 0 0 0 1 
1 0 0.13395254086102662 1 0 
1 3.1415926535897931 0 0 -1 
1 3.1415926535897931 0 0 -1 
1 6.2831853071795862 0 0 1 
1 0 0 0 1 
1 0 -0.13395254086102662 1 0 
1 0 0.31056249999999996 1 0 
1 0 0.13395254086102662 1 0 
1 0 -0.31056249999999996 1 0 
1 6.2831853071795862 -0.13395254086102656 -1 0 
1 0 0.13395254086102665 1 0 
Curves 32
2 0 1.15993183076113e-17 0.18943750000000001 -0 6.12303176911189e-17 1 1 0 0 0 1 -6.12303176911189e-17 0.61056250000000001
1 -0.70528124999999997 9.2168849151984498e-17 0.094718750000000004 -0.70710678118654757 4.3296372853596771e-17 -0.70710678118654757 
2 0 0 0 0 0 -1 1 0 0 0 -1 0 0.80000000000000004
1 0.70528124999999997 -8.0569530844373201e-17 0.094718750000000004 -0.70710678118654757 1.298891185607899e-16 0.70710678118654757 
2 0 4.9630999383507499e-17 0.81056249999999996 -0 6.12303176911189e-17 1 1 0 0 0 1 -6.12303176911189e-17 0.61056250000000001
1 -0.61056250000000001 1.05385030536127e-16 0.5 -0 -6.12303176911189e-17 -1 
1 0.61056250000000001 -4.4154712845008097e-17 0.5 -0 6.12303176911189e-17 1 
2 0 6.12303176911189e-17 1 0 0 1 1 0 -0 -0 1 0 0.80000000000000004
1 -0.70528124999999997 1.4179984853549199e-16 0.90528125000000004 0.70710678118654802 -1.2988911856079e-16 -0.70710678118654702 
1 0.70528124999999997 -3.0938531460865703e-17 0.90528125000000004 0.70710678118654802 -4.3296372853596802e-17 0.70710678118654702 
2 0 4.9630999383507499e-17 0.81056249999999996 -0 6.12303176911189e-17 1 1 0 0 0 1 -6.12303176911189e-17 0.61056250000000001
2 0 6.12303176911189e-17 1 0 0 1 1 0 -0 -0 1 0 0.80000000000000004
2 0 1.15993183076113e-17 0.18943750000000001 -0 6.12303176911189e-17 1 1 0 0 0 1 -6.12303176911189e-17 0.61056250000000001
2 0 0 0 0 0 -1 1 0 0 0 -1 0 0.80000000000000004
1 1.6000000000000001 -0.92376000000000003 1 -0 -1 -0 
1 1.6000000000000001 0.92376000000000003 1 0.86602550473054218 -0.49999982515617913 0 
1 0 1.8475200000000001 1 0.86602550473054218 0.49999982515617913 0 
1 -1.6000000000000001 0.92376000000000003 1 0 1 0 
1 -1.6000000000000001 -0.92376000000000003 1 -0.86602550473054218 0.49999982515617913 0 
1 0 -1.8475200000000001 1 -0.86602550473054218 -0.49999982515617913 -0 
1 1.6000000000000001 0.92376000000000003 0 -0.86602550473054218 0.49999982515617913 0 
1 1.6000000000000001 -0.92376000000000003 0 0 1 0 
1 0 -1.8475200000000001 0 0.86602550473054218 0.49999982515617913 0 
1 -1.6000000000000001 -0.92376000000000003 0 0.86602550473054218 -0.49999982515617913 0 
1 -1.6000000000000001 0.92376000000000003 0 0 -1 0 
1 0 1.8475200000000001 0 -0.86602550473054218 -0.49999982515617913 0 
1 1.6000000000000001 -0.92376000000000003 0 0 0 1 
1 1.6000000000000001 0.92376000000000003 0 0 0 1 
1 0 -1.8475200000000001 0 0 0 1 
1 -1.6000000000000001 -0.92376000000000003 0 0 0 1 
1 -1.6000000000000001 0.92376000000000003 0 0 0 1 
1 0 1.8475200000000001 0 0 0 1 
Polygon3D 0
PolygonOnTriangulations 0
Surfaces 14
3 0 5.7996591538056598e-18 0.094718750000000004 0 -6.12303176911189e-17 -1 1 0 0 0 -1 6.12303176911189e-17 0.70528124999999997
0.78539816339744795
2 0 3.0615158845559401e-17 0.5 -0 6.12303176911189e-17 1 1 0 0 0 1 -6.12303176911189e-17 0.61056250000000001
3 0 5.7996591538056598e-18 0.094718750000000004 0 -6.12303176911189e-17 -1 1 0 0 0 -1 6.12303176911189e-17 0.70528124999999997
0.78539816339744795
1 0 2.7755575615628901e-17 0 0 0 1 1 0 -0 -0 1 0 
3 0 5.5430658537313202e-17 0.90528125000000004 -0 6.12303176911189e-17 1 1 0 0 0 1 -6.12303176911189e-17 0.70528124999999997
0.78539816339744795
2 0 3.0615158845559401e-17 0.5 -0 6.12303176911189e-17 1 1 0 0 0 1 -6.12303176911189e-17 0.61056250000000001
1 0 2.7755575615628901e-17 1 0 0 1 1 0 -0 -0 1 0 
3 0 5.5430658537313202e-17 0.90528125000000004 -0 6.12303176911189e-17 1 1 0 0 0 1 -6.12303176911189e-17 0.70528124999999997
0.78539816339744795
1 1.6000000000000001 0 0 1 0 0 -0 1 0 0 -0 1 
1 0.80000000000000004 1.38564 0 0.49999982515617913 0.86602550473054218 -0 -0.86602550473054218 0.49999982515617913 0 0 0 1 
1 -0.80000000000000004 1.38564 0 -0.49999982515617913 0.86602550473054218 0 -0.86602550473054218 -0.49999982515617913 0 0 0 1 
1 -1.6000000000000001 0 0 -1 0 0 0 -1 0 0 0 1 
1 -0.80000000000000004 -1.38564 0 -0.49999982515617913 -0.86602550473054218 0 0.86602550473054218 -0.49999982515617913 0 0 0 1 
1 0.80000000000000004 -1.38564 0 0.49999982515617913 -0.86602550473054218 0 0.86602550473054218 0.49999982515617913 0 -0 0 1 
Triangulations 0

TShapes 84
Ve
1e-07
-0.6105625 8.63691899981789e-17 0.1894375
0 0

0101101
*
Ve
1e-07
0.6105625 1.15993183076113e-17 0.1894375
0 0

0101101
*
Ed
 1e-07 1 1 0
1  1 0 3.14159265358979 6.28318530717959
2  1 1 0 3.14159265358979 6.28318530717959
2  2 2 0 3.14159265358979 6.28318530717959
4 C0 1 0 2 0
0

0101000
+84 0 -83 0 *
Ve
1e-07
-0.8 9.79685083057902e-17 0
0 0

0101101
*
Ed
 1e-07 1 1 0
1  2 0 -0.133952540861027 0.133952540861027
2  3 1 0 -0.133952540861027 0.133952540861027
2  4 3 0 -0.133952540861027 0.133952540861027
4 CN 1 0 3 0
0

0101000
+84 0 -81 0 *
Ve
1e-07
0.8 0 0
0 0

0101101
*
Ed
 1e-07 1 1 0
1  3 0 0 3.14159265358979
2  5 1 0 0 3.14159265358979
4 C0 1 0 4 0
0

0101000
+79 0 -81 0 *
Ed
 1e-07 1 1 0
1  4 0 -0.133952540861027 0.133952540861027
2  6 1 0 -0.133952540861027 0.133952540861027
2  7 3 0 -0.133952540861027 0.133952540861027
4 CN 1 0 3 0
0

0101000
+79 0 -83 0 *
Wi

0101100
-82 0 +80 0 -78 0 +77 0 *
Fa
0  1e-07 1 0

0111000
+76 0 *
Ve
1e-07
-0.6105625 1.24400871074075e-16 0.8105625
0 0

0101101
*
Ve
1e-07
0.6105625 4.96309993835075e-17 0.8105625
0 0

0101101
*
Ed
 1e-07 1 1 0
1  5 0 3.14159265358979 6.28318530717959
2  8 2 0 3.14159265358979 6.28318530717959
2  9 5 0 3.14159265358979 6.28318530717959
4 C0 2 0 5 0
0

0101000
+74 0 -73 0 *
Ed
 1e-07 1 1 0
1  6 0 -0.3105625 0.3105625
2  10 2 0 -0.3105625 0.3105625
2  11 6 0 -0.3105625 0.3105625
4 CN 2 0 6 0
0

0101000
+74 0 -84 0 *
Ed
 1e-07 1 1 0
1  7 0 -0.3105625 0.3105625
2  12 2 0 -0.3105625 0.3105625
2  13 6 0 -0.3105625 0.3105625
4 CN 2 0 6 0
0

0101000
+83 0 -73 0 *
Wi

0101100
-72 0 +71 0 +82 0 +70 0 *
Fa
0  1e-07 2 0

0111000
+69 0 *
Ve
1e-07
-0.8 1.59198825996909e-16 1
0 0

0101101
*
Ve
1e-07
0.8 6.12303176911189e-17 1
0 0

0101101
*
Ed
 1e-07 1 1 0
1  8 0 3.14159265358979 6.28318530717959
2  14 5 0 3.14159265358979 6.28318530717959
4 C0 5 0 7 0
0

0101000
+67 0 -66 0 *
Ed
 1e-07 1 1 0
1  9 0 -0.133952540861027 0.133952540861027
2  15 5 0 -0.133952540861027 0.133952540861027
2  16 8 0 -0.133952540861027 0.133952540861027
4 CN 5 0 8 0
0

0101000
+67 0 -74 0 *
Ed
 1e-07 1 1 0
1  10 0 -0.133952540861027 0.133952540861027
2  17 5 0 -0.133952540861027 0.133952540861027
2  18 8 0 -0.133952540861027 0.133952540861027
4 CN 5 0 8 0
0

0101000
+73 0 -66 0 *
Wi

0101100
-65 0 +64 0 +72 0 +63 0 *
Fa
0  1e-07 5 0

0111000
+62 0 *
Ed
 1e-07 1 1 0
1  11 0 0 3.14159265358979
2  19 8 0 0 3.14159265358979
2  20 6 0 0 3.14159265358979
4 C0 8 0 6 0
0

0101000
+73 0 -74 0 *
Ed
 1e-07 1 1 0
1  12 0 0 3.14159265358979
2  21 8 0 0 3.14159265358979
4 C0 8 0 7 0
0

0101000
+66 0 -67 0 *
Wi

0101100
+60 0 -64 0 -59 0 -63 0 *
Fa
0  1e-07 8 0

0111000
+58 0 *
Ed
 1e-07 1 1 0
1  13 0 0 3.14159265358979
2  22 6 0 0 3.14159265358979
2  23 3 0 0 3.14159265358979
4 C0 6 0 3 0
0

0101000
+83 0 -84 0 *
Wi

0101100
+56 0 -71 0 -60 0 -70 0 *
Fa
0  1e-07 6 0

0111000
+55 0 *
Ed
 1e-07 1 1 0
1  14 0 3.14159265358979 6.28318530717959
2  24 3 0 3.14159265358979 6.28318530717959
4 C0 3 0 4 0
0

0101000
+81 0 -79 0 *
Wi

0101100
-53 0 -80 0 -56 0 -77 0 *
Fa
0  1e-07 3 0

0111000
+52 0 *
Ve
1e-07
1.6 0.92376 1
0 0

0101101
*
Ve
1e-07
1.6 -0.92376 1
0 0

0101101
*
Ed
 1e-07 1 1 0
1  15 0 -1.84752 -0
4 C0 7 0 9 0
0

0101000
+50 0 -49 0 *
Ve
1e-07
0 1.84752 1
0 0

0101101
*
Ed
 1e-07 1 1 0
1  16 0 -1.84752064605514 0
4 C0 7 0 10 0
0

0101000
+47 0 -50 0 *
Ve
1e-07
-1.6 0.92376 1
0 0

0101101
*
Ed
 1e-07 1 1 0
1  17 0 -1.84752064605514 0
4 C0 7 0 11 0
0

0101000
+45 0 -47 0 *
Ve
1e-07
-1.6 -0.92376 1
0 0

0101101
*
Ed
 1e-07 1 1 0
1  18 0 -1.84752 0
4 C0 7 0 12 0
0

0101000
+43 0 -45 0 *
Ve
1e-07
0 -1.84752 1
0 0

0101101
*
Ed
 1e-07 1 1 0
1  19 0 -1.84752064605514 0
4 C0 7 0 13 0
0

0101000
+41 0 -43 0 *
Ed
 1e-07 1 1 0
1  20 0 -1.84752064605514 -0
4 C0 7 0 14 0
0

0101000
+49 0 -41 0 *
Wi

0101100
-48 0 -46 0 -44 0 -42 0 -40 0 -39 0 *
Wi

0101100
-59 0 -65 0 *
Fa
0  1e-07 7 0

0111000
+38 0 +37 0 *
Ve
1e-07
1.6 0.92376 0
0 0

0101101
*
Ve
1e-07
0 1.84752 0
0 0

0101101
*
Ed
 1e-07 1 1 0
1  21 0 0 1.84752064605514
4 C0 4 0 10 0
0

0101000
+35 0 -34 0 *
Ve
1e-07
1.6 -0.92376 0
0 0

0101101
*
Ed
 1e-07 1 1 0
1  22 0 0 1.84752
4 C0 4 0 9 0
0

0101000
+32 0 -35 0 *
Ve
1e-07
0 -1.84752 0
0 0

0101101
*
Ed
 1e-07 1 1 0
1  23 0 0 1.84752064605514
4 C0 4 0 14 0
0

0101000
+30 0 -32 0 *
Ve
1e-07
-1.6 -0.92376 0
0 0

0101101
*
Ed
 1e-07 1 1 0
1  24 0 0 1.84752064605514
4 C0 4 0 13 0
0

0101000
+28 0 -30 0 *
Ve
1e-07
-1.6 0.92376 0
0 0

0101101
*
Ed
 1e-07 1 1 0
1  25 0 0 1.84752
4 C0 4 0 12 0
0

0101000
+26 0 -28 0 *
Ed
 1e-07 1 1 0
1  26 0 0 1.84752064605514
4 C0 4 0 11 0
0

0101000
+34 0 -26 0 *
Wi

0101100
-33 0 -31 0 -29 0 -27 0 -25 0 -24 0 *
Wi

0101100
-78 0 -53 0 *
Fa
0  1e-07 4 0

0111000
-23 0 -22 0 *
Ed
 1e-07 1 1 0
1  27 0 0 1
4 C0 9 0 14 0
0

0101000
+32 0 -49 0 *
Ed
 1e-07 1 1 0
1  28 0 0 1
4 C0 9 0 10 0
0

0101000
+35 0 -50 0 *
Wi

0101100
+48 0 -20 0 +31 0 +19 0 *
Fa
0  1e-07 9 0

0111000
+18 0 *
Ed
 1e-07 1 1 0
1  29 0 0 1
4 C0 14 0 13 0
0

0101000
+30 0 -41 0 *
Wi

0101100
+39 0 -16 0 +29 0 +20 0 *
Fa
0  1e-07 14 0

0111000
+15 0 *
Ed
 1e-07 1 1 0
1  30 0 0 1
4 C0 13 0 12 0
0

0101000
+28 0 -43 0 *
Wi

0101100
+40 0 -13 0 +27 0 +16 0 *
Fa
0  1e-07 13 0

0111000
+12 0 *
Ed
 1e-07 1 1 0
1  31 0 0 1
4 C0 12 0 11 0
0

0101000
+26 0 -45 0 *
Wi

0101100
+42 0 -10 0 +25 0 +13 0 *
Fa
0  1e-07 12 0

0111000
+9 0 *
Ed
 1e-07 1 1 0
1  32 0 0 1
4 C0 11 0 10 0
0

0101000
+34 0 -47 0 *
Wi

0101100
+44 0 -7 0 +24 0 +10 0 *
Fa
0  1e-07 11 0

0111000
+6 0 *
Wi

0101100
+46 0 -19 0 +33 0 +7 0 *
Fa
0  1e-07 10 0

0111000
+4 0 *
Sh

0101100
-75 0 -68 0 -61 0 -57 0 -54 0 -51 0 +36 0 -21 0 +17 0 +14 0 
+11 0 +8 0 +5 0 +3 0 *
So

0100000
+2 0 *

+1 0 