DBRep_DrawableShape

CASCADE Topology V1, (c) Matra-Datavision
Locations 0
Curve2ds 48
1 6.2831853071795862 -0.30617723625377502 -1 0 
1 0 -2.117 1 0 
1 3.1415926535897931 0 0 1 
1 3.1415926535897931 0 0 1 
1 0 0.30617723625377502 1 0 
1 0 0 0 -1 
1 6.2831853071795862 0 0 -1 
1 0 2.117 1 0 
1 0 -0.30617723625377496 1 0 
1 3.1415926535897931 0 0 -1 
1 3.1415926535897931 0 0 -1 
1 6.2831853071795862 0 0 1 
1 0 0 0 1 
1 0 0.30617723625377496 1 0 
1 3.1415926535897931 0 0 -1 
1 3.1415926535897931 0 0 -1 
1 6.2831853071795862 0 0 1 
1 0 0 0 1 
1 6.2831853071795862 -2.2204460492503131e-16 0 -1 
1 0 -2.2204460492503131e-16 0 -1 
7 0 0  3 25 23  6.2831853071795862 0.61883102404661128  6.2680340456277852 0.57526684766207481  6.2375460180780218 0.49327590996432152  6.1912992310482649 0.38480386009743378  6.1445783066133624 0.28989199768833196  6.097427910740211 0.2077831359221457  6.0498951347942098 0.13782731509588703  6.0020296464011196 0.079488148386257521  5.9538833126046855 0.032326891105457466  5.9055099180821422 -0.0040045981159909138  5.8569648164595671 -0.029770776779174151  5.8083045642776785 -0.045157185111533243  5.759586531581288 -0.050273836729291317  5.7108684988848957 -0.045157185111533216  5.6622082467030053 -0.029770776779174262  5.613663145080432 -0.0040045981159905772  5.5652897505578887 0.032326891105456376  5.5171434167614537 0.079488148386256771  5.4692779283683652 0.13782731509588617  5.4217451524223623 0.20778313592214481  5.3745947565492127 0.28989199768832907  5.3278738321143084 0.38480386009743156  5.2816270450845533 0.49327590996431736  5.2511390175347907 0.5752668476620697  5.2359877559829888 0.61883102404660628 
 0 4 0.21117214103715864 1 0.42234428207431729 1 0.63351642311147593 1 0.84468856414863458 1 1.0558607051857933 1 1.2670328462229519 1 1.4782049872601104 1 1.6893771282972692 1 1.9005492693344279 1 2.1117214103715867 1 2.322893551408745 1 2.5340656924459037 1 2.7452378334830625 1 2.9564099745202208 1 3.1675821155573796 1 3.3787542565945383 1 3.5899263976316971 1 3.8010985386688558 1 4.0122706797060141 1 4.2234428207431733 1 4.4346149617803317 1 4.64578710281749 4
7 0 0  3 25 23  5.2359877559829879 0.61883102404661861  5.2208364944311878 0.57526684766208114  5.1903484668814244 0.49327590996432741  5.1441016798516683 0.38480386009744055  5.0973807554167632 0.28989199768833651  5.0502303595436135 0.2077831359221482  5.0026975835976115 0.13782731509589136  4.9548320952045222 0.079488148386261462  4.9066857614080863 0.032326891105462156  4.8583123668855457 -0.0040045981159888278  4.8097672652629706 -0.029770776779167323  4.7611070130810802 -0.045157185111530856  4.7123889803846906 -0.050273836729286842  4.6636709476882974 -0.045157185111530738  4.6150106955064087 -0.02977077677916878  4.5664655938838337 -0.004004598115988172  4.518092199361293 0.032326891105461136  4.4699458655648581 0.0794881483862621  4.4220803771717669 0.13782731509588983  4.374547601225764 0.20778313592215153  4.3273972053526171 0.28989199768833557  4.280676280917711 0.38480386009744105  4.2344294938879541 0.49327590996432746  4.2039414663381924 0.57526684766208114  4.1887902047863914 0.61883102404661861 
 0 4 0.21117214103715909 1 0.42234428207431818 1 0.63351642311147727 1 0.84468856414863636 1 1.0558607051857956 1 1.2670328462229545 1 1.4782049872601135 1 1.6893771282972727 1 1.9005492693344319 1 2.1117214103715911 1 2.3228935514087499 1 2.5340656924459091 1 2.7452378334830683 1 2.956409974520227 1 3.1675821155573862 1 3.3787542565945454 1 3.5899263976317046 1 3.8010985386688638 1 4.012270679706023 1 4.2234428207431822 1 4.4346149617803405 1 4.6457871028174997 4
7 0 0  3 25 23  4.1887902047863896 0.61883102404660628  4.1736389432345895 0.57526684766206904  4.1431509156848252 0.49327590996431631  4.09690412865507 0.38480386009743128  4.0501832042201649 0.28989199768832702  4.0030328083470179 0.20778313592214276  3.9555000324010132 0.13782731509588397  3.9076345440079256 0.079488148386252802  3.8594882102114898 0.032326891105454662  3.8111148156889461 -0.0040045981159947206  3.7625697140663741 -0.029770776779175875  3.7139094618844828 -0.045157185111537337  3.6651914291880909 -0.050273836729292927  3.6164733964917013 -0.045157185111535027  3.5678131443098096 -0.029770776779175355  3.5192680426872371 -0.0040045981159942731  3.470894648164693 0.032326891105457431  3.4227483143682589 0.07948814838625623  3.3748828259751686 0.13782731509588725  3.3273500500291657 0.20778313592214598  3.2801996541560179 0.28989199768833329  3.2334787297211127 0.38480386009743317  3.1872319426913576 0.49327590996432158  3.1567439151415941 0.57526684766207503  3.1415926535897936 0.61883102404661128 
 0 4 0.21117214103715864 1 0.42234428207431729 1 0.63351642311147593 1 0.84468856414863458 1 1.0558607051857933 1 1.2670328462229519 1 1.4782049872601104 1 1.6893771282972692 1 1.9005492693344279 1 2.1117214103715867 1 2.322893551408745 1 2.5340656924459037 1 2.7452378334830625 1 2.9564099745202208 1 3.1675821155573796 1 3.3787542565945383 1 3.5899263976316971 1 3.8010985386688558 1 4.0122706797060141 1 4.2234428207431733 1 4.4346149617803317 1 4.64578710281749 4
1 3.1415926535897931 -2.2204460492503131e-16 0 1 
1 3.1415926535897931 -2.2204460492503131e-16 0 1 
1 0 -0.61883102404661172 1 0 
1 0 -2.2204460492503131e-16 0 1 
1 6.2831853071795862 -2.2204460492503131e-16 0 1 
1 0 -0.6188310240466125 1 0 
1 3.1415926535897931 -1.1102230246251565e-16 0 -1 
1 3.1415926535897931 -1.1102230246251565e-16 0 -1 
7 0 0  3 25 23  3.1415926535897931 0.61883102404661205  3.126441392037993 0.57526684766207481  3.0959533644882296 0.49327590996432141  3.0497065774584726 0.384803860097435  3.0029856530235683 0.28989199768833129  2.9558352571504223 0.20778313592214451  2.9083024812044176 0.13782731509588647  2.8604369928113282 0.079488148386255147  2.8122906590148933 0.032326891105456466  2.7639172644923491 -0.004004598115994574  2.7153721628697767 -0.029770776779175143  2.6667119106878872 -0.045157185111536109  2.6179938779914949 -0.050273836729292545  2.5692758452951043 -0.045157185111534957  2.5206155931132148 -0.029770776779174765  2.4720704914906353 -0.0040045981159922521  2.4236970969680964 0.032326891105457022  2.3755507631716632 0.079488148386255897  2.3276852747785686 0.13782731509588816  2.280152498832571 0.20778313592214742  2.2330021029594178 0.28989199768833351  2.1862811785245135 0.38480386009743839  2.1400343914947584 0.49327590996432508  2.109546363944995 0.57526684766207836  2.0943951023931948 0.6188310240466155 
 0 4 0.21117214103715909 1 0.42234428207431818 1 0.63351642311147727 1 0.84468856414863636 1 1.0558607051857956 1 1.2670328462229545 1 1.4782049872601135 1 1.6893771282972727 1 1.9005492693344319 1 2.1117214103715911 1 2.3228935514087499 1 2.5340656924459091 1 2.7452378334830683 1 2.956409974520227 1 3.1675821155573862 1 3.3787542565945454 1 3.5899263976317046 1 3.8010985386688638 1 4.012270679706023 1 4.2234428207431822 1 4.4346149617803405 1 4.6457871028174997 4
7 0 0  3 25 23  2.0943951023931948 0.6188310240466155  2.0792438408413947 0.57526684766207925  2.048755813291633 0.49327590996432674  2.0025090262618725 0.38480386009743967  1.9557881018269718 0.28989199768833246  1.9086377059538222 0.20778313592214942  1.8611049300078193 0.13782731509589047  1.8132394416147299 0.079488148386258992  1.7650931078182968 0.032326891105461726  1.7167197132957499 -0.004004598115989833  1.6681746116731793 -0.029770776779169904  1.619514359491288 -0.045157185111532473  1.5707963267948974 -0.050273836729287993  1.5220782940985051 -0.04515718511153248  1.4734180419166156 -0.029770776779169828  1.4248729402940423 -0.0040045981159901774  1.376499545771499 0.032326891105463169  1.3283532119750623 0.079488148386258617  1.2804877235819712 0.13782731509589038  1.23295494763597 0.20778313592215011  1.1858045517628213 0.28989199768833507  1.1390836273279197 0.384803860097439  1.0928368402981601 0.4932759099643258  1.0623488127483975 0.57526684766207903  1.0471975511965983 0.6188310240466155 
 0 4 0.21117214103715909 1 0.42234428207431818 1 0.63351642311147727 1 0.84468856414863636 1 1.0558607051857956 1 1.2670328462229545 1 1.4782049872601135 1 1.6893771282972727 1 1.9005492693344319 1 2.1117214103715911 1 2.3228935514087499 1 2.5340656924459091 1 2.7452378334830683 1 2.956409974520227 1 3.1675821155573862 1 3.3787542565945454 1 3.5899263976317046 1 3.8010985386688638 1 4.012270679706023 1 4.2234428207431822 1 4.4346149617803405 1 4.6457871028174997 4
7 0 0  3 25 23  1.0471975511965983 0.6188310240466155  1.0320462896447982 0.57526684766207803  1.0015582620950347 0.49327590996432458  0.95531147506527692 0.38480386009743911  0.90859055063037353 0.28989199768833174  0.86144015475722568 0.20778313592214812  0.81390737881121922 0.13782731509588655  0.76604189041813431 0.079488148386256133  0.71789555662169668 0.032326891105457299  0.6695221620991525 -0.004004598115993927  0.62097706047658452 -0.029770776779173742  0.5723168082946879 -0.045157185111537775  0.52359877559829737 -0.050273836729292656  0.47488074290190951 -0.045157185111535839  0.42622049072001733 -0.029770776779176649  0.37767538909744314 -0.0040045981159942384  0.32930199457489806 0.032326891105456466  0.28115566077846754 0.079488148386254787  0.23329017238537197 0.13782731509588744  0.1857573964393735 0.20778313592214551  0.13860700056622477 0.2898919976883314  0.091886076131316052 0.38480386009743339  0.045639289101563563 0.49327590996432191  0.015151261551801909 0.57526684766207536  0 0.61883102404661205 
 0 4 0.21117214103715909 1 0.42234428207431818 1 0.63351642311147727 1 0.84468856414863636 1 1.0558607051857956 1 1.2670328462229545 1 1.4782049872601135 1 1.6893771282972727 1 1.9005492693344319 1 2.1117214103715911 1 2.3228935514087499 1 2.5340656924459091 1 2.7452378334830683 1 2.956409974520227 1 3.1675821155573862 1 3.3787542565945454 1 3.5899263976317046 1 3.8010985386688638 1 4.012270679706023 1 4.2234428207431822 1 4.4346149617803405 1 4.6457871028174997 4
7 0 0  3 25 23  6.2831853071795862 0.61883102404661205  6.2680340456277852 0.57526684766207481  6.2375460180780218 0.49327590996432136  6.1912992310482684 0.38480386009743517  6.1445783066133606 0.28989199768833068  6.0974279107402145 0.2077831359221459  6.0498951347942098 0.13782731509588603  6.0020296464011222 0.079488148386255134  5.9538833126046855 0.032326891105456307  5.9055099180821422 -0.0040045981159947041  5.8569648164595707 -0.029770776779175338  5.8083045642776785 -0.045157185111536186  5.7595865315812889 -0.050273836729293045  5.7108684988848974 -0.045157185111536408  5.6622082467030053 -0.029770776779174602  5.613663145080432 -0.0040045981159925722  5.5652897505578887 0.03232689110545689  5.5171434167614537 0.079488148386255703  5.4692779283683652 0.13782731509588786  5.4217451524223597 0.2077831359221475  5.3745947565492136 0.28989199768833218  5.3278738321143058 0.38480386009743722  5.2816270450845515 0.49327590996432497  5.2511390175347881 0.57526684766207847  5.2359877559829879 0.61883102404661539 
 0 4 0.21117214103715909 1 0.42234428207431818 1 0.63351642311147727 1 0.84468856414863636 1 1.0558607051857956 1 1.2670328462229545 1 1.4782049872601135 1 1.6893771282972727 1 1.9005492693344319 1 2.1117214103715911 1 2.3228935514087499 1 2.5340656924459091 1 2.7452378334830683 1 2.956409974520227 1 3.1675821155573862 1 3.3787542565945454 1 3.5899263976317046 1 3.8010985386688638 1 4.012270679706023 1 4.2234428207431822 1 4.4346149617803405 1 4.6457871028174997 4
7 0 0  3 25 23  5.2359877559829879 0.61883102404661539  5.2208364944311878 0.57526684766207825  5.1903484668814244 0.49327590996432541  5.1441016798516683 0.38480386009743967  5.0973807554167649 0.28989199768833257  5.0502303595436135 0.20778313592214806  5.0026975835976124 0.13782731509588986  4.9548320952045231 0.079488148386256979  4.9066857614080872 0.032326891105459638  4.8583123668855457 -0.0040045981159902251  4.8097672652629706 -0.029770776779172059  4.7611070130810811 -0.045157185111534132  4.7123889803846888 -0.050273836729289922  4.6636709476882992 -0.045157185111533896  4.6150106955064079 -0.029770776779172982  4.5664655938838337 -0.0040045981159917386  4.5180921993612904 0.032326891105456876  4.4699458655648554 0.079488148386254842  4.4220803771717661 0.1378273150958863  4.3745476012257623 0.20778313592214456  4.3273972053526162 0.28989199768833057  4.2806762809177084 0.38480386009743162  4.2344294938879541 0.49327590996431941  4.2039414663381915 0.57526684766207203  4.1887902047863896 0.61883102404660795 
 0 4 0.21117214103715909 1 0.42234428207431818 1 0.63351642311147727 1 0.84468856414863636 1 1.0558607051857956 1 1.2670328462229545 1 1.4782049872601135 1 1.6893771282972727 1 1.9005492693344319 1 2.1117214103715911 1 2.3228935514087499 1 2.5340656924459091 1 2.7452378334830683 1 2.956409974520227 1 3.1675821155573862 1 3.3787542565945454 1 3.5899263976317046 1 3.8010985386688638 1 4.012270679706023 1 4.2234428207431822 1 4.4346149617803405 1 4.6457871028174997 4
7 0 0  3 25 23  4.1887902047863914 0.61883102404661539  4.1736389432345913 0.57526684766207825  4.1431509156848279 0.49327590996432469  4.0969041286550709 0.38480386009743761  4.0501832042201675 0.28989199768833196  4.0030328083470179 0.20778313592214789  3.9555000324010146 0.13782731509588653  3.9076345440079256 0.079488148386256119  3.8594882102114911 0.032326891105457153  3.8111148156889465 -0.0040045981159936251  3.7625697140663745 -0.029770776779175182  3.7139094618844819 -0.045157185111537407  3.6651914291880932 -0.050273836729292747  3.6164733964917004 -0.045157185111535776  3.56781314430981 -0.029770776779176663  3.5192680426872363 -0.0040045981159942375  3.4708946481646921 0.032326891105456473  3.4227483143682584 0.079488148386254856  3.3748828259751673 0.13782731509588744  3.3273500500291653 0.20778313592214567  3.280199654156017 0.28989199768833096  3.2334787297211118 0.38480386009743495  3.1872319426913562 0.49327590996432158  3.1567439151415928 0.57526684766207503  3.1415926535897927 0.61883102404661205 
 0 4 0.21117214103715909 1 0.42234428207431818 1 0.63351642311147727 1 0.84468856414863636 1 1.0558607051857956 1 1.2670328462229545 1 1.4782049872601135 1 1.6893771282972727 1 1.9005492693344319 1 2.1117214103715911 1 2.3228935514087499 1 2.5340656924459091 1 2.7452378334830683 1 2.956409974520227 1 3.1675821155573862 1 3.3787542565945454 1 3.5899263976317046 1 3.8010985386688638 1 4.012270679706023 1 4.2234428207431822 1 4.4346149617803405 1 4.6457871028174997 4
1 0 -0.6188310240466125 1 0 
1 0 -0.61883102404661172 1 0 
7 0 0  3 25 23  3.141592653589794 0.61883102404661128  3.1264413920379939 0.57526684766207381  3.0959533644882304 0.49327590996432036  3.049706577458474 0.38480386009743456  3.0029856530235692 0.28989199768832974  2.9558352571504205 0.20778313592214553  2.9083024812044185 0.13782731509588503  2.8604369928113278 0.079488148386255855  2.8122906590148942 0.032326891105456182  2.76391726449235 -0.0040045981159939764  2.7153721628697767 -0.029770776779175431  2.6667119106878858 -0.045157185111534916  2.6179938779914953 -0.050273836729293225  2.5692758452951034 -0.045157185111533778  2.520615593113213 -0.02977077677917507  2.4720704914906393 -0.0040045981159917204  2.4236970969680947 0.03232689110545682  2.375550763171661 0.079488148386256147  2.3276852747785703 0.13782731509588822  2.2801524988325679 0.20778313592214712  2.23300210295942 0.28989199768833307  2.1862811785245149 0.38480386009743728  2.1400343914947584 0.4932759099643248  2.1095463639449958 0.57526684766207814  2.0943951023931948 0.61883102404661461 
 0 4 0.21117214103715909 1 0.42234428207431818 1 0.63351642311147727 1 0.84468856414863636 1 1.0558607051857956 1 1.2670328462229545 1 1.4782049872601135 1 1.6893771282972727 1 1.9005492693344319 1 2.1117214103715911 1 2.3228935514087499 1 2.5340656924459091 1 2.7452378334830683 1 2.956409974520227 1 3.1675821155573862 1 3.3787542565945454 1 3.5899263976317046 1 3.8010985386688638 1 4.012270679706023 1 4.2234428207431822 1 4.4346149617803405 1 4.6457871028174997 4
7 0 0  3 25 23  2.0943951023931962 0.61883102404660717  2.0792438408413951 0.57526684766207037  2.0487558132916326 0.49327590996431808  2.0025090262618761 0.38480386009743289  1.9557881018269712 0.2898919976883288  1.9086377059538222 0.20778313592214415  1.86110493000782 0.13782731509588647  1.8132394416147299 0.079488148386256285  1.7650931078182961 0.032326891105457972  1.7167197132957512 -0.0040045981159917057  1.6681746116731788 -0.02977077677917148  1.6195143594912877 -0.04515718511153323  1.570796326794897 -0.050273836729289118  1.5220782940985058 -0.045157185111532147  1.473418041916615 -0.029770776779170862  1.4248729402940417 -0.0040045981159904237  1.3764995457714979 0.032326891105462247  1.3283532119750641 0.079488148386257826  1.2804877235819738 0.13782731509589086  1.2329549476359711 0.20778313592214973  1.1858045517628228 0.28989199768833451  1.1390836273279181 0.38480386009743961  1.0928368402981616 0.4932759099643243  1.0623488127483987 0.57526684766207759  1.0471975511965983 0.61883102404661539 
 0 4 0.21117214103715864 1 0.42234428207431729 1 0.63351642311147593 1 0.84468856414863458 1 1.0558607051857933 1 1.2670328462229519 1 1.4782049872601104 1 1.6893771282972692 1 1.9005492693344279 1 2.1117214103715867 1 2.322893551408745 1 2.5340656924459037 1 2.7452378334830625 1 2.9564099745202208 1 3.1675821155573796 1 3.3787542565945383 1 3.5899263976316971 1 3.8010985386688558 1 4.0122706797060141 1 4.2234428207431733 1 4.4346149617803317 1 4.64578710281749 4
7 0 0  3 25 23  1.0471975511965983 0.61883102404661539  1.0320462896447977 0.57526684766207736  1.0015582620950347 0.49327590996432363  0.95531147506527836 0.38480386009743778  0.90859055063037331 0.28989199768833329  0.86144015475722513 0.20778313592214795  0.81390737881122233 0.13782731509588669  0.7660418904181322 0.079488148386256563  0.71789555662169802 0.032326891105456709  0.66952216209915383 -0.0040045981159918297  0.62097706047658119 -0.029770776779174665  0.57231680829468989 -0.045157185111535186  0.5235987755982987 -0.050273836729292934  0.47488074290190774 -0.045157185111534666  0.4262204907200165 -0.029770776779176757  0.37767538909744353 -0.0040045981159939747  0.32930199457489956 0.032326891105457632  0.2811556607784656 0.079488148386255134  0.23329017238537489 0.13782731509588642  0.18575739643937245 0.20778313592214523  0.1386070005662243 0.28989199768833246  0.091886076131319272 0.384803860097432  0.04563928910156298 0.4932759099643218  0.015151261551800183 0.57526684766207525  0 0.61883102404661128 
 0 4 0.21117214103715909 1 0.42234428207431818 1 0.63351642311147727 1 0.84468856414863636 1 1.0558607051857956 1 1.2670328462229545 1 1.4782049872601135 1 1.6893771282972727 1 1.9005492693344319 1 2.1117214103715911 1 2.3228935514087499 1 2.5340656924459091 1 2.7452378334830683 1 2.956409974520227 1 3.1675821155573862 1 3.3787542565945454 1 3.5899263976317046 1 3.8010985386688638 1 4.012270679706023 1 4.2234428207431822 1 4.4346149617803405 1 4.6457871028174997 4
1 0 -0.30617723625377496 1 0 
1 0 2.117 1 0 
1 0 0.30617723625377496 1 0 
1 0 -2.117 1 0 
1 6.2831853071795862 -0.30617723625377502 -1 0 
1 0 0.30617723625377502 1 0 
Curves 40
2 0 2.65127275602545e-17 0.433 -0 6.12303176911189e-17 1 1 0 0 0 1 -6.12303176911189e-17 2.0670000000000002
1 -2.2835000000000001 2.9289522467546702e-16 0.2165 -0.70710678118654757 4.3296372853596771e-17 -0.70710678118654757 
2 0 0 0 0 0 -1 1 0 0 0 -1 0 2.5
1 2.2835000000000001 -2.6638249711521302e-16 0.2165 -0.70710678118654757 1.298891185607899e-16 0.70710678118654757 
2 0 2.85761892664452e-16 4.6669999999999998 -0 6.12303176911189e-17 1 1 0 0 0 1 -6.12303176911189e-17 2.0670000000000002
1 -2.0670000000000002 4.0926344344743801e-16 2.5499999999999998 -0 -6.12303176911189e-17 -1 
1 2.0670000000000002 -9.6988823222732201e-17 2.5499999999999998 -0 6.12303176911189e-17 1 
2 0 3.1227462022470599e-16 5.0999999999999996 0 0 1 1 0 -0 -0 1 0 2.5
1 -2.2835000000000001 5.7865711733991897e-16 4.8834999999999997 0.70710678118654757 -1.298891185607899e-16 -0.70710678118654757 
1 2.2835000000000001 1.9379395549239002e-17 4.8834999999999997 0.70710678118654757 -4.3296372853596771e-17 0.70710678118654757 
1 4.0450298657989503 -1.97276608200466e-16 4.8681818181818199 -0.92718385456678742 1.3648080467044505e-16 0.37460659341591218 
7 1 0  2 3 2  4.6188000000000002 2.7324717602223898e-15 4.6363636363636402  1 3.4641000000000002 1.9999990674997901 5.1028927193354896  1.1547005383792499 2.3094000000000001 3.9999981349995601 4.6363636363636402  1
 0 3 4.64578710281749 3
7 1 0  2 3 2  2.3094000000000001 3.9999981349995699 4.6363636363636296  1 0 3.9999981349995699 5.1028927193354896  1.1547005383792599 -2.3094000000000001 3.9999981349995699 4.6363636363636296  1
 0 3 4.6457871028174997 3
7 1 0  2 3 2  -2.3094000000000001 3.9999981349995601 4.6363636363636402  1 -3.4641000000000002 1.9999990674997801 5.1028927193354896  1.1547005383792499 -4.6188000000000002 3.7466344786726002e-15 4.6363636363636402  1
 0 3 4.64578710281749 3
1 -4.0450298657989503 7.9343724681126905e-16 4.8681818181818199 -0.92718385456678742 9.060624322235704e-17 -0.37460659341591218 
2 0 3.1227462022470599e-16 5.0999999999999996 0 0 -1 1 0 0 0 -1 0 3.4712597315978999
1 4.0450298657989503 -4.8116262658656202e-16 0.23181818181818201 0.92718385456678742 -9.060624322235704e-17 0.37460659341591218 
2 0 0 0 0 0 1 1 0 -0 -0 1 0 3.4712597315978999
1 -4.0450298657989503 5.0955122842517197e-16 0.23181818181818201 0.92718385456678742 -1.3648080467044505e-16 -0.37460659341591218 
7 1 0  2 3 2  -4.6188000000000002 -7.4844113861341601e-16 0.46363636363636401  1 -3.4641000000000002 1.9999990674997801 -0.00289271933549229  1.1547005383792499 -2.3094000000000001 3.9999981349995699 0.46363636363636401  1
 0 3 4.6457871028174997 3
7 1 0  2 3 2  -2.3094000000000001 3.9999981349995699 0.46363636363636401  1 0 3.9999981349995699 -0.0028927193354928399  1.1547005383792499 2.3094000000000001 3.9999981349995699 0.46363636363636401  1
 0 3 4.6457871028174997 3
7 1 0  2 3 2  2.3094000000000001 3.9999981349995699 0.46363636363636401  1 3.4641000000000002 1.9999990674997801 -0.0028927193354926798  1.1547005383792499 4.6188000000000002 -2.2696852162887302e-15 0.46363636363636401  1
 0 3 4.6457871028174997 3
7 1 0  2 3 2  4.6188000000000002 2.0405063371246501e-15 0.46363636363636401  1 3.4641000000000002 -1.9999990674997801 -0.0028927193354927301  1.1547005383792499 2.3094000000000001 -3.9999981349995699 0.46363636363636401  1
 0 3 4.6457871028174997 3
7 1 0  2 3 2  2.3094000000000001 -3.9999981349995699 0.46363636363636401  1 -4.6464844145868401e-15 -3.9999981349995699 -0.00289271933549262  1.1547005383792499 -2.3094000000000001 -3.9999981349995601 0.46363636363636401  1
 0 3 4.6457871028174997 3
7 1 0  2 3 2  -2.3094000000000001 -3.9999981349995699 0.46363636363636401  1 -3.4641000000000002 -1.9999990674997801 -0.0028927193354922301  1.1547005383792499 -4.6188000000000002 2.8011283759623098e-15 0.46363636363636401  1
 0 3 4.6457871028174997 3
2 0 0 0 0 0 1 1 0 -0 -0 1 0 3.4712597315978999
2 0 3.1227462022470599e-16 5.0999999999999996 0 0 -1 1 0 0 0 -1 0 3.4712597315978999
7 1 0  2 3 2  -4.6188000000000002 4.00017515828515e-15 4.6363636363636402  1 -3.4641000000000002 -1.9999990674997801 5.1028927193354896  1.1547005383792499 -2.3094000000000001 -3.9999981349995699 4.6363636363636402  1
 0 3 4.6457871028174997 3
7 1 0  2 3 2  -2.3094000000000001 -3.9999981349995601 4.6363636363636402  1 -1.1102230246251601e-15 -3.9999981349995699 5.1028927193354896  1.1547005383792499 2.3094000000000001 -3.9999981349995699 4.6363636363636402  1
 0 3 4.64578710281749 3
7 1 0  2 3 2  2.3094000000000001 -3.9999981349995699 4.6363636363636402  1 3.4641000000000002 -1.9999990674997801 5.1028927193354896  1.1547005383792499 4.6188000000000002 2.47893108060984e-15 4.6363636363636402  1
 0 3 4.6457871028174997 3
2 0 2.85761892664452e-16 4.6669999999999998 -0 6.12303176911189e-17 1 1 0 0 0 1 -6.12303176911189e-17 2.0670000000000002
2 0 3.1227462022470599e-16 5.0999999999999996 0 0 1 1 0 -0 -0 1 0 2.5
2 0 2.65127275602545e-17 0.433 -0 6.12303176911189e-17 1 1 0 0 0 1 -6.12303176911189e-17 2.0670000000000002
2 0 0 0 0 0 -1 1 0 0 0 -1 0 2.5
1 -2.3094000000000001 3.9999981349995699 0 0 0 1 
1 -4.6188000000000002 5.6562118270347996e-16 0 0 0 1 
1 2.3094000000000001 3.9999981349995699 0 0 0 1 
1 4.6188000000000002 0 0 0 0 1 
1 2.3094000000000001 -3.9999981349995699 0 0 0 1 
1 -2.3094000000000001 -3.9999981349995601 0 0 0 1 
Polygon3D 0
PolygonOnTriangulations 0
Surfaces 18
3 0 1.3256363780127201e-17 0.2165 0 -6.12303176911189e-17 -1 1 0 0 0 -1 6.12303176911189e-17 2.2835000000000001
0.78539816339744795
2 0 1.56137310112353e-16 2.5499999999999998 -0 6.12303176911189e-17 1 1 0 0 0 1 -6.12303176911189e-17 2.0670000000000002
3 0 1.3256363780127201e-17 0.2165 0 -6.12303176911189e-17 -1 1 0 0 0 -1 6.12303176911189e-17 2.2835000000000001
0.78539816339744795
1 -1.5475836100835499e-16 -1.11022302462516e-16 0 0 0 1 1 0 -0 -0 1 0 
3 0 2.99018256444579e-16 4.8834999999999997 -0 6.12303176911189e-17 1 1 0 0 0 1 -6.12303176911189e-17 2.2835000000000001
0.78539816339744795
2 0 1.56137310112353e-16 2.5499999999999998 -0 6.12303176911189e-17 1 1 0 0 0 1 -6.12303176911189e-17 2.0670000000000002
1 -1.5475836100835499e-16 -1.11022302462516e-16 5.0999999999999996 0 0 1 1 0 -0 -0 1 0 
3 0 2.99018256444579e-16 4.8834999999999997 -0 6.12303176911189e-17 1 1 0 0 0 1 -6.12303176911189e-17 2.2835000000000001
0.78539816339744795
3 0 2.9808031930540102e-16 4.8681818181818199 0 -6.12303176911189e-17 -1 1 0 0 0 -1 6.12303176911189e-17 4.0450298657989503
1.18682389135614
3 0 2.9808031930540102e-16 4.8681818181818199 0 -6.12303176911189e-17 -1 1 0 0 0 -1 6.12303176911189e-17 4.0450298657989503
1.18682389135614
1 3.4641000000000002 1.9999990674997801 0 0.86602540378443882 0.49999999999999989 -0 -0.49999999999999989 0.86602540378443882 0 0 0 1 
1 4.4408920985006301e-16 3.9999981349995699 0 0 1 -0 -1 0 0 0 0 1 
1 -3.4641000000000002 1.9999990674997801 0 -0.86602540378443849 0.50000000000000033 0 -0.50000000000000033 -0.86602540378443849 0 0 0 1 
3 0 1.4194300919304801e-17 0.23181818181818201 -0 6.12303176911189e-17 1 1 0 0 0 1 -6.12303176911189e-17 4.0450298657989503
1.18682389135614
3 0 1.4194300919304801e-17 0.23181818181818201 -0 6.12303176911189e-17 1 1 0 0 0 1 -6.12303176911189e-17 4.0450298657989503
1.18682389135614
1 3.4641000000000002 -1.9999990674997801 0 0.86602540378443882 -0.49999999999999989 0 0.49999999999999989 0.86602540378443882 0 -0 0 1 
1 -1.33226762955019e-15 -3.9999981349995601 0 -1.92296358296554e-16 -1 0 1 -1.92296358296554e-16 0 0 0 1 
1 -3.4641000000000002 -1.9999990674997801 0 -0.86602540378443882 -0.49999999999999989 0 0.49999999999999989 -0.86602540378443882 0 0 0 1 
Triangulations 0

TShapes 104
Ve
1e-07
-2.067 2.7963886089534e-16 0.433
0 0

0101101
*
Ve
1e-07
2.067 2.65127275602545e-17 0.433
0 0

0101101
*
Ed
 1e-07 1 1 0
1  1 0 3.14159265358979 6.28318530717959
2  1 1 0 3.14159265358979 6.28318530717959
2  2 2 0 3.14159265358979 6.28318530717959
4 C0 1 0 2 0
0

0101000
+104 0 -103 0 *
Ve
1e-07
-2.5 3.06151588455594e-16 0
0 0

0101101
*
Ed
 1e-07 1 1 0
1  2 0 -0.306177236253775 0.306177236253775
2  3 1 0 -0.306177236253775 0.306177236253775
2  4 3 0 -0.306177236253775 0.306177236253775
4 CN 1 0 3 0
0

0101000
+104 0 -101 0 *
Ve
1e-07
2.5 0 0
0 0

0101101
*
Ed
 1e-07 1 1 0
1  3 0 0 3.14159265358979
2  5 1 0 0 3.14159265358979
4 C0 1 0 4 0
0

0101000
+99 0 -101 0 *
Ed
 1e-07 1 1 0
1  4 0 -0.306177236253775 0.306177236253775
2  6 1 0 -0.306177236253775 0.306177236253775
2  7 3 0 -0.306177236253775 0.306177236253775
4 CN 1 0 3 0
0

0101000
+99 0 -103 0 *
Wi

0101100
-102 0 +100 0 -98 0 +97 0 *
Fa
0  1e-07 1 0

0111000
+96 0 *
Ve
1e-07
-2.067 5.38888025999537e-16 4.667
0 0

0101101
*
Ve
1e-07
2.067 2.85761892664452e-16 4.667
0 0

0101101
*
Ed
 1e-07 1 1 0
1  5 0 3.14159265358979 6.28318530717959
2  8 2 0 3.14159265358979 6.28318530717959
2  9 5 0 3.14159265358979 6.28318530717959
4 C0 2 0 5 0
0

0101000
+94 0 -93 0 *
Ed
 1e-07 1 1 0
1  6 0 -2.117 2.117
2  10 2 0 -2.117 2.117
2  11 6 0 -2.117 2.117
4 CN 2 0 6 0
0

0101000
+94 0 -104 0 *
Ed
 1e-07 1 1 0
1  7 0 -2.117 2.117
2  12 2 0 -2.117 2.117
2  13 6 0 -2.117 2.117
4 CN 2 0 6 0
0

0101000
+103 0 -93 0 *
Wi

0101100
-92 0 +91 0 +102 0 +90 0 *
Fa
0  1e-07 2 0

0111000
+89 0 *
Ve
1e-07
-2.5 6.184262086803e-16 5.1
0 0

0101101
*
Ve
1e-07
2.5 3.12274620224706e-16 5.1
0 0

0101101
*
Ed
 1e-07 1 1 0
1  8 0 3.14159265358979 6.28318530717959
2  14 5 0 3.14159265358979 6.28318530717959
4 C0 5 0 7 0
0

0101000
+87 0 -86 0 *
Ed
 1e-07 1 1 0
1  9 0 -0.306177236253775 0.306177236253775
2  15 5 0 -0.306177236253775 0.306177236253775
2  16 8 0 -0.306177236253775 0.306177236253775
4 CN 5 0 8 0
0

0101000
+87 0 -94 0 *
Ed
 1e-07 1 1 0
1  10 0 -0.306177236253775 0.306177236253775
2  17 5 0 -0.306177236253775 0.306177236253775
2  18 8 0 -0.306177236253775 0.306177236253775
4 CN 5 0 8 0
0

0101000
+93 0 -86 0 *
Wi

0101100
-85 0 +84 0 +92 0 +83 0 *
Fa
0  1e-07 5 0

0111000
+82 0 *
Ve
1e-07
4.6188 2.83886018386097e-16 4.63636363636364
0 0

0101101
*
Ve
1e-07
3.4712597315979 3.12274620224706e-16 5.1
0 0

0101101
*
Ed
 1e-07 1 1 0
1  11 0 -0.618831024046611 0.618831024046612
2  19 9 0 -0.618831024046611 0.618831024046612
2  20 10 0 -0.618831024046611 0.618831024046612
4 CN 9 0 10 0
0

0101000
+80 0 -79 0 *
Ve
1e-07
2.3094 3.99999813499957 4.63636363636364
0 0

0101101
*
Ed
 1e-07 1 1 0
1  12 0 0 4.64578710281749
2  21 9 0 0 4.64578710281749
4 C0 9 0 11 0
0

0101000
+80 0 -77 0 *
Ve
1e-07
-2.3094 3.99999813499957 4.63636363636364
0 0

0101101
*
Ed
 1e-07 1 1 0
1  13 0 0 4.6457871028175
2  22 9 0 0 4.6457871028175
4 C0 9 0 12 0
0

0101000
+77 0 -75 0 *
Ve
1e-07
-4.6188 1.11022302462516e-15 4.63636363636364
0 0

0101101
*
Ed
 1e-07 1 1 0
1  14 0 0 4.64578710281749
2  23 9 0 0 4.64578710281749
4 C0 9 0 13 0
0

0101000
+75 0 -73 0 *
Ve
1e-07
-3.4712597315979 7.37367292532961e-16 5.1
0 0

0101101
*
Ed
 1e-07 1 1 0
1  15 0 -0.618831024046612 0.618831024046611
2  24 9 0 -0.618831024046612 0.618831024046611
2  25 10 0 -0.618831024046612 0.618831024046611
4 CN 9 0 10 0
0

0101000
+71 0 -73 0 *
Ed
 1e-07 1 1 0
1  16 0 3.14159265358979 6.28318530717959
2  26 9 0 3.14159265358979 6.28318530717959
4 C0 9 0 7 0
0

0101000
+71 0 -79 0 *
Wi

0101100
-78 0 +76 0 +74 0 +72 0 -70 0 +69 0 *
Fa
0  1e-07 9 0

0111000
+68 0 *
Ve
1e-07
3.4712597315979 0 0
0 0

0101101
*
Ve
1e-07
4.6188 2.83886018386097e-17 0.463636363636364
0 0

0101101
*
Ed
 1e-07 1 1 0
1  17 0 -0.618831024046613 0.618831024046612
2  27 14 0 -0.618831024046613 0.618831024046612
2  28 15 0 -0.618831024046613 0.618831024046612
4 CN 14 0 15 0
0

0101000
+66 0 -65 0 *
Ve
1e-07
-3.4712597315979 4.25092672308255e-16 0
0 0

0101101
*
Ed
 1e-07 1 1 0
1  18 0 0 3.14159265358979
2  29 14 0 0 3.14159265358979
4 C0 14 0 4 0
0

0101000
+66 0 -63 0 *
Ve
1e-07
-4.6188 8.88178419700125e-16 0.463636363636364
0 0

0101101
*
Ed
 1e-07 1 1 0
1  19 0 -0.618831024046612 0.618831024046613
2  30 14 0 -0.618831024046612 0.618831024046613
2  31 15 0 -0.618831024046612 0.618831024046613
4 CN 14 0 15 0
0

0101000
+61 0 -63 0 *
Ve
1e-07
-2.3094 3.99999813499957 0.463636363636363
0 0

0101101
*
Ed
 1e-07 1 1 0
1  20 0 0 4.6457871028175
2  32 14 0 0 4.6457871028175
4 C0 14 0 13 0
0

0101000
+61 0 -59 0 *
Ve
1e-07
2.3094 3.99999813499957 0.463636363636363
0 0

0101101
*
Ed
 1e-07 1 1 0
1  21 0 0 4.6457871028175
2  33 14 0 0 4.6457871028175
4 C0 14 0 12 0
0

0101000
+59 0 -57 0 *
Ed
 1e-07 1 1 0
1  22 0 0 4.6457871028175
2  34 14 0 0 4.6457871028175
4 C0 14 0 11 0
0

0101000
+57 0 -65 0 *
Wi

0101100
-64 0 +62 0 -60 0 +58 0 +56 0 +55 0 *
Fa
0  1e-07 14 0

0111000
+54 0 *
Ve
1e-07
2.3094 -3.99999813499957 0.463636363636364
0 0

0101101
*
Ed
 1e-07 1 1 0
1  23 0 0 4.6457871028175
2  35 15 0 0 4.6457871028175
4 C0 15 0 16 0
0

0101000
+65 0 -52 0 *
Ve
1e-07
-2.3094 -3.99999813499956 0.463636363636364
0 0

0101101
*
Ed
 1e-07 1 1 0
1  24 0 0 4.6457871028175
2  36 15 0 0 4.6457871028175
4 C0 15 0 17 0
0

0101000
+52 0 -50 0 *
Ed
 1e-07 1 1 0
1  25 0 0 4.6457871028175
2  37 15 0 0 4.6457871028175
4 C0 15 0 18 0
0

0101000
+50 0 -61 0 *
Ed
 1e-07 1 1 0
1  26 0 3.14159265358979 6.28318530717959
2  38 15 0 3.14159265358979 6.28318530717959
4 C0 15 0 4 0
0

0101000
+63 0 -66 0 *
Wi

0101100
+64 0 +51 0 +49 0 +48 0 +60 0 +47 0 *
Fa
0  1e-07 15 0

0111000
+46 0 *
Ed
 1e-07 1 1 0
1  27 0 0 3.14159265358979
2  39 10 0 0 3.14159265358979
4 C0 10 0 7 0
0

0101000
+79 0 -71 0 *
Ve
1e-07
-2.3094 -3.99999813499956 4.63636363636364
0 0

0101101
*
Ed
 1e-07 1 1 0
1  28 0 0 4.6457871028175
2  40 10 0 0 4.6457871028175
4 C0 10 0 18 0
0

0101000
+73 0 -43 0 *
Ve
1e-07
2.3094 -3.99999813499957 4.63636363636364
0 0

0101101
*
Ed
 1e-07 1 1 0
1  29 0 0 4.64578710281749
2  41 10 0 0 4.64578710281749
4 C0 10 0 17 0
0

0101000
+43 0 -41 0 *
Ed
 1e-07 1 1 0
1  30 0 0 4.6457871028175
2  42 10 0 0 4.6457871028175
4 C0 10 0 16 0
0

0101000
+41 0 -80 0 *
Wi

0101100
+78 0 +44 0 +70 0 +42 0 +40 0 +39 0 *
Fa
0  1e-07 10 0

0111000
+38 0 *
Ed
 1e-07 1 1 0
1  31 0 0 3.14159265358979
2  43 8 0 0 3.14159265358979
2  44 6 0 0 3.14159265358979
4 C0 8 0 6 0
0

0101000
+93 0 -94 0 *
Ed
 1e-07 1 1 0
1  32 0 0 3.14159265358979
2  45 8 0 0 3.14159265358979
4 C0 8 0 7 0
0

0101000
+86 0 -87 0 *
Wi

0101100
+36 0 -84 0 -35 0 -83 0 *
Fa
0  1e-07 8 0

0111000
+34 0 *
Ed
 1e-07 1 1 0
1  33 0 0 3.14159265358979
2  46 6 0 0 3.14159265358979
2  47 3 0 0 3.14159265358979
4 C0 6 0 3 0
0

0101000
+103 0 -104 0 *
Wi

0101100
+32 0 -91 0 -36 0 -90 0 *
Fa
0  1e-07 6 0

0111000
+31 0 *
Ed
 1e-07 1 1 0
1  34 0 3.14159265358979 6.28318530717959
2  48 3 0 3.14159265358979 6.28318530717959
4 C0 3 0 4 0
0

0101000
+101 0 -99 0 *
Wi

0101100
-29 0 -100 0 -32 0 -97 0 *
Fa
0  1e-07 3 0

0111000
+28 0 *
Ed
 1e-07 1 1 0
1  35 0 0.463636363636363 4.63636363636364
4 C0 13 0 12 0
0

0101000
+59 0 -75 0 *
Ed
 1e-07 1 1 0
1  36 0 0.463636363636364 4.63636363636364
4 C0 13 0 18 0
0

0101000
+61 0 -73 0 *
Wi

0101100
-72 0 -26 0 -58 0 +25 0 *
Fa
0  1e-07 13 0

0111000
+24 0 *
Ed
 1e-07 1 1 0
1  37 0 0.463636363636363 4.63636363636364
4 C0 12 0 11 0
0

0101000
+57 0 -77 0 *
Wi

0101100
-74 0 -22 0 -56 0 +26 0 *
Fa
0  1e-07 12 0

0111000
+21 0 *
Ed
 1e-07 1 1 0
1  38 0 0.463636363636364 4.63636363636364
4 C0 11 0 16 0
0

0101000
+65 0 -80 0 *
Wi

0101100
-76 0 -19 0 -55 0 +22 0 *
Fa
0  1e-07 11 0

0111000
+18 0 *
Ed
 1e-07 1 1 0
1  39 0 0.463636363636364 4.63636363636364
4 C0 16 0 17 0
0

0101000
+52 0 -41 0 *
Wi

0101100
-39 0 -16 0 -51 0 +19 0 *
Fa
0  1e-07 16 0

0111000
+15 0 *
Wi

0101100
-35 0 -85 0 *
Wi

0101100
-44 0 -69 0 *
Fa
0  1e-07 7 0

0111000
+13 0 +12 0 *
Wi

0101100
-98 0 -29 0 *
Wi

0101100
-62 0 -47 0 *
Fa
0  1e-07 4 0

0111000
-10 0 -9 0 *
Ed
 1e-07 1 1 0
1  40 0 0.463636363636364 4.63636363636364
4 C0 17 0 18 0
0

0101000
+50 0 -43 0 *
Wi

0101100
-40 0 -7 0 -49 0 +16 0 *
Fa
0  1e-07 17 0

0111000
+6 0 *
Wi

0101100
-42 0 -25 0 -48 0 +7 0 *
Fa
0  1e-07 18 0

0111000
+4 0 *
Sh

0101100
-95 0 -88 0 -81 0 +67 0 +53 0 +45 0 +37 0 -33 0 -30 0 -27 0 
+23 0 +20 0 +17 0 +14 0 +11 0 -8 0 +5 0 +3 0 *
So

0100000
+2 0 *

+1 0 