DBRep_DrawableShape

CASCADE Topology V1, (c) Matra-Datavision
Locations 0
Curve2ds 48
1 6.2831853071795862 -0.3827215453172188 -1 0 
1 0 -3.2087500000000002 1 0 
1 3.1415926535897931 -1.1102230246251565e-16 0 1 
1 3.1415926535897931 -1.1102230246251565e-16 0 1 
1 0 0.3827215453172188 1 0 
1 0 -2.2204460492503131e-16 0 -1 
1 6.2831853071795862 -2.2204460492503131e-16 0 -1 
1 0 3.2087500000000002 1 0 
1 0 -0.38272154531721869 1 0 
1 3.1415926535897931 0 0 -1 
1 3.1415926535897931 0 0 -1 
1 6.2831853071795862 0 0 1 
1 0 0 0 1 
1 0 0.38272154531721869 1 0 
1 3.1415926535897931 0 0 -1 
1 3.1415926535897931 0 0 -1 
1 6.2831853071795862 0 0 1 
1 0 0 0 1 
1 6.2831853071795862 0 0 -1 
1 0 0 0 -1 
7 0 0  3 25 23  6.2831853071795862 0.91004562359795771  6.2680340456277861 0.83925383697308431  6.2375460180780218 0.70601856321423406  6.1912992310482684 0.52975148218054402  6.1445783066133588 0.37551970576574806  6.0974279107402136 0.24209280539569653  6.0498951347942089 0.12841459655302329  6.0020296464011196 0.033613450649878238  5.9538833126046864 -0.043023592431423119  5.9055099180821422 -0.10206226241627848  5.8569648164595689 -0.14393230274394725  5.8083045642776776 -0.16893521628403418  5.7595865315812871 -0.17724977516289042  5.7108684988848983 -0.1689352162840343  5.6622082467030035 -0.14393230274394495  5.6136631450804328 -0.10206226241627678  5.5652897505578895 -0.043023592431419129  5.5171434167614546 0.033613450649879265  5.4692779283683643 0.12841459655302978  5.4217451524223632 0.24209280539569991  5.3745947565492127 0.37551970576575039  5.3278738321143093 0.52975148218054813  5.2816270450845515 0.70601856321424028  5.2511390175347881 0.83925383697309031  5.2359877559829879 0.91004562359796348 
 0 4 0.34315472918538364 1 0.68630945837076729 1 1.029464187556151 1 1.3726189167415346 1 1.7157736459269182 1 2.058928375112302 1 2.4020831042976853 1 2.7452378334830692 1 3.088392562668453 1 3.4315472918538363 1 3.7747020210392201 1 4.117856750224604 1 4.4610114794099873 1 4.8041662085953707 1 5.1473209377807549 1 5.4904756669661383 1 5.8336303961515217 1 6.1767851253369059 1 6.5199398545222893 1 6.8630945837076727 1 7.2062493128930569 1 7.5494040420784403 4
7 0 0  3 25 23  5.2359877559829897 0.9100456235979586  5.2208364944311896 0.83925383697308631  5.1903484668814261 0.70601856321423673  5.1441016798516701 0.52975148218054413  5.0973807554167649 0.37551970576574872  5.0502303595436162 0.24209280539569977  5.0026975835976142 0.12841459655302254  4.9548320952045231 0.033613450649875025  4.906685761408089 -0.043023592431423313  4.8583123668855457 -0.1020622624162813  4.8097672652629715 -0.14393230274394872  4.7611070130810811 -0.16893521628403824  4.7123889803846888 -0.17724977516289145  4.6636709476882983 -0.16893521628403876  4.6150106955064079 -0.14393230274394861  4.5664655938838346 -0.10206226241628168  4.5180921993612904 -0.043023592431421682  4.4699458655648563 0.033613450649874067  4.4220803771717643 0.12841459655302553  4.3745476012257649 0.24209280539569489  4.3273972053526126 0.37551970576575128  4.280676280917711 0.52975148218054247  4.2344294938879532 0.70601856321423828  4.2039414663381898 0.83925383697308731  4.1887902047863896 0.9100456235979586 
 0 4 0.34315472918538409 1 0.68630945837076818 1 1.0294641875561523 1 1.3726189167415364 1 1.7157736459269204 1 2.0589283751123046 1 2.4020831042976885 1 2.7452378334830727 1 3.088392562668457 1 3.4315472918538408 1 3.774702021039225 1 4.1178567502246093 1 4.4610114794099935 1 4.8041662085953769 1 5.1473209377807612 1 5.4904756669661454 1 5.8336303961515297 1 6.1767851253369139 1 6.5199398545222973 1 6.8630945837076816 1 7.2062493128930658 1 7.5494040420784501 4
7 0 0  3 25 23  4.1887902047863914 0.91004562359796171  4.1736389432345913 0.83925383697309131  4.143150915684827 0.70601856321424394  4.0969041286550727 0.52975148218055113  4.0501832042201658 0.37551970576575783  4.0030328083470197 0.24209280539570671  3.9555000324010154 0.12841459655303131  3.9076345440079256 0.033613450649886335  3.859488210211492 -0.043023592431418949  3.8111148156889492 -0.10206226241627148  3.7625697140663745 -0.14393230274394683  3.7139094618844841 -0.16893521628402999  3.6651914291880918 -0.17724977516288973  3.6164733964917022 -0.16893521628403019  3.5678131443098091 -0.14393230274394833  3.5192680426872371 -0.10206226241627522  3.4708946481646916 -0.043023592431418158  3.4227483143682584 0.033613450649879799  3.3748828259751673 0.12841459655302884  3.3273500500291653 0.24209280539570133  3.280199654156017 0.37551970576575222  3.2334787297211123 0.52975148218054924  3.1872319426913562 0.70601856321423695  3.1567439151415932 0.83925383697308498  3.1415926535897931 0.91004562359795771 
 0 4 0.34315472918538364 1 0.68630945837076729 1 1.029464187556151 1 1.3726189167415346 1 1.7157736459269182 1 2.058928375112302 1 2.4020831042976853 1 2.7452378334830692 1 3.088392562668453 1 3.4315472918538363 1 3.7747020210392201 1 4.117856750224604 1 4.4610114794099873 1 4.8041662085953707 1 5.1473209377807549 1 5.4904756669661383 1 5.8336303961515217 1 6.1767851253369059 1 6.5199398545222893 1 6.8630945837076727 1 7.2062493128930569 1 7.5494040420784403 4
1 3.1415926535897931 0 0 1 
1 3.1415926535897931 0 0 1 
1 0 -0.91004562359795771 1 0 
1 0 2.2204460492503131e-16 0 1 
1 6.2831853071795862 2.2204460492503131e-16 0 1 
1 0 -0.91004562359795804 1 0 
1 3.1415926535897931 -2.2204460492503131e-16 0 -1 
1 3.1415926535897931 -2.2204460492503131e-16 0 -1 
7 0 0  3 25 23  3.1415926535897931 0.91004562359795804  3.126441392037993 0.83925383697308631  3.0959533644882296 0.7060185632142375  3.0497065774584744 0.52975148218054535  3.0029856530235648 0.37551970576575228  2.9558352571504223 0.24209280539570122  2.9083024812044158 0.12841459655302626  2.8604369928113265 0.033613450649878834  2.8122906590148951 -0.043023592431422918  2.7639172644923491 -0.10206226241627565  2.7153721628697784 -0.14393230274394556  2.6667119106878836 -0.16893521628403371  2.6179938779914949 -0.17724977516288798  2.5692758452951043 -0.16893521628403377  2.520615593113213 -0.14393230274394525  2.4720704914906406 -0.10206226241627692  2.4236970969680964 -0.043023592431417922  2.3755507631716597 0.033613450649880236  2.3276852747785721 0.12841459655303061  2.280152498832571 0.24209280539569838  2.233002102959416 0.37551970576575405  2.1862811785245171 0.52975148218055146  2.1400343914947584 0.7060185632142415  2.109546363944995 0.83925383697308986  2.0943951023931948 0.91004562359796237 
 0 4 0.34315472918538364 1 0.68630945837076729 1 1.029464187556151 1 1.3726189167415346 1 1.7157736459269182 1 2.058928375112302 1 2.4020831042976853 1 2.7452378334830692 1 3.088392562668453 1 3.4315472918538363 1 3.7747020210392201 1 4.117856750224604 1 4.4610114794099873 1 4.8041662085953707 1 5.1473209377807549 1 5.4904756669661383 1 5.8336303961515217 1 6.1767851253369059 1 6.5199398545222893 1 6.8630945837076727 1 7.2062493128930569 1 7.5494040420784403 4
7 0 0  3 25 23  2.0943951023931966 0.91004562359795904  2.0792438408413947 0.83925383697308831  2.0487558132916348 0.70601856321423873  2.0025090262618779 0.52975148218054302  1.95578810182697 0.37551970576575039  1.9086377059538258 0.24209280539570091  1.8611049300078175 0.12841459655302453  1.8132394416147317 0.033613450649875594  1.765093107818295 -0.04302359243142357  1.7167197132957517 -0.10206226241628023  1.6681746116731793 -0.14393230274394725  1.619514359491288 -0.16893521628403804  1.5707963267948974 -0.17724977516288964  1.522078294098506 -0.16893521628403849  1.4734180419166147 -0.14393230274394542  1.4248729402940397 -0.10206226241628231  1.3764995457714999 -0.043023592431421911  1.3283532119750614 0.033613450649875719  1.2804877235819747 0.12841459655302712  1.2329549476359691 0.24209280539569641  1.1858045517628195 0.37551970576574994  1.1390836273279161 0.52975148218054435  1.092836840298161 0.70601856321423961  1.0623488127483984 0.83925383697308842  1.0471975511965965 0.91004562359795904 
 0 4 0.34315472918538364 1 0.68630945837076729 1 1.029464187556151 1 1.3726189167415346 1 1.7157736459269182 1 2.058928375112302 1 2.4020831042976853 1 2.7452378334830692 1 3.088392562668453 1 3.4315472918538363 1 3.7747020210392201 1 4.117856750224604 1 4.4610114794099873 1 4.8041662085953707 1 5.1473209377807549 1 5.4904756669661383 1 5.8336303961515217 1 6.1767851253369059 1 6.5199398545222893 1 6.8630945837076727 1 7.2062493128930569 1 7.5494040420784403 4
7 0 0  3 25 23  1.0471975511965983 0.91004562359796359  1.0320462896447982 0.83925383697309175  1.0015582620950347 0.70601856321424261  0.95531147506527958 0.52975148218055146  0.90859055063037353 0.37551970576575483  0.8614401547572248 0.2420928053957063  0.81390737881122011 0.1284145965530305  0.76604189041813253 0.033613450649882762  0.71789555662169757 -0.043023592431416929  0.66952216209915427 -0.10206226241627273  0.62097706047658185 -0.1439323027439427  0.57231680829468878 -0.16893521628403249  0.52359877559830004 -0.17724977516288487  0.47488074290190596 -0.16893521628403227  0.42622049072001822 -0.14393230274394417  0.37767538909744314 -0.10206226241627704  0.32930199457489984 -0.043023592431418019  0.28115566077846754 0.033613450649880978  0.23329017238537197 0.12841459655302839  0.18575739643937528 0.24209280539569733  0.13860700056622122 0.37551970576575183  0.091886076131317829 0.52975148218054713  0.045639289101565339 0.7060185632142375  0.015151261551801021 0.83925383697308598  0 0.91004562359795838 
 0 4 0.34315472918538364 1 0.68630945837076729 1 1.029464187556151 1 1.3726189167415346 1 1.7157736459269182 1 2.058928375112302 1 2.4020831042976853 1 2.7452378334830692 1 3.088392562668453 1 3.4315472918538363 1 3.7747020210392201 1 4.117856750224604 1 4.4610114794099873 1 4.8041662085953707 1 5.1473209377807549 1 5.4904756669661383 1 5.8336303961515217 1 6.1767851253369059 1 6.5199398545222893 1 6.8630945837076727 1 7.2062493128930569 1 7.5494040420784403 4
7 0 0  3 25 23  6.2831853071795862 0.91004562359795838  6.2680340456277861 0.8392538369730872  6.2375460180780227 0.70601856321423873  6.1912992310482675 0.52975148218054646  6.1445783066133606 0.37551970576575322  6.0974279107402136 0.24209280539570252  6.0498951347942089 0.12841459655302742  6.0020296464011214 0.033613450649879653  5.9538833126046846 -0.043023592431420662  5.9055099180821422 -0.10206226241627374  5.8569648164595689 -0.14393230274394406  5.8083045642776776 -0.16893521628403024  5.7595865315812871 -0.17724977516288679  5.7108684988848983 -0.16893521628403074  5.6622082467030035 -0.14393230274394256  5.6136631450804328 -0.10206226241627432  5.5652897505578878 -0.043023592431414959  5.5171434167614528 0.033613450649881617  5.4692779283683635 0.12841459655303317  5.4217451524223614 0.24209280539570269  5.3745947565492109 0.375519705765755  5.3278738321143093 0.52975148218055379  5.2816270450845515 0.70601856321424195  5.2511390175347881 0.83925383697309064  5.2359877559829879 0.91004562359796404 
 0 4 0.34315472918538364 1 0.68630945837076729 1 1.029464187556151 1 1.3726189167415346 1 1.7157736459269182 1 2.058928375112302 1 2.4020831042976853 1 2.7452378334830692 1 3.088392562668453 1 3.4315472918538363 1 3.7747020210392201 1 4.117856750224604 1 4.4610114794099873 1 4.8041662085953707 1 5.1473209377807549 1 5.4904756669661383 1 5.8336303961515217 1 6.1767851253369059 1 6.5199398545222893 1 6.8630945837076727 1 7.2062493128930569 1 7.5494040420784403 4
7 0 0  3 25 23  5.2359877559829888 0.9100456235979546  5.2208364944311887 0.83925383697308464  5.1903484668814244 0.70601856321423551  5.144101679851671 0.5297514821805388  5.0973807554167614 0.37551970576574922  5.0502303595436162 0.24209280539569902  5.0026975835976106 0.12841459655302248  4.9548320952045222 0.033613450649874956  4.906685761408089 -0.043023592431425027  4.8583123668855439 -0.10206226241627951  4.8097672652629724 -0.14393230274394936  4.7611070130810784 -0.16893521628403618  4.7123889803846906 -0.17724977516289067  4.6636709476882992 -0.16893521628403696  4.6150106955064052 -0.14393230274394633  4.5664655938838346 -0.10206226241628084  4.5180921993612913 -0.043023592431422612  4.4699458655648545 0.033613450649876288  4.4220803771717652 0.12841459655302945  4.3745476012257623 0.24209280539569528  4.3273972053526135 0.37551970576575117  4.2806762809177101 0.52975148218054369  4.2344294938879532 0.70601856321423939  4.2039414663381898 0.83925383697308831  4.1887902047863896 0.91004562359795882 
 0 4 0.34315472918538364 1 0.68630945837076729 1 1.029464187556151 1 1.3726189167415346 1 1.7157736459269182 1 2.058928375112302 1 2.4020831042976853 1 2.7452378334830692 1 3.088392562668453 1 3.4315472918538363 1 3.7747020210392201 1 4.117856750224604 1 4.4610114794099873 1 4.8041662085953707 1 5.1473209377807549 1 5.4904756669661383 1 5.8336303961515217 1 6.1767851253369059 1 6.5199398545222893 1 6.8630945837076727 1 7.2062493128930569 1 7.5494040420784403 4
7 0 0  3 25 23  4.1887902047863905 0.91004562359795504  4.1736389432345904 0.83925383697308265  4.1431509156848252 0.70601856321423406  4.0969041286550709 0.52975148218054358  4.0501832042201649 0.37551970576574922  4.003032808347017 0.24209280539569658  3.9555000324010163 0.12841459655302487  3.907634544007923 0.033613450649875865  3.8594882102114907 -0.043023592431423646  3.8111148156889456 -0.10206226241627837  3.7625697140663736 -0.14393230274394761  3.7139094618844828 -0.16893521628403643  3.6651914291880914 -0.17724977516288865  3.6164733964917004 -0.16893521628403707  3.5678131443098096 -0.14393230274394506  3.5192680426872371 -0.10206226241627846  3.4708946481646916 -0.043023592431420704  3.4227483143682575 0.033613450649879507  3.3748828259751678 0.1284145965530277  3.3273500500291657 0.24209280539569661  3.280199654156017 0.37551970576575111  3.2334787297211123 0.52975148218054691  3.1872319426913562 0.70601856321423906  3.1567439151415928 0.83925383697308675  3.1415926535897927 0.91004562359795838 
 0 4 0.34315472918538314 1 0.68630945837076629 1 1.0294641875561494 1 1.3726189167415326 1 1.7157736459269157 1 2.0589283751122989 1 2.4020831042976818 1 2.7452378334830652 1 3.0883925626684485 1 3.4315472918538314 1 3.7747020210392144 1 4.1178567502245977 1 4.4610114794099811 1 4.8041662085953636 1 5.147320937780747 1 5.4904756669661303 1 5.8336303961515137 1 6.1767851253368971 1 6.5199398545222795 1 6.8630945837076629 1 7.2062493128930463 1 7.5494040420784296 4
1 0 -0.91004562359795804 1 0 
1 0 -0.91004562359795771 1 0 
7 0 0  3 25 23  3.1415926535897936 0.91004562359795771  3.126441392037993 0.83925383697308542  3.09595336448823 0.70601856321423673  3.049706577458474 0.52975148218054546  3.0029856530235692 0.37551970576575139  2.9558352571504205 0.24209280539569977  2.9083024812044189 0.12841459655302787  2.8604369928113274 0.03361345064987889  2.8122906590148942 -0.043023592431421426  2.7639172644923495 -0.10206226241627581  2.7153721628697776 -0.14393230274394769  2.6667119106878863 -0.16893521628403382  2.6179938779914953 -0.17724977516288776  2.5692758452951043 -0.16893521628403604  2.520615593113213 -0.14393230274394636  2.4720704914906411 -0.1020622624162786  2.4236970969680951 -0.043023592431421405  2.3755507631716628 0.033613450649876885  2.3276852747785712 0.12841459655302595  2.2801524988325697 0.24209280539569461  2.2330021029594205 0.37551970576575  2.1862811785245158 0.52975148218054235  2.1400343914947602 0.70601856321423428  2.1095463639449967 0.83925383697308187  2.0943951023931957 0.91004562359795349 
 0 4 0.34315472918538314 1 0.68630945837076629 1 1.0294641875561494 1 1.3726189167415326 1 1.7157736459269157 1 2.0589283751122989 1 2.4020831042976818 1 2.7452378334830652 1 3.0883925626684485 1 3.4315472918538314 1 3.7747020210392144 1 4.1178567502245977 1 4.4610114794099811 1 4.8041662085953636 1 5.147320937780747 1 5.4904756669661303 1 5.8336303961515137 1 6.1767851253368971 1 6.5199398545222795 1 6.8630945837076629 1 7.2062493128930463 1 7.5494040420784296 4
7 0 0  3 25 23  2.0943951023931957 0.91004562359795349  2.0792438408413956 0.83925383697308131  2.0487558132916317 0.70601856321423262  2.0025090262618757 0.52975148218054124  1.9557881018269698 0.37551970576574395  1.9086377059538215 0.24209280539569439  1.86110493000782 0.12841459655302226  1.8132394416147284 0.033613450649877911  1.7650931078182952 -0.043023592431425763  1.716719713295751 -0.10206226241628032  1.6681746116731786 -0.14393230274394922  1.619514359491288 -0.16893521628403724  1.5707963267948966 -0.17724977516289114  1.522078294098506 -0.16893521628403571  1.4734180419166152 -0.14393230274394828  1.4248729402940425 -0.10206226241628107  1.3764995457714986 -0.043023592431423438  1.3283532119750647 0.033613450649874588  1.2804877235819743 0.12841459655302326  1.2329549476359714 0.24209280539569364  1.1858045517628235 0.3755197057657455  1.1390836273279181 0.52975148218054113  1.0928368402981619 0.70601856321423195  1.062348812748398 0.83925383697308131  1.0471975511965974 0.91004562359795438 
 0 4 0.34315472918538314 1 0.68630945837076629 1 1.0294641875561494 1 1.3726189167415326 1 1.7157736459269157 1 2.0589283751122989 1 2.4020831042976818 1 2.7452378334830652 1 3.0883925626684485 1 3.4315472918538314 1 3.7747020210392144 1 4.1178567502245977 1 4.4610114794099811 1 4.8041662085953636 1 5.147320937780747 1 5.4904756669661303 1 5.8336303961515137 1 6.1767851253368971 1 6.5199398545222795 1 6.8630945837076629 1 7.2062493128930463 1 7.5494040420784296 4
7 0 0  3 25 23  1.0471975511965981 0.91004562359796259  1.0320462896447975 0.83925383697309119  1.0015582620950347 0.70601856321424183  0.9553114750652778 0.52975148218054702  0.90859055063037242 0.37551970576575255  0.86144015475722424 0.24209280539570058  0.81390737881122155 0.12841459655302753  0.76604189041813131 0.033613450649881971  0.71789555662169757 -0.043023592431422501  0.66952216209915383 -0.10206226241627478  0.62097706047658097 -0.14393230274394794  0.57231680829468989 -0.16893521628403027  0.52359877559829926 -0.17724977516289053  0.47488074290190874 -0.16893521628403277  0.42622049072001733 -0.14393230274394608  0.3776753890974448 -0.10206226241627872  0.32930199457490078 -0.043023592431420253  0.28115566077846704 0.033613450649875774  0.23329017238537619 0.12841459655302517  0.18575739643937375 0.24209280539569722  0.13860700056622538 0.37551970576574573  0.091886076131320077 0.52975148218054469  0.045639289101563341 0.70601856321423384  0.015151261551800249 0.83925383697308387  0 0.91004562359795771 
 0 4 0.34315472918538364 1 0.68630945837076729 1 1.029464187556151 1 1.3726189167415346 1 1.7157736459269182 1 2.058928375112302 1 2.4020831042976853 1 2.7452378334830692 1 3.088392562668453 1 3.4315472918538363 1 3.7747020210392201 1 4.117856750224604 1 4.4610114794099873 1 4.8041662085953707 1 5.1473209377807549 1 5.4904756669661383 1 5.8336303961515217 1 6.1767851253369059 1 6.5199398545222893 1 6.8630945837076727 1 7.2062493128930569 1 7.5494040420784403 4
1 0 -0.38272154531721869 1 0 
1 0 3.2087500000000002 1 0 
1 0 0.38272154531721869 1 0 
1 0 -3.2087500000000002 1 0 
1 6.2831853071795862 -0.3827215453172188 -1 0 
1 0 0.3827215453172188 1 0 
Curves 40
2 0 3.3140909450318101e-17 0.54125000000000001 -0 6.12303176911189e-17 1 1 0 0 0 1 -6.12303176911189e-17 3.4587500000000002
1 -3.7293750000000001 4.7327208680379201e-16 0.270625 -0.70710678118654802 4.3296372853596802e-17 -0.70710678118654702 
2 0 0 0 0 0 -1 1 0 0 0 -1 0 4
1 3.7293750000000001 -4.4013117735347402e-16 0.270625 -0.70710678118654802 1.2988911856079e-16 0.70710678118654702 
2 0 4.2608647323307299e-16 6.9587500000000002 -0 6.12303176911189e-17 1 1 0 0 0 1 -6.12303176911189e-17 3.4587500000000002
1 -3.4587500000000002 6.5317441397000997e-16 3.75 -0 -6.12303176911189e-17 -1 
1 3.4587500000000002 -1.9394703128661899e-16 3.75 -0 6.12303176911189e-17 1 
2 0 4.5922738268339098e-16 7.5 0 0 1 1 0 -0 -0 1 0 4
1 -3.7293750000000001 8.99358560036865e-16 7.2293750000000001 0.70710678118654802 -1.2988911856079e-16 -0.70710678118654702 
1 3.7293750000000001 -1.40447041204004e-17 7.2293750000000001 0.70710678118654802 -4.3296372853596802e-17 0.70710678118654702 
1 6.6617703908808101 -3.7745122409460499e-16 7.1590909090909101 -0.92718385456678742 1.3648080467044505e-16 0.37460659341591218 
7 1 0  2 3 2  7.5055500000000004 -6.0804462070794897e-15 6.8181818181818201  1 5.6291624999999996 3.2499984846871501 7.57629157801109  1.1547005383792599 3.7527750000000002 6.4999969693743003 6.8181818181818201  1
 0 3 7.5494040420784403 3
7 1 0  2 3 2  3.75277500000001 6.4999969693742896 6.8181818181818201  1 0 6.4999969693742896 7.57629157801109  1.1547005383792499 -3.75277500000001 6.4999969693742896 6.8181818181818201  1
 0 3 7.5494040420784501 3
7 1 0  2 3 2  -3.7527750000000002 6.4999969693743003 6.8181818181818201  1 -5.6291624999999996 3.2499984846871501 7.57629157801109  1.1547005383792399 -7.5055500000000004 -1.57740840169741e-15 6.8181818181818201  1
 0 3 7.5494040420784403 3
1 -6.6617703908808101 1.2541580455810801e-15 7.1590909090909101 -0.92718385456678742 9.060624322235704e-17 -0.37460659341591218 
2 0 4.5922738268339098e-16 7.5 0 0 -1 1 0 0 0 -1 0 5.8179907817616199
1 6.6617703908808101 -7.9493066289768801e-16 0.34090909090909099 0.92718385456678742 -9.060624322235704e-17 0.37460659341591218 
2 0 0 0 0 0 1 1 0 -0 -0 1 0 5.8179907817616199
1 -6.6617703908808101 8.3667860677799602e-16 0.34090909090909099 0.92718385456678742 -1.3648080467044505e-16 -0.37460659341591218 
7 1 0  2 3 2  -7.5055500000000004 -9.8244499249220796e-16 0.68181818181818199  1 -5.6291624999999996 3.2499984846871399 -0.076291578011084493  1.1547005383792499 -3.7527750000000002 6.4999969693743003 0.68181818181818199  1
 0 3 7.5494040420784403 3
7 1 0  2 3 2  -3.75277500000001 6.4999969693742896 0.68181818181818199  1 0 6.4999969693742896 -0.076291578011085701  1.1547005383792499 3.75277500000001 6.4999969693742896 0.68181818181818199  1
 0 3 7.5494040420784403 3
7 1 0  2 3 2  3.7527750000000002 6.4999969693743003 0.68181818181818299  1 5.6291624999999996 3.2499984846871501 -0.076291578011084896  1.1547005383792499 7.5055500000000004 -4.4848077300116002e-15 0.68181818181818299  1
 0 3 7.5494040420784403 3
7 1 0  2 3 2  7.5055500000000004 2.01958021109585e-15 0.68181818181818299  1 5.6291624999999996 -3.2499984846871501 -0.076291578011083494  1.1547005383792499 3.7527750000000002 -6.4999969693743003 0.68181818181818299  1
 0 3 7.5494040420784403 3
7 1 0  2 3 2  3.7527750000000002 -6.4999969693742896 0.68181818181818199  1 -1.5543122344752199e-15 -6.4999969693742896 -0.076291578011084799  1.1547005383792499 -3.75277500000001 -6.4999969693742896 0.68181818181818199  1
 0 3 7.5494040420784403 3
7 1 0  2 3 2  -3.7527750000000002 -6.4999969693742896 0.68181818181818299  1 -5.6291624999999996 -3.2499984846871399 -0.076291578011083702  1.1547005383792499 -7.5055500000000004 5.5219429486152401e-15 0.68181818181818299  1
 0 3 7.5494040420784296 3
2 0 0 0 0 0 1 1 0 -0 -0 1 0 5.8179907817616199
2 0 4.5922738268339098e-16 7.5 0 0 -1 1 0 0 0 -1 0 5.8179907817616199
7 1 0  2 3 2  -7.5055500000000004 3.4259669376160198e-15 6.8181818181818201  1 -5.6291624999999996 -3.2499984846871399 7.5762915780110802  1.1547005383792499 -3.7527750000000002 -6.4999969693742896 6.8181818181818201  1
 0 3 7.5494040420784296 3
7 1 0  2 3 2  -3.7527750000000002 -6.4999969693742896 6.8181818181818201  1 -1.5543122344752199e-15 -6.4999969693742896 7.5762915780110802  1.1547005383792599 3.7527750000000002 -6.4999969693742896 6.8181818181818201  1
 0 3 7.5494040420784296 3
7 1 0  2 3 2  3.7527750000000002 -6.4999969693743003 6.8181818181818201  1 5.6291624999999996 -3.2499984846871501 7.57629157801109  1.1547005383792599 7.5055500000000004 4.9269795394100397e-15 6.8181818181818201  1
 0 3 7.5494040420784403 3
2 0 4.2608647323307299e-16 6.9587500000000002 -0 6.12303176911189e-17 1 1 0 0 0 1 -6.12303176911189e-17 3.4587500000000002
2 0 4.5922738268339098e-16 7.5 0 0 1 1 0 -0 -0 1 0 4
2 0 3.3140909450318101e-17 0.54125000000000001 -0 6.12303176911189e-17 1 1 0 0 0 1 -6.12303176911189e-17 3.4587500000000002
2 0 0 0 0 0 -1 1 0 0 0 -1 0 4
1 -3.7527750000000002 6.4999969693742896 0 0 0 1 
1 -7.5055500000000004 9.1913442189315396e-16 0 0 0 1 
1 3.7527750000000002 6.4999969693742896 0 0 0 1 
1 7.5055500000000004 0 0 0 0 1 
1 3.7527750000000002 -6.4999969693742896 0 0 0 1 
1 -3.7527750000000002 -6.4999969693742896 0 0 0 1 
Polygon3D 0
PolygonOnTriangulations 0
Surfaces 18
3 0 1.6570454725159001e-17 0.270625 0 -6.12303176911189e-17 -1 1 0 0 0 -1 6.12303176911189e-17 3.7293750000000001
0.78539816339744795
2 0 2.2961369134169598e-16 3.75 -0 6.12303176911189e-17 1 1 0 0 0 1 -6.12303176911189e-17 3.4587500000000002
3 0 1.6570454725159001e-17 0.270625 0 -6.12303176911189e-17 -1 1 0 0 0 -1 6.12303176911189e-17 3.7293750000000001
0.78539816339744795
1 3.5661709275838399e-16 2.2204460492503101e-16 0 0 0 1 1 0 -0 -0 1 0 
3 0 4.4265692795823198e-16 7.2293750000000001 -0 6.12303176911189e-17 1 1 0 0 0 1 -6.12303176911189e-17 3.7293750000000001
0.78539816339744795
2 0 2.2961369134169598e-16 3.75 -0 6.12303176911189e-17 1 1 0 0 0 1 -6.12303176911189e-17 3.4587500000000002
1 3.5661709275838399e-16 2.2204460492503101e-16 7.5 0 0 1 1 0 -0 -0 1 0 
3 0 4.4265692795823198e-16 7.2293750000000001 -0 6.12303176911189e-17 1 1 0 0 0 1 -6.12303176911189e-17 3.7293750000000001
0.78539816339744795
3 0 4.3835341074323698e-16 7.1590909090909101 0 -6.12303176911189e-17 -1 1 0 0 0 -1 6.12303176911189e-17 6.6617703908808101
1.18682389135614
3 0 4.3835341074323698e-16 7.1590909090909101 0 -6.12303176911189e-17 -1 1 0 0 0 -1 6.12303176911189e-17 6.6617703908808101
1.18682389135614
1 5.6291624999999996 3.2499984846871501 0 0.86602540378443882 0.49999999999999989 -0 -0.49999999999999989 0.86602540378443882 0 0 0 1 
1 8.8817841970012504e-16 6.4999969693742896 0 0 1 -0 -1 0 0 0 0 1 
1 -5.6291624999999996 3.2499984846871501 0 -0.86602540378443849 0.50000000000000033 0 -0.50000000000000033 -0.86602540378443849 0 0 0 1 
3 0 2.0873971940154201e-17 0.34090909090909099 -0 6.12303176911189e-17 1 1 0 0 0 1 -6.12303176911189e-17 6.6617703908808101
1.18682389135614
3 0 2.0873971940154201e-17 0.34090909090909099 -0 6.12303176911189e-17 1 1 0 0 0 1 -6.12303176911189e-17 6.6617703908808101
1.18682389135614
1 5.6291624999999996 -3.2499984846871501 0 0.86602540378443882 -0.49999999999999989 0 0.49999999999999989 0.86602540378443882 0 -0 0 1 
1 -1.7763568394002501e-15 -6.4999969693742896 0 -2.3667244098037401e-16 -1 0 1 -2.3667244098037401e-16 0 0 0 1 
1 -5.6291624999999996 -3.2499984846871501 0 -0.86602540378443882 -0.49999999999999989 0 0.49999999999999989 -0.86602540378443882 0 0 0 1 
Triangulations 0

TShapes 104
Ve
1e-07
-3.45875 4.56701632078633e-16 0.54125
0 0

0101101
*
Ve
1e-07
3.45875 3.31409094503181e-17 0.54125
0 0

0101101
*
Ed
 1e-07 1 1 0
1  1 0 3.14159265358979 6.28318530717959
2  1 1 0 3.14159265358979 6.28318530717959
2  2 2 0 3.14159265358979 6.28318530717959
4 C0 1 0 2 0
0

0101000
+104 0 -103 0 *
Ve
1e-07
-4 4.89842541528951e-16 0
0 0

0101101
*
Ed
 1e-07 1 1 0
1  2 0 -0.382721545317219 0.382721545317219
2  3 1 0 -0.382721545317219 0.382721545317219
2  4 3 0 -0.382721545317219 0.382721545317219
4 CN 1 0 3 0
0

0101000
+104 0 -101 0 *
Ve
1e-07
4 0 0
0 0

0101101
*
Ed
 1e-07 1 1 0
1  3 0 0 3.14159265358979
2  5 1 0 0 3.14159265358979
4 C0 1 0 4 0
0

0101000
+99 0 -101 0 *
Ed
 1e-07 1 1 0
1  4 0 -0.382721545317219 0.382721545317219
2  6 1 0 -0.382721545317219 0.382721545317219
2  7 3 0 -0.382721545317219 0.382721545317219
4 CN 1 0 3 0
0

0101000
+99 0 -103 0 *
Wi

0101100
-102 0 +100 0 -98 0 +97 0 *
Fa
0  1e-07 1 0

0111000
+96 0 *
Ve
1e-07
-3.45875 8.49647195861388e-16 6.95875
0 0

0101101
*
Ve
1e-07
3.45875 4.26086473233073e-16 6.95875
0 0

0101101
*
Ed
 1e-07 1 1 0
1  5 0 3.14159265358979 6.28318530717959
2  8 2 0 3.14159265358979 6.28318530717959
2  9 5 0 3.14159265358979 6.28318530717959
4 C0 2 0 5 0
0

0101000
+94 0 -93 0 *
Ed
 1e-07 1 1 0
1  6 0 -3.20875 3.20875
2  10 2 0 -3.20875 3.20875
2  11 6 0 -3.20875 3.20875
4 CN 2 0 6 0
0

0101000
+94 0 -104 0 *
Ed
 1e-07 1 1 0
1  7 0 -3.20875 3.20875
2  12 2 0 -3.20875 3.20875
2  13 6 0 -3.20875 3.20875
4 CN 2 0 6 0
0

0101000
+103 0 -93 0 *
Wi

0101100
-92 0 +91 0 +102 0 +90 0 *
Fa
0  1e-07 2 0

0111000
+89 0 *
Ve
1e-07
-4 9.49069924212342e-16 7.5
0 0

0101101
*
Ve
1e-07
4 4.59227382683391e-16 7.5
0 0

0101101
*
Ed
 1e-07 1 1 0
1  8 0 3.14159265358979 6.28318530717959
2  14 5 0 3.14159265358979 6.28318530717959
4 C0 5 0 7 0
0

0101000
+87 0 -86 0 *
Ed
 1e-07 1 1 0
1  9 0 -0.382721545317219 0.382721545317219
2  15 5 0 -0.382721545317219 0.382721545317219
2  16 8 0 -0.382721545317219 0.382721545317219
4 CN 5 0 8 0
0

0101000
+87 0 -94 0 *
Ed
 1e-07 1 1 0
1  10 0 -0.382721545317219 0.382721545317219
2  17 5 0 -0.382721545317219 0.382721545317219
2  18 8 0 -0.382721545317219 0.382721545317219
4 CN 5 0 8 0
0

0101000
+93 0 -86 0 *
Wi

0101100
-85 0 +84 0 +92 0 +83 0 *
Fa
0  1e-07 5 0

0111000
+82 0 *
Ve
1e-07
7.50555 4.17479438803083e-16 6.81818181818182
0 0

0101101
*
Ve
1e-07
5.81799078176162 4.59227382683391e-16 7.5
0 0

0101101
*
Ed
 1e-07 1 1 0
1  11 0 -0.910045623597958 0.910045623597958
2  19 9 0 -0.910045623597958 0.910045623597958
2  20 10 0 -0.910045623597958 0.910045623597958
4 CN 9 0 10 0
0

0101000
+80 0 -79 0 *
Ve
1e-07
3.752775 6.49999696937429 6.81818181818182
0 0

0101101
*
Ed
 1e-07 1 1 0
1  12 0 0 7.54940404207844
2  21 9 0 0 7.54940404207844
4 C0 9 0 11 0
0

0101000
+80 0 -77 0 *
Ve
1e-07
-3.752775 6.4999969693743 6.81818181818182
0 0

0101101
*
Ed
 1e-07 1 1 0
1  13 0 0 7.54940404207845
2  22 9 0 0 7.54940404207845
4 C0 9 0 12 0
0

0101000
+77 0 -75 0 *
Ve
1e-07
-7.50555 1.77635683940025e-15 6.81818181818182
0 0

0101101
*
Ed
 1e-07 1 1 0
1  14 0 0 7.54940404207844
2  23 9 0 0 7.54940404207844
4 C0 9 0 13 0
0

0101000
+75 0 -73 0 *
Ve
1e-07
-5.81799078176162 1.17170223046592e-15 7.5
0 0

0101101
*
Ed
 1e-07 1 1 0
1  15 0 -0.910045623597958 0.910045623597958
2  24 9 0 -0.910045623597958 0.910045623597958
2  25 10 0 -0.910045623597958 0.910045623597958
4 CN 9 0 10 0
0

0101000
+71 0 -73 0 *
Ed
 1e-07 1 1 0
1  16 0 3.14159265358979 6.28318530717959
2  26 9 0 3.14159265358979 6.28318530717959
4 C0 9 0 7 0
0

0101000
+71 0 -79 0 *
Wi

0101100
-78 0 +76 0 +74 0 +72 0 -70 0 +69 0 *
Fa
0  1e-07 9 0

0111000
+68 0 *
Ve
1e-07
5.81799078176162 0 0
0 0

0101101
*
Ve
1e-07
7.50555 4.17479438803083e-17 0.681818181818182
0 0

0101101
*
Ed
 1e-07 1 1 0
1  17 0 -0.910045623597958 0.910045623597958
2  27 14 0 -0.910045623597958 0.910045623597958
2  28 15 0 -0.910045623597958 0.910045623597958
4 CN 14 0 15 0
0

0101000
+66 0 -65 0 *
Ve
1e-07
-5.81799078176162 7.1247484778253e-16 0
0 0

0101101
*
Ed
 1e-07 1 1 0
1  18 0 0 3.14159265358979
2  29 14 0 0 3.14159265358979
4 C0 14 0 4 0
0

0101000
+66 0 -63 0 *
Ve
1e-07
-7.50555 1.33226762955019e-15 0.681818181818182
0 0

0101101
*
Ed
 1e-07 1 1 0
1  19 0 -0.910045623597958 0.910045623597958
2  30 14 0 -0.910045623597958 0.910045623597958
2  31 15 0 -0.910045623597958 0.910045623597958
4 CN 14 0 15 0
0

0101000
+61 0 -63 0 *
Ve
1e-07
-3.752775 6.4999969693743 0.681818181818181
0 0

0101101
*
Ed
 1e-07 1 1 0
1  20 0 0 7.54940404207844
2  32 14 0 0 7.54940404207844
4 C0 14 0 13 0
0

0101000
+61 0 -59 0 *
Ve
1e-07
3.752775 6.49999696937429 0.681818181818181
0 0

0101101
*
Ed
 1e-07 1 1 0
1  21 0 0 7.54940404207844
2  33 14 0 0 7.54940404207844
4 C0 14 0 12 0
0

0101000
+59 0 -57 0 *
Ed
 1e-07 1 1 0
1  22 0 0 7.54940404207844
2  34 14 0 0 7.54940404207844
4 C0 14 0 11 0
0

0101000
+57 0 -65 0 *
Wi

0101100
-64 0 +62 0 -60 0 +58 0 +56 0 +55 0 *
Fa
0  1e-07 14 0

0111000
+54 0 *
Ve
1e-07
3.752775 -6.49999696937429 0.681818181818182
0 0

0101101
*
Ed
 1e-07 1 1 0
1  23 0 0 7.54940404207844
2  35 15 0 0 7.54940404207844
4 C0 15 0 16 0
0

0101000
+65 0 -52 0 *
Ve
1e-07
-3.752775 -6.49999696937429 0.681818181818182
0 0

0101101
*
Ed
 1e-07 1 1 0
1  24 0 0 7.54940404207844
2  36 15 0 0 7.54940404207844
4 C0 15 0 17 0
0

0101000
+52 0 -50 0 *
Ed
 1e-07 1 1 0
1  25 0 0 7.54940404207843
2  37 15 0 0 7.54940404207843
4 C0 15 0 18 0
0

0101000
+50 0 -61 0 *
Ed
 1e-07 1 1 0
1  26 0 3.14159265358979 6.28318530717959
2  38 15 0 3.14159265358979 6.28318530717959
4 C0 15 0 4 0
0

0101000
+63 0 -66 0 *
Wi

0101100
+64 0 +51 0 +49 0 +48 0 +60 0 +47 0 *
Fa
0  1e-07 15 0

0111000
+46 0 *
Ed
 1e-07 1 1 0
1  27 0 0 3.14159265358979
2  39 10 0 0 3.14159265358979
4 C0 10 0 7 0
0

0101000
+79 0 -71 0 *
Ve
1e-07
-3.752775 -6.49999696937429 6.81818181818182
0 0

0101101
*
Ed
 1e-07 1 1 0
1  28 0 0 7.54940404207843
2  40 10 0 0 7.54940404207843
4 C0 10 0 18 0
0

0101000
+73 0 -43 0 *
Ve
1e-07
3.752775 -6.49999696937429 6.81818181818182
0 0

0101101
*
Ed
 1e-07 1 1 0
1  29 0 0 7.54940404207843
2  41 10 0 0 7.54940404207843
4 C0 10 0 17 0
0

0101000
+43 0 -41 0 *
Ed
 1e-07 1 1 0
1  30 0 0 7.54940404207844
2  42 10 0 0 7.54940404207844
4 C0 10 0 16 0
0

0101000
+41 0 -80 0 *
Wi

0101100
+78 0 +44 0 +70 0 +42 0 +40 0 +39 0 *
Fa
0  1e-07 10 0

0111000
+38 0 *
Ed
 1e-07 1 1 0
1  31 0 0 3.14159265358979
2  43 8 0 0 3.14159265358979
2  44 6 0 0 3.14159265358979
4 C0 8 0 6 0
0

0101000
+93 0 -94 0 *
Ed
 1e-07 1 1 0
1  32 0 0 3.14159265358979
2  45 8 0 0 3.14159265358979
4 C0 8 0 7 0
0

0101000
+86 0 -87 0 *
Wi

0101100
+36 0 -84 0 -35 0 -83 0 *
Fa
0  1e-07 8 0

0111000
+34 0 *
Ed
 1e-07 1 1 0
1  33 0 0 3.14159265358979
2  46 6 0 0 3.14159265358979
2  47 3 0 0 3.14159265358979
4 C0 6 0 3 0
0

0101000
+103 0 -104 0 *
Wi

0101100
+32 0 -91 0 -36 0 -90 0 *
Fa
0  1e-07 6 0

0111000
+31 0 *
Ed
 1e-07 1 1 0
1  34 0 3.14159265358979 6.28318530717959
2  48 3 0 3.14159265358979 6.28318530717959
4 C0 3 0 4 0
0

0101000
+101 0 -99 0 *
Wi

0101100
-29 0 -100 0 -32 0 -97 0 *
Fa
0  1e-07 3 0

0111000
+28 0 *
Ed
 1e-07 1 1 0
1  35 0 0.681818181818181 6.81818181818182
4 C0 13 0 12 0
0

0101000
+59 0 -75 0 *
Ed
 1e-07 1 1 0
1  36 0 0.681818181818182 6.81818181818182
4 C0 13 0 18 0
0

0101000
+61 0 -73 0 *
Wi

0101100
-72 0 -26 0 -58 0 +25 0 *
Fa
0  1e-07 13 0

0111000
+24 0 *
Ed
 1e-07 1 1 0
1  37 0 0.681818181818181 6.81818181818182
4 C0 12 0 11 0
0

0101000
+57 0 -77 0 *
Wi

0101100
-74 0 -22 0 -56 0 +26 0 *
Fa
0  1e-07 12 0

0111000
+21 0 *
Ed
 1e-07 1 1 0
1  38 0 0.681818181818182 6.81818181818182
4 C0 11 0 16 0
0

0101000
+65 0 -80 0 *
Wi

0101100
-76 0 -19 0 -55 0 +22 0 *
Fa
0  1e-07 11 0

0111000
+18 0 *
Ed
 1e-07 1 1 0
1  39 0 0.681818181818182 6.81818181818182
4 C0 16 0 17 0
0

0101000
+52 0 -41 0 *
Wi

0101100
-39 0 -16 0 -51 0 +19 0 *
Fa
0  1e-07 16 0

0111000
+15 0 *
Wi

0101100
-35 0 -85 0 *
Wi

0101100
-44 0 -69 0 *
Fa
0  1e-07 7 0

0111000
+13 0 +12 0 *
Wi

0101100
-98 0 -29 0 *
Wi

0101100
-62 0 -47 0 *
Fa
0  1e-07 4 0

0111000
-10 0 -9 0 *
Ed
 1e-07 1 1 0
1  40 0 0.681818181818182 6.81818181818182
4 C0 17 0 18 0
0

0101000
+50 0 -43 0 *
Wi

0101100
-40 0 -7 0 -49 0 +16 0 *
Fa
0  1e-07 17 0

0111000
+6 0 *
Wi

0101100
-42 0 -25 0 -48 0 +7 0 *
Fa
0  1e-07 18 0

0111000
+4 0 *
Sh

0101100
-95 0 -88 0 -81 0 +67 0 +53 0 +45 0 +37 0 -33 0 -30 0 -27 0 
+23 0 +20 0 +17 0 +14 0 +11 0 -8 0 +5 0 +3 0 *
So

0100000
+2 0 *

+1 0 