DBRep_DrawableShape

CASCADE Topology V1, (c) Matra-Datavision
Locations 0
Curve2ds 48
1 6.2831853071795862 0 0 -1 
1 0 0 0 -1 
7 0 0  3 25 23  6.2831853071795862 0.37384634363911462  6.2680340456277852 0.3551900688289224  6.2375460180780218 0.32007760733917423  6.1912992310482693 0.2736246604573444  6.1445783066133606 0.23297883779283271  6.0974279107402145 0.19781587554741834  6.0498951347942089 0.16785742972745832  6.0020296464011205 0.14287379370676659  5.9538833126046864 0.12267707591602128  5.9055099180821431 0.10711818548283614  5.8569648164595698 0.096083868990641266  5.8083045642776767 0.08949466919361973  5.7595865315812871 0.087303472972066781  5.7108684988848966 0.089494669193620105  5.6622082467030035 0.096083868990641197  5.6136631450804337 0.10711818548283752  5.5652897505578869 0.12267707591602174  5.5171434167614555 0.14287379370676731  5.4692779283683643 0.1678574297274599  5.4217451524223605 0.19781587554741878  5.3745947565492127 0.23297883779283363  5.3278738321143075 0.27362466045734612  5.2816270450845515 0.32007760733917601  5.2511390175347881 0.3551900688289244  5.2359877559829879 0.37384634363911684 
 0 4 0.084977173678394094 1 0.16995434735678819 1 0.2549315210351823 1 0.33990869471357638 1 0.42488586839197046 1 0.50986304207036459 1 0.59484021574875867 1 0.67981738942715275 1 0.76479456310554683 1 0.84977173678394091 1 0.93474891046233499 1 1.0197260841407292 1 1.1047032578191232 1 1.1896804314975173 1 1.2746576051759113 1 1.3596347788543055 1 1.4446119525326997 1 1.5295891262110937 1 1.6145662998894879 1 1.6995434735678818 1 1.784520647246276 1 1.86949782092467 4
7 0 0  3 25 23  5.2359877559829888 0.3738463436391174  5.2208364944311878 0.35519006882892507  5.1903484668814253 0.32007760733917678  5.1441016798516701 0.27362466045734718  5.0973807554167632 0.23297883779283449  5.0502303595436162 0.19781587554742028  5.0026975835976115 0.16785742972746057  4.9548320952045222 0.14287379370676864  4.9066857614080899 0.12267707591602243  4.8583123668855439 0.10711818548283887  4.8097672652629715 0.096083868990642252  4.7611070130810811 0.089494669193621382  4.7123889803846897 0.087303472972068655  4.6636709476882983 0.089494669193621479  4.6150106955064079 0.096083868990643251  4.5664655938838354 0.1071181854828385  4.5180921993612895 0.12267707591602288  4.4699458655648581 0.14287379370676884  4.4220803771717661 0.16785742972746082  4.3745476012257623 0.19781587554741933  4.3273972053526171 0.23297883779283515  4.2806762809177075 0.2736246604573464  4.234429493887955 0.32007760733917667  4.2039414663381915 0.35519006882892495  4.1887902047863905 0.37384634363911717 
 0 4 0.084977173678394094 1 0.16995434735678819 1 0.2549315210351823 1 0.33990869471357638 1 0.42488586839197046 1 0.50986304207036459 1 0.59484021574875867 1 0.67981738942715275 1 0.76479456310554683 1 0.84977173678394091 1 0.93474891046233499 1 1.0197260841407292 1 1.1047032578191232 1 1.1896804314975173 1 1.2746576051759113 1 1.3596347788543055 1 1.4446119525326997 1 1.5295891262110937 1 1.6145662998894879 1 1.6995434735678818 1 1.784520647246276 1 1.86949782092467 4
7 0 0  3 25 23  4.1887902047863914 0.3738463436391164  4.1736389432345913 0.35519006882892429  4.143150915684827 0.32007760733917612  4.0969041286550727 0.27362466045734618  4.0501832042201658 0.23297883779283352  4.0030328083470206 0.1978158755474195  3.9555000324010146 0.16785742972745976  3.9076345440079256 0.14287379370676798  3.8594882102114916 0.12267707591602116  3.8111148156889487 0.10711818548283757  3.7625697140663736 0.096083868990641669  3.7139094618844841 0.089494669193620327  3.6651914291880927 0.087303472972067545  3.6164733964917022 0.089494669193619827  3.5678131443098096 0.096083868990641391  3.5192680426872376 0.10711818548283694  3.470894648164693 0.12267707591602144  3.4227483143682611 0.14287379370676678  3.3748828259751691 0.1678574297274589  3.3273500500291657 0.19781587554741731  3.2801996541560192 0.23297883779283224  3.2334787297211123 0.27362466045734474  3.1872319426913571 0.32007760733917423  3.1567439151415937 0.35519006882892235  3.1415926535897931 0.37384634363911462 
 0 4 0.084977173678394094 1 0.16995434735678819 1 0.2549315210351823 1 0.33990869471357638 1 0.42488586839197046 1 0.50986304207036459 1 0.59484021574875867 1 0.67981738942715275 1 0.76479456310554683 1 0.84977173678394091 1 0.93474891046233499 1 1.0197260841407292 1 1.1047032578191232 1 1.1896804314975173 1 1.2746576051759113 1 1.3596347788543055 1 1.4446119525326997 1 1.5295891262110937 1 1.6145662998894879 1 1.6995434735678818 1 1.784520647246276 1 1.86949782092467 4
1 3.1415926535897931 -5.5511151231257827e-17 0 1 
1 3.1415926535897931 -5.5511151231257827e-17 0 1 
1 0 -0.37384634363911484 1 0 
1 0 5.5511151231257827e-17 0 1 
1 6.2831853071795862 5.5511151231257827e-17 0 1 
1 0 -0.3738463436391159 1 0 
1 3.1415926535897931 -5.5511151231257827e-17 0 -1 
1 3.1415926535897931 -5.5511151231257827e-17 0 -1 
7 0 0  3 25 23  3.1415926535897931 0.37384634363911362  3.1264413920379912 0.35519006882892135  3.0959533644882313 0.32007760733917318  3.0497065774584726 0.27362466045734374  3.0029856530235683 0.23297883779283135  2.9558352571504223 0.19781587554741772  2.908302481204414 0.16785742972745799  2.86043699281133 0.14287379370676612  2.8122906590148915 0.1226770759160199  2.7639172644923473 0.10711818548283619  2.7153721628697749 0.096083868990640114  2.6667119106878836 0.089494669193619134  2.6179938779914931 0.087303472972066823  2.5692758452951026 0.089494669193619647  2.5206155931132095 0.096083868990640461  2.4720704914906388 0.10711818548283716  2.4236970969680929 0.12267707591602081  2.3755507631716632 0.14287379370676737  2.3276852747785721 0.16785742972745865  2.2801524988325639 0.1978158755474187  2.2330021029594214 0.23297883779283246  2.1862811785245135 0.27362466045734496  2.1400343914947602 0.32007760733917451  2.109546363944995 0.35519006882892273  2.0943951023931948 0.37384634363911512 
 0 4 0.084977173678394094 1 0.16995434735678819 1 0.2549315210351823 1 0.33990869471357638 1 0.42488586839197046 1 0.50986304207036459 1 0.59484021574875867 1 0.67981738942715275 1 0.76479456310554683 1 0.84977173678394091 1 0.93474891046233499 1 1.0197260841407292 1 1.1047032578191232 1 1.1896804314975173 1 1.2746576051759113 1 1.3596347788543055 1 1.4446119525326997 1 1.5295891262110937 1 1.6145662998894879 1 1.6995434735678818 1 1.784520647246276 1 1.86949782092467 4
7 0 0  3 25 23  2.0943951023931966 0.37384634363911606  2.0792438408413947 0.35519006882892368  2.0487558132916313 0.32007760733917545  2.0025090262618743 0.27362466045734601  1.9557881018269718 0.23297883779283354  1.908637705953824 0.19781587554741903  1.8611049300078175 0.16785742972745957  1.8132394416147299 0.14287379370676792  1.7650931078182968 0.12267707591602159  1.7167197132957499 0.10711818548283801  1.6681746116731775 0.096083868990641627  1.6195143594912871 0.089494669193620549  1.5707963267948983 0.087303472972067642  1.5220782940985043 0.089494669193620729  1.4734180419166139 0.096083868990642113  1.4248729402940423 0.10711818548283761  1.3764995457714955 0.12267707591602191  1.3283532119750667 0.14287379370676825  1.2804877235819738 0.16785742972745979  1.2329549476359674 0.19781587554741897  1.1858045517628231 0.23297883779283368  1.1390836273279143 0.27362466045734557  1.0928368402981645 0.32007760733917545  1.0623488127483993 0.3551900688289239  1.0471975511965974 0.37384634363911629 
 0 4 0.084977173678394094 1 0.16995434735678819 1 0.2549315210351823 1 0.33990869471357638 1 0.42488586839197046 1 0.50986304207036459 1 0.59484021574875867 1 0.67981738942715275 1 0.76479456310554683 1 0.84977173678394091 1 0.93474891046233499 1 1.0197260841407292 1 1.1047032578191232 1 1.1896804314975173 1 1.2746576051759113 1 1.3596347788543055 1 1.4446119525326997 1 1.5295891262110937 1 1.6145662998894879 1 1.6995434735678818 1 1.784520647246276 1 1.86949782092467 4
7 0 0  3 25 23  1.0471975511965983 0.37384634363911567  1.0320462896447973 0.35519006882892318  1.0015582620950347 0.3200776073391749  0.95531147506527958 0.27362466045734513  0.90859055063037264 0.23297883779283318  0.86144015475722746 0.1978158755474182  0.81390737881122011 0.1678574297274586  0.76604189041813164 0.14287379370676664  0.71789555662169846 0.1226770759160206  0.66952216209915338 0.10711818548283628  0.62097706047658097 0.09608386899064035  0.57231680829468878 0.089494669193619369  0.52359877559830093 0.087303472972065727  0.47488074290190596 0.089494669193619203  0.42622049072001644 0.09608386899063974  0.37767538909744314 0.1071181854828358  0.32930199457489806 0.12267707591602003  0.28115566077846665 0.14287379370676606  0.23329017238537642 0.16785742972745762  0.18575739643936995 0.19781587554741703  0.13860700056622655 0.23297883779283096  0.091886076131316941 0.27362466045734368  0.045639289101561786 0.32007760733917323  0.015151261551801021 0.3551900688289214  0 0.37384634363911362 
 0 4 0.084977173678394094 1 0.16995434735678819 1 0.2549315210351823 1 0.33990869471357638 1 0.42488586839197046 1 0.50986304207036459 1 0.59484021574875867 1 0.67981738942715275 1 0.76479456310554683 1 0.84977173678394091 1 0.93474891046233499 1 1.0197260841407292 1 1.1047032578191232 1 1.1896804314975173 1 1.2746576051759113 1 1.3596347788543055 1 1.4446119525326997 1 1.5295891262110937 1 1.6145662998894879 1 1.6995434735678818 1 1.784520647246276 1 1.86949782092467 4
1 0 -0.10937179161960982 1 0 
1 0 0.54062820838039005 1 0 
1 3.1415926535897931 -2.7755575615628914e-17 0 1 
1 3.1415926535897931 -2.7755575615628914e-17 0 1 
1 6.2831853071795862 0.10937179161960982 -1 0 
1 0 2.7755575615628914e-17 0 -1 
1 6.2831853071795862 2.7755575615628914e-17 0 -1 
1 0 -0.54062820838039005 1 0 
1 6.2831853071795862 -0.10937179161961226 -1 0 
1 3.1415926535897931 0 0 1 
1 3.1415926535897931 0 0 1 
1 0 0 0 -1 
1 6.2831853071795862 0 0 -1 
1 6.2831853071795862 0.10937179161960736 -1 0 
1 3.1415926535897931 5.5511151231257827e-17 0 -1 
1 3.1415926535897931 5.5511151231257827e-17 0 -1 
1 6.2831853071795862 -1.3877787807814457e-17 0 1 
1 0 -1.3877787807814457e-17 0 1 
1 6.2831853071795862 -0.10937179161961226 -1 0 
1 0 -0.54062820838039005 1 0 
1 6.2831853071795862 0.10937179161960736 -1 0 
1 0 0.54062820838039005 1 0 
1 0 -0.10937179161960982 1 0 
1 6.2831853071795862 0.10937179161960982 -1 0 
7 0 0  3 25 23  6.2831853071795862 0.37384634363911362  6.2680340456277852 0.35519006882892157  6.2375460180780209 0.32007760733917345  6.1912992310482675 0.27362466045734357  6.1445783066133606 0.23297883779283213  6.0974279107402136 0.19781587554741728  6.0498951347942089 0.16785742972745782  6.0020296464011214 0.14287379370676609  5.9538833126046846 0.12267707591602026  5.9055099180821422 0.10711818548283594  5.8569648164595698 0.096083868990640794  5.8083045642776767 0.089494669193619036  5.7595865315812871 0.087303472972066531  5.7108684988848957 0.089494669193619703  5.6622082467030044 0.096083868990640531  5.6136631450804311 0.10711818548283683  5.5652897505578869 0.12267707591602092  5.5171434167614555 0.14287379370676723  5.4692779283683643 0.1678574297274591  5.4217451524223605 0.19781587554741822  5.3745947565492127 0.2329788377928326  5.3278738321143075 0.27362466045734557  5.2816270450845515 0.32007760733917495  5.2511390175347881 0.35519006882892323  5.2359877559829879 0.37384634363911579 
 0 4 0.084977173678394094 1 0.16995434735678819 1 0.2549315210351823 1 0.33990869471357638 1 0.42488586839197046 1 0.50986304207036459 1 0.59484021574875867 1 0.67981738942715275 1 0.76479456310554683 1 0.84977173678394091 1 0.93474891046233499 1 1.0197260841407292 1 1.1047032578191232 1 1.1896804314975173 1 1.2746576051759113 1 1.3596347788543055 1 1.4446119525326997 1 1.5295891262110937 1 1.6145662998894879 1 1.6995434735678818 1 1.784520647246276 1 1.86949782092467 4
7 0 0  3 25 23  5.2359877559829888 0.3738463436391164  5.2208364944311878 0.35519006882892407  5.1903484668814253 0.32007760733917578  5.1441016798516701 0.27362466045734601  5.0973807554167632 0.23297883779283368  5.0502303595436162 0.19781587554741922  5.0026975835976115 0.16785742972745976  4.9548320952045222 0.14287379370676789  4.9066857614080899 0.12267707591602155  4.8583123668855439 0.10711818548283811  4.8097672652629715 0.096083868990641294  4.7611070130810811 0.089494669193620646  4.7123889803846897 0.0873034729720676  4.6636709476882983 0.089494669193620771  4.6150106955064079 0.096083868990642002  4.5664655938838346 0.10711818548283797  4.5180921993612895 0.12267707591602184  4.4699458655648581 0.1428737937067682  4.4220803771717661 0.16785742972746015  4.3745476012257623 0.19781587554741875  4.3273972053526171 0.23297883779283421  4.2806762809177075 0.27362466045734557  4.234429493887955 0.32007760733917567  4.2039414663381915 0.35519006882892395  4.1887902047863905 0.37384634363911617 
 0 4 0.084977173678394094 1 0.16995434735678819 1 0.2549315210351823 1 0.33990869471357638 1 0.42488586839197046 1 0.50986304207036459 1 0.59484021574875867 1 0.67981738942715275 1 0.76479456310554683 1 0.84977173678394091 1 0.93474891046233499 1 1.0197260841407292 1 1.1047032578191232 1 1.1896804314975173 1 1.2746576051759113 1 1.3596347788543055 1 1.4446119525326997 1 1.5295891262110937 1 1.6145662998894879 1 1.6995434735678818 1 1.784520647246276 1 1.86949782092467 4
7 0 0  3 25 23  4.1887902047863905 0.37384634363911567  4.1736389432345895 0.35519006882892357  4.143150915684827 0.3200776073391754  4.0969041286550727 0.27362466045734529  4.0501832042201658 0.2329788377928331  4.003032808347017 0.19781587554741878  3.9555000324010146 0.16785742972745918  3.9076345440079256 0.14287379370676723  3.8594882102114907 0.12267707591602114  3.8111148156889474 0.10711818548283687  3.7625697140663736 0.096083868990640572  3.7139094618844828 0.089494669193619536  3.6651914291880927 0.087303472972066434  3.6164733964917022 0.089494669193619009  3.5678131443098091 0.096083868990640392  3.5192680426872376 0.10711818548283618  3.4708946481646938 0.12267707591602012  3.4227483143682593 0.14287379370676648  3.3748828259751695 0.16785742972745821  3.3273500500291644 0.19781587554741678  3.2801996541560192 0.23297883779283141  3.2334787297211109 0.27362466045734357  3.1872319426913571 0.32007760733917323  3.1567439151415941 0.3551900688289214  3.1415926535897931 0.37384634363911362 
 0 4 0.084977173678394094 1 0.16995434735678819 1 0.2549315210351823 1 0.33990869471357638 1 0.42488586839197046 1 0.50986304207036459 1 0.59484021574875867 1 0.67981738942715275 1 0.76479456310554683 1 0.84977173678394091 1 0.93474891046233499 1 1.0197260841407292 1 1.1047032578191232 1 1.1896804314975173 1 1.2746576051759113 1 1.3596347788543055 1 1.4446119525326997 1 1.5295891262110937 1 1.6145662998894879 1 1.6995434735678818 1 1.784520647246276 1 1.86949782092467 4
1 0 -0.3738463436391159 1 0 
1 0 -0.37384634363911484 1 0 
7 0 0  3 25 23  3.1415926535897931 0.37384634363911462  3.1264413920379925 0.35519006882892229  3.0959533644882291 0.32007760733917423  3.049706577458474 0.27362466045734463  3.0029856530235688 0.23297883779283265  2.9558352571504205 0.19781587554741825  2.9083024812044163 0.1678574297274586  2.8604369928113274 0.14287379370676681  2.8122906590148928 0.12267707591602103  2.7639172644923491 0.10711818548283672  2.7153721628697758 0.096083868990641377  2.666711910687884 0.089494669193619758  2.6179938779914949 0.087303472972067406  2.569275845295103 0.08949466919362066  2.5206155931132113 0.096083868990641488  2.4720704914906393 0.10711818548283779  2.4236970969680947 0.12267707591602231  2.3755507631716615 0.14287379370676806  2.3276852747785717 0.16785742972746051  2.2801524988325674 0.19781587554741856  2.2330021029594209 0.23297883779283463  2.1862811785245144 0.27362466045734646  2.1400343914947597 0.32007760733917628  2.1095463639449963 0.35519006882892462  2.0943951023931957 0.37384634363911706 
 0 4 0.084977173678394094 1 0.16995434735678819 1 0.2549315210351823 1 0.33990869471357638 1 0.42488586839197046 1 0.50986304207036459 1 0.59484021574875867 1 0.67981738942715275 1 0.76479456310554683 1 0.84977173678394091 1 0.93474891046233499 1 1.0197260841407292 1 1.1047032578191232 1 1.1896804314975173 1 1.2746576051759113 1 1.3596347788543055 1 1.4446119525326997 1 1.5295891262110937 1 1.6145662998894879 1 1.6995434735678818 1 1.784520647246276 1 1.86949782092467 4
7 0 0  3 25 23  2.0943951023931957 0.37384634363911706  2.0792438408413956 0.35519006882892468  2.0487558132916317 0.32007760733917645  2.0025090262618761 0.27362466045734707  1.9557881018269712 0.23297883779283465  1.9086377059538233 0.19781587554742008  1.8611049300078195 0.16785742972746048  1.8132394416147299 0.14287379370676856  1.7650931078182956 0.12267707591602237  1.7167197132957519 0.10711818548283866  1.6681746116731788 0.096083868990642488  1.6195143594912873 0.089494669193621201  1.5707963267948968 0.087303472972068544  1.5220782940985058 0.089494669193621465  1.4734180419166141 0.096083868990642793  1.4248729402940419 0.10711818548283844  1.3764995457714972 0.12267707591602287  1.3283532119750638 0.14287379370676839  1.2804877235819732 0.16785742972746082  1.2329549476359702 0.197815875547419  1.1858045517628228 0.23297883779283479  1.1390836273279166 0.2736246604573464  1.0928368402981612 0.32007760733917651  1.0623488127483978 0.3551900688289249  1.0471975511965974 0.37384634363911728 
 0 4 0.084977173678394094 1 0.16995434735678819 1 0.2549315210351823 1 0.33990869471357638 1 0.42488586839197046 1 0.50986304207036459 1 0.59484021574875867 1 0.67981738942715275 1 0.76479456310554683 1 0.84977173678394091 1 0.93474891046233499 1 1.0197260841407292 1 1.1047032578191232 1 1.1896804314975173 1 1.2746576051759113 1 1.3596347788543055 1 1.4446119525326997 1 1.5295891262110937 1 1.6145662998894879 1 1.6995434735678818 1 1.784520647246276 1 1.86949782092467 4
7 0 0  3 25 23  1.0471975511965979 0.37384634363911673  1.0320462896447975 0.35519006882892429  1.0015582620950343 0.3200776073391759  0.95531147506527836 0.27362466045734624  0.90859055063037308 0.23297883779283374  0.86144015475722535 0.19781587554742008  0.81390737881122244 0.16785742972745932  0.76604189041813209 0.14287379370676789  0.71789555662169835 0.12267707591602166  0.66952216209915427 0.10711818548283775  0.62097706047658197 0.096083868990641308  0.57231680829468967 0.089494669193620119  0.5235987755982997 0.087303472972067225  0.47488074290190835 0.089494669193619855  0.42622049072001722 0.096083868990641322  0.37767538909744452 0.10711818548283701  0.32930199457490017 0.1226770759160211  0.28115566077846676 0.1428737937067667  0.23329017238537589 0.1678574297274591  0.18575739643937336 0.19781587554741756  0.13860700056622535 0.23297883779283221  0.091886076131320049 0.27362466045734474  0.045639289101563958 0.32007760733917423  0.015151261551800644 0.35519006882892235  0 0.37384634363911462 
 0 4 0.084977173678394094 1 0.16995434735678819 1 0.2549315210351823 1 0.33990869471357638 1 0.42488586839197046 1 0.50986304207036459 1 0.59484021574875867 1 0.67981738942715275 1 0.76479456310554683 1 0.84977173678394091 1 0.93474891046233499 1 1.0197260841407292 1 1.1047032578191232 1 1.1896804314975173 1 1.2746576051759113 1 1.3596347788543055 1 1.4446119525326997 1 1.5295891262110937 1 1.6145662998894879 1 1.6995434735678818 1 1.784520647246276 1 1.86949782092467 4
Curves 40
1 1.5237604307034001 2.5475471831836202e-16 0.186923171819558 -0.86602540378443882 -7.5438862359041891e-17 -0.49999999999999989 
7 1 0  2 3 2  1.8475208614067999 9.9899075676993798e-16 0.37384634363911601  1 1.3856406460551001 -0.79999999999999905 0.107179676972449  1.1547005383792499 0.92376043070340097 -1.6000000000000001 0.37384634363911601  1
 0 3 1.86949782092467 3
7 1 0  2 3 2  0.92376043070340197 -1.6000000000000001 0.37384634363911601  1 0 -1.6000000000000001 0.107179676972449  1.1547005383792499 -0.92376043070340197 -1.6000000000000001 0.37384634363911601  1
 0 3 1.86949782092467 3
7 1 0  2 3 2  -0.92376043070339997 -1.6000000000000001 0.37384634363911601  1 -1.3856406460551001 -0.80000000000000104 0.107179676972449  1.1547005383792499 -1.8475208614067999 1.91320407489793e-16 0.37384634363911601  1
 0 3 1.86949782092467 3
1 -1.5237604307034001 -1.1844662271013901e-16 0.186923171819558 -0.86602540378443882 -1.3666918005016099e-16 0.49999999999999989 
2 0 7.9599412998454505e-17 0 0 -6.12303176911189e-17 1 1 0 0 -0 1 6.12303176911189e-17 1.2
1 1.5237604307034001 1.98046035708594e-16 1.11307682818044 0.86602540378443882 1.3666918005016099e-16 -0.49999999999999989 
2 0 0 1.3 0 6.12303176911189e-17 -1 1 0 0 0 -1 -6.12303176911189e-17 1.2
1 -1.5237604307034001 -1.75155305319908e-16 1.11307682818044 0.86602540378443882 7.5438862359041891e-17 0.49999999999999989 
7 1 0  2 3 2  -1.8475208614067999 1.5750245526871001e-16 0.92615365636088398  1 -1.3856406460551001 -0.80000000000000104 1.19282032302755  1.1547005383792499 -0.92376043070339997 -1.6000000000000001 0.92615365636088398  1
 0 3 1.86949782092467 3
7 1 0  2 3 2  -0.92376043070340197 -1.6000000000000001 0.92615365636088398  1 0 -1.6000000000000001 1.19282032302755  1.1547005383792499 0.92376043070340197 -1.6000000000000001 0.92615365636088398  1
 0 3 1.86949782092467 3
7 1 0  2 3 2  0.92376043070340097 -1.6000000000000001 0.92615365636088398  1 1.3856406460551001 -0.79999999999999905 1.19282032302755  1.1547005383792499 1.8475208614067999 9.6517280454885592e-16 0.92615365636088398  1
 0 3 1.86949782092467 3
2 0 7.2902543451138995e-17 0.10937179161961 0 6.12303176911189e-17 -1 1 0 0 0 -1 -6.12303176911189e-17 0.61056250000000001
1 -0.70528124999999997 -1.01182117733821e-17 0.054685895809804902 -0.86602540378443849 -7.543886235904194e-17 -0.50000000000000033 
2 0 7.9599412998454505e-17 0 0 -6.12303176911189e-17 1 1 0 0 -0 1 6.12303176911189e-17 0.80000000000000004
1 0.70528124999999997 1.6262016822297599e-16 0.054685895809804902 -0.86602540378443849 -1.3666918005016109e-16 0.50000000000000033 
2 0 6.6968695473155501e-18 1.1906282083803901 0 6.12303176911189e-17 -1 1 0 0 0 -1 -6.12303176911189e-17 0.61056250000000001
1 -0.61056250000000001 -3.4970165191340301e-17 0.65000000000000002 -0 6.12303176911189e-17 -1 
1 0.61056250000000001 1.14569578189795e-16 0.65000000000000002 -0 -6.12303176911189e-17 1 
2 0 0 1.3 0 6.12303176911189e-17 -1 1 0 0 0 -1 -6.12303176911189e-17 0.80000000000000004
1 -0.70528124999999997 -8.3020755224521095e-17 1.2453141041902001 0.86602540378443882 1.3666918005016099e-16 -0.49999999999999989 
1 0.70528124999999997 8.9717624771836604e-17 1.2453141041902001 0.86602540378443882 7.5438862359041891e-17 0.49999999999999989 
2 0 6.6968695473155501e-18 1.1906282083803901 0 6.12303176911189e-17 -1 1 0 0 0 -1 -6.12303176911189e-17 0.61056250000000001
2 0 0 1.3 0 6.12303176911189e-17 -1 1 0 0 0 -1 -6.12303176911189e-17 0.80000000000000004
2 0 7.2902543451138995e-17 0.10937179161961 0 6.12303176911189e-17 -1 1 0 0 0 -1 -6.12303176911189e-17 0.61056250000000001
2 0 7.9599412998454505e-17 0 0 -6.12303176911189e-17 1 1 0 0 -0 1 6.12303176911189e-17 0.80000000000000004
7 1 0  2 3 2  1.8475208614067999 5.6133762990878303e-16 0.92615365636088398  1 1.3856406460551001 0.80000000000000004 1.19282032302755  1.1547005383792499 0.92376043070340097 1.6000000000000001 0.92615365636088398  1
 0 3 1.86949782092467 3
7 1 0  2 3 2  0.92376043070340197 1.6000000000000001 0.92615365636088398  1 -3.0044226882622501e-16 1.6000000000000001 1.19282032302755  1.1547005383792499 -0.92376043070340197 1.6000000000000001 0.92615365636088398  1
 0 3 1.86949782092467 3
7 1 0  2 3 2  -0.92376043070340197 1.6000000000000001 0.92615365636088498  1 -1.3856406460551001 0.80000000000000004 1.19282032302755  1.1547005383792499 -1.8475208614067999 -3.80944444251387e-16 0.92615365636088398  1
 0 3 1.86949782092467 3
2 0 0 1.3 0 6.12303176911189e-17 -1 1 0 0 0 -1 -6.12303176911189e-17 1.2
2 0 7.9599412998454505e-17 0 0 -6.12303176911189e-17 1 1 0 0 -0 1 6.12303176911189e-17 1.2
7 1 0  2 3 2  -1.8475208614067999 -3.4712649203030401e-16 0.37384634363911601  1 -1.3856406460551001 0.80000000000000004 0.107179676972449  1.1547005383792499 -0.92376043070340197 1.6000000000000001 0.37384634363911601  1
 0 3 1.86949782092467 3
7 1 0  2 3 2  -0.92376043070340197 1.6000000000000001 0.37384634363911601  1 -3.8857805861880499e-16 1.6000000000000001 0.107179676972449  1.1547005383792499 0.92376043070340197 1.6000000000000001 0.37384634363911601  1
 0 3 1.86949782092467 3
7 1 0  2 3 2  0.92376043070340097 1.6000000000000001 0.37384634363911601  1 1.3856406460551001 0.80000000000000004 0.107179676972449  1.1547005383792499 1.8475208614067999 5.9515558212986498e-16 0.37384634363911601  1
 0 3 1.86949782092467 3
1 -0.92376043070340097 -1.6000000000000001 1.3 0 6.12303176911189e-17 -1 
1 -1.8475208614067999 -3.39376604033806e-16 1.3 0 6.12303176911189e-17 -1 
1 0.92376043070340097 -1.6000000000000001 1.3 0 6.12303176911189e-17 -1 
1 1.8475208614067999 1.1312802546399e-16 1.3 0 6.12303176911189e-17 -1 
1 0.92376043070340097 1.6000000000000001 1.3 0 6.12303176911189e-17 -1 
1 -0.92376043070340197 1.6000000000000001 1.3 0 6.12303176911189e-17 -1 
Polygon3D 0
PolygonOnTriangulations 0
Surfaces 18
3 0 6.8154047804111395e-17 0.186923171819558 -0 -6.12303176911189e-17 1 1 0 0 -0 1 6.12303176911189e-17 1.5237604307034001
1.0471975511966001
3 0 6.8154047804111395e-17 0.186923171819558 -0 -6.12303176911189e-17 1 1 0 0 -0 1 6.12303176911189e-17 1.5237604307034001
1.0471975511966001
1 1.3856406460551001 -0.80000000000000004 1.3 0.86602540378443882 -0.49999999999999989 -3.0615158845559394e-17 -0.49999999999999989 -0.86602540378443882 -5.3027010602300679e-17 2.4651903288156613e-32 6.1230317691118851e-17 -1 
1 3.3306690738754701e-16 -1.6000000000000001 1.3 -0 -1 -6.12303176911189e-17 -1 0 0 0 6.12303176911189e-17 -1 
1 -1.3856406460551001 -0.80000000000000004 1.3 -0.86602540378443849 -0.50000000000000033 -3.0615158845559419e-17 -0.50000000000000033 0.86602540378443849 5.3027010602300741e-17 -7.0874221953450279e-32 6.1230317691118925e-17 -1 
1 -8.8313195140637497e-17 2.4613286669222802e-16 0 0 6.12303176911189e-17 -1 0 1 6.12303176911189e-17 1 -0 0 
3 0 1.14453651943431e-17 1.11307682818044 -0 6.12303176911189e-17 -1 1 0 0 0 -1 -6.12303176911189e-17 1.5237604307034001
1.0471975511966001
3 0 1.14453651943431e-17 1.11307682818044 -0 6.12303176911189e-17 -1 1 0 0 0 -1 -6.12303176911189e-17 1.5237604307034001
1.0471975511966001
1 -8.8313195140637497e-17 1.6653345369377299e-16 1.3 0 6.12303176911189e-17 -1 0 1 6.12303176911189e-17 1 -0 0 
3 0 7.6250978224796701e-17 0.054685895809804902 -0 6.12303176911189e-17 -1 1 0 0 0 -1 -6.12303176911189e-17 0.70528124999999997
1.0471975511966001
2 0 3.9799706499227302e-17 0.65000000000000002 0 6.12303176911189e-17 -1 1 0 0 0 -1 -6.12303176911189e-17 0.61056250000000001
3 0 7.6250978224796701e-17 0.054685895809804902 -0 6.12303176911189e-17 -1 1 0 0 0 -1 -6.12303176911189e-17 0.70528124999999997
1.0471975511966001
3 0 3.3484347736577801e-18 1.2453141041902001 -0 -6.12303176911189e-17 1 1 0 0 -0 1 6.12303176911189e-17 0.70528124999999997
1.0471975511966001
2 0 3.9799706499227302e-17 0.65000000000000002 0 6.12303176911189e-17 -1 1 0 0 0 -1 -6.12303176911189e-17 0.61056250000000001
3 0 3.3484347736577801e-18 1.2453141041902001 -0 -6.12303176911189e-17 1 1 0 0 -0 1 6.12303176911189e-17 0.70528124999999997
1.0471975511966001
1 1.3856406460551001 0.80000000000000004 1.3 0.86602540378443882 0.49999999999999989 3.0615158845559394e-17 0.49999999999999989 -0.86602540378443882 -5.3027010602300679e-17 -2.4651903288156613e-32 6.1230317691118851e-17 -1 
1 -5.5511151231257797e-16 1.6000000000000001 1.3 -2.4037033579794502e-16 1 6.12303176911189e-17 1 2.4037033579794502e-16 1.4717952024429101e-32 -2.7369110631344083e-48 6.12303176911189e-17 -1 
1 -1.3856406460551001 0.80000000000000004 1.3 -0.86602540378443882 0.49999999999999989 3.0615158845559394e-17 0.49999999999999989 0.86602540378443882 5.3027010602300679e-17 2.4651903288156613e-32 6.1230317691118851e-17 -1 
Triangulations 0

TShapes 104
Ve
1e-07
1.8475208614068 5.67086826097683e-17 0.373846343639116
0 0

0101101
*
Ve
1e-07
1.2 7.95994129984545e-17 0
0 0

0101101
*
Ed
 1e-07 1 1 0
1  1 0 -0.373846343639115 0.373846343639115
2  1 1 0 -0.373846343639115 0.373846343639115
2  2 2 0 -0.373846343639115 0.373846343639115
4 CN 1 0 2 0
0

0101000
+104 0 -103 0 *
Ve
1e-07
0.923760430703401 -1.6 0.373846343639116
0 0

0101101
*
Ed
 1e-07 1 1 0
1  2 0 0 1.86949782092467
2  3 1 0 0 1.86949782092467
4 C0 1 0 3 0
0

0101000
+104 0 -101 0 *
Ve
1e-07
-0.9237604307034 -1.6 0.373846343639116
0 0

0101101
*
Ed
 1e-07 1 1 0
1  3 0 0 1.86949782092467
2  4 1 0 0 1.86949782092467
4 C0 1 0 4 0
0

0101000
+101 0 -99 0 *
Ve
1e-07
-1.8475208614068 -1.65335922315263e-16 0.373846343639116
0 0

0101101
*
Ed
 1e-07 1 1 0
1  4 0 0 1.86949782092467
2  5 1 0 0 1.86949782092467
4 C0 1 0 5 0
0

0101000
+99 0 -97 0 *
Ve
1e-07
-1.2 -6.73533494602307e-17 -8.99796433093282e-33
0 0

0101101
*
Ed
 1e-07 1 1 0
1  5 0 -0.373846343639115 0.373846343639115
2  6 1 0 -0.373846343639115 0.373846343639115
2  7 2 0 -0.373846343639115 0.373846343639115
4 CN 1 0 2 0
0

0101000
+95 0 -97 0 *
Ed
 1e-07 1 1 0
1  6 0 3.14159265358979 6.28318530717959
2  8 1 0 3.14159265358979 6.28318530717959
4 C0 1 0 6 0
0

0101000
+95 0 -103 0 *
Wi

0101100
-102 0 +100 0 +98 0 +96 0 -94 0 +93 0 *
Fa
0  1e-07 1 0

0111000
+92 0 *
Ve
1e-07
1.2 0 1.3
0 0

0101101
*
Ve
1e-07
1.8475208614068 2.28907303886862e-17 0.926153656360884
0 0

0101101
*
Ed
 1e-07 1 1 0
1  7 0 -0.373846343639116 0.373846343639114
2  9 7 0 -0.373846343639116 0.373846343639114
2  10 8 0 -0.373846343639116 0.373846343639114
4 CN 7 0 8 0
0

0101000
+90 0 -89 0 *
Ve
1e-07
-1.2 -1.46952762458685e-16 1.3
0 0

0101101
*
Ed
 1e-07 1 1 0
1  8 0 0 3.14159265358979
2  11 7 0 0 3.14159265358979
4 C0 7 0 9 0
0

0101000
+90 0 -87 0 *
Ve
1e-07
-1.8475208614068 -1.99153874536345e-16 0.926153656360884
0 0

0101101
*
Ed
 1e-07 1 1 0
1  9 0 -0.373846343639114 0.373846343639116
2  12 7 0 -0.373846343639114 0.373846343639116
2  13 8 0 -0.373846343639114 0.373846343639116
4 CN 7 0 8 0
0

0101000
+85 0 -87 0 *
Ve
1e-07
-0.9237604307034 -1.6 0.926153656360884
0 0

0101101
*
Ed
 1e-07 1 1 0
1  10 0 0 1.86949782092467
2  14 7 0 0 1.86949782092467
4 C0 7 0 5 0
0

0101000
+85 0 -83 0 *
Ve
1e-07
0.923760430703401 -1.6 0.926153656360884
0 0

0101101
*
Ed
 1e-07 1 1 0
1  11 0 0 1.86949782092467
2  15 7 0 0 1.86949782092467
4 C0 7 0 4 0
0

0101000
+83 0 -81 0 *
Ed
 1e-07 1 1 0
1  12 0 0 1.86949782092467
2  16 7 0 0 1.86949782092467
4 C0 7 0 3 0
0

0101000
+81 0 -89 0 *
Wi

0101100
-88 0 +86 0 -84 0 +82 0 +80 0 +79 0 *
Fa
0  1e-07 7 0

0111000
+78 0 *
Ve
1e-07
0.6105625 7.2902543451139e-17 0.10937179161961
0 0

0101101
*
Ve
1e-07
-0.6105625 -1.86732823942858e-18 0.10937179161961
0 0

0101101
*
Ed
 1e-07 1 1 0
1  13 0 0 3.14159265358979
2  17 10 0 0 3.14159265358979
2  18 11 0 0 3.14159265358979
4 C0 10 0 11 0
0

0101000
+76 0 -75 0 *
Ve
1e-07
-0.8 -1.83690953073356e-17 -5.99864288728855e-33
0 0

0101101
*
Ed
 1e-07 1 1 0
1  14 0 -0.10937179161961 0.10937179161961
2  19 10 0 -0.10937179161961 0.10937179161961
2  20 12 0 -0.10937179161961 0.10937179161961
4 CN 10 0 12 0
0

0101000
+75 0 -73 0 *
Ve
1e-07
0.8 7.95994129984545e-17 0
0 0

0101101
*
Ed
 1e-07 1 1 0
1  15 0 3.14159265358979 6.28318530717959
2  21 10 0 3.14159265358979 6.28318530717959
4 C0 10 0 6 0
0

0101000
+73 0 -71 0 *
Ed
 1e-07 1 1 0
1  16 0 -0.10937179161961 0.10937179161961
2  22 10 0 -0.10937179161961 0.10937179161961
2  23 12 0 -0.10937179161961 0.10937179161961
4 CN 10 0 12 0
0

0101000
+71 0 -76 0 *
Wi

0101100
+74 0 +72 0 +70 0 +69 0 *
Fa
0  1e-07 10 0

0111000
+68 0 *
Ve
1e-07
0.6105625 6.69686954731555e-18 1.19062820838039
0 0

0101101
*
Ve
1e-07
-0.6105625 -6.8073002143252e-17 1.19062820838039
0 0

0101101
*
Ed
 1e-07 1 1 0
1  17 0 0 3.14159265358979
2  24 11 0 0 3.14159265358979
2  25 13 0 0 3.14159265358979
4 C0 11 0 13 0
0

0101000
+66 0 -65 0 *
Ed
 1e-07 1 1 0
1  18 0 -0.54062820838039 0.54062820838039
2  26 11 0 -0.54062820838039 0.54062820838039
2  27 14 0 -0.54062820838039 0.54062820838039
4 CN 11 0 14 0
0

0101000
+65 0 -75 0 *
Ed
 1e-07 1 1 0
1  19 0 -0.54062820838039 0.54062820838039
2  28 11 0 -0.54062820838039 0.54062820838039
2  29 14 0 -0.54062820838039 0.54062820838039
4 CN 11 0 14 0
0

0101000
+76 0 -66 0 *
Wi

0101100
+64 0 +63 0 -74 0 +62 0 *
Fa
0  1e-07 11 0

0111000
+61 0 *
Ve
1e-07
0.8 0 1.3
0 0

0101101
*
Ve
1e-07
-0.8 -9.79685083057902e-17 1.3
0 0

0101101
*
Ed
 1e-07 1 1 0
1  20 0 0 3.14159265358979
2  30 13 0 0 3.14159265358979
4 C0 13 0 9 0
0

0101000
+59 0 -58 0 *
Ed
 1e-07 1 1 0
1  21 0 -0.109371791619607 0.109371791619612
2  31 13 0 -0.109371791619607 0.109371791619612
2  32 15 0 -0.109371791619607 0.109371791619612
4 CN 13 0 15 0
0

0101000
+58 0 -65 0 *
Ed
 1e-07 1 1 0
1  22 0 -0.109371791619612 0.109371791619607
2  33 13 0 -0.109371791619612 0.109371791619607
2  34 15 0 -0.109371791619612 0.109371791619607
4 CN 13 0 15 0
0

0101000
+66 0 -59 0 *
Wi

0101100
+57 0 +56 0 -64 0 +55 0 *
Fa
0  1e-07 13 0

0111000
+54 0 *
Ed
 1e-07 1 1 0
1  23 0 3.14159265358979 6.28318530717959
2  35 15 0 3.14159265358979 6.28318530717959
2  36 14 0 3.14159265358979 6.28318530717959
4 C0 15 0 14 0
0

0101000
+65 0 -66 0 *
Ed
 1e-07 1 1 0
1  24 0 3.14159265358979 6.28318530717959
2  37 15 0 3.14159265358979 6.28318530717959
4 C0 15 0 9 0
0

0101000
+58 0 -59 0 *
Wi

0101100
-52 0 -56 0 +51 0 -55 0 *
Fa
0  1e-07 15 0

0111000
+50 0 *
Ed
 1e-07 1 1 0
1  25 0 3.14159265358979 6.28318530717959
2  38 14 0 3.14159265358979 6.28318530717959
2  39 12 0 3.14159265358979 6.28318530717959
4 C0 14 0 12 0
0

0101000
+75 0 -76 0 *
Wi

0101100
-48 0 -63 0 +52 0 -62 0 *
Fa
0  1e-07 14 0

0111000
+47 0 *
Ed
 1e-07 1 1 0
1  26 0 0 3.14159265358979
2  40 12 0 0 3.14159265358979
4 C0 12 0 6 0
0

0101000
+71 0 -73 0 *
Wi

0101100
+45 0 -72 0 +48 0 -69 0 *
Fa
0  1e-07 12 0

0111000
+44 0 *
Ve
1e-07
0.923760430703401 1.6 0.926153656360884
0 0

0101101
*
Ed
 1e-07 1 1 0
1  27 0 0 1.86949782092467
2  41 8 0 0 1.86949782092467
4 C0 8 0 16 0
0

0101000
+89 0 -42 0 *
Ve
1e-07
-0.923760430703402 1.6 0.926153656360884
0 0

0101101
*
Ed
 1e-07 1 1 0
1  28 0 0 1.86949782092467
2  42 8 0 0 1.86949782092467
4 C0 8 0 17 0
0

0101000
+42 0 -40 0 *
Ed
 1e-07 1 1 0
1  29 0 0 1.86949782092467
2  43 8 0 0 1.86949782092467
4 C0 8 0 18 0
0

0101000
+40 0 -85 0 *
Ed
 1e-07 1 1 0
1  30 0 3.14159265358979 6.28318530717959
2  44 8 0 3.14159265358979 6.28318530717959
4 C0 8 0 9 0
0

0101000
+87 0 -90 0 *
Wi

0101100
+88 0 +41 0 +39 0 +38 0 +84 0 +37 0 *
Fa
0  1e-07 8 0

0111000
+36 0 *
Ed
 1e-07 1 1 0
1  31 0 0 3.14159265358979
2  45 2 0 0 3.14159265358979
4 C0 2 0 6 0
0

0101000
+103 0 -95 0 *
Ve
1e-07
-0.923760430703402 1.6 0.373846343639116
0 0

0101101
*
Ed
 1e-07 1 1 0
1  32 0 0 1.86949782092467
2  46 2 0 0 1.86949782092467
4 C0 2 0 18 0
0

0101000
+97 0 -33 0 *
Ve
1e-07
0.923760430703401 1.6 0.373846343639116
0 0

0101101
*
Ed
 1e-07 1 1 0
1  33 0 0 1.86949782092467
2  47 2 0 0 1.86949782092467
4 C0 2 0 17 0
0

0101000
+33 0 -31 0 *
Ed
 1e-07 1 1 0
1  34 0 0 1.86949782092467
2  48 2 0 0 1.86949782092467
4 C0 2 0 16 0
0

0101000
+31 0 -104 0 *
Wi

0101100
+102 0 +34 0 +94 0 +32 0 +30 0 +29 0 *
Fa
0  1e-07 2 0

0111000
+28 0 *
Ed
 1e-07 1 1 0
1  35 0 0.373846343639116 0.926153656360884
4 C0 5 0 4 0
0

0101000
+83 0 -99 0 *
Ed
 1e-07 1 1 0
1  36 0 0.373846343639116 0.926153656360884
4 C0 5 0 18 0
0

0101000
+85 0 -97 0 *
Wi

0101100
-96 0 -26 0 -82 0 +25 0 *
Fa
0  1e-07 5 0

0111000
+24 0 *
Ed
 1e-07 1 1 0
1  37 0 0.373846343639116 0.926153656360884
4 C0 4 0 3 0
0

0101000
+81 0 -101 0 *
Wi

0101100
-98 0 -22 0 -80 0 +26 0 *
Fa
0  1e-07 4 0

0111000
+21 0 *
Ed
 1e-07 1 1 0
1  38 0 0.373846343639116 0.926153656360884
4 C0 3 0 16 0
0

0101000
+89 0 -104 0 *
Wi

0101100
-100 0 -19 0 -79 0 +22 0 *
Fa
0  1e-07 3 0

0111000
+18 0 *
Ed
 1e-07 1 1 0
1  39 0 0.373846343639116 0.926153656360884
4 C0 16 0 17 0
0

0101000
+42 0 -31 0 *
Wi

0101100
-29 0 -16 0 -41 0 +19 0 *
Fa
0  1e-07 16 0

0111000
+15 0 *
Wi

0101100
+57 0 +51 0 *
Wi

0101100
-86 0 -37 0 *
Fa
0  1e-07 9 0

0111000
-13 0 -12 0 *
Wi

0101100
+45 0 +70 0 *
Wi

0101100
-34 0 -93 0 *
Fa
0  1e-07 6 0

0111000
+10 0 +9 0 *
Ed
 1e-07 1 1 0
1  40 0 0.373846343639116 0.926153656360884
4 C0 17 0 18 0
0

0101000
+40 0 -33 0 *
Wi

0101100
-30 0 -7 0 -39 0 +16 0 *
Fa
0  1e-07 17 0

0111000
+6 0 *
Wi

0101100
-32 0 -25 0 -38 0 +7 0 *
Fa
0  1e-07 18 0

0111000
+4 0 *
Sh

0101100
+91 0 +77 0 -67 0 -60 0 -53 0 -49 0 -46 0 -43 0 +35 0 +27 0 
+23 0 +20 0 +17 0 +14 0 -11 0 +8 0 +5 0 +3 0 *
So

0100000
+2 0 *

+1 0 