DBRep_DrawableShape

CASCADE Topology V1, (c) Matra-Datavision
Locations 0
Curve2ds 48
1 6.2831853071795862 2.2204460492503131e-16 0 -1 
1 0 2.2204460492503131e-16 0 -1 
7 0 0  3 25 23  6.2831853071795862 0.6748082379624637  6.268034045627787 0.62816755093698329  6.2375460180780253 0.54038639721261217  6.1912992310482649 0.42425403000803513  6.1445783066133624 0.32263947334675608  6.0974279107402136 0.23473206773321656  6.0498951347942107 0.15983595318331906  6.0020296464011187 0.097376863131587971  5.9538833126046864 0.046885068654724117  5.9055099180821431 0.0079878425717620424  5.8569648164595707 -0.019597948658727219  5.8083045642776785 -0.036070948151280362  5.759586531581288 -0.041548938705163886  5.7108684988848948 -0.036070948151280091  5.6622082467030062 -0.019597948658728361  5.6136631450804311 0.0079878425717617579  5.5652897505578869 0.046885068654722056  5.5171434167614528 0.09737686313158761  5.4692779283683635 0.15983595318331839  5.4217451524223605 0.23473206773321559  5.3745947565492127 0.32263947334675208  5.3278738321143075 0.42425403000803291  5.2816270450845515 0.54038639721260717  5.2511390175347881 0.62816755093697785  5.2359877559829879 0.67480823796245848 
 0 4 0.21244293419598545 1 0.4248858683919709 1 0.63732880258795632 1 0.8497717367839418 1 1.0622146709799272 1 1.2746576051759126 1 1.4871005393718981 1 1.6995434735678836 1 1.9119864077638691 1 2.1244293419598543 1 2.33687227615584 1 2.5493152103518253 1 2.761758144547811 1 2.9742010787437962 1 3.1866440129397819 1 3.3990869471357672 1 3.6115298813317525 1 3.8239728155277382 1 4.0364157497237239 1 4.2488586839197087 1 4.4613016181156944 1 4.6737445523116801 4
7 0 0  3 25 23  5.2359877559829897 0.67480823796246303  5.2208364944311896 0.62816755093698107  5.190348466881427 0.54038639721260995  5.1441016798516683 0.42425403000803719  5.0973807554167685 0.32263947334675536  5.0502303595436153 0.23473206773321767  5.0026975835976142 0.15983595318332072  4.9548320952045213 0.097376863131589941  4.906685761408089 0.046885068654724395  4.8583123668855466 0.0079878425717640703  4.8097672652629706 -0.019597948658726053  4.7611070130810829 -0.03607094815127751  4.7123889803846888 -0.041548938705162283  4.6636709476882983 -0.03607094815127751  4.6150106955064079 -0.019597948658726091  4.5664655938838337 0.007987842571764112  4.5180921993612904 0.046885068654724388  4.4699458655648545 0.097376863131589927  4.4220803771717661 0.15983595318332086  4.3745476012257631 0.2347320677332175  4.3273972053526135 0.32263947334675547  4.2806762809177092 0.42425403000803558  4.2344294938879532 0.5403863972126115  4.2039414663381898 0.62816755093698229  4.1887902047863896 0.67480823796246303 
 0 4 0.21244293419598545 1 0.4248858683919709 1 0.63732880258795632 1 0.8497717367839418 1 1.0622146709799272 1 1.2746576051759126 1 1.4871005393718981 1 1.6995434735678836 1 1.9119864077638691 1 2.1244293419598543 1 2.33687227615584 1 2.5493152103518253 1 2.761758144547811 1 2.9742010787437962 1 3.1866440129397819 1 3.3990869471357672 1 3.6115298813317525 1 3.8239728155277382 1 4.0364157497237239 1 4.2488586839197087 1 4.4613016181156944 1 4.6737445523116801 4
7 0 0  3 25 23  4.1887902047863914 0.67480823796245848  4.1736389432345904 0.62816755093697774  4.1431509156848287 0.54038639721260739  4.09690412865507 0.4242540300080328  4.0501832042201684 0.32263947334675275  4.0030328083470188 0.23473206773321467  3.9555000324010154 0.15983595318331745  3.9076345440079243 0.097376863131588151  3.8594882102114907 0.046885068654721841  3.8111148156889483 0.0079878425717632272  3.7625697140663745 -0.019597948658728347  3.7139094618844832 -0.036070948151280174  3.6651914291880923 -0.041548938705162353  3.6164733964917013 -0.036070948151280445  3.56781314430981 -0.019597948658727143  3.5192680426872371 0.007987842571763052  3.4708946481646925 0.046885068654725894  3.4227483143682584 0.097376863131590274  3.3748828259751686 0.15983595318331836  3.3273500500291666 0.23473206773321834  3.2801996541560174 0.32263947334675541  3.2334787297211123 0.42425403000803547  3.1872319426913571 0.54038639721261217  3.1567439151415937 0.62816755093698329  3.1415926535897931 0.6748082379624637 
 0 4 0.21244293419598545 1 0.4248858683919709 1 0.63732880258795632 1 0.8497717367839418 1 1.0622146709799272 1 1.2746576051759126 1 1.4871005393718981 1 1.6995434735678836 1 1.9119864077638691 1 2.1244293419598543 1 2.33687227615584 1 2.5493152103518253 1 2.761758144547811 1 2.9742010787437962 1 3.1866440129397819 1 3.3990869471357672 1 3.6115298813317525 1 3.8239728155277382 1 4.0364157497237239 1 4.2488586839197087 1 4.4613016181156944 1 4.6737445523116801 4
1 3.1415926535897931 1.1102230246251565e-16 0 1 
1 3.1415926535897931 1.1102230246251565e-16 0 1 
1 0 -0.67480823796245493 1 0 
1 0 -1.1102230246251565e-16 0 1 
1 6.2831853071795862 -1.1102230246251565e-16 0 1 
1 0 -0.67480823796245526 1 0 
1 3.1415926535897931 0 0 -1 
1 3.1415926535897931 0 0 -1 
7 0 0  3 25 23  3.1415926535897931 0.67480823796246492  3.1264413920379948 0.62816755093698351  3.0959533644882296 0.54038639721261217  3.0497065774584708 0.42425403000803796  3.0029856530235719 0.32263947334675547  2.9558352571504187 0.23473206773322011  2.9083024812044194 0.15983595318332056  2.8604369928113265 0.097376863131589345  2.8122906590148897 0.046885068654726442  2.7639172644923526 0.0079878425717631804  2.7153721628697767 -0.019597948658725481  2.6667119106878854 -0.036070948151279182  2.6179938779914949 -0.041548938705162512  2.5692758452951043 -0.036070948151279821  2.5206155931132113 -0.019597948658727476  2.4720704914906388 0.007987842571762457  2.4236970969680964 0.046885068654722202  2.3755507631716579 0.097376863131587624  2.3276852747785721 0.15983595318331983  2.2801524988325657 0.23473206773321606  2.2330021029594196 0.32263947334675336  2.1862811785245153 0.42425403000803419  2.1400343914947584 0.54038639721260739  2.1095463639449967 0.62816755093697818  2.0943951023931948 0.67480823796245959 
 0 4 0.21244293419598501 1 0.42488586839197001 1 0.63732880258795499 1 0.84977173678394002 1 1.0622146709799249 1 1.27465760517591 1 1.487100539371895 1 1.69954347356788 1 1.9119864077638651 1 2.1244293419598499 1 2.3368722761558351 1 2.54931521035182 1 2.7617581445478052 1 2.97420107874379 1 3.1866440129397753 1 3.3990869471357601 1 3.6115298813317449 1 3.8239728155277302 1 4.036415749723715 1 4.2488586839196998 1 4.4613016181156855 1 4.6737445523116703 4
7 0 0  3 25 23  2.0943951023931948 0.67480823796245959  2.0792438408413947 0.62816755093697807  2.048755813291633 0.54038639721260739  2.0025090262618708 0.42425403000803463  1.9557881018269736 0.32263947334675502  1.9086377059538222 0.2347320677332165  1.8611049300078193 0.15983595318332144  1.8132394416147264 0.097376863131589428  1.7650931078182968 0.04688506865472522  1.7167197132957526 0.0079878425717633313  1.6681746116731775 -0.019597948658724863  1.6195143594912897 -0.03607094815127717  1.5707963267948966 -0.041548938705161971  1.5220782940985051 -0.036070948151277107  1.4734180419166139 -0.019597948658725023  1.4248729402940423 0.0079878425717637685  1.3764995457714981 0.046885068654723742  1.3283532119750614 0.097376863131589414  1.2804877235819747 0.15983595318332036  1.23295494763597 0.23473206773321692  1.1858045517628222 0.32263947334675402  1.139083627327917 0.4242540300080353  1.0928368402981627 0.54038639721260717  1.0623488127483993 0.62816755093697796  1.0471975511965983 0.67480823796245959 
 0 4 0.21244293419598501 1 0.42488586839197001 1 0.63732880258795499 1 0.84977173678394002 1 1.0622146709799249 1 1.27465760517591 1 1.487100539371895 1 1.69954347356788 1 1.9119864077638651 1 2.1244293419598499 1 2.3368722761558351 1 2.54931521035182 1 2.7617581445478052 1 2.97420107874379 1 3.1866440129397753 1 3.3990869471357601 1 3.6115298813317449 1 3.8239728155277302 1 4.036415749723715 1 4.2488586839196998 1 4.4613016181156855 1 4.6737445523116703 4
7 0 0  3 25 23  1.0471975511965983 0.67480823796245959  1.0320462896447982 0.62816755093697829  1.0015582620950374 0.54038639721260773  0.95531147506527514 0.42425403000803386  0.90859055063037619 0.32263947334675341  0.86144015475722568 0.23473206773321442  0.81390737881122188 0.15983595318331784  0.76604189041813076 0.097376863131587471  0.71789555662169668 0.046885068654722785  0.66952216209915694 0.0079878425717612184  0.62097706047658008 -0.019597948658727823  0.57231680829469145 -0.03607094815128168  0.52359877559830004 -0.041548938705164094  0.47488074290190863 -0.036070948151282568  0.42622049072001733 -0.019597948658728746  0.37767538909744403 0.0079878425717610519  0.32930199457490161 0.046885068654719857  0.28115566077846488 0.097376863131584598  0.23329017238537553 0.15983595318331581  0.1857573964393735 0.23473206773321206  0.13860700056622299 0.32263947334675031  0.091886076131320493 0.42425403000803147  0.045639289101563563 0.54038639721260318  0.015151261551801021 0.62816755093697407  0 0.6748082379624557 
 0 4 0.21244293419598501 1 0.42488586839197001 1 0.63732880258795499 1 0.84977173678394002 1 1.0622146709799249 1 1.27465760517591 1 1.487100539371895 1 1.69954347356788 1 1.9119864077638651 1 2.1244293419598499 1 2.3368722761558351 1 2.54931521035182 1 2.7617581445478052 1 2.97420107874379 1 3.1866440129397753 1 3.3990869471357601 1 3.6115298813317449 1 3.8239728155277302 1 4.036415749723715 1 4.2488586839196998 1 4.4613016181156855 1 4.6737445523116703 4
1 0 -0.2499926665591074 1 0 
1 0 2.3000073334408917 1 0 
1 3.1415926535897931 0 0 1 
1 3.1415926535897931 0 0 1 
1 6.2831853071795862 0.2499926665591084 -1 0 
1 0 2.7755575615628914e-17 0 -1 
1 6.2831853071795862 2.7755575615628914e-17 0 -1 
1 0 -2.3000073334408899 1 0 
1 6.2831853071795862 -0.24999266655911082 -1 0 
1 3.1415926535897931 0 0 1 
1 3.1415926535897931 0 0 1 
1 0 0 0 -1 
1 6.2831853071795862 0 0 -1 
1 6.2831853071795862 0.24999266655910593 -1 0 
1 3.1415926535897931 -2.2204460492503131e-16 0 -1 
1 3.1415926535897931 -2.2204460492503131e-16 0 -1 
1 6.2831853071795862 -5.5511151231257827e-17 0 1 
1 0 -5.5511151231257827e-17 0 1 
1 6.2831853071795862 -0.24999266655911082 -1 0 
1 0 -2.3000073334408899 1 0 
1 6.2831853071795862 0.24999266655910593 -1 0 
1 0 2.3000073334408917 1 0 
1 0 -0.2499926665591074 1 0 
1 6.2831853071795862 0.2499926665591084 -1 0 
7 0 0  3 25 23  6.2831853071795862 0.6748082379624557  6.268034045627787 0.62816755093697418  6.2375460180780236 0.54038639721260351  6.191299231048264 0.42425403000803114  6.1445783066133624 0.32263947334675003  6.0974279107402136 0.23473206773321237  6.0498951347942098 0.15983595318331553  6.0020296464011169 0.097376863131584987  5.9538833126046855 0.04688506865472121  5.9055099180821431 0.0079878425717607501  5.8569648164595689 -0.019597948658728992  5.8083045642776785 -0.036070948151281146  5.7595865315812853 -0.041548938705165073  5.7108684988848966 -0.036070948151281465  5.6622082467030035 -0.019597948658727583  5.6136631450804311 0.0079878425717599417  5.5652897505578878 0.046885068654723146  5.5171434167614519 0.097376863131586402  5.4692779283683652 0.1598359531833192  5.4217451524223588 0.23473206773321523  5.3745947565492136 0.32263947334675264  5.3278738321143075 0.42425403000803313  5.2816270450845506 0.54038639721260739  5.251139017534789 0.62816755093697862  5.2359877559829879 0.67480823796245959 
 0 4 0.21244293419598501 1 0.42488586839197001 1 0.63732880258795499 1 0.84977173678394002 1 1.0622146709799249 1 1.27465760517591 1 1.487100539371895 1 1.69954347356788 1 1.9119864077638651 1 2.1244293419598499 1 2.3368722761558351 1 2.54931521035182 1 2.7617581445478052 1 2.97420107874379 1 3.1866440129397753 1 3.3990869471357601 1 3.6115298813317449 1 3.8239728155277302 1 4.036415749723715 1 4.2488586839196998 1 4.4613016181156855 1 4.6737445523116703 4
7 0 0  3 25 23  5.2359877559829879 0.67480823796245959  5.2208364944311878 0.62816755093697796  5.1903484668814261 0.54038639721260751  5.1441016798516648 0.42425403000803491  5.0973807554167658 0.32263947334675391  5.0502303595436135 0.23473206773321589  5.0026975835976133 0.15983595318332033  4.9548320952045204 0.09737686313159008  4.9066857614080881 0.046885068654723749  4.8583123668855448 0.0079878425717639766  4.8097672652629706 -0.019597948658725974  4.7611070130810829 -0.036070948151278009  4.7123889803846888 -0.041548938705162124  4.6636709476882983 -0.036070948151277968  4.6150106955064079 -0.019597948658726026  4.5664655938838354 0.0079878425717640339  4.5180921993612895 0.046885068654723673  4.4699458655648563 0.097376863131589428  4.4220803771717678 0.15983595318332033  4.3745476012257631 0.23473206773321684  4.3273972053526162 0.32263947334675436  4.280676280917711 0.42425403000803402  4.234429493887955 0.54038639721260728  4.2039414663381924 0.62816755093697829  4.1887902047863914 0.67480823796245959 
 0 4 0.21244293419598501 1 0.42488586839197001 1 0.63732880258795499 1 0.84977173678394002 1 1.0622146709799249 1 1.27465760517591 1 1.487100539371895 1 1.69954347356788 1 1.9119864077638651 1 2.1244293419598499 1 2.3368722761558351 1 2.54931521035182 1 2.7617581445478052 1 2.97420107874379 1 3.1866440129397753 1 3.3990869471357601 1 3.6115298813317449 1 3.8239728155277302 1 4.036415749723715 1 4.2488586839196998 1 4.4613016181156855 1 4.6737445523116703 4
7 0 0  3 25 23  4.1887902047863896 0.67480823796246414  4.1736389432345895 0.62816755093698307  4.143150915684827 0.54038639721261239  4.0969041286550683 0.42425403000803813  4.0501832042201666 0.32263947334675885  4.003032808347017 0.23473206773322067  3.9555000324010146 0.15983595318332422  3.907634544007923 0.097376863131592661  3.8594882102114894 0.046885068654727947  3.8111148156889469 0.0079878425717676386  3.7625697140663723 -0.019597948658721748  3.7139094618844832 -0.036070948151275477  3.6651914291880918 -0.041548938705157995  3.6164733964917009 -0.036070948151276247  3.5678131443098096 -0.019597948658723247  3.5192680426872371 0.0079878425717650626  3.4708946481646925 0.046885068654726005  3.4227483143682584 0.097376863131588318  3.3748828259751695 0.15983595318332242  3.3273500500291662 0.23473206773321426  3.2801996541560183 0.32263947334675336  3.2334787297211127 0.42425403000803136  3.1872319426913571 0.54038639721260529  3.1567439151415946 0.62816755093697541  3.1415926535897931 0.6748082379624557 
 0 4 0.21244293419598501 1 0.42488586839197001 1 0.63732880258795499 1 0.84977173678394002 1 1.0622146709799249 1 1.27465760517591 1 1.487100539371895 1 1.69954347356788 1 1.9119864077638651 1 2.1244293419598499 1 2.3368722761558351 1 2.54931521035182 1 2.7617581445478052 1 2.97420107874379 1 3.1866440129397753 1 3.3990869471357601 1 3.6115298813317449 1 3.8239728155277302 1 4.036415749723715 1 4.2488586839196998 1 4.4613016181156855 1 4.6737445523116703 4
1 0 -0.67480823796245526 1 0 
1 0 -0.67480823796245493 1 0 
7 0 0  3 25 23  3.1415926535897936 0.6748082379624637  3.126441392037993 0.62816755093698384  3.0959533644882304 0.54038639721261306  3.0497065774584735 0.42425403000803574  3.0029856530235701 0.32263947334675874  2.9558352571504201 0.23473206773321986  2.9083024812044185 0.15983595318332325  2.8604369928113269 0.097376863131592439  2.8122906590148942 0.046885068654727073  2.7639172644923504 0.0079878425717665302  2.7153721628697767 -0.019597948658723056  2.6667119106878867 -0.0360709481512764  2.6179938779914953 -0.041548938705158668  2.5692758452951039 -0.036070948151277392  2.520615593113213 -0.01959794865872358  2.4720704914906397 0.0079878425717646948  2.4236970969680955 0.046885068654725644  2.3755507631716615 0.097376863131590441  2.3276852747785712 0.15983595318331853  2.2801524988325688 0.23473206773321789  2.23300210295942 0.32263947334675236  2.1862811785245153 0.42425403000803397  2.1400343914947588 0.54038639721260717  2.1095463639449954 0.6281675509369774  2.0943951023931948 0.67480823796245826 
 0 4 0.21244293419598545 1 0.4248858683919709 1 0.63732880258795632 1 0.8497717367839418 1 1.0622146709799272 1 1.2746576051759126 1 1.4871005393718981 1 1.6995434735678836 1 1.9119864077638691 1 2.1244293419598543 1 2.33687227615584 1 2.5493152103518253 1 2.761758144547811 1 2.9742010787437962 1 3.1866440129397819 1 3.3990869471357672 1 3.6115298813317525 1 3.8239728155277382 1 4.0364157497237239 1 4.2488586839197087 1 4.4613016181156944 1 4.6737445523116801 4
7 0 0  3 25 23  2.094395102393197 0.67480823796246281  2.0792438408413965 0.62816755093698085  2.048755813291633 0.54038639721260973  2.002509026261877 0.42425403000803691  1.9557881018269725 0.32263947334675519  1.9086377059538235 0.23473206773321739  1.8611049300078213 0.15983595318332047  1.8132394416147302 0.097376863131589733  1.7650931078182961 0.04688506865472411  1.7167197132957528 0.0079878425717641189  1.6681746116731793 -0.019597948658727278  1.6195143594912886 -0.036070948151278599  1.5707963267948968 -0.04154893870516263  1.5220782940985063 -0.036070948151278676  1.4734180419166145 -0.019597948658727035  1.4248729402940417 0.0079878425717631076  1.3764995457714972 0.046885068654723402  1.3283532119750634 0.097376863131588942  1.2804877235819725 0.15983595318331978  1.2329549476359702 0.23473206773321664  1.1858045517628217 0.32263947334675408  1.1390836273279161 0.42425403000803602  1.0928368402981603 0.54038639721260984  1.0623488127483971 0.62816755093698118  1.0471975511965963 0.67480823796246281 
 0 4 0.21244293419598545 1 0.4248858683919709 1 0.63732880258795632 1 0.8497717367839418 1 1.0622146709799272 1 1.2746576051759126 1 1.4871005393718981 1 1.6995434735678836 1 1.9119864077638691 1 2.1244293419598543 1 2.33687227615584 1 2.5493152103518253 1 2.761758144547811 1 2.9742010787437962 1 3.1866440129397819 1 3.3990869471357672 1 3.6115298813317525 1 3.8239728155277382 1 4.0364157497237239 1 4.2488586839197087 1 4.4613016181156944 1 4.6737445523116801 4
7 0 0  3 25 23  1.0471975511965983 0.67480823796245826  1.0320462896447982 0.62816755093697751  1.001558262095035 0.54038639721260717  0.9553114750652778 0.42425403000803225  0.90859055063037408 0.32263947334675286  0.86144015475722524 0.2347320677332129  0.81390737881122277 0.15983595318331781  0.76604189041813198 0.097376863131586638  0.71789555662169824 0.046885068654720904  0.66952216209915427 0.0079878425717617354  0.6209770604765813 -0.019597948658728222  0.57231680829468989 -0.036070948151281479  0.52359877559829893 -0.041548938705163657  0.47488074290190818 -0.036070948151280591  0.4262204907200165 -0.019597948658727268  0.3776753890974438 0.0079878425717616799  0.32930199457489939 0.046885068654725054  0.28115566077846588 0.097376863131588887  0.23329017238537511 0.15983595318331881  0.18575739643937261 0.2347320677332167  0.13860700056622435 0.32263947334675552  0.091886076131319341 0.42425403000803558  0.045639289101563001 0.54038639721261095  0.015151261551800145 0.6281675509369824  0 0.6748082379624637 
 0 4 0.21244293419598545 1 0.4248858683919709 1 0.63732880258795632 1 0.8497717367839418 1 1.0622146709799272 1 1.2746576051759126 1 1.4871005393718981 1 1.6995434735678836 1 1.9119864077638691 1 2.1244293419598543 1 2.33687227615584 1 2.5493152103518253 1 2.761758144547811 1 2.9742010787437962 1 3.1866440129397819 1 3.3990869471357672 1 3.6115298813317525 1 3.8239728155277382 1 4.0364157497237239 1 4.2488586839197087 1 4.4613016181156944 1 4.6737445523116801 4
Curves 40
1 4.0344010767584999 7.8567057807582399e-16 0.33740411898122902 -0.86602540378443882 -7.5438862359041989e-17 -0.49999999999999989 
7 1 0  2 3 2  4.6188021535170103 4.33829607464218e-15 0.67480823796245704  1 3.4641016151377499 -2 0.0081415712957886299  1.1547005383792499 2.3094010767584998 -4 0.67480823796245704  1
 0 3 4.6737445523116801 3
7 1 0  2 3 2  2.30940107675851 -4 0.67480823796245704  1 0 -4 0.0081415712957886299  1.1547005383792499 -2.30940107675851 -4 0.67480823796245704  1
 0 3 4.6737445523116801 3
7 1 0  2 3 2  -2.3094010767584998 -4 0.67480823796245704  1 -3.4641016151377499 -2 0.0081415712957895198  1.1547005383792499 -4.6188021535170103 7.7937341958474299e-16 0.67480823796245704  1
 0 3 4.6737445523116801 3
1 -4.0344010767584999 -2.02440060417437e-16 0.33740411898122902 -0.86602540378443882 -1.3666918005016099e-16 0.49999999999999989 
2 0 3.1227462022470599e-16 0 0 -6.12303176911189e-17 1 1 0 0 -0 1 6.12303176911189e-17 3.4500000000000002
1 4.0344010767584999 5.1471468064214301e-16 4.7625958810187701 0.86602540378443882 1.3666918005016099e-16 -0.49999999999999989 
2 0 0 5.0999999999999996 0 6.12303176911189e-17 -1 1 0 0 0 -1 -6.12303176911189e-17 3.4500000000000002
1 -4.0344010767584999 -4.7339595785111804e-16 4.7625958810187701 0.86602540378443882 7.5438862359041989e-17 0.49999999999999989 
7 1 0  2 3 2  -4.6188021535170103 -1.22972508258663e-15 4.4251917620375396  1 -3.4641016151377499 -2 5.0918584287042101  1.1547005383792499 -2.3094010767584998 -4 4.4251917620375396  1
 0 3 4.6737445523116703 3
7 1 0  2 3 2  -2.3094010767584998 -4 4.4251917620375396  1 0 -4 5.0918584287042101  1.1547005383792499 2.3094010767584998 -4 4.4251917620375396  1
 0 3 4.6737445523116703 3
7 1 0  2 3 2  2.3094010767584998 -4 4.4251917620375396  1 3.4641016151377499 -2 5.0918584287042101  1.1547005383792499 4.6188021535169996 -4.6709879936003704e-16 4.4251917620375396  1
 0 3 4.6737445523116703 3
2 0 2.9696748983084202e-16 0.24999266655910801 0 6.12303176911189e-17 -1 1 0 0 0 -1 -6.12303176911189e-17 2.0670000000000002
1 -2.2835000000000001 2.4982194132434199e-17 0.12499633327955501 -0.86602540378443849 -7.543886235904194e-17 -0.50000000000000033 
2 0 3.1227462022470599e-16 0 0 -6.12303176911189e-17 1 1 0 0 -0 1 6.12303176911189e-17 2.5
1 2.2835000000000001 5.8425991592311396e-16 0.12499633327955501 -0.86602540378443849 -1.3666918005016109e-16 0.50000000000000033 
2 0 1.5307130393864101e-17 4.8500073334408897 0 6.12303176911189e-17 -1 1 0 0 0 -1 -6.12303176911189e-17 2.0670000000000002
1 -2.0670000000000002 -9.69888232227323e-17 2.5499999999999998 -0 6.12303176911189e-17 -1 
1 2.0670000000000002 4.0926344344743801e-16 2.5499999999999998 -0 -6.12303176911189e-17 1 
2 0 0 5.0999999999999996 0 6.12303176911189e-17 -1 1 0 0 0 -1 -6.12303176911189e-17 2.5
1 -2.2835000000000001 -2.7198529569840801e-16 4.9750036667204496 0.86602540378443882 1.3666918005016099e-16 -0.49999999999999989 
1 2.2835000000000001 2.8729242609227198e-16 4.9750036667204496 0.86602540378443882 7.5438862359041989e-17 0.49999999999999989 
2 0 1.5307130393864101e-17 4.8500073334408897 0 6.12303176911189e-17 -1 1 0 0 0 -1 -6.12303176911189e-17 2.0670000000000002
2 0 0 5.0999999999999996 0 6.12303176911189e-17 -1 1 0 0 0 -1 -6.12303176911189e-17 2.5
2 0 2.9696748983084202e-16 0.24999266655910801 0 6.12303176911189e-17 -1 1 0 0 0 -1 -6.12303176911189e-17 2.0670000000000002
2 0 3.1227462022470599e-16 0 0 -6.12303176911189e-17 1 1 0 0 -0 1 6.12303176911189e-17 2.5
7 1 0  2 3 2  4.6188021535169996 8.0394500601761803e-16 4.4251917620375396  1 3.4641016151377499 2 5.0918584287042101  1.1547005383792499 2.3094010767584998 4 4.4251917620375396  1
 0 3 4.6737445523116703 3
7 1 0  2 3 2  2.3094010767584998 4 4.4251917620375396  1 -8.8817841970012504e-16 4 5.0918584287042101  1.1547005383792499 -2.3094010767584998 4 4.4251917620375396  1
 0 3 4.6737445523116703 3
7 1 0  2 3 2  -2.30940107675851 4 4.4251917620375396  1 -3.4641016151377602 2 5.0918584287042101  1.1547005383792499 -4.6188021535169996 1.3123625281686799e-15 4.4251917620375396  1
 0 3 4.6737445523116703 3
2 0 0 5.0999999999999996 0 6.12303176911189e-17 -1 1 0 0 0 -1 -6.12303176911189e-17 3.4500000000000002
2 0 3.1227462022470599e-16 0 0 -6.12303176911189e-17 1 1 0 0 -0 1 6.12303176911189e-17 3.4500000000000002
7 1 0  2 3 2  -4.6188021535170103 -3.0337579965482202e-15 0.67480823796245704  1 -3.4641016151377602 2 0.0081415712957904098  1.1547005383792499 -2.3094010767584998 4 0.67480823796245704  1
 0 3 4.6737445523116801 3
7 1 0  2 3 2  -2.30940107675851 4 0.67480823796245704  1 -2.81852556220574e-15 4 0.0081415712957886299  1.1547005383792499 2.30940107675851 4 0.67480823796245704  1
 0 3 4.6737445523116801 3
7 1 0  2 3 2  2.3094010767584998 4 0.67480823796245704  1 3.4641016151377499 2 0.0081415712957886299  1.1547005383792499 4.6188021535170103 -2.2711317133216302e-15 0.67480823796245704  1
 0 3 4.6737445523116801 3
1 -2.3094010767584998 -4 5.0999999999999996 0 6.12303176911189e-17 -1 
1 -4.6188021535170103 -8.4844151008451596e-16 5.0999999999999996 0 6.12303176911189e-17 -1 
1 2.3094010767584998 -4 5.0999999999999996 0 6.12303176911189e-17 -1 
1 4.6188021535170103 2.8282006365997501e-16 5.0999999999999996 0 6.12303176911189e-17 -1 
1 2.3094010767584998 4 5.0999999999999996 0 6.12303176911189e-17 -1 
1 -2.30940107675851 4 5.0999999999999996 0 6.12303176911189e-17 -1 
Polygon3D 0
PolygonOnTriangulations 0
Surfaces 18
3 0 2.9161525882919302e-16 0.33740411898122902 -0 -6.12303176911189e-17 1 1 0 0 -0 1 6.12303176911189e-17 4.0344010767584999
1.0471975511966001
3 0 2.9161525882919302e-16 0.33740411898122902 -0 -6.12303176911189e-17 1 1 0 0 -0 1 6.12303176911189e-17 4.0344010767584999
1.0471975511966001
1 3.4641016151377499 -2 5.0999999999999996 0.86602540378443882 -0.49999999999999989 -3.0615158845559394e-17 -0.49999999999999989 -0.86602540378443882 -5.3027010602300679e-17 2.4651903288156613e-32 6.1230317691118851e-17 -1 
1 8.8817841970012504e-16 -4 5.0999999999999996 -0 -1 -6.12303176911189e-17 -1 0 0 0 6.12303176911189e-17 -1 
1 -3.4641016151377499 -2 5.0999999999999996 -0.86602540378443849 -0.50000000000000033 -3.0615158845559419e-17 -0.50000000000000033 0.86602540378443849 5.3027010602300741e-17 -7.0874221953450279e-32 6.1230317691118925e-17 -1 
1 2.8596653664587399e-16 3.1227462022470599e-16 0 0 6.12303176911189e-17 -1 0 1 6.12303176911189e-17 1 -0 0 
3 0 2.0659361395512701e-17 4.7625958810187701 -0 6.12303176911189e-17 -1 1 0 0 0 -1 -6.12303176911189e-17 4.0344010767584999
1.0471975511966001
3 0 2.0659361395512701e-17 4.7625958810187701 -0 6.12303176911189e-17 -1 1 0 0 0 -1 -6.12303176911189e-17 4.0344010767584999
1.0471975511966001
1 2.8596653664587399e-16 0 5.0999999999999996 0 6.12303176911189e-17 -1 0 1 6.12303176911189e-17 1 -0 0 
3 0 3.0462105502777398e-16 0.12499633327955501 -0 6.12303176911189e-17 -1 1 0 0 0 -1 -6.12303176911189e-17 2.2835000000000001
1.0471975511966001
2 0 1.56137310112353e-16 2.5499999999999998 0 6.12303176911189e-17 -1 1 0 0 0 -1 -6.12303176911189e-17 2.0670000000000002
3 0 3.0462105502777398e-16 0.12499633327955501 -0 6.12303176911189e-17 -1 1 0 0 0 -1 -6.12303176911189e-17 2.2835000000000001
1.0471975511966001
3 0 7.6535651969320599e-18 4.9750036667204496 -0 -6.12303176911189e-17 1 1 0 0 -0 1 6.12303176911189e-17 2.2835000000000001
1.0471975511966001
2 0 1.56137310112353e-16 2.5499999999999998 0 6.12303176911189e-17 -1 1 0 0 0 -1 -6.12303176911189e-17 2.0670000000000002
3 0 7.6535651969320599e-18 4.9750036667204496 -0 -6.12303176911189e-17 1 1 0 0 -0 1 6.12303176911189e-17 2.2835000000000001
1.0471975511966001
1 3.4641016151377499 2 5.0999999999999996 0.86602540378443882 0.49999999999999989 3.0615158845559394e-17 0.49999999999999989 -0.86602540378443882 -5.3027010602300679e-17 -2.4651903288156613e-32 6.1230317691118851e-17 -1 
1 -1.7763568394002501e-15 4 5.0999999999999996 -1.9229626863835601e-16 1 6.12303176911189e-17 1 1.9229626863835601e-16 1.1774361619543299e-32 1.642146637880645e-47 6.12303176911189e-17 -1 
1 -3.4641016151377602 2 5.0999999999999996 -0.86602540378443882 0.49999999999999989 3.0615158845559394e-17 0.49999999999999989 0.86602540378443882 5.3027010602300679e-17 2.4651903288156613e-32 6.1230317691118851e-17 -1 
Triangulations 0

TShapes 104
Ve
1e-07
4.61880215351701 2.70955897433681e-16 0.674808237962457
0 0

0101101
*
Ve
1e-07
3.45 3.12274620224706e-16 0
0 0

0101101
*
Ed
 1e-07 1 1 0
1  1 0 -0.674808237962464 0.674808237962455
2  1 1 0 -0.674808237962464 0.674808237962455
2  2 2 0 -0.674808237962464 0.674808237962455
4 CN 1 0 2 0
0

0101000
+104 0 -103 0 *
Ve
1e-07
2.3094010767585 -4 0.674808237962457
0 0

0101101
*
Ed
 1e-07 1 1 0
1  2 0 0 4.67374455231168
2  3 1 0 0 4.67374455231168
4 C0 1 0 3 0
0

0101000
+104 0 -101 0 *
Ve
1e-07
-2.3094010767585 -4 0.674808237962457
0 0

0101101
*
Ed
 1e-07 1 1 0
1  3 0 0 4.67374455231168
2  4 1 0 0 4.67374455231168
4 C0 1 0 4 0
0

0101000
+101 0 -99 0 *
Ve
1e-07
-4.61880215351701 -1.7274455468916e-15 0.674808237962457
0 0

0101101
*
Ed
 1e-07 1 1 0
1  4 0 0 4.67374455231168
2  5 1 0 0 4.67374455231168
4 C0 1 0 5 0
0

0101000
+99 0 -97 0 *
Ve
1e-07
-3.45 -1.10214571844014e-16 -2.58691474514319e-32
0 0

0101101
*
Ed
 1e-07 1 1 0
1  5 0 -0.674808237962455 0.674808237962464
2  6 1 0 -0.674808237962455 0.674808237962464
2  7 2 0 -0.674808237962455 0.674808237962464
4 CN 1 0 2 0
0

0101000
+95 0 -97 0 *
Ed
 1e-07 1 1 0
1  6 0 3.14159265358979 6.28318530717959
2  8 1 0 3.14159265358979 6.28318530717959
4 C0 1 0 6 0
0

0101000
+95 0 -103 0 *
Wi

0101100
-102 0 +100 0 +98 0 +96 0 -94 0 +93 0 *
Fa
0  1e-07 1 0

0111000
+92 0 *
Ve
1e-07
3.45 0 5.1
0 0

0101101
*
Ve
1e-07
4.61880215351701 4.13187227910254e-17 4.42519176203754
0 0

0101101
*
Ed
 1e-07 1 1 0
1  7 0 -0.674808237962455 0.674808237962465
2  9 7 0 -0.674808237962455 0.674808237962465
2  10 8 0 -0.674808237962455 0.674808237962465
4 CN 7 0 8 0
0

0101000
+90 0 -89 0 *
Ve
1e-07
-3.45 -4.2248919206872e-16 5.1
0 0

0101101
*
Ed
 1e-07 1 1 0
1  8 0 0 3.14159265358979
2  11 7 0 0 3.14159265358979
4 C0 7 0 9 0
0

0101000
+90 0 -87 0 *
Ve
1e-07
-4.61880215351701 -1.95708272153426e-15 4.42519176203754
0 0

0101101
*
Ed
 1e-07 1 1 0
1  9 0 -0.674808237962465 0.674808237962455
2  12 7 0 -0.674808237962465 0.674808237962455
2  13 8 0 -0.674808237962465 0.674808237962455
4 CN 7 0 8 0
0

0101000
+85 0 -87 0 *
Ve
1e-07
-2.3094010767585 -4 4.42519176203754
0 0

0101101
*
Ed
 1e-07 1 1 0
1  10 0 0 4.67374455231167
2  14 7 0 0 4.67374455231167
4 C0 7 0 5 0
0

0101000
+85 0 -83 0 *
Ve
1e-07
2.3094010767585 -4 4.42519176203754
0 0

0101101
*
Ed
 1e-07 1 1 0
1  11 0 0 4.67374455231167
2  15 7 0 0 4.67374455231167
4 C0 7 0 4 0
0

0101000
+83 0 -81 0 *
Ed
 1e-07 1 1 0
1  12 0 0 4.67374455231167
2  16 7 0 0 4.67374455231167
4 C0 7 0 3 0
0

0101000
+81 0 -89 0 *
Wi

0101100
-88 0 +86 0 -84 0 +82 0 +80 0 +79 0 *
Fa
0  1e-07 7 0

0111000
+78 0 *
Ve
1e-07
2.067 2.96967489830842e-16 0.249992666559108
0 0

0101101
*
Ve
1e-07
-2.067 4.38413564957566e-17 0.249992666559108
0 0

0101101
*
Ed
 1e-07 1 1 0
1  13 0 0 3.14159265358979
2  17 10 0 0 3.14159265358979
2  18 11 0 0 3.14159265358979
4 C0 10 0 11 0
0

0101000
+76 0 -75 0 *
Ve
1e-07
-2.5 6.12303176911178e-18 -1.87457590227767e-32
0 0

0101101
*
Ed
 1e-07 1 1 0
1  14 0 -0.249992666559107 0.249992666559108
2  19 10 0 -0.249992666559107 0.249992666559108
2  20 12 0 -0.249992666559107 0.249992666559108
4 CN 10 0 12 0
0

0101000
+75 0 -73 0 *
Ve
1e-07
2.5 3.12274620224706e-16 0
0 0

0101101
*
Ed
 1e-07 1 1 0
1  15 0 3.14159265358979 6.28318530717959
2  21 10 0 3.14159265358979 6.28318530717959
4 C0 10 0 6 0
0

0101000
+73 0 -71 0 *
Ed
 1e-07 1 1 0
1  16 0 -0.249992666559108 0.249992666559107
2  22 10 0 -0.249992666559108 0.249992666559107
2  23 12 0 -0.249992666559108 0.249992666559107
4 CN 10 0 12 0
0

0101000
+71 0 -76 0 *
Wi

0101100
+74 0 +72 0 +70 0 +69 0 *
Fa
0  1e-07 10 0

0111000
+68 0 *
Ve
1e-07
2.067 1.53071303938641e-17 4.85000733344089
0 0

0101101
*
Ve
1e-07
-2.067 -2.37819002941221e-16 4.85000733344089
0 0

0101101
*
Ed
 1e-07 1 1 0
1  17 0 0 3.14159265358979
2  24 11 0 0 3.14159265358979
2  25 13 0 0 3.14159265358979
4 C0 11 0 13 0
0

0101000
+66 0 -65 0 *
Ed
 1e-07 1 1 0
1  18 0 -2.30000733344089 2.30000733344089
2  26 11 0 -2.30000733344089 2.30000733344089
2  27 14 0 -2.30000733344089 2.30000733344089
4 CN 11 0 14 0
0

0101000
+65 0 -75 0 *
Ed
 1e-07 1 1 0
1  19 0 -2.30000733344089 2.30000733344089
2  28 11 0 -2.30000733344089 2.30000733344089
2  29 14 0 -2.30000733344089 2.30000733344089
4 CN 11 0 14 0
0

0101000
+76 0 -66 0 *
Wi

0101100
+64 0 +63 0 -74 0 +62 0 *
Fa
0  1e-07 11 0

0111000
+61 0 *
Ve
1e-07
2.5 0 5.1
0 0

0101101
*
Ve
1e-07
-2.5 -3.06151588455594e-16 5.1
0 0

0101101
*
Ed
 1e-07 1 1 0
1  20 0 0 3.14159265358979
2  30 13 0 0 3.14159265358979
4 C0 13 0 9 0
0

0101000
+59 0 -58 0 *
Ed
 1e-07 1 1 0
1  21 0 -0.249992666559106 0.249992666559111
2  31 13 0 -0.249992666559106 0.249992666559111
2  32 15 0 -0.249992666559106 0.249992666559111
4 CN 13 0 15 0
0

0101000
+58 0 -65 0 *
Ed
 1e-07 1 1 0
1  22 0 -0.249992666559111 0.249992666559106
2  33 13 0 -0.249992666559111 0.249992666559106
2  34 15 0 -0.249992666559111 0.249992666559106
4 CN 13 0 15 0
0

0101000
+66 0 -59 0 *
Wi

0101100
+57 0 +56 0 -64 0 +55 0 *
Fa
0  1e-07 13 0

0111000
+54 0 *
Ed
 1e-07 1 1 0
1  23 0 3.14159265358979 6.28318530717959
2  35 15 0 3.14159265358979 6.28318530717959
2  36 14 0 3.14159265358979 6.28318530717959
4 C0 15 0 14 0
0

0101000
+65 0 -66 0 *
Ed
 1e-07 1 1 0
1  24 0 3.14159265358979 6.28318530717959
2  37 15 0 3.14159265358979 6.28318530717959
4 C0 15 0 9 0
0

0101000
+58 0 -59 0 *
Wi

0101100
-52 0 -56 0 +51 0 -55 0 *
Fa
0  1e-07 15 0

0111000
+50 0 *
Ed
 1e-07 1 1 0
1  25 0 3.14159265358979 6.28318530717959
2  38 14 0 3.14159265358979 6.28318530717959
2  39 12 0 3.14159265358979 6.28318530717959
4 C0 14 0 12 0
0

0101000
+75 0 -76 0 *
Wi

0101100
-48 0 -63 0 +52 0 -62 0 *
Fa
0  1e-07 14 0

0111000
+47 0 *
Ed
 1e-07 1 1 0
1  26 0 0 3.14159265358979
2  40 12 0 0 3.14159265358979
4 C0 12 0 6 0
0

0101000
+71 0 -73 0 *
Wi

0101100
+45 0 -72 0 +48 0 -69 0 *
Fa
0  1e-07 12 0

0111000
+44 0 *
Ve
1e-07
2.3094010767585 4 4.42519176203754
0 0

0101101
*
Ed
 1e-07 1 1 0
1  27 0 0 4.67374455231167
2  41 8 0 0 4.67374455231167
4 C0 8 0 16 0
0

0101000
+89 0 -42 0 *
Ve
1e-07
-2.30940107675851 4 4.42519176203754
0 0

0101101
*
Ed
 1e-07 1 1 0
1  28 0 0 4.67374455231167
2  42 8 0 0 4.67374455231167
4 C0 8 0 17 0
0

0101000
+42 0 -40 0 *
Ed
 1e-07 1 1 0
1  29 0 0 4.67374455231167
2  43 8 0 0 4.67374455231167
4 C0 8 0 18 0
0

0101000
+40 0 -85 0 *
Ed
 1e-07 1 1 0
1  30 0 3.14159265358979 6.28318530717959
2  44 8 0 3.14159265358979 6.28318530717959
4 C0 8 0 9 0
0

0101000
+87 0 -90 0 *
Wi

0101100
+88 0 +41 0 +39 0 +38 0 +84 0 +37 0 *
Fa
0  1e-07 8 0

0111000
+36 0 *
Ed
 1e-07 1 1 0
1  31 0 0 3.14159265358979
2  45 2 0 0 3.14159265358979
4 C0 2 0 6 0
0

0101000
+103 0 -95 0 *
Ve
1e-07
-2.30940107675851 4 0.674808237962457
0 0

0101101
*
Ed
 1e-07 1 1 0
1  32 0 0 4.67374455231168
2  46 2 0 0 4.67374455231168
4 C0 2 0 18 0
0

0101000
+97 0 -33 0 *
Ve
1e-07
2.3094010767585 4 0.674808237962457
0 0

0101101
*
Ed
 1e-07 1 1 0
1  33 0 0 4.67374455231168
2  47 2 0 0 4.67374455231168
4 C0 2 0 17 0
0

0101000
+33 0 -31 0 *
Ed
 1e-07 1 1 0
1  34 0 0 4.67374455231168
2  48 2 0 0 4.67374455231168
4 C0 2 0 16 0
0

0101000
+31 0 -104 0 *
Wi

0101100
+102 0 +34 0 +94 0 +32 0 +30 0 +29 0 *
Fa
0  1e-07 2 0

0111000
+28 0 *
Ed
 1e-07 1 1 0
1  35 0 0.67480823796246 4.42519176203754
4 C0 5 0 4 0
0

0101000
+83 0 -99 0 *
Ed
 1e-07 1 1 0
1  36 0 0.67480823796246 4.42519176203754
4 C0 5 0 18 0
0

0101000
+85 0 -97 0 *
Wi

0101100
-96 0 -26 0 -82 0 +25 0 *
Fa
0  1e-07 5 0

0111000
+24 0 *
Ed
 1e-07 1 1 0
1  37 0 0.67480823796246 4.42519176203754
4 C0 4 0 3 0
0

0101000
+81 0 -101 0 *
Wi

0101100
-98 0 -22 0 -80 0 +26 0 *
Fa
0  1e-07 4 0

0111000
+21 0 *
Ed
 1e-07 1 1 0
1  38 0 0.67480823796246 4.42519176203754
4 C0 3 0 16 0
0

0101000
+89 0 -104 0 *
Wi

0101100
-100 0 -19 0 -79 0 +22 0 *
Fa
0  1e-07 3 0

0111000
+18 0 *
Ed
 1e-07 1 1 0
1  39 0 0.67480823796246 4.42519176203754
4 C0 16 0 17 0
0

0101000
+42 0 -31 0 *
Wi

0101100
-29 0 -16 0 -41 0 +19 0 *
Fa
0  1e-07 16 0

0111000
+15 0 *
Wi

0101100
+57 0 +51 0 *
Wi

0101100
-86 0 -37 0 *
Fa
0  1e-07 9 0

0111000
-13 0 -12 0 *
Wi

0101100
+45 0 +70 0 *
Wi

0101100
-34 0 -93 0 *
Fa
0  1e-07 6 0

0111000
+10 0 +9 0 *
Ed
 1e-07 1 1 0
1  40 0 0.67480823796246 4.42519176203754
4 C0 17 0 18 0
0

0101000
+40 0 -33 0 *
Wi

0101100
-30 0 -7 0 -39 0 +16 0 *
Fa
0  1e-07 17 0

0111000
+6 0 *
Wi

0101100
-32 0 -25 0 -38 0 +7 0 *
Fa
0  1e-07 18 0

0111000
+4 0 *
Sh

0101100
+91 0 +77 0 -67 0 -60 0 -53 0 -49 0 -46 0 -43 0 +35 0 +27 0 
+23 0 +20 0 +17 0 +14 0 -11 0 +8 0 +5 0 +3 0 *
So

0100000
+2 0 *

+1 0 