DBRep_DrawableShape

CASCADE Topology V1, (c) Matra-Datavision
Locations 0
Curve2ds 48
1 6.2831853071795862 0 0 -1 
1 0 0 0 -1 
7 0 0  3 25 23  6.2831853071795862 0.73254326488142629  6.268034045627787 0.68590257785594544  6.2375460180780253 0.59812142413157421  6.1912992310482649 0.48198905692699717  6.1445783066133624 0.38037450026571806  6.0974279107402136 0.29246709465217902  6.0498951347942107 0.21757098010228218  6.0020296464011187 0.15511189005055076  5.9538833126046864 0.10462009557368596  5.905509918082144 0.065722869490725103  5.8569648164595698 0.038137078260234117  5.8083045642776794 0.021664078767681963  5.7595865315812871 0.016186088213797422  5.7108684988848983 0.021664078767681078  5.6622082467030044 0.038137078260233132  5.6136631450804328 0.0657228694907252  5.5652897505578887 0.10462009557368207  5.5171434167614528 0.15511189005054946  5.4692779283683626 0.21757098010227938  5.4217451524223632 0.29246709465217741  5.3745947565492109 0.38037450026571284  5.3278738321143075 0.48198905692699484  5.2816270450845515 0.59812142413156932  5.2511390175347881 0.68590257785594011  5.2359877559829879 0.73254326488142096 
 0 4 0.21244293419598545 1 0.4248858683919709 1 0.63732880258795632 1 0.8497717367839418 1 1.0622146709799272 1 1.2746576051759126 1 1.4871005393718981 1 1.6995434735678836 1 1.9119864077638691 1 2.1244293419598543 1 2.33687227615584 1 2.5493152103518253 1 2.761758144547811 1 2.9742010787437962 1 3.1866440129397819 1 3.3990869471357672 1 3.6115298813317525 1 3.8239728155277382 1 4.0364157497237239 1 4.2488586839197087 1 4.4613016181156944 1 4.6737445523116801 4
7 0 0  3 25 23  5.2359877559829897 0.73254326488142563  5.2208364944311896 0.68590257785594322  5.190348466881427 0.59812142413157199  5.1441016798516683 0.481989056926999  5.0973807554167685 0.3803745002657174  5.0502303595436153 0.29246709465217979  5.0026975835976142 0.21757098010228385  4.9548320952045213 0.15511189005055254  4.906685761408089 0.10462009557368646  4.8583123668855466 0.065722869490726032  4.8097672652629706 0.03813707826023461  4.7611070130810829 0.021664078767683684  4.7123889803846888 0.016186088213799292  4.6636709476882983 0.021664078767683417  4.6150106955064079 0.038137078260235741  4.5664655938838337 0.065722869490726282  4.5180921993612895 0.10462009557368437  4.4699458655648554 0.15511189005055306  4.4220803771717643 0.21757098010228118  4.374547601225764 0.29246709465218057  4.3273972053526135 0.3803745002657169  4.2806762809177092 0.48198905692699895  4.2344294938879532 0.59812142413157188  4.2039414663381898 0.68590257785594355  4.1887902047863896 0.73254326488142563 
 0 4 0.21244293419598545 1 0.4248858683919709 1 0.63732880258795632 1 0.8497717367839418 1 1.0622146709799272 1 1.2746576051759126 1 1.4871005393718981 1 1.6995434735678836 1 1.9119864077638691 1 2.1244293419598543 1 2.33687227615584 1 2.5493152103518253 1 2.761758144547811 1 2.9742010787437962 1 3.1866440129397819 1 3.3990869471357672 1 3.6115298813317525 1 3.8239728155277382 1 4.0364157497237239 1 4.2488586839197087 1 4.4613016181156944 1 4.6737445523116801 4
7 0 0  3 25 23  4.1887902047863914 0.73254326488142096  4.1736389432345904 0.68590257785593922  4.1431509156848287 0.59812142413156799  4.0969041286550709 0.48198905692699373  4.0501832042201658 0.38037450026571235  4.0030328083470179 0.29246709465217458  3.9555000324010146 0.21757098010227763  3.907634544007923 0.15511189005054968  3.8594882102114907 0.10462009557368221  3.8111148156889469 0.065722869490721952  3.7625697140663732 0.038137078260233249  3.7139094618844841 0.021664078767681332  3.6651914291880909 0.016186088213798147  3.6164733964917022 0.021664078767681127  3.5678131443098096 0.038137078260234131  3.519268042687238 0.065722869490723104  3.4708946481646938 0.10462009557368605  3.4227483143682589 0.15511189005054954  3.37488282597517 0.21757098010227893  3.3273500500291666 0.29246709465217852  3.2801996541560179 0.38037450026571779  3.2334787297211132 0.48198905692699501  3.1872319426913571 0.59812142413157399  3.1567439151415937 0.68590257785594577  3.1415926535897931 0.73254326488142629 
 0 4 0.21244293419598545 1 0.4248858683919709 1 0.63732880258795632 1 0.8497717367839418 1 1.0622146709799272 1 1.2746576051759126 1 1.4871005393718981 1 1.6995434735678836 1 1.9119864077638691 1 2.1244293419598543 1 2.33687227615584 1 2.5493152103518253 1 2.761758144547811 1 2.9742010787437962 1 3.1866440129397819 1 3.3990869471357672 1 3.6115298813317525 1 3.8239728155277382 1 4.0364157497237239 1 4.2488586839197087 1 4.4613016181156944 1 4.6737445523116801 4
1 3.1415926535897931 -2.2204460492503131e-16 0 1 
1 3.1415926535897931 -2.2204460492503131e-16 0 1 
1 0 -0.73254326488141763 1 0 
1 0 -2.2204460492503131e-16 0 1 
1 6.2831853071795862 -2.2204460492503131e-16 0 1 
1 0 -0.73254326488141763 1 0 
1 3.1415926535897931 0 0 -1 
1 3.1415926535897931 0 0 -1 
7 0 0  3 25 23  3.1415926535897931 0.73254326488141719  3.126441392037993 0.68590257785593634  3.0959533644882313 0.5981214241315661  3.0497065774584726 0.48198905692699301  3.0029856530235683 0.3803745002657109  2.955835257150417 0.29246709465217446  2.9083024812044194 0.21757098010227835  2.8604369928113265 0.15511189005054818  2.8122906590148915 0.10462009557368382  2.7639172644923491 0.065722869490723215  2.7153721628697767 0.038137078260233361  2.6667119106878854 0.02166407876768138  2.6179938779914931 0.016186088213798456  2.5692758452951008 0.021664078767681068  2.5206155931132113 0.038137078260234492  2.4720704914906406 0.065722869490723659  2.4236970969680929 0.10462009557368573  2.3755507631716597 0.15511189005054962  2.3276852747785721 0.21757098010228046  2.2801524988325657 0.29246709465217913  2.2330021029594196 0.38037450026571368  2.1862811785245153 0.4819890569269964  2.1400343914947584 0.59812142413156988  2.1095463639449967 0.68590257785594044  2.0943951023931948 0.73254326488142119 
 0 4 0.21244293419598501 1 0.42488586839197001 1 0.63732880258795499 1 0.84977173678394002 1 1.0622146709799249 1 1.27465760517591 1 1.487100539371895 1 1.69954347356788 1 1.9119864077638651 1 2.1244293419598499 1 2.3368722761558351 1 2.54931521035182 1 2.7617581445478052 1 2.97420107874379 1 3.1866440129397753 1 3.3990869471357601 1 3.6115298813317449 1 3.8239728155277302 1 4.036415749723715 1 4.2488586839196998 1 4.4613016181156855 1 4.6737445523116703 4
7 0 0  3 25 23  2.0943951023931948 0.73254326488142119  2.0792438408413947 0.68590257785594044  2.048755813291633 0.59812142413157021  2.0025090262618708 0.48198905692699678  1.9557881018269736 0.38037450026571595  1.9086377059538222 0.29246709465217907  1.8611049300078193 0.21757098010228329  1.8132394416147264 0.15511189005055226  1.7650931078182968 0.10462009557368683  1.7167197132957526 0.06572286949072631  1.6681746116731775 0.038137078260237441  1.6195143594912897 0.021664078767685682  1.5707963267948966 0.016186088213801058  1.5220782940985051 0.021664078767685665  1.4734180419166139 0.038137078260237406  1.4248729402940423 0.065722869490726352  1.3764995457714981 0.10462009557368676  1.3283532119750614 0.15511189005055259  1.2804877235819747 0.21757098010228207  1.23295494763597 0.2924670946521794  1.1858045517628222 0.38037450026571573  1.139083627327917 0.48198905692699706  1.0928368402981627 0.59812142413156988  1.0623488127483993 0.68590257785594022  1.0471975511965983 0.73254326488142119 
 0 4 0.21244293419598501 1 0.42488586839197001 1 0.63732880258795499 1 0.84977173678394002 1 1.0622146709799249 1 1.27465760517591 1 1.487100539371895 1 1.69954347356788 1 1.9119864077638651 1 2.1244293419598499 1 2.3368722761558351 1 2.54931521035182 1 2.7617581445478052 1 2.97420107874379 1 3.1866440129397753 1 3.3990869471357601 1 3.6115298813317449 1 3.8239728155277302 1 4.036415749723715 1 4.2488586839196998 1 4.4613016181156855 1 4.6737445523116703 4
7 0 0  3 25 23  1.0471975511965983 0.73254326488142119  1.0320462896447982 0.68590257785594066  1.0015582620950374 0.59812142413157021  0.95531147506527514 0.48198905692699617  0.90859055063037619 0.38037450026571429  0.86144015475722568 0.29246709465217713  0.81390737881122188 0.21757098010227968  0.76604189041813076 0.1551118900505504  0.71789555662169668 0.10462009557368458  0.66952216209915694 0.065722869490724256  0.62097706047658008 0.038137078260234644  0.57231680829469145 0.021664078767681342  0.52359877559830004 0.01618608821379864  0.47488074290190863 0.021664078767681706  0.42622049072001733 0.03813707826023343  0.37767538909744403 0.06572286949072384  0.32930199457490161 0.10462009557368275  0.28115566077846488 0.1551118900505486  0.23329017238537553 0.2175709801022791  0.1857573964393735 0.2924670946521728  0.13860700056622299 0.38037450026571268  0.091886076131320493 0.48198905692699295  0.045639289101563563 0.59812142413156588  0.015151261551801021 0.68590257785593634  0 0.73254326488141719 
 0 4 0.21244293419598501 1 0.42488586839197001 1 0.63732880258795499 1 0.84977173678394002 1 1.0622146709799249 1 1.27465760517591 1 1.487100539371895 1 1.69954347356788 1 1.9119864077638651 1 2.1244293419598499 1 2.3368722761558351 1 2.54931521035182 1 2.7617581445478052 1 2.97420107874379 1 3.1866440129397753 1 3.3990869471357601 1 3.6115298813317449 1 3.8239728155277302 1 4.036415749723715 1 4.2488586839196998 1 4.4613016181156855 1 4.6737445523116703 4
1 0 -0.24999266655911082 1 0 
1 0 2.5500073334408899 1 0 
1 3.1415926535897931 -5.5511151231257827e-17 0 1 
1 3.1415926535897931 -5.5511151231257827e-17 0 1 
1 6.2831853071795862 0.24999266655910593 -1 0 
1 0 -2.2204460492503131e-16 0 -1 
1 6.2831853071795862 -2.2204460492503131e-16 0 -1 
1 0 -2.5500073334408917 1 0 
1 6.2831853071795862 -0.2499926665591079 -1 0 
1 3.1415926535897931 0 0 1 
1 3.1415926535897931 0 0 1 
1 0 0 0 -1 
1 6.2831853071795862 0 0 -1 
1 6.2831853071795862 0.2499926665591079 -1 0 
1 3.1415926535897931 -5.5511151231257827e-17 0 -1 
1 3.1415926535897931 -5.5511151231257827e-17 0 -1 
1 6.2831853071795862 5.5511151231257827e-17 0 1 
1 0 5.5511151231257827e-17 0 1 
1 6.2831853071795862 -0.2499926665591079 -1 0 
1 0 -2.5500073334408917 1 0 
1 6.2831853071795862 0.2499926665591079 -1 0 
1 0 2.5500073334408899 1 0 
1 0 -0.24999266655911082 1 0 
1 6.2831853071795862 0.24999266655910593 -1 0 
7 0 0  3 25 23  6.2831853071795862 0.73254326488141719  6.268034045627787 0.68590257785593622  6.2375460180780236 0.59812142413156622  6.191299231048264 0.48198905692699312  6.1445783066133624 0.38037450026571096  6.0974279107402136 0.29246709465217496  6.0498951347942098 0.21757098010227724  6.0020296464011169 0.15511189005054771  5.9538833126046855 0.10462009557368289  5.9055099180821431 0.065722869490723548  5.8569648164595689 0.038137078260233298  5.8083045642776785 0.021664078767681626  5.7595865315812853 0.016186088213797852  5.7108684988848966 0.021664078767681279  5.6622082467030035 0.038137078260234776  5.6136631450804311 0.065722869490722313  5.5652897505578878 0.10462009557368618  5.5171434167614519 0.1551118900505494  5.4692779283683652 0.21757098010228082  5.4217451524223588 0.29246709465217752  5.3745947565492136 0.38037450026571429  5.3278738321143075 0.48198905692699479  5.2816270450845506 0.59812142413156988  5.251139017534789 0.68590257785594078  5.2359877559829879 0.73254326488142096 
 0 4 0.21244293419598501 1 0.42488586839197001 1 0.63732880258795499 1 0.84977173678394002 1 1.0622146709799249 1 1.27465760517591 1 1.487100539371895 1 1.69954347356788 1 1.9119864077638651 1 2.1244293419598499 1 2.3368722761558351 1 2.54931521035182 1 2.7617581445478052 1 2.97420107874379 1 3.1866440129397753 1 3.3990869471357601 1 3.6115298813317449 1 3.8239728155277302 1 4.036415749723715 1 4.2488586839196998 1 4.4613016181156855 1 4.6737445523116703 4
7 0 0  3 25 23  5.2359877559829879 0.73254326488142096  5.2208364944311878 0.68590257785594011  5.1903484668814261 0.5981214241315701  5.1441016798516648 0.48198905692699651  5.0973807554167658 0.38037450026571551  5.0502303595436135 0.29246709465217929  5.0026975835976133 0.21757098010228151  4.9548320952045204 0.15511189005055237  4.9066857614080881 0.10462009557368619  4.8583123668855448 0.065722869490727254  4.8097672652629706 0.038137078260236823  4.7611070130810829 0.02166407876768538  4.7123889803846888 0.016186088213800721  4.6636709476882983 0.021664078767685321  4.6150106955064079 0.038137078260237121  4.5664655938838354 0.065722869490725991  4.5180921993612913 0.1046200955736865  4.4699458655648563 0.15511189005055226  4.4220803771717678 0.21757098010228182  4.3745476012257631 0.29246709465217913  4.3273972053526162 0.38037450026571556  4.280676280917711 0.48198905692699673  4.234429493887955 0.59812142413156966  4.2039414663381924 0.68590257785594011  4.1887902047863914 0.73254326488142096 
 0 4 0.21244293419598501 1 0.42488586839197001 1 0.63732880258795499 1 0.84977173678394002 1 1.0622146709799249 1 1.27465760517591 1 1.487100539371895 1 1.69954347356788 1 1.9119864077638651 1 2.1244293419598499 1 2.3368722761558351 1 2.54931521035182 1 2.7617581445478052 1 2.97420107874379 1 3.1866440129397753 1 3.3990869471357601 1 3.6115298813317449 1 3.8239728155277302 1 4.036415749723715 1 4.2488586839196998 1 4.4613016181156855 1 4.6737445523116703 4
7 0 0  3 25 23  4.1887902047863896 0.73254326488142552  4.1736389432345895 0.68590257785594488  4.143150915684827 0.59812142413157465  4.0969041286550683 0.48198905692700028  4.0501832042201666 0.38037450026571962  4.003032808347017 0.29246709465218312  3.9555000324010146 0.21757098010228601  3.907634544007923 0.15511189005055542  3.8594882102114894 0.10462009557368966  3.8111148156889469 0.065722869490730584  3.7625697140663723 0.038137078260240591  3.7139094618844828 0.021664078767687452  3.6651914291880918 0.016186088213805037  3.6164733964917009 0.021664078767686612  3.5678131443098096 0.038137078260239231  3.5192680426872371 0.065722869490727656  3.4708946481646925 0.10462009557368908  3.4227483143682584 0.15511189005055184  3.3748828259751686 0.21757098010228285  3.3273500500291653 0.29246709465217702  3.2801996541560183 0.38037450026571512  3.2334787297211127 0.4819890569269929  3.1872319426913571 0.59812142413156799  3.1567439151415937 0.68590257785593767  3.1415926535897931 0.73254326488141719 
 0 4 0.21244293419598501 1 0.42488586839197001 1 0.63732880258795499 1 0.84977173678394002 1 1.0622146709799249 1 1.27465760517591 1 1.487100539371895 1 1.69954347356788 1 1.9119864077638651 1 2.1244293419598499 1 2.3368722761558351 1 2.54931521035182 1 2.7617581445478052 1 2.97420107874379 1 3.1866440129397753 1 3.3990869471357601 1 3.6115298813317449 1 3.8239728155277302 1 4.036415749723715 1 4.2488586839196998 1 4.4613016181156855 1 4.6737445523116703 4
1 0 -0.73254326488141763 1 0 
1 0 -0.73254326488141763 1 0 
7 0 0  3 25 23  3.1415926535897936 0.73254326488142629  3.126441392037993 0.68590257785594599  3.0959533644882304 0.59812142413157499  3.0497065774584735 0.48198905692699751  3.0029856530235701 0.38037450026572067  2.9558352571504201 0.2924670946521819  2.9083024812044185 0.21757098010228623  2.8604369928113269 0.15511189005055487  2.8122906590148942 0.10462009557368848  2.7639172644923504 0.065722869490729349  2.7153721628697767 0.03813707826023769  2.6667119106878872 0.021664078767686522  2.6179938779914949 0.016186088213803317  2.5692758452951034 0.021664078767685255  2.5206155931132126 0.038137078260238211  2.4720704914906397 0.065722869490728392  2.4236970969680955 0.10462009557368732  2.3755507631716619 0.15511189005055306  2.3276852747785708 0.2175709801022826  2.2801524988325692 0.29246709465217946  2.23300210295942 0.38037450026571545  2.1862811785245153 0.48198905692699645  2.1400343914947588 0.59812142413156988  2.1095463639449954 0.68590257785594044  2.0943951023931948 0.73254326488142096 
 0 4 0.21244293419598545 1 0.4248858683919709 1 0.63732880258795632 1 0.8497717367839418 1 1.0622146709799272 1 1.2746576051759126 1 1.4871005393718981 1 1.6995434735678836 1 1.9119864077638691 1 2.1244293419598543 1 2.33687227615584 1 2.5493152103518253 1 2.761758144547811 1 2.9742010787437962 1 3.1866440129397819 1 3.3990869471357672 1 3.6115298813317525 1 3.8239728155277382 1 4.0364157497237239 1 4.2488586839197087 1 4.4613016181156944 1 4.6737445523116801 4
7 0 0  3 25 23  2.0943951023931966 0.73254326488142563  2.079243840841396 0.685902577855944  2.048755813291633 0.59812142413157288  2.002509026261877 0.48198905692699884  1.955788101826972 0.38037450026571751  1.9086377059538235 0.29246709465217979  1.8611049300078213 0.21757098010228385  1.8132394416147293 0.15511189005055259  1.7650931078182961 0.10462009557368616  1.7167197132957523 0.065722869490727073  1.6681746116731793 0.038137078260235255  1.6195143594912875 0.021664078767684669  1.570796326794897 0.016186088213799299  1.5220782940985058 0.021664078767684711  1.4734180419166141 0.038137078260235158  1.4248729402940412 0.065722869490727309  1.376499545771497 0.10462009557368543  1.3283532119750632 0.15511189005055245  1.2804877235819723 0.21757098010228254  1.2329549476359698 0.29246709465218029  1.1858045517628215 0.38037450026571668  1.1390836273279163 0.48198905692700023  1.0928368402981605 0.59812142413157177  1.0623488127483969 0.68590257785594322  1.0471975511965965 0.73254326488142563 
 0 4 0.21244293419598545 1 0.4248858683919709 1 0.63732880258795632 1 0.8497717367839418 1 1.0622146709799272 1 1.2746576051759126 1 1.4871005393718981 1 1.6995434735678836 1 1.9119864077638691 1 2.1244293419598543 1 2.33687227615584 1 2.5493152103518253 1 2.761758144547811 1 2.9742010787437962 1 3.1866440129397819 1 3.3990869471357672 1 3.6115298813317525 1 3.8239728155277382 1 4.0364157497237239 1 4.2488586839197087 1 4.4613016181156944 1 4.6737445523116801 4
7 0 0  3 25 23  1.0471975511965994 0.73254326488142874  1.0320462896447991 0.68590257785594777  1.0015582620950361 0.59812142413157698  0.95531147506527925 0.4819890569270025  0.90859055063037475 0.38037450026571701  0.86144015475722624 0.29246709465218218  0.81390737881122388 0.2175709801022841  0.76604189041813286 0.15511189005055373  0.71789555662169935 0.10462009557368579  0.66952216209915505 0.065722869490727434  0.62097706047658208 0.038137078260234207  0.57231680829469078 0.021664078767683882  0.52359877559829937 0.0161860882137989  0.47488074290190857 0.021664078767682501  0.42622049072001683 0.038137078260235185  0.37767538909744391 0.06572286949072477  0.32930199457489945 0.10462009557368628  0.28115566077846571 0.15511189005055159  0.23329017238537503 0.21757098010228051  0.18575739643937234 0.29246709465218002  0.1386070005662241 0.38037450026571495  0.091886076131318883 0.48198905692699906  0.045639289101562314 0.59812142413157365  0.01515126155179977 0.68590257785594488  0 0.73254326488142629 
 0 4 0.21244293419598589 1 0.42488586839197179 1 0.63732880258795765 1 0.84977173678394358 1 1.0622146709799294 1 1.2746576051759153 1 1.4871005393719012 1 1.6995434735678872 1 1.9119864077638731 1 2.1244293419598588 1 2.3368722761558449 1 2.5493152103518306 1 2.7617581445478168 1 2.9742010787438025 1 3.1866440129397886 1 3.3990869471357743 1 3.61152988133176 1 3.8239728155277461 1 4.0364157497237318 1 4.2488586839197175 1 4.4613016181157041 1 4.6737445523116898 4
Curves 40
1 3.9844010767585001 -1.6746943682284201e-16 5.2337283675592898 -0.86602540378443882 1.3666918005016099e-16 0.49999999999999989 
7 1 0  2 3 2  4.6188021535170103 -3.04814861978147e-15 4.86745673511858  1 3.4641016151377499 2 5.5341234017852496  1.1547005383792499 2.3094010767584998 4 4.86745673511858  1
 0 3 4.6737445523116801 3
7 1 0  2 3 2  2.30940107675851 4 4.86745673511858  1 0 4 5.5341234017852496  1.1547005383792499 -2.30940107675851 4 4.86745673511858  1
 0 3 4.6737445523116801 3
7 1 0  2 3 2  -2.3094010767584998 4 4.86745673511858  1 -3.4641016151377499 2 5.5341234017852496  1.1547005383792599 -4.6188021535170103 -1.2463569433088601e-15 4.86745673511858  1
 0 3 4.6737445523116801 3
1 -3.9844010767585001 8.0839513813219497e-16 5.2337283675592898 -0.86602540378443882 7.5438862359041891e-17 -0.49999999999999989 
2 0 3.4288977907026602e-16 5.5999999999999996 0 -6.12303176911189e-17 -1 1 0 0 0 -1 6.12303176911189e-17 3.3500000000000001
1 3.9844010767585001 -4.6550535906192901e-16 0.36627163244070998 0.86602540378443882 -7.5438862359041891e-17 0.49999999999999989 
2 0 0 0 -0 6.12303176911189e-17 1 1 0 0 0 1 -6.12303176911189e-17 3.3500000000000001
1 -3.9844010767585001 5.10359215893108e-16 0.36627163244070998 0.86602540378443882 -1.3666918005016099e-16 -0.49999999999999989 
7 1 0  2 3 2  -4.6188021535169996 2.3614431551530999e-15 0.73254326488141996  1 -3.4641016151377499 2 0.065876598214753196  1.1547005383792499 -2.3094010767584998 4 0.73254326488141996  1
 0 3 4.6737445523116703 3
7 1 0  2 3 2  -2.3094010767584998 4 0.73254326488141996  1 0 4 0.065876598214753501  1.1547005383792499 2.3094010767584998 4 0.73254326488141996  1
 0 3 4.6737445523116703 3
7 1 0  2 3 2  2.3094010767584998 4 0.73254326488141996  1 3.4641016151377499 2 0.065876598214754098  1.1547005383792499 4.6188021535169996 1.3318479114544699e-15 0.73254326488141996  1
 0 3 4.6737445523116703 3
2 0 3.2758264867640101e-16 5.3500073334408897 -0 6.12303176911189e-17 1 1 0 0 0 1 -6.12303176911189e-17 2.0670000000000002
1 -2.2835000000000001 6.1487507476867299e-16 5.4750036667204496 -0.86602540378443849 1.3666918005016109e-16 0.50000000000000033 
2 0 3.4288977907026602e-16 5.5999999999999996 0 -6.12303176911189e-17 -1 1 0 0 0 -1 6.12303176911189e-17 2.5
1 2.2835000000000001 5.5597352977993702e-17 5.4750036667204496 -0.86602540378443849 7.5438862359041841e-17 -0.50000000000000033 
2 0 1.5307130393864101e-17 0.24999266655910801 -0 6.12303176911189e-17 1 1 0 0 0 1 -6.12303176911189e-17 2.0670000000000002
1 -2.0670000000000002 4.2457102287021802e-16 2.7999999999999998 -0 6.12303176911189e-17 1 
1 2.0670000000000002 -8.1681243799952498e-17 2.7999999999999998 -0 -6.12303176911189e-17 -1 
2 0 0 0 -0 6.12303176911189e-17 1 1 0 0 0 1 -6.12303176911189e-17 2.5
1 -2.2835000000000001 2.8729242609227198e-16 0.12499633327955401 0.86602540378443882 -7.5438862359041891e-17 0.49999999999999989 
1 2.2835000000000001 -2.7198529569840801e-16 0.12499633327955401 0.86602540378443882 -1.3666918005016099e-16 -0.49999999999999989 
2 0 1.5307130393864101e-17 0.24999266655910801 -0 6.12303176911189e-17 1 1 0 0 0 1 -6.12303176911189e-17 2.0670000000000002
2 0 0 0 -0 6.12303176911189e-17 1 1 0 0 0 1 -6.12303176911189e-17 2.5
2 0 3.2758264867640101e-16 5.3500073334408897 -0 6.12303176911189e-17 1 1 0 0 0 1 -6.12303176911189e-17 2.0670000000000002
2 0 3.4288977907026602e-16 5.5999999999999996 0 -6.12303176911189e-17 -1 1 0 0 0 -1 6.12303176911189e-17 2.5
7 1 0  2 3 2  4.6188021535169996 -7.27342575942796e-16 0.73254326488141996  1 3.4641016151377499 -2 0.065876598214753807  1.1547005383792499 2.3094010767584998 -4 0.73254326488141996  1
 0 3 4.6737445523116703 3
7 1 0  2 3 2  2.3094010767584998 -4 0.73254326488141996  1 -4.8986223518993397e-16 -4 0.065876598214753099  1.1547005383792499 -2.3094010767584998 -4 0.73254326488141996  1
 0 3 4.6737445523116703 3
7 1 0  2 3 2  -2.30940107675851 -4 0.73254326488141996  1 -3.4641016151377602 -2 0.065876598214754306  1.1547005383792499 -4.6188021535169996 3.02252667755837e-16 0.73254326488141996  1
 0 3 4.6737445523116703 3
2 0 0 0 -0 6.12303176911189e-17 1 1 0 0 0 1 -6.12303176911189e-17 3.3500000000000001
2 0 3.4288977907026602e-16 5.5999999999999996 0 -6.12303176911189e-17 -1 1 0 0 0 -1 6.12303176911189e-17 3.3500000000000001
7 1 0  2 3 2  -4.6188021535170103 3.1294228424103299e-15 4.86745673511858  1 -3.4641016151377602 -2 5.5341234017852496  1.1547005383792499 -2.3094010767584998 -4 4.86745673511858  1
 0 3 4.6737445523116801 3
7 1 0  2 3 2  -2.30940107675851 -4 4.86745673511858  1 -6.6613381477509402e-16 -4 5.5341234017852496  1.1547005383792499 2.30940107675851 -4 4.86745673511858  1
 0 3 4.6737445523116801 3
7 1 0  2 3 2  2.3094010767584998 -4.0000000000000098 4.86745673511858  1 3.4641016151377499 -2 5.5341234017852496  1.1547005383792499 4.6188021535170103 5.7034109516569202e-15 4.86745673511858  1
 0 3 4.6737445523116898 3
1 -2.3094010767584998 4 -2.4492127076447501e-16 0 6.12303176911189e-17 1 
1 -4.6188021535170103 8.4844151008451596e-16 -5.1950343204807503e-32 0 6.12303176911189e-17 1 
1 2.3094010767584998 4 -2.4492127076447501e-16 0 6.12303176911189e-17 1 
1 4.6188021535170103 -2.8282006365997501e-16 1.73171623473227e-32 0 6.12303176911189e-17 1 
1 2.3094010767584998 -4 2.4492127076447501e-16 0 6.12303176911189e-17 1 
1 -2.30940107675851 -4 2.4492127076447501e-16 0 6.12303176911189e-17 1 
Polygon3D 0
PolygonOnTriangulations 0
Surfaces 18
3 0 3.2046285065467602e-16 5.2337283675592898 0 -6.12303176911189e-17 -1 1 0 0 0 -1 6.12303176911189e-17 3.9844010767585001
1.0471975511966001
3 0 3.2046285065467602e-16 5.2337283675592898 0 -6.12303176911189e-17 -1 1 0 0 0 -1 6.12303176911189e-17 3.9844010767585001
1.0471975511966001
1 3.4641016151377499 2 -1.22460635382238e-16 0.86602540378443882 0.49999999999999989 -3.0615158845559394e-17 -0.49999999999999989 0.86602540378443882 -5.3027010602300679e-17 -2.4651903288156613e-32 6.1230317691118851e-17 1 
1 8.8817841970012504e-16 4 -2.4492127076447501e-16 0 1 -6.12303176911189e-17 -1 0 0 0 6.12303176911189e-17 1 
1 -3.4641016151377499 2 -1.22460635382238e-16 -0.86602540378443849 0.50000000000000033 -3.0615158845559419e-17 -0.50000000000000033 -0.86602540378443849 5.3027010602300741e-17 7.0874221953450279e-32 6.1230317691118925e-17 1 
1 2.8596653664587399e-16 3.4288977907026602e-16 5.5999999999999996 0 6.12303176911189e-17 1 0 -1 6.12303176911189e-17 1 0 -0 
3 0 2.2426928415589401e-17 0.36627163244070998 -0 6.12303176911189e-17 1 1 0 0 0 1 -6.12303176911189e-17 3.9844010767585001
1.0471975511966001
3 0 2.2426928415589401e-17 0.36627163244070998 -0 6.12303176911189e-17 1 1 0 0 0 1 -6.12303176911189e-17 3.9844010767585001
1.0471975511966001
1 2.8596653664587399e-16 0 0 0 6.12303176911189e-17 1 0 -1 6.12303176911189e-17 1 0 -0 
3 0 3.3523621387333401e-16 5.4750036667204496 -0 6.12303176911189e-17 1 1 0 0 0 1 -6.12303176911189e-17 2.2835000000000001
1.0471975511966001
2 0 1.7144488953513301e-16 2.7999999999999998 -0 6.12303176911189e-17 1 1 0 0 0 1 -6.12303176911189e-17 2.0670000000000002
3 0 3.3523621387333401e-16 5.4750036667204496 -0 6.12303176911189e-17 1 1 0 0 0 1 -6.12303176911189e-17 2.2835000000000001
1.0471975511966001
3 0 7.6535651969320599e-18 0.12499633327955401 0 -6.12303176911189e-17 -1 1 0 0 0 -1 6.12303176911189e-17 2.2835000000000001
1.0471975511966001
2 0 1.7144488953513301e-16 2.7999999999999998 -0 6.12303176911189e-17 1 1 0 0 0 1 -6.12303176911189e-17 2.0670000000000002
3 0 7.6535651969320599e-18 0.12499633327955401 0 -6.12303176911189e-17 -1 1 0 0 0 -1 6.12303176911189e-17 2.2835000000000001
1.0471975511966001
1 3.4641016151377499 -2 1.22460635382238e-16 0.86602540378443882 -0.49999999999999989 3.0615158845559394e-17 0.49999999999999989 0.86602540378443882 -5.3027010602300679e-17 2.4651903288156613e-32 6.1230317691118851e-17 1 
1 -1.7763568394002501e-15 -4 2.4492127076447501e-16 -1.9229626863835601e-16 -1 6.12303176911189e-17 1 -1.9229626863835601e-16 1.1774361619543299e-32 -1.642146637880645e-47 6.12303176911189e-17 1 
1 -3.4641016151377602 -2 1.22460635382238e-16 -0.86602540378443882 -0.49999999999999989 3.0615158845559394e-17 0.49999999999999989 -0.86602540378443882 5.3027010602300679e-17 -2.4651903288156613e-32 6.1230317691118851e-17 1 
Triangulations 0

TShapes 104
Ve
1e-07
4.61880215351701 2.98035922239087e-16 4.86745673511858
0 0

0101101
*
Ve
1e-07
3.35 3.42889779070266e-16 5.6
0 0

0101101
*
Ed
 1e-07 1 1 0
1  1 0 -0.732543264881427 0.732543264881418
2  1 1 0 -0.732543264881427 0.732543264881418
2  2 2 0 -0.732543264881427 0.732543264881418
4 CN 1 0 2 0
0

0101000
+104 0 -103 0 *
Ve
1e-07
2.3094010767585 4 4.86745673511858
0 0

0101101
*
Ed
 1e-07 1 1 0
1  2 0 0 4.67374455231168
2  3 1 0 0 4.67374455231168
4 C0 1 0 3 0
0

0101000
+104 0 -101 0 *
Ve
1e-07
-2.3094010767585 4 4.86745673511858
0 0

0101101
*
Ed
 1e-07 1 1 0
1  3 0 0 4.67374455231168
2  4 1 0 0 4.67374455231168
4 C0 1 0 4 0
0

0101000
+101 0 -99 0 *
Ve
1e-07
-4.61880215351701 2.29643736656437e-15 4.86745673511858
0 0

0101101
*
Ed
 1e-07 1 1 0
1  4 0 0 4.67374455231168
2  5 1 0 0 4.67374455231168
4 C0 1 0 5 0
0

0101000
+99 0 -97 0 *
Ve
1e-07
-3.35 7.53132907600762e-16 5.6
0 0

0101101
*
Ed
 1e-07 1 1 0
1  5 0 -0.732543264881418 0.732543264881427
2  6 1 0 -0.732543264881418 0.732543264881427
2  7 2 0 -0.732543264881418 0.732543264881427
4 CN 1 0 2 0
0

0101000
+95 0 -97 0 *
Ed
 1e-07 1 1 0
1  6 0 3.14159265358979 6.28318530717959
2  8 1 0 3.14159265358979 6.28318530717959
4 C0 1 0 6 0
0

0101000
+95 0 -103 0 *
Wi

0101100
-102 0 +100 0 +98 0 +96 0 -94 0 +93 0 *
Fa
0  1e-07 1 0

0111000
+92 0 *
Ve
1e-07
3.35 0 0
0 0

0101101
*
Ve
1e-07
4.61880215351701 4.48538568311788e-17 0.73254326488142
0 0

0101101
*
Ed
 1e-07 1 1 0
1  7 0 -0.732543264881418 0.732543264881427
2  9 7 0 -0.732543264881418 0.732543264881427
2  10 8 0 -0.732543264881418 0.732543264881427
4 CN 7 0 8 0
0

0101000
+90 0 -89 0 *
Ve
1e-07
-3.35 4.10243128530497e-16 -2.51193170905208e-32
0 0

0101101
*
Ed
 1e-07 1 1 0
1  8 0 0 3.14159265358979
2  11 7 0 0 3.14159265358979
4 C0 7 0 9 0
0

0101000
+90 0 -87 0 *
Ve
1e-07
-4.61880215351701 2.04325530115646e-15 0.73254326488142
0 0

0101101
*
Ed
 1e-07 1 1 0
1  9 0 -0.732543264881427 0.732543264881418
2  12 7 0 -0.732543264881427 0.732543264881418
2  13 8 0 -0.732543264881427 0.732543264881418
4 CN 7 0 8 0
0

0101000
+85 0 -87 0 *
Ve
1e-07
-2.3094010767585 4 0.73254326488142
0 0

0101101
*
Ed
 1e-07 1 1 0
1  10 0 0 4.67374455231167
2  14 7 0 0 4.67374455231167
4 C0 7 0 5 0
0

0101000
+85 0 -83 0 *
Ve
1e-07
2.3094010767585 4 0.73254326488142
0 0

0101101
*
Ed
 1e-07 1 1 0
1  11 0 0 4.67374455231167
2  15 7 0 0 4.67374455231167
4 C0 7 0 4 0
0

0101000
+83 0 -81 0 *
Ed
 1e-07 1 1 0
1  12 0 0 4.67374455231167
2  16 7 0 0 4.67374455231167
4 C0 7 0 3 0
0

0101000
+81 0 -89 0 *
Wi

0101100
-88 0 +86 0 -84 0 +82 0 +80 0 +79 0 *
Fa
0  1e-07 7 0

0111000
+78 0 *
Ve
1e-07
2.067 3.27582648676401e-16 5.35000733344089
0 0

0101101
*
Ve
1e-07
-2.067 5.80708782011487e-16 5.35000733344089
0 0

0101101
*
Ed
 1e-07 1 1 0
1  13 0 0 3.14159265358979
2  17 10 0 0 3.14159265358979
2  18 11 0 0 3.14159265358979
4 C0 10 0 11 0
0

0101000
+76 0 -75 0 *
Ve
1e-07
-2.5 6.4904136752586e-16 5.6
0 0

0101101
*
Ed
 1e-07 1 1 0
1  14 0 -0.249992666559111 0.249992666559106
2  19 10 0 -0.249992666559111 0.249992666559106
2  20 12 0 -0.249992666559111 0.249992666559106
4 CN 10 0 12 0
0

0101000
+75 0 -73 0 *
Ve
1e-07
2.5 3.42889779070266e-16 5.6
0 0

0101101
*
Ed
 1e-07 1 1 0
1  15 0 3.14159265358979 6.28318530717959
2  21 10 0 3.14159265358979 6.28318530717959
4 C0 10 0 6 0
0

0101000
+73 0 -71 0 *
Ed
 1e-07 1 1 0
1  16 0 -0.249992666559106 0.249992666559111
2  22 10 0 -0.249992666559106 0.249992666559111
2  23 12 0 -0.249992666559106 0.249992666559111
4 CN 10 0 12 0
0

0101000
+71 0 -76 0 *
Wi

0101100
+74 0 +72 0 +70 0 +69 0 *
Fa
0  1e-07 10 0

0111000
+68 0 *
Ve
1e-07
2.067 1.53071303938641e-17 0.249992666559108
0 0

0101101
*
Ve
1e-07
-2.067 2.6843326372895e-16 0.249992666559108
0 0

0101101
*
Ed
 1e-07 1 1 0
1  17 0 0 3.14159265358979
2  24 11 0 0 3.14159265358979
2  25 13 0 0 3.14159265358979
4 C0 11 0 13 0
0

0101000
+66 0 -65 0 *
Ed
 1e-07 1 1 0
1  18 0 -2.55000733344089 2.55000733344089
2  26 11 0 -2.55000733344089 2.55000733344089
2  27 14 0 -2.55000733344089 2.55000733344089
4 CN 11 0 14 0
0

0101000
+65 0 -75 0 *
Ed
 1e-07 1 1 0
1  19 0 -2.55000733344089 2.55000733344089
2  28 11 0 -2.55000733344089 2.55000733344089
2  29 14 0 -2.55000733344089 2.55000733344089
4 CN 11 0 14 0
0

0101000
+76 0 -66 0 *
Wi

0101100
+64 0 +63 0 -74 0 +62 0 *
Fa
0  1e-07 11 0

0111000
+61 0 *
Ve
1e-07
2.5 0 0
0 0

0101101
*
Ve
1e-07
-2.5 3.06151588455594e-16 -1.87457590227767e-32
0 0

0101101
*
Ed
 1e-07 1 1 0
1  20 0 0 3.14159265358979
2  30 13 0 0 3.14159265358979
4 C0 13 0 9 0
0

0101000
+59 0 -58 0 *
Ed
 1e-07 1 1 0
1  21 0 -0.249992666559108 0.249992666559108
2  31 13 0 -0.249992666559108 0.249992666559108
2  32 15 0 -0.249992666559108 0.249992666559108
4 CN 13 0 15 0
0

0101000
+58 0 -65 0 *
Ed
 1e-07 1 1 0
1  22 0 -0.249992666559108 0.249992666559108
2  33 13 0 -0.249992666559108 0.249992666559108
2  34 15 0 -0.249992666559108 0.249992666559108
4 CN 13 0 15 0
0

0101000
+66 0 -59 0 *
Wi

0101100
+57 0 +56 0 -64 0 +55 0 *
Fa
0  1e-07 13 0

0111000
+54 0 *
Ed
 1e-07 1 1 0
1  23 0 3.14159265358979 6.28318530717959
2  35 15 0 3.14159265358979 6.28318530717959
2  36 14 0 3.14159265358979 6.28318530717959
4 C0 15 0 14 0
0

0101000
+65 0 -66 0 *
Ed
 1e-07 1 1 0
1  24 0 3.14159265358979 6.28318530717959
2  37 15 0 3.14159265358979 6.28318530717959
4 C0 15 0 9 0
0

0101000
+58 0 -59 0 *
Wi

0101100
-52 0 -56 0 +51 0 -55 0 *
Fa
0  1e-07 15 0

0111000
+50 0 *
Ed
 1e-07 1 1 0
1  25 0 3.14159265358979 6.28318530717959
2  38 14 0 3.14159265358979 6.28318530717959
2  39 12 0 3.14159265358979 6.28318530717959
4 C0 14 0 12 0
0

0101000
+75 0 -76 0 *
Wi

0101100
-48 0 -63 0 +52 0 -62 0 *
Fa
0  1e-07 14 0

0111000
+47 0 *
Ed
 1e-07 1 1 0
1  26 0 0 3.14159265358979
2  40 12 0 0 3.14159265358979
4 C0 12 0 6 0
0

0101000
+71 0 -73 0 *
Wi

0101100
+45 0 -72 0 +48 0 -69 0 *
Fa
0  1e-07 12 0

0111000
+44 0 *
Ve
1e-07
2.3094010767585 -4 0.73254326488142
0 0

0101101
*
Ed
 1e-07 1 1 0
1  27 0 0 4.67374455231167
2  41 8 0 0 4.67374455231167
4 C0 8 0 16 0
0

0101000
+89 0 -42 0 *
Ve
1e-07
-2.30940107675851 -4 0.73254326488142
0 0

0101101
*
Ed
 1e-07 1 1 0
1  28 0 0 4.67374455231167
2  42 8 0 0 4.67374455231167
4 C0 8 0 17 0
0

0101000
+42 0 -40 0 *
Ed
 1e-07 1 1 0
1  29 0 0 4.67374455231167
2  43 8 0 0 4.67374455231167
4 C0 8 0 18 0
0

0101000
+40 0 -85 0 *
Ed
 1e-07 1 1 0
1  30 0 3.14159265358979 6.28318530717959
2  44 8 0 3.14159265358979 6.28318530717959
4 C0 8 0 9 0
0

0101000
+87 0 -90 0 *
Wi

0101100
+88 0 +41 0 +39 0 +38 0 +84 0 +37 0 *
Fa
0  1e-07 8 0

0111000
+36 0 *
Ed
 1e-07 1 1 0
1  31 0 0 3.14159265358979
2  45 2 0 0 3.14159265358979
4 C0 2 0 6 0
0

0101000
+103 0 -95 0 *
Ve
1e-07
-2.30940107675851 -4 4.86745673511858
0 0

0101101
*
Ed
 1e-07 1 1 0
1  32 0 0 4.67374455231168
2  46 2 0 0 4.67374455231168
4 C0 2 0 18 0
0

0101000
+97 0 -33 0 *
Ve
1e-07
2.3094010767585 -4 4.86745673511858
0 0

0101101
*
Ed
 1e-07 1 1 0
1  33 0 0 4.67374455231168
2  47 2 0 0 4.67374455231168
4 C0 2 0 17 0
0

0101000
+33 0 -31 0 *
Ed
 1e-07 1 1 0
1  34 0 0 4.67374455231169
2  48 2 0 0 4.67374455231169
4 C0 2 0 16 0
0

0101000
+31 0 -104 0 *
Wi

0101100
+102 0 +34 0 +94 0 +32 0 +30 0 +29 0 *
Fa
0  1e-07 2 0

0111000
+28 0 *
Ed
 1e-07 1 1 0
1  35 0 0.73254326488142 4.86745673511858
4 C0 5 0 4 0
0

0101000
+83 0 -99 0 *
Ed
 1e-07 1 1 0
1  36 0 0.73254326488142 4.86745673511858
4 C0 5 0 18 0
0

0101000
+85 0 -97 0 *
Wi

0101100
-96 0 -26 0 -82 0 +25 0 *
Fa
0  1e-07 5 0

0111000
+24 0 *
Ed
 1e-07 1 1 0
1  37 0 0.73254326488142 4.86745673511858
4 C0 4 0 3 0
0

0101000
+81 0 -101 0 *
Wi

0101100
-98 0 -22 0 -80 0 +26 0 *
Fa
0  1e-07 4 0

0111000
+21 0 *
Ed
 1e-07 1 1 0
1  38 0 0.73254326488142 4.86745673511858
4 C0 3 0 16 0
0

0101000
+89 0 -104 0 *
Wi

0101100
-100 0 -19 0 -79 0 +22 0 *
Fa
0  1e-07 3 0

0111000
+18 0 *
Ed
 1e-07 1 1 0
1  39 0 0.73254326488142 4.86745673511858
4 C0 16 0 17 0
0

0101000
+42 0 -31 0 *
Wi

0101100
-29 0 -16 0 -41 0 +19 0 *
Fa
0  1e-07 16 0

0111000
+15 0 *
Wi

0101100
+57 0 +51 0 *
Wi

0101100
-86 0 -37 0 *
Fa
0  1e-07 9 0

0111000
-13 0 -12 0 *
Wi

0101100
+45 0 +70 0 *
Wi

0101100
-34 0 -93 0 *
Fa
0  1e-07 6 0

0111000
+10 0 +9 0 *
Ed
 1e-07 1 1 0
1  40 0 0.73254326488142 4.86745673511858
4 C0 17 0 18 0
0

0101000
+40 0 -33 0 *
Wi

0101100
-30 0 -7 0 -39 0 +16 0 *
Fa
0  1e-07 17 0

0111000
+6 0 *
Wi

0101100
-32 0 -25 0 -38 0 +7 0 *
Fa
0  1e-07 18 0

0111000
+4 0 *
Sh

0101100
+91 0 +77 0 -67 0 -60 0 -53 0 -49 0 -46 0 -43 0 +35 0 +27 0 
+23 0 +20 0 +17 0 +14 0 -11 0 +8 0 +5 0 +3 0 *
So

0100000
+2 0 *

+1 0 