DBRep_DrawableShape

CASCADE Topology V1, (c) Matra-Datavision
Locations 0
Curve2ds 24
1 0 -0.13395254086102662 1 0 
1 0 0.31056249999999996 1 0 
1 3.1415926535897931 -5.5511151231257827e-17 0 1 
1 3.1415926535897931 -5.5511151231257827e-17 0 1 
1 6.2831853071795862 0.13395254086102662 -1 0 
1 0 -2.7755575615628914e-17 0 -1 
1 6.2831853071795862 -2.7755575615628914e-17 0 -1 
1 0 -0.31056249999999996 1 0 
1 6.2831853071795862 -0.13395254086102656 -1 0 
1 3.1415926535897931 0 0 1 
1 3.1415926535897931 0 0 1 
1 0 0 0 -1 
1 6.2831853071795862 0 0 -1 
1 6.2831853071795862 0.13395254086102665 -1 0 
1 3.1415926535897931 0 0 -1 
1 3.1415926535897931 0 0 -1 
1 6.2831853071795862 0 0 1 
1 0 0 0 1 
1 6.2831853071795862 -0.13395254086102656 -1 0 
1 0 -0.31056249999999996 1 0 
1 6.2831853071795862 0.13395254086102665 -1 0 
1 0 0.31056249999999996 1 0 
1 0 -0.13395254086102662 1 0 
1 6.2831853071795862 0.13395254086102662 -1 0 
Curves 32
2 0 4.9630999383507499e-17 0.81056249999999996 -0 6.12303176911189e-17 1 1 0 0 0 1 -6.12303176911189e-17 0.61056250000000001
1 -0.70528124999999997 1.4179984853549199e-16 0.90528125000000004 -0.70710678118654757 1.298891185607899e-16 0.70710678118654757 
2 0 6.12303176911189e-17 1 0 -6.12303176911189e-17 -1 1 0 0 0 -1 6.12303176911189e-17 0.80000000000000004
1 0.70528124999999997 -3.0938531460865703e-17 0.90528125000000004 -0.70710678118654757 4.3296372853596771e-17 -0.70710678118654757 
2 0 1.15993183076113e-17 0.18943750000000001 -0 6.12303176911189e-17 1 1 0 0 0 1 -6.12303176911189e-17 0.61056250000000001
1 -0.61056250000000001 1.05385030536127e-16 0.5 -0 6.12303176911189e-17 1 
1 0.61056250000000001 -4.4154712845008097e-17 0.5 -0 -6.12303176911189e-17 -1 
2 0 0 0 -0 6.12303176911189e-17 1 1 0 0 0 1 -6.12303176911189e-17 0.80000000000000004
1 -0.70528124999999997 9.2168849151984498e-17 0.094718750000000004 0.70710678118654702 -4.3296372853596802e-17 0.70710678118654802 
1 0.70528124999999997 -8.0569530844373201e-17 0.094718750000000004 0.70710678118654702 -1.2988911856079e-16 -0.70710678118654802 
2 0 1.15993183076113e-17 0.18943750000000001 -0 6.12303176911189e-17 1 1 0 0 0 1 -6.12303176911189e-17 0.61056250000000001
2 0 0 0 -0 6.12303176911189e-17 1 1 0 0 0 1 -6.12303176911189e-17 0.80000000000000004
2 0 4.9630999383507499e-17 0.81056249999999996 -0 6.12303176911189e-17 1 1 0 0 0 1 -6.12303176911189e-17 0.61056250000000001
2 0 6.12303176911189e-17 1 0 -6.12303176911189e-17 -1 1 0 0 0 -1 6.12303176911189e-17 0.80000000000000004
1 0.92376043070340097 -1.6000000000000001 1 -0.49999999999999989 -0.86602540378443882 5.3027010602300686e-17 
1 0.92376043070340097 -1.6000000000000001 9.7968508305790195e-17 0 6.12303176911189e-17 1 
1 0.92376043070340097 -1.6000000000000001 9.7968508305790195e-17 0.49999999999999989 0.86602540378443882 -5.3027010602300686e-17 
1 1.8475208614067999 -1.1312802546399e-16 6.9268649389290997e-33 0 6.12303176911189e-17 1 
1 -0.92376043070340197 -1.6000000000000001 1 -1 2.4037033579794502e-16 -1.4717952024429101e-32 
1 -0.92376043070340197 -1.6000000000000001 9.7968508305790097e-17 0 6.12303176911189e-17 1 
1 -0.92376043070340197 -1.6000000000000001 9.7968508305790097e-17 1 -2.4037033579794502e-16 1.4717952024429101e-32 
1 -1.8475208614067999 4.0060692172492501e-16 1 -0.49999999999999989 0.86602540378443882 -5.3027010602300686e-17 
1 -1.8475208614067999 3.39376604033806e-16 -2.0780137281923001e-32 0 6.12303176911189e-17 1 
1 -1.8475208614067999 3.39376604033806e-16 -2.0780137281923001e-32 0.49999999999999989 -0.86602540378443882 5.3027010602300686e-17 
1 -0.92376043070340097 1.6000000000000001 1 0.50000000000000033 0.86602540378443849 -5.3027010602300729e-17 
1 -0.92376043070340097 1.6000000000000001 -9.7968508305790195e-17 0 6.12303176911189e-17 1 
1 -0.92376043070340097 1.6000000000000001 -9.7968508305790195e-17 -0.50000000000000033 -0.86602540378443849 5.3027010602300729e-17 
1 0.92376043070340097 1.6000000000000001 1 1 0 0 
1 0.92376043070340097 1.6000000000000001 -9.7968508305790195e-17 0 6.12303176911189e-17 1 
1 0.92376043070340097 1.6000000000000001 -9.7968508305790195e-17 -1 0 0 
1 1.8475208614067999 -5.1897707772871199e-17 1 0.49999999999999983 -0.86602540378443871 5.3027010602300679e-17 
1 1.8475208614067999 -1.1312802546399e-16 6.9268649389290997e-33 -0.49999999999999989 0.86602540378443882 -5.3027010602300686e-17 
Polygon3D 0
PolygonOnTriangulations 0
Surfaces 14
3 0 5.5430658537313202e-17 0.90528125000000004 -0 6.12303176911189e-17 1 1 0 0 0 1 -6.12303176911189e-17 0.70528124999999997
0.78539816339744795
2 0 3.0615158845559401e-17 0.5 -0 6.12303176911189e-17 1 1 0 0 0 1 -6.12303176911189e-17 0.61056250000000001
3 0 5.5430658537313202e-17 0.90528125000000004 -0 6.12303176911189e-17 1 1 0 0 0 1 -6.12303176911189e-17 0.70528124999999997
0.78539816339744795
1 -8.8313195140637497e-17 -1.05303136002655e-16 1 0 6.12303176911189e-17 1 0 -1 6.12303176911189e-17 1 0 -0 
3 0 5.7996591538056598e-18 0.094718750000000004 0 -6.12303176911189e-17 -1 1 0 0 0 -1 6.12303176911189e-17 0.70528124999999997
0.78539816339744795
2 0 3.0615158845559401e-17 0.5 -0 6.12303176911189e-17 1 1 0 0 0 1 -6.12303176911189e-17 0.61056250000000001
1 -8.8313195140637497e-17 -1.6653345369377299e-16 1.0196896275869e-32 0 6.12303176911189e-17 1 0 -1 6.12303176911189e-17 1 0 -0 
3 0 5.7996591538056598e-18 0.094718750000000004 0 -6.12303176911189e-17 -1 1 0 0 0 -1 6.12303176911189e-17 0.70528124999999997
0.78539816339744795
1 1.3856406460551001 -0.80000000000000004 4.8984254152895098e-17 0.86602540378443882 -0.49999999999999989 3.0615158845559394e-17 0.49999999999999989 0.86602540378443882 -5.3027010602300679e-17 2.4651903288156613e-32 6.1230317691118851e-17 1 
1 -5.5511151231257797e-16 -1.6000000000000001 9.7968508305790195e-17 -2.4037033579794502e-16 -1 6.12303176911189e-17 1 -2.4037033579794502e-16 1.4717952024429101e-32 2.7369110631344083e-48 6.12303176911189e-17 1 
1 1.3856406460551001 0.80000000000000004 -4.8984254152895098e-17 0.86602540378443882 0.49999999999999989 -3.0615158845559394e-17 -0.49999999999999989 0.86602540378443882 -5.3027010602300679e-17 -2.4651903288156613e-32 6.1230317691118851e-17 1 
1 -1.3856406460551001 -0.80000000000000004 4.8984254152895098e-17 -0.86602540378443882 -0.49999999999999989 3.0615158845559394e-17 0.49999999999999989 -0.86602540378443882 5.3027010602300679e-17 -2.4651903288156613e-32 6.1230317691118851e-17 1 
1 -1.3856406460551001 0.80000000000000004 -4.8984254152895098e-17 -0.86602540378443849 0.50000000000000033 -3.0615158845559419e-17 -0.50000000000000033 -0.86602540378443849 5.3027010602300741e-17 7.0874221953450279e-32 6.1230317691118925e-17 1 
1 3.3306690738754701e-16 1.6000000000000001 -9.7968508305790195e-17 0 1 -6.12303176911189e-17 -1 0 0 0 6.12303176911189e-17 1 
Triangulations 0

TShapes 84
Ve
1e-07
0.6105625 4.96309993835075e-17 0.8105625
0 0

0101101
*
Ve
1e-07
-0.6105625 1.24400871074075e-16 0.8105625
0 0

0101101
*
Ed
 1e-07 1 1 0
1  1 0 0 3.14159265358979
2  1 1 0 0 3.14159265358979
2  2 2 0 0 3.14159265358979
4 C0 1 0 2 0
0

0101000
+84 0 -83 0 *
Ve
1e-07
-0.8 1.59198825996909e-16 1
0 0

0101101
*
Ed
 1e-07 1 1 0
1  2 0 -0.133952540861027 0.133952540861027
2  3 1 0 -0.133952540861027 0.133952540861027
2  4 3 0 -0.133952540861027 0.133952540861027
4 CN 1 0 3 0
0

0101000
+83 0 -81 0 *
Ve
1e-07
0.8 6.12303176911189e-17 1
0 0

0101101
*
Ed
 1e-07 1 1 0
1  3 0 3.14159265358979 6.28318530717959
2  5 1 0 3.14159265358979 6.28318530717959
4 C0 1 0 4 0
0

0101000
+81 0 -79 0 *
Ed
 1e-07 1 1 0
1  4 0 -0.133952540861027 0.133952540861027
2  6 1 0 -0.133952540861027 0.133952540861027
2  7 3 0 -0.133952540861027 0.133952540861027
4 CN 1 0 3 0
0

0101000
+79 0 -84 0 *
Wi

0101100
+82 0 +80 0 +78 0 +77 0 *
Fa
0  1e-07 1 0

0111000
+76 0 *
Ve
1e-07
0.6105625 1.15993183076113e-17 0.1894375
0 0

0101101
*
Ve
1e-07
-0.6105625 8.63691899981789e-17 0.1894375
0 0

0101101
*
Ed
 1e-07 1 1 0
1  5 0 0 3.14159265358979
2  8 2 0 0 3.14159265358979
2  9 5 0 0 3.14159265358979
4 C0 2 0 5 0
0

0101000
+74 0 -73 0 *
Ed
 1e-07 1 1 0
1  6 0 -0.3105625 0.3105625
2  10 2 0 -0.3105625 0.3105625
2  11 6 0 -0.3105625 0.3105625
4 CN 2 0 6 0
0

0101000
+73 0 -83 0 *
Ed
 1e-07 1 1 0
1  7 0 -0.3105625 0.3105625
2  12 2 0 -0.3105625 0.3105625
2  13 6 0 -0.3105625 0.3105625
4 CN 2 0 6 0
0

0101000
+84 0 -74 0 *
Wi

0101100
+72 0 +71 0 -82 0 +70 0 *
Fa
0  1e-07 2 0

0111000
+69 0 *
Ve
1e-07
0.8 0 0
0 0

0101101
*
Ve
1e-07
-0.8 9.79685083057902e-17 -5.99864288728855e-33
0 0

0101101
*
Ed
 1e-07 1 1 0
1  8 0 0 3.14159265358979
2  14 5 0 0 3.14159265358979
4 C0 5 0 7 0
0

0101000
+67 0 -66 0 *
Ed
 1e-07 1 1 0
1  9 0 -0.133952540861027 0.133952540861027
2  15 5 0 -0.133952540861027 0.133952540861027
2  16 8 0 -0.133952540861027 0.133952540861027
4 CN 5 0 8 0
0

0101000
+66 0 -73 0 *
Ed
 1e-07 1 1 0
1  10 0 -0.133952540861027 0.133952540861027
2  17 5 0 -0.133952540861027 0.133952540861027
2  18 8 0 -0.133952540861027 0.133952540861027
4 CN 5 0 8 0
0

0101000
+74 0 -67 0 *
Wi

0101100
+65 0 +64 0 -72 0 +63 0 *
Fa
0  1e-07 5 0

0111000
+62 0 *
Ed
 1e-07 1 1 0
1  11 0 3.14159265358979 6.28318530717959
2  19 8 0 3.14159265358979 6.28318530717959
2  20 6 0 3.14159265358979 6.28318530717959
4 C0 8 0 6 0
0

0101000
+73 0 -74 0 *
Ed
 1e-07 1 1 0
1  12 0 3.14159265358979 6.28318530717959
2  21 8 0 3.14159265358979 6.28318530717959
4 C0 8 0 7 0
0

0101000
+66 0 -67 0 *
Wi

0101100
-60 0 -64 0 +59 0 -63 0 *
Fa
0  1e-07 8 0

0111000
+58 0 *
Ed
 1e-07 1 1 0
1  13 0 3.14159265358979 6.28318530717959
2  22 6 0 3.14159265358979 6.28318530717959
2  23 3 0 3.14159265358979 6.28318530717959
4 C0 6 0 3 0
0

0101000
+83 0 -84 0 *
Wi

0101100
-56 0 -71 0 +60 0 -70 0 *
Fa
0  1e-07 6 0

0111000
+55 0 *
Ed
 1e-07 1 1 0
1  14 0 0 3.14159265358979
2  24 3 0 0 3.14159265358979
4 C0 3 0 4 0
0

0101000
+79 0 -81 0 *
Wi

0101100
+53 0 -80 0 +56 0 -77 0 *
Fa
0  1e-07 3 0

0111000
+52 0 *
Ve
1e-07
1.8475208614068 -5.18977077728712e-17 1
0 0

0101101
*
Ve
1e-07
0.923760430703401 -1.6 1
0 0

0101101
*
Ed
 1e-07 1 1 0
1  15 0 -1.8475208614068 0
4 C0 9 0 4 0
0

0101000
+50 0 -49 0 *
Ve
1e-07
0.923760430703401 -1.6 9.79685083057902e-17
0 0

0101101
*
Ed
 1e-07 1 1 0
1  16 0 0 1
4 C0 9 0 10 0
0

0101000
+47 0 -49 0 *
Ve
1e-07
1.8475208614068 -1.1312802546399e-16 6.9268649389291e-33
0 0

0101101
*
Ed
 1e-07 1 1 0
1  17 0 0 1.8475208614068
4 C0 9 0 7 0
0

0101000
+47 0 -45 0 *
Ed
 1e-07 1 1 0
1  18 0 0 1
4 C0 9 0 11 0
0

0101000
+45 0 -50 0 *
Wi

0101100
+48 0 -46 0 +44 0 +43 0 *
Fa
0  1e-07 9 0

0111000
+42 0 *
Ve
1e-07
-0.923760430703402 -1.6 1
0 0

0101101
*
Ed
 1e-07 1 1 0
1  19 0 -1.8475208614068 0
4 C0 10 0 4 0
0

0101000
+49 0 -40 0 *
Ve
1e-07
-0.923760430703402 -1.6 9.79685083057901e-17
0 0

0101101
*
Ed
 1e-07 1 1 0
1  20 0 0 1
4 C0 10 0 12 0
0

0101000
+38 0 -40 0 *
Ed
 1e-07 1 1 0
1  21 0 0 1.8475208614068
4 C0 10 0 7 0
0

0101000
+38 0 -47 0 *
Wi

0101100
+39 0 -37 0 +36 0 +46 0 *
Fa
0  1e-07 10 0

0111000
+35 0 *
Ve
1e-07
-1.8475208614068 4.00606921724925e-16 1
0 0

0101101
*
Ed
 1e-07 1 1 0
1  22 0 -1.8475208614068 0
4 C0 12 0 4 0
0

0101000
+40 0 -33 0 *
Ve
1e-07
-1.8475208614068 3.39376604033806e-16 -2.0780137281923e-32
0 0

0101101
*
Ed
 1e-07 1 1 0
1  23 0 0 1
4 C0 12 0 13 0
0

0101000
+31 0 -33 0 *
Ed
 1e-07 1 1 0
1  24 0 0 1.8475208614068
4 C0 12 0 7 0
0

0101000
+31 0 -38 0 *
Wi

0101100
+32 0 -30 0 +29 0 +37 0 *
Fa
0  1e-07 12 0

0111000
+28 0 *
Ve
1e-07
-0.923760430703401 1.6 1
0 0

0101101
*
Ed
 1e-07 1 1 0
1  25 0 -1.8475208614068 0
4 C0 13 0 4 0
0

0101000
+33 0 -26 0 *
Ve
1e-07
-0.923760430703401 1.6 -9.79685083057902e-17
0 0

0101101
*
Ed
 1e-07 1 1 0
1  26 0 0 1
4 C0 13 0 14 0
0

0101000
+24 0 -26 0 *
Ed
 1e-07 1 1 0
1  27 0 0 1.8475208614068
4 C0 13 0 7 0
0

0101000
+24 0 -31 0 *
Wi

0101100
+25 0 -23 0 +22 0 +30 0 *
Fa
0  1e-07 13 0

0111000
+21 0 *
Ve
1e-07
0.923760430703401 1.6 1
0 0

0101101
*
Ed
 1e-07 1 1 0
1  28 0 -1.8475208614068 0
4 C0 14 0 4 0
0

0101000
+26 0 -19 0 *
Ve
1e-07
0.923760430703401 1.6 -9.79685083057902e-17
0 0

0101101
*
Ed
 1e-07 1 1 0
1  29 0 0 1
4 C0 14 0 11 0
0

0101000
+17 0 -19 0 *
Ed
 1e-07 1 1 0
1  30 0 0 1.8475208614068
4 C0 14 0 7 0
0

0101000
+17 0 -24 0 *
Wi

0101100
+18 0 -16 0 +15 0 +23 0 *
Fa
0  1e-07 14 0

0111000
+14 0 *
Ed
 1e-07 1 1 0
1  31 0 -1.8475208614068 0
4 C0 11 0 4 0
0

0101000
+19 0 -50 0 *
Ed
 1e-07 1 1 0
1  32 0 0 1.8475208614068
4 C0 11 0 7 0
0

0101000
+45 0 -17 0 *
Wi

0101100
+12 0 -43 0 +11 0 +16 0 *
Fa
0  1e-07 11 0

0111000
+10 0 *
Wi

0101100
+53 0 +78 0 *
Wi

0101100
-48 0 -12 0 -18 0 -25 0 -32 0 -39 0 *
Fa
0  1e-07 4 0

0111000
+8 0 +7 0 *
Wi

0101100
+65 0 +59 0 *
Wi

0101100
-11 0 -44 0 -36 0 -29 0 -22 0 -15 0 *
Fa
0  1e-07 7 0

0111000
-5 0 -4 0 *
Sh

0101100
-75 0 -68 0 -61 0 -57 0 -54 0 -51 0 +41 0 +34 0 +27 0 +20 0 
+13 0 +9 0 +6 0 -3 0 *
So

0100000
+2 0 *

+1 0 