DBRep_DrawableShape

CASCADE Topology V1, (c) Matra-Datavision
Locations 0
Curve2ds 48
1 6.2831853071795862 -0.13395254086102656 -1 0 
1 0 -0.46056249999999999 1 0 
1 3.1415926535897931 2.7755575615628914e-17 0 1 
1 3.1415926535897931 2.7755575615628914e-17 0 1 
1 0 0.13395254086102665 1 0 
1 0 2.7755575615628914e-17 0 -1 
1 6.2831853071795862 2.7755575615628914e-17 0 -1 
1 0 0.46056249999999987 1 0 
1 0 -0.1339525408610267 1 0 
1 3.1415926535897931 0 0 -1 
1 3.1415926535897931 0 0 -1 
1 6.2831853071795862 0 0 1 
1 0 0 0 1 
1 0 0.13395254086102662 1 0 
1 3.1415926535897931 -2.7755575615628914e-17 0 -1 
1 3.1415926535897931 -2.7755575615628914e-17 0 -1 
1 6.2831853071795862 -5.5511151231257827e-17 0 1 
1 0 -5.5511151231257827e-17 0 1 
1 6.2831853071795862 -5.5511151231257827e-17 0 -1 
1 0 -5.5511151231257827e-17 0 -1 
7 0 0  3 25 23  6.2831853071795862 0.15774124142364981  6.2680340456277852 0.14031104354571133  6.2375460180780227 0.10750614771444628  6.1912992310482666 0.064106055016340729  6.1445783066133606 0.026131446518025039  6.0974279107402127 -0.0067206311956483963  6.0498951347942116 -0.0347102295516983  6.0020296464011187 -0.05805195902242713  5.9538833126046891 -0.076921363078656338  5.9055099180821431 -0.091457734448112532  5.8569648164595689 -0.10176688361446622  5.8083045642776776 -0.10792304595061521  5.7595865315812889 -0.10997023833600024  5.7108684988848948 -0.10792304595061601  5.662208246703007 -0.1017668836144671  5.613663145080432 -0.091457734448112296  5.5652897505578895 -0.076921363078657615  5.5171434167614528 -0.058051959022427185  5.4692779283683643 -0.034710229551699716  5.4217451524223623 -0.0067206311956493252  5.3745947565492136 0.026131446518022683  5.3278738321143084 0.064106055016339036  5.2816270450845515 0.10750614771444379  5.2511390175347898 0.14031104354570859  5.2359877559829888 0.15774124142364712 
 0 4 0.084490802077740901 1 0.1689816041554818 1 0.2534724062332227 1 0.3379632083109636 1 0.4224540103887045 1 0.5069448124664454 1 0.59143561454418636 1 0.67592641662192721 1 0.76041721869966805 1 0.84490802077740901 1 0.92939882285514996 1 1.0138896249328908 1 1.0983804270106317 1 1.1828712290883727 1 1.2673620311661136 1 1.3518528332438544 1 1.4363436353215953 1 1.5208344373993361 1 1.6053252394770772 1 1.689816041554818 1 1.7743068436325589 1 1.8587976457102999 4
7 0 0  3 25 23  5.2359877559829897 0.15774124142364815  5.2208364944311896 0.14031104354570934  5.190348466881427 0.10750614771444411  5.1441016798516692 0.064106055016339009  5.0973807554167649 0.026131446518023013  5.0502303595436153 -0.0067206311956496869  5.0026975835976142 -0.034710229551701  4.9548320952045213 -0.058051959022428656  4.9066857614080908 -0.076921363078658642  4.8583123668855457 -0.09145773444811417  4.8097672652629715 -0.10176688361446853  4.7611070130810811 -0.10792304595061789  4.7123889803846897 -0.109970238336002  4.6636709476882983 -0.10792304595061729  4.6150106955064079 -0.10176688361446891  4.5664655938838337 -0.091457734448113726  4.5180921993612904 -0.07692136307865878  4.4699458655648563 -0.058051959022428504  4.4220803771717661 -0.03471022955170068  4.3745476012257623 -0.0067206311956503114  4.3273972053526144 0.026131446518022645  4.2806762809177101 0.064106055016338953  4.2344294938879532 0.10750614771444413  4.2039414663381898 0.1403110435457095  4.1887902047863896 0.15774124142364837 
 0 4 0.084490802077740901 1 0.1689816041554818 1 0.2534724062332227 1 0.3379632083109636 1 0.4224540103887045 1 0.5069448124664454 1 0.59143561454418636 1 0.67592641662192721 1 0.76041721869966805 1 0.84490802077740901 1 0.92939882285514996 1 1.0138896249328908 1 1.0983804270106317 1 1.1828712290883727 1 1.2673620311661136 1 1.3518528332438544 1 1.4363436353215953 1 1.5208344373993361 1 1.6053252394770772 1 1.689816041554818 1 1.7743068436325589 1 1.8587976457102999 4
7 0 0  3 25 23  4.1887902047863905 0.15774124142364734  4.1736389432345895 0.14031104354570834  4.143150915684827 0.10750614771444333  4.0969041286550709 0.064106055016339467  4.0501832042201649 0.026131446518023044  4.003032808347017 -0.0067206311956490329  3.9555000324010154 -0.034710229551699945  3.9076345440079234 -0.058051959022427366  3.8594882102114911 -0.076921363078657462  3.8111148156889465 -0.091457734448112726  3.7625697140663736 -0.10176688361446685  3.7139094618844823 -0.10792304595061601  3.6651914291880923 -0.10997023833600016  3.6164733964917004 -0.10792304595061546  3.56781314430981 -0.10176688361446697  3.5192680426872367 -0.091457734448112074  3.4708946481646921 -0.076921363078656199  3.422748314368258 -0.058051959022426908  3.3748828259751695 -0.03471022955169855  3.3273500500291644 -0.0067206311956481152  3.2801996541560183 0.026131446518024078  3.2334787297211109 0.064106055016340896  3.1872319426913562 0.10750614771444603  3.1567439151415932 0.14031104354571117  3.1415926535897927 0.15774124142364981 
 0 4 0.084490802077740901 1 0.1689816041554818 1 0.2534724062332227 1 0.3379632083109636 1 0.4224540103887045 1 0.5069448124664454 1 0.59143561454418636 1 0.67592641662192721 1 0.76041721869966805 1 0.84490802077740901 1 0.92939882285514996 1 1.0138896249328908 1 1.0983804270106317 1 1.1828712290883727 1 1.2673620311661136 1 1.3518528332438544 1 1.4363436353215953 1 1.5208344373993361 1 1.6053252394770772 1 1.689816041554818 1 1.7743068436325589 1 1.8587976457102999 4
1 3.1415926535897931 -8.3266726846886741e-17 0 1 
1 3.1415926535897931 -8.3266726846886741e-17 0 1 
1 0 -0.15774124142364054 1 0 
1 0 0 0 1 
1 6.2831853071795862 0 0 1 
1 0 -0.15774124142364021 1 0 
1 3.1415926535897931 8.3266726846886741e-17 0 -1 
1 3.1415926535897931 8.3266726846886741e-17 0 -1 
7 0 0  3 25 23  3.1415926535897931 0.15774124142364943  3.126441392037993 0.14031104354571097  3.0959533644882296 0.10750614771444592  3.0497065774584726 0.064106055016340174  3.0029856530235683 0.0261314465180243  2.9558352571504205 -0.0067206311956489965  2.9083024812044194 -0.034710229551698973  2.8604369928113247 -0.058051959022427636  2.8122906590148951 -0.07692136307865724  2.7639172644923509 -0.091457734448113351  2.7153721628697767 -0.10176688361446702  2.6667119106878854 -0.10792304595061664  2.6179938779914949 -0.10997023833600063  2.5692758452951026 -0.10792304595061689  2.5206155931132148 -0.10176688361446726  2.4720704914906371 -0.091457734448113281  2.4236970969680947 -0.076921363078658392  2.3755507631716615 -0.058051959022427858  2.3276852747785739 -0.034710229551700472  2.2801524988325674 -0.0067206311956501414  2.2330021029594231 0.026131446518021875  2.1862811785245135 0.064106055016338578  2.1400343914947566 0.10750614771444364  2.1095463639449967 0.14031104354570853  2.0943951023931966 0.15774124142364698 
 0 4 0.084490802077740901 1 0.1689816041554818 1 0.2534724062332227 1 0.3379632083109636 1 0.4224540103887045 1 0.5069448124664454 1 0.59143561454418636 1 0.67592641662192721 1 0.76041721869966805 1 0.84490802077740901 1 0.92939882285514996 1 1.0138896249328908 1 1.0983804270106317 1 1.1828712290883727 1 1.2673620311661136 1 1.3518528332438544 1 1.4363436353215953 1 1.5208344373993361 1 1.6053252394770772 1 1.689816041554818 1 1.7743068436325589 1 1.8587976457102999 4
7 0 0  3 25 23  2.0943951023931966 0.15774124142364779  2.0792438408413965 0.14031104354570922  2.048755813291633 0.10750614771444404  2.0025090262618761 0.064106055016338398  1.9557881018269718 0.026131446518022308  1.908637705953824 -0.0067206311956501986  1.8611049300078211 -0.034710229551701881  1.8132394416147299 -0.058051959022429496  1.7650931078182968 -0.0769213630786591  1.7167197132957543 -0.09145773444811503  1.6681746116731775 -0.10176688361446949  1.6195143594912889 -0.10792304595061855  1.5707963267948966 -0.10997023833600283  1.5220782940985034 -0.1079230459506185  1.4734180419166174 -0.10176688361446963  1.4248729402940397 -0.091457734448114544  1.376499545771499 -0.076921363078659613  1.3283532119750605 -0.058051959022429066  1.2804877235819738 -0.034710229551701818  1.2329549476359691 -0.0067206311956508683  1.1858045517628222 0.02613144651802124  1.1390836273279161 0.064106055016339425  1.0928368402981619 0.10750614771444338  1.0623488127483993 0.14031104354570861  1.0471975511965965 0.15774124142364779 
 0 4 0.084490802077740901 1 0.1689816041554818 1 0.2534724062332227 1 0.3379632083109636 1 0.4224540103887045 1 0.5069448124664454 1 0.59143561454418636 1 0.67592641662192721 1 0.76041721869966805 1 0.84490802077740901 1 0.92939882285514996 1 1.0138896249328908 1 1.0983804270106317 1 1.1828712290883727 1 1.2673620311661136 1 1.3518528332438544 1 1.4363436353215953 1 1.5208344373993361 1 1.6053252394770772 1 1.689816041554818 1 1.7743068436325589 1 1.8587976457102999 4
7 0 0  3 25 23  1.0471975511965965 0.1577412414236474  1.0320462896447955 0.14031104354570842  1.0015582620950321 0.1075061477144434  0.95531147506527692 0.064106055016339494  0.90859055063037353 0.026131446518022371  0.8614401547572248 -0.0067206311956488933  0.81390737881122011 -0.034710229551700757  0.76604189041812809 -0.058051959022427546  0.71789555662170024 -0.076921363078657823  0.66952216209915516 -0.091457734448113059  0.62097706047658097 -0.1017668836144671  0.57231680829468967 -0.10792304595061621  0.52359877559829826 -0.10997023833600052  0.47488074290190507 -0.10792304595061611  0.42622049072002 -0.10176688361446753  0.37767538909744225 -0.091457734448112588  0.32930199457489895 -0.076921363078656865  0.28115566077846665 -0.058051959022426991  0.23329017238537375 -0.034710229551699057  0.18575739643937439 -0.0067206311956490407  0.13860700056622388 0.026131446518023647  0.091886076131318717 0.064106055016340341  0.045639289101562674 0.10750614771444594  0.015151261551801021 0.140311043545711  0 0.15774124142364943 
 0 4 0.084490802077740901 1 0.1689816041554818 1 0.2534724062332227 1 0.3379632083109636 1 0.4224540103887045 1 0.5069448124664454 1 0.59143561454418636 1 0.67592641662192721 1 0.76041721869966805 1 0.84490802077740901 1 0.92939882285514996 1 1.0138896249328908 1 1.0983804270106317 1 1.1828712290883727 1 1.2673620311661136 1 1.3518528332438544 1 1.4363436353215953 1 1.5208344373993361 1 1.6053252394770772 1 1.689816041554818 1 1.7743068436325589 1 1.8587976457102999 4
7 0 0  3 25 23  6.2831853071795862 0.15774124142364943  6.2680340456277852 0.14031104354571119  6.2375460180780227 0.10750614771444621  6.1912992310482666 0.064106055016340147  6.1445783066133606 0.026131446518024216  6.0974279107402127 -0.0067206311956484917  6.0498951347942116 -0.034710229551699487  6.0020296464011187 -0.05805195902242713  5.9538833126046891 -0.076921363078657254  5.9055099180821431 -0.091457734448113531  5.8569648164595689 -0.10176688361446726  5.8083045642776776 -0.10792304595061643  5.7595865315812889 -0.10997023833600093  5.7108684988848948 -0.10792304595061689  5.662208246703007 -0.10176688361446787  5.613663145080432 -0.091457734448113212  5.5652897505578887 -0.076921363078658045  5.5171434167614555 -0.058051959022428039  5.4692779283683643 -0.034710229551700042  5.4217451524223623 -0.0067206311956504242  5.3745947565492145 0.026131446518022537  5.3278738321143075 0.064106055016338565  5.2816270450845533 0.10750614771444406  5.2511390175347907 0.14031104354570897  5.2359877559829897 0.15774124142364732 
 0 4 0.084490802077740901 1 0.1689816041554818 1 0.2534724062332227 1 0.3379632083109636 1 0.4224540103887045 1 0.5069448124664454 1 0.59143561454418636 1 0.67592641662192721 1 0.76041721869966805 1 0.84490802077740901 1 0.92939882285514996 1 1.0138896249328908 1 1.0983804270106317 1 1.1828712290883727 1 1.2673620311661136 1 1.3518528332438544 1 1.4363436353215953 1 1.5208344373993361 1 1.6053252394770772 1 1.689816041554818 1 1.7743068436325589 1 1.8587976457102999 4
7 0 0  3 25 23  5.2359877559829897 0.15774124142364732  5.2208364944311887 0.1403110435457085  5.1903484668814244 0.10750614771444321  5.144101679851671 0.064106055016338329  5.0973807554167649 0.026131446518021875  5.0502303595436144 -0.0067206311956500607  5.0026975835976142 -0.034710229551702353  4.9548320952045195 -0.05805195902242935  4.9066857614080917 -0.076921363078659558  4.8583123668855448 -0.091457734448114919  4.8097672652629715 -0.10176688361446985  4.7611070130810811 -0.10792304595061882  4.7123889803846897 -0.1099702383360029  4.6636709476882983 -0.1079230459506182  4.615010695506407 -0.10176688361446978  4.5664655938838346 -0.091457734448114544  4.5180921993612904 -0.076921363078659682  4.4699458655648563 -0.058051959022429121  4.4220803771717643 -0.03471022955170186  4.3745476012257631 -0.0067206311956510782  4.3273972053526135 0.026131446518021746  4.2806762809177101 0.06410605501633844  4.2344294938879532 0.10750614771444394  4.2039414663381898 0.14031104354570925  4.1887902047863896 0.15774124142364793 
 0 4 0.084490802077740901 1 0.1689816041554818 1 0.2534724062332227 1 0.3379632083109636 1 0.4224540103887045 1 0.5069448124664454 1 0.59143561454418636 1 0.67592641662192721 1 0.76041721869966805 1 0.84490802077740901 1 0.92939882285514996 1 1.0138896249328908 1 1.0983804270106317 1 1.1828712290883727 1 1.2673620311661136 1 1.3518528332438544 1 1.4363436353215953 1 1.5208344373993361 1 1.6053252394770772 1 1.689816041554818 1 1.7743068436325589 1 1.8587976457102999 4
7 0 0  3 25 23  4.1887902047863896 0.15774124142364732  4.1736389432345886 0.14031104354570847  4.1431509156848252 0.1075061477144434  4.09690412865507 0.064106055016339009  4.0501832042201649 0.026131446518022759  4.003032808347017 -0.0067206311956490789  3.9555000324010154 -0.03471022955170075  3.9076345440079225 -0.058051959022427789  3.8594882102114911 -0.076921363078658447  3.8111148156889465 -0.09145773444811317  3.7625697140663732 -0.1017668836144676  3.7139094618844823 -0.10792304595061675  3.6651914291880905 -0.10997023833600057  3.6164733964917004 -0.10792304595061669  3.5678131443098087 -0.10176688361446777  3.5192680426872367 -0.091457734448112518  3.4708946481646921 -0.076921363078657115  3.422748314368258 -0.058051959022427456  3.3748828259751682 -0.034710229551699515  3.3273500500291653 -0.0067206311956492923  3.2801996541560183 0.026131446518023783  3.2334787297211118 0.064106055016340049  3.1872319426913562 0.10750614771444572  3.1567439151415928 0.14031104354571089  3.1415926535897927 0.15774124142364943 
 0 4 0.084490802077740901 1 0.1689816041554818 1 0.2534724062332227 1 0.3379632083109636 1 0.4224540103887045 1 0.5069448124664454 1 0.59143561454418636 1 0.67592641662192721 1 0.76041721869966805 1 0.84490802077740901 1 0.92939882285514996 1 1.0138896249328908 1 1.0983804270106317 1 1.1828712290883727 1 1.2673620311661136 1 1.3518528332438544 1 1.4363436353215953 1 1.5208344373993361 1 1.6053252394770772 1 1.689816041554818 1 1.7743068436325589 1 1.8587976457102999 4
1 0 -0.15774124142364021 1 0 
1 0 -0.15774124142364054 1 0 
7 0 0  3 25 23  3.141592653589794 0.15774124142364981  3.126441392037993 0.14031104354571139  3.0959533644882304 0.10750614771444633  3.0497065774584748 0.064106055016340466  3.0029856530235683 0.026131446518024726  2.9558352571504209 -0.00672063119564813  2.9083024812044189 -0.034710229551699064  2.8604369928113269 -0.058051959022426797  2.8122906590148951 -0.076921363078656935  2.76391726449235 -0.091457734448112865  2.7153721628697776 -0.10176688361446685  2.6667119106878858 -0.10792304595061598  2.6179938779914953 -0.1099702383360002  2.5692758452951039 -0.10792304595061658  2.5206155931132135 -0.10176688361446748  2.4720704914906397 -0.091457734448112699  2.423697096968096 -0.076921363078658211  2.3755507631716619 -0.058051959022426845  2.3276852747785721 -0.034710229551700486  2.2801524988325692 -0.006720631195649104  2.2330021029594214 0.026131446518022561  2.1862811785245162 0.064106055016339314  2.1400343914947602 0.10750614771444394  2.1095463639449967 0.14031104354570889  2.0943951023931962 0.15774124142364754 
 0 4 0.084490802077740901 1 0.1689816041554818 1 0.2534724062332227 1 0.3379632083109636 1 0.4224540103887045 1 0.5069448124664454 1 0.59143561454418636 1 0.67592641662192721 1 0.76041721869966805 1 0.84490802077740901 1 0.92939882285514996 1 1.0138896249328908 1 1.0983804270106317 1 1.1828712290883727 1 1.2673620311661136 1 1.3518528332438544 1 1.4363436353215953 1 1.5208344373993361 1 1.6053252394770772 1 1.689816041554818 1 1.7743068436325589 1 1.8587976457102999 4
7 0 0  3 25 23  2.0943951023931975 0.1577412414236492  2.0792438408413969 0.14031104354571014  2.0487558132916344 0.10750614771444451  2.0025090262618779 0.064106055016339245  1.9557881018269718 0.026131446518022575  1.9086377059538244 -0.0067206311956504476  1.8611049300078208 -0.034710229551702547  1.8132394416147308 -0.058051959022429427  1.7650931078182968 -0.076921363078660973  1.716719713295753 -0.091457734448115266  1.6681746116731793 -0.10176688361447069  1.619514359491288 -0.10792304595061956  1.5707963267948972 -0.10997023833600393  1.522078294098506 -0.1079230459506199  1.4734180419166143 -0.10176688361446994  1.4248729402940412 -0.09145773444811657  1.3764995457714972 -0.076921363078660307  1.3283532119750627 -0.058051959022430148  1.2804877235819723 -0.034710229551702103  1.23295494763597 -0.0067206311956513713  1.1858045517628211 0.026131446518021739  1.1390836273279161 0.064106055016339078  1.0928368402981599 0.10750614771444376  1.0623488127483964 0.14031104354570942  1.0471975511965961 0.15774124142364879 
 0 4 0.084490802077741359 1 0.16898160415548272 1 0.25347240623322409 1 0.33796320831096544 1 0.42245401038870678 1 0.50694481246644818 1 0.59143561454418947 1 0.67592641662193087 1 0.76041721869967227 1 0.84490802077741356 1 0.92939882285515496 1 1.0138896249328964 1 1.0983804270106376 1 1.1828712290883789 1 1.2673620311661205 1 1.3518528332438617 1 1.436343635321603 1 1.5208344373993445 1 1.6053252394770858 1 1.6898160415548271 1 1.7743068436325686 1 1.8587976457103099 4
7 0 0  3 25 23  1.0471975511965974 0.15774124142364754  1.0320462896447968 0.14031104354570845  1.0015582620950336 0.10750614771444333  0.95531147506527792 0.064106055016339314  0.90859055063037231 0.02613144651802252  0.86144015475722424 -0.0067206311956492584  0.8139073788112221 -0.034710229551699744  0.76604189041813076 -0.058051959022427949  0.71789555662169746 -0.076921363078657823  0.66952216209915361 -0.091457734448113198  0.62097706047658041 -0.1017668836144671  0.57231680829468956 -0.10792304595061586  0.52359877559829837 -0.10997023833600046  0.4748807429019074 -0.10792304595061562  0.42622049072001628 -0.1017668836144673  0.37767538909744325 -0.091457734448111963  0.32930199457489928 -0.076921363078656227  0.2811556607784656 -0.058051959022426831  0.23329017238537486 -0.034710229551698814  0.18575739643937242 -0.0067206311956483971  0.1386070005662243 0.026131446518024237  0.091886076131319203 0.064106055016340535  0.045639289101562716 0.10750614771444608  0.015151261551800001 0.14031104354571128  0 0.15774124142364981 
 0 4 0.084490802077740901 1 0.1689816041554818 1 0.2534724062332227 1 0.3379632083109636 1 0.4224540103887045 1 0.5069448124664454 1 0.59143561454418636 1 0.67592641662192721 1 0.76041721869966805 1 0.84490802077740901 1 0.92939882285514996 1 1.0138896249328908 1 1.0983804270106317 1 1.1828712290883727 1 1.2673620311661136 1 1.3518528332438544 1 1.4363436353215953 1 1.5208344373993361 1 1.6053252394770772 1 1.689816041554818 1 1.7743068436325589 1 1.8587976457102999 4
1 0 -0.1339525408610267 1 0 
1 0 0.46056249999999987 1 0 
1 0 0.13395254086102662 1 0 
1 0 -0.46056249999999999 1 0 
1 6.2831853071795862 -0.13395254086102656 -1 0 
1 0 0.13395254086102665 1 0 
Curves 40
2 0 1.15993183076113e-17 0.18943750000000001 -0 6.12303176911189e-17 1 1 0 0 0 1 -6.12303176911189e-17 0.61056250000000001
1 -0.70528124999999997 9.2168849151984498e-17 0.094718750000000004 -0.70710678118654757 4.3296372853596771e-17 -0.70710678118654757 
2 0 0 0 0 0 -1 1 0 0 0 -1 0 0.80000000000000004
1 0.70528124999999997 -8.0569530844373201e-17 0.094718750000000004 -0.70710678118654757 1.298891185607899e-16 0.70710678118654757 
2 0 6.8000094690843196e-17 1.1105624999999999 -0 6.12303176911189e-17 1 1 0 0 0 1 -6.12303176911189e-17 0.61056250000000001
1 -0.61056250000000001 1.14569578189795e-16 0.65000000000000002 -0 -6.12303176911189e-17 -1 
1 0.61056250000000001 -3.4970165191340301e-17 0.65000000000000002 -0 6.12303176911189e-17 1 
2 0 7.9599412998454505e-17 1.3 0 0 1 1 0 -0 -0 1 0 0.80000000000000004
1 -0.70528124999999997 1.6016894384282799e-16 1.2052812500000001 0.70710678118654757 -1.298891185607899e-16 -0.70710678118654757 
1 0.70528124999999997 -1.256943615353e-17 1.2052812500000001 0.70710678118654757 -4.3296372853596771e-17 0.70710678118654757 
1 1.7017448677526701 -1.32415499901293e-16 1.2409090909090901 -0.92718385456678742 1.3648080467044505e-16 0.37460659341591218 
7 1 0  2 3 2  1.8480000000000001 -3.71840387295366e-16 1.1818181818181801  1 1.3859999999999999 0.80020747309682205 1.36847829815402  1.1547005383792499 0.92399999999999904 1.6004149461936401 1.1818181818181801  1
 0 3 1.8587976457102999 3
7 1 0  2 3 2  0.92400000000000104 1.6004149461936401 1.1818181818181801  1 0 1.6004149461936401 1.36847829815402  1.1547005383792499 -0.92400000000000104 1.6004149461936401 1.1818181818181801  1
 0 3 1.8587976457102999 3
7 1 0  2 3 2  -0.92399999999999904 1.6004149461936401 1.1818181818181801  1 -1.3859999999999999 0.80020747309682205 1.36847829815402  1.1547005383792499 -1.8480000000000001 -1.09522455200277e-15 1.1818181818181801  1
 0 3 1.8587976457102999 3
1 -1.7017448677526701 2.8437801562561601e-16 1.2409090909090901 -0.92718385456678742 9.060624322235704e-17 -0.37460659341591218 
2 0 7.9599412998454505e-17 1.3 0 0 -1 1 0 0 0 -1 0 1.5554897355053501
1 1.7017448677526701 -2.04778602627161e-16 0.059090909090909097 0.92718385456678742 -9.060624322235704e-17 0.37460659341591218 
2 0 0 0 0 0 1 1 0 -0 -0 1 0 1.5554897355053501
1 -1.7017448677526701 2.1201491289974801e-16 0.059090909090909097 0.92718385456678742 -1.3648080467044505e-16 -0.37460659341591218 
7 1 0  2 3 2  -1.8480000000000001 -2.3782085928071498e-16 0.118181818181818  1 -1.3859999999999999 0.80020747309682205 -0.068478298154024494  1.1547005383792499 -0.92399999999999904 1.6004149461936401 0.118181818181818  1
 0 3 1.8587976457102999 3
7 1 0  2 3 2  -0.92400000000000104 1.6004149461936401 0.118181818181818  1 0 1.6004149461936401 -0.068478298154024494  1.1547005383792499 0.92400000000000104 1.6004149461936401 0.118181818181818  1
 0 3 1.8587976457102999 3
7 1 0  2 3 2  0.92400000000000004 1.6004149461936401 0.118181818181818  1 1.3859999999999999 0.80020747309682205 -0.068478298154024106  1.1547005383792499 1.8480000000000001 3.3071956217518498e-18 0.118181818181818  1
 0 3 1.8587976457102999 3
7 1 0  2 3 2  1.8480000000000001 -2.3782085928071498e-16 0.118181818181818  1 1.3859999999999999 -0.80020747309682105 -0.068478298154024106  1.1547005383792499 0.92400000000000004 -1.6004149461936401 0.118181818181818  1
 0 3 1.8587976457102999 3
7 1 0  2 3 2  0.92400000000000004 -1.6004149461936401 0.118181818181818  1 -3.2268409341902601e-16 -1.6004149461936401 -0.068478298154024397  1.1547005383792499 -0.92400000000000104 -1.6004149461936401 0.118181818181818  1
 0 3 1.8587976457102999 3
7 1 0  2 3 2  -0.92400000000000004 -1.6004149461936401 0.118181818181818  1 -1.3859999999999999 -0.80020747309682105 -0.068478298154024106  1.1547005383792499 -1.8480000000000001 7.2669136032915303e-16 0.118181818181818  1
 0 3 1.8587976457102999 3
2 0 0 0 0 0 1 1 0 -0 -0 1 0 1.5554897355053501
2 0 7.9599412998454505e-17 1.3 0 0 -1 1 0 0 0 -1 0 1.5554897355053501
7 1 0  2 3 2  -1.8480000000000001 1.55718405192437e-15 1.1818181818181801  1 -1.3859999999999999 -0.80020747309682005 1.36847829815402  1.1547005383792499 -0.92400000000000004 -1.6004149461936401 1.1818181818181801  1
 0 3 1.8587976457102999 3
7 1 0  2 3 2  -0.92400000000000304 -1.6004149461936401 1.1818181818181801  1 -3.8857805861880499e-16 -1.6004149461936401 1.36847829815403  1.1547005383792499 0.92400000000000204 -1.6004149461936401 1.1818181818181801  1
 0 3 1.8587976457103099 3
7 1 0  2 3 2  0.92399999999999904 -1.6004149461936401 1.1818181818181801  1 1.3859999999999999 -0.80020747309682105 1.36847829815402  1.1547005383792499 1.8480000000000001 1.55718405192437e-15 1.1818181818181801  1
 0 3 1.8587976457102999 3
2 0 6.8000094690843196e-17 1.1105624999999999 -0 6.12303176911189e-17 1 1 0 0 0 1 -6.12303176911189e-17 0.61056250000000001
2 0 7.9599412998454505e-17 1.3 0 0 1 1 0 -0 -0 1 0 0.80000000000000004
2 0 1.15993183076113e-17 0.18943750000000001 -0 6.12303176911189e-17 1 1 0 0 0 1 -6.12303176911189e-17 0.61056250000000001
2 0 0 0 0 0 -1 1 0 0 0 -1 0 0.80000000000000004
1 -0.92400000000000004 1.6004149461936401 0 0 0 1 
1 -1.8480000000000001 2.26307254186375e-16 0 0 0 1 
1 0.92400000000000004 1.6004149461936401 0 0 0 1 
1 1.8480000000000001 0 0 0 0 1 
1 0.92400000000000004 -1.6004149461936401 0 0 0 1 
1 -0.92400000000000104 -1.6004149461936401 0 0 0 1 
Polygon3D 0
PolygonOnTriangulations 0
Surfaces 18
3 0 5.7996591538056598e-18 0.094718750000000004 0 -6.12303176911189e-17 -1 1 0 0 0 -1 6.12303176911189e-17 0.70528124999999997
0.78539816339744795
2 0 3.9799706499227302e-17 0.65000000000000002 -0 6.12303176911189e-17 1 1 0 0 0 1 -6.12303176911189e-17 0.61056250000000001
3 0 5.7996591538056598e-18 0.094718750000000004 0 -6.12303176911189e-17 -1 1 0 0 0 -1 6.12303176911189e-17 0.70528124999999997
0.78539816339744795
1 2.0690520004377899e-16 1.11022302462516e-16 0 0 0 1 1 0 -0 -0 1 0 
3 0 7.3799753844648906e-17 1.2052812500000001 -0 6.12303176911189e-17 1 1 0 0 0 1 -6.12303176911189e-17 0.70528124999999997
0.78539816339744795
2 0 3.9799706499227302e-17 0.65000000000000002 -0 6.12303176911189e-17 1 1 0 0 0 1 -6.12303176911189e-17 0.61056250000000001
1 2.0690520004377899e-16 1.11022302462516e-16 1.3 0 0 1 1 0 -0 -0 1 0 
3 0 7.3799753844648906e-17 1.2052812500000001 -0 6.12303176911189e-17 1 1 0 0 0 1 -6.12303176911189e-17 0.70528124999999997
0.78539816339744795
3 0 7.5981257862161098e-17 1.2409090909090901 0 -6.12303176911189e-17 -1 1 0 0 0 -1 6.12303176911189e-17 1.7017448677526701
1.18682389135614
3 0 7.5981257862161098e-17 1.2409090909090901 0 -6.12303176911189e-17 -1 1 0 0 0 -1 6.12303176911189e-17 1.7017448677526701
1.18682389135614
1 1.3859999999999999 0.80020747309682105 0 0.86602540378443882 0.49999999999999989 -0 -0.49999999999999989 0.86602540378443882 0 0 0 1 
1 2.2204460492503101e-16 1.6004149461936401 0 0 1 -0 -1 0 0 0 0 1 
1 -1.3859999999999999 0.80020747309682105 0 -0.86602540378443882 0.49999999999999989 0 -0.49999999999999989 -0.86602540378443882 0 0 0 1 
3 0 3.61815513629339e-18 0.059090909090909097 -0 6.12303176911189e-17 1 1 0 0 0 1 -6.12303176911189e-17 1.7017448677526701
1.18682389135614
3 0 3.61815513629339e-18 0.059090909090909097 -0 6.12303176911189e-17 1 1 0 0 0 1 -6.12303176911189e-17 1.7017448677526701
1.18682389135614
1 1.3859999999999999 -0.80020747309682105 0 0.86602540378443882 -0.49999999999999989 0 0.49999999999999989 0.86602540378443882 0 -0 0 1 
1 -4.4408920985006301e-16 -1.6004149461936401 0 -2.4030801398812902e-16 -1 0 1 -2.4030801398812902e-16 0 0 0 1 
1 -1.3859999999999999 -0.80020747309682105 0 -0.86602540378443882 -0.49999999999999989 0 0.49999999999999989 -0.86602540378443882 0 0 0 1 
Triangulations 0

TShapes 104
Ve
1e-07
-0.6105625 8.63691899981789e-17 0.1894375
0 0

0101101
*
Ve
1e-07
0.6105625 1.15993183076113e-17 0.1894375
0 0

0101101
*
Ed
 1e-07 1 1 0
1  1 0 3.14159265358979 6.28318530717959
2  1 1 0 3.14159265358979 6.28318530717959
2  2 2 0 3.14159265358979 6.28318530717959
4 C0 1 0 2 0
0

0101000
+104 0 -103 0 *
Ve
1e-07
-0.8 9.79685083057902e-17 0
0 0

0101101
*
Ed
 1e-07 1 1 0
1  2 0 -0.133952540861027 0.133952540861027
2  3 1 0 -0.133952540861027 0.133952540861027
2  4 3 0 -0.133952540861027 0.133952540861027
4 CN 1 0 3 0
0

0101000
+104 0 -101 0 *
Ve
1e-07
0.8 0 0
0 0

0101101
*
Ed
 1e-07 1 1 0
1  3 0 0 3.14159265358979
2  5 1 0 0 3.14159265358979
4 C0 1 0 4 0
0

0101000
+99 0 -101 0 *
Ed
 1e-07 1 1 0
1  4 0 -0.133952540861027 0.133952540861027
2  6 1 0 -0.133952540861027 0.133952540861027
2  7 3 0 -0.133952540861027 0.133952540861027
4 CN 1 0 3 0
0

0101000
+99 0 -103 0 *
Wi

0101100
-102 0 +100 0 -98 0 +97 0 *
Fa
0  1e-07 1 0

0111000
+96 0 *
Ve
1e-07
-0.6105625 1.42769966381411e-16 1.1105625
0 0

0101101
*
Ve
1e-07
0.6105625 6.80000946908432e-17 1.1105625
0 0

0101101
*
Ed
 1e-07 1 1 0
1  5 0 3.14159265358979 6.28318530717959
2  8 2 0 3.14159265358979 6.28318530717959
2  9 5 0 3.14159265358979 6.28318530717959
4 C0 2 0 5 0
0

0101000
+94 0 -93 0 *
Ed
 1e-07 1 1 0
1  6 0 -0.4605625 0.4605625
2  10 2 0 -0.4605625 0.4605625
2  11 6 0 -0.4605625 0.4605625
4 CN 2 0 6 0
0

0101000
+94 0 -104 0 *
Ed
 1e-07 1 1 0
1  7 0 -0.4605625 0.4605625
2  12 2 0 -0.4605625 0.4605625
2  13 6 0 -0.4605625 0.4605625
4 CN 2 0 6 0
0

0101000
+103 0 -93 0 *
Wi

0101100
-92 0 +91 0 +102 0 +90 0 *
Fa
0  1e-07 2 0

0111000
+89 0 *
Ve
1e-07
-0.8 1.77567921304245e-16 1.3
0 0

0101101
*
Ve
1e-07
0.8 7.95994129984545e-17 1.3
0 0

0101101
*
Ed
 1e-07 1 1 0
1  8 0 3.14159265358979 6.28318530717959
2  14 5 0 3.14159265358979 6.28318530717959
4 C0 5 0 7 0
0

0101000
+87 0 -86 0 *
Ed
 1e-07 1 1 0
1  9 0 -0.133952540861027 0.133952540861027
2  15 5 0 -0.133952540861027 0.133952540861027
2  16 8 0 -0.133952540861027 0.133952540861027
4 CN 5 0 8 0
0

0101000
+87 0 -94 0 *
Ed
 1e-07 1 1 0
1  10 0 -0.133952540861027 0.133952540861027
2  17 5 0 -0.133952540861027 0.133952540861027
2  18 8 0 -0.133952540861027 0.133952540861027
4 CN 5 0 8 0
0

0101000
+93 0 -86 0 *
Wi

0101100
-85 0 +84 0 +92 0 +83 0 *
Fa
0  1e-07 5 0

0111000
+82 0 *
Ve
1e-07
1.848 7.23631027258678e-17 1.18181818181818
0 0

0101101
*
Ve
1e-07
1.55548973550535 7.95994129984545e-17 1.3
0 0

0101101
*
Ed
 1e-07 1 1 0
1  11 0 -0.15774124142365 0.157741241423641
2  19 9 0 -0.15774124142365 0.157741241423641
2  20 10 0 -0.15774124142365 0.157741241423641
4 CN 9 0 10 0
0

0101000
+80 0 -79 0 *
Ve
1e-07
0.924 1.60041494619364 1.18181818181818
0 0

0101101
*
Ed
 1e-07 1 1 0
1  12 0 0 1.8587976457103
2  21 9 0 0 1.8587976457103
4 C0 9 0 11 0
0

0101000
+80 0 -77 0 *
Ve
1e-07
-0.923999999999999 1.60041494619364 1.18181818181818
0 0

0101101
*
Ed
 1e-07 1 1 0
1  13 0 0 1.8587976457103
2  22 9 0 0 1.8587976457103
4 C0 9 0 12 0
0

0101000
+77 0 -75 0 *
Ve
1e-07
-1.848 -1.11022302462516e-16 1.18181818181818
0 0

0101101
*
Ed
 1e-07 1 1 0
1  14 0 0 1.8587976457103
2  23 9 0 0 1.8587976457103
4 C0 9 0 13 0
0

0101000
+75 0 -73 0 *
Ve
1e-07
-1.55548973550535 2.70085674338988e-16 1.3
0 0

0101101
*
Ed
 1e-07 1 1 0
1  15 0 -0.157741241423641 0.15774124142365
2  24 9 0 -0.157741241423641 0.15774124142365
2  25 10 0 -0.157741241423641 0.15774124142365
4 CN 9 0 10 0
0

0101000
+71 0 -73 0 *
Ed
 1e-07 1 1 0
1  16 0 3.14159265358979 6.28318530717959
2  26 9 0 3.14159265358979 6.28318530717959
4 C0 9 0 7 0
0

0101000
+71 0 -79 0 *
Wi

0101100
-78 0 +76 0 +74 0 +72 0 -70 0 +69 0 *
Fa
0  1e-07 9 0

0111000
+68 0 *
Ve
1e-07
1.55548973550535 0 0
0 0

0101101
*
Ve
1e-07
1.848 7.23631027258677e-18 0.118181818181818
0 0

0101101
*
Ed
 1e-07 1 1 0
1  17 0 -0.15774124142364 0.157741241423649
2  27 14 0 -0.15774124142364 0.157741241423649
2  28 15 0 -0.15774124142364 0.157741241423649
4 CN 14 0 15 0
0

0101000
+66 0 -65 0 *
Ve
1e-07
-1.55548973550535 1.90486261340534e-16 0
0 0

0101101
*
Ed
 1e-07 1 1 0
1  18 0 0 3.14159265358979
2  29 14 0 0 3.14159265358979
4 C0 14 0 4 0
0

0101000
+66 0 -63 0 *
Ve
1e-07
-1.848 -2.22044604925031e-16 0.118181818181818
0 0

0101101
*
Ed
 1e-07 1 1 0
1  19 0 -0.157741241423649 0.15774124142364
2  30 14 0 -0.157741241423649 0.15774124142364
2  31 15 0 -0.157741241423649 0.15774124142364
4 CN 14 0 15 0
0

0101000
+61 0 -63 0 *
Ve
1e-07
-0.923999999999999 1.60041494619364 0.118181818181818
0 0

0101101
*
Ed
 1e-07 1 1 0
1  20 0 0 1.8587976457103
2  32 14 0 0 1.8587976457103
4 C0 14 0 13 0
0

0101000
+61 0 -59 0 *
Ve
1e-07
0.924 1.60041494619364 0.118181818181818
0 0

0101101
*
Ed
 1e-07 1 1 0
1  21 0 0 1.8587976457103
2  33 14 0 0 1.8587976457103
4 C0 14 0 12 0
0

0101000
+59 0 -57 0 *
Ed
 1e-07 1 1 0
1  22 0 0 1.8587976457103
2  34 14 0 0 1.8587976457103
4 C0 14 0 11 0
0

0101000
+57 0 -65 0 *
Wi

0101100
-64 0 +62 0 -60 0 +58 0 +56 0 +55 0 *
Fa
0  1e-07 14 0

0111000
+54 0 *
Ve
1e-07
0.924 -1.60041494619364 0.118181818181818
0 0

0101101
*
Ed
 1e-07 1 1 0
1  23 0 0 1.8587976457103
2  35 15 0 0 1.8587976457103
4 C0 15 0 16 0
0

0101000
+65 0 -52 0 *
Ve
1e-07
-0.924000000000001 -1.60041494619364 0.118181818181818
0 0

0101101
*
Ed
 1e-07 1 1 0
1  24 0 0 1.8587976457103
2  36 15 0 0 1.8587976457103
4 C0 15 0 17 0
0

0101000
+52 0 -50 0 *
Ed
 1e-07 1 1 0
1  25 0 0 1.8587976457103
2  37 15 0 0 1.8587976457103
4 C0 15 0 18 0
0

0101000
+50 0 -61 0 *
Ed
 1e-07 1 1 0
1  26 0 3.14159265358979 6.28318530717959
2  38 15 0 3.14159265358979 6.28318530717959
4 C0 15 0 4 0
0

0101000
+63 0 -66 0 *
Wi

0101100
+64 0 +51 0 +49 0 +48 0 +60 0 +47 0 *
Fa
0  1e-07 15 0

0111000
+46 0 *
Ed
 1e-07 1 1 0
1  27 0 0 3.14159265358979
2  39 10 0 0 3.14159265358979
4 C0 10 0 7 0
0

0101000
+79 0 -71 0 *
Ve
1e-07
-0.924000000000001 -1.60041494619364 1.18181818181818
0 0

0101101
*
Ed
 1e-07 1 1 0
1  28 0 0 1.8587976457103
2  40 10 0 0 1.8587976457103
4 C0 10 0 18 0
0

0101000
+73 0 -43 0 *
Ve
1e-07
0.924 -1.60041494619364 1.18181818181818
0 0

0101101
*
Ed
 1e-07 1 1 0
1  29 0 0 1.85879764571031
2  41 10 0 0 1.85879764571031
4 C0 10 0 17 0
0

0101000
+43 0 -41 0 *
Ed
 1e-07 1 1 0
1  30 0 0 1.8587976457103
2  42 10 0 0 1.8587976457103
4 C0 10 0 16 0
0

0101000
+41 0 -80 0 *
Wi

0101100
+78 0 +44 0 +70 0 +42 0 +40 0 +39 0 *
Fa
0  1e-07 10 0

0111000
+38 0 *
Ed
 1e-07 1 1 0
1  31 0 0 3.14159265358979
2  43 8 0 0 3.14159265358979
2  44 6 0 0 3.14159265358979
4 C0 8 0 6 0
0

0101000
+93 0 -94 0 *
Ed
 1e-07 1 1 0
1  32 0 0 3.14159265358979
2  45 8 0 0 3.14159265358979
4 C0 8 0 7 0
0

0101000
+86 0 -87 0 *
Wi

0101100
+36 0 -84 0 -35 0 -83 0 *
Fa
0  1e-07 8 0

0111000
+34 0 *
Ed
 1e-07 1 1 0
1  33 0 0 3.14159265358979
2  46 6 0 0 3.14159265358979
2  47 3 0 0 3.14159265358979
4 C0 6 0 3 0
0

0101000
+103 0 -104 0 *
Wi

0101100
+32 0 -91 0 -36 0 -90 0 *
Fa
0  1e-07 6 0

0111000
+31 0 *
Ed
 1e-07 1 1 0
1  34 0 3.14159265358979 6.28318530717959
2  48 3 0 3.14159265358979 6.28318530717959
4 C0 3 0 4 0
0

0101000
+101 0 -99 0 *
Wi

0101100
-29 0 -100 0 -32 0 -97 0 *
Fa
0  1e-07 3 0

0111000
+28 0 *
Ed
 1e-07 1 1 0
1  35 0 0.118181818181818 1.18181818181818
4 C0 13 0 12 0
0

0101000
+59 0 -75 0 *
Ed
 1e-07 1 1 0
1  36 0 0.118181818181818 1.18181818181818
4 C0 13 0 18 0
0

0101000
+61 0 -73 0 *
Wi

0101100
-72 0 -26 0 -58 0 +25 0 *
Fa
0  1e-07 13 0

0111000
+24 0 *
Ed
 1e-07 1 1 0
1  37 0 0.118181818181818 1.18181818181818
4 C0 12 0 11 0
0

0101000
+57 0 -77 0 *
Wi

0101100
-74 0 -22 0 -56 0 +26 0 *
Fa
0  1e-07 12 0

0111000
+21 0 *
Ed
 1e-07 1 1 0
1  38 0 0.118181818181818 1.18181818181818
4 C0 11 0 16 0
0

0101000
+65 0 -80 0 *
Wi

0101100
-76 0 -19 0 -55 0 +22 0 *
Fa
0  1e-07 11 0

0111000
+18 0 *
Ed
 1e-07 1 1 0
1  39 0 0.118181818181818 1.18181818181818
4 C0 16 0 17 0
0

0101000
+52 0 -41 0 *
Wi

0101100
-39 0 -16 0 -51 0 +19 0 *
Fa
0  1e-07 16 0

0111000
+15 0 *
Wi

0101100
-35 0 -85 0 *
Wi

0101100
-44 0 -69 0 *
Fa
0  1e-07 7 0

0111000
+13 0 +12 0 *
Wi

0101100
-98 0 -29 0 *
Wi

0101100
-62 0 -47 0 *
Fa
0  1e-07 4 0

0111000
-10 0 -9 0 *
Ed
 1e-07 1 1 0
1  40 0 0.118181818181818 1.18181818181818
4 C0 17 0 18 0
0

0101000
+50 0 -43 0 *
Wi

0101100
-40 0 -7 0 -49 0 +16 0 *
Fa
0  1e-07 17 0

0111000
+6 0 *
Wi

0101100
-42 0 -25 0 -48 0 +7 0 *
Fa
0  1e-07 18 0

0111000
+4 0 *
Sh

0101100
-95 0 -88 0 -81 0 +67 0 +53 0 +45 0 +37 0 -33 0 -30 0 -27 0 
+23 0 +20 0 +17 0 +14 0 +11 0 -8 0 +5 0 +3 0 *
So

0100000
+2 0 *

+1 0 