DBRep_DrawableShape

CASCADE Topology V1, (c) Matra-Datavision
Locations 0
Curve2ds 48
1 6.2831853071795862 -0.3827215453172188 -1 0 
1 0 -2.8587499999999997 1 0 
1 3.1415926535897931 -1.1102230246251565e-16 0 1 
1 3.1415926535897931 -1.1102230246251565e-16 0 1 
1 0 0.3827215453172188 1 0 
1 0 -2.2204460492503131e-16 0 -1 
1 6.2831853071795862 -2.2204460492503131e-16 0 -1 
1 0 2.8587500000000001 1 0 
1 0 -0.38272154531721869 1 0 
1 3.1415926535897931 0 0 -1 
1 3.1415926535897931 0 0 -1 
1 6.2831853071795862 0 0 1 
1 0 0 0 1 
1 0 0.38272154531721869 1 0 
1 3.1415926535897931 0 0 -1 
1 3.1415926535897931 0 0 -1 
1 6.2831853071795862 0 0 1 
1 0 0 0 1 
1 6.2831853071795862 4.4408920985006262e-16 0 -1 
1 0 4.4408920985006262e-16 0 -1 
7 0 0  3 25 23  6.2831853071795862 0.82510803206215011  6.2680340456277861 0.75429785318302367  6.2375460180780227 0.62102796386850867  6.1912992310482675 0.44471508728245718  6.1445783066133606 0.29044324025804863  6.0974279107402136 0.15698167454625386  6.0498951347942089 0.04327393122479431  6.0020296464011205 -0.051551844750038114  5.9538833126046873 -0.1282087987284713  5.9055099180821431 -0.18726280741688331  5.8569648164595689 -0.22914372590519716  5.8083045642776776 -0.25415313539580248  5.7595865315812862 -0.26246985446142784  5.7108684988848966 -0.25415313539580103  5.6622082467030053 -0.22914372590519569  5.6136631450804337 -0.18726280741688112  5.5652897505578869 -0.12820879872846958  5.5171434167614555 -0.051551844750032244  5.4692779283683617 0.043273931224798549  5.4217451524223632 0.15698167454625381  5.3745947565492127 0.29044324025805007  5.3278738321143084 0.44471508728246201  5.2816270450845524 0.62102796386851322  5.251139017534789 0.75429785318302811  5.2359877559829879 0.82510803206215499 
 0 4 0.34324388344082274 1 0.68648776688164548 1 1.0297316503224683 1 1.372975533763291 1 1.7162194172041136 1 2.0594633006449365 1 2.402707184085759 1 2.7459510675265819 1 3.0891949509674048 1 3.4324388344082273 1 3.7756827178490502 1 4.1189266012898731 1 4.462170484730696 1 4.805414368171518 1 5.1486582516123409 1 5.4919021350531638 1 5.8351460184939867 1 6.1783899019348096 1 6.5216337853756317 1 6.8648776688164546 1 7.2081215522572775 1 7.5513654356981004 4
7 0 0  3 25 23  5.2359877559829897 0.82510803206215166  5.2208364944311896 0.75429785318302445  5.1903484668814261 0.62102796386850923  5.1441016798516701 0.44471508728245829  5.0973807554167649 0.29044324025804841  5.0502303595436171 0.15698167454624851  5.0026975835976124 0.043273931224796038  4.9548320952045231 -0.051551844750039676  4.906685761408089 -0.12820879872847168  4.8583123668855457 -0.18726280741689011  4.8097672652629715 -0.22914372590519921  4.7611070130810811 -0.25415313539580719  4.7123889803846897 -0.26246985446143156  4.6636709476882992 -0.25415313539580653  4.6150106955064079 -0.22914372590520024  4.5664655938838328 -0.18726280741688589  4.5180921993612913 -0.12820879872847549  4.4699458655648563 -0.051551844750033861  4.4220803771717643 0.043273931224791236  4.374547601225764 0.15698167454625075  4.3273972053526135 0.29044324025804469  4.2806762809177101 0.44471508728245823  4.2344294938879532 0.62102796386850911  4.2039414663381898 0.75429785318302456  4.1887902047863896 0.82510803206215166 
 0 4 0.34324388344082318 1 0.68648776688164637 1 1.0297316503224696 1 1.3729755337632927 1 1.7162194172041159 1 2.0594633006449392 1 2.4027071840857621 1 2.7459510675265855 1 3.0891949509674088 1 3.4324388344082317 1 3.7756827178490551 1 4.1189266012898784 1 4.4621704847307013 1 4.8054143681715242 1 5.148658251612348 1 5.4919021350531709 1 5.8351460184939938 1 6.1783899019348176 1 6.5216337853756405 1 6.8648776688164634 1 7.2081215522572872 1 7.5513654356981101 4
7 0 0  3 25 23  4.1887902047863905 0.82510803206214756  4.1736389432345895 0.75429785318302145  4.143150915684827 0.621027963868507  4.0969041286550727 0.44471508728245623  4.0501832042201649 0.29044324025804608  4.003032808347017 0.15698167454625039  3.9555000324010163 0.04327393122479585  3.9076345440079239 -0.051551844750035637  3.8594882102114911 -0.12820879872847096  3.8111148156889465 -0.18726280741688217  3.7625697140663745 -0.22914372590519705  3.7139094618844841 -0.25415313539580403  3.6651914291880914 -0.26246985446142684  3.6164733964917017 -0.25415313539580331  3.5678131443098109 -0.22914372590519974  3.519268042687238 -0.18726280741688164  3.470894648164693 -0.12820879872847021  3.4227483143682607 -0.051551844750034041  3.3748828259751686 0.043273931224796475  3.3273500500291671 0.15698167454625112  3.2801996541560188 0.29044324025804819  3.2334787297211136 0.44471508728245746  3.1872319426913576 0.621027963868508  3.1567439151415946 0.754297853183023  3.141592653589794 0.82510803206215011 
 0 4 0.3432438834408218 1 0.68648776688164359 1 1.0297316503224654 1 1.3729755337632872 1 1.716219417204109 1 2.0594633006449308 1 2.4027071840857523 1 2.7459510675265744 1 3.0891949509673964 1 3.432438834408218 1 3.7756827178490395 1 4.1189266012898615 1 4.4621704847306836 1 4.8054143681715047 1 5.1486582516123267 1 5.4919021350531487 1 5.8351460184939707 1 6.1783899019347928 1 6.5216337853756139 1 6.8648776688164359 1 7.2081215522572579 1 7.5513654356980799 4
1 3.1415926535897931 0 0 1 
1 3.1415926535897931 0 0 1 
1 0 -0.82510803206214978 1 0 
1 0 -1.1102230246251565e-16 0 1 
1 6.2831853071795862 -1.1102230246251565e-16 0 1 
1 0 -0.82510803206214967 1 0 
1 3.1415926535897931 1.1102230246251565e-16 0 -1 
1 3.1415926535897931 1.1102230246251565e-16 0 -1 
7 0 0  3 25 23  3.1415926535897931 0.82510803206215  3.126441392037993 0.75429785318302378  3.0959533644882296 0.62102796386850889  3.0497065774584744 0.44471508728245612  3.0029856530235648 0.29044324025804913  2.9558352571504223 0.1569816745462517  2.9083024812044158 0.043273931224794317  2.8604369928113265 -0.051551844750037115  2.8122906590148933 -0.12820879872847135  2.7639172644923491 -0.18726280741688481  2.7153721628697784 -0.22914372590519935  2.6667119106878818 -0.25415313539580558  2.6179938779914966 -0.26246985446142879  2.569275845295099 -0.2541531353958042  2.520615593113213 -0.22914372590519969  2.4720704914906406 -0.18726280741688503  2.4236970969680929 -0.12820879872846999  2.3755507631716615 -0.05155184475003672  2.3276852747785686 0.043273931224796461  2.2801524988325674 0.15698167454624828  2.2330021029594214 0.29044324025804569  2.1862811785245135 0.44471508728245973  2.1400343914947619 0.62102796386850845  2.109546363944995 0.754297853183023  2.094395102393193 0.82510803206215022 
 0 4 0.34324388344082274 1 0.68648776688164548 1 1.0297316503224683 1 1.372975533763291 1 1.7162194172041136 1 2.0594633006449365 1 2.402707184085759 1 2.7459510675265819 1 3.0891949509674048 1 3.4324388344082273 1 3.7756827178490502 1 4.1189266012898731 1 4.462170484730696 1 4.805414368171518 1 5.1486582516123409 1 5.4919021350531638 1 5.8351460184939867 1 6.1783899019348096 1 6.5216337853756317 1 6.8648776688164546 1 7.2081215522572775 1 7.5513654356981004 4
7 0 0  3 25 23  2.0943951023931966 0.82510803206215177  2.0792438408413965 0.75429785318302445  2.048755813291633 0.62102796386850923  2.0025090262618779 0.44471508728245907  1.95578810182697 0.29044324025804741  1.9086377059538258 0.15698167454625134  1.8611049300078175 0.043273931224793359  1.8132394416147317 -0.051551844750037233  1.765093107818295 -0.12820879872847424  1.7167197132957517 -0.18726280741688736  1.6681746116731793 -0.22914372590520063  1.619514359491288 -0.25415313539580697  1.5707963267948966 -0.2624698544614314  1.5220782940985051 -0.25415313539580664  1.4734180419166156 -0.22914372590520179  1.4248729402940414 -0.18726280741688825  1.376499545771499 -0.12820879872847432  1.3283532119750614 -0.051551844750035769  1.280487723581972 0.043273931224792318  1.2329549476359718 0.15698167454624934  1.1858045517628204 0.29044324025804547  1.139083627327917 0.44471508728245951  1.092836840298161 0.62102796386850923  1.0623488127483967 0.75429785318302434  1.0471975511965965 0.82510803206215177 
 0 4 0.34324388344082274 1 0.68648776688164548 1 1.0297316503224683 1 1.372975533763291 1 1.7162194172041136 1 2.0594633006449365 1 2.402707184085759 1 2.7459510675265819 1 3.0891949509674048 1 3.4324388344082273 1 3.7756827178490502 1 4.1189266012898731 1 4.462170484730696 1 4.805414368171518 1 5.1486582516123409 1 5.4919021350531638 1 5.8351460184939867 1 6.1783899019348096 1 6.5216337853756317 1 6.8648776688164546 1 7.2081215522572775 1 7.5513654356981004 4
7 0 0  3 25 23  1.0471975511965983 0.82510803206215466  1.0320462896447982 0.75429785318302822  1.0015582620950347 0.62102796386851322  0.95531147506527958 0.44471508728246195  0.90859055063037353 0.29044324025805046  0.8614401547572248 0.15698167454625522  0.81390737881122011 0.043273931224798723  0.76604189041813253 -0.051551844750033701  0.71789555662169757 -0.12820879872846941  0.66952216209915427 -0.18726280741688067  0.62097706047658185 -0.22914372590519766  0.57231680829468967 -0.25415313539580098  0.52359877559829826 -0.2624698544614284  0.47488074290190596 -0.25415313539579926  0.42622049072001911 -0.22914372590519955  0.37767538909744491 -0.18726280741688489  0.32930199457489806 -0.12820879872847016  0.28115566077846843 -0.051551844750035589  0.23329017238537286 0.043273931224797474  0.18575739643937705 0.15698167454624853  0.1386070005662221 0.29044324025804874  0.091886076131320493 0.44471508728245668  0.045639289101563563 0.62102796386850767  0.015151261551800133 0.754297853183023  0 0.82510803206215 
 0 4 0.34324388344082274 1 0.68648776688164548 1 1.0297316503224683 1 1.372975533763291 1 1.7162194172041136 1 2.0594633006449365 1 2.402707184085759 1 2.7459510675265819 1 3.0891949509674048 1 3.4324388344082273 1 3.7756827178490502 1 4.1189266012898731 1 4.462170484730696 1 4.805414368171518 1 5.1486582516123409 1 5.4919021350531638 1 5.8351460184939867 1 6.1783899019348096 1 6.5216337853756317 1 6.8648776688164546 1 7.2081215522572775 1 7.5513654356981004 4
7 0 0  3 25 23  6.2831853071795862 0.82510803206215  6.2680340456277861 0.75429785318302378  6.2375460180780227 0.62102796386850889  6.1912992310482675 0.44471508728245623  6.1445783066133606 0.29044324025804885  6.0974279107402136 0.15698167454625314  6.0498951347942089 0.043273931224794324  6.0020296464011205 -0.051551844750038336  5.9538833126046873 -0.12820879872847105  5.9055099180821431 -0.187262807416884  5.8569648164595689 -0.22914372590519769  5.8083045642776776 -0.25415313539580248  5.7595865315812862 -0.26246985446142762  5.7108684988848966 -0.25415313539580164  5.6622082467030053 -0.22914372590519594  5.6136631450804337 -0.18726280741688248  5.5652897505578869 -0.12820879872846913  5.5171434167614555 -0.051551844750032778  5.4692779283683617 0.04327393122479925  5.4217451524223632 0.15698167454625259  5.3745947565492127 0.29044324025804985  5.3278738321143084 0.44471508728246251  5.2816270450845524 0.62102796386851233  5.251139017534789 0.75429785318302756  5.2359877559829879 0.82510803206215477 
 0 4 0.34324388344082274 1 0.68648776688164548 1 1.0297316503224683 1 1.372975533763291 1 1.7162194172041136 1 2.0594633006449365 1 2.402707184085759 1 2.7459510675265819 1 3.0891949509674048 1 3.4324388344082273 1 3.7756827178490502 1 4.1189266012898731 1 4.462170484730696 1 4.805414368171518 1 5.1486582516123409 1 5.4919021350531638 1 5.8351460184939867 1 6.1783899019348096 1 6.5216337853756317 1 6.8648776688164546 1 7.2081215522572775 1 7.5513654356981004 4
7 0 0  3 25 23  5.2359877559829888 0.82510803206214656  5.2208364944311878 0.75429785318302012  5.1903484668814253 0.62102796386850578  5.144101679851671 0.44471508728245568  5.0973807554167614 0.29044324025804336  5.0502303595436162 0.15698167454625006  5.0026975835976106 0.043273931224791465  4.9548320952045222 -0.051551844750039245  4.9066857614080881 -0.12820879872847515  4.8583123668855448 -0.18726280741688725  4.8097672652629715 -0.22914372590520085  4.7611070130810811 -0.25415313539580714  4.7123889803846888 -0.26246985446143151  4.6636709476882983 -0.25415313539580719  4.6150106955064079 -0.22914372590520057  4.5664655938838363 -0.18726280741688892  4.5180921993612904 -0.12820879872847449  4.4699458655648563 -0.051551844750035929  4.4220803771717661 0.043273931224791229  4.3745476012257649 0.15698167454624667  4.3273972053526153 0.29044324025804513  4.280676280917711 0.44471508728245623  4.2344294938879541 0.62102796386850545  4.2039414663381915 0.75429785318301978  4.1887902047863905 0.82510803206214689 
 0 4 0.34324388344082274 1 0.68648776688164548 1 1.0297316503224683 1 1.372975533763291 1 1.7162194172041136 1 2.0594633006449365 1 2.402707184085759 1 2.7459510675265819 1 3.0891949509674048 1 3.4324388344082273 1 3.7756827178490502 1 4.1189266012898731 1 4.462170484730696 1 4.805414368171518 1 5.1486582516123409 1 5.4919021350531638 1 5.8351460184939867 1 6.1783899019348096 1 6.5216337853756317 1 6.8648776688164546 1 7.2081215522572775 1 7.5513654356981004 4
7 0 0  3 25 23  4.1887902047863905 0.82510803206214733  4.1736389432345886 0.75429785318302067  4.1431509156848252 0.62102796386850523  4.0969041286550718 0.44471508728245324  4.050183204220164 0.29044324025804452  4.003032808347017 0.15698167454624865  3.9555000324010141 0.043273931224792075  3.9076345440079243 -0.05155184475003903  3.8594882102114907 -0.12820879872847527  3.8111148156889465 -0.18726280741688558  3.7625697140663732 -0.22914372590520093  3.7139094618844819 -0.25415313539580686  3.6651914291880914 -0.26246985446143051  3.6164733964917 -0.25415313539580431  3.5678131443098096 -0.22914372590520113  3.5192680426872371 -0.18726280741688747  3.4708946481646921 -0.1282087987284723  3.4227483143682584 -0.051551844750038572  3.3748828259751678 0.0432739312247973  3.3273500500291657 0.15698167454624765  3.280199654156017 0.2904432402580478  3.2334787297211123 0.44471508728245723  3.1872319426913571 0.62102796386850678  3.1567439151415932 0.75429785318302212  3.1415926535897927 0.82510803206215 
 0 4 0.34324388344082274 1 0.68648776688164548 1 1.0297316503224683 1 1.372975533763291 1 1.7162194172041136 1 2.0594633006449365 1 2.402707184085759 1 2.7459510675265819 1 3.0891949509674048 1 3.4324388344082273 1 3.7756827178490502 1 4.1189266012898731 1 4.462170484730696 1 4.805414368171518 1 5.1486582516123409 1 5.4919021350531638 1 5.8351460184939867 1 6.1783899019348096 1 6.5216337853756317 1 6.8648776688164546 1 7.2081215522572775 1 7.5513654356981004 4
1 0 -0.82510803206214967 1 0 
1 0 -0.82510803206214978 1 0 
7 0 0  3 25 23  3.141592653589794 0.82510803206215011  3.1264413920379934 0.75429785318302334  3.0959533644882304 0.62102796386850845  3.0497065774584753 0.44471508728245829  3.0029856530235683 0.29044324025804941  2.9558352571504218 0.15698167454625456  2.908302481204418 0.043273931224795469  2.8604369928113278 -0.05155184475003359  2.8122906590148942 -0.12820879872847077  2.7639172644923504 -0.18726280741688006  2.7153721628697776 -0.22914372590519572  2.6667119106878863 -0.25415313539580159  2.6179938779914949 -0.2624698544614274  2.5692758452951043 -0.25415313539579909  2.520615593113213 -0.22914372590519916  2.4720704914906411 -0.1872628074168792  2.4236970969680951 -0.12820879872846874  2.3755507631716624 -0.051551844750032542  2.3276852747785717 0.043273931224798896  2.2801524988325688 0.15698167454625273  2.23300210295942 0.29044324025804907  2.1862811785245153 0.44471508728246223  2.1400343914947593 0.62102796386851322  2.1095463639449958 0.75429785318302811  2.0943951023931953 0.82510803206215499 
 0 4 0.34324388344082274 1 0.68648776688164548 1 1.0297316503224683 1 1.372975533763291 1 1.7162194172041136 1 2.0594633006449365 1 2.402707184085759 1 2.7459510675265819 1 3.0891949509674048 1 3.4324388344082273 1 3.7756827178490502 1 4.1189266012898731 1 4.462170484730696 1 4.805414368171518 1 5.1486582516123409 1 5.4919021350531638 1 5.8351460184939867 1 6.1783899019348096 1 6.5216337853756317 1 6.8648776688164546 1 7.2081215522572775 1 7.5513654356981004 4
7 0 0  3 25 23  2.0943951023931957 0.82510803206214678  2.0792438408413956 0.75429785318301967  2.0487558132916321 0.62102796386850501  2.0025090262618757 0.44471508728245596  1.9557881018269709 0.2904432402580443  1.9086377059538226 0.15698167454624751  1.8611049300078206 0.043273931224794338  1.8132394416147288 -0.051551844750039669  1.7650931078182959 -0.12820879872847332  1.7167197132957523 -0.18726280741688836  1.6681746116731786 -0.22914372590519969  1.6195143594912877 -0.25415313539580708  1.5707963267948966 -0.26246985446143151  1.5220782940985058 -0.25415313539580697  1.4734180419166145 -0.22914372590520013  1.4248729402940412 -0.1872628074168865  1.3764995457714977 -0.1282087987284746  1.3283532119750636 -0.051551844750036546  1.2804877235819732 0.043273931224791132  1.2329549476359707 0.15698167454624848  1.1858045517628224 0.2904432402580433  1.1390836273279177 0.44471508728245546  1.092836840298161 0.62102796386850589  1.0623488127483978 0.75429785318302034  1.0471975511965974 0.82510803206214678 
 0 4 0.34324388344082224 1 0.68648776688164448 1 1.0297316503224667 1 1.372975533763289 1 1.7162194172041112 1 2.0594633006449334 1 2.4027071840857559 1 2.7459510675265779 1 3.0891949509673999 1 3.4324388344082224 1 3.7756827178490449 1 4.1189266012898669 1 4.4621704847306889 1 4.8054143681715118 1 5.1486582516123338 1 5.4919021350531558 1 5.8351460184939778 1 6.1783899019347999 1 6.5216337853756228 1 6.8648776688164448 1 7.2081215522572668 1 7.5513654356980897 4
7 0 0  3 25 23  1.0471975511965981 0.82510803206215499  1.0320462896447975 0.75429785318302722  1.0015582620950343 0.62102796386851078  0.95531147506527858 0.4447150872824589  0.90859055063037286 0.29044324025804952  0.86144015475722513 0.1569816745462535  0.81390737881122177 0.043273931224794941  0.76604189041813187 -0.051551844750035304  0.71789555662169757 -0.12820879872847324  0.66952216209915383 -0.18726280741688325  0.62097706047658041 -0.22914372590520038  0.57231680829468956 -0.2541531353958047  0.52359877559829837 -0.26246985446143051  0.47488074290190746 -0.25415313539580325  0.42622049072001639 -0.22914372590519899  0.37767538909744353 -0.1872628074168855  0.32930199457489939 -0.12820879872847341  0.28115566077846554 -0.051551844750037185  0.23329017238537478 0.043273931224797418  0.1857573964393725 0.15698167454624845  0.13860700056622438 0.29044324025804785  0.091886076131319286 0.44471508728245668  0.045639289101563028 0.621027963868507  0.015151261551800178 0.75429785318302256  0 0.82510803206215011 
 0 4 0.34324388344082274 1 0.68648776688164548 1 1.0297316503224683 1 1.372975533763291 1 1.7162194172041136 1 2.0594633006449365 1 2.402707184085759 1 2.7459510675265819 1 3.0891949509674048 1 3.4324388344082273 1 3.7756827178490502 1 4.1189266012898731 1 4.462170484730696 1 4.805414368171518 1 5.1486582516123409 1 5.4919021350531638 1 5.8351460184939867 1 6.1783899019348096 1 6.5216337853756317 1 6.8648776688164546 1 7.2081215522572775 1 7.5513654356981004 4
1 0 -0.38272154531721869 1 0 
1 0 2.8587500000000001 1 0 
1 0 0.38272154531721869 1 0 
1 0 -2.8587499999999997 1 0 
1 6.2831853071795862 -0.3827215453172188 -1 0 
1 0 0.3827215453172188 1 0 
Curves 40
2 0 3.3140909450318101e-17 0.54125000000000001 -0 6.12303176911189e-17 1 1 0 0 0 1 -6.12303176911189e-17 3.4587500000000002
1 -3.7293750000000001 4.7327208680379201e-16 0.270625 -0.70710678118654802 4.3296372853596802e-17 -0.70710678118654702 
2 0 0 0 0 0 -1 1 0 0 0 -1 0 4
1 3.7293750000000001 -4.4013117735347402e-16 0.270625 -0.70710678118654802 1.2988911856079e-16 0.70710678118654702 
2 0 3.8322525084929e-16 6.25875 -0 6.12303176911189e-17 1 1 0 0 0 1 -6.12303176911189e-17 3.4587500000000002
1 -3.4587500000000002 6.3174380277811902e-16 3.3999999999999999 -0 -6.12303176911189e-17 -1 
1 3.4587500000000002 -2.15377642478511e-16 3.3999999999999999 -0 6.12303176911189e-17 1 
2 0 4.1636616029960799e-16 6.7999999999999998 0 0 1 1 0 -0 -0 1 0 4
1 -3.7293750000000001 8.5649733765308201e-16 6.5293749999999999 0.70710678118654802 -1.2988911856079e-16 -0.70710678118654702 
1 3.7293750000000001 -5.6905926504183596e-17 6.5293749999999999 0.70710678118654802 -4.3296372853596802e-17 0.70710678118654702 
1 6.7424731543986001 -4.28247120794798e-16 6.4909090909090903 -0.92718385456678742 1.3648080467044505e-16 0.37460659341591218 
7 1 0  2 3 2  7.5075000000000003 -1.05297539578302e-15 6.1818181818181799  1 5.6306250000000002 3.2508428594558398 6.9401249044325404  1.1547005383792499 3.7537500000000001 6.5016857189116797 6.1818181818181799  1
 0 3 7.5513654356981004 3
7 1 0  2 3 2  3.7537500000000099 6.5016857189116699 6.1818181818181799  1 0 6.5016857189116699 6.9401249044325404  1.1547005383792499 -3.7537500000000099 6.5016857189116699 6.1818181818181799  1
 0 3 7.5513654356981101 3
7 1 0  2 3 2  -3.7537500000000001 6.5016857189116699 6.1818181818181799  1 -5.6306250000000002 3.2508428594558398 6.9401249044325404  1.1547005383792499 -7.5075000000000003 6.3641837087534303e-15 6.1818181818181799  1
 0 3 7.5513654356980799 3
1 -6.7424731543986001 1.22312797227587e-15 6.4909090909090903 -0.92718385456678742 9.060624322235704e-17 -0.37460659341591218 
2 0 4.1636616029960799e-16 6.7999999999999998 0 0 -1 1 0 0 0 -1 0 5.9774463087971998
1 6.7424731543986001 -8.0676181197626005e-16 0.30909090909090903 0.92718385456678742 -9.060624322235704e-17 0.37460659341591218 
2 0 0 0 0 0 1 1 0 -0 -0 1 0 5.9774463087971998
1 -6.7424731543986001 8.44613281094406e-16 0.30909090909090903 0.92718385456678742 -1.3648080467044505e-16 -0.37460659341591218 
7 1 0  2 3 2  -7.5075000000000003 -9.7217619909114097e-16 0.61818181818181905  1 -5.6306250000000002 3.2508428594558398 -0.140124904432543  1.1547005383792499 -3.7537499999999899 6.5016857189116797 0.61818181818181905  1
 0 3 7.5513654356981004 3
7 1 0  2 3 2  -3.7537500000000099 6.5016857189116699 0.61818181818181905  1 0 6.5016857189116699 -0.140124904432543  1.1547005383792499 3.7537500000000099 6.5016857189116699 0.61818181818181905  1
 0 3 7.5513654356981004 3
7 1 0  2 3 2  3.7537500000000001 6.5016857189116797 0.61818181818181805  1 5.6306250000000002 3.2508428594558398 -0.140124904432542  1.1547005383792499 7.5075000000000003 -1.4666534727268999e-15 0.61818181818181905  1
 0 3 7.5513654356981004 3
7 1 0  2 3 2  7.5075000000000003 1.9946874427234399e-15 0.61818181818181905  1 5.6306250000000002 -3.2508428594558398 -0.140124904432542  1.1547005383792499 3.7537500000000001 -6.5016857189116797 0.61818181818181905  1
 0 3 7.5513654356981004 3
7 1 0  2 3 2  3.7537500000000001 -6.5016857189116699 0.61818181818181905  1 -1.41533014129836e-15 -6.5016857189116699 -0.140124904432542  1.1547005383792499 -3.7537500000000001 -6.5016857189116699 0.61818181818181805  1
 0 3 7.5513654356981004 3
7 1 0  2 3 2  -3.7537500000000001 -6.5016857189116699 0.61818181818181905  1 -5.6306250000000002 -3.2508428594558301 -0.140124904432541  1.1547005383792499 -7.5075000000000003 3.9725965372664902e-15 0.61818181818181905  1
 0 3 7.5513654356981004 3
2 0 0 0 0 0 1 1 0 -0 -0 1 0 5.9774463087971998
2 0 4.1636616029960799e-16 6.7999999999999998 0 0 -1 1 0 0 0 -1 0 5.9774463087971998
7 1 0  2 3 2  -7.5075000000000003 7.8476155296607199e-15 6.1818181818181799  1 -5.63062500000001 -3.2508428594558301 6.9401249044325404  1.1547005383792499 -3.7537500000000001 -6.5016857189116797 6.1818181818181799  1
 0 3 7.5513654356981004 3
7 1 0  2 3 2  -3.7537500000000001 -6.5016857189116699 6.1818181818181799  1 -8.8817841970012504e-16 -6.5016857189116699 6.9401249044325404  1.1547005383792499 3.7537500000000001 -6.5016857189116699 6.1818181818181799  1
 0 3 7.5513654356980897 3
7 1 0  2 3 2  3.7537500000000001 -6.5016857189116797 6.1818181818181799  1 5.6306250000000002 -3.2508428594558301 6.9401249044325404  1.1547005383792499 7.5075000000000003 3.8917973405746098e-15 6.1818181818181799  1
 0 3 7.5513654356981004 3
2 0 3.8322525084929e-16 6.25875 -0 6.12303176911189e-17 1 1 0 0 0 1 -6.12303176911189e-17 3.4587500000000002
2 0 4.1636616029960799e-16 6.7999999999999998 0 0 1 1 0 -0 -0 1 0 4
2 0 3.3140909450318101e-17 0.54125000000000001 -0 6.12303176911189e-17 1 1 0 0 0 1 -6.12303176911189e-17 3.4587500000000002
2 0 0 0 0 0 -1 1 0 0 0 -1 0 4
1 -3.7537500000000001 6.5016857189116699 0 0 0 1 
1 -7.5075000000000003 9.1937322013214998e-16 0 0 0 1 
1 3.7537500000000001 6.5016857189116699 0 0 0 1 
1 7.5075000000000003 0 0 0 0 1 
1 3.7537500000000001 -6.5016857189116699 0 0 0 1 
1 -3.7537500000000001 -6.5016857189116699 0 0 0 1 
Polygon3D 0
PolygonOnTriangulations 0
Surfaces 18
3 0 1.6570454725159001e-17 0.270625 0 -6.12303176911189e-17 -1 1 0 0 0 -1 6.12303176911189e-17 3.7293750000000001
0.78539816339744795
2 0 2.08183080149804e-16 3.3999999999999999 -0 6.12303176911189e-17 1 1 0 0 0 1 -6.12303176911189e-17 3.4587500000000002
3 0 1.6570454725159001e-17 0.270625 0 -6.12303176911189e-17 -1 1 0 0 0 -1 6.12303176911189e-17 3.7293750000000001
0.78539816339744795
1 1.3457248783335199e-16 -4.4408920985006301e-16 0 0 0 1 1 0 -0 -0 1 0 
3 0 3.99795705574449e-16 6.5293749999999999 -0 6.12303176911189e-17 1 1 0 0 0 1 -6.12303176911189e-17 3.7293750000000001
0.78539816339744795
2 0 2.08183080149804e-16 3.3999999999999999 -0 6.12303176911189e-17 1 1 0 0 0 1 -6.12303176911189e-17 3.4587500000000002
1 1.3457248783335199e-16 -4.4408920985006301e-16 6.7999999999999998 0 0 1 1 0 -0 -0 1 0 
3 0 3.99795705574449e-16 6.5293749999999999 -0 6.12303176911189e-17 1 1 0 0 0 1 -6.12303176911189e-17 3.7293750000000001
0.78539816339744795
3 0 3.9744042574053502e-16 6.4909090909090903 0 -6.12303176911189e-17 -1 1 0 0 0 -1 6.12303176911189e-17 6.7424731543986001
1.18682389135614
3 0 3.9744042574053502e-16 6.4909090909090903 0 -6.12303176911189e-17 -1 1 0 0 0 -1 6.12303176911189e-17 6.7424731543986001
1.18682389135614
1 5.6306250000000002 3.2508428594558398 0 0.86602540378443882 0.49999999999999989 -0 -0.49999999999999989 0.86602540378443882 0 0 0 1 
1 8.8817841970012504e-16 6.5016857189116699 0 0 1 -0 -1 0 0 0 0 1 
1 -5.6306250000000002 3.2508428594558398 0 -0.86602540378443849 0.50000000000000033 0 -0.50000000000000033 -0.86602540378443849 0 0 0 1 
3 0 1.89257345590731e-17 0.30909090909090903 -0 6.12303176911189e-17 1 1 0 0 0 1 -6.12303176911189e-17 6.7424731543986001
1.18682389135614
3 0 1.89257345590731e-17 0.30909090909090903 -0 6.12303176911189e-17 1 1 0 0 0 1 -6.12303176911189e-17 6.7424731543986001
1.18682389135614
1 5.6306250000000002 -3.2508428594558398 0 0.86602540378443882 -0.49999999999999989 0 0.49999999999999989 0.86602540378443882 0 -0 0 1 
1 -1.7763568394002501e-15 -6.5016857189116699 0 -1.1830548380954001e-16 -1 0 1 -1.1830548380954001e-16 0 0 0 1 
1 -5.6306250000000002 -3.2508428594558398 0 -0.86602540378443882 -0.49999999999999989 0 0.49999999999999989 -0.86602540378443882 0 0 0 1 
Triangulations 0

TShapes 104
Ve
1e-07
-3.45875 4.56701632078633e-16 0.54125
0 0

0101101
*
Ve
1e-07
3.45875 3.31409094503181e-17 0.54125
0 0

0101101
*
Ed
 1e-07 1 1 0
1  1 0 3.14159265358979 6.28318530717959
2  1 1 0 3.14159265358979 6.28318530717959
2  2 2 0 3.14159265358979 6.28318530717959
4 C0 1 0 2 0
0

0101000
+104 0 -103 0 *
Ve
1e-07
-4 4.89842541528951e-16 0
0 0

0101101
*
Ed
 1e-07 1 1 0
1  2 0 -0.382721545317219 0.382721545317219
2  3 1 0 -0.382721545317219 0.382721545317219
2  4 3 0 -0.382721545317219 0.382721545317219
4 CN 1 0 3 0
0

0101000
+104 0 -101 0 *
Ve
1e-07
4 0 0
0 0

0101101
*
Ed
 1e-07 1 1 0
1  3 0 0 3.14159265358979
2  5 1 0 0 3.14159265358979
4 C0 1 0 4 0
0

0101000
+99 0 -101 0 *
Ed
 1e-07 1 1 0
1  4 0 -0.382721545317219 0.382721545317219
2  6 1 0 -0.382721545317219 0.382721545317219
2  7 3 0 -0.382721545317219 0.382721545317219
4 CN 1 0 3 0
0

0101000
+99 0 -103 0 *
Wi

0101100
-102 0 +100 0 -98 0 +97 0 *
Fa
0  1e-07 1 0

0111000
+96 0 *
Ve
1e-07
-3.45875 8.06785973477605e-16 6.25875
0 0

0101101
*
Ve
1e-07
3.45875 3.8322525084929e-16 6.25875
0 0

0101101
*
Ed
 1e-07 1 1 0
1  5 0 3.14159265358979 6.28318530717959
2  8 2 0 3.14159265358979 6.28318530717959
2  9 5 0 3.14159265358979 6.28318530717959
4 C0 2 0 5 0
0

0101000
+94 0 -93 0 *
Ed
 1e-07 1 1 0
1  6 0 -2.85875 2.85875
2  10 2 0 -2.85875 2.85875
2  11 6 0 -2.85875 2.85875
4 CN 2 0 6 0
0

0101000
+94 0 -104 0 *
Ed
 1e-07 1 1 0
1  7 0 -2.85875 2.85875
2  12 2 0 -2.85875 2.85875
2  13 6 0 -2.85875 2.85875
4 CN 2 0 6 0
0

0101000
+103 0 -93 0 *
Wi

0101100
-92 0 +91 0 +102 0 +90 0 *
Fa
0  1e-07 2 0

0111000
+89 0 *
Ve
1e-07
-4 9.06208701828559e-16 6.8
0 0

0101101
*
Ve
1e-07
4 4.16366160299608e-16 6.8
0 0

0101101
*
Ed
 1e-07 1 1 0
1  8 0 3.14159265358979 6.28318530717959
2  14 5 0 3.14159265358979 6.28318530717959
4 C0 5 0 7 0
0

0101000
+87 0 -86 0 *
Ed
 1e-07 1 1 0
1  9 0 -0.382721545317219 0.382721545317219
2  15 5 0 -0.382721545317219 0.382721545317219
2  16 8 0 -0.382721545317219 0.382721545317219
4 CN 5 0 8 0
0

0101000
+87 0 -94 0 *
Ed
 1e-07 1 1 0
1  10 0 -0.382721545317219 0.382721545317219
2  17 5 0 -0.382721545317219 0.382721545317219
2  18 8 0 -0.382721545317219 0.382721545317219
4 CN 5 0 8 0
0

0101000
+93 0 -86 0 *
Wi

0101100
-85 0 +84 0 +92 0 +83 0 *
Fa
0  1e-07 5 0

0111000
+82 0 *
Ve
1e-07
7.5075 3.78514691181462e-16 6.18181818181818
0 0

0101101
*
Ve
1e-07
5.9774463087972 4.16366160299608e-16 6.8
0 0

0101101
*
Ed
 1e-07 1 1 0
1  11 0 -0.82510803206215 0.82510803206215
2  19 9 0 -0.82510803206215 0.82510803206215
2  20 10 0 -0.82510803206215 0.82510803206215
4 CN 9 0 10 0
0

0101000
+80 0 -79 0 *
Ve
1e-07
3.75375 6.50168571891167 6.18181818181818
0 0

0101101
*
Ed
 1e-07 1 1 0
1  12 0 0 7.5513654356981
2  21 9 0 0 7.5513654356981
4 C0 9 0 11 0
0

0101000
+80 0 -77 0 *
Ve
1e-07
-3.75375 6.50168571891168 6.18181818181818
0 0

0101101
*
Ed
 1e-07 1 1 0
1  13 0 0 7.55136543569811
2  22 9 0 0 7.55136543569811
4 C0 9 0 12 0
0

0101000
+77 0 -75 0 *
Ve
1e-07
-7.5075 3.10862446895044e-15 6.18181818181818
0 0

0101101
*
Ed
 1e-07 1 1 0
1  14 0 0 7.55136543569808
2  23 9 0 0 7.55136543569808
4 C0 9 0 13 0
0

0101000
+75 0 -73 0 *
Ve
1e-07
-5.9774463087972 1.14836803323812e-15 6.8
0 0

0101101
*
Ed
 1e-07 1 1 0
1  15 0 -0.82510803206215 0.82510803206215
2  24 9 0 -0.82510803206215 0.82510803206215
2  25 10 0 -0.82510803206215 0.82510803206215
4 CN 9 0 10 0
0

0101000
+71 0 -73 0 *
Ed
 1e-07 1 1 0
1  16 0 3.14159265358979 6.28318530717959
2  26 9 0 3.14159265358979 6.28318530717959
4 C0 9 0 7 0
0

0101000
+71 0 -79 0 *
Wi

0101100
-78 0 +76 0 +74 0 +72 0 -70 0 +69 0 *
Fa
0  1e-07 9 0

0111000
+68 0 *
Ve
1e-07
5.9774463087972 0 0
0 0

0101101
*
Ve
1e-07
7.5075 3.78514691181462e-17 0.618181818181818
0 0

0101101
*
Ed
 1e-07 1 1 0
1  17 0 -0.82510803206215 0.82510803206215
2  27 14 0 -0.82510803206215 0.82510803206215
2  28 15 0 -0.82510803206215 0.82510803206215
4 CN 14 0 15 0
0

0101000
+66 0 -65 0 *
Ve
1e-07
-5.9774463087972 7.32001872938516e-16 0
0 0

0101101
*
Ed
 1e-07 1 1 0
1  18 0 0 3.14159265358979
2  29 14 0 0 3.14159265358979
4 C0 14 0 4 0
0

0101000
+66 0 -63 0 *
Ve
1e-07
-7.5075 2.66453525910038e-15 0.618181818181818
0 0

0101101
*
Ed
 1e-07 1 1 0
1  19 0 -0.82510803206215 0.82510803206215
2  30 14 0 -0.82510803206215 0.82510803206215
2  31 15 0 -0.82510803206215 0.82510803206215
4 CN 14 0 15 0
0

0101000
+61 0 -63 0 *
Ve
1e-07
-3.75375 6.50168571891168 0.618181818181818
0 0

0101101
*
Ed
 1e-07 1 1 0
1  20 0 0 7.5513654356981
2  32 14 0 0 7.5513654356981
4 C0 14 0 13 0
0

0101000
+61 0 -59 0 *
Ve
1e-07
3.75375 6.50168571891167 0.618181818181818
0 0

0101101
*
Ed
 1e-07 1 1 0
1  21 0 0 7.5513654356981
2  33 14 0 0 7.5513654356981
4 C0 14 0 12 0
0

0101000
+59 0 -57 0 *
Ed
 1e-07 1 1 0
1  22 0 0 7.5513654356981
2  34 14 0 0 7.5513654356981
4 C0 14 0 11 0
0

0101000
+57 0 -65 0 *
Wi

0101100
-64 0 +62 0 -60 0 +58 0 +56 0 +55 0 *
Fa
0  1e-07 14 0

0111000
+54 0 *
Ve
1e-07
3.75375 -6.50168571891167 0.618181818181819
0 0

0101101
*
Ed
 1e-07 1 1 0
1  23 0 0 7.5513654356981
2  35 15 0 0 7.5513654356981
4 C0 15 0 16 0
0

0101000
+65 0 -52 0 *
Ve
1e-07
-3.75375 -6.50168571891167 0.618181818181819
0 0

0101101
*
Ed
 1e-07 1 1 0
1  24 0 0 7.5513654356981
2  36 15 0 0 7.5513654356981
4 C0 15 0 17 0
0

0101000
+52 0 -50 0 *
Ed
 1e-07 1 1 0
1  25 0 0 7.5513654356981
2  37 15 0 0 7.5513654356981
4 C0 15 0 18 0
0

0101000
+50 0 -61 0 *
Ed
 1e-07 1 1 0
1  26 0 3.14159265358979 6.28318530717959
2  38 15 0 3.14159265358979 6.28318530717959
4 C0 15 0 4 0
0

0101000
+63 0 -66 0 *
Wi

0101100
+64 0 +51 0 +49 0 +48 0 +60 0 +47 0 *
Fa
0  1e-07 15 0

0111000
+46 0 *
Ed
 1e-07 1 1 0
1  27 0 0 3.14159265358979
2  39 10 0 0 3.14159265358979
4 C0 10 0 7 0
0

0101000
+79 0 -71 0 *
Ve
1e-07
-3.75375 -6.50168571891167 6.18181818181818
0 0

0101101
*
Ed
 1e-07 1 1 0
1  28 0 0 7.5513654356981
2  40 10 0 0 7.5513654356981
4 C0 10 0 18 0
0

0101000
+73 0 -43 0 *
Ve
1e-07
3.75375 -6.50168571891167 6.18181818181818
0 0

0101101
*
Ed
 1e-07 1 1 0
1  29 0 0 7.55136543569809
2  41 10 0 0 7.55136543569809
4 C0 10 0 17 0
0

0101000
+43 0 -41 0 *
Ed
 1e-07 1 1 0
1  30 0 0 7.5513654356981
2  42 10 0 0 7.5513654356981
4 C0 10 0 16 0
0

0101000
+41 0 -80 0 *
Wi

0101100
+78 0 +44 0 +70 0 +42 0 +40 0 +39 0 *
Fa
0  1e-07 10 0

0111000
+38 0 *
Ed
 1e-07 1 1 0
1  31 0 0 3.14159265358979
2  43 8 0 0 3.14159265358979
2  44 6 0 0 3.14159265358979
4 C0 8 0 6 0
0

0101000
+93 0 -94 0 *
Ed
 1e-07 1 1 0
1  32 0 0 3.14159265358979
2  45 8 0 0 3.14159265358979
4 C0 8 0 7 0
0

0101000
+86 0 -87 0 *
Wi

0101100
+36 0 -84 0 -35 0 -83 0 *
Fa
0  1e-07 8 0

0111000
+34 0 *
Ed
 1e-07 1 1 0
1  33 0 0 3.14159265358979
2  46 6 0 0 3.14159265358979
2  47 3 0 0 3.14159265358979
4 C0 6 0 3 0
0

0101000
+103 0 -104 0 *
Wi

0101100
+32 0 -91 0 -36 0 -90 0 *
Fa
0  1e-07 6 0

0111000
+31 0 *
Ed
 1e-07 1 1 0
1  34 0 3.14159265358979 6.28318530717959
2  48 3 0 3.14159265358979 6.28318530717959
4 C0 3 0 4 0
0

0101000
+101 0 -99 0 *
Wi

0101100
-29 0 -100 0 -32 0 -97 0 *
Fa
0  1e-07 3 0

0111000
+28 0 *
Ed
 1e-07 1 1 0
1  35 0 0.618181818181818 6.18181818181818
4 C0 13 0 12 0
0

0101000
+59 0 -75 0 *
Ed
 1e-07 1 1 0
1  36 0 0.618181818181818 6.18181818181818
4 C0 13 0 18 0
0

0101000
+61 0 -73 0 *
Wi

0101100
-72 0 -26 0 -58 0 +25 0 *
Fa
0  1e-07 13 0

0111000
+24 0 *
Ed
 1e-07 1 1 0
1  37 0 0.618181818181818 6.18181818181818
4 C0 12 0 11 0
0

0101000
+57 0 -77 0 *
Wi

0101100
-74 0 -22 0 -56 0 +26 0 *
Fa
0  1e-07 12 0

0111000
+21 0 *
Ed
 1e-07 1 1 0
1  38 0 0.618181818181818 6.18181818181818
4 C0 11 0 16 0
0

0101000
+65 0 -80 0 *
Wi

0101100
-76 0 -19 0 -55 0 +22 0 *
Fa
0  1e-07 11 0

0111000
+18 0 *
Ed
 1e-07 1 1 0
1  39 0 0.618181818181819 6.18181818181818
4 C0 16 0 17 0
0

0101000
+52 0 -41 0 *
Wi

0101100
-39 0 -16 0 -51 0 +19 0 *
Fa
0  1e-07 16 0

0111000
+15 0 *
Wi

0101100
-35 0 -85 0 *
Wi

0101100
-44 0 -69 0 *
Fa
0  1e-07 7 0

0111000
+13 0 +12 0 *
Wi

0101100
-98 0 -29 0 *
Wi

0101100
-62 0 -47 0 *
Fa
0  1e-07 4 0

0111000
-10 0 -9 0 *
Ed
 1e-07 1 1 0
1  40 0 0.618181818181819 6.18181818181818
4 C0 17 0 18 0
0

0101000
+50 0 -43 0 *
Wi

0101100
-40 0 -7 0 -49 0 +16 0 *
Fa
0  1e-07 17 0

0111000
+6 0 *
Wi

0101100
-42 0 -25 0 -48 0 +7 0 *
Fa
0  1e-07 18 0

0111000
+4 0 *
Sh

0101100
-95 0 -88 0 -81 0 +67 0 +53 0 +45 0 +37 0 -33 0 -30 0 -27 0 
+23 0 +20 0 +17 0 +14 0 +11 0 -8 0 +5 0 +3 0 *
So

0100000
+2 0 *

+1 0 