DBRep_DrawableShape

CASCADE Topology V1, (c) Matra-Datavision
Locations 0
Curve2ds 72
1 6.2831853071795862 -0.3827215453172188 -1 0 
1 0 -1.45875 1 0 
1 3.1415926535897931 -1.1102230246251565e-16 0 1 
1 3.1415926535897931 -1.1102230246251565e-16 0 1 
1 0 0.3827215453172188 1 0 
1 0 -2.2204460492503131e-16 0 -1 
1 6.2831853071795862 -2.2204460492503131e-16 0 -1 
1 0 1.4587500000000002 1 0 
1 0 -0.38272154531721869 1 0 
1 3.1415926535897931 0 0 -1 
1 3.1415926535897931 0 0 -1 
1 6.2831853071795862 0 0 1 
1 0 0 0 1 
1 0 0.38272154531721869 1 0 
1 3.1415926535897931 0 0 -1 
1 3.1415926535897931 0 0 -1 
1 6.2831853071795862 0 0 1 
1 0 0 0 1 
1 3.1415926535897931 -2.7755575615628914e-16 0 -1 
1 3.1415926535897931 -2.7755575615628914e-16 0 -1 
7 0 0  3 25 23  3.1415926535897931 0.48535766591891594  3.1367211216457038 0.46258408732432155  3.1269445024300149 0.4178402351707165  3.1121795108077372 0.353097759148706  3.0973150392306064 0.2906911216964328  3.0823517417321042 0.2305858367663032  3.067290320139628 0.17274929080523507  3.0521315314206809 0.11715096573110308  3.0368761867352609 0.063762311956169576  3.0215251526496743 0.012556720846683096  3.0060793517059281 -0.03649052400767324  2.990539763094151 -0.083402284582582253  2.974907423223367 -0.128199604045239  2.9591834262412089 -0.17090173801104278  2.943368924484385 -0.21152618215902233  2.9274651288616536 -0.25008869608842954  2.9114733091605771 -0.28660332365631952  2.8953947942915947 -0.32108240936584725  2.8792309724048621 -0.35353661261239544  2.8629832911061226 -0.38397491323161054  2.8466532569133065 -0.41240463292615004  2.8302424371438786 -0.43883138089697177  2.8137524523151658 -0.46325926579470378  2.8027074864541803 -0.47821315334189513  2.7971723725422084 -0.48535766591890428 
 0 4 0.11831956440909136 1 0.23663912881818272 1 0.35495869322727408 1 0.47327825763636544 1 0.59159782204545674 1 0.70991738645454816 1 0.82823695086363958 1 0.94655651527273088 1 1.0648760796818222 1 1.1831956440909135 1 1.301515208500005 1 1.4198347729090963 1 1.5381543373181876 1 1.6564739017272792 1 1.7747934661363705 1 1.8931130305454618 1 2.0114325949545533 1 2.1297521593636444 1 2.2480717237727359 1 2.366391288181827 1 2.4847108525909185 1 2.60303041700001 4
1 0 -0.48535766591891444 1 2.4175907003392376e-15 
1 0 -1.6653345369377348e-16 0 1 
1 6.2831853071795862 -1.6653345369377348e-16 0 1 
1 0 -0.48535766591890683 1 0 
7 0 0  3 25 23  0.34442028104758471 -0.48535766591890439  0.33888516713561145 -0.47821315334189746  0.32784020127462732 -0.46325926579470628  0.31135021644591365 -0.4388313808969691  0.29493939667648661 -0.4124046329261481  0.2786093624836683 -0.38397491323161087  0.26236168118492742 -0.35353661261239522  0.24619785929820015 -0.32108240936584176  0.23011934442921511 -0.28660332365632052  0.21412752472813956 -0.25008869608842399  0.19822372910540764 -0.21152618215902169  0.18240922734858511 -0.17090173801103831  0.16668523036642213 -0.12819960404523492  0.15105289049564075 -0.083402284582580935  0.13551330188386501 -0.036490524007664858  0.12006750094011664 0.012556720846681092  0.10471646685452995 0.063762311956176959  0.089461122169111285 0.11715096573110324  0.074302333450164681 0.17274929080523985  0.059240911857687983 0.2305858367663064  0.044277614359183204 0.29069112169643313  0.0294131427820572 0.353097759148709  0.014648151159776468 0.4178402351707165  0.0048715319440884031 0.46258408732432116  0 0.48535766591891627 
 0 4 0.1183195644090918 1 0.23663912881818361 1 0.35495869322727541 1 0.47327825763636722 1 0.59159782204545897 1 0.70991738645455083 1 0.82823695086364268 1 0.94655651527273443 1 1.0648760796818262 1 1.1831956440909179 1 1.3015152085000099 1 1.4198347729091017 1 1.5381543373181934 1 1.6564739017272854 1 1.7747934661363771 1 1.8931130305454689 1 2.0114325949545608 1 2.1297521593636524 1 2.2480717237727443 1 2.3663912881818359 1 2.4847108525909278 1 2.6030304170000198 4
1 3.1415926535897931 0 0 1 
1 3.1415926535897931 0 0 1 
1 0 -0.48535766591890606 1 0 
7 0 0  3 25 23  3.4860129346373778 -0.48535766591890361  3.4804778207254063 -0.47821315334189496  3.46943285486442 -0.46325926579470439  3.4529428700357081 -0.43883138089697332  3.4365320502662793 -0.41240463292614887  3.4202020160734645 -0.38397491323161265  3.4039543347747228 -0.35353661261239644  3.3877905128879915 -0.32108240936584342  3.3717119980190087 -0.28660332365632207  3.3557201783179322 -0.25008869608842554  3.3398163826952012 -0.21152618215901972  3.3240018809383773 -0.17090173801104433  3.3082778839562179 -0.12819960404523825  3.2926455440854356 -0.08340228458258285  3.2771059554736577 -0.036490524007669292  3.2616601545299106 0.012556720846685203  3.2463091204443248 0.063762311956172754  3.2310537757589048 0.11715096573110521  3.2158949870399569 0.17274929080523663  3.2008335654474811 0.23058583676630592  3.185870267948979 0.2906911216964328  3.1710057963718485 0.35309775914870478  3.1562408047495709 0.41784023517071567  3.1464641855338829 0.46258408732432094  3.1415926535897931 0.48535766591891527 
 0 4 0.11831956440909136 1 0.23663912881818272 1 0.35495869322727408 1 0.47327825763636544 1 0.59159782204545674 1 0.70991738645454816 1 0.82823695086363958 1 0.94655651527273088 1 1.0648760796818222 1 1.1831956440909135 1 1.301515208500005 1 1.4198347729090963 1 1.5381543373181876 1 1.6564739017272792 1 1.7747934661363705 1 1.8931130305454618 1 2.0114325949545533 1 2.1297521593636444 1 2.2480717237727359 1 2.366391288181827 1 2.4847108525909185 1 2.60303041700001 4
1 6.2831853071795862 2.7755575615628914e-16 0 -1 
1 0 2.7755575615628914e-16 0 -1 
7 0 0  3 25 23  6.2831853071795862 0.48535766591891527  6.2783137752354961 0.46258408732431994  6.2685371560198098 0.41784023517071406  6.2537721643975273 0.35309775914870306  6.2389076928203995 0.29069112169642392  6.2239443953218956 0.23058583676629715  6.2088829737294198 0.17274929080522988  6.1937241850104749 0.11715096573109672  6.1784688403250536 0.063762311956166717  6.1631178062394678 0.0125567208466764  6.1476720052957203 -0.036490524007675426  6.1321324166839437 -0.083402284582587125  6.1165000768131597 -0.12819960404524261  6.1007760798310029 -0.17090173801104724  6.0849615780741777 -0.21152618215902558  6.0690577824514467 -0.25008869608842921  6.0530659627503729 -0.28660332365632518  6.0369874478813896 -0.32108240936584648  6.020823625994657 -0.35353661261239983  6.004575944695917 -0.38397491323161548  5.9882459105031005 -0.41240463292615065  5.9718350907336717 -0.43883138089697477  5.9553451059049625 -0.46325926579470839  5.9443001400439739 -0.47821315334189901  5.9387650261320033 -0.48535766591890694 
 0 4 0.1183195644090909 1 0.2366391288181818 1 0.35495869322727269 1 0.47327825763636361 1 0.59159782204545452 1 0.70991738645454538 1 0.82823695086363636 1 0.94655651527272722 1 1.0648760796818182 1 1.183195644090909 1 1.3015152084999999 1 1.4198347729090908 1 1.5381543373181816 1 1.6564739017272727 1 1.7747934661363636 1 1.8931130305454544 1 2.0114325949545453 1 2.1297521593636364 1 2.248071723772727 1 2.3663912881818181 1 2.4847108525909087 1 2.6030304169999998 4
1 0 -0.48535766591890606 1 0 
7 0 0  3 25 23  5.2359877559829897 0.48535766591891683  5.2311162240388995 0.46258408732432155  5.2213396048232141 0.41784023517071639  5.2065746132009316 0.35309775914870728  5.1917101416238038 0.29069112169643518  5.1767468441253008 0.23058583676630615  5.161685422532825 0.17274929080523582  5.1465266338138793 0.1171509657311044  5.1312712891284598 0.063762311956175516  5.1159202550428731 0.01255672084668198  5.1004744540991256 -0.036490524007668938  5.0849348654873481 -0.083402284582582059  5.0693025256165658 -0.12819960404523481  5.0535785286344073 -0.17090173801104411  5.0377640268775838 -0.2115261821590213  5.0218602312548519 -0.25008869608842549  5.0058684115537746 -0.28660332365632052  4.989789896684794 -0.32108240936584564  4.9736260747980605 -0.35353661261239999  4.9573783934993214 -0.3839749132316127  4.9410483593065049 -0.41240463292615198  4.9246375395370752 -0.43883138089697232  4.9081475547083642 -0.46325926579471005  4.8971025888473783 -0.47821315334190129  4.8915674749354068 -0.4853576659189085 
 0 4 0.1183195644090909 1 0.2366391288181818 1 0.35495869322727269 1 0.47327825763636361 1 0.59159782204545452 1 0.70991738645454538 1 0.82823695086363636 1 0.94655651527272722 1 1.0648760796818182 1 1.183195644090909 1 1.3015152084999999 1 1.4198347729090908 1 1.5381543373181816 1 1.6564739017272727 1 1.7747934661363636 1 1.8931130305454544 1 2.0114325949545453 1 2.1297521593636364 1 2.248071723772727 1 2.3663912881818181 1 2.4847108525909087 1 2.6030304169999998 4
1 0 -0.48535766591889973 1 -1.2893817068475968e-15 
7 0 0  3 25 23  5.5804080370305709 -0.48535766591890028  5.5748729231185994 -0.47821315334189379  5.5638279572576135 -0.46325926579470339  5.5473379724289007 -0.43883138089696594  5.5309271526594745 -0.41240463292614943  5.514597118466658 -0.38397491323160854  5.4983494371679189 -0.35353661261239344  5.4821856152811836 -0.32108240936584326  5.4661071004122048 -0.28660332365631769  5.4501152807111257 -0.25008869608842377  5.4342114850883965 -0.21152618215901897  5.4183969833315704 -0.17090173801103928  5.4026729863494127 -0.12819960404523376  5.3870406464786287 -0.083402284582580005  5.3715010578668529 -0.036490524007664234  5.3560552569231046 0.012556720846687811  5.3407042228375197 0.063762311956178028  5.3254488781520983 0.11715096573111007  5.3102900894331526 0.17274929080524246  5.2952286678406768 0.23058583676631095  5.2802653703421729 0.2906911216964369  5.2654008987650425 0.35309775914871483  5.2506359071427671 0.41784023517071961  5.2408592879270781 0.46258408732432393  5.2359877559829879 0.48535766591892004 
 0 4 0.1183195644090909 1 0.2366391288181818 1 0.35495869322727269 1 0.47327825763636361 1 0.59159782204545452 1 0.70991738645454538 1 0.82823695086363636 1 0.94655651527272722 1 1.0648760796818182 1 1.183195644090909 1 1.3015152084999999 1 1.4198347729090908 1 1.5381543373181816 1 1.6564739017272727 1 1.7747934661363636 1 1.8931130305454544 1 2.0114325949545453 1 2.1297521593636364 1 2.248071723772727 1 2.3663912881818181 1 2.4847108525909087 1 2.6030304169999998 4
7 0 0  3 25 23  4.1887902047863914 0.48535766591891927  4.1839186728423012 0.4625840873243231  4.1741420536266132 0.41784023517071767  4.1593770620043342 0.35309775914871122  4.1445125904272038 0.29069112169643924  4.1295492929287034 0.23058583676630781  4.1144878713362267 0.17274929080524093  4.0993290826172801 0.11715096573110799  4.0840737379318579 0.063762311956175974  4.0687227038462739 0.01255672084668645  4.0532769029025273 -0.036490524007663491  4.0377373142907507 -0.083402284582580852  4.0221049744199657 -0.1281996040452334  4.0063809774378072 -0.1709017380110418  3.9905664756809838 -0.21152618215902094  3.9746626800582519 -0.25008869608842349  3.9586708603571754 -0.28660332365632002  3.9425923454881944 -0.3210824093658442  3.9264285236014609 -0.35353661261239749  3.9101808423027213 -0.38397491323161292  3.8938508081099039 -0.41240463292615326  3.8774399883404773 -0.43883138089697221  3.8609500035117637 -0.46325926579470955  3.8499050376507786 -0.47821315334190034  3.8443699237388067 -0.48535766591890694 
 0 4 0.11831956440909136 1 0.23663912881818272 1 0.35495869322727408 1 0.47327825763636544 1 0.59159782204545674 1 0.70991738645454816 1 0.82823695086363958 1 0.94655651527273088 1 1.0648760796818222 1 1.1831956440909135 1 1.301515208500005 1 1.4198347729090963 1 1.5381543373181876 1 1.6564739017272792 1 1.7747934661363705 1 1.8931130305454618 1 2.0114325949545533 1 2.1297521593636444 1 2.2480717237727359 1 2.366391288181827 1 2.4847108525909185 1 2.60303041700001 4
1 -4.4408920985006262e-16 -0.48535766591890528 1 0 
7 0 0  3 25 23  4.5332104858339726 -0.48535766591890772  4.5276753719220011 -0.47821315334190057  4.516630406061017 -0.46325926579470911  4.5001404212323015 -0.43883138089697143  4.4837296014628745 -0.41240463292615254  4.4673995672700579 -0.38397491323161292  4.4511518859713171 -0.3535366126123986  4.4349880640845871 -0.32108240936584587  4.4189095492156039 -0.28660332365632102  4.4029177295145265 -0.25008869608842754  4.3870139338917964 -0.21152618215902053  4.3711994321349712 -0.170901738011044  4.3554754351528118 -0.12819960404523606  4.3398430952820313 -0.08340228458258192  4.3243035066702538 -0.036490524007668182  4.3088577057265045 0.012556720846683793  4.2935066716409205 0.063762311956176293  4.2782513269555009 0.11715096573110423  4.2630925382365543 0.17274929080523588  4.2480311166440785 0.23058583676630634  4.2330678191455746 0.29069112169643396  4.2182033475684451 0.35309775914870872  4.2034383559461688 0.41784023517071628  4.1936617367304789 0.46258408732432116  4.1887902047863896 0.48535766591891683 
 0 4 0.1183195644090909 1 0.2366391288181818 1 0.35495869322727269 1 0.47327825763636361 1 0.59159782204545452 1 0.70991738645454538 1 0.82823695086363636 1 0.94655651527272722 1 1.0648760796818182 1 1.183195644090909 1 1.3015152084999999 1 1.4198347729090908 1 1.5381543373181816 1 1.6564739017272727 1 1.7747934661363636 1 1.8931130305454544 1 2.0114325949545453 1 2.1297521593636364 1 2.248071723772727 1 2.3663912881818181 1 2.4847108525909087 1 2.6030304169999998 4
1 0 -0.48535766591890606 1 0 
7 0 0  3 25 23  0.34442028104758349 -0.48535766591890694  0.3388851671356119 -0.47821315334190001  0.32784020127462604 -0.463259265794708  0.31135021644591288 -0.43883138089696877  0.29493939667648494 -0.41240463292615354  0.27860936248366891 -0.38397491323161176  0.26236168118492881 -0.35353661261239722  0.24619785929819643 -0.32108240936584531  0.23011934442921436 -0.28660332365632263  0.21412752472813787 -0.25008869608842338  0.19822372910540745 -0.21152618215902172  0.18240922734858298 -0.1709017380110443  0.16668523036642474 -0.12819960404523836  0.15105289049564224 -0.083402284582582434  0.13551330188386418 -0.036490524007673802  0.12006750094011789 0.01255672084668011  0.10471646685453169 0.063762311956169923  0.089461122169112173 0.11715096573109789  0.074302333450164917 0.17274929080523413  0.059240911857688677 0.23058583676629948  0.044277614359186819 0.29069112169642941  0.029413142782056322 0.35309775914870312  0.014648151159777091 0.41784023517071289  0.0048715319440895324 0.46258408732431933  0 0.48535766591891527 
 0 4 0.11831956440909136 1 0.23663912881818272 1 0.35495869322727408 1 0.47327825763636544 1 0.59159782204545674 1 0.70991738645454816 1 0.82823695086363958 1 0.94655651527273088 1 1.0648760796818222 1 1.1831956440909135 1 1.301515208500005 1 1.4198347729090963 1 1.5381543373181876 1 1.6564739017272792 1 1.7747934661363705 1 1.8931130305454618 1 2.0114325949545533 1 2.1297521593636444 1 2.2480717237727359 1 2.366391288181827 1 2.4847108525909185 1 2.60303041700001 4
7 0 0  3 25 23  3.1415926535897931 0.48535766591891527  3.1367211216457043 0.46258408732432049  3.1269445024300162 0.41784023517071606  3.1121795108077377 0.35309775914870795  3.0973150392306077 0.29069112169643618  3.082351741732106 0.23058583676630534  3.0672903201396293 0.17274929080524196  3.0521315314206827 0.11715096573110825  3.0368761867352632 0.063762311956176834  3.0215251526496765 0.012556720846685753  3.0060793517059308 -0.036490524007662513  2.9905397630941524 -0.083402284582579062  2.9749074232233683 -0.12819960404523356  2.9591834262412111 -0.17090173801103997  2.943368924484385 -0.21152618215902033  2.9274651288616553 -0.25008869608842582  2.911473309160578 -0.28660332365631724  2.8953947942915952 -0.32108240936584281  2.879230972404863 -0.35353661261239472  2.862983291106123 -0.38397491323161059  2.8466532569133056 -0.4124046329261491  2.8302424371438781 -0.43883138089697332  2.8137524523151658 -0.46325926579470333  2.8027074864541803 -0.47821315334189424  2.7971723725422084 -0.48535766591890361 
 0 4 0.11831956440909136 1 0.23663912881818272 1 0.35495869322727408 1 0.47327825763636544 1 0.59159782204545674 1 0.70991738645454816 1 0.82823695086363958 1 0.94655651527273088 1 1.0648760796818222 1 1.1831956440909135 1 1.301515208500005 1 1.4198347729090963 1 1.5381543373181876 1 1.6564739017272792 1 1.7747934661363705 1 1.8931130305454618 1 2.0114325949545533 1 2.1297521593636444 1 2.2480717237727359 1 2.366391288181827 1 2.4847108525909185 1 2.60303041700001 4
1 0 -0.48535766591890606 1 0 
7 0 0  3 25 23  1.3916178322441799 -0.4853576659189075  1.3860827183322082 -0.47821315334190073  1.375037752471223 -0.46325926579470977  1.3585477676425095 -0.43883138089697177  1.3421369478730818 -0.41240463292615359  1.3258069136802664 -0.38397491323161165  1.3095592323815255 -0.35353661261240066  1.2933954104947938 -0.32108240936584714  1.2773168956258112 -0.28660332365632146  1.261325075924735 -0.25008869608842743  1.2454212803020039 -0.21152618215902355  1.2296067785451796 -0.17090173801104486  1.2138827815630207 -0.12819960404523739  1.1982504416922384 -0.083402284582583586  1.1827108530804604 -0.036490524007668099  1.1672650521367138 0.012556720846682164  1.1519140180511278 0.063762311956174836  1.136658673365708 0.11715096573110387  1.1214998846467612 0.17274929080523585  1.1064384630542845 0.23058583676630395  1.0914751655557833 0.29069112169643568  1.0766106939786526 0.35309775914870611  1.0618457023563739 0.41784023517071711  1.052069083140686 0.46258408732432232  1.0471975511965963 0.4853576659189171 
 0 4 0.1183195644090909 1 0.2366391288181818 1 0.35495869322727269 1 0.47327825763636361 1 0.59159782204545452 1 0.70991738645454538 1 0.82823695086363636 1 0.94655651527272722 1 1.0648760796818182 1 1.183195644090909 1 1.3015152084999999 1 1.4198347729090908 1 1.5381543373181816 1 1.6564739017272727 1 1.7747934661363636 1 1.8931130305454544 1 2.0114325949545453 1 2.1297521593636364 1 2.248071723772727 1 2.3663912881818181 1 2.4847108525909087 1 2.6030304169999998 4
7 0 0  3 25 23  1.0471975511965981 0.48535766591892038  1.0423260192525081 0.46258408732432421  1.0325494000368203 0.41784023517071778  1.0177844084145418 0.35309775914870817  1.0029199368374107 0.29069112169643324  0.98795663933890898 0.23058583676630523  0.97289521774643251 0.17274929080523266  0.95773642902748524 0.11715096573110205  0.94248108434206546 0.063762311956170284  0.92713005025647943 0.012556720846677503  0.91168424931273284 -0.036490524007673462  0.89614466070095489 -0.083402284582583489  0.8805123208301715 -0.12819960404524269  0.86478832384801363 -0.17090173801104555  0.84897382209118921 -0.21152618215902541  0.83307002646845796 -0.25008869608843254  0.81707820676738141 -0.28660332365632374  0.8009996918983997 -0.32108240936584881  0.78483587001166744 -0.35353661261239966  0.76858818871292733 -0.38397491323161287  0.75225815452011102 -0.41240463292615603  0.73584733475068365 -0.43883138089697427  0.71935734992197087 -0.46325926579470655  0.7083123840609854 -0.4782131533418979  0.70277727014901392 -0.48535766591890672 
 0 4 0.11831956440909136 1 0.23663912881818272 1 0.35495869322727408 1 0.47327825763636544 1 0.59159782204545674 1 0.70991738645454816 1 0.82823695086363958 1 0.94655651527273088 1 1.0648760796818222 1 1.1831956440909135 1 1.301515208500005 1 1.4198347729090963 1 1.5381543373181876 1 1.6564739017272792 1 1.7747934661363705 1 1.8931130305454618 1 2.0114325949545533 1 2.1297521593636444 1 2.2480717237727359 1 2.366391288181827 1 2.4847108525909185 1 2.60303041700001 4
1 0 -0.48535766591890417 1 -1.2893817068475999e-15 
7 0 0  3 25 23  1.0471975511965981 0.48535766591892099  1.0423260192525083 0.46258408732432682  1.0325494000368207 0.41784023517072177  1.0177844084145422 0.35309775914871044  1.0029199368374113 0.29069112169643535  0.98795663933890987 0.23058583676630914  0.97289521774643395 0.17274929080523946  0.95773642902748701 0.11715096573110559  0.94248108434206701 0.063762311956176418  0.92713005025648121 0.012556720846684613  0.91168424931273495 -0.036490524007664338  0.896144660700957 -0.083402284582582531  0.88051232083017406 -0.12819960404523462  0.86478832384801618 -0.17090173801104272  0.84897382209119143 -0.21152618215901911  0.83307002646846084 -0.25008869608842493  0.81707820676738407 -0.28660332365631858  0.80099969189840181 -0.32108240936584331  0.78483587001166943 -0.35353661261239488  0.768588188712929 -0.38397491323161498  0.75225815452011291 -0.41240463292615076  0.73584733475068476 -0.4388313808969731  0.71935734992197153 -0.46325926579470728  0.70831238406098573 -0.47821315334189918  0.70277727014901392 -0.48535766591890778 
 0 4 0.1183195644090918 1 0.23663912881818361 1 0.35495869322727541 1 0.47327825763636722 1 0.59159782204545897 1 0.70991738645455083 1 0.82823695086364268 1 0.94655651527273443 1 1.0648760796818262 1 1.1831956440909179 1 1.3015152085000099 1 1.4198347729091017 1 1.5381543373181934 1 1.6564739017272854 1 1.7747934661363771 1 1.8931130305454689 1 2.0114325949545608 1 2.1297521593636524 1 2.2480717237727443 1 2.3663912881818359 1 2.4847108525909278 1 2.6030304170000198 4
1 0 -0.48535766591890517 1 -1.1282089934916473e-15 
7 0 0  3 25 23  1.3916178322441815 -0.48535766591891011  1.3860827183322098 -0.4782131533419024  1.3750377524712236 -0.46325926579471083  1.3585477676425108 -0.43883138089697443  1.3421369478730827 -0.41240463292615631  1.3258069136802666 -0.38397491323161181  1.3095592323815262 -0.35353661261240205  1.293395410494794 -0.32108240936584781  1.2773168956258116 -0.28660332365632346  1.261325075924735 -0.25008869608843071  1.2454212803020046 -0.21152618215902141  1.2296067785451799 -0.17090173801104788  1.2138827815630211 -0.12819960404524197  1.1982504416922393 -0.0834022845825836  1.1827108530804606 -0.036490524007672984  1.1672650521367141 0.012556720846680296  1.1519140180511285 0.063762311956172005  1.1366586733657082 0.11715096573110237  1.1214998846467616 0.17274929080523646  1.1064384630542852 0.23058583676629896  1.0914751655557833 0.29069112169643441  1.0766106939786528 0.35309775914870389  1.0618457023563741 0.417840235170719  1.0520690831406863 0.46258408732432443  1.0471975511965963 0.48535766591891771 
 0 4 0.11831956440909136 1 0.23663912881818272 1 0.35495869322727408 1 0.47327825763636544 1 0.59159782204545674 1 0.70991738645454816 1 0.82823695086363958 1 0.94655651527273088 1 1.0648760796818222 1 1.1831956440909135 1 1.301515208500005 1 1.4198347729090963 1 1.5381543373181876 1 1.6564739017272792 1 1.7747934661363705 1 1.8931130305454618 1 2.0114325949545533 1 2.1297521593636444 1 2.2480717237727359 1 2.366391288181827 1 2.4847108525909185 1 2.60303041700001 4
7 0 0  3 25 23  2.4388153834407795 -0.48535766591890761  2.433280269528808 -0.47821315334190007  2.4222353036678226 -0.46325926579470933  2.4057453188391094 -0.43883138089697443  2.389334499069681 -0.4124046329261537  2.3730044648768649 -0.38397491323161309  2.3567567835781249 -0.35353661261240099  2.3405929616913936 -0.32108240936584709  2.3245144468224099 -0.28660332365632418  2.3085226271213339 -0.25008869608843004  2.2926188314986038 -0.21152618215902502  2.2768043297417786 -0.17090173801104533  2.2610803327596205 -0.12819960404524022  2.2454479928888378 -0.083402284582584224  2.2299084042770598 -0.03649052400767315  2.2144626033333128 0.01255672084668078  2.1991115692477274 0.063762311956174419  2.1838562245623065 0.11715096573110158  2.1686974358433599 0.17274929080523713  2.1536360142508841 0.23058583676630717  2.138672716752382 0.29069112169643568  2.1238082451752516 0.35309775914871067  2.1090432535529726 0.41784023517072066  2.099266634337285 0.46258408732432599  2.0943951023931953 0.48535766591892099 
 0 4 0.11831956440909136 1 0.23663912881818272 1 0.35495869322727408 1 0.47327825763636544 1 0.59159782204545674 1 0.70991738645454816 1 0.82823695086363958 1 0.94655651527273088 1 1.0648760796818222 1 1.1831956440909135 1 1.301515208500005 1 1.4198347729090963 1 1.5381543373181876 1 1.6564739017272792 1 1.7747934661363705 1 1.8931130305454618 1 2.0114325949545533 1 2.1297521593636444 1 2.2480717237727359 1 2.366391288181827 1 2.4847108525909185 1 2.60303041700001 4
7 0 0  3 25 23  2.094395102393197 0.48535766591891771  2.0895235704491073 0.4625840873243231  2.0797469512334188 0.41784023517071744  2.0649819596111403 0.353097759148706  2.0501174880340098 0.29069112169643246  2.0351541905355082 0.23058583676630545  2.0200927689430315 0.17274929080523205  2.0049339802240849 0.11715096573110381  1.9896786355386651 0.063762311956170561  1.9743276014530788 0.012556720846679607  1.9588818005093327 -0.036490524007668605  1.9433422118975545 -0.083402284582585653  1.9277098720267718 -0.12819960404524317  1.9119858750446137 -0.17090173801104555  1.8961713732877885 -0.21152618215902469  1.8802675776650586 -0.25008869608842982  1.8642757579639815 -0.28660332365632357  1.8481972430949996 -0.32108240936584853  1.8320334212082667 -0.35353661261239899  1.815785739909527 -0.38397491323161836  1.7994557057167104 -0.41240463292615276  1.7830448859472825 -0.43883138089697671  1.7665549011185693 -0.46325926579471055  1.7555099352575834 -0.4782131533419019  1.7499748213456119 -0.48535766591891011 
 0 4 0.11831956440909136 1 0.23663912881818272 1 0.35495869322727408 1 0.47327825763636544 1 0.59159782204545674 1 0.70991738645454816 1 0.82823695086363958 1 0.94655651527273088 1 1.0648760796818222 1 1.1831956440909135 1 1.301515208500005 1 1.4198347729090963 1 1.5381543373181876 1 1.6564739017272792 1 1.7747934661363705 1 1.8931130305454618 1 2.0114325949545533 1 2.1297521593636444 1 2.2480717237727359 1 2.366391288181827 1 2.4847108525909185 1 2.60303041700001 4
1 0 -0.48535766591890872 1 1.1282089934916479e-15 
7 0 0  3 25 23  6.2831853071795862 0.48535766591891594  6.2783137752354969 0.46258408732432232  6.268537156019808 0.41784023517071622  6.253772164397529 0.35309775914870029  6.2389076928203986 0.29069112169642969  6.2239443953218974 0.23058583676630012  6.2088829737294216 0.17274929080522866  6.1937241850104732 0.11715096573109482  6.1784688403250545 0.063762311956167064  6.163117806239466 0.012556720846674151  6.1476720052957221 -0.036490524007676856  6.1321324166839437 -0.083402284582590788  6.1165000768131597 -0.12819960404524802  6.100776079831002 -0.17090173801104974  6.0849615780741795 -0.21152618215903196  6.0690577824514458 -0.25008869608843531  6.0530659627503702 -0.28660332365632812  6.0369874478813887 -0.32108240936585358  6.0208236259946544 -0.35353661261240305  6.0045759446959162 -0.3839749132316248  5.9882459105030978 -0.4124046329261612  5.9718350907336708 -0.43883138089697821  5.9553451059049589 -0.46325926579471344  5.944300140043973 -0.47821315334190539  5.9387650261320006 -0.48535766591891361 
 0 4 0.1183195644090918 1 0.23663912881818361 1 0.35495869322727541 1 0.47327825763636722 1 0.59159782204545897 1 0.70991738645455083 1 0.82823695086364268 1 0.94655651527273443 1 1.0648760796818262 1 1.1831956440909179 1 1.3015152085000099 1 1.4198347729091017 1 1.5381543373181934 1 1.6564739017272854 1 1.7747934661363771 1 1.8931130305454689 1 2.0114325949545608 1 2.1297521593636524 1 2.2480717237727443 1 2.3663912881818359 1 2.4847108525909278 1 2.6030304170000198 4
1 0 -0.48535766591890883 1 3.223454267118992e-16 
1 0 -0.48535766591891394 1 2.2564179869833001e-15 
7 0 0  3 25 23  3.48601293463738 -0.48535766591891105  3.4804778207254077 -0.47821315334190351  3.4694328548644213 -0.46325926579471211  3.4529428700357094 -0.43883138089697488  3.4365320502662797 -0.41240463292615986  3.4202020160734654 -0.38397491323161848  3.4039543347747241 -0.35353661261240416  3.3877905128879919 -0.32108240936585003  3.3717119980190087 -0.28660332365633051  3.3557201783179336 -0.25008869608843348  3.3398163826952021 -0.21152618215902691  3.3240018809383787 -0.17090173801105199  3.3082778839562188 -0.1281996040452445  3.2926455440854374 -0.083402284582588831  3.277105955473659 -0.036490524007679048  3.261660154529912 0.012556720846675074  3.2463091204443257 0.063762311956164261  3.2310537757589066 0.11715096573109392  3.2158949870399587 0.17274929080522883  3.200833565447482 0.23058583676629868  3.1858702679489803 0.29069112169642408  3.1710057963718485 0.35309775914870239  3.1562408047495709 0.41784023517071256  3.1464641855338829 0.46258408732431949  3.1415926535897927 0.48535766591891594 
 0 4 0.1183195644090918 1 0.23663912881818361 1 0.35495869322727541 1 0.47327825763636722 1 0.59159782204545897 1 0.70991738645455083 1 0.82823695086364268 1 0.94655651527273443 1 1.0648760796818262 1 1.1831956440909179 1 1.3015152085000099 1 1.4198347729091017 1 1.5381543373181934 1 1.6564739017272854 1 1.7747934661363771 1 1.8931130305454689 1 2.0114325949545608 1 2.1297521593636524 1 2.2480717237727443 1 2.3663912881818359 1 2.4847108525909278 1 2.6030304170000198 4
7 0 0  3 25 23  5.2359877559829888 0.4853576659189125  5.2311162240388986 0.46258408732431694  5.2213396048232124 0.41784023517071189  5.2065746132009325 0.35309775914870389  5.1917101416238021 0.29069112169642991  5.1767468441253 0.23058583676630165  5.1616854225328241 0.17274929080522891  5.1465266338138784 0.11715096573109955  5.1312712891284571 0.063762311956169784  5.1159202550428722 0.012556720846675813  5.1004744540991229 -0.036490524007674122  5.0849348654873472 -0.083402284582586236  5.069302525616564 -0.12819960404524181  5.0535785286344064 -0.17090173801104738  5.0377640268775812 -0.21152618215902558  5.0218602312548501 -0.25008869608843148  5.0058684115537746 -0.28660332365632307  4.9897898966847931 -0.32108240936585086  4.9736260747980596 -0.35353661261240232  4.9573783934993187 -0.38397491323161409  4.9410483593065049 -0.41240463292615359  4.9246375395370752 -0.43883138089697421  4.9081475547083642 -0.46325926579471038  4.8971025888473783 -0.47821315334190156  4.8915674749354068 -0.48535766591890928 
 0 4 0.1183195644090909 1 0.2366391288181818 1 0.35495869322727269 1 0.47327825763636361 1 0.59159782204545452 1 0.70991738645454538 1 0.82823695086363636 1 0.94655651527272722 1 1.0648760796818182 1 1.183195644090909 1 1.3015152084999999 1 1.4198347729090908 1 1.5381543373181816 1 1.6564739017272727 1 1.7747934661363636 1 1.8931130305454544 1 2.0114325949545453 1 2.1297521593636364 1 2.248071723772727 1 2.3663912881818181 1 2.4847108525909087 1 2.6030304169999998 4
1 0 -0.48535766591890822 1 8.0586356677975009e-17 
7 0 0  3 25 23  5.5804080370305744 -0.48535766591890711  5.5748729231186038 -0.47821315334190129  5.5638279572576179 -0.46325926579471111  5.5473379724289043 -0.43883138089697354  5.5309271526594772 -0.41240463292615837  5.5145971184666598 -0.38397491323161753  5.4983494371679189 -0.35353661261240105  5.4821856152811881 -0.32108240936585036  5.4661071004122048 -0.28660332365632868  5.4501152807111293 -0.25008869608843159  5.4342114850883974 -0.21152618215902663  5.4183969833315739 -0.17090173801104969  5.4026729863494136 -0.12819960404524272  5.3870406464786322 -0.083402284582586236  5.3715010578668538 -0.036490524007673726  5.3560552569231055 0.012556720846679338  5.3407042228375214 0.06376231195617052  5.3254488781520983 0.11715096573110367  5.3102900894331535 0.1727492908052328  5.2952286678406777 0.23058583676630257  5.2802653703421729 0.29069112169642891  5.2654008987650442 0.35309775914870323  5.2506359071427653 0.41784023517071212  5.240859287927079 0.46258408732431733  5.2359877559829888 0.4853576659189125 
 0 4 0.11831956440909136 1 0.23663912881818272 1 0.35495869322727408 1 0.47327825763636544 1 0.59159782204545674 1 0.70991738645454816 1 0.82823695086363958 1 0.94655651527273088 1 1.0648760796818222 1 1.1831956440909135 1 1.301515208500005 1 1.4198347729090963 1 1.5381543373181876 1 1.6564739017272792 1 1.7747934661363705 1 1.8931130305454618 1 2.0114325949545533 1 2.1297521593636444 1 2.2480717237727359 1 2.366391288181827 1 2.4847108525909185 1 2.60303041700001 4
7 0 0  3 25 23  4.5332104858339726 -0.4853576659189085  4.527675371922002 -0.47821315334190112  4.5166304060610178 -0.46325926579471099  4.5001404212323024 -0.4388313808969776  4.483729601462878 -0.41240463292615515  4.4673995672700588 -0.38397491323162036  4.4511518859713215 -0.35353661261240188  4.4349880640845871 -0.32108240936585242  4.4189095492156074 -0.28660332365632779  4.4029177295145283 -0.25008869608843148  4.3870139338917991 -0.21152618215902619  4.371199432134973 -0.17090173801104952  4.3554754351528144 -0.128199604045242  4.3398430952820313 -0.083402284582586916  4.3243035066702538 -0.036490524007669375  4.3088577057265081 0.01255672084667999  4.2935066716409205 0.063762311956171117  4.2782513269555018 0.1171509657311031  4.2630925382365543 0.17274929080523677  4.2480311166440776 0.23058583676629993  4.2330678191455764 0.29069112169643191  4.2182033475684459 0.35309775914870617  4.2034383559461688 0.41784023517071295  4.1936617367304798 0.46258408732431755  4.1887902047863905 0.48535766591891327 
 0 4 0.1183195644090909 1 0.2366391288181818 1 0.35495869322727269 1 0.47327825763636361 1 0.59159782204545452 1 0.70991738645454538 1 0.82823695086363636 1 0.94655651527272722 1 1.0648760796818182 1 1.183195644090909 1 1.3015152084999999 1 1.4198347729090908 1 1.5381543373181816 1 1.6564739017272727 1 1.7747934661363636 1 1.8931130305454544 1 2.0114325949545453 1 2.1297521593636364 1 2.248071723772727 1 2.3663912881818181 1 2.4847108525909087 1 2.6030304169999998 4
7 0 0  3 25 23  4.1887902047863905 0.48535766591891327  4.1839186728422995 0.46258408732431844  4.1741420536266132 0.417840235170713  4.1593770620043342 0.35309775914870234  4.1445125904272038 0.29069112169642958  4.1295492929287017 0.23058583676629887  4.114487871336225 0.17274929080522902  4.0993290826172784 0.11715096573109995  4.084073737931857 0.063762311956166384  4.0687227038462721 0.012556720846676944  4.0532769029025237 -0.036490524007677216  4.0377373142907471 -0.083402284582587097  4.022104974419964 -0.12819960404524267  4.0063809774378063 -0.17090173801105019  3.9905664756809811 -0.21152618215902577  3.9746626800582501 -0.25008869608843515  3.9586708603571741 -0.28660332365632546  3.9425923454881913 -0.32108240936584953  3.9264285236014587 -0.35353661261240232  3.91018084230272 -0.38397491323161248  3.8938508081099017 -0.41240463292615692  3.8774399883404751 -0.43883138089697366  3.8609500035117619 -0.46325926579471083  3.8499050376507764 -0.47821315334190129  3.8443699237388045 -0.48535766591890778 
 0 4 0.1183195644090918 1 0.23663912881818361 1 0.35495869322727541 1 0.47327825763636722 1 0.59159782204545897 1 0.70991738645455083 1 0.82823695086364268 1 0.94655651527273443 1 1.0648760796818262 1 1.1831956440909179 1 1.3015152085000099 1 1.4198347729091017 1 1.5381543373181934 1 1.6564739017272854 1 1.7747934661363771 1 1.8931130305454689 1 2.0114325949545608 1 2.1297521593636524 1 2.2480717237727443 1 2.3663912881818359 1 2.4847108525909278 1 2.6030304170000198 4
1 -4.4408920985006262e-16 -0.48535766591889651 1 -2.4981770570172251e-15 
7 0 0  3 25 23  2.094395102393197 0.4853576659189171  2.0895235704491073 0.46258408732432221  2.0797469512334197 0.41784023517071694  2.0649819596111398 0.35309775914870645  2.0501174880340103 0.2906911216964348  2.0351541905355082 0.23058583676630579  2.0200927689430324 0.17274929080523491  2.0049339802240853 0.11715096573110564  1.9896786355386658 0.06376231195617349  1.9743276014530788 0.012556720846680875  1.9588818005093327 -0.036490524007670395  1.943342211897555 -0.083402284582583031  1.927709872026772 -0.12819960404523739  1.9119858750446139 -0.17090173801104544  1.8961713732877894 -0.21152618215902122  1.8802675776650586 -0.25008869608842749  1.8642757579639817 -0.2866033236563203  1.8481972430950002 -0.32108240936584753  1.8320334212082672 -0.35353661261240049  1.8157857399095274 -0.38397491323161187  1.7994557057167115 -0.4124046329261527  1.7830448859472829 -0.43883138089697321  1.7665549011185708 -0.4632592657947085  1.7555099352575851 -0.47821315334189962  1.7499748213456132 -0.4853576659189075 
 0 4 0.1183195644090909 1 0.2366391288181818 1 0.35495869322727269 1 0.47327825763636361 1 0.59159782204545452 1 0.70991738645454538 1 0.82823695086363636 1 0.94655651527272722 1 1.0648760796818182 1 1.183195644090909 1 1.3015152084999999 1 1.4198347729090908 1 1.5381543373181816 1 1.6564739017272727 1 1.7747934661363636 1 1.8931130305454544 1 2.0114325949545453 1 2.1297521593636364 1 2.248071723772727 1 2.3663912881818181 1 2.4847108525909087 1 2.6030304169999998 4
1 0 -0.48535766591890822 1 1.2893817068476001e-15 
7 0 0  3 25 23  2.4388153834407817 -0.48535766591890672  2.4332802695288103 -0.47821315334189896  2.4222353036678252 -0.46325926579470816  2.4057453188391111 -0.43883138089697377  2.3893344990696836 -0.41240463292615476  2.3730044648768684 -0.38397491323161353  2.3567567835781262 -0.35353661261239999  2.3405929616913954 -0.32108240936584648  2.3245144468224108 -0.28660332365632379  2.3085226271213357 -0.25008869608842854  2.2926188314986042 -0.21152618215902272  2.2768043297417804 -0.17090173801104519  2.2610803327596201 -0.12819960404523492  2.2454479928888378 -0.083402284582586417  2.2299084042770589 -0.036490524007664144  2.2144626033333124 0.012556720846683987  2.1991115692477261 0.06376231195617646  2.1838562245623057 0.11715096573110448  2.1686974358433599 0.17274929080524079  2.1536360142508824 0.23058583676630565  2.1386727167523816 0.29069112169643457  2.1238082451752511 0.35309775914870573  2.1090432535529726 0.41784023517071511  2.0992666343372854 0.46258408732431877  2.0943951023931957 0.48535766591891216 
 0 4 0.11831956440909136 1 0.23663912881818272 1 0.35495869322727408 1 0.47327825763636544 1 0.59159782204545674 1 0.70991738645454816 1 0.82823695086363958 1 0.94655651527273088 1 1.0648760796818222 1 1.1831956440909135 1 1.301515208500005 1 1.4198347729090963 1 1.5381543373181876 1 1.6564739017272792 1 1.7747934661363705 1 1.8931130305454618 1 2.0114325949545533 1 2.1297521593636444 1 2.2480717237727359 1 2.366391288181827 1 2.4847108525909185 1 2.60303041700001 4
1 0 -0.38272154531721869 1 0 
1 0 1.4587500000000002 1 0 
1 0 0.38272154531721869 1 0 
1 0 -1.45875 1 0 
1 6.2831853071795862 -0.3827215453172188 -1 0 
1 0 0.3827215453172188 1 0 
Curves 76
2 0 3.3140909450318101e-17 0.54125000000000001 -0 6.12303176911189e-17 1 1 0 0 0 1 -6.12303176911189e-17 3.4587500000000002
1 -3.7293750000000001 4.7327208680379201e-16 0.270625 -0.70710678118654802 4.3296372853596802e-17 -0.70710678118654702 
2 0 0 0 0 0 -1 1 0 0 0 -1 0 4
1 3.7293750000000001 -4.4013117735347402e-16 0.270625 -0.70710678118654802 1.2988911856079e-16 0.70710678118654702 
2 0 2.1178036131415699e-16 3.4587500000000002 -0 6.12303176911189e-17 1 1 0 0 0 1 -6.12303176911189e-17 3.4587500000000002
1 -3.4587500000000002 5.4602135801055196e-16 2 -0 -6.12303176911189e-17 -1 
1 3.4587500000000002 -3.01100087246077e-16 2 -0 6.12303176911189e-17 1 
2 0 2.4492127076447501e-16 4 0 0 1 1 0 -0 -0 1 0 4
1 -3.7293750000000001 6.8505244811794898e-16 3.7293750000000001 0.70710678118654802 -1.2988911856079e-16 -0.70710678118654702 
1 3.7293750000000001 -2.2835081603931601e-16 3.7293750000000001 0.70710678118654802 -4.3296372853596802e-17 0.70710678118654702 
1 -7.0574842084697602 8.7539678540406498e-16 0.18181818181818199 0.92718385456678742 -1.3648080467044505e-16 -0.37460659341591218 
7 1 0  2 3 2  -7.5075000000000003 1.04229103936784e-17 0.36363636363636398  1 -6.8223936108488603 1.1866390745998401 0.086835414932075694  1.0170834125963899 -6.2194207399118504 2.2310187226484102 2.7755575615628901e-17  1
 0 3 2.60303041700001 3
2 0 0 0 0 0 1 1 0 -0 -0 1 0 6.6074684169395299
1 7.0574842084697602 -8.5313121533456804e-16 0.18181818181818199 0.92718385456678742 -9.060624322235704e-17 0.37460659341591218 
2 0 0 0 0 0 1 1 0 -0 -0 1 0 6.6074684169395299
7 1 0  2 3 2  6.2194207399118504 2.2310187226484102 -2.4980018054066002e-16  1 6.8223936108488701 1.1866390745998201 0.086835414932077803  1.0170834125963899 7.5075000000000003 -4.7136397222200501e-15 0.36363636363636498  1
 0 3 2.6030304170000198 3
1 -7.0574842084697602 1.0980524860990399e-15 3.8181818181818201 -0.92718385456678742 9.060624322235704e-17 -0.37460659341591218 
2 0 2.4492127076447501e-16 4 0 0 -1 1 0 0 0 -1 0 6.6074684169395299
7 1 0  2 3 2  -6.2194207399118504 2.2310187226484102 4  1 -6.8223936108488603 1.1866390745998301 3.91316458506792  1.0170834125963799 -7.5075000000000003 9.187723740255149e-16 3.6363636363636398  1
 0 3 2.60303041700001 3
1 7.0574842084697602 -6.3047551463959002e-16 3.8181818181818201 -0.92718385456678742 1.3648080467044505e-16 0.37460659341591218 
7 1 0  2 3 2  7.5075000000000003 -1.91566520554272e-15 3.6363636363636398  1 6.8223936108488497 1.1866390745998401 3.91316458506792  1.0170834125964101 6.2194207399118504 2.2310187226484 4  1
 0 3 2.6030304169999998 3
2 0 2.4492127076447501e-16 4 0 0 -1 1 0 0 0 -1 0 6.6074684169395299
7 1 0  2 3 2  3.7537500000000099 6.5016857189116699 3.6363636363636398  1 2.3835372216977402 6.5016857189116699 3.91316458506792  1.0170834125963899 1.1775914798237099 6.5016857189116699 4  1
 0 3 2.6030304169999998 3
2 0 2.4492127076447501e-16 4 0 0 -1 1 0 0 0 -1 0 6.6074684169395299
7 1 0  2 3 2  5.04182926008815 4.2706669962632802 4  1 4.4388563891511401 5.3150466443118498 3.91316458506792  1.0170834125963699 3.7537500000000001 6.5016857189116797 3.6363636363636398  1
 0 3 2.6030304169999998 3
7 1 0  2 3 2  -3.7537500000000001 6.5016857189116797 3.6363636363636398  1 -4.4388563891511401 5.3150466443118498 3.91316458506792  1.0170834125963799 -5.04182926008815 4.2706669962632704 4  1
 0 3 2.60303041700001 3
2 0 2.4492127076447501e-16 4 0 0 -1 1 0 0 0 -1 0 6.6074684169395299
7 1 0  2 3 2  -1.1775914798237099 6.5016857189116699 4  1 -2.3835372216977402 6.5016857189116699 3.91316458506792  1.0170834125963899 -3.7537500000000099 6.5016857189116699 3.6363636363636398  1
 0 3 2.6030304169999998 3
2 0 2.4492127076447501e-16 4 0 0 -1 1 0 0 0 -1 0 6.6074684169395299
7 1 0  2 3 2  6.2194207399118504 -2.2310187226484 4  1 6.8223936108488603 -1.1866390745998301 3.91316458506792  1.0170834125964101 7.5075000000000003 5.1704287433778702e-15 3.6363636363636398  1
 0 3 2.60303041700001 3
7 1 0  2 3 2  -7.5075000000000003 2.8083974270710002e-15 3.6363636363636398  1 -6.8223936108488701 -1.1866390745998201 3.91316458506792  1.0170834125963699 -6.2194207399118504 -2.2310187226484102 4  1
 0 3 2.60303041700001 3
2 0 2.4492127076447501e-16 4 0 0 -1 1 0 0 0 -1 0 6.6074684169395299
7 1 0  2 3 2  1.1775914798237099 -6.5016857189116699 4  1 2.38353722169773 -6.5016857189116699 3.91316458506792  1.0170834125963899 3.7537500000000099 -6.5016857189116699 3.6363636363636398  1
 0 3 2.6030304169999998 3
7 1 0  2 3 2  3.7537500000000001 -6.5016857189116797 3.6363636363636398  1 4.4388563891511499 -5.3150466443118303 3.9131645850679302  1.0170834125963899 5.04182926008815 -4.2706669962632704 4  1
 0 3 2.60303041700001 3
2 0 2.4492127076447501e-16 4 0 0 -1 1 0 0 0 -1 0 6.6074684169395299
7 1 0  2 3 2  3.7537500000000001 6.5016857189116797 0.36363636363636398  1 4.4388563891511303 5.3150466443118596 0.086835414932078095  1.0170834125963999 5.04182926008815 4.2706669962632704 -4.7184478546569202e-16  1
 0 3 2.6030304170000198 3
2 0 0 0 0 0 1 1 0 -0 -0 1 0 6.6074684169395299
7 1 0  2 3 2  1.1775914798236999 6.5016857189116699 -2.7755575615628899e-16  1 2.38353722169773 6.5016857189116699 0.086835414932077401  1.0170834125963999 3.7537500000000099 6.5016857189116699 0.36363636363636398  1
 0 3 2.60303041700001 3
7 1 0  2 3 2  -5.04182926008815 4.2706669962632704 -2.7755575615628901e-17  1 -4.4388563891511401 5.31504664431184 0.086835414932075902  1.0170834125963899 -3.7537500000000001 6.5016857189116797 0.36363636363636398  1
 0 3 2.60303041700001 3
7 1 0  2 3 2  -3.7537500000000099 6.5016857189116699 0.36363636363636398  1 -2.38353722169773 6.5016857189116699 0.086835414932077401  1.0170834125963999 -1.1775914798236999 6.5016857189116699 -2.7755575615628899e-16  1
 0 3 2.60303041700001 3
2 0 0 0 0 0 1 1 0 -0 -0 1 0 6.6074684169395299
7 1 0  2 3 2  7.5075000000000003 1.4276417001777999e-15 0.36363636363636398  1 6.8223936108488497 -1.1866390745998401 0.086835414932074695  1.0170834125963999 6.2194207399118397 -2.2310187226484102 -3.8857805861880499e-16  1
 0 3 2.6030304170000198 3
2 0 0 0 0 0 1 1 0 -0 -0 1 0 6.6074684169395299
2 0 0 0 0 0 1 1 0 -0 -0 1 0 6.6074684169395299
7 1 0  2 3 2  -6.2194207399118397 -2.2310187226484199 -5.5511151231257802e-17  1 -6.8223936108488497 -1.1866390745998401 0.086835414932074501  1.0170834125964101 -7.5075000000000003 2.84486048996191e-15 0.36363636363636398  1
 0 3 2.6030304170000198 3
7 1 0  2 3 2  3.7537500000000001 -6.5016857189116699 0.36363636363636398  1 2.3835372216977202 -6.5016857189116699 0.086835414932076499  1.0170834125963899 1.1775914798237099 -6.5016857189116699 3.8857805861880499e-16  1
 0 3 2.6030304169999998 3
2 0 0 0 0 0 1 1 0 -0 -0 1 0 6.6074684169395299
7 1 0  2 3 2  5.0418292600881598 -4.2706669962632597 -3.8857805861880499e-16  1 4.4388563891511401 -5.31504664431184 0.086835414932075097  1.0170834125963699 3.7537500000000001 -6.5016857189116699 0.36363636363636398  1
 0 3 2.60303041700001 3
7 1 0  2 3 2  -1.1775914798237099 -6.5016857189116699 3.05311331771918e-16  1 -2.3835372216977202 -6.5016857189116699 0.086835414932076402  1.0170834125963599 -3.7537500000000001 -6.5016857189116699 0.36363636363636398  1
 0 3 2.6030304169999998 3
7 1 0  2 3 2  -3.7537500000000001 -6.5016857189116699 0.36363636363636398  1 -4.4388563891511499 -5.3150466443118303 0.086835414932074501  1.0170834125963899 -5.0418292600881598 -4.2706669962632597 0  1
 0 3 2.6030304170000198 3
2 0 0 0 0 0 1 1 0 -0 -0 1 0 6.6074684169395299
7 1 0  2 3 2  -3.7537500000000099 -6.5016857189116699 3.6363636363636398  1 -2.38353722169773 -6.5016857189116699 3.91316458506792  1.0170834125963899 -1.1775914798237099 -6.5016857189116699 4  1
 0 3 2.6030304169999998 3
2 0 2.4492127076447501e-16 4 0 0 -1 1 0 0 0 -1 0 6.6074684169395299
7 1 0  2 3 2  -5.0418292600881598 -4.2706669962632597 4  1 -4.4388563891511401 -5.3150466443118498 3.91316458506792  1.0170834125963599 -3.7537500000000001 -6.5016857189116699 3.6363636363636398  1
 0 3 2.60303041700001 3
2 0 2.1178036131415699e-16 3.4587500000000002 -0 6.12303176911189e-17 1 1 0 0 0 1 -6.12303176911189e-17 3.4587500000000002
2 0 2.4492127076447501e-16 4 0 0 1 1 0 -0 -0 1 0 4
2 0 3.3140909450318101e-17 0.54125000000000001 -0 6.12303176911189e-17 1 1 0 0 0 1 -6.12303176911189e-17 3.4587500000000002
2 0 0 0 0 0 -1 1 0 0 0 -1 0 4
1 -3.7537500000000001 -6.5016857189116699 0 0 0 1 
1 -3.7537500000000001 -6.5016857189116699 0 1 -1.1830548380954001e-16 0 
1 3.7537500000000001 -6.5016857189116699 0 0 0 1 
1 -3.7537500000000001 -6.5016857189116699 4 -1 1.1830548380954001e-16 0 
1 -7.5075000000000003 9.1937322013214998e-16 4 -0.49999999999999989 0.86602540378443882 0 
1 -7.5075000000000003 9.1937322013214998e-16 0 0 0 1 
1 -7.5075000000000003 9.1937322013214998e-16 0 0.49999999999999989 -0.86602540378443882 0 
1 -3.7537500000000001 6.5016857189116699 4 0.50000000000000033 0.86602540378443849 0 
1 -3.7537500000000001 6.5016857189116699 0 0 0 1 
1 -3.7537500000000001 6.5016857189116699 0 -0.50000000000000033 -0.86602540378443849 0 
1 3.7537500000000001 6.5016857189116699 4 1 0 0 
1 3.7537500000000001 6.5016857189116699 0 0 0 1 
1 3.7537500000000001 6.5016857189116699 0 -1 0 0 
1 7.5075000000000003 0 0 -0.49999999999999989 0.86602540378443882 0 
1 3.7537500000000001 -6.5016857189116699 0 0.49999999999999989 0.86602540378443882 0 
1 7.5075000000000003 0 0 0 0 1 
1 3.7537500000000001 -6.5016857189116699 4 -0.49999999999999989 -0.86602540378443882 -0 
1 7.5075000000000003 0 4 0.49999999999999989 -0.86602540378443882 0 
Polygon3D 0
PolygonOnTriangulations 0
Surfaces 30
3 0 1.6570454725159001e-17 0.270625 0 -6.12303176911189e-17 -1 1 0 0 0 -1 6.12303176911189e-17 3.7293750000000001
0.78539816339744795
2 0 1.22460635382238e-16 2 -0 6.12303176911189e-17 1 1 0 0 0 1 -6.12303176911189e-17 3.4587500000000002
3 0 1.6570454725159001e-17 0.270625 0 -6.12303176911189e-17 -1 1 0 0 0 -1 6.12303176911189e-17 3.7293750000000001
0.78539816339744795
1 1.3457248783335199e-16 -4.4408920985006301e-16 0 0 0 1 1 0 -0 -0 1 0 
3 0 2.2835081603931601e-16 3.7293750000000001 -0 6.12303176911189e-17 1 1 0 0 0 1 -6.12303176911189e-17 3.7293750000000001
0.78539816339744795
2 0 1.22460635382238e-16 2 -0 6.12303176911189e-17 1 1 0 0 0 1 -6.12303176911189e-17 3.4587500000000002
1 1.3457248783335199e-16 -4.4408920985006301e-16 4 0 0 1 1 0 -0 -0 1 0 
3 0 2.2835081603931601e-16 3.7293750000000001 -0 6.12303176911189e-17 1 1 0 0 0 1 -6.12303176911189e-17 3.7293750000000001
0.78539816339744795
3 0 1.11327850347489e-17 0.18181818181818199 -0 6.12303176911189e-17 1 1 0 0 0 1 -6.12303176911189e-17 7.0574842084697602
1.18682389135614
3 0 1.11327850347489e-17 0.18181818181818199 -0 6.12303176911189e-17 1 1 0 0 0 1 -6.12303176911189e-17 7.0574842084697602
1.18682389135614
1 -5.6306250000000002 3.2508428594558398 0 -0.86602540378443849 0.50000000000000033 0 -0.50000000000000033 -0.86602540378443849 0 0 0 1 
3 0 1.11327850347489e-17 0.18181818181818199 -0 6.12303176911189e-17 1 1 0 0 0 1 -6.12303176911189e-17 7.0574842084697602
1.18682389135614
3 0 1.11327850347489e-17 0.18181818181818199 -0 6.12303176911189e-17 1 1 0 0 0 1 -6.12303176911189e-17 7.0574842084697602
1.18682389135614
1 5.6306250000000002 3.2508428594558398 0 0.86602540378443882 0.49999999999999989 -0 -0.49999999999999989 0.86602540378443882 0 0 0 1 
3 0 2.3378848572972698e-16 3.8181818181818201 0 -6.12303176911189e-17 -1 1 0 0 0 -1 6.12303176911189e-17 7.0574842084697602
1.18682389135614
3 0 2.3378848572972698e-16 3.8181818181818201 0 -6.12303176911189e-17 -1 1 0 0 0 -1 6.12303176911189e-17 7.0574842084697602
1.18682389135614
3 0 2.3378848572972698e-16 3.8181818181818201 0 -6.12303176911189e-17 -1 1 0 0 0 -1 6.12303176911189e-17 7.0574842084697602
1.18682389135614
3 0 2.3378848572972698e-16 3.8181818181818201 0 -6.12303176911189e-17 -1 1 0 0 0 -1 6.12303176911189e-17 7.0574842084697602
1.18682389135614
3 0 2.3378848572972698e-16 3.8181818181818201 0 -6.12303176911189e-17 -1 1 0 0 0 -1 6.12303176911189e-17 7.0574842084697602
1.18682389135614
1 8.8817841970012504e-16 6.5016857189116699 0 0 1 -0 -1 0 0 0 0 1 
3 0 2.3378848572972698e-16 3.8181818181818201 0 -6.12303176911189e-17 -1 1 0 0 0 -1 6.12303176911189e-17 7.0574842084697602
1.18682389135614
1 5.6306250000000002 -3.2508428594558398 0 0.86602540378443882 -0.49999999999999989 0 0.49999999999999989 0.86602540378443882 0 -0 0 1 
1 -5.6306250000000002 -3.2508428594558398 0 -0.86602540378443882 -0.49999999999999989 0 0.49999999999999989 -0.86602540378443882 0 0 0 1 
3 0 2.3378848572972698e-16 3.8181818181818201 0 -6.12303176911189e-17 -1 1 0 0 0 -1 6.12303176911189e-17 7.0574842084697602
1.18682389135614
1 -1.7763568394002501e-15 -6.5016857189116699 0 -1.1830548380954001e-16 -1 0 1 -1.1830548380954001e-16 0 0 0 1 
3 0 1.11327850347489e-17 0.18181818181818199 -0 6.12303176911189e-17 1 1 0 0 0 1 -6.12303176911189e-17 7.0574842084697602
1.18682389135614
3 0 1.11327850347489e-17 0.18181818181818199 -0 6.12303176911189e-17 1 1 0 0 0 1 -6.12303176911189e-17 7.0574842084697602
1.18682389135614
3 0 1.11327850347489e-17 0.18181818181818199 -0 6.12303176911189e-17 1 1 0 0 0 1 -6.12303176911189e-17 7.0574842084697602
1.18682389135614
3 0 1.11327850347489e-17 0.18181818181818199 -0 6.12303176911189e-17 1 1 0 0 0 1 -6.12303176911189e-17 7.0574842084697602
1.18682389135614
3 0 2.3378848572972698e-16 3.8181818181818201 0 -6.12303176911189e-17 -1 1 0 0 0 -1 6.12303176911189e-17 7.0574842084697602
1.18682389135614
Triangulations 0

TShapes 188
Ve
1e-07
-3.45875 4.56701632078633e-16 0.54125
0 0

0101101
*
Ve
1e-07
3.45875 3.31409094503181e-17 0.54125
0 0

0101101
*
Ed
 1e-07 1 1 0
1  1 0 3.14159265358979 6.28318530717959
2  1 1 0 3.14159265358979 6.28318530717959
2  2 2 0 3.14159265358979 6.28318530717959
4 C0 1 0 2 0
0

0101000
+188 0 -187 0 *
Ve
1e-07
-4 4.89842541528951e-16 0
0 0

0101101
*
Ed
 1e-07 1 1 0
1  2 0 -0.382721545317219 0.382721545317219
2  3 1 0 -0.382721545317219 0.382721545317219
2  4 3 0 -0.382721545317219 0.382721545317219
4 CN 1 0 3 0
0

0101000
+188 0 -185 0 *
Ve
1e-07
4 0 0
0 0

0101101
*
Ed
 1e-07 1 1 0
1  3 0 0 3.14159265358979
2  5 1 0 0 3.14159265358979
4 C0 1 0 4 0
0

0101000
+183 0 -185 0 *
Ed
 1e-07 1 1 0
1  4 0 -0.382721545317219 0.382721545317219
2  6 1 0 -0.382721545317219 0.382721545317219
2  7 3 0 -0.382721545317219 0.382721545317219
4 CN 1 0 3 0
0

0101000
+183 0 -187 0 *
Wi

0101100
-186 0 +184 0 -182 0 +181 0 *
Fa
0  1e-07 1 0

0111000
+180 0 *
Ve
1e-07
-3.45875 6.35341083942472e-16 3.45875
0 0

0101101
*
Ve
1e-07
3.45875 2.11780361314157e-16 3.45875
0 0

0101101
*
Ed
 1e-07 1 1 0
1  5 0 3.14159265358979 6.28318530717959
2  8 2 0 3.14159265358979 6.28318530717959
2  9 5 0 3.14159265358979 6.28318530717959
4 C0 2 0 5 0
0

0101000
+178 0 -177 0 *
Ed
 1e-07 1 1 0
1  6 0 -1.45875 1.45875
2  10 2 0 -1.45875 1.45875
2  11 6 0 -1.45875 1.45875
4 CN 2 0 6 0
0

0101000
+178 0 -188 0 *
Ed
 1e-07 1 1 0
1  7 0 -1.45875 1.45875
2  12 2 0 -1.45875 1.45875
2  13 6 0 -1.45875 1.45875
4 CN 2 0 6 0
0

0101000
+187 0 -177 0 *
Wi

0101100
-176 0 +175 0 +186 0 +174 0 *
Fa
0  1e-07 2 0

0111000
+173 0 *
Ve
1e-07
-4 7.34763812293426e-16 4
0 0

0101101
*
Ve
1e-07
4 2.44921270764475e-16 4
0 0

0101101
*
Ed
 1e-07 1 1 0
1  8 0 3.14159265358979 6.28318530717959
2  14 5 0 3.14159265358979 6.28318530717959
4 C0 5 0 7 0
0

0101000
+171 0 -170 0 *
Ed
 1e-07 1 1 0
1  9 0 -0.382721545317219 0.382721545317219
2  15 5 0 -0.382721545317219 0.382721545317219
2  16 8 0 -0.382721545317219 0.382721545317219
4 CN 5 0 8 0
0

0101000
+171 0 -178 0 *
Ed
 1e-07 1 1 0
1  10 0 -0.382721545317219 0.382721545317219
2  17 5 0 -0.382721545317219 0.382721545317219
2  18 8 0 -0.382721545317219 0.382721545317219
4 CN 5 0 8 0
0

0101000
+177 0 -170 0 *
Wi

0101100
-169 0 +168 0 +176 0 +167 0 *
Fa
0  1e-07 5 0

0111000
+166 0 *
Ve
1e-07
-7.5075 2.66453525910038e-15 0.363636363636364
0 0

0101101
*
Ve
1e-07
-6.60746841693953 8.09154780606483e-16 0
0 0

0101101
*
Ed
 1e-07 1 1 0
1  11 0 -0.485357665918916 0.485357665918907
2  19 9 0 -0.485357665918916 0.485357665918907
2  20 10 0 -0.485357665918916 0.485357665918907
4 CN 9 0 10 0
0

0101000
+164 0 -163 0 *
Ve
1e-07
-6.21942073991185 2.23101872264841 -1.36605985162596e-16
0 0

0101101
*
Ed
 1e-07 1 1 0
1  12 0 0 2.60303041700001
2  21 9 0 0 2.60303041700001
4 C0 9 0 11 0
0

0101000
+164 0 -161 0 *
Ed
 1e-07 1 1 0
1  13 0 2.79717237254221 3.14159265358979
2  22 9 0 2.79717237254221 3.14159265358979
4 C0 9 0 4 0
0

0101000
+161 0 -163 0 *
Wi

0101100
-162 0 +160 0 +159 0 *
Fa
0  1e-07 9 0

0111000
+158 0 *
Ve
1e-07
6.60746841693953 -8.09154780606483e-16 0
0 0

0101101
*
Ve
1e-07
7.5075 2.22655700694978e-17 0.363636363636364
0 0

0101101
*
Ed
 1e-07 1 1 0
1  14 0 -0.485357665918907 0.485357665918916
2  23 12 0 -0.485357665918907 0.485357665918916
2  24 13 0 -0.485357665918907 0.485357665918916
4 CN 12 0 13 0
0

0101000
+156 0 -155 0 *
Ve
1e-07
6.21942073991185 2.2310187226484 -1.36605985162596e-16
0 0

0101101
*
Ed
 1e-07 1 1 0
1  15 0 0 0.344420281047583
2  25 12 0 0 0.344420281047583
4 C0 12 0 4 0
0

0101000
+156 0 -153 0 *
Ed
 1e-07 1 1 0
1  16 0 0 2.60303041700002
2  26 12 0 0 2.60303041700002
4 C0 12 0 14 0
0

0101000
+153 0 -155 0 *
Wi

0101100
-154 0 +152 0 +151 0 *
Fa
0  1e-07 12 0

0111000
+150 0 *
Ve
1e-07
-6.60746841693953 1.05407605137096e-15 4
0 0

0101101
*
Ve
1e-07
-7.5075 3.10862446895044e-15 3.63636363636364
0 0

0101101
*
Ed
 1e-07 1 1 0
1  17 0 -0.485357665918906 0.485357665918915
2  27 15 0 -0.485357665918906 0.485357665918915
2  28 16 0 -0.485357665918906 0.485357665918915
4 CN 15 0 16 0
0

0101000
+148 0 -147 0 *
Ve
1e-07
-6.21942073991185 2.23101872264841 4
0 0

0101101
*
Ed
 1e-07 1 1 0
1  18 0 3.14159265358979 3.48601293463738
2  29 15 0 3.14159265358979 3.48601293463738
4 C0 15 0 7 0
0

0101000
+148 0 -145 0 *
Ed
 1e-07 1 1 0
1  19 0 0 2.60303041700001
2  30 15 0 0 2.60303041700001
4 C0 15 0 11 0
0

0101000
+145 0 -147 0 *
Wi

0101100
-146 0 +144 0 +143 0 *
Fa
0  1e-07 15 0

0111000
+142 0 *
Ve
1e-07
7.5075 2.22655700694978e-16 3.63636363636364
0 0

0101101
*
Ve
1e-07
6.60746841693953 -5.64233509842008e-16 4
0 0

0101101
*
Ed
 1e-07 1 1 0
1  20 0 -0.485357665918915 0.485357665918906
2  31 17 0 -0.485357665918915 0.485357665918906
2  32 18 0 -0.485357665918915 0.485357665918906
4 CN 17 0 18 0
0

0101000
+140 0 -139 0 *
Ve
1e-07
6.21942073991185 2.23101872264841 4
0 0

0101101
*
Ed
 1e-07 1 1 0
1  21 0 0 2.603030417
2  33 17 0 0 2.603030417
4 C0 17 0 14 0
0

0101000
+140 0 -137 0 *
Ed
 1e-07 1 1 0
1  22 0 5.938765026132 6.28318530717959
2  34 17 0 5.938765026132 6.28318530717959
4 C0 17 0 7 0
0

0101000
+137 0 -139 0 *
Wi

0101100
-138 0 +136 0 +135 0 *
Fa
0  1e-07 17 0

0111000
+134 0 *
Ve
1e-07
3.75375 6.50168571891167 3.63636363636364
0 0

0101101
*
Ve
1e-07
1.1775914798237 6.50168571891167 4
0 0

0101101
*
Ed
 1e-07 1 1 0
1  23 0 0 2.603030417
2  35 19 0 0 2.603030417
4 C0 19 0 20 0
0

0101000
+132 0 -131 0 *
Ve
1e-07
5.04182926008815 4.27066699626327 4
0 0

0101101
*
Ed
 1e-07 1 1 0
1  24 0 4.89156747493541 5.58040803703057
2  36 19 0 4.89156747493541 5.58040803703057
4 C0 19 0 7 0
0

0101000
+131 0 -129 0 *
Ed
 1e-07 1 1 0
1  25 0 0 2.603030417
2  37 19 0 0 2.603030417
4 C0 19 0 14 0
0

0101000
+129 0 -132 0 *
Wi

0101100
+130 0 +128 0 +127 0 *
Fa
0  1e-07 19 0

0111000
+126 0 *
Ve
1e-07
-3.75375 6.50168571891168 3.63636363636364
0 0

0101101
*
Ve
1e-07
-5.04182926008815 4.27066699626327 4
0 0

0101101
*
Ed
 1e-07 1 1 0
1  26 0 0 2.60303041700001
2  38 21 0 0 2.60303041700001
4 C0 21 0 11 0
0

0101000
+124 0 -123 0 *
Ve
1e-07
-1.1775914798237 6.50168571891167 4
0 0

0101101
*
Ed
 1e-07 1 1 0
1  27 0 3.84436992373881 4.53321048583397
2  39 21 0 3.84436992373881 4.53321048583397
4 C0 21 0 7 0
0

0101000
+123 0 -121 0 *
Ed
 1e-07 1 1 0
1  28 0 0 2.603030417
2  40 21 0 0 2.603030417
4 C0 21 0 20 0
0

0101000
+121 0 -124 0 *
Wi

0101100
+122 0 +120 0 +119 0 *
Fa
0  1e-07 21 0

0111000
+118 0 *
Ve
1e-07
6.21942073991185 -2.2310187226484 4
0 0

0101101
*
Ed
 1e-07 1 1 0
1  29 0 0 0.344420281047583
2  41 18 0 0 0.344420281047583
4 C0 18 0 7 0
0

0101000
+139 0 -116 0 *
Ed
 1e-07 1 1 0
1  30 0 0 2.60303041700001
2  42 18 0 0 2.60303041700001
4 C0 18 0 22 0
0

0101000
+116 0 -140 0 *
Wi

0101100
+138 0 +115 0 +114 0 *
Fa
0  1e-07 18 0

0111000
+113 0 *
Ve
1e-07
-6.21942073991185 -2.2310187226484 4
0 0

0101101
*
Ed
 1e-07 1 1 0
1  31 0 0 2.60303041700001
2  43 16 0 0 2.60303041700001
4 C0 16 0 23 0
0

0101000
+147 0 -111 0 *
Ed
 1e-07 1 1 0
1  32 0 2.79717237254221 3.14159265358979
2  44 16 0 2.79717237254221 3.14159265358979
4 C0 16 0 7 0
0

0101000
+111 0 -148 0 *
Wi

0101100
+146 0 +110 0 +109 0 *
Fa
0  1e-07 16 0

0111000
+108 0 *
Ve
1e-07
1.17759147982371 -6.50168571891167 4
0 0

0101101
*
Ve
1e-07
3.75375 -6.50168571891167 3.63636363636364
0 0

0101101
*
Ed
 1e-07 1 1 0
1  33 0 0 2.603030417
2  45 24 0 0 2.603030417
4 C0 24 0 25 0
0

0101000
+106 0 -105 0 *
Ve
1e-07
5.04182926008815 -4.27066699626327 4
0 0

0101101
*
Ed
 1e-07 1 1 0
1  34 0 0 2.60303041700001
2  46 24 0 0 2.60303041700001
4 C0 24 0 22 0
0

0101000
+105 0 -103 0 *
Ed
 1e-07 1 1 0
1  35 0 0.702777270149014 1.39161783224418
2  47 24 0 0.702777270149014 1.39161783224418
4 C0 24 0 7 0
0

0101000
+103 0 -106 0 *
Wi

0101100
+104 0 +102 0 +101 0 *
Fa
0  1e-07 24 0

0111000
+100 0 *
Ve
1e-07
3.75375 6.50168571891167 0.363636363636363
0 0

0101101
*
Ve
1e-07
5.04182926008815 4.27066699626327 -2.61494296934176e-16
0 0

0101101
*
Ed
 1e-07 1 1 0
1  36 0 0 2.60303041700002
2  48 26 0 0 2.60303041700002
4 C0 26 0 14 0
0

0101000
+98 0 -97 0 *
Ve
1e-07
1.1775914798237 6.50168571891167 -3.98100282096772e-16
0 0

0101101
*
Ed
 1e-07 1 1 0
1  37 0 0.702777270149014 1.39161783224418
2  49 26 0 0.702777270149014 1.39161783224418
4 C0 26 0 4 0
0

0101000
+97 0 -95 0 *
Ed
 1e-07 1 1 0
1  38 0 0 2.60303041700001
2  50 26 0 0 2.60303041700001
4 C0 26 0 20 0
0

0101000
+95 0 -98 0 *
Wi

0101100
+96 0 +94 0 +93 0 *
Fa
0  1e-07 26 0

0111000
+92 0 *
Ve
1e-07
-5.04182926008815 4.27066699626327 -2.61494296934176e-16
0 0

0101101
*
Ve
1e-07
-3.75375 6.50168571891168 0.363636363636363
0 0

0101101
*
Ed
 1e-07 1 1 0
1  39 0 0 2.60303041700001
2  51 27 0 0 2.60303041700001
4 C0 27 0 11 0
0

0101000
+90 0 -89 0 *
Ve
1e-07
-1.1775914798237 6.50168571891167 -3.98100282096772e-16
0 0

0101101
*
Ed
 1e-07 1 1 0
1  40 0 0 2.60303041700001
2  52 27 0 0 2.60303041700001
4 C0 27 0 20 0
0

0101000
+89 0 -87 0 *
Ed
 1e-07 1 1 0
1  41 0 1.74997482134561 2.43881538344078
2  53 27 0 1.74997482134561 2.43881538344078
4 C0 27 0 4 0
0

0101000
+87 0 -90 0 *
Wi

0101100
+88 0 +86 0 +85 0 *
Fa
0  1e-07 27 0

0111000
+84 0 *
Ve
1e-07
6.21942073991185 -2.2310187226484 1.36605985162596e-16
0 0

0101101
*
Ed
 1e-07 1 1 0
1  42 0 0 2.60303041700002
2  54 13 0 0 2.60303041700002
4 C0 13 0 22 0
0

0101000
+155 0 -82 0 *
Ed
 1e-07 1 1 0
1  43 0 5.938765026132 6.28318530717959
2  55 13 0 5.938765026132 6.28318530717959
4 C0 13 0 4 0
0

0101000
+82 0 -156 0 *
Wi

0101100
+154 0 +81 0 +80 0 *
Fa
0  1e-07 13 0

0111000
+79 0 *
Ve
1e-07
-6.21942073991185 -2.2310187226484 1.36605985162596e-16
0 0

0101101
*
Ed
 1e-07 1 1 0
1  44 0 3.14159265358979 3.48601293463738
2  56 10 0 3.14159265358979 3.48601293463738
4 C0 10 0 4 0
0

0101000
+163 0 -77 0 *
Ed
 1e-07 1 1 0
1  45 0 0 2.60303041700002
2  57 10 0 0 2.60303041700002
4 C0 10 0 23 0
0

0101000
+77 0 -164 0 *
Wi

0101100
+162 0 +76 0 +75 0 *
Fa
0  1e-07 10 0

0111000
+74 0 *
Ve
1e-07
3.75375 -6.50168571891167 0.363636363636364
0 0

0101101
*
Ve
1e-07
1.17759147982371 -6.50168571891167 3.98100282096772e-16
0 0

0101101
*
Ed
 1e-07 1 1 0
1  46 0 0 2.603030417
2  58 28 0 0 2.603030417
4 C0 28 0 25 0
0

0101000
+72 0 -71 0 *
Ve
1e-07
5.04182926008815 -4.27066699626327 2.61494296934176e-16
0 0

0101101
*
Ed
 1e-07 1 1 0
1  47 0 4.89156747493541 5.58040803703057
2  59 28 0 4.89156747493541 5.58040803703057
4 C0 28 0 4 0
0

0101000
+71 0 -69 0 *
Ed
 1e-07 1 1 0
1  48 0 0 2.60303041700001
2  60 28 0 0 2.60303041700001
4 C0 28 0 22 0
0

0101000
+69 0 -72 0 *
Wi

0101100
+70 0 +68 0 +67 0 *
Fa
0  1e-07 28 0

0111000
+66 0 *
Ve
1e-07
-1.17759147982371 -6.50168571891167 3.98100282096772e-16
0 0

0101101
*
Ve
1e-07
-3.75375 -6.50168571891167 0.363636363636364
0 0

0101101
*
Ed
 1e-07 1 1 0
1  49 0 0 2.603030417
2  61 29 0 0 2.603030417
4 C0 29 0 25 0
0

0101000
+64 0 -63 0 *
Ve
1e-07
-5.04182926008815 -4.27066699626327 2.61494296934176e-16
0 0

0101101
*
Ed
 1e-07 1 1 0
1  50 0 0 2.60303041700002
2  62 29 0 0 2.60303041700002
4 C0 29 0 23 0
0

0101000
+63 0 -61 0 *
Ed
 1e-07 1 1 0
1  51 0 3.84436992373881 4.53321048583397
2  63 29 0 3.84436992373881 4.53321048583397
4 C0 29 0 4 0
0

0101000
+61 0 -64 0 *
Wi

0101100
+62 0 +60 0 +59 0 *
Fa
0  1e-07 29 0

0111000
+58 0 *
Ve
1e-07
-3.75375 -6.50168571891167 3.63636363636364
0 0

0101101
*
Ve
1e-07
-1.17759147982371 -6.50168571891167 4
0 0

0101101
*
Ed
 1e-07 1 1 0
1  52 0 0 2.603030417
2  64 30 0 0 2.603030417
4 C0 30 0 25 0
0

0101000
+56 0 -55 0 *
Ve
1e-07
-5.04182926008815 -4.27066699626327 4
0 0

0101101
*
Ed
 1e-07 1 1 0
1  53 0 1.74997482134561 2.43881538344078
2  65 30 0 1.74997482134561 2.43881538344078
4 C0 30 0 7 0
0

0101000
+55 0 -53 0 *
Ed
 1e-07 1 1 0
1  54 0 0 2.60303041700001
2  66 30 0 0 2.60303041700001
4 C0 30 0 23 0
0

0101000
+53 0 -56 0 *
Wi

0101100
+54 0 +52 0 +51 0 *
Fa
0  1e-07 30 0

0111000
+50 0 *
Ed
 1e-07 1 1 0
1  55 0 0 3.14159265358979
2  67 8 0 0 3.14159265358979
2  68 6 0 0 3.14159265358979
4 C0 8 0 6 0
0

0101000
+177 0 -178 0 *
Ed
 1e-07 1 1 0
1  56 0 0 3.14159265358979
2  69 8 0 0 3.14159265358979
4 C0 8 0 7 0
0

0101000
+170 0 -171 0 *
Wi

0101100
+48 0 -168 0 -47 0 -167 0 *
Fa
0  1e-07 8 0

0111000
+46 0 *
Ed
 1e-07 1 1 0
1  57 0 0 3.14159265358979
2  70 6 0 0 3.14159265358979
2  71 3 0 0 3.14159265358979
4 C0 6 0 3 0
0

0101000
+187 0 -188 0 *
Wi

0101100
+44 0 -175 0 -48 0 -174 0 *
Fa
0  1e-07 6 0

0111000
+43 0 *
Ed
 1e-07 1 1 0
1  58 0 3.14159265358979 6.28318530717959
2  72 3 0 3.14159265358979 6.28318530717959
4 C0 3 0 4 0
0

0101000
+185 0 -183 0 *
Wi

0101100
-41 0 -184 0 -44 0 -181 0 *
Fa
0  1e-07 3 0

0111000
+40 0 *
Ed
 1e-07 1 1 0
1  59 0 0.363636363636364 3.63636363636364
4 C0 25 0 23 0
0

0101000
+63 0 -56 0 *
Ed
 1e-07 1 1 0
1  60 0 2.57615852017629 4.93134147982371
4 C0 25 0 4 0
0

0101000
+64 0 -71 0 *
Ed
 1e-07 1 1 0
1  61 0 0.363636363636364 3.63636363636364
4 C0 25 0 22 0
0

0101000
+72 0 -105 0 *
Ed
 1e-07 1 1 0
1  62 0 -4.93134147982371 -2.57615852017629
4 C0 25 0 7 0
0

0101000
+106 0 -55 0 *
Wi

0101100
-54 0 -38 0 -62 0 +37 0 -70 0 +36 0 -104 0 +35 0 *
Fa
0  1e-07 25 0

0111000
+34 0 *
Ed
 1e-07 1 1 0
1  63 0 -4.9313414798237 -2.5761585201763
4 C0 23 0 7 0
0

0101000
+53 0 -111 0 *
Ed
 1e-07 1 1 0
1  64 0 0.363636363636364 3.63636363636364
4 C0 23 0 11 0
0

0101000
+164 0 -147 0 *
Ed
 1e-07 1 1 0
1  65 0 2.5761585201763 4.9313414798237
4 C0 23 0 4 0
0

0101000
+77 0 -61 0 *
Wi

0101100
-51 0 +32 0 -110 0 -31 0 -75 0 +30 0 -60 0 +38 0 *
Fa
0  1e-07 23 0

0111000
+29 0 *
Ed
 1e-07 1 1 0
1  66 0 -4.93134147982369 -2.5761585201763
4 C0 11 0 7 0
0

0101000
+145 0 -123 0 *
Ed
 1e-07 1 1 0
1  67 0 0.363636363636363 3.63636363636364
4 C0 11 0 20 0
0

0101000
+89 0 -124 0 *
Ed
 1e-07 1 1 0
1  68 0 2.5761585201763 4.93134147982369
4 C0 11 0 4 0
0

0101000
+90 0 -161 0 *
Wi

0101100
-143 0 +27 0 -122 0 -26 0 -88 0 +25 0 -160 0 +31 0 *
Fa
0  1e-07 11 0

0111000
+24 0 *
Ed
 1e-07 1 1 0
1  69 0 -4.9313414798237 -2.5761585201763
4 C0 20 0 7 0
0

0101000
+121 0 -131 0 *
Ed
 1e-07 1 1 0
1  70 0 0.363636363636363 3.63636363636364
4 C0 20 0 14 0
0

0101000
+98 0 -132 0 *
Ed
 1e-07 1 1 0
1  71 0 2.5761585201763 4.9313414798237
4 C0 20 0 4 0
0

0101000
+95 0 -87 0 *
Wi

0101100
-119 0 +22 0 -130 0 -21 0 -93 0 +20 0 -86 0 +26 0 *
Fa
0  1e-07 20 0

0111000
+19 0 *
Wi

0101100
-182 0 -41 0 *
Ed
 1e-07 1 1 0
1  72 0 2.5761585201763 4.9313414798237
4 C0 4 0 14 0
0

0101000
+153 0 -97 0 *
Ed
 1e-07 1 1 0
1  73 0 2.5761585201763 4.9313414798237
4 C0 4 0 22 0
0

0101000
+69 0 -82 0 *
Wi

0101100
-59 0 -30 0 -76 0 -159 0 -25 0 -85 0 -20 0 -94 0 -16 0 -152 0 
-80 0 -15 0 -68 0 -37 0 *
Fa
0  1e-07 4 0

0111000
-17 0 -14 0 *
Ed
 1e-07 1 1 0
1  74 0 0.363636363636364 3.63636363636364
4 C0 22 0 14 0
0

0101000
+155 0 -140 0 *
Ed
 1e-07 1 1 0
1  75 0 -4.9313414798237 -2.5761585201763
4 C0 22 0 7 0
0

0101000
+116 0 -103 0 *
Wi

0101100
-102 0 -36 0 -67 0 +15 0 -81 0 +12 0 -114 0 +11 0 *
Fa
0  1e-07 22 0

0111000
+10 0 *
Ed
 1e-07 1 1 0
1  76 0 -4.9313414798237 -2.57615852017631
4 C0 14 0 7 0
0

0101000
+129 0 -137 0 *
Wi

0101100
-136 0 -12 0 -151 0 +16 0 -96 0 +21 0 -127 0 +8 0 *
Fa
0  1e-07 14 0

0111000
+7 0 *
Wi

0101100
-52 0 -35 0 -101 0 -11 0 -115 0 -135 0 -8 0 -128 0 -22 0 -120 0 
-27 0 -144 0 -109 0 -32 0 *
Wi

0101100
-47 0 -169 0 *
Fa
0  1e-07 7 0

0111000
+5 0 +4 0 *
Sh

0101100
-179 0 -172 0 -165 0 +157 0 +149 0 +141 0 +133 0 +125 0 +117 0 +112 0 
+107 0 +99 0 +91 0 +83 0 +78 0 +73 0 +65 0 +57 0 +49 0 -45 0 
-42 0 -39 0 +33 0 +28 0 +23 0 +18 0 -13 0 +9 0 +6 0 +3 0 
*
So

0100000
+2 0 *

+1 0 