DBRep_DrawableShape

CASCADE Topology V1, (c) Matra-Datavision
Locations 0
Curve2ds 84
1 6.2831853071795862 -0.38272154531721803 -1 0 
1 0 -14.458750000000002 1 0 
1 3.1415926535897931 -1.6653345369377348e-16 0 1 
1 3.1415926535897931 -1.6653345369377348e-16 0 1 
1 6.2831853071795862 0.38272154531721803 -1 0 
1 0 1.6653345369377348e-16 0 -1 
1 6.2831853071795862 1.6653345369377348e-16 0 -1 
1 0 14.458749999999998 1 0 
1 0 -0.38272154531722058 1 0 
1 3.1415926535897931 0 0 -1 
1 3.1415926535897931 0 0 -1 
1 6.2831853071795862 0 0 1 
1 0 0 0 1 
1 0 0.38272154531721803 1 0 
1 3.1415926535897931 -5.5511151231257827e-17 0 -1 
1 3.1415926535897931 -5.5511151231257827e-17 0 -1 
1 6.2831853071795862 1.2212453270876722e-15 0 1 
1 0 1.2212453270876722e-15 0 1 
1 6.2831853071795862 4.4408920985006262e-16 0 -1 
1 0 4.4408920985006262e-16 0 -1 
7 0 0  3 25 23  6.2831853071795862 0.44571751614845456  6.2758868504764251 0.4176264707799433  6.2612227562240843 0.36295861563410248  6.2390279315978132 0.28538887337589219  6.2166371865617576 0.21213682598075945  6.1940536215370496 0.14310100534691175  6.1712805625509377 0.078187815377898179  6.1483215948205912 0.017312365220576931  6.1251805565363986 -0.039602205152424907  6.1018615424590443 -0.092624942299434354  6.0783689039853472 -0.1418173692764953  6.0547072492106251 -0.18723370904432499  6.0308814419977308 -0.22892108092950042  6.0068966002776572 -0.26691966143300916  5.9827580934846933 -0.30126281329228183  5.9584715391248553 -0.33197718279133143  5.9340427984405162 -0.35908276665344063  5.9094779712095162 -0.38259294676747019  5.8847833894820436 -0.40251450039612069  5.8599656109555287 -0.41884755742736118  5.8350314093702025 -0.43158560959313214  5.8099877717175197 -0.44071517759840767  5.7848418657709164 -0.44621660299599331  5.7680146980630109 -0.4474458578715253  5.7595865315812871 -0.44744645862197235 
 0.002729760517480253 4 0.13586287134655342 1 0.26899598217562659 1 0.40212909300469973 1 0.53526220383377299 1 0.66839531466284618 1 0.80152842549191927 1 0.93466153632099247 1 1.0677946471500657 1 1.2009277579791389 1 1.3340608688082121 1 1.4671939796372853 1 1.6003270904663582 1 1.7334602012954314 1 1.8665933121245046 1 1.9997264229535778 1 2.1328595337826508 1 2.2659926446117238 1 2.3991257554407972 1 2.5322588662698702 1 2.6653919770989436 1 2.7985250879280166 1 2.93165819875709 4
1 6.2831853071795862 -0.4474464586219693 -1 -1.4842588513496404e-15 
1 3.1415926535897931 1.1102230246251565e-16 0 1 
1 3.1415926535897931 1.1102230246251565e-16 0 1 
1 6.2831853071795862 -0.44744645862196464 -1 -1.4842588513496404e-15 
7 0 0  3 25 23  3.6651914291880918 -0.44744645862197235  3.6567632627063675 -0.44744585787152541  3.6399360949984647 -0.44621660299599358  3.6147901890518574 -0.44071517759840817  3.5897465513991773 -0.43158560959313452  3.5648123498138498 -0.41884755742736129  3.5399945712873353 -0.40251450039612297  3.5152999895598631 -0.38259294676747257  3.4907351623288609 -0.35908276665343947  3.4663064216445258 -0.33197718279133348  3.4420198672846851 -0.30126281329228538  3.4178813604917213 -0.26691966143300816  3.3938965187716477 -0.22892108092950042  3.3700707115587538 -0.18723370904432571  3.3464090567840321 -0.14181736927649394  3.3229164183103332 -0.092624942299433924  3.2995974042329799 -0.039602205152427204  3.2764563659487886 0.017312365220574947  3.2534973982184399 0.078187815377904049  3.2307243392323302 0.1431010053469077  3.208140774207624 0.21213682598075803  3.1857500291715648 0.28538887337589264  3.1635552045452964 0.36295861563410325  3.1488911102929547 0.41762647077994425  3.1415926535897944 0.44571751614845556 
 2.93165819875709 4 3.064791309586163 1 3.1979244204152364 1 3.3310575312443094 1 3.4641906420733823 1 3.5973237529024553 1 3.7304568637315287 1 3.8635899745606017 1 3.9967230853896751 1 4.1298561962187481 1 4.2629893070478211 1 4.3961224178768941 1 4.529255528705967 1 4.66238863953504 1 4.7955217503641139 1 4.9286548611931869 1 5.0617879720222598 1 5.1949210828513328 1 5.3280541936804067 1 5.4611873045094796 1 5.5943204153385526 1 5.7274535261676256 1 5.8605866369966986 4
7 0 0  3 25 23  1.5707963267948961 0.1307284094721973  1.5737054073231411 0.11953136891029269  1.579537247782691 0.0973666681179743  1.5883259929036064 0.064802293299666372  1.597155671367597 0.032915047188844387  1.6060262226743915 0.0016996727571567086  1.6149375800139334 -0.028848900227555183  1.6238896692959295 -0.058735530885350308  1.6328824092719061 -0.087964877045472137  1.6419157113659681 -0.11654139572281157  1.6509894795852007 -0.14446934590390106  1.6601036104104587 -0.17175279052276204  1.6692579926943019 -0.1983955984654136  1.6784525075590431 -0.22440144638068962  1.6876870282969889 -0.24977382036016943  1.6969614202723218 -0.27451601746895171  1.7062755408255272 -0.29863114714688099  1.7156292391780239 -0.32212213242890553  1.7250223563462612 -0.34499171117683747  1.73445472503135 -0.3672424366112198  1.7439261696114678 -0.38887667980036172  1.7534365057628261 -0.40989662419410944  1.7629855414795796 -0.43030428919655717  1.7693772290840268 -0.44350239287568261  1.7725794554205458 -0.44999999999999735 
 0.50969000059257152 4 0.56822652530103734 1 0.62676305000950316 1 0.6852995747179691 1 0.74383609942643492 1 0.80237262413490074 1 0.86090914884336656 1 0.91944567355183238 1 0.97798219826029831 1 1.036518722968764 1 1.0950552476772299 1 1.1535917723856959 1 1.2121282970941616 1 1.2706648218026273 1 1.3292013465110935 1 1.3877378712195592 1 1.4462743959280249 1 1.5048109206364908 1 1.5633474453449567 1 1.6218839700534224 1 1.6804204947618884 1 1.7389570194703541 1 1.79749354417882 4
7 0 0  3 25 23  1.3690131981692473 -0.44999999999999735  1.3722154245057661 -0.44350239287568372  1.3786071121102133 -0.43030428919655761  1.3881561478269648 -0.40989662419410605  1.3976664839783235 -0.38887667980037371  1.4071379285584393 -0.36724243661122874  1.4165702972435286 -0.34499171117683747  1.4259634144117659 -0.32212213242891807  1.4353171127642621 -0.29863114714688316  1.4446312333174676 -0.27451601746896259  1.4539056252928004 -0.24977382036017604  1.4631401460307465 -0.22440144638070278  1.4723346608954877 -0.1983955984654204  1.4814890431793311 -0.17175279052276357  1.4906031740045895 -0.144469345903913  1.4996769422238221 -0.11654139572281889  1.5087102443178853 -0.087964877045481948  1.5177029842938607 -0.058735530885351245  1.5266550735758582 -0.028848900227564762  1.5355664309154 0.0016996727571544216  1.5444369822221948 0.032915047188841549  1.5532666606861854 0.064802293299662653  1.562055405807101 0.09736666811797387  1.5678872462666513 0.11953136891029416  1.5707963267948963 0.1307284094721993 
 0 4 0.058536524708465404 1 0.11707304941693081 1 0.17560957412539621 1 0.23414609883386162 1 0.29268262354232699 1 0.35121914825079242 1 0.40975567295925786 1 0.46829219766772323 1 0.52682872237618861 1 0.58536524708465398 1 0.64390177179311947 1 0.70243829650158485 1 0.76097482121005022 1 0.81951134591851571 1 0.87804787062698109 1 0.93658439533544646 1 0.99512092004391184 1 1.0536574447523772 1 1.1121939694608427 1 1.170730494169308 1 1.2292670188777735 1 1.2878035435862389 4
1 6.2831853071795862 -0.44999999999999329 -1 -1.9257212496675139e-15 
1 0 -0.44999999999999329 1 -1.9257212496675139e-15 
7 0 0  3 25 23  2.6179938779914944 0.13072840947219344  2.6209029585197396 0.11953136891028997  2.6267347989792902 0.097366668117973232  2.6355235441002041 0.064802293299666414  2.6443532225641961 0.032915047188842216  2.6532237738709896 0.0016996727571573235  2.6621351312105324 -0.028848900227558559  2.6710872204925282 -0.058735530885355894  2.6800799604685035 -0.087964877045477105  2.6891132625625667 -0.1165413957228105  2.6981870307817992 -0.14446934590390342  2.7073011616070572 -0.17175279052275669  2.7164555438909002 -0.19839559846541119  2.7256500587556403 -0.22440144638069429  2.7348845794935874 -0.24977382036016701  2.7441589714689205 -0.27451601746895449  2.7534730920221242 -0.29863114714687272  2.7628267903746222 -0.32212213242890969  2.7722199075428593 -0.3449917111768292  2.7816522762279479 -0.36724243661122741  2.7911237208080659 -0.38887667980035517  2.8006340569594239 -0.40989662419411294  2.8101830926761768 -0.43030428919656083  2.8165747802806242 -0.44350239287568477  2.8197770066171435 -0.44999999999999735 
 0.50969000059255354 4 0.56822652530101969 1 0.62676305000948596 1 0.68529957471795211 1 0.74383609942641837 1 0.80237262413488453 1 0.86090914884335068 1 0.91944567355181694 1 0.97798219826028321 1 1.0365187229687494 1 1.0950552476772155 1 1.1535917723856817 1 1.2121282970941478 1 1.2706648218026142 1 1.3292013465110804 1 1.3877378712195467 1 1.4462743959280129 1 1.504810920636479 1 1.5633474453449452 1 1.6218839700534113 1 1.6804204947618775 1 1.7389570194703439 1 1.79749354417881 4
7 0 0  3 25 23  2.4162107493658453 -0.4499999999999989  2.4194129757023637 -0.44350239287568566  2.4258046633068111 -0.43030428919656227  2.4353536990235622 -0.40989662419411577  2.4448640351749207 -0.38887667980036994  2.454335479755037 -0.36724243661122341  2.4637678484401255 -0.34499171117685207  2.4731609656083626 -0.32212213242891569  2.4825146639608593 -0.2986311471468871  2.4918287845140652 -0.27451601746896315  2.5011031764893974 -0.24977382036017923  2.5103376972273437 -0.22440144638070339  2.5195322120920851 -0.19839559846542362  2.5286865943759285 -0.17175279052277465  2.5378007252011878 -0.14446934590391131  2.5468744934204195 -0.11654139572281792  2.5559077955144827 -0.087964877045487458  2.5649005354904597 -0.058735530885359148  2.5738526247724574 -0.028848900227562806  2.582763982111997 0.0016996727571544528  2.5916345334187931 0.032915047188839246  2.6004642118827834 0.064802293299662805  2.6092529570037 0.09736666811797702  2.6150847974632496 0.11953136891029463  2.6179938779914944 0.13072840947219624 
 0 4 0.058536524708465112 1 0.11707304941693022 1 0.17560957412539535 1 0.23414609883386045 1 0.29268262354232555 1 0.3512191482507907 1 0.4097556729592558 1 0.4682921976677209 1 0.52682872237618605 1 0.5853652470846511 1 0.64390177179311625 1 0.70243829650158141 1 0.76097482121004645 1 0.8195113459185116 1 0.87804787062697665 1 0.9365843953354418 1 0.99512092004390695 1 1.0536574447523721 1 1.1121939694608372 1 1.1707304941693022 1 1.2292670188777675 1 1.2878035435862325 4
1 6.2831853071795862 -0.44999999999999607 -1 -1.9257212496675139e-15 
1 -4.4408920985006262e-16 -0.44999999999999607 1 -1.9257212496675139e-15 
7 0 0  3 25 23  3.4634083005624432 -0.44999999999999657  3.4666105268989611 -0.44350239287568427  3.4730022145034098 -0.4303042891965605  3.4825512502201619 -0.40989662419411016  3.4920615863715203 -0.38887667980036678  3.5015330309516375 -0.36724243661121392  3.5109653996367269 -0.34499171117683952  3.5203585168049631 -0.32212213242890775  3.5297122151574603 -0.29863114714688371  3.5390263357106657 -0.27451601746894777  3.5483007276859975 -0.24977382036017221  3.5575352484239446 -0.22440144638068987  3.5667297632886847 -0.19839559846541296  3.5758841455725281 -0.17175279052275841  3.5849982763977861 -0.14446934590390384  3.5940720446170187 -0.11654139572281158  3.6031053467110818 -0.087964877045472539  3.6120980866870585 -0.0587355308853518  3.6210501759690548 -0.028848900227559482  3.6299615333085957 0.0016996727571569805  3.6388320846153914 0.032915047188842743  3.6476617630793813 0.064802293299664956  3.6564505082002978 0.097366668117972219  3.6622823486598475 0.11953136891029259  3.6651914291880923 0.1307284094721993 
 0 4 0.058536524708465605 1 0.11707304941693121 1 0.17560957412539682 1 0.23414609883386242 1 0.29268262354232805 1 0.35121914825079364 1 0.40975567295925924 1 0.46829219766772484 1 0.52682872237619049 1 0.58536524708465609 1 0.64390177179312169 1 0.70243829650158729 1 0.76097482121005289 1 0.81951134591851849 1 0.87804787062698408 1 0.93658439533544968 1 0.99512092004391528 1 1.053657444752381 1 1.1121939694608465 1 1.1707304941693122 1 1.2292670188777777 1 1.2878035435862434 4
1 6.2831853071795862 -0.44999999999999729 -1 -1.92572124966751e-15 
1 0 -0.45000000000000273 1 0 
7 0 0  3 25 23  3.6651914291880923 0.13072840947219369  3.6681005097163371 0.119531368910287  3.6739323501758867 0.097366668117966571  3.6827210952968032 0.064802293299659253  3.6915507737607922 0.03291504718884683  3.700421325067587 0.0016996727571567611  3.7093326824071302 -0.028848900227556422  3.7182847716891243 -0.058735530885353236  3.7272775116651018 -0.087964877045469708  3.7363108137591636 -0.11654139572280769  3.7453845819783953 -0.14446934590390248  3.7544987128036538 -0.17175279052275552  3.7636530950874958 -0.19839559846540747  3.7728476099522372 -0.22440144638069176  3.7820821306901831 -0.24977382036015744  3.7913565226655148 -0.2745160174689561  3.8006706432187212 -0.29863114714686784  3.8100243415712169 -0.32212213242890297  3.8194174587394563 -0.34499171117682953  3.8288498274245444 -0.36724243661122347  3.8383212720046624 -0.38887667980036056  3.8478316081560218 -0.40989662419411049  3.8573806438727751 -0.430304289196562  3.8637723314772234 -0.44350239287568904  3.8669745578137427 -0.45000000000000351 
 0.50969000059254321 4 0.56822652530101037 1 0.62676305000947741 1 0.68529957471794456 1 0.74383609942641171 1 0.80237262413487886 1 0.86090914884334602 1 0.91944567355181306 1 0.97798219826028021 1 1.0365187229687474 1 1.0950552476772146 1 1.1535917723856817 1 1.2121282970941487 1 1.2706648218026158 1 1.3292013465110828 1 1.3877378712195501 1 1.4462743959280173 1 1.5048109206364844 1 1.5633474453449514 1 1.6218839700534184 1 1.6804204947618859 1 1.738957019470353 1 1.79749354417882 4
7 0 0  3 25 23  4.7123889803846897 0.13072840947220007  4.7152980609129349 0.11953136891028888  4.7211299013724846 0.097366668117967792  4.7299186464934007 0.064802293299670438  4.7387483249573918 0.032915047188842229  4.7476188762641867 0.0016996727571532378  4.7565302336037281 -0.028848900227562122  4.7654823228857248 -0.058735530885351384  4.7744750628617014 -0.087964877045479506  4.7835083649557646 -0.11654139572281312  4.7925821331749967 -0.14446934590391391  4.8016962640002552 -0.17175279052276571  4.8108506462840985 -0.19839559846541685  4.8200451611488404 -0.22440144638069953  4.8292796818867858 -0.24977382036017259  4.8385540738621193 -0.27451601746895837  4.8478681944153239 -0.29863114714688793  4.8572218927678223 -0.32212213242891863  4.8666150099360586 -0.34499171117683503  4.8760473786211467 -0.36724243661122763  4.8855188232012647 -0.38887667980036517  4.8950291593526218 -0.40989662419411077  4.9045781950693756 -0.43030428919655667  4.9109698826738217 -0.44350239287568383  4.914172109010341 -0.4500000000000004 
 0.50969000059257419 4 0.56822652530104034 1 0.62676305000950649 1 0.68529957471797265 1 0.74383609942643891 1 0.80237262413490507 1 0.86090914884337122 1 0.91944567355183748 1 0.97798219826030364 1 1.0365187229687698 1 1.0950552476772359 1 1.1535917723857021 1 1.2121282970941682 1 1.2706648218026344 1 1.3292013465111006 1 1.3877378712195667 1 1.4462743959280329 1 1.504810920636499 1 1.5633474453449654 1 1.6218839700534315 1 1.6804204947618977 1 1.7389570194703639 1 1.79749354417883 4
7 0 0  3 25 23  4.5106058517590384 -0.45000000000000118  4.5138080780955567 -0.44350239287568821  4.5201997657000028 -0.43030428919656249  4.5297488014167575 -0.40989662419410977  4.5392591375681164 -0.38887667980036744  4.5487305821482318 -0.3672424366112238  4.5581629508333217 -0.34499171117683747  4.5675560680015597 -0.3221221324289083  4.5769097663540554 -0.29863114714688227  4.5862238869072609 -0.27451601746896059  4.5954982788825944 -0.24977382036017132  4.6047327996205398 -0.22440144638069004  4.6139273144852826 -0.19839559846541782  4.6230816967691233 -0.17175279052275888  4.6321958275943862 -0.14446934590390662  4.6412695958136139 -0.11654139572280944  4.6503028979076788 -0.087964877045472373  4.6592956378836536 -0.058735530885349801  4.6682477271656522 -0.028848900227561623  4.6771590845051918 0.001699672757163368  4.6860296358119902 0.032915047188845609  4.6948593142759787 0.064802293299671396  4.7036480593968948 0.097366668117978741  4.7094798998564453 0.11953136891029649  4.7123889803846897 0.1307284094722006 
 0 4 0.058536524708466327 1 0.11707304941693265 1 0.17560957412539899 1 0.23414609883386531 1 0.29268262354233165 1 0.35121914825079797 1 0.40975567295926429 1 0.46829219766773061 1 0.52682872237619693 1 0.58536524708466331 1 0.64390177179312957 1 0.70243829650159595 1 0.76097482121006221 1 0.81951134591852859 1 0.87804787062699485 1 0.93658439533546123 1 0.9951209200439276 1 1.0536574447523939 1 1.1121939694608602 1 1.1707304941693266 1 1.2292670188777928 1 1.2878035435862591 4
1 6.2831853071795862 -0.45000000000000273 -1 0 
1 0 -0.45000000000000273 1 0 
7 0 0  3 25 23  5.5578034029556349 -0.44999999999999735  5.561005629292155 -0.44350239287568621  5.5673973168966029 -0.43030428919656177  5.5769463526133514 -0.40989662419410772  5.5864566887647129 -0.38887667980036272  5.5959281333448283 -0.36724243661122674  5.6053605020299173 -0.34499171117683658  5.6147536191981553 -0.32212213242891902  5.624107317550652 -0.2986311471468816  5.6334214381038574 -0.27451601746895282  5.6426958300791901 -0.24977382036017098  5.6519303508171372 -0.22440144638069873  5.6611248656818765 -0.19839559846540783  5.6702792479657207 -0.1717527905227734  5.6793933787909818 -0.14446934590390434  5.6884671470102113 -0.11654139572281927  5.6975004491042736 -0.087964877045470569  5.7064931890802537 -0.058735530885361237  5.7154452783622487 -0.028848900227557463  5.7243566357017901 0.0016996727571597925  5.7332271870085867 0.032915047188841681  5.7420568654725743 0.064802293299666164  5.750845610593494 0.097366668117968735  5.7566774510530418 0.11953136891029054  5.7595865315812871 0.13072840947220007 
 0 4 0.058536524708466174 1 0.11707304941693235 1 0.17560957412539852 1 0.2341460988338647 1 0.29268262354233088 1 0.35121914825079703 1 0.40975567295926324 1 0.46829219766772939 1 0.5268287223761956 1 0.58536524708466176 1 0.64390177179312791 1 0.70243829650159406 1 0.76097482121006021 1 0.81951134591852648 1 0.87804787062699263 1 0.93658439533545879 1 0.99512092004392494 1 1.0536574447523912 1 1.1121939694608574 1 1.1707304941693235 1 1.2292670188777897 1 1.2878035435862558 4
1 6.2831853071795862 -0.45000000000000273 -1 0 
1 0 -0.45000000000000412 1 1.9257212496674946e-15 
7 0 0  3 25 23  5.7595865315812871 0.13072840947220107  5.7624956121095314 0.11953136891029435  5.768327452569082 0.09736666811797412  5.7771161976899972 0.064802293299667441  5.7859458761539893 0.032915047188841827  5.7948164274607841 0.0016996727571579489  5.8037277848003246 -0.028848900227560766  5.812679874082324 -0.058735530885350759  5.8216726140582971 -0.087964877045474246  5.8307059161523602 -0.11654139572281481  5.8397796843715915 -0.14446934590390775  5.8488938151968517 -0.17175279052275966  5.8580481974806942 -0.19839559846541363  5.8672427123454352 -0.22440144638069504  5.8764772330833814 -0.24977382036017073  5.8857516250587159 -0.27451601746895771  5.8950657456119169 -0.29863114714687478  5.9044194439644189 -0.32212213242891474  5.9138125611326533 -0.34499171117683453  5.9232449298177441 -0.36724243661122402  5.9327163743978595 -0.38887667980036006  5.942226710549221 -0.40989662419411266  5.9517757462659722 -0.43030428919656294  5.95816743387042 -0.44350239287568843  5.9613696602069393 -0.45000000000000195 
 0.50969000059254765 4 0.56822652530101458 1 0.62676305000948151 1 0.68529957471794845 1 0.74383609942641538 1 0.80237262413488231 1 0.86090914884334913 1 0.91944567355181617 1 0.97798219826028299 1 1.0365187229687498 1 1.0950552476772168 1 1.1535917723856839 1 1.2121282970941507 1 1.2706648218026175 1 1.3292013465110846 1 1.3877378712195516 1 1.4462743959280184 1 1.5048109206364852 1 1.5633474453449523 1 1.6218839700534193 1 1.6804204947618859 1 1.738957019470353 1 1.79749354417882 4
7 0 0  3 25 23  0.32181564697264614 -0.45000000000000273  0.32501787330916515 -0.44350239287569015  0.33140956091361362 -0.43030428919656549  0.34095859663036521 -0.40989662419411454  0.35046893278172525 -0.38887667980036505  0.35994037736184176 -0.36724243661122469  0.36937274604693149 -0.34499171117683652  0.37876586321516881 -0.32212213242891047  0.38811956156766586 -0.29863114714687433  0.39743368212087116 -0.27451601746895471  0.40670807409620396 -0.2497738203601681  0.41594259483415064 -0.2244014463806919  0.42513710969889101 -0.19839559846541815  0.43429149198273487 -0.17175279052276032  0.44340562280799262 -0.14446934590390983  0.45247939102722545 -0.11654139572281041  0.46151269312128779 -0.087964877045479131  0.47050543309726423 -0.058735530885355866  0.47945752237926031 -0.028848900227555107  0.4883688797188025 0.0016996727571556853  0.49723943102559731 0.032915047188840571  0.50606910948958794 0.064802293299665248  0.51485785461050337 0.097366668117975091  0.52068969507005336 0.11953136891029356  0.52359877559829859 0.13072840947219752 
 0 4 0.058536524708466979 1 0.11707304941693396 1 0.17560957412540093 1 0.23414609883386792 1 0.29268262354233487 1 0.35121914825080186 1 0.40975567295926885 1 0.46829219766773583 1 0.52682872237620282 1 0.58536524708466975 1 0.64390177179313679 1 0.70243829650160372 1 0.76097482121007076 1 0.81951134591853769 1 0.87804787062700473 1 0.93658439533547166 1 0.99512092004393859 1 1.0536574447524056 1 1.1121939694608727 1 1.1707304941693395 1 1.2292670188778065 1 1.2878035435862736 4
1 6.2831853071795862 -0.45000000000000273 -1 0 
1 0 -0.45000000000000273 1 0 
7 0 0  3 25 23  0.52359877559829859 0.13072840947219574  0.52650785612654372 0.11953136891029474  0.53233969658609359 0.097366668117976202  0.54112844170700936 0.064802293299658295  0.54995812017099988 0.032915047188845664  0.55882867147779491 0.0016996727571577783  0.56774002881733709 -0.028848900227568558  0.57669211809933363 -0.058735530885356095  0.58568485807531034 -0.087964877045479936  0.59471816016937307 -0.11654139572282221  0.60379192838860574 -0.14446934590390759  0.61290605921386421 -0.17175279052277109  0.62206044149770767 -0.19839559846541724  0.63125495636244877 -0.22440144638070289  0.64048947710039517 -0.24977382036017398  0.64976386907572792 -0.27451601746896481  0.65907798962893305 -0.29863114714689137  0.66843168798143038 -0.32212213242891813  0.67782480514966692 -0.34499171117684407  0.68725717383475604 -0.36724243661122824  0.69672861841487244 -0.38887667980036866  0.70623895456623098 -0.40989662419411665  0.71578799028298201 -0.43030428919655961  0.72217967788742954 -0.44350239287568394  0.7253819042239481 -0.4499999999999989 
 0.5096900005925874 4 0.56822652530105255 1 0.6267630500095176 1 0.68529957471798275 1 0.74383609942644791 1 0.80237262413491306 1 0.86090914884337821 1 0.91944567355184326 1 0.97798219826030841 1 1.0365187229687736 1 1.0950552476772386 1 1.1535917723857039 1 1.2121282970941689 1 1.270664821802634 1 1.3292013465110992 1 1.3877378712195643 1 1.4462743959280293 1 1.5048109206364946 1 1.5633474453449598 1 1.6218839700534247 1 1.6804204947618899 1 1.7389570194703552 1 1.79749354417882 4
7 0 0  3 25 23  0.52359877559829859 0.13072840947219677  0.52650785612654372 0.11953136891028938  0.53233969658609348 0.097366668117968611  0.5411284417070088 0.064802293299662223  0.54995812017099932 0.032915047188839253  0.55882867147779447 0.0016996727571534918  0.56774002881733643 -0.028848900227560301  0.57669211809933252 -0.05873553088535894  0.58568485807530901 -0.087964877045476911  0.59471816016937207 -0.11654139572282061  0.60379192838860396 -0.14446934590390803  0.61290605921386265 -0.17175279052276615  0.62206044149770578 -0.19839559846541666  0.63125495636244711 -0.22440144638070125  0.64048947710039317 -0.24977382036017207  0.64976386907572636 -0.27451601746895832  0.65907798962893183 -0.29863114714688882  0.66843168798142827 -0.32212213242891535  0.67782480514966614 -0.34499171117684285  0.68725717383475537 -0.36724243661122946  0.69672861841487188 -0.38887667980036428  0.70623895456623109 -0.40989662419411976  0.71578799028298279 -0.43030428919656122  0.72217967788743098 -0.44350239287568682  0.72538190422394966 -0.45000000000000351 
 0.5096900005925824 4 0.56822652530104822 1 0.62676305000951404 1 0.68529957471797975 1 0.74383609942644557 1 0.80237262413491139 1 0.86090914884337721 1 0.91944567355184303 1 0.97798219826030874 1 1.0365187229687747 1 1.0950552476772404 1 1.1535917723857061 1 1.212128297094172 1 1.270664821802638 1 1.3292013465111037 1 1.3877378712195694 1 1.4462743959280351 1 1.504810920636501 1 1.5633474453449667 1 1.6218839700534327 1 1.6804204947618984 1 1.7389570194703643 1 1.79749354417883 4
7 0 0  3 25 23  0.3218156469726467 -0.45000000000000273  0.32501787330916571 -0.44350239287569249  0.33140956091361401 -0.43030428919656644  0.34095859663036604 -0.40989662419410622  0.35046893278172575 -0.38887667980036655  0.35994037736184237 -0.36724243661122685  0.3693727460469321 -0.34499171117683197  0.37876586321516931 -0.32212213242891635  0.3881195615676663 -0.29863114714687655  0.39743368212087138 -0.27451601746895554  0.40670807409620424 -0.24977382036016699  0.41594259483415069 -0.2244014463806969  0.42513710969889162 -0.19839559846540997  0.43429149198273487 -0.17175279052276191  0.44340562280799301 -0.14446934590390664  0.4524793910272254 -0.11654139572281218  0.46151269312128801 -0.087964877045470485  0.47050543309726445 -0.05873553088535332  0.47945752237926081 -0.028848900227558785  0.48836887971880261 0.0016996727571569757  0.49723943102559781 0.032915047188843846  0.50606910948958816 0.064802293299666386  0.51485785461050371 0.097366668117976257  0.5206896950700538 0.11953136891029632  0.52359877559829904 0.13072840947220185 
 0 4 0.058536524708467257 1 0.11707304941693451 1 0.17560957412540176 1 0.23414609883386903 1 0.29268262354233626 1 0.35121914825080353 1 0.40975567295927079 1 0.46829219766773805 1 0.52682872237620526 1 0.58536524708467252 1 0.64390177179313979 1 0.70243829650160705 1 0.76097482121007431 1 0.81951134591854158 1 0.87804787062700884 1 0.93658439533547611 1 0.99512092004394337 1 1.0536574447524105 1 1.1121939694608778 1 1.170730494169345 1 1.2292670188778123 1 1.2878035435862796 4
7 0 0  3 25 23  1.3690131981692453 -0.45000000000000118  1.3722154245057638 -0.44350239287568288  1.3786071121102121 -0.43030428919655583  1.3881561478269639 -0.40989662419411499  1.3976664839783226 -0.38887667980036877  1.4071379285584389 -0.36724243661122552  1.4165702972435288 -0.34499171117684474  1.4259634144117661 -0.32212213242891352  1.4353171127642625 -0.29863114714688477  1.4446312333174682 -0.2745160174689607  1.4539056252928013 -0.24977382036016846  1.4631401460307476 -0.22440144638070431  1.472334660895489 -0.1983955984654158  1.4814890431793317 -0.17175279052276662  1.4906031740045915 -0.14446934590390809  1.499676942223823 -0.11654139572281555  1.5087102443178864 -0.087964877045475606  1.5177029842938619 -0.058735530885359953  1.5266550735758593 -0.028848900227559031  1.5355664309154011 0.0016996727571585474  1.5444369822221964 0.032915047188842417  1.5532666606861858 0.064802293299664485  1.5620554058071023 0.09736666811796979  1.5678872462666518 0.11953136891028836  1.570796326794897 0.13072840947219397 
 0 4 0.058536524708465661 1 0.11707304941693132 1 0.17560957412539699 1 0.23414609883386264 1 0.29268262354232832 1 0.35121914825079398 1 0.40975567295925963 1 0.46829219766772529 1 0.52682872237619094 1 0.58536524708465665 1 0.64390177179312225 1 0.70243829650158796 1 0.76097482121005355 1 0.81951134591851926 1 0.87804787062698486 1 0.93658439533545057 1 0.99512092004391628 1 1.0536574447523819 1 1.1121939694608476 1 1.1707304941693133 1 1.2292670188777788 1 1.2878035435862445 4
7 0 0  3 25 23  1.5707963267948961 0.13072840947219908  1.5737054073231413 0.11953136891029417  1.5795372477826919 0.097366668117975147  1.5883259929036058 0.064802293299667246  1.5971556713675974 0.032915047188844797  1.6060262226743922 0.0016996727571646608  1.6149375800139336 -0.028848900227562795  1.6238896692959301 -0.058735530885352299  1.6328824092719072 -0.087964877045473289  1.6419157113659695 -0.11654139572281429  1.6509894795852018 -0.14446934590390892  1.6601036104104605 -0.17175279052276124  1.6692579926943034 -0.19839559846541208  1.6784525075590451 -0.22440144638070136  1.6876870282969916 -0.24977382036016987  1.6969614202723249 -0.27451601746896126  1.7062755408255301 -0.29863114714687777  1.7156292391780268 -0.32212213242891635  1.725022356346265 -0.34499171117683552  1.7344547250313538 -0.36724243661122913  1.7439261696114701 -0.38887667980036644  1.7534365057628298 -0.4098966241941096  1.7629855414795814 -0.43030428919656244  1.7693772290840295 -0.44350239287568843  1.7725794554205481 -0.45000000000000118 
 0.5096900005925884 4 0.56822652530105389 1 0.62676305000951948 1 0.68529957471798497 1 0.74383609942645057 1 0.80237262413491606 1 0.86090914884338154 1 0.91944567355184703 1 0.97798219826031263 1 1.0365187229687782 1 1.0950552476772437 1 1.1535917723857092 1 1.2121282970941747 1 1.2706648218026402 1 1.3292013465111059 1 1.3877378712195714 1 1.4462743959280369 1 1.5048109206365023 1 1.5633474453449678 1 1.6218839700534335 1 1.680420494761899 1 1.7389570194703645 1 1.79749354417883 4
7 0 0  3 25 23  2.617993877991494 0.13072840947219985  2.6209029585197388 0.11953136891029384  2.6267347989792889 0.09736666811797412  2.6355235441002045 0.064802293299666858  2.6443532225641957 0.032915047188844235  2.6532237738709896 0.0016996727571594427  2.6621351312105315 -0.02884890022755392  2.6710872204925273 -0.05873553088535062  2.6800799604685039 -0.087964877045472095  2.6891132625625662 -0.11654139572280976  2.6981870307817988 -0.14446934590390062  2.7073011616070568 -0.17175279052275952  2.7164555438909002 -0.19839559846540872  2.7256500587556394 -0.22440144638069198  2.734884579493587 -0.24977382036016468  2.7441589714689187 -0.2745160174689466  2.7534730920221242 -0.29863114714687578  2.7628267903746213 -0.32212213242890653  2.7722199075428584 -0.34499171117683064  2.7816522762279483 -0.36724243661121564  2.7911237208080637 -0.3888766798003534  2.8006340569594239 -0.40989662419410555  2.8101830926761755 -0.43030428919655522  2.8165747802806242 -0.44350239287568227  2.819777006617143 -0.44999999999999735 
 0.50969000059254543 4 0.56822652530101203 1 0.62676305000947863 1 0.68529957471794511 1 0.74383609942641171 1 0.80237262413487831 1 0.86090914884334491 1 0.9194456735518115 1 0.9779821982602781 1 1.0365187229687445 1 1.0950552476772111 1 1.1535917723856777 1 1.2121282970941443 1 1.2706648218026109 1 1.3292013465110775 1 1.3877378712195441 1 1.4462743959280107 1 1.5048109206364773 1 1.5633474453449439 1 1.6218839700534105 1 1.680420494761877 1 1.7389570194703436 1 1.79749354417881 4
7 0 0  3 25 23  2.4162107493658436 -0.45000000000000351  2.4194129757023624 -0.44350239287569188  2.4258046633068098 -0.43030428919656771  2.4353536990235618 -0.40989662419411482  2.4448640351749198 -0.3888766798003771  2.454335479755037 -0.36724243661122624  2.463767848440126 -0.34499171117684152  2.4731609656083635 -0.32212213242891824  2.4825146639608606 -0.29863114714688915  2.4918287845140648 -0.27451601746895865  2.5011031764893992 -0.24977382036017498  2.5103376972273446 -0.22440144638070175  2.519532212092086 -0.19839559846541782  2.5286865943759298 -0.17175279052276565  2.5378007252011878 -0.14446934590391003  2.5468744934204208 -0.11654139572281519  2.5559077955144835 -0.087964877045476397  2.5649005354904593 -0.058735530885358683  2.5738526247724569 -0.028848900227558667  2.5827639821119974 0.0016996727571605165  2.5916345334187945 0.032915047188843194  2.6004642118827834 0.064802293299662819  2.6092529570036995 0.097366668117972871  2.6150847974632487 0.11953136891029234  2.6179938779914944 0.13072840947219705 
 0 4 0.058536524708465126 1 0.11707304941693025 1 0.17560957412539538 1 0.23414609883386051 1 0.29268262354232566 1 0.35121914825079076 1 0.40975567295925586 1 0.46829219766772101 1 0.52682872237618616 1 0.58536524708465132 1 0.64390177179311636 1 0.70243829650158152 1 0.76097482121004667 1 0.81951134591851171 1 0.87804787062697687 1 0.93658439533544202 1 0.99512092004390718 1 1.0536574447523723 1 1.1121939694608374 1 1.1707304941693026 1 1.2292670188777677 1 1.2878035435862327 4
7 0 0  3 25 23  3.4634083005624428 -0.44999999999999812  3.4666105268989611 -0.44350239287568505  3.4730022145034103 -0.43030428919655928  3.4825512502201597 -0.40989662419410755  3.4920615863715212 -0.38887667980036567  3.5015330309516353 -0.36724243661122563  3.5109653996367265 -0.34499171117683469  3.5203585168049627 -0.32212213242891541  3.5297122151574607 -0.29863114714687916  3.5390263357106644 -0.27451601746895854  3.5483007276859979 -0.24977382036017015  3.5575352484239438 -0.22440144638069318  3.5667297632886847 -0.19839559846541691  3.5758841455725281 -0.17175279052275921  3.5849982763977875 -0.14446934590390612  3.5940720446170191 -0.11654139572281241  3.6031053467110818 -0.087964877045476231  3.6120980866870585 -0.058735530885352896  3.6210501759690548 -0.028848900227556078  3.6299615333085957 0.0016996727571551315  3.6388320846153914 0.03291504718884674  3.6476617630793813 0.064802293299661431  3.6564505082002974 0.097366668117971636  3.6622823486598466 0.1195313689102932  3.6651914291880918 0.13072840947220007 
 0 4 0.058536524708465397 1 0.11707304941693079 1 0.17560957412539618 1 0.23414609883386159 1 0.29268262354232699 1 0.35121914825079237 1 0.4097556729592578 1 0.46829219766772318 1 0.52682872237618861 1 0.58536524708465398 1 0.64390177179311936 1 0.70243829650158474 1 0.76097482121005011 1 0.8195113459185156 1 0.87804787062698098 1 0.93658439533544635 1 0.99512092004391173 1 1.0536574447523772 1 1.1121939694608425 1 1.170730494169308 1 1.2292670188777732 1 1.2878035435862387 4
7 0 0  3 25 23  3.6651914291880918 0.13072840947220007  3.6681005097163375 0.11953136891029204  3.6739323501758876 0.097366668117971622  3.6827210952968032 0.064802293299669023  3.6915507737607931 0.03291504718883799  3.7004213250675893 0.0016996727571626084  3.7093326824071289 -0.028848900227560429  3.718284771689127 -0.058735530885352223  3.7272775116651022 -0.087964877045477632  3.7363108137591663 -0.11654139572281072  3.7453845819783975 -0.14446934590390548  3.7544987128036555 -0.17175279052276335  3.7636530950874985 -0.19839559846541172  3.7728476099522394 -0.22440144638069001  3.7820821306901866 -0.24977382036016668  3.7913565226655193 -0.27451601746895399  3.8006706432187243 -0.29863114714687539  3.8100243415712205 -0.32212213242891469  3.8194174587394589 -0.34499171117682675  3.8288498274245479 -0.36724243661122413  3.8383212720046647 -0.38887667980036289  3.847831608156024 -0.40989662419410494  3.8573806438727769 -0.430304289196562  3.8637723314772252 -0.44350239287568771  3.8669745578137436 -0.4499999999999989 
 0.50969000059254066 4 0.56822652530100792 1 0.62676305000947519 1 0.68529957471794245 1 0.7438360994264096 1 0.80237262413487687 1 0.86090914884334413 1 0.91944567355181128 1 0.97798219826027855 1 1.0365187229687458 1 1.0950552476772131 1 1.1535917723856803 1 1.2121282970941476 1 1.2706648218026149 1 1.3292013465110819 1 1.3877378712195494 1 1.4462743959280164 1 1.5048109206364839 1 1.563347445344951 1 1.6218839700534182 1 1.6804204947618855 1 1.7389570194703527 1 1.79749354417882 4
7 0 0  3 25 23  4.5106058517590402 -0.45000000000000506  4.5138080780955576 -0.44350239287569432  4.5201997657000064 -0.43030428919656971  4.5297488014167593 -0.40989662419411366  4.5392591375681164 -0.38887667980037255  4.5487305821482344 -0.36724243661122896  4.5581629508333217 -0.34499171117684579  4.5675560680015597 -0.32212213242891852  4.5769097663540572 -0.29863114714688177  4.5862238869072618 -0.27451601746896004  4.5954982788825944 -0.24977382036017567  4.6047327996205407 -0.22440144638070073  4.6139273144852817 -0.19839559846541796  4.6230816967691251 -0.17175279052277062  4.6321958275943835 -0.14446934590390842  4.6412695958136165 -0.11654139572281962  4.6503028979076788 -0.087964877045478729  4.6592956378836554 -0.058735530885357219  4.6682477271656522 -0.028848900227563871  4.6771590845051945 0.0016996727571582614  4.6860296358119884 0.032915047188841917  4.6948593142759787 0.06480229329966361  4.7036480593968975 0.097366668117970886  4.7094798998564444 0.11953136891029123  4.7123889803846897 0.13072840947219777 
 0 4 0.058536524708466153 1 0.11707304941693231 1 0.17560957412539846 1 0.23414609883386461 1 0.29268262354233077 1 0.35121914825079692 1 0.40975567295926307 1 0.46829219766772923 1 0.52682872237619538 1 0.58536524708466153 1 0.64390177179312769 1 0.70243829650159384 1 0.76097482121005999 1 0.81951134591852615 1 0.8780478706269923 1 0.93658439533545845 1 0.99512092004392461 1 1.0536574447523908 1 1.1121939694608569 1 1.1707304941693231 1 1.2292670188777892 1 1.2878035435862554 4
7 0 0  3 25 23  4.7123889803846906 0.13072840947219855  4.7152980609129358 0.11953136891029112  4.7211299013724846 0.097366668117971455  4.7299186464934033 0.064802293299667871  4.738748324957391 0.032915047188836449  4.7476188762641884 0.0016996727571527441  4.7565302336037298 -0.028848900227564041  4.7654823228857275 -0.058735530885372672  4.7744750628617059 -0.087964877045488846  4.7835083649557708 -0.11654139572283907  4.7925821331750011 -0.14446934590392047  4.8016962640002614 -0.17175279052279177  4.8108506462841047 -0.19839559846543542  4.8200451611488466 -0.22440144638072182  4.8292796818867929 -0.24977382036019272  4.8385540738621273 -0.27451601746898724  4.847868194415331 -0.29863114714690236  4.8572218927678286 -0.32212213242893767  4.8666150099360665 -0.34499171117685645  4.8760473786211529 -0.36724243661124972  4.8855188232012692 -0.38887667980038021  4.8950291593526272 -0.40989662419412182  4.9045781950693765 -0.43030428919657537  4.9109698826738235 -0.44350239287569609  4.914172109010341 -0.45000000000000351 
 0.50969000059258873 4 0.56822652530105289 1 0.62676305000951704 1 0.6852995747179812 1 0.74383609942644535 1 0.80237262413490951 1 0.86090914884337366 1 0.91944567355183782 1 0.97798219826030197 1 1.0365187229687662 1 1.0950552476772302 1 1.1535917723856945 1 1.2121282970941585 1 1.2706648218026229 1 1.3292013465110868 1 1.3877378712195512 1 1.4462743959280151 1 1.5048109206364795 1 1.5633474453449434 1 1.6218839700534078 1 1.6804204947618717 1 1.7389570194703361 1 1.7974935441788 4
7 0 0  3 25 23  5.759586531581288 0.13072840947219752  5.7624956121095323 0.11953136891029206  5.7683274525690855 0.097366668117972788  5.7771161976899963 0.064802293299664887  5.785945876153991 0.032915047188844145  5.7948164274607805 0.0016996727571571529  5.803727784800329 -0.028848900227558406  5.8126798740823205 -0.058735530885355026  5.8216726140583006 -0.087964877045474482  5.8307059161523602 -0.11654139572281899  5.839779684371595 -0.14446934590390745  5.8488938151968508 -0.17175279052276554  5.8580481974806942 -0.19839559846541038  5.867242712345436 -0.2244014463806964  5.8764772330833814 -0.2497738203601684  5.8857516250587141 -0.27451601746895971  5.8950657456119195 -0.29863114714687961  5.9044194439644189 -0.32212213242891496  5.9138125611326551 -0.34499171117683475  5.9232449298177441 -0.36724243661122291  5.9327163743978604 -0.38887667980036894  5.9422267105492201 -0.40989662419410977  5.9517757462659748 -0.43030428919656533  5.9581674338704209 -0.44350239287569121  5.9613696602069401 -0.45000000000000351 
 0.50969000059254632 4 0.56822652530101325 1 0.62676305000948029 1 0.68529957471794722 1 0.74383609942641427 1 0.8023726241348812 1 0.86090914884334824 1 0.91944567355181517 1 0.9779821982602821 1 1.0365187229687491 1 1.095055247677216 1 1.153591772385683 1 1.21212829709415 1 1.2706648218026171 1 1.3292013465110841 1 1.3877378712195512 1 1.446274395928018 1 1.5048109206364848 1 1.5633474453449518 1 1.6218839700534189 1 1.6804204947618859 1 1.738957019470353 1 1.79749354417882 4
7 0 0  3 25 23  5.5578034029556385 -0.4499999999999989  5.561005629292155 -0.4435023928756906  5.5673973168966029 -0.43030428919657149  5.5769463526133505 -0.40989662419412459  5.5864566887647067 -0.3888766798003836  5.595928133344823 -0.36724243661124728  5.6053605020299084 -0.34499171117686267  5.6147536191981473 -0.322122132428943  5.6241073175506431 -0.29863114714691141  5.6334214381038485 -0.2745160174689813  5.6426958300791812 -0.24977382036019771  5.6519303508171292 -0.22440144638072651  5.6611248656818693 -0.19839559846544047  5.6702792479657154 -0.17175279052279172  5.6793933787909738 -0.14446934590392907  5.6884671470102077 -0.11654139572283415  5.6975004491042709 -0.08796487704549398  5.7064931890802475 -0.058735530885366295  5.715445278362246 -0.028848900227572399  5.7243566357017883 0.0016996727571538576  5.7332271870085849 0.032915047188835748  5.7420568654725743 0.06480229329966504  5.7508456105934922 0.097366668117968388  5.7566774510530427 0.1195313689102898  5.7595865315812871 0.13072840947219877 
 0 4 0.058536524708463294 1 0.11707304941692659 1 0.17560957412538988 1 0.23414609883385318 1 0.29268262354231644 1 0.35121914825077977 1 0.40975567295924309 1 0.46829219766770636 1 0.52682872237616962 1 0.58536524708463289 1 0.64390177179309627 1 0.70243829650155953 1 0.7609748212100228 1 0.81951134591848618 1 0.87804787062694944 1 0.93658439533541271 1 0.99512092004387598 1 1.0536574447523392 1 1.1121939694608025 1 1.1707304941692658 1 1.2292670188777293 1 1.2878035435861925 4
7 0 0  3 25 23  4.1887902047863887 0.4457175161484489  4.1814917480832294 0.41762647077994025  4.1668276538308895 0.36295861563410214  4.1446328292046175 0.28538887337589069  4.1222420841685592 0.21213682598076247  4.0996585191438539 0.14310100534690251  4.0768854601577438 0.078187815377910766  4.0539264924273954 0.01731236522057825  4.0307854541432047 -0.039602205152422659  4.0074664400658504 -0.09262494229943069  3.9839738015921515 -0.14181736927649244  3.9603121468174298 -0.1872337090443216  3.9364863396045364 -0.22892108092949842  3.9125014978844628 -0.26691966143301304  3.8883629910914994 -0.30126281329227517  3.8640764367316569 -0.33197718279133437  3.8396476960473231 -0.35908276665343675  3.815082868816321 -0.38259294676746941  3.7903882870888479 -0.40251450039612002  3.7655705085623352 -0.41884755742736068  3.7406363069770054 -0.43158560959313508  3.7155926693243253 -0.44071517759840834  3.6904467633777198 -0.44621660299599364  3.673619595669817 -0.44744585787152535  3.6651914291880918 -0.44744645862197235 
 0.0027297605174885836 4 0.13586287134656136 1 0.26899598217563414 1 0.40212909300470695 1 0.53526220383377976 1 0.66839531466285251 1 0.80152842549192538 1 0.93466153632099813 1 1.0677946471500708 1 1.2009277579791435 1 1.3340608688082163 1 1.467193979637289 1 1.600327090466362 1 1.7334602012954348 1 1.8665933121245075 1 1.9997264229535803 1 2.132859533782653 1 2.265992644611726 1 2.3991257554407985 1 2.5322588662698715 1 2.665391977098944 1 2.798525087928017 1 2.93165819875709 4
7 0 0  3 25 23  2.6179938779914935 -0.44744645862197086  2.6095657115097688 -0.44744585787151714  2.5927385438018664 -0.44621660299598492  2.5675926378552578 -0.44071517759841616  2.542549000202579 -0.43158560959312003  2.5176147986172492 -0.41884755742735619  2.492797020090737 -0.40251450039611952  2.4681024383632644 -0.38259294676746408  2.4435376111322622 -0.35908276665342953  2.4191088704479276 -0.33197718279132982  2.3948223160880873 -0.30126281329227239  2.3706838092951243 -0.26691966143300183  2.3466989675750516 -0.22892108092949695  2.3228731603621569 -0.1872337090443168  2.299211505587436 -0.14181736927649441  2.2757188671137372 -0.092624942299424556  2.2523998530363851 -0.039602205152427461  2.2292588147521926 0.017312365220579828  2.2062998470218451 0.078187815377898609  2.1835267880357336 0.1431010053469163  2.1609432230110275 0.21213682598076194  2.1385524779749701 0.28538887337589303  2.1163576533486994 0.36295861563410142  2.1016935590963572 0.41762647077994453  2.0943951023931975 0.44571751614845861 
 2.93165819875709 4 3.064791309586163 1 3.1979244204152355 1 3.3310575312443085 1 3.4641906420733815 1 3.5973237529024544 1 3.7304568637315274 1 3.8635899745605999 1 3.9967230853896729 1 4.1298561962187463 1 4.2629893070478184 1 4.3961224178768914 1 4.5292555287059644 1 4.6623886395350373 1 4.7955217503641103 1 4.9286548611931824 1 5.0617879720222554 1 5.1949210828513284 1 5.3280541936804013 1 5.4611873045094743 1 5.5943204153385473 1 5.7274535261676203 1 5.8605866369966932 4
7 0 0  3 25 23  3.1415926535897918 0.44571751614845279  3.1342941968866316 0.41762647077994225  3.1196301026342894 0.36295861563410209  3.0974352780080214 0.28538887337589114  3.0750445329719613 0.21213682598075814  3.0524609679472552 0.14310100534690551  3.0296879089611446 0.078187815377896597  3.0067289412307949 0.017312365220570853  2.983587902946605 -0.039602205152428065  2.9602688888692512 -0.092624942299435589  2.9367762503955532 -0.14181736927650093  2.9131145956208306 -0.18723370904432254  2.8892887884079381 -0.2289210809295045  2.8653039466878631 -0.26691966143300749  2.8411654398949016 -0.30126281329228383  2.8168788855350608 -0.33197718279133104  2.7924501448507244 -0.35908276665344124  2.767885317619724 -0.38259294676746503  2.74319073589225 -0.40251450039612063  2.7183729573657387 -0.41884755742735874  2.6934387557804089 -0.43158560959312742  2.6683951181277292 -0.44071517759841389  2.6432492121811211 -0.44621660299598731  2.6264220444732187 -0.44744585787151925  2.6179938779914935 -0.44744645862197086 
 0.0027297605174797794 4 0.13586287134655298 1 0.2689959821756262 1 0.4021290930046994 1 0.53526220383377254 1 0.66839531466284574 1 0.80152842549191894 1 0.93466153632099214 1 1.0677946471500654 1 1.2009277579791386 1 1.3340608688082118 1 1.467193979637285 1 1.6003270904663582 1 1.7334602012954314 1 1.8665933121245046 1 1.9997264229535778 1 2.1328595337826508 1 2.2659926446117238 1 2.3991257554407972 1 2.5322588662698706 1 2.6653919770989436 1 2.7985250879280166 1 2.93165819875709 4
7 0 0  3 25 23  1.5707963267948968 -0.44744645862196775  1.5623681603131725 -0.44744585787151903  1.5455409926052699 -0.4462166029959862  1.5203950866586646 -0.44071517759840234  1.4953514490059845 -0.43158560959313214  1.4704172474206558 -0.41884755742735252  1.4455994688941434 -0.40251450039612102  1.4209048871666701 -0.3825929467674648  1.396340059935669 -0.35908276665343913  1.3719113192513328 -0.33197718279133503  1.3476247648914919 -0.30126281329227728  1.3234862580985283 -0.26691966143300971  1.2995014163784542 -0.22892108092949454  1.2756756091655599 -0.18723370904432105  1.2520139543908375 -0.14181736927649191  1.2285213159171382 -0.092624942299430704  1.2052023018397853 -0.039602205152419134  1.1820612635555925 0.017312365220582486  1.159102295825245 0.078187815377907727  1.136329236839134 0.14310100534691844  1.1137456718144274 0.21213682598076233  1.0913549267783695 0.28538887337590318  1.0691601021520996 0.36295861563410448  1.0544960078997592 0.41762647077994497  1.0471975511965996 0.44571751614845861 
 2.93165819875709 4 3.0647913095861625 1 3.1979244204152351 1 3.3310575312443076 1 3.4641906420733806 1 3.5973237529024527 1 3.7304568637315256 1 3.8635899745605982 1 3.9967230853896707 1 4.1298561962187428 1 4.2629893070478158 1 4.3961224178768887 1 4.5292555287059608 1 4.6623886395350338 1 4.7955217503641059 1 4.9286548611931789 1 5.0617879720222518 1 5.1949210828513239 1 5.328054193680396 1 5.461187304509469 1 5.594320415338542 1 5.7274535261676149 1 5.860586636996687 4
7 0 0  3 25 23  2.0943951023931939 0.44571751614845351  2.0870966456900342 0.4176264707799458  2.0724325514376933 0.36295861563410797  2.050237726811424 0.28538887337589719  2.0278469817753657 0.21213682598076186  2.0052634167506604 0.14310100534692041  1.9824903577645487 0.078187815377908712  1.9595313900342013 0.017312365220585581  1.9363903517500094 -0.039602205152422229  1.9130713376726562 -0.092624942299427332  1.8895786991989567 -0.14181736927649388  1.8659170444242341 -0.18723370904431599  1.8420912372113407 -0.22892108092949484  1.818106395491266 -0.26691966143300844  1.7939678886983024 -0.30126281329227783  1.7696813343384614 -0.33197718279132982  1.7452525936541252 -0.35908276665343836  1.7206877664231239 -0.38259294676746375  1.6959931846956506 -0.4025145003961213  1.6711754061691384 -0.41884755742735402  1.6462412045838091 -0.4315856095931303  1.62119756693113 -0.44071517759840301  1.5960516609845232 -0.44621660299598509  1.5792244932766211 -0.44744585787151819  1.5707963267948968 -0.44744645862196775 
 0.0027297605174837463 4 0.13586287134655675 1 0.26899598217562976 1 0.40212909300470279 1 0.53526220383377576 1 0.66839531466284874 1 0.80152842549192183 1 0.9346615363209948 1 1.0677946471500677 1 1.2009277579791406 1 1.3340608688082136 1 1.4671939796372866 1 1.6003270904663598 1 1.7334602012954328 1 1.8665933121245057 1 1.9997264229535787 1 2.1328595337826517 1 2.2659926446117247 1 2.3991257554407976 1 2.5322588662698706 1 2.6653919770989436 1 2.7985250879280166 1 2.93165819875709 4
7 0 0  3 25 23  0.52359877559829948 -0.44744645862197086  0.51517060911657508 -0.44744585787152052  0.49834344140867276 -0.4462166029959872  0.47319753546206622 -0.440715177598406  0.44815389780938691 -0.43158560959313413  0.42321969622405742 -0.41884755742735497  0.39840191769754524 -0.40251450039612729  0.3737073359700715 -0.38259294676746636  0.34914250873907093 -0.35908276665344013  0.32471376805473423 -0.3319771827913347  0.30042721369489334 -0.30126281329228088  0.27628870690192953 -0.26691966143300427  0.25230386518185527 -0.22892108092950508  0.22847805796896101 -0.1872337090443186  0.20481640319423888 -0.14181736927649238  0.18132376472053932 -0.092624942299432106  0.15800475064318648 -0.039602205152423083  0.13486371235899419 0.017312365220577639  0.11190474462864637 0.078187815377906852  0.08913168564253543 0.14310100534691617  0.066548120617829318 0.21213682598075742  0.044157375581771394 0.28538887337590213  0.021962550955501939 0.36295861563410592  0.0072984567031605307 0.41762647077994497  0 0.44571751614845634 
 2.93165819875709 4 3.0647913095861625 1 3.1979244204152355 1 3.3310575312443085 1 3.464190642073381 1 3.5973237529024535 1 3.7304568637315265 1 3.8635899745605995 1 3.996723085389672 1 4.1298561962187446 1 4.2629893070478175 1 4.3961224178768905 1 4.5292555287059635 1 4.6623886395350356 1 4.7955217503641085 1 4.9286548611931815 1 5.0617879720222536 1 5.1949210828513266 1 5.3280541936803996 1 5.4611873045094725 1 5.5943204153385455 1 5.7274535261676185 1 5.8605866369966906 4
7 0 0  3 25 23  1.0471975511965965 0.44571751614845245  1.0398990944934368 0.41762647077994203  1.0252350002410964 0.36295861563410303  1.0030401756148264 0.2853888733758943  0.98064943057876919 0.21213682598076403  0.95806586555406226 0.14310100534690798  0.93529280656795177 0.078187815377903855  0.91233383883760355 0.017312365220576175  0.88919280055341143 -0.039602205152426094  0.8658737864760585 -0.09262494229943484  0.84238114800235897 -0.14181736927649691  0.81871949322763704 -0.18723370904432257  0.79489368601474242 -0.22892108092950708  0.77090884429466855 -0.26691966143300644  0.74677033750170463 -0.30126281329228449  0.72248378314186368 -0.33197718279133731  0.69805504245752759 -0.3590827666534403  0.67349021522652641 -0.38259294676747102  0.64879563349905278 -0.40251450039612696  0.62397785497254099 -0.4188475574273563  0.59904365338721144 -0.43158560959313319  0.57400001573453208 -0.44071517759840839  0.54885410978792626 -0.44621660299598925  0.53202694208002388 -0.44744585787152147  0.52359877559829948 -0.44744645862197086 
 0.0027297605174806082 4 0.13586287134655378 1 0.26899598217562692 1 0.40212909300470007 1 0.53526220383377332 1 0.66839531466284652 1 0.8015284254919196 1 0.9346615363209928 1 1.0677946471500659 1 1.2009277579791391 1 1.3340608688082123 1 1.4671939796372855 1 1.6003270904663585 1 1.7334602012954317 1 1.8665933121245049 1 1.9997264229535781 1 2.1328595337826513 1 2.2659926446117242 1 2.3991257554407976 1 2.5322588662698706 1 2.665391977098944 1 2.798525087928017 1 2.93165819875709 4
1 6.2831853071795862 -0.44744645862197047 -1 7.421294256748208e-16 
7 0 0  3 25 23  4.7123889803846897 -0.44744645862197086  4.7039608139029658 -0.44744585787152141  4.687133646195063 -0.44621660299598886  4.6619877402484562 -0.44071517759840945  4.6369441025957778 -0.43158560959312459  4.6120099010104498 -0.41884755742736379  4.5871921224839349 -0.40251450039612047  4.5624975407564632 -0.38259294676746952  4.5379327135254606 -0.35908276665343886  4.513503972841125 -0.33197718279133442  4.4892174184812825 -0.30126281329227694  4.4650789116883187 -0.26691966143301477  4.441094069968246 -0.22892108092949437  4.4172682627553499 -0.18723370904432357  4.3936066079806295 -0.14181736927649319  4.370113969506928 -0.092624942299425708  4.3467949554295773 -0.039602205152426379  4.3236539171453829 0.017312365220586632  4.3006949494150364 0.078187815377905381  4.2779218904289262 0.14310100534691755  4.2553383254042174 0.21213682598076872  4.2329475803681627 0.28538887337589491  4.2107527557418925 0.36295861563410231  4.1960886614895516 0.41762647077994103  4.1887902047863923 0.44571751614845123 
 2.93165819875709 4 3.064791309586163 1 3.1979244204152359 1 3.3310575312443089 1 3.4641906420733819 1 3.5973237529024549 1 3.7304568637315283 1 3.8635899745606013 1 3.9967230853896742 1 4.1298561962187472 1 4.2629893070478202 1 4.3961224178768932 1 4.5292555287059661 1 4.6623886395350391 1 4.7955217503641121 1 4.9286548611931851 1 5.0617879720222581 1 5.194921082851331 1 5.328054193680404 1 5.461187304509477 1 5.59432041533855 1 5.7274535261676229 1 5.8605866369966959 4
1 6.2831853071795862 -0.4474464586219693 -1 0 
1 6.2831853071795862 -0.4474464586219693 -1 0 
1 6.2831853071795862 -0.4474464586219693 -1 0 
1 6.2831853071795862 -0.4474464586219693 -1 0 
7 0 0  3 25 23  5.7595865315812871 -0.44744645862197235  5.7511583650995615 -0.44744585787152819  5.7343311973916613 -0.44621660299599641  5.7091852914450527 -0.44071517759840356  5.6841416537923726 -0.43158560959313497  5.6592074522070437 -0.41884755742736463  5.6343896736805306 -0.40251450039611963  5.6096950919530579 -0.38259294676747185  5.5851302647220598 -0.35908276665344541  5.5607015240377207 -0.33197718279133231  5.5364149696778844 -0.30126281329228455  5.512276462884917 -0.26691966143300777  5.4882916211648443 -0.22892108092950261  5.4644658139519482 -0.1872337090443236  5.4408041591772278 -0.1418173692764986  5.4173115207035298 -0.092624942299437796  5.3939925066261765 -0.039602205152423957  5.3708514683419848 0.017312365220572622  5.3478925006116373 0.07818781537790534  5.3251194416255263 0.14310100534690462  5.3025358766008184 0.21213682598075728  5.2801451315647618 0.2853888733758897  5.2579503069384916 0.36295861563410231  5.2432862126861499 0.41762647077994058  5.2359877559829906 0.4457175161484489 
 2.93165819875709 4 3.064791309586163 1 3.1979244204152355 1 3.3310575312443085 1 3.464190642073381 1 3.597323752902454 1 3.7304568637315265 1 3.8635899745605995 1 3.9967230853896725 1 4.1298561962187446 1 4.2629893070478175 1 4.3961224178768905 1 4.5292555287059635 1 4.6623886395350365 1 4.7955217503641094 1 4.9286548611931815 1 5.0617879720222545 1 5.1949210828513275 1 5.3280541936803996 1 5.4611873045094725 1 5.5943204153385455 1 5.7274535261676185 1 5.8605866369966915 4
7 0 0  3 25 23  5.235987755982987 0.44571751614845201  5.2286892992798277 0.41762647077994458  5.2140252050274869 0.36295861563410681  5.1918303804012176 0.28538887337589475  5.169439635365161 0.2121368259807693  5.146856070340454 0.14310100534692038  5.1240830113543421 0.078187815377904285  5.1011240436239964 0.017312365220587999  5.0779830053398012 -0.039602205152426059  5.0546639912624514 -0.092624942299428248  5.0311713527887498 -0.14181736927648952  5.0075096980140286 -0.18723370904431913  4.9836838908011334 -0.22892108092949912  4.9596990490810606 -0.26691966143300655  4.9355605422880968 -0.301262813292278  4.9112739879282534 -0.33197718279133409  4.8868452472439188 -0.35908276665343986  4.862280420012917 -0.38259294676746658  4.8375858382854444 -0.40251450039612696  4.8127680597589295 -0.41884755742735597  4.7878338581736015 -0.4315856095931257  4.762790220520924 -0.44071517759841272  4.7376443145743146 -0.44621660299598603  4.7208171468664135 -0.44744585787151869  4.7123889803846897 -0.44744645862197086 
 0.002729760517483506 4 0.1358628713465565 1 0.26899598217562953 1 0.40212909300470256 1 0.53526220383377554 1 0.66839531466284852 1 0.8015284254919216 1 0.93466153632099458 1 1.0677946471500674 1 1.2009277579791404 1 1.3340608688082134 1 1.4671939796372864 1 1.6003270904663596 1 1.7334602012954325 1 1.8665933121245055 1 1.9997264229535785 1 2.1328595337826517 1 2.2659926446117247 1 2.3991257554407976 1 2.5322588662698706 1 2.6653919770989436 1 2.7985250879280166 1 2.93165819875709 4
1 6.2831853071795862 -0.44744645862197047 -1 7.421294256748208e-16 
1 0 0.38272154531721803 1 0 
1 0 -0.38272154531722058 1 0 
1 0 14.458749999999998 1 0 
1 0 -14.458750000000002 1 0 
1 6.2831853071795862 -0.38272154531721803 -1 0 
1 6.2831853071795862 0.38272154531721803 -1 0 
Curves 84
2 0 3.3140909450318002e-17 0.54124999999999801 -0 6.12303176911189e-17 1 1 0 0 0 1 -6.12303176911189e-17 2.4587500000000002
1 -2.7293750000000001 3.5081145142155399e-16 0.27062499999999901 -0.70710678118654802 4.3296372853596802e-17 -0.70710678118654702 
2 0 0 0 -0 6.12303176911189e-17 1 1 0 0 0 1 -6.12303176911189e-17 3
1 2.7293750000000001 -3.17670541971236e-16 0.27062499999999901 -0.70710678118654802 1.2988911856079e-16 0.70710678118654702 
2 0 1.8037686212832499e-15 29.458749999999998 -0 6.12303176911189e-17 1 1 0 0 0 1 -6.12303176911189e-17 2.4587500000000002
1 -2.4587500000000002 1.2195548526128599e-15 15 -0 -6.12303176911189e-17 -1 
1 2.4587500000000002 6.1735467812070604e-16 15 -0 6.12303176911189e-17 1 
2 0 1.8369095307335698e-15 30 -0 6.12303176911189e-17 1 1 0 0 0 1 -6.12303176911189e-17 3
1 -2.7293750000000001 2.1545800727048001e-15 29.729375000000001 0.70710678118654902 -1.2988911856079e-16 -0.70710678118654602 
1 2.7293750000000001 1.4860980793120099e-15 29.729375000000001 0.70710678118654902 -4.3296372853596999e-17 0.70710678118654602 
1 5.3875000000000002 1.16345421320617e-15 29.776276770689002 -0.86602540378443804 1.3666918005016101e-16 0.500000000000001 
7 1 0  2 5 3  5.7749994181325803 -0.0025924058863330199 29.552553541378  1 5.0006014501102998 1.3387042200063499 30  1.0380269746013899 4.3301270189221901 2.5 30  1 3.65965258773408 3.6612957799936501 30  1.0380269746013899 2.8852546197117999 5.0025924058863396 29.552553541378  1
 0 3 2.93165819875709 2 5.86331639751418 3
2 0 1.8369095307335698e-15 30 -0 6.12303176911189e-17 1 1 0 0 0 1 -6.12303176911189e-17 5
1 -5.3875000000000002 2.48296755944978e-15 29.776276770689002 -0.86602540378443804 7.5438862359041706e-17 -0.500000000000001 
2 0 1.8369095307335698e-15 30 -0 6.12303176911189e-17 1 1 0 0 0 1 -6.12303176911189e-17 5
7 1 0  2 5 3  -2.8852546197117999 5.0025924058863396 29.552553541378  1 -3.65965258773408 3.6612957799936598 30  1.0380269746013899 -4.3301270189221901 2.5 30  1 -5.0006014501102998 1.3387042200063499 30  1.0380269746013899 -5.7749994181325803 -0.00259240588633349 29.552553541378  1
 0 3 2.93165819875709 2 5.86331639751418 3
7 1 0  2 3 2  -6.0332491519473104 0.44989406589457898 24.449999999999999  1 -5.5685088622946903 -0.35505972810803199 24.147865647905601  1.0120146845614799 -5.16364116889019 -1.05631114342785 24  1
 0 3 1.79749354417882 3
7 1 0  2 3 2  -5.16364116889019 1.05631114342785 24  1 -5.5685088622946797 0.35505972810804698 24.147865647905601  1.0120146845614 -6.0332491519473104 -0.44989406589457498 24.449999999999999  1
 0 3 1.79749354417882 3
2 -1.4695276245868499e-15 0 24 6.12303176911189e-17 0 -1 0 1 0 1 -0 6.12303176911189e-17 5.2705771365940004
7 1 0  2 3 2  -3.4062442660502201 -5 24.449999999999999  1 -2.4767636867449698 -5 24.147865647905601  1.0120146845614999 -1.66702829993599 -5 24  1
 0 3 1.79749354417881 3
7 1 0  2 3 2  -3.4966128689542 -3.94368885657215 24  1 -3.0917451755497001 -4.6449402718919597 24.147865647905601  1.01201468456136 -2.62700488589708 -5.4498940658945703 24.449999999999999  1
 0 3 1.79749354417882 3
2 -1.4695276245868499e-15 0 24 6.12303176911189e-17 0 -1 0 1 0 1 -0 6.12303176911189e-17 5.2705771365940004
7 1 0  2 3 2  1.66702829993599 -5 24  1 2.47676368674498 -5 24.147865647905601  1.0120146845614499 3.4062442660502201 -5 24.449999999999999  1
 0 3 1.79749354417881 3
2 -1.4695276245868499e-15 0 24 6.12303176911189e-17 0 -1 0 1 0 1 -0 6.12303176911189e-17 5.2705771365940004
7 1 0  2 3 2  2.62700488589708 -5.4498940658945596 24.449999999999999  1 3.0917451755497098 -4.6449402718919499 24.147865647905601  1.0120146845615701 3.4966128689542 -3.9436888565721402 24  1
 0 3 1.79749354417882 3
7 1 0  2 3 2  6.0332491519472997 -0.44989406589457198 24.449999999999999  1 5.5685088622946797 0.35505972810805297 24.147865647905601  1.01201468456141 5.1636411688901802 1.05631114342786 24  1
 0 3 1.79749354417883 3
7 1 0  2 3 2  5.1636411688901802 -1.05631114342786 24  1 5.5685088622946797 -0.35505972810805198 24.147865647905601  1.0120146845614399 6.0332491519472997 0.44989406589456299 24.449999999999999  1
 0 3 1.79749354417882 3
2 -1.4695276245868499e-15 0 24 6.12303176911189e-17 0 -1 0 1 0 1 -0 6.12303176911189e-17 5.2705771365940004
7 1 0  2 3 2  3.4966128689542102 3.9436888565721402 24  1 3.0917451755497098 4.6449402718919499 24.147865647905601  1.01201468456142 2.62700488589708 5.4498940658945703 24.449999999999999  1
 0 3 1.79749354417883 3
2 -1.4695276245868499e-15 0 24 6.12303176911189e-17 0 -1 0 1 0 1 -0 6.12303176911189e-17 5.2705771365940004
7 1 0  2 3 2  3.4062442660502099 5 24.449999999999999  1 2.4767636867449601 5 24.147865647905601  1.0120146845614899 1.66702829993597 5 24  1
 0 3 1.79749354417882 3
7 1 0  2 3 2  -1.66702829993597 5 24  1 -2.4767636867449601 5 24.147865647905601  1.0120146845614999 -3.4062442660502099 5 24.449999999999999  1
 0 3 1.79749354417882 3
2 -1.4695276245868499e-15 0 24 6.12303176911189e-17 0 -1 0 1 0 1 -0 6.12303176911189e-17 5.2705771365940004
7 1 0  2 3 2  -2.62700488589708 5.44989406589458 24.449999999999999  1 -3.0917451755497001 4.6449402718919597 24.147865647905601  1.01201468456138 -3.4966128689542 3.94368885657215 24  1
 0 3 1.79749354417882 3
7 1 0  2 3 2  2.62700488589708 5.4498940658945703 23.550000000000001  1 3.0917451755496899 4.6449402718919703 23.852134352094399  1.01201468456143 3.4966128689542 3.9436888565721402 24  1
 0 3 1.79749354417883 3
7 1 0  2 3 2  1.66702829993597 5 24  1 2.4767636867449498 5 23.852134352094399  1.0120146845615099 3.4062442660502099 5 23.550000000000001  1
 0 3 1.79749354417882 3
7 1 0  2 3 2  5.1636411688901802 1.05631114342786 24  1 5.5685088622946903 0.355059728108026 23.852134352094399  1.01201468456141 6.0332491519472997 -0.44989406589457298 23.550000000000001  1
 0 3 1.79749354417883 3
7 1 0  2 3 2  6.0332491519472997 0.44989406589457498 23.550000000000001  1 5.5685088622947001 -0.35505972810802 23.852134352094399  1.01201468456141 5.1636411688901802 -1.05631114342786 24  1
 0 3 1.79749354417883 3
7 1 0  2 3 2  3.4062442660502201 -5 23.550000000000001  1 2.4767636867449601 -5 23.852134352094399  1.0120146845615201 1.66702829993599 -5 24  1
 0 3 1.79749354417881 3
7 1 0  2 3 2  3.4966128689542 -3.9436888565721402 24  1 3.0917451755496899 -4.6449402718919801 23.852134352094399  1.01201468456139 2.62700488589708 -5.44989406589458 23.550000000000001  1
 0 3 1.79749354417883 3
7 1 0  2 3 2  -1.66702829993599 -5 24  1 -2.4767636867449898 -5 23.852134352094399  1.0120146845614399 -3.4062442660502201 -5 23.550000000000001  1
 0 3 1.79749354417881 3
7 1 0  2 3 2  -2.6270048858970898 -5.4498940658945596 23.550000000000001  1 -3.0917451755497201 -4.6449402718919304 23.852134352094399  1.0120146845615099 -3.4966128689542102 -3.9436888565721402 24  1
 0 3 1.79749354417882 3
7 1 0  2 3 2  -5.1636411688901802 -1.05631114342785 24  1 -5.5685088622946797 -0.35505972810804898 23.852134352094399  1.0120146845614399 -6.0332491519472997 0.44989406589456998 23.550000000000001  1
 0 3 1.79749354417882 3
7 1 0  2 3 2  -6.0332491519472997 -0.449894065894553 23.550000000000001  1 -5.5685088622946699 0.35505972810806102 23.852134352094399  1.0120146845612099 -5.1636411688901802 1.05631114342786 24  1
 0 3 1.7974935441788 3
7 1 0  2 3 2  -3.4062442660502099 5 23.550000000000001  1 -2.4767636867449601 5 23.852134352094399  1.0120146845614999 -1.66702829993597 5 24  1
 0 3 1.79749354417882 3
7 1 0  2 3 2  -3.4966128689542 3.94368885657215 24  1 -3.0917451755497098 4.6449402718919401 23.852134352094399  1.01201468456112 -2.6270048858970898 5.4498940658945596 23.550000000000001  1
 0 3 1.7974935441788 3
1 -2.88675134594813 5 -1 0 6.12303176911189e-17 1 
1 -3.7816895189221902 3.4499216147760601 -2.11239796482196e-16 0.50000000000000033 0.86602540378443849 -5.3027010602300729e-17 
1 -5.77350269189626 9.9932156991452608e-16 -1 0 6.12303176911189e-17 1 
1 -5.77350269189626 9.9932156991452608e-16 -1 0 6.12303176911189e-17 1 
7 1 0  2 5 3  -2.8852546197117999 5.0025924058863396 29.552553541378  1 -3.65965258773408 3.6612957799936598 30  1.0380269746013899 -4.3301270189221901 2.5 30  1 -5.0006014501102998 1.3387042200063499 30  1.0380269746013899 -5.7749994181325803 -0.00259240588633349 29.552553541378  1
 0 3 2.93165819875709 2 5.86331639751418 3
1 -2.88675134594813 5 -1 0 6.12303176911189e-17 1 
1 -3.7816895189222 -3.4499216147760499 2.11239796482196e-16 -0.49999999999999989 0.86602540378443882 -5.3027010602300686e-17 
1 -2.88675134594813 -5 -1 0 6.12303176911189e-17 1 
1 -2.88675134594813 -5 -1 0 6.12303176911189e-17 1 
7 1 0  2 5 3  -5.7749994181325803 0.0025924058863371099 29.552553541378  1 -5.0006014501102998 -1.3387042200063499 30  1.0380269746014199 -4.3301270189221901 -2.5 30  1 -3.6596525877340902 -3.6612957799936501 30  1.0380269746014199 -2.8852546197118101 -5.0025924058863298 29.552553541378  1
 0 3 2.93165819875709 2 5.8633163975141702 3
7 1 0  2 5 3  -5.7749994181325803 0.0025924058863371099 29.552553541378  1 -5.0006014501102998 -1.3387042200063499 30  1.0380269746014199 -4.3301270189221901 -2.5 30  1 -3.6596525877340902 -3.6612957799936501 30  1.0380269746014199 -2.8852546197118101 -5.0025924058863298 29.552553541378  1
 0 3 2.93165819875709 2 5.8633163975141702 3
1 2.1937500000000001 -5 3.0615158845559402e-16 -1 1.5383701491068499e-16 -9.4194892956346306e-33 
1 2.88675134594813 -5 -1 0 6.12303176911189e-17 1 
1 2.88675134594813 -5 -1 0 6.12303176911189e-17 1 
7 1 0  2 5 3  -2.88974479842078 -5 29.552553541378  1 -1.34094886237622 -5 30  1.03802697460136 -7.6918507455342503e-16 -5 30  1 1.34094886237621 -5 30  1.03802697460136 2.88974479842078 -5 29.552553541378  1
 0 3 2.93165819875709 2 5.8633163975141702 3
7 1 0  2 5 3  -2.88974479842078 -5 29.552553541378  1 -1.34094886237622 -5 30  1.03802697460136 -7.6918507455342503e-16 -5 30  1 1.34094886237621 -5 30  1.03802697460136 2.88974479842078 -5 29.552553541378  1
 0 3 2.93165819875709 2 5.8633163975141702 3
1 4.8785645189221896 -1.5500783852239399 9.4911791973398598e-17 -0.49999999999999989 -0.86602540378443882 5.3027010602300686e-17 
1 5.77350269189626 -4.14755397266088e-16 -1 0 6.12303176911189e-17 1 
1 5.77350269189626 -4.14755397266088e-16 -1 0 6.12303176911189e-17 1 
7 1 0  2 5 3  2.8852546197117999 -5.0025924058863298 29.552553541378  1 3.65965258773408 -3.6612957799936399 30  1.03802697460136 4.3301270189221901 -2.5 30  1 5.0006014501102998 -1.3387042200063499 30  1.03802697460136 5.7749994181325803 0.0025924058863356801 29.552553541378  1
 0 3 2.93165819875709 2 5.8633163975141702 3
7 1 0  2 5 3  2.8852546197117999 -5.0025924058863298 29.552553541378  1 3.65965258773408 -3.6612957799936399 30  1.03802697460136 4.3301270189221901 -2.5 30  1 5.0006014501102998 -1.3387042200063499 30  1.03802697460136 5.7749994181325803 0.0025924058863356801 29.552553541378  1
 0 3 2.93165819875709 2 5.8633163975141702 3
2 0 1.8369095307335698e-15 30 -0 6.12303176911189e-17 1 1 0 0 0 1 -6.12303176911189e-17 5
7 1 0  2 5 3  2.88974479842078 5 29.552553541378  1 1.34094886237622 5 30  1.03802697460135 0 5 30  1 -1.34094886237622 5 30  1.03802697460135 -2.88974479842078 5 29.552553541378  1
 0 3 2.93165819875709 2 5.86331639751418 3
2 0 1.8369095307335698e-15 30 -0 6.12303176911189e-17 1 1 0 0 0 1 -6.12303176911189e-17 5
2 0 1.8369095307335698e-15 30 -0 6.12303176911189e-17 1 1 0 0 0 1 -6.12303176911189e-17 5
2 0 1.8369095307335698e-15 30 -0 6.12303176911189e-17 1 1 0 0 0 1 -6.12303176911189e-17 5
2 0 1.8369095307335698e-15 30 -0 6.12303176911189e-17 1 1 0 0 0 1 -6.12303176911189e-17 5
7 1 0  2 5 3  5.7749994181325803 -0.0025924058863330199 29.552553541378  1 5.0006014501102998 1.3387042200063499 30  1.0380269746013899 4.3301270189221901 2.5 30  1 3.65965258773408 3.6612957799936501 30  1.0380269746013899 2.8852546197117999 5.0025924058863396 29.552553541378  1
 0 3 2.93165819875709 2 5.86331639751418 3
7 1 0  2 5 3  2.88974479842078 5 29.552553541378  1 1.34094886237622 5 30  1.03802697460135 0 5 30  1 -1.34094886237622 5 30  1.03802697460135 -2.88974479842078 5 29.552553541378  1
 0 3 2.93165819875709 2 5.86331639751418 3
2 0 1.8369095307335698e-15 30 -0 6.12303176911189e-17 1 1 0 0 0 1 -6.12303176911189e-17 5
2 0 1.8369095307335698e-15 30 -0 6.12303176911189e-17 1 1 0 0 0 1 -6.12303176911189e-17 3
2 0 1.8037686212832499e-15 29.458749999999998 -0 6.12303176911189e-17 1 1 0 0 0 1 -6.12303176911189e-17 2.4587500000000002
2 0 3.3140909450318002e-17 0.54124999999999801 -0 6.12303176911189e-17 1 1 0 0 0 1 -6.12303176911189e-17 2.4587500000000002
2 0 0 0 -0 6.12303176911189e-17 1 1 0 0 0 1 -6.12303176911189e-17 3
1 2.1937500000000001 5 -3.0615158845559402e-16 1 0 0 
1 4.8785645189221896 1.5500783852239399 -9.4911791973398598e-17 0.49999999999999989 -0.86602540378443882 5.3027010602300686e-17 
1 2.88675134594813 5 -1 0 6.12303176911189e-17 1 
1 2.88675134594813 5 -1 0 6.12303176911189e-17 1 
Polygon3D 0
PolygonOnTriangulations 0
Surfaces 34
3 0 1.6570454725159001e-17 0.27062499999999901 0 -6.12303176911189e-17 -1 1 0 0 0 -1 6.12303176911189e-17 2.7293750000000001
0.78539816339744795
2 0 9.1845476536678294e-16 15 -0 6.12303176911189e-17 1 1 0 0 0 1 -6.12303176911189e-17 2.4587500000000002
3 0 1.6570454725159001e-17 0.27062499999999901 0 -6.12303176911189e-17 -1 1 0 0 0 -1 6.12303176911189e-17 2.7293750000000001
0.78539816339744795
1 4.3875000000000002 0 0 -0 -6.12303176911189e-17 -1 -1 0 0 0 1 -6.12303176911189e-17 
3 0 1.82033907600841e-15 29.729375000000001 -0 6.12303176911189e-17 1 1 0 0 0 1 -6.12303176911189e-17 2.7293750000000001
0.78539816339745006
2 0 9.1845476536678294e-16 15 -0 6.12303176911189e-17 1 1 0 0 0 1 -6.12303176911189e-17 2.4587500000000002
1 4 1.8369095307335698e-15 30 -0 6.12303176911189e-17 1 1 0 0 0 1 -6.12303176911189e-17 
3 0 1.82033907600841e-15 29.729375000000001 -0 6.12303176911189e-17 1 1 0 0 0 1 -6.12303176911189e-17 2.7293750000000001
0.78539816339745006
3 0 1.8232108863279702e-15 29.776276770689002 0 -6.12303176911189e-17 -1 1 0 0 0 -1 6.12303176911189e-17 5.3875000000000002
1.0471975511966001
3 0 1.8232108863279702e-15 29.776276770689002 0 -6.12303176911189e-17 -1 1 0 0 0 -1 6.12303176911189e-17 5.3875000000000002
1.0471975511966001
1 4.3301270189221901 2.5 -1 0.86602540378443882 0.49999999999999989 -3.0615158845559394e-17 -0.49999999999999989 0.86602540378443882 -5.3027010602300679e-17 -2.4651903288156613e-32 6.1230317691118851e-17 1 
3 0 1.8232108863279702e-15 29.776276770689002 0 -6.12303176911189e-17 -1 1 0 0 0 -1 6.12303176911189e-17 5.3875000000000002
1.0471975511966001
3 0 1.8232108863279702e-15 29.776276770689002 0 -6.12303176911189e-17 -1 1 0 0 0 -1 6.12303176911189e-17 5.3875000000000002
1.0471975511966001
1 -4.3301270189221901 2.5 -1 -0.86602540378443849 0.50000000000000033 -3.0615158845559419e-17 -0.50000000000000033 -0.86602540378443849 5.3027010602300741e-17 7.0874221953450279e-32 6.1230317691118925e-17 1 
3 -1.48330444606735e-15 0 24.225000000000001 -6.12303176911189e-17 -0 1 0 1 0 -1 0 -6.12303176911189e-17 5.6602885682970001
1.0471975511966001
1 -4.3301270189221901 -2.5 -1 -0.86602540378443882 -0.49999999999999989 3.0615158845559394e-17 0.49999999999999989 -0.86602540378443882 5.3027010602300679e-17 -2.4651903288156613e-32 6.1230317691118851e-17 1 
3 -1.4557508031063499e-15 0 23.774999999999999 6.12303176911189e-17 -0 -1 0 1 0 1 -0 6.12303176911189e-17 5.6602885682970001
1.0471975511966001
3 -1.48330444606735e-15 0 24.225000000000001 -6.12303176911189e-17 -0 1 0 1 0 -1 0 -6.12303176911189e-17 5.6602885682970001
1.0471975511966001
1 -1.7763568394002501e-15 -5 -1 -1.5383701491068499e-16 -1 6.12303176911189e-17 1 -1.5383701491068499e-16 9.4194892956346306e-33 6.8422776578360209e-48 6.12303176911189e-17 1 
3 -1.4557508031063499e-15 0 23.774999999999999 6.12303176911189e-17 -0 -1 0 1 0 1 -0 6.12303176911189e-17 5.6602885682970001
1.0471975511966001
3 -1.48330444606735e-15 0 24.225000000000001 -6.12303176911189e-17 -0 1 0 1 0 -1 0 -6.12303176911189e-17 5.6602885682970001
1.0471975511966001
3 -1.4557508031063499e-15 0 23.774999999999999 6.12303176911189e-17 -0 -1 0 1 0 1 -0 6.12303176911189e-17 5.6602885682970001
1.0471975511966001
1 4.3301270189221901 -2.5 -1 0.86602540378443882 -0.49999999999999989 3.0615158845559394e-17 0.49999999999999989 0.86602540378443882 -5.3027010602300679e-17 2.4651903288156613e-32 6.1230317691118851e-17 1 
3 -1.48330444606735e-15 0 24.225000000000001 -6.12303176911189e-17 -0 1 0 1 0 -1 0 -6.12303176911189e-17 5.6602885682970001
1.0471975511966001
3 -1.4557508031063499e-15 0 23.774999999999999 6.12303176911189e-17 -0 -1 0 1 0 1 -0 6.12303176911189e-17 5.6602885682970001
1.0471975511966001
3 -1.48330444606735e-15 0 24.225000000000001 -6.12303176911189e-17 -0 1 0 1 0 -1 0 -6.12303176911189e-17 5.6602885682970001
1.0471975511966001
3 -1.4557508031063499e-15 0 23.774999999999999 6.12303176911189e-17 -0 -1 0 1 0 1 -0 6.12303176911189e-17 5.6602885682970001
1.0471975511966001
1 8.8817841970012504e-16 5 -1 0 1 -6.12303176911189e-17 -1 0 0 0 6.12303176911189e-17 1 
3 -1.48330444606735e-15 0 24.225000000000001 -6.12303176911189e-17 -0 1 0 1 0 -1 0 -6.12303176911189e-17 5.6602885682970001
1.0471975511966001
3 -1.4557508031063499e-15 0 23.774999999999999 6.12303176911189e-17 -0 -1 0 1 0 1 -0 6.12303176911189e-17 5.6602885682970001
1.0471975511966001
3 0 1.8232108863279702e-15 29.776276770689002 0 -6.12303176911189e-17 -1 1 0 0 0 -1 6.12303176911189e-17 5.3875000000000002
1.0471975511966001
3 0 1.8232108863279702e-15 29.776276770689002 0 -6.12303176911189e-17 -1 1 0 0 0 -1 6.12303176911189e-17 5.3875000000000002
1.0471975511966001
3 0 1.8232108863279702e-15 29.776276770689002 0 -6.12303176911189e-17 -1 1 0 0 0 -1 6.12303176911189e-17 5.3875000000000002
1.0471975511966001
3 0 1.8232108863279702e-15 29.776276770689002 0 -6.12303176911189e-17 -1 1 0 0 0 -1 6.12303176911189e-17 5.3875000000000002
1.0471975511966001
Triangulations 0

TShapes 208
Ve
1e-07
-2.45875 3.34240996696395e-16 0.541249999999998
0 0

0101101
*
Ve
1e-07
2.45875 3.3140909450318e-17 0.541249999999998
0 0

0101101
*
Ed
 1e-07 1 1 0
1  1 0 3.14159265358979 6.28318530717959
2  1 1 0 3.14159265358979 6.28318530717959
2  2 2 0 3.14159265358979 6.28318530717959
4 C0 1 0 2 0
0

0101000
+208 0 -207 0 *
Ve
1e-07
-3 3.67381906146713e-16 -2.24949108273321e-32
0 0

0101101
*
Ed
 1e-07 1 1 0
1  2 0 -0.382721545317218 0.382721545317218
2  3 1 0 -0.382721545317218 0.382721545317218
2  4 3 0 -0.382721545317218 0.382721545317218
4 CN 1 0 3 0
0

0101000
+208 0 -205 0 *
Ve
1e-07
3 0 0
0 0

0101101
*
Ed
 1e-07 1 1 0
1  3 0 3.14159265358979 6.28318530717959
2  5 1 0 3.14159265358979 6.28318530717959
4 C0 1 0 4 0
0

0101000
+205 0 -203 0 *
Ed
 1e-07 1 1 0
1  4 0 -0.382721545317218 0.382721545317218
2  6 1 0 -0.382721545317218 0.382721545317218
2  7 3 0 -0.382721545317218 0.382721545317218
4 CN 1 0 3 0
0

0101000
+203 0 -207 0 *
Wi

0101100
-206 0 +204 0 +202 0 +201 0 *
Fa
0  1e-07 1 0

0111000
+200 0 *
Ve
1e-07
-2.45875 2.10486870852933e-15 29.45875
0 0

0101101
*
Ve
1e-07
2.45875 1.80376862128325e-15 29.45875
0 0

0101101
*
Ed
 1e-07 1 1 0
1  5 0 3.14159265358979 6.28318530717959
2  8 2 0 3.14159265358979 6.28318530717959
2  9 5 0 3.14159265358979 6.28318530717959
4 C0 2 0 5 0
0

0101000
+198 0 -197 0 *
Ed
 1e-07 1 1 0
1  6 0 -14.45875 14.45875
2  10 2 0 -14.45875 14.45875
2  11 6 0 -14.45875 14.45875
4 CN 2 0 6 0
0

0101000
+198 0 -208 0 *
Ed
 1e-07 1 1 0
1  7 0 -14.45875 14.45875
2  12 2 0 -14.45875 14.45875
2  13 6 0 -14.45875 14.45875
4 CN 2 0 6 0
0

0101000
+207 0 -197 0 *
Wi

0101100
-196 0 +195 0 +206 0 +194 0 *
Fa
0  1e-07 2 0

0111000
+193 0 *
Ve
1e-07
-3 2.20429143688028e-15 30
0 0

0101101
*
Ve
1e-07
3 1.83690953073357e-15 30
0 0

0101101
*
Ed
 1e-07 1 1 0
1  8 0 3.14159265358979 6.28318530717959
2  14 5 0 3.14159265358979 6.28318530717959
4 C0 5 0 7 0
0

0101000
+191 0 -190 0 *
Ed
 1e-07 1 1 0
1  9 0 -0.382721545317218 0.382721545317221
2  15 5 0 -0.382721545317218 0.382721545317221
2  16 8 0 -0.382721545317218 0.382721545317221
4 CN 5 0 8 0
0

0101000
+191 0 -198 0 *
Ed
 1e-07 1 1 0
1  10 0 -0.382721545317221 0.382721545317218
2  17 5 0 -0.382721545317221 0.382721545317218
2  18 8 0 -0.382721545317221 0.382721545317218
4 CN 5 0 8 0
0

0101000
+197 0 -190 0 *
Wi

0101100
-189 0 +188 0 +196 0 +187 0 *
Fa
0  1e-07 5 0

0111000
+186 0 *
Ve
1e-07
5.77350269189626 1.45604009419587e-15 29.5534180126148
0 0

0101101
*
Ve
1e-07
5 1.22460635382238e-15 30
0 0

0101101
*
Ed
 1e-07 1 1 0
1  11 0 -0.44571751614844 0.447446458621969
2  19 9 0 -0.44571751614844 0.447446458621969
2  20 10 0 -0.44571751614844 0.447446458621969
4 CN 9 0 10 0
0

0101000
+184 0 -183 0 *
Ve
1e-07
4.33012701892219 2.5 30
0 0

0101101
*
Ed
 1e-07 1 1 0
1  12 0 0.00272976051748025 2.93165819875709
2  21 9 0 0.00272976051748025 2.93165819875709
4 C0 9 0 11 0
0

0101000
+184 0 -181 0 *
Ed
 1e-07 1 1 0
1  13 0 0 0.523598775598299
2  22 9 0 0 0.523598775598299
4 C0 9 0 7 0
0

0101000
+183 0 -181 0 *
Wi

0101100
-182 0 +180 0 -179 0 *
Fa
0  1e-07 9 0

0111000
+178 0 *
Ve
1e-07
-5 2.44921270764475e-15 30
0 0

0101101
*
Ve
1e-07
-5.77350269189626 2.87011706137648e-15 29.5534180126148
0 0

0101101
*
Ed
 1e-07 1 1 0
1  14 0 -0.447446458621969 0.44571751614844
2  23 12 0 -0.447446458621969 0.44571751614844
2  24 13 0 -0.447446458621969 0.44571751614844
4 CN 12 0 13 0
0

0101000
+176 0 -175 0 *
Ve
1e-07
-4.33012701892219 2.5 30
0 0

0101101
*
Ed
 1e-07 1 1 0
1  15 0 2.61799387799149 3.14159265358979
2  25 12 0 2.61799387799149 3.14159265358979
4 C0 12 0 7 0
0

0101000
+173 0 -176 0 *
Ed
 1e-07 1 1 0
1  16 0 2.93165819875709 5.8605866369967
2  26 12 0 2.93165819875709 5.8605866369967
4 C0 12 0 14 0
0

0101000
+173 0 -175 0 *
Wi

0101100
-174 0 -172 0 +171 0 *
Fa
0  1e-07 12 0

0111000
+170 0 *
Ve
1e-07
-5.77350269189626 2.54785860469462e-15 24.2903642047361
0 0

0101101
*
Ve
1e-07
-5.16364116889019 -1.05631114342784 24
0 0

0101101
*
Ed
 1e-07 1 1 0
1  17 0 0.509690000592572 1.79749354417882
2  27 15 0 0.509690000592572 1.79749354417882
4 C0 15 0 16 0
0

0101000
+168 0 -167 0 *
Ve
1e-07
-5.16364116889019 1.05631114342785 24
0 0

0101101
*
Ed
 1e-07 1 1 0
1  18 0 0 1.28780354358624
2  28 15 0 0 1.28780354358624
4 C0 15 0 14 0
0

0101000
+165 0 -168 0 *
Ed
 1e-07 1 1 0
1  19 0 4.51060585175904 4.91417210901034
2  29 15 0 4.51060585175904 4.91417210901034
2  30 17 0 4.51060585175904 4.91417210901034
4 C0 15 0 17 0
0

0101000
+167 0 -165 0 *
Wi

0101100
-166 0 -164 0 -163 0 *
Fa
0  1e-07 15 0

0111000
+162 0 *
Ve
1e-07
-2.88675134594813 -5 24.2903642047361
0 0

0101101
*
Ve
1e-07
-1.667028299936 -5 24
0 0

0101101
*
Ed
 1e-07 1 1 0
1  20 0 0.509690000592554 1.79749354417881
2  31 18 0 0.509690000592554 1.79749354417881
4 C0 18 0 19 0
0

0101000
+160 0 -159 0 *
Ve
1e-07
-3.4966128689542 -3.94368885657215 24
0 0

0101101
*
Ed
 1e-07 1 1 0
1  21 0 0 1.28780354358623
2  32 18 0 0 1.28780354358623
4 C0 18 0 16 0
0

0101000
+157 0 -160 0 *
Ed
 1e-07 1 1 0
1  22 0 3.46340830056244 3.86697455781374
2  33 18 0 3.46340830056244 3.86697455781374
2  34 20 0 3.46340830056244 3.86697455781374
4 C0 18 0 20 0
0

0101000
+159 0 -157 0 *
Wi

0101100
-158 0 -156 0 -155 0 *
Fa
0  1e-07 18 0

0111000
+154 0 *
Ve
1e-07
1.66702829993599 -5 24
0 0

0101101
*
Ve
1e-07
2.88675134594813 -5 24.2903642047361
0 0

0101101
*
Ed
 1e-07 1 1 0
1  23 0 0 1.28780354358624
2  35 21 0 0 1.28780354358624
4 C0 21 0 19 0
0

0101000
+152 0 -151 0 *
Ve
1e-07
3.4966128689542 -3.94368885657215 24
0 0

0101101
*
Ed
 1e-07 1 1 0
1  24 0 2.41621074936584 2.81977700661714
2  36 21 0 2.41621074936584 2.81977700661714
2  37 22 0 2.41621074936584 2.81977700661714
4 C0 21 0 22 0
0

0101000
+149 0 -152 0 *
Ed
 1e-07 1 1 0
1  25 0 0.509690000592543 1.79749354417882
2  38 21 0 0.509690000592543 1.79749354417882
4 C0 21 0 23 0
0

0101000
+151 0 -149 0 *
Wi

0101100
-150 0 -148 0 -147 0 *
Fa
0  1e-07 21 0

0111000
+146 0 *
Ve
1e-07
5.77350269189626 1.133781637514e-15 24.2903642047361
0 0

0101101
*
Ve
1e-07
5.16364116889018 1.05631114342786 24
0 0

0101101
*
Ed
 1e-07 1 1 0
1  26 0 0.509690000592574 1.79749354417883
2  39 24 0 0.509690000592574 1.79749354417883
4 C0 24 0 11 0
0

0101000
+144 0 -143 0 *
Ve
1e-07
5.16364116889018 -1.05631114342785 24
0 0

0101101
*
Ed
 1e-07 1 1 0
1  27 0 0 1.28780354358626
2  40 24 0 0 1.28780354358626
4 C0 24 0 23 0
0

0101000
+141 0 -144 0 *
Ed
 1e-07 1 1 0
1  28 0 1.36901319816925 1.77257945542055
2  41 24 0 1.36901319816925 1.77257945542055
2  42 25 0 1.36901319816925 1.77257945542055
4 C0 24 0 25 0
0

0101000
+143 0 -141 0 *
Wi

0101100
-142 0 -140 0 -139 0 *
Fa
0  1e-07 24 0

0111000
+138 0 *
Ve
1e-07
3.4966128689542 3.94368885657214 24
0 0

0101101
*
Ve
1e-07
2.88675134594813 5 24.2903642047361
0 0

0101101
*
Ed
 1e-07 1 1 0
1  29 0 0 1.28780354358626
2  43 26 0 0 1.28780354358626
4 C0 26 0 11 0
0

0101000
+136 0 -135 0 *
Ve
1e-07
1.66702829993598 5 24
0 0

0101101
*
Ed
 1e-07 1 1 0
1  30 0 0.321815646972648 0.72538190422395
2  44 26 0 0.321815646972648 0.72538190422395
2  45 27 0 0.321815646972648 0.72538190422395
4 C0 26 0 27 0
0

0101000
+133 0 -136 0 *
Ed
 1e-07 1 1 0
1  31 0 0.509690000592548 1.79749354417882
2  46 26 0 0.509690000592548 1.79749354417882
4 C0 26 0 28 0
0

0101000
+135 0 -133 0 *
Wi

0101100
-134 0 -132 0 -131 0 *
Fa
0  1e-07 26 0

0111000
+130 0 *
Ve
1e-07
-1.66702829993599 5 24
0 0

0101101
*
Ve
1e-07
-2.88675134594813 5 24.2903642047361
0 0

0101101
*
Ed
 1e-07 1 1 0
1  32 0 0 1.28780354358627
2  47 29 0 0 1.28780354358627
4 C0 29 0 28 0
0

0101000
+128 0 -127 0 *
Ve
1e-07
-3.4966128689542 3.94368885657215 24
0 0

0101101
*
Ed
 1e-07 1 1 0
1  33 0 5.55780340295564 5.96136966020694
2  48 29 0 5.55780340295564 5.96136966020694
2  49 30 0 5.55780340295564 5.96136966020694
4 C0 29 0 30 0
0

0101000
+125 0 -128 0 *
Ed
 1e-07 1 1 0
1  34 0 0.509690000592587 1.79749354417882
2  50 29 0 0.509690000592587 1.79749354417882
4 C0 29 0 14 0
0

0101000
+127 0 -125 0 *
Wi

0101100
-126 0 -124 0 -123 0 *
Fa
0  1e-07 29 0

0111000
+122 0 *
Ve
1e-07
2.88675134594813 5 23.7096357952639
0 0

0101101
*
Ed
 1e-07 1 1 0
1  35 0 0.509690000592582 1.79749354417883
2  51 27 0 0.509690000592582 1.79749354417883
4 C0 27 0 11 0
0

0101000
+120 0 -136 0 *
Ed
 1e-07 1 1 0
1  36 0 0 1.28780354358628
2  52 27 0 0 1.28780354358628
4 C0 27 0 28 0
0

0101000
+133 0 -120 0 *
Wi

0101100
-119 0 -118 0 +132 0 *
Fa
0  1e-07 27 0

0111000
+117 0 *
Ve
1e-07
5.77350269189626 1.09822345250976e-15 23.7096357952639
0 0

0101101
*
Ed
 1e-07 1 1 0
1  37 0 0 1.28780354358624
2  53 25 0 0 1.28780354358624
4 C0 25 0 11 0
0

0101000
+143 0 -115 0 *
Ed
 1e-07 1 1 0
1  38 0 0.509690000592588 1.79749354417883
2  54 25 0 0.509690000592588 1.79749354417883
4 C0 25 0 23 0
0

0101000
+115 0 -141 0 *
Wi

0101100
-114 0 +139 0 -113 0 *
Fa
0  1e-07 25 0

0111000
+112 0 *
Ve
1e-07
2.88675134594813 -5 23.7096357952639
0 0

0101101
*
Ed
 1e-07 1 1 0
1  39 0 0.509690000592545 1.79749354417881
2  55 22 0 0.509690000592545 1.79749354417881
4 C0 22 0 19 0
0

0101000
+110 0 -152 0 *
Ed
 1e-07 1 1 0
1  40 0 0 1.28780354358623
2  56 22 0 0 1.28780354358623
4 C0 22 0 23 0
0

0101000
+149 0 -110 0 *
Wi

0101100
-109 0 -108 0 +148 0 *
Fa
0  1e-07 22 0

0111000
+107 0 *
Ve
1e-07
-2.88675134594813 -5 23.7096357952639
0 0

0101101
*
Ed
 1e-07 1 1 0
1  41 0 0 1.28780354358624
2  57 20 0 0 1.28780354358624
4 C0 20 0 19 0
0

0101000
+159 0 -105 0 *
Ed
 1e-07 1 1 0
1  42 0 0.509690000592541 1.79749354417882
2  58 20 0 0.509690000592541 1.79749354417882
4 C0 20 0 16 0
0

0101000
+105 0 -157 0 *
Wi

0101100
-104 0 +155 0 -103 0 *
Fa
0  1e-07 20 0

0111000
+102 0 *
Ve
1e-07
-5.77350269189626 2.51230041969038e-15 23.7096357952639
0 0

0101101
*
Ed
 1e-07 1 1 0
1  43 0 0 1.28780354358626
2  59 17 0 0 1.28780354358626
4 C0 17 0 16 0
0

0101000
+167 0 -100 0 *
Ed
 1e-07 1 1 0
1  44 0 0.509690000592589 1.7974935441788
2  60 17 0 0.509690000592589 1.7974935441788
4 C0 17 0 14 0
0

0101000
+100 0 -165 0 *
Wi

0101100
-99 0 +163 0 -98 0 *
Fa
0  1e-07 17 0

0111000
+97 0 *
Ve
1e-07
-2.88675134594813 5 23.7096357952639
0 0

0101101
*
Ed
 1e-07 1 1 0
1  45 0 0.509690000592546 1.79749354417882
2  61 30 0 0.509690000592546 1.79749354417882
4 C0 30 0 28 0
0

0101000
+95 0 -128 0 *
Ed
 1e-07 1 1 0
1  46 0 0 1.28780354358619
2  62 30 0 0 1.28780354358619
4 C0 30 0 14 0
0

0101000
+125 0 -95 0 *
Wi

0101100
-94 0 -93 0 +124 0 *
Fa
0  1e-07 30 0

0111000
+92 0 *
Ve
1e-07
-2.88675134594813 5 -3.06151588455594e-16
0 0

0101101
*
Ed
 1e-07 1 1 0
1  47 0 1 24.7096357952639
4 C0 14 0 28 0
0

0101000
+90 0 -95 0 *
Ve
1e-07
-5.77350269189626 1.06055188760564e-15 -6.49379290060094e-32
0 0

0101101
*
Ed
 1e-07 1 1 0
1  48 0 -3.98362634594813 1.78987634594812
4 C0 14 0 4 0
0

0101000
+88 0 -90 0 *
Ed
 1e-07 1 1 0
1  49 0 1 24.7096357952639
4 C0 14 0 16 0
0

0101000
+88 0 -100 0 *
Ed
 1e-07 1 1 0
1  50 0 25.2903642047361 30.5534180126148
4 C0 14 0 16 0
0

0101000
+168 0 -175 0 *
Ve
1e-07
-2.88675134594813 5 29.5534180126148
0 0

0101101
*
Ed
 1e-07 1 1 0
1  51 0 0.00272976051748858 2.93165819875709
2  63 31 0 0.00272976051748858 2.93165819875709
4 C0 14 0 31 0
0

0101000
+84 0 -173 0 *
Ed
 1e-07 1 1 0
1  52 0 25.2903642047361 30.5534180126148
4 C0 14 0 28 0
0

0101000
+127 0 -84 0 *
Wi

0101100
+123 0 +93 0 -89 0 -87 0 +86 0 +98 0 +164 0 +85 0 -171 0 -83 0 
-82 0 *
Fa
0  1e-07 14 0

0111000
+81 0 *
Ve
1e-07
-2.88675134594813 -5 3.06151588455594e-16
0 0

0101101
*
Ed
 1e-07 1 1 0
1  53 0 -1.78987634594814 3.98362634594812
4 C0 16 0 4 0
0

0101000
+79 0 -88 0 *
Ed
 1e-07 1 1 0
1  54 0 1 24.7096357952639
4 C0 16 0 19 0
0

0101000
+79 0 -105 0 *
Ve
1e-07
-2.88675134594813 -5 29.5534180126148
0 0

0101101
*
Ed
 1e-07 1 1 0
1  55 0 25.2903642047361 30.5534180126148
4 C0 16 0 19 0
0

0101000
+160 0 -76 0 *
Ve
1e-07
-4.33012701892219 -2.5 30
0 0

0101101
*
Ed
 1e-07 1 1 0
1  56 0 2.93165819875709 5.86058663699669
2  64 32 0 2.93165819875709 5.86058663699669
4 C0 16 0 32 0
0

0101000
+74 0 -76 0 *
Ed
 1e-07 1 1 0
1  57 0 0.00272976051747978 2.93165819875709
2  65 13 0 0.00272976051747978 2.93165819875709
4 C0 16 0 13 0
0

0101000
+175 0 -74 0 *
Wi

0101100
+166 0 +99 0 -86 0 -78 0 +77 0 +103 0 +156 0 +75 0 -73 0 -72 0 
-85 0 *
Fa
0  1e-07 16 0

0111000
+71 0 *
Ve
1e-07
2.88675134594813 -5 3.06151588455594e-16
0 0

0101101
*
Ed
 1e-07 1 1 0
1  58 0 -0.69300134594813 5.08050134594813
4 C0 19 0 4 0
0

0101000
+69 0 -79 0 *
Ed
 1e-07 1 1 0
1  59 0 1 24.7096357952639
4 C0 19 0 23 0
0

0101000
+69 0 -110 0 *
Ve
1e-07
2.88675134594813 -5 29.5534180126148
0 0

0101101
*
Ed
 1e-07 1 1 0
1  60 0 25.2903642047361 30.5534180126148
4 C0 19 0 23 0
0

0101000
+151 0 -66 0 *
Ve
1e-07
-7.69185074553425e-16 -5 30
0 0

0101101
*
Ed
 1e-07 1 1 0
1  61 0 2.93165819875709 5.86058663699669
2  66 33 0 2.93165819875709 5.86058663699669
4 C0 19 0 33 0
0

0101000
+64 0 -66 0 *
Ed
 1e-07 1 1 0
1  62 0 0.00272976051748375 2.93165819875709
2  67 32 0 0.00272976051748375 2.93165819875709
4 C0 19 0 32 0
0

0101000
+76 0 -64 0 *
Wi

0101100
+158 0 +104 0 -77 0 -68 0 +67 0 +109 0 +150 0 +65 0 -63 0 -62 0 
-75 0 *
Fa
0  1e-07 19 0

0111000
+61 0 *
Ve
1e-07
5.77350269189626 -3.53525079574969e-16 2.16464529341534e-32
0 0

0101101
*
Ed
 1e-07 1 1 0
1  63 0 -1.78987634594813 3.98362634594813
4 C0 23 0 4 0
0

0101000
+59 0 -69 0 *
Ed
 1e-07 1 1 0
1  64 0 1 24.7096357952639
4 C0 23 0 11 0
0

0101000
+59 0 -115 0 *
Ed
 1e-07 1 1 0
1  65 0 25.2903642047361 30.5534180126148
4 C0 23 0 11 0
0

0101000
+144 0 -184 0 *
Ve
1e-07
4.33012701892219 -2.5 30
0 0

0101101
*
Ed
 1e-07 1 1 0
1  66 0 2.93165819875709 5.86058663699669
2  68 10 0 2.93165819875709 5.86058663699669
4 C0 23 0 10 0
0

0101000
+55 0 -184 0 *
Ed
 1e-07 1 1 0
1  67 0 0.00272976051748061 2.93165819875709
2  69 33 0 0.00272976051748061 2.93165819875709
4 C0 23 0 33 0
0

0101000
+66 0 -55 0 *
Wi

0101100
+147 0 +108 0 -67 0 -58 0 +57 0 +113 0 +140 0 +56 0 -54 0 -53 0 
-65 0 *
Fa
0  1e-07 23 0

0111000
+52 0 *
Ve
1e-07
0 5 30
0 0

0101101
*
Ed
 1e-07 1 1 0
1  68 0 1.5707963267949 2.61799387799149
2  70 31 0 1.5707963267949 2.61799387799149
4 C0 31 0 7 0
0

0101000
+50 0 -173 0 *
Ed
 1e-07 1 1 0
1  69 0 2.93165819875709 5.8605866369967
2  71 31 0 2.93165819875709 5.8605866369967
4 C0 31 0 28 0
0

0101000
+50 0 -84 0 *
Wi

0101100
+83 0 -49 0 +48 0 *
Fa
0  1e-07 31 0

0111000
+47 0 *
Ed
 1e-07 1 1 0
1  70 0 3.14159265358979 3.66519142918809
2  72 13 0 3.14159265358979 3.66519142918809
4 C0 13 0 7 0
0

0101000
+176 0 -74 0 *
Wi

0101100
+174 0 +72 0 -45 0 *
Fa
0  1e-07 13 0

0111000
+44 0 *
Ed
 1e-07 1 1 0
1  71 0 3.66519142918809 4.71238898038469
2  73 32 0 3.66519142918809 4.71238898038469
4 C0 32 0 7 0
0

0101000
+74 0 -64 0 *
Wi

0101100
+62 0 -42 0 +73 0 *
Fa
0  1e-07 32 0

0111000
+41 0 *
Ed
 1e-07 1 1 0
1  72 0 4.71238898038469 5.75958653158129
2  74 33 0 4.71238898038469 5.75958653158129
4 C0 33 0 7 0
0

0101000
+64 0 -55 0 *
Wi

0101100
+63 0 +53 0 -39 0 *
Fa
0  1e-07 33 0

0111000
+38 0 *
Ed
 1e-07 1 1 0
1  73 0 5.75958653158129 6.28318530717959
2  75 10 0 5.75958653158129 6.28318530717959
4 C0 10 0 7 0
0

0101000
+55 0 -183 0 *
Wi

0101100
+182 0 -36 0 +54 0 *
Fa
0  1e-07 10 0

0111000
+35 0 *
Ve
1e-07
2.88675134594813 5 29.5534180126148
0 0

0101101
*
Ed
 1e-07 1 1 0
1  74 0 2.93165819875709 5.86058663699669
2  76 34 0 2.93165819875709 5.86058663699669
4 C0 34 0 11 0
0

0101000
+181 0 -33 0 *
Ed
 1e-07 1 1 0
1  75 0 0.00272976051748351 2.93165819875709
2  77 34 0 0.00272976051748351 2.93165819875709
4 C0 34 0 28 0
0

0101000
+33 0 -50 0 *
Ed
 1e-07 1 1 0
1  76 0 0.523598775598299 1.5707963267949
2  78 34 0 0.523598775598299 1.5707963267949
4 C0 34 0 7 0
0

0101000
+181 0 -50 0 *
Wi

0101100
+32 0 +31 0 -30 0 *
Fa
0  1e-07 34 0

0111000
+29 0 *
Ed
 1e-07 1 1 0
1  77 0 0 3.14159265358979
2  79 8 0 0 3.14159265358979
4 C0 7 0 8 0
0

0101000
+190 0 -191 0 *
Wi

0101100
-27 0 -189 0 *
Wi

0101100
+36 0 +179 0 +30 0 +49 0 +172 0 +45 0 +42 0 +39 0 *
Fa
0  1e-07 7 0

0111000
+26 0 +25 0 *
Ed
 1e-07 1 1 0
1  78 0 0 3.14159265358979
2  80 8 0 0 3.14159265358979
2  81 6 0 0 3.14159265358979
4 C0 8 0 6 0
0

0101000
+197 0 -198 0 *
Wi

0101100
+23 0 -188 0 -27 0 -187 0 *
Fa
0  1e-07 8 0

0111000
+22 0 *
Ed
 1e-07 1 1 0
1  79 0 0 3.14159265358979
2  82 6 0 0 3.14159265358979
2  83 3 0 0 3.14159265358979
4 C0 6 0 3 0
0

0101000
+207 0 -208 0 *
Wi

0101100
+20 0 -195 0 -23 0 -194 0 *
Fa
0  1e-07 6 0

0111000
+19 0 *
Ed
 1e-07 1 1 0
1  80 0 0 3.14159265358979
2  84 3 0 0 3.14159265358979
4 C0 3 0 4 0
0

0101000
+203 0 -205 0 *
Wi

0101100
+17 0 -204 0 -20 0 -201 0 *
Fa
0  1e-07 3 0

0111000
+16 0 *
Ve
1e-07
2.88675134594813 5 -3.06151588455594e-16
0 0

0101101
*
Ed
 1e-07 1 1 0
1  81 0 -5.08050134594813 0.69300134594813
4 C0 4 0 28 0
0

0101000
+90 0 -14 0 *
Ed
 1e-07 1 1 0
1  82 0 -3.98362634594813 1.78987634594813
4 C0 4 0 11 0
0

0101000
+14 0 -59 0 *
Wi

0101100
+58 0 +68 0 +78 0 +87 0 +13 0 +12 0 *
Wi

0101100
+17 0 +202 0 *
Fa
0  1e-07 4 0

0111000
+11 0 +10 0 *
Ed
 1e-07 1 1 0
1  83 0 25.2903642047361 30.5534180126148
4 C0 28 0 11 0
0

0101000
+135 0 -33 0 *
Ed
 1e-07 1 1 0
1  84 0 1 24.7096357952639
4 C0 28 0 11 0
0

0101000
+14 0 -120 0 *
Wi

0101100
+126 0 +82 0 -48 0 -31 0 -8 0 +131 0 +118 0 -7 0 -13 0 +89 0 
+94 0 *
Fa
0  1e-07 28 0

0111000
+6 0 *
Wi

0101100
+134 0 +8 0 -32 0 -180 0 -56 0 +142 0 +114 0 -57 0 -12 0 +7 0 
+119 0 *
Fa
0  1e-07 11 0

0111000
+4 0 *
Sh

0101100
-199 0 -192 0 -185 0 +177 0 +169 0 +161 0 +153 0 +145 0 +137 0 +129 0 
+121 0 +116 0 +111 0 +106 0 +101 0 +96 0 +91 0 +80 0 +70 0 +60 0 
+51 0 +46 0 +43 0 +40 0 +37 0 +34 0 +28 0 +24 0 -21 0 -18 0 
-15 0 +9 0 +5 0 +3 0 *
So

0100000
+2 0 *

+1 0 