DBRep_DrawableShape

CASCADE Topology V1, (c) Matra-Datavision
Locations 0
Curve2ds 50
1 0 -0.4242640687119294 1 0 
1 0 3.899999999999999 1 0 
1 3.1415926535897931 1.6653345369377348e-16 0 1 
1 3.1415926535897931 1.6653345369377348e-16 0 1 
1 3.1415926535897931 0.42426406871192834 -1 0 
1 0 1.1102230246251565e-16 0 -1 
1 6.2831853071795862 1.1102230246251565e-16 0 -1 
1 0 3.899999999999999 1 0 
1 0 -0.4242640687119294 1 0 
1 3.1415926535897931 0 0 -1 
1 3.1415926535897931 0 0 -1 
1 0 -3.9000000000000004 1 0 
1 6.2831853071795862 -0.42426406871192801 -1 0 
1 6.2831853071795862 0 0 1 
1 0 0 0 1 
1 3.1415926535897931 2.2204460492503131e-16 0 1 
1 3.1415926535897931 2.2204460492503131e-16 0 1 
1 3.1415926535897931 0.4242640687119289 -1 0 
1 0 6.6613381477509392e-16 0 -1 
1 6.2831853071795862 6.6613381477509392e-16 0 -1 
1 6.2831853071795862 0 0 -1 
1 0 0 0 -1 
1 0 1.5 1 0 
1 3.1415926535897931 0 0 1 
1 3.1415926535897931 0 0 1 
1 6.2831853071795862 -1.5 -1 0 
1 6.2831853071795862 -1.5 -1 0 
1 0 1.5 1 0 
1 9.4247779607693793 0.4242640687119289 -1 0 
1 6.2831853071795862 -0.42426406871192801 -1 0 
1 0 -3.9000000000000004 1 0 
1 9.4247779607693793 0.42426406871192834 -1 0 
7 0 0  3 25 23  5.7595865315812977 -0.25323168882038005  5.7667290397124198 -0.27984968956943157  5.7810922755344283 -0.33173279104129327  5.8028703222576885 -0.40557700131927865  5.8248801957911809 -0.47552194195538572  5.8471201816732519 -0.54163858575100154  5.8695883270898568 -0.60399153603402034  5.8922824018392213 -0.66263827403275444  5.9151998997623991 -0.71762959343415755  5.9383380299586559 -0.76900967763047012  5.9616937114440036 -0.81681623469017939  5.9852635676721269 -0.86108057971192009  6.0090439219566241 -0.90182769468437773  6.0330307935946443 -0.93907625801468575  6.0572198948245095 -0.97283864580038393  6.0816066286520165 -1.0031209037587574  6.1061860876286662 -1.0299226899617195  6.1309530535543546 -1.0532371852024649  6.1559019984521077 -1.073050978257303  6.1810270857504737 -1.089343893168494  6.2063221758539484 -1.102088873955422  6.2317808206834018 -1.1112514871907466  6.2573963048808814 -1.1167906723135272  6.2745731139484286 -1.1180333203673538  6.2831853071795853 -1.1180339887498949 
 1.82923119408594 4 1.9741927589098791 1 2.1191543237338184 1 2.2641158885577575 1 2.4090774533816965 1 2.5540390182056356 1 2.6990005830295747 1 2.8439621478535138 1 2.9889237126774528 1 3.1338852775013919 1 3.278846842325331 1 3.42380840714927 1 3.5687699719732091 1 3.7137315367971482 1 3.8586931016210873 1 4.0036546664450263 1 4.1486162312689654 1 4.2935777960929045 1 4.4385393609168435 1 4.5835009257407826 1 4.7284624905647217 1 4.8734240553886607 1 5.0183856202125998 4
7 0 0  3 25 23  0 -1.1180339887498949  0.0086121932311584784 -1.1180333203673518  0.025789002298707796 -1.116790672313525  0.051404486496185682 -1.1112514871907504  0.076863131325639475 -1.1020888739554182  0.10215822142911306 -1.0893438931684947  0.12728330872748159 -1.0730509782573037  0.15223225362523318 -1.0532371852024629  0.17699921955092288 -1.029922689961718  0.20157867852757033 -1.0031209037587525  0.22596541235508 -0.97283864580038126  0.25015451358494212 -0.9390762580146822  0.27414138522296322 -0.90182769468437596  0.2979217395074602 -0.86108057971191621  0.32149159573558328 -0.81681623469017861  0.34484727722093145 -0.76900967763046757  0.36798540741718899 -0.71762959343415855  0.39090290534036315 -0.662638274032748  0.41359698008973117 -0.60399153603402123  0.43606512550633381 -0.54163858575099921  0.45830511138840729 -0.47552194195538428  0.48031498492189872 -0.40557700131927693  0.5020930316451564 -0.3317327910412966  0.51645626746716589 -0.2798496895694344  0.52359877559828849 -0.25323168882038083 
 5.0183856202125998 4 5.1633471850365389 1 5.308308749860478 1 5.453270314684417 1 5.5982318795083561 1 5.7431934443322952 1 5.8881550091562342 1 6.0331165739801733 1 6.1780781388041124 1 6.3230397036280515 1 6.4680012684519905 1 6.6129628332759296 1 6.7579243980998687 1 6.9028859629238077 1 7.0478475277477468 1 7.1928090925716859 1 7.337770657395625 1 7.482732222219564 1 7.6276937870435031 1 7.7726553518674422 1 7.9176169166913812 1 8.0625784815153203 1 8.2075400463392594 4
7 0 0  3 25 23  4.7123889803846994 -0.25323168882038322  4.7195314885158224 -0.27984968956943551  4.7338947243378318 -0.3317327910412981  4.7556727710610902 -0.40557700131928409  4.7776826445945817 -0.47552194195538799  4.7999226304766553 -0.54163858575100621  4.8223907758932576 -0.60399153603402822  4.8450848506426265 -0.66263827403275599  4.8680023485657999 -0.71762959343416333  4.8911404787620585 -0.76900967763047401  4.9144961602474071 -0.81681623469018172  4.9380660164755286 -0.86108057971192464  4.9618463707600258 -0.90182769468438118  4.9858332423980469 -0.93907625801469063  5.0100223436279103 -0.97283864580038526  5.03440907745542 -1.0031209037587585  5.0589885364320679 -1.0299226899617195  5.0837555023577563 -1.0532371852024691  5.1087044472555068 -1.073050978257307  5.133829534553878 -1.0893438931684969  5.1591246246573492 -1.1020888739554251  5.1845832694868026 -1.11125148719075  5.2101987536842813 -1.1167906723135288  5.2273755627518304 -1.1180333203673563  5.2359877559829888 -1.118033988749898 
 1.82923119408595 4 1.9741927589098887 1 2.1191543237338273 1 2.2641158885577659 1 2.4090774533817045 1 2.5540390182056432 1 2.6990005830295818 1 2.8439621478535204 1 2.988923712677459 1 3.1338852775013977 1 3.2788468423253363 1 3.4238084071492749 1 3.5687699719732136 1 3.7137315367971522 1 3.8586931016210908 1 4.0036546664450299 1 4.1486162312689681 1 4.2935777960929062 1 4.4385393609168453 1 4.5835009257407844 1 4.7284624905647226 1 4.8734240553886607 1 5.0183856202125998 4
7 0 0  3 25 23  5.2359877559829888 -1.118033988749898  5.2445999492141464 -1.1180333203673551  5.2617767582816946 -1.1167906723135272  5.2873922424791733 -1.1112514871907517  5.3128508873086275 -1.1020888739554204  5.3381459774121005 -1.0893438931684987  5.3632710647104691 -1.0730509782573037  5.3882200096082187 -1.0532371852024671  5.4129869755339097 -1.0299226899617193  5.4375664345105585 -1.0031209037587552  5.4619531683380673 -0.97283864580038415  5.4861422695679272 -0.93907625801468719  5.5101291412059501 -0.90182769468438095  5.5339094954904455 -0.86108057971191909  5.5574793517185705 -0.81681623469018017  5.5808350332039183 -0.7690096776304729  5.603973163400175 -0.71762959343415866  5.6268906613233503 -0.6626382740327571  5.6495847360727192 -0.60399153603402356  5.6720528814893214 -0.54163858575100532  5.6942928673713942 -0.47552194195538638  5.7163027409048874 -0.40557700131928126  5.7380807876281459 -0.33173279104129672  5.7524440234501544 -0.27984968956943457  5.7595865315812773 -0.25323168882038244 
 5.0183856202125998 4 5.1633471850365389 1 5.308308749860478 1 5.453270314684417 1 5.5982318795083561 1 5.7431934443322952 1 5.8881550091562342 1 6.0331165739801733 1 6.1780781388041124 1 6.3230397036280515 1 6.4680012684519905 1 6.6129628332759296 1 6.7579243980998687 1 6.9028859629238077 1 7.0478475277477468 1 7.1928090925716859 1 7.337770657395625 1 7.482732222219564 1 7.6276937870435031 1 7.7726553518674422 1 7.9176169166913812 1 8.0625784815153203 1 8.2075400463392594 4
7 0 0  3 25 23  3.6651914291881016 -0.25323168882038244  3.672333937319225 -0.2798496895694339  3.6866971731412344 -0.3317327910412956  3.7084752198644924 -0.40557700131928115  3.7304850933979838 -0.47552194195538827  3.7527250792800571 -0.54163858575100277  3.7751932246966602 -0.60399153603402689  3.7978872994460282 -0.66263827403275588  3.8208047973692012 -0.71762959343415988  3.8439429275654606 -0.76900967763047368  3.8672986090508088 -0.81681623469018072  3.8908684652789307 -0.8610805797119202  3.9146488195634288 -0.90182769468438118  3.9386356912014477 -0.9390762580146863  3.9628247924313134 -0.97283864580038326  3.9872115262588212 -1.0031209037587558  4.0117909852354696 -1.0299226899617187  4.0365579511611598 -1.053237185202466  4.0615068960589076 -1.0730509782573048  4.0866319833572806 -1.089343893168496  4.11192707346075 -1.1020888739554227  4.1373857182902061 -1.1112514871907502  4.1630012024876821 -1.116790672313529  4.1801780115552321 -1.1180333203673556  4.1887902047863905 -1.1180339887498971 
 1.82923119408595 4 1.9741927589098887 1 2.1191543237338273 1 2.2641158885577659 1 2.4090774533817045 1 2.5540390182056432 1 2.6990005830295818 1 2.8439621478535204 1 2.988923712677459 1 3.1338852775013977 1 3.2788468423253363 1 3.4238084071492749 1 3.5687699719732136 1 3.7137315367971522 1 3.8586931016210908 1 4.0036546664450299 1 4.1486162312689681 1 4.2935777960929062 1 4.4385393609168453 1 4.5835009257407844 1 4.7284624905647226 1 4.8734240553886607 1 5.0183856202125998 4
7 0 0  3 25 23  4.1887902047863905 -1.1180339887498971  4.1974023980175481 -1.1180333203673545  4.2145792070850971 -1.1167906723135277  4.2401946912825768 -1.111251487190752  4.2656533361120292 -1.1020888739554231  4.2909484262155022 -1.0893438931684982  4.3160735135138699 -1.0730509782573083  4.3410224584116213 -1.0532371852024671  4.3657894243373114 -1.0299226899617204  4.3903688833139602 -1.0031209037587567  4.414755617141469 -0.97283864580038593  4.4389447183713298 -0.93907625801468919  4.4629315900093518 -0.90182769468438173  4.4867119442938481 -0.86108057971192442  4.5102818005219723 -0.81681623469018194  4.5336374820073209 -0.76900967763047379  4.5567756122035776 -0.71762959343416333  4.579693110126752 -0.66263827403275699  4.60238718487612 -0.60399153603402556  4.6248553302927222 -0.54163858575100687  4.6470953161747968 -0.47552194195538772  4.6691051897082891 -0.40557700131928376  4.6908832364315476 -0.33173279104129938  4.7052464722535561 -0.27984968956943629  4.712388980384679 -0.25323168882038322 
 5.0183856202125998 4 5.1633471850365389 1 5.308308749860478 1 5.453270314684417 1 5.5982318795083561 1 5.7431934443322952 1 5.8881550091562342 1 6.0331165739801733 1 6.1780781388041124 1 6.3230397036280515 1 6.4680012684519905 1 6.6129628332759296 1 6.7579243980998687 1 6.9028859629238077 1 7.0478475277477468 1 7.1928090925716859 1 7.337770657395625 1 7.482732222219564 1 7.6276937870435031 1 7.7726553518674422 1 7.9176169166913812 1 8.0625784815153203 1 8.2075400463392594 4
7 0 0  3 25 23  0.5235987755983087 -0.25323168882038244  0.53074128372943152 -0.27984968956943379  0.54510451955144157 -0.33173279104129566  0.56688256627469924 -0.40557700131928137  0.58889243980819128 -0.47552194195538749  0.61113242569026449 -0.54163858575100121  0.63360057110686818 -0.60399153603402433  0.65629464585623565 -0.66263827403275299  0.67921214377941042 -0.71762959343415544  0.70235027397566807 -0.76900967763047023  0.72570595546101646 -0.81681623469017661  0.74927581168913948 -0.86108057971191654  0.77305616597363636 -0.9018276946843764  0.79704303761165773 -0.93907625801468109  0.82123213884151969 -0.97283864580038026  0.84561887266902924 -1.0031209037587492  0.87019833164567706 -1.0299226899617122  0.89496529757136634 -1.0532371852024596  0.91991424246911768 -1.0730509782572994  0.94503932976748628 -1.0893438931684896  0.97033441987096003 -1.1020888739554142  0.99579306470041318 -1.1112514871907431  1.0214085488978917 -1.1167906723135199  1.0385853579654403 -1.1180333203673469  1.0471975511965983 -1.1180339887498894 
 1.82923119408594 4 1.9741927589098791 1 2.1191543237338184 1 2.2641158885577575 1 2.4090774533816965 1 2.5540390182056356 1 2.6990005830295747 1 2.8439621478535138 1 2.9889237126774528 1 3.1338852775013919 1 3.278846842325331 1 3.42380840714927 1 3.5687699719732091 1 3.7137315367971482 1 3.8586931016210873 1 4.0036546664450263 1 4.1486162312689654 1 4.2935777960929045 1 4.4385393609168435 1 4.5835009257407826 1 4.7284624905647217 1 4.8734240553886607 1 5.0183856202125998 4
1 6.2831853071795862 -1.1180339887498949 -1 0 
7 0 0  3 25 23  1.5707963267949074 -0.25323168882038322  1.5779388349260304 -0.27984968956943551  1.59230207074804 -0.33173279104129821  1.6140801174712978 -0.40557700131928398  1.6360899910047892 -0.47552194195538838  1.6583299768868627 -0.54163858575100488  1.680798122303466 -0.60399153603402844  1.7034921970528334 -0.66263827403275632  1.7264096949760077 -0.71762959343416222  1.749547825172266 -0.76900967763047423  1.7729035066576138 -0.81681623469018205  1.796473362885737 -0.86108057971192364  1.8202537171702333 -0.90182769468438029  1.8442405888082549 -0.93907625801469097  1.8684296900381168 -0.97283864580038526  1.8928164238656267 -1.0031209037587572  1.9173958828422739 -1.0299226899617187  1.9421628487679636 -1.0532371852024676  1.9671117936657152 -1.0730509782573086  1.9922368809640834 -1.0893438931684982  2.0175319710675574 -1.1020888739554231  2.0429906158970104 -1.1112514871907504  2.0686061000944895 -1.1167906723135288  2.0857829091620377 -1.118033320367356  2.0943951023931957 -1.118033988749898 
 1.82923119408594 4 1.9741927589098791 1 2.1191543237338184 1 2.2641158885577575 1 2.4090774533816965 1 2.5540390182056356 1 2.6990005830295747 1 2.8439621478535138 1 2.9889237126774528 1 3.1338852775013919 1 3.278846842325331 1 3.42380840714927 1 3.5687699719732091 1 3.7137315367971482 1 3.8586931016210873 1 4.0036546664450263 1 4.1486162312689654 1 4.2935777960929045 1 4.4385393609168435 1 4.5835009257407826 1 4.7284624905647217 1 4.8734240553886607 1 5.0183856202125998 4
7 0 0  3 25 23  1.0471975511965983 -1.1180339887498894  1.0558097444277563 -1.1180333203673454  1.0729865534953054 -1.1167906723135179  1.098602037692783 -1.1112514871907457  1.1240606825222368 -1.1020888739554144  1.1493557726257102 -1.0893438931684909  1.1744808599240788 -1.0730509782572979  1.1994298048218297 -1.0532371852024596  1.2241967707475194 -1.0299226899617135  1.2487762297241671 -1.0031209037587487  1.2731629635516766 -0.97283864580037649  1.2973520647815384 -0.93907625801468086  1.3213389364195598 -0.90182769468437207  1.3451192907040566 -0.8610805797119141  1.3686891469321802 -0.81681623469017539  1.3920448284175275 -0.76900967763046457  1.4151829586137856 -0.71762959343415444  1.4381004565369597 -0.66263827403274889  1.4607945312863275 -0.60399153603401834  1.4832626767029307 -0.54163858575099566  1.5055026625850043 -0.47552194195538228  1.5275125361184965 -0.40557700131927421  1.5492905828417542 -0.33173279104129078  1.5636538186637634 -0.27984968956942768  1.5707963267948863 -0.2532316888203745 
 5.0183856202125998 4 5.1633471850365389 1 5.308308749860478 1 5.453270314684417 1 5.5982318795083561 1 5.7431934443322952 1 5.8881550091562342 1 6.0331165739801733 1 6.1780781388041124 1 6.3230397036280515 1 6.4680012684519905 1 6.6129628332759296 1 6.7579243980998687 1 6.9028859629238077 1 7.0478475277477468 1 7.1928090925716859 1 7.337770657395625 1 7.482732222219564 1 7.6276937870435031 1 7.7726553518674422 1 7.9176169166913812 1 8.0625784815153203 1 8.2075400463392594 4
1 6.2831853071795862 -1.1180339887498949 -1 0 
7 0 0  3 25 23  2.6179938779915046 -0.25323168882037927  2.6251363861226276 -0.27984968956943335  2.6394996219446374 -0.33173279104129649  2.6612776686678954 -0.40557700131927887  2.6832875422013869 -0.47552194195538644  2.7055275280834592 -0.54163858575100321  2.7279956735000637 -0.60399153603402322  2.7506897482494308 -0.66263827403275499  2.773607246172606 -0.71762959343415811  2.7967453763688646 -0.76900967763047212  2.8201010578542105 -0.81681623469018028  2.8436709140823351 -0.86108057971191965  2.8674512683668305 -0.90182769468437884  2.8914381400048526 -0.93907625801468708  2.9156272412347151 -0.97283864580038271  2.9400139750622234 -1.003120903758757  2.9645934340388718 -1.0299226899617173  2.9893603999645615 -1.0532371852024649  3.0143093448623124 -1.0730509782573057  3.0394344321606814 -1.0893438931684936  3.0647295222641548 -1.1020888739554202  3.0901881670936078 -1.1112514871907486  3.1158036512910878 -1.1167906723135248  3.1329804603586351 -1.1180333203673516  3.1415926535897931 -1.1180339887498949 
 1.82923119408594 4 1.9741927589098791 1 2.1191543237338184 1 2.2641158885577575 1 2.4090774533816965 1 2.5540390182056356 1 2.6990005830295747 1 2.8439621478535138 1 2.9889237126774528 1 3.1338852775013919 1 3.278846842325331 1 3.42380840714927 1 3.5687699719732091 1 3.7137315367971482 1 3.8586931016210873 1 4.0036546664450263 1 4.1486162312689654 1 4.2935777960929045 1 4.4385393609168435 1 4.5835009257407826 1 4.7284624905647217 1 4.8734240553886607 1 5.0183856202125998 4
7 0 0  3 25 23  2.0943951023931957 -1.118033988749898  2.1030072956243537 -1.1180333203673551  2.1201841046919028 -1.1167906723135272  2.1457995888893806 -1.1112514871907517  2.1712582337188344 -1.1020888739554204  2.1965533238223078 -1.0893438931684987  2.2216784111206755 -1.0730509782573039  2.2466273560184278 -1.0532371852024665  2.2713943219441166 -1.0299226899617171  2.295973780920765 -1.0031209037587561  2.3203605147482742 -0.97283864580038271  2.3445496159781354 -0.93907625801468708  2.3685364876161574 -0.90182769468437907  2.3923168419006533 -0.86108057971191798  2.4158866981287774 -0.81681623469017728  2.4392423796141247 -0.76900967763047101  2.4623805098103824 -0.717629593434155  2.4852980077335571 -0.6626382740327541  2.5079920824829243 -0.60399153603402056  2.5304602278995278 -0.54163858575100066  2.5527002137816006 -0.47552194195538416  2.574710087315093 -0.40557700131927582  2.5964881340383519 -0.33173279104129211  2.6108513698603599 -0.27984968956943002  2.6179938779914829 -0.25323168882037767 
 5.0183856202125998 4 5.1633471850365389 1 5.308308749860478 1 5.453270314684417 1 5.5982318795083561 1 5.7431934443322952 1 5.8881550091562342 1 6.0331165739801733 1 6.1780781388041124 1 6.3230397036280515 1 6.4680012684519905 1 6.6129628332759296 1 6.7579243980998687 1 6.9028859629238077 1 7.0478475277477468 1 7.1928090925716859 1 7.337770657395625 1 7.482732222219564 1 7.6276937870435031 1 7.7726553518674422 1 7.9176169166913812 1 8.0625784815153203 1 8.2075400463392594 4
1 6.2831853071795862 -1.1180339887498949 -1 0 
7 0 0  3 25 23  3.1415926535897931 -1.1180339887498949  3.1502048468209511 -1.1180333203673529  3.1673816558884997 -1.1167906723135261  3.1929971400859776 -1.1112514871907484  3.2184557849154318 -1.10208887395542  3.2437508750189039 -1.0893438931684958  3.2688759623172734 -1.0730509782573026  3.2938249072150234 -1.0532371852024645  3.318591873140714 -1.0299226899617206  3.3431713321173615 -1.0031209037587536  3.3675580659448716 -0.97283864580038359  3.3917471671747328 -0.93907625801468719  3.4157340388127539 -0.90182769468437673  3.439514393097252 -0.86108057971191887  3.4630842493253762 -0.81681623469018094  3.486439930810723 -0.76900967763047079  3.5095780610069802 -0.71762959343415789  3.5324955589301545 -0.66263827403275255  3.5551896336795239 -0.603991536034023  3.5776577790961248 -0.54163858575100254  3.5998977649782002 -0.47552194195538389  3.6219076385116904 -0.40557700131927948  3.6436856852349484 -0.33173279104129499  3.6580489210569587 -0.27984968956943296  3.6651914291880816 -0.25323168882038083 
 5.0183856202125998 4 5.1633471850365389 1 5.3083087498604771 1 5.4532703146844161 1 5.5982318795083543 1 5.7431934443322934 1 5.8881550091562316 1 6.0331165739801706 1 6.1780781388041088 1 6.3230397036280479 1 6.4680012684519861 1 6.6129628332759252 1 6.7579243980998633 1 6.9028859629238024 1 7.0478475277477415 1 7.1928090925716797 1 7.3377706573956178 1 7.4827322222195569 1 7.627693787043496 1 7.7726553518674342 1 7.9176169166913724 1 8.0625784815153114 1 8.2075400463392505 4
1 6.2831853071795862 -1.1180339887498949 -1 0 
1 6.2831853071795862 -1.1180339887498931 -1 -8.4814791505693729e-16 
1 6.2831853071795862 -1.1180339887498949 -1 8.4814791505693807e-16 
Curves 50
2 -1.10214571844014e-16 6.7484732481996204e-33 0.60000000000000098 1.8369095307335701e-16 -1.1247455413666101e-32 -1 -6.12303176911189e-17 -1 3.6948299352314513e-47 -1 6.12303176911189e-17 -1.8369095307335701e-16 2.3999999999999999
1 4.4085828737605599e-16 2.7000000000000002 0.29999999999999999 2.5977823712158098e-16 0.70710678118654702 -0.70710678118654802 
2 0 0 0 0 -0 1 6.12303176911189e-17 1 0 -1 6.12303176911189e-17 0 3
1 -5.5107285922006996e-16 -2.7000000000000002 0.29999999999999999 -3.1043137473974999e-31 0.70710678118654702 0.70710678118654802 
2 -1.10214571844014e-16 6.7484732481996204e-33 0.60000000000000098 1.8369095307335701e-16 -1.1247455413666101e-32 -1 -6.12303176911189e-17 -1 3.6948299352314513e-47 -1 6.12303176911189e-17 -1.8369095307335701e-16 2.3999999999999999
1 -9.7356205128879008e-16 2.3999999999999999 4.5 -1.8369095307335701e-16 1.1247455413666101e-32 1 
2 -1.5430040058162e-15 9.4478625474794705e-32 8.4000000000000004 1.8369095307335701e-16 -1.1247455413666101e-32 -1 -6.12303176911189e-17 -1 3.6948299352314513e-47 -1 6.12303176911189e-17 -1.8369095307335701e-16 2.3999999999999999
1 -6.7965652637142001e-16 -2.3999999999999999 4.5 1.8369095307335701e-16 -1.1247455413666101e-32 -1 
1 -1.76343314950422e-15 2.7000000000000002 8.6999999999999993 -1.7318549141438701e-16 0.70710678118654802 0.70710678118654702 
2 -1.6532185776602101e-15 1.0122709872299399e-31 9 0 0 -1 6.12303176911189e-17 1 0 1 -6.12303176911189e-17 0 3
1 -1.43278943397218e-15 -2.7000000000000002 8.6999999999999993 8.6592745707193801e-17 0.70710678118654802 -0.70710678118654702 
1 1.2858366715135001e-15 7 1.5 -0 0 -1 
2 0 0 3 0 -0 1 6.12303176911189e-17 1 0 -1 6.12303176911189e-17 0 7
1 -1.2858366715135001e-15 -7 1.5 0 0 1 
2 0 0 0 0 0 -1 6.12303176911189e-17 1 0 1 -6.12303176911189e-17 0 7
2 0 0 0 0 0 -1 6.12303176911189e-17 1 0 1 -6.12303176911189e-17 0 7
2 0 0 3 0 -0 1 6.12303176911189e-17 1 0 -1 6.12303176911189e-17 0 7
2 -1.6532185776602101e-15 1.0122709872299399e-31 9 0 0 -1 6.12303176911189e-17 1 0 1 -6.12303176911189e-17 0 3
2 -1.5430040058162e-15 9.4478625474794705e-32 8.4000000000000004 1.8369095307335701e-16 -1.1247455413666101e-32 -1 -6.12303176911189e-17 -1 3.6948299352314513e-47 -1 6.12303176911189e-17 -1.8369095307335701e-16 2.3999999999999999
2 0 0 0 0 -0 1 6.12303176911189e-17 1 0 -1 6.12303176911189e-17 0 3
1 1.4433756729740601 -5 3 1 -2.15067332601804e-16 0 
1 -3.60843918243516 -3.75 3 0.49999999999999989 -0.86602540378443882 0 
1 -5.0518148554092202 1.25 3 -0.49999999999999989 -0.86602540378443882 0 
1 1.8445217375624398e-15 5 3 -1 6.7657837733385804e-16 0 
1 3.6084391824351698 3.75 3 -0.49999999999999989 0.86602540378443882 0 
1 5.0518148554092299 -1.25 3 0.50000000000000033 0.86602540378443849 -0 
1 -2.88675134594813 5 0 0 0 1 
7 1 0  2 3 2  -2.8867513459480598 5 8.6132486540518904  1.0442180706459301 -1.3397459621555801 5 9  1.06065480694854 3.3828918866692901e-15 5 9  1
 1.82923119408594 3 5.0183856202125998 3
7 1 0  2 3 2  3.3828918866692901e-15 5 9  1 1.3397459621555901 5 9  1.06065480694855 2.8867513459480598 5 8.6132486540518904  1.0442180706459401
 5.0183856202125998 3 8.2075400463392594 3
1 2.88675134594813 5 0 0 0 1 
1 -5.77350269189626 3.5351340401533798e-16 0 0 0 1 
7 1 0  2 3 2  -5.77350269189622 5.81575833191914e-14 8.6132486540518904  1.0442180706459301 -4.9999999999999796 1.33974596215564 9  1.06065480694855 -4.3301270189221901 2.5 9  1
 1.82923119408595 3 5.0183856202125998 3
7 1 0  2 3 2  -4.3301270189221901 2.5 9  1 -3.6602540378444002 3.6602540378443602 9  1.06065480694855 -2.8867513459481602 4.9999999999999396 8.6132486540518904  1.0442180706459301
 5.0183856202125998 3 8.2075400463392594 3
1 -2.88675134594813 -5 0 0 0 1 
7 1 0  2 3 2  -2.8867513459481602 -4.9999999999999396 8.6132486540518904  1.0442180706459301 -3.6602540378444002 -3.6602540378443602 9  1.06065480694855 -4.3301270189221901 -2.5 9  1
 1.82923119408595 3 5.0183856202125998 3
7 1 0  2 3 2  -4.3301270189221901 -2.5 9  1 -4.9999999999999796 -1.33974596215564 9  1.06065480694855 -5.77350269189622 -5.9327114245171495e-14 8.6132486540518904  1.0442180706459301
 5.0183856202125998 3 8.2075400463392594 3
7 1 0  2 3 2  2.8867513459481602 4.9999999999999396 8.6132486540518904  1.0442180706459301 3.6602540378444099 3.6602540378443602 9  1.06065480694855 4.3301270189221999 2.5 9  1
 1.82923119408594 3 5.0183856202125998 3
2 0 0 9 0 -0 1 6.12303176911189e-17 1 0 -1 6.12303176911189e-17 0 5
7 1 0  2 3 2  5.77350269189622 -6.2516744043298998e-14 8.6132486540518904  1.0442180706459301 4.9999999999999796 -1.33974596215564 9  1.06065480694855 4.3301270189221901 -2.5 9  1
 1.82923119408594 3 5.0183856202125998 3
7 1 0  2 3 2  4.3301270189221999 2.5 9  1 4.9999999999999902 1.33974596215564 9  1.06065480694855 5.7735026918962298 5.9539756231713298e-14 8.6132486540518904  1.0442180706459301
 5.0183856202125998 3 8.2075400463392594 3
2 0 0 9 0 -0 1 6.12303176911189e-17 1 0 -1 6.12303176911189e-17 0 5
7 1 0  2 3 2  2.8867513459480598 -5 8.6132486540518904  1.0442180706459301 1.3397459621555801 -5 9  1.06065480694855 -1.1102230246251601e-15 -5 9  1
 1.82923119408594 3 5.0183856202125998 3
7 1 0  2 3 2  4.3301270189221901 -2.5 9  1 3.6602540378444002 -3.6602540378443602 9  1.06065480694855 2.88675134594817 -4.9999999999999396 8.6132486540518904  1.0442180706459301
 5.0183856202125998 3 8.2075400463392594 3
2 0 0 9 0 -0 1 6.12303176911189e-17 1 0 -1 6.12303176911189e-17 0 5
7 1 0  2 3 2  -1.1102230246251601e-15 -5 9  1 -1.3397459621555801 -5 9  1.06065480694854 -2.8867513459480598 -5 8.6132486540518904  1.0442180706459301
 5.0183856202125998 3 8.2075400463392505 3
2 0 0 9 0 -0 1 6.12303176911189e-17 1 0 -1 6.12303176911189e-17 0 5
2 0 0 9 0 -0 1 6.12303176911189e-17 1 0 -1 6.12303176911189e-17 0 5
2 0 0 9 0 -0 1 6.12303176911189e-17 1 0 -1 6.12303176911189e-17 0 5
1 2.88675134594813 -5 0 0 0 1 
1 5.77350269189626 -2.1298702434155898e-15 0 0 0 1 
Polygon3D 0
PolygonOnTriangulations 0
Surfaces 23
3 -5.5107285922006999e-17 3.3742366240998102e-33 0.29999999999999999 1.8369095307335701e-16 -1.1247455413666101e-32 -1 -6.12303176911189e-17 -1 3.6948299352314513e-47 -1 6.12303176911189e-17 -1.8369095307335701e-16 2.7000000000000002
0.78539816339744795
2 -8.2660928883010504e-16 5.0613549361497095e-32 4.5 1.8369095307335701e-16 -1.1247455413666101e-32 -1 -6.12303176911189e-17 -1 3.6948299352314513e-47 -1 6.12303176911189e-17 -1.8369095307335701e-16 2.3999999999999999
3 -5.5107285922006999e-17 3.3742366240998102e-33 0.29999999999999999 1.8369095307335701e-16 -1.1247455413666101e-32 -1 -6.12303176911189e-17 -1 3.6948299352314513e-47 -1 6.12303176911189e-17 -1.8369095307335701e-16 2.7000000000000002
0.78539816339744795
1 2.7061686225238199e-15 5.5511151231257797e-16 0 -0 0 1 1 0 0 0 1 -0 
2 -8.2660928883010504e-16 5.0613549361497095e-32 4.5 1.8369095307335701e-16 -1.1247455413666101e-32 -1 -6.12303176911189e-17 -1 3.6948299352314513e-47 -1 6.12303176911189e-17 -1.8369095307335701e-16 2.3999999999999999
3 -1.5981112917382e-15 9.7852862098894496e-32 8.6999999999999993 -1.8369095307335701e-16 1.1247455413666101e-32 1 -6.12303176911189e-17 -1 3.6948299352314513e-47 1 -6.12303176911189e-17 1.8369095307335701e-16 2.7000000000000002
0.78539816339744895
3 -1.5981112917382e-15 9.7852862098894496e-32 8.6999999999999993 -1.8369095307335701e-16 1.1247455413666101e-32 1 -6.12303176911189e-17 -1 3.6948299352314513e-47 1 -6.12303176911189e-17 1.8369095307335701e-16 2.7000000000000002
0.78539816339744895
1 2.7061686225238199e-15 5.5511151231257797e-16 9 -0 0 1 1 0 0 0 1 -0 
2 0 0 1.5 0 -0 1 6.12303176911189e-17 1 0 -1 6.12303176911189e-17 0 7
2 0 0 1.5 0 -0 1 6.12303176911189e-17 1 0 -1 6.12303176911189e-17 0 7
1 0 0 3 -0 0 1 1 0 0 0 1 -0 
1 2.88675134594813 -5 0 -2.15067332601804e-16 -1 0 -1 2.15067332601804e-16 0 -0 0 -1 
1 -2.88675134594813 -5 0 -0.86602540378443882 -0.49999999999999989 0 -0.49999999999999989 0.86602540378443882 0 -0 0 -1 
1 -5.77350269189626 3.5351340401533798e-16 0 -0.86602540378443882 0.49999999999999989 0 0 0 1 0.49999999999999989 0.86602540378443882 -0 
1 3.0615158845559402e-16 5 0 3.0970936828228e-46 1 4.5775830067571604e-31 1 2.3336307291979281e-61 -6.7657837733385804e-16 -6.7657837733385804e-16 4.5775830067571604e-31 -1 
1 2.88675134594813 5 0 0.86602540378443882 0.49999999999999989 0 0 0 -1 -0.49999999999999989 0.86602540378443882 0 
1 5.77350269189626 -2.1298702434155898e-15 0 0.86602540378443849 -0.50000000000000033 0 0 0 -1 0.50000000000000033 0.86602540378443849 0 
3 3.0615158845559401e-17 -1.8745759022776701e-33 8.5 6.12303176911189e-17 -3.7491518045553498e-33 -1 6.12303176911189e-17 1 -1.3684555315672042e-48 1 -6.12303176911189e-17 6.12303176911189e-17 6
1.10714871779409
3 3.0615158845559401e-17 -1.8745759022776701e-33 8.5 6.12303176911189e-17 -3.7491518045553498e-33 -1 6.12303176911189e-17 1 -1.3684555315672042e-48 1 -6.12303176911189e-17 6.12303176911189e-17 6
1.10714871779409
3 3.0615158845559401e-17 -1.8745759022776701e-33 8.5 6.12303176911189e-17 -3.7491518045553498e-33 -1 6.12303176911189e-17 1 -1.3684555315672042e-48 1 -6.12303176911189e-17 6.12303176911189e-17 6
1.10714871779409
3 3.0615158845559401e-17 -1.8745759022776701e-33 8.5 6.12303176911189e-17 -3.7491518045553498e-33 -1 6.12303176911189e-17 1 -1.3684555315672042e-48 1 -6.12303176911189e-17 6.12303176911189e-17 6
1.10714871779409
3 3.0615158845559401e-17 -1.8745759022776701e-33 8.5 6.12303176911189e-17 -3.7491518045553498e-33 -1 6.12303176911189e-17 1 -1.3684555315672042e-48 1 -6.12303176911189e-17 6.12303176911189e-17 6
1.10714871779409
3 3.0615158845559401e-17 -1.8745759022776701e-33 8.5 6.12303176911189e-17 -3.7491518045553498e-33 -1 6.12303176911189e-17 1 -1.3684555315672042e-48 1 -6.12303176911189e-17 6.12303176911189e-17 6
1.10714871779409
Triangulations 0

TShapes 131
Ve
1e-07
3.67381906146721e-17 -2.4 0.600000000000001
0 0

0101101
*
Ve
1e-07
-2.57167334302699e-16 2.4 0.600000000000001
0 0

0101101
*
Ed
 1e-07 1 1 0
1  1 0 0 3.14159265358979
2  1 1 0 0 3.14159265358979
2  2 2 0 0 3.14159265358979
4 C0 1 0 2 0
0

0101000
+131 0 -130 0 *
Ve
1e-07
1.83690953073357e-16 3 0
0 0

0101101
*
Ed
 1e-07 1 1 0
1  2 0 -0.424264068711929 0.424264068711928
2  3 1 0 -0.424264068711929 0.424264068711928
2  4 3 0 -0.424264068711929 0.424264068711928
4 CN 1 0 3 0
0

0101000
+130 0 -128 0 *
Ve
1e-07
-5.5107285922007e-16 -3 0
0 0

0101101
*
Ed
 1e-07 1 1 0
1  3 0 0 3.14159265358979
2  5 1 0 0 3.14159265358979
4 C0 1 0 4 0
0

0101000
+128 0 -126 0 *
Ed
 1e-07 1 1 0
1  4 0 -0.424264068711928 0.424264068711929
2  6 1 0 -0.424264068711928 0.424264068711929
2  7 3 0 -0.424264068711928 0.424264068711929
4 CN 1 0 3 0
0

0101000
+126 0 -131 0 *
Wi

0101100
+129 0 +127 0 +125 0 +124 0 *
Fa
0  1e-07 1 0

0111000
+123 0 *
Ed
 1e-07 1 1 0
1  5 0 3.14159265358979 6.28318530717959
2  8 5 0 3.14159265358979 6.28318530717959
2  9 3 0 3.14159265358979 6.28318530717959
4 C0 5 0 3 0
0

0101000
+130 0 -131 0 *
Ve
1e-07
-1.68995676827488e-15 2.4 8.4
0 0

0101101
*
Ed
 1e-07 1 1 0
1  6 0 -3.9 3.9
2  10 5 0 -3.9 3.9
2  11 2 0 -3.9 3.9
4 CN 5 0 2 0
0

0101000
+130 0 -120 0 *
Ve
1e-07
-1.39605124335751e-15 -2.4 8.4
0 0

0101101
*
Ed
 1e-07 1 1 0
1  7 0 3.14159265358979 6.28318530717959
2  12 5 0 3.14159265358979 6.28318530717959
2  13 6 0 3.14159265358979 6.28318530717959
4 C0 5 0 6 0
0

0101000
+120 0 -118 0 *
Ed
 1e-07 1 1 0
1  8 0 -3.9 3.9
2  14 5 0 -3.9 3.9
2  15 2 0 -3.9 3.9
4 CN 5 0 2 0
0

0101000
+118 0 -131 0 *
Wi

0101100
-121 0 +119 0 +117 0 +116 0 *
Fa
0  1e-07 5 0

0111000
+115 0 *
Ve
1e-07
-1.46952762458685e-15 3 9
0 0

0101101
*
Ed
 1e-07 1 1 0
1  9 0 -0.424264068711928 0.424264068711929
2  16 6 0 -0.424264068711928 0.424264068711929
2  17 7 0 -0.424264068711928 0.424264068711929
4 CN 6 0 7 0
0

0101000
+120 0 -113 0 *
Ve
1e-07
-1.46952762458685e-15 -3 9
0 0

0101101
*
Ed
 1e-07 1 1 0
1  10 0 0 3.14159265358979
2  18 6 0 0 3.14159265358979
4 C0 6 0 8 0
0

0101000
+113 0 -111 0 *
Ed
 1e-07 1 1 0
1  11 0 -0.424264068711929 0.424264068711928
2  19 6 0 -0.424264068711929 0.424264068711928
2  20 7 0 -0.424264068711929 0.424264068711928
4 CN 6 0 7 0
0

0101000
+111 0 -118 0 *
Wi

0101100
-117 0 +112 0 +110 0 +109 0 *
Fa
0  1e-07 6 0

0111000
+108 0 *
Ve
1e-07
1.2858366715135e-15 7 3
0 0

0101101
*
Ve
1e-07
1.2858366715135e-15 7 0
0 0

0101101
*
Ed
 1e-07 1 1 0
1  12 0 -1.5 1.5
2  21 9 0 -1.5 1.5
2  22 10 0 -1.5 1.5
4 CN 9 0 10 0
0

0101000
+106 0 -105 0 *
Ve
1e-07
-1.2858366715135e-15 -7 3
0 0

0101101
*
Ed
 1e-07 1 1 0
1  13 0 3.14159265358979 6.28318530717959
2  23 9 0 3.14159265358979 6.28318530717959
4 C0 9 0 11 0
0

0101000
+103 0 -106 0 *
Ve
1e-07
-1.2858366715135e-15 -7 0
0 0

0101101
*
Ed
 1e-07 1 1 0
1  14 0 -1.5 1.5
2  24 9 0 -1.5 1.5
2  25 10 0 -1.5 1.5
4 CN 9 0 10 0
0

0101000
+101 0 -103 0 *
Ed
 1e-07 1 1 0
1  15 0 0 3.14159265358979
2  26 9 0 0 3.14159265358979
4 C0 9 0 4 0
0

0101000
+105 0 -101 0 *
Wi

0101100
-104 0 -102 0 -100 0 -99 0 *
Fa
0  1e-07 9 0

0111000
+98 0 *
Ed
 1e-07 1 1 0
1  16 0 3.14159265358979 6.28318530717959
2  27 10 0 3.14159265358979 6.28318530717959
4 C0 10 0 4 0
0

0101000
+101 0 -105 0 *
Ed
 1e-07 1 1 0
1  17 0 0 3.14159265358979
2  28 10 0 0 3.14159265358979
4 C0 10 0 11 0
0

0101000
+106 0 -103 0 *
Wi

0101100
+104 0 -96 0 +100 0 -95 0 *
Fa
0  1e-07 10 0

0111000
+94 0 *
Ed
 1e-07 1 1 0
1  18 0 3.14159265358979 6.28318530717959
2  29 7 0 3.14159265358979 6.28318530717959
4 C0 7 0 8 0
0

0101000
+111 0 -113 0 *
Ed
 1e-07 1 1 0
1  19 0 0 3.14159265358979
2  30 7 0 0 3.14159265358979
2  31 2 0 0 3.14159265358979
4 C0 7 0 2 0
0

0101000
+118 0 -120 0 *
Wi

0101100
+92 0 -112 0 -91 0 -109 0 *
Fa
0  1e-07 7 0

0111000
+90 0 *
Wi

0101100
+91 0 -119 0 -129 0 -116 0 *
Fa
0  1e-07 2 0

0111000
+88 0 *
Ed
 1e-07 1 1 0
1  20 0 3.14159265358979 6.28318530717959
2  32 3 0 3.14159265358979 6.28318530717959
4 C0 3 0 4 0
0

0101000
+126 0 -128 0 *
Wi

0101100
+86 0 -127 0 +121 0 -124 0 *
Fa
0  1e-07 3 0

0111000
+85 0 *
Wi

0101100
+102 0 +95 0 *
Ve
1e-07
-2.88675134594813 -5 3
0 0

0101101
*
Ve
1e-07
2.88675134594813 -5 3
0 0

0101101
*
Ed
 1e-07 1 1 0
1  21 0 -4.33012701892219 1.44337567297407
4 C0 11 0 12 0
0

0101000
+82 0 -81 0 *
Ve
1e-07
-5.77350269189626 3.53513404015338e-16 3
0 0

0101101
*
Ed
 1e-07 1 1 0
1  22 0 -4.3301270189222 1.44337567297406
4 C0 11 0 13 0
0

0101000
+79 0 -82 0 *
Ve
1e-07
-2.88675134594813 5 3
0 0

0101101
*
Ed
 1e-07 1 1 0
1  23 0 -4.33012701892219 1.44337567297407
4 C0 11 0 14 0
0

0101000
+77 0 -79 0 *
Ve
1e-07
2.88675134594813 5 3
0 0

0101101
*
Ed
 1e-07 1 1 0
1  24 0 -2.88675134594813 2.88675134594813
4 C0 11 0 15 0
0

0101000
+75 0 -77 0 *
Ve
1e-07
5.77350269189626 -2.12987024341559e-15 3
0 0

0101101
*
Ed
 1e-07 1 1 0
1  25 0 -4.33012701892219 1.44337567297407
4 C0 11 0 16 0
0

0101000
+73 0 -75 0 *
Ed
 1e-07 1 1 0
1  26 0 -4.33012701892219 1.44337567297406
4 C0 11 0 17 0
0

0101000
+81 0 -73 0 *
Wi

0101100
-80 0 -78 0 -76 0 -74 0 -72 0 -71 0 *
Fa
0  1e-07 11 0

0111000
+83 0 +70 0 *
Ve
1e-07
-2.88675134594813 5 8.61324865405187
0 0

0101101
*
Ed
 1e-07 1 1 0
1  27 0 3 8.61324865405187
4 C0 15 0 14 0
0

0101000
+77 0 -68 0 *
Ve
1e-07
3.06151588455594e-16 5 9
0 0

0101101
*
Ed
 1e-07 1 1 0
1  28 0 1.82923119408594 5.0183856202126
2  33 18 0 1.82923119408594 5.0183856202126
4 C0 15 0 18 0
0

0101000
+68 0 -66 0 *
Ve
1e-07
2.88675134594813 5 8.61324865405187
0 0

0101101
*
Ed
 1e-07 1 1 0
1  29 0 5.0183856202126 8.20754004633926
2  34 19 0 5.0183856202126 8.20754004633926
4 C0 15 0 19 0
0

0101000
+66 0 -64 0 *
Ed
 1e-07 1 1 0
1  30 0 3 8.61324865405187
4 C0 15 0 16 0
0

0101000
+75 0 -64 0 *
Wi

0101100
+74 0 +67 0 +65 0 +63 0 -62 0 *
Fa
0  1e-07 15 0

0111000
+61 0 *
Ve
1e-07
-5.77350269189626 3.53513404015338e-16 8.61324865405187
0 0

0101101
*
Ed
 1e-07 1 1 0
1  31 0 3 8.61324865405187
4 C0 14 0 13 0
0

0101000
+79 0 -59 0 *
Ve
1e-07
-4.33012701892219 2.5 9
0 0

0101101
*
Ed
 1e-07 1 1 0
1  32 0 1.82923119408595 5.0183856202126
2  35 20 0 1.82923119408595 5.0183856202126
4 C0 14 0 20 0
0

0101000
+59 0 -57 0 *
Ed
 1e-07 1 1 0
1  33 0 5.0183856202126 8.20754004633926
2  36 18 0 5.0183856202126 8.20754004633926
4 C0 14 0 18 0
0

0101000
+57 0 -68 0 *
Wi

0101100
+76 0 +58 0 +56 0 +55 0 -67 0 *
Fa
0  1e-07 14 0

0111000
+54 0 *
Ve
1e-07
-2.88675134594813 -5 8.61324865405187
0 0

0101101
*
Ed
 1e-07 1 1 0
1  34 0 3 8.61324865405187
4 C0 13 0 12 0
0

0101000
+82 0 -52 0 *
Ve
1e-07
-4.33012701892219 -2.5 9
0 0

0101101
*
Ed
 1e-07 1 1 0
1  35 0 1.82923119408595 5.0183856202126
2  37 21 0 1.82923119408595 5.0183856202126
4 C0 13 0 21 0
0

0101000
+52 0 -50 0 *
Ed
 1e-07 1 1 0
1  36 0 5.0183856202126 8.20754004633926
2  38 20 0 5.0183856202126 8.20754004633926
4 C0 13 0 20 0
0

0101000
+50 0 -59 0 *
Wi

0101100
+78 0 +51 0 +49 0 +48 0 -58 0 *
Fa
0  1e-07 13 0

0111000
+47 0 *
Ve
1e-07
4.3301270189222 2.5 9
0 0

0101101
*
Ed
 1e-07 1 1 0
1  37 0 1.82923119408594 5.0183856202126
2  39 19 0 1.82923119408594 5.0183856202126
4 C0 19 0 16 0
0

0101000
+64 0 -45 0 *
Ed
 1e-07 1 1 0
1  38 0 5.23598775598299 6.28318530717959
2  40 19 0 5.23598775598299 6.28318530717959
4 C0 19 0 8 0
0

0101000
+45 0 -66 0 *
Wi

0101100
-44 0 -63 0 -43 0 *
Fa
0  1e-07 19 0

0111000
+42 0 *
Ve
1e-07
5.77350269189626 -2.12987024341559e-15 8.61324865405187
0 0

0101101
*
Ve
1e-07
4.33012701892219 -2.5 9
0 0

0101101
*
Ed
 1e-07 1 1 0
1  39 0 1.82923119408594 5.0183856202126
2  41 22 0 1.82923119408594 5.0183856202126
4 C0 22 0 17 0
0

0101000
+40 0 -39 0 *
Ed
 1e-07 1 1 0
1  40 0 5.0183856202126 8.20754004633926
2  42 22 0 5.0183856202126 8.20754004633926
4 C0 22 0 16 0
0

0101000
+45 0 -40 0 *
Ed
 1e-07 1 1 0
1  41 0 4.18879020478639 5.23598775598299
2  43 22 0 4.18879020478639 5.23598775598299
4 C0 22 0 8 0
0

0101000
+39 0 -45 0 *
Wi

0101100
-38 0 -37 0 -36 0 *
Fa
0  1e-07 22 0

0111000
+35 0 *
Ve
1e-07
2.88675134594813 -5 8.61324865405187
0 0

0101101
*
Ve
1e-07
-1.11022302462516e-15 -5 9
0 0

0101101
*
Ed
 1e-07 1 1 0
1  42 0 1.82923119408594 5.0183856202126
2  44 23 0 1.82923119408594 5.0183856202126
4 C0 23 0 12 0
0

0101000
+33 0 -32 0 *
Ed
 1e-07 1 1 0
1  43 0 5.0183856202126 8.20754004633926
2  45 23 0 5.0183856202126 8.20754004633926
4 C0 23 0 17 0
0

0101000
+39 0 -33 0 *
Ed
 1e-07 1 1 0
1  44 0 3.14159265358979 4.18879020478639
2  46 23 0 3.14159265358979 4.18879020478639
4 C0 23 0 8 0
0

0101000
+32 0 -39 0 *
Wi

0101100
-31 0 -30 0 -29 0 *
Fa
0  1e-07 23 0

0111000
+28 0 *
Ed
 1e-07 1 1 0
1  45 0 5.0183856202126 8.20754004633925
2  47 21 0 5.0183856202126 8.20754004633925
4 C0 21 0 12 0
0

0101000
+32 0 -52 0 *
Ed
 1e-07 1 1 0
1  46 0 2.0943951023932 3.14159265358979
2  48 21 0 2.0943951023932 3.14159265358979
4 C0 21 0 8 0
0

0101000
+50 0 -32 0 *
Wi

0101100
-26 0 -25 0 -49 0 *
Fa
0  1e-07 21 0

0111000
+24 0 *
Ed
 1e-07 1 1 0
1  47 0 1.0471975511966 2.0943951023932
2  49 20 0 1.0471975511966 2.0943951023932
4 C0 20 0 8 0
0

0101000
+57 0 -50 0 *
Wi

0101100
-48 0 -22 0 -56 0 *
Fa
0  1e-07 20 0

0111000
+21 0 *
Ed
 1e-07 1 1 0
1  48 0 0 1.0471975511966
2  50 18 0 0 1.0471975511966
4 C0 18 0 8 0
0

0101000
+66 0 -57 0 *
Wi

0101100
-55 0 -19 0 -65 0 *
Fa
0  1e-07 18 0

0111000
+18 0 *
Ed
 1e-07 1 1 0
1  49 0 3 8.61324865405187
4 C0 12 0 17 0
0

0101000
+81 0 -33 0 *
Wi

0101100
+80 0 +16 0 +31 0 +26 0 -51 0 *
Fa
0  1e-07 12 0

0111000
+15 0 *
Ed
 1e-07 1 1 0
1  50 0 3 8.61324865405187
4 C0 16 0 17 0
0

0101000
+73 0 -40 0 *
Wi

0101100
+72 0 +62 0 +44 0 +37 0 -13 0 *
Fa
0  1e-07 16 0

0111000
+12 0 *
Wi

0101100
+71 0 +13 0 +38 0 +30 0 -16 0 *
Fa
0  1e-07 17 0

0111000
+10 0 *
Wi

0101100
+19 0 +22 0 +25 0 +29 0 +36 0 +43 0 *
Wi

0101100
+110 0 +92 0 *
Fa
0  1e-07 8 0

0111000
+8 0 +7 0 *
Wi

0101100
+96 0 +99 0 *
Wi

0101100
+125 0 +86 0 *
Fa
0  1e-07 4 0

0111000
-5 0 -4 0 *
Sh

0101100
-122 0 -114 0 -107 0 +97 0 +93 0 -89 0 -87 0 -84 0 +69 0 +60 0 
+53 0 +46 0 +41 0 +34 0 +27 0 +23 0 +20 0 +17 0 +14 0 +11 0 
+9 0 +6 0 -3 0 *
So

0100000
+2 0 *

+1 0 