DBRep_DrawableShape

CASCADE Topology V1, (c) Matra-Datavision
Locations 0
Curve2ds 48
1 6.2831853071795862 4.4408920985006262e-16 0 -1 
1 0 4.4408920985006262e-16 0 -1 
7 0 0  3 25 23  6.2831853071795862 0.9760415179956532  6.268034045627787 0.90025040157924441  6.2375460180780218 0.75760602677714084  6.1912992310482684 0.56889093006971059  6.1445783066133588 0.40376727549512814  6.0974279107402136 0.26091774137313006  6.0498951347942089 0.13921155522954901  6.0020296464011196 0.037715533895487929  5.9538833126046864 -0.044333632129418196  5.9055099180821422 -0.10754162451422596  5.8569648164595689 -0.15236853526377345  5.8083045642776776 -0.179137159439169  5.7595865315812862 -0.18803889408923116  5.7108684988848966 -0.17913715943917005  5.6622082467030062 -0.15236853526377397  5.6136631450804346 -0.1075416245142277  5.5652897505578887 -0.044333632129415074  5.5171434167614537 0.037715533895486618  5.4692779283683652 0.13921155522955353  5.4217451524223632 0.26091774137312934  5.3745947565492127 0.40376727549513081  5.3278738321143084 0.56889093006971081  5.2816270450845533 0.75760602677714228  5.2511390175347881 0.90025040157924607  5.2359877559829879 0.97604151799565475 
 0 4 0.34521976806847637 1 0.69043953613695275 1 1.0356593042054292 1 1.3808790722739055 1 1.7260988403423818 1 2.0713186084108584 1 2.4165383764793344 1 2.761758144547811 1 3.1069779126162875 1 3.4521976806847636 1 3.7974174487532402 1 4.1426372168217167 1 4.4878569848901932 1 4.8330767529586689 1 5.1782965210271454 1 5.523516289095622 1 5.8687360571640985 1 6.2139558252325751 1 6.5591755933010507 1 6.9043953613695273 1 7.2496151294380038 1 7.5948348975064803 4
7 0 0  3 25 23  5.2359877559829888 0.9760415179956593  5.2208364944311887 0.90025040157925196  5.1903484668814253 0.75760602677714983  5.1441016798516692 0.56889093006971858  5.0973807554167641 0.40376727549513541  5.0502303595436153 0.26091774137313645  5.0026975835976142 0.13921155522955458  4.9548320952045195 0.037715533895491087  4.9066857614080908 -0.044333632129413707  4.8583123668855448 -0.1075416245142244  4.8097672652629715 -0.15236853526376912  4.761107013081082 -0.17913715943916814  4.7123889803846888 -0.18803889408922853  4.6636709476882983 -0.17913715943916905  4.6150106955064079 -0.15236853526377012  4.5664655938838337 -0.10754162451422404  4.5180921993612904 -0.044333632129414359  4.4699458655648572 0.037715533895493113  4.4220803771717661 0.13921155522955378  4.374547601225764 0.26091774137313728  4.3273972053526153 0.40376727549513441  4.2806762809177101 0.56889093006971747  4.2344294938879541 0.75760602677714917  4.2039414663381907 0.90025040157925162  4.1887902047863905 0.97604151799565853 
 0 4 0.34521976806847587 1 0.69043953613695175 1 1.0356593042054276 1 1.3808790722739035 1 1.7260988403423794 1 2.0713186084108552 1 2.4165383764793313 1 2.761758144547807 1 3.1069779126162826 1 3.4521976806847587 1 3.7974174487532348 1 4.1426372168217105 1 4.4878569848901861 1 4.8330767529586627 1 5.1782965210271383 1 5.523516289095614 1 5.8687360571640896 1 6.2139558252325653 1 6.5591755933010418 1 6.9043953613695175 1 7.2496151294379931 1 7.5948348975064697 4
7 0 0  3 25 23  4.1887902047863914 0.97604151799565475  4.1736389432345913 0.90025040157924796  4.1431509156848287 0.75760602677714584  4.09690412865507 0.56889093006971514  4.0501832042201684 0.4037672754951297  4.003032808347017 0.26091774137313528  3.9555000324010163 0.13921155522955095  3.9076345440079239 0.037715533895488193  3.859488210211492 -0.044333632129417003  3.8111148156889478 -0.10754162451422676  3.7625697140663736 -0.15236853526377486  3.7139094618844832 -0.17913715943917063  3.6651914291880918 -0.18803889408923113  3.6164733964917009 -0.17913715943917  3.56781314430981 -0.15236853526377284  3.5192680426872371 -0.10754162451422609  3.470894648164693 -0.044333632129417343  3.4227483143682593 0.037715533895488672  3.3748828259751691 0.13921155522955148  3.3273500500291662 0.26091774137313234  3.2801996541560183 0.40376727549513292  3.2334787297211127 0.56889093006970981  3.1872319426913567 0.75760602677714395  3.1567439151415937 0.90025040157924685  3.1415926535897931 0.9760415179956532 
 0 4 0.34521976806847587 1 0.69043953613695175 1 1.0356593042054276 1 1.3808790722739035 1 1.7260988403423794 1 2.0713186084108552 1 2.4165383764793313 1 2.761758144547807 1 3.1069779126162826 1 3.4521976806847587 1 3.7974174487532348 1 4.1426372168217105 1 4.4878569848901861 1 4.8330767529586627 1 5.1782965210271383 1 5.523516289095614 1 5.8687360571640896 1 6.2139558252325653 1 6.5591755933010418 1 6.9043953613695175 1 7.2496151294379931 1 7.5948348975064697 4
1 3.1415926535897931 3.3306690738754696e-16 0 1 
1 3.1415926535897931 3.3306690738754696e-16 0 1 
1 0 -0.97604151799566119 1 0 
1 0 -3.3306690738754696e-16 0 1 
1 6.2831853071795862 -3.3306690738754696e-16 0 1 
1 0 -0.97604151799566141 1 0 
1 3.1415926535897931 0 0 -1 
1 3.1415926535897931 0 0 -1 
7 0 0  3 25 23  3.1415926535897931 0.97604151799565253  3.1264413920379948 0.90025040157924552  3.0959533644882278 0.75760602677714295  3.0497065774584726 0.56889093006971125  3.0029856530235683 0.40376727549513086  2.9558352571504205 0.26091774137313584  2.9083024812044194 0.13921155522955056  2.8604369928113247 0.037715533895488727  2.8122906590148933 -0.044333632129414637  2.7639172644923509 -0.10754162451422712  2.7153721628697767 -0.15236853526377142  2.6667119106878818 -0.17913715943917158  2.6179938779914949 -0.18803889408922844  2.5692758452951026 -0.17913715943917258  2.5206155931132148 -0.15236853526377189  2.4720704914906371 -0.10754162451422844  2.4236970969680964 -0.044333632129413263  2.3755507631716597 0.037715533895489768  2.3276852747785703 0.13921155522955078  2.2801524988325692 0.26091774137313439  2.2330021029594196 0.40376727549512792  2.1862811785245153 0.5688909300697147  2.1400343914947566 0.75760602677714539  2.109546363944995 0.90025040157924729  2.0943951023931948 0.97604151799565431 
 0 4 0.34521976806847587 1 0.69043953613695175 1 1.0356593042054276 1 1.3808790722739035 1 1.7260988403423794 1 2.0713186084108552 1 2.4165383764793313 1 2.761758144547807 1 3.1069779126162826 1 3.4521976806847587 1 3.7974174487532348 1 4.1426372168217105 1 4.4878569848901861 1 4.8330767529586627 1 5.1782965210271383 1 5.523516289095614 1 5.8687360571640896 1 6.2139558252325653 1 6.5591755933010418 1 6.9043953613695175 1 7.2496151294379931 1 7.5948348975064697 4
7 0 0  3 25 23  2.0943951023931966 0.97604151799565808  2.0792438408413947 0.90025040157925185  2.0487558132916313 0.75760602677714983  2.0025090262618779 0.56889093006971658  1.9557881018269683 0.40376727549513647  1.908637705953824 0.26091774137313756  1.8611049300078193 0.13921155522955442  1.8132394416147282 0.037715533895492433  1.7650931078182968 -0.044333632129412548  1.7167197132957517 -0.10754162451422324  1.6681746116731775 -0.1523685352637682  1.6195143594912889 -0.17913715943916769  1.5707963267948957 -0.18803889408922644  1.5220782940985043 -0.17913715943916853  1.4734180419166156 -0.15236853526376951  1.4248729402940405 -0.10754162451422164  1.3764995457714972 -0.044333632129412957  1.3283532119750632 0.037715533895492613  1.2804877235819738 0.13921155522955458  1.2329549476359718 0.26091774137313656  1.1858045517628222 0.40376727549513497  1.1390836273279161 0.56889093006971769  1.0928368402981619 0.75760602677714961  1.0623488127483984 0.90025040157925174  1.0471975511965974 0.97604151799565875 
 0 4 0.34521976806847587 1 0.69043953613695175 1 1.0356593042054276 1 1.3808790722739035 1 1.7260988403423794 1 2.0713186084108552 1 2.4165383764793313 1 2.761758144547807 1 3.1069779126162826 1 3.4521976806847587 1 3.7974174487532348 1 4.1426372168217105 1 4.4878569848901861 1 4.8330767529586627 1 5.1782965210271383 1 5.523516289095614 1 5.8687360571640896 1 6.2139558252325653 1 6.5591755933010418 1 6.9043953613695175 1 7.2496151294379931 1 7.5948348975064697 4
7 0 0  3 25 23  1.0471975511965983 0.97604151799565431  1.0320462896447991 0.90025040157924674  1.001558262095033 0.75760602677714406  0.95531147506527958 0.5688909300697147  0.90859055063037353 0.40376727549512964  0.8614401547572248 0.26091774137313634  0.81390737881122011 0.13921155522955025  0.76604189041813253 0.037715533895489602  0.71789555662169757 -0.044333632129416115  0.66952216209915427 -0.10754162451422593  0.62097706047658274 -0.15236853526377381  0.57231680829468878 -0.17913715943917161  0.52359877559830004 -0.18803889408922989  0.47488074290190685 -0.17913715943917072  0.42622049072002 -0.15236853526377234  0.37767538909744225 -0.10754162451422843  0.32930199457489984 -0.0443336321294166  0.28115566077846399 0.037715533895489824  0.2332901723853773 0.13921155522955031  0.18575739643937261 0.26091774137313278  0.13860700056622388 0.40376727549513092  0.091886076131319605 0.56889093006971181  0.045639289101563563 0.75760602677714228  0.015151261551800133 0.90025040157924507  0 0.97604151799565297 
 0 4 0.34521976806847637 1 0.69043953613695275 1 1.0356593042054292 1 1.3808790722739055 1 1.7260988403423818 1 2.0713186084108584 1 2.4165383764793344 1 2.761758144547811 1 3.1069779126162875 1 3.4521976806847636 1 3.7974174487532402 1 4.1426372168217167 1 4.4878569848901932 1 4.8330767529586689 1 5.1782965210271454 1 5.523516289095622 1 5.8687360571640985 1 6.2139558252325751 1 6.5591755933010507 1 6.9043953613695273 1 7.2496151294380038 1 7.5948348975064803 4
1 0 -0.31249083319888382 1 0 
1 0 3.0875091668011199 1 0 
1 3.1415926535897931 -1.1102230246251565e-16 0 1 
1 3.1415926535897931 -1.1102230246251565e-16 0 1 
1 6.2831853071795862 0.31249083319888338 -1 0 
1 0 -2.7755575615628914e-16 0 -1 
1 6.2831853071795862 -2.7755575615628914e-16 0 -1 
1 0 -3.087509166801115 1 0 
1 6.2831853071795862 -0.3124908331988851 -1 0 
1 3.1415926535897931 0 0 1 
1 3.1415926535897931 0 0 1 
1 0 0 0 -1 
1 6.2831853071795862 0 0 -1 
1 6.2831853071795862 0.3124908331988846 -1 0 
1 3.1415926535897931 1.1102230246251565e-16 0 -1 
1 3.1415926535897931 1.1102230246251565e-16 0 -1 
1 6.2831853071795862 -1.1102230246251565e-16 0 1 
1 0 -1.1102230246251565e-16 0 1 
1 6.2831853071795862 -0.3124908331988851 -1 0 
1 0 -3.087509166801115 1 0 
1 6.2831853071795862 0.3124908331988846 -1 0 
1 0 3.0875091668011199 1 0 
1 0 -0.31249083319888382 1 0 
1 6.2831853071795862 0.31249083319888338 -1 0 
7 0 0  3 25 23  6.2831853071795862 0.97604151799566163  6.268034045627787 0.90025040157925462  6.2375460180780227 0.75760602677715161  6.1912992310482666 0.56889093006971891  6.1445783066133606 0.4037672754951378  6.0974279107402127 0.260917741373143  6.0498951347942116 0.13921155522955336  6.0020296464011187 0.037715533895494827  5.9538833126046882 -0.044333632129412159  5.9055099180821431 -0.10754162451422235  5.8569648164595689 -0.15236853526376767  5.8083045642776785 -0.1791371594391655  5.7595865315812862 -0.18803889408922594  5.7108684988848966 -0.17913715943916766  5.6622082467030053 -0.15236853526376795  5.613663145080432 -0.1075416245142234  5.5652897505578895 -0.044333632129411271  5.5171434167614528 0.037715533895492946  5.4692779283683643 0.13921155522955686  5.4217451524223623 0.26091774137313645  5.3745947565492136 0.4037672754951338  5.3278738321143084 0.56889093006971836  5.2816270450845515 0.75760602677714961  5.251139017534789 0.90025040157925174  5.2359877559829888 0.97604151799565886 
 0 4 0.34521976806847587 1 0.69043953613695175 1 1.0356593042054276 1 1.3808790722739035 1 1.7260988403423794 1 2.0713186084108552 1 2.4165383764793313 1 2.761758144547807 1 3.1069779126162826 1 3.4521976806847587 1 3.7974174487532348 1 4.1426372168217105 1 4.4878569848901861 1 4.8330767529586627 1 5.1782965210271383 1 5.523516289095614 1 5.8687360571640896 1 6.2139558252325653 1 6.5591755933010418 1 6.9043953613695175 1 7.2496151294379931 1 7.5948348975064697 4
7 0 0  3 25 23  5.2359877559829888 0.97604151799565886  5.2208364944311887 0.90025040157925251  5.1903484668814253 0.7576060267771505  5.1441016798516692 0.56889093006971758  5.0973807554167641 0.40376727549513591  5.0502303595436153 0.2609177413731375  5.0026975835976124 0.13921155522955447  4.9548320952045213 0.037715533895490899  4.906685761408089 -0.044333632129412374  4.8583123668855457 -0.10754162451422353  4.8097672652629715 -0.1523685352637684  4.761107013081082 -0.17913715943916791  4.7123889803846888 -0.18803889408922672  4.6636709476882983 -0.17913715943916897  4.6150106955064079 -0.15236853526376937  4.5664655938838337 -0.10754162451422326  4.5180921993612904 -0.044333632129413166  4.4699458655648563 0.037715533895493099  4.4220803771717661 0.13921155522955514  4.374547601225764 0.26091774137313584  4.3273972053526153 0.40376727549513458  4.2806762809177101 0.56889093006971736  4.2344294938879541 0.75760602677714906  4.2039414663381907 0.90025040157925096  4.1887902047863905 0.97604151799565764 
 0 4 0.34521976806847587 1 0.69043953613695175 1 1.0356593042054276 1 1.3808790722739035 1 1.7260988403423794 1 2.0713186084108552 1 2.4165383764793313 1 2.761758144547807 1 3.1069779126162826 1 3.4521976806847587 1 3.7974174487532348 1 4.1426372168217105 1 4.4878569848901861 1 4.8330767529586627 1 5.1782965210271383 1 5.523516289095614 1 5.8687360571640896 1 6.2139558252325653 1 6.5591755933010418 1 6.9043953613695175 1 7.2496151294379931 1 7.5948348975064697 4
7 0 0  3 25 23  4.1887902047863905 0.97604151799565764  4.1736389432345904 0.90025040157925074  4.143150915684827 0.75760602677714894  4.0969041286550709 0.56889093006971891  4.0501832042201649 0.40376727549513525  4.003032808347017 0.26091774137313894  3.9555000324010154 0.13921155522955431  3.9076345440079234 0.037715533895491114  3.8594882102114911 -0.044333632129411396  3.8111148156889474 -0.10754162451422536  3.7625697140663736 -0.15236853526376934  3.7139094618844832 -0.17913715943916897  3.6651914291880909 -0.18803889408922808  3.6164733964917009 -0.17913715943916866  3.56781314430981 -0.15236853526377037  3.5192680426872367 -0.10754162451422575  3.4708946481646934 -0.044333632129413082  3.422748314368258 0.037715533895489525  3.3748828259751691 0.13921155522955425  3.3273500500291653 0.26091774137313201  3.2801996541560183 0.40376727549513075  3.2334787297211118 0.56889093006971114  3.1872319426913567 0.75760602677714339  3.1567439151415937 0.90025040157924552  3.1415926535897931 0.97604151799565253 
 0 4 0.34521976806847587 1 0.69043953613695175 1 1.0356593042054276 1 1.3808790722739035 1 1.7260988403423794 1 2.0713186084108552 1 2.4165383764793313 1 2.761758144547807 1 3.1069779126162826 1 3.4521976806847587 1 3.7974174487532348 1 4.1426372168217105 1 4.4878569848901861 1 4.8330767529586627 1 5.1782965210271383 1 5.523516289095614 1 5.8687360571640896 1 6.2139558252325653 1 6.5591755933010418 1 6.9043953613695175 1 7.2496151294379931 1 7.5948348975064697 4
1 0 -0.97604151799566141 1 0 
1 0 -0.97604151799566119 1 0 
7 0 0  3 25 23  3.1415926535897931 0.9760415179956532  3.126441392037993 0.90025040157924474  3.0959533644882296 0.75760602677714195  3.0497065774584735 0.56889093006971336  3.0029856530235679 0.40376727549513181  2.9558352571504201 0.26091774137313628  2.9083024812044185 0.13921155522955264  2.860436992811326 0.037715533895491322  2.8122906590148942 -0.044333632129413755  2.7639172644923486 -0.10754162451422533  2.7153721628697762 -0.15236853526376776  2.6667119106878854 -0.1791371594391685  2.617993877991494 -0.18803889408922456  2.5692758452951039 -0.17913715943916605  2.5206155931132121 -0.15236853526377006  2.4720704914906397 -0.10754162451422369  2.4236970969680955 -0.044333632129411292  2.3755507631716615 0.037715533895493931  2.3276852747785708 0.13921155522955814  2.2801524988325688 0.26091774137313484  2.2330021029594205 0.40376727549513725  2.1862811785245158 0.56889093006971914  2.1400343914947597 0.75760602677715017  2.1095463639449958 0.90025040157925151  2.0943951023931957 0.97604151799565853 
 0 4 0.34521976806847543 1 0.69043953613695086 1 1.0356593042054263 1 1.3808790722739017 1 1.7260988403423771 1 2.0713186084108526 1 2.4165383764793278 1 2.7617581445478034 1 3.1069779126162791 1 3.4521976806847543 1 3.7974174487532295 1 4.1426372168217052 1 4.4878569848901808 1 4.8330767529586556 1 5.1782965210271312 1 5.5235162890956069 1 5.8687360571640825 1 6.2139558252325582 1 6.5591755933010329 1 6.9043953613695086 1 7.2496151294379843 1 7.5948348975064599 4
7 0 0  3 25 23  2.0943951023931957 0.97604151799565853  2.0792438408413951 0.9002504015792514  2.0487558132916326 0.75760602677714906  2.0025090262618761 0.56889093006971714  1.9557881018269712 0.40376727549513702  1.9086377059538226 0.26091774137313606  1.8611049300078206 0.13921155522955431  1.8132394416147291 0.037715533895492447  1.7650931078182961 -0.04433363212941431  1.7167197132957523 -0.10754162451422335  1.6681746116731788 -0.1523685352637682  1.6195143594912877 -0.17913715943916836  1.5707963267948966 -0.18803889408922853  1.5220782940985058 -0.17913715943916894  1.4734180419166145 -0.15236853526377045  1.4248729402940412 -0.10754162451422282  1.3764995457714977 -0.044333632129414449  1.3283532119750632 0.037715533895492259  1.2804877235819734 0.1392115552295527  1.2329549476359707 0.26091774137313756  1.1858045517628226 0.4037672754951343  1.139083627327917 0.56889093006971747  1.092836840298161 0.75760602677714917  1.062348812748398 0.90025040157925174  1.0471975511965974 0.9760415179956593 
 0 4 0.34521976806847587 1 0.69043953613695175 1 1.0356593042054276 1 1.3808790722739035 1 1.7260988403423794 1 2.0713186084108552 1 2.4165383764793313 1 2.761758144547807 1 3.1069779126162826 1 3.4521976806847587 1 3.7974174487532348 1 4.1426372168217105 1 4.4878569848901861 1 4.8330767529586627 1 5.1782965210271383 1 5.523516289095614 1 5.8687360571640896 1 6.2139558252325653 1 6.5591755933010418 1 6.9043953613695175 1 7.2496151294379931 1 7.5948348975064697 4
7 0 0  3 25 23  1.0471975511965974 0.9760415179956593  1.0320462896447971 0.90025040157925185  1.0015582620950338 0.75760602677714983  0.95531147506527769 0.5688909300697208  0.90859055063037275 0.40376727549513586  0.86144015475722424 0.26091774137314033  0.8139073788112221 0.13921155522955533  0.76604189041813098 0.037715533895494792  0.71789555662169791 -0.04433363212941209  0.66952216209915372 -0.10754162451422125  0.62097706047658097 -0.15236853526376731  0.57231680829468978 -0.17913715943916536  0.52359877559829882 -0.18803889408922358  0.47488074290190796 -0.17913715943916386  0.42622049072001672 -0.1523685352637659  0.37767538909744386 -0.10754162451422086  0.32930199457489989 -0.044333632129410758  0.28115566077846604 0.037715533895495451  0.23329017238537544 0.13921155522956072  0.18575739643937317 0.26091774137313856  0.13860700056622496 0.40376727549513913  0.091886076131319952 0.5688909300697188  0.045639289101563757 0.75760602677715405  0.015151261551800554 0.90025040157925662  0 0.97604151799566241 
 0 4 0.34521976806847587 1 0.69043953613695175 1 1.0356593042054276 1 1.3808790722739035 1 1.7260988403423794 1 2.0713186084108552 1 2.4165383764793313 1 2.761758144547807 1 3.1069779126162826 1 3.4521976806847587 1 3.7974174487532348 1 4.1426372168217105 1 4.4878569848901861 1 4.8330767529586627 1 5.1782965210271383 1 5.523516289095614 1 5.8687360571640896 1 6.2139558252325653 1 6.5591755933010418 1 6.9043953613695175 1 7.2496151294379931 1 7.5948348975064697 4
Curves 40
1 6.6602767497325699 -4.2913722840748499e-16 6.3119792410021702 -0.86602540378443882 1.3666918005016099e-16 0.49999999999999989 
7 1 0  2 3 2  7.5055534994651296 -4.14744693364119e-15 5.8239584820043397  1 5.6291651245988499 3.25 6.9072918153376701  1.1547005383792599 3.7527767497325599 6.5 5.8239584820043397  1
 0 3 7.5948348975064803 3
7 1 0  2 3 2  3.7527767497325701 6.5 5.8239584820043397  1 0 6.5 6.9072918153376799  1.1547005383792499 -3.7527767497325701 6.5 5.8239584820043397  1
 0 3 7.5948348975064697 3
7 1 0  2 3 2  -3.7527767497325599 6.5 5.8239584820043397  1 -5.6291651245988499 3.25 6.9072918153376799  1.1547005383792499 -7.5055534994651296 1.3575027751206101e-15 5.8239584820043397  1
 0 3 7.5948348975064697 3
1 -6.6602767497325699 1.20210621678011e-15 6.3119792410021702 -0.86602540378443882 7.5438862359041891e-17 -0.49999999999999989 
2 0 4.1636616029960799e-16 6.7999999999999998 0 -6.12303176911189e-17 -1 1 0 0 0 -1 6.12303176911189e-17 5.8150000000000004
1 6.6602767497325699 -7.8574005648049797e-16 0.48802075899782998 0.86602540378443882 -7.5438862359041989e-17 0.49999999999999989 
2 0 0 0 -0 6.12303176911189e-17 1 1 0 0 0 1 -6.12303176911189e-17 5.8150000000000004
1 -6.6602767497325699 8.4550338870709298e-16 0.48802075899782998 0.86602540378443882 -1.3666918005016099e-16 -0.49999999999999989 
7 1 0  2 3 2  -7.5055534994651296 1.0606632792742e-15 0.97604151799565897  1 -5.6291651245988499 3.25 -0.107291815337676  1.1547005383792499 -3.7527767497325599 6.5 0.97604151799565897  1
 0 3 7.5948348975064697 3
7 1 0  2 3 2  -3.7527767497325701 6.5 0.97604151799565897  1 0 6.5 -0.107291815337675  1.1547005383792499 3.7527767497325701 6.5 0.97604151799565897  1
 0 3 7.5948348975064697 3
7 1 0  2 3 2  3.7527767497325599 6.5 0.97604151799565897  1 5.6291651245988499 3.25 -0.107291815337676  1.1547005383792499 7.5055534994651296 -4.4442864294876003e-15 0.97604151799565997  1
 0 3 7.5948348975064803 3
2 0 3.9723224730727801e-16 6.4875091668011198 -0 6.12303176911189e-17 1 1 0 0 0 1 -6.12303176911189e-17 3.4587500000000002
1 -3.7293750000000001 8.6350083588207604e-16 6.6437545834005602 -0.86602540378443882 1.3666918005016099e-16 0.49999999999999989 
2 0 4.1636616029960799e-16 6.7999999999999998 0 -6.12303176911189e-17 -1 1 0 0 0 -1 6.12303176911189e-17 4
1 3.7293750000000001 -4.9902428275189602e-17 6.6437545834005602 -0.86602540378443882 7.5438862359041989e-17 -0.49999999999999989 
2 0 1.91339129923301e-17 0.31249083319888499 -0 6.12303176911189e-17 1 1 0 0 0 1 -6.12303176911189e-17 3.4587500000000002
1 -3.4587500000000002 6.3174380277811902e-16 3.3999999999999999 -0 6.12303176911189e-17 1 
1 3.4587500000000002 -2.15377642478511e-16 3.3999999999999999 -0 -6.12303176911189e-17 -1 
2 0 0 0 -0 6.12303176911189e-17 1 1 0 0 0 1 -6.12303176911189e-17 4
1 -3.7293750000000001 4.6626858857479798e-16 0.15624541659944199 0.86602540378443882 -7.5438862359041891e-17 0.49999999999999989 
1 3.7293750000000001 -4.4713467558246805e-16 0.15624541659944199 0.86602540378443882 -1.3666918005016099e-16 -0.49999999999999989 
2 0 1.91339129923301e-17 0.31249083319888499 -0 6.12303176911189e-17 1 1 0 0 0 1 -6.12303176911189e-17 3.4587500000000002
2 0 0 0 -0 6.12303176911189e-17 1 1 0 0 0 1 -6.12303176911189e-17 4
2 0 3.9723224730727801e-16 6.4875091668011198 -0 6.12303176911189e-17 1 1 0 0 0 1 -6.12303176911189e-17 3.4587500000000002
2 0 4.1636616029960799e-16 6.7999999999999998 0 -6.12303176911189e-17 -1 1 0 0 0 -1 6.12303176911189e-17 4
7 1 0  2 3 2  7.5055534994651403 -9.4113661482100407e-16 0.97604151799565897  1 5.6291651245988499 -3.25 -0.107291815337674  1.1547005383792499 3.7527767497325701 -6.5 0.97604151799565997  1
 0 3 7.5948348975064697 3
7 1 0  2 3 2  3.7527767497325701 -6.5 0.97604151799565997  1 -1.73058381406038e-15 -6.5 -0.107291815337675  1.1547005383792499 -3.7527767497325701 -6.5 0.97604151799565897  1
 0 3 7.5948348975064697 3
7 1 0  2 3 2  -3.7527767497325701 -6.5 0.97604151799565897  1 -5.6291651245988499 -3.25 -0.107291815337673  1.1547005383792499 -7.5055534994651296 1.5611132527979999e-15 0.97604151799565897  1
 0 3 7.5948348975064697 3
2 0 0 0 -0 6.12303176911189e-17 1 1 0 0 0 1 -6.12303176911189e-17 5.8150000000000004
2 0 4.1636616029960799e-16 6.7999999999999998 0 -6.12303176911189e-17 -1 1 0 0 0 -1 6.12303176911189e-17 5.8150000000000004
7 1 0  2 3 2  -7.5055534994651296 8.5705280159681203e-16 5.8239584820043397  1 -5.6291651245988499 -3.25 6.9072918153376701  1.1547005383792499 -3.7527767497325701 -6.5 5.8239584820043397  1
 0 3 7.5948348975064599 3
7 1 0  2 3 2  -3.7527767497325701 -6.5 5.8239584820043397  1 -1.5543122344752199e-15 -6.5 6.9072918153376799  1.1547005383792499 3.7527767497325701 -6.5 5.8239584820043397  1
 0 3 7.5948348975064697 3
7 1 0  2 3 2  3.7527767497325701 -6.5 5.8239584820043397  1 5.6291651245988499 -3.25 6.9072918153376701  1.1547005383792499 7.5055534994651403 -6.4429711897458797e-16 5.8239584820043397  1
 0 3 7.5948348975064697 3
1 -3.7527767497325599 6.5 -3.97997064992273e-16 0 6.12303176911189e-17 1 
1 -7.5055534994651296 1.37871745388734e-15 -8.4419307707812203e-32 0 6.12303176911189e-17 1 
1 3.7527767497325701 6.5 -3.97997064992273e-16 0 6.12303176911189e-17 1 
1 7.5055534994651296 -4.5958260344746e-16 2.8140388814399501e-32 0 6.12303176911189e-17 1 
1 3.7527767497325701 -6.5 3.97997064992273e-16 0 6.12303176911189e-17 1 
1 -3.7527767497325701 -6.5 3.9799706499227202e-16 0 6.12303176911189e-17 1 
Polygon3D 0
PolygonOnTriangulations 0
Surfaces 18
3 0 3.8648449418630999e-16 6.3119792410021702 0 -6.12303176911189e-17 -1 1 0 0 0 -1 6.12303176911189e-17 6.6602767497325699
1.0471975511966001
3 0 3.8648449418630999e-16 6.3119792410021702 0 -6.12303176911189e-17 -1 1 0 0 0 -1 6.12303176911189e-17 6.6602767497325699
1.0471975511966001
1 5.6291651245988499 3.25 -1.9899853249613601e-16 0.86602540378443882 0.49999999999999989 -3.0615158845559394e-17 -0.49999999999999989 0.86602540378443882 -5.3027010602300679e-17 -2.4651903288156613e-32 6.1230317691118851e-17 1 
1 1.33226762955019e-15 6.5 -3.97997064992273e-16 0 1 -6.12303176911189e-17 -1 0 0 0 6.12303176911189e-17 1 
1 -5.6291651245988499 3.25 -1.9899853249613601e-16 -0.86602540378443849 0.50000000000000033 -3.0615158845559419e-17 -0.50000000000000033 -0.86602540378443849 5.3027010602300741e-17 7.0874221953450279e-32 6.1230317691118925e-17 1 
1 -2.0185873175002801e-16 -2.4976765447548598e-16 6.7999999999999998 0 6.12303176911189e-17 1 0 -1 6.12303176911189e-17 1 0 -0 
3 0 2.9881666113298103e-17 0.48802075899782998 -0 6.12303176911189e-17 1 1 0 0 0 1 -6.12303176911189e-17 6.6602767497325699
1.0471975511966001
3 0 2.9881666113298103e-17 0.48802075899782998 -0 6.12303176911189e-17 1 1 0 0 0 1 -6.12303176911189e-17 6.6602767497325699
1.0471975511966001
1 -2.0185873175002801e-16 -6.6613381477509402e-16 4.0787585103475902e-32 0 6.12303176911189e-17 1 0 -1 6.12303176911189e-17 1 0 -0 
3 0 4.0679920380344298e-16 6.6437545834005602 -0 6.12303176911189e-17 1 1 0 0 0 1 -6.12303176911189e-17 3.7293750000000001
1.0471975511966001
2 0 2.08183080149804e-16 3.3999999999999999 -0 6.12303176911189e-17 1 1 0 0 0 1 -6.12303176911189e-17 3.4587500000000002
3 0 4.0679920380344298e-16 6.6437545834005602 -0 6.12303176911189e-17 1 1 0 0 0 1 -6.12303176911189e-17 3.7293750000000001
1.0471975511966001
3 0 9.5669564961650703e-18 0.15624541659944199 0 -6.12303176911189e-17 -1 1 0 0 0 -1 6.12303176911189e-17 3.7293750000000001
1.0471975511966001
2 0 2.08183080149804e-16 3.3999999999999999 -0 6.12303176911189e-17 1 1 0 0 0 1 -6.12303176911189e-17 3.4587500000000002
3 0 9.5669564961650703e-18 0.15624541659944199 0 -6.12303176911189e-17 -1 1 0 0 0 -1 6.12303176911189e-17 3.7293750000000001
1.0471975511966001
1 5.6291651245988499 -3.25 1.9899853249613601e-16 0.86602540378443882 -0.49999999999999989 3.0615158845559394e-17 0.49999999999999989 0.86602540378443882 -5.3027010602300679e-17 2.4651903288156613e-32 6.1230317691118851e-17 1 
1 -2.2204460492503099e-15 -6.5 3.97997064992273e-16 -2.3667233063182299e-16 -1 6.12303176911189e-17 1 -2.3667233063182299e-16 1.4491521993284101e-32 -4.926439913641935e-47 6.12303176911189e-17 1 
1 -5.6291651245988499 -3.25 1.9899853249613601e-16 -0.86602540378443882 -0.49999999999999989 3.0615158845559394e-17 0.49999999999999989 -0.86602540378443882 5.3027010602300679e-17 -2.4651903288156613e-32 6.1230317691118851e-17 1 
Triangulations 0

TShapes 104
Ve
1e-07
7.50555349946513 3.56602828073012e-16 5.82395848200434
0 0

0101101
*
Ve
1e-07
5.815 4.16366160299608e-16 6.8
0 0

0101101
*
Ed
 1e-07 1 1 0
1  1 0 -0.976041517995653 0.976041517995661
2  1 1 0 -0.976041517995653 0.976041517995661
2  2 2 0 -0.976041517995653 0.976041517995661
4 CN 1 0 2 0
0

0101000
+104 0 -103 0 *
Ve
1e-07
3.75277674973257 6.5 5.82395848200434
0 0

0101101
*
Ed
 1e-07 1 1 0
1  2 0 0 7.59483489750648
2  3 1 0 0 7.59483489750648
4 C0 1 0 3 0
0

0101000
+104 0 -101 0 *
Ve
1e-07
-3.75277674973256 6.5 5.82395848200434
0 0

0101101
*
Ed
 1e-07 1 1 0
1  3 0 0 7.59483489750647
2  4 1 0 0 7.59483489750647
4 C0 1 0 4 0
0

0101000
+101 0 -99 0 *
Ve
1e-07
-7.50555349946513 3.90931650687351e-15 5.82395848200434
0 0

0101101
*
Ed
 1e-07 1 1 0
1  4 0 0 7.59483489750647
2  5 1 0 0 7.59483489750647
4 C0 1 0 5 0
0

0101000
+99 0 -97 0 *
Ve
1e-07
-5.815 1.12847475504732e-15 6.8
0 0

0101101
*
Ed
 1e-07 1 1 0
1  5 0 -0.976041517995661 0.976041517995653
2  6 1 0 -0.976041517995661 0.976041517995653
2  7 2 0 -0.976041517995661 0.976041517995653
4 CN 1 0 2 0
0

0101000
+95 0 -97 0 *
Ed
 1e-07 1 1 0
1  6 0 3.14159265358979 6.28318530717959
2  8 1 0 3.14159265358979 6.28318530717959
4 C0 1 0 6 0
0

0101000
+95 0 -103 0 *
Wi

0101100
-102 0 +100 0 +98 0 +96 0 -94 0 +93 0 *
Fa
0  1e-07 1 0

0111000
+92 0 *
Ve
1e-07
5.815 0 0
0 0

0101101
*
Ve
1e-07
7.50555349946513 5.97633322265961e-17 0.976041517995659
0 0

0101101
*
Ed
 1e-07 1 1 0
1  7 0 -0.976041517995661 0.976041517995653
2  9 7 0 -0.976041517995661 0.976041517995653
2  10 8 0 -0.976041517995661 0.976041517995653
4 CN 7 0 8 0
0

0101000
+90 0 -89 0 *
Ve
1e-07
-5.815 7.12108594747712e-16 -4.36026354869787e-32
0 0

0101101
*
Ed
 1e-07 1 1 0
1  8 0 0 3.14159265358979
2  11 7 0 0 3.14159265358979
4 C0 7 0 9 0
0

0101000
+90 0 -87 0 *
Ve
1e-07
-7.50555349946513 3.6124770110271e-15 0.976041517995659
0 0

0101101
*
Ed
 1e-07 1 1 0
1  9 0 -0.976041517995653 0.976041517995661
2  12 7 0 -0.976041517995653 0.976041517995661
2  13 8 0 -0.976041517995653 0.976041517995661
4 CN 7 0 8 0
0

0101000
+85 0 -87 0 *
Ve
1e-07
-3.75277674973256 6.5 0.976041517995659
0 0

0101101
*
Ed
 1e-07 1 1 0
1  10 0 0 7.59483489750647
2  14 7 0 0 7.59483489750647
4 C0 7 0 5 0
0

0101000
+85 0 -83 0 *
Ve
1e-07
3.75277674973257 6.5 0.976041517995659
0 0

0101101
*
Ed
 1e-07 1 1 0
1  11 0 0 7.59483489750647
2  15 7 0 0 7.59483489750647
4 C0 7 0 4 0
0

0101000
+83 0 -81 0 *
Ed
 1e-07 1 1 0
1  12 0 0 7.59483489750648
2  16 7 0 0 7.59483489750648
4 C0 7 0 3 0
0

0101000
+81 0 -89 0 *
Wi

0101100
-88 0 +86 0 -84 0 +82 0 +80 0 +79 0 *
Fa
0  1e-07 7 0

0111000
+78 0 *
Ve
1e-07
3.45875 3.97232247307278e-16 6.48750916680112
0 0

0101101
*
Ve
1e-07
-3.45875 8.20792969935593e-16 6.48750916680112
0 0

0101101
*
Ed
 1e-07 1 1 0
1  13 0 0 3.14159265358979
2  17 10 0 0 3.14159265358979
2  18 11 0 0 3.14159265358979
4 C0 10 0 11 0
0

0101000
+76 0 -75 0 *
Ve
1e-07
-4 9.06208701828559e-16 6.8
0 0

0101101
*
Ed
 1e-07 1 1 0
1  14 0 -0.312490833198884 0.312490833198883
2  19 10 0 -0.312490833198884 0.312490833198883
2  20 12 0 -0.312490833198884 0.312490833198883
4 CN 10 0 12 0
0

0101000
+75 0 -73 0 *
Ve
1e-07
4 4.16366160299608e-16 6.8
0 0

0101101
*
Ed
 1e-07 1 1 0
1  15 0 3.14159265358979 6.28318530717959
2  21 10 0 3.14159265358979 6.28318530717959
4 C0 10 0 6 0
0

0101000
+73 0 -71 0 *
Ed
 1e-07 1 1 0
1  16 0 -0.312490833198883 0.312490833198884
2  22 10 0 -0.312490833198883 0.312490833198884
2  23 12 0 -0.312490833198883 0.312490833198884
4 CN 10 0 12 0
0

0101000
+71 0 -76 0 *
Wi

0101100
+74 0 +72 0 +70 0 +69 0 *
Fa
0  1e-07 10 0

0111000
+68 0 *
Ve
1e-07
3.45875 1.91339129923301e-17 0.312490833198885
0 0

0101101
*
Ve
1e-07
-3.45875 4.42694635620645e-16 0.312490833198885
0 0

0101101
*
Ed
 1e-07 1 1 0
1  17 0 0 3.14159265358979
2  24 11 0 0 3.14159265358979
2  25 13 0 0 3.14159265358979
4 C0 11 0 13 0
0

0101000
+66 0 -65 0 *
Ed
 1e-07 1 1 0
1  18 0 -3.08750916680111 3.08750916680112
2  26 11 0 -3.08750916680111 3.08750916680112
2  27 14 0 -3.08750916680111 3.08750916680112
4 CN 11 0 14 0
0

0101000
+65 0 -75 0 *
Ed
 1e-07 1 1 0
1  19 0 -3.08750916680112 3.08750916680111
2  28 11 0 -3.08750916680112 3.08750916680111
2  29 14 0 -3.08750916680112 3.08750916680111
4 CN 11 0 14 0
0

0101000
+76 0 -66 0 *
Wi

0101100
+64 0 +63 0 -74 0 +62 0 *
Fa
0  1e-07 11 0

0111000
+61 0 *
Ve
1e-07
4 0 0
0 0

0101101
*
Ve
1e-07
-4 4.89842541528951e-16 -2.99932144364427e-32
0 0

0101101
*
Ed
 1e-07 1 1 0
1  20 0 0 3.14159265358979
2  30 13 0 0 3.14159265358979
4 C0 13 0 9 0
0

0101000
+59 0 -58 0 *
Ed
 1e-07 1 1 0
1  21 0 -0.312490833198885 0.312490833198885
2  31 13 0 -0.312490833198885 0.312490833198885
2  32 15 0 -0.312490833198885 0.312490833198885
4 CN 13 0 15 0
0

0101000
+58 0 -65 0 *
Ed
 1e-07 1 1 0
1  22 0 -0.312490833198885 0.312490833198885
2  33 13 0 -0.312490833198885 0.312490833198885
2  34 15 0 -0.312490833198885 0.312490833198885
4 CN 13 0 15 0
0

0101000
+66 0 -59 0 *
Wi

0101100
+57 0 +56 0 -64 0 +55 0 *
Fa
0  1e-07 13 0

0111000
+54 0 *
Ed
 1e-07 1 1 0
1  23 0 3.14159265358979 6.28318530717959
2  35 15 0 3.14159265358979 6.28318530717959
2  36 14 0 3.14159265358979 6.28318530717959
4 C0 15 0 14 0
0

0101000
+65 0 -66 0 *
Ed
 1e-07 1 1 0
1  24 0 3.14159265358979 6.28318530717959
2  37 15 0 3.14159265358979 6.28318530717959
4 C0 15 0 9 0
0

0101000
+58 0 -59 0 *
Wi

0101100
-52 0 -56 0 +51 0 -55 0 *
Fa
0  1e-07 15 0

0111000
+50 0 *
Ed
 1e-07 1 1 0
1  25 0 3.14159265358979 6.28318530717959
2  38 14 0 3.14159265358979 6.28318530717959
2  39 12 0 3.14159265358979 6.28318530717959
4 C0 14 0 12 0
0

0101000
+75 0 -76 0 *
Wi

0101100
-48 0 -63 0 +52 0 -62 0 *
Fa
0  1e-07 14 0

0111000
+47 0 *
Ed
 1e-07 1 1 0
1  26 0 0 3.14159265358979
2  40 12 0 0 3.14159265358979
4 C0 12 0 6 0
0

0101000
+71 0 -73 0 *
Wi

0101100
+45 0 -72 0 +48 0 -69 0 *
Fa
0  1e-07 12 0

0111000
+44 0 *
Ve
1e-07
3.75277674973257 -6.5 0.97604151799566
0 0

0101101
*
Ed
 1e-07 1 1 0
1  27 0 0 7.59483489750647
2  41 8 0 0 7.59483489750647
4 C0 8 0 16 0
0

0101000
+89 0 -42 0 *
Ve
1e-07
-3.75277674973257 -6.5 0.97604151799566
0 0

0101101
*
Ed
 1e-07 1 1 0
1  28 0 0 7.59483489750647
2  42 8 0 0 7.59483489750647
4 C0 8 0 17 0
0

0101000
+42 0 -40 0 *
Ed
 1e-07 1 1 0
1  29 0 0 7.59483489750647
2  43 8 0 0 7.59483489750647
4 C0 8 0 18 0
0

0101000
+40 0 -85 0 *
Ed
 1e-07 1 1 0
1  30 0 3.14159265358979 6.28318530717959
2  44 8 0 3.14159265358979 6.28318530717959
4 C0 8 0 9 0
0

0101000
+87 0 -90 0 *
Wi

0101100
+88 0 +41 0 +39 0 +38 0 +84 0 +37 0 *
Fa
0  1e-07 8 0

0111000
+36 0 *
Ed
 1e-07 1 1 0
1  31 0 0 3.14159265358979
2  45 2 0 0 3.14159265358979
4 C0 2 0 6 0
0

0101000
+103 0 -95 0 *
Ve
1e-07
-3.75277674973257 -6.5 5.82395848200434
0 0

0101101
*
Ed
 1e-07 1 1 0
1  32 0 0 7.59483489750646
2  46 2 0 0 7.59483489750646
4 C0 2 0 18 0
0

0101000
+97 0 -33 0 *
Ve
1e-07
3.75277674973257 -6.5 5.82395848200434
0 0

0101101
*
Ed
 1e-07 1 1 0
1  33 0 0 7.59483489750647
2  47 2 0 0 7.59483489750647
4 C0 2 0 17 0
0

0101000
+33 0 -31 0 *
Ed
 1e-07 1 1 0
1  34 0 0 7.59483489750647
2  48 2 0 0 7.59483489750647
4 C0 2 0 16 0
0

0101000
+31 0 -104 0 *
Wi

0101100
+102 0 +34 0 +94 0 +32 0 +30 0 +29 0 *
Fa
0  1e-07 2 0

0111000
+28 0 *
Ed
 1e-07 1 1 0
1  35 0 0.976041517995659 5.82395848200434
4 C0 5 0 4 0
0

0101000
+83 0 -99 0 *
Ed
 1e-07 1 1 0
1  36 0 0.976041517995659 5.82395848200434
4 C0 5 0 18 0
0

0101000
+85 0 -97 0 *
Wi

0101100
-96 0 -26 0 -82 0 +25 0 *
Fa
0  1e-07 5 0

0111000
+24 0 *
Ed
 1e-07 1 1 0
1  37 0 0.976041517995659 5.82395848200434
4 C0 4 0 3 0
0

0101000
+81 0 -101 0 *
Wi

0101100
-98 0 -22 0 -80 0 +26 0 *
Fa
0  1e-07 4 0

0111000
+21 0 *
Ed
 1e-07 1 1 0
1  38 0 0.976041517995659 5.82395848200434
4 C0 3 0 16 0
0

0101000
+89 0 -104 0 *
Wi

0101100
-100 0 -19 0 -79 0 +22 0 *
Fa
0  1e-07 3 0

0111000
+18 0 *
Ed
 1e-07 1 1 0
1  39 0 0.97604151799566 5.82395848200434
4 C0 16 0 17 0
0

0101000
+42 0 -31 0 *
Wi

0101100
-29 0 -16 0 -41 0 +19 0 *
Fa
0  1e-07 16 0

0111000
+15 0 *
Wi

0101100
+57 0 +51 0 *
Wi

0101100
-86 0 -37 0 *
Fa
0  1e-07 9 0

0111000
-13 0 -12 0 *
Wi

0101100
+45 0 +70 0 *
Wi

0101100
-34 0 -93 0 *
Fa
0  1e-07 6 0

0111000
+10 0 +9 0 *
Ed
 1e-07 1 1 0
1  40 0 0.97604151799566 5.82395848200434
4 C0 17 0 18 0
0

0101000
+40 0 -33 0 *
Wi

0101100
-30 0 -7 0 -39 0 +16 0 *
Fa
0  1e-07 17 0

0111000
+6 0 *
Wi

0101100
-32 0 -25 0 -38 0 +7 0 *
Fa
0  1e-07 18 0

0111000
+4 0 *
Sh

0101100
+91 0 +77 0 -67 0 -60 0 -53 0 -49 0 -46 0 -43 0 +35 0 +27 0 
+23 0 +20 0 +17 0 +14 0 -11 0 +8 0 +5 0 +3 0 *
So

0100000
+2 0 *

+1 0 