DBRep_DrawableShape

CASCADE Topology V1, (c) Matra-Datavision
Locations 0
Curve2ds 72
1 6.2831853071795862 -0.13395254086102656 -1 0 
1 0 -0.46056249999999999 1 0 
1 3.1415926535897931 2.7755575615628914e-17 0 1 
1 3.1415926535897931 2.7755575615628914e-17 0 1 
1 6.2831853071795862 0.13395254086102665 -1 0 
1 0 2.7755575615628914e-17 0 -1 
1 6.2831853071795862 2.7755575615628914e-17 0 -1 
1 0 0.46056249999999987 1 0 
1 0 -0.1339525408610267 1 0 
1 3.1415926535897931 0 0 -1 
1 3.1415926535897931 0 0 -1 
1 6.2831853071795862 0 0 1 
1 0 0 0 1 
1 0 0.13395254086102662 1 0 
1 3.1415926535897931 -2.7755575615628914e-17 0 -1 
1 3.1415926535897931 -2.7755575615628914e-17 0 -1 
1 6.2831853071795862 -5.5511151231257827e-17 0 1 
1 0 -5.5511151231257827e-17 0 1 
1 6.2831853071795862 8.3266726846886741e-17 0 -1 
1 0 8.3266726846886741e-17 0 -1 
7 0 0  3 25 23  6.2831853071795862 0.14262960516750828  6.275886850476426 0.13364047064958504  6.2612227562240861 0.116146757002917  6.2390279315978141 0.091324439480291689  6.2166371865617593 0.067883784313848242  6.1940536215370514 0.045792321711018096  6.171280562550943 0.025020100920934703  6.1483215948205938 0.0055399568705914969  6.1251805565364021 -0.012672705648770209  6.1018615424590488 -0.029639981535811998  6.0783689039853481 -0.045381558168473127  6.0547072492106278 -0.059914786894176897  6.0308814419977335 -0.073254745897435608  6.0068966002776563 -0.085414291658556782  5.9827580934846942 -0.096404100253525443  5.9584715391248544 -0.10623269849322099  5.9340427984405171 -0.11490648532909592  5.9094779712095145 -0.12242974296558583  5.8847833894820418 -0.12880464012675291  5.8599656109555296 -0.13403121837675117  5.8350314093701989 -0.13810739506979836  5.8099877717175206 -0.14102885683148594  5.7848418657709137 -0.14278931295871308  5.7680146980630109 -0.14318267451888336  5.7595865315812871 -0.14318286675902664 
 0.00087352336559480017 4 0.043476118830898261 1 0.08607871429620173 1 0.12868130976150519 1 0.17128390522680864 1 0.2138865006921121 1 0.25648909615741561 1 0.29909169162271904 1 0.34169428708802252 1 0.384296882553326 1 0.42689947801862943 1 0.46950207348393291 1 0.51210466894923634 1 0.55470726441453977 1 0.5973098598798432 1 0.63991245534514674 1 0.68251505081045016 1 0.72511764627575359 1 0.76772024174105713 1 0.81032283720636056 1 0.85292543267166399 1 0.89552802813696752 1 0.93813062360227095 4
1 6.2831853071795862 -0.14318286675902531 -1 0 
1 3.1415926535897931 2.7755575615628914e-17 0 1 
1 3.1415926535897931 2.7755575615628914e-17 0 1 
1 6.2831853071795862 -0.14318286675902414 -1 -3.7106471283740946e-16 
7 0 0  3 25 23  3.6651914291880927 -0.14318286675902608  3.656763262706368 -0.14318267451888259  3.6399360949984665 -0.14278931295871236  3.6147901890518606 -0.14102885683148608  3.5897465513991809 -0.13810739506979713  3.5648123498138515 -0.13403121837675036  3.5399945712873389 -0.12880464012675336  3.5152999895598649 -0.12242974296558569  3.490735162328864 -0.11490648532909546  3.4663064216445272 -0.10623269849322117  3.4420198672846856 -0.096404100253524458  3.4178813604917218 -0.085414291658556851  3.3938965187716472 -0.073254745897434345  3.370070711558752 -0.059914786894176328  3.3464090567840303 -0.045381558168472398  3.3229164183103297 -0.029639981535810656  3.2995974042329776 -0.012672705648770339  3.2764563659487842 0.005539956870592725  3.2534973982184368 0.025020100920935318  3.2307243392323262 0.045792321711018741  3.20814077420762 0.067883784313849671  3.1857500291715621 0.091324439480291494  3.1635552045452942 0.11614675700291799  3.1488911102929533 0.13364047064958559  3.141592653589794 0.14262960516750797 
 0.93813062360227195 4 0.98073321906757527 1 1.0233358145328786 1 1.0659384099981819 1 1.1085410054634852 1 1.1511436009287885 1 1.1937461963940919 1 1.2363487918593952 1 1.2789513873246985 1 1.3215539827900018 1 1.3641565782553051 1 1.4067591737206084 1 1.4493617691859115 1 1.4919643646512148 1 1.5345669601165182 1 1.5771695555818215 1 1.6197721510471248 1 1.6623747465124281 1 1.7049773419777314 1 1.7475799374430347 1 1.7901825329083381 1 1.8327851283736414 1 1.8753877238389447 4
1 0 5.5511151231257827e-17 0 1 
1 6.2831853071795862 5.5511151231257827e-17 0 1 
1 0 -0.14318286675902708 1 0 
7 0 0  3 25 23  0.52359877559829915 -0.14318286675902825  0.51517060911657442 -0.14318267451888442  0.49834344140867248 -0.14278931295871417  0.47319753546206478 -0.14102885683148889  0.44815389780938997 -0.13810739506979955  0.42321969622405842 -0.13403121837675278  0.39840191769754352 -0.12880464012675569  0.37370733597007355 -0.1224297429655879  0.34914250873906916 -0.11490648532909813  0.32471376805473451 -0.10623269849322343  0.30042721369489289 -0.096404100253526998  0.27628870690193175 -0.085414291658559835  0.25230386518185188 -0.07325474589743726  0.22847805796895937 -0.059914786894179048  0.20481640319423544 -0.045381558168475403  0.18132376472053835 -0.029639981535813223  0.15800475064318231 -0.012672705648772885  0.1348637123589933 0.005539956870589488  0.11190474462864231 0.025020100920931983  0.089131685642533043 0.045792321711015493  0.066548120617825113 0.067883784313845438  0.044157375581769465 0.091324439480288441  0.021962550955501037 0.11614675700291435  0.0072984567031584291 0.13364047064958162  -8.8817841970012523e-16 0.142629605167504 
 0.93813062360227195 4 0.98073321906757527 1 1.0233358145328786 1 1.0659384099981817 1 1.108541005463485 1 1.1511436009287883 1 1.1937461963940916 1 1.2363487918593949 1 1.278951387324698 1 1.3215539827900014 1 1.3641565782553047 1 1.4067591737206078 1 1.4493617691859111 1 1.4919643646512144 1 1.5345669601165177 1 1.577169555581821 1 1.6197721510471244 1 1.6623747465124277 1 1.7049773419777308 1 1.7475799374430341 1 1.7901825329083372 1 1.8327851283736405 1 1.8753877238389438 4
1 3.1415926535897931 0 0 -1 
1 3.1415926535897931 0 0 -1 
7 0 0  3 25 23  3.1415926535897918 0.14262960516750439  3.1342941968866325 0.13364047064958154  3.1196301026342921 0.1161467570029138  3.0974352780080223 0.091324439480287969  3.0750445329719671 0.067883784313845938  3.0524609679472587 0.045792321711014723  3.0296879089611499 0.025020100920932493  3.0067289412308007 0.005539956870588697  2.9835879029466086 -0.012672705648773376  2.9602688888692574 -0.029639981535813657  2.9367762503955555 -0.045381558168476263  2.9131145956208342 -0.059914786894178208  2.8892887884079395 -0.073254745897438092  2.8653039466878649 -0.085414291658559141  2.8411654398949007 -0.096404100253526942  2.8168788855350595 -0.10623269849322352  2.7924501448507231 -0.11490648532909822  2.7678853176197209 -0.12242974296558756  2.7431907358922478 -0.12880464012675602  2.718372957365736 -0.13403121837675233  2.6934387557804058 -0.13810739506980027  2.6683951181277261 -0.14102885683148808  2.6432492121811206 -0.14278931295871461  2.6264220444732183 -0.14318267451888494  2.617993877991494 -0.1431828667590285 
 0.0008735233655959942 4 0.043476118830899448 1 0.08607871429620291 1 0.12868130976150635 1 0.17128390522680981 1 0.21388650069211326 1 0.25648909615741672 1 0.2990916916227202 1 0.34169428708802363 1 0.38429688255332706 1 0.42689947801863054 1 0.46950207348393402 1 0.51210466894923745 1 0.55470726441454088 1 0.59730985987984442 1 0.63991245534514785 1 0.68251505081045127 1 0.7251176462757547 1 0.76772024174105813 1 0.81032283720636167 1 0.8529254326716651 1 0.89552802813696852 1 0.93813062360227195 4
1 0 -0.14318286675902708 1 0 
7 0 0  3 25 23  5.2359877559829879 0.14262960516750317  5.2286892992798286 0.13364047064958057  5.2140252050274887 0.11614675700291299  5.1918303804012202 0.091324439480287026  5.169439635365161 0.067883784313845619  5.1468560703404567 0.045792321711014147  5.1240830113543456 0.025020100920932358  5.1011240436239973 0.0055399568705881688  5.0779830053398047 -0.012672705648772873  5.0546639912624522 -0.029639981535814482  5.0311713527887516 -0.045381558168475236  5.0075096980140312 -0.059914786894178493  4.9836838908011361 -0.073254745897437357  4.9596990490810615 -0.085414291658559044  4.9355605422880986 -0.096404100253526387  4.9112739879282543 -0.10623269849322314  4.8868452472439197 -0.11490648532909746  4.8622804200129179 -0.12242974296558704  4.8375858382854435 -0.12880464012675499  4.8127680597589313 -0.13403121837675169  4.7878338581736006 -0.13810739506979869  4.762790220520924 -0.14102885683148642  4.7376443145743146 -0.14278931295871322  4.7208171468664135 -0.14318267451888364  4.7123889803846897 -0.14318286675902708 
 0.0008735233655949023 4 0.043476118830898448 1 0.086078714296201994 1 0.12868130976150555 1 0.17128390522680909 1 0.21388650069211262 1 0.25648909615741616 1 0.2990916916227197 1 0.34169428708802324 1 0.38429688255332678 1 0.42689947801863032 1 0.46950207348393386 1 0.51210466894923745 1 0.55470726441454099 1 0.59730985987984453 1 0.63991245534514807 1 0.68251505081045161 1 0.72511764627575515 1 0.76772024174105868 1 0.81032283720636222 1 0.85292543267166576 1 0.8955280281369693 1 0.93813062360227295 4
1 0 -0.14318286675902708 1 0 
7 0 0  3 25 23  5.7595865315812871 -0.1431828667590285  5.7511583650995632 -0.14318267451888486  5.7343311973916613 -0.14278931295871489  5.7091852914450536 -0.14102885683148958  5.6841416537923752 -0.13810739506980088  5.6592074522070446 -0.13403121837675405  5.6343896736805332 -0.12880464012675766  5.6096950919530579 -0.12242974296558944  5.585130264722058 -0.11490648532910046  5.5607015240377216 -0.10623269849322517  5.536414969677879 -0.096404100253529454  5.5122764628849161 -0.085414291658562055  5.4882916211648398 -0.073254745897439535  5.4644658139519464 -0.059914786894181435  5.4408041591772225 -0.045381558168478241  5.4173115207035254 -0.029639981535815416  5.3939925066261702 -0.012672705648775911  5.3708514683419786 0.0055399568705869363  5.3478925006116311 0.025020100920929714  5.3251194416255192 0.045792321711012988  5.302535876600813 0.067883784313844592  5.2801451315647574 0.091324439480286498  5.2579503069384881 0.11614675700291228  5.2432862126861481 0.13364047064958004  5.2359877559829879 0.14262960516750289 
 0.93813062360227195 4 0.98073321906757527 1 1.0233358145328786 1 1.0659384099981821 1 1.1085410054634854 1 1.1511436009287888 1 1.1937461963940921 1 1.2363487918593954 1 1.2789513873246987 1 1.3215539827900022 1 1.3641565782553056 1 1.4067591737206089 1 1.4493617691859122 1 1.4919643646512157 1 1.5345669601165191 1 1.5771695555818224 1 1.6197721510471257 1 1.662374746512429 1 1.7049773419777323 1 1.7475799374430356 1 1.7901825329083392 1 1.8327851283736425 1 1.8753877238389458 4
7 0 0  3 25 23  4.1887902047863905 0.14262960516750395  4.1814917480832312 0.13364047064958118  4.1668276538308895 0.11614675700291351  4.1446328292046219 0.091324439480287831  4.1222420841685627 0.067883784313846243  4.0996585191438575 0.045792321711014987  4.0768854601577447 0.025020100920932362  4.053926492427399 0.005539956870589972  4.0307854541432055 -0.012672705648772901  4.0074664400658531 -0.029639981535812713  3.9839738015921533 -0.045381558168474209  3.9603121468174298 -0.059914786894177598  3.9364863396045364 -0.073254745897436441  3.9125014978844614 -0.085414291658558059  3.8883629910914976 -0.096404100253525762  3.8640764367316573 -0.10623269849322226  3.8396476960473209 -0.11490648532909765  3.8150828688163188 -0.12242974296558641  3.7903882870888452 -0.12880464012675533  3.7655705085623348 -0.13403121837675153  3.7406363069770032 -0.13810739506979941  3.7155926693243253 -0.14102885683148755  3.6904467633777203 -0.14278931295871394  3.6736195956698166 -0.14318267451888453  3.6651914291880923 -0.14318286675902844 
 0.0008735233655934911 4 0.043476118830897012 1 0.086078714296200523 1 0.12868130976150405 1 0.17128390522680756 1 0.21388650069211107 1 0.25648909615741461 1 0.29909169162271809 1 0.34169428708802163 1 0.38429688255332517 1 0.42689947801862865 1 0.46950207348393219 1 0.51210466894923579 1 0.55470726441453932 1 0.59730985987984275 1 0.63991245534514629 1 0.68251505081044983 1 0.72511764627575337 1 0.76772024174105691 1 0.81032283720636034 1 0.85292543267166387 1 0.89552802813696741 1 0.93813062360227095 4
1 -4.4408920985006262e-16 -0.14318286675902708 1 0 
7 0 0  3 25 23  4.7123889803846897 -0.14318286675902708  4.7039608139029658 -0.14318267451888345  4.687133646195063 -0.14278931295871333  4.6619877402484562 -0.1410288568314875  4.6369441025957769 -0.1381073950697988  4.6120099010104454 -0.13403121837675144  4.587192122483934 -0.12880464012675483  4.5624975407564587 -0.12242974296558698  4.5379327135254588 -0.11490648532909678  4.5135039728411224 -0.10623269849322271  4.4892174184812799 -0.096404100253525943  4.4650789116883169 -0.085414291658559488  4.4410940699682442 -0.073254745897436829  4.4172682627553481 -0.059914786894178854  4.3936066079806277 -0.045381558168475451  4.3701139695069271 -0.029639981535814638  4.3467949554295746 -0.01267270564877351  4.3236539171453821 0.005539956870588148  4.3006949494150337 0.025020100920931383  4.2779218904289227 0.045792321711012926  4.2553383254042174 0.067883784313845313  4.2329475803681582 0.091324439480286956  4.2107527557418925 0.11614675700291381  4.1960886614895498 0.1336404706495814  4.1887902047863896 0.14262960516750378 
 0.93813062360227295 4 0.98073321906757671 1 1.0233358145328804 1 1.0659384099981841 1 1.1085410054634879 1 1.1511436009287916 1 1.1937461963940954 1 1.2363487918593992 1 1.2789513873247029 1 1.3215539827900067 1 1.3641565782553104 1 1.4067591737206142 1 1.4493617691859177 1 1.4919643646512215 1 1.5345669601165253 1 1.577169555581829 1 1.6197721510471328 1 1.6623747465124366 1 1.7049773419777403 1 1.7475799374430441 1 1.7901825329083478 1 1.8327851283736516 1 1.8753877238389554 4
1 0 -0.14318286675902708 1 0 
7 0 0  3 25 23  3.6651914291880923 -0.14318286675902844  3.656763262706368 -0.14318267451888494  3.639936094998466 -0.14278931295871475  3.6147901890518601 -0.14102885683148855  3.5897465513991809 -0.13810739506979933  3.5648123498138498 -0.134031218376752  3.5399945712873389 -0.12880464012675585  3.5152999895598649 -0.12242974296558733  3.4907351623288636 -0.11490648532909814  3.4663064216445263 -0.10623269849322302  3.4420198672846851 -0.096404100253526789  3.4178813604917213 -0.085414291658559086  3.3938965187716468 -0.07325474589743726  3.370070711558752 -0.059914786894178187  3.3464090567840299 -0.04538155816847593  3.3229164183103297 -0.02963998153581391  3.2995974042329776 -0.012672705648772745  3.2764563659487846 0.0055399568705887768  3.2534973982184376 0.025020100920932646  3.2307243392323262 0.045792321711015299  3.2081407742076204 0.067883784313846104  3.1857500291715635 0.091324439480287956  3.1635552045452933 0.11614675700291431  3.1488911102929533 0.13364047064958209  3.141592653589794 0.14262960516750467 
 0.93813062360227095 4 0.98073321906757427 1 1.0233358145328777 1 1.065938409998181 1 1.1085410054634843 1 1.1511436009287876 1 1.193746196394091 1 1.2363487918593945 1 1.2789513873246978 1 1.3215539827900011 1 1.3641565782553045 1 1.4067591737206078 1 1.4493617691859111 1 1.4919643646512144 1 1.5345669601165177 1 1.577169555581821 1 1.6197721510471244 1 1.6623747465124277 1 1.704977341977731 1 1.7475799374430345 1 1.7901825329083378 1 1.8327851283736412 1 1.8753877238389445 4
7 0 0  3 25 23  2.617993877991494 -0.1431828667590285  2.6095657115097697 -0.14318267451888464  2.5927385438018673 -0.14278931295871461  2.5675926378552605 -0.14102885683148969  2.5425490002025812 -0.13810739506980071  2.5176147986172523 -0.13403121837675339  2.4927970200907392 -0.12880464012675713  2.4681024383632653 -0.12242974296558995  2.443537611132264 -0.11490648532910001  2.419108870447928 -0.10623269849322531  2.3948223160880864 -0.096404100253529301  2.3706838092951226 -0.0854142916585615  2.3466989675750476 -0.073254745897439882  2.3228731603621537 -0.05991478689418081  2.2992115055874307 -0.045381558168478282  2.2757188671137318 -0.029639981535816123  2.2523998530363776 -0.012672705648775744  2.2292588147521855 0.0055399568705866353  2.2062998470218385 0.025020100920930297  2.1835267880357274 0.045792321711012891  2.1609432230110217 0.067883784313844064  2.1385524779749638 0.091324439480286318  2.1163576533486945 0.11614675700291234  2.101693559096355 0.13364047064958018  2.0943951023931953 0.142629605167503 
 0.93813062360227195 4 0.98073321906757527 1 1.0233358145328786 1 1.0659384099981821 1 1.1085410054634854 1 1.1511436009287888 1 1.1937461963940921 1 1.2363487918593954 1 1.2789513873246987 1 1.3215539827900022 1 1.3641565782553056 1 1.4067591737206089 1 1.4493617691859122 1 1.4919643646512157 1 1.5345669601165191 1 1.5771695555818224 1 1.6197721510471257 1 1.662374746512429 1 1.7049773419777323 1 1.7475799374430356 1 1.7901825329083392 1 1.8327851283736425 1 1.8753877238389458 4
7 0 0  3 25 23  2.0943951023931953 0.14262960516750328  2.0870966456900355 0.13364047064958071  2.072432551437696 0.1161467570029131  2.0502377268114271 0.091324439480287026  2.0278469817753688 0.06788378431384598  2.0052634167506636 0.04579232171101421  1.9824903577645521 0.025020100920932094  1.9595313900342044 0.0055399568705883214  1.9363903517500123 -0.012672705648772929  1.9130713376726594 -0.029639981535814191  1.8895786991989596 -0.045381558168475042  1.865917044424237 -0.059914786894178305  1.8420912372113432 -0.073254745897437093  1.8181063954912684 -0.085414291658559127  1.7939678886983041 -0.096404100253526331  1.7696813343384625 -0.10623269849322325  1.7452525936541263 -0.11490648532909715  1.7206877664231248 -0.12242974296558709  1.6959931846956511 -0.12880464012675513  1.6711754061691388 -0.13403121837675147  1.6462412045838091 -0.13810739506979858  1.62119756693113 -0.14102885683148619  1.5960516609845228 -0.14278931295871328  1.5792244932766211 -0.14318267451888372  1.5707963267948966 -0.14318286675902711 
 0.0008735233655949023 4 0.043476118830898448 1 0.086078714296201994 1 0.12868130976150555 1 0.17128390522680909 1 0.21388650069211262 1 0.25648909615741616 1 0.2990916916227197 1 0.34169428708802324 1 0.38429688255332678 1 0.42689947801863032 1 0.46950207348393386 1 0.51210466894923745 1 0.55470726441454099 1 0.59730985987984453 1 0.63991245534514807 1 0.68251505081045161 1 0.72511764627575515 1 0.76772024174105868 1 0.81032283720636222 1 0.85292543267166576 1 0.8955280281369693 1 0.93813062360227295 4
1 0 -0.14318286675902708 1 0 
7 0 0  3 25 23  1.5707963267948966 -0.14318286675902711  1.5623681603131723 -0.14318267451888347  1.5455409926052701 -0.14278931295871333  1.5203950866586637 -0.14102885683148772  1.4953514490059845 -0.13810739506979816  1.4704172474206545 -0.13403121837675161  1.445599468894142 -0.12880464012675502  1.4209048871666681 -0.12242974296558738  1.3963400599356672 -0.11490648532909745  1.3719113192513299 -0.1062326984932231  1.3476247648914892 -0.096404100253526762  1.3234862580985247 -0.085414291658558655  1.2995014163784502 -0.073254745897437426  1.2756756091655554 -0.059914786894178458  1.2520139543908337 -0.045381558168475257  1.2285213159171335 -0.029639981535814337  1.2052023018397811 -0.012672705648773229  1.1820612635555883 0.0055399568705885062  1.159102295825241 0.025020100920931664  1.13632923683913 0.045792321711014647  1.1137456718144241 0.067883784313845744  1.0913549267783669 0.091324439480286693  1.0691601021520978 0.11614675700291371  1.0544960078997572 0.13364047064958118  1.0471975511965979 0.14262960516750328 
 0.93813062360227295 4 0.98073321906757671 1 1.0233358145328804 1 1.0659384099981841 1 1.1085410054634879 1 1.1511436009287916 1 1.1937461963940954 1 1.2363487918593989 1 1.2789513873247027 1 1.3215539827900065 1 1.3641565782553102 1 1.406759173720614 1 1.4493617691859177 1 1.4919643646512215 1 1.5345669601165253 1 1.577169555581829 1 1.6197721510471328 1 1.6623747465124366 1 1.7049773419777403 1 1.7475799374430439 1 1.7901825329083476 1 1.8327851283736514 1 1.8753877238389551 4
7 0 0  3 25 23  1.0471975511965979 0.14262960516750386  1.0398990944934383 0.13364047064958096  1.0252350002410984 0.11614675700291303  1.0030401756148293 0.091324439480286776  0.9806494305787713 0.067883784313844522  0.9580658655540657 0.045792321711013127  0.93529280656795499 0.025020100920930509  0.91233383883760721 0.0055399568705870698  0.88919280055341532 -0.01267270564877513  0.86587378647606195 -0.029639981535816411  0.8423811480023623 -0.045381558168477512  0.81871949322763993 -0.059914786894181019  0.7948936860147453 -0.073254745897439758  0.77090884429467099 -0.085414291658561584  0.74677033750170663 -0.096404100253528746  0.72248378314186579 -0.106232698493226  0.69805504245752859 -0.11490648532909994  0.6734902152265273 -0.12242974296558926  0.648795633499054 -0.12880464012675749  0.62397785497254132 -0.1340312183767535  0.59904365338721177 -0.13810739506980071  0.5740000157345323 -0.14102885683148925  0.54885410978792593 -0.14278931295871489  0.53202694208002377 -0.14318267451888481  0.52359877559829948 -0.14318286675902825 
 0.00087352336559353989 4 0.043476118830897109 1 0.086078714296200676 1 0.12868130976150424 1 0.17128390522680781 1 0.21388650069211138 1 0.25648909615741494 1 0.29909169162271854 1 0.34169428708802208 1 0.38429688255332561 1 0.42689947801862921 1 0.4695020734839328 1 0.51210466894923634 1 0.55470726441453988 1 0.59730985987984353 1 0.63991245534514707 1 0.68251505081045061 1 0.72511764627575415 1 0.76772024174105769 1 0.81032283720636133 1 0.85292543267166487 1 0.89552802813696841 1 0.93813062360227195 4
1 0 -0.14318286675902708 1 0 
7 0 0  3 25 23  6.2831853071795862 0.1426296051675042  6.2758868504764251 0.13364047064958171  6.2612227562240852 0.1161467570029141  6.2390279315978159 0.091324439480288011  6.2166371865617611 0.067883784313846118  6.1940536215370514 0.04579232171101582  6.1712805625509413 0.025020100920932094  6.1483215948205956 0.0055399568705899  6.125180556536403 -0.012672705648773545  6.1018615424590505 -0.029639981535813466  6.078368903985349 -0.045381558168475118  6.0547072492106278 -0.059914786894178923  6.0308814419977335 -0.073254745897437051  6.0068966002776563 -0.085414291658559974  5.9827580934846925 -0.096404100253526664  5.9584715391248535 -0.10623269849322362  5.9340427984405144 -0.11490648532909807  5.9094779712095136 -0.12242974296558801  5.8847833894820409 -0.12880464012675544  5.8599656109555278 -0.13403121837675303  5.8350314093701989 -0.13810739506979927  5.8099877717175188 -0.14102885683148894  5.7848418657709129 -0.14278931295871444  5.7680146980630118 -0.14318267451888472  5.7595865315812871 -0.1431828667590285 
 0.00087352336559596709 4 0.04347611883089942 1 0.086078714296202882 1 0.12868130976150632 1 0.17128390522680978 1 0.21388650069211324 1 0.25648909615741672 1 0.2990916916227202 1 0.34169428708802363 1 0.38429688255332706 1 0.42689947801863054 1 0.46950207348393402 1 0.51210466894923745 1 0.55470726441454088 1 0.59730985987984442 1 0.63991245534514785 1 0.68251505081045127 1 0.7251176462757547 1 0.76772024174105813 1 0.81032283720636167 1 0.8529254326716651 1 0.89552802813696852 1 0.93813062360227195 4
1 0 -0.14318286675902708 1 0 
7 0 0  3 25 23  4.1887902047863896 0.14262960516750486  4.1814917480832312 0.13364047064958218  4.1668276538308904 0.11614675700291437  4.1446328292046211 0.091324439480287831  4.1222420841685636 0.067883784313845758  4.0996585191438584 0.045792321711013932  4.0768854601577473 0.0250201009209313  4.053926492427399 0.0055399568705880699  4.0307854541432091 -0.012672705648773496  4.007466440065854 -0.029639981535814951  3.9839738015921538 -0.045381558168476013  3.960312146817432 -0.059914786894179319  3.9364863396045386 -0.073254745897438037  3.9125014978844632 -0.085414291658559668  3.8883629910915012 -0.096404100253527192  3.8640764367316578 -0.10623269849322385  3.8396476960473218 -0.11490648532909747  3.8150828688163196 -0.12242974296558781  3.7903882870888475 -0.12880464012675499  3.7655705085623348 -0.13403121837675169  3.7406363069770059 -0.13810739506979888  3.7155926693243253 -0.14102885683148658  3.6904467633777194 -0.14278931295871289  3.6736195956698183 -0.14318267451888284  3.6651914291880927 -0.14318286675902608 
 0.00087352336559584566 4 0.043476118830899302 1 0.086078714296202757 1 0.12868130976150621 1 0.17128390522680967 1 0.21388650069211312 1 0.25648909615741655 1 0.29909169162272004 1 0.34169428708802346 1 0.38429688255332689 1 0.42689947801863037 1 0.46950207348393386 1 0.51210466894923734 1 0.55470726441454077 1 0.59730985987984431 1 0.63991245534514773 1 0.68251505081045116 1 0.72511764627575459 1 0.76772024174105802 1 0.81032283720636156 1 0.85292543267166498 1 0.89552802813696841 1 0.93813062360227195 4
1 6.2831853071795862 -0.14318286675902561 -1 1.8553235641870535e-16 
7 0 0  3 25 23  4.7123889803846897 -0.14318286675902531  4.7039608139029658 -0.14318267451888178  4.687133646195063 -0.14278931295871156  4.6619877402484562 -0.14102885683148536  4.6369441025957787 -0.13810739506979719  4.6120099010104472 -0.13403121837674983  4.5871921224839349 -0.12880464012675297  4.5624975407564623 -0.12242974296558541  4.5379327135254606 -0.11490648532909603  4.5135039728411241 -0.10623269849322112  4.4892174184812834 -0.096404100253525082  4.4650789116883169 -0.085414291658557906  4.4410940699682451 -0.073254745897434956  4.417268262755349 -0.059914786894177154  4.3936066079806269 -0.045381558168473189  4.3701139695069271 -0.029639981535811544  4.3467949554295746 -0.012672705648771288  4.3236539171453829 0.0055399568705914474  4.3006949494150346 0.025020100920933749  4.2779218904289227 0.04579232171101752  4.2553383254042165 0.06788378431384702  4.2329475803681618 0.09132443948028994  4.2107527557418907 0.11614675700291546  4.1960886614895516 0.13364047064958282  4.1887902047863914 0.14262960516750536 
 0.93813062360227195 4 0.98073321906757527 1 1.0233358145328786 1 1.0659384099981817 1 1.108541005463485 1 1.1511436009287883 1 1.1937461963940916 1 1.2363487918593949 1 1.278951387324698 1 1.3215539827900014 1 1.3641565782553047 1 1.4067591737206078 1 1.4493617691859111 1 1.4919643646512144 1 1.5345669601165177 1 1.577169555581821 1 1.6197721510471244 1 1.6623747465124277 1 1.7049773419777308 1 1.7475799374430341 1 1.7901825329083372 1 1.8327851283736405 1 1.8753877238389438 4
7 0 0  3 25 23  3.1415926535897927 0.14262960516750808  3.1342941968866334 0.13364047064958548  3.1196301026342925 0.11614675700291779  3.0974352780080241 0.091324439480291772  3.0750445329719667 0.067883784313849352  3.052460967947261 0.045792321711018623  3.029687908961149 0.025020100920934995  3.0067289412308025 0.0055399568705924475  2.9835879029466099 -0.012672705648770044  2.9602688888692565 -0.029639981535811565  2.9367762503955572 -0.04538155816847253  2.9131145956208337 -0.059914786894176744  2.889288788407939 -0.073254745897434984  2.8653039466878649 -0.085414291658557184  2.8411654398949011 -0.096404100253524749  2.8168788855350591 -0.10623269849322141  2.7924501448507226 -0.11490648532909646  2.7678853176197213 -0.12242974296558556  2.7431907358922478 -0.12880464012675416  2.7183729573657351 -0.13403121837675039  2.6934387557804054 -0.13810739506979847  2.6683951181277275 -0.14102885683148644  2.6432492121811202 -0.14278931295871305  2.6264220444732191 -0.14318267451888347  2.6179938779914944 -0.14318286675902703 
 0.00087352336559536612 4 0.043476118830898802 1 0.08607871429620223 1 0.12868130976150569 1 0.17128390522680911 1 0.21388650069211254 1 0.256489096157416 1 0.29909169162271942 1 0.34169428708802285 1 0.38429688255332628 1 0.42689947801862971 1 0.46950207348393314 1 0.51210466894923656 1 0.55470726441453999 1 0.59730985987984342 1 0.63991245534514685 1 0.68251505081045027 1 0.7251176462757537 1 0.76772024174105713 1 0.81032283720636056 1 0.85292543267166399 1 0.89552802813696741 1 0.93813062360227095 4
1 6.2831853071795862 -0.14318286675902531 -1 0 
7 0 0  3 25 23  2.0943951023931962 0.14262960516750742  2.0870966456900368 0.13364047064958443  2.072432551437696 0.11614675700291639  2.0502377268114267 0.091324439480290051  2.0278469817753679 0.067883784313847742  2.0052634167506631 0.045792321711016298  1.9824903577645516 0.025020100920933996  1.959531390034204 0.00553995687059024  1.9363903517500121 -0.012672705648771689  1.91307133767266 -0.029639981535812512  1.8895786991989592 -0.045381558168473238  1.8659170444242377 -0.059914786894176841  1.842091237211344 -0.073254745897435025  1.8181063954912691 -0.085414291658557157  1.7939678886983055 -0.096404100253524069  1.7696813343384648 -0.10623269849322053  1.7452525936541277 -0.1149064853290955  1.7206877664231268 -0.12242974296558511  1.6959931846956533 -0.1288046401267528  1.6711754061691406 -0.13403121837674914  1.6462412045838115 -0.13810739506979691  1.6211975669311307 -0.1410288568314858  1.5960516609845243 -0.14278931295871061  1.5792244932766213 -0.143182674518881  1.5707963267948968 -0.14318286675902531 
 0.00087352336559439251 4 0.043476118830897956 1 0.086078714296201522 1 0.1286813097615051 1 0.17128390522680867 1 0.21388650069211224 1 0.25648909615741577 1 0.29909169162271937 1 0.34169428708802291 1 0.38429688255332645 1 0.42689947801863004 1 0.46950207348393364 1 0.51210466894923723 1 0.55470726441454077 1 0.59730985987984442 1 0.63991245534514796 1 0.6825150508104515 1 0.72511764627575503 1 0.76772024174105857 1 0.81032283720636222 1 0.85292543267166576 1 0.8955280281369693 1 0.93813062360227295 4
1 6.2831853071795862 -0.14318286675902531 -1 0 
7 0 0  3 25 23  2.6179938779914944 -0.14318286675902703  2.6095657115097701 -0.14318267451888347  2.5927385438018673 -0.14278931295871286  2.5675926378552623 -0.14102885683148564  2.5425490002025817 -0.13810739506979786  2.5176147986172523 -0.13403121837674997  2.4927970200907397 -0.12880464012675286  2.4681024383632675 -0.1224297429655849  2.4435376111322662 -0.1149064853290951  2.4191088704479289 -0.10623269849322019  2.3948223160880886 -0.09640410025352418  2.3706838092951243 -0.085414291658556074  2.3466989675750503 -0.073254745897434456  2.322873160362156 -0.059914786894175329  2.2992115055874334 -0.045381558168472898  2.2757188671137345 -0.029639981535811214  2.2523998530363807 -0.012672705648769817  2.2292588147521881 0.0055399568705916478  2.2062998470218407 0.025020100920934527  2.1835267880357292 0.045792321711017707  2.1609432230110235 0.067883784313849282  2.1385524779749652 0.091324439480291078  2.1163576533486959 0.11614675700291738  2.1016935590963555 0.13364047064958526  2.0943951023931957 0.14262960516750806 
 0.93813062360227095 4 0.98073321906757438 1 1.0233358145328779 1 1.0659384099981812 1 1.1085410054634848 1 1.1511436009287883 1 1.1937461963940916 1 1.2363487918593952 1 1.2789513873246987 1 1.321553982790002 1 1.3641565782553056 1 1.4067591737206091 1 1.4493617691859124 1 1.4919643646512157 1 1.5345669601165195 1 1.5771695555818228 1 1.6197721510471261 1 1.6623747465124297 1 1.7049773419777332 1 1.7475799374430365 1 1.7901825329083401 1 1.8327851283736436 1 1.8753877238389469 4
7 0 0  3 25 23  1.5707963267948968 -0.14318286675902531  1.5623681603131725 -0.14318267451888159  1.5455409926052701 -0.14278931295871133  1.5203950866586637 -0.14102885683148575  1.4953514490059845 -0.1381073950697965  1.4704172474206545 -0.13403121837674994  1.445599468894142 -0.12880464012675308  1.4209048871666679 -0.12242974296558561  1.396340059935667 -0.11490648532909505  1.3719113192513299 -0.1062326984932213  1.347624764891489 -0.096404100253524305  1.323486258098524 -0.085414291658556976  1.29950141637845 -0.073254745897434762  1.2756756091655554 -0.059914786894176647  1.2520139543908331 -0.045381558168473106  1.2285213159171335 -0.029639981535811877  1.2052023018397804 -0.012672705648770504  1.1820612635555883 0.0055399568705916244  1.1591022958252404 0.025020100920934603  1.1363292368391298 0.045792321711018075  1.1137456718144234 0.067883784313848422  1.0913549267783667 0.091324439480290537  1.0691601021520973 0.11614675700291691  1.0544960078997569 0.13364047064958431  1.0471975511965976 0.14262960516750667 
 0.93813062360227295 4 0.98073321906757671 1 1.0233358145328804 1 1.0659384099981841 1 1.1085410054634879 1 1.1511436009287916 1 1.1937461963940954 1 1.2363487918593992 1 1.2789513873247029 1 1.3215539827900067 1 1.3641565782553104 1 1.4067591737206142 1 1.449361769185918 1 1.4919643646512217 1 1.5345669601165255 1 1.5771695555818293 1 1.619772151047133 1 1.6623747465124368 1 1.7049773419777405 1 1.7475799374430443 1 1.7901825329083481 1 1.8327851283736518 1 1.8753877238389556 4
7 0 0  3 25 23  1.0471975511965979 0.14262960516750706  1.0398990944934385 0.13364047064958429  1.0252350002410984 0.11614675700291612  1.0030401756148286 0.091324439480289163  0.98064943057877174 0.067883784313847631  0.95806586555406525 0.045792321711016083  0.93529280656795455 0.025020100920932355  0.91233383883760688 0.0055399568705892747  0.88919280055341487 -0.012672705648772738  0.86587378647606172 -0.029639981535813955  0.84238114800236219 -0.045381558168475923  0.81871949322763959 -0.059914786894178083  0.79489368601474564 -0.073254745897437717  0.77090884429467121 -0.085414291658559238  0.74677033750170696 -0.096404100253527233  0.72248378314186634 -0.10623269849322337  0.69805504245752914 -0.11490648532909771  0.67349021522652819 -0.1224297429655874  0.64879563349905445 -0.12880464012675535  0.62397785497254221 -0.13403121837675228  0.59904365338721233 -0.13810739506979919  0.57400001573453274 -0.14102885683148716  0.54885410978792637 -0.14278931295871303  0.53202694208002399 -0.14318267451888297  0.52359877559829948 -0.14318286675902644 
 0.00087352336559316779 4 0.0434761188308967 1 0.086078714296200232 1 0.12868130976150374 1 0.17128390522680728 1 0.21388650069211082 1 0.25648909615741433 1 0.29909169162271787 1 0.34169428708802141 1 0.38429688255332495 1 0.42689947801862849 1 0.46950207348393203 1 0.51210466894923556 1 0.5547072644145391 1 0.59730985987984264 1 0.63991245534514618 1 0.68251505081044972 1 0.72511764627575326 1 0.7677202417410568 1 0.81032283720636034 1 0.85292543267166387 1 0.89552802813696741 1 0.93813062360227095 4
1 6.2831853071795862 -0.14318286675902531 -1 0 
1 6.2831853071795862 -0.14318286675902531 -1 0 
7 0 0  3 25 23  0.52359877559829948 -0.14318286675902644  0.51517060911657508 -0.14318267451888309  0.49834344140867265 -0.14278931295871292  0.47319753546206644 -0.14102885683148622  0.44815389780938647 -0.13810739506979833  0.42321969622405686 -0.13403121837675103  0.39840191769754452 -0.12880464012675352  0.37370733597007066 -0.12242974296558574  0.34914250873906977 -0.11490648532909628  0.32471376805473279 -0.10623269849322137  0.30042721369489189 -0.096404100253524694  0.27628870690192786 -0.085414291658557573  0.25230386518185344 -0.073254745897434873  0.22847805796895901 -0.059914786894176952  0.20481640319423675 -0.045381558168472995  0.18132376472053729 -0.029639981535811977  0.15800475064318439 -0.012672705648770377  0.13486371235899217 0.0055399568705912523  0.11190474462864433 0.02502010092093529  0.089131685642533667 0.045792321711017561  0.06654812061782768 0.067883784313848658  0.044157375581770221 0.091324439480290995  0.021962550955500895 0.11614675700291703  0.0072984567031600684 0.1336404706495852  0 0.14262960516750839 
 0.93813062360227095 4 0.98073321906757438 1 1.0233358145328777 1 1.065938409998181 1 1.1085410054634846 1 1.1511436009287879 1 1.1937461963940912 1 1.2363487918593945 1 1.278951387324698 1 1.3215539827900014 1 1.3641565782553047 1 1.4067591737206082 1 1.4493617691859115 1 1.4919643646512148 1 1.5345669601165182 1 1.5771695555818215 1 1.619772151047125 1 1.6623747465124286 1 1.7049773419777319 1 1.7475799374430352 1 1.7901825329083385 1 1.8327851283736418 1 1.8753877238389454 4
7 0 0  3 25 23  5.7595865315812871 -0.14318286675902664  5.7511583650995624 -0.14318267451888284  5.7343311973916604 -0.14278931295871267  5.7091852914450536 -0.14102885683148741  5.6841416537923743 -0.13810739506979905  5.6592074522070455 -0.13403121837675164  5.6343896736805323 -0.1288046401267556  5.6096950919530597 -0.12242974296558759  5.5851302647220571 -0.11490648532909788  5.5607015240377207 -0.10623269849322357  5.5364149696778799 -0.096404100253527081  5.5122764628849152 -0.085414291658559016  5.4882916211648407 -0.073254745897437246  5.4644658139519455 -0.059914786894178416  5.4408041591772234 -0.045381558168475125  5.4173115207035227 -0.029639981535813008  5.393992506626172 -0.012672705648772398  5.3708514683419777 0.005539956870590234  5.347892500611632 0.025020100920933489  5.325119441625521 0.045792321711016479  5.302535876600813 0.067883784313848103  5.2801451315647574 0.091324439480290717  5.2579503069384881 0.11614675700291666  5.2432862126861481 0.13364047064958495  5.2359877559829879 0.14262960516750831 
 0.93813062360227095 4 0.98073321906757438 1 1.0233358145328779 1 1.0659384099981815 1 1.1085410054634848 1 1.1511436009287883 1 1.1937461963940919 1 1.2363487918593954 1 1.2789513873246987 1 1.3215539827900022 1 1.3641565782553058 1 1.4067591737206091 1 1.4493617691859126 1 1.4919643646512162 1 1.5345669601165195 1 1.5771695555818233 1 1.6197721510471266 1 1.6623747465124299 1 1.7049773419777337 1 1.747579937443037 1 1.7901825329083405 1 1.832785128373644 1 1.8753877238389474 4
7 0 0  3 25 23  5.2359877559829888 0.14262960516750695  5.2286892992798295 0.13364047064958384  5.2140252050274887 0.11614675700291634  5.1918303804012211 0.091324439480291869  5.1694396353651619 0.067883784313848977  5.1468560703404558 0.045792321711017936  5.1240830113543465 0.025020100920934797  5.1011240436239973 0.0055399568705923287  5.0779830053398056 -0.012672705648770089  5.054663991262454 -0.029639981535811724  5.0311713527887525 -0.045381558168472357  5.0075096980140312 -0.059914786894176633  4.9836838908011369 -0.073254745897434762  4.9596990490810606 -0.085414291658556851  4.9355605422880977 -0.09640410025352468  4.9112739879282552 -0.10623269849322038  4.8868452472439197 -0.11490648532909609  4.8622804200129162 -0.12242974296558513  4.8375858382854453 -0.12880464012675272  4.8127680597589313 -0.13403121837675061  4.7878338581736024 -0.13810739506979686  4.7627902205209223 -0.14102885683148583  4.7376443145743155 -0.14278931295871139  4.7208171468664135 -0.14318267451888156  4.7123889803846897 -0.14318286675902531 
 0.00087352336559359659 4 0.043476118830897165 1 0.086078714296200731 1 0.1286813097615043 1 0.17128390522680786 1 0.21388650069211143 1 0.256489096157415 1 0.29909169162271859 1 0.34169428708802213 1 0.38429688255332567 1 0.42689947801862926 1 0.46950207348393286 1 0.51210466894923634 1 0.55470726441453988 1 0.59730985987984353 1 0.63991245534514707 1 0.68251505081045061 1 0.72511764627575415 1 0.76772024174105769 1 0.81032283720636133 1 0.85292543267166487 1 0.89552802813696841 1 0.93813062360227195 4
1 6.2831853071795862 -0.14318286675902531 -1 0 
1 0 0.13395254086102662 1 0 
1 0 -0.1339525408610267 1 0 
1 0 0.46056249999999987 1 0 
1 0 -0.46056249999999999 1 0 
1 6.2831853071795862 -0.13395254086102656 -1 0 
1 6.2831853071795862 0.13395254086102665 -1 0 
Curves 64
2 0 1.15993183076113e-17 0.18943750000000001 -0 6.12303176911189e-17 1 1 0 0 0 1 -6.12303176911189e-17 0.61056250000000001
1 -0.70528124999999997 9.2168849151984498e-17 0.094718750000000004 -0.70710678118654757 4.3296372853596771e-17 -0.70710678118654757 
2 0 0 0 -0 6.12303176911189e-17 1 1 0 0 0 1 -6.12303176911189e-17 0.80000000000000004
1 0.70528124999999997 -8.0569530844373201e-17 0.094718750000000004 -0.70710678118654757 1.298891185607899e-16 0.70710678118654757 
2 0 6.8000094690843196e-17 1.1105624999999999 -0 6.12303176911189e-17 1 1 0 0 0 1 -6.12303176911189e-17 0.61056250000000001
1 -0.61056250000000001 1.14569578189795e-16 0.65000000000000002 -0 -6.12303176911189e-17 -1 
1 0.61056250000000001 -3.4970165191340301e-17 0.65000000000000002 -0 6.12303176911189e-17 1 
2 0 7.9599412998454505e-17 1.3 -0 6.12303176911189e-17 1 1 0 0 0 1 -6.12303176911189e-17 0.80000000000000004
1 -0.70528124999999997 1.6016894384282799e-16 1.2052812500000001 0.70710678118654757 -1.298891185607899e-16 -0.70710678118654757 
1 0.70528124999999997 -1.256943615353e-17 1.2052812500000001 0.70710678118654757 -4.3296372853596771e-17 0.70710678118654757 
1 1.724 -1.3590628861031401e-16 1.22840856662049 -0.86602540378443882 1.3666918005016099e-16 0.49999999999999989 
7 1 0  2 5 3  1.8479998138024301 -0.00082956988362928199 1.15681713324097  1 1.6001924640353 0.42838535040202902 1.3  1.03802697460135 1.3856406460551001 0.80000000000000004 1.3  1 1.1710888280748999 1.17161464959797 1.3  1.03802697460134 0.92328147830777696 1.6008295698836299 1.15681713324097  1
 0 3 0.93813062360227095 2 1.8762612472045399 3
2 0 7.9599412998454505e-17 1.3 -0 6.12303176911189e-17 1 1 0 0 0 1 -6.12303176911189e-17 1.6000000000000001
1 -1.724 2.86337982187642e-16 1.22840856662049 -0.86602540378443882 7.5438862359041891e-17 -0.49999999999999989 
2 0 7.9599412998454505e-17 1.3 -0 6.12303176911189e-17 1 1 0 0 0 1 -6.12303176911189e-17 1.6000000000000001
7 1 0  2 5 3  -0.92328147830777496 1.6008295698836299 1.15681713324097  1 -1.1710888280748999 1.17161464959797 1.3  1.03802697460135 -1.3856406460551001 0.80000000000000104 1.3  1 -1.6001924640353 0.42838535040203002 1.3  1.03802697460133 -1.8479998138024301 -0.00082956988362928297 1.15681713324097  1
 0 3 0.93813062360227195 2 1.8762612472045399 3
1 1.724 -2.06738569189188e-16 0.071591433379513597 0.86602540378443882 -7.5438862359041989e-17 0.49999999999999989 
2 0 0 0 -0 6.12303176911189e-17 1 1 0 0 0 1 -6.12303176911189e-17 1.6000000000000001
7 1 0  2 5 3  0.92328147830777596 1.6008295698836299 0.143182866759027  1 1.1710888280748999 1.17161464959797 -1.8015855445500301e-16  1.03802697460134 1.3856406460551001 0.80000000000000004 -4.8984254152895098e-17  1 1.6001924640353 0.42838535040202802 -1.9102890131713401e-16  1.03802697460133 1.8479998138024301 -0.00082956988363041596 0.143182866759027  1
 0 3 0.93813062360227195 2 1.8762612472045399 3
1 -1.724 2.1550570160876801e-16 0.071591433379513597 0.86602540378443882 -1.3666918005016099e-16 -0.49999999999999989 
7 1 0  2 5 3  -1.8479998138024301 -0.00082956988362982095 0.143182866759027  1 -1.6001924640353 0.42838535040202802 -1.52864984845644e-16  1.03802697460134 -1.3856406460551001 0.80000000000000004 -1.6000655661541101e-16  1 -1.1710888280748999 1.17161464959797 -2.2265927961643501e-16  1.03802697460134 -0.92328147830777496 1.6008295698836299 0.143182866759027  1
 0 3 0.93813062360227195 2 1.8762612472045399 3
2 0 0 0 -0 6.12303176911189e-17 1 1 0 0 0 1 -6.12303176911189e-17 1.6000000000000001
7 1 0  2 5 3  0.92471833549465299 -1.6000000000000001 0.143182866759027  1 0.42910363596039702 -1.6000000000000001 1.00570593519755e-16  1.03802697460134 -3.8459253727671202e-16 -1.6000000000000001 1.2572408392141901e-16  1 -0.42910363596039802 -1.6000000000000001 1.1271365785159301e-16  1.03802697460136 -0.92471833549465399 -1.6000000000000001 0.143182866759027  1
 0 3 0.93813062360227295 2 1.8762612472045499 3
2 0 0 0 -0 6.12303176911189e-17 1 1 0 0 0 1 -6.12303176911189e-17 1.6000000000000001
7 1 0  2 5 3  1.8479998138024301 0.00082956988362995702 0.143182866759027  1 1.6001924640353 -0.42838535040202902 -2.0275332772960101e-16  1.03802697460133 1.3856406460551001 -0.80000000000000004 -6.2038048309620495e-17  1 1.1710888280748999 -1.17161464959797 -1.9714380156995199e-16  1.03802697460133 0.92328147830777496 -1.6008295698836299 0.143182866759027  1
 0 3 0.93813062360227195 2 1.8762612472045399 3
7 1 0  2 5 3  -0.92328147830777696 -1.6008295698836299 0.143182866759027  1 -1.1710888280749101 -1.17161464959797 -2.6306329365707098e-16  1.03802697460134 -1.3856406460551001 -0.80000000000000004 2.12286785372662e-17  1 -1.6001924640353 -0.42838535040203002 -2.7908116067257998e-16  1.03802697460134 -1.8479998138024301 0.00082956988362995702 0.143182866759027  1
 0 3 0.93813062360227095 2 1.8762612472045399 3
2 0 0 0 -0 6.12303176911189e-17 1 1 0 0 0 1 -6.12303176911189e-17 1.6000000000000001
7 1 0  2 5 3  0.92471833549465299 -1.6000000000000001 0.143182866759027  1 0.42910363596039702 -1.6000000000000001 1.00570593519755e-16  1.03802697460134 -3.8459253727671202e-16 -1.6000000000000001 1.2572408392141901e-16  1 -0.42910363596039802 -1.6000000000000001 1.1271365785159301e-16  1.03802697460136 -0.92471833549465399 -1.6000000000000001 0.143182866759027  1
 0 3 0.93813062360227295 2 1.8762612472045499 3
2 0 0 0 -0 6.12303176911189e-17 1 1 0 0 0 1 -6.12303176911189e-17 1.6000000000000001
7 1 0  2 5 3  -0.92328147830777696 -1.6008295698836299 0.143182866759027  1 -1.1710888280749101 -1.17161464959797 -2.6306329365707098e-16  1.03802697460134 -1.3856406460551001 -0.80000000000000004 2.12286785372662e-17  1 -1.6001924640353 -0.42838535040203002 -2.7908116067257998e-16  1.03802697460134 -1.8479998138024301 0.00082956988362995702 0.143182866759027  1
 0 3 0.93813062360227095 2 1.8762612472045399 3
7 1 0  2 5 3  -1.8479998138024301 -0.00082956988362982095 0.143182866759027  1 -1.6001924640353 0.42838535040202802 -1.52864984845644e-16  1.03802697460134 -1.3856406460551001 0.80000000000000004 -1.6000655661541101e-16  1 -1.1710888280748999 1.17161464959797 -2.2265927961643501e-16  1.03802697460134 -0.92328147830777496 1.6008295698836299 0.143182866759027  1
 0 3 0.93813062360227195 2 1.8762612472045399 3
7 1 0  2 5 3  -0.92471833549465299 1.6000000000000001 0.143182866759027  1 -0.42910363596039702 1.6000000000000001 -1.17050466541535e-16  1.03802697460134 0 1.6000000000000001 -1.53479659537048e-16  1 0.42910363596039702 1.6000000000000001 -1.17050466541535e-16  1.03802697460134 0.92471833549465299 1.6000000000000001 0.143182866759027  1
 0 3 0.93813062360227295 2 1.8762612472045499 3
2 0 0 0 -0 6.12303176911189e-17 1 1 0 0 0 1 -6.12303176911189e-17 1.6000000000000001
7 1 0  2 5 3  -0.92471833549465299 1.6000000000000001 0.143182866759027  1 -0.42910363596039702 1.6000000000000001 -1.17050466541535e-16  1.03802697460134 0 1.6000000000000001 -1.53479659537048e-16  1 0.42910363596039702 1.6000000000000001 -1.17050466541535e-16  1.03802697460134 0.92471833549465299 1.6000000000000001 0.143182866759027  1
 0 3 0.93813062360227295 2 1.8762612472045499 3
7 1 0  2 5 3  0.92328147830777596 1.6008295698836299 0.143182866759027  1 1.1710888280748999 1.17161464959797 -1.8015855445500301e-16  1.03802697460134 1.3856406460551001 0.80000000000000004 -4.8984254152895098e-17  1 1.6001924640353 0.42838535040202802 -1.9102890131713401e-16  1.03802697460133 1.8479998138024301 -0.00082956988363041596 0.143182866759027  1
 0 3 0.93813062360227195 2 1.8762612472045399 3
2 0 0 0 -0 6.12303176911189e-17 1 1 0 0 0 1 -6.12303176911189e-17 1.6000000000000001
7 1 0  2 5 3  1.8479998138024301 0.00082956988362995702 0.143182866759027  1 1.6001924640353 -0.42838535040202902 -2.0275332772960101e-16  1.03802697460133 1.3856406460551001 -0.80000000000000004 -6.2038048309620495e-17  1 1.1710888280748999 -1.17161464959797 -1.9714380156995199e-16  1.03802697460133 0.92328147830777496 -1.6008295698836299 0.143182866759027  1
 0 3 0.93813062360227195 2 1.8762612472045399 3
2 0 0 0 -0 6.12303176911189e-17 1 1 0 0 0 1 -6.12303176911189e-17 1.6000000000000001
7 1 0  2 5 3  -0.92328147830777496 1.6008295698836299 1.15681713324097  1 -1.1710888280748999 1.17161464959797 1.3  1.03802697460135 -1.3856406460551001 0.80000000000000104 1.3  1 -1.6001924640353 0.42838535040203002 1.3  1.03802697460133 -1.8479998138024301 -0.00082956988362928297 1.15681713324097  1
 0 3 0.93813062360227195 2 1.8762612472045399 3
2 0 7.9599412998454505e-17 1.3 -0 6.12303176911189e-17 1 1 0 0 0 1 -6.12303176911189e-17 1.6000000000000001
7 1 0  2 5 3  0.92471833549465199 1.6000000000000001 1.15681713324097  1 0.42910363596039702 1.6000000000000001 1.3  1.03802697460133 0 1.6000000000000001 1.3  1 -0.42910363596039702 1.6000000000000001 1.3  1.03802697460133 -0.92471833549465199 1.6000000000000001 1.15681713324097  1
 0 3 0.93813062360227195 2 1.8762612472045399 3
7 1 0  2 5 3  -1.8479998138024301 0.00082956988363037595 1.15681713324097  1 -1.6001924640353 -0.42838535040202902 1.3  1.03802697460133 -1.3856406460551001 -0.79999999999999905 1.3  1 -1.1710888280749101 -1.17161464959797 1.3  1.03802697460135 -0.92328147830777696 -1.6008295698836299 1.15681713324097  1
 0 3 0.93813062360227095 2 1.8762612472045399 3
2 0 7.9599412998454505e-17 1.3 -0 6.12303176911189e-17 1 1 0 0 0 1 -6.12303176911189e-17 1.6000000000000001
7 1 0  2 5 3  -0.92471833549465399 -1.6000000000000001 1.15681713324097  1 -0.42910363596039902 -1.6000000000000001 1.3  1.0380269746013699 -3.8459253727671202e-16 -1.6000000000000001 1.3  1 0.42910363596039802 -1.6000000000000001 1.3  1.03802697460134 0.92471833549465299 -1.6000000000000001 1.15681713324097  1
 0 3 0.93813062360227295 2 1.8762612472045499 3
2 0 7.9599412998454505e-17 1.3 -0 6.12303176911189e-17 1 1 0 0 0 1 -6.12303176911189e-17 1.6000000000000001
7 1 0  2 5 3  -1.8479998138024301 0.00082956988363037595 1.15681713324097  1 -1.6001924640353 -0.42838535040202902 1.3  1.03802697460133 -1.3856406460551001 -0.79999999999999905 1.3  1 -1.1710888280749101 -1.17161464959797 1.3  1.03802697460135 -0.92328147830777696 -1.6008295698836299 1.15681713324097  1
 0 3 0.93813062360227095 2 1.8762612472045399 3
7 1 0  2 5 3  -0.92471833549465399 -1.6000000000000001 1.15681713324097  1 -0.42910363596039902 -1.6000000000000001 1.3  1.0380269746013699 -3.8459253727671202e-16 -1.6000000000000001 1.3  1 0.42910363596039802 -1.6000000000000001 1.3  1.03802697460134 0.92471833549465299 -1.6000000000000001 1.15681713324097  1
 0 3 0.93813062360227295 2 1.8762612472045499 3
7 1 0  2 5 3  0.92328147830777596 -1.6008295698836299 1.15681713324097  1 1.1710888280748999 -1.17161464959797 1.3  1.03802697460135 1.3856406460551001 -0.80000000000000004 1.3  1 1.6001924640353 -0.42838535040202802 1.3  1.03802697460135 1.8479998138024301 0.000829569883629067 1.15681713324097  1
 0 3 0.93813062360227095 2 1.8762612472045399 3
2 0 7.9599412998454505e-17 1.3 -0 6.12303176911189e-17 1 1 0 0 0 1 -6.12303176911189e-17 1.6000000000000001
2 0 7.9599412998454505e-17 1.3 -0 6.12303176911189e-17 1 1 0 0 0 1 -6.12303176911189e-17 1.6000000000000001
7 1 0  2 5 3  0.92328147830777596 -1.6008295698836299 1.15681713324097  1 1.1710888280748999 -1.17161464959797 1.3  1.03802697460135 1.3856406460551001 -0.80000000000000004 1.3  1 1.6001924640353 -0.42838535040202802 1.3  1.03802697460135 1.8479998138024301 0.000829569883629067 1.15681713324097  1
 0 3 0.93813062360227095 2 1.8762612472045399 3
7 1 0  2 5 3  1.8479998138024301 -0.00082956988362928199 1.15681713324097  1 1.6001924640353 0.42838535040202902 1.3  1.03802697460135 1.3856406460551001 0.80000000000000004 1.3  1 1.1710888280748999 1.17161464959797 1.3  1.03802697460134 0.92328147830777696 1.6008295698836299 1.15681713324097  1
 0 3 0.93813062360227095 2 1.8762612472045399 3
7 1 0  2 5 3  0.92471833549465199 1.6000000000000001 1.15681713324097  1 0.42910363596039702 1.6000000000000001 1.3  1.03802697460133 0 1.6000000000000001 1.3  1 -0.42910363596039702 1.6000000000000001 1.3  1.03802697460133 -0.92471833549465199 1.6000000000000001 1.15681713324097  1
 0 3 0.93813062360227195 2 1.8762612472045399 3
2 0 7.9599412998454505e-17 1.3 -0 6.12303176911189e-17 1 1 0 0 0 1 -6.12303176911189e-17 1.6000000000000001
2 0 7.9599412998454505e-17 1.3 -0 6.12303176911189e-17 1 1 0 0 0 1 -6.12303176911189e-17 0.80000000000000004
2 0 6.8000094690843196e-17 1.1105624999999999 -0 6.12303176911189e-17 1 1 0 0 0 1 -6.12303176911189e-17 0.61056250000000001
2 0 1.15993183076113e-17 0.18943750000000001 -0 6.12303176911189e-17 1 1 0 0 0 1 -6.12303176911189e-17 0.61056250000000001
2 0 0 0 -0 6.12303176911189e-17 1 1 0 0 0 1 -6.12303176911189e-17 0.80000000000000004
1 -0.92376043070340197 -1.6000000000000001 -1 0 6.12303176911189e-17 1 
1 -1.8475208614067999 2.7814628634268699e-16 -1 0 6.12303176911189e-17 1 
1 0.92376043070340097 -1.6000000000000001 -1 0 6.12303176911189e-17 1 
1 1.8475208614067999 -1.7435834315510901e-16 -1 0 6.12303176911189e-17 1 
1 -0.92376043070340097 1.6000000000000001 -1 0 6.12303176911189e-17 1 
1 0.92376043070340097 1.6000000000000001 -1 0 6.12303176911189e-17 1 
Polygon3D 0
PolygonOnTriangulations 0
Surfaces 30
3 0 5.7996591538056598e-18 0.094718750000000004 0 -6.12303176911189e-17 -1 1 0 0 0 -1 6.12303176911189e-17 0.70528124999999997
0.78539816339744795
2 0 3.9799706499227302e-17 0.65000000000000002 -0 6.12303176911189e-17 1 1 0 0 0 1 -6.12303176911189e-17 0.61056250000000001
3 0 5.7996591538056598e-18 0.094718750000000004 0 -6.12303176911189e-17 -1 1 0 0 0 -1 6.12303176911189e-17 0.70528124999999997
0.78539816339744795
1 1.2 0 0 -0 -6.12303176911189e-17 -1 -1 0 0 0 1 -6.12303176911189e-17 
3 0 7.3799753844648906e-17 1.2052812500000001 -0 6.12303176911189e-17 1 1 0 0 0 1 -6.12303176911189e-17 0.70528124999999997
0.78539816339744795
2 0 3.9799706499227302e-17 0.65000000000000002 -0 6.12303176911189e-17 1 1 0 0 0 1 -6.12303176911189e-17 0.61056250000000001
1 1.2 7.9599412998454505e-17 1.3 -0 6.12303176911189e-17 1 1 0 0 0 1 -6.12303176911189e-17 
3 0 7.3799753844648906e-17 1.2052812500000001 -0 6.12303176911189e-17 1 1 0 0 0 1 -6.12303176911189e-17 0.70528124999999997
0.78539816339744795
3 0 7.5215846788664302e-17 1.22840856662049 0 -6.12303176911189e-17 -1 1 0 0 0 -1 6.12303176911189e-17 1.724
1.0471975511966001
3 0 7.5215846788664302e-17 1.22840856662049 0 -6.12303176911189e-17 -1 1 0 0 0 -1 6.12303176911189e-17 1.724
1.0471975511966001
1 1.3856406460551001 0.80000000000000004 -1 0.86602540378443882 0.49999999999999989 -3.0615158845559394e-17 -0.49999999999999989 0.86602540378443882 -5.3027010602300679e-17 -2.4651903288156613e-32 6.1230317691118851e-17 1 
3 0 7.5215846788664302e-17 1.22840856662049 0 -6.12303176911189e-17 -1 1 0 0 0 -1 6.12303176911189e-17 1.724
1.0471975511966001
3 0 7.5215846788664302e-17 1.22840856662049 0 -6.12303176911189e-17 -1 1 0 0 0 -1 6.12303176911189e-17 1.724
1.0471975511966001
1 -1.3856406460551001 0.80000000000000004 -1 -0.86602540378443849 0.50000000000000033 -3.0615158845559518e-17 -0.50000000000000033 -0.86602540378443849 5.3027010602300735e-17 -1.8488927466117464e-32 6.1230317691118962e-17 1 
3 0 4.3835662097901899e-18 0.071591433379513597 -0 6.12303176911189e-17 1 1 0 0 0 1 -6.12303176911189e-17 1.724
1.0471975511966001
3 0 4.3835662097901899e-18 0.071591433379513597 -0 6.12303176911189e-17 1 1 0 0 0 1 -6.12303176911189e-17 1.724
1.0471975511966001
3 0 4.3835662097901899e-18 0.071591433379513597 -0 6.12303176911189e-17 1 1 0 0 0 1 -6.12303176911189e-17 1.724
1.0471975511966001
3 0 4.3835662097901899e-18 0.071591433379513597 -0 6.12303176911189e-17 1 1 0 0 0 1 -6.12303176911189e-17 1.724
1.0471975511966001
3 0 4.3835662097901899e-18 0.071591433379513597 -0 6.12303176911189e-17 1 1 0 0 0 1 -6.12303176911189e-17 1.724
1.0471975511966001
1 -5.5511151231257797e-16 -1.6000000000000001 -1 -2.4037033579794502e-16 -1 6.12303176911189e-17 1 -2.4037033579794502e-16 1.4717952024429101e-32 2.7369110631344083e-48 6.12303176911189e-17 1 
1 1.3856406460551001 -0.80000000000000004 -1 0.86602540378443882 -0.49999999999999989 3.0615158845559394e-17 0.49999999999999989 0.86602540378443882 -5.3027010602300679e-17 2.4651903288156613e-32 6.1230317691118851e-17 1 
3 0 4.3835662097901899e-18 0.071591433379513597 -0 6.12303176911189e-17 1 1 0 0 0 1 -6.12303176911189e-17 1.724
1.0471975511966001
1 -1.3856406460551001 -0.80000000000000004 -1 -0.86602540378443882 -0.49999999999999989 3.0615158845559394e-17 0.49999999999999989 -0.86602540378443882 5.3027010602300679e-17 -2.4651903288156613e-32 6.1230317691118851e-17 1 
3 0 4.3835662097901899e-18 0.071591433379513597 -0 6.12303176911189e-17 1 1 0 0 0 1 -6.12303176911189e-17 1.724
1.0471975511966001
1 3.3306690738754701e-16 1.6000000000000001 -1 0 1 -6.12303176911189e-17 -1 0 0 0 6.12303176911189e-17 1 
3 0 4.3835662097901899e-18 0.071591433379513597 -0 6.12303176911189e-17 1 1 0 0 0 1 -6.12303176911189e-17 1.724
1.0471975511966001
3 0 7.5215846788664302e-17 1.22840856662049 0 -6.12303176911189e-17 -1 1 0 0 0 -1 6.12303176911189e-17 1.724
1.0471975511966001
3 0 7.5215846788664302e-17 1.22840856662049 0 -6.12303176911189e-17 -1 1 0 0 0 -1 6.12303176911189e-17 1.724
1.0471975511966001
3 0 7.5215846788664302e-17 1.22840856662049 0 -6.12303176911189e-17 -1 1 0 0 0 -1 6.12303176911189e-17 1.724
1.0471975511966001
3 0 7.5215846788664302e-17 1.22840856662049 0 -6.12303176911189e-17 -1 1 0 0 0 -1 6.12303176911189e-17 1.724
1.0471975511966001
Triangulations 0

TShapes 164
Ve
1e-07
-0.6105625 8.63691899981789e-17 0.1894375
0 0

0101101
*
Ve
1e-07
0.6105625 1.15993183076113e-17 0.1894375
0 0

0101101
*
Ed
 1e-07 1 1 0
1  1 0 3.14159265358979 6.28318530717959
2  1 1 0 3.14159265358979 6.28318530717959
2  2 2 0 3.14159265358979 6.28318530717959
4 C0 1 0 2 0
0

0101000
+164 0 -163 0 *
Ve
1e-07
-0.8 9.79685083057902e-17 -5.99864288728855e-33
0 0

0101101
*
Ed
 1e-07 1 1 0
1  2 0 -0.133952540861027 0.133952540861027
2  3 1 0 -0.133952540861027 0.133952540861027
2  4 3 0 -0.133952540861027 0.133952540861027
4 CN 1 0 3 0
0

0101000
+164 0 -161 0 *
Ve
1e-07
0.8 0 0
0 0

0101101
*
Ed
 1e-07 1 1 0
1  3 0 3.14159265358979 6.28318530717959
2  5 1 0 3.14159265358979 6.28318530717959
4 C0 1 0 4 0
0

0101000
+161 0 -159 0 *
Ed
 1e-07 1 1 0
1  4 0 -0.133952540861027 0.133952540861027
2  6 1 0 -0.133952540861027 0.133952540861027
2  7 3 0 -0.133952540861027 0.133952540861027
4 CN 1 0 3 0
0

0101000
+159 0 -163 0 *
Wi

0101100
-162 0 +160 0 +158 0 +157 0 *
Fa
0  1e-07 1 0

0111000
+156 0 *
Ve
1e-07
-0.6105625 1.42769966381411e-16 1.1105625
0 0

0101101
*
Ve
1e-07
0.6105625 6.80000946908432e-17 1.1105625
0 0

0101101
*
Ed
 1e-07 1 1 0
1  5 0 3.14159265358979 6.28318530717959
2  8 2 0 3.14159265358979 6.28318530717959
2  9 5 0 3.14159265358979 6.28318530717959
4 C0 2 0 5 0
0

0101000
+154 0 -153 0 *
Ed
 1e-07 1 1 0
1  6 0 -0.4605625 0.4605625
2  10 2 0 -0.4605625 0.4605625
2  11 6 0 -0.4605625 0.4605625
4 CN 2 0 6 0
0

0101000
+154 0 -164 0 *
Ed
 1e-07 1 1 0
1  7 0 -0.4605625 0.4605625
2  12 2 0 -0.4605625 0.4605625
2  13 6 0 -0.4605625 0.4605625
4 CN 2 0 6 0
0

0101000
+163 0 -153 0 *
Wi

0101100
-152 0 +151 0 +162 0 +150 0 *
Fa
0  1e-07 2 0

0111000
+149 0 *
Ve
1e-07
-0.8 1.77567921304245e-16 1.3
0 0

0101101
*
Ve
1e-07
0.8 7.95994129984545e-17 1.3
0 0

0101101
*
Ed
 1e-07 1 1 0
1  8 0 3.14159265358979 6.28318530717959
2  14 5 0 3.14159265358979 6.28318530717959
4 C0 5 0 7 0
0

0101000
+147 0 -146 0 *
Ed
 1e-07 1 1 0
1  9 0 -0.133952540861027 0.133952540861027
2  15 5 0 -0.133952540861027 0.133952540861027
2  16 8 0 -0.133952540861027 0.133952540861027
4 CN 5 0 8 0
0

0101000
+147 0 -154 0 *
Ed
 1e-07 1 1 0
1  10 0 -0.133952540861027 0.133952540861027
2  17 5 0 -0.133952540861027 0.133952540861027
2  18 8 0 -0.133952540861027 0.133952540861027
4 CN 5 0 8 0
0

0101000
+153 0 -146 0 *
Wi

0101100
-145 0 +144 0 +152 0 +143 0 *
Fa
0  1e-07 5 0

0111000
+142 0 *
Ve
1e-07
1.8475208614068 -4.22788066936083e-17 1.15709376403673
0 0

0101101
*
Ve
1e-07
1.6 -1.16337603613126e-16 1.3
0 0

0101101
*
Ed
 1e-07 1 1 0
1  11 0 -0.142629605167506 0.143182866759025
2  19 9 0 -0.142629605167506 0.143182866759025
2  20 10 0 -0.142629605167506 0.143182866759025
4 CN 9 0 10 0
0

0101000
+140 0 -139 0 *
Ve
1e-07
1.3856406460551 0.8 1.3
0 0

0101101
*
Ed
 1e-07 1 1 0
1  12 0 0.0008735233655948 0.938130623602271
2  21 9 0 0.0008735233655948 0.938130623602271
4 C0 9 0 11 0
0

0101000
+140 0 -137 0 *
Ed
 1e-07 1 1 0
1  13 0 0 0.523598775598299
2  22 9 0 0 0.523598775598299
4 C0 9 0 7 0
0

0101000
+139 0 -137 0 *
Wi

0101100
-138 0 +136 0 -135 0 *
Fa
0  1e-07 9 0

0111000
+134 0 *
Ve
1e-07
-1.6 2.75536429610035e-16 1.3
0 0

0101101
*
Ve
1e-07
-1.8475208614068 4.10225822804188e-16 1.15709376403673
0 0

0101101
*
Ed
 1e-07 1 1 0
1  14 0 -0.143182866759025 0.142629605167506
2  23 12 0 -0.143182866759025 0.142629605167506
2  24 13 0 -0.143182866759025 0.142629605167506
4 CN 12 0 13 0
0

0101000
+132 0 -131 0 *
Ve
1e-07
-1.3856406460551 0.800000000000001 1.3
0 0

0101101
*
Ed
 1e-07 1 1 0
1  15 0 2.61799387799149 3.14159265358979
2  25 12 0 2.61799387799149 3.14159265358979
4 C0 12 0 7 0
0

0101000
+129 0 -132 0 *
Ed
 1e-07 1 1 0
1  16 0 0.938130623602272 1.87538772383894
2  26 12 0 0.938130623602272 1.87538772383894
4 C0 12 0 14 0
0

0101000
+129 0 -131 0 *
Wi

0101100
-130 0 -128 0 +127 0 *
Fa
0  1e-07 12 0

0111000
+126 0 *
Ve
1e-07
1.6 -1.9593701661158e-16 5.93647912451726e-33
0 0

0101101
*
Ve
1e-07
1.8475208614068 -1.04377831235917e-16 0.142906235963265
0 0

0101101
*
Ed
 1e-07 1 1 0
1  17 0 -0.143182866759027 0.142629605167501
2  27 15 0 -0.143182866759027 0.142629605167501
2  28 16 0 -0.143182866759027 0.142629605167501
4 CN 15 0 16 0
0

0101000
+124 0 -123 0 *
Ve
1e-07
1.3856406460551 0.8 -4.89842541528951e-17
0 0

0101101
*
Ed
 1e-07 1 1 0
1  18 0 0 0.523598775598299
2  29 15 0 0 0.523598775598299
4 C0 15 0 4 0
0

0101000
+124 0 -121 0 *
Ed
 1e-07 1 1 0
1  19 0 0.938130623602272 1.87538772383894
2  30 15 0 0.938130623602272 1.87538772383894
4 C0 15 0 11 0
0

0101000
+121 0 -123 0 *
Wi

0101100
-122 0 +120 0 +119 0 *
Fa
0  1e-07 15 0

0111000
+118 0 *
Ve
1e-07
-1.8475208614068 3.48126798261879e-16 0.142906235963265
0 0

0101101
*
Ve
1e-07
-1.6 1.9593701661158e-16 -5.93647912451725e-33
0 0

0101101
*
Ed
 1e-07 1 1 0
1  20 0 -0.142629605167501 0.143182866759027
2  31 17 0 -0.142629605167501 0.143182866759027
2  32 18 0 -0.142629605167501 0.143182866759027
4 CN 17 0 18 0
0

0101000
+116 0 -115 0 *
Ve
1e-07
-1.3856406460551 0.800000000000001 -4.89842541528951e-17
0 0

0101101
*
Ed
 1e-07 1 1 0
1  21 0 0.000873523365595994 0.938130623602272
2  33 17 0 0.000873523365595994 0.938130623602272
4 C0 17 0 14 0
0

0101000
+116 0 -113 0 *
Ed
 1e-07 1 1 0
1  22 0 2.61799387799149 3.14159265358979
2  34 17 0 2.61799387799149 3.14159265358979
4 C0 17 0 4 0
0

0101000
+113 0 -115 0 *
Wi

0101100
-114 0 +112 0 +111 0 *
Fa
0  1e-07 17 0

0111000
+110 0 *
Ve
1e-07
0.923760430703401 -1.6 0.142906235963265
0 0

0101101
*
Ve
1e-07
-3.84592537276713e-16 -1.6 9.79685083057901e-17
0 0

0101101
*
Ed
 1e-07 1 1 0
1  23 0 0.000873523365594902 0.938130623602273
2  35 19 0 0.000873523365594902 0.938130623602273
4 C0 19 0 20 0
0

0101000
+108 0 -107 0 *
Ve
1e-07
1.3856406460551 -0.8 4.89842541528951e-17
0 0

0101101
*
Ed
 1e-07 1 1 0
1  24 0 4.71238898038469 5.75958653158129
2  36 19 0 4.71238898038469 5.75958653158129
4 C0 19 0 4 0
0

0101000
+107 0 -105 0 *
Ed
 1e-07 1 1 0
1  25 0 0.938130623602272 1.87538772383895
2  37 19 0 0.938130623602272 1.87538772383895
4 C0 19 0 21 0
0

0101000
+105 0 -108 0 *
Wi

0101100
+106 0 +104 0 +103 0 *
Fa
0  1e-07 19 0

0111000
+102 0 *
Ve
1e-07
-0.923760430703402 -1.6 0.142906235963265
0 0

0101101
*
Ve
1e-07
-1.3856406460551 -0.8 4.89842541528951e-17
0 0

0101101
*
Ed
 1e-07 1 1 0
1  26 0 0.000873523365593491 0.938130623602271
2  38 22 0 0.000873523365593491 0.938130623602271
4 C0 22 0 23 0
0

0101000
+100 0 -99 0 *
Ed
 1e-07 1 1 0
1  27 0 3.66519142918809 4.71238898038469
2  39 22 0 3.66519142918809 4.71238898038469
4 C0 22 0 4 0
0

0101000
+99 0 -107 0 *
Ed
 1e-07 1 1 0
1  28 0 0.938130623602273 1.87538772383896
2  40 22 0 0.938130623602273 1.87538772383896
4 C0 22 0 20 0
0

0101000
+107 0 -100 0 *
Wi

0101100
+98 0 +97 0 +96 0 *
Fa
0  1e-07 22 0

0111000
+95 0 *
Ed
 1e-07 1 1 0
1  29 0 3.14159265358979 3.66519142918809
2  41 18 0 3.14159265358979 3.66519142918809
4 C0 18 0 4 0
0

0101000
+115 0 -99 0 *
Ed
 1e-07 1 1 0
1  30 0 0.938130623602271 1.87538772383894
2  42 18 0 0.938130623602271 1.87538772383894
4 C0 18 0 23 0
0

0101000
+99 0 -116 0 *
Wi

0101100
+114 0 +93 0 +92 0 *
Fa
0  1e-07 18 0

0111000
+91 0 *
Ve
1e-07
-0.923760430703401 1.6 0.142906235963265
0 0

0101101
*
Ed
 1e-07 1 1 0
1  31 0 0.938130623602272 1.87538772383895
2  43 24 0 0.938130623602272 1.87538772383895
4 C0 24 0 14 0
0

0101000
+113 0 -89 0 *
Ve
1e-07
0 1.6 -9.79685083057902e-17
0 0

0101101
*
Ed
 1e-07 1 1 0
1  32 0 0.000873523365594902 0.938130623602273
2  44 24 0 0.000873523365594902 0.938130623602273
4 C0 24 0 25 0
0

0101000
+89 0 -87 0 *
Ed
 1e-07 1 1 0
1  33 0 1.5707963267949 2.61799387799149
2  45 24 0 1.5707963267949 2.61799387799149
4 C0 24 0 4 0
0

0101000
+87 0 -113 0 *
Wi

0101100
+88 0 +86 0 +85 0 *
Fa
0  1e-07 24 0

0111000
+84 0 *
Ve
1e-07
0.923760430703401 1.6 0.142906235963265
0 0

0101101
*
Ed
 1e-07 1 1 0
1  34 0 0.938130623602273 1.87538772383896
2  46 26 0 0.938130623602273 1.87538772383896
4 C0 26 0 25 0
0

0101000
+87 0 -82 0 *
Ed
 1e-07 1 1 0
1  35 0 0.00087352336559354 0.938130623602272
2  47 26 0 0.00087352336559354 0.938130623602272
4 C0 26 0 11 0
0

0101000
+82 0 -121 0 *
Ed
 1e-07 1 1 0
1  36 0 0.523598775598299 1.5707963267949
2  48 26 0 0.523598775598299 1.5707963267949
4 C0 26 0 4 0
0

0101000
+121 0 -87 0 *
Wi

0101100
+81 0 +80 0 +79 0 *
Fa
0  1e-07 26 0

0111000
+78 0 *
Ed
 1e-07 1 1 0
1  37 0 0.000873523365595967 0.938130623602272
2  49 16 0 0.000873523365595967 0.938130623602272
4 C0 16 0 21 0
0

0101000
+123 0 -105 0 *
Ed
 1e-07 1 1 0
1  38 0 5.75958653158129 6.28318530717959
2  50 16 0 5.75958653158129 6.28318530717959
4 C0 16 0 4 0
0

0101000
+105 0 -124 0 *
Wi

0101100
+122 0 +76 0 +75 0 *
Fa
0  1e-07 16 0

0111000
+74 0 *
Ve
1e-07
-0.923760430703401 1.6 1.15709376403674
0 0

0101101
*
Ed
 1e-07 1 1 0
1  39 0 0.000873523365595846 0.938130623602272
2  51 27 0 0.000873523365595846 0.938130623602272
4 C0 27 0 14 0
0

0101000
+72 0 -129 0 *
Ve
1e-07
0 1.6 1.3
0 0

0101101
*
Ed
 1e-07 1 1 0
1  40 0 1.5707963267949 2.61799387799149
2  52 27 0 1.5707963267949 2.61799387799149
4 C0 27 0 7 0
0

0101000
+70 0 -129 0 *
Ed
 1e-07 1 1 0
1  41 0 0.938130623602272 1.87538772383894
2  53 27 0 0.938130623602272 1.87538772383894
4 C0 27 0 25 0
0

0101000
+70 0 -72 0 *
Wi

0101100
+71 0 -69 0 +68 0 *
Fa
0  1e-07 27 0

0111000
+67 0 *
Ve
1e-07
-1.3856406460551 -0.8 1.3
0 0

0101101
*
Ed
 1e-07 1 1 0
1  42 0 0.000873523365595366 0.938130623602271
2  54 13 0 0.000873523365595366 0.938130623602271
4 C0 13 0 23 0
0

0101000
+131 0 -65 0 *
Ed
 1e-07 1 1 0
1  43 0 3.14159265358979 3.66519142918809
2  55 13 0 3.14159265358979 3.66519142918809
4 C0 13 0 7 0
0

0101000
+132 0 -65 0 *
Wi

0101100
+130 0 +64 0 -63 0 *
Fa
0  1e-07 13 0

0111000
+62 0 *
Ve
1e-07
-0.923760430703402 -1.6 1.15709376403673
0 0

0101101
*
Ve
1e-07
-3.84592537276713e-16 -1.6 1.3
0 0

0101101
*
Ed
 1e-07 1 1 0
1  44 0 0.000873523365594393 0.938130623602273
2  56 28 0 0.000873523365594393 0.938130623602273
4 C0 28 0 20 0
0

0101000
+60 0 -59 0 *
Ed
 1e-07 1 1 0
1  45 0 3.66519142918809 4.71238898038469
2  57 28 0 3.66519142918809 4.71238898038469
4 C0 28 0 7 0
0

0101000
+65 0 -59 0 *
Ed
 1e-07 1 1 0
1  46 0 0.938130623602271 1.87538772383895
2  58 28 0 0.938130623602271 1.87538772383895
4 C0 28 0 23 0
0

0101000
+65 0 -60 0 *
Wi

0101100
+58 0 -57 0 +56 0 *
Fa
0  1e-07 28 0

0111000
+55 0 *
Ve
1e-07
0.923760430703401 -1.6 1.15709376403673
0 0

0101101
*
Ed
 1e-07 1 1 0
1  47 0 0.938130623602273 1.87538772383896
2  59 29 0 0.938130623602273 1.87538772383896
4 C0 29 0 20 0
0

0101000
+59 0 -53 0 *
Ve
1e-07
1.3856406460551 -0.8 1.3
0 0

0101101
*
Ed
 1e-07 1 1 0
1  48 0 0.000873523365593168 0.938130623602271
2  60 29 0 0.000873523365593168 0.938130623602271
4 C0 29 0 21 0
0

0101000
+53 0 -51 0 *
Ed
 1e-07 1 1 0
1  49 0 4.71238898038469 5.75958653158129
2  61 29 0 4.71238898038469 5.75958653158129
4 C0 29 0 7 0
0

0101000
+59 0 -51 0 *
Wi

0101100
+52 0 +50 0 -49 0 *
Fa
0  1e-07 29 0

0111000
+48 0 *
Ed
 1e-07 1 1 0
1  50 0 5.75958653158129 6.28318530717959
2  62 10 0 5.75958653158129 6.28318530717959
4 C0 10 0 7 0
0

0101000
+51 0 -139 0 *
Ed
 1e-07 1 1 0
1  51 0 0.938130623602271 1.87538772383895
2  63 10 0 0.938130623602271 1.87538772383895
4 C0 10 0 21 0
0

0101000
+51 0 -140 0 *
Wi

0101100
+138 0 -46 0 +45 0 *
Fa
0  1e-07 10 0

0111000
+44 0 *
Ve
1e-07
0.923760430703401 1.6 1.15709376403673
0 0

0101101
*
Ed
 1e-07 1 1 0
1  52 0 0.938130623602271 1.87538772383895
2  64 30 0 0.938130623602271 1.87538772383895
4 C0 30 0 11 0
0

0101000
+137 0 -42 0 *
Ed
 1e-07 1 1 0
1  53 0 0.000873523365593597 0.938130623602272
2  65 30 0 0.000873523365593597 0.938130623602272
4 C0 30 0 25 0
0

0101000
+42 0 -70 0 *
Ed
 1e-07 1 1 0
1  54 0 0.523598775598299 1.5707963267949
2  66 30 0 0.523598775598299 1.5707963267949
4 C0 30 0 7 0
0

0101000
+137 0 -70 0 *
Wi

0101100
+41 0 +40 0 -39 0 *
Fa
0  1e-07 30 0

0111000
+38 0 *
Ed
 1e-07 1 1 0
1  55 0 0 3.14159265358979
2  67 8 0 0 3.14159265358979
4 C0 7 0 8 0
0

0101000
+146 0 -147 0 *
Wi

0101100
-36 0 -145 0 *
Wi

0101100
+46 0 +135 0 +39 0 +69 0 +128 0 +63 0 +57 0 +49 0 *
Fa
0  1e-07 7 0

0111000
+35 0 +34 0 *
Ed
 1e-07 1 1 0
1  56 0 0 3.14159265358979
2  68 8 0 0 3.14159265358979
2  69 6 0 0 3.14159265358979
4 C0 8 0 6 0
0

0101000
+153 0 -154 0 *
Wi

0101100
+32 0 -144 0 -36 0 -143 0 *
Fa
0  1e-07 8 0

0111000
+31 0 *
Ed
 1e-07 1 1 0
1  57 0 0 3.14159265358979
2  70 6 0 0 3.14159265358979
2  71 3 0 0 3.14159265358979
4 C0 6 0 3 0
0

0101000
+163 0 -164 0 *
Wi

0101100
+29 0 -151 0 -32 0 -150 0 *
Fa
0  1e-07 6 0

0111000
+28 0 *
Ed
 1e-07 1 1 0
1  58 0 0 3.14159265358979
2  72 3 0 0 3.14159265358979
4 C0 3 0 4 0
0

0101000
+159 0 -161 0 *
Wi

0101100
+26 0 -160 0 -29 0 -157 0 *
Fa
0  1e-07 3 0

0111000
+25 0 *
Wi

0101100
-75 0 -104 0 -97 0 -93 0 -111 0 -85 0 -79 0 -120 0 *
Wi

0101100
+26 0 +158 0 *
Fa
0  1e-07 4 0

0111000
+23 0 +22 0 *
Ed
 1e-07 1 1 0
1  59 0 1.14290623596326 2.15709376403673
4 C0 23 0 20 0
0

0101000
+100 0 -60 0 *
Ed
 1e-07 1 1 0
1  60 0 1.14290623596326 2.15709376403673
4 C0 23 0 14 0
0

0101000
+116 0 -131 0 *
Wi

0101100
-92 0 -98 0 +20 0 -56 0 -64 0 -19 0 *
Fa
0  1e-07 23 0

0111000
+18 0 *
Ed
 1e-07 1 1 0
1  61 0 1.14290623596326 2.15709376403673
4 C0 20 0 21 0
0

0101000
+108 0 -53 0 *
Wi

0101100
-96 0 -106 0 +16 0 -52 0 -58 0 -20 0 *
Fa
0  1e-07 20 0

0111000
+15 0 *
Ed
 1e-07 1 1 0
1  62 0 1.14290623596326 2.15709376403673
4 C0 21 0 11 0
0

0101000
+123 0 -140 0 *
Wi

0101100
-103 0 -76 0 +13 0 -45 0 -50 0 -16 0 *
Fa
0  1e-07 21 0

0111000
+12 0 *
Ed
 1e-07 1 1 0
1  63 0 1.14290623596326 2.15709376403674
4 C0 14 0 25 0
0

0101000
+89 0 -72 0 *
Wi

0101100
-112 0 +19 0 -127 0 -71 0 -10 0 -88 0 *
Fa
0  1e-07 14 0

0111000
+9 0 *
Ed
 1e-07 1 1 0
1  64 0 1.14290623596326 2.15709376403673
4 C0 25 0 11 0
0

0101000
+82 0 -42 0 *
Wi

0101100
-86 0 +10 0 -68 0 -40 0 -7 0 -81 0 *
Fa
0  1e-07 25 0

0111000
+6 0 *
Wi

0101100
-80 0 +7 0 -41 0 -136 0 -13 0 -119 0 *
Fa
0  1e-07 11 0

0111000
+4 0 *
Sh

0101100
-155 0 -148 0 -141 0 +133 0 +125 0 +117 0 +109 0 +101 0 +94 0 +90 0 
+83 0 +77 0 +73 0 +66 0 +61 0 +54 0 +47 0 +43 0 +37 0 +33 0 
-30 0 -27 0 -24 0 +21 0 +17 0 +14 0 +11 0 +8 0 +5 0 +3 0 
*
So

0100000
+2 0 *

+1 0 