DBRep_DrawableShape

CASCADE Topology V1, (c) Matra-Datavision
Locations 0
Curve2ds 72
1 6.2831853071795862 -0.3827215453172188 -1 0 
1 0 -2.8587499999999997 1 0 
1 3.1415926535897931 -1.1102230246251565e-16 0 1 
1 3.1415926535897931 -1.1102230246251565e-16 0 1 
1 6.2831853071795862 0.3827215453172188 -1 0 
1 0 -2.2204460492503131e-16 0 -1 
1 6.2831853071795862 -2.2204460492503131e-16 0 -1 
1 0 2.8587500000000001 1 0 
1 0 -0.38272154531721869 1 0 
1 3.1415926535897931 0 0 -1 
1 3.1415926535897931 0 0 -1 
1 6.2831853071795862 0 0 1 
1 0 0 0 1 
1 0 0.38272154531721869 1 0 
1 3.1415926535897931 0 0 -1 
1 3.1415926535897931 0 0 -1 
1 6.2831853071795862 0 0 1 
1 0 0 0 1 
1 6.2831853071795862 1.1102230246251565e-16 0 -1 
1 0 1.1102230246251565e-16 0 -1 
7 0 0  3 25 23  6.2831853071795862 0.57943277099298141  6.2758868504764269 0.54291441201392032  6.2612227562240887 0.471846200324335  6.2390279315978168 0.37100553538867237  6.216637186561762 0.27577787377499879  6.194053621537055 0.18603130695099818  6.1712805625509439 0.10164415999128978  6.1483215948205956 0.022506074786769126  6.1251805565364048 -0.05148286669813646  6.1018615424590532 -0.12041242498924135  6.0783689039853517 -0.18436258005942924  6.0547072492106295 -0.24340382175759809  6.0308814419977335 -0.29759740520833766  6.0068966002776572 -0.34699555986289399  5.9827580934846942 -0.39164165727994976  5.9584715391248553 -0.43157033762871838  5.9340427984405153 -0.46680759664945753  5.9094779712095171 -0.49737083079769623  5.8847833894820401 -0.52326885051494254  5.8599656109555287 -0.54450182465555352  5.8350314093701998 -0.56106129247105729  5.8099877717175206 -0.57292973087791699  5.7848418657709111 -0.58008158389477149  5.7680146980630118 -0.58167961523296352  5.7595865315812871 -0.58168039620854772 
 0.0035486886727284488 4 0.17662173275052398 1 0.34969477682831951 1 0.52276782090611496 1 0.69584086498391051 1 0.86891390906170607 1 1.0419869531395016 1 1.2150599972172973 1 1.3881330412950927 1 1.5612060853728882 1 1.7342791294506839 1 1.9073521735284793 1 2.0804252176062747 1 2.2534982616840704 1 2.4265713057618661 1 2.5996443498396613 1 2.772717393917457 1 2.9457904379952526 1 3.1188634820730479 1 3.2919365261508435 1 3.4650095702286392 1 3.6380826143064344 1 3.8111556583842301 4
1 6.2831853071795862 -0.58168039620854617 -1 0 
1 3.1415926535897931 2.2204460492503131e-16 0 1 
1 3.1415926535897931 2.2204460492503131e-16 0 1 
1 6.2831853071795862 -0.58168039620854617 -1 0 
7 0 0  3 25 23  3.6651914291880918 -0.58168039620854695  3.656763262706368 -0.58167961523296419  3.6399360949984656 -0.58008158389477282  3.614790189051861 -0.57292973087791721  3.5897465513991804 -0.5610612924710584  3.564812349813852 -0.54450182465555441  3.5399945712873384 -0.52326885051494409  3.5152999895598662 -0.49737083079769834  3.4907351623288636 -0.46680759664946081  3.4663064216445267 -0.43157033762872227  3.4420198672846851 -0.39164165727995126  3.4178813604917209 -0.34699555986289871  3.3938965187716454 -0.29759740520833822  3.3700707115587516 -0.2434038217575987  3.3464090567840277 -0.18436258005943082  3.3229164183103292 -0.12041242498924154  3.299597404232975 -0.05148286669813882  3.2764563659487833 0.022506074786770931  3.2534973982184341 0.10164415999129037  3.2307243392323253 0.18603130695099915  3.2081407742076178 0.27577787377500246  3.1857500291715612 0.37100553538867254  3.1635552045452924 0.47184620032433872  3.1488911102929524 0.54291441201392343  3.1415926535897931 0.57943277099298263 
 3.8111556583842301 4 3.9842287024620258 1 4.1573017465398214 1 4.3303747906176167 1 4.5034478346954128 1 4.6765208787732089 1 4.8495939228510041 1 5.0226669669287993 1 5.1957400110065954 1 5.3688130550843916 1 5.5418860991621868 1 5.714959143239982 1 5.8880321873177781 1 6.0611052313955742 1 6.2341782754733694 1 6.4072513195511647 1 6.5803243636289608 1 6.7533974077067569 1 6.9264704517845521 1 7.0995434958623473 1 7.2726165399401435 1 7.4456895840179396 1 7.6187626280957348 4
1 0 0 0 1 
1 6.2831853071795862 0 0 1 
1 0 -0.58168039620854806 1 0 
7 0 0  3 25 23  0.52359877559829915 -0.58168039620854972  0.51517060911657353 -0.5816796152329653  0.49834344140866982 -0.58008158389477338  0.47319753546206655 -0.57292973087791876  0.4481538978093873 -0.56106129247106051  0.42321969622405664 -0.54450182465555319  0.39840191769754352 -0.52326885051494332  0.37370733597007177 -0.49737083079769889  0.34914250873906916 -0.46680759664945992  0.32471376805473273 -0.43157033762871783  0.30042721369488845 -0.39164165727995093  0.27628870690192642 -0.34699555986289643  0.25230386518185366 -0.29759740520833966  0.2284780579689567 -0.24340382175760295  0.20481640319423633 -0.18436258005943318  0.18132376472053924 -0.12041242498924802  0.15800475064318054 -0.051482866698141977  0.13486371235899064 0.022506074786762257  0.11190474462864319 0.10164415999128459  0.089131685642530378 0.18603130695099046  0.066548120617825113 0.27577787377499718  0.044157375581769465 0.37100553538866177  0.021962550955501037 0.47184620032433078  0.0072984567031602054 0.54291441201391799  0 0.5794327709929783 
 3.8111556583842301 4 3.9842287024620262 1 4.1573017465398223 1 4.3303747906176175 1 4.5034478346954137 1 4.6765208787732098 1 4.8495939228510059 1 5.0226669669288011 1 5.1957400110065972 1 5.3688130550843933 1 5.5418860991621894 1 5.7149591432399856 1 5.8880321873177817 1 6.0611052313955769 1 6.234178275473373 1 6.4072513195511682 1 6.5803243636289643 1 6.7533974077067604 1 6.9264704517845566 1 7.0995434958623527 1 7.2726165399401488 1 7.4456895840179449 1 7.6187626280957401 4
1 3.1415926535897931 -1.1102230246251565e-16 0 -1 
1 3.1415926535897931 -1.1102230246251565e-16 0 -1 
7 0 0  3 25 23  3.1415926535897931 0.57943277099297874  3.1342941968866338 0.54291441201391843  3.1196301026342934 0.47184620032433194  3.0974352780080241 0.37100553538866471  3.0750445329719671 0.27577787377499569  3.0524609679472605 0.18603130695099546  3.0296879089611499 0.1016441599912868  3.0067289412308029 0.022506074786764276  2.9835879029466108 -0.051482866698141588  2.9602688888692565 -0.12041242498924579  2.9367762503955577 -0.1843625800594314  2.9131145956208351 -0.2434038217576022  2.8892887884079408 -0.29759740520833849  2.8653039466878667 -0.34699555986289643  2.841165439894902 -0.39164165727995198  2.8168788855350608 -0.43157033762871733  2.7924501448507235 -0.46680759664945998  2.7678853176197231 -0.49737083079769867  2.7431907358922492 -0.52326885051494321  2.718372957365736 -0.54450182465555252  2.6934387557804067 -0.56106129247106251  2.6683951181277279 -0.57292973087791577  2.6432492121811206 -0.58008158389477482  2.6264220444732187 -0.58167961523296663  2.6179938779914944 -0.58168039620854894 
 0.0035486886727265879 4 0.1766217327505222 1 0.34969477682831779 1 0.5227678209061134 1 0.69584086498390907 1 0.86891390906170474 1 1.0419869531395001 1 1.2150599972172957 1 1.3881330412950914 1 1.5612060853728871 1 1.7342791294506827 1 1.9073521735284782 1 2.0804252176062739 1 2.2534982616840695 1 2.4265713057618652 1 2.5996443498396609 1 2.7727173939174565 1 2.9457904379952522 1 3.1188634820730479 1 3.2919365261508435 1 3.4650095702286392 1 3.6380826143064344 1 3.8111556583842301 4
1 0 -0.58168039620854806 1 0 
7 0 0  3 25 23  5.2359877559829888 0.57943277099298429  5.2286892992798295 0.5429144120139221  5.2140252050274887 0.47184620032433422  5.1918303804012202 0.37100553538866848  5.1694396353651619 0.2757778737749948  5.1468560703404558 0.18603130695099165  5.1240830113543465 0.10164415999128493  5.1011240436239964 0.022506074786762982  5.0779830053398047 -0.051482866698142664  5.0546639912624522 -0.12041242498924404  5.0311713527887516 -0.18436258005943607  5.0075096980140303 -0.24340382175760245  4.9836838908011361 -0.29759740520834016  4.9596990490810615 -0.34699555986289637  4.9355605422880977 -0.39164165727995276  4.9112739879282561 -0.43157033762872093  4.8868452472439197 -0.4668075966494562  4.8622804200129188 -0.49737083079770189  4.8375858382854444 -0.52326885051493988  4.8127680597589322 -0.54450182465555441  4.7878338581736024 -0.56106129247105962  4.7627902205209232 -0.57292973087791566  4.7376443145743155 -0.58008158389477316  4.7208171468664135 -0.58167961523296507  4.7123889803846897 -0.58168039620854817 
 0.0035486886727282519 4 0.17662173275052381 1 0.34969477682831934 1 0.52276782090611496 1 0.69584086498391051 1 0.86891390906170607 1 1.0419869531395016 1 1.2150599972172971 1 1.3881330412950927 1 1.5612060853728884 1 1.7342791294506839 1 1.9073521735284793 1 2.0804252176062747 1 2.2534982616840704 1 2.4265713057618656 1 2.5996443498396613 1 2.772717393917457 1 2.9457904379952526 1 3.1188634820730483 1 3.2919365261508435 1 3.4650095702286392 1 3.6380826143064349 1 3.8111556583842301 4
1 0 -0.5816803962085445 1 -7.421294256748208e-16 
7 0 0  3 25 23  5.7595865315812871 -0.58168039620854972  5.7511583650995632 -0.5816796152329663  5.7343311973916604 -0.58008158389477504  5.7091852914450545 -0.5729297308779201  5.6841416537923752 -0.56106129247105863  5.6592074522070455 -0.54450182465555441  5.6343896736805315 -0.52326885051494454  5.6096950919530597 -0.49737083079770028  5.5851302647220589 -0.46680759664945987  5.5607015240377207 -0.43157033762871977  5.5364149696778799 -0.39164165727995437  5.5122764628849161 -0.34699555986289632  5.4882916211648398 -0.29759740520833888  5.4644658139519464 -0.24340382175760245  5.4408041591772225 -0.18436258005943104  5.4173115207035254 -0.12041242498924339  5.3939925066261694 -0.051482866698138487  5.3708514683419804 0.022506074786768304  5.3478925006116294 0.10164415999128636  5.325119441625521 0.18603130695100167  5.302535876600813 0.27577787377499441  5.2801451315647583 0.37100553538867254  5.2579503069384872 0.47184620032433727  5.2432862126861481 0.54291441201392387  5.2359877559829888 0.57943277099298507 
 3.8111556583842301 4 3.9842287024620258 1 4.1573017465398214 1 4.3303747906176167 1 4.5034478346954128 1 4.676520878773208 1 4.8495939228510032 1 5.0226669669287993 1 5.1957400110065945 1 5.3688130550843898 1 5.5418860991621859 1 5.7149591432399811 1 5.8880321873177763 1 6.0611052313955724 1 6.2341782754733677 1 6.4072513195511629 1 6.580324363628959 1 6.7533974077067551 1 6.9264704517845503 1 7.0995434958623456 1 7.2726165399401417 1 7.4456895840179369 1 7.6187626280957321 4
7 0 0  3 25 23  4.1887902047863905 0.57943277099298429  4.1814917480832303 0.54291441201392288  4.1668276538308904 0.47184620032433588  4.1446328292046219 0.37100553538867032  4.1222420841685645 0.27577787377499996  4.0996585191438575 0.18603130695099906  4.0768854601577473 0.1016441599912848  4.053926492427399 0.022506074786771135  4.0307854541432082 -0.051482866698141033  4.0074664400658531 -0.12041242498924312  3.9839738015921555 -0.18436258005943182  3.9603121468174325 -0.24340382175760156  3.9364863396045373 -0.29759740520833949  3.9125014978844623 -0.34699555986289693  3.8883629910914985 -0.3916416572799537  3.8640764367316587 -0.43157033762871949  3.8396476960473209 -0.46680759664945976  3.8150828688163188 -0.4973708307976985  3.7903882870888452 -0.52326885051494521  3.7655705085623339 -0.54450182465555541  3.7406363069770037 -0.56106129247106062  3.7155926693243253 -0.57292973087791621  3.6904467633777185 -0.58008158389477493  3.6736195956698161 -0.58167961523296652  3.6651914291880918 -0.58168039620854894 
 0.0035486886727277627 4 0.17662173275052331 1 0.3496947768283189 1 0.5227678209061144 1 0.69584086498390996 1 0.86891390906170551 1 1.0419869531395012 1 1.2150599972172966 1 1.3881330412950923 1 1.561206085372888 1 1.7342791294506834 1 1.9073521735284789 1 2.0804252176062743 1 2.25349826168407 1 2.4265713057618652 1 2.5996443498396609 1 2.7727173939174565 1 2.9457904379952522 1 3.1188634820730479 1 3.2919365261508431 1 3.4650095702286388 1 3.6380826143064344 1 3.8111556583842301 4
1 -4.4408920985006262e-16 -0.58168039620854806 1 0 
7 0 0  3 25 23  4.7123889803846897 -0.58168039620854817  4.7039608139029649 -0.58167961523296341  4.6871336461950621 -0.58008158389477205  4.6619877402484571 -0.57292973087792143  4.6369441025957778 -0.56106129247105607  4.6120099010104472 -0.5445018246555543  4.5871921224839358 -0.52326885051494276  4.5624975407564623 -0.49737083079769906  4.5379327135254597 -0.46680759664945903  4.5135039728411241 -0.43157033762872016  4.4892174184812808 -0.39164165727995054  4.4650789116883178 -0.34699555986289821  4.4410940699682424 -0.29759740520833539  4.417268262755349 -0.24340382175760125  4.3936066079806269 -0.18436258005943137  4.3701139695069253 -0.12041242498924445  4.3467949554295737 -0.051482866698138487  4.3236539171453812 0.022506074786767964  4.3006949494150319 0.10164415999128672  4.2779218904289218 0.18603130695100048  4.2553383254042165 0.27577787377499796  4.2329475803681582 0.37100553538867204  4.2107527557418907 0.47184620032433655  4.1960886614895516 0.5429144120139231  4.1887902047863905 0.5794327709929844 
 3.8111556583842301 4 3.9842287024620262 1 4.1573017465398223 1 4.3303747906176184 1 4.5034478346954145 1 4.6765208787732107 1 4.8495939228510068 1 5.022666966928802 1 5.1957400110065981 1 5.3688130550843942 1 5.5418860991621903 1 5.7149591432399864 1 5.8880321873177826 1 6.0611052313955787 1 6.2341782754733739 1 6.40725131955117 1 6.5803243636289661 1 6.7533974077067622 1 6.9264704517845583 1 7.0995434958623544 1 7.2726165399401506 1 7.4456895840179467 1 7.6187626280957428 4
1 0 -0.58168039620854806 1 0 
7 0 0  3 25 23  3.6651914291880918 -0.58168039620854894  3.656763262706368 -0.58167961523296663  3.6399360949984656 -0.58008158389477482  3.6147901890518601 -0.5729297308779161  3.5897465513991818 -0.56106129247106162  3.5648123498138498 -0.54450182465555685  3.5399945712873397 -0.52326885051494687  3.5152999895598649 -0.49737083079769995  3.4907351623288645 -0.46680759664946092  3.4663064216445258 -0.43157033762872221  3.4420198672846856 -0.39164165727995498  3.4178813604917209 -0.34699555986289793  3.3938965187716454 -0.29759740520834282  3.3700707115587516 -0.24340382175760095  3.3464090567840286 -0.18436258005943509  3.3229164183103292 -0.12041242498924391  3.2995974042329754 -0.051482866698139507  3.2764563659487833 0.022506074786766795  3.2534973982184354 0.10164415999129006  3.2307243392323253 0.18603130695099732  3.2081407742076191 0.27577787377499935  3.1857500291715612 0.3710055353886717  3.1635552045452928 0.47184620032433655  3.1488911102929529 0.54291441201392265  3.1415926535897936 0.57943277099298385 
 3.8111556583842301 4 3.9842287024620253 1 4.1573017465398205 1 4.3303747906176158 1 4.503447834695411 1 4.6765208787732071 1 4.8495939228510014 1 5.0226669669287975 1 5.1957400110065928 1 5.368813055084388 1 5.5418860991621832 1 5.7149591432399784 1 5.8880321873177737 1 6.0611052313955689 1 6.234178275473365 1 6.4072513195511593 1 6.5803243636289555 1 6.7533974077067498 1 6.9264704517845459 1 7.0995434958623411 1 7.2726165399401363 1 7.4456895840179316 1 7.6187626280957268 4
7 0 0  3 25 23  2.6179938779914944 -0.58168039620854894  2.6095657115097701 -0.58167961523296519  2.5927385438018673 -0.58008158389477393  2.5675926378552618 -0.57292973087792054  2.5425490002025817 -0.56106129247105796  2.5176147986172523 -0.54450182465555585  2.4927970200907392 -0.52326885051494432  2.4681024383632666 -0.49737083079769995  2.4435376111322644 -0.46680759664946236  2.419108870447928 -0.43157033762871938  2.3948223160880868 -0.39164165727995365  2.3706838092951221 -0.34699555986290043  2.3466989675750476 -0.29759740520833744  2.3228731603621529 -0.24340382175760455  2.2992115055874298 -0.18436258005943484  2.2757188671137309 -0.12041242498924527  2.252399853036378 -0.051482866698141311  2.2292588147521846 0.022506074786765421  2.2062998470218371 0.1016441599912811  2.1835267880357265 0.1860313069509977  2.1609432230110208 0.27577787377499452  2.1385524779749634 0.37100553538866449  2.1163576533486936 0.47184620032433178  2.1016935590963537 0.54291441201391877  2.0943951023931948 0.57943277099297941 
 3.8111556583842301 4 3.9842287024620258 1 4.1573017465398214 1 4.3303747906176167 1 4.5034478346954119 1 4.6765208787732071 1 4.8495939228510032 1 5.0226669669287984 1 5.1957400110065937 1 5.3688130550843898 1 5.541886099162185 1 5.7149591432399802 1 5.8880321873177763 1 6.0611052313955716 1 6.2341782754733668 1 6.4072513195511629 1 6.5803243636289581 1 6.7533974077067533 1 6.9264704517845495 1 7.0995434958623447 1 7.2726165399401399 1 7.445689584017936 1 7.6187626280957312 4
7 0 0  3 25 23  2.0943951023931948 0.57943277099297907  2.0870966456900355 0.54291441201391932  2.0724325514376951 0.47184620032433272  2.0502377268114249 0.37100553538866349  2.0278469817753693 0.27577787377499235  2.0052634167506622 0.18603130695099385  1.9824903577645516 0.10164415999128083  1.9595313900342037 0.022506074786765466  1.9363903517500116 -0.051482866698145224  1.9130713376726587 -0.12041242498924644  1.8895786991989594 -0.18436258005943409  1.8659170444242366 -0.24340382175760414  1.8420912372113414 -0.29759740520834038  1.8181063954912677 -0.34699555986289893  1.7939678886983037 -0.39164165727995209  1.7696813343384625 -0.43157033762872127  1.7452525936541252 -0.46680759664945953  1.7206877664231246 -0.49737083079769778  1.6959931846956506 -0.52326885051494354  1.6711754061691382 -0.54450182465555363  1.6462412045838093 -0.56106129247105863  1.6211975669311294 -0.57292973087791677  1.5960516609845228 -0.58008158389477471  1.5792244932766211 -0.58167961523296596  1.5707963267948966 -0.58168039620854806 
 0.0035486886727366111 4 0.17662173275053178 1 0.34969477682832695 1 0.52276782090612206 1 0.69584086498391728 1 0.86891390906171251 1 1.0419869531395076 1 1.2150599972173028 1 1.3881330412950981 1 1.5612060853728933 1 1.7342791294506885 1 1.9073521735284835 1 2.0804252176062783 1 2.2534982616840735 1 2.4265713057618687 1 2.599644349839664 1 2.7727173939174592 1 2.9457904379952544 1 3.1188634820730496 1 3.2919365261508449 1 3.4650095702286401 1 3.6380826143064349 1 3.8111556583842301 4
1 0 -0.58168039620854806 1 0 
7 0 0  3 25 23  1.5707963267948966 -0.58168039620854806  1.5623681603131723 -0.58167961523296585  1.5455409926052697 -0.5800815838947746  1.520395086658664 -0.57292973087791721  1.4953514490059838 -0.56106129247106118  1.4704172474206549 -0.54450182465555186  1.445599468894142 -0.52326885051494409  1.4209048871666681 -0.49737083079769634  1.3963400599356675 -0.46680759664945898  1.3719113192513297 -0.43157033762872027  1.3476247648914896 -0.39164165727995148  1.3234862580985247 -0.34699555986289593  1.2995014163784504 -0.29759740520833777  1.2756756091655559 -0.24340382175760214  1.2520139543908335 -0.18436258005943307  1.2285213159171338 -0.12041242498924533  1.2052023018397808 -0.051482866698143004  1.1820612635555885 0.02250607478676878  1.1591022958252404 0.10164415999128348  1.1363292368391298 0.1860313069509982  1.1137456718144239 0.27577787377499646  1.0913549267783662 0.37100553538866793  1.0691601021520971 0.47184620032433561  1.0544960078997572 0.54291441201392365  1.0471975511965976 0.57943277099298496 
 3.8111556583842301 4 3.9842287024620258 1 4.1573017465398214 1 4.3303747906176167 1 4.5034478346954128 1 4.676520878773208 1 4.8495939228510032 1 5.0226669669287993 1 5.1957400110065945 1 5.3688130550843898 1 5.5418860991621859 1 5.7149591432399811 1 5.8880321873177763 1 6.0611052313955724 1 6.2341782754733677 1 6.4072513195511629 1 6.580324363628959 1 6.7533974077067551 1 6.9264704517845503 1 7.0995434958623456 1 7.2726165399401417 1 7.4456895840179369 1 7.6187626280957321 4
7 0 0  3 25 23  1.0471975511965974 0.5794327709929834  1.0398990944934381 0.5429144120139221  1.0252350002410979 0.47184620032433455  1.0030401756148284 0.37100553538866726  0.98064943057877085 0.2757778737749948  0.95806586555406548 0.18603130695099257  0.9352928065679541 0.10164415999128613  0.91233383883760699 0.022506074786761265  0.88919280055341443 -0.051482866698141679  0.8658737864760615 -0.1204124249892459  0.84238114800236208 -0.18436258005943443  0.81871949322764004 -0.24340382175760222  0.79489368601474542 -0.29759740520834255  0.77090884429467121 -0.34699555986289687  0.74677033750170696 -0.39164165727995276  0.72248378314186612 -0.43157033762871982  0.69805504245752925 -0.46680759664946014  0.67349021522652797 -0.49737083079770156  0.64879563349905445 -0.52326885051494099  0.62397785497254177 -0.54450182465555486  0.59904365338721222 -0.56106129247106162  0.57400001573453219 -0.57292973087791699  0.54885410978792581 -0.58008158389477582  0.53202694208002366 -0.5816796152329673  0.52359877559829893 -0.58168039620854972 
 0.0035486886727279275 4 0.17662173275052348 1 0.34969477682831906 1 0.52276782090611462 1 0.69584086498391018 1 0.86891390906170574 1 1.0419869531395012 1 1.2150599972172966 1 1.3881330412950923 1 1.561206085372888 1 1.7342791294506834 1 1.9073521735284789 1 2.0804252176062747 1 2.2534982616840704 1 2.4265713057618656 1 2.5996443498396613 1 2.772717393917457 1 2.9457904379952526 1 3.1188634820730483 1 3.2919365261508435 1 3.4650095702286392 1 3.6380826143064349 1 3.8111556583842301 4
1 0 -0.58168039620854806 1 0 
7 0 0  3 25 23  6.2831853071795862 0.57943277099297885  6.275886850476426 0.54291441201391821  6.2612227562240887 0.47184620032433272  6.2390279315978185 0.37100553538866865  6.2166371865617593 0.2757778737749968  6.1940536215370559 0.18603130695099543  6.171280562550943 0.10164415999128483  6.1483215948205965 0.022506074786767027  6.1251805565364021 -0.051482866698141845  6.1018615424590505 -0.12041242498924329  6.078368903985349 -0.18436258005943298  6.0547072492106278 -0.24340382175759953  6.0308814419977326 -0.29759740520833994  6.0068966002776607 -0.34699555986289526  5.9827580934846942 -0.39164165727995287  5.9584715391248526 -0.4315703376287176  5.934042798440518 -0.46680759664946098  5.9094779712095153 -0.49737083079769762  5.8847833894820418 -0.52326885051494532  5.8599656109555287 -0.54450182465555408  5.8350314093701998 -0.56106129247105918  5.8099877717175206 -0.57292973087791754  5.7848418657709137 -0.58008158389477549  5.7680146980630118 -0.58167961523296707  5.7595865315812871 -0.58168039620854972 
 0.0035486886727262509 4 0.1766217327505219 1 0.34969477682831751 1 0.52276782090611318 1 0.69584086498390885 1 0.86891390906170451 1 1.0419869531395001 1 1.2150599972172957 1 1.3881330412950914 1 1.5612060853728871 1 1.7342791294506827 1 1.9073521735284784 1 2.0804252176062739 1 2.2534982616840695 1 2.4265713057618652 1 2.5996443498396609 1 2.7727173939174565 1 2.9457904379952522 1 3.1188634820730479 1 3.2919365261508435 1 3.4650095702286392 1 3.6380826143064349 1 3.8111556583842301 4
1 0 -0.58168039620855738 1 1.4842588513496404e-15 
7 0 0  3 25 23  4.1887902047863914 0.57943277099298252  4.181491748083233 0.54291441201392099  4.1668276538308922 0.47184620032433322  4.1446328292046219 0.37100553538866593  4.1222420841685645 0.2757778737749938  4.0996585191438601 0.18603130695099007  4.0768854601577464 0.10164415999128069  4.0539264924273999 0.022506074786761265  4.0307854541432082 -0.051482866698147091  4.007466440065854 -0.12041242498924819  3.9839738015921555 -0.18436258005943684  3.9603121468174325 -0.24340382175760478  3.9364863396045382 -0.2975974052083436  3.9125014978844641 -0.34699555986289882  3.8883629910914999 -0.39164165727995381  3.8640764367316596 -0.43157033762872304  3.8396476960473214 -0.46680759664946131  3.815082868816321 -0.49737083079769956  3.7903882870888466 -0.52326885051494432  3.7655705085623352 -0.54450182465555474  3.740636306977005 -0.56106129247106251  3.7155926693243253 -0.57292973087791699  3.6904467633777194 -0.58008158389477371  3.6736195956698161 -0.58167961523296463  3.6651914291880918 -0.58168039620854695 
 0.003548688672727346 4 0.17662173275052293 1 0.34969477682831851 1 0.52276782090611418 1 0.69584086498390973 1 0.86891390906170529 1 1.041986953139501 1 1.2150599972172964 1 1.3881330412950921 1 1.5612060853728877 1 1.7342791294506832 1 1.9073521735284789 1 2.0804252176062743 1 2.25349826168407 1 2.4265713057618652 1 2.5996443498396609 1 2.7727173939174565 1 2.9457904379952522 1 3.1188634820730479 1 3.2919365261508431 1 3.4650095702286388 1 3.6380826143064344 1 3.8111556583842301 4
1 6.2831853071795862 -0.58168039620854617 -1 0 
7 0 0  3 25 23  4.7123889803846897 -0.58168039620854617  4.7039608139029649 -0.58167961523296163  4.6871336461950639 -0.58008158389477049  4.6619877402484571 -0.57292973087791887  4.6369441025957778 -0.56106129247105541  4.6120099010104481 -0.54450182465555341  4.5871921224839367 -0.52326885051494043  4.5624975407564614 -0.49737083079769767  4.5379327135254623 -0.46680759664945942  4.513503972841125 -0.43157033762871738  4.4892174184812825 -0.39164165727995187  4.4650789116883187 -0.34699555986289837  4.441094069968246 -0.29759740520833916  4.417268262755349 -0.24340382175760039  4.3936066079806277 -0.1843625800594334  4.3701139695069271 -0.12041242498924454  4.3467949554295746 -0.051482866698140624  4.3236539171453821 0.022506074786766236  4.3006949494150337 0.10164415999128706  4.2779218904289227 0.18603130695099609  4.2553383254042165 0.27577787377499585  4.2329475803681618 0.37100553538866882  4.2107527557418889 0.47184620032433378  4.1960886614895507 0.54291441201392043  4.1887902047863914 0.57943277099298196 
 3.8111556583842301 4 3.9842287024620253 1 4.1573017465398205 1 4.3303747906176158 1 4.503447834695411 1 4.6765208787732062 1 4.8495939228510014 1 5.0226669669287967 1 5.1957400110065919 1 5.3688130550843871 1 5.5418860991621823 1 5.7149591432399776 1 5.8880321873177728 1 6.0611052313955671 1 6.2341782754733632 1 6.4072513195511576 1 6.5803243636289537 1 6.753397407706748 1 6.9264704517845441 1 7.0995434958623385 1 7.2726165399401346 1 7.4456895840179289 1 7.6187626280957241 4
7 0 0  3 25 23  3.1415926535897931 0.57943277099298218  3.1342941968866334 0.54291441201392165  3.1196301026342943 0.47184620032433577  3.0974352780080245 0.37100553538867032  3.075044532971968 0.2757778737749999  3.0524609679472614 0.1860313069509964  3.0296879089611513 0.10164415999129126  3.006728941230802 0.022506074786765893  2.9835879029466112 -0.0514828666981361  2.9602688888692565 -0.12041242498924436  2.9367762503955572 -0.18436258005943137  2.9131145956208346 -0.24340382175760195  2.8892887884079403 -0.29759740520833844  2.8653039466878658 -0.34699555986289887  2.8411654398949007 -0.39164165727995065  2.8168788855350595 -0.4315703376287221  2.7924501448507217 -0.46680759664945748  2.7678853176197213 -0.49737083079769834  2.7431907358922474 -0.52326885051494432  2.7183729573657351 -0.54450182465555352  2.6934387557804054 -0.56106129247105818  2.6683951181277257 -0.57292973087791554  2.6432492121811211 -0.58008158389477205  2.6264220444732183 -0.58167961523296363  2.6179938779914944 -0.58168039620854695 
 0.0035486886727259907 4 0.17662173275052162 1 0.34969477682831729 1 0.52276782090611285 1 0.69584086498390851 1 0.86891390906170418 1 1.0419869531394998 1 1.2150599972172955 1 1.3881330412950912 1 1.5612060853728869 1 1.7342791294506825 1 1.9073521735284782 1 2.0804252176062734 1 2.2534982616840691 1 2.4265713057618647 1 2.5996443498396604 1 2.7727173939174561 1 2.9457904379952518 1 3.1188634820730474 1 3.2919365261508431 1 3.4650095702286388 1 3.6380826143064344 1 3.8111556583842301 4
1 6.2831853071795862 -0.58168039620854617 -1 0 
7 0 0  3 25 23  2.0943951023931957 0.57943277099298707  2.0870966456900364 0.54291441201392687  2.0724325514376956 0.47184620032433977  2.0502377268114271 0.37100553538867054  2.0278469817753693 0.27577787377500118  2.0052634167506636 0.18603130695099943  1.9824903577645527 0.10164415999128845  1.9595313900342051 0.022506074786767947  1.9363903517500121 -0.051482866698137501  1.9130713376726596 -0.12041242498924369  1.88957869919896 -0.18436258005942749  1.8659170444242372 -0.24340382175760111  1.8420912372113427 -0.29759740520833544  1.8181063954912684 -0.34699555986289382  1.7939678886983044 -0.39164165727995154  1.7696813343384636 -0.43157033762871688  1.7452525936541263 -0.46680759664945587  1.7206877664231248 -0.49737083079769689  1.6959931846956513 -0.52326885051494043  1.6711754061691388 -0.54450182465555197  1.6462412045838095 -0.56106129247105629  1.6211975669311296 -0.5729297308779141  1.5960516609845239 -0.58008158389477305  1.5792244932766213 -0.58167961523296419  1.5707963267948968 -0.58168039620854617 
 0.0035486886727272571 4 0.17662173275052284 1 0.3496947768283184 1 0.52276782090611407 1 0.69584086498390962 1 0.86891390906170518 1 1.0419869531395007 1 1.2150599972172962 1 1.3881330412950919 1 1.5612060853728875 1 1.734279129450683 1 1.9073521735284786 1 2.0804252176062743 1 2.25349826168407 1 2.4265713057618652 1 2.5996443498396609 1 2.7727173939174565 1 2.9457904379952522 1 3.1188634820730479 1 3.2919365261508431 1 3.4650095702286388 1 3.6380826143064344 1 3.8111556583842301 4
1 6.2831853071795862 -0.58168039620854617 -1 0 
7 0 0  3 25 23  2.6179938779914944 -0.58168039620854695  2.6095657115097701 -0.5816796152329633  2.5927385438018682 -0.58008158389477182  2.5675926378552618 -0.57292973087791643  2.542549000202583 -0.56106129247106107  2.5176147986172537 -0.54450182465555108  2.4927970200907401 -0.52326885051494565  2.4681024383632679 -0.49737083079769778  2.4435376111322653 -0.46680759664946053  2.4191088704479298 -0.43157033762872132  2.3948223160880877 -0.39164165727995487  2.3706838092951239 -0.34699555986289837  2.3466989675750489 -0.29759740520834049  2.3228731603621551 -0.24340382175760419  2.2992115055874316 -0.18436258005943298  2.2757188671137323 -0.12041242498924558  2.2523998530363785 -0.05148286669814154  2.2292588147521872 0.022506074786766424  2.2062998470218385 0.10164415999128323  2.1835267880357279 0.18603130695099893  2.1609432230110222 0.27577787377499718  2.1385524779749638 0.37100553538866959  2.116357653348695 0.47184620032433489  2.1016935590963555 0.54291441201392254  2.0943951023931957 0.57943277099298462 
 3.8111556583842301 4 3.9842287024620253 1 4.1573017465398205 1 4.3303747906176167 1 4.5034478346954119 1 4.6765208787732071 1 4.8495939228510023 1 5.0226669669287975 1 5.1957400110065937 1 5.3688130550843889 1 5.5418860991621841 1 5.7149591432399802 1 5.8880321873177746 1 6.0611052313955707 1 6.2341782754733659 1 6.4072513195511611 1 6.5803243636289572 1 6.7533974077067516 1 6.9264704517845477 1 7.0995434958623429 1 7.2726165399401381 1 7.4456895840179342 1 7.6187626280957295 4
7 0 0  3 25 23  1.5707963267948968 -0.58168039620854617  1.5623681603131725 -0.5816796152329623  1.5455409926052699 -0.5800815838947706  1.5203950866586635 -0.57292973087791577  1.495351449005984 -0.56106129247105718  1.4704172474206543 -0.54450182465555352  1.445599468894142 -0.52326885051493721  1.4209048871666679 -0.49737083079769745  1.3963400599356672 -0.46680759664945942  1.3719113192513301 -0.43157033762871522  1.347624764891489 -0.39164165727995126  1.3234862580985254 -0.34699555986289354  1.2995014163784502 -0.29759740520834022  1.2756756091655566 -0.24340382175759884  1.2520139543908335 -0.18436258005942918  1.2285213159171346 -0.12041242498924379  1.2052023018397806 -0.051482866698140076  1.1820612635555892 0.022506074786766798  1.159102295825241 0.10164415999128631  1.1363292368391302 0.18603130695099618  1.1137456718144243 0.27577787377500057  1.0913549267783669 0.37100553538867032  1.0691601021520973 0.47184620032433788  1.0544960078997569 0.54291441201392565  1.0471975511965976 0.5794327709929874 
 3.8111556583842301 4 3.9842287024620258 1 4.1573017465398214 1 4.3303747906176167 1 4.5034478346954128 1 4.676520878773208 1 4.8495939228510032 1 5.0226669669287993 1 5.1957400110065945 1 5.3688130550843898 1 5.5418860991621859 1 5.7149591432399811 1 5.8880321873177763 1 6.0611052313955724 1 6.2341782754733677 1 6.4072513195511629 1 6.580324363628959 1 6.7533974077067551 1 6.9264704517845503 1 7.0995434958623456 1 7.2726165399401417 1 7.4456895840179369 1 7.6187626280957321 4
7 0 0  3 25 23  1.0471975511965976 0.57943277099298829  1.0398990944934383 0.54291441201392765  1.0252350002410984 0.47184620032434027  1.0030401756148284 0.37100553538867093  0.9806494305787713 0.27577787377500212  0.9580658655540657 0.18603130695100237  0.93529280656795444 0.1016441599912903  0.91233383883760721 0.022506074786770427  0.88919280055341443 -0.051482866698137654  0.86587378647606139 -0.12041242498924075  0.84238114800236175 -0.18436258005942927  0.81871949322763937 -0.24340382175759853  0.79489368601474442 -0.29759740520833633  0.77090884429466977 -0.34699555986289488  0.74677033750170574 -0.39164165727995043  0.7224837831418649 -0.43157033762871799  0.69805504245752714 -0.46680759664945598  0.6734902152265263 -0.49737083079769762  0.64879563349905267 -0.52326885051494254  0.62397785497254021 -0.54450182465555164  0.59904365338721077 -0.56106129247105729  0.57400001573453141 -0.57292973087791588  0.54885410978792515 -0.58008158389477171  0.53202694208002332 -0.58167961523296352  0.52359877559829904 -0.58168039620854695 
 0.0035486886727269431 4 0.17662173275052256 1 0.34969477682831818 1 0.52276782090611373 1 0.6958408649839094 1 0.86891390906170507 1 1.0419869531395005 1 1.2150599972172962 1 1.3881330412950919 1 1.5612060853728875 1 1.7342791294506832 1 1.9073521735284786 1 2.0804252176062739 1 2.2534982616840695 1 2.4265713057618652 1 2.5996443498396609 1 2.7727173939174565 1 2.9457904379952522 1 3.1188634820730479 1 3.2919365261508435 1 3.4650095702286392 1 3.6380826143064344 1 3.8111556583842301 4
1 6.2831853071795862 -0.58168039620854262 -1 -7.421294256748208e-16 
1 6.2831853071795862 -0.58168039620855549 -1 1.4842588513496396e-15 
7 0 0  3 25 23  0.52359877559829904 -0.58168039620854695  0.51517060911657475 -0.58167961523296374  0.49834344140867304 -0.58008158389477238  0.47319753546206705 -0.57292973087791654  0.44815389780938775 -0.56106129247105918  0.42321969622405825 -0.54450182465555297  0.39840191769754574 -0.52326885051494454  0.37370733597007183 -0.49737083079769806  0.34914250873907088 -0.46680759664945826  0.32471376805473356 -0.43157033762871977  0.30042721369489228 -0.39164165727995232  0.27628870690192797 -0.34699555986289798  0.25230386518185305 -0.29759740520833761  0.22847805796895851 -0.24340382175759859  0.20481640319423577 -0.18436258005943174  0.18132376472053596 -0.12041242498924362  0.15800475064318284 -0.05148286669813814  0.13486371235899036 0.022506074786769945  0.11190474462864251 0.1016441599912877  0.089131685642531752 0.18603130695100142  0.066548120617825904 0.27577787377499924  0.044157375581768597 0.3710055353886727  0.021962550955499465 0.4718462003243386  0.0072984567031593936 0.54291441201392454  0 0.57943277099298507 
 3.8111556583842301 4 3.9842287024620253 1 4.1573017465398205 1 4.3303747906176158 1 4.503447834695411 1 4.6765208787732071 1 4.8495939228510014 1 5.0226669669287975 1 5.1957400110065928 1 5.368813055084388 1 5.5418860991621832 1 5.7149591432399784 1 5.8880321873177737 1 6.0611052313955689 1 6.234178275473365 1 6.4072513195511593 1 6.5803243636289555 1 6.7533974077067498 1 6.9264704517845459 1 7.0995434958623411 1 7.2726165399401363 1 7.4456895840179316 1 7.6187626280957268 4
7 0 0  3 25 23  5.7595865315812871 -0.58168039620854772  5.7511583650995632 -0.5816796152329633  5.7343311973916604 -0.58008158389477127  5.7091852914450545 -0.57292973087791788  5.684141653792377 -0.56106129247105618  5.6592074522070472 -0.54450182465555386  5.6343896736805332 -0.52326885051494199  5.6096950919530588 -0.49737083079769573  5.5851302647220615 -0.46680759664945831  5.5607015240377207 -0.43157033762871566  5.5364149696778808 -0.39164165727995065  5.512276462884917 -0.34699555986289543  5.4882916211648407 -0.29759740520833877  5.4644658139519482 -0.24340382175759809  5.4408041591772234 -0.18436258005943029  5.4173115207035254 -0.12041242498924024  5.3939925066261711 -0.051482866698138667  5.3708514683419795 0.022506074786769571  5.3478925006116302 0.10164415999128838  5.325119441625521 0.18603130695100037  5.302535876600813 0.27577787377500007  5.2801451315647583 0.37100553538867354  5.2579503069384872 0.47184620032433972  5.2432862126861481 0.54291441201392654  5.2359877559829888 0.5794327709929874 
 3.8111556583842301 4 3.9842287024620258 1 4.1573017465398214 1 4.3303747906176167 1 4.5034478346954128 1 4.676520878773208 1 4.8495939228510032 1 5.0226669669287993 1 5.1957400110065945 1 5.3688130550843898 1 5.5418860991621859 1 5.7149591432399811 1 5.8880321873177763 1 6.0611052313955724 1 6.2341782754733677 1 6.4072513195511629 1 6.580324363628959 1 6.7533974077067551 1 6.9264704517845503 1 7.0995434958623456 1 7.2726165399401417 1 7.4456895840179369 1 7.6187626280957321 4
7 0 0  3 25 23  5.2359877559829888 0.57943277099298784  5.2286892992798286 0.54291441201392676  5.2140252050274887 0.47184620032433999  5.191830380401222 0.37100553538867298  5.1694396353651619 0.27577787377500379  5.1468560703404558 0.18603130695099801  5.1240830113543439 0.10164415999129221  5.1011240436239973 0.022506074786766708  5.0779830053398047 -0.05148286669813619  5.0546639912624522 -0.12041242498924304  5.0311713527887525 -0.18436258005943074  5.0075096980140295 -0.24340382175759925  4.9836838908011352 -0.29759740520833688  4.9596990490810597 -0.34699555986289693  4.9355605422880968 -0.39164165727995076  4.9112739879282561 -0.43157033762871827  4.8868452472439179 -0.46680759664946014  4.8622804200129153 -0.4973708307976944  4.8375858382854444 -0.52326885051494221  4.8127680597589304 -0.54450182465555175  4.7878338581736024 -0.56106129247105807  4.7627902205209214 -0.57292973087791288  4.7376443145743172 -0.58008158389477171  4.7208171468664135 -0.5816796152329633  4.7123889803846897 -0.58168039620854617 
 0.0035486886727271621 4 0.17662173275052276 1 0.34969477682831834 1 0.52276782090611396 1 0.69584086498390951 1 0.86891390906170507 1 1.0419869531395007 1 1.2150599972172962 1 1.3881330412950919 1 1.5612060853728875 1 1.734279129450683 1 1.9073521735284786 1 2.0804252176062743 1 2.25349826168407 1 2.4265713057618652 1 2.5996443498396609 1 2.7727173939174565 1 2.9457904379952522 1 3.1188634820730479 1 3.2919365261508431 1 3.4650095702286388 1 3.6380826143064344 1 3.8111556583842301 4
1 6.2831853071795862 -0.58168039620854617 -1 0 
1 0 0.38272154531721869 1 0 
1 0 -0.38272154531721869 1 0 
1 0 2.8587500000000001 1 0 
1 0 -2.8587499999999997 1 0 
1 6.2831853071795862 -0.3827215453172188 -1 0 
1 6.2831853071795862 0.3827215453172188 -1 0 
Curves 64
2 0 3.3140909450318101e-17 0.54125000000000001 -0 6.12303176911189e-17 1 1 0 0 0 1 -6.12303176911189e-17 3.4587500000000002
1 -3.7293750000000001 4.7327208680379201e-16 0.270625 -0.70710678118654802 4.3296372853596802e-17 -0.70710678118654702 
2 0 0 0 -0 6.12303176911189e-17 1 1 0 0 0 1 -6.12303176911189e-17 4
1 3.7293750000000001 -4.4013117735347402e-16 0.270625 -0.70710678118654802 1.2988911856079e-16 0.70710678118654702 
2 0 3.8322525084929e-16 6.25875 -0 6.12303176911189e-17 1 1 0 0 0 1 -6.12303176911189e-17 3.4587500000000002
1 -3.4587500000000002 6.3174380277811902e-16 3.3999999999999999 -0 -6.12303176911189e-17 -1 
1 3.4587500000000002 -2.15377642478511e-16 3.3999999999999999 -0 6.12303176911189e-17 1 
2 0 4.1636616029960799e-16 6.7999999999999998 -0 6.12303176911189e-17 1 1 0 0 0 1 -6.12303176911189e-17 4
1 -3.7293750000000001 8.5649733765308201e-16 6.5293749999999999 0.70710678118654802 -1.2988911856079e-16 -0.70710678118654702 
1 3.7293750000000001 -5.6905926504183596e-17 6.5293749999999999 0.70710678118654802 -4.3296372853596802e-17 0.70710678118654702 
1 7.0037500000000001 -4.5912575248601202e-16 6.5091598018957297 -0.86602540378443882 1.3666918005016099e-16 0.49999999999999989 
7 1 0  2 5 3  7.5074992435723598 -0.0033701276522516001 6.2183196037914499  1 6.50078188514341 1.7403154860082299 6.7999999999999998  1.03802697460132 5.6291651245988499 3.25 6.7999999999999998  1 4.7575483640543004 4.7596845139917603 6.7999999999999998  1.03802697460133 3.75083100562534 6.50337012765225 6.2183196037914499  1
 0 3 3.8111556583842301 2 7.6223113167684602 3
2 0 4.1636616029960799e-16 6.7999999999999998 -0 6.12303176911189e-17 1 1 0 0 0 1 -6.12303176911189e-17 6.5
1 -7.0037500000000001 1.2562415976306799e-15 6.5091598018957297 -0.86602540378443882 7.5438862359041891e-17 -0.49999999999999989 
2 0 4.1636616029960799e-16 6.7999999999999998 -0 6.12303176911189e-17 1 1 0 0 0 1 -6.12303176911189e-17 6.5
7 1 0  2 5 3  -3.7508310056253298 6.50337012765225 6.2183196037914499  1 -4.7575483640542897 4.7596845139917603 6.7999999999999998  1.03802697460135 -5.6291651245988499 3.25 6.7999999999999998  1 -6.5007818851434003 1.7403154860082399 6.7999999999999998  1.03802697460131 -7.5074992435723598 -0.00337012765224494 6.2183196037914499  1
 0 3 3.8111556583842301 2 7.6223113167684602 3
1 7.0037500000000001 -8.3987543733107499e-16 0.29084019810427397 0.86602540378443882 -7.5438862359041891e-17 0.49999999999999989 
2 0 0 0 -0 6.12303176911189e-17 1 1 0 0 0 1 -6.12303176911189e-17 6.5
7 1 0  2 5 3  3.75083100562534 6.50337012765225 0.58168039620854795  1 4.7575483640542897 4.7596845139917701 -9.7147965591812198e-17  1.03802697460135 5.6291651245988499 3.25 -4.2104313742116801e-16  1 6.50078188514341 1.7403154860082299 7.3851171410530205e-17  1.03802697460134 7.5074992435723598 -0.0033701276522528998 0.58168039620854795  1
 0 3 3.8111556583842301 2 7.62231131676847 3
1 -7.0037500000000001 8.7549191278562001e-16 0.29084019810427397 0.86602540378443882 -1.3666918005016099e-16 -0.49999999999999989 
7 1 0  2 5 3  -7.5074992435723598 -0.0033701276522467099 0.58168039620854795  1 -6.50078188514341 1.7403154860082299 2.4038462510430302e-16  1.03802697460134 -5.6291651245988499 3.25 -3.6553198618990998e-16  1 -4.7575483640542897 4.7596845139917701 3.5041069121020402e-16  1.03802697460133 -3.7508310056253298 6.50337012765225 0.58168039620854795  1
 0 3 3.8111556583842301 2 7.6223113167684602 3
2 0 0 0 -0 6.12303176911189e-17 1 1 0 0 0 1 -6.12303176911189e-17 6.5
7 1 0  2 5 3  3.75666823794703 -6.5 0.58168039620854906  1 1.7432335210891099 -6.5 3.84119277184458e-16  1.03802697460135 -1.5383701491068501e-15 -6.5 2.86974762529757e-16  1 -1.7432335210891099 -6.5 3.84119277184458e-16  1.03802697460133 -3.75666823794703 -6.5 0.58168039620854906  1
 0 3 3.8111556583842301 2 7.62231131676847 3
2 0 0 0 -0 6.12303176911189e-17 1 1 0 0 0 1 -6.12303176911189e-17 6.5
7 1 0  2 5 3  7.5074992435723598 0.0033701276522477399 0.58168039620854795  1 6.50078188514341 -1.7403154860082299 8.6636895256889902e-16  1.03802697460133 5.6291651245988499 -3.25 -2.3046072428894899e-17  1 4.7575483640542897 -4.7596845139917701 1.0894097938505499e-15  1.03802697460133 3.75083100562534 -6.50337012765225 0.58168039620854906  1
 0 3 3.8111556583842301 2 7.6223113167684602 3
7 1 0  2 5 3  -3.75083100562534 -6.50337012765225 0.58168039620854906  1 -4.7575483640543004 -4.7596845139917603 -5.6204695527937498e-16  1.03802697460133 -5.6291651245988499 -3.25 -2.3046072428895201e-17  1 -6.5007818851434003 -1.7403154860082399 -7.22637751425855e-16  1.03802697460132 -7.5074992435723704 0.0033701276522520199 0.58168039620854795  1
 0 3 3.8111556583842301 2 7.6223113167684602 3
2 0 0 0 -0 6.12303176911189e-17 1 1 0 0 0 1 -6.12303176911189e-17 6.5
7 1 0  2 5 3  3.75666823794703 -6.5 0.58168039620854906  1 1.7432335210891099 -6.5 3.84119277184458e-16  1.03802697460135 -1.5383701491068501e-15 -6.5 2.86974762529757e-16  1 -1.7432335210891099 -6.5 3.84119277184458e-16  1.03802697460133 -3.75666823794703 -6.5 0.58168039620854906  1
 0 3 3.8111556583842301 2 7.62231131676847 3
2 0 0 0 -0 6.12303176911189e-17 1 1 0 0 0 1 -6.12303176911189e-17 6.5
7 1 0  2 5 3  -3.75083100562534 -6.50337012765225 0.58168039620854906  1 -4.7575483640543004 -4.7596845139917603 -5.6204695527937498e-16  1.03802697460133 -5.6291651245988499 -3.25 -2.3046072428895201e-17  1 -6.5007818851434003 -1.7403154860082399 -7.22637751425855e-16  1.03802697460132 -7.5074992435723704 0.0033701276522520199 0.58168039620854795  1
 0 3 3.8111556583842301 2 7.6223113167684602 3
7 1 0  2 5 3  -7.5074992435723598 -0.0033701276522467099 0.58168039620854795  1 -6.50078188514341 1.7403154860082299 2.4038462510430302e-16  1.03802697460134 -5.6291651245988499 3.25 -3.6553198618990998e-16  1 -4.7575483640542897 4.7596845139917701 3.5041069121020402e-16  1.03802697460133 -3.7508310056253298 6.50337012765225 0.58168039620854795  1
 0 3 3.8111556583842301 2 7.6223113167684602 3
7 1 0  2 5 3  -3.75666823794703 6.5 0.58168039620854795  1 -1.7432335210891099 6.5 -8.6290295655405701e-16  1.03802697460134 0 6.5 -3.97997064992273e-16  1 1.7432335210891099 6.5 -8.6290295655405701e-16  1.03802697460134 3.75666823794703 6.5 0.58168039620854795  1
 0 3 3.8111556583842301 2 7.6223113167684602 3
2 0 0 0 -0 6.12303176911189e-17 1 1 0 0 0 1 -6.12303176911189e-17 6.5
7 1 0  2 5 3  -3.75666823794703 6.5 0.58168039620854795  1 -1.7432335210891099 6.5 -8.6290295655405701e-16  1.03802697460134 0 6.5 -3.97997064992273e-16  1 1.7432335210891099 6.5 -8.6290295655405701e-16  1.03802697460134 3.75666823794703 6.5 0.58168039620854795  1
 0 3 3.8111556583842301 2 7.6223113167684602 3
7 1 0  2 5 3  3.75083100562534 6.50337012765225 0.58168039620854795  1 4.7575483640542897 4.7596845139917701 -9.7147965591812198e-17  1.03802697460135 5.6291651245988499 3.25 -4.2104313742116801e-16  1 6.50078188514341 1.7403154860082299 7.3851171410530205e-17  1.03802697460134 7.5074992435723598 -0.0033701276522528998 0.58168039620854795  1
 0 3 3.8111556583842301 2 7.62231131676847 3
2 0 0 0 -0 6.12303176911189e-17 1 1 0 0 0 1 -6.12303176911189e-17 6.5
7 1 0  2 5 3  7.5074992435723598 0.0033701276522477399 0.58168039620854795  1 6.50078188514341 -1.7403154860082299 8.6636895256889902e-16  1.03802697460133 5.6291651245988499 -3.25 -2.3046072428894899e-17  1 4.7575483640542897 -4.7596845139917701 1.0894097938505499e-15  1.03802697460133 3.75083100562534 -6.50337012765225 0.58168039620854906  1
 0 3 3.8111556583842301 2 7.6223113167684602 3
2 0 0 0 -0 6.12303176911189e-17 1 1 0 0 0 1 -6.12303176911189e-17 6.5
7 1 0  2 5 3  -3.7508310056253298 6.50337012765225 6.2183196037914499  1 -4.7575483640542897 4.7596845139917603 6.7999999999999998  1.03802697460135 -5.6291651245988499 3.25 6.7999999999999998  1 -6.5007818851434003 1.7403154860082399 6.7999999999999998  1.03802697460131 -7.5074992435723598 -0.00337012765224494 6.2183196037914499  1
 0 3 3.8111556583842301 2 7.6223113167684602 3
2 0 4.1636616029960799e-16 6.7999999999999998 -0 6.12303176911189e-17 1 1 0 0 0 1 -6.12303176911189e-17 6.5
7 1 0  2 5 3  3.75666823794703 6.5 6.2183196037914499  1 1.7432335210890999 6.5 6.7999999999999998  1.03802697460133 0 6.5 6.7999999999999998  1 -1.7432335210890999 6.5 6.7999999999999998  1.03802697460133 -3.75666823794703 6.5 6.2183196037914499  1
 0 3 3.8111556583842301 2 7.6223113167684602 3
7 1 0  2 5 3  -7.5074992435723598 0.0033701276522499798 6.2183196037914499  1 -6.5007818851434003 -1.7403154860082399 6.7999999999999998  1.03802697460132 -5.6291651245988499 -3.25 6.7999999999999998  1 -4.7575483640543004 -4.7596845139917496 6.7999999999999998  1.03802697460133 -3.75083100562534 -6.5033701276522402 6.2183196037914499  1
 0 3 3.8111556583842301 2 7.6223113167684504 3
2 0 4.1636616029960799e-16 6.7999999999999998 -0 6.12303176911189e-17 1 1 0 0 0 1 -6.12303176911189e-17 6.5
7 1 0  2 5 3  -3.75666823794703 -6.5 6.2183196037914499  1 -1.7432335210891099 -6.5 6.7999999999999998  1.03802697460134 -1.5383701491068501e-15 -6.5 6.7999999999999998  1 1.7432335210891099 -6.5 6.7999999999999998  1.03802697460135 3.75666823794703 -6.5 6.2183196037914499  1
 0 3 3.8111556583842301 2 7.6223113167684602 3
2 0 4.1636616029960799e-16 6.7999999999999998 -0 6.12303176911189e-17 1 1 0 0 0 1 -6.12303176911189e-17 6.5
7 1 0  2 5 3  -7.5074992435723598 0.0033701276522499798 6.2183196037914499  1 -6.5007818851434003 -1.7403154860082399 6.7999999999999998  1.03802697460132 -5.6291651245988499 -3.25 6.7999999999999998  1 -4.7575483640543004 -4.7596845139917496 6.7999999999999998  1.03802697460133 -3.75083100562534 -6.5033701276522402 6.2183196037914499  1
 0 3 3.8111556583842301 2 7.6223113167684504 3
7 1 0  2 5 3  -3.75666823794703 -6.5 6.2183196037914499  1 -1.7432335210891099 -6.5 6.7999999999999998  1.03802697460134 -1.5383701491068501e-15 -6.5 6.7999999999999998  1 1.7432335210891099 -6.5 6.7999999999999998  1.03802697460135 3.75666823794703 -6.5 6.2183196037914499  1
 0 3 3.8111556583842301 2 7.6223113167684602 3
7 1 0  2 5 3  3.75083100562534 -6.50337012765225 6.2183196037914499  1 4.7575483640543004 -4.7596845139917603 6.7999999999999998  1.03802697460133 5.6291651245988499 -3.25 6.7999999999999998  1 6.5007818851434003 -1.7403154860082399 6.7999999999999998  1.03802697460132 7.5074992435723598 0.0033701276522447501 6.2183196037914499  1
 0 3 3.8111556583842301 2 7.6223113167684504 3
2 0 4.1636616029960799e-16 6.7999999999999998 -0 6.12303176911189e-17 1 1 0 0 0 1 -6.12303176911189e-17 6.5
2 0 4.1636616029960799e-16 6.7999999999999998 -0 6.12303176911189e-17 1 1 0 0 0 1 -6.12303176911189e-17 6.5
7 1 0  2 5 3  3.75083100562534 -6.50337012765225 6.2183196037914499  1 4.7575483640543004 -4.7596845139917603 6.7999999999999998  1.03802697460133 5.6291651245988499 -3.25 6.7999999999999998  1 6.5007818851434003 -1.7403154860082399 6.7999999999999998  1.03802697460132 7.5074992435723598 0.0033701276522447501 6.2183196037914499  1
 0 3 3.8111556583842301 2 7.6223113167684504 3
7 1 0  2 5 3  7.5074992435723598 -0.0033701276522516001 6.2183196037914499  1 6.50078188514341 1.7403154860082299 6.7999999999999998  1.03802697460132 5.6291651245988499 3.25 6.7999999999999998  1 4.7575483640543004 4.7596845139917603 6.7999999999999998  1.03802697460133 3.75083100562534 6.50337012765225 6.2183196037914499  1
 0 3 3.8111556583842301 2 7.6223113167684602 3
7 1 0  2 5 3  3.75666823794703 6.5 6.2183196037914499  1 1.7432335210890999 6.5 6.7999999999999998  1.03802697460133 0 6.5 6.7999999999999998  1 -1.7432335210890999 6.5 6.7999999999999998  1.03802697460133 -3.75666823794703 6.5 6.2183196037914499  1
 0 3 3.8111556583842301 2 7.6223113167684602 3
2 0 4.1636616029960799e-16 6.7999999999999998 -0 6.12303176911189e-17 1 1 0 0 0 1 -6.12303176911189e-17 6.5
2 0 4.1636616029960799e-16 6.7999999999999998 -0 6.12303176911189e-17 1 1 0 0 0 1 -6.12303176911189e-17 4
2 0 3.8322525084929e-16 6.25875 -0 6.12303176911189e-17 1 1 0 0 0 1 -6.12303176911189e-17 3.4587500000000002
2 0 3.3140909450318101e-17 0.54125000000000001 -0 6.12303176911189e-17 1 1 0 0 0 1 -6.12303176911189e-17 3.4587500000000002
2 0 0 0 -0 6.12303176911189e-17 1 1 0 0 0 1 -6.12303176911189e-17 4
1 -3.7527767497325701 -6.5 -1 0 6.12303176911189e-17 1 
1 -7.5055534994651296 1.31748713619622e-15 -1 0 6.12303176911189e-17 1 
1 3.7527767497325701 -6.5 -1 0 6.12303176911189e-17 1 
1 7.5055534994651296 -5.2081292113857798e-16 -1 0 6.12303176911189e-17 1 
1 -3.7527767497325599 6.5 -1 0 6.12303176911189e-17 1 
1 3.7527767497325701 6.5 -1 0 6.12303176911189e-17 1 
Polygon3D 0
PolygonOnTriangulations 0
Surfaces 30
3 0 1.6570454725159001e-17 0.270625 0 -6.12303176911189e-17 -1 1 0 0 0 -1 6.12303176911189e-17 3.7293750000000001
0.78539816339744795
2 0 2.08183080149804e-16 3.3999999999999999 -0 6.12303176911189e-17 1 1 0 0 0 1 -6.12303176911189e-17 3.4587500000000002
3 0 1.6570454725159001e-17 0.270625 0 -6.12303176911189e-17 -1 1 0 0 0 -1 6.12303176911189e-17 3.7293750000000001
0.78539816339744795
1 5.25 0 0 -0 -6.12303176911189e-17 -1 -1 0 0 0 1 -6.12303176911189e-17 
3 0 3.99795705574449e-16 6.5293749999999999 -0 6.12303176911189e-17 1 1 0 0 0 1 -6.12303176911189e-17 3.7293750000000001
0.78539816339744795
2 0 2.08183080149804e-16 3.3999999999999999 -0 6.12303176911189e-17 1 1 0 0 0 1 -6.12303176911189e-17 3.4587500000000002
1 5.25 4.1636616029960799e-16 6.7999999999999998 -0 6.12303176911189e-17 1 1 0 0 0 1 -6.12303176911189e-17 
3 0 3.99795705574449e-16 6.5293749999999999 -0 6.12303176911189e-17 1 1 0 0 0 1 -6.12303176911189e-17 3.7293750000000001
0.78539816339744795
3 0 3.9855792257233602e-16 6.5091598018957297 0 -6.12303176911189e-17 -1 1 0 0 0 -1 6.12303176911189e-17 7.0037500000000001
1.0471975511966001
3 0 3.9855792257233602e-16 6.5091598018957297 0 -6.12303176911189e-17 -1 1 0 0 0 -1 6.12303176911189e-17 7.0037500000000001
1.0471975511966001
1 5.6291651245988499 3.25 -1 0.86602540378443882 0.49999999999999989 -3.0615158845559394e-17 -0.49999999999999989 0.86602540378443882 -5.3027010602300679e-17 -2.4651903288156613e-32 6.1230317691118851e-17 1 
3 0 3.9855792257233602e-16 6.5091598018957297 0 -6.12303176911189e-17 -1 1 0 0 0 -1 6.12303176911189e-17 7.0037500000000001
1.0471975511966001
3 0 3.9855792257233602e-16 6.5091598018957297 0 -6.12303176911189e-17 -1 1 0 0 0 -1 6.12303176911189e-17 7.0037500000000001
1.0471975511966001
1 -5.6291651245988499 3.25 -1 -0.86602540378443849 0.50000000000000033 -3.0615158845559419e-17 -0.50000000000000033 -0.86602540378443849 5.3027010602300741e-17 7.0874221953450279e-32 6.1230317691118925e-17 1 
3 0 1.7808237727272599e-17 0.29084019810427397 -0 6.12303176911189e-17 1 1 0 0 0 1 -6.12303176911189e-17 7.0037500000000001
1.0471975511966001
3 0 1.7808237727272599e-17 0.29084019810427397 -0 6.12303176911189e-17 1 1 0 0 0 1 -6.12303176911189e-17 7.0037500000000001
1.0471975511966001
3 0 1.7808237727272599e-17 0.29084019810427397 -0 6.12303176911189e-17 1 1 0 0 0 1 -6.12303176911189e-17 7.0037500000000001
1.0471975511966001
3 0 1.7808237727272599e-17 0.29084019810427397 -0 6.12303176911189e-17 1 1 0 0 0 1 -6.12303176911189e-17 7.0037500000000001
1.0471975511966001
3 0 1.7808237727272599e-17 0.29084019810427397 -0 6.12303176911189e-17 1 1 0 0 0 1 -6.12303176911189e-17 7.0037500000000001
1.0471975511966001
1 -2.2204460492503099e-15 -6.5 -1 -2.3667233063182299e-16 -1 6.12303176911189e-17 1 -2.3667233063182299e-16 1.4491521993284101e-32 -4.926439913641935e-47 6.12303176911189e-17 1 
1 5.6291651245988499 -3.25 -1 0.86602540378443882 -0.49999999999999989 3.0615158845559394e-17 0.49999999999999989 0.86602540378443882 -5.3027010602300679e-17 2.4651903288156613e-32 6.1230317691118851e-17 1 
3 0 1.7808237727272599e-17 0.29084019810427397 -0 6.12303176911189e-17 1 1 0 0 0 1 -6.12303176911189e-17 7.0037500000000001
1.0471975511966001
1 -5.6291651245988499 -3.25 -1 -0.86602540378443882 -0.49999999999999989 3.0615158845559394e-17 0.49999999999999989 -0.86602540378443882 5.3027010602300679e-17 -2.4651903288156613e-32 6.1230317691118851e-17 1 
3 0 1.7808237727272599e-17 0.29084019810427397 -0 6.12303176911189e-17 1 1 0 0 0 1 -6.12303176911189e-17 7.0037500000000001
1.0471975511966001
1 1.33226762955019e-15 6.5 -1 0 1 -6.12303176911189e-17 -1 0 0 0 6.12303176911189e-17 1 
3 0 1.7808237727272599e-17 0.29084019810427397 -0 6.12303176911189e-17 1 1 0 0 0 1 -6.12303176911189e-17 7.0037500000000001
1.0471975511966001
3 0 3.9855792257233602e-16 6.5091598018957297 0 -6.12303176911189e-17 -1 1 0 0 0 -1 6.12303176911189e-17 7.0037500000000001
1.0471975511966001
3 0 3.9855792257233602e-16 6.5091598018957297 0 -6.12303176911189e-17 -1 1 0 0 0 -1 6.12303176911189e-17 7.0037500000000001
1.0471975511966001
3 0 3.9855792257233602e-16 6.5091598018957297 0 -6.12303176911189e-17 -1 1 0 0 0 -1 6.12303176911189e-17 7.0037500000000001
1.0471975511966001
3 0 3.9855792257233602e-16 6.5091598018957297 0 -6.12303176911189e-17 -1 1 0 0 0 -1 6.12303176911189e-17 7.0037500000000001
1.0471975511966001
Triangulations 0

TShapes 164
Ve
1e-07
-3.45875 4.56701632078633e-16 0.54125
0 0

0101101
*
Ve
1e-07
3.45875 3.31409094503181e-17 0.54125
0 0

0101101
*
Ed
 1e-07 1 1 0
1  1 0 3.14159265358979 6.28318530717959
2  1 1 0 3.14159265358979 6.28318530717959
2  2 2 0 3.14159265358979 6.28318530717959
4 C0 1 0 2 0
0

0101000
+164 0 -163 0 *
Ve
1e-07
-4 4.89842541528951e-16 -2.99932144364427e-32
0 0

0101101
*
Ed
 1e-07 1 1 0
1  2 0 -0.382721545317219 0.382721545317219
2  3 1 0 -0.382721545317219 0.382721545317219
2  4 3 0 -0.382721545317219 0.382721545317219
4 CN 1 0 3 0
0

0101000
+164 0 -161 0 *
Ve
1e-07
4 0 0
0 0

0101101
*
Ed
 1e-07 1 1 0
1  3 0 3.14159265358979 6.28318530717959
2  5 1 0 3.14159265358979 6.28318530717959
4 C0 1 0 4 0
0

0101000
+161 0 -159 0 *
Ed
 1e-07 1 1 0
1  4 0 -0.382721545317219 0.382721545317219
2  6 1 0 -0.382721545317219 0.382721545317219
2  7 3 0 -0.382721545317219 0.382721545317219
4 CN 1 0 3 0
0

0101000
+159 0 -163 0 *
Wi

0101100
-162 0 +160 0 +158 0 +157 0 *
Fa
0  1e-07 1 0

0111000
+156 0 *
Ve
1e-07
-3.45875 8.06785973477605e-16 6.25875
0 0

0101101
*
Ve
1e-07
3.45875 3.8322525084929e-16 6.25875
0 0

0101101
*
Ed
 1e-07 1 1 0
1  5 0 3.14159265358979 6.28318530717959
2  8 2 0 3.14159265358979 6.28318530717959
2  9 5 0 3.14159265358979 6.28318530717959
4 C0 2 0 5 0
0

0101000
+154 0 -153 0 *
Ed
 1e-07 1 1 0
1  6 0 -2.85875 2.85875
2  10 2 0 -2.85875 2.85875
2  11 6 0 -2.85875 2.85875
4 CN 2 0 6 0
0

0101000
+154 0 -164 0 *
Ed
 1e-07 1 1 0
1  7 0 -2.85875 2.85875
2  12 2 0 -2.85875 2.85875
2  13 6 0 -2.85875 2.85875
4 CN 2 0 6 0
0

0101000
+163 0 -153 0 *
Wi

0101100
-152 0 +151 0 +162 0 +150 0 *
Fa
0  1e-07 2 0

0111000
+149 0 *
Ve
1e-07
-4 9.06208701828559e-16 6.8
0 0

0101101
*
Ve
1e-07
4 4.16366160299608e-16 6.8
0 0

0101101
*
Ed
 1e-07 1 1 0
1  8 0 3.14159265358979 6.28318530717959
2  14 5 0 3.14159265358979 6.28318530717959
4 C0 5 0 7 0
0

0101000
+147 0 -146 0 *
Ed
 1e-07 1 1 0
1  9 0 -0.382721545317219 0.382721545317219
2  15 5 0 -0.382721545317219 0.382721545317219
2  16 8 0 -0.382721545317219 0.382721545317219
4 CN 5 0 8 0
0

0101000
+147 0 -154 0 *
Ed
 1e-07 1 1 0
1  10 0 -0.382721545317219 0.382721545317219
2  17 5 0 -0.382721545317219 0.382721545317219
2  18 8 0 -0.382721545317219 0.382721545317219
4 CN 5 0 8 0
0

0101000
+153 0 -146 0 *
Wi

0101100
-145 0 +144 0 +152 0 +143 0 *
Fa
0  1e-07 5 0

0111000
+142 0 *
Ve
1e-07
7.50555349946513 -7.87641071993968e-17 6.21944341639923
0 0

0101101
*
Ve
1e-07
6.5 -3.79627969684937e-16 6.8
0 0

0101101
*
Ed
 1e-07 1 1 0
1  11 0 -0.579432770992983 0.581680396208546
2  19 9 0 -0.579432770992983 0.581680396208546
2  20 10 0 -0.579432770992983 0.581680396208546
4 CN 9 0 10 0
0

0101000
+140 0 -139 0 *
Ve
1e-07
5.62916512459885 3.25 6.8
0 0

0101101
*
Ed
 1e-07 1 1 0
1  12 0 0.00354868867272845 3.81115565838423
2  21 9 0 0.00354868867272845 3.81115565838423
4 C0 9 0 11 0
0

0101000
+140 0 -137 0 *
Ed
 1e-07 1 1 0
1  13 0 0 0.523598775598299
2  22 9 0 0 0.523598775598299
4 C0 9 0 7 0
0

0101000
+139 0 -137 0 *
Wi

0101100
-138 0 +136 0 -135 0 *
Fa
0  1e-07 9 0

0111000
+134 0 *
Ve
1e-07
-6.5 1.21236029028415e-15 6.8
0 0

0101101
*
Ve
1e-07
-7.50555349946513 1.7595359501354e-15 6.21944341639923
0 0

0101101
*
Ed
 1e-07 1 1 0
1  14 0 -0.581680396208546 0.579432770992983
2  23 12 0 -0.581680396208546 0.579432770992983
2  24 13 0 -0.581680396208546 0.579432770992983
4 CN 12 0 13 0
0

0101000
+132 0 -131 0 *
Ve
1e-07
-5.62916512459885 3.25 6.8
0 0

0101101
*
Ed
 1e-07 1 1 0
1  15 0 2.61799387799149 3.14159265358979
2  25 12 0 2.61799387799149 3.14159265358979
4 C0 12 0 7 0
0

0101000
+129 0 -132 0 *
Ed
 1e-07 1 1 0
1  16 0 3.81115565838423 7.61876262809573
2  26 12 0 3.81115565838423 7.61876262809573
4 C0 12 0 14 0
0

0101000
+129 0 -131 0 *
Wi

0101100
-130 0 -128 0 +127 0 *
Fa
0  1e-07 12 0

0111000
+126 0 *
Ve
1e-07
6.5 -7.95994129984546e-16 2.41169464433514e-32
0 0

0101101
*
Ve
1e-07
7.50555349946513 -4.24034939395914e-16 0.580556583600765
0 0

0101101
*
Ed
 1e-07 1 1 0
1  17 0 -0.581680396208548 0.579432770992979
2  27 15 0 -0.581680396208548 0.579432770992979
2  28 16 0 -0.581680396208548 0.579432770992979
4 CN 15 0 16 0
0

0101000
+124 0 -123 0 *
Ve
1e-07
5.62916512459885 3.25 -1.98998532496136e-16
0 0

0101101
*
Ed
 1e-07 1 1 0
1  18 0 0 0.523598775598299
2  29 15 0 0 0.523598775598299
4 C0 15 0 4 0
0

0101000
+124 0 -121 0 *
Ed
 1e-07 1 1 0
1  19 0 3.81115565838423 7.61876262809574
2  30 15 0 3.81115565838423 7.61876262809574
4 C0 15 0 11 0
0

0101000
+121 0 -123 0 *
Wi

0101100
-122 0 +120 0 +119 0 *
Fa
0  1e-07 15 0

0111000
+118 0 *
Ve
1e-07
-7.50555349946513 1.41426511793888e-15 0.580556583600765
0 0

0101101
*
Ve
1e-07
-6.5 7.95994129984545e-16 -2.41169464433514e-32
0 0

0101101
*
Ed
 1e-07 1 1 0
1  20 0 -0.579432770992979 0.581680396208548
2  31 17 0 -0.579432770992979 0.581680396208548
2  32 18 0 -0.579432770992979 0.581680396208548
4 CN 17 0 18 0
0

0101000
+116 0 -115 0 *
Ve
1e-07
-5.62916512459885 3.25 -1.98998532496136e-16
0 0

0101101
*
Ed
 1e-07 1 1 0
1  21 0 0.00354868867272659 3.81115565838423
2  33 17 0 0.00354868867272659 3.81115565838423
4 C0 17 0 14 0
0

0101000
+116 0 -113 0 *
Ed
 1e-07 1 1 0
1  22 0 2.61799387799149 3.14159265358979
2  34 17 0 2.61799387799149 3.14159265358979
4 C0 17 0 4 0
0

0101000
+113 0 -115 0 *
Wi

0101100
-114 0 +112 0 +111 0 *
Fa
0  1e-07 17 0

0111000
+110 0 *
Ve
1e-07
3.75277674973257 -6.5 0.580556583600765
0 0

0101101
*
Ve
1e-07
-1.53837014910685e-15 -6.5 3.97997064992273e-16
0 0

0101101
*
Ed
 1e-07 1 1 0
1  23 0 0.00354868867272825 3.81115565838423
2  35 19 0 0.00354868867272825 3.81115565838423
4 C0 19 0 20 0
0

0101000
+108 0 -107 0 *
Ve
1e-07
5.62916512459885 -3.25 1.98998532496136e-16
0 0

0101101
*
Ed
 1e-07 1 1 0
1  24 0 4.71238898038469 5.75958653158129
2  36 19 0 4.71238898038469 5.75958653158129
4 C0 19 0 4 0
0

0101000
+107 0 -105 0 *
Ed
 1e-07 1 1 0
1  25 0 3.81115565838423 7.61876262809573
2  37 19 0 3.81115565838423 7.61876262809573
4 C0 19 0 21 0
0

0101000
+105 0 -108 0 *
Wi

0101100
+106 0 +104 0 +103 0 *
Fa
0  1e-07 19 0

0111000
+102 0 *
Ve
1e-07
-3.75277674973257 -6.5 0.580556583600766
0 0

0101101
*
Ve
1e-07
-5.62916512459885 -3.25 1.98998532496136e-16
0 0

0101101
*
Ed
 1e-07 1 1 0
1  26 0 0.00354868867272776 3.81115565838423
2  38 22 0 0.00354868867272776 3.81115565838423
4 C0 22 0 23 0
0

0101000
+100 0 -99 0 *
Ed
 1e-07 1 1 0
1  27 0 3.66519142918809 4.71238898038469
2  39 22 0 3.66519142918809 4.71238898038469
4 C0 22 0 4 0
0

0101000
+99 0 -107 0 *
Ed
 1e-07 1 1 0
1  28 0 3.81115565838423 7.61876262809574
2  40 22 0 3.81115565838423 7.61876262809574
4 C0 22 0 20 0
0

0101000
+107 0 -100 0 *
Wi

0101100
+98 0 +97 0 +96 0 *
Fa
0  1e-07 22 0

0111000
+95 0 *
Ed
 1e-07 1 1 0
1  29 0 3.14159265358979 3.66519142918809
2  41 18 0 3.14159265358979 3.66519142918809
4 C0 18 0 4 0
0

0101000
+115 0 -99 0 *
Ed
 1e-07 1 1 0
1  30 0 3.81115565838423 7.61876262809573
2  42 18 0 3.81115565838423 7.61876262809573
4 C0 18 0 23 0
0

0101000
+99 0 -116 0 *
Wi

0101100
+114 0 +93 0 +92 0 *
Fa
0  1e-07 18 0

0111000
+91 0 *
Ve
1e-07
-3.75277674973256 6.5 0.580556583600764
0 0

0101101
*
Ed
 1e-07 1 1 0
1  31 0 3.81115565838423 7.61876262809573
2  43 24 0 3.81115565838423 7.61876262809573
4 C0 24 0 14 0
0

0101000
+113 0 -89 0 *
Ve
1e-07
0 6.5 -3.97997064992273e-16
0 0

0101101
*
Ed
 1e-07 1 1 0
1  32 0 0.00354868867273661 3.81115565838423
2  44 24 0 0.00354868867273661 3.81115565838423
4 C0 24 0 25 0
0

0101000
+89 0 -87 0 *
Ed
 1e-07 1 1 0
1  33 0 1.5707963267949 2.61799387799149
2  45 24 0 1.5707963267949 2.61799387799149
4 C0 24 0 4 0
0

0101000
+87 0 -113 0 *
Wi

0101100
+88 0 +86 0 +85 0 *
Fa
0  1e-07 24 0

0111000
+84 0 *
Ve
1e-07
3.75277674973257 6.5 0.580556583600765
0 0

0101101
*
Ed
 1e-07 1 1 0
1  34 0 3.81115565838423 7.61876262809573
2  46 26 0 3.81115565838423 7.61876262809573
4 C0 26 0 25 0
0

0101000
+87 0 -82 0 *
Ed
 1e-07 1 1 0
1  35 0 0.00354868867272793 3.81115565838423
2  47 26 0 0.00354868867272793 3.81115565838423
4 C0 26 0 11 0
0

0101000
+82 0 -121 0 *
Ed
 1e-07 1 1 0
1  36 0 0.523598775598299 1.5707963267949
2  48 26 0 0.523598775598299 1.5707963267949
4 C0 26 0 4 0
0

0101000
+121 0 -87 0 *
Wi

0101100
+81 0 +80 0 +79 0 *
Fa
0  1e-07 26 0

0111000
+78 0 *
Ed
 1e-07 1 1 0
1  37 0 0.00354868867272625 3.81115565838423
2  49 16 0 0.00354868867272625 3.81115565838423
4 C0 16 0 21 0
0

0101000
+123 0 -105 0 *
Ed
 1e-07 1 1 0
1  38 0 5.75958653158129 6.28318530717959
2  50 16 0 5.75958653158129 6.28318530717959
4 C0 16 0 4 0
0

0101000
+105 0 -124 0 *
Wi

0101100
+122 0 +76 0 +75 0 *
Fa
0  1e-07 16 0

0111000
+74 0 *
Ve
1e-07
-3.75277674973256 6.5 6.21944341639923
0 0

0101101
*
Ed
 1e-07 1 1 0
1  39 0 0.00354868867272735 3.81115565838423
2  51 27 0 0.00354868867272735 3.81115565838423
4 C0 27 0 14 0
0

0101000
+72 0 -129 0 *
Ve
1e-07
0 6.5 6.8
0 0

0101101
*
Ed
 1e-07 1 1 0
1  40 0 1.5707963267949 2.61799387799149
2  52 27 0 1.5707963267949 2.61799387799149
4 C0 27 0 7 0
0

0101000
+70 0 -129 0 *
Ed
 1e-07 1 1 0
1  41 0 3.81115565838423 7.61876262809572
2  53 27 0 3.81115565838423 7.61876262809572
4 C0 27 0 25 0
0

0101000
+70 0 -72 0 *
Wi

0101100
+71 0 -69 0 +68 0 *
Fa
0  1e-07 27 0

0111000
+67 0 *
Ve
1e-07
-5.62916512459885 -3.25 6.8
0 0

0101101
*
Ed
 1e-07 1 1 0
1  42 0 0.00354868867272599 3.81115565838423
2  54 13 0 0.00354868867272599 3.81115565838423
4 C0 13 0 23 0
0

0101000
+131 0 -65 0 *
Ed
 1e-07 1 1 0
1  43 0 3.14159265358979 3.66519142918809
2  55 13 0 3.14159265358979 3.66519142918809
4 C0 13 0 7 0
0

0101000
+132 0 -65 0 *
Wi

0101100
+130 0 +64 0 -63 0 *
Fa
0  1e-07 13 0

0111000
+62 0 *
Ve
1e-07
-3.75277674973257 -6.5 6.21944341639923
0 0

0101101
*
Ve
1e-07
-1.53837014910685e-15 -6.5 6.8
0 0

0101101
*
Ed
 1e-07 1 1 0
1  44 0 0.00354868867272726 3.81115565838423
2  56 28 0 0.00354868867272726 3.81115565838423
4 C0 28 0 20 0
0

0101000
+60 0 -59 0 *
Ed
 1e-07 1 1 0
1  45 0 3.66519142918809 4.71238898038469
2  57 28 0 3.66519142918809 4.71238898038469
4 C0 28 0 7 0
0

0101000
+65 0 -59 0 *
Ed
 1e-07 1 1 0
1  46 0 3.81115565838423 7.61876262809573
2  58 28 0 3.81115565838423 7.61876262809573
4 C0 28 0 23 0
0

0101000
+65 0 -60 0 *
Wi

0101100
+58 0 -57 0 +56 0 *
Fa
0  1e-07 28 0

0111000
+55 0 *
Ve
1e-07
3.75277674973257 -6.5 6.21944341639923
0 0

0101101
*
Ed
 1e-07 1 1 0
1  47 0 3.81115565838423 7.61876262809573
2  59 29 0 3.81115565838423 7.61876262809573
4 C0 29 0 20 0
0

0101000
+59 0 -53 0 *
Ve
1e-07
5.62916512459885 -3.25 6.8
0 0

0101101
*
Ed
 1e-07 1 1 0
1  48 0 0.00354868867272694 3.81115565838423
2  60 29 0 0.00354868867272694 3.81115565838423
4 C0 29 0 21 0
0

0101000
+53 0 -51 0 *
Ed
 1e-07 1 1 0
1  49 0 4.71238898038469 5.75958653158129
2  61 29 0 4.71238898038469 5.75958653158129
4 C0 29 0 7 0
0

0101000
+59 0 -51 0 *
Wi

0101100
+52 0 +50 0 -49 0 *
Fa
0  1e-07 29 0

0111000
+48 0 *
Ed
 1e-07 1 1 0
1  50 0 5.75958653158129 6.28318530717959
2  62 10 0 5.75958653158129 6.28318530717959
4 C0 10 0 7 0
0

0101000
+51 0 -139 0 *
Ed
 1e-07 1 1 0
1  51 0 3.81115565838423 7.61876262809573
2  63 10 0 3.81115565838423 7.61876262809573
4 C0 10 0 21 0
0

0101000
+51 0 -140 0 *
Wi

0101100
+138 0 -46 0 +45 0 *
Fa
0  1e-07 10 0

0111000
+44 0 *
Ve
1e-07
3.75277674973257 6.5 6.21944341639923
0 0

0101101
*
Ed
 1e-07 1 1 0
1  52 0 3.81115565838423 7.61876262809573
2  64 30 0 3.81115565838423 7.61876262809573
4 C0 30 0 11 0
0

0101000
+137 0 -42 0 *
Ed
 1e-07 1 1 0
1  53 0 0.00354868867272716 3.81115565838423
2  65 30 0 0.00354868867272716 3.81115565838423
4 C0 30 0 25 0
0

0101000
+42 0 -70 0 *
Ed
 1e-07 1 1 0
1  54 0 0.523598775598299 1.5707963267949
2  66 30 0 0.523598775598299 1.5707963267949
4 C0 30 0 7 0
0

0101000
+137 0 -70 0 *
Wi

0101100
+41 0 +40 0 -39 0 *
Fa
0  1e-07 30 0

0111000
+38 0 *
Ed
 1e-07 1 1 0
1  55 0 0 3.14159265358979
2  67 8 0 0 3.14159265358979
4 C0 7 0 8 0
0

0101000
+146 0 -147 0 *
Wi

0101100
-36 0 -145 0 *
Wi

0101100
+46 0 +135 0 +39 0 +69 0 +128 0 +63 0 +57 0 +49 0 *
Fa
0  1e-07 7 0

0111000
+35 0 +34 0 *
Ed
 1e-07 1 1 0
1  56 0 0 3.14159265358979
2  68 8 0 0 3.14159265358979
2  69 6 0 0 3.14159265358979
4 C0 8 0 6 0
0

0101000
+153 0 -154 0 *
Wi

0101100
+32 0 -144 0 -36 0 -143 0 *
Fa
0  1e-07 8 0

0111000
+31 0 *
Ed
 1e-07 1 1 0
1  57 0 0 3.14159265358979
2  70 6 0 0 3.14159265358979
2  71 3 0 0 3.14159265358979
4 C0 6 0 3 0
0

0101000
+163 0 -164 0 *
Wi

0101100
+29 0 -151 0 -32 0 -150 0 *
Fa
0  1e-07 6 0

0111000
+28 0 *
Ed
 1e-07 1 1 0
1  58 0 0 3.14159265358979
2  72 3 0 0 3.14159265358979
4 C0 3 0 4 0
0

0101000
+159 0 -161 0 *
Wi

0101100
+26 0 -160 0 -29 0 -157 0 *
Fa
0  1e-07 3 0

0111000
+25 0 *
Wi

0101100
-75 0 -104 0 -97 0 -93 0 -111 0 -85 0 -79 0 -120 0 *
Wi

0101100
+26 0 +158 0 *
Fa
0  1e-07 4 0

0111000
+23 0 +22 0 *
Ed
 1e-07 1 1 0
1  59 0 1.58055658360077 7.21944341639923
4 C0 23 0 20 0
0

0101000
+100 0 -60 0 *
Ed
 1e-07 1 1 0
1  60 0 1.58055658360077 7.21944341639923
4 C0 23 0 14 0
0

0101000
+116 0 -131 0 *
Wi

0101100
-92 0 -98 0 +20 0 -56 0 -64 0 -19 0 *
Fa
0  1e-07 23 0

0111000
+18 0 *
Ed
 1e-07 1 1 0
1  61 0 1.58055658360077 7.21944341639923
4 C0 20 0 21 0
0

0101000
+108 0 -53 0 *
Wi

0101100
-96 0 -106 0 +16 0 -52 0 -58 0 -20 0 *
Fa
0  1e-07 20 0

0111000
+15 0 *
Ed
 1e-07 1 1 0
1  62 0 1.58055658360077 7.21944341639923
4 C0 21 0 11 0
0

0101000
+123 0 -140 0 *
Wi

0101100
-103 0 -76 0 +13 0 -45 0 -50 0 -16 0 *
Fa
0  1e-07 21 0

0111000
+12 0 *
Ed
 1e-07 1 1 0
1  63 0 1.58055658360076 7.21944341639923
4 C0 14 0 25 0
0

0101000
+89 0 -72 0 *
Wi

0101100
-112 0 +19 0 -127 0 -71 0 -10 0 -88 0 *
Fa
0  1e-07 14 0

0111000
+9 0 *
Ed
 1e-07 1 1 0
1  64 0 1.58055658360077 7.21944341639923
4 C0 25 0 11 0
0

0101000
+82 0 -42 0 *
Wi

0101100
-86 0 +10 0 -68 0 -40 0 -7 0 -81 0 *
Fa
0  1e-07 25 0

0111000
+6 0 *
Wi

0101100
-80 0 +7 0 -41 0 -136 0 -13 0 -119 0 *
Fa
0  1e-07 11 0

0111000
+4 0 *
Sh

0101100
-155 0 -148 0 -141 0 +133 0 +125 0 +117 0 +109 0 +101 0 +94 0 +90 0 
+83 0 +77 0 +73 0 +66 0 +61 0 +54 0 +47 0 +43 0 +37 0 +33 0 
-30 0 -27 0 -24 0 +21 0 +17 0 +14 0 +11 0 +8 0 +5 0 +3 0 
*
So

0100000
+2 0 *

+1 0 