DBRep_DrawableShape

CASCADE Topology V1, (c) Matra-Datavision
Locations 0
Curve2ds 72
1 6.2831853071795862 -0.3827215453172188 -1 0 
1 0 -1.45875 1 0 
1 3.1415926535897931 -1.1102230246251565e-16 0 1 
1 3.1415926535897931 -1.1102230246251565e-16 0 1 
1 6.2831853071795862 0.3827215453172188 -1 0 
1 0 -2.2204460492503131e-16 0 -1 
1 6.2831853071795862 -2.2204460492503131e-16 0 -1 
1 0 1.4587500000000002 1 0 
1 0 -0.38272154531721869 1 0 
1 3.1415926535897931 0 0 -1 
1 3.1415926535897931 0 0 -1 
1 6.2831853071795862 0 0 1 
1 0 0 0 1 
1 0 0.38272154531721869 1 0 
1 3.1415926535897931 0 0 -1 
1 3.1415926535897931 0 0 -1 
1 6.2831853071795862 0 0 1 
1 0 0 0 1 
1 6.2831853071795862 3.3306690738754696e-16 0 -1 
1 0 3.3306690738754696e-16 0 -1 
7 0 0  3 25 23  6.2831853071795862 0.57943277099298129  6.2758868504764269 0.54291441201392054  6.2612227562240843 0.47184620032433294  6.2390279315978185 0.37100553538866432  6.2166371865617567 0.2757778737749903  6.1940536215370541 0.18603130695099146  6.1712805625509404 0.1016441599912796  6.1483215948205965 0.022506074786762916  6.1251805565364021 -0.051482866698142234  6.1018615424590505 -0.12041242498924662  6.078368903985349 -0.18436258005943354  6.0547072492106269 -0.243403821757601  6.0308814419977335 -0.29759740520833927  6.0068966002776589 -0.34699555986289654  5.9827580934846969 -0.39164165727994721  5.9584715391248517 -0.43157033762871932  5.9340427984405189 -0.46680759664945359  5.9094779712095171 -0.49737083079769817  5.8847833894820436 -0.52326885051494043  5.8599656109555305 -0.54450182465555297  5.8350314093701989 -0.56106129247105685  5.8099877717175223 -0.57292973087791588  5.7848418657709129 -0.58008158389477338  5.7680146980630118 -0.58167961523296485  5.7595865315812871 -0.58168039620854772 
 0.0035486886727296128 4 0.17662173275052509 1 0.34969477682832056 1 0.52276782090611607 1 0.69584086498391151 1 0.86891390906170696 1 1.0419869531395025 1 1.215059997217298 1 1.3881330412950934 1 1.5612060853728889 1 1.7342791294506843 1 1.9073521735284797 1 2.0804252176062752 1 2.2534982616840704 1 2.4265713057618661 1 2.5996443498396613 1 2.772717393917457 1 2.9457904379952526 1 3.1188634820730479 1 3.2919365261508435 1 3.4650095702286388 1 3.6380826143064344 1 3.8111556583842301 4
1 6.2831853071795862 -0.58168039620854617 -1 0 
1 3.1415926535897931 2.2204460492503131e-16 0 1 
1 3.1415926535897931 2.2204460492503131e-16 0 1 
1 6.2831853071795862 -0.58168039620854617 -1 0 
7 0 0  3 25 23  3.6651914291880918 -0.58168039620854695  3.6567632627063671 -0.58167961523296263  3.6399360949984647 -0.58008158389477105  3.6147901890518592 -0.5729297308779181  3.58974655139918 -0.56106129247105729  3.5648123498138498 -0.5445018246555533  3.5399945712873384 -0.52326885051494343  3.5152999895598631 -0.49737083079769839  3.4907351623288632 -0.46680759664946125  3.4663064216445267 -0.43157033762871938  3.4420198672846856 -0.39164165727995226  3.4178813604917204 -0.34699555986289909  3.3938965187716468 -0.29759740520833916  3.3700707115587525 -0.24340382175760411  3.3464090567840299 -0.18436258005943418  3.3229164183103297 -0.12041242498924563  3.2995974042329759 -0.05148286669814614  3.2764563659487855 0.022506074786765973  3.2534973982184354 0.10164415999128379  3.230724339232327 0.18603130695099454  3.2081407742076191 0.2757778737749943  3.185750029171563 0.37100553538866488  3.1635552045452928 0.471846200324335  3.1488911102929529 0.54291441201392188  3.1415926535897936 0.57943277099298174 
 3.8111556583842301 4 3.9842287024620258 1 4.1573017465398214 1 4.3303747906176167 1 4.5034478346954128 1 4.676520878773208 1 4.8495939228510032 1 5.0226669669287993 1 5.1957400110065945 1 5.3688130550843898 1 5.5418860991621859 1 5.7149591432399811 1 5.8880321873177763 1 6.0611052313955724 1 6.2341782754733677 1 6.4072513195511629 1 6.580324363628959 1 6.7533974077067551 1 6.9264704517845503 1 7.0995434958623456 1 7.2726165399401417 1 7.4456895840179369 1 7.6187626280957321 4
1 0 0 0 1 
1 6.2831853071795862 0 0 1 
1 0 -0.58168039620854806 1 0 
7 0 0  3 25 23  0.52359877559829915 -0.58168039620854972  0.51517060911657353 -0.5816796152329653  0.49834344140866982 -0.58008158389477338  0.47319753546206655 -0.57292973087791876  0.4481538978093873 -0.56106129247106051  0.42321969622405664 -0.54450182465555319  0.39840191769754352 -0.52326885051494332  0.37370733597007177 -0.49737083079769889  0.34914250873906916 -0.46680759664945992  0.32471376805473273 -0.43157033762871783  0.30042721369488845 -0.39164165727995093  0.27628870690192642 -0.34699555986289643  0.25230386518185366 -0.29759740520833966  0.2284780579689567 -0.24340382175760295  0.20481640319423633 -0.18436258005943318  0.18132376472053924 -0.12041242498924802  0.15800475064318054 -0.051482866698141977  0.13486371235899064 0.022506074786762257  0.11190474462864319 0.10164415999128459  0.089131685642530378 0.18603130695099046  0.066548120617825113 0.27577787377499718  0.044157375581769465 0.37100553538866177  0.021962550955501037 0.47184620032433078  0.0072984567031602054 0.54291441201391799  0 0.5794327709929783 
 3.8111556583842301 4 3.9842287024620262 1 4.1573017465398223 1 4.3303747906176175 1 4.5034478346954137 1 4.6765208787732098 1 4.8495939228510059 1 5.0226669669288011 1 5.1957400110065972 1 5.3688130550843933 1 5.5418860991621894 1 5.7149591432399856 1 5.8880321873177817 1 6.0611052313955769 1 6.234178275473373 1 6.4072513195511682 1 6.5803243636289643 1 6.7533974077067604 1 6.9264704517845566 1 7.0995434958623527 1 7.2726165399401488 1 7.4456895840179449 1 7.6187626280957401 4
1 3.1415926535897931 -1.1102230246251565e-16 0 -1 
1 3.1415926535897931 -1.1102230246251565e-16 0 -1 
7 0 0  3 25 23  3.1415926535897931 0.57943277099297874  3.1342941968866338 0.54291441201391843  3.1196301026342934 0.47184620032433194  3.0974352780080241 0.37100553538866471  3.0750445329719671 0.27577787377499569  3.0524609679472605 0.18603130695099546  3.0296879089611499 0.1016441599912868  3.0067289412308029 0.022506074786764276  2.9835879029466108 -0.051482866698141588  2.9602688888692565 -0.12041242498924579  2.9367762503955577 -0.1843625800594314  2.9131145956208351 -0.2434038217576022  2.8892887884079408 -0.29759740520833849  2.8653039466878667 -0.34699555986289643  2.841165439894902 -0.39164165727995198  2.8168788855350608 -0.43157033762871733  2.7924501448507235 -0.46680759664945998  2.7678853176197231 -0.49737083079769867  2.7431907358922492 -0.52326885051494321  2.718372957365736 -0.54450182465555252  2.6934387557804067 -0.56106129247106251  2.6683951181277279 -0.57292973087791577  2.6432492121811206 -0.58008158389477482  2.6264220444732187 -0.58167961523296663  2.6179938779914944 -0.58168039620854894 
 0.0035486886727265879 4 0.1766217327505222 1 0.34969477682831779 1 0.5227678209061134 1 0.69584086498390907 1 0.86891390906170474 1 1.0419869531395001 1 1.2150599972172957 1 1.3881330412950914 1 1.5612060853728871 1 1.7342791294506827 1 1.9073521735284782 1 2.0804252176062739 1 2.2534982616840695 1 2.4265713057618652 1 2.5996443498396609 1 2.7727173939174565 1 2.9457904379952522 1 3.1188634820730479 1 3.2919365261508435 1 3.4650095702286392 1 3.6380826143064344 1 3.8111556583842301 4
1 0 -0.58168039620854806 1 0 
7 0 0  3 25 23  5.2359877559829888 0.57943277099298429  5.2286892992798295 0.5429144120139221  5.2140252050274887 0.47184620032433422  5.1918303804012202 0.37100553538866848  5.1694396353651619 0.2757778737749948  5.1468560703404558 0.18603130695099165  5.1240830113543465 0.10164415999128493  5.1011240436239964 0.022506074786762982  5.0779830053398047 -0.051482866698142664  5.0546639912624522 -0.12041242498924404  5.0311713527887516 -0.18436258005943607  5.0075096980140303 -0.24340382175760245  4.9836838908011361 -0.29759740520834016  4.9596990490810615 -0.34699555986289637  4.9355605422880977 -0.39164165727995276  4.9112739879282561 -0.43157033762872093  4.8868452472439197 -0.4668075966494562  4.8622804200129188 -0.49737083079770189  4.8375858382854444 -0.52326885051493988  4.8127680597589322 -0.54450182465555441  4.7878338581736024 -0.56106129247105962  4.7627902205209232 -0.57292973087791566  4.7376443145743155 -0.58008158389477316  4.7208171468664135 -0.58167961523296507  4.7123889803846897 -0.58168039620854817 
 0.0035486886727282519 4 0.17662173275052381 1 0.34969477682831934 1 0.52276782090611496 1 0.69584086498391051 1 0.86891390906170607 1 1.0419869531395016 1 1.2150599972172971 1 1.3881330412950927 1 1.5612060853728884 1 1.7342791294506839 1 1.9073521735284793 1 2.0804252176062747 1 2.2534982616840704 1 2.4265713057618656 1 2.5996443498396613 1 2.772717393917457 1 2.9457904379952526 1 3.1188634820730483 1 3.2919365261508435 1 3.4650095702286392 1 3.6380826143064349 1 3.8111556583842301 4
1 0 -0.5816803962085445 1 -7.421294256748208e-16 
7 0 0  3 25 23  5.7595865315812871 -0.58168039620854972  5.7511583650995632 -0.5816796152329663  5.7343311973916604 -0.58008158389477504  5.7091852914450545 -0.5729297308779201  5.6841416537923752 -0.56106129247105863  5.6592074522070455 -0.54450182465555441  5.6343896736805315 -0.52326885051494454  5.6096950919530597 -0.49737083079770028  5.5851302647220589 -0.46680759664945987  5.5607015240377207 -0.43157033762871977  5.5364149696778799 -0.39164165727995437  5.5122764628849161 -0.34699555986289632  5.4882916211648398 -0.29759740520833888  5.4644658139519464 -0.24340382175760245  5.4408041591772225 -0.18436258005943104  5.4173115207035254 -0.12041242498924339  5.3939925066261694 -0.051482866698138487  5.3708514683419804 0.022506074786768304  5.3478925006116294 0.10164415999128636  5.325119441625521 0.18603130695100167  5.302535876600813 0.27577787377499441  5.2801451315647583 0.37100553538867254  5.2579503069384872 0.47184620032433727  5.2432862126861481 0.54291441201392387  5.2359877559829888 0.57943277099298507 
 3.8111556583842301 4 3.9842287024620258 1 4.1573017465398214 1 4.3303747906176167 1 4.5034478346954128 1 4.676520878773208 1 4.8495939228510032 1 5.0226669669287993 1 5.1957400110065945 1 5.3688130550843898 1 5.5418860991621859 1 5.7149591432399811 1 5.8880321873177763 1 6.0611052313955724 1 6.2341782754733677 1 6.4072513195511629 1 6.580324363628959 1 6.7533974077067551 1 6.9264704517845503 1 7.0995434958623456 1 7.2726165399401417 1 7.4456895840179369 1 7.6187626280957321 4
7 0 0  3 25 23  4.1887902047863905 0.57943277099298429  4.1814917480832303 0.54291441201392288  4.1668276538308904 0.47184620032433588  4.1446328292046219 0.37100553538867032  4.1222420841685645 0.27577787377499996  4.0996585191438575 0.18603130695099906  4.0768854601577473 0.1016441599912848  4.053926492427399 0.022506074786771135  4.0307854541432082 -0.051482866698141033  4.0074664400658531 -0.12041242498924312  3.9839738015921555 -0.18436258005943182  3.9603121468174325 -0.24340382175760156  3.9364863396045373 -0.29759740520833949  3.9125014978844623 -0.34699555986289693  3.8883629910914985 -0.3916416572799537  3.8640764367316587 -0.43157033762871949  3.8396476960473209 -0.46680759664945976  3.8150828688163188 -0.4973708307976985  3.7903882870888452 -0.52326885051494521  3.7655705085623339 -0.54450182465555541  3.7406363069770037 -0.56106129247106062  3.7155926693243253 -0.57292973087791621  3.6904467633777185 -0.58008158389477493  3.6736195956698161 -0.58167961523296652  3.6651914291880918 -0.58168039620854894 
 0.0035486886727277627 4 0.17662173275052331 1 0.3496947768283189 1 0.5227678209061144 1 0.69584086498390996 1 0.86891390906170551 1 1.0419869531395012 1 1.2150599972172966 1 1.3881330412950923 1 1.561206085372888 1 1.7342791294506834 1 1.9073521735284789 1 2.0804252176062743 1 2.25349826168407 1 2.4265713057618652 1 2.5996443498396609 1 2.7727173939174565 1 2.9457904379952522 1 3.1188634820730479 1 3.2919365261508431 1 3.4650095702286388 1 3.6380826143064344 1 3.8111556583842301 4
1 -4.4408920985006262e-16 -0.58168039620854806 1 0 
7 0 0  3 25 23  4.7123889803846897 -0.58168039620854817  4.7039608139029649 -0.58167961523296341  4.6871336461950621 -0.58008158389477205  4.6619877402484571 -0.57292973087792143  4.6369441025957778 -0.56106129247105607  4.6120099010104472 -0.5445018246555543  4.5871921224839358 -0.52326885051494276  4.5624975407564623 -0.49737083079769906  4.5379327135254597 -0.46680759664945903  4.5135039728411241 -0.43157033762872016  4.4892174184812808 -0.39164165727995054  4.4650789116883178 -0.34699555986289821  4.4410940699682424 -0.29759740520833539  4.417268262755349 -0.24340382175760125  4.3936066079806269 -0.18436258005943137  4.3701139695069253 -0.12041242498924445  4.3467949554295737 -0.051482866698138487  4.3236539171453812 0.022506074786767964  4.3006949494150319 0.10164415999128672  4.2779218904289218 0.18603130695100048  4.2553383254042165 0.27577787377499796  4.2329475803681582 0.37100553538867204  4.2107527557418907 0.47184620032433655  4.1960886614895516 0.5429144120139231  4.1887902047863905 0.5794327709929844 
 3.8111556583842301 4 3.9842287024620262 1 4.1573017465398223 1 4.3303747906176184 1 4.5034478346954145 1 4.6765208787732107 1 4.8495939228510068 1 5.022666966928802 1 5.1957400110065981 1 5.3688130550843942 1 5.5418860991621903 1 5.7149591432399864 1 5.8880321873177826 1 6.0611052313955787 1 6.2341782754733739 1 6.40725131955117 1 6.5803243636289661 1 6.7533974077067622 1 6.9264704517845583 1 7.0995434958623544 1 7.2726165399401506 1 7.4456895840179467 1 7.6187626280957428 4
1 0 -0.58168039620854806 1 0 
7 0 0  3 25 23  3.6651914291880918 -0.58168039620854894  3.656763262706368 -0.58167961523296663  3.6399360949984656 -0.58008158389477482  3.6147901890518601 -0.5729297308779161  3.5897465513991818 -0.56106129247106162  3.5648123498138498 -0.54450182465555685  3.5399945712873397 -0.52326885051494687  3.5152999895598649 -0.49737083079769995  3.4907351623288645 -0.46680759664946092  3.4663064216445258 -0.43157033762872221  3.4420198672846856 -0.39164165727995498  3.4178813604917209 -0.34699555986289793  3.3938965187716454 -0.29759740520834282  3.3700707115587516 -0.24340382175760095  3.3464090567840286 -0.18436258005943509  3.3229164183103292 -0.12041242498924391  3.2995974042329754 -0.051482866698139507  3.2764563659487833 0.022506074786766795  3.2534973982184354 0.10164415999129006  3.2307243392323253 0.18603130695099732  3.2081407742076191 0.27577787377499935  3.1857500291715612 0.3710055353886717  3.1635552045452928 0.47184620032433655  3.1488911102929529 0.54291441201392265  3.1415926535897936 0.57943277099298385 
 3.8111556583842301 4 3.9842287024620253 1 4.1573017465398205 1 4.3303747906176158 1 4.503447834695411 1 4.6765208787732071 1 4.8495939228510014 1 5.0226669669287975 1 5.1957400110065928 1 5.368813055084388 1 5.5418860991621832 1 5.7149591432399784 1 5.8880321873177737 1 6.0611052313955689 1 6.234178275473365 1 6.4072513195511593 1 6.5803243636289555 1 6.7533974077067498 1 6.9264704517845459 1 7.0995434958623411 1 7.2726165399401363 1 7.4456895840179316 1 7.6187626280957268 4
7 0 0  3 25 23  2.6179938779914944 -0.58168039620854894  2.6095657115097701 -0.58167961523296519  2.5927385438018673 -0.58008158389477393  2.5675926378552618 -0.57292973087792054  2.5425490002025817 -0.56106129247105796  2.5176147986172523 -0.54450182465555585  2.4927970200907392 -0.52326885051494432  2.4681024383632666 -0.49737083079769995  2.4435376111322644 -0.46680759664946236  2.419108870447928 -0.43157033762871938  2.3948223160880868 -0.39164165727995365  2.3706838092951221 -0.34699555986290043  2.3466989675750476 -0.29759740520833744  2.3228731603621529 -0.24340382175760455  2.2992115055874298 -0.18436258005943484  2.2757188671137309 -0.12041242498924527  2.252399853036378 -0.051482866698141311  2.2292588147521846 0.022506074786765421  2.2062998470218371 0.1016441599912811  2.1835267880357265 0.1860313069509977  2.1609432230110208 0.27577787377499452  2.1385524779749634 0.37100553538866449  2.1163576533486936 0.47184620032433178  2.1016935590963537 0.54291441201391877  2.0943951023931948 0.57943277099297941 
 3.8111556583842301 4 3.9842287024620258 1 4.1573017465398214 1 4.3303747906176167 1 4.5034478346954119 1 4.6765208787732071 1 4.8495939228510032 1 5.0226669669287984 1 5.1957400110065937 1 5.3688130550843898 1 5.541886099162185 1 5.7149591432399802 1 5.8880321873177763 1 6.0611052313955716 1 6.2341782754733668 1 6.4072513195511629 1 6.5803243636289581 1 6.7533974077067533 1 6.9264704517845495 1 7.0995434958623447 1 7.2726165399401399 1 7.445689584017936 1 7.6187626280957312 4
7 0 0  3 25 23  2.0943951023931948 0.57943277099297907  2.0870966456900355 0.54291441201391932  2.0724325514376951 0.47184620032433272  2.0502377268114249 0.37100553538866349  2.0278469817753693 0.27577787377499235  2.0052634167506622 0.18603130695099385  1.9824903577645516 0.10164415999128083  1.9595313900342037 0.022506074786765466  1.9363903517500116 -0.051482866698145224  1.9130713376726587 -0.12041242498924644  1.8895786991989594 -0.18436258005943409  1.8659170444242366 -0.24340382175760414  1.8420912372113414 -0.29759740520834038  1.8181063954912677 -0.34699555986289893  1.7939678886983037 -0.39164165727995209  1.7696813343384625 -0.43157033762872127  1.7452525936541252 -0.46680759664945953  1.7206877664231246 -0.49737083079769778  1.6959931846956506 -0.52326885051494354  1.6711754061691382 -0.54450182465555363  1.6462412045838093 -0.56106129247105863  1.6211975669311294 -0.57292973087791677  1.5960516609845228 -0.58008158389477471  1.5792244932766211 -0.58167961523296596  1.5707963267948966 -0.58168039620854806 
 0.0035486886727366111 4 0.17662173275053178 1 0.34969477682832695 1 0.52276782090612206 1 0.69584086498391728 1 0.86891390906171251 1 1.0419869531395076 1 1.2150599972173028 1 1.3881330412950981 1 1.5612060853728933 1 1.7342791294506885 1 1.9073521735284835 1 2.0804252176062783 1 2.2534982616840735 1 2.4265713057618687 1 2.599644349839664 1 2.7727173939174592 1 2.9457904379952544 1 3.1188634820730496 1 3.2919365261508449 1 3.4650095702286401 1 3.6380826143064349 1 3.8111556583842301 4
1 0 -0.58168039620854806 1 0 
7 0 0  3 25 23  1.5707963267948966 -0.58168039620854806  1.5623681603131723 -0.58167961523296585  1.5455409926052697 -0.5800815838947746  1.520395086658664 -0.57292973087791721  1.4953514490059838 -0.56106129247106118  1.4704172474206549 -0.54450182465555186  1.445599468894142 -0.52326885051494409  1.4209048871666681 -0.49737083079769634  1.3963400599356675 -0.46680759664945898  1.3719113192513297 -0.43157033762872027  1.3476247648914896 -0.39164165727995148  1.3234862580985247 -0.34699555986289593  1.2995014163784504 -0.29759740520833777  1.2756756091655559 -0.24340382175760214  1.2520139543908335 -0.18436258005943307  1.2285213159171338 -0.12041242498924533  1.2052023018397808 -0.051482866698143004  1.1820612635555885 0.02250607478676878  1.1591022958252404 0.10164415999128348  1.1363292368391298 0.1860313069509982  1.1137456718144239 0.27577787377499646  1.0913549267783662 0.37100553538866793  1.0691601021520971 0.47184620032433561  1.0544960078997572 0.54291441201392365  1.0471975511965976 0.57943277099298496 
 3.8111556583842301 4 3.9842287024620258 1 4.1573017465398214 1 4.3303747906176167 1 4.5034478346954128 1 4.676520878773208 1 4.8495939228510032 1 5.0226669669287993 1 5.1957400110065945 1 5.3688130550843898 1 5.5418860991621859 1 5.7149591432399811 1 5.8880321873177763 1 6.0611052313955724 1 6.2341782754733677 1 6.4072513195511629 1 6.580324363628959 1 6.7533974077067551 1 6.9264704517845503 1 7.0995434958623456 1 7.2726165399401417 1 7.4456895840179369 1 7.6187626280957321 4
7 0 0  3 25 23  1.0471975511965974 0.5794327709929834  1.0398990944934381 0.5429144120139221  1.0252350002410979 0.47184620032433455  1.0030401756148284 0.37100553538866726  0.98064943057877085 0.2757778737749948  0.95806586555406548 0.18603130695099257  0.9352928065679541 0.10164415999128613  0.91233383883760699 0.022506074786761265  0.88919280055341443 -0.051482866698141679  0.8658737864760615 -0.1204124249892459  0.84238114800236208 -0.18436258005943443  0.81871949322764004 -0.24340382175760222  0.79489368601474542 -0.29759740520834255  0.77090884429467121 -0.34699555986289687  0.74677033750170696 -0.39164165727995276  0.72248378314186612 -0.43157033762871982  0.69805504245752925 -0.46680759664946014  0.67349021522652797 -0.49737083079770156  0.64879563349905445 -0.52326885051494099  0.62397785497254177 -0.54450182465555486  0.59904365338721222 -0.56106129247106162  0.57400001573453219 -0.57292973087791699  0.54885410978792581 -0.58008158389477582  0.53202694208002366 -0.5816796152329673  0.52359877559829893 -0.58168039620854972 
 0.0035486886727279275 4 0.17662173275052348 1 0.34969477682831906 1 0.52276782090611462 1 0.69584086498391018 1 0.86891390906170574 1 1.0419869531395012 1 1.2150599972172966 1 1.3881330412950923 1 1.561206085372888 1 1.7342791294506834 1 1.9073521735284789 1 2.0804252176062747 1 2.2534982616840704 1 2.4265713057618656 1 2.5996443498396613 1 2.772717393917457 1 2.9457904379952526 1 3.1188634820730483 1 3.2919365261508435 1 3.4650095702286392 1 3.6380826143064349 1 3.8111556583842301 4
1 0 -0.58168039620854806 1 0 
7 0 0  3 25 23  6.2831853071795862 0.57943277099297885  6.275886850476426 0.54291441201391821  6.2612227562240887 0.47184620032433272  6.2390279315978185 0.37100553538866865  6.2166371865617593 0.2757778737749968  6.1940536215370559 0.18603130695099543  6.171280562550943 0.10164415999128483  6.1483215948205965 0.022506074786767027  6.1251805565364021 -0.051482866698141845  6.1018615424590505 -0.12041242498924329  6.078368903985349 -0.18436258005943298  6.0547072492106278 -0.24340382175759953  6.0308814419977326 -0.29759740520833994  6.0068966002776607 -0.34699555986289526  5.9827580934846942 -0.39164165727995287  5.9584715391248526 -0.4315703376287176  5.934042798440518 -0.46680759664946098  5.9094779712095153 -0.49737083079769762  5.8847833894820418 -0.52326885051494532  5.8599656109555287 -0.54450182465555408  5.8350314093701998 -0.56106129247105918  5.8099877717175206 -0.57292973087791754  5.7848418657709137 -0.58008158389477549  5.7680146980630118 -0.58167961523296707  5.7595865315812871 -0.58168039620854972 
 0.0035486886727262509 4 0.1766217327505219 1 0.34969477682831751 1 0.52276782090611318 1 0.69584086498390885 1 0.86891390906170451 1 1.0419869531395001 1 1.2150599972172957 1 1.3881330412950914 1 1.5612060853728871 1 1.7342791294506827 1 1.9073521735284784 1 2.0804252176062739 1 2.2534982616840695 1 2.4265713057618652 1 2.5996443498396609 1 2.7727173939174565 1 2.9457904379952522 1 3.1188634820730479 1 3.2919365261508435 1 3.4650095702286392 1 3.6380826143064349 1 3.8111556583842301 4
1 0 -0.58168039620855738 1 1.4842588513496404e-15 
7 0 0  3 25 23  4.1887902047863914 0.57943277099298107  4.181491748083233 0.54291441201391999  4.1668276538308913 0.4718462003243325  4.1446328292046228 0.37100553538866521  4.1222420841685636 0.27577787377499069  4.0996585191438584 0.18603130695099238  4.0768854601577464 0.10164415999127896  4.053926492427399 0.022506074786758808  4.0307854541432073 -0.051482866698140471  4.007466440065854 -0.12041242498925092  3.9839738015921546 -0.18436258005943329  3.9603121468174343 -0.24340382175760367  3.9364863396045378 -0.29759740520833988  3.9125014978844641 -0.3469955598628976  3.8883629910915012 -0.39164165727995282  3.8640764367316582 -0.43157033762871877  3.8396476960473227 -0.46680759664945887  3.815082868816321 -0.49737083079769773  3.7903882870888488 -0.52326885051494088  3.7655705085623343 -0.54450182465555352  3.7406363069770059 -0.56106129247105974  3.7155926693243253 -0.57292973087791432  3.6904467633777194 -0.58008158389477382  3.6736195956698166 -0.58167961523296507  3.6651914291880918 -0.58168039620854695 
 0.0035486886727296801 4 0.17662173275052515 1 0.34969477682832062 1 0.52276782090611618 1 0.69584086498391162 1 0.86891390906170707 1 1.0419869531395025 1 1.215059997217298 1 1.3881330412950934 1 1.5612060853728889 1 1.7342791294506843 1 1.9073521735284797 1 2.0804252176062756 1 2.2534982616840709 1 2.4265713057618665 1 2.5996443498396617 1 2.7727173939174574 1 2.9457904379952531 1 3.1188634820730483 1 3.291936526150844 1 3.4650095702286392 1 3.6380826143064349 1 3.8111556583842301 4
1 6.2831853071795862 -0.58168039620854617 -1 0 
7 0 0  3 25 23  4.7123889803846897 -0.58168039620854617  4.7039608139029649 -0.58167961523296308  4.6871336461950639 -0.58008158389477182  4.6619877402484562 -0.57292973087791588  4.6369441025957769 -0.56106129247105718  4.6120099010104489 -0.54450182465555041  4.5871921224839349 -0.52326885051494254  4.5624975407564623 -0.49737083079769645  4.5379327135254623 -0.4668075966494607  4.5135039728411241 -0.43157033762871566  4.4892174184812834 -0.39164165727995431  4.4650789116883196 -0.34699555986289915  4.4410940699682451 -0.29759740520833922  4.4172682627553499 -0.24340382175760347  4.3936066079806277 -0.18436258005943354  4.3701139695069289 -0.12041242498924631  4.3467949554295746 -0.051482866698144697  4.3236539171453829 0.02250607478676454  4.3006949494150346 0.10164415999127947  4.2779218904289245 0.18603130695099498  4.2553383254042201 0.27577787377499247  4.23294758036816 0.3710055353886641  4.2107527557418925 0.47184620032433411  4.1960886614895507 0.54291441201391999  4.1887902047863914 0.57943277099297896 
 3.8111556583842301 4 3.9842287024620253 1 4.1573017465398205 1 4.3303747906176149 1 4.5034478346954101 1 4.6765208787732053 1 4.8495939228510005 1 5.0226669669287958 1 5.1957400110065901 1 5.3688130550843853 1 5.5418860991621806 1 5.7149591432399758 1 5.888032187317771 1 6.0611052313955653 1 6.2341782754733615 1 6.4072513195511558 1 6.580324363628951 1 6.7533974077067462 1 6.9264704517845406 1 7.0995434958623367 1 7.272616539940131 1 7.4456895840179262 1 7.6187626280957215 4
7 0 0  3 25 23  3.1415926535897931 0.57943277099298096  3.1342941968866338 0.54291441201391943  3.1196301026342943 0.47184620032433255  3.0974352780080232 0.37100553538866765  3.0750445329719667 0.27577787377499102  3.0524609679472605 0.18603130695099648  3.0296879089611499 0.10164415999128264  3.006728941230802 0.022506074786763912  2.983587902946609 -0.051482866698144822  2.960268888869257 -0.1204124249892463  2.9367762503955572 -0.1843625800594329  2.9131145956208342 -0.24340382175760353  2.8892887884079412 -0.29759740520833983  2.865303946687864 -0.34699555986289893  2.8411654398949016 -0.39164165727995176  2.8168788855350599 -0.43157033762872182  2.7924501448507231 -0.46680759664945942  2.7678853176197222 -0.49737083079769856  2.7431907358922487 -0.52326885051494354  2.718372957365736 -0.5445018246555513  2.6934387557804058 -0.56106129247106107  2.6683951181277275 -0.57292973087791477  2.6432492121811197 -0.58008158389477149  2.6264220444732187 -0.58167961523296363  2.6179938779914944 -0.58168039620854695 
 0.0035486886727285017 4 0.17662173275052404 1 0.34969477682831956 1 0.52276782090611507 1 0.69584086498391062 1 0.86891390906170618 1 1.0419869531395016 1 1.2150599972172973 1 1.3881330412950927 1 1.5612060853728882 1 1.7342791294506839 1 1.9073521735284793 1 2.0804252176062747 1 2.2534982616840704 1 2.4265713057618661 1 2.5996443498396613 1 2.772717393917457 1 2.9457904379952526 1 3.1188634820730479 1 3.2919365261508435 1 3.4650095702286392 1 3.6380826143064344 1 3.8111556583842301 4
1 6.2831853071795862 -0.58168039620854617 -1 0 
7 0 0  3 25 23  2.0943951023931957 0.57943277099298807  2.0870966456900359 0.54291441201392698  2.0724325514376964 0.47184620032433933  2.0502377268114267 0.3710055353886707  2.0278469817753697 0.27577787377500135  2.0052634167506636 0.1860313069510002  1.9824903577645527 0.10164415999128777  1.9595313900342051 0.022506074786768648  1.9363903517500121 -0.051482866698138278  1.9130713376726596 -0.12041242498924261  1.8895786991989596 -0.18436258005942699  1.8659170444242374 -0.24340382175760142  1.8420912372113429 -0.29759740520833461  1.8181063954912686 -0.34699555986289321  1.7939678886983039 -0.39164165727995071  1.7696813343384632 -0.43157033762871616  1.7452525936541265 -0.46680759664945648  1.7206877664231248 -0.49737083079769673  1.6959931846956513 -0.52326885051494054  1.6711754061691388 -0.54450182465555164  1.6462412045838095 -0.56106129247105629  1.6211975669311296 -0.57292973087791355  1.5960516609845239 -0.58008158389477293  1.5792244932766213 -0.58167961523296408  1.5707963267948968 -0.58168039620854595 
 0.0035486886727274258 4 0.17662173275052298 1 0.34969477682831857 1 0.52276782090611407 1 0.69584086498390962 1 0.86891390906170518 1 1.0419869531395007 1 1.2150599972172962 1 1.3881330412950919 1 1.5612060853728875 1 1.734279129450683 1 1.9073521735284784 1 2.0804252176062743 1 2.25349826168407 1 2.4265713057618652 1 2.5996443498396609 1 2.7727173939174565 1 2.9457904379952522 1 3.1188634820730479 1 3.2919365261508431 1 3.4650095702286388 1 3.6380826143064344 1 3.8111556583842301 4
1 6.2831853071795862 -0.58168039620854695 -1 2.1203697876423447e-16 
7 0 0  3 25 23  2.6179938779914944 -0.58168039620854695  2.6095657115097701 -0.58167961523296208  2.5927385438018677 -0.58008158389477016  2.5675926378552609 -0.57292973087791743  2.5425490002025826 -0.56106129247105552  2.5176147986172523 -0.54450182465555108  2.4927970200907397 -0.52326885051494321  2.4681024383632661 -0.49737083079769573  2.4435376111322649 -0.46680759664945759  2.4191088704479289 -0.43157033762871871  2.3948223160880877 -0.39164165727994882  2.3706838092951226 -0.34699555986289604  2.3466989675750489 -0.29759740520833727  2.3228731603621542 -0.24340382175759795  2.2992115055874316 -0.18436258005942976  2.2757188671137323 -0.12041242498924359  2.2523998530363785 -0.051482866698139687  2.2292588147521872 0.022506074786766254  2.2062998470218389 0.10164415999128473  2.1835267880357279 0.18603130695099979  2.1609432230110222 0.27577787377499741  2.1385524779749647 0.37100553538867109  2.116357653348695 0.47184620032433455  2.101693559096355 0.54291441201392199  2.0943951023931957 0.5794327709929844 
 3.8111556583842301 4 3.9842287024620253 1 4.1573017465398205 1 4.3303747906176167 1 4.5034478346954119 1 4.6765208787732071 1 4.8495939228510023 1 5.0226669669287975 1 5.1957400110065937 1 5.3688130550843889 1 5.5418860991621841 1 5.7149591432399802 1 5.8880321873177746 1 6.0611052313955707 1 6.2341782754733659 1 6.4072513195511611 1 6.5803243636289572 1 6.7533974077067516 1 6.9264704517845477 1 7.0995434958623429 1 7.2726165399401381 1 7.4456895840179342 1 7.6187626280957295 4
7 0 0  3 25 23  1.5707963267948968 -0.58168039620854595  1.5623681603131725 -0.58167961523296252  1.5455409926052697 -0.58008158389477049  1.5203950866586637 -0.5729297308779141  1.4953514490059838 -0.56106129247105885  1.4704172474206545 -0.54450182465554986  1.4455994688941416 -0.52326885051494065  1.4209048871666683 -0.49737083079769717  1.3963400599356675 -0.46680759664945493  1.3719113192513297 -0.4315703376287166  1.3476247648914892 -0.39164165727995109  1.3234862580985249 -0.3469955598628936  1.2995014163784506 -0.29759740520833999  1.2756756091655561 -0.24340382175759831  1.2520139543908337 -0.18436258005943174  1.2285213159171344 -0.12041242498924438  1.2052023018397815 -0.051482866698141679  1.1820612635555887 0.022506074786765074  1.1591022958252415 0.10164415999128834  1.1363292368391302 0.18603130695099465  1.1137456718144245 0.27577787377499724  1.0913549267783671 0.37100553538866837  1.0691601021520976 0.47184620032433872  1.0544960078997574 0.54291441201392654  1.0471975511965976 0.57943277099298718 
 3.8111556583842301 4 3.9842287024620258 1 4.1573017465398214 1 4.3303747906176167 1 4.5034478346954119 1 4.6765208787732071 1 4.8495939228510032 1 5.0226669669287984 1 5.1957400110065937 1 5.3688130550843898 1 5.541886099162185 1 5.7149591432399802 1 5.8880321873177763 1 6.0611052313955707 1 6.2341782754733668 1 6.407251319551162 1 6.5803243636289572 1 6.7533974077067533 1 6.9264704517845486 1 7.0995434958623438 1 7.2726165399401399 1 7.4456895840179351 1 7.6187626280957303 4
7 0 0  3 25 23  1.0471975511965972 0.57943277099298607  1.0398990944934376 0.54291441201392521  1.0252350002410975 0.47184620032433761  1.0030401756148279 0.37100553538866909  0.9806494305787703 0.27577787377499524  0.95806586555406426 0.18603130695099662  0.93529280656795333 0.10164415999128716  0.91233383883760555 0.02250607478676862  0.88919280055341321 -0.051482866698143011  0.8658737864760605 -0.12041242498924394  0.84238114800236086 -0.1843625800594316  0.81871949322763871 -0.2434038217576005  0.79489368601474397 -0.29759740520833822  0.7709088442946701 -0.34699555986289266  0.74677033750170563 -0.39164165727995209  0.72248378314186501 -0.43157033762871505  0.69805504245752825 -0.4668075966494572  0.67349021522652697 -0.49737083079769479  0.64879563349905389 -0.52326885051493854  0.62397785497254121 -0.54450182465555208  0.59904365338721144 -0.56106129247105563  0.57400001573453174 -0.57292973087791366  0.54885410978792581 -0.58008158389477393  0.53202694208002366 -0.5816796152329653  0.52359877559829904 -0.58168039620854695 
 0.0035486886727297204 4 0.1766217327505252 1 0.34969477682832067 1 0.52276782090611618 1 0.69584086498391162 1 0.86891390906170707 1 1.0419869531395025 1 1.215059997217298 1 1.3881330412950934 1 1.5612060853728889 1 1.7342791294506843 1 1.9073521735284797 1 2.0804252176062756 1 2.2534982616840709 1 2.4265713057618665 1 2.5996443498396617 1 2.7727173939174574 1 2.9457904379952531 1 3.1188634820730483 1 3.291936526150844 1 3.4650095702286392 1 3.6380826143064349 1 3.8111556583842301 4
1 6.2831853071795862 -0.58168039620854139 -1 -9.5416640443905535e-16 
1 6.2831853071795862 -0.58168039620855549 -1 1.4842588513496396e-15 
7 0 0  3 25 23  0.52359877559829904 -0.58168039620854695  0.51517060911657464 -0.58167961523296308  0.4983434414086727 -0.58008158389477193  0.47319753546206672 -0.5729297308779191  0.44815389780938752 -0.56106129247105674  0.4232196962240577 -0.54450182465555363  0.39840191769754518 -0.52326885051494232  0.37370733597007172 -0.49737083079769734  0.34914250873907049 -0.46680759664946159  0.32471376805473345 -0.43157033762871927  0.30042721369489239 -0.39164165727995365  0.27628870690192803 -0.34699555986289732  0.25230386518185333 -0.29759740520833811  0.22847805796895895 -0.24340382175760256  0.2048164031942363 -0.18436258005943365  0.18132376472053646 -0.12041242498924387  0.15800475064318351 -0.051482866698140603  0.13486371235899103 0.022506074786765713  0.11190474462864332 0.10164415999128461  0.089131685642532488 0.18603130695099782  0.066548120617826639 0.27577787377499308  0.044157375581769208 0.37100553538867254  0.021962550955499992 0.47184620032433416  0.0072984567031596339 0.54291441201391988  0 0.57943277099298174 
 3.8111556583842301 4 3.9842287024620253 1 4.1573017465398205 1 4.3303747906176158 1 4.503447834695411 1 4.6765208787732053 1 4.8495939228510014 1 5.0226669669287958 1 5.195740011006591 1 5.3688130550843862 1 5.5418860991621814 1 5.7149591432399767 1 5.8880321873177719 1 6.0611052313955671 1 6.2341782754733615 1 6.4072513195511576 1 6.5803243636289519 1 6.753397407706748 1 6.9264704517845423 1 7.0995434958623376 1 7.2726165399401328 1 7.445689584017928 1 7.6187626280957232 4
7 0 0  3 25 23  5.7595865315812871 -0.58168039620854772  5.7511583650995632 -0.58167961523296408  5.7343311973916604 -0.58008158389477293  5.7091852914450545 -0.57292973087791876  5.6841416537923761 -0.56106129247105707  5.6592074522070446 -0.54450182465555397  5.634389673680535 -0.52326885051494243  5.6096950919530579 -0.4973708307976985  5.5851302647220589 -0.46680759664945887  5.5607015240377207 -0.43157033762871833  5.5364149696778799 -0.39164165727995248  5.5122764628849161 -0.34699555986289482  5.4882916211648398 -0.29759740520833733  5.4644658139519464 -0.24340382175760039  5.4408041591772225 -0.18436258005942963  5.4173115207035254 -0.12041242498924185  5.3939925066261694 -0.051482866698136884  5.3708514683419804 0.022506074786769973  5.3478925006116294 0.1016441599912889  5.325119441625521 0.18603130695100317  5.302535876600813 0.27577787377499768  5.2801451315647583 0.37100553538867409  5.2579503069384872 0.47184620032433955  5.2432862126861481 0.54291441201392643  5.2359877559829888 0.57943277099298762 
 3.8111556583842301 4 3.9842287024620258 1 4.1573017465398214 1 4.3303747906176167 1 4.5034478346954128 1 4.676520878773208 1 4.8495939228510032 1 5.0226669669287993 1 5.1957400110065945 1 5.3688130550843898 1 5.5418860991621859 1 5.7149591432399811 1 5.8880321873177763 1 6.0611052313955724 1 6.2341782754733677 1 6.4072513195511629 1 6.580324363628959 1 6.7533974077067551 1 6.9264704517845503 1 7.0995434958623456 1 7.2726165399401417 1 7.4456895840179369 1 7.6187626280957321 4
7 0 0  3 25 23  5.2359877559829888 0.57943277099298762  5.2286892992798286 0.54291441201392676  5.2140252050274887 0.47184620032433905  5.1918303804012211 0.37100553538866954  5.1694396353651619 0.27577787377499913  5.1468560703404558 0.1860313069509977  5.1240830113543465 0.10164415999128806  5.1011240436239964 0.022506074786767298  5.0779830053398047 -0.051482866698140457  5.0546639912624522 -0.12041242498924448  5.0311713527887516 -0.18436258005942932  5.0075096980140295 -0.24340382175760211  4.9836838908011361 -0.29759740520833655  4.9596990490810606 -0.34699555986289671  4.9355605422880959 -0.39164165727995137  4.9112739879282552 -0.43157033762871749  4.8868452472439188 -0.46680759664945753  4.8622804200129179 -0.49737083079769834  4.8375858382854426 -0.52326885051494043  4.812768059758934 -0.54450182465555319  4.7878338581736006 -0.56106129247105785  4.7627902205209232 -0.57292973087791366  4.7376443145743172 -0.58008158389477327  4.7208171468664135 -0.58167961523296452  4.7123889803846897 -0.58168039620854617 
 0.0035486886727274054 4 0.17662173275052295 1 0.34969477682831851 1 0.52276782090611407 1 0.69584086498390962 1 0.86891390906170518 1 1.0419869531395007 1 1.2150599972172962 1 1.3881330412950919 1 1.5612060853728875 1 1.734279129450683 1 1.9073521735284784 1 2.0804252176062743 1 2.25349826168407 1 2.4265713057618652 1 2.5996443498396609 1 2.7727173939174565 1 2.9457904379952522 1 3.1188634820730479 1 3.2919365261508431 1 3.4650095702286388 1 3.6380826143064344 1 3.8111556583842301 4
1 6.2831853071795862 -0.58168039620854617 -1 0 
1 0 0.38272154531721869 1 0 
1 0 -0.38272154531721869 1 0 
1 0 1.4587500000000002 1 0 
1 0 -1.45875 1 0 
1 6.2831853071795862 -0.3827215453172188 -1 0 
1 6.2831853071795862 0.3827215453172188 -1 0 
Curves 64
2 0 3.3140909450318101e-17 0.54125000000000001 -0 6.12303176911189e-17 1 1 0 0 0 1 -6.12303176911189e-17 3.4587500000000002
1 -3.7293750000000001 4.7327208680379201e-16 0.270625 -0.70710678118654802 4.3296372853596802e-17 -0.70710678118654702 
2 0 0 0 -0 6.12303176911189e-17 1 1 0 0 0 1 -6.12303176911189e-17 4
1 3.7293750000000001 -4.4013117735347402e-16 0.270625 -0.70710678118654802 1.2988911856079e-16 0.70710678118654702 
2 0 2.1178036131415699e-16 3.4587500000000002 -0 6.12303176911189e-17 1 1 0 0 0 1 -6.12303176911189e-17 3.4587500000000002
1 -3.4587500000000002 5.4602135801055196e-16 2 -0 -6.12303176911189e-17 -1 
1 3.4587500000000002 -3.01100087246077e-16 2 -0 6.12303176911189e-17 1 
2 0 2.4492127076447501e-16 4 -0 6.12303176911189e-17 1 1 0 0 0 1 -6.12303176911189e-17 4
1 -3.7293750000000001 6.8505244811794898e-16 3.7293750000000001 0.70710678118654802 -1.2988911856079e-16 -0.70710678118654702 
1 3.7293750000000001 -2.2835081603931601e-16 3.7293750000000001 0.70710678118654802 -4.3296372853596802e-17 0.70710678118654702 
1 7.0037500000000001 -6.3057064202114495e-16 3.7091598018957299 -0.86602540378443882 1.3666918005016099e-16 0.49999999999999989 
7 1 0  2 5 3  7.5074992435723598 -0.0033701276522498701 3.4183196037914501  1 6.50078188514341 1.7403154860082299 4  1.03802697460136 5.6291651245988499 3.25 4  1 4.7575483640542897 4.7596845139917701 4  1.03802697460133 3.75083100562534 6.50337012765225 3.4183196037914501  1
 0 3 3.8111556583842301 2 7.6223113167684602 3
2 0 2.4492127076447501e-16 4 -0 6.12303176911189e-17 1 1 0 0 0 1 -6.12303176911189e-17 6.5
1 -7.0037500000000001 1.0847967080955499e-15 3.7091598018957299 -0.86602540378443882 7.5438862359041891e-17 -0.49999999999999989 
2 0 2.4492127076447501e-16 4 -0 6.12303176911189e-17 1 1 0 0 0 1 -6.12303176911189e-17 6.5
7 1 0  2 5 3  -3.7508310056253298 6.50337012765225 3.4183196037914501  1 -4.7575483640542897 4.7596845139917701 4  1.03802697460136 -5.6291651245988499 3.25 4  1 -6.5007818851434003 1.7403154860082399 4  1.03802697460134 -7.5074992435723598 -0.0033701276522455901 3.4183196037914501  1
 0 3 3.8111556583842301 2 7.6223113167684602 3
1 7.0037500000000001 -8.3987543733107499e-16 0.29084019810427397 0.86602540378443882 -7.5438862359041891e-17 0.49999999999999989 
2 0 0 0 -0 6.12303176911189e-17 1 1 0 0 0 1 -6.12303176911189e-17 6.5
7 1 0  2 5 3  3.75083100562534 6.50337012765225 0.58168039620854795  1 4.7575483640542897 4.7596845139917701 -9.7147965591812198e-17  1.03802697460135 5.6291651245988499 3.25 -4.2104313742116801e-16  1 6.50078188514341 1.7403154860082299 7.3851171410530205e-17  1.03802697460134 7.5074992435723598 -0.0033701276522528998 0.58168039620854795  1
 0 3 3.8111556583842301 2 7.62231131676847 3
1 -7.0037500000000001 8.7549191278562001e-16 0.29084019810427397 0.86602540378443882 -1.3666918005016099e-16 -0.49999999999999989 
7 1 0  2 5 3  -7.5074992435723598 -0.0033701276522467099 0.58168039620854795  1 -6.50078188514341 1.7403154860082299 2.4038462510430302e-16  1.03802697460134 -5.6291651245988499 3.25 -3.6553198618990998e-16  1 -4.7575483640542897 4.7596845139917701 3.5041069121020402e-16  1.03802697460133 -3.7508310056253298 6.50337012765225 0.58168039620854795  1
 0 3 3.8111556583842301 2 7.6223113167684602 3
2 0 0 0 -0 6.12303176911189e-17 1 1 0 0 0 1 -6.12303176911189e-17 6.5
7 1 0  2 5 3  3.75666823794703 -6.5 0.58168039620854906  1 1.7432335210891099 -6.5 3.84119277184458e-16  1.03802697460135 -1.5383701491068501e-15 -6.5 2.86974762529757e-16  1 -1.7432335210891099 -6.5 3.84119277184458e-16  1.03802697460133 -3.75666823794703 -6.5 0.58168039620854906  1
 0 3 3.8111556583842301 2 7.62231131676847 3
2 0 0 0 -0 6.12303176911189e-17 1 1 0 0 0 1 -6.12303176911189e-17 6.5
7 1 0  2 5 3  7.5074992435723598 0.0033701276522477399 0.58168039620854795  1 6.50078188514341 -1.7403154860082299 8.6636895256889902e-16  1.03802697460133 5.6291651245988499 -3.25 -2.3046072428894899e-17  1 4.7575483640542897 -4.7596845139917701 1.0894097938505499e-15  1.03802697460133 3.75083100562534 -6.50337012765225 0.58168039620854906  1
 0 3 3.8111556583842301 2 7.6223113167684602 3
7 1 0  2 5 3  -3.75083100562534 -6.50337012765225 0.58168039620854906  1 -4.7575483640543004 -4.7596845139917603 -5.6204695527937498e-16  1.03802697460133 -5.6291651245988499 -3.25 -2.3046072428895201e-17  1 -6.5007818851434003 -1.7403154860082399 -7.22637751425855e-16  1.03802697460132 -7.5074992435723704 0.0033701276522520199 0.58168039620854795  1
 0 3 3.8111556583842301 2 7.6223113167684602 3
2 0 0 0 -0 6.12303176911189e-17 1 1 0 0 0 1 -6.12303176911189e-17 6.5
7 1 0  2 5 3  3.75666823794703 -6.5 0.58168039620854906  1 1.7432335210891099 -6.5 3.84119277184458e-16  1.03802697460135 -1.5383701491068501e-15 -6.5 2.86974762529757e-16  1 -1.7432335210891099 -6.5 3.84119277184458e-16  1.03802697460133 -3.75666823794703 -6.5 0.58168039620854906  1
 0 3 3.8111556583842301 2 7.62231131676847 3
2 0 0 0 -0 6.12303176911189e-17 1 1 0 0 0 1 -6.12303176911189e-17 6.5
7 1 0  2 5 3  -3.75083100562534 -6.50337012765225 0.58168039620854906  1 -4.7575483640543004 -4.7596845139917603 -5.6204695527937498e-16  1.03802697460133 -5.6291651245988499 -3.25 -2.3046072428895201e-17  1 -6.5007818851434003 -1.7403154860082399 -7.22637751425855e-16  1.03802697460132 -7.5074992435723704 0.0033701276522520199 0.58168039620854795  1
 0 3 3.8111556583842301 2 7.6223113167684602 3
7 1 0  2 5 3  -7.5074992435723598 -0.0033701276522467099 0.58168039620854795  1 -6.50078188514341 1.7403154860082299 2.4038462510430302e-16  1.03802697460134 -5.6291651245988499 3.25 -3.6553198618990998e-16  1 -4.7575483640542897 4.7596845139917701 3.5041069121020402e-16  1.03802697460133 -3.7508310056253298 6.50337012765225 0.58168039620854795  1
 0 3 3.8111556583842301 2 7.6223113167684602 3
7 1 0  2 5 3  -3.75666823794703 6.5 0.58168039620854795  1 -1.7432335210891099 6.5 -8.6290295655405701e-16  1.03802697460134 0 6.5 -3.97997064992273e-16  1 1.7432335210891099 6.5 -8.6290295655405701e-16  1.03802697460134 3.75666823794703 6.5 0.58168039620854795  1
 0 3 3.8111556583842301 2 7.6223113167684602 3
2 0 0 0 -0 6.12303176911189e-17 1 1 0 0 0 1 -6.12303176911189e-17 6.5
7 1 0  2 5 3  -3.75666823794703 6.5 0.58168039620854795  1 -1.7432335210891099 6.5 -8.6290295655405701e-16  1.03802697460134 0 6.5 -3.97997064992273e-16  1 1.7432335210891099 6.5 -8.6290295655405701e-16  1.03802697460134 3.75666823794703 6.5 0.58168039620854795  1
 0 3 3.8111556583842301 2 7.6223113167684602 3
7 1 0  2 5 3  3.75083100562534 6.50337012765225 0.58168039620854795  1 4.7575483640542897 4.7596845139917701 -9.7147965591812198e-17  1.03802697460135 5.6291651245988499 3.25 -4.2104313742116801e-16  1 6.50078188514341 1.7403154860082299 7.3851171410530205e-17  1.03802697460134 7.5074992435723598 -0.0033701276522528998 0.58168039620854795  1
 0 3 3.8111556583842301 2 7.62231131676847 3
2 0 0 0 -0 6.12303176911189e-17 1 1 0 0 0 1 -6.12303176911189e-17 6.5
7 1 0  2 5 3  7.5074992435723598 0.0033701276522477399 0.58168039620854795  1 6.50078188514341 -1.7403154860082299 8.6636895256889902e-16  1.03802697460133 5.6291651245988499 -3.25 -2.3046072428894899e-17  1 4.7575483640542897 -4.7596845139917701 1.0894097938505499e-15  1.03802697460133 3.75083100562534 -6.50337012765225 0.58168039620854906  1
 0 3 3.8111556583842301 2 7.6223113167684602 3
2 0 0 0 -0 6.12303176911189e-17 1 1 0 0 0 1 -6.12303176911189e-17 6.5
7 1 0  2 5 3  -3.7508310056253298 6.50337012765225 3.4183196037914501  1 -4.7575483640542897 4.7596845139917701 4  1.03802697460136 -5.6291651245988499 3.25 4  1 -6.5007818851434003 1.7403154860082399 4  1.03802697460134 -7.5074992435723598 -0.0033701276522455901 3.4183196037914501  1
 0 3 3.8111556583842301 2 7.6223113167684602 3
2 0 2.4492127076447501e-16 4 -0 6.12303176911189e-17 1 1 0 0 0 1 -6.12303176911189e-17 6.5
7 1 0  2 5 3  3.75666823794703 6.5 3.4183196037914501  1 1.7432335210890999 6.5 4  1.03802697460134 0 6.5 4  1 -1.7432335210890999 6.5 4  1.03802697460134 -3.75666823794703 6.5 3.4183196037914501  1
 0 3 3.8111556583842301 2 7.6223113167684602 3
7 1 0  2 5 3  -7.5074992435723598 0.0033701276522498098 3.4183196037914501  1 -6.5007818851434003 -1.7403154860082399 4  1.03802697460134 -5.6291651245988499 -3.25 4  1 -4.7575483640543004 -4.7596845139917603 4  1.03802697460134 -3.75083100562534 -6.5033701276522402 3.4183196037914501  1
 0 3 3.8111556583842301 2 7.6223113167684504 3
2 0 2.4492127076447501e-16 4 -0 6.12303176911189e-17 1 1 0 0 0 1 -6.12303176911189e-17 6.5
7 1 0  2 5 3  -3.75666823794703 -6.5 3.4183196037914501  1 -1.7432335210891099 -6.5 4  1.03802697460134 -1.5383701491068501e-15 -6.5 4  1 1.7432335210891099 -6.5 4  1.03802697460135 3.75666823794703 -6.5 3.4183196037914501  1
 0 3 3.8111556583842301 2 7.6223113167684602 3
2 0 2.4492127076447501e-16 4 -0 6.12303176911189e-17 1 1 0 0 0 1 -6.12303176911189e-17 6.5
7 1 0  2 5 3  -7.5074992435723598 0.0033701276522498098 3.4183196037914501  1 -6.5007818851434003 -1.7403154860082399 4  1.03802697460134 -5.6291651245988499 -3.25 4  1 -4.7575483640543004 -4.7596845139917603 4  1.03802697460134 -3.75083100562534 -6.5033701276522402 3.4183196037914501  1
 0 3 3.8111556583842301 2 7.6223113167684504 3
7 1 0  2 5 3  -3.75666823794703 -6.5 3.4183196037914501  1 -1.7432335210891099 -6.5 4  1.03802697460134 -1.5383701491068501e-15 -6.5 4  1 1.7432335210891099 -6.5 4  1.03802697460135 3.75666823794703 -6.5 3.4183196037914501  1
 0 3 3.8111556583842301 2 7.6223113167684602 3
7 1 0  2 5 3  3.75083100562534 -6.50337012765225 3.4183196037914501  1 4.7575483640543004 -4.7596845139917603 4  1.03802697460135 5.6291651245988499 -3.25 4  1 6.5007818851434003 -1.7403154860082399 4  1.03802697460133 7.5074992435723598 0.0033701276522459999 3.4183196037914501  1
 0 3 3.8111556583842301 2 7.6223113167684504 3
2 0 2.4492127076447501e-16 4 -0 6.12303176911189e-17 1 1 0 0 0 1 -6.12303176911189e-17 6.5
2 0 2.4492127076447501e-16 4 -0 6.12303176911189e-17 1 1 0 0 0 1 -6.12303176911189e-17 6.5
7 1 0  2 5 3  3.75083100562534 -6.50337012765225 3.4183196037914501  1 4.7575483640543004 -4.7596845139917603 4  1.03802697460135 5.6291651245988499 -3.25 4  1 6.5007818851434003 -1.7403154860082399 4  1.03802697460133 7.5074992435723598 0.0033701276522459999 3.4183196037914501  1
 0 3 3.8111556583842301 2 7.6223113167684504 3
7 1 0  2 5 3  7.5074992435723598 -0.0033701276522498701 3.4183196037914501  1 6.50078188514341 1.7403154860082299 4  1.03802697460136 5.6291651245988499 3.25 4  1 4.7575483640542897 4.7596845139917701 4  1.03802697460133 3.75083100562534 6.50337012765225 3.4183196037914501  1
 0 3 3.8111556583842301 2 7.6223113167684602 3
7 1 0  2 5 3  3.75666823794703 6.5 3.4183196037914501  1 1.7432335210890999 6.5 4  1.03802697460134 0 6.5 4  1 -1.7432335210890999 6.5 4  1.03802697460134 -3.75666823794703 6.5 3.4183196037914501  1
 0 3 3.8111556583842301 2 7.6223113167684602 3
2 0 2.4492127076447501e-16 4 -0 6.12303176911189e-17 1 1 0 0 0 1 -6.12303176911189e-17 6.5
2 0 2.4492127076447501e-16 4 -0 6.12303176911189e-17 1 1 0 0 0 1 -6.12303176911189e-17 4
2 0 2.1178036131415699e-16 3.4587500000000002 -0 6.12303176911189e-17 1 1 0 0 0 1 -6.12303176911189e-17 3.4587500000000002
2 0 3.3140909450318101e-17 0.54125000000000001 -0 6.12303176911189e-17 1 1 0 0 0 1 -6.12303176911189e-17 3.4587500000000002
2 0 0 0 -0 6.12303176911189e-17 1 1 0 0 0 1 -6.12303176911189e-17 4
1 -3.7527767497325701 -6.5 -1 0 6.12303176911189e-17 1 
1 -7.5055534994651296 1.31748713619622e-15 -1 0 6.12303176911189e-17 1 
1 3.7527767497325701 -6.5 -1 0 6.12303176911189e-17 1 
1 7.5055534994651296 -5.2081292113857798e-16 -1 0 6.12303176911189e-17 1 
1 -3.7527767497325599 6.5 -1 0 6.12303176911189e-17 1 
1 3.7527767497325701 6.5 -1 0 6.12303176911189e-17 1 
Polygon3D 0
PolygonOnTriangulations 0
Surfaces 30
3 0 1.6570454725159001e-17 0.270625 0 -6.12303176911189e-17 -1 1 0 0 0 -1 6.12303176911189e-17 3.7293750000000001
0.78539816339744795
2 0 1.22460635382238e-16 2 -0 6.12303176911189e-17 1 1 0 0 0 1 -6.12303176911189e-17 3.4587500000000002
3 0 1.6570454725159001e-17 0.270625 0 -6.12303176911189e-17 -1 1 0 0 0 -1 6.12303176911189e-17 3.7293750000000001
0.78539816339744795
1 5.25 0 0 -0 -6.12303176911189e-17 -1 -1 0 0 0 1 -6.12303176911189e-17 
3 0 2.2835081603931601e-16 3.7293750000000001 -0 6.12303176911189e-17 1 1 0 0 0 1 -6.12303176911189e-17 3.7293750000000001
0.78539816339744795
2 0 1.22460635382238e-16 2 -0 6.12303176911189e-17 1 1 0 0 0 1 -6.12303176911189e-17 3.4587500000000002
1 5.25 2.4492127076447501e-16 4 -0 6.12303176911189e-17 1 1 0 0 0 1 -6.12303176911189e-17 
3 0 2.2835081603931601e-16 3.7293750000000001 -0 6.12303176911189e-17 1 1 0 0 0 1 -6.12303176911189e-17 3.7293750000000001
0.78539816339744795
3 0 2.2711303303720299e-16 3.7091598018957299 0 -6.12303176911189e-17 -1 1 0 0 0 -1 6.12303176911189e-17 7.0037500000000001
1.0471975511966001
3 0 2.2711303303720299e-16 3.7091598018957299 0 -6.12303176911189e-17 -1 1 0 0 0 -1 6.12303176911189e-17 7.0037500000000001
1.0471975511966001
1 5.6291651245988499 3.25 -1 0.86602540378443882 0.49999999999999989 -3.0615158845559394e-17 -0.49999999999999989 0.86602540378443882 -5.3027010602300679e-17 -2.4651903288156613e-32 6.1230317691118851e-17 1 
3 0 2.2711303303720299e-16 3.7091598018957299 0 -6.12303176911189e-17 -1 1 0 0 0 -1 6.12303176911189e-17 7.0037500000000001
1.0471975511966001
3 0 2.2711303303720299e-16 3.7091598018957299 0 -6.12303176911189e-17 -1 1 0 0 0 -1 6.12303176911189e-17 7.0037500000000001
1.0471975511966001
1 -5.6291651245988499 3.25 -1 -0.86602540378443849 0.50000000000000033 -3.0615158845559419e-17 -0.50000000000000033 -0.86602540378443849 5.3027010602300741e-17 7.0874221953450279e-32 6.1230317691118925e-17 1 
3 0 1.7808237727272599e-17 0.29084019810427397 -0 6.12303176911189e-17 1 1 0 0 0 1 -6.12303176911189e-17 7.0037500000000001
1.0471975511966001
3 0 1.7808237727272599e-17 0.29084019810427397 -0 6.12303176911189e-17 1 1 0 0 0 1 -6.12303176911189e-17 7.0037500000000001
1.0471975511966001
3 0 1.7808237727272599e-17 0.29084019810427397 -0 6.12303176911189e-17 1 1 0 0 0 1 -6.12303176911189e-17 7.0037500000000001
1.0471975511966001
3 0 1.7808237727272599e-17 0.29084019810427397 -0 6.12303176911189e-17 1 1 0 0 0 1 -6.12303176911189e-17 7.0037500000000001
1.0471975511966001
3 0 1.7808237727272599e-17 0.29084019810427397 -0 6.12303176911189e-17 1 1 0 0 0 1 -6.12303176911189e-17 7.0037500000000001
1.0471975511966001
1 -2.2204460492503099e-15 -6.5 -1 -2.3667233063182299e-16 -1 6.12303176911189e-17 1 -2.3667233063182299e-16 1.4491521993284101e-32 -4.926439913641935e-47 6.12303176911189e-17 1 
1 5.6291651245988499 -3.25 -1 0.86602540378443882 -0.49999999999999989 3.0615158845559394e-17 0.49999999999999989 0.86602540378443882 -5.3027010602300679e-17 2.4651903288156613e-32 6.1230317691118851e-17 1 
3 0 1.7808237727272599e-17 0.29084019810427397 -0 6.12303176911189e-17 1 1 0 0 0 1 -6.12303176911189e-17 7.0037500000000001
1.0471975511966001
1 -5.6291651245988499 -3.25 -1 -0.86602540378443882 -0.49999999999999989 3.0615158845559394e-17 0.49999999999999989 -0.86602540378443882 5.3027010602300679e-17 -2.4651903288156613e-32 6.1230317691118851e-17 1 
3 0 1.7808237727272599e-17 0.29084019810427397 -0 6.12303176911189e-17 1 1 0 0 0 1 -6.12303176911189e-17 7.0037500000000001
1.0471975511966001
1 1.33226762955019e-15 6.5 -1 0 1 -6.12303176911189e-17 -1 0 0 0 6.12303176911189e-17 1 
3 0 1.7808237727272599e-17 0.29084019810427397 -0 6.12303176911189e-17 1 1 0 0 0 1 -6.12303176911189e-17 7.0037500000000001
1.0471975511966001
3 0 2.2711303303720299e-16 3.7091598018957299 0 -6.12303176911189e-17 -1 1 0 0 0 -1 6.12303176911189e-17 7.0037500000000001
1.0471975511966001
3 0 2.2711303303720299e-16 3.7091598018957299 0 -6.12303176911189e-17 -1 1 0 0 0 -1 6.12303176911189e-17 7.0037500000000001
1.0471975511966001
3 0 2.2711303303720299e-16 3.7091598018957299 0 -6.12303176911189e-17 -1 1 0 0 0 -1 6.12303176911189e-17 7.0037500000000001
1.0471975511966001
3 0 2.2711303303720299e-16 3.7091598018957299 0 -6.12303176911189e-17 -1 1 0 0 0 -1 6.12303176911189e-17 7.0037500000000001
1.0471975511966001
Triangulations 0

TShapes 164
Ve
1e-07
-3.45875 4.56701632078633e-16 0.54125
0 0

0101101
*
Ve
1e-07
3.45875 3.31409094503181e-17 0.54125
0 0

0101101
*
Ed
 1e-07 1 1 0
1  1 0 3.14159265358979 6.28318530717959
2  1 1 0 3.14159265358979 6.28318530717959
2  2 2 0 3.14159265358979 6.28318530717959
4 C0 1 0 2 0
0

0101000
+164 0 -163 0 *
Ve
1e-07
-4 4.89842541528951e-16 -2.99932144364427e-32
0 0

0101101
*
Ed
 1e-07 1 1 0
1  2 0 -0.382721545317219 0.382721545317219
2  3 1 0 -0.382721545317219 0.382721545317219
2  4 3 0 -0.382721545317219 0.382721545317219
4 CN 1 0 3 0
0

0101000
+164 0 -161 0 *
Ve
1e-07
4 0 0
0 0

0101101
*
Ed
 1e-07 1 1 0
1  3 0 3.14159265358979 6.28318530717959
2  5 1 0 3.14159265358979 6.28318530717959
4 C0 1 0 4 0
0

0101000
+161 0 -159 0 *
Ed
 1e-07 1 1 0
1  4 0 -0.382721545317219 0.382721545317219
2  6 1 0 -0.382721545317219 0.382721545317219
2  7 3 0 -0.382721545317219 0.382721545317219
4 CN 1 0 3 0
0

0101000
+159 0 -163 0 *
Wi

0101100
-162 0 +160 0 +158 0 +157 0 *
Fa
0  1e-07 1 0

0111000
+156 0 *
Ve
1e-07
-3.45875 6.35341083942472e-16 3.45875
0 0

0101101
*
Ve
1e-07
3.45875 2.11780361314157e-16 3.45875
0 0

0101101
*
Ed
 1e-07 1 1 0
1  5 0 3.14159265358979 6.28318530717959
2  8 2 0 3.14159265358979 6.28318530717959
2  9 5 0 3.14159265358979 6.28318530717959
4 C0 2 0 5 0
0

0101000
+154 0 -153 0 *
Ed
 1e-07 1 1 0
1  6 0 -1.45875 1.45875
2  10 2 0 -1.45875 1.45875
2  11 6 0 -1.45875 1.45875
4 CN 2 0 6 0
0

0101000
+154 0 -164 0 *
Ed
 1e-07 1 1 0
1  7 0 -1.45875 1.45875
2  12 2 0 -1.45875 1.45875
2  13 6 0 -1.45875 1.45875
4 CN 2 0 6 0
0

0101000
+163 0 -153 0 *
Wi

0101100
-152 0 +151 0 +162 0 +150 0 *
Fa
0  1e-07 2 0

0111000
+149 0 *
Ve
1e-07
-4 7.34763812293426e-16 4
0 0

0101101
*
Ve
1e-07
4 2.44921270764475e-16 4
0 0

0101101
*
Ed
 1e-07 1 1 0
1  8 0 3.14159265358979 6.28318530717959
2  14 5 0 3.14159265358979 6.28318530717959
4 C0 5 0 7 0
0

0101000
+147 0 -146 0 *
Ed
 1e-07 1 1 0
1  9 0 -0.382721545317219 0.382721545317219
2  15 5 0 -0.382721545317219 0.382721545317219
2  16 8 0 -0.382721545317219 0.382721545317219
4 CN 5 0 8 0
0

0101000
+147 0 -154 0 *
Ed
 1e-07 1 1 0
1  10 0 -0.382721545317219 0.382721545317219
2  17 5 0 -0.382721545317219 0.382721545317219
2  18 8 0 -0.382721545317219 0.382721545317219
4 CN 5 0 8 0
0

0101000
+153 0 -146 0 *
Wi

0101100
-145 0 +144 0 +152 0 +143 0 *
Fa
0  1e-07 5 0

0111000
+142 0 *
Ve
1e-07
7.50555349946513 -2.5020899673453e-16 3.41944341639924
0 0

0101101
*
Ve
1e-07
6.5 -5.5107285922007e-16 4
0 0

0101101
*
Ed
 1e-07 1 1 0
1  11 0 -0.579432770992978 0.581680396208546
2  19 9 0 -0.579432770992978 0.581680396208546
2  20 10 0 -0.579432770992978 0.581680396208546
4 CN 9 0 10 0
0

0101000
+140 0 -139 0 *
Ve
1e-07
5.62916512459885 3.25 4
0 0

0101101
*
Ed
 1e-07 1 1 0
1  12 0 0.00354868867272961 3.81115565838423
2  21 9 0 0.00354868867272961 3.81115565838423
4 C0 9 0 11 0
0

0101000
+140 0 -137 0 *
Ed
 1e-07 1 1 0
1  13 0 0 0.523598775598299
2  22 9 0 0 0.523598775598299
4 C0 9 0 7 0
0

0101000
+139 0 -137 0 *
Wi

0101100
-138 0 +136 0 -135 0 *
Fa
0  1e-07 9 0

0111000
+134 0 *
Ve
1e-07
-6.5 1.04091540074902e-15 4
0 0

0101101
*
Ve
1e-07
-7.50555349946513 1.58809106060027e-15 3.41944341639924
0 0

0101101
*
Ed
 1e-07 1 1 0
1  14 0 -0.581680396208546 0.579432770992978
2  23 12 0 -0.581680396208546 0.579432770992978
2  24 13 0 -0.581680396208546 0.579432770992978
4 CN 12 0 13 0
0

0101000
+132 0 -131 0 *
Ve
1e-07
-5.62916512459885 3.25 4
0 0

0101101
*
Ed
 1e-07 1 1 0
1  15 0 2.61799387799149 3.14159265358979
2  25 12 0 2.61799387799149 3.14159265358979
4 C0 12 0 7 0
0

0101000
+129 0 -132 0 *
Ed
 1e-07 1 1 0
1  16 0 3.81115565838423 7.61876262809573
2  26 12 0 3.81115565838423 7.61876262809573
4 C0 12 0 14 0
0

0101000
+129 0 -131 0 *
Wi

0101100
-130 0 -128 0 +127 0 *
Fa
0  1e-07 12 0

0111000
+126 0 *
Ve
1e-07
6.5 -7.95994129984546e-16 2.41169464433514e-32
0 0

0101101
*
Ve
1e-07
7.50555349946513 -4.24034939395914e-16 0.580556583600765
0 0

0101101
*
Ed
 1e-07 1 1 0
1  17 0 -0.581680396208548 0.579432770992979
2  27 15 0 -0.581680396208548 0.579432770992979
2  28 16 0 -0.581680396208548 0.579432770992979
4 CN 15 0 16 0
0

0101000
+124 0 -123 0 *
Ve
1e-07
5.62916512459885 3.25 -1.98998532496136e-16
0 0

0101101
*
Ed
 1e-07 1 1 0
1  18 0 0 0.523598775598299
2  29 15 0 0 0.523598775598299
4 C0 15 0 4 0
0

0101000
+124 0 -121 0 *
Ed
 1e-07 1 1 0
1  19 0 3.81115565838423 7.61876262809574
2  30 15 0 3.81115565838423 7.61876262809574
4 C0 15 0 11 0
0

0101000
+121 0 -123 0 *
Wi

0101100
-122 0 +120 0 +119 0 *
Fa
0  1e-07 15 0

0111000
+118 0 *
Ve
1e-07
-7.50555349946513 1.41426511793888e-15 0.580556583600765
0 0

0101101
*
Ve
1e-07
-6.5 7.95994129984545e-16 -2.41169464433514e-32
0 0

0101101
*
Ed
 1e-07 1 1 0
1  20 0 -0.579432770992979 0.581680396208548
2  31 17 0 -0.579432770992979 0.581680396208548
2  32 18 0 -0.579432770992979 0.581680396208548
4 CN 17 0 18 0
0

0101000
+116 0 -115 0 *
Ve
1e-07
-5.62916512459885 3.25 -1.98998532496136e-16
0 0

0101101
*
Ed
 1e-07 1 1 0
1  21 0 0.00354868867272659 3.81115565838423
2  33 17 0 0.00354868867272659 3.81115565838423
4 C0 17 0 14 0
0

0101000
+116 0 -113 0 *
Ed
 1e-07 1 1 0
1  22 0 2.61799387799149 3.14159265358979
2  34 17 0 2.61799387799149 3.14159265358979
4 C0 17 0 4 0
0

0101000
+113 0 -115 0 *
Wi

0101100
-114 0 +112 0 +111 0 *
Fa
0  1e-07 17 0

0111000
+110 0 *
Ve
1e-07
3.75277674973257 -6.5 0.580556583600765
0 0

0101101
*
Ve
1e-07
-1.53837014910685e-15 -6.5 3.97997064992273e-16
0 0

0101101
*
Ed
 1e-07 1 1 0
1  23 0 0.00354868867272825 3.81115565838423
2  35 19 0 0.00354868867272825 3.81115565838423
4 C0 19 0 20 0
0

0101000
+108 0 -107 0 *
Ve
1e-07
5.62916512459885 -3.25 1.98998532496136e-16
0 0

0101101
*
Ed
 1e-07 1 1 0
1  24 0 4.71238898038469 5.75958653158129
2  36 19 0 4.71238898038469 5.75958653158129
4 C0 19 0 4 0
0

0101000
+107 0 -105 0 *
Ed
 1e-07 1 1 0
1  25 0 3.81115565838423 7.61876262809573
2  37 19 0 3.81115565838423 7.61876262809573
4 C0 19 0 21 0
0

0101000
+105 0 -108 0 *
Wi

0101100
+106 0 +104 0 +103 0 *
Fa
0  1e-07 19 0

0111000
+102 0 *
Ve
1e-07
-3.75277674973257 -6.5 0.580556583600766
0 0

0101101
*
Ve
1e-07
-5.62916512459885 -3.25 1.98998532496136e-16
0 0

0101101
*
Ed
 1e-07 1 1 0
1  26 0 0.00354868867272776 3.81115565838423
2  38 22 0 0.00354868867272776 3.81115565838423
4 C0 22 0 23 0
0

0101000
+100 0 -99 0 *
Ed
 1e-07 1 1 0
1  27 0 3.66519142918809 4.71238898038469
2  39 22 0 3.66519142918809 4.71238898038469
4 C0 22 0 4 0
0

0101000
+99 0 -107 0 *
Ed
 1e-07 1 1 0
1  28 0 3.81115565838423 7.61876262809574
2  40 22 0 3.81115565838423 7.61876262809574
4 C0 22 0 20 0
0

0101000
+107 0 -100 0 *
Wi

0101100
+98 0 +97 0 +96 0 *
Fa
0  1e-07 22 0

0111000
+95 0 *
Ed
 1e-07 1 1 0
1  29 0 3.14159265358979 3.66519142918809
2  41 18 0 3.14159265358979 3.66519142918809
4 C0 18 0 4 0
0

0101000
+115 0 -99 0 *
Ed
 1e-07 1 1 0
1  30 0 3.81115565838423 7.61876262809573
2  42 18 0 3.81115565838423 7.61876262809573
4 C0 18 0 23 0
0

0101000
+99 0 -116 0 *
Wi

0101100
+114 0 +93 0 +92 0 *
Fa
0  1e-07 18 0

0111000
+91 0 *
Ve
1e-07
-3.75277674973256 6.5 0.580556583600764
0 0

0101101
*
Ed
 1e-07 1 1 0
1  31 0 3.81115565838423 7.61876262809573
2  43 24 0 3.81115565838423 7.61876262809573
4 C0 24 0 14 0
0

0101000
+113 0 -89 0 *
Ve
1e-07
0 6.5 -3.97997064992273e-16
0 0

0101101
*
Ed
 1e-07 1 1 0
1  32 0 0.00354868867273661 3.81115565838423
2  44 24 0 0.00354868867273661 3.81115565838423
4 C0 24 0 25 0
0

0101000
+89 0 -87 0 *
Ed
 1e-07 1 1 0
1  33 0 1.5707963267949 2.61799387799149
2  45 24 0 1.5707963267949 2.61799387799149
4 C0 24 0 4 0
0

0101000
+87 0 -113 0 *
Wi

0101100
+88 0 +86 0 +85 0 *
Fa
0  1e-07 24 0

0111000
+84 0 *
Ve
1e-07
3.75277674973257 6.5 0.580556583600765
0 0

0101101
*
Ed
 1e-07 1 1 0
1  34 0 3.81115565838423 7.61876262809573
2  46 26 0 3.81115565838423 7.61876262809573
4 C0 26 0 25 0
0

0101000
+87 0 -82 0 *
Ed
 1e-07 1 1 0
1  35 0 0.00354868867272793 3.81115565838423
2  47 26 0 0.00354868867272793 3.81115565838423
4 C0 26 0 11 0
0

0101000
+82 0 -121 0 *
Ed
 1e-07 1 1 0
1  36 0 0.523598775598299 1.5707963267949
2  48 26 0 0.523598775598299 1.5707963267949
4 C0 26 0 4 0
0

0101000
+121 0 -87 0 *
Wi

0101100
+81 0 +80 0 +79 0 *
Fa
0  1e-07 26 0

0111000
+78 0 *
Ed
 1e-07 1 1 0
1  37 0 0.00354868867272625 3.81115565838423
2  49 16 0 0.00354868867272625 3.81115565838423
4 C0 16 0 21 0
0

0101000
+123 0 -105 0 *
Ed
 1e-07 1 1 0
1  38 0 5.75958653158129 6.28318530717959
2  50 16 0 5.75958653158129 6.28318530717959
4 C0 16 0 4 0
0

0101000
+105 0 -124 0 *
Wi

0101100
+122 0 +76 0 +75 0 *
Fa
0  1e-07 16 0

0111000
+74 0 *
Ve
1e-07
-3.75277674973256 6.5 3.41944341639924
0 0

0101101
*
Ed
 1e-07 1 1 0
1  39 0 0.00354868867272968 3.81115565838423
2  51 27 0 0.00354868867272968 3.81115565838423
4 C0 27 0 14 0
0

0101000
+72 0 -129 0 *
Ve
1e-07
0 6.5 4
0 0

0101101
*
Ed
 1e-07 1 1 0
1  40 0 1.5707963267949 2.61799387799149
2  52 27 0 1.5707963267949 2.61799387799149
4 C0 27 0 7 0
0

0101000
+70 0 -129 0 *
Ed
 1e-07 1 1 0
1  41 0 3.81115565838423 7.61876262809572
2  53 27 0 3.81115565838423 7.61876262809572
4 C0 27 0 25 0
0

0101000
+70 0 -72 0 *
Wi

0101100
+71 0 -69 0 +68 0 *
Fa
0  1e-07 27 0

0111000
+67 0 *
Ve
1e-07
-5.62916512459885 -3.25 4
0 0

0101101
*
Ed
 1e-07 1 1 0
1  42 0 0.0035486886727285 3.81115565838423
2  54 13 0 0.0035486886727285 3.81115565838423
4 C0 13 0 23 0
0

0101000
+131 0 -65 0 *
Ed
 1e-07 1 1 0
1  43 0 3.14159265358979 3.66519142918809
2  55 13 0 3.14159265358979 3.66519142918809
4 C0 13 0 7 0
0

0101000
+132 0 -65 0 *
Wi

0101100
+130 0 +64 0 -63 0 *
Fa
0  1e-07 13 0

0111000
+62 0 *
Ve
1e-07
-3.75277674973257 -6.5 3.41944341639923
0 0

0101101
*
Ve
1e-07
-1.53837014910685e-15 -6.5 4
0 0

0101101
*
Ed
 1e-07 1 1 0
1  44 0 0.00354868867272743 3.81115565838423
2  56 28 0 0.00354868867272743 3.81115565838423
4 C0 28 0 20 0
0

0101000
+60 0 -59 0 *
Ed
 1e-07 1 1 0
1  45 0 3.66519142918809 4.71238898038469
2  57 28 0 3.66519142918809 4.71238898038469
4 C0 28 0 7 0
0

0101000
+65 0 -59 0 *
Ed
 1e-07 1 1 0
1  46 0 3.81115565838423 7.61876262809573
2  58 28 0 3.81115565838423 7.61876262809573
4 C0 28 0 23 0
0

0101000
+65 0 -60 0 *
Wi

0101100
+58 0 -57 0 +56 0 *
Fa
0  1e-07 28 0

0111000
+55 0 *
Ve
1e-07
3.75277674973257 -6.5 3.41944341639924
0 0

0101101
*
Ed
 1e-07 1 1 0
1  47 0 3.81115565838423 7.61876262809573
2  59 29 0 3.81115565838423 7.61876262809573
4 C0 29 0 20 0
0

0101000
+59 0 -53 0 *
Ve
1e-07
5.62916512459885 -3.25 4
0 0

0101101
*
Ed
 1e-07 1 1 0
1  48 0 0.00354868867272972 3.81115565838423
2  60 29 0 0.00354868867272972 3.81115565838423
4 C0 29 0 21 0
0

0101000
+53 0 -51 0 *
Ed
 1e-07 1 1 0
1  49 0 4.71238898038469 5.75958653158129
2  61 29 0 4.71238898038469 5.75958653158129
4 C0 29 0 7 0
0

0101000
+59 0 -51 0 *
Wi

0101100
+52 0 +50 0 -49 0 *
Fa
0  1e-07 29 0

0111000
+48 0 *
Ed
 1e-07 1 1 0
1  50 0 5.75958653158129 6.28318530717959
2  62 10 0 5.75958653158129 6.28318530717959
4 C0 10 0 7 0
0

0101000
+51 0 -139 0 *
Ed
 1e-07 1 1 0
1  51 0 3.81115565838423 7.61876262809572
2  63 10 0 3.81115565838423 7.61876262809572
4 C0 10 0 21 0
0

0101000
+51 0 -140 0 *
Wi

0101100
+138 0 -46 0 +45 0 *
Fa
0  1e-07 10 0

0111000
+44 0 *
Ve
1e-07
3.75277674973257 6.5 3.41944341639923
0 0

0101101
*
Ed
 1e-07 1 1 0
1  52 0 3.81115565838423 7.61876262809573
2  64 30 0 3.81115565838423 7.61876262809573
4 C0 30 0 11 0
0

0101000
+137 0 -42 0 *
Ed
 1e-07 1 1 0
1  53 0 0.00354868867272741 3.81115565838423
2  65 30 0 0.00354868867272741 3.81115565838423
4 C0 30 0 25 0
0

0101000
+42 0 -70 0 *
Ed
 1e-07 1 1 0
1  54 0 0.523598775598299 1.5707963267949
2  66 30 0 0.523598775598299 1.5707963267949
4 C0 30 0 7 0
0

0101000
+137 0 -70 0 *
Wi

0101100
+41 0 +40 0 -39 0 *
Fa
0  1e-07 30 0

0111000
+38 0 *
Ed
 1e-07 1 1 0
1  55 0 0 3.14159265358979
2  67 8 0 0 3.14159265358979
4 C0 7 0 8 0
0

0101000
+146 0 -147 0 *
Wi

0101100
-36 0 -145 0 *
Wi

0101100
+46 0 +135 0 +39 0 +69 0 +128 0 +63 0 +57 0 +49 0 *
Fa
0  1e-07 7 0

0111000
+35 0 +34 0 *
Ed
 1e-07 1 1 0
1  56 0 0 3.14159265358979
2  68 8 0 0 3.14159265358979
2  69 6 0 0 3.14159265358979
4 C0 8 0 6 0
0

0101000
+153 0 -154 0 *
Wi

0101100
+32 0 -144 0 -36 0 -143 0 *
Fa
0  1e-07 8 0

0111000
+31 0 *
Ed
 1e-07 1 1 0
1  57 0 0 3.14159265358979
2  70 6 0 0 3.14159265358979
2  71 3 0 0 3.14159265358979
4 C0 6 0 3 0
0

0101000
+163 0 -164 0 *
Wi

0101100
+29 0 -151 0 -32 0 -150 0 *
Fa
0  1e-07 6 0

0111000
+28 0 *
Ed
 1e-07 1 1 0
1  58 0 0 3.14159265358979
2  72 3 0 0 3.14159265358979
4 C0 3 0 4 0
0

0101000
+159 0 -161 0 *
Wi

0101100
+26 0 -160 0 -29 0 -157 0 *
Fa
0  1e-07 3 0

0111000
+25 0 *
Wi

0101100
-75 0 -104 0 -97 0 -93 0 -111 0 -85 0 -79 0 -120 0 *
Wi

0101100
+26 0 +158 0 *
Fa
0  1e-07 4 0

0111000
+23 0 +22 0 *
Ed
 1e-07 1 1 0
1  59 0 1.58055658360077 4.41944341639923
4 C0 23 0 20 0
0

0101000
+100 0 -60 0 *
Ed
 1e-07 1 1 0
1  60 0 1.58055658360077 4.41944341639924
4 C0 23 0 14 0
0

0101000
+116 0 -131 0 *
Wi

0101100
-92 0 -98 0 +20 0 -56 0 -64 0 -19 0 *
Fa
0  1e-07 23 0

0111000
+18 0 *
Ed
 1e-07 1 1 0
1  61 0 1.58055658360077 4.41944341639924
4 C0 20 0 21 0
0

0101000
+108 0 -53 0 *
Wi

0101100
-96 0 -106 0 +16 0 -52 0 -58 0 -20 0 *
Fa
0  1e-07 20 0

0111000
+15 0 *
Ed
 1e-07 1 1 0
1  62 0 1.58055658360077 4.41944341639924
4 C0 21 0 11 0
0

0101000
+123 0 -140 0 *
Wi

0101100
-103 0 -76 0 +13 0 -45 0 -50 0 -16 0 *
Fa
0  1e-07 21 0

0111000
+12 0 *
Ed
 1e-07 1 1 0
1  63 0 1.58055658360076 4.41944341639924
4 C0 14 0 25 0
0

0101000
+89 0 -72 0 *
Wi

0101100
-112 0 +19 0 -127 0 -71 0 -10 0 -88 0 *
Fa
0  1e-07 14 0

0111000
+9 0 *
Ed
 1e-07 1 1 0
1  64 0 1.58055658360077 4.41944341639923
4 C0 25 0 11 0
0

0101000
+82 0 -42 0 *
Wi

0101100
-86 0 +10 0 -68 0 -40 0 -7 0 -81 0 *
Fa
0  1e-07 25 0

0111000
+6 0 *
Wi

0101100
-80 0 +7 0 -41 0 -136 0 -13 0 -119 0 *
Fa
0  1e-07 11 0

0111000
+4 0 *
Sh

0101100
-155 0 -148 0 -141 0 +133 0 +125 0 +117 0 +109 0 +101 0 +94 0 +90 0 
+83 0 +77 0 +73 0 +66 0 +61 0 +54 0 +47 0 +43 0 +37 0 +33 0 
-30 0 -27 0 -24 0 +21 0 +17 0 +14 0 +11 0 +8 0 +5 0 +3 0 
*
So

0100000
+2 0 *

+1 0 