DBRep_DrawableShape

CASCADE Topology V1, (c) Matra-Datavision
Locations 0
Curve2ds 72
1 6.2831853071795862 -0.15308861812688757 -1 0 
1 0 -0.58350000000000002 1 0 
1 3.1415926535897931 0 0 1 
1 3.1415926535897931 0 0 1 
1 6.2831853071795862 0.15308861812688751 -1 0 
1 0 5.5511151231257827e-17 0 -1 
1 6.2831853071795862 5.5511151231257827e-17 0 -1 
1 0 0.58349999999999991 1 0 
1 0 -0.15308861812688757 1 0 
1 3.1415926535897931 0 0 -1 
1 3.1415926535897931 0 0 -1 
1 6.2831853071795862 0 0 1 
1 0 0 0 1 
1 0 0.15308861812688765 1 0 
1 3.1415926535897931 2.7755575615628914e-17 0 -1 
1 3.1415926535897931 2.7755575615628914e-17 0 -1 
1 6.2831853071795862 0 0 1 
1 0 0 0 1 
1 6.2831853071795862 5.5511151231257827e-17 0 -1 
1 0 5.5511151231257827e-17 0 -1 
7 0 0  3 25 23  6.2831853071795862 0.17828700645937501  6.2758868504764269 0.16705058831197137  6.2612227562240879 0.14518344625363702  6.2390279315978185 0.11415554935035606  6.2166371865617585 0.084854730392303457  6.1940536215370541 0.057240402138764961  6.171280562550943 0.03127512615116098  6.1483215948205947 0.0069249460882335068  6.1251805565364021 -0.015840882060969421  6.1018615424590505 -0.037049976919769252  6.078368903985349 -0.056726947710597261  6.0547072492106269 -0.074893483617725076  6.0308814419977326 -0.09156843237179757  6.0068966002776572 -0.10676786457320098  5.9827580934846951 -0.12050512531690893  5.9584715391248526 -0.13279087311652976  5.934042798440518 -0.14363310666137211  5.9094779712095145 -0.15303717870698394  5.8847833894820418 -0.16100580015844249  5.8599656109555296 -0.16753902297093898  5.8350314093702007 -0.17263424383724663  5.8099877717175206 -0.17628607103935767  5.7848418657709129 -0.17848664119838856  5.7680146980630127 -0.17897834314860114  5.759586531581288 -0.17897858344878098 
 0.0010919042069912799 4 0.054345148538620769 1 0.10759839287025025 1 0.16085163720187975 1 0.21410488153350923 1 0.26735812586513874 1 0.32061137019676822 1 0.3738646145283977 1 0.42711785886002718 1 0.48037110319165666 1 0.53362434752328614 1 0.58687759185491561 1 0.64013083618654509 1 0.69338408051817457 1 0.74663732484980405 1 0.79989056918143353 1 0.85314381351306301 1 0.90639705784469249 1 0.95965030217632197 1 1.0129035465079514 1 1.066156790839581 1 1.1194100351712104 1 1.17266327950284 4
1 6.2831853071795862 -0.17897858344878287 -1 0 
1 3.1415926535897931 1.6653345369377348e-16 0 1 
1 3.1415926535897931 1.6653345369377348e-16 0 1 
1 6.2831853071795862 -0.17897858344878287 -1 0 
7 0 0  3 25 23  3.6651914291880909 -0.17897858344878059  3.6567632627063666 -0.17897834314860109  3.6399360949984656 -0.17848664119838845  3.6147901890518574 -0.17628607103935598  3.58974655139918 -0.17263424383724549  3.5648123498138484 -0.16753902297093592  3.5399945712873371 -0.16100580015844052  3.5152999895598627 -0.15303717870698103  3.4907351623288618 -0.14363310666136889  3.4663064216445245 -0.1327908731165259  3.4420198672846847 -0.12050512531690499  3.4178813604917195 -0.10676786457319747  3.3938965187716454 -0.091568432371793393  3.3700707115587494 -0.074893483617722231  3.3464090567840281 -0.056726947710591946  3.3229164183103279 -0.037049976919766331  3.2995974042329754 -0.015840882060965181  3.2764563659487833 0.0069249460882367143  3.2534973982184359 0.03127512615116506  3.2307243392323235 0.057240402138768062  3.2081407742076196 0.0848547303923054  3.1857500291715608 0.11415554935035677  3.1635552045452924 0.1451834462536386  3.1488911102929524 0.16705058831197228  3.1415926535897931 0.17828700645937501 
 1.17266327950284 4 1.2259165238344696 1 1.279169768166099 1 1.3324230124977285 1 1.3856762568293579 1 1.4389295011609875 1 1.4921827454926169 1 1.5454359898242465 1 1.5986892341558758 1 1.6519424784875054 1 1.705195722819135 1 1.7584489671507644 1 1.8117022114823937 1 1.8649554558140233 1 1.9182087001456529 1 1.9714619444772823 1 2.0247151888089117 1 2.0779684331405415 1 2.1312216774721708 1 2.1844749218038002 1 2.2377281661354296 1 2.2909814104670589 1 2.3442346547986888 4
1 0 8.3266726846886741e-17 0 1 
1 6.2831853071795862 8.3266726846886741e-17 0 1 
1 0 -0.17897858344878381 1 -3.710647128374107e-16 
7 0 0  3 25 23  0.52359877559829826 -0.17897858344878151  0.51517060911657442 -0.17897834314860248  0.49834344140867159 -0.17848664119839025  0.47319753546206567 -0.17628607103935789  0.44815389780938464 -0.1726342438372476  0.42321969622405931 -0.16753902297093945  0.39840191769754441 -0.16100580015844371  0.37370733597007177 -0.15303717870698438  0.34914250873906827 -0.14363310666137327  0.32471376805473451 -0.13279087311652887  0.300427213694892 -0.12050512531690949  0.27628870690192908 -0.10676786457320044  0.25230386518185099 -0.091568432371797154  0.22847805796895848 -0.074893483617724632  0.20481640319423633 -0.056726947710595138  0.18132376472053657 -0.037049976919768191  0.15800475064318587 -0.015840882060967135  0.13486371235899153 0.0069249460882360421  0.11190474462864231 0.031275126151166198  0.089131685642531266 0.057240402138767868  0.066548120617825113 0.084854730392308592  0.044157375581771241 0.11415554935036003  0.021962550955500149 0.14518344625364393  0.0072984567031610936 0.16705058831197866  0 0.1782870064593817 
 1.17266327950284 4 1.2259165238344691 1 1.2791697681660985 1 1.3324230124977277 1 1.385676256829357 1 1.4389295011609862 1 1.4921827454926155 1 1.5454359898242447 1 1.5986892341558741 1 1.6519424784875032 1 1.7051957228191323 1 1.7584489671507617 1 1.8117022114823911 1 1.8649554558140202 1 1.9182087001456494 1 1.9714619444772787 1 2.0247151888089081 1 2.077968433140537 1 2.1312216774721664 1 2.1844749218037958 1 2.2377281661354251 1 2.2909814104670545 1 2.3442346547986834 4
1 3.1415926535897931 0 0 -1 
1 3.1415926535897931 0 0 -1 
7 0 0  3 25 23  3.1415926535897918 0.17828700645938134  3.134294196886632 0.1670505883119785  3.1196301026342921 0.14518344625364463  3.0974352780080237 0.11415554935036239  3.0750445329719658 0.084854730392309535  3.0524609679472601 0.057240402138770449  3.0296879089611499 0.031275126151168106  3.0067289412308011 0.0069249460882386702  2.983587902946609 -0.015840882060963804  2.9602688888692565 -0.037049976919763895  2.9367762503955581 -0.056726947710591037  2.9131145956208346 -0.074893483617720372  2.8892887884079408 -0.091568432371792963  2.8653039466878658 -0.10676786457319623  2.841165439894902 -0.12050512531690519  2.8168788855350604 -0.13279087311652499  2.7924501448507248 -0.14363310666136983  2.7678853176197222 -0.15303717870698125  2.74319073589225 -0.16100580015844104  2.7183729573657365 -0.16753902297093709  2.6934387557804076 -0.17263424383724571  2.6683951181277279 -0.17628607103935603  2.643249212181122 -0.17848664119839  2.6264220444732187 -0.17897834314860261  2.6179938779914949 -0.17897858344878148 
 0.0010919042069963011 4 0.054345148538625557 1 0.10759839287025481 1 0.16085163720188408 1 0.21410488153351334 1 0.26735812586514257 1 0.32061137019677183 1 0.37386461452840108 1 0.42711785886003034 1 0.4803711031916596 1 0.53362434752328891 1 0.58687759185491817 1 0.64013083618654743 1 0.69338408051817668 1 0.74663732484980594 1 0.7998905691814352 1 0.85314381351306445 1 0.90639705784469371 1 0.95965030217632297 1 1.0129035465079521 1 1.0661567908395815 1 1.1194100351712108 1 1.17266327950284 4
1 0 -0.17897858344878381 1 0 
7 0 0  3 25 23  5.2359877559829879 0.17828700645937795  5.2286892992798286 0.16705058831197439  5.2140252050274878 0.1451834462536398  5.1918303804012176 0.11415554935035775  5.1694396353651628 0.084854730392304525  5.1468560703404531 0.057240402138766529  5.124083011354343 0.031275126151162493  5.1011240436239973 0.0069249460882341123  5.0779830053398047 -0.015840882060968547  5.0546639912624514 -0.037049976919768704  5.0311713527887525 -0.056726947710595145  5.0075096980140295 -0.074893483617724715  4.9836838908011343 -0.09156843237179671  4.9596990490810624 -0.1067678645731996  4.9355605422880968 -0.12050512531690816  4.9112739879282561 -0.13279087311652921  4.8868452472439188 -0.14363310666137183  4.862280420012917 -0.15303717870698355  4.8375858382854444 -0.1610058001584441  4.8127680597589331 -0.16753902297093912  4.7878338581736024 -0.17263424383724871  4.762790220520924 -0.17628607103935851  4.7376443145743155 -0.17848664119839122  4.7208171468664153 -0.17897834314860422  4.7123889803846897 -0.17897858344878378 
 0.0010919042069977897 4 0.054345148538626979 1 0.10759839287025616 1 0.16085163720188533 1 0.21410488153351453 1 0.26735812586514374 1 0.32061137019677288 1 0.37386461452840208 1 0.42711785886003129 1 0.48037110319166049 1 0.53362434752328969 1 0.58687759185491883 1 0.64013083618654798 1 0.69338408051817724 1 0.74663732484980638 1 0.79989056918143564 1 0.85314381351306479 1 0.90639705784469393 1 0.95965030217632319 1 1.0129035465079526 1 1.0661567908395817 1 1.1194100351712108 1 1.17266327950284 4
1 0 -0.17897858344878381 1 0 
7 0 0  3 25 23  5.759586531581288 -0.17897858344878184  5.7511583650995615 -0.17897834314860206  5.7343311973916613 -0.1784866411983892  5.7091852914450545 -0.17628607103935712  5.6841416537923743 -0.17263424383724646  5.6592074522070446 -0.1675390229709372  5.6343896736805341 -0.16100580015844199  5.6096950919530579 -0.15303717870698144  5.585130264722058 -0.1436331066613698  5.5607015240377198 -0.13279087311652649  5.5364149696778799 -0.12050512531690563  5.5122764628849135 -0.10676786457319679  5.4882916211648398 -0.091568432371794101  5.4644658139519446 -0.074893483617721135  5.4408041591772234 -0.056726947710592689  5.4173115207035236 -0.037049976919764575  5.393992506626172 -0.015840882060964869  5.3708514683419795 0.0069249460882378792  5.347892500611632 0.031275126151167204  5.3251194416255192 0.057240402138770095  5.3025358766008157 0.084854730392308897  5.2801451315647556 0.1141555493503605  5.257950306938489 0.14518344625364343  5.2432862126861473 0.16705058831197811  5.2359877559829879 0.17828700645938142 
 1.17266327950284 4 1.2259165238344694 1 1.2791697681660987 1 1.3324230124977281 1 1.3856762568293577 1 1.4389295011609871 1 1.4921827454926164 1 1.5454359898242458 1 1.5986892341558754 1 1.6519424784875048 1 1.7051957228191341 1 1.7584489671507635 1 1.8117022114823929 1 1.8649554558140222 1 1.9182087001456516 1 1.9714619444772812 1 2.0247151888089103 1 2.0779684331405397 1 2.1312216774721695 1 2.1844749218037989 1 2.2377281661354282 1 2.2909814104670576 1 2.344234654798687 4
7 0 0  3 25 23  4.1887902047863914 0.17828700645938106  4.1814917480832303 0.16705058831197747  4.1668276538308904 0.14518344625364249  4.1446328292046211 0.11415554935035939  4.1222420841685636 0.084854730392306232  4.0996585191438584 0.057240402138766446  4.0768854601577473 0.031275126151164671  4.0539264924273999 0.0069249460882335268  4.0307854541432047 -0.015840882060967572  4.007466440065854 -0.037049976919769273  3.9839738015921533 -0.056726947710596179  3.9603121468174312 -0.074893483617724965  3.9364863396045351 -0.091568432371797626  3.9125014978844637 -0.10676786457320128  3.8883629910914967 -0.12050512531690878  3.8640764367316578 -0.13279087311652915  3.83964769604732 -0.14363310666137324  3.8150828688163179 -0.15303717870698452  3.7903882870888461 -0.1610058001584434  3.7655705085623321 -0.16753902297093898  3.7406363069770032 -0.17263424383724782  3.7155926693243231 -0.17628607103935773  3.6904467633777185 -0.17848664119839078  3.6736195956698148 -0.17897834314860303  3.6651914291880909 -0.17897858344878192 
 0.0010919042069930905 4 0.054345148538622504 1 0.10759839287025191 1 0.16085163720188131 1 0.21410488153351073 1 0.26735812586514013 1 0.3206113701967695 1 0.37386461452839892 1 0.42711785886002834 1 0.48037110319165777 1 0.53362434752328725 1 0.58687759185491661 1 0.64013083618654598 1 0.69338408051817546 1 0.74663732484980483 1 0.79989056918143431 1 0.85314381351306368 1 0.90639705784469304 1 0.95965030217632252 1 1.0129035465079519 1 1.0661567908395813 1 1.1194100351712106 1 1.17266327950284 4
1 -4.4408920985006262e-16 -0.17897858344878381 1 0 
7 0 0  3 25 23  4.7123889803846897 -0.17897858344878378  4.7039608139029641 -0.17897834314860425  4.687133646195063 -0.17848664119839128  4.6619877402484562 -0.17628607103935834  4.6369441025957769 -0.17263424383724926  4.6120099010104463 -0.16753902297093912  4.5871921224839349 -0.16100580015844349  4.5624975407564596 -0.15303717870698366  4.5379327135254606 -0.14363310666137194  4.5135039728411224 -0.13279087311652851  4.4892174184812825 -0.12050512531690835  4.4650789116883178 -0.10676786457319937  4.4410940699682433 -0.091568432371796807  4.417268262755349 -0.074893483617723924  4.3936066079806269 -0.056726947710595173  4.3701139695069271 -0.037049976919768739  4.3467949554295737 -0.015840882060967329  4.3236539171453812 0.0069249460882345642  4.3006949494150346 0.031275126151163089  4.2779218904289245 0.05724040213876691  4.2553383254042165 0.084854730392305622  4.23294758036816 0.11415554935035811  4.2107527557418907 0.14518344625364041  4.1960886614895507 0.16705058831197472  4.1887902047863914 0.17828700645937795 
 1.17266327950284 4 1.2259165238344691 1 1.2791697681660983 1 1.3324230124977277 1 1.3856762568293568 1 1.4389295011609859 1 1.4921827454926151 1 1.5454359898242442 1 1.5986892341558736 1 1.6519424784875028 1 1.7051957228191319 1 1.758448967150761 1 1.8117022114823902 1 1.8649554558140196 1 1.9182087001456485 1 1.9714619444772779 1 2.0247151888089068 1 2.0779684331405361 1 2.1312216774721655 1 2.1844749218037949 1 2.2377281661354238 1 2.2909814104670527 1 2.3442346547986821 4
1 0 -0.17897858344878381 1 0 
7 0 0  3 25 23  3.6651914291880909 -0.17897858344878192  3.6567632627063662 -0.17897834314860309  3.6399360949984638 -0.17848664119839072  3.6147901890518579 -0.17628607103935753  3.5897465513991778 -0.17263424383724874  3.5648123498138498 -0.16753902297093984  3.5399945712873353 -0.16100580015844362  3.515299989559864 -0.15303717870698452  3.4907351623288614 -0.14363310666137302  3.466306421644525 -0.1327908731165299  3.4420198672846842 -0.12050512531691031  3.41788136049172 -0.10676786457320095  3.3938965187716463 -0.091568432371799152  3.3700707115587516 -0.074893483617725715  3.3464090567840294 -0.056726947710598163  3.3229164183103297 -0.037049976919771452  3.2995974042329772 -0.015840882060969709  3.2764563659487833 0.0069249460882312196  3.2534973982184376 0.031275126151160661  3.2307243392323248 0.057240402138762816  3.20814077420762 0.084854730392303249  3.1857500291715612 0.11415554935035538  3.1635552045452924 0.1451834462536378  3.1488911102929515 0.16705058831197239  3.1415926535897927 0.17828700645937595 
 1.17266327950284 4 1.2259165238344694 1 1.279169768166099 1 1.3324230124977283 1 1.3856762568293579 1 1.4389295011609873 1 1.4921827454926169 1 1.5454359898242462 1 1.5986892341558758 1 1.6519424784875052 1 1.7051957228191346 1 1.7584489671507642 1 1.8117022114823937 1 1.8649554558140231 1 1.9182087001456525 1 1.9714619444772821 1 2.0247151888089117 1 2.077968433140541 1 2.1312216774721704 1 2.1844749218038002 1 2.2377281661354296 1 2.2909814104670589 1 2.3442346547986883 4
7 0 0  3 25 23  2.6179938779914949 -0.17897858344878148  2.6095657115097706 -0.17897834314860192  2.5927385438018682 -0.17848664119838931  2.5675926378552618 -0.17628607103935723  2.5425490002025821 -0.17263424383724651  2.5176147986172528 -0.16753902297093723  2.4927970200907388 -0.16100580015844201  2.4681024383632666 -0.15303717870698136  2.4435376111322644 -0.14363310666137036  2.4191088704479284 -0.13279087311652704  2.3948223160880859 -0.12050512531690549  2.370683809295123 -0.10676786457319687  2.3466989675750476 -0.091568432371794115  2.3228731603621533 -0.07489348361772119  2.2992115055874311 -0.056726947710592592  2.2757188671137309 -0.037049976919764839  2.2523998530363785 -0.015840882060964102  2.2292588147521855 0.0069249460882376667  2.206299847021838 0.031275126151167211  2.183526788035727 0.057240402138770075  2.1609432230110217 0.084854730392309383  2.1385524779749638 0.11415554935036099  2.1163576533486954 0.14518344625364346  2.101693559096355 0.16705058831197792  2.0943951023931957 0.17828700645938111 
 1.17266327950284 4 1.2259165238344694 1 1.2791697681660987 1 1.3324230124977281 1 1.3856762568293575 1 1.4389295011609868 1 1.4921827454926162 1 1.5454359898242458 1 1.5986892341558752 1 1.6519424784875045 1 1.7051957228191339 1 1.7584489671507633 1 1.8117022114823926 1 1.864955455814022 1 1.9182087001456516 1 1.971461944477281 1 2.0247151888089103 1 2.0779684331405397 1 2.1312216774721691 1 2.1844749218037984 1 2.2377281661354278 1 2.2909814104670572 1 2.3442346547986865 4
7 0 0  3 25 23  2.0943951023931948 0.17828700645937806  2.0870966456900355 0.16705058831197475  2.0724325514376951 0.14518344625364049  2.0502377268114254 0.11415554935035842  2.0278469817753688 0.084854730392305247  2.0052634167506618 0.057240402138767243  1.9824903577645514 0.03127512615116327  1.9595313900342037 0.0069249460882346865  1.936390351750011 -0.0158408820609671  1.9130713376726589 -0.037049976919768551  1.889578699198958 -0.056726947710595478  1.8659170444242366 -0.07489348361772423  1.8420912372113414 -0.091568432371797112  1.8181063954912675 -0.10676786457319981  1.7939678886983028 -0.12050512531690867  1.7696813343384623 -0.13279087311652893  1.745252593654125 -0.1436331066613723  1.7206877664231239 -0.15303717870698411  1.6959931846956504 -0.16100580015844387  1.6711754061691382 -0.16753902297093973  1.6462412045838084 -0.17263424383724904  1.6211975669311289 -0.17628607103935906  1.5960516609845234 -0.1784866411983913  1.5792244932766208 -0.17897834314860409  1.5707963267948966 -0.17897858344878384 
 0.0010919042069979287 4 0.054345148538627118 1 0.1075983928702563 1 0.16085163720188547 1 0.21410488153351467 1 0.2673581258651439 1 0.32061137019677305 1 0.37386461452840225 1 0.42711785886003145 1 0.48037110319166065 1 0.5336243475232898 1 0.58687759185491895 1 0.64013083618654809 1 0.69338408051817735 1 0.74663732484980649 1 0.79989056918143575 1 0.8531438135130649 1 0.90639705784469404 1 0.9596503021763233 1 1.0129035465079526 1 1.0661567908395817 1 1.1194100351712108 1 1.17266327950284 4
1 0 -0.17897858344878381 1 0 
7 0 0  3 25 23  1.5707963267948966 -0.17897858344878384  1.5623681603131723 -0.17897834314860409  1.5455409926052706 -0.17848664119839125  1.5203950866586642 -0.17628607103935909  1.4953514490059845 -0.17263424383724901  1.4704172474206552 -0.16753902297093978  1.4455994688941431 -0.16100580015844385  1.420904887166669 -0.15303717870698413  1.3963400599356677 -0.14363310666137233  1.3719113192513313 -0.1327908731165289  1.3476247648914903 -0.12050512531690871  1.3234862580985256 -0.10676786457319976  1.2995014163784511 -0.091568432371797071  1.2756756091655568 -0.074893483617724355  1.2520139543908344 -0.056726947710594909  1.2285213159171349 -0.037049976919768655  1.2052023018397817 -0.015840882060967079  1.1820612635555894 0.0069249460882345668  1.1591022958252415 0.031275126151163957  1.1363292368391313 0.057240402138766959  1.1137456718144247 0.084854730392305844  1.0913549267783671 0.11415554935035827  1.0691601021520982 0.14518344625364055  1.0544960078997576 0.16705058831197481  1.0471975511965983 0.17828700645937806 
 1.17266327950284 4 1.2259165238344691 1 1.2791697681660983 1 1.3324230124977277 1 1.3856762568293568 1 1.4389295011609859 1 1.4921827454926151 1 1.5454359898242442 1 1.5986892341558736 1 1.6519424784875028 1 1.7051957228191319 1 1.758448967150761 1 1.8117022114823902 1 1.8649554558140196 1 1.9182087001456485 1 1.9714619444772779 1 2.0247151888089068 1 2.0779684331405361 1 2.1312216774721655 1 2.1844749218037949 1 2.2377281661354238 1 2.2909814104670527 1 2.3442346547986821 4
7 0 0  3 25 23  1.0471975511965974 0.17828700645938067  1.0398990944934381 0.16705058831197761  1.0252350002410979 0.14518344625364313  1.0030401756148291 0.11415554935036001  0.9806494305787713 0.084854730392309022  0.95806586555406581 0.057240402138770165  0.93529280656795477 0.0312751261511671  0.91233383883760721 0.0069249460882378046  0.88919280055341465 -0.015840882060964616  0.86587378647606195 -0.037049976919765325  0.84238114800236252 -0.056726947710592508  0.81871949322764004 -0.074893483617721218  0.79489368601474508 -0.09156843237179417  0.77090884429467077 -0.10676786457319676  0.74677033750170652 -0.12050512531690585  0.72248378314186523 -0.13279087311652568  0.69805504245752859 -0.14363310666137069  0.67349021522652719 -0.15303717870698136  0.64879563349905345 -0.16100580015844174  0.62397785497254077 -0.16753902297093842  0.59904365338721111 -0.1726342438372464  0.57400001573453119 -0.17628607103935659  0.54885410978792504 -0.17848664119838939  0.53202694208002266 -0.17897834314860214  0.52359877559829815 -0.17897858344878151 
 0.0010919042069935682 4 0.054345148538622941 1 0.10759839287025232 1 0.1608516372018817 1 0.21410488153351107 1 0.26735812586514046 1 0.32061137019676983 1 0.3738646145283992 1 0.42711785886002857 1 0.48037110319165793 1 0.53362434752328736 1 0.58687759185491672 1 0.64013083618654609 1 0.69338408051817546 1 0.74663732484980483 1 0.7998905691814342 1 0.85314381351306356 1 0.90639705784469293 1 0.9596503021763223 1 1.0129035465079519 1 1.0661567908395813 1 1.1194100351712106 1 1.17266327950284 4
1 0 -0.17897858344878409 1 1.8553235641870505e-16 
7 0 0  3 25 23  6.2831853071795862 0.17828700645938217  6.275886850476426 0.16705058831197869  6.2612227562240843 0.1451834462536444  6.2390279315978168 0.11415554935036318  6.2166371865617602 0.084854730392309133  6.1940536215370541 0.057240402138771372  6.1712805625509413 0.031275126151167454  6.1483215948205938 0.0069249460882382877  6.1251805565364021 -0.015840882060963478  6.1018615424590505 -0.037049976919764478  6.0783689039853517 -0.056726947710590864  6.0547072492106278 -0.074893483617720177  6.0308814419977326 -0.091568432371793546  6.0068966002776589 -0.10676786457319602  5.9827580934846969 -0.12050512531690508  5.9584715391248535 -0.13279087311652513  5.9340427984405171 -0.14363310666136897  5.9094779712095171 -0.15303717870698177  5.8847833894820418 -0.16100580015844163  5.8599656109555305 -0.16753902297093615  5.8350314093702016 -0.17263424383724635  5.8099877717175215 -0.17628607103935645  5.7848418657709146 -0.17848664119838978  5.7680146980630127 -0.17897834314860259  5.759586531581288 -0.17897858344878184 
 0.0010919042069961415 4 0.054345148538625404 1 0.10759839287025467 1 0.16085163720188395 1 0.2141048815335132 1 0.26735812586514246 1 0.32061137019677172 1 0.37386461452840097 1 0.42711785886003023 1 0.48037110319165949 1 0.5336243475232888 1 0.58687759185491806 1 0.64013083618654731 1 0.69338408051817657 1 0.74663732484980583 1 0.79989056918143508 1 0.85314381351306434 1 0.9063970578446936 1 0.95965030217632286 1 1.0129035465079521 1 1.0661567908395815 1 1.1194100351712106 1 1.17266327950284 4
1 0 -0.17897858344878381 1 0 
7 0 0  3 25 23  4.1887902047863914 0.17828700645938006  4.1814917480832321 0.16705058831197689  4.1668276538308913 0.14518344625364257  4.1446328292046219 0.11415554935036039  4.1222420841685645 0.084854730392308605  4.0996585191438584 0.057240402138769679  4.0768854601577473 0.031275126151166663  4.0539264924274017 0.0069249460882379928  4.0307854541432064 -0.01584088206096471  4.0074664400658566 -0.037049976919765255  3.9839738015921546 -0.056726947710591634  3.9603121468174329 -0.074893483617721288  3.9364863396045386 -0.091568432371793532  3.9125014978844646 -0.10676786457319638  3.8883629910914999 -0.12050512531690577  3.8640764367316587 -0.13279087311652585  3.8396476960473218 -0.14363310666136853  3.8150828688163192 -0.15303717870698164  3.7903882870888466 -0.16100580015844074  3.765570508562333 -0.16753902297093684  3.7406363069770046 -0.17263424383724618  3.715592669324324 -0.17628607103935542  3.6904467633777185 -0.17848664119838853  3.6736195956698152 -0.17897834314860125  3.6651914291880909 -0.17897858344878059 
 0.001091904206992777 4 0.054345148538622191 1 0.10759839287025161 1 0.16085163720188103 1 0.21410488153351045 1 0.26735812586513985 1 0.32061137019676927 1 0.3738646145283987 1 0.42711785886002812 1 0.48037110319165754 1 0.53362434752328691 1 0.58687759185491639 1 0.64013083618654576 1 0.69338408051817524 1 0.74663732484980461 1 0.79989056918143409 1 0.85314381351306345 1 0.90639705784469282 1 0.9596503021763223 1 1.0129035465079517 1 1.066156790839581 1 1.1194100351712106 1 1.17266327950284 4
1 6.2831853071795862 -0.17897858344878287 -1 0 
7 0 0  3 25 23  4.7123889803846897 -0.17897858344878298  4.7039608139029641 -0.1789783431486035  4.687133646195063 -0.17848664119839053  4.6619877402484562 -0.17628607103935734  4.6369441025957761 -0.17263424383724885  4.6120099010104481 -0.16753902297093845  4.587192122483934 -0.16100580015844307  4.5624975407564623 -0.15303717870698336  4.5379327135254588 -0.14363310666137147  4.5135039728411241 -0.13279087311652835  4.4892174184812816 -0.12050512531690812  4.4650789116883187 -0.10676786457319885  4.4410940699682442 -0.091568432371797209  4.4172682627553481 -0.074893483617723605  4.3936066079806277 -0.056726947710595853  4.370113969506928 -0.037049976919768024  4.3467949554295755 -0.015840882060968162  4.3236539171453821 0.006924946088234637  4.3006949494150364 0.031275126151162763  4.2779218904289218 0.057240402138766112  4.2553383254042174 0.0848547303923054  4.2329475803681591 0.11415554935035704  4.2107527557418907 0.1451834462536401  4.1960886614895507 0.16705058831197447  4.1887902047863914 0.17828700645937756 
 1.17266327950284 4 1.2259165238344691 1 1.2791697681660985 1 1.3324230124977277 1 1.385676256829357 1 1.4389295011609862 1 1.4921827454926153 1 1.5454359898242447 1 1.5986892341558738 1 1.651942478487503 1 1.7051957228191323 1 1.7584489671507615 1 1.8117022114823906 1 1.86495545581402 1 1.9182087001456491 1 1.9714619444772783 1 2.0247151888089077 1 2.077968433140537 1 2.1312216774721664 1 2.1844749218037953 1 2.2377281661354247 1 2.2909814104670536 1 2.344234654798683 4
7 0 0  3 25 23  3.1415926535897936 0.17828700645937556  3.1342941968866347 0.1670505883119727  3.1196301026342939 0.1451834462536381  3.0974352780080237 0.11415554935035432  3.0750445329719671 0.084854730392303027  3.0524609679472596 0.057240402138764121  3.0296879089611499 0.031275126151160494  3.0067289412308011 0.0069249460882313957  2.9835879029466095 -0.015840882060969765  2.9602688888692565 -0.037049976919770092  2.9367762503955577 -0.056726947710597823  2.9131145956208342 -0.074893483617725715  2.8892887884079403 -0.09156843237179782  2.8653039466878658 -0.10676786457320077  2.841165439894902 -0.12050512531690878  2.8168788855350613 -0.13279087311652943  2.792450144850724 -0.14363310666137272  2.7678853176197227 -0.15303717870698325  2.7431907358922496 -0.16100580015844324  2.7183729573657378 -0.16753902297093878  2.6934387557804076 -0.17263424383724749  2.6683951181277279 -0.1762860710393569  2.643249212181122 -0.17848664119838906  2.6264220444732196 -0.17897834314860162  2.6179938779914953 -0.17897858344878098 
 0.0010919042069906649 4 0.054345148538620186 1 0.10759839287024971 1 0.1608516372018792 1 0.21410488153350873 1 0.2673581258651383 1 0.32061137019676778 1 0.37386461452839731 1 0.42711785886002684 1 0.48037110319165638 1 0.53362434752328591 1 0.58687759185491539 1 0.64013083618654487 1 0.69338408051817446 1 0.74663732484980394 1 0.79989056918143353 1 0.85314381351306301 1 0.90639705784469249 1 0.95965030217632208 1 1.0129035465079514 1 1.066156790839581 1 1.1194100351712104 1 1.17266327950284 4
1 6.2831853071795862 -0.17897858344878287 -1 0 
7 0 0  3 25 23  2.0943951023931953 0.17828700645937767  2.0870966456900359 0.16705058831197456  2.072432551437696 0.14518344625364024  2.0502377268114258 0.11415554935035782  2.0278469817753693 0.084854730392305663  2.0052634167506627 0.057240402138766938  1.9824903577645525 0.031275126151163464  1.959531390034204 0.0069249460882353795  1.9363903517500121 -0.015840882060967499  1.9130713376726587 -0.037049976919767982  1.8895786991989596 -0.056726947710594396  1.865917044424237 -0.074893483617723383  1.8420912372113423 -0.091568432371796155  1.8181063954912684 -0.10676786457319828  1.7939678886983046 -0.1205051253169076  1.7696813343384632 -0.13279087311652757  1.7452525936541265 -0.1436331066613713  1.7206877664231257 -0.15303717870698236  1.6959931846956515 -0.16100580015844301  1.6711754061691397 -0.16753902297093831  1.6462412045838091 -0.1726342438372481  1.62119756693113 -0.17628607103935723  1.5960516609845234 -0.17848664119839042  1.5792244932766213 -0.17897834314860334  1.5707963267948968 -0.17897858344878276 
 0.0010919042069971292 4 0.054345148538626348 1 0.10759839287025556 1 0.16085163720188478 1 0.21410488153351398 1 0.26735812586514318 1 0.32061137019677244 1 0.37386461452840164 1 0.42711785886003084 1 0.48037110319166004 1 0.53362434752328924 1 0.5868775918549185 1 0.64013083618654776 1 0.6933840805181769 1 0.74663732484980616 1 0.79989056918143531 1 0.85314381351306456 1 0.90639705784469382 1 0.95965030217632297 1 1.0129035465079523 1 1.0661567908395815 1 1.1194100351712108 1 1.17266327950284 4
1 6.2831853071795862 -0.17897858344878287 -1 0 
7 0 0  3 25 23  2.6179938779914953 -0.17897858344878098  2.609565711509771 -0.17897834314860162  2.5927385438018691 -0.1784866411983892  2.5675926378552631 -0.17628607103935709  2.5425490002025835 -0.17263424383724754  2.5176147986172537 -0.16753902297093787  2.4927970200907419 -0.16100580015844304  2.4681024383632666 -0.15303717870698358  2.4435376111322671 -0.14363310666137222  2.4191088704479293 -0.1327908731165289  2.3948223160880886 -0.12050512531690825  2.3706838092951239 -0.10676786457319952  2.3466989675750494 -0.091568432371796848  2.3228731603621546 -0.074893483617724452  2.299211505587432 -0.056726947710594666  2.2757188671137332 -0.03704997691976842  2.2523998530363794 -0.015840882060967922  2.2292588147521872 0.0069249460882351722  2.2062998470218389 0.031275126151163929  2.1835267880357287 0.057240402138767771  2.1609432230110222 0.08485473039230694  2.1385524779749643 0.11415554935035875  2.116357653348695 0.14518344625364213  2.1016935590963546 0.16705058831197686  2.0943951023931953 0.17828700645938017 
 1.17266327950284 4 1.2259165238344694 1 1.2791697681660987 1 1.3324230124977281 1 1.3856762568293577 1 1.4389295011609871 1 1.4921827454926164 1 1.5454359898242458 1 1.5986892341558754 1 1.6519424784875048 1 1.7051957228191341 1 1.7584489671507635 1 1.8117022114823929 1 1.8649554558140222 1 1.9182087001456516 1 1.9714619444772812 1 2.0247151888089103 1 2.0779684331405397 1 2.1312216774721695 1 2.1844749218037989 1 2.2377281661354282 1 2.2909814104670576 1 2.344234654798687 4
7 0 0  3 25 23  1.5707963267948968 -0.17897858344878276  1.5623681603131723 -0.17897834314860311  1.5455409926052699 -0.17848664119839006  1.5203950866586637 -0.17628607103935745  1.4953514490059836 -0.17263424383724754  1.4704172474206543 -0.16753902297093803  1.4455994688941414 -0.16100580015844257  1.4209048871666676 -0.15303717870698272  1.3963400599356666 -0.14363310666137086  1.3719113192513299 -0.13279087311652765  1.347624764891489 -0.12050512531690712  1.3234862580985247 -0.10676786457319863  1.2995014163784506 -0.09156843237179553  1.2756756091655554 -0.074893483617723369  1.2520139543908344 -0.056726947710593667  1.228521315917134 -0.03704997691976758  1.2052023018397815 -0.015840882060966482  1.1820612635555894 0.0069249460882356154  1.1591022958252415 0.031275126151164283  1.1363292368391311 0.057240402138767688  1.113745671814425 0.084854730392306066  1.0913549267783675 0.1141555493503589  1.0691601021520978 0.1451834462536406  1.0544960078997576 0.16705058831197508  1.0471975511965983 0.17828700645937867 
 1.17266327950284 4 1.2259165238344696 1 1.2791697681660992 1 1.3324230124977288 1 1.3856762568293584 1 1.4389295011609879 1 1.4921827454926175 1 1.5454359898242471 1 1.5986892341558767 1 1.6519424784875063 1 1.7051957228191359 1 1.7584489671507655 1 1.8117022114823951 1 1.8649554558140247 1 1.9182087001456543 1 1.9714619444772838 1 2.0247151888089134 1 2.0779684331405432 1 2.1312216774721726 1 2.184474921803802 1 2.2377281661354318 1 2.2909814104670616 1 2.344234654798691 4
7 0 0  3 25 23  1.0471975511965979 0.17828700645938061  1.0398990944934385 0.16705058831197736  1.0252350002410984 0.14518344625364285  1.0030401756148286 0.11415554935036001  0.98064943057877174 0.084854730392308064  0.95806586555406525 0.057240402138768388  0.93529280656795499 0.031275126151166788  0.91233383883760655 0.0069249460882374568  0.88919280055341465 -0.015840882060964682  0.86587378647606217 -0.037049976919765505  0.84238114800236208 -0.056726947710592009  0.81871949322764026 -0.074893483617720871  0.7948936860147453 -0.09156843237179417  0.7709088442946711 -0.10676786457319636  0.74677033750170707 -0.12050512531690526  0.72248378314186568 -0.13279087311652665  0.69805504245752903 -0.14363310666136814  0.67349021522652752 -0.15303717870698144  0.648795633499054 -0.16100580015844057  0.62397785497254166 -0.16753902297093604  0.59904365338721122 -0.17263424383724579  0.57400001573453185 -0.17628607103935556  0.54885410978792504 -0.17848664119838897  0.53202694208002266 -0.17897834314860156  0.52359877559829815 -0.17897858344878059 
 0.0010919042069926794 4 0.054345148538622094 1 0.10759839287025151 1 0.16085163720188092 1 0.21410488153351034 1 0.26735812586513974 1 0.32061137019676916 1 0.37386461452839859 1 0.42711785886002801 1 0.48037110319165743 1 0.5336243475232868 1 0.58687759185491628 1 0.64013083618654565 1 0.69338408051817513 1 0.7466373248498045 1 0.79989056918143397 1 0.85314381351306334 1 0.90639705784469271 1 0.95965030217632219 1 1.0129035465079517 1 1.066156790839581 1 1.1194100351712106 1 1.17266327950284 4
1 6.2831853071795862 -0.17897858344878287 -1 0 
1 6.2831853071795862 -0.17897858344878287 -1 0 
7 0 0  3 25 23  0.52359877559829815 -0.17897858344878059  0.51517060911657375 -0.17897834314860114  0.49834344140867176 -0.17848664119838836  0.47319753546206489 -0.17628607103935542  0.44815389780938586 -0.17263424383724621  0.42321969622405547 -0.1675390229709352  0.39840191769754352 -0.16100580015844085  0.37370733597006939 -0.15303717870698025  0.3491425087390686 -0.1436331066613693  0.3247137680547314 -0.13279087311652565  0.30042721369489045 -0.1205051253169056  0.27628870690192636 -0.10676786457319667  0.25230386518185183 -0.091568432371794253  0.22847805796895748 -0.074893483617721648  0.20481640319423508 -0.056726947710593063  0.18132376472053546 -0.037049976919766373  0.15800475064318253 -0.015840882060966548  0.13486371235899025 0.0069249460882362833  0.11190474462864253 0.0312751261511642  0.08913168564253178 0.057240402138766695  0.066548120617825987 0.084854730392305122  0.04415737558176866 0.11415554935035685  0.02196255095549916 0.14518344625363777  0.0072984567031591915 0.16705058831197167  0 0.17828700645937501 
 1.17266327950284 4 1.2259165238344696 1 1.279169768166099 1 1.3324230124977285 1 1.3856762568293579 1 1.4389295011609875 1 1.4921827454926169 1 1.5454359898242465 1 1.5986892341558758 1 1.6519424784875054 1 1.705195722819135 1 1.7584489671507644 1 1.8117022114823937 1 1.8649554558140233 1 1.9182087001456529 1 1.9714619444772823 1 2.0247151888089117 1 2.0779684331405415 1 2.1312216774721708 1 2.1844749218038002 1 2.2377281661354296 1 2.2909814104670589 1 2.3442346547986888 4
7 0 0  3 25 23  5.759586531581288 -0.17897858344878098  5.7511583650995632 -0.17897834314860159  5.7343311973916613 -0.17848664119838881  5.7091852914450554 -0.17628607103935612  5.684141653792377 -0.17263424383724557  5.6592074522070446 -0.16753902297093703  5.6343896736805332 -0.16100580015844052  5.6096950919530615 -0.15303717870698164  5.5851302647220562 -0.14363310666136886  5.5607015240377224 -0.13279087311652646  5.536414969677879 -0.12050512531690522  5.5122764628849152 -0.10676786457319658  5.4882916211648398 -0.091568432371793629  5.4644658139519455 -0.074893483617720594  5.4408041591772243 -0.056726947710591648  5.4173115207035218 -0.03704997691976461  5.3939925066261694 -0.015840882060962212  5.3708514683419777 0.0069249460882386468  5.3478925006116311 0.031275126151167898  5.3251194416255183 0.057240402138771629  5.3025358766008139 0.08485473039230973  5.2801451315647556 0.11415554935036189  5.2579503069384872 0.1451834462536436  5.2432862126861464 0.1670505883119775  5.2359877559829879 0.1782870064593805 
 1.17266327950284 4 1.2259165238344694 1 1.279169768166099 1 1.3324230124977283 1 1.3856762568293577 1 1.4389295011609873 1 1.4921827454926166 1 1.545435989824246 1 1.5986892341558754 1 1.6519424784875048 1 1.7051957228191343 1 1.7584489671507637 1 1.8117022114823933 1 1.8649554558140227 1 1.918208700145652 1 1.9714619444772814 1 2.0247151888089108 1 2.0779684331405406 1 2.13122167747217 1 2.1844749218037993 1 2.2377281661354287 1 2.2909814104670581 1 2.3442346547986874 4
7 0 0  3 25 23  5.2359877559829879 0.17828700645937806  5.2286892992798295 0.16705058831197472  5.2140252050274887 0.14518344625364002  5.1918303804012202 0.11415554935035706  5.169439635365161 0.084854730392305275  5.1468560703404558 0.05724040213876621  5.1240830113543447 0.031275126151163027  5.1011240436239973 0.0069249460882342797  5.0779830053398047 -0.015840882060967992  5.0546639912624514 -0.037049976919768628  5.0311713527887516 -0.056726947710594985  5.0075096980140303 -0.074893483617723994  4.9836838908011352 -0.091568432371796737  4.9596990490810597 -0.10676786457319977  4.9355605422880977 -0.12050512531690787  4.9112739879282543 -0.1327908731165286  4.8868452472439188 -0.14363310666137144  4.862280420012917 -0.15303717870698316  4.8375858382854444 -0.16100580015844329  4.8127680597589322 -0.16753902297093914  4.7878338581735997 -0.1726342438372481  4.762790220520924 -0.17628607103935767  4.7376443145743163 -0.17848664119839058  4.7208171468664135 -0.17897834314860353  4.7123889803846897 -0.17897858344878298 
 0.0010919042069971183 4 0.054345148538626348 1 0.10759839287025558 1 0.16085163720188481 1 0.21410488153351404 1 0.26735812586514329 1 0.32061137019677249 1 0.3738646145284017 1 0.42711785886003095 1 0.48037110319166021 1 0.53362434752328947 1 0.58687759185491861 1 0.64013083618654787 1 0.69338408051817713 1 0.74663732484980627 1 0.79989056918143553 1 0.85314381351306479 1 0.90639705784469404 1 0.9596503021763233 1 1.0129035465079523 1 1.0661567908395817 1 1.1194100351712108 1 1.17266327950284 4
1 6.2831853071795862 -0.17897858344878287 -1 0 
1 0 0.15308861812688765 1 0 
1 0 -0.15308861812688757 1 0 
1 0 0.58349999999999991 1 0 
1 0 -0.58350000000000002 1 0 
1 6.2831853071795862 -0.15308861812688757 -1 0 
1 6.2831853071795862 0.15308861812688751 -1 0 
Curves 64
2 0 1.3256363780127201e-17 0.2165 -0 6.12303176911189e-17 1 1 0 0 0 1 -6.12303176911189e-17 0.78349999999999997
1 -0.89175000000000004 1.15832453492174e-16 0.10825 -0.70710678118654702 4.3296372853596802e-17 -0.70710678118654802 
2 0 0 0 -0 6.12303176911189e-17 1 1 0 0 0 1 -6.12303176911189e-17 1
1 0.89175000000000004 -1.0257608971204701e-16 0.10825 -0.70710678118654702 1.2988911856079e-16 0.70710678118654802 
2 0 8.4712144525662999e-17 1.3835 -0 6.12303176911189e-17 1 1 0 0 0 1 -6.12303176911189e-17 0.78349999999999997
1 -0.78349999999999997 1.44932161974878e-16 0.80000000000000004 -0 -6.12303176911189e-17 -1 
1 0.78349999999999997 -4.6963653669088199e-17 0.80000000000000004 -0 6.12303176911189e-17 1 
2 0 9.7968508305790195e-17 1.6000000000000001 -0 6.12303176911189e-17 1 1 0 0 0 1 -6.12303176911189e-17 1
1 -0.89175000000000004 2.00544598017837e-16 1.4917499999999999 0.70710678118654802 -1.2988911856079e-16 -0.70710678118654702 
1 0.89175000000000004 -1.7863945186383898e-17 1.4917499999999999 0.70710678118654802 -4.3296372853596802e-17 0.70710678118654702 
1 2.1549999999999998 -1.7141361870516999e-16 1.51051070827561 -0.86602540378443882 1.3666918005016099e-16 0.49999999999999989 
7 1 0  2 5 3  2.3099997672530299 -0.00103696235453779 1.4210214165512201  1 2.0002405800441201 0.53548168800253404 1.6000000000000001  1.03802697460133 1.7320508075688801 1 1.6000000000000001  1 1.4638610350936301 1.4645183119974701 1.6000000000000001  1.03802697460132 1.15410184788472 2.0010369623545401 1.4210214165512201  1
 0 3 1.17266327950284 2 2.34532655900568 3
2 0 9.7968508305790195e-17 1.6000000000000001 -0 6.12303176911189e-17 1 1 0 0 0 1 -6.12303176911189e-17 2
1 -2.1549999999999998 3.5639171979227502e-16 1.51051070827561 -0.86602540378443882 7.5438862359041891e-17 -0.49999999999999989 
2 0 9.7968508305790195e-17 1.6000000000000001 -0 6.12303176911189e-17 1 1 0 0 0 1 -6.12303176911189e-17 2
7 1 0  2 5 3  -1.15410184788472 2.0010369623545401 1.4210214165512201  1 -1.4638610350936301 1.4645183119974701 1.6000000000000001  1.03802697460134 -1.7320508075688801 1 1.6000000000000001  1 -2.0002405800441299 0.53548168800253304 1.6000000000000001  1.03802697460133 -2.3099997672530299 -0.0010369623545369599 1.4210214165512201  1
 0 3 1.17266327950284 2 2.34532655900568 3
1 2.1549999999999998 -2.58423211486485e-16 0.089489291724392003 0.86602540378443882 -7.5438862359041891e-17 0.49999999999999989 
2 0 0 0 -0 6.12303176911189e-17 1 1 0 0 0 1 -6.12303176911189e-17 2
7 1 0  2 5 3  1.15410184788472 2.0010369623545401 0.17897858344878401  1 1.4638610350936301 1.4645183119974701 1.5405572686667499e-16  1.03802697460134 1.7320508075688801 1 -3.34747420754899e-17  1 2.0002405800441201 0.53548168800253404 -9.0900950319394802e-17  1.03802697460133 2.3099997672530401 -0.0010369623545387 0.17897858344878401  1
 0 3 1.17266327950284 2 2.34532655900568 3
1 -2.1549999999999998 2.6938212701095999e-16 0.089489291724392003 0.86602540378443882 -1.3666918005016099e-16 -0.49999999999999989 
7 1 0  2 5 3  -2.3099997672530401 -0.00103696235453811 0.17897858344878401  1 -2.0002405800441299 0.53548168800253304 1.63236038911208e-16  1.03802697460134 -1.7320508075688801 1 8.1586213479533793e-18  1 -1.4638610350936301 1.4645183119974701 1.4278002427282599e-16  1.03802697460134 -1.15410184788472 2.0010369623545401 0.17897858344878401  1
 0 3 1.17266327950284 2 2.34532655900568 3
2 0 0 0 -0 6.12303176911189e-17 1 1 0 0 0 1 -6.12303176911189e-17 2
7 1 0  2 5 3  1.1558979193683201 -2 0.17897858344878401  1 0.536379544950496 -2 2.3955447001067201e-16  1.03802697460136 -3.8459253727671301e-16 -2 1.9184957442131001e-16  1 -0.536379544950497 -2 1.71900254447577e-16  1.03802697460135 -1.1558979193683201 -2 0.17897858344878401  1
 0 3 1.17266327950284 2 2.34532655900568 3
2 0 0 0 -0 6.12303176911189e-17 1 1 0 0 0 1 -6.12303176911189e-17 2
7 1 0  2 5 3  2.3099997672530401 0.0010369623545382501 0.17897858344878401  1 2.0002405800441299 -0.53548168800253104 4.3003938987286002e-16  1.03802697460134 1.7320508075688801 -1 1.86130407961449e-16  1 1.4638610350936301 -1.4645183119974701 4.4529123408331203e-16  1.03802697460134 1.15410184788472 -2.0010369623545401 0.17897858344878401  1
 0 3 1.17266327950284 2 2.34532655900568 3
7 1 0  2 5 3  -1.15410184788472 -2.0010369623545401 0.17897858344878401  1 -1.4638610350936301 -1.4645183119974601 2.9367477092255002e-18  1.03802697460135 -1.7320508075688801 -0.999999999999999 3.34747420754899e-17  1 -2.0002405800441201 -0.53548168800253504 -3.2264416474958502e-17  1.03802697460135 -2.3099997672530299 0.00103696235453813 0.17897858344878401  1
 0 3 1.17266327950284 2 2.34532655900568 3
2 0 0 0 -0 6.12303176911189e-17 1 1 0 0 0 1 -6.12303176911189e-17 2
7 1 0  2 5 3  1.1558979193683201 -2 0.17897858344878401  1 0.536379544950496 -2 2.3955447001067201e-16  1.03802697460136 -3.8459253727671301e-16 -2 1.9184957442131001e-16  1 -0.536379544950497 -2 1.71900254447577e-16  1.03802697460135 -1.1558979193683201 -2 0.17897858344878401  1
 0 3 1.17266327950284 2 2.34532655900568 3
2 0 0 0 -0 6.12303176911189e-17 1 1 0 0 0 1 -6.12303176911189e-17 2
7 1 0  2 5 3  -1.15410184788472 -2.0010369623545401 0.17897858344878401  1 -1.4638610350936301 -1.4645183119974601 2.9367477092255002e-18  1.03802697460135 -1.7320508075688801 -0.999999999999999 3.34747420754899e-17  1 -2.0002405800441201 -0.53548168800253504 -3.2264416474958502e-17  1.03802697460135 -2.3099997672530299 0.00103696235453813 0.17897858344878401  1
 0 3 1.17266327950284 2 2.34532655900568 3
7 1 0  2 5 3  -2.3099997672530401 -0.00103696235453811 0.17897858344878401  1 -2.0002405800441299 0.53548168800253304 1.63236038911208e-16  1.03802697460134 -1.7320508075688801 1 8.1586213479533793e-18  1 -1.4638610350936301 1.4645183119974701 1.4278002427282599e-16  1.03802697460134 -1.15410184788472 2.0010369623545401 0.17897858344878401  1
 0 3 1.17266327950284 2 2.34532655900568 3
7 1 0  2 5 3  -1.1558979193683201 2 0.17897858344878401  1 -0.536379544950494 2 -3.0026979166986001e-16  1.03802697460134 0 2 -1.5021621099786701e-16  1 0.536379544950494 2 -3.0026979166986001e-16  1.03802697460134 1.1558979193683201 2 0.17897858344878401  1
 0 3 1.17266327950284 2 2.34532655900568 3
2 0 0 0 -0 6.12303176911189e-17 1 1 0 0 0 1 -6.12303176911189e-17 2
7 1 0  2 5 3  -1.1558979193683201 2 0.17897858344878401  1 -0.536379544950494 2 -3.0026979166986001e-16  1.03802697460134 0 2 -1.5021621099786701e-16  1 0.536379544950494 2 -3.0026979166986001e-16  1.03802697460134 1.1558979193683201 2 0.17897858344878401  1
 0 3 1.17266327950284 2 2.34532655900568 3
7 1 0  2 5 3  1.15410184788472 2.0010369623545401 0.17897858344878401  1 1.4638610350936301 1.4645183119974701 1.5405572686667499e-16  1.03802697460134 1.7320508075688801 1 -3.34747420754899e-17  1 2.0002405800441201 0.53548168800253404 -9.0900950319394802e-17  1.03802697460133 2.3099997672530401 -0.0010369623545387 0.17897858344878401  1
 0 3 1.17266327950284 2 2.34532655900568 3
2 0 0 0 -0 6.12303176911189e-17 1 1 0 0 0 1 -6.12303176911189e-17 2
7 1 0  2 5 3  2.3099997672530401 0.0010369623545382501 0.17897858344878401  1 2.0002405800441299 -0.53548168800253104 4.3003938987286002e-16  1.03802697460134 1.7320508075688801 -1 1.86130407961449e-16  1 1.4638610350936301 -1.4645183119974701 4.4529123408331203e-16  1.03802697460134 1.15410184788472 -2.0010369623545401 0.17897858344878401  1
 0 3 1.17266327950284 2 2.34532655900568 3
2 0 0 0 -0 6.12303176911189e-17 1 1 0 0 0 1 -6.12303176911189e-17 2
7 1 0  2 5 3  -1.15410184788472 2.0010369623545401 1.4210214165512201  1 -1.4638610350936301 1.4645183119974701 1.6000000000000001  1.03802697460134 -1.7320508075688801 1 1.6000000000000001  1 -2.0002405800441299 0.53548168800253304 1.6000000000000001  1.03802697460133 -2.3099997672530299 -0.0010369623545369599 1.4210214165512201  1
 0 3 1.17266327950284 2 2.34532655900568 3
2 0 9.7968508305790195e-17 1.6000000000000001 -0 6.12303176911189e-17 1 1 0 0 0 1 -6.12303176911189e-17 2
7 1 0  2 5 3  1.1558979193683201 2 1.4210214165512201  1 0.536379544950494 2 1.6000000000000001  1.03802697460135 0 2 1.6000000000000001  1 -0.536379544950494 2 1.6000000000000001  1.03802697460135 -1.1558979193683201 2 1.4210214165512201  1
 0 3 1.17266327950284 2 2.34532655900568 3
7 1 0  2 5 3  -2.3099997672530299 0.00103696235453761 1.4210214165512201  1 -2.0002405800441201 -0.53548168800253504 1.6000000000000001  1.03802697460135 -1.7320508075688801 -0.999999999999999 1.6000000000000001  1 -1.4638610350936301 -1.4645183119974601 1.6000000000000001  1.03802697460134 -1.15410184788472 -2.0010369623545401 1.4210214165512201  1
 0 3 1.17266327950284 2 2.34532655900568 3
2 0 9.7968508305790195e-17 1.6000000000000001 -0 6.12303176911189e-17 1 1 0 0 0 1 -6.12303176911189e-17 2
7 1 0  2 5 3  -1.1558979193683201 -2 1.4210214165512201  1 -0.536379544950497 -2 1.6000000000000001  1.03802697460135 -3.8459253727671301e-16 -2 1.6000000000000001  1 0.536379544950495 -2 1.6000000000000001  1.03802697460135 1.1558979193683101 -2 1.4210214165512201  1
 0 3 1.17266327950284 2 2.34532655900568 3
2 0 9.7968508305790195e-17 1.6000000000000001 -0 6.12303176911189e-17 1 1 0 0 0 1 -6.12303176911189e-17 2
7 1 0  2 5 3  -2.3099997672530299 0.00103696235453761 1.4210214165512201  1 -2.0002405800441201 -0.53548168800253504 1.6000000000000001  1.03802697460135 -1.7320508075688801 -0.999999999999999 1.6000000000000001  1 -1.4638610350936301 -1.4645183119974601 1.6000000000000001  1.03802697460134 -1.15410184788472 -2.0010369623545401 1.4210214165512201  1
 0 3 1.17266327950284 2 2.34532655900568 3
7 1 0  2 5 3  -1.1558979193683201 -2 1.4210214165512201  1 -0.536379544950497 -2 1.6000000000000001  1.03802697460135 -3.8459253727671301e-16 -2 1.6000000000000001  1 0.536379544950495 -2 1.6000000000000001  1.03802697460135 1.1558979193683101 -2 1.4210214165512201  1
 0 3 1.17266327950284 2 2.34532655900568 3
7 1 0  2 5 3  1.15410184788472 -2.0010369623545401 1.4210214165512201  1 1.4638610350936301 -1.4645183119974701 1.6000000000000001  1.03802697460135 1.7320508075688801 -1 1.6000000000000001  1 2.0002405800441299 -0.53548168800253204 1.6000000000000001  1.03802697460134 2.3099997672530299 0.00103696235453761 1.4210214165512201  1
 0 3 1.17266327950284 2 2.34532655900568 3
2 0 9.7968508305790195e-17 1.6000000000000001 -0 6.12303176911189e-17 1 1 0 0 0 1 -6.12303176911189e-17 2
2 0 9.7968508305790195e-17 1.6000000000000001 -0 6.12303176911189e-17 1 1 0 0 0 1 -6.12303176911189e-17 2
7 1 0  2 5 3  1.15410184788472 -2.0010369623545401 1.4210214165512201  1 1.4638610350936301 -1.4645183119974701 1.6000000000000001  1.03802697460135 1.7320508075688801 -1 1.6000000000000001  1 2.0002405800441299 -0.53548168800253204 1.6000000000000001  1.03802697460134 2.3099997672530299 0.00103696235453761 1.4210214165512201  1
 0 3 1.17266327950284 2 2.34532655900568 3
7 1 0  2 5 3  2.3099997672530299 -0.00103696235453779 1.4210214165512201  1 2.0002405800441201 0.53548168800253404 1.6000000000000001  1.03802697460133 1.7320508075688801 1 1.6000000000000001  1 1.4638610350936301 1.4645183119974701 1.6000000000000001  1.03802697460132 1.15410184788472 2.0010369623545401 1.4210214165512201  1
 0 3 1.17266327950284 2 2.34532655900568 3
7 1 0  2 5 3  1.1558979193683201 2 1.4210214165512201  1 0.536379544950494 2 1.6000000000000001  1.03802697460135 0 2 1.6000000000000001  1 -0.536379544950494 2 1.6000000000000001  1.03802697460135 -1.1558979193683201 2 1.4210214165512201  1
 0 3 1.17266327950284 2 2.34532655900568 3
2 0 9.7968508305790195e-17 1.6000000000000001 -0 6.12303176911189e-17 1 1 0 0 0 1 -6.12303176911189e-17 2
2 0 9.7968508305790195e-17 1.6000000000000001 -0 6.12303176911189e-17 1 1 0 0 0 1 -6.12303176911189e-17 1
2 0 8.4712144525662999e-17 1.3835 -0 6.12303176911189e-17 1 1 0 0 0 1 -6.12303176911189e-17 0.78349999999999997
2 0 1.3256363780127201e-17 0.2165 -0 6.12303176911189e-17 1 1 0 0 0 1 -6.12303176911189e-17 0.78349999999999997
2 0 0 0 -0 6.12303176911189e-17 1 1 0 0 0 1 -6.12303176911189e-17 1
1 -1.1547005383792499 -2 -1 0 6.12303176911189e-17 1 
1 -2.3094010767584998 3.6299043735113902e-16 -1 0 6.12303176911189e-17 1 
1 1.1547005383792499 -2 -1 0 6.12303176911189e-17 1 
1 2.3094010767584998 -2.02640349521106e-16 -1 0 6.12303176911189e-17 1 
1 -1.1547005383792499 2 -1 0 6.12303176911189e-17 1 
1 1.1547005383792499 2 -1 0 6.12303176911189e-17 1 
Polygon3D 0
PolygonOnTriangulations 0
Surfaces 30
3 0 6.6281818900636103e-18 0.10825 0 -6.12303176911189e-17 -1 1 0 0 0 -1 6.12303176911189e-17 0.89175000000000004
0.78539816339744795
2 0 4.8984254152895098e-17 0.80000000000000004 -0 6.12303176911189e-17 1 1 0 0 0 1 -6.12303176911189e-17 0.78349999999999997
3 0 6.6281818900636103e-18 0.10825 0 -6.12303176911189e-17 -1 1 0 0 0 -1 6.12303176911189e-17 0.89175000000000004
0.78539816339744795
1 1.5 0 0 -0 -6.12303176911189e-17 -1 -1 0 0 0 1 -6.12303176911189e-17 
3 0 9.1340326415726597e-17 1.4917499999999999 -0 6.12303176911189e-17 1 1 0 0 0 1 -6.12303176911189e-17 0.89175000000000004
0.78539816339744895
2 0 4.8984254152895098e-17 0.80000000000000004 -0 6.12303176911189e-17 1 1 0 0 0 1 -6.12303176911189e-17 0.78349999999999997
1 1.5 9.7968508305790195e-17 1.6000000000000001 -0 6.12303176911189e-17 1 1 0 0 0 1 -6.12303176911189e-17 
3 0 9.1340326415726597e-17 1.4917499999999999 -0 6.12303176911189e-17 1 1 0 0 0 1 -6.12303176911189e-17 0.89175000000000004
0.78539816339744895
3 0 9.2489050543552403e-17 1.51051070827561 0 -6.12303176911189e-17 -1 1 0 0 0 -1 6.12303176911189e-17 2.1549999999999998
1.0471975511966001
3 0 9.2489050543552403e-17 1.51051070827561 0 -6.12303176911189e-17 -1 1 0 0 0 -1 6.12303176911189e-17 2.1549999999999998
1.0471975511966001
1 1.7320508075688801 1 -1 0.86602540378443882 0.49999999999999989 -3.0615158845559394e-17 -0.49999999999999989 0.86602540378443882 -5.3027010602300679e-17 -2.4651903288156613e-32 6.1230317691118851e-17 1 
3 0 9.2489050543552403e-17 1.51051070827561 0 -6.12303176911189e-17 -1 1 0 0 0 -1 6.12303176911189e-17 2.1549999999999998
1.0471975511966001
3 0 9.2489050543552403e-17 1.51051070827561 0 -6.12303176911189e-17 -1 1 0 0 0 -1 6.12303176911189e-17 2.1549999999999998
1.0471975511966001
1 -1.7320508075688801 1 -1 -0.86602540378443849 0.50000000000000033 -3.0615158845559419e-17 -0.50000000000000033 -0.86602540378443849 5.3027010602300741e-17 7.0874221953450279e-32 6.1230317691118925e-17 1 
3 0 5.4794577622377396e-18 0.089489291724392003 -0 6.12303176911189e-17 1 1 0 0 0 1 -6.12303176911189e-17 2.1549999999999998
1.0471975511966001
3 0 5.4794577622377396e-18 0.089489291724392003 -0 6.12303176911189e-17 1 1 0 0 0 1 -6.12303176911189e-17 2.1549999999999998
1.0471975511966001
3 0 5.4794577622377396e-18 0.089489291724392003 -0 6.12303176911189e-17 1 1 0 0 0 1 -6.12303176911189e-17 2.1549999999999998
1.0471975511966001
3 0 5.4794577622377396e-18 0.089489291724392003 -0 6.12303176911189e-17 1 1 0 0 0 1 -6.12303176911189e-17 2.1549999999999998
1.0471975511966001
3 0 5.4794577622377396e-18 0.089489291724392003 -0 6.12303176911189e-17 1 1 0 0 0 1 -6.12303176911189e-17 2.1549999999999998
1.0471975511966001
1 -8.8817841970012504e-16 -2 -1 -1.9229626863835601e-16 -1 6.12303176911189e-17 1 -1.9229626863835601e-16 1.1774361619543299e-32 -1.642146637880645e-47 6.12303176911189e-17 1 
1 1.7320508075688801 -1 -1 0.86602540378443882 -0.49999999999999989 3.0615158845559394e-17 0.49999999999999989 0.86602540378443882 -5.3027010602300679e-17 2.4651903288156613e-32 6.1230317691118851e-17 1 
3 0 5.4794577622377396e-18 0.089489291724392003 -0 6.12303176911189e-17 1 1 0 0 0 1 -6.12303176911189e-17 2.1549999999999998
1.0471975511966001
1 -1.7320508075688801 -1 -1 -0.86602540378443882 -0.49999999999999989 3.0615158845559394e-17 0.49999999999999989 -0.86602540378443882 5.3027010602300679e-17 -2.4651903288156613e-32 6.1230317691118851e-17 1 
3 0 5.4794577622377396e-18 0.089489291724392003 -0 6.12303176911189e-17 1 1 0 0 0 1 -6.12303176911189e-17 2.1549999999999998
1.0471975511966001
1 4.4408920985006301e-16 2 -1 0 1 -6.12303176911189e-17 -1 0 0 0 6.12303176911189e-17 1 
3 0 5.4794577622377396e-18 0.089489291724392003 -0 6.12303176911189e-17 1 1 0 0 0 1 -6.12303176911189e-17 2.1549999999999998
1.0471975511966001
3 0 9.2489050543552403e-17 1.51051070827561 0 -6.12303176911189e-17 -1 1 0 0 0 -1 6.12303176911189e-17 2.1549999999999998
1.0471975511966001
3 0 9.2489050543552403e-17 1.51051070827561 0 -6.12303176911189e-17 -1 1 0 0 0 -1 6.12303176911189e-17 2.1549999999999998
1.0471975511966001
3 0 9.2489050543552403e-17 1.51051070827561 0 -6.12303176911189e-17 -1 1 0 0 0 -1 6.12303176911189e-17 2.1549999999999998
1.0471975511966001
3 0 9.2489050543552403e-17 1.51051070827561 0 -6.12303176911189e-17 -1 1 0 0 0 -1 6.12303176911189e-17 2.1549999999999998
1.0471975511966001
Triangulations 0

TShapes 164
Ve
1e-07
-0.7835 1.0920427160211e-16 0.2165
0 0

0101101
*
Ve
1e-07
0.7835 1.32563637801272e-17 0.2165
0 0

0101101
*
Ed
 1e-07 1 1 0
1  1 0 3.14159265358979 6.28318530717959
2  1 1 0 3.14159265358979 6.28318530717959
2  2 2 0 3.14159265358979 6.28318530717959
4 C0 1 0 2 0
0

0101000
+164 0 -163 0 *
Ve
1e-07
-1 1.22460635382238e-16 -7.49830360911069e-33
0 0

0101101
*
Ed
 1e-07 1 1 0
1  2 0 -0.153088618126888 0.153088618126888
2  3 1 0 -0.153088618126888 0.153088618126888
2  4 3 0 -0.153088618126888 0.153088618126888
4 CN 1 0 3 0
0

0101000
+164 0 -161 0 *
Ve
1e-07
1 0 0
0 0

0101101
*
Ed
 1e-07 1 1 0
1  3 0 3.14159265358979 6.28318530717959
2  5 1 0 3.14159265358979 6.28318530717959
4 C0 1 0 4 0
0

0101000
+161 0 -159 0 *
Ed
 1e-07 1 1 0
1  4 0 -0.153088618126888 0.153088618126888
2  6 1 0 -0.153088618126888 0.153088618126888
2  7 3 0 -0.153088618126888 0.153088618126888
4 CN 1 0 3 0
0

0101000
+159 0 -163 0 *
Wi

0101100
-162 0 +160 0 +158 0 +157 0 *
Fa
0  1e-07 1 0

0111000
+156 0 *
Ve
1e-07
-0.7835 1.80660052347646e-16 1.3835
0 0

0101101
*
Ve
1e-07
0.7835 8.4712144525663e-17 1.3835
0 0

0101101
*
Ed
 1e-07 1 1 0
1  5 0 3.14159265358979 6.28318530717959
2  8 2 0 3.14159265358979 6.28318530717959
2  9 5 0 3.14159265358979 6.28318530717959
4 C0 2 0 5 0
0

0101000
+154 0 -153 0 *
Ed
 1e-07 1 1 0
1  6 0 -0.5835 0.5835
2  10 2 0 -0.5835 0.5835
2  11 6 0 -0.5835 0.5835
4 CN 2 0 6 0
0

0101000
+154 0 -164 0 *
Ed
 1e-07 1 1 0
1  7 0 -0.5835 0.5835
2  12 2 0 -0.5835 0.5835
2  13 6 0 -0.5835 0.5835
4 CN 2 0 6 0
0

0101000
+163 0 -153 0 *
Wi

0101100
-152 0 +151 0 +162 0 +150 0 *
Fa
0  1e-07 2 0

0111000
+149 0 *
Ve
1e-07
-1 2.20429143688028e-16 1.6
0 0

0101101
*
Ve
1e-07
1 9.79685083057902e-17 1.6
0 0

0101101
*
Ed
 1e-07 1 1 0
1  8 0 3.14159265358979 6.28318530717959
2  14 5 0 3.14159265358979 6.28318530717959
4 C0 5 0 7 0
0

0101000
+147 0 -146 0 *
Ed
 1e-07 1 1 0
1  9 0 -0.153088618126888 0.153088618126888
2  15 5 0 -0.153088618126888 0.153088618126888
2  16 8 0 -0.153088618126888 0.153088618126888
4 CN 5 0 8 0
0

0101000
+147 0 -154 0 *
Ed
 1e-07 1 1 0
1  10 0 -0.153088618126888 0.153088618126888
2  17 5 0 -0.153088618126888 0.153088618126888
2  18 8 0 -0.153088618126888 0.153088618126888
4 CN 5 0 8 0
0

0101000
+153 0 -146 0 *
Wi

0101100
-145 0 +144 0 +152 0 +143 0 *
Fa
0  1e-07 5 0

0111000
+142 0 *
Ve
1e-07
2.3094010767585 -5.43792663092883e-17 1.42136720504592
0 0

0101101
*
Ve
1e-07
2 -1.46952762458685e-16 1.6
0 0

0101101
*
Ed
 1e-07 1 1 0
1  11 0 -0.178287006459377 0.178978583448783
2  19 9 0 -0.178287006459377 0.178978583448783
2  20 10 0 -0.178287006459377 0.178978583448783
4 CN 9 0 10 0
0

0101000
+140 0 -139 0 *
Ve
1e-07
1.73205080756888 1 1.6
0 0

0101101
*
Ed
 1e-07 1 1 0
1  12 0 0.00109190420699128 1.17266327950284
2  21 9 0 0.00109190420699128 1.17266327950284
4 C0 9 0 11 0
0

0101000
+140 0 -137 0 *
Ed
 1e-07 1 1 0
1  13 0 0 0.523598775598298
2  22 9 0 0 0.523598775598298
4 C0 9 0 7 0
0

0101000
+139 0 -137 0 *
Wi

0101100
-138 0 +136 0 -135 0 *
Fa
0  1e-07 9 0

0111000
+134 0 *
Ve
1e-07
-2 3.42889779070265e-16 1.6
0 0

0101101
*
Ve
1e-07
-2.3094010767585 5.11251520562957e-16 1.42136720504592
0 0

0101101
*
Ed
 1e-07 1 1 0
1  14 0 -0.178978583448783 0.178287006459377
2  23 12 0 -0.178978583448783 0.178287006459377
2  24 13 0 -0.178978583448783 0.178287006459377
4 CN 12 0 13 0
0

0101000
+132 0 -131 0 *
Ve
1e-07
-1.73205080756888 1 1.6
0 0

0101101
*
Ed
 1e-07 1 1 0
1  15 0 2.61799387799149 3.14159265358979
2  25 12 0 2.61799387799149 3.14159265358979
4 C0 12 0 7 0
0

0101000
+129 0 -132 0 *
Ed
 1e-07 1 1 0
1  16 0 1.17266327950284 2.34423465479869
2  26 12 0 1.17266327950284 2.34423465479869
4 C0 12 0 14 0
0

0101000
+129 0 -131 0 *
Wi

0101100
-130 0 -128 0 +127 0 *
Fa
0  1e-07 12 0

0111000
+126 0 *
Ve
1e-07
2 -2.44921270764475e-16 7.42059890564657e-33
0 0

0101101
*
Ve
1e-07
2.3094010767585 -1.30472289044897e-16 0.178632794954082
0 0

0101101
*
Ed
 1e-07 1 1 0
1  17 0 -0.178978583448784 0.178287006459377
2  27 15 0 -0.178978583448784 0.178287006459377
2  28 16 0 -0.178978583448784 0.178287006459377
4 CN 15 0 16 0
0

0101000
+124 0 -123 0 *
Ve
1e-07
1.73205080756888 1 -6.12303176911188e-17
0 0

0101101
*
Ed
 1e-07 1 1 0
1  18 0 0 0.523598775598298
2  29 15 0 0 0.523598775598298
4 C0 15 0 4 0
0

0101000
+124 0 -121 0 *
Ed
 1e-07 1 1 0
1  19 0 1.17266327950284 2.34423465479868
2  30 15 0 1.17266327950284 2.34423465479868
4 C0 15 0 11 0
0

0101000
+121 0 -123 0 *
Wi

0101100
-122 0 +120 0 +119 0 *
Fa
0  1e-07 15 0

0111000
+118 0 *
Ve
1e-07
-2.3094010767585 4.35158497827349e-16 0.178632794954082
0 0

0101101
*
Ve
1e-07
-2 2.44921270764475e-16 -7.42059890564657e-33
0 0

0101101
*
Ed
 1e-07 1 1 0
1  20 0 -0.178287006459377 0.178978583448784
2  31 17 0 -0.178287006459377 0.178978583448784
2  32 18 0 -0.178287006459377 0.178978583448784
4 CN 17 0 18 0
0

0101000
+116 0 -115 0 *
Ve
1e-07
-1.73205080756888 1 -6.12303176911189e-17
0 0

0101101
*
Ed
 1e-07 1 1 0
1  21 0 0.0010919042069963 1.17266327950284
2  33 17 0 0.0010919042069963 1.17266327950284
4 C0 17 0 14 0
0

0101000
+116 0 -113 0 *
Ed
 1e-07 1 1 0
1  22 0 2.61799387799149 3.14159265358979
2  34 17 0 2.61799387799149 3.14159265358979
4 C0 17 0 4 0
0

0101000
+113 0 -115 0 *
Wi

0101100
-114 0 +112 0 +111 0 *
Fa
0  1e-07 17 0

0111000
+110 0 *
Ve
1e-07
1.15470053837925 -2 0.178632794954082
0 0

0101101
*
Ve
1e-07
-3.84592537276713e-16 -2 1.22460635382238e-16
0 0

0101101
*
Ed
 1e-07 1 1 0
1  23 0 0.00109190420699779 1.17266327950284
2  35 19 0 0.00109190420699779 1.17266327950284
4 C0 19 0 20 0
0

0101000
+108 0 -107 0 *
Ve
1e-07
1.73205080756888 -1 6.12303176911189e-17
0 0

0101101
*
Ed
 1e-07 1 1 0
1  24 0 4.71238898038469 5.75958653158129
2  36 19 0 4.71238898038469 5.75958653158129
4 C0 19 0 4 0
0

0101000
+107 0 -105 0 *
Ed
 1e-07 1 1 0
1  25 0 1.17266327950284 2.34423465479869
2  37 19 0 1.17266327950284 2.34423465479869
4 C0 19 0 21 0
0

0101000
+105 0 -108 0 *
Wi

0101100
+106 0 +104 0 +103 0 *
Fa
0  1e-07 19 0

0111000
+102 0 *
Ve
1e-07
-1.15470053837925 -2 0.178632794954082
0 0

0101101
*
Ve
1e-07
-1.73205080756888 -0.999999999999999 6.12303176911188e-17
0 0

0101101
*
Ed
 1e-07 1 1 0
1  26 0 0.00109190420699309 1.17266327950284
2  38 22 0 0.00109190420699309 1.17266327950284
4 C0 22 0 23 0
0

0101000
+100 0 -99 0 *
Ed
 1e-07 1 1 0
1  27 0 3.66519142918809 4.71238898038469
2  39 22 0 3.66519142918809 4.71238898038469
4 C0 22 0 4 0
0

0101000
+99 0 -107 0 *
Ed
 1e-07 1 1 0
1  28 0 1.17266327950284 2.34423465479868
2  40 22 0 1.17266327950284 2.34423465479868
4 C0 22 0 20 0
0

0101000
+107 0 -100 0 *
Wi

0101100
+98 0 +97 0 +96 0 *
Fa
0  1e-07 22 0

0111000
+95 0 *
Ed
 1e-07 1 1 0
1  29 0 3.14159265358979 3.66519142918809
2  41 18 0 3.14159265358979 3.66519142918809
4 C0 18 0 4 0
0

0101000
+115 0 -99 0 *
Ed
 1e-07 1 1 0
1  30 0 1.17266327950284 2.34423465479869
2  42 18 0 1.17266327950284 2.34423465479869
4 C0 18 0 23 0
0

0101000
+99 0 -116 0 *
Wi

0101100
+114 0 +93 0 +92 0 *
Fa
0  1e-07 18 0

0111000
+91 0 *
Ve
1e-07
-1.15470053837925 2 0.178632794954081
0 0

0101101
*
Ed
 1e-07 1 1 0
1  31 0 1.17266327950284 2.34423465479869
2  43 24 0 1.17266327950284 2.34423465479869
4 C0 24 0 14 0
0

0101000
+113 0 -89 0 *
Ve
1e-07
0 2 -1.22460635382238e-16
0 0

0101101
*
Ed
 1e-07 1 1 0
1  32 0 0.00109190420699793 1.17266327950284
2  44 24 0 0.00109190420699793 1.17266327950284
4 C0 24 0 25 0
0

0101000
+89 0 -87 0 *
Ed
 1e-07 1 1 0
1  33 0 1.5707963267949 2.61799387799149
2  45 24 0 1.5707963267949 2.61799387799149
4 C0 24 0 4 0
0

0101000
+87 0 -113 0 *
Wi

0101100
+88 0 +86 0 +85 0 *
Fa
0  1e-07 24 0

0111000
+84 0 *
Ve
1e-07
1.15470053837925 2 0.178632794954081
0 0

0101101
*
Ed
 1e-07 1 1 0
1  34 0 1.17266327950284 2.34423465479868
2  46 26 0 1.17266327950284 2.34423465479868
4 C0 26 0 25 0
0

0101000
+87 0 -82 0 *
Ed
 1e-07 1 1 0
1  35 0 0.00109190420699357 1.17266327950284
2  47 26 0 0.00109190420699357 1.17266327950284
4 C0 26 0 11 0
0

0101000
+82 0 -121 0 *
Ed
 1e-07 1 1 0
1  36 0 0.523598775598298 1.5707963267949
2  48 26 0 0.523598775598298 1.5707963267949
4 C0 26 0 4 0
0

0101000
+121 0 -87 0 *
Wi

0101100
+81 0 +80 0 +79 0 *
Fa
0  1e-07 26 0

0111000
+78 0 *
Ed
 1e-07 1 1 0
1  37 0 0.00109190420699614 1.17266327950284
2  49 16 0 0.00109190420699614 1.17266327950284
4 C0 16 0 21 0
0

0101000
+123 0 -105 0 *
Ed
 1e-07 1 1 0
1  38 0 5.75958653158129 6.28318530717959
2  50 16 0 5.75958653158129 6.28318530717959
4 C0 16 0 4 0
0

0101000
+105 0 -124 0 *
Wi

0101100
+122 0 +76 0 +75 0 *
Fa
0  1e-07 16 0

0111000
+74 0 *
Ve
1e-07
-1.15470053837925 2 1.42136720504592
0 0

0101101
*
Ed
 1e-07 1 1 0
1  39 0 0.00109190420699278 1.17266327950284
2  51 27 0 0.00109190420699278 1.17266327950284
4 C0 27 0 14 0
0

0101000
+72 0 -129 0 *
Ve
1e-07
0 2 1.6
0 0

0101101
*
Ed
 1e-07 1 1 0
1  40 0 1.5707963267949 2.61799387799149
2  52 27 0 1.5707963267949 2.61799387799149
4 C0 27 0 7 0
0

0101000
+70 0 -129 0 *
Ed
 1e-07 1 1 0
1  41 0 1.17266327950284 2.34423465479868
2  53 27 0 1.17266327950284 2.34423465479868
4 C0 27 0 25 0
0

0101000
+70 0 -72 0 *
Wi

0101100
+71 0 -69 0 +68 0 *
Fa
0  1e-07 27 0

0111000
+67 0 *
Ve
1e-07
-1.73205080756888 -0.999999999999999 1.6
0 0

0101101
*
Ed
 1e-07 1 1 0
1  42 0 0.00109190420699066 1.17266327950284
2  54 13 0 0.00109190420699066 1.17266327950284
4 C0 13 0 23 0
0

0101000
+131 0 -65 0 *
Ed
 1e-07 1 1 0
1  43 0 3.14159265358979 3.66519142918809
2  55 13 0 3.14159265358979 3.66519142918809
4 C0 13 0 7 0
0

0101000
+132 0 -65 0 *
Wi

0101100
+130 0 +64 0 -63 0 *
Fa
0  1e-07 13 0

0111000
+62 0 *
Ve
1e-07
-1.15470053837925 -2 1.42136720504592
0 0

0101101
*
Ve
1e-07
-3.84592537276713e-16 -2 1.6
0 0

0101101
*
Ed
 1e-07 1 1 0
1  44 0 0.00109190420699713 1.17266327950284
2  56 28 0 0.00109190420699713 1.17266327950284
4 C0 28 0 20 0
0

0101000
+60 0 -59 0 *
Ed
 1e-07 1 1 0
1  45 0 3.66519142918809 4.71238898038469
2  57 28 0 3.66519142918809 4.71238898038469
4 C0 28 0 7 0
0

0101000
+65 0 -59 0 *
Ed
 1e-07 1 1 0
1  46 0 1.17266327950284 2.34423465479869
2  58 28 0 1.17266327950284 2.34423465479869
4 C0 28 0 23 0
0

0101000
+65 0 -60 0 *
Wi

0101100
+58 0 -57 0 +56 0 *
Fa
0  1e-07 28 0

0111000
+55 0 *
Ve
1e-07
1.15470053837925 -2 1.42136720504592
0 0

0101101
*
Ed
 1e-07 1 1 0
1  47 0 1.17266327950284 2.34423465479869
2  59 29 0 1.17266327950284 2.34423465479869
4 C0 29 0 20 0
0

0101000
+59 0 -53 0 *
Ve
1e-07
1.73205080756888 -1 1.6
0 0

0101101
*
Ed
 1e-07 1 1 0
1  48 0 0.00109190420699268 1.17266327950284
2  60 29 0 0.00109190420699268 1.17266327950284
4 C0 29 0 21 0
0

0101000
+53 0 -51 0 *
Ed
 1e-07 1 1 0
1  49 0 4.71238898038469 5.75958653158129
2  61 29 0 4.71238898038469 5.75958653158129
4 C0 29 0 7 0
0

0101000
+59 0 -51 0 *
Wi

0101100
+52 0 +50 0 -49 0 *
Fa
0  1e-07 29 0

0111000
+48 0 *
Ed
 1e-07 1 1 0
1  50 0 5.75958653158129 6.28318530717959
2  62 10 0 5.75958653158129 6.28318530717959
4 C0 10 0 7 0
0

0101000
+51 0 -139 0 *
Ed
 1e-07 1 1 0
1  51 0 1.17266327950284 2.34423465479869
2  63 10 0 1.17266327950284 2.34423465479869
4 C0 10 0 21 0
0

0101000
+51 0 -140 0 *
Wi

0101100
+138 0 -46 0 +45 0 *
Fa
0  1e-07 10 0

0111000
+44 0 *
Ve
1e-07
1.15470053837925 2 1.42136720504592
0 0

0101101
*
Ed
 1e-07 1 1 0
1  52 0 1.17266327950284 2.34423465479869
2  64 30 0 1.17266327950284 2.34423465479869
4 C0 30 0 11 0
0

0101000
+137 0 -42 0 *
Ed
 1e-07 1 1 0
1  53 0 0.00109190420699712 1.17266327950284
2  65 30 0 0.00109190420699712 1.17266327950284
4 C0 30 0 25 0
0

0101000
+42 0 -70 0 *
Ed
 1e-07 1 1 0
1  54 0 0.523598775598298 1.5707963267949
2  66 30 0 0.523598775598298 1.5707963267949
4 C0 30 0 7 0
0

0101000
+137 0 -70 0 *
Wi

0101100
+41 0 +40 0 -39 0 *
Fa
0  1e-07 30 0

0111000
+38 0 *
Ed
 1e-07 1 1 0
1  55 0 0 3.14159265358979
2  67 8 0 0 3.14159265358979
4 C0 7 0 8 0
0

0101000
+146 0 -147 0 *
Wi

0101100
-36 0 -145 0 *
Wi

0101100
+46 0 +135 0 +39 0 +69 0 +128 0 +63 0 +57 0 +49 0 *
Fa
0  1e-07 7 0

0111000
+35 0 +34 0 *
Ed
 1e-07 1 1 0
1  56 0 0 3.14159265358979
2  68 8 0 0 3.14159265358979
2  69 6 0 0 3.14159265358979
4 C0 8 0 6 0
0

0101000
+153 0 -154 0 *
Wi

0101100
+32 0 -144 0 -36 0 -143 0 *
Fa
0  1e-07 8 0

0111000
+31 0 *
Ed
 1e-07 1 1 0
1  57 0 0 3.14159265358979
2  70 6 0 0 3.14159265358979
2  71 3 0 0 3.14159265358979
4 C0 6 0 3 0
0

0101000
+163 0 -164 0 *
Wi

0101100
+29 0 -151 0 -32 0 -150 0 *
Fa
0  1e-07 6 0

0111000
+28 0 *
Ed
 1e-07 1 1 0
1  58 0 0 3.14159265358979
2  72 3 0 0 3.14159265358979
4 C0 3 0 4 0
0

0101000
+159 0 -161 0 *
Wi

0101100
+26 0 -160 0 -29 0 -157 0 *
Fa
0  1e-07 3 0

0111000
+25 0 *
Wi

0101100
-75 0 -104 0 -97 0 -93 0 -111 0 -85 0 -79 0 -120 0 *
Wi

0101100
+26 0 +158 0 *
Fa
0  1e-07 4 0

0111000
+23 0 +22 0 *
Ed
 1e-07 1 1 0
1  59 0 1.17863279495408 2.42136720504592
4 C0 23 0 20 0
0

0101000
+100 0 -60 0 *
Ed
 1e-07 1 1 0
1  60 0 1.17863279495408 2.42136720504592
4 C0 23 0 14 0
0

0101000
+116 0 -131 0 *
Wi

0101100
-92 0 -98 0 +20 0 -56 0 -64 0 -19 0 *
Fa
0  1e-07 23 0

0111000
+18 0 *
Ed
 1e-07 1 1 0
1  61 0 1.17863279495408 2.42136720504592
4 C0 20 0 21 0
0

0101000
+108 0 -53 0 *
Wi

0101100
-96 0 -106 0 +16 0 -52 0 -58 0 -20 0 *
Fa
0  1e-07 20 0

0111000
+15 0 *
Ed
 1e-07 1 1 0
1  62 0 1.17863279495408 2.42136720504592
4 C0 21 0 11 0
0

0101000
+123 0 -140 0 *
Wi

0101100
-103 0 -76 0 +13 0 -45 0 -50 0 -16 0 *
Fa
0  1e-07 21 0

0111000
+12 0 *
Ed
 1e-07 1 1 0
1  63 0 1.17863279495408 2.42136720504592
4 C0 14 0 25 0
0

0101000
+89 0 -72 0 *
Wi

0101100
-112 0 +19 0 -127 0 -71 0 -10 0 -88 0 *
Fa
0  1e-07 14 0

0111000
+9 0 *
Ed
 1e-07 1 1 0
1  64 0 1.17863279495408 2.42136720504592
4 C0 25 0 11 0
0

0101000
+82 0 -42 0 *
Wi

0101100
-86 0 +10 0 -68 0 -40 0 -7 0 -81 0 *
Fa
0  1e-07 25 0

0111000
+6 0 *
Wi

0101100
-80 0 +7 0 -41 0 -136 0 -13 0 -119 0 *
Fa
0  1e-07 11 0

0111000
+4 0 *
Sh

0101100
-155 0 -148 0 -141 0 +133 0 +125 0 +117 0 +109 0 +101 0 +94 0 +90 0 
+83 0 +77 0 +73 0 +66 0 +61 0 +54 0 +47 0 +43 0 +37 0 +33 0 
-30 0 -27 0 -24 0 +21 0 +17 0 +14 0 +11 0 +8 0 +5 0 +3 0 
*
So

0100000
+2 0 *

+1 0 