DBRep_DrawableShape

CASCADE Topology V1, (c) Matra-Datavision
Locations 0
Curve2ds 72
1 6.2831853071795862 -0.3827215453172188 -1 0 
1 0 -2.4587500000000002 1 0 
1 3.1415926535897931 -1.1102230246251565e-16 0 1 
1 3.1415926535897931 -1.1102230246251565e-16 0 1 
1 6.2831853071795862 0.3827215453172188 -1 0 
1 0 1.1102230246251565e-16 0 -1 
1 6.2831853071795862 1.1102230246251565e-16 0 -1 
1 0 2.4587500000000002 1 0 
1 0 -0.38272154531721869 1 0 
1 3.1415926535897931 0 0 -1 
1 3.1415926535897931 0 0 -1 
1 6.2831853071795862 0 0 1 
1 0 0 0 1 
1 0 0.38272154531721869 1 0 
1 3.1415926535897931 0 0 -1 
1 3.1415926535897931 0 0 -1 
1 6.2831853071795862 0 0 1 
1 0 0 0 1 
1 6.2831853071795862 2.7755575615628914e-16 0 -1 
1 0 2.7755575615628914e-16 0 -1 
7 0 0  3 25 23  6.2831853071795862 0.44571751614844596  6.2758868504764278 0.41762647077993925  6.2612227562240861 0.36295861563410409  6.2390279315978194 0.28538887337589652  6.2166371865617602 0.21213682598076644  6.194053621537055 0.14310100534691692  6.171280562550943 0.078187815377911057  6.1483215948205956 0.017312365220589633  6.125180556536403 -0.039602205152418531  6.1018615424590497 -0.092624942299419269  6.0783689039853508 -0.14181736927648658  6.0547072492106286 -0.18723370904431222  6.0308814419977335 -0.22892108092949182  6.0068966002776589 -0.26691966143300089  5.9827580934846942 -0.30126281329227256  5.9584715391248544 -0.33197718279132421  5.9340427984405144 -0.35908276665343203  5.9094779712095162 -0.38259294676746214  5.8847833894820392 -0.40251450039611153  5.8599656109555278 -0.41884755742735064  5.8350314093701998 -0.43158560959312514  5.8099877717175188 -0.44071517759839834  5.7848418657709129 -0.44621660299598226  5.76801469806301 -0.44744585787151475  5.7595865315812871 -0.44744645862196303 
 0.0027297605174761261 4 0.13586287134654948 1 0.26899598217562287 1 0.40212909300469624 1 0.53526220383376955 1 0.66839531466284297 1 0.80152842549191627 1 0.93466153632098958 1 1.067794647150063 1 1.2009277579791364 1 1.3340608688082098 1 1.467193979637283 1 1.6003270904663565 1 1.7334602012954299 1 1.8665933121245031 1 1.9997264229535765 1 2.1328595337826499 1 2.2659926446117233 1 2.3991257554407968 1 2.5322588662698702 1 2.6653919770989436 1 2.7985250879280166 1 2.93165819875709 4
1 6.2831853071795862 -0.44744645862195997 -1 0 
1 3.1415926535897931 0 0 1 
1 3.1415926535897931 0 0 1 
1 6.2831853071795862 -0.44744645862195531 -1 -1.4842588513496404e-15 
7 0 0  3 25 23  3.6651914291880923 -0.44744645862196303  3.6567632627063675 -0.44744585787151386  3.6399360949984665 -0.44621660299598159  3.6147901890518592 -0.4407151775984004  3.58974655139918 -0.43158560959312409  3.5648123498138506 -0.4188475574273513  3.5399945712873393 -0.40251450039611264  3.5152999895598649 -0.38259294676746242  3.4907351623288627 -0.35908276665343031  3.4663064216445272 -0.33197718279132438  3.4420198672846842 -0.30126281329227145  3.4178813604917213 -0.26691966143299817  3.3938965187716468 -0.22892108092949207  3.370070711558752 -0.18723370904430919  3.346409056784029 -0.1418173692764868  3.3229164183103297 -0.092624942299417465  3.2995974042329768 -0.039602205152415033  3.2764563659487851 0.017312365220592429  3.2534973982184368 0.078187815377912862  3.2307243392323262 0.14310100534692377  3.2081407742076196 0.21213682598076999  3.1857500291715617 0.28538887337590252  3.1635552045452928 0.36295861563410575  3.1488911102929524 0.4176264707799423  3.1415926535897936 0.44571751614845201 
 2.9316581987571002 4 3.0647913095861736 1 3.1979244204152475 1 3.3310575312443209 1 3.4641906420733948 1 3.5973237529024682 1 3.7304568637315416 1 3.8635899745606155 1 3.9967230853896889 1 4.1298561962187623 1 4.2629893070478362 1 4.39612241787691 1 4.529255528705983 1 4.6623886395350569 1 4.7955217503641308 1 4.9286548611932037 1 5.0617879720222776 1 5.1949210828513515 1 5.3280541936804244 1 5.4611873045094983 1 5.5943204153385722 1 5.7274535261676451 1 5.860586636996719 4
1 0 0 0 1 
1 6.2831853071795862 0 0 1 
1 0 -0.44744645862196014 1 0 
7 0 0  3 25 23  0.52359877559829915 -0.44744645862196314  0.51517060911657175 -0.44744585787151381  0.49834344140866982 -0.44621660299598093  0.47319753546206744 -0.44071517759839929  0.44815389780938553 -0.43158560959312547  0.42321969622405842 -0.41884755742735158  0.39840191769754441 -0.40251450039610975  0.37370733597007177 -0.38259294676746347  0.34914250873906827 -0.35908276665342881  0.32471376805473273 -0.33197718279132316  0.30042721369489112 -0.30126281329227378  0.27628870690192731 -0.26691966143299672  0.25230386518185366 -0.22892108092949337  0.22847805796896026 -0.18723370904431211  0.20481640319423544 -0.14181736927648581  0.18132376472053835 -0.092624942299421628  0.15800475064318054 -0.039602205152418912  0.1348637123589933 0.017312365220587628  0.11190474462864497 0.078187815377910766  0.089131685642533931 0.14310100534691592  0.066548120617826889 0.21213682598076905  0.044157375581773017 0.28538887337589791  0.021962550955497484 0.36295861563410614  0.0072984567031575409 0.4176264707799428  0 0.44571751614845068 
 2.9316581987571002 4 3.0647913095861736 1 3.197924420415247 1 3.3310575312443209 1 3.4641906420733943 1 3.5973237529024678 1 3.7304568637315416 1 3.863589974560615 1 3.9967230853896885 1 4.1298561962187623 1 4.2629893070478353 1 4.3961224178769092 1 4.529255528705983 1 4.662388639535056 1 4.7955217503641299 1 4.9286548611932037 1 5.0617879720222767 1 5.1949210828513497 1 5.3280541936804235 1 5.4611873045094974 1 5.5943204153385704 1 5.7274535261676442 1 5.8605866369967181 4
1 3.1415926535897931 -1.6653345369377348e-16 0 -1 
1 3.1415926535897931 -1.6653345369377348e-16 0 -1 
7 0 0  3 25 23  3.1415926535897931 0.44571751614844979  3.1342941968866334 0.41762647077994092  3.1196301026342934 0.3629586156341042  3.0974352780080223 0.28538887337589802  3.0750445329719662 0.21213682598076417  3.0524609679472605 0.14310100534691708  3.029687908961149 0.078187815377910697  3.0067289412308011 0.017312365220585917  2.983587902946609 -0.039602205152417302  2.9602688888692565 -0.092624942299421392  2.9367762503955568 -0.14181736927648872  2.9131145956208342 -0.18723370904431108  2.889288788407939 -0.22892108092949418  2.8653039466878654 -0.26691966143299956  2.8411654398949011 -0.30126281329227167  2.8168788855350604 -0.33197718279132393  2.7924501448507231 -0.35908276665342859  2.7678853176197231 -0.3825929467674638  2.7431907358922478 -0.40251450039610931  2.7183729573657369 -0.4188475574273538  2.6934387557804067 -0.43158560959312259  2.668395118127727 -0.44071517759840007  2.6432492121811206 -0.44621660299598115  2.6264220444732183 -0.44744585787151336  2.617993877991494 -0.44744645862196253 
 0.0027297605174830589 4 0.13586287134655656 1 0.26899598217563009 1 0.40212909300470356 1 0.53526220383377709 1 0.66839531466285063 1 0.80152842549192405 1 0.93466153632099758 1 1.067794647150071 1 1.2009277579791444 1 1.3340608688082181 1 1.4671939796372915 1 1.6003270904663649 1 1.7334602012954385 1 1.866593312124512 1 1.9997264229535856 1 2.1328595337826592 1 2.2659926446117327 1 2.3991257554408061 1 2.5322588662698799 1 2.6653919770989534 1 2.7985250879280268 1 2.9316581987571002 4
1 0 -0.44744645862195548 1 -1.4842588513496404e-15 
7 0 0  3 25 23  5.2359877559829888 0.44571751614844912  5.2286892992798286 0.41762647077993925  5.2140252050274887 0.36295861563410226  5.1918303804012194 0.28538887337589858  5.1694396353651619 0.21213682598076541  5.1468560703404558 0.14310100534691658  5.1240830113543439 0.078187815377911529  5.1011240436239991 0.017312365220588165  5.0779830053398038 -0.039602205152417101  5.0546639912624522 -0.092624942299419366  5.0311713527887525 -0.1418173692764873  5.0075096980140303 -0.18723370904430861  4.9836838908011361 -0.2289210809294917  4.9596990490810606 -0.26691966143299772  4.9355605422880986 -0.30126281329227128  4.9112739879282561 -0.33197718279132277  4.8868452472439197 -0.35908276665342864  4.8622804200129188 -0.38259294676746008  4.8375858382854435 -0.40251450039610975  4.8127680597589313 -0.4188475574273503  4.7878338581736024 -0.43158560959312148  4.7627902205209214 -0.44071517759839829  4.7376443145743181 -0.44621660299597971  4.7208171468664144 -0.44744585787151159  4.7123889803846897 -0.4474464586219602 
 0.0027297605174812305 4 0.13586287134655481 1 0.26899598217562842 1 0.40212909300470201 1 0.53526220383377554 1 0.66839531466284918 1 0.80152842549192271 1 0.93466153632099624 1 1.0677946471500699 1 1.2009277579791435 1 1.3340608688082172 1 1.4671939796372906 1 1.6003270904663642 1 1.7334602012954379 1 1.8665933121245113 1 1.9997264229535849 1 2.1328595337826588 1 2.2659926446117322 1 2.3991257554408061 1 2.5322588662698795 1 2.6653919770989534 1 2.7985250879280268 1 2.9316581987571002 4
1 0 -0.44744645862196014 1 0 
7 0 0  3 25 23  5.7595865315812871 -0.44744645862196242  5.7511583650995624 -0.44744585787151286  5.7343311973916622 -0.44621660299598098  5.7091852914450527 -0.44071517759840106  5.6841416537923752 -0.43158560959312331  5.6592074522070446 -0.41884755742734958  5.6343896736805341 -0.40251450039611086  5.6096950919530606 -0.38259294676746081  5.585130264722058 -0.35908276665343286  5.5607015240377216 -0.33197718279132249  5.5364149696778808 -0.30126281329227134  5.5122764628849161 -0.2669196614329995  5.4882916211648407 -0.22892108092949112  5.4644658139519482 -0.18723370904431016  5.4408041591772252 -0.14181736927648692  5.4173115207035245 -0.092624942299418173  5.3939925066261711 -0.03960220515241749  5.3708514683419795 0.017312365220590455  5.3478925006116329 0.078187815377909212  5.325119441625521 0.14310100534692025  5.3025358766008148 0.21213682598076608  5.2801451315647583 0.28538887337589769  5.2579503069384872 0.3629586156341017  5.2432862126861473 0.41762647077993781  5.2359877559829888 0.44571751614844646 
 2.9316581987571002 4 3.0647913095861741 1 3.1979244204152475 1 3.3310575312443214 1 3.4641906420733948 1 3.5973237529024686 1 3.7304568637315425 1 3.8635899745606164 1 3.9967230853896898 1 4.1298561962187632 1 4.2629893070478371 1 4.3961224178769109 1 4.5292555287059848 1 4.6623886395350578 1 4.7955217503641325 1 4.9286548611932055 1 5.0617879720222794 1 5.1949210828513532 1 5.3280541936804262 1 5.461187304509501 1 5.5943204153385739 1 5.7274535261676478 1 5.8605866369967217 4
7 0 0  3 25 23  4.1887902047863905 0.44571751614844779  4.1814917480832312 0.41762647077993881  4.1668276538308913 0.36295861563410292  4.1446328292046219 0.28538887337589997  4.1222420841685636 0.21213682598076772  4.0996585191438584 0.14310100534691975  4.0768854601577473 0.078187815377910627  4.0539264924273999 0.01731236522059269  4.0307854541432082 -0.039602205152416629  4.0074664400658548 -0.092624942299417867  3.9839738015921555 -0.1418173692764868  3.960312146817432 -0.18723370904431086  3.9364863396045364 -0.22892108092949132  3.9125014978844641 -0.26691966143299706  3.8883629910914976 -0.30126281329227123  3.8640764367316578 -0.33197718279132493  3.8396476960473209 -0.35908276665343208  3.8150828688163196 -0.38259294676746086  3.7903882870888452 -0.40251450039611186  3.7655705085623321 -0.41884755742735019  3.7406363069770046 -0.43158560959312425  3.715592669324324 -0.44071517759839712  3.6904467633777185 -0.44621660299598154  3.6736195956698166 -0.44744585787151425  3.6651914291880923 -0.44744645862196253 
 0.0027297605174781661 4 0.13586287134655189 1 0.26899598217562559 1 0.40212909300469929 1 0.5352622038337731 1 0.66839531466284685 1 0.80152842549192049 1 0.93466153632099425 1 1.0677946471500679 1 1.2009277579791415 1 1.3340608688082154 1 1.467193979637289 1 1.6003270904663627 1 1.7334602012954365 1 1.8665933121245102 1 1.999726422953584 1 2.1328595337826579 1 2.2659926446117318 1 2.3991257554408052 1 2.5322588662698791 1 2.6653919770989529 1 2.7985250879280263 1 2.9316581987571002 4
1 -4.4408920985006262e-16 -0.44744645862196014 1 0 
7 0 0  3 25 23  4.7123889803846897 -0.4474464586219602  4.7039608139029649 -0.44744585787151148  4.687133646195063 -0.44621660299597965  4.6619877402484562 -0.44071517759839834  4.6369441025957752 -0.43158560959312142  4.6120099010104472 -0.41884755742735069  4.5871921224839349 -0.40251450039610887  4.5624975407564605 -0.38259294676746003  4.5379327135254606 -0.3590827666534302  4.5135039728411224 -0.33197718279132121  4.4892174184812808 -0.3012628132922715  4.4650789116883187 -0.26691966143299817  4.4410940699682433 -0.22892108092949018  4.417268262755349 -0.18723370904431022  4.3936066079806269 -0.14181736927648678  4.370113969506928 -0.092624942299420268  4.3467949554295746 -0.039602205152419391  4.3236539171453821 0.017312365220589224  4.3006949494150346 0.078187815377909378  4.2779218904289245 0.14310100534691864  4.2553383254042174 0.21213682598076508  4.2329475803681591 0.28538887337589808  4.2107527557418907 0.36295861563410359  4.1960886614895507 0.41762647077994008  4.1887902047863905 0.44571751614844912 
 2.9316581987571002 4 3.0647913095861736 1 3.1979244204152475 1 3.3310575312443209 1 3.4641906420733948 1 3.5973237529024682 1 3.7304568637315416 1 3.8635899745606155 1 3.9967230853896889 1 4.1298561962187623 1 4.2629893070478362 1 4.39612241787691 1 4.529255528705983 1 4.6623886395350569 1 4.7955217503641308 1 4.9286548611932037 1 5.0617879720222776 1 5.1949210828513515 1 5.3280541936804244 1 5.4611873045094983 1 5.5943204153385722 1 5.7274535261676451 1 5.860586636996719 4
1 0 -0.44744645862196014 1 0 
7 0 0  3 25 23  3.6651914291880923 -0.44744645862196253  3.6567632627063675 -0.44744585787151336  3.6399360949984669 -0.44621660299598176  3.6147901890518597 -0.44071517759840234  3.58974655139918 -0.43158560959312253  3.5648123498138502 -0.41884755742735175  3.5399945712873393 -0.40251450039611236  3.5152999895598636 -0.38259294676746197  3.4907351623288645 -0.35908276665343214  3.4663064216445254 -0.33197718279132465  3.442019867284686 -0.30126281329227234  3.4178813604917213 -0.26691966143299939  3.3938965187716463 -0.22892108092949109  3.3700707115587525 -0.1872337090443113  3.3464090567840294 -0.14181736927648339  3.3229164183103292 -0.0926249422994187  3.2995974042329763 -0.039602205152414575  3.2764563659487838 0.017312365220590979  3.2534973982184354 0.078187815377912126  3.2307243392323248 0.14310100534692155  3.2081407742076196 0.21213682598076866  3.185750029171563 0.28538887337589852  3.163555204545291 0.36295861563410753  3.148891110292952 0.41762647077994364  3.1415926535897931 0.44571751614845068 
 2.9316581987571002 4 3.0647913095861736 1 3.197924420415247 1 3.3310575312443209 1 3.4641906420733943 1 3.5973237529024678 1 3.7304568637315416 1 3.863589974560615 1 3.9967230853896885 1 4.1298561962187623 1 4.2629893070478353 1 4.3961224178769092 1 4.529255528705983 1 4.662388639535056 1 4.7955217503641299 1 4.9286548611932037 1 5.0617879720222767 1 5.1949210828513497 1 5.3280541936804235 1 5.4611873045094974 1 5.5943204153385704 1 5.7274535261676442 1 5.8605866369967181 4
7 0 0  3 25 23  2.617993877991494 -0.44744645862196253  2.6095657115097697 -0.44744585787151309  2.5927385438018673 -0.44621660299598093  2.5675926378552609 -0.44071517759840095  2.5425490002025817 -0.43158560959312409  2.5176147986172519 -0.41884755742735169  2.4927970200907392 -0.40251450039611164  2.4681024383632657 -0.38259294676746181  2.4435376111322649 -0.35908276665343419  2.4191088704479276 -0.3319771827913226  2.3948223160880864 -0.30126281329227173  2.3706838092951217 -0.26691966143300094  2.346698967575048 -0.22892108092949301  2.3228731603621533 -0.18723370904430967  2.2992115055874307 -0.14181736927649055  2.2757188671137309 -0.092624942299420199  2.252399853036378 -0.03960220515242014  2.2292588147521859 0.017312365220587177  2.2062998470218385 0.078187815377907796  2.183526788035727 0.14310100534691678  2.1609432230110217 0.21213682598076236  2.1385524779749647 0.28538887337589386  2.1163576533486941 0.36295861563410114  2.1016935590963546 0.4176264707799357  2.0943951023931953 0.44571751614844191 
 2.9316581987571002 4 3.0647913095861732 1 3.1979244204152466 1 3.3310575312443196 1 3.464190642073393 1 3.597323752902466 1 3.730456863731539 1 3.8635899745606124 1 3.9967230853896858 1 4.1298561962187588 1 4.2629893070478317 1 4.3961224178769047 1 4.5292555287059777 1 4.6623886395350516 1 4.7955217503641245 1 4.9286548611931975 1 5.0617879720222714 1 5.1949210828513444 1 5.3280541936804173 1 5.4611873045094903 1 5.5943204153385633 1 5.7274535261676363 1 5.8605866369967101 4
7 0 0  3 25 23  2.0943951023931957 0.44571751614844946  2.0870966456900364 0.4176264707799402  2.072432551437696 0.36295861563410303  2.0502377268114262 0.28538887337589719  2.0278469817753693 0.21213682598076805  2.0052634167506631 0.14310100534692069  1.9824903577645525 0.07818781537791078  1.9595313900342053 0.017312365220590691  1.9363903517500125 -0.039602205152418191  1.9130713376726598 -0.092624942299419089  1.88957869919896 -0.14181736927648431  1.8659170444242374 -0.18723370904430883  1.8420912372113427 -0.22892108092949112  1.8181063954912684 -0.26691966143299783  1.7939678886983044 -0.30126281329227017  1.7696813343384634 -0.33197718279132093  1.7452525936541259 -0.35908276665343114  1.7206877664231246 -0.38259294676746014  1.6959931846956515 -0.40251450039611042  1.6711754061691386 -0.41884755742734753  1.6462412045838093 -0.4315856095931222  1.6211975669311292 -0.44071517759839801  1.5960516609845239 -0.44621660299597987  1.5792244932766208 -0.44744585787151148  1.5707963267948966 -0.44744645862196014 
 0.0027297605174814287 4 0.135862871346555 1 0.26899598217562859 1 0.40212909300470218 1 0.53526220383377576 1 0.6683953146628494 1 0.80152842549192294 1 0.93466153632099647 1 1.0677946471500701 1 1.2009277579791438 1 1.3340608688082174 1 1.4671939796372908 1 1.6003270904663645 1 1.7334602012954381 1 1.8665933121245115 1 1.9997264229535852 1 2.1328595337826588 1 2.2659926446117322 1 2.3991257554408061 1 2.5322588662698795 1 2.6653919770989534 1 2.7985250879280268 1 2.9316581987571002 4
1 0 -0.44744645862196131 1 7.421294256748208e-16 
7 0 0  3 25 23  1.5707963267948966 -0.44744645862196014  1.562368160313172 -0.44744585787151148  1.5455409926052699 -0.44621660299597976  1.5203950866586637 -0.44071517759839807  1.4953514490059836 -0.43158560959312214  1.4704172474206543 -0.41884755742734764  1.4455994688941425 -0.40251450039611036  1.4209048871666679 -0.38259294676746064  1.396340059935667 -0.35908276665342981  1.3719113192513304 -0.33197718279132121  1.3476247648914885 -0.30126281329227034  1.3234862580985249 -0.26691966143299645  1.2995014163784506 -0.22892108092949187  1.2756756091655557 -0.18723370904430731  1.2520139543908333 -0.14181736927648461  1.2285213159171335 -0.092624942299419477  1.2052023018397811 -0.039602205152416484  1.1820612635555885 0.01731236522058963  1.1591022958252408 0.078187815377913306  1.1363292368391298 0.14310100534692047  1.1137456718144243 0.2121368259807673  1.0913549267783664 0.28538887337590041  1.0691601021520973 0.36295861563410481  1.0544960078997569 0.41762647077994075  1.0471975511965976 0.44571751614844946 
 2.9316581987571002 4 3.0647913095861736 1 3.1979244204152475 1 3.3310575312443209 1 3.4641906420733948 1 3.5973237529024682 1 3.7304568637315416 1 3.8635899745606155 1 3.9967230853896889 1 4.1298561962187623 1 4.2629893070478362 1 4.39612241787691 1 4.529255528705983 1 4.6623886395350569 1 4.7955217503641308 1 4.9286548611932037 1 5.0617879720222776 1 5.1949210828513515 1 5.3280541936804244 1 5.4611873045094983 1 5.5943204153385722 1 5.7274535261676451 1 5.860586636996719 4
7 0 0  3 25 23  1.0471975511965979 0.44571751614844762  1.0398990944934383 0.41762647077993786  1.0252350002410979 0.3629586156341007  1.0030401756148284 0.28538887337589702  0.98064943057877096 0.21213682598076403  0.95806586555406514 0.14310100534692044  0.93529280656795388 0.078187815377908226  0.91233383883760666 0.017312365220588648  0.88919280055341388 -0.039602205152420043  0.86587378647606095 -0.092624942299417715  0.84238114800236086 -0.14181736927648639  0.81871949322763904 -0.18723370904431033  0.79489368601474431 -0.22892108092949159  0.77090884429466999 -0.26691966143299833  0.74677033750170541 -0.30126281329227173  0.7224837831418649 -0.3319771827913226  0.69805504245752759 -0.35908276665343186  0.67349021522652697 -0.38259294676745964  0.64879563349905278 -0.40251450039611231  0.62397785497254077 -0.41884755742734908  0.59904365338721122 -0.43158560959312336  0.57400001573453185 -0.44071517759840084  0.54885410978792537 -0.44621660299598082  0.53202694208002332 -0.4474458578715132  0.52359877559829915 -0.44744645862196314 
 0.0027297605174784589 4 0.13586287134655217 1 0.26899598217562593 1 0.40212909300469962 1 0.53526220383377332 1 0.66839531466284707 1 0.80152842549192072 1 0.93466153632099447 1 1.0677946471500683 1 1.200927757979142 1 1.3340608688082158 1 1.4671939796372895 1 1.6003270904663631 1 1.733460201295437 1 1.8665933121245106 1 1.9997264229535845 1 2.1328595337826579 1 2.2659926446117318 1 2.3991257554408052 1 2.5322588662698791 1 2.6653919770989529 1 2.7985250879280263 1 2.9316581987571002 4
1 -1.1102230246251565e-16 -0.44744645862196014 1 0 
7 0 0  3 25 23  6.2831853071795862 0.44571751614845084  6.2758868504764251 0.41762647077994303  6.261222756224087 0.36295861563410653  6.2390279315978159 0.2853888733758983  6.2166371865617593 0.21213682598076888  6.1940536215370541 0.14310100534691986  6.1712805625509413 0.078187815377912653  6.1483215948205947 0.017312365220588325  6.125180556536403 -0.039602205152416026  6.1018615424590497 -0.092624942299421059  6.0783689039853499 -0.14181736927648367  6.054707249210626 -0.18723370904431  6.0308814419977335 -0.2289210809294924  6.006896600277658 -0.26691966143299661  5.9827580934846942 -0.30126281329226973  5.9584715391248535 -0.33197718279132432  5.9340427984405144 -0.35908276665343247  5.9094779712095145 -0.38259294676746075  5.8847833894820427 -0.40251450039611197  5.8599656109555287 -0.41884755742735041  5.835031409370198 -0.43158560959312353  5.8099877717175206 -0.44071517759839945  5.7848418657709146 -0.44621660299598231  5.76801469806301 -0.44744585787151409  5.7595865315812871 -0.44744645862196242 
 0.0027297605174810904 4 0.1358628713465547 1 0.26899598217562831 1 0.4021290930047019 1 0.53526220383377554 1 0.66839531466284918 1 0.80152842549192271 1 0.93466153632099636 1 1.0677946471500701 1 1.2009277579791438 1 1.3340608688082174 1 1.467193979637291 1 1.6003270904663645 1 1.7334602012954381 1 1.8665933121245117 1 1.9997264229535854 1 2.1328595337826588 1 2.2659926446117322 1 2.3991257554408061 1 2.5322588662698795 1 2.6653919770989534 1 2.7985250879280268 1 2.9316581987571002 4
1 0 -0.44744645862196014 1 0 
7 0 0  3 25 23  4.1887902047863905 0.44571751614844707  4.1814917480832312 0.41762647077993986  4.1668276538308904 0.36295861563410481  4.1446328292046237 0.28538887337589858  4.1222420841685645 0.2121368259807685  4.0996585191438601 0.14310100534692002  4.0768854601577491 0.078187815377912515  4.0539264924274008 0.017312365220591774  4.0307854541432091 -0.039602205152416581  4.0074664400658548 -0.092624942299417951  3.983973801592156 -0.14181736927648697  3.960312146817432 -0.18723370904430992  3.9364863396045395 -0.22892108092949146  3.912501497884465 -0.26691966143300033  3.888362991091499 -0.30126281329227078  3.8640764367316587 -0.33197718279132338  3.8396476960473218 -0.35908276665343292  3.815082868816321 -0.38259294676746031  3.7903882870888466 -0.40251450039611364  3.7655705085623339 -0.41884755742734919  3.7406363069770046 -0.43158560959312464  3.715592669324324 -0.44071517759839912  3.6904467633777185 -0.4462166029959812  3.6736195956698166 -0.44744585787151375  3.6651914291880923 -0.44744645862196303 
 0.0027297605174791363 4 0.13586287134655281 1 0.26899598217562648 1 0.40212909300470018 1 0.53526220383377376 1 0.66839531466284741 1 0.80152842549192116 1 0.9346615363209948 1 1.0677946471500686 1 1.2009277579791422 1 1.3340608688082158 1 1.4671939796372895 1 1.6003270904663633 1 1.733460201295437 1 1.8665933121245106 1 1.9997264229535843 1 2.1328595337826579 1 2.2659926446117318 1 2.3991257554408052 1 2.5322588662698791 1 2.6653919770989525 1 2.7985250879280263 1 2.9316581987571002 4
1 6.2831853071795862 -0.44744645862196114 -1 7.421294256748208e-16 
7 0 0  3 25 23  4.7123889803846897 -0.44744645862195997  4.7039608139029658 -0.44744585787151142  4.687133646195063 -0.44621660299597937  4.6619877402484562 -0.44071517759839751  4.6369441025957778 -0.43158560959312209  4.6120099010104472 -0.41884755742735014  4.5871921224839367 -0.40251450039610859  4.5624975407564614 -0.38259294676746303  4.5379327135254606 -0.35908276665342792  4.5135039728411241 -0.33197718279132321  4.4892174184812825 -0.30126281329227106  4.4650789116883196 -0.26691966143299822  4.4410940699682433 -0.22892108092949201  4.4172682627553508 -0.18723370904430942  4.3936066079806277 -0.14181736927648786  4.370113969506928 -0.092624942299419755  4.3467949554295737 -0.039602205152418059  4.3236539171453829 0.017312365220589515  4.3006949494150337 0.078187815377909115  4.2779218904289236 0.14310100534691972  4.2553383254042174 0.21213682598076589  4.2329475803681609 0.28538887337589891  4.2107527557418898 0.36295861563410242  4.1960886614895498 0.4176264707799397  4.1887902047863914 0.44571751614844973 
 2.9316581987571002 4 3.0647913095861736 1 3.197924420415247 1 3.3310575312443209 1 3.4641906420733943 1 3.5973237529024678 1 3.7304568637315416 1 3.863589974560615 1 3.9967230853896885 1 4.1298561962187623 1 4.2629893070478353 1 4.3961224178769092 1 4.529255528705983 1 4.662388639535056 1 4.7955217503641299 1 4.9286548611932037 1 5.0617879720222767 1 5.1949210828513497 1 5.3280541936804235 1 5.4611873045094974 1 5.5943204153385704 1 5.7274535261676442 1 5.8605866369967181 4
7 0 0  3 25 23  3.1415926535897931 0.44571751614844884  3.1342941968866334 0.41762647077994142  3.1196301026342939 0.36295861563410653  3.0974352780080254 0.28538887337590246  3.0750445329719671 0.21213682598076786  3.0524609679472614 0.14310100534692291  3.0296879089611517 0.078187815377913417  3.0067289412308025 0.01731236522059185  2.9835879029466104 -0.039602205152415831  2.960268888869257 -0.092624942299416424  2.9367762503955577 -0.14181736927648669  2.9131145956208337 -0.18723370904430992  2.8892887884079408 -0.22892108092948979  2.8653039466878649 -0.26691966143299961  2.8411654398948998 -0.30126281329227012  2.8168788855350599 -0.33197718279132415  2.7924501448507217 -0.35908276665343208  2.7678853176197218 -0.38259294676746008  2.7431907358922469 -0.40251450039611153  2.7183729573657347 -0.41884755742735225  2.6934387557804049 -0.43158560959312348  2.6683951181277248 -0.44071517759840051  2.6432492121811211 -0.44621660299598181  2.6264220444732183 -0.44744585787151353  2.617993877991494 -0.44744645862196225 
 0.0027297605174846852 4 0.13586287134655814 1 0.26899598217563159 1 0.40212909300470506 1 0.53526220383377843 1 0.66839531466285185 1 0.80152842549192538 1 0.9346615363209988 1 1.0677946471500723 1 1.2009277579791457 1 1.3340608688082192 1 1.4671939796372926 1 1.6003270904663662 1 1.7334602012954397 1 1.8665933121245131 1 1.9997264229535865 1 2.1328595337826597 1 2.2659926446117331 1 2.3991257554408065 1 2.5322588662698799 1 2.6653919770989534 1 2.7985250879280268 1 2.9316581987571002 4
1 6.2831853071795862 -0.44744645862195997 -1 0 
7 0 0  3 25 23  2.0943951023931953 0.44571751614844851  2.0870966456900359 0.41762647077993986  2.072432551437696 0.36295861563410348  2.0502377268114267 0.2853888733758978  2.0278469817753684 0.21213682598076555  2.0052634167506627 0.14310100534691872  1.9824903577645521 0.07818781537790892  1.9595313900342035 0.017312365220589633  1.9363903517500121 -0.039602205152416414  1.9130713376726589 -0.092624942299421698  1.8895786991989596 -0.14181736927648683  1.8659170444242374 -0.18723370904430942  1.8420912372113425 -0.22892108092948971  1.8181063954912686 -0.26691966143299783  1.7939678886983044 -0.30126281329227117  1.7696813343384632 -0.33197718279132166  1.7452525936541265 -0.35908276665342925  1.7206877664231253 -0.38259294676745975  1.695993184695652 -0.40251450039610853  1.6711754061691393 -0.41884755742734958  1.6462412045838095 -0.43158560959311998  1.6211975669311305 -0.4407151775983984  1.5960516609845232 -0.44621660299597871  1.5792244932766213 -0.44744585787151081  1.5707963267948968 -0.44744645862195997 
 0.002729760517482257 4 0.13586287134655578 1 0.26899598217562931 1 0.40212909300470284 1 0.53526220383377643 1 0.66839531466284996 1 0.80152842549192349 1 0.93466153632099702 1 1.0677946471500706 1 1.200927757979144 1 1.3340608688082176 1 1.4671939796372913 1 1.6003270904663647 1 1.7334602012954381 1 1.8665933121245117 1 1.9997264229535854 1 2.1328595337826588 1 2.2659926446117322 1 2.3991257554408056 1 2.5322588662698795 1 2.6653919770989529 1 2.7985250879280263 1 2.9316581987571002 4
1 6.2831853071795862 -0.44744645862195997 -1 0 
7 0 0  3 25 23  2.617993877991494 -0.44744645862196225  2.6095657115097697 -0.44744585787151281  2.5927385438018686 -0.44621660299598043  2.5675926378552609 -0.44071517759839907  2.5425490002025826 -0.4315856095931242  2.5176147986172528 -0.41884755742734958  2.492797020090741 -0.40251450039611253  2.468102438363267 -0.3825929467674592  2.4435376111322662 -0.35908276665343192  2.4191088704479284 -0.33197718279132377  2.3948223160880882 -0.3012628132922715  2.3706838092951235 -0.26691966143299656  2.3466989675750485 -0.22892108092949368  2.3228731603621542 -0.18723370904430736  2.2992115055874311 -0.14181736927648422  2.2757188671137323 -0.092624942299418964  2.2523998530363789 -0.03960220515241486  2.2292588147521859 0.017312365220592638  2.2062998470218389 0.078187815377914027  2.183526788035727 0.14310100534692086  2.1609432230110222 0.21213682598076969  2.1385524779749647 0.28538887337589813  2.1163576533486954 0.36295861563410509  2.1016935590963546 0.41762647077994008  2.0943951023931957 0.44571751614844707 
 2.9316581987571002 4 3.0647913095861741 1 3.1979244204152475 1 3.3310575312443214 1 3.4641906420733948 1 3.5973237529024686 1 3.7304568637315425 1 3.8635899745606159 1 3.9967230853896893 1 4.1298561962187632 1 4.2629893070478371 1 4.39612241787691 1 4.5292555287059848 1 4.6623886395350578 1 4.7955217503641316 1 4.9286548611932055 1 5.0617879720222785 1 5.1949210828513532 1 5.3280541936804262 1 5.4611873045095001 1 5.5943204153385739 1 5.7274535261676469 1 5.8605866369967208 4
7 0 0  3 25 23  1.5707963267948968 -0.44744645862195997  1.5623681603131723 -0.44744585787151087  1.5455409926052701 -0.44621660299597871  1.5203950866586635 -0.44071517759839818  1.4953514490059836 -0.43158560959311998  1.4704172474206543 -0.41884755742734969  1.4455994688941416 -0.4025145003961092  1.4209048871666681 -0.38259294676745942  1.3963400599356661 -0.35908276665342964  1.3719113192513304 -0.33197718279132099  1.3476247648914885 -0.30126281329227134  1.3234862580985249 -0.26691966143299733  1.2995014163784502 -0.22892108092949104  1.2756756091655563 -0.18723370904431033  1.2520139543908335 -0.141817369276486  1.228521315917134 -0.092624942299422211  1.2052023018397815 -0.03960220515241604  1.1820612635555889 0.01731236522058734  1.159102295825241 0.078187815377910447  1.1363292368391307 0.14310100534691864  1.1137456718144245 0.21213682598076536  1.0913549267783669 0.28538887337590041  1.0691601021520973 0.36295861563410359  1.0544960078997572 0.41762647077993981  1.0471975511965976 0.44571751614844929 
 2.9316581987571002 4 3.0647913095861736 1 3.1979244204152475 1 3.3310575312443209 1 3.4641906420733948 1 3.5973237529024682 1 3.7304568637315416 1 3.8635899745606155 1 3.9967230853896889 1 4.1298561962187623 1 4.2629893070478362 1 4.39612241787691 1 4.529255528705983 1 4.6623886395350569 1 4.7955217503641308 1 4.9286548611932037 1 5.0617879720222776 1 5.1949210828513515 1 5.3280541936804244 1 5.4611873045094983 1 5.5943204153385722 1 5.7274535261676451 1 5.860586636996719 4
7 0 0  3 25 23  1.0471975511965976 0.44571751614844907  1.0398990944934381 0.41762647077993958  1.0252350002410975 0.36295861563410181  1.0030401756148282 0.28538887337589547  0.98064943057877041 0.21213682598076358  0.95806586555406503 0.14310100534691875  0.93529280656795311 0.078187815377908074  0.91233383883760577 0.017312365220588908  0.88919280055341332 -0.039602205152419225  0.86587378647606061 -0.09262494229942099  0.84238114800236108 -0.14181736927648683  0.81871949322763904 -0.18723370904430753  0.79489368601474442 -0.22892108092949287  0.77090884429466988 -0.26691966143299845  0.74677033750170607 -0.30126281329227173  0.72248378314186501 -0.33197718279132182  0.69805504245752825 -0.35908276665342836  0.67349021522652719 -0.3825929467674633  0.64879563349905367 -0.40251450039610887  0.62397785497254121 -0.41884755742735108  0.5990436533872121 -0.43158560959312275  0.57400001573453208 -0.4407151775983994  0.54885410978792604 -0.4462166029959802  0.53202694208002377 -0.44744585787151275  0.52359877559829926 -0.44744645862196225 
 0.0027297605174786905 4 0.13586287134655239 1 0.26899598217562609 1 0.40212909300469979 1 0.53526220383377343 1 0.66839531466284707 1 0.80152842549192083 1 0.93466153632099458 1 1.0677946471500683 1 1.200927757979142 1 1.3340608688082156 1 1.4671939796372895 1 1.6003270904663631 1 1.7334602012954368 1 1.8665933121245106 1 1.9997264229535843 1 2.1328595337826579 1 2.2659926446117318 1 2.3991257554408052 1 2.5322588662698791 1 2.6653919770989525 1 2.7985250879280263 1 2.9316581987571002 4
1 6.2831853071795862 -0.44744645862195997 -1 0 
1 6.2831853071795862 -0.44744645862195997 -1 0 
7 0 0  3 25 23  0.52359877559829926 -0.44744645862196225  0.51517060911657475 -0.44744585787151281  0.49834344140867248 -0.44621660299598026  0.47319753546206611 -0.44071517759839945  0.44815389780938653 -0.4315856095931232  0.42321969622405664 -0.41884755742734991  0.39840191769754457 -0.4025145003961097  0.37370733597007078 -0.38259294676746153  0.3491425087390696 -0.35908276665342981  0.3247137680547329 -0.33197718279132205  0.30042721369489195 -0.30126281329227378  0.27628870690192769 -0.26691966143299722  0.25230386518185349 -0.22892108092949343  0.22847805796895901 -0.18723370904430914  0.20481640319423683 -0.14181736927648597  0.18132376472053713 -0.092624942299420726  0.15800475064318414 -0.039602205152415922  0.13486371235899192 0.017312365220588617  0.11190474462864404 0.078187815377910586  0.089131685642533182 0.14310100534692113  0.066548120617827222 0.21213682598076708  0.044157375581769576 0.2853888733759008  0.02196255095550009 0.36295861563410636  0.0072984567031596313 0.41762647077994308  0 0.44571751614845201 
 2.9316581987571002 4 3.0647913095861732 1 3.1979244204152466 1 3.3310575312443196 1 3.464190642073393 1 3.597323752902466 1 3.730456863731539 1 3.8635899745606119 1 3.9967230853896853 1 4.1298561962187588 1 4.2629893070478317 1 4.3961224178769047 1 4.5292555287059777 1 4.6623886395350507 1 4.7955217503641236 1 4.9286548611931975 1 5.0617879720222705 1 5.1949210828513435 1 5.3280541936804173 1 5.4611873045094903 1 5.5943204153385633 1 5.7274535261676363 1 5.8605866369967092 4
7 0 0  3 25 23  5.7595865315812871 -0.44744645862196303  5.7511583650995624 -0.44744585787151242  5.7343311973916622 -0.44621660299597987  5.7091852914450527 -0.4407151775984014  5.6841416537923752 -0.4315856095931217  5.6592074522070446 -0.4188475574273498  5.6343896736805332 -0.40251450039611186  5.6096950919530579 -0.38259294676745931  5.5851302647220589 -0.3590827666534317  5.5607015240377216 -0.33197718279132182  5.5364149696778808 -0.30126281329227333  5.512276462884917 -0.26691966143299906  5.4882916211648425 -0.22892108092949129  5.4644658139519464 -0.18723370904431152  5.440804159177226 -0.14181736927648586  5.4173115207035263 -0.092624942299421018  5.3939925066261729 -0.039602205152418316  5.3708514683419812 0.017312365220590681  5.3478925006116329 0.078187815377909309  5.3251194416255201 0.14310100534691958  5.3025358766008175 0.21213682598076514  5.2801451315647556 0.28538887337589669  5.2579503069384881 0.3629586156341032  5.243286212686149 0.41762647077993986  5.2359877559829879 0.44571751614844829 
 2.93165819875709 4 3.0647913095861639 1 3.1979244204152373 1 3.3310575312443111 1 3.4641906420733846 1 3.5973237529024584 1 3.7304568637315318 1 3.8635899745606057 1 3.9967230853896796 1 4.1298561962187534 1 4.2629893070478264 1 4.3961224178769003 1 4.5292555287059741 1 4.662388639535048 1 4.7955217503641219 1 4.9286548611931948 1 5.0617879720222687 1 5.1949210828513426 1 5.3280541936804156 1 5.4611873045094903 1 5.5943204153385633 1 5.7274535261676371 1 5.860586636996711 4
7 0 0  3 25 23  5.2359877559829879 0.44571751614844929  5.2286892992798295 0.41762647077993936  5.2140252050274887 0.36295861563410287  5.1918303804012202 0.28538887337590069  5.1694396353651619 0.2121368259807645  5.1468560703404558 0.14310100534691905  5.1240830113543447 0.078187815377910364  5.1011240436239991 0.017312365220588748  5.077983005339803 -0.039602205152416234  5.0546639912624531 -0.09262494229942074  5.0311713527887516 -0.14181736927648636  5.0075096980140295 -0.18723370904431044  4.9836838908011352 -0.2289210809294932  4.9596990490810606 -0.26691966143299678  4.9355605422880959 -0.30126281329227145  4.9112739879282543 -0.33197718279132266  4.8868452472439188 -0.35908276665343047  4.862280420012917 -0.38259294676746092  4.8375858382854426 -0.40251450039610953  4.8127680597589322 -0.41884755742734808  4.7878338581736006 -0.43158560959312403  4.7627902205209249 -0.44071517759839657  4.7376443145743146 -0.44621660299597898  4.7208171468664135 -0.44744585787151131  4.7123889803846897 -0.44744645862195997 
 0.002729760517482192 4 0.13586287134655572 1 0.26899598217562926 1 0.40212909300470279 1 0.53526220383377632 1 0.66839531466284985 1 0.80152842549192338 1 0.93466153632099691 1 1.0677946471500703 1 1.2009277579791438 1 1.3340608688082174 1 1.467193979637291 1 1.6003270904663645 1 1.7334602012954379 1 1.8665933121245115 1 1.9997264229535852 1 2.1328595337826588 1 2.2659926446117322 1 2.3991257554408056 1 2.5322588662698795 1 2.6653919770989529 1 2.7985250879280263 1 2.9316581987571002 4
1 6.2831853071795862 -0.44744645862195997 -1 0 
1 0 0.38272154531721869 1 0 
1 0 -0.38272154531721869 1 0 
1 0 2.4587500000000002 1 0 
1 0 -2.4587500000000002 1 0 
1 6.2831853071795862 -0.3827215453172188 -1 0 
1 6.2831853071795862 0.3827215453172188 -1 0 
Curves 64
2 0 3.3140909450318101e-17 0.54125000000000001 -0 6.12303176911189e-17 1 1 0 0 0 1 -6.12303176911189e-17 2.4587500000000002
1 -2.7293750000000001 3.5081145142155399e-16 0.270625 -0.70710678118654802 4.3296372853596802e-17 -0.70710678118654702 
2 0 0 0 -0 6.12303176911189e-17 1 1 0 0 0 1 -6.12303176911189e-17 3
1 2.7293750000000001 -3.17670541971236e-16 0.270625 -0.70710678118654802 1.2988911856079e-16 0.70710678118654702 
2 0 3.3424099669639499e-16 5.4587500000000002 -0 6.12303176911189e-17 1 1 0 0 0 1 -6.12303176911189e-17 2.4587500000000002
1 -2.4587500000000002 4.8479104031943398e-16 3 -0 -6.12303176911189e-17 -1 
1 2.4587500000000002 -1.1740913417271999e-16 3 -0 6.12303176911189e-17 1 
2 0 3.6738190614671298e-16 6 -0 6.12303176911189e-17 1 1 0 0 0 1 -6.12303176911189e-17 3
1 -2.7293750000000001 6.8505244811794898e-16 5.7293750000000001 0.70710678118654802 -1.2988911856079e-16 -0.70710678118654702 
1 2.7293750000000001 1.6570454725159001e-17 5.7293750000000001 0.70710678118654802 -4.3296372853596802e-17 0.70710678118654702 
1 5.3875000000000002 -3.0607341138068698e-16 5.7762767706890203 -0.86602540378443882 1.3666918005016099e-16 0.49999999999999989 
7 1 0  2 5 3  5.7749994181325803 -0.0025924058863411501 5.5525535413780398  1 5.0006014501103104 1.3387042200063399 6  1.03802697460133 4.3301270189221901 2.5 6  1 3.65965258773408 3.6612957799936598 6  1.03802697460134 2.8852546197117999 5.0025924058863396 5.5525535413780398  1
 0 3 2.93165819875709 2 5.8633163975141898 3
2 0 3.6738190614671298e-16 6 -0 6.12303176911189e-17 1 1 0 0 0 1 -6.12303176911189e-17 5
1 -5.3875000000000002 1.01343993486292e-15 5.7762767706890203 -0.86602540378443882 7.5438862359041891e-17 -0.49999999999999989 
2 0 3.6738190614671298e-16 6 -0 6.12303176911189e-17 1 1 0 0 0 1 -6.12303176911189e-17 5
7 1 0  2 5 3  -2.8852546197117999 5.0025924058863396 5.5525535413780398  1 -3.6596525877340702 3.6612957799936701 6  1.03802697460133 -4.3301270189221901 2.5 6  1 -5.0006014501103104 1.3387042200063399 6  1.03802697460133 -5.7749994181325901 -0.0025924058863420999 5.5525535413780398  1
 0 3 2.9316581987571002 2 5.8633163975142004 3
1 5.3875000000000002 -6.4605802871621195e-16 0.22372322931097999 0.86602540378443882 -7.5438862359041891e-17 0.49999999999999989 
2 0 0 0 -0 6.12303176911189e-17 1 1 0 0 0 1 -6.12303176911189e-17 5
7 1 0  2 5 3  2.8852546197117999 5.0025924058863396 0.44744645862195997  1 3.65965258773408 3.6612957799936598 -5.8847423372529396e-16  1.03802697460134 4.3301270189221901 2.5 -6.9809067380910404e-17  1 5.0006014501103104 1.3387042200063399 -4.7054734330423404e-16  1.03802697460135 5.7749994181325901 -0.0025924058863462198 0.44744645862195997  1
 0 3 2.9316581987571002 2 5.8633163975142004 3
1 -5.3875000000000002 6.7345531752739996e-16 0.22372322931097999 0.86602540378443882 -1.3666918005016099e-16 -0.49999999999999989 
7 1 0  2 5 3  -5.7749994181325901 -0.0025924058863457502 0.44744645862195997  1 -5.0006014501103104 1.3387042200063399 -5.36466835391353e-16  1.03802697460135 -4.3301270189221901 2.5 -3.473648235372e-16  1 -3.6596525877340702 3.6612957799936701 -7.3419100570734596e-16  1.03802697460134 -2.8852546197117901 5.0025924058863502 0.44744645862195997  1
 0 3 2.9316581987571002 2 5.8633163975142004 3
2 0 0 0 -0 6.12303176911189e-17 1 1 0 0 0 1 -6.12303176911189e-17 5
7 1 0  2 5 3  2.8897447984207898 -5 0.44744645862195997  1 1.34094886237624 -5 8.4025668367616704e-19  1.03802697460135 -7.6918507455342503e-16 -5 2.2288486160870698e-16  1 -1.34094886237624 -5 -1.03243151874932e-16  1.03802697460135 -2.8897447984207898 -5 0.44744645862195997  1
 0 3 2.9316581987571002 2 5.8633163975142004 3
2 0 0 0 -0 6.12303176911189e-17 1 1 0 0 0 1 -6.12303176911189e-17 5
7 1 0  2 5 3  5.7749994181325901 0.0025924058863443802 0.44744645862195997  1 5.0006014501103104 -1.3387042200063399 -3.5865047821267901e-16  1.03802697460134 4.3301270189221901 -2.5 9.7564642996539404e-17  1 3.65965258773408 -3.6612957799936598 -1.9215133046426901e-16  1.03802697460133 2.8852546197117999 -5.0025924058863396 0.44744645862195997  1
 0 3 2.9316581987571002 2 5.8633163975142004 3
7 1 0  2 5 3  -2.8852546197117999 -5.0025924058863396 0.44744645862196097  1 -3.65965258773408 -3.6612957799936598 -1.5745686094473299e-16  1.03802697460133 -4.3301270189221901 -2.5 -4.1213235081605299e-17  1 -5.0006014501103104 -1.3387042200063399 -4.17631076395891e-16  1.03802697460133 -5.7749994181325901 0.0025924058863472299 0.44744645862195997  1
 0 3 2.9316581987571002 2 5.8633163975142004 3
2 0 0 0 -0 6.12303176911189e-17 1 1 0 0 0 1 -6.12303176911189e-17 5
7 1 0  2 5 3  2.8897447984207898 -5 0.44744645862195997  1 1.34094886237624 -5 8.4025668367616704e-19  1.03802697460135 -7.6918507455342503e-16 -5 2.2288486160870698e-16  1 -1.34094886237624 -5 -1.03243151874932e-16  1.03802697460135 -2.8897447984207898 -5 0.44744645862195997  1
 0 3 2.9316581987571002 2 5.8633163975142004 3
2 0 0 0 -0 6.12303176911189e-17 1 1 0 0 0 1 -6.12303176911189e-17 5
7 1 0  2 5 3  -2.8852546197117999 -5.0025924058863396 0.44744645862196097  1 -3.65965258773408 -3.6612957799936598 -1.5745686094473299e-16  1.03802697460133 -4.3301270189221901 -2.5 -4.1213235081605299e-17  1 -5.0006014501103104 -1.3387042200063399 -4.17631076395891e-16  1.03802697460133 -5.7749994181325901 0.0025924058863472299 0.44744645862195997  1
 0 3 2.9316581987571002 2 5.8633163975142004 3
7 1 0  2 5 3  -5.7749994181325901 -0.0025924058863457502 0.44744645862195997  1 -5.0006014501103104 1.3387042200063399 -5.36466835391353e-16  1.03802697460135 -4.3301270189221901 2.5 -3.473648235372e-16  1 -3.6596525877340702 3.6612957799936701 -7.3419100570734596e-16  1.03802697460134 -2.8852546197117901 5.0025924058863502 0.44744645862195997  1
 0 3 2.9316581987571002 2 5.8633163975142004 3
7 1 0  2 5 3  -2.8897447984207898 5 0.44744645862195997  1 -1.34094886237624 5 -6.5656573060290895e-16  1.03802697460134 0 5 -3.3390716407122298e-16  1 1.34094886237624 5 -6.5656573060290895e-16  1.03802697460134 2.8897447984207898 5 0.44744645862195997  1
 0 3 2.9316581987571002 2 5.8633163975142004 3
2 0 0 0 -0 6.12303176911189e-17 1 1 0 0 0 1 -6.12303176911189e-17 5
7 1 0  2 5 3  -2.8897447984207898 5 0.44744645862195997  1 -1.34094886237624 5 -6.5656573060290895e-16  1.03802697460134 0 5 -3.3390716407122298e-16  1 1.34094886237624 5 -6.5656573060290895e-16  1.03802697460134 2.8897447984207898 5 0.44744645862195997  1
 0 3 2.9316581987571002 2 5.8633163975142004 3
7 1 0  2 5 3  2.8852546197117999 5.0025924058863396 0.44744645862195997  1 3.65965258773408 3.6612957799936598 -5.8847423372529396e-16  1.03802697460134 4.3301270189221901 2.5 -6.9809067380910404e-17  1 5.0006014501103104 1.3387042200063399 -4.7054734330423404e-16  1.03802697460135 5.7749994181325901 -0.0025924058863462198 0.44744645862195997  1
 0 3 2.9316581987571002 2 5.8633163975142004 3
2 0 0 0 -0 6.12303176911189e-17 1 1 0 0 0 1 -6.12303176911189e-17 5
7 1 0  2 5 3  5.7749994181325901 0.0025924058863443802 0.44744645862195997  1 5.0006014501103104 -1.3387042200063399 -3.5865047821267901e-16  1.03802697460134 4.3301270189221901 -2.5 9.7564642996539404e-17  1 3.65965258773408 -3.6612957799936598 -1.9215133046426901e-16  1.03802697460133 2.8852546197117999 -5.0025924058863396 0.44744645862195997  1
 0 3 2.9316581987571002 2 5.8633163975142004 3
2 0 0 0 -0 6.12303176911189e-17 1 1 0 0 0 1 -6.12303176911189e-17 5
7 1 0  2 5 3  -2.8852546197117999 5.0025924058863396 5.5525535413780398  1 -3.6596525877340702 3.6612957799936701 6  1.03802697460133 -4.3301270189221901 2.5 6  1 -5.0006014501103104 1.3387042200063399 6  1.03802697460133 -5.7749994181325901 -0.0025924058863420999 5.5525535413780398  1
 0 3 2.9316581987571002 2 5.8633163975142004 3
2 0 3.6738190614671298e-16 6 -0 6.12303176911189e-17 1 1 0 0 0 1 -6.12303176911189e-17 5
7 1 0  2 5 3  2.8897447984207898 5 5.5525535413780398  1 1.34094886237623 5 6  1.03802697460134 0 5 6  1 -1.34094886237623 5 6  1.03802697460134 -2.8897447984207898 5 5.5525535413780398  1
 0 3 2.9316581987571002 2 5.8633163975142004 3
7 1 0  2 5 3  -5.7749994181325901 0.0025924058863489698 5.5525535413780398  1 -5.0006014501103104 -1.3387042200063399 6  1.03802697460132 -4.3301270189221901 -2.5 6  1 -3.65965258773408 -3.6612957799936598 6  1.03802697460132 -2.8852546197117999 -5.0025924058863396 5.5525535413780398  1
 0 3 2.9316581987571002 2 5.8633163975142004 3
2 0 3.6738190614671298e-16 6 -0 6.12303176911189e-17 1 1 0 0 0 1 -6.12303176911189e-17 5
7 1 0  2 5 3  -2.8897447984207898 -5 5.5525535413780398  1 -1.34094886237624 -5 6  1.03802697460135 -7.6918507455342503e-16 -5 6  1 1.34094886237624 -5 6  1.03802697460135 2.8897447984207898 -5 5.5525535413780398  1
 0 3 2.9316581987571002 2 5.8633163975142004 3
2 0 3.6738190614671298e-16 6 -0 6.12303176911189e-17 1 1 0 0 0 1 -6.12303176911189e-17 5
7 1 0  2 5 3  -5.7749994181325901 0.0025924058863489698 5.5525535413780398  1 -5.0006014501103104 -1.3387042200063399 6  1.03802697460132 -4.3301270189221901 -2.5 6  1 -3.65965258773408 -3.6612957799936598 6  1.03802697460132 -2.8852546197117999 -5.0025924058863396 5.5525535413780398  1
 0 3 2.9316581987571002 2 5.8633163975142004 3
7 1 0  2 5 3  -2.8897447984207898 -5 5.5525535413780398  1 -1.34094886237624 -5 6  1.03802697460135 -7.6918507455342503e-16 -5 6  1 1.34094886237624 -5 6  1.03802697460135 2.8897447984207898 -5 5.5525535413780398  1
 0 3 2.9316581987571002 2 5.8633163975142004 3
7 1 0  2 5 3  2.8852546197117999 -5.0025924058863396 5.5525535413780398  1 3.65965258773408 -3.6612957799936598 6  1.03802697460135 4.3301270189221901 -2.5 6  1 5.0006014501103104 -1.3387042200063399 6  1.03802697460135 5.7749994181325901 0.0025924058863427799 5.5525535413780398  1
 0 3 2.9316581987571002 2 5.8633163975141898 3
2 0 3.6738190614671298e-16 6 -0 6.12303176911189e-17 1 1 0 0 0 1 -6.12303176911189e-17 5
2 0 3.6738190614671298e-16 6 -0 6.12303176911189e-17 1 1 0 0 0 1 -6.12303176911189e-17 5
7 1 0  2 5 3  2.8852546197117999 -5.0025924058863396 5.5525535413780398  1 3.65965258773408 -3.6612957799936598 6  1.03802697460135 4.3301270189221901 -2.5 6  1 5.0006014501103104 -1.3387042200063399 6  1.03802697460135 5.7749994181325901 0.0025924058863427799 5.5525535413780398  1
 0 3 2.9316581987571002 2 5.8633163975141898 3
7 1 0  2 5 3  5.7749994181325803 -0.0025924058863411501 5.5525535413780398  1 5.0006014501103104 1.3387042200063399 6  1.03802697460133 4.3301270189221901 2.5 6  1 3.65965258773408 3.6612957799936598 6  1.03802697460134 2.8852546197117999 5.0025924058863396 5.5525535413780398  1
 0 3 2.93165819875709 2 5.8633163975141898 3
7 1 0  2 5 3  2.8897447984207898 5 5.5525535413780398  1 1.34094886237623 5 6  1.03802697460134 0 5 6  1 -1.34094886237623 5 6  1.03802697460134 -2.8897447984207898 5 5.5525535413780398  1
 0 3 2.9316581987571002 2 5.8633163975142004 3
2 0 3.6738190614671298e-16 6 -0 6.12303176911189e-17 1 1 0 0 0 1 -6.12303176911189e-17 5
2 0 3.6738190614671298e-16 6 -0 6.12303176911189e-17 1 1 0 0 0 1 -6.12303176911189e-17 3
2 0 3.3424099669639499e-16 5.4587500000000002 -0 6.12303176911189e-17 1 1 0 0 0 1 -6.12303176911189e-17 2.4587500000000002
2 0 3.3140909450318101e-17 0.54125000000000001 -0 6.12303176911189e-17 1 1 0 0 0 1 -6.12303176911189e-17 2.4587500000000002
2 0 0 0 -0 6.12303176911189e-17 1 1 0 0 0 1 -6.12303176911189e-17 3
1 -2.88675134594813 -5 -1 0 6.12303176911189e-17 1 
1 -5.77350269189626 9.9932156991452608e-16 -1 0 6.12303176911189e-17 1 
1 2.88675134594813 -5 -1 0 6.12303176911189e-17 1 
1 5.77350269189626 -4.14755397266088e-16 -1 0 6.12303176911189e-17 1 
1 -2.88675134594813 5 -1 0 6.12303176911189e-17 1 
1 2.88675134594813 5 -1 0 6.12303176911189e-17 1 
Polygon3D 0
PolygonOnTriangulations 0
Surfaces 30
3 0 1.6570454725159001e-17 0.270625 0 -6.12303176911189e-17 -1 1 0 0 0 -1 6.12303176911189e-17 2.7293750000000001
0.78539816339744795
2 0 1.8369095307335701e-16 3 -0 6.12303176911189e-17 1 1 0 0 0 1 -6.12303176911189e-17 2.4587500000000002
3 0 1.6570454725159001e-17 0.270625 0 -6.12303176911189e-17 -1 1 0 0 0 -1 6.12303176911189e-17 2.7293750000000001
0.78539816339744795
1 4 0 0 -0 -6.12303176911189e-17 -1 -1 0 0 0 1 -6.12303176911189e-17 
3 0 3.5081145142155399e-16 5.7293750000000001 -0 6.12303176911189e-17 1 1 0 0 0 1 -6.12303176911189e-17 2.7293750000000001
0.78539816339744795
2 0 1.8369095307335701e-16 3 -0 6.12303176911189e-17 1 1 0 0 0 1 -6.12303176911189e-17 2.4587500000000002
1 4 3.6738190614671298e-16 6 -0 6.12303176911189e-17 1 1 0 0 0 1 -6.12303176911189e-17 
3 0 3.5081145142155399e-16 5.7293750000000001 -0 6.12303176911189e-17 1 1 0 0 0 1 -6.12303176911189e-17 2.7293750000000001
0.78539816339744795
3 0 3.5368326174111898e-16 5.7762767706890203 0 -6.12303176911189e-17 -1 1 0 0 0 -1 6.12303176911189e-17 5.3875000000000002
1.0471975511966001
3 0 3.5368326174111898e-16 5.7762767706890203 0 -6.12303176911189e-17 -1 1 0 0 0 -1 6.12303176911189e-17 5.3875000000000002
1.0471975511966001
1 4.3301270189221901 2.5 -1 0.86602540378443882 0.49999999999999989 -3.0615158845559394e-17 -0.49999999999999989 0.86602540378443882 -5.3027010602300679e-17 -2.4651903288156613e-32 6.1230317691118851e-17 1 
3 0 3.5368326174111898e-16 5.7762767706890203 0 -6.12303176911189e-17 -1 1 0 0 0 -1 6.12303176911189e-17 5.3875000000000002
1.0471975511966001
3 0 3.5368326174111898e-16 5.7762767706890203 0 -6.12303176911189e-17 -1 1 0 0 0 -1 6.12303176911189e-17 5.3875000000000002
1.0471975511966001
1 -4.3301270189221901 2.5 -1 -0.86602540378443849 0.50000000000000033 -3.0615158845559419e-17 -0.50000000000000033 -0.86602540378443849 5.3027010602300741e-17 7.0874221953450279e-32 6.1230317691118925e-17 1 
3 0 1.36986444055943e-17 0.22372322931097999 -0 6.12303176911189e-17 1 1 0 0 0 1 -6.12303176911189e-17 5.3875000000000002
1.0471975511966001
3 0 1.36986444055943e-17 0.22372322931097999 -0 6.12303176911189e-17 1 1 0 0 0 1 -6.12303176911189e-17 5.3875000000000002
1.0471975511966001
3 0 1.36986444055943e-17 0.22372322931097999 -0 6.12303176911189e-17 1 1 0 0 0 1 -6.12303176911189e-17 5.3875000000000002
1.0471975511966001
3 0 1.36986444055943e-17 0.22372322931097999 -0 6.12303176911189e-17 1 1 0 0 0 1 -6.12303176911189e-17 5.3875000000000002
1.0471975511966001
3 0 1.36986444055943e-17 0.22372322931097999 -0 6.12303176911189e-17 1 1 0 0 0 1 -6.12303176911189e-17 5.3875000000000002
1.0471975511966001
1 -1.7763568394002501e-15 -5 -1 -1.5383701491068499e-16 -1 6.12303176911189e-17 1 -1.5383701491068499e-16 9.4194892956346306e-33 6.8422776578360209e-48 6.12303176911189e-17 1 
1 4.3301270189221901 -2.5 -1 0.86602540378443882 -0.49999999999999989 3.0615158845559394e-17 0.49999999999999989 0.86602540378443882 -5.3027010602300679e-17 2.4651903288156613e-32 6.1230317691118851e-17 1 
3 0 1.36986444055943e-17 0.22372322931097999 -0 6.12303176911189e-17 1 1 0 0 0 1 -6.12303176911189e-17 5.3875000000000002
1.0471975511966001
1 -4.3301270189221901 -2.5 -1 -0.86602540378443882 -0.49999999999999989 3.0615158845559394e-17 0.49999999999999989 -0.86602540378443882 5.3027010602300679e-17 -2.4651903288156613e-32 6.1230317691118851e-17 1 
3 0 1.36986444055943e-17 0.22372322931097999 -0 6.12303176911189e-17 1 1 0 0 0 1 -6.12303176911189e-17 5.3875000000000002
1.0471975511966001
1 8.8817841970012504e-16 5 -1 0 1 -6.12303176911189e-17 -1 0 0 0 6.12303176911189e-17 1 
3 0 1.36986444055943e-17 0.22372322931097999 -0 6.12303176911189e-17 1 1 0 0 0 1 -6.12303176911189e-17 5.3875000000000002
1.0471975511966001
3 0 3.5368326174111898e-16 5.7762767706890203 0 -6.12303176911189e-17 -1 1 0 0 0 -1 6.12303176911189e-17 5.3875000000000002
1.0471975511966001
3 0 3.5368326174111898e-16 5.7762767706890203 0 -6.12303176911189e-17 -1 1 0 0 0 -1 6.12303176911189e-17 5.3875000000000002
1.0471975511966001
3 0 3.5368326174111898e-16 5.7762767706890203 0 -6.12303176911189e-17 -1 1 0 0 0 -1 6.12303176911189e-17 5.3875000000000002
1.0471975511966001
3 0 3.5368326174111898e-16 5.7762767706890203 0 -6.12303176911189e-17 -1 1 0 0 0 -1 6.12303176911189e-17 5.3875000000000002
1.0471975511966001
Triangulations 0

TShapes 164
Ve
1e-07
-2.45875 3.34240996696395e-16 0.54125
0 0

0101101
*
Ve
1e-07
2.45875 3.31409094503181e-17 0.54125
0 0

0101101
*
Ed
 1e-07 1 1 0
1  1 0 3.14159265358979 6.28318530717959
2  1 1 0 3.14159265358979 6.28318530717959
2  2 2 0 3.14159265358979 6.28318530717959
4 C0 1 0 2 0
0

0101000
+164 0 -163 0 *
Ve
1e-07
-3 3.67381906146713e-16 -2.24949108273321e-32
0 0

0101101
*
Ed
 1e-07 1 1 0
1  2 0 -0.382721545317219 0.382721545317219
2  3 1 0 -0.382721545317219 0.382721545317219
2  4 3 0 -0.382721545317219 0.382721545317219
4 CN 1 0 3 0
0

0101000
+164 0 -161 0 *
Ve
1e-07
3 0 0
0 0

0101101
*
Ed
 1e-07 1 1 0
1  3 0 3.14159265358979 6.28318530717959
2  5 1 0 3.14159265358979 6.28318530717959
4 C0 1 0 4 0
0

0101000
+161 0 -159 0 *
Ed
 1e-07 1 1 0
1  4 0 -0.382721545317219 0.382721545317219
2  6 1 0 -0.382721545317219 0.382721545317219
2  7 3 0 -0.382721545317219 0.382721545317219
4 CN 1 0 3 0
0

0101000
+159 0 -163 0 *
Wi

0101100
-162 0 +160 0 +158 0 +157 0 *
Fa
0  1e-07 1 0

0111000
+156 0 *
Ve
1e-07
-2.45875 6.35341083942472e-16 5.45875
0 0

0101101
*
Ve
1e-07
2.45875 3.34240996696395e-16 5.45875
0 0

0101101
*
Ed
 1e-07 1 1 0
1  5 0 3.14159265358979 6.28318530717959
2  8 2 0 3.14159265358979 6.28318530717959
2  9 5 0 3.14159265358979 6.28318530717959
4 C0 2 0 5 0
0

0101000
+154 0 -153 0 *
Ed
 1e-07 1 1 0
1  6 0 -2.45875 2.45875
2  10 2 0 -2.45875 2.45875
2  11 6 0 -2.45875 2.45875
4 CN 2 0 6 0
0

0101000
+154 0 -164 0 *
Ed
 1e-07 1 1 0
1  7 0 -2.45875 2.45875
2  12 2 0 -2.45875 2.45875
2  13 6 0 -2.45875 2.45875
4 CN 2 0 6 0
0

0101000
+163 0 -153 0 *
Wi

0101100
-152 0 +151 0 +162 0 +150 0 *
Fa
0  1e-07 2 0

0111000
+149 0 *
Ve
1e-07
-3 7.34763812293426e-16 6
0 0

0101101
*
Ve
1e-07
3 3.67381906146713e-16 6
0 0

0101101
*
Ed
 1e-07 1 1 0
1  8 0 3.14159265358979 6.28318530717959
2  14 5 0 3.14159265358979 6.28318530717959
4 C0 5 0 7 0
0

0101000
+147 0 -146 0 *
Ed
 1e-07 1 1 0
1  9 0 -0.382721545317219 0.382721545317219
2  15 5 0 -0.382721545317219 0.382721545317219
2  16 8 0 -0.382721545317219 0.382721545317219
4 CN 5 0 8 0
0

0101000
+147 0 -154 0 *
Ed
 1e-07 1 1 0
1  10 0 -0.382721545317219 0.382721545317219
2  17 5 0 -0.382721545317219 0.382721545317219
2  18 8 0 -0.382721545317219 0.382721545317219
4 CN 5 0 8 0
0

0101000
+153 0 -146 0 *
Wi

0101100
-145 0 +144 0 +152 0 +143 0 *
Fa
0  1e-07 5 0

0111000
+142 0 *
Ve
1e-07
5.77350269189626 -1.34875303909831e-17 5.5534180126148
0 0

0101101
*
Ve
1e-07
5 -2.44921270764476e-16 6
0 0

0101101
*
Ed
 1e-07 1 1 0
1  11 0 -0.445717516148449 0.44744645862196
2  19 9 0 -0.445717516148449 0.44744645862196
2  20 10 0 -0.445717516148449 0.44744645862196
4 CN 9 0 10 0
0

0101000
+140 0 -139 0 *
Ve
1e-07
4.33012701892219 2.5 6
0 0

0101101
*
Ed
 1e-07 1 1 0
1  12 0 0.00272976051747613 2.93165819875709
2  21 9 0 0.00272976051747613 2.93165819875709
4 C0 9 0 11 0
0

0101000
+140 0 -137 0 *
Ed
 1e-07 1 1 0
1  13 0 0 0.523598775598299
2  22 9 0 0 0.523598775598299
4 C0 9 0 7 0
0

0101000
+139 0 -137 0 *
Wi

0101100
-138 0 +136 0 -135 0 *
Fa
0  1e-07 9 0

0111000
+134 0 *
Ve
1e-07
-5 9.79685083057902e-16 6
0 0

0101101
*
Ve
1e-07
-5.77350269189626 1.40058943678963e-15 5.5534180126148
0 0

0101101
*
Ed
 1e-07 1 1 0
1  14 0 -0.44744645862196 0.445717516148449
2  23 12 0 -0.44744645862196 0.445717516148449
2  24 13 0 -0.44744645862196 0.445717516148449
4 CN 12 0 13 0
0

0101000
+132 0 -131 0 *
Ve
1e-07
-4.33012701892219 2.5 6
0 0

0101101
*
Ed
 1e-07 1 1 0
1  15 0 2.61799387799149 3.14159265358979
2  25 12 0 2.61799387799149 3.14159265358979
4 C0 12 0 7 0
0

0101000
+129 0 -132 0 *
Ed
 1e-07 1 1 0
1  16 0 2.9316581987571 5.86058663699672
2  26 12 0 2.9316581987571 5.86058663699672
4 C0 12 0 14 0
0

0101000
+129 0 -131 0 *
Wi

0101100
-130 0 -128 0 +127 0 *
Fa
0  1e-07 12 0

0111000
+126 0 *
Ve
1e-07
5 -6.12303176911189e-16 1.85514972641164e-32
0 0

0101101
*
Ve
1e-07
5.77350269189626 -3.26180722612242e-16 0.446581987385204
0 0

0101101
*
Ed
 1e-07 1 1 0
1  17 0 -0.44744645862196 0.445717516148451
2  27 15 0 -0.44744645862196 0.445717516148451
2  28 16 0 -0.44744645862196 0.445717516148451
4 CN 15 0 16 0
0

0101000
+124 0 -123 0 *
Ve
1e-07
4.33012701892219 2.5 -1.53075794227797e-16
0 0

0101101
*
Ed
 1e-07 1 1 0
1  18 0 0 0.523598775598299
2  29 15 0 0 0.523598775598299
4 C0 15 0 4 0
0

0101000
+124 0 -121 0 *
Ed
 1e-07 1 1 0
1  19 0 2.9316581987571 5.86058663699672
2  30 15 0 2.9316581987571 5.86058663699672
4 C0 15 0 11 0
0

0101000
+121 0 -123 0 *
Wi

0101100
-122 0 +120 0 +119 0 *
Fa
0  1e-07 15 0

0111000
+118 0 *
Ve
1e-07
-5.77350269189626 1.08789624456837e-15 0.446581987385204
0 0

0101101
*
Ve
1e-07
-5 6.12303176911189e-16 -1.85514972641164e-32
0 0

0101101
*
Ed
 1e-07 1 1 0
1  20 0 -0.445717516148451 0.44744645862196
2  31 17 0 -0.445717516148451 0.44744645862196
2  32 18 0 -0.445717516148451 0.44744645862196
4 CN 17 0 18 0
0

0101000
+116 0 -115 0 *
Ve
1e-07
-4.33012701892219 2.5 -1.53075794227797e-16
0 0

0101101
*
Ed
 1e-07 1 1 0
1  21 0 0.00272976051748306 2.9316581987571
2  33 17 0 0.00272976051748306 2.9316581987571
4 C0 17 0 14 0
0

0101000
+116 0 -113 0 *
Ed
 1e-07 1 1 0
1  22 0 2.61799387799149 3.14159265358979
2  34 17 0 2.61799387799149 3.14159265358979
4 C0 17 0 4 0
0

0101000
+113 0 -115 0 *
Wi

0101100
-114 0 +112 0 +111 0 *
Fa
0  1e-07 17 0

0111000
+110 0 *
Ve
1e-07
2.88675134594813 -5 0.446581987385204
0 0

0101101
*
Ve
1e-07
-7.69185074553425e-16 -5 3.06151588455594e-16
0 0

0101101
*
Ed
 1e-07 1 1 0
1  23 0 0.00272976051748123 2.9316581987571
2  35 19 0 0.00272976051748123 2.9316581987571
4 C0 19 0 20 0
0

0101000
+108 0 -107 0 *
Ve
1e-07
4.33012701892219 -2.5 1.53075794227797e-16
0 0

0101101
*
Ed
 1e-07 1 1 0
1  24 0 4.71238898038469 5.75958653158129
2  36 19 0 4.71238898038469 5.75958653158129
4 C0 19 0 4 0
0

0101000
+107 0 -105 0 *
Ed
 1e-07 1 1 0
1  25 0 2.9316581987571 5.86058663699672
2  37 19 0 2.9316581987571 5.86058663699672
4 C0 19 0 21 0
0

0101000
+105 0 -108 0 *
Wi

0101100
+106 0 +104 0 +103 0 *
Fa
0  1e-07 19 0

0111000
+102 0 *
Ve
1e-07
-2.88675134594813 -5 0.446581987385205
0 0

0101101
*
Ve
1e-07
-4.33012701892219 -2.5 1.53075794227797e-16
0 0

0101101
*
Ed
 1e-07 1 1 0
1  26 0 0.00272976051747817 2.9316581987571
2  38 22 0 0.00272976051747817 2.9316581987571
4 C0 22 0 23 0
0

0101000
+100 0 -99 0 *
Ed
 1e-07 1 1 0
1  27 0 3.66519142918809 4.71238898038469
2  39 22 0 3.66519142918809 4.71238898038469
4 C0 22 0 4 0
0

0101000
+99 0 -107 0 *
Ed
 1e-07 1 1 0
1  28 0 2.9316581987571 5.86058663699672
2  40 22 0 2.9316581987571 5.86058663699672
4 C0 22 0 20 0
0

0101000
+107 0 -100 0 *
Wi

0101100
+98 0 +97 0 +96 0 *
Fa
0  1e-07 22 0

0111000
+95 0 *
Ed
 1e-07 1 1 0
1  29 0 3.14159265358979 3.66519142918809
2  41 18 0 3.14159265358979 3.66519142918809
4 C0 18 0 4 0
0

0101000
+115 0 -99 0 *
Ed
 1e-07 1 1 0
1  30 0 2.9316581987571 5.86058663699672
2  42 18 0 2.9316581987571 5.86058663699672
4 C0 18 0 23 0
0

0101000
+99 0 -116 0 *
Wi

0101100
+114 0 +93 0 +92 0 *
Fa
0  1e-07 18 0

0111000
+91 0 *
Ve
1e-07
-2.88675134594813 5 0.446581987385203
0 0

0101101
*
Ed
 1e-07 1 1 0
1  31 0 2.9316581987571 5.86058663699671
2  43 24 0 2.9316581987571 5.86058663699671
4 C0 24 0 14 0
0

0101000
+113 0 -89 0 *
Ve
1e-07
0 5 -3.06151588455594e-16
0 0

0101101
*
Ed
 1e-07 1 1 0
1  32 0 0.00272976051748143 2.9316581987571
2  44 24 0 0.00272976051748143 2.9316581987571
4 C0 24 0 25 0
0

0101000
+89 0 -87 0 *
Ed
 1e-07 1 1 0
1  33 0 1.5707963267949 2.61799387799149
2  45 24 0 1.5707963267949 2.61799387799149
4 C0 24 0 4 0
0

0101000
+87 0 -113 0 *
Wi

0101100
+88 0 +86 0 +85 0 *
Fa
0  1e-07 24 0

0111000
+84 0 *
Ve
1e-07
2.88675134594813 5 0.446581987385203
0 0

0101101
*
Ed
 1e-07 1 1 0
1  34 0 2.9316581987571 5.86058663699672
2  46 26 0 2.9316581987571 5.86058663699672
4 C0 26 0 25 0
0

0101000
+87 0 -82 0 *
Ed
 1e-07 1 1 0
1  35 0 0.00272976051747846 2.9316581987571
2  47 26 0 0.00272976051747846 2.9316581987571
4 C0 26 0 11 0
0

0101000
+82 0 -121 0 *
Ed
 1e-07 1 1 0
1  36 0 0.523598775598299 1.5707963267949
2  48 26 0 0.523598775598299 1.5707963267949
4 C0 26 0 4 0
0

0101000
+121 0 -87 0 *
Wi

0101100
+81 0 +80 0 +79 0 *
Fa
0  1e-07 26 0

0111000
+78 0 *
Ed
 1e-07 1 1 0
1  37 0 0.00272976051748109 2.9316581987571
2  49 16 0 0.00272976051748109 2.9316581987571
4 C0 16 0 21 0
0

0101000
+123 0 -105 0 *
Ed
 1e-07 1 1 0
1  38 0 5.75958653158129 6.28318530717959
2  50 16 0 5.75958653158129 6.28318530717959
4 C0 16 0 4 0
0

0101000
+105 0 -124 0 *
Wi

0101100
+122 0 +76 0 +75 0 *
Fa
0  1e-07 16 0

0111000
+74 0 *
Ve
1e-07
-2.88675134594813 5 5.5534180126148
0 0

0101101
*
Ed
 1e-07 1 1 0
1  39 0 0.00272976051747914 2.9316581987571
2  51 27 0 0.00272976051747914 2.9316581987571
4 C0 27 0 14 0
0

0101000
+72 0 -129 0 *
Ve
1e-07
0 5 6
0 0

0101101
*
Ed
 1e-07 1 1 0
1  40 0 1.5707963267949 2.61799387799149
2  52 27 0 1.5707963267949 2.61799387799149
4 C0 27 0 7 0
0

0101000
+70 0 -129 0 *
Ed
 1e-07 1 1 0
1  41 0 2.9316581987571 5.86058663699672
2  53 27 0 2.9316581987571 5.86058663699672
4 C0 27 0 25 0
0

0101000
+70 0 -72 0 *
Wi

0101100
+71 0 -69 0 +68 0 *
Fa
0  1e-07 27 0

0111000
+67 0 *
Ve
1e-07
-4.33012701892219 -2.5 6
0 0

0101101
*
Ed
 1e-07 1 1 0
1  42 0 0.00272976051748469 2.9316581987571
2  54 13 0 0.00272976051748469 2.9316581987571
4 C0 13 0 23 0
0

0101000
+131 0 -65 0 *
Ed
 1e-07 1 1 0
1  43 0 3.14159265358979 3.66519142918809
2  55 13 0 3.14159265358979 3.66519142918809
4 C0 13 0 7 0
0

0101000
+132 0 -65 0 *
Wi

0101100
+130 0 +64 0 -63 0 *
Fa
0  1e-07 13 0

0111000
+62 0 *
Ve
1e-07
-2.88675134594813 -5 5.5534180126148
0 0

0101101
*
Ve
1e-07
-7.69185074553425e-16 -5 6
0 0

0101101
*
Ed
 1e-07 1 1 0
1  44 0 0.00272976051748226 2.9316581987571
2  56 28 0 0.00272976051748226 2.9316581987571
4 C0 28 0 20 0
0

0101000
+60 0 -59 0 *
Ed
 1e-07 1 1 0
1  45 0 3.66519142918809 4.71238898038469
2  57 28 0 3.66519142918809 4.71238898038469
4 C0 28 0 7 0
0

0101000
+65 0 -59 0 *
Ed
 1e-07 1 1 0
1  46 0 2.9316581987571 5.86058663699672
2  58 28 0 2.9316581987571 5.86058663699672
4 C0 28 0 23 0
0

0101000
+65 0 -60 0 *
Wi

0101100
+58 0 -57 0 +56 0 *
Fa
0  1e-07 28 0

0111000
+55 0 *
Ve
1e-07
2.88675134594813 -5 5.5534180126148
0 0

0101101
*
Ed
 1e-07 1 1 0
1  47 0 2.9316581987571 5.86058663699672
2  59 29 0 2.9316581987571 5.86058663699672
4 C0 29 0 20 0
0

0101000
+59 0 -53 0 *
Ve
1e-07
4.33012701892219 -2.5 6
0 0

0101101
*
Ed
 1e-07 1 1 0
1  48 0 0.00272976051747869 2.9316581987571
2  60 29 0 0.00272976051747869 2.9316581987571
4 C0 29 0 21 0
0

0101000
+53 0 -51 0 *
Ed
 1e-07 1 1 0
1  49 0 4.71238898038469 5.75958653158129
2  61 29 0 4.71238898038469 5.75958653158129
4 C0 29 0 7 0
0

0101000
+59 0 -51 0 *
Wi

0101100
+52 0 +50 0 -49 0 *
Fa
0  1e-07 29 0

0111000
+48 0 *
Ed
 1e-07 1 1 0
1  50 0 5.75958653158129 6.28318530717959
2  62 10 0 5.75958653158129 6.28318530717959
4 C0 10 0 7 0
0

0101000
+51 0 -139 0 *
Ed
 1e-07 1 1 0
1  51 0 2.9316581987571 5.86058663699671
2  63 10 0 2.9316581987571 5.86058663699671
4 C0 10 0 21 0
0

0101000
+51 0 -140 0 *
Wi

0101100
+138 0 -46 0 +45 0 *
Fa
0  1e-07 10 0

0111000
+44 0 *
Ve
1e-07
2.88675134594813 5 5.5534180126148
0 0

0101101
*
Ed
 1e-07 1 1 0
1  52 0 2.93165819875709 5.86058663699671
2  64 30 0 2.93165819875709 5.86058663699671
4 C0 30 0 11 0
0

0101000
+137 0 -42 0 *
Ed
 1e-07 1 1 0
1  53 0 0.00272976051748219 2.9316581987571
2  65 30 0 0.00272976051748219 2.9316581987571
4 C0 30 0 25 0
0

0101000
+42 0 -70 0 *
Ed
 1e-07 1 1 0
1  54 0 0.523598775598299 1.5707963267949
2  66 30 0 0.523598775598299 1.5707963267949
4 C0 30 0 7 0
0

0101000
+137 0 -70 0 *
Wi

0101100
+41 0 +40 0 -39 0 *
Fa
0  1e-07 30 0

0111000
+38 0 *
Ed
 1e-07 1 1 0
1  55 0 0 3.14159265358979
2  67 8 0 0 3.14159265358979
4 C0 7 0 8 0
0

0101000
+146 0 -147 0 *
Wi

0101100
-36 0 -145 0 *
Wi

0101100
+46 0 +135 0 +39 0 +69 0 +128 0 +63 0 +57 0 +49 0 *
Fa
0  1e-07 7 0

0111000
+35 0 +34 0 *
Ed
 1e-07 1 1 0
1  56 0 0 3.14159265358979
2  68 8 0 0 3.14159265358979
2  69 6 0 0 3.14159265358979
4 C0 8 0 6 0
0

0101000
+153 0 -154 0 *
Wi

0101100
+32 0 -144 0 -36 0 -143 0 *
Fa
0  1e-07 8 0

0111000
+31 0 *
Ed
 1e-07 1 1 0
1  57 0 0 3.14159265358979
2  70 6 0 0 3.14159265358979
2  71 3 0 0 3.14159265358979
4 C0 6 0 3 0
0

0101000
+163 0 -164 0 *
Wi

0101100
+29 0 -151 0 -32 0 -150 0 *
Fa
0  1e-07 6 0

0111000
+28 0 *
Ed
 1e-07 1 1 0
1  58 0 0 3.14159265358979
2  72 3 0 0 3.14159265358979
4 C0 3 0 4 0
0

0101000
+159 0 -161 0 *
Wi

0101100
+26 0 -160 0 -29 0 -157 0 *
Fa
0  1e-07 3 0

0111000
+25 0 *
Wi

0101100
-75 0 -104 0 -97 0 -93 0 -111 0 -85 0 -79 0 -120 0 *
Wi

0101100
+26 0 +158 0 *
Fa
0  1e-07 4 0

0111000
+23 0 +22 0 *
Ed
 1e-07 1 1 0
1  59 0 1.44658198738521 6.5534180126148
4 C0 23 0 20 0
0

0101000
+100 0 -60 0 *
Ed
 1e-07 1 1 0
1  60 0 1.4465819873852 6.5534180126148
4 C0 23 0 14 0
0

0101000
+116 0 -131 0 *
Wi

0101100
-92 0 -98 0 +20 0 -56 0 -64 0 -19 0 *
Fa
0  1e-07 23 0

0111000
+18 0 *
Ed
 1e-07 1 1 0
1  61 0 1.4465819873852 6.5534180126148
4 C0 20 0 21 0
0

0101000
+108 0 -53 0 *
Wi

0101100
-96 0 -106 0 +16 0 -52 0 -58 0 -20 0 *
Fa
0  1e-07 20 0

0111000
+15 0 *
Ed
 1e-07 1 1 0
1  62 0 1.4465819873852 6.5534180126148
4 C0 21 0 11 0
0

0101000
+123 0 -140 0 *
Wi

0101100
-103 0 -76 0 +13 0 -45 0 -50 0 -16 0 *
Fa
0  1e-07 21 0

0111000
+12 0 *
Ed
 1e-07 1 1 0
1  63 0 1.4465819873852 6.5534180126148
4 C0 14 0 25 0
0

0101000
+89 0 -72 0 *
Wi

0101100
-112 0 +19 0 -127 0 -71 0 -10 0 -88 0 *
Fa
0  1e-07 14 0

0111000
+9 0 *
Ed
 1e-07 1 1 0
1  64 0 1.4465819873852 6.5534180126148
4 C0 25 0 11 0
0

0101000
+82 0 -42 0 *
Wi

0101100
-86 0 +10 0 -68 0 -40 0 -7 0 -81 0 *
Fa
0  1e-07 25 0

0111000
+6 0 *
Wi

0101100
-80 0 +7 0 -41 0 -136 0 -13 0 -119 0 *
Fa
0  1e-07 11 0

0111000
+4 0 *
Sh

0101100
-155 0 -148 0 -141 0 +133 0 +125 0 +117 0 +109 0 +101 0 +94 0 +90 0 
+83 0 +77 0 +73 0 +66 0 +61 0 +54 0 +47 0 +43 0 +37 0 +33 0 
-30 0 -27 0 -24 0 +21 0 +17 0 +14 0 +11 0 +8 0 +5 0 +3 0 
*
So

0100000
+2 0 *

+1 0 