DBRep_DrawableShape

CASCADE Topology V1, (c) Matra-Datavision
Locations 0
Curve2ds 6
1 0 40 1 0 
2 0 0 1 0 -0 1 8.75
1 6.2831853071795862 -0 0 1 
1 0 -0 0 1 
1 0 0 1 0 
2 0 0 1 0 -0 1 8.75
Curves 3
2 0 0 40 0 0 1 1 0 -0 -0 1 0 8.75
1 8.75 -2.1431318985078682e-15 0 0 0 1 
2 0 0 0 0 0 1 1 0 -0 -0 1 0 8.75
Polygon3D 0
PolygonOnTriangulations 0
Surfaces 3
2 0 0 0 0 0 1 1 0 -0 -0 1 0 8.75
1 0 0 40 0 0 1 1 0 -0 -0 1 0 
1 0 0 0 0 0 1 1 0 -0 -0 1 0 
Triangulations 0

TShapes 13
Ve
1e-07
8.75 -2.14313189850787e-15 40
0 0

0101101
*
Ed
 1e-07 1 1 0
1  1 0 0 6.28318530717959
2  1 1 0 0 6.28318530717959
2  2 2 0 0 6.28318530717959
0

0101000
+13 0 -13 0 *
Ve
1e-07
8.75 -2.14313189850787e-15 0
0 0

0101101
*
Ed
 1e-07 1 1 0
1  2 0 0 40
3  3 4CN 1 0 0 40
0

0101000
-13 0 +11 0 *
Ed
 1e-07 1 1 0
1  3 0 0 6.28318530717959
2  5 1 0 0 6.28318530717959
2  6 3 0 0 6.28318530717959
0

0101000
+11 0 -11 0 *
Wi

0101100
-12 0 +10 0 +9 0 -10 0 *
Fa
0  1e-07 1 0

0101000
+8 0 *
Wi

0101100
+12 0 *
Fa
0  1e-07 2 0

0101000
+6 0 *
Wi

0101100
-9 0 *
Fa
0  1e-07 3 0

0101000
-4 0 *
Sh

0101100
+7 0 +5 0 -3 0 *
So

1100000
+2 0 *

+1 0 