DBRep_DrawableShape

CASCADE Topology V1, (c) Matra-Datavision
Locations 0
Curve2ds 61
1 6.2831853071795862 -5.5511151231257827e-17 0 -1 
1 0 -5.5511151231257827e-17 0 -1 
1 6.2831853071795862 0.13395254086102648 -1 0 
1 0 0.75556250000000036 1 0 
1 3.1415926535897931 -1.6653345369377348e-16 0 1 
1 3.1415926535897931 -1.6653345369377348e-16 0 1 
1 6.2831853071795862 -0.1339525408610267 -1 0 
1 0 0 0 1 
1 6.2831853071795862 0 0 1 
1 0 -0.75556249999999991 1 0 
1 3.1415926535897931 0 0 -1 
1 3.1415926535897931 0 0 -1 
1 6.2831853071795862 8.3266726846886741e-17 0 -1 
1 0 8.3266726846886741e-17 0 -1 
1 6.2831853071795862 0.13395254086102593 -1 0 
1 0 0.0049999999999998934 1 0 
1 3.1415926535897931 0 0 1 
1 3.1415926535897931 0 0 1 
1 6.2831853071795862 -0.13395254086102726 -1 0 
1 0 0 0 1 
1 6.2831853071795862 0 0 1 
1 0 -0.0050000000000001155 1 0 
1 1.5707963267948966 3.1415926535897927 1 0 
1 0 -0.0050000000000001155 1 0 
1 1.5707963267948966 3.1415926535897927 1 0 
1 3.1415926535897931 0 0 -1 
1 3.1415926535897931 0 0 -1 
1 1.5707963267948966 3.1415926535897927 1 0 
1 0 -0.0050000000000001155 1 0 
1 6.2831853071795862 -8.8817841970012523e-16 0 1 
1 0 -8.8817841970012523e-16 0 1 
1 1.5707963267948966 4.7123889803846897 1 0 
1 3.1415926535897931 6.2831853071795871 0 -1 
1 3.1415926535897931 6.2831853071795871 0 -1 
1 0 0 0 1 
1 6.2831853071795862 0 0 1 
1 0 -0.55210091064884126 1 0 
7 0 0  3 25 23  1.4278356115404653 -0.55210091064884093  1.4278959213759075 -0.54535258253068486  1.4280164647059284 -0.53184732803701462  1.4281970511085555 -0.51156360304179449  1.4283774093493884 -0.49125398635777417  1.4285575398575459 -0.47091842938092549  1.4287374430611894 -0.45055688339532934  1.4289171193874068 -0.43016929955713279  1.4290965692622084 -0.40975562889834904  1.4292757931105484 -0.38931582232534478  1.4294547913563367 -0.36884983061874499  1.4296335644224181 -0.3483576044329601  1.4298121127305992 -0.32783909429580899  1.4299904367016349 -0.30729425060811483  1.4301685367552404 -0.2867230236433097  1.4303464133100867 -0.26612536354702804  1.4305240667838097 -0.24550122033671301  1.4307014975930272 -0.22485054390118794  1.4308787061533046 -0.20417328400033591  1.4310556928791947 -0.18346939026437301  1.4312324581842262 -0.16273881219463393  1.4314090024808879 -0.14198149915870126  1.4315853261807456 -0.12119740040664172  1.4317027285228994 -0.10732344347451363  1.4317613930646349 -0.10038198375433478 
 0 4 0.020534249271498817 1 0.041068498542997635 1 0.061602747814496456 1 0.08213699708599527 1 0.10267124635749408 1 0.12320549562899291 1 0.14373974490049171 1 0.16427399417199054 1 0.18480824344348937 1 0.20534249271498817 1 0.225876741986487 1 0.24641099125798582 1 0.26694524052948465 1 0.28747948980098342 1 0.30801373907248225 1 0.32854798834398108 1 0.34908223761547991 1 0.36961648688697873 1 0.39015073615847751 1 0.41068498542997633 1 0.43121923470147516 1 0.45175348397297399 4
1 0 -0.10038198375433457 1 0 
7 0 0  3 25 23  1.7098312605251591 -0.10038198375433478  1.7098899250668955 -0.10732344347451368  1.7100073274090484 -0.12119740040664174  1.7101836511089052 -0.14198149915870123  1.7103601954055669 -0.16273881219463396  1.7105369607106029 -0.18346939026437301  1.7107139474364859 -0.20417328400033583  1.7108911559967659 -0.22485054390118792  1.7110685868059816 -0.2455012203367129  1.7112462402797108 -0.26612536354702809  1.7114241168345528 -0.28672302364330954  1.7116022168881591 -0.30729425060811499  1.7117805408591904 -0.32783909429580893  1.7119590891673742 -0.3483576044329601  1.7121378622334564 -0.36884983061874493  1.7123168604792447 -0.38931582232534467  1.7124960843275883 -0.40975562889834916  1.7126755342023845 -0.43016929955713279  1.712855210528601 -0.45055688339532951  1.7130351137322517 -0.47091842938092543  1.7132152442404065 -0.49125398635777417  1.7133956024812367 -0.51156360304179438  1.7135761888838683 -0.53184732803701473  1.7136967322138892 -0.54535258253068486  1.7137570420493278 -0.55210091064884081 
 0 4 0.020534249271498817 1 0.041068498542997635 1 0.061602747814496456 1 0.08213699708599527 1 0.10267124635749408 1 0.12320549562899291 1 0.14373974490049171 1 0.16427399417199054 1 0.18480824344348937 1 0.20534249271498817 1 0.225876741986487 1 0.24641099125798582 1 0.26694524052948465 1 0.28747948980098342 1 0.30801373907248225 1 0.32854798834398108 1 0.34908223761547991 1 0.36961648688697873 1 0.39015073615847751 1 0.41068498542997633 1 0.43121923470147516 1 0.45175348397297399 4
1 0 -0.55210091064884126 1 0 
1 3.1415926535897931 -1.1102230246251565e-16 0 -1 
1 3.1415926535897931 -1.1102230246251565e-16 0 -1 
1 0 0.55210091064884126 1 0 
7 0 0  3 25 23  4.5694282651302585 -0.55210091064884093  4.5694885749656988 -0.54535258253068486  4.5696091182957197 -0.53184732803701462  4.5697897046983504 -0.51156360304179449  4.5699700629391806 -0.49125398635777417  4.5701501934473381 -0.47091842938092543  4.5703300966509834 -0.45055688339532912  4.5705097729772008 -0.43016929955713273  4.5706892228520015 -0.4097556288983491  4.5708684467003415 -0.38931582232534462  4.5710474449461307 -0.36884983061874477  4.5712262180122121 -0.3483576044329601  4.5714047663203941 -0.32783909429580876  4.5715830902914281 -0.30729425060811472  4.5717611903450326 -0.28672302364330948  4.5719390668998798 -0.26612536354702776  4.5721167203736046 -0.24550122033671298  4.5722941511828203 -0.22485054390118772  4.5724713597430968 -0.20417328400033569  4.5726483464689878 -0.18346939026437278  4.5728251117740175 -0.16273881219463368  4.5730016560706819 -0.14198149915870104  4.5731779797705387 -0.12119740040664147  4.5732953821126916 -0.10732344347451339  4.5733540466544271 -0.10038198375433456 
 0 4 0.020534249271498817 1 0.041068498542997635 1 0.061602747814496456 1 0.08213699708599527 1 0.10267124635749408 1 0.12320549562899291 1 0.14373974490049171 1 0.16427399417199054 1 0.18480824344348937 1 0.20534249271498817 1 0.225876741986487 1 0.24641099125798582 1 0.26694524052948465 1 0.28747948980098342 1 0.30801373907248225 1 0.32854798834398108 1 0.34908223761547991 1 0.36961648688697873 1 0.39015073615847751 1 0.41068498542997633 1 0.43121923470147516 1 0.45175348397297399 4
7 0 0  3 25 23  4.8514239141149513 -0.10038198375433456  4.8514825786566869 -0.10732344347451347  4.8515999809988424 -0.12119740040664151  4.8517763046986975 -0.14198149915870098  4.8519528489953609 -0.16273881219463374  4.8521296143003942 -0.18346939026437281  4.8523066010262808 -0.2041732840003356  4.8524838095865599 -0.22485054390118761  4.852661240395773 -0.24550122033671279  4.8528388938695004 -0.26612536354702787  4.8530167704243468 -0.28672302364330932  4.8531948704779504 -0.30729425060811477  4.8533731944489853 -0.32783909429580882  4.8535517427571664 -0.34835760443296004  4.8537305158232495 -0.36884983061874504  4.8539095140690378 -0.38931582232534456  4.8540887379173787 -0.40975562889834899  4.8542681877921785 -0.43016929955713273  4.8544478641183941 -0.45055688339532934  4.8546277673220439 -0.47091842938092532  4.8548078978301987 -0.49125398635777417  4.8549882560710289 -0.51156360304179438  4.8551688424736614 -0.53184732803701473  4.8552893858036805 -0.54535258253068486  4.8553496956391209 -0.55210091064884093 
 0 4 0.020534249271498817 1 0.041068498542997635 1 0.061602747814496456 1 0.08213699708599527 1 0.10267124635749408 1 0.12320549562899291 1 0.14373974490049171 1 0.16427399417199054 1 0.18480824344348937 1 0.20534249271498817 1 0.225876741986487 1 0.24641099125798582 1 0.26694524052948465 1 0.28747948980098342 1 0.30801373907248225 1 0.32854798834398108 1 0.34908223761547991 1 0.36961648688697873 1 0.39015073615847751 1 0.41068498542997633 1 0.43121923470147516 1 0.45175348397297399 4
1 0 -0.10038198375433456 1 0 
1 0 -0.55210091064884126 1 0 
1 0 -0.55210091064884126 1 0 
1 0 0.55210091064884126 1 0 
1 1.5707963267948966 4.7123889803846897 1 0 
1 -4.7123889803846897 4.7123889803846897 1 0 
1 -4.7123889803846897 3.1415926535897927 1 0 
1 0 -0.0050000000000001155 1 0 
1 0 0.0049999999999998934 1 0 
1 6.2831853071795862 0.13395254086102593 -1 0 
1 6.2831853071795862 -0.13395254086102726 -1 0 
1 0 -0.75556249999999991 1 0 
1 0 0.75556250000000036 1 0 
1 6.2831853071795862 0.13395254086102648 -1 0 
1 6.2831853071795862 -0.1339525408610267 -1 0 
Curves 45
1 2.7038351568684199e-16 0.70528124999999997 3.0052812499999999 -4.3296372853596802e-17 -0.70710678118654802 0.70710678118654702 
2 1.78214666534857e-16 0 2.9105625000000002 6.12303176911189e-17 -0 1 0 1 0 -1 0 6.12303176911189e-17 0.80000000000000004
1 9.7645135690484004e-17 -0.70528124999999997 3.0052812499999999 -1.2988911856079e-16 -0.70710678118654802 -0.70710678118654702 
2 1.89813984842468e-16 0 3.1000000000000001 6.12303176911189e-17 -0 1 0 1 0 -1 0 6.12303176911189e-17 0.61056250000000001
1 2.2991984293015099e-16 0.80000000000000004 2.1549999999999998 6.12303176911189e-17 0 1 
2 8.5688002713865203e-17 0 1.3994374999999999 6.12303176911189e-17 -0 1 0 1 0 -1 0 6.12303176911189e-17 0.80000000000000004
1 3.3982826318571003e-17 -0.80000000000000004 2.1549999999999998 -6.12303176911189e-17 -0 -1 
1 1.6625753355823801e-16 0.70528125000000097 1.3047187499999999 -4.3296372853596802e-17 -0.70710678118654802 0.70710678118654702 
2 7.4088684406253796e-17 0 1.21 6.12303176911189e-17 -0 1 0 1 0 -1 0 6.12303176911189e-17 0.80000000000000004
1 -6.4808464381194201e-18 -0.70528125000000097 1.3047187499999999 -1.2988911856079e-16 -0.70710678118654802 -0.70710678118654702 
2 8.5688002713865203e-17 0 1.3994374999999999 6.12303176911189e-17 -0 1 0 1 0 -1 0 6.12303176911189e-17 0.61056250000000001
1 1.7175104112358799e-16 0.80000000000000004 1.2050000000000001 6.12303176911189e-17 0 1 
2 7.3476381229342603e-17 0 1.2 6.12303176911189e-17 -0 1 0 1 0 -1 0 6.12303176911189e-17 0.80000000000000004
2 7.3476381229342603e-17 0 1.2 6.12303176911189e-17 -0 1 0 1 0 -1 0 6.12303176911189e-17 0.80000000000000004
1 -2.4185975487991999e-17 -0.80000000000000004 1.2050000000000001 -6.12303176911189e-17 -0 -1 
2 7.3476381229342603e-17 0 1.2 6.12303176911189e-17 -0 1 0 1 0 -1 0 6.12303176911189e-17 0.80000000000000004
2 0.90000000000000002 -1.10214571844014e-16 1.2 -1.22460635382238e-16 -1 7.4983036091106899e-33 1 -1.22460635382238e-16 -6.12303176911189e-17 6.12303176911189e-17 -1.7789921910373654e-47 1 0.10000000000000001
2 6.7353349460230801e-17 0 1.1000000000000001 6.12303176911189e-17 -0 1 0 1 0 -1 0 6.12303176911189e-17 0.90000000000000002
2 -0.90000000000000002 1.10214571844014e-16 1.2 -1.22460635382238e-16 -1 7.4983036091106899e-33 -1 1.22460635382238e-16 6.12303176911189e-17 -6.12303176911189e-17 1.7789921910373654e-47 -1 0.10000000000000001
1 2.1147497327520201e-16 1.45188123506074 0.55000000000000004 7.1670465480454863e-17 0.087155742747657861 0.99619469809174555 
2 0 0 0 6.12303176911189e-17 -0 1 0 1 0 -1 0 6.12303176911189e-17 1.4037624701214799
7 1 0  2 3 2  -1.38944200041656 0.20000000000000001 8.5075975098889598e-17  1 -1.40904926336836 0.20000000000000001 0.22182576415746799  1.00009756463462 -1.4292064349187601 0.20000000000000001 0.45000000000000001  1
 0 3 0.45175348397297399 3
2 2.7553642961003499e-17 0 0.45000000000000001 6.12303176911189e-17 -0 1 0 1 0 -1 0 6.12303176911189e-17 1.4431323687081501
7 1 0  2 3 2  -1.4292064349187601 -0.20000000000000001 0.45000000000000001  1 -1.40904926336836 -0.20000000000000001 0.22182576415746799  1.00009756463462 -1.38944200041656 -0.20000000000000001 8.5075975098889598e-17  1
 0 3 0.45175348397297399 3
2 0 0 0 6.12303176911189e-17 -0 1 0 1 0 -1 0 6.12303176911189e-17 1.4037624701214799
1 -1.4412162381497099e-16 -1.45188123506074 0.55000000000000004 -5.0324170212276773e-17 0.087155742747657861 -0.99619469809174555 
2 6.7353349460230801e-17 0 1.1000000000000001 6.12303176911189e-17 -0 1 0 1 0 -1 0 6.12303176911189e-17 1.5
1 2.7553642961003499e-17 -0.20000000000000001 0.45000000000000001 1 0 -6.12303176911189e-17 
7 1 0  2 3 2  1.38944200041656 -0.20000000000000001 -8.5075975098889598e-17  1 1.40904926336836 -0.20000000000000001 0.22182576415746799  1.00009756463462 1.4292064349187601 -0.20000000000000001 0.45000000000000001  1
 0 3 0.45175348397297399 3
1 0 -0.20000000000000001 0 1 0 -6.12303176911189e-17 
1 0 0.20000000000000001 0 -1 0 6.12303176911189e-17 
7 1 0  2 3 2  1.4292064349187601 0.20000000000000001 0.45000000000000001  1 1.40904926336836 0.20000000000000001 0.22182576415746799  1.00009756463462 1.38944200041656 0.20000000000000001 -8.5075975098889598e-17  1
 0 3 0.45175348397297399 3
1 2.7553642961003499e-17 0.20000000000000001 0.45000000000000001 1 0 -6.12303176911189e-17 
2 2.7553642961003499e-17 0 0.45000000000000001 6.12303176911189e-17 -0 1 0 1 0 -1 0 6.12303176911189e-17 1.4431323687081501
2 0 0 0 6.12303176911189e-17 -0 1 0 1 0 -1 0 6.12303176911189e-17 1.4037624701214799
2 0 0 0 6.12303176911189e-17 -0 1 0 1 0 -1 0 6.12303176911189e-17 1.4037624701214799
2 6.7353349460230801e-17 0 1.1000000000000001 6.12303176911189e-17 -0 1 0 1 0 -1 0 6.12303176911189e-17 1.5
2 6.7353349460230801e-17 0 1.1000000000000001 6.12303176911189e-17 -0 1 0 1 0 -1 0 6.12303176911189e-17 0.90000000000000002
2 6.7353349460230801e-17 0 1.1000000000000001 6.12303176911189e-17 -0 1 0 1 0 -1 0 6.12303176911189e-17 0.90000000000000002
2 7.3476381229342603e-17 0 1.2 6.12303176911189e-17 -0 1 0 1 0 -1 0 6.12303176911189e-17 0.80000000000000004
2 7.4088684406253796e-17 0 1.21 6.12303176911189e-17 -0 1 0 1 0 -1 0 6.12303176911189e-17 0.80000000000000004
2 8.5688002713865203e-17 0 1.3994374999999999 6.12303176911189e-17 -0 1 0 1 0 -1 0 6.12303176911189e-17 0.61056250000000001
2 8.5688002713865203e-17 0 1.3994374999999999 6.12303176911189e-17 -0 1 0 1 0 -1 0 6.12303176911189e-17 0.80000000000000004
2 1.78214666534857e-16 0 2.9105625000000002 6.12303176911189e-17 -0 1 0 1 0 -1 0 6.12303176911189e-17 0.80000000000000004
2 1.89813984842468e-16 0 3.1000000000000001 6.12303176911189e-17 -0 1 0 1 0 -1 0 6.12303176911189e-17 0.61056250000000001
Polygon3D 0
PolygonOnTriangulations 0
Surfaces 20
3 1.8401432568866299e-16 0 3.0052812499999999 -6.12303176911189e-17 0 -1 0 1 0 1 0 -6.12303176911189e-17 0.70528124999999997
0.78539816339744895
3 1.8401432568866299e-16 0 3.0052812499999999 -6.12303176911189e-17 0 -1 0 1 0 1 0 -6.12303176911189e-17 0.70528124999999997
0.78539816339744895
2 1.3195133462436099e-16 0 2.1549999999999998 6.12303176911189e-17 -0 1 0 1 0 -1 0 6.12303176911189e-17 0.80000000000000004
1 1.89813984842468e-16 0.30528125 3.1000000000000001 6.12303176911189e-17 -0 1 0 1 0 -1 0 6.12303176911189e-17 
2 1.3195133462436099e-16 0 2.1549999999999998 6.12303176911189e-17 -0 1 0 1 0 -1 0 6.12303176911189e-17 0.80000000000000004
1 8.5688002713865203e-17 0.70528124999999997 1.3994374999999999 -6.12303176911189e-17 -0 -1 0 -1 0 -1 0 6.12303176911189e-17 
3 7.9888343560059506e-17 0 1.3047187499999999 -6.12303176911189e-17 0 -1 0 1 0 1 0 -6.12303176911189e-17 0.70528125000000097
0.78539816339744895
3 7.9888343560059506e-17 0 1.3047187499999999 -6.12303176911189e-17 0 -1 0 1 0 1 0 -6.12303176911189e-17 0.70528125000000097
0.78539816339744895
2 7.37825328177982e-17 0 1.2050000000000001 6.12303176911189e-17 -0 1 0 1 0 -1 0 6.12303176911189e-17 0.80000000000000004
2 7.37825328177982e-17 0 1.2050000000000001 6.12303176911189e-17 -0 1 0 1 0 -1 0 6.12303176911189e-17 0.80000000000000004
5 7.3476381229342603e-17 0 1.2 6.12303176911189e-17 0 1 1 0 -6.12303176911189e-17 -0 1 0 0.90000000000000002 0.10000000000000001
5 7.3476381229342603e-17 0 1.2 6.12303176911189e-17 0 1 1 0 -6.12303176911189e-17 -0 1 0 0.90000000000000002 0.10000000000000001
1 6.7353349460230801e-17 1.2 1.1000000000000001 6.12303176911189e-17 -0 1 0 1 0 -1 0 6.12303176911189e-17 
3 3.36766747301154e-17 0 0.55000000000000004 6.12303176911189e-17 -0 1 0 1 0 -1 0 6.12303176911189e-17 1.45188123506074
0.0872664625997151
3 3.36766747301154e-17 0 0.55000000000000004 6.12303176911189e-17 -0 1 0 1 0 -1 0 6.12303176911189e-17 1.45188123506074
0.0872664625997151
1 0 0.70188123506074196 0 -6.12303176911189e-17 -0 -1 0 -1 0 -1 0 6.12303176911189e-17 
1 -1.68383373650577e-17 0.20000000000000001 -0.27500000000000002 0 -1 0 1 0 -6.12303176911189e-17 6.12303176911189e-17 0 1 
1 2.7553642961003499e-17 0 0.45000000000000001 -6.12303176911189e-17 0 -1 -1 0 6.12303176911189e-17 0 1 0 
1 -1.68383373650577e-17 -0.20000000000000001 -0.27500000000000002 0 1 0 -1 0 6.12303176911189e-17 6.12303176911189e-17 -0 1 
1 0 0.70188123506074196 0 -6.12303176911189e-17 -0 -1 0 -1 0 -1 0 6.12303176911189e-17 
Triangulations 0

TShapes 118
Ve
1e-07
1.78214666534857e-16 0.8 2.9105625
0 0

0101101
*
Ve
1e-07
1.89813984842468e-16 0.6105625 3.1
0 0

0101101
*
Ed
 1e-07 1 1 0
1  1 0 -0.133952540861026 0.133952540861027
2  1 1 0 -0.133952540861026 0.133952540861027
2  2 2 0 -0.133952540861026 0.133952540861027
4 CN 1 0 2 0
0

0101000
+118 0 -117 0 *
Ve
1e-07
8.02461582290669e-17 -0.8 2.9105625
0 0

0101101
*
Ed
 1e-07 1 1 0
1  2 0 0 3.14159265358979
2  3 1 0 0 3.14159265358979
2  4 3 0 0 3.14159265358979
4 C0 1 0 3 0
0

0101000
+118 0 -115 0 *
Ve
1e-07
1.15044113151901e-16 -0.6105625 3.1
0 0

0101101
*
Ed
 1e-07 1 1 0
1  3 0 -0.133952540861027 0.133952540861026
2  5 1 0 -0.133952540861027 0.133952540861026
2  6 2 0 -0.133952540861027 0.133952540861026
4 CN 1 0 2 0
0

0101000
+113 0 -115 0 *
Ed
 1e-07 1 1 0
1  4 0 0 3.14159265358979
2  7 1 0 0 3.14159265358979
4 C0 1 0 4 0
0

0101000
+117 0 -113 0 *
Wi

0101100
-116 0 +114 0 -112 0 -111 0 *
Fa
0  1e-07 1 0

0111000
+110 0 *
Ve
1e-07
8.56880027138652e-17 0.8 1.3994375
0 0

0101101
*
Ed
 1e-07 1 1 0
1  5 0 -0.7555625 0.7555625
2  8 3 0 -0.7555625 0.7555625
2  9 5 0 -0.7555625 0.7555625
4 CN 3 0 5 0
0

0101000
+108 0 -118 0 *
Ve
1e-07
-1.22805055919251e-17 -0.8 1.3994375
0 0

0101101
*
Ed
 1e-07 1 1 0
1  6 0 0 3.14159265358979
2  10 3 0 0 3.14159265358979
4 C0 3 0 6 0
0

0101000
+108 0 -106 0 *
Ed
 1e-07 1 1 0
1  7 0 -0.7555625 0.7555625
2  11 3 0 -0.7555625 0.7555625
2  12 5 0 -0.7555625 0.7555625
4 CN 3 0 5 0
0

0101000
+115 0 -106 0 *
Wi

0101100
-107 0 +105 0 -104 0 -114 0 *
Fa
0  1e-07 3 0

0111000
+103 0 *
Ve
1e-07
7.40886844062538e-17 0.8 1.21
0 0

0101101
*
Ve
1e-07
8.56880027138652e-17 0.6105625 1.3994375
0 0

0101101
*
Ed
 1e-07 1 1 0
1  8 0 -0.133952540861026 0.133952540861027
2  13 7 0 -0.133952540861026 0.133952540861027
2  14 8 0 -0.133952540861026 0.133952540861027
4 CN 7 0 8 0
0

0101000
+101 0 -100 0 *
Ve
1e-07
-2.38798238995364e-17 -0.8 1.21
0 0

0101101
*
Ed
 1e-07 1 1 0
1  9 0 0 3.14159265358979
2  15 7 0 0 3.14159265358979
2  16 9 0 0 3.14159265358979
4 C0 7 0 9 0
0

0101000
+101 0 -98 0 *
Ve
1e-07
1.09181310232976e-17 -0.6105625 1.3994375
0 0

0101101
*
Ed
 1e-07 1 1 0
1  10 0 -0.133952540861027 0.133952540861026
2  17 7 0 -0.133952540861027 0.133952540861026
2  18 8 0 -0.133952540861027 0.133952540861026
4 CN 7 0 8 0
0

0101000
+96 0 -98 0 *
Ed
 1e-07 1 1 0
1  11 0 0 3.14159265358979
2  19 7 0 0 3.14159265358979
4 C0 7 0 6 0
0

0101000
+100 0 -96 0 *
Wi

0101100
-99 0 +97 0 -95 0 -94 0 *
Fa
0  1e-07 7 0

0111000
+93 0 *
Ve
1e-07
7.34763812293426e-17 0.8 1.2
0 0

0101101
*
Ed
 1e-07 1 1 0
1  12 0 -0.00500000000000012 0.00499999999999989
2  20 9 0 -0.00500000000000012 0.00499999999999989
2  21 10 0 -0.00500000000000012 0.00499999999999989
4 CN 9 0 10 0
0

0101000
+91 0 -101 0 *
Ve
1e-07
-0.8 9.79685083057902e-17 1.2
0 0

0101101
*
Ed
 1e-07 1 1 0
1  13 0 0 1.5707963267949
2  22 9 0 0 1.5707963267949
2  23 11 0 0 1.5707963267949
4 G1 9 0 11 0
0

0101000
+91 0 -89 0 *
Ve
1e-07
-2.44921270764475e-17 -0.8 1.2
0 0

0101101
*
Ed
 1e-07 1 1 0
1  14 0 1.5707963267949 3.14159265358979
2  24 9 0 1.5707963267949 3.14159265358979
2  25 12 0 1.5707963267949 3.14159265358979
4 G1 9 0 12 0
0

0101000
+89 0 -87 0 *
Ed
 1e-07 1 1 0
1  15 0 -0.00499999999999989 0.00500000000000012
2  26 9 0 -0.00499999999999989 0.00500000000000012
2  27 10 0 -0.00499999999999989 0.00500000000000012
4 CN 9 0 10 0
0

0101000
+98 0 -87 0 *
Wi

0101100
-90 0 +88 0 +86 0 -85 0 -97 0 *
Fa
0  1e-07 9 0

0111000
+84 0 *
Ve
1e-07
0.8 -9.79685083057902e-17 1.2
0 0

0101101
*
Ed
 1e-07 1 1 0
1  16 0 3.14159265358979 4.71238898038469
2  28 12 0 3.14159265358979 4.71238898038469
2  29 10 0 3.14159265358979 4.71238898038469
4 G1 12 0 10 0
0

0101000
+87 0 -82 0 *
Ve
1e-07
0.9 -1.10214571844014e-16 1.1
0 0

0101101
*
Ed
 1e-07 1 1 0
1  17 0 3.14159265358979 4.71238898038469
2  30 12 0 3.14159265358979 4.71238898038469
2  31 11 0 3.14159265358979 4.71238898038469
4 CN 12 0 11 0
0

0101000
+82 0 -80 0 *
Ve
1e-07
-0.9 1.10214571844014e-16 1.1
0 0

0101101
*
Ed
 1e-07 1 1 0
1  18 0 1.5707963267949 4.71238898038469
2  32 12 0 1.5707963267949 4.71238898038469
4 G1 12 0 13 0
0

0101000
+78 0 -80 0 *
Ed
 1e-07 1 1 0
1  19 0 1.5707963267949 3.14159265358979
2  33 12 0 1.5707963267949 3.14159265358979
2  34 11 0 1.5707963267949 3.14159265358979
4 CN 12 0 11 0
0

0101000
+78 0 -89 0 *
Wi

0101100
+86 0 +81 0 +79 0 -77 0 +76 0 *
Fa
0  1e-07 12 0

0111000
+75 0 *
Ve
1e-07
1.71905644016816e-16 1.40376247012148 -1.05258371960461e-32
0 0

0101101
*
Ve
1e-07
6.73533494602308e-17 1.5 1.1
0 0

0101101
*
Ed
 1e-07 1 1 0
1  20 0 -0.552100910648841 0.552100910648841
2  35 14 0 -0.552100910648841 0.552100910648841
2  36 15 0 -0.552100910648841 0.552100910648841
4 CN 14 0 15 0
0

0101000
+73 0 -72 0 *
Ve
1e-07
-1.38944200041656 0.2 8.50759750988896e-17
0 0

0101101
*
Ed
 1e-07 1 1 0
1  21 0 0 1.42783561154047
2  37 14 0 0 1.42783561154047
4 C0 14 0 16 0
0

0101000
+73 0 -70 0 *
Ve
1e-07
-1.42920643491876 0.2 0.45
0 0

0101101
*
Ed
 1e-07 1 1 0
1  22 0 0 0.451753483972974
2  38 14 0 0 0.451753483972974
4 C0 14 0 17 0
0

0101000
+70 0 -68 0 *
Ve
1e-07
-1.42920643491876 -0.2 0.45
0 0

0101101
*
Ed
 1e-07 1 1 0
1  23 0 1.43176139306463 1.70983126052516
2  39 14 0 1.43176139306463 1.70983126052516
4 C0 14 0 18 0
0

0101000
+68 0 -66 0 *
Ve
1e-07
-1.38944200041656 -0.2 8.50759750988896e-17
0 0

0101101
*
Ed
 1e-07 1 1 0
1  24 0 0 0.451753483972974
2  40 14 0 0 0.451753483972974
4 C0 14 0 19 0
0

0101000
+66 0 -64 0 *
Ve
1e-07
-1.71905644016816e-16 -1.40376247012148 1.05258371960461e-32
0 0

0101101
*
Ed
 1e-07 1 1 0
1  25 0 1.71375704204933 3.14159265358979
2  41 14 0 1.71375704204933 3.14159265358979
4 C0 14 0 20 0
0

0101000
+64 0 -62 0 *
Ve
1e-07
-1.16337603613126e-16 -1.5 1.1
0 0

0101101
*
Ed
 1e-07 1 1 0
1  26 0 -0.552100910648841 0.552100910648841
2  42 14 0 -0.552100910648841 0.552100910648841
2  43 15 0 -0.552100910648841 0.552100910648841
4 CN 14 0 15 0
0

0101000
+60 0 -62 0 *
Ed
 1e-07 1 1 0
1  27 0 0 3.14159265358979
2  44 14 0 0 3.14159265358979
4 C0 14 0 13 0
0

0101000
+72 0 -60 0 *
Wi

0101100
-71 0 +69 0 +67 0 +65 0 +63 0 +61 0 -59 0 -58 0 *
Fa
0  1e-07 14 0

0111000
+57 0 *
Ve
1e-07
1.42920643491876 -0.2 0.45
0 0

0101101
*
Ed
 1e-07 1 1 0
1  28 0 -1.42920643491876 1.42920643491876
4 C0 19 0 18 0
0

0101000
+66 0 -55 0 *
Ve
1e-07
1.38944200041656 -0.2 -8.50759750988896e-17
0 0

0101101
*
Ed
 1e-07 1 1 0
1  29 0 0 0.451753483972974
2  45 15 0 0 0.451753483972974
4 C0 19 0 15 0
0

0101000
+53 0 -55 0 *
Ed
 1e-07 1 1 0
1  30 0 -1.38944200041656 1.38944200041656
4 C0 19 0 20 0
0

0101000
+64 0 -53 0 *
Wi

0101100
-63 0 +54 0 -52 0 -51 0 *
Fa
0  1e-07 19 0

0111000
+50 0 *
Ve
1e-07
1.38944200041656 0.2 -8.50759750988896e-17
0 0

0101101
*
Ed
 1e-07 1 1 0
1  31 0 -1.38944200041656 1.38944200041656
4 C0 17 0 16 0
0

0101000
+48 0 -70 0 *
Ve
1e-07
1.42920643491876 0.2 0.45
0 0

0101101
*
Ed
 1e-07 1 1 0
1  32 0 0 0.451753483972974
2  46 15 0 0 0.451753483972974
4 C0 17 0 15 0
0

0101000
+46 0 -48 0 *
Ed
 1e-07 1 1 0
1  33 0 -1.42920643491876 1.42920643491876
4 C0 17 0 18 0
0

0101000
+68 0 -46 0 *
Wi

0101100
-67 0 -47 0 -45 0 -44 0 *
Fa
0  1e-07 17 0

0111000
+43 0 *
Ed
 1e-07 1 1 0
1  34 0 4.57335404665443 4.85142391411495
2  47 15 0 4.57335404665443 4.85142391411495
4 C0 18 0 15 0
0

0101000
+55 0 -46 0 *
Wi

0101100
-65 0 +44 0 -41 0 -54 0 *
Fa
0  1e-07 18 0

0111000
+40 0 *
Ed
 1e-07 1 1 0
1  35 0 4.85534969563912 6.28318530717959
2  48 15 0 4.85534969563912 6.28318530717959
4 C0 16 0 15 0
0

0101000
+48 0 -73 0 *
Wi

0101100
+47 0 -69 0 -38 0 *
Fa
0  1e-07 16 0

0111000
+37 0 *
Ed
 1e-07 1 1 0
1  36 0 3.14159265358979 4.56942826513026
2  49 15 0 3.14159265358979 4.56942826513026
4 C0 20 0 15 0
0

0101000
+62 0 -53 0 *
Wi

0101100
+51 0 -35 0 -61 0 *
Fa
0  1e-07 20 0

0111000
+34 0 *
Ed
 1e-07 1 1 0
1  37 0 3.14159265358979 6.28318530717959
2  50 15 0 3.14159265358979 6.28318530717959
4 C0 15 0 13 0
0

0101000
+60 0 -72 0 *
Wi

0101100
+71 0 -32 0 +59 0 +35 0 +52 0 +41 0 +45 0 +38 0 *
Fa
0  1e-07 15 0

0111000
+31 0 *
Ve
1e-07
6.73533494602308e-17 0.9 1.1
0 0

0101101
*
Ed
 1e-07 1 1 0
1  38 0 0 1.5707963267949
2  51 11 0 0 1.5707963267949
4 G1 13 0 11 0
0

0101000
+29 0 -78 0 *
Ed
 1e-07 1 1 0
1  39 0 4.71238898038469 6.28318530717959
2  52 11 0 4.71238898038469 6.28318530717959
4 G1 13 0 11 0
0

0101000
+80 0 -29 0 *
Wi

0101100
-28 0 -27 0 -77 0 *
Wi

0101100
+58 0 +32 0 *
Fa
0  1e-07 13 0

0111000
+26 0 +25 0 *
Ed
 1e-07 1 1 0
1  40 0 4.71238898038469 6.28318530717959
2  53 11 0 4.71238898038469 6.28318530717959
2  54 10 0 4.71238898038469 6.28318530717959
4 G1 11 0 10 0
0

0101000
+82 0 -91 0 *
Wi

0101100
-28 0 -27 0 -79 0 +23 0 +88 0 -76 0 *
Fa
0  1e-07 11 0

0111000
+22 0 *
Ed
 1e-07 1 1 0
1  41 0 3.14159265358979 6.28318530717959
2  55 10 0 3.14159265358979 6.28318530717959
2  56 8 0 3.14159265358979 6.28318530717959
4 C0 10 0 8 0
0

0101000
+98 0 -101 0 *
Wi

0101100
+90 0 -20 0 +85 0 +81 0 +23 0 *
Fa
0  1e-07 10 0

0111000
+19 0 *
Ed
 1e-07 1 1 0
1  42 0 3.14159265358979 6.28318530717959
2  57 8 0 3.14159265358979 6.28318530717959
4 C0 8 0 6 0
0

0101000
+96 0 -100 0 *
Wi

0101100
+99 0 -17 0 +95 0 +20 0 *
Fa
0  1e-07 8 0

0111000
+16 0 *
Ed
 1e-07 1 1 0
1  43 0 3.14159265358979 6.28318530717959
2  58 5 0 3.14159265358979 6.28318530717959
4 C0 6 0 5 0
0

0101000
+106 0 -108 0 *
Wi

0101100
-105 0 -14 0 *
Wi

0101100
+94 0 +17 0 *
Fa
0  1e-07 6 0

0111000
+13 0 +12 0 *
Ed
 1e-07 1 1 0
1  44 0 3.14159265358979 6.28318530717959
2  59 5 0 3.14159265358979 6.28318530717959
2  60 2 0 3.14159265358979 6.28318530717959
4 C0 5 0 2 0
0

0101000
+115 0 -118 0 *
Wi

0101100
+107 0 -10 0 +104 0 +14 0 *
Fa
0  1e-07 5 0

0111000
+9 0 *
Ed
 1e-07 1 1 0
1  45 0 3.14159265358979 6.28318530717959
2  61 2 0 3.14159265358979 6.28318530717959
4 C0 2 0 4 0
0

0101000
+113 0 -117 0 *
Wi

0101100
+116 0 -7 0 +112 0 +10 0 *
Fa
0  1e-07 2 0

0111000
+6 0 *
Wi

0101100
+111 0 +7 0 *
Fa
0  1e-07 4 0

0111000
+4 0 *
Sh

0101100
+109 0 +102 0 +92 0 +83 0 -74 0 +56 0 +49 0 +42 0 +39 0 +36 0 
+33 0 +30 0 +24 0 -21 0 +18 0 +15 0 +11 0 +8 0 +5 0 +3 0 
*
So

0100000
+2 0 *

+1 0 