DBRep_DrawableShape

CASCADE Topology V1, (c) Matra-Datavision
Locations 0
Curve2ds 53
1 0 0 0 1 
1 6.2831853071795862 0 0 1 
1 0 -0.65000000000000013 1 0 
1 0 0.18824954349214232 1 0 
1 3.1415926535897931 0 0 -1 
1 3.1415926535897931 0 0 -1 
1 0 0.64999999999999991 1 0 
1 0 -2.7755575615628914e-17 0 1 
1 6.2831853071795862 -2.7755575615628914e-17 0 1 
1 0 -0.1882495434921424 1 0 
1 6.2831853071795862 -0.20448200562641189 -1 0 
1 3.1415926535897931 0 0 -1 
1 3.1415926535897931 0 0 -1 
1 6.2831853071795862 5.5511151231257827e-17 0 -1 
1 0 5.5511151231257827e-17 0 -1 
1 6.2831853071795862 0.20448200562641183 -1 0 
1 1.5707963267948966 3.8367927533530128 1 0 
1 6.2831853071795862 0.20448200562641183 -1 0 
1 1.5707963267948966 3.8367927533530128 1 0 
1 3.1415926535897931 -2.7755575615628914e-17 0 1 
1 3.1415926535897931 -2.7755575615628914e-17 0 1 
1 1.5707963267948966 3.8367927533530128 1 0 
1 6.2831853071795862 0.20448200562641183 -1 0 
1 6.2831853071795862 0 0 1 
1 0 0 0 1 
1 1.5707963267948966 4.7123889803846897 1 0 
1 3.1415926535897931 6.2831853071795862 0 -1 
1 3.1415926535897931 6.2831853071795862 0 -1 
1 0 1.1102230246251565e-16 0 1 
1 6.2831853071795862 1.1102230246251565e-16 0 1 
1 0 -0.55210091064884126 1 0 
7 0 0  3 25 23  1.4278356115404653 -0.55210091064884093  1.4278959213759013 -0.54535258253144925  1.4280164647059097 -0.53184732803907431  1.4281970511085271 -0.5115636030451638  1.4283774093493511 -0.49125398636188877  1.4285575398575059 -0.47091842938528311  1.4287374430611557 -0.45055688339949779  1.4289171193873766 -0.4301692995607444  1.4290965692621835 -0.40975562890110395  1.4292757931105342 -0.38931582232701029  1.4294547913563322 -0.36884983061915466  1.4296335644224278 -0.34835760443201536  1.4298121127306223 -0.32783909429347907  1.4299904367016669 -0.30729425060443655  1.4301685367552848 -0.28672302363838692  1.4303464133101356 -0.266125363541034  1.430524066783871 -0.24550122032988805  1.4307014975930903 -0.22485054389384129  1.4308787061533659 -0.20417328399284507  1.4310556928792577 -0.18346939025718456  1.4312324581842821 -0.16273881218826394  1.4314090024809296 -0.14198149915373284  1.4315853261807723 -0.12119740040373012  1.4317027285229091 -0.10732344347345504  1.4317613930646349 -0.10038198375433462 
 0 4 0.020534249271498817 1 0.041068498542997635 1 0.061602747814496456 1 0.08213699708599527 1 0.10267124635749408 1 0.12320549562899291 1 0.14373974490049171 1 0.16427399417199054 1 0.18480824344348937 1 0.20534249271498817 1 0.225876741986487 1 0.24641099125798582 1 0.26694524052948465 1 0.28747948980098342 1 0.30801373907248225 1 0.32854798834398108 1 0.34908223761547991 1 0.36961648688697873 1 0.39015073615847751 1 0.41068498542997633 1 0.43121923470147516 1 0.45175348397297399 4
1 0 -0.10038198375433452 1 0 
7 0 0  3 25 23  1.7098312605251591 -0.10038198375433462  1.7098899250668858 -0.10732344347345507  1.7100073274090253 -0.1211974004037301  1.7101836511088635 -0.14198149915373276  1.7103601954055137 -0.16273881218826419  1.7105369607105398 -0.18346939025718434  1.7107139474364228 -0.20417328399284532  1.7108911559967028 -0.22485054389384102  1.711068586805923 -0.24550122032988811  1.7112462402796558 -0.26612536354103394  1.711424116834511 -0.28672302363838692  1.7116022168881262 -0.30729425060443638  1.7117805408591709 -0.32783909429347907  1.7119590891673653 -0.3483576044320153  1.7121378622334609 -0.36884983061915477  1.712316860479258 -0.38931582232700973  1.7124960843276096 -0.40975562890110395  1.7126755342024191 -0.43016929956074434  1.7128552105286365 -0.45055688339949773  1.7130351137322899 -0.47091842938528272  1.7132152442404438 -0.49125398636188894  1.7133956024812651 -0.5115636030451638  1.7135761888838852 -0.53184732803907453  1.7136967322138954 -0.54535258253144925  1.7137570420493278 -0.55210091064884081 
 0 4 0.020534249271498817 1 0.041068498542997635 1 0.061602747814496456 1 0.08213699708599527 1 0.10267124635749408 1 0.12320549562899291 1 0.14373974490049171 1 0.16427399417199054 1 0.18480824344348937 1 0.20534249271498817 1 0.225876741986487 1 0.24641099125798582 1 0.26694524052948465 1 0.28747948980098342 1 0.30801373907248225 1 0.32854798834398108 1 0.34908223761547991 1 0.36961648688697873 1 0.39015073615847751 1 0.41068498542997633 1 0.43121923470147516 1 0.45175348397297399 4
1 0 -0.55210091064884126 1 0 
1 3.1415926535897931 0 0 -1 
1 3.1415926535897931 0 0 -1 
1 0 0.55210091064884126 1 0 
7 0 0  3 25 23  4.5694282651302585 -0.55210091064884093  4.5694885749656917 -0.54535258253144925  4.569609118295701 -0.53184732803907431  4.5697897046983202 -0.5115636030451638  4.5699700629391433 -0.49125398636188877  4.570150193447299 -0.47091842938528311  4.5703300966509479 -0.45055688339949779  4.5705097729771689 -0.4301692995607444  4.5706892228519767 -0.40975562890110395  4.5708684467003282 -0.38931582232701029  4.5710474449461262 -0.36884983061915461  4.5712262180122201 -0.34835760443201552  4.5714047663204154 -0.32783909429347896  4.5715830902914592 -0.30729425060443655  4.571761190345077 -0.28672302363838692  4.5719390668999296 -0.266125363541034  4.572116720373665 -0.24550122032988805  4.5722941511828816 -0.22485054389384129  4.5724713597431625 -0.20417328399284507  4.5726483464690473 -0.18346939025718456  4.5728251117740726 -0.16273881218826394  4.5730016560707227 -0.14198149915373284  4.5731779797705645 -0.12119740040373012  4.5732953821127005 -0.10732344347345504  4.5733540466544271 -0.10038198375433462 
 0 4 0.020534249271498817 1 0.041068498542997635 1 0.061602747814496456 1 0.08213699708599527 1 0.10267124635749408 1 0.12320549562899291 1 0.14373974490049171 1 0.16427399417199054 1 0.18480824344348937 1 0.20534249271498817 1 0.225876741986487 1 0.24641099125798582 1 0.26694524052948465 1 0.28747948980098342 1 0.30801373907248225 1 0.32854798834398108 1 0.34908223761547991 1 0.36961648688697873 1 0.39015073615847751 1 0.41068498542997633 1 0.43121923470147516 1 0.45175348397297399 4
7 0 0  3 25 23  4.8514239141149513 -0.10038198375433462  4.8514825786566771 -0.10732344347345507  4.8515999809988166 -0.1211974004037301  4.8517763046986566 -0.14198149915373276  4.8519528489953059 -0.16273881218826419  4.8521296143003321 -0.18346939025718439  4.8523066010262159 -0.20417328399284526  4.8524838095864977 -0.22485054389384104  4.8526612403957152 -0.245501220329888  4.8528388938694489 -0.26612536354103394  4.8530167704243041 -0.28672302363838692  4.8531948704779184 -0.30729425060443638  4.853373194448964 -0.32783909429347907  4.8535517427571593 -0.3483576044320153  4.8537305158232531 -0.36884983061915477  4.853909514069052 -0.38931582232700973  4.8540887379174027 -0.40975562890110395  4.8542681877922105 -0.43016929956074434  4.8544478641184297 -0.45055688339949773  4.854627767322083 -0.47091842938528272  4.8548078978302369 -0.49125398636188894  4.8549882560710582 -0.5115636030451638  4.8551688424736792 -0.53184732803907442  4.8552893858036876 -0.54535258253144936  4.8553496956391209 -0.55210091064884093 
 0 4 0.020534249271498817 1 0.041068498542997635 1 0.061602747814496456 1 0.08213699708599527 1 0.10267124635749408 1 0.12320549562899291 1 0.14373974490049171 1 0.16427399417199054 1 0.18480824344348937 1 0.20534249271498817 1 0.225876741986487 1 0.24641099125798582 1 0.26694524052948465 1 0.28747948980098342 1 0.30801373907248225 1 0.32854798834398108 1 0.34908223761547991 1 0.36961648688697873 1 0.39015073615847751 1 0.41068498542997633 1 0.43121923470147516 1 0.45175348397297399 4
1 0 -0.10038198375433451 1 0 
1 0 -0.55210091064884126 1 0 
1 0 -0.55210091064884126 1 0 
1 0 0.55210091064884126 1 0 
1 1.5707963267948966 4.7123889803846897 1 0 
1 -4.7123889803846897 4.7123889803846897 1 0 
1 -4.7123889803846897 3.8367927533530128 1 0 
1 6.2831853071795862 0.20448200562641183 -1 0 
1 6.2831853071795862 -0.20448200562641189 -1 0 
1 0 -0.1882495434921424 1 0 
1 0 0.18824954349214232 1 0 
1 0 -0.65000000000000013 1 0 
1 0 0.64999999999999991 1 0 
Curves 39
1 1.3500000000000001 0.80000000000000004 -9.7968508305790195e-17 1 0 0 
2 0.69999999999999996 0 0 1 0 0 -0 1 0 0 -0 1 0.80000000000000004
1 1.3500000000000001 -0.80000000000000004 9.7968508305790195e-17 -1 -0 -0 
2 2 0 0 1 0 0 -0 1 0 0 -0 1 0.80000000000000004
1 0.52500000000000002 0.73062499999999997 -8.9472801726147398e-17 0.92961712816745601 0.36852679009495598 -4.5130024870404902e-17 
2 0.34999999999999998 0 0 1 0 0 -0 1 0 0 -0 1 0.66125
1 0.52500000000000002 -0.73062499999999997 8.9472801726147398e-17 -0.92961712816745601 0.36852679009495598 -4.5130024870404902e-17 
1 0.192973044296325 0.792228722727915 -9.70168327533191e-17 0.76792554544170033 -0.64053911407350228 7.8440826896616734e-17 
2 0.035946088592650097 0 0 1 0 0 -0 1 0 0 -0 1 0.92320744545583
2 0.035946088592650097 0 0 1 0 0 -0 1 0 0 -0 1 0.92320744545583
1 0.192973044296325 -0.792228722727915 9.70168327533191e-17 -0.76792554544170033 -0.64053911407350228 7.8440826896616734e-17 
2 0.035946088592650097 0 0 1 0 0 -0 1 0 0 -0 1 0.92320744545583
2 0.10000000000000001 -1.22460635382238e-16 -1 0 -1 1.22460635382238e-16 0 -1.22460635382238e-16 -1 1 0 0 0.10000000000000001
2 0 0 0 1 0 0 -0 1 0 0 -0 1 1
2 0.10000000000000001 1.22460635382238e-16 1 0 -1 1.22460635382238e-16 0 1.22460635382238e-16 1 -1 0 0 0.10000000000000001
1 -0.55000000000000004 1.45188123506074 -1.7779829854508599e-16 0.99619469809174555 0.087155742747657861 -1.0673147634088996e-17 
2 -1.1000000000000001 0 0 1 0 0 -0 1 0 0 -0 1 1.4037624701214799
7 1 0  2 3 2  -1.1000000000000001 0.20000000000000001 1.38944200041656  1 -0.87817423583811405 0.20000000000000001 1.4090492633687499  1.00009756450146 -0.65000000000000002 0.20000000000000001 1.4292064349187601  1
 0 3 0.45175348397297399 3
2 -0.65000000000000002 0 0 1 0 -0 0 1 0 0 -0 1 1.4431323687081501
7 1 0  2 3 2  -0.65000000000000002 -0.20000000000000001 1.4292064349187601  1 -0.87817423583811405 -0.20000000000000001 1.4090492633687499  1.00009756450146 -1.1000000000000001 -0.20000000000000001 1.38944200041656  1
 0 3 0.45175348397297399 3
2 -1.1000000000000001 0 0 1 0 0 -0 1 0 0 -0 1 1.4037624701214799
1 -0.55000000000000004 -1.45188123506074 1.7779829854508599e-16 -0.99619469809174555 0.087155742747657861 -1.0673147634088996e-17 
2 0 0 0 1 0 0 -0 1 0 0 -0 1 1.5
1 -0.65000000000000002 -0.20000000000000001 0 0 0 -1 
7 1 0  2 3 2  -1.1000000000000001 -0.20000000000000001 -1.38944200041656  1 -0.87817423583811405 -0.20000000000000001 -1.4090492633687499  1.00009756450146 -0.65000000000000002 -0.20000000000000001 -1.4292064349187601  1
 0 3 0.45175348397297399 3
1 -1.1000000000000001 -0.20000000000000001 0 0 0 -1 
1 -1.1000000000000001 0.20000000000000001 0 0 0 1 
7 1 0  2 3 2  -0.65000000000000002 0.20000000000000001 -1.4292064349187601  1 -0.87817423583811405 0.20000000000000001 -1.4090492633687499  1.00009756450146 -1.1000000000000001 0.20000000000000001 -1.38944200041656  1
 0 3 0.45175348397297399 3
1 -0.65000000000000002 0.20000000000000001 0 0 0 -1 
2 -0.65000000000000002 0 0 1 0 -0 0 1 0 0 -0 1 1.4431323687081501
2 -1.1000000000000001 0 0 1 0 0 -0 1 0 0 -0 1 1.4037624701214799
2 -1.1000000000000001 0 0 1 0 0 -0 1 0 0 -0 1 1.4037624701214799
2 0 0 0 1 0 0 -0 1 0 0 -0 1 1.5
2 0 0 0 1 0 0 -0 1 0 0 -0 1 1
2 0 0 0 1 0 0 -0 1 0 0 -0 1 1
2 0.035946088592650097 0 0 1 0 0 -0 1 0 0 -0 1 0.92320744545583
2 0.34999999999999998 0 0 1 0 0 -0 1 0 0 -0 1 0.66125
2 0.69999999999999996 0 0 1 0 0 -0 1 0 0 -0 1 0.80000000000000004
2 2 0 0 1 0 0 -0 1 0 0 -0 1 0.80000000000000004
Polygon3D 0
PolygonOnTriangulations 0
Surfaces 17
2 1.3500000000000001 0 0 1 0 0 -0 1 0 0 -0 1 0.80000000000000004
2 1.3500000000000001 0 0 1 0 0 -0 1 0 0 -0 1 0.80000000000000004
3 0.52500000000000002 0 0 1 -0 -0 0 1 0 0 -0 1 0.73062499999999997
0.37742377281977901
1 2 0.40000000000000002 0 1 0 0 -0 1 0 0 -0 1 
3 0.52500000000000002 0 0 1 -0 -0 0 1 0 0 -0 1 0.73062499999999997
0.37742377281977901
3 0.192973044296325 0 0 -1 -0 -0 0 1 0 0 0 -1 0.792228722727915
0.69520009976322195
3 0.192973044296325 0 0 -1 -0 -0 0 1 0 0 0 -1 0.792228722727915
0.69520009976322195
5 0.10000000000000001 0 0 1 0 0 0 0 -1 -0 1 0 1 0.10000000000000001
5 0.10000000000000001 0 0 1 0 0 0 0 -1 -0 1 0 1 0.10000000000000001
1 0 1.25 0 1 0 0 -0 1 0 0 -0 1 
3 -0.55000000000000004 0 0 1 -0 -0 0 1 0 0 -0 1 1.45188123506074
0.0872664625997151
3 -0.55000000000000004 0 0 1 -0 -0 0 1 0 0 -0 1 1.45188123506074
0.0872664625997151
1 -1.1000000000000001 0.70188123506074196 0 -1 0 0 0 -1 0 0 0 1 
1 -1.1499999999999999 0.20000000000000001 0 0 -1 0 0 0 -1 1 0 0 
1 -0.65000000000000002 0 0 -1 0 0 0 0 1 0 1 -0 
1 -1.1499999999999999 -0.20000000000000001 0 0 1 0 0 -0 1 1 0 -0 
1 -1.1000000000000001 0.70188123506074196 0 -1 0 0 0 -1 0 0 0 1 
Triangulations 0

TShapes 101
Ve
1e-07
0.7 0.8 0
0 0

0101101
*
Ve
1e-07
2 0.8 0
0 0

0101101
*
Ed
 1e-07 1 1 0
1  1 0 -0.65 0.65
2  1 1 0 -0.65 0.65
2  2 2 0 -0.65 0.65
4 CN 1 0 2 0
0

0101000
+101 0 -100 0 *
Ve
1e-07
0.7 -0.8 9.79685083057902e-17
0 0

0101101
*
Ed
 1e-07 1 1 0
1  2 0 0 3.14159265358979
2  3 1 0 0 3.14159265358979
2  4 3 0 0 3.14159265358979
4 C0 1 0 3 0
0

0101000
+101 0 -98 0 *
Ve
1e-07
2 -0.8 9.79685083057902e-17
0 0

0101101
*
Ed
 1e-07 1 1 0
1  3 0 -0.65 0.65
2  5 1 0 -0.65 0.65
2  6 2 0 -0.65 0.65
4 CN 1 0 2 0
0

0101000
+96 0 -98 0 *
Ed
 1e-07 1 1 0
1  4 0 0 3.14159265358979
2  7 1 0 0 3.14159265358979
4 C0 1 0 4 0
0

0101000
+100 0 -96 0 *
Wi

0101100
-99 0 +97 0 -95 0 -94 0 *
Fa
0  1e-07 1 0

0111000
+93 0 *
Ve
1e-07
0.35 0.66125 0
0 0

0101101
*
Ed
 1e-07 1 1 0
1  5 0 -0.188249543492142 0.188249543492142
2  8 3 0 -0.188249543492142 0.188249543492142
2  9 5 0 -0.188249543492142 0.188249543492142
4 CN 3 0 5 0
0

0101000
+91 0 -101 0 *
Ve
1e-07
0.35 -0.66125 8.09770951465047e-17
0 0

0101101
*
Ed
 1e-07 1 1 0
1  6 0 0 3.14159265358979
2  10 3 0 0 3.14159265358979
2  11 6 0 0 3.14159265358979
4 C0 3 0 6 0
0

0101000
+91 0 -89 0 *
Ed
 1e-07 1 1 0
1  7 0 -0.188249543492142 0.188249543492142
2  12 3 0 -0.188249543492142 0.188249543492142
2  13 5 0 -0.188249543492142 0.188249543492142
4 CN 3 0 5 0
0

0101000
+98 0 -89 0 *
Wi

0101100
-90 0 +88 0 -87 0 -97 0 *
Fa
0  1e-07 3 0

0111000
+86 0 *
Ve
1e-07
0.0359460885926501 0.92320744545583 0
0 0

0101101
*
Ed
 1e-07 1 1 0
1  8 0 -0.204482005626412 0.204482005626412
2  14 6 0 -0.204482005626412 0.204482005626412
2  15 7 0 -0.204482005626412 0.204482005626412
4 CN 6 0 7 0
0

0101000
+84 0 -91 0 *
Ve
1e-07
0.0359460885926501 1.13056570360133e-16 0.92320744545583
0 0

0101101
*
Ed
 1e-07 1 1 0
1  9 0 0 1.5707963267949
2  16 6 0 0 1.5707963267949
2  17 8 0 0 1.5707963267949
4 G1 6 0 8 0
0

0101000
+84 0 -82 0 *
Ve
1e-07
0.0359460885926501 -0.92320744545583 1.13056570360133e-16
0 0

0101101
*
Ed
 1e-07 1 1 0
1  10 0 1.5707963267949 3.14159265358979
2  18 6 0 1.5707963267949 3.14159265358979
2  19 9 0 1.5707963267949 3.14159265358979
4 G1 6 0 9 0
0

0101000
+82 0 -80 0 *
Ed
 1e-07 1 1 0
1  11 0 -0.204482005626412 0.204482005626412
2  20 6 0 -0.204482005626412 0.204482005626412
2  21 7 0 -0.204482005626412 0.204482005626412
4 CN 6 0 7 0
0

0101000
+89 0 -80 0 *
Wi

0101100
-83 0 +81 0 +79 0 -78 0 -88 0 *
Fa
0  1e-07 6 0

0111000
+77 0 *
Ve
1e-07
0.0359460885926501 -1.13056570360133e-16 -0.92320744545583
0 0

0101101
*
Ed
 1e-07 1 1 0
1  12 0 3.14159265358979 4.71238898038469
2  22 9 0 3.14159265358979 4.71238898038469
2  23 7 0 3.14159265358979 4.71238898038469
4 G1 9 0 7 0
0

0101000
+80 0 -75 0 *
Ve
1e-07
0 -1.22460635382238e-16 -1
0 0

0101101
*
Ed
 1e-07 1 1 0
1  13 0 3.83679275335301 4.71238898038469
2  24 9 0 3.83679275335301 4.71238898038469
2  25 8 0 3.83679275335301 4.71238898038469
4 CN 9 0 8 0
0

0101000
+75 0 -73 0 *
Ve
1e-07
0 1.22460635382238e-16 1
0 0

0101101
*
Ed
 1e-07 1 1 0
1  14 0 1.5707963267949 4.71238898038469
2  26 9 0 1.5707963267949 4.71238898038469
4 G1 9 0 10 0
0

0101000
+71 0 -73 0 *
Ed
 1e-07 1 1 0
1  15 0 1.5707963267949 2.44639255382657
2  27 9 0 1.5707963267949 2.44639255382657
2  28 8 0 1.5707963267949 2.44639255382657
4 CN 9 0 8 0
0

0101000
+71 0 -82 0 *
Wi

0101100
+79 0 +74 0 +72 0 -70 0 +69 0 *
Fa
0  1e-07 9 0

0111000
+68 0 *
Ve
1e-07
-1.1 1.40376247012148 -1.71905644016816e-16
0 0

0101101
*
Ve
1e-07
0 1.5 0
0 0

0101101
*
Ed
 1e-07 1 1 0
1  16 0 -0.552100910648841 0.552100910648841
2  29 11 0 -0.552100910648841 0.552100910648841
2  30 12 0 -0.552100910648841 0.552100910648841
4 CN 11 0 12 0
0

0101000
+66 0 -65 0 *
Ve
1e-07
-1.1 0.2 1.38944200041656
0 0

0101101
*
Ed
 1e-07 1 1 0
1  17 0 0 1.42783561154047
2  31 11 0 0 1.42783561154047
4 C0 11 0 13 0
0

0101000
+66 0 -63 0 *
Ve
1e-07
-0.65 0.2 1.42920643491876
0 0

0101101
*
Ed
 1e-07 1 1 0
1  18 0 0 0.451753483972974
2  32 11 0 0 0.451753483972974
4 C0 11 0 14 0
0

0101000
+63 0 -61 0 *
Ve
1e-07
-0.65 -0.2 1.42920643491876
0 0

0101101
*
Ed
 1e-07 1 1 0
1  19 0 1.43176139306463 1.70983126052516
2  33 11 0 1.43176139306463 1.70983126052516
4 C0 11 0 15 0
0

0101000
+61 0 -59 0 *
Ve
1e-07
-1.1 -0.2 1.38944200041656
0 0

0101101
*
Ed
 1e-07 1 1 0
1  20 0 0 0.451753483972974
2  34 11 0 0 0.451753483972974
4 C0 11 0 16 0
0

0101000
+59 0 -57 0 *
Ve
1e-07
-1.1 -1.40376247012148 1.71905644016816e-16
0 0

0101101
*
Ed
 1e-07 1 1 0
1  21 0 1.71375704204933 3.14159265358979
2  35 11 0 1.71375704204933 3.14159265358979
4 C0 11 0 17 0
0

0101000
+57 0 -55 0 *
Ve
1e-07
0 -1.5 1.83690953073357e-16
0 0

0101101
*
Ed
 1e-07 1 1 0
1  22 0 -0.552100910648841 0.552100910648841
2  36 11 0 -0.552100910648841 0.552100910648841
2  37 12 0 -0.552100910648841 0.552100910648841
4 CN 11 0 12 0
0

0101000
+53 0 -55 0 *
Ed
 1e-07 1 1 0
1  23 0 0 3.14159265358979
2  38 11 0 0 3.14159265358979
4 C0 11 0 10 0
0

0101000
+65 0 -53 0 *
Wi

0101100
-64 0 +62 0 +60 0 +58 0 +56 0 +54 0 -52 0 -51 0 *
Fa
0  1e-07 11 0

0111000
+50 0 *
Ve
1e-07
-0.65 -0.2 -1.42920643491876
0 0

0101101
*
Ed
 1e-07 1 1 0
1  24 0 -1.42920643491876 1.42920643491876
4 C0 16 0 15 0
0

0101000
+59 0 -48 0 *
Ve
1e-07
-1.1 -0.2 -1.38944200041656
0 0

0101101
*
Ed
 1e-07 1 1 0
1  25 0 0 0.451753483972974
2  39 12 0 0 0.451753483972974
4 C0 16 0 12 0
0

0101000
+46 0 -48 0 *
Ed
 1e-07 1 1 0
1  26 0 -1.38944200041656 1.38944200041656
4 C0 16 0 17 0
0

0101000
+57 0 -46 0 *
Wi

0101100
-56 0 +47 0 -45 0 -44 0 *
Fa
0  1e-07 16 0

0111000
+43 0 *
Ve
1e-07
-1.1 0.2 -1.38944200041656
0 0

0101101
*
Ed
 1e-07 1 1 0
1  27 0 -1.38944200041656 1.38944200041656
4 C0 14 0 13 0
0

0101000
+41 0 -63 0 *
Ve
1e-07
-0.65 0.2 -1.42920643491876
0 0

0101101
*
Ed
 1e-07 1 1 0
1  28 0 0 0.451753483972974
2  40 12 0 0 0.451753483972974
4 C0 14 0 12 0
0

0101000
+39 0 -41 0 *
Ed
 1e-07 1 1 0
1  29 0 -1.42920643491876 1.42920643491876
4 C0 14 0 15 0
0

0101000
+61 0 -39 0 *
Wi

0101100
-60 0 -40 0 -38 0 -37 0 *
Fa
0  1e-07 14 0

0111000
+36 0 *
Ed
 1e-07 1 1 0
1  30 0 4.57335404665443 4.85142391411495
2  41 12 0 4.57335404665443 4.85142391411495
4 C0 15 0 12 0
0

0101000
+48 0 -39 0 *
Wi

0101100
-58 0 +37 0 -34 0 -47 0 *
Fa
0  1e-07 15 0

0111000
+33 0 *
Ed
 1e-07 1 1 0
1  31 0 4.85534969563912 6.28318530717959
2  42 12 0 4.85534969563912 6.28318530717959
4 C0 13 0 12 0
0

0101000
+41 0 -66 0 *
Wi

0101100
+40 0 -62 0 -31 0 *
Fa
0  1e-07 13 0

0111000
+30 0 *
Ed
 1e-07 1 1 0
1  32 0 3.14159265358979 4.56942826513026
2  43 12 0 3.14159265358979 4.56942826513026
4 C0 17 0 12 0
0

0101000
+55 0 -46 0 *
Wi

0101100
+44 0 -28 0 -54 0 *
Fa
0  1e-07 17 0

0111000
+27 0 *
Ed
 1e-07 1 1 0
1  33 0 3.14159265358979 6.28318530717959
2  44 12 0 3.14159265358979 6.28318530717959
4 C0 12 0 10 0
0

0101000
+53 0 -65 0 *
Wi

0101100
+64 0 -25 0 +52 0 +28 0 +45 0 +34 0 +38 0 +31 0 *
Fa
0  1e-07 12 0

0111000
+24 0 *
Ve
1e-07
0 1 0
0 0

0101101
*
Ed
 1e-07 1 1 0
1  34 0 0 1.5707963267949
2  45 8 0 0 1.5707963267949
4 G1 10 0 8 0
0

0101000
+22 0 -71 0 *
Ed
 1e-07 1 1 0
1  35 0 4.71238898038469 6.28318530717959
2  46 8 0 4.71238898038469 6.28318530717959
4 G1 10 0 8 0
0

0101000
+73 0 -22 0 *
Wi

0101100
-21 0 -20 0 -70 0 *
Wi

0101100
+51 0 +25 0 *
Fa
0  1e-07 10 0

0111000
+19 0 +18 0 *
Ed
 1e-07 1 1 0
1  36 0 4.71238898038469 6.28318530717959
2  47 8 0 4.71238898038469 6.28318530717959
2  48 7 0 4.71238898038469 6.28318530717959
4 G1 8 0 7 0
0

0101000
+75 0 -84 0 *
Wi

0101100
-21 0 -20 0 -72 0 +16 0 +81 0 -69 0 *
Fa
0  1e-07 8 0

0111000
+15 0 *
Ed
 1e-07 1 1 0
1  37 0 3.14159265358979 6.28318530717959
2  49 7 0 3.14159265358979 6.28318530717959
2  50 5 0 3.14159265358979 6.28318530717959
4 C0 7 0 5 0
0

0101000
+89 0 -91 0 *
Wi

0101100
+83 0 -13 0 +78 0 +74 0 +16 0 *
Fa
0  1e-07 7 0

0111000
+12 0 *
Ed
 1e-07 1 1 0
1  38 0 3.14159265358979 6.28318530717959
2  51 5 0 3.14159265358979 6.28318530717959
2  52 2 0 3.14159265358979 6.28318530717959
4 C0 5 0 2 0
0

0101000
+98 0 -101 0 *
Wi

0101100
+90 0 -10 0 +87 0 +13 0 *
Fa
0  1e-07 5 0

0111000
+9 0 *
Ed
 1e-07 1 1 0
1  39 0 3.14159265358979 6.28318530717959
2  53 2 0 3.14159265358979 6.28318530717959
4 C0 2 0 4 0
0

0101000
+96 0 -100 0 *
Wi

0101100
+99 0 -7 0 +95 0 +10 0 *
Fa
0  1e-07 2 0

0111000
+6 0 *
Wi

0101100
+94 0 +7 0 *
Fa
0  1e-07 4 0

0111000
+4 0 *
Sh

0101100
+92 0 +85 0 +76 0 -67 0 +49 0 +42 0 +35 0 +32 0 +29 0 +26 0 
+23 0 +17 0 -14 0 +11 0 +8 0 +5 0 +3 0 *
So

0100000
+2 0 *

+1 0 