DBRep_DrawableShape

CASCADE Topology V1, (c) Matra-Datavision
Locations 0
Curve2ds 47
1 0 0 0 1 
1 6.2831853071795862 0 0 1 
1 6.2831853071795862 -3 -1 0 
1 3.1415926535897931 0 0 -1 
1 3.1415926535897931 0 0 -1 
1 6.2831853071795862 2.4000000000000021 -1 -5.6543194337129189e-16 
1 7.8539816339744828 0 -1 0 
1 6.2831853071795862 2.3999999999999968 -1 5.6543194337129189e-16 
1 7.8539816339744828 0 -1 0 
1 3.1415926535897931 0 0 1 
1 3.1415926535897931 0 0 1 
1 7.8539816339744828 0 -1 0 
1 6.2831853071795862 2.4000000000000021 -1 -5.6543194337129189e-16 
1 6.2831853071795862 6.2831853071795845 0 -1 
1 0 6.2831853071795845 0 -1 
1 1.5707963267948966 1.5707963267948966 1 0 
1 -1.5707963267948966 3.1415926535897922 1 0 
1 -1.5707963267948966 -10.75 1 0 
1 -1.5707963267948966 3.1415926535897922 1 0 
1 -1.5707963267948966 -10.75 1 0 
1 3.1415926535897931 -4.4408920985006262e-16 0 1 
1 3.1415926535897931 -4.4408920985006262e-16 0 1 
1 6.2831853071795862 4.7123889803846897 -1 0 
1 0 6.2831853071795862 0 -1 
1 6.2831853071795862 6.2831853071795862 0 -1 
1 0 0 0 1 
1 6.2831853071795862 0 0 1 
1 3.1415926535897931 0 0 -1 
1 3.1415926535897931 0 0 -1 
1 6.2831853071795862 10.38655 -1 0 
1 8.8817841970012523e-16 0.43377465491888778 1 0 
1 6.2831853071795862 0 0 -1 
1 0 0 0 -1 
1 3.1415926535897931 0 0 1 
1 3.1415926535897931 0 0 1 
1 6.2831853071795862 -0.43377465491888745 -1 0 
1 6.2831853071795862 -0.43377465491888745 -1 0 
1 0 0.43377465491888778 1 0 
1 6.2831853071795862 10.38655 -1 0 
1 -1.5707963267948966 -10.75 1 0 
1 -1.5707963267948966 3.1415926535897922 1 0 
1 6.2831853071795862 4.7123889803846897 -1 0 
1 1.5707963267948966 1.5707963267948966 1 0 
1 -4.7123889803846897 1.5707963267948966 1 0 
1 1.5707963267948966 0 -1 0 
1 6.2831853071795862 2.4000000000000004 -1 5.6543194337129189e-16 
1 6.2831853071795862 -3 -1 0 
Curves 46
1 5 -3 -4.2861222383783199e-16 0 -1 6.12303176911189e-17 
2 0 0 0 0 1 -6.12303176911189e-17 1 0 0 0 -6.12303176911189e-17 -1 5
1 -5 -3 7.9599412998454502e-16 -0 1 -6.12303176911189e-17 
2 0 -5.4000000000000004 3.3064371553204202e-16 0 1 -1.22460635382238e-16 1 0 0 0 -1.22460635382238e-16 -1 5
2 0 -5.4000000000000004 3.3064371553204202e-16 0 1 -1.22460635382238e-16 1 0 0 0 -1.22460635382238e-16 -1 5
2 5.3882679568184601e-16 -5.4000000000000004 4.4000000000000004 1 -1.4996607218221399e-32 -1.22460635382238e-16 1.22460635382238e-16 1.22460635382238e-16 1 4.1053665947016125e-47 -1 1.22460635382238e-16 0.59999999999999898
2 0 -5.4000000000000004 3.3064371553204202e-16 0 1 -1.22460635382238e-16 1 0 0 0 -1.22460635382238e-16 -1 5
2 -5.3882679568184601e-16 -5.4000000000000004 -4.4000000000000004 1 -1.4996607218221399e-32 -1.22460635382238e-16 -1.22460635382238e-16 -1.22460635382238e-16 -1 -4.1053665947016125e-47 1 -1.22460635382238e-16 0.59999999999999898
2 0 -6 7.3476381229342596e-16 0 -1 6.12303176911189e-17 1 0 0 -0 6.12303176911189e-17 1 4.4000000000000004
2 0 0.25 -4.5922738268339098e-17 0 1 -1.8369095307335701e-16 0 1.8369095307335701e-16 1 1 -0 0 3
2 0 0.25 -4.5922738268339098e-17 0 1 -1.8369095307335701e-16 0 1.8369095307335701e-16 1 1 -0 0 3
2 -3.25 0.25 -4.43919803260612e-16 1.22460635382238e-16 -1.8369095307335701e-16 -1 -1 -2.24949108273321e-32 -1.22460635382238e-16 6.2948954452091392e-47 1 -1.8369095307335701e-16 0.25
2 0 0 0 0 -1 6.12303176911189e-17 1 0 0 -0 6.12303176911189e-17 1 3.25
2 3.25 0.25 3.5207432672393302e-16 1.22460635382238e-16 -1.8369095307335701e-16 -1 1 2.24949108273321e-32 1.22460635382238e-16 -6.2948954452091392e-47 -1 1.8369095307335701e-16 0.25
1 3 11 -1.6532185776602101e-15 0 1 -1.8369095307335701e-16 
1 -3 11 -2.38798238995364e-15 -0 -1 1.8369095307335701e-16 
2 0 21.38655 -3.9285157524509902e-15 0 -1 1.8369095307335701e-16 1 0 0 -0 1.8369095307335701e-16 1 3
1 2.6932749999999999 21.693275 -2.9225842937148102e-16 -0.70710678118654702 0.70710678118654802 -0 
1 -2.6932749999999999 21.693275 3.6738190614671101e-16 -0.70710678118654702 -0.70710678118654802 1.7318549141438701e-16 
2 0 22 -1.23259516440783e-32 0 1 -1.8369095307335701e-16 1 0 0 0 -1.8369095307335701e-16 -1 2.3865500000000002
2 0 22 -1.23259516440783e-32 0 1 -1.8369095307335701e-16 1 0 0 0 -1.8369095307335701e-16 -1 2.3865500000000002
2 0 21.38655 -3.9285157524509902e-15 0 -1 1.8369095307335701e-16 1 0 0 -0 1.8369095307335701e-16 1 3
2 0 0.25 -4.5922738268339098e-17 0 1 -1.8369095307335701e-16 0 1.8369095307335701e-16 1 1 -0 0 3
2 0 0 0 0 -1 6.12303176911189e-17 1 0 0 -0 6.12303176911189e-17 1 3.25
1 -3.97997064992273e-16 -3 -2.5 1 1.8369095307335701e-16 6.12303176911189e-17 
1 -1.443375673 -6 -2.5 -1.8369095307335701e-16 1 -1.1247455413665999e-32 
1 0.36084391825000001 -6 -2.5 -1 -3.7491518045553402e-33 -6.12303176911189e-17 
1 1.443375673 -6 -2.5 -1.8369095307335701e-16 1 -1.1247455413665999e-32 
1 2.8867513459 -3 1.76756702004722e-16 0.49999999998075728 9.1845476533143655e-17 0.86602540379554849 
1 2.1650635094652699 -6 -1.2499999999735401 -0.49999999998075728 -5.302701060298093e-17 -0.86602540379554849 
1 2.8867513459 -6 1.76756702004722e-16 -1.8369095307335701e-16 1 -1.1247455413665999e-32 
1 1.443375673 -3 2.5 -0.499999999980758 -9.1845476533143606e-17 0.86602540379554804 
1 2.1650635094652699 -6 1.2499999999735401 0.499999999980758 -5.3027010602980899e-17 -0.86602540379554804 
1 1.443375673 -6 2.5 -1.8369095307335701e-16 1 -1.1247455413665999e-32 
1 -1.443375673 -3 2.5 -1 -1.8369095307335701e-16 -6.12303176911189e-17 
1 -2.2204460492503101e-16 -6 2.5 1 3.7491518045553402e-33 6.12303176911189e-17 
1 -1.443375673 -6 2.5 -1.8369095307335701e-16 1 -1.1247455413665999e-32 
1 -2.8867513459 -3 -1.76756702004722e-16 -0.49999999998075728 -9.1845476533143655e-17 -0.86602540379554849 
1 -2.1650635094652699 -6 1.2499999999735401 0.49999999998075728 5.302701060298093e-17 0.86602540379554849 
1 -2.8867513459 -6 -1.76756702004722e-16 -1.8369095307335701e-16 1 -1.1247455413665999e-32 
1 -1.443375673 -3 -2.5 0.499999999980758 9.1845476533143606e-17 -0.86602540379554804 
1 -2.1650635094652699 -6 -1.2499999999735401 -0.499999999980758 5.3027010602980899e-17 0.86602540379554804 
2 0 -6 7.3476381229342596e-16 0 -1 6.12303176911189e-17 1 0 0 -0 6.12303176911189e-17 1 4.4000000000000004
2 0 -6 7.3476381229342596e-16 0 -1 6.12303176911189e-17 1 0 0 -0 6.12303176911189e-17 1 4.4000000000000004
2 0 -5.4000000000000004 3.3064371553204202e-16 0 1 -1.22460635382238e-16 1 0 0 0 -1.22460635382238e-16 -1 5
2 0 0 0 0 1 -6.12303176911189e-17 1 0 0 0 -6.12303176911189e-17 -1 5
Polygon3D 0
PolygonOnTriangulations 0
Surfaces 20
2 0 -3 1.8369095307335701e-16 0 -1 6.12303176911189e-17 1 0 0 -0 6.12303176911189e-17 1 5
2 0 -3 1.8369095307335701e-16 0 -1 6.12303176911189e-17 1 0 0 -0 6.12303176911189e-17 1 5
1 0 0 0 0 1 -6.12303176911189e-17 -1 0 0 0 6.12303176911189e-17 1 
5 0 -5.4000000000000004 6.6128743106408403e-16 0 -1 1.22460635382238e-16 0 -1.22460635382238e-16 -1 1 0 0 4.4000000000000004 0.59999999999999898
5 0 -5.4000000000000004 6.6128743106408403e-16 0 -1 1.22460635382238e-16 0 -1.22460635382238e-16 -1 1 0 0 4.4000000000000004 0.59999999999999898
1 0 -6 3.6738190614671298e-16 0 -1 6.12303176911189e-17 1 0 0 -0 6.12303176911189e-17 1 
5 0 0.25 -4.5922738268339098e-17 0 1 -1.8369095307335701e-16 1 0 0 0 -1.8369095307335701e-16 -1 3.25 0.25
2 0 11 -2.0206004838069201e-15 0 1 -1.8369095307335701e-16 1 0 0 0 -1.8369095307335701e-16 -1 3
5 0 0.25 -4.5922738268339098e-17 0 1 -1.8369095307335701e-16 1 0 0 0 -1.8369095307335701e-16 -1 3.25 0.25
2 0 11 -2.0206004838069201e-15 0 1 -1.8369095307335701e-16 1 0 0 0 -1.8369095307335701e-16 -1 3
3 0 21.693275 3.75617383876169e-17 -0 -1 1.22460635382238e-16 1 0 0 -0 1.22460635382238e-16 1 2.6932749999999999
0.78539816339744795
3 0 21.693275 3.75617383876169e-17 -0 -1 1.22460635382238e-16 1 0 0 -0 1.22460635382238e-16 1 2.6932749999999999
0.78539816339744795
1 0 22 -4.0412009676138402e-15 0 1 -1.8369095307335701e-16 1 0 0 0 -1.8369095307335701e-16 -1 
1 0.72168783650000001 -6 -2.5 6.12303176911189e-17 0 -1 -1 -1.8369095307335701e-16 -6.12303176911189e-17 -1.8369095307335701e-16 1 -1.1247455413666064e-32 
1 -5.6495064702788403e-16 -3 -2.7755575615629e-17 -1.8369095307335701e-16 1 -1.1247455413665999e-32 6.12303176911189e-17 6.4317409983658596e-47 -1 -1 -1.8369095307335701e-16 -6.12303176911189e-17 
1 -2.1650635094499999 -6 -1.25 -0.86602540379554804 -1.5908103180894301e-16 -0.499999999980758 -0.499999999980758 -9.1845476533143606e-17 0.86602540379554804 -1.8369095307335679e-16 1 -2.4651903288156619e-31 
1 2.1650635094499999 -6 -1.25 0.86602540379554849 1.5908103180894311e-16 -0.49999999998075728 -0.49999999998075728 -9.184547653314368e-17 -0.86602540379554849 -1.8369095307335693e-16 1 7.3955709864469857e-32 
1 2.1650635094499999 -6 1.25 0.86602540379554804 1.5908103180894301e-16 0.499999999980758 0.499999999980758 9.1845476533143606e-17 -0.86602540379554804 -1.8369095307335679e-16 1 -2.4651903288156619e-31 
1 -1.5307579422779701e-16 -6 2.5 -6.12303176911189e-17 0 1 1 1.8369095307335701e-16 6.12303176911189e-17 -1.8369095307335701e-16 1 -1.1247455413666064e-32 
1 -2.1650635094499999 -6 1.25 -0.86602540379554849 -1.5908103180894311e-16 0.49999999998075728 0.49999999998075728 9.184547653314368e-17 0.86602540379554849 -1.8369095307335693e-16 1 7.3955709864469857e-32 
Triangulations 0

TShapes 120
Ve
1e-07
5 0 0
0 0

0101101
*
Ve
1e-07
5 -5.4 6.61287431064084e-16
0 0

0101101
*
Ed
 1e-07 1 1 0
1  1 0 -3 2.4
2  1 1 0 -3 2.4
2  2 2 0 -3 2.4
4 CN 1 0 2 0
0

0101000
+120 0 -119 0 *
Ve
1e-07
-5 3.74915180455534e-32 6.12303176911189e-16
0 0

0101101
*
Ed
 1e-07 1 1 0
1  2 0 3.14159265358979 6.28318530717959
2  3 1 0 3.14159265358979 6.28318530717959
4 C0 1 0 3 0
0

0101000
+117 0 -120 0 *
Ve
1e-07
-5 -5.4 9.42946892443231e-16
0 0

0101101
*
Ed
 1e-07 1 1 0
1  3 0 -2.4 3
2  4 1 0 -2.4 3
2  5 2 0 -2.4 3
4 CN 1 0 2 0
0

0101000
+115 0 -117 0 *
Ve
1e-07
6.12303176911189e-16 -5.4 5
0 0

0101101
*
Ed
 1e-07 1 1 0
1  4 0 3.14159265358979 4.71238898038469
2  6 1 0 3.14159265358979 4.71238898038469
2  7 4 0 3.14159265358979 4.71238898038469
4 G1 1 0 4 0
0

0101000
+115 0 -113 0 *
Ed
 1e-07 1 1 0
1  5 0 4.71238898038469 6.28318530717959
2  8 1 0 4.71238898038469 6.28318530717959
2  9 5 0 4.71238898038469 6.28318530717959
4 G1 1 0 5 0
0

0101000
+113 0 -119 0 *
Wi

0101100
-118 0 -116 0 -114 0 +112 0 +111 0 *
Fa
0  1e-07 1 0

0111000
+110 0 *
Ve
1e-07
5.38826795681846e-16 -6 4.4
0 0

0101101
*
Ed
 1e-07 1 1 0
1  6 0 0 1.5707963267949
2  10 4 0 0 1.5707963267949
2  11 5 0 0 1.5707963267949
4 CN 4 0 5 0
0

0101000
+113 0 -108 0 *
Ve
1e-07
-6.12303176911189e-16 -5.4 -5
0 0

0101101
*
Ed
 1e-07 1 1 0
1  7 0 1.5707963267949 3.14159265358979
2  12 4 0 1.5707963267949 3.14159265358979
2  13 2 0 1.5707963267949 3.14159265358979
4 G1 4 0 2 0
0

0101000
+106 0 -115 0 *
Ve
1e-07
-5.38826795681846e-16 -6 -4.4
0 0

0101101
*
Ed
 1e-07 1 1 0
1  8 0 4.71238898038469 6.28318530717959
2  14 4 0 4.71238898038469 6.28318530717959
2  15 5 0 4.71238898038469 6.28318530717959
4 CN 4 0 5 0
0

0101000
+104 0 -106 0 *
Ed
 1e-07 1 1 0
1  9 0 1.5707963267949 4.71238898038469
2  16 4 0 1.5707963267949 4.71238898038469
4 G1 4 0 6 0
0

0101000
+108 0 -104 0 *
Wi

0101100
-107 0 -112 0 -105 0 -103 0 -102 0 *
Fa
0  1e-07 4 0

0111000
+101 0 *
Ve
1e-07
3 0.25 3.21459167878374e-16
0 0

0101101
*
Ve
1e-07
-3.67381906146713e-16 0.249999999999999 -3
0 0

0101101
*
Ed
 1e-07 1 1 0
1  10 0 1.5707963267949 3.14159265358979
2  17 7 0 1.5707963267949 3.14159265358979
2  18 8 0 1.5707963267949 3.14159265358979
4 G1 7 0 8 0
0

0101000
+99 0 -98 0 *
Ve
1e-07
-3 0.25 -4.13304644415052e-16
0 0

0101101
*
Ed
 1e-07 1 1 0
1  11 0 3.14159265358979 4.71238898038469
2  19 7 0 3.14159265358979 4.71238898038469
2  20 8 0 3.14159265358979 4.71238898038469
4 G1 7 0 8 0
0

0101000
+98 0 -96 0 *
Ve
1e-07
-3.25 -2.39008427540403e-32 -3.97997064992273e-16
0 0

0101101
*
Ed
 1e-07 1 1 0
1  12 0 3.14159265358979 4.71238898038469
2  21 7 0 3.14159265358979 4.71238898038469
2  22 9 0 3.14159265358979 4.71238898038469
4 CN 7 0 9 0
0

0101000
+96 0 -94 0 *
Ve
1e-07
3.25 0 0
0 0

0101101
*
Ed
 1e-07 1 1 0
1  13 0 3.14159265358979 6.28318530717959
2  23 7 0 3.14159265358979 6.28318530717959
4 G1 7 0 3 0
0

0101000
+94 0 -92 0 *
Ed
 1e-07 1 1 0
1  14 0 1.5707963267949 3.14159265358979
2  24 7 0 1.5707963267949 3.14159265358979
2  25 9 0 1.5707963267949 3.14159265358979
4 CN 7 0 9 0
0

0101000
+92 0 -99 0 *
Wi

0101100
+97 0 +95 0 +93 0 +91 0 +90 0 *
Fa
0  1e-07 7 0

0111000
+89 0 *
Ve
1e-07
3 21.38655 7.51234767752337e-17
0 0

0101101
*
Ed
 1e-07 1 1 0
1  15 0 -10.75 10.38655
2  26 8 0 -10.75 10.38655
2  27 10 0 -10.75 10.38655
4 CN 8 0 10 0
0

0101000
+99 0 -87 0 *
Ve
1e-07
-3 21.38655 4.42505382921945e-16
0 0

0101101
*
Ed
 1e-07 1 1 0
1  16 0 -10.38655 10.75
2  28 8 0 -10.38655 10.75
2  29 10 0 -10.38655 10.75
4 CN 8 0 10 0
0

0101000
+85 0 -96 0 *
Ed
 1e-07 1 1 0
1  17 0 3.14159265358979 6.28318530717959
2  30 8 0 3.14159265358979 6.28318530717959
2  31 11 0 3.14159265358979 6.28318530717959
4 C0 8 0 11 0
0

0101000
+85 0 -87 0 *
Wi

0101100
-86 0 +97 0 +95 0 -84 0 +83 0 *
Fa
0  1e-07 8 0

0111000
+82 0 *
Ve
1e-07
2.38655 22 0
0 0

0101101
*
Ed
 1e-07 1 1 0
1  18 0 -0.433774654918888 0.433774654918887
2  32 11 0 -0.433774654918888 0.433774654918887
2  33 12 0 -0.433774654918888 0.433774654918887
4 CN 11 0 12 0
0

0101000
+87 0 -80 0 *
Ve
1e-07
-2.38655 22 2.92258429371478e-16
0 0

0101101
*
Ed
 1e-07 1 1 0
1  19 0 -0.433774654918887 0.433774654918888
2  34 11 0 -0.433774654918887 0.433774654918888
2  35 12 0 -0.433774654918887 0.433774654918888
4 CN 11 0 12 0
0

0101000
+78 0 -85 0 *
Ed
 1e-07 1 1 0
1  20 0 0 3.14159265358979
2  36 11 0 0 3.14159265358979
4 C0 11 0 13 0
0

0101000
+80 0 -78 0 *
Wi

0101100
-79 0 -83 0 -77 0 -76 0 *
Fa
0  1e-07 11 0

0111000
+75 0 *
Ed
 1e-07 1 1 0
1  21 0 3.14159265358979 6.28318530717959
2  37 12 0 3.14159265358979 6.28318530717959
4 C0 12 0 13 0
0

0101000
+78 0 -80 0 *
Ed
 1e-07 1 1 0
1  22 0 0 3.14159265358979
2  38 12 0 0 3.14159265358979
2  39 10 0 0 3.14159265358979
4 C0 12 0 10 0
0

0101000
+87 0 -85 0 *
Wi

0101100
+79 0 -73 0 +77 0 -72 0 *
Fa
0  1e-07 12 0

0111000
+71 0 *
Ed
 1e-07 1 1 0
1  23 0 4.71238898038469 7.85398163397448
2  40 10 0 4.71238898038469 7.85398163397448
2  41 9 0 4.71238898038469 7.85398163397448
4 G1 10 0 9 0
0

0101000
+96 0 -99 0 *
Wi

0101100
+86 0 +72 0 +84 0 +69 0 *
Fa
0  1e-07 10 0

0111000
+68 0 *
Wi

0101100
+76 0 +73 0 *
Fa
0  1e-07 13 0

0111000
+66 0 *
Ed
 1e-07 1 1 0
1  24 0 0 3.14159265358979
2  42 9 0 0 3.14159265358979
4 G1 9 0 3 0
0

0101000
+92 0 -94 0 *
Wi

0101100
+64 0 -93 0 +69 0 -90 0 *
Fa
0  1e-07 9 0

0111000
+63 0 *
Ve
1e-07
-1.443375673 -3 -2.5
0 0

0101101
*
Ve
1e-07
1.443375673 -3 -2.5
0 0

0101101
*
Ed
 1e-07 1 1 0
1  25 0 -1.443375673 1.443375673
4 C0 14 0 15 0
0

0101000
+61 0 -60 0 *
Ve
1e-07
-1.443375673 -6 -2.5
0 0

0101101
*
Ed
 1e-07 1 1 0
1  26 0 0 3
4 C0 14 0 16 0
0

0101000
+58 0 -61 0 *
Ve
1e-07
1.443375673 -6 -2.5
0 0

0101101
*
Ed
 1e-07 1 1 0
1  27 0 -1.08253175475 1.80421959125
4 C0 14 0 6 0
0

0101000
+56 0 -58 0 *
Ed
 1e-07 1 1 0
1  28 0 0 3
4 C0 14 0 17 0
0

0101000
+56 0 -60 0 *
Wi

0101100
-59 0 -57 0 -55 0 +54 0 *
Fa
0  1e-07 14 0

0111000
-53 0 *
Ve
1e-07
2.8867513459 -3 1.76756702004722e-16
0 0

0101101
*
Ed
 1e-07 1 1 0
1  29 0 -2.8867513459111 0
4 C0 17 0 15 0
0

0101000
+60 0 -51 0 *
Ve
1e-07
2.8867513459 -6 1.76756702004722e-16
0 0

0101101
*
Ed
 1e-07 1 1 0
1  30 0 -1.443375672925 1.4433756729861
4 C0 17 0 6 0
0

0101000
+49 0 -56 0 *
Ed
 1e-07 1 1 0
1  31 0 0 3
4 C0 17 0 18 0
0

0101000
+49 0 -51 0 *
Wi

0101100
-50 0 -54 0 -48 0 +47 0 *
Fa
0  1e-07 17 0

0111000
-46 0 *
Ve
1e-07
1.443375673 -3 2.5
0 0

0101101
*
Ed
 1e-07 1 1 0
1  32 0 -2.8867513459111 0
4 C0 18 0 15 0
0

0101000
+51 0 -44 0 *
Ve
1e-07
1.443375673 -6 2.5
0 0

0101101
*
Ed
 1e-07 1 1 0
1  33 0 -1.4433756729861 1.443375672925
4 C0 18 0 6 0
0

0101000
+42 0 -49 0 *
Ed
 1e-07 1 1 0
1  34 0 0 3
4 C0 18 0 19 0
0

0101000
+42 0 -44 0 *
Wi

0101100
-43 0 -47 0 -41 0 +40 0 *
Fa
0  1e-07 18 0

0111000
-39 0 *
Ve
1e-07
-1.443375673 -3 2.5
0 0

0101101
*
Ed
 1e-07 1 1 0
1  35 0 -2.886751346 -0
4 C0 19 0 15 0
0

0101000
+44 0 -37 0 *
Ve
1e-07
-1.443375673 -6 2.5
0 0

0101101
*
Ed
 1e-07 1 1 0
1  36 0 -1.443375673 1.443375673
4 C0 19 0 6 0
0

0101000
+35 0 -42 0 *
Ed
 1e-07 1 1 0
1  37 0 0 3
4 C0 19 0 20 0
0

0101000
+35 0 -37 0 *
Wi

0101100
-36 0 -40 0 -34 0 +33 0 *
Fa
0  1e-07 19 0

0111000
-32 0 *
Ve
1e-07
-2.8867513459 -3 -1.76756702004722e-16
0 0

0101101
*
Ed
 1e-07 1 1 0
1  38 0 -2.8867513459111 -0
4 C0 20 0 15 0
0

0101000
+37 0 -30 0 *
Ve
1e-07
-2.8867513459 -6 -1.76756702004722e-16
0 0

0101101
*
Ed
 1e-07 1 1 0
1  39 0 -1.443375672925 1.4433756729861
4 C0 20 0 6 0
0

0101000
+28 0 -35 0 *
Ed
 1e-07 1 1 0
1  40 0 0 3
4 C0 20 0 16 0
0

0101000
+28 0 -30 0 *
Wi

0101100
-29 0 -33 0 -27 0 +26 0 *
Fa
0  1e-07 20 0

0111000
-25 0 *
Ed
 1e-07 1 1 0
1  41 0 -2.8867513459111 0
4 C0 16 0 15 0
0

0101000
+30 0 -61 0 *
Ed
 1e-07 1 1 0
1  42 0 -1.4433756729861 1.443375672925
4 C0 16 0 6 0
0

0101000
+58 0 -28 0 *
Wi

0101100
-23 0 -26 0 -22 0 +57 0 *
Fa
0  1e-07 16 0

0111000
-21 0 *
Wi

0101100
+59 0 +50 0 +43 0 +36 0 +29 0 +23 0 *
Fa
0  1e-07 15 0

0111000
-19 0 *
Ve
1e-07
4.4 -6 7.34763812293426e-16
0 0

0101101
*
Ed
 1e-07 1 1 0
1  43 0 0 1.5707963267949
2  43 5 0 0 1.5707963267949
4 G1 5 0 6 0
0

0101000
+17 0 -108 0 *
Ed
 1e-07 1 1 0
1  44 0 4.71238898038469 6.28318530717959
2  44 5 0 4.71238898038469 6.28318530717959
4 G1 5 0 6 0
0

0101000
+104 0 -17 0 *
Ed
 1e-07 1 1 0
1  45 0 0 1.5707963267949
2  45 5 0 0 1.5707963267949
2  46 2 0 0 1.5707963267949
4 G1 5 0 2 0
0

0101000
+119 0 -106 0 *
Wi

0101100
+107 0 -16 0 -15 0 +103 0 -14 0 -111 0 *
Fa
0  1e-07 5 0

0111000
+13 0 *
Ed
 1e-07 1 1 0
1  46 0 0 3.14159265358979
2  47 2 0 0 3.14159265358979
4 C0 2 0 3 0
0

0101000
+120 0 -117 0 *
Wi

0101100
+118 0 +14 0 +105 0 +114 0 -11 0 *
Fa
0  1e-07 2 0

0111000
+10 0 *
Wi

0101100
+64 0 +91 0 *
Wi

0101100
+11 0 +116 0 *
Fa
0  1e-07 3 0

0111000
+8 0 +7 0 *
Wi

0101100
+55 0 +22 0 +27 0 +34 0 +41 0 +48 0 *
Wi

0101100
+16 0 +102 0 +15 0 *
Fa
0  1e-07 6 0

0111000
+5 0 +4 0 *
Sh

0101100
+109 0 +100 0 -88 0 +81 0 +74 0 +70 0 +67 0 +65 0 -62 0 -52 0 
-45 0 -38 0 -31 0 -24 0 -20 0 -18 0 +12 0 +9 0 +6 0 +3 0 
*
So

0100000
+2 0 *

+1 0 