DBRep_DrawableShape

CASCADE Topology V1, (c) Matra-Datavision
Locations 1
1
0.246328282415658 0.431628319699727 -0.867766887427345 7.36218220571772 
0.298466972584652 0.818058570640367 0.491627543245893 -13.3973874588542 
0.922084509987184 -0.380101524115636 0.0726841647586717 -15.7377313860063 
Curve2ds 24
1 0 0 1 0 
1 0 0 1 0 
1 217.19999999999999 0 0 -1 
1 0 0 0 1 
1 0 -217.19999999999999 1 0 
1 0 0 1 0 
1 0 0 0 -1 
1 0 0 0 1 
1 0 0 1 0 
1 0 217.19999999999999 1 0 
1 217.19999999999999 0 0 -1 
1 217.19999999999999 0 0 1 
1 0 -217.19999999999999 1 0 
1 0 217.19999999999999 1 0 
1 0 0 0 -1 
1 217.19999999999999 0 0 1 
1 0 0 0 1 
1 0 0 1 0 
1 217.19999999999999 0 0 1 
1 0 0 1 0 
1 0 0 0 1 
1 0 217.19999999999999 1 0 
1 217.19999999999999 0 0 1 
1 0 217.19999999999999 1 0 
Curves 12
1 -108.59999999999999 -108.59999999999999 -108.59999999999999 0 0 1 
1 -108.59999999999999 -108.59999999999999 108.59999999999999 -0 1 0 
1 -108.59999999999999 108.59999999999999 -108.59999999999999 0 0 1 
1 -108.59999999999999 -108.59999999999999 -108.59999999999999 -0 1 0 
1 108.59999999999999 -108.59999999999999 -108.59999999999999 0 0 1 
1 108.59999999999999 -108.59999999999999 108.59999999999999 -0 1 0 
1 108.59999999999999 108.59999999999999 -108.59999999999999 0 0 1 
1 108.59999999999999 -108.59999999999999 -108.59999999999999 -0 1 0 
1 -108.59999999999999 -108.59999999999999 -108.59999999999999 1 0 -0 
1 -108.59999999999999 -108.59999999999999 108.59999999999999 1 0 -0 
1 -108.59999999999999 108.59999999999999 -108.59999999999999 1 0 -0 
1 -108.59999999999999 108.59999999999999 108.59999999999999 1 0 -0 
Polygon3D 0
PolygonOnTriangulations 0
Surfaces 6
1 -108.59999999999999 -108.59999999999999 -108.59999999999999 1 0 -0 0 0 1 0 -1 0 
1 -108.59999999999999 -108.59999999999999 -108.59999999999999 -0 1 0 0 0 1 1 0 -0 
1 -108.59999999999999 -108.59999999999999 108.59999999999999 0 0 1 1 0 -0 -0 1 0 
1 -108.59999999999999 108.59999999999999 -108.59999999999999 -0 1 0 0 0 1 1 0 -0 
1 -108.59999999999999 -108.59999999999999 -108.59999999999999 0 0 1 1 0 -0 -0 1 0 
1 108.59999999999999 -108.59999999999999 -108.59999999999999 1 0 -0 0 0 1 0 -1 0 
Triangulations 0

TShapes 34
Ve
1e-07
-108.6 -108.6 108.6
0 0

0101101
*
Ve
1e-07
-108.6 -108.6 -108.6
0 0

0101101
*
Ed
 1e-07 1 1 0
1  1 0 0 217.2
2  1 1 0 0 217.2
2  2 2 0 0 217.2
0

0101000
-34 0 +33 0 *
Ve
1e-07
-108.6 108.6 108.6
0 0

0101101
*
Ed
 1e-07 1 1 0
1  2 0 0 217.2
2  3 1 0 0 217.2
2  4 3 0 0 217.2
0

0101000
-31 0 +34 0 *
Ve
1e-07
-108.6 108.6 -108.6
0 0

0101101
*
Ed
 1e-07 1 1 0
1  3 0 0 217.2
2  5 1 0 0 217.2
2  6 4 0 0 217.2
0

0101000
-31 0 +29 0 *
Ed
 1e-07 1 1 0
1  4 0 0 217.2
2  7 1 0 0 217.2
2  8 5 0 0 217.2
0

0101000
-29 0 +33 0 *
Wi

0101100
-32 0 -30 0 +28 0 +27 0 *
Fa
0  1e-07 1 0

0111000
+26 0 *
Ve
1e-07
108.6 -108.6 108.6
0 0

0101101
*
Ve
1e-07
108.6 -108.6 -108.6
0 0

0101101
*
Ed
 1e-07 1 1 0
1  5 0 0 217.2
2  9 6 0 0 217.2
2  10 2 0 0 217.2
0

0101000
-24 0 +23 0 *
Ve
1e-07
108.6 108.6 108.6
0 0

0101101
*
Ed
 1e-07 1 1 0
1  6 0 0 217.2
2  11 6 0 0 217.2
2  12 3 0 0 217.2
0

0101000
-21 0 +24 0 *
Ve
1e-07
108.6 108.6 -108.6
0 0

0101101
*
Ed
 1e-07 1 1 0
1  7 0 0 217.2
2  13 6 0 0 217.2
2  14 4 0 0 217.2
0

0101000
-21 0 +19 0 *
Ed
 1e-07 1 1 0
1  8 0 0 217.2
2  15 6 0 0 217.2
2  16 5 0 0 217.2
0

0101000
-19 0 +23 0 *
Wi

0101100
-22 0 -20 0 +18 0 +17 0 *
Fa
0  1e-07 6 0

0111000
+16 0 *
Ed
 1e-07 1 1 0
1  9 0 0 217.2
2  17 2 0 0 217.2
2  18 5 0 0 217.2
0

0101000
-23 0 +33 0 *
Ed
 1e-07 1 1 0
1  10 0 0 217.2
2  19 2 0 0 217.2
2  20 3 0 0 217.2
0

0101000
-24 0 +34 0 *
Wi

0101100
-14 0 -22 0 +13 0 +32 0 *
Fa
0  1e-07 2 0

0111000
+12 0 *
Ed
 1e-07 1 1 0
1  11 0 0 217.2
2  21 4 0 0 217.2
2  22 5 0 0 217.2
0

0101000
-19 0 +29 0 *
Ed
 1e-07 1 1 0
1  12 0 0 217.2
2  23 4 0 0 217.2
2  24 3 0 0 217.2
0

0101000
-21 0 +31 0 *
Wi

0101100
-10 0 -18 0 +9 0 +28 0 *
Fa
0  1e-07 4 0

0111000
+8 0 *
Wi

0101100
-27 0 -10 0 +17 0 +14 0 *
Fa
0  1e-07 5 0

0111000
+6 0 *
Wi

0101100
-30 0 -9 0 +20 0 +13 0 *
Fa
0  1e-07 3 0

0111000
+4 0 *
Sh

0101100
-25 0 +15 0 -11 0 +7 0 -5 0 +3 0 *
So

1100000
+2 0 *

+1 1 