DBRep_DrawableShape

CASCADE Topology V1, (c) Matra-Datavision
Locations 1
1
0.527736772741336 0.134897513794756 -0.838627783625461 8.46087199472708 
0.23218421508936 0.926797265459762 0.295190309799705 31.4457231975589 
0.817058375490942 -0.350498915131418 0.457783924501289 -48.1061435231528 
Curve2ds 6
1 0 168.73862251322305 1 0 
2 0 0 1 0 -0 1 46.765847113666382
1 6.2831853071795862 -0 0 1 
1 0 -0 0 1 
1 0 0 1 0 
2 0 0 1 0 -0 1 46.765847113666382
Curves 3
2 0 0 168.73862251322305 0 0 1 1 0 -0 -0 1 0 46.765847113666382
1 46.765847113666382 -1.1454328995433205e-14 0 0 0 1 
2 0 0 0 0 0 1 1 0 -0 -0 1 0 46.765847113666382
Polygon3D 0
PolygonOnTriangulations 0
Surfaces 3
2 0 0 0 0 0 1 1 0 -0 -0 1 0 46.765847113666382
1 0 0 168.73862251322305 0 0 1 1 0 -0 -0 1 0 
1 0 0 0 0 0 1 1 0 -0 -0 1 0 
Triangulations 0

TShapes 13
Ve
1e-07
46.7658471136664 -1.14543289954332e-14 168.738622513223
0 0

0101101
*
Ed
 1e-07 1 1 0
1  1 0 0 6.28318530717959
2  1 1 0 0 6.28318530717959
2  2 2 0 0 6.28318530717959
0

0101000
+13 0 -13 0 *
Ve
1e-07
46.7658471136664 -1.14543289954332e-14 0
0 0

0101101
*
Ed
 1e-07 1 1 0
1  2 0 0 168.738622513223
3  3 4CN 1 0 0 168.738622513223
0

0101000
-13 0 +11 0 *
Ed
 1e-07 1 1 0
1  3 0 0 6.28318530717959
2  5 1 0 0 6.28318530717959
2  6 3 0 0 6.28318530717959
0

0101000
+11 0 -11 0 *
Wi

0101100
-12 0 +10 0 +9 0 -10 0 *
Fa
0  1e-07 1 0

0111000
+8 0 *
Wi

0101100
+12 0 *
Fa
0  1e-07 2 0

0111000
+6 0 *
Wi

0101100
-9 0 *
Fa
0  1e-07 3 0

0111000
-4 0 *
Sh

0101100
+7 0 +5 0 -3 0 *
So

1100000
+2 0 *

+1 1 