DBRep_DrawableShape

CASCADE Topology V1, (c) Matra-Datavision
Locations 1
1
0.797289133026355 -0.386390048738401 0.463716258712178 -45.1578045655727 
0.176066843301143 0.883719420426742 0.433636313805238 0.923849706043711 
-0.577347819817529 -0.264088462823653 0.772610366714935 -47.9303415546182 
Curve2ds 6
1 0 70.315205231149847 1 0 
2 0 0 1 0 -0 1 59.144630876275613
1 6.2831853071795862 -0 0 1 
1 0 -0 0 1 
1 0 0 1 0 
2 0 0 1 0 -0 1 59.144630876275613
Curves 3
2 0 0 70.315205231149847 0 0 1 1 0 -0 -0 1 0 59.144630876275613
1 59.144630876275613 -1.448625657787653e-14 0 0 0 1 
2 0 0 0 0 0 1 1 0 -0 -0 1 0 59.144630876275613
Polygon3D 0
PolygonOnTriangulations 0
Surfaces 3
2 0 0 0 0 0 1 1 0 -0 -0 1 0 59.144630876275613
1 0 0 70.315205231149847 0 0 1 1 0 -0 -0 1 0 
1 0 0 0 0 0 1 1 0 -0 -0 1 0 
Triangulations 0

TShapes 13
Ve
1e-07
59.1446308762756 -1.44862565778765e-14 70.3152052311498
0 0

0101101
*
Ed
 1e-07 1 1 0
1  1 0 0 6.28318530717959
2  1 1 0 0 6.28318530717959
2  2 2 0 0 6.28318530717959
0

0101000
+13 0 -13 0 *
Ve
1e-07
59.1446308762756 -1.44862565778765e-14 0
0 0

0101101
*
Ed
 1e-07 1 1 0
1  2 0 0 70.3152052311498
3  3 4CN 1 0 0 70.3152052311498
0

0101000
-13 0 +11 0 *
Ed
 1e-07 1 1 0
1  3 0 0 6.28318530717959
2  5 1 0 0 6.28318530717959
2  6 3 0 0 6.28318530717959
0

0101000
+11 0 -11 0 *
Wi

0101100
-12 0 +10 0 +9 0 -10 0 *
Fa
0  1e-07 1 0

0111000
+8 0 *
Wi

0101100
+12 0 *
Fa
0  1e-07 2 0

0111000
+6 0 *
Wi

0101100
-9 0 *
Fa
0  1e-07 3 0

0111000
-4 0 *
Sh

0101100
+7 0 +5 0 -3 0 *
So

1100000
+2 0 *

+1 1 