DBRep_DrawableShape

CASCADE Topology V1, (c) Matra-Datavision
Locations 1
1
0.0389525045608502 0.0272753052722713 0.998868740180982 -38.7309958272757 
-0.663500508385517 0.748156018179319 0.00544498248178227 -22.1040381760017 
-0.747161145778203 -0.662962012625438 0.0472397296248797 40.8599497727732 
Curve2ds 6
1 0 217.92428413215887 1 0 
2 0 0 1 0 -0 1 70.967560812300761
1 6.2831853071795862 -0 0 1 
1 0 -0 0 1 
1 0 0 1 0 
2 0 0 1 0 -0 1 70.967560812300761
Curves 3
2 0 0 217.92428413215887 0 0 1 1 0 -0 -0 1 0 70.967560812300761
1 70.967560812300761 -1.7382039238415853e-14 0 0 0 1 
2 0 0 0 0 0 1 1 0 -0 -0 1 0 70.967560812300761
Polygon3D 0
PolygonOnTriangulations 0
Surfaces 3
2 0 0 0 0 0 1 1 0 -0 -0 1 0 70.967560812300761
1 0 0 217.92428413215887 0 0 1 1 0 -0 -0 1 0 
1 0 0 0 0 0 1 1 0 -0 -0 1 0 
Triangulations 0

TShapes 13
Ve
1e-07
70.9675608123008 -1.73820392384159e-14 217.924284132159
0 0

0101101
*
Ed
 1e-07 1 1 0
1  1 0 0 6.28318530717959
2  1 1 0 0 6.28318530717959
2  2 2 0 0 6.28318530717959
0

0101000
+13 0 -13 0 *
Ve
1e-07
70.9675608123008 -1.73820392384159e-14 0
0 0

0101101
*
Ed
 1e-07 1 1 0
1  2 0 0 217.924284132159
3  3 4CN 1 0 0 217.924284132159
0

0101000
-13 0 +11 0 *
Ed
 1e-07 1 1 0
1  3 0 0 6.28318530717959
2  5 1 0 0 6.28318530717959
2  6 3 0 0 6.28318530717959
0

0101000
+11 0 -11 0 *
Wi

0101100
-12 0 +10 0 +9 0 -10 0 *
Fa
0  1e-07 1 0

0111000
+8 0 *
Wi

0101100
+12 0 *
Fa
0  1e-07 2 0

0111000
+6 0 *
Wi

0101100
-9 0 *
Fa
0  1e-07 3 0

0111000
-4 0 *
Sh

0101100
+7 0 +5 0 -3 0 *
So

1100000
+2 0 *

+1 1 