DBRep_DrawableShape

CASCADE Topology V1, (c) Matra-Datavision
Locations 1
1
0.848566798404326 0.393778443416382 0.353373635330089 32.0389019414968 
-0.494338601308636 0.352016339961955 0.794804280094169 42.3742492244105 
0.188583498488211 -0.849130751945989 0.493369263531471 41.3152245414482 
Curve2ds 6
1 0 126.57249119267102 1 0 
2 0 0 1 0 -0 1 86.115511747909039
1 6.2831853071795862 -0 0 1 
1 0 -0 0 1 
1 0 0 1 0 
2 0 0 1 0 -0 1 86.115511747909039
Curves 3
2 0 0 126.57249119267102 0 0 1 1 0 -0 -0 1 0 86.115511747909039
1 86.115511747909039 -2.1092217163802619e-14 0 0 0 1 
2 0 0 0 0 0 1 1 0 -0 -0 1 0 86.115511747909039
Polygon3D 0
PolygonOnTriangulations 0
Surfaces 3
2 0 0 0 0 0 1 1 0 -0 -0 1 0 86.115511747909039
1 0 0 126.57249119267102 0 0 1 1 0 -0 -0 1 0 
1 0 0 0 0 0 1 1 0 -0 -0 1 0 
Triangulations 0

TShapes 13
Ve
1e-07
86.115511747909 -2.10922171638026e-14 126.572491192671
0 0

0101101
*
Ed
 1e-07 1 1 0
1  1 0 0 6.28318530717959
2  1 1 0 0 6.28318530717959
2  2 2 0 0 6.28318530717959
0

0101000
+13 0 -13 0 *
Ve
1e-07
86.115511747909 -2.10922171638026e-14 0
0 0

0101101
*
Ed
 1e-07 1 1 0
1  2 0 0 126.572491192671
3  3 4CN 1 0 0 126.572491192671
0

0101000
-13 0 +11 0 *
Ed
 1e-07 1 1 0
1  3 0 0 6.28318530717959
2  5 1 0 0 6.28318530717959
2  6 3 0 0 6.28318530717959
0

0101000
+11 0 -11 0 *
Wi

0101100
-12 0 +10 0 +9 0 -10 0 *
Fa
0  1e-07 1 0

0111000
+8 0 *
Wi

0101100
+12 0 *
Fa
0  1e-07 2 0

0111000
+6 0 *
Wi

0101100
-9 0 *
Fa
0  1e-07 3 0

0111000
-4 0 *
Sh

0101100
+7 0 +5 0 -3 0 *
So

1100000
+2 0 *

+1 1 