DBRep_DrawableShape

CASCADE Topology V1, (c) Matra-Datavision
Locations 1
1
0.139812778986286 0.971227110440603 0.192795971890827 -10.3554136599393 
-0.967021275412056 0.0920670995110716 0.237473160774138 -17.4794191855434 
0.212890205816457 -0.219639589174663 0.952069436088887 -45.9124761604614 
Curve2ds 6
1 0 140.57600984466666 1 0 
2 0 0 1 0 -0 1 65.346479321517933
1 6.2831853071795862 -0 0 1 
1 0 -0 0 1 
1 0 0 1 0 
2 0 0 1 0 -0 1 65.346479321517933
Curves 3
2 0 0 140.57600984466666 0 0 1 1 0 -0 -0 1 0 65.346479321517933
1 65.346479321517933 -1.6005271347329129e-14 0 0 0 1 
2 0 0 0 0 0 1 1 0 -0 -0 1 0 65.346479321517933
Polygon3D 0
PolygonOnTriangulations 0
Surfaces 3
2 0 0 0 0 0 1 1 0 -0 -0 1 0 65.346479321517933
1 0 0 140.57600984466666 0 0 1 1 0 -0 -0 1 0 
1 0 0 0 0 0 1 1 0 -0 -0 1 0 
Triangulations 0

TShapes 13
Ve
1e-07
65.3464793215179 -1.60052713473291e-14 140.576009844667
0 0

0101101
*
Ed
 1e-07 1 1 0
1  1 0 0 6.28318530717959
2  1 1 0 0 6.28318530717959
2  2 2 0 0 6.28318530717959
0

0101000
+13 0 -13 0 *
Ve
1e-07
65.3464793215179 -1.60052713473291e-14 0
0 0

0101101
*
Ed
 1e-07 1 1 0
1  2 0 0 140.576009844667
3  3 4CN 1 0 0 140.576009844667
0

0101000
-13 0 +11 0 *
Ed
 1e-07 1 1 0
1  3 0 0 6.28318530717959
2  5 1 0 0 6.28318530717959
2  6 3 0 0 6.28318530717959
0

0101000
+11 0 -11 0 *
Wi

0101100
-12 0 +10 0 +9 0 -10 0 *
Fa
0  1e-07 1 0

0111000
+8 0 *
Wi

0101100
+12 0 *
Fa
0  1e-07 2 0

0111000
+6 0 *
Wi

0101100
-9 0 *
Fa
0  1e-07 3 0

0111000
-4 0 *
Sh

0101100
+7 0 +5 0 -3 0 *
So

1100000
+2 0 *

+1 1 