DBRep_DrawableShape

CASCADE Topology V1, (c) Matra-Datavision
Locations 1
1
0.370801992862243 0.280239796908265 0.885421672604756 -6.91701736202241 
0.631767237961114 0.622688760839196 -0.46165881792026 -37.9649299943039 
-0.680717297509307 0.730564414239677 0.0538479109925759 -1.91899495005298 
Curve2ds 6
1 0 188.10591809292583 1 0 
2 0 0 1 0 -0 1 99.551706492108082
1 6.2831853071795862 -0 0 1 
1 0 -0 0 1 
1 0 0 1 0 
2 0 0 1 0 -0 1 99.551706492108082
Curves 3
2 0 0 188.10591809292583 0 0 1 1 0 -0 -0 1 0 99.551706492108082
1 99.551706492108082 -2.4383135741043388e-14 0 0 0 1 
2 0 0 0 0 0 1 1 0 -0 -0 1 0 99.551706492108082
Polygon3D 0
PolygonOnTriangulations 0
Surfaces 3
2 0 0 0 0 0 1 1 0 -0 -0 1 0 99.551706492108082
1 0 0 188.10591809292583 0 0 1 1 0 -0 -0 1 0 
1 0 0 0 0 0 1 1 0 -0 -0 1 0 
Triangulations 0

TShapes 13
Ve
1e-07
99.5517064921081 -2.43831357410434e-14 188.105918092926
0 0

0101101
*
Ed
 1e-07 1 1 0
1  1 0 0 6.28318530717959
2  1 1 0 0 6.28318530717959
2  2 2 0 0 6.28318530717959
0

0101000
+13 0 -13 0 *
Ve
1e-07
99.5517064921081 -2.43831357410434e-14 0
0 0

0101101
*
Ed
 1e-07 1 1 0
1  2 0 0 188.105918092926
3  3 4CN 1 0 0 188.105918092926
0

0101000
-13 0 +11 0 *
Ed
 1e-07 1 1 0
1  3 0 0 6.28318530717959
2  5 1 0 0 6.28318530717959
2  6 3 0 0 6.28318530717959
0

0101000
+11 0 -11 0 *
Wi

0101100
-12 0 +10 0 +9 0 -10 0 *
Fa
0  1e-07 1 0

0111000
+8 0 *
Wi

0101100
+12 0 *
Fa
0  1e-07 2 0

0111000
+6 0 *
Wi

0101100
-9 0 *
Fa
0  1e-07 3 0

0111000
-4 0 *
Sh

0101100
+7 0 +5 0 -3 0 *
So

1100000
+2 0 *

+1 1 