DBRep_DrawableShape

CASCADE Topology V1, (c) Matra-Datavision
Locations 1
1
0.275581634928338 0.194390819366808 0.941417533210491 26.3450632582308 
-0.406837707567886 0.910891291748414 -0.0689937266554886 -3.84433072405652 
-0.87094077995644 -0.363990747084051 0.330110426745449 12.7290646175843 
Curve2ds 6
1 0 134.09867092020275 1 0 
2 0 0 1 0 -0 1 61.821574746470553
1 6.2831853071795862 -0 0 1 
1 0 -0 0 1 
1 0 0 1 0 
2 0 0 1 0 -0 1 61.821574746470553
Curves 3
2 0 0 134.09867092020275 0 0 1 1 0 -0 -0 1 0 61.821574746470553
1 61.821574746470553 -1.5141918726302801e-14 0 0 0 1 
2 0 0 0 0 0 1 1 0 -0 -0 1 0 61.821574746470553
Polygon3D 0
PolygonOnTriangulations 0
Surfaces 3
2 0 0 0 0 0 1 1 0 -0 -0 1 0 61.821574746470553
1 0 0 134.09867092020275 0 0 1 1 0 -0 -0 1 0 
1 0 0 0 0 0 1 1 0 -0 -0 1 0 
Triangulations 0

TShapes 13
Ve
1e-07
61.8215747464706 -1.51419187263028e-14 134.098670920203
0 0

0101101
*
Ed
 1e-07 1 1 0
1  1 0 0 6.28318530717959
2  1 1 0 0 6.28318530717959
2  2 2 0 0 6.28318530717959
0

0101000
+13 0 -13 0 *
Ve
1e-07
61.8215747464706 -1.51419187263028e-14 0
0 0

0101101
*
Ed
 1e-07 1 1 0
1  2 0 0 134.098670920203
3  3 4CN 1 0 0 134.098670920203
0

0101000
-13 0 +11 0 *
Ed
 1e-07 1 1 0
1  3 0 0 6.28318530717959
2  5 1 0 0 6.28318530717959
2  6 3 0 0 6.28318530717959
0

0101000
+11 0 -11 0 *
Wi

0101100
-12 0 +10 0 +9 0 -10 0 *
Fa
0  1e-07 1 0

0111000
+8 0 *
Wi

0101100
+12 0 *
Fa
0  1e-07 2 0

0111000
+6 0 *
Wi

0101100
-9 0 *
Fa
0  1e-07 3 0

0111000
-4 0 *
Sh

0101100
+7 0 +5 0 -3 0 *
So

1100000
+2 0 *

+1 1 