DBRep_DrawableShape

CASCADE Topology V1, (c) Matra-Datavision
Locations 1
1
0.83470929156525 -0.00697189469070111 -0.55064670275873 -28.9153904566334 
-0.0697761160172594 0.990521761999379 -0.118312859145538 -38.3141822305029 
0.546252407050243 0.137178831056646 0.826311246505666 -36.9200827484578 
Curve2ds 6
1 0 240.69071344796149 1 0 
2 0 0 1 0 -0 1 58.050972268614913
1 6.2831853071795862 -0 0 1 
1 0 -0 0 1 
1 0 0 1 0 
2 0 0 1 0 -0 1 58.050972268614913
Curves 3
2 0 0 240.69071344796149 0 0 1 1 0 -0 -0 1 0 58.050972268614913
1 58.050972268614913 -1.4218387475230205e-14 0 0 0 1 
2 0 0 0 0 0 1 1 0 -0 -0 1 0 58.050972268614913
Polygon3D 0
PolygonOnTriangulations 0
Surfaces 3
2 0 0 0 0 0 1 1 0 -0 -0 1 0 58.050972268614913
1 0 0 240.69071344796149 0 0 1 1 0 -0 -0 1 0 
1 0 0 0 0 0 1 1 0 -0 -0 1 0 
Triangulations 0

TShapes 13
Ve
1e-07
58.0509722686149 -1.42183874752302e-14 240.690713447961
0 0

0101101
*
Ed
 1e-07 1 1 0
1  1 0 0 6.28318530717959
2  1 1 0 0 6.28318530717959
2  2 2 0 0 6.28318530717959
0

0101000
+13 0 -13 0 *
Ve
1e-07
58.0509722686149 -1.42183874752302e-14 0
0 0

0101101
*
Ed
 1e-07 1 1 0
1  2 0 0 240.690713447961
3  3 4CN 1 0 0 240.690713447961
0

0101000
-13 0 +11 0 *
Ed
 1e-07 1 1 0
1  3 0 0 6.28318530717959
2  5 1 0 0 6.28318530717959
2  6 3 0 0 6.28318530717959
0

0101000
+11 0 -11 0 *
Wi

0101100
-12 0 +10 0 +9 0 -10 0 *
Fa
0  1e-07 1 0

0111000
+8 0 *
Wi

0101100
+12 0 *
Fa
0  1e-07 2 0

0111000
+6 0 *
Wi

0101100
-9 0 *
Fa
0  1e-07 3 0

0111000
-4 0 *
Sh

0101100
+7 0 +5 0 -3 0 *
So

1100000
+2 0 *

+1 1 