DBRep_DrawableShape

CASCADE Topology V1, (c) Matra-Datavision
Locations 1
1
0.769111034707032 -0.07631253997451 -0.634542837430632 -38.2580098445569 
0.047820383966112 0.996934033524203 -0.0619333809709853 -38.3601203220487 
0.637323643974718 0.0172895645926203 0.770402261021465 -1.1531159737531 
Curve2ds 6
1 0 141.59708993612767 1 0 
2 0 0 1 0 -0 1 46.821647932756719
1 6.2831853071795862 -0 0 1 
1 0 -0 0 1 
1 0 0 1 0 
2 0 0 1 0 -0 1 46.821647932756719
Curves 3
2 0 0 141.59708993612767 0 0 1 1 0 -0 -0 1 0 46.821647932756719
1 46.821647932756719 -1.146799625433096e-14 0 0 0 1 
2 0 0 0 0 0 1 1 0 -0 -0 1 0 46.821647932756719
Polygon3D 0
PolygonOnTriangulations 0
Surfaces 3
2 0 0 0 0 0 1 1 0 -0 -0 1 0 46.821647932756719
1 0 0 141.59708993612767 0 0 1 1 0 -0 -0 1 0 
1 0 0 0 0 0 1 1 0 -0 -0 1 0 
Triangulations 0

TShapes 13
Ve
1e-07
46.8216479327567 -1.1467996254331e-14 141.597089936128
0 0

0101101
*
Ed
 1e-07 1 1 0
1  1 0 0 6.28318530717959
2  1 1 0 0 6.28318530717959
2  2 2 0 0 6.28318530717959
0

0101000
+13 0 -13 0 *
Ve
1e-07
46.8216479327567 -1.1467996254331e-14 0
0 0

0101101
*
Ed
 1e-07 1 1 0
1  2 0 0 141.597089936128
3  3 4CN 1 0 0 141.597089936128
0

0101000
-13 0 +11 0 *
Ed
 1e-07 1 1 0
1  3 0 0 6.28318530717959
2  5 1 0 0 6.28318530717959
2  6 3 0 0 6.28318530717959
0

0101000
+11 0 -11 0 *
Wi

0101100
-12 0 +10 0 +9 0 -10 0 *
Fa
0  1e-07 1 0

0111000
+8 0 *
Wi

0101100
+12 0 *
Fa
0  1e-07 2 0

0111000
+6 0 *
Wi

0101100
-9 0 *
Fa
0  1e-07 3 0

0111000
-4 0 *
Sh

0101100
+7 0 +5 0 -3 0 *
So

1100000
+2 0 *

+1 1 