DBRep_DrawableShape

CASCADE Topology V1, (c) Matra-Datavision
Locations 1
1
0.498847017946443 -0.55702524542035 -0.663983831618165 -3.63399910628483 
0.561042104502322 -0.376390354475242 0.73726661258571 -35.6238348747557 
-0.660593225564376 -0.740306137366428 0.124753410037777 -16.6783853884088 
Curve2ds 6
1 0 92.136863235409521 1 0 
2 0 0 1 0 -0 1 49.740277709471343
1 6.2831853071795862 -0 0 1 
1 0 -0 0 1 
1 0 0 1 0 
2 0 0 1 0 -0 1 49.740277709471343
Curves 3
2 0 0 92.136863235409521 0 0 1 1 0 -0 -0 1 0 49.740277709471343
1 49.740277709471343 -1.2182854377120904e-14 0 0 0 1 
2 0 0 0 0 0 1 1 0 -0 -0 1 0 49.740277709471343
Polygon3D 0
PolygonOnTriangulations 0
Surfaces 3
2 0 0 0 0 0 1 1 0 -0 -0 1 0 49.740277709471343
1 0 0 92.136863235409521 0 0 1 1 0 -0 -0 1 0 
1 0 0 0 0 0 1 1 0 -0 -0 1 0 
Triangulations 0

TShapes 13
Ve
1e-07
49.7402777094713 -1.21828543771209e-14 92.1368632354095
0 0

0101101
*
Ed
 1e-07 1 1 0
1  1 0 0 6.28318530717959
2  1 1 0 0 6.28318530717959
2  2 2 0 0 6.28318530717959
0

0101000
+13 0 -13 0 *
Ve
1e-07
49.7402777094713 -1.21828543771209e-14 0
0 0

0101101
*
Ed
 1e-07 1 1 0
1  2 0 0 92.1368632354095
3  3 4CN 1 0 0 92.1368632354095
0

0101000
-13 0 +11 0 *
Ed
 1e-07 1 1 0
1  3 0 0 6.28318530717959
2  5 1 0 0 6.28318530717959
2  6 3 0 0 6.28318530717959
0

0101000
+11 0 -11 0 *
Wi

0101100
-12 0 +10 0 +9 0 -10 0 *
Fa
0  1e-07 1 0

0111000
+8 0 *
Wi

0101100
+12 0 *
Fa
0  1e-07 2 0

0111000
+6 0 *
Wi

0101100
-9 0 *
Fa
0  1e-07 3 0

0111000
-4 0 *
Sh

0101100
+7 0 +5 0 -3 0 *
So

1100000
+2 0 *

+1 1 