DBRep_DrawableShape

CASCADE Topology V1, (c) Matra-Datavision
Locations 1
1
0.549501487546026 -0.72105017541511 -0.422060137561634 30.0442883291711 
0.772505471088283 0.630904296048497 -0.0720768087960401 -32.7162049885633 
0.3182505496042 -0.286437451743641 0.903698054615165 -30.524186694171 
Curve2ds 6
1 0 76.679890360158367 1 0 
2 0 0 1 0 -0 1 24.672902161794603
1 6.2831853071795862 -0 0 1 
1 0 -0 0 1 
1 0 0 1 0 
2 0 0 1 0 -0 1 24.672902161794603
Curves 3
2 0 0 76.679890360158367 0 0 1 1 0 -0 -0 1 0 24.672902161794603
1 24.672902161794603 -6.0431181316235142e-15 0 0 0 1 
2 0 0 0 0 0 1 1 0 -0 -0 1 0 24.672902161794603
Polygon3D 0
PolygonOnTriangulations 0
Surfaces 3
2 0 0 0 0 0 1 1 0 -0 -0 1 0 24.672902161794603
1 0 0 76.679890360158367 0 0 1 1 0 -0 -0 1 0 
1 0 0 0 0 0 1 1 0 -0 -0 1 0 
Triangulations 0

TShapes 13
Ve
1e-07
24.6729021617946 -6.04311813162351e-15 76.6798903601584
0 0

0101101
*
Ed
 1e-07 1 1 0
1  1 0 0 6.28318530717959
2  1 1 0 0 6.28318530717959
2  2 2 0 0 6.28318530717959
0

0101000
+13 0 -13 0 *
Ve
1e-07
24.6729021617946 -6.04311813162351e-15 0
0 0

0101101
*
Ed
 1e-07 1 1 0
1  2 0 0 76.6798903601584
3  3 4CN 1 0 0 76.6798903601584
0

0101000
-13 0 +11 0 *
Ed
 1e-07 1 1 0
1  3 0 0 6.28318530717959
2  5 1 0 0 6.28318530717959
2  6 3 0 0 6.28318530717959
0

0101000
+11 0 -11 0 *
Wi

0101100
-12 0 +10 0 +9 0 -10 0 *
Fa
0  1e-07 1 0

0111000
+8 0 *
Wi

0101100
+12 0 *
Fa
0  1e-07 2 0

0111000
+6 0 *
Wi

0101100
-9 0 *
Fa
0  1e-07 3 0

0111000
-4 0 *
Sh

0101100
+7 0 +5 0 -3 0 *
So

1100000
+2 0 *

+1 1 