DBRep_DrawableShape

CASCADE Topology V1, (c) Matra-Datavision
Locations 1
1
0.581486745855233 0.34441100999051 -0.737057813602168 -30.6594328724888 
-0.69490676225699 -0.260848540123738 -0.67012135534157 -44.5053571069724 
-0.423057627474319 0.901853145092166 0.0876535710805248 48.1265454391977 
Curve2ds 6
1 0 205.19319769957812 1 0 
2 0 0 1 0 -0 1 22.64314934694027
1 6.2831853071795862 -0 0 1 
1 0 -0 0 1 
1 0 0 1 0 
2 0 0 1 0 -0 1 22.64314934694027
Curves 3
2 0 0 205.19319769957812 0 0 1 1 0 -0 -0 1 0 22.64314934694027
1 22.64314934694027 -5.5459720740691766e-15 0 0 0 1 
2 0 0 0 0 0 1 1 0 -0 -0 1 0 22.64314934694027
Polygon3D 0
PolygonOnTriangulations 0
Surfaces 3
2 0 0 0 0 0 1 1 0 -0 -0 1 0 22.64314934694027
1 0 0 205.19319769957812 0 0 1 1 0 -0 -0 1 0 
1 0 0 0 0 0 1 1 0 -0 -0 1 0 
Triangulations 0

TShapes 13
Ve
1e-07
22.6431493469403 -5.54597207406918e-15 205.193197699578
0 0

0101101
*
Ed
 1e-07 1 1 0
1  1 0 0 6.28318530717959
2  1 1 0 0 6.28318530717959
2  2 2 0 0 6.28318530717959
0

0101000
+13 0 -13 0 *
Ve
1e-07
22.6431493469403 -5.54597207406918e-15 0
0 0

0101101
*
Ed
 1e-07 1 1 0
1  2 0 0 205.193197699578
3  3 4CN 1 0 0 205.193197699578
0

0101000
-13 0 +11 0 *
Ed
 1e-07 1 1 0
1  3 0 0 6.28318530717959
2  5 1 0 0 6.28318530717959
2  6 3 0 0 6.28318530717959
0

0101000
+11 0 -11 0 *
Wi

0101100
-12 0 +10 0 +9 0 -10 0 *
Fa
0  1e-07 1 0

0111000
+8 0 *
Wi

0101100
+12 0 *
Fa
0  1e-07 2 0

0111000
+6 0 *
Wi

0101100
-9 0 *
Fa
0  1e-07 3 0

0111000
-4 0 *
Sh

0101100
+7 0 +5 0 -3 0 *
So

1100000
+2 0 *

+1 1 