DBRep_DrawableShape

CASCADE Topology V1, (c) Matra-Datavision
Locations 1
1
0.389058000222153 -0.855638544116525 0.341345212776293 32.3789206365982 
0.695373718097709 0.0297364362673212 -0.718032824136256 35.7335470059722 
0.604226170106946 0.516718904415421 0.606557754197916 -33.3132431681127 
Curve2ds 6
1 0 141.27201507825365 1 0 
2 0 0 1 0 -0 1 67.145125628138359
1 6.2831853071795862 -0 0 1 
1 0 -0 0 1 
1 0 0 1 0 
2 0 0 1 0 -0 1 67.145125628138359
Curves 3
2 0 0 141.27201507825365 0 0 1 1 0 -0 -0 1 0 67.145125628138359
1 67.145125628138359 -1.6445812635769312e-14 0 0 0 1 
2 0 0 0 0 0 1 1 0 -0 -0 1 0 67.145125628138359
Polygon3D 0
PolygonOnTriangulations 0
Surfaces 3
2 0 0 0 0 0 1 1 0 -0 -0 1 0 67.145125628138359
1 0 0 141.27201507825365 0 0 1 1 0 -0 -0 1 0 
1 0 0 0 0 0 1 1 0 -0 -0 1 0 
Triangulations 0

TShapes 13
Ve
1e-07
67.1451256281384 -1.64458126357693e-14 141.272015078254
0 0

0101101
*
Ed
 1e-07 1 1 0
1  1 0 0 6.28318530717959
2  1 1 0 0 6.28318530717959
2  2 2 0 0 6.28318530717959
0

0101000
+13 0 -13 0 *
Ve
1e-07
67.1451256281384 -1.64458126357693e-14 0
0 0

0101101
*
Ed
 1e-07 1 1 0
1  2 0 0 141.272015078254
3  3 4CN 1 0 0 141.272015078254
0

0101000
-13 0 +11 0 *
Ed
 1e-07 1 1 0
1  3 0 0 6.28318530717959
2  5 1 0 0 6.28318530717959
2  6 3 0 0 6.28318530717959
0

0101000
+11 0 -11 0 *
Wi

0101100
-12 0 +10 0 +9 0 -10 0 *
Fa
0  1e-07 1 0

0111000
+8 0 *
Wi

0101100
+12 0 *
Fa
0  1e-07 2 0

0111000
+6 0 *
Wi

0101100
-9 0 *
Fa
0  1e-07 3 0

0111000
-4 0 *
Sh

0101100
+7 0 +5 0 -3 0 *
So

1100000
+2 0 *

+1 1 