DBRep_DrawableShape

CASCADE Topology V1, (c) Matra-Datavision
Locations 1
1
0.236619942132084 -0.605682617086556 -0.759710188390672 -41.8524995427189 
0.971509574569995 0.158292910329225 0.176387360823646 -38.4288605818605 
0.0134219784024667 -0.779802489030834 0.625881720932221 35.2496676351223 
Curve2ds 6
1 0 107.91085652994687 1 0 
2 0 0 1 0 -0 1 21.006163585585558
1 6.2831853071795862 -0 0 1 
1 0 -0 0 1 
1 0 0 1 0 
2 0 0 1 0 -0 1 21.006163585585558
Curves 3
2 0 0 107.91085652994687 0 0 1 1 0 -0 -0 1 0 21.006163585585558
1 21.006163585585558 -5.1450261994906087e-15 0 0 0 1 
2 0 0 0 0 0 1 1 0 -0 -0 1 0 21.006163585585558
Polygon3D 0
PolygonOnTriangulations 0
Surfaces 3
2 0 0 0 0 0 1 1 0 -0 -0 1 0 21.006163585585558
1 0 0 107.91085652994687 0 0 1 1 0 -0 -0 1 0 
1 0 0 0 0 0 1 1 0 -0 -0 1 0 
Triangulations 0

TShapes 13
Ve
1e-07
21.0061635855856 -5.14502619949061e-15 107.910856529947
0 0

0101101
*
Ed
 1e-07 1 1 0
1  1 0 0 6.28318530717959
2  1 1 0 0 6.28318530717959
2  2 2 0 0 6.28318530717959
0

0101000
+13 0 -13 0 *
Ve
1e-07
21.0061635855856 -5.14502619949061e-15 0
0 0

0101101
*
Ed
 1e-07 1 1 0
1  2 0 0 107.910856529947
3  3 4CN 1 0 0 107.910856529947
0

0101000
-13 0 +11 0 *
Ed
 1e-07 1 1 0
1  3 0 0 6.28318530717959
2  5 1 0 0 6.28318530717959
2  6 3 0 0 6.28318530717959
0

0101000
+11 0 -11 0 *
Wi

0101100
-12 0 +10 0 +9 0 -10 0 *
Fa
0  1e-07 1 0

0111000
+8 0 *
Wi

0101100
+12 0 *
Fa
0  1e-07 2 0

0111000
+6 0 *
Wi

0101100
-9 0 *
Fa
0  1e-07 3 0

0111000
-4 0 *
Sh

0101100
+7 0 +5 0 -3 0 *
So

1100000
+2 0 *

+1 1 