DBRep_DrawableShape

CASCADE Topology V1, (c) Matra-Datavision
Locations 1
1
0.272547992343044 0.525413942690364 -0.806013511484977 15.2888594530148 
0.117122620151964 0.813380118809357 0.569820212149776 16.640379322186 
0.954986850023871 -0.249705769160915 0.160147260760967 21.6028737650054 
Curve2ds 6
1 0 224.57054920449963 1 0 
2 0 0 1 0 -0 1 67.330319882165739
1 6.2831853071795862 -0 0 1 
1 0 -0 0 1 
1 0 0 1 0 
2 0 0 1 0 -0 1 67.330319882165739
Curves 3
2 0 0 224.57054920449963 0 0 1 1 0 -0 -0 1 0 67.330319882165739
1 67.330319882165739 -1.6491172145852333e-14 0 0 0 1 
2 0 0 0 0 0 1 1 0 -0 -0 1 0 67.330319882165739
Polygon3D 0
PolygonOnTriangulations 0
Surfaces 3
2 0 0 0 0 0 1 1 0 -0 -0 1 0 67.330319882165739
1 0 0 224.57054920449963 0 0 1 1 0 -0 -0 1 0 
1 0 0 0 0 0 1 1 0 -0 -0 1 0 
Triangulations 0

TShapes 13
Ve
1e-07
67.3303198821657 -1.64911721458523e-14 224.5705492045
0 0

0101101
*
Ed
 1e-07 1 1 0
1  1 0 0 6.28318530717959
2  1 1 0 0 6.28318530717959
2  2 2 0 0 6.28318530717959
0

0101000
+13 0 -13 0 *
Ve
1e-07
67.3303198821657 -1.64911721458523e-14 0
0 0

0101101
*
Ed
 1e-07 1 1 0
1  2 0 0 224.5705492045
3  3 4CN 1 0 0 224.5705492045
0

0101000
-13 0 +11 0 *
Ed
 1e-07 1 1 0
1  3 0 0 6.28318530717959
2  5 1 0 0 6.28318530717959
2  6 3 0 0 6.28318530717959
0

0101000
+11 0 -11 0 *
Wi

0101100
-12 0 +10 0 +9 0 -10 0 *
Fa
0  1e-07 1 0

0111000
+8 0 *
Wi

0101100
+12 0 *
Fa
0  1e-07 2 0

0111000
+6 0 *
Wi

0101100
-9 0 *
Fa
0  1e-07 3 0

0111000
-4 0 *
Sh

0101100
+7 0 +5 0 -3 0 *
So

1100000
+2 0 *

+1 1 