DBRep_DrawableShape

CASCADE Topology V1, (c) Matra-Datavision
Locations 1
1
0.320202926694879 -0.922702413983742 -0.214686611051106 -38.8150151197932 
0.839324301963862 0.381401956119158 -0.387385162340217 1.38487020659566 
0.439323117840287 -0.0561498272219484 0.896572582133781 -16.4630184527297 
Curve2ds 6
1 0 146.26064362927832 1 0 
2 0 0 1 0 -0 1 34.17644202358521
1 6.2831853071795862 -0 0 1 
1 0 -0 0 1 
1 0 0 1 0 
2 0 0 1 0 -0 1 34.17644202358521
Curves 3
2 0 0 146.26064362927832 0 0 1 1 0 -0 -0 1 0 34.17644202358521
1 34.17644202358521 -8.3708140660857433e-15 0 0 0 1 
2 0 0 0 0 0 1 1 0 -0 -0 1 0 34.17644202358521
Polygon3D 0
PolygonOnTriangulations 0
Surfaces 3
2 0 0 0 0 0 1 1 0 -0 -0 1 0 34.17644202358521
1 0 0 146.26064362927832 0 0 1 1 0 -0 -0 1 0 
1 0 0 0 0 0 1 1 0 -0 -0 1 0 
Triangulations 0

TShapes 13
Ve
1e-07
34.1764420235852 -8.37081406608574e-15 146.260643629278
0 0

0101101
*
Ed
 1e-07 1 1 0
1  1 0 0 6.28318530717959
2  1 1 0 0 6.28318530717959
2  2 2 0 0 6.28318530717959
0

0101000
+13 0 -13 0 *
Ve
1e-07
34.1764420235852 -8.37081406608574e-15 0
0 0

0101101
*
Ed
 1e-07 1 1 0
1  2 0 0 146.260643629278
3  3 4CN 1 0 0 146.260643629278
0

0101000
-13 0 +11 0 *
Ed
 1e-07 1 1 0
1  3 0 0 6.28318530717959
2  5 1 0 0 6.28318530717959
2  6 3 0 0 6.28318530717959
0

0101000
+11 0 -11 0 *
Wi

0101100
-12 0 +10 0 +9 0 -10 0 *
Fa
0  1e-07 1 0

0111000
+8 0 *
Wi

0101100
+12 0 *
Fa
0  1e-07 2 0

0111000
+6 0 *
Wi

0101100
-9 0 *
Fa
0  1e-07 3 0

0111000
-4 0 *
Sh

0101100
+7 0 +5 0 -3 0 *
So

1100000
+2 0 *

+1 1 