DBRep_DrawableShape

CASCADE Topology V1, (c) Matra-Datavision
Locations 1
1
0.0903525253395137 0.0949601355735561 0.991372278115857 -37.1268857170796 
-0.715324945625202 -0.686413958086727 0.130943118605051 32.6008328887859 
0.69292614565412 -0.720984362379356 0.00590811927428895 -34.5733824815304 
Curve2ds 6
1 0 180.43989769115169 1 0 
2 0 0 1 0 -0 1 54.939645558951995
1 6.2831853071795862 -0 0 1 
1 0 -0 0 1 
1 0 0 1 0 
2 0 0 1 0 -0 1 54.939645558951995
Curves 3
2 0 0 180.43989769115169 0 0 1 1 0 -0 -0 1 0 54.939645558951995
1 54.939645558951995 -1.3456332216012132e-14 0 0 0 1 
2 0 0 0 0 0 1 1 0 -0 -0 1 0 54.939645558951995
Polygon3D 0
PolygonOnTriangulations 0
Surfaces 3
2 0 0 0 0 0 1 1 0 -0 -0 1 0 54.939645558951995
1 0 0 180.43989769115169 0 0 1 1 0 -0 -0 1 0 
1 0 0 0 0 0 1 1 0 -0 -0 1 0 
Triangulations 0

TShapes 13
Ve
1e-07
54.939645558952 -1.34563322160121e-14 180.439897691152
0 0

0101101
*
Ed
 1e-07 1 1 0
1  1 0 0 6.28318530717959
2  1 1 0 0 6.28318530717959
2  2 2 0 0 6.28318530717959
0

0101000
+13 0 -13 0 *
Ve
1e-07
54.939645558952 -1.34563322160121e-14 0
0 0

0101101
*
Ed
 1e-07 1 1 0
1  2 0 0 180.439897691152
3  3 4CN 1 0 0 180.439897691152
0

0101000
-13 0 +11 0 *
Ed
 1e-07 1 1 0
1  3 0 0 6.28318530717959
2  5 1 0 0 6.28318530717959
2  6 3 0 0 6.28318530717959
0

0101000
+11 0 -11 0 *
Wi

0101100
-12 0 +10 0 +9 0 -10 0 *
Fa
0  1e-07 1 0

0111000
+8 0 *
Wi

0101100
+12 0 *
Fa
0  1e-07 2 0

0111000
+6 0 *
Wi

0101100
-9 0 *
Fa
0  1e-07 3 0

0111000
-4 0 *
Sh

0101100
+7 0 +5 0 -3 0 *
So

1100000
+2 0 *

+1 1 