DBRep_DrawableShape

CASCADE Topology V1, (c) Matra-Datavision
Locations 1
1
0.700595004022532 -0.704300618822316 0.114574336852419 41.8637705150096 
0.6562123006117 0.69899790256808 0.28423115369594 13.0932613645047 
-0.280271398584601 -0.12394583708995 0.951885167761061 19.219419826124 
Curve2ds 6
1 0 82.516098763785891 1 0 
2 0 0 1 0 -0 1 79.716357343637412
1 6.2831853071795862 -0 0 1 
1 0 -0 0 1 
1 0 0 1 0 
2 0 0 1 0 -0 1 79.716357343637412
Curves 3
2 0 0 82.516098763785891 0 0 1 1 0 -0 -0 1 0 79.716357343637412
1 79.716357343637412 -1.9524876372114434e-14 0 0 0 1 
2 0 0 0 0 0 1 1 0 -0 -0 1 0 79.716357343637412
Polygon3D 0
PolygonOnTriangulations 0
Surfaces 3
2 0 0 0 0 0 1 1 0 -0 -0 1 0 79.716357343637412
1 0 0 82.516098763785891 0 0 1 1 0 -0 -0 1 0 
1 0 0 0 0 0 1 1 0 -0 -0 1 0 
Triangulations 0

TShapes 13
Ve
1e-07
79.7163573436374 -1.95248763721144e-14 82.5160987637859
0 0

0101101
*
Ed
 1e-07 1 1 0
1  1 0 0 6.28318530717959
2  1 1 0 0 6.28318530717959
2  2 2 0 0 6.28318530717959
0

0101000
+13 0 -13 0 *
Ve
1e-07
79.7163573436374 -1.95248763721144e-14 0
0 0

0101101
*
Ed
 1e-07 1 1 0
1  2 0 0 82.5160987637859
3  3 4CN 1 0 0 82.5160987637859
0

0101000
-13 0 +11 0 *
Ed
 1e-07 1 1 0
1  3 0 0 6.28318530717959
2  5 1 0 0 6.28318530717959
2  6 3 0 0 6.28318530717959
0

0101000
+11 0 -11 0 *
Wi

0101100
-12 0 +10 0 +9 0 -10 0 *
Fa
0  1e-07 1 0

0111000
+8 0 *
Wi

0101100
+12 0 *
Fa
0  1e-07 2 0

0111000
+6 0 *
Wi

0101100
-9 0 *
Fa
0  1e-07 3 0

0111000
-4 0 *
Sh

0101100
+7 0 +5 0 -3 0 *
So

1100000
+2 0 *

+1 1 