DBRep_DrawableShape

CASCADE Topology V1, (c) Matra-Datavision
Locations 1
1
0.536384033920204 -0.728480117654499 0.426155941337883 -39.7223145136162 
0.843897370560418 0.46974599413457 -0.259183195743353 46.3010333840658 
-0.0113752413909305 0.498653606400889 0.866726707045933 -7.52198657801343 
Curve2ds 6
1 0 144.82485824233709 1 0 
2 0 0 1 0 -0 1 98.885736928409699
1 6.2831853071795862 -0 0 1 
1 0 -0 0 1 
1 0 0 1 0 
2 0 0 1 0 -0 1 98.885736928409699
Curves 3
2 0 0 144.82485824233709 0 0 1 1 0 -0 -0 1 0 98.885736928409699
1 98.885736928409699 -2.4220020242140832e-14 0 0 0 1 
2 0 0 0 0 0 1 1 0 -0 -0 1 0 98.885736928409699
Polygon3D 0
PolygonOnTriangulations 0
Surfaces 3
2 0 0 0 0 0 1 1 0 -0 -0 1 0 98.885736928409699
1 0 0 144.82485824233709 0 0 1 1 0 -0 -0 1 0 
1 0 0 0 0 0 1 1 0 -0 -0 1 0 
Triangulations 0

TShapes 13
Ve
1e-07
98.8857369284097 -2.42200202421408e-14 144.824858242337
0 0

0101101
*
Ed
 1e-07 1 1 0
1  1 0 0 6.28318530717959
2  1 1 0 0 6.28318530717959
2  2 2 0 0 6.28318530717959
0

0101000
+13 0 -13 0 *
Ve
1e-07
98.8857369284097 -2.42200202421408e-14 0
0 0

0101101
*
Ed
 1e-07 1 1 0
1  2 0 0 144.824858242337
3  3 4CN 1 0 0 144.824858242337
0

0101000
-13 0 +11 0 *
Ed
 1e-07 1 1 0
1  3 0 0 6.28318530717959
2  5 1 0 0 6.28318530717959
2  6 3 0 0 6.28318530717959
0

0101000
+11 0 -11 0 *
Wi

0101100
-12 0 +10 0 +9 0 -10 0 *
Fa
0  1e-07 1 0

0111000
+8 0 *
Wi

0101100
+12 0 *
Fa
0  1e-07 2 0

0111000
+6 0 *
Wi

0101100
-9 0 *
Fa
0  1e-07 3 0

0111000
-4 0 *
Sh

0101100
+7 0 +5 0 -3 0 *
So

1100000
+2 0 *

+1 1 