DBRep_DrawableShape

CASCADE Topology V1, (c) Matra-Datavision
Locations 1
1
0.676858889713811 0.578139508716301 -0.455649812769259 -3.66583149945799 
-0.719440799880371 0.650555361638277 -0.243274858773329 -7.55722511833367 
0.155778621392278 0.492475816568656 0.856271330369152 -20.412826734713 
Curve2ds 6
1 0 128.67128323732464 1 0 
2 0 0 1 0 -0 1 76.32056885865876
1 6.2831853071795862 -0 0 1 
1 0 -0 0 1 
1 0 0 1 0 
2 0 0 1 0 -0 1 76.32056885865876
Curves 3
2 0 0 128.67128323732464 0 0 1 1 0 -0 -0 1 0 76.32056885865876
1 76.32056885865876 -1.8693148072372322e-14 0 0 0 1 
2 0 0 0 0 0 1 1 0 -0 -0 1 0 76.32056885865876
Polygon3D 0
PolygonOnTriangulations 0
Surfaces 3
2 0 0 0 0 0 1 1 0 -0 -0 1 0 76.32056885865876
1 0 0 128.67128323732464 0 0 1 1 0 -0 -0 1 0 
1 0 0 0 0 0 1 1 0 -0 -0 1 0 
Triangulations 0

TShapes 13
Ve
1e-07
76.3205688586588 -1.86931480723723e-14 128.671283237325
0 0

0101101
*
Ed
 1e-07 1 1 0
1  1 0 0 6.28318530717959
2  1 1 0 0 6.28318530717959
2  2 2 0 0 6.28318530717959
0

0101000
+13 0 -13 0 *
Ve
1e-07
76.3205688586588 -1.86931480723723e-14 0
0 0

0101101
*
Ed
 1e-07 1 1 0
1  2 0 0 128.671283237325
3  3 4CN 1 0 0 128.671283237325
0

0101000
-13 0 +11 0 *
Ed
 1e-07 1 1 0
1  3 0 0 6.28318530717959
2  5 1 0 0 6.28318530717959
2  6 3 0 0 6.28318530717959
0

0101000
+11 0 -11 0 *
Wi

0101100
-12 0 +10 0 +9 0 -10 0 *
Fa
0  1e-07 1 0

0111000
+8 0 *
Wi

0101100
+12 0 *
Fa
0  1e-07 2 0

0111000
+6 0 *
Wi

0101100
-9 0 *
Fa
0  1e-07 3 0

0111000
-4 0 *
Sh

0101100
+7 0 +5 0 -3 0 *
So

1100000
+2 0 *

+1 1 