DBRep_DrawableShape

CASCADE Topology V1, (c) Matra-Datavision
Locations 1
1
0.897446715173283 -0.38216807892594 -0.220311036661218 -36.5357822766481 
-0.107335519450559 0.295236724632374 -0.949375775282173 46.5087866815437 
0.427865025082634 0.875661370552798 0.223939019450905 -17.4119883555433 
Curve2ds 6
1 0 180.73080752822344 1 0 
2 0 0 1 0 -0 1 35.801211200124833
1 6.2831853071795862 -0 0 1 
1 0 -0 0 1 
1 0 0 1 0 
2 0 0 1 0 -0 1 35.801211200124833
Curves 3
2 0 0 180.73080752822344 0 0 1 1 0 -0 -0 1 0 35.801211200124833
1 35.801211200124833 -8.7687677403662503e-15 0 0 0 1 
2 0 0 0 0 0 1 1 0 -0 -0 1 0 35.801211200124833
Polygon3D 0
PolygonOnTriangulations 0
Surfaces 3
2 0 0 0 0 0 1 1 0 -0 -0 1 0 35.801211200124833
1 0 0 180.73080752822344 0 0 1 1 0 -0 -0 1 0 
1 0 0 0 0 0 1 1 0 -0 -0 1 0 
Triangulations 0

TShapes 13
Ve
1e-07
35.8012112001248 -8.76876774036625e-15 180.730807528223
0 0

0101101
*
Ed
 1e-07 1 1 0
1  1 0 0 6.28318530717959
2  1 1 0 0 6.28318530717959
2  2 2 0 0 6.28318530717959
0

0101000
+13 0 -13 0 *
Ve
1e-07
35.8012112001248 -8.76876774036625e-15 0
0 0

0101101
*
Ed
 1e-07 1 1 0
1  2 0 0 180.730807528223
3  3 4CN 1 0 0 180.730807528223
0

0101000
-13 0 +11 0 *
Ed
 1e-07 1 1 0
1  3 0 0 6.28318530717959
2  5 1 0 0 6.28318530717959
2  6 3 0 0 6.28318530717959
0

0101000
+11 0 -11 0 *
Wi

0101100
-12 0 +10 0 +9 0 -10 0 *
Fa
0  1e-07 1 0

0111000
+8 0 *
Wi

0101100
+12 0 *
Fa
0  1e-07 2 0

0111000
+6 0 *
Wi

0101100
-9 0 *
Fa
0  1e-07 3 0

0111000
-4 0 *
Sh

0101100
+7 0 +5 0 -3 0 *
So

1100000
+2 0 *

+1 1 