DBRep_DrawableShape

CASCADE Topology V1, (c) Matra-Datavision
Locations 1
1
0.329098009401154 -0.445348248571032 0.832682074805812 36.8642994256137 
-0.218518614556467 0.821950243799853 0.52597282421213 -10.1529167391841 
-0.918664310453236 -0.355053142799886 0.173185306788434 -36.2209593548927 
Curve2ds 6
1 0 246.64939311423009 1 0 
2 0 0 1 0 -0 1 93.454560469164477
1 6.2831853071795862 -0 0 1 
1 0 -0 0 1 
1 0 0 1 0 
2 0 0 1 0 -0 1 93.454560469164477
Curves 3
2 0 0 246.64939311423009 0 0 1 1 0 -0 -0 1 0 93.454560469164477
1 93.454560469164477 -2.288976566885701e-14 0 0 0 1 
2 0 0 0 0 0 1 1 0 -0 -0 1 0 93.454560469164477
Polygon3D 0
PolygonOnTriangulations 0
Surfaces 3
2 0 0 0 0 0 1 1 0 -0 -0 1 0 93.454560469164477
1 0 0 246.64939311423009 0 0 1 1 0 -0 -0 1 0 
1 0 0 0 0 0 1 1 0 -0 -0 1 0 
Triangulations 0

TShapes 13
Ve
1e-07
93.4545604691645 -2.2889765668857e-14 246.64939311423
0 0

0101101
*
Ed
 1e-07 1 1 0
1  1 0 0 6.28318530717959
2  1 1 0 0 6.28318530717959
2  2 2 0 0 6.28318530717959
0

0101000
+13 0 -13 0 *
Ve
1e-07
93.4545604691645 -2.2889765668857e-14 0
0 0

0101101
*
Ed
 1e-07 1 1 0
1  2 0 0 246.64939311423
3  3 4CN 1 0 0 246.64939311423
0

0101000
-13 0 +11 0 *
Ed
 1e-07 1 1 0
1  3 0 0 6.28318530717959
2  5 1 0 0 6.28318530717959
2  6 3 0 0 6.28318530717959
0

0101000
+11 0 -11 0 *
Wi

0101100
-12 0 +10 0 +9 0 -10 0 *
Fa
0  1e-07 1 0

0111000
+8 0 *
Wi

0101100
+12 0 *
Fa
0  1e-07 2 0

0111000
+6 0 *
Wi

0101100
-9 0 *
Fa
0  1e-07 3 0

0111000
-4 0 *
Sh

0101100
+7 0 +5 0 -3 0 *
So

1100000
+2 0 *

+1 1 