DBRep_DrawableShape

CASCADE Topology V1, (c) Matra-Datavision
Locations 1
1
0.130249639734562 0.11299609964323 0.985021275310556 5.58648408642119 
-0.971634063857404 -0.183240463975561 0.14949976024719 -37.4316845975604 
0.197388645319235 -0.976552514628598 0.0859238550787765 11.6337386033917 
Curve2ds 6
1 0 190.55574864760877 1 0 
2 0 0 1 0 -0 1 79.390777819546287
1 6.2831853071795862 -0 0 1 
1 0 -0 0 1 
1 0 0 1 0 
2 0 0 1 0 -0 1 79.390777819546287
Curves 3
2 0 0 190.55574864760877 0 0 1 1 0 -0 -0 1 0 79.390777819546287
1 79.390777819546287 -1.9445132387705209e-14 0 0 0 1 
2 0 0 0 0 0 1 1 0 -0 -0 1 0 79.390777819546287
Polygon3D 0
PolygonOnTriangulations 0
Surfaces 3
2 0 0 0 0 0 1 1 0 -0 -0 1 0 79.390777819546287
1 0 0 190.55574864760877 0 0 1 1 0 -0 -0 1 0 
1 0 0 0 0 0 1 1 0 -0 -0 1 0 
Triangulations 0

TShapes 13
Ve
1e-07
79.3907778195463 -1.94451323877052e-14 190.555748647609
0 0

0101101
*
Ed
 1e-07 1 1 0
1  1 0 0 6.28318530717959
2  1 1 0 0 6.28318530717959
2  2 2 0 0 6.28318530717959
0

0101000
+13 0 -13 0 *
Ve
1e-07
79.3907778195463 -1.94451323877052e-14 0
0 0

0101101
*
Ed
 1e-07 1 1 0
1  2 0 0 190.555748647609
3  3 4CN 1 0 0 190.555748647609
0

0101000
-13 0 +11 0 *
Ed
 1e-07 1 1 0
1  3 0 0 6.28318530717959
2  5 1 0 0 6.28318530717959
2  6 3 0 0 6.28318530717959
0

0101000
+11 0 -11 0 *
Wi

0101100
-12 0 +10 0 +9 0 -10 0 *
Fa
0  1e-07 1 0

0111000
+8 0 *
Wi

0101100
+12 0 *
Fa
0  1e-07 2 0

0111000
+6 0 *
Wi

0101100
-9 0 *
Fa
0  1e-07 3 0

0111000
-4 0 *
Sh

0101100
+7 0 +5 0 -3 0 *
So

1100000
+2 0 *

+1 1 