DBRep_DrawableShape

CASCADE Topology V1, (c) Matra-Datavision
Locations 1
1
0.546271030674532 -0.282432989989397 0.788555367245341 20.6826532365538 
0.525579127734261 0.848615672927185 -0.0601499804857325 -26.4670560276347 
-0.652192104778859 0.44730643392197 0.612015042818501 -8.79450856503923 
Curve2ds 6
1 0 123.10718555042131 1 0 
2 0 0 1 0 -0 1 17.731241026809581
1 6.2831853071795862 -0 0 1 
1 0 -0 0 1 
1 0 0 1 0 
2 0 0 1 0 -0 1 17.731241026809581
Curves 3
2 0 0 123.10718555042131 0 0 1 1 0 -0 -0 1 0 17.731241026809581
1 17.731241026809581 -4.3429015136785161e-15 0 0 0 1 
2 0 0 0 0 0 1 1 0 -0 -0 1 0 17.731241026809581
Polygon3D 0
PolygonOnTriangulations 0
Surfaces 3
2 0 0 0 0 0 1 1 0 -0 -0 1 0 17.731241026809581
1 0 0 123.10718555042131 0 0 1 1 0 -0 -0 1 0 
1 0 0 0 0 0 1 1 0 -0 -0 1 0 
Triangulations 0

TShapes 13
Ve
1e-07
17.7312410268096 -4.34290151367852e-15 123.107185550421
0 0

0101101
*
Ed
 1e-07 1 1 0
1  1 0 0 6.28318530717959
2  1 1 0 0 6.28318530717959
2  2 2 0 0 6.28318530717959
0

0101000
+13 0 -13 0 *
Ve
1e-07
17.7312410268096 -4.34290151367852e-15 0
0 0

0101101
*
Ed
 1e-07 1 1 0
1  2 0 0 123.107185550421
3  3 4CN 1 0 0 123.107185550421
0

0101000
-13 0 +11 0 *
Ed
 1e-07 1 1 0
1  3 0 0 6.28318530717959
2  5 1 0 0 6.28318530717959
2  6 3 0 0 6.28318530717959
0

0101000
+11 0 -11 0 *
Wi

0101100
-12 0 +10 0 +9 0 -10 0 *
Fa
0  1e-07 1 0

0111000
+8 0 *
Wi

0101100
+12 0 *
Fa
0  1e-07 2 0

0111000
+6 0 *
Wi

0101100
-9 0 *
Fa
0  1e-07 3 0

0111000
-4 0 *
Sh

0101100
+7 0 +5 0 -3 0 *
So

1100000
+2 0 *

+1 1 