DBRep_DrawableShape

CASCADE Topology V1, (c) Matra-Datavision
Locations 1
1
0.430317877207029 -0.210715004664174 -0.877738976783766 48.7708210433058 
0.830600874123867 -0.288312687312427 0.476422063132423 0.771430269614626 
-0.353452560410452 -0.934063692230922 0.0509539634889404 -27.106981044212 
Curve2ds 6
1 0 231.65899070896052 1 0 
2 0 0 1 0 -0 1 26.997711250099123
1 6.2831853071795862 -0 0 1 
1 0 -0 0 1 
1 0 0 1 0 
2 0 0 1 0 -0 1 26.997711250099123
Curves 3
2 0 0 231.65899070896052 0 0 1 1 0 -0 -0 1 0 26.997711250099123
1 26.997711250099123 -6.6125321333476754e-15 0 0 0 1 
2 0 0 0 0 0 1 1 0 -0 -0 1 0 26.997711250099123
Polygon3D 0
PolygonOnTriangulations 0
Surfaces 3
2 0 0 0 0 0 1 1 0 -0 -0 1 0 26.997711250099123
1 0 0 231.65899070896052 0 0 1 1 0 -0 -0 1 0 
1 0 0 0 0 0 1 1 0 -0 -0 1 0 
Triangulations 0

TShapes 13
Ve
1e-07
26.9977112500991 -6.61253213334768e-15 231.658990708961
0 0

0101101
*
Ed
 1e-07 1 1 0
1  1 0 0 6.28318530717959
2  1 1 0 0 6.28318530717959
2  2 2 0 0 6.28318530717959
0

0101000
+13 0 -13 0 *
Ve
1e-07
26.9977112500991 -6.61253213334768e-15 0
0 0

0101101
*
Ed
 1e-07 1 1 0
1  2 0 0 231.658990708961
3  3 4CN 1 0 0 231.658990708961
0

0101000
-13 0 +11 0 *
Ed
 1e-07 1 1 0
1  3 0 0 6.28318530717959
2  5 1 0 0 6.28318530717959
2  6 3 0 0 6.28318530717959
0

0101000
+11 0 -11 0 *
Wi

0101100
-12 0 +10 0 +9 0 -10 0 *
Fa
0  1e-07 1 0

0111000
+8 0 *
Wi

0101100
+12 0 *
Fa
0  1e-07 2 0

0111000
+6 0 *
Wi

0101100
-9 0 *
Fa
0  1e-07 3 0

0111000
-4 0 *
Sh

0101100
+7 0 +5 0 -3 0 *
So

1100000
+2 0 *

+1 1 