DBRep_DrawableShape

CASCADE Topology V1, (c) Matra-Datavision
Locations 1
1
0.8230708125239 0.566307898553798 0.0430093199996149 -18.2141191185159 
-0.256948038656229 0.303770878381196 0.917442618847759 -24.7462514092395 
0.506490022608507 -0.766171402156918 0.395536647499239 23.0431434906473 
Curve2ds 6
1 0 141.13059860933902 1 0 
2 0 0 1 0 -0 1 61.000617793246924
1 6.2831853071795862 -0 0 1 
1 0 -0 0 1 
1 0 0 1 0 
2 0 0 1 0 -0 1 61.000617793246924
Curves 3
2 0 0 141.13059860933902 0 0 1 1 0 -0 -0 1 0 61.000617793246924
1 61.000617793246924 -1.4940842265302184e-14 0 0 0 1 
2 0 0 0 0 0 1 1 0 -0 -0 1 0 61.000617793246924
Polygon3D 0
PolygonOnTriangulations 0
Surfaces 3
2 0 0 0 0 0 1 1 0 -0 -0 1 0 61.000617793246924
1 0 0 141.13059860933902 0 0 1 1 0 -0 -0 1 0 
1 0 0 0 0 0 1 1 0 -0 -0 1 0 
Triangulations 0

TShapes 13
Ve
1e-07
61.0006177932469 -1.49408422653022e-14 141.130598609339
0 0

0101101
*
Ed
 1e-07 1 1 0
1  1 0 0 6.28318530717959
2  1 1 0 0 6.28318530717959
2  2 2 0 0 6.28318530717959
0

0101000
+13 0 -13 0 *
Ve
1e-07
61.0006177932469 -1.49408422653022e-14 0
0 0

0101101
*
Ed
 1e-07 1 1 0
1  2 0 0 141.130598609339
3  3 4CN 1 0 0 141.130598609339
0

0101000
-13 0 +11 0 *
Ed
 1e-07 1 1 0
1  3 0 0 6.28318530717959
2  5 1 0 0 6.28318530717959
2  6 3 0 0 6.28318530717959
0

0101000
+11 0 -11 0 *
Wi

0101100
-12 0 +10 0 +9 0 -10 0 *
Fa
0  1e-07 1 0

0111000
+8 0 *
Wi

0101100
+12 0 *
Fa
0  1e-07 2 0

0111000
+6 0 *
Wi

0101100
-9 0 *
Fa
0  1e-07 3 0

0111000
-4 0 *
Sh

0101100
+7 0 +5 0 -3 0 *
So

1100000
+2 0 *

+1 1 