DBRep_DrawableShape

CASCADE Topology V1, (c) Matra-Datavision
Locations 1
1
0.640558581712517 0.0769676202598124 -0.764042334446195 -49.9316191619064 
0.153848891854308 0.961928261388943 0.225886118246446 -31.3899562398023 
0.752339831372532 -0.262240358016815 0.604330019738853 -40.476340270347 
Curve2ds 6
1 0 129.71724224788383 1 0 
2 0 0 1 0 -0 1 88.831695814665537
1 6.2831853071795862 -0 0 1 
1 0 -0 0 1 
1 0 0 1 0 
2 0 0 1 0 -0 1 88.831695814665537
Curves 3
2 0 0 129.71724224788383 0 0 1 1 0 -0 -0 1 0 88.831695814665537
1 88.831695814665537 -2.1757490388452295e-14 0 0 0 1 
2 0 0 0 0 0 1 1 0 -0 -0 1 0 88.831695814665537
Polygon3D 0
PolygonOnTriangulations 0
Surfaces 3
2 0 0 0 0 0 1 1 0 -0 -0 1 0 88.831695814665537
1 0 0 129.71724224788383 0 0 1 1 0 -0 -0 1 0 
1 0 0 0 0 0 1 1 0 -0 -0 1 0 
Triangulations 0

TShapes 13
Ve
1e-07
88.8316958146655 -2.17574903884523e-14 129.717242247884
0 0

0101101
*
Ed
 1e-07 1 1 0
1  1 0 0 6.28318530717959
2  1 1 0 0 6.28318530717959
2  2 2 0 0 6.28318530717959
0

0101000
+13 0 -13 0 *
Ve
1e-07
88.8316958146655 -2.17574903884523e-14 0
0 0

0101101
*
Ed
 1e-07 1 1 0
1  2 0 0 129.717242247884
3  3 4CN 1 0 0 129.717242247884
0

0101000
-13 0 +11 0 *
Ed
 1e-07 1 1 0
1  3 0 0 6.28318530717959
2  5 1 0 0 6.28318530717959
2  6 3 0 0 6.28318530717959
0

0101000
+11 0 -11 0 *
Wi

0101100
-12 0 +10 0 +9 0 -10 0 *
Fa
0  1e-07 1 0

0111000
+8 0 *
Wi

0101100
+12 0 *
Fa
0  1e-07 2 0

0111000
+6 0 *
Wi

0101100
-9 0 *
Fa
0  1e-07 3 0

0111000
-4 0 *
Sh

0101100
+7 0 +5 0 -3 0 *
So

1100000
+2 0 *

+1 1 