DBRep_DrawableShape

CASCADE Topology V1, (c) Matra-Datavision
Locations 1
1
0.659316574258674 0.152354086914463 -0.73626753772543 0.283443879881773 
-0.71786565520439 -0.16358813696239 -0.676688866853258 20.4042935961205 
-0.223540949237 0.974693363907663 0.00151339637451522 -16.5753191254571 
Curve2ds 6
1 0 125.3416303595307 1 0 
2 0 0 1 0 -0 1 74.494741552910909
1 6.2831853071795862 -0 0 1 
1 0 -0 0 1 
1 0 0 1 0 
2 0 0 1 0 -0 1 74.494741552910909
Curves 3
2 0 0 125.3416303595307 0 0 1 1 0 -0 -0 1 0 74.494741552910909
1 74.494741552910909 -1.8245949359216334e-14 0 0 0 1 
2 0 0 0 0 0 1 1 0 -0 -0 1 0 74.494741552910909
Polygon3D 0
PolygonOnTriangulations 0
Surfaces 3
2 0 0 0 0 0 1 1 0 -0 -0 1 0 74.494741552910909
1 0 0 125.3416303595307 0 0 1 1 0 -0 -0 1 0 
1 0 0 0 0 0 1 1 0 -0 -0 1 0 
Triangulations 0

TShapes 13
Ve
1e-07
74.4947415529109 -1.82459493592163e-14 125.341630359531
0 0

0101101
*
Ed
 1e-07 1 1 0
1  1 0 0 6.28318530717959
2  1 1 0 0 6.28318530717959
2  2 2 0 0 6.28318530717959
0

0101000
+13 0 -13 0 *
Ve
1e-07
74.4947415529109 -1.82459493592163e-14 0
0 0

0101101
*
Ed
 1e-07 1 1 0
1  2 0 0 125.341630359531
3  3 4CN 1 0 0 125.341630359531
0

0101000
-13 0 +11 0 *
Ed
 1e-07 1 1 0
1  3 0 0 6.28318530717959
2  5 1 0 0 6.28318530717959
2  6 3 0 0 6.28318530717959
0

0101000
+11 0 -11 0 *
Wi

0101100
-12 0 +10 0 +9 0 -10 0 *
Fa
0  1e-07 1 0

0111000
+8 0 *
Wi

0101100
+12 0 *
Fa
0  1e-07 2 0

0111000
+6 0 *
Wi

0101100
-9 0 *
Fa
0  1e-07 3 0

0111000
-4 0 *
Sh

0101100
+7 0 +5 0 -3 0 *
So

1100000
+2 0 *

+1 1 