DBRep_DrawableShape

CASCADE Topology V1, (c) Matra-Datavision
Locations 1
1
0.318555279579369 -0.0526849925381033 -0.946439023610803 -21.1938357988408 
0.0438828129234738 0.998203365302115 -0.0407963261759618 -16.5265411692844 
0.946887972561714 -0.0285365215257934 0.320294917782307 18.0958582343836 
Curve2ds 6
1 0 207.00880136879681 1 0 
2 0 0 1 0 -0 1 60.009948249155144
1 6.2831853071795862 -0 0 1 
1 0 -0 0 1 
1 0 0 1 0 
2 0 0 1 0 -0 1 60.009948249155144
Curves 3
2 0 0 207.00880136879681 0 0 1 1 0 -0 -0 1 0 60.009948249155144
1 60.009948249155144 -1.4698198208065231e-14 0 0 0 1 
2 0 0 0 0 0 1 1 0 -0 -0 1 0 60.009948249155144
Polygon3D 0
PolygonOnTriangulations 0
Surfaces 3
2 0 0 0 0 0 1 1 0 -0 -0 1 0 60.009948249155144
1 0 0 207.00880136879681 0 0 1 1 0 -0 -0 1 0 
1 0 0 0 0 0 1 1 0 -0 -0 1 0 
Triangulations 0

TShapes 13
Ve
1e-07
60.0099482491551 -1.46981982080652e-14 207.008801368797
0 0

0101101
*
Ed
 1e-07 1 1 0
1  1 0 0 6.28318530717959
2  1 1 0 0 6.28318530717959
2  2 2 0 0 6.28318530717959
0

0101000
+13 0 -13 0 *
Ve
1e-07
60.0099482491551 -1.46981982080652e-14 0
0 0

0101101
*
Ed
 1e-07 1 1 0
1  2 0 0 207.008801368797
3  3 4CN 1 0 0 207.008801368797
0

0101000
-13 0 +11 0 *
Ed
 1e-07 1 1 0
1  3 0 0 6.28318530717959
2  5 1 0 0 6.28318530717959
2  6 3 0 0 6.28318530717959
0

0101000
+11 0 -11 0 *
Wi

0101100
-12 0 +10 0 +9 0 -10 0 *
Fa
0  1e-07 1 0

0111000
+8 0 *
Wi

0101100
+12 0 *
Fa
0  1e-07 2 0

0111000
+6 0 *
Wi

0101100
-9 0 *
Fa
0  1e-07 3 0

0111000
-4 0 *
Sh

0101100
+7 0 +5 0 -3 0 *
So

1100000
+2 0 *

+1 1 