DBRep_DrawableShape

CASCADE Topology V1, (c) Matra-Datavision
Locations 1
1
0.610328193100409 -0.0318093563991724 0.791509735601692 19.4124252262842 
0.714175089324631 0.454386350012507 -0.532434960075376 14.4235454479255 
-0.342714806355 0.890236603250946 0.300042249920361 -47.1685417059135 
Curve2ds 6
1 0 156.36213182796314 1 0 
2 0 0 1 0 -0 1 20.315621210012541
1 6.2831853071795862 -0 0 1 
1 0 -0 0 1 
1 0 0 1 0 
2 0 0 1 0 -0 1 20.315621210012541
Curves 3
2 0 0 156.36213182796314 0 0 1 1 0 -0 -0 1 0 20.315621210012541
1 20.315621210012541 -4.9758920975063871e-15 0 0 0 1 
2 0 0 0 0 0 1 1 0 -0 -0 1 0 20.315621210012541
Polygon3D 0
PolygonOnTriangulations 0
Surfaces 3
2 0 0 0 0 0 1 1 0 -0 -0 1 0 20.315621210012541
1 0 0 156.36213182796314 0 0 1 1 0 -0 -0 1 0 
1 0 0 0 0 0 1 1 0 -0 -0 1 0 
Triangulations 0

TShapes 13
Ve
1e-07
20.3156212100125 -4.97589209750639e-15 156.362131827963
0 0

0101101
*
Ed
 1e-07 1 1 0
1  1 0 0 6.28318530717959
2  1 1 0 0 6.28318530717959
2  2 2 0 0 6.28318530717959
0

0101000
+13 0 -13 0 *
Ve
1e-07
20.3156212100125 -4.97589209750639e-15 0
0 0

0101101
*
Ed
 1e-07 1 1 0
1  2 0 0 156.362131827963
3  3 4CN 1 0 0 156.362131827963
0

0101000
-13 0 +11 0 *
Ed
 1e-07 1 1 0
1  3 0 0 6.28318530717959
2  5 1 0 0 6.28318530717959
2  6 3 0 0 6.28318530717959
0

0101000
+11 0 -11 0 *
Wi

0101100
-12 0 +10 0 +9 0 -10 0 *
Fa
0  1e-07 1 0

0111000
+8 0 *
Wi

0101100
+12 0 *
Fa
0  1e-07 2 0

0111000
+6 0 *
Wi

0101100
-9 0 *
Fa
0  1e-07 3 0

0111000
-4 0 *
Sh

0101100
+7 0 +5 0 -3 0 *
So

1100000
+2 0 *

+1 1 