DBRep_DrawableShape

CASCADE Topology V1, (c) Matra-Datavision
Locations 1
1
0.0768653295229107 0.475650061991775 -0.876269787020273 -28.2164633506059 
-0.952535380338633 -0.224619180272908 -0.205481320456784 7.83644991822643 
-0.294564204071831 0.850472364266322 0.435808085398586 -30.6990986264194 
Curve2ds 6
1 0 127.56845700304018 1 0 
2 0 0 1 0 -0 1 38.358834867382619
1 6.2831853071795862 -0 0 1 
1 0 -0 0 1 
1 0 0 1 0 
2 0 0 1 0 -0 1 38.358834867382619
Curves 3
2 0 0 127.56845700304018 0 0 1 1 0 -0 -0 1 0 38.358834867382619
1 38.358834867382619 -9.3952048678724027e-15 0 0 0 1 
2 0 0 0 0 0 1 1 0 -0 -0 1 0 38.358834867382619
Polygon3D 0
PolygonOnTriangulations 0
Surfaces 3
2 0 0 0 0 0 1 1 0 -0 -0 1 0 38.358834867382619
1 0 0 127.56845700304018 0 0 1 1 0 -0 -0 1 0 
1 0 0 0 0 0 1 1 0 -0 -0 1 0 
Triangulations 0

TShapes 13
Ve
1e-07
38.3588348673826 -9.3952048678724e-15 127.56845700304
0 0

0101101
*
Ed
 1e-07 1 1 0
1  1 0 0 6.28318530717959
2  1 1 0 0 6.28318530717959
2  2 2 0 0 6.28318530717959
0

0101000
+13 0 -13 0 *
Ve
1e-07
38.3588348673826 -9.3952048678724e-15 0
0 0

0101101
*
Ed
 1e-07 1 1 0
1  2 0 0 127.56845700304
3  3 4CN 1 0 0 127.56845700304
0

0101000
-13 0 +11 0 *
Ed
 1e-07 1 1 0
1  3 0 0 6.28318530717959
2  5 1 0 0 6.28318530717959
2  6 3 0 0 6.28318530717959
0

0101000
+11 0 -11 0 *
Wi

0101100
-12 0 +10 0 +9 0 -10 0 *
Fa
0  1e-07 1 0

0111000
+8 0 *
Wi

0101100
+12 0 *
Fa
0  1e-07 2 0

0111000
+6 0 *
Wi

0101100
-9 0 *
Fa
0  1e-07 3 0

0111000
-4 0 *
Sh

0101100
+7 0 +5 0 -3 0 *
So

1100000
+2 0 *

+1 1 