DBRep_DrawableShape

CASCADE Topology V1, (c) Matra-Datavision
Locations 1
1
0.331868231920213 0.916286657062049 0.224237014634532 -23.8762248553124 
0.0205181821537128 0.230641229952261 -0.972822505520517 7.22182723040524 
-0.943102582354252 0.327449820791161 0.0577419606575445 -31.7775093734102 
Curve2ds 6
1 0 206.46146542286411 1 0 
2 0 0 1 0 -0 1 86.018692526689392
1 6.2831853071795862 -0 0 1 
1 0 -0 0 1 
1 0 0 1 0 
2 0 0 1 0 -0 1 86.018692526689392
Curves 3
2 0 0 206.46146542286411 0 0 1 1 0 -0 -0 1 0 86.018692526689392
1 86.018692526689392 -2.1068503293930104e-14 0 0 0 1 
2 0 0 0 0 0 1 1 0 -0 -0 1 0 86.018692526689392
Polygon3D 0
PolygonOnTriangulations 0
Surfaces 3
2 0 0 0 0 0 1 1 0 -0 -0 1 0 86.018692526689392
1 0 0 206.46146542286411 0 0 1 1 0 -0 -0 1 0 
1 0 0 0 0 0 1 1 0 -0 -0 1 0 
Triangulations 0

TShapes 13
Ve
1e-07
86.0186925266894 -2.10685032939301e-14 206.461465422864
0 0

0101101
*
Ed
 1e-07 1 1 0
1  1 0 0 6.28318530717959
2  1 1 0 0 6.28318530717959
2  2 2 0 0 6.28318530717959
0

0101000
+13 0 -13 0 *
Ve
1e-07
86.0186925266894 -2.10685032939301e-14 0
0 0

0101101
*
Ed
 1e-07 1 1 0
1  2 0 0 206.461465422864
3  3 4CN 1 0 0 206.461465422864
0

0101000
-13 0 +11 0 *
Ed
 1e-07 1 1 0
1  3 0 0 6.28318530717959
2  5 1 0 0 6.28318530717959
2  6 3 0 0 6.28318530717959
0

0101000
+11 0 -11 0 *
Wi

0101100
-12 0 +10 0 +9 0 -10 0 *
Fa
0  1e-07 1 0

0111000
+8 0 *
Wi

0101100
+12 0 *
Fa
0  1e-07 2 0

0111000
+6 0 *
Wi

0101100
-9 0 *
Fa
0  1e-07 3 0

0111000
-4 0 *
Sh

0101100
+7 0 +5 0 -3 0 *
So

1100000
+2 0 *

+1 1 