DBRep_DrawableShape

CASCADE Topology V1, (c) Matra-Datavision
Locations 1
1
0.218342057352819 0.0111029127839689 0.975809136726363 23.2674956614601 
-0.329941909984038 0.941889362873631 0.063109144674845 -20.1402266015472 
-0.918403550748266 -0.335739710837454 0.209317377538894 -30.7564379624565 
Curve2ds 6
1 0 88.217981959534612 1 0 
2 0 0 1 0 -0 1 37.095772110826481
1 6.2831853071795862 -0 0 1 
1 0 -0 0 1 
1 0 0 1 0 
2 0 0 1 0 -0 1 37.095772110826481
Curves 3
2 0 0 88.217981959534612 0 0 1 1 0 -0 -0 1 0 37.095772110826481
1 37.095772110826481 -9.0858437154846606e-15 0 0 0 1 
2 0 0 0 0 0 1 1 0 -0 -0 1 0 37.095772110826481
Polygon3D 0
PolygonOnTriangulations 0
Surfaces 3
2 0 0 0 0 0 1 1 0 -0 -0 1 0 37.095772110826481
1 0 0 88.217981959534612 0 0 1 1 0 -0 -0 1 0 
1 0 0 0 0 0 1 1 0 -0 -0 1 0 
Triangulations 0

TShapes 13
Ve
1e-07
37.0957721108265 -9.08584371548466e-15 88.2179819595346
0 0

0101101
*
Ed
 1e-07 1 1 0
1  1 0 0 6.28318530717959
2  1 1 0 0 6.28318530717959
2  2 2 0 0 6.28318530717959
0

0101000
+13 0 -13 0 *
Ve
1e-07
37.0957721108265 -9.08584371548466e-15 0
0 0

0101101
*
Ed
 1e-07 1 1 0
1  2 0 0 88.2179819595346
3  3 4CN 1 0 0 88.2179819595346
0

0101000
-13 0 +11 0 *
Ed
 1e-07 1 1 0
1  3 0 0 6.28318530717959
2  5 1 0 0 6.28318530717959
2  6 3 0 0 6.28318530717959
0

0101000
+11 0 -11 0 *
Wi

0101100
-12 0 +10 0 +9 0 -10 0 *
Fa
0  1e-07 1 0

0111000
+8 0 *
Wi

0101100
+12 0 *
Fa
0  1e-07 2 0

0111000
+6 0 *
Wi

0101100
-9 0 *
Fa
0  1e-07 3 0

0111000
-4 0 *
Sh

0101100
+7 0 +5 0 -3 0 *
So

1100000
+2 0 *

+1 1 