DBRep_DrawableShape

CASCADE Topology V1, (c) Matra-Datavision
Locations 1
1
0.0763105927220399 -0.288668661455634 0.954383097781925 30.4044688390774 
0.963943200313868 -0.223369105110516 -0.14463661172326 -41.5231496043713 
0.254931755587782 0.931008403171282 0.261214764547089 -3.68551301015354 
Curve2ds 6
1 0 53.963188229997996 1 0 
2 0 0 1 0 -0 1 96.831201903183526
1 6.2831853071795862 -0 0 1 
1 0 -0 0 1 
1 0 0 1 0 
2 0 0 1 0 -0 1 96.831201903183526
Curves 3
2 0 0 53.963188229997996 0 0 1 1 0 -0 -0 1 0 96.831201903183526
1 96.831201903183526 -2.3716804293664961e-14 0 0 0 1 
2 0 0 0 0 0 1 1 0 -0 -0 1 0 96.831201903183526
Polygon3D 0
PolygonOnTriangulations 0
Surfaces 3
2 0 0 0 0 0 1 1 0 -0 -0 1 0 96.831201903183526
1 0 0 53.963188229997996 0 0 1 1 0 -0 -0 1 0 
1 0 0 0 0 0 1 1 0 -0 -0 1 0 
Triangulations 0

TShapes 13
Ve
1e-07
96.8312019031835 -2.3716804293665e-14 53.963188229998
0 0

0101101
*
Ed
 1e-07 1 1 0
1  1 0 0 6.28318530717959
2  1 1 0 0 6.28318530717959
2  2 2 0 0 6.28318530717959
0

0101000
+13 0 -13 0 *
Ve
1e-07
96.8312019031835 -2.3716804293665e-14 0
0 0

0101101
*
Ed
 1e-07 1 1 0
1  2 0 0 53.963188229998
3  3 4CN 1 0 0 53.963188229998
0

0101000
-13 0 +11 0 *
Ed
 1e-07 1 1 0
1  3 0 0 6.28318530717959
2  5 1 0 0 6.28318530717959
2  6 3 0 0 6.28318530717959
0

0101000
+11 0 -11 0 *
Wi

0101100
-12 0 +10 0 +9 0 -10 0 *
Fa
0  1e-07 1 0

0111000
+8 0 *
Wi

0101100
+12 0 *
Fa
0  1e-07 2 0

0111000
+6 0 *
Wi

0101100
-9 0 *
Fa
0  1e-07 3 0

0111000
-4 0 *
Sh

0101100
+7 0 +5 0 -3 0 *
So

1100000
+2 0 *

+1 1 