DBRep_DrawableShape

CASCADE Topology V1, (c) Matra-Datavision
Locations 1
1
0.191552146373588 -0.528710111542834 0.826905915550273 -25.694356138002 
0.812778980321094 -0.386826014073487 -0.435609875902993 -0.329131583681594 
0.550180065403932 0.755533753573182 0.35562711207632 12.9827886266461 
Curve2ds 6
1 0 174.06462613500753 1 0 
2 0 0 1 0 -0 1 71.853526624789311
1 6.2831853071795862 -0 0 1 
1 0 -0 0 1 
1 0 0 1 0 
2 0 0 1 0 -0 1 71.853526624789311
Curves 3
2 0 0 174.06462613500753 0 0 1 1 0 -0 -0 1 0 71.853526624789311
1 71.853526624789311 -1.7599038277699469e-14 0 0 0 1 
2 0 0 0 0 0 1 1 0 -0 -0 1 0 71.853526624789311
Polygon3D 0
PolygonOnTriangulations 0
Surfaces 3
2 0 0 0 0 0 1 1 0 -0 -0 1 0 71.853526624789311
1 0 0 174.06462613500753 0 0 1 1 0 -0 -0 1 0 
1 0 0 0 0 0 1 1 0 -0 -0 1 0 
Triangulations 0

TShapes 13
Ve
1e-07
71.8535266247893 -1.75990382776995e-14 174.064626135008
0 0

0101101
*
Ed
 1e-07 1 1 0
1  1 0 0 6.28318530717959
2  1 1 0 0 6.28318530717959
2  2 2 0 0 6.28318530717959
0

0101000
+13 0 -13 0 *
Ve
1e-07
71.8535266247893 -1.75990382776995e-14 0
0 0

0101101
*
Ed
 1e-07 1 1 0
1  2 0 0 174.064626135008
3  3 4CN 1 0 0 174.064626135008
0

0101000
-13 0 +11 0 *
Ed
 1e-07 1 1 0
1  3 0 0 6.28318530717959
2  5 1 0 0 6.28318530717959
2  6 3 0 0 6.28318530717959
0

0101000
+11 0 -11 0 *
Wi

0101100
-12 0 +10 0 +9 0 -10 0 *
Fa
0  1e-07 1 0

0111000
+8 0 *
Wi

0101100
+12 0 *
Fa
0  1e-07 2 0

0111000
+6 0 *
Wi

0101100
-9 0 *
Fa
0  1e-07 3 0

0111000
-4 0 *
Sh

0101100
+7 0 +5 0 -3 0 *
So

1100000
+2 0 *

+1 1 