DBRep_DrawableShape

CASCADE Topology V1, (c) Matra-Datavision
Locations 1
1
0.337454690165952 0.733735190249034 -0.589709252662034 20.9858288422716 
-0.90028201927833 0.0685580033222965 -0.429874500226047 -2.63493410134053 
-0.274984759303374 0.675967803057715 0.683703818462492 11.8293171746124 
Curve2ds 6
1 0 137.2001433190531 1 0 
2 0 0 1 0 -0 1 86.231505202337303
1 6.2831853071795862 -0 0 1 
1 0 -0 0 1 
1 0 0 1 0 
2 0 0 1 0 -0 1 86.231505202337303
Curves 3
2 0 0 137.2001433190531 0 0 1 1 0 -0 -0 1 0 86.231505202337303
1 86.231505202337303 -2.1120627366340141e-14 0 0 0 1 
2 0 0 0 0 0 1 1 0 -0 -0 1 0 86.231505202337303
Polygon3D 0
PolygonOnTriangulations 0
Surfaces 3
2 0 0 0 0 0 1 1 0 -0 -0 1 0 86.231505202337303
1 0 0 137.2001433190531 0 0 1 1 0 -0 -0 1 0 
1 0 0 0 0 0 1 1 0 -0 -0 1 0 
Triangulations 0

TShapes 13
Ve
1e-07
86.2315052023373 -2.11206273663401e-14 137.200143319053
0 0

0101101
*
Ed
 1e-07 1 1 0
1  1 0 0 6.28318530717959
2  1 1 0 0 6.28318530717959
2  2 2 0 0 6.28318530717959
0

0101000
+13 0 -13 0 *
Ve
1e-07
86.2315052023373 -2.11206273663401e-14 0
0 0

0101101
*
Ed
 1e-07 1 1 0
1  2 0 0 137.200143319053
3  3 4CN 1 0 0 137.200143319053
0

0101000
-13 0 +11 0 *
Ed
 1e-07 1 1 0
1  3 0 0 6.28318530717959
2  5 1 0 0 6.28318530717959
2  6 3 0 0 6.28318530717959
0

0101000
+11 0 -11 0 *
Wi

0101100
-12 0 +10 0 +9 0 -10 0 *
Fa
0  1e-07 1 0

0111000
+8 0 *
Wi

0101100
+12 0 *
Fa
0  1e-07 2 0

0111000
+6 0 *
Wi

0101100
-9 0 *
Fa
0  1e-07 3 0

0111000
-4 0 *
Sh

0101100
+7 0 +5 0 -3 0 *
So

1100000
+2 0 *

+1 1 