DBRep_DrawableShape

CASCADE Topology V1, (c) Matra-Datavision
Locations 1
1
0.241722325102779 0.777828477525818 0.580132034192885 -16.759385184873 
-0.931905496547889 0.352697975230712 -0.0845948211889477 -33.8645954525781 
-0.270411654798272 -0.520179774518411 0.810117608209596 3.84395585633563 
Curve2ds 6
1 0 203.77555452849566 1 0 
2 0 0 1 0 -0 1 65.704995320004514
1 6.2831853071795862 -0 0 1 
1 0 -0 0 1 
1 0 0 1 0 
2 0 0 1 0 -0 1 65.704995320004514
Curves 3
2 0 0 203.77555452849566 0 0 1 1 0 -0 -0 1 0 65.704995320004514
1 65.704995320004514 -1.609308244132707e-14 0 0 0 1 
2 0 0 0 0 0 1 1 0 -0 -0 1 0 65.704995320004514
Polygon3D 0
PolygonOnTriangulations 0
Surfaces 3
2 0 0 0 0 0 1 1 0 -0 -0 1 0 65.704995320004514
1 0 0 203.77555452849566 0 0 1 1 0 -0 -0 1 0 
1 0 0 0 0 0 1 1 0 -0 -0 1 0 
Triangulations 0

TShapes 13
Ve
1e-07
65.7049953200045 -1.60930824413271e-14 203.775554528496
0 0

0101101
*
Ed
 1e-07 1 1 0
1  1 0 0 6.28318530717959
2  1 1 0 0 6.28318530717959
2  2 2 0 0 6.28318530717959
0

0101000
+13 0 -13 0 *
Ve
1e-07
65.7049953200045 -1.60930824413271e-14 0
0 0

0101101
*
Ed
 1e-07 1 1 0
1  2 0 0 203.775554528496
3  3 4CN 1 0 0 203.775554528496
0

0101000
-13 0 +11 0 *
Ed
 1e-07 1 1 0
1  3 0 0 6.28318530717959
2  5 1 0 0 6.28318530717959
2  6 3 0 0 6.28318530717959
0

0101000
+11 0 -11 0 *
Wi

0101100
-12 0 +10 0 +9 0 -10 0 *
Fa
0  1e-07 1 0

0111000
+8 0 *
Wi

0101100
+12 0 *
Fa
0  1e-07 2 0

0111000
+6 0 *
Wi

0101100
-9 0 *
Fa
0  1e-07 3 0

0111000
-4 0 *
Sh

0101100
+7 0 +5 0 -3 0 *
So

1100000
+2 0 *

+1 1 