DBRep_DrawableShape

CASCADE Topology V1, (c) Matra-Datavision
Locations 1
1
0.183257611019949 -0.895117145938372 -0.406425814940937 -40.2095046719465 
0.863474899623549 -0.0510618606832317 0.501800542151628 10.1051423004328 
-0.469923127461676 -0.442897258323767 0.763553713137411 42.0313239304436 
Curve2ds 6
1 0 84.422398149413567 1 0 
2 0 0 1 0 -0 1 50.364614267451728
1 6.2831853071795862 -0 0 1 
1 0 -0 0 1 
1 0 0 1 0 
2 0 0 1 0 -0 1 50.364614267451728
Curves 3
2 0 0 84.422398149413567 0 0 1 1 0 -0 -0 1 0 50.364614267451728
1 50.364614267451728 -1.2335772730585175e-14 0 0 0 1 
2 0 0 0 0 0 1 1 0 -0 -0 1 0 50.364614267451728
Polygon3D 0
PolygonOnTriangulations 0
Surfaces 3
2 0 0 0 0 0 1 1 0 -0 -0 1 0 50.364614267451728
1 0 0 84.422398149413567 0 0 1 1 0 -0 -0 1 0 
1 0 0 0 0 0 1 1 0 -0 -0 1 0 
Triangulations 0

TShapes 13
Ve
1e-07
50.3646142674517 -1.23357727305852e-14 84.4223981494136
0 0

0101101
*
Ed
 1e-07 1 1 0
1  1 0 0 6.28318530717959
2  1 1 0 0 6.28318530717959
2  2 2 0 0 6.28318530717959
0

0101000
+13 0 -13 0 *
Ve
1e-07
50.3646142674517 -1.23357727305852e-14 0
0 0

0101101
*
Ed
 1e-07 1 1 0
1  2 0 0 84.4223981494136
3  3 4CN 1 0 0 84.4223981494136
0

0101000
-13 0 +11 0 *
Ed
 1e-07 1 1 0
1  3 0 0 6.28318530717959
2  5 1 0 0 6.28318530717959
2  6 3 0 0 6.28318530717959
0

0101000
+11 0 -11 0 *
Wi

0101100
-12 0 +10 0 +9 0 -10 0 *
Fa
0  1e-07 1 0

0111000
+8 0 *
Wi

0101100
+12 0 *
Fa
0  1e-07 2 0

0111000
+6 0 *
Wi

0101100
-9 0 *
Fa
0  1e-07 3 0

0111000
-4 0 *
Sh

0101100
+7 0 +5 0 -3 0 *
So

1100000
+2 0 *

+1 1 