DBRep_DrawableShape

CASCADE Topology V1, (c) Matra-Datavision
Locations 1
1
0.885967497149311 0.324525054339407 -0.331277954444589 13.1510015552422 
-0.450361894006677 0.772485090342364 -0.447706320734327 -8.90449815117561 
0.110615362503158 0.545848215445241 0.830550400200698 34.3477725279162 
Curve2ds 6
1 0 161.95913346231686 1 0 
2 0 0 1 0 -0 1 91.229129156925666
1 6.2831853071795862 -0 0 1 
1 0 -0 0 1 
1 0 0 1 0 
2 0 0 1 0 -0 1 91.229129156925666
Curves 3
2 0 0 161.95913346231686 0 0 1 1 0 -0 -0 1 0 91.229129156925666
1 91.229129156925666 -2.2344692202205898e-14 0 0 0 1 
2 0 0 0 0 0 1 1 0 -0 -0 1 0 91.229129156925666
Polygon3D 0
PolygonOnTriangulations 0
Surfaces 3
2 0 0 0 0 0 1 1 0 -0 -0 1 0 91.229129156925666
1 0 0 161.95913346231686 0 0 1 1 0 -0 -0 1 0 
1 0 0 0 0 0 1 1 0 -0 -0 1 0 
Triangulations 0

TShapes 13
Ve
1e-07
91.2291291569257 -2.23446922022059e-14 161.959133462317
0 0

0101101
*
Ed
 1e-07 1 1 0
1  1 0 0 6.28318530717959
2  1 1 0 0 6.28318530717959
2  2 2 0 0 6.28318530717959
0

0101000
+13 0 -13 0 *
Ve
1e-07
91.2291291569257 -2.23446922022059e-14 0
0 0

0101101
*
Ed
 1e-07 1 1 0
1  2 0 0 161.959133462317
3  3 4CN 1 0 0 161.959133462317
0

0101000
-13 0 +11 0 *
Ed
 1e-07 1 1 0
1  3 0 0 6.28318530717959
2  5 1 0 0 6.28318530717959
2  6 3 0 0 6.28318530717959
0

0101000
+11 0 -11 0 *
Wi

0101100
-12 0 +10 0 +9 0 -10 0 *
Fa
0  1e-07 1 0

0111000
+8 0 *
Wi

0101100
+12 0 *
Fa
0  1e-07 2 0

0111000
+6 0 *
Wi

0101100
-9 0 *
Fa
0  1e-07 3 0

0111000
-4 0 *
Sh

0101100
+7 0 +5 0 -3 0 *
So

1100000
+2 0 *

+1 1 