DBRep_DrawableShape

CASCADE Topology V1, (c) Matra-Datavision
Locations 1
1
0.431161791745962 0.57698795802613 -0.693674567525182 -8.25108897336769 
-0.873511780405514 0.459500987602718 -0.160735845053044 14.4415316766731 
0.226001501833949 0.675236061451818 0.702125047611774 -1.13061170657524 
Curve2ds 6
1 0 184.7587002414154 1 0 
2 0 0 1 0 -0 1 62.153529154021548
1 6.2831853071795862 -0 0 1 
1 0 -0 0 1 
1 0 0 1 0 
2 0 0 1 0 -0 1 62.153529154021548
Curves 3
2 0 0 184.7587002414154 0 0 1 1 0 -0 -0 1 0 62.153529154021548
1 62.153529154021548 -1.5223224106836837e-14 0 0 0 1 
2 0 0 0 0 0 1 1 0 -0 -0 1 0 62.153529154021548
Polygon3D 0
PolygonOnTriangulations 0
Surfaces 3
2 0 0 0 0 0 1 1 0 -0 -0 1 0 62.153529154021548
1 0 0 184.7587002414154 0 0 1 1 0 -0 -0 1 0 
1 0 0 0 0 0 1 1 0 -0 -0 1 0 
Triangulations 0

TShapes 13
Ve
1e-07
62.1535291540215 -1.52232241068368e-14 184.758700241415
0 0

0101101
*
Ed
 1e-07 1 1 0
1  1 0 0 6.28318530717959
2  1 1 0 0 6.28318530717959
2  2 2 0 0 6.28318530717959
0

0101000
+13 0 -13 0 *
Ve
1e-07
62.1535291540215 -1.52232241068368e-14 0
0 0

0101101
*
Ed
 1e-07 1 1 0
1  2 0 0 184.758700241415
3  3 4CN 1 0 0 184.758700241415
0

0101000
-13 0 +11 0 *
Ed
 1e-07 1 1 0
1  3 0 0 6.28318530717959
2  5 1 0 0 6.28318530717959
2  6 3 0 0 6.28318530717959
0

0101000
+11 0 -11 0 *
Wi

0101100
-12 0 +10 0 +9 0 -10 0 *
Fa
0  1e-07 1 0

0111000
+8 0 *
Wi

0101100
+12 0 *
Fa
0  1e-07 2 0

0111000
+6 0 *
Wi

0101100
-9 0 *
Fa
0  1e-07 3 0

0111000
-4 0 *
Sh

0101100
+7 0 +5 0 -3 0 *
So

1100000
+2 0 *

+1 1 