DBRep_DrawableShape

CASCADE Topology V1, (c) Matra-Datavision
Locations 1
1
0.937657831005264 -0.34696747586317 0.0202820770051796 9.19266256159734 
0.0991681730503224 0.323012958757585 0.941184520659224 -0.013678521246085 
-0.333111791157811 -0.880497699694787 0.337283760984462 -41.2635149105944 
Curve2ds 6
1 0 192.67228340310817 1 0 
2 0 0 1 0 -0 1 45.332413816033146
1 6.2831853071795862 -0 0 1 
1 0 -0 0 1 
1 0 0 1 0 
2 0 0 1 0 -0 1 45.332413816033146
Curves 3
2 0 0 192.67228340310817 0 0 1 1 0 -0 -0 1 0 45.332413816033146
1 45.332413816033146 -1.1103239095485649e-14 0 0 0 1 
2 0 0 0 0 0 1 1 0 -0 -0 1 0 45.332413816033146
Polygon3D 0
PolygonOnTriangulations 0
Surfaces 3
2 0 0 0 0 0 1 1 0 -0 -0 1 0 45.332413816033146
1 0 0 192.67228340310817 0 0 1 1 0 -0 -0 1 0 
1 0 0 0 0 0 1 1 0 -0 -0 1 0 
Triangulations 0

TShapes 13
Ve
1e-07
45.3324138160331 -1.11032390954856e-14 192.672283403108
0 0

0101101
*
Ed
 1e-07 1 1 0
1  1 0 0 6.28318530717959
2  1 1 0 0 6.28318530717959
2  2 2 0 0 6.28318530717959
0

0101000
+13 0 -13 0 *
Ve
1e-07
45.3324138160331 -1.11032390954856e-14 0
0 0

0101101
*
Ed
 1e-07 1 1 0
1  2 0 0 192.672283403108
3  3 4CN 1 0 0 192.672283403108
0

0101000
-13 0 +11 0 *
Ed
 1e-07 1 1 0
1  3 0 0 6.28318530717959
2  5 1 0 0 6.28318530717959
2  6 3 0 0 6.28318530717959
0

0101000
+11 0 -11 0 *
Wi

0101100
-12 0 +10 0 +9 0 -10 0 *
Fa
0  1e-07 1 0

0111000
+8 0 *
Wi

0101100
+12 0 *
Fa
0  1e-07 2 0

0111000
+6 0 *
Wi

0101100
-9 0 *
Fa
0  1e-07 3 0

0111000
-4 0 *
Sh

0101100
+7 0 +5 0 -3 0 *
So

1100000
+2 0 *

+1 1 