DBRep_DrawableShape

CASCADE Topology V1, (c) Matra-Datavision
Locations 1
1
0.780948191760312 -0.594922621984654 -0.190228798127946 -19.2152821430285 
0.603154025205671 0.639195630493579 0.477110226086293 36.1800085886747 
-0.16225025012152 -0.487335633633352 0.858008645951009 -9.69319049259663 
Curve2ds 6
1 0 241.68026936128624 1 0 
2 0 0 1 0 -0 1 76.441472546763151
1 6.2831853071795862 -0 0 1 
1 0 -0 0 1 
1 0 0 1 0 
2 0 0 1 0 -0 1 76.441472546763151
Curves 3
2 0 0 241.68026936128624 0 0 1 1 0 -0 -0 1 0 76.441472546763151
1 76.441472546763151 -1.8722760935300752e-14 0 0 0 1 
2 0 0 0 0 0 1 1 0 -0 -0 1 0 76.441472546763151
Polygon3D 0
PolygonOnTriangulations 0
Surfaces 3
2 0 0 0 0 0 1 1 0 -0 -0 1 0 76.441472546763151
1 0 0 241.68026936128624 0 0 1 1 0 -0 -0 1 0 
1 0 0 0 0 0 1 1 0 -0 -0 1 0 
Triangulations 0

TShapes 13
Ve
1e-07
76.4414725467632 -1.87227609353008e-14 241.680269361286
0 0

0101101
*
Ed
 1e-07 1 1 0
1  1 0 0 6.28318530717959
2  1 1 0 0 6.28318530717959
2  2 2 0 0 6.28318530717959
0

0101000
+13 0 -13 0 *
Ve
1e-07
76.4414725467632 -1.87227609353008e-14 0
0 0

0101101
*
Ed
 1e-07 1 1 0
1  2 0 0 241.680269361286
3  3 4CN 1 0 0 241.680269361286
0

0101000
-13 0 +11 0 *
Ed
 1e-07 1 1 0
1  3 0 0 6.28318530717959
2  5 1 0 0 6.28318530717959
2  6 3 0 0 6.28318530717959
0

0101000
+11 0 -11 0 *
Wi

0101100
-12 0 +10 0 +9 0 -10 0 *
Fa
0  1e-07 1 0

0111000
+8 0 *
Wi

0101100
+12 0 *
Fa
0  1e-07 2 0

0111000
+6 0 *
Wi

0101100
-9 0 *
Fa
0  1e-07 3 0

0111000
-4 0 *
Sh

0101100
+7 0 +5 0 -3 0 *
So

1100000
+2 0 *

+1 1 