DBRep_DrawableShape

CASCADE Topology V1, (c) Matra-Datavision
Locations 1
1
0.0476717825000227 -0.443455013411113 0.895027961705008 -2.68699775766284 
0.957741137372808 -0.234163057178687 -0.167031662976129 -42.8155977304305 
0.283653512118413 0.865167795131835 0.413552138586671 -44.2195883646271 
Curve2ds 6
1 0 10.426378841105207 1 0 
2 0 0 1 0 -0 1 92.138401000313692
1 6.2831853071795862 -0 0 1 
1 0 -0 0 1 
1 0 0 1 0 
2 0 0 1 0 -0 1 92.138401000313692
Curves 3
2 0 0 5.2131894205526033 0 0 1 1 0 -0 -0 1 0 92.138401000313692
1 92.138401000313692 -2.2567399572717889e-14 -5.2131894205526033 0 0 1 
2 0 0 -5.2131894205526033 0 0 1 1 0 -0 -0 1 0 92.138401000313692
Polygon3D 0
PolygonOnTriangulations 0
Surfaces 3
2 0 0 -5.2131894205526033 0 0 1 1 0 -0 -0 1 0 92.138401000313692
1 0 0 5.2131894205526033 0 0 1 1 0 -0 -0 1 0 
1 0 0 -5.2131894205526033 0 0 1 1 0 -0 -0 1 0 
Triangulations 0

TShapes 13
Ve
1e-07
92.1384010003137 -2.25673995727179e-14 5.2131894205526
0 0

0101101
*
Ed
 1e-07 1 1 0
1  1 0 0 6.28318530717959
2  1 1 0 0 6.28318530717959
2  2 2 0 0 6.28318530717959
0

0101000
+13 0 -13 0 *
Ve
1e-07
92.1384010003137 -2.25673995727179e-14 -5.2131894205526
0 0

0101101
*
Ed
 1e-07 1 1 0
1  2 0 0 10.4263788411052
3  3 4CN 1 0 0 10.4263788411052
0

0101000
-13 0 +11 0 *
Ed
 1e-07 1 1 0
1  3 0 0 6.28318530717959
2  5 1 0 0 6.28318530717959
2  6 3 0 0 6.28318530717959
0

0101000
+11 0 -11 0 *
Wi

0101100
-12 0 +10 0 +9 0 -10 0 *
Fa
0  1e-07 1 0

0111000
+8 0 *
Wi

0101100
+12 0 *
Fa
0  1e-07 2 0

0111000
+6 0 *
Wi

0101100
-9 0 *
Fa
0  1e-07 3 0

0111000
-4 0 *
Sh

0101100
+7 0 +5 0 -3 0 *
So

1100000
+2 0 *

+1 1 