DBRep_DrawableShape

CASCADE Topology V1, (c) Matra-Datavision
Locations 1
1
0.0929468144487487 -0.472569632745564 -0.876378247043224 48.4444485519634 
0.70312996863989 -0.592042492536315 0.393819672225569 -49.1014248255888 
-0.704960379655692 -0.652812093360801 0.277249407353005 -17.4057589193449 
Curve2ds 6
1 0 2.1247845685638116 1 0 
2 0 0 1 0 -0 1 33.830453614467928
1 6.2831853071795862 -0 0 1 
1 0 -0 0 1 
1 0 0 1 0 
2 0 0 1 0 -0 1 33.830453614467928
Curves 3
2 0 0 1.0623922842819058 0 0 1 1 0 -0 -0 1 0 33.830453614467928
1 33.830453614467928 -8.2860713465322313e-15 -1.0623922842819058 0 0 1 
2 0 0 -1.0623922842819058 0 0 1 1 0 -0 -0 1 0 33.830453614467928
Polygon3D 0
PolygonOnTriangulations 0
Surfaces 3
2 0 0 -1.0623922842819058 0 0 1 1 0 -0 -0 1 0 33.830453614467928
1 0 0 1.0623922842819058 0 0 1 1 0 -0 -0 1 0 
1 0 0 -1.0623922842819058 0 0 1 1 0 -0 -0 1 0 
Triangulations 0

TShapes 13
Ve
1e-07
33.8304536144679 -8.28607134653223e-15 1.06239228428191
0 0

0101101
*
Ed
 1e-07 1 1 0
1  1 0 0 6.28318530717959
2  1 1 0 0 6.28318530717959
2  2 2 0 0 6.28318530717959
0

0101000
+13 0 -13 0 *
Ve
1e-07
33.8304536144679 -8.28607134653223e-15 -1.06239228428191
0 0

0101101
*
Ed
 1e-07 1 1 0
1  2 0 0 2.12478456856381
3  3 4CN 1 0 0 2.12478456856381
0

0101000
-13 0 +11 0 *
Ed
 1e-07 1 1 0
1  3 0 0 6.28318530717959
2  5 1 0 0 6.28318530717959
2  6 3 0 0 6.28318530717959
0

0101000
+11 0 -11 0 *
Wi

0101100
-12 0 +10 0 +9 0 -10 0 *
Fa
0  1e-07 1 0

0111000
+8 0 *
Wi

0101100
+12 0 *
Fa
0  1e-07 2 0

0111000
+6 0 *
Wi

0101100
-9 0 *
Fa
0  1e-07 3 0

0111000
-4 0 *
Sh

0101100
+7 0 +5 0 -3 0 *
So

1100000
+2 0 *

+1 1 