DBRep_DrawableShape

CASCADE Topology V1, (c) Matra-Datavision
Locations 1
1
0.0417240755997719 0.0163086275557272 0.998996061144684 -27.3978421753546 
-0.999125077619662 0.00354337171774085 0.0416716184995702  19.21139856439 
-0.00286020748344074 -0.99986072689356 0.0164422026819152 -12.7529293248959 
Curve2ds 6
1 0 4.5531998112292946 1 0 
2 0 0 1 0 -0 1 76.922228244121072
1 6.2831853071795862 -0 0 1 
1 0 -0 0 1 
1 0 0 1 0 
2 0 0 1 0 -0 1 76.922228244121072
Curves 3
2 0 0 2.2765999056146473 0 0 1 1 0 -0 -0 1 0 76.922228244121072
1 76.922228244121072 -1.8840512120489e-14 -2.2765999056146473 0 0 1 
2 0 0 -2.2765999056146473 0 0 1 1 0 -0 -0 1 0 76.922228244121072
Polygon3D 0
PolygonOnTriangulations 0
Surfaces 3
2 0 0 -2.2765999056146473 0 0 1 1 0 -0 -0 1 0 76.922228244121072
1 0 0 2.2765999056146473 0 0 1 1 0 -0 -0 1 0 
1 0 0 -2.2765999056146473 0 0 1 1 0 -0 -0 1 0 
Triangulations 0

TShapes 13
Ve
1e-07
76.9222282441211 -1.8840512120489e-14 2.27659990561465
0 0

0101101
*
Ed
 1e-07 1 1 0
1  1 0 0 6.28318530717959
2  1 1 0 0 6.28318530717959
2  2 2 0 0 6.28318530717959
0

0101000
+13 0 -13 0 *
Ve
1e-07
76.9222282441211 -1.8840512120489e-14 -2.27659990561465
0 0

0101101
*
Ed
 1e-07 1 1 0
1  2 0 0 4.55319981122929
3  3 4CN 1 0 0 4.55319981122929
0

0101000
-13 0 +11 0 *
Ed
 1e-07 1 1 0
1  3 0 0 6.28318530717959
2  5 1 0 0 6.28318530717959
2  6 3 0 0 6.28318530717959
0

0101000
+11 0 -11 0 *
Wi

0101100
-12 0 +10 0 +9 0 -10 0 *
Fa
0  1e-07 1 0

0111000
+8 0 *
Wi

0101100
+12 0 *
Fa
0  1e-07 2 0

0111000
+6 0 *
Wi

0101100
-9 0 *
Fa
0  1e-07 3 0

0111000
-4 0 *
Sh

0101100
+7 0 +5 0 -3 0 *
So

1100000
+2 0 *

+1 1 