DBRep_DrawableShape

CASCADE Topology V1, (c) Matra-Datavision
Locations 1
1
0.384567584403206 -0.248941347388988 0.88889593237141 44.788875260716 
0.216741855401508 0.96038069513531 0.175191005843711 44.6820573129218 
-0.897290778478969 0.125288171714549 0.423287293554898 7.1624175726422 
Curve2ds 6
1 0 8.2981647235194558 1 0 
2 0 0 1 0 -0 1 59.367485109287252
1 6.2831853071795862 -0 0 1 
1 0 -0 0 1 
1 0 0 1 0 
2 0 0 1 0 -0 1 59.367485109287252
Curves 3
2 0 0 4.1490823617597279 0 0 1 1 0 -0 -0 1 0 59.367485109287252
1 59.367485109287252 -1.4540840122503356e-14 -4.1490823617597279 0 0 1 
2 0 0 -4.1490823617597279 0 0 1 1 0 -0 -0 1 0 59.367485109287252
Polygon3D 0
PolygonOnTriangulations 0
Surfaces 3
2 0 0 -4.1490823617597279 0 0 1 1 0 -0 -0 1 0 59.367485109287252
1 0 0 4.1490823617597279 0 0 1 1 0 -0 -0 1 0 
1 0 0 -4.1490823617597279 0 0 1 1 0 -0 -0 1 0 
Triangulations 0

TShapes 13
Ve
1e-07
59.3674851092873 -1.45408401225034e-14 4.14908236175973
0 0

0101101
*
Ed
 1e-07 1 1 0
1  1 0 0 6.28318530717959
2  1 1 0 0 6.28318530717959
2  2 2 0 0 6.28318530717959
0

0101000
+13 0 -13 0 *
Ve
1e-07
59.3674851092873 -1.45408401225034e-14 -4.14908236175973
0 0

0101101
*
Ed
 1e-07 1 1 0
1  2 0 0 8.29816472351946
3  3 4CN 1 0 0 8.29816472351946
0

0101000
-13 0 +11 0 *
Ed
 1e-07 1 1 0
1  3 0 0 6.28318530717959
2  5 1 0 0 6.28318530717959
2  6 3 0 0 6.28318530717959
0

0101000
+11 0 -11 0 *
Wi

0101100
-12 0 +10 0 +9 0 -10 0 *
Fa
0  1e-07 1 0

0111000
+8 0 *
Wi

0101100
+12 0 *
Fa
0  1e-07 2 0

0111000
+6 0 *
Wi

0101100
-9 0 *
Fa
0  1e-07 3 0

0111000
-4 0 *
Sh

0101100
+7 0 +5 0 -3 0 *
So

1100000
+2 0 *

+1 1 