DBRep_DrawableShape

CASCADE Topology V1, (c) Matra-Datavision
Locations 1
1
0.181175602980276 0.981848707861707 0.0561116365385075 26.7531775899491 
-0.979509039102958 0.175052241979867 0.0995929460023239 -16.6122671344598 
0.0879627375672973 -0.073005667232881 0.993444879875853 38.9525968990163 
Curve2ds 6
1 0 10.578566164571225 1 0 
2 0 0 1 0 -0 1 87.379181415781815
1 6.2831853071795862 -0 0 1 
1 0 -0 0 1 
1 0 0 1 0 
2 0 0 1 0 -0 1 87.379181415781815
Curves 3
2 0 0 5.2892830822856123 0 0 1 1 0 -0 -0 1 0 87.379181415781815
1 87.379181415781815 -2.1401726966590618e-14 -5.2892830822856123 0 0 1 
2 0 0 -5.2892830822856123 0 0 1 1 0 -0 -0 1 0 87.379181415781815
Polygon3D 0
PolygonOnTriangulations 0
Surfaces 3
2 0 0 -5.2892830822856123 0 0 1 1 0 -0 -0 1 0 87.379181415781815
1 0 0 5.2892830822856123 0 0 1 1 0 -0 -0 1 0 
1 0 0 -5.2892830822856123 0 0 1 1 0 -0 -0 1 0 
Triangulations 0

TShapes 13
Ve
1e-07
87.3791814157818 -2.14017269665906e-14 5.28928308228561
0 0

0101101
*
Ed
 1e-07 1 1 0
1  1 0 0 6.28318530717959
2  1 1 0 0 6.28318530717959
2  2 2 0 0 6.28318530717959
0

0101000
+13 0 -13 0 *
Ve
1e-07
87.3791814157818 -2.14017269665906e-14 -5.28928308228561
0 0

0101101
*
Ed
 1e-07 1 1 0
1  2 0 0 10.5785661645712
3  3 4CN 1 0 0 10.5785661645712
0

0101000
-13 0 +11 0 *
Ed
 1e-07 1 1 0
1  3 0 0 6.28318530717959
2  5 1 0 0 6.28318530717959
2  6 3 0 0 6.28318530717959
0

0101000
+11 0 -11 0 *
Wi

0101100
-12 0 +10 0 +9 0 -10 0 *
Fa
0  1e-07 1 0

0111000
+8 0 *
Wi

0101100
+12 0 *
Fa
0  1e-07 2 0

0111000
+6 0 *
Wi

0101100
-9 0 *
Fa
0  1e-07 3 0

0111000
-4 0 *
Sh

0101100
+7 0 +5 0 -3 0 *
So

1100000
+2 0 *

+1 1 