DBRep_DrawableShape

CASCADE Topology V1, (c) Matra-Datavision
Locations 1
1
0.872167580262706 -0.315243927886906 0.37409220503658 47.9576691125511 
0.428950567978651 0.860463698441241 -0.274961149793228 36.0184010606591 
-0.235212929426697 0.400279264508239 0.885692603692305 14.6847460462781 
Curve2ds 6
1 0 10.289036920436201 1 0 
2 0 0 1 0 -0 1 67.527044523790991
1 6.2831853071795862 -0 0 1 
1 0 -0 0 1 
1 0 0 1 0 
2 0 0 1 0 -0 1 67.527044523790991
Curves 3
2 0 0 5.1445184602181007 0 0 1 1 0 -0 -0 1 0 67.527044523790991
1 67.527044523790991 -1.6539355786388288e-14 -5.1445184602181007 0 0 1 
2 0 0 -5.1445184602181007 0 0 1 1 0 -0 -0 1 0 67.527044523790991
Polygon3D 0
PolygonOnTriangulations 0
Surfaces 3
2 0 0 -5.1445184602181007 0 0 1 1 0 -0 -0 1 0 67.527044523790991
1 0 0 5.1445184602181007 0 0 1 1 0 -0 -0 1 0 
1 0 0 -5.1445184602181007 0 0 1 1 0 -0 -0 1 0 
Triangulations 0

TShapes 13
Ve
1e-07
67.527044523791 -1.65393557863883e-14 5.1445184602181
0 0

0101101
*
Ed
 1e-07 1 1 0
1  1 0 0 6.28318530717959
2  1 1 0 0 6.28318530717959
2  2 2 0 0 6.28318530717959
0

0101000
+13 0 -13 0 *
Ve
1e-07
67.527044523791 -1.65393557863883e-14 -5.1445184602181
0 0

0101101
*
Ed
 1e-07 1 1 0
1  2 0 0 10.2890369204362
3  3 4CN 1 0 0 10.2890369204362
0

0101000
-13 0 +11 0 *
Ed
 1e-07 1 1 0
1  3 0 0 6.28318530717959
2  5 1 0 0 6.28318530717959
2  6 3 0 0 6.28318530717959
0

0101000
+11 0 -11 0 *
Wi

0101100
-12 0 +10 0 +9 0 -10 0 *
Fa
0  1e-07 1 0

0111000
+8 0 *
Wi

0101100
+12 0 *
Fa
0  1e-07 2 0

0111000
+6 0 *
Wi

0101100
-9 0 *
Fa
0  1e-07 3 0

0111000
-4 0 *
Sh

0101100
+7 0 +5 0 -3 0 *
So

1100000
+2 0 *

+1 1 