DBRep_DrawableShape

CASCADE Topology V1, (c) Matra-Datavision
Locations 1
1
0.365399549769654 0.530494621447626 -0.764891250860719 -7.64965640721734 
-0.927053479587495 0.133246650409376 -0.350452815853148 49.2812056576664 
-0.083994136776642 0.837150396744708 0.540485150783372 -47.0400288716309 
Curve2ds 6
1 0 4.3665119986347039 1 0 
2 0 0 1 0 -0 1 95.054868425630417
1 6.2831853071795862 -0 0 1 
1 0 -0 0 1 
1 0 0 1 0 
2 0 0 1 0 -0 1 95.054868425630417
Curves 3
2 0 0 2.1832559993173519 0 0 1 1 0 -0 -0 1 0 95.054868425630417
1 95.054868425630417 -2.328172807216422e-14 -2.1832559993173519 0 0 1 
2 0 0 -2.1832559993173519 0 0 1 1 0 -0 -0 1 0 95.054868425630417
Polygon3D 0
PolygonOnTriangulations 0
Surfaces 3
2 0 0 -2.1832559993173519 0 0 1 1 0 -0 -0 1 0 95.054868425630417
1 0 0 2.1832559993173519 0 0 1 1 0 -0 -0 1 0 
1 0 0 -2.1832559993173519 0 0 1 1 0 -0 -0 1 0 
Triangulations 0

TShapes 13
Ve
1e-07
95.0548684256304 -2.32817280721642e-14 2.18325599931735
0 0

0101101
*
Ed
 1e-07 1 1 0
1  1 0 0 6.28318530717959
2  1 1 0 0 6.28318530717959
2  2 2 0 0 6.28318530717959
0

0101000
+13 0 -13 0 *
Ve
1e-07
95.0548684256304 -2.32817280721642e-14 -2.18325599931735
0 0

0101101
*
Ed
 1e-07 1 1 0
1  2 0 0 4.3665119986347
3  3 4CN 1 0 0 4.3665119986347
0

0101000
-13 0 +11 0 *
Ed
 1e-07 1 1 0
1  3 0 0 6.28318530717959
2  5 1 0 0 6.28318530717959
2  6 3 0 0 6.28318530717959
0

0101000
+11 0 -11 0 *
Wi

0101100
-12 0 +10 0 +9 0 -10 0 *
Fa
0  1e-07 1 0

0111000
+8 0 *
Wi

0101100
+12 0 *
Fa
0  1e-07 2 0

0111000
+6 0 *
Wi

0101100
-9 0 *
Fa
0  1e-07 3 0

0111000
-4 0 *
Sh

0101100
+7 0 +5 0 -3 0 *
So

1100000
+2 0 *

+1 1 