DBRep_DrawableShape

CASCADE Topology V1, (c) Matra-Datavision
Locations 1
1
0.496339002293765 -0.265877205302557 -0.826412068221739 24.0869881797498 
0.86715525913085 0.196910729465145 0.457458108664841 25.1448564844489 
0.0411017197175406 -0.943681872413584 0.328291291864792 -41.5372333826346 
Curve2ds 6
1 0 5.6738364280803202 1 0 
2 0 0 1 0 -0 1 56.591449445103365
1 6.2831853071795862 -0 0 1 
1 0 -0 0 1 
1 0 0 1 0 
2 0 0 1 0 -0 1 56.591449445103365
Curves 3
2 0 0 2.8369182140401601 0 0 1 1 0 -0 -0 1 0 56.591449445103365
1 56.591449445103365 -1.3860907484411019e-14 -2.8369182140401601 0 0 1 
2 0 0 -2.8369182140401601 0 0 1 1 0 -0 -0 1 0 56.591449445103365
Polygon3D 0
PolygonOnTriangulations 0
Surfaces 3
2 0 0 -2.8369182140401601 0 0 1 1 0 -0 -0 1 0 56.591449445103365
1 0 0 2.8369182140401601 0 0 1 1 0 -0 -0 1 0 
1 0 0 -2.8369182140401601 0 0 1 1 0 -0 -0 1 0 
Triangulations 0

TShapes 13
Ve
1e-07
56.5914494451034 -1.3860907484411e-14 2.83691821404016
0 0

0101101
*
Ed
 1e-07 1 1 0
1  1 0 0 6.28318530717959
2  1 1 0 0 6.28318530717959
2  2 2 0 0 6.28318530717959
0

0101000
+13 0 -13 0 *
Ve
1e-07
56.5914494451034 -1.3860907484411e-14 -2.83691821404016
0 0

0101101
*
Ed
 1e-07 1 1 0
1  2 0 0 5.67383642808032
3  3 4CN 1 0 0 5.67383642808032
0

0101000
-13 0 +11 0 *
Ed
 1e-07 1 1 0
1  3 0 0 6.28318530717959
2  5 1 0 0 6.28318530717959
2  6 3 0 0 6.28318530717959
0

0101000
+11 0 -11 0 *
Wi

0101100
-12 0 +10 0 +9 0 -10 0 *
Fa
0  1e-07 1 0

0111000
+8 0 *
Wi

0101100
+12 0 *
Fa
0  1e-07 2 0

0111000
+6 0 *
Wi

0101100
-9 0 *
Fa
0  1e-07 3 0

0111000
-4 0 *
Sh

0101100
+7 0 +5 0 -3 0 *
So

1100000
+2 0 *

+1 1 