DBRep_DrawableShape

CASCADE Topology V1, (c) Matra-Datavision
Locations 1
1
0.323682913673298 0.553940687270574 -0.767058724207064 -8.42689069940794 
-0.342678360285762 0.824297003723863 0.450672820396043 -21.6638291982864 
0.881930219908484 0.116979334235011 0.456634342306957 2.12143649901619 
Curve2ds 6
1 0 13.525349492613229 1 0 
2 0 0 1 0 -0 1 94.724282360151264
1 6.2831853071795862 -0 0 1 
1 0 -0 0 1 
1 0 0 1 0 
2 0 0 1 0 -0 1 94.724282360151264
Curves 3
2 0 0 6.7626747463066144 0 0 1 1 0 -0 -0 1 0 94.724282360151264
1 94.724282360151264 -2.3200757838777869e-14 -6.7626747463066144 0 0 1 
2 0 0 -6.7626747463066144 0 0 1 1 0 -0 -0 1 0 94.724282360151264
Polygon3D 0
PolygonOnTriangulations 0
Surfaces 3
2 0 0 -6.7626747463066144 0 0 1 1 0 -0 -0 1 0 94.724282360151264
1 0 0 6.7626747463066144 0 0 1 1 0 -0 -0 1 0 
1 0 0 -6.7626747463066144 0 0 1 1 0 -0 -0 1 0 
Triangulations 0

TShapes 13
Ve
1e-07
94.7242823601513 -2.32007578387779e-14 6.76267474630661
0 0

0101101
*
Ed
 1e-07 1 1 0
1  1 0 0 6.28318530717959
2  1 1 0 0 6.28318530717959
2  2 2 0 0 6.28318530717959
0

0101000
+13 0 -13 0 *
Ve
1e-07
94.7242823601513 -2.32007578387779e-14 -6.76267474630661
0 0

0101101
*
Ed
 1e-07 1 1 0
1  2 0 0 13.5253494926132
3  3 4CN 1 0 0 13.5253494926132
0

0101000
-13 0 +11 0 *
Ed
 1e-07 1 1 0
1  3 0 0 6.28318530717959
2  5 1 0 0 6.28318530717959
2  6 3 0 0 6.28318530717959
0

0101000
+11 0 -11 0 *
Wi

0101100
-12 0 +10 0 +9 0 -10 0 *
Fa
0  1e-07 1 0

0111000
+8 0 *
Wi

0101100
+12 0 *
Fa
0  1e-07 2 0

0111000
+6 0 *
Wi

0101100
-9 0 *
Fa
0  1e-07 3 0

0111000
-4 0 *
Sh

0101100
+7 0 +5 0 -3 0 *
So

1100000
+2 0 *

+1 1 