DBRep_DrawableShape

CASCADE Topology V1, (c) Matra-Datavision
Locations 1
1
0.967775046564445 0.240334863935315 -0.075170555567851 36.8114240480024 
-0.0197742270207838 0.3701225219313 0.928772468748371 42.5242584355308 
0.251038720505256 -0.897356379559653 0.36294777705708 6.76943982818067 
Curve2ds 6
1 0 5.6629685559893916 1 0 
2 0 0 1 0 -0 1 47.021931898309944
1 6.2831853071795862 -0 0 1 
1 0 -0 0 1 
1 0 0 1 0 
2 0 0 1 0 -0 1 47.021931898309944
Curves 3
2 0 0 2.8314842779946958 0 0 1 1 0 -0 -0 1 0 47.021931898309944
1 47.021931898309944 -1.151705167779802e-14 -2.8314842779946958 0 0 1 
2 0 0 -2.8314842779946958 0 0 1 1 0 -0 -0 1 0 47.021931898309944
Polygon3D 0
PolygonOnTriangulations 0
Surfaces 3
2 0 0 -2.8314842779946958 0 0 1 1 0 -0 -0 1 0 47.021931898309944
1 0 0 2.8314842779946958 0 0 1 1 0 -0 -0 1 0 
1 0 0 -2.8314842779946958 0 0 1 1 0 -0 -0 1 0 
Triangulations 0

TShapes 13
Ve
1e-07
47.0219318983099 -1.1517051677798e-14 2.8314842779947
0 0

0101101
*
Ed
 1e-07 1 1 0
1  1 0 0 6.28318530717959
2  1 1 0 0 6.28318530717959
2  2 2 0 0 6.28318530717959
0

0101000
+13 0 -13 0 *
Ve
1e-07
47.0219318983099 -1.1517051677798e-14 -2.8314842779947
0 0

0101101
*
Ed
 1e-07 1 1 0
1  2 0 0 5.66296855598939
3  3 4CN 1 0 0 5.66296855598939
0

0101000
-13 0 +11 0 *
Ed
 1e-07 1 1 0
1  3 0 0 6.28318530717959
2  5 1 0 0 6.28318530717959
2  6 3 0 0 6.28318530717959
0

0101000
+11 0 -11 0 *
Wi

0101100
-12 0 +10 0 +9 0 -10 0 *
Fa
0  1e-07 1 0

0111000
+8 0 *
Wi

0101100
+12 0 *
Fa
0  1e-07 2 0

0111000
+6 0 *
Wi

0101100
-9 0 *
Fa
0  1e-07 3 0

0111000
-4 0 *
Sh

0101100
+7 0 +5 0 -3 0 *
So

1100000
+2 0 *

+1 1 