DBRep_DrawableShape

CASCADE Topology V1, (c) Matra-Datavision
Locations 1
1
0.375750852838674 0.511293316595534 -0.772910370609521 -23.2804024545329 
-0.920724590942633 0.300691516736683 -0.248698289893829 -3.72320179125124 
0.105249818168635 0.805086179341896 0.583745423629289 46.0646548883074 
Curve2ds 6
1 0 4.352319951454322 1 0 
2 0 0 1 0 -0 1 93.972358124701245
1 6.2831853071795862 -0 0 1 
1 0 -0 0 1 
1 0 0 1 0 
2 0 0 1 0 -0 1 93.972358124701245
Curves 3
2 0 0 2.176159975727161 0 0 1 1 0 -0 -0 1 0 93.972358124701245
1 93.972358124701245 -2.3016589517148831e-14 -2.176159975727161 0 0 1 
2 0 0 -2.176159975727161 0 0 1 1 0 -0 -0 1 0 93.972358124701245
Polygon3D 0
PolygonOnTriangulations 0
Surfaces 3
2 0 0 -2.176159975727161 0 0 1 1 0 -0 -0 1 0 93.972358124701245
1 0 0 2.176159975727161 0 0 1 1 0 -0 -0 1 0 
1 0 0 -2.176159975727161 0 0 1 1 0 -0 -0 1 0 
Triangulations 0

TShapes 13
Ve
1e-07
93.9723581247012 -2.30165895171488e-14 2.17615997572716
0 0

0101101
*
Ed
 1e-07 1 1 0
1  1 0 0 6.28318530717959
2  1 1 0 0 6.28318530717959
2  2 2 0 0 6.28318530717959
0

0101000
+13 0 -13 0 *
Ve
1e-07
93.9723581247012 -2.30165895171488e-14 -2.17615997572716
0 0

0101101
*
Ed
 1e-07 1 1 0
1  2 0 0 4.35231995145432
3  3 4CN 1 0 0 4.35231995145432
0

0101000
-13 0 +11 0 *
Ed
 1e-07 1 1 0
1  3 0 0 6.28318530717959
2  5 1 0 0 6.28318530717959
2  6 3 0 0 6.28318530717959
0

0101000
+11 0 -11 0 *
Wi

0101100
-12 0 +10 0 +9 0 -10 0 *
Fa
0  1e-07 1 0

0111000
+8 0 *
Wi

0101100
+12 0 *
Fa
0  1e-07 2 0

0111000
+6 0 *
Wi

0101100
-9 0 *
Fa
0  1e-07 3 0

0111000
-4 0 *
Sh

0101100
+7 0 +5 0 -3 0 *
So

1100000
+2 0 *

+1 1 