DBRep_DrawableShape

CASCADE Topology V1, (c) Matra-Datavision
Locations 1
1
0.0984899749577303 0.444570754935977 0.890312624131816 45.1287098387098 
-0.166718021424041 0.889389142101477 -0.425666601044117 37.4510945126217 
-0.981073303155926 -0.106507266266925 0.16171387097917 4.02588254779334 
Curve2ds 6
1 0 5.9462736268159215 1 0 
2 0 0 1 0 -0 1 83.685421028245614
1 6.2831853071795862 -0 0 1 
1 0 -0 0 1 
1 0 0 1 0 
2 0 0 1 0 -0 1 83.685421028245614
Curves 3
2 0 0 2.9731368134079608 0 0 1 1 0 -0 -0 1 0 83.685421028245614
1 83.685421028245614 -2.049701659950792e-14 -2.9731368134079608 0 0 1 
2 0 0 -2.9731368134079608 0 0 1 1 0 -0 -0 1 0 83.685421028245614
Polygon3D 0
PolygonOnTriangulations 0
Surfaces 3
2 0 0 -2.9731368134079608 0 0 1 1 0 -0 -0 1 0 83.685421028245614
1 0 0 2.9731368134079608 0 0 1 1 0 -0 -0 1 0 
1 0 0 -2.9731368134079608 0 0 1 1 0 -0 -0 1 0 
Triangulations 0

TShapes 13
Ve
1e-07
83.6854210282456 -2.04970165995079e-14 2.97313681340796
0 0

0101101
*
Ed
 1e-07 1 1 0
1  1 0 0 6.28318530717959
2  1 1 0 0 6.28318530717959
2  2 2 0 0 6.28318530717959
0

0101000
+13 0 -13 0 *
Ve
1e-07
83.6854210282456 -2.04970165995079e-14 -2.97313681340796
0 0

0101101
*
Ed
 1e-07 1 1 0
1  2 0 0 5.94627362681592
3  3 4CN 1 0 0 5.94627362681592
0

0101000
-13 0 +11 0 *
Ed
 1e-07 1 1 0
1  3 0 0 6.28318530717959
2  5 1 0 0 6.28318530717959
2  6 3 0 0 6.28318530717959
0

0101000
+11 0 -11 0 *
Wi

0101100
-12 0 +10 0 +9 0 -10 0 *
Fa
0  1e-07 1 0

0111000
+8 0 *
Wi

0101100
+12 0 *
Fa
0  1e-07 2 0

0111000
+6 0 *
Wi

0101100
-9 0 *
Fa
0  1e-07 3 0

0111000
-4 0 *
Sh

0101100
+7 0 +5 0 -3 0 *
So

1100000
+2 0 *

+1 1 