DBRep_DrawableShape

CASCADE Topology V1, (c) Matra-Datavision
Locations 1
1
0.0621673984183206 0.625397279148624 0.777826110263339 -11.6192850221826 
-0.240326900546939 -0.747022889246177 0.619838514304973 -10.7754357961409 
0.96869922857789 -0.225466286117887 0.103859320124906 -33.7255604412598 
Curve2ds 6
1 0 4.6748684119196717 1 0 
2 0 0 1 0 -0 1 91.73667685530971
1 6.2831853071795862 -0 0 1 
1 0 -0 0 1 
1 0 0 1 0 
2 0 0 1 0 -0 1 91.73667685530971
Curves 3
2 0 0 2.3374342059598359 0 0 1 1 0 -0 -0 1 0 91.73667685530971
1 91.73667685530971 -2.2469005535054022e-14 -2.3374342059598359 0 0 1 
2 0 0 -2.3374342059598359 0 0 1 1 0 -0 -0 1 0 91.73667685530971
Polygon3D 0
PolygonOnTriangulations 0
Surfaces 3
2 0 0 -2.3374342059598359 0 0 1 1 0 -0 -0 1 0 91.73667685530971
1 0 0 2.3374342059598359 0 0 1 1 0 -0 -0 1 0 
1 0 0 -2.3374342059598359 0 0 1 1 0 -0 -0 1 0 
Triangulations 0

TShapes 13
Ve
1e-07
91.7366768553097 -2.2469005535054e-14 2.33743420595984
0 0

0101101
*
Ed
 1e-07 1 1 0
1  1 0 0 6.28318530717959
2  1 1 0 0 6.28318530717959
2  2 2 0 0 6.28318530717959
0

0101000
+13 0 -13 0 *
Ve
1e-07
91.7366768553097 -2.2469005535054e-14 -2.33743420595984
0 0

0101101
*
Ed
 1e-07 1 1 0
1  2 0 0 4.67486841191967
3  3 4CN 1 0 0 4.67486841191967
0

0101000
-13 0 +11 0 *
Ed
 1e-07 1 1 0
1  3 0 0 6.28318530717959
2  5 1 0 0 6.28318530717959
2  6 3 0 0 6.28318530717959
0

0101000
+11 0 -11 0 *
Wi

0101100
-12 0 +10 0 +9 0 -10 0 *
Fa
0  1e-07 1 0

0111000
+8 0 *
Wi

0101100
+12 0 *
Fa
0  1e-07 2 0

0111000
+6 0 *
Wi

0101100
-9 0 *
Fa
0  1e-07 3 0

0111000
-4 0 *
Sh

0101100
+7 0 +5 0 -3 0 *
So

1100000
+2 0 *

+1 1 