DBRep_DrawableShape

CASCADE Topology V1, (c) Matra-Datavision
Locations 1
1
0.658050238947746 0.340296039714794 -0.671690768415975 -37.2075734126059 
-0.555253035897441 0.821832323204174 -0.127615432701166 -44.8049932247524 
0.508590158327401 0.456935704329677 0.729757365815003 -43.7324399798701 
Curve2ds 6
1 0 12.920367911747132 1 0 
2 0 0 1 0 -0 1 96.575902275424795
1 6.2831853071795862 -0 0 1 
1 0 -0 0 1 
1 0 0 1 0 
2 0 0 1 0 -0 1 96.575902275424795
Curves 3
2 0 0 6.4601839558735659 0 0 1 1 0 -0 -0 1 0 96.575902275424795
1 96.575902275424795 -2.3654273919273313e-14 -6.4601839558735659 0 0 1 
2 0 0 -6.4601839558735659 0 0 1 1 0 -0 -0 1 0 96.575902275424795
Polygon3D 0
PolygonOnTriangulations 0
Surfaces 3
2 0 0 -6.4601839558735659 0 0 1 1 0 -0 -0 1 0 96.575902275424795
1 0 0 6.4601839558735659 0 0 1 1 0 -0 -0 1 0 
1 0 0 -6.4601839558735659 0 0 1 1 0 -0 -0 1 0 
Triangulations 0

TShapes 13
Ve
1e-07
96.5759022754248 -2.36542739192733e-14 6.46018395587357
0 0

0101101
*
Ed
 1e-07 1 1 0
1  1 0 0 6.28318530717959
2  1 1 0 0 6.28318530717959
2  2 2 0 0 6.28318530717959
0

0101000
+13 0 -13 0 *
Ve
1e-07
96.5759022754248 -2.36542739192733e-14 -6.46018395587357
0 0

0101101
*
Ed
 1e-07 1 1 0
1  2 0 0 12.9203679117471
3  3 4CN 1 0 0 12.9203679117471
0

0101000
-13 0 +11 0 *
Ed
 1e-07 1 1 0
1  3 0 0 6.28318530717959
2  5 1 0 0 6.28318530717959
2  6 3 0 0 6.28318530717959
0

0101000
+11 0 -11 0 *
Wi

0101100
-12 0 +10 0 +9 0 -10 0 *
Fa
0  1e-07 1 0

0111000
+8 0 *
Wi

0101100
+12 0 *
Fa
0  1e-07 2 0

0111000
+6 0 *
Wi

0101100
-9 0 *
Fa
0  1e-07 3 0

0111000
-4 0 *
Sh

0101100
+7 0 +5 0 -3 0 *
So

1100000
+2 0 *

+1 1 