DBRep_DrawableShape

CASCADE Topology V1, (c) Matra-Datavision
Locations 1
1
0.395261109525679 -0.587816600722281 -0.705861388100973 24.1353358217598 
0.876932790399658 0.470203363451093 0.0994870751462159 -29.5448864816009 
0.273418244487083 -0.65831636840852 0.701328755055017 -43.3405259312462 
Curve2ds 6
1 0 9.0359278993086516 1 0 
2 0 0 1 0 -0 1 97.259846085112414
1 6.2831853071795862 -0 0 1 
1 0 -0 0 1 
1 0 0 1 0 
2 0 0 1 0 -0 1 97.259846085112414
Curves 3
2 0 0 4.5179639496543258 0 0 1 1 0 -0 -0 1 0 97.259846085112414
1 97.259846085112414 -2.3821791838739431e-14 -4.5179639496543258 0 0 1 
2 0 0 -4.5179639496543258 0 0 1 1 0 -0 -0 1 0 97.259846085112414
Polygon3D 0
PolygonOnTriangulations 0
Surfaces 3
2 0 0 -4.5179639496543258 0 0 1 1 0 -0 -0 1 0 97.259846085112414
1 0 0 4.5179639496543258 0 0 1 1 0 -0 -0 1 0 
1 0 0 -4.5179639496543258 0 0 1 1 0 -0 -0 1 0 
Triangulations 0

TShapes 13
Ve
1e-07
97.2598460851124 -2.38217918387394e-14 4.51796394965433
0 0

0101101
*
Ed
 1e-07 1 1 0
1  1 0 0 6.28318530717959
2  1 1 0 0 6.28318530717959
2  2 2 0 0 6.28318530717959
0

0101000
+13 0 -13 0 *
Ve
1e-07
97.2598460851124 -2.38217918387394e-14 -4.51796394965433
0 0

0101101
*
Ed
 1e-07 1 1 0
1  2 0 0 9.03592789930865
3  3 4CN 1 0 0 9.03592789930865
0

0101000
-13 0 +11 0 *
Ed
 1e-07 1 1 0
1  3 0 0 6.28318530717959
2  5 1 0 0 6.28318530717959
2  6 3 0 0 6.28318530717959
0

0101000
+11 0 -11 0 *
Wi

0101100
-12 0 +10 0 +9 0 -10 0 *
Fa
0  1e-07 1 0

0111000
+8 0 *
Wi

0101100
+12 0 *
Fa
0  1e-07 2 0

0111000
+6 0 *
Wi

0101100
-9 0 *
Fa
0  1e-07 3 0

0111000
-4 0 *
Sh

0101100
+7 0 +5 0 -3 0 *
So

1100000
+2 0 *

+1 1 