DBRep_DrawableShape

CASCADE Topology V1, (c) Matra-Datavision
Locations 1
1
0.652341721749473 -0.649000646696867 -0.391469588412666 -7.83719148230065 
0.494670630100278 0.755898644621171 -0.428856860474531 9.54429748126265 
0.5742397110799 0.0861127147808391 0.814145782137294 22.8030563119094 
Curve2ds 6
1 0 13.219415051463573 1 0 
2 0 0 1 0 -0 1 29.550587089957915
1 6.2831853071795862 -0 0 1 
1 0 -0 0 1 
1 0 0 1 0 
2 0 0 1 0 -0 1 29.550587089957915
Curves 3
2 0 0 6.6097075257317863 0 0 1 1 0 -0 -0 1 0 29.550587089957915
1 29.550587089957915 -7.2378063785284114e-15 -6.6097075257317863 0 0 1 
2 0 0 -6.6097075257317863 0 0 1 1 0 -0 -0 1 0 29.550587089957915
Polygon3D 0
PolygonOnTriangulations 0
Surfaces 3
2 0 0 -6.6097075257317863 0 0 1 1 0 -0 -0 1 0 29.550587089957915
1 0 0 6.6097075257317863 0 0 1 1 0 -0 -0 1 0 
1 0 0 -6.6097075257317863 0 0 1 1 0 -0 -0 1 0 
Triangulations 0

TShapes 13
Ve
1e-07
29.5505870899579 -7.23780637852841e-15 6.60970752573179
0 0

0101101
*
Ed
 1e-07 1 1 0
1  1 0 0 6.28318530717959
2  1 1 0 0 6.28318530717959
2  2 2 0 0 6.28318530717959
0

0101000
+13 0 -13 0 *
Ve
1e-07
29.5505870899579 -7.23780637852841e-15 -6.60970752573179
0 0

0101101
*
Ed
 1e-07 1 1 0
1  2 0 0 13.2194150514636
3  3 4CN 1 0 0 13.2194150514636
0

0101000
-13 0 +11 0 *
Ed
 1e-07 1 1 0
1  3 0 0 6.28318530717959
2  5 1 0 0 6.28318530717959
2  6 3 0 0 6.28318530717959
0

0101000
+11 0 -11 0 *
Wi

0101100
-12 0 +10 0 +9 0 -10 0 *
Fa
0  1e-07 1 0

0111000
+8 0 *
Wi

0101100
+12 0 *
Fa
0  1e-07 2 0

0111000
+6 0 *
Wi

0101100
-9 0 *
Fa
0  1e-07 3 0

0111000
-4 0 *
Sh

0101100
+7 0 +5 0 -3 0 *
So

1100000
+2 0 *

+1 1 