DBRep_DrawableShape

CASCADE Topology V1, (c) Matra-Datavision
Locations 1
1
0.666478111095075 0.609788661224319 0.428911081779654 -13.856303730164 
-0.00459684709621683 0.578664777344971 -0.815552539360322 -10.2041167735496 
-0.745510426773438 0.541576277270845 0.388470512998784 32.317930318416 
Curve2ds 6
1 0 10.770484692597226 1 0 
2 0 0 1 0 -0 1 52.459905965304436
1 6.2831853071795862 -0 0 1 
1 0 -0 0 1 
1 0 0 1 0 
2 0 0 1 0 -0 1 52.459905965304436
Curves 3
2 0 0 5.3852423462986128 0 0 1 1 0 -0 -0 1 0 52.459905965304436
1 52.459905965304436 -1.2848971184796244e-14 -5.3852423462986128 0 0 1 
2 0 0 -5.3852423462986128 0 0 1 1 0 -0 -0 1 0 52.459905965304436
Polygon3D 0
PolygonOnTriangulations 0
Surfaces 3
2 0 0 -5.3852423462986128 0 0 1 1 0 -0 -0 1 0 52.459905965304436
1 0 0 5.3852423462986128 0 0 1 1 0 -0 -0 1 0 
1 0 0 -5.3852423462986128 0 0 1 1 0 -0 -0 1 0 
Triangulations 0

TShapes 13
Ve
1e-07
52.4599059653044 -1.28489711847962e-14 5.38524234629861
0 0

0101101
*
Ed
 1e-07 1 1 0
1  1 0 0 6.28318530717959
2  1 1 0 0 6.28318530717959
2  2 2 0 0 6.28318530717959
0

0101000
+13 0 -13 0 *
Ve
1e-07
52.4599059653044 -1.28489711847962e-14 -5.38524234629861
0 0

0101101
*
Ed
 1e-07 1 1 0
1  2 0 0 10.7704846925972
3  3 4CN 1 0 0 10.7704846925972
0

0101000
-13 0 +11 0 *
Ed
 1e-07 1 1 0
1  3 0 0 6.28318530717959
2  5 1 0 0 6.28318530717959
2  6 3 0 0 6.28318530717959
0

0101000
+11 0 -11 0 *
Wi

0101100
-12 0 +10 0 +9 0 -10 0 *
Fa
0  1e-07 1 0

0111000
+8 0 *
Wi

0101100
+12 0 *
Fa
0  1e-07 2 0

0111000
+6 0 *
Wi

0101100
-9 0 *
Fa
0  1e-07 3 0

0111000
-4 0 *
Sh

0101100
+7 0 +5 0 -3 0 *
So

1100000
+2 0 *

+1 1 