DBRep_DrawableShape

CASCADE Topology V1, (c) Matra-Datavision
Locations 1
1
0.97950011731756 0.162479637965116 -0.119079332470462 -23.3783504274828 
-0.195968304935669 0.905452310262188 -0.376500381542313 -7.8954590276949 
0.046647011003136 0.392117942827909 0.918731503365854 -6.99901472462064 
Curve2ds 6
1 0 13.261657780506516 1 0 
2 0 0 1 0 -0 1 24.975014967830877
1 6.2831853071795862 -0 0 1 
1 0 -0 0 1 
1 0 0 1 0 
2 0 0 1 0 -0 1 24.975014967830877
Curves 3
2 0 0 6.6308288902532579 0 0 1 1 0 -0 -0 1 0 24.975014967830877
1 24.975014967830877 -6.117114427802264e-15 -6.6308288902532579 0 0 1 
2 0 0 -6.6308288902532579 0 0 1 1 0 -0 -0 1 0 24.975014967830877
Polygon3D 0
PolygonOnTriangulations 0
Surfaces 3
2 0 0 -6.6308288902532579 0 0 1 1 0 -0 -0 1 0 24.975014967830877
1 0 0 6.6308288902532579 0 0 1 1 0 -0 -0 1 0 
1 0 0 -6.6308288902532579 0 0 1 1 0 -0 -0 1 0 
Triangulations 0

TShapes 13
Ve
1e-07
24.9750149678309 -6.11711442780226e-15 6.63082889025326
0 0

0101101
*
Ed
 1e-07 1 1 0
1  1 0 0 6.28318530717959
2  1 1 0 0 6.28318530717959
2  2 2 0 0 6.28318530717959
0

0101000
+13 0 -13 0 *
Ve
1e-07
24.9750149678309 -6.11711442780226e-15 -6.63082889025326
0 0

0101101
*
Ed
 1e-07 1 1 0
1  2 0 0 13.2616577805065
3  3 4CN 1 0 0 13.2616577805065
0

0101000
-13 0 +11 0 *
Ed
 1e-07 1 1 0
1  3 0 0 6.28318530717959
2  5 1 0 0 6.28318530717959
2  6 3 0 0 6.28318530717959
0

0101000
+11 0 -11 0 *
Wi

0101100
-12 0 +10 0 +9 0 -10 0 *
Fa
0  1e-07 1 0

0111000
+8 0 *
Wi

0101100
+12 0 *
Fa
0  1e-07 2 0

0111000
+6 0 *
Wi

0101100
-9 0 *
Fa
0  1e-07 3 0

0111000
-4 0 *
Sh

0101100
+7 0 +5 0 -3 0 *
So

1100000
+2 0 *

+1 1 