DBRep_DrawableShape

CASCADE Topology V1, (c) Matra-Datavision
Locations 1
1
0.513468215944481 -0.832803152786913 -0.206855746652031 -40.7660157369048 
0.487641737616398 0.0848327580066697 0.868912503594834 -49.6367742085306 
-0.706084928991727 -0.547030448766026 0.449668501424759 9.48424560031101 
Curve2ds 6
1 0 10.27162738276223 1 0 
2 0 0 1 0 -0 1 68.632804923232243
1 6.2831853071795862 -0 0 1 
1 0 -0 0 1 
1 0 0 1 0 
2 0 0 1 0 -0 1 68.632804923232243
Curves 3
2 0 0 5.1358136913811148 0 0 1 1 0 -0 -0 1 0 68.632804923232243
1 68.632804923232243 -1.6810188973148213e-14 -5.1358136913811148 0 0 1 
2 0 0 -5.1358136913811148 0 0 1 1 0 -0 -0 1 0 68.632804923232243
Polygon3D 0
PolygonOnTriangulations 0
Surfaces 3
2 0 0 -5.1358136913811148 0 0 1 1 0 -0 -0 1 0 68.632804923232243
1 0 0 5.1358136913811148 0 0 1 1 0 -0 -0 1 0 
1 0 0 -5.1358136913811148 0 0 1 1 0 -0 -0 1 0 
Triangulations 0

TShapes 13
Ve
1e-07
68.6328049232322 -1.68101889731482e-14 5.13581369138111
0 0

0101101
*
Ed
 1e-07 1 1 0
1  1 0 0 6.28318530717959
2  1 1 0 0 6.28318530717959
2  2 2 0 0 6.28318530717959
0

0101000
+13 0 -13 0 *
Ve
1e-07
68.6328049232322 -1.68101889731482e-14 -5.13581369138111
0 0

0101101
*
Ed
 1e-07 1 1 0
1  2 0 0 10.2716273827622
3  3 4CN 1 0 0 10.2716273827622
0

0101000
-13 0 +11 0 *
Ed
 1e-07 1 1 0
1  3 0 0 6.28318530717959
2  5 1 0 0 6.28318530717959
2  6 3 0 0 6.28318530717959
0

0101000
+11 0 -11 0 *
Wi

0101100
-12 0 +10 0 +9 0 -10 0 *
Fa
0  1e-07 1 0

0111000
+8 0 *
Wi

0101100
+12 0 *
Fa
0  1e-07 2 0

0111000
+6 0 *
Wi

0101100
-9 0 *
Fa
0  1e-07 3 0

0111000
-4 0 *
Sh

0101100
+7 0 +5 0 -3 0 *
So

1100000
+2 0 *

+1 1 