DBRep_DrawableShape

CASCADE Topology V1, (c) Matra-Datavision
Locations 1
1
0.00902693530484555 -0.0186836782366352 0.999784694124966 32.9079445477205 
0.999911945591988 0.00989440345071985 -0.00884318058171764 47.3594908044449 
-0.00972704998694968 0.999776485494585 0.0187713491962383 -29.9715297311172 
Curve2ds 6
1 0 13.78338908107165 1 0 
2 0 0 1 0 -0 1 64.46159240951043
1 6.2831853071795862 -0 0 1 
1 0 -0 0 1 
1 0 0 1 0 
2 0 0 1 0 -0 1 64.46159240951043
Curves 3
2 0 0 6.8916945405358252 0 0 1 1 0 -0 -0 1 0 64.46159240951043
1 64.46159240951043 -1.5788536562449653e-14 -6.8916945405358252 0 0 1 
2 0 0 -6.8916945405358252 0 0 1 1 0 -0 -0 1 0 64.46159240951043
Polygon3D 0
PolygonOnTriangulations 0
Surfaces 3
2 0 0 -6.8916945405358252 0 0 1 1 0 -0 -0 1 0 64.46159240951043
1 0 0 6.8916945405358252 0 0 1 1 0 -0 -0 1 0 
1 0 0 -6.8916945405358252 0 0 1 1 0 -0 -0 1 0 
Triangulations 0

TShapes 13
Ve
1e-07
64.4615924095104 -1.57885365624497e-14 6.89169454053583
0 0

0101101
*
Ed
 1e-07 1 1 0
1  1 0 0 6.28318530717959
2  1 1 0 0 6.28318530717959
2  2 2 0 0 6.28318530717959
0

0101000
+13 0 -13 0 *
Ve
1e-07
64.4615924095104 -1.57885365624497e-14 -6.89169454053583
0 0

0101101
*
Ed
 1e-07 1 1 0
1  2 0 0 13.7833890810717
3  3 4CN 1 0 0 13.7833890810717
0

0101000
-13 0 +11 0 *
Ed
 1e-07 1 1 0
1  3 0 0 6.28318530717959
2  5 1 0 0 6.28318530717959
2  6 3 0 0 6.28318530717959
0

0101000
+11 0 -11 0 *
Wi

0101100
-12 0 +10 0 +9 0 -10 0 *
Fa
0  1e-07 1 0

0111000
+8 0 *
Wi

0101100
+12 0 *
Fa
0  1e-07 2 0

0111000
+6 0 *
Wi

0101100
-9 0 *
Fa
0  1e-07 3 0

0111000
-4 0 *
Sh

0101100
+7 0 +5 0 -3 0 *
So

1100000
+2 0 *

+1 1 