DBRep_DrawableShape

CASCADE Topology V1, (c) Matra-Datavision
Locations 1
1
0.247304261253431 0.9627852253649 -0.109019320237073 48.6306305888982 
-0.88533040529054 0.270251576396849 0.378357184315438 -25.1283943019825 
0.39373935012135 0.002948775012929 0.919217400233449 16.2726384606155 
Curve2ds 6
1 0 2.4404493735323509 1 0 
2 0 0 1 0 -0 1 35.60589634082254
1 6.2831853071795862 -0 0 1 
1 0 -0 0 1 
1 0 0 1 0 
2 0 0 1 0 -0 1 35.60589634082254
Curves 3
2 0 0 1.2202246867661755 0 0 1 1 0 -0 -0 1 0 35.60589634082254
1 35.60589634082254 -8.7209293969121551e-15 -1.2202246867661755 0 0 1 
2 0 0 -1.2202246867661755 0 0 1 1 0 -0 -0 1 0 35.60589634082254
Polygon3D 0
PolygonOnTriangulations 0
Surfaces 3
2 0 0 -1.2202246867661755 0 0 1 1 0 -0 -0 1 0 35.60589634082254
1 0 0 1.2202246867661755 0 0 1 1 0 -0 -0 1 0 
1 0 0 -1.2202246867661755 0 0 1 1 0 -0 -0 1 0 
Triangulations 0

TShapes 13
Ve
1e-07
35.6058963408225 -8.72092939691216e-15 1.22022468676618
0 0

0101101
*
Ed
 1e-07 1 1 0
1  1 0 0 6.28318530717959
2  1 1 0 0 6.28318530717959
2  2 2 0 0 6.28318530717959
0

0101000
+13 0 -13 0 *
Ve
1e-07
35.6058963408225 -8.72092939691216e-15 -1.22022468676618
0 0

0101101
*
Ed
 1e-07 1 1 0
1  2 0 0 2.44044937353235
3  3 4CN 1 0 0 2.44044937353235
0

0101000
-13 0 +11 0 *
Ed
 1e-07 1 1 0
1  3 0 0 6.28318530717959
2  5 1 0 0 6.28318530717959
2  6 3 0 0 6.28318530717959
0

0101000
+11 0 -11 0 *
Wi

0101100
-12 0 +10 0 +9 0 -10 0 *
Fa
0  1e-07 1 0

0111000
+8 0 *
Wi

0101100
+12 0 *
Fa
0  1e-07 2 0

0111000
+6 0 *
Wi

0101100
-9 0 *
Fa
0  1e-07 3 0

0111000
-4 0 *
Sh

0101100
+7 0 +5 0 -3 0 *
So

1100000
+2 0 *

+1 1 