DBRep_DrawableShape

CASCADE Topology V1, (c) Matra-Datavision
Locations 1
1
0.143451101030167 0.445044438451011 -0.883944132520295 -47.2976530179514 
-0.95950569946487 0.281337760252379 -0.0140668884479364 25.5850325433901 
0.242426471961427 0.850167343797678 0.467380886678452 4.47390962610843 
Curve2ds 6
1 0 14.976256158277499 1 0 
2 0 0 1 0 -0 1 55.918815503837351
1 6.2831853071795862 -0 0 1 
1 0 -0 0 1 
1 0 0 1 0 
2 0 0 1 0 -0 1 55.918815503837351
Curves 3
2 0 0 7.4881280791387494 0 0 1 1 0 -0 -0 1 0 55.918815503837351
1 55.918815503837351 -1.369615968377716e-14 -7.4881280791387494 0 0 1 
2 0 0 -7.4881280791387494 0 0 1 1 0 -0 -0 1 0 55.918815503837351
Polygon3D 0
PolygonOnTriangulations 0
Surfaces 3
2 0 0 -7.4881280791387494 0 0 1 1 0 -0 -0 1 0 55.918815503837351
1 0 0 7.4881280791387494 0 0 1 1 0 -0 -0 1 0 
1 0 0 -7.4881280791387494 0 0 1 1 0 -0 -0 1 0 
Triangulations 0

TShapes 13
Ve
1e-07
55.9188155038374 -1.36961596837772e-14 7.48812807913875
0 0

0101101
*
Ed
 1e-07 1 1 0
1  1 0 0 6.28318530717959
2  1 1 0 0 6.28318530717959
2  2 2 0 0 6.28318530717959
0

0101000
+13 0 -13 0 *
Ve
1e-07
55.9188155038374 -1.36961596837772e-14 -7.48812807913875
0 0

0101101
*
Ed
 1e-07 1 1 0
1  2 0 0 14.9762561582775
3  3 4CN 1 0 0 14.9762561582775
0

0101000
-13 0 +11 0 *
Ed
 1e-07 1 1 0
1  3 0 0 6.28318530717959
2  5 1 0 0 6.28318530717959
2  6 3 0 0 6.28318530717959
0

0101000
+11 0 -11 0 *
Wi

0101100
-12 0 +10 0 +9 0 -10 0 *
Fa
0  1e-07 1 0

0111000
+8 0 *
Wi

0101100
+12 0 *
Fa
0  1e-07 2 0

0111000
+6 0 *
Wi

0101100
-9 0 *
Fa
0  1e-07 3 0

0111000
-4 0 *
Sh

0101100
+7 0 +5 0 -3 0 *
So

1100000
+2 0 *

+1 1 