DBRep_DrawableShape

CASCADE Topology V1, (c) Matra-Datavision
Locations 1
1
0.0729820056618794 -0.0533065810579094 -0.995907643943697 49.9250123294953 
0.591557497333806 0.806262791790485 0.000194736687047826 -49.1103079010368 
0.802952896624537 -0.589150845700937 0.0903765833174544 -13.1580749358915 
Curve2ds 6
1 0 6.8865068902676461 1 0 
2 0 0 1 0 -0 1 44.776980610845499
1 6.2831853071795862 -0 0 1 
1 0 -0 0 1 
1 0 0 1 0 
2 0 0 1 0 -0 1 44.776980610845499
Curves 3
2 0 0 3.443253445133823 0 0 1 1 0 -0 -0 1 0 44.776980610845499
1 44.776980610845499 -1.0967197196111007e-14 -3.443253445133823 0 0 1 
2 0 0 -3.443253445133823 0 0 1 1 0 -0 -0 1 0 44.776980610845499
Polygon3D 0
PolygonOnTriangulations 0
Surfaces 3
2 0 0 -3.443253445133823 0 0 1 1 0 -0 -0 1 0 44.776980610845499
1 0 0 3.443253445133823 0 0 1 1 0 -0 -0 1 0 
1 0 0 -3.443253445133823 0 0 1 1 0 -0 -0 1 0 
Triangulations 0

TShapes 13
Ve
1e-07
44.7769806108455 -1.0967197196111e-14 3.44325344513382
0 0

0101101
*
Ed
 1e-07 1 1 0
1  1 0 0 6.28318530717959
2  1 1 0 0 6.28318530717959
2  2 2 0 0 6.28318530717959
0

0101000
+13 0 -13 0 *
Ve
1e-07
44.7769806108455 -1.0967197196111e-14 -3.44325344513382
0 0

0101101
*
Ed
 1e-07 1 1 0
1  2 0 0 6.88650689026765
3  3 4CN 1 0 0 6.88650689026765
0

0101000
-13 0 +11 0 *
Ed
 1e-07 1 1 0
1  3 0 0 6.28318530717959
2  5 1 0 0 6.28318530717959
2  6 3 0 0 6.28318530717959
0

0101000
+11 0 -11 0 *
Wi

0101100
-12 0 +10 0 +9 0 -10 0 *
Fa
0  1e-07 1 0

0111000
+8 0 *
Wi

0101100
+12 0 *
Fa
0  1e-07 2 0

0111000
+6 0 *
Wi

0101100
-9 0 *
Fa
0  1e-07 3 0

0111000
-4 0 *
Sh

0101100
+7 0 +5 0 -3 0 *
So

1100000
+2 0 *

+1 1 