DBRep_DrawableShape

CASCADE Topology V1, (c) Matra-Datavision
Locations 1
1
0.209698255303155 -0.776800920345111 -0.593807184087396 -31.8559338182918 
0.231604189158944 -0.550564524644238 0.802021323760966 -2.37495029999151 
-0.949940072471333 -0.305710703695918 0.0644579270447433 -20.8627465440387 
Curve2ds 6
1 0 8.2983131970795636 1 0 
2 0 0 1 0 -0 1 20.786266751107139
1 6.2831853071795862 -0 0 1 
1 0 -0 0 1 
1 0 0 1 0 
2 0 0 1 0 -0 1 20.786266751107139
Curves 3
2 0 0 4.1491565985397818 0 0 1 1 0 -0 -0 1 0 20.786266751107139
1 20.786266751107139 -5.0911670085932819e-15 -4.1491565985397818 0 0 1 
2 0 0 -4.1491565985397818 0 0 1 1 0 -0 -0 1 0 20.786266751107139
Polygon3D 0
PolygonOnTriangulations 0
Surfaces 3
2 0 0 -4.1491565985397818 0 0 1 1 0 -0 -0 1 0 20.786266751107139
1 0 0 4.1491565985397818 0 0 1 1 0 -0 -0 1 0 
1 0 0 -4.1491565985397818 0 0 1 1 0 -0 -0 1 0 
Triangulations 0

TShapes 13
Ve
1e-07
20.7862667511071 -5.09116700859328e-15 4.14915659853978
0 0

0101101
*
Ed
 1e-07 1 1 0
1  1 0 0 6.28318530717959
2  1 1 0 0 6.28318530717959
2  2 2 0 0 6.28318530717959
0

0101000
+13 0 -13 0 *
Ve
1e-07
20.7862667511071 -5.09116700859328e-15 -4.14915659853978
0 0

0101101
*
Ed
 1e-07 1 1 0
1  2 0 0 8.29831319707956
3  3 4CN 1 0 0 8.29831319707956
0

0101000
-13 0 +11 0 *
Ed
 1e-07 1 1 0
1  3 0 0 6.28318530717959
2  5 1 0 0 6.28318530717959
2  6 3 0 0 6.28318530717959
0

0101000
+11 0 -11 0 *
Wi

0101100
-12 0 +10 0 +9 0 -10 0 *
Fa
0  1e-07 1 0

0111000
+8 0 *
Wi

0101100
+12 0 *
Fa
0  1e-07 2 0

0111000
+6 0 *
Wi

0101100
-9 0 *
Fa
0  1e-07 3 0

0111000
-4 0 *
Sh

0101100
+7 0 +5 0 -3 0 *
So

1100000
+2 0 *

+1 1 