DBRep_DrawableShape

CASCADE Topology V1, (c) Matra-Datavision
Locations 1
1
0.0269763982831486 -0.0738955235924443 0.996901061053035 -33.6892866219722 
0.167329862728436 0.983527028032789 0.0683761812934317 47.6997380844172 
-0.985531831538156 0.164966774600184 0.0388969446494235 -9.06043446375728 
Curve2ds 6
1 0 9.8560998412022016 1 0 
2 0 0 1 0 -0 1 73.645989484559351
1 6.2831853071795862 -0 0 1 
1 0 -0 0 1 
1 0 0 1 0 
2 0 0 1 0 -0 1 73.645989484559351
Curves 3
2 0 0 4.9280499206011008 0 0 1 1 0 -0 -0 1 0 73.645989484559351
1 73.645989484559351 -1.8038065058461048e-14 -4.9280499206011008 0 0 1 
2 0 0 -4.9280499206011008 0 0 1 1 0 -0 -0 1 0 73.645989484559351
Polygon3D 0
PolygonOnTriangulations 0
Surfaces 3
2 0 0 -4.9280499206011008 0 0 1 1 0 -0 -0 1 0 73.645989484559351
1 0 0 4.9280499206011008 0 0 1 1 0 -0 -0 1 0 
1 0 0 -4.9280499206011008 0 0 1 1 0 -0 -0 1 0 
Triangulations 0

TShapes 13
Ve
1e-07
73.6459894845594 -1.8038065058461e-14 4.9280499206011
0 0

0101101
*
Ed
 1e-07 1 1 0
1  1 0 0 6.28318530717959
2  1 1 0 0 6.28318530717959
2  2 2 0 0 6.28318530717959
0

0101000
+13 0 -13 0 *
Ve
1e-07
73.6459894845594 -1.8038065058461e-14 -4.9280499206011
0 0

0101101
*
Ed
 1e-07 1 1 0
1  2 0 0 9.8560998412022
3  3 4CN 1 0 0 9.8560998412022
0

0101000
-13 0 +11 0 *
Ed
 1e-07 1 1 0
1  3 0 0 6.28318530717959
2  5 1 0 0 6.28318530717959
2  6 3 0 0 6.28318530717959
0

0101000
+11 0 -11 0 *
Wi

0101100
-12 0 +10 0 +9 0 -10 0 *
Fa
0  1e-07 1 0

0111000
+8 0 *
Wi

0101100
+12 0 *
Fa
0  1e-07 2 0

0111000
+6 0 *
Wi

0101100
-9 0 *
Fa
0  1e-07 3 0

0111000
-4 0 *
Sh

0101100
+7 0 +5 0 -3 0 *
So

1100000
+2 0 *

+1 1 