DBRep_DrawableShape

CASCADE Topology V1, (c) Matra-Datavision
Locations 1
1
0.874056929892252 -0.124212423088388 0.46967622598748 -28.7981261811291 
-0.0222681110052921 0.955503892561763 0.294136775211082 -32.0819868453022 
-0.485312903743129 -0.267551089046241 0.832398822807062 40.1737348520217 
Curve2ds 6
1 0 11.260784843563522 1 0 
2 0 0 1 0 -0 1 26.668207646369716
1 6.2831853071795862 -0 0 1 
1 0 -0 0 1 
1 0 0 1 0 
2 0 0 1 0 -0 1 26.668207646369716
Curves 3
2 0 0 5.6303924217817611 0 0 1 1 0 -0 -0 1 0 26.668207646369716
1 26.668207646369716 -6.5318270266247285e-15 -5.6303924217817611 0 0 1 
2 0 0 -5.6303924217817611 0 0 1 1 0 -0 -0 1 0 26.668207646369716
Polygon3D 0
PolygonOnTriangulations 0
Surfaces 3
2 0 0 -5.6303924217817611 0 0 1 1 0 -0 -0 1 0 26.668207646369716
1 0 0 5.6303924217817611 0 0 1 1 0 -0 -0 1 0 
1 0 0 -5.6303924217817611 0 0 1 1 0 -0 -0 1 0 
Triangulations 0

TShapes 13
Ve
1e-07
26.6682076463697 -6.53182702662473e-15 5.63039242178176
0 0

0101101
*
Ed
 1e-07 1 1 0
1  1 0 0 6.28318530717959
2  1 1 0 0 6.28318530717959
2  2 2 0 0 6.28318530717959
0

0101000
+13 0 -13 0 *
Ve
1e-07
26.6682076463697 -6.53182702662473e-15 -5.63039242178176
0 0

0101101
*
Ed
 1e-07 1 1 0
1  2 0 0 11.2607848435635
3  3 4CN 1 0 0 11.2607848435635
0

0101000
-13 0 +11 0 *
Ed
 1e-07 1 1 0
1  3 0 0 6.28318530717959
2  5 1 0 0 6.28318530717959
2  6 3 0 0 6.28318530717959
0

0101000
+11 0 -11 0 *
Wi

0101100
-12 0 +10 0 +9 0 -10 0 *
Fa
0  1e-07 1 0

0111000
+8 0 *
Wi

0101100
+12 0 *
Fa
0  1e-07 2 0

0111000
+6 0 *
Wi

0101100
-9 0 *
Fa
0  1e-07 3 0

0111000
-4 0 *
Sh

0101100
+7 0 +5 0 -3 0 *
So

1100000
+2 0 *

+1 1 