DBRep_DrawableShape

CASCADE Topology V1, (c) Matra-Datavision
Locations 1
1
0.618613890118827 0.302751509240164 -0.725023019362044 4.8168366884322 
-0.554083738543866 0.822346813633004 -0.129371282705624 -8.18321379588636 
0.557053018691493 0.481754337562672 0.676464849497922 -21.0571276976912 
Curve2ds 6
1 0 7.3961420676344023 1 0 
2 0 0 1 0 -0 1 86.142236676101206
1 6.2831853071795862 -0 0 1 
1 0 -0 0 1 
1 0 0 1 0 
2 0 0 1 0 -0 1 86.142236676101206
Curves 3
2 0 0 3.6980710338172011 0 0 1 1 0 -0 -0 1 0 86.142236676101206
1 86.142236676101206 -2.1098762883356217e-14 -3.6980710338172011 0 0 1 
2 0 0 -3.6980710338172011 0 0 1 1 0 -0 -0 1 0 86.142236676101206
Polygon3D 0
PolygonOnTriangulations 0
Surfaces 3
2 0 0 -3.6980710338172011 0 0 1 1 0 -0 -0 1 0 86.142236676101206
1 0 0 3.6980710338172011 0 0 1 1 0 -0 -0 1 0 
1 0 0 -3.6980710338172011 0 0 1 1 0 -0 -0 1 0 
Triangulations 0

TShapes 13
Ve
1e-07
86.1422366761012 -2.10987628833562e-14 3.6980710338172
0 0

0101101
*
Ed
 1e-07 1 1 0
1  1 0 0 6.28318530717959
2  1 1 0 0 6.28318530717959
2  2 2 0 0 6.28318530717959
0

0101000
+13 0 -13 0 *
Ve
1e-07
86.1422366761012 -2.10987628833562e-14 -3.6980710338172
0 0

0101101
*
Ed
 1e-07 1 1 0
1  2 0 0 7.3961420676344
3  3 4CN 1 0 0 7.3961420676344
0

0101000
-13 0 +11 0 *
Ed
 1e-07 1 1 0
1  3 0 0 6.28318530717959
2  5 1 0 0 6.28318530717959
2  6 3 0 0 6.28318530717959
0

0101000
+11 0 -11 0 *
Wi

0101100
-12 0 +10 0 +9 0 -10 0 *
Fa
0  1e-07 1 0

0111000
+8 0 *
Wi

0101100
+12 0 *
Fa
0  1e-07 2 0

0111000
+6 0 *
Wi

0101100
-9 0 *
Fa
0  1e-07 3 0

0111000
-4 0 *
Sh

0101100
+7 0 +5 0 -3 0 *
So

1100000
+2 0 *

+1 1 