DBRep_DrawableShape

CASCADE Topology V1, (c) Matra-Datavision
Locations 1
1
0.512493275644192 -0.847675810351857 0.137099828460172 1.91015542566898 
0.434389516931062 0.393656292306672 0.81014842535659 32.8099918327981 
-0.740713433116941 -0.355640892012837 0.569967688495084 25.4642915146802 
Curve2ds 6
1 0 7.2103709308380477 1 0 
2 0 0 1 0 -0 1 32.537640451443842
1 6.2831853071795862 -0 0 1 
1 0 -0 0 1 
1 0 0 1 0 
2 0 0 1 0 -0 1 32.537640451443842
Curves 3
2 0 0 3.6051854654190238 0 0 1 1 0 -0 -0 1 0 32.537640451443842
1 32.537640451443842 -7.969423446133628e-15 -3.6051854654190238 0 0 1 
2 0 0 -3.6051854654190238 0 0 1 1 0 -0 -0 1 0 32.537640451443842
Polygon3D 0
PolygonOnTriangulations 0
Surfaces 3
2 0 0 -3.6051854654190238 0 0 1 1 0 -0 -0 1 0 32.537640451443842
1 0 0 3.6051854654190238 0 0 1 1 0 -0 -0 1 0 
1 0 0 -3.6051854654190238 0 0 1 1 0 -0 -0 1 0 
Triangulations 0

TShapes 13
Ve
1e-07
32.5376404514438 -7.96942344613363e-15 3.60518546541902
0 0

0101101
*
Ed
 1e-07 1 1 0
1  1 0 0 6.28318530717959
2  1 1 0 0 6.28318530717959
2  2 2 0 0 6.28318530717959
0

0101000
+13 0 -13 0 *
Ve
1e-07
32.5376404514438 -7.96942344613363e-15 -3.60518546541902
0 0

0101101
*
Ed
 1e-07 1 1 0
1  2 0 0 7.21037093083805
3  3 4CN 1 0 0 7.21037093083805
0

0101000
-13 0 +11 0 *
Ed
 1e-07 1 1 0
1  3 0 0 6.28318530717959
2  5 1 0 0 6.28318530717959
2  6 3 0 0 6.28318530717959
0

0101000
+11 0 -11 0 *
Wi

0101100
-12 0 +10 0 +9 0 -10 0 *
Fa
0  1e-07 1 0

0111000
+8 0 *
Wi

0101100
+12 0 *
Fa
0  1e-07 2 0

0111000
+6 0 *
Wi

0101100
-9 0 *
Fa
0  1e-07 3 0

0111000
-4 0 *
Sh

0101100
+7 0 +5 0 -3 0 *
So

1100000
+2 0 *

+1 1 