DBRep_DrawableShape

CASCADE Topology V1, (c) Matra-Datavision
Locations 1
1
0.138401821525126 0.44042110952722 0.887059288932448 40.6602218240286 
-0.946766351809781 -0.204023144708006 0.249014119086155 42.5704362694985 
0.290651700286313 -0.874301894488551 0.38873871226623 45.8012199991919 
Curve2ds 6
1 0 14.462805201806848 1 0 
2 0 0 1 0 -0 1 85.208196608390082
1 6.2831853071795862 -0 0 1 
1 0 -0 0 1 
1 0 0 1 0 
2 0 0 1 0 -0 1 85.208196608390082
Curves 3
2 0 0 7.231402600903424 0 0 1 1 0 -0 -0 1 0 85.208196608390082
1 85.208196608390082 -2.0869989047516654e-14 -7.231402600903424 0 0 1 
2 0 0 -7.231402600903424 0 0 1 1 0 -0 -0 1 0 85.208196608390082
Polygon3D 0
PolygonOnTriangulations 0
Surfaces 3
2 0 0 -7.231402600903424 0 0 1 1 0 -0 -0 1 0 85.208196608390082
1 0 0 7.231402600903424 0 0 1 1 0 -0 -0 1 0 
1 0 0 -7.231402600903424 0 0 1 1 0 -0 -0 1 0 
Triangulations 0

TShapes 13
Ve
1e-07
85.2081966083901 -2.08699890475167e-14 7.23140260090342
0 0

0101101
*
Ed
 1e-07 1 1 0
1  1 0 0 6.28318530717959
2  1 1 0 0 6.28318530717959
2  2 2 0 0 6.28318530717959
0

0101000
+13 0 -13 0 *
Ve
1e-07
85.2081966083901 -2.08699890475167e-14 -7.23140260090342
0 0

0101101
*
Ed
 1e-07 1 1 0
1  2 0 0 14.4628052018068
3  3 4CN 1 0 0 14.4628052018068
0

0101000
-13 0 +11 0 *
Ed
 1e-07 1 1 0
1  3 0 0 6.28318530717959
2  5 1 0 0 6.28318530717959
2  6 3 0 0 6.28318530717959
0

0101000
+11 0 -11 0 *
Wi

0101100
-12 0 +10 0 +9 0 -10 0 *
Fa
0  1e-07 1 0

0111000
+8 0 *
Wi

0101100
+12 0 *
Fa
0  1e-07 2 0

0111000
+6 0 *
Wi

0101100
-9 0 *
Fa
0  1e-07 3 0

0111000
-4 0 *
Sh

0101100
+7 0 +5 0 -3 0 *
So

1100000
+2 0 *

+1 1 