DBRep_DrawableShape

CASCADE Topology V1, (c) Matra-Datavision
Locations 1
1
0.837273709545922 -0.506856116082019 -0.205108783072449 -25.4916504383837 
-0.0521007567027102 0.299457181270111 -0.952686153849611 18.5842522446039 
0.544296101817949 0.808345392871148 0.224320037824922 17.9723925609826 
Curve2ds 6
1 0 2.9544359800087641 1 0 
2 0 0 1 0 -0 1 61.462484872351823
1 6.2831853071795862 -0 0 1 
1 0 -0 0 1 
1 0 0 1 0 
2 0 0 1 0 -0 1 61.462484872351823
Curves 3
2 0 0 1.477217990004382 0 0 1 1 0 -0 -0 1 0 61.462484872351823
1 61.462484872351823 -1.5053967073313654e-14 -1.477217990004382 0 0 1 
2 0 0 -1.477217990004382 0 0 1 1 0 -0 -0 1 0 61.462484872351823
Polygon3D 0
PolygonOnTriangulations 0
Surfaces 3
2 0 0 -1.477217990004382 0 0 1 1 0 -0 -0 1 0 61.462484872351823
1 0 0 1.477217990004382 0 0 1 1 0 -0 -0 1 0 
1 0 0 -1.477217990004382 0 0 1 1 0 -0 -0 1 0 
Triangulations 0

TShapes 13
Ve
1e-07
61.4624848723518 -1.50539670733137e-14 1.47721799000438
0 0

0101101
*
Ed
 1e-07 1 1 0
1  1 0 0 6.28318530717959
2  1 1 0 0 6.28318530717959
2  2 2 0 0 6.28318530717959
0

0101000
+13 0 -13 0 *
Ve
1e-07
61.4624848723518 -1.50539670733137e-14 -1.47721799000438
0 0

0101101
*
Ed
 1e-07 1 1 0
1  2 0 0 2.95443598000876
3  3 4CN 1 0 0 2.95443598000876
0

0101000
-13 0 +11 0 *
Ed
 1e-07 1 1 0
1  3 0 0 6.28318530717959
2  5 1 0 0 6.28318530717959
2  6 3 0 0 6.28318530717959
0

0101000
+11 0 -11 0 *
Wi

0101100
-12 0 +10 0 +9 0 -10 0 *
Fa
0  1e-07 1 0

0111000
+8 0 *
Wi

0101100
+12 0 *
Fa
0  1e-07 2 0

0111000
+6 0 *
Wi

0101100
-9 0 *
Fa
0  1e-07 3 0

0111000
-4 0 *
Sh

0101100
+7 0 +5 0 -3 0 *
So

1100000
+2 0 *

+1 1 