DBRep_DrawableShape

CASCADE Topology V1, (c) Matra-Datavision
Locations 1
1
0.415661613722732 -0.276452916805083 -0.866486703687585 -41.7940729139899 
0.852340227211869 0.450861862584557 0.265027768249299 3.04726401436991 
0.317398109562478 -0.848703343728977 0.423037911290961 49.0050469030211 
Curve2ds 6
1 0 8.5026710539900598 1 0 
2 0 0 1 0 -0 1 85.734362787103649
1 6.2831853071795862 -0 0 1 
1 0 -0 0 1 
1 0 0 1 0 
2 0 0 1 0 -0 1 85.734362787103649
Curves 3
2 0 0 4.2513355269950299 0 0 1 1 0 -0 -0 1 0 85.734362787103649
1 85.734362787103649 -2.0998862592832888e-14 -4.2513355269950299 0 0 1 
2 0 0 -4.2513355269950299 0 0 1 1 0 -0 -0 1 0 85.734362787103649
Polygon3D 0
PolygonOnTriangulations 0
Surfaces 3
2 0 0 -4.2513355269950299 0 0 1 1 0 -0 -0 1 0 85.734362787103649
1 0 0 4.2513355269950299 0 0 1 1 0 -0 -0 1 0 
1 0 0 -4.2513355269950299 0 0 1 1 0 -0 -0 1 0 
Triangulations 0

TShapes 13
Ve
1e-07
85.7343627871036 -2.09988625928329e-14 4.25133552699503
0 0

0101101
*
Ed
 1e-07 1 1 0
1  1 0 0 6.28318530717959
2  1 1 0 0 6.28318530717959
2  2 2 0 0 6.28318530717959
0

0101000
+13 0 -13 0 *
Ve
1e-07
85.7343627871036 -2.09988625928329e-14 -4.25133552699503
0 0

0101101
*
Ed
 1e-07 1 1 0
1  2 0 0 8.50267105399006
3  3 4CN 1 0 0 8.50267105399006
0

0101000
-13 0 +11 0 *
Ed
 1e-07 1 1 0
1  3 0 0 6.28318530717959
2  5 1 0 0 6.28318530717959
2  6 3 0 0 6.28318530717959
0

0101000
+11 0 -11 0 *
Wi

0101100
-12 0 +10 0 +9 0 -10 0 *
Fa
0  1e-07 1 0

0111000
+8 0 *
Wi

0101100
+12 0 *
Fa
0  1e-07 2 0

0111000
+6 0 *
Wi

0101100
-9 0 *
Fa
0  1e-07 3 0

0111000
-4 0 *
Sh

0101100
+7 0 +5 0 -3 0 *
So

1100000
+2 0 *

+1 1 