DBRep_DrawableShape

CASCADE Topology V1, (c) Matra-Datavision
Locations 1
1
0.488522253502838 0.192579874216337 -0.851034076802644 46.2797594678422 
-0.843259438151605 -0.146394367349671 -0.517186822315234 -36.037273747607 
-0.22418636845435 0.970299789371877 0.0908778902931917 -44.6013003375507 
Curve2ds 6
1 0 14.172490282176296 1 0 
2 0 0 1 0 -0 1 69.271615676756198
1 6.2831853071795862 -0 0 1 
1 0 -0 0 1 
1 0 0 1 0 
2 0 0 1 0 -0 1 69.271615676756198
Curves 3
2 0 0 7.0862451410881482 0 0 1 1 0 -0 -0 1 0 69.271615676756198
1 69.271615676756198 -1.6966652482061018e-14 -7.0862451410881482 0 0 1 
2 0 0 -7.0862451410881482 0 0 1 1 0 -0 -0 1 0 69.271615676756198
Polygon3D 0
PolygonOnTriangulations 0
Surfaces 3
2 0 0 -7.0862451410881482 0 0 1 1 0 -0 -0 1 0 69.271615676756198
1 0 0 7.0862451410881482 0 0 1 1 0 -0 -0 1 0 
1 0 0 -7.0862451410881482 0 0 1 1 0 -0 -0 1 0 
Triangulations 0

TShapes 13
Ve
1e-07
69.2716156767562 -1.6966652482061e-14 7.08624514108815
0 0

0101101
*
Ed
 1e-07 1 1 0
1  1 0 0 6.28318530717959
2  1 1 0 0 6.28318530717959
2  2 2 0 0 6.28318530717959
0

0101000
+13 0 -13 0 *
Ve
1e-07
69.2716156767562 -1.6966652482061e-14 -7.08624514108815
0 0

0101101
*
Ed
 1e-07 1 1 0
1  2 0 0 14.1724902821763
3  3 4CN 1 0 0 14.1724902821763
0

0101000
-13 0 +11 0 *
Ed
 1e-07 1 1 0
1  3 0 0 6.28318530717959
2  5 1 0 0 6.28318530717959
2  6 3 0 0 6.28318530717959
0

0101000
+11 0 -11 0 *
Wi

0101100
-12 0 +10 0 +9 0 -10 0 *
Fa
0  1e-07 1 0

0111000
+8 0 *
Wi

0101100
+12 0 *
Fa
0  1e-07 2 0

0111000
+6 0 *
Wi

0101100
-9 0 *
Fa
0  1e-07 3 0

0111000
-4 0 *
Sh

0101100
+7 0 +5 0 -3 0 *
So

1100000
+2 0 *

+1 1 