DBRep_DrawableShape

CASCADE Topology V1, (c) Matra-Datavision
Locations 1
1
0.742037592042057 0.668705502794432 -0.0470442613808805 13.0683987421865 
-0.613960109887557 0.649758530023678 -0.44818169990343 -7.56647870864413 
-0.269134158856295 0.361450969280641 0.89270375900564 -7.32067022513377 
Curve2ds 6
1 0 3.1894032235111078 1 0 
2 0 0 1 0 -0 1 57.944298679498694
1 6.2831853071795862 -0 0 1 
1 0 -0 0 1 
1 0 0 1 0 
2 0 0 1 0 -0 1 57.944298679498694
Curves 3
2 0 0 1.5947016117555539 0 0 1 1 0 -0 -0 1 0 57.944298679498694
1 57.944298679498694 -1.4192259981337256e-14 -1.5947016117555539 0 0 1 
2 0 0 -1.5947016117555539 0 0 1 1 0 -0 -0 1 0 57.944298679498694
Polygon3D 0
PolygonOnTriangulations 0
Surfaces 3
2 0 0 -1.5947016117555539 0 0 1 1 0 -0 -0 1 0 57.944298679498694
1 0 0 1.5947016117555539 0 0 1 1 0 -0 -0 1 0 
1 0 0 -1.5947016117555539 0 0 1 1 0 -0 -0 1 0 
Triangulations 0

TShapes 13
Ve
1e-07
57.9442986794987 -1.41922599813373e-14 1.59470161175555
0 0

0101101
*
Ed
 1e-07 1 1 0
1  1 0 0 6.28318530717959
2  1 1 0 0 6.28318530717959
2  2 2 0 0 6.28318530717959
0

0101000
+13 0 -13 0 *
Ve
1e-07
57.9442986794987 -1.41922599813373e-14 -1.59470161175555
0 0

0101101
*
Ed
 1e-07 1 1 0
1  2 0 0 3.18940322351111
3  3 4CN 1 0 0 3.18940322351111
0

0101000
-13 0 +11 0 *
Ed
 1e-07 1 1 0
1  3 0 0 6.28318530717959
2  5 1 0 0 6.28318530717959
2  6 3 0 0 6.28318530717959
0

0101000
+11 0 -11 0 *
Wi

0101100
-12 0 +10 0 +9 0 -10 0 *
Fa
0  1e-07 1 0

0111000
+8 0 *
Wi

0101100
+12 0 *
Fa
0  1e-07 2 0

0111000
+6 0 *
Wi

0101100
-9 0 *
Fa
0  1e-07 3 0

0111000
-4 0 *
Sh

0101100
+7 0 +5 0 -3 0 *
So

1100000
+2 0 *

+1 1 