DBRep_DrawableShape

CASCADE Topology V1, (c) Matra-Datavision
Locations 1
1
0.115521642581661 0.0742793538518063 0.990523764321984 14.9425851749521 
0.817522615167056 0.559293481187519 -0.137286472718776 43.6049086667114 
-0.564191034832753 0.825635137026341 0.00388545001814973 -46.7867549246549 
Curve2ds 6
1 0 6.4106680368555988 1 0 
2 0 0 1 0 -0 1 26.454829274975985
1 6.2831853071795862 -0 0 1 
1 0 -0 0 1 
1 0 0 1 0 
2 0 0 1 0 -0 1 26.454829274975985
Curves 3
2 0 0 3.2053340184277994 0 0 1 1 0 -0 -0 1 0 26.454829274975985
1 26.454829274975985 -6.4795643987178067e-15 -3.2053340184277994 0 0 1 
2 0 0 -3.2053340184277994 0 0 1 1 0 -0 -0 1 0 26.454829274975985
Polygon3D 0
PolygonOnTriangulations 0
Surfaces 3
2 0 0 -3.2053340184277994 0 0 1 1 0 -0 -0 1 0 26.454829274975985
1 0 0 3.2053340184277994 0 0 1 1 0 -0 -0 1 0 
1 0 0 -3.2053340184277994 0 0 1 1 0 -0 -0 1 0 
Triangulations 0

TShapes 13
Ve
1e-07
26.454829274976 -6.47956439871781e-15 3.2053340184278
0 0

0101101
*
Ed
 1e-07 1 1 0
1  1 0 0 6.28318530717959
2  1 1 0 0 6.28318530717959
2  2 2 0 0 6.28318530717959
0

0101000
+13 0 -13 0 *
Ve
1e-07
26.454829274976 -6.47956439871781e-15 -3.2053340184278
0 0

0101101
*
Ed
 1e-07 1 1 0
1  2 0 0 6.4106680368556
3  3 4CN 1 0 0 6.4106680368556
0

0101000
-13 0 +11 0 *
Ed
 1e-07 1 1 0
1  3 0 0 6.28318530717959
2  5 1 0 0 6.28318530717959
2  6 3 0 0 6.28318530717959
0

0101000
+11 0 -11 0 *
Wi

0101100
-12 0 +10 0 +9 0 -10 0 *
Fa
0  1e-07 1 0

0111000
+8 0 *
Wi

0101100
+12 0 *
Fa
0  1e-07 2 0

0111000
+6 0 *
Wi

0101100
-9 0 *
Fa
0  1e-07 3 0

0111000
-4 0 *
Sh

0101100
+7 0 +5 0 -3 0 *
So

1100000
+2 0 *

+1 1 