DBRep_DrawableShape

CASCADE Topology V1, (c) Matra-Datavision
Locations 1
1
0.723373643302675 -0.455729752367299 0.518691589465508 32.9056829642799 
0.0257459067291888 0.768510675132541 0.639318770641077 -1.38145669463856 
-0.689976608633732 -0.449112163066829 0.56765354268579 31.9861832634309 
Curve2ds 6
1 0 4.8291123505625437 1 0 
2 0 0 1 0 -0 1 43.190409223824432
1 6.2831853071795862 -0 0 1 
1 0 -0 0 1 
1 0 0 1 0 
2 0 0 1 0 -0 1 43.190409223824432
Curves 3
2 0 0 2.4145561752812719 0 0 1 1 0 -0 -0 1 0 43.190409223824432
1 43.190409223824432 -1.0578599281964182e-14 -2.4145561752812719 0 0 1 
2 0 0 -2.4145561752812719 0 0 1 1 0 -0 -0 1 0 43.190409223824432
Polygon3D 0
PolygonOnTriangulations 0
Surfaces 3
2 0 0 -2.4145561752812719 0 0 1 1 0 -0 -0 1 0 43.190409223824432
1 0 0 2.4145561752812719 0 0 1 1 0 -0 -0 1 0 
1 0 0 -2.4145561752812719 0 0 1 1 0 -0 -0 1 0 
Triangulations 0

TShapes 13
Ve
1e-07
43.1904092238244 -1.05785992819642e-14 2.41455617528127
0 0

0101101
*
Ed
 1e-07 1 1 0
1  1 0 0 6.28318530717959
2  1 1 0 0 6.28318530717959
2  2 2 0 0 6.28318530717959
0

0101000
+13 0 -13 0 *
Ve
1e-07
43.1904092238244 -1.05785992819642e-14 -2.41455617528127
0 0

0101101
*
Ed
 1e-07 1 1 0
1  2 0 0 4.82911235056254
3  3 4CN 1 0 0 4.82911235056254
0

0101000
-13 0 +11 0 *
Ed
 1e-07 1 1 0
1  3 0 0 6.28318530717959
2  5 1 0 0 6.28318530717959
2  6 3 0 0 6.28318530717959
0

0101000
+11 0 -11 0 *
Wi

0101100
-12 0 +10 0 +9 0 -10 0 *
Fa
0  1e-07 1 0

0111000
+8 0 *
Wi

0101100
+12 0 *
Fa
0  1e-07 2 0

0111000
+6 0 *
Wi

0101100
-9 0 *
Fa
0  1e-07 3 0

0111000
-4 0 *
Sh

0101100
+7 0 +5 0 -3 0 *
So

1100000
+2 0 *

+1 1 