DBRep_DrawableShape

CASCADE Topology V1, (c) Matra-Datavision
Locations 1
1
0.164347959869849 -0.0467439473615454 0.985294246137508 1.42516590839274 
0.130170988390234 0.991168460989659 0.0253099925108743 -12.665050833436 
-0.977775670523729 0.124097080241447 0.168981220280302 24.2089010824746 
Curve2ds 6
1 0 5.1233456751815662 1 0 
2 0 0 1 0 -0 1 71.641777041176226
1 6.2831853071795862 -0 0 1 
1 0 -0 0 1 
1 0 0 1 0 
2 0 0 1 0 -0 1 71.641777041176226
Curves 3
2 0 0 2.5616728375907831 0 0 1 1 0 -0 -0 1 0 71.641777041176226
1 71.641777041176226 -1.7547174587740962e-14 -2.5616728375907831 0 0 1 
2 0 0 -2.5616728375907831 0 0 1 1 0 -0 -0 1 0 71.641777041176226
Polygon3D 0
PolygonOnTriangulations 0
Surfaces 3
2 0 0 -2.5616728375907831 0 0 1 1 0 -0 -0 1 0 71.641777041176226
1 0 0 2.5616728375907831 0 0 1 1 0 -0 -0 1 0 
1 0 0 -2.5616728375907831 0 0 1 1 0 -0 -0 1 0 
Triangulations 0

TShapes 13
Ve
1e-07
71.6417770411762 -1.7547174587741e-14 2.56167283759078
0 0

0101101
*
Ed
 1e-07 1 1 0
1  1 0 0 6.28318530717959
2  1 1 0 0 6.28318530717959
2  2 2 0 0 6.28318530717959
0

0101000
+13 0 -13 0 *
Ve
1e-07
71.6417770411762 -1.7547174587741e-14 -2.56167283759078
0 0

0101101
*
Ed
 1e-07 1 1 0
1  2 0 0 5.12334567518157
3  3 4CN 1 0 0 5.12334567518157
0

0101000
-13 0 +11 0 *
Ed
 1e-07 1 1 0
1  3 0 0 6.28318530717959
2  5 1 0 0 6.28318530717959
2  6 3 0 0 6.28318530717959
0

0101000
+11 0 -11 0 *
Wi

0101100
-12 0 +10 0 +9 0 -10 0 *
Fa
0  1e-07 1 0

0111000
+8 0 *
Wi

0101100
+12 0 *
Fa
0  1e-07 2 0

0111000
+6 0 *
Wi

0101100
-9 0 *
Fa
0  1e-07 3 0

0111000
-4 0 *
Sh

0101100
+7 0 +5 0 -3 0 *
So

1100000
+2 0 *

+1 1 