DBRep_DrawableShape

CASCADE Topology V1, (c) Matra-Datavision
Locations 1
1
0.183636606903772 -0.949208916014843 0.255499570181237 0.256085052789743 
0.808831638742283 -0.00180385600972248 -0.58803752114382 -32.9176528670837 
0.558631342456134 0.314641351162595 0.767418949052103 35.3867028086237 
Curve2ds 6
1 0 5.6867248319079176 1 0 
2 0 0 1 0 -0 1 68.948432431036196
1 6.2831853071795862 -0 0 1 
1 0 -0 0 1 
1 0 0 1 0 
2 0 0 1 0 -0 1 68.948432431036196
Curves 3
2 0 0 2.8433624159539588 0 0 1 1 0 -0 -0 1 0 68.948432431036196
1 68.948432431036196 -1.6887495416579206e-14 -2.8433624159539588 0 0 1 
2 0 0 -2.8433624159539588 0 0 1 1 0 -0 -0 1 0 68.948432431036196
Polygon3D 0
PolygonOnTriangulations 0
Surfaces 3
2 0 0 -2.8433624159539588 0 0 1 1 0 -0 -0 1 0 68.948432431036196
1 0 0 2.8433624159539588 0 0 1 1 0 -0 -0 1 0 
1 0 0 -2.8433624159539588 0 0 1 1 0 -0 -0 1 0 
Triangulations 0

TShapes 13
Ve
1e-07
68.9484324310362 -1.68874954165792e-14 2.84336241595396
0 0

0101101
*
Ed
 1e-07 1 1 0
1  1 0 0 6.28318530717959
2  1 1 0 0 6.28318530717959
2  2 2 0 0 6.28318530717959
0

0101000
+13 0 -13 0 *
Ve
1e-07
68.9484324310362 -1.68874954165792e-14 -2.84336241595396
0 0

0101101
*
Ed
 1e-07 1 1 0
1  2 0 0 5.68672483190792
3  3 4CN 1 0 0 5.68672483190792
0

0101000
-13 0 +11 0 *
Ed
 1e-07 1 1 0
1  3 0 0 6.28318530717959
2  5 1 0 0 6.28318530717959
2  6 3 0 0 6.28318530717959
0

0101000
+11 0 -11 0 *
Wi

0101100
-12 0 +10 0 +9 0 -10 0 *
Fa
0  1e-07 1 0

0111000
+8 0 *
Wi

0101100
+12 0 *
Fa
0  1e-07 2 0

0111000
+6 0 *
Wi

0101100
-9 0 *
Fa
0  1e-07 3 0

0111000
-4 0 *
Sh

0101100
+7 0 +5 0 -3 0 *
So

1100000
+2 0 *

+1 1 