DBRep_DrawableShape

CASCADE Topology V1, (c) Matra-Datavision
Locations 1
1
0.354446519201008 0.00468976654548982 -0.935064527781927 47.4676954067553 
0.445419004418798 0.878400558555304 0.173246556191739 45.8276067906381 
0.822173689392245 -0.477902149837683 0.3092571092985 25.3520210144318 
Curve2ds 6
1 0 4.0786698446722882 1 0 
2 0 0 1 0 -0 1 34.628812428321496
1 6.2831853071795862 -0 0 1 
1 0 -0 0 1 
1 0 0 1 0 
2 0 0 1 0 -0 1 34.628812428321496
Curves 3
2 0 0 2.0393349223361441 0 0 1 1 0 -0 -0 1 0 34.628812428321496
1 34.628812428321496 -8.4816128597236009e-15 -2.0393349223361441 0 0 1 
2 0 0 -2.0393349223361441 0 0 1 1 0 -0 -0 1 0 34.628812428321496
Polygon3D 0
PolygonOnTriangulations 0
Surfaces 3
2 0 0 -2.0393349223361441 0 0 1 1 0 -0 -0 1 0 34.628812428321496
1 0 0 2.0393349223361441 0 0 1 1 0 -0 -0 1 0 
1 0 0 -2.0393349223361441 0 0 1 1 0 -0 -0 1 0 
Triangulations 0

TShapes 13
Ve
1e-07
34.6288124283215 -8.4816128597236e-15 2.03933492233614
0 0

0101101
*
Ed
 1e-07 1 1 0
1  1 0 0 6.28318530717959
2  1 1 0 0 6.28318530717959
2  2 2 0 0 6.28318530717959
0

0101000
+13 0 -13 0 *
Ve
1e-07
34.6288124283215 -8.4816128597236e-15 -2.03933492233614
0 0

0101101
*
Ed
 1e-07 1 1 0
1  2 0 0 4.07866984467229
3  3 4CN 1 0 0 4.07866984467229
0

0101000
-13 0 +11 0 *
Ed
 1e-07 1 1 0
1  3 0 0 6.28318530717959
2  5 1 0 0 6.28318530717959
2  6 3 0 0 6.28318530717959
0

0101000
+11 0 -11 0 *
Wi

0101100
-12 0 +10 0 +9 0 -10 0 *
Fa
0  1e-07 1 0

0111000
+8 0 *
Wi

0101100
+12 0 *
Fa
0  1e-07 2 0

0111000
+6 0 *
Wi

0101100
-9 0 *
Fa
0  1e-07 3 0

0111000
-4 0 *
Sh

0101100
+7 0 +5 0 -3 0 *
So

1100000
+2 0 *

+1 1 