DBRep_DrawableShape

CASCADE Topology V1, (c) Matra-Datavision
Locations 1
1
0.294099637248574 -0.888423808151002 -0.352432320425823 -25.7440548571857 
0.530628458343661 -0.154918926628891 0.833326805861892 20.3140890943808 
-0.79494581108783 -0.432091730171528 0.425861355550475 28.5337183400279 
Curve2ds 6
1 0 9.8072849299959444 1 0 
2 0 0 1 0 -0 1 78.591640982100245
1 6.2831853071795862 -0 0 1 
1 0 -0 0 1 
1 0 0 1 0 
2 0 0 1 0 -0 1 78.591640982100245
Curves 3
2 0 0 4.9036424649979722 0 0 1 1 0 -0 -0 1 0 78.591640982100245
1 78.591640982100245 -1.9249400313693402e-14 -4.9036424649979722 0 0 1 
2 0 0 -4.9036424649979722 0 0 1 1 0 -0 -0 1 0 78.591640982100245
Polygon3D 0
PolygonOnTriangulations 0
Surfaces 3
2 0 0 -4.9036424649979722 0 0 1 1 0 -0 -0 1 0 78.591640982100245
1 0 0 4.9036424649979722 0 0 1 1 0 -0 -0 1 0 
1 0 0 -4.9036424649979722 0 0 1 1 0 -0 -0 1 0 
Triangulations 0

TShapes 13
Ve
1e-07
78.5916409821002 -1.92494003136934e-14 4.90364246499797
0 0

0101101
*
Ed
 1e-07 1 1 0
1  1 0 0 6.28318530717959
2  1 1 0 0 6.28318530717959
2  2 2 0 0 6.28318530717959
0

0101000
+13 0 -13 0 *
Ve
1e-07
78.5916409821002 -1.92494003136934e-14 -4.90364246499797
0 0

0101101
*
Ed
 1e-07 1 1 0
1  2 0 0 9.80728492999594
3  3 4CN 1 0 0 9.80728492999594
0

0101000
-13 0 +11 0 *
Ed
 1e-07 1 1 0
1  3 0 0 6.28318530717959
2  5 1 0 0 6.28318530717959
2  6 3 0 0 6.28318530717959
0

0101000
+11 0 -11 0 *
Wi

0101100
-12 0 +10 0 +9 0 -10 0 *
Fa
0  1e-07 1 0

0111000
+8 0 *
Wi

0101100
+12 0 *
Fa
0  1e-07 2 0

0111000
+6 0 *
Wi

0101100
-9 0 *
Fa
0  1e-07 3 0

0111000
-4 0 *
Sh

0101100
+7 0 +5 0 -3 0 *
So

1100000
+2 0 *

+1 1 