DBRep_DrawableShape

CASCADE Topology V1, (c) Matra-Datavision
Locations 1
1
0.443913336829178 -0.72423478041073 -0.527659864144135 -26.5082354568077 
0.895638359664184 0.340344042011587 0.286352687721392 42.2275643799199 
-0.0278006849418254 -0.599708192299086 0.79973571009811 -37.7227609498354 
Curve2ds 6
1 0 10.714549621072347 1 0 
2 0 0 1 0 -0 1 32.164686201988793
1 6.2831853071795862 -0 0 1 
1 0 -0 0 1 
1 0 0 1 0 
2 0 0 1 0 -0 1 32.164686201988793
Curves 3
2 0 0 5.3572748105361736 0 0 1 1 0 -0 -0 1 0 32.164686201988793
1 32.164686201988793 -7.8780760005689229e-15 -5.3572748105361736 0 0 1 
2 0 0 -5.3572748105361736 0 0 1 1 0 -0 -0 1 0 32.164686201988793
Polygon3D 0
PolygonOnTriangulations 0
Surfaces 3
2 0 0 -5.3572748105361736 0 0 1 1 0 -0 -0 1 0 32.164686201988793
1 0 0 5.3572748105361736 0 0 1 1 0 -0 -0 1 0 
1 0 0 -5.3572748105361736 0 0 1 1 0 -0 -0 1 0 
Triangulations 0

TShapes 13
Ve
1e-07
32.1646862019888 -7.87807600056892e-15 5.35727481053617
0 0

0101101
*
Ed
 1e-07 1 1 0
1  1 0 0 6.28318530717959
2  1 1 0 0 6.28318530717959
2  2 2 0 0 6.28318530717959
0

0101000
+13 0 -13 0 *
Ve
1e-07
32.1646862019888 -7.87807600056892e-15 -5.35727481053617
0 0

0101101
*
Ed
 1e-07 1 1 0
1  2 0 0 10.7145496210723
3  3 4CN 1 0 0 10.7145496210723
0

0101000
-13 0 +11 0 *
Ed
 1e-07 1 1 0
1  3 0 0 6.28318530717959
2  5 1 0 0 6.28318530717959
2  6 3 0 0 6.28318530717959
0

0101000
+11 0 -11 0 *
Wi

0101100
-12 0 +10 0 +9 0 -10 0 *
Fa
0  1e-07 1 0

0111000
+8 0 *
Wi

0101100
+12 0 *
Fa
0  1e-07 2 0

0111000
+6 0 *
Wi

0101100
-9 0 *
Fa
0  1e-07 3 0

0111000
-4 0 *
Sh

0101100
+7 0 +5 0 -3 0 *
So

1100000
+2 0 *

+1 1 