DBRep_DrawableShape

CASCADE Topology V1, (c) Matra-Datavision
Locations 1
1
0.953305982324152 0.111426631681508 -0.280698788414019 -44.0187086672126 
0.0176483714266637 0.907305062945861 0.420102437196923 39.154339010585 
0.301490031428853 -0.405440043045728 0.862972845716543 4.02586227211308 
Curve2ds 6
1 0 5.9058574364537577 1 0 
2 0 0 1 0 -0 1 76.934640442217017
1 6.2831853071795862 -0 0 1 
1 0 -0 0 1 
1 0 0 1 0 
2 0 0 1 0 -0 1 76.934640442217017
Curves 3
2 0 0 2.9529287182268789 0 0 1 1 0 -0 -0 1 0 76.934640442217017
1 76.934640442217017 -1.8843552232222714e-14 -2.9529287182268789 0 0 1 
2 0 0 -2.9529287182268789 0 0 1 1 0 -0 -0 1 0 76.934640442217017
Polygon3D 0
PolygonOnTriangulations 0
Surfaces 3
2 0 0 -2.9529287182268789 0 0 1 1 0 -0 -0 1 0 76.934640442217017
1 0 0 2.9529287182268789 0 0 1 1 0 -0 -0 1 0 
1 0 0 -2.9529287182268789 0 0 1 1 0 -0 -0 1 0 
Triangulations 0

TShapes 13
Ve
1e-07
76.934640442217 -1.88435522322227e-14 2.95292871822688
0 0

0101101
*
Ed
 1e-07 1 1 0
1  1 0 0 6.28318530717959
2  1 1 0 0 6.28318530717959
2  2 2 0 0 6.28318530717959
0

0101000
+13 0 -13 0 *
Ve
1e-07
76.934640442217 -1.88435522322227e-14 -2.95292871822688
0 0

0101101
*
Ed
 1e-07 1 1 0
1  2 0 0 5.90585743645376
3  3 4CN 1 0 0 5.90585743645376
0

0101000
-13 0 +11 0 *
Ed
 1e-07 1 1 0
1  3 0 0 6.28318530717959
2  5 1 0 0 6.28318530717959
2  6 3 0 0 6.28318530717959
0

0101000
+11 0 -11 0 *
Wi

0101100
-12 0 +10 0 +9 0 -10 0 *
Fa
0  1e-07 1 0

0111000
+8 0 *
Wi

0101100
+12 0 *
Fa
0  1e-07 2 0

0111000
+6 0 *
Wi

0101100
-9 0 *
Fa
0  1e-07 3 0

0111000
-4 0 *
Sh

0101100
+7 0 +5 0 -3 0 *
So

1100000
+2 0 *

+1 1 