DBRep_DrawableShape

CASCADE Topology V1, (c) Matra-Datavision
Locations 1
1
0.0236000443289744 -0.160144313561685 0.986811449437798 -45.6352720468375 
0.718984703893888 -0.683127140391662 -0.128055869162364 -9.87528617271434 
0.694625102824746 0.712524461961951 0.0990194810708693 7.61397940936867 
Curve2ds 6
1 0 4.0734832425653806 1 0 
2 0 0 1 0 -0 1 85.749276578564562
1 6.2831853071795862 -0 0 1 
1 0 -0 0 1 
1 0 0 1 0 
2 0 0 1 0 -0 1 85.749276578564562
Curves 3
2 0 0 2.0367416212826903 0 0 1 1 0 -0 -0 1 0 85.749276578564562
1 85.749276578564562 -2.1002515418228039e-14 -2.0367416212826903 0 0 1 
2 0 0 -2.0367416212826903 0 0 1 1 0 -0 -0 1 0 85.749276578564562
Polygon3D 0
PolygonOnTriangulations 0
Surfaces 3
2 0 0 -2.0367416212826903 0 0 1 1 0 -0 -0 1 0 85.749276578564562
1 0 0 2.0367416212826903 0 0 1 1 0 -0 -0 1 0 
1 0 0 -2.0367416212826903 0 0 1 1 0 -0 -0 1 0 
Triangulations 0

TShapes 13
Ve
1e-07
85.7492765785646 -2.1002515418228e-14 2.03674162128269
0 0

0101101
*
Ed
 1e-07 1 1 0
1  1 0 0 6.28318530717959
2  1 1 0 0 6.28318530717959
2  2 2 0 0 6.28318530717959
0

0101000
+13 0 -13 0 *
Ve
1e-07
85.7492765785646 -2.1002515418228e-14 -2.03674162128269
0 0

0101101
*
Ed
 1e-07 1 1 0
1  2 0 0 4.07348324256538
3  3 4CN 1 0 0 4.07348324256538
0

0101000
-13 0 +11 0 *
Ed
 1e-07 1 1 0
1  3 0 0 6.28318530717959
2  5 1 0 0 6.28318530717959
2  6 3 0 0 6.28318530717959
0

0101000
+11 0 -11 0 *
Wi

0101100
-12 0 +10 0 +9 0 -10 0 *
Fa
0  1e-07 1 0

0111000
+8 0 *
Wi

0101100
+12 0 *
Fa
0  1e-07 2 0

0111000
+6 0 *
Wi

0101100
-9 0 *
Fa
0  1e-07 3 0

0111000
-4 0 *
Sh

0101100
+7 0 +5 0 -3 0 *
So

1100000
+2 0 *

+1 1 