DBRep_DrawableShape

CASCADE Topology V1, (c) Matra-Datavision
Locations 1
1
0.916765672640233 -0.392842970594593 0.0722156625872642 -47.8107700899494 
0.152881486123498 0.178081424456549 -0.972067002559081 -16.086053399161 
0.369009420840678 0.902198097270185 0.22331735403431 -1.48906119880952 
Curve2ds 6
1 0 3.3144700767366571 1 0 
2 0 0 1 0 -0 1 27.081030839590746
1 6.2831853071795862 -0 0 1 
1 0 -0 0 1 
1 0 0 1 0 
2 0 0 1 0 -0 1 27.081030839590746
Curves 3
2 0 0 1.6572350383683285 0 0 1 1 0 -0 -0 1 0 27.081030839590746
1 27.081030839590746 -6.6329395470631128e-15 -1.6572350383683285 0 0 1 
2 0 0 -1.6572350383683285 0 0 1 1 0 -0 -0 1 0 27.081030839590746
Polygon3D 0
PolygonOnTriangulations 0
Surfaces 3
2 0 0 -1.6572350383683285 0 0 1 1 0 -0 -0 1 0 27.081030839590746
1 0 0 1.6572350383683285 0 0 1 1 0 -0 -0 1 0 
1 0 0 -1.6572350383683285 0 0 1 1 0 -0 -0 1 0 
Triangulations 0

TShapes 13
Ve
1e-07
27.0810308395907 -6.63293954706311e-15 1.65723503836833
0 0

0101101
*
Ed
 1e-07 1 1 0
1  1 0 0 6.28318530717959
2  1 1 0 0 6.28318530717959
2  2 2 0 0 6.28318530717959
0

0101000
+13 0 -13 0 *
Ve
1e-07
27.0810308395907 -6.63293954706311e-15 -1.65723503836833
0 0

0101101
*
Ed
 1e-07 1 1 0
1  2 0 0 3.31447007673666
3  3 4CN 1 0 0 3.31447007673666
0

0101000
-13 0 +11 0 *
Ed
 1e-07 1 1 0
1  3 0 0 6.28318530717959
2  5 1 0 0 6.28318530717959
2  6 3 0 0 6.28318530717959
0

0101000
+11 0 -11 0 *
Wi

0101100
-12 0 +10 0 +9 0 -10 0 *
Fa
0  1e-07 1 0

0111000
+8 0 *
Wi

0101100
+12 0 *
Fa
0  1e-07 2 0

0111000
+6 0 *
Wi

0101100
-9 0 *
Fa
0  1e-07 3 0

0111000
-4 0 *
Sh

0101100
+7 0 +5 0 -3 0 *
So

1100000
+2 0 *

+1 1 