DBRep_DrawableShape

CASCADE Topology V1, (c) Matra-Datavision
Locations 1
1
0.796444781925567 -0.575867821699934 -0.184531735140894 -40.0349515022376 
0.281965463105255 0.0837009229718915 0.95576651600142 -38.9437733505996 
-0.534949705074576 -0.813246830565128 0.229038000376353 -42.4721054952046 
Curve2ds 6
1 0 7.7822894598326222 1 0 
2 0 0 1 0 -0 1 99.543087877591446
1 6.2831853071795862 -0 0 1 
1 0 -0 0 1 
1 0 0 1 0 
2 0 0 1 0 -0 1 99.543087877591446
Curves 3
2 0 0 3.8911447299163111 0 0 1 1 0 -0 -0 1 0 99.543087877591446
1 99.543087877591446 -2.4381024789307212e-14 -3.8911447299163111 0 0 1 
2 0 0 -3.8911447299163111 0 0 1 1 0 -0 -0 1 0 99.543087877591446
Polygon3D 0
PolygonOnTriangulations 0
Surfaces 3
2 0 0 -3.8911447299163111 0 0 1 1 0 -0 -0 1 0 99.543087877591446
1 0 0 3.8911447299163111 0 0 1 1 0 -0 -0 1 0 
1 0 0 -3.8911447299163111 0 0 1 1 0 -0 -0 1 0 
Triangulations 0

TShapes 13
Ve
1e-07
99.5430878775914 -2.43810247893072e-14 3.89114472991631
0 0

0101101
*
Ed
 1e-07 1 1 0
1  1 0 0 6.28318530717959
2  1 1 0 0 6.28318530717959
2  2 2 0 0 6.28318530717959
0

0101000
+13 0 -13 0 *
Ve
1e-07
99.5430878775914 -2.43810247893072e-14 -3.89114472991631
0 0

0101101
*
Ed
 1e-07 1 1 0
1  2 0 0 7.78228945983262
3  3 4CN 1 0 0 7.78228945983262
0

0101000
-13 0 +11 0 *
Ed
 1e-07 1 1 0
1  3 0 0 6.28318530717959
2  5 1 0 0 6.28318530717959
2  6 3 0 0 6.28318530717959
0

0101000
+11 0 -11 0 *
Wi

0101100
-12 0 +10 0 +9 0 -10 0 *
Fa
0  1e-07 1 0

0111000
+8 0 *
Wi

0101100
+12 0 *
Fa
0  1e-07 2 0

0111000
+6 0 *
Wi

0101100
-9 0 *
Fa
0  1e-07 3 0

0111000
-4 0 *
Sh

0101100
+7 0 +5 0 -3 0 *
So

1100000
+2 0 *

+1 1 