DBRep_DrawableShape

CASCADE Topology V1, (c) Matra-Datavision
Locations 1
1
0.870756010395667 0.0520654711451058 -0.488951078405866 -3.18961442542647 
0.382187854715467 0.553986405075901 0.73961578315979 16.2269439882045 
0.309380694400622 -0.830896052286637 0.462488201175631 6.11971493277088 
Curve2ds 6
1 0 2.5090754919594951 1 0 
2 0 0 1 0 -0 1 61.549599701793852
1 6.2831853071795862 -0 0 1 
1 0 -0 0 1 
1 0 0 1 0 
2 0 0 1 0 -0 1 61.549599701793852
Curves 3
2 0 0 1.2545377459797475 0 0 1 1 0 -0 -0 1 0 61.549599701793852
1 61.549599701793852 -1.5075304052720546e-14 -1.2545377459797475 0 0 1 
2 0 0 -1.2545377459797475 0 0 1 1 0 -0 -0 1 0 61.549599701793852
Polygon3D 0
PolygonOnTriangulations 0
Surfaces 3
2 0 0 -1.2545377459797475 0 0 1 1 0 -0 -0 1 0 61.549599701793852
1 0 0 1.2545377459797475 0 0 1 1 0 -0 -0 1 0 
1 0 0 -1.2545377459797475 0 0 1 1 0 -0 -0 1 0 
Triangulations 0

TShapes 13
Ve
1e-07
61.5495997017939 -1.50753040527205e-14 1.25453774597975
0 0

0101101
*
Ed
 1e-07 1 1 0
1  1 0 0 6.28318530717959
2  1 1 0 0 6.28318530717959
2  2 2 0 0 6.28318530717959
0

0101000
+13 0 -13 0 *
Ve
1e-07
61.5495997017939 -1.50753040527205e-14 -1.25453774597975
0 0

0101101
*
Ed
 1e-07 1 1 0
1  2 0 0 2.5090754919595
3  3 4CN 1 0 0 2.5090754919595
0

0101000
-13 0 +11 0 *
Ed
 1e-07 1 1 0
1  3 0 0 6.28318530717959
2  5 1 0 0 6.28318530717959
2  6 3 0 0 6.28318530717959
0

0101000
+11 0 -11 0 *
Wi

0101100
-12 0 +10 0 +9 0 -10 0 *
Fa
0  1e-07 1 0

0111000
+8 0 *
Wi

0101100
+12 0 *
Fa
0  1e-07 2 0

0111000
+6 0 *
Wi

0101100
-9 0 *
Fa
0  1e-07 3 0

0111000
-4 0 *
Sh

0101100
+7 0 +5 0 -3 0 *
So

1100000
+2 0 *

+1 1 