DBRep_DrawableShape

CASCADE Topology V1, (c) Matra-Datavision
Locations 1
1
0.917165134207648 0.00974338040348185 0.398388231668784 11.8898154886968 
0.286565178185374 0.678577369753541 -0.676323259920839 32.295126148598 
-0.276926913183699 0.734464308048172 0.619575390858827 -10.3635035378415 
Curve2ds 6
1 0 12.589647812410339 1 0 
2 0 0 1 0 -0 1 68.591668244315002
1 6.2831853071795862 -0 0 1 
1 0 -0 0 1 
1 0 0 1 0 
2 0 0 1 0 -0 1 68.591668244315002
Curves 3
2 0 0 6.2948239062051696 0 0 1 1 0 -0 -0 1 0 68.591668244315002
1 68.591668244315002 -1.6800113392715504e-14 -6.2948239062051696 0 0 1 
2 0 0 -6.2948239062051696 0 0 1 1 0 -0 -0 1 0 68.591668244315002
Polygon3D 0
PolygonOnTriangulations 0
Surfaces 3
2 0 0 -6.2948239062051696 0 0 1 1 0 -0 -0 1 0 68.591668244315002
1 0 0 6.2948239062051696 0 0 1 1 0 -0 -0 1 0 
1 0 0 -6.2948239062051696 0 0 1 1 0 -0 -0 1 0 
Triangulations 0

TShapes 13
Ve
1e-07
68.591668244315 -1.68001133927155e-14 6.29482390620517
0 0

0101101
*
Ed
 1e-07 1 1 0
1  1 0 0 6.28318530717959
2  1 1 0 0 6.28318530717959
2  2 2 0 0 6.28318530717959
0

0101000
+13 0 -13 0 *
Ve
1e-07
68.591668244315 -1.68001133927155e-14 -6.29482390620517
0 0

0101101
*
Ed
 1e-07 1 1 0
1  2 0 0 12.5896478124103
3  3 4CN 1 0 0 12.5896478124103
0

0101000
-13 0 +11 0 *
Ed
 1e-07 1 1 0
1  3 0 0 6.28318530717959
2  5 1 0 0 6.28318530717959
2  6 3 0 0 6.28318530717959
0

0101000
+11 0 -11 0 *
Wi

0101100
-12 0 +10 0 +9 0 -10 0 *
Fa
0  1e-07 1 0

0111000
+8 0 *
Wi

0101100
+12 0 *
Fa
0  1e-07 2 0

0111000
+6 0 *
Wi

0101100
-9 0 *
Fa
0  1e-07 3 0

0111000
-4 0 *
Sh

0101100
+7 0 +5 0 -3 0 *
So

1100000
+2 0 *

+1 1 