DBRep_DrawableShape

CASCADE Topology V1, (c) Matra-Datavision
Locations 1
1
0.763842402791718 -0.18599521706143 0.618021490668122 -14.2359966803938 
0.637741365916471 0.364622118025424 -0.678481142881398 -36.979749955302 
-0.0991500574703282 0.912390536051819 0.397130678526232 9.28012867782477 
Curve2ds 6
1 0 3.6762930124066528 1 0 
2 0 0 1 0 -0 1 65.479191205164085
1 6.2831853071795862 -0 0 1 
1 0 -0 0 1 
1 0 0 1 0 
2 0 0 1 0 -0 1 65.479191205164085
Curves 3
2 0 0 1.8381465062033264 0 0 1 1 0 -0 -0 1 0 65.479191205164085
1 65.479191205164085 -1.6037776384032344e-14 -1.8381465062033264 0 0 1 
2 0 0 -1.8381465062033264 0 0 1 1 0 -0 -0 1 0 65.479191205164085
Polygon3D 0
PolygonOnTriangulations 0
Surfaces 3
2 0 0 -1.8381465062033264 0 0 1 1 0 -0 -0 1 0 65.479191205164085
1 0 0 1.8381465062033264 0 0 1 1 0 -0 -0 1 0 
1 0 0 -1.8381465062033264 0 0 1 1 0 -0 -0 1 0 
Triangulations 0

TShapes 13
Ve
1e-07
65.4791912051641 -1.60377763840323e-14 1.83814650620333
0 0

0101101
*
Ed
 1e-07 1 1 0
1  1 0 0 6.28318530717959
2  1 1 0 0 6.28318530717959
2  2 2 0 0 6.28318530717959
0

0101000
+13 0 -13 0 *
Ve
1e-07
65.4791912051641 -1.60377763840323e-14 -1.83814650620333
0 0

0101101
*
Ed
 1e-07 1 1 0
1  2 0 0 3.67629301240665
3  3 4CN 1 0 0 3.67629301240665
0

0101000
-13 0 +11 0 *
Ed
 1e-07 1 1 0
1  3 0 0 6.28318530717959
2  5 1 0 0 6.28318530717959
2  6 3 0 0 6.28318530717959
0

0101000
+11 0 -11 0 *
Wi

0101100
-12 0 +10 0 +9 0 -10 0 *
Fa
0  1e-07 1 0

0111000
+8 0 *
Wi

0101100
+12 0 *
Fa
0  1e-07 2 0

0111000
+6 0 *
Wi

0101100
-9 0 *
Fa
0  1e-07 3 0

0111000
-4 0 *
Sh

0101100
+7 0 +5 0 -3 0 *
So

1100000
+2 0 *

+1 1 