DBRep_DrawableShape

CASCADE Topology V1, (c) Matra-Datavision
Locations 1
1
0.291064377534039 -0.300961464690615 0.908131997510275 44.1263036620068 
0.296799273235789 0.930802301421883 0.21334776088451 37.0227075150173 
-0.909500807881681 0.207434983643084 0.360248536462764 34.6433245244702 
Curve2ds 6
1 0 13.450623903181141 1 0 
2 0 0 1 0 -0 1 30.538635220286867
1 6.2831853071795862 -0 0 1 
1 0 -0 0 1 
1 0 0 1 0 
2 0 0 1 0 -0 1 30.538635220286867
Curves 3
2 0 0 6.7253119515905704 0 0 1 1 0 -0 -0 1 0 30.538635220286867
1 30.538635220286867 -7.4798083745705874e-15 -6.7253119515905704 0 0 1 
2 0 0 -6.7253119515905704 0 0 1 1 0 -0 -0 1 0 30.538635220286867
Polygon3D 0
PolygonOnTriangulations 0
Surfaces 3
2 0 0 -6.7253119515905704 0 0 1 1 0 -0 -0 1 0 30.538635220286867
1 0 0 6.7253119515905704 0 0 1 1 0 -0 -0 1 0 
1 0 0 -6.7253119515905704 0 0 1 1 0 -0 -0 1 0 
Triangulations 0

TShapes 13
Ve
1e-07
30.5386352202869 -7.47980837457059e-15 6.72531195159057
0 0

0101101
*
Ed
 1e-07 1 1 0
1  1 0 0 6.28318530717959
2  1 1 0 0 6.28318530717959
2  2 2 0 0 6.28318530717959
0

0101000
+13 0 -13 0 *
Ve
1e-07
30.5386352202869 -7.47980837457059e-15 -6.72531195159057
0 0

0101101
*
Ed
 1e-07 1 1 0
1  2 0 0 13.4506239031811
3  3 4CN 1 0 0 13.4506239031811
0

0101000
-13 0 +11 0 *
Ed
 1e-07 1 1 0
1  3 0 0 6.28318530717959
2  5 1 0 0 6.28318530717959
2  6 3 0 0 6.28318530717959
0

0101000
+11 0 -11 0 *
Wi

0101100
-12 0 +10 0 +9 0 -10 0 *
Fa
0  1e-07 1 0

0111000
+8 0 *
Wi

0101100
+12 0 *
Fa
0  1e-07 2 0

0111000
+6 0 *
Wi

0101100
-9 0 *
Fa
0  1e-07 3 0

0111000
-4 0 *
Sh

0101100
+7 0 +5 0 -3 0 *
So

1100000
+2 0 *

+1 1 