DBRep_DrawableShape

CASCADE Topology V1, (c) Matra-Datavision
Locations 1
1
0.280338306627041 -0.256839482836853 -0.924902110438495 46.5927794819326 
0.538414008846087 0.839767651616644 -0.0700046168231273 -22.2224081341734 
0.794682822839257 -0.478355277335126 0.373705016998522 44.8777552990633 
Curve2ds 6
1 0 13.327993324714638 1 0 
2 0 0 1 0 -0 1 79.75339400807627
1 6.2831853071795862 -0 0 1 
1 0 -0 0 1 
1 0 0 1 0 
2 0 0 1 0 -0 1 79.75339400807627
Curves 3
2 0 0 6.6639966623573192 0 0 1 1 0 -0 -0 1 0 79.75339400807627
1 79.75339400807627 -1.9533947738625661e-14 -6.6639966623573192 0 0 1 
2 0 0 -6.6639966623573192 0 0 1 1 0 -0 -0 1 0 79.75339400807627
Polygon3D 0
PolygonOnTriangulations 0
Surfaces 3
2 0 0 -6.6639966623573192 0 0 1 1 0 -0 -0 1 0 79.75339400807627
1 0 0 6.6639966623573192 0 0 1 1 0 -0 -0 1 0 
1 0 0 -6.6639966623573192 0 0 1 1 0 -0 -0 1 0 
Triangulations 0

TShapes 13
Ve
1e-07
79.7533940080763 -1.95339477386257e-14 6.66399666235732
0 0

0101101
*
Ed
 1e-07 1 1 0
1  1 0 0 6.28318530717959
2  1 1 0 0 6.28318530717959
2  2 2 0 0 6.28318530717959
0

0101000
+13 0 -13 0 *
Ve
1e-07
79.7533940080763 -1.95339477386257e-14 -6.66399666235732
0 0

0101101
*
Ed
 1e-07 1 1 0
1  2 0 0 13.3279933247146
3  3 4CN 1 0 0 13.3279933247146
0

0101000
-13 0 +11 0 *
Ed
 1e-07 1 1 0
1  3 0 0 6.28318530717959
2  5 1 0 0 6.28318530717959
2  6 3 0 0 6.28318530717959
0

0101000
+11 0 -11 0 *
Wi

0101100
-12 0 +10 0 +9 0 -10 0 *
Fa
0  1e-07 1 0

0111000
+8 0 *
Wi

0101100
+12 0 *
Fa
0  1e-07 2 0

0111000
+6 0 *
Wi

0101100
-9 0 *
Fa
0  1e-07 3 0

0111000
-4 0 *
Sh

0101100
+7 0 +5 0 -3 0 *
So

1100000
+2 0 *

+1 1 