DBRep_DrawableShape

CASCADE Topology V1, (c) Matra-Datavision
Locations 1
1
0.304366660752374 -0.914606388095587 -0.266188073882347 9.22201405329596 
0.498514774510959 0.391065032804476 -0.773660881596014 1.90171527505471 
0.811692032372338 0.102777891457152 0.574971955499471 -24.9787961665374 
Curve2ds 6
1 0 9.6175701357675152 1 0 
2 0 0 1 0 -0 1 27.870234824276992
1 6.2831853071795862 -0 0 1 
1 0 -0 0 1 
1 0 0 1 0 
2 0 0 1 0 -0 1 27.870234824276992
Curves 3
2 0 0 4.8087850678837576 0 0 1 1 0 -0 -0 1 0 27.870234824276992
1 27.870234824276992 -6.8262387738071828e-15 -4.8087850678837576 0 0 1 
2 0 0 -4.8087850678837576 0 0 1 1 0 -0 -0 1 0 27.870234824276992
Polygon3D 0
PolygonOnTriangulations 0
Surfaces 3
2 0 0 -4.8087850678837576 0 0 1 1 0 -0 -0 1 0 27.870234824276992
1 0 0 4.8087850678837576 0 0 1 1 0 -0 -0 1 0 
1 0 0 -4.8087850678837576 0 0 1 1 0 -0 -0 1 0 
Triangulations 0

TShapes 13
Ve
1e-07
27.870234824277 -6.82623877380718e-15 4.80878506788376
0 0

0101101
*
Ed
 1e-07 1 1 0
1  1 0 0 6.28318530717959
2  1 1 0 0 6.28318530717959
2  2 2 0 0 6.28318530717959
0

0101000
+13 0 -13 0 *
Ve
1e-07
27.870234824277 -6.82623877380718e-15 -4.80878506788376
0 0

0101101
*
Ed
 1e-07 1 1 0
1  2 0 0 9.61757013576752
3  3 4CN 1 0 0 9.61757013576752
0

0101000
-13 0 +11 0 *
Ed
 1e-07 1 1 0
1  3 0 0 6.28318530717959
2  5 1 0 0 6.28318530717959
2  6 3 0 0 6.28318530717959
0

0101000
+11 0 -11 0 *
Wi

0101100
-12 0 +10 0 +9 0 -10 0 *
Fa
0  1e-07 1 0

0111000
+8 0 *
Wi

0101100
+12 0 *
Fa
0  1e-07 2 0

0111000
+6 0 *
Wi

0101100
-9 0 *
Fa
0  1e-07 3 0

0111000
-4 0 *
Sh

0101100
+7 0 +5 0 -3 0 *
So

1100000
+2 0 *

+1 1 