DBRep_DrawableShape

CASCADE Topology V1, (c) Matra-Datavision
Locations 1
1
0.0832421923990214 0.385430683086925 -0.91897438807605 -30.6142068055709 
-0.0163307482901444 0.922578716180296 0.385463122894267 -2.0673138180631 
0.996395525915732 -0.0170792560219327 0.0830918464643134 20.4200706621361 
Curve2ds 6
1 0 2.160801708330931 1 0 
2 0 0 1 0 -0 1 75.305603886479645
1 6.2831853071795862 -0 0 1 
1 0 -0 0 1 
1 0 0 1 0 
2 0 0 1 0 -0 1 75.305603886479645
Curves 3
2 0 0 1.0804008541654655 0 0 1 1 0 -0 -0 1 0 75.305603886479645
1 75.305603886479645 -1.8444553351487155e-14 -1.0804008541654655 0 0 1 
2 0 0 -1.0804008541654655 0 0 1 1 0 -0 -0 1 0 75.305603886479645
Polygon3D 0
PolygonOnTriangulations 0
Surfaces 3
2 0 0 -1.0804008541654655 0 0 1 1 0 -0 -0 1 0 75.305603886479645
1 0 0 1.0804008541654655 0 0 1 1 0 -0 -0 1 0 
1 0 0 -1.0804008541654655 0 0 1 1 0 -0 -0 1 0 
Triangulations 0

TShapes 13
Ve
1e-07
75.3056038864796 -1.84445533514872e-14 1.08040085416547
0 0

0101101
*
Ed
 1e-07 1 1 0
1  1 0 0 6.28318530717959
2  1 1 0 0 6.28318530717959
2  2 2 0 0 6.28318530717959
0

0101000
+13 0 -13 0 *
Ve
1e-07
75.3056038864796 -1.84445533514872e-14 -1.08040085416547
0 0

0101101
*
Ed
 1e-07 1 1 0
1  2 0 0 2.16080170833093
3  3 4CN 1 0 0 2.16080170833093
0

0101000
-13 0 +11 0 *
Ed
 1e-07 1 1 0
1  3 0 0 6.28318530717959
2  5 1 0 0 6.28318530717959
2  6 3 0 0 6.28318530717959
0

0101000
+11 0 -11 0 *
Wi

0101100
-12 0 +10 0 +9 0 -10 0 *
Fa
0  1e-07 1 0

0111000
+8 0 *
Wi

0101100
+12 0 *
Fa
0  1e-07 2 0

0111000
+6 0 *
Wi

0101100
-9 0 *
Fa
0  1e-07 3 0

0111000
-4 0 *
Sh

0101100
+7 0 +5 0 -3 0 *
So

1100000
+2 0 *

+1 1 