DBRep_DrawableShape

CASCADE Topology V1, (c) Matra-Datavision
Locations 1
1
0.81262803988698 -0.342459981312967 -0.471547272273488 -49.2863275630699 
0.554313455769003 0.703999943113887 0.443982739359391 -12.8547040879999 
0.179922932231747 -0.622177821281638 0.761920269557362 27.3020073370382 
Curve2ds 6
1 0 5.4249579733517699 1 0 
2 0 0 1 0 -0 1 75.632927691457667
1 6.2831853071795862 -0 0 1 
1 0 -0 0 1 
1 0 0 1 0 
2 0 0 1 0 -0 1 75.632927691457667
Curves 3
2 0 0 2.7124789866758849 0 0 1 1 0 -0 -0 1 0 75.632927691457667
1 75.632927691457667 -1.8524724561497369e-14 -2.7124789866758849 0 0 1 
2 0 0 -2.7124789866758849 0 0 1 1 0 -0 -0 1 0 75.632927691457667
Polygon3D 0
PolygonOnTriangulations 0
Surfaces 3
2 0 0 -2.7124789866758849 0 0 1 1 0 -0 -0 1 0 75.632927691457667
1 0 0 2.7124789866758849 0 0 1 1 0 -0 -0 1 0 
1 0 0 -2.7124789866758849 0 0 1 1 0 -0 -0 1 0 
Triangulations 0

TShapes 13
Ve
1e-07
75.6329276914577 -1.85247245614974e-14 2.71247898667588
0 0

0101101
*
Ed
 1e-07 1 1 0
1  1 0 0 6.28318530717959
2  1 1 0 0 6.28318530717959
2  2 2 0 0 6.28318530717959
0

0101000
+13 0 -13 0 *
Ve
1e-07
75.6329276914577 -1.85247245614974e-14 -2.71247898667588
0 0

0101101
*
Ed
 1e-07 1 1 0
1  2 0 0 5.42495797335177
3  3 4CN 1 0 0 5.42495797335177
0

0101000
-13 0 +11 0 *
Ed
 1e-07 1 1 0
1  3 0 0 6.28318530717959
2  5 1 0 0 6.28318530717959
2  6 3 0 0 6.28318530717959
0

0101000
+11 0 -11 0 *
Wi

0101100
-12 0 +10 0 +9 0 -10 0 *
Fa
0  1e-07 1 0

0111000
+8 0 *
Wi

0101100
+12 0 *
Fa
0  1e-07 2 0

0111000
+6 0 *
Wi

0101100
-9 0 *
Fa
0  1e-07 3 0

0111000
-4 0 *
Sh

0101100
+7 0 +5 0 -3 0 *
So

1100000
+2 0 *

+1 1 