DBRep_DrawableShape

CASCADE Topology V1, (c) Matra-Datavision
Locations 1
1
0.0741240720611952 -0.95536963786503 -0.285962369878815 24.572579589952 
0.582719978389863 -0.191209951579915 0.789858329830182 29.0565125272062 
-0.809285517432744 -0.225183501754565 0.542539714501314 -26.7248107948431 
Curve2ds 6
1 0 13.220335508318145 1 0 
2 0 0 1 0 -0 1 23.17135093894678
1 6.2831853071795862 -0 0 1 
1 0 -0 0 1 
1 0 0 1 0 
2 0 0 1 0 -0 1 23.17135093894678
Curves 3
2 0 0 6.6101677541590727 0 0 1 1 0 -0 -0 1 0 23.17135093894678
1 23.17135093894678 -5.6753441518602386e-15 -6.6101677541590727 0 0 1 
2 0 0 -6.6101677541590727 0 0 1 1 0 -0 -0 1 0 23.17135093894678
Polygon3D 0
PolygonOnTriangulations 0
Surfaces 3
2 0 0 -6.6101677541590727 0 0 1 1 0 -0 -0 1 0 23.17135093894678
1 0 0 6.6101677541590727 0 0 1 1 0 -0 -0 1 0 
1 0 0 -6.6101677541590727 0 0 1 1 0 -0 -0 1 0 
Triangulations 0

TShapes 13
Ve
1e-07
23.1713509389468 -5.67534415186024e-15 6.61016775415907
0 0

0101101
*
Ed
 1e-07 1 1 0
1  1 0 0 6.28318530717959
2  1 1 0 0 6.28318530717959
2  2 2 0 0 6.28318530717959
0

0101000
+13 0 -13 0 *
Ve
1e-07
23.1713509389468 -5.67534415186024e-15 -6.61016775415907
0 0

0101101
*
Ed
 1e-07 1 1 0
1  2 0 0 13.2203355083181
3  3 4CN 1 0 0 13.2203355083181
0

0101000
-13 0 +11 0 *
Ed
 1e-07 1 1 0
1  3 0 0 6.28318530717959
2  5 1 0 0 6.28318530717959
2  6 3 0 0 6.28318530717959
0

0101000
+11 0 -11 0 *
Wi

0101100
-12 0 +10 0 +9 0 -10 0 *
Fa
0  1e-07 1 0

0111000
+8 0 *
Wi

0101100
+12 0 *
Fa
0  1e-07 2 0

0111000
+6 0 *
Wi

0101100
-9 0 *
Fa
0  1e-07 3 0

0111000
-4 0 *
Sh

0101100
+7 0 +5 0 -3 0 *
So

1100000
+2 0 *

+1 1 