DBRep_DrawableShape

CASCADE Topology V1, (c) Matra-Datavision
Locations 1
1
0.44596212604675 0.125563009680287 0.886200718083602 10.6367127551264 
-0.826564962755305 0.43762110998768 0.35394650222664 9.84778610531674 
-0.343377553834237 -0.8903491981763 0.298948425032874 4.1652745817832 
Curve2ds 24
1 0 0 1 0 
1 0 0 1 0 
1 1 0 0 -1 
1 0 0 0 1 
1 0 -209.40000000000001 1 0 
1 0 0 1 0 
1 0 0 0 -1 
1 0 0 0 1 
1 0 0 1 0 
1 0 237.59999999999999 1 0 
1 1 0 0 -1 
1 237.59999999999999 0 0 1 
1 0 -209.40000000000001 1 0 
1 0 237.59999999999999 1 0 
1 0 0 0 -1 
1 237.59999999999999 0 0 1 
1 0 0 0 1 
1 0 0 1 0 
1 1 0 0 1 
1 0 0 1 0 
1 0 0 0 1 
1 0 209.40000000000001 1 0 
1 1 0 0 1 
1 0 209.40000000000001 1 0 
Curves 12
1 -118.8 -104.7 -0.5 0 0 1 
1 -118.8 -104.7 0.5 -0 1 0 
1 -118.8 104.7 -0.5 0 0 1 
1 -118.8 -104.7 -0.5 -0 1 0 
1 118.8 -104.7 -0.5 0 0 1 
1 118.8 -104.7 0.5 -0 1 0 
1 118.8 104.7 -0.5 0 0 1 
1 118.8 -104.7 -0.5 -0 1 0 
1 -118.8 -104.7 -0.5 1 0 -0 
1 -118.8 -104.7 0.5 1 0 -0 
1 -118.8 104.7 -0.5 1 0 -0 
1 -118.8 104.7 0.5 1 0 -0 
Polygon3D 0
PolygonOnTriangulations 0
Surfaces 6
1 -118.8 -104.7 -0.5 1 0 -0 0 0 1 0 -1 0 
1 -118.8 -104.7 -0.5 -0 1 0 0 0 1 1 0 -0 
1 -118.8 -104.7 0.5 0 0 1 1 0 -0 -0 1 0 
1 -118.8 104.7 -0.5 -0 1 0 0 0 1 1 0 -0 
1 -118.8 -104.7 -0.5 0 0 1 1 0 -0 -0 1 0 
1 118.8 -104.7 -0.5 1 0 -0 0 0 1 0 -1 0 
Triangulations 0

TShapes 34
Ve
1e-07
-118.8 -104.7 0.5
0 0

0101101
*
Ve
1e-07
-118.8 -104.7 -0.5
0 0

0101101
*
Ed
 1e-07 1 1 0
1  1 0 0 1
2  1 1 0 0 1
2  2 2 0 0 1
0

0101000
-34 0 +33 0 *
Ve
1e-07
-118.8 104.7 0.5
0 0

0101101
*
Ed
 1e-07 1 1 0
1  2 0 0 209.4
2  3 1 0 0 209.4
2  4 3 0 0 209.4
0

0101000
-31 0 +34 0 *
Ve
1e-07
-118.8 104.7 -0.5
0 0

0101101
*
Ed
 1e-07 1 1 0
1  3 0 0 1
2  5 1 0 0 1
2  6 4 0 0 1
0

0101000
-31 0 +29 0 *
Ed
 1e-07 1 1 0
1  4 0 0 209.4
2  7 1 0 0 209.4
2  8 5 0 0 209.4
0

0101000
-29 0 +33 0 *
Wi

0101100
-32 0 -30 0 +28 0 +27 0 *
Fa
0  1e-07 1 0

0111000
+26 0 *
Ve
1e-07
118.8 -104.7 0.5
0 0

0101101
*
Ve
1e-07
118.8 -104.7 -0.5
0 0

0101101
*
Ed
 1e-07 1 1 0
1  5 0 0 1
2  9 6 0 0 1
2  10 2 0 0 1
0

0101000
-24 0 +23 0 *
Ve
1e-07
118.8 104.7 0.5
0 0

0101101
*
Ed
 1e-07 1 1 0
1  6 0 0 209.4
2  11 6 0 0 209.4
2  12 3 0 0 209.4
0

0101000
-21 0 +24 0 *
Ve
1e-07
118.8 104.7 -0.5
0 0

0101101
*
Ed
 1e-07 1 1 0
1  7 0 0 1
2  13 6 0 0 1
2  14 4 0 0 1
0

0101000
-21 0 +19 0 *
Ed
 1e-07 1 1 0
1  8 0 0 209.4
2  15 6 0 0 209.4
2  16 5 0 0 209.4
0

0101000
-19 0 +23 0 *
Wi

0101100
-22 0 -20 0 +18 0 +17 0 *
Fa
0  1e-07 6 0

0111000
+16 0 *
Ed
 1e-07 1 1 0
1  9 0 0 237.6
2  17 2 0 0 237.6
2  18 5 0 0 237.6
0

0101000
-23 0 +33 0 *
Ed
 1e-07 1 1 0
1  10 0 0 237.6
2  19 2 0 0 237.6
2  20 3 0 0 237.6
0

0101000
-24 0 +34 0 *
Wi

0101100
-14 0 -22 0 +13 0 +32 0 *
Fa
0  1e-07 2 0

0111000
+12 0 *
Ed
 1e-07 1 1 0
1  11 0 0 237.6
2  21 4 0 0 237.6
2  22 5 0 0 237.6
0

0101000
-19 0 +29 0 *
Ed
 1e-07 1 1 0
1  12 0 0 237.6
2  23 4 0 0 237.6
2  24 3 0 0 237.6
0

0101000
-21 0 +31 0 *
Wi

0101100
-10 0 -18 0 +9 0 +28 0 *
Fa
0  1e-07 4 0

0111000
+8 0 *
Wi

0101100
-27 0 -10 0 +17 0 +14 0 *
Fa
0  1e-07 5 0

0111000
+6 0 *
Wi

0101100
-30 0 -9 0 +20 0 +13 0 *
Fa
0  1e-07 3 0

0111000
+4 0 *
Sh

0101100
-25 0 +15 0 -11 0 +7 0 -5 0 +3 0 *
So

1100000
+2 0 *

+1 1 