DBRep_DrawableShape

CASCADE Topology V1, (c) Matra-Datavision
Locations 1
1
0.219333288126054 0.0243456587980695 0.975346193726874 12.1455571754497 
0.446462795681029 0.886373957638726 -0.122524198803919 -2.67635299158936 
-0.867504398140144 0.462329423806824 0.183541883748523 -10.2624090723115 
Curve2ds 4
1 0 1.5707963267948966 1 0 
1 6.2831853071795862 -6.2831853071795862 0 1 
1 0 -6.2831853071795862 0 1 
1 0 -1.5707963267948966 1 0 
Curves 1
2 0 0 0 -2.4492935982947064e-16 -1 0 1 -2.4492935982947064e-16 0 0 0 1 14.5
Polygon3D 0
PolygonOnTriangulations 0
Surfaces 1
4 0 0 0 0 0 1 1 0 -0 -0 1 0 14.5
Triangulations 0

TShapes 9
Ve
1e-07
8.87868929381831e-16 -2.17465168485969e-31 14.5
0 0

0101101
*
Ed
 1e-07 1 1 1
2  1 1 0 0 6.28318530717959
0

0101000
+9 0 -9 0 *
Ve
1e-07
8.87868929381831e-16 -2.17465168485969e-31 -14.5
0 0

0101101
*
Ed
 1e-07 1 1 0
1  1 0 4.71238898038469 7.85398163397448
3  2 3CN 1 0 4.71238898038469 7.85398163397448
0

0101000
-9 0 +7 0 *
Ed
 1e-07 1 1 1
2  4 1 0 0 6.28318530717959
0

0101000
+7 0 -7 0 *
Wi

0101100
-8 0 +6 0 +5 0 -6 0 *
Fa
0  1e-07 1 0

0111000
+4 0 *
Sh

0101100
+3 0 *
So

1100000
+2 0 *

+1 1 