DBRep_DrawableShape

CASCADE Topology V1, (c) Matra-Datavision
Locations 1
1
0.556334674536254 0.555689968571887 -0.617819058250242 -1.24903161088491 
0.221846727620263 0.617188843905993 0.75489201903462 -17.5872313326887 
0.800796952637072 -0.55703374205389 0.220085553502768 -9.82060358031342 
Curve2ds 4
1 0 1.5707963267948966 1 0 
1 6.2831853071795862 -6.2831853071795862 0 1 
1 0 -6.2831853071795862 0 1 
1 0 -1.5707963267948966 1 0 
Curves 1
2 0 0 0 -2.4492935982947064e-16 -1 0 1 -2.4492935982947064e-16 0 0 0 1 15.9
Polygon3D 0
PolygonOnTriangulations 0
Surfaces 1
4 0 0 0 0 0 1 1 0 -0 -0 1 0 15.9
Triangulations 0

TShapes 9
Ve
1e-07
9.73594205322146e-16 -2.38461805443235e-31 15.9
0 0

0101101
*
Ed
 1e-07 1 1 1
2  1 1 0 0 6.28318530717959
0

0101000
+9 0 -9 0 *
Ve
1e-07
9.73594205322146e-16 -2.38461805443235e-31 -15.9
0 0

0101101
*
Ed
 1e-07 1 1 0
1  1 0 4.71238898038469 7.85398163397448
3  2 3CN 1 0 4.71238898038469 7.85398163397448
0

0101000
-9 0 +7 0 *
Ed
 1e-07 1 1 1
2  4 1 0 0 6.28318530717959
0

0101000
+7 0 -7 0 *
Wi

0101100
-8 0 +6 0 +5 0 -6 0 *
Fa
0  1e-07 1 0

0111000
+4 0 *
Sh

0101100
+3 0 *
So

1100000
+2 0 *

+1 1 