DBRep_DrawableShape

CASCADE Topology V1, (c) Matra-Datavision
Locations 1
1
0.522773378448806 0.659215578026608 -0.540502374159695 -15.042590866666 
-0.63685691406947 0.723486436156929 0.266421935468644 -9.74595078247292 
0.566675626604086 0.204944378756753 0.798045447220191 0.50179126197197 
Curve2ds 4
1 0 1.5707963267948966 1 0 
1 6.2831853071795862 -6.2831853071795862 0 1 
1 0 -6.2831853071795862 0 1 
1 0 -1.5707963267948966 1 0 
Curves 1
2 0 0 0 -2.4492935982947064e-16 -1 0 1 -2.4492935982947064e-16 0 0 0 1 11.6
Polygon3D 0
PolygonOnTriangulations 0
Surfaces 1
4 0 0 0 0 0 1 1 0 -0 -0 1 0 11.6
Triangulations 0

TShapes 9
Ve
1e-07
7.10295143505465e-16 -1.73972134788775e-31 11.6
0 0

0101101
*
Ed
 1e-07 1 1 1
2  1 1 0 0 6.28318530717959
0

0101000
+9 0 -9 0 *
Ve
1e-07
7.10295143505465e-16 -1.73972134788775e-31 -11.6
0 0

0101101
*
Ed
 1e-07 1 1 0
1  1 0 4.71238898038469 7.85398163397448
3  2 3CN 1 0 4.71238898038469 7.85398163397448
0

0101000
-9 0 +7 0 *
Ed
 1e-07 1 1 1
2  4 1 0 0 6.28318530717959
0

0101000
+7 0 -7 0 *
Wi

0101100
-8 0 +6 0 +5 0 -6 0 *
Fa
0  1e-07 1 0

0111000
+4 0 *
Sh

0101100
+3 0 *
So

1100000
+2 0 *

+1 1 