DBRep_DrawableShape

CASCADE Topology V1, (c) Matra-Datavision
Locations 1
1
0.145625048701593 0.762565221426757 -0.630307566399944 -31.8949835037994 
-0.784187424716158 -0.299465717426004 -0.543479868075689 49.2027358999472 
-0.60319435351112 0.573423549531138 0.554384347484137 -7.95050705377845 
Curve2ds 24
1 0 0 1 0 
1 0 0 1 0 
1 10.094650836494194 0 0 -1 
1 0 0 0 1 
1 0 -312.94445251093907 1 0 
1 0 0 1 0 
1 0 0 0 -1 
1 0 0 0 1 
1 0 0 1 0 
1 0 254.95988266117095 1 0 
1 10.094650836494194 0 0 -1 
1 254.95988266117095 0 0 1 
1 0 -312.94445251093907 1 0 
1 0 254.95988266117095 1 0 
1 0 0 0 -1 
1 254.95988266117095 0 0 1 
1 0 0 0 1 
1 0 0 1 0 
1 10.094650836494194 0 0 1 
1 0 0 1 0 
1 0 0 0 1 
1 0 312.94445251093907 1 0 
1 10.094650836494194 0 0 1 
1 0 312.94445251093907 1 0 
Curves 12
1 -127.47994133058548 -156.47222625546954 -5.0473254182470972 0 0 1 
1 -127.47994133058548 -156.47222625546954 5.0473254182470972 -0 1 0 
1 -127.47994133058548 156.47222625546954 -5.0473254182470972 0 0 1 
1 -127.47994133058548 -156.47222625546954 -5.0473254182470972 -0 1 0 
1 127.47994133058548 -156.47222625546954 -5.0473254182470972 0 0 1 
1 127.47994133058548 -156.47222625546954 5.0473254182470972 -0 1 0 
1 127.47994133058548 156.47222625546954 -5.0473254182470972 0 0 1 
1 127.47994133058548 -156.47222625546954 -5.0473254182470972 -0 1 0 
1 -127.47994133058548 -156.47222625546954 -5.0473254182470972 1 0 -0 
1 -127.47994133058548 -156.47222625546954 5.0473254182470972 1 0 -0 
1 -127.47994133058548 156.47222625546954 -5.0473254182470972 1 0 -0 
1 -127.47994133058548 156.47222625546954 5.0473254182470972 1 0 -0 
Polygon3D 0
PolygonOnTriangulations 0
Surfaces 6
1 -127.47994133058548 -156.47222625546954 -5.0473254182470972 1 0 -0 0 0 1 0 -1 0 
1 -127.47994133058548 -156.47222625546954 -5.0473254182470972 -0 1 0 0 0 1 1 0 -0 
1 -127.47994133058548 -156.47222625546954 5.0473254182470972 0 0 1 1 0 -0 -0 1 0 
1 -127.47994133058548 156.47222625546954 -5.0473254182470972 -0 1 0 0 0 1 1 0 -0 
1 -127.47994133058548 -156.47222625546954 -5.0473254182470972 0 0 1 1 0 -0 -0 1 0 
1 127.47994133058548 -156.47222625546954 -5.0473254182470972 1 0 -0 0 0 1 0 -1 0 
Triangulations 0

TShapes 34
Ve
1e-07
-127.479941330585 -156.47222625547 5.0473254182471
0 0

0101101
*
Ve
1e-07
-127.479941330585 -156.47222625547 -5.0473254182471
0 0

0101101
*
Ed
 1e-07 1 1 0
1  1 0 0 10.0946508364942
2  1 1 0 0 10.0946508364942
2  2 2 0 0 10.0946508364942
0

0101000
-34 0 +33 0 *
Ve
1e-07
-127.479941330585 156.47222625547 5.0473254182471
0 0

0101101
*
Ed
 1e-07 1 1 0
1  2 0 0 312.944452510939
2  3 1 0 0 312.944452510939
2  4 3 0 0 312.944452510939
0

0101000
-31 0 +34 0 *
Ve
1e-07
-127.479941330585 156.47222625547 -5.0473254182471
0 0

0101101
*
Ed
 1e-07 1 1 0
1  3 0 0 10.0946508364942
2  5 1 0 0 10.0946508364942
2  6 4 0 0 10.0946508364942
0

0101000
-31 0 +29 0 *
Ed
 1e-07 1 1 0
1  4 0 0 312.944452510939
2  7 1 0 0 312.944452510939
2  8 5 0 0 312.944452510939
0

0101000
-29 0 +33 0 *
Wi

0101100
-32 0 -30 0 +28 0 +27 0 *
Fa
0  1e-07 1 0

0111000
+26 0 *
Ve
1e-07
127.479941330585 -156.47222625547 5.0473254182471
0 0

0101101
*
Ve
1e-07
127.479941330585 -156.47222625547 -5.0473254182471
0 0

0101101
*
Ed
 1e-07 1 1 0
1  5 0 0 10.0946508364942
2  9 6 0 0 10.0946508364942
2  10 2 0 0 10.0946508364942
0

0101000
-24 0 +23 0 *
Ve
1e-07
127.479941330585 156.47222625547 5.0473254182471
0 0

0101101
*
Ed
 1e-07 1 1 0
1  6 0 0 312.944452510939
2  11 6 0 0 312.944452510939
2  12 3 0 0 312.944452510939
0

0101000
-21 0 +24 0 *
Ve
1e-07
127.479941330585 156.47222625547 -5.0473254182471
0 0

0101101
*
Ed
 1e-07 1 1 0
1  7 0 0 10.0946508364942
2  13 6 0 0 10.0946508364942
2  14 4 0 0 10.0946508364942
0

0101000
-21 0 +19 0 *
Ed
 1e-07 1 1 0
1  8 0 0 312.944452510939
2  15 6 0 0 312.944452510939
2  16 5 0 0 312.944452510939
0

0101000
-19 0 +23 0 *
Wi

0101100
-22 0 -20 0 +18 0 +17 0 *
Fa
0  1e-07 6 0

0111000
+16 0 *
Ed
 1e-07 1 1 0
1  9 0 0 254.959882661171
2  17 2 0 0 254.959882661171
2  18 5 0 0 254.959882661171
0

0101000
-23 0 +33 0 *
Ed
 1e-07 1 1 0
1  10 0 0 254.959882661171
2  19 2 0 0 254.959882661171
2  20 3 0 0 254.959882661171
0

0101000
-24 0 +34 0 *
Wi

0101100
-14 0 -22 0 +13 0 +32 0 *
Fa
0  1e-07 2 0

0111000
+12 0 *
Ed
 1e-07 1 1 0
1  11 0 0 254.959882661171
2  21 4 0 0 254.959882661171
2  22 5 0 0 254.959882661171
0

0101000
-19 0 +29 0 *
Ed
 1e-07 1 1 0
1  12 0 0 254.959882661171
2  23 4 0 0 254.959882661171
2  24 3 0 0 254.959882661171
0

0101000
-21 0 +31 0 *
Wi

0101100
-10 0 -18 0 +9 0 +28 0 *
Fa
0  1e-07 4 0

0111000
+8 0 *
Wi

0101100
-27 0 -10 0 +17 0 +14 0 *
Fa
0  1e-07 5 0

0111000
+6 0 *
Wi

0101100
-30 0 -9 0 +20 0 +13 0 *
Fa
0  1e-07 3 0

0111000
+4 0 *
Sh

0101100
-25 0 +15 0 -11 0 +7 0 -5 0 +3 0 *
So

1100000
+2 0 *

+1 1 