DBRep_DrawableShape

CASCADE Topology V1, (c) Matra-Datavision
Locations 1
1
0.810778890838469 0.0539255054017403 0.582863303046185 31.0159611340934 
-0.376539756246601 0.810431145289134 0.448797471818964 49.2505021602987 
-0.448168943743866 -0.583346722466588 0.67738556173792 -22.5793279210813 
Curve2ds 24
1 0 0 1 0 
1 0 0 1 0 
1 3.1375710351032224 0 0 -1 
1 0 0 0 1 
1 0 -109.23357673844656 1 0 
1 0 0 1 0 
1 0 0 0 -1 
1 0 0 0 1 
1 0 0 1 0 
1 0 345.93108457211639 1 0 
1 3.1375710351032224 0 0 -1 
1 345.93108457211639 0 0 1 
1 0 -109.23357673844656 1 0 
1 0 345.93108457211639 1 0 
1 0 0 0 -1 
1 345.93108457211639 0 0 1 
1 0 0 0 1 
1 0 0 1 0 
1 3.1375710351032224 0 0 1 
1 0 0 1 0 
1 0 0 0 1 
1 0 109.23357673844656 1 0 
1 3.1375710351032224 0 0 1 
1 0 109.23357673844656 1 0 
Curves 12
1 -172.9655422860582 -54.616788369223279 -1.5687855175516112 0 0 1 
1 -172.9655422860582 -54.616788369223279 1.5687855175516112 -0 1 0 
1 -172.9655422860582 54.616788369223279 -1.5687855175516112 0 0 1 
1 -172.9655422860582 -54.616788369223279 -1.5687855175516112 -0 1 0 
1 172.9655422860582 -54.616788369223279 -1.5687855175516112 0 0 1 
1 172.9655422860582 -54.616788369223279 1.5687855175516112 -0 1 0 
1 172.9655422860582 54.616788369223279 -1.5687855175516112 0 0 1 
1 172.9655422860582 -54.616788369223279 -1.5687855175516112 -0 1 0 
1 -172.9655422860582 -54.616788369223279 -1.5687855175516112 1 0 -0 
1 -172.9655422860582 -54.616788369223279 1.5687855175516112 1 0 -0 
1 -172.9655422860582 54.616788369223279 -1.5687855175516112 1 0 -0 
1 -172.9655422860582 54.616788369223279 1.5687855175516112 1 0 -0 
Polygon3D 0
PolygonOnTriangulations 0
Surfaces 6
1 -172.9655422860582 -54.616788369223279 -1.5687855175516112 1 0 -0 0 0 1 0 -1 0 
1 -172.9655422860582 -54.616788369223279 -1.5687855175516112 -0 1 0 0 0 1 1 0 -0 
1 -172.9655422860582 -54.616788369223279 1.5687855175516112 0 0 1 1 0 -0 -0 1 0 
1 -172.9655422860582 54.616788369223279 -1.5687855175516112 -0 1 0 0 0 1 1 0 -0 
1 -172.9655422860582 -54.616788369223279 -1.5687855175516112 0 0 1 1 0 -0 -0 1 0 
1 172.9655422860582 -54.616788369223279 -1.5687855175516112 1 0 -0 0 0 1 0 -1 0 
Triangulations 0

TShapes 34
Ve
1e-07
-172.965542286058 -54.6167883692233 1.56878551755161
0 0

0101101
*
Ve
1e-07
-172.965542286058 -54.6167883692233 -1.56878551755161
0 0

0101101
*
Ed
 1e-07 1 1 0
1  1 0 0 3.13757103510322
2  1 1 0 0 3.13757103510322
2  2 2 0 0 3.13757103510322
0

0101000
-34 0 +33 0 *
Ve
1e-07
-172.965542286058 54.6167883692233 1.56878551755161
0 0

0101101
*
Ed
 1e-07 1 1 0
1  2 0 0 109.233576738447
2  3 1 0 0 109.233576738447
2  4 3 0 0 109.233576738447
0

0101000
-31 0 +34 0 *
Ve
1e-07
-172.965542286058 54.6167883692233 -1.56878551755161
0 0

0101101
*
Ed
 1e-07 1 1 0
1  3 0 0 3.13757103510322
2  5 1 0 0 3.13757103510322
2  6 4 0 0 3.13757103510322
0

0101000
-31 0 +29 0 *
Ed
 1e-07 1 1 0
1  4 0 0 109.233576738447
2  7 1 0 0 109.233576738447
2  8 5 0 0 109.233576738447
0

0101000
-29 0 +33 0 *
Wi

0101100
-32 0 -30 0 +28 0 +27 0 *
Fa
0  1e-07 1 0

0111000
+26 0 *
Ve
1e-07
172.965542286058 -54.6167883692233 1.56878551755161
0 0

0101101
*
Ve
1e-07
172.965542286058 -54.6167883692233 -1.56878551755161
0 0

0101101
*
Ed
 1e-07 1 1 0
1  5 0 0 3.13757103510322
2  9 6 0 0 3.13757103510322
2  10 2 0 0 3.13757103510322
0

0101000
-24 0 +23 0 *
Ve
1e-07
172.965542286058 54.6167883692233 1.56878551755161
0 0

0101101
*
Ed
 1e-07 1 1 0
1  6 0 0 109.233576738447
2  11 6 0 0 109.233576738447
2  12 3 0 0 109.233576738447
0

0101000
-21 0 +24 0 *
Ve
1e-07
172.965542286058 54.6167883692233 -1.56878551755161
0 0

0101101
*
Ed
 1e-07 1 1 0
1  7 0 0 3.13757103510322
2  13 6 0 0 3.13757103510322
2  14 4 0 0 3.13757103510322
0

0101000
-21 0 +19 0 *
Ed
 1e-07 1 1 0
1  8 0 0 109.233576738447
2  15 6 0 0 109.233576738447
2  16 5 0 0 109.233576738447
0

0101000
-19 0 +23 0 *
Wi

0101100
-22 0 -20 0 +18 0 +17 0 *
Fa
0  1e-07 6 0

0111000
+16 0 *
Ed
 1e-07 1 1 0
1  9 0 0 345.931084572116
2  17 2 0 0 345.931084572116
2  18 5 0 0 345.931084572116
0

0101000
-23 0 +33 0 *
Ed
 1e-07 1 1 0
1  10 0 0 345.931084572116
2  19 2 0 0 345.931084572116
2  20 3 0 0 345.931084572116
0

0101000
-24 0 +34 0 *
Wi

0101100
-14 0 -22 0 +13 0 +32 0 *
Fa
0  1e-07 2 0

0111000
+12 0 *
Ed
 1e-07 1 1 0
1  11 0 0 345.931084572116
2  21 4 0 0 345.931084572116
2  22 5 0 0 345.931084572116
0

0101000
-19 0 +29 0 *
Ed
 1e-07 1 1 0
1  12 0 0 345.931084572116
2  23 4 0 0 345.931084572116
2  24 3 0 0 345.931084572116
0

0101000
-21 0 +31 0 *
Wi

0101100
-10 0 -18 0 +9 0 +28 0 *
Fa
0  1e-07 4 0

0111000
+8 0 *
Wi

0101100
-27 0 -10 0 +17 0 +14 0 *
Fa
0  1e-07 5 0

0111000
+6 0 *
Wi

0101100
-30 0 -9 0 +20 0 +13 0 *
Fa
0  1e-07 3 0

0111000
+4 0 *
Sh

0101100
-25 0 +15 0 -11 0 +7 0 -5 0 +3 0 *
So

1100000
+2 0 *

+1 1 