DBRep_DrawableShape

CASCADE Topology V1, (c) Matra-Datavision
Locations 1
1
0.136489558301413 -0.40613428591592 -0.903562694160317 -30.2567294199826 
0.929391848359239 -0.263244314100489 0.258714559499772 35.8438381324314 
-0.342930594549514 -0.875075638386379 0.341527794512522 15.124937818684 
Curve2ds 24
1 0 0 1 0 
1 0 0 1 0 
1 3.598868932472171 0 0 -1 
1 0 0 0 1 
1 0 -340.87485342510701 1 0 
1 0 0 1 0 
1 0 0 0 -1 
1 0 0 0 1 
1 0 0 1 0 
1 0 418.81124075287477 1 0 
1 3.598868932472171 0 0 -1 
1 418.81124075287477 0 0 1 
1 0 -340.87485342510701 1 0 
1 0 418.81124075287477 1 0 
1 0 0 0 -1 
1 418.81124075287477 0 0 1 
1 0 0 0 1 
1 0 0 1 0 
1 3.598868932472171 0 0 1 
1 0 0 1 0 
1 0 0 0 1 
1 0 340.87485342510701 1 0 
1 3.598868932472171 0 0 1 
1 0 340.87485342510701 1 0 
Curves 12
1 -209.40562037643738 -170.4374267125535 -1.7994344662360855 0 0 1 
1 -209.40562037643738 -170.4374267125535 1.7994344662360855 -0 1 0 
1 -209.40562037643738 170.4374267125535 -1.7994344662360855 0 0 1 
1 -209.40562037643738 -170.4374267125535 -1.7994344662360855 -0 1 0 
1 209.40562037643738 -170.4374267125535 -1.7994344662360855 0 0 1 
1 209.40562037643738 -170.4374267125535 1.7994344662360855 -0 1 0 
1 209.40562037643738 170.4374267125535 -1.7994344662360855 0 0 1 
1 209.40562037643738 -170.4374267125535 -1.7994344662360855 -0 1 0 
1 -209.40562037643738 -170.4374267125535 -1.7994344662360855 1 0 -0 
1 -209.40562037643738 -170.4374267125535 1.7994344662360855 1 0 -0 
1 -209.40562037643738 170.4374267125535 -1.7994344662360855 1 0 -0 
1 -209.40562037643738 170.4374267125535 1.7994344662360855 1 0 -0 
Polygon3D 0
PolygonOnTriangulations 0
Surfaces 6
1 -209.40562037643738 -170.4374267125535 -1.7994344662360855 1 0 -0 0 0 1 0 -1 0 
1 -209.40562037643738 -170.4374267125535 -1.7994344662360855 -0 1 0 0 0 1 1 0 -0 
1 -209.40562037643738 -170.4374267125535 1.7994344662360855 0 0 1 1 0 -0 -0 1 0 
1 -209.40562037643738 170.4374267125535 -1.7994344662360855 -0 1 0 0 0 1 1 0 -0 
1 -209.40562037643738 -170.4374267125535 -1.7994344662360855 0 0 1 1 0 -0 -0 1 0 
1 209.40562037643738 -170.4374267125535 -1.7994344662360855 1 0 -0 0 0 1 0 -1 0 
Triangulations 0

TShapes 34
Ve
1e-07
-209.405620376437 -170.437426712554 1.79943446623609
0 0

0101101
*
Ve
1e-07
-209.405620376437 -170.437426712554 -1.79943446623609
0 0

0101101
*
Ed
 1e-07 1 1 0
1  1 0 0 3.59886893247217
2  1 1 0 0 3.59886893247217
2  2 2 0 0 3.59886893247217
0

0101000
-34 0 +33 0 *
Ve
1e-07
-209.405620376437 170.437426712554 1.79943446623609
0 0

0101101
*
Ed
 1e-07 1 1 0
1  2 0 0 340.874853425107
2  3 1 0 0 340.874853425107
2  4 3 0 0 340.874853425107
0

0101000
-31 0 +34 0 *
Ve
1e-07
-209.405620376437 170.437426712554 -1.79943446623609
0 0

0101101
*
Ed
 1e-07 1 1 0
1  3 0 0 3.59886893247217
2  5 1 0 0 3.59886893247217
2  6 4 0 0 3.59886893247217
0

0101000
-31 0 +29 0 *
Ed
 1e-07 1 1 0
1  4 0 0 340.874853425107
2  7 1 0 0 340.874853425107
2  8 5 0 0 340.874853425107
0

0101000
-29 0 +33 0 *
Wi

0101100
-32 0 -30 0 +28 0 +27 0 *
Fa
0  1e-07 1 0

0111000
+26 0 *
Ve
1e-07
209.405620376437 -170.437426712554 1.79943446623609
0 0

0101101
*
Ve
1e-07
209.405620376437 -170.437426712554 -1.79943446623609
0 0

0101101
*
Ed
 1e-07 1 1 0
1  5 0 0 3.59886893247217
2  9 6 0 0 3.59886893247217
2  10 2 0 0 3.59886893247217
0

0101000
-24 0 +23 0 *
Ve
1e-07
209.405620376437 170.437426712554 1.79943446623609
0 0

0101101
*
Ed
 1e-07 1 1 0
1  6 0 0 340.874853425107
2  11 6 0 0 340.874853425107
2  12 3 0 0 340.874853425107
0

0101000
-21 0 +24 0 *
Ve
1e-07
209.405620376437 170.437426712554 -1.79943446623609
0 0

0101101
*
Ed
 1e-07 1 1 0
1  7 0 0 3.59886893247217
2  13 6 0 0 3.59886893247217
2  14 4 0 0 3.59886893247217
0

0101000
-21 0 +19 0 *
Ed
 1e-07 1 1 0
1  8 0 0 340.874853425107
2  15 6 0 0 340.874853425107
2  16 5 0 0 340.874853425107
0

0101000
-19 0 +23 0 *
Wi

0101100
-22 0 -20 0 +18 0 +17 0 *
Fa
0  1e-07 6 0

0111000
+16 0 *
Ed
 1e-07 1 1 0
1  9 0 0 418.811240752875
2  17 2 0 0 418.811240752875
2  18 5 0 0 418.811240752875
0

0101000
-23 0 +33 0 *
Ed
 1e-07 1 1 0
1  10 0 0 418.811240752875
2  19 2 0 0 418.811240752875
2  20 3 0 0 418.811240752875
0

0101000
-24 0 +34 0 *
Wi

0101100
-14 0 -22 0 +13 0 +32 0 *
Fa
0  1e-07 2 0

0111000
+12 0 *
Ed
 1e-07 1 1 0
1  11 0 0 418.811240752875
2  21 4 0 0 418.811240752875
2  22 5 0 0 418.811240752875
0

0101000
-19 0 +29 0 *
Ed
 1e-07 1 1 0
1  12 0 0 418.811240752875
2  23 4 0 0 418.811240752875
2  24 3 0 0 418.811240752875
0

0101000
-21 0 +31 0 *
Wi

0101100
-10 0 -18 0 +9 0 +28 0 *
Fa
0  1e-07 4 0

0111000
+8 0 *
Wi

0101100
-27 0 -10 0 +17 0 +14 0 *
Fa
0  1e-07 5 0

0111000
+6 0 *
Wi

0101100
-30 0 -9 0 +20 0 +13 0 *
Fa
0  1e-07 3 0

0111000
+4 0 *
Sh

0101100
-25 0 +15 0 -11 0 +7 0 -5 0 +3 0 *
So

1100000
+2 0 *

+1 1 