DBRep_DrawableShape

CASCADE Topology V1, (c) Matra-Datavision
Locations 1
1
0.329931425916996 -0.847737098223978 0.415315622734285 32.9222831393304 
0.19365079008079 0.491373641261734 0.849147405445174 -20.2120157250842 
-0.923928907272342 -0.199734215816854 0.32628456497138 35.5280182304559 
Curve2ds 24
1 0 0 1 0 
1 0 0 1 0 
1 9.9475622828082475 0 0 -1 
1 0 0 0 1 
1 0 -430.97049574507076 1 0 
1 0 0 1 0 
1 0 0 0 -1 
1 0 0 0 1 
1 0 0 1 0 
1 0 362.43270739867449 1 0 
1 9.9475622828082475 0 0 -1 
1 362.43270739867449 0 0 1 
1 0 -430.97049574507076 1 0 
1 0 362.43270739867449 1 0 
1 0 0 0 -1 
1 362.43270739867449 0 0 1 
1 0 0 0 1 
1 0 0 1 0 
1 9.9475622828082475 0 0 1 
1 0 0 1 0 
1 0 0 0 1 
1 0 430.97049574507076 1 0 
1 9.9475622828082475 0 0 1 
1 0 430.97049574507076 1 0 
Curves 12
1 -181.21635369933725 -215.48524787253538 -4.9737811414041238 0 0 1 
1 -181.21635369933725 -215.48524787253538 4.9737811414041238 -0 1 0 
1 -181.21635369933725 215.48524787253538 -4.9737811414041238 0 0 1 
1 -181.21635369933725 -215.48524787253538 -4.9737811414041238 -0 1 0 
1 181.21635369933725 -215.48524787253538 -4.9737811414041238 0 0 1 
1 181.21635369933725 -215.48524787253538 4.9737811414041238 -0 1 0 
1 181.21635369933725 215.48524787253538 -4.9737811414041238 0 0 1 
1 181.21635369933725 -215.48524787253538 -4.9737811414041238 -0 1 0 
1 -181.21635369933725 -215.48524787253538 -4.9737811414041238 1 0 -0 
1 -181.21635369933725 -215.48524787253538 4.9737811414041238 1 0 -0 
1 -181.21635369933725 215.48524787253538 -4.9737811414041238 1 0 -0 
1 -181.21635369933725 215.48524787253538 4.9737811414041238 1 0 -0 
Polygon3D 0
PolygonOnTriangulations 0
Surfaces 6
1 -181.21635369933725 -215.48524787253538 -4.9737811414041238 1 0 -0 0 0 1 0 -1 0 
1 -181.21635369933725 -215.48524787253538 -4.9737811414041238 -0 1 0 0 0 1 1 0 -0 
1 -181.21635369933725 -215.48524787253538 4.9737811414041238 0 0 1 1 0 -0 -0 1 0 
1 -181.21635369933725 215.48524787253538 -4.9737811414041238 -0 1 0 0 0 1 1 0 -0 
1 -181.21635369933725 -215.48524787253538 -4.9737811414041238 0 0 1 1 0 -0 -0 1 0 
1 181.21635369933725 -215.48524787253538 -4.9737811414041238 1 0 -0 0 0 1 0 -1 0 
Triangulations 0

TShapes 34
Ve
1e-07
-181.216353699337 -215.485247872535 4.97378114140412
0 0

0101101
*
Ve
1e-07
-181.216353699337 -215.485247872535 -4.97378114140412
0 0

0101101
*
Ed
 1e-07 1 1 0
1  1 0 0 9.94756228280825
2  1 1 0 0 9.94756228280825
2  2 2 0 0 9.94756228280825
0

0101000
-34 0 +33 0 *
Ve
1e-07
-181.216353699337 215.485247872535 4.97378114140412
0 0

0101101
*
Ed
 1e-07 1 1 0
1  2 0 0 430.970495745071
2  3 1 0 0 430.970495745071
2  4 3 0 0 430.970495745071
0

0101000
-31 0 +34 0 *
Ve
1e-07
-181.216353699337 215.485247872535 -4.97378114140412
0 0

0101101
*
Ed
 1e-07 1 1 0
1  3 0 0 9.94756228280825
2  5 1 0 0 9.94756228280825
2  6 4 0 0 9.94756228280825
0

0101000
-31 0 +29 0 *
Ed
 1e-07 1 1 0
1  4 0 0 430.970495745071
2  7 1 0 0 430.970495745071
2  8 5 0 0 430.970495745071
0

0101000
-29 0 +33 0 *
Wi

0101100
-32 0 -30 0 +28 0 +27 0 *
Fa
0  1e-07 1 0

0111000
+26 0 *
Ve
1e-07
181.216353699337 -215.485247872535 4.97378114140412
0 0

0101101
*
Ve
1e-07
181.216353699337 -215.485247872535 -4.97378114140412
0 0

0101101
*
Ed
 1e-07 1 1 0
1  5 0 0 9.94756228280825
2  9 6 0 0 9.94756228280825
2  10 2 0 0 9.94756228280825
0

0101000
-24 0 +23 0 *
Ve
1e-07
181.216353699337 215.485247872535 4.97378114140412
0 0

0101101
*
Ed
 1e-07 1 1 0
1  6 0 0 430.970495745071
2  11 6 0 0 430.970495745071
2  12 3 0 0 430.970495745071
0

0101000
-21 0 +24 0 *
Ve
1e-07
181.216353699337 215.485247872535 -4.97378114140412
0 0

0101101
*
Ed
 1e-07 1 1 0
1  7 0 0 9.94756228280825
2  13 6 0 0 9.94756228280825
2  14 4 0 0 9.94756228280825
0

0101000
-21 0 +19 0 *
Ed
 1e-07 1 1 0
1  8 0 0 430.970495745071
2  15 6 0 0 430.970495745071
2  16 5 0 0 430.970495745071
0

0101000
-19 0 +23 0 *
Wi

0101100
-22 0 -20 0 +18 0 +17 0 *
Fa
0  1e-07 6 0

0111000
+16 0 *
Ed
 1e-07 1 1 0
1  9 0 0 362.432707398674
2  17 2 0 0 362.432707398674
2  18 5 0 0 362.432707398674
0

0101000
-23 0 +33 0 *
Ed
 1e-07 1 1 0
1  10 0 0 362.432707398674
2  19 2 0 0 362.432707398674
2  20 3 0 0 362.432707398674
0

0101000
-24 0 +34 0 *
Wi

0101100
-14 0 -22 0 +13 0 +32 0 *
Fa
0  1e-07 2 0

0111000
+12 0 *
Ed
 1e-07 1 1 0
1  11 0 0 362.432707398674
2  21 4 0 0 362.432707398674
2  22 5 0 0 362.432707398674
0

0101000
-19 0 +29 0 *
Ed
 1e-07 1 1 0
1  12 0 0 362.432707398674
2  23 4 0 0 362.432707398674
2  24 3 0 0 362.432707398674
0

0101000
-21 0 +31 0 *
Wi

0101100
-10 0 -18 0 +9 0 +28 0 *
Fa
0  1e-07 4 0

0111000
+8 0 *
Wi

0101100
-27 0 -10 0 +17 0 +14 0 *
Fa
0  1e-07 5 0

0111000
+6 0 *
Wi

0101100
-30 0 -9 0 +20 0 +13 0 *
Fa
0  1e-07 3 0

0111000
+4 0 *
Sh

0101100
-25 0 +15 0 -11 0 +7 0 -5 0 +3 0 *
So

1100000
+2 0 *

+1 1 