DBRep_DrawableShape

CASCADE Topology V1, (c) Matra-Datavision
Locations 1
1
0.186131357474623 0.0994620715748707 0.977477577278727 3.37008939468178 
0.32205684282586 0.93372290260634 -0.15633595599679 41.6005722780142 
-0.928242698734385 0.343902366183233 0.14176267061494 -7.31870482067725 
Curve2ds 24
1 0 0 1 0 
1 0 0 1 0 
1 5.1866322462142787 0 0 -1 
1 0 0 0 1 
1 0 -360.29340119438052 1 0 
1 0 0 1 0 
1 0 0 0 -1 
1 0 0 0 1 
1 0 0 1 0 
1 0 333.87889228740448 1 0 
1 5.1866322462142787 0 0 -1 
1 333.87889228740448 0 0 1 
1 0 -360.29340119438052 1 0 
1 0 333.87889228740448 1 0 
1 0 0 0 -1 
1 333.87889228740448 0 0 1 
1 0 0 0 1 
1 0 0 1 0 
1 5.1866322462142787 0 0 1 
1 0 0 1 0 
1 0 0 0 1 
1 0 360.29340119438052 1 0 
1 5.1866322462142787 0 0 1 
1 0 360.29340119438052 1 0 
Curves 12
1 -166.93944614370224 -180.14670059719026 -2.5933161231071393 0 0 1 
1 -166.93944614370224 -180.14670059719026 2.5933161231071393 -0 1 0 
1 -166.93944614370224 180.14670059719026 -2.5933161231071393 0 0 1 
1 -166.93944614370224 -180.14670059719026 -2.5933161231071393 -0 1 0 
1 166.93944614370224 -180.14670059719026 -2.5933161231071393 0 0 1 
1 166.93944614370224 -180.14670059719026 2.5933161231071393 -0 1 0 
1 166.93944614370224 180.14670059719026 -2.5933161231071393 0 0 1 
1 166.93944614370224 -180.14670059719026 -2.5933161231071393 -0 1 0 
1 -166.93944614370224 -180.14670059719026 -2.5933161231071393 1 0 -0 
1 -166.93944614370224 -180.14670059719026 2.5933161231071393 1 0 -0 
1 -166.93944614370224 180.14670059719026 -2.5933161231071393 1 0 -0 
1 -166.93944614370224 180.14670059719026 2.5933161231071393 1 0 -0 
Polygon3D 0
PolygonOnTriangulations 0
Surfaces 6
1 -166.93944614370224 -180.14670059719026 -2.5933161231071393 1 0 -0 0 0 1 0 -1 0 
1 -166.93944614370224 -180.14670059719026 -2.5933161231071393 -0 1 0 0 0 1 1 0 -0 
1 -166.93944614370224 -180.14670059719026 2.5933161231071393 0 0 1 1 0 -0 -0 1 0 
1 -166.93944614370224 180.14670059719026 -2.5933161231071393 -0 1 0 0 0 1 1 0 -0 
1 -166.93944614370224 -180.14670059719026 -2.5933161231071393 0 0 1 1 0 -0 -0 1 0 
1 166.93944614370224 -180.14670059719026 -2.5933161231071393 1 0 -0 0 0 1 0 -1 0 
Triangulations 0

TShapes 34
Ve
1e-07
-166.939446143702 -180.14670059719 2.59331612310714
0 0

0101101
*
Ve
1e-07
-166.939446143702 -180.14670059719 -2.59331612310714
0 0

0101101
*
Ed
 1e-07 1 1 0
1  1 0 0 5.18663224621428
2  1 1 0 0 5.18663224621428
2  2 2 0 0 5.18663224621428
0

0101000
-34 0 +33 0 *
Ve
1e-07
-166.939446143702 180.14670059719 2.59331612310714
0 0

0101101
*
Ed
 1e-07 1 1 0
1  2 0 0 360.293401194381
2  3 1 0 0 360.293401194381
2  4 3 0 0 360.293401194381
0

0101000
-31 0 +34 0 *
Ve
1e-07
-166.939446143702 180.14670059719 -2.59331612310714
0 0

0101101
*
Ed
 1e-07 1 1 0
1  3 0 0 5.18663224621428
2  5 1 0 0 5.18663224621428
2  6 4 0 0 5.18663224621428
0

0101000
-31 0 +29 0 *
Ed
 1e-07 1 1 0
1  4 0 0 360.293401194381
2  7 1 0 0 360.293401194381
2  8 5 0 0 360.293401194381
0

0101000
-29 0 +33 0 *
Wi

0101100
-32 0 -30 0 +28 0 +27 0 *
Fa
0  1e-07 1 0

0111000
+26 0 *
Ve
1e-07
166.939446143702 -180.14670059719 2.59331612310714
0 0

0101101
*
Ve
1e-07
166.939446143702 -180.14670059719 -2.59331612310714
0 0

0101101
*
Ed
 1e-07 1 1 0
1  5 0 0 5.18663224621428
2  9 6 0 0 5.18663224621428
2  10 2 0 0 5.18663224621428
0

0101000
-24 0 +23 0 *
Ve
1e-07
166.939446143702 180.14670059719 2.59331612310714
0 0

0101101
*
Ed
 1e-07 1 1 0
1  6 0 0 360.293401194381
2  11 6 0 0 360.293401194381
2  12 3 0 0 360.293401194381
0

0101000
-21 0 +24 0 *
Ve
1e-07
166.939446143702 180.14670059719 -2.59331612310714
0 0

0101101
*
Ed
 1e-07 1 1 0
1  7 0 0 5.18663224621428
2  13 6 0 0 5.18663224621428
2  14 4 0 0 5.18663224621428
0

0101000
-21 0 +19 0 *
Ed
 1e-07 1 1 0
1  8 0 0 360.293401194381
2  15 6 0 0 360.293401194381
2  16 5 0 0 360.293401194381
0

0101000
-19 0 +23 0 *
Wi

0101100
-22 0 -20 0 +18 0 +17 0 *
Fa
0  1e-07 6 0

0111000
+16 0 *
Ed
 1e-07 1 1 0
1  9 0 0 333.878892287404
2  17 2 0 0 333.878892287404
2  18 5 0 0 333.878892287404
0

0101000
-23 0 +33 0 *
Ed
 1e-07 1 1 0
1  10 0 0 333.878892287404
2  19 2 0 0 333.878892287404
2  20 3 0 0 333.878892287404
0

0101000
-24 0 +34 0 *
Wi

0101100
-14 0 -22 0 +13 0 +32 0 *
Fa
0  1e-07 2 0

0111000
+12 0 *
Ed
 1e-07 1 1 0
1  11 0 0 333.878892287404
2  21 4 0 0 333.878892287404
2  22 5 0 0 333.878892287404
0

0101000
-19 0 +29 0 *
Ed
 1e-07 1 1 0
1  12 0 0 333.878892287404
2  23 4 0 0 333.878892287404
2  24 3 0 0 333.878892287404
0

0101000
-21 0 +31 0 *
Wi

0101100
-10 0 -18 0 +9 0 +28 0 *
Fa
0  1e-07 4 0

0111000
+8 0 *
Wi

0101100
-27 0 -10 0 +17 0 +14 0 *
Fa
0  1e-07 5 0

0111000
+6 0 *
Wi

0101100
-30 0 -9 0 +20 0 +13 0 *
Fa
0  1e-07 3 0

0111000
+4 0 *
Sh

0101100
-25 0 +15 0 -11 0 +7 0 -5 0 +3 0 *
So

1100000
+2 0 *

+1 1 